<svg id="illustration" xmlns="http://www.w3.org/2000/svg" viewBox="0 0 400 400"><defs><style>.cls-1,.cls-8{fill:#35785d;}.cls-2,.cls-31{fill:#54b08b;}.cls-15,.cls-16,.cls-17,.cls-27,.cls-28,.cls-29,.cls-3,.cls-30,.cls-31,.cls-6,.cls-7,.cls-8,.cls-9{fill-rule:evenodd;}.cls-3{opacity:0.1;}.cls-4,.cls-9{fill:#c3987b;}.cls-27,.cls-5{fill:#8b6651;}.cls-10,.cls-6{fill:#dfbda5;}.cls-23,.cls-7{fill:#3f8f6f;}.cls-11{fill:#6f7173;}.cls-12{fill:#9da1a2;}.cls-13{fill:#858686;}.cls-14{fill:#8f8f8f;}.cls-15{fill:#bfdb8e;}.cls-16{fill:#99c26d;}.cls-17{fill:#a0cf7e;}.cls-18{fill:#fff;}.cls-19{fill:#e8cab6;}.cls-20{fill:#4f5253;}.cls-21{fill:#2b2b2b;}.cls-22{fill:#cececd;}.cls-24{fill:none;}.cls-25{fill:#ececeb;}.cls-26,.cls-30{fill:#72c9a6;}.cls-28{fill:#474747;}.cls-29{fill:#e8f078;}</style></defs><title>Campaigner (ENFP) personality</title><polygon class="cls-1" points="237.94 139.6 203.1 121.43 200.83 156.96 209.97 157.87 237.94 139.6"/><polygon class="cls-2" points="226.27 157.43 237.94 139.6 209.97 157.87 226.27 157.43"/><polygon class="cls-1" points="236.75 166.08 265.03 212.59 240.17 238.36 236.75 166.08"/><polygon class="cls-3" points="298.66 379.25 182.19 370.55 93.09 390.62 196.92 400 298.66 379.25"/><polygon class="cls-4" points="153.34 315.93 142.36 316.29 149.97 361.31 166.8 361.81 176.41 320.81 153.34 315.93"/><polygon class="cls-5" points="169.94 304.31 180.67 310.43 176.41 320.81 142.36 316.29 169.94 304.31"/><polygon class="cls-4" points="213.89 301.42 238.66 312.99 233.28 353.02 211.08 357.91 204.01 318 213.89 301.42"/><polygon class="cls-5" points="231.09 302.97 238.66 312.99 204.01 318 201.44 314.22 194.98 298.93 231.09 302.97"/><polygon class="cls-6" points="166.8 361.81 170.1 370.64 168.76 374.62 171.9 375.48 175.83 386.01 141.18 387.16 143.65 375.36 146.29 374.15 145.78 370.63 149.97 361.31 166.8 361.81"/><polygon class="cls-7" points="170.1 370.64 171.9 375.48 162.08 386.42 152.53 386.7 143.65 375.36 145.78 370.63 156.9 379.1 170.1 370.64"/><polygon class="cls-6" points="233.28 353.02 247.54 366.73 246.93 369.4 250.96 369.13 264.86 378.89 212.75 377.02 211.08 357.91 233.28 353.02"/><path class="cls-7" d="M247.54,366.73l3.42,2.4-8.65,8.95-17.53-.63c5.47-2.63,16.94-8,22.76-10.72"/><path class="cls-8" d="M267.54,376.83,210,375.43l.09,6.45,57.08.74s.15-5.79.39-5.79"/><polygon class="cls-8" points="178.89 384.33 135.68 384.7 136.22 391.05 178.89 391.05 178.89 384.33"/><polygon class="cls-9" points="250.96 369.13 264.86 368.63 261.74 376.69 244.06 376.26 250.96 369.13"/><polygon class="cls-9" points="163.84 384.45 178.89 384.33 171.9 375.48 163.84 384.45"/><polygon class="cls-9" points="143.65 375.36 139.46 384.67 150.94 384.67 143.65 375.36"/><polygon class="cls-1" points="126.83 141.6 161.66 123.43 163.94 158.96 158.9 159.38 126.83 141.6"/><polygon class="cls-4" points="161.43 102.11 156.41 38.85 217.88 43.19 223.18 142.97 209.97 157.87 192.81 186.38 163.94 158.96 148.7 107.6 161.43 102.11"/><polyline class="cls-5" points="219.18 142.97 172.68 143.01 193.45 164.58"/><polygon class="cls-10" points="241.2 21.28 192.24 32.15 178.9 21.6 176.72 47.89 180.43 52.59 185.79 143.02 254.93 142.81 255.83 46.58 241.2 21.28"/><polygon class="cls-10" points="143.08 82.28 148.7 107.6 164.75 103.95 159.68 79.67 143.08 82.28"/><polygon class="cls-5" points="147.56 88.25 156.81 94.56 155.69 86.75 147.56 88.25"/><polygon class="cls-5" points="148.7 107.6 150.83 114.81 164.75 103.95 148.7 107.6"/><polygon class="cls-11" points="253.78 37.9 267.11 54.74 255.49 75.29 253.78 37.9"/><polygon class="cls-12" points="180.94 50.82 228.5 19.08 231.21 3.52 250.17 21.07 239.25 49.15 218.29 47.88 180.94 50.82"/><polygon class="cls-13" points="250.17 21.07 261.25 47.36 239.25 49.15 250.17 21.07"/><polygon class="cls-12" points="148.5 39.12 138.97 58.11 145.28 75.75 160.19 76.25 167.39 87.78 165.86 77.07 173.53 74.3 168.8 56.58 180.94 50.82 148.5 39.12"/><polygon class="cls-11" points="204.37 21.74 202.75 14.59 211.05 0 228.5 19.08 204.37 21.74"/><polygon class="cls-11" points="250.17 21.07 180.94 50.82 239.25 49.15 250.17 21.07"/><polygon class="cls-14" points="228.5 19.08 155.11 27.18 148.5 39.12 180.94 50.82 228.5 19.08"/><polygon class="cls-13" points="231.21 3.52 204.37 21.74 228.5 19.08 231.21 3.52"/><polygon class="cls-11" points="188.06 15.81 178.74 24.57 155.11 27.18 188.06 15.81"/><polygon class="cls-13" points="204.37 21.74 178.74 24.57 188.06 15.81 211.05 0 204.37 21.74"/><polygon class="cls-13" points="148.5 39.12 173.53 74.3 180.94 50.82 148.5 39.12"/><polygon class="cls-11" points="173.53 74.3 171.3 90.3 164.75 103.95 159.68 79.67 143.08 82.28 138.97 58.11 173.53 74.3"/><polygon class="cls-15" points="172.34 338.09 179.68 331.73 187.44 313.36 170.23 292.87 141.78 304.97 141.2 325.54 145.3 333.32 172.34 338.09"/><polygon class="cls-16" points="224.85 249.51 240.23 263.45 241.78 284.78 220.9 292.82 192.5 300.02 156.72 296.9 142.74 281.3 160 251.16 196.24 234.79 224.85 249.51"/><polygon class="cls-17" points="192.5 300.02 142.74 281.3 141.78 304.97 187.44 313.36 192.5 300.02"/><polygon class="cls-15" points="236.79 327.42 241.81 321.02 241.43 302.61 212.77 293.97 194.88 313.36 199.76 326.88 206.98 335.2 236.79 327.42"/><polygon class="cls-17" points="241.43 302.61 241.78 284.78 192.5 300.02 194.88 313.36 241.43 302.61"/><polygon class="cls-4" points="233.15 132.97 241.87 120.49 207.3 121.04 218.58 133.58 233.15 132.97"/><polygon class="cls-18" points="231.34 128.19 235.89 120.79 212.93 121.04 220.89 128.41 231.34 128.19"/><polygon class="cls-5" points="228.01 118.7 234.07 116.51 241.87 120.49 226.83 121.73 207.3 121.04 221.11 116.86 228.01 118.7"/><polyline class="cls-4" points="251.48 78.93 239.93 87.58 230.4 105.95 225.67 108.27 221.11 106.22 202.98 87 191.9 81.44 201.48 78.22 216.25 79.45 221.37 85.02 224.78 87.53 226.87 84.56 229.45 79.25 244.09 76.79 251.48 78.93"/><polygon class="cls-19" points="226.87 84.56 230.4 105.95 221.11 106.22 221.37 85.02 226.87 84.56"/><polyline class="cls-5" points="225.75 110.88 230.4 105.95 221.11 106.22 225.75 110.88"/><polyline class="cls-20" points="251.48 78.93 245.91 75.93 229 76.02 229.45 79.25 244.81 78.51 251.48 78.93"/><polygon class="cls-20" points="216.32 76.27 216.25 79.45 201.11 79.87 191.9 81.44 199.51 77.66 216.32 76.27"/><path class="cls-21" d="M240.1,84.82a4.5,4.5,0,1,0,4.7,4.29A4.48,4.48,0,0,0,240.1,84.82Z"/><path class="cls-21" d="M207,85.54a4.5,4.5,0,1,0,4.63,4.37A4.51,4.51,0,0,0,207,85.54Z"/><polygon class="cls-22" points="202.93 241.44 218.57 221.51 217.1 197.39 170.09 194.77 182.86 223.34 202.93 241.44"/><polygon class="cls-1" points="208.14 257.8 202.93 233.95 184.96 201.41 153.17 170.78 124.02 168.69 130 193.58 127.69 216.9 140 246.48 163.43 249.91 208.14 257.8"/><polygon class="cls-23" points="236.75 166.08 240.76 250.84 202.93 252.22 202.93 233.95 206.09 201.93 223.24 173.39 236.75 166.08"/><polygon class="cls-23" points="124.02 168.69 110.91 243.02 144.31 224.15 124.02 168.69"/><line class="cls-24" x1="203.4" y1="209.94" x2="205.73" y2="214.81"/><polygon class="cls-1" points="203.13 287.39 204.94 249.21 146.29 243.63 142.74 281.3 203.13 287.39"/><polygon class="cls-1" points="240.76 250.84 202.93 252.22 203.13 287.39 241.78 284.78 240.76 250.84"/><polygon class="cls-4" points="182.04 254.85 167.02 248.4 158.49 255.01 153.62 264.79 164.41 275.56 176.62 265.79 182.04 254.85"/><polygon class="cls-2" points="156.34 267.7 110.91 243.02 144.31 224.15 167.02 248.4 156.34 267.7"/><polygon class="cls-2" points="202.9 243.15 203.13 287.39 238.66 284.99 238.45 275.44 210.45 242.84 202.9 243.15"/><polygon class="cls-23" points="202.9 243.15 203.13 287.39 157.01 282.71 157.17 274.97 194.33 243.15 202.9 243.15"/><polygon class="cls-25" points="212.41 161.73 209.97 157.87 192.81 186.38 163.94 158.96 158.9 159.38 184.96 201.41 206.09 201.93 212.41 161.73"/><polygon class="cls-26" points="184.96 201.41 163.94 158.96 126.83 141.6 138.5 159.43 124.02 168.69 166.87 200.19 179.61 208.37 184.96 201.41"/><polygon class="cls-2" points="166.87 200.19 202.93 233.95 184.96 201.41 166.87 200.19"/><polygon class="cls-26" points="206.09 201.93 209.97 157.87 225.5 154.43 239.5 159.43 221.09 201.84 213.18 205.06 206.09 201.93"/><polygon class="cls-2" points="206.09 201.93 206.09 201.93 221.09 201.84 202.93 233.95 206.09 201.93"/><polygon class="cls-9" points="280.58 213.83 287.71 211.13 291.82 199.7 281.51 195.61 268.54 198.13 264.86 202.38 280.58 213.83"/><polygon class="cls-27" points="282.92 212.94 287.71 211.13 281.65 196.05 276.64 196.85 281.03 203.39 282.92 212.94"/><polygon class="cls-28" points="261.11 167.06 256.36 186.09 226.97 177.36 232.37 156.93 234.84 149.2 294.38 169.79 296.18 183.43 294.66 190.96 283.21 196.82 269.5 190.75 262.19 187.95 267.65 168.94 261.11 167.06"/><polygon class="cls-28" points="209.97 157.87 234.84 149.19 232.37 156.93 209.33 164.1 209.97 157.87"/><polygon class="cls-6" points="268.54 198.13 281.03 203.39 284.2 195.84 269.5 190.75 268.54 198.13"/><polygon class="cls-6" points="303.39 174.23 296.18 183.43 288.15 175.43 297.62 167.16 303.39 174.23"/><polygon class="cls-29" points="232.65 174.94 237.25 158.87 256.49 164.9 252.98 180.96 232.65 174.94"/><polygon class="cls-29" points="268.21 185.98 272.05 170.42 288.15 175.43 292.51 179.79 289.25 189.53 286.24 192 268.21 185.98"/><polygon class="cls-9" points="305.78 203.5 296.18 183.43 281.65 196.05 284.66 203.53 287.71 211.13 305.78 203.5"/><polygon class="cls-2" points="264.86 202.38 240.17 238.36 268.29 247.98 280.58 213.83 264.86 202.38"/><polygon class="cls-2" points="138.5 159.43 126.83 141.6 163.94 158.96 138.5 159.43"/><polygon class="cls-27" points="148.63 107.55 164.75 103.95 158.96 115.93 154.56 127.18 148.63 107.55"/><polygon class="cls-30" points="164.75 103.95 155.75 98.56 148.63 107.55 158.97 112.25 164.75 103.95"/><polygon class="cls-31" points="148.63 107.55 155.4 97.25 164.75 103.95 156.25 101.31 148.63 107.55"/><polygon class="cls-8" points="148.63 107.55 158.08 111.31 164.75 103.95 158.96 115.93 148.63 107.55"/></svg>



