<svg id="illustration" xmlns="http://www.w3.org/2000/svg" viewBox="0 0 400 400"><defs><style>.cls-1{fill:#35785d;}.cls-2{fill:#c3987b;}.cls-3{fill:#dfbda5;}.cls-4{fill:#e8cab6;}.cls-5{fill:#8b6651;}.cls-6{fill:#5a753d;}.cls-17,.cls-7{fill:#2b2b2b;}.cls-7{opacity:0.1;}.cls-8{fill:#54b08b;}.cls-9{fill:#3f8f6f;}.cls-10{fill:#99c26d;}.cls-11{fill:#fff;}.cls-12{fill:#bfdb8e;}.cls-13{fill:#474747;}.cls-14{fill:#709d53;}.cls-15{fill:#72c9a6;}.cls-16{fill:#446125;}.cls-18{fill:#6f7173;}.cls-19{fill:#738d57;}.cls-20{fill:#9da1a2;}</style></defs><title>Campaigner (ENFP) personality</title><polygon class="cls-1" points="290.58 20.1 307.09 8.06 284.61 0 290.58 20.1"/><polygon class="cls-2" points="85.58 189.02 80.83 204.67 58.26 206.36 85.58 189.02"/><polygon class="cls-3" points="110.89 141.6 76.45 171.86 73.92 185.1 85.58 189.02 106.07 179.15 114.39 160.9 110.89 141.6"/><polygon class="cls-4" points="76.45 171.86 56.95 180.32 60.18 195.34 69.23 201.17 85.58 189.02 76.45 171.86"/><polygon class="cls-2" points="56.95 180.32 45.06 199.53 53.24 213.32 69.23 201.17 56.95 180.32"/><polygon class="cls-5" points="110.89 141.6 106.07 179.15 116.84 174.38 120.84 159.19 110.89 141.6"/><polygon class="cls-6" points="175.42 147.77 110.89 141.6 119.64 192.96 137.43 194.19 161.53 172.86 175.42 147.77"/><polygon class="cls-3" points="296.9 216.57 307.03 198.48 319.49 194.48 321.08 198.98 319.49 211.01 296.9 216.57"/><polygon class="cls-3" points="270.44 217.65 296.9 216.57 300.04 223.69 300.04 233.2 270.2 244.75 261.17 237.21 270.44 217.65"/><polygon class="cls-5" points="270.44 217.65 270.2 244.75 254.12 252.09 254.12 234.87 270.44 217.65"/><polygon class="cls-2" points="296.9 216.57 300.04 233.2 313.35 232.76 311.63 212.18 296.9 216.57"/><polygon class="cls-6" points="247.03 188.04 270.44 217.65 248.28 264.39 228.87 235.86 232.01 211.42 247.03 188.04"/><polygon class="cls-7" points="51.41 392.32 145.02 400 311.91 392.32 141.84 382.37 51.41 392.32"/><polygon class="cls-8" points="153.59 307.8 125.61 327.1 104.84 318.74 104.15 284.49 117.84 248.27 144.16 284.49 153.59 307.8"/><polygon class="cls-8" points="216.17 318.74 211.65 280.87 162.53 280.87 153.59 307.8 167.18 337.66 192.06 335.5 216.17 318.74"/><polygon class="cls-1" points="167.18 337.66 174.61 370.25 191.06 374.96 201.37 364.25 216.17 318.74 167.18 337.66"/><polygon class="cls-1" points="79.29 324.62 125.61 327.1 104.15 284.49 70.36 298.69 67.92 315.67 79.29 324.62"/><polygon class="cls-9" points="211.65 280.87 153.59 307.8 117.84 248.27 211.65 280.87"/><polygon class="cls-10" points="202.27 200 183.14 226.96 156.84 221.86 137.43 194.19 175.42 147.77 205 172.2 202.27 200"/><polygon class="cls-3" points="189.32 142.14 208.38 161.9 225.59 160.25 234.68 157.97 265.28 170.05 306.88 89.53 310.91 66.71 285.8 63 239.62 49.02 221.09 62.5 214.28 86.3 196.56 85.5 189.32 142.14"/><polygon class="cls-2" points="212.12 148.51 243.88 69.1 247.03 53.02 226.16 59.7 210.65 77.53 191.06 78.16 190.46 99.83 192.84 104.34 190.11 112.68 189.32 141.6 193.18 157.5 205 172.2 208.38 152.8 212.12 148.51"/><polygon class="cls-5" points="190.52 99.84 202.27 100.2 190.11 112.68 190.52 99.84"/><polygon class="cls-8" points="307.09 8.06 278.09 20.14 269.24 37.5 284.61 73.15 304.87 43.5 307.09 8.06"/><polygon class="cls-5" points="195.52 83.51 203.17 83.51 202.17 95.69 195.52 83.51"/><polygon class="cls-4" points="264.4 126.16 255.5 122.32 267.32 93.87 276.23 97.71 264.4 126.16"/><polygon class="cls-5" points="264.4 126.16 257.69 128.04 255.5 122.32 264.4 126.16"/><polygon class="cls-11" points="240.61 140.6 237.31 124.64 271.99 140.17 258.1 147.51 240.61 140.6"/><path class="cls-2" d="M239,126.7l30.27,13.56L258,146.19l-16.37-6.47-2.69-13m-3.32-4.13,1,4.62,2.68,13,.27,1.28,1.21.48,16.37,6.46,1,.41,1-.52,11.2-5.93,4.39-2.31-4.53-2L240,124.5l-4.31-1.93Z"/><polygon class="cls-12" points="239.62 177.38 205 172.2 199.44 186.11 199.45 186.1 183.14 226.96 208.38 239.03 228.87 235.86 228.88 235.85 247.03 188.04 239.62 177.38"/><polygon class="cls-1" points="247.03 77.7 248.9 80.14 264.16 79.33 268.49 84.58 270.2 83.58 269.24 74.08 247.03 77.7"/><polygon class="cls-1" points="282.73 91.17 289.22 93.56 296.12 89.78 304.87 90.43 296.62 86 282.73 91.17"/><polygon class="cls-13" points="192.18 176.65 199.45 186.1 210.38 183.03 205 172.2 192.18 176.65"/><polygon class="cls-6" points="171.11 218.34 137.43 194.19 117.84 248.27 162.53 280.87 189.32 242 171.11 218.34"/><polygon class="cls-14" points="228.87 235.86 228.87 235.86 183.14 226.96 178.04 239.04 162.53 280.87 211.65 280.87 228.87 235.86"/><polygon class="cls-15" points="317.75 64.83 318.76 38.46 307.09 8.06 284.61 73.15 317.75 64.83"/><polygon class="cls-9" points="190.52 55.77 191.06 78.16 208.38 81.61 207.81 97.08 221.69 98.03 227.16 66.71 214.6 54.92 190.52 55.77"/><polygon class="cls-16" points="240.91 76.53 191.06 71.5 191.06 78.16 236.64 87.22 240.91 76.53"/><polygon class="cls-9" points="242.87 17.32 238.29 40.6 246.67 53.79 246.67 53.79 247.03 53.56 284.61 73.15 278.09 20.14 242.87 17.32"/><polygon class="cls-1" points="190.52 55.77 227.16 66.71 246.67 53.79 242.87 17.32 190.52 55.77"/><polygon class="cls-2" points="238.29 96.1 245.95 88.21 261.79 94.49 264.9 91.99 243.51 81.05 238.29 96.1"/><polygon class="cls-2" points="289.75 103.78 282.06 103.75 275.51 112.68 279.74 96.62 289.75 103.78"/><polygon class="cls-5" points="284.61 73.15 309.78 73.15 310.91 66.65 284.61 73.15"/><polygon class="cls-2" points="282.73 91.17 278.52 93.33 295.46 101.09 304.87 90.43 296.12 89.78 289.22 93.56 282.73 91.17"/><polygon class="cls-2" points="268.49 84.58 268.11 88.98 248.76 80.15 264.16 79.33 268.49 84.58"/><polygon class="cls-2" points="236.31 99.92 258.76 114.47 260.49 110.31 236.31 99.92"/><polygon class="cls-2" points="267.56 118.57 289.81 122 268.97 115.17 267.56 118.57"/><polygon class="cls-5" points="234.68 157.97 206.59 146.19 205 172.2 218.17 172.86 232.26 162.54 234.68 157.97"/><path class="cls-14" d="M280.08,94v0l-.51-.21-1.44-.66,0,0-8.88-3.71L240.91,76.53,232,98.79l28.48,11.52,6.88-16.4,8.89,3.71L269,115.17,297.4,126.7l9.06-20.53Zm-22.43,9.9-19.36-7.8,5.22-13L262.9,92Zm37.22,16.57-19.36-7.79,5.23-13.06,19.38,8.94Z"/><path class="cls-17" d="M292.84,109.9a3.53,3.53,0,1,1-3.52-3.52A3.53,3.53,0,0,1,292.84,109.9Z"/><path class="cls-17" d="M259.84,95.4a3.53,3.53,0,1,1-3.52-3.52A3.53,3.53,0,0,1,259.84,95.4Z"/><polygon class="cls-18" points="171.11 218.33 171.11 218.34 180.69 232.76 198.37 229.92 199.45 186.1 171.11 218.33"/><polygon class="cls-13" points="198.37 229.92 171.11 218.34 178.04 239.04 198.37 229.92"/><polygon class="cls-16" points="189.32 141.6 175.42 147.77 186.69 182.2 205 172.2 189.32 141.6"/><polygon class="cls-16" points="205 172.2 210.45 189.65 239.62 177.38 232.26 162.54 205 172.2"/><polygon class="cls-10" points="201.37 364.25 225.31 385.68 196.84 390.68 174.42 385.68 174.61 370.25 201.37 364.25"/><rect class="cls-19" x="174.42" y="385.68" width="50.89" height="6.65"/><polygon class="cls-10" points="79.29 324.62 60.63 350.78 54.52 325.86 55.01 300.2 70.36 298.69 79.29 324.62"/><rect class="cls-19" x="29.07" y="322.54" width="50.89" height="6.65" transform="translate(372.35 235.64) rotate(83.65)"/><polygon class="cls-8" points="357.63 216.46 313.35 232.76 303.46 205.42 347.66 189.27 357.63 216.46"/><polygon class="cls-18" points="309.42 205.57 317.74 228.22 336.84 210.72 344.07 193.23 309.42 205.57"/><polygon class="cls-20" points="344.07 193.23 317.74 228.22 352.64 216.29 344.07 193.23"/><path class="cls-1" d="M351.21,204a.95.95,0,1,1-1.89,0,.95.95,0,0,1,1.89,0Z"/><polygon class="cls-1" points="313.66 220.55 310.4 221.86 309.07 218.04 312.33 216.74 313.66 220.55"/><polygon class="cls-2" points="313.35 232.76 324.48 232.76 344.9 221.14 340.27 211.42 321.49 219.74 313.35 232.76"/><polygon class="cls-3" points="313.35 232.76 340.27 211.42 319.49 216.74 313.35 232.76"/></svg>



