<svg id="illustration" xmlns="http://www.w3.org/2000/svg" xmlns:xlink="http://www.w3.org/1999/xlink" viewBox="0 0 400 400"><defs><style>.cls-1{fill:none;clip-rule:evenodd;}.cls-2,.cls-31{fill:#474747;}.cls-3{fill:#6f7173;}.cls-4,.cls-9{fill:#8b6651;}.cls-18,.cls-19,.cls-20,.cls-27,.cls-29,.cls-31,.cls-32,.cls-33,.cls-34,.cls-35,.cls-4,.cls-5,.cls-6,.cls-7,.cls-8{fill-rule:evenodd;}.cls-13,.cls-5{fill:#dfbda5;}.cls-12,.cls-6{fill:#c3987b;}.cls-10,.cls-7{fill:#9075a0;}.cls-30,.cls-8{fill:#a688ba;}.cls-11,.cls-19{fill:#4f5253;}.cls-14{fill:#858686;}.cls-15{fill:#8f8f8f;}.cls-16{fill:#e8cab6;}.cls-17,.cls-20,.cls-29,.cls-35{fill:#2b2b2b;}.cls-18{opacity:0.1;}.cls-21,.cls-27{fill:#96637c;}.cls-22{fill:#ececeb;}.cls-23,.cls-33{fill:#b3889d;}.cls-24{fill:#734d60;}.cls-25,.cls-32{fill:#543042;}.cls-26,.cls-34{fill:#d1a1b8;}.cls-28{clip-path:url(#clip-path);}.cls-29{opacity:0.29;}.cls-35{opacity:0.2;}</style><clipPath id="clip-path"><polygon class="cls-1" points="164.77 356.98 152.02 252.46 252.52 252.46 236.89 352.65 212.42 361.32 202.99 298.16 192.04 361.82 164.77 356.98"/></clipPath></defs><title>Commander (ENTJ) personality</title><polygon id="_248382624" data-name=" 248382624" class="cls-2" points="160.83 84.22 157.27 88.45 145.3 142.18 159.15 146.33 181.49 103.45 160.83 84.22"/><polygon id="_248382552" data-name=" 248382552" class="cls-3" points="160.83 84.22 138.86 98.22 145.26 148.99 160.83 84.22"/><polygon id="_248382624-2" data-name=" 248382624" class="cls-2" points="153.33 114.97 156.88 119.2 168.86 172.93 168.78 180.22 132.67 134.2 153.33 114.97"/><polygon id="_248382552-2" data-name=" 248382552" class="cls-3" points="153.33 114.97 177.4 129.58 168.9 179.74 153.33 114.97"/><polygon class="cls-4" points="342.97 184.68 350.25 177.31 331.93 175.22 325.87 182.06 342.97 184.68"/><polygon class="cls-5" points="320.89 167.9 365.91 167.9 363.56 174.43 332.44 181.15 320.89 192.06 317.36 179.98 320.89 167.9"/><polygon class="cls-6" points="320.89 192.06 332.44 181.15 342.97 184.68 342.03 189.71 320.89 192.06"/><polygon class="cls-7" points="278.38 167.9 306.08 167.9 312.82 183.32 306.08 196.21 268.06 205.88 263.01 187.59 278.38 167.9"/><polygon class="cls-7" points="320.89 167.9 320.89 192.06 306.08 196.21 306.08 167.9 320.89 167.9"/><polygon class="cls-8" points="247.29 167.9 250.02 210.46 268.06 205.88 278.38 167.9 247.29 167.9"/><polygon class="cls-9" points="85.97 185.43 75.06 181.5 89.06 153.84 98.83 162.55 96.58 176.49 85.97 185.43"/><polygon class="cls-10" points="123.42 176.96 113.75 171.42 105.61 165.5 98.73 162.73 85.97 185.43 115.75 212.44 123.42 176.96"/><rect class="cls-11" x="70.6" y="145.55" width="15" height="46.45" transform="translate(95.12 -16.41) rotate(30.08)"/><polygon class="cls-12" points="70.05 146.15 61.78 159.64 63.57 178.89 80.29 170.31 81.31 150.38 70.05 146.15"/><polygon class="cls-13" points="90.69 177.04 83.97 163.85 80.29 170.31 73.28 166.1 81.31 150.38 98.73 162.73 90.69 177.04"/><rect class="cls-2" x="48.44" y="111.04" width="12" height="14.29" transform="translate(42.31 247.74) rotate(-149.92)"/><rect class="cls-3" x="38.21" y="101.69" width="14" height="22.29" transform="translate(62.65 -7.46) rotate(30.08)"/><polygon class="cls-14" points="98.73 162.73 48.24 133.54 64.68 105.17 130.15 143.1 114.07 159.17 98.73 162.73"/><rect class="cls-11" x="82.83" y="112.34" width="19.28" height="40" transform="translate(-68.39 146.01) rotate(-59.92)"/><polygon class="cls-3" points="130.15 143.1 98.73 162.73 113.74 171.41 130.15 143.1"/><circle class="cls-11" cx="90.38" cy="101.35" r="16.08"/><circle class="cls-11" cx="118.17" cy="117.59" r="16.08"/><circle class="cls-15" cx="90.38" cy="101.35" r="12.06"/><circle class="cls-15" cx="118.17" cy="117.59" r="12.06"/><polygon class="cls-12" points="174.59 98.81 167.47 27.65 226.67 17.77 230.48 145.64 210.41 180.05 174.71 159.34 163.09 105.01 174.59 98.81"/><polyline class="cls-9" points="240.44 139.3 186.99 139.2 216.44 167.72"/><polygon class="cls-13" points="250.27 30.19 204.76 3.58 191.26 6.12 191.08 33.75 192.81 25.29 195.34 139.39 270.69 139.39 273.21 41.57 250.27 30.19"/><polygon class="cls-12" points="226.49 66.61 231.47 69.38 236.24 75.69 236.24 78.12 238.66 87.75 234.24 101.57 222.95 81.77 213.23 78.56 209.69 76.9 201.95 69.27 218.13 66.33 226.49 66.61"/><path class="cls-12" d="M247,101.57,254,89.3l4.65-9,8.3-5.42,4.2-7.73-4.43-2.77L251.83,66l-3,2.43-.22,2.77L244,77.46,241.1,90.18Z"/><polygon class="cls-16" points="243.63 77.35 246.96 101.57 234.24 101.57 236.24 78.12 243.63 77.35"/><polygon class="cls-9" points="234.24 101.57 240.88 106.1 246.96 101.57 234.24 101.57"/><polygon class="cls-11" points="249.73 64.52 248.73 68.38 271.08 67.18 265.66 63.2 249.73 64.52"/><polygon class="cls-11" points="231.47 69.38 232.28 64.81 212.5 64.81 201.95 69.27 231.47 69.38"/><polygon class="cls-9" points="162.72 103.35 165.45 116.08 175.92 100.67 162.72 103.35"/><path class="cls-17" d="M223,77.73a3.66,3.66,0,1,0,3.84,3.49A3.67,3.67,0,0,0,223,77.73Z"/><path class="cls-17" d="M258,76.1a3.67,3.67,0,1,0,3.83,3.49A3.67,3.67,0,0,0,258,76.1Z"/><polygon class="cls-3" points="160.48 26.91 152.86 53.25 147.96 72.46 173.17 75.94 180.09 72.45 187.85 69.64 183.06 51.7 195.35 36.72 160.48 26.91"/><polygon class="cls-11" points="160.48 26.91 187.85 69.64 195.35 36.72 160.48 26.91"/><polygon class="cls-2" points="187.85 69.64 174.86 90.29 172.82 76.09 154.02 88.58 147.96 72.46 187.85 69.64"/><polygon class="cls-18" points="314.65 379.44 206.18 364.17 102.35 389.89 208.5 400 314.65 379.44"/><polygon class="cls-19" points="266.19 376.09 236.89 352.65 212.42 361.32 212.17 375.59 239.69 378.39 266.19 376.09"/><polygon class="cls-20" points="266.13 380.81 266.19 376.09 212.17 375.59 212.17 381.19 266.13 380.81"/><polygon class="cls-13" points="157.02 77.72 162.72 103.35 175.92 100.67 172.82 76.09 157.02 77.72"/><polygon class="cls-9" points="161.76 83.1 171.5 94.94 169 82.1 161.76 83.1"/><polygon class="cls-19" points="196.43 386.41 192.04 361.82 164.77 356.98 156.3 386.29 176.74 390.43 196.43 386.41"/><polygon class="cls-20" points="196.56 391.83 156.23 391.83 156.3 386.29 196.43 386.29 196.56 391.83"/><polygon class="cls-21" points="256.04 113.86 222.26 113.92 225.72 127.08 254.04 128.53 256.04 113.86"/><polygon class="cls-22" points="250.9 122.83 252.02 116.58 227.02 116.71 228.27 121.21 250.9 122.83"/><polygon class="cls-21" points="195.09 48.79 192.04 0 159.77 9.4 148.33 29.73 144.65 62.55 177.56 54.38 195.09 48.79"/><polygon class="cls-23" points="192.04 0 253.28 20.33 302.33 47.01 259.89 49.81 231.43 49.55 195.09 48.79 192.04 0"/><polygon class="cls-24" points="302.33 47.01 309.62 56.67 222.54 57.18 231.43 49.55 302.33 47.01"/><polygon class="cls-25" points="195.09 48.79 177.56 54.38 144.65 62.55 147.96 72.46 178.83 62.77 194.84 57.43 195.09 48.79"/><polygon class="cls-25" points="272.81 56.88 272.13 84.33 295.6 77.47 309.62 56.67 272.81 56.88"/><polygon class="cls-24" points="144.65 62.55 148.33 29.73 159.77 9.4 177.56 54.38 144.65 62.55"/><polygon class="cls-26" points="231.43 49.55 253.28 20.33 302.33 47.01 231.43 49.55"/><polygon class="cls-21" points="195.09 48.79 231.43 49.55 222.54 57.18 194.84 57.43 195.09 48.79"/><polygon class="cls-27" points="164.77 356.98 152.02 252.46 252.52 252.46 236.89 352.65 212.42 361.32 202.99 298.16 192.04 361.82 164.77 356.98"/><g class="cls-28"><polygon class="cls-29" points="157.35 362.11 152.16 362.11 151.75 251.35 156.93 251.35 157.35 362.11"/><polygon class="cls-29" points="167.72 362.11 162.53 362.11 162.12 251.35 167.3 251.35 167.72 362.11"/><polygon class="cls-29" points="178.09 362.11 172.9 362.11 172.49 251.35 177.67 251.35 178.09 362.11"/><polygon class="cls-29" points="188.46 362.11 183.27 362.11 182.86 251.35 188.04 251.35 188.46 362.11"/><polygon class="cls-29" points="198.83 362.11 193.64 362.11 193.23 251.35 198.41 251.35 198.83 362.11"/><polygon class="cls-29" points="209.2 362.11 204.01 362.11 203.6 251.35 208.78 251.35 209.2 362.11"/><polygon class="cls-29" points="219.57 362.11 214.38 362.11 213.97 251.35 219.15 251.35 219.57 362.11"/><polygon class="cls-29" points="229.94 362.11 224.75 362.11 224.34 251.35 229.52 251.35 229.94 362.11"/><polygon class="cls-29" points="240.31 362.11 235.12 362.11 234.71 251.35 239.89 251.35 240.31 362.11"/><polygon class="cls-29" points="250.68 362.11 245.49 362.11 245.08 251.35 250.26 251.35 250.68 362.11"/><polygon class="cls-29" points="261.05 362.11 255.86 362.11 255.45 251.35 260.63 251.35 261.05 362.11"/><polyline class="cls-29" points="261.77 360.96 151.02 361.38 151.02 356.19 261.77 355.78"/><polyline class="cls-29" points="261.77 350.59 151.02 351.01 151.02 345.82 261.77 345.41"/><polyline class="cls-29" points="261.77 340.22 151.02 340.64 151.02 335.45 261.77 335.04"/><polyline class="cls-29" points="261.77 329.86 151.02 330.27 151.02 325.08 261.77 324.67"/><polyline class="cls-29" points="261.77 319.49 151.02 319.9 151.02 314.71 261.77 314.3"/><polyline class="cls-29" points="261.77 309.12 151.02 309.53 151.02 304.35 261.77 303.93"/><polyline class="cls-29" points="261.77 298.75 151.02 299.16 151.02 293.98 261.77 293.56"/><polyline class="cls-29" points="261.77 288.38 151.02 288.79 151.02 283.61 261.77 283.19"/><polyline class="cls-29" points="261.77 278 151.02 278.42 151.02 273.24 261.77 272.82"/><polyline class="cls-29" points="261.77 267.64 151.02 268.05 151.02 262.87 261.77 262.45"/><polyline class="cls-29" points="261.77 257.27 151.02 257.68 151.02 252.5 261.77 252.08"/></g><polygon class="cls-8" points="229.36 152.96 207.72 163.65 209.38 181.46 229.78 162.28 229.36 152.96"/><polygon class="cls-7" points="207.72 163.65 171.94 148.25 172.1 158.04 179.32 167.88 203.26 175.38 209.38 181.46 207.72 163.65"/><polygon class="cls-30" points="123.42 176.96 147.52 168.29 151.19 215.29 115.75 212.44 123.42 176.96"/><polygon class="cls-2" points="147.52 168.29 154.52 164.96 160.36 252.46 152.02 252.46 147.52 168.29"/><polygon class="cls-31" points="252.52 252.46 247.29 167.9 240.52 165.79 242.86 252.46 252.52 252.46"/><polygon class="cls-7" points="229.78 162.28 240.52 165.79 242.86 252.46 210.86 252.46 209.38 181.46 229.78 162.28"/><polygon class="cls-8" points="154.52 164.96 172.1 158.04 209.38 181.46 210.86 252.46 160.36 252.46 154.52 164.96"/><polygon class="cls-32" points="237.31 180.85 229.21 179.66 214.98 181.34 217.11 186.5 226.51 195.35 237.31 180.85"/><polygon class="cls-27" points="237.31 180.85 226.28 165.57 215.22 174.74 214.98 181.34 237.31 180.85"/><polygon class="cls-27" points="203.26 175.38 205.67 181.54 191.34 183.98 173.84 180.97 181.3 163.16 203.26 175.38"/><polygon class="cls-32" points="205.67 181.54 206.32 186.21 192.97 196.48 173.84 180.97 205.67 181.54"/><polygon class="cls-33" points="216.29 181.38 203.96 179.48 205.2 186.84 217.11 186.5 216.29 181.38"/><polygon class="cls-34" points="215.22 174.74 216.29 181.38 204.3 181.52 203.26 175.38 215.22 174.74"/><polygon class="cls-35" points="212.42 361.32 236.89 352.65 243.77 308.71 205.87 317.49 212.42 361.32"/><polygon class="cls-35" points="198.77 322.71 192.04 361.82 164.77 356.98 159.02 311.96 198.77 322.71"/><polygon class="cls-35" points="152.02 252.46 202.99 298.16 252.52 252.46 152.02 252.46"/></svg>



