<svg id="illustration" xmlns="http://www.w3.org/2000/svg" viewBox="0 0 400 400"><defs><style>.cls-1,.cls-10,.cls-11,.cls-12,.cls-13,.cls-14,.cls-15,.cls-17,.cls-18,.cls-19,.cls-2,.cls-3,.cls-4,.cls-5,.cls-6,.cls-7,.cls-8,.cls-9{fill-rule:evenodd;}.cls-1{opacity:0.1;}.cls-2{fill:#8b6651;}.cls-3{fill:#dfbda5;}.cls-4{fill:#c3987b;}.cls-5{fill:#96637c;}.cls-16,.cls-6{fill:#734d60;}.cls-7{fill:#b3889d;}.cls-8{fill:#543042;}.cls-9{fill:#9075a0;}.cls-10{fill:#a688ba;}.cls-11{fill:#785d88;}.cls-12{fill:#cececd;}.cls-13{fill:#e8cab6;}.cls-14{fill:#d1a1b8;}.cls-15{fill:#2b2b2b;}.cls-17{fill:#c4c4c4;}.cls-18{fill:#8f8f8f;}.cls-19{fill:#9da1a2;}</style></defs><title>Commander (ENTJ) personality</title><polygon class="cls-1" points="295.88 386.63 194.71 376.28 69.26 391.92 184.14 400 295.88 386.63"/><polygon class="cls-2" points="313.02 182.21 320.31 174.83 301.95 172.73 295.88 179.59 313.02 182.21"/><polygon class="cls-3" points="290.89 165.4 336.01 165.4 333.65 171.95 302.46 178.68 290.89 189.61 287.35 177.5 290.89 165.4"/><polygon class="cls-4" points="290.89 189.61 302.46 178.68 313.02 182.21 312.08 187.25 290.89 189.61"/><polygon class="cls-5" points="248.29 165.4 276.05 165.4 282.81 180.85 276.05 193.77 237.94 203.46 232.89 185.13 248.29 165.4"/><polygon class="cls-6" points="290.89 165.4 290.89 189.61 276.05 193.77 276.05 165.4 290.89 165.4"/><polygon class="cls-7" points="248.29 165.4 237.94 203.46 213.78 209.6 217.14 165.4 248.29 165.4"/><polygon class="cls-8" points="119.8 321.14 144.68 328.09 162.69 292.47 145.03 292.45 119.8 321.14"/><polygon class="cls-9" points="222.3 302.21 207.23 330.52 174.1 348.14 161.48 302.21 211.43 277.27 222.3 302.21"/><polygon class="cls-6" points="207.23 330.52 183.16 335.14 171.26 336.92 175.73 364.58 185.99 364.58 192.33 357.92 207.23 330.52"/><polygon class="cls-5" points="192.33 357.92 219.59 378.32 197.98 381.66 173.57 378.32 175.73 364.58 192.33 357.92"/><polygon class="cls-6" points="176.04 385 185.81 385 187.59 381.46 198.48 385 219.92 385 219.92 378.32 176.04 378.32 176.04 385"/><polygon class="cls-10" points="188.29 312.9 183.16 335.14 165.59 339.87 148.03 338.09 132.73 292.45 160.42 269.25 179.53 302.21 188.29 312.9"/><polygon class="cls-5" points="148.03 338.09 156.97 368.11 167.29 370.87 175.73 364.58 183.16 335.14 148.03 338.09"/><polygon class="cls-7" points="175.73 364.58 185.81 385 171.26 388.72 151.12 385 156.97 368.11 175.73 364.58"/><polygon class="cls-11" points="221.36 277.27 188.29 312.9 137.68 279.37 184.74 260.77 221.36 277.27"/><polygon class="cls-9" points="192.68 187.85 178.63 200.75 177.8 232.76 184.74 260.77 204.88 274.53 202.8 226.48 192.68 187.85"/><polygon class="cls-10" points="178.63 200.75 161.65 194.98 158.85 234.39 163.34 276.62 184.74 260.77 178.63 200.75"/><polygon class="cls-12" points="198.37 210.12 160.08 211.69 160.61 222.97 199.7 218.94 198.37 210.12"/><polygon class="cls-12" points="202.35 236.65 160.24 240.22 161.93 251.23 203.76 246.08 202.35 236.65"/><polygon class="cls-10" points="125.08 182.55 97.07 195.5 132.73 220.15 130.74 184.47 125.08 182.55"/><polygon class="cls-11" points="97.07 195.5 94.77 220.15 136.63 227.88 129.84 211.95 97.07 195.5"/><polygon class="cls-7" points="129.47 223.16 94.77 220.15 91.17 258.77 136.63 248.56 129.47 223.16"/><polygon class="cls-5" points="128.74 245.23 91.17 258.77 127.53 282.31 132.73 261.4 128.74 245.23"/><polygon class="cls-8" points="217.14 165.4 222.3 302.21 204.88 274.53 192.68 187.85 201.41 177.83 217.14 165.4"/><polygon class="cls-6" points="161.65 194.98 163.34 276.62 119.8 321.14 125.08 182.55 148.35 185.09 161.65 194.98"/><polygon class="cls-3" points="136.63 169.25 140.48 156.3 136.63 137.74 130.56 137.11 125.78 142.29 124.9 135.78 122.45 134.07 122.45 90.66 195.61 72.11 219.59 149.42 193.69 157.7 183.54 177.8 178.63 200.75 175.06 185.74 167.43 177.65 154.52 169.45 136.63 169.25"/><polygon class="cls-4" points="139.11 86.44 144.68 95.74 146.78 101.34 164.63 167.5 193.69 157.7 185.57 169.25 186.16 179.22 187.21 187.85 178.63 200.75 164.91 184.47 136.63 169.25 136.63 149.3 139.46 140.06 136.63 137.74 125.78 142.29 122.45 134.07 125.08 118.49 122.45 90.66 139.11 86.44"/><polygon class="cls-2" points="131.2 125.32 137.68 128.29 129.45 133.02 127.79 128.73 131.2 125.32"/><polygon class="cls-4" points="146.78 101.34 162.18 99.76 173.73 118.49 164.91 91.78 146.78 101.34"/><polygon class="cls-4" points="193.34 86.29 181.98 101.08 177.8 87.96 193.34 86.29"/><polygon class="cls-13" points="177.8 87.96 185.99 114.99 173.73 118.49 164.91 91.78 177.8 87.96"/><polygon class="cls-2" points="185.99 114.99 182.48 122.34 173.73 118.49 185.99 114.99"/><polygon class="cls-2" points="154.52 169.45 186.16 179.22 193.69 157.7 154.52 169.45"/><polygon class="cls-2" points="205.24 126.54 161.27 139.49 162.32 143.34 206.64 130.04 205.24 126.54"/><polygon class="cls-9" points="122.45 90.66 136.63 119.89 122.45 134.07 122.45 90.66"/><polygon class="cls-6" points="82.54 123.57 90.7 119.91 95.15 113.77 104.66 92.78 109.42 67.81 118.63 53.68 113.15 35.7 145.64 32.1 167.96 21 180.92 38.79 194.54 50.74 205.19 64.98 215.21 73.86 219.59 81.21 231.32 82.61 213.56 95 206.81 104.31 202.91 88.12 195.61 72.11 157.26 79.56 122.45 90.66 121.05 115.34 122.45 134.07 101.6 132.85 83.59 136.87 85.47 130.69 82.54 123.57"/><polygon class="cls-7" points="82.54 123.57 115.1 125.67 95.15 113.77 82.54 123.57"/><polygon class="cls-5" points="115.1 125.67 119.3 84.01 105.89 67.81 95.15 113.77 115.1 125.67"/><polygon class="cls-8" points="119.3 84.01 168.31 69.66 113.15 35.7 105.89 67.81 119.3 84.01"/><polygon class="cls-6" points="168.31 69.66 194.56 61.61 194.54 50.74 167.96 21 157.72 61.99 168.31 69.66"/><polygon class="cls-14" points="167.96 21 157.72 61.99 113.15 35.7 167.96 21"/><polygon class="cls-5" points="215.21 73.86 212.76 88.56 194.56 61.61 194.54 50.74 215.21 73.86"/><polygon class="cls-7" points="215.21 73.86 212.76 88.56 236.03 80.26 215.21 73.86"/><polygon class="cls-8" points="236.03 80.26 236.03 88.56 206.31 106.61 195.61 72.11 194.56 61.61 212.76 86.44 236.03 80.26"/><polygon class="cls-8" points="119.3 84.01 122.45 90.66 122.45 134.07 83.59 136.87 82.54 123.57 107.22 120.97 119.3 84.01"/><polygon class="cls-5" points="194.56 61.61 168.31 69.66 119.3 84.01 122.45 90.66 195.61 72.11 194.56 61.61"/><polygon class="cls-5" points="147.3 33.95 150.45 15.4 134.35 0 147.3 33.95"/><polygon class="cls-7" points="147.3 33.95 134.35 0 130.15 19.25 147.3 33.95"/><polygon class="cls-2" points="136.63 137.74 145.03 133.89 136.63 149.3 136.63 137.74"/><polygon class="cls-5" points="167.43 177.65 136.63 169.25 118.08 162.6 125.08 182.55 178.63 200.75 167.43 177.65"/><polygon class="cls-8" points="136.63 157.7 118.08 162.6 136.63 169.25 136.63 157.7"/><polygon class="cls-5" points="193.69 157.7 178.63 200.75 217.14 165.4 193.69 157.7"/><path class="cls-15" d="M161.73,100.44a3.7,3.7,0,1,1-3.7-3.7A3.7,3.7,0,0,1,161.73,100.44Z"/><path class="cls-15" d="M189.27,91.78a3.7,3.7,0,1,1-3.7-3.7A3.7,3.7,0,0,1,189.27,91.78Z"/><polygon class="cls-9" points="191.59 78.58 144.68 95.74 146.78 101.34 193.34 86.29 191.59 78.58"/><rect class="cls-16" x="151.12" y="385" width="34.68" height="6.68"/><polygon class="cls-5" points="162.72 283.1 155.91 276.38 180.46 251.48 185.46 254.62 186.46 259.02 162.72 283.1"/><polygon class="cls-17" points="160.36 285.49 110.08 336.66 77.65 361.59 60.83 366.04 104.85 328.61 153.55 278.78 160.36 285.49"/><polygon class="cls-18" points="160.36 285.49 144.18 295.09 153.55 278.78 158.32 280.5 160.36 285.49"/><polygon class="cls-17" points="190.42 255.01 183.66 248.56 180.46 251.48 185.01 261.36 187.73 273.89 183.16 282.31 175.03 290.71 144.92 261.02 140.3 265.71 173.61 298.56 184.74 286.93 196.25 279.21 190.42 255.01"/><polygon class="cls-19" points="187.73 273.89 196.25 279.21 173.61 298.56 175.03 290.71 187.73 273.89"/></svg>



