<svg id="illustration" xmlns="http://www.w3.org/2000/svg" viewBox="0 0 400 400"><defs><style>.cls-1,.cls-19{fill:#b3889d;}.cls-1,.cls-18,.cls-2,.cls-21,.cls-22,.cls-23,.cls-9{fill-rule:evenodd;}.cls-2,.cls-3{fill:#734d60;}.cls-16,.cls-20,.cls-4{fill:#2b2b2b;}.cls-4{opacity:0.1;}.cls-5{fill:#594165;}.cls-6{fill:#543042;}.cls-7{fill:#785d88;}.cls-18,.cls-8{fill:#c3987b;}.cls-9{fill:#96637c;}.cls-10{fill:#a688ba;}.cls-11,.cls-21{fill:#dfbda5;}.cls-12{fill:#8b6651;}.cls-13,.cls-22{fill:#9075a0;}.cls-14,.cls-23{fill:#e8cab6;}.cls-15{fill:#fff;}.cls-17{fill:none;}.cls-20{opacity:0.2;}</style></defs><title>Debater (ENTP) personality</title><polygon class="cls-1" points="194.84 122.11 207.74 166.66 233.87 86.03 207.95 70.66 194.84 122.11"/><polygon class="cls-2" points="197.58 113.99 178.91 148.27 208.66 167.66 197.58 113.99"/><polygon class="cls-2" points="203.21 167.1 182.03 145.15 174.54 158.66 203.21 167.1"/><polygon class="cls-2" points="233.87 86.03 209.37 107.24 207.34 59.18 233.87 86.03"/><polygon class="cls-3" points="82.08 139.49 100.01 170.88 126.41 168.99 82.08 139.49"/><polygon class="cls-3" points="130.21 162.97 126.05 190.1 144.87 198.13 130.21 162.97"/><polygon class="cls-4" points="274.49 377.5 156.27 365.04 59.9 381.68 171.09 400 274.49 377.5"/><polygon class="cls-5" points="199.92 275.36 175.56 297.27 148.19 297.95 112.07 228.63 130.1 209.7 144.17 173.39 167.86 192.83 180.07 178.6 180.88 147.43 203.84 244.26 199.92 275.36"/><polygon class="cls-3" points="185.5 278.62 176.07 276.09 150.52 275.61 119.4 284.26 120.92 328.9 134.58 331.66 168.99 337.28 173.7 311.96 199.92 275.36 185.5 278.62"/><polygon class="cls-3" points="173.7 311.96 176.58 336.66 182.74 335.93 224.41 325.99 225 280.79 199.92 275.36 173.7 311.96"/><polygon class="cls-6" points="225 280.79 173.7 311.96 119.4 284.26 225 280.79"/><polygon class="cls-7" points="120.68 365.16 118.54 387.36 152.08 387.36 145.4 365.16 132.79 357.3 120.68 365.16"/><polygon class="cls-7" points="191.1 365.16 189.59 378.2 240.81 378.2 216.49 353.62 199.92 352.33 191.1 365.16"/><rect class="cls-5" x="118.54" y="387.36" width="33.54" height="4.65"/><rect class="cls-5" x="189.59" y="378.2" width="51.22" height="4.65"/><polygon class="cls-8" points="105.86 111.44 115.61 150.91 178.06 211.49 180.88 153.2 177.26 144.97 116.94 36.77 111.58 75.63 107.09 78.63 105.86 111.44"/><polygon class="cls-8" points="160.32 335.93 145.4 365.16 120.68 365.16 120.92 328.9 160.32 335.93"/><polygon class="cls-8" points="216.49 353.62 191.1 365.16 182.74 335.93 219.5 327.05 216.49 353.62"/><polygon class="cls-8" points="298.4 149.98 287.92 162.16 287.92 162.16 268.57 156.95 266.66 142.61 298.4 149.98"/><polygon class="cls-5" points="260.19 138.45 265.33 142.28 271.3 141.12 271.95 126.28 263.89 125.37 260.19 138.45"/><polygon class="cls-9" points="73.4 83.21 73.18 106.5 67.14 131.05 125.91 170.16 134.4 184.94 130.21 162.97 108.78 114.04 84.35 99.24 73.4 83.21"/><polygon class="cls-10" points="207.94 163.23 245.27 173.52 247.87 212.69 215.16 210.02 207.94 163.23"/><polygon class="cls-11" points="110.6 82.72 119.95 103.26 105.86 111.44 84.01 94.1 110.6 82.72"/><polygon class="cls-3" points="78.66 125.15 130.21 162.97 108.78 114.04 98.45 90.72 78.66 125.15"/><polygon class="cls-8" points="114.04 98.96 109.4 88.23 100.93 93.06 114.04 98.96"/><polygon class="cls-12" points="119.95 103.26 113.87 125.72 107.28 110.47 119.95 103.26"/><polygon class="cls-13" points="194.07 155.33 207.94 163.23 214.98 208.8 207.14 240.75 171.98 223.87 167.86 192.83 179.07 170.88 194.07 155.33"/><polygon class="cls-5" points="194.07 155.33 188.16 170.13 180.88 172.01 184.69 177.28 167.86 192.83 180.88 147.43 194.07 155.33"/><polygon class="cls-10" points="110.15 164.87 100.01 170.88 112.07 228.63 127.09 261.31 176.07 276.09 165.67 249.34 171.98 223.87 167.86 192.83 144.29 173.48 110.15 164.87"/><polygon class="cls-5" points="124.16 149.49 110.15 164.87 123.75 182.55 140.05 178.79 141.39 189.32 167.86 192.83 124.16 149.49"/><polygon class="cls-13" points="171.98 223.87 179.26 288.07 119.4 284.26 112.07 228.63 171.98 223.87"/><polygon class="cls-11" points="245.27 173.52 268.57 156.95 287.92 162.16 270.92 197.85 245.27 173.52"/><polygon class="cls-8" points="247.7 208.54 270.92 197.85 245.27 173.52 245.27 173.52 247.7 208.54"/><polygon class="cls-12" points="181.91 144.16 144 149.13 173.24 173.82 181.91 144.16"/><polygon class="cls-11" points="138.3 149.8 212.89 140.18 204.02 27.52 165.63 21.89 116.94 36.77 138.3 149.8"/><polyline class="cls-5" points="296.9 151.79 298.4 149.98 273.16 141.4 273.33 144.78"/><polygon class="cls-5" points="298.98 129.79 311.45 131.22 298.4 149.98 298.98 129.79"/><polygon class="cls-11" points="271.69 131.61 298.78 137.82 298.4 149.98 271.3 141.12 271.69 131.61"/><polygon class="cls-7" points="215.16 210.02 171.98 223.87 179.26 288.07 225 280.79 215.16 210.02"/><polygon class="cls-3" points="165.63 69.03 162.79 65.9 145.36 61.45 135.8 74.09 146.22 66.38 165.63 69.03"/><polygon class="cls-14" points="181.59 74.09 172.36 75.66 177.04 100.23 187.09 98.36 181.59 74.09"/><polygon class="cls-8" points="165.63 69.03 172.36 75.66 175.19 90.89 135.8 74.09 146.22 66.38 165.63 69.03"/><polygon class="cls-8" points="182.21 67.04 181.59 74.09 184.86 88.62 203.05 59.55 193.07 58.51 182.21 67.04"/><polygon class="cls-12" points="187.09 98.36 183.29 103.05 177.04 100.23 187.09 98.36"/><polygon class="cls-8" points="198.22 107.44 184.45 110.76 160.66 111.7 170.18 127.89 198.17 124.42 198.22 107.44"/><polygon class="cls-15" points="194.84 122.11 194.86 111.29 184.53 113.41 166.37 114.47 171.89 124.95 194.84 122.11"/><polygon class="cls-8" points="162.13 105.61 156.95 110.77 155.9 120.26 151.76 109.66 162.13 105.61"/><polygon class="cls-8" points="195.93 100.23 200.6 105.61 202.16 113.76 204.32 103.05 195.93 100.23"/><path class="cls-16" d="M152.15,82a4.72,4.72,0,1,0,4.71-4.71A4.71,4.71,0,0,0,152.15,82Z"/><path class="cls-16" d="M188.33,75.63A4.72,4.72,0,1,0,193,70.91,4.71,4.71,0,0,0,188.33,75.63Z"/><line class="cls-17" x1="94.41" y1="93.06" x2="130.01" y2="149.87"/><polygon class="cls-14" points="274.81 158.64 268.57 156.95 260.19 138.45 272.73 132.73 277.84 137.15 273.16 141.4 274.81 158.64"/><polygon class="cls-18" points="120.13 54.04 170.21 21.68 207.04 51.43 208.56 84.56 170.27 33.14 120.13 54.04"/><polygon class="cls-3" points="182.21 67.04 182.97 62.4 188.58 57.82 192.25 54.82 203.05 59.55 193.07 58.51 182.21 67.04"/><polygon class="cls-1" points="217.4 27.14 233.87 86.03 165.29 24.64 170.21 21.69 217.4 27.14"/><polygon class="cls-2" points="73.4 83.21 120.13 54.05 110.6 82.72 98.45 90.72 73.4 83.21"/><polyline class="cls-9" points="120.13 54.05 82.61 36.49 73.4 83.21"/><polygon class="cls-1" points="141.37 0 170.21 21.69 120.13 54.04 82.61 36.49 141.37 0"/><polygon class="cls-9" points="217.4 27.14 165.29 24.64 141.37 0 217.4 27.14"/><polygon class="cls-2" points="116.03 94.44 110.6 82.72 120.13 54.04 116.03 94.44"/><polygon class="cls-19" points="67.14 131.05 78.66 125.15 98.45 90.72 73.4 83.21 67.14 131.05"/><g id="Layer_1"><g id="_789106448" data-name=" 789106448"><polygon class="cls-7" points="237.44 122.2 344.73 135.58 351.22 114.78 286.55 101.24 236.39 113.08 237.44 122.2"/><polygon class="cls-13" points="346.23 78.94 351.22 114.78 236.39 113.08 237.16 103.74 241.84 102.71 319.32 76.5 346.23 78.94"/><polygon class="cls-10" points="241.84 102.71 341.41 61.74 346.23 78.94 241.84 102.71"/><polygon class="cls-13" points="233.55 129.06 240.98 128.33 243.59 123.09 243.78 113.09 237.74 107.74 232.76 113.74 233.55 129.06"/><polygon class="cls-10" points="230.27 99.61 232.76 113.74 243.78 113.09 241.84 102.71 236.87 98.11 230.27 99.61"/><polygon class="cls-5" points="230.77 114.59 233.55 129.06 233.63 113.77 230.27 99.61 230.77 114.59"/><polygon class="cls-13" points="255.27 112.78 259.28 112.32 257.78 107.81 254.73 108.16 255.27 112.78"/></g></g><polygon class="cls-20" points="190.41 60.48 188.58 57.82 192.25 54.82 203.05 59.55 193.07 58.51 190.41 60.48"/><polygon class="cls-21" points="99.09 255.72 118.59 258.06 129 277.05 109.71 265.82 99.09 255.72"/><polygon class="cls-22" points="100.01 170.88 64.28 217.13 87.86 248.74 112.07 228.63 100.01 170.88"/><polygon class="cls-21" points="64.28 217.13 99.09 255.72 94.98 264.66 85.8 272.59 47.65 239.16 64.28 217.13"/><polygon class="cls-23" points="99.09 255.72 119.06 266.3 112.87 280.15 100.83 287.31 85.8 272.59 99.09 255.72"/><polygon class="cls-18" points="100.83 287.31 110.94 292.26 129 277.05 119.06 266.3 100.83 287.31"/><polygon class="cls-12" points="182.74 335.93 183.91 339.49 219.08 330.82 219.5 327.05 182.74 335.93"/><polygon class="cls-12" points="160.32 335.93 158.7 339.07 120.91 332.32 120.92 328.9 160.32 335.93"/></svg>



