<svg id="illustration" xmlns="http://www.w3.org/2000/svg" viewBox="0 0 400 400"><defs><style>.cls-1{fill:#dfbda5;}.cls-11,.cls-2{fill:#2b2b2b;}.cls-2{opacity:0.1;}.cls-3{fill:#474747;}.cls-4{fill:#c3987b;}.cls-5{fill:#6f7173;}.cls-6{fill:#e8cab6;}.cls-7{fill:#8b6651;}.cls-8{fill:#96637c;}.cls-9{fill:#543042;}.cls-10{fill:#4f5253;}.cls-12{fill:#858686;}.cls-13{fill:#b3889d;}.cls-14{fill:#734d60;}.cls-15{fill:#fff;}.cls-16{fill:#ececeb;}</style></defs><title>Debater (ENTP) personality</title><polygon class="cls-1" points="227.38 233.22 233.93 205.79 246.96 197.3 261.86 194.71 239.26 238.47 239.26 242.79 227.38 233.22"/><polygon class="cls-2" points="129.42 387.4 211.62 376.82 303.54 388.12 214.79 400 129.42 387.4"/><polygon class="cls-3" points="147.34 122.87 140.72 123.84 133.59 112.08 120.91 103.72 125.17 98.69 100.91 50.67 137.12 0 169.8 44.48 160.73 45.64 176.92 85.66 163.03 110.64 157.27 107.54 147.34 122.87"/><polygon class="cls-1" points="245.67 34.41 252.72 45.92 243.65 73.2 240.77 127.48 198.3 128.99 191.54 160.23 150.29 160.23 155.98 109.56 163.32 106.53 163.82 79.83 160.73 45.64 245.67 34.41"/><polygon class="cls-4" points="146.19 145.26 140.72 123.84 145.47 107.54 148.42 88.68 157.25 84.83 157.92 77.38 160.73 45.64 169.8 44.48 172.53 145.19 164.33 152.02 146.19 145.26"/><polygon class="cls-5" points="237.96 27.86 246.1 25.7 251.21 8.42 137.12 0 100.91 50.67 158.93 65.79 237.96 27.86"/><polygon class="cls-3" points="222.92 63.2 240.05 48.44 244.59 55.86 246.6 58.09 244.44 57.95 239.91 52.48 222.49 71.19 222.92 63.2"/><polygon class="cls-6" points="222.92 63.2 221.48 94.51 212.77 94.44 206.94 63.2 222.92 63.2"/><polygon class="cls-3" points="208.59 71.98 182.03 57.51 180.88 54.85 185.78 56.07 206.94 63.2 208.59 71.98"/><polygon class="cls-7" points="217.81 99.69 221.48 94.51 212.77 94.44 217.81 99.69"/><polygon class="cls-4" points="227.53 69.61 221.48 94.51 222.49 71.19 239.91 52.48 244.44 57.95 227.53 69.61"/><polygon class="cls-4" points="212.77 94.44 202.41 73.78 182.03 57.51 208.59 71.98 212.77 94.44"/><polygon class="cls-8" points="216.95 106.25 199.09 104.01 189.95 99.69 199.09 107.9 208.74 112.08 216.95 106.25"/><polygon class="cls-9" points="189.95 99.69 198.3 105.31 209.32 107.76 216.95 106.25 211.26 104.37 200.03 103.36 189.95 99.69"/><polygon class="cls-7" points="198.3 128.99 193.7 133.88 186.5 129.28 154.54 130.14 172.53 145.19 181.17 147.71 194.85 145.11 198.3 128.99"/><polygon class="cls-7" points="136.61 107.07 142.66 92.75 154.11 99.08 140.72 123.84 139.57 119.09 136.61 107.07"/><polygon class="cls-1" points="154.11 99.08 144.03 70.29 129.63 78.85 136.61 107.07 146.69 102.47 154.11 99.08"/><polygon class="cls-7" points="148.42 93.54 135.17 83.32 142.37 78.78 148.42 93.54"/><polygon class="cls-10" points="102.86 94.69 107.75 148.25 125.53 116.14 133.59 116.36 130.81 105.89 119.73 87.93 102.86 94.69"/><polygon class="cls-11" points="140.72 123.84 130.96 106.46 128.41 111.03 125.53 116.14 140.72 123.84"/><polygon class="cls-3" points="260.93 49.81 251.28 32.32 247.83 32.17 245.67 34.41 243.65 73.2 260.93 49.81"/><polygon class="cls-12" points="158.93 65.79 182.03 57.51 184.55 56.58 185.78 56.07 248.33 33.4 260.93 28.86 251.21 8.42 158.93 65.79"/><polygon class="cls-10" points="100.91 50.67 137.12 0 251.21 8.42 100.91 50.67"/><polygon class="cls-13" points="211.4 164.62 211.33 144.97 218.89 144.97 231.05 178.15 228.68 200.54 234.65 234.23 238.97 244.02 237.68 251.72 241.13 271.37 197.66 257.05 191.18 226.88 192.54 184.7 205.86 170.45 210.4 171.03 211.4 164.62"/><polygon class="cls-14" points="149.5 215.44 145.69 229.33 160.44 237.9 193.26 229.12 172.32 206.87 149.5 215.44"/><polygon class="cls-14" points="146.19 145.26 122.15 179.59 147.41 216.23 184.27 221.34 198.01 207.31 178.22 184.13 164.9 162.75 146.19 145.26"/><polygon class="cls-1" points="176.21 182.62 175.99 170.81 188.44 158 186.64 148.43 194.85 145.11 204.78 137.41 211.33 144.97 212.84 167.79 205.86 170.45 198.01 207.31 176.64 204.79 176.21 182.62"/><polygon class="cls-4" points="198.3 128.99 208.59 122.44 226.59 119.2 211.33 144.97 194.85 145.11 192.33 131.87 198.3 128.99"/><polygon class="cls-4" points="194.85 145.11 197.22 134.03 198.3 128.99 192.69 129.13 186.5 129.28 194.85 145.11"/><polygon class="cls-3" points="241.49 273.24 241.63 309.73 201.25 298.43 152.95 330.47 129.78 258.56 149.93 242.29 241.49 273.24"/><polygon class="cls-4" points="152.95 330.47 165.98 364.8 171.09 365.16 182.25 362.5 182.25 345.37 168.65 333.42 152.95 330.47"/><polygon class="cls-15" points="188.44 158 194.85 145.11 172.53 145.19 180.88 155.55 188.44 158"/><polygon class="cls-16" points="172.53 145.19 188.44 158 168.14 172.4 172.53 145.19"/><polygon class="cls-15" points="218.46 180.6 211.33 144.97 208.09 160.37 205.86 170.45 218.46 180.6"/><polygon class="cls-8" points="147.41 216.23 156.99 242.29 198.01 207.31 176.21 182.62 147.41 216.23"/><path class="cls-14" d="M261.86,194.71c-1.15.29-1.44.58-2.59.86-4,1.15-8.57,2.67-12.67,3.46-3.38.57-7.48-.36-10.87.21-2.37.44-4.6.87-7,1.3l-3.74-21.09L218.89,145Z"/><polygon class="cls-4" points="248.76 247.11 237.68 251.72 234.65 234.23 248.76 247.11"/><polygon class="cls-4" points="229.18 347.67 234.15 339.75 252.58 336.37 257.83 361.63 251.71 363.43 238.4 361.63 229.18 347.67"/><polygon class="cls-7" points="152.95 330.47 169.29 325.57 182.25 332.41 182.25 345.37 152.95 330.47"/><polygon class="cls-7" points="252.58 336.37 237.03 329.31 221.05 334.57 229.18 347.67 252.58 336.37"/><polygon class="cls-8" points="198.01 207.31 241.13 271.37 209.24 289.94 176.64 264.68 166.92 239.99 198.01 207.31"/><polygon class="cls-10" points="152.95 330.47 189.66 332.84 221.05 334.57 206.37 287.78 176.64 264.68 152.95 330.47"/><polygon class="cls-10" points="221.05 334.57 176.64 264.68 241.13 271.37 237.25 315.21 221.05 334.57"/><polygon class="cls-5" points="221.05 334.57 235.09 335.36 252.58 336.37 241.13 271.37 231.2 304.05 221.05 334.57"/><polygon class="cls-14" points="147.41 216.23 129.78 258.56 146.98 260.79 176.64 264.68 198.01 207.31 147.41 216.23"/><polygon class="cls-7" points="233.93 205.79 261.86 194.71 237.25 199.03 235.44 199.31 233.93 205.79"/><polygon class="cls-15" points="140.93 102.54 140.14 113.69 147.12 112.18 143.74 101.24 140.93 102.54"/><polygon class="cls-13" points="146.19 145.26 176.21 182.62 188.44 158 172.6 165.99 172.53 145.19 146.19 145.26"/><path class="cls-11" d="M230.33,68a3.89,3.89,0,0,0,0,7.77,3.89,3.89,0,0,0,0-7.77Z"/><path class="cls-11" d="M199.81,70.69a3.85,3.85,0,0,0,0,7.7,3.91,3.91,0,0,0,3.89-3.82A3.87,3.87,0,0,0,199.81,70.69Z"/><polygon class="cls-14" points="241.42 389.99 237.17 389.92 234.44 373.15 238.4 361.63 247.03 368.47 244.8 375.17 241.42 389.99"/><polygon class="cls-14" points="165.98 364.8 159.43 379.2 164.33 391.87 165.98 364.8"/><polygon class="cls-1" points="182.25 362.5 185.2 371.13 177.86 379.7 164.54 382.29 165.98 364.8 182.25 362.5"/><polygon class="cls-8" points="164.54 382.29 185.2 371.13 186.79 375.74 182.61 382.29 164.33 386.68 164.54 382.29"/><polygon class="cls-1" points="164.33 386.68 186.79 375.74 193.77 386.68 182.75 388.84 164.33 386.68"/><polygon class="cls-1" points="257.83 361.63 262.94 371.06 257.11 377.61 248.11 380.78 238.4 361.63 257.83 361.63"/><polygon class="cls-8" points="248.11 380.78 262.94 371.06 265.1 374.52 261.21 380.56 250.56 383.73 248.11 380.78"/><polygon class="cls-1" points="250.56 384.81 265.1 374.52 277.34 384.81 263.16 386.97 250.56 384.81"/><polygon class="cls-14" points="164.33 386.68 164.33 391.87 193.77 391.87 193.77 386.68 164.33 386.68"/><polygon class="cls-14" points="245.02 374.66 242.64 377.11 242.43 382.73 254.09 390.21 277.34 390.21 277.34 384.81 258.05 384.81 245.02 374.66"/><polygon class="cls-4" points="258.05 384.81 277.34 378.91 277.34 384.81 258.05 384.81"/><polygon class="cls-4" points="189.95 380.71 164.33 386.68 193.77 386.68 189.95 380.71"/></svg>



