<svg id="illustration" xmlns="http://www.w3.org/2000/svg" viewBox="0 0 400 400"><defs><style>.cls-1{fill:#3aa0ba;}.cls-2{fill:#5ec0d9;}.cls-10,.cls-3{fill:#dfbda5;}.cls-4,.cls-7{fill:#c3987b;}.cls-17,.cls-5{fill:#e8cab6;}.cls-6,.cls-9{fill:#4f5253;}.cls-10,.cls-12,.cls-13,.cls-14,.cls-15,.cls-16,.cls-17,.cls-18,.cls-24,.cls-31,.cls-32,.cls-33,.cls-7,.cls-8,.cls-9{fill-rule:evenodd;}.cls-19,.cls-8{fill:#8b6651;}.cls-11,.cls-33{fill:#6f7173;}.cls-12{fill:#369496;}.cls-13{fill:#165e60;}.cls-14{fill:#1c7678;}.cls-15{fill:#72cbcc;}.cls-16{fill:#8ce0dc;}.cls-18,.cls-30{fill:#2b2b2b;}.cls-20{fill:#fff;}.cls-21{fill:#dddddc;}.cls-22,.cls-32{fill:#474747;}.cls-23{fill:#b58b00;}.cls-24,.cls-28{fill:#ececeb;}.cls-25{fill:#318fa6;}.cls-26{fill:#27788c;}.cls-27{fill:#73cfe5;}.cls-29{fill:#a3a3a3;}.cls-31{fill:#50a9aa;}</style></defs><title>Consul (ESFJ) personality</title><polygon class="cls-1" points="230.19 162.22 256.82 195.48 256 214.43 245.6 234.98 229.12 215.64 230.19 162.22"/><polygon class="cls-2" points="230.19 162.22 256.82 195.48 257.92 205.41 230.52 171.36 230.19 162.22"/><polygon class="cls-3" points="256.82 195.48 277.82 187.22 286.36 196.28 288.12 205.19 245.6 234.98 256.82 195.48"/><polygon class="cls-4" points="288.12 205.19 304.88 201.45 294.03 185.44 292.48 174.43 277.82 187.22 288.12 205.19"/><polygon class="cls-3" points="304.88 201.45 311.59 188.54 304.02 170.64 292.48 174.43 287.83 178.9 294.03 185.44 304.88 201.45"/><polygon class="cls-5" points="277.82 187.22 284.05 174.77 282.5 164.61 288.87 163.06 292.48 174.43 294.03 185.44 283.12 196.47 277.82 187.22"/><polygon class="cls-4" points="182.45 291.54 229.18 270.55 224.97 353.08 210.21 359.28 201.78 364.67 182.45 291.54"/><polygon class="cls-4" points="135.64 326.3 182.45 291.54 159.94 370.55 149.66 363.86 138.65 357.16 135.64 326.3"/><line class="cls-6" x1="155.12" y1="137.42" x2="140.24" y2="118.15"/><polygon class="cls-7" points="200.57 165.45 152.99 167.28 153.11 136.7 140.2 118.07 137.82 54.27 162.51 60.08 186.38 132.85 200.57 165.45"/><polygon class="cls-8" points="146.36 104.06 140.24 118.15 135.06 108.56 146.36 104.06"/><polygon class="cls-9" points="155.13 105.22 131.22 101.47 119.49 79.72 125.74 73.64 151.84 57.57 162.51 60.08 155.13 105.22"/><polygon class="cls-10" points="139.69 82.5 146.36 104.06 135.06 108.56 124.88 89.74 139.69 82.5"/><polygon class="cls-8" points="199.76 140.12 207.18 132.19 170.71 133.43 195.23 159.35 203.4 154.12 199.76 140.12"/><polygon class="cls-10" points="238.72 56.49 238.52 131.12 170.71 133.43 162.51 60.08 187.87 27.36 212.54 20.35 238.72 56.49"/><polygon class="cls-7" points="162.51 60.08 187.87 27.36 212.54 20.35 238.72 56.49 162.51 60.08"/><line class="cls-11" x1="124.88" y1="89.74" x2="119.49" y2="79.71"/><polygon class="cls-7" points="208.31 97.11 203.04 94.49 191.44 78.48 175.98 71.47 192.46 66.49 197.81 69.67 203.62 75.47 207 78.92 209.1 75.37 210.92 70.53 217.92 67.58 231.16 68.96 220.46 78.61 212.69 94.27 208.31 97.11"/><polygon class="cls-12" points="249.61 49 219.88 41.7 214.9 38.84 162.51 60.08 149.62 40.77 160.76 6.31 219.66 0.11 238.53 34.13 247.96 32.81 249.61 49"/><polygon class="cls-13" points="238.72 56.49 219.88 41.7 247.96 32.81 270.41 48.89 238.72 56.49"/><polygon class="cls-14" points="247.96 32.81 211.63 33.93 162.51 60.08 247.96 32.81"/><polygon class="cls-15" points="160.76 6.31 124.17 29.22 115.09 61.19 119.66 80.13 160.76 6.31"/><polygon class="cls-16" points="160.76 6.31 119.66 80.13 162.51 60.08 160.76 6.31"/><polygon class="cls-8" points="137.2 88.11 140.71 97.78 129.46 91.61 137.2 88.11"/><polygon class="cls-9" points="231.16 68.96 217.8 68.54 210.92 70.53 210.56 68.04 216.41 65.25 231.82 67.7 231.16 68.96"/><polygon class="cls-17" points="203.62 75.47 209.1 75.37 212.69 94.27 203.04 94.49 203.62 75.47"/><polygon class="cls-8" points="203.04 94.49 212.69 94.27 207.71 99.08 203.04 94.49"/><path class="cls-18" d="M220.62,73.37a3.82,3.82,0,1,0,4.19,3.42,3.83,3.83,0,0,0-4.19-3.42"/><path class="cls-18" d="M190.09,74.41a3.82,3.82,0,1,0,4.19,3.41,3.81,3.81,0,0,0-4.19-3.41"/><polygon class="cls-9" points="175.98 72.47 191.13 68.89 197.81 69.67 197.42 66.83 190.72 65.38 174.97 71.56 175.98 72.47"/><polygon class="cls-19" points="224.48 106.66 186.53 105.27 200.41 121.13 214.75 121.36 224.48 106.66"/><polygon class="cls-20" points="218.41 109.38 212.74 116.72 200.91 116.05 194.41 108.88 218.41 109.38"/><polygon class="cls-21" points="282.39 390.15 179.86 400.11 103.7 393.92 187.9 378.98 282.39 390.15"/><polygon class="cls-11" points="145.57 383.78 165.63 388.35 165.63 393.74 128.43 393.74 128.26 388.35 145.57 383.78"/><polygon class="cls-11" points="226.5 379.37 250.81 384.43 250.65 389 200.78 389 200.78 383.94 226.5 379.37"/><polygon class="cls-22" points="201.78 364.67 200.78 383.94 250.81 384.43 226.78 363.2 210.27 356.83 201.78 364.67"/><polygon class="cls-22" points="137.19 367.61 128.26 388.35 165.63 388.35 159.94 370.55 149.33 363.53 137.19 367.61"/><polygon class="cls-6" points="184.26 289.82 210.99 261.73 229.18 270.55 231.78 327.13 186.97 330.16 182.45 291.54 184.26 289.82"/><polygon class="cls-6" points="132.96 269.89 153.54 259.77 182.85 290.14 182.45 291.54 178.81 329.99 131.41 327.82 132.96 269.89"/><polygon class="cls-22" points="182.45 291.54 132.96 269.89 134.76 255.85 146.68 250.79 217.62 250.46 225.2 256.34 229.18 270.55 182.45 291.54"/><polygon class="cls-23" points="136.14 207.35 135.33 206.37 136.31 204.57 136.14 207.35"/><polygon class="cls-23" points="128.47 161.72 150.84 177.13 136.31 204.57 138.27 182.36 128.47 161.72"/><polygon class="cls-1" points="135.86 181.05 135.82 179.26 128.47 161.72 101.36 195.1 103.16 216.33 118.18 228.9 136.63 217.14 138.27 182.36 135.86 181.05"/><polygon class="cls-24" points="179.18 163.71 197.64 162.68 187.55 190.87 179.18 163.71"/><polygon class="cls-25" points="230.52 170.71 199.83 154.44 192.48 167.61 187.55 190.87 190.25 270.8 229.18 270.55 230.52 170.71"/><path class="cls-26" d="M187.55,190.87l-4.36-22.61L159.5,154.11s-16.33,6.63-17.15,6.14-12.74,9.48-12.74,9.48L136.39,243,133,269.89l57.29.91Z"/><polygon class="cls-27" points="175.99 162.22 129.61 169.73 128.47 161.72 145.13 155.19 162.27 148.07 175.99 162.22"/><path class="cls-27" d="M204.9,157.64l5.06.49,20.23,4.08.33,9.15-35-6.4A51,51,0,0,1,204.9,157.64Z"/><polygon class="cls-2" points="129.61 169.73 132.53 201.22 187.55 190.87 183.15 168.26 181.63 160.48 129.61 169.73"/><polygon class="cls-2" points="187.55 190.87 192.48 168.26 193.16 163.62 230.52 171.36 229.68 198.58 187.55 190.87"/><polygon class="cls-4" points="136.39 242.95 140.8 258.95 132.96 269.89 118.18 267.61 118.02 252.91 128.47 249.81 136.39 242.95"/><polygon class="cls-26" points="181.12 149.86 159.66 148.4 148.23 140.23 153.11 136.7 176.64 144.99 181.12 149.86"/><polygon class="cls-1" points="135.85 328.03 136.4 270.03 139.87 270.24 140.37 328.22 135.85 328.03"/><polygon class="cls-25" points="192.3 168.53 209.96 158.13 206.37 143.5 194.55 149.86 192.3 168.53"/><polygon class="cls-25" points="148.23 140.23 145.13 155.19 183.19 168.26 181.12 149.86 148.23 140.23"/><polygon class="cls-3" points="118.18 228.9 101.36 195.1 83.76 219.1 118.18 267.61 128.47 249.81 118.18 228.9"/><polygon class="cls-5" points="148.31 270.71 153.37 256.01 136.39 242.95 132.96 269.89 148.31 270.71"/><polygon class="cls-2" points="224.97 353.08 199.35 355.49 201.78 364.67 226.78 363.2 224.97 353.08"/><polygon class="cls-2" points="162.52 361.52 138.65 357.16 137.19 367.61 159.94 370.55 162.52 361.52"/><polygon class="cls-26" points="194.55 149.86 195.92 145.42 199.76 140.12 206.37 143.5 194.55 149.86"/><polygon class="cls-2" points="128.47 161.72 101.36 195.1 105.97 204.21 129.61 169.73 128.47 161.72"/><polygon class="cls-1" points="221.76 327.81 226.27 327.5 225.34 270.57 221.78 270.6 221.76 327.81"/><polygon class="cls-6" points="145.13 155.19 140.49 156.52 185.57 225.22 188.8 224.13 145.13 155.19"/><polygon class="cls-6" points="191.42 225.38 188.8 224.13 209.96 158.13 213.31 159.1 191.42 225.38"/><polygon class="cls-28" points="188.8 224.13 185.57 225.22 183.43 229 184.22 232.32 187.7 234.63 186.82 242.28 189.68 243.14 192.14 229.08 191.42 225.38 188.8 224.13"/><polygon class="cls-29" points="191.42 225.38 195.89 228.95 196.38 231.72 193.66 243.16 189.68 243.14 192.14 229.08 191.42 225.38"/><polygon class="cls-30" points="192.78 229.48 195.8 231.33 194.88 235.57 191.92 234.46 192.78 229.48"/><polygon class="cls-16" points="277.82 187.22 271.36 189.41 276.51 202.29 284.59 199.2 277.82 187.22"/><polygon class="cls-31" points="276.51 202.29 280.46 214.33 289.57 208.48 284.59 199.2 276.51 202.29"/><polygon class="cls-9" points="162.51 60.08 178.35 58.18 223.78 52.75 219.88 41.7 162.51 60.08"/><polygon class="cls-32" points="223.78 52.75 238.72 56.49 219.88 41.7 223.78 52.75"/><polygon class="cls-32" points="153.11 136.7 148.23 140.23 132.62 122.15 140.24 118.15 153.11 136.7"/><polygon class="cls-33" points="132.62 122.15 121.86 131.71 148.23 140.23 132.62 122.15"/><polygon class="cls-9" points="132.62 122.15 121.27 113.78 131.22 101.47 140.24 118.15 132.62 122.15"/><polygon class="cls-32" points="121.27 113.78 111.58 98.29 124.88 89.74 131.22 101.47 121.27 113.78"/><polygon class="cls-33" points="111.58 98.29 119.66 80.13 124.88 89.74 111.58 98.29"/><polygon class="cls-32" points="121.86 131.71 121.27 113.78 132.62 122.15 121.86 131.71"/><polygon class="cls-9" points="199.76 140.12 224.52 131.6 207.18 132.19 199.76 140.12"/><polygon class="cls-9" points="238.72 56.49 238.61 98.73 244.62 75.82 238.72 56.49"/></svg>



