<svg id="illustration" xmlns="http://www.w3.org/2000/svg" viewBox="0 0 400 400"><defs><style>.cls-1{fill:#165e60;}.cls-2,.cls-20{fill:#2b2b2b;}.cls-2{opacity:0.1;}.cls-3{fill:#27788c;}.cls-4{fill:#c3987b;}.cls-5{fill:#8b6651;}.cls-6{fill:#3aa0ba;}.cls-7{fill:#73cfe5;}.cls-8{fill:#dfbda5;}.cls-9{fill:#474747;}.cls-10{fill:#4f5253;}.cls-11{fill:#6f7173;}.cls-12{fill:#fff;}.cls-13{fill:#8ce0dc;}.cls-14{fill:#72cbcc;}.cls-15{fill:#318fa6;}.cls-16{fill:#1c7678;}.cls-17{fill:#369496;}.cls-18{fill:#e8cab6;}.cls-19{fill:#5ec0d9;}</style></defs><title>Consul (ESFJ) personality</title><polygon class="cls-1" points="150.09 245.94 148.41 238.68 152.07 218.13 155.01 218.72 155.3 238.97 150.09 245.94"/><polygon class="cls-2" points="108.51 386.94 215.86 377.47 292.42 386.94 213.82 400.11 108.51 386.94"/><polygon class="cls-3" points="221.18 379.41 214.06 385.5 214.06 390.27 259.69 390.56 259.76 386.6 221.18 379.41"/><polygon class="cls-3" points="123.98 330.92 116.13 328.79 111.8 330.56 131.38 374.86 135.49 372.74 123.98 330.92"/><polygon class="cls-4" points="154.42 303.56 137.33 319.48 131.61 342.88 142.76 331.36 165.95 322.15 183.54 281.04 154.42 303.56"/><polygon class="cls-5" points="165.95 322.15 179.14 317.06 154.42 303.56 165.95 322.15"/><polygon class="cls-6" points="129.4 323 116.13 328.79 135.49 372.74 139.97 347.5 137.91 344.2 140.92 341.93 141.29 340.09 142.76 331.36 137.33 319.48 129.4 323"/><polygon class="cls-5" points="270.11 152.41 277.15 143.68 285.59 112.79 266.07 122.11 269.37 143.75 270.11 152.41"/><polygon class="cls-3" points="278.25 139.57 285.59 112.79 251.47 99.07 244.14 114.7 250.59 130.76 278.25 139.57"/><polygon class="cls-7" points="249.35 102.08 245.24 112.42 250.67 126.29 268.06 132.6 271.35 125.78 274.97 112.56 249.35 102.08"/><polygon class="cls-4" points="271.35 147.64 262.55 143.09 257.42 132.89 266.66 130.84 269.55 136.8 272.57 143.49 271.35 147.64"/><polygon class="cls-8" points="272.56 121.35 267.66 121.35 257.42 132.89 269.55 136.8 272.56 121.35"/><polygon class="cls-9" points="135.05 111.47 163.15 162.09 179.29 153.73 153.47 90.93 135.05 111.47"/><polygon class="cls-10" points="267.32 39.8 215.68 16.4 161.1 23.22 142.68 56.6 194.4 76.48 253.09 43.91 267.32 39.8"/><polygon class="cls-11" points="267.32 39.8 242.08 18.01 221.4 0.11 161.1 23.22 267.32 39.8"/><polygon class="cls-9" points="142.68 56.6 149.76 79.78 182.74 114.26 178.04 63.57 142.68 56.6"/><polygon class="cls-4" points="178.04 63.57 187.14 61.22 194.99 98.49 187.58 131.06 195.79 155.05 173.35 155.05 159.37 110.96 166.09 89.39 168.76 87.8 174.89 85.43 178.04 63.57"/><polygon class="cls-8" points="187.14 61.22 249.13 48.24 252.94 48.6 250.59 130.76 187.58 131.06 187.14 61.22"/><polygon class="cls-5" points="187.14 61.22 253.09 43.91 252.94 48.6 187.14 61.22"/><polygon class="cls-12" points="225.58 108.83 229.69 108.68 239.74 109.56 226.24 119.91 211.13 109.71 225.58 108.83"/><polygon class="cls-5" points="208.27 155.05 220.52 130.91 175.69 131.13 190.88 155.05 208.27 155.05"/><polygon class="cls-8" points="160.84 104.87 168.76 98.49 165.83 74.42 149.76 79.78 156.51 101.79 160.84 104.87"/><polygon class="cls-5" points="159.37 110.96 168.76 98.49 156.51 101.79 159.37 110.96"/><polygon class="cls-5" points="155.48 82.2 161.43 80.15 163.41 91.37 155.48 82.2"/><polygon class="cls-13" points="224.48 155.05 235.99 183.73 225.28 196.57 215.97 327.44 144.08 268.53 165.06 228.77 150.02 219.75 149.94 161.28 173.42 155.05 224.48 155.05"/><path class="cls-14" d="M226.24,248.07l.88,48.49L197.77,312.7l-53.69-44.17,21-39.76,40.36,1.43S198.22,243.37,226.24,248.07Z"/><path class="cls-14" d="M181.86,242.2l-22.38,8.07L164,230.83c10.27,2.93,41.74,11.73,41.74,11.73Z"/><polygon class="cls-3" points="158.46 250.71 156.77 243.37 160.51 222.83 163.37 223.49 163.74 243.66 158.46 250.71"/><polygon class="cls-15" points="136.15 232.78 152.73 232.57 156.99 228.77 157.94 236.55 177.75 237.5 176.5 295.16 123.83 287.64 122.47 282.77 122.37 271.43 136.15 232.78"/><polygon class="cls-3" points="128.67 231.71 135.2 230.83 136.15 232.78 123.83 287.61 117.12 285.77 128.67 231.71"/><polygon class="cls-14" points="225.28 196.57 226.09 242.12 162.2 234.27 165.06 228.77 161.24 226.5 157.72 195.91 225.28 196.57"/><polygon class="cls-4" points="228.81 343.83 229.17 362.76 222.64 367.01 215.01 364.08 205.25 343.83 215.09 303.41 228.81 343.83"/><polygon class="cls-5" points="214.06 310.6 228.81 343.83 205.25 343.83 196.68 326.52 199.9 304.44 214.06 310.6"/><polygon class="cls-6" points="168.87 204.12 165.42 234.57 175.47 234.57 185.45 234.57 188.46 201.41 176.13 197.3 168.87 204.12"/><polygon class="cls-15" points="162.42 201.41 165.42 234.57 175.47 234.57 175.77 234.57 175.77 197.37 162.42 201.41"/><polygon class="cls-1" points="154.42 303.56 196.68 326.52 178.41 250.23 164.54 262.7 154.42 303.56"/><polygon class="cls-16" points="196.68 326.52 183.03 299.93 144.81 245.31 182.15 248.06 206.28 248.06 215.69 241.24 226.24 248.06 218.83 314.56 196.68 326.52"/><polygon class="cls-17" points="226.24 248.06 228.81 343.83 196.68 326.52 226.24 248.06"/><polygon class="cls-6" points="237.54 369.14 237.09 371.27 242.23 372.81 259.76 386.6 214.06 385.5 214.72 371.2 215.01 364.08 229.17 362.76 237.54 369.14"/><path class="cls-1" d="M149.94,161.28c1.91-.37-21.27,70.43-21.27,70.43l47.83-.44-13.94-13.43Z"/><polygon class="cls-16" points="128.67 231.71 195.94 241.39 197.34 224.59 162.56 217.84 128.67 231.71"/><polygon class="cls-15" points="220.22 211.53 213.62 193.63 207.75 198.18 211.27 199.06 215.6 210.8 220.22 211.53"/><polygon class="cls-6" points="203.5 200.24 211.27 199.06 213.62 193.63 202.84 195.98 203.5 200.24"/><polygon class="cls-6" points="211.86 221.58 206.28 248.06 216.26 248.06 226.24 247.99 226.68 243.37 223.6 233.47 228.07 228.11 229.32 214.91 216.26 212.34 211.86 221.58"/><polygon class="cls-15" points="203.28 214.91 206.28 248.06 216.26 248.06 216.63 248.06 216.63 210.87 203.28 214.91"/><polygon class="cls-1" points="225.28 196.57 280.74 196.93 275.76 164.73 256.75 179.03 224.48 155.05 224.99 180.87 225.28 196.57"/><path class="cls-16" d="M256.75,179c1-.36,5.8-35.94,5.8-35.94l14.6.59,3.59,53.25Z"/><polygon class="cls-5" points="225.76 102.08 228.44 97.97 223.08 97.75 225.76 102.08"/><polygon class="cls-3" points="205.55 106.85 212.3 108.76 227.19 106.63 238.27 108.98 244.06 106.78 237.98 110.59 226.97 110.22 212.52 110.44 205.55 106.85"/><polygon class="cls-6" points="205.77 107.07 226.31 122.11 244.06 106.78 226.82 117.12 205.77 107.07"/><polygon class="cls-15" points="171.51 198.11 178.12 180.06 183.98 184.61 180.39 185.49 176.13 197.3 171.51 198.11"/><polygon class="cls-6" points="188.24 186.74 180.39 185.49 178.12 180.06 188.82 182.48 188.24 186.74"/><polygon class="cls-3" points="188.46 201.41 185.45 196.27 175.47 196.27 165.42 196.27 162.42 201.41 175.47 201.41 188.46 201.41"/><polygon class="cls-3" points="203.28 214.91 206.28 209.77 216.26 209.77 225.58 209.77 229.32 214.91 216.26 214.91 203.28 214.91"/><polygon class="cls-8" points="197.34 224.59 216.63 221.95 223.3 234.79 216.63 243.88 195.94 241.39 197.34 224.59"/><polygon class="cls-4" points="216.63 221.95 228.07 228.11 226.68 243.37 216.63 243.88 216.63 221.95"/><polygon class="cls-4" points="192.42 70.39 209.95 78.97 223.08 97.75 222.42 75.67 219.42 70.61 209.29 67.24 192.42 70.39"/><polygon class="cls-4" points="248.83 69.22 237.98 77.29 228.44 97.97 227.27 74.43 229.83 70.32 234.97 67.46 248.83 69.22"/><polygon class="cls-10" points="192.42 70.39 219.42 70.61 211.79 63.94 192.42 70.39"/><polygon class="cls-10" points="229.83 70.32 233.35 63.72 248.83 69.22 229.83 70.32"/><polygon class="cls-18" points="229.83 70.32 228.44 97.97 223.08 97.75 219.42 70.61 229.83 70.32"/><polygon class="cls-12" points="190.88 155.05 200.56 171.11 208.27 155.05 190.88 155.05"/><polygon class="cls-12" points="173.42 155.05 179.22 171.7 190.88 155.05 173.42 155.05"/><polygon class="cls-6" points="276.15 121.35 279.01 122.67 277.55 128.69 274.1 127.66 276.15 121.35"/><polygon class="cls-7" points="141.88 240.36 158.8 243.41 161.1 236.4 165.94 244.88 182.15 248.06 171.95 284.38 137.33 296.7 133.62 285.93 141.88 240.36"/><polygon class="cls-19" points="182.15 248.06 183.03 299.93 137.33 296.7 182.15 248.06"/><path class="cls-3" d="M135.49,242.12l6.39-1.76c-.59,8.37-3.08,38.3-4.55,56.34l-8.66-2.34Z"/><polygon class="cls-15" points="152.73 237.43 162.49 217.33 162.2 220.04 165.79 218.35 160.45 238.27 152.73 237.43"/><polygon class="cls-6" points="158.8 243.41 162.49 217.33 165.79 218.35 165.94 244.88 158.8 243.41"/><polygon class="cls-3" points="133.81 340.75 140.92 341.93 139.97 347.5 133.15 346.4 133.81 340.75"/><polygon class="cls-3" points="231.37 372.74 237.54 369.14 242.23 372.81 236.07 376.55 231.37 372.74"/><path class="cls-20" d="M213.91,79.49a4,4,0,0,1-4,3.89,3.93,3.93,0,1,1,0-7.85A4,4,0,0,1,213.91,79.49Z"/><path class="cls-20" d="M241.35,78.53a3.94,3.94,0,0,1-4,4,3.89,3.89,0,0,1-4-4,4,4,0,0,1,4-4A4,4,0,0,1,241.35,78.53Z"/></svg>



