<svg id="illustration" xmlns="http://www.w3.org/2000/svg" viewBox="0 0 400 400"><defs><style>.cls-1{fill:#c3987b;}.cls-1,.cls-10,.cls-11,.cls-12,.cls-13,.cls-14,.cls-15,.cls-16,.cls-17,.cls-19,.cls-2,.cls-21,.cls-3,.cls-4,.cls-5,.cls-6,.cls-7,.cls-8,.cls-9{fill-rule:evenodd;}.cls-2{fill:#8b6651;}.cls-20,.cls-3,.cls-7{fill:#2b2b2b;}.cls-4{fill:#4f5253;}.cls-5{fill:#6f7173;}.cls-6{fill:#dfbda5;}.cls-7{opacity:0.1;}.cls-23,.cls-8{fill:#dddddc;}.cls-9{fill:#ececeb;}.cls-10,.cls-24{fill:#856400;}.cls-11,.cls-18{fill:#755800;}.cls-12,.cls-25{fill:#9e7700;}.cls-13{fill:#b58b00;}.cls-14{fill:#ccad14;}.cls-15{fill:#e5c828;}.cls-16{fill:#f4d75d;}.cls-17{fill:#474747;}.cls-19,.cls-22{fill:#c4c4c4;}.cls-21{fill:#e8cab6;}.cls-26{fill:none;stroke:#755800;stroke-miterlimit:10;stroke-width:2px;}.cls-27{fill:#858686;}</style></defs><title>Entertainer (ESFP) personality</title><polyline class="cls-1" points="184.73 72.88 157.94 62.51 157.66 97.11 154.45 103.29 148.66 107.95 167.41 150.47 180.61 161.35 198.11 175.76 202.01 163.22"/><polygon class="cls-2" points="210.85 137.56 210.44 143.42 202.61 163.01 175.33 141.16 210.85 137.56"/><path class="cls-2" d="M160.25,104.28l-7,14.14L148.66,108s10.48-5.78,10-6.18Z"/><polygon class="cls-3" points="148.8 64.61 139.04 79.3 141.2 88.5 157.66 97.11 163.33 95.03 166.66 69.6 148.8 64.61"/><polygon class="cls-4" points="150.91 44.52 133.87 57.2 139.04 79.3 166.66 69.6 175.81 59.37 150.91 44.52"/><polygon class="cls-5" points="167.17 26.66 153.73 28.01 133.87 57.2 169.63 60.45 182.64 40.47 167.17 26.66"/><polygon class="cls-3" points="191.71 15.86 200.07 0.11 153.73 28.01 176.7 31.91 191.71 15.86"/><polygon class="cls-5" points="178.42 21.11 171.86 23.66 153.73 28.01 176.78 36.56 202.49 31.01 178.42 21.11"/><polygon class="cls-4" points="211.56 20.36 204.71 14.26 200.07 0.11 177.2 28.11 195.18 31.2 211.56 20.36"/><polygon class="cls-3" points="165.89 6.86 163.95 23.95 180.05 30.4 165.89 6.86"/><path class="cls-5" d="M195.34,31.11c-.48-.42-29.45-24.25-29.45-24.25l9,20.93Z"/><polygon class="cls-3" points="151.59 16.76 153.73 28.02 173.89 39.87 168.66 27.99 151.59 16.76"/><polygon class="cls-3" points="222.44 14.58 224.53 4.61 204.28 12.96 195.18 31.2 222.44 14.58"/><polygon class="cls-3" points="218.28 21.71 246.88 22.76 218.28 55.47 198.58 42.11 218.28 21.71"/><polygon class="cls-5" points="214.74 22.72 224.53 4.61 229.38 22.3 214.33 43.8 214.74 22.72"/><polygon class="cls-5" points="221.4 53.81 222.02 46.36 228.24 33.98 246.88 22.77 239.57 43.22 238.4 54.6 221.4 53.81"/><polygon class="cls-4" points="209.85 49.75 214.33 43.8 228.24 33.98 247.65 47.14 236.18 51.55 233.39 51.33 227.08 56.82 209.85 49.75"/><polygon class="cls-5" points="247.66 47.14 241.77 62.85 227.08 56.82 233.39 51.33 247.66 47.14"/><polygon class="cls-4" points="191.86 43.31 195.18 31.2 224.53 4.61 214.33 43.8 191.86 43.31"/><path class="cls-5" d="M214.21,52.61l.12-8.81L195.18,31.2l-15.41,2.39-5.88,6.28,5.35,5.83,7.35,3.88-2.88,16.27-12.59.42,3.44,13.49Z"/><path class="cls-3" d="M173.89,39.86,166.66,69.6l4.46-3.33,12.59-.42,2.88-16.27Z"/><polygon class="cls-6" points="241.77 62.85 240.87 134.71 179.35 140.82 166.66 69.6 186.59 49.58 214.33 43.8 233.39 51.33 241.77 62.85"/><polygon class="cls-4" points="151.59 16.76 195.18 31.2 173.89 39.87 151.59 16.76"/><polygon class="cls-6" points="153.58 84.83 141.2 88.5 148.66 107.95 160.25 104.28 153.58 84.83"/><polygon class="cls-2" points="154.45 100.69 151.86 91.83 146.06 93.31 154.45 100.69"/><polygon class="cls-7" points="287.9 389.07 160.88 375.37 78.74 386.55 198.29 400.11 287.9 389.07"/><polygon class="cls-8" points="203.93 282.81 178.53 256.27 169.08 158.41 206.86 156.94 229.7 259.87 203.93 282.81"/><polygon class="cls-9" points="189.41 290.31 164.02 263.78 154.57 165.92 192.35 164.45 207.93 263.67 189.41 290.31"/><polygon class="cls-10" points="141.47 293.55 137.56 308.23 234.57 303.66 229.41 280.79 146.5 272.51 141.47 293.55"/><polygon class="cls-4" points="195.17 279.26 222.41 263.78 228.32 263.88 232.68 269.01 235.45 319.27 217.56 366.21 191.16 288.52 195.17 279.26"/><polygon class="cls-4" points="148.13 272.76 173.42 264.36 197.66 281.31 191.16 288.52 171.15 367.61 161.42 343.52 148.9 333.34 148.13 272.76"/><polygon class="cls-11" points="234.38 159.85 272.01 187.4 246.75 205.18 232.45 196.28 229.73 177.12 234.38 159.85"/><polygon class="cls-12" points="234.57 303.66 220.35 253.26 221.79 213.41 201.5 150.29 234.38 159.85 234.57 303.66"/><polygon class="cls-13" points="224.71 199.98 234.5 213 220.35 253.26 203.74 159.32 200.94 156.08 210.9 153.02 229.73 177.12 224.71 199.98"/><polygon class="cls-8" points="210.44 143.42 192.2 156.2 194.87 173.84 210.9 153.02 210.44 143.42"/><polygon class="cls-9" points="192.2 156.2 164.39 143.9 161.47 153.54 168.31 162.76 189.23 168.27 194.87 173.84 192.2 156.2"/><polygon class="cls-12" points="161.47 153.55 138.48 163.5 137.6 187.57 144.96 219.17 133.65 294.53 137.57 308.23 174.4 277.1 192.49 277.69 184.94 262.96 193.5 252.47 165.13 164.03 161.47 153.55"/><polygon class="cls-13" points="158.17 183.66 176.49 206.96 168.79 223.91 193.5 252.47 181.95 190.16 169.66 157.89 161.47 153.54 158.17 183.66"/><polygon class="cls-14" points="240.38 362.56 217.56 366.21 228.42 387.27 265.08 384.31 240.38 362.56"/><polygon class="cls-11" points="217.56 366.2 235.85 384.31 222.22 386.98 217.56 384.31 217.56 366.2"/><polygon class="cls-14" points="218.63 170.93 211.63 170.41 199.63 173.26 201.81 178.22 210.44 186.28 218.63 170.93"/><polygon class="cls-15" points="218.63 170.93 208.15 156.59 199.37 166.65 199.63 173.26 218.63 170.93"/><polygon class="cls-15" points="189.23 168.27 191.72 174.22 179.68 177.83 164.56 176.26 169.66 157.89 189.23 168.27"/><polygon class="cls-14" points="191.72 174.22 192.6 178.83 181.95 190.16 164.56 176.26 191.72 174.22"/><polygon class="cls-15" points="200.75 173.19 190.11 172.3 191.69 179.55 201.81 178.22 200.75 173.19"/><polygon class="cls-16" points="199.37 166.65 200.75 173.19 190.55 174.31 189.23 168.27 199.37 166.65"/><polygon class="cls-10" points="128.39 250.45 105.58 246.22 118.23 215.29 136.03 208.62 144.96 219.17 128.39 250.45"/><polygon class="cls-6" points="105.58 246.22 99.99 262.81 129.49 262.89 131.32 268.32 128.39 250.45 105.58 246.22"/><polygon class="cls-17" points="184.94 262.96 174.4 277.1 191.16 288.52 222.41 263.78 184.94 262.96"/><polygon class="cls-17" points="235.45 319.27 203.17 324.05 217.56 366.21 240.38 362.56 235.45 319.27"/><polygon class="cls-17" points="181.28 328.05 148.9 333.34 148.9 369.67 155.16 377.45 171.15 367.61 181.28 328.05"/><polygon class="cls-11" points="138.48 163.5 118.23 215.29 144.96 219.17 138.48 163.5"/><rect class="cls-18" x="217.56" y="384.31" width="47.52" height="4.89"/><polygon class="cls-14" points="171.15 367.61 181.52 388.11 162.88 392.16 146.13 388.38 148.9 369.67 171.15 367.61"/><rect class="cls-18" x="146.17" y="388.11" width="35.35" height="4.89"/><polygon class="cls-2" points="275.19 141.08 284.28 131.86 288.55 146.72 286.57 148.49 275.19 141.08"/><polygon class="cls-12" points="294 162.42 272.86 220.98 246.75 205.18 274.88 159.68 294 162.42"/><polygon class="cls-3" points="304.26 166.42 295.96 168.21 267.81 83.32 276.31 80.45 304.26 166.42"/><polygon class="cls-6" points="299.76 154.22 294 162.42 274.88 159.68 275.19 141.08 288.56 137.17 294.13 143.79 299.76 154.22"/><polygon class="cls-1" points="307.6 148.68 299.76 154.22 285.19 146.75 291.83 128.23 307.6 148.68"/><polygon class="cls-4" points="98.49 309.87 138.19 311.37 145.72 309.26 146.16 270.25 138.86 263.65 115.67 259.99 101.27 261.47 99.65 274.95 94.25 307.85 98.49 309.87"/><polygon class="cls-17" points="89.05 262.88 97.69 262.26 101.84 272.37 99.84 308.8 97.77 310.44 86.46 309.34 89.05 262.88"/><polygon class="cls-17" points="155.5 251.39 157.74 259.45 138.58 266.61 89.03 262.24 79.58 259.78 82.28 251.59 99.74 248.28 138.24 247.95 155.5 251.39"/><polygon class="cls-5" points="137.52 309.81 138.83 263.68 143.91 267.45 148.73 271.02 149.97 308.98 137.52 309.81"/><polyline class="cls-15" points="98.78 268.88 102.05 263.46 138.83 263.68 141.91 267.09 138.74 273.06 101.84 272.37 98.78 268.88"/><polygon class="cls-16" points="138.74 273.06 138.83 263.68 148.08 263.11 148.73 271.02 138.74 273.06"/><polygon class="cls-3" points="86.46 309.34 99.84 308.8 104.93 311.06 102.85 313.3 86.46 309.34"/><polygon class="cls-3" points="149.97 308.98 134.47 313.68 132.39 311.84 137.52 309.69 149.97 308.98"/><polygon class="cls-3" points="99.84 308.8 137.52 309.69 134.47 313.68 102.85 313.3 99.84 308.8"/><polyline class="cls-14" points="88.69 269.71 101.84 272.37 102.05 263.46 89.03 262.24"/><polygon class="cls-19" points="276.31 80.45 274.14 74.04 265.15 77.5 267.81 83.32 276.31 80.45"/><polygon class="cls-3" points="91.58 253.61 100.24 251.61 137.08 250.78 150.41 253.61 151.24 255.95 146.58 257.28 140.08 257.61 102.74 258.61 91.41 256.78 91.58 253.61"/><polygon class="cls-3" points="146.37 35.25 138.24 29.11 139.49 48.86 168.85 60.49 146.37 35.25"/><polygon class="cls-5" points="153.78 42.3 138.24 29.11 153.73 28.01 170.2 54.95 153.78 42.3"/><polygon class="cls-4" points="168.85 60.49 138.24 29.11 173.89 39.87 168.85 60.49"/><polygon class="cls-4" points="180.32 78.65 185.69 70.73 204.1 78.75 180.32 78.65"/><polygon class="cls-1" points="180.32 78.65 194.36 86.47 203.58 100.05 214.41 100.47 223.62 87.04 234.57 79.48 211.85 77.88 204.1 78.75 180.32 78.65"/><polygon class="cls-11" points="189.32 112.28 200.82 111.7 208.48 110.41 217.81 110.85 224.99 110.48 215.78 125.04 206.22 125.92 189.32 112.28"/><circle class="cls-20" cx="194.36" cy="86.47" r="4"/><circle class="cls-20" cx="223.62" cy="87.04" r="4"/><polygon class="cls-4" points="234.57 79.48 229.44 71.4 211.85 77.88 234.57 79.48"/><polygon class="cls-21" points="204.1 78.75 203.58 100.05 214.41 100.47 211.85 77.88 204.1 78.75"/><polygon class="cls-2" points="203.58 100.05 209.69 103.6 214.41 100.47 203.58 100.05"/><polygon class="cls-9" points="198.33 114.83 208.94 115.28 218.77 113.86 214.43 121.19 206.75 121.85 198.33 114.83"/><polygon class="cls-22" points="99.16 232.86 89.16 218.36 95.66 216.7 102.99 214.53 110.99 211.03 109.16 225.86 99.16 232.86"/><polygon class="cls-23" points="89.16 218.36 95.66 216.7 102.99 214.53 110.99 211.03 105.66 191.36 93.33 178.86 86.99 202.36 89.16 218.36"/><polygon class="cls-23" points="116.66 210.53 117.49 191.03 129.16 173.36 136.33 190.7 136.99 212.2 129.99 211.7 123.16 211.53 116.66 210.53"/><polygon class="cls-22" points="116.66 210.53 119.83 222.7 130.49 224.2 136.99 212.2 129.99 211.7 123.16 211.53 116.66 210.53"/><polygon class="cls-24" points="102.99 227.86 95.66 216.7 102.99 214.53 104.66 226.86 102.99 227.86"/><polygon class="cls-25" points="95.66 216.7 96.33 203.36 98.33 202.86 102.99 214.53 95.66 216.7"/><polygon class="cls-25" points="123.16 211.53 124.99 199.36 127.49 198.7 129.99 211.7 123.16 211.53"/><polygon class="cls-24" points="123.16 211.53 124.33 222.2 126.49 222.86 129.99 211.7 123.16 211.53"/><polygon class="cls-23" points="99.16 232.86 109.16 225.86 119.83 222.7 130.49 224.2 139.83 231.03 141.33 246.2 136.49 252.7 127.16 256.2 118.49 253.53 113.99 258.53 104.66 259.36 96.66 252.03 95.49 238.36 99.16 232.86"/><polygon class="cls-22" points="130.49 224.2 136.66 232.2 135.33 244.36 127.16 250.2 118.49 253.53 108.16 254.86 96.66 252.03 104.66 259.36 113.99 258.53 120.24 254.78 127.16 256.2 136.49 252.7 141.33 246.2 139.83 231.03 130.49 224.2"/><polygon class="cls-18" points="112.83 247.03 125.66 244.03 120.28 251.36 112.83 247.03"/><polygon class="cls-18" points="103.47 236.32 110.84 232.41 111.51 234.83 103.47 236.32"/><polygon class="cls-18" points="122.11 230.04 122.11 232.72 129.04 231.53 122.11 230.04"/><circle class="cls-20" cx="110.66" cy="240.2" r="3.33"/><circle class="cls-20" cx="127.01" cy="238.01" r="3.32"/><circle class="cls-23" cx="127.43" cy="235.57" r="1"/><polyline class="cls-26" points="129.91 247.74 128.33 251.2 114.08 254.78 110.66 252.11"/><circle class="cls-23" cx="111.08" cy="237.76" r="1"/><polygon class="cls-27" points="113.99 258.53 120.24 254.78 127.16 256.2 132.49 254.2 134.7 257.74 113.99 258.53"/></svg>



