<svg id="illustration" xmlns="http://www.w3.org/2000/svg" viewBox="0 0 400 400"><defs><style>.cls-1,.cls-2{fill:#2b2b2b;}.cls-1{opacity:0.1;}.cls-3{fill:#474747;}.cls-4{fill:#856400;}.cls-5{fill:#755800;}.cls-6{fill:#e5c828;}.cls-7{fill:#ccad14;}.cls-8{fill:#c3987b;}.cls-9{fill:#9e7700;}.cls-10{fill:#dfbda5;}.cls-11{fill:#8b6651;}.cls-12{fill:#6f7173;}.cls-13{fill:#4f5253;}.cls-14{fill:#e8cab6;}.cls-15{fill:#fff;}.cls-16{fill:#b58b00;}.cls-17{fill:#9da1a2;}</style></defs><title>Entertainer (ESFP) personality</title><polygon class="cls-1" points="111.02 382.33 206.92 369.52 305.62 382.26 210.16 400.11 111.02 382.33"/><polygon class="cls-2" points="217.57 380.69 208.07 387.03 208.14 391.56 241.02 391.56 240.93 387.38 217.57 380.69"/><polygon class="cls-3" points="240.93 387.38 208.07 387.03 217.71 370.91 229.67 358.29 238.42 373.58 240.93 387.38"/><polygon class="cls-2" points="177.94 373.84 152.23 380.75 152.23 385.14 198.21 385.57 197.88 380.96 177.94 373.84"/><polygon class="cls-4" points="148.75 175.43 170.99 158.5 175.53 166.49 179.13 176.79 161.56 180.17 148.75 175.43"/><polygon class="cls-5" points="140.97 224.31 153 202.06 158.97 177.94 148.75 175.43 132.72 185.28 120.89 215.31 140.97 224.31"/><polygon class="cls-6" points="221.82 280.68 174.66 278.8 147.59 268.37 163.58 211.35 179.06 176.72 194.18 184.85 209.08 179.81 212.25 177.94 215.92 177.51 221.24 222.87 221.82 280.68"/><polygon class="cls-7" points="160.27 222.72 163.58 211.35 164.3 209.76 169.63 204.51 217 209.19 220.67 218.54 221.24 222.87 220.96 231.22 226.93 248.42 158.11 237.77 160.27 222.72"/><polygon class="cls-8" points="223.84 60.16 251.84 70.74 237.66 130.71 201.47 156.26 207.86 129.34 222.47 68.44 222.76 67.79 223.84 60.16"/><polygon class="cls-9" points="249.31 226.47 263.98 211.21 259.04 182.33 234.64 170.81 239.24 199.54 249.31 226.47"/><polygon class="cls-8" points="204.97 130.64 237.66 130.71 236 135.03 220.02 176.36 217.79 177.08 211.74 179.16 198.21 153.78 204.97 130.64"/><polygon class="cls-10" points="190.36 59.08 160.55 54.97 152.56 67.86 147.02 88.81 130.17 132.22 206.8 149.35 222.76 67.79 222.83 67.36 190.36 59.08"/><polygon class="cls-8" points="171.21 95.15 167.03 79.88 157.96 70.81 168.69 71.68 174.52 74.84 178.77 76.28 184.67 77.65 191.22 78.59 199.72 77.65 207.86 82.19 195.9 84.78 179.99 97.45 171.21 95.15"/><polygon class="cls-11" points="179.06 176.72 156.46 138.39 220.05 150.34 211.74 179.16 193.53 185.28 179.06 176.72"/><polygon class="cls-11" points="238.38 127.76 237.66 130.71 224.05 117.75 236.29 114.23 238.38 127.76"/><polygon class="cls-3" points="146.3 0.11 147.02 88.81 160.55 54.97 157.53 35.39 146.3 0.11"/><polygon class="cls-3" points="231.18 103.14 237.66 130.71 263.58 63.9 248.82 78.95 231.18 103.14"/><polygon class="cls-2" points="231.18 103.14 263.58 63.9 255.8 63.25 237.52 65.34 222.76 67.79 227.65 92.92 231.18 103.14"/><polygon class="cls-3" points="263.58 63.9 233.7 28.91 226.57 44.53 222.76 67.79 263.58 63.9"/><polygon class="cls-12" points="160.55 54.97 195.98 62.32 173.66 30.86 146.3 0.11 160.55 54.97"/><polygon class="cls-13" points="195.98 62.32 222.76 67.79 233.7 28.91 146.3 0.11 195.98 62.32"/><polygon class="cls-10" points="227.65 92.92 245 95.8 239.32 119.7 224.05 117.75 227.65 92.92"/><polygon class="cls-11" points="237.8 99.11 230.1 98.46 229.31 106.09 237.8 99.11"/><polygon class="cls-14" points="178.77 76.28 170.06 96.01 179.99 97.45 184.67 77.65 178.77 76.28"/><polygon class="cls-11" points="173.59 102.78 170.06 96.01 179.99 97.45 173.59 102.78"/><polygon class="cls-2" points="157.6 70.74 168.4 66.57 174.52 74.84 157.6 70.74"/><polygon class="cls-2" points="191.22 78.59 201.81 74.12 210.16 84.13 191.22 78.59"/><polygon class="cls-8" points="161.13 109.69 204.62 108.18 191.01 132.51 167.83 131.36 161.13 109.69"/><polygon class="cls-15" points="163.29 110.84 197.06 111.06 189.71 129.34 169.19 128.84 163.29 110.84"/><polygon class="cls-16" points="119.88 279.09 158.97 177.94 179.13 176.79 147.59 268.37 119.88 279.09"/><polygon class="cls-10" points="249.31 226.47 278.43 232.39 284.39 198.89 276.88 189.18 259.04 182.33 249.31 226.47"/><polygon class="cls-8" points="278.43 232.39 315.23 183.7 314.61 166.09 302.36 174.78 276.88 189.18 278.43 232.39"/><polygon class="cls-11" points="312.96 146.79 327.76 170.41 315.23 183.7 302.36 174.78 306.49 161.01 302.01 156.74 312.96 146.79"/><polygon class="cls-17" points="297.66 135.19 342.69 167.89 336.19 175.43 302.01 156.74 288.53 149.16 297.66 135.19"/><polygon class="cls-12" points="294.08 123 302.67 135.22 296.65 147.13 291.17 153.78 278.43 152.65 267.39 138 278.17 120.69 294.08 123"/><polygon class="cls-13" points="294.08 123 302.67 135.22 296.65 147.13 291.17 153.78 278.43 152.65 294.08 123"/><polygon class="cls-2" points="303.72 133.57 309.18 137.34 295.45 159.14 290.1 155.66 303.72 133.57"/><polygon class="cls-8" points="89.47 176.79 117.4 193.82 117.4 218.29 111.02 237.24 76.09 186.52 81.7 178.2 89.47 176.79"/><polygon class="cls-3" points="152.23 380.75 197.88 380.96 197.13 368.87 188.2 347.34 175.31 367.51 152.23 380.75"/><path class="cls-4" d="M164.62,328l-17-59.67L203,287.8l-3.31,45.29-20,7.12Z"/><path class="cls-5" d="M175.31,367.51,164.62,328l35.1,5-2.59,35.78Z"/><polygon class="cls-9" points="205.7 333.31 192.95 295 178.48 280.32 222.25 280.68 222.04 297.16 234.64 284.35 246.66 276.43 242.2 330.57 224.56 348.35 205.7 333.31"/><polygon class="cls-5" points="217.71 370.91 205.7 333.31 242.2 330.57 238.42 373.58 217.71 370.91"/><polygon class="cls-5" points="147.59 268.29 195.84 303.69 221.03 280.68 147.59 268.29"/><polygon class="cls-8" points="314.02 141.84 304.61 158.19 327.51 170.68 336.84 158.21 314.02 141.84"/><polygon class="cls-10" points="315.02 152.25 302.04 156.74 302.36 174.78 318.07 158.08 315.02 152.25"/><polygon class="cls-16" points="222.04 299.32 259.83 264.62 234.64 170.81 215.92 177.51 222.04 299.32"/><polygon class="cls-4" points="239.1 187.3 215.92 177.51 226.57 159.51 234.64 170.81 239.1 187.3"/><polygon class="cls-10" points="140.97 224.31 132.72 185.28 117.4 193.82 111.02 237.24 140.97 224.31"/><path class="cls-2" d="M195.26,84.56a4.38,4.38,0,0,0-4.32,4.32,4.32,4.32,0,1,0,4.32-4.32Z"/><path class="cls-2" d="M167.83,78.66a4.32,4.32,0,0,0,0,8.64,4.32,4.32,0,1,0,0-8.64Z"/><polygon class="cls-11" points="61.45 170.94 69.78 160.55 84.38 155.37 89.47 176.79 76.09 186.52 61.45 170.94"/><polygon class="cls-8" points="66.85 139.75 84.38 155.37 61.45 170.94 56.48 151.37 66.85 139.75"/><polygon class="cls-10" points="84.38 151.37 79.69 170.98 82.67 181.73 89.47 176.79 90.89 151.37 84.38 151.37"/></svg>



