<svg id="illustration" xmlns="http://www.w3.org/2000/svg" xmlns:xlink="http://www.w3.org/1999/xlink" viewBox="0 0 400 400"><defs><style>.cls-1{fill:none;}.cls-2{fill:#165e60;}.cls-3{fill:#ececeb;}.cls-4{fill:#c3987b;}.cls-5{fill:#1c7678;}.cls-6{fill:#27788c;}.cls-7{fill:#3aa0ba;}.cls-8{fill:#318fa6;}.cls-9{fill:#5ec0d9;}.cls-10{fill:#dfbda5;}.cls-11,.cls-14{fill:#8b6651;}.cls-12,.cls-26{fill:#6f7173;}.cls-12,.cls-13,.cls-14,.cls-15{fill-rule:evenodd;}.cls-13,.cls-18,.cls-20{fill:#2b2b2b;}.cls-15,.cls-19,.cls-25{fill:#474747;}.cls-16{fill:#e8cab6;}.cls-17{fill:#4f5253;}.cls-20{opacity:0.1;}.cls-21{fill:#cececd;}.cls-22{fill:#369496;}.cls-23{clip-path:url(#clip-path);}.cls-24{fill:#50a9aa;}.cls-25{opacity:0.2;}</style><clipPath id="clip-path"><polygon class="cls-1" points="200.54 182.16 209.67 241.03 195.3 260.11 182.32 244.59 186.65 183.05 200.54 182.16"/></clipPath></defs><title>Executive (ESTJ) personality</title><polyline class="cls-2" points="272.51 203.44 258 143.21 265.92 133.84 280.51 137.04 305.28 175.3 296.67 192.06 272.51 203.44"/><polygon class="cls-3" points="275.2 125.27 280.51 137.04 258 143.21 253.85 132.84 262.8 118.55 275.2 125.27"/><polygon class="cls-4" points="277.39 112.67 275.2 125.27 260.47 130.15 254.13 99.74 277.39 112.67"/><polygon class="cls-4" points="247.04 108.2 245.84 121.37 253.85 132.84 260.47 130.15 259.42 113.1 247.04 108.2"/><polygon class="cls-5" points="262.97 163.26 238.15 158.43 230.06 189.99 245.68 213.43 272.51 203.44 262.97 163.26"/><polyline class="cls-4" points="260.5 130.03 254.16 99.62 277.42 112.55"/><polyline class="cls-4" points="260.5 130.03 259.45 112.98 247.07 108.08 245.87 121.24 253.88 132.71"/><polyline class="cls-6" points="236.59 93.55 242.94 101.83 259.82 98.7 259.99 81.27 242.31 63.01"/><polygon class="cls-7" points="242.79 69.43 238.29 88.52 242.36 93.38 252.95 81.33 242.79 69.43"/><polyline class="cls-4" points="260.34 129.92 254 99.51 277.26 112.44"/><polyline class="cls-8" points="277.26 112.44 259.99 81.27 242.94 101.83 246.91 107.97 260.34 129.92"/><polyline class="cls-9" points="267.27 107.88 267.02 104.47 264.27 106.82 267.52 109.9"/><polyline class="cls-9" points="265.8 111.47 262.89 108 260.14 110.36 262.99 114.47"/><polyline class="cls-9" points="261.62 115.64 258.76 111.53 256.64 113.94 259.45 118.7"/><polygon class="cls-9" points="256.44 108.76 253.58 104.65 251.46 107.06 254.32 111.17 256.44 108.76"/><polygon class="cls-9" points="257.58 107.18 259.93 105.17 257.07 101.06 254.95 103.47 257.58 107.18"/><polygon class="cls-9" points="261.94 104.05 264.69 101.69 261.2 97.52 258.45 99.88 261.94 104.05"/><polygon class="cls-9" points="251.88 101.92 249.03 97.81 246.91 100.22 249.77 104.33 251.88 101.92"/><polygon class="cls-9" points="253.26 100.74 255.38 98.33 252.52 94.22 250.4 96.63 253.26 100.74"/><polygon class="cls-9" points="253.95 92.4 257.44 96.57 260.19 94.21 256.7 90.04 253.9 93.04 253.95 92.4"/><polyline class="cls-10" points="277.26 112.44 258.39 108.28 250.66 99.16 262.34 85.2 277.26 112.44"/><polyline class="cls-10" points="174.82 155.32 216.81 136.47 240.88 136.9 245.88 63.39 237.23 42.95 172.15 29.32 161.34 35.52 151.08 45.07 139.94 102.95 167.93 136.42 174.82 155.32"/><polyline class="cls-11" points="200.25 163.35 217.08 136.43 172.31 135.66 178.1 157.94"/><polyline class="cls-4" points="162.39 138.97 149.93 115.22 146.57 110.06 139.32 103.01 136.58 81.54 151.08 45.07 161.34 35.52 164.13 29.79 172.31 135.66 178.1 157.94"/><polygon class="cls-11" points="148.76 98.27 147.37 85.97 140.68 86.32 148.76 98.27"/><polygon class="cls-12" points="240.37 16 237.74 20.56 187.46 19.99 167.17 10.5 189.94 0.11 240.37 16"/><polygon class="cls-13" points="245.88 63.39 242.73 110.45 260.44 68.19 253.43 50.81 241.06 43.56 245.88 63.39"/><polygon class="cls-14" points="245.11 56.89 245.88 63.39 206.14 51.35 188.87 37.19 193.69 32.86 225.5 19.49 234.06 38.45 245.11 56.89"/><polygon class="cls-13" points="166.44 64.93 149.93 115.22 137.59 105.27 155.57 72.65 161.07 54.48 165.89 51.21 166.44 64.93"/><polygon class="cls-13" points="235.95 28.81 235.55 42.81 243.95 46.97 260.44 68.19 259.15 37.15 239.8 28.94 235.95 28.81"/><polygon class="cls-15" points="165.46 13.6 149.65 11.92 141.98 41.52 137.59 105.27 171.9 46.7 188.87 37.19 165.46 13.6"/><polygon class="cls-13" points="184.68 19.24 167.17 10.5 149.65 11.92 188.87 37.19 184.68 19.24"/><polygon class="cls-15" points="240.37 16 243.95 46.97 239.38 50.77 209.61 43.04 188.87 37.19 167.17 10.5 240.37 16"/><polygon class="cls-12" points="243.95 46.97 243.95 46.97 245.11 56.89 223.51 53.81 188.87 37.19 243.95 46.97"/><polygon class="cls-12" points="137.59 105.27 171.68 30.84 188.87 37.19 137.59 105.27"/><polygon class="cls-13" points="137.59 105.27 149.65 11.92 121.18 63.58 137.59 105.27"/><polygon class="cls-11" points="149.93 115.22 158.87 107.53 152.61 104.31 146.36 107 149.93 115.22"/><polygon class="cls-16" points="158.87 107.53 146.36 107 138.67 88.65 153.02 84.86 158.87 107.53"/><polygon class="cls-11" points="152.61 100.74 150.11 90.91 144.93 91.8 152.61 100.74"/><polygon class="cls-11" points="216.52 102.94 210.12 100.94 203.72 103.34 210.73 107.31 216.52 102.94"/><polygon class="cls-4" points="215.72 75.73 214.94 80.1 212.32 93.94 216.52 102.94 225.32 85.75 240.91 73.93 233.92 70.54 215.72 75.73"/><polygon class="cls-4" points="203.51 75.53 204.49 79.9 208.12 93.94 203.72 103.34 194.12 85.75 176.53 73.53 187.32 71.33 203.51 75.53"/><polygon class="cls-16" points="214.94 80.1 216.52 102.94 203.72 103.34 204.49 79.9 214.94 80.1"/><polygon class="cls-17" points="234.72 69.54 240.91 73.93 233.51 72.75 215.72 75.73 217.12 70.73 234.72 69.54"/><polygon class="cls-17" points="201.51 71.13 203.51 75.53 185.13 72.94 176.53 73.53 186.32 69.54 201.51 71.13"/><path class="cls-18" d="M226.32,79.35a4,4,0,1,0,4,4A4,4,0,0,0,226.32,79.35Z"/><path class="cls-18" d="M193.72,79.35a4,4,0,1,0,4,4A4,4,0,0,0,193.72,79.35Z"/><polygon class="cls-11" points="195.34 118.72 207.74 114.79 214 114.43 222.72 117.62 220.51 118.72 194.97 119.83 195.34 118.72"/><polygon class="cls-4" points="194.97 119.83 202.95 125.97 216.71 124.54 222.72 117.62 194.97 119.83"/><polygon class="cls-5" points="135.58 162.12 112.56 190.56 109.39 197.62 109.96 218.43 126.24 232.49 144.19 217.76 135.58 162.12"/><polygon class="cls-17" points="237.44 321.48 245.51 265.45 194.06 268.8 187.78 275.25 192.54 294.54 198.14 327.82 216.76 344.02 237.44 321.48"/><polygon class="cls-17" points="187.96 328.61 192.54 294.54 203.05 273.11 156.43 268.12 141.82 272.32 148.89 319.11 171.52 347.33 187.96 328.61"/><polygon class="cls-19" points="141.82 272.32 192.54 294.54 245.14 268.74 241.1 260.16 154.03 259.91 141.82 272.32"/><polyline class="cls-20" points="119.26 387.73 196.33 400.11 270.33 387.5 194.76 376.73 119.26 387.73"/><polygon class="cls-5" points="156.54 369.38 151.37 388.79 185.19 388.25 182.23 371.55 169.99 365.21 156.54 369.38"/><polygon class="cls-5" points="205.2 373.45 205.38 385.03 228.48 386.02 253.57 384.27 231.71 364.13 217.68 362.04 205.2 373.45"/><polygon class="cls-21" points="217.72 152.22 191.65 159.13 161.02 154.18 177.63 246.51 141.16 261.67 245.14 268.74 237.97 237.6 217.72 152.22"/><polygon class="cls-3" points="217.72 152.22 212.49 143.93 191.65 159.13 204 175.69 217.72 152.22"/><polygon class="cls-5" points="200.54 182.16 204 175.69 191.65 159.13 183 177.29 186.65 183.19 200.54 182.16"/><polygon class="cls-22" points="200.54 182.16 204 175.69 188.78 165.14 185.82 171.36 200.54 182.16"/><polygon class="cls-3" points="161.02 154.18 183 177.29 191.65 159.13 162.52 139.2 161.02 154.18"/><polygon class="cls-2" points="200.54 182.16 209.67 241.03 195.3 260.11 182.32 244.59 186.65 183.19 200.54 182.16"/><g class="cls-23"><polygon class="cls-5" points="203.67 191.85 184.42 209.6 183.97 196.83 201.5 181.41 203.67 191.85"/><polygon class="cls-5" points="182.79 233.9 183.38 220.47 205.14 200.29 206.3 210.76 182.79 233.9"/><polygon class="cls-5" points="187.89 251.25 182.44 244.72 207.6 222.42 208.68 232.11 187.89 251.25"/></g><polygon class="cls-2" points="161.02 154.18 163.15 188.1 177.71 217.34 180.78 246.78 184.82 286.15 137.37 292.71 143.38 233.81 140.65 221.8 135.58 162.12 161.02 154.18"/><polygon class="cls-5" points="151.06 188.92 177.71 217.34 161.02 154.18 146.96 170.96 154.7 176.63 151.06 188.92"/><polygon class="cls-19" points="231.71 364.13 237.44 321.48 198.14 327.82 205.2 373.45 231.71 364.13"/><polygon class="cls-19" points="182.23 371.55 187.96 328.61 148.89 319.11 156.53 369.17 182.23 371.55"/><polygon class="cls-2" points="238.15 158.43 217.72 152.22 223.9 185.04 212.29 218.06 214.35 285.4 251.7 289.94 239.59 242.49 245.68 213.43 238.15 158.43"/><polygon class="cls-5" points="235.49 193.24 212.29 218.06 217.72 152.22 235.2 173.93 228.28 179.83 235.49 193.24"/><rect class="cls-18" x="205.41" y="384.65" width="48.2" height="4.44" transform="matrix(1, -0.02, 0.02, 1, -6.08, 3.67)"/><polygon class="cls-10" points="142.55 264.1 122.55 258.95 128.32 245.23 138.99 239.3 143.38 233.81 147.53 255.21 142.55 264.1"/><polygon class="cls-2" points="112.56 190.56 90.68 218.26 122.55 258.95 139.35 238.95 112.56 190.56"/><polygon class="cls-4" points="156.35 264.67 142.55 264.1 143.38 233.81 159.1 248.75 156.35 264.67"/><polygon class="cls-24" points="168.16 181.16 194.66 215.24 215.36 180.66 212.29 218.06 213.59 266.72 182.3 264.45 177.71 217.34 168.16 181.16"/><rect class="cls-18" x="151.4" y="388.52" width="33.83" height="4.69" transform="translate(-6.25 2.75) rotate(-0.92)"/><polygon class="cls-17" points="153.02 84.86 156.89 79.58 170.05 74.46 170.54 80.87 153.02 84.86"/><path class="cls-25" d="M169.8,76.46l.49,6.41,3.8,14.68,29.6,0,2.56-18,7.47-.15L216.2,97l25.8-.32,2.27-14.46.92-5.47Zm31,18.5h-23.7l-3.47-15.32,29.4-.23Zm38.55-1-22.54.9-1.28-15.22H242Z"/><path class="cls-26" d="M170.05,74.46l.49,6.41,3.8,14.68,29.63,0,2.53-18,6.27-.08L216,95.34l26.25-.67,2.27-14.45.68-5.47Zm31.61,18.45-24.3,0-3.47-15.32,29.41-.23Zm38-.93-21.37.75-2.45-15.07h26.5Z"/><polygon class="cls-17" points="245.2 74.75 244.43 80.58 244.74 81.06 245.2 74.75"/><polygon class="cls-17" points="137.59 105.27 144.98 123.11 156.9 128.53 149.93 115.22 137.59 105.27"/></svg>



