<svg id="illustration" xmlns="http://www.w3.org/2000/svg" xmlns:xlink="http://www.w3.org/1999/xlink" viewBox="0 0 400 400"><defs><style>.cls-1{fill:none;clip-rule:evenodd;}.cls-2,.cls-30,.cls-34{fill:#2b2b2b;}.cls-2,.cls-34{opacity:0.1;}.cls-3,.cls-9{fill:#dfbda5;}.cls-4{fill:#8f8f8f;}.cls-18,.cls-5{fill:#3f8f6f;}.cls-29,.cls-6{fill:#737373;}.cls-24,.cls-7{fill:#a0cf7e;}.cls-11,.cls-14,.cls-15,.cls-16,.cls-17,.cls-18,.cls-29,.cls-30,.cls-31,.cls-34,.cls-7,.cls-8,.cls-9{fill-rule:evenodd;}.cls-23,.cls-8{fill:#99c26d;}.cls-10,.cls-11{fill:#c3987b;}.cls-12{clip-path:url(#clip-path);}.cls-13{fill:#bfdb8e;}.cls-14{fill:#8b6651;}.cls-15,.cls-21{fill:#738d57;}.cls-16,.cls-22{fill:#709d53;}.cls-17,.cls-19{fill:#446125;}.cls-20{fill:#5a753d;}.cls-25{fill:#9da1a2;}.cls-26{fill:#c4c4c4;}.cls-27{fill:#72c9a6;}.cls-28{fill:#54b08b;}.cls-31,.cls-35{fill:#e8cab6;}.cls-32{fill:#dddddc;}.cls-33{fill:#a3a3a3;}</style><clipPath id="clip-path"><polygon class="cls-1" points="166.74 243.54 278.43 176.27 265.78 309.61 236.91 326.14 168.34 331.62 175.49 282.91 162.35 280.27 166.74 243.54"/></clipPath></defs><title>Advocate (INFJ) personality</title><polygon class="cls-2" points="280.41 390.83 212.5 369.75 145.33 391 214.25 400.01 280.41 390.83"/><polygon class="cls-3" points="159.47 227.22 213.01 289.29 269.9 242.28 159.47 227.22"/><polygon class="cls-4" points="272.55 96.91 255.83 74.85 251.71 125.2 267.09 148.17 272.55 96.91"/><polygon class="cls-5" points="159.47 227.22 213.01 289.29 209 368.93 187.58 364.92 159.47 227.22"/><polygon class="cls-5" points="217.03 368.93 237.78 364.92 269.9 242.28 213.01 289.29 217.03 368.93"/><polygon class="cls-6" points="267.09 148.17 228.93 130.31 252.35 114.08 267.09 148.17"/><polygon class="cls-7" points="185.41 142.06 151.64 156.25 159.47 215.92 175.27 233.58 206.21 245.86 248.3 243.41 270.06 238.09 280.88 233.44 267.92 155.85 232.63 141.92 207.92 168.85 185.41 142.06"/><polygon class="cls-8" points="166.74 243.54 274.92 205.13 265.78 309.61 236.91 326.14 168.34 331.62 175.49 282.91 162.35 280.27 166.74 243.54"/><polygon class="cls-9" points="266.52 28.45 238.67 16.01 165.04 19.14 156.14 49.36 155 79.47 155.75 106.07 207.92 168.85 240.16 133.31 268.14 132.35 266.52 28.45"/><polygon class="cls-10" points="160.31 236.92 159.47 215.92 134.71 196.18 132.7 199.95 160.31 236.92"/><polygon class="cls-11" points="165.04 19.14 178.84 30.22 191.48 134.63 208.37 169.55 163.94 118.47 162.3 110.49 155.75 106.07 165.04 19.14"/><polygon class="cls-9" points="155.75 106.07 155.04 81.73 169.01 82.21 168.06 104.72 155.75 106.07"/><g class="cls-12"><rect class="cls-13" x="163.74" y="191.83" width="5.02" height="142.51"/><rect class="cls-13" x="173.78" y="191.83" width="5.02" height="142.51"/><rect class="cls-13" x="183.82" y="191.83" width="5.02" height="142.51"/><rect class="cls-13" x="193.86" y="191.83" width="5.02" height="142.51"/><rect class="cls-13" x="203.89" y="191.83" width="5.02" height="142.51"/><rect class="cls-13" x="213.93" y="191.83" width="5.02" height="142.51"/><rect class="cls-13" x="223.97" y="191.83" width="5.02" height="142.51"/><rect class="cls-13" x="234.01" y="191.83" width="5.02" height="142.51"/><rect class="cls-13" x="244.05" y="191.83" width="5.02" height="142.51"/><rect class="cls-13" x="254.09" y="191.83" width="5.02" height="142.51"/><rect class="cls-13" x="264.13" y="191.83" width="5.02" height="142.51"/></g><polygon class="cls-14" points="240.16 133.31 208.37 169.55 191.48 134.63 240.16 133.31"/><polygon class="cls-14" points="155.75 106.07 168.06 104.72 163.94 118.47 155.75 106.07"/><polygon class="cls-8" points="151.64 156.25 134.71 196.18 159.47 215.92 151.64 156.25"/><polygon class="cls-3" points="125.19 182.44 160.1 233.12 127.35 233.74 110.24 197.56 113.81 184.32 125.19 182.44"/><polygon class="cls-14" points="165.31 100.65 164.66 89.45 157.54 88.29 165.31 100.65"/><polygon class="cls-8" points="268.26 154.06 302.36 223.19 272.04 237.54 268.26 154.06"/><polygon class="cls-15" points="170.49 327.24 280.27 168.16 287.63 183.88 170.49 327.24"/><polygon class="cls-16" points="232.63 141.92 286.89 158.47 168.34 331.62 156.56 246.99 159.47 215.92 160.71 204.24 232.63 141.92"/><polygon class="cls-17" points="168.34 331.62 286.89 158.47 273.16 156.44 273.16 171 259.86 176.02 260.86 186.56 251.58 197.35 252.58 205.13 239.03 208.65 237.27 223.45 224.97 229.98 224.47 244.28 211.17 250.31 209.92 264.86 199.38 266.37 195.11 284.19 185.07 284.44 184.82 297.24 177.29 300.5 178.04 310.54 169.26 314.3 169.26 323.84 167.34 324.43 168.34 331.62"/><polygon class="cls-9" points="278.43 202.87 302.36 223.19 271.38 239.38 264.56 223.2 278.43 202.87"/><polygon class="cls-9" points="240.29 170.16 228.1 190.25 242.92 205.6 253.46 193.16 259.66 179.06 240.29 170.16"/><polygon class="cls-11" points="259.66 179.06 271.54 195.75 271.81 209.62 261.57 214.14 242.92 205.6 259.66 179.06"/><polyline class="cls-18" points="271.54 195.75 278.43 202.87 264.56 223.2 261.57 214.14"/><polygon class="cls-10" points="89.34 182.18 110.24 197.56 117.84 190.09 112.15 175.87 89.34 182.18"/><polygon class="cls-3" points="122.75 164.94 113.18 156.55 111.62 183.79 117.84 190.09 125.19 182.44 122.75 164.94"/><polygon class="cls-13" points="129.72 52.74 136.08 72.68 132.44 82.63 131.76 89.23 126.69 108.38 119.74 122.18 115.13 129.29 109.54 142.61 110.52 159.41 121.2 203.78 119.44 205.12 108.67 157.86 106.97 150.46 108.35 141.6 113.83 129.53 120.45 119.37 127.32 103.91 131.29 83.06 130.64 70.45 129.72 52.74"/><polygon class="cls-19" points="110.52 159.41 108.27 150.56 109.54 142.61 131.39 134.44 124.9 145.92 115.46 149.23 111.41 152.1 110.52 159.41"/><polygon class="cls-19" points="108.67 157.86 106.97 150.46 108.35 141.6 100.37 122.97 96.13 138.25 102.21 148.88 108.67 157.86"/><polygon class="cls-20" points="109.54 142.61 135.42 132.69 142.2 113.12 115.13 129.29 109.54 142.61"/><polygon class="cls-20" points="108.35 141.6 113.83 129.53 110.82 116.23 101.62 123.29 108.35 141.6"/><polygon class="cls-21" points="113.83 129.53 109.58 113.78 116.83 99.14 120.45 119.37 113.83 129.53"/><polygon class="cls-21" points="115.13 129.29 122.99 116.78 126.69 108.38 134.34 105.63 143.68 98.1 139.66 113.25 115.13 129.29"/><polygon class="cls-22" points="120.45 119.37 118.51 102.18 122.17 94.8 127.32 103.91 120.45 119.37"/><polygon class="cls-22" points="140.71 88.7 141.21 97.44 119.74 122.18 126.69 108.38 140.71 88.7"/><polygon class="cls-23" points="127.32 103.91 123.39 86.87 126.74 77.76 131.29 83.06 127.32 103.91"/><polygon class="cls-23" points="126.69 108.38 131.76 89.23 132.44 82.63 139.31 76.89 140.74 82.77 126.69 108.38"/><polygon class="cls-24" points="131.29 83.06 131.98 67.41 129.72 52.74 127.41 74.73 131.29 83.06"/><polygon class="cls-24" points="132.44 82.63 138.7 73.54 129.72 52.74 133.42 69.15 132.44 82.63"/><polygon class="cls-25" points="184.74 364.16 164.32 383.99 179.93 390.85 209.02 390.85 208.98 372.58 200.16 362.16 184.74 364.16"/><polygon class="cls-26" points="173.34 375.29 193.77 390.85 161.81 390.85 156.13 375.96 173.34 375.29"/><polygon class="cls-27" points="186.34 358.76 184.74 364.16 200.57 367.37 202.97 367.37 201.97 361.96 186.34 358.76"/><polygon class="cls-28" points="200.57 367.37 201.97 361.96 208.99 366.99 208.98 372.58 200.57 367.37"/><polygon class="cls-25" points="241.25 364.16 261.67 383.99 245.99 390.85 216.96 390.85 217.01 372.58 225.82 362.16 241.25 364.16"/><polygon class="cls-26" points="253.96 376.54 235.93 390.85 265.07 391 270.4 377.13 253.96 376.54"/><polygon class="cls-14" points="241.94 99.61 233.38 104.91 224.91 99.84 241.94 99.61"/><polygon class="cls-11" points="229.74 69.66 225.74 67.86 210.31 64.68 197.29 71.12 215.36 78.84 224.91 99.84 234.7 88.99 229.74 69.66"/><polygon class="cls-14" points="243.36 117.3 226.12 118.48 215.99 114.04 214.48 117.44 223.76 122.45 241.43 120.92 243.36 117.3"/><polygon class="cls-11" points="258.05 71.09 249.48 79.28 240.02 92.64 234.7 88.99 233.96 69.76 236.46 67.9 248.41 64.11 258.05 71.09"/><polygon class="cls-29" points="225.74 67.86 224 62.43 208.93 62.91 196.63 71.29 209.53 67.85 225.74 67.86"/><polygon class="cls-29" points="258.05 71.09 249.94 62 235.65 62.58 236.46 67.9 250.56 67.04 258.05 71.09"/><path class="cls-30" d="M246.79,71.87a4.8,4.8,0,1,0,5.07,4.52,4.8,4.8,0,0,0-5.07-4.52"/><path class="cls-30" d="M215,72.63a4.8,4.8,0,1,0,5.08,4.51A4.79,4.79,0,0,0,215,72.63"/><polygon class="cls-31" points="233.96 69.76 241.94 99.61 224.91 99.84 229.74 69.66 233.96 69.76"/><polygon class="cls-27" points="239.64 358.76 241.25 364.16 225.42 367.37 223.01 367.37 224.01 361.96 239.64 358.76"/><polygon class="cls-28" points="217.02 366.99 217 372.58 225.42 367.37 224.01 361.96 217.02 366.99"/><polygon class="cls-17" points="232.63 141.92 159.66 204.35 159.47 215.92 163.24 214.92 166.75 207.39 176.29 205.38 179.05 196.35 190.34 194.34 192.6 185.81 199.38 185.06 205.4 174.26 214.44 174.01 215.69 166.48 228.24 162.47 227.99 154.94 236.27 151.43 235.42 142.77 232.63 141.92"/><polygon class="cls-32" points="207.14 37.86 272.55 96.91 206.7 21.43 207.14 37.86"/><polygon class="cls-26" points="206.7 21.43 208.96 9.52 272.55 96.91 206.7 21.43"/><polygon class="cls-33" points="208.96 9.52 218.84 0.7 272.55 96.91 208.96 9.52"/><polygon class="cls-26" points="218.84 0.7 234.16 0 272.55 96.91 218.84 0.7"/><polygon class="cls-32" points="234.16 0 258.18 8.9 281.42 113.84 272.55 96.91 234.16 0"/><polygon class="cls-26" points="258.18 8.9 284.56 42.91 281.42 113.84 258.18 8.9"/><polygon class="cls-33" points="284.56 42.91 289.66 116.22 281.01 139.53 281.42 113.84 284.56 42.91"/><polygon class="cls-26" points="267.09 148.17 281.01 139.53 281.42 113.84 272.55 96.91 267.09 148.17"/><polygon class="cls-26" points="207.14 37.86 169.01 82.21 206.7 21.43 207.14 37.86"/><polygon class="cls-33" points="208.96 9.52 155.04 81.73 206.7 21.43 208.96 9.52"/><polygon class="cls-32" points="169.01 82.21 206.7 21.43 155.04 81.73 169.01 82.21"/><polygon class="cls-26" points="208.96 9.52 218.84 0.7 165.04 19.14 208.96 9.52"/><polygon class="cls-26" points="208.96 9.52 155.04 81.73 157.13 137.07 147.85 99.24 149.39 55.95 208.96 9.52"/><polygon class="cls-33" points="155.04 81.73 149.39 55.95 147.85 99.24 157.13 137.07 155.04 81.73"/><polygon class="cls-32" points="149.39 55.95 165.04 19.14 208.96 9.52 149.39 55.95"/><polygon class="cls-26" points="155.75 106.07 157.13 137.07 170.02 145.23 155.75 106.07"/><polygon class="cls-25" points="155.75 106.07 170.02 145.23 184.34 150.38 181.31 138.38 155.75 106.07"/><polygon class="cls-4" points="184.34 150.38 187.96 146.16 181.31 138.38 184.34 150.38"/><polygon class="cls-34" points="207.14 37.86 204.35 40.93 267.83 115.18 267.55 92.37 207.14 37.86"/><polygon class="cls-18" points="125.19 182.44 110.24 197.56 114.36 206.32 129.7 188.94 125.19 182.44"/><polygon class="cls-23" points="119.44 205.12 121.2 203.78 112.54 168.49 112.15 175.87 119.44 205.12"/><polygon class="cls-35" points="111.62 183.79 89.34 182.18 99.51 154.63 113.18 156.55 118.17 166.31 111.62 183.79"/></svg>



