<svg id="illustration" xmlns="http://www.w3.org/2000/svg" viewBox="0 0 400 400"><defs><style>.cls-1{fill:#35785d;}.cls-16,.cls-2,.cls-29{fill:#2b2b2b;}.cls-2{fill-opacity:0.1;}.cls-24,.cls-3{fill:#dfbda5;}.cls-27,.cls-4{fill:#c3987b;}.cls-22,.cls-5{fill:#5a753d;}.cls-6{fill:#709d53;}.cls-7{fill:#3f8f6f;}.cls-8{fill:#72c9a6;}.cls-9{fill:#54b08b;}.cls-10{fill:#e8f078;}.cls-11{fill:#737373;}.cls-12,.cls-26{fill:#8b6651;}.cls-13{fill:#6f7173;}.cls-14{fill:#858686;}.cls-15{fill:#474747;}.cls-17{fill:#dddddc;}.cls-18{fill:#4f5253;}.cls-19{fill:#c4c4c4;}.cls-20{fill:#a3a3a3;}.cls-21,.cls-23{fill:#446125;}.cls-22,.cls-23,.cls-24,.cls-25,.cls-26,.cls-27,.cls-28,.cls-29{fill-rule:evenodd;}.cls-25{fill:#738d57;}.cls-28{fill:#e8cab6;}</style></defs><title>Mediator (INFP) personality</title><polygon class="cls-1" points="173.71 332.31 178.71 338.98 188.73 339.59 218.79 337.15 183.92 322.23 173.71 332.31"/><polygon class="cls-2" points="166.66 400 256.6 383 166.66 376.81 83.5 390.75 166.66 400"/><polygon class="cls-3" points="214.96 362.21 234.86 379.05 221.59 385.17 194.55 385.17 197.1 369.18 204.42 360.51 214.96 362.21"/><polygon class="cls-4" points="214.11 335.51 214.96 362.21 197.1 369.18 183.33 320.55 201.19 318.51 214.11 335.51"/><polygon class="cls-4" points="240.98 371.39 221.59 385.17 237.75 385 240.98 371.39"/><polygon class="cls-4" points="107.69 274 96.92 253.34 93.14 261.1 95.81 270.09 102.79 277.26 107.69 274"/><polygon class="cls-4" points="94.15 291.81 83.86 292.56 72.71 278.05 88.08 270.17 95.86 275.88 94.15 291.81"/><polygon class="cls-3" points="78.91 254.81 72.71 278.05 95.86 275.88 96.92 253.34 85.95 250.88 78.91 254.81"/><polygon class="cls-3" points="108.73 219.74 98.13 245.6 88.52 250.21 78.17 245.81 84.17 221.68 108.73 219.74"/><polygon class="cls-5" points="100.06 245.21 84.64 245.37 81.46 251.08 84.75 255.92 98.54 254.96 100.06 245.21"/><polygon class="cls-6" points="84.64 245.37 84.75 255.92 75.84 256.82 74.91 245.47 84.64 245.37"/><polygon class="cls-4" points="108.73 219.74 112.06 209.43 89.57 201.56 84.17 221.68 108.73 219.74"/><polygon class="cls-7" points="204.84 223.3 187.46 199.15 186.62 178.06 194.95 155.95 228.55 204.13 221.64 208.33 204.84 223.3"/><polygon class="cls-3" points="235.54 227.91 204.84 223.3 239.56 180.28 251.63 181.13 252.14 192.86 235.54 227.91"/><polygon class="cls-1" points="116.29 251.65 209.04 256.02 207.38 271.98 164.46 286.31 117.18 267.07 116.29 251.65"/><polygon class="cls-4" points="264.05 158.5 254.03 165.95 247.21 183.68 252.14 192.86 270.34 186.23 272.04 167.35 264.05 158.5"/><polygon class="cls-7" points="164.46 286.31 173.71 332.31 218.79 337.15 212.79 283.15 203.54 278.81 196.38 275.81 164.46 286.31"/><polygon class="cls-3" points="285.55 156.18 264.05 158.5 270.34 186.23 285.79 178.4 285.55 156.18"/><polygon class="cls-3" points="241.26 176.53 245.51 182.32 249.76 184.7 257.07 177.9 259.62 150.34 254.52 148.81 241.26 176.53"/><polygon class="cls-5" points="244.88 190.99 250.92 202.62 258.65 197.02 249.93 184.7 247.04 184.87 244.88 190.99"/><polygon class="cls-6" points="240.36 175.8 235.56 182.55 244.88 190.99 249.93 184.7 240.36 175.8"/><polygon class="cls-3" points="175.17 144.2 178.32 145.84 180.27 148.28 183.67 149.13 194.89 155.93 190.3 178.72 170.75 197.26 120.24 168.01 108.84 149.47 127.16 141.35 130.78 142.16 131.93 139.14 135.71 136.89 175.17 144.2"/><polygon class="cls-1" points="158.71 336.31 166.04 325.65 153.4 323.44 148.98 334.32 158.71 336.31"/><polygon class="cls-4" points="115.65 380.92 108.84 377.01 100.17 390.95 122.45 390.95 115.65 380.92"/><polygon class="cls-3" points="110.2 348.94 121.94 347.76 122.96 359.66 115.65 380.92 100.17 390.95 97.79 353.2 110.2 348.94"/><polyline class="cls-2" points="169.22 167.67 170.91 208.99 167.34 211.71 109.93 192.66 108.84 149.47"/><polygon class="cls-4" points="117.01 332.11 110.2 348.94 122.96 359.66 160.71 324.46 143.53 320.72 117.01 332.11"/><polygon class="cls-7" points="117.18 267.07 164.46 286.31 166.04 325.65 117.01 332.11 117.18 267.07"/><polygon class="cls-8" points="207.12 244.7 212.79 283.15 117.18 267.07 114.47 235.54 146.26 226.68 183.69 239.43 207.12 244.7"/><polygon class="cls-9" points="202.21 205.42 207.12 244.7 167.36 237.9 163.6 225.83 171.09 209.16 195.74 197.26 202.21 205.42"/><polygon class="cls-7" points="109.93 192.66 144.22 192.66 170.91 211.54 170.75 215.28 167.36 237.9 114.47 235.54 109.93 192.66"/><polygon class="cls-8" points="194.89 155.93 202.21 205.42 170.75 212.9 109.93 192.66 108.84 149.47 119.16 144.87 169.22 167.67 187.18 151.21 194.89 155.93"/><polygon class="cls-7" points="182.31 155.76 178.32 145.84 183.67 149.13 186.39 154.74 185.54 158.31 182.31 155.76"/><polygon class="cls-10" points="188.43 160.35 185.54 158.31 183.16 161.37 186.56 163.76 188.43 160.35"/><polygon class="cls-1" points="188.6 165.63 186.56 163.76 184.35 165.97 183.67 185.01 185.71 186.37 187.92 185.35 188.6 165.63"/><polygon class="cls-10" points="188.43 189.6 185.71 186.37 182.14 188.75 185.2 191.81 188.43 189.6"/><polygon class="cls-7" points="186.05 196.07 185.2 191.81 181.63 194.19 173.98 207.8 174.15 211.88 177.89 210.69 186.05 196.07"/><polygon class="cls-10" points="170.91 208.99 174.15 211.88 170.75 215.28 167.34 211.71 170.91 208.99"/><polygon class="cls-7" points="166.32 206.78 167.34 211.71 162.58 209.84 148.13 194.53 147.79 189.77 152.04 191.47 166.32 206.78"/><polygon class="cls-10" points="150.34 184.5 147.79 189.77 143.03 186.71 145.41 182.63 150.34 184.5"/><polygon class="cls-1" points="146.43 178.72 145.41 182.63 141.32 180.93 134.18 162.06 135.54 158.31 138.94 160.18 146.43 178.72"/><polygon class="cls-10" points="137.41 154.06 135.54 158.31 131.46 156.44 133.67 152.36 137.41 154.06"/><polygon class="cls-7" points="131.93 139.14 135.37 148.28 133.67 152.36 130.44 148.96 127.16 141.35 131.93 139.14"/><polygon class="cls-4" points="153.11 38.67 158.83 86.22 156.36 110.17 156.8 130.08 170.75 149.64 171.09 155.93 135.71 136.89 128.57 116.65 124.83 81.28 153.11 38.67"/><polygon class="cls-11" points="178.32 145.84 167.88 184.85 131.93 139.14 135.71 136.89 166.31 175.27 171.09 155.93 170.06 148.79 175.34 144.03 178.32 145.84"/><path class="cls-10" d="M169.92,200.32l-8-4.59-1-6.63,7-4.25,7,3.91,1.36,6.63Zm-.17-3.23-5.1-2.38-.68-4.42,4.08-2.38,4.76,2.38.68,4.08Z"/><polygon class="cls-12" points="178.22 122.61 182.64 127.2 171.09 155.93 151.42 137.36 169.04 127.02 178.22 122.61"/><polygon class="cls-13" points="299.62 143.63 287.95 151.12 318.01 174.84 325.73 177.17 299.62 143.63"/><polygon class="cls-14" points="286.78 151.41 285.1 142.86 325.94 163.37 317.42 163.46 286.78 151.41"/><polygon class="cls-8" points="249.16 109.81 242.62 114.45 253.35 113.34 249.16 109.81"/><polygon class="cls-1" points="253.35 113.34 242.62 114.45 251.59 116.21 253.35 113.34"/><polygon class="cls-15" points="253.35 113.34 271.13 101.96 257.45 102.51 249.16 109.81 253.35 113.34"/><polygon class="cls-16" points="266.06 104.84 271.82 111.4 260.37 106.6 266.06 104.84"/><polygon class="cls-17" points="260.37 106.6 263.36 107.75 261.75 112.45 251.59 116.21 253.35 113.34 260.37 106.6"/><polygon class="cls-18" points="251.59 116.21 257.7 117.31 263.19 117.04 261.75 112.45 251.59 116.21"/><polygon class="cls-15" points="263.19 117.04 271.82 111.4 263.36 107.75 261.75 112.45 263.19 117.04"/><polygon class="cls-15" points="257.7 117.31 255.81 130.04 261.94 130.85 263.19 117.04 257.7 117.31"/><polygon class="cls-16" points="271.83 156.87 265.13 157.28 265.19 158.84 270.52 158.06 260.77 162.55 262.38 163.38 271.23 158.72 268.78 163.02 270.64 163.56 272.67 158.42 276.97 157.82 277.09 156.39 273.03 156.57 275.36 151.75 273.57 151.51 271.83 156.87"/><polygon class="cls-15" points="279.67 157.82 272.97 158.24 273.03 159.79 278.35 159.02 268.78 163.02 270.22 164.34 279.07 159.68 276.62 163.98 278.47 164.52 280.5 159.38 284.81 158.78 284.93 157.34 280.86 157.52 283.19 152.7 281.4 152.47 279.67 157.82"/><polygon class="cls-16" points="261.94 130.85 263.19 117.04 276.67 117.41 261.94 130.85"/><polygon class="cls-18" points="263.19 117.04 271.82 111.4 276.67 117.41 263.19 117.04"/><polygon class="cls-1" points="255.81 130.04 260.66 144.75 266.69 142.24 261.94 130.85 255.81 130.04"/><polygon class="cls-7" points="260.66 144.75 266.69 142.24 282.12 153.54 270.19 152.91 260.66 144.75"/><polygon class="cls-8" points="261.94 130.85 269.39 124.04 275.66 134.17 266.69 142.24 261.94 130.85"/><polygon class="cls-9" points="266.69 142.24 275.66 134.17 286.6 146.63 286.78 151.41 282.12 153.54 266.69 142.24"/><polygon class="cls-17" points="269.39 124.04 271.52 121.2 297.62 139.41 275.66 134.17 269.39 124.04"/><polygon class="cls-19" points="275.66 134.17 286.6 146.63 304.9 159.29 299.62 143.63 297.62 139.41 275.66 134.17"/><polygon class="cls-20" points="271.52 121.2 273.63 117.96 287.59 127.08 297.62 139.41 289.2 135.24 271.52 121.2"/><polygon class="cls-14" points="273.63 117.96 276.67 117.41 287.59 127.08 289.2 135.24 273.63 117.96"/><path class="cls-16" d="M260.11,108.07l-.25,1.44-.82-1.18a2.11,2.11,0,0,0,1,4,2.12,2.12,0,0,0,.07-4.24Z"/><polygon class="cls-9" points="114.06 223.94 78.97 198.08 108.84 149.47 114.06 223.94"/><polygon class="cls-21" points="250.92 202.62 248.17 201.37 249.15 199.24 250.92 202.62"/><polygon class="cls-22" points="221.45 138.07 228.9 123.51 229.97 114.63 222.81 93.73 221.45 138.07"/><polygon class="cls-23" points="240.55 99.06 229.27 85.42 219.31 91.78 229.97 114.63 240.55 99.06"/><polygon class="cls-23" points="237.03 80.04 240.55 99.05 232.28 95.72 227.79 93.91 226.84 83.9 230.75 76.94 234.75 76.99 237.03 80.04"/><polygon class="cls-23" points="115.42 112.27 101.39 102.32 105.69 89.69 113.5 80.66 122.45 80.4 124.32 86.18 120.93 96.58 115.42 112.27"/><polygon class="cls-24" points="235.32 50.69 223.23 142.75 151.42 137.36 150.63 49.48 171.02 37.16 207.89 37.76 235.32 50.69"/><polygon class="cls-23" points="150.63 49.48 140.08 53.24 132.26 45.35 135.62 39.92 147.63 26.98 162.56 34.29 150.63 49.48"/><polygon class="cls-23" points="139.06 95.81 147.64 62.42 127.39 66.19 126.32 79.22 139.06 95.81"/><polygon class="cls-22" points="123.37 86.25 127.38 89.39 128.92 105.67 126.99 126 116.8 129.18 115.42 112.27 123.37 86.25"/><polygon class="cls-23" points="128.92 105.67 116.8 129.18 135.71 136.89 128.92 105.67"/><polygon class="cls-22" points="234.15 54.94 239.73 65.18 242.52 79.59 231 83.04 234.15 54.94"/><polygon class="cls-23" points="242.52 79.59 245.8 62.33 238.41 58.81 232.86 66.48 242.52 79.59"/><polygon class="cls-22" points="108.58 35.98 121.86 51.93 136.14 45.88 140.37 36.1 141.48 25.38 121.01 26.48 108.58 35.98"/><polygon class="cls-23" points="110.5 56.16 113.84 62.86 133.18 58.21 140.79 53.75 136.14 45.88 108.58 35.98 110.5 56.16"/><polygon class="cls-25" points="99.65 68.26 108.3 73.47 116.22 65.97 129.85 64.51 133.18 58.21 110.5 56.16 99.65 68.26"/><polygon class="cls-22" points="135.31 70.98 139.62 67.99 147.64 62.42 141.37 53.92 133.18 58.21 116.22 65.97 125.5 75.24 135.31 70.98"/><polygon class="cls-22" points="123.37 86.25 127.5 76.9 116.22 65.97 99.65 68.26 105.69 89.69 123.37 86.25"/><polygon class="cls-23" points="139.06 95.81 135.31 70.98 116.22 65.97 123.37 86.25 139.06 95.81"/><polygon class="cls-24" points="126.61 97.59 139.06 95.81 123.37 86.25 126.61 97.59"/><polygon class="cls-26" points="128.92 105.67 139.06 95.81 126.61 97.59 128.92 105.67"/><polygon class="cls-23" points="235.4 40.04 241.03 36.94 242.12 46.5 245.8 62.33 232.86 66.48 229.12 47.56 235.4 40.04"/><polygon class="cls-23" points="223.58 25.32 234.55 47.52 235.4 40.04 242.12 46.5 246.81 25.36 226.46 19.72 223.58 25.32"/><polygon class="cls-22" points="224.46 48.41 218.12 40.38 223.58 25.32 235.4 40.04 234.74 45.79 232.86 66.48 224.46 48.41"/><polygon class="cls-25" points="210.39 14.91 213.73 25.75 223.58 25.32 246.81 25.36 227.25 14.17 210.39 14.91"/><polygon class="cls-23" points="207.89 37.76 202.07 27.24 210.39 14.91 223.58 25.32 224.46 48.41 207.89 37.76"/><polygon class="cls-25" points="197.49 47.87 195.28 19.55 194.18 0 210.39 14.91 207.89 37.76 197.49 47.87"/><polygon class="cls-23" points="179.53 43.86 176.81 31.92 195.28 19.55 197.49 47.87 179.53 43.86"/><polygon class="cls-25" points="171.16 51.65 162.28 36.2 172.37 18.81 176.91 15.23 195.28 19.55 179.53 43.86 171.16 51.65"/><polygon class="cls-22" points="150.63 49.48 153.11 38.67 153.25 26.67 172.37 18.81 171.16 51.65 150.63 49.48"/><polygon class="cls-25" points="121.01 26.48 129.21 15.6 146.15 15.7 172.37 18.81 153.11 38.67 121.01 26.48"/><polygon class="cls-22" points="165.57 7.85 152.45 9.22 172.37 18.81 181.65 19.11 195.28 19.55 194.18 0 165.57 7.85"/><polygon class="cls-23" points="129.21 15.6 140.74 1.94 165.57 7.85 165.57 7.85 172.37 18.81 147.63 20.73 129.21 15.6"/><polygon class="cls-22" points="143.35 79.12 129.61 90.05 139.06 95.81 145.2 94.19 143.35 79.12"/><polygon class="cls-25" points="150.63 49.48 147.64 62.42 133.18 58.21 136.14 45.88 150.63 49.48"/><polygon class="cls-27" points="223.55 80.17 214.91 72.56 200.92 74.71 197.47 88.72 198.52 106.1 212.4 81.8 223.55 80.17"/><polygon class="cls-27" points="191.53 73.72 192.35 88.54 186.1 105.13 177.83 80.15 163.66 72.26 178.08 68.85 191.53 73.72"/><polygon class="cls-26" points="198.52 106.1 191.46 110.6 186.1 105.13 192.42 103.68 198.52 106.1"/><polygon class="cls-28" points="200.92 74.71 198.52 106.1 186.1 105.13 191.53 73.72 200.92 74.71"/><polygon class="cls-25" points="214.25 70.71 223.55 80.17 200.92 74.71 214.25 70.71"/><polygon class="cls-25" points="178.23 65.29 191.53 73.72 163.66 72.26 178.23 65.29"/><polygon class="cls-27" points="204.04 121.85 190.25 121.17 173.71 118 188.28 128.54 204.04 121.85"/><polygon class="cls-26" points="196.26 119.79 204.04 121.85 189.5 122.56 173.71 118 184.42 117.8 190.92 116.54 196.26 119.79"/><path class="cls-29" d="M211.25,82a4.68,4.68,0,1,0,4.89,4.46A4.68,4.68,0,0,0,211.25,82"/><path class="cls-29" d="M177.24,77.07a4.68,4.68,0,1,0,4.9,4.46,4.68,4.68,0,0,0-4.9-4.46"/></svg>



