<svg id="illustration" xmlns="http://www.w3.org/2000/svg" viewBox="0 0 400 400"><defs><style>.cls-1{fill:#594165;}.cls-1,.cls-10,.cls-11,.cls-12,.cls-13,.cls-14,.cls-2,.cls-21,.cls-22,.cls-23,.cls-24,.cls-25,.cls-26,.cls-3,.cls-4,.cls-5,.cls-6,.cls-7,.cls-8,.cls-9{fill-rule:evenodd;}.cls-2,.cls-22,.cls-26{fill:#2b2b2b;}.cls-2{opacity:0.1;}.cls-15,.cls-3{fill:#c3987b;}.cls-4{fill:#6f7173;}.cls-5{fill:#dfbda5;}.cls-16,.cls-6{fill:#785d88;}.cls-7{fill:#474747;}.cls-8{fill:#ececeb;}.cls-9{fill:#cececd;}.cls-10,.cls-20{fill:#dddddc;}.cls-11{fill:#858686;}.cls-12,.cls-18{fill:#8b6651;}.cls-13{fill:#9075a0;}.cls-14,.cls-19{fill:#e8cab6;}.cls-17{fill:#33231b;}.cls-21{fill:#a688ba;}.cls-22{opacity:0.2;}.cls-23{fill:#c4c4c4;}.cls-24{fill:#8f8f8f;}.cls-25{fill:#9da1a2;}</style></defs><title>Architect (INTJ) personality</title><polygon class="cls-1" points="112.32 136.94 227.57 59.77 232.96 136 168.63 161.17 112.32 136.94"/><polygon class="cls-2" points="168.23 367.23 84.31 384.86 168.6 400 272.29 380.36 168.23 367.23"/><polygon class="cls-3" points="238.99 224.29 240.96 219.75 258.77 211.48 252.77 223.15 238.99 224.29"/><polygon class="cls-4" points="134.88 379.11 119.99 383.43 120.04 388.06 159.03 388.12 159.06 383.09 134.88 379.11"/><polygon class="cls-4" points="215 370.48 239.58 378.11 239.74 382.23 189.91 382.38 190.08 378.3 214.1 371.68 215 370.48"/><polygon class="cls-5" points="138.53 352.47 146.42 363.39 159.06 383.09 119.99 383.43 126.72 363.39 138.53 352.47"/><polygon class="cls-5" points="200.23 347.94 210.47 356.89 239.58 378.11 190.08 378.3 190.01 359.51 200.23 347.94"/><polygon class="cls-6" points="216.65 352.84 213.99 321.79 192.66 333.73 183.73 353.7 169.45 292.02 181.12 282.13 183.78 273.94 210.44 270.79 216.65 352.84"/><polygon class="cls-3" points="213.99 321.79 210.47 356.89 200.32 358.19 190.01 359.51 177.12 322.9 213.99 321.79 213.99 321.79"/><polygon class="cls-6" points="169.45 292.02 152.17 358.01 145.51 330.3 122.18 357.49 120.98 271.05 169.45 292.02"/><polygon class="cls-3" points="160.65 324.1 146.42 363.39 126.72 363.39 124.23 326.41 160.65 324.1"/><path class="cls-1" d="M210.44,270.79l-41,21.23s-49.18-21.22-48.47-21,35.32-33.7,35.32-33.7,48.59,15.48,48.66,14.76Z"/><path class="cls-7" d="M152.27,185.73c-.68.56,38.8,38.45,38.8,38.45l-10.36,31.88s-52.36-2.72-52.23-11.12c-.1-.55-11.23-84.29-11.23-84.29Z"/><path class="cls-8" d="M193.59,163.28l21.09,2.4,10.16,44L211.2,243s-8.48-12.22-8.51-13.53S193.59,163.28,193.59,163.28Z"/><polygon class="cls-4" points="186.33 208.9 179.09 217.08 179.01 256.38 204.96 252.11 214.68 165.68 192.96 196.25 186.33 208.9"/><polygon class="cls-9" points="208.21 249.63 179.01 256.38 121.95 244 120.98 271.05 210.44 270.79 208.21 249.63"/><polygon class="cls-10" points="211.2 242.95 224.84 209.67 243.68 218.46 243.05 227.01 239.81 234.46 211.2 242.95 211.2 242.95"/><polygon class="cls-8" points="119.57 176.81 117.25 160.65 109.5 165.67 88.15 208.9 117.73 217.09 123.83 209.77 119.57 176.81"/><polygon class="cls-8" points="109.39 239.85 126.96 230.17 131.29 233.77 120.95 257 107.11 248.98 109.39 239.85"/><polygon class="cls-9" points="193.95 169.06 195.81 178.99 192.06 201.69 179.09 217.08 160.47 194.81 156.23 180.95 170.1 156.83 193.95 169.06"/><path class="cls-6" d="M177.27,174.84l3.21,7.1,5.85,27s-6.21,8.67-7.24,8.18-15.57-12.77-15.57-12.77l7.91-22.37Z"/><polygon class="cls-11" points="199.68 155.8 195.81 178.99 179.09 217.08 203.72 196.2 214.68 165.68 199.68 155.8"/><polygon class="cls-4" points="134.64 153.41 156.23 180.95 179.09 217.08 151.1 202.14 117.25 160.65 117.25 160.65 134.64 153.41"/><polygon class="cls-1" points="188.16 168.62 188 171.68 180.49 181.94 171.43 181.94 161.28 167.53 175.85 155.19 188.16 168.62"/><polygon class="cls-8" points="173.74 153.78 175.5 164.28 195.81 178.99 199.68 155.8 192.59 143.25 173.74 153.78"/><polygon class="cls-3" points="164.05 140.56 158.01 156.79 140.11 138.88 114.79 76.67 128.21 72.33 138.53 33.13 159.74 66.95 164.05 140.56"/><polygon class="cls-12" points="196.63 138.43 175.5 164.28 144.21 148.64 148.42 147.98 150.12 139.25 196.63 138.43"/><polygon class="cls-12" points="129.59 95.96 133.75 99.63 120.84 108.57 120.76 101.28 129.59 95.96"/><polygon class="cls-5" points="123.53 70.94 128.5 75.71 133.75 99.63 120.76 101.28 113.76 77.34 123.53 70.94"/><polygon class="cls-1" points="124.71 49.73 102.26 59.95 113.76 77.34 128.5 75.71 131.29 88.46 144.69 55.56 124.71 49.73"/><polygon class="cls-6" points="144.69 55.56 144.69 55.56 102.26 59.95 111.79 28.66 144.69 55.56"/><path class="cls-1" d="M174.94,47.43l-17.48-1L127.12,21,143.79,1.1s28.73,10.22,28.94,11.41S174.94,47.43,174.94,47.43Z"/><polygon class="cls-6" points="197.04 9.49 201.16 0 143.79 1.1 157.01 42.13 197.04 9.49"/><polygon class="cls-1" points="200.2 47.18 212.66 38.9 238.36 38.12 227.57 59.77 200.2 47.18"/><polygon class="cls-5" points="227.57 59.77 220.89 137.61 149.99 139.62 143.77 41.8 157.01 42.13 200.04 45.26 214.47 45.16 227.57 59.77"/><polygon class="cls-3" points="192.29 53.33 227.57 59.77 214.47 45.16 192.29 53.33"/><polygon class="cls-13" points="144.69 55.56 111.79 28.66 127.12 20.95 157.01 42.13 144.69 55.56"/><polygon class="cls-13" points="214.47 45.16 238.36 38.12 201.16 0 157.01 42.13 192.29 53.33 214.47 45.16"/><polygon class="cls-12" points="118.69 81.47 124.52 80.58 126.35 92.48 118.69 81.47"/><polygon class="cls-8" points="140.11 138.88 175.5 164.28 156.23 180.95 134.64 153.41 140.11 138.88"/><polygon class="cls-10" points="88.15 208.9 117.73 217.09 126.96 230.17 107.11 248.98 80.45 233.13 88.15 208.9"/><polygon class="cls-14" points="248.22 224.3 258.77 211.48 274.08 222.88 271.77 227.97 261.36 224.62 247.96 249.33 245.95 248.82 248.22 224.3"/><polygon class="cls-13" points="121.7 324.63 122.18 357.49 152.17 358.01 161.24 323.47 121.7 324.63"/><polygon class="cls-13" points="176.5 322.61 183.73 353.7 216.65 352.84 214.31 321.79 176.5 322.61"/><polygon class="cls-7" points="119.99 383.43 159.06 383.09 149.11 367.54 151.14 376.28 146.61 371.76 132.35 371.76 126.15 376.87 124.98 368.18 119.99 383.43"/><polygon class="cls-7" points="190.08 378.3 189.86 369.27 218.72 370.25 219.18 363.17 239.58 378.11 190.08 378.3"/><polygon class="cls-1" points="136.75 130.6 112.32 136.94 120.76 101.28 128.42 100.29 136.75 130.6"/><polygon class="cls-6" points="112.32 136.94 102.26 59.95 113.76 77.34 120.76 101.28 112.32 136.94"/><polygon class="cls-6" points="238.36 38.12 227.57 59.77 232.96 136 238.36 38.12"/><polygon class="cls-3" points="154.12 249.38 155.92 251.68 149.27 271.43 136.48 272.58 144.37 252.87 154.12 249.38"/><polygon class="cls-15" points="216.36 73.02 210.19 68.88 194.98 74.28 190.11 81.91 190.1 92.16 195.01 102.09 205.23 82.66 216.36 73.02"/><polygon class="cls-16" points="216.36 73.02 216.74 69.96 210.51 66.76 194.8 68.13 194.77 74.4 210.29 72.07 216.36 73.02"/><polygon class="cls-15" points="183.99 81.44 185.8 92.35 181.33 102.88 170.74 81 154.71 73.56 163.58 68.91 178.91 74.47 183.99 81.44"/><path class="cls-17" d="M171.39,76.93a4.2,4.2,0,1,0,4.25,4.14A4.2,4.2,0,0,0,171.39,76.93Z"/><polygon class="cls-16" points="163.91 66.79 156.67 69.87 154.71 73.56 162.23 72.03 178.91 74.47 181.03 67.35 163.91 66.79"/><path class="cls-17" d="M204.79,77.14A4.2,4.2,0,1,0,209,81.28,4.19,4.19,0,0,0,204.79,77.14Z"/><polygon class="cls-18" points="188.29 107.42 195.01 102.09 188.83 98.5 181.33 102.88 188.29 107.42"/><polygon class="cls-19" points="190.11 81.91 183.99 81.44 181.33 102.88 195.01 102.09 190.11 81.91"/><polygon class="cls-20" points="201.78 118.87 193.64 117.1 185.64 116.47 170.75 117.14 181.99 124.29 190.66 124.05 201.78 118.87"/><polygon class="cls-15" points="193.13 128.14 201.78 118.87 187.82 123.19 170.75 117.14 181.9 128.01 193.13 128.14"/><polygon class="cls-18" points="201.78 118.87 193.86 113.83 189.1 115.31 183.47 113.77 170.75 117.14 201.78 118.87"/><polygon class="cls-13" points="237.09 278.11 236.86 285.33 309.58 245.45 311.25 237.76 237.09 278.11"/><polygon class="cls-6" points="237.09 278.11 141.73 245.47 144.63 253.09 236.86 285.33 237.09 278.11"/><polygon class="cls-1" points="141.73 245.47 221.35 214.57 311.25 237.76 237.09 278.11 141.73 245.47"/><polygon class="cls-21" points="235.92 271.5 245.41 266.29 233.81 262.42 224.3 267.5 235.92 271.5"/><polygon class="cls-21" points="233.81 262.42 243.21 257.85 232.46 254.29 222.69 258.89 233.81 262.42"/><polygon class="cls-21" points="243.21 257.85 252.04 253.32 263.46 256.8 255.05 261.48 243.21 257.85"/><polygon class="cls-21" points="252.04 253.32 260.39 249.33 249.23 246.16 240.91 250.07 252.04 253.32"/><polygon class="cls-21" points="260.39 249.33 268.05 245.56 279.41 248.74 271.92 252.54 260.39 249.33"/><polygon class="cls-21" points="249.23 246.16 238.38 243.17 246.45 239.55 257.12 242.62 249.23 246.16"/><polygon class="cls-21" points="257.12 242.62 264.95 238.93 275.7 241.83 268.05 245.56 257.12 242.62"/><polygon class="cls-21" points="275.7 241.83 283.06 238.29 293.83 241.19 286.91 244.85 275.7 241.83"/><polygon class="cls-21" points="283.06 238.29 289.86 234.88 278.9 232.11 272.43 235.37 283.06 238.29"/><polygon class="cls-21" points="272.43 235.37 264.95 238.93 254.75 235.72 263 232.53 272.43 235.37"/><polygon class="cls-21" points="254.75 235.72 246.45 239.55 236.65 236.73 244.09 233.22 254.75 235.72"/><polygon class="cls-21" points="244.09 233.22 251.69 230.12 241.79 227.37 234.24 230.87 244.09 233.22"/><polygon class="cls-21" points="241.79 227.37 249.69 224.61 239.77 221.89 232.62 225.13 241.79 227.37"/><polygon class="cls-21" points="251.69 230.12 258.62 226.72 269.37 229.51 263 232.53 251.69 230.12"/><polygon class="cls-21" points="232.62 225.13 225.45 228.28 215.43 225.65 223 222.49 232.62 225.13"/><polygon class="cls-21" points="223 222.49 231.64 219.73 222.58 217.14 214.55 220.19 223 222.49"/><polygon class="cls-21" points="216.55 231.35 225.45 228.28 234.24 230.87 226.29 234.01 216.55 231.35"/><polygon class="cls-21" points="216.55 231.35 208.74 234.61 199.43 231.98 207.09 229 216.55 231.35"/><polygon class="cls-21" points="207.09 229 215.43 225.65 206.8 222.98 198.12 226.47 207.09 229"/><polygon class="cls-21" points="218.13 237.36 226.29 234.01 236.65 236.73 229 240.21 218.13 237.36"/><polygon class="cls-21" points="219.46 243.89 229 240.21 238.38 243.17 230.63 246.94 219.46 243.89"/><polygon class="cls-21" points="230.63 246.94 240.91 250.07 232.46 254.29 221.27 251.1 230.63 246.94"/><polygon class="cls-21" points="222.69 258.89 212.75 263.77 201.61 260.19 211.52 255.44 222.69 258.89"/><polygon class="cls-21" points="211.52 255.44 221.27 251.1 210.38 248.03 201 252.29 211.52 255.44"/><polygon class="cls-21" points="210.38 248.03 219.46 243.89 209.41 241.03 199.62 245.06 210.38 248.03"/><polygon class="cls-21" points="209.41 241.03 218.13 237.36 208.74 234.61 199.7 237.93 209.41 241.03"/><polygon class="cls-21" points="199.43 231.98 191.15 235.46 181.39 233.19 190.13 229.57 199.43 231.98"/><polygon class="cls-21" points="191.15 235.46 181.51 239.3 190.87 242.2 199.7 237.93 191.15 235.46"/><polygon class="cls-21" points="199.62 245.06 190.87 242.2 181.44 245.98 190.92 249.13 199.62 245.06"/><polygon class="cls-21" points="190.92 249.13 180.92 253.42 191.04 256.6 201 252.29 190.92 249.13"/><polygon class="cls-21" points="171.32 250.35 181.44 245.98 171.63 243.33 161.78 247.32 171.32 250.35"/><polygon class="cls-21" points="171.63 243.33 162.77 240.4 173.11 235.92 181.51 239.3 171.63 243.33"/><polygon class="cls-22" points="219.6 218.41 217.9 219.64 221.18 221.4 226.02 221.55 228.62 219.62 226.14 218.01 219.6 218.41"/><polygon class="cls-11" points="219.23 218.01 219.26 219.19 221.52 220.56 225.2 220.78 227.18 219.68 227.24 218.31 225.12 219.38 221.46 219.24 219.23 218.01"/><polygon class="cls-23" points="219.23 218.01 219.23 216.57 220.76 214.86 222.17 215.55 224.7 215.62 225.68 215.1 227.25 216.95 227.24 218.31 225.12 219.38 221.46 219.24 219.23 218.01"/><polygon class="cls-24" points="220.76 214.86 221.67 213.91 221.72 211.99 223.45 212.61 224.88 212.2 224.91 214.26 225.68 215.1 224.7 215.62 222.17 215.55 220.76 214.86"/><polygon class="cls-11" points="221.72 211.99 220.7 210.61 223.57 210.98 225.88 210.66 224.88 212.2 223.45 212.61 221.72 211.99"/><polygon class="cls-25" points="220.59 208.17 221.72 207.54 224.71 207.62 226.01 208.17 225.21 209.28 223.46 209.57 221.52 209.18 220.59 208.17"/><polygon class="cls-10" points="220.7 210.61 220.59 208.17 221.74 208.83 225.29 208.94 226.01 208.17 225.88 210.66 223.57 210.98 220.7 210.61"/><polygon class="cls-22" points="222.32 220.22 222.19 216.23 224.7 215.62 225.68 215.1 226.86 216.64 222.32 220.22"/><polygon class="cls-22" points="215.8 253.5 213.62 255.01 217.82 257.18 223.2 257.2 226.83 254.95 225.21 254.03 215.8 253.5"/><polygon class="cls-26" points="215.28 253.07 215.32 254.89 218.01 256.17 223.13 256.16 225.41 254.59 225.3 252.71 223.07 254.41 218.08 254.46 215.28 253.07"/><polygon class="cls-4" points="215.28 253.07 215.25 251.25 216.68 250.01 218.51 251.18 221.95 251.02 223.28 249.68 224.95 250.87 225.3 252.71 223.07 254.41 218.08 254.46 215.28 253.07"/><polygon class="cls-7" points="216.68 250.01 217.91 248.73 217.86 247.65 219.95 248.14 221.57 247.53 221.58 248.19 223.28 249.68 221.95 251.02 218.51 251.18 216.68 250.01"/><polygon class="cls-4" points="217.86 247.65 219.95 248.14 221.57 247.53 222.62 246.74 222.61 246.17 221.97 245.57 219.53 246.69 217.03 245.68 216.67 246.27 216.75 246.97 217.86 247.65"/><polygon class="cls-24" points="217.03 245.68 216.41 244.6 216.75 243.34 219.09 242.04 222.38 243.28 222.63 244.44 221.97 245.57 219.53 246.69 217.03 245.68"/><polygon class="cls-22" points="250.03 231.15 247.75 232.04 251.6 235.25 256.56 235.32 260.4 232.65 258.67 231.82 250.03 231.15"/><polygon class="cls-11" points="250.03 231.15 249.95 232.74 252.07 233.99 256.53 234.04 258.73 232.81 258.71 231.02 256.43 232.42 252.16 232.44 250.03 231.15"/><polygon class="cls-23" points="250.03 231.15 250.17 229.28 251.42 227.94 252.79 228.9 255.92 228.91 257.04 227.94 258.65 229.39 258.71 231.02 256.43 232.42 252.16 232.44 250.03 231.15"/><polygon class="cls-25" points="251.42 227.94 252.44 224.87 254.32 225.18 255.96 224.85 257.04 227.94 255.92 228.91 252.79 228.9 251.42 227.94"/><polygon class="cls-10" points="252.44 224.87 251.4 224.4 251.36 223.36 252.28 222.81 254.27 223.16 255.91 222.52 256.88 223.18 257.03 224.23 255.96 224.85 254.32 225.18 252.44 224.87"/><polygon class="cls-11" points="252.28 222.81 252.37 222.06 254.07 222.44 255.92 222.04 255.91 222.52 254.27 223.16 252.28 222.81"/><polygon class="cls-23" points="252.37 222.06 251.04 221.2 251.25 219.78 252.77 218.11 254.23 218.5 255.58 217.98 257.09 219.85 257.11 221.43 255.92 222.04 254.07 222.44 252.37 222.06"/><polygon class="cls-11" points="251.85 219.12 253.49 220.79 252.41 218.51 251.85 219.12"/><polygon class="cls-10" points="252.77 218.11 252.62 217.05 254.11 216.25 255.66 216.96 255.58 217.98 254.23 218.5 252.77 218.11"/><polygon class="cls-22" points="221.37 229.63 219.21 230.47 222.85 233.5 227.54 233.57 231.18 231.04 229.54 230.27 221.37 229.63"/><polygon class="cls-11" points="221.37 229.63 221.29 231.13 223.3 232.31 227.51 232.37 229.6 231.2 229.58 229.5 227.42 230.83 223.38 230.84 221.37 229.63"/><polygon class="cls-23" points="221.37 229.63 221.5 227.86 222.69 226.59 223.98 227.5 226.94 227.51 228 226.59 229.52 227.96 229.58 229.5 227.42 230.83 223.38 230.84 221.37 229.63"/><polygon class="cls-25" points="222.69 226.59 223.65 223.69 225.42 223.98 226.97 223.67 228 226.59 226.94 227.51 223.98 227.5 222.69 226.59"/><polygon class="cls-10" points="223.65 223.69 222.66 223.25 222.63 222.26 223.5 221.74 225.38 222.07 226.93 221.47 227.85 222.09 227.99 223.09 226.97 223.67 225.42 223.98 223.65 223.69"/><polygon class="cls-11" points="223.5 221.74 223.58 221.03 225.19 221.39 226.94 221.02 226.93 221.47 225.38 222.07 223.5 221.74"/><polygon class="cls-23" points="223.58 221.03 222.32 220.22 222.53 218.88 223.96 217.3 225.34 217.67 226.62 217.18 228.05 218.94 228.06 220.44 226.94 221.02 225.19 221.39 223.58 221.03"/><polygon class="cls-11" points="223.09 218.25 224.64 219.84 223.62 217.68 223.09 218.25"/><polygon class="cls-10" points="223.96 217.3 223.82 216.29 225.23 215.54 226.69 216.22 226.62 217.18 225.34 217.67 223.96 217.3"/><polygon class="cls-22" points="211.35 221.47 209.65 222.71 213.01 224.48 217.26 224.5 220.09 222.66 218.8 221.91 211.35 221.47"/><polygon class="cls-11" points="210.94 221.12 211 222.6 213.14 223.65 217.19 223.65 218.97 222.36 218.84 220.82 217.12 222.22 213.17 222.25 210.94 221.12"/><polygon class="cls-23" points="210.94 221.12 210.88 219.63 211.99 218.62 213.46 219.57 216.16 219.44 217.2 218.34 218.53 219.32 218.84 220.82 217.12 222.22 213.17 222.25 210.94 221.12"/><polygon class="cls-25" points="211.99 218.62 212.94 217.57 212.88 216.69 214.54 217.09 215.81 216.59 215.82 217.13 217.2 218.34 216.16 219.44 213.46 219.57 211.99 218.62"/><polygon class="cls-23" points="212.88 216.69 214.54 217.09 215.81 216.59 216.62 215.95 216.61 215.48 216.09 214.99 214.19 215.91 212.19 215.08 211.92 215.57 211.99 216.14 212.88 216.69"/><polygon class="cls-10" points="212.19 215.08 211.68 214.21 211.93 213.18 213.76 212.12 216.37 213.13 216.59 214.08 216.09 214.99 214.19 215.91 212.19 215.08"/><polygon class="cls-22" points="204.03 230.1 201.96 231.29 205.6 233.19 210.44 233.37 213.85 231.62 212.46 230.81 204.03 230.1"/><polygon class="cls-11" points="203.6 229.73 203.51 231.23 205.84 232.37 210.44 232.51 212.6 231.28 212.62 229.72 210.51 231.06 206.01 230.95 203.6 229.73"/><polygon class="cls-23" points="203.6 229.73 203.69 228.23 205.06 227.25 206.63 228.26 209.73 228.23 211.02 227.16 212.44 228.19 212.62 229.72 210.51 231.06 206.01 230.95 203.6 229.73"/><polygon class="cls-25" points="205.06 227.25 206.25 226.23 206.28 225.34 208.13 225.8 209.62 225.34 209.59 225.89 211.02 227.16 209.73 228.23 206.63 228.26 205.06 227.25"/><polygon class="cls-23" points="206.28 225.34 208.13 225.8 209.62 225.34 210.62 224.72 210.65 224.25 210.12 223.74 207.85 224.6 205.67 223.69 205.31 224.17 205.33 224.75 206.28 225.34"/><polygon class="cls-10" points="205.67 223.69 205.19 222.79 205.58 221.76 207.77 220.76 210.64 221.87 210.78 222.84 210.12 223.74 207.85 224.6 205.67 223.69"/><polygon class="cls-22" points="177.69 241.16 175.72 242.53 179.44 244.5 184.24 244.52 187.51 242.48 186.08 241.64 177.69 241.16"/><polygon class="cls-26" points="177.24 240.77 177.25 242.42 179.62 243.58 184.19 243.57 186.25 242.15 186.17 240.44 184.17 241.99 179.71 242.03 177.24 240.77"/><polygon class="cls-4" points="177.24 240.77 177.23 239.12 178.52 237.99 180.14 239.05 183.21 238.91 184.42 237.69 185.88 238.77 186.17 240.44 184.17 241.99 179.71 242.03 177.24 240.77"/><polygon class="cls-7" points="178.52 237.99 179.64 236.83 179.61 235.85 181.47 236.29 182.92 235.74 182.91 236.34 184.42 237.69 183.21 238.91 180.14 239.05 178.52 237.99"/><polygon class="cls-4" points="179.61 235.85 181.47 236.29 182.92 235.74 183.86 235.02 183.87 234.5 183.3 233.97 181.11 234.98 178.89 234.06 178.57 234.6 178.63 235.24 179.61 235.85"/><polygon class="cls-24" points="178.89 234.06 178.36 233.09 178.68 231.94 180.78 230.77 183.69 231.89 183.9 232.94 183.3 233.97 181.11 234.98 178.89 234.06"/><polygon class="cls-22" points="236.71 221.75 234.84 223.05 238.27 224.92 243.45 225.08 246.69 223.05 245.18 221.26 236.71 221.75"/><polygon class="cls-11" points="236.62 221.6 236.59 223 238.54 224.11 243.18 224.17 245.42 222.89 245.47 221.38 243.19 222.74 238.54 222.71 236.62 221.6"/><polygon class="cls-23" points="236.62 221.6 236.66 219.72 237.86 218.61 239.39 219.5 242.51 219.51 243.68 218.46 245.32 220.08 245.47 221.38 243.19 222.74 238.54 222.71 236.62 221.6"/><polygon class="cls-25" points="237.86 218.61 239.07 217.42 239.15 215.6 240.76 216.1 242.55 215.69 242.5 217.4 243.68 218.46 242.51 219.51 239.39 219.5 237.86 218.61"/><polygon class="cls-23" points="239.15 215.6 238.02 215.08 238 214.06 238.83 213.43 240.74 214.12 242.5 213.45 243.37 213.92 243.42 214.99 242.55 215.69 240.76 216.1 239.15 215.6"/><polygon class="cls-11" points="238.83 213.43 238.91 211.85 240.86 212.47 242.62 211.87 242.5 213.45 240.74 214.12 238.83 213.43"/><polygon class="cls-23" points="238.91 211.85 240.86 212.47 242.62 211.87 244.01 211.26 242.03 209.04 240.52 209.69 239.27 209.05 237.51 211.2 238.91 211.85"/><polygon class="cls-10" points="239.27 209.05 239.29 208.12 240.06 207.37 241.14 207.41 242.05 208.07 242.03 209.04 240.52 209.69 239.27 209.05"/><polygon class="cls-10" points="231.56 226.74 232.43 225.91 232.4 228.25 231.37 229.45 231.56 226.74"/><polygon class="cls-22" points="223.71 236.38 221.78 237.7 225.32 239.6 230.66 239.76 233.61 237.69 230.94 235.94 223.71 236.38"/><polygon class="cls-11" points="223.29 235.79 223.27 237.34 225.82 238.92 229.56 238.99 232.21 237.7 232.19 235.99 229.63 237.39 225.92 237.44 223.29 235.79"/><polygon class="cls-23" points="223.29 235.79 223.25 234.23 224.27 233.24 225.32 233.69 230.23 233.68 231.07 233.27 232.04 234.21 232.19 235.99 229.63 237.39 225.92 237.44 223.29 235.79"/><polygon class="cls-10" points="224.27 233.24 225.32 233.69 230.23 233.68 223.85 225.79 223.18 227.28 223.19 232.54 224.27 233.24"/><polygon class="cls-25" points="230.23 233.68 231.07 233.27 231.62 232.07 229.44 229.25 227.38 229.05 227.44 230.28 230.23 233.68"/><polygon class="cls-23" points="227.44 230.28 227.38 229.05 231.37 229.45 231.56 226.74 227.75 225.23 227.71 223.99 225.3 224.44 223.85 225.79 227.44 230.28"/><polygon class="cls-11" points="223.85 225.79 224.95 224.01 226.89 222.68 228.26 222.6 228.33 223.78 227.71 223.99 225.3 224.44 223.85 225.79"/><polygon class="cls-25" points="227.71 223.99 227.75 225.23 231.56 226.74 232.43 225.91 229.82 223.87 228.33 223.78 227.71 223.99"/><path class="cls-11" d="M228.69,226.46a.76.76,0,0,1-.81.74.79.79,0,0,1-.77-.8.77.77,0,0,1,.81-.75A.81.81,0,0,1,228.69,226.46Z"/><polygon class="cls-22" points="203.85 236.67 201.81 238.07 205.55 240.07 210.44 240.09 213.81 238.01 212.38 237.16 203.85 236.67"/><polygon class="cls-26" points="203.4 236.27 203.37 237.95 205.76 239.14 210.41 239.13 212.54 237.68 212.5 235.93 210.42 237.51 205.88 237.55 203.4 236.27"/><polygon class="cls-4" points="203.4 236.27 203.43 234.59 204.77 233.44 206.39 234.52 209.51 234.37 210.77 233.13 212.24 234.24 212.5 235.93 210.42 237.51 205.88 237.55 203.4 236.27"/><polygon class="cls-7" points="204.77 233.44 205.93 232.25 205.92 231.25 207.81 231.7 209.29 231.14 209.28 231.76 210.77 233.13 209.51 234.37 206.39 234.52 204.77 233.44"/><polygon class="cls-4" points="205.92 231.25 207.81 231.7 209.29 231.14 210.27 230.41 210.29 229.88 209.73 229.33 207.47 230.37 205.24 229.43 204.89 229.98 204.94 230.63 205.92 231.25"/><polygon class="cls-24" points="205.24 229.43 204.71 228.44 205.07 227.27 207.24 226.07 210.17 227.22 210.36 228.29 209.73 229.33 207.47 230.37 205.24 229.43"/><polygon class="cls-22" points="215.59 238.9 213.55 240.3 217.29 242.3 222.17 242.32 225.55 240.24 224.11 239.39 215.59 238.9"/><polygon class="cls-26" points="215.13 238.5 215.1 240.18 217.5 241.37 222.15 241.36 224.27 239.91 224.23 238.16 222.16 239.74 217.62 239.78 215.13 238.5"/><polygon class="cls-4" points="215.13 238.5 215.16 236.82 216.5 235.67 218.13 236.75 221.25 236.6 222.51 235.36 223.98 236.47 224.23 238.16 222.16 239.74 217.62 239.78 215.13 238.5"/><polygon class="cls-7" points="216.5 235.67 217.67 234.48 217.66 233.48 219.54 233.93 221.03 233.37 221.01 233.99 222.51 235.36 221.25 236.6 218.13 236.75 216.5 235.67"/><polygon class="cls-4" points="217.66 233.48 219.54 233.93 221.03 233.37 222.01 232.64 222.02 232.11 221.46 231.56 219.21 232.6 216.97 231.66 216.63 232.21 216.68 232.86 217.66 233.48"/><polygon class="cls-24" points="216.97 231.66 216.45 230.67 216.8 229.5 218.97 228.3 221.91 229.45 222.09 230.52 221.46 231.56 219.21 232.6 216.97 231.66"/><polygon class="cls-22" points="205.76 239.14 206.01 236.29 206.39 234.52 205.6 233.19 206.01 231.75 205.92 231.25 206.56 230.81 206.75 229.2 209.59 225.89 210.55 241.06 205.76 239.14"/><polygon class="cls-24" points="235.39 237.78 236.29 236.92 236.25 239.35 235.17 240.58 235.39 237.78"/><polygon class="cls-22" points="227.19 247.73 225.18 249.1 228.86 251.06 234.4 251.22 237.49 249.08 234.71 247.29 227.19 247.73"/><polygon class="cls-26" points="226.75 247.13 226.72 248.73 229.38 250.36 233.26 250.43 236.02 249.09 236.01 247.33 233.34 248.78 229.48 248.83 226.75 247.13"/><polygon class="cls-4" points="226.75 247.13 226.72 245.52 227.78 244.5 228.87 244.95 233.98 244.94 234.86 244.52 235.86 245.5 236.01 247.33 233.34 248.78 229.48 248.83 226.75 247.13"/><polygon class="cls-24" points="227.78 244.5 228.87 244.95 233.98 244.94 227.36 236.8 226.66 238.34 226.65 243.78 227.78 244.5"/><polygon class="cls-7" points="233.98 244.94 234.86 244.52 235.43 243.28 233.16 240.38 231.02 240.17 231.09 241.44 233.98 244.94"/><polygon class="cls-4" points="231.09 241.44 231.02 240.17 235.17 240.58 235.39 237.78 231.42 236.22 231.38 234.94 228.88 235.4 227.36 236.8 231.09 241.44"/><polygon class="cls-26" points="227.36 236.8 228.51 234.96 230.54 233.58 231.96 233.5 232.03 234.73 231.38 234.94 228.88 235.4 227.36 236.8"/><polygon class="cls-7" points="231.38 234.94 231.42 236.22 235.39 237.78 236.29 236.92 233.58 234.82 232.03 234.73 231.38 234.94"/><path class="cls-26" d="M232.4,237.49a.8.8,0,0,1-.84.77.83.83,0,0,1-.81-.83.81.81,0,0,1,.84-.78A.83.83,0,0,1,232.4,237.49Z"/><polygon class="cls-22" points="270.49 237.12 268.5 238.47 272.11 240.41 276.85 240.43 280.15 238.42 278.76 237.59 270.49 237.12"/><polygon class="cls-11" points="270.05 236.73 270.01 238.36 272.32 239.5 276.83 239.5 278.91 238.09 278.89 236.41 276.86 237.93 272.45 237.97 270.05 236.73"/><polygon class="cls-23" points="270.05 236.73 270.1 235.1 271.42 233.99 272.98 235.04 276.01 234.9 277.25 233.7 278.67 234.76 278.89 236.41 276.86 237.93 272.45 237.97 270.05 236.73"/><polygon class="cls-25" points="271.42 233.99 272.56 232.85 272.56 231.88 274.39 232.32 275.84 231.77 275.81 232.37 277.25 233.7 276.01 234.9 272.98 235.04 271.42 233.99"/><polygon class="cls-23" points="272.56 231.88 274.39 232.32 275.84 231.77 276.8 231.07 276.82 230.56 276.28 230.03 274.08 231.03 271.92 230.12 271.58 230.65 271.62 231.28 272.56 231.88"/><polygon class="cls-10" points="271.92 230.12 271.42 229.16 271.78 228.03 273.9 226.88 276.74 227.98 276.9 229.02 276.28 230.03 274.08 231.03 271.92 230.12"/><polygon class="cls-10" points="246.69 219.48 247.49 218.68 247.55 220.96 246.59 222.12 246.69 219.48"/><polygon class="cls-22" points="239.46 228.87 237.65 230.16 241.13 232 246.27 232.16 249.05 230.14 246.41 228.45 239.46 228.87"/><polygon class="cls-11" points="239.04 228.3 239.07 229.81 241.59 231.34 245.19 231.41 247.69 230.15 247.62 228.49 245.2 229.85 241.62 229.9 239.04 228.3"/><polygon class="cls-23" points="239.04 228.3 238.95 226.78 239.89 225.81 240.92 226.25 245.65 226.24 246.45 225.84 247.42 226.76 247.62 228.49 245.2 229.85 241.62 229.9 239.04 228.3"/><polygon class="cls-10" points="239.89 225.81 240.92 226.25 245.65 226.24 239.23 218.56 238.63 220.01 238.82 225.13 239.89 225.81"/><polygon class="cls-25" points="245.65 226.24 246.45 225.84 246.93 224.67 244.73 221.93 242.74 221.73 242.85 222.93 245.65 226.24"/><polygon class="cls-23" points="242.85 222.93 242.74 221.73 246.59 222.12 246.69 219.48 242.96 218.01 242.88 216.8 240.58 217.25 239.23 218.56 242.85 222.93"/><polygon class="cls-11" points="239.23 218.56 240.23 216.83 242.05 215.53 243.36 215.46 243.47 216.61 242.88 216.8 240.58 217.25 239.23 218.56"/><polygon class="cls-25" points="242.88 216.8 242.96 218.01 246.69 219.48 247.49 218.68 244.91 216.69 243.47 216.61 242.88 216.8"/><path class="cls-11" d="M243.91,219.21a.71.71,0,0,1-.75.73.81.81,0,0,1-.77-.79.71.71,0,0,1,.75-.73A.81.81,0,0,1,243.91,219.21Z"/><polygon class="cls-22" points="205.31 243.4 203.41 244.68 206.87 246.51 214.05 246.66 218.18 244.63 214.41 242.84 205.31 243.4"/><polygon class="cls-26" points="205.17 243.06 205.14 244.41 207.62 245.47 213.51 245.68 215.85 244.54 215.92 242.73 213.53 243.95 207.75 243.96 205.17 243.06"/><polygon class="cls-4" points="205.17 243.06 204.7 240.8 206.63 238.4 208.51 239.19 212.69 239.13 214.18 238.37 215.84 240.14 215.92 242.73 213.53 243.95 207.75 243.96 205.17 243.06"/><polygon class="cls-7" points="206.63 238.4 207.5 237.53 207.99 234.37 210.29 234.93 212.28 234 213.1 237.47 214.18 238.37 212.69 239.13 208.51 239.19 206.63 238.4"/><polygon class="cls-4" points="207.99 234.37 210.29 234.93 212.28 234 213.47 233.44 213.5 232.41 212.19 231.62 210.23 232.63 207.92 232.07 206.79 232.51 206.77 233.46 207.99 234.37"/><polygon class="cls-26" points="207.92 232.07 206.75 229.2 210.13 230.02 212.82 228.94 212.19 231.62 210.23 232.63 207.92 232.07"/><polygon class="cls-4" points="206.75 229.2 210.13 230.02 212.82 228.94 214.03 228.49 213.88 227.68 209.97 226.61 205.61 227.93 205.64 228.93 206.75 229.2"/><polygon class="cls-7" points="208.84 227.74 206.81 227.99 206.96 228.59 209.91 229.02 212.59 228.4 212.61 227.88 208.84 227.74"/><polygon class="cls-7" points="207.13 223.64 208.42 222.71 210.59 222.7 212.06 223.6 212.25 227.26 207.39 227.39 207.13 223.64"/><polygon class="cls-24" points="208.16 228.42 212.21 228.31 212.25 227.26 210.9 227.21 210.92 226.64 212.21 226.59 212.16 225.44 210.69 225.44 210.71 224.74 212.09 224.57 212.06 223.6 207.13 223.64 207.21 224.82 208.37 224.66 208.34 225.49 207.26 225.45 207.32 226.42 208.67 226.47 208.6 227.35 207.39 227.39 207.41 228.31 208.16 228.42"/><polygon class="cls-22" points="289.23 235.97 287.26 237.37 291.07 239.36 296.68 239.53 299.68 237.35 296.8 235.52 289.23 235.97"/><polygon class="cls-11" points="288.8 235.52 288.84 236.86 291.46 238.41 295.72 238.66 298.01 237.42 298.08 235.86 295.62 237.07 291.39 236.92 288.8 235.52"/><polygon class="cls-23" points="288.8 235.52 288.79 233.89 290.56 231.95 292.2 232.73 295.13 232.81 296.27 232.22 298.09 234.32 298.08 235.86 295.62 237.07 291.39 236.92 288.8 235.52"/><polygon class="cls-25" points="290.56 231.95 291.61 230.87 291.66 228.69 293.68 229.39 295.33 228.92 295.37 231.27 296.27 232.22 295.13 232.81 292.2 232.73 290.56 231.95"/><polygon class="cls-11" points="291.66 228.69 290.47 227.12 293.81 227.54 296.48 227.17 295.33 228.92 293.68 229.39 291.66 228.69"/><polygon class="cls-25" points="290.34 224.35 291.65 223.62 295.12 223.72 296.63 224.34 295.7 225.61 293.67 225.94 291.42 225.49 290.34 224.35"/><polygon class="cls-10" points="290.47 227.12 290.34 224.35 291.68 225.1 295.8 225.22 296.63 224.34 296.48 227.17 293.81 227.54 290.47 227.12"/><polygon class="cls-22" points="157.52 242.32 155.59 243.69 159.47 245.66 165.11 245.82 168.07 243.67 165.12 241.87 157.52 242.32"/><polygon class="cls-26" points="157.08 241.87 157.15 243.19 159.83 244.72 164.12 244.97 166.39 243.74 166.42 242.2 163.98 243.4 159.72 243.25 157.08 241.87"/><polygon class="cls-11" points="157.08 241.87 157.02 240.26 158.74 238.34 160.41 239.12 163.36 239.19 164.49 238.61 166.38 240.69 166.42 242.2 163.98 243.4 159.72 243.25 157.08 241.87"/><polygon class="cls-4" points="158.74 238.34 159.77 237.28 159.75 235.12 161.8 235.81 163.44 235.35 163.56 237.67 164.49 238.61 163.36 239.19 160.41 239.12 158.74 238.34"/><polygon class="cls-26" points="159.75 235.12 158.51 233.57 161.88 233.98 164.55 233.62 163.44 235.35 161.8 235.81 159.75 235.12"/><polygon class="cls-4" points="158.29 230.82 159.59 230.11 163.09 230.2 164.63 230.82 163.73 232.08 161.69 232.4 159.41 231.96 158.29 230.82"/><polygon class="cls-24" points="158.51 233.57 158.29 230.82 159.66 231.57 163.81 231.68 164.63 230.82 164.55 233.62 161.88 233.98 158.51 233.57"/><polygon class="cls-22" points="273.94 243.54 271.9 244.98 275.77 247.03 280.75 247.05 284.13 244.92 282.65 244.04 273.94 243.54"/><polygon class="cls-11" points="273.47 243.13 273.48 244.85 275.95 246.07 280.7 246.06 282.83 244.57 282.74 242.78 280.67 244.41 276.04 244.44 273.47 243.13"/><polygon class="cls-23" points="273.47 243.13 273.45 241.4 274.79 240.23 276.48 241.33 279.65 241.18 280.91 239.91 282.44 241.04 282.74 242.78 280.67 244.41 276.04 244.44 273.47 243.13"/><polygon class="cls-25" points="274.79 240.23 275.95 239.01 275.91 237.99 277.84 238.45 279.34 237.87 279.35 238.5 280.91 239.91 279.65 241.18 276.48 241.33 274.79 240.23"/><polygon class="cls-23" points="275.91 237.99 277.84 238.45 279.34 237.87 280.32 237.13 280.32 236.58 279.74 236.02 277.47 237.08 275.16 236.12 274.83 236.68 274.89 237.35 275.91 237.99"/><polygon class="cls-10" points="275.16 236.12 274.6 235.1 274.93 233.9 277.12 232.68 280.14 233.85 280.35 234.95 279.74 236.02 277.47 237.08 275.16 236.12"/><polygon class="cls-22" points="243.88 241.45 241.97 242.79 245.58 244.72 250.23 244.74 253.38 242.74 252 241.92 243.88 241.45"/><polygon class="cls-11" points="243.43 241.06 243.45 242.68 245.76 243.82 250.18 243.82 252.16 242.41 252.08 240.74 250.15 242.26 245.83 242.29 243.43 241.06"/><polygon class="cls-23" points="243.43 241.06 243.42 239.44 244.66 238.33 246.24 239.37 249.2 239.23 250.37 238.04 251.79 239.1 252.08 240.74 250.15 242.26 245.83 242.29 243.43 241.06"/><polygon class="cls-25" points="244.66 238.33 245.74 237.19 245.71 236.23 247.51 236.66 248.91 236.12 248.91 236.71 250.37 238.04 249.2 239.23 246.24 239.37 244.66 238.33"/><polygon class="cls-23" points="245.71 236.23 247.51 236.66 248.91 236.12 249.82 235.42 249.82 234.91 249.27 234.38 247.16 235.38 245 234.48 244.69 235 244.76 235.63 245.71 236.23"/><polygon class="cls-10" points="245 234.48 244.48 233.52 244.79 232.4 246.82 231.25 249.64 232.35 249.84 233.38 249.27 234.38 247.16 235.38 245 234.48"/><polygon class="cls-22" points="237.07 251.7 234.45 252.76 239.09 256.29 244.87 256.26 249.23 253.17 247.18 252.28 237.07 251.7"/><polygon class="cls-26" points="237.07 251.7 237.05 253.5 239.59 254.86 244.78 254.83 247.29 253.38 247.18 251.37 244.59 253 239.61 253.11 237.07 251.7"/><polygon class="cls-4" points="237.07 251.7 237.14 249.59 238.54 248.04 240.18 249.1 243.83 249.04 245.09 247.92 247.03 249.52 247.18 251.37 244.59 253 239.61 253.11 237.07 251.7"/><polygon class="cls-7" points="238.54 248.04 239.58 244.55 241.78 244.86 243.68 244.45 245.09 247.92 243.83 249.04 240.18 249.1 238.54 248.04"/><polygon class="cls-24" points="239.58 244.55 238.34 244.04 238.24 242.87 239.29 242.23 241.63 242.58 243.51 241.82 244.68 242.55 244.9 243.73 243.68 244.45 241.78 244.86 239.58 244.55"/><polygon class="cls-26" points="239.29 242.23 239.35 241.38 241.36 241.77 243.5 241.28 243.51 241.82 241.63 242.58 239.29 242.23"/><polygon class="cls-4" points="239.35 241.38 237.76 240.43 237.94 238.82 239.64 236.89 241.35 237.3 242.91 236.68 244.76 238.77 244.86 240.56 243.5 241.28 241.36 241.77 239.35 241.38"/><polygon class="cls-26" points="238.6 238.06 240.6 239.92 239.23 237.35 238.6 238.06"/><polygon class="cls-24" points="239.64 236.89 239.41 235.69 241.11 234.75 242.95 235.53 242.91 236.68 241.35 237.3 239.64 236.89"/><polygon class="cls-22" points="229.9 257.31 227.73 258.8 231.85 260.92 237.15 260.94 240.76 258.73 239.18 257.83 229.9 257.31"/><polygon class="cls-26" points="229.4 256.89 229.41 258.67 232.05 259.93 237.09 259.92 239.37 258.38 239.27 256.53 237.06 258.2 232.13 258.25 229.4 256.89"/><polygon class="cls-4" points="229.4 256.89 229.38 255.1 230.81 253.88 232.6 255.03 235.99 254.87 237.32 253.56 238.95 254.73 239.27 256.53 237.06 258.2 232.13 258.25 229.4 256.89"/><polygon class="cls-7" points="230.81 253.88 232.04 252.62 232 251.56 234.06 252.04 235.66 251.44 235.66 252.1 237.32 253.56 235.99 254.87 232.6 255.03 230.81 253.88"/><polygon class="cls-4" points="232 251.56 234.06 252.04 235.66 251.44 236.7 250.67 236.7 250.11 236.08 249.52 233.66 250.62 231.2 249.63 230.84 250.21 230.91 250.9 232 251.56"/><polygon class="cls-24" points="231.2 249.63 230.6 248.57 230.96 247.33 233.28 246.06 236.51 247.28 236.74 248.42 236.08 249.52 233.66 250.62 231.2 249.63"/><polygon class="cls-22" points="240.2 260.33 237.94 261.88 242.23 264.09 247.75 264.11 251.51 261.81 249.86 260.87 240.2 260.33"/><polygon class="cls-26" points="239.68 259.89 239.69 261.75 242.44 263.05 247.69 263.05 250.06 261.44 249.96 259.52 247.66 261.26 242.53 261.3 239.68 259.89"/><polygon class="cls-4" points="239.68 259.89 239.66 258.03 241.14 256.76 243.02 257.95 246.54 257.79 247.93 256.42 249.63 257.64 249.96 259.52 247.66 261.26 242.53 261.3 239.68 259.89"/><polygon class="cls-7" points="241.14 256.76 242.43 255.45 242.38 254.34 244.53 254.84 246.2 254.22 246.2 254.9 247.93 256.42 246.54 257.79 243.02 257.95 241.14 256.76"/><polygon class="cls-4" points="242.38 254.34 244.53 254.84 246.2 254.22 247.29 253.41 247.29 252.83 246.64 252.22 244.12 253.37 241.56 252.33 241.18 252.94 241.26 253.65 242.38 254.34"/><polygon class="cls-24" points="241.56 252.33 240.93 251.23 241.3 249.94 243.72 248.61 247.08 249.88 247.32 251.07 246.64 252.22 244.12 253.37 241.56 252.33"/><polygon class="cls-22" points="219.07 262.28 216.8 263.84 221.11 266.09 227.5 266.28 231.44 263.84 229.5 261.69 219.07 262.28"/><polygon class="cls-26" points="218.96 262.09 218.97 263.78 221.42 265.12 227.15 265.19 229.86 263.65 229.87 261.83 227.1 263.46 221.36 263.43 218.96 262.09"/><polygon class="cls-4" points="218.96 262.09 218.94 259.83 220.38 258.49 222.29 259.56 226.15 259.57 227.56 258.31 229.64 260.26 229.87 261.83 227.1 263.46 221.36 263.43 218.96 262.09"/><polygon class="cls-7" points="220.38 258.49 221.83 257.05 221.86 254.86 223.87 255.46 226.06 254.97 226.06 257.03 227.56 258.31 226.15 259.57 222.29 259.56 220.38 258.49"/><polygon class="cls-4" points="221.86 254.86 220.44 254.24 220.39 253 221.39 252.24 223.77 253.07 225.92 252.27 227.02 252.84 227.11 254.12 226.06 254.97 223.87 255.46 221.86 254.86"/><polygon class="cls-26" points="221.39 252.24 221.43 250.33 223.86 251.08 226.01 250.36 225.92 252.27 223.77 253.07 221.39 252.24"/><polygon class="cls-4" points="221.43 250.33 223.86 251.08 226.01 250.36 227.71 249.62 225.18 246.94 223.34 247.72 221.78 246.95 219.68 249.55 221.43 250.33"/><polygon class="cls-24" points="221.78 246.95 221.77 245.83 222.69 244.91 224.03 244.96 225.18 245.77 225.18 246.94 223.34 247.72 221.78 246.95"/><polygon class="cls-14" points="131.29 233.77 152.65 241.13 151.46 248.5 141.73 245.47 144.63 253.09 136.48 272.58 120.95 257 131.29 233.77"/><polygon class="cls-3" points="141.73 245.47 131.29 233.77 152.65 241.13 151.46 248.5 141.73 245.47"/></svg>



