<svg id="illustration" xmlns="http://www.w3.org/2000/svg" viewBox="0 0 400 400"><defs><style>.cls-1{fill:#ececeb;}.cls-2{fill:#c4c4c4;}.cls-3{fill:#dfbda5;}.cls-4{fill:#cececd;}.cls-5{fill:#9da1a2;}.cls-20,.cls-6{fill:#2b2b2b;}.cls-6{opacity:0.1;}.cls-7{fill:#594165;}.cls-8{fill:#96637c;}.cls-9{fill:#a688ba;}.cls-10{fill:#8b6651;}.cls-11{fill:#d1a1b8;}.cls-12{fill:#785d88;}.cls-13{fill:#c3987b;}.cls-14{fill:#e8cab6;}.cls-15{fill:none;}.cls-16{fill:#474747;}.cls-17{fill:#b3889d;}.cls-18{fill:#734d60;}.cls-19{fill:#9075a0;}</style></defs><title>Architect (INTJ) personality</title><polygon class="cls-1" points="345.36 91.78 345.36 0.01 211.56 0.01 211.56 91.78 345.36 91.78"/><polygon class="cls-2" points="219.01 0.01 77.84 0.01 77.84 91.78 211.56 91.78 219.01 0.01"/><polygon class="cls-1" points="345.36 87.59 211.56 87.59 211.56 169.46 345.36 169.46 345.36 87.59"/><polygon class="cls-3" points="259.01 149.5 280.85 139.59 287.72 149.5 264.5 155.43 259.01 149.5"/><polygon class="cls-4" points="77.84 87.59 77.84 169.46 211.56 169.46 211.56 87.59 77.84 87.59"/><path class="cls-5" d="M235.5,52.44h-1.59l.07-3.11h6.08l.07,3.11Zm-7.74-.07h0c-2.09,0-4.12,0-6.14-.08l.07-3.1c2,.07,4.05.07,6.15.07Zm18.52,0h0l-.07-3.11c2-.07,4.12-.07,6.14-.15l.08,3.11C250.4,52.29,248.3,52.29,246.28,52.37Zm-30.81-.22h0c-2.1-.07-4.12-.14-6.22-.36l.14-3.11c2,.14,4.13.29,6.15.36ZM203.1,51.5h0L197,51.07l.21-3.11c2,.14,4.05.28,6.15.36Zm-12.29-.94h0c-2.17-.29-4.2-.44-6.15-.72l.29-3,6.07.65Zm-12.37-1.37h0c-1.95-.22-4.12-.51-6-.87l.36-3c1.95.29,4,.51,6.08.8Zm-12.15-1.67h0c-2.1-.36-4.12-.72-6.07-1l.5-3.11c2,.29,3.91.65,6.08,1Zm-12.22-2.24h0c-2-.29-4-.72-6.08-1.16l.66-3.11,6,1.3ZM142,42.82h0c-2-.51-4.05-1-6-1.52l.79-3c2,.51,3.91,1,5.86,1.38Zm-11.93-3.18h0c-2-.58-4-1.16-6-1.74l.94-3c2,.57,3.83,1.15,5.85,1.8ZM118.2,36h0c-2-.65-4-1.3-5.86-2l1.08-2.9c1.88.65,3.84,1.3,5.79,2Zm-11.65-4.27h0c-2-.79-3.9-1.59-5.71-2.38l1.23-2.82c1.88.72,3.69,1.59,5.64,2.31Zm-11.35-5h0c-2-.94-3.76-1.88-5.57-2.74l1.52-2.83c1.66.94,3.54,1.88,5.35,2.83ZM84.21,21h0c-2-1.09-3.69-2.1-5.36-3.18l1.67-2.61c1.66,1,3.4,2,5.2,3.11Z"/><polygon class="cls-6" points="80.01 389.15 176.85 400 281.21 386.76 175.75 377.47 80.01 389.15"/><polygon class="cls-7" points="125.94 385.19 122.83 388.74 123.04 393.15 151.61 392.93 151.18 388.37 125.94 385.19"/><path class="cls-5" d="M223.06,125l-1.51-2.68c1.8-1,3.54-2.1,5.2-3.18l1.67,2.6C226.75,122.88,224.87,123.89,223.06,125Zm10.56-6.8h0l-1.81-2.53c1.67-1.23,3.26-2.53,4.78-3.76l2,2.31A55.82,55.82,0,0,1,233.62,118.18Zm9.69-8.17h0l-2.17-2.24a59.3,59.3,0,0,0,4.13-4.49l2.38,2.1C246.28,106.9,244.83,108.49,243.31,110Zm8.25-9.69h0l-2.46-1.74c1.16-1.73,2.24-3.4,3.25-5.13L255,95A48.38,48.38,0,0,1,251.56,100.32ZM258,89.4h0L255.25,88c.72-1.88,1.59-3.69,2.24-5.64l2.89,1A58.24,58.24,0,0,1,258,89.4Zm4.2-12.08h0l-3-.72c.51-2,.87-4,1.23-6l3.11.51C263.13,73.2,262.7,75.29,262.19,77.32Zm1.95-12.51h0L261,64.52c.07-1.67.15-3.4.15-5.07v-1l3.11-.07v1.08C264.29,61.26,264.21,63,264.14,64.81Zm-5.06-24.67h0c-.43-2-.94-4-1.45-5.93l3-.86c.51,2,1,4.12,1.45,6.14ZM255.9,28.28h0c-.58-2-1.3-4-2-5.85l3-1c.72,2,1.37,3.84,2,5.86Zm-4.34-11.57h0c-.72-2-1.59-3.83-2.39-5.71L252,9.7c.87,2,1.74,3.76,2.53,5.78ZM246.42,5.5h0c-.86-1.95-1.88-3.83-2.82-5.49h3.53c.91,1.66,1.1,2.1,2.11,4.06Z"/><polygon class="cls-3" points="259.44 203.95 266.75 161.5 256.33 157.02 240.64 193.03 246.21 203.95 259.44 203.95"/><polygon class="cls-8" points="240.64 193.03 205.34 169.89 211.78 210.82 231.45 216.61 242.66 203.01 240.64 193.03"/><polygon class="cls-9" points="259.44 203.95 240.64 193.03 231.45 216.61 255.61 223.77 259.44 203.95"/><polygon class="cls-3" points="197.32 326.75 210.26 333.19 224.8 367.33 226.39 374.34 219.81 386.35 182.42 340.35 183.65 331.38 142.21 291.03 197.32 326.75"/><polygon class="cls-10" points="182.42 340.35 210.26 333.19 182.78 321.33 174.54 330.81 182.42 340.35"/><polygon class="cls-3" points="123.4 310.19 119.08 327.71 125.36 380.06 134.61 377.67 139.68 371.23 148.14 341.15 123.4 310.19"/><polygon class="cls-10" points="148.14 341.15 119.08 327.71 141.48 322.78 152.33 327.33 148.14 341.15"/><polygon class="cls-11" points="187.26 161.35 205.34 169.89 214.68 211.69 169.62 259.43 210.26 333.19 130.06 327.77 123.84 257.9 135.27 220.88 187.26 161.35"/><polygon class="cls-7" points="91.66 160.49 77.84 156.73 91.66 142.7 109.74 157.38 91.66 160.49"/><polygon class="cls-7" points="220.75 36.17 244.04 69 219.01 117.17 198.62 104.51 220.75 36.17"/><polygon class="cls-12" points="91.66 142.7 91.66 160.49 124.85 169.46 140.04 158.25 123.12 83.54 107.71 91.2 91.66 142.7"/><polygon class="cls-7" points="91.66 99.09 102.87 119.55 140.04 158.25 123.12 83.54 101.35 82.02 91.66 99.09"/><polygon class="cls-3" points="220.75 47.52 220.75 142.91 211.56 143.71 182.27 149.93 157.25 178.13 140.04 158.25 143.08 120.93 113.06 88.53 154.57 59.82 170.85 60.47 211.56 43.47 220.75 47.52"/><polygon class="cls-7" points="91.66 50.85 134.69 6.66 209.9 3.62 142.35 41.3 91.66 50.85"/><polygon class="cls-1" points="140.04 158.25 140.26 177.34 145.68 193.03 157.25 178.13 140.04 158.25"/><polygon class="cls-13" points="152.84 68.93 155.66 147.76 148.65 147.76 163.69 169.89 157.25 178.13 140.04 158.25 127.45 125.77 136.71 104.29 133.82 96.63 137.29 68.5 152.84 68.93"/><polygon class="cls-10" points="148.65 147.76 202.45 144.43 163.69 169.89 148.65 147.76"/><path class="cls-13" d="M181.33,162.37c-.36-.58-11.78-.8-11.78-.8l-3.26-22.2,4.27-1.52,8.32,9.55Z"/><polygon class="cls-14" points="198.76 107.98 187.55 108.27 186.11 66.76 197.32 66.54 198.76 107.98"/><polygon class="cls-15" points="220.75 86.65 220.75 70.16 199.49 71.61 200.06 88.09 220.75 86.65"/><polygon class="cls-15" points="158.91 90.41 186.98 88.89 186.4 72.11 158.34 73.85 158.91 90.41"/><polygon class="cls-8" points="158.91 90.41 158.34 73.85 186.4 72.11 186.11 66.76 152.84 68.93 153.85 96.05 187.12 94.17 186.98 88.89 158.91 90.41"/><polygon class="cls-8" points="226.1 64.52 197.25 66.33 197.46 71.61 220.75 70.16 220.75 86.65 197.97 88.09 198.11 93.45 226.1 91.64 226.1 64.52"/><polygon class="cls-16" points="186.11 61.34 182.27 66.54 164.84 63.36 148.14 59.96 170.92 60.47 186.11 61.34"/><polygon class="cls-16" points="198.04 57.86 201.95 65.67 219.59 55.26 204.84 58.95 198.04 57.86"/><polygon class="cls-7" points="126.59 77.1 129.34 94.97 133.82 96.63 137.87 95.04 141.56 74.42 126.59 77.1"/><polygon class="cls-10" points="198.76 107.98 194.06 111.74 187.55 108.27 198.76 107.98"/><polygon class="cls-8" points="199.2 128.38 167.09 121.58 183.22 119.05 199.2 128.38"/><polygon class="cls-2" points="277.6 169.89 289.6 169.89 294.95 153.4 277.6 157.38 277.6 169.89"/><polygon class="cls-11" points="167.09 121.58 172 128.38 193.41 127.8 199.2 128.38 189.8 124.91 167.09 121.58"/><polygon class="cls-1" points="172 184.64 191.17 193.03 187.26 161.35 172 184.64"/><polygon class="cls-17" points="214.68 211.69 155.66 209.59 135.27 220.88 143.29 252.84 178.8 271.14 185.02 262.75 214.68 211.69"/><polygon class="cls-18" points="110.53 253.2 138.45 314.53 174.68 330.88 210.26 333.19 185.02 262.75 150.67 242.94 110.53 253.2"/><polygon class="cls-19" points="91.66 142.7 140.04 158.25 91.66 99.09 91.66 142.7"/><polygon class="cls-3" points="136.71 104.29 126.88 110.66 121.31 109.72 113.06 88.53 128.11 81.3 136.71 104.29"/><polygon class="cls-9" points="287.72 157.38 247.44 157.38 247.44 149.5 287.72 149.5 287.72 157.38"/><polygon class="cls-13" points="256.4 157.38 265.66 167.5 281.72 154.12 277.38 150.51 267.61 157.38 256.4 157.38"/><polygon class="cls-7" points="287.72 149.5 294.95 153.4 287.72 157.38 287.72 149.5"/><path class="cls-5" d="M262.7,55.91a6.62,6.62,0,0,1,0-13.23,6.62,6.62,0,1,1,0,13.23Zm0-10.12h0a3.51,3.51,0,1,0,3.54,3.54A3.5,3.5,0,0,0,262.7,45.79Z"/><path class="cls-5" d="M312.67,65.6c-1.52,0-3-.07-4.41-.07l.07-3.11c2,0,4.05.07,6.15,0v3.11A15.65,15.65,0,0,1,312.67,65.6Zm8.17-.29h0l-.29-3.18c2-.07,4.05-.29,6.08-.51l.43,3C324.89,65,322.87,65.17,320.84,65.31ZM302,65.1h0c-2.17-.22-4.27-.51-6.22-.8l.43-3.18c2,.36,3.91.65,6.08.87Zm31.17-1.23h0l-.51-3.11c2-.29,4-.73,6.08-1.16l.58,3C337.26,63.07,335.23,63.5,333.21,63.87Zm-43.61-.8h0c-2-.51-4.12-1-6.07-1.59l.93-3c1.81.58,3.84,1.09,5.86,1.59Zm-12.08-3.62h0c-1.95-.79-4-1.66-5.78-2.53l1.44-2.82c1.74.87,3.62,1.67,5.5,2.39Z"/><polygon class="cls-5" points="298.28 124.04 306.96 118.03 286.78 115.29 298.28 124.04"/><polygon class="cls-5" points="286.85 43.11 295.53 37.83 275.43 35.37 286.85 43.11"/><polygon class="cls-18" points="300.3 119.7 297.26 119.7 297.26 96.27 300.3 96.27 300.3 119.7"/><polygon class="cls-17" points="283.74 105.02 297.26 96.27 297.26 110.44 283.74 105.02"/><polygon class="cls-18" points="288.51 39.93 285.48 39.93 285.48 16.5 288.51 16.5 288.51 39.93"/><polygon class="cls-17" points="271.95 25.17 285.48 16.5 285.48 30.67 271.95 25.17"/><polygon class="cls-5" points="326.85 32.26 335.45 26.84 315.35 24.52 326.85 32.26"/><polygon class="cls-18" points="328.44 29.01 325.4 29.01 325.4 5.58 328.44 5.58 328.44 29.01"/><polygon class="cls-17" points="311.87 14.33 325.4 5.58 325.4 19.68 311.87 14.33"/><polygon class="cls-8" points="110.53 253.2 174.68 330.88 119.08 327.71 110.53 253.2"/><polygon class="cls-13" points="183.22 89.03 177 76.67 158.41 77.1 158.34 73.85 186.4 72.11 186.98 88.89 183.22 89.03"/><polygon class="cls-13" points="197.97 88.09 201.44 75.29 213.81 70.67 197.46 71.61 197.97 88.09"/><polygon class="cls-13" points="198.47 97.86 214.17 92.43 198.19 93.45 198.47 97.86"/><polygon class="cls-13" points="153.85 96.05 187.12 99.88 187.12 94.17 153.85 96.05"/><polygon class="cls-11" points="124.85 169.46 140.04 158.25 145.68 193.03 130.28 185.87 124.85 169.46"/><polygon class="cls-9" points="145.68 193.03 127.09 191.66 125.86 219.29 149.22 236.28 163.4 209.81 161.01 183.56 145.68 193.03"/><path class="cls-3" d="M169.55,161.57,145.68,193l17.65,16.71,20.1-42.53s-4.19-5.56-4.12-4.33-2.1-11.29-2.1-11.29Z"/><polygon class="cls-8" points="107.35 205.25 119.43 214.37 121.67 221.31 125.86 219.29 145.68 193.03 124.85 169.46 107.35 205.25"/><polygon class="cls-10" points="121.6 110.66 127.45 125.77 136.71 104.29 121.31 109.72 121.6 110.66"/><polygon class="cls-10" points="117.19 90.41 125.65 86.86 130.13 98.15 117.19 90.41"/><polygon class="cls-12" points="63.96 61.99 91.66 99.09 170.85 60.47 203.32 48.32 220.82 36.24 231.45 31.03 208.31 24.23 63.96 61.99"/><polygon class="cls-9" points="63.96 61.99 231.45 31.03 219.01 0.01 63.96 61.99"/><polygon class="cls-13" points="177.21 145.74 169.55 161.57 183.43 167.21 211.56 143.71 177.21 145.74"/><path class="cls-12" d="M247.15,383.17l-2.24,2.6c-9.84.43-14.47.72-24.67,1.08l-10.41-4.41-1.37-10,16.34-5.13Z"/><polygon class="cls-7" points="247.15 383.17 209.83 382.44 210.41 388.37 247.07 388.37 247.15 383.17"/><polygon class="cls-8" points="149.22 236.28 185.02 262.75 110.53 253.2 115.02 233.46 129.19 228.62 149.22 236.28"/><polygon class="cls-18" points="149.22 236.28 115.02 233.46 119.43 214.37 149.22 236.28"/><polygon class="cls-10" points="220.75 47.52 170.92 60.47 208.96 41.95 220.82 36.24 220.75 47.52"/><path class="cls-20" d="M215.83,70.88a4.31,4.31,0,0,0,0,8.61,4.31,4.31,0,1,0,0-8.61Z"/><path class="cls-20" d="M180.76,73a4.25,4.25,0,0,0-4.34,4.27,4.36,4.36,0,0,0,4.34,4.34A4.29,4.29,0,0,0,185,77.25,4.18,4.18,0,0,0,180.76,73Z"/><polygon class="cls-12" points="139.68 371.23 151.18 388.37 122.83 388.74 124.34 371.74 139.68 371.23"/></svg>



