<svg id="illustration" xmlns="http://www.w3.org/2000/svg" viewBox="0 0 400 400"><defs><style>.cls-1,.cls-11{fill:#4f5253;}.cls-1,.cls-19,.cls-2,.cls-20,.cls-21,.cls-22,.cls-23,.cls-24,.cls-25,.cls-26,.cls-27,.cls-28,.cls-29,.cls-31,.cls-34{fill-rule:evenodd;}.cls-10,.cls-2{fill:#474747;}.cls-20,.cls-3{fill:#6f7173;}.cls-17,.cls-24,.cls-33,.cls-4{fill:#2b2b2b;}.cls-4{opacity:0.1;}.cls-22,.cls-5{fill:#8b6651;}.cls-26,.cls-6{fill:#785d88;}.cls-23,.cls-7{fill:#594165;}.cls-8{fill:#734d60;}.cls-9{fill:#543042;}.cls-12,.cls-28{fill:#dfbda5;}.cls-13,.cls-27{fill:#c3987b;}.cls-14{fill:#ececeb;}.cls-15{fill:#c4c4c4;}.cls-16,.cls-34{fill:#a688ba;}.cls-17{opacity:0.2;}.cls-18{fill:#fff;}.cls-19{fill:#7f5d4e;}.cls-21{fill:#a3a3a3;}.cls-25{fill:#9da1a2;}.cls-29{fill:#cececd;}.cls-30{fill:#dddddc;}.cls-31{fill:#737373;}.cls-32{fill:#e8cab6;}</style></defs><title>Logician (INTP) personality</title><polygon class="cls-1" points="208.14 80.24 221.72 61.94 229.98 83.36 210.2 108.39 208.14 80.24"/><polygon class="cls-2" points="209.7 104.74 212.31 133.02 230.42 117.07 222.86 91.89 209.7 104.74"/><polygon class="cls-3" points="207.07 40.5 221.72 61.94 209.25 81.24 207.07 66.85 207.07 40.5"/><polygon class="cls-4" points="267.7 383.11 168.61 367.21 70.39 386.45 167.28 400 267.7 383.11"/><polygon class="cls-5" points="188.94 140.19 145.79 144.59 172.74 165.48 188.94 140.19"/><polygon class="cls-6" points="138.17 362.52 148.54 383.6 129.48 387.45 107.29 383.6 111.11 365.19 127.79 358.83 138.17 362.52"/><rect class="cls-7" x="107.29" y="383.6" width="41.25" height="7.7"/><polygon class="cls-6" points="217.16 353.49 249.83 377.25 219 379.6 196.41 377.25 196.1 368.21 207.79 354.27 217.16 353.49"/><polygon class="cls-7" points="249.83 377.25 249.71 384.95 196.1 384.95 196.41 377.25 249.83 377.25"/><polygon class="cls-8" points="165.62 308.97 179.14 334.38 201.81 338.43 213.75 311.61 208.12 263.95 178.34 285.96 165.62 308.97"/><polygon class="cls-8" points="165.62 308.97 138.17 362.52 130.8 336.75 111.11 365.19 115.76 274.54 130.48 247.05 143.19 268.97 165.62 308.97"/><polygon class="cls-9" points="210.95 284.31 165.62 308.97 115.4 288.31 115.76 274.54 208.86 268.89 210.95 284.31"/><polygon class="cls-10" points="100.49 117.97 103.48 139.23 132.84 145.33 127.39 121.31 117.8 113.09 108.58 108.17 100.49 117.97"/><polygon class="cls-11" points="85.44 87.65 100.49 117.97 113.99 114.83 110 89.51 85.44 87.65"/><polygon class="cls-12" points="207.07 40.5 213.99 138.68 145.79 144.59 129.56 27.32 207.07 40.5"/><polygon class="cls-13" points="133.38 50.47 145.79 144.59 172.74 165.48 169.59 205.36 156.48 189.45 136.86 151.44 132.84 145.33 121.74 120.94 113.99 114.83 108.29 94.31 117.11 82.95 122.34 51.81 133.38 50.47"/><polygon class="cls-3" points="119.85 61.94 134.87 64.33 125.5 90.49 108.29 94.31 85.44 87.65 103.41 76.1 119.85 61.94"/><polygon class="cls-5" points="122.25 108.17 117.94 96.74 112.03 99.39 122.25 108.17"/><polygon class="cls-10" points="134.87 64.33 85.44 87.65 98.41 61.74 119.85 61.94 134.87 64.33"/><polygon class="cls-14" points="136.9 151.57 149.21 219.78 147.91 286.46 161.27 288.89 171.31 275.17 178.58 287.55 190.38 286.46 185.67 211.25 182.28 150.33 162.6 181.13 165.38 198.68 162.6 181.13 136.9 151.57"/><polygon class="cls-15" points="162.6 181.13 183.35 190.83 182.84 171.75 162.6 181.13"/><polygon class="cls-15" points="162.6 181.13 146.71 195.12 135.62 176.55 143.47 174.82 162.6 181.13"/><polygon class="cls-6" points="182.28 150.33 193.27 154.29 206.82 160.04 208.86 268.89 190.38 286.46 179.26 215.27 185.67 189.49 182.28 150.33"/><polygon class="cls-6" points="136.9 151.57 143.47 188.15 159.75 217.77 147.91 286.46 115.76 274.54 118.34 229.1 106.53 162.05 136.9 151.57"/><polygon class="cls-16" points="122.24 156.17 124.12 189.81 159.72 217.64 136.86 151.44 122.24 156.17"/><polygon class="cls-16" points="182.28 150.33 193.27 154.29 204.48 182.74 179.26 215.27 182.89 171.76 182.28 150.33"/><polygon class="cls-17" points="148.38 184.88 125.55 178.78 145.36 176.06 148.38 184.88"/><polygon class="cls-17" points="199.42 174.82 182.09 181.29 182.84 171.75 199.42 174.82"/><polygon class="cls-18" points="146.61 175.89 125.55 178.78 136.9 151.57 146.61 175.89"/><polygon class="cls-18" points="182.84 171.75 199.42 174.82 182.28 150.33 182.84 171.75"/><polygon class="cls-9" points="213.75 311.61 217.16 353.49 196.1 368.21 179.14 334.38 213.75 311.61"/><polygon class="cls-9" points="138.17 362.52 111.11 365.19 113.33 321.98 154.02 331.66 138.17 362.52"/><path class="cls-19" d="M206.73,160.08h0Z"/><polygon class="cls-20" points="328.27 180.03 321.83 176.82 230.58 179.94 227.06 244.47 295.54 242.35 318.69 241.63 322.56 236.86 328.27 180.03"/><polygon class="cls-21" points="328.27 180.03 321.83 176.82 230.59 179.94 235.13 183.54 328.27 180.03"/><polygon class="cls-22" points="236.66 244.17 258.93 251.74 262.74 243.38 236.66 244.17"/><polygon class="cls-2" points="322.56 236.86 231.94 239.97 227.06 244.47 318.69 241.63 322.56 236.86"/><polygon class="cls-23" points="206.82 160.04 228.74 213.74 208.07 232.94 206.82 160.04"/><polygon class="cls-24" points="268.39 238.72 260.87 238.99 261.13 243.41 261.14 243.41 267.34 243.22 268.39 238.72"/><polygon class="cls-25" points="228.16 224.67 205.13 225.41 227.35 239.36 227.06 244.47 228.16 224.67"/><polygon class="cls-20" points="205.13 225.41 227.44 237.72 227.06 244.47 205.77 231.92 205.13 225.41"/><polygon class="cls-26" points="228.16 224.67 228.74 213.74 210.11 225.26 228.16 224.67"/><polygon class="cls-1" points="230.59 179.94 235.13 183.54 231.94 239.97 227.44 237.72 230.59 179.94"/><polygon class="cls-27" points="282.16 251.12 292.72 237.64 265.03 238.36 258.93 251.74 282.16 251.12"/><polygon class="cls-28" points="292.72 237.64 291.59 222.9 269.12 228.34 265.03 238.36 292.72 237.64"/><polygon class="cls-29" points="278.34 201.98 280.3 192.63 284.63 202.43 294.45 202.43 286.59 208.66 290.52 217.13 280.3 212.67 273.23 218.91 275.19 209.55 267.73 204.21 278.34 201.98"/><polygon class="cls-30" points="147.91 286.46 161.27 288.89 171.31 275.17 162.6 181.13 150.74 191.54 159.75 217.77 147.91 286.46"/><polygon class="cls-1" points="98.41 61.74 98.68 27.83 132.86 66.34 98.41 61.74"/><polygon class="cls-31" points="132.86 66.34 134.87 64.33 130.88 17.4 98.68 27.83 132.86 66.34"/><polygon class="cls-2" points="134.87 64.33 130.88 17.4 139.26 9.68 152.92 0 145.6 48.21 134.87 64.33"/><polygon class="cls-20" points="145.6 48.21 169.5 48.21 169.01 13.2 152.92 0 145.6 48.21"/><polygon class="cls-20" points="169.01 13.2 195.84 7.24 192.43 48.48 169.5 48.21 169.01 13.2"/><polygon class="cls-1" points="192.43 48.48 208.7 64.14 207.07 40.5 195.84 7.24 192.43 48.48"/><polygon class="cls-2" points="169.01 13.2 195.84 7.24 180.72 23.33 169.5 48.21 169.01 13.2"/><polygon class="cls-2" points="207.07 40.5 201.94 25.53 223.16 30.16 221.72 61.94 207.07 40.5"/><polygon class="cls-3" points="113.99 114.83 125.84 113.44 132.84 145.33 113.99 114.83"/><polygon class="cls-32" points="182.32 79.13 189.15 105.79 174.89 107.42 176.52 80.75 182.32 79.13"/><polygon class="cls-11" points="185.58 71.11 201.76 70.08 206.81 75.44 204.31 76.82 200.69 73.55 185.41 76.38 185.58 71.11"/><polygon class="cls-11" points="170.96 77.18 170.64 72.32 156.33 72.97 145.92 80.13 146.57 81.73 158.61 77.5 170.96 77.18"/><polygon class="cls-13" points="146.57 81.73 158.61 77.5 170.96 77.18 176.52 80.75 174.89 107.42 160.88 86.93 146.57 81.73"/><polygon class="cls-13" points="185.41 76.38 200.69 73.55 204.31 76.82 193.61 83.02 189.15 105.79 182.32 79.13 185.41 76.38"/><polygon class="cls-5" points="174.89 107.42 189.15 105.79 183.32 111.97 174.89 107.42"/><circle class="cls-33" cx="160.11" cy="88.07" r="3.66"/><circle class="cls-33" cx="194.38" cy="85.27" r="3.66"/><polygon class="cls-13" points="195.37 123.23 190.72 128.67 176.3 130.09 166.11 123 183.21 121.22 195.37 123.23"/><polygon class="cls-5" points="183.17 118.83 197.19 121.46 195.37 123.23 166.52 123.15 163.38 121.67 183.17 118.83"/><polygon class="cls-23" points="106.53 162.05 82.25 224.07 118.34 229.1 106.53 162.05"/><polygon class="cls-28" points="154.08 224.97 92.28 213.45 96.3 248.33 155.07 244.93 154.08 224.97"/><polygon class="cls-28" points="188.48 219.94 190.24 239.2 175.81 245.25 167.63 230.22 173.04 215.57 188.48 219.94"/><polygon class="cls-27" points="173.04 215.57 154.08 224.97 155.07 244.93 175.81 245.25 173.04 215.57"/><polygon class="cls-34" points="86.81 212.31 82.25 224.07 96.3 248.33 117.32 247.12 116.39 217.94 86.81 212.31"/></svg>



