<svg id="illustration" xmlns="http://www.w3.org/2000/svg" viewBox="0 0 400 400"><defs><style>.cls-1,.cls-14{fill:#2b2b2b;}.cls-1{fill-opacity:0.1;}.cls-2{fill:#3aa0ba;}.cls-2,.cls-3,.cls-4,.cls-5{fill-rule:evenodd;}.cls-3,.cls-9{fill:#27788c;}.cls-4{fill:#4f5253;}.cls-5{fill:#474747;}.cls-6{fill:#318fa6;}.cls-7{fill:#c3987b;}.cls-8{fill:#1c7678;}.cls-10{fill:#dfbda5;}.cls-11{fill:#8b6651;}.cls-12{fill:#369496;}.cls-13{fill:#165e60;}.cls-15{fill:#e8cab6;}.cls-16{fill:#fff;}.cls-17{fill:#72cbcc;}.cls-18{fill:#50a9aa;}.cls-19{opacity:0.1;}.cls-20{fill:#8ce0dc;}.cls-21{fill:#ececeb;}.cls-22{fill:#cececd;}.cls-23{fill:#dddddc;}</style></defs><title>Defender (ISFJ) personality</title><polygon class="cls-1" points="189.06 376.45 99.07 387.82 186.24 400.11 277.93 386.02 189.06 376.45"/><polygon class="cls-2" points="229.63 280.52 209.74 387.78 190.28 387.37 185.4 286.61 182.9 274.11 193.61 281.84 216.09 271.47 229.63 280.52"/><polygon class="cls-2" points="180.25 270.08 185.4 286.61 170.35 364.19 141.19 393.47 143.71 270.48 180.25 270.08"/><path class="cls-3" d="M222.06,278.35l-32.17,6L148.8,267.56,158,243.61s66.37,6.72,65.67,7.88S222.06,278.35,222.06,278.35Z"/><polygon class="cls-4" points="162.53 344.23 173.52 347.93 170.35 364.19 182.74 389.66 141.19 388.38 142.09 347.64 143.25 344.46 162.53 344.23"/><polygon class="cls-5" points="174.77 341.54 173.52 347.93 142.09 347.64 142.23 341.43 174.77 341.54"/><polygon class="cls-5" points="182.74 389.66 182.66 394.39 141.19 393.47 141.19 388.38 182.74 389.66"/><polygon class="cls-5" points="224.31 377.72 231.93 383.78 231.85 388.23 190.28 387.37 190.04 382.61 192.71 361.94 224.31 377.72"/><polygon class="cls-4" points="214.67 340.96 217.54 344.48 214.7 359.72 231.93 383.78 190.04 382.61 188.18 344.18 188.75 341.18 214.67 340.96"/><polygon class="cls-5" points="218.69 338.42 217.54 344.48 188.18 344.18 187.91 338.3 218.69 338.42"/><polygon class="cls-6" points="185.4 286.61 229.24 281.78 224.9 305.61 186.65 312.57 185.4 286.61"/><polygon class="cls-6" points="143.57 284.78 142.82 311.99 180.29 312.94 185.4 286.61 143.57 284.78"/><polygon class="cls-7" points="242.24 215.1 235.66 193.08 217.64 202.87 241.07 238.91 242.24 215.1"/><polygon class="cls-8" points="207.57 127.45 249.18 93.69 251.11 62.57 230.37 71.13 220.96 88.14 227.7 102.68 207.57 127.45"/><polygon class="cls-9" points="217.83 180.02 221.53 154.77 241.96 188.95 214.76 207.66 217.83 180.02"/><polygon class="cls-9" points="148.03 204.47 143.92 201.95 109.45 191.99 131.9 152.28 148.03 204.47"/><polygon class="cls-9" points="143.92 201.95 221.89 199.41 233.32 283.36 137.07 290.09 140.13 237.73 143.92 201.95"/><polygon class="cls-6" points="221.53 154.77 195.38 140.02 186.59 139.38 157.84 142.23 131.9 152.28 138.35 175.88 143.92 201.95 221.89 199.41 222.75 174.98 221.53 154.77"/><polygon class="cls-10" points="267.75 220.91 263.81 213.77 242.24 215.1 241.07 238.91 262.88 231.47 267.75 220.91"/><polygon class="cls-7" points="296.07 221.78 295.01 237.24 275.68 238.55 276.11 228.01 282.12 219.69 296.07 221.78"/><polygon class="cls-10" points="262.88 231.47 275.68 238.55 282.12 219.69 277.65 214.22 269.41 221.45 262.88 231.47"/><polygon class="cls-11" points="203.7 128.49 196.8 127.16 166.44 131.34 179.31 146.13 189.53 152.55 203.7 128.49"/><polygon class="cls-7" points="172.15 133.24 189.53 152.22 184.32 160.49 156.07 143.11 151.32 117.11 140.93 75.81 133.57 46.11 153.34 48.68 160.47 96.14 194.6 127.18 172.15 133.24"/><polygon class="cls-7" points="287.54 210.21 288.13 213.52 262.88 231.47 263.81 213.77 287.54 210.21"/><polygon class="cls-12" points="161.03 0.11 212.05 4.86 231.07 18.01 215.52 27.66 115.69 43.25 116.83 30.75 161.03 0.11"/><polygon class="cls-8" points="158.86 9.96 115.69 43.25 114.63 54.05 125.36 69.77 160.21 21.03 158.86 9.96"/><polygon class="cls-13" points="180.69 38.9 166.03 22.63 231.07 18.01 251.11 62.57 231.24 94.53 180.69 38.9"/><polygon class="cls-10" points="232.77 125.17 166.07 134.11 146.25 49.74 164.79 32.63 231.38 38.96 232.77 125.17"/><polygon class="cls-7" points="214.12 71.92 225.01 61.6 215.79 61.53 203.31 63.82 197.73 72.74 198.79 85.88 204.16 93.31 214.12 71.92"/><polygon class="cls-7" points="193.44 73.31 196.03 85.96 191.93 94.72 177.88 74.85 162.55 69.3 169.93 65.75 185.84 65.43 193.44 73.31"/><path class="cls-14" d="M178.16,70.61a3.77,3.77,0,1,0,4.24,3.23A3.77,3.77,0,0,0,178.16,70.61Z"/><polygon class="cls-11" points="198.63 98.26 204.16 93.31 198.16 92.93 191.93 94.72 198.63 98.26"/><polygon class="cls-15" points="191.9 71.95 198.9 70.61 204.16 93.31 191.93 94.72 191.9 71.95"/><path class="cls-14" d="M213.75,66.73A3.77,3.77,0,1,0,218,70,3.77,3.77,0,0,0,213.75,66.73Z"/><polygon class="cls-13" points="225.01 61.6 215.79 61.53 203.31 63.82 204.78 58.64 217.35 57.1 225.01 61.6"/><polygon class="cls-13" points="162.55 69.3 169.93 65.75 185.84 65.43 184.09 60.4 170.67 60.96 162.55 69.3"/><polygon class="cls-8" points="231.07 18.01 251.11 62.57 169.93 34.25 160.21 21.03 231.07 18.01"/><polygon class="cls-8" points="161.03 0.11 212.05 4.86 158.86 9.96 161.03 0.11"/><polygon class="cls-12" points="169.93 34.25 251.11 62.57 244.73 48.47 167.65 31.23 169.93 34.25"/><polyline class="cls-7" points="169.93 34.25 231.8 61.53 231.72 55.8 169.93 34.25"/><polygon class="cls-13" points="126.07 90.74 140.93 75.81 151.32 117.11 126.07 90.74"/><polygon class="cls-8" points="112.96 95.87 153.9 131.36 151.32 117.11 140.5 100.63 130.9 87.87 112.96 95.87"/><polygon class="cls-10" points="146.48 97.41 140.5 100.63 130.9 87.87 132.95 75.6 140.93 75.81 146.48 97.41"/><polygon class="cls-12" points="114.63 54.05 160.21 21.03 169.93 34.25 140.84 60.79 130.9 87.87 143.32 122.21 112.96 95.87 114.63 54.05"/><polygon class="cls-11" points="142.15 92.87 139.57 82.28 135.4 85.78 142.15 92.87"/><polygon class="cls-8" points="169.93 34.25 140.93 75.81 135.35 75.72 148.57 37.55 167.65 31.23 169.93 34.25"/><path class="cls-16" d="M211.75,107l-9.84-1.5s-16.67,6.4-16.51,5.83,10.2,6.27,10.2,6.27L205.87,115l6-8Z"/><polygon class="cls-7" points="209.97 106.15 211.37 106.43 205.68 112.62 195.61 114.8 185.72 110.9 187.54 109.88 180.85 110.07 193.49 120.92 208.05 118.61 214.81 104.02 209.97 106.15"/><polygon class="cls-11" points="214.81 104.02 201.91 103.38 180.85 110.07 185.72 110.9 211.37 106.43 214.81 104.02"/><polygon class="cls-7" points="150.25 214.42 143.92 201.95 116.29 194.05 140.13 237.73 150.25 214.42"/><polygon class="cls-12" points="292.03 188.58 292.03 236.19 261.11 248.64 253.21 224.29 255.19 197.24 292.03 188.58"/><polygon class="cls-17" points="224.51 184.61 244 180.46 265.05 199.4 261.11 248.64 191.51 227.54 194.58 177.5 224.51 184.61"/><polygon class="cls-18" points="292.03 188.58 243.98 169.85 194.58 177.5 265.05 199.4 292.03 188.58"/><polygon class="cls-12" points="282.16 192.37 227.61 172.11 211.49 174.86 271.63 196.69 282.16 192.37"/><polygon class="cls-8" points="284.79 238.9 282.16 192.37 271.63 196.69 273.61 243.77 284.79 238.9"/><polygon class="cls-18" points="222.77 237.72 224.64 186.96 216.7 184.4 207.5 233.64 222.77 237.72"/><polygon class="cls-12" points="262.33 177.7 233.85 185.33 224.64 186.96 216.7 184.4 226.49 180.28 250.96 173.53 262.33 177.7"/><polygon class="cls-19" points="246.54 188.1 244.18 183.88 231.21 185.56 207.78 198.47 225.12 207.54 227.76 202.77 233.24 189.86 237.9 181.11 244.97 208.19 260.73 205.6 246.54 188.1"/><polygon class="cls-20" points="241.16 174.91 236.03 179.03 213.58 176.53 221.85 161.29 241.16 174.91"/><polygon class="cls-20" points="243.97 175.36 262.49 165.89 270.46 180.09 246.36 179.38 243.97 175.36"/><polygon class="cls-20" points="242.88 185.6 249.19 183.33 263.37 200.83 247.61 203.42 242.88 185.6"/><polygon class="cls-20" points="238.79 183.98 233.85 180.8 210.43 193.7 227.76 202.77 238.79 183.98"/><polygon class="cls-17" points="243.97 175.36 249.19 183.33 242.88 185.6 238.36 184.63 233.85 180.8 241.16 174.91 243.97 175.36"/><polygon class="cls-13" points="270.46 180.09 261.15 184.53 246.36 179.38 270.46 180.09"/><polygon class="cls-13" points="236.03 179.03 213.58 176.53 218.31 181.87 236.03 179.03"/><polygon class="cls-12" points="249.19 183.33 243.07 186.32 238.36 184.63 233.85 180.8 249.19 183.33"/><polygon class="cls-7" points="210.15 215.02 190.45 226.27 196.81 230.08 204.69 228.46 212.65 218.53 210.15 215.02"/><polygon class="cls-7" points="224.32 231.2 222.65 244.45 209.8 248.81 204.19 235.08 209.65 228.84 224.32 231.2"/><polygon class="cls-10" points="190.38 241.79 209.8 248.81 209.65 228.84 190.45 226.27 187.53 235.47 190.38 241.79"/><polygon class="cls-10" points="150.25 214.42 183.92 224.67 187.15 233.23 182.62 241.75 140.13 237.73 150.25 214.42"/><polygon class="cls-21" points="183.72 222.98 182.72 236.18 187.37 239.33 191.75 236.87 191.96 225.01 183.72 222.98"/><polygon class="cls-22" points="182.72 236.18 191.75 236.87 191.7 248.61 181.95 248.24 182.72 236.18"/><polygon class="cls-23" points="156.03 142.9 184.32 160.49 196.52 140.66 198.24 141.63 187.4 182.28 153.24 144.01 156.03 142.9"/></svg>



