<svg id="illustration" xmlns="http://www.w3.org/2000/svg" viewBox="0 0 400 400"><defs><style>.cls-1,.cls-17,.cls-19{fill:#2b2b2b;}.cls-1,.cls-10,.cls-11,.cls-12,.cls-13,.cls-14,.cls-15,.cls-16,.cls-17,.cls-18,.cls-19,.cls-2,.cls-20,.cls-21,.cls-22,.cls-3,.cls-4,.cls-5,.cls-6,.cls-7,.cls-8,.cls-9{fill-rule:evenodd;}.cls-1{opacity:0.1;}.cls-2{fill:#9e7700;}.cls-3{fill:#755800;}.cls-4{fill:#4f5253;}.cls-5{fill:#474747;}.cls-6{fill:#b58b00;}.cls-7{fill:#856400;}.cls-8{fill:#858686;}.cls-9{fill:#6f7173;}.cls-10{fill:#bc8f2d;}.cls-11{fill:#ccad14;}.cls-12{fill:#c3987b;}.cls-13{fill:#dfbda5;}.cls-14{fill:#8b6651;}.cls-15{fill:#fff;}.cls-16{fill:#e8cab6;}.cls-18{fill:#f4d75d;}.cls-19{opacity:0.2;}.cls-20{fill:#9da1a2;}.cls-21{fill:#cececd;}.cls-22{fill:#ececeb;}</style></defs><title>Adventurer (ISFP) personality</title><polygon class="cls-1" points="102.5 392.4 190.82 376.53 313.63 392.4 184.77 400.12 102.5 392.4"/><polygon class="cls-2" points="226.91 258.07 266.14 242.73 253.42 228.39 225.85 242.38 226.91 258.07"/><polygon class="cls-3" points="211.68 169.07 250.26 222.12 230.63 243.9 207.47 220.57 211.68 169.07"/><polygon class="cls-3" points="123.4 191.12 100.89 233.51 131.42 252.68 136.3 216.12 123.4 191.12"/><polygon class="cls-4" points="235.25 263.71 221.79 321.32 201.84 338.37 182.88 333.98 174.03 300.24 235.25 263.71"/><polygon class="cls-5" points="182.84 333.99 221.79 321.32 214.64 353.56 207.47 362.35 190.82 364.25 182.84 333.99"/><polygon class="cls-6" points="214.64 353.56 224.91 362.34 222.79 381.37 191.14 376.95 190.82 364.25 214.64 353.56"/><polygon class="cls-7" points="224.91 362.34 219.39 376.95 191.14 376.95 191.14 384.72 242.25 384.72 242.25 376.95 224.91 362.34"/><polygon class="cls-8" points="142.25 280.82 141.27 331.14 161.51 352.04 182.84 333.99 201.84 304.28 174.63 280.82 142.25 280.82"/><polygon class="cls-9" points="182.84 333.99 141.27 331.14 140.57 367.09 157.07 368.62 164.8 364.25 182.84 333.99"/><polygon class="cls-9" points="235.25 263.71 201.84 304.28 142.25 280.82 200.14 265.06 235.25 263.71"/><polygon class="cls-10" points="148.68 173.41 142.25 180.66 137.01 181.58 123.4 191.12 142.25 280.82 186.22 298.23 201.84 271.32 196.16 226.47 189.8 163.7 148.68 173.41"/><polygon class="cls-11" points="176.7 179.24 201.84 271.32 216 287.09 235.25 263.71 211.68 169.07 201.59 166.6 172.65 167.75 176.7 179.24"/><polygon class="cls-3" points="196.66 36.8 207.96 54.85 201.42 65.56 178.03 39.72 190.27 33.18 196.66 36.8"/><polygon class="cls-12" points="95.89 71.51 131.42 70.49 155.67 121.1 176.7 179.24 148.68 173.41 131.42 157.25 117.01 128.19 96.92 124.94 95.89 71.51"/><polygon class="cls-11" points="91.99 77.2 82.48 48.36 188.06 0.11 180.27 34.08 123.4 76.47 91.99 77.2"/><path class="cls-3" d="M114.2,81.45c-1-1.85,11.26,37.36,11.26,37.36l-5.8,4.07-7-9.49-11.15,8.13-4.6,3.42L73.83,103.31,96.91,75.09Z"/><polygon class="cls-13" points="112.28 112.86 128.13 134.37 116.3 143.08 96.92 124.94 112.28 112.86"/><polygon class="cls-14" points="128.13 134.37 131.42 157.25 116.3 143.08 128.13 134.37"/><polygon class="cls-13" points="166.66 164.02 191.14 146.23 225.85 127.79 191.27 39.72 151.13 55.8 123.4 76.47 166.66 164.02"/><polygon class="cls-14" points="188.05 106.33 189.5 101.61 183.84 104.59 188.05 106.33"/><polygon class="cls-3" points="138.09 89.1 157.32 71.78 166.57 78.38 138.09 89.1"/><polygon class="cls-3" points="178.08 62.63 196.16 62.61 176.4 73.43 178.08 62.63"/><polygon class="cls-12" points="138.09 89.1 157.65 86.53 183.84 104.59 174.63 84.8 166.57 78.38 138.09 89.1"/><polygon class="cls-12" points="187.74 73.29 189.5 101.61 180.72 87.96 176.4 73.43 196.16 62.61 187.74 73.29"/><polygon class="cls-12" points="168.44 120.88 205.35 103.15 203.78 120.28 186.84 129.25 168.44 120.88"/><polygon class="cls-3" points="82.48 48.36 73.83 103.31 102.43 87.82 123.4 76.47 82.48 48.36"/><polygon class="cls-10" points="123.4 76.47 196.66 36.8 188.06 0.11 123.4 76.47"/><polygon class="cls-15" points="176.4 120.86 201.59 108.81 200.84 115.67 185.26 123.83 176.4 120.86"/><polygon class="cls-14" points="104.5 125.31 110.11 121.1 118.89 131.98 104.5 125.31"/><polygon class="cls-16" points="166.57 78.38 176.4 73.43 189.5 101.61 183.84 104.59 166.57 78.38"/><path class="cls-17" d="M196.05,77.2a4.92,4.92,0,1,1-4.91-4.91A4.91,4.91,0,0,1,196.05,77.2Z"/><path class="cls-17" d="M165.5,91.49a4.92,4.92,0,1,1-4.92-4.92A4.91,4.91,0,0,1,165.5,91.49Z"/><polygon class="cls-14" points="191.14 146.23 189.8 163.7 176.7 179.24 154.16 165.84 191.14 146.23"/><polygon class="cls-18" points="176.7 179.24 158.05 203.25 148.68 173.41 176.7 179.24"/><polygon class="cls-18" points="189.8 163.7 205.78 189.87 176.7 179.24 189.8 163.7"/><polygon class="cls-6" points="164.8 364.25 174.12 384.63 137.01 384.63 140.57 367.09 164.8 364.25"/><polygon class="cls-7" points="158 373.74 137.01 384.63 137.01 392.4 174.12 392.4 174.12 384.63 158 373.74"/><polygon class="cls-19" points="235.25 263.71 186.22 298.23 141.27 331.14 142.25 301.12 235.25 263.71"/><polygon class="cls-9" points="217.66 193.07 201.59 166.6 189.8 163.7 210.51 197.62 217.66 193.07"/><polygon class="cls-9" points="148.68 173.41 137.01 220.26 129.59 220.57 137.01 181.58 148.68 173.41"/><polygon class="cls-20" points="235.25 263.71 119.12 310.42 143.6 237.96 129.59 220.57 217.66 193.07 212.48 235.4 235.25 263.71"/><polygon class="cls-9" points="159.29 242.91 154.16 269.87 119.12 310.42 129.59 220.57 159.29 242.91"/><polygon class="cls-21" points="217.66 193.07 186.8 235.17 194.18 257.95 235.25 263.71 217.66 193.07"/><polygon class="cls-5" points="251.22 221.68 207.47 245.83 209.39 252.68 295.5 217.09 297.01 214.8 295.09 214.28 251.22 221.68"/><polygon class="cls-5" points="294.46 209.9 250.26 222.12 205.78 239.83 207.47 245.83 295.09 214.28 296.2 210.8 294.46 209.9"/><polygon class="cls-9" points="293.8 205.35 249.47 216.2 203.9 233.13 205.78 239.83 294.46 209.9 296.2 207.62 293.8 205.35"/><polygon class="cls-8" points="293.26 201.57 202.43 227.89 203.9 233.13 293.8 205.35 295.5 203.05 293.26 201.57"/><polygon class="cls-5" points="187.56 233.51 194.18 257.95 166.09 266.76 162.69 246.12 176.73 237.11 187.56 233.51"/><polygon class="cls-22" points="171.24 242.38 293.69 204.58 293.8 205.35 174.22 242.31 171.24 242.38"/><polygon class="cls-22" points="169.39 251.31 294.34 209.09 294.46 209.9 169.62 252.03 169.39 251.31"/><polygon class="cls-22" points="175.05 256.69 294.96 213.39 295.09 214.28 175.3 257.41 175.05 256.69"/><polygon class="cls-2" points="159.29 242.91 169.97 261.21 154.16 269.87 104.5 266.76 100.89 233.51 159.29 242.91"/><polygon class="cls-12" points="176.73 237.11 178.78 240.9 173.77 249.83 166.17 250.7 159.29 242.91 176.73 237.11"/><polygon class="cls-8" points="301.63 203.37 307.42 214.31 323.2 217.5 325.17 205.31 301.63 203.37"/><path class="cls-9" d="M295.5,217.09l23.92.36,3.78.05-6.41-5.38L298.6,208l-3.1,9.05Z"/><polygon class="cls-20" points="293.26 201.57 295.5 217.09 316.79 212.12 325.17 205.31 302.12 195.83 293.26 201.57"/><polygon class="cls-13" points="174.86 272.88 154.16 269.87 159.29 242.91 182.26 253.88 184.77 258.65 174.86 272.88"/><polygon class="cls-14" points="174.86 272.88 183.57 271.04 194.18 257.95 182.26 253.88 174.86 272.88"/><polygon class="cls-9" points="305.73 197.31 303.31 192.45 311.14 193.38 305.73 197.31"/><polygon class="cls-9" points="312.54 200.12 312.54 194.38 319.31 198.25 312.54 200.12"/><polygon class="cls-9" points="321.19 203.67 320.47 198.45 327.97 200.06 321.19 203.67"/><polygon class="cls-14" points="245.58 237.72 266.14 242.73 273.04 226.37 259.01 226.37 245.58 237.72"/><polygon class="cls-13" points="273.04 226.37 260.81 210.97 241.87 220.57 245.58 237.72 273.04 226.37"/></svg>



