<svg id="illustration" xmlns="http://www.w3.org/2000/svg" viewBox="0 0 400 400"><defs><style>.cls-1,.cls-25,.cls-28{fill:#2b2b2b;}.cls-1{fill-opacity:0.1;}.cls-2{fill:#8d7c2f;}.cls-12,.cls-3{fill:#dfbda5;}.cls-20,.cls-21,.cls-22,.cls-23,.cls-24,.cls-25,.cls-26,.cls-27,.cls-3,.cls-30,.cls-31,.cls-4,.cls-5,.cls-6{fill-rule:evenodd;}.cls-10,.cls-4{fill:#755800;}.cls-13,.cls-5{fill:#856400;}.cls-6,.cls-8{fill:#9e7700;}.cls-7{fill:#b58b00;}.cls-27,.cls-9{fill:#c3987b;}.cls-11,.cls-31{fill:#8b6651;}.cls-14,.cls-30{fill:#e8cab6;}.cls-15,.cls-22{fill:#474747;}.cls-16{fill:#f4d75d;}.cls-17{fill:#e8f078;}.cls-18{fill:#e5c828;}.cls-19{fill:#ac923c;}.cls-20{fill:#6f7173;}.cls-21{fill:#4f5253;}.cls-23{fill:#cececd;}.cls-24{fill:#9da1a2;}.cls-26{fill:#020303;}.cls-28{opacity:0.2;}.cls-29{fill:#fff;}</style></defs><title>Adventurer (ISFP) personality</title><polygon class="cls-1" points="282.76 386.49 199.68 400.11 115.75 394.19 199.68 367.68 282.76 386.49"/><polygon class="cls-2" points="157.52 308.96 236.84 307.15 236.44 268.5 197.1 253.31 157.52 308.96"/><polygon class="cls-3" points="183.96 363.83 189.65 320.31 152.38 319.35 157.36 359.1 167.5 371.62 183.96 363.83"/><polygon class="cls-4" points="229.72 251.86 244.91 265.63 242.6 259.38 225.82 273.71 194.64 280.82 159.31 277.74 147.54 283.91 160.57 256.47 196.35 240.3 229.72 251.86"/><polygon class="cls-5" points="194.64 280.82 145.45 265.1 152.38 319.35 189.65 320.31 194.64 280.82"/><polygon class="cls-3" points="227.7 354.88 236.34 318.96 217.8 274.85 198.98 320.31 203.84 363.33 224.39 371.44 227.7 354.88"/><polygon class="cls-5" points="236.34 318.96 242.6 259.38 194.64 280.82 198.98 320.31 236.34 318.96"/><polygon class="cls-6" points="256.28 377.74 227.7 354.88 203.84 363.33 203.59 377.25 230.43 379.98 256.28 377.74"/><polygon class="cls-4" points="256.21 382.34 256.28 377.74 203.59 377.25 203.59 382.71 256.21 382.34"/><polygon class="cls-6" points="188.24 387.81 183.96 363.83 157.36 359.1 149.1 387.68 169.04 391.72 188.24 387.81"/><polygon class="cls-4" points="188.37 393.09 149.03 393.09 149.1 387.68 188.24 387.68 188.37 393.09"/><polyline class="cls-7" points="242.56 189.59 252.07 172.6 248.26 161.46 239.02 165.67 232.36 174.78 232.5 181.16"/><polygon class="cls-7" points="123.25 104.18 128.44 84.39 141.15 98 145.64 116.46 141.03 122.31 123.25 104.18"/><polygon class="cls-8" points="149.84 108.6 147.53 123.41 160.75 136.33 156 136.08 141.03 122.31 134.89 100.85 143.05 97.04 149.84 108.6"/><polyline class="cls-9" points="182.74 51.24 158 93.1 145.76 100.31 165.49 143.01 200.43 156.83 203.67 129.4 183.96 106.02"/><polygon class="cls-10" points="160.75 136.33 162.38 136.15 149.84 108.6 147.53 123.41 160.75 136.33"/><polygon class="cls-11" points="215.22 134.56 200.43 156.83 175.22 135.02 194.02 134.56 205.03 130.75 215.22 134.56"/><polygon class="cls-12" points="254.91 37.76 247.71 109.96 244.98 134.28 178.22 134.98 175.94 79.78 174.31 64.42 182.22 36.8 207.78 24.97 230.17 42.27 254.91 37.76"/><polygon class="cls-13" points="228.27 47.7 250.97 45.94 244.99 24.58 219.44 18.6 205.3 18.05 202.63 31.14 228.27 47.7"/><polygon class="cls-8" points="186.71 42.23 219.44 18.6 236.7 23.09 238.74 6.91 210.87 3.78 189.94 11.26 176.76 25.94 178.79 39.41 186.71 42.23"/><polygon class="cls-7" points="185.32 0.11 210.87 3.78 179.61 26.35 170.64 24.85 169.82 14.52 185.32 0.11"/><polygon class="cls-13" points="180.02 63.61 186.71 42.23 179.61 26.35 164.12 44.31 155.55 67.28 163.84 72.17 180.02 63.61 180.02 63.61"/><polygon class="cls-8" points="142.5 68.91 150.52 72.99 161.26 70.68 179.61 26.35 169.82 14.52 150.39 32.19 142.5 68.91"/><polygon class="cls-13" points="157.32 13.71 169.82 14.52 142.5 68.91 133.13 66.04 132.58 56.93 141.28 28.66 157.32 13.71"/><polygon class="cls-7" points="145.36 12.89 157.32 13.71 132.58 56.93 127.42 41.57 145.36 12.89"/><polygon class="cls-7" points="123.13 72.56 132.58 56.93 142.5 68.91 135.16 81.69 128.44 84.39 123.13 72.56"/><polygon class="cls-13" points="134.89 100.85 141.15 98 144.68 88.75 147.53 76.52 142.5 68.91 128.44 84.39 134.89 100.85"/><polygon class="cls-10" points="149.84 108.6 134.89 100.85 144.41 85.49 151.07 102.48 149.84 108.6"/><polygon class="cls-7" points="180.02 63.61 176.08 79.78 157.32 92.29 164.93 70.4 180.02 63.61"/><polygon class="cls-10" points="142.5 68.91 180.02 63.61 162.49 80.05 143.59 77.2 142.5 68.91"/><polygon class="cls-13" points="176.08 79.78 163.84 98 161.13 93.51 162.89 86.17 176.08 79.78"/><polygon class="cls-11" points="163.84 98 149.84 108.6 145.76 100.31 154.19 95.01 163.84 98"/><polygon class="cls-7" points="265.92 42.11 238.74 6.91 219.44 18.6 250.97 45.94 255.46 53.14 265.92 42.11"/><polygon class="cls-8" points="257.5 69.59 265.92 42.11 256.41 45.67 250.97 45.94 249.75 74.07 255.73 78.97 257.5 69.59"/><polygon class="cls-7" points="264.02 78.97 257.5 69.59 249.75 74.07 247.71 109.96 264.02 78.97"/><polygon class="cls-12" points="162.08 74.35 163.84 98 145.76 100.31 143.59 77.2 162.08 74.35"/><polygon class="cls-11" points="159.09 90.52 158 80.33 148.35 81.28 159.09 90.52"/><polygon class="cls-14" points="184.97 161.39 168.06 180.06 156.23 184.65 146.25 153.39 145.32 149.27 157.85 149.65 184.97 161.39"/><polygon class="cls-12" points="211.37 187.78 236.21 163.27 211.39 140.33 200.43 156.83 165.49 143.01 211.37 187.78"/><polygon class="cls-15" points="164.66 236.48 184.21 238.34 185.27 235.68 230.07 234.53 236.76 232.77 244.11 255.56 202.67 256.02 147.86 257.48 164.66 236.48"/><polygon class="cls-16" points="241.28 147.87 249.21 151.97 275.79 217.83 241.8 216.99 241.28 147.87"/><polyline class="cls-17" points="239.99 238.65 230.58 237.89 158.83 240.83 152.43 251.63 147.86 257.48"/><polygon class="cls-18" points="216.51 144.47 203.57 175.88 165.49 143.01 145.32 149.27 145.39 185.39 169.9 261.96 236.83 261.96 239.99 238.65 238.93 200.22 238.44 168.93 216.51 144.47"/><polygon class="cls-16" points="220.16 194.18 176.7 195.02 145.32 149.27 165.49 143.01 203.57 175.88 215.01 142.59 241.28 147.87 220.16 194.18"/><polygon class="cls-19" points="220.16 194.18 211.39 140.33 241.28 147.87 243.2 193.29 220.16 194.18"/><polygon class="cls-16" points="145.32 149.27 129.28 157.53 114.46 212.87 150.55 217.75 145.32 149.27"/><polygon class="cls-19" points="145.32 149.27 165.49 143.01 176.7 195.02 145.74 195.4 145.32 149.27"/><polygon class="cls-2" points="145.74 195.4 144.94 308.6 157.52 308.96 178.58 259.63 176.7 195.02 145.74 195.4"/><polygon class="cls-2" points="220.16 194.18 243.2 193.29 246.36 308.06 236.84 307.15 226.03 254.55 220.16 194.18"/><polygon class="cls-20" points="176.64 205.63 173.39 195.29 156.3 146.13 165.49 143.01 180.97 196.87 176.64 205.63"/><path class="cls-20" d="M211.39,140.33l-3.67,54s5.11,4.39,4.54,5,1.39-5.36,1.39-5.36l5.16-51.78Z"/><polygon class="cls-21" points="173.39 195.29 213.65 193.98 217.7 196.12 180.97 196.87 173.39 195.29"/><path class="cls-22" d="M184.24,200c-.22.21,3.59-3.25,3.59-3.25L193,188h7.88l3.12,9Z"/><path class="cls-23" d="M192.13,197.55l3.34-6.7,3.71.06s2.27,5.86,2.32,6.14S192.13,197.55,192.13,197.55Z"/><polygon class="cls-22" points="185.17 201.44 180.97 196.87 173.39 195.29 174.66 223.54 182.08 227.17 185.17 201.44"/><polygon class="cls-20" points="180.97 196.87 217.7 196.12 220.42 226.37 182.08 227.17 180.97 196.87"/><path class="cls-22" d="M203.3,223.24l-.44-23.83-6.87.49c-9.84,3.5-10.41,17.72-.51,23.31Z"/><path class="cls-24" d="M203.6,223.24c-6,.18-11.11-5-11.31-11.58s4.54-12.06,10.57-12.25,11.1,5,11.3,11.57S209.62,223.05,203.6,223.24Z"/><path class="cls-25" d="M202.93,201.66c4.59-.15,8.44,4.07,8.61,9.4s-3.42,9.79-8,9.93a7.64,7.64,0,0,1-5.42-2.1l2-6.32-2.42-8.48A7.58,7.58,0,0,1,202.93,201.66Z"/><path class="cls-26" d="M198.11,218.89a10.72,10.72,0,0,1-.45-14.8,4.52,4.52,0,0,1,.53-.06c3.08-.09,5.68,3.16,5.81,7.27s-2.27,7.51-5.35,7.61A3.25,3.25,0,0,1,198.11,218.89Z"/><polygon class="cls-3" points="248.07 212.26 275.79 217.83 266.31 241.57 247.29 232.15 248.07 212.26"/><polygon class="cls-3" points="217.54 203.23 215.77 225.49 231.34 232.53 234.53 217.51 234.12 202.86 217.54 203.23"/><polygon class="cls-27" points="234.12 202.86 248.07 212.26 247.29 232.15 231.34 232.53 234.12 202.86"/><polygon class="cls-3" points="150.55 217.75 114.46 212.87 112.38 236.21 151.32 237.64 150.55 217.75"/><polygon class="cls-3" points="177.94 208.72 179.7 230.99 167.28 238.03 164.09 223 164.5 208.35 177.94 208.72"/><polygon class="cls-27" points="164.5 208.35 150.55 217.75 151.32 237.64 167.28 238.03 164.5 208.35"/><polygon class="cls-28" points="161.97 308.85 157.52 308.96 178.58 259.63 161.97 308.85"/><polygon class="cls-28" points="232.3 306.67 236.84 307.15 226.03 254.55 232.3 306.67"/><polygon class="cls-3" points="149.1 387.68 151.86 377.53 168.24 384.32 186.63 378.31 188.24 387.81 188.24 387.68 149.1 387.68 149.1 387.68"/><polygon class="cls-3" points="203.59 377.25 256.28 377.74 240.77 365.34 203.59 377.25"/><polygon class="cls-11" points="234.14 108.37 197.91 109.04 210.4 123.95 224.67 123.16 234.14 108.37"/><polygon class="cls-29" points="227.39 111.23 224.33 118.18 210.41 118.81 205.24 111.72 218.64 112.41 227.39 111.23"/><polygon class="cls-27" points="243.07 69.87 230.62 79.26 224.27 95.49 212.04 97.13 202.07 79.49 184.77 72.3 211.2 72.23 212.92 74.49 219.56 72.2 243.07 69.87"/><polygon class="cls-6" points="231.07 64.61 243.07 69.87 219.56 72.2 231.07 64.61"/><polygon class="cls-6" points="211.2 72.23 184.77 72.3 198.07 65.61 211.2 72.23"/><polygon class="cls-30" points="219.56 72.2 224.27 95.49 212.04 97.13 211.2 72.23 219.56 72.2"/><polygon class="cls-31" points="224.27 95.49 218.42 100.82 212.04 97.13 224.27 95.49"/><ellipse cx="201.11" cy="81.46" rx="4.14" ry="4.09" transform="matrix(0.86, -0.5, 0.5, 0.86, -13.66, 112.36)"/><ellipse cx="231.33" cy="79.85" rx="4.14" ry="4.09" transform="translate(-8.74 127.36) rotate(-30.24)"/></svg>



