<svg id="illustration" xmlns="http://www.w3.org/2000/svg" viewBox="0 0 400 400"><defs><style>.cls-1{fill:#35785d;}.cls-2{fill:#1c7678;}.cls-10,.cls-11,.cls-13,.cls-16,.cls-2,.cls-21,.cls-22,.cls-23,.cls-29,.cls-5,.cls-7,.cls-8,.cls-9{fill-rule:evenodd;}.cls-3,.cls-7{fill:#4f5253;}.cls-25,.cls-29,.cls-4,.cls-6{fill:#2b2b2b;}.cls-5{fill:#369496;}.cls-6{opacity:0.1;}.cls-20,.cls-8{fill:#474747;}.cls-9{fill:#858686;}.cls-10{fill:#50a9aa;}.cls-11,.cls-14{fill:#72cbcc;}.cls-12,.cls-13{fill:#6f7173;}.cls-15{fill:#c3987b;}.cls-16,.cls-30,.cls-31{fill:#ececeb;}.cls-17{fill:#8b6651;}.cls-18{fill:#dfbda5;}.cls-19{fill:#e8cab6;}.cls-21{fill:#dddddc;}.cls-22{fill:#cececd;}.cls-23{fill:#c4c4c4;}.cls-24{fill:#8ce0dc;}.cls-25,.cls-29,.cls-30{opacity:0.2;}.cls-26{fill:#3f8f6f;}.cls-27{fill:#72c9a6;}.cls-28{fill:#54b08b;}.cls-31{opacity:0.5;}</style></defs><title>Logistician (ISTJ) personality</title><polygon class="cls-1" points="124.05 50.73 147.26 68.73 149.37 59.72 124.05 50.73"/><polygon class="cls-2" points="119.58 311.06 180.82 317.92 197.69 316.56 250.87 305.82 182.86 276.16 119.58 311.06"/><polygon class="cls-3" points="147.83 51.11 140.16 151.11 250.02 180.7 262.15 72.21 147.83 51.11"/><polygon class="cls-4" points="155.77 69.02 147.83 137.11 161.13 107.92 155.77 69.02"/><polygon class="cls-5" points="133 155.22 108.11 207.55 136.84 220.25 133 155.22"/><polygon class="cls-6" points="311.54 389.47 180.49 374.41 76.65 389.15 181.65 400.11 311.54 389.47"/><polygon class="cls-2" points="236.88 158.91 258.28 193.35 245.25 222.63 225.51 193.47 236.88 158.91"/><polygon class="cls-7" points="234.63 261.3 233.88 323.65 221.06 344.42 200.09 368.23 193.28 330.53 187.18 298.3 234.63 261.3"/><polygon class="cls-7" points="134.89 271.58 135.97 336.35 153.98 340.2 176.72 332.24 187.18 298.3 134.89 271.58"/><polygon class="cls-8" points="176.72 332.24 165.19 365.84 148.41 371.33 133.51 369.61 135.97 336.35 176.72 332.24"/><polygon class="cls-9" points="165.19 365.84 173.97 388.46 157.66 391.2 129.73 388.46 133.51 369.61 165.19 365.84"/><polygon class="cls-5" points="188.32 256.73 189.51 238.83 135.3 155.65 126.86 175.42 137.52 249.91 188.32 256.73"/><polygon class="cls-10" points="231.56 246.61 236.88 158.91 210.35 179.56 189.51 238.83 188.32 256.73 231.56 246.61"/><polygon class="cls-8" points="134.89 271.58 187.18 298.3 234.63 261.3 186.27 256.73 134.89 271.58"/><polygon class="cls-8" points="233.88 323.65 193.28 330.53 194.96 371.32 219.49 369.95 226.8 358.98 233.88 323.65"/><polygon class="cls-9" points="226.8 358.98 255.28 380.91 224.74 382.96 194.59 380.91 194.96 371.32 226.8 358.98"/><rect class="cls-3" x="194.59" y="380.91" width="60.69" height="5.48" transform="translate(449.86 767.3) rotate(-180)"/><polygon class="cls-11" points="188.32 256.73 184.91 323.89 119.58 311.06 137.52 249.91 188.32 256.73"/><polygon class="cls-11" points="188.32 256.73 197.18 321.5 250.87 305.82 231.56 246.61 188.32 256.73"/><circle class="cls-12" cx="141.44" cy="175.42" r="4.6"/><path class="cls-13" d="M154.74,199.11c0,2.55-7.18,4.61-9.72,4.61a4.61,4.61,0,0,1,0-9.21C147.56,194.51,154.74,196.57,154.74,199.11Z"/><circle class="cls-12" cx="148.6" cy="222.81" r="4.6"/><circle class="cls-12" cx="152.18" cy="245.48" r="4.6"/><circle class="cls-12" cx="155.76" cy="270.2" r="4.6"/><circle class="cls-12" cx="219.34" cy="222.13" r="4.6"/><circle class="cls-12" cx="220.02" cy="198.26" r="4.6"/><circle class="cls-12" cx="221.73" cy="173.54" r="4.6"/><circle class="cls-12" cx="217.97" cy="244" r="4.6"/><circle class="cls-12" cx="216.59" cy="269.97" r="4.6"/><rect class="cls-3" x="129.73" y="388.46" width="44.24" height="5.48" transform="translate(303.69 782.4) rotate(-180)"/><polygon class="cls-14" points="150.3 177.61 118.94 149.85 187.21 83.63 257.52 161.44 210.35 179.56 189.76 97.19 163.3 171.97 150.3 177.61"/><polygon class="cls-15" points="189 50.98 180.83 137.04 217.98 144.23 210.35 179.56 190.94 193.79 172.05 176.73 164.55 156.94 156.6 90.01 155.77 69.02 189 50.98"/><polygon class="cls-16" points="191.38 165.36 163.11 144.67 161.77 170.69 170.46 183.73 191.38 165.36"/><polygon class="cls-16" points="191.38 165.36 210.35 179.56 210.35 179.56 218.32 143.37 191.38 165.36"/><polygon class="cls-17" points="220.37 141.74 165.73 135.41 191.38 165.36 220.37 141.74"/><polygon class="cls-18" points="257.18 70.59 245.37 144.36 180.69 137.77 188.83 51.67 257.18 70.59"/><polygon class="cls-15" points="250.59 86.99 238.12 94.36 229.72 111.54 223.01 113.1 217.16 110.38 205.9 89.64 189.81 79.22 199.34 75.55 219.71 87.17 222.89 90.51 225.57 93.52 227.95 90.91 232.87 87.48 244.57 81.77 250.59 86.99"/><polygon class="cls-19" points="227.95 90.91 229.72 111.54 217.16 110.38 222.89 90.51 227.95 90.91"/><polygon class="cls-17" points="222.65 115.69 229.72 111.54 217.16 110.38 222.65 115.69"/><polygon class="cls-20" points="250.59 86.99 245.47 80.13 231.99 83.11 232.87 87.48 244.89 84.3 250.59 86.99"/><polygon class="cls-20" points="221.84 82.47 219.71 87.17 198.52 77.63 189.81 79.22 198.87 73.14 221.84 82.47"/><path class="cls-4" d="M237.9,91a4.43,4.43,0,1,0,3.75,4.91A4.33,4.33,0,0,0,237.9,91Z"/><path class="cls-4" d="M206.57,86.42a4.5,4.5,0,1,0,3.74,5A4.45,4.45,0,0,0,206.57,86.42Z"/><polygon class="cls-15" points="232.98 127.8 218.29 133.84 201.62 123.5 219.46 127.41 232.98 127.8"/><polygon class="cls-17" points="219.6 125.38 216.97 123.7 201.62 123.5 219.22 129.13 232.98 127.8 223.14 124.54 219.6 125.38"/><polygon class="cls-21" points="191.38 165.36 189.51 238.83 208.17 197.73 191.38 165.36"/><polygon class="cls-22" points="191.38 165.36 189.51 238.83 167.52 200.22 191.38 165.36"/><polygon class="cls-3" points="182.07 62.67 176.75 69.47 176.75 82.88 169.09 82.88 169.09 70.02 155.77 69.02 159.1 51.51 178.12 50.32 182.07 62.67"/><polygon class="cls-23" points="191.38 165.36 210.35 179.56 205.68 200.8 191.24 166.41 168.22 201.12 166.11 186.41 191.38 165.36"/><polygon class="cls-17" points="156.6 90.01 168.92 90.01 158.31 104.72 156.6 90.01"/><polygon class="cls-17" points="164.44 84.8 164.44 74.67 158.15 74.67 164.44 84.8"/><polygon class="cls-24" points="153.97 175.93 125.59 182.58 189.51 238.83 153.97 175.93"/><polygon class="cls-25" points="163.11 144.67 161.25 175.04 154.39 176.78 189.51 238.83 166.88 187.05 163.11 144.67"/><polygon class="cls-25" points="218.32 143.37 210.35 179.56 189.51 238.83 218.32 143.37"/><polygon class="cls-24" points="210.35 179.56 239.79 185.14 189.51 238.83 210.35 179.56"/><polygon class="cls-15" points="178.63 173.81 185.43 166.51 191.38 165.36 195.1 158.83 179.62 151.65 172.9 171.02 178.63 173.81"/><polygon class="cls-18" points="172.9 171.02 182.06 156.37 182.97 149.14 180.83 137.04 162.11 161.69 172.9 171.02"/><polygon class="cls-15" points="195.62 134 200.81 145.99 192.72 150.77 195.62 134"/><polygon class="cls-19" points="180.83 137.04 195.62 134 195.1 158.83 182.06 156.37 180.83 137.04"/><polygon class="cls-10" points="108.11 207.55 162.11 161.69 188.31 180.42 134.86 231.67 108.11 207.55"/><polygon class="cls-10" points="136.2 241.2 132.11 268.04 144.51 281.02 148.6 269.77 136.2 241.2"/><polygon class="cls-5" points="232.47 231.07 238.26 267.47 235.02 274.63 225.69 257.62 232.47 231.07"/><polygon class="cls-5" points="148.6 269.77 151.28 315.79 139.39 304.03 137.09 273.22 148.6 269.77"/><polygon class="cls-10" points="225.69 257.62 227.01 309.91 236.04 299.69 235.02 274.63 225.69 257.62"/><polygon class="cls-5" points="175.53 245.82 175.53 247.52 183.54 247.18 183.2 244.97 175.53 245.82"/><polygon class="cls-25" points="195.3 46.39 149.56 63.75 182.69 95.81 262.9 83.12 269.59 62.85 195.3 46.39"/><polygon class="cls-26" points="264.47 19.02 222.55 1.88 172 0.11 210.43 18.25 264.47 19.02"/><polygon class="cls-27" points="210.43 18.25 208.54 44.41 155.07 28 172 0.11 210.43 18.25"/><polygon class="cls-28" points="210.43 18.25 208.54 44.41 267.84 46.48 264.47 19.02 210.43 18.25"/><polygon class="cls-20" points="267.84 46.48 269.59 62.85 202.09 61.93 208.54 44.41 267.84 46.48"/><polygon class="cls-12" points="208.54 44.41 155.07 28 148.05 41.08 202.09 61.93 208.54 44.41"/><polygon class="cls-26" points="269.59 62.85 287.56 83.5 192.62 83.36 202.09 61.93 269.59 62.85"/><polygon class="cls-28" points="202.09 61.93 148.05 41.08 124.05 50.73 192.62 83.36 202.09 61.93"/><polygon class="cls-17" points="265.69 161.23 275.84 165.43 277.77 175.01 271.62 176.33 271.62 176.33 271.07 182.24 258.67 177.1 250.78 154.2 265.69 161.23"/><polygon class="cls-11" points="245.25 222.63 258.67 177.1 282.18 186.82 289.84 190.17 276.09 212.08 245.25 222.63"/><polyline class="cls-29" points="258.67 177.1 282.18 186.82 276.61 199.63"/><circle class="cls-30" cx="262.25" cy="110.6" r="22.37"/><polygon class="cls-3" points="282.18 186.82 271.6 192.23 267.65 172.17 260.57 136.22 259.77 131.18 270.05 129.65 278.25 167.87 279.8 172.64 279.8 175.46 282.18 186.82"/><polygon class="cls-15" points="279.8 175.46 283.96 164.82 267.76 161.24 267.65 172.17 278.25 167.87 279.8 175.46"/><polygon class="cls-18" points="267.65 172.17 250.78 154.2 260.55 136.23 268.9 153.41 269.8 163.28 267.65 172.17"/><polygon class="cls-31" points="249.08 95.13 262.25 132.98 267.49 132.21 252.15 91.04 249.08 95.13"/><polygon class="cls-31" points="247.29 97.18 259.57 132.72 257.78 132.72 245.25 98.97 247.29 97.18"/><polygon class="cls-19" points="260.55 136.23 277.25 137.25 283.96 164.82 269.8 163.28 260.55 136.23"/><path class="cls-20" d="M263.66,85.93a24.55,24.55,0,1,0,24.54,24.54A24.55,24.55,0,0,0,263.66,85.93Zm0,44.18a19.64,19.64,0,1,1,19.64-19.64A19.64,19.64,0,0,1,263.66,130.11Z"/></svg>



