<svg id="illustration" xmlns="http://www.w3.org/2000/svg" viewBox="0 0 400 400"><defs><style>.cls-1{fill:#ac923c;}.cls-13,.cls-2,.cls-20{fill:#2b2b2b;}.cls-2{opacity:0.1;}.cls-3{fill:#755800;}.cls-4{fill:#8d7c2f;}.cls-5{fill:#474747;}.cls-6{fill:#6f7173;}.cls-7{fill:#ccad14;}.cls-8{fill:#858686;}.cls-9{fill:#e5c828;}.cls-10{fill:#9e7700;}.cls-11{fill:#856400;}.cls-12{fill:#dddddc;}.cls-13{opacity:0.2;}.cls-14{fill:#8f8f8f;}.cls-15{fill:#a3a3a3;}.cls-16,.cls-22{fill:#8b6651;}.cls-17,.cls-23{fill:#c3987b;}.cls-18,.cls-28{fill:none;}.cls-19{fill:#dfbda5;}.cls-21{fill:#e8cab6;}.cls-22,.cls-23,.cls-24{fill-rule:evenodd;}.cls-24{fill:#fff;}.cls-25{fill:#9da1a2;}.cls-26{fill:#cececd;}.cls-27{fill:#ececeb;}.cls-28{stroke:#474747;stroke-miterlimit:10;stroke-width:2px;}.cls-29{fill:#4f5253;}.cls-30{fill:#c4c4c4;}</style></defs><title>Virtuoso (ISTP) personality</title><polygon class="cls-1" points="204.54 5.31 227.49 5.95 242.16 20.07 204.54 5.31"/><polygon class="cls-2" points="256.9 384.23 165.13 355.37 105.03 375.98 186.53 400.11 256.9 384.23"/><polygon class="cls-3" points="218.16 233.19 237.83 211.02 211.48 152.13 212.48 170 218.16 233.19"/><polygon class="cls-3" points="122.19 227.19 129.31 202.1 130.05 167.56 109.41 172.44 87.44 228.47 122.19 227.19"/><polygon class="cls-4" points="175.38 287.88 140.12 346.11 160.11 355.96 173.86 329.48 175.38 287.88"/><polygon class="cls-5" points="140.12 346.11 153.34 372.51 169 370.8 165.13 355.37 160.11 351.84 140.12 346.11"/><polygon class="cls-6" points="162.29 374.57 165.86 376.96 152.08 379.28 136.17 350.58 140.12 346.11 154.35 370.8 162.29 374.57"/><polygon class="cls-7" points="195.78 262.34 193.87 265.68 191.02 262.34 170.36 281.37 172.43 310.73 163.14 324.57 171.19 323.12 171.84 319.33 184.62 334.23 220.1 294.16 195.78 262.34"/><polygon class="cls-8" points="152.08 379.28 154.35 370.8 169 370.8 172.6 379.44 152.08 379.28"/><polygon class="cls-4" points="202.67 313.79 175.34 318.92 184.62 334.23 202.67 313.79"/><polygon class="cls-4" points="191.02 262.34 176.48 286 161.14 274.17 172.67 254.79 191.02 262.34"/><polygon class="cls-9" points="176.48 286 184.62 334.23 173.86 354 161.12 351.84 123.69 284.5 172.95 261.31 176.48 286"/><polygon class="cls-10" points="211.48 152.13 217.36 196.1 179.14 205.36 129.31 202.1 128.54 173.18 211.48 152.13"/><polygon class="cls-11" points="217.36 196.1 218.75 249.31 172.67 254.79 130.85 242.85 129.31 202.1 217.36 196.1"/><polygon class="cls-3" points="196.35 196.1 173.36 196.1 172.34 247.25 197.63 248.89 200 244.51 196.35 196.1"/><polygon class="cls-12" points="173.03 192.76 171.88 239.14 205.5 237.52 193.75 161.79 173.03 192.76"/><polygon class="cls-13" points="193.75 161.79 213.5 157.54 173.36 196.1 147.5 181.96 109.41 172.44 152.54 167.56 193.75 161.79"/><polygon class="cls-14" points="198.77 131.55 220.63 141.18 183.78 156.67 152.54 151.35 127.92 133.62 198.77 131.55"/><polygon class="cls-15" points="191.74 248.63 172.34 247.25 167.51 254.79 172.95 261.31 191.02 262.34 193.71 256.85 191.74 248.63"/><polygon class="cls-7" points="172.34 247.25 172.95 261.31 153.91 307.02 139.1 312.25 123.69 284.5 126.7 272.97 130.35 253.85 172.34 247.25"/><polygon class="cls-1" points="191.74 248.63 191.02 262.34 220.1 294.16 218.75 249.31 191.74 248.63"/><polygon class="cls-7" points="184.62 334.23 161.12 351.84 174.94 385.08 186.53 350.83 184.62 334.23"/><polygon class="cls-6" points="174.94 385.08 175.97 362.34 186.53 350.83 190.76 368.49 174.94 385.08"/><polygon class="cls-5" points="210.15 354.4 215.12 362.61 198.63 392.57 178.06 391.86 188.75 354.76 210.15 354.4"/><polygon class="cls-8" points="174.94 385.08 186.53 350.83 194.65 354.4 190.84 356.9 178.06 391.86 174.94 385.08"/><polyline class="cls-16" points="183.36 158.53 198.94 136.27 186.29 134.89 155.84 133.41 170.95 154.37"/><polyline class="cls-17" points="150.74 148.27 133.7 117.53 152.31 55.59 156.71 62.64 159.12 110.25 181.65 133.88 159.6 127.08 158.39 136.2 183.36 158.53"/><line class="cls-18" x1="172.3" y1="38.62" x2="140.11" y2="3.48"/><polygon class="cls-9" points="152.35 4.08 150.12 9.05 147.4 17.9 126.67 23.3 125.34 24.08 111.04 30.44 110.67 30.19 140.11 3.48 152.35 4.08"/><polygon class="cls-7" points="188.38 14.7 179.71 16.64 162.77 14.89 149.8 8.85 140.11 3.48 179.17 0.11 188.38 14.7"/><polygon class="cls-1" points="171.25 46.93 172.3 38.62 174.05 30.29 160.6 12.22 150.43 10.71 125.34 24.08 152.31 55.59 160.95 56.63 171.25 46.93"/><polygon class="cls-7" points="205.51 33.54 203.06 41.56 199.09 45.5 179.06 44.21 141.77 39.57 150.27 9.39 188.38 14.7 196.26 17.03 205.51 33.54"/><polygon class="cls-19" points="225.17 136.95 154.38 137.67 152.31 55.59 172.3 38.62 223.43 42.83 230.16 47.74 233.02 59.33 225.17 136.95"/><polygon class="cls-6" points="235.98 37.87 233.02 59.33 207.91 15.55 217.94 16.88 235.98 37.87"/><polygon class="cls-17" points="202.81 100.66 212.06 81.92 225.83 73.81 217.84 71.3 199.5 73.73 198.65 79.22 202.81 100.66"/><polygon class="cls-17" points="187.43 101.24 190.79 79.61 188.51 74.06 167.44 71.91 162.6 75.81 177.72 82.79 187.43 101.24"/><polygon class="cls-4" points="152.31 55.58 149.54 46.39 125.34 24.08 108.18 68.73 125.3 95.01 136.3 86.85 152.31 55.58"/><circle class="cls-20" cx="211.06" cy="83.92" r="3.57"/><circle class="cls-20" cx="177.72" cy="83.64" r="3.83"/><polygon class="cls-16" points="202.81 100.66 187.43 101.24 194.57 106.17 202.81 100.66"/><polygon class="cls-21" points="202.81 100.66 198.65 79.22 190.79 79.61 187.43 101.24 202.81 100.66"/><polygon class="cls-7" points="110.67 30.19 125.34 24.08 108.18 68.73 110.67 30.19"/><polygon class="cls-19" points="141.77 74.73 140.74 96.85 125.3 95.01 125.79 71.93 141.77 74.73"/><polygon class="cls-16" points="135.6 79.83 135.95 88.77 129.69 78.34 135.6 79.83"/><polygon class="cls-16" points="140.74 96.85 133.7 117.53 125.3 95.01 140.74 96.85"/><polygon class="cls-22" points="208.47 116.06 207.64 118.23 179.25 120 177.62 117.87 194.88 112.25 208.47 116.06"/><polygon class="cls-23" points="207.64 118.23 199.25 129.19 188.46 129.19 179.25 120 207.64 118.23"/><polygon class="cls-24" points="203.41 118.49 198.33 121.7 187.38 121.7 182.91 119.77 203.41 118.49"/><polygon class="cls-25" points="186.53 350.83 190.84 356.9 210.15 354.4 207 349.05 186.53 350.83"/><polygon class="cls-15" points="183.4 161.38 156.41 174.24 109.41 172.44 124.69 155.3 183.4 161.38"/><polygon class="cls-12" points="224.77 153.29 174.03 192.76 124.69 155.3 224.77 153.29"/><polygon class="cls-25" points="223.77 153.29 174.29 176.56 124.69 155.3 223.77 153.29"/><polygon class="cls-26" points="127.92 133.62 124.69 155.3 175.34 167.56 187.39 156.67 182.54 147 127.92 133.62"/><polygon class="cls-27" points="182.54 147 220.63 141.18 223.77 153.29 175.34 167.56 182.54 147"/><polygon class="cls-11" points="237.83 211.02 259.82 225.64 264.22 234.12 258.02 248.36 218.16 233.19 237.83 211.02"/><polygon class="cls-19" points="258.02 248.36 279.61 250.64 282.22 235.64 279.42 222.32 264.16 227.74 258.9 234.73 258.02 248.36"/><polygon class="cls-19" points="275.73 248.99 279.42 222.32 300.74 228.84 297.43 245.83 275.73 248.99"/><polygon class="cls-17" points="258.9 234.73 271.58 233.26 279.42 222.32 286.61 215.69 282.54 211.49 259.82 225.64 258.9 234.73"/><polygon class="cls-5" points="191.74 248.63 218.75 249.31 219.48 263.01 191.02 262.34 191.74 248.63"/><polygon class="cls-5" points="172.95 261.31 172.34 247.25 130.85 242.85 130.35 251.35 172.95 261.31"/><polygon class="cls-6" points="191.02 262.34 191.74 248.63 212 277.51 196.5 283.5 191.02 262.34"/><polygon class="cls-10" points="279.56 249.85 277.07 256.68 286.36 256.76 283.44 248.97 279.56 249.85"/><polygon class="cls-27" points="174.03 192.76 174.29 176.56 224.77 153.29 174.03 192.76"/><polygon class="cls-15" points="171.88 239.14 200 244.51 205.5 237.52 171.88 239.14"/><polygon class="cls-3" points="261.4 232.44 265.71 221.06 279.93 214.61 292.84 219.87 298.5 233.18 293.37 245.95 281.91 251.62 265.97 246.09 261.4 232.44"/><polygon class="cls-27" points="267.47 228.58 273.53 221.25 285.03 220.33 292.68 227.23 293.28 237.89 286.51 245.48 277.13 246.54 267.44 238.71 267.47 228.58"/><line class="cls-28" x1="280.38" y1="221.61" x2="280.38" y2="225.07"/><line class="cls-28" x1="281.14" y1="242.01" x2="281.14" y2="245.46"/><line class="cls-28" x1="268.2" y1="233.37" x2="271.66" y2="233.37"/><line class="cls-28" x1="287.84" y1="233.12" x2="291.3" y2="233.12"/><polygon class="cls-5" points="280.89 234.93 278.53 232.31 286.11 225.91 280.89 234.93"/><polygon class="cls-11" points="277.07 256.68 275.23 282.75 279.73 312.5 283.48 311.25 278.48 282.75 281.73 256.76 277.07 256.68"/><polygon class="cls-3" points="281.73 256.76 286.36 256.76 287.98 283.5 283.48 311.25 279.73 312.5 284.73 284 281.73 256.76"/><polygon class="cls-17" points="141.91 254.04 126.7 272.97 122.4 264.01 137.37 252.75 141.91 254.04"/><polygon class="cls-11" points="122.19 227.19 87.44 228.47 122.4 264.01 137.37 252.75 122.19 227.19"/><polygon class="cls-4" points="126.7 272.97 123.69 284.5 148.42 255.57 141.91 254.04 126.7 272.97"/><polygon class="cls-4" points="199.5 73.73 217.88 72.18 225.83 73.81 226.33 68.39 218.01 66.87 200.29 69.05 199.5 73.73"/><polygon class="cls-4" points="188.51 74.06 167.65 72.76 162.6 75.81 161.44 70.02 166.91 67.64 187.5 67.61 188.51 74.06"/><polygon class="cls-4" points="241.41 72.86 228.32 108.28 231.5 62.31 241.41 72.86"/><polygon class="cls-1" points="188.38 14.7 143.27 39.57 140.74 96.85 152.6 68.81 231.99 67.06 187.79 51.88 190.68 23.64 188.38 14.7"/><polygon class="cls-4" points="193.5 67.81 208.92 67.56 204.81 51.13 188.38 14.7 187.79 51.88 193.5 67.81"/><polygon class="cls-7" points="189.44 20 231.99 67.06 241.41 72.86 236.92 36.42 217.94 16.88 188.38 14.7 189.44 20"/><polygon class="cls-1" points="188.38 14.7 208.92 67.56 231.99 67.06 188.38 14.7"/><polygon class="cls-7" points="188.38 14.7 193.5 67.81 176.09 68.14 188.38 14.7"/><polygon class="cls-1" points="125.3 95.01 125.79 71.93 143.27 39.57 108.18 68.73 133.7 117.53 125.3 95.01"/><polygon class="cls-6" points="146.77 9.83 182.81 14.82 185.59 34.17 169.55 44.48 150.67 50.88 108.18 68.73 125.34 24.08 146.77 9.83"/><polygon class="cls-6" points="204.54 5.31 188.38 14.7 191.75 33.79 208.2 42.18 225.37 46.05 242.37 45.66 242.16 20.07 204.54 5.31"/><path class="cls-29" d="M239,31.28,216.31,42.19s-19.52-20-19.48-20.5L220.42,13Z"/><polygon class="cls-29" points="175.92 28.36 202.38 22.43 200.95 19.13 174.74 25.84 175.92 28.36"/><polygon class="cls-5" points="170.09 17.99 202.38 26.57 208.25 31.91 168.18 20.49 170.09 17.99"/><path class="cls-29" d="M179.72,26.92l-20.57,18.6s-26.86-15-27-15.59l22.22-16.51Z"/><polygon class="cls-3" points="158.34 38.05 158.81 43.27 132.17 29.93 131.67 24.54 158.34 38.05"/><polygon class="cls-10" points="178.96 19.62 158.34 38.05 131.67 24.54 153.57 5.88 178.96 19.62"/><polygon class="cls-30" points="171.39 20.13 157.52 32.52 139.88 23.41 154.32 10.91 171.39 20.13"/><polygon class="cls-5" points="108.18 68.73 112.89 77.73 150.67 50.88 108.18 68.73"/><polygon class="cls-5" points="242.37 45.66 238.75 52.77 225.37 46.05 242.37 45.66"/><polygon class="cls-11" points="158.81 43.27 158.34 38.05 178.96 19.62 179.09 26.16 158.81 43.27"/><polygon class="cls-3" points="217.53 35.49 216.6 40.15 196.84 21.69 197.78 16.87 217.53 35.49"/><polygon class="cls-10" points="240.21 24.73 217.53 35.49 197.78 16.87 221.65 6.25 240.21 24.73"/><polygon class="cls-30" points="233.5 23.24 218.24 30.46 205.22 17.99 221 10.82 233.5 23.24"/><polygon class="cls-11" points="216.6 40.15 217.53 35.49 240.21 24.73 238.65 30.46 216.6 40.15"/><polygon class="cls-1" points="179.17 0.11 204.54 5.31 188.38 14.7 179.17 0.11"/><polygon class="cls-4" points="112.89 77.73 119.32 110.87 133.7 117.53 112.89 77.73"/></svg>



