<svg id="illustration" xmlns="http://www.w3.org/2000/svg" viewBox="0 0 400 400"><defs><style>.cls-1,.cls-20{fill:#2b2b2b;}.cls-1{fill-opacity:0.1;}.cls-2{fill:#856400;}.cls-3{fill:#ccad14;}.cls-4{fill:#6f7173;}.cls-5{fill:#4f5253;}.cls-6{fill:#8f8f8f;}.cls-7{fill:#9da1a2;}.cls-8{fill:#755800;}.cls-9{fill:#e5c828;}.cls-10{fill:#c3987b;}.cls-11{fill:#dfbda5;}.cls-12{fill:#c4c4c4;}.cls-13{fill:#bc8f2d;}.cls-14{fill:#dddddc;}.cls-15{fill:#fff;}.cls-16{fill:#474747;}.cls-17{fill:#8b6651;}.cls-18{fill:#e8cab6;}.cls-19{fill:#b58b00;}.cls-21{fill:#9e7700;}</style></defs><title>Virtuoso (ISTP) personality</title><polygon class="cls-1" points="315.14 386.58 206.48 378.22 71.95 386.18 198.92 400.11 315.14 386.58"/><polygon class="cls-2" points="224.39 371.86 217.63 377.03 216.83 384.19 262.2 384.59 262.2 377.82 224.39 371.86"/><polygon class="cls-3" points="237.93 359.52 262.2 377.82 217.63 377.03 222.4 357.53 233.94 345.59 237.93 359.52"/><polygon class="cls-2" points="153.94 316.93 159.91 345.19 198.52 340.01 172.25 318.92 153.94 316.93"/><polygon class="cls-2" points="274.54 320.11 250.66 339.22 228.77 337.23 216.43 325.69 253.45 297.82 274.54 320.11"/><polygon class="cls-4" points="265.79 320.91 239.52 360.31 222.4 357.53 229.97 324.09 243.1 283.9 265.79 320.91"/><polygon class="cls-5" points="236.33 318.12 229.97 324.09 227.18 335.63 256.63 334.44 265.79 320.91 236.33 318.12"/><polygon class="cls-6" points="107.78 90.46 107.78 102 128.87 115.54 119.72 125.89 73.15 112.35 82.3 93.65 107.78 90.46"/><polygon class="cls-7" points="88.27 76.53 114.54 66.18 113.35 55.44 89.47 61.41 88.27 76.53"/><polygon class="cls-7" points="85.09 111.56 107.78 102 131.66 108.37 120.51 133.05 85.09 111.56"/><polygon class="cls-8" points="133.65 206.68 124.49 230.16 116.93 254.84 136.43 248.47 142 251.66 146.38 248.07 137.63 234.14 133.65 206.68"/><polygon class="cls-4" points="160.31 319.71 151.96 358.72 157.53 382.2 169.87 361.11 188.97 328.47 160.31 319.71"/><polygon class="cls-5" points="184.59 319.71 185.79 333.65 180.61 342.4 157.53 333.25 160.31 320.11 184.59 319.71"/><polygon class="cls-9" points="239.12 220.21 251.85 246.08 241.91 310.56 220.81 320.91 212.06 313.75 205.29 326.48 173.45 324.09 157.53 303.79 169.87 258.02 182.6 247.68 177.43 232.15 178.22 213.05 239.12 220.21"/><path class="cls-10" d="M206.48,147.38l45.38-3.19,33.43,49.36L306.78,180c1.19-1.19-3.58,5.18-4.38,6.37l-20.3,11.94-21.49-.39Z"/><path class="cls-11" d="M260.61,197.93l17.51,16.71,31.84-41c.8-1.2,6.77-29.85,5.58-28.66l-34.23,33Z"/><polygon class="cls-8" points="292.45 176.03 294.44 158.12 312.35 141.41 327.08 149.37 298.02 206.28 292.45 176.03"/><polygon class="cls-12" points="344.99 174.44 138.02 107.58 276.93 133.05 350.96 154.54 344.99 174.44"/><polygon class="cls-7" points="344.99 174.44 251.85 144.19 246.68 143.8 238.72 139.81 217.63 135.84 135.64 106.78 139.22 102 343.4 164.49 347.78 164.89 344.99 174.44"/><polygon class="cls-10" points="186.58 140.61 182.6 87.68 176.23 49.07 197.33 46.68 196.53 32.75 272.95 19.62 270.56 31.56 222.4 61.01 221.21 138.62 186.58 140.61"/><polygon class="cls-13" points="180.61 72.15 180.61 4.09 248.67 0.11 272.95 19.62 270.56 31.56 239.12 43.9 199.32 51.06 200.11 64.19 193.35 69.77 192.55 72.15 180.61 72.15"/><polygon class="cls-11" points="168.67 143.4 137.63 180.41 142.8 203.5 174.64 180.81 180.61 172.45 168.67 143.4"/><polygon class="cls-10" points="158.72 191.96 137.63 180.41 120.11 228.17 122.9 228.97 144 213.45 158.72 191.96"/><polygon class="cls-14" points="69.97 29.57 114.54 28.37 157.13 42.3 156.33 61.41 69.97 29.57"/><polygon class="cls-12" points="155.14 50.66 69.97 29.57 56.83 67.38 88.27 76.53 99.81 63.8 135.24 70.16 132.85 80.51 132.85 82.5 131.66 84.89 130.46 89.27 131.66 91.66 129.67 94.05 128.47 98.42 129.27 101.21 127.68 103.2 123.7 119.92 85.09 111.56 85.09 96.03 54.04 88.87 60.41 126.28 134.04 146.18 152.75 134.64 153.55 100.41 156.73 59.81 155.14 50.66"/><polygon class="cls-6" points="147.18 89.27 131.66 84.89 132.85 80.51 148.77 84.49 147.18 89.27"/><polygon class="cls-6" points="145.19 98.02 129.67 94.05 130.46 89.27 145.99 93.65 145.19 98.02"/><polygon class="cls-6" points="143.2 107.18 127.68 103.2 128.47 98.42 144 102.4 143.2 107.18"/><polygon class="cls-14" points="54.04 88.87 87.88 84.09 107.78 90.46 85.09 97.63 54.04 88.87"/><polygon class="cls-3" points="180.61 4.09 163.9 26.78 155.54 37.53 150.36 77.33 135.24 125.09 168.67 143.4 194.94 135.44 180.61 72.15 180.61 4.09"/><polygon class="cls-15" points="181.41 33.55 173.05 42.7 177.43 52.25 181.41 33.55"/><polygon class="cls-2" points="181.41 33.55 180.61 72.15 158.72 31.95 157.93 18.42 180.61 4.09 181.41 33.55"/><polygon class="cls-9" points="150.36 77.33 180.61 72.15 152.75 134.64 135.24 125.09 150.36 77.33"/><polygon class="cls-11" points="195.74 94.84 183 95.24 180.61 72.15 193.35 69.77 195.74 94.84"/><polygon class="cls-5" points="168.67 143.4 174.64 182.4 186.98 223.4 230.76 217.03 235.14 203.1 258.62 178.02 253.05 150.16 248.67 146.18 236.33 139.02 207.68 143.4 186.58 138.22 168.67 143.4"/><polygon class="cls-9" points="277.33 31.95 272.95 19.62 180.61 4.09 235.14 37.92 277.33 31.95"/><polygon class="cls-3" points="196.93 40.31 181.41 23.99 180.61 4.09 237.13 37.53 196.93 40.31"/><polygon class="cls-2" points="302.4 133.84 300.81 144.59 325.49 152.15 331.06 141.81 302.4 133.84"/><polygon class="cls-2" points="294.44 158.12 298.02 206.28 278.12 173.65 294.44 158.12"/><polygon class="cls-3" points="151.96 358.72 142.8 383 165.09 389.37 176.63 383.4 169.87 361.11 151.96 358.72"/><polygon class="cls-7" points="350.96 154.54 343.4 164.89 344.99 174.44 351.76 165.69 350.96 154.54"/><polygon class="cls-8" points="180.61 72.15 155.54 37.53 157.93 18.42 180.61 72.15"/><polygon class="cls-16" points="224.39 189.96 174.64 180.81 177.43 232.15 181.01 240.11 245.09 236.53 247.88 230.96 258.62 178.02 224.39 189.96"/><polygon class="cls-17" points="222.4 134.64 194.94 135.44 186.58 138.22 218.42 157.73 234.74 143.4 239.52 140.21 222.4 134.64"/><polygon class="cls-3" points="153.94 316.93 157.53 303.79 205.29 326.48 198.52 340.01 153.94 316.93"/><polygon class="cls-3" points="270.96 307.77 251.85 246.08 230.36 281.51 212.06 313.75 222.4 317.73 268.57 318.12 270.96 307.77"/><polygon class="cls-2" points="176.23 235.74 169.87 258.02 203.3 270.36 251.85 246.08 247.88 230.96 218.82 231.36 176.23 235.74"/><polygon class="cls-17" points="190.96 84.49 184.59 74.94 189.76 74.14 190.96 84.49"/><polygon class="cls-15" points="185.39 91.26 181.41 98.42 188.17 102.4 192.55 94.84 185.39 91.26"/><polygon class="cls-11" points="276.93 133.05 208.87 135.04 196.93 40.31 277.33 31.95 276.93 133.05"/><polygon class="cls-10" points="213.25 64.99 245.89 86.88 272.15 57.03 261.81 48.67 252.25 59.42 244.29 71.76 243.1 66.18 213.25 64.99"/><polygon class="cls-18" points="252.25 59.42 238.72 63.8 243.5 92.85 254.24 92.05 252.25 59.42"/><polygon class="cls-17" points="243.5 92.85 249.87 96.03 254.24 92.05 243.5 92.85"/><polygon class="cls-19" points="252.25 59.42 263.8 44.69 272.15 57.03 263.4 51.85 252.25 59.42"/><polygon class="cls-19" points="238.72 63.8 213.25 64.99 239.52 68.97 238.72 63.8"/><polygon class="cls-20" points="235.94 75.73 222 75.73 222 72.55 235.94 72.55 235.94 75.73"/><polygon class="cls-13" points="251.85 108.37 229.17 107.18 222.4 102.4 227.58 112.35 245.09 116.33 251.85 108.37"/><polygon class="cls-2" points="222.4 102.4 229.97 109.17 243.5 111.16 251.85 108.37 245.89 106.38 231.56 106.38 222.4 102.4"/><polygon class="cls-21" points="171.46 252.45 201.31 260.41 218.82 231.36 177.43 232.15 171.46 252.45"/><polygon class="cls-16" points="234.74 143.4 238.72 139.81 251.85 144.19 253.05 150.16 234.74 143.4"/><polygon class="cls-13" points="212.06 313.75 270.96 307.77 274.54 320.11 216.43 325.69 212.06 313.75"/><polygon class="cls-13" points="203.3 270.36 230.36 281.51 255.04 258.02 251.85 246.08 219.62 246.08 203.3 270.36"/><path class="cls-20" d="M262.6,66.18a4.36,4.36,0,0,0-4.38,4,4.42,4.42,0,0,0,4.38,4.38,4.09,4.09,0,0,0,4-4.38A4,4,0,0,0,262.6,66.18Z"/><polygon class="cls-2" points="142.8 383 176.63 383.4 177.43 390.96 142.8 390.96 142.8 383"/><polygon class="cls-8" points="126.08 192.35 138.02 209.47 137.63 234.14 122.5 255.24 119.32 227.78 126.08 192.35"/><polygon class="cls-8" points="131.66 248.07 136.03 254.84 132.05 271.95 117.73 269.17 110.16 248.07 132.05 248.47 131.66 248.07"/><polygon class="cls-2" points="126.08 192.35 129.67 204.69 137.63 234.14 159.52 206.28 126.08 192.35"/><polygon class="cls-2" points="137.63 234.14 136.03 254.84 110.16 248.07 119.32 227.78 137.63 234.14"/></svg>



