<svg xmlns="http://www.w3.org/2000/svg" viewBox="0 0 600 450"><defs><style>.a{fill:none;}.b{fill:#ececeb;}.c{fill:#dfbda5;}.d{fill:#c3987b;}.e{fill:#594165;}.f{fill:#785d88;}.g{fill:#96637c;}.h{fill:#a688ba;}.i{fill:#b3889d;}.j{fill:#d1a1b8;}.k{fill:#734d60;}.l{fill:#8b6651;}.m{fill:#e8cab6;}.n{fill:#9075a0;}.o{fill:#2b2b2b;}.p{fill:#cececd;}.q{fill:#9e7700;}.r{fill:#4f5253;}.s{fill:#54b08b;}.t{fill:#709d53;}.u{fill:#fff;}.v{fill:#5a753d;}.w{fill:#72c9a6;}.x{fill:#35785d;}.y{fill:#3f8f6f;}.z{fill:#446125;}.aa{fill:#474747;}.ab{fill:#6f7173;}.ac{fill:#99c26d;}.ad{fill:#738d57;}.ae{fill:#a0cf7e;}</style></defs><title>scene_trait_thinking</title><rect class="a" width="600" height="450"/><polygon class="b" points="215.2 395.44 154.72 386.69 66.26 394.96 138.07 410.08 215.2 395.44"/><polygon class="c" points="174.56 396.03 173.97 390.24 173.27 384.8 161.58 356.46 173.27 344.53 178.23 354.8 182.12 383.39 190.39 388.82 196.77 395.44 185.2 396.03 174.56 396.03"/><polygon class="d" points="165 364.73 161.58 356.46 171.61 346.18 178.23 354.8 165 364.73"/><polygon class="d" points="182.48 383.62 190.39 388.82 184.49 394.13 175.87 394.13 182.48 383.62"/><polygon class="e" points="198.72 397.03 199.13 394.13 190.39 388.82 184.49 394.13 175.87 394.13 174.21 393.19 174.56 397.03 198.72 397.03"/><path class="f" d="M199.13,394.13l-8.74-5.31-5.9,5.31Zm-16.3,0h0Z"/><polygon class="c" points="122.6 403.94 123.31 399.09 124.72 388.82 123.31 360.36 130.63 346.42 139.61 358.7 133.46 387.76 136.77 392.25 144.21 403.35 137.48 402.05 122.6 403.94"/><polygon class="d" points="123.78 369.81 123.31 360.36 130.63 346.42 139.61 358.7 123.78 369.81"/><polygon class="d" points="122.95 401.34 123.31 399.09 124.72 388.82 133.58 387.4 140.55 397.79 131.93 396.14 122.95 401.34"/><polygon class="f" points="144.21 403.35 140.55 397.79 131.93 396.14 123.31 399.09 122.6 403.94 144.21 403.35"/><polygon class="g" points="161.81 237.52 167.36 256.65 178.58 267.4 188.27 275.67 188.5 256.54 172.79 238.23 161.81 237.52"/><polygon class="h" points="178.58 267.4 188.27 275.67 188.5 256.54 178.58 267.4"/><polygon class="i" points="125.9 296.93 153.54 301.54 169.01 299.06 169.72 298.23 178.58 267.4 123.42 282.87 125.9 296.93"/><polygon class="j" points="164.64 237.76 178.58 267.4 155.43 282.16 139.25 287.01 118.46 253.82 137.24 244.72 164.64 237.76"/><polygon class="k" points="123.42 282.87 118.46 253.82 122.6 251.81 127.09 254.77 139.25 287.01 123.42 282.87"/><polygon class="g" points="105.35 258.78 102.4 297.28 119.76 281.93 122.13 275.43 127.09 254.77 112.56 253.11 105.35 258.78"/><polygon class="g" points="125.9 296.93 121.06 311.1 146.69 322.56 174.33 329.17 169.72 298.23 150.59 298.11 136.65 296.81 125.9 296.93"/><polygon class="k" points="174.33 329.17 121.06 311.1 123.31 360.36 178.23 354.8 174.33 329.17"/><polygon class="c" points="188.27 275.67 207.52 264.57 196.18 230.79 192.52 230.55 188.74 237.28 188.27 275.67"/><polygon class="e" points="127.09 254.77 90.35 250.39 99.21 238.35 127.09 254.77"/><polygon class="e" points="184.25 144.1 205.27 166.18 191.93 205.04 184.25 144.1"/><polygon class="f" points="92.24 191.69 101.1 251.69 127.09 254.77 137.24 244.72 116.34 190.51 105.59 197.95 92.24 191.69"/><polygon class="e" points="94.37 205.63 137.24 244.72 116.34 190.51 94.37 205.63"/><polygon class="c" points="184.25 144.1 196.06 224.17 167.48 230.79 152.36 257.72 137.24 244.72 109.25 195.35 184.25 144.1"/><polygon class="e" points="89.05 169.49 116.34 131.57 172.56 120.94 89.05 169.49"/><polygon class="b" points="137.24 244.72 147.75 271.77 157.44 254.65 137.24 244.72"/><polygon class="d" points="136.89 176.22 147.75 235.04 142.56 235.86 163.46 238.11 157.44 254.65 137.24 244.72 109.25 195.35 136.89 176.22"/><polygon class="l" points="142.56 235.86 167.48 230.79 157.44 254.65 142.56 235.86"/><polygon class="m" points="176.34 204.57 167.95 205.99 162.28 175.04 170.67 173.62 176.34 204.57"/><polygon class="a" points="190.39 186.14 188.62 173.74 172.79 177.16 175.04 189.45 190.39 186.14"/><polygon class="a" points="144.45 195.82 165.35 191.57 162.99 179.06 142.2 183.42 144.45 195.82"/><polygon class="g" points="144.45 195.82 142.2 183.42 162.99 179.06 162.28 175.04 137.48 180.35 141.26 200.55 166.06 195.47 165.35 191.57 144.45 195.82"/><polygon class="g" points="191.93 168.9 170.55 173.5 171.26 177.4 188.62 173.74 190.39 186.14 173.5 189.69 174.21 193.7 195 189.33 191.93 168.9"/><polygon class="e" points="171.02 170.55 173.15 164.17 187.56 170.08 184.89 170.55 175.98 168.9 171.02 170.55"/><polygon class="e" points="118.11 185.31 125.78 199.13 128.62 197.48 129.09 181.65 118.11 185.31"/><polygon class="l" points="176.34 204.57 173.15 207.87 167.95 205.99 176.34 204.57"/><polygon class="b" points="157.44 254.65 169.84 261.38 164.29 238.35 157.44 254.65"/><polygon class="n" points="99.21 238.35 137.24 244.72 94.37 205.63 99.21 238.35"/><polygon class="c" points="128.74 204.57 117.76 210.36 109.25 195.35 119.76 188.27 128.74 204.57"/><polygon class="d" points="162.52 192.04 156.73 186.38 142.68 185.91 142.2 183.42 162.99 179.06 165.35 191.57 162.52 192.04"/><polygon class="d" points="173.5 189.69 176.93 180.35 188.62 173.74 171.26 177.4 173.5 189.69"/><polygon class="d" points="174.92 197.01 186.14 191.1 174.33 193.7 174.92 197.01"/><polygon class="d" points="141.26 200.55 166.77 199.84 166.06 195.47 141.26 200.55"/><polygon class="l" points="118.11 211.06 124.13 221.69 128.74 204.57 117.76 210.36 118.11 211.06"/><polygon class="l" points="112.56 196.3 118.46 192.64 123.07 200.67 112.56 196.3"/><polygon class="f" points="69.45 180.94 94.37 205.63 191.69 139.01 178.93 117.16 69.45 180.94"/><polygon class="h" points="69.45 180.94 191.69 139.01 178.93 117.16 69.45 180.94"/><polygon class="l" points="185.55 152.72 149.53 167.84 184.25 144.1 185.55 152.72"/><polygon class="j" points="186.26 209.64 175.28 215.32 162.17 213.9 175.87 219.33 186.26 209.64"/><polygon class="g" points="186.26 209.64 182.01 210.59 176.1 210.83 172.32 211.54 167.6 213.42 162.17 213.9 175.28 215.32 186.26 209.64"/><polygon class="e" points="158.39 172.44 154.61 166.89 142.44 176.69 144.15 176.69 153.19 172.21 158.39 172.44"/><polygon class="m" points="194.41 218.38 187.56 212.48 180.47 218.27 183.3 226.89 194.41 218.38"/><polygon class="c" points="119.76 281.93 139.25 287.01 140.43 289.96 136.65 296.81 125.9 296.93 102.28 297.28 111.85 294.57 119.76 281.93"/><polygon class="l" points="196.18 230.79 194.41 218.38 183.3 226.89 188.74 237.28 196.18 230.79"/><polygon class="h" points="103.7 280.63 102.28 297.28 113.98 297.16 119.76 281.93 103.7 280.63"/><polygon class="d" points="139.25 287.01 155.43 282.16 156.02 290.79 150.59 298.11 136.65 296.81 139.25 287.01"/><polygon class="c" points="162.64 294.1 150.59 298.11 155.43 282.16 163.94 286.89 162.64 294.1"/><circle class="o" cx="181.55" cy="181.86" r="2.84"/><circle class="o" cx="157.91" cy="185.55" r="2.84"/><polygon class="e" points="122.6 403.94 122.6 405.52 144.21 405.1 144.21 403.35 122.6 403.94"/><polygon class="b" points="124.02 37.09 102.52 22.32 60.71 21.73 17.24 31.18 10.39 67.09 25.75 96.97 61.42 106.42 105.71 95.91 119.29 83.03 124.02 37.09"/><polygon class="p" points="17.24 31.18 4.49 68.38 22.2 100.16 59.52 112.44 106.3 101.69 119.29 83.03 101.46 94.02 63.66 102.17 30.24 95.08 13.23 66.85 17.24 31.18"/><polygon class="q" points="62.95 47.24 69.92 47.24 69.69 54.45 62.6 54.45 62.95 47.24"/><polygon class="b" points="64.49 49.02 68.27 49.02 68.38 52.8 64.37 52.8 64.49 49.02"/><polygon class="q" points="62.01 57.64 68.98 57.64 68.74 64.96 61.65 64.84 62.01 57.64"/><polygon class="b" points="63.54 59.41 67.32 59.41 67.32 63.19 63.3 63.19 63.54 59.41"/><polygon class="q" points="61.3 68.03 68.38 68.03 68.15 75.35 60.95 75.35 61.3 68.03"/><polygon class="b" points="62.83 69.8 66.73 69.8 66.73 73.58 62.72 73.7 62.83 69.8"/><polygon class="q" points="60.71 78.43 67.67 78.43 67.44 85.75 60.35 85.63 60.71 78.43"/><polygon class="b" points="62.13 80.2 66.02 80.2 66.02 83.98 62.01 83.98 62.13 80.2"/><polygon class="r" points="74.88 49.49 74.88 52.68 100.51 52.8 100.75 49.37 74.88 49.49"/><polygon class="r" points="74.29 58.23 74.29 61.42 99.92 61.54 100.04 58.11 74.29 58.23"/><polygon class="r" points="73.23 70.04 73.23 73.23 98.86 73.35 99.09 69.92 73.23 70.04"/><polygon class="r" points="72.4 79.96 72.4 83.03 88.46 83.03 88.46 79.84 72.4 79.96"/><polygon class="r" points="61.77 48.78 65.43 53.62 73.47 45.83 71.81 44.53 65.67 50.9 62.6 47.36 61.77 48.78"/><polygon class="r" points="59.29 80.9 62.95 85.75 70.98 78.07 69.33 76.65 63.19 83.03 60.12 79.49 59.29 80.9"/><polygon class="c" points="28.34 78.43 34.02 83.74 39.21 79.61 39.33 78.43 46.77 78.66 49.6 58.11 48.78 52.8 43.58 56.22 34.02 54.92 30.71 59.29 29.41 64.49 25.51 65.67 28.34 78.43"/><polygon class="l" points="39.33 78.31 32.36 77.95 34.02 83.74 39.09 79.49 39.33 78.31"/><polygon class="d" points="33.66 78.07 34.49 58.46 33.9 54.8 30.71 59.17 29.41 64.37 24.21 65.79 28.23 78.31 34.02 83.74 32.36 77.95 33.66 78.07"/><polygon class="l" points="25.75 70.51 28.34 69.8 26.57 73.23 25.75 70.51"/><polygon class="s" points="43.47 40.51 38.03 40.39 40.39 42.99 38.15 45.24 30.36 47.36 21.97 59.64 24.21 65.79 29.41 64.37 28.82 67.32 31.89 66.38 30.71 59.17 34.02 54.92 43.58 56.22 50.08 51.85 48.31 46.18 43.47 40.51"/><polygon class="l" points="25.51 66.38 27.16 65.79 27.99 68.15 25.51 66.38"/><polygon class="t" points="44.17 62.13 40.75 62.01 40.75 60.83 44.17 61.06 44.17 62.13"/><polygon class="m" points="43.23 69.21 41.1 69.1 41.45 62.01 43.7 62.13 43.23 69.21"/><polygon class="l" points="43.23 69.21 41.93 70.16 41.1 69.1 43.23 69.21"/><polygon class="u" points="39.21 74.17 37.32 70.98 45.94 71.69 43.58 74.29 39.21 74.17"/><path class="l" d="M37.79,71.22l7.56.59-2,2.13-4-.12Zm-1.06-.59h0l.59.94,1.54,2.6.12.24h.35l4,.12h.23l.12-.24,2-2.13.82-.82-1.18-.12-7.56-.59-1.06-.12Z"/><polygon class="v" points="35.79 60.12 36.38 60.47 39.69 59.17 40.98 59.88 41.22 59.53 40.39 57.64 35.79 60.12"/><polygon class="v" points="44.53 60.24 46.18 60.24 47.36 58.94 49.25 58.46 47.13 58.11 44.53 60.24"/><polygon class="w" points="50.08 51.85 48.31 46.18 43.47 40.51 43.58 56.22 50.08 51.85"/><polygon class="x" points="40.39 42.99 43.47 40.51 38.03 40.39 40.39 42.99"/><polygon class="y" points="30.36 47.36 21.97 59.64 24.21 65.79 28.23 64.61 28.82 67.32 31.89 66.38 30.71 59.17 33.9 54.92 33.9 54.8 30.36 47.36"/><polygon class="z" points="34.37 60.36 23.74 64.49 24.21 65.79 34.25 62.95 34.37 60.36"/><polygon class="y" points="30.36 47.36 33.9 54.92 34.02 54.92 43.58 56.22 38.15 45.24 30.36 47.36"/><polygon class="x" points="21.97 59.64 30.71 59.17 33.9 54.92 30.36 47.36 21.97 59.64"/><path class="t" d="M34.37,60.36l-.24,5.43,7,.35L41.45,61ZM40,65h0l-4.73-.23.12-3.19,4.84.47Z"/><polygon class="d" points="35.31 64.73 36.38 62.48 40.27 62.6 40.39 62.01 35.43 61.54 35.31 64.73"/><polygon class="d" points="47.01 62.48 45.35 63.07 44.64 65.43 44.76 62.24 47.01 62.48"/><path class="t" d="M43.7,61.06l-.24,5.44,7,.35.36-5.08Zm5.67,4.61h0l-4.73-.24.12-3.19,4.84.48Z"/><polygon class="d" points="43.58 56.22 49.02 54.33 48.78 52.8 43.58 56.22"/><polygon class="d" points="44.53 60.24 43.82 61.06 48.07 61.42 49.25 58.46 47.36 58.94 46.18 60.24 44.53 60.24"/><polygon class="d" points="40.98 59.88 41.22 60.95 36.38 60.47 39.69 59.17 40.98 59.88"/><polygon class="d" points="35.55 65.79 41.1 67.09 41.22 66.14 35.55 65.79"/><polygon class="d" points="43.35 67.32 47.6 66.73 43.47 66.5 43.35 67.32"/><polygon class="b" points="126.02 109.25 122.48 106.77 115.39 106.65 107.95 108.31 108.55 112.92 111.02 117.05 121.53 119.88 125.31 117.05 126.02 109.25"/><polygon class="p" points="107.95 108.31 105.83 114.57 113.27 122.25 123.07 120.23 125.31 117.05 121.77 117.76 111.02 115.51 107.95 108.31"/><circle class="o" cx="38.31" cy="63.66" r="0.88"/><circle class="o" cx="46.65" cy="64.07" r="0.88"/><polygon class="b" points="378.54 396.85 292.2 384.69 215.2 395.44 326.46 411.85 378.54 396.85"/><polygon class="r" points="268.11 307.32 279.04 350.31 286.54 379.25 297.75 390 310.16 392.13 315.35 389.29 307.68 354.68 300 314.64 286.06 310.51 268.11 307.32"/><polygon class="y" points="285.94 376.77 271.89 397.79 310.86 397.79 313.46 392.83 285.94 376.77"/><polygon class="aa" points="304.72 350.31 279.04 350.31 268.11 307.32 285.59 311.58 300 314.64 304.02 330.48 304.72 350.31"/><polygon class="ab" points="300 314.64 304.72 332.95 304.72 350.31 310.16 392.13 310.86 397.79 324.33 390.95 334.25 379.25 340.04 312.64 318.31 311.58 300 314.64"/><polygon class="y" points="334.25 379.25 343.77 403.38 312.28 405.94 310.86 397.79 334.25 379.25"/><polygon class="r" points="336.82 349.73 304.72 350.31 299.17 320.44 340.04 312.64 336.82 349.73"/><polygon class="ac" points="304.25 275.19 338.62 271.3 341.1 255.71 332.83 221.46 304.72 237.28 304.25 275.19"/><polygon class="c" points="324.69 213.42 304.84 230.08 288.19 215.55 287.83 211.65 262.79 210.83 257.01 141.73 260.9 124.37 277.56 136.65 309.92 133.82 319.96 149.29 323.38 166.54 336.14 171.26 324.69 213.42"/><polygon class="l" points="287.95 211.3 311.33 211.18 304.84 230.08 288.42 215.2 287.95 211.3"/><polygon class="d" points="306.73 211.18 307.56 145.75 310.04 133.46 320.08 148.94 323.62 166.18 340.39 171.85 324.92 212.95 304.84 230.08 311.33 211.18 306.73 211.18"/><polygon class="c" points="340.39 171.85 334.49 187.32 322.56 183.54 327.05 168.9 340.39 171.85"/><polygon class="l" points="334.61 187.32 325.87 184.61 331.18 196.18 334.61 187.32"/><polygon class="s" points="280.75 84.09 299.06 84.92 290.67 93.19 297.75 101.1 323.38 109.49 349.13 152.01 340.39 171.85 323.62 166.18 324.8 176.1 314.76 172.68 320.08 148.94 309.92 133.82 277.56 136.65 256.53 121.06 263.62 102.17 280.75 84.09"/><polygon class="l" points="336.02 173.62 330.59 171.38 327.4 179.29 336.02 173.62"/><polygon class="t" points="274.61 160.16 286.06 160.16 286.06 156.49 274.61 156.49 274.61 160.16"/><polygon class="m" points="276.26 183.9 283.7 183.78 283.7 160.16 276.26 160.27 276.26 183.9"/><polygon class="l" points="276.26 183.9 280.51 187.2 283.7 183.78 276.26 183.9"/><polygon class="ac" points="278.86 223.58 304.72 234.69 304.72 241.54 304.72 241.54 292.56 272.84 269.29 268 269.29 268 267.4 250.39 270.47 231.02 278.86 223.58"/><polygon class="v" points="302.72 154.72 300.71 155.91 290.2 150.83 285.59 153.31 284.64 152.01 288.07 145.63 302.72 154.72"/><polygon class="v" points="273.54 153.78 268.23 153.54 264.45 148.82 258.07 146.69 265.27 145.98 273.54 153.78"/><polygon class="z" points="324.92 212.95 332.83 221.46 314.88 242.48 311.33 238.11 306.26 233.98 304.84 230.08 324.92 212.95"/><polygon class="z" points="304.84 230.08 303.19 235.04 299.29 236.69 295.87 240.83 278.86 223.58 288.42 215.2 304.84 230.08"/><polygon class="aa" points="311.33 238.11 304.72 241.54 299.29 236.69 304.84 230.08 307.32 233.03 311.33 238.11"/><polygon class="v" points="270.47 231.02 252.16 249.33 249.69 264.33 251.1 279.68 269.29 268 269.88 250.75 270.47 231.02"/><polygon class="c" points="252.16 249.33 228.78 228.19 221.1 229.96 220.98 236.58 251.1 279.68 252.16 249.33"/><polygon class="v" points="315.23 272.6 338.62 271.3 340.04 312.64 314.29 317.48 299.17 320.44 303.31 288.07 303.66 285.24 315.23 272.6"/><polygon class="aa" points="315.23 272.6 315.23 272.6 303.66 285.24 292.56 272.84 304.72 241.54 315.23 272.6"/><polygon class="t" points="269.29 268 269.29 268 292.56 272.84 303.66 285.24 303.31 288.07 299.29 320.2 268.11 307.32 269.29 268"/><polygon class="o" points="292.56 272.84 304.25 275.19 315.23 272.6 303.31 288.07 292.56 272.84"/><polygon class="w" points="256.53 121.06 263.62 102.17 280.75 84.09 277.56 136.65 256.53 121.06"/><polygon class="x" points="290.67 93.19 280.75 84.09 299.06 84.92 290.67 93.19"/><polygon class="y" points="323.38 109.49 349.13 152.01 340.39 171.85 327.52 167.48 324.8 176.1 314.76 172.68 320.08 148.94 310.04 134.05 310.04 133.46 323.38 109.49"/><polygon class="z" points="307.44 155.67 342.28 167.6 340.39 171.85 307.32 164.41 307.44 155.67"/><polygon class="y" points="323.38 109.49 310.04 134.05 309.92 133.82 277.56 136.65 297.75 101.1 323.38 109.49"/><polygon class="x" points="349.13 152.01 320.08 148.94 310.04 134.05 323.38 109.49 349.13 152.01"/><path class="t" d="M307.44,155.67,307.21,174l-23.51-.24-.12-17.36,23.86-.83ZM287.6,170.08h0l15.94.11.12-10.74-16.3.59.24,9.92Z"/><polygon class="d" points="303.54 170.19 300.47 162.4 287.36 162.17 287.36 160.16 303.66 159.45 303.54 170.19"/><polygon class="d" points="264.92 160.63 270.35 162.87 272.36 171.03 272.48 160.27 264.92 160.63"/><path class="t" d="M276.26,156.49V174.8l-23.51-.24-.35-17.12Zm-19.84,14.42h0l15.94.11.12-10.75-16.3.59.24,9.93Z"/><polygon class="v" points="332.83 221.46 359.64 248.27 352.79 262.2 338.62 271.3 332.83 221.46"/><polygon class="ac" points="359.64 248.27 365.2 282.99 341.93 278.27 338.62 271.3 359.64 248.27"/><polygon class="l" points="223.82 225.83 224.17 230.67 220.98 236.58 211.65 232.32 223.35 222.64 223.82 225.83"/><polygon class="d" points="277.56 136.65 259.73 129.33 260.9 124.37 277.56 136.65"/><polygon class="d" points="273.54 153.78 275.9 156.49 261.61 156.97 258.07 146.69 264.45 148.82 268.23 153.54 273.54 153.78"/><polygon class="d" points="285.59 153.31 284.52 156.49 300.82 155.91 290.2 150.83 285.59 153.31"/><polygon class="d" points="302.84 173.97 283.7 177.28 283.7 173.74 302.84 173.97"/><polygon class="d" points="276.26 177.52 262.32 174.69 276.26 174.69 276.26 177.52"/><polygon class="d" points="314.29 317.48 365.2 282.99 341.1 272.36 338.62 271.3 312.76 296.45 308.74 307.21 314.29 317.48"/><polygon class="o" points="340.04 312.64 300.39 326.96 268.11 307.32 340.04 312.64"/><polygon class="j" points="282.99 294.81 290.79 278.5 306.49 263.39 299.17 320.44 286.42 315.83 282.99 294.81"/><polygon class="g" points="300 314.64 297.64 333.31 289.01 332.36 286.42 315.83 300 314.64"/><polygon class="i" points="277.8 263.15 306.49 263.39 282.99 294.81 277.8 263.15"/><polygon class="c" points="295.27 293.74 302.6 294.92 305.31 292.68 312.76 296.45 313.35 305.55 314.29 317.48 294.45 321.26 292.09 317.83 292.32 297.16 295.27 293.74"/><polygon class="d" points="282.99 294.81 295.27 293.74 294.45 321.26 282.64 313.35 282.99 294.81"/><polygon class="l" points="303.31 288.07 312.76 296.45 302.48 294.92 303.31 288.07"/><polygon class="n" points="272.72 255.24 277.8 263.15 306.49 263.39 313.11 251.46 304.72 241.54 299.29 249.92 295.87 240.83 287.01 248.15 280.15 241.77 272.72 255.24"/><polygon class="j" points="277.68 254.77 281.1 248.38 285.94 252.75 283.11 258.55 277.68 254.77"/><polygon class="j" points="289.96 251.46 293.62 248.38 296.46 252.4 292.44 256.77 289.96 251.46"/><path class="j" d="M301.77,252.28l4.25-3.42,1.42,6.38s-5,2.12-5,2.36S301.77,252.28,301.77,252.28Z"/><polygon class="d" points="228.43 216.02 228.78 228.19 220.98 236.58 223.35 222.64 224.53 213.78 228.43 216.02"/><polygon class="c" points="205.87 221.46 211.65 232.32 223.35 222.64 217.91 216.61 212.13 216.38 205.87 221.46"/><polygon class="d" points="213.9 210.71 217.91 216.61 205.87 221.46 206.69 213.07 213.9 210.71"/><polygon class="l" points="269.88 192.16 295.98 191.69 285.36 202.8 273.66 201.73 269.88 192.16"/><polygon class="u" points="291.02 194.53 272.6 193.94 273.66 197.13 287.95 197.84 291.02 194.53"/><polygon class="l" points="273.66 197.13 275.55 200.43 284.41 200.79 287.95 197.84 273.66 197.13"/><circle class="o" cx="290.56" cy="165.65" r="2.84"/><circle class="o" cx="262.52" cy="166.17" r="2.84"/><polygon class="x" points="271.89 397.79 271.89 400.63 311.36 400.63 310.86 397.79 271.89 397.79"/><polygon class="x" points="312.28 405.94 311.9 403.76 343.77 403.38 344.04 405.94 312.28 405.94"/><polygon class="b" points="544.01 389.53 473.03 379.14 369.33 388.82 453.54 406.54 544.01 389.53"/><polygon class="t" points="441.85 388.94 438.78 307.09 451.53 308.27 465.59 311.46 477.52 389.53 460.63 400.75 441.85 388.94"/><polygon class="v" points="466.54 306.85 465.59 311.46 477.52 389.53 460.63 400.75 448.7 324.09 457.56 308.03 466.54 306.85"/><polygon class="v" points="401.46 179.88 406.89 236.22 452 273.9 456.61 239.05 419.06 232.09 406.06 180.12 401.46 179.88"/><polygon class="t" points="406.89 236.22 452 273.9 456.61 239.05 419.06 232.09 406.89 236.22"/><polygon class="v" points="490.98 187.09 488.74 236.46 461.22 253.94 461.22 284.05 470.67 285.83 498.9 238.82 498.31 187.79 490.98 187.09"/><polygon class="t" points="488.74 236.46 461.22 253.94 461.22 284.05 470.67 285.83 498.9 238.82 488.74 236.46"/><polygon class="ad" points="438.78 307.09 441.97 282.28 470.19 271.06 470.67 285.83 465.59 311.46 448.7 324.09 438.78 307.09"/><polygon class="ac" points="438.78 307.09 448.11 234.56 447.87 226.65 468.07 231.5 469.37 244.49 470.67 285.83 438.78 307.09"/><polygon class="v" points="447.75 237.4 448.11 234.56 445.63 155.2 460.63 154.49 469.37 244.49 469.49 248.62 447.75 237.4"/><polygon class="x" points="379.84 192.04 522.16 215.2 556.53 165.47 498.66 154.25 396.14 167.95 372.87 169.84 379.84 192.04"/><polygon class="y" points="556.53 165.47 580.98 158.03 590.32 123.66 568.7 123.66 424.37 167.72 400.28 149.88 385.98 149.29 372.87 169.84 420.35 178.58 475.27 189.57 556.53 165.47"/><polygon class="s" points="590.32 123.66 587.01 107.01 563.15 101.46 543.31 92.13 531.61 88.35 530.78 93.78 505.27 128.03 376.53 129.21 359.05 137.36 385.98 149.29 420.35 178.58 502.8 152.95 590.32 123.66"/><polygon class="x" points="590.32 123.66 581.57 79.25 550.03 82.09 535.98 94.49 590.32 123.66"/><polygon class="s" points="581.57 79.25 530.31 53.62 449.06 56.1 384.33 71.1 443.15 89.29 535.98 94.49 581.57 79.25"/><polygon class="w" points="530.31 53.62 506.57 29.88 458.39 38.62 411.85 43.94 376.53 57.4 375.35 67.32 384.33 71.1 530.31 53.62"/><polygon class="s" points="458.39 38.62 399.68 31.06 376.53 57.4 458.39 38.62"/><polygon class="s" points="376.53 57.4 334.73 88.58 359.05 137.36 381.85 109.49 384.33 71.1 376.53 57.4"/><polygon class="x" points="405.59 113.62 535.98 94.49 502.8 152.95 359.05 137.36 405.59 113.62"/><polygon class="y" points="384.33 71.1 535.98 94.49 359.05 137.36 384.33 71.1"/><polygon class="b" points="106.89 380.2 87.52 377.36 59.17 380.08 82.21 384.92 106.89 380.2"/><polygon class="ad" points="79.84 365.91 82.91 381.61 85.86 381.85 82.56 363.54 79.84 365.91"/><polygon class="n" points="72.64 351.97 84.21 349.84 98.5 355.99 92.72 364.49 79.84 365.91 69.1 357.05 72.64 351.97"/><polygon class="j" points="75.83 355.16 82.68 353.5 88.11 356.69 82.44 360.59 75.83 355.16"/><polygon class="b" points="384.09 409.02 406.89 405.71 441.85 408.9 415.16 414.69 384.09 409.02"/><polygon class="ad" points="413.39 391.66 413.5 410.79 409.96 411.02 409.49 388.94 413.39 391.66"/><polygon class="n" points="418.58 378.19 409.25 375.59 399.09 383.03 404.88 393.31 415.16 394.96 422.13 384.33 418.58 378.19"/><polygon class="j" points="416.57 381.97 411.02 380.08 407.24 383.86 412.32 388.58 416.57 381.97"/><polygon class="b" points="235.04 419.17 223.7 417.64 207.17 419.17 220.63 422.01 235.04 419.17"/><polygon class="ad" points="218.5 402.75 220.87 420.35 224.53 420.59 220.51 398.5 218.5 402.75"/><polygon class="j" points="220.39 396.61 219.45 382.8 210.47 391.06 218.03 399.81 220.39 396.61"/><polygon class="n" points="208.46 390.83 218.5 402.75 221.22 402.52 223.11 387.88 208.46 390.83"/><polygon class="b" points="217.68 380.79 239.53 377.6 271.41 380.67 245.55 386.1 217.68 380.79"/><polygon class="ae" points="244.01 382.09 245.19 366.5 241.77 340.16 237.16 375.94 244.01 382.09"/><polygon class="ad" points="253.11 358.47 240.23 370.98 244.01 382.09 255.47 370.28 253.11 358.47"/><polygon class="ae" points="263.86 361.77 240.95 372.52 241.06 375.35 251.1 380.31 263.86 361.77"/><polygon class="t" points="234.57 361.18 251.1 380.31 244.01 382.09 237.28 380.79 234.57 361.18"/><polygon class="b" points="549.56 377.24 527.24 373.94 494.52 377.01 521.1 382.56 549.56 377.24"/><polygon class="ad" points="519.33 357.28 521.81 378.78 525.24 379.02 522.63 355.63 519.33 357.28"/><polygon class="n" points="527.6 347.01 530.43 361.18 511.53 360 512.95 345.24 527.6 347.01"/><polygon class="j" points="517.79 349.49 521.46 351.26 521.81 355.63 517.09 356.1 517.79 349.49"/></svg>