<svg id="illustration" xmlns="http://www.w3.org/2000/svg" viewBox="0 0 900 350"><defs><style>.cls-1{fill:#33231b;}.cls-1,.cls-2{opacity:0.1;}.cls-2,.cls-25,.cls-31{fill:#2b2b2b;}.cls-3{fill:#dddddc;}.cls-4{fill:#8f8f8f;}.cls-5{fill:#737373;}.cls-6{fill:#4f5253;}.cls-7{fill:#858686;}.cls-8{fill:#9da1a2;}.cls-9{fill:#cececd;}.cls-10{fill:#594165;}.cls-11{fill:#785d88;}.cls-12{fill:#a688ba;}.cls-13{fill:#9075a0;}.cls-14{fill:#d1a1b8;}.cls-15{fill:#96637c;}.cls-16{fill:#734d60;}.cls-17{fill:#543042;}.cls-18{fill:#755445;}.cls-19{fill:#926d5a;}.cls-20{fill:#51362a;}.cls-21{fill:#99796a;}.cls-22{fill:#ececeb;}.cls-23{fill:#c4c4c4;}.cls-24,.cls-33,.cls-35{fill:none;}.cls-24{stroke:#d1a1b8;}.cls-24,.cls-33{stroke-miterlimit:10;}.cls-26{fill:#c3987b;}.cls-27{fill:#dfbda5;}.cls-28{fill:#e8cab6;}.cls-29{fill:#8b6651;}.cls-30{fill:#474747;}.cls-31{opacity:0.14;}.cls-32{fill:#b3889d;}.cls-33{stroke:#a688ba;}.cls-34{fill:#feffff;}</style></defs><title>analysts_INTJ_scene_med_parenthood</title><g id="shadows"><polygon class="cls-1" points="858.74 263.44 901.33 273.7 871.79 289.15 812.02 289.15 813.74 302.11 701.44 305.17 557.92 280 482.31 305.17 435.38 302.11 384.71 261.54 429.35 253.22 787 256.88 858.74 263.44"/><polygon class="cls-2" points="0 268.33 99.32 256.88 350.5 261.54 342.11 282.11 218.75 289.15 6.18 291.13 0 268.33"/></g><g id="shelves"><polygon class="cls-3" points="638.04 126.23 847.06 94.1 845.76 190.85 840.53 281.85 636.49 263.61 638.04 126.23"/><polygon class="cls-4" points="847.06 94.1 893.09 104.57 883.47 276.87 840.53 281.85 847.06 94.1"/><polygon class="cls-5" points="836.07 107.66 835.21 123.13 830.23 154.34 760.28 159.62 675.42 162.67 676.43 126.87 836.07 107.66"/><polygon class="cls-5" points="831.95 167.37 831.95 176.37 830.4 210.97 760.28 211.28 662.9 208.31 665.35 169.32 831.95 167.37"/><polygon class="cls-5" points="831.95 224.06 831.72 230.12 828.34 247.66 830.41 265.15 826.28 268.33 692.32 259.32 693.43 217.54 831.95 224.06"/><polygon class="cls-6" points="801.55 121.58 818.93 125.17 817.35 157.56 800 158.19 801.55 121.58"/><polygon class="cls-6" points="828.34 121.58 835.21 123.13 833.32 156.99 829.54 157.19 828.34 121.58"/><polygon class="cls-6" points="814.43 128.44 818.72 129.48 817.35 157.56 810.88 157.7 814.43 128.44"/><polygon class="cls-6" points="785.58 127.07 789.7 127.07 790.52 158.53 785.58 158.71 785.58 127.07"/><polygon class="cls-6" points="768.23 131.19 775.1 132.74 775.1 159.12 768.23 159.33 768.23 131.19"/><polygon class="cls-6" points="783.86 176.37 801.55 177.9 800 212.49 783.86 212 783.86 176.37"/><polygon class="cls-6" points="824.9 175.46 831.95 176.37 831.95 213.46 824.9 213.25 824.9 175.46"/><polygon class="cls-6" points="812.02 177.9 816.48 177.9 815.29 212.95 810.82 212.82 812.02 177.9"/><polygon class="cls-6" points="795.62 183.75 801.29 183.75 800 212.49 795.62 212.41 795.62 183.75"/><polygon class="cls-6" points="762.13 179.26 775.61 180.49 774.24 211.7 760.28 211.28 762.13 179.26"/><polygon class="cls-7" points="824.9 175.46 824.9 213.25 815.29 212.95 816.58 174.99 824.9 175.46"/><polygon class="cls-8" points="812.02 177.9 810.82 212.82 800 212.49 801.55 177.9 812.02 177.9"/><polygon class="cls-8" points="795.62 212.41 795.62 183.75 789.7 183.75 788.84 212.15 795.62 212.41"/><polygon class="cls-7" points="783.86 212 783.86 176.37 775.79 176.37 774.24 211.7 783.86 212"/><polygon class="cls-8" points="829.54 157.19 828.34 121.58 819.07 122.43 817.35 157.56 829.54 157.19"/><polygon class="cls-7" points="814.43 128.44 810.88 157.7 805.15 158 806.7 128.44 814.43 128.44"/><polygon class="cls-7" points="800 158.19 801.55 121.58 789.7 122.26 790.52 158.53 800 158.19"/><polygon class="cls-8" points="785.58 127.07 785.58 158.71 775.1 159.12 775.1 128.44 785.58 127.07"/><polygon class="cls-8" points="768.23 159.33 768.23 131.19 760.28 132.05 760.28 159.62 768.23 159.33"/><polygon class="cls-4" points="830.23 269.88 692.32 259.32 692.52 251.76 830.57 260.82 830.23 269.88"/><polygon class="cls-6" points="776.99 232.35 793.2 231.15 791.75 260.02 775.79 262.06 776.99 232.35"/><polygon class="cls-6" points="798.63 263.95 813.26 263.27 813.74 229.09 800.35 229.78 798.63 263.95"/><polygon class="cls-7" points="825.08 266.19 826.28 232.18 817.35 231.49 815.29 265.5 825.08 266.19"/><polygon class="cls-7" points="813.74 235.44 813.23 265.16 804.47 264.64 806.18 235.44 813.74 235.44"/><polygon class="cls-7" points="798.63 263.95 800.35 229.78 790.21 229.09 788.5 263.27 798.63 263.95"/><polygon class="cls-7" points="776.99 232.35 775.79 262.06 768.23 261.55 770.29 231.15 776.99 232.35"/><polygon class="cls-6" points="826.28 232.18 831.67 231.49 830.57 265.16 825.08 266.19 826.28 232.18"/><polygon class="cls-6" points="813.74 235.44 817.11 235.44 815.29 264.6 813.23 265.16 813.74 235.44"/><polygon class="cls-6" points="758.74 234.34 770.11 233.81 768.35 259.82 758.74 261.51 758.74 234.34"/><polygon class="cls-9" points="817.35 231.49 831.67 230.11 831.67 231.49 826.28 232.18 817.35 231.49"/><polygon class="cls-9" points="806.18 235.44 817.21 233.81 817.11 235.44 813.74 235.44 806.18 235.44"/><polygon class="cls-9" points="790.21 229.09 806.01 228.02 813.74 229.09 800.35 229.78 790.21 229.09"/><polygon class="cls-9" points="770.29 231.15 781.63 230.11 789.7 231.15 776.99 232.35 770.29 231.15"/><polygon class="cls-9" points="758.74 234.34 755.26 233.81 770.22 232.18 770.11 233.81 758.74 234.34"/></g><g id="shelves-2" data-name="shelves"><polygon class="cls-3" points="536.02 109.38 717.74 60.95 719.58 297.19 523.32 268.44 536.02 109.38"/><polygon class="cls-4" points="717.74 60.95 765.31 64.56 765.31 295.13 719.58 297.19 717.74 60.95"/><polygon class="cls-5" points="707.39 79.84 544.96 117.98 541.87 156.25 544.08 155.96 704.41 132.31 707.39 96.67 707.39 79.84"/><polygon class="cls-5" points="705.56 150.22 540.78 167.04 539.12 208.31 701.44 206.76 705.25 161.59 705.56 150.22"/><polygon class="cls-5" points="707.39 225.25 532.93 219.6 531.9 258.89 651.1 269.18 708.67 280 707.39 225.25"/><polygon class="cls-6" points="701.44 94.1 707.39 96.67 707.39 134.54 702.03 135.24 701.44 94.1"/><polygon class="cls-6" points="688.54 100.62 691.49 101.65 690.6 136.74 687.85 137.38 688.54 100.62"/><polygon class="cls-6" points="673.42 99.76 678.1 102.68 676.69 138.57 672.74 139.09 673.42 99.76"/><polygon class="cls-6" points="661.92 96.67 665.35 101.48 663.44 140.31 659.03 140.88 661.92 96.67"/><polygon class="cls-6" points="646.12 109.55 648.57 110.42 647.18 142.44 643.67 142.9 646.12 109.55"/><polygon class="cls-6" points="629.11 107.66 639.25 111.79 636.49 143.84 625.53 145.28 629.11 107.66"/><polygon class="cls-6" points="615.2 116.59 618.89 118.05 616.57 146.45 612.62 146.97 615.2 116.59"/><polygon class="cls-6" points="606.27 115.42 610.73 118.05 608.33 118.83 605.61 147.89 603.62 148.15 606.27 115.42"/><polygon class="cls-6" points="592.19 115.42 598.51 120.03 595.6 149.21 587.41 150.28 592.19 115.42"/><polygon class="cls-6" points="581.37 121.23 583.37 122.28 580.04 151.25 577.94 151.52 581.37 121.23"/><polygon class="cls-6" points="567.63 120.03 574.5 122.78 571.56 152.36 563.81 153.38 567.63 120.03"/><polygon class="cls-6" points="554.57 125.35 558.78 126.7 555.74 154.44 551.66 154.97 554.57 125.35"/><polygon class="cls-8" points="702.03 135.24 701.44 94.1 691.63 96.16 690.6 136.74 702.03 135.24"/><polygon class="cls-7" points="688.54 100.62 678.1 102.68 676.69 138.57 687.85 137.38 688.54 100.62"/><polygon class="cls-8" points="672.74 139.09 673.42 99.76 665.35 101.48 663.44 140.31 672.74 139.09"/><polygon class="cls-7" points="661.92 96.67 659.03 140.88 647.18 142.44 649.04 99.76 661.92 96.67"/><polygon class="cls-7" points="646.12 109.55 643.67 142.9 636.49 143.84 639.25 111.79 646.12 109.55"/><polygon class="cls-7" points="629.11 107.66 625.53 145.28 616.57 146.45 619.5 110.58 629.11 107.66"/><polygon class="cls-7" points="615.2 116.59 612.62 146.97 605.61 147.89 608.33 118.83 615.2 116.59"/><polygon class="cls-8" points="606.27 115.42 603.62 148.15 595.6 149.21 598.71 118.05 606.27 115.42"/><polygon class="cls-7" points="592.19 115.42 587.41 150.28 580.04 151.25 583.94 117.28 592.19 115.42"/><polygon class="cls-8" points="581.37 121.23 577.94 151.52 571.56 152.36 574.5 122.78 581.37 121.23"/><polygon class="cls-8" points="567.63 120.03 563.81 153.38 555.74 154.44 559.38 121.23 567.63 120.03"/><polygon class="cls-7" points="546.67 126.7 554.57 125.35 551.66 154.97 544.08 155.96 546.67 126.7"/><polygon class="cls-6" points="617.78 172.58 632.07 175.33 637.25 202.13 620.29 209.14 616.83 209.1 617.78 172.58"/><polygon class="cls-6" points="588.15 174.65 607.14 177.22 609.56 200.92 593.99 208.87 588.58 208.81 588.15 174.65"/><polygon class="cls-6" points="553.72 177.22 567.63 179.07 572.04 200.92 555.22 208.55 553.03 208.55 553.72 177.22"/><polygon class="cls-6" points="643.67 165.37 652.06 169.05 647.18 170.18 646.12 209.4 641.3 209.35 643.67 165.37"/><polygon class="cls-6" points="698.33 160.13 705.25 161.59 703.93 209.99 698.33 209.99 698.33 160.13"/><polygon class="cls-6" points="684.67 164.51 688.3 165.37 686.3 209.77 681.67 209.77 684.67 164.51"/><polygon class="cls-6" points="672.74 164.51 675.42 166.4 672.74 209.68 669.47 209.64 672.74 164.51"/><polygon class="cls-6" points="656.08 168.12 664.15 170.68 660.88 209.55 654.55 209.49 656.08 168.12"/><polygon class="cls-6" points="629.11 180.1 631.87 180.83 630.83 209.25 628.25 209.22 629.11 180.1"/><polygon class="cls-6" points="603.18 180.1 606.99 180.83 605.84 208.99 603.18 208.99 603.18 180.1"/><polygon class="cls-6" points="576.46 173.79 580.65 175.85 580.65 208.81 576.46 208.69 576.46 173.79"/><polygon class="cls-6" points="564.71 181.51 567.63 182.37 567.63 208.6 563.05 208.55 564.71 181.51"/><polygon class="cls-6" points="540.23 180.82 547.1 181.51 546.16 208.55 539.12 208.31 540.23 180.82"/><polygon class="cls-7" points="698.33 160.13 698.33 209.99 686.3 209.77 688.54 160.13 698.33 160.13"/><polygon class="cls-7" points="684.67 164.51 681.67 209.77 672.74 209.68 675.42 166.4 684.67 164.51"/><polygon class="cls-7" points="672.74 164.51 669.47 209.64 660.88 209.55 664.66 164.51 672.74 164.51"/><polygon class="cls-7" points="656.08 168.12 654.55 209.49 646.12 209.4 647.18 170.18 656.08 168.12"/><polygon class="cls-8" points="643.67 165.37 641.3 209.35 630.83 209.25 632.39 166.75 643.67 165.37"/><polygon class="cls-7" points="629.11 180.1 628.25 209.22 620.29 209.14 621.45 181.51 629.11 180.1"/><polygon class="cls-8" points="617.78 172.58 616.83 209.1 605.84 208.99 607.3 173.27 617.78 172.58"/><polygon class="cls-8" points="603.18 180.1 603.18 208.99 593.99 208.87 594.76 180.1 603.18 180.1"/><polygon class="cls-7" points="588.15 174.65 588.58 208.81 580.65 208.81 580.65 175.85 588.15 174.65"/><polygon class="cls-7" points="576.46 173.79 576.46 208.69 567.63 208.6 567.8 173.79 576.46 173.79"/><polygon class="cls-8" points="564.71 181.51 563.05 208.55 555.22 208.55 556.63 181.51 564.71 181.51"/><polygon class="cls-8" points="553.72 177.22 553.03 208.55 546.16 208.55 547.19 179.07 553.72 177.22"/><polygon class="cls-4" points="708.67 280 526.9 258.89 567.71 255.97 708.36 266.52 708.67 280"/><polygon class="cls-6" points="559.47 228.92 580.65 227.89 580.34 257.43 557.92 259.06 559.47 228.92"/><polygon class="cls-6" points="574.4 235.59 595.19 234.34 593.99 259.14 574.18 261.32 574.4 235.59"/><polygon class="cls-6" points="639.07 230.72 665.18 229.95 664.15 266.79 638.04 268.33 639.07 230.72"/><polygon class="cls-6" points="683.64 233.81 707.56 232.44 708.61 272.56 682.61 274 683.64 233.81"/><polygon class="cls-6" points="702.03 240.27 707.74 240.27 708.67 274.95 702.03 275.54 702.03 240.27"/><polygon class="cls-6" points="668.18 236.9 672.74 236.9 671.53 271.17 667.93 271.17 668.18 236.9"/><polygon class="cls-6" points="654.53 241.03 658.5 241.03 657.65 269.18 653.5 269.88 654.53 241.03"/><polygon class="cls-6" points="547.1 231.24 552.92 230.81 551.66 259.46 545.82 260.32 547.1 231.24"/><polygon class="cls-8" points="702.03 275.54 702.03 240.27 689.31 238.97 688.54 273.78 702.03 275.54"/><polygon class="cls-7" points="682.61 274 683.64 233.81 672.82 233.04 671.53 272.46 682.61 274"/><polygon class="cls-7" points="668.18 236.9 667.93 271.17 657.62 270.14 658.65 236.13 668.18 236.9"/><polygon class="cls-8" points="654.53 241.03 653.5 269.88 645.26 269.36 647.32 239.74 654.53 241.03"/><polygon class="cls-7" points="639.07 230.72 638.04 268.33 628.51 267.05 629.8 229.95 639.07 230.72"/><polygon class="cls-7" points="562.65 234.34 574.4 235.59 574.18 261.32 561.75 259.95 562.65 234.34"/><polygon class="cls-8" points="559.47 228.92 557.92 259.06 551.66 258.46 553.03 228.32 559.47 228.92"/><polygon class="cls-7" points="539.37 230.46 547.1 231.24 545.82 260.32 537.83 260.54 539.37 230.46"/><polygon class="cls-9" points="539.37 230.46 552.92 229.95 552.92 230.81 547.1 231.24 539.37 230.46"/><polygon class="cls-9" points="553.03 228.32 572.87 227.2 580.65 227.89 559.47 228.92 553.03 228.32"/><polygon class="cls-9" points="562.65 234.34 585.32 233.21 595.19 234.34 574.4 235.59 562.65 234.34"/><polygon class="cls-9" points="629.8 229.95 653.5 229.26 665.18 229.95 639.07 230.72 629.8 229.95"/><polygon class="cls-9" points="647.32 239.74 658.55 239.39 658.5 241.03 654.53 241.03 647.32 239.74"/><polygon class="cls-9" points="658.65 236.13 672.74 235.59 672.74 236.9 668.18 236.9 658.65 236.13"/><polygon class="cls-9" points="672.82 233.04 701.79 231.93 707.56 232.44 683.64 233.81 672.82 233.04"/><polygon class="cls-9" points="689.31 238.97 707.69 237.42 707.75 239.74 702.03 240.27 689.31 238.97"/></g><g id="shelves-3" data-name="shelves"><polygon class="cls-3" points="493.11 23.85 397.61 120.78 397.85 263.02 482.31 305.17 491.91 135.58 493.11 23.85"/><polygon class="cls-4" points="493.11 23.85 553.72 29.35 536.02 304.18 482.31 305.17 493.11 23.85"/><polygon class="cls-5" points="480.21 53.39 407.39 128.96 407.31 162.33 418.42 156.75 470.47 126.87 477.24 90.31 480.21 53.39"/><polygon class="cls-5" points="475.33 144.3 474.46 165.8 472.74 206.59 408.24 213.25 405.32 213.46 407.31 174.13 475.33 144.3"/><polygon class="cls-5" points="471.33 223.08 405.32 220.63 403.95 258.8 471.71 284.87 471.33 223.08"/><polygon class="cls-4" points="407.39 128.96 429.35 132.06 429.35 151.26 407.31 162.33 407.39 128.96"/><polygon class="cls-4" points="407.31 174.13 429.35 175.74 429.35 211.75 405.32 213.46 407.31 174.13"/><polygon class="cls-4" points="403.95 258.8 428.74 258.8 471.61 269.18 471.71 284.87 403.95 258.8"/><polygon class="cls-6" points="443.43 109.21 452.85 111.84 452.85 139.46 442.77 144.53 443.43 109.21"/><polygon class="cls-6" points="471.71 88.08 477.24 90.31 474.15 128.77 470.35 130.68 471.71 88.08"/><polygon class="cls-6" points="459.36 104.57 462.27 105.44 460.56 135.59 458.68 136.54 459.36 104.57"/><polygon class="cls-6" points="450.67 117.64 452.66 117.64 451.94 139.92 449.74 141.02 450.67 117.64"/><polygon class="cls-6" points="434.01 122.25 437.59 123.3 436.91 147.47 434.01 148.9 434.01 122.25"/><polygon class="cls-6" points="424.09 135.59 427.64 136.54 427.64 152.12 424.09 153.91 424.09 135.59"/><polygon class="cls-8" points="471.71 88.08 470.35 130.68 460.56 135.59 462.8 96.24 471.71 88.08"/><polygon class="cls-7" points="459.36 104.57 458.68 136.54 451.94 139.92 452.85 111.84 459.36 104.57"/><polygon class="cls-7" points="449.74 141.02 450.67 117.64 445.48 121.58 445.17 143.32 449.74 141.02"/><polygon class="cls-8" points="442.77 144.53 443.43 109.21 437.83 114.88 436.91 147.47 442.77 144.53"/><polygon class="cls-6" points="446.9 167.64 460.29 169.92 459.33 207.55 446.9 210.5 445.17 210.62 446.9 167.64"/><polygon class="cls-7" points="434.01 122.25 434.01 148.9 427.64 152.12 427.64 127.09 434.01 122.25"/><polygon class="cls-7" points="424.09 153.91 424.09 135.59 419.32 138.83 418.33 156.56 424.09 153.91"/><polygon class="cls-6" points="425.86 171.11 434.27 173.09 429.35 211.75 424.59 212.09 425.86 171.11"/><polygon class="cls-6" points="469.04 164.51 474.46 165.8 472.74 208.65 468.36 208.96 469.04 164.51"/><polygon class="cls-6" points="457.02 173.21 460.29 173.62 459.33 209.61 455.97 209.85 457.02 173.21"/><polygon class="cls-6" points="435.81 172.63 440.17 173.21 440.17 210.97 436.91 211.21 435.81 172.63"/><polygon class="cls-6" points="415.8 182.97 418.81 183.32 417.34 212.6 415.05 212.77 415.8 182.97"/><polygon class="cls-7" points="469.04 164.51 460.48 166.64 459.33 209.61 468.36 208.96 469.04 164.51"/><polygon class="cls-8" points="455.97 209.85 457.02 173.21 449.74 174.57 446.9 210.5 455.97 209.85"/><polygon class="cls-7" points="446.9 167.64 440.33 169.47 440.17 210.97 445.17 210.62 446.9 167.64"/><polygon class="cls-8" points="435.81 172.63 430.82 174.13 429.35 211.75 436.91 211.21 435.81 172.63"/><polygon class="cls-7" points="419.32 173.09 425.86 171.11 424.59 212.09 417.34 212.6 419.32 173.09"/><polygon class="cls-7" points="415.05 212.77 415.8 182.97 410.65 184.8 408.24 213.25 415.05 212.77"/></g><g id="shelves-4" data-name="shelves"><polygon class="cls-3" points="58.91 99.59 206.25 133.77 206.17 263.49 71.79 284.87 58.91 99.59"/><polygon class="cls-5" points="71.79 115.92 198.2 146.31 198.2 172.68 154.59 167.94 77.97 156.12 72.66 130.58 71.79 115.92"/><polygon class="cls-5" points="75.4 174.83 198.2 184.8 198.2 210.97 158.1 211.95 81.32 209.98 76.19 183.41 75.4 174.83"/><polygon class="cls-5" points="79.52 229.73 82.1 270.47 133.03 260.79 198.2 253.1 198.2 221.66 79.52 229.73"/><polygon class="cls-8" points="198.2 253.1 176.9 249.44 81.5 260.98 82.1 270.47 198.2 253.1"/><polygon class="cls-4" points="58.91 99.59 20.78 105.26 13.57 277.35 71.79 284.87 58.91 99.59"/><polygon class="cls-6" points="100.99 129.4 84.2 133.09 87.26 158.56 100.99 162.12 102.74 162.31 100.99 129.4"/><polygon class="cls-6" points="77.97 128.77 72.66 130.58 74.37 159.22 78.64 159.69 77.97 128.77"/><polygon class="cls-6" points="90.51 136.54 86.45 137.37 87.26 160.62 92.15 161.15 90.51 136.54"/><polygon class="cls-6" points="116.27 138.96 111.26 140.24 112.64 163.38 118.84 164.06 116.27 138.96"/><polygon class="cls-6" points="131.73 139.37 125.38 140.24 126.57 164.9 131.94 165.48 131.73 139.37"/><polygon class="cls-6" points="143.24 144.3 140.09 144.3 141.39 166.51 144.09 166.8 143.24 144.3"/><polygon class="cls-8" points="77.97 128.77 78.64 159.69 87.26 160.62 86.22 130.68 77.97 128.77"/><polygon class="cls-7" points="92.15 161.15 90.51 136.54 98.93 137.89 100.99 162.12 92.15 161.15"/><polygon class="cls-8" points="102.74 162.31 100.99 129.4 110.78 132.06 112.64 163.38 102.74 162.31"/><polygon class="cls-7" points="118.84 164.06 116.27 138.96 125.38 140.24 126.57 164.9 118.84 164.06"/><polygon class="cls-7" points="131.94 165.48 131.73 139.37 139.85 140.24 141.39 166.51 131.94 165.48"/><polygon class="cls-7" points="144.09 166.8 143.24 144.3 153.54 145.23 154.59 167.94 144.09 166.8"/><polygon class="cls-6" points="106.81 186.57 92.51 188.56 90.51 212.09 104.77 213.25 108.13 213.17 106.81 186.57"/><polygon class="cls-6" points="125.38 188.56 112.99 190.28 112.99 212.24 121.42 212.85 125.38 212.75 125.38 188.56"/><polygon class="cls-6" points="144.78 186.44 131.73 188.56 130.66 211.53 141.54 212.35 146.16 212.24 144.78 186.44"/><polygon class="cls-6" points="84.2 182.08 76.19 183.41 79 213.89 86.45 213.7 84.2 182.08"/><polygon class="cls-6" points="95.75 191.05 92.51 191.39 93.47 213.53 97.81 213.43 95.75 191.05"/><polygon class="cls-6" points="115.05 192.23 113.21 192.75 115.05 213 117.13 212.95 115.05 192.23"/><polygon class="cls-6" points="134.13 194.36 131.94 194.44 132.58 212.57 135.69 212.5 134.13 194.36"/><polygon class="cls-6" points="156.55 191.05 150.47 192.23 152.34 212.09 158.1 211.95 156.55 191.05"/><polygon class="cls-7" points="84.2 182.08 86.45 213.7 93.47 213.53 92.15 183.14 84.2 182.08"/><polygon class="cls-8" points="95.75 191.05 97.81 213.43 104.77 213.25 102.74 191.99 95.75 191.05"/><polygon class="cls-8" points="106.81 186.57 108.13 213.17 115.05 213 112.64 186.44 106.81 186.57"/><polygon class="cls-7" points="115.05 192.23 120.74 192.23 121.42 212.85 117.13 212.95 115.05 192.23"/><polygon class="cls-7" points="125.38 188.56 125.38 212.75 132.58 212.57 131.73 188.56 125.38 188.56"/><polygon class="cls-8" points="134.13 194.36 135.69 212.5 141.54 212.35 140.09 194.36 134.13 194.36"/><polygon class="cls-7" points="144.78 186.44 146.16 212.24 152.34 212.09 149.94 186.57 144.78 186.44"/><polygon class="cls-6" points="138.86 234.27 122.71 233.23 121.77 256.05 140.09 258.12 138.86 234.27"/><polygon class="cls-6" points="118.84 236.13 101.93 235.96 101.93 259.96 119.18 261.54 118.84 236.13"/><polygon class="cls-6" points="85.53 237.13 79.99 237.13 81.93 267.9 84.2 267.9 85.53 237.13"/><polygon class="cls-6" points="95.75 265.84 92.16 265.24 92.46 240.25 95.16 240.43 95.75 265.84"/><rect class="cls-6" x="103.74" y="241.11" width="3.1" height="22.33"/><polygon class="cls-6" points="148.91 234.01 144.84 234.01 146.16 256.27 149.76 256.88 148.91 234.01"/><polygon class="cls-8" points="85.53 237.13 84.2 267.9 92.15 266.53 92.51 235.96 85.53 237.13"/><polygon class="cls-7" points="95.75 265.84 95.16 240.43 103.74 239.22 103.74 264.64 95.75 265.84"/><polygon class="cls-8" points="106.83 241.11 115.05 240.25 115.27 262.41 106.83 263.44 106.83 241.11"/><polygon class="cls-7" points="118.84 236.13 119.18 261.54 126.57 260.33 125.38 235.1 118.84 236.13"/><polygon class="cls-8" points="138.86 234.27 140.09 258.12 146.16 257.43 144.78 233.01 138.86 234.27"/><polygon class="cls-7" points="148.91 234.01 158.1 233.01 160.67 255.32 149.76 256.88 148.91 234.01"/><polygon class="cls-9" points="92.51 235.96 79.99 235.62 79.99 237.13 85.53 237.13 92.51 235.96"/><polygon class="cls-9" points="103.74 239.22 92.47 238.79 92.46 240.25 95.16 240.43 103.74 239.22"/><polygon class="cls-9" points="115.05 240.25 103.74 239.22 103.74 240.77 106.83 241.11 115.05 240.25"/><polygon class="cls-9" points="125.38 235.1 106.83 234.76 101.93 235.96 118.84 236.13 125.38 235.1"/><polygon class="cls-9" points="138.86 234.27 144.78 233.01 127.44 232.44 122.71 233.23 138.86 234.27"/><polygon class="cls-9" points="158.1 233.01 144.78 233.01 144.84 234.01 148.91 234.01 158.1 233.01"/></g><g id="shelves-5" data-name="shelves"><polygon class="cls-3" points="189.55 56.14 267.07 117.05 270.16 261.55 198.2 293.31 189.55 146.08 189.55 56.14"/><polygon class="cls-5" points="202.66 81.9 258.95 122.38 258.01 151.93 250.5 151.72 205.75 129.99 203.3 97.18 202.66 81.9"/><polygon class="cls-5" points="205.75 150 258.95 165.63 258.01 198.53 236.41 197.81 208.5 196.95 206.36 167 205.75 150"/><polygon class="cls-5" points="206.1 211.23 242.28 210.84 258.82 212.25 261.92 246.8 206.17 256.27 205.75 231.32 206.1 211.23"/><polygon class="cls-4" points="189.55 56.14 143.24 64.04 161.44 290.6 198.2 293.31 189.55 56.14"/><polygon class="cls-4" points="258.95 122.38 238.39 125.61 238.39 145.21 250.5 151.72 258.95 155.54 258.95 122.38"/><polygon class="cls-4" points="258.95 165.63 239.08 167.64 239.42 197.8 256.59 200.88 259.86 201.07 258.95 165.63"/><polygon class="cls-4" points="242.28 210.84 242.17 246.69 261.92 246.8 259.86 210.19 242.28 210.84"/><polygon class="cls-6" points="206.44 96.24 203.3 97.18 204.72 131.02 209.19 133.04 206.44 96.24"/><polygon class="cls-6" points="216.93 107.58 213.61 108.52 214.84 135.59 216.93 136.54 216.93 107.58"/><polygon class="cls-6" points="227.14 117.64 224.66 118.72 224.66 140.04 227.14 141.16 227.14 117.64"/><polygon class="cls-6" points="236.15 115.92 232.48 118.72 232.81 143.72 236.15 145.23 236.15 115.92"/><polygon class="cls-6" points="245.43 128.77 242.7 129.4 242.7 148.19 246.64 149.97 245.43 128.77"/><polygon class="cls-6" points="237.18 163.56 227.14 166.04 226.11 197.08 233.83 199.55 237.18 199.73 237.18 163.56"/><polygon class="cls-6" points="209.19 165.63 206.36 167 207.47 197.98 209.53 198.1 209.19 165.63"/><polygon class="cls-6" points="220.26 163.87 216.93 166.29 216.93 198.54 220.57 198.75 220.26 163.87"/><polygon class="cls-6" points="229.85 170.4 227.14 171.15 227.14 199.14 229.78 199.3 229.85 170.4"/><polygon class="cls-6" points="244.67 172.68 242.7 173.01 242.7 200.06 245.04 200.19 244.67 172.68"/><polygon class="cls-6" points="251.61 178.16 249.47 178.55 249.47 200.46 251.61 200.58 251.61 178.16"/><polygon class="cls-8" points="209.19 165.63 216.93 166.29 216.93 198.54 209.53 198.1 209.19 165.63"/><polygon class="cls-8" points="220.26 163.87 227.14 166.04 227.14 199.14 220.57 198.75 220.26 163.87"/><polygon class="cls-7" points="229.85 170.4 232.81 171.11 233.84 199.53 229.78 199.3 229.85 170.4"/><polygon class="cls-7" points="237.18 163.56 242.7 164.58 242.7 200.06 237.18 199.73 237.18 163.56"/><polygon class="cls-8" points="244.67 172.68 249.47 174.39 249.47 200.46 245.04 200.19 244.67 172.68"/><polygon class="cls-7" points="251.61 178.16 255.9 179.04 256.59 200.88 251.61 200.58 251.61 178.16"/><polygon class="cls-7" points="206.44 96.24 213.22 100.11 214.84 135.59 209.19 133.04 206.44 96.24"/><polygon class="cls-8" points="216.93 107.58 224.66 112.22 224.66 140.04 216.93 136.54 216.93 107.58"/><polygon class="cls-7" points="227.14 117.64 232.48 118.72 232.81 143.72 227.14 141.16 227.14 117.64"/><polygon class="cls-7" points="236.15 115.92 242.7 120.2 242.7 148.19 236.15 145.23 236.15 115.92"/><polygon class="cls-7" points="246.64 149.97 245.43 128.77 250.5 130.68 250.5 151.72 246.64 149.97"/><polygon class="cls-9" points="215.61 219.99 205.96 219.07 205.94 220.75 210.64 220.75 215.61 219.99"/><polygon class="cls-6" points="210.64 220.75 205.94 220.75 205.75 231.32 206.13 253.78 209.53 254.38 210.64 220.75"/><polygon class="cls-7" points="210.64 220.75 215.61 219.99 216.57 253.33 209.53 254.38 210.64 220.75"/><polygon class="cls-4" points="265.89 12 352.97 0 342.29 287.12 282.57 298.65 265.89 12"/></g><g id="table"><polygon class="cls-1" points="736.89 320.99 777.66 327.75 817.35 318.17 752.1 308.51 691.92 313.35 562.42 293.48 464.22 320.24 464.22 320.24 464.22 320.24 425.24 331.41 481.39 346.81 529.75 335.48 635.66 350 736.89 320.99"/><polygon class="cls-10" points="517.16 320.99 540.73 315.07 544.96 302.11 517.16 296.03 517.16 320.99"/><polygon class="cls-11" points="687.49 324.79 662.09 320.99 659.68 308.51 688.9 306.13 687.49 324.79"/><polygon class="cls-12" points="465.79 267 628.34 301.89 698.48 274.9 578.76 256.51 465.79 267"/><polygon class="cls-13" points="628.34 299.63 625.84 315.91 627.68 342.82 647.49 335.07 648.62 317.45 686.09 308.59 687.49 324.79 703.27 319.93 698.48 274.9 628.34 299.63"/><polygon class="cls-11" points="628.34 299.63 627.68 342.82 599.32 336.61 599.32 320.1 519.04 302.11 517.16 320.99 490.03 315.63 503.55 274.9 628.34 299.63"/><polygon class="cls-14" points="554.72 253.93 598.85 279.01 652.38 265.35 602.8 246.53 554.72 253.93"/><polygon class="cls-15" points="598.85 276.76 595.91 284.09 597.28 293.48 654.82 279.95 652.38 265.35 598.85 276.76"/><polygon class="cls-16" points="554.72 253.93 550.16 263.56 597.28 293.48 598.85 276.76 554.72 253.93"/><polygon class="cls-13" points="580.83 249.91 579.7 227 582.14 227 585.24 227.09 583.64 258.44 580.83 249.91"/><polygon class="cls-11" points="582.14 227 582.14 227.93 582.14 255.19 579.7 249.91 579.7 227 582.14 227"/><polygon class="cls-14" points="579.7 249.91 598.16 260.02 624.21 254.4 604.68 245.77 579.7 249.91"/><polygon class="cls-15" points="598.16 258.9 597.04 262.49 598.16 265.87 624.21 262.38 624.21 254.4 598.16 258.9"/><polygon class="cls-16" points="598.16 258.9 579.7 249.91 579.7 257.04 598.16 265.87 598.16 258.9"/><polygon class="cls-14" points="584.45 242.52 601.11 251.03 620.06 245.9 602.42 241.27 584.45 242.52"/><polygon class="cls-15" points="620.06 245.9 619.95 252.52 601.11 254.4 599.98 251.97 601.11 249.91 620.06 245.9"/><polygon class="cls-16" points="601.11 249.91 584.45 242.52 584.11 249.18 601.11 254.4 601.11 249.91"/><polygon class="cls-14" points="591.15 237.51 602.14 235.76 612.75 239.76 601.11 242.52 591.15 237.51"/><polygon class="cls-15" points="612.75 239.76 614.27 244.38 601.11 245.77 599.98 243.71 601.11 241.39 612.75 239.76"/><polygon class="cls-16" points="601.11 241.39 591.15 237.51 590.58 242.09 601.11 245.77 601.11 241.39"/><polygon class="cls-13" points="601.11 237.86 599.98 229.06 601.95 229.06 605.05 229.06 604.11 238.99 602.42 239.76 601.11 237.86"/><polygon class="cls-13" points="620.83 267.37 620.26 232.97 622.89 232.97 625.9 232.97 624.21 268.87 622.14 270 620.83 267.37"/><polygon class="cls-11" points="622.89 232.97 622.85 233.85 622.14 270 619.7 268.5 620.26 232.97 622.89 232.97"/><polygon class="cls-11" points="602.42 239.76 602.03 229.9 601.95 229.06 599.98 229.06 599.98 238.99 602.42 239.76"/><polygon class="cls-12" points="579.7 227 582.14 227.93 585.24 227.09 582.14 225.87 579.7 227"/><polygon class="cls-12" points="599.98 229.06 601.95 229.91 605.05 229.06 601.95 227.93 599.98 229.06"/><polygon class="cls-12" points="620.26 232.97 622.89 231.85 625.9 232.97 622.8 233.85 620.26 232.97"/></g><g id="librarian"><polygon class="cls-16" points="820.1 147.32 829.22 147.75 824.25 156.23 816.48 160.83 810.88 157.7 815.17 151.68 820.1 147.32"/><polygon class="cls-17" points="829.22 147.75 824.74 167.37 816.48 160.83 829.22 147.75"/><polygon class="cls-15" points="750.41 185.3 728.44 204.77 743.46 211.78 750.41 185.3"/><polygon class="cls-18" points="759.24 285.21 765.62 306.13 769.35 307.25 772.95 306.13 774.12 287.2 759.24 285.21"/><polygon class="cls-11" points="765.62 306.13 755.2 315.07 773.51 315.07 772.95 306.13 765.62 306.13"/><polygon class="cls-19" points="772.38 286.97 772.95 308.51 776.82 309.63 780.83 308.51 788.72 289.15 772.38 286.97"/><polygon class="cls-13" points="772.95 308.51 760.37 320.99 772.99 320.99 776.54 316.58 777.66 320.99 780.55 320.99 780.83 308.51 772.95 308.51"/><polygon class="cls-20" points="788.72 289.15 772.49 290.96 772.59 294.79 759.24 285.21 772.38 284.72 788.72 289.15"/><polygon class="cls-13" points="791.46 174.46 810.6 208.77 786.28 234.48 769.86 234.15 744.73 227.93 751.03 183.8 765.47 174.46 791.46 174.46"/><polygon class="cls-19" points="745.72 107.37 734.35 162.02 758.11 167.65 778.02 181.55 808.63 157.7 813.32 148.4 807.12 144.74 803.74 150.75 797.55 146.99 799.74 121.48 788.72 115.44 761.87 117.14 745.72 107.37"/><polygon class="cls-18" points="758.11 167.65 779.99 173.27 799.74 121.48 806.56 125.21 799.8 146.99 803.74 148.5 806 143.61 815.29 145.26 810.88 157.7 806.04 160.99 802.66 164.79 778.02 186.06 772.95 178.87 758.11 167.65"/><polygon class="cls-18" points="742.89 120.95 792.85 130.39 764.19 140.05 750.41 136 742.89 120.95"/><polygon class="cls-18" points="759.99 144.46 786.28 150.75 759.61 140.61 759.99 144.46"/><polygon class="cls-18" points="751.03 140.53 742.68 138.04 739.22 138.6 738.43 142.42 751.03 140.53"/><polygon class="cls-21" points="763.01 124.75 759.99 144.46 750.41 142.42 755.7 123.37 763.01 124.75"/><polygon class="cls-20" points="759.99 144.46 754.35 147.56 750.41 142.42 759.99 144.46"/><polygon class="cls-20" points="747.42 150.33 755.76 154.51 767.91 154.41 768.34 151.41 772.38 159.67 767.87 156.1 755.67 156.2 746.65 151.69 743.46 153.77 747.08 147.75 747.42 150.33"/><polygon class="cls-20" points="810.88 157.7 801.54 154.51 802.66 164.79 810.88 157.7"/><polygon class="cls-20" points="806.04 153.77 807.45 146.24 812.1 148.12 806.04 153.77"/><polygon class="cls-20" points="758.11 167.65 785.62 174.51 778.02 186.06 758.11 167.65"/><polygon class="cls-16" points="745.72 107.37 782.66 98.73 772.38 108.73 761.87 117.14 745.72 107.37"/><polygon class="cls-17" points="782.66 98.73 803.51 113.1 798.16 115.07 788.72 115.44 761.87 117.14 782.66 98.73"/><polygon class="cls-16" points="803.51 113.1 822.66 122.1 813.32 127.04 806.34 125.92 788.72 115.44 803.51 113.1"/><polygon class="cls-17" points="806.34 125.92 799.8 146.99 803.74 148.5 806 143.61 810.01 143.82 814.45 146.15 810.88 157.7 820.1 147.32 822.66 122.1 806.34 125.92"/><polygon class="cls-10" points="797.71 126.81 814.45 146.15 806 143.61 794.48 135.29 794.48 131.15 797.71 126.81"/><polygon class="cls-12" points="786.28 234.48 803.51 250.65 776.81 263.6 755.2 270 744.73 227.93 786.28 234.48"/><polygon class="cls-13" points="803.51 250.65 788.72 289.15 759.24 285.21 755.2 270 803.51 250.65"/><polygon class="cls-22" points="746.04 183.38 755.98 180.6 799.8 189.41 789.42 195.07 746.04 183.38"/><polygon class="cls-23" points="791.68 192.82 786.67 207.5 780.55 252.25 788.72 248.17 799.8 189.41 791.68 192.82"/><polygon class="cls-11" points="791.68 192.82 780.55 252.25 736.89 243.66 746.04 183.38 791.68 192.82"/><line class="cls-24" x1="752.1" y1="194.51" x2="781.77" y2="200.7"/><line class="cls-24" x1="759.24" y1="202.33" x2="772.66" y2="205.12"/><polygon class="cls-16" points="810.6 208.77 789.79 242.52 786.89 226.85 787 217.82 810.6 208.77"/><polygon class="cls-13" points="789.79 242.52 739.42 227 741.85 211.03 787 217.82 789.79 242.52"/><polygon class="cls-14" points="728.44 204.77 738.98 229.91 770.6 229.06 772.45 221.37 771.87 215.54 728.44 204.77"/><polygon class="cls-18" points="771.87 215.54 782.69 213.4 787 217.82 780.74 218 771.87 215.54"/><polygon class="cls-19" points="771.87 215.54 787 217.82 787.6 224.56 785.62 235.63 770.6 229.06 771.87 215.54"/><polygon class="cls-18" points="787 217.82 793.92 220.61 792.85 231.85 785.62 235.63 787 217.82"/><polygon class="cls-10" points="756.98 119.15 763.37 120.95 763.96 125.92 754.32 123.54 756.98 119.15"/><path class="cls-11" d="M728.44,113.1l.84,24.11L751,140.53l6-21.38ZM749,137.21l-16.15-2.61-.66-17.09,19.44,5.86Z"/><path class="cls-11" d="M763.37,121l-3,21,27.85,9.69,9.49-24.87Zm22.91,26-22.09-6.94,2.65-13.24,25,3.39Z"/><circle class="cls-25" cx="746.3" cy="128.88" r="3.08"/><circle class="cls-25" cx="775.32" cy="135.74" r="3.08"/></g><g id="child"><polygon class="cls-26" points="495.52 318.17 495.52 326.62 492.28 327.75 488.34 326.62 486.23 318.87 495.52 318.17"/><polygon class="cls-12" points="495.52 326.62 501.37 335.07 494.4 336.61 487.07 335.92 488.34 326.62 495.52 326.62"/><polygon class="cls-11" points="501.37 335.07 501.2 340.56 486.79 340.56 487.07 335.92 501.37 335.07"/><polygon class="cls-26" points="467.77 317.46 466.79 324.79 462.93 324.41 459.93 322.11 459.46 315.07 467.77 317.46"/><polygon class="cls-12" points="466.79 324.79 466.79 330.14 456.51 332.39 453.52 325.49 459.93 322.11 466.79 324.79"/><polygon class="cls-11" points="453.52 325.49 447.58 327.61 447.58 335.07 466.79 334.08 466.79 330.14 457.63 331.27 453.52 325.49"/><polygon class="cls-26" points="517.16 271.55 501.2 284.18 501.37 267.47 517.16 271.55"/><polygon class="cls-15" points="504.44 245.4 517.16 271.55 501.37 268.6 504.44 245.4"/><polygon class="cls-6" points="501.2 284.18 505.8 319.01 482.23 322.11 476.69 306.13 472.83 322.11 448.24 316.76 453.41 282.11 476.69 303.87 501.2 284.18"/><polygon class="cls-15" points="458.81 240.14 448.24 250.28 456.41 268.64 458.81 240.14"/><polygon class="cls-13" points="471.71 235.61 464.89 237.47 458.81 240.14 453.41 282.11 501.2 284.18 504.44 245.4 498.03 242.15 488.46 238.43 471.71 235.61"/><polygon class="cls-14" points="464.89 237.47 479.61 255.73 498.04 242.16 488.46 237.31 471.71 234.48 464.89 237.47"/><polygon class="cls-27" points="456.51 173.27 445.61 225.07 467.77 229.44 479.98 244.27 509.28 227.56 514.91 212.49 508.71 210.09 507.21 214.52 500.83 213.47 495.57 186.43 481.39 186.43 456.51 173.27"/><polygon class="cls-26" points="467.77 229.44 486.74 232.82 495.57 186.43 502.33 186.43 503.08 211.22 506.08 212.27 507.59 207.84 517.16 211.37 511.53 227.56 507.66 228.84 505.6 231.25 481.11 246.53 476.35 239.3 467.77 229.44"/><polygon class="cls-26" points="456.51 190.56 482.23 196.2 467.77 207.65 456.51 190.56"/><polygon class="cls-28" points="471.14 193.77 467.77 207.65 463.08 206.81 465.9 192.62 471.14 193.77"/><polygon class="cls-29" points="511.53 227.56 504.21 225.68 505.6 231.25 511.53 227.56"/><polygon class="cls-29" points="507.21 220.61 509.28 213.4 513.41 214.41 507.21 220.61"/><polygon class="cls-29" points="467.77 229.44 491.44 233.57 481.11 246.53 467.77 229.44"/><polygon class="cls-29" points="463.08 206.81 464.86 209.91 467.77 207.65 463.08 206.81"/><polygon class="cls-13" points="481.39 186.43 486.75 178.04 487.67 165.63 456.51 173.27 481.39 186.43"/><polygon class="cls-10" points="525.24 187.18 517.16 211.37 507.59 208.97 506.08 213.4 501.95 212.35 501.2 185.66 525.24 187.18"/><polygon class="cls-11" points="487.67 165.63 525.24 187.18 481.39 186.43 487.67 165.63"/><ellipse class="cls-25" cx="476.27" cy="202.15" rx="2.63" ry="2.3" transform="translate(182.49 628.05) rotate(-78.4)"/><ellipse class="cls-25" cx="458.81" cy="198.26" rx="2.63" ry="2.3" transform="translate(145.75 587.88) rotate(-74.59)"/><polygon class="cls-11" points="471.14 193.77 473.5 191.5 482.23 196.2 471.14 193.77"/><polygon class="cls-11" points="465.9 192.62 465.43 189.44 456.51 190.56 465.9 192.62"/><polygon class="cls-29" points="455.85 211.78 463.64 215.07 475.75 215.23 475.75 217.73 463.08 217.7 455.29 214.04 455.85 211.78"/><polygon class="cls-27" points="455.43 266.42 441.3 264.74 439.73 243.15 443.73 241.44 447.58 242.02 455.43 266.42"/><polygon class="cls-26" points="447.58 242.02 447.58 235.63 442.48 232.12 433.41 229 439.73 243.15 447.58 242.02"/><polygon class="cls-28" points="433.41 229 446.55 220.61 454.01 226.72 447.58 235.63 433.41 229"/><polygon class="cls-30" points="501.2 284.18 476.69 306.13 453.41 282.11 501.2 284.18"/></g><g id="books_table" data-name="books+table"><polygon class="cls-2" points="193.97 335.54 278.74 324.47 343.79 335.54 386.31 316.87 303.94 301.59 133.8 301.59 90.68 308.5 193.97 335.54"/><polygon class="cls-11" points="182.7 267 180.45 324.47 321.48 315.45 322.69 257.79 182.7 267"/><polygon class="cls-10" points="180.45 324.47 134.25 310.56 131.43 254.51 182.7 267 180.45 324.47"/><polygon class="cls-12" points="119.04 242.02 253.13 238.03 329.42 247.04 182.7 255.35 119.04 242.02"/><polygon class="cls-13" points="182.7 253.1 180.45 259.3 182.7 267 328.59 260.42 329.42 247.04 182.7 253.1"/><polygon class="cls-11" points="182.7 267 121.86 257.02 119.04 242.02 182.7 253.1 182.7 267"/><polygon class="cls-31" points="154.25 240.97 193.27 249.86 248.76 243.13 239.6 238.44 154.25 240.97"/><polygon class="cls-32" points="161.48 233.9 209.18 231.5 237.91 235.31 187.59 240.89 161.48 233.9"/><polygon class="cls-15" points="161.48 240.76 187.59 245.77 187.59 238.64 161.48 233.9 161.48 240.76"/><polygon class="cls-22" points="187.59 238.64 237.91 235.31 237.91 243.15 187.59 245.77 187.59 238.64"/><polygon class="cls-31" points="166.11 234.74 161.48 238.03 161.48 233.9 166.11 234.74"/><polygon class="cls-12" points="156.33 226.92 189.59 222.62 229.62 222.02 195.66 229.73 156.33 226.92"/><polygon class="cls-22" points="196.04 236.04 230.12 230.28 229.62 222.02 195.52 227.48 194.6 230.9 196.04 236.04"/><polygon class="cls-23" points="195.52 227.48 156.33 226.92 157.07 234.27 196.04 236.04 195.52 227.48"/><polygon class="cls-31" points="215.7 224.25 229.92 226.92 229.62 222.02 215.7 224.25"/><polygon class="cls-32" points="163.74 217.23 205.24 214.6 236.04 217.23 185.71 220.23 163.74 217.23"/><polygon class="cls-22" points="236.04 223.66 185.71 225.12 184.58 222.11 185.71 219.11 236.04 217.23 236.04 223.66"/><polygon class="cls-23" points="185.71 219.11 163.74 217.23 163.74 224.07 185.71 225.12 185.71 219.11"/><polygon class="cls-31" points="204.5 218.41 215.7 224.25 236.04 221.17 236.04 217.23 204.5 218.41"/><polygon class="cls-32" points="242.28 210.84 209.32 206.76 183.83 210.09 219.51 215.3 242.28 210.84"/><polygon class="cls-22" points="183.83 215.96 219.51 220.18 220.64 216.85 219.51 214.17 183.83 210.09 183.83 215.96"/><polygon class="cls-15" points="219.51 214.17 242.28 210.84 242.28 216.9 219.51 220.18 219.51 214.17"/><polygon class="cls-31" points="258.01 240.89 270.82 244.75 285.14 242.02 304.39 248.07 304.39 261.51 297.26 261.83 292.71 317.29 301.01 316.76 310.73 301.59 321.82 299.17 321.82 260.73 328.59 260.42 329.42 247.04 267.77 239.76 258.01 240.89"/></g><g id="character"><polygon class="cls-26" points="278.74 233.9 273.78 229.3 262.89 235.31 267.91 238.95 273.78 240.76 278.74 233.9"/><polygon class="cls-29" points="262.89 235.31 258.01 240.76 273.78 240.76 262.89 235.31"/><polygon class="cls-15" points="312.16 186.76 295.72 215.77 300.41 222.94 307.78 222.7 312.16 186.76"/><polygon class="cls-15" points="360.64 195.07 369.94 223.66 364.59 228.12 356.16 228.06 353.95 224.26 355.28 208.63 360.64 195.07"/><polygon class="cls-12" points="356.16 228.06 369.94 223.66 373.26 228.12 373.26 233.9 362.31 238.64 356.16 228.06"/><polygon class="cls-27" points="369.94 223.66 381.8 219.88 384.07 223.1 385.43 228.69 373.26 233.9 369.94 223.66"/><polygon class="cls-26" points="381.8 219.88 384.71 210.09 386.93 212.91 387.87 215.77 383.43 225.32 381.8 219.88"/><polygon class="cls-11" points="377.24 238.64 398.35 193.23 435.38 199.86 417.35 249.26 377.24 238.64"/><polygon class="cls-27" points="384.71 210.09 393.17 210.09 393.88 212.73 387.87 215.77 384.71 210.09"/><polygon class="cls-22" points="435.38 199.86 439.27 211.6 420.45 257.79 417.55 252.74 417.35 247.01 435.38 199.86"/><polygon class="cls-23" points="377.24 238.64 380.56 247.01 420.45 257.79 417.35 247.01 377.24 238.64"/><line class="cls-33" x1="400.54" y1="204.08" x2="424.82" y2="208.59"/><line class="cls-33" x1="398.29" y1="208.59" x2="422.56" y2="213.1"/><polygon class="cls-14" points="324.01 182.65 312.16 186.76 304.39 211.92 329.37 223.47 353.95 224.26 360.64 195.07 324.01 182.65"/><polygon class="cls-22" points="324.01 182.65 321.54 204.84 339.32 198.53 349.07 208.97 346.6 190.31 324.01 182.65"/><polygon class="cls-27" points="301.01 290.85 294.29 316.12 297.82 322.59 314.21 299.17 317.82 291.5 301.01 290.85"/><polygon class="cls-10" points="312.16 186.76 284.95 169.57 296.41 163.39 312.16 186.76"/><polygon class="cls-10" points="398.67 121.14 406.96 146.4 381.8 171.96 398.67 121.14"/><polygon class="cls-11" points="308.48 124.09 292.96 174.63 312.16 186.76 324.01 182.65 327.79 132.18 316.57 134.01 308.48 124.09"/><polygon class="cls-10" points="304.88 135.81 324.01 182.65 327.79 132.18 304.88 135.81"/><polygon class="cls-27" points="398.67 121.14 377.95 188.61 352.97 183.1 338.95 189.06 324.01 182.65 328.74 134.71 348.95 123.83 398.67 121.14"/><polygon class="cls-26" points="349.4 128.65 335.85 179.01 352.97 183.1 339.32 198.53 324.01 182.65 320.43 133.35 349.4 128.65"/><polygon class="cls-29" points="331.47 177.66 352.97 183.1 339.32 198.53 331.47 177.66"/><polygon class="cls-28" points="370.82 162.26 363.73 160.26 370.85 133.82 377.95 135.81 370.82 162.26"/><polygon class="cls-25" points="371.92 128.75 370.82 132.18 362.43 128.96 355.48 130.11 362.43 126.83 371.92 128.75"/><polygon class="cls-25" points="380.1 130.43 379.46 133.82 385.66 134.71 391.86 138.98 386.45 132.89 380.1 130.43"/><polygon class="cls-10" points="331.2 128.75 332.01 142.46 334.9 142.27 341.2 130.01 331.2 128.75"/><polygon class="cls-29" points="370.82 162.26 366.75 163.72 363.73 160.26 370.82 162.26"/><polygon class="cls-15" points="374.03 171.98 363.21 174.6 351.85 166.06 364.43 167.61 374.03 171.98"/><polygon class="cls-14" points="351.85 166.06 361.55 178.79 374.03 171.98 363.61 170.38 351.85 166.06"/><polygon class="cls-26" points="297.82 322.59 285.14 322.59 288.91 317.45 294.95 313.61 297.82 322.59"/><polygon class="cls-13" points="296.41 163.39 324.01 182.65 304.88 135.81 296.41 163.39"/><polygon class="cls-27" points="332.33 147.85 321.54 148.33 320.43 133.35 331.38 131.68 332.33 147.85"/><polygon class="cls-26" points="364.64 147.28 363.1 138.22 351.35 134.93 350.78 131.73 369.94 137.2 367.09 147.89 364.64 147.28"/><polygon class="cls-26" points="374.17 149.52 378.87 142.16 388.67 140.46 377.04 138.98 374.17 149.52"/><polygon class="cls-29" points="314.21 299.17 301.01 290.85 318.85 292.53 314.21 299.17"/><polygon class="cls-26" points="372.56 155.81 383.58 155.39 373.3 152.93 372.56 155.81"/><polygon class="cls-26" points="344.77 145.98 365.07 154.9 366.18 151.27 344.77 145.98"/><polygon class="cls-29" points="321.57 148.99 322.34 159.63 332.33 147.85 321.54 148.33 321.57 148.99"/><polygon class="cls-29" points="322.69 135.32 328.74 134.71 329.37 142.72 322.69 135.32"/><polygon class="cls-11" points="291.79 321.04 288.91 317.45 282.14 320.85 286.08 322.08 291.79 321.04"/><polygon class="cls-10" points="297.44 321.2 282.14 320.85 281.3 323.32 298.35 323.32 300.25 319.12 297.44 321.2"/><polygon class="cls-27" points="334.76 293.05 335.51 301.59 339.13 316.87 346.04 322.22 350.5 296.1 334.76 293.05"/><polygon class="cls-26" points="346.04 322.22 346.04 326.34 342.11 327.46 335.51 321.79 339.13 316.87 346.04 322.22"/><polygon class="cls-29" points="335.51 301.59 333.73 293.29 350.5 296.1 335.51 301.59"/><polygon class="cls-11" points="336.7 320.17 331.88 326.34 343.79 326.34 336.7 320.17"/><polygon class="cls-10" points="346.04 326.34 331.88 326.34 331.47 328.66 346.04 328.66 346.04 326.34"/><polygon class="cls-29" points="396.45 128.35 362.43 126.83 385.88 120.92 398.68 121.17 396.45 128.35"/><polygon class="cls-34" points="354.6 167.08 363.61 170.38 371.7 171.62 367.8 173.45 357.72 171.02 354.6 167.08"/><polygon class="cls-15" points="367.8 173.45 362.09 176.26 357.72 171.02 367.8 173.45"/><polygon class="cls-32" points="304.39 211.92 353.95 224.26 346.82 244.75 314.21 243.15 304.39 211.92"/><polygon class="cls-12" points="295.72 215.77 288.99 223.13 297.26 231.5 307.78 222.7 295.72 215.77"/><polygon class="cls-27" points="288.99 223.13 275.11 237.72 277.31 240.41 285.14 241.81 297.26 231.5 288.99 223.13"/><polygon class="cls-28" points="285.14 241.81 275.11 237.72 266.46 240.76 268.16 243.13 285.14 241.81"/><polygon class="cls-15" points="353.95 224.26 314.21 243.15 334.13 247.6 349.07 247.01 353.95 224.26"/><polygon class="cls-16" points="349.07 247.01 356.16 260.42 335.09 274.3 301.01 290.85 314.21 243.15 349.07 247.01"/><polygon class="cls-15" points="301.01 290.85 356.16 260.42 350.5 296.1 301.01 290.85"/><polygon class="cls-31" points="393.88 212.73 389.29 217.71 385.96 219.88 387.87 215.77 393.88 212.73"/><polygon class="cls-10" points="314.21 105.42 349.98 85.79 398.12 98.49 357.81 106.45 314.21 105.42"/><polygon class="cls-11" points="294.58 107.05 304.88 135.81 406.42 119.97 398.85 109.55 394.38 102.63 294.58 107.05"/><polygon class="cls-12" points="294.58 107.05 406.42 119.97 404.53 97.96 294.58 107.05"/><polygon class="cls-35" points="388.84 153.06 392.04 142.65 378.3 139.37 375.48 149.92 388.84 153.06"/><polygon class="cls-35" points="349.07 143.42 367.09 147.89 369.94 137.2 351.9 132.85 349.07 143.42"/><polygon class="cls-15" points="349.07 143.42 351.9 132.85 369.94 137.2 370.85 133.82 349.4 128.65 344.77 145.98 366.18 151.27 367.09 147.89 349.07 143.42"/><polygon class="cls-15" points="396.49 140.09 377.94 135.63 377.04 138.98 392.04 142.65 388.84 153.06 374.17 149.52 373.26 152.91 391.22 157.22 396.49 140.09"/><circle class="cls-25" cx="363.41" cy="143.79" r="2.49"/><circle class="cls-25" cx="386.53" cy="149.35" r="2.49"/></g></svg>