<svg id="illustration" xmlns="http://www.w3.org/2000/svg" viewBox="0 0 900 350"><defs><style>.cls-1,.cls-3{fill:#ececeb;}.cls-1,.cls-10,.cls-11,.cls-12,.cls-13,.cls-14,.cls-15,.cls-16,.cls-17,.cls-18,.cls-19,.cls-2,.cls-20,.cls-21,.cls-22,.cls-23,.cls-24,.cls-25,.cls-27,.cls-28,.cls-29,.cls-30,.cls-31,.cls-32,.cls-33,.cls-34,.cls-35,.cls-36,.cls-37,.cls-38,.cls-39,.cls-4,.cls-40,.cls-41,.cls-42,.cls-43,.cls-44,.cls-45,.cls-46,.cls-47,.cls-48,.cls-49,.cls-5,.cls-51,.cls-52,.cls-53,.cls-6,.cls-7,.cls-8,.cls-9{fill-rule:evenodd;}.cls-2{fill:#dddddc;}.cls-4{fill:#cececd;}.cls-5{fill:#c4c4c4;}.cls-6{fill:#9da1a2;}.cls-7{fill:#734d60;}.cls-8{fill:#c09c84;}.cls-9{fill:#96637c;}.cls-10{fill:#a77e62;}.cls-11{fill:#c9ad9b;}.cls-12{fill:#835940;}.cls-13{fill:#b3889d;}.cls-14{fill:#fff;}.cls-15{fill:#d1a1b8;}.cls-16{fill:#a688ba;}.cls-17{fill:#9075a0;}.cls-18{fill:#6f7173;}.cls-19{fill:#4f5253;}.cls-20{fill:#efd3c2;}.cls-21{fill:#d0af96;}.cls-22{fill:#f7e6dc;}.cls-23{fill:#a9846c;}.cls-24{fill:#474747;}.cls-25{fill:#858686;}.cls-26,.cls-40{fill:#2b2b2b;}.cls-27{fill:#785d88;}.cls-28{fill:#a3a3a3;}.cls-29{fill:#84614f;}.cls-30{fill:#674736;}.cls-31{fill:#412b23;}.cls-32{fill:#8c6d5d;}.cls-33{fill:#594165;}.cls-34{fill:#a27e6e;}.cls-35{fill:#7f5d4e;}.cls-36{fill:#593e35;}.cls-37{fill:#aa8d80;}.cls-38{fill:#543042;}.cls-39{fill:#8f8f8f;}.cls-40{opacity:0.1;}.cls-41{fill:#c3987b;}.cls-42{fill:#8b6651;}.cls-43{fill:#dfbda5;}.cls-44{fill:#e8cab6;}.cls-45{fill:#737373;}.cls-46{fill:#fde4d5;}.cls-47{fill:#f5cab3;}.cls-48,.cls-50{fill:#c2917d;}.cls-49{fill:#fff0e8;}.cls-51{fill:#916a59;}.cls-52{fill:#b18d79;}.cls-53{fill:#66483a;}</style></defs><title>analysts_INTJ_scene_med_romantic_relationships</title><g id="landscape"><polygon class="cls-1" points="732.75 109.02 724.5 108.77 724.5 111.32 718.92 111.32 718.7 118.39 731.75 118.39 732.75 109.02"/><polygon class="cls-1" points="713.3 119.76 714.16 107.23 705.4 107.23 704.75 120.7 713.3 119.76"/><polygon class="cls-1" points="702.18 120.9 702.18 96.54 694.78 96.54 694.78 121.34 702.18 120.9"/><polygon class="cls-1" points="684.43 122.33 684.43 111.32 673.54 111.32 674.5 125.64 684.43 122.33"/><polygon class="cls-2" points="739 101.75 731.25 102.83 730 116.3 739 115.83 739 101.75"/><polygon class="cls-2" points="721.15 116.3 721.15 78.5 713.3 78.5 711.53 117.8 721.15 116.3"/><polygon class="cls-2" points="707.17 118.39 708.5 91 702.18 91 701 119.76 707.17 118.39"/><polygon class="cls-2" points="697.42 119.76 697.33 71.75 684.43 71.75 682.31 121.34 697.42 119.76"/><polygon class="cls-2" points="676.75 124 676.75 104.71 667.75 104.62 666.8 124.52 676.75 124"/><rect class="cls-3" x="858.75" y="98.5" width="11.5" height="25.65"/><polygon class="cls-1" points="835 98.54 841.33 98.54 841.33 104.62 848.75 104.62 847.22 120.9 836 120.7 835 98.54"/><rect class="cls-3" x="821.25" y="91" width="7.5" height="24.83"/><polygon class="cls-1" points="804.25 98.54 811.08 98.54 811.83 95.52 818.5 95.52 817.25 115.83 804.25 112.83 804.25 98.54"/><polygon class="cls-1" points="783 101.75 792.82 101.75 794 110.92 783 112.83 783 101.75"/><polygon class="cls-2" points="828.75 66.75 825.51 119.76 836 120.7 838 66.75 828.75 66.75"/><polygon class="cls-2" points="845.25 120.7 846.75 91 861 91 861 122.33 845.25 120.7"/><polygon class="cls-2" points="805.86 112.83 805.86 93.72 794 93.72 791.78 108.82 805.86 112.83"/><polygon class="cls-2" points="815.67 112.83 815.67 81.25 824.17 81.25 823 115.83 815.67 112.83"/><polygon class="cls-2" points="784.25 110.92 784.25 98.5 774.93 98.54 773.75 110.92 784.25 110.92"/><polygon class="cls-2" points="771.25 112.83 771.25 104.71 765.95 104.71 765.33 112.83 771.25 112.83"/><polygon class="cls-2" points="867.75 123.78 869.75 84.25 878.33 84.25 876 125 867.75 123.78"/><polygon class="cls-2" points="749.25 91 758.75 91 758.75 114.33 749.25 114.66 749.25 91"/><polygon class="cls-1" points="883 122.61 791.78 107.23 672.2 120.67 507.96 112.15 331.31 128.26 244.91 113.08 17.59 126.08 27 231.5 519.97 183.29 873 214.81 883 122.61"/><polygon class="cls-2" points="17.59 155.4 200.74 132.69 392.99 136.6 511.62 132.69 639.41 118.39 779.08 130.33 878.33 126.08 878.33 212.38 505.01 187.67 23 231.5 17.59 155.4"/><polygon class="cls-4" points="17.59 155.4 229.74 164.7 509.99 138.87 702.18 161.33 878.33 147.85 878.33 205.27 490.07 181.46 26.33 224.74 17.59 155.4"/><polygon class="cls-5" points="830.99 151.47 830.99 138.87 834 138.65 834 151.24 830.99 151.47"/><polygon class="cls-6" points="825.83 139.83 834 142.06 840.67 136.83 841.33 132.25 831.67 134.54 824.17 136 825.83 139.83"/><polygon class="cls-5" points="824.17 136 825.51 128.34 834 129.33 841.33 132.25 832.49 135.83 824.17 136"/><polygon class="cls-4" points="825.51 128.34 832.75 122.33 838.83 122.33 841.33 132.25 825.51 128.34"/><polygon class="cls-5" points="41.68 152.41 41.4 139.98 43.91 139.76 43.64 152.12 41.68 152.41"/><polygon class="cls-5" points="37.11 140.94 43.83 143.13 49.46 137.96 50.01 133.41 42.22 134.4 35.72 133.41 37.11 140.94"/><polygon class="cls-4" points="35.72 133.41 41.4 119.76 47.93 123.57 50.01 133.41 41.96 135.69 35.72 133.41"/><polygon class="cls-2" points="204.68 115.51 204.53 109.3 205.79 109.19 205.66 115.36 204.68 115.51"/><polygon class="cls-2" points="202.39 109.78 205.75 110.87 208.56 108.29 208.84 106.02 204.95 106.52 201.7 106.02 202.39 109.78"/><polygon class="cls-2" points="201.7 106.02 204.53 99.2 207.8 101.11 208.84 106.02 204.82 107.16 201.7 106.02"/><polygon class="cls-5" points="786.68 154.86 785.83 140 789.79 140 789.79 154.62 786.68 154.86"/><polygon class="cls-6" points="785.95 142.06 779.67 138.65 777.87 130.23 789.79 130.25 798.5 130.23 794.67 140 785.95 142.06"/><polygon class="cls-5" points="777.87 130.23 778.83 124 789.79 126.34 797.82 124 798.5 130.23 789.79 132.25 777.87 130.23"/><polygon class="cls-4" points="778.83 124 785.83 114.33 793.17 115.83 797.82 124 789.79 128.34 778.83 124"/><polygon class="cls-5" points="855.13 149.52 856.84 138.97 853.9 138.43 852.92 149.69 855.13 149.52"/><polygon class="cls-6" points="856.84 138.97 860.89 137.53 862.73 133.6 855.87 131.87 848.75 129.93 853.78 139.86 856.84 138.97"/><polygon class="cls-5" points="848.75 129.93 848.75 126.02 854.88 127.36 864.69 127.98 862.73 133.6 855.87 133.34 848.75 129.93"/><polygon class="cls-4" points="864.69 127.98 861 118.9 854.5 112.83 848.75 126.02 854.88 128.83 864.69 127.98"/><polygon class="cls-5" points="197.39 163.28 194.53 148.23 198.63 147.48 200.25 163.41 197.39 163.28"/><polygon class="cls-6" points="190.89 149.23 184.33 140.75 195.88 138.34 205.81 135.64 198.8 149.47 190.89 149.23"/><polygon class="cls-5" points="205.81 135.64 207.81 129.19 197.26 132.06 183.6 132.91 184.33 140.75 195.88 140.39 205.81 135.64"/><polygon class="cls-5" points="183.6 132.91 188.04 122.54 196.42 116.06 207.81 129.19 197.26 134.11 183.6 132.91"/><polygon class="cls-4" points="810.33 128.99 810.33 121.34 811.83 121.34 811.83 128.89 810.33 128.99"/><polygon class="cls-5" points="811.83 124 808 121.34 807.17 118.39 811.83 117.39 815.67 117.8 811.83 124"/><polygon class="cls-4" points="807.17 118.39 808.83 113.5 813.68 110.92 815.67 117.8 811.83 118.39 807.17 118.39"/><polygon class="cls-2" points="176.21 116.93 176.21 110.8 177.62 110.8 177.62 116.85 176.21 116.93"/><polygon class="cls-2" points="177.62 112.93 174.02 110.8 173.23 108.44 177.62 107.64 181.23 107.97 177.62 112.93"/><polygon class="cls-2" points="173.23 108.44 174.8 104.52 179.36 102.46 181.23 107.97 177.62 108.44 173.23 108.44"/><polygon class="cls-4" points="757.34 128.47 758.33 121.34 760.17 121.34 759.5 128.66 757.34 128.47"/><polygon class="cls-5" points="759.92 124 756.33 122.33 754.83 119.76 760.17 118.76 765.33 117.8 762.67 124 759.92 124"/><polygon class="cls-4" points="754.83 119.76 754.83 115.83 760.17 112.83 765.33 117.8 760.17 119.76 754.83 119.76"/><polygon class="cls-2" points="344.27 126.95 343.55 121.8 342.22 121.8 342.7 127.09 344.27 126.95"/><polygon class="cls-2" points="342.4 123.72 344.99 122.52 346.08 120.66 342.22 119.94 338.49 119.25 340.42 123.72 342.4 123.72"/><polygon class="cls-2" points="346.08 120.66 346.08 117.82 342.22 115.66 338.49 119.25 342.22 120.66 346.08 120.66"/></g><g id="woman"><polygon class="cls-7" points="359.75 82.48 357.33 94.78 364.17 100.97 359.75 82.48"/><polygon class="cls-8" points="359.75 82.48 366.25 120.31 382.78 118.39 385.03 120.31 385.03 123.5 376.25 126.09 373.23 153.57 378.25 154.17 382.78 148.29 412 142.48 411 125.46 398.75 122.75 402.67 102 394.77 83.5 359.75 82.48"/><polygon class="cls-9" points="385.03 122.5 375.25 125.09 373.23 153.57 378.25 154.17 382.78 148.29 412 142.48 412 124.46 399.75 121.75 385.03 122.5"/><polygon class="cls-7" points="379.25 154.17 376.71 144.66 369.5 134.24 366.17 134.24 364 136.67 370.71 153.5 379.25 154.17"/><polygon class="cls-9" points="404.5 100.97 415.33 105.17 415.33 113.33 409.99 109.47 404.5 100.97"/><polygon class="cls-7" points="404.5 100.97 409.92 119.28 415.33 113.33 404.5 100.97"/><polygon class="cls-10" points="382.78 118.39 389.5 117.33 389.5 83.35 395.67 83.35 405.33 102.69 401.8 114.25 399.75 121.75 392.33 124.46 385.88 120.9 382.78 118.39"/><polygon class="cls-10" points="365 95.5 376.26 94.78 379.31 95.84 382.31 100.18 377.33 106.2 365 95.5"/><polygon class="cls-11" points="376.26 94.78 377.33 106.2 374.58 106.58 373.09 94.98 376.26 94.78"/><polygon class="cls-12" points="377.33 106.2 376.08 108.42 374.58 106.58 377.33 106.2"/><polygon class="cls-9" points="371.08 112.83 376.42 109.58 382.33 111.21 376.69 112.44 371.08 112.83"/><polygon class="cls-13" points="382.33 111.21 377.33 115.94 371.08 112.83 382.33 111.21"/><polygon class="cls-14" points="373.63 112.47 377 114.25 379.75 111.58 373.63 112.47"/><polygon class="cls-9" points="363.19 96.63 365.69 93.63 368.37 95.28 370.31 92.94 373.09 94.98 369.13 102 363.19 96.63"/><polygon class="cls-15" points="344.22 77.6 347.23 76.09 348.78 78.34 351.13 77.16 353.05 80.34 347.05 83.9 344.22 77.6"/><polygon class="cls-15" points="340.91 91.09 345.1 90.73 345.87 94.04 349.13 93.75 349.9 98.33 341.29 99.71 340.91 91.09"/><polygon class="cls-15" points="350.59 105.78 352.67 104 354.32 105.46 355.94 104.07 358.08 106.19 354.05 110.18 350.59 105.78"/><polygon class="cls-9" points="376.26 94.78 378.88 91.81 381.56 93.47 383.69 91.13 387.27 93.43 382.31 100.18 376.26 94.78"/><polygon class="cls-12" points="382.78 118.39 389.5 117.33 392.33 124.46 385.03 122.5 382.78 118.39"/><polygon class="cls-7" points="359.75 82.48 393.5 92.78 394.77 100.97 397.33 100.97 399.89 109.58 401.8 114.25 412.33 92.17 398.92 80 359.75 82.48"/><polygon class="cls-9" points="359.75 82.48 369.33 74.33 379.75 74 391.17 69.45 408.33 77.97 412.33 92.17 398.92 81 359.75 82.48"/><polygon class="cls-13" points="369.33 74.33 398.92 81 391.17 69.45 369.33 74.33"/><polygon class="cls-16" points="385.03 122.5 382.78 137.67 398.92 136.4 399.75 121.75 404.51 122.8 404.51 135.75 407.67 143.34 405.33 152 405.67 159.91 412 175 381.5 177.81 380 165 379.75 155.5 376.71 144.66 380.44 123.78 385.03 122.5"/><polygon class="cls-17" points="376.71 144.66 407.67 143.34 405.67 159.91 380 165 376.71 144.66"/><polygon class="cls-12" points="369.5 134.24 368.14 128.26 363.83 125.89 358.17 126.08 364 136.67 369.5 134.24"/><polygon class="cls-10" points="358.17 126.08 365.52 116.06 369.5 119.94 368.14 128.26 358.17 126.08"/><polygon class="cls-7" points="406.54 152.65 412.33 151.67 414.33 144.43 405.67 141.34 406.54 152.65"/><polygon class="cls-12" points="414.33 144.43 417.83 138.87 407.83 135.67 405.72 142.09 414.33 144.43"/><polygon class="cls-10" points="407.18 137.67 404.51 134.24 402.28 136.4 405.72 142.09 407.18 137.67"/><polygon class="cls-10" points="417.83 138.87 418.83 130.33 412 127.69 407.83 135.67 417.83 138.87"/></g><g id="woman2"><polygon class="cls-18" points="446 126.08 436.5 131.28 441.76 160.53 453.17 163.3 466.19 163.3 471.37 131.33 460.68 123.77 446 126.08"/><polygon class="cls-19" points="439.49 148.29 468.87 146.79 466.19 163.3 441.76 160.53 439.49 148.29"/><polygon class="cls-17" points="436.5 131.28 428.5 153.17 441.51 153.57 436.5 131.28"/><polygon class="cls-20" points="431.99 83.9 427.1 119.76 442.69 122.16 448.96 127.03 460.62 123.52 473.75 109.57 466.19 92.17 431.99 83.9"/><polygon class="cls-21" points="461.88 91.13 455 124.46 442.69 122.16 448.96 127.03 459.22 125.14 464.93 119.76 477.75 109.57 466.19 92.17 461.88 91.13"/><polygon class="cls-21" points="433.5 95.52 452.11 98.53 441.5 107.31 433.5 95.52"/><polygon class="cls-22" points="443.43 97.12 441.5 107.31 439.13 107.09 440.76 96.69 443.43 97.12"/><polygon class="cls-23" points="441.5 107.31 440.31 108.94 439.13 107.09 441.5 107.31"/><polygon class="cls-23" points="442.69 122.16 459.22 125.14 452.11 132.18 442.69 122.16"/><polygon class="cls-19" points="436.5 83.35 441.5 87.45 461.13 94.78 465.51 105.47 464.5 110.18 467.78 111.21 470.03 106.2 475.75 109.57 467.78 119.28 473.75 124.46 483 107.23 478.75 85.14 465.51 82.48 452.11 72.75 436.5 83.35"/><polygon class="cls-24" points="475.75 109.57 483 107.23 473.75 127.03 460.68 123.77 475.75 109.57"/><polygon class="cls-18" points="478.75 85.14 461.13 94.78 452.11 72.75 478.75 85.14"/><polygon class="cls-25" points="452.11 72.75 441.5 87.45 431.99 83.9 452.11 72.75"/><polygon class="cls-23" points="470.79 114.25 467.78 112.92 468.86 116.06 470.79 114.25"/><polygon class="cls-23" points="470 111.58 470.79 108.94 473.11 110.26 470 111.58"/><polygon class="cls-19" points="443.43 97.12 445.88 95.65 452.11 98.53 443.43 97.12"/><polygon class="cls-19" points="440.76 96.69 440.31 94.78 433.5 95.52 440.76 96.69"/><polygon class="cls-17" points="435.63 113.25 440.31 111.26 444.13 114.75 439.88 114.75 435.63 113.25"/><polygon class="cls-16" points="435.63 113.25 439.88 116.69 444.13 114.75 435.63 113.25"/><ellipse class="cls-26" cx="447.5" cy="103.44" rx="1.5" ry="2.03"/><ellipse class="cls-26" cx="436.5" cy="101.41" rx="1.5" ry="2.03"/><polygon class="cls-27" points="441.76 164.7 438 176.83 467.78 174.21 466.99 168.62 452.89 165 441.76 164.7"/><polygon class="cls-25" points="441.76 160.53 441.76 164.7 466.99 168.62 466.19 163.3 441.76 160.53"/><polygon class="cls-7" points="456.87 145.21 462.64 147.16 457.77 153.57 449 149.39 456.87 145.21"/><polygon class="cls-27" points="428.5 153.17 442.81 147.29 446 148.29 447.5 151.5 441.76 160.53 428.5 153.17"/><polygon class="cls-9" points="442.81 147.29 449 142.09 456.87 145.21 447.5 151.5 442.81 147.29"/></g><g id="woman3"><polygon class="cls-17" points="582.48 82.67 587 99.88 560.11 122.16 551.03 112.83 567.49 90.41 582.48 82.67"/><polygon class="cls-18" points="565.1 123.78 572.82 143.53 557.64 144 565.1 123.78"/><polygon class="cls-18" points="530.48 121.37 518.83 136.84 532.48 145.21 530.48 121.37"/><polygon class="cls-28" points="558.26 117.8 565.1 123.78 558.76 143.61 553.33 154.21 533.17 153.57 530.67 143.99 530.48 121.37 544.97 113.83 558.26 117.8"/><polygon class="cls-29" points="582.48 82.67 576.59 118.39 559.9 116.06 552.63 123.78 542.17 112.92 542.17 101.42 570.34 80.83 582.48 82.67"/><polygon class="cls-30" points="557.23 90.41 553.92 115.33 559.9 116.06 554.89 119.17 552.63 123.78 542.17 112.92 542.17 101.42 557.23 90.41"/><polygon class="cls-31" points="559.9 116.06 549.88 114.57 552.63 123.78 559.9 116.06"/><polygon class="cls-30" points="561.63 92 579 94.78 568 102.31 561.63 92"/><polygon class="cls-32" points="569.07 93.19 568 102.31 571.13 102.75 572.82 93.79 569.07 93.19"/><polygon class="cls-31" points="568 102.31 569.35 104.46 571.13 102.75 568 102.31"/><polygon class="cls-33" points="569.07 93.19 568.51 91.19 562.33 92.19 569.07 93.19"/><polygon class="cls-33" points="572.82 93.79 574.92 92 579 94.78 572.82 93.79"/><polygon class="cls-33" points="561.33 106.33 568.67 105.83 573.75 108.08 569.56 112.08 564.25 111.25 561.33 106.33"/><polygon class="cls-14" points="563.85 107.23 571.13 108.32 569.56 110.63 565.03 110.1 563.85 107.23"/><ellipse class="cls-26" cx="575.63" cy="98.51" rx="1.25" ry="1.36"/><ellipse class="cls-26" cx="565.09" cy="97.15" rx="1.25" ry="1.36"/><polygon class="cls-31" points="543.67 106.33 548.33 106.33 544.26 110.63 543.67 106.33"/><polygon class="cls-17" points="582.48 82.67 543.67 106.33 539.5 97.97 537 83.77 570.31 72.75 582.48 82.67"/><polygon class="cls-27" points="543.67 106.33 540.83 112.08 534 116.69 527.49 107.23 537 83.77 543.67 106.33"/><polygon class="cls-16" points="582.48 82.67 537 83.77 570.41 69.5 582.48 82.67"/><polygon class="cls-17" points="543.67 106.33 527.49 107.23 530.48 121.37 544.97 115.83 543.67 106.33"/><polygon class="cls-25" points="558.76 143.61 530.48 143.99 530.77 155.74 543.67 158.17 557.89 155.74 558.76 143.61"/><polygon class="cls-18" points="557.89 155.74 561.54 172.35 530.48 171.45 530.77 155.74 557.89 155.74"/><polygon class="cls-30" points="572.82 143.53 565.33 137.37 562.33 142.06 561.33 146.4 568 149.67 572.82 143.53"/><polygon class="cls-30" points="556.5 133.65 549.88 131.58 549.62 133.29 557.09 136.6 556.5 133.65"/><polygon class="cls-30" points="565.33 137.37 562.55 131.75 560.6 132.15 561.63 138.3 565.33 137.37"/><polygon class="cls-29" points="565.33 137.37 556.5 133.65 554.89 145.21 561.33 146.4 565.33 137.37"/></g><g id="woman4"><polygon class="cls-17" points="728 119.17 739 128.66 734.5 157.54 711.53 158.24 703.19 138.87 714.2 122.4 728 119.17"/><polygon class="cls-34" points="689.82 83.06 689.87 114.66 714.2 122.4 719.38 118.58 716.53 95.03 701.47 86.06 689.82 83.06"/><polygon class="cls-35" points="714.16 87 714.2 122.4 704.07 119.17 712.53 129.58 722.72 123.65 728 119.17 736.11 106.33 714.16 87"/><polygon class="cls-9" points="704.07 81.25 720.09 74.33 739 78.5 740.46 96.89 728.5 105.38 714.17 101.75 701.47 86.06 704.07 81.25"/><polygon class="cls-36" points="704.07 119.17 714.2 122.4 721.15 121.16 722.72 123.65 713.53 131.58 704.07 119.17"/><polygon class="cls-7" points="714.17 101.75 740.46 96.89 736.29 113.47 728 119.17 714.17 101.75"/><polygon class="cls-13" points="701.47 86.06 739 78.5 718.82 70.69 689.82 83.06 701.47 86.06"/><polygon class="cls-35" points="692.67 93.39 707.17 96.89 699.92 105.38 692.67 93.39"/><polygon class="cls-37" points="700.89 95.37 699.92 105.38 697 104.62 697.78 94.62 700.89 95.37"/><polygon class="cls-36" points="699.92 105.38 698.29 106.96 697 104.62 699.92 105.38"/><polygon class="cls-38" points="707.17 96.89 702 94 700.89 95.37 707.17 96.89"/><polygon class="cls-38" points="697.78 94.62 697.25 92.96 692.67 93.39 697.78 94.62"/><polygon class="cls-38" points="698.44 108.77 702.06 110.77 698.19 110.52 694.77 109.33 698.44 108.77"/><polygon class="cls-7" points="693.77 108.77 698.19 110.52 703.19 110.77 698.01 112.89 693.77 108.77"/><ellipse class="cls-26" cx="704.43" cy="100.5" rx="1.24" ry="1.67"/><ellipse class="cls-26" cx="694.77" cy="98.55" rx="1.24" ry="1.67"/><polygon class="cls-27" points="703.19 138.87 736.11 147.22 734.5 163.3 723.71 165.59 713.53 164.24 703.19 138.87"/><polygon class="cls-9" points="713.53 164.24 710.58 181.38 742.63 182.75 734.5 163.3 713.53 164.24"/><polygon class="cls-16" points="739 128.66 732.75 123.27 722.72 143.82 734.5 157.54 739 128.66"/><polygon class="cls-36" points="703.19 138.87 700.89 157.15 711.46 159.14 709.04 143.65 706.88 140.76 703.19 138.87"/><polygon class="cls-35" points="703.19 138.87 705.67 134.09 709.88 136.14 712.07 138.65 709.04 143.65 703.19 138.87"/><polygon class="cls-34" points="705.67 134.09 713.53 131.58 716.45 134.54 712.07 138.65 705.67 134.09"/><polygon class="cls-34" points="722.72 143.82 698.94 143.52 704.75 150.13 732.36 155.05 722.72 143.82"/><polygon class="cls-35" points="704.75 150.13 696.94 138.87 689.87 142.06 697.78 150.89 704.75 150.13"/><polygon class="cls-34" points="697.42 139.41 693.77 134.54 686.88 134.09 689.87 142.06 697.42 139.41"/><polygon class="cls-35" points="695.22 146.4 689.73 146.53 688.61 148.48 697.78 150.89 695.22 146.4"/></g><g id="windows"><polygon class="cls-5" points="886.88 199.44 883.67 256.76 508.96 214.11 507.96 173.69 718.92 183.49 886.88 199.44"/><polygon class="cls-4" points="507.96 173.69 508.96 214.11 20 271.53 17.59 217.38 339.57 184.13 507.96 173.69"/><path class="cls-28" d="M.87,38,17.59,217.38,508,173.69l1.71-125.11ZM31.75,198.7,17.5,52.43l131,2,3.88,137.54Zm135.48-7.77L164.5,55.39,383.67,58l5.46,114.69Zm330.24-26.31L402,171.45,398.14,58l99.92,2.47Z"/><path class="cls-39" d="M509.67,48.58,508,173.69l378.92,25.75L899.8,7.38Zm83.08,119.11-71.13-3.08L522,60l73.49-5.46ZM733.82,177l-127.06-8.14L608.1,52l131-11.45Zm135.85,6-121.61-5.47,6-136.88,124.23-13Z"/></g><g id="lamp"><polygon class="cls-6" points="398.14 0 568.47 3.16 567.99 13.63 482.27 25.03 381.99 24.2 371.59 21.5 398.14 0"/><polygon class="cls-39" points="397.18 8.66 398.14 0 364.42 17.56 367.58 27.56 397.18 8.66"/><polygon class="cls-2" points="567.99 13.63 397.15 7.63 367.58 27.56 498 30.54 567.99 13.63"/><polygon class="cls-6" points="426.07 8.64 394.77 28.18 398.03 28.25 431.55 8.84 426.07 8.64"/><polygon class="cls-6" points="466.29 10.06 431.99 29.03 436.96 29.14 472.23 10.27 466.29 10.06"/><polygon class="cls-6" points="465.51 29.8 511.56 11.65 519.97 11.95 471.12 29.92 465.51 29.8"/><polygon class="cls-6" points="382.93 17.21 528.6 23.15 524.66 24.1 380.05 19.15 382.93 17.21"/></g><g id="intj"><polygon class="cls-40" points="225.9 254.68 278.55 243.08 401.62 260.24 326.82 285.29 209.86 267.9 225.9 254.68"/><polygon class="cls-41" points="315.07 136.21 305.72 128.26 308.16 124.46 314.71 126.08 316.98 131.55 315.07 136.21"/><polygon class="cls-41" points="316.45 118.39 318.52 103.99 323.01 103.99 323.01 120.31 316.45 118.39"/><polygon class="cls-7" points="295 128.26 318.52 152.79 300.14 166.26 294.04 144.15 295 128.26"/><polygon class="cls-13" points="300.14 166.26 315.07 136.21 321.61 135.29 326.82 138.28 323.01 166.26 300.14 166.26"/><polygon class="cls-42" points="326.82 138.28 331.31 128.26 323.07 126.14 314.71 126.08 315.07 136.21 326.82 138.28"/><polygon class="cls-43" points="332.34 120.31 331.31 128.26 314.71 126.08 316.45 118.39 332.34 120.31"/><polygon class="cls-7" points="303.67 201.11 283.64 243.08 276.35 246.34 263.89 249.11 267.5 214.63 303.67 201.11"/><polygon class="cls-9" points="263.89 249.11 264.93 254.49 294.23 260.24 283.64 243.08 263.89 249.11"/><polygon class="cls-7" points="263.89 249.11 294.23 260.24 263.89 255.53 263.89 249.11"/><polygon class="cls-13" points="241.03 230.72 243.8 254.16 252.88 255.4 264.93 252.22 273.59 213.59 241.03 230.72"/><polygon class="cls-9" points="243.8 254.16 264.93 252.22 267.77 264.31 255.29 266.53 241.65 264.63 243.8 254.16"/><polygon class="cls-7" points="267.77 264.31 254.71 271.5 241.65 264.63 267.77 264.31"/><polygon class="cls-9" points="243.19 133.98 231.33 142.95 237.66 198.81 278.55 197.83 303.67 192.35 296.07 136.21 292.92 129.58 276.5 125.89 243.19 133.98"/><polygon class="cls-13" points="243.19 133.98 265.99 167.99 270.4 142.95 288.54 156.94 276.5 125.89 269.1 136.21 243.19 133.98"/><polygon class="cls-33" points="224.97 109.86 230.19 105.56 239.18 112.2 241.16 116.32 224.65 125.72 224.97 109.86"/><polygon class="cls-43" points="289.14 53.95 293.15 69.2 299.41 117.14 276.5 125.89 269.1 136.21 246.51 129.99 239.08 111.83 231.14 112.08 223.96 100 233.49 92.31 242.4 101.28 245.99 99.01 244.28 85.09 234.24 69.49 250.75 53.15 273.18 55.34 271.43 44.58 289.14 53.95"/><polygon class="cls-41" points="235.04 69.45 255.23 85.14 267.62 116.06 276.5 125.89 272.04 133.1 270.4 142.95 243.19 133.98 239.18 112.2 243.1 111.59 242.77 102.09 246.51 99.43 244.88 84.97 235.04 69.45"/><polygon class="cls-41" points="288.85 78.22 276 79 255.23 85.14 274.65 92.27 278.55 102.69 282.05 87.78 288.85 78.22"/><polygon class="cls-42" points="267.62 116.06 284.75 113.58 295.64 107.93 282.69 107.23 267.62 116.06"/><polygon class="cls-27" points="267.62 116.06 278.55 102.69 282.04 102.78 285.54 100.97 295.64 107.93 267.62 116.06"/><polygon class="cls-44" points="273.78 81.33 278.55 102.69 282.04 102.78 285.54 100.97 279.98 79.97 273.78 81.33"/><polygon class="cls-27" points="255.23 85.14 288.85 78.22 288.22 67.61 255.23 85.14"/><polygon class="cls-33" points="285.53 100.94 282.6 104.62 278.55 102.69 285.53 100.94"/><polygon class="cls-42" points="229.02 99.35 233.82 97.32 237.51 103.99 229.02 99.35"/><polygon class="cls-42" points="276.5 125.89 261.9 127.75 270.4 142.95 276.5 125.89"/><polygon class="cls-42" points="238.7 111.84 243.1 111.59 240.13 117.36 238.7 111.84"/><polygon class="cls-17" points="288.54 54.06 289.51 46.34 295 37.57 293.15 69.2 288.54 54.06"/><polygon class="cls-17" points="235.04 69.45 221.13 68 200.74 70.65 216.15 95.6 232.4 90.87 244.88 84.97 235.04 69.45"/><polygon class="cls-27" points="288.54 54.06 272.11 45.91 263.09 42.84 252.18 36.01 295 37.57 288.54 54.06"/><polygon class="cls-27" points="235.04 69.45 251.06 53.82 235.18 51.07 218.84 50.43 200.74 70.65 235.04 69.45"/><polygon class="cls-17" points="252.18 36.01 226.44 35.07 218.84 50.43 251.06 53.82 273.82 56.03 272.11 45.91 252.18 36.01"/><polygon class="cls-27" points="244.88 84.97 216.15 95.6 224.97 109.86 231.14 112.08 224.49 100.09 233.6 92.91 242.77 102.09 246.51 99.43 244.88 84.97"/><polygon class="cls-7" points="288.54 156.94 295.64 193.15 267.62 195.93 265.99 167.99 270.4 142.95 288.54 156.94"/><polygon class="cls-9" points="303.67 192.35 303.67 201.11 273.59 214.63 241.03 230.72 238.78 209.87 237.66 198.81 303.67 192.35"/><polygon class="cls-38" points="303.41 190.44 290.81 192.07 282.59 193.82 272.18 194.48 237.66 198.81 238.78 209.87 273.86 205.27 283.28 203.41 291.94 202.75 303.67 201.11 303.41 190.44"/><path class="cls-13" d="M290.81,192.07l-18.63,2.41,1.68,10.79,18.08-2.53-1.15-11.1Zm-3.3,8.49-10.27,1.21-.5-4.49,10.49-1.35Z"/><polygon class="cls-13" points="277.26 156.92 281.29 160.11 278.34 164.7 273.48 161.65 277.26 156.92"/><polygon class="cls-7" points="231.33 142.95 223.82 147.97 235.7 181.53 249.27 173.33 254.71 166.26 244.26 143.12 231.33 142.95"/><polygon class="cls-38" points="254.71 166.26 278.55 172.48 275.93 178.93 267.03 185.78 235.7 181.53 254.71 166.26"/><polygon class="cls-43" points="278.55 172.48 288.54 179.74 283.38 186.28 276.5 190.44 267.03 185.78 278.55 172.48"/><polygon class="cls-41" points="288.54 179.74 294.5 187.34 277.78 194.12 276.5 190.44 288.54 179.74"/><polygon class="cls-38" points="243.19 133.98 223.82 147.97 235.7 151.5 248.16 141.4 243.19 133.98"/><polygon class="cls-38" points="276.5 125.89 295 128.26 296.07 136.21 279.76 134.29 276.5 125.89"/><circle cx="267.84" cy="90.45" r="2.7"/><circle cx="286.33" cy="84.98" r="2.7"/></g><g id="stand"><polygon class="cls-19" points="262.73 213.59 323.53 218.44 356.01 206.34 385.03 182.24 323.01 181.64 262.73 213.59"/><polygon class="cls-45" points="323.01 169.37 257.31 196.89 262.73 213.59 323.01 183.71 325.08 176.02 323.01 169.37"/><polygon class="cls-39" points="323.01 169.37 379.85 164.7 385.03 182.24 323.01 183.71 323.01 169.37"/><polygon class="cls-18" points="273.59 214.46 279.66 266.63 319.73 276.48 322.61 232.95 321.29 195.63 273.59 214.46"/><polygon class="cls-25" points="321.29 195.63 364.9 190.44 368.71 266.12 319.73 276.48 321.29 195.63"/></g><g id="guy"><polygon class="cls-40" points="38.8 325.52 117.23 287.7 185.1 298.82 211.81 303.5 140.22 350 38.8 325.52"/><polygon class="cls-17" points="172.23 289.41 185.1 298.82 173.4 304.76 172.23 289.41"/><polygon class="cls-7" points="167.48 317.37 152.79 315 150.42 297.34 163.39 292.15 167.48 317.37"/><polygon class="cls-7" points="95.58 329.42 105.87 320.24 107.2 301.99 94.46 298.82 95.58 329.42"/><polygon class="cls-7" points="115.75 303.5 117.23 311.34 125.06 313.04 125.06 303.5 115.75 303.5"/><polygon class="cls-43" points="137.33 132.69 130.58 174.55 124.42 174.57 117.23 177 115.93 183.49 78.85 174.55 74.4 147.15 112.78 119.15 137.33 132.69"/><polygon class="cls-42" points="130.58 174.55 120.79 160.68 117.23 177 130.58 174.55"/><polygon class="cls-19" points="105.87 176.21 110.5 126.83 53.82 119.15 69.39 153.64 105.87 176.21"/><polygon class="cls-18" points="137.33 102.65 112.78 119.15 105.87 131.01 105.87 176.21 130.58 151.41 137.33 132.69 137.33 102.65"/><polygon class="cls-25" points="95.54 87.81 137.33 102.65 105.87 131.01 53.82 119.15 95.54 87.81"/><polygon class="cls-41" points="137.33 132.69 130.58 132.69 130.58 151.41 138.44 149.19 137.33 132.69"/><polygon class="cls-17" points="105.87 176.21 65.13 174.55 67.09 185.46 74.4 198.7 137.33 198.7 140.78 195.85 140.78 186.62 105.87 176.21"/><polygon class="cls-27" points="140.78 186.62 160.42 240.31 137.33 253.58 137.33 198.7 140.78 186.62"/><polygon class="cls-16" points="74.4 198.7 44.73 207.59 37.32 207.59 31.75 198.7 65.13 174.55 74.4 198.7"/><polygon class="cls-17" points="31.75 198.7 31.75 224.94 43.55 228.58 56.04 227.58 44.73 207.59 31.75 198.7"/><polygon class="cls-27" points="31.75 224.94 48.44 240.31 54.79 241.19 60.31 237.79 56.04 227.58 31.75 224.94"/><polygon class="cls-41" points="48.44 240.31 48.44 250.99 68.47 253.58 60.31 237.79 48.44 240.31"/><polygon class="cls-18" points="160.42 240.31 169.92 245.64 168.97 264.71 146.34 286.59 141.44 249.59 160.42 240.31"/><polygon class="cls-19" points="169.92 245.64 144.24 266.06 144.12 286.45 168.97 264.71 169.92 245.64"/><polygon class="cls-15" points="137.33 198.7 74.4 195.85 44.73 207.59 95.58 210.38 132.81 208.15 137.33 198.7"/><polygon class="cls-9" points="44.73 207.59 82.16 287.7 109.81 293.26 138.44 291.04 137.33 245.69 130.58 205.92 44.73 207.59"/><polygon class="cls-13" points="82.16 287.7 78.85 326.08 95.58 329.42 95.58 299.94 123.91 304.94 127.8 332.2 140.78 334.98 142.26 307.72 138.44 291.04 82.16 287.7"/><polygon class="cls-13" points="130.58 205.92 137.33 198.7 146.34 286.59 138.44 291.04 130.58 205.92"/><polygon class="cls-15" points="138.44 291.04 168.97 264.71 174.9 309.58 167.48 317.37 163.39 293.26 151.53 298.45 153.63 325.89 140.78 334.98 138.44 291.04"/><polygon class="cls-7" points="66.24 216.87 77.74 215.41 93.14 275.97 92.39 279.91 88.31 281.02 66.24 216.87"/><polygon class="cls-7" points="87.75 216.78 99.99 216.78 108.5 274.72 108.33 278.64 103.06 279.88 87.75 216.78"/><polygon class="cls-7" points="110.28 218.42 121.7 216.88 125.74 275.97 125.06 281.02 119.43 281.09 110.28 218.42"/><polygon class="cls-13" points="88.31 281.02 93.14 275.97 94.42 281.02 88.31 281.02"/><polygon class="cls-13" points="103.06 279.88 108.5 274.72 109.42 281.02 103.06 279.88"/><polygon class="cls-13" points="119.43 281.09 125.74 275.97 126.1 281.32 119.43 281.09"/></g><g id="guy2"><polygon class="cls-40" points="825.55 280.92 810.52 266.45 796.87 257.75 698.58 275.86 650.56 264.71 566.21 266.62 547.24 274.05 524.13 287.41 624.3 304.76 677.46 295.02 730.28 308.43 825.55 280.92"/><polygon class="cls-9" points="641.86 275.99 630.99 277.04 628.93 268.67 644.37 266.45 641.86 275.99"/><polygon class="cls-7" points="630.99 277.04 620.61 272.38 618.71 265.74 632.52 265.74 630.99 277.04"/><polygon class="cls-15" points="660.53 249.55 636.11 253.39 592.75 249.55 592.75 243.5 653.88 246.04 660.53 249.55"/><polygon class="cls-7" points="650.56 288.39 641.86 282.96 640.33 265.69 656.17 268.67 650.56 288.39"/><polygon class="cls-7" points="592.75 295.21 582.48 285.35 577.94 272.38 589.43 243.84 592.75 249.55 599.48 272.38 592.75 295.21"/><polygon class="cls-7" points="662.45 155.74 681.35 161.48 660.53 249.55 653.88 246.04 630.99 234.67 636.83 157.71 662.45 155.74"/><polygon class="cls-15" points="679.2 163.64 689.61 166.31 702.18 161.33 665.2 143.61 662.45 148.29 662.45 155.74 679.2 163.64"/><polygon class="cls-9" points="702.18 161.33 671.12 251.65 666.8 253.39 660.53 249.55 679.2 163.64 702.18 161.33"/><polygon class="cls-9" points="671.12 251.65 673.54 285.35 650.56 288.39 650.56 270.02 609.18 272.88 606.76 292.45 592.75 295.21 592.75 249.55 660.53 249.55 671.12 251.65"/><polygon class="cls-27" points="565.8 256.28 547.24 268.67 556.8 274.73 566.36 275.1 565.8 256.28"/><polygon class="cls-16" points="547.24 268.67 547.24 274.05 566.36 280.79 566.36 275.1 547.24 268.67"/><polygon class="cls-19" points="606.28 204.76 559.9 217.8 565.33 261.07 575.12 228.99 609.9 216.71 606.28 204.76"/><polygon class="cls-25" points="609.9 202.86 584.9 210.77 601.74 218.84 611.74 213.22 609.9 202.86"/><polygon class="cls-25" points="615.24 214.81 573.63 227.26 571.21 262.92 582.48 272.88 592.75 249.55 650.56 242.54 655.86 225.81 615.24 214.81"/><polygon class="cls-27" points="609.9 162.61 595.98 187.87 597.73 195.95 606.28 208.34 619.59 181.14 609.9 162.61"/><polygon class="cls-17" points="657.7 164.75 673.54 187.87 649.04 225.1 605.27 216.42 609.9 162.61 657.7 164.75"/><polygon class="cls-16" points="673.54 187.87 649.58 186.66 641.86 179.13 650.56 164.75 660.89 162.61 673.54 187.87"/><polygon class="cls-46" points="580.09 117.28 592.75 167.69 632.52 172.25 641.86 176.98 658.73 160.46 663.04 143.61 658.37 126.77 645.45 125.64 628.93 115.83 580.09 117.28"/><polygon class="cls-47" points="632.52 172.25 628.93 115.83 643.74 124.62 663.04 123.51 665.2 143.61 660.89 162.61 641.86 179.13 632.52 172.25"/><polygon class="cls-48" points="632.52 172.25 644.37 166.31 641.86 179.13 632.52 172.25"/><polygon class="cls-48" points="665.2 143.61 655.86 148.2 662.45 155.74 665.2 143.61"/><polygon class="cls-48" points="657.65 142.06 655.86 136.06 660.53 134.54 657.65 142.06"/><polygon class="cls-47" points="619.59 138.65 589.43 136.58 607.74 153.06 619.59 138.65"/><polygon class="cls-45" points="580.09 117.28 608.1 125.64 630.01 118.73 642.84 132.73 645.45 141.84 649.31 142.06 650.38 129.56 660.53 123.54 665.2 143.61 671.12 120.89 651.73 97.68 612.14 92 580.09 117.28"/><polygon class="cls-18" points="608.1 125.64 612.14 92 653.88 95.52 628.93 120.89 608.1 125.64"/><polygon class="cls-19" points="628.93 120.89 653.88 95.52 672.2 120.89 667.71 125.64 661.4 128.15 651.46 130.64 651.46 142.06 644.37 144 642.84 132.73 628.93 120.89"/><polygon class="cls-24" points="672.2 120.89 665.2 143.61 661.4 128.15 672.2 120.89"/><polygon class="cls-49" points="606.76 137.77 607.74 153.06 602.8 152.68 600.92 137.37 606.76 137.77"/><polygon class="cls-48" points="607.74 153.06 605.59 155.74 602.8 152.68 607.74 153.06"/><rect class="cls-50" x="600.92" y="160.05" width="17.95" height="2.56"/><polygon class="cls-18" points="619.59 138.65 608.1 134.54 606.76 137.77 619.59 138.65"/><polygon class="cls-18" points="600.92 137.37 598.59 132.73 589.43 136.58 600.92 137.37"/><ellipse class="cls-26" cx="613.49" cy="145.95" rx="1.75" ry="2.34"/><ellipse class="cls-26" cx="597.73" cy="144.82" rx="1.75" ry="2.34"/><polygon class="cls-27" points="649.58 186.66 638.44 208.34 641.86 219.11 655.86 225.81 673.54 187.87 649.58 186.66"/><polygon class="cls-16" points="638.44 208.34 615.24 214.81 613.49 221.57 618.87 227.26 655.86 225.81 638.44 208.34"/><polygon class="cls-16" points="595.98 187.87 580.09 193.86 571.21 204.76 587.88 211.84 606.28 208.34 595.98 187.87"/><polygon class="cls-47" points="615.24 214.81 608.1 211.57 600.92 214.81 609.9 216.71 615.24 214.81"/><polygon class="cls-9" points="576.59 171.45 577.8 207.25 582.48 208.73 581.17 171.45 576.59 171.45"/><polygon class="cls-47" points="582.25 194.88 589.43 201.25 582.25 207.12 582.25 194.88"/><polygon class="cls-46" points="572.82 184.13 584.36 192.25 582.25 207.12 571.21 204.76 571.21 196.24 572.82 184.13"/><polygon class="cls-47" points="572.82 184.13 567.44 191.7 565.33 201.25 571.21 204.76 572.82 184.13"/><polygon class="cls-2" points="561.54 198.53 609.9 216.71 588.98 224.74 530.77 216.57 561.54 198.53"/><polygon class="cls-46" points="615.24 214.81 599.85 218.84 599.48 226.76 606.28 234.67 618.87 227.26 615.24 214.81"/><polygon class="cls-47" points="599.85 218.84 588.98 224.74 598.14 232.66 606.28 234.67 599.85 218.84"/><polygon class="cls-19" points="655.86 225.81 592.75 249.55 653.88 246.04 655.86 225.81"/><polygon class="cls-18" points="592.75 249.55 573.63 227.26 563.13 268.67 569.07 274.73 582.48 279.53 592.75 249.55"/><polygon class="cls-17" points="563.13 268.67 549.93 280.79 567.28 282.29 582.48 279.53 563.13 268.67"/><polygon class="cls-16" points="549.93 280.79 549.93 286.39 582.48 285.35 582.48 279.53 549.93 280.79"/></g><g id="dog"><polygon class="cls-27" points="789.79 241.17 805.86 237.68 803.23 249.9 789.79 241.17"/><polygon class="cls-17" points="814.67 251.27 789.79 241.17 787.98 248.12 791.78 264.77 814.67 251.27"/><polygon class="cls-33" points="791.78 261.66 814.67 251.27 810.52 266.45 791.78 268.67 791.78 261.66"/><polygon class="cls-27" points="720.09 226.76 689.25 248.12 684.43 286.43 694.78 293.25 726.82 298.53 765.95 289.33 778.08 286.73 799.12 277.04 796.36 253.3 774.93 229.83 720.09 226.76"/><polygon class="cls-16" points="774.93 229.83 765.26 249.9 733.82 240.75 716.85 220.09 774.93 229.83"/><polygon class="cls-17" points="733.82 240.75 689.25 248.12 716.85 220.09 733.82 240.75"/><polygon class="cls-27" points="765.95 292.31 741.59 277.04 726.82 298.53 765.95 292.31"/><polygon class="cls-17" points="702.18 251.27 720.52 253.39 741.59 253.39 742.63 295.21 723.2 299.14 717.24 298.26 710.5 299.14 694.78 293.25 696.25 268.67 702.18 251.27"/><polygon class="cls-33" points="709.72 279.53 724.75 279.53 717.24 288.39 709.72 279.53"/><polygon class="cls-16" points="702.18 251.27 741.59 253.39 738.48 271.85 717.67 267.95 696.25 271.78 702.18 251.27"/><polygon class="cls-27" points="717.24 288.39 723.2 299.14 710.5 299.14 717.24 288.39"/><polygon class="cls-33" points="723.71 273.99 730.28 273.99 730.28 274.85 723.71 275.8 723.71 273.99"/><polygon class="cls-33" points="710.58 273.99 704.02 273.99 704.02 274.85 710.58 275.8 710.58 273.99"/><polygon class="cls-16" points="724.75 279.53 717.58 275.8 709.72 279.53 724.75 279.53"/><polygon class="cls-33" points="702.18 251.27 689.25 265.74 695.72 278.12 705.4 261.32 702.18 251.27"/><polygon class="cls-33" points="741.59 253.39 750.06 269.53 742.26 280.12 731.32 263.61 741.59 253.39"/><polygon class="cls-27" points="744.64 295.7 747.99 300.91 730.28 303.84 744.64 295.7"/><polygon class="cls-16" points="730.28 303.84 723.2 299.14 735.89 288.65 744.64 295.7 730.28 303.84"/><polygon class="cls-17" points="796.36 253.3 765.26 249.9 772.52 277.04 761.81 282.78 767.25 289.11 778.08 286.73 796.36 253.3"/><polygon class="cls-27" points="778.08 286.73 761.81 282.78 765.95 292.31 778.08 286.73"/><polygon class="cls-17" points="742.26 280.12 750.06 269.53 761.81 282.78 765.95 292.31 742.26 280.12"/></g><g id="female"><polygon class="cls-40" points="412.85 294.58 455.27 281.26 522.45 301.3 564.72 314.96 503.75 339.88 443.58 331.88 382.6 350 343.57 315.81 365.95 309.33 412.85 294.58"/><polygon class="cls-27" points="355.03 294.58 350.23 309.33 356.63 314.03 363.29 295.92 355.03 294.58"/><polygon class="cls-16" points="375.54 298.84 360.62 290.31 355.03 294.58 371.63 303.52 375.54 298.84"/><polygon class="cls-16" points="350.23 309.33 375 318.63 372.35 324.42 353.83 316.69 350.23 309.33"/><polygon class="cls-27" points="439.49 320.42 424.84 311.1 427.23 320.42 435.4 326.15 439.49 320.42"/><polygon class="cls-7" points="459.09 305.41 469.87 304.22 469.87 291.2 455.27 288.31 459.09 305.41"/><polygon class="cls-19" points="524.02 321.06 511.96 317.49 508.33 299.38 528.13 297.6 524.02 321.06"/><polygon class="cls-19" points="447.75 316.69 458.28 313.18 462.79 293.51 447.75 288.31 447.75 316.69"/><polygon class="cls-51" points="427.23 260.09 438.43 293.51 443.58 270.72 427.23 260.09"/><polygon class="cls-9" points="439.49 288.31 424.84 298.84 439.49 303.52 439.49 288.31"/><polygon class="cls-51" points="431.5 238.39 429.1 247.78 433.63 257.28 442.69 249.02 431.5 238.39"/><polygon class="cls-52" points="442.69 238.39 431.5 238.39 439.49 250.31 442.69 244.35 442.69 238.39"/><polygon class="cls-9" points="439.49 250.31 427.23 260.09 442.69 272.73 473.13 283.92 476.33 260.09 439.49 250.31"/><polygon class="cls-52" points="463.21 124.55 461.62 145.36 453.67 154.76 460.03 159.53 459.7 163.3 460.43 166.88 459.09 170.36 458.44 177.81 476.33 181.38 488.85 193.72 503.75 188.94 502.56 149.79 485.47 121.37 463.21 124.55"/><polygon class="cls-51" points="461.62 145.36 463.01 153.57 472.35 137.67 464.01 135.75 461.62 145.36"/><polygon class="cls-51" points="485.47 121.37 476.33 181.38 484.24 187.18 487.86 198.44 506.54 190.6 504.95 148.94 485.47 121.37"/><polygon class="cls-53" points="453.67 154.76 460.43 156.15 460.03 159.53 453.67 154.76"/><polygon class="cls-53" points="476.33 181.38 488.05 182.58 487.86 198.44 476.33 181.38"/><polygon class="cls-53" points="486.66 166.88 495.41 167.88 501.47 177.81 491.43 173.64 486.66 166.88"/><polygon class="cls-53" points="489.25 161.32 489.84 154.76 494.81 154.76 489.25 161.32"/><ellipse class="cls-26" cx="466.19" cy="144.43" rx="3.18" ry="1.79" transform="translate(270.15 591.37) rotate(-83.53)"/><polygon class="cls-9" points="472.35 137.67 466.19 132.8 464.01 135.75 472.35 137.67"/><polygon class="cls-9" points="459.7 163.3 466.19 167.88 461.92 167.63 459.39 166.88 459.7 163.3"/><polygon class="cls-13" points="466.19 167.88 459.09 170.36 459.39 166.88 466.19 167.88"/><polygon class="cls-17" points="507.37 189.01 477.59 202.12 463.75 217.31 476.33 238.62 508.33 198.44 507.37 189.01"/><polygon class="cls-9" points="452.28 114.36 468.01 100.7 478.71 112.23 484.46 128.03 467.19 123.78 452.28 114.36"/><polygon class="cls-7" points="452.28 114.36 462.95 128.03 484.46 128.03 452.28 114.36"/><polygon class="cls-9" points="484.46 128.03 491.43 114.36 518.16 98.5 537.84 116.93 546.78 149.06 497 149.06 484.46 128.03"/><polygon class="cls-13" points="497 149.06 495.41 167.88 518.16 166.88 552.63 161.32 546.78 149.06 515.62 147.29 497 149.06"/><polygon class="cls-13" points="484.46 128.03 518.16 98.5 468.01 100.7 484.46 128.03"/><polygon class="cls-7" points="546.78 149.06 484.46 128.03 480.56 153.57 486.66 154.76 488.05 147.59 497 149.06 513.99 149.06 546.78 149.06"/><polygon class="cls-9" points="552.63 161.32 530.48 185.62 508.33 198.44 495.41 167.88 552.63 161.32"/><polygon class="cls-7" points="552.63 161.32 538.73 196 508.33 198.44 552.63 161.32"/><polygon class="cls-27" points="478.71 216.55 464.38 238.39 466.19 251.05 474.25 263.49 478.71 216.55"/><polygon class="cls-16" points="464.38 238.39 442.69 238.39 439.49 250.31 474.25 263.49 464.38 238.39"/><polygon class="cls-7" points="474.25 263.49 440.24 270.72 473.13 286.19 476.33 274.29 474.25 263.49"/><polygon class="cls-25" points="490.95 209.88 561.54 198.53 537.01 276.8 510.37 286.19 480.51 288.31 490.95 209.88"/><polygon class="cls-28" points="552.63 189.91 477.59 202.12 483.11 212.01 493.08 212.01 561.54 198.53 552.63 189.91"/><polygon class="cls-18" points="477.59 202.12 473.13 285.09 476.33 287.52 480.51 288.31 493.08 212.01 477.59 202.12"/><polygon class="cls-45" points="480.51 288.31 486.66 307.9 482.19 331.88 467.74 325.49 466.19 297.51 450.15 293.51 447.75 316.69 437.09 310.1 440.24 270.72 480.51 288.31"/><polygon class="cls-39" points="480.51 288.31 482.19 331.88 494.07 328.51 496.87 305.29 522.45 301.3 524.02 321.06 543.41 316.69 537.01 276.8 480.51 288.31"/><polygon class="cls-19" points="501.47 220.15 510.37 218.37 499.71 274.84 493.76 275.93 493.82 271.85 501.47 220.15"/><polygon class="cls-19" points="519.57 217.13 530.48 215 516.1 271.79 510.99 272.55 510.64 269.04 519.57 217.13"/><polygon class="cls-19" points="538.43 215 547.67 213.04 530.48 269.89 525.73 270.33 525.69 267.11 538.43 215"/><polygon class="cls-39" points="530.48 269.89 525.69 267.12 524.75 270.95 530.48 269.89"/><polygon class="cls-39" points="516.1 271.79 510.64 269.03 509.83 273.8 516.1 271.79"/><polygon class="cls-39" points="499.71 274.84 493.82 271.85 493.08 276.81 499.71 274.84"/><polygon class="cls-16" points="372.35 283.92 390.73 274.84 424.84 298.84 405.65 311.1 372.35 283.92"/><polygon class="cls-17" points="405.65 307.9 404.21 325.78 406.97 342.01 429.1 331.88 424.84 298.84 405.65 307.9"/><polygon class="cls-27" points="405.65 307.9 406.97 342.01 370.48 331.88 372.35 286.05 405.65 307.9"/><polygon class="cls-17" points="372.35 283.92 365.95 309.33 401.92 326.29 405.65 307.9 372.35 283.92"/><polygon class="cls-16" points="409.86 305.92 429.1 331.88 435.4 326.15 432.3 323.62 416.56 302.75 409.86 305.92"/><polygon class="cls-17" points="432.3 323.62 439.49 320.42 437.09 327.35 429.1 331.88 432.3 323.62"/><path class="cls-15" d="M390.2,315.81l-2.53,9.54,8.52,4,2.4-8.93Zm4.53,10.34-4.27-1.73,1.2-4.93,4,2Z"/><path class="cls-15" d="M375,307.23l-2.65,10.09,7.72,4.17,2.53-9.33Zm3,10.66-3-2.08,1.21-4.71,3.6,2Z"/></g></svg>