<svg id="illustration" xmlns="http://www.w3.org/2000/svg" viewBox="0 0 900 350"><defs><style>.cls-1,.cls-35,.cls-50,.cls-7{fill:#2b2b2b;}.cls-1,.cls-10,.cls-11,.cls-12,.cls-14,.cls-16,.cls-18,.cls-19,.cls-2,.cls-21,.cls-3,.cls-32,.cls-35,.cls-36,.cls-37,.cls-38,.cls-39,.cls-4,.cls-40,.cls-41,.cls-42,.cls-44,.cls-45,.cls-46,.cls-47,.cls-48,.cls-49,.cls-5,.cls-50,.cls-7,.cls-8,.cls-9{fill-rule:evenodd;}.cls-1{opacity:0.1;}.cls-2,.cls-28{fill:#858686;}.cls-26,.cls-3{fill:#dddddc;}.cls-27,.cls-4{fill:#c4c4c4;}.cls-24,.cls-36,.cls-5{fill:#fff;}.cls-13,.cls-15,.cls-17,.cls-20,.cls-23,.cls-25,.cls-31,.cls-34,.cls-43,.cls-6{fill:none;stroke-miterlimit:10;}.cls-6{stroke:#858686;stroke-width:4px;}.cls-7{opacity:0.15;}.cls-8{fill:#ececeb;}.cls-9{fill:#9da1a2;}.cls-10,.cls-29{fill:#96637c;}.cls-11{fill:#734d60;}.cls-12,.cls-33{fill:#d1a1b8;}.cls-13,.cls-25{stroke:#c4c4c4;}.cls-14{fill:#737373;}.cls-15{stroke:#b3889d;}.cls-16{fill:#b3889d;}.cls-17{stroke:#4f5253;}.cls-18{fill:#8f8f8f;}.cls-19,.cls-30{fill:#9075a0;}.cls-20{stroke:#ececeb;stroke-width:3px;}.cls-21{fill:#a688ba;}.cls-22,.cls-40{fill:#785d88;}.cls-23{stroke:#8f8f8f;}.cls-25,.cls-31{stroke-width:2px;}.cls-31,.cls-34{stroke:#96637c;}.cls-32{fill:#543042;}.cls-35{opacity:0.2;}.cls-36{opacity:0.5;}.cls-37,.cls-51{fill:#594165;}.cls-38{fill:#4f5253;}.cls-39{fill:#474747;}.cls-41{fill:#6f7173;}.cls-42{fill:#cececd;}.cls-43{stroke:#474747;}.cls-44{fill:#a3a3a3;}.cls-45{fill:#c3987b;}.cls-46{fill:#dfbda5;}.cls-47{fill:#8b6651;}.cls-48{fill:#e8cab6;}.cls-50{opacity:0.14;}</style></defs><title>analysts_INTJ_scene_med_career_path</title><g id="shadows"><polygon class="cls-1" points="840.28 216.84 900 233.36 877.67 268.03 771 288.7 818.37 307.94 721.57 350 576.59 328.26 602.98 314.11 550.48 300.05 517.03 303.93 446.54 336.06 313.5 350 183 336.06 158.04 311.18 99.05 338.87 20 345.33 0 306.15 50.96 289.72 170.77 275.03 294.69 240.91 549.28 286.61 621.63 275.08 738.56 254.67 840.28 216.84"/></g><g id="wall"><polygon class="cls-2" points="70.31 71.86 440.38 24.92 435.13 200.88 93.12 266.66 70.31 71.86"/><polygon class="cls-3" points="70.31 71.86 51.84 74.06 27.82 61.37 421.2 17.66 440.38 24.92 70.31 71.86"/><polygon class="cls-4" points="27.82 61.37 59.08 206.64 92.89 263.56 87.9 201.7 70.31 71.86 27.82 61.37"/><polygon class="cls-3" points="343.71 49.4 425.74 38.76 425.6 43.93 343.64 55.1 343.71 49.4"/><polygon class="cls-3" points="343.33 62.87 425.39 51.19 425.25 56.36 343.26 68.56 343.33 62.87"/><polygon class="cls-5" points="93.69 81.75 98.04 81.41 106.89 194.81 102.87 195.16 93.69 81.75"/><polygon class="cls-5" points="104.73 80.55 109.08 80.21 117.93 193.61 113.92 193.96 104.73 80.55"/><polygon class="cls-5" points="116.11 79.19 120.46 78.85 129.31 192.25 125.3 192.61 116.11 79.19"/><line class="cls-6" x1="83.67" y1="83.5" x2="127.17" y2="78.33"/><line class="cls-6" x1="89.67" y1="121.5" x2="129.33" y2="116.33"/><line class="cls-6" x1="93.33" y1="155.67" x2="133" y2="150.5"/><line class="cls-6" x1="95.67" y1="196.17" x2="135.33" y2="191"/><polygon class="cls-7" points="133.41 241.84 156.66 245.74 134.13 63.76 133.41 241.84"/></g><g id="wall2"><polygon class="cls-2" points="830.96 69.81 837.17 146.73 775.74 211.96 759.96 283.5 861.09 240.84 882.62 55.39 830.96 69.81"/><polygon class="cls-4" points="440.38 24.92 632.88 43.56 651.87 26.99 726.74 32.17 737.1 57.71 834.07 71.88 840.28 147.77 437.73 87.85 440.38 24.92"/><polygon class="cls-8" points="440.38 24.92 463.26 14.92 651.87 26.99 636.76 46.92 440.38 24.92"/><polygon class="cls-8" points="651.87 26.99 682.22 12.5 753.11 19.75 736.75 31.48 723.47 34.24 651.87 26.99"/><polygon class="cls-9" points="723.47 34.24 731.49 60.03 752.28 56.67 762.55 44.6 753.11 19.75 723.47 34.24"/><polygon class="cls-8" points="731.49 60.03 834.07 71.88 882.62 55.39 762.55 44.6 731.49 60.03"/><polygon class="cls-4" points="779.89 213 759.96 283.5 540.4 235.6 372.02 198.13 376.21 156.87 378.94 131.94 557.47 155.48 779.89 213"/><polygon class="cls-8" points="840.28 147.77 437.73 87.85 378.94 131.94 537.55 162.5 750.47 210.5 779.89 213 840.28 147.77"/><polygon class="cls-10" points="769.02 73.84 822.85 79.73 824.32 107.22 799.82 108.53 766.86 100.01 769.02 73.84"/><polygon class="cls-11" points="765.91 111.5 824.92 118.62 824.32 107.22 766.86 100.01 765.91 111.5"/><polygon class="cls-5" points="773.1 79.97 785.88 81.58 784.29 93.25 772.3 91.62 773.1 79.97"/><polygon class="cls-5" points="789.19 82.22 801.63 83.14 800.85 95.16 788.39 93.88 789.19 82.22"/><polygon class="cls-5" points="805.76 83.71 818.54 84.54 818.02 97.39 804.3 95.58 805.76 83.71"/><polygon class="cls-2" points="777.17 86.52 782.22 84.19 782.67 85.49 778.72 87.11 779.56 89.5 778.4 89.89 777.17 86.52"/><polygon class="cls-2" points="795.29 86.52 797.81 91.44 796.45 92.22 794.89 88.96 793.07 90.73 792.23 89.84 795.29 86.52"/><polygon class="cls-2" points="811.98 92.54 807.77 89.05 808.81 88.01 812.24 90.99 814.96 89.76 815.48 91.12 811.98 92.54"/><polygon class="cls-11" points="772.47 94.29 778.59 94.98 778.42 96.19 772.21 95.41 772.47 94.29"/><polygon class="cls-11" points="772.04 96.96 778.08 97.65 777.99 99.12 771.69 98.26 772.04 96.96"/><polygon class="cls-11" points="788.17 96.1 793.61 96.79 793.52 98.08 788 97.39 788.17 96.1"/><polygon class="cls-11" points="787.91 98.86 793.35 99.47 793.17 100.76 787.65 100.07 787.91 98.86"/><polygon class="cls-11" points="804.22 98.34 809.13 98.78 808.96 100.33 803.96 99.55 804.22 98.34"/><polygon class="cls-11" points="803.7 100.93 808.88 101.62 808.7 102.74 803.44 102.05 803.7 100.93"/><polygon class="cls-12" points="771 106.28 773.93 103.52 776.18 107.32 773.07 109.73 771 106.28"/><polygon class="cls-12" points="804.65 110.68 807.58 107.92 809.82 111.72 806.72 114.13 804.65 110.68"/><polygon class="cls-12" points="779.72 107.4 782.13 104.99 784.37 108.44 781.1 110.85 779.72 107.4"/><polygon class="cls-12" points="796.54 109.47 798.95 107.06 801.2 110.51 797.92 112.92 796.54 109.47"/><polygon class="cls-12" points="788 108.35 790.41 105.94 792.66 109.39 789.38 111.8 788 108.35"/><polygon class="cls-12" points="813.71 111.46 816.12 109.04 818.37 112.49 815.09 114.91 813.71 111.46"/><polygon class="cls-5" points="728.38 69.7 759.96 73.58 757.67 98.96 743.05 103.93 725.94 95.19 728.38 69.7"/><line class="cls-13" x1="736.06" y1="69.7" x2="733.56" y2="97.39"/><line class="cls-13" x1="744.52" y1="70.48" x2="742.19" y2="98.86"/><line class="cls-13" x1="724.76" y1="78.59" x2="760.91" y2="82.73"/><line class="cls-13" x1="724.76" y1="87.47" x2="759.96" y2="91.53"/><polygon class="cls-14" points="725.94 95.19 724.76 107.49 756.59 110.85 757.67 98.96 725.94 95.19"/><polygon class="cls-8" points="730.02 102.05 733.39 99.29 735.8 102.74 732.44 105.42 730.02 102.05"/><polygon class="cls-8" points="738.56 103 741.5 100.16 743.91 103.61 740.38 106.54 738.56 103"/><polygon class="cls-8" points="746.93 103.69 749.69 101.02 752.63 104.47 749.17 107.32 746.93 103.69"/><polygon class="cls-10" points="724.5 115.38 730.32 116.16 729.55 122.76 723.98 122.11 724.5 115.38"/><polygon class="cls-10" points="733.56 116.68 739.64 117.19 738.87 124.05 733.3 123.28 733.56 116.68"/><polygon class="cls-10" points="743.14 117.84 748.44 118.36 747.41 125.09 742.36 124.31 743.14 117.84"/><polygon class="cls-14" points="765.22 120.34 824.75 128.33 825.44 134.84 764.62 126.36 765.22 120.34"/><polygon class="cls-10" points="642.03 118.26 646.51 52.02 656.86 37 713.28 43.04 718.81 61.51 712.94 128.81 642.03 118.26"/><line class="cls-15" x1="682.92" y1="39.89" x2="677.4" y2="103.02"/><line class="cls-15" x1="645.41" y1="68.27" x2="717.46" y2="76.89"/><polygon class="cls-16" points="643.41 97.75 642.03 118.26 712.94 128.81 714.89 106.47 643.41 97.75"/><polygon class="cls-5" points="648.47 103.09 651.32 103.52 650.11 115.42 647.44 115.08 648.47 103.09"/><polygon class="cls-5" points="654.43 104.04 657.27 104.38 656.15 116.29 653.65 115.86 654.43 104.04"/><polygon class="cls-5" points="660.38 104.81 663.49 105.07 661.93 117.15 659.43 116.89 660.38 104.81"/><polygon class="cls-5" points="667.02 105.68 669.52 105.94 667.88 118.1 665.81 117.75 667.02 105.68"/><polygon class="cls-5" points="672.8 106.54 675.91 106.8 674.44 119.05 672.03 118.7 672.8 106.54"/><polygon class="cls-5" points="683.39 107.94 689.95 108.63 689.17 115.19 682.79 114.33 683.39 107.94"/><polygon class="cls-5" points="692.36 109.06 698.49 109.84 697.8 116.48 691.85 115.79 692.36 109.06"/><polygon class="cls-5" points="700.39 116.74 700.99 110.27 707.38 111.05 706.51 117.6 700.39 116.74"/><polygon class="cls-10" points="682.44 117.34 706 120.54 705.82 123.13 682.01 120.02 682.44 117.34"/><circle class="cls-15" cx="680.03" cy="71.64" r="7.64"/><circle class="cls-15" cx="680.03" cy="71.64" r="14.36"/><circle class="cls-15" cx="680.03" cy="71.64" r="20.92"/><polygon class="cls-9" points="591 52.19 635.12 57.28 631.73 108.72 586.47 103.02 591 52.19"/><polygon class="cls-5" points="624.08 62.37 629.26 62.88 628.39 73.76 623.39 73.24 624.08 62.37"/><polygon class="cls-5" points="623.13 77.72 627.62 78.16 626.75 87.82 622.27 87.3 623.13 77.72"/><polygon class="cls-5" points="621.84 91.7 626.32 92.22 625.29 102.57 620.72 102.05 621.84 91.7"/><polygon class="cls-9" points="537.91 46.92 501.69 43.49 500.03 86.28 536.6 90.3 537.91 46.92"/><polygon class="cls-14" points="506.45 49.25 512.27 49.77 512.14 53.78 506.06 53.27 506.45 49.25"/><polygon class="cls-14" points="506.06 56.5 511.62 56.89 511.37 60.77 505.8 60.38 506.06 56.5"/><polygon class="cls-14" points="516.28 50.03 522.11 50.55 521.98 54.56 515.89 54.04 516.28 50.03"/><polygon class="cls-14" points="617.09 61.59 620.11 61.94 617 101.97 613.99 101.79 617.09 61.59"/><polygon class="cls-14" points="612.17 61.16 615.19 61.51 612.09 101.53 609.07 101.36 612.17 61.16"/><polygon class="cls-2" points="451.06 38.77 456.75 39.35 455.98 53.85 450.28 53.46 451.06 38.77"/><polygon class="cls-2" points="460.89 39.68 466.33 40.33 465.49 54.88 460.18 54.37 460.89 39.68"/><polygon class="cls-2" points="470.6 40.84 475.71 41.3 474.94 55.92 469.69 55.4 470.6 40.84"/><polygon class="cls-2" points="480.05 41.75 485.48 42.27 484.64 56.95 479.21 56.44 480.05 41.75"/><polygon class="cls-2" points="450.02 60.51 484.06 64.39 482.89 89.76 448.6 85.36 450.02 60.51"/><polygon class="cls-5" points="478.76 67.89 482.25 68.24 481.9 72.42 478.5 72.07 478.76 67.89"/><polygon class="cls-5" points="472.81 67.37 476.3 67.72 475.95 71.9 472.55 71.55 472.81 67.37"/><polygon class="cls-5" points="466.92 66.72 470.41 67.07 470.06 71.25 466.66 70.91 466.92 66.72"/><line class="cls-17" x1="454.05" y1="65.81" x2="460.52" y2="66.41"/><line class="cls-17" x1="453.95" y1="67.85" x2="460.42" y2="68.45"/><line class="cls-17" x1="453.69" y1="69.92" x2="460.16" y2="70.52"/><line class="cls-17" x1="453.48" y1="71.95" x2="459.95" y2="72.55"/><line class="cls-17" x1="453.35" y1="74.06" x2="459.82" y2="74.67"/><polygon class="cls-16" points="808.62 155.11 795.93 153.3 783.77 165.98 795.93 167.79 808.62 155.11"/><polygon class="cls-18" points="786.79 151.57 773.5 150.19 761.6 162.62 775.4 164.34 786.79 151.57"/><polygon class="cls-16" points="764.66 148.64 752.58 161.06 740.16 159.34 752.41 146.91 764.66 148.64"/><polygon class="cls-19" points="743.65 145.19 731.92 157.44 718.12 155.2 730.71 143.46 743.65 145.19"/><polygon class="cls-18" points="721.57 142.26 708.97 153.64 696.55 152.09 709.14 140.19 721.57 142.26"/><polygon class="cls-4" points="692.8 158.99 726.83 164.82 702.59 189.71 668.42 182.46 692.8 158.99"/><line class="cls-20" x1="679.64" y1="165.2" x2="726.05" y2="173.66"/><line class="cls-20" x1="672.05" y1="174.35" x2="715.7" y2="182.98"/><line class="cls-20" x1="676.36" y1="186.77" x2="705.35" y2="158.3"/><line class="cls-20" x1="688.44" y1="190.05" x2="717.77" y2="161.06"/><polygon class="cls-21" points="742.62 167.53 790.24 175.82 764.23 203.25 717.77 192.9 742.62 167.53"/><polygon class="cls-5" points="761.77 197.94 770.96 188.89 765.01 187.85 756.21 196.78 761.77 197.94"/><polygon class="cls-5" points="752.58 196.13 761.77 187.07 755.82 186.04 747.02 194.97 752.58 196.13"/><polygon class="cls-5" points="743.39 194.32 752.58 185.26 746.63 184.23 737.83 193.16 743.39 194.32"/><polygon class="cls-5" points="744.43 172.88 749.28 173.77 746.07 176.93 741.47 175.93 744.43 172.88"/><polygon class="cls-5" points="739.46 177.67 744.31 178.55 741.1 181.72 736.5 180.72 739.46 177.67"/><polygon class="cls-5" points="734.4 182.62 739.26 183.5 736.04 186.67 731.44 185.66 734.4 182.62"/><polygon class="cls-5" points="729.52 187.49 734.37 188.37 731.16 191.54 726.55 190.53 729.52 187.49"/><polygon class="cls-22" points="750.55 181.14 749.12 180.9 755.77 174.46 757.18 174.72 750.55 181.14"/><polygon class="cls-22" points="753.6 181.76 752.16 181.51 758.82 175.07 760.22 175.33 753.6 181.76"/><polygon class="cls-22" points="756.67 182.34 755.24 182.09 761.89 175.66 763.29 175.91 756.67 182.34"/><polygon class="cls-22" points="760.03 182.89 758.6 182.64 765.25 176.21 766.66 176.46 760.03 182.89"/><polygon class="cls-22" points="763.27 183.45 761.84 183.2 768.49 176.77 769.89 177.02 763.27 183.45"/><polygon class="cls-22" points="766.63 183.97 765.2 183.72 771.85 177.28 773.26 177.54 766.63 183.97"/><polygon class="cls-22" points="770.08 184.44 768.65 184.19 775.3 177.76 776.71 178.02 770.08 184.44"/><polygon class="cls-22" points="773.62 185.05 772.19 184.8 778.84 178.36 780.24 178.62 773.62 185.05"/><polygon class="cls-4" points="657.47 179.7 697.07 138.55 572.58 118.36 532.98 152.26 657.47 179.7"/><polygon class="cls-4" points="515.06 149.32 555.43 115.28 545.12 113.65 505.67 147.35 515.06 149.32"/><polygon class="cls-4" points="502.37 146.68 542.75 112.64 532.43 111 493.03 144.97 502.37 146.68"/><polygon class="cls-4" points="489.26 144.26 529.63 110.23 519.32 108.59 479.92 142.56 489.26 144.26"/><line class="cls-23" x1="508.81" y1="108.78" x2="497.72" y2="118.02"/><line class="cls-23" x1="503.57" y1="107.71" x2="492.48" y2="116.95"/><line class="cls-23" x1="497.56" y1="107.09" x2="486.47" y2="116.33"/><line class="cls-23" x1="491.4" y1="106.63" x2="480.31" y2="115.87"/><line class="cls-23" x1="485.4" y1="105.7" x2="474.31" y2="114.94"/><line class="cls-23" x1="479.24" y1="104.93" x2="468.15" y2="114.17"/><polygon class="cls-4" points="463.32 117.77 493.81 122.23 479.8 133.63 449.76 128.85 463.32 117.77"/><polygon class="cls-4" points="472.41 103.35 440.06 98.69 437.56 102.5 413.01 121.85 442.82 127.59 472.41 103.35"/><polygon class="cls-24" points="443.94 120.34 440.58 123.02 421.86 119.56 425.83 116.89 443.94 120.34"/><line class="cls-13" x1="423.84" y1="122.07" x2="432.9" y2="115.34"/><line class="cls-13" x1="428.76" y1="122.93" x2="437.82" y2="116.2"/><line class="cls-13" x1="433.83" y1="123.69" x2="442.89" y2="116.96"/><polygon class="cls-18" points="383.9 186.94 386.23 165.46 408.23 169.34 406.41 191.09 383.9 186.94"/><polygon class="cls-18" points="412.11 192.38 414.44 170.9 436.44 174.78 434.63 196.52 412.11 192.38"/><polygon class="cls-18" points="441.1 197.56 443.43 176.07 465.43 179.96 463.61 201.7 441.1 197.56"/><polygon class="cls-2" points="478.62 163.91 523.4 172.58 522.88 179.57 478.11 170.77 478.62 163.91"/><polygon class="cls-2" points="477.59 177.89 522.24 186.56 520.55 217.74 475.39 209.85 477.59 177.89"/><line class="cls-25" x1="488.98" y1="160.29" x2="485.74" y2="214.38"/><line class="cls-25" x1="500.37" y1="162.1" x2="497.13" y2="216.19"/><line class="cls-25" x1="512.14" y1="163.65" x2="508.91" y2="217.74"/><polygon class="cls-26" points="440.38 0.21 419.61 8.88 444.34 12.24 440.38 0.21"/><polygon class="cls-27" points="440.38 0.21 458.31 7.58 450.28 11.34 442.91 10.43 440.38 0.21"/><polygon class="cls-27" points="419.61 8.88 413.15 18.75 440.38 24.92 445.75 16.9 442.91 10.43 419.61 8.88"/><polygon class="cls-28" points="458.31 7.58 463.26 14.92 440.38 24.92 442.91 10.43 458.31 7.58"/></g><g id="tactical_board"><polygon class="cls-10" points="130.77 25.62 158.73 28 168.04 290.47 153.55 284.78 130.77 25.62"/><polygon class="cls-12" points="156.66 31.1 237.77 31.1 330.42 12.5 309.83 8.22 130.77 25.62 156.66 31.1"/><polygon class="cls-5" points="173.22 43.48 313.96 25.62 312.17 188.45 181.51 209.43 173.22 43.48"/><line class="cls-23" x1="190.82" y1="36.31" x2="195.48" y2="215.97"/><line class="cls-23" x1="201.18" y1="34.24" x2="205.84" y2="213.89"/><line class="cls-23" x1="207.4" y1="33.21" x2="212.06" y2="212.86"/><line class="cls-23" x1="233.3" y1="26.99" x2="237.96" y2="206.64"/><line class="cls-23" x1="252.99" y1="24.92" x2="257.64" y2="204.57"/><line class="cls-23" x1="263.35" y1="24.92" x2="268.01" y2="204.57"/><line class="cls-23" x1="293.39" y1="24.92" x2="295.98" y2="204.57"/><line class="cls-23" x1="168.04" y1="74.1" x2="320.46" y2="51.84"/><line class="cls-23" x1="168.04" y1="84.46" x2="320.46" y2="62.2"/><line class="cls-23" x1="168.04" y1="129.01" x2="320.46" y2="103.65"/><line class="cls-23" x1="168.04" y1="139.37" x2="320.46" y2="111.94"/><line class="cls-23" x1="168.04" y1="188.07" x2="320.46" y2="160.63"/><polygon class="cls-29" points="191.59 65.95 196.02 70.02 191.85 75.91 187.53 71.25 191.59 65.95"/><polygon class="cls-30" points="204.41 68.67 208.2 64 212.97 67.54 208.44 73.33 204.41 68.67"/><polygon class="cls-30" points="232.18 118.34 235.55 113.61 239.05 117.2 235.75 121.55 232.18 118.34"/><polygon class="cls-30" points="207.4 180.99 211.09 175.56 214.79 179.66 211.33 184.79 207.4 180.99"/><polygon class="cls-29" points="255.46 120.45 252.15 124.23 255.64 127.29 258.67 123.06 255.46 120.45"/><path class="cls-31" d="M234.27,64.43A82.39,82.39,0,0,0,213,87.85c-8.35,14.38-9.71,35.3-9.71,35.3"/><line class="cls-31" x1="193.15" y1="133.98" x2="237.16" y2="175.78"/><path class="cls-31" d="M292.69,37.69S279,41.1,269,49.64C257,59.87,254.2,71.88,254.2,71.88"/><polygon class="cls-30" points="199.36 123.87 203.38 119.01 207.4 122.46 203.59 127.29 199.36 123.87"/><polygon class="cls-30" points="234.16 60.03 230.6 64.97 234.38 68.67 237.96 63.89 234.16 60.03"/><polygon class="cls-30" points="254.31 75.91 250.5 72.42 254.1 67.8 257.64 71.38 254.31 75.91"/><polygon class="cls-30" points="293.62 33.55 290.19 38.3 293.83 41.92 297.37 37.69 293.62 33.55"/><polygon class="cls-30" points="189.16 135.57 193.15 130.35 197.1 134.14 193.49 139.38 189.16 135.57"/><polygon class="cls-30" points="237.03 170.81 240.84 174.97 237.37 180.18 233.9 176.22 237.03 170.81"/><path class="cls-11" d="M156.66,31.1,168,290.47l161.77-52.8.61-152.3V12.5ZM312.17,188.45l-130.66,21-8.29-166L314,25.62Z"/></g><g id="map"><polygon class="cls-11" points="509.41 250.1 500.03 300.25 477.04 306.38 428.95 310.14 341.05 342.65 313.5 350 294.86 325.67 308.84 301.65 509.41 250.1"/><polygon class="cls-10" points="313.5 350 286.51 341.4 251.38 324.64 170.77 304.54 156.66 300.05 147.86 256.81 308.84 301.65 313.5 350"/><polygon class="cls-32" points="526.53 235.6 524.46 252 308.84 301.65 305.94 294.71 307.29 288.7 392.7 262.26 526.53 235.6"/><polygon class="cls-11" points="308.84 301.65 133.88 259.64 133.88 237.67 307.29 288.7 308.84 301.65"/><polygon class="cls-16" points="113.17 216.84 222.91 197.37 328.51 172.58 523.65 210.93 304.18 261.82 113.17 216.84"/><ellipse class="cls-33" cx="336.28" cy="223.31" rx="45.55" ry="11.82"/><ellipse class="cls-34" cx="336.28" cy="223.31" rx="65.71" ry="17.06"/><ellipse class="cls-34" cx="336.28" cy="223.31" rx="86.41" ry="22.43"/><line class="cls-34" x1="243.63" y1="241.14" x2="415.99" y2="205.03"/><line class="cls-34" x1="250.34" y1="206.06" x2="404.65" y2="237.03"/><polygon class="cls-10" points="113.17 216.84 118.87 242.18 307.29 288.7 310.91 275.03 304.18 265.96 113.17 216.84"/><polygon class="cls-11" points="304.18 265.96 307.29 288.7 540.4 235.6 543.47 207.46 530.91 213 304.18 265.96"/><polygon class="cls-32" points="341.05 342.65 344.02 307.04 473.97 284.78 477.04 306.38 341.05 342.65"/><polygon class="cls-11" points="286.52 341.41 281.91 307.04 176.33 288.7 170.77 304.54 286.52 341.41"/><polygon class="cls-10" points="175.81 226.65 332.13 190.63 479.66 219.27 490.53 210.41 326.77 177.6 156.66 219.27 175.81 226.65"/><polygon class="cls-11" points="175.81 226.65 332.13 190.63 330.58 180.99 326.77 177.6 156.66 219.27 175.81 226.65"/><polygon class="cls-12" points="507.44 228.36 507.09 234.22 512.62 233.01 512.96 226.98 507.44 228.36"/><polygon class="cls-12" points="516.41 232.32 517.1 225.94 522.45 224.39 521.93 230.94 516.41 232.32"/><polygon class="cls-12" points="525.38 229.74 526.25 223.35 531.77 221.8 530.91 228.7 525.38 229.74"/><polygon class="cls-35" points="530.91 213 541.16 228.68 542.69 214.63 530.91 213"/><path class="cls-12" d="M331.1,172.58,113.17,216.84l190,54.3L530.91,213l4.37-7Zm-16.56,79.9L166,219.89,330.58,181l152.7,29.42Z"/><polygon class="cls-5" points="380.3 210.65 385.33 209.43 389.17 210.65 383.9 213 380.3 210.65"/><polygon class="cls-5" points="288 221.86 292.43 220.12 295.98 221.86 290.93 224.4 288 221.86"/><polygon class="cls-5" points="325.16 234.78 331.17 232.32 335.55 235.13 329.81 237.03 325.16 234.78"/><polygon class="cls-5" points="250.34 225.65 255.34 228.5 249.88 230.33 244.86 227.99 250.34 225.65"/><polygon class="cls-5" points="417 217.74 421.75 216.19 425.88 217.74 421.44 219.49 417 217.74"/><polygon class="cls-36" points="332.1 222.47 448.9 172.27 444.5 151.07 327.5 151.07 313.96 155.2 295.98 169.6 266.75 185.65 282.94 194 282.78 202.01 332.1 222.47"/></g><g id="xwing"><polygon class="cls-12" points="237.77 159.19 244.86 149.31 236.06 142.94 229.7 151.27 237.77 159.19"/><polygon class="cls-10" points="281.42 136.29 273.87 131.94 236.34 142.9 243.16 149.25 268.26 142.9 281.42 136.29"/><polygon class="cls-11" points="242.9 149.31 237.77 159.19 279.12 145.63 242.9 149.31"/><polygon class="cls-21" points="323.49 131.94 281.42 136.29 243.16 149.25 285.72 152.41 311.06 151.19 323.49 131.94"/><polygon class="cls-35" points="311.06 151.19 285.23 143.72 295.3 134.85 323.49 131.94 311.06 151.19"/><polygon class="cls-12" points="254.39 88.83 247.55 96.42 255.13 106.3 263.68 97.47 254.39 88.83"/><polygon class="cls-10" points="261.73 97.47 254.39 88.83 294 79.62 299.13 86.28 283 93.25 261.73 97.47"/><polygon class="cls-11" points="261.73 97.47 255.13 106.3 285.15 98.69 261.73 97.47"/><polygon class="cls-21" points="292.28 108.01 261.73 97.47 299.13 86.28 357.93 100.89 328.87 117.75 292.28 108.01"/><polygon class="cls-37" points="380.3 127.29 408.97 120.53 412.56 112.7 405.39 97.47 390.88 105.62 378.09 118 380.3 127.29"/><polygon class="cls-11" points="406.37 128.36 415.82 119.64 412.56 112.7 398.09 117.58 406.37 128.36"/><polygon class="cls-11" points="403.88 90.75 411.7 82.25 409.38 76.93 394.22 84.51 403.88 90.75"/><polygon class="cls-11" points="346.23 89.48 364.97 82.96 367.09 87.85 353.64 99.5 346.23 89.48"/><polygon class="cls-10" points="330.42 85.37 346.8 81.01 355.66 96.64 340.46 110.02 330.42 85.37"/><polygon class="cls-16" points="327.81 116.79 316 103.27 330.42 85.37 341.44 107.08 336.29 113.69 327.81 116.79"/><polygon class="cls-11" points="320.46 102.78 322.9 101.08 324.5 98.4 329.26 93.25 330.72 96.92 332.7 99.28 336.29 105.56 333.29 107.08 331.94 108.87 327.81 112.01 326.2 109.39 324.09 107.34 320.46 102.78"/><polygon class="cls-32" points="331.94 108.87 327.81 103.42 327.81 112.01 324.08 107.34 327.81 103.42 320.46 102.78 324.5 98.4 327.81 103.42 329.26 93.25 332.7 99.27 327.81 103.42 336.29 105.56 331.94 108.87"/><polygon class="cls-19" points="349.88 100.89 367.09 87.85 376.87 87.85 364.15 104.99 349.88 100.89"/><polygon class="cls-16" points="348.37 115.4 342.97 142.12 329.44 143.75 313.96 140.49 327.81 116.79 348.37 115.4"/><polygon class="cls-38" points="328.71 120.94 343.13 120.45 339.22 138.23 321.13 136.91 328.71 120.94"/><polygon class="cls-10" points="342.97 142.12 360.89 125.34 357.93 105.9 345.57 117.77 342.97 142.12"/><polygon class="cls-39" points="346.8 118.3 352.67 114.66 356.82 126.05 346.8 133.48 346.8 118.3"/><polygon class="cls-11" points="357.06 107.89 355.84 106.43 364.15 102.05 374.1 111.47 360.89 125.34 357.06 107.89"/><polygon class="cls-12" points="327.81 116.79 341.44 107.08 349.55 106.76 357.06 107.89 345.57 117.77 327.81 116.79"/><polygon class="cls-16" points="357.06 107.89 341.44 107.08 349.88 100.89 364.15 102.05 357.06 107.89"/><polygon class="cls-21" points="342.97 142.12 338.29 177.9 279.24 168.05 313.96 140.49 342.97 142.12"/><polygon class="cls-19" points="335.55 173.25 338.29 196.04 318.85 197.37 266.75 185.65 279.24 168.05 335.55 173.25"/><polygon class="cls-37" points="266.75 185.65 282.78 202.01 341.01 209.43 341.01 200.06 335.55 194.96 266.75 185.65"/><polygon class="cls-19" points="335.55 173.25 355.88 155.69 368.55 144.26 380.3 125.34 379.07 118.98 374.1 111.47 342.97 142.12 335.55 173.25"/><polygon class="cls-40" points="335.55 173.25 364.62 142.12 373.02 146.69 376.21 156.87 341.01 209.43 335.55 194.96 335.55 173.25"/><polygon class="cls-16" points="380.3 125.34 391.21 142.94 376.21 156.87 364.62 142.12 380.3 125.34"/><polygon class="cls-11" points="369.04 142.12 372.14 139.88 373.98 137.04 378.94 131.94 380.57 135.69 382.96 138.24 386.03 143.06 382.57 144.77 381.16 147.48 376.99 151.25 375.03 147.99 373.02 146.69 369.04 142.12"/><polygon class="cls-32" points="377.54 142.12 376.99 151.25 373.02 146.69 377.54 142.12 369.04 142.12 373.98 137.04 377.54 142.12 378.94 131.94 382.96 138.23 377.54 142.12 386.03 143.06 381.16 147.48 377.54 142.12"/><polygon class="cls-10" points="376.87 87.85 394.84 76.2 403.88 90.75 391.21 106.76 382.98 97.96 376.87 87.85"/><polygon class="cls-16" points="364.15 102.05 376.87 87.85 391.21 106.76 379.07 118.98 364.15 102.05"/><polygon class="cls-11" points="368.31 103.15 371.29 100.9 372.87 98.4 377.29 93.79 379.35 97.57 381.58 99.21 386.27 105.14 383.68 107.04 382.93 108.98 378.63 113.93 375.93 109.72 373.4 108.46 368.31 103.15"/><polygon class="cls-32" points="376.98 103.45 378.63 113.93 373.4 108.46 376.98 103.45 368.31 103.15 372.87 98.4 376.98 103.45 377.29 93.79 381.58 99.21 376.98 103.45 386.27 105.14 382.94 108.99 376.98 103.45"/><polygon class="cls-10" points="380.3 125.34 399.34 113.93 406.37 128.36 391.21 142.94 380.3 125.34"/><polygon class="cls-21" points="412.11 111.11 437.33 102.63 473.45 81.52 403.88 90.75 379.07 118.98 412.11 111.11"/><polygon class="cls-10" points="469.52 76.2 478.5 85.37 453.07 104.4 446.69 103.42 444.34 95.32 469.52 76.2"/><polygon class="cls-12" points="446.54 113.81 453.07 104.4 444.34 95.32 437.33 102.63 446.54 113.81"/><polygon class="cls-21" points="376.21 156.87 406.37 160.63 447.6 160.38 466.18 139.85 406.37 128.36 376.21 156.87"/><polygon class="cls-10" points="471.07 133.98 477.59 144.08 457.54 164.17 449.88 160.38 449.88 153.16 471.07 133.98"/><polygon class="cls-12" points="448.9 172.27 441.41 160.08 449.88 153.16 457.54 164.17 448.9 172.27"/><polygon class="cls-11" points="446.54 113.81 475.3 93.56 478.5 85.37 453.07 104.4 446.54 113.81"/><polygon class="cls-35" points="376.21 156.87 433.59 149.07 447.72 136.3 406.37 128.36 376.21 156.87"/><polygon class="cls-35" points="364.62 142.12 368.21 168.83 376.21 156.87 364.62 142.12"/><polygon class="cls-40" points="437.33 102.63 379.07 118.98 380.3 125.34 437.33 102.63"/><polygon class="cls-40" points="327.81 116.79 261.73 97.47 324.46 122.52 327.81 116.79"/><polygon class="cls-40" points="441.41 160.08 371.33 164.17 376.21 156.87 441.41 160.08"/><polygon class="cls-40" points="243.16 149.25 294.69 155.79 300.85 150.9 243.16 149.25"/></g><g id="r2d2"><polygon class="cls-14" points="130.08 317.91 104.62 305.69 122.75 297.98 128.88 301.65 130.08 317.91"/><polygon class="cls-4" points="132.21 234.83 121.97 226.65 118.83 230.17 122.45 236.38 132.21 234.83"/><polygon class="cls-41" points="122.45 236.38 132.21 234.83 142.94 297.55 133.19 301.08 125.6 301.08 118.98 255.18 122.45 236.38"/><polygon class="cls-8" points="59.08 206.64 87.55 202.13 107.48 207.46 73.83 217 59.08 206.64"/><polygon class="cls-42" points="73.83 213.89 77.2 223.31 68.14 235.6 40.7 224.75 59.08 206.64 73.83 213.89"/><polygon class="cls-9" points="73.83 213.89 79.69 212.77 96.37 211.45 100.23 208.84 107.48 207.46 121.97 226.65 89.1 237.03 68.14 235.6 73.83 213.89"/><polygon class="cls-4" points="40.7 224.75 40.7 300.05 68.14 313.72 72.54 265.37 68.14 235.6 40.7 224.75"/><polygon class="cls-14" points="68.14 235.6 121.97 226.65 125.12 291.23 102.54 306.15 68.14 301.75 68.14 235.6"/><polygon class="cls-40" points="123.66 293.58 112.07 293.64 98.68 296.11 91.31 299.14 83.55 298.91 68.14 301.75 68.14 313.72 84.28 310.17 91.31 307.68 99.08 306.92 112.93 303.87 123.14 300.44 123.66 293.58"/><polygon class="cls-37" points="84.28 310.17 99.08 306.92 98.68 296.11 83.55 298.91 84.28 310.17"/><polygon class="cls-37" points="112.93 303.87 125.6 301.08 125.12 291.23 112.07 293.64 112.93 303.87"/><polygon class="cls-39" points="97.64 259.54 116.93 256.18 118.09 285.17 98.29 288.92 97.64 259.54"/><ellipse class="cls-33" cx="107.63" cy="266.47" rx="4.66" ry="4.08" transform="matrix(0.11, -0.99, 0.99, 0.11, -169.1, 344.03)"/><ellipse class="cls-33" cx="107.78" cy="278.91" rx="4.66" ry="4.08" transform="translate(-181.33 355.24) rotate(-83.66)"/><polygon class="cls-37" points="75.39 240.26 115.25 233.4 115.25 237.03 75.52 243.76 75.39 240.26"/><polygon class="cls-37" points="75.65 247.51 115.5 240.91 115.63 244.4 75.78 251.39 75.65 247.51"/><line class="cls-43" x1="76.94" y1="263.56" x2="87.55" y2="261.74"/><line class="cls-43" x1="76.94" y1="266.66" x2="87.55" y2="264.85"/><line class="cls-43" x1="76.94" y1="269.77" x2="87.55" y2="267.96"/><line class="cls-43" x1="76.94" y1="272.88" x2="87.55" y2="271.07"/><line class="cls-43" x1="76.94" y1="275.99" x2="87.55" y2="274.18"/><line class="cls-43" x1="76.94" y1="279.1" x2="87.55" y2="277.28"/><line class="cls-43" x1="76.94" y1="282.2" x2="87.55" y2="280.39"/><line class="cls-43" x1="76.94" y1="285.31" x2="87.55" y2="283.5"/><line class="cls-43" x1="76.94" y1="288.42" x2="87.55" y2="286.61"/><line class="cls-43" x1="76.94" y1="291.53" x2="87.55" y2="289.72"/><polygon class="cls-40" points="65.42 230.17 47.82 222.92 52.22 219.04 66.59 224.99 65.42 230.17"/><polygon class="cls-10" points="84.36 229.63 93.12 228.12 92.17 225.44 83.5 226.87 84.36 229.63"/><polygon class="cls-10" points="94.19 225.14 97.34 224.58 98.55 227.21 95.27 227.77 94.19 225.14"/><polygon class="cls-10" points="99.05 224.3 102.2 223.74 103.4 226.37 100.13 226.93 99.05 224.3"/><polygon class="cls-10" points="103.77 223.46 106.92 222.9 108.13 225.53 104.85 226.09 103.77 223.46"/><polygon class="cls-40" points="82.98 223.87 106.1 219.56 100.23 208.84 79.69 212.77 82.98 223.87"/><ellipse class="cls-24" cx="92.6" cy="216.15" rx="3.49" ry="3.15"/><polygon class="cls-8" points="40.7 231.46 57.2 242.59 47.82 252.22 27.77 239.77 40.7 231.46"/><polygon class="cls-4" points="47.82 248.08 51.84 277.29 48.99 317.91 34.49 313.72 25.95 303.93 27.77 239.77 47.82 248.08"/><polygon class="cls-14" points="57.2 242.59 68.14 313.72 60.89 319.2 48.99 317.91 47.82 248.08 57.2 242.59"/><polygon class="cls-4" points="48.99 317.91 46.23 325.76 47.82 338.87 58.32 336.06 64.43 332.66 70.31 332.84 79.69 330.33 68.14 313.72 48.99 317.91"/><polygon class="cls-42" points="48.99 317.91 25.95 303.93 20 314.75 25.16 319.22 32.93 323.03 39.35 331.52 47.82 338.87 48.99 317.91"/><polygon class="cls-40" points="65.72 325.07 57.01 327.4 58.32 336.06 70.31 332.84 65.72 325.07"/><polygon class="cls-4" points="125.6 301.08 130.08 317.91 138.87 315.79 142.94 312.3 148.77 313.41 158.04 311.18 142.94 297.55 125.6 301.08"/><polygon class="cls-40" points="143.89 306.69 136.04 308.33 138.87 315.79 148.77 313.41 143.89 306.69"/><polygon class="cls-10" points="34.49 249.97 41.22 252.77 40.7 274.18 33.59 271.07 34.49 249.97"/><polygon class="cls-44" points="25.16 319.23 39.35 331.52 40.7 323.47 27.77 314.54 25.16 319.23"/></g><g id="intj"><polygon class="cls-11" points="629.77 121.2 677.4 142.35 662.25 155.2 649.44 159.77 635.24 161.15 621.38 132.85 629.77 121.2"/><polygon class="cls-32" points="677.4 142.35 665.75 180.99 655.78 182.03 647.11 177.6 649.44 159.77 677.4 142.35"/><polygon class="cls-45" points="661.09 200.2 673 193.07 661.09 186.17 661.09 200.2"/><polygon class="cls-46" points="647.11 177.6 644.17 191.76 648.81 194.9 661.09 200.2 665.75 180.99 647.11 177.6"/><polygon class="cls-32" points="553.18 193.67 570.04 212.35 566.41 219.89 557.47 221.24 530.91 213 553.18 193.67"/><polygon class="cls-11" points="537.55 162.5 530.91 213 561.62 190.63 551.93 155.2 537.55 162.5"/><polygon class="cls-10" points="599.25 299.04 567.19 301.65 584.23 281.15 599.23 293.58 599.25 299.04"/><polygon class="cls-11" points="567.19 301.65 599.21 291.41 599.85 294.61 600.61 300.25 567.19 301.65"/><polygon class="cls-32" points="568.72 267.18 600.61 300.25 599.75 258.03 568.72 267.18"/><polygon class="cls-11" points="645.78 235.98 642.2 251.48 568.72 267.18 576.59 237.03 623.74 222.32 645.78 235.98"/><polygon class="cls-10" points="576.59 237.03 645.78 235.98 652.99 204.78 618.3 216.34 576.59 237.03"/><polygon class="cls-37" points="607.33 105.13 599.19 104.32 594.64 117.03 597.16 122.85 618.3 120.82 607.33 105.13"/><polygon class="cls-10" points="581.85 165.42 562.99 152.76 548.19 156.02 573.49 221.24 620.3 211.27 648.81 194.9 625.11 135.96 612.52 135.53 606 133.97 581.85 165.42"/><polygon class="cls-32" points="607.33 144.5 636.76 135.95 629.77 121.2 606 133.97 607.33 144.5"/><polygon class="cls-11" points="577.36 192.39 586.08 216.84 624.46 203.43 615.02 180.99 604.75 167.79 588.31 164.43 581.63 176.76 577.36 192.39"/><polygon class="cls-16" points="592.79 179.96 591 185.94 597.14 188.45 599.85 182.02 592.79 179.96"/><polygon class="cls-16" points="599.91 195.95 606 198.22 603 204.46 597.64 202.03 599.91 195.95"/><polygon class="cls-16" points="606 133.97 615.02 180.99 588.31 164.43 606 133.97"/><polygon class="cls-16" points="588.31 164.43 577.36 192.39 560.4 153.48 562.99 152.76 588.31 164.43"/><polygon class="cls-46" points="505.36 92.22 511.59 110.21 537.55 162.5 566.41 155.86 588.97 158.52 601.66 135.01 594.49 116.6 602.62 111.5 601.7 94.57 586.97 93.26 584.06 108.25 578.94 108.39 571.29 93.27 570.87 70.87 543.32 65.59 522.3 82.87 516.82 70.9 505.36 92.22"/><polygon class="cls-45" points="570.04 71.37 560.35 100.69 568.72 140.03 566.41 155.86 588.31 164.43 606 133.97 594.64 117.03 590.3 119.06 584.24 109.31 578.7 109.16 570.61 93.56 570.04 71.37"/><polygon class="cls-45" points="521.96 116.36 560.35 100.69 545.66 120.91 548.76 133.97 535.23 121.37 521.96 116.36"/><polygon class="cls-47" points="568.72 140.03 549.87 149.07 535.14 150.73 547.67 141.31 568.72 140.03"/><polygon class="cls-40" points="568.72 140.03 548.76 133.97 540.59 136.96 535.14 150.73 568.72 140.03"/><polygon class="cls-48" points="539.18 109.35 548.76 133.97 540.59 136.96 532.05 112.15 539.18 109.35"/><path class="cls-49" d="M553.46,117.41c1.23-.5,1.57-2.55.75-4.55s-2.49-3.22-3.73-2.71-1.57,2.55-.75,4.55S552.22,117.92,553.46,117.41Z"/><path class="cls-49" d="M530.74,126c1.23-.51,1.56-2.56.72-4.55s-2.51-3.21-3.75-2.69-1.55,2.56-.72,4.56S529.51,126.5,530.74,126Z"/><polygon class="cls-40" points="560.35 100.69 521.96 116.36 515.47 105.29 560.35 100.69"/><polygon class="cls-37" points="540.58 136.91 545.99 138.64 548.76 133.97 540.58 136.91"/><polygon class="cls-47" points="596.19 97.31 590.01 98.51 590.79 107.68 596.19 97.31"/><polygon class="cls-47" points="566.41 155.86 582.3 147.91 588.31 164.43 566.41 155.86"/><polygon class="cls-47" points="594.88 116.35 590.3 119.06 599.21 122.85 594.88 116.35"/><polygon class="cls-19" points="506.04 91.92 499.87 84.83 488.47 79.73 511.59 110.21 506.04 91.92"/><polygon class="cls-19" points="570.04 71.37 583.02 60.57 606 53.92 606.57 84.9 587.09 91.08 570.61 93.56 570.04 71.37"/><polygon class="cls-32" points="648.86 194.9 617.02 206.03 607.25 211.62 595.58 213.52 573.49 221.24 576.59 237.03 600.91 226.65 613.24 220.39 621.63 217.95 652.99 204.78 648.86 194.9"/><path class="cls-16" d="M595.58,213.52l5.33,13.13,20.72-8.7L617,206Zm6.24,1.93,11.78-3.92,2.07,5.74-10.92,4Z"/><polygon class="cls-40" points="506.04 91.92 517.03 72.69 524.01 63.55 530.36 49.37 488.47 79.73 506.04 91.92"/><polygon class="cls-40" points="570.04 71.37 543.47 66.48 557.54 53.03 572.83 39.76 606 53.92 570.04 71.37"/><polygon class="cls-19" points="530.36 49.37 557.3 29.71 572.83 39.76 543.47 66.48 522.12 83.99 517.03 72.69 530.36 49.37"/><polygon class="cls-40" points="570.61 93.56 606.57 84.9 607.33 105.13 602.62 111.5 601.23 95.01 587.27 93.94 584.24 109.31 578.7 109.16 570.61 93.56"/><polygon class="cls-46" points="557.47 221.24 570.04 212.35 577.36 219.89 561.96 230.94 557.47 221.24"/><polygon class="cls-45" points="577.36 219.89 576.59 237.03 565.05 240.98 561.96 230.94 577.36 219.89"/></g><g id="table"><polygon class="cls-21" points="591.04 244.41 690.34 222.32 791.28 241.3 686.2 280.12 591.04 244.41"/><polygon class="cls-40" points="686.2 275.98 682.22 296.53 688.78 337.58 776.78 304.45 791.28 241.3 686.2 275.98"/><polygon class="cls-12" points="723.47 252.69 749.09 244.75 767.49 249.15 745.11 259.64 723.47 252.69"/><polygon class="cls-10" points="712.6 259.93 725.21 263.1 720.54 325.62 738.74 328.26 745.48 277.79 745.11 256.53 723.47 252.69 712.6 259.93"/><polygon class="cls-11" points="745.11 256.53 767.49 249.15 765.4 318.42 738.74 328.26 745.11 256.53"/><polygon class="cls-19" points="591.04 244.41 602.98 314.11 688.78 337.58 686.2 275.98 591.04 244.41"/><polygon class="cls-50" points="673 254.67 681.28 259.64 668.51 270.11 658.59 295.39 633.14 287.37 631.63 259.64 673 254.67"/><polygon class="cls-50" points="653.59 240.03 686.89 253.04 749.29 233.4 738.2 231.32 670.15 237.67 653.59 240.03"/><polygon class="cls-50" points="755.3 240.03 767.49 249.15 784.52 240.03 775.47 237.67 755.3 240.03"/></g><g id="food"><polygon class="cls-11" points="651.87 232.03 687.75 211.31 748.66 220.4 732.97 230.33 690.34 222.32 654.62 237.03 651.87 232.03"/><polygon class="cls-32" points="646.69 232.03 687.75 211.31 690.34 222.32 653.59 237.03 646.69 232.03"/><polygon class="cls-12" points="690.34 222.32 732.97 230.33 687.23 244.41 653.59 237.03 690.34 222.32"/><polygon class="cls-44" points="731.49 229.13 709.75 235.6 700.74 229.13 706.9 225.44 713.89 221.43 720.97 225.15 731.49 229.13"/><polygon class="cls-41" points="700.74 229.13 731.49 229.13 709.75 237.67 700.74 229.13"/><polygon class="cls-21" points="711.56 219.89 717.77 215.79 720.98 225.15 713.89 222.47 710.63 221.15 711.56 219.89"/><polygon class="cls-40" points="713.89 222.47 685.16 237.03 681.28 225.61 713.89 222.47"/><polygon class="cls-19" points="683.35 226.65 678.69 226.65 674.29 222.47 711.56 219.89 713.89 222.47 683.35 226.65"/><polygon class="cls-21" points="674.29 222.47 666.08 232.03 685.16 237.03 683.35 226.65 674.29 222.47"/><ellipse class="cls-51" cx="676.88" cy="229.05" rx="1.55" ry="1.93" transform="translate(-13.05 415.14) rotate(-33.79)"/><polygon class="cls-21" points="684.84 224.34 686.89 224.17 690.21 225.7 689.58 229.91 688.33 230.36 688.51 225.94 684.84 224.34"/><polygon class="cls-10" points="646.69 232.03 653.59 239.92 686.89 248.03 689.24 244.4 687.58 238.99 646.69 232.03"/><polygon class="cls-32" points="687.58 238.99 748.66 220.4 738.74 231.42 686.89 248.03 687.58 238.99"/><polygon class="cls-12" points="710.35 191.69 716.13 192.98 701.92 216.83 707.33 217.92 700.74 229.13 698.88 227.53 702.1 222.54 699.49 220.72 697.15 226.65 695.34 225.01 696.9 219.2 694.74 217.74 692.58 224.65 690.68 224.17 693.01 213.78 699.23 216.07 710.35 191.69"/><polygon class="cls-37" points="640.9 236.64 661.09 245.59 654.96 253.04 639.91 249.15 624.46 262.26 617.06 253.04 640.9 236.64"/><polygon class="cls-40" points="640.9 236.64 676.88 245.59 671.18 252.69 639.91 249.15 640.9 236.64"/><polygon class="cls-10" points="671.18 252.69 664.63 249.15 661.09 250.1 650.88 244.23 644.81 247.58 640.33 243.83 634.82 249.15 630.03 251.25 627.88 255.62 624.46 262.26 634.26 265.45 660.18 265.96 671.18 252.69"/><polygon class="cls-11" points="671.18 252.69 662.86 258.03 658.59 257.17 649.39 252.69 642.72 255.59 639.91 258.03 630.03 251.25 625.8 254.58 624.46 262.26 634.26 265.45 662.25 268.03 671.18 252.69"/><polygon class="cls-11" points="644.81 247.58 642.72 255.59 634.82 249.15 644.81 247.58"/><polygon class="cls-11" points="661.09 250.1 662.25 254.67 649.39 252.69 661.09 250.1"/><polygon class="cls-40" points="617.06 253.04 658.59 257.17 662.86 260.54 662.25 268.03 624.46 268.03 617.06 253.04"/><polygon class="cls-37" points="662.25 268.03 673.13 254.93 676.88 245.59 658.59 257.17 662.25 268.03"/><polygon class="cls-16" points="650.88 244.23 649.39 252.69 644.81 247.58 650.88 244.23"/><polygon class="cls-16" points="640.33 243.83 639.66 248.39 634.82 249.15 640.33 243.83"/><polygon class="cls-16" points="664.63 249.15 662.25 254.67 661.09 250.1 664.63 249.15"/><polygon class="cls-32" points="750.37 210.54 765.13 207.46 777.82 215.07 765.13 221.24 750.37 210.54"/><polygon class="cls-10" points="750.37 210.54 765.42 216.34 769.02 226.65 765.91 243.83 755.3 240.03 750.37 210.54"/><polygon class="cls-10" points="765.13 207.46 765.42 216.34 770.57 218.26 779.89 213 765.13 207.46"/><polygon class="cls-11" points="779.89 213 775.35 238.3 765.91 243.83 765.42 216.34 779.89 213"/></g></svg>