<svg id="illustration_right" data-name="illustration right" xmlns="http://www.w3.org/2000/svg" viewBox="0 0 900 350"><defs><style>.cls-1,.cls-16,.cls-17,.cls-2,.cls-25,.cls-26,.cls-31,.cls-48{fill:#2b2b2b;}.cls-1,.cls-10,.cls-11,.cls-12,.cls-14,.cls-15,.cls-16,.cls-18,.cls-19,.cls-2,.cls-20,.cls-21,.cls-22,.cls-23,.cls-24,.cls-25,.cls-26,.cls-27,.cls-28,.cls-29,.cls-3,.cls-30,.cls-39,.cls-40,.cls-50,.cls-52,.cls-53,.cls-54{fill-rule:evenodd;}.cls-1{opacity:0.1;}.cls-2,.cls-31{opacity:0.2;}.cls-3,.cls-59{fill:#cececd;}.cls-4,.cls-53{fill:#ececeb;}.cls-11,.cls-5{fill:#6f7173;}.cls-27,.cls-6{fill:#c4c4c4;}.cls-21,.cls-7{fill:#858686;}.cls-29,.cls-62,.cls-8{fill:#a3a3a3;}.cls-23,.cls-9{fill:#b3889d;}.cls-10,.cls-33{fill:#a688ba;}.cls-12,.cls-36{fill:#785d88;}.cls-13,.cls-41,.cls-58{fill:none;stroke-miterlimit:10;}.cls-13{stroke:#785d88;}.cls-14,.cls-38{fill:#d1a1b8;}.cls-15,.cls-32{fill:#9075a0;}.cls-16,.cls-17{opacity:0.16;}.cls-18,.cls-34{fill:#dddddc;}.cls-19,.cls-47{fill:#4f5253;}.cls-20,.cls-60{fill:#8f8f8f;}.cls-22,.cls-37{fill:#96637c;}.cls-24,.cls-35{fill:#fff;}.cls-25{opacity:0.21;}.cls-26{opacity:0.15;}.cls-28,.cls-49{fill:#594165;}.cls-30,.cls-44{fill:#734d60;}.cls-39,.cls-61{fill:#737373;}.cls-40,.cls-56{fill:#543042;}.cls-41{stroke:#96637c;}.cls-42{fill:#a77e62;}.cls-43{fill:#c09c84;}.cls-45{fill:#835940;}.cls-46{fill:#c9ad9b;}.cls-50{fill:#dfbda5;}.cls-51{fill:#e8cab6;}.cls-52,.cls-57{fill:#c3987b;}.cls-54,.cls-55{fill:#8b6651;}.cls-58{stroke:#dddddc;}.cls-62{opacity:0.4;}</style></defs><title>analysts_INTP_scene_med_romantic_relationships</title><g id="shadows"><polygon class="cls-1" points="405.14 266.72 393.5 272.21 405.14 276.87 430.23 271.13 405.14 266.72"/><polygon class="cls-1" points="301.75 320.62 307.6 330.5 348.31 328.05 366.47 302.83 328.94 303.98 301.75 320.62"/><path class="cls-1" d="M354.5,332.78l-4.81,4.84s19.05,5.05,20.51,5.05S385,335.33,385,335.33l-4.8-1.39-25.71-1.16"/><polygon class="cls-1" points="387.2 317.54 384.5 320.15 395.87 324.5 407.33 319.5 403.55 318.28 387.2 317.54"/><polygon class="cls-1" points="413.33 335.33 409 337.62 435.56 342.67 450 342.67 464.05 348.33 472.42 345.33 467.17 342.83 453.5 340.08 431.33 334.07 413.33 335.33"/><polygon class="cls-2" points="656.75 306.1 589.9 298.14 599.53 292.48 568.98 282.52 540.48 289.15 474.5 272.01 426.98 293.78 465.3 306.05 479.03 324.57 553.9 313.49 617.61 329.5 669.53 309.04 656.75 306.1"/><polygon class="cls-1" points="381.42 235.55 445.08 246.46 546.46 244.32 416.19 227.03 381.42 235.55"/><polygon class="cls-1" points="883.24 268.67 897.28 235.1 894.89 203.54 856.67 190.92 700.69 184.21 661.35 245.16 672.8 280.98 629.92 296.64 632.75 301.06 658.12 294.7 676 289.54 677.33 285.41 750.67 300.32 781.65 298.72 797.02 308.85 787.79 321.38 756.05 336.54 799.25 335.67 847 306.1 823.67 293.78 830.34 290.91 883.24 268.67"/><polygon class="cls-1" points="66.2 318.67 63 320.62 52 328.05 89.63 335.67 112.67 323.34 93.02 315.12 66.2 318.67"/><polygon class="cls-1" points="204.39 279.44 166.34 298.07 212.28 318.67 276.25 298.66 263.39 292.09 230.21 272.88 204.39 279.44"/></g><g id="walls"><polygon class="cls-3" points="93 249.46 175.3 233.92 261.44 214.78 254.42 51.75 95.92 68.11 93 249.46"/><polygon class="cls-4" points="273.5 19 473.36 7 488.45 177.55 276.25 207.18 273.5 19"/><polygon class="cls-4" points="22.5 256.51 0 38.68 98.81 30.98 132.4 237.34 22.5 256.51"/><polygon class="cls-5" points="263.58 264.44 243.74 258.89 230.21 35.92 262.44 31.45 263.58 264.44"/><polygon class="cls-6" points="281.05 260.16 458.67 216.61 457.24 167.94 386.5 182.11 263.93 207.5 281.05 260.16"/><polygon class="cls-6" points="137.51 233.28 22.5 256.51 29 321.96 120.76 299.46 137.51 233.28"/><polygon class="cls-7" points="120.5 63.61 165.65 62.01 248.75 48.66 249.75 34.25 118 45.02 120.5 63.61"/><polygon class="cls-8" points="120.5 63.61 248.75 48.66 250.04 61 164.09 71.72 120.5 73.11 120.5 63.61"/><polygon class="cls-7" points="250.04 61 250.17 70.83 124 84.86 120.5 73.11 250.04 61"/><polygon class="cls-9" points="263.58 264.44 281.05 260.16 273.5 19 98.81 30.98 120.76 299.46 144.41 293.66 126.91 52.71 253.89 39.32 263.58 264.44"/><polygon class="cls-4" points="473.36 7 881.51 27 900 270.92 469.35 213.28 473.36 7"/><polygon class="cls-2" points="71.67 195.17 76.33 204.28 98.81 199.72 98.67 189.5 71.67 195.17"/><polygon class="cls-10" points="71.33 151.67 98.67 149 102.67 193.67 77.67 197.67 71.33 151.67"/><polygon class="cls-11" points="78.17 157.17 79.67 171.83 95.33 169.33 94.33 154.67 78.17 157.17"/><polygon class="cls-12" points="80.17 175.83 83.67 175.17 84 178.5 80.33 179 80.17 175.83"/><polygon class="cls-12" points="86.33 175 90.17 174.17 90.5 177.67 86.67 178 86.33 175"/><polygon class="cls-12" points="93 173.83 96.67 173.33 96.83 176.83 93 177.5 93 173.83"/><line class="cls-13" x1="81.67" y1="183.67" x2="96.67" y2="181.33"/><line class="cls-13" x1="82" y1="187.17" x2="96.83" y2="184.67"/><line class="cls-13" x1="82.33" y1="190.67" x2="96.83" y2="188.33"/><polygon class="cls-14" points="98.67 149 93.5 147 67.17 150.5 69.83 153 72.33 152.67 98.67 149"/><polygon class="cls-15" points="72.33 152.67 77.67 197.67 71.67 195.17 67.17 150.5 72.33 152.67"/><polygon class="cls-16" points="395.04 170.5 376.58 175.33 381.42 235.55 431.99 223.15 411.33 172.32 395.04 170.5"/><polygon class="cls-17" points="883.24 268.67 898.18 246.87 894.82 202.56 861.96 192.79 799.25 257.43 883.24 268.67"/></g><g id="machinery"><polygon class="cls-18" points="874.5 186.15 512.93 135.35 380.01 161.98 797.1 235.98 874.5 186.15"/><polygon class="cls-18" points="389.5 196.17 428.5 186.15 417.37 204.28 389.5 196.17"/><polygon class="cls-19" points="737.5 288.02 785.93 267.02 742.5 253.94 737.5 288.02"/><polygon class="cls-20" points="380.01 161.98 793.5 229.01 802.5 246.46 802.5 272.21 750.5 261.8 737.5 288.02 679.54 278.51 418.37 234.33 413 216.28 393.5 211.71 389.5 196.17 410.01 199.9 407.25 187.21 386.5 182.11 380.01 161.98"/><polygon class="cls-21" points="793.5 229.01 874.5 186.15 887 241.12 802.5 272.21 793.5 229.01"/><polygon class="cls-22" points="426.98 169.6 431.92 198.75 441 200.5 440.06 193.26 463.67 197.92 464.42 204.33 475.36 206.59 472.42 176.96 451.67 172.58 426.98 169.6"/><polygon class="cls-23" points="426.98 169.6 448.5 165 487.5 170.83 472.42 176.96 426.98 169.6"/><polygon class="cls-24" points="443.83 184.5 458.33 186.83 458.83 191.33 444.33 188.75 443.83 184.5"/><polygon class="cls-22" points="691.55 212.49 696.25 241.75 705.33 243.5 704.4 236.26 728 240.92 728.75 247.33 739.69 249.59 736.68 219.8 716 215.58 691.55 212.49"/><polygon class="cls-23" points="691.55 212.49 708.83 206 751.83 212.83 736.68 219.8 691.55 212.49"/><polygon class="cls-24" points="708.17 227.5 722.67 229.83 723.17 234.33 708.67 231.75 708.17 227.5"/><polygon class="cls-25" points="423.3 153.31 478.93 165 560.74 142.07 512.93 135.35 423.3 153.31"/><polygon class="cls-25" points="778.27 172.63 723.17 205.27 810.91 219.8 852.98 183.13 778.27 172.63"/><polygon class="cls-1" points="677.89 171.17 704.99 162.34 682.85 159.23 661.35 167.7 677.89 171.17"/><polygon class="cls-26" points="679.54 278.51 689 255.92 677 244.59 691.55 212.49 618.13 200.58 626.13 261.49 679.54 278.51"/><polygon class="cls-25" points="691.55 212.49 684.31 195.21 643.22 190.92 618.13 200.58 691.55 212.49"/><g id="Layer_17" data-name="Layer 17"><polygon class="cls-11" points="440.06 102.35 458.5 155.85 466.55 157.22 469.13 156.38 472.42 158.22 482.79 159.98 476.82 113.09 440.06 102.35"/><polygon class="cls-19" points="482.79 159.98 491.75 157.5 498.13 154.38 504.53 153.97 512.5 151.76 502.93 96.94 471 117 482.79 159.98"/><polygon class="cls-22" points="472.42 158.22 459.93 114.96 453.5 115.22 466.55 157.22 472.42 158.22"/><polygon class="cls-21" points="491.75 157.5 489.63 147.85 502.63 144.63 504.52 153.97 491.75 157.5"/><polygon class="cls-21" points="488.63 142.94 501.5 139.88 500.44 134.82 487.5 137.75 488.63 142.94"/><polygon class="cls-11" points="491.75 132.5 486.75 110.88 491.75 109.48 495.88 131.75 491.75 132.5"/><polygon class="cls-21" points="537.5 10.14 551.73 96.17 471 117 452.5 49 478.5 16.5 537.5 10.14"/><polygon class="cls-27" points="428 17 392.5 42.5 428.5 49.89 455.5 47 481.51 18.5 466.5 13 428 17"/><polygon class="cls-18" points="428 17 489 0 537.5 10.14 481.51 18.5 428 17"/><polygon class="cls-11" points="455.5 47 471 117 460.19 115.9 438.4 110.08 421.01 111.92 412 111 392.5 42.5 455.5 47"/><polygon class="cls-23" points="460.2 115.88 453.5 90.14 437.25 80.13 430.5 54.76 419.25 53.75 425.75 79.75 415.25 89 421.01 111.92 428.5 112.67 438.4 110.08 453.5 115.2 460.2 115.88"/><polygon class="cls-22" points="453.5 115.22 448 94.62 432 86 423.3 92.61 428.5 112.67 453.5 115.22"/><polygon class="cls-27" points="436.58 50.83 449.67 51.92 450.42 54.58 437.17 53.5 436.58 50.83"/><polygon class="cls-27" points="400.5 48.08 412.33 49.08 412.92 51.75 401.33 50.67 400.5 48.08"/><polygon class="cls-24" points="433.69 107.45 445.08 108.45 444.3 105.59 433.05 104.8 433.69 107.45"/><polygon class="cls-24" points="431.89 100.71 442.85 101.43 442.21 98.92 431.25 98.13 431.89 100.71"/><polygon class="cls-11" points="468 55 483.5 51.33 495.67 60.67 503.33 99.5 479 105.5 468 55"/><polygon class="cls-24" points="477.06 68.69 478.63 76.27 480.81 75.7 479.37 68.25 477.06 68.69"/><polygon class="cls-24" points="479.45 80.16 481.02 87.74 483.2 87.17 481.76 79.72 479.45 80.16"/><polygon class="cls-24" points="481.78 91.5 483.35 99.08 485.53 98.51 484.08 91.06 481.78 91.5"/><polygon class="cls-24" points="482.31 67.61 483.88 75.19 486.06 74.62 484.62 67.17 482.31 67.61"/><polygon class="cls-24" points="484.7 79.08 486.27 86.66 488.45 86.09 487.01 78.64 484.7 79.08"/><polygon class="cls-24" points="487.03 90.42 488.6 98 490.78 97.43 489.33 89.98 487.03 90.42"/><polyline class="cls-16" points="519.62 51.02 535.76 100.29 544.63 98 535.55 53.75 519.62 51.02 519.62 28 525.75 51.75 535.25 51.75 532.12 28.5 519.62 28"/></g><polygon class="cls-28" points="689 138.29 694.75 147.45 708.25 149.69 700.75 136.59 689 138.29"/><polygon class="cls-15" points="694.75 147.45 694.76 160.9 704.99 162.34 706.63 154.74 706.25 147.45 694.75 147.45"/><polygon class="cls-10" points="660.38 123.59 693.25 120.99 708.25 126.1 692 131.17 671.7 131.17 660.38 123.59"/><polygon class="cls-12" points="708.25 126.1 719 143.94 720.55 164.52 704.99 162.34 706.25 147.45 698.75 138.29 687.08 143.07 673.25 149.69 671.7 131.17 708.25 126.1"/><polygon class="cls-18" points="527.36 45.02 755 78.36 745.27 85.92 681.2 78.73 519.62 51.02 527.36 45.02"/><polygon class="cls-29" points="519.62 51.02 527.36 61.7 744.5 96.08 741.5 85.4 519.62 51.02"/><polygon class="cls-18" points="527.36 22 755 51.33 745.27 58.9 681.2 52.71 519.62 28 527.36 22"/><polygon class="cls-29" points="519.62 28 527.36 38.68 744.5 69.05 741.5 58.38 519.62 28"/><g id="Layer_16" data-name="Layer 16"><polygon class="cls-11" points="783.52 144.01 787.52 207.51 758.79 203.51 748.28 139.51 783.52 144.01"/><polygon class="cls-19" points="787.52 207.51 808.19 197.01 804.02 131.51 780.68 147.45 787.52 207.51"/><polygon class="cls-21" points="841.95 29.86 855.46 117 797.02 149.6 781.35 84.35 792.35 44.51 841.95 29.86"/><polygon class="cls-18" points="841.95 29.86 797.02 47.01 763.69 46.17 732.5 41.51 762.86 31.01 841.95 29.86"/><polygon class="cls-27" points="797.02 47.01 783.9 82.51 751.69 80.51 720.55 73.11 732.5 41.51 797.02 47.01"/><polygon class="cls-11" points="783.9 82.51 797.02 149.6 728.02 140.51 720.55 73.11 783.9 82.51"/><polygon class="cls-14" points="765.69 169.51 761.35 176.84 771.69 180.51 775.69 171.17 765.69 169.51"/><polygon class="cls-22" points="761.35 176.84 757.79 208.84 772.35 210.66 774.05 195.84 771.69 178.51 761.35 176.84"/><polygon class="cls-30" points="775.69 171.17 781.35 206.65 772.35 210.66 771.69 178.51 775.69 171.17"/><polygon class="cls-23" points="780.68 147.45 775.69 107.26 755.77 104.76 745.27 120.01 748.89 143.26 780.68 147.45"/><polygon class="cls-24" points="763.02 140.88 775.4 142.38 775.02 138.76 762.65 137.38 763.02 140.88"/><polygon class="cls-24" points="762.02 133.63 774.4 135.13 774.02 131.51 761.65 130.13 762.02 133.63"/><polygon class="cls-24" points="761.27 125.88 773.65 127.38 773.27 123.75 760.9 122.38 761.27 125.88"/><polygon class="cls-27" points="750.85 85.01 777.69 88.76 778.27 91.76 751.52 87.84 750.85 85.01"/><polygon class="cls-16" points="826.71 70.72 838.67 111.36 855.46 117 852.98 101 826.71 70.72"/><polygon class="cls-23" points="862.22 61.92 857.72 51.42 842.21 70.42 852.98 101 857.72 87.42 862.22 61.92"/><polygon class="cls-14" points="862.22 61.92 872.72 73.42 857.72 81.92 852.22 71.42 862.22 61.92"/><polygon class="cls-22" points="872.72 73.42 852.22 71.42 857.72 87.42 872.72 73.42"/><polygon class="cls-14" points="857.72 51.42 844.1 43.75 826.71 70.72 838.7 74.21 844.22 71.42 857.72 51.42"/><polygon class="cls-30" points="826.71 70.72 840.54 99.37 852.98 101 844.22 71.42 826.71 70.72"/></g></g><g id="calendar"><polygon class="cls-31" points="296.98 52.74 298.33 132.7 313.1 139.24 359.28 126.74 354.14 74.79 296.98 52.74"/><polygon class="cls-6" points="317.37 53.33 315.48 52.27 327.47 30.98 345.13 50.55 343.53 51.99 327.88 34.66 317.37 53.33"/><polygon class="cls-32" points="301.66 43.44 299.77 53.79 304.54 53.88 301.66 43.44"/><polygon class="cls-32" points="309.94 42.99 308.5 52.44 312.28 52.53 309.94 42.99"/><polygon class="cls-32" points="317.87 42.36 316.79 51.18 320.75 51.27 317.87 42.36"/><polygon class="cls-32" points="326.87 41.73 324.62 50.37 328.94 49.92 326.87 41.73"/><polygon class="cls-32" points="334.86 40.67 333.24 49.4 338.01 49.31 334.86 40.67"/><polygon class="cls-32" points="343.66 39.86 341.5 48.5 345.82 47.87 343.66 39.86"/><polygon class="cls-32" points="351.89 38.89 350.36 47.63 353.69 47.09 351.89 38.89"/><polygon class="cls-33" points="303.28 53.88 301.66 43.44 305.08 43.26 306.43 53.61 303.28 53.88"/><polygon class="cls-33" points="311.38 52.53 309.94 42.99 313.19 42.63 314.81 52.8 311.38 52.53"/><polygon class="cls-33" points="319.58 51.27 317.87 42.36 321.56 41.73 323 51.45 319.58 51.27"/><polygon class="cls-33" points="327.5 50.19 326.87 41.73 330.38 41.1 330.92 50.46 327.5 50.19"/><polygon class="cls-33" points="336.3 49.4 334.86 40.67 338.28 40.22 339.63 49.13 336.3 49.4"/><polygon class="cls-33" points="344.2 48.05 343.66 39.86 347.62 39.32 347.08 47.6 344.2 48.05"/><polygon class="cls-33" points="352.34 47.09 351.89 38.89 355.76 38.89 355.23 47.27 352.34 47.09"/><polygon class="cls-6" points="296.98 52.74 300.94 124.39 318.23 120.25 296.98 52.74"/><polygon class="cls-34" points="296.98 52.74 305.62 127.88 332.27 121.66 296.98 52.74"/><polygon class="cls-35" points="296.98 52.74 312.46 131.57 371.17 119.16 360 45.21 296.98 52.74"/><polygon class="cls-9" points="328.17 28.5 324.08 32.28 329.61 36.57 332.27 31.65 328.17 28.5"/><polygon class="cls-36" points="320.17 92.63 330.57 75.11 333.56 104.88 329.57 106.02 328 87.79 322.74 97.47 320.17 92.63"/><polygon class="cls-36" points="337.26 75.68 335.27 92.06 343.96 91.06 344.52 102.89 348.09 102.46 348.8 81.95 343.39 82.23 342.82 87.36 339.4 87.93 340.82 75.25 337.26 75.68"/><polygon class="cls-37" points="322.26 119.45 320.64 114.8 324.63 113.24 324.76 114.46 322.26 115.13 322.33 116.35 324.22 115.88 324.22 116.89 322.6 117.23 323.21 119.25 322.26 119.45"/><polygon class="cls-37" points="325.64 113.78 325.84 118.78 329.22 118.31 329.02 117.09 326.79 117.7 326.72 116.55 328.07 116.35 328 115.27 326.65 115.74 326.52 114.39 328.61 114.05 328.41 112.57 325.64 113.78"/><path class="cls-37" d="M333.67,114.05l-1-2.16-2.77.81.75,5.13,2.9-.2.13-2.43-1.21-.2Zm-2.9-.61,1.28-.4.41.95-1.35.54Zm2,2.5-.14,1h-1.14l-.07-1Z"/><path class="cls-37" d="M337.05,114l.74-1.49-1-1.15-2.57.54.88,4.93h1l-.47-2.09.81-.07,1.76,1.89.74-.74Zm-.88-.34h-.74l-.34-1.15,1.35-.27.34.67Z"/><path class="cls-37" d="M351.16,111.42l.74-1.49-1-1.14-2.56.54.87,4.93h1l-.48-2.1.81-.07,1.76,1.9.74-.75Zm-.88-.34h-.74l-.34-1.15,1.35-.27.34.68Z"/><polygon class="cls-37" points="338.74 111.55 339.62 115.94 342.92 115.74 342.72 110.2 341.57 110.74 341.91 114.46 340.43 114.8 339.55 111.35 338.74 111.55"/><path class="cls-37" d="M345,109.46l-1,5.94,1-.13.2-1.42,1.21-.07.95,1.29,1.22-.48Zm.27,3.24.2-1.35.81,1.35Z"/><polygon class="cls-37" points="352.71 108.31 355.08 110.54 356.36 107.77 357.51 107.98 354.54 116.01 353.39 115.2 354.87 111.89 352.17 108.79 352.71 108.31"/><polygon class="cls-37" points="308.06 71.58 309.68 62.4 318.15 64.02 320.58 57.27 330.57 61.68 324.63 77.89 308.06 71.58"/><polygon class="cls-38" points="311.84 66.54 319.59 67.26 322.65 61.68 326.43 63.66 322.83 74.11 311.3 70.14 311.84 66.54"/><polygon class="cls-37" points="344.79 64.02 350.37 61.5 352.71 65.64 357.21 63.66 359.74 68.88 349.11 74.65 344.79 64.02"/><polygon class="cls-38" points="349.47 65.1 351.99 68.34 355.77 66.72 356.86 68.7 350.19 72.31 347.49 65.1 349.47 65.1"/><polygon class="cls-37" points="309.68 87.61 314 85.27 318.51 100.57 315.99 101.83 309.68 87.61"/><polygon class="cls-37" points="317.06 105.43 319.05 103.63 321.03 106.87 317.43 108.49 317.06 105.43"/><polygon class="cls-37" points="355.95 84.55 360.28 85.81 357.04 95.17 355.05 94.27 355.95 84.55"/><polygon class="cls-37" points="353.97 98.05 356.86 98.05 356.31 101.83 353.43 100.75 353.97 98.05"/><polygon class="cls-8" points="323.63 140.93 349.28 132.02 352.79 167.13 324.44 172.26 323.63 140.93"/><polygon class="cls-5" points="328.49 145.25 345.5 140.93 346.58 162.27 330.38 164.7 328.49 145.25"/><polygon class="cls-34" points="325.92 142.15 327.95 143.23 325.79 144.98 324.71 142.82 325.92 142.15"/><polygon class="cls-34" points="344.56 136.88 346.85 135.26 348.07 137.83 345.64 139.18 344.56 136.88"/><polygon class="cls-34" points="328.35 166.18 330.38 168.07 328.08 169.69 326.06 167.94 328.35 166.18"/><polygon class="cls-31" points="329.68 157.5 339.18 163.45 352.05 188.45 356.67 177.55 343.79 159.63 335.58 152.82 329.07 151.21 329.68 157.5"/><polygon class="cls-32" points="330.78 144.67 341.92 152.14 339.83 154.94 337.36 155.92 329.07 151.21 328.49 145.25 330.78 144.67"/><polygon class="cls-33" points="337.36 155.92 353.69 179.71 359.28 174.26 341.92 152.14 337.36 155.92"/><polygon class="cls-36" points="353.69 179.71 360.72 176.59 364.32 152.14 362.52 148.5 359.28 146.25 353.69 179.71"/><polygon class="cls-33" points="364.32 152.14 384.66 144.98 381.42 140.93 376.92 140.26 359.28 146.25 364.32 152.14"/><polygon class="cls-36" points="376.92 140.26 384.66 137.22 393.57 136.34 384.66 144.98 376.92 140.26"/><polygon class="cls-37" points="376.92 140.26 377.91 132.7 384.66 126.89 395.87 122.03 393.57 136.34 376.92 140.26"/><polygon class="cls-9" points="381.42 110.82 367.86 97.24 362.92 100.06 375.21 117.03 381.42 110.82"/><polygon class="cls-37" points="363.49 120.79 367.38 132.7 376.92 129.19 363.49 120.79"/><polygon class="cls-38" points="395.87 122.03 381.42 110.82 363.49 120.79 377.91 132.7 395.87 122.03"/></g><g id="iron_man" data-name="iron man"><polygon class="cls-18" points="589.77 263.74 628.4 251.38 682.85 259.4 639.57 287.9 578.02 278.51 577 267.87 589.77 263.74"/><polygon class="cls-19" points="682.85 259.4 679.54 278.51 639.57 298.07 637.36 290.93 639.57 285.69 682.85 259.4"/><polygon class="cls-21" points="639.57 285.69 578.02 278.51 575.55 288.57 639.57 298.07 639.57 285.69"/><polygon class="cls-1" points="663.21 256.51 669.53 266.72 629.92 278.74 578.48 267.57 628.4 251.38 663.21 256.51"/><polygon class="cls-27" points="665.21 93.27 639.57 82.24 661.35 76.72 677.89 90.14 665.21 93.27"/><polygon class="cls-39" points="612.14 223.59 614.49 264.04 631.02 266.72 635.43 227.4 612.14 223.59"/><polygon class="cls-19" points="631.02 266.72 641.84 263.25 644.57 235.1 637.79 223.7 634.33 228.5 631.02 266.72"/><polygon class="cls-19" points="665.21 92.16 677.89 90.14 681.2 141.97 669.53 184.21 663.55 228.94 644.57 235.1 658.12 138.29 665.21 92.16"/><polygon class="cls-21" points="651.98 86.44 665.21 92.16 667.23 121.94 653.73 180.11 650.22 209.7 644.57 235.1 600.2 226.29 581.1 163.64 574.54 107.48 577 82.24 651.98 86.44"/><polygon class="cls-2" points="665.21 92.16 653.73 106.22 661.04 128.09 650.22 187.55 650.22 209.7 639.85 225.19 599.11 222.71 591.6 199.96 599.87 111.53 639.57 82.24 651.98 86.44 665.21 92.16"/><polygon class="cls-40" points="628.82 208.32 628.34 212.05 615.58 213.28 598.12 205.74 597.2 195.27 628.82 208.32"/><polygon class="cls-22" points="623.16 198.35 619.3 212.92 615.58 213.28 613.1 203.54 623.16 198.35"/><polygon class="cls-30" points="591.6 199.96 592.29 213.28 596.24 213.28 598.85 197.9 591.6 199.96"/><polygon class="cls-28" points="595.22 193.06 596.75 210.23 603.38 212.05 603.84 196.52 595.22 193.06"/><polygon class="cls-15" points="604.25 202.06 608.19 221.37 602.81 223.7 600.2 226.29 605.38 237.09 601.8 239.01 595.22 224.7 600.79 221.28 603.38 218.61 598.85 199.18 604.25 202.06"/><polygon class="cls-15" points="614.07 198.9 626.13 231.23 621.83 233.95 621.47 231.23 608.18 198.35 614.07 198.9"/><polygon class="cls-12" points="608.19 221.37 603.38 218.61 595.22 224.7 600.2 226.29 608.19 221.37"/><polygon class="cls-10" points="621.47 231.23 626.13 231.23 617.61 246.21 614.49 243.82 621.47 231.23"/><polygon class="cls-28" points="634.33 215.39 650.22 209.7 658.12 172.94 647.15 180.11 634.33 215.39"/><polygon class="cls-14" points="563.65 154.38 556.33 152.63 553.99 130.94 574.54 107.48 585.47 121.94 563.65 154.38"/><polygon class="cls-23" points="563.21 153 559.51 150.06 560.74 133.15 553.99 130.94 546.53 161.08 570.83 167.7 563.21 153"/><polygon class="cls-30" points="574.54 129.93 574.54 107.48 587.67 120.09 582.24 126.37 574.54 129.93"/><polygon class="cls-15" points="643.15 113.11 665.21 131.59 641.84 195.02 612.23 201.61 590.7 197.06 574.54 188.73 563.21 153 597.94 110.08 643.15 113.11"/><polygon class="cls-12" points="641.84 195.02 620.44 188.33 586.21 184.21 574.54 188.73 580.85 206.02 591.6 199.96 601.8 197.06 613.1 203.54 634.33 215.39 641.84 195.02"/><polygon class="cls-22" points="635.43 124.69 651.98 137.1 653.73 162.74 624.4 180.11 619.24 182.04 620.44 188.33 613.1 203.54 591.6 199.96 586.21 184.21 588.57 180.11 582.36 172.94 563.21 153 574.54 129.93 589.88 121.19 598.85 115.05 635.43 124.69"/><polygon class="cls-30" points="624.4 180.11 604.25 159.98 582.36 172.94 601.8 180.11 624.4 180.11"/><polygon class="cls-23" points="651.98 137.1 606.95 135.35 574.54 129.93 587.67 120.09 612.23 113.09 635.43 123.59 651.98 137.1"/><polygon class="cls-15" points="651.98 38.68 638.19 61.29 631.02 109.25 600.7 125.8 582.36 102.49 577 82.24 604.56 35.92 621.1 29.86 651.98 38.68"/><polygon class="cls-12" points="651.98 38.68 658.12 63.6 658.12 76.59 646.46 92.16 643.15 113.11 635.43 123.59 631.02 109.25 633.67 88.29 634.88 61.29 643.56 51.45 651.98 38.68"/><polygon class="cls-28" points="635.43 123.59 631.58 104.82 626.13 108.54 602.9 116.15 593.19 120.09 606.95 135.35 635.43 123.59"/><polygon class="cls-22" points="658.12 63.61 661.35 76.72 651.98 86.44 647.84 74.79 658.12 63.61"/><polygon class="cls-14" points="643.56 51.45 627.16 40.88 622.02 51.45 603.27 48.6 604.56 35.92 578.84 54.76 613.16 60.81 637.09 61.29 643.56 51.45"/><polygon class="cls-22" points="620.82 99.06 626.13 108.54 612.23 118.02 604 112.2 592.61 110.36 585.47 114.22 582.36 102.49 588.38 96.94 614.49 100.62 620.82 99.06"/><polygon class="cls-23" points="578.84 54.76 577 82.24 588.5 104.82 592.98 100.06 610.1 102.36 614.3 109.14 633.67 88.29 637.09 61.29 578.84 54.76"/><polygon class="cls-30" points="612.23 118.02 606.21 111.09 591.5 109.25 585.47 114.22 587.67 120.09 606.76 121.94 612.23 118.02"/><polygon class="cls-24" points="612.41 73.97 626.2 72.04 626.34 75.21 612.14 78.79 612.41 73.97"/><polygon class="cls-24" points="596.84 72.04 596.01 76.59 584.57 71.07 585.12 67.76 596.84 72.04"/><polygon class="cls-14" points="642.33 74.79 650.04 61.56 658.12 63.61 650.04 74.79 646.46 77 642.33 74.79"/><polygon class="cls-30" points="650.04 74.79 642.33 74.79 646.46 92.16 651.98 86.44 650.04 74.79"/><polygon class="cls-23" points="620.44 188.33 600.97 192.79 586.21 184.21 582.36 172.94 624.4 180.11 620.44 188.33"/><polygon class="cls-14" points="667.23 121.94 687.08 143.07 667.23 167.7 651.98 163.78 651.98 137.1 667.23 121.94"/><polygon class="cls-23" points="687.08 143.07 690.02 176.89 669.53 184.21 647.15 180.11 651.98 163.78 663 161.08 673.85 144.82 687.08 143.07"/><polygon class="cls-30" points="604.25 159.98 617.61 149.69 607.04 138.29 593.16 146.56 604.25 159.98"/><polygon class="cls-23" points="593.16 146.56 617.61 149.69 606.95 135.35 593.16 146.56"/><polygon class="cls-24" points="599.87 147.51 605.82 142.94 610.48 148.72 604.85 152.76 599.87 147.51"/></g><g id="arm"><polygon class="cls-22" points="783.7 285.38 774.78 284.11 774.78 287.73 785.25 290.12 783.7 285.38"/><polygon class="cls-30" points="785.25 290.86 776.12 290.86 776.95 293.44 785.25 294.06 785.25 290.86"/><polygon class="cls-15" points="781.65 298.72 795.87 301.06 799.25 290.12 797.41 276.94 785.75 275.04 781.65 298.72"/><polygon class="cls-12" points="797.41 276.94 795.87 301.06 813.17 303.89 811.02 279.15 797.41 276.94"/><polygon class="cls-10" points="811.02 279.15 795.87 301.06 801.73 310.84 811.02 317.64 823.13 310.84 825.27 291.74 811.02 279.15"/><polygon class="cls-22" points="811.02 279.15 823.13 310.84 830.34 306.71 830.34 290.91 811.02 279.15"/><polygon class="cls-12" points="795.87 301.06 811.02 317.64 795.87 326.45 790.45 320.7 787.79 312.75 795.87 301.06"/><polygon class="cls-22" points="787.79 312.75 761.01 312.39 769.24 321.96 783.7 331.54 795.87 326.45 787.79 312.75"/><polygon class="cls-14" points="761.01 312.39 744.71 329.81 756.05 336.54 783.7 331.54 761.01 312.39"/></g><g id="paper"><polygon class="cls-23" points="465.3 315.55 495.94 350 548 336.54 513.5 306.1 465.3 315.55"/><polygon class="cls-14" points="480.29 317.64 518.25 341 565.21 323 521.75 306.05 480.29 317.64"/><line class="cls-41" x1="548" y1="321.96" x2="519.62" y2="332.75"/><line class="cls-41" x1="540.48" y1="319.5" x2="513.5" y2="329.5"/><line class="cls-41" x1="532.25" y1="317" x2="515.13" y2="323"/><polygon class="cls-1" points="471.45 314.34 479 324.57 518.5 324.5 544.42 314.89 521.75 306.05 476.96 313.26 471.45 314.34"/></g><g id="lover"><polygon class="cls-42" points="179.15 222.82 175.3 233.92 186.39 232.25 179.15 222.82"/><polygon class="cls-43" points="173.78 220.66 186.39 232.25 188.36 220.66 182.43 212.17 173.78 220.66"/><polygon class="cls-32" points="166.34 159.81 145.23 196.16 178.95 194.92 173.02 175.3 166.34 159.81"/><polygon class="cls-33" points="145.23 196.16 173.78 220.66 179.15 218.13 182.43 213.38 176.52 193.71 145.23 196.16"/><polygon class="cls-36" points="247.14 213.97 234.99 207.18 251.33 195.85 247.14 213.97"/><polygon class="cls-32" points="229.82 141.2 247.14 164.87 230.81 168.29 229.82 141.2"/><polygon class="cls-44" points="271.39 216.61 279.86 222.04 278.47 224.1 270.58 218.23 271.39 216.61"/><polygon class="cls-44" points="269.67 218.78 276.25 226.78 273.51 229.36 268.45 220.35 269.67 218.78"/><polygon class="cls-37" points="270.07 217.16 279.95 224.94 277.06 228.45 268.45 218.23 270.07 217.16"/><polygon class="cls-45" points="247.14 205.4 247.14 213.97 256.05 212.76 247.14 205.4"/><polygon class="cls-32" points="191.71 286.49 191.71 299.23 214.49 305.71 224.51 299.02 214.84 286.49 203.59 285 191.71 286.49"/><polygon class="cls-36" points="191.71 299.23 191.71 304.88 214.69 311.17 224.51 306.1 224.51 299.02 214.49 304.49 191.71 299.23"/><polygon class="cls-32" points="244.71 271.17 263.39 286.35 244.71 287.71 229.06 286.22 228.6 277.49 236.52 273.17 244.71 271.17"/><polygon class="cls-36" points="263.39 286.35 263.39 292.09 229.06 291.74 229.06 286.22 263.39 286.35"/><polygon class="cls-37" points="244.71 214.78 244.71 261.87 236.35 271 224.51 270.77 212.28 250.69 224.51 235.7 244.71 214.78"/><polygon class="cls-44" points="228.6 277.49 244.71 271.17 244.71 261.87 224.51 270.77 228.6 277.49"/><polygon class="cls-44" points="244.71 214.78 224.51 238.13 199.79 221.87 244.71 214.78"/><polygon class="cls-9" points="205.16 222.85 224.51 238.13 216.37 278.83 202.22 281.9 190.82 277.49 185.85 226.78 196.87 222.04 205.16 222.85"/><polygon class="cls-38" points="186.84 145.68 169.23 161.78 182.43 213.38 185.85 226.78 244.71 214.78 243.31 207.87 232.25 171.35 228.6 144.16 200.97 140.04 186.84 145.68"/><polygon class="cls-37" points="186.84 145.68 184.87 157.68 208.71 164.67 219.58 145.68 211.26 140.46 186.84 145.68"/><polygon class="cls-36" points="203.29 168.48 212.28 216.61 182.43 213.38 166.34 159.81 186.84 145.68 187.75 155.81 203.29 168.48"/><polygon class="cls-36" points="211.26 140.46 218.89 150.09 218.22 163.74 224.51 211.75 243.31 207.87 229.82 141.2 211.26 140.46"/><polygon class="cls-9" points="191.71 162.53 195.11 185.75 188.49 190.18 179.15 186.55 176.52 158.44 191.71 162.53"/><polygon class="cls-37" points="179.15 186.55 182.43 186.38 184.14 187.35 185.85 186.21 189.31 186.04 190.79 186.54 192.61 185.87 195.11 185.75 196.26 193.21 193.39 193.39 191.35 192.92 189.91 193.61 185.85 193.86 184.41 193.22 183.04 194.04 179.86 194.24 179.15 186.55"/><polygon class="cls-44" points="182.43 186.38 183.04 194.04 185.85 193.86 185.85 186.21 182.43 186.38"/><polygon class="cls-44" points="189.91 193.61 189.31 186.04 192.61 185.87 193.39 193.39 189.91 193.61"/><polygon class="cls-33" points="183.72 139.24 176.52 158.44 203.29 168.48 202.22 162.77 188.97 155.81 186.84 145.68 183.72 139.24"/><polygon class="cls-33" points="212.81 134.36 224.51 149.48 218.22 163.74 216.55 150.98 211.26 140.46 212.81 134.36"/><polygon class="cls-43" points="241.97 71.72 246.89 125.41 217.07 130.19 204.61 148.57 186.84 143.25 166.34 111.36 180.01 97.39 181.83 79.16 241.97 71.72"/><polygon class="cls-42" points="190.86 78.05 201.2 132.66 217.07 130.19 208.71 139 204.61 152.21 186.84 145.68 166.34 111.36 178.79 97.39 180.62 77.95 190.86 78.05"/><polygon class="cls-42" points="236.35 87.52 224.51 109.19 208.71 91.16 236.35 87.52"/><polygon class="cls-46" points="222.53 89.34 224.51 109.19 229.82 108.48 227.75 88.65 222.53 89.34"/><polygon class="cls-45" points="217.07 130.19 191.71 134.14 204.61 152.21 217.07 130.19"/><polygon class="cls-45" points="173.78 123.82 181.07 120.63 177.59 130.19 173.78 123.82"/><polygon class="cls-45" points="178.34 117.59 175.76 111.97 170.75 113.64 178.34 117.59"/><polygon class="cls-7" points="239.59 69.73 192.02 84.25 177.43 75.67 189.66 56.25 244.71 61.5 239.59 69.73"/><polygon class="cls-47" points="244.71 61.5 192.02 84.25 241.97 71.72 244.71 61.5"/><polygon class="cls-5" points="183.67 79.65 185.85 93.63 183.35 107.69 174.9 102.62 167.71 103.41 154.34 90.45 166.01 79.65 183.67 79.65"/><polygon class="cls-47" points="185.85 93.63 188.97 110.14 182.09 114.78 177.43 106.05 166.34 111.36 154.34 90.45 185.85 93.63"/><polygon class="cls-47" points="192.02 84.25 189.66 56.25 165.4 80.26 192.02 84.25"/><polygon class="cls-47" points="208.71 91.16 222.53 89.34 223.07 94.72 208.71 91.16"/><polygon class="cls-47" points="227.75 88.65 236.35 87.52 228.29 93.8 227.75 88.65"/><polygon class="cls-47" points="224.51 109.19 216.31 118.8 235.75 114.78 229.82 108.48 224.51 109.19"/><polygon class="cls-47" points="221.17 126.74 224.41 133.59 236.01 131.57 236.35 124.39 221.17 126.74"/><polygon class="cls-48" points="224.51 109.19 227.75 111.97 229.82 108.48 224.51 109.19"/><ellipse class="cls-48" cx="217.3" cy="99.73" rx="2.28" ry="2.26"/><ellipse class="cls-48" cx="233.47" cy="97.47" rx="2.28" ry="2.26"/><polygon class="cls-44" points="214.84 286.49 216.37 278.83 190.82 277.49 191.71 286.49 214.84 286.49"/><polygon class="cls-32" points="212.66 200.05 243.31 207.87 251.74 202.43 243.31 183.82 225.34 190.71 212.66 200.05"/><polygon class="cls-33" points="248.96 152.67 258.02 197.37 251.74 202.43 242.73 187 243.52 173.48 248.96 152.67"/><polygon class="cls-49" points="212.66 200.05 217.3 185.87 222.84 171.06 233.93 158.9 241.21 155.86 248.96 152.67 244.49 177.3 241.82 185.87 234.19 190.7 212.66 200.05"/><polygon class="cls-44" points="225.27 164.67 227.28 156.26 218.03 162.25 219.06 170.15 225.27 164.67"/><polygon class="cls-38" points="222.84 163.45 220.29 159.05 218.03 162.25 222.84 163.45"/><polygon class="cls-37" points="219.06 170.15 232.9 173.48 227.28 156.26 224.36 164.52 219.06 170.15"/><polygon class="cls-44" points="227.17 172.1 230.7 159.81 241.21 155.86 238.78 167.4 227.17 172.1"/><polygon class="cls-38" points="234.99 163.01 232.87 156.26 229.22 159.81 234.99 163.01"/><polygon class="cls-37" points="227.17 172.1 243.52 182.66 244.49 177.3 241.21 155.86 237.57 166.19 227.17 172.1"/><polygon class="cls-44" points="217.3 185.87 216.31 176.97 228.6 173.48 227.28 182.44 217.3 185.87"/><polygon class="cls-9" points="221.17 179.67 217.3 174.31 215.01 178.64 221.17 179.67"/><polygon class="cls-37" points="228.6 173.48 239.38 188.45 234.19 190.71 217.3 185.87 226.18 181.68 228.6 173.48"/><polygon class="cls-44" points="228.68 185.63 228.38 172.72 239.77 170.89 237.42 181.75 228.68 185.63"/><polygon class="cls-38" points="233.32 176.36 230.81 168.29 225.34 173.26 233.32 176.36"/><polygon class="cls-9" points="228.68 185.63 239.38 188.45 242.73 187 243.52 182.66 239.77 170.89 236.73 180.84 228.68 185.63"/><polygon class="cls-32" points="267.15 207.87 278.47 211.75 265.11 226.46 261.64 219.33 267.15 207.87"/><polygon class="cls-43" points="258.02 197.37 267.15 207.87 266.89 213.97 256.05 207.18 251.33 201.73 258.02 197.37"/><polygon class="cls-42" points="251.33 201.73 266.89 213.97 261.64 219.33 247.14 205.4 251.33 201.73"/></g><g id="intp_copy" data-name="intp copy"><polygon class="cls-12" points="440.06 246.46 430.6 242.72 422.6 260.04 425.08 266.72 437.79 258.13 440.06 246.46"/><polygon class="cls-15" points="440.06 246.46 426.98 239.79 423.71 243.12 439.33 253.05 440.06 246.46"/><polygon class="cls-50" points="435.56 261.49 417.37 252.63 416 260.78 417.37 267.69 435.56 261.49"/><polygon class="cls-12" points="417.37 252.63 409.64 251.38 405.14 266.72 417.37 267.69 417.37 252.63"/><polygon class="cls-28" points="405.14 266.72 413.05 275.11 417.37 267.69 417.37 260.04 405.14 266.72"/><polygon class="cls-15" points="417.37 252.63 406.06 246.21 403.31 250.64 417.37 260.04 417.37 252.63"/><polygon class="cls-18" points="426.98 293.78 405.14 276.87 440.06 250.64 426.98 293.78"/><polygon class="cls-51" points="589.77 263.74 574.54 253.07 577.13 269.91 589.77 263.74"/><polygon class="cls-20" points="530.92 279.09 553.9 303.98 566.55 295.07 546.46 265.49 530.92 279.09"/><polygon class="cls-27" points="553.9 303.98 564.22 275.11 571.68 275.11 578.02 278.51 572.02 302.87 553.9 303.98"/><polygon class="cls-52" points="564.22 275.11 572.21 268.8 578.48 267.36 589.77 263.74 578.02 278.51 564.22 275.11"/><polygon class="cls-20" points="473.36 278.71 451.27 289.84 426.98 293.78 436.66 226.29 473.36 278.71"/><polygon class="cls-28" points="456.69 255.92 451.27 289.84 476.82 285.69 456.69 255.92"/><polygon class="cls-18" points="530.92 279.09 521.76 300.89 515.74 298.93 505.82 302.74 476.91 306.1 436.66 226.29 484.08 205.74 526.23 258.13 530.92 279.09"/><polygon class="cls-12" points="515.74 270.92 520.65 288.76 521.76 300.89 508.3 303.98 495.16 303.98 495.91 289.84 501.41 261.07 515.74 270.92"/><polygon class="cls-15" points="510.13 271.57 495.94 289.84 497.37 259.4 519.62 277.56 520.65 288.76 510.13 271.57"/><polygon class="cls-53" points="497.96 253.05 488.58 273.2 495.16 303.98 497.96 253.05"/><polygon class="cls-22" points="469.35 271.57 455.63 263.9 465.14 256.51 471.31 263.9 469.35 271.57"/><polygon class="cls-40" points="485.79 256.23 469.35 271.57 460.93 241.44 478.57 248.78 485.79 256.23"/><polygon class="cls-22" points="499.74 212.05 478.46 226.7 460.93 241.44 502.93 254.61 499.74 212.05"/><polygon class="cls-28" points="460.93 241.44 492.46 235.1 499.64 263.25 485.79 256.23 460.93 241.44"/><polygon class="cls-23" points="499.74 212.05 460.93 241.44 484.08 205.74 499.74 212.05"/><polygon class="cls-50" points="559.51 211.05 563.85 214.3 578.48 267.36 554.7 275.57 540.62 280.4 514.1 271.57 498.62 257.7 501.99 213.38 540.94 199.18 559.51 211.05"/><polygon class="cls-52" points="519.62 277.56 540.62 280.4 524.32 229.39 517.23 222.35 498.62 257.7 510.13 271.57 519.62 277.56"/><polygon class="cls-23" points="517.23 222.35 540.48 215.99 554.99 209.76 541.69 197.06 499.74 212.05 507.21 221.27 517.23 222.35"/><polygon class="cls-54" points="510.13 271.57 514.21 266.72 515.74 275.11 510.13 271.57"/><polygon class="cls-50" points="510.13 271.57 516.72 263.73 504.08 246.21 498.62 257.7 510.13 271.57"/><polygon class="cls-54" points="505.21 253.07 509.61 258.12 502.03 257.12 505.21 253.07"/><polygon class="cls-24" points="519.85 267.4 516.94 269.91 511.62 263.71 514.69 261.07 519.85 267.4"/><polygon class="cls-51" points="561.43 250.64 553.99 252.72 547.15 231.01 554.59 228.94 561.43 250.64"/><polygon class="cls-55" points="561.43 250.64 559 254.61 553.99 252.72 561.43 250.64"/><polygon class="cls-56" points="530.74 233.98 534.51 233.18 540.55 226.29 535.02 228.32 530.74 233.98"/><polygon class="cls-56" points="566.22 223.56 562.54 224.7 553.9 221.64 559.72 220.72 566.22 223.56"/><polygon class="cls-49" points="551.73 266.01 560.16 262.03 565.33 259.43 559.92 258.13 558.59 259.86 555.71 259.78 551.73 266.01"/><polygon class="cls-32" points="551.73 266.01 561.28 265.16 565.33 259.43 551.73 266.01"/><polygon class="cls-57" points="568.98 241.18 560.11 246.46 559.47 244.2 568.98 241.18"/><polygon class="cls-57" points="532.79 251.28 553.02 249.63 551.9 246.28 532.79 251.28"/><polygon class="cls-57" points="530.92 239.03 546.46 240.09 545.24 234.09 530.92 239.03"/><polygon class="cls-57" points="565.15 229.47 560.36 235.98 556.33 230.41 565.15 229.47"/><polygon class="cls-22" points="541.69 197.06 540.48 215.99 559.51 211.05 541.69 197.06"/><polygon class="cls-30" points="504.14 247.22 514.69 261.07 520.07 254.29 509.01 237.97 517.23 222.35 499.74 212.05 485.79 256.23 498.62 257.7 504.14 247.22"/><polygon class="cls-40" points="485.79 256.23 510.13 271.57 498.62 257.7 485.79 256.23"/><path class="cls-48" d="M566.18,231.88a1.59,1.59,0,1,1-1.95-1.36A1.68,1.68,0,0,1,566.18,231.88Z"/><path class="cls-48" d="M543,238.12a1.59,1.59,0,1,1-1.95-1.36A1.69,1.69,0,0,1,543,238.12Z"/><path class="cls-49" d="M559.47,244.2,578.15,239,573.4,223.7l-46.73,13-27.09,8.43,1.64,7.6,2.92-5.56L529,244l2.55,8,20.36-5.72-3.75-12.06,7.45-2.11Zm-25.72,3.7L530.92,239l14-3.91,2.76,8.86Zm40.17-11.23-12.24,3.42-2.84-8.86,12.33-3.43Z"/><polygon class="cls-53" points="495.16 303.98 521.76 300.89 524.44 307.01 524.44 312.51 498.62 320.15 493.27 309.13 495.16 303.98"/><polygon class="cls-27" points="488.58 273.2 498.62 320.15 479.03 324.57 469.35 271.57 488.58 273.2"/><polygon class="cls-51" points="521.76 300.89 533.98 294.7 538.86 303.61 538.86 309.04 524.44 312.51 521.76 300.89"/><polygon class="cls-52" points="533.98 294.7 544.95 300.58 548.73 306.1 538.86 309.04 533.98 294.7"/><polygon class="cls-1" points="530.92 279.09 521.76 300.89 519.62 277.56 530.92 279.09"/></g><g id="things"><polygon class="cls-15" points="594.53 286.73 658.12 294.7 627.25 314.52 553.99 303.98 594.53 286.73"/><polygon class="cls-53" points="553.99 303.98 553.9 313.49 627.25 323 629.92 317.64 627.25 312.51 553.99 303.98"/><polygon class="cls-29" points="627.25 323 656.75 306.1 658.12 294.7 627.25 312.51 627.25 323"/><polygon class="cls-30" points="595.94 297.73 610.02 294.73 616.55 299.84 601.68 302.62 595.94 297.73"/><polygon class="cls-23" points="601.45 298.39 608.44 296.99 611.37 298.67 603.18 300.32 601.45 298.39"/><line class="cls-58" x1="640.83" y1="298.07" x2="624.67" y2="306.92"/><line class="cls-58" x1="633.34" y1="297.2" x2="617.17" y2="306.05"/><polygon class="cls-59" points="403.24 312.96 395.27 310.3 387.2 312.96 391.38 318.36 400.19 317.54 403.24 312.96"/><polygon class="cls-60" points="398.69 312.96 394.81 312.31 391.38 314.74 397.18 314.74 398.69 312.96"/><polygon class="cls-60" points="387.2 312.96 387.2 317.54 391.38 320.62 396.74 319.8 400.05 320.62 403.55 318.28 403.24 312.96 400.19 316.72 391.38 317.54 387.2 312.96"/><polygon class="cls-61" points="391.38 317.54 391.38 320.62 400.05 320.62 400.19 316.72 391.38 317.54"/><polygon class="cls-33" points="301.75 314.74 329.75 294.73 360.25 298.66 335.5 323 301.75 314.74"/><polygon class="cls-35" points="301.75 314.74 301.75 320.62 335.75 327.73 337.75 323 335.5 320 301.75 314.74"/><polygon class="cls-29" points="335.75 327.73 360.25 307.36 360.25 298.66 335.5 320 335.75 327.73"/><line class="cls-13" x1="330.67" y1="300.5" x2="347.67" y2="302.83"/><line class="cls-13" x1="326.66" y1="303.5" x2="343.66" y2="305.84"/><polygon class="cls-37" points="441.33 330.17 442.83 334.83 443.33 336.83 442 337.83 437 340.5 433.67 335.33 441.33 330.17"/><polygon class="cls-33" points="415.67 325.67 441.33 330.17 435.67 335.33 425.5 334.83 411.33 330.17 415.67 325.67"/><polygon class="cls-36" points="411.33 330.17 413.33 335.33 437 340.5 435.67 335.33 411.33 330.17"/><polygon class="cls-38" points="442.83 334.83 456.83 338 458.83 338.5 461.67 335.67 468 340 467.17 342.83 459.17 345.33 458 342.17 455.67 340.67 442 337.83 442.83 334.83"/><polygon class="cls-9" points="461.67 335.67 459.17 345.33 455.67 340.67 456.83 338 461.67 335.67"/><polygon class="cls-36" points="69.56 328.19 78.58 321.25 72.83 318.5 68.14 321.25 69.56 328.19"/><ellipse class="cls-33" cx="67.87" cy="325.06" rx="2.96" ry="3.81"/><path class="cls-36" d="M90.71,332l9.89-7.76a5.06,5.06,0,0,0,2-3c.72-2.69-2.75-3.29-2.75-3.29l-10.67,7.29Z"/><ellipse class="cls-33" cx="88.75" cy="329.06" rx="3.09" ry="3.81"/><polygon class="cls-38" points="62.58 308.12 79.08 298.87 99.83 304.37 86.83 313.87 62.58 308.12"/><polygon class="cls-9" points="99.83 304.37 106.33 316.96 93 327.29 86.83 313.87 99.83 304.37"/><polygon class="cls-37" points="86.83 313.87 93 327.29 63 320.62 62.58 308.12 86.83 313.87"/><polygon class="cls-38" points="66.16 313.21 69.41 314.12 69.58 317.96 66.41 317.12 66.16 313.21"/><line class="cls-41" x1="91.33" y1="315.12" x2="98.83" y2="309.46"/><line class="cls-41" x1="93.02" y1="318.44" x2="100.52" y2="312.77"/><rect class="cls-36" x="79.95" y="293.25" width="2" height="12.13"/><polygon class="cls-37" points="81.95 295.31 78.58 293.25 81.95 289.25 84.08 292.81 81.95 295.31"/><polygon class="cls-35" points="87.41 292.28 91.85 291.71 91.33 293.25 87.41 292.28"/><polygon class="cls-35" points="85.66 288.54 89.63 284.71 90.66 286.62 85.66 288.54"/><polygon class="cls-35" points="81.95 286.62 82.75 280.96 80.95 280.96 81.95 286.62"/><polygon class="cls-35" points="78.58 288.87 75.16 284.71 74.08 286.21 78.58 288.87"/><polygon class="cls-35" points="76.33 291.71 71.5 290.46 71.5 292.28 76.33 291.71"/><polygon class="cls-59" points="378.44 325.58 367.19 321.38 354.5 325.58 364.94 334.07 374.93 332.78 378.44 325.58"/><polygon class="cls-60" points="372.58 325.58 366.47 324.56 363.1 327.4 369.13 330.5 372.58 325.58"/><polygon class="cls-60" points="354.5 325.58 354.5 332.78 364.94 337.62 369.5 336.33 374.71 337.62 380.21 333.94 378.44 325.58 374.93 331.49 364.94 332.78 354.5 325.58"/><polygon class="cls-61" points="364.94 332.78 364.94 337.62 374.71 337.62 374.93 331.49 364.94 332.78"/></g><g id="screen"><polygon class="cls-31" points="29.56 113.74 35.29 126.74 85.24 118.01 85.24 109.4 29.56 113.74"/><polygon class="cls-29" points="26.98 58.66 84.32 54.08 89.77 109.98 33.57 118.01 26.98 58.66"/><polygon class="cls-24" points="35.29 65.83 78.3 61.24 82.03 97.36 39.3 103.38 35.29 65.83"/><polygon class="cls-22" points="82.46 101.89 76.22 102.64 76.55 105.86 82.78 105 82.46 101.89"/><polygon class="cls-22" points="73.75 106.4 73.43 103.28 67.41 104.03 67.84 107.26 73.75 106.4"/><polygon class="cls-15" points="64.72 107.65 64.39 104.53 58.37 105.28 58.8 108.51 64.72 107.65"/><polygon class="cls-18" points="84.32 54.08 81.13 51.71 24.69 57.16 26.12 59.09 27.84 59.52 84.32 54.08"/><polygon class="cls-21" points="24.69 57.16 29.56 113.74 33.57 118.01 27.84 59.52 24.69 57.16"/><g id="logo_copy_2" data-name="logo copy 2"><polygon class="cls-32" points="69.78 77.65 64.81 73.28 60 71.01 54.72 73.18 53.41 75.55 48.76 79.5 50.88 81.61 51.91 82.39 57.3 81.21 59.63 84.3 67.67 82.44 69.78 77.65"/><polygon class="cls-36" points="58.43 73.54 59.14 77.32 58.87 80.61 57.3 81.21 59.4 84 61.06 84.54 64.72 82.64 66.4 77.78 61.18 73.25 58.43 73.54"/><polygon class="cls-44" points="69.98 85.32 75.03 82.5 71.68 81.35 71.25 78.13 68.33 80.26 69.98 85.32"/><polygon class="cls-9" points="70.44 79.69 70.8 82 72.51 82.93 70.45 83.98 68.39 80.81 70.44 79.69"/><polygon class="cls-44" points="48.82 87.56 43.29 85.87 46.33 84.05 45.94 80.75 49.37 82.27 48.82 87.56"/><polygon class="cls-9" points="47.44 82.5 47.32 84.49 45.84 85.77 48.08 86.36 49.43 82.83 47.44 82.5"/><polygon class="cls-36" points="50.03 80.76 50.55 79.08 50.21 78.27 48.76 79.5 50.03 80.76"/><polygon class="cls-49" points="50.97 81.68 53.53 80.94 55.98 79.34 58.51 79.52 57.72 79.94 55.53 80.31 53.64 81.43 50.97 81.68"/><polygon class="cls-49" points="54.46 75.49 57.33 74.24 55.61 76.32 54.46 75.49"/><circle class="cls-35" cx="55.71" cy="75.52" r="0.3" transform="translate(-7.67 6.31) rotate(-6.07)"/><polygon class="cls-35" points="54.63 80.22 55.13 80.55 55.25 79.82 55.53 80.31 55.98 79.34 56.21 80.19 56.75 79.39 57.2 80.03 57.53 79.45 55.98 79.34 54.63 80.22"/><path class="cls-9" d="M60.38,96.38,44.16,79.13,49.23,69l16.31-1.73,7.08,8.9ZM46.79,78.81,60,92.88,70,76.41l-5.33-6.89L50.55,71Z"/><polygon class="cls-37" points="48.12 83.34 59.52 83.75 69.54 81.26 72.17 86.03 60.05 88.77 47.51 89.01 48.12 83.34"/><polygon class="cls-38" points="49.38 84.28 59.15 84.8 68.98 82.19 70.5 85.43 59.88 87.67 48.81 87.34 49.38 84.28"/><polygon class="cls-33" points="58.43 73.54 60.18 77.67 59.52 80.42 63.16 81.64 66.4 77.78 64.74 74.74 64.25 71.45 60 71.01 58.43 73.54"/><polygon class="cls-36" points="53.93 79.56 55.66 77.84 57 78.46 55.74 78.6 53.93 79.56"/><polygon class="cls-62" points="35 78 41.75 74.25 53.41 75.55 64.25 71.45 70 73.75 72.25 71.5 76.75 73 82.25 71 82.5 73.75 76.25 75.5 72.75 74.25 69.99 76.41 63.75 73.5 53.25 78.25 42 75.75 34.75 80 35 78"/><polygon class="cls-62" points="35 83 41.75 79.25 53.41 80.56 62.03 76.56 70 78.75 72.62 76.18 76.75 78 82.25 76 82.5 78.75 76.25 80.5 72.75 79.25 69.54 81.26 63.75 78.5 52.79 83.15 42 80.75 34.75 85 35 83"/><polygon class="cls-62" points="35 96.01 41.75 92.26 53.41 93.56 64.64 89.36 70 91.76 72.25 89.51 76.75 91.01 82.25 89.01 82.5 91.76 76.25 93.51 72.75 92.26 69.99 94.42 63.25 91.63 53.25 96.26 42 93.76 34.75 98.01 35 96.01"/></g></g></svg>