<svg id="illustration" xmlns="http://www.w3.org/2000/svg" viewBox="0 0 900 350"><defs><style>.cls-1,.cls-12{fill:#dddddc;}.cls-1,.cls-13,.cls-14,.cls-15,.cls-16,.cls-17,.cls-18,.cls-2,.cls-20,.cls-21,.cls-3,.cls-30,.cls-31,.cls-32,.cls-33,.cls-34,.cls-35,.cls-36,.cls-37,.cls-38,.cls-39,.cls-4,.cls-40,.cls-41,.cls-43,.cls-44,.cls-45,.cls-46,.cls-48,.cls-49,.cls-5,.cls-50,.cls-51,.cls-52,.cls-53{fill-rule:evenodd;}.cls-2{fill:#ececeb;}.cls-19,.cls-3{fill:#fff;}.cls-11,.cls-4{fill:#cececd;}.cls-5,.cls-9{fill:#a3a3a3;}.cls-14,.cls-31,.cls-47,.cls-6,.cls-7,.cls-8{fill:none;stroke-miterlimit:10;}.cls-6{stroke:#dddddc;}.cls-6,.cls-7,.cls-8{stroke-width:3px;}.cls-7{stroke:#ececeb;}.cls-8{stroke:#cececd;}.cls-10,.cls-43{fill:#c4c4c4;}.cls-13,.cls-33,.cls-35,.cls-42,.cls-48{fill:#2b2b2b;}.cls-13{opacity:0.1;}.cls-14{stroke:#785d88;}.cls-15,.cls-29{fill:#d1a1b8;}.cls-16,.cls-28{fill:#96637c;}.cls-17,.cls-23{fill:#785d88;}.cls-18,.cls-25{fill:#a688ba;}.cls-20,.cls-26{fill:#b3889d;}.cls-21,.cls-22{fill:#9075a0;}.cls-24,.cls-30{fill:#734d60;}.cls-27,.cls-32{fill:#594165;}.cls-31{stroke:#a3a3a3;}.cls-33{opacity:0.15;}.cls-34{fill:#543042;}.cls-36{fill:#926d5a;}.cls-37{fill:#755445;}.cls-38{fill:#99796a;}.cls-39{fill:#51362a;}.cls-40{fill:#474747;}.cls-41{fill:#4f5253;}.cls-44{fill:#858686;}.cls-45{fill:#737373;}.cls-46{fill:#6f7173;}.cls-47{stroke:#737373;}.cls-48{opacity:0.12;}.cls-49{fill:#c3987b;}.cls-50{fill:#8b6651;}.cls-51{fill:#dfbda5;}.cls-52{fill:#e8cab6;}</style></defs><title>analysts_INTJ_scene_med_workplace_habits</title><g id="city"><polygon class="cls-1" points="295.01 63.28 303.5 117.09 296.76 212.43 212.03 205.87 194.75 75.99 295.01 63.28"/><polygon class="cls-2" points="295.01 63.28 296.76 212.43 361 202.21 361 59.95 295.01 63.28"/><polygon class="cls-1" points="309.4 100.32 310.4 229.65 342.6 220.38 348.13 117.35 309.4 100.32"/><polygon class="cls-2" points="341.99 120.41 465.19 114.74 461.56 230.49 342.6 220.38 341.99 120.41"/><polygon class="cls-3" points="309.4 100.32 431.99 91.9 465.19 114.74 341.99 120.41 309.4 100.32"/><polygon class="cls-1" points="342.6 97.96 371.99 109.5 376.5 81 371.99 52.5 341.99 56.96 342.6 97.96"/><polygon class="cls-2" points="371.99 109.5 452.16 105.78 450 52.5 371.99 52.5 371.99 109.5"/><polygon class="cls-4" points="577.64 44.57 645.32 52.5 649.5 106.33 641.5 223.02 579.93 220.13 577.64 44.57"/><polygon class="cls-2" points="645.32 52.5 693.8 50.69 690.77 216.06 641.5 223.02 645.32 52.5"/><polygon class="cls-5" points="315.25 115.43 335.75 130 335.75 134.61 315.25 120.41 315.25 115.43"/><polygon class="cls-5" points="315.25 128.92 335.75 144.82 335.75 150.54 315.25 134.61 315.25 128.92"/><polygon class="cls-5" points="315.25 144.82 335.75 161 335.75 166.12 315.25 150.54 315.25 144.82"/><line class="cls-6" x1="329.17" y1="120.58" x2="329.17" y2="166.12"/><line class="cls-6" x1="321.35" y1="115.43" x2="321.35" y2="160.96"/><polygon class="cls-5" points="351.17 132.08 414.5 130 413.83 133.94 351.17 136.19 351.17 132.08"/><polygon class="cls-5" points="350.67 142.67 406.73 140.67 406.73 144.83 350.83 147.33 350.67 142.67"/><polygon class="cls-5" points="350.67 153.83 404.17 151.5 404.17 155.5 350.67 157.83 350.67 153.83"/><polygon class="cls-5" points="352.33 178.5 405.83 176 405.83 180 352 182.5 352.33 178.5"/><line class="cls-7" x1="364.67" y1="127" x2="364.33" y2="186"/><line class="cls-7" x1="379.83" y1="125.83" x2="379.5" y2="184.83"/><polygon class="cls-5" points="380.67 72 449.17 66.67 449.17 69.17 380.5 74.67 380.67 72"/><polygon class="cls-5" points="381 82.33 448.5 77 448.33 79.5 380.67 85.33 381 82.33"/><polygon class="cls-5" points="381.17 92.5 447 87.83 446.67 90.67 381.17 95.67 381.17 92.5"/><line class="cls-7" x1="388.33" y1="63.67" x2="388.67" y2="103.33"/><line class="cls-7" x1="425.67" y1="62.83" x2="426.33" y2="99"/><line class="cls-7" x1="435" y1="61" x2="435.67" y2="97.17"/><polygon class="cls-4" points="508.28 219.5 516.7 117.09 506.49 54.28 443 52.5 438.82 204.12 508.28 219.5"/><polygon class="cls-2" points="506.49 54.28 588.72 51.47 593.61 216.06 508.28 219.5 506.49 54.28"/><polygon class="cls-5" points="306.33 79.67 338.33 76.33 338.33 78.5 306.17 81.83 306.33 79.67"/><polygon class="cls-5" points="306.5 86.17 338.17 83 338.17 85.33 306.33 88.17 306.5 86.17"/><polygon class="cls-5" points="307 92.17 338.17 89.5 338.17 91.67 306.67 94.17 307 92.17"/><line class="cls-7" x1="316.83" y1="76.33" x2="316.83" y2="96.67"/><line class="cls-7" x1="328.33" y1="74.83" x2="328.33" y2="95.17"/><polygon class="cls-5" points="288.67 72.83 289.33 169.17 287.17 168.5 286.67 71.83 288.67 72.83"/><polygon class="cls-5" points="282.66 69.83 283.33 165.67 281.16 165 280.66 68.83 282.66 69.83"/><line class="cls-6" x1="291" y1="90.33" x2="276.17" y2="81.17"/><line class="cls-6" x1="291" y1="110.35" x2="276.17" y2="101.18"/><line class="cls-6" x1="291" y1="130.37" x2="276.17" y2="121.2"/><line class="cls-6" x1="291" y1="150.38" x2="276.17" y2="141.21"/><line class="cls-6" x1="291" y1="170.4" x2="276.17" y2="161.23"/><polygon class="cls-5" points="499.67 70.17 448.83 64 448.83 67.5 499.67 74 499.67 70.17"/><polygon class="cls-5" points="449.17 74.83 499.33 81.6 499.65 85.27 449.01 78.4 449.17 74.83"/><line class="cls-8" x1="459.33" y1="59" x2="459.17" y2="83.33"/><line class="cls-8" x1="472.5" y1="61.5" x2="472.34" y2="85.83"/><line class="cls-8" x1="486" y1="63" x2="485.84" y2="87.33"/><polygon class="cls-5" points="652.67 74.83 651.33 123.17 654 122.5 655.33 74.5 652.67 74.83"/><polygon class="cls-5" points="617.83 73.17 639 74.17 639 76.67 617.33 75.33 617.83 73.17"/><polygon class="cls-5" points="638.5 82.67 617.5 81.5 617.33 83.67 638.5 85.33 638.5 82.67"/><polygon class="cls-5" points="638 91.67 616.83 90.17 616.83 92.5 638 94.33 638 91.67"/><polygon class="cls-5" points="616.83 98.5 637.83 100.5 638 103 616.33 101 616.83 98.5"/><line class="cls-8" x1="629.5" y1="71.33" x2="628.5" y2="104"/><line class="cls-7" x1="649.33" y1="84.33" x2="661.33" y2="82.67"/><line class="cls-7" x1="649.33" y1="94.34" x2="661.33" y2="92.67"/><line class="cls-7" x1="649.33" y1="104.35" x2="661.33" y2="102.68"/><line class="cls-7" x1="649.33" y1="114.36" x2="661.33" y2="112.69"/><polygon class="cls-5" points="363.83 100 363.83 61.17 361.5 60.67 361.67 99 363.83 100"/><polygon class="cls-5" points="357.67 97.5 357.33 63.17 354.83 62.5 355.17 96.67 357.67 97.5"/><polygon class="cls-5" points="350.67 60.5 351.17 95.5 348.83 94.67 348.5 60.83 350.67 60.5"/><line class="cls-6" x1="366.67" y1="90.17" x2="345.83" y2="83.33"/><line class="cls-6" x1="366.67" y1="78.16" x2="345.83" y2="71.32"/></g><g id="walls"><polygon class="cls-9" points="407.37 192.51 194.75 221.24 177.67 77.64 407.82 55.44 417.59 28.78 408 0 0 20.5 38.5 276.58 407.23 235.46 407.37 192.51 407.37 192.51"/><polygon class="cls-10" points="408 0 407.82 55.44 407.82 55.44 819.33 66.48 764.36 219.5 407.37 192.51 407.23 235.46 866.33 274.12 900 23.49 408 0"/><path class="cls-11" d="M173.1,58.84,195.28,231l212-26,7.27-96.11-7.27-64.32Zm37.19,156.29-17.17-127L393.69,63.28,390,193Z"/><path class="cls-12" d="M407.23,44.57l-2.68,160.76,367,26.66L782.66,58.84ZM749.09,212.18,617,204.42,421.5,196.78V58.84L765.28,72.21Z"/></g><g id="shadows"><polygon class="cls-13" points="81.75 298.5 147.53 286.42 116.25 274.12 95.3 230.49 83.13 222.22 55.25 225.47 73.93 233.04 61.97 244.46 68.72 248.01 61.97 255.88 58.48 274.35 81.75 298.5"/><polygon class="cls-13" points="178.5 296.5 133.97 309.62 245.35 350 297.5 339 328.01 309.62 526.91 345.5 611.07 301.92 683.49 292.12 634.59 271.3 556 270.08 321.87 254.95 178.5 296.5"/><polygon class="cls-13" points="683.21 271.3 702.3 259.93 705.37 202.21 837.11 50.69 858.5 59 833.5 246.18 772.21 247.03 764.52 265.54 779.13 274.14 725.38 288.52 683.21 271.3"/></g><g id="picture"><polygon class="cls-13" points="57.24 131.3 68.53 137.26 130.51 131.3 133.89 123.78 123.91 122.04 69.83 126.09 57.24 131.3"/><polygon class="cls-14" points="88.19 60.73 82.12 71.28 95.71 69.98 88.19 60.73"/><polygon class="cls-15" points="56.95 76.06 123.77 68.25 126.08 119.73 61.87 126.09 56.95 76.06"/><polygon class="cls-16" points="123.48 84.73 113.21 88.06 109.74 94.71 104.53 96.59 99.91 103.97 124.64 101.51 123.48 84.73"/><polygon class="cls-16" points="87.33 85.17 94.99 89.8 87.47 92.98 87.33 85.17"/><polygon class="cls-17" points="77.64 98.76 98.03 98.47 95.71 103.53 81.54 105.12 77.64 98.76"/><polygon class="cls-17" points="86.6 100.06 86.17 84.88 87.33 85.17 87.76 99.92 86.6 100.06"/><polygon class="cls-15" points="60.72 107.1 125.31 99.58 126.08 120.6 62.84 126.19 60.72 107.1"/><polygon class="cls-18" points="71.27 113.66 77.92 110.91 82.84 112.5 71.27 113.66"/><polygon class="cls-18" points="89.2 116.11 96 113.22 101.5 114.81 89.2 116.11"/><polygon class="cls-18" points="103.96 108.16 110.61 105.41 116.1 107 103.96 108.16"/><circle class="cls-19" cx="100.92" cy="83.72" r="4.05"/><polygon class="cls-20" points="94.56 73.31 90.07 77.94 81.25 79.67 76.91 83.14 81.83 83 81.4 85.6 72 87.05 69.68 89.8 59.85 89.22 58.69 76.78 94.56 73.31"/><polygon class="cls-20" points="121.6 75.19 115.38 75.33 109.31 78.95 116.68 79.24 122.47 78.37 121.6 75.19"/><polygon class="cls-20" points="68.53 94.28 73.3 92.83 81.97 93.12 80.67 95 69.97 96.16 68.53 94.28"/><path class="cls-21" d="M127.82,64.2,52,72.3l5.2,59,76.65-7.52ZM64.19,122.91l-2.9-44L120,71.72l4,46.56Z"/><polygon class="cls-3" points="99.33 104.83 103.52 103.68 109.02 103.97 101.5 105.41 99.33 104.83"/><polygon class="cls-3" points="100.2 106.72 107.14 105.99 102.8 107.44 100.2 106.72"/><polygon class="cls-3" points="101.21 109.46 108.73 108.59 104.97 110.19 101.21 109.46"/><polygon class="cls-3" points="102.22 111.63 107.72 111.05 104.97 112.07 102.22 111.63"/><circle class="cls-22" cx="88.19" cy="60.73" r="2.6"/></g><g id="armchair"><polygon class="cls-22" points="419.23 207.25 434.49 115.59 516.99 117.41 506.49 209.5 419.23 207.25"/><polygon class="cls-23" points="514.45 121.5 523.61 106.33 526.91 207 506.49 209.5 514.45 121.5"/><polygon class="cls-24" points="434.49 115.59 428.99 100.39 514.45 97.5 514.45 121.5 434.49 115.59"/><polygon class="cls-25" points="428.99 100.39 436.99 87.3 522.46 85.16 516.99 97.4 511.32 102.42 428.99 100.39"/><polygon class="cls-23" points="514.45 121.5 529.58 103.59 522.46 85.16 511.32 102.42 514.45 121.5"/><polygon class="cls-23" points="435.49 202.05 445.15 133.94 496.49 137.54 488.66 205 435.49 202.05"/></g><g id="plant"><polygon class="cls-24" points="110.76 229.65 115.3 196.78 108.09 191.37 92.97 194.52 95.3 224.06 110.76 229.65"/><polygon class="cls-26" points="115.3 196.78 126.63 172.77 92.97 194.52 115.3 196.78"/><polygon class="cls-24" points="95.3 212.43 95.3 230.49 83.97 224.06 79.05 213.18 95.3 212.43"/><polygon class="cls-27" points="68.72 248.01 112.97 255.88 133.97 242.56 92.72 235.34 68.72 248.01"/><polygon class="cls-24" points="91.41 255.07 86.21 238.77 79.72 222.22 90.84 224.06 97.78 242.23 101.34 251.96 91.41 255.07"/><polygon class="cls-26" points="90.84 224.06 87.8 216.53 79.05 213.18 61.97 244.46 90.84 224.06"/><polygon class="cls-28" points="109.29 223.19 115.3 196.78 125.13 209 128.12 216.15 120.42 231.99 112.97 230.25 109.29 223.19"/><polygon class="cls-29" points="115.3 196.78 143.83 209 128.12 216.15 115.3 196.78"/><polygon class="cls-26" points="53.63 217.51 79.05 213.18 92.8 212.55 94.23 210.56 83.63 193.73 53.63 217.51"/><polygon class="cls-28" points="90.84 224.06 101.34 224.06 103.32 209 85.47 214.64 90.84 224.06"/><polygon class="cls-29" points="103.32 209 90.84 224.06 79.05 213.18 103.32 209"/><polygon class="cls-22" points="133.97 242.56 130.09 261.19 128.22 264.76 128.82 267.31 124.97 285.84 106.63 293.41 104.97 271.97 112.97 253.06 133.97 242.56"/><polygon class="cls-25" points="130.09 261.19 110.76 267.12 108.09 271.97 109.57 274.69 128.82 267.31 130.09 261.19"/><polygon class="cls-23" points="106.63 293.41 78.63 287.85 73.47 267.12 74.72 264.76 72.06 261.45 68.72 248.01 112.97 253.06 110.76 267.12 108.09 271.97 109.57 274.69 106.63 293.41"/><polygon class="cls-22" points="110.76 267.12 72.06 261.45 73.47 267.12 109.57 274.69 110.76 267.12"/><polygon class="cls-29" points="90.84 224.06 109.29 223.19 120.42 231.99 102.63 238.28 86.21 238.77 90.84 224.06"/><polygon class="cls-28" points="120.42 231.99 111.72 261.01 86.21 238.77 120.42 231.99"/></g><g id="board"><polygon class="cls-21" points="717.86 205.74 708 275.5 730.03 278.3 738.07 244.41 742.76 206.57 717.86 205.74"/><polygon class="cls-30" points="749.58 241.89 755.22 204.12 742.76 206.57 730.03 278.3 764.52 265.54 749.58 241.89"/><polygon class="cls-17" points="715.35 276.44 721.68 277.24 727.57 245.59 720.23 244.41 715.35 276.44"/><polygon class="cls-30" points="811.99 218.33 826.01 213.31 847.5 32.94 840.15 30.4 819.07 128.49 811.99 218.33"/><polygon class="cls-18" points="730.99 15.97 748.25 1.27 775.6 3.11 763.76 21.3 730.99 15.97"/><polygon class="cls-4" points="678.68 31.45 826.01 37.28 802.54 211.12 664.68 197.21 678.68 31.45"/><path class="cls-31" d="M767.2,32.94a80.39,80.39,0,0,1-80.39,80.39,80.78,80.78,0,0,1-16.2-1.64"/><path class="cls-31" d="M801.18,32.94A114.37,114.37,0,0,1,686.81,147.31,115.38,115.38,0,0,1,667,145.6"/><path class="cls-31" d="M819.33,100.12a148.53,148.53,0,0,1-132.52,81.36,150,150,0,0,1-23.56-1.85"/><path class="cls-31" d="M810.31,167.11a182.22,182.22,0,0,1-66.88,39.22"/><path class="cls-16" d="M677.41,29.69l-5.13,52.86c4.61,1.35,8.17.25,13.22.25,2.27,0,5.82,1.69,8,1.4a51.7,51.7,0,0,0,38-25.36c4.42-7.61,3.27-14.45,3.27-23.89,0-.56,3.65-3.12,3.64-3.68Z"/><path class="cls-20" d="M711.74,51.57l-6.35-4-14.82,4-8.69,1.1-5.66-10.74-3.94,40.62a51.6,51.6,0,0,0,14.53,2.09,53.12,53.12,0,0,0,6.71-.45l-1-8.48,5.55-3.5v-3.3l-2.78-1.14-4.7-3.32,5.08-9.64Z"/><path class="cls-20" d="M731.55,58.84a51.55,51.55,0,0,0,7-25.9c0-.56,0-1.11,0-1.67l-37.56-1L707,41.6l8.73,3,3.2-1.4,3.49,4-3.49,7.61Z"/><polygon class="cls-20" points="709.12 61.89 716.99 60.67 718.9 65.35 711.39 67.78 709.12 61.89"/><polygon class="cls-18" points="670.28 21.3 674.83 32.94 683.21 36.52 818.98 44.57 826.01 44.57 840.15 30.4 783.58 27.13 770 24.02 733.54 24.56 670.28 21.3"/><polygon class="cls-21" points="683.21 36.52 670.28 193.15 666.08 199.97 655.14 206.66 670.28 21.3 683.21 36.52"/><polygon class="cls-21" points="818.98 44.57 840.15 30.4 811.99 218.33 799.39 211.69 797.99 204.12 818.98 44.57"/><polygon class="cls-17" points="670.28 193.15 797.99 204.12 811.99 218.33 655.14 206.66 670.28 193.15"/><polygon class="cls-21" points="773.58 131.71 770.72 133.5 768.8 133.4 768.05 135.18 765.13 137.01 761.77 134.78 758.06 125.75 750.8 114.19 754 109.81 759.25 108.89 766.51 120.45 771.94 127.55 773.58 131.71"/><polygon class="cls-32" points="758.06 125.75 758.86 133.28 762.31 138.78 765.13 137.01 758.06 125.75"/><polygon class="cls-32" points="766.51 120.45 772.94 124.44 776.39 129.95 773.58 131.71 766.51 120.45"/><polygon class="cls-32" points="768.05 135.18 764.52 129.54 762.19 122.95 767.19 127.87 770.72 133.5 768.05 135.18"/><polygon class="cls-32" points="750.8 114.19 750.09 103.59 759.25 108.89 750.8 114.19"/><polygon class="cls-16" points="769.39 134.34 769.82 142.02 777 146.57 775.95 137.64 769.39 134.34"/><polygon class="cls-21" points="763.76 174.25 760.91 176.04 758.99 175.94 758.24 177.72 755.32 179.55 751.96 177.32 748.25 168.29 740.99 156.73 744.19 152.35 749.44 151.43 756.7 162.99 762.13 170.09 763.76 174.25"/><polygon class="cls-32" points="748.25 168.29 749.05 175.81 752.5 181.32 755.32 179.55 748.25 168.29"/><polygon class="cls-32" points="756.7 162.99 763.13 166.98 766.58 172.49 763.76 174.25 756.7 162.99"/><polygon class="cls-32" points="758.24 177.72 754.71 172.08 752.38 165.49 757.38 170.41 760.91 176.04 758.24 177.72"/><polygon class="cls-32" points="740.99 156.73 740.28 146.13 749.44 151.43 740.99 156.73"/><polygon class="cls-16" points="759.58 176.88 759.15 184.88 767.02 190.65 765.97 180.51 759.58 176.88"/><polygon class="cls-21" points="791.11 175.03 788.26 176.81 786.33 176.71 785.59 178.49 782.66 180.33 779.3 178.1 775.6 169.06 768.34 157.5 771.54 153.13 776.79 152.2 784.04 163.76 789.48 170.86 791.11 175.03"/><polygon class="cls-32" points="775.6 169.06 776.39 176.59 779.85 182.09 782.66 180.33 775.6 169.06"/><polygon class="cls-32" points="784.04 163.76 790.47 167.75 793.93 173.26 791.11 175.03 784.04 163.76"/><polygon class="cls-32" points="785.59 178.49 782.06 172.86 779.73 166.26 784.72 171.18 788.26 176.81 785.59 178.49"/><polygon class="cls-32" points="768.34 157.5 767.63 146.9 776.79 152.2 768.34 157.5"/><polygon class="cls-16" points="786.92 177.65 787.14 184.71 794.32 191.35 793.62 180.68 786.92 177.65"/><polygon class="cls-16" points="728.42 175.58 732.21 169.76 735.84 173.2 732.13 178.49 728.42 175.58"/><polygon class="cls-16" points="700.58 112.15 704.04 105.98 708.86 110.27 704.72 115.78 700.58 112.15"/><polygon class="cls-16" points="783.99 93.27 779.73 87.96 784.04 84.24 787.44 87.34 783.99 93.27"/><polygon class="cls-16" points="801.05 69.59 786.53 66.09 787.58 61.98 776.3 64.6 784.61 71.51 786.01 67.93 800.35 72.21 801.05 69.59"/><polygon class="cls-16" points="707.98 187.38 705.9 172.59 710.11 172.06 703.52 162.52 700.15 172.79 704 172.78 705.28 187.69 707.98 187.38"/><polygon class="cls-3" points="809.58 162.4 812.86 162.79 811.68 171.58 808.66 171.19 809.58 162.4"/><polygon class="cls-3" points="807.87 176.44 811.02 176.96 809.97 186.15 807.09 185.49 807.87 176.44"/><polygon class="cls-3" points="806.56 191 809.19 191.4 808.01 201.24 804.86 200.71 806.56 191"/><polygon class="cls-21" points="738.06 39.77 730.99 15.97 763.09 17.8 766.46 23.49 767.2 41.6 738.06 39.77"/><polygon class="cls-30" points="767.2 41.6 773.58 26.62 783.58 27.13 775.6 3.11 763.09 17.8 767.2 41.6"/><polygon class="cls-33" points="747.95 90.12 728.42 139.5 726.52 154.37 693.98 161.25 671.42 180 656.65 188.25 657.41 178.95 678.68 143.5 718.9 127.55 747.95 90.12"/></g><g id="boss"><polygon class="cls-30" points="615.08 278.3 615.08 287.05 639.66 292.12 655.14 289.81 634.59 280.58 615.08 278.3"/><polygon class="cls-34" points="629.69 202.02 634.59 271.3 627.94 275.68 615.08 278.3 589.83 244.95 579.93 220.13 612.94 196.34 629.69 202.02"/><polygon class="cls-16" points="634.59 106.04 660.08 144.49 664.68 151.33 631.77 161.25 628.64 141.67 634.59 106.04"/><polygon class="cls-34" points="631.77 161.25 675.03 135.63 686.77 141.67 690.57 149.27 657.38 179.23 631.77 161.25"/><polygon class="cls-30" points="542.65 113.06 514.23 167.91 529.05 169.76 541.6 165.29 542.65 113.06"/><polygon class="cls-34" points="514.23 167.91 538.68 199.97 541.6 165.29 514.23 167.91"/><polygon class="cls-16" points="560.76 110.88 542.65 113.06 538.54 203.07 579.93 206.57 585.95 146.92 579.93 130.38 560.76 110.88"/><polygon class="cls-30" points="579.93 130.38 620.07 105.98 634.59 106.04 629.91 205.18 616.74 204.12 579.93 206.57 579.93 146.92 579.93 130.38"/><polygon class="cls-1" points="620.07 105.98 588.39 138.29 580.88 141.67 575.02 137.92 560.29 110.93 620.07 105.98"/><polygon class="cls-35" points="576.78 124.44 581.14 130.25 575.02 137.92 579.93 146.92 588.39 138.29 584.29 130.25 590.78 125.36 585.95 115.43 576.78 124.44"/><polygon class="cls-3" points="585.95 117.35 570.37 129.4 560.29 110.93 588.49 108.73 620.07 105.98 594.69 131.86 585.95 117.35"/><polygon class="cls-36" points="539.85 37.59 531.51 49.3 536.62 106.33 557.61 105.45 564.26 112.1 585.78 114.73 615.34 104.75 622.17 60.84 610.45 57.69 606.07 40.55 599.97 29.69 539.85 37.59"/><polygon class="cls-37" points="599.97 29.69 588.4 42.82 590.68 104.4 557.61 105.45 568.46 112.8 595.43 114.19 620.07 105.98 622.17 60.84 610.45 57.69 606.07 40.55 599.97 29.69"/><polygon class="cls-37" points="574.41 57.17 559.01 77.29 541.17 58.74 574.41 57.17"/><polygon class="cls-38" points="558.71 57.91 559.01 77.29 553.39 77.64 553 58.18 558.71 57.91"/><polygon class="cls-39" points="553.39 77.64 556.34 80.33 559.01 77.29 553.39 77.64"/><polygon class="cls-39" points="557.61 105.45 597.67 103.18 595.43 114.19 585.95 117.35 560.29 110.93 557.61 105.45"/><polygon class="cls-39" points="621.31 79.3 612.72 79.3 620.93 87.34 621.31 79.3"/><polygon class="cls-39" points="615.69 74.75 615.08 67.23 619.63 67.23 615.69 74.75"/><polygon class="cls-40" points="539.85 37.59 553 41.6 563.38 32.55 569.42 23.49 549.39 24.63 539.85 37.59"/><polygon class="cls-41" points="553 41.6 599.97 29.69 603.71 27.69 606.86 21.3 569.42 23.49 553 41.6"/><polygon class="cls-40" points="599.97 29.69 606.86 21.3 622.17 42.38 611.67 44.57 605.02 40.55 599.97 29.69"/><polygon class="cls-35" points="605.02 40.55 603.71 70.29 610.27 70.29 611.67 60.84 622.17 60.84 622.17 42.38 605.02 40.55"/><polygon class="cls-40" points="558.71 57.91 559.4 54.28 575.02 54.28 574.41 57.17 558.71 57.91"/><polygon class="cls-40" points="553 58.18 552.45 54.81 540.38 55.42 541.17 58.74 553 58.18"/><ellipse class="cls-42" cx="567.74" cy="66.48" rx="2.21" ry="2.43"/><ellipse class="cls-42" cx="547.14" cy="66.88" rx="2.21" ry="2.43"/><polygon class="cls-37" points="554.3 92.61 550.34 105.76 543.52 106.04 545.65 97.52 551.66 91.9 554.3 92.61"/><polygon class="cls-39" points="546.76 82.8 573.44 85.16 570.73 93.03 547.29 95.39 546.76 82.8"/><polygon class="cls-3" points="548.86 85.16 569.95 86.91 568.98 91.55 549.65 92.94 548.86 85.16"/><polygon class="cls-40" points="554.3 92.61 548.86 85.16 535.89 92.94 536.79 98.02 540.77 100.3 554.3 92.61"/><polygon class="cls-35" points="535.89 92.94 530.85 96.62 536.42 102.66 540.77 100.3 535.89 92.94"/><polygon class="cls-16" points="579.93 146.92 614.86 140.49 620.07 105.98 579.93 146.92"/><polygon class="cls-20" points="560.29 110.93 553.39 138.3 579.93 146.92 560.29 110.93"/><polygon class="cls-20" points="597.67 151.47 618.84 150.59 618.84 155.31 597.67 156.28 597.67 151.47"/><polygon class="cls-20" points="584.2 157.87 587.82 154.37 591.2 157.87 587 161.25 584.2 157.87"/><polygon class="cls-20" points="584.64 173.26 588.26 169.76 591.64 173.26 587.44 176.64 584.64 173.26"/><polygon class="cls-20" points="584.64 188.31 588.26 184.81 591.64 188.31 587.44 191.69 584.64 188.31"/><polygon class="cls-37" points="690.57 149.27 696.08 147.84 698.05 129.47 688.6 132.88 683.49 142.98 690.57 149.27"/><polygon class="cls-39" points="696.08 147.84 706.97 134.45 696.08 129.47 696.08 147.84"/><polygon class="cls-21" points="696.08 147.84 702.38 152.69 704.87 149.27 714.54 138.65 720.69 127.55 747.95 90.12 744.63 88.13 696.08 147.84"/><polygon class="cls-36" points="704.87 149.27 717.73 147.84 726.52 130.51 720.69 127.55 704.87 149.27"/><polygon class="cls-37" points="726.52 130.51 704.87 149.27 718.26 149.93 726.52 130.51"/><polygon class="cls-16" points="634.59 271.3 655.14 289.81 639.66 287.05 615.08 278.3 634.59 271.3"/><polygon class="cls-36" points="675.03 135.63 694.9 124.74 712.58 127.55 706.97 134.45 696.08 133.64 683.49 142.98 675.03 135.63"/></g><g id="desk"><polygon class="cls-43" points="237.6 202.21 310.4 187.84 616.74 204.12 474.69 252.41 312.69 220.92 218.43 208.77 237.6 202.21"/><polygon class="cls-41" points="553.06 310.75 510.02 301.92 510.02 283.36 567.06 283.36 553.06 310.75"/><polygon class="cls-41" points="288.63 281.26 315.13 286.42 317.24 270.08 285.38 261.86 288.63 281.26"/><polygon class="cls-44" points="315.13 286.42 341.7 279.53 346.63 263.92 316.19 270.08 315.13 286.42"/><polygon class="cls-41" points="480.29 270.08 286.97 229.07 230.11 229.07 240.26 280.4 262.38 285.48 260.56 265.83 294.31 270.08 426.75 296.5 430.25 319.94 475.38 332.1 480.29 270.08"/><polygon class="cls-44" points="474.69 272.71 589.83 244.95 584.49 301.92 553.06 310.75 553.06 291.6 510.02 301.92 506.87 322.39 475.38 332.1 474.69 272.71"/><polygon class="cls-45" points="474.69 244.95 477.84 256.96 474.69 272.71 274.21 235.04 230.11 229.07 218.43 208.77 312.69 220.92 474.69 244.95"/><polygon class="cls-5" points="474.69 244.95 616.74 204.12 607.3 240.74 474.69 272.71 474.69 244.95"/><polygon class="cls-13" points="438.82 222.15 467.86 216.37 486.93 221.44 495.15 223.54 453.69 229.67 438.82 222.15"/><polygon class="cls-5" points="477.84 189.83 486.93 221.44 470.93 226.69 472.5 211.65 477.84 189.83"/><polygon class="cls-46" points="477.84 189.83 482.75 222.81 481.22 223.32 477.84 189.83"/><polygon class="cls-46" points="478.34 224.26 477.84 189.83 477.12 224.66 478.34 224.26"/><polygon class="cls-2" points="470.93 226.69 477.84 189.83 465.55 187.33 452.16 187.84 445.34 223.32 470.93 226.69"/><polygon class="cls-16" points="452.16 187.84 452.64 183.31 478.34 185.14 477.84 189.83 452.16 187.84"/><polygon class="cls-16" points="467.3 199.1 458.2 198.96 457.1 205.22 462.66 206.4 462.57 210.03 456.71 209.72 456.75 211.52 463.67 211.69 464.98 205.04 459.38 203.43 459.55 200.84 466.6 202.59 467.3 199.1"/><polygon class="cls-45" points="452.26 215.42 454.7 215.13 455.35 217.03 452.83 218.94 455.09 219.3 454.71 220.38 451.68 219.28 453.87 217.19 453.78 216.01 452.14 216.52 452.26 215.42"/><path class="cls-45" d="M456.55,216l-1,4.22,3.12.62,1-4.91Zm1.45,3.81-1.61-.55.71-2.29,1.39-.19Z"/><path class="cls-45" d="M464.13,217.11l-1,4.22,3.12.62,1-4.91Zm1.45,3.82-1.61-.55.71-2.3,1.39-.19Z"/><path class="cls-45" d="M463.41,216.58l-3-.52-.28,2.67,1.6.57-.33,1.15-1.57-.37-.12,1,2.31.15,1-2.75Zm-1.27,2.13-1.36-.59.05-1.1,1.66.16Z"/><line class="cls-47" x1="455" y1="193.15" x2="471.84" y2="194.5"/><polygon class="cls-2" points="363.94 215.5 398.41 198.88 431.65 203.78 413.11 225.47 363.94 215.5"/><polygon class="cls-3" points="355.72 206.4 387.21 216.2 431.65 203.78 398.41 195.38 355.72 206.4"/><polygon class="cls-13" points="496.03 217.76 522.88 210.6 537.75 212.35 541.6 213.05 519.39 225.12 496.03 217.76"/><polygon class="cls-18" points="500.58 213.83 519.04 205.61 537.75 207.71 521.52 218.33 500.58 213.83"/><polygon class="cls-41" points="508.28 212.7 519.12 207.8 530.41 209.28 519.82 214.45 508.28 212.7"/><polygon class="cls-17" points="500.58 213.83 500.58 218.36 521.9 221.95 522.53 219.5 521.4 217.16 500.58 213.83"/><polygon class="cls-21" points="537.75 207.71 537.75 212.35 521.9 221.95 521.4 217.16 537.75 207.71"/><polygon class="cls-48" points="298.51 215.13 308.49 213.62 312.69 220.92 309.19 242.06 316.7 243.13 310.4 273.29 294.31 270.08 267.37 265.83 260.56 242.96 264.57 211.69 298.51 215.13"/></g><g id="chair"><polygon class="cls-43" points="147.53 158.03 212.03 139.11 222.94 150.54 155.23 164.97 147.53 158.03"/><polygon class="cls-41" points="184.11 317.26 197.31 313.29 198.76 294.4 184.81 294.4 184.11 317.26"/><polygon class="cls-41" points="263.52 319.94 250.19 316.96 246.9 301.15 266.56 296.5 263.52 319.94"/><polygon class="cls-5" points="157.86 162.53 227.89 144.82 236.76 253.37 205.26 265.83 180.95 272.71 157.86 162.53"/><polygon class="cls-45" points="157.86 162.53 147.53 158.03 171.33 283.36 168.88 309.62 184.11 317.26 187.42 297.55 207.73 307.43 208.65 328.69 222.63 336.03 224.51 313.82 222.94 296.5 206.26 278.48 186.37 269.1 166.42 194.55 157.86 162.53"/><polygon class="cls-46" points="222.94 296.5 222.63 336.03 232.81 332.01 237.6 309.62 262.93 301.92 263.52 319.94 271.22 317.66 274.1 305.73 268.42 285.48 253.51 286.42 222.94 296.5"/><polygon class="cls-43" points="186.37 269.1 203.94 264.42 237.6 259.93 268.42 285.48 222.94 296.5 186.37 269.1"/><polygon class="cls-48" points="175.93 149.7 179.53 159.79 173.1 219.5 186.37 269.1 222.94 296.5 264.51 286.42 271.22 309.62 277.52 275.68 218.43 211.69 225.31 158.03 183.5 147.48 175.93 149.7"/></g><g id="intj"><polygon class="cls-49" points="336.11 176.31 352.31 169.06 351 164.02 333.94 168.73 332.89 173.64 336.11 176.31"/><polygon class="cls-30" points="266.56 173.64 301.4 207.01 286.97 223.89 266.56 214.1 266.56 173.64"/><polygon class="cls-34" points="286.97 223.89 310.4 187.84 318.13 189.83 321.87 196.34 312.69 220.92 286.97 223.89"/><polygon class="cls-50" points="321.87 196.34 331.58 193.01 323.97 173.64 316.7 192.51 321.87 196.34"/><polygon class="cls-49" points="331.58 193.01 340.24 189.7 337.59 180.87 322.92 172.24 331.58 193.01"/><polygon class="cls-51" points="310.4 187.84 315.05 173.64 333.94 168.73 337.59 180.87 332.1 181.79 324.92 177.04 316.7 192.51 310.4 187.84"/><polygon class="cls-16" points="214.64 186.44 193.12 194.12 201.91 243.23 203.91 247.82 204 254.86 226.44 270.08 244.58 272.71 260.56 262.38 275.6 246.18 273.13 238.96 274.21 235.04 266.56 173.64 253.51 179.31 214.64 186.44"/><polygon class="cls-30" points="223.81 225.1 228.75 249.96 264.94 243.31 260.56 217.22 241.41 197.82 223.81 225.1"/><polygon class="cls-20" points="214.64 186.44 223.81 225.1 242.09 200.35 260.56 217.22 253.51 179.31 214.64 186.44"/><polygon class="cls-32" points="194.75 163.95 200.4 158.84 210.85 165.85 212.03 171.67 195.21 181.79 194.75 163.95"/><polygon class="cls-51" points="264.02 97.8 269.31 114.74 278.81 168.31 253.51 179.31 245.72 191.3 220 185.47 210.72 165.44 201.8 166.12 193.12 152.92 203.43 143.78 213.91 153.4 217.83 150.67 215.19 135.11 203.1 118.08 220.82 98.87 246.15 100.18 243.63 88.17 264.02 97.8"/><polygon class="cls-49" points="204 118 227.5 134.61 243.02 168.73 253.51 179.31 247.56 187.19 242.09 200.35 214.64 186.44 212.03 171.67 212.65 166.83 215.22 164.97 214.37 154.3 218.43 151.12 215.86 134.95 204 118"/><polygon class="cls-49" points="264.94 125.09 248.27 127.74 227.5 134.61 249.7 141.62 254.62 153.13 257.78 136.19 264.94 125.09"/><polygon class="cls-50" points="251.47 165.85 262.3 167.04 266.56 160.72 259.5 158.03 251.47 165.85"/><polygon class="cls-17" points="243.02 168.73 254.62 153.13 259.11 153.28 262.39 150.84 274.1 158.15 243.02 168.73"/><polygon class="cls-52" points="248.16 129.37 254.62 153.13 259.11 153.28 262.39 150.84 255.06 127.53 248.16 129.37"/><path class="cls-53" d="M242.79,141.84c-1.21.31-2.59-1-3.09-3s.09-3.8,1.29-4.1,2.6,1,3.09,3S244,141.54,242.79,141.84Z"/><path class="cls-53" d="M263.8,135.64c-1.21.29-2.59-1.06-3.07-3s.11-3.79,1.32-4.09,2.59,1.06,3.07,3S265,135.34,263.8,135.64Z"/><polygon class="cls-17" points="227.5 134.61 264.94 125.09 263.68 113.2 227.5 134.61"/><polygon class="cls-32" points="262.38 150.81 259.27 155.1 254.62 153.13 262.38 150.81"/><polygon class="cls-50" points="198.76 151.92 204.06 149.4 208.55 156.71 198.76 151.92"/><polygon class="cls-50" points="253.51 179.31 237.19 182.16 242.09 200.35 253.51 179.31"/><polygon class="cls-50" points="210.29 165.47 215.22 164.97 212.03 171.67 210.29 165.47"/><polygon class="cls-21" points="263.35 97.96 264.04 89.23 269.76 79.09 269.31 114.74 263.35 97.96"/><polygon class="cls-21" points="204 118 188.29 117.09 165.5 121.12 184.11 148.37 202.13 142.22 215.86 134.95 204 118"/><polygon class="cls-17" points="263.35 97.96 244.46 89.63 234.17 86.65 221.55 79.53 269.76 79.09 263.35 97.96"/><polygon class="cls-17" points="204 118 221.21 99.61 203.21 97.33 184.81 97.45 165.5 121.12 204 118"/><polygon class="cls-21" points="221.55 79.53 192.56 79.79 184.81 97.45 221.21 99.61 246.9 100.92 244.46 89.63 221.55 79.53"/><polygon class="cls-17" points="215.86 134.95 184.11 148.37 194.75 163.95 201.8 166.12 193.72 152.99 203.58 144.45 214.37 154.3 218.43 151.12 215.86 134.95"/><polygon class="cls-20" points="240.26 213.92 243.02 209.65 247.43 213.92 243.84 217.59 240.26 213.92"/><polygon class="cls-20" points="243.02 229.37 245.77 225.1 250.19 229.37 246.6 233.04 243.02 229.37"/><polygon class="cls-34" points="274.21 235.04 254.32 237.3 246.6 239.09 235.96 239.38 201.91 243.23 204 254.86 237.19 250.84 249.38 248.74 255.45 248.62 275.6 246.18 274.21 235.04"/><path class="cls-20" d="M254.32,237.3,236,239.38l1.23,11.46,18.26-2.22Zm-2.65,9.86-11.41.69-.59-6.2,12-.46Z"/><polygon class="cls-16" points="243.02 274.45 247.82 281.1 251.13 289.67 238.75 295.1 222.94 296.5 205.62 280.23 204 254.86 243.02 274.45"/><polygon class="cls-30" points="244.58 272.71 268.42 285.48 278.81 282.68 294.31 270.08 275.6 246.18 244.58 272.71"/><polygon class="cls-34" points="294.31 270.08 289.42 301.92 282.24 307.52 271.22 309.62 268.42 285.48 294.31 270.08"/><polygon class="cls-30" points="271.22 309.62 271.22 317.66 306.03 321.34 271.22 309.62"/><polygon class="cls-16" points="271.22 309.62 282.77 317.14 306.03 321.34 289.42 301.92 271.22 309.62"/><polygon class="cls-34" points="251.13 289.67 250.19 316.96 242.2 322.74 231.76 322.74 222.94 296.5 251.13 289.67"/><polygon class="cls-30" points="231.76 322.74 232.81 332.01 254.25 343.03 231.76 322.74"/><polygon class="cls-16" points="254.25 343.03 264.57 337.25 250.19 316.96 231.76 322.74 240.69 332.88 254.25 343.03"/><polygon class="cls-30" points="222.94 296.5 204 254.86 203.66 282.05 222.94 296.5"/><polygon class="cls-30" points="204 190.75 206.49 235.79 186.37 244.95 185.5 192.05 204 190.75"/><polygon class="cls-34" points="216.29 193.41 196 199.58 185.5 192.05 214.64 186.44 216.29 193.41"/><polygon class="cls-34" points="206.49 235.79 226.14 263.92 212.76 274.12 186.37 244.95 206.49 235.79"/><polygon class="cls-51" points="226.14 263.92 243.02 267.98 224.51 278.48 212.76 274.12 226.14 263.92"/><polygon class="cls-49" points="243.02 267.98 247.82 281.1 236.16 283.36 224.51 278.48 243.02 267.98"/></g></svg>