<svg id="ILLUSTRATION" xmlns="http://www.w3.org/2000/svg" viewBox="0 0 900 350"><defs><style>.cls-1{fill:#737373;}.cls-2{fill:#a2a2a2;}.cls-3{fill:#8e8e8e;}.cls-4{fill:#dcdcdb;}.cls-5{fill:#ebebea;}.cls-6{fill:#c3c3c3;}.cls-7{fill:#cdcdcc;}.cls-22,.cls-8{fill:#33231b;}.cls-8{opacity:0.1;}.cls-9{fill:#8f759f;}.cls-10{fill:#848585;}.cls-11{fill:#d0a0b7;}.cls-12{fill:#734d60;}.cls-13{fill:#95637c;}.cls-14{fill:#a587b9;}.cls-15{fill:#785d87;}.cls-16{fill:#b2879c;}.cls-17{fill:#6f7173;}.cls-18{fill:#8a6651;}.cls-19{fill:#debca4;}.cls-20{fill:#2b2b2b;}.cls-21{fill:#c2977b;}.cls-23{fill:#e7c9b5;}.cls-24{fill:#fff;}.cls-25{fill:#543042;}.cls-26{fill:#412b23;}</style></defs><title>analysts_Debater_ENTP_parenthood</title><g id="buildings"><polygon class="cls-1" points="771.2 118.5 802.95 70.13 852.5 84.5 847.75 237 774.01 211.35 771.2 118.5"/><polygon class="cls-2" points="750.43 204.12 743.46 183.22 743.88 69.54 802.95 70.13 790.88 215.88 750.43 204.12"/><polygon class="cls-1" points="834.99 158.29 866.75 109.92 899 118.5 892.75 258.25 837.8 251.15 834.99 158.29"/><polygon class="cls-2" points="814.22 243.91 807.25 223.01 807.67 109.33 866.75 109.92 854.67 255.67 814.22 243.91"/><polygon class="cls-3" points="816.25 121.5 853 121.5 847.75 209.25 815.75 206.96 816.25 121.5"/><polygon class="cls-2" points="823.08 209.17 824.08 118.33 830.5 118.17 827.92 209.5 835.42 210.67 838.58 118.5 845.5 118.92 841.42 213.5 823.08 209.17"/><polygon class="cls-2" points="814.17 129.08 854.42 129.67 854.17 138.33 815.25 136.17 815.42 143.42 852.58 144.42 852.25 153 814.92 151.58 814.92 159.42 852.33 161.42 851.5 170.42 815 168.5 814.75 177.08 850.33 177.83 850 187.17 815.25 185.33 815 192 850 194.17 849.58 201.92 814.25 200.17 811 166.33 814.17 129.08"/></g><g id="clouds"><path class="cls-4" d="M835.67,38.67S821.67,49,820,49s-32.33-2-32.33-2l29.66,13.33L850,56.67,870.67,58l25.66-10.33L871,48.33Z"/><path class="cls-4" d="M80,6.33,14.33,14.17l55,16L106.83,27s51.5,7.67,52.17,7.5,59.5-19.67,59.5-19.67l-92.83-1.16Z"/><polygon class="cls-4" points="378.81 61.95 348.67 69.33 311.67 66.11 358.21 86.17 390.06 76.25 433.17 70.26 378.81 61.95"/><polygon class="cls-5" points="433.17 70.26 379.76 52.5 351.53 62.42 311.67 66.11 358.21 74.41 388.92 68.18 433.17 70.26"/><polygon class="cls-5" points="14.33 14.17 75.17 0 123 7.5 159.83 4.67 218.5 14.83 136.33 20 76 12 14.33 14.17"/><polygon class="cls-5" points="896.33 47.67 835.67 33 810.67 44.33 787.67 47 817 52.33 845.33 45.33 861.33 50.67 896.33 47.67"/></g><g id="ground"><polygon class="cls-6" points="782 195 899.67 258.67 787 350 491 240 782 195"/><polygon class="cls-4" points="490.33 298 501 258.67 646.33 258.67 755 272 761 320 787 350 585.67 334.67 490.33 298"/><polygon class="cls-7" points="488.33 228.67 501 258.67 647.67 277.33 816.33 252 899.67 258.67 782 195 652.5 187.5 488.33 228.67"/><polygon class="cls-6" points="473.67 300 501 258.67 594.17 227.5 704.33 186 492.5 175.5 388.33 178.67 349.67 296 473.67 300"/><polygon class="cls-7" points="181 239.33 210 349 429.67 329.33 585.67 334.67 501 258.67 418.33 254.67 181 239.33"/><polygon class="cls-4" points="181 239.33 157.75 320.5 210 349 429.67 329.33 418.33 254.67 181 239.33"/><polygon class="cls-7" points="316.33 217.33 221 289.5 165 311.75 136.5 336.5 1.67 248 227 207.33 316.33 217.33"/></g><g id="shadows"><polygon class="cls-8" points="170 227.5 52.5 259 161 333 256.25 338 285.45 304.1 423.5 288.5 475.5 236.5 339 212.5 170 227.5"/><polygon class="cls-8" points="611.75 307.25 743 346.25 832 308 718.75 285.5 611.75 307.25"/><polygon class="cls-8" points="414.33 215.33 614.67 250.33 692.33 223.67 510.33 201.33 414.33 215.33"/></g><g id="grass"><polygon class="cls-8" points="83.92 247.83 69.93 243.43 55.08 246.92 69.17 251.75 83.92 247.83"/><polygon class="cls-8" points="379.26 318.89 357.21 315.5 340.24 321.94 359.75 327.54 379.26 318.89"/><polyline class="cls-8" points="556.33 286 574.5 282 594.33 287.75 574.08 290.5 556.33 286"/><polygon class="cls-8" points="818.58 266.5 832.5 264 848.25 268 832.92 269.58 818.58 266.5"/><polygon class="cls-9" points="828 266.58 823.17 256.17 828.75 261.42 828.92 253.08 830.83 259.67 838.08 250.92 834.5 262.5 842.83 256.5 836.08 267 828 266.58"/><polygon class="cls-9" points="569.33 285.75 559.58 269.5 570.08 278 575.33 264.5 575.08 276.25 582.83 267.25 578.58 281.25 587.83 275.5 581.08 285.5 569.33 285.75"/><polygon class="cls-9" points="351.27 322.11 342.96 310.41 351.1 313.8 351.1 299.21 358.02 310.94 368.06 299.55 364.84 313.29 375.02 307.52 365.86 321.43 351.27 322.11"/><polygon class="cls-9" points="73.18 247.88 80.2 236.08 72.5 239.16 70.44 230.6 67.02 239.5 59.49 232.82 63.43 241.21 55.04 237.44 65.48 248.06 73.18 247.88"/></g><g id="wheels"><polygon class="cls-10" points="442.13 42.71 433.83 48.21 471.33 54.33 471.33 44 442.13 42.71"/><polygon class="cls-10" points="493.42 206.39 486.3 224.5 464.17 221.25 467.88 34.09 500.86 42.45 493.42 206.39"/><polygon class="cls-2" points="502.71 42.45 509.83 45.86 507.82 221.25 486.3 224.5 489.09 40.91 502.71 42.45"/><polygon class="cls-11" points="463.34 107.79 459.78 101.78 438.63 44.38 433.91 48.28 453.07 103.95 463.34 107.79"/><polygon class="cls-12" points="453.24 114.08 447.14 119.6 451.24 130.76 460.18 127.02 457.91 119.3 453.24 114.08"/><polygon class="cls-13" points="458.8 107.05 453.07 103.95 447.14 119.6 457.91 119.3 458.8 107.05"/><path class="cls-14" d="M465.53,183.46l-17.3-22.1L459,132.47l11.28-12.68c-1.06.27-16.58,2.41-17.63,2.78-19.09,6.78-26.79,27.51-19.84,47.11s28.07,30,47.16,23.24c3.35-1.19,7.46-2.14,10.2-4.14Z"/><path class="cls-15" d="M464.59,126.85a22.12,22.12,0,0,0-9.5,6.61c.56-.25,1.13-.49,1.71-.7,11.39-4,24.08,2.44,28.34,14.46s-1.51,25-12.9,29.08a21.1,21.1,0,0,1-14.92-.34c7.37,8.54,18.17,12.44,27.88,9,13.36-4.74,19.58-21.59,13.89-37.63S478,122.11,464.59,126.85Z"/><path class="cls-9" d="M462.34,121.54C445.24,127.61,436.85,148,443.6,167s26.09,29.55,43.19,23.49,25.5-26.42,18.75-45.46S479.45,115.48,462.34,121.54Zm21.2,56.22c-11,3.89-23.4-2.86-27.74-15.09s1.05-25.3,12-29.19,23.4,2.86,27.74,15.08S494.53,173.86,483.54,177.76Z"/><polygon class="cls-16" points="467.82 121.03 480.07 120.82 459.78 101.78 453.07 103.95 463.1 116.15 467.82 121.03"/><polygon class="cls-13" points="464.75 134.88 472.31 133.27 480.07 120.82 463.1 116.15 464.75 134.88"/><polygon class="cls-17" points="623.67 225.5 616 236.17 588.67 234 596.17 40 631.67 49 623.67 225.5"/><polygon class="cls-2" points="633.67 49 641.33 52.67 639.17 232.67 616 236.17 619 47.33 633.67 49"/><polygon class="cls-10" points="549 23.33 563.33 43.67 641.33 52.67 647.92 45.25 623 29 549 23.33"/><polygon class="cls-11" points="563.67 113 562 104.5 563.42 28.5 557.17 28.5 553.25 104.25 563.67 113"/><polygon class="cls-13" points="567.5 130.75 553.25 104.25 536.63 126.63 551.83 128.5 567.5 130.75"/><path class="cls-14" d="M534.86,202.36l-11.07-33L548.32,140l18.44-10.14c-1.35-.12-20.38-4.06-21.76-4.06-25.12,0-42.72,21-42.72,46.84s20.36,46.71,45.49,46.71c4.41,0,9.61.59,13.64-.61Z"/><path class="cls-15" d="M557.23,135.79a27.47,27.47,0,0,0-13.85,3.8c.76-.07,1.52-.11,2.3-.11,15,0,27.13,12.82,27.13,28.64s-12.15,28.65-27.13,28.65a26.19,26.19,0,0,1-17.3-6.58c5.07,13,16.08,22.06,28.85,22.06,17.59,0,31.84-17.11,31.84-38.23S574.82,135.79,557.23,135.79Z"/><path class="cls-9" d="M556.8,128.66c-22.51,0-40.75,20.31-40.75,45.36s18.24,45.36,40.75,45.36,40.75-20.3,40.75-45.36S579.31,128.66,556.8,128.66Zm1.48,74.5c-14.46,0-26.18-13-26.18-29.14s11.72-29.13,26.18-29.13,26.17,13,26.17,29.13S572.73,203.16,558.28,203.16Z"/><polygon class="cls-16" points="563.42 130.33 577 134.5 562 104.5 553.25 104.25 557.92 128.33 563.42 130.33"/><polygon class="cls-13" points="554.08 145.25 563.58 146.5 577 134.5 557.92 128.33 554.08 145.25"/><polygon class="cls-17" points="555.08 31.75 566.33 32.67 563.33 43.67 433.83 48.21 419.33 42.33 555.08 31.75"/><polygon class="cls-2" points="555.33 26.67 567 13.33 647.92 29 647.92 45.25 566.33 32.67 555.33 26.67"/><polygon class="cls-10" points="420.17 20.5 567 13.33 566.33 32.67 419.33 42.33 420.17 20.5"/></g><g id="ship"><polygon class="cls-14" points="254.43 27.65 258.52 24.57 281.98 31.36 302.11 29.08 320.25 38.79 309.82 59.06 290.98 75.62 239.15 64.34 254.43 27.65"/><polygon class="cls-17" points="370.5 167.85 369.64 135.59 130.65 148.72 192.9 187.27 370.5 167.85"/><polygon class="cls-2" points="425.32 173.56 451.59 151.86 430.89 103.75 373.64 161 401.34 174.7 425.32 173.56"/><polygon class="cls-3" points="397.06 179.84 430.89 103.75 369.64 135.59 354.51 170.14 397.06 179.84"/><polygon class="cls-18" points="232.67 96.31 231.74 92.54 219.16 99.75 227.34 108.82 234.09 105.75 232.67 96.31"/><polygon class="cls-16" points="227.34 108.82 258.52 24.57 251.99 21.6 221.23 105.1 227.34 108.82"/><polygon class="cls-13" points="248.22 78.05 246.08 83.83 238.15 89.4 258.5 94.54 248.22 78.05"/><polygon class="cls-19" points="235.49 110.13 235.2 103.73 236.8 95.87 234.74 88.83 232.29 89.65 231.25 97.83 229.16 103.68 235.49 110.13"/><polygon class="cls-15" points="284.17 135.54 296.88 123.25 311.46 145.99 293.96 149.48 284.17 135.54"/><polygon class="cls-15" points="261.56 123.44 250.48 119.74 240.72 120.45 240.91 129.49 260.97 148.07 261.56 123.44"/><polygon class="cls-10" points="257.29 81.08 273.13 49.35 302.71 59.07 293.55 80.16 257.29 81.08"/><polygon class="cls-17" points="255.62 73.01 244.16 64.14 273.13 49.35 270.81 80.5 255.62 73.01"/><polygon class="cls-15" points="302.52 203.62 289.23 207.12 289.52 209.62 306.7 209.34 306.6 207.24 302.52 203.62"/><polygon class="cls-15" points="244.01 202.66 236.14 204.85 236.17 206.98 257.97 207.12 258.06 204.77 244.01 202.66"/><polygon class="cls-9" points="236.14 204.85 248.25 197.73 248.53 197.28 257.49 195.59 258.22 198.37 258.1 204.77 236.14 204.85"/><polygon class="cls-9" points="289.23 207.12 293.86 199.52 296.18 193.52 302.46 199.1 302.91 199.3 306.6 207.24 289.23 207.12"/><polygon class="cls-20" points="253.54 162.41 250.61 181.65 256.66 188.69 266.19 186.79 274.19 175.51 281.17 164.6 254.62 159.69 253.54 162.41"/><polygon class="cls-20" points="250.61 181.65 248.25 197.73 258.22 198.37 266.19 186.79 250.61 181.65"/><polygon class="cls-20" points="300.71 185.89 298.42 166.96 294.27 164.61 281.71 165.16 280.69 166.31 278.69 166.87 273.11 173.74 274.19 175.51 285.25 188.97 292.23 192.31 300.71 185.89"/><polygon class="cls-20" points="302.91 199.3 300.71 185.89 285.25 188.97 293.86 199.52 302.91 199.3"/><polygon class="cls-20" points="260.65 155.37 253.54 162.41 274.19 175.51 298.42 166.96 260.65 155.37"/><polygon class="cls-21" points="290.02 121.76 298.06 103.71 292.92 73.43 291.26 76.94 285.76 113.93 282.67 122.14 280.58 128.42 290.02 121.76"/><polygon class="cls-18" points="275.97 129.67 263.34 112.66 264.81 111.8 285.89 112.27 287.32 113.16 289.73 113.68 280.96 127.11 275.97 129.67"/><polygon class="cls-20" points="251.9 93.77 244.16 64.14 252.5 66.59 253.19 68.05 252.69 71.54 251.9 93.77"/><polygon class="cls-19" points="252.5 66.59 250.61 112.41 287.36 113.16 292.92 73.43 252.5 66.59"/><polygon class="cls-18" points="298.06 103.71 300.45 98.4 293.19 96.87 298.06 103.71"/><path class="cls-20" d="M310.54,74l-7.83-14.88S293,73.26,292.92,73.43s1.68,14,1.68,14l6,2.66,3.49-2.28Z"/><polygon class="cls-19" points="293.19 96.87 300.45 98.4 304.14 87.82 294.6 87.44 293.19 96.87"/><polygon class="cls-18" points="295.88 94.42 296.68 89.38 301.44 89.66 295.88 94.42"/><polygon class="cls-21" points="264.28 95.42 257.85 86.32 254.29 81 265.51 83 267.6 85.38 271.44 82.81 274.84 82.45 286.53 82.46 278.02 87.95 270.52 95.9 264.28 95.42"/><path class="cls-22" d="M280.47,88.11a2.34,2.34,0,0,1-2.25,2.43,2.46,2.46,0,0,1-2.74-2,2.29,2.29,0,0,1,2.26-2.4A2.45,2.45,0,0,1,280.47,88.11Z"/><polygon class="cls-18" points="267.13 98.18 264.28 95.42 270.52 95.9 267.13 98.18"/><polygon class="cls-23" points="265.51 83 264.28 95.42 270.52 95.9 271.44 82.81 265.51 83"/><polygon class="cls-20" points="264.26 82.79 264.33 79.33 254.29 81 264.26 82.79"/><polygon class="cls-20" points="274.84 82.45 275.5 79.5 286.53 82.46 274.84 82.45"/><polygon class="cls-18" points="257.43 99.25 278.7 99.89 267.85 109.67 257.43 99.25"/><polygon class="cls-14" points="261.56 123.44 270.54 122.03 275.97 129.67 277.58 137.97 278.51 139.47 277.27 162.57 275.01 164.16 254.62 159.69 261.56 123.44"/><polygon class="cls-9" points="290.02 121.76 296.88 123.25 296.59 146.88 298.42 166.96 275.01 164.16 275.97 129.67 290.02 121.76"/><path class="cls-22" d="M261.82,87.39a2.34,2.34,0,0,1-2.27,2.41,2.45,2.45,0,0,1-2.73-2,2.32,2.32,0,0,1,2.26-2.41A2.48,2.48,0,0,1,261.82,87.39Z"/><polygon class="cls-24" points="261.28 100.68 274.35 101.11 267.92 106.96 261.28 100.68"/><polygon class="cls-21" points="235.2 103.73 250.48 119.74 240.91 129.49 229.56 112.08 235.2 103.73"/><polygon class="cls-9" points="229.56 112.08 237.58 106.29 235.29 103.02 227.34 108.82 229.56 112.08"/><polygon class="cls-13" points="307.54 77.41 312.68 84.9 326.67 95.25 300.45 98.4 307.54 77.41"/><polygon class="cls-12" points="268.56 51.49 269.99 41.22 299.69 47.07 309.82 59.06 268.56 51.49"/><polygon class="cls-12" points="296.12 64.34 309.82 59.06 312.68 84.9 300.45 98.4 292.92 73.43 296.12 64.34"/><polygon class="cls-12" points="253.86 59.35 239.15 61.77 246.08 83.83 251.29 92.04 253.86 59.35"/><polygon class="cls-13" points="251.86 70.34 292.92 73.43 309.82 59.06 269.99 41.22 239.15 61.77 251.86 70.34"/><polygon class="cls-11" points="265.56 50.71 277.99 51.78 281.06 58.56 273.2 63.06 273.2 68.13 265.28 67.56 265.92 62.27 260.78 58.06 265.56 50.71"/><polygon class="cls-13" points="266.11 54.47 264.32 58.48 269.17 59.27 266.11 54.47"/><polygon class="cls-13" points="274.66 55 271.19 59.51 277.15 59.19 274.66 55"/><polygon class="cls-21" points="277.56 139.51 275.84 136.01 266.99 138.23 266.49 144.08 274.63 147.72 277.56 139.51"/><polygon class="cls-19" points="288.05 146.58 285.27 141.44 275.84 136.01 274.63 147.72 281.41 148.51 288.05 146.58"/><polygon class="cls-21" points="285.27 141.44 311.46 145.99 304.97 157.93 281.41 148.51 285.27 141.44"/><polygon class="cls-19" points="226.23 103.56 219.16 99.75 224.16 86.69 231.59 87.76 226.23 103.56"/><polygon class="cls-21" points="91.46 98.18 88.35 95.5 87.75 83.83 97.17 81.98 100.74 90.83 96.28 99.57 91.46 98.18"/><polygon class="cls-18" points="100.88 91.97 88.35 95.5 94.24 105.25 101.09 103.75 100.88 91.97"/><polygon class="cls-19" points="100.99 104.39 102.81 101.61 104.31 96.04 101.88 86.97 99.45 87.69 99.27 93.9 96.28 98.93 100.99 104.39"/><polygon class="cls-21" points="116.08 133.73 112.87 118.6 102.81 101.61 94.24 105.25 101.52 131.16 116.08 133.73"/><polygon class="cls-21" points="191.93 100.82 197.07 98.79 198.36 88.61 190.11 84.19 184.97 96.43 191.93 100.82"/><polygon class="cls-18" points="184.22 97.82 186.15 94.93 197.07 98.79 192.25 106.82 184.76 110.03 184.22 97.82"/><polygon class="cls-19" points="185.94 111.85 183.69 105.1 182.19 97.18 185.83 90.65 188.29 92.15 186.26 96.64 189.47 101.25 185.94 111.85"/><polygon class="cls-3" points="160.34 59.92 161.63 53.64 128.08 53.64 129.51 80.19 160.34 59.92"/><polygon class="cls-15" points="123.22 124.59 112.87 118.6 101.52 131.16 129.15 151.5 123.22 124.59"/><polygon class="cls-15" points="147.14 155.15 160.63 125.88 172.62 120.74 177.6 122.52 182.76 133.16 147.14 155.15"/><polygon class="cls-17" points="149.35 66.06 128.08 53.64 110.23 71.34 127.19 81.68 149.35 66.06"/><polygon class="cls-17" points="164.48 77.19 174.91 67.2 161.52 53.67 149.35 66.06 164.48 77.19"/><polygon class="cls-15" points="118.56 216.46 131.33 220.28 131.05 223.01 114.55 222.7 114.64 220.41 118.56 216.46"/><polygon class="cls-15" points="174.78 215.41 182.34 217.8 182.31 220.13 161.37 220.28 161.28 217.71 174.78 215.41"/><polygon class="cls-9" points="182.34 217.8 170.71 210.03 170.43 209.53 161.83 207.7 161.12 210.73 161.25 217.71 182.34 217.8"/><polygon class="cls-9" points="131.33 220.28 126.89 211.99 124.65 205.43 118.62 211.53 118.19 211.74 114.64 220.41 131.33 220.28"/><polygon class="cls-20" points="165.62 171.47 168.44 192.48 162.62 200.16 153.47 198.08 145.78 185.77 139.07 173.86 164.58 168.5 165.62 171.47"/><polygon class="cls-20" points="168.44 192.48 170.71 210.03 161.12 210.73 153.47 198.08 168.44 192.48"/><polygon class="cls-20" points="120.3 197.1 122.5 176.44 126.48 173.87 138.55 174.47 139.53 175.73 141.46 176.34 146.82 183.84 145.78 185.77 135.16 200.47 128.45 204.12 120.3 197.1"/><polygon class="cls-20" points="118.19 211.74 120.3 197.1 135.16 200.47 126.89 211.99 118.19 211.74"/><polygon class="cls-20" points="158.79 163.79 165.62 171.47 145.78 185.77 122.5 176.44 158.79 163.79"/><polygon class="cls-21" points="129.58 127.95 121.22 101.39 127.78 74.34 129.38 78.16 134.66 118.55 137.63 127.51 140.39 140.15 129.58 127.95"/><polygon class="cls-18" points="144.07 135.73 149.42 131.16 147.92 129.73 156.21 117.16 154.79 116.22 134.54 116.74 133.17 117.71 136.22 140.69 144.07 135.73"/><polygon class="cls-20" points="167.2 96.53 174.91 67.2 166.77 73.05 157.49 80.62 159.06 82.48 167.2 96.53"/><polygon class="cls-19" points="166.77 73.05 168.44 116.89 133.13 117.7 127.78 74.34 149.35 66.06 166.77 73.05"/><polygon class="cls-18" points="123.33 108.1 121.22 101.39 127.57 100.83 123.33 108.1"/><path class="cls-20" d="M117,90.05l-6.77-18.71s17.5,2.81,17.56,3-1.62,15.29-1.62,15.29l-2.09,9.26Z"/><polygon class="cls-19" points="127.57 100.83 121.22 101.39 117 90.05 126.17 89.63 127.57 100.83"/><polygon class="cls-18" points="124.94 97.25 124.17 91.75 119.6 92.05 124.94 97.25"/><polygon class="cls-21" points="155.3 98.35 158.01 91.17 164.96 83.44 154.12 84.78 152.12 87.38 148.6 85.05 145.26 84.31 133.96 84.25 143.23 91.55 149.31 98.86 155.3 98.35"/><path class="cls-22" d="M139.74,90.36A2.48,2.48,0,0,0,141.91,93a2.43,2.43,0,1,0-2.17-2.66Z"/><polygon class="cls-18" points="152.56 101.35 155.3 98.35 149.31 98.86 152.56 101.35"/><polygon class="cls-23" points="154.12 84.78 155.3 98.35 149.31 98.86 148.78 85.22 154.12 84.78"/><polygon class="cls-20" points="154.98 84.69 154.78 81.33 164.91 81.33 164.96 83.44 154.98 84.69"/><polygon class="cls-20" points="145.16 84.19 144.64 81.19 133.57 82.12 133.96 84.25 145.16 84.19"/><polygon class="cls-18" points="159.06 103.46 143.93 103.75 147.39 112.63 156.34 111.98 159.06 103.46"/><polygon class="cls-14" points="160.63 125.88 147.92 129.73 144.07 135.73 142.52 144.79 141.63 146.43 142.82 171.64 145 173.39 165.62 171.47 160.63 125.88"/><polygon class="cls-9" points="129.47 127.52 123.22 124.59 124.26 154.52 122.5 176.44 145 173.39 144.07 135.73 129.47 127.52"/><path class="cls-22" d="M157.67,89.58a2.41,2.41,0,1,0,2.63-2.17A2.42,2.42,0,0,0,157.67,89.58Z"/><polygon class="cls-24" points="145.94 105.45 157.43 105.04 156.47 107.42 147.69 108.07 145.94 105.45"/><polygon class="cls-21" points="183.69 105.1 173.05 120.88 182.76 133.16 192.25 106.82 183.69 105.1"/><polygon class="cls-12" points="142.07 88.4 147.49 85.9 174.91 67.2 173.55 71.84 147 90.26 142.07 88.4"/><polygon class="cls-12" points="142.43 88.76 131.58 86.26 114.09 81.83 115.59 86.19 139.74 90.36 142.43 88.76"/><polygon class="cls-13" points="131.58 86.26 150.14 84.12 146.78 95.33 137.31 97.18 131.58 86.26"/><polygon class="cls-13" points="149.49 197.12 182.33 182.56 428.04 228.19 418.33 255.33 220 285.67 149.49 197.12"/><polygon class="cls-16" points="149.49 197.12 182.33 182.56 440.69 195.69 428.04 228.19 193 247 149.49 197.12"/><polygon class="cls-11" points="149.49 197.12 182.33 182.56 449.31 172.71 440.69 195.69 190 213 149.49 197.12"/><polygon class="cls-16" points="104 192 120.8 260.51 220 285.67 182.33 182.56 104 192"/><polygon class="cls-13" points="108.67 219.33 120.8 260.51 212 264.67 193 213.33 108.67 219.33"/><polygon class="cls-12" points="115.33 244.67 124.5 269.17 220 285.67 205.33 248.33 115.33 244.67"/><polygon class="cls-12" points="89.13 214.5 108.19 244.06 120.8 260.51 117.56 244.65 112.33 219 89.25 173.63 89.13 214.5"/><polygon class="cls-25" points="108.19 244.06 124.5 269.17 117.5 244.67 108.19 244.06"/><polygon class="cls-13" points="69.5 184.25 89.13 214.5 112.33 219 107.52 194.69 182.04 164.57 69.5 184.25"/><polygon class="cls-7" points="134.5 167.99 178.19 158.57 451.59 151.86 449.31 172.71 182.33 182.56 134.5 167.99"/><polygon class="cls-2" points="75.68 173.56 101.52 131.16 178.19 158.57 182.33 182.56 107.52 194.69 75.68 173.56"/><polygon class="cls-3" points="61 163.5 101.52 131.16 107.52 194.69 69.5 184.25 61 163.5"/></g><g id="chair"><polygon class="cls-15" points="770 278 760.25 320.25 656.5 309.5 654.75 270.75 770 278"/><polygon class="cls-9" points="807.67 270 805.33 309.67 760.25 320.25 760 292.5 807.67 270"/><polygon class="cls-3" points="766.5 267.25 772.92 286.08 760 292.5 647 276.5 645.67 259 766.5 267.25"/><polygon class="cls-2" points="787.33 252.33 817 251.25 817 277.33 760 292.5 760.25 275.25 787.33 252.33"/><polygon class="cls-4" points="817 251.25 715.33 236.33 645.67 259 760.25 275.25 817 251.25"/></g><g id="Layer_11" data-name="Layer 11"><path class="cls-14" d="M257.33,334.92c0,8.33-27.12,15.08-60.58,15.08s-60.58-6.75-60.58-15.08,26.62-10.42,60.08-10.42S257.33,326.59,257.33,334.92Z"/><polygon class="cls-14" points="151.83 312.5 140.67 310.5 135.67 315.5 136.17 334.92 228.17 342.67 257.17 334.33 258.5 313.58 232.33 327.17 173.5 329.17 151.83 312.5"/><path class="cls-14" d="M271,282.79l-34.75,2.08-21.92-31.32-5-20.44c-.47,1.27-9.22,18.61-9.58,19.95-6.55,24.25,9.18,46.72,34.09,53.44s50.41-7.49,56.95-31.74c1.15-4.26,3.07-9.13,3-13.34Z"/><path class="cls-15" d="M212.54,243.84a27.43,27.43,0,0,0,.06,14.36c.13-.75.29-1.5.49-2.24,3.9-14.47,19.45-22.85,34.72-18.73s24.49,19.19,20.59,33.65a26.19,26.19,0,0,1-10.86,15c13.9-1.5,25.49-9.78,28.82-22.11,4.58-17-8.23-35.2-28.61-40.7S217.12,226.86,212.54,243.84Z"/><path class="cls-9" d="M205.54,242.4c-5.86,21.73,9,44.63,33.18,51.16s48.55-5.8,54.41-27.52-9-44.64-33.17-51.17S211.41,220.67,205.54,242.4Zm72.31,18c-3.76,14-19.41,21.88-35,17.68s-25.07-18.9-21.31-32.86,19.42-21.87,35-17.68S281.62,246.43,277.85,260.38Z"/><path class="cls-15" d="M196.88,296.38c-26.24,0-47.5,7.19-47.5,16.06C149.38,319.8,164,326,184,327.9c-11.3-1.57-19.09-4.88-19.09-8.71,0-5.35,15.2-9.69,34-9.69s34,4.34,34,9.69c0,2.36-3,4.52-7.88,6.2,11.78-2.92,19.43-7.63,19.43-12.95C244.38,303.57,223.11,296.38,196.88,296.38Z"/><path class="cls-9" d="M197,293.33c-34,0-61.5,9.07-61.5,20.25S163,333.83,197,333.83s61.5-9.06,61.5-20.25S231,293.33,197,293.33Zm0,29.42c-23.34,0-42.27-5.17-42.27-11.54s18.93-11.54,42.27-11.54,42.27,5.16,42.27,11.54S220.34,322.75,197,322.75Z"/></g><g id="main_character" data-name="main character"><polygon class="cls-21" points="744.67 282.67 741.56 314.03 737.52 314.32 728.71 312.21 719 286.5 726.33 273 744.67 282.67"/><polygon class="cls-21" points="701 270 697.33 254.67 675.38 271.5 691.17 295.2 696 296.62 706.52 295.2 701 270"/><polygon class="cls-18" points="744.16 288 728.94 270.04 714.75 275.88 719 286.5 744.16 288"/><polygon class="cls-18" points="666 256.63 683.1 259.67 701 270 675.38 271.5 666 256.63"/><polygon class="cls-12" points="704.13 317.6 707.49 317.55 709.65 304.3 706.52 295.2 699.7 300.6 701.46 305.89 704.13 317.6"/><polygon class="cls-19" points="728.71 312.21 726.38 319.04 732.18 325.81 742.7 327.85 741.56 314.03 728.71 312.21"/><polygon class="cls-13" points="742.7 327.85 726.38 319.04 725.13 322.68 728.42 327.85 742.87 331.32 742.7 327.85"/><polygon class="cls-19" points="742.87 331.32 725.13 322.68 719.61 331.32 728.31 333.03 742.87 331.32"/><polygon class="cls-19" points="691.17 295.2 687.13 302.65 691.74 307.82 698.84 310.32 706.52 295.2 691.17 295.2"/><polygon class="cls-13" points="698.84 310.32 687.13 302.65 685.42 305.38 688.49 310.15 696.91 312.66 698.84 310.32"/><polygon class="cls-19" points="696.91 313.51 685.42 305.38 675.75 313.51 686.96 315.22 696.91 313.51"/><polygon class="cls-12" points="742.87 331.32 742.87 335.42 719.61 335.42 719.61 331.32 742.87 331.32"/><polygon class="cls-12" points="701.29 305.49 703.16 307.43 703.34 311.86 694.12 317.77 675.75 317.77 675.75 313.51 691 313.51 701.29 305.49"/><polygon class="cls-21" points="691 313.51 675.75 308.85 675.75 313.51 691 313.51"/><polygon class="cls-21" points="722.62 326.6 742.87 331.32 719.61 331.32 722.62 326.6"/><polygon class="cls-20" points="683.91 246.03 696.75 258.75 714.75 275.88 744.16 288 771.67 251 772.16 234.43 756.24 221.58 683.91 246.03"/><polygon class="cls-20" points="714.75 275.88 701 270 690.5 254.75 687.25 230.5 716.25 207.5 748.33 237.83 714.75 275.88"/><polygon class="cls-17" points="701 270 665.63 256.5 687.25 230.5 701 270"/><polygon class="cls-20" points="758.29 127.24 763.52 128.01 769.15 118.71 779.17 112.12 775.8 108.14 794.97 70.21 766.36 30.17 740.54 65.32 747.71 66.23 734.92 97.84 745.89 117.58 750.44 115.13 758.29 127.24"/><polygon class="cls-19" points="680.61 57.35 675.04 66.45 682.2 88.01 684.48 130.88 718.03 132.08 723.37 156.76 755.96 156.76 751.46 116.72 745.66 114.33 745.26 93.24 747.71 66.23 680.61 57.35"/><polygon class="cls-21" points="759.2 144.93 763.52 128.01 759.77 115.13 757.43 100.23 750.46 97.19 749.93 91.3 747.71 66.23 740.54 65.32 738.38 144.87 744.87 150.27 759.2 144.93"/><polygon class="cls-17" points="686.69 52.18 680.27 50.48 676.23 36.83 766.36 30.17 794.97 70.21 749.13 82.15 686.69 52.18"/><polygon class="cls-20" points="698.58 80.1 685.04 68.44 681.46 74.3 679.87 76.06 681.58 75.95 685.16 71.63 698.92 86.41 698.58 80.1"/><polygon class="cls-23" points="698.58 80.1 699.72 104.84 706.6 104.78 711.2 80.1 698.58 80.1"/><polygon class="cls-20" points="709.9 87.04 730.88 75.61 731.79 73.5 727.92 74.47 711.2 80.1 709.9 87.04"/><polygon class="cls-18" points="702.62 108.93 699.72 104.84 706.6 104.78 702.62 108.93"/><polygon class="cls-21" points="694.94 85.16 699.72 104.84 698.92 86.41 685.16 71.63 681.58 75.95 694.94 85.16"/><polygon class="cls-21" points="706.6 104.78 714.78 88.46 730.88 75.61 709.9 87.04 706.6 104.78"/><polygon class="cls-13" points="703.3 114.11 717.4 112.34 724.62 108.93 717.4 115.42 709.78 118.71 703.3 114.11"/><polygon class="cls-26" points="724.62 108.93 718.03 113.37 709.33 115.3 703.3 114.11 707.79 112.63 716.66 111.83 724.62 108.93"/><polygon class="cls-18" points="718.03 132.08 738.83 132.58 752.6 132.99 738.38 144.87 731.56 146.86 720.76 144.81 718.03 132.08"/><polygon class="cls-18" points="766.76 114.76 761.98 103.44 752.94 108.45 763.52 128.01 764.43 124.26 766.76 114.76"/><polygon class="cls-19" points="752.94 108.45 760.9 85.7 772.28 92.47 766.76 114.76 758.8 111.12 752.94 108.45"/><polygon class="cls-18" points="757.43 104.07 767.9 96 762.21 92.41 757.43 104.07"/><polygon class="cls-20" points="793.43 104.98 789.56 147.29 775.52 121.93 769.15 122.1 771.35 113.82 780.1 99.64 793.43 104.98"/><polygon class="cls-22" points="763.52 128.01 771.23 114.28 773.24 117.89 775.52 121.93 763.52 128.01"/><polygon class="cls-20" points="668.55 69.53 676.17 55.71 678.9 55.59 680.61 57.35 682.2 88.01 668.55 69.53"/><polygon class="cls-10" points="749.13 82.15 730.88 75.61 728.89 74.87 727.92 74.47 678.5 56.56 668.55 52.98 676.23 36.83 749.13 82.15"/><polygon class="cls-20" points="794.97 70.21 766.36 30.17 676.23 36.83 794.97 70.21"/><polygon class="cls-16" points="724.33 152.33 720.76 144.81 701.76 144.7 692.15 170.91 694.03 188.6 688.5 209.25 718.54 233.24 771.25 186.75 769.5 146.5 759.2 144.93 729.33 151.83 722 155.67 724.33 152.33"/><path class="cls-12" d="M667.82,184c.9.23,1.13.46,2,.69,3.13.91,6.77,2.1,10,2.73,2.67.45,5.91-.29,8.59.17,1.87.34,3.64.68,5.57,1l3-16.66,4.77-27.24Z"/><polygon class="cls-13" points="692.5 198.5 687.25 230.5 748.33 237.83 772.16 234.43 767 198.25 692.5 198.5"/><polygon class="cls-24" points="763.35 111.18 763.97 119.99 758.46 118.8 761.13 110.15 763.35 111.18"/><path class="cls-22" d="M692.72,83.85a3.08,3.08,0,0,1,0,6.15,3.08,3.08,0,0,1,0-6.15Z"/><path class="cls-22" d="M716.83,86a3,3,0,0,1,0,6.08,3.08,3.08,0,0,1-3.07-3A3.05,3.05,0,0,1,716.83,86Z"/><polygon class="cls-12" points="741.56 314.03 746.73 325.41 742.87 335.42 741.56 314.03"/><polygon class="cls-12" points="789.75 165.25 782 195 739.12 206.37 756.75 200 769.5 146.5 789.75 165.25"/><polygon class="cls-4" points="665.67 189.67 656.75 171.75 663 169 682 174.75 712.83 168.67 719 172.5 676 197 665.67 189.67"/><polygon class="cls-9" points="670.83 201.67 682.25 180 719 172.5 725 223.17 687.25 230.5 670.83 201.67"/><polygon class="cls-15" points="656.75 171.75 665.25 218 687.25 230.5 682.25 180 656.75 171.75"/><polygon class="cls-21" points="732.83 202.5 736.63 195.88 782 195 777 215.33 735.75 210.63 732.83 202.5"/><polygon class="cls-19" points="713 203.38 721.44 192.41 736.63 195.88 735.75 210.63 723.83 213.67 713 203.38"/><polygon class="cls-21" points="706 198.5 721.44 192.41 723.83 213.67 708.67 209.17 706 198.5"/><polygon class="cls-4" points="759.22 144.87 749.83 145 734.38 150 748.25 166.88 759.22 144.87"/><polygon class="cls-5" points="719 172.17 720.76 144.81 759.06 144.94 719 172.17"/></g></svg>