<svg id="Layer_1" data-name="Layer 1" xmlns="http://www.w3.org/2000/svg" viewBox="0 0 900 350"><defs><style>.cls-1{fill:#ebebea;}.cls-2{fill:#dcdcdb;}.cls-3{fill:#cdcdcc;}.cls-4{fill:#1a1a1a;}.cls-24,.cls-4{fill-opacity:0.2;}.cls-5{fill:#8a6651;}.cls-18,.cls-24,.cls-6{fill:#2b2b2b;}.cls-6{fill-opacity:0.1;}.cls-7{fill:#c3c3c3;}.cls-8{fill:#a2a2a2;}.cls-9{fill:#8e8e8e;}.cls-10{fill:#474747;}.cls-11{fill:#debca4;}.cls-12{fill:#c2977b;}.cls-13{fill:#6f7173;}.cls-14{fill:#e7c9b5;}.cls-15{fill:#95637c;}.cls-16{fill:#543042;}.cls-17{fill:#4f5253;}.cls-19{fill:#848585;}.cls-20{fill:#b2879c;}.cls-21{fill:#734d60;}.cls-22{fill:#fff;}.cls-23{fill:#737373;}.cls-25{fill:#9ca0a1;}.cls-26{fill:#8f759f;}.cls-27{fill:#a587b9;}.cls-28{fill:#785d87;}.cls-29{fill:#d0a0b7;}.cls-30{fill:#eed2c1;}.cls-31{fill:#cfae95;}.cls-32{fill:#a8836c;}.cls-33{fill:#594165;}.cls-34{fill:#f6e5db;}.cls-35{fill:#b08c79;}.cls-36{fill:#906a59;}.cls-37{fill:#b99d8d;}.cls-38{fill:#66483a;}</style></defs><title>analysts_Debater_ENTP_career_path</title><path class="cls-1" d="M612.3,29l.35,214.35,256.24,41.19,1.4-260.82Z"/><path class="cls-2" d="M630.25,246.19l239,38.37.36-36.61L613,216.27s7,12,17.6,30.27Z"/><path class="cls-1" d="M477.14,19.87,612.3,29l.35,214.35-160.5,48.57L436,269.42Z"/><path class="cls-3" d="M612.65,219.44v23.93l-160.5,48.57L436,269.42l2.11-12Z"/><path class="cls-4" d="M469.4,227.18,481,215.57l16.54-3.87L487,141l13.73-26.75L620,228.24,728.8,282.09,789,297.58l-34.85,24.63-73.56-5.27L564.43,319.4l-74.62-29.92-12.32-5.28Z"/><path class="cls-5" d="M699.58,257.45l-23.22,4.93,17.95-15.14Z"/><path class="cls-6" d="M808,145.52l-36.25-14.43,20.41-57.72,45.06-6.69,8.09,33.79-12.67,46.11Z"/><path class="cls-7" d="M766.81,66.33l4.93,64.76,49.63,8.45,10.91-60.19-1.41-10.56L802.36,66Z"/><path class="cls-1" d="M776.67,76.54l1.75,47.87,37,6L818.55,79Z"/><path class="cls-8" d="M783,62.46l-16.2,3.87,33.09,2.11L827,70.2l5.28,3.52,4.93-7Z"/><path class="cls-9" d="M821.37,139.54l9.85-5.63,6-67.23L827,70.2Z"/><path class="cls-10" d="M804.83,110h1.4l1.76-2.46,2.47-1.76-.71-1,4.93-10.21-7.74-10.91-6.69,9.5,1.76.35-3.52,8.45,3.17,5.28,1.05-.7Z"/><path class="cls-11" d="M784.06,91l-1.41,2.46,1.76,6,.71,11.27,8.8.35,1.05,3.52,9.15,3.17-1-10.56-1.41-.7-.35-5.64.7-7.39Z"/><path class="cls-12" d="M805.18,114.55l1.05-4.58-1.05-3.51-.35-3.88-2.12-.7v-1.76l-.7-6.69-1.76-.35-.7,21.47,1.76,1.41Z"/><path class="cls-13" d="M785.82,89.56l-1.76-.35-1-3.52,23.93-2.11,7.74,10.91-12.32,3.16Z"/><path class="cls-10" d="M789,97.3l-3.87-3.16-.71,1.4-.7.71.7-.35.71-1.06L789,98.71Z"/><path class="cls-14" d="M789,97.3V104h2.11l1-6.69Z"/><path class="cls-10" d="M791.8,99.06l5.64-3.16.34-.36h-1l-4.58,1.76Z"/><path class="cls-5" d="M790,105.05,789,104h2.11Z"/><path class="cls-12" d="M787.93,98.71,789,104V98.71l-3.87-3.87-.71,1.06ZM791.1,104l2.11-4.58,4.23-3.51-5.64,3.16Z"/><path class="cls-15" d="M790,106.46l3.88-.71,2.11-.7-2.11,1.76-2.12.7Z"/><path class="cls-16" d="M796,105.05l-2.11,1-2.12.71-1.76-.35,1.41-.36,2.11-.35Z"/><path class="cls-5" d="M793.92,111l2.81.35h6.69l-3.87,3.17-1.77.7-2.81-.7Zm13.37-4.57-1.41-2.82-2.46,1.06,2.81,5.27.36-1Z"/><path class="cls-11" d="M803.42,104.7l2.11-6,3.16,1.76-1.4,6-2.11-1.06Z"/><path class="cls-5" d="M804.83,103.64l2.81-2.11-1.76-1.06Z"/><path class="cls-17" d="M814.33,104l-1.05,11.26-3.88-6.68H808l.36-2.47,2.46-3.52Z"/><path class="cls-18" d="M806.23,110l2.12-3.51.7,1.05.35,1.06Z"/><path class="cls-10" d="M780.89,94.49l1.76-3.87h1.06l.35.35.35,8.44Z"/><path class="cls-19" d="M802.36,97.65l-4.92-1.75h-.36l-.35-.36L783.35,91l-2.46-1.06L783,85.69Z"/><path class="cls-17" d="M814.68,94.49l-7.74-10.91L783,85.69Z"/><path class="cls-20" d="M795,114.55h-5.28l-2.46,11.26,16.89,2.82,1.06-14.08h-5.63v4.58l-3.17-1.41-.35-.35Z"/><path class="cls-21" d="M808.69,129.33l-7-1.41,3.52-13.37,6.69,6.69Z"/><path class="cls-22" d="M795,114.55h4.58l-1.77,2.11-1.75.71-1.41-.71Z"/><path class="cls-1" d="M799.55,114.55,796,117.37l4.57,3.16Zm-9.15,6.34,4.57-6.34,1.06,2.82Z"/><path class="cls-21" d="M787.23,125.81l2.46-11.26-7,10.56Z"/><path class="cls-22" d="M806.23,105.4l.36,2.46-1.76-.35.7-2.11Z"/><path class="cls-18" d="M787.23,98.36a.75.75,0,0,1,.7.7.7.7,0,1,1-1.4,0A.75.75,0,0,1,787.23,98.36Zm6.69.35a.71.71,0,1,1-.71.7A.76.76,0,0,1,793.92,98.71Z"/><path class="cls-9" d="M489.81,289.48,494,224.37l56.66,10.91,19,9.15,16.89,33.43-14.08,34.85-15.13-4.22-3.17-20.42-32-9.15L503.54,293.7Z"/><path class="cls-23" d="M514.1,292.29l-10.56,1.41,3.52-19,15.13,4.22Z"/><path class="cls-19" d="M572.52,312.71l18-5.28,4.22-19.71,81.66-25.34,24.63-7,20.42,3.17,7,9.15,13-4.93,6-51.74L708,207.12l-23.93,6.34-114.39,31Z"/><path class="cls-2" d="M481,215.57,489.46,230l89.05,15.48,169.64-50.33-102.42-18Z"/><path class="cls-6" d="M552.46,219.09l79.2-20.77-42.24,32Z"/><path class="cls-24" d="M595.4,188.82l-51,12,18,16.19,60.54-20.41Z"/><path class="cls-7" d="M481,227.89V215.57l95.74,22.17,10.91,8.8L576.75,255Z"/><path class="cls-25" d="M759.42,198l1.06-12.32-32.38,9.5-44.71,13L576.75,237.74V255Z"/><path class="cls-26" d="M499,98.36l11.27-4.57,10.2,64.76-.35,35.9-12.32-3.87Z"/><path class="cls-27" d="M510.23,93.79l9.85,100.66,57.37-9.15,3.87,3.87,3.52-5.28,63-9.86-4.57-92.21Z"/><path class="cls-21" d="M564.08,196.21l20.41-1.06,2.81,5.28-2.81,3.17-20.06-3.52Z"/><path class="cls-27" d="M600,191.63l-13,2.12L584.49,199v4.58L600,195.5Z"/><path class="cls-28" d="M580.62,191.63H600L584.49,199l-20.41-2.81Z"/><path class="cls-21" d="M577.45,185.3l.71,10.2,3.87.36,3.16-.71-.35-11.26-3.52.7Z"/><path class="cls-25" d="M562.32,208.53l84.82-18.31,31,8.8-24.28,8.8-64.76,18.31Z"/><path class="cls-23" d="M562.32,217l27.1,13.38,4.58-4.58-5.29-3.52-26.39-13.72Z"/><path class="cls-9" d="M677.76,204.3l.35-5.28-89.4,23.23.71,8.1Z"/><path class="cls-22" d="M517.62,100.12,635.88,89.21l2.46,75.32L526.77,182.84Z"/><path class="cls-7" d="M535.57,107.51l6,58.43,10.21-1.76,33.08-21.47,17.25,13.72L613,154.67l.35,2.12-72.5,11.26-1.41.35v-1.05l-6-59.49Z"/><path class="cls-7" d="M549.3,140.59l2.46,23.59,8.09-1.06,2.11-17.6L557,139.19Z"/><path class="cls-3" d="M556.33,133.21l3.52,29.91,9.15-1.4,3.17-19.36-6-10.56Z"/><path class="cls-7" d="M576.05,123.35l-10.57,1.06L569,161.72,579.57,160l3.51-24.63Zm19.35-20.77L583.78,104l1.06,9.5-3.52,6.34,8.8,38.36,12-1.76Z"/><path class="cls-3" d="M575.34,114.55l4.23,45.4,10.55-1.76-5.28-44.7Z"/><path class="cls-1" d="M530.64,213.46l-36.25,5.27,5.28,1.41,17.59,6.34,2.82-1.76,8.8,2.11Z"/><path class="cls-26" d="M499.67,220.14l9.5,7,10.91-2.46,2.82-7Z"/><path class="cls-2" d="M494.39,218.73l13,25.35,21.47-17.25-8.8-2.11-10.56,4.22-9.85-8.8Z"/><path class="cls-28" d="M520.08,224.72l-20.41-4.58,8.09,17.6Z"/><path class="cls-3" d="M572.52,209.58l3.53,1.76,5.63-1.4-3.17-1.76Zm5.28,2.82,2.47,1.41,5.63-1.41L583.43,211Zm4.58,2.46,2.46,1.41,5.64-1.41-2.47-1.4Zm4.58,2.46,3.16,1.77,5.63-1.41-3.16-1.76-6,1.4Zm12.31-.7,4.58-1.05-3.17-1.76-4.57,1.05Zm-.7-3.87-2.46-1.41-4.58,1.06,2.47,1.4ZM594,210.64l-2.47-1.41L587,210.29l2.46,1.41Zm-4.58-2.11-3.17-1.41-4.57,1.06,3.16,1.76,4.58-1.06Zm17.24,6.33,4.58-1.05-3.17-1.41-4.57,1.06,3.16,1.76v-.36Zm-.34-3.52-2.47-1.4L599.27,211l2.47,1.41Zm-4.58-2.11-2.47-1.41-4.57,1.06,2.46,1.41Zm-4.23-2.11-2.81-1.41-4.58,1.06,2.82,1.41Zm16.9,6.34L619,212.4,616.17,211l-4.58,1.06,3.17,1.41Zm-.36-3.52-2.46-1.41L607,209.58l2.46,1.41Zm-4.21-2.12-2.47-1.41-4.58,1.06,2.47,1.41,4.58-1.06Zm-4.23-2.11-2.47-1.41-4.57,1.06,2.82,1.41,4.57-1.06Zm16.54,6,4.58-1.06-2.82-1.41-4.57,1.06Zm-.35-3.52-2.46-1.41-4.58,1,2.47,1.41Zm-4.23-2.12-2.46-1.4-4.57,1.05,2.46,1.41ZM613.35,204l-2.11-1.06L606.66,204l2.47,1.41,4.57-1.06Zm16.54,6,4.58-1.06-2.81-1.41-4.58,1.06,2.81,1.41Zm-.35-3.53-2.46-1-4.58,1,2.47,1.41,4.57-1Zm-4.22-2.11-2.46-1.05-4.58,1.05,2.47,1.06,4.57-1.06Zm-4.22-2.11L619,201.13l-4.57,1.06,2.11,1.06Zm16.19,6,4.57-1.06-2.46-1.41-4.58,1.06,2.82,1.41Zm0-3.52-2.47-1.06-4.57,1.06,2.46,1.05,4.58-1.05Zm-4.23-2.12-2.46-1-4.58,1,2.47,1.06Zm-4.22-2.11-1.76-1.05-4.58,1.05,1.77,1.06ZM645,206.06l22.53-6L647.5,194.8l-16.9,3.52L645,205.71v.35Z"/><path class="cls-27" d="M612.93,113.81l-1.6,7v.11l.91.69.69-2.29,1.26-.23.8,2.4.8-1.14L614,114l-1-.23Zm.12,4.12.45-2.06.58,2.06Zm-5.62-2.63.35,1,1.48-.11.35,3.77-1.15,1.38-1.83-1.72-.91,1.6,3.09,1.26,1.6-2.17-.23-5.5Zm15.46,1.37.92.12v-.69l-1.15.12v-1.49l1.26-.23v-.57l-2.17.22.11,5.39h2.29l.23-.92H623Zm3.66-.91.81-.69.91.8.57-1.37-2.06-.57-.11.11-1,1.72.23,1,1.94,1.37-.22.57-1.38-.34-.11.69,2.06.46.68-2.18-2.29-.8Zm-.91-2v-1h-.8l-.12.69.35.11-.35.8Zm-6.07,4.24-2-3.32h-.91V120h1.14l-.11-3.32,1.49,4.24,1.14.11.69-6.52h-.8Z"/><path class="cls-28" d="M610.18,125l-1,5,.69.57.46-1.71.91-.12.57,1.83.58-.8L611,125.15l-.81-.12Zm.12,3,.34-1.49.46,1.49Zm-2.87-1.83.12,1,1.14-.69-1.14-1.15-1.95.81-.34,2.86.69,2h2.28l.35-2.52-1.6-.58V129l1-.11-.12,1.25-1.37.23-.46-1.71.23-2.07Zm18.44.57V126l.68-.69.92.8.46-1.26-1.95-.57L625,126l.23,1,2,1.26-.23.57-1.38-.34-.11.57,2,.46.68-2.06Zm-11.91-2-1.26.34.23,4.93h1.6l1-1.83-.11-2.18Zm.34,4.47h-.69l-.22-3.32,1.37.8.11,1.37-.57,1.15Zm7.45-4.35.11,1,1.26-.23-.23,3.89.92-.34-.12-3.55h.92v-1.38Zm-1.38,2.17.8.12v-.58l-.91.12v-1.26l1-.23v-.46l-1.83.23.11,4.47h1.95l.11-.8h-1.14Zm-2.86-1.83.11.92.92-.58.23-.11-1-1-1.6.68-.23,3,.57,1.72h1.83l.34-2.18-1.37-.45v.91l.92-.11-.12,1.14-1.15.12-.45-1.49.11-2.18Z"/><path class="cls-19" d="M699.94,302.5l22.53-10.21,6,1.77,18.3,6.68-21.82,12.32Z"/><path class="cls-23" d="M724.93,314.47,727,309.9l-1.76-1.06-25.34-6.34v5.28Z"/><path class="cls-23" d="M747.1,306.37l-22.17,8.1.35-5.63,21.47-8.1Z"/><path class="cls-19" d="M690.43,275.75l27.11,8.45,11.26-2.11L753.44,286l2.46-15.84,1.41-11.26L683,258.51Z"/><path class="cls-8" d="M728.45,297.22l.35-15.13L714,279.63l4.57,17.95,4.93,1.41Z"/><path class="cls-7" d="M752.38,267,683,258.51l23.59-18.3,46.45-5.64,4.23,9.86v22.88Z"/><path class="cls-8" d="M753.44,286l-1.06-19,4.93-22.52,3.87-1.06-1.41,23.23Zm10.91-130.58L769.28,174l-12,70.4-50.68-4.22v-62l-.36-42.94Z"/><path class="cls-25" d="M759.77,266.6l15.49-89.75L764.7,163.12l-7.39,81.31Z"/><path class="cls-20" d="M706.63,178.26l7.39.35,10.56,7L733,180l16.19,1.41-8.79,23.93-12,8.8L707,230.7,697.47,236V213.46l-.35-17.6Z"/><path class="cls-1" d="M720.35,189.52l-4.58-4.93-1.75-6L727.39,174l5.63,6-4.57,8.09Z"/><path class="cls-1" d="M705.57,200.78,714,178.61l6.33,10.91Z"/><path class="cls-1" d="M730.56,197.27l-10.21-7.75L733,180Z"/><path class="cls-21" d="M697.12,213.81l9.51-35.55-19,13,2.46,14.43Z"/><path class="cls-12" d="M687.27,218l9.85-4.22L693.6,205l-6-13.73L673.19,203.6l-2.12,8.1Z"/><path class="cls-11" d="M687.27,218l-16.2,7.39-10.91-23.23-3.87-11.61,11.27-2.82L672.48,198l1.06,8.44Z"/><path class="cls-12" d="M654.18,189.52l6,12.67L672.48,198l3.17-3.87-5.27-11.26-11.63-.36Z"/><path class="cls-5" d="M654.18,189.52l6,12.67h.36l-1.77-19.71Z"/><path class="cls-28" d="M677.76,180.72l-7.38,2.12,2.46,18.29.7,5.28,17.6-.7L694,182.13Z"/><path class="cls-27" d="M677.76,188.82l3.87-.71.36,7.39-2.11,3.17-4.23-1.76,1.41-2.11,2.46,2.46,1.41-1.76-.35-5.28h-2.11l-.36-1.4Zm15.14,4.57.35-2.81-1.41-2.47h-1.05v7.39h1.41l-.36-4.57Zm-9.51,3.17,2.11-9.51,1.41.36,2.47,8.8-1.06,1.41-1.05-3.52-1.77.35-1,3.17L683,196.56Zm2.47-3.87.7-2.82.71,2.82ZM669.67,177.2l.71,5.28v.36l23.57-.71.71-5.63Z"/><path class="cls-1" d="M671.07,143.06l-3.87,8.1,7.39,2.11-2.11,9.85,5.28,2.47-4.22,3.52,1.05,5.63,1.06-5.63,4.93-3.88L675,160.31l1.41-8.8L670,148.69Z"/><path class="cls-21" d="M749.21,181.43l11.62,20.76.7,22.88-16.54-13Z"/><path class="cls-10" d="M720.7,238.45l16.55-6,7.39,9.15,8.8,2.47-44,32.73Z"/><path class="cls-21" d="M716.48,228.94l32,1.06,4.93,14.08L727,240.21,707,244.43,697.47,236Z"/><path class="cls-23" d="M727,240.21l-17.6,36.6-12.67-11.26-10.91-18.31,1.41-10.56,10.2-.7,13.38,1.76Z"/><path class="cls-15" d="M697.47,236l51.74-54.55-.7,48.57Z"/><path class="cls-10" d="M746,164.88v1.76l7.4-3.87,11.26-5.63,1.41-10.56,16.54-21.47L740.77,116l-12.32,23.58,7.74,16.89,3.87-1.76Z"/><path class="cls-11" d="M686.21,102.94l-5.28,7,4.57,18.31-.7,35.19,27.81,3.17,16.19,6,11.62-8.09.35-8.45-4.58-2.46,1.06-17.25,3.52-22.17Z"/><path class="cls-12" d="M753.44,162.77l-3.88-12.67L747.81,141l-4.93-1.41-1.76-12.32-.35-13-5.64-1.06L729.5,168.4,714,178.61l12.32.7,22.87,2.12Z"/><path class="cls-23" d="M691.49,99.06l-5.28-1.76-2.46-11.61,69.33,14.43,29.57,25-41.53,2.11Z"/><path class="cls-14" d="M702.75,123l-.35,20.41,5.63.35,5.28-20.06Z"/><path class="cls-10" d="M715.42,123.35l2.47,2.11,12-4.22.71-1.76L721.41,116Z"/><path class="cls-5" d="M704.51,146.93l-2.11-3.52,5.63.35Z"/><path class="cls-12" d="M699.58,126.87l2.82,16.54.35-20.41L701,120.53l-6.33-3.87-7,1.76ZM708,143.76l9.86-14.08,12-8.44-8.79,1.05-5.64,1.06-2.11.35Z"/><path class="cls-15" d="M701.34,150.8l12-.35,6-2.46L713,152.92,706.63,155Z"/><path class="cls-16" d="M719.29,148l-5.62,3.17-7.4,1.05-4.93-1.41,3.88-.7,7.39-.35Z"/><path class="cls-5" d="M712.61,166.64l7.74.71,20.42,2.11L733,180l-19-1.41Zm40.47-20.76L746,149l7.4,13.73,2.46-10.56Z"/><path class="cls-11" d="M746,149l4.23-19.36,10.21,4.58-4.58,18-4.57-1.41Z"/><path class="cls-5" d="M749.56,144.82l7.4-8.09L752,134.61Z"/><path class="cls-17" d="M776.32,151.51l2.46,34.84L764.7,163.12l-6-3.17,1-5.28,6.34-8.09Z"/><path class="cls-18" d="M753.44,162.77l6.33-8.1,4.93,8.45Z"/><path class="cls-10" d="M675.65,112.09l7-10.91h2.11l1.41,1.76-.71,25.34Z"/><path class="cls-9" d="M741.12,127.22l-14.78-6.33-1.41-.71-1.06-.35-39.42-17.6-8.09-3.52,7.39-13Z"/><path class="cls-10" d="M782.65,125.11,758.37,85.69H683.75Z"/><path class="cls-22" d="M753.08,149.4l.71,6.68-3.52-.35,1.06-6.69Z"/><path class="cls-10" d="M701,120.53l-5.63-7.39-7.74,5.28,4.92.35Z"/><path class="cls-1" d="M684.8,163.47l-2.11,5.28,2.46,3.52L683,175.09l4.93-3.87-2.82-3.87Z"/><path class="cls-18" d="M719.29,126.52a2.77,2.77,0,0,1,2.82,2.81,2.82,2.82,0,1,1-5.63,0A2.77,2.77,0,0,1,719.29,126.52Zm-22.17-1.41a2.78,2.78,0,0,1,2.82,2.81,2.82,2.82,0,1,1-5.63,0A2.77,2.77,0,0,1,697.12,125.11Z"/><path class="cls-13" d="M676.36,262.38l10.91-25.7,7,10.56,2.46,18.31Z"/><path class="cls-12" d="M709.44,276.81l-20.77,19.71-3.87-1.41-7-5.63,5.63-12.67,14.08-3.88Z"/><path class="cls-5" d="M709.44,276.81l-9.5-9.86-12,.36-6,13,17.59,6Z"/><path class="cls-21" d="M688.67,296.52v13l-8.09,7.4Z"/><path class="cls-11" d="M677.76,289.48l-5.28,5.28,2.47,8.8,8.8,6.34,4.92-13.38Z"/><path class="cls-15" d="M683.75,309.9l-11.27-15.14-2.81,2.82.71,6,12,9.86Z"/><path class="cls-11" d="M682.34,313.42l-12.67-15.84-8.8,5.63,7.39,5.28Z"/><path class="cls-21" d="M682.34,313.42l-1.76,3.52-21.47-10.21,1.76-3.52Z"/><path class="cls-12" d="M665.8,300l16.54,13.38-21.47-10.21Z"/><path class="cls-21" d="M709.44,276.81l9.5,6,4.23,12-7.75-6Z"/><path class="cls-12" d="M699.58,286.31l-23.22-23.93,12.31-6,10.91,1.05,9.86,19.36Z"/><path class="cls-11" d="M720.7,291.24l-3.52-.7.71-2.82-8.45-10.91-9.86,9.5,6.34,17.6Z"/><path class="cls-12" d="M705.92,303.91l14.78-12.67-16.54,8.1Z"/><path class="cls-21" d="M723.17,294.76l-2.47-3.52-14.78,12.67,3.52,3.87Z"/><path class="cls-15" d="M701.7,292.29l16.19-4.57,2.81,3.52-17.59,5.28Z"/><path class="cls-27" d="M740.42,205.36,788.64,198l-12,50.68-34.14,3.52Z"/><path class="cls-26" d="M782,225.77l-2.82,12.32L771,227.54Z"/><path class="cls-11" d="M772.8,218.73l12.32-5.27,1.41,9.85-6,8.8-9.5-4.57Z"/><path class="cls-12" d="M790.4,216.62l-5.28-3.16-4.58,18.65,8.79-3.52Z"/><path class="cls-2" d="M26.35,26.91,26,313.42H72.72l16.9-160.5L71.32,26.56Z"/><path class="cls-25" d="M359.93,22H342l-5.63,41.89,1.76,148.88-1.05,56.67,23.23,8.8,36.95-107.71Z"/><path class="cls-2" d="M444.41,222.25l-19,50L359.93,213.1V22l117.21-2.11,3.52,8.1Z"/><path class="cls-7" d="M440.89,196.56l-81,16.54.36,65.12,69-23.93,7.74-38Z"/><path class="cls-8" d="M72.72,313.42l61.95-98.2L134.32,66,134,25.5,71.32,26.56Z"/><path class="cls-2" d="M338.11,212.75,203,212.05l-68.28,3.17L134,25.5,342,22l-.7,41.54L321.92,105.4l17.25,57.72Z"/><path class="cls-19" d="M468,29,367,32.89l1.41,115.45,84.83-11.26L468,103.64l-1.41-32Z"/><path class="cls-1" d="M419.42,40.64l38.71-1.41-4.22,86.58-68.64,9.86-9.5-1.06-2.11-89.4Z"/><path class="cls-22" d="M429.62,40.28l24.64-1.05-48.57,91.51-3.52,2.46-17.25,2.47-9.5-1.06Zm27.81,14.08L456,82.87,432.09,129l-13.38,1.76L457.43,54v.35Z"/><path class="cls-23" d="M455.32,126.87l-79.55,11.61v-3.87l75.68-9.85,2.81-1.06,1.06,2.11ZM373.66,41l86.58-3.87-1.05,4.22H456l-82.36,3.87Z"/><path class="cls-17" d="M460.24,37.12l-3.87,83.77-1.05,5.63-2.11-.71-1.76-1L456,41.34Z"/><path class="cls-27" d="M402.52,62.81l-4.93,21.47v.35l2.82,2.11,2.11-7,3.87-.71,2.47,7.39,2.46-3.52-5.63-19.35Zm.35,12.67,1.41-6.33L406,75.48Zm-17.24-8.09,1.05,3.16,4.58-.35,1.05,11.62L388.79,86l-5.63-5.28-2.81,4.93,9.5,3.87,4.93-6.69L394.07,66Zm47.51,4.22L436,72V69.85l-3.52.35V65.63l3.87-.71V63.16l-6.69.71L430,80.41h7l.71-2.82H433.5Zm11.27-2.82,2.46-2.11,2.81,2.47,1.77-4.23-6.34-1.76-.35.36-3.17,5.27.7,3.17,6,4.23L447.57,78l-4.22-1.06L443,79l6.33,1.41,2.12-6.69-7-2.46Zm-2.82-6V59.64h-2.46l-.36,2.11,1.06.36-1.06,2.46Zm-18.65,13-6-10.2h-2.81V81.82h3.52l-.36-10.21,4.58,13,3.52.35,2.11-20.06h-2.46Z"/><path class="cls-28" d="M394.07,97.3l-3.16,15.49,2.11,1.76,1.41-5.28,2.81-.35,1.76,5.63,1.76-2.46-4.22-14.44Zm.36,9.16,1.05-4.58,1.41,4.58Zm-8.8-5.64L386,104l3.52-2.11L386,98.36l-6,2.46-1.06,8.8,2.11,6h7l1.06-7.75-4.93-1.76v3.52l3.17-.35-.36,3.87-4.22.71-1.41-5.28.71-6.34Zm56.66,1.76v-2.46L444.41,98l2.81,2.46,1.41-3.87-6-1.76-3.17,5.28.7,3.17,6,3.87-.71,1.76-4.22-1.06-.35,1.76,6,1.41L449,104.7Zm-36.6-6-3.87,1.05.7,15.14h4.93l3.17-5.63-.35-6.69Zm1.05,13.73h-2.11l-.7-10.21,4.22,2.46.36,4.23ZM429.62,97l.35,3.17,3.88-.71-.71,12,2.82-1-.35-10.92h2.81V95.19Zm-4.22,6.69,2.46.35v-1.76l-2.81.35V98.71l3.17-.7V96.6l-5.64.7.36,13.73h6l.35-2.46h-3.52ZM416.6,98l.35,2.81,2.82-1.76.7-.35-3.17-3.17-4.92,2.11-.71,9.16,1.76,5.28h5.63l1.06-6.69L415.9,104v2.82l2.81-.35-.35,3.51-3.52.36-1.41-4.58.35-6.69Z"/><path class="cls-29" d="M306.43,110.68l12-.35,7,6-7,3.52-8.09-.35-4.93-2.82Z"/><path class="cls-7" d="M204.71,55.77l19.36-.35,5.63,2.11L213.16,67.74l-15.84-9.15Zm-42.59-5.28-8.44,1.76L179,59.64l6.34-9.15Zm29.57,58.78h13.38l-5.64,5.28-13.72-2.82ZM310.31,45.56l-14.79.71,6.69,5.63,13.37-5.63ZM135,80.06l-16.19,9.5L129,94.14l204.49-3.88,6-5.28v-9.5Z"/><path class="cls-8" d="M228.65,78l-29.92.7-2.82,4.57,10.21,4.58,24.64-1.06,2.11-4.57Zm-34.14.7-39.42,1.06L145.23,85l10.21,4.23,23.93-.35,14.78-9.51.36-.7Z"/><path class="cls-23" d="M118.83,89.56,116,98l223.5-5.63V85Z"/><path class="cls-7" d="M136.08,139.19l-19,9.85,12.67,4.23,201-4.93,6.34-4.93v-9.85Z"/><path class="cls-8" d="M205.07,137.43l-18.66.35-8.1,9.5,21.12-.35,11.27-5.28Z"/><path class="cls-23" d="M117.07,149v8.1l220-6.34v-7.39Z"/><path class="cls-25" d="M153.68,52.25,155.44,86H178l4.23-18-4.93-15.84Z"/><path class="cls-19" d="M185.36,50.49l-8.1,1.76L178,86l8.1-3.52Z"/><path class="cls-25" d="M197.32,58.59l1.76,23.93,29.22-.7,1.4-24.29ZM300.8,47.32,299,60.7l3.87,19.36,12.67-.35V46.27Z"/><path class="cls-19" d="M295.52,46.27l5.28,1,1.06,24.29,1.05,8.45-7.74-1.41Z"/><path class="cls-25" d="M199.43,111.38l2.82,16.19-3.17,16.9-12.67-.71-.7-32Z"/><path class="cls-19" d="M205.07,109.27l-5.64,2.11-.35,33.09,6.34-3.17Z"/><path class="cls-20" d="M325.44,116.31l-1.05,23.58L301.51,142l-3.88-18,1.76-6.68Z"/><path class="cls-26" d="M359.93,253.58,432.79,236l-5.28,26.75-43.64,23.94-23.58-8.45Z"/><path class="cls-28" d="M431,245.13l-45,13.73-2.11,27.81,41.53-14.43,9.15-14.08Z"/><path class="cls-27" d="M430.33,248,386,258.86l-26.05-5.28,75.32-18.65,6,4.22Z"/><path class="cls-1" d="M378.94,252.88l7.39,2.11,1.76-3.87-1.41-4.58Z"/><path class="cls-22" d="M393.37,253.23l-7,1.76.35-8.45Z"/><path class="cls-25" d="M481.36-.19l-56,272.43,55.26,64.05,8.1-3.16L443,266.25l48.57-259Z"/><path class="cls-1" d="M396.19,248.3l7.39,2.11,2.11-4.22L403.93,242Z"/><path class="cls-22" d="M411,248.3l-7.39,2.11.35-8.44Z"/><path class="cls-1" d="M415.54,242.67l7,2.11,2.12-3.87-1.76-4.58Z"/><path class="cls-22" d="M430,243l-7.39,1.76.36-8.45Z"/><path class="cls-28" d="M394.07,97.3l-3.16,15.49,2.11,1.76,1.41-5.28,2.81-.35,1.76,5.63,1.76-2.46-4.22-14.44Zm.36,9.16,1.05-4.58,1.41,4.58Zm-8.8-5.64L386,104l3.52-2.11L386,98.36l-6,2.46-1.06,8.8,2.11,6h7l1.06-7.75-4.93-1.76v3.52l3.17-.35-.36,3.87-4.22.71-1.41-5.28.71-6.34Zm56.66,1.76v-2.46L444.41,98l2.81,2.46,1.41-3.87-6-1.76-3.17,5.28.7,3.17,6,3.87-.71,1.76-4.22-1.06-.35,1.76,6,1.41L449,104.7Zm-36.6-6-3.87,1.05.7,15.14h4.93l3.17-5.63-.35-6.69Zm1.05,13.73h-2.11l-.7-10.21,4.22,2.46.36,4.23ZM429.62,97l.35,3.17,3.88-.71-.71,12,2.82-1-.35-10.92h2.81V95.19Zm-4.22,6.69,2.46.35v-1.76l-2.81.35V98.71l3.17-.7V96.6l-5.64.7.36,13.73h6l.35-2.46h-3.52ZM416.6,98l.35,2.81,2.82-1.76.7-.35-3.17-3.17-4.92,2.11-.71,9.16,1.76,5.28h5.63l1.06-6.69L415.9,104v2.82l2.81-.35-.35,3.51-3.52.36-1.41-4.58.35-6.69Z"/><path class="cls-28" d="M394.07,97.3l-3.16,15.49,2.11,1.76,1.41-5.28,2.81-.35,1.76,5.63,1.76-2.46-4.22-14.44Zm.36,9.16,1.05-4.58,1.41,4.58Zm-8.8-5.64L386,104l3.52-2.11L386,98.36l-6,2.46-1.06,8.8,2.11,6h7l1.06-7.75-4.93-1.76v3.52l3.17-.35-.36,3.87-4.22.71-1.41-5.28.71-6.34Zm56.66,1.76v-2.46L444.41,98l2.81,2.46,1.41-3.87-6-1.76-3.17,5.28.7,3.17,6,3.87-.71,1.76-4.22-1.06-.35,1.76,6,1.41L449,104.7Zm-36.6-6-3.87,1.05.7,15.14h4.93l3.17-5.63-.35-6.69Zm1.05,13.73h-2.11l-.7-10.21,4.22,2.46.36,4.23ZM429.62,97l.35,3.17,3.88-.71-.71,12,2.82-1-.35-10.92h2.81V95.19Zm-4.22,6.69,2.46.35v-1.76l-2.81.35V98.71l3.17-.7V96.6l-5.64.7.36,13.73h6l.35-2.46h-3.52ZM416.6,98l.35,2.81,2.82-1.76.7-.35-3.17-3.17-4.92,2.11-.71,9.16,1.76,5.28h5.63l1.06-6.69L415.9,104v2.82l2.81-.35-.35,3.51-3.52.36-1.41-4.58.35-6.69Z"/><path class="cls-6" d="M195.91,318.34l-68.28-1L61.46,340.87,58.29,350l104.54-9.13Z"/><path class="cls-21" d="M115,123.35l-6.69-.7,2.47,37.3,7.39-5.63ZM64.63,212.4l-6.69,16.54,9.15.36,4.23-7.75Z"/><path class="cls-17" d="M102.64,127.92,85.4,158.55l39.77,13.37L129,150.45,112.5,130.74Z"/><path class="cls-15" d="M103.7,234.57,102.64,161l56.67,6.34L154,233.87Z"/><path class="cls-30" d="M164.94,94.49l-4.22,48.22-7,14.78-15.84,7-17.25-13-15.84-2.82L105.81,136l.7-41.53,42.94-12.32Z"/><path class="cls-31" d="M133.26,129l10.21-12.67,11.26-4.93-14.08-2.81-3.52.7-4.57,3.52-2.46-3.87-5.28-4.22-13.73-1.06,10.56,9.85,4.22,13.38,3.87-.71Z"/><path class="cls-17" d="M180.78,85l-29.57-2.46.71,8.45,8.8,27.8-1.41,16.55,14.43-7,17.95-8.1Z"/><path class="cls-17" d="M160.72,118.77l-1.41,16.55L173,131.8l8.09-4.58,10.56-7Z"/><path class="cls-17" d="M134.67,67.74l21.12,15.13L151.92,91,109,100.12l-3.17-4.58-1.76-8.8Z"/><path class="cls-31" d="M153.68,157.49l3.87-20.76,3.17-18-.35,9.15,2.11,1.41,6.68,18.31-4.92,23.22Z"/><path class="cls-17" d="M180.78,85,134.67,67.74,151.92,91Z"/><path class="cls-32" d="M169.16,147.64l-8.44-10.56,9.85,4.22Z"/><path class="cls-17" d="M105.81,136l1.76-19.71L109,100.12l-4.93-13.38L95.6,108.92l7,19Z"/><path class="cls-17" d="M191.69,120.18l-17.95,8.1-3.17,13-6.33,29.56,8.8,1.41Z"/><path class="cls-32" d="M160,160l-6.33-2.46-33.09-6,9.15,21.11,8.1,1.06Z"/><path class="cls-33" d="M140.65,139.54l-4.57-.7-6.69-4.93h-3.17L122,137.43l-2.11.7,8.09,6.69Z"/><path class="cls-22" d="M135.37,139.54,128,137.08l-5.63,1.4,4.93,2.11Z"/><path class="cls-34" d="M130.1,108.92l-4.23,18,7.39,2.11,3.87-19.71Z"/><path class="cls-32" d="M128.69,131.45l4.57-2.47-7.39-2.11Z"/><path class="cls-17" d="M154.73,111.38l-7.39-7-6.69,4.23Zm-29.91-6.68-5.28-5.64-8.45,4.58Z"/><path class="cls-30" d="M175.15,123.35l-4.58,18-9.85-4.22,4.22-19Z"/><path class="cls-32" d="M172,125.46l-5.63-2.11-1.76,8.45Z"/><path class="cls-27" d="M190.63,159.25l-35.19-12-16.9,21.12,38.37,22.53,6.33,1.41Z"/><path class="cls-28" d="M187.11,253.58l.36-17.6,4.57-35.9-3.87-12.67,2.46-28.16L178,183.19,154,233.87l14.43,32.73Z"/><path class="cls-33" d="M187.11,243l.36-7,1.05-9.5-26.4-.71,7,21.82Z"/><path class="cls-26" d="M128,254.29l40.48,12.31,9.5-83.41L138.54,168.4Z"/><path class="cls-28" d="M128,254.29l18.66,5.63,1.41-45.76-12-17.6-7.74,1.76Z"/><path class="cls-28" d="M170.57,247.24,173,226.13l-10.92-.36,7,21.82Z"/><path class="cls-28" d="M116.72,152.92l4.22,66.17-15.13,8.45-18-59.49,8.45-17.6Z"/><path class="cls-28" d="M118.83,186l1.41,22.88a36.67,36.67,0,0,0-2.11,7.74c0,1.41-7,4.23-8.8,3.87-.7,0-3.17-1.05-6.34-2.11L90.67,177.2c4.93-2.11,10.56-4.58,10.56-4.58l18,13.38Z"/><path class="cls-26" d="M75.54,138.13l41.18,14.79-16.89,4.57-26,3.87L58.29,145.88Z"/><path class="cls-27" d="M70.26,216.27l-12-70.39,41.54,11.61,6,70Z"/><path class="cls-20" d="M124.11,214.16,95.25,162.07,78.71,167l3.87,19.7,33.09,41.54Z"/><path class="cls-26" d="M117.42,201.84l-9.5-17.25-25-12,2.47,18,13,15.83,19.71,3.17Z"/><path class="cls-15" d="M44.22,173.68l15.13,8.8,23.58-9.86,12.32-10.55L52,163.47Z"/><path class="cls-26" d="M77.65,231.4l-13-19L44.22,173.68l38.71-1.06,32.74,55.62Z"/><path class="cls-28" d="M82.93,172.62l20.42,34.5-15.49-2.46Z"/><path class="cls-27" d="M141.36,210.29l-32.73,15.48L62.52,203.6l16.54-16.19,57,9.15Z"/><path class="cls-28" d="M138.89,255l-22.17,9.5L97.36,248.3l-26-4.22-8.8-40.48,78.84,6.69Z"/><path class="cls-33" d="M71.32,244.08l-2.47-7.4,10.21-9.14,5.63,9.5-2.46,8.8Z"/><path class="cls-20" d="M188.17,187.41l15.14,19-15.49,10.21Z"/><path class="cls-21" d="M181.48,209.23l11.62-1.76,10.21-1.06-2.12,10.91L187.47,236l-3.17-13.37-.7-3.17-2.47-4.93Z"/><path class="cls-30" d="M173,216.27l10.56,3.17L187.47,236l-16.19,3.52-3.17-11.61Z"/><path class="cls-31" d="M164.94,216.27l8.8,3.87-2.46,19.36-9.16-13.73Z"/><path class="cls-32" d="M183.24,217l-8.8-4.57L166.7,217l7,3.17,9.86-.7Z"/><path class="cls-31" d="M57.94,228.94l9.86-3.87,4.22,8.8-.7,10.21L59,240.21Z"/><path class="cls-30" d="M79.06,227.54,67.8,225.07l3.52,19,9.5-6Z"/><path class="cls-31" d="M169.87,305.67l-1.41-26-13-6-4.58,15.49,7,20.77,6.34,2.46Z"/><path class="cls-32" d="M168.46,279.63l-17.6,9.5,2.47,5.63Z"/><path class="cls-10" d="M119.18,277.16l.36,28.86,31.32-16.89,17.6-9.5v-13L138.89,255Z"/><path class="cls-10" d="M116,251.47l-14.43,21.46L90,282.09l22.88,18.65,6.69,5.28,19.35-51Z"/><path class="cls-17" d="M90,282.09l10.56,14.08,9.86,2.82L116,251.47,97.36,248.3Z"/><path class="cls-31" d="M93.14,325l17.25-26.4-8.45-2.11L90,282.09l-7.39,38.72,5.28,9.85Z"/><path class="cls-32" d="M104.75,307.08l5.64-8.09L90,282.09Z"/><path class="cls-22" d="M168.11,136.37l-1.41,6.34-3.87-2.12,2.81-6.33Z"/><path class="cls-16" d="M179,214.51l2.46-5.28,2.12,10.21Z"/><path class="cls-18" d="M120.94,108.92a3.17,3.17,0,1,1,0,6.33,2.86,2.86,0,0,1-2.81-3.16A3.11,3.11,0,0,1,120.94,108.92Zm23.94,4.57a3.17,3.17,0,1,1,0,6.34,2.88,2.88,0,0,1-2.82-3.17A3.11,3.11,0,0,1,144.88,113.49Z"/><path class="cls-30" d="M82.58,320.81l-9.86,13.72,5.64,6.69,10.2-2.82,4.93-15.13Z"/><path class="cls-15" d="M72.72,334.53l-8.8,12,22.18-.35,2.46-7.75Z"/><path class="cls-21" d="M93.49,346.15l3.87-14.08-3.87-8.8L88.56,338.4l1.06,7.75Zm76.38-40.48-5.63,14.43,6.68,12.32h1.41l4.22-16.89Z"/><path class="cls-30" d="M157.9,309.9l-3.17,9.5,6.69,4.57,8.8-3.52-.35-14.78Z"/><path class="cls-15" d="M154.73,319.4l-3.87,14.07,20.06-1.05-.7-12Z"/><path class="cls-6" d="M329.66,305l-45.05-3.87-85.88,24.28,78.49,8.45Z"/><path class="cls-35" d="M212.46,95.54,219.85,154l41.53,1.76,3.87-27.45,1.41-34.14L254,87.1Z"/><path class="cls-36" d="M256.81,105.05l-8.1,6.33-7.39,12.32h-9.15l-5.63-12-10.21-7.39,3.17-4.22,8.44.35,2.47,3.17,4.57,4.22,6-3.52,1.76-2.46,7.74-1.76Z"/><path class="cls-37" d="M230.41,103.64l1.76,20.06h9.15L241,104.34Z"/><path class="cls-36" d="M284.61,168.4,287.78,117,273,113.49l-6-20.06-6.69,23.94,1.06,38.36-6.33,13,17.24,3.17Z"/><path class="cls-35" d="M283.2,130.39l3.87-20.77-14.78-1.05V129Z"/><path class="cls-17" d="M258.21,80.06l1.41,15.84.7,21.47,13.73-12L285,89.21l-16.89-4.93Z"/><path class="cls-17" d="M269.48,80.76l23.93,9.86L287.78,117l-4.93-7.74-10.56-.7v12.32l-12-3.52,21.83-25Z"/><path class="cls-38" d="M224.78,132.5l27.45,1.06-5.63,9.85-16.19-.7Z"/><path class="cls-22" d="M229,135l19,.7-1.41,2.81H230.76Z"/><path class="cls-38" d="M283.2,138.48v-8.09L272.29,129Zm-6.68-16.54-.36-8.45,4.58.36Z"/><path class="cls-17" d="M256.81,105.05l1.05-3.87L246.25,98l-3.52,3.87Zm-28.87-4.58L224.42,97l-9.15,3.52,1.06,3.87Z"/><path class="cls-20" d="M211.75,88.51l-1.05-6.34,26-15.14,18.66,4.58L258.57,85Z"/><path class="cls-21" d="M332.83,184.24l-39.07,17.95-8.09-40.12,29.21,3.52L329,167.35Z"/><path class="cls-20" d="M293.76,82.87l-.35,7.75L259.62,95.9l-9.86-7L258.57,85l15.83-8.44Z"/><path class="cls-21" d="M210.7,82.17l1.76,13.37,47.16.36L258.57,85Z"/><path class="cls-15" d="M276.16,67l6,4.93,11.61,10.91L258.57,85l.35-13.37Z"/><path class="cls-28" d="M311.71,61.75l37,.36-14.43,26.4L282.15,72Z"/><path class="cls-26" d="M348.67,62.11l-4.22,98.2-31.33,13.37-13.73-52.79,15.84-47.52Z"/><path class="cls-27" d="M283.91,181.78l-1.41-21.47L282.15,72l33.08,1.41-1.05,48.22-1.06,52.09-20.41.71Z"/><path class="cls-21" d="M236.74,67h39.42L258.57,85Z"/><path class="cls-38" d="M241.67,155l28.86,1.05-6.68,12.67-15.49.36Z"/><path class="cls-20" d="M292.35,163.12l-14.78,5.63H255.05l-21.47,65.12,22.17,27.45,41.53-18.65-3.52-40.48Z"/><path class="cls-36" d="M333.18,138.84l-.35,45.4-19.71-10.56,9.15-36.6,9.15-6.34Zm5.64-10.92-11.27.71-8.45-3.87v-13l13.73,2.47Z"/><path class="cls-35" d="M333.18,138.84l-10.91-1.76-3.17-12.32,19.72,3.16Z"/><path class="cls-36" d="M300.1,169.11l-10.56,7.39L285.67,179l-7-3.52-1.06-6.69,9.15-12,14.43-2.12Z"/><path class="cls-35" d="M306.79,153.62l-6.69,15.49-13.38-12.32,9.86-10.91Z"/><path class="cls-21" d="M228.65,170.86l19.71-1.75,6.69-.36,3.87,35.55-2.11,50-13,6.68-15.13-15.84Z"/><path class="cls-21" d="M260,185.3l-1.76,35.55-29.56-3.53,8.8-18.3Z"/><path class="cls-36" d="M289.89,153.62l-7.39,1-4.93,14.08Z"/><path class="cls-35" d="M285.67,179l-3.17,2.82-29.92,28.86-12-20.42,37-21.47,4.22,5.28Z"/><path class="cls-26" d="M282.5,181.78l-4.58,4.57L268.42,174l5.63-3.52Z"/><path class="cls-27" d="M281.09,177.2l-3.17-3.87L273,174.39l-2.82,4.92,3.17,3.88,5.63-.35Z"/><path class="cls-38" d="M237.09,129l4.23-4.93h-9.5Z"/><path class="cls-26" d="M307.14,87.1l-18.66-.71-.35,41.18L308.19,129Z"/><path class="cls-18" d="M224.42,107.51a2.78,2.78,0,0,1,2.82,2.82,2.82,2.82,0,0,1-5.63,0A2.77,2.77,0,0,1,224.42,107.51Zm24.29.71a2.77,2.77,0,0,1,2.81,2.81,2.82,2.82,0,1,1-5.63,0A2.77,2.77,0,0,1,248.71,108.22Z"/><path class="cls-10" d="M251.88,289.48,235,279.63l2.82-5.28,19-.71,3.51,4.22Zm25.69,13.73L273,300.39l-9.86-8.8-3.52-3.52,12.67-14.78,9.15,6.34L291,290.54l-1.41,15.83Z"/><path class="cls-21" d="M291,290.54l5.27,3.16L293.41,318l-15.49,2.11-1.4-3.87,9.5-9.15Z"/><path class="cls-15" d="M277.57,303.21l-1.05,13,12.31-2.46L291,290.54Z"/><path class="cls-17" d="M281.44,279.63l15.84-37L260,253.93l-15.84,15.49,8.45,9.15L267,282.44Z"/><path class="cls-17" d="M228.65,245.13l6.33,34.5,17.6-1.06,6-34.49Z"/><path class="cls-10" d="M268.07,317.29l13.37-37.66-28.86-1.06-3.52,28.86,5.63,10.21Z"/><path class="cls-15" d="M268.07,317.29l-2.47,8.44-17.24-2.81-15.84-7,16.54-8.45Z"/><path class="cls-21" d="M265.6,325.73,264.55,330l-33.79-9.86,1.76-4.22Z"/><path class="cls-10" d="M228.65,245.13l26.75,18.3,41.88-20.76Z"/><path class="cls-15" d="M228.65,170.86l23.93,39.78-23.93,6.68-14.78-21.11Z"/><path class="cls-27" d="M318.4,80.41l3.87-1.76-.35,11.26-3.87,1.76ZM324,78l7.74-3.52L331.42,86l-7.74,3.17Zm9.5-4.23L337.76,72l-.35,11.62-4.23,1.76Zm3.53,14.08-9.16,4.58,9.16,13.72Z"/></svg>