<svg id="illustration" xmlns="http://www.w3.org/2000/svg" viewBox="0 0 900 350"><defs><style>.cls-1{fill:#ececeb;}.cls-2{fill:#c4c4c4;}.cls-3{fill:#858686;}.cls-4{fill:#a3a3a3;}.cls-5{fill:#dddddc;}.cls-6{fill:#96637c;}.cls-21,.cls-7{fill:#734d60;}.cls-8{fill:#d1a1b8;}.cls-9{fill:#b3889d;}.cls-10{fill:#6f7173;}.cls-11,.cls-18,.cls-20,.cls-32{fill:#2b2b2b;}.cls-11{opacity:0.1;}.cls-12{fill:#8f8f8f;}.cls-13{fill:#543042;}.cls-14{fill:#785d88;}.cls-15{fill:#594165;}.cls-16{fill:#a688ba;}.cls-17,.cls-22{fill:#9075a0;}.cls-19,.cls-23{fill:#fff;}.cls-20,.cls-21,.cls-22,.cls-23{fill-rule:evenodd;}.cls-20{opacity:0.15;}.cls-24{fill:#474747;}.cls-25{fill:#9da1a2;}.cls-26{fill:#a9846c;}.cls-27{fill:#c2917d;}.cls-28{fill:#f5cab3;}.cls-29{fill:#4f5253;}.cls-30{fill:#fde4d5;}.cls-31{fill:#fff0e8;}.cls-32{opacity:0.2;}.cls-33,.cls-38{fill:none;}.cls-33{stroke:#785d88;stroke-miterlimit:10;}.cls-34{fill:#c3987b;}.cls-35{fill:#8b6651;}.cls-36{fill:#dfbda5;}.cls-37{fill:#e8cab6;}.cls-39{fill:#a27e6e;}</style></defs><title>analysts_Architect_INTJ_weaknesses</title><g id="clouds"><polygon class="cls-1" points="31.67 41.55 68.54 21.32 96.52 32.55 138.28 33.55 150.98 42.88 94.23 51.48 59.76 45.88 31.67 41.55"/><polygon class="cls-2" points="150.98 42.88 127.41 54.1 69.51 58.71 31.67 41.55 68.54 39.21 105.23 45.88 150.98 42.88"/><polygon class="cls-1" points="332.51 24.63 355.05 10.5 416.25 18.66 384.5 31 332.51 24.63"/><polygon class="cls-2" points="332.51 24.63 343.76 34.67 358.44 34.67 383 41.33 409.45 33.54 416.25 18.66 383 24.63 332.51 24.63"/><polygon class="cls-1" points="814.78 33.79 838 27 879 48.46 846.11 53.68 807.33 52.85 777.45 38.33 814.78 33.79"/><polygon class="cls-2" points="879 48.46 856.53 68.12 826.55 69.86 789.17 57.16 777.45 38.33 811.24 50.68 879 48.46"/></g><g id="trees"><polygon class="cls-3" points="40 215 39 195.67 44.33 195.33 47.67 215 40 215"/><polygon class="cls-4" points="25 196.33 45.01 199.3 63.67 182 38.67 187.67 12.66 184 25 196.33"/><polygon class="cls-2" points="12.66 184 21.33 172.63 44.69 172.83 63.67 182 38.17 189.39 12.66 184"/><polygon class="cls-4" points="21.33 172.63 20 165.54 41.83 161.42 53.67 161.82 63.67 182 44.69 175.26 21.33 172.63"/><polygon class="cls-2" points="28.33 162.19 33.67 152.81 42.67 150.5 50.36 151.7 53.67 161.82 47.77 162.47 28.33 162.19"/><polygon class="cls-4" points="50.36 151.7 52.1 145.34 40.22 143.55 28.33 145.34 33.67 152.81 50.36 151.7"/><polygon class="cls-2" points="28.33 145.34 40.22 134.25 52.1 145.34 28.33 145.34"/><polygon class="cls-5" points="38.17 189.39 63.67 182 44.69 175.26 12.66 184 38.17 189.39"/><polygon class="cls-5" points="33.67 152.81 47.77 162.47 20 165.54 33.67 152.81"/><polygon class="cls-3" points="845.33 244.06 846.2 225.9 840 225.26 840 243.92 845.33 244.06"/><polygon class="cls-4" points="846.2 230.32 833.41 225.31 826.02 219.1 817.43 211.88 846.2 214.02 866 208.81 860 220.67 846.2 230.32"/><polygon class="cls-2" points="817.43 211.88 828.79 203.21 841.71 207.54 866 208.81 847.66 216.46 817.43 211.88"/><polygon class="cls-4" points="828.79 203.21 827.45 194.5 841.71 197.67 872 203.21 866 208.81 840.83 208.81 828.79 203.21"/><polygon class="cls-2" points="872 203.21 857.96 188.88 837.5 190.06 827.45 194.5 839.5 196.04 844.75 198.79 872 203.21"/><polygon class="cls-4" points="827.45 194.5 845 193.25 857.96 188.88 857.96 184.78 847.66 183.75 834.73 186 827.45 194.5"/><polygon class="cls-2" points="834.73 186 853.88 175 857.96 184.78 834.73 186"/><polygon class="cls-5" points="847.66 216.46 840.83 208.81 817.43 211.88 847.66 216.46"/><polygon class="cls-5" points="857.96 188.88 844.75 198.79 827.45 194.5 857.96 188.88"/><polygon class="cls-3" points="392.89 159.68 391.33 149.84 394.67 150.34 395.5 159.23 392.89 159.68"/><polygon class="cls-4" points="391.63 151.7 398.67 149.84 400.33 144.97 391.67 146.76 383 146.47 391.63 151.7"/><polygon class="cls-2" points="383 146.47 384.5 140.9 390.83 142.1 397.17 142.42 400.33 144.97 391.63 147.87 383 146.47"/><polygon class="cls-4" points="397.17 142.42 397.83 138.29 390.42 136.71 383 138.29 384.5 140.9 390.83 143.92 397.17 142.42"/><polygon class="cls-2" points="397.83 138.29 394.08 127.83 388.17 129.52 383 138.29 397.83 138.29"/><polygon class="cls-5" points="388.17 129.52 397.83 138.29 394.5 125.74 388.17 129.52"/><polygon class="cls-5" points="397.17 142.42 391.63 147.87 384.5 140.9 390.67 143.01 397.17 142.42"/></g><g id="house"><polygon class="cls-6" points="221.97 0 199.1 33.79 194.12 66.84 200.44 65 225 33.75 221.97 0"/><polygon class="cls-7" points="265.06 52.45 283.04 31.33 240.75 31 218.97 33.54 194.12 66.84 221.97 71.92 240.55 71.92 265.06 52.45"/><polygon class="cls-8" points="266.56 69.99 263.86 38.33 224.08 41.33 222.25 54.75 225.14 73.94 266.56 69.99"/><polygon class="cls-6" points="225.14 73.94 209.7 73.94 208 65.65 224.08 41.33 225.14 73.94"/><polygon class="cls-9" points="283.04 31.33 221.97 0 218.97 33.54 283.04 31.33"/><polygon class="cls-9" points="375.33 159.23 371.99 103.46 187.67 114.96 187.67 190.06 375.33 159.23"/><polygon class="cls-7" points="371.99 103.46 392.99 92.06 175.62 101.95 177.17 123.42 371.99 103.46"/><polygon class="cls-6" points="392.99 92.06 340.35 55.82 170.25 68.64 166.51 106.09 392.99 92.06"/><polygon class="cls-1" points="347.96 113.48 362.41 112.38 363.38 127.65 348.92 128.89 347.96 113.48"/><polygon class="cls-7" points="350.44 115.54 354.63 115.4 355.05 120.43 350.71 120.77 350.44 115.54"/><polygon class="cls-7" points="356.7 120.08 356.7 115.27 360.48 114.85 360.83 119.81 356.7 120.08"/><polygon class="cls-7" points="350.92 122.49 355.12 122.08 355.39 126.28 351.12 126.83 350.92 122.49"/><polygon class="cls-7" points="356.77 121.94 360.69 121.6 361.1 125.93 357.11 126 356.77 121.94"/><polygon class="cls-1" points="319.88 116.39 334.33 115.29 335.29 130.57 320.84 131.81 319.88 116.39"/><polygon class="cls-7" points="322.35 118.46 326.55 118.32 326.96 123.34 322.63 123.69 322.35 118.46"/><polygon class="cls-7" points="328.62 123 328.62 118.18 332.4 117.77 332.75 122.72 328.62 123"/><polygon class="cls-7" points="322.83 125.41 327.03 125 327.31 129.19 323.04 129.75 322.83 125.41"/><polygon class="cls-7" points="328.69 124.86 332.61 124.51 333.02 128.85 329.03 128.92 328.69 124.86"/><polygon class="cls-1" points="237.21 45.56 251.66 44.46 252.63 59.74 238.17 60.98 237.21 45.56"/><polygon class="cls-7" points="239.69 47.62 243.88 47.49 244.3 52.51 239.96 52.85 239.69 47.62"/><polygon class="cls-7" points="245.95 52.17 245.95 47.35 249.73 46.94 250.08 51.89 245.95 52.17"/><polygon class="cls-7" points="240.17 54.58 244.37 54.16 244.64 58.36 240.37 58.91 240.17 54.58"/><polygon class="cls-7" points="246.02 54.02 249.94 53.68 250.35 58.02 246.36 58.09 246.02 54.02"/><polygon class="cls-1" points="349.63 137.81 364.08 136.71 365.04 151.99 350.59 153.23 349.63 137.81"/><polygon class="cls-7" points="352.1 139.87 356.3 139.74 356.71 144.76 352.38 145.1 352.1 139.87"/><polygon class="cls-7" points="358.37 144.42 358.37 139.6 362.15 139.19 362.5 144.14 358.37 144.42"/><polygon class="cls-7" points="352.58 146.83 356.78 146.41 357.06 150.61 352.79 151.16 352.58 146.83"/><polygon class="cls-7" points="358.44 146.28 362.36 145.93 362.77 150.27 358.78 150.34 358.44 146.28"/><polygon class="cls-1" points="321.71 140.73 336.16 139.63 337.13 154.9 322.67 156.14 321.71 140.73"/><polygon class="cls-7" points="324.19 142.79 328.38 142.65 328.8 147.68 324.46 148.02 324.19 142.79"/><polygon class="cls-7" points="330.45 147.33 330.45 142.52 334.23 142.1 334.58 147.06 330.45 147.33"/><polygon class="cls-7" points="324.67 149.74 328.87 149.33 329.14 153.53 324.87 154.08 324.67 149.74"/><polygon class="cls-7" points="330.52 149.19 334.44 148.85 334.85 153.18 330.86 153.25 330.52 149.19"/><polygon class="cls-1" points="295.59 142.54 310.05 141.44 311.01 156.72 296.56 157.96 295.59 142.54"/><polygon class="cls-7" points="298.07 144.61 302.27 144.47 302.68 149.5 298.35 149.84 298.07 144.61"/><polygon class="cls-7" points="304.33 149.15 304.33 144.33 308.12 143.92 308.46 148.88 304.33 149.15"/><polygon class="cls-7" points="298.55 151.56 302.75 151.15 303.03 155.34 298.76 155.9 298.55 151.56"/><polygon class="cls-7" points="304.4 151.01 308.32 150.66 308.74 155 304.75 155.07 304.4 151.01"/></g><g id="ground"><polygon class="cls-2" points="274.7 350 608.61 305.69 772.13 309.3 794.01 232.49 778.16 229 760.2 227.02 672.71 208.81 569.95 161.32 535.74 160.35 498.77 164.2 413.93 156.89 304.62 163.79 240.55 173.7 78.77 205.79 20 223.45 47.63 262 87 295.53 175.62 315.93 274.7 350"/><polygon class="cls-4" points="608.61 305.69 794.01 232.49 843.34 243.36 856.53 244.06 869.57 248.89 900 255.85 767.77 324.68 608.61 305.69"/><polygon class="cls-4" points="177.17 269.54 87 295.53 274.7 350 229.03 302 177.17 269.54"/><polygon class="cls-4" points="375.33 200.48 322.61 217.16 47.63 262 0 221.42 78.77 205.79 212.52 199.59 217.33 200.48 326.5 190.5 346.02 182.79 375.33 200.48"/><polygon class="cls-4" points="367.5 175.58 439.47 162.19 461.99 158.08 535.74 160.35 508.31 171.44 416.25 191.67 367.5 175.58"/><polygon class="cls-4" points="760.2 227.02 422.91 259.17 399.33 259.17 367.5 245.19 566.35 207.52 697.75 205.45 760.2 227.02"/><polygon class="cls-5" points="608.61 305.69 367.5 245.19 444.27 198.63 335.78 161.82 316.63 162.99 371.47 199.56 177.17 269.54 274.7 350 608.61 305.69"/></g><g id="tree"><polygon class="cls-10" points="738.38 204.63 738.25 176 741.95 173.52 748.94 177.52 744.17 213.84 738.38 204.63"/><polygon class="cls-10" points="739.5 208.81 746.41 172.63 751.5 175.38 744.53 211.05 739.5 208.81"/><polygon class="cls-11" points="708.58 274.78 787.65 260.52 822.96 268.71 861.56 275.86 839.55 287.32 811.72 283.16 762.3 288.33 708.58 274.78"/><polygon class="cls-10" points="777.45 231.51 791.35 183.06 782.43 180.07 775.47 205.57 773.52 224.35 777.45 231.51"/><polygon class="cls-3" points="773.52 224.35 782.43 180.07 775.47 180.07 770.32 203.77 770.32 217.52 773.52 224.35"/><polygon class="cls-10" points="770.32 217.52 775.47 180.07 763.99 182.13 765.43 200.8 770.32 217.52"/><polygon class="cls-10" points="756.59 276.65 768.46 235.74 774.28 242.6 772.17 265.03 766.42 278.23 756.59 276.65"/><polygon class="cls-10" points="774.28 242.6 780.61 243.92 780.61 267.32 777.45 280.08 766.42 278.23 774.28 242.6"/><polygon class="cls-3" points="777.45 280.08 787.65 278.23 780.61 243.92 777.45 280.08"/><polygon class="cls-12" points="787.65 278.23 760.2 227.02 763.99 209.89 777.45 235.74 789.59 267.32 787.65 278.23"/><polygon class="cls-10" points="789.59 267.32 791.35 257.99 765.43 200.8 763.99 209.89 789.59 267.32"/><polygon class="cls-7" points="791.35 183.06 833.41 171.71 851.89 129.51 777.67 164.02 692.37 135.86 705.12 165.87 764.11 183.75 791.35 183.06"/><polygon class="cls-10" points="760.2 219.28 738.38 204.63 738.11 219.56 760.2 227.02 760.2 219.28"/><polygon class="cls-6" points="851.89 129.51 829.18 118.13 782.55 132.08 712.73 120.53 692.37 135.86 777.67 167.87 851.89 129.51"/><polygon class="cls-9" points="782.43 137.22 851.89 129.51 777.67 167.87 782.43 137.22"/><polygon class="cls-9" points="782.43 137.22 692.37 135.86 706.35 119.48 745.77 120.45 782.43 137.22"/><polygon class="cls-7" points="829.18 118.13 821.79 93.12 780.61 98.8 706.7 109.24 706.35 119.48 782.43 137.22 829.18 118.13"/><polygon class="cls-6" points="821.79 93.12 826.55 69.86 767.77 84.36 698.25 84.36 706.7 109.24 782.55 105.35 821.79 93.12"/><polygon class="cls-9" points="826.55 69.86 782.55 105.35 698.25 84.36 765.43 66.05 826.55 69.86"/><polygon class="cls-8" points="698.25 84.36 722.01 45.93 772.13 62.16 811.24 50.68 826.55 69.86 698.25 84.36"/><polygon class="cls-6" points="811.24 50.68 814.78 33.79 769.53 36.78 722.01 45.93 763.99 76.93 811.24 50.68"/><polygon class="cls-8" points="722.01 45.93 745.77 25 782.43 25 814.78 33.79 722.01 45.93"/><polygon class="cls-9" points="782.43 25 764.77 0 745.77 25 760.2 33.79 782.43 25"/><polygon class="cls-6" points="782.43 25 745.77 25 755.4 41.56 782.43 25"/><polygon class="cls-3" points="760.2 227.02 738.38 204.63 762.3 217.52 760.2 227.02"/></g><g id="squirrel"><rect class="cls-6" x="766.06" y="237.01" width="67.22" height="8" transform="translate(889.27 -589.37) rotate(79.39)"/><rect class="cls-13" x="795.78" y="209.22" width="0.88" height="3.76" transform="translate(857.05 -610.38) rotate(79.39)"/><rect class="cls-13" x="796.48" y="212.92" width="0.88" height="3.76" transform="translate(861.25 -608.05) rotate(79.39)"/><rect class="cls-13" x="797.17" y="216.62" width="0.88" height="3.76" transform="translate(865.46 -605.71) rotate(79.39)"/><rect class="cls-13" x="797.86" y="220.32" width="0.88" height="3.76" transform="translate(869.66 -603.37) rotate(79.39)"/><rect class="cls-13" x="798.56" y="224.02" width="0.88" height="3.76" transform="translate(873.87 -601.03) rotate(79.39)"/><rect class="cls-13" x="799.25" y="227.72" width="0.88" height="3.76" transform="translate(878.07 -598.7) rotate(79.39)"/><rect class="cls-13" x="799.95" y="231.42" width="0.88" height="3.76" transform="translate(882.27 -596.36) rotate(79.39)"/><rect class="cls-13" x="800.64" y="235.12" width="0.88" height="3.76" transform="translate(886.48 -594.02) rotate(79.39)"/><rect class="cls-13" x="801.33" y="238.83" width="0.88" height="3.76" transform="translate(890.68 -591.68) rotate(79.39)"/><rect class="cls-13" x="802.03" y="242.53" width="0.88" height="3.76" transform="translate(894.88 -589.35) rotate(79.39)"/><rect class="cls-13" x="802.72" y="246.23" width="0.88" height="3.76" transform="translate(899.09 -587.01) rotate(79.39)"/><rect class="cls-13" x="803.41" y="249.93" width="0.88" height="3.76" transform="translate(903.29 -584.67) rotate(79.39)"/><rect class="cls-13" x="804.11" y="253.63" width="0.88" height="3.76" transform="translate(907.49 -582.33) rotate(79.39)"/><rect class="cls-13" x="804.8" y="257.33" width="0.88" height="3.76" transform="translate(911.7 -580) rotate(79.39)"/><rect class="cls-13" x="805.49" y="261.03" width="0.88" height="3.76" transform="translate(915.9 -577.66) rotate(79.39)"/><rect class="cls-13" x="806.19" y="264.73" width="0.88" height="3.76" transform="translate(920.1 -575.32) rotate(79.39)"/><rect class="cls-13" x="806.88" y="268.43" width="0.88" height="3.76" transform="translate(924.31 -572.98) rotate(79.39)"/><polygon class="cls-7" points="852.59 262 869.57 248.89 854.17 243.63 852.59 262"/><polygon class="cls-6" points="869.57 248.89 843.49 243.4 853.74 231.51 869.57 248.89"/><polygon class="cls-6" points="873.67 216.46 875.65 234.06 857.96 226.58 873.67 216.46"/><polygon class="cls-14" points="828.92 234.06 852.59 262 846.11 268.5 835.35 276.52 820.34 263.27 819.33 250.6 828.92 234.06"/><polygon class="cls-15" points="834.73 258.7 819.33 250.6 816.87 263.27 834.73 258.7"/><polygon class="cls-14" points="814.64 224.78 799.38 217.72 797.64 221.94 800.38 223.94 813.08 230.32 814.64 224.78"/><polygon class="cls-16" points="799.38 217.72 794.34 218.45 794.34 221.94 795.66 225.44 800.38 223.94 799.38 217.72"/><polygon class="cls-14" points="794.34 218.45 792.23 222.53 795.66 225.44 794.34 218.45"/><polygon class="cls-14" points="816.87 263.27 807.99 263.69 806.75 262.86 807.01 258.43 818.09 256.98 818.09 259.49 816.87 263.27"/><polygon class="cls-16" points="807.01 258.43 801.92 258.86 801.73 263.27 803.31 265.17 807.99 263.69 807.01 258.43"/><polygon class="cls-14" points="801.92 258.86 803.31 265.17 799.71 262.91 801.92 258.86"/><polygon class="cls-15" points="819.55 275.73 817.57 275.73 814.67 274.36 814.67 271.59 826.94 267.32 831.49 274.67 819.55 275.73"/><polygon class="cls-14" points="831.49 272.43 819.55 275.73 820.61 278.23 821.96 279.29 835.35 279.29 831.49 272.43"/><polygon class="cls-16" points="846.11 268.5 834.73 258.7 816.87 263.27 835.35 279.29 846.11 268.5"/><polygon class="cls-16" points="819.55 275.73 821.96 279.29 816.87 279.29 819.55 275.73"/><polygon class="cls-17" points="814.67 271.59 817.57 275.73 811.72 275.86 814.67 271.59"/><polygon class="cls-17" points="832.61 250.25 816.87 263.27 818.09 256.98 826.02 247.41 828.79 242.6 832.61 250.25"/><polygon class="cls-17" points="828.92 246.03 819.33 250.6 810.79 243.91 807.93 240.48 809.23 235.73 814.64 224.78 828.92 227.02 828.92 246.03"/><polygon class="cls-15" points="809.23 235.74 810.16 239.82 810.79 243.92 806.75 240.75 809.23 235.74"/><ellipse class="cls-18" cx="816.03" cy="244.05" rx="1.71" ry="1.72"/><ellipse class="cls-18" cx="814.13" cy="234.06" rx="1.71" ry="1.72"/><polygon class="cls-7" points="828.92 234.06 823.66 226.19 827.87 223.94 828.92 234.06"/><polygon class="cls-7" points="828.79 242.6 826.02 247.41 832.61 250.25 832.35 247.1 828.79 242.6"/><polygon class="cls-6" points="828.92 234.06 833.41 225.31 826.02 219.1 828.92 234.06"/><polygon class="cls-6" points="828.79 242.6 835.92 246.82 833.95 252.94 828.79 242.6"/><polygon class="cls-7" points="843.49 243.4 873.67 216.46 847.66 216.46 843.49 243.4"/></g><g id="bench"><polygon class="cls-11" points="545.58 313.76 410 278.59 419.9 274.61 449.66 255.91 581.81 268.33 640.67 277.33 608.61 305.69 545.58 313.76"/><polygon class="cls-15" points="603.01 291.95 584.79 288.33 579.51 274.43 606.42 267.32 603.01 291.95"/><polygon class="cls-16" points="556.83 269.54 498.03 262.74 432.63 239.93 472.9 224.5 508.31 224.5 605.13 253.22 556.83 269.54"/><polygon class="cls-16" points="507.32 199.7 610.34 215.59 631.7 207.25 508.31 183.02 482.22 190.38 507.32 199.7"/><polygon class="cls-17" points="605.13 253.22 609.11 240.76 610.34 215.59 508.31 196.87 482.22 190.38 472.9 224.5 605.13 253.22"/><polygon class="cls-17" points="556.83 269.54 557.49 284.04 552.58 306.74 534.11 302.5 531.46 286.69 452.52 267.32 452.52 280.5 434.88 276.33 432.63 239.93 556.83 269.54"/><polygon class="cls-14" points="631.7 207.25 618.05 260.34 622.21 286.15 603.01 291.95 599.57 275.48 574.74 283.25 576.43 297.61 552.58 306.74 556.83 269.54 605.13 253.22 610.34 215.59 631.7 207.25"/><polygon class="cls-14" points="508.31 196.87 501.21 230.65 503.99 231.25 510.88 197.34 508.31 196.87"/><polygon class="cls-14" points="520.61 234.86 527.56 200.4 530.78 200.99 523.8 235.55 520.61 234.86"/><polygon class="cls-14" points="540.63 239.21 547.84 204.12 550.53 204.62 543.94 239.93 540.63 239.21"/><polygon class="cls-14" points="560.79 243.59 566.35 207.52 569.95 208.18 563.51 244.18 560.79 243.59"/><polygon class="cls-14" points="581.81 248.16 586.86 214.29 590.82 213.63 584.37 248.71 581.81 248.16"/><polygon class="cls-14" points="593.49 250.69 599.57 214.06 602.47 214.47 596.3 251.3 593.49 250.69"/><polygon class="cls-14" points="571.61 245.94 577.4 208.93 580.17 209.28 574.08 246.48 571.61 245.94"/><polygon class="cls-14" points="556.96 205.79 559.58 206.28 553.44 241.99 550.53 241.36 556.96 205.79"/><polygon class="cls-14" points="533.99 237.77 539.92 202.67 536.96 202.13 531.55 237.24 533.99 237.77"/><polygon class="cls-14" points="513.34 233.28 520.61 199.3 517.87 198.63 510.88 232.75 513.34 233.28"/></g><g id="flowers"><polygon class="cls-11" points="655.64 293 665.32 289.79 674.33 294.44 664.08 295.94 655.64 293"/><polygon class="cls-15" points="664.3 294.44 660.55 279.17 667.62 279.27 664.3 294.44"/><polygon class="cls-6" points="649.11 275.06 666.74 283.28 676.6 270.25 649.11 275.06"/><polygon class="cls-19" points="661.74 275.74 667.62 275.74 664.68 279.17 661.74 275.74"/><polygon class="cls-11" points="119.83 281.99 110.15 278.78 101.14 283.43 111.39 284.93 119.83 281.99"/><polygon class="cls-15" points="111.17 283.43 114.92 268.15 107.85 268.26 111.17 283.43"/><polygon class="cls-6" points="126.37 264.04 108.73 272.27 98.87 259.24 126.37 264.04"/><polygon class="cls-19" points="113.73 264.73 107.85 264.73 110.79 268.15 113.73 264.73"/><polygon class="cls-11" points="723.75 296.99 712.5 299.16 724 302.5 733 299.83 723.75 296.99"/><polygon class="cls-15" points="724 300.49 718.5 287.43 724 285.86 724 300.49"/><polygon class="cls-6" points="719.97 290.91 733 282.79 707 281.32 719.97 290.91"/><polygon class="cls-19" points="717.17 284.16 723 284.95 720 287.43 717.17 284.16"/><polygon class="cls-11" points="64.06 225.28 59.29 226.2 64.16 227.61 67.98 226.48 64.06 225.28"/><polygon class="cls-15" points="64.16 226.76 61.83 221.22 64.16 220.56 64.16 226.76"/><polygon class="cls-6" points="62.45 222.7 67.98 219.25 56.95 218.63 62.45 222.7"/><polygon class="cls-19" points="61.27 219.84 63.74 220.17 62.47 221.22 61.27 219.84"/><polygon class="cls-11" points="779.13 303.29 787.46 300.95 794.4 304.96 785.07 307.62 779.13 303.29"/><polygon class="cls-15" points="786.55 304.96 786.55 291.73 789.85 291.73 786.55 304.96"/><polygon class="cls-6" points="789.05 294.94 775.13 286.29 795.02 280.63 789.05 294.94"/><polygon class="cls-19" points="784.11 286.95 788.79 286.95 787.29 290.23 784.11 286.95"/><polygon class="cls-11" points="45.34 237.72 40.43 236.35 36.33 238.71 41.83 240.28 45.34 237.72"/><polygon class="cls-15" points="40.96 238.71 40.96 230.91 39.02 230.91 40.96 238.71"/><polygon class="cls-6" points="39.49 232.8 47.7 227.7 35.97 224.36 39.49 232.8"/><polygon class="cls-19" points="42.4 228.09 39.64 228.09 40.52 230.02 42.4 228.09"/><polygon class="cls-11" points="718.86 247.43 723.86 246.73 728.91 248.13 723.27 249.15 718.86 247.43"/><polygon class="cls-15" points="723.27 249.15 721.8 241.13 724.85 242.67 723.27 249.15"/><polygon class="cls-6" points="716.38 237.64 724.41 244.48 731.62 239.81 716.38 237.64"/><polygon class="cls-19" points="722.7 240.53 726.28 240.53 724 242.15 722.7 240.53"/><polygon class="cls-11" points="172.99 299.71 164.67 302.62 174.04 304.7 179.33 301.5 172.99 299.71"/><polygon class="cls-15" points="172 303.43 171.27 292.5 174.92 292.5 172 303.43"/><polygon class="cls-6" points="174.04 295.53 162.92 290.67 181.3 286.67 174.04 295.53"/><polygon class="cls-19" points="170.25 291.1 174.92 290.17 173.09 292.5 170.25 291.1"/><polygon class="cls-20" points="143.04 267.21 153.6 264.06 159.46 268.48 147.94 271.19 143.04 267.21"/><polygon class="cls-21" points="149.15 268.48 147.02 255.84 151 255.84 149.15 268.48"/><polygon class="cls-22" points="147.69 259.84 138.14 253.75 153.91 249.52 161.71 258.15 147.69 259.84"/><polygon class="cls-23" points="147.02 254.68 151 253.75 153.6 255.62 149.93 256.49 147.02 254.68"/><polygon class="cls-20" points="66.94 250.39 74.34 248.06 79.64 250.39 74.03 252.65 66.94 250.39"/><polygon class="cls-21" points="74.77 251.27 73.36 240.7 70.27 241.43 74.77 251.27"/><polygon class="cls-22" points="65.44 245.21 73.63 242.69 79.64 235.98 66.6 237.65 65.44 245.21"/><polygon class="cls-23" points="69.34 239.41 72.54 239.36 71.06 241.24 68.44 241.43 69.34 239.41"/><polygon class="cls-20" points="191.55 226.78 196.35 224.93 202.11 226.78 195.35 228.5 191.55 226.78"/><polygon class="cls-21" points="195.62 227.69 194.55 222.18 197.08 222.18 195.62 227.69"/><polygon class="cls-22" points="196.64 223.83 190.47 221.44 197.08 216.89 203.61 221.18 196.64 223.83"/><polygon class="cls-23" points="195.35 220.36 197.42 219.74 199.22 220.36 197.08 222.18 195.35 220.36"/><polygon class="cls-20" points="667.69 259.71 678.49 256.64 686.82 259.71 678.49 264 667.69 259.71"/><polygon class="cls-21" points="678.49 261.91 674.13 251.38 678.49 252.52 678.49 261.91"/><polygon class="cls-22" points="665.84 248.73 675.71 254.98 686.82 249.98 681.89 242.89 665.84 248.73"/><polygon class="cls-23" points="674.13 248.66 678.32 246.78 681.15 248.66 676.64 251.38 674.13 248.66"/><polygon class="cls-20" points="742.1 311.79 750.76 309.12 757.84 312.45 747.76 314.95 742.1 311.79"/><polygon class="cls-21" points="748.76 313.12 747.76 306.45 751.6 307.45 748.76 313.12"/><polygon class="cls-22" points="740.47 304.12 750.76 309.12 762.52 304.05 749.68 298.99 740.47 304.12"/><polygon class="cls-23" points="747.76 304.05 750.5 301.79 753.93 304.05 750.85 305.22 747.76 304.05"/></g><g id="speechbubble_copy" data-name="speechbubble copy"><g id="sky_copy" data-name="sky copy"><polygon class="cls-17" points="240.13 159.13 225.86 156.31 235.24 124.55 247.03 86.78 163.3 63 72.14 87.81 60.77 108.39 44.69 175.26 126.83 230.91 206.81 197.44 217.56 178.26 221.97 169.65 240.13 159.13"/><polygon class="cls-14" points="60.77 108.39 85.63 128.74 136.25 109.81 205.5 122.08 241.55 104.33 247.03 86.78 163.3 63 66.86 83.09 60.77 108.39"/><polygon class="cls-15" points="66.86 83.09 91.33 95.87 151.25 89.03 163.16 96.3 223.67 98.11 235.24 95.38 247.03 86.78 163.48 55.3 66.86 83.09"/><circle class="cls-16" cx="210.75" cy="137.63" r="9.91"/><polygon class="cls-17" points="197.57 140.81 226.06 138.91 224.95 143.22 197.57 143.22 197.57 140.81"/><polygon class="cls-17" points="197.57 137.37 222.3 138.17 222.3 135.67 199.56 135.67 197.57 137.37"/></g><g id="mobydick"><polygon class="cls-2" points="146.75 95 151.25 89.03 161.71 92.06 163.16 96.3 153.38 98.11 146.75 95"/><polygon class="cls-6" points="189.21 153.08 155.75 151.7 146.13 161.86 166.51 159.46 189.21 153.08"/><polygon class="cls-19" points="186.82 135.87 187.07 139.42 184.07 137.63 184.07 141.06 181.75 139.11 182.08 143.22 178.69 141.06 179.5 144.58 176.42 142.51 177.17 146.76 173.56 144.34 174.17 148.42 170.5 146.29 170.83 149.75 167.99 147.9 168.5 151 165.69 149.37 165.69 152.11 163.23 150.93 163.67 153.83 160.58 152.63 160.58 155.81 158.17 154.17 157.88 157.33 155.23 156.05 155.23 158.75 152.71 157.65 152.71 160.17 149.87 159.46 150.21 161.03 146.13 161.86 168.25 145.58 186.82 135.87"/><polygon class="cls-19" points="189.21 153.08 187.07 150.58 186.67 153.59 184.58 151 184.58 154.02 182.64 151.33 181.74 154.6 179.42 151.7 179.42 155.07 177.17 152.58 176.74 155.62 174.67 153.08 174.17 156.14 172.25 153.5 171.6 156.67 169.58 154.17 169.01 157.19 166.6 154.83 166.07 157.79 164.67 155.42 163.96 158.22 161.5 156.31 161 158.83 159 156.89 157.88 159.46 156.58 157.89 155.38 159.97 170.33 157.89 189.21 153.08"/><polygon class="cls-19" points="99.86 138.91 85.63 128.74 146.75 95 163.16 96.3 186.82 135.87 131.22 144.97 99.86 138.91"/><polygon class="cls-5" points="146.13 161.86 186.82 135.87 85.63 128.74 101 155.9 107.85 167.72 138.14 178.26 149.01 168.72 146.13 161.86"/><polygon class="cls-2" points="70.23 172.7 78.84 191.2 86.94 196.94 118.18 197.35 141.8 170.73 85.63 128.74 70.23 172.7"/><polygon class="cls-2" points="141.8 170.73 146.13 161.86 189.21 153.08 156.95 166.87 141.8 170.73"/><circle class="cls-24" cx="140.44" cy="155.81" r="2.31"/><polygon class="cls-25" points="141.8 170.73 125.17 180.82 123.23 164.2 110.33 180.82 110.33 188.13 120.91 188.13 125.12 199.3 138.14 178.26 189.21 153.08 141.8 170.73"/><polygon class="cls-19" points="123.23 164.2 106 175.26 110.33 180.82 116.78 178.75 123.23 164.2"/><polygon class="cls-5" points="123.23 164.2 110.33 180.82 117.83 182.79 123.23 164.2"/></g><g id="ship_copy" data-name="ship copy"><polygon class="cls-4" points="182.64 168.15 183.81 177.03 193.3 175.92 192 167.36 182.64 168.15"/><polygon class="cls-14" points="189.62 179.96 187.51 165.37 186.25 165.9 188.69 180.81 189.62 179.96"/><polygon class="cls-2" points="186.67 160.92 188.65 173.25 202.25 171.75 199.67 160.5 186.67 160.92"/><polygon class="cls-14" points="197.3 176.94 193.58 157.89 192.7 159.46 196.14 177.43 197.3 176.94"/><polygon class="cls-14" points="211.81 174.63 203.51 173.52 180.75 181.97 186 185.75 207.25 183.75 211.81 174.63"/><polygon class="cls-14" points="192.7 159.46 192 156.31 197.3 156.89 192.7 159.46"/><polygon class="cls-4" points="196.06 163.5 197.77 172.23 206.81 171.35 205.19 163.08 196.06 163.5"/><polygon class="cls-14" points="203.78 175 201.14 161.94 200 161.97 202.74 175.5 203.78 175"/></g><g id="sea_copy_2" data-name="sea copy 2"><polygon class="cls-9" points="192.7 206.85 196.99 202.79 206.42 200.04 207.88 193.77 214.11 185.01 214.11 182.79 217.56 178.26 213.63 181.97 207.88 182.49 191.55 184.25 176.42 188.08 164.67 182.79 150.63 188.75 137.05 191.33 121.75 186.63 103.44 187.71 99.86 175.58 74.08 166.49 60.62 169.02 44.69 175.26 55.49 184.37 124.83 236.35 192.7 206.85"/><polygon class="cls-6" points="55.48 184.37 123.12 241.43 192.7 206.86 196.99 202.79 206.81 199.86 214.11 185.01 195.35 197.44 156.95 195.87 147.02 202.79 126 196.78 107.85 204.75 94.05 186.09 69.77 178.75 55.48 184.37"/><polygon class="cls-6" points="58.77 174.92 76.54 171.22 83.58 177.28 76.37 177.28 58.77 174.92"/><polygon class="cls-8" points="99.86 175.58 72.94 164.2 60.62 169.02 75.97 169.02 99.86 175.58"/><polygon class="cls-8" points="58.77 174.92 83.58 177.28 95.64 180.82 69.77 178.75 58.77 174.92"/><polygon class="cls-8" points="217.56 178.26 207.88 182.49 191.55 182.79 176.42 188.08 191.55 188.08 207.88 182.49 214.11 185.01 217.56 178.26"/><polygon class="cls-8" points="164.67 182.79 149.17 191.67 128.17 191.67 122.83 188.58 103.44 187.71 121.67 185.57 137.05 191.33 164.67 182.79"/><polygon class="cls-8" points="149.17 191.67 176.42 188.08 156.95 195.87 139.33 195.87 149.17 191.67"/><polygon class="cls-9" points="147.02 202.79 167.33 204.01 147.67 209.33 126.83 209.33 147.02 202.79"/><polygon class="cls-9" points="86.94 196.94 107.85 204.75 114.67 212.33 135.67 216.91 111.3 216.91 101 206.06 86.94 196.94"/><polygon class="cls-9" points="195.35 197.44 167.33 204.01 192.7 206.85 206.81 199.86 195.35 197.44"/><polygon class="cls-8" points="123.12 193.77 128.17 191.67 139.33 195.87 123.12 193.77"/><polygon class="cls-6" points="191.55 188.08 174.17 193.77 193.3 192.63 207.88 182.49 191.55 188.08"/><polygon class="cls-6" points="103.44 187.71 123.66 193.86 107.85 195.33 103.44 187.71"/></g></g><g id="thought_bubble"><g id="bubble"><polygon class="cls-5" points="529.35 78.03 610.34 10.5 715.96 55.73 738.25 176 652.3 237.59 566.35 207.52 518.73 134.53 529.35 78.03"/><polygon class="cls-5" points="519.54 62.84 537.21 47.7 517.48 29.02 504.48 47.7 519.54 62.84"/><polygon class="cls-5" points="488.86 66.12 498.78 61.49 502.65 70.86 494.07 76.74 488.86 66.12"/></g><g id="head_copy" data-name="head copy"><polygon class="cls-26" points="615.63 106.54 583.75 101.79 577.22 93.04 579.52 77.24 640.74 88.37 615.63 106.54"/><polygon class="cls-27" points="579.52 77.24 532.01 101.79 556.29 117.96 583.75 101.79 579.52 77.24"/><polygon class="cls-28" points="613.51 103.37 583.75 101.79 556.29 114.79 585.88 118.6 603.02 114.15 613.51 103.37"/><polygon class="cls-29" points="532.01 101.79 585.88 118.6 575.3 140.01 540.45 123.94 532.01 101.79"/><polygon class="cls-24" points="575.3 140.01 597.02 131.82 585.88 118.6 575.3 140.01"/><polygon class="cls-27" points="693.56 106.32 640.74 88.37 585.88 118.6 645.52 134.69 693.56 106.32"/><polygon class="cls-26" points="640.74 88.37 644.81 123.03 699.48 101.79 640.74 88.37"/><g id="Layer_16" data-name="Layer 16"><polygon class="cls-17" points="600.07 120.14 600.07 68.92 638.19 69.28 632.76 123.71 616.41 127.66 600.07 120.14"/><polygon class="cls-14" points="632.47 72.04 644.66 65.46 677.9 61.23 682.43 107.43 661.5 122.64 632.76 123.71 632.47 72.04"/><polygon class="cls-16" points="600.07 68.92 634.87 56.65 677.9 61.23 632.47 72.04 600.07 68.92"/><polygon class="cls-15" points="636.67 77.09 650.89 73.85 651.97 91.31 637.75 94.97 636.67 77.09"/><polygon class="cls-19" points="639.38 79.13 648.49 76.43 649.94 89.5 639.77 92.73 639.38 79.13"/><polygon class="cls-14" points="642.92 84.7 646.08 80.53 647.02 81.47 644.29 84.63 645.72 86.64 644.36 87.5 642.92 84.7"/><polygon class="cls-15" points="637.73 99.61 651.85 96.12 652.38 113.89 638.04 118.11 637.73 99.61"/><polygon class="cls-19" points="640.15 101.04 650 99.37 650 113.01 640.06 114.59 640.15 101.04"/><polygon class="cls-14" points="645.85 105.54 648.44 110.08 647.21 110.58 645.38 106.82 643.05 109.23 642 107.64 645.85 105.54"/><polygon class="cls-16" points="668.22 94.18 655.02 87.98 656.47 73.46 669.14 68.31 677.06 81.25 668.22 94.18"/><polygon class="cls-14" points="669.19 74.29 673.23 80.89 665.93 81.77 669.19 74.29"/><polygon class="cls-14" points="666.28 73.15 664.7 80.72 660.21 75.17 666.28 73.15"/><polygon class="cls-14" points="658.63 78.34 664.08 82.57 657.92 85.2 658.63 78.34"/><polygon class="cls-14" points="659.42 87.23 664.96 83.89 666.02 90.13 659.42 87.23"/><polygon class="cls-14" points="672.27 83.71 666.46 83.36 668.31 89.25 672.27 83.71"/><polygon class="cls-16" points="662.41 79.57 666.46 77.9 668.92 82.13 666.28 86 662.15 84.41 662.41 79.57"/><polygon class="cls-19" points="606.71 77.2 625.63 78.78 625.1 94.36 606.18 92.07 606.71 77.2"/><polygon class="cls-14" points="606.18 84.8 609.2 81.59 609.93 84.22 612.98 83.19 614.4 86.28 617.71 82.82 619.9 86.23 625.67 86.07 625.45 87.18 619.76 87.15 617.58 84.53 614.28 87.93 612.45 84.94 608.77 85.46 608.72 83.6 606.17 85.73 606.18 84.8"/><path class="cls-15" d="M604.42,74.21V93.48l23,2.9.44-19.45Zm19.71,19-17-1.76-.44-13.55,18.92.88Z"/><polygon class="cls-15" points="668.13 98.67 676.23 96.03 677.46 105.53 668.31 108.35 668.13 98.67"/><polygon class="cls-14" points="656.65 64.17 667.56 62.16 657.12 61.11 648.29 63.3 656.65 64.17"/><polygon class="cls-6" points="672.53 100.96 693.47 93.04 694.18 96.73 672.35 104.3 672.53 100.96"/><polygon class="cls-7" points="694.18 96.73 683.09 90.57 684.5 86.88 694.53 92.86 694.18 96.73"/><polygon class="cls-6" points="683.09 90.57 696.82 88.81 697.52 85.47 684.5 86.88 683.09 90.57"/><polygon class="cls-7" points="696.82 88.81 686.61 82.83 686.43 78.78 697.52 85.47 696.82 88.81"/><polygon class="cls-6" points="686.61 82.83 698.05 78.25 696.46 74.73 686.43 78.78 686.61 82.83"/><polygon class="cls-7" points="698.05 78.25 684.67 75.61 683.62 71.74 696.46 74.73 698.05 78.25"/><polygon class="cls-6" points="684.67 75.61 695.76 66.46 692.42 64.17 683.62 71.74 684.67 75.61"/><polygon class="cls-7" points="695.76 66.46 682.74 68.05 681.33 64.88 692.42 64.17 695.76 66.46"/><polygon class="cls-6" points="682.74 68.05 688.19 57.66 685.02 55.73 681.33 64.88 682.74 68.05"/><polygon class="cls-7" points="685.02 55.73 672.79 60.69 677.9 61.23 688.19 57.66 685.02 55.73"/><polygon class="cls-6" points="677.9 61.23 668.13 51.67 664.08 51.67 672.79 60.69 677.9 61.23"/><polygon class="cls-7" points="664.08 51.67 655.46 62.64 659.55 62.94 668.13 51.67 664.08 51.67"/><polygon class="cls-8" points="657.39 96.85 662.38 95.62 662.52 98.72 657.54 100.1 657.39 96.85"/><polygon class="cls-8" points="657.85 102.14 662.72 100.78 662.78 103.93 657.85 105.39 657.85 102.14"/><polygon class="cls-8" points="657.96 107.45 662.94 105.99 663.05 108.97 658.17 110.43 657.96 107.45"/><polygon class="cls-7" points="604.57 97.17 607.5 97.65 607.5 100.73 604.34 100.26 604.57 97.17"/><polygon class="cls-7" points="609.87 97.88 612.8 98.12 612.64 101.6 609.55 100.89 609.87 97.88"/><polygon class="cls-7" points="615.17 98.67 617.94 98.83 617.62 102.23 614.77 101.6 615.17 98.67"/><polygon class="cls-7" points="620.15 99.23 623 99.47 622.76 102.87 619.99 102.31 620.15 99.23"/><polygon class="cls-7" points="625.29 99.94 627.98 100.18 627.98 103.42 625.05 102.94 625.29 99.94"/><polygon class="cls-7" points="604.72 103.14 607.62 103.75 607.49 106.83 604.35 106.22 604.72 103.14"/><polygon class="cls-7" points="609.98 104.08 612.89 104.45 612.59 107.92 609.54 107.07 609.98 104.08"/><polygon class="cls-7" points="615.24 105.1 618 105.38 617.54 108.76 614.72 108.01 615.24 105.1"/><polygon class="cls-7" points="620.19 105.87 623.03 106.23 622.64 109.61 619.9 108.94 620.19 105.87"/><polygon class="cls-7" points="625.3 106.8 627.98 107.15 627.84 110.39 624.93 109.79 625.3 106.8"/><polygon class="cls-15" points="604.74 109.07 607.64 109.69 607.17 121.9 604.66 121.9 604.74 109.07"/><polygon class="cls-15" points="610 110.05 612.91 110.43 612.06 122.49 609.48 121.96 610 110.05"/><polygon class="cls-15" points="615.16 110.81 617.67 111.41 617.07 123.02 614.76 122.82 615.16 110.81"/><polygon class="cls-15" points="620.2 111.9 622.48 112.33 622.22 123.28 619.51 123.02 620.2 111.9"/><polygon class="cls-15" points="625.12 112.66 627.97 113.24 627.9 124.08 625.12 123.94 625.12 112.66"/><polygon class="cls-19" points="623.03 60.82 616.36 47.94 628.87 37.01 640.31 47.55 635.62 60.06 630.21 61.89 623.03 60.82"/><polygon class="cls-6" points="628.33 62.33 627.2 56.12 622.8 49.44 635.21 48.56 632.31 55.6 632.22 62.11 631.25 62.2 630.9 55.6 632.22 50.84 625.79 50.76 628.43 55.77 630.21 61.89 628.33 62.33"/><polygon class="cls-14" points="621.62 66.11 630.21 66.99 633.44 65.14 634.87 62.64 630.21 61.89 623.03 60.82 621.62 66.11"/><polygon class="cls-15" points="630.21 61.89 630.21 66.99 636.67 65.28 635.62 60.06 630.21 61.89"/></g><polygon class="cls-30" points="699.48 101.79 709.38 187.05 672.71 193.37 655.29 210.84 625.81 204.57 598.16 155.34 614.21 141.57 632.47 123.94 699.48 101.79"/><polygon class="cls-28" points="672.71 193.37 648.02 199.27 640.39 133.63 632.76 123.71 622.3 122.57 597.02 126.35 598.16 155.34 604.95 171.9 609.23 175.03 609.04 181.9 622.16 213.95 657.17 213.55 657.87 203.4 672.71 193.37"/><polygon class="cls-28" points="697.26 130.69 677.9 161.46 656.23 139.13 664.63 130.5 673.76 130.58 684.37 129.7 691.6 129.53 697.26 130.69"/><polygon class="cls-31" points="684.37 129.7 686.95 160.29 677.9 161.46 673.76 130.58 684.37 129.7"/><polygon class="cls-27" points="686.95 160.29 682.74 165.09 677.9 161.46 686.95 160.29"/><polygon class="cls-27" points="672.71 193.37 638.58 198.54 657.17 213.55 672.71 193.37"/><polygon class="cls-27" points="604.94 171.89 617.51 168.3 609.04 181.9 604.94 171.89"/><polygon class="cls-27" points="605.16 157.85 612.28 156.42 613.51 163.24 605.16 157.85"/><polygon class="cls-27" points="689.13 169.9 661.5 171.19 672.54 182.88 684.13 182.67 689.13 169.9"/><polygon class="cls-19" points="667.67 173.43 684.99 172.66 683.96 176.63 670.19 177 667.67 173.43"/><ellipse class="cls-18" cx="692.91" cy="144.48" rx="4.1" ry="3.28" transform="translate(495.77 824.29) rotate(-85.61)"/><ellipse class="cls-18" cx="665.45" cy="147.53" rx="4.1" ry="3.28" transform="matrix(0.08, -1, 1, 0.08, 467.39, 799.72)"/><polygon class="cls-10" points="585.88 118.6 603.23 130.66 620.29 132.08 622.3 122.57 585.88 118.6"/><polygon class="cls-29" points="620.29 132.08 632.47 162.31 622.65 166.41 615.6 150.31 598.16 155.34 585.88 118.6 620.29 132.08"/><polygon class="cls-29" points="656.23 139.13 653.45 136.47 660.8 126.43 674.02 127.08 673.76 130.58 665.42 131.27 656.23 139.13"/><polygon class="cls-29" points="684.37 129.7 684.72 125.1 698.99 127.28 697.26 130.69 684.37 129.7"/></g></g><g id="friend"><polygon class="cls-10" points="240.55 173.7 217.33 200.48 229.03 205.09 238.5 200.76 240.55 173.7"/><polygon class="cls-29" points="217.33 200.48 225.14 242.63 240.55 240.76 249.71 232.32 238.5 200.76 217.33 200.48"/><polygon class="cls-24" points="225.14 242.63 251.35 242.82 253.55 239.59 249.71 232.32 225.14 242.63"/><polygon class="cls-11" points="236.86 308.05 299.62 295.53 343.76 311.33 279.65 324.68 236.86 308.05"/><polygon class="cls-28" points="337.13 154.85 342.33 140.9 346.11 142.31 343.3 157.68 337.13 154.85"/><polygon class="cls-6" points="251.35 242.82 271.41 258.46 305.97 238.57 275.96 229.39 251.35 242.82"/><polygon class="cls-6" points="307.23 272.2 299.62 295.53 283.04 303.43 283.04 261.14 305.97 238.57 311.96 257.16 307.23 272.2"/><polygon class="cls-15" points="299.62 295.53 310.49 302.62 311.96 309.75 285.3 311.32 285.3 299.71 299.62 295.53"/><polygon class="cls-17" points="305.97 306.73 285.3 306.73 285.3 311.32 315.14 311.32 315.14 305.65 310.49 302.62 305.97 306.73"/><polygon class="cls-9" points="251.35 242.82 272.08 256.14 283.04 259.81 285.3 299.71 278.9 304.7 268.56 304.7 251.35 242.82"/><polygon class="cls-14" points="285.3 299.71 292.68 306.73 293.1 313.76 268.56 311.32 268.56 304.7 285.3 299.71"/><polygon class="cls-16" points="285.3 311.32 268.56 311.32 268.56 315.93 297.51 315.93 297.51 311.32 292.68 306.73 292.68 306.73 285.3 311.32"/><polygon class="cls-14" points="304.62 163.79 333.23 192.56 318.92 204.37 300.03 196.13 304.62 163.79"/><polygon class="cls-29" points="293.1 163.23 304.62 163.79 310.29 188.58 297.51 191.33 293.1 163.23"/><polygon class="cls-24" points="310.29 188.58 300.61 205.09 298.71 189.87 310.29 188.58"/><polygon class="cls-17" points="293.1 163.23 302.81 209.33 310.29 244.78 275.96 242.68 251.35 242.82 240.55 173.7 256.3 166.49 279.65 167.44 293.1 163.23"/><polygon class="cls-30" points="308.13 83.09 319.19 141.66 292.47 148.41 280.59 162.31 258.46 159.35 235.24 124.55 246.31 113.47 249.82 89.03 308.13 83.09"/><polygon class="cls-28" points="292.47 148.41 274.56 154.17 265.2 106.12 249.82 89.03 235.24 124.55 241.19 136.4 244.53 138.47 244.78 143.55 256.3 166.49 282.14 164.2 282.08 156.66 292.47 148.41"/><polygon class="cls-28" points="307.05 100.72 294.49 124.55 277.22 109.28 282.93 102.43 289.68 101.97 297.46 100.72 302.79 100.18 307.05 100.72"/><polygon class="cls-31" points="297.46 100.72 301.11 123.17 294.49 124.55 289.68 101.97 297.46 100.72"/><polygon class="cls-27" points="301.11 123.17 298.27 126.95 294.49 124.55 301.11 123.17"/><polygon class="cls-27" points="292.47 148.41 267.54 154.17 282.14 164.2 292.47 148.41"/><polygon class="cls-27" points="241.19 136.4 250.27 133.03 244.78 143.55 241.19 136.4"/><polygon class="cls-27" points="240.55 126.01 245.73 124.55 247.03 129.52 240.55 126.01"/><polygon class="cls-27" points="303.27 130.15 282.93 132.67 291.75 140.67 300.3 139.86 303.27 130.15"/><polygon class="cls-19" points="287.61 133.97 300.37 132.42 299.82 135.41 289.68 136.47 287.61 133.97"/><ellipse class="cls-18" cx="304.62" cy="111.15" rx="2.43" ry="3.04"/><ellipse class="cls-18" cx="284.51" cy="114.96" rx="2.43" ry="3.04"/><polygon class="cls-29" points="312.26 57.94 308.13 83.09 282.08 92.06 292.13 77.42 312.26 57.94"/><polygon class="cls-10" points="312.26 57.94 282.08 92.06 252.91 92.46 247.84 92.06 247.03 86.78 312.26 57.94"/><polygon class="cls-29" points="247.03 86.78 224.08 98.11 237.58 106.03 250.27 106.12 252.91 92.46 247.03 86.78"/><polygon class="cls-24" points="250.27 106.12 260.98 127.76 253.96 131.34 247.84 119.85 235.24 124.55 224.08 98.11 250.27 106.12"/><polygon class="cls-29" points="277.22 109.28 275.01 107.47 279.87 99.64 289.68 99.37 289.68 101.97 283.56 102.95 277.22 109.28"/><polygon class="cls-29" points="297.46 100.72 297.46 97.3 308.13 98.11 307.05 100.72 297.46 100.72"/><polygon class="cls-19" points="256.3 166.49 277.22 179.21 293.1 163.23 256.3 166.49"/><polygon class="cls-14" points="240.55 173.7 229.03 229.39 244.6 223.01 250.27 216.56 256.3 195.28 240.55 173.7"/><polygon class="cls-29" points="256.3 166.49 266.56 194.57 259.72 197.44 254.14 197.44 240.55 173.7 256.3 166.49"/><polygon class="cls-24" points="266.56 194.57 250.52 215.76 254.14 197.44 266.56 194.57"/><polygon class="cls-30" points="318.92 204.37 334.45 174.87 342.49 173.44 347.54 177.59 339.98 201.54 318.92 204.37"/><polygon class="cls-27" points="347.54 177.59 353.16 167.72 347.54 159.35 333.63 161.96 336.17 172.63 340.84 176.2 347.54 177.59"/><polygon class="cls-30" points="353.16 167.72 353.16 160.72 337.13 154.85 333.63 161.96 353.16 167.72"/><polygon class="cls-28" points="340.84 176.2 342.99 164.72 340.2 159.68 333.63 161.96 334.45 174.87 340.84 176.2"/><polygon class="cls-31" points="333.63 161.96 345.79 165.54 347.06 158.49 337.13 154.85 333.63 161.96"/><polygon class="cls-32" points="251.35 242.82 270.87 267.19 303.93 282.3 307.23 272.2 288.15 255.58 276.63 236.01 263.72 229.39 249.71 232.32 251.35 242.82"/><polygon class="cls-30" points="250.27 216.56 269.25 223.01 269.25 229.39 266.56 234.7 229.03 229.39 250.27 216.56"/><polygon class="cls-27" points="269.25 223.01 284.01 218.51 281.54 224.53 269.25 223.01"/><polygon class="cls-16" points="272.08 256.14 285.59 209.33 324.14 221.52 307.23 272.2 272.08 256.14"/><polygon class="cls-28" points="269.25 223.01 281.21 224.5 280.01 234.7 275.96 242.68 266.56 234.7 269.25 223.01"/><polygon class="cls-30" points="281.21 224.5 294.63 231.71 288.69 241.72 275.96 242.68 281.21 224.5"/><polygon class="cls-19" points="285.59 209.33 302.81 209.33 333.23 221.52 327.38 224.5 322.7 223.01 285.59 209.33"/><polygon class="cls-2" points="322.7 223.01 333.23 221.52 317.66 267.48 307.23 272.2 322.7 223.01"/><line class="cls-33" x1="290.85" y1="220.49" x2="312.44" y2="228.58"/><line class="cls-33" x1="289.14" y1="224.9" x2="310.73" y2="232.99"/></g><g id="character"><polygon class="cls-10" points="477.54 175.26 490.02 181.88 503.03 182.32 508.31 171.44 487.32 171.18 477.54 175.26"/><polygon class="cls-10" points="490.02 180.11 498.27 176.2 501.55 173.72 508.31 171.44 508.31 196.87 498.82 190.92 490.02 180.11"/><polygon class="cls-29" points="508.31 196.87 496.99 229.38 477.54 229.39 461.29 200.76 490.02 180.11 508.31 196.87"/><polygon class="cls-24" points="496.99 229.38 482.22 218.31 466.91 211.73 474.27 233.6 496.99 229.38"/><polygon class="cls-11" points="500.34 306.04 448.13 295.94 409.45 309.19 459.95 319.29 500.34 306.04"/><polygon class="cls-6" points="423.05 171.87 410.43 206.57 419.9 211.73 424.96 212.97 431.08 170.37 423.05 171.87"/><polygon class="cls-34" points="442.32 272.08 437.5 280.21 448.13 295.94 455.06 301.29 458.09 275.14 442.32 272.08"/><polygon class="cls-35" points="454.76 300.68 455.06 304.56 451.12 305.69 449.37 303.61 444.27 299.31 448.13 295.94 454.76 300.68"/><polygon class="cls-35" points="437.5 280.21 434.88 276.33 452.33 274.02 450.65 285.37 437.5 280.21"/><polygon class="cls-14" points="444.27 299.31 438.03 304.56 451.12 305.69 451.39 303.98 444.27 299.31"/><polygon class="cls-15" points="451.39 303.98 438.03 304.56 438.03 306.89 455.06 306.89 451.39 303.98"/><polygon class="cls-8" points="441.78 168.28 431.08 170.37 422.44 191.91 444.51 207.13 469.44 201.44 477.54 175.26 466.51 169.21 441.78 168.28"/><polygon class="cls-1" points="441.78 168.28 430.97 185.85 446.55 180.82 455.63 190.92 466.51 171.36 441.78 168.28"/><polygon class="cls-15" points="498.27 176.2 508.31 171.44 499.43 159.23 496.99 168.97 498.27 176.2"/><polygon class="cls-15" points="418.34 87.32 401.63 108.05 416.15 140.9 418.34 87.32"/><polygon class="cls-14" points="499.43 159.23 498.27 176.2 477.54 175.26 466.51 171.36 480.83 122.74 490.69 128.43 499.43 159.23"/><polygon class="cls-15" points="501.02 134.25 488.49 152.81 466.51 171.36 482.26 120.59 501.02 134.25"/><polygon class="cls-36" points="418.34 87.32 413.93 156.89 439.22 161.53 450.25 172.08 466.51 171.36 479.05 124.77 463.97 107.43 418.34 87.32"/><polygon class="cls-34" points="461.84 111.79 456.71 163.76 443.18 164.04 446.55 180.82 466.51 171.36 476.23 150.39 477.54 144.3 480.99 140.09 487.32 126.44 461.84 111.79"/><polygon class="cls-35" points="461.29 164.05 439.22 161.53 446.55 180.82 461.29 164.05"/><polygon class="cls-37" points="429.87 135.69 437.23 136.34 439.91 109.03 432.56 108.39 429.87 135.69"/><polygon class="cls-18" points="440.98 104.89 439.91 109.03 452.36 106.65 450.93 105.84 440.98 104.89"/><polygon class="cls-18" points="432.45 101.64 431.85 105.04 425.72 102.73 419.35 104.54 425.63 100.75 432.45 101.64"/><polygon class="cls-15" points="478.85 118.32 473.24 130.88 470.61 129.68 469.04 115.97 478.85 118.32"/><polygon class="cls-35" points="429.87 135.69 433.17 138.5 437.23 136.34 429.87 135.69"/><polygon class="cls-6" points="425.25 144.75 433.17 149.4 445.24 147.39 439.04 145.61 433.94 143.26 425.25 144.75"/><polygon class="cls-8" points="445.24 147.39 433.99 150.99 425.25 144.75 433.85 147.2 445.24 147.39"/><path d="M418.67,116.09c-.11,1.71.78,3.15,2,3.23s2.28-1.25,2.39-2.95-.79-3.16-2-3.23S418.77,114.38,418.67,116.09Z"/><polygon class="cls-17" points="499.43 159.23 466.51 171.36 501.02 134.25 499.43 159.23"/><polygon class="cls-36" points="471.03 135.81 480.98 140.08 487.32 126.44 477.65 121 471.03 135.81"/><polygon class="cls-34" points="440.96 123.84 445.61 115.9 457.79 116.98 459.46 114.18 439.56 112.53 438.46 123.55 440.96 123.84"/><path d="M441,118.68c-.11,1.7.78,3.15,2,3.23s2.28-1.25,2.39-3-.79-3.15-2-3.22S441.1,117,441,118.68Z"/><polygon class="cls-34" points="431.25 122.58 429.44 114.01 420.87 108.95 432.29 111.68 431.25 122.58"/><polygon class="cls-34" points="430.53 129.03 420.35 124.74 425.63 124.12 430.86 126.07 430.53 129.03"/><polygon class="cls-34" points="460.05 129.66 437.87 130.84 438.11 127.04 446.46 127.04 460.05 129.66"/><polygon class="cls-35" points="480.71 140.7 476.23 150.39 471.03 135.81 480.98 140.08 480.71 140.7"/><polygon class="cls-35" points="484.5 127.49 479.05 124.77 475.62 132.05 484.5 127.49"/><polygon class="cls-36" points="449.9 276.82 450.65 285.37 454.76 300.68 462.63 306.03 465.67 279.88 449.9 276.82"/><polygon class="cls-34" points="462.63 306.03 462.63 309.3 458.7 310.43 456.95 308.34 451.39 303.98 454.76 300.68 462.63 306.03"/><polygon class="cls-35" points="450.65 285.37 447.44 275.62 465.67 279.88 450.65 285.37"/><polygon class="cls-14" points="451.39 303.98 444.66 309.3 454.41 309.96 460.38 309.3 451.39 303.98"/><rect class="cls-15" x="444.66" y="309.3" width="17.98" height="2.33"/><polygon class="cls-35" points="417.86 94.85 450.27 105.47 430.4 91.63 418.32 87.34 417.86 94.85"/><polygon class="cls-9" points="424.39 194.41 470.09 205.72 469.73 207.93 452.74 218.12 428.79 229.05 424.39 194.41"/><polygon class="cls-6" points="469.73 207.93 428.79 229.05 449.27 231.31 464.24 228.99 469.73 207.93"/><polygon class="cls-7" points="473.94 231.31 468.48 239.24 450.23 258.04 419.9 274.61 428.79 229.05 473.94 231.31"/><polygon class="cls-6" points="419.9 274.61 467.05 239.04 471.03 233.6 474.27 233.6 465.67 279.88 419.9 274.61"/><polygon class="cls-15" points="503.03 102.48 476.47 71.43 426.87 66.28 461.82 88.02 503.03 102.48"/><polygon class="cls-14" points="520.85 110.95 501.02 134.25 411.49 83.47 422.28 76.39 428.91 71.49 520.85 110.95"/><polygon class="cls-16" points="520.85 110.95 411.49 83.47 421.06 63.52 520.85 110.95"/><polygon class="cls-38" points="416.25 120.7 416.94 109.81 430.97 111.6 429.88 122.49 416.25 120.7"/><polygon class="cls-38" points="456.92 125.74 438.46 123.55 439.56 112.53 458 114.84 456.92 125.74"/><polygon class="cls-6" points="456.92 125.74 458 114.84 439.56 112.53 439.91 109.03 461.84 111.79 460.05 129.66 438.11 127.04 438.46 123.55 456.92 125.74"/><polygon class="cls-6" points="413.67 105.84 432.63 108.22 432.29 111.68 416.94 109.81 416.25 120.7 431.25 122.58 430.89 126.07 412.54 123.75 413.67 105.84"/><polygon class="cls-6" points="477.54 175.26 490.02 180.11 482.22 218.31 469.06 210.48 469.03 199.56 477.54 175.26"/><polygon class="cls-29" points="467.05 185.57 470.09 172.63 477.54 175.26 469.03 199.56 464.95 193.58 467.05 185.57"/><polygon class="cls-29" points="431.08 170.37 422.44 191.91 428.27 189.89 430.97 185.85 441.78 168.28 431.08 170.37"/><polygon class="cls-35" points="424.39 195.87 418.74 199.7 424.64 215.21 424.39 195.87"/><polygon class="cls-14" points="422.44 191.91 462.63 189.89 467.05 239.04 426.87 238.88 422.44 191.91"/><polygon class="cls-19" points="422.44 191.91 430.97 185.85 467.05 185.57 465.25 191.91 461.11 191.38 422.44 191.91"/><polygon class="cls-2" points="467.05 185.57 474.27 233.6 467.05 239.04 461.11 191.38 467.05 185.57"/><polygon class="cls-32" points="425.31 222.24 456.55 218.31 472.01 217.16 472.56 222.24 466.09 231.31 425.74 226.84 425.31 222.24"/><polygon class="cls-16" points="425.31 222.24 433.55 209.28 410.43 206.57 425.31 222.24"/><polygon class="cls-39" points="453.73 221.73 454.82 215.58 453.45 208.48 430.97 207.93 425.31 222.24 453.73 221.73"/><polygon class="cls-34" points="453.73 221.73 465.11 223.45 465.67 218.31 463.34 209.28 453.45 210.48 453.73 221.73"/><polygon class="cls-35" points="465.11 223.45 472.01 217.16 471.54 215.43 463.34 209.28 465.11 223.45"/><polygon class="cls-16" points="469.03 199.56 457.29 200.76 451.6 212.21 464.21 216.28 482.22 218.31 469.03 199.56"/><polygon class="cls-36" points="457.29 200.76 464.21 216.28 436.17 213.35 431.57 209.1 436.17 202.38 457.29 200.76"/><polygon class="cls-36" points="436.17 202.38 429.48 197.89 422.91 196.87 423.24 200.4 429.13 202.73 436.17 202.38"/><polygon class="cls-34" points="436.17 202.38 418.74 199.7 422.44 213.58 436.17 213.35 436.17 202.38"/><polygon class="cls-6" points="445.65 16.79 463.41 12.77 468.87 33.03 456.93 37.19 457.7 45.04 451.33 46.81 449.09 34.06 460.29 28.58 457.45 21.6 445.63 23.99 445.65 16.79"/><polygon class="cls-6" points="453.2 52.44 458.66 49.64 461.92 57.58 454.54 59.72 453.2 52.44"/></g></svg>