<svg xmlns="http://www.w3.org/2000/svg" viewBox="0 0 900 350"><defs><style>.cls-1,.cls-27{fill:#2b2b2b;}.cls-1{opacity:0.1;}.cls-2{fill:#dddddc;}.cls-3{fill:#cfcfcd;}.cls-4{fill:#734d61;}.cls-5{fill:#9ca0a1;}.cls-6{fill:#858686;}.cls-7{fill:#b3889d;}.cls-8{fill:#96647c;}.cls-9{fill:#9075a0;}.cls-10{fill:#594265;}.cls-11{fill:#c4c4c4;}.cls-12{fill:#795d88;}.cls-13{fill:#a588b9;}.cls-14{fill:#51362a;}.cls-15{fill:#474748;}.cls-16{fill:#4f5353;}.cls-17{fill:#755446;}.cls-18{fill:#926d5a;}.cls-19{fill:#a3a3a3;}.cls-20{fill:#f5cbb3;}.cls-21{fill:#6f7273;}.cls-22{fill:#c1907c;}.cls-23{fill:#fde4d5;}.cls-24{fill:#737474;}.cls-25{fill:#8f8f8f;}.cls-26{fill:#fff0e9;}.cls-28{fill:#99796a;}.cls-29{fill:#66493b;}.cls-30{fill:#916a59;}.cls-31{fill:#b08d79;}.cls-32{fill:#b99e8e;}.cls-33{fill:#ececeb;}.cls-34{fill:#a9846c;}.cls-35{fill:#d1af96;}.cls-36{fill:#efd3c2;}.cls-37{fill:#f7e6dc;}.cls-38{fill:#8b6651;}.cls-39{fill:#c2987a;}.cls-40{fill:#dfbda5;}.cls-41{fill:#543042;}.cls-42{fill:#fff;}.cls-43{fill:#e9cbb7;}.cls-44{fill:#d1a1b9;}</style></defs><title>analysts_ENTJ_scene_med_stengths</title><g id="background"><polygon class="cls-1" points="168.85 291.5 231.83 309.14 106.53 328.24 0 311.37 22.9 307.65 100.33 275.29 168.85 291.5"/><polygon class="cls-2" points="15 0 319.08 45.5 334.67 154.01 328.67 258 0 311.37 15 0"/><polygon class="cls-3" points="845 202.47 822.5 225 356.8 192.61 360 74.96 857 74.96 845 202.47"/><polygon class="cls-2" points="841 95.5 822.5 85.98 371.85 84.77 363.5 50.98 882.5 24 878 90.05 841 95.5"/><polygon class="cls-4" points="799.71 239.37 815.5 238.25 819.75 262.31 808.67 268.5 796.33 254.75 799.71 239.37"/><polygon class="cls-1" points="585.67 228.83 625 233.83 592.63 254.75 558.67 246.53 585.67 228.83"/><polygon class="cls-5" points="716.67 199.25 674.5 189.04 674.5 122.8 751.33 123.4 748.5 196.33 716.67 199.25"/><polygon class="cls-6" points="685.17 205 685.17 134 740.33 134 740.33 193.96 685.17 205"/><polygon class="cls-7" points="673 205 662.67 191.67 701 183.17 720.67 196.33 673 205"/><polygon class="cls-8" points="676.33 219 661.33 225 659.5 261.86 726.33 264.6 730.38 219 676.33 219"/><polygon class="cls-4" points="679.67 213.71 661.33 225 711.33 228.83 711.33 216.25 679.67 213.71"/><polygon class="cls-8" points="706 194 662.67 191.67 662.67 219 707.67 222.31 706 194"/><polygon class="cls-9" points="797.08 212.06 809.67 215.25 805 239.37 785.33 237 781.56 219 797.08 212.06"/><polygon class="cls-10" points="806.88 199.13 809.67 206.67 809.67 215.25 785.62 225 781.56 202.08 806.88 199.13"/><polygon class="cls-11" points="882.5 26.84 870.33 33.5 822.5 85.98 823 201 822.5 225 859.56 264.6 875.67 267 882.5 26.84"/><polygon class="cls-12" points="774.67 161 771.83 157.08 762.75 173.17 775.13 195.35 774.67 161"/><polygon class="cls-9" points="783.25 158.5 780.4 153 771.83 157.08 771.5 189.04 777.42 207.75 788.75 206.75 796.33 161.17 783.25 158.5"/><polygon class="cls-9" points="810.83 162 817 160.02 827.67 186.5 816.58 193.13 806.09 185.79 810.83 162"/><polygon class="cls-12" points="817 160.02 809.67 206.67 788.75 206.75 790.83 160.25 797.5 158.92 803.33 152.17 817 160.02"/><polygon class="cls-13" points="827.67 186.5 823 201 807.38 193.83 803.33 187.42 806 185.25 827.67 186.5"/><polygon class="cls-14" points="777.87 145.33 780.4 153 783.23 157 790.83 160.25 797.92 148.17 777.87 145.33"/><polygon class="cls-15" points="792 102.75 775.17 96.33 764.5 109.25 799.83 115.67 796.33 106 792 102.75"/><polygon class="cls-16" points="797.83 101.83 792.67 95.5 775.17 96.33 796.33 111.5 797.83 101.83"/><polygon class="cls-15" points="806.88 112.25 810.25 103.5 792.67 95.5 796.33 111.5 806.88 112.25"/><polygon class="cls-16" points="795.5 121.83 796.33 111.5 810.25 103.5 814.17 118 799.5 125.07 795.5 121.83"/><polygon class="cls-15" points="797 119.67 800.17 118 814.17 118 811.92 125.07 802.75 135.13 794.33 131.81 797 119.67"/><polygon class="cls-14" points="796.83 131.09 807.38 139.41 808.67 135.13 806.33 128.77 796.83 131.09"/><polygon class="cls-17" points="801.83 132.83 807.38 139.41 803.33 152.17 795.5 160.25 790.83 160.25 795.5 150.67 789.4 149.84 786.67 135.13 796.33 111.5 800.17 118 798.67 128.19 806.38 129.56 801.83 132.83"/><polygon class="cls-18" points="764.5 109.25 760.33 146.33 789.4 149.84 796.33 111.5 764.5 109.25"/><polygon class="cls-17" points="770 118 774.5 119.67 775.88 124 780.4 119.67 785.83 119.67 789.4 120.75 779 131.81 766.33 118.83 770 118"/><polygon class="cls-19" points="748.5 157.18 761.75 154.01 778.5 205.75 788.75 206.75 797 271.83 761.75 268 748.5 157.18"/><polygon class="cls-2" points="721 175.5 699 158.5 707.5 153 761.75 154.01 753.5 162 721 175.5"/><polygon class="cls-3" points="699 158.5 688 268 768.94 274 753.5 162 699 158.5"/><polygon class="cls-10" points="636.09 235.83 646.42 242 643.17 258.33 630 256.17 628.11 243.67 636.09 235.83"/><polygon class="cls-12" points="633.5 218.17 651.83 214 646.42 242 628.11 243.67 625 228.83 633.5 218.17"/><polygon class="cls-12" points="612.45 233.5 606.13 240.33 606.13 254.75 621.38 254.75 625 243.67 612.45 233.5"/><polygon class="cls-9" points="628.42 218.33 630.88 227.17 625 243.67 606.13 240.33 605 217.5 628.42 218.33"/><polygon class="cls-10" points="612.45 211.67 605 217.5 630.88 227.17 651.83 214 648.88 200.25 612.45 211.67"/><polygon class="cls-9" points="633.5 167.88 635.09 164.63 643 172.25 646.38 176.13 638.63 176.13 633.5 167.88"/><polygon class="cls-12" points="626.94 187.13 628.11 162.66 635.09 164.63 641.75 181.91 626.94 187.13"/><polygon class="cls-12" points="613.63 170.5 605 162 598.88 168.63 605 202.38 605.7 211.67 605 217.5 637.25 211.67 626.94 181.38 636.09 178.75 625.84 167.88 613.63 170.5"/><polygon class="cls-9" points="621.38 164.5 623.81 172.25 634.55 175.5 634.13 171 626.38 160.25 621.38 164.5"/><polygon class="cls-20" points="650.13 180 659.5 185.5 657.45 195.52 654.25 199.13 650.13 180"/><polygon class="cls-7" points="649 183.38 650.13 171 634.13 171 618.98 181.67 649 183.38"/><polygon class="cls-8" points="628.61 183.75 633.5 179.38 650.13 171 653.39 181.91 653.75 191.33 657.45 195.52 659.5 202.38 637.25 211.67 628.61 183.75"/><polygon class="cls-4" points="618.98 181.67 633.5 179.38 637.25 211.67 618.98 204 618.98 181.67"/><polygon class="cls-9" points="598.88 168.63 610 201.67 596.13 199.25 593.88 174.81 598.88 168.63"/><polygon class="cls-21" points="619.44 110 632.25 109.25 640.13 118 603.88 124 605.7 113.38 619.44 110"/><polygon class="cls-16" points="605.7 113.94 614.41 106 632.25 109.25 606.13 120.75 605.7 113.94"/><polygon class="cls-21" points="602.25 121.88 597 117 614.41 106 606.13 120.75 602.25 121.88"/><polygon class="cls-16" points="597 129.94 597 117 606.13 120.75 606.13 131.81 600.13 133 597 129.94"/><polygon class="cls-21" points="605.13 134 603.13 129.75 597 117 592.63 137.94 604.13 142.06 605.13 134"/><polygon class="cls-20" points="598.88 147.63 599.38 151.5 605 162 614.38 171 618 165.38 612 140.19 606.13 120.75 603.13 129.75 604.38 137 597 139.88 598.88 147.63"/><polygon class="cls-22" points="597 143.75 597.13 146.88 599.38 151.5 603.13 144.81 597 143.75"/><polygon class="cls-22" points="632.25 154.01 623.81 172.25 615.25 168.88 610 161.25 613.88 160.25 632.25 154.01"/><polygon class="cls-23" points="606.13 120.75 640.13 118 643.88 156.25 613.88 160.25 606.13 120.75"/><polygon class="cls-21" points="631.13 140.19 627.75 142.06 621.38 147.69 623.13 150.06 632.75 149.5 638.63 148.19 638.63 144.06 633.5 142.06 631.13 140.19"/><polygon class="cls-20" points="621.5 129.75 615.25 131.81 627.75 142.06 638.63 129.75 636.5 128.19 632.75 129.94 629 134.44 624.5 130.94 621.5 129.75"/><polygon class="cls-15" points="629 137.94 627.75 142.06 630.88 144.81 633.5 142.06 629 137.94"/><polygon class="cls-4" points="573.75 191.49 587.75 200.25 599.25 237.39 560.75 254.75 540.75 242.34 562.25 191.49 573.75 191.49"/><polygon class="cls-8" points="537 192.13 483.92 192.61 463 248.89 560.5 252.5 562.25 201.67 537 192.13"/><polygon class="cls-24" points="549 177.42 562.25 148.19 572.49 147.63 576.96 157.08 578.03 161.37 579.5 167.25 580.56 171.49 587.75 200.25 562.25 201.67 549 177.42"/><polygon class="cls-5" points="475.62 183.02 475.62 183.02 499 198.5 562.25 201.67 562.25 148.19 556.86 144.81 538.84 148.96 524.17 149.52 522.25 136.19 482.92 150.67 476.67 150.67 475.62 183.02"/><polygon class="cls-19" points="353.93 219 365.5 236.1 865 264.92 862 301 342.5 248.42 340.67 225.5 353.93 219"/><polygon class="cls-25" points="373.5 45.5 365.5 236.1 350.33 243.5 332.33 227.17 334.67 48.5 373.5 45.5"/><path class="cls-3" d="M319.08,45.5,328.67,258,881,317.73,900,10.25ZM858.33,290.92l-508-47.42L342.5,59.75,870.33,33.5Z"/><polygon class="cls-2" points="249.84 194.58 249.84 215.97 264.78 201.36 249.84 194.58"/><polygon class="cls-26" points="624.5 130.94 627.75 142.06 633.5 142.06 632.75 129.94 624.5 130.94"/><polygon class="cls-16" points="624.5 127.69 614.38 128.94 615.25 131.81 624.5 130.94 624.5 127.69"/><polygon class="cls-16" points="639.13 126.44 632.25 126.44 632.75 129.94 638.63 129.75 639.13 126.44"/><path class="cls-27" d="M623.34,136a1.95,1.95,0,1,1-2-2A2,2,0,0,1,623.34,136Z"/><path class="cls-27" d="M638.25,134a2,2,0,1,1-2-1.95A2,2,0,0,1,638.25,134Z"/><path class="cls-27" d="M771.9,124.07a1.67,1.67,0,1,1-1.67-1.67A1.67,1.67,0,0,1,771.9,124.07Z"/><path class="cls-27" d="M784.9,125.07a1.67,1.67,0,1,1-1.67-1.67A1.67,1.67,0,0,1,784.9,125.07Z"/><polygon class="cls-13" points="605 162 623.81 172.25 612.88 180 605 162"/><polygon class="cls-23" points="592.63 137.94 600.63 135.13 603.13 144.81 597.13 146.88 592.63 137.94"/><polygon class="cls-22" points="596.13 140.19 599.13 139.13 600.13 142.63 596.13 140.19"/><polygon class="cls-22" points="638.63 148.19 635.69 150.42 624.5 151.5 623.13 150.06 638.63 148.19"/><polygon class="cls-20" points="634.25 186.25 642.25 186.25 642.25 194 636.09 201.67 632.25 193.25 634.25 186.25"/><polygon class="cls-23" points="621.13 198.5 625 191.67 634.25 186.25 636.09 201.67 628.78 201.75 621.13 198.5"/><polygon class="cls-13" points="596.13 199.25 625 191.67 628.78 201.75 605.7 211.67 596.13 199.25"/><polygon class="cls-23" points="648.88 188.72 653.39 181.91 657.45 195.52 652.35 195.52 648.88 188.72"/><polygon class="cls-14" points="775.33 128.19 772.75 131.17 775.33 134 779 131.81 775.33 128.19"/><polygon class="cls-28" points="774.5 119.67 772.75 131.17 779 131.81 780.4 119.67 774.5 119.67"/><polygon class="cls-15" points="767 115.67 775.17 116.63 774.5 119.67 766.33 118.83 767 115.67"/><polygon class="cls-15" points="781.57 116.63 789.4 117.67 789.4 120.75 780.4 119.67 781.57 116.63"/><polygon class="cls-14" points="768.56 136.19 783.23 139.13 781.56 140.19 770.23 138.19 768.56 136.19"/><polygon class="cls-13" points="790.83 160.25 801.33 167.88 803.33 152.17 790.83 160.25"/><polygon class="cls-13" points="780.4 153 790.83 160.25 780.4 165.83 780.4 153"/><polygon class="cls-18" points="803.33 124 801.83 132.83 808.67 135.13 811.92 125.07 803.33 124"/><polygon class="cls-14" points="809.08 126.74 805.25 126.44 804.92 130.05 809.08 126.74"/><polygon class="cls-29" points="556.86 127.27 558.96 132.77 561.16 135.58 566.8 137.69 571.54 128.66 556.86 127.27"/><polygon class="cls-16" points="565.72 95.82 553.26 91.71 545.93 101.47 571.85 104.95 568.98 98.04 565.72 95.82"/><polygon class="cls-21" points="569.93 94.96 565.96 90.52 553.26 91.71 569.16 102.04 569.93 94.96"/><polygon class="cls-16" points="576.86 102.23 579.02 95.75 565.96 90.52 569.16 102.04 576.86 102.23"/><polygon class="cls-21" points="568.9 109.58 569.16 102.04 579.02 95.75 582.36 106.17 571.92 111.81 568.9 109.58"/><polygon class="cls-16" points="569.92 107.96 572.17 106.64 582.36 106.17 580.96 111.39 574.62 119.01 568.39 116.88 569.92 107.96"/><polygon class="cls-29" points="570.18 116.28 578.14 121.97 578.93 118.81 577.02 114.27 570.18 116.28"/><polygon class="cls-30" points="573.88 117.38 578.14 121.97 575.62 131.39 570.19 137.53 566.8 137.69 569.87 130.56 565.4 130.17 562.92 119.55 569.16 102.04 572.17 106.64 571.42 114.1 577.08 114.84 573.88 117.38"/><polygon class="cls-31" points="545.93 101.47 544.14 128.59 565.4 130.17 569.16 102.04 545.93 101.47"/><polygon class="cls-30" points="550.22 107.65 553.55 108.71 554.7 111.82 557.85 108.51 561.8 108.33 564.43 109 557.23 117.4 547.58 108.38 550.22 107.65"/><path class="cls-27" d="M551.81,112a1.22,1.22,0,1,1-1.27-1.15A1.2,1.2,0,0,1,551.81,112Z"/><path class="cls-27" d="M561.3,112.3a1.22,1.22,0,1,1-1.27-1.16A1.21,1.21,0,0,1,561.3,112.3Z"/><polygon class="cls-29" points="554.44 114.88 552.66 117.14 554.64 119.11 557.23 117.4 554.44 114.88"/><polygon class="cls-32" points="553.55 108.71 552.66 117.14 557.23 117.4 557.85 108.51 553.55 108.71"/><polygon class="cls-24" points="553.94 106.48 553.55 108.71 547.58 108.38 553.94 106.48"/><polygon class="cls-24" points="558.59 106.26 564.43 109 557.85 108.51 558.59 106.26"/><polygon class="cls-29" points="549.79 120.93 560.56 122.58 556.65 125.67 552.66 125 549.79 120.93"/><polygon class="cls-31" points="574.68 110.9 573.88 117.38 578.93 118.81 580.96 111.39 574.68 110.9"/><polygon class="cls-29" points="578.95 112.7 576.15 112.61 576.03 115.25 578.95 112.7"/><polygon class="cls-33" points="777.42 169.5 804.08 171.08 802.5 202.08 779.08 199.58 777.42 169.5"/><polygon class="cls-17" points="796.33 183.17 790.25 187.25 790.25 192.67 798.42 194.92 800.58 189.83 796.33 183.17"/><polygon class="cls-18" points="806 185.25 796.33 183.17 798.42 194.92 807.38 193.83 806 185.25"/><polygon class="cls-8" points="801.86 239.58 763.68 235.83 763.68 259.07 809.67 261.73 808.67 247.08 801.86 239.58"/><polygon class="cls-7" points="815.5 238.25 791.96 232.07 763.68 235.83 808.67 247.08 815.5 238.25"/><polygon class="cls-4" points="518.67 129.01 533.67 139.95 524.17 149.52 510.17 149.92 506.67 138.76 509.92 132.64 518.67 129.01"/><polygon class="cls-8" points="472.17 130.76 482.92 150.67 510.17 149.92 518.67 129.01 472.17 130.76"/><polygon class="cls-11" points="479.25 71.66 498.5 65.26 518.75 73.52 498.5 79.47 479.25 71.66"/><polygon class="cls-33" points="490.5 71.66 499 69.77 506.25 72.36 497.25 75.01 490.5 71.66"/><polygon class="cls-11" points="574.13 61.69 593.38 55.29 613.63 63.55 593.38 69.5 574.13 61.69"/><polygon class="cls-33" points="585.38 61.69 593.88 59.8 601.13 62.4 592.13 65.04 585.38 61.69"/><polygon class="cls-11" points="685.17 71.69 704.42 65.28 724.67 73.54 704.42 79.49 685.17 71.69"/><polygon class="cls-33" points="696.42 71.69 704.92 69.79 712.17 72.39 703.17 75.03 696.42 71.69"/><polygon class="cls-11" points="784.33 55.07 803.58 48.67 823.83 56.93 803.58 62.87 784.33 55.07"/><polygon class="cls-33" points="795.58 55.07 804.08 53.17 811.33 55.77 802.33 58.42 795.58 55.07"/><polygon class="cls-25" points="506.17 163.13 550.33 163.99 546.67 188 505.5 184.5 506.17 163.13"/><polygon class="cls-12" points="570.9 136.73 575.62 131.39 580.96 139.13 582.36 149.1 577.49 154.01 576.96 157.08 562.25 148.19 554.95 143.17 566.8 137.69 570.9 136.73"/><polygon class="cls-9" points="562.25 138.64 558.96 132.77 554.95 134 549.84 148.55 562.17 148.19 566.8 137.69 562.25 138.64"/><polygon class="cls-13" points="572.49 142.06 575.62 131.39 566.8 137.69 572.49 142.06"/><polygon class="cls-13" points="560.56 142.63 566.8 137.69 558.96 132.77 560.56 142.63"/><polygon class="cls-33" points="551.81 121.97 558.32 123.3 556.01 124.67 553.26 124 551.81 121.97"/><polygon class="cls-12" points="542.92 139.13 554.95 134 549.84 148.55 542.92 139.13"/><polygon class="cls-13" points="540.1 133.59 549.84 148.55 538.84 148.96 531.78 133.69 540.1 133.59"/><polygon class="cls-9" points="588.58 152.92 580.96 139.13 577.49 154.01 583.04 160.02 588.58 152.92"/><polygon class="cls-13" points="577.49 162 587.34 150.67 592.63 159.08 579.28 167.25 577.49 162"/><polygon class="cls-1" points="571.83 168.93 579.17 165.93 580.56 171.49 571.83 168.93"/><polygon class="cls-31" points="574.29 162.58 575.35 162.24 575.54 161.37 578.03 161.37 579.5 167.25 575.54 168.63 573.46 166 574.29 162.58"/><polygon class="cls-30" points="570.29 165.46 574.29 162.58 575.54 168.63 571.83 168.93 570.29 165.46"/><polygon class="cls-30" points="573.92 160.02 578.03 161.37 575.35 162.24 573.92 161.13 573.92 160.02"/><polyline class="cls-33" points="519.29 111.11 522.29 131.24 537.88 129.8 536.18 110.47 519.29 111.11"/><polygon class="cls-30" points="525.22 130.97 533.32 137.01 540.1 133.59 535.83 127.75 531.78 127.27 525.22 130.97"/><polygon class="cls-31" points="526.76 122.49 525.22 130.97 535.83 127.75 533.05 123.3 526.76 122.49"/><polygon class="cls-11" points="509 165.93 509 182.25 543.42 184.5 546 166.58 509 165.93"/></g><g id="other_object" data-name="other object"><polygon class="cls-13" points="57.8 227.33 134.5 190 110.18 181.67 23.08 181.67 57.8 227.33"/><polygon class="cls-13" points="44.01 241.17 64 274 103.29 258.33 134.5 287.92 194.33 248.78 148.68 233.18 44.01 241.17"/><polygon class="cls-10" points="100.33 316.11 136.58 278.64 103.29 258.33 44.01 241.17 22.9 307.65 100.33 316.11"/><polygon class="cls-12" points="194.33 303.79 194.33 248.78 103.29 258.33 100.33 316.11 194.33 303.79"/><polygon class="cls-10" points="50.9 275.29 44.01 241.17 68.67 220.33 41 195.35 23.08 181.67 22.9 307.65 50.9 275.29"/><polygon class="cls-12" points="41 195.35 134.5 190 148.68 233.18 44.01 241.17 41 195.35"/><polygon class="cls-13" points="67.27 209.33 63 219 70.86 225 74.33 217.17 67.27 209.33"/><polygon class="cls-13" points="116.83 205.43 112.33 214 121.63 222.6 124 214.02 116.83 205.43"/><polygon class="cls-1" points="509 321 687.5 310.09 784.9 323.52 640.5 350 509 321"/><polygon class="cls-13" points="561.59 262.3 604.17 290.27 642.63 286.33 674.67 304.19 734.5 265.05 689.33 254.75 561.59 262.3"/><polygon class="cls-12" points="639.13 336.68 676.74 294.91 643.05 280.36 561.59 262.3 544.14 321.07 639.13 336.68"/><polygon class="cls-9" points="734.5 320.06 734.5 265.05 643.05 280.36 639.13 336.68 734.5 320.06"/><polygon class="cls-12" points="651.38 298 710 288.67 725 310.33 650.13 324.47 651.38 298"/><polygon class="cls-10" points="725 276.82 651.83 288.33 651.38 298 725 310.33 725 276.82"/><polyline class="cls-13" points="570 279.67 630 290.92 623.81 323.52 558.67 310.33 568.38 279.67"/></g><g id="_2nd_character" data-name="2nd character"><polygon class="cls-1" points="356.8 321.57 430.62 313.37 510.69 324.96 420.14 335.17 356.8 321.57"/><polygon class="cls-10" points="409.67 310.33 393.33 314.88 393.33 320.18 418.33 321 424 316.83 424 321 433 321 433 315.83 409.67 310.33"/><polygon class="cls-12" points="419.42 298 414.17 301.17 393.33 314.88 433 315.83 433 307.83 419.42 298"/><polygon class="cls-10" points="450.58 318.67 443 322.5 443 327 473.67 327 473.67 323.52 450.58 318.67"/><polygon class="cls-9" points="457.83 301 449.67 308.33 443 322.5 473.67 323.52 473.67 311.17 457.83 301"/><polygon class="cls-10" points="421.17 274 403.17 276.5 414.17 301.17 433 307.83 437.67 286.33 421.17 274"/><polygon class="cls-12" points="422.67 252 387.83 237.39 403.17 276.5 437.67 286.33 439.17 259.17 422.67 252"/><polygon class="cls-12" points="449.67 271.83 437.67 286.33 449.67 308.33 473.67 311.17 473.67 281.5 449.67 271.83"/><polygon class="cls-9" points="428.67 257 427.5 266.83 437.67 286.33 473.67 281.5 473.7 242.34 428.67 257"/><polygon class="cls-10" points="400 230 387.83 237.39 427.5 266.83 473.7 242.34 400 230"/><polygon class="cls-12" points="387.83 188 379.16 194.16 391.67 227.17 396.67 191.67 387.83 188"/><polygon class="cls-13" points="401 161.67 394.43 158.5 379.16 194.16 399.67 196.33 401 161.67"/><polygon class="cls-9" points="487.17 190 499 198.5 468.83 235.83 468.83 191.49 487.17 190"/><polygon class="cls-13" points="466 166.17 476.67 150.67 499 198.5 470.67 198.5 466 166.17"/><polygon class="cls-9" points="413.33 160.71 413.25 143.65 394.43 158.5 387.83 237.39 421.17 239.33 440.5 179.83 424.83 159.33 413.33 160.71"/><polygon class="cls-12" points="439.67 166.5 424 170.19 421.17 239.33 473.7 242.34 476.67 150.67 457 140.75 439.67 166.5"/><polygon class="cls-33" points="439 184.5 436.33 212.5 461.17 216 463 187 439 184.5"/><polygon class="cls-34" points="443.25 88.44 464.17 108.02 461.88 118.21 446 113.99 443.25 88.44"/><polygon class="cls-35" points="424 151.25 436.5 167.25 450 155.75 457 140.75 461.88 118.21 452.5 106.41 460 88.95 453.38 65.26 431.75 52.25 424 151.25"/><polygon class="cls-6" points="435.5 53.25 413.25 45.5 380.25 62.86 411 67.15 437.75 59.75 435.5 53.25"/><polygon class="cls-24" points="413.25 45.5 437.75 59.75 448.5 60.75 452.5 53.25 413.25 45.5"/><polygon class="cls-21" points="451.5 65.26 448.5 98.7 462.53 100.31 467.5 92.92 469 84.77 451.5 65.26"/><polygon class="cls-34" points="421.25 131.44 407.06 128.32 413.25 143.65 412.5 160.71 424 170.19 434.75 163.78 446 137 439 137.25 421.25 131.44"/><polygon class="cls-36" points="380.25 62.86 382.5 138.75 439 137.25 437.75 59.75 380.25 62.86"/><polygon class="cls-35" points="394.99 85.98 386 88.7 399.06 100.32 411.06 106.15 426.53 88.7 418.5 85.98 409.57 88.7 406.26 93.48 399.06 87.41 394.99 85.98"/><polygon class="cls-15" points="386 84.14 386 88.7 399.06 87.41 399.06 83.25 386 84.14"/><polygon class="cls-15" points="409.46 83.25 426.53 83.25 426.53 88.7 409.46 87.41 409.46 83.25"/><polygon class="cls-34" points="399.06 106.15 404.13 102.57 411.06 106.15 405.06 111.86 399.06 106.15"/><polygon class="cls-37" points="409.46 87.41 399.06 87.41 399.06 106.15 411.06 106.15 409.46 87.41"/><path class="cls-27" d="M395,93.48a3.43,3.43,0,1,1-3.43-3.43A3.42,3.42,0,0,1,395,93.48Z"/><path class="cls-27" d="M421.92,93.48a3.43,3.43,0,1,1-3.43-3.43A3.42,3.42,0,0,1,421.92,93.48Z"/><polygon class="cls-34" points="394.99 120.09 406.53 122.05 421.93 120.09 421.93 122.05 407.06 125.5 394.99 122.05 394.99 120.09"/><polygon class="cls-9" points="457 140.75 424 170.19 455 173.61 457 140.75"/><polygon class="cls-13" points="413.25 143.65 424 170.19 401 171.19 413.25 143.65"/><polygon class="cls-36" points="453.71 91.5 452.5 106.41 464.17 108.02 467.5 92.92 453.71 91.5"/><polygon class="cls-34" points="463.13 97.35 458.13 96.07 456.88 103.45 463.13 97.35"/><polygon class="cls-16" points="452.5 53.25 437.75 59.75 469 84.77 452.5 53.25"/><polygon class="cls-8" points="442.94 191.67 441.67 205.5 455.67 206.83 457 191.67 442.94 191.67"/><polygon class="cls-11" points="449.33 181.67 449.33 188 453.17 188 453.17 182.67 449.33 181.67"/><polygon class="cls-8" points="440.5 207.83 455.5 209.67 455.5 211.67 440.5 209.75 440.5 207.83"/></g><g id="main_character" data-name="main character"><polygon class="cls-38" points="316.67 175 319.08 181.67 340.67 175.44 340.67 165.29 334.67 160.71 325.33 163.67 316.67 175"/><polygon class="cls-39" points="340.67 151.83 332.33 161.45 340.67 175.44 345.67 160.71 340.67 151.83"/><polygon class="cls-40" points="328.67 153.67 316.67 172.31 319.08 177.16 328.67 171.19 328.67 162.61 331.57 156.6 328.67 153.67"/><polygon class="cls-1" points="190.73 323.08 264.56 314.88 353.93 325.42 254.07 336.68 190.73 323.08"/><polygon class="cls-39" points="247.66 286.72 242.31 306.63 235.28 313.54 231.83 309.14 229.76 280.26 232.16 262.3 247.66 286.72"/><polygon class="cls-38" points="233.78 275.29 249.28 280.48 247.66 286.72 229.76 280.26 233.78 275.29"/><polygon class="cls-39" points="281.12 250.15 282.06 280.81 280.95 301.67 274.14 311.37 269.52 303.79 264.78 286.72 281.12 250.15"/><polygon class="cls-38" points="270.07 271.67 282.06 280.81 264.78 286.72 263.05 280.59 270.07 271.67"/><polygon class="cls-41" points="212.14 269.22 252.96 259.96 297.45 270.33 286.41 231.91 263.11 205.1 225.97 239.39 222.91 242.29 212.14 269.22"/><polygon class="cls-8" points="249.28 280.48 226.42 239.05 231.44 226.73 263.44 199.69 284.57 226.12 282.06 280.81 249.28 280.48"/><polygon class="cls-4" points="229.76 280.26 226.42 239.05 231.44 226.73 263.44 199.69 270.24 221.94 249.28 280.48 229.76 280.26"/><polygon class="cls-4" points="222.24 175.82 210.25 181.68 208.51 192.61 234.22 205.1 239.52 198 235.9 194.58 232.88 193.05 220.23 165.9 222.24 175.82"/><polygon class="cls-4" points="212.03 170.19 210.25 181.68 228.15 190.54 232.05 186.69 228.03 158.26 213.31 161.83 212.03 170.19"/><polygon class="cls-8" points="208.51 192.61 205.62 212.33 231.71 209.72 236.18 202.47 228.34 194.58 208.51 192.61"/><polygon class="cls-15" points="150.53 124.81 174.4 157.15 181.09 157.37 187.16 137.24 183.65 129.32 150.53 124.81"/><polygon class="cls-16" points="277.32 101.56 201.22 165.29 174.4 157.15 204.34 67.15 277.32 101.56"/><polygon class="cls-15" points="277.32 101.56 268.68 130.38 201.22 165.29 236.12 82.15 277.32 101.56"/><polygon class="cls-15" points="286.75 44.63 306.48 70.94 290.26 111.42 274.26 43.07 286.75 44.63"/><polygon class="cls-15" points="287.47 41 306.48 70.94 274.26 43.07 287.47 41"/><polygon class="cls-39" points="241.75 160.88 206.9 79.42 226.81 65.26 247.49 89.9 269.74 141.81 262.16 177.16 241.75 160.88"/><polygon class="cls-40" points="283.46 50.98 295.33 139.19 246.88 147.83 225.91 65.54 283.46 50.98"/><polygon class="cls-42" points="265.62 131.11 257.92 128.32 266.06 125.86 272.08 127.09 278.66 126.2 281 126.53 270.19 131.44 265.62 131.11"/><polygon class="cls-38" points="269.46 143.65 262.16 177.33 241.58 148.39 269.46 143.65"/><polygon class="cls-15" points="220.95 74.96 234.39 98.88 230.6 102.22 232.4 123.91 235.9 147.33 197.54 87.45 220.95 74.96"/><polygon class="cls-40" points="230.6 102.22 219.11 105.63 225.25 120.96 235.39 116.78 230.6 102.22"/><polygon class="cls-38" points="228.54 106.41 222.96 108.02 229.65 112.15 228.54 106.41"/><polygon class="cls-4" points="231.38 114.71 234.22 123.36 229.65 124.75 227.42 116 231.38 114.71"/><polygon class="cls-43" points="269.85 88.95 275.43 112.71 266.9 113.99 263.38 89.79 269.85 88.95"/><polygon class="cls-38" points="270.69 117.89 275.43 112.71 266.9 113.99 270.69 117.89"/><polygon class="cls-39" points="247.16 91.96 263.38 89.79 266.9 113.99 247.16 91.96"/><polygon class="cls-39" points="274.2 107.35 282.4 85.89 269.85 88.95 274.2 107.35"/><polygon class="cls-15" points="245.04 86.72 259.15 90.36 240.52 92.58 245.04 86.72"/><polygon class="cls-4" points="281 126.53 270.13 122.97 257.92 128.32 281 126.53"/><polygon class="cls-7" points="269.52 134.01 281 126.53 270.24 129.43 257.92 128.32 269.52 134.01"/><polygon class="cls-15" points="286.02 84.77 269.85 88.95 282.73 79.2 286.02 84.77"/><polygon class="cls-16" points="294.66 49.92 234.39 98.88 188.84 84.77 204.34 67.15 280.11 26.84 294.66 49.92"/><polygon class="cls-15" points="188.84 84.77 200.38 63.86 280.11 26.84 188.84 84.77"/><polygon class="cls-24" points="307.15 50.15 234.39 98.88 280.11 26.84 307.15 50.15"/><polygon class="cls-4" points="275.93 165.45 283.79 163.5 287.25 159.15 308.33 188.65 302.33 196.68 289.87 198 279.72 190.04 275.93 165.45"/><polygon class="cls-8" points="222.01 166.18 228.03 158.26 230.99 157.15 246.21 165.84 262.49 173.65 267.96 183.52 263.16 209.33 251.95 222.6 226.64 241.17 231.71 209.72 222.01 166.18"/><polygon class="cls-7" points="251.95 222.6 212.14 269.22 210.97 237.04 231.71 209.72 251.95 222.6"/><polygon class="cls-7" points="284.29 210.9 290.7 236.1 270.24 221.94 276.93 233.87 263.16 209.33 262.49 173.65 275.99 163.67 272.86 157.26 284.91 160.27 287.02 163.78 284.29 210.9"/><polygon class="cls-44" points="284.29 210.9 300.8 245.46 297.45 270.33 276.93 233.87 270.24 221.94 284.29 210.9"/><polygon class="cls-4" points="268.4 147.78 272.86 157.26 275.6 161.21 275.99 163.67 270.3 172.2 262.49 173.65 268.4 147.78"/><polygon class="cls-4" points="230.99 157.15 235.73 146.94 262.49 173.65 242.48 173.59 230.99 157.15"/><polygon class="cls-7" points="230.99 157.15 213.31 161.77 212.03 170.14 212.03 170.19 234.84 162.61 230.99 157.15"/><polygon class="cls-44" points="272.86 157.26 287.25 159.15 287.02 163.78 275.99 163.67 274.93 161.44 272.86 157.26"/><polygon class="cls-44" points="270.24 221.94 251.95 222.6 263.16 209.33 270.24 221.94"/><path class="cls-27" d="M280,89.7a3.57,3.57,0,1,0,0,7.13,3.57,3.57,0,1,0,0-7.13Z"/><path class="cls-27" d="M253.07,94.34a3.61,3.61,0,0,0-3.63,3.56,3.65,3.65,0,0,0,3.63,3.57,3.56,3.56,0,0,0,3.57-3.57A3.52,3.52,0,0,0,253.07,94.34Z"/><polygon class="cls-4" points="272.92 325.92 269.63 325.87 267.45 312.71 269.52 303.79 277.32 309.03 275.65 314.27 272.92 325.92"/><polygon class="cls-4" points="231.83 309.14 226.7 320.4 230.49 330.21 231.83 309.14"/><polygon class="cls-40" points="242.31 306.63 246.21 314.32 241.08 320.74 230.71 322.74 231.83 309.14 242.31 306.63"/><polygon class="cls-8" points="230.71 322.74 246.21 314.32 248.11 317.73 244.82 322.74 230.49 326.26 230.71 322.74"/><polygon class="cls-8" points="230.49 326.26 248.11 317.73 253.57 326.26 244.93 327.87 230.49 326.26"/><polygon class="cls-40" points="280.95 301.5 289.87 311.15 285.24 316.16 278.22 318.67 269.52 303.79 280.95 301.5"/><polygon class="cls-8" points="278.22 318.67 289.87 311.15 292.6 313.82 288.42 318.5 280.06 321.07 278.22 318.67"/><polygon class="cls-8" points="280.06 321.85 292.6 313.82 301.02 321.85 289.93 323.52 280.06 321.85"/><polygon class="cls-4" points="230.49 326.26 230.49 330.21 253.57 330.21 253.57 326.26 230.49 326.26"/><polygon class="cls-4" points="275.65 314.27 273.92 315.88 274.65 317.56 282.84 326.09 301.02 326.09 301.02 321.85 285.91 321.85 275.65 314.27"/><polygon class="cls-12" points="307.15 179.83 289.87 198 304.67 209.33 316.67 192.61 316.67 181.67 307.15 179.83"/><polygon class="cls-8" points="315 165.29 307.15 179.83 316.67 192.61 331 184.69 315 165.29"/><polygon class="cls-38" points="253.57 179.83 242.03 190.54 235.9 199.69 249.84 205.43 253.57 179.83"/><polygon class="cls-33" points="249.84 173.61 249.84 215.97 279.69 214.51 279.69 173.61 249.84 173.61"/><polygon class="cls-1" points="249.84 205.43 249.84 215.97 257.89 215.57 264.78 201.36 249.84 205.43"/><polygon class="cls-39" points="254.8 188.25 264.78 190.54 264.78 201.36 256.64 205.43 253.04 198 254.8 188.25"/><polygon class="cls-40" points="235.9 194.58 254.8 188.25 256.64 205.43 239.27 205.1 235.9 194.58"/><polygon class="cls-4" points="241.58 185.5 228.55 194.79 231.71 209.72 244.98 212.33 241.58 185.5"/></g><g id="baloon"><polygon class="cls-33" points="67.8 31.23 155.84 53.73 170.65 112.11 161.39 139.94 87.33 168.29 23.03 143.04 16.4 70.2 67.8 31.23"/><polygon class="cls-13" points="47.55 123.29 43.3 120.14 45.29 118.1 45.29 112.02 38.09 112.02 38.09 118.1 39.54 119.94 35.64 123.29 35.64 128.72 48.04 128.72 47.55 123.29"/><polygon class="cls-13" points="69.73 123.29 65.48 120.14 67.47 118.1 67.47 112.02 60.27 112.02 60.27 118.1 61.73 119.94 57.82 123.29 57.82 128.72 70.22 128.72 69.73 123.29"/><polygon class="cls-7" points="42.74 68.41 41.84 83.1 59.61 83.1 58.26 67.41 42.74 68.41"/><polygon class="cls-11" points="46.31 87.74 40.69 108.99 41.84 108.99 47.21 88.41 46.31 87.74"/><polygon class="cls-11" points="52.44 87.66 62.22 109.13 63.2 108.12 53.42 87.66 52.44 87.66"/><polygon class="cls-13" points="86.49 123.29 82.24 120.14 84.23 118.1 84.23 112.02 77.04 112.02 77.04 118.1 78.49 119.94 74.59 123.29 74.59 128.72 86.99 128.72 86.49 123.29"/><polygon class="cls-13" points="108.68 123.29 104.43 120.14 106.42 118.1 106.42 112.02 99.22 112.02 99.22 118.1 100.67 119.94 96.77 123.29 96.77 128.72 109.17 128.72 108.68 123.29"/><polygon class="cls-7" points="81.69 68.41 80.79 83.1 98.55 83.1 97.2 67.41 81.69 68.41"/><polygon class="cls-11" points="85.26 87.74 79.64 108.99 80.79 108.99 86.16 88.41 85.26 87.74"/><polygon class="cls-11" points="91.39 87.66 101.17 109.13 102.14 108.12 92.36 87.66 91.39 87.66"/><polygon class="cls-13" points="125.88 123.29 121.63 120.14 123.62 118.1 123.62 112.02 116.42 112.02 116.42 118.1 117.87 119.94 113.97 123.29 113.97 128.72 126.37 128.72 125.88 123.29"/><polygon class="cls-13" points="148.06 123.29 143.81 120.14 145.8 118.1 145.8 112.02 138.6 112.02 138.6 118.1 140.06 119.94 136.15 123.29 136.15 128.72 148.56 128.72 148.06 123.29"/><polygon class="cls-7" points="121.07 68.41 120.17 83.1 137.94 83.1 136.59 67.41 121.07 68.41"/><polygon class="cls-11" points="124.65 87.74 119.02 108.99 120.17 108.99 125.55 88.41 124.65 87.74"/><polygon class="cls-11" points="130.78 87.66 140.55 109.13 141.53 108.12 131.75 87.66 130.78 87.66"/><polygon class="cls-33" points="161.56 89.68 205.74 115.45 161.56 111.18 161.56 89.68"/></g></svg>