<svg id="ILLUSTRATION" xmlns="http://www.w3.org/2000/svg" viewBox="0 0 900 350"><defs><style>.cls-1{fill:#a3a3a3;}.cls-2{fill:#c4c4c4;}.cls-3{fill:#dddddc;}.cls-4{fill:#ececeb;}.cls-18,.cls-5{fill:#2b2b2b;}.cls-5{opacity:0.1;}.cls-6{fill:#b3889d;}.cls-7{fill:#d1a1b9;}.cls-8{fill:#9075a0;}.cls-9{fill:#a588b9;}.cls-10{fill:#8f8f8f;}.cls-11{fill:#96647c;}.cls-12{fill:#cfcfcd;}.cls-13{fill:#734d61;}.cls-14{fill:#c2987a;}.cls-15{fill:#8b6651;}.cls-16{fill:#543042;}.cls-17{fill:#795d88;}.cls-19{fill:#4f5353;}.cls-20{fill:#474748;}.cls-21{fill:#dfbda5;}.cls-22{fill:#fff;}.cls-23{fill:#e9cbb7;}.cls-24{fill:#737474;}</style></defs><title>analysts_Commander_ENTJ_conclusion</title><polygon class="cls-1" points="705.79 317.25 733.13 349.92 899.79 265.92 898.13 39.92 877.13 23.25 705.79 317.25"/><polygon class="cls-2" points="763.9 257.83 732.46 325.92 733.13 349.92 424.79 350.42 365.74 307.27 763.9 257.83"/><polygon class="cls-3" points="52.72 36.42 29.79 0.5 0.21 12.42 10.46 337.92 424.79 350.42 424.48 327.35 52.72 36.42"/><polygon class="cls-4" points="117.54 257.7 34.95 300.23 424.48 327.35 732.46 325.92 877.58 245.29 344.05 150.76 117.54 257.7"/><polygon class="cls-3" points="307.89 136.58 449.02 35.77 877.13 23.25 877.58 245.29 455.16 220.73 307.89 136.58"/><polygon class="cls-2" points="34.33 300.54 446.71 222.82 446.71 36.1 29.79 0.5 34.33 300.54"/><polygon class="cls-5" points="681.13 322.92 788.96 281.42 640.46 269.92 497.02 285.03 434.84 279.81 342.15 297.9 440.33 308.98 482.79 304.92 681.13 322.92"/><polygon class="cls-5" points="122.46 296.67 207.46 307.92 266.13 288.92 200.46 279.58 122.46 296.67"/><polygon class="cls-1" points="311.17 45.08 89.83 42.01 94.21 197.64 359.38 176.16 356.31 48.15 311.17 45.08"/><polygon class="cls-6" points="334.18 131.19 304.37 105.33 270.63 111.02 274.25 184.05 326.85 178.79 334.18 131.19"/><polyline class="cls-7" points="304.06 180.99 304.37 105.33 354.79 107.58 352.71 177.92"/><polygon class="cls-6" points="311.17 132.15 318.54 132.22 318.83 116.25 311.17 116.25 311.17 132.15"/><polygon class="cls-6" points="325.96 132.3 333.33 132.37 333.62 116.4 325.96 116.4 325.96 132.3"/><polygon class="cls-6" points="347.75 116.25 340.1 116.25 340.1 132.15 347.46 132.22 347.75 116.25"/><polygon class="cls-6" points="311.17 154.32 318.54 153.96 318.83 138.42 311.17 138.42 311.17 154.32"/><polygon class="cls-6" points="326.08 153.92 333.63 153.58 333.62 138.57 325.96 138.57 326.08 153.92"/><polygon class="cls-6" points="340.21 153.29 347.46 153.29 347.75 138.42 340.1 138.42 340.21 153.29"/><polygon class="cls-6" points="311.17 176.33 318.54 176.4 319.08 159.83 311.17 160.43 311.17 176.33"/><polygon class="cls-6" points="325.96 176.48 333.33 176.55 333.71 158.96 326.08 159.46 325.96 176.48"/><polygon class="cls-6" points="340.1 176.33 347.46 176.4 347.71 158.08 339.96 158.83 340.1 176.33"/><polygon class="cls-8" points="251.56 110.59 214.3 80.78 170.33 90.72 167.46 199.92 246.64 188.81 251.56 110.59"/><polygon class="cls-9" points="215.96 187.06 214.3 80.78 278.46 84.92 276.45 183.55 215.96 187.06"/><polygon class="cls-8" points="234.76 92.25 221.68 92.29 221.68 99.98 234.67 100.01 234.76 92.25"/><polygon class="cls-8" points="252.8 92.69 239.51 92.58 239.51 100.27 252.5 100.3 252.8 92.69"/><polygon class="cls-8" points="270.83 92.87 257.33 92.87 257.33 100.56 270.32 100.6 270.83 92.87"/><polygon class="cls-8" points="235.2 110.07 221.97 110.03 221.97 117.72 234.96 117.75 235.2 110.07"/><polygon class="cls-8" points="252.8 110.36 239.8 110.32 239.8 118.02 252.79 118.05 252.8 110.36"/><polygon class="cls-8" points="271.13 110.61 257.62 110.61 257.62 118.31 270.61 118.34 271.13 110.61"/><polygon class="cls-8" points="235.84 127.89 222.27 128.18 222.27 135.88 235.62 135.34 235.84 127.89"/><polygon class="cls-8" points="253.59 127.38 240.11 127.78 240.09 135.07 253.15 134.57 253.59 127.38"/><polygon class="cls-8" points="271.42 126.68 257.86 127.29 257.91 134.38 270.9 133.97 271.42 126.68"/><polygon class="cls-8" points="222.56 154.05 235.56 153.27 236 145.77 222.56 146.35 222.56 154.05"/><polygon class="cls-8" points="240.38 152.56 253.37 152.03 253.81 145.11 240.49 145.6 240.38 152.56"/><polygon class="cls-8" points="258.24 144.67 258.19 151.58 271.2 150.86 271.67 144.01 258.24 144.67"/><polygon class="cls-8" points="222.56 172.8 235.52 171.35 235.77 164.1 222.56 165.1 222.56 172.8"/><polygon class="cls-8" points="240.38 170.44 253.4 169.35 253.9 162.48 240.49 163.48 240.38 170.44"/><polygon class="cls-8" points="258.46 162.17 258.27 169.04 271.14 168.1 271.21 161.54 258.46 162.17"/><polygon class="cls-6" points="134.09 110.59 122.7 97.44 95.53 103.57 88.51 197.86 129.71 198.74 134.09 110.59"/><polygon class="cls-7" points="182.75 195.67 184.46 100.58 122.7 97.44 124.45 199.61 182.75 195.67"/><polygon class="cls-6" points="132.56 109.6 142.85 109.6 142.57 120.01 132.56 120.06 132.56 109.6"/><polygon class="cls-6" points="149.44 109.71 159.72 109.71 159.22 120.08 149.44 120.17 149.44 109.71"/><polygon class="cls-6" points="166.31 109.82 176.6 109.82 176.21 120.32 166.31 120.28 166.31 109.82"/><polygon class="cls-6" points="132.85 129.24 143.14 129.24 142.86 139.65 132.85 139.7 132.85 129.24"/><polygon class="cls-6" points="149.73 129.35 160.02 129.35 159.52 139.72 149.73 139.81 149.73 129.35"/><polygon class="cls-6" points="166.6 129.46 176.89 129.46 176.5 139.96 166.6 139.92 166.6 129.46"/><polygon class="cls-6" points="133.46 150.38 143.83 150.12 143.32 160.35 133.46 160.84 133.46 150.38"/><polygon class="cls-6" points="150.41 149.83 160.71 149.54 160.19 159.25 150.33 159.7 150.41 149.83"/><polygon class="cls-6" points="167.28 149.25 177.58 149.1 177.22 158.52 167.21 159.08 167.28 149.25"/><polygon class="cls-6" points="133.15 170.44 143.52 170.19 143.01 180.41 133.15 180.9 133.15 170.44"/><polygon class="cls-6" points="150.09 169.89 160.39 169.6 159.88 179.32 150.02 179.77 150.09 169.89"/><polygon class="cls-6" points="166.97 169.31 177.27 169.16 176.9 178.59 166.89 179.15 166.97 169.31"/><path class="cls-4" d="M74.05,25.65l2.19,190,294.1-31.85-.55-136.18ZM99.18,189,98,47,352.12,62.92l.69,106.23Z"/><polygon class="cls-2" points="120.95 72.45 119.48 71.37 117.99 72.43 118.57 70.7 117.1 69.61 118.93 69.63 119.51 67.89 120.06 69.64 121.88 69.65 120.4 70.71 120.95 72.45"/><polygon class="cls-2" points="163.9 73.77 162.43 72.68 160.94 73.75 161.52 72.01 160.05 70.93 161.88 70.94 162.46 69.21 163.01 70.95 164.84 70.97 163.35 72.03 163.9 73.77"/><polygon class="cls-2" points="236.33 69.37 234.86 68.29 233.38 69.35 233.95 67.62 232.49 66.53 234.31 66.55 234.96 64.34 235.44 66.56 237.27 66.57 235.78 67.63 236.33 69.37"/><polygon class="cls-2" points="294.84 94.14 293.37 93.05 291.89 94.11 292.47 92.38 291 91.3 292.82 91.31 293.4 89.58 293.95 91.32 295.78 91.33 294.29 92.4 294.84 94.14"/><polygon class="cls-2" points="340.64 79.02 339.18 77.93 337.69 78.99 338.27 77.26 336.8 76.17 338.63 76.19 339.2 74.46 339.75 76.2 341.58 76.21 340.1 77.28 340.64 79.02"/><polygon class="cls-2" points="328 97.81 327.42 96.76 326.24 96.99 327.06 96.12 326.48 95.07 327.57 95.57 328.38 94.7 328.24 95.89 329.32 96.39 328.15 96.62 328 97.81"/><polygon class="cls-2" points="301.67 71.16 301.09 70.11 299.91 70.34 300.73 69.46 300.15 68.42 301.24 68.92 302.05 68.05 301.91 69.24 302.99 69.74 301.82 69.97 301.67 71.16"/><polygon class="cls-2" points="261.35 75.4 260.77 74.35 259.59 74.58 260.41 73.7 259.83 72.65 260.91 73.16 261.73 72.28 261.58 73.47 262.67 73.98 261.49 74.21 261.35 75.4"/><polygon class="cls-2" points="195.75 69.55 195.17 68.5 193.99 68.73 194.81 67.86 194.23 66.81 195.31 67.32 196.13 66.44 195.99 67.63 197.07 68.13 195.9 68.36 195.75 69.55"/><polygon class="cls-2" points="147.89 87.59 147.31 86.54 146.13 86.77 146.95 85.89 146.37 84.85 147.46 85.35 148.27 84.48 148.13 85.67 149.21 86.17 148.04 86.4 147.89 87.59"/><polygon class="cls-10" points="690.75 175.85 717.95 149.07 731.76 154.09 725.48 223.13 689.08 212.67 690.75 175.85"/><polygon class="cls-1" points="640.12 145.73 631.76 216.44 709.58 222.3 717.95 149.07 640.12 145.73"/><polygon class="cls-5" points="585.5 93.67 602.31 82.27 610.05 93.38 609.17 154.74 549.27 154.15 540.36 145.39 585.5 93.67"/><polygon class="cls-11" points="580.83 84.17 596.02 79.35 602.31 82.27 602.89 146.12 595.73 149.18 580.83 84.17"/><polyline class="cls-4" points="542.33 86.44 589.89 85.34 590.03 145.68 539.41 142.39 540.73 86.51"/><path class="cls-6" d="M536.71,80.81,536.12,148l59.61,1.16L596,79.35ZM543.57,140l.55-52.16,43.28-.65.66,53.8Z"/><polygon class="cls-12" points="553.73 95.2 577.1 94.98 577.1 97.54 553.65 97.54 553.73 95.2"/><polygon class="cls-12" points="547.74 102.58 582.8 102.65 582.8 105.14 547.66 105.14 547.74 102.58"/><polygon class="cls-12" points="547.66 109.59 582.73 109.67 582.73 112.15 547.59 112.15 547.66 109.59"/><polygon class="cls-12" points="547.59 116.6 582.65 116.68 582.65 119.16 547.52 119.16 547.59 116.6"/><polygon class="cls-12" points="547.52 123.62 582.58 123.69 582.58 126.17 547.45 126.17 547.52 123.62"/><polygon class="cls-12" points="566.29 131 582.36 131.14 582.36 133.63 566.29 133.55 566.29 131"/><polygon class="cls-5" points="813.26 95.64 831.71 83.12 840.21 95.31 839.25 162.69 773.48 162.05 763.7 152.42 813.26 95.64"/><polygon class="cls-11" points="808.13 85.21 824.81 79.91 831.71 83.12 832.35 153.22 824.49 156.59 808.13 85.21"/><polyline class="cls-4" points="765.86 87.69 818.08 86.49 818.24 152.74 762.65 149.13 764.1 87.77"/><path class="cls-6" d="M759.69,81.52,759,155.31l65.45,1.28.32-76.68Zm7.54,65,.6-57.27,47.52-.72.72,59.07Z"/><polygon class="cls-12" points="778.37 97.32 804.04 97.08 804.04 99.89 778.29 99.89 778.37 97.32"/><polygon class="cls-12" points="771.8 105.42 810.3 105.5 810.3 108.23 771.72 108.23 771.8 105.42"/><polygon class="cls-12" points="771.72 113.12 810.22 113.2 810.22 115.93 771.64 115.93 771.72 113.12"/><polygon class="cls-12" points="771.64 120.82 793.29 120.58 793.13 123.92 771.56 123.63 771.64 120.82"/><polygon class="cls-12" points="773.84 131.12 791.48 131.28 791.48 134.01 773.84 133.93 773.84 131.12"/><polygon class="cls-7" points="802.39 128.54 798.46 140.75 803.13 137.88 807.63 140.75 804.02 128.92 802.39 128.54"/><polygon class="cls-6" points="798.77 123.54 807.96 123.42 807.71 132.42 799.27 132.1 798.77 123.54"/><polyline class="cls-13" points="415.34 167.17 400.94 185.84 394.13 167.04 398.27 144.92 414.83 143.24 415.21 166.65"/><polygon class="cls-14" points="443.61 262.27 448.63 280.95 455.22 287.44 458.47 283.31 460.4 256.2 458.15 239.35 443.61 262.27"/><polygon class="cls-15" points="456.64 251.54 442.09 256.41 443.61 262.27 460.4 256.2 456.64 251.54"/><polygon class="cls-14" points="412.21 227.94 411.32 256.72 412.36 276.29 418.75 285.4 423.09 278.28 427.54 262.27 412.21 227.94"/><polygon class="cls-15" points="422.57 248.14 411.32 256.72 427.54 262.27 429.16 256.51 422.57 248.14"/><polygon class="cls-16" points="476.94 245.84 438.63 237.15 396.87 246.88 407.23 210.82 429.11 185.65 463.96 217.84 466.84 220.56 476.94 245.84"/><polygon class="cls-11" points="442.09 256.41 463.54 217.52 458.83 205.96 428.8 180.57 408.96 205.38 411.32 256.72 442.09 256.41"/><polygon class="cls-13" points="460.4 256.2 463.54 217.52 458.83 205.96 428.8 180.57 422.41 201.46 442.09 256.41 460.4 256.2"/><polygon class="cls-13" points="467.47 158.18 478.72 163.67 483.06 190.94 466.84 200.88 460.2 197.9 458.57 190 457.47 174.35 469.35 148.86 467.47 158.18"/><polygon class="cls-13" points="477.05 152.89 478.72 163.67 461.92 171.99 458.26 168.38 462.03 141.69 475.84 145.04 477.05 152.89"/><polygon class="cls-17" points="483.06 190.94 466.84 200.88 460.2 197.9 458.57 190 483.06 190.94"/><polygon class="cls-18" points="534.77 110.29 512.37 140.65 506.09 140.85 500.39 121.96 503.68 114.53 534.77 110.29"/><polygon class="cls-19" points="415.76 88.47 487.2 148.29 512.37 140.65 484.27 56.18 415.76 88.47"/><polygon class="cls-18" points="415.76 88.47 423.88 115.53 487.2 148.29 454.44 70.26 415.76 88.47"/><polygon class="cls-20" points="406.92 35.04 388.39 59.74 403.62 97.73 418.64 33.57 406.92 35.04"/><polygon class="cls-18" points="406.24 31.63 388.39 59.74 418.64 33.57 406.24 31.63"/><polygon class="cls-14" points="449.15 144.15 481.86 67.69 463.18 54.4 443.76 77.53 422.88 126.25 430 159.43 449.15 144.15"/><polygon class="cls-21" points="410.01 41 398.86 123.79 444.34 131.91 464.02 54.66 410.01 41"/><polygon class="cls-22" points="426.75 116.2 433.98 113.59 426.34 111.29 420.68 112.44 414.51 111.6 412.31 111.91 422.46 116.52 426.75 116.2"/><polygon class="cls-15" points="423.14 127.98 430 159.59 449.31 132.43 423.14 127.98"/><polygon class="cls-20" points="468.67 63.51 456.06 85.96 459.62 89.1 457.11 119.34 454.65 131.44 490.65 75.23 468.67 63.51"/><polygon class="cls-21" points="459.62 89.1 470.4 92.29 464.64 106.68 455.12 102.76 459.62 89.1"/><polygon class="cls-15" points="461.56 93.02 466.79 94.54 460.51 98.41 461.56 93.02"/><polygon class="cls-13" points="458.89 100.82 456.22 108.93 460.51 110.24 462.6 102.02 458.89 100.82"/><polygon class="cls-23" points="422.78 76.64 417.54 98.94 425.55 100.14 428.85 77.43 422.78 76.64"/><polygon class="cls-15" points="421.99 103.8 417.54 98.94 425.55 100.14 421.99 103.8"/><polygon class="cls-14" points="444.08 79.47 428.85 77.43 425.55 100.14 444.08 79.47"/><polygon class="cls-14" points="418.69 93.91 411 73.76 422.78 76.64 418.69 93.91"/><polygon class="cls-18" points="446.06 74.55 432.82 77.96 450.3 80.04 446.06 74.55"/><polygon class="cls-13" points="412.31 111.91 422.51 108.56 433.98 113.59 412.31 111.91"/><polygon class="cls-6" points="423.09 118.93 412.31 111.91 422.41 114.64 433.98 113.59 423.09 118.93"/><polygon class="cls-18" points="407.6 72.72 422.78 76.64 410.69 67.48 407.6 72.72"/><polygon class="cls-19" points="399.49 40.01 456.06 85.96 498.82 72.72 484.27 56.18 413.15 18.34 399.49 40.01"/><polygon class="cls-18" points="498.82 72.72 487.98 53.09 413.15 18.34 498.82 72.72"/><polygon class="cls-24" points="387.77 40.22 456.06 85.96 413.15 18.34 387.77 40.22"/><polygon class="cls-11" points="467.68 149.12 462.03 141.69 459.25 140.65 444.97 148.81 429.69 156.13 424.56 165.4 429.06 189.63 439.58 202.09 463.33 219.51 458.57 190 467.68 149.12"/><polygon class="cls-6" points="439.58 202.09 476.94 245.84 478.04 215.64 458.57 190 439.58 202.09"/><polygon class="cls-6" points="409.22 191.09 403.2 214.75 422.41 201.46 416.13 212.66 429.06 189.63 429.69 156.13 417.02 146.77 419.95 140.75 408.65 143.58 406.66 146.87 409.22 191.09"/><polygon class="cls-7" points="409.22 191.09 393.73 223.54 396.87 246.88 416.13 212.66 422.41 201.46 409.22 191.09"/><polygon class="cls-13" points="424.14 131.85 419.95 140.75 417.39 144.47 417.02 146.77 422.36 154.78 429.69 156.13 424.14 131.85"/><polygon class="cls-13" points="459.25 140.65 454.81 131.07 429.69 156.13 448.47 156.08 459.25 140.65"/><polygon class="cls-6" points="459.25 140.65 475.84 144.99 477.05 152.84 477.05 152.89 455.64 145.77 459.25 140.65"/><polygon class="cls-7" points="419.95 140.75 406.45 142.53 406.66 146.87 417.02 146.77 418.01 144.68 419.95 140.75"/><polygon class="cls-7" points="422.41 201.46 439.58 202.09 429.06 189.63 422.41 201.46"/><polygon class="cls-7" points="433.09 170.11 429.42 166.5 426.39 170.21 429.37 173.93 433.09 170.11"/><polygon class="cls-7" points="432.82 183.51 429.21 180.05 426.07 183.72 429.06 187.22 432.82 183.51"/><path class="cls-18" d="M413.26,77.34a3.31,3.31,0,0,1,3.35,3.35,3.35,3.35,0,1,1-3.35-3.35Z"/><path class="cls-18" d="M438.53,81.69a3.35,3.35,0,1,1,0,6.7,3.35,3.35,0,1,1,0-6.7Z"/><polygon class="cls-13" points="419.9 299.06 422.99 299.01 425.03 286.65 423.09 278.28 415.76 283.2 417.33 288.12 419.9 299.06"/><polygon class="cls-13" points="458.47 283.31 463.28 293.88 459.72 303.09 458.47 283.31"/><polygon class="cls-21" points="448.63 280.95 444.97 288.17 449.78 294.19 459.51 296.07 458.47 283.31 448.63 280.95"/><polygon class="cls-11" points="459.51 296.07 444.97 288.17 443.19 291.37 446.27 296.07 459.72 299.37 459.51 296.07"/><polygon class="cls-11" points="459.72 299.37 443.19 291.37 438.06 299.37 446.17 300.89 459.72 299.37"/><polygon class="cls-21" points="412.36 276.14 403.99 285.19 408.33 289.9 414.93 292.25 423.09 278.28 412.36 276.14"/><polygon class="cls-11" points="414.93 292.25 403.99 285.19 401.43 287.7 405.35 292.1 413.2 294.5 414.93 292.25"/><polygon class="cls-11" points="413.2 295.24 401.43 287.7 393.52 295.24 403.94 296.81 413.2 295.24"/><polygon class="cls-13" points="459.72 299.37 459.72 303.09 438.06 303.09 438.06 299.37 459.72 299.37"/><polygon class="cls-13" points="417.33 288.12 418.96 289.64 418.28 291.21 410.58 299.21 393.52 299.21 393.52 295.24 407.7 295.24 417.33 288.12"/><polygon class="cls-14" points="412.89 126.16 399.56 118.46 388.35 127.37 395.08 133.92 407.32 132.2 412.89 126.16"/><polygon class="cls-21" points="403.01 143.24 407.32 132.2 388.35 127.37 387.83 142.72 393.52 148.58 403.01 143.24"/><polygon class="cls-11" points="384.04 139.44 408.53 142.37 400.77 154.62 389.21 164.45 386.11 152.68 384.04 139.44"/><polygon class="cls-6" points="401.29 185.84 400.77 154.62 386.02 152.98 379.9 182.22 401.29 185.84"/><polygon class="cls-13" points="735.26 278.3 733.07 295.06 707.84 293.82 702.4 277.78 735.26 278.3"/><polygon class="cls-17" points="507.53 262.25 520.37 298.89 544.27 293.3 544.79 263.81 507.53 262.25"/><polygon class="cls-17" points="632.76 268.98 679.3 313.03 698.93 305.63 701.35 291.43 730.96 283.58 733.07 295.06 754.52 288.11 757.47 216.72 623.44 241.04 632.76 268.98"/><polygon class="cls-8" points="489.93 222.41 491.71 297.17 520.37 298.89 519.95 283.47 642.45 295.36 643.65 310.76 679.3 313.03 680.21 255.48 489.93 222.41"/><polygon class="cls-10" points="638.45 210.51 680.21 255.48 769.79 238.58 769.92 205.64 638.45 210.51"/><polygon class="cls-1" points="568.59 207.4 474.41 210.34 477 235.35 680.21 255.48 681.57 227.39 568.59 207.4"/><polygon class="cls-2" points="598.34 195.37 474.41 210.34 681.57 227.39 769.92 205.64 598.34 195.37"/><polygon class="cls-5" points="524.51 208.8 582.59 214.82 629.81 202.99 584.23 200.58 524.51 208.8"/><polygon class="cls-5" points="612.86 215.91 682.26 222.48 720.83 211.67 641.06 207.73 612.86 215.91"/><polygon class="cls-7" points="688.98 213.86 708.85 207 671.16 204.95 688.98 213.86"/><polygon class="cls-11" points="664.8 187.71 672.47 179.38 681.24 178.95 687.59 210.94 708.85 207 708.85 212.26 684.89 218.69 664.8 187.71"/><polygon class="cls-7" points="670.06 198.67 677.59 182.45 681.24 178.95 626.23 176.54 620.61 179.82 670.06 198.67"/><polygon class="cls-6" points="620.61 179.82 630.54 213.72 684.89 218.69 677.59 182.45 620.61 179.82"/><polygon class="cls-7" points="656.36 192.42 642.01 197.79 650.01 198.23 649.9 204.7 656.36 192.42"/><polygon class="cls-4" points="573.65 197.91 539.96 201.27 539.49 207.85 581.52 211.35 586.88 198.5 573.65 197.91"/><polygon class="cls-12" points="593.81 198.93 619.4 196.67 619.11 202.95 581.52 211.35 579.95 204.63 593.81 198.93"/><polygon class="cls-9" points="539.96 201.27 583.57 193.82 619.26 196.67 579.95 204.63 539.96 201.27"/><polygon class="cls-3" points="562.24 199.81 579.18 201.56 585.62 200.19 571.09 198.39 562.24 199.81"/><polygon class="cls-4" points="574.17 187.47 540.47 190.84 540.49 197.81 582.04 200.91 587.39 188.06 574.17 187.47"/><polygon class="cls-12" points="594.32 188.5 620.74 186.56 620.15 193.14 582.04 200.91 580.47 194.19 594.32 188.5"/><polygon class="cls-9" points="540.47 190.84 589.25 184 620.74 186.56 580.47 194.19 540.47 190.84"/><polygon class="cls-3" points="562.75 189.37 579.7 191.13 586.13 189.76 571.61 187.95 562.75 189.37"/><polygon class="cls-8" points="201.73 227.34 196.7 221.05 191.82 212.4 214.44 219.24 201.73 227.34"/><polygon class="cls-17" points="196.7 221.05 214.71 220.07 203.41 242.97 191.26 241.58 195.73 235.29 196.7 221.05"/><polygon class="cls-6" points="184.22 204.02 187.46 213.86 201.78 250.98 202.52 252.93 193.98 258.55 180.98 206.64 184.22 204.02"/><polygon class="cls-17" points="178.19 193.91 192.93 198.2 190.33 221.1 169.62 208.65 178.19 193.91"/><polygon class="cls-8" points="170.35 187.31 192.93 198.2 169.62 208.65 170.35 187.31"/><polygon class="cls-11" points="172.03 260.99 157.3 249.88 192.79 233.92 238.33 247.7 193.76 271.86 172.03 260.99"/><polygon class="cls-6" points="221.26 196.16 217.57 207.34 203.12 236.56 200.46 251.73 210.16 258.11 224.94 199.13 221.26 196.16"/><polygon class="cls-17" points="228.11 184.67 216.05 186.53 217.57 207.34 237.84 201.42 228.11 184.67"/><polygon class="cls-17" points="154.18 226.97 173.27 218.64 191.74 261.88 180.21 265.62 155.12 234.46 154.18 226.97"/><polygon class="cls-8" points="133.46 260.95 149.43 213.96 173.27 218.64 133.46 260.95"/><polygon class="cls-17" points="236.15 235.39 218.34 224.91 198.6 270.3 210.13 274.04 242.23 242.25 236.15 235.39"/><polygon class="cls-17" points="189.09 241.23 203.12 236.56 204.36 256.43 187.22 267.18 182.31 247.08 189.09 241.23"/><polygon class="cls-6" points="188.16 269.83 201.56 299.75 230.23 292.58 238.33 247.7 204.36 256.43 188.16 269.83"/><polygon class="cls-7" points="157.3 249.88 167.59 295.7 201.56 299.75 204.36 256.43 157.3 249.88"/><polygon class="cls-8" points="254.46 271.27 247.2 220.63 218.34 224.91 254.46 271.27"/><polygon class="cls-8" points="174.6 268.35 178.92 231.82 203.12 236.56 174.6 268.35"/><polygon class="cls-8" points="237.01 177.17 216.05 186.53 237.84 201.42 237.01 177.17"/></svg>