<svg id="ILLUSTRATION" xmlns="http://www.w3.org/2000/svg" viewBox="0 0 900 350"><defs><style>.cls-1,.cls-44{fill:#dddddc;}.cls-2,.cls-21,.cls-48{fill:#2b2b2b;}.cls-2{opacity:0.1;}.cls-3,.cls-41{fill:#b3889d;}.cls-4,.cls-45{fill:#ececeb;}.cls-5,.cls-53{fill:#d1a1b9;}.cls-52,.cls-6{fill:#cfcfcd;}.cls-33,.cls-7{fill:#a3a3a3;}.cls-42,.cls-8{fill:#96647c;}.cls-22,.cls-9{fill:#543042;}.cls-10,.cls-39{fill:#795d88;}.cls-11,.cls-43{fill:#9075a0;}.cls-12,.cls-58{fill:#594265;}.cls-13,.cls-24{fill:#734d61;}.cls-14,.cls-30{fill:#4f5353;}.cls-15{fill:#fff;}.cls-16,.cls-31{fill:#737474;}.cls-17{fill:#f5cbb3;}.cls-18{fill:#c1907c;}.cls-19{fill:#fde4d5;}.cls-20{fill:#fff0e9;}.cls-22,.cls-23,.cls-24,.cls-25,.cls-30,.cls-31,.cls-32,.cls-33,.cls-34,.cls-35,.cls-38,.cls-39,.cls-40,.cls-41,.cls-42,.cls-43,.cls-44,.cls-45,.cls-46,.cls-47,.cls-48,.cls-50,.cls-51,.cls-52,.cls-53,.cls-58{fill-rule:evenodd;}.cls-23,.cls-55{fill:#c2987a;}.cls-25,.cls-57{fill:#e9cbb7;}.cls-26,.cls-38{fill:#a588b9;}.cls-27,.cls-34{fill:#a27e6e;}.cls-28{fill:#805e4f;}.cls-29,.cls-35{fill:#593e35;}.cls-32,.cls-36{fill:#474748;}.cls-37{fill:#aa8d80;}.cls-40,.cls-56{fill:#8b6651;}.cls-46,.cls-54{fill:#dfbda5;}.cls-47{fill:#6f7273;}.cls-49{fill:#c4c4c4;}.cls-50{fill:#8f8f8f;}.cls-51{fill:#858686;}</style></defs><title>analysts_Commander_ENTJ_career_path</title><polygon class="cls-1" points="359.72 39.5 317.03 19 0.29 0 11.55 256 316.2 276.5 359.72 39.5"/><polygon class="cls-1" points="311.79 284.08 317.03 19 900.05 2.1 892.98 270.83 656.94 302.08 311.79 284.08"/><polygon class="cls-2" points="93.92 166.17 62.58 112.83 22.06 105.5 18.05 108 19.22 183.17 83.92 182.17 93.92 166.17"/><polygon class="cls-3" points="37.31 101.5 30.56 98.5 22.06 105.5 26.23 174.17 31.89 175.83 98.09 164.25 37.31 101.5"/><polygon class="cls-4" points="36.31 104.38 92.97 104.25 94.34 168.88 38.06 170.13 36.31 104.38"/><path class="cls-5" d="M98.43,100.33,30.56,98.5l1.33,77.33,68-4Zm-58,67.84-1.67-60.84,52.53.5.33,58Z"/><polygon class="cls-5" points="81.8 152.36 82.96 157.17 85.91 147.27 76.39 151.87 81.8 152.36"/><polygon class="cls-5" points="83.45 157.42 83.45 158.14 75.65 158.47 75.52 149.27 80.77 148.92 83.74 147.33 73.75 147.74 73.95 160 85.06 159.26 84.77 153.95 83.45 157.42"/><polygon class="cls-6" points="53.66 113.83 78.08 113.67 77.92 116.25 53.57 116.67 53.66 113.83"/><polygon class="cls-6" points="43.9 123.79 86.67 122.5 86.67 125.42 43.9 126.83 43.9 123.79"/><polygon class="cls-6" points="44.23 131.13 87 129.83 87 132.75 44.23 134.17 44.23 131.13"/><polygon class="cls-6" points="44.57 138.46 78.5 137.17 78.5 140.08 44.57 141.5 44.57 138.46"/><polygon class="cls-4" points="464.77 50.17 843.28 42.83 838.95 205.5 464.1 183.5 464.77 50.17"/><polygon class="cls-6" points="646.83 79.5 630.35 79.83 604.17 77 630.72 91.5 671.37 78.5 646.83 79.5"/><polygon class="cls-7" points="732.9 140 757.91 97 791.43 123 796.93 207 744.4 205 732.9 140"/><polygon class="cls-6" points="730.4 198 704.88 190.5 702.38 114.5 710.89 96.33 765.41 97.17 764.91 201.5 730.4 198"/><polygon class="cls-7" points="625.85 150.17 642.35 125.5 663.87 139.5 662.86 192.17 632.85 192.5 625.85 150.17"/><polygon class="cls-7" points="515.79 107.5 532.8 89 555.15 93.5 555.81 178.17 542.47 192.5 521.46 182.5 515.79 107.5"/><polygon class="cls-6" points="595.16 187.5 599.17 125.5 642.35 125.5 640.85 190.5 595.16 187.5"/><polygon class="cls-6" points="484.28 89.5 532.8 89 531.8 188 478.28 182.5 484.28 89.5"/><polygon class="cls-3" points="490.45 46.5 487.78 65.83 484.44 188.5 458.1 184.83 464.77 50.17 490.45 46.5"/><polygon class="cls-8" points="464.77 50.17 470.27 59.5 487.78 65.83 846.28 62.83 843.28 42.83 464.77 50.17"/><path class="cls-5" d="M454.43,42.5,453.1,192.17,855,210.5l2.66-179.67ZM834.61,191.83,469.27,178l1-118.5,366.34-6Z"/><polygon class="cls-7" points="515.66 99.93 525.13 99.79 525.13 108.72 515.46 108.79 515.66 99.93"/><polygon class="cls-7" points="738.99 106.43 759.16 106.48 759.35 113.23 738.96 113.14 738.99 106.43"/><polygon class="cls-7" points="714.04 106.43 734.21 106.48 734.4 113.23 714.01 113.14 714.04 106.43"/><polygon class="cls-7" points="738.99 122.93 759.16 122.98 759.35 129.73 738.96 129.64 738.99 122.93"/><polygon class="cls-7" points="714.04 122.93 734.21 122.98 734.4 129.73 714.01 129.64 714.04 122.93"/><polygon class="cls-7" points="738.99 139.43 759.16 139.48 759.35 146.23 738.96 146.14 738.99 139.43"/><polygon class="cls-7" points="714.04 139.43 734.21 139.48 734.4 146.23 714.01 146.14 714.04 139.43"/><polygon class="cls-7" points="738.99 155.93 759.16 155.98 759.35 162.73 738.96 162.64 738.99 155.93"/><polygon class="cls-7" points="714.04 155.93 734.21 155.98 734.4 162.73 714.01 162.64 714.04 155.93"/><polygon class="cls-7" points="738.99 172.43 759.16 172.48 759.35 179.23 738.96 179.14 738.99 172.43"/><polygon class="cls-7" points="714.04 172.43 734.21 172.48 734.4 179.23 714.01 179.14 714.04 172.43"/><polygon class="cls-7" points="626.13 132.76 635.6 132.63 635.6 141.56 625.92 141.63 626.13 132.76"/><polygon class="cls-7" points="625.71 151.84 635.18 151.71 635.18 160.64 625.51 160.71 625.71 151.84"/><polygon class="cls-7" points="610.79 132.76 620.26 132.63 620.26 141.56 610.58 141.63 610.79 132.76"/><polygon class="cls-7" points="610.37 151.84 619.84 151.71 619.84 160.64 610.17 160.71 610.37 151.84"/><polygon class="cls-7" points="625.29 171.84 634.77 171.71 634.77 180.64 625.09 180.71 625.29 171.84"/><polygon class="cls-7" points="515.16 120.68 524.63 120.54 524.63 129.47 514.96 129.54 515.16 120.68"/><polygon class="cls-7" points="514.66 141.43 524.13 141.29 524.13 150.22 514.46 150.29 514.66 141.43"/><polygon class="cls-7" points="514.16 162.18 523.63 162.04 523.63 170.97 513.95 171.04 514.16 162.18"/><polygon class="cls-7" points="496.27 99.68 505.75 99.54 505.75 108.47 496.07 108.54 496.27 99.68"/><polygon class="cls-7" points="495.77 120.43 505.25 120.29 505.25 129.22 495.57 129.29 495.77 120.43"/><polygon class="cls-7" points="495.27 141.18 504.75 141.04 504.75 149.97 495.07 150.04 495.27 141.18"/><polygon class="cls-7" points="494.77 161.93 504.25 161.79 504.25 170.72 494.57 170.79 494.77 161.93"/><polygon class="cls-1" points="671.37 78.5 647.57 72.33 625.78 77 604.17 77 632 83.5 671.37 78.5"/><polygon class="cls-6" points="742.25 76.51 754.8 76.7 774.75 75.05 754.53 83.5 723.56 75.93 742.25 76.51"/><polygon class="cls-1" points="723.56 75.93 741.69 72.33 760.16 73.88 774.75 75.05 753.55 78.84 723.56 75.93"/><polygon class="cls-9" points="715.43 196.13 726.7 201.79 709.33 225.99 690 211.99 700.32 193.36 715.43 196.13"/><polygon class="cls-9" points="654.24 188.32 648.19 199.9 661.23 226.61 680.43 208.21 663.81 191.85 654.24 188.32"/><polygon class="cls-2" points="687.92 286.55 726.33 292.89 685.98 299.77 643.9 292.71 687.92 286.55"/><polygon class="cls-10" points="705.51 260.35 703.27 279.38 696.32 290.03 694.55 279.41 688.97 260.35 695.5 252.07 705.51 260.35"/><polygon class="cls-10" points="671.93 275.98 667.72 257.29 678.57 253.93 683.54 260.35 680.71 275.99 674.03 284.87 671.93 275.98"/><polygon class="cls-11" points="689.51 235.06 707.87 239.12 705.51 260.35 688.97 260.35 685.59 246.62 689.51 235.06"/><polygon class="cls-11" points="667.97 258.41 663.5 237.33 678.57 223.51 685.59 246.62 683.54 260.35 667.97 258.41"/><polygon class="cls-12" points="669.7 222.28 661.23 226.61 663.5 237.33 685.59 246.62 707.87 239.12 709.33 225.99 669.7 222.28"/><polygon class="cls-13" points="648.19 199.9 660.73 167.81 670.19 186.09 661.07 197.26 648.19 199.9"/><polygon class="cls-14" points="654.27 137.19 648.85 130.76 642.49 114.27 646.15 97.96 654.69 99.15 652.87 111.23 654.27 137.19"/><polygon class="cls-14" points="696.44 163.83 698.33 141.62 706.92 135.99 709.21 143.92 708.91 166.78 703.22 170.69 696.44 163.83"/><polygon class="cls-13" points="676.15 182.78 679.81 163.27 697.35 164.72 708.91 166.78 708.95 199.71 709.33 225.99 696.32 237.34 682.69 226.33 676.15 182.78"/><polygon class="cls-8" points="661.07 197.26 663.5 167.81 679.81 163.27 697.35 164.72 688.49 179.76 680.64 197.11 682.69 226.33 672.17 234.24 661.23 226.61 661.07 197.26"/><polygon class="cls-3" points="661.07 197.26 660.73 167.81 675.06 164.51 698.67 165 708.91 166.78 710.4 185.3 708.95 199.71 680.64 197.11 661.07 197.26"/><polygon class="cls-15" points="674.04 165.67 684.38 163.38 698.72 164.83 695.5 179.13 681.5 171 671.49 178.13 674.04 165.67"/><polygon class="cls-16" points="660.73 167.81 655.19 154.25 666.36 150.38 672.66 156.03 680.04 164.79 660.73 167.81"/><polygon class="cls-17" points="680.04 155.01 685.73 107.39 693.99 91.14 706.27 101.11 705.21 119.76 705.51 137.4 698.72 164.83 681.5 171 679.5 162 680.04 155.01"/><polygon class="cls-18" points="665.62 151.33 679.49 148.63 695.63 154.62 697.93 155.12 681.5 171 665.62 151.33"/><polygon class="cls-16" points="711.55 96.33 714.57 124.63 708.91 166.78 707.47 150.01 705.52 137.58 696.83 102.34 700.76 94.8 711.55 96.33"/><polygon class="cls-18" points="707.67 131.02 705.51 137.4 699.93 129.31 707.67 131.02"/><polygon class="cls-19" points="655.19 154.25 654.27 137.19 651.95 94.34 691.99 90.92 696.83 102.34 695.63 154.62 655.19 154.25"/><polygon class="cls-14" points="707.67 131.02 702.95 123.63 698.26 121.13 698.94 114.63 696.83 102.34 714.57 124.63 707.67 131.02"/><polygon class="cls-16" points="696.83 102.34 692.65 97.71 692.09 87.4 696.07 88.44 711.55 96.33 696.83 102.34"/><polygon class="cls-14" points="663.85 85.02 682.86 81.1 696.07 88.44 692.65 97.71 674.62 96.83 663.41 92.27 663.85 85.02"/><polygon class="cls-16" points="646.15 97.96 663.85 85.02 692.65 97.71 652.86 108.17 646.15 97.96"/><polygon class="cls-19" points="709.47 119.38 701.74 117.94 699.93 129.31 707.67 131.02 709.47 119.38"/><polygon class="cls-17" points="667.91 114.14 668.16 117.36 669.96 121.46 673.23 116.95 675.74 113.71 683.95 112.65 689.34 112.98 682.25 117.92 689.34 118.63 679.08 121.21 673.67 131.13 668.26 131.38 663.41 121.38 653.53 118.92 660.72 118.44 656.34 114.83 660.06 114.35 667.91 114.14"/><polygon class="cls-18" points="702.56 125.33 703.51 120.12 707.28 120.95 702.56 125.33"/><polygon class="cls-16" points="655.19 154.25 654.27 137.19 642.49 114.27 655.19 154.25"/><polygon class="cls-14" points="662.63 111.17 667.91 114.14 656.34 114.83 662.63 111.17"/><polygon class="cls-14" points="681.04 109.99 675.74 113.71 689.34 112.98 681.04 109.99"/><polygon class="cls-20" points="667.41 133.5 668.16 116.49 673.24 116.42 674.7 132.75 667.41 133.5"/><polygon class="cls-18" points="670.87 135.46 667.41 133.5 674.7 132.75 670.87 135.46"/><path class="cls-21" d="M662.39,119.43a2.14,2.14,0,1,1-2,2.25A2.16,2.16,0,0,1,662.39,119.43Z"/><path class="cls-21" d="M678.57,119.35a2.14,2.14,0,1,1-2,2.25A2.16,2.16,0,0,1,678.57,119.35Z"/><polygon class="cls-8" points="708.95 199.71 726.7 201.79 708.91 166.78 708.95 199.71"/><polygon class="cls-22" points="703.27 279.38 706.33 285.36 705.31 295.99 704.25 295.99 702.95 287.69 703.27 279.38"/><polygon class="cls-23" points="703.27 279.38 694.55 279.41 694.55 289.38 701.73 289.38 703.27 279.38"/><polygon class="cls-24" points="703.27 279.38 700.72 287.65 696.1 287.67 694.55 279.41 694.56 279.41 694.55 279.41 690.83 295.99 704.25 295.99 703.27 279.38"/><polygon class="cls-25" points="665.37 284.97 668.67 286.83 673.7 285.78 680.71 275.99 671.93 275.98 665.37 284.97"/><polygon class="cls-22" points="682.29 291.48 679.2 291.48 679.2 285.12 680.71 275.99 683.76 284.49 682.29 291.48"/><polygon class="cls-24" points="665.37 284.97 661.22 291.25 672.5 291.48 682.8 281.81 680.71 275.99 671.72 285.11 665.37 284.97"/><path class="cls-8" d="M668.16,116.49l-17.18,0,.38,11.12,16.29-.17Zm-14.51,8.72-.21-6.38,12.93-.08,0,6.42Z"/><polygon class="cls-26" points="670.37 140.02 663.18 141.88 670.95 145.54 681.75 141.59 670.37 140.02"/><polygon class="cls-10" points="663.18 141.88 670.55 137.79 681.75 141.59 663.18 141.88"/><polygon class="cls-10" points="690.38 118.88 691.59 116.42 701.74 117.94 701.01 122.56 691.63 120.25 690.38 118.88"/><path class="cls-8" d="M674.15,127.28,692,127l-.37-10.62H673.24Zm1.1-2,0-6.71h13.92v6.21Z"/><polygon class="cls-27" points="743.83 188.68 743.48 186.23 734.47 180.29 730.97 189.73 737.62 198.99 745.92 192.35 743.83 188.68"/><polygon class="cls-28" points="750.12 189.38 743.48 186.23 737.62 198.99 748.2 204.76 756.5 204.14 755.8 196.02 750.12 189.38"/><polygon class="cls-27" points="756.76 201.26 756.07 194.62 748.37 181.16 745.05 182.82 747.5 190.43 745.92 194.44 756.76 201.26"/><polygon class="cls-10" points="779.02 172.15 762.88 207.9 781.59 210.87 782.52 202.21 779.02 172.15"/><polygon class="cls-11" points="756.07 194.62 784.92 212.79 767.96 225.73 748.2 204.76 756.07 194.62"/><polygon class="cls-26" points="833.52 201.44 846.77 210.09 827.91 231.55 816.91 216.47 833.52 201.44"/><polygon class="cls-10" points="834.91 175.21 846.77 210.09 819.06 214.44 807.14 196.55 819.42 195.95 834.91 175.21"/><polygon class="cls-28" points="797.09 162.98 794.12 170.08 820.43 164.67 825.1 140.29 814.85 107.7 795.76 125.28 797.09 162.98"/><polyline class="cls-29" points="826.44 134.48 825.1 140.29 818.08 132.81 826.44 128.31 826.44 134.48"/><polygon class="cls-30" points="820.37 94.26 832.36 96.74 835.54 107.15 832.21 115.54 819.18 113.28 813.63 99.61 820.37 94.26"/><polygon class="cls-31" points="808.87 90.5 819.58 88.22 832.36 96.74 820.47 104.66 796.68 107.04 808.87 90.5"/><polygon class="cls-30" points="795.76 85.67 814.52 83.84 819.58 88.22 805.01 99.84 785.09 106.36 795.76 85.67"/><polygon class="cls-31" points="776.96 96.05 766.16 94.41 784.53 82.16 814.52 83.84 776.96 96.05"/><polygon class="cls-30" points="768.24 100.6 766.16 94.41 814.52 83.84 794.1 95.15 777.85 111.7 768.24 100.6"/><polygon class="cls-30" points="779.73 107.73 776.82 103.78 794.1 95.15 805.01 99.84 806.51 103.05 794.9 113.38 779.73 107.73"/><polygon class="cls-30" points="767.84 103.28 762.59 107.64 770.84 124.86 784.75 111.7 767.84 103.28"/><polygon class="cls-31" points="779.73 107.73 776.82 103.78 766.16 94.41 762.59 107.64 770.7 111.06 779.73 107.73"/><polygon class="cls-32" points="805.7 107.54 805.01 99.84 820.47 104.66 832.21 115.54 825.8 121.51 817.23 116.14 813.85 111.7 805.7 107.54"/><polygon class="cls-33" points="828.72 123.03 825.08 128.36 824.03 126.27 815.82 124.58 815.6 113.99 832.21 115.54 828.72 123.03"/><polygon class="cls-29" points="786.3 152.33 795.88 170.08 809.61 170.08 814.79 158.87 811.49 158.88 786.3 152.33"/><polygon class="cls-27" points="771.63 158.27 811.49 158.79 813.85 111.7 805.01 99.84 776.82 103.78 770.7 111.06 770.7 115.19 771.63 158.27"/><polygon class="cls-34" points="819.72 121.27 828.72 123.03 826.44 134.48 818.08 132.81 819.72 121.27"/><polygon class="cls-35" points="821.84 124.28 820.88 129.37 825.26 125.05 821.84 124.28"/><polygon class="cls-2" points="751.88 298.34 800.73 290.21 849.73 301.11 800.65 305.6 751.88 298.34"/><polygon class="cls-8" points="800.65 250.74 795.76 267.09 784.42 270.18 776.46 264.29 776.65 237.7 785.58 225.24 800.65 250.74"/><polygon class="cls-8" points="800.65 248.98 806.89 267.09 817.95 279.92 826.7 267.76 827.48 240.86 820.33 224.46 800.65 248.98"/><polygon class="cls-13" points="800.65 250.74 776.64 239.25 776.64 230.01 787.97 218.04 827.91 231.55 827.48 240.86 800.65 250.74"/><polygon class="cls-26" points="789.27 168.5 787.37 179.49 777.89 202.21 776.78 225.24 784.55 229.71 800.9 227.71 810.41 224.6 803.2 168.92 789.27 168.5"/><polygon class="cls-26" points="789.27 168.5 779.02 172.15 777.89 202.21 802.28 196.82 803.2 168.92 789.27 168.5"/><polygon class="cls-11" points="820.47 169.57 834.91 175.21 828.36 226.52 820.33 230.49 801.46 228.5 803.2 168.92 812.68 172.16 820.47 169.57"/><polygon class="cls-21" points="776.78 225.24 828.36 226.52 827.91 231.55 776.64 230.01 776.78 225.24"/><polygon class="cls-11" points="822.06 168.25 834.91 175.21 830.95 204.01 803.4 197.63 803.2 168.92 812.68 172.16 822.06 168.25"/><polygon class="cls-13" points="806.89 267.09 826.7 267.76 826.16 289.04 820.33 289.82 812.85 287.29 806.89 267.09"/><polygon class="cls-13" points="776.46 264.29 795.76 267.09 789.75 289.82 782.9 289.08 776.32 283.8 776.46 264.29"/><polygon class="cls-14" points="812.85 287.29 809.49 298.19 818.99 299.72 827.48 298.19 826.16 289.04 812.85 287.29"/><rect class="cls-36" x="809.49" y="298.19" width="17.99" height="3.06"/><polygon class="cls-36" points="789.47 297.17 782.97 297.17 782.55 294.98 775.05 297.17 763.14 297.17 763.14 294.1 776.44 292.42 789.47 294.1 789.47 297.17"/><polygon class="cls-14" points="776.32 283.8 763.14 294.1 779.81 294.1 789.47 294.1 789.75 289.82 776.32 283.8"/><polygon class="cls-10" points="820.76 162.95 822.06 168.25 813.27 179.72 803.2 168.92 792.38 179 789.27 168.5 792.28 163.41 803.2 168.92 820.76 162.95"/><polygon class="cls-6" points="797.09 225.74 797.09 229.99 804.29 230.14 804.29 225.92 797.09 225.74"/><polygon class="cls-28" points="784.34 120.25 786.47 121.98 786.84 123.18 790.38 125.73 793.4 123.31 793.98 121.98 797 119.95 804.29 119.33 807.39 120.95 801.27 125.73 793.66 136.62 788.53 132.13 785.53 136.35 779.11 126.1 773.8 121.09 778.08 119.33 784.34 120.25"/><polygon class="cls-29" points="789.57 132.72 785.53 136.35 789.9 139.94 793.66 136.62 789.57 132.72"/><polygon class="cls-37" points="786.84 123.18 793.4 123.31 793.66 136.62 785.53 136.35 786.84 123.18"/><path class="cls-21" d="M801.9,124.85a2.1,2.1,0,1,1-2.1-2.1A2.1,2.1,0,0,1,801.9,124.85Z"/><path class="cls-21" d="M782.9,125.33a2.1,2.1,0,1,1-2.1-2.1A2.1,2.1,0,0,1,782.9,125.33Z"/><polygon class="cls-29" points="782.99 143.28 798.34 143.32 795.41 150.88 785.92 150.8 782.99 143.28"/><polygon class="cls-14" points="793.98 121.98 793.98 118.59 807.35 117.83 807.39 120.95 793.98 121.98"/><polygon class="cls-14" points="786.47 121.98 786.47 118.52 773.5 118.67 773.8 121.09 786.47 121.98"/><polygon class="cls-15" points="785.02 144.81 795.95 144.92 795.23 147.5 786.1 147.54 785.02 144.81"/><polygon class="cls-38" points="619.25 193.83 627.94 198.47 612.36 227.14 592.33 233.71 602.61 200.19 619.25 193.83"/><polygon class="cls-39" points="606.52 174.5 613.05 163.24 627.94 198.47 610.81 200.92 606.52 174.5"/><polygon class="cls-40" points="569.19 146.68 567.23 146.91 572.32 156.75 574.25 160.11 579.4 163.75 585.46 163.92 595.1 159.55 599.71 147.83 569.19 146.68"/><polygon class="cls-23" points="599.4 180.55 602.3 159.4 610.22 132.51 608.29 116.52 597.19 109.96 594.67 111.87 592.11 138.56 579.69 146.77 592.98 149.29 597.81 150.21 593.83 157.77 599.4 180.55"/><polygon class="cls-32" points="548.24 278.02 570.51 278.02 570.51 273.81 567.47 272.22 553.39 272.24 548.24 273.81 548.24 278.02"/><polygon class="cls-30" points="558.73 264.75 548.24 273.81 570.51 273.81 570.51 265.64 568.79 263.63 563.12 263.19 558.73 264.75"/><polygon class="cls-32" points="597.47 280.52 615.57 280.52 615.57 276.31 613.1 274.72 600.67 274.49 597.47 276.31 597.47 280.52"/><polygon class="cls-30" points="599.32 267.65 597.47 276.31 615.57 276.31 611.45 267.21 608.02 264.79 603.05 265.01 599.32 267.65"/><polygon class="cls-41" points="564.54 227.07 562.37 261.76 564.42 265.18 570.51 265.64 581.05 236.85 578.84 231.42 567.83 224.08 564.54 227.07"/><polygon class="cls-41" points="590.62 225.71 588.68 229.79 602.52 265.65 606.15 267.4 611.45 267.21 612.36 227.14 609.62 225.33 590.62 225.71"/><polygon class="cls-42" points="552.41 224.51 554.7 222.88 567.83 224.08 564.42 265.18 558.73 264.75 552.41 224.51"/><polygon class="cls-42" points="590.62 225.71 606.15 267.4 599.32 267.65 579.87 234.87 580.69 231.53 590.62 225.71"/><polygon class="cls-24" points="577.18 217.39 567.83 224.08 567.57 226.94 581.05 236.85 591.54 228.2 590.62 225.71 577.18 217.39"/><polygon class="cls-43" points="542.7 199.66 554.3 225.06 556.05 209.18 556.8 195.73 554.09 193.16 547.72 195.43 542.7 199.66"/><polygon class="cls-39" points="555.62 164.5 542.7 199.66 556.8 195.73 557.53 167.47 555.62 164.5"/><polygon class="cls-38" points="569.37 160.61 555.62 164.5 552.41 224.51 567.57 226.94 580.56 217.57 581.03 196.07 561.57 174.71 568.89 164.91 569.37 160.61"/><polygon class="cls-43" points="588.14 188.29 578.11 198.59 577.05 220.1 591.54 228.2 612.36 227.14 613.05 163.24 602.3 159.4 588.14 188.29"/><polygon class="cls-22" points="575 203.95 577.71 206.68 580.52 204.24 577.96 201.58 575 203.95"/><polygon class="cls-22" points="574.45 214.46 577.18 217.39 579.99 215 577.43 212.29 574.45 214.46"/><polygon class="cls-44" points="567.52 171.24 577.81 166.14 584.45 166.55 593.83 173.28 586.28 188.18 578.11 198.59 572.32 187.98 567.52 171.24"/><polygon class="cls-45" points="577.81 166.14 575.47 193.76 578.11 198.59 581.77 193.93 584.27 166.53 577.81 166.14"/><polygon class="cls-43" points="558.36 174.51 565.91 165.12 570.83 167.97 570.49 172.06 578.11 198.59 558.36 174.51"/><polygon class="cls-38" points="592.46 168.79 591.08 173.49 578.11 198.59 603.55 178.63 602.3 159.4 598.63 166.14 592.46 168.79"/><polygon class="cls-24" points="565.91 165.12 570.49 172.06 577.65 168.06 579.41 164.91 573.24 163.28 565.91 165.12"/><polygon class="cls-24" points="582.77 164.9 584.1 168.38 591.08 173.49 598.63 166.14 590.4 163.49 582.77 164.9"/><polygon class="cls-42" points="572.32 156.75 565.91 165.12 579.41 164.91 578.5 161.44 572.32 156.75"/><polygon class="cls-42" points="582.77 164.9 584.91 161.65 593.83 157.77 598.63 166.14 582.77 164.9"/><polygon class="cls-41" points="578.5 161.44 577.65 168.06 584.1 168.38 584.91 161.65 578.5 161.44"/><polygon class="cls-40" points="604.26 125.46 610.22 132.51 613.59 125.46 608.8 123.76 604.26 125.46"/><polygon class="cls-30" points="596.18 95.89 595.17 107.81 597.19 109.96 604.83 120.03 614.9 111.77 616.85 91.38 610.31 90.41 600.47 92.07 596.18 95.89"/><path class="cls-46" d="M605.52,112.1s-1.14,13.67-1.26,13.36,9.33,0,9.33,0l1.31-13.7Z"/><polygon class="cls-40" points="608.47 115.21 607.73 120.88 611.98 115.2 608.47 115.21"/><polygon class="cls-47" points="551.57 92.61 556.08 94.94 562.38 91.12 562.89 83.73 556.58 81.34 551.57 92.61"/><polygon class="cls-30" points="565.91 74.67 556.58 81.34 562.38 91.12 567.17 90.17 569.45 80.63 565.91 74.67"/><polygon class="cls-30" points="580.54 81.34 588.62 74.67 602.49 78.24 598.46 85.4 588.37 90.88 577.52 90.64 580.54 81.34"/><polygon class="cls-47" points="568.44 92.55 567.17 90.17 565.91 74.67 588.62 74.67 577.52 90.64 573.73 92.31 568.44 92.55"/><polygon class="cls-47" points="596.18 95.89 588.37 90.88 591.64 86.11 602.49 78.24 616.85 91.38 596.18 95.89"/><polygon class="cls-46" points="552.18 147.95 578.66 148.81 592.98 149.29 598.85 95.38 592.28 85.64 577.39 89.91 567.05 89.43 559.52 86.29 551.57 92.61 552.18 147.95"/><polygon class="cls-23" points="557.47 109.58 559.34 107.2 563.99 108.83 566.59 110.29 566.81 112.74 568.92 119.38 565.01 125.39 561.64 114.87 557.47 109.58"/><polygon class="cls-23" points="576.75 109.15 573.88 110 573.35 113.1 570.76 119.16 572.84 125.45 579.88 115.16 585.48 110.44 583.27 108.76 576.75 109.15"/><polygon class="cls-30" points="568.76 130.2 565 125.47 568.15 124.02 572.84 125.45 568.76 130.2"/><polygon class="cls-25" points="566.81 112.74 573.35 113.1 572.84 125.45 565 125.47 566.81 112.74"/><polygon class="cls-30" points="557.2 104.92 557.47 109.58 566.59 110.29 566.01 104.92 557.2 104.92"/><polygon class="cls-30" points="574.09 105.35 573.88 110 585.48 110.44 586.08 105.85 574.09 105.35"/><path class="cls-48" d="M561.09,113.34a1.73,1.73,0,1,1-1.85,1.71A1.78,1.78,0,0,1,561.09,113.34Z"/><path class="cls-48" d="M579.41,113.56a1.73,1.73,0,1,1-1.84,1.7A1.77,1.77,0,0,1,579.41,113.56Z"/><polygon class="cls-47" points="558.5 134.13 565 125.47 568.76 130.2 572.84 125.45 581.39 133.84 558.5 134.13"/><polygon class="cls-7" points="528.8 271.5 648.19 349.5 899.98 336.25 892.98 270.83 528.8 271.5"/><polygon class="cls-49" points="388.73 268.17 428.75 334.5 648.19 349.5 648.86 314.5 410.08 251.5 388.73 268.17"/><polyline class="cls-7" points="211.65 263.5 261.17 350 428.75 334.5 426.68 292.97 211.65 263.5"/><polygon class="cls-49" points="189.64 271 11.22 255.5 1.21 330.17 261.17 350 261.67 315.17 189.64 271"/><polygon class="cls-4" points="11.22 255.5 331.7 226 892.98 270.83 648.86 314.5 426.5 299.25 261.67 315.17 11.22 255.5"/><polygon class="cls-2" points="100.8 247.29 97.59 208.25 109.12 197.99 116.35 181.5 138.53 178.32 249.33 233.67 361.39 245.17 192.97 268.17 100.8 247.29"/><polygon class="cls-2" points="343.38 273.17 451.1 253.83 542.81 263.5 448.43 292.17 343.38 273.17"/><polygon class="cls-11" points="465.96 252.75 504.54 252.88 507.42 265.75 447.76 283.17 429.31 258.92 465.96 252.75"/><polygon class="cls-10" points="425.61 254.39 396.37 256.86 389.23 272.5 447.76 283.17 447.02 267.56 425.61 254.39"/><polygon class="cls-26" points="396.37 256.86 440.84 245.75 504.54 252.88 447.02 267.56 396.37 256.86"/><polygon class="cls-11" points="437.48 124.64 454.1 94.83 494.15 143.38 440.04 153.18 437.48 124.64"/><polygon class="cls-10" points="433.22 162.54 415.33 139.97 454.1 94.83 450.76 144.75 433.22 162.54"/><polygon class="cls-3" points="441.32 166.38 450.76 144.75 494.15 143.38 484.78 254.11 452.11 259.5 441.32 166.38"/><polygon class="cls-8" points="415.33 139.97 421.44 254.96 452.11 259.5 450.76 144.75 415.33 139.97"/><polygon class="cls-10" points="463.9 174.42 479.22 173.62 486.88 181.68 486.34 194.84 480.83 202.9 464.97 204.92 456.1 197.93 455.7 183.83 463.9 174.42"/><polygon class="cls-4" points="466.79 180.6 476.6 179.66 481.17 183.09 481.71 193.03 478.48 198.6 467.46 199.88 462.28 195.72 462.15 185.44 466.79 180.6"/><polygon class="cls-1" points="473.59 180.59 463 190.33 463.05 195.12 477.7 181.25 476.47 180.22 473.59 180.59"/><polygon class="cls-1" points="480.46 183.5 466.14 197.63 467.57 198.9 470.93 198.58 480.73 188.63 480.46 183.5"/><polygon class="cls-13" points="432.36 231.57 443.26 227.93 442.33 258.04 429.8 260.96 422.15 242.02 432.36 231.57"/><polygon class="cls-8" points="423.77 236.67 412.63 242.26 411.24 256.83 429.8 260.96 430.5 244.2 423.77 236.67"/><polygon class="cls-3" points="426.56 226.96 443.26 227.93 430.5 244.2 412.63 242.26 426.56 226.96"/><polygon class="cls-31" points="310.24 228.41 292.37 248.47 268.85 243.45 276.37 194.87 313.38 192.68 310.24 228.41"/><polygon class="cls-50" points="295.19 195.5 292.37 248.47 332.35 244.63 328.12 194.09 295.19 195.5"/><polygon class="cls-51" points="303.66 87.99 240.63 6.5 223.65 13.67 222.13 184.53 308.67 156.94 303.66 87.99"/><polygon class="cls-33" points="240.63 6.5 241.1 205.37 394.91 195.97 392.56 16.84 240.63 6.5"/><polygon class="cls-52" points="258.26 21.78 255.99 186.41 380.8 180.92 380.8 28.13 258.26 21.78"/><polygon class="cls-38" points="335.67 151.62 313.6 177.93 283.37 175.12 269.69 158.81 270.41 134.83 284.81 118.04 309.04 115.17 327.63 128.47 335.67 151.62"/><polygon class="cls-53" points="357.5 55.67 349.35 56.98 342.39 63.81 342.99 75.08 349.58 81.07 363.13 81.67 369.48 75.44 369.72 65.61 364.57 58.42 357.5 55.67"/><polygon class="cls-33" points="319.99 118.79 341.33 92.5 343.84 94.25 344.21 84.88 334.87 88.17 337.65 90.06 319.99 118.79"/><polygon class="cls-42" points="356.8 60.08 354.72 64.79 357.4 69.31 363.36 68.78 364.43 63.72 362.58 61.16 356.8 60.08"/><polygon class="cls-42" points="346.8 66.42 350.14 66.25 353.14 70.38 349.23 73.27 345.27 71.57 345.21 68.06 346.8 66.42"/><polygon class="cls-42" points="361.95 74.52 359.44 74.38 358.1 76.42 359.58 78.96 362.41 78.57 363.43 76.42 361.95 74.52"/><polygon class="cls-43" points="303.64 120.65 302.74 127.22 305.35 132.43 303.73 140.34 312.1 140.34 318.12 135.22 325.41 132.52 327.63 128.47 319.02 120.56 309.04 115.17 303.64 120.65"/><polygon class="cls-43" points="288.44 144.75 280.97 140.34 275.3 140.44 270.41 134.83 269.09 146.64 269.69 158.81 279.17 157.88 285.02 152.66 290.68 153.29 288.44 144.75"/><polygon class="cls-43" points="311.92 150.15 302.2 150.87 296.35 158.33 289.33 160.13 285.74 166.96 289.87 175.69 314.17 178.56 327.84 160.94 311.92 150.15"/><polygon class="cls-45" points="267.64 36.5 320.71 38.84 320.12 49.54 340.21 62.73 319.83 57.89 319.54 67.27 266.56 66.78 267.64 36.5"/><polygon class="cls-41" points="273.99 60.34 281.13 47.64 292.66 63.17 298.33 56.23 307.22 65.32 274.97 66 273.99 60.34"/><polygon class="cls-53" points="266.86 55.06 281.13 47.64 286.11 62.39 298.33 56.23 299.31 63.27 312.31 51.74 319.83 57.89 319.83 67.96 266.17 67.37 266.86 55.06"/><polygon class="cls-33" points="289.6 84.58 288.56 86.42 285.85 85.75 287.56 87.67 285.27 89.63 288.35 88.88 289.56 90.96 289.81 88.46 292.06 87.75 289.94 86.88 289.6 84.58"/><polygon class="cls-33" points="356.11 164.55 355.16 166.21 352.7 165.61 354.25 167.35 352.17 169.12 354.97 168.44 356.07 170.33 356.3 168.07 358.34 167.42 356.41 166.63 356.11 164.55"/><polygon class="cls-33" points="350.64 120.98 353.25 123.3 351.24 127.44 354.92 125.34 357.29 129.71 357.14 124.48 360.92 123.24 356.97 121.98 356.6 118.11 354.46 121.23 350.64 120.98"/><polygon class="cls-33" points="346.08 38.33 344.72 40.73 341.17 39.85 343.41 42.36 340.41 44.92 344.44 43.94 346.02 46.67 346.35 43.4 349.3 42.47 346.52 41.33 346.08 38.33"/><polygon class="cls-54" points="254.85 109.76 257.13 104.13 265.15 100.02 267.39 109.52 260.27 116.16 254.85 109.76"/><polygon class="cls-55" points="246.23 106.55 250.19 106.02 257.13 104.13 260.27 116.16 244.37 119.36 246.23 106.55"/><polygon class="cls-54" points="242.36 112.21 245.96 102.8 254.5 99.27 255.26 101.5 250.19 106.02 249.3 109.99 243.83 113.56 242.36 112.21"/><polygon class="cls-55" points="168.96 219.34 164.54 235.77 158.75 241.48 155.89 237.84 154.19 214 156.17 199.18 168.96 219.34"/><polygon class="cls-56" points="157.5 209.9 170.3 214.18 168.96 219.34 154.19 214 157.5 209.9"/><polygon class="cls-55" points="196.58 189.14 197.37 214.46 196.44 231.67 190.83 239.68 187.01 233.42 183.1 219.34 196.58 189.14"/><polygon class="cls-56" points="187.47 206.91 197.37 214.46 183.1 219.34 181.67 214.28 187.47 206.91"/><polygon class="cls-9" points="139.64 204.88 173.34 197.24 210.07 205.81 200.96 174.09 181.72 151.95 151.06 180.26 148.53 182.65 139.64 204.88"/><polygon class="cls-8" points="170.3 214.18 151.43 179.98 155.57 169.81 181.99 147.49 199.44 169.3 197.37 214.46 170.3 214.18"/><polygon class="cls-13" points="154.19 214 151.43 179.98 155.57 169.81 181.99 147.49 187.61 165.85 170.3 214.18 154.19 214"/><polygon class="cls-8" points="244.05 105 235.98 114.37 234.69 122.26 239.74 127.38 255.48 121.81 244.05 105"/><polygon class="cls-13" points="147.97 127.78 138.08 132.62 134.26 156.6 148.53 165.34 154.37 162.72 155.8 155.77 156.77 142.01 146.32 119.59 147.97 127.78"/><polygon class="cls-13" points="139.55 123.14 138.08 132.62 152.85 139.94 156.08 136.76 152.76 113.28 140.61 116.23 139.55 123.14"/><polygon class="cls-10" points="134.26 156.6 148.53 165.34 154.37 162.72 155.8 155.77 134.26 156.6"/><polygon class="cls-21" points="92.26 72.12 107.54 101.57 112.96 102.62 120.52 86.99 118.68 80.08 92.26 72.12"/><polygon class="cls-14" points="198.64 69.54 128.35 111.68 107.54 101.57 143.58 32.06 198.64 69.54"/><polygon class="cls-21" points="198.64 69.54 187.87 91.93 128.35 111.68 167.55 48.4 198.64 69.54"/><polygon class="cls-36" points="213.68 24.34 226.38 48.35 207.92 79.26 203.7 21.45 213.68 24.34"/><polygon class="cls-21" points="214.74 21.48 226.38 48.35 203.7 21.45 214.74 21.48"/><polygon class="cls-55" points="158.95 101.52 144.08 42.4 162.14 33.42 175.83 56.19 186.31 104.74 180.54 136.71 159.11 103.94 158.95 101.52"/><polygon class="cls-54" points="210.16 29.19 208.45 102.64 167.82 103.43 161.36 33.62 210.16 29.19"/><polygon class="cls-15" points="185.28 92.13 178.84 87.96 186.32 87.91 190.41 89.32 194.76 89.15 198.79 89.52 188.96 92.99 185.28 92.13"/><polygon class="cls-56" points="186.76 102.97 180.02 131.83 163.45 103.11 186.76 102.97"/><polygon class="cls-36" points="156.12 40.57 163.98 61.81 160.46 64.05 158.48 90.68 158.95 101.52 135.41 47.73 156.12 40.57"/><polygon class="cls-54" points="160.46 64.05 150.65 65.34 153.68 78.64 162.49 76.54 160.46 64.05"/><polygon class="cls-56" points="158.24 67.2 153.48 67.79 158.4 72.02 158.24 67.2"/><polygon class="cls-13" points="159.48 74.34 160.69 81.75 156.78 82.3 156.09 74.87 159.48 74.34"/><polygon class="cls-57" points="194.18 58.3 195.66 78.39 188.54 78.33 188.8 58.15 194.18 58.3"/><polygon class="cls-56" points="191.12 82.01 195.66 78.39 188.54 78.33 191.12 82.01"/><polygon class="cls-55" points="175.29 57.83 188.8 58.15 188.54 78.33 175.29 57.83"/><polygon class="cls-55" points="195.35 73.87 204.81 57.42 194.18 58.3 195.35 73.87"/><polygon class="cls-21" points="174.24 53.28 185.27 58.06 169.8 57.47 174.24 53.28"/><polygon class="cls-13" points="198.79 89.52 195.41 88.84 190.01 86.07 183.15 87.87 178.84 87.96 189.94 89.71 198.79 89.52"/><polygon class="cls-3" points="188.36 95.91 198.79 89.52 188.79 92.47 178.84 87.96 188.36 95.91"/><polygon class="cls-21" points="207.9 56.98 194.18 58.3 205.94 52.01 207.9 56.98"/><polygon class="cls-14" points="219.45 29.68 163.98 61.81 128.66 44.43 143.58 32.06 210.57 8.98 219.45 29.68"/><polygon class="cls-21" points="128.66 44.43 140.77 28.87 210.57 8.98 128.66 44.43"/><polygon class="cls-16" points="229.61 31.48 163.98 61.81 210.57 8.98 229.61 31.48"/><polygon class="cls-13" points="192.3 119.22 198.79 117.61 201.65 114.02 218.65 124.57 231.15 124.47 226.42 141.94 195.43 139.52 192.3 119.22"/><polygon class="cls-10" points="218.65 124.57 235.98 114.37 239.74 127.38 226.42 141.94 218.65 124.57"/><polygon class="cls-8" points="147.79 119.82 152.76 113.28 155.2 112.36 167.77 119.54 181.21 125.99 185.72 134.14 181.76 155.45 172.51 166.4 151.61 181.73 155.8 155.77 147.79 119.82"/><polygon class="cls-3" points="172.51 166.4 139.64 204.88 138.68 178.32 155.8 155.77 172.51 166.4"/><polygon class="cls-3" points="199.21 156.74 204.5 177.54 187.61 165.85 193.13 175.7 181.76 155.45 181.21 125.99 192.35 117.75 189.77 112.46 199.71 114.94 201.46 117.84 199.21 156.74"/><polygon class="cls-5" points="199.21 156.74 212.83 185.28 210.07 205.81 193.13 175.7 187.61 165.85 199.21 156.74"/><polygon class="cls-13" points="186.33 104.68 189.77 112.46 192.03 115.72 192.35 117.75 187.65 124.79 181.21 125.99 186.33 104.68"/><polygon class="cls-13" points="155.2 112.36 159.11 103.94 181.21 125.99 164.68 125.94 155.2 112.36"/><polygon class="cls-3" points="155.2 112.36 140.61 116.18 139.55 123.09 139.55 123.14 158.38 116.88 155.2 112.36"/><polygon class="cls-5" points="189.77 112.46 201.65 114.02 201.46 117.84 192.35 117.75 191.47 115.91 189.77 112.46"/><polygon class="cls-5" points="187.61 165.85 172.51 166.4 181.76 155.45 187.61 165.85"/><polygon class="cls-5" points="178.22 138.28 181.44 135.1 184.11 138.37 181.48 141.64 178.22 138.28"/><polygon class="cls-5" points="178.45 150.06 181.62 147.03 184.38 150.25 181.76 153.33 178.45 150.06"/><path class="cls-21" d="M202.35,60.22a2.95,2.95,0,0,0-.92,5.82,3,3,0,0,0,3.37-2.45A2.93,2.93,0,0,0,202.35,60.22Z"/><path class="cls-21" d="M179.8,60.52a2.95,2.95,0,1,0-.92,5.82,2.95,2.95,0,1,0,.92-5.82Z"/><polygon class="cls-13" points="189.82 251.7 187.1 251.65 185.31 240.79 187.01 233.42 193.45 237.75 192.07 242.08 189.82 251.7"/><polygon class="cls-13" points="155.89 237.84 151.66 247.14 154.79 255.24 155.89 237.84"/><polygon class="cls-54" points="164.54 235.77 167.77 242.12 163.53 247.42 154.97 249.07 155.89 237.84 164.54 235.77"/><polygon class="cls-8" points="154.97 249.07 167.77 242.12 169.33 244.93 166.62 249.07 154.79 251.97 154.97 249.07"/><polygon class="cls-8" points="154.79 251.97 169.33 244.93 173.84 251.97 166.71 253.31 154.79 251.97"/><polygon class="cls-54" points="196.44 231.54 203.81 239.5 199.99 243.64 194.19 245.71 187.01 233.42 196.44 231.54"/><polygon class="cls-8" points="194.19 245.71 203.81 239.5 206.06 241.71 202.61 245.58 195.71 247.69 194.19 245.71"/><polygon class="cls-8" points="195.71 248.34 206.06 241.71 213.01 248.34 203.85 249.72 195.71 248.34"/><polygon class="cls-13" points="154.79 251.97 154.79 255.24 173.84 255.24 173.84 251.97 154.79 251.97"/><polygon class="cls-13" points="192.07 242.08 190.65 243.41 191.24 244.79 198.01 251.84 213.01 251.84 213.01 248.34 200.54 248.34 192.07 242.08"/><polygon class="cls-39" points="188.97 258.5 171.85 255.21 167.14 193.47 169.01 192 193.59 176.91 195.77 255.52 188.97 258.5"/><polygon class="cls-43" points="246 253.83 188.97 258.5 183.65 187.04 192.72 183.96 255.76 181.79 256.05 186.34 246 253.83"/><polygon class="cls-58" points="167.14 193.47 183.65 187.04 256.05 186.34 264.87 178.7 253.28 173.52 183.88 162.01 160.63 191.59 167.14 193.47"/><polygon class="cls-43" points="164.92 161.6 160.63 191.59 175.31 184.48 183.56 180.28 186.7 157.18 183.98 149.94 164.92 161.6"/><polygon class="cls-38" points="256.54 149.38 183.98 149.94 183.56 180.28 264.87 178.7 256.54 149.38"/><polygon class="cls-38" points="239.54 199.5 211.15 217.5 225.03 220 228.91 231.13 239.54 199.5"/><polygon class="cls-38" points="230.66 202.38 204.06 203.04 206.31 240.29 236.24 238.13 235.33 217.46 231.57 228.79 231.82 234.13 211.06 235.71 209.4 207.38 224.82 206.13 230.66 202.38"/></svg>