<svg id="illustration_right" data-name="illustration right" xmlns="http://www.w3.org/2000/svg" viewBox="0 0 900 350"><defs><style>.cls-1,.cls-17{fill:#cececd;}.cls-1,.cls-10,.cls-11,.cls-12,.cls-2,.cls-22,.cls-23,.cls-24,.cls-25,.cls-26,.cls-27,.cls-28,.cls-29,.cls-3,.cls-30,.cls-31,.cls-4,.cls-43,.cls-44,.cls-45,.cls-46,.cls-47,.cls-48,.cls-49,.cls-5,.cls-51,.cls-54,.cls-55,.cls-56,.cls-57,.cls-58,.cls-59,.cls-6,.cls-60,.cls-61,.cls-62,.cls-63,.cls-65,.cls-66,.cls-67,.cls-68,.cls-7,.cls-8,.cls-9{fill-rule:evenodd;}.cls-16,.cls-2{fill:#fff;}.cls-13,.cls-3,.cls-53,.cls-60{fill:#2b2b2b;}.cls-13,.cls-3,.cls-9{opacity:0.1;}.cls-4{fill:#c4c4c4;}.cls-14,.cls-5{fill:#8f8f8f;}.cls-18,.cls-6{fill:#dddddc;}.cls-7{fill:#9da1a2;}.cls-21,.cls-8{fill:#a3a3a3;}.cls-37,.cls-62,.cls-65,.cls-9{fill:#33231b;}.cls-10,.cls-15{fill:#737373;}.cls-11{fill:#ececeb;}.cls-12,.cls-19{fill:#858686;}.cls-20,.cls-49{fill:#6f7173;}.cls-22,.cls-32{fill:#9075a0;}.cls-23{fill:#efd3c2;}.cls-24{fill:#d0af96;}.cls-25{fill:#a9846c;}.cls-26,.cls-38{fill:#785d88;}.cls-27,.cls-33{fill:#d1a1b8;}.cls-28,.cls-39{fill:#96637c;}.cls-29{fill:#a688ba;}.cls-30,.cls-50{fill:#734d60;}.cls-31,.cls-34{fill:#b3889d;}.cls-35,.cls-58{fill:#573a2f;}.cls-36,.cls-59{fill:#754f40;}.cls-40,.cls-41,.cls-52,.cls-64{fill:none;stroke-miterlimit:10;}.cls-40{stroke:#cececd;}.cls-41{stroke:#a3a3a3;stroke-width:3px;}.cls-42,.cls-46{fill:#594165;}.cls-43{fill:#c3987b;}.cls-44{fill:#dfbda5;}.cls-45{fill:#e8cab6;}.cls-47{fill:#8b6651;}.cls-48{fill:#474747;}.cls-51{fill:#84614f;}.cls-52{stroke:#8f8f8f;}.cls-54{fill:#a27e6e;}.cls-55{fill:#7f5d4e;}.cls-56{fill:#aa8d80;}.cls-57{fill:#593e35;}.cls-61{fill:#7f5a4b;}.cls-63{fill:#4f5253;}.cls-64{stroke:#9075a0;}.cls-65{opacity:0.19;}.cls-66{fill:#d0ab92;}.cls-67{fill:#b48c71;}.cls-68{fill:#83624d;}</style></defs><title>analysts_INTP_scene_med_friendships</title><g id="lamps"><polygon class="cls-1" points="717.37 27.29 689.11 35.52 660.86 27.29 689.11 18.05 717.37 27.29"/><polygon class="cls-2" points="705.62 27 689.11 31.22 672.61 27 689.11 23.35 705.62 27"/><polygon class="cls-1" points="597.27 27.29 569.01 35.52 540.76 27.29 569.01 18.05 597.27 27.29"/><polygon class="cls-2" points="585.52 27 569.01 31.22 552.51 27 569.01 23.35 585.52 27"/><polygon class="cls-1" points="837.46 27.29 809.21 35.52 780.95 27.29 809.21 18.05 837.46 27.29"/><polygon class="cls-2" points="825.71 27 809.21 31.22 792.7 27 809.21 23.35 825.71 27"/><polygon class="cls-1" points="767.79 56.24 749.16 61.67 730.52 56.24 749.16 50.14 767.79 56.24"/><polygon class="cls-2" points="760.04 56.05 749.16 58.84 738.27 56.05 749.16 53.64 760.04 56.05"/><polygon class="cls-1" points="887.89 56.24 869.25 61.67 850.62 56.24 869.25 50.14 887.89 56.24"/><polygon class="cls-2" points="880.14 56.05 869.25 58.84 858.37 56.05 869.25 53.64 880.14 56.05"/><polygon class="cls-1" points="647.7 56.24 629.06 61.67 610.43 56.24 629.06 50.14 647.7 56.24"/><polygon class="cls-2" points="639.95 56.05 629.06 58.84 618.18 56.05 629.06 53.64 639.95 56.05"/><polygon class="cls-1" points="116.89 27.29 88.63 35.52 60.38 27.29 88.63 18.05 116.89 27.29"/><polygon class="cls-2" points="105.14 27 88.63 31.22 72.13 27 88.63 23.35 105.14 27"/><polygon class="cls-1" points="167.31 56.24 148.68 61.67 130.04 56.24 148.68 50.14 167.31 56.24"/><polygon class="cls-2" points="159.56 56.05 148.68 58.84 137.79 56.05 148.68 53.64 159.56 56.05"/><polygon class="cls-1" points="47.22 56.24 28.58 61.67 9.95 56.24 28.58 50.14 47.22 56.24"/><polygon class="cls-2" points="39.47 56.05 28.58 58.84 17.7 56.05 28.58 53.64 39.47 56.05"/></g><g id="stands"><polygon class="cls-3" points="889.43 238.07 823.56 231.44 762.48 238.95 826.64 243.67 889.43 238.07"/><polygon class="cls-4" points="842.1 205.35 844.8 238.41 819.38 238.95 817.19 217.8 817.21 203.19 842.1 205.35"/><polygon class="cls-5" points="817.21 203.19 808.01 203.19 808.01 237.13 819.38 238.95 817.21 203.19"/><polygon class="cls-2" points="888.71 143.25 775.09 142.67 772.46 194.99 888.71 196.24 888.71 143.25"/><polygon class="cls-6" points="848.74 141.24 854.16 191.7 850.09 191 846.69 141.99 848.74 141.24"/><polygon class="cls-6" points="852.83 141.99 854.16 191.7 856.17 191.7 857.5 141.99 852.83 141.99"/><polygon class="cls-6" points="878.83 196.17 881.33 142.67 867.67 141.73 861.5 196.17 878.83 196.17"/><polygon class="cls-4" points="871.51 141.79 868.17 196.24 862.17 196.24 864.34 140.66 871.51 141.79"/><polygon class="cls-4" points="877.67 197.17 879.65 142.56 883 141.99 884.33 195.6 877.67 197.17"/><polygon class="cls-7" points="889.43 184.83 839.83 187.67 770.83 176.5 770.83 195.33 877.5 198.17 892 195.33 889.43 184.83"/><path class="cls-1" d="M765.63,132.29l-5.91,72.07,138,2.54L900,134.19Zm122.08,63L773.46,194l2.63-50.32,111.62.59Z" transform="translate(0)"/><polygon class="cls-3" points="847.64 187.22 857.16 190.35 866.11 189.51 872.33 185.81 847.64 187.22"/><polygon class="cls-7" points="851.73 169.46 849.49 170.99 843.33 170.99 844.66 172.5 850.49 174 854.16 171.73 851.73 169.46"/><polygon class="cls-7" points="863.16 176.5 865.66 180.33 872.33 182.83 868.08 187.33 863.16 182.67 857.66 179.17 863.16 176.5"/><polygon class="cls-8" points="846.83 163 850.66 160.33 853.99 164.5 863.16 176.5 856.49 180.17 859 188.08 853.42 188.42 850.83 179.17 855.66 176.67 850.66 167.5 848.49 167.5 846.83 163"/><polygon class="cls-4" points="856.06 166.97 861.16 167.67 858.61 175 856.06 174 857.16 170.99 854.16 169.46 856.06 166.97"/><polygon class="cls-3" points="481.32 241.25 552.84 234.84 622.33 242.25 549.33 245.34 481.32 241.25"/><polygon class="cls-8" points="531.75 210.85 528.67 241.63 557.6 242.25 560.09 225.01 560.06 208.39 531.75 210.85"/><polygon class="cls-5" points="560.06 208.39 570.53 208.39 570.53 240.17 557.6 242.25 560.06 208.39"/><polygon class="cls-1" points="465.87 135.86 618.75 127.73 625.46 209.73 468.48 218.58 465.87 135.86"/><polygon class="cls-2" points="479.86 147.31 606.84 140.68 609.83 197.93 479.86 205.31 479.86 147.31"/><polygon class="cls-8" points="539.25 169.46 549.5 155.38 566.33 165.83 561.51 169.87 550.25 165.31 539.25 181.48 537.65 175.28 539.25 169.46"/><polygon class="cls-1" points="561.51 169.87 549.25 163.25 539.25 181.48 553.75 181.22 561.51 169.87"/><polygon class="cls-8" points="561.51 169.87 569.96 173.37 571.62 183.27 568.25 194.64 553.75 181.22 561.51 169.87"/><polygon class="cls-1" points="539.25 169.46 519.93 180.79 532.32 195.6 539.25 181.48 539.25 169.46"/><polygon class="cls-1" points="586.51 155.87 564.06 149.35 549.5 155.38 564.97 166 561.51 169.87 571.62 183.27 573.57 192.02 587.98 176.89 586.51 155.87"/><polygon class="cls-9" points="9.46 249.3 80.99 242.89 143.47 250.3 77.48 255.4 9.46 249.3"/><polygon class="cls-5" points="87.25 184.75 101.25 182 100.63 247.63 86.63 249.75 87.25 184.75"/><polygon class="cls-8" points="64.88 194.12 59.87 248.08 86.63 249.75 88.98 218.25 92.34 150 64.88 194.12"/><polygon class="cls-1" points="0 91.77 105.67 84.66 117 188.67 15 199.33 0 91.77"/><polygon class="cls-2" points="15 104.14 119.01 95.05 113 170 25.33 184.33 15 104.14"/><polygon class="cls-8" points="24.17 113.07 26.45 109.5 31.02 111.5 26.88 115.93 24.17 113.07"/><polygon class="cls-8" points="26.17 121.36 28.31 117.64 32.31 120.93 27.74 124.5 26.17 121.36"/><polygon class="cls-8" points="27.02 130.07 29.74 126.5 33.17 130.07 29.31 133.36 27.02 130.07"/><polygon class="cls-8" points="35.88 110.64 49.02 109.5 49.17 110.93 35.74 112.36 35.88 110.64"/><polygon class="cls-8" points="36.45 119.21 44.88 118.07 44.88 119.93 36.45 120.64 36.45 119.21"/><polygon class="cls-8" points="37.17 128.64 45.59 127.64 45.74 129.21 36.88 129.93 37.17 128.64"/></g><g id="people"><polygon class="cls-3" points="394.73 266.02 417.23 262.6 445.39 265.02 418.06 270.09 394.73 266.02"/><polygon class="cls-7" points="430.98 246.41 430.78 262.94 425.48 263.95 421.98 262.94 415.66 242.68 430.98 246.41"/><polygon class="cls-8" points="406.22 242.86 400.35 256 403.03 258.9 408.48 260.2 422.63 243.89 406.22 242.86"/><polygon class="cls-1" points="410.06 232.56 406.22 242.86 430.98 246.41 433.1 228.64 410.06 232.56"/><polygon class="cls-10" points="430.78 262.94 430.78 266.83 418.81 266.83 421.98 262.94 430.78 262.94"/><polygon class="cls-10" points="408.48 260.2 406.22 264 394.31 259.14 400.35 256 408.48 260.2"/><polygon class="cls-3" points="435.5 260.18 450.35 258.7 465.07 260.56 450.03 261.82 435.5 260.18"/><polygon class="cls-1" points="456.39 248.01 453.08 256.89 449.41 257.83 450.26 248.01 456.39 248.01"/><polygon class="cls-11" points="444.98 248.72 447.62 256.89 449.1 257.83 450.35 256.89 451.2 248.01 444.98 248.72"/><polygon class="cls-7" points="443.46 232.04 439.42 249.32 461.52 249.79 459.42 229.01 443.46 232.04"/><polygon class="cls-12" points="453.08 256.89 456.39 260.5 450.26 260.5 449.37 258.7 450.35 256.89 453.08 256.89"/><polygon class="cls-7" points="450.35 256.89 450.26 260.5 444.98 260.56 447.62 256.89 450.35 256.89"/></g><g id="screenstand"><g id="stand"><polygon class="cls-13" points="728.47 254.92 846.69 258.5 729.5 270.27 642.5 259.53 728.47 254.92"/><polygon class="cls-14" points="745.87 210.4 749.69 233.92 749.46 261.06 694.18 260.55 695.72 212.96 745.87 210.4"/><polygon class="cls-15" points="749.46 261.06 765.32 259.02 756.62 206.31 745.87 210.4 749.46 261.06"/><polygon class="cls-16" points="572.9 103.45 816.49 77.35 834.66 197.35 588.51 217.82 572.9 103.45"/><polygon class="cls-17" points="695.27 168.85 688.05 209.46 701.61 208.52 695.27 168.85"/><polygon class="cls-17" points="685.44 123.57 674.07 90.4 696.75 87.28 685.44 123.57"/><polygon class="cls-17" points="732.39 95.32 725.87 147.72 716.59 119.59 732.39 95.32"/><polygon class="cls-18" points="738.2 84.51 721.05 120.33 746.64 205.54 737.17 205.79 709.79 117.01 719.52 86.56 738.2 84.51"/><polygon class="cls-17" points="719.52 86.56 710.82 117.01 737.17 205.79 722.69 205.79 699.68 115.99 703.78 88.3 719.52 86.56"/><polygon class="cls-18" points="703.78 88.3 700.71 115.99 722.69 205.79 701.61 208.52 685.44 123.57 695.72 88.3 703.78 88.3"/><polygon class="cls-18" points="667.76 93.28 665.11 110.18 656.5 211.5 650.49 213.54 653.96 106.21 653.33 93.28 667.76 93.28"/><polygon class="cls-17" points="653.33 93.28 654.98 106.21 650.49 213.54 627.67 214.44 643.62 111.48 632.25 95.26 653.33 93.28"/><polygon class="cls-18" points="569.93 108.91 591.7 144.04 605.31 216.42 614.4 215.67 599.38 110.18 592.16 98.84 569.93 100.78 569.93 108.91"/></g><g id="monster"><polygon class="cls-19" points="681.89 184.98 697.6 188.68 681.89 191.03 697.6 193.94 681.89 196.58 696.75 200.85 681.89 202.9 680.54 193.94 681.89 184.98"/><polygon class="cls-19" points="666.26 186.32 673.03 179.18 683.27 178.33 675.93 182.69 674.44 186.98 666.26 186.32"/><polygon class="cls-20" points="659.9 155.61 633.03 164.87 626.38 155.46 630.73 145.04 638.92 135.17 660.86 137.6 652.48 150.73 659.9 155.61"/><polygon class="cls-20" points="655.29 113.33 633.8 104.63 602.98 126.18 617.68 135.17 655.29 113.33"/><polygon class="cls-21" points="696.75 138.24 692.01 145.85 691.5 138.35 687.28 145.85 686.13 138.46 683.44 145.85 681.51 138.55 678.96 145.85 676.91 138.65 674.23 145.85 671.54 138.76 683.57 137.6 696.75 138.24"/><polygon class="cls-21" points="684.72 160.3 684.72 152.06 680.81 158.48 680.81 150.78 676.92 156.68 676.92 148.86 673.23 154.96 672.69 146.97 668.93 152.96 668.47 145.85 664.26 150.79 673.97 156.54 684.72 160.3"/><polygon class="cls-15" points="696.75 138.24 689.58 127.42 670.9 127.42 643.27 151.29 684.21 175.68 684.72 160.3 657.6 147.69 671.54 138.76 696.75 138.24"/><polygon class="cls-14" points="699.65 131.74 674.49 133.01 669.97 141.95 660.47 145.85 630.73 145.04 628 135.17 671.54 121.5 688.05 122.32 699.65 131.74"/><polygon class="cls-21" points="670.9 127.42 693.93 120.5 651.98 102.11 617.68 135.17 630.73 145.04 668.09 135.17 670.9 127.42"/><polygon class="cls-19" points="643.62 181.48 626.38 155.46 579.73 150.02 587.59 188.69 591.03 214.54 636.62 211.27 643.62 181.48"/><polygon class="cls-19" points="629.99 178.17 666.26 186.32 668.74 191.03 668.74 197.4 632.25 191.03 629.99 178.17"/><polygon class="cls-20" points="666.26 186.32 681.89 184.98 681.89 202.9 668.74 197.4 666.26 186.32"/></g><g id="warrior"><polygon class="cls-22" points="833.08 195.48 826.45 152.88 808.01 129.6 788.52 179.18 787.33 187.22 788.13 195.6 833.08 195.48"/><polygon class="cls-23" points="736.53 129.6 738.43 140.66 744.15 145.04 752.4 143.7 762.08 136.65 760.71 125.45 745.87 123.92 736.53 129.6"/><polygon class="cls-24" points="751.01 124.45 752.4 143.7 760.71 145.85 766.34 151.55 773.34 131.93 760.71 125.45 751.01 124.45"/><polygon class="cls-25" points="752.4 143.7 760.77 137.6 760.77 134.15 744.68 131.25 737.08 132.78 743.4 127.42 768.6 127.42 771.97 131.23 762.87 138 766.34 151.55 752.4 143.7"/><polygon class="cls-10" points="738.43 140.66 740.59 151.5 752.4 143.7 738.43 140.66"/><polygon class="cls-22" points="737.08 132.78 732.91 115.11 749.63 104.63 760.71 104.63 771.97 118.07 765.15 131.25 751.46 130.74 743.4 129.16 737.08 132.78"/><polygon class="cls-26" points="734.99 123.92 743.44 118.07 744.85 120.99 735.81 127.42 734.99 123.92"/><polygon class="cls-27" points="745.41 107.7 759.35 114.58 760.71 104.63 755.94 101.23 747.75 103.45 745.41 107.7"/><polygon class="cls-28" points="737.08 95.26 749.63 95.26 755.94 101.23 754.09 108.91 737.08 95.26"/><polygon class="cls-26" points="771.97 118.07 751.46 130.74 766.34 133.68 771.97 118.07"/><polygon class="cls-22" points="771.97 131.23 762.93 156.23 788.52 176.11 813.19 172 808.01 129.6 779.99 124.79 771.97 131.23"/><polygon class="cls-26" points="762.93 156.23 789.2 141.99 806.94 145.04 809.32 170.98 788.52 179.18 762.93 156.23"/><polygon class="cls-26" points="787.33 187.22 833.08 195.48 785.55 199.22 787.33 187.22"/><polygon class="cls-26" points="829.42 172 809.32 170.98 826.45 152.88 829.42 172"/><polygon class="cls-28" points="808.01 129.6 806.18 141.4 803.12 149.84 786.98 147.71 798.44 136.81 808.01 129.6"/><polygon class="cls-23" points="808.01 129.6 823.98 135.87 826.45 152.88 814.48 152.34 803.12 149.84 805.16 141.4 808.01 129.6"/><polygon class="cls-24" points="826.45 152.88 816.37 163.53 805.84 160.88 803.12 149.84 826.45 152.88"/><polygon class="cls-27" points="803.12 149.84 816.37 163.53 809.32 170.98 799.86 159.37 803.12 149.84"/><polygon class="cls-28" points="785.45 123.57 787.41 110.18 790.14 122.38 785.45 123.57"/><polygon class="cls-28" points="801.14 123.92 807.96 114.02 805.32 126.22 801.14 123.92"/><polygon class="cls-29" points="771.97 131.23 786.98 147.71 783.4 130.74 779.99 122.74 771.97 131.23"/><polygon class="cls-27" points="779.99 122.74 786.98 147.71 793.29 131.85 796.28 119.65 779.99 122.74"/><polygon class="cls-29" points="786.98 147.71 796.28 119.65 812.74 125.87 786.98 147.71"/><polygon class="cls-28" points="809.32 170.98 810.66 179.18 805.84 186.32 799.86 181.52 799.86 176.68 801.14 172 809.32 170.98"/><polygon class="cls-30" points="805.84 186.32 809.32 170.98 812.91 179.18 805.84 186.32"/><polygon class="cls-30" points="799.86 181.52 781.72 179.44 780.67 173.38 784.25 167.93 801.14 172 799.86 181.52"/><polygon class="cls-28" points="768.89 189.84 771.6 178.65 775.72 173.03 774.5 166.61 777.86 152.72 792.44 155.61 784.25 167.93 781.72 179.44 782.39 191.7 768.89 189.84"/><polygon class="cls-27" points="784.25 167.93 774.5 166.61 771.6 173.03 771.6 178.65 781.72 179.44 784.25 167.93"/><polygon class="cls-5" points="774.5 166.61 710.9 156.23 697.6 160.76 706.12 172.21 771.6 178.65 774.5 166.61"/><polygon class="cls-8" points="773.15 172.21 697.6 160.76 710.22 153.08 774.5 166.61 773.15 172.21"/><polygon class="cls-31" points="774.5 166.61 764.98 170.98 771.6 178.65 774.5 166.61"/><polygon class="cls-23" points="799.86 159.37 790.14 159.07 784.25 167.93 803.12 176.68 809.32 170.98 799.86 159.37"/><polygon class="cls-24" points="784.25 167.93 781.72 179.44 801.27 182.65 803.12 176.68 784.25 167.93"/><polygon class="cls-25" points="737.31 134.11 744.42 134.48 746.04 138 737.87 137.41 737.72 136.54 737.91 135.87 737.45 134.94 737.31 134.11"/><polygon class="cls-16" points="737.45 134.94 743.23 135.23 744.25 136.79 737.72 136.54 737.45 134.94"/><polygon class="cls-19" points="770.16 88.25 764.96 94.89 771.56 101.29 776.66 93.66 770.16 88.25"/><polygon class="cls-32" points="779.9 88.61 807.28 85.92 807.54 88.09 780.16 90.91 779.9 88.61"/><polygon class="cls-33" points="780.67 93.47 794.1 92.31 794.36 94.62 780.8 95.77 780.67 93.47"/></g><path class="cls-21" d="M830.42,62.5,561.12,87.83l15.74,139.32,273.23-20.93ZM579.78,104.63,815,79.39,829.8,194.54l-237.75,20Z" transform="translate(0)"/></g><g id="man"><polygon class="cls-34" points="717.22 261.7 717.22 266.18 729.63 266.18 723.1 260.68 719.94 260.2 717.22 261.7"/><polygon class="cls-34" points="730.41 262.94 731.1 267.22 743.96 267.22 737.56 261.19 733.77 261.1 730.41 262.94"/><polygon class="cls-32" points="744.15 214.37 743.4 209.46 750.82 209.46 750.4 212.95 747.2 215.09 744.15 214.37"/><polygon class="cls-35" points="736.53 214.54 744.15 214.37 744.68 216.88 744.68 219.47 732.18 224.9 734.15 219.18 736.53 214.54"/><polygon class="cls-36" points="744.15 214.37 750.4 212.95 750.4 216.21 749.63 219.47 744.68 219.47 744.15 214.37"/><polygon class="cls-35" points="750.4 212.95 752.4 213.71 749.63 219.47 750.4 212.95"/><polygon class="cls-35" points="709.03 222.68 716.58 230.31 718.24 220.63 709.03 222.68"/><polygon class="cls-32" points="713.8 208.52 709.03 222.68 718.24 221.66 713.8 208.52"/><polygon class="cls-33" points="726.09 172.15 729.69 169.87 736.53 170.98 728.99 179.18 725.66 175.68 726.09 172.15"/><polygon class="cls-36" points="728.99 179.18 734.74 193.9 732.18 195.21 727.96 195.81 726.04 203.62 720.54 203.62 716.58 197.61 721.18 182.13 723.97 180.27 728.99 179.18"/><polygon class="cls-35" points="723.97 180.27 732.18 195.21 728.99 196.84 726.87 203.19 723.1 205.96 719.43 204.43 715.55 197.61 720.16 181.1 723.97 180.27"/><polygon class="cls-37" points="734.74 193.9 726.09 197.35 726.87 203.19 729.24 197.52 734.74 193.9"/><polygon class="cls-37" points="726.09 191.04 724.72 194.45 723.1 194.96 723.44 192.06 726.09 191.04"/><polygon class="cls-37" points="723.1 188.65 724.59 188.22 724.98 189.84 723.1 188.65"/><polygon class="cls-38" points="723.1 180.46 724.59 186.47 721.44 188.22 723.44 192.06 723.29 194.97 718.29 202.46 709.41 199.37 705.39 191.04 723.1 180.46"/><polygon class="cls-39" points="705.39 191.04 701.61 182.38 717.22 172 725.06 173.17 728.99 179.18 705.39 191.04"/><polygon class="cls-34" points="701.61 182.38 728.99 179.18 726.09 172.15 717.22 170.98 701.61 182.38"/><polygon class="cls-39" points="719.1 203.85 713.8 208.52 715.3 235.48 723.87 236.5 732.91 234.79 732.18 224.9 726.87 203.19 719.1 203.85"/><polygon class="cls-32" points="726.87 203.19 736.53 214.54 732.18 224.9 724.04 210.23 726.87 203.19"/><polygon class="cls-38" points="715.3 235.48 717.22 261.7 723.1 260.68 732.91 234.79 715.3 235.48"/><polygon class="cls-32" points="715.3 235.48 730.41 262.94 737.56 261.19 732.91 234.79 715.3 235.48"/></g><g id="screenstand-2" data-name="screenstand"><g id="stand-2" data-name="stand"><polygon class="cls-3" points="168.78 292.85 341.47 283.35 498.07 288.99 343.99 308.1 168.78 292.85"/><polygon class="cls-5" points="385 228.64 395.38 294.03 315.06 298.86 310.73 272.55 310.24 226.45 385 228.64"/><polygon class="cls-10" points="315.06 298.86 282.54 294.88 283.28 226.88 310.24 226.45 315.06 298.86"/></g><g id="space"><polygon class="cls-16" points="198.36 17.33 493.33 41 488.38 223.15 182.82 216.28 198.36 17.33"/><path class="cls-5" d="M495.82,228.64l2.25-104.72a70.57,70.57,0,0,0-7.74-.44,69.57,69.57,0,0,0-60.42,104.06Z" transform="translate(0)"/><polygon class="cls-8" points="473.99 150.97 462.75 148.97 461.75 154.62 466.03 157.85 465.59 162 446.68 157.58 442.96 162.5 436.24 165.53 450 189.03 461.75 200.83 480.45 188.01 490 163.5 488.49 142.88 473.99 150.97"/><polygon class="cls-8" points="306.5 76.5 307 71.25 308.5 75.75 312.75 76 309 78 313.5 82 307.5 79.75 303.75 82.25 305.5 78.5 301 75.75 306.5 76.5"/><polygon class="cls-8" points="205.72 156.25 207.97 149.75 208.47 155.75 213.22 156.5 208.72 158.25 210.97 163 206.97 159.75 202.72 161.75 204.47 158.25 201.22 155.75 205.72 156.25"/><polygon class="cls-8" points="327.54 86.34 329.06 81.95 329.4 86 332.61 86.51 329.57 87.69 331.09 90.9 328.39 88.7 325.52 90.06 326.7 87.69 324.5 86 327.54 86.34"/><polygon class="cls-8" points="428 126.5 428.25 120 430.75 125 436 124.25 432.25 127.5 437.75 130.25 431.5 129.75 429.5 135.5 428.75 129.25 423 129.25 428 126.5"/><polygon class="cls-8" points="212.25 48.3 212.42 43.91 214.1 47.28 217.65 46.78 215.12 48.97 218.83 50.83 214.61 50.49 213.26 54.37 212.75 50.15 208.87 50.15 212.25 48.3"/><polygon class="cls-8" points="428.75 48 432.25 44 431.5 48.25 436.5 50.5 431.5 50.5 431.5 55.25 429.25 51.5 425 52.5 427.75 49.75 424.5 46.75 428.75 48"/><polygon class="cls-8" points="210.24 179.59 209.54 175.28 211.84 177.98 215.88 175.99 213.26 179.16 216.28 181.64 212.72 181.1 211.13 184.32 210.82 181.14 207.22 181.63 210.24 179.59"/><polygon class="cls-8" points="320.25 42.25 321.75 37.75 322.75 42.5 326.5 42.5 323.25 44.5 325 47.25 321 45.5 316.5 47.25 318.5 44.5 317 41.25 320.25 42.25"/><polygon class="cls-8" points="442.37 106.76 445.33 105.35 443.45 108.13 445.25 110 442.69 109.34 442.16 111.53 441.11 108.7 438.08 107.3 440.41 106.97 441.31 104.66 442.37 106.76"/></g><g id="ship"><polygon class="cls-12" points="293.26 53.84 285.33 55.55 274.61 51.97 280.72 49.81 293.26 53.84"/><polygon class="cls-12" points="293.26 46.88 291.15 42.48 284.95 40.98 286.36 44.17 293.26 46.88"/><polygon class="cls-27" points="285.23 46.15 281 41.36 265.5 42.77 277.34 47.28 284.39 48.12 285.23 46.15"/><polygon class="cls-8" points="286.36 44.17 301.86 48.4 303.51 50.38 306.62 51.86 311.17 55.17 304.68 58.27 280.72 49.81 286.36 44.17"/><polygon class="cls-12" points="300.64 53.66 306.62 51.86 301.86 48.4 295.29 50.56 300.64 53.66"/></g><g id="explosion"><polygon class="cls-31" points="322.44 27.29 349.83 49.33 321.01 63.02 345.42 62.51 339.1 77.46 368.78 71.33 385 91.89 389.33 75.46 407.33 81.58 405.33 68 419.13 71.33 405.67 53.66 425.68 35.57 322.44 27.29"/><polygon class="cls-27" points="379.79 120 390.33 106.8 375.88 110.51 377.88 98.61 367.49 105.38 370.5 61.5 379.13 65.83 377 57.67 391.78 53.66 379.13 52.25 386.13 42.71 374.75 47.75 371.82 34.64 369.71 47.75 355.13 42.75 363.39 51.75 355.13 60.94 367.5 59.5 358.85 104.45 352.51 93.05 352.35 103.14 339.5 95.55 344.42 107.66 333 105.38 339 118.64 379.79 120"/></g><g id="cocpit"><polygon class="cls-17" points="463.12 36 391 116.16 309 111.33 232.42 19.18 203.36 21.33 296.66 125.3 189.82 212.28 363.5 223.15 482.37 218.15 405.33 125.7 490.33 44 463.12 36"/><polygon class="cls-17" points="240.63 53.66 189.82 72.67 189.82 97.26 250.14 66.12 240.63 53.66"/><polygon class="cls-17" points="440.08 86.92 488.33 127.23 491.99 102.53 451.84 77.41 440.08 86.92"/><polygon class="cls-14" points="325.06 132.99 378 135.66 393.38 156.38 306.04 152.21 325.06 132.99"/><polygon class="cls-14" points="360.5 163.5 398 165.25 428.25 209.67 380.5 208.25 360.5 163.5"/><polygon class="cls-39" points="381 174 392.67 174.33 398.67 184.33 384 184.67 381 174"/><polygon class="cls-32" points="370.25 185.5 383.67 185.67 389.33 196.67 375 196.13 370.25 185.5"/><polygon class="cls-32" points="410 200.5 422.38 201.13 428.25 209.67 415.5 209.25 410 200.5"/><polygon class="cls-17" points="394.75 210 370.5 162 374.25 162 399.5 210.5 394.75 210"/><polygon class="cls-17" points="387.5 162.75 416.25 210.25 411.5 210.25 383.25 162 387.5 162.75"/><polygon class="cls-17" points="357.75 171 411 173 414.5 176.75 360 174.5 357.75 171"/><polygon class="cls-17" points="365.25 182.75 418.5 184.75 422 188.5 367.5 186.25 365.25 182.75"/><polygon class="cls-17" points="370.25 195.75 423.5 197.75 427 201.5 372.5 199.25 370.25 195.75"/><polygon class="cls-14" points="341.63 162.88 355 163.25 356.67 167.17 340.13 166.63 341.63 162.88"/><polygon class="cls-14" points="357.3 170.76 339.38 170.25 338.38 173.5 358.9 174.55 357.3 170.76"/><ellipse class="cls-14" cx="357" cy="182.25" rx="2.8" ry="4.51" transform="matrix(0.11, -0.99, 0.99, 0.11, 134.98, 515.97)"/><ellipse class="cls-34" cx="360.17" cy="192.25" rx="3.13" ry="5.05" transform="translate(129.9 529.38) rotate(-83.76)"/><ellipse class="cls-34" cx="364.17" cy="203.42" rx="3.47" ry="5.59" transform="translate(101.1 527.14) rotate(-80.09)"/><polygon class="cls-14" points="349.67 202.17 349.83 205.33 315.33 204.17 316 200.83 349.67 202.17"/><polygon class="cls-14" points="334.88 166.25 336.38 163 317.63 162.5 316 165.63 334.88 166.25"/><polygon class="cls-14" points="333.75 170 332.25 173.5 311.13 172.5 313.63 169.25 333.75 170"/><polygon class="cls-16" points="379.13 151.13 385.13 151.38 387 153.38 380.13 152.88 379.13 151.13"/><polygon class="cls-16" points="378 149.13 383.25 149.5 381.88 147.75 375.88 147.13 378 149.13"/><ellipse class="cls-40" cx="352.35" cy="144.59" rx="6.29" ry="12.19" transform="translate(171.91 480) rotate(-84.03)"/><ellipse class="cls-40" cx="352.42" cy="144.21" rx="3.41" ry="6.46" transform="translate(172.35 479.73) rotate(-84.03)"/><polyline class="cls-41" points="461 221.67 387.67 125.33 308.66 121 235 184"/><line class="cls-41" x1="478.67" y1="38.33" x2="398.33" y2="120"/><line class="cls-41" x1="216.33" y1="18" x2="297.33" y2="113.67"/><line class="cls-41" x1="441.67" y1="76.67" x2="492" y2="116.67"/><line class="cls-41" x1="248.67" y1="57.67" x2="188.67" y2="85"/></g><path id="frame" class="cls-21" d="M181.57,0,164.38,228l340,12,8.33-211.35Zm300.8,218.15-292.55-5.87L203.36,21.33,490.33,44Z" transform="translate(0)"/></g><g id="info_stand" data-name="info stand"><polygon class="cls-13" points="735.91 330.01 807.32 314.71 900 327.62 805.17 349.46 735.91 330.01"/><polygon class="cls-42" points="865.58 230.32 874.35 326.66 800.38 322.25 865.58 230.32"/><polygon class="cls-32" points="784.59 225.64 865.58 230.32 842.62 341.06 822.43 339.36 824.55 327.25 777.78 323.99 773.75 334.26 753.13 332.89 784.59 225.64"/><polygon class="cls-33" points="783.95 287.08 796.66 277.64 808.84 286.38 825.25 280.2 835.48 291.85 820.66 300.32 817.66 313.73 790.66 311.61 794.54 297.32 783.95 287.08"/><polygon class="cls-32" points="811.57 313.91 813.16 300.32 809.81 314.17 811.57 313.91"/><polygon class="cls-32" points="804.95 313.29 806.98 299.88 803.37 312.94 804.95 313.29"/><polygon class="cls-32" points="798.34 312.76 800.45 299.17 796.84 312.94 798.34 312.76"/><polygon class="cls-32" points="794.37 283.2 793.39 289.2 804.87 290.7 794.37 283.2"/><polygon class="cls-32" points="811.92 291.58 824.36 292.73 825.51 286.64 811.92 291.58"/><path class="cls-16" d="M805.16,249.55l2,1.29,1.64-3.6,5.31.6-.33,3.69,3.09,1.34-3.53-17.22Zm4-3.44,3.24-6.68,1.49,6.74Z" transform="translate(0)"/><polygon class="cls-16" points="812.01 256.85 811.39 262.82 804.26 262.28 804.67 256.2 803.85 255.22 801.4 269.65 803.69 270.78 804.09 264.9 811.22 264.46 810.6 270.34 811.51 271.46 814.69 258.66 812.01 256.85"/><polygon class="cls-16" points="835.64 240.69 833.48 253.96 843.6 254.86 843.79 252.07 836.12 252.8 835.49 248.32 841.92 248.62 843.62 246.84 836.6 246.13 836.9 241.94 844.43 242.59 843.9 240.08 835.64 240.69"/><polygon class="cls-16" points="818.07 251.78 823.08 238.73 826.09 244.71 831.1 238.61 831.56 253.34 828.85 253.59 829.88 243.07 825.17 248.33 822.88 242.05 820.2 252.63 818.07 251.78"/><polygon class="cls-16" points="844.22 261.07 838.48 273.56 835.84 267.44 830.51 273.08 830.92 258.53 833.63 258.48 831.98 268.77 836.97 263.95 838.87 270.3 842.15 260.08 844.22 261.07"/><path class="cls-16" d="M824.06,257.64l-8.9,4,1.91,9.68,8.21,1.25,3.48-8.49Zm-.63,13.47-5.11-2.1-1.7-6.73,7.45-2,3,4.91Z" transform="translate(0)"/><polygon class="cls-16" points="792.76 259.44 795.26 256.52 800.17 259.52 800.95 256.64 793.75 254.3 790.64 260.83 798.76 265.1 796.12 267.55 791.03 264.69 790.42 267.64 796.77 269.81 801.09 264.92 792.76 259.44"/><polygon class="cls-16" points="804.98 238.75 798.76 235.49 791.77 242.85 796.63 250.23 804.32 248.58 804.68 244.43 799.07 243.6 802.15 246.28 798 248.39 794.79 243.02 798.39 237.9 804.12 241.57 804.98 238.75"/></g><g id="intp"><polygon class="cls-3" points="424.77 333.31 519.41 320.25 584.07 327.86 640.85 320.98 699.79 335.76 632.52 350 538.56 339.91 485.37 350 424.77 333.31"/><polygon class="cls-28" points="449.98 192.02 442.56 229.66 469.12 239.5 464.28 195.6 456.19 188.41 449.98 192.02"/><polygon class="cls-43" points="469.91 173.17 471.32 183.27 462.71 188.41 462.71 175.28 469.91 173.17"/><polygon class="cls-43" points="445.68 170.8 436.24 170.82 436.24 175.53 449.69 182.99 445.68 170.8"/><polygon class="cls-44" points="464.28 195.6 466.07 176.54 458.37 172.57 445.68 170.8 449.98 192.02 464.28 195.6"/><polygon class="cls-45" points="445.68 170.8 453.43 165.31 469.91 173.17 466.07 176.54 445.68 170.8"/><polygon class="cls-26" points="528.76 275.98 519.41 320.25 499.85 334.21 493.58 309.88 493.58 298.34 487.39 285.8 500.97 277.17 528.76 275.98"/><polygon class="cls-30" points="561.51 200.2 556.32 210.73 542.15 218.98 532.16 212.38 530.38 199.44 531.17 181.22 561.51 200.2"/><polygon class="cls-28" points="542.15 218.98 571.85 183 580.39 182.99 587.79 188.41 566.1 220.43 542.15 218.98"/><polygon class="cls-46" points="519.41 320.25 531.81 334.78 499.85 334.21 519.41 320.25"/><polygon class="cls-46" points="498.7 297.4 528.06 279.8 516.01 273.74 500.66 275.43 498.7 297.4"/><polygon class="cls-22" points="498.7 282.61 498.7 297.4 487.39 332.05 466.04 319.85 468.26 284.82 488.79 278.86 498.7 282.61"/><polygon class="cls-46" points="466.04 319.85 457.01 337.1 487.2 337.23 487.39 332.05 466.04 319.85"/><polygon class="cls-26" points="468.26 284.82 498.7 297.4 504.15 280.7 482.88 280.58 468.26 284.82"/><polygon class="cls-31" points="515.02 188.32 489.35 168.87 473.38 188.47 464.28 195.6 468.26 284.82 513.99 281.5 537.65 273.23 518.17 190.55 515.02 188.32"/><polygon class="cls-46" points="485.37 176.54 487.46 194.16 508.38 208.75 515.87 187.9 503.45 181.48 485.37 176.54"/><polygon class="cls-22" points="481.91 173.54 477.22 180.54 495.82 198.4 503.45 181.48 514 192.77 515.61 175.28 511.27 168.15 481.91 173.54"/><polygon class="cls-44" points="544.51 155.38 512.49 165 503.45 181.48 492.42 173.53 487.2 168.87 483.35 163.3 479.86 158.31 478.19 149.49 473.57 150.17 465.59 138.08 472.44 132.47 483.55 140.87 488.64 136.65 469.51 104.79 479.44 94.05 514.76 90.56 524.8 83.5 538.45 125.27 544.51 155.38"/><polygon class="cls-43" points="528.81 105.16 518.11 116.62 516.81 135.86 505.23 117.81 492.79 112.33 506.41 108.88 510.98 109.84 515.45 106.74 519.77 103.14 528.81 105.16"/><polygon class="cls-30" points="514.43 100.69 528.81 105.16 515.45 106.74 514.43 100.69"/><polygon class="cls-30" points="506.41 108.88 492.79 112.33 504.3 102.99 506.41 108.88"/><polygon class="cls-45" points="515.45 106.74 522.87 134.31 516.81 135.86 506.41 108.88 515.45 106.74"/><polygon class="cls-47" points="522.87 134.31 521.07 139.13 516.81 135.86 522.87 134.31"/><polygon class="cls-47" points="531.17 141.19 508.68 144.71 514.43 153.57 528.31 149.2 531.17 141.19"/><polygon class="cls-47" points="471.32 137.87 479.5 142.51 473.06 143.16 471.32 137.87"/><polygon class="cls-47" points="477.22 149.63 483.49 148.56 479.86 158.31 477.22 149.63"/><polygon class="cls-47" points="544.51 155.38 504.89 163.48 495.82 163.88 503.45 181.48 513.22 166.19 544.51 155.38"/><polygon class="cls-43" points="479.44 94.05 492.79 112.33 504.89 163.48 498.17 164.73 503.45 181.48 481.91 173.54 479.86 158.31 477.22 149.63 483.49 148.56 483.55 140.87 488.64 136.65 469.51 104.79 479.44 94.05"/><polygon class="cls-48" points="532.32 77.64 524.8 83.5 515.24 91.89 510.65 77.47 511.58 63.02 532.32 77.64"/><polygon class="cls-5" points="511.58 63.02 461.75 83.86 470.84 92.92 480.45 94.91 515.24 91.89 511.58 63.02"/><polygon class="cls-49" points="480.45 94.91 470.94 104.73 463.8 104.91 457.8 102.11 461.75 83.87 480.45 94.91"/><polygon class="cls-48" points="470.94 104.73 490.13 137.21 483.7 141.92 472.64 133.32 466.36 138.27 470.71 145.85 449.69 136.81 457.8 102.11 470.94 104.73"/><polygon class="cls-47" points="483.49 148.56 479.85 158.31 477.22 149.63 483.49 148.56"/><polygon class="cls-27" points="508.38 208.75 464.28 195.6 477.22 180.54 508.38 208.75"/><polygon class="cls-28" points="508.38 208.75 513.99 281.5 544.4 278.09 531.17 181.22 523.97 183.81 508.38 208.75"/><polygon class="cls-31" points="515.61 175.28 531.17 181.22 508.38 208.75 515.61 175.28"/><rect class="cls-50" x="516.15" y="240.9" width="6.45" height="5.98" transform="translate(3.28 494.64) rotate(-51.07)"/><rect class="cls-50" x="517.64" y="262.7" width="6.45" height="5.98" transform="translate(-13.09 503.99) rotate(-51.08)"/><polygon class="cls-26" points="485.99 223.56 481.69 225.72 474.32 208.55 478.63 206.39 485.99 223.56"/><polygon class="cls-28" points="498.9 224.44 474.26 228 473.99 224 498.63 220.43 498.9 224.44"/><polygon class="cls-2" points="513.38 145.97 526.94 143.66 526.94 145.3 514.43 148.72 513.38 145.97"/><polygon class="cls-51" points="526.94 145.3 526.78 147.66 515.24 150.69 514.43 148.72 526.94 145.3"/><polygon class="cls-26" points="511.66 213.75 531.88 211.66 534.07 225.89 512.23 228.17 511.66 213.75"/><polygon class="cls-2" points="514.5 216.61 529.09 214.97 531.24 223.59 514.98 224.61 514.5 216.61"/><line class="cls-52" x1="517.74" y1="219.11" x2="526.92" y2="218.15"/><line class="cls-52" x1="519.9" y1="221.48" x2="524.92" y2="221"/><polygon class="cls-29" points="520.06 215.98 519.24 210.68 524.7 210.34 524.08 215.53 520.06 215.98"/><circle class="cls-53" cx="506.79" cy="122.39" r="2.89"/><circle class="cls-53" cx="524.7" cy="118.22" r="2.89"/></g><g id="friend"><polygon class="cls-28" points="584.07 250.21 585.4 321.33 595.63 324.98 607.82 324.98 616.72 278.86 631.24 324.98 643.34 322.12 652.18 315.8 649.41 250.41 584.07 250.21"/><polygon class="cls-30" points="616.72 278.86 596.28 255.72 634.99 253.18 616.72 278.86"/><polygon class="cls-27" points="607.63 179.15 594.92 185.94 578.49 188.97 553.55 228 559.5 228.64 570.73 231.36 582.49 230.76 583.33 239.5 584.07 250.21 597.65 256.34 615.43 262.86 634.99 253.18 649.41 250.41 649.37 228 664.25 224.58 671.1 221.31 677.03 219.48 655.93 192.02 642.6 188.41 629.99 178.17 607.63 179.15"/><polygon class="cls-54" points="579.08 102.53 569.4 163.09 593.11 168.15 622.15 188.97 650.99 142.38 636.18 132.46 631.24 103.72 579.08 102.53"/><polygon class="cls-55" points="631.24 103.72 616.82 174.36 593.11 168.15 610.2 178.17 622.15 190.15 653.37 141.19 637.36 131.28 631.24 103.72"/><polygon class="cls-55" points="612.67 126.93 582.64 122.78 595.68 143.66 612.67 126.93"/><polygon class="cls-56" points="599.63 125.3 595.68 143.66 590.21 142.73 593.11 124.23 599.63 125.3"/><polygon class="cls-57" points="595.68 143.66 592.07 146.19 590.21 142.73 595.68 143.66"/><polygon class="cls-57" points="593.11 168.15 623.93 174.1 622.15 190.15 593.11 168.15"/><polygon class="cls-57" points="643.41 156.81 636.52 153.57 638.42 164.64 643.41 156.81"/><polygon class="cls-57" points="641.12 149.35 644.08 142.09 648.52 144.46 641.12 149.35"/><polygon class="cls-57" points="605.26 152.91 591.82 153.57 582.64 149.35 582.14 152.22 591.53 155.87 605.26 155.87 605.26 152.91"/><ellipse class="cls-53" cx="606.52" cy="133.32" rx="2.44" ry="2.54"/><ellipse class="cls-53" cx="586.51" cy="130.79" rx="2.44" ry="2.54"/><polygon class="cls-31" points="572.96 100.69 588.96 113.3 608.52 106.74 606.52 95.89 602.72 83.92 584.75 85.61 572.96 100.69"/><polygon class="cls-28" points="605.26 99.1 616.22 106.74 629.99 109.81 639.97 109.81 651.98 102.11 617.68 82.51 602.72 83.92 605.26 99.1"/><polygon class="cls-30" points="629.99 109.81 636.18 132.46 632.03 145.72 637.96 148 643.41 135.86 653.37 141.19 651.98 102.11 629.99 109.81"/><polygon class="cls-28" points="572.96 100.69 605.26 99.1 608.52 106.74 588.96 113.3 572.96 100.69"/><polygon class="cls-30" points="605.26 99.1 629.99 109.81 608.52 106.74 605.26 99.1"/><polygon class="cls-30" points="622.76 184.62 607.63 179.15 602.72 188.41 618.89 194.06 634.53 188.97 629.99 178.17 622.76 184.62"/><polygon class="cls-26" points="607.63 179.15 604.07 240.73 583.33 239.5 578.49 188.97 607.63 179.15"/><polygon class="cls-26" points="629.99 178.17 629.26 240.73 648.94 242.1 649.37 228 655.93 192.02 629.99 178.17"/><polygon class="cls-26" points="585.4 321.33 575.92 332.4 592.66 333.31 607.63 332.4 607.82 324.98 585.4 321.33"/><polygon class="cls-26" points="631.24 324.98 652.18 315.8 665.42 330.86 648.33 332.4 631.24 330.86 631.24 324.98"/><rect class="cls-50" x="575.92" y="332.41" width="31.71" height="4.98"/><rect class="cls-50" x="631.24" y="330.86" width="34.18" height="4.89"/><polygon class="cls-30" points="612.67 126.93 602.15 121.76 599.63 125.3 612.67 126.93"/><polygon class="cls-30" points="582.64 122.78 591.33 120.46 593.11 124.23 582.64 122.78"/><polygon class="cls-54" points="667.76 223.92 662.73 233.35 655.5 243.75 652.18 248.25 650.99 252.48 649.78 259.14 634.99 253.18 638.25 247.47 641.33 243.92 643.41 238.43 649.37 228 667.76 223.92"/><polygon class="cls-54" points="563.18 230.76 569.4 240.35 576.11 248.28 580.32 252.09 582.49 255.84 584.07 262.86 596.28 255.72 594.26 252.06 591.23 248.38 589.07 242.67 582.49 230.76 563.18 230.76"/><polygon class="cls-57" points="649.37 228 662.68 233.31 671.1 221.31 649.37 228"/><polygon class="cls-57" points="582.49 230.76 569.4 240.35 558.59 228.64 582.49 230.76"/><polygon class="cls-29" points="589.08 242.68 576.1 248.28 582.49 255.84 594.26 252.06 589.08 242.68"/><polygon class="cls-29" points="643.41 238.43 638.25 247.47 650.99 252.48 655.5 243.75 643.41 238.43"/><polygon class="cls-31" points="625.56 207.19 645.86 208.2 645.86 222.6 623.93 221.53 625.56 207.19"/><polygon class="cls-2" points="627.93 210.45 642.6 211.04 643.41 219.89 627.19 218.44 627.93 210.45"/><line class="cls-52" x1="630.74" y1="213.41" x2="639.97" y2="213.86"/><line class="cls-52" x1="632.52" y1="216.08" x2="637.56" y2="216.38"/><polygon class="cls-27" points="633.51 210.67 633.51 205.31 638.96 205.81 637.56 210.84 633.51 210.67"/><polygon class="cls-55" points="571.85 183 574.25 195.6 578.98 194.06 578.49 187.9 571.85 183"/><polygon class="cls-54" points="571.85 183 587.77 176.78 597.65 182.51 585.18 194.06 571.85 183"/></g><g id="lara"><polygon class="cls-58" points="134.02 205.57 155.17 207.24 160.09 178.42 150.58 176.97 134.02 205.57"/><polygon class="cls-26" points="162.7 168.26 169.17 164.51 173.4 173.78 160.09 178.42 158.93 174.43 162.7 168.26"/><polygon class="cls-27" points="138.08 127.15 146.57 119.51 159.09 123.94 147.87 130.51 138.08 127.15"/><polygon class="cls-26" points="146.37 129.01 159.09 123.94 156.04 161.81 149.37 166.44 147.06 147.43 146.37 129.01"/><polygon class="cls-22" points="146.37 129.01 148.79 152.16 149.37 166.44 162.7 168.26 160.09 178.42 140.48 175.78 138.08 127.15 146.37 129.01"/><polygon class="cls-59" points="162.7 168.26 169.17 164.51 156.55 157.28 149.37 166.44 162.7 168.26"/><polygon class="cls-59" points="153.57 177.43 148.89 179.89 145.61 170.61 150.58 171.47 153.57 177.43"/><polygon class="cls-59" points="84.39 174.08 77.45 182 73.42 207.11 88.98 218.25 93.76 191.16 84.39 174.08"/><polygon class="cls-59" points="97.81 167.7 84.39 174.08 98.97 195.9 134.02 188.01 119.86 166.44 97.81 167.7"/><polygon class="cls-48" points="70.87 131.78 62.18 134.68 64.79 142.92 72.67 150.28 79.41 143.17 76.67 137 70.87 131.78"/><polygon class="cls-49" points="63.63 144.08 48.57 145.11 50.89 155.1 61.6 159.22 63.63 144.08"/><polygon class="cls-49" points="49.73 156.26 38.29 160.17 43.5 170.61 56.1 166.98 49.73 156.26"/><polygon class="cls-49" points="42.34 171.77 32.78 179 42.34 188.01 52.63 178.42 42.34 171.77"/><polygon class="cls-49" points="42.34 189.17 35.68 205.79 49.58 215.93 52.63 197.97 42.34 189.17"/><polygon class="cls-48" points="72.67 150.28 62.18 134.68 63.63 144.08 72.67 150.28"/><polygon class="cls-48" points="61.6 159.22 48.57 145.11 49.73 156.26 61.6 159.22"/><polygon class="cls-48" points="38.29 160.17 56.1 166.98 42.34 171.77 38.29 160.17"/><polygon class="cls-48" points="32.78 179 52.63 178.42 42.34 189.17 32.78 179"/><polygon class="cls-48" points="35.68 205.79 52.63 197.97 50.74 218.25 35.68 205.79"/><polygon class="cls-60" points="157.58 106.81 143.58 122.95 143.87 99.05 157.58 106.81"/><polygon class="cls-59" points="143.03 99.34 145.05 108.03 146.57 119.51 148.79 152.16 127.07 156.99 112.88 171.77 100.71 166.44 76.67 130.01 89.7 106.81 104.19 88.05 143.03 99.34"/><polygon class="cls-58" points="89.7 106.81 107.08 162.31 127.07 156.99 114.03 174.08 97.81 167.7 70.87 131.78 89.7 106.81"/><polygon class="cls-58" points="109.69 114.37 114.76 112.09 125.33 113.92 131.99 113.11 136.99 107.6 142.79 108.43 129.39 130.28 109.69 114.37"/><polygon class="cls-61" points="125.33 113.92 129.39 130.28 134.89 129.35 131.99 113.11 125.33 113.92"/><polygon class="cls-62" points="129.39 130.28 132.86 132.73 134.89 129.35 129.39 130.28"/><polygon class="cls-62" points="127.07 156.99 100.42 162.39 114.03 174.08 127.07 156.99"/><polygon class="cls-62" points="79.41 143.17 86.13 137.88 84.74 150.28 79.41 143.17"/><polygon class="cls-62" points="82.27 136.03 77.73 130.28 74.64 133.16 82.27 136.03"/><polygon class="cls-48" points="95.01 81.58 59.87 105.15 75.8 114.58 86.13 117.83 106.21 93.78 102.74 88.05 95.01 81.58"/><polygon class="cls-60" points="86.13 117.83 88.98 129.91 84.63 133.29 77.68 125.3 70.87 131.78 59.87 105.15 86.13 117.83"/><polygon class="cls-60" points="109.69 114.37 107.95 113.11 115.87 109.81 126.3 110.93 125.33 113.92 114.61 112.57 109.69 114.37"/><polygon class="cls-60" points="131.99 113.11 130.11 111 136.27 104.81 143.03 107.29 142.79 108.43 137.21 108.03 131.99 113.11"/><polygon class="cls-26" points="117.8 138.63 127.07 137.63 129.39 139.43 132.72 138.53 136.27 141.57 128.08 142.65 117.8 138.63"/><polygon class="cls-29" points="136.27 141.57 127.79 146.27 117.8 138.63 128.08 142.05 136.27 141.57"/><ellipse class="cls-37" cx="120.26" cy="121.04" rx="2.46" ry="2.53"/><ellipse class="cls-37" cx="138.08" cy="119.02" rx="2.46" ry="2.53"/><polygon class="cls-62" points="106.21 93.78 145.05 108.03 143.87 99.05 106.21 93.78"/><polygon class="cls-49" points="95.01 81.58 106.21 93.78 157.58 106.81 147.54 85.18 95.01 81.58"/><polygon class="cls-29" points="90.47 171.19 101.97 188.01 129.39 184.65 119.86 166.44 125.33 167.7 143.13 189.83 129.39 207.24 102.35 210.96 93.83 197.72 84.39 174.08 90.47 171.19"/><polygon class="cls-26" points="143.13 189.83 93.83 197.72 100.42 214.24 116.28 214.24 132.14 209.67 143.13 189.83"/><polygon class="cls-27" points="100.42 214.24 100.42 221.87 116.28 221.87 132.14 218.25 132.14 209.67 100.42 214.24"/><polygon class="cls-28" points="100.42 221.87 92.6 238.18 103.32 246.84 120.41 247.65 135.62 245.04 143.03 231.72 132.14 218.25 100.42 221.87"/><polygon class="cls-59" points="125.33 257.5 125.26 257.48 125.31 257.58 125.33 257.5"/><polygon class="cls-58" points="94.02 248.85 97.67 276.33 111.64 277.83 118.12 255.51 106.5 249.97 94.02 248.85"/><polygon class="cls-58" points="124.15 255.24 133.3 273.75 151.69 264.21 146.18 243.54 134.89 246.84 124.15 255.24"/><polygon class="cls-27" points="92.6 238.18 120.41 247.65 118.12 255.51 94.02 248.85 92.6 238.18"/><polygon class="cls-27" points="143.03 231.72 120.41 247.65 124.15 255.24 146.18 243.54 143.03 231.72"/><polygon class="cls-30" points="132.14 218.25 120.41 247.65 100.42 221.87 132.14 218.25"/><polygon class="cls-58" points="88.98 218.25 72.64 180.29 59.87 178.42 71.47 214.71 88.98 218.25"/><polygon class="cls-27" points="50.02 131.78 61.6 125.94 70.87 131.78 58.71 137.19 50.02 131.78"/><polygon class="cls-62" points="84.39 174.08 81.69 183.79 75.67 175.88 84.39 174.08"/><polygon class="cls-26" points="68.3 181.45 70.31 193.39 83.04 187.12 78.45 175.88 68.3 181.45"/><polygon class="cls-63" points="56.1 131.78 61.6 128.83 65.47 131.04 59.16 133.29 56.1 131.78"/><polygon class="cls-26" points="74.64 170.61 70.87 131.78 58.71 136.03 60.78 157.28 68.3 181.45 74.64 170.61"/><polygon class="cls-22" points="68.3 181.45 59.87 170.34 50.02 131.78 58.71 136.03 68.3 181.45"/><polygon class="cls-59" points="59.87 178.42 73.94 163.43 84.39 174.08 68.3 181.45 59.87 178.42"/><polygon class="cls-9" points="0 317.28 130.11 305.58 310.73 318.76 356.87 331.6 271.13 350 74.64 344.98 0 317.28"/></g><g id="table"><polygon class="cls-11" points="35.75 265.12 218.61 256 269.08 276.47 94.02 289.53 35.75 265.12"/><polygon class="cls-1" points="38.29 266.03 29.74 322.03 44.15 327.57 47.56 325.86 50.45 327.57 54.07 334.53 61.88 332.21 72.13 334.53 92.6 339.74 97.52 304.42 94.02 286.05 38.29 266.03"/><polygon class="cls-8" points="72.13 334.53 72.13 278.19 54.07 334.53 72.13 334.53"/><polygon class="cls-8" points="44.15 327.57 54.07 283.59 50.45 327.57 44.15 327.57"/><polygon class="cls-7" points="94.02 286.05 92.6 339.74 112.02 337.91 116.28 336.73 121.86 339.74 129.96 336.23 160.09 333.39 165.16 332.81 170.23 335.24 180.97 331.61 189.36 330.09 197.75 332.21 208.49 329.07 279.01 322.59 269.08 276.47 94.02 286.05"/><polygon class="cls-12" points="170.23 335.24 162.7 291.97 160.09 333.39 170.23 335.24"/><polygon class="cls-12" points="180.97 331.61 183.84 298.86 197.75 332.21 180.97 331.61"/><polygon class="cls-12" points="121.86 339.74 113.76 300.53 112.02 337.91 121.86 339.74"/><polygon class="cls-22" points="142.79 272.76 102.45 258.64 68.3 263.54 106.5 282.99 142.79 272.76"/><polygon class="cls-2" points="68.3 263.54 68.3 267.93 105.55 285.42 106.5 283.59 106.5 281.83 68.3 263.54"/><polygon class="cls-8" points="142.79 272.76 142.79 276.47 105.55 285.42 106.5 281.83 142.79 272.76"/><polygon class="cls-27" points="73.48 258.64 100.42 253.01 137.92 267.2 110.88 275.31 73.48 258.64"/><polygon class="cls-11" points="73.48 258.64 73.48 262.8 110.99 278.19 112.02 276.47 110.88 274.15 73.48 258.64"/><polygon class="cls-8" points="110.99 278.19 138.26 271.18 137.92 267.2 110.88 274.15 110.99 278.19"/><line class="cls-64" x1="110.7" y1="269.52" x2="125.04" y2="266.33"/><line class="cls-64" x1="119.83" y1="264.16" x2="106.65" y2="267.35"/><polygon class="cls-65" points="145.05 267.65 184.21 261.94 222.94 266.59 205.68 276.47 157.27 274.75 145.05 267.65"/><polygon class="cls-28" points="164.29 243.74 171.39 242.15 177.76 243.74 170.23 246.8 164.29 243.74"/><polygon class="cls-27" points="164.29 243.74 166.5 265.7 171.03 267.65 171.03 252.38 170.23 245.64 164.29 243.74"/><polygon class="cls-31" points="177.76 243.74 175.73 266.48 171.03 267.65 170.23 245.64 177.76 243.74"/><polygon class="cls-28" points="184.21 244.17 191.3 242.58 197.68 244.17 190.14 247.22 184.21 244.17"/><polygon class="cls-27" points="184.21 244.17 186.42 266.13 190.94 268.08 190.94 252.81 190.14 246.07 184.21 244.17"/><polygon class="cls-31" points="197.68 244.17 195.65 266.91 190.94 268.08 190.14 246.07 197.68 244.17"/><polygon class="cls-26" points="152.42 255.19 161.4 259.96 169.8 255.19 161.54 253.59 152.42 255.19"/><polygon class="cls-29" points="152.42 255.19 154.59 271.84 161.1 274.01 162.12 264.6 161.4 258.81 152.42 255.19"/><polygon class="cls-22" points="169.8 255.19 166.75 271.84 161.1 274.01 161.4 258.81 169.8 255.19"/><polygon class="cls-26" points="171.98 255.92 179.8 260.7 189.36 255.92 181.1 254.33 171.98 255.92"/><polygon class="cls-29" points="171.98 255.92 174.15 272.57 180.67 274.75 181.68 265.33 180.96 259.54 171.98 255.92"/><polygon class="cls-22" points="189.36 255.92 186.32 272.57 180.67 274.75 180.96 259.54 189.36 255.92"/><polygon class="cls-26" points="192.82 255.92 200.64 260.7 210.41 256.41 201.95 254.33 192.82 255.92"/><polygon class="cls-29" points="192.82 255.92 195 272.57 201.51 274.75 202.53 265.33 201.8 259.54 192.82 255.92"/><polygon class="cls-22" points="210.41 256.41 207.16 272.57 201.51 274.75 201.8 259.54 210.41 256.41"/></g><g id="dovakhin"><polygon class="cls-28" points="305.49 169.09 327.35 138.62 336.52 145.02 314.93 177.09 305.49 169.09"/><polygon class="cls-31" points="329.59 145.82 355.32 144.31 327.31 124.95 325.42 134.9 329.59 145.82"/><polygon class="cls-28" points="334.49 137.79 345.42 137.47 342.14 129.86 332.78 128.73 334.49 137.79"/><polygon class="cls-31" points="291.24 149.3 336.28 184.66 333.93 190.35 328.44 195 285.19 161.24 291.24 149.3"/><polygon class="cls-28" points="336.28 184.66 346.36 186.71 338.93 197.21 328.44 195 336.28 184.66"/><polygon class="cls-26" points="258.09 321.39 257.66 335.1 218.57 334.98 233.8 324.8 258.09 321.39"/><polygon class="cls-30" points="238.94 305.53 240.95 315.59 246.86 326.71 258.09 321.39 256.47 307.32 238.94 305.53"/><polygon class="cls-31" points="238.94 305.53 240.33 309.25 239.91 313.91 243.63 318.08 246.86 326.71 233.8 324.8 230.43 318.8 229.42 315.12 226.79 312.3 223.16 305.84 238.94 305.53"/><polygon class="cls-28" points="230.43 318.79 243.63 318.08 240.33 309.26 226.79 312.3 230.43 318.79"/><polygon class="cls-26" points="298.14 323.58 298.33 339.63 261.46 339.57 272.09 330.61 298.14 323.58"/><polygon class="cls-30" points="297.54 289.13 298.14 323.58 286.47 331.36 277.76 297.21 297.54 289.13"/><polygon class="cls-31" points="282.54 294.88 284.58 312.54 283.19 317 285.56 323.43 286.47 331.36 272.09 330.61 269.14 325.32 269.36 322.09 265.05 315.61 282.54 294.88"/><polygon class="cls-28" points="285.56 323.43 284.58 312.54 265.05 315.61 269.14 325.32 285.56 323.43"/><polygon class="cls-26" points="218.32 275.04 217.18 301.2 218.03 308.35 238.94 305.53 232.84 273.36 218.32 275.04"/><polygon class="cls-29" points="235.5 296.45 217.18 301.2 216.8 309.89 238.94 305.53 237.79 300.34 235.5 296.45"/><polygon class="cls-22" points="297.74 252.65 297.61 276.45 294.32 288.1 265.05 315.61 241.07 302.68 235.5 296.45 229.62 280.9 236.85 262.61 297.74 252.65"/><polygon class="cls-27" points="264.87 305.35 235.51 296.46 238.94 305.53 265.05 315.61 297.54 289.13 297.61 276.45 264.87 305.35"/><polygon class="cls-22" points="311.91 172.16 300.73 215.12 297.77 226.45 249.63 232.01 208.88 229.58 211.24 222.38 230.21 194.72 238.46 168.42 241.89 162 290.91 162.1 311.91 172.16"/><polygon class="cls-46" points="298.54 131.64 306.04 152.21 291.44 156.37 282.18 128.24 298.54 131.64"/><polygon class="cls-46" points="189.39 122.85 207.65 128.24 197.15 111.77 189.39 122.85"/><polygon class="cls-22" points="214.83 102.37 189.39 122.85 198.29 92.89 214.83 102.37"/><polygon class="cls-26" points="218.21 90.75 198.29 92.89 218.77 106.8 221.41 99.33 218.21 90.75"/><polygon class="cls-30" points="225.23 109.85 228.07 100.51 226.84 89.75 218.21 90.75 218.77 106.8 225.23 109.85"/><polygon class="cls-46" points="325.42 134.9 305.4 132.82 321.06 120.61 325.42 134.9"/><polygon class="cls-26" points="331.6 102.37 325.42 134.9 306.98 108.28 331.6 102.37"/><polygon class="cls-22" points="305.53 97.26 331.6 102.37 302.48 113.5 301.71 106.9 305.53 97.26"/><polygon class="cls-30" points="297.74 115.31 302.48 113.5 305.53 97.26 296.78 95.55 294.84 105.71 297.74 115.31"/><polygon class="cls-66" points="228.53 104.49 223.19 133.91 220.37 161.65 242.7 162 260.04 171.32 288.53 162.38 295.22 115.95 253.73 103.61 228.53 104.49"/><polygon class="cls-67" points="278.46 109.03 268.53 163.97 242.7 162 261.46 171.16 278.65 166.75 290.91 162.1 291.44 156.37 290.45 149 292.56 144.38 293.21 137.42 291.42 116.95 278.46 109.03"/><polygon class="cls-68" points="241.89 162 275.37 163.18 278.65 166.75 260.32 173.71 241.89 162"/><polygon class="cls-68" points="223.19 133.91 232.42 138.12 239.79 136.76 245.92 142.88 254.07 137.82 264.94 140.69 293.21 137.42 294.03 128.67 238.62 126.66 223.76 128.37 223.19 133.91"/><polygon class="cls-68" points="284.1 144.91 291.44 156.37 292.56 144.38 284.1 144.91"/><polygon class="cls-22" points="226.84 89.75 223.76 128.37 232.13 135.67 241.92 131.75 252.78 131.85 263.48 138.45 273.5 136.5 295.79 130.05 296.78 95.55 256.88 82.58 226.84 89.75"/><polygon class="cls-27" points="296.78 95.55 226.84 89.75 248.34 83.23 255.66 82.92 262.5 82.78 296.78 95.55"/><polygon class="cls-30" points="262.48 82.84 252.78 131.85 246.82 137.61 241.92 131.75 248.34 83.23 256.81 80.66 262.48 82.84"/><polygon class="cls-66" points="230.54 114.04 241.89 114.94 241.34 116.85 234.74 122.59 231.19 117.52 230.54 114.04"/><polygon class="cls-66" points="258.69 117.01 273.05 118.17 272.89 119.63 263.52 126.59 260.04 121.58 258.69 117.01"/><polygon class="cls-68" points="231.19 117.52 241.34 116.85 244.23 114.34 227.65 112.46 231.19 117.52"/><polygon class="cls-68" points="255.97 115.7 276 117.32 272.89 119.63 260.04 121.57 255.97 115.7"/><polygon class="cls-26" points="273.5 136.5 281.79 94.31 296.78 95.55 298.54 131.64 273.5 136.5"/><ellipse class="cls-53" cx="264.45" cy="120.03" rx="2.19" ry="2.34" transform="translate(-12.02 31.11) rotate(-6.58)"/><ellipse class="cls-53" cx="234.91" cy="118.06" rx="2.19" ry="2.34" transform="translate(-11.99 27.71) rotate(-6.58)"/><polygon class="cls-68" points="235.31 143.13 264.98 142.79 258.53 152.05 238.97 152.35 235.31 143.13"/><polygon class="cls-2" points="239.68 145.11 259.38 144.89 257.08 150.36 240.9 150.33 239.68 145.11"/><polygon class="cls-27" points="301.79 172.89 290.91 162.1 244.16 178.93 238.46 168.42 235 175.25 234.18 183.79 228.85 187.49 222.74 199.59 222.4 207.04 216.08 212.8 211.24 222.38 243.31 209.04 283.28 226.88 297.77 226.45 300.73 215.12 255.99 196.92 252.36 191.74 301.79 172.89"/><polygon class="cls-30" points="235 175.25 250.92 199.29 216.08 212.8 222.74 199.59 234.35 195.02 228.85 187.48 235 175.25"/><polygon class="cls-27" points="208.88 229.58 297.77 226.45 297.74 252.65 242.01 264.69 229.62 280.9 218.32 275.04 216.41 265.71 215.2 248.01 210.41 236.54 208.88 229.58"/><polygon class="cls-30" points="210.41 236.54 297.77 231.76 297.75 244.73 234.61 257.59 226.42 270.13 216.41 265.71 215.07 259.23 214.77 250.49 211.18 240.25 210.41 236.54"/><polygon class="cls-27" points="232.12 246.43 236.18 241.14 240.89 245.42 236.97 249.94 232.12 246.43"/><polygon class="cls-27" points="211.18 240.25 222.94 247.79 215.07 259.23 211.18 240.25"/><polygon class="cls-26" points="309.44 163.59 339.21 215.24 299.48 204.33 290.91 162.1 309.44 163.59"/><polygon class="cls-67" points="289.5 246.41 297.74 252.65 303.81 248.99 300.76 237.07 289.5 246.41"/><polygon class="cls-66" points="299.48 204.33 293.76 212.28 293.29 220.54 287.71 220.71 283.28 226.88 289.5 246.41 305.23 236.55 308.62 232.03 315.06 230.38 339.21 215.24 299.48 204.33"/><polygon class="cls-28" points="293.76 212.28 315.06 230.38 305.23 236.55 287.71 220.71 293.76 212.28"/></g></svg>