<svg id="image" xmlns="http://www.w3.org/2000/svg" viewBox="0 0 900 350"><defs><style>.cls-1,.cls-16,.cls-21{fill:#2b2b2b;}.cls-1,.cls-10,.cls-11,.cls-12,.cls-13,.cls-14,.cls-15,.cls-17,.cls-18,.cls-19,.cls-2,.cls-20,.cls-21,.cls-22,.cls-23,.cls-24,.cls-25,.cls-26,.cls-27,.cls-28,.cls-3,.cls-30,.cls-31,.cls-4,.cls-5,.cls-6,.cls-7,.cls-8,.cls-9{fill-rule:evenodd;}.cls-1{opacity:0.1;}.cls-2,.cls-29{fill:#8f8f8f;}.cls-3{fill:#cececd;}.cls-4{fill:#a3a3a3;}.cls-5{fill:#737373;}.cls-6{fill:#c4c4c4;}.cls-7{fill:#dddddc;}.cls-8{fill:#ececeb;}.cls-9{fill:#96637c;}.cls-10,.cls-36{fill:#9075a0;}.cls-11{fill:#a688ba;}.cls-12{fill:#9da1a2;}.cls-13{fill:#785d88;}.cls-14{fill:#d1a1b8;}.cls-15{fill:#6f7173;}.cls-17{fill:#d0af96;}.cls-18{fill:#efd3c2;}.cls-19{fill:#734d60;}.cls-20,.cls-35{fill:#594165;}.cls-21{opacity:0.2;}.cls-22{fill:#f7e6dc;}.cls-23{fill:#a9846c;}.cls-24{fill:#4f5253;}.cls-25,.cls-34{fill:#543042;}.cls-26,.cls-37{fill:#c3987b;}.cls-27{fill:#dfbda5;}.cls-28,.cls-33{fill:#8b6651;}.cls-30{fill:#b3889d;}.cls-31,.cls-38{fill:#fff;}.cls-32{fill:#e8cab6;}</style></defs><title>analysts_INTP_scene_med_weaknesses</title><g id="illustration_left" data-name="illustration left"><g id="shadows"><polygon class="cls-1" points="0 294.96 163.95 255.34 295 282.98 207.87 319.82 26 350 0 294.96"/><polygon class="cls-1" points="426.5 290.5 366.33 308.78 301.69 282.59 296.96 270.16 229.67 257.71 281.99 240.85 321.67 227.32 366.33 240.51 336.38 260.58 407.38 282.32 426.5 290.5"/></g><g id="tree_copy_2" data-name="tree copy 2"><polygon class="cls-2" points="26.07 129.14 31.58 110.13 36.99 109.42 36.32 120.16 34.32 134.49 26.07 129.14"/><polygon class="cls-3" points="34.32 134.49 35.79 109.79 43.99 110.84 35.65 133.25 34.32 134.49"/><polygon class="cls-2" points="56.99 137.35 44.82 134.49 27.07 131.79 28.82 136.35 58.58 141.93 56.99 137.35"/><polygon class="cls-4" points="27.07 131.79 56.99 137.35 54.56 131.79 26.07 129.14 27.07 131.79"/><polygon class="cls-2" points="62.83 175.3 56.53 163.01 68.83 111.04 76.83 115.48 62.83 175.3"/><polygon class="cls-4" points="57 164.89 51 144.63 67.24 109.65 68.83 111.04 57 164.89"/><polygon class="cls-2" points="53.01 148.77 51 140.63 64.33 107.12 67.24 109.65 53.01 148.77"/><polygon class="cls-2" points="50.67 218.06 39.67 215.12 47.12 168.84 50.67 218.06"/><polygon class="cls-2" points="72 218.26 48.67 146.06 47 150.51 51 189.67 58.33 218.6 72 218.26"/><polygon class="cls-3" points="48.67 146.06 51 140.63 80 215.61 72 218.26 62 193.1 48.67 146.06"/><polygon class="cls-4" points="47 150.51 58.33 218.6 50.67 218.06 45.17 154.96 47 150.51"/><polygon class="cls-5" points="13.81 111.04 74.91 123.69 101.42 113.89 132 113.28 165.57 79.01 116.01 63.11 45.17 85.92 0 78.65 13.81 111.04"/><polygon class="cls-4" points="165.57 79.01 154.63 51.65 97.75 59.15 58.33 79.73 18.75 65.65 0 78.65 38 105.73 61.48 90.15 96.5 106.28 132.88 74.08 165.57 79.01"/><polygon class="cls-6" points="0 78.65 13.81 47.57 48.67 55.5 88 34.67 137.06 47.57 154.63 51.65 122.26 94.38 96.5 106.28 61.48 90.15 58.33 79.73 0 78.65"/><polygon class="cls-7" points="137.06 47.57 120.24 37.14 116.01 33.32 114.29 25.15 77.5 0 40.69 27.4 36 38.63 25.94 40.57 13.81 47.57 45.17 63.75 83.79 66.6 137.06 47.57"/><polygon class="cls-6" points="83.79 66.6 120.24 37.14 114.29 25.15 48.67 44.94 83.79 66.6"/><polygon class="cls-6" points="48.67 44.94 45.17 63.75 25.94 40.57 40.69 27.4 48.67 44.94"/><polygon class="cls-4" points="83.79 66.6 58.33 79.73 45.17 63.75 83.79 66.6"/><polygon class="cls-4" points="45.17 63.75 0 78.65 13.81 47.57 45.17 63.75"/><polygon class="cls-4" points="137.06 47.57 122.26 94.38 83.79 66.6 137.06 47.57"/><polygon class="cls-4" points="122.26 94.38 61.48 90.15 99.64 108.53 101.42 112.89 122.26 94.38"/></g><g id="speech_bubble" data-name="speech bubble"><polygon class="cls-8" points="154.63 51.65 146.08 95.26 154.45 119.86 197.5 126.84 199.42 136.8 179.19 151.4 207.83 144.18 221.5 128.29 261.63 115.05 251.67 55.15 205.5 40.9 154.63 51.65"/><path class="cls-9" d="M178.36,77.19l-.14,3-7.67-4.92-7.67,8.54,8.62,7.93L178,87l.07,3.91,3.68.34.75-13.75ZM171.5,86.9l-3.56-3.19,2.89-3.62,5.42,3.56Z"/><polygon class="cls-10" points="190.94 77.13 201.65 78 200.78 81.47 191.23 81.04 190.94 77.13"/><polygon class="cls-10" points="191.08 86.39 200.78 86.39 200.34 90.73 190.5 89.72 191.08 86.39"/><polygon class="cls-9" points="215.25 79.16 216.84 62.66 233.34 60.77 231.9 66.42 220.9 65.98 219.88 70.04 226.83 70.47 225.53 75.25 219.74 73.8 219.01 79.73 215.25 79.16"/><polygon class="cls-10" points="209.9 83.5 237.25 82.48 235.37 87.55 209.46 86.97 209.9 83.5"/><polygon class="cls-9" points="211.78 105.35 212.36 94.06 216.26 94.06 216.26 96.09 224.22 93.92 226.4 95.65 233.34 94.21 234.07 106.94 229.58 107.23 230.16 98.84 225.38 99.71 225.24 106.8 221.47 106.51 221.47 97.83 215.69 100.14 215.4 105.64 211.78 105.35"/><polygon class="cls-9" points="267 41.15 283.83 29.82 293.5 45.15 281.83 55.98 288.33 62.65 282 65.32 273.17 54.32 283.83 47.48 279.83 39.82 270.67 47.82 267 41.15"/><polygon class="cls-9" points="281.83 71.82 287.67 67.98 290.83 74.98 283 78.65 281.83 71.82"/><polygon class="cls-11" points="270.32 158.53 283.43 154.44 286.74 166.25 277.08 171.02 280 176.6 275.38 177.1 271.78 168.26 280.02 165.89 278.9 160.15 271.41 163.57 270.32 158.53"/><polygon class="cls-11" points="274.02 181.29 278.54 179.93 279.24 185.08 273.46 185.94 274.02 181.29"/></g><g id="dog"><polygon class="cls-6" points="328.5 235.85 325.65 247.32 318.74 249.83 313.62 245.73 316.79 235.85 322.88 233.8 328.5 235.85"/><polygon class="cls-4" points="265 233.15 259 252.94 249.5 250.32 253.17 222.32 265 233.15"/><polygon class="cls-6" points="259 252.94 255.75 258.4 244.33 254.98 249.5 250.32 259 252.94"/><polygon class="cls-2" points="253.17 222.32 288.33 200.32 321.13 197.34 334.75 209.21 326.76 229.82 273.83 248.32 253.17 222.32"/><polygon class="cls-5" points="253.17 222.32 299.38 233 334.75 209.21 328.76 231.82 273.83 250.32 253.17 222.32"/><polygon class="cls-4" points="299.5 233.15 301.33 253.98 296 258.83 288.9 257.4 281.99 228.4 299.5 233.15"/><polygon class="cls-2" points="288.9 257.4 301.33 253.98 305 261.67 290 263.67 288.9 257.4"/><polygon class="cls-12" points="330.5 227.32 326.33 222.32 311 218.27 316.79 235.85 328.5 235.85 330.5 227.32"/><polygon class="cls-6" points="334.75 209.21 311 218.27 330.5 227.32 334.75 209.21"/><polygon class="cls-2" points="311.83 251.32 313.62 245.73 325.65 247.32 324 253.94 311.83 251.32"/><polygon class="cls-13" points="293.96 231.65 299.38 233 308.75 207.53 303.5 205.61 293.96 202.28 293.96 231.65"/><polygon class="cls-14" points="296.58 222.83 298.83 221.82 299.92 224.07 297.42 225.48 296.58 222.83"/><polygon class="cls-14" points="298.83 212.59 301.08 211.58 302.17 213.83 299.67 215.25 298.83 212.59"/><polygon class="cls-2" points="254.79 225.21 271.5 229.4 264.17 215.65 254.79 225.21"/><polygon class="cls-6" points="294.88 199.72 293.96 231.65 272.67 234.75 264 217.62 252.54 227.06 244.33 216.48 262.17 193.48 294.88 199.72"/><polygon class="cls-15" points="264 217.62 259 209.21 273.5 211.82 264 217.62"/><polygon class="cls-2" points="273.5 211.82 275.5 204.11 284.75 209.21 279.67 218.65 273.5 211.82"/><polygon class="cls-2" points="259 209.21 261.63 201.44 255.9 201.57 253.12 205.15 253.17 211.65 259 209.21"/><circle class="cls-16" cx="256.81" cy="206.56" r="1.69"/><circle class="cls-16" cx="278.06" cy="210.9" r="1.69"/><polygon class="cls-4" points="288.33 200.32 294.56 210.9 303.5 205.61 295.51 201.82 288.33 200.32"/><polygon class="cls-4" points="262.17 193.48 254.91 192.9 247.67 194.32 253.12 200.32 262.17 193.48"/><polygon class="cls-3" points="288.33 200.32 299.67 194.48 303.5 205.61 288.33 200.32"/><polygon class="cls-3" points="262.17 193.48 257.25 187.65 247.67 194.32 262.17 193.48"/></g><g id="friend"><polygon class="cls-14" points="306.17 252.94 293.96 231.65 299.38 233.03 312.75 252.15 306.17 252.94"/><polygon class="cls-17" points="332.5 201.57 327 205.79 321.13 197.34 327.83 193.1 332.5 201.57"/><polygon class="cls-18" points="325.17 190.97 332.5 201.57 337.6 189.39 336.83 181.98 325.17 190.97"/><polygon class="cls-10" points="332.5 201.57 330.38 218.27 326.81 218.27 323.75 216.65 326.81 193.65 332.5 201.57"/><polygon class="cls-13" points="323.75 216.65 306.17 252.94 313.17 253.98 330.38 218.27 323.75 216.65"/><polygon class="cls-19" points="331.33 135.05 310.55 161.74 321.67 183.98 336.38 184.64 331.33 135.05"/><polygon class="cls-9" points="321.67 183.98 336.38 176.98 336.38 184.64 325.17 190.97 321.67 183.98"/><polygon class="cls-9" points="368.33 275.15 366.74 279.22 364.25 292.15 385.81 293.65 407.38 283.98 385.81 277.27 368.33 275.15"/><polygon class="cls-14" points="407.38 283.98 407.38 289.15 385.63 297.77 362.33 296.65 362.33 290.48 366.74 279.22 385.5 291.48 407.38 283.98"/><polygon class="cls-9" points="321.29 261.67 317.28 264.63 304.83 278.65 352.69 275.15 336.38 266.32 321.29 261.67"/><polygon class="cls-14" points="317.28 264.63 323.75 275.72 352.69 275.15 352.69 281.98 301.67 282.65 301.67 276.15 317.28 264.63"/><polygon class="cls-20" points="332.5 201.57 321.29 261.67 337.59 268.67 341.17 268.48 344.22 271.51 352.69 275.15 369.17 233.32 332.5 201.57"/><polygon class="cls-10" points="351.5 217.48 337.6 268.67 344.21 271.51 357.42 226.78 351.5 217.48"/><polygon class="cls-13" points="357.42 226.78 368.33 275.15 393.02 280.74 397.06 280.34 401.47 282.65 407.38 283.98 409.5 202.55 372.87 213.36 357.42 226.78"/><polygon class="cls-11" points="390.52 208.15 393.02 280.74 401.47 282.65 398.5 205.79 390.52 208.15"/><polygon class="cls-6" points="348.5 126.84 332.5 201.57 357.42 226.78 409.5 202.55 407.38 190.97 388.83 126.84 383.75 117.4 348.5 126.84"/><polygon class="cls-21" points="407.38 190.97 359.67 208.15 361 139.32 382.33 183.98 407.38 190.97"/><polygon class="cls-21" points="348.5 126.84 344.82 196.65 334.75 191.06 348.5 126.84"/><polygon class="cls-9" points="361 139.32 365.43 188.16 370.26 193.65 402.17 189.39 405.2 180.61 399.93 155.53 398.5 123.54 383.75 117.4 361 139.32"/><polygon class="cls-9" points="347.6 134.48 342.79 175.3 338.5 183.98 325.17 178.73 325.29 171 331.33 135.05 341.99 119.65 347.6 134.48"/><polygon class="cls-14" points="361 139.32 372.87 152.63 398.5 118.65 381.48 105.16 348.5 104.48 331.33 135.05 347.6 134.48 348.5 126.84 363.5 126.84 361 139.32"/><polygon class="cls-18" points="302 63.4 306.75 119.86 348.5 126.84 362.25 133.29 380.75 117.4 391.75 84.9 368.5 82.9 351 65.65 302 63.4"/><polygon class="cls-17" points="351 65.65 348.5 126.84 361 139.32 383.75 117.4 392.02 85.68 368.5 79.9 351 65.65"/><polygon class="cls-17" points="334.75 86.4 324.26 84.14 307.5 81.9 323.5 100.9 334.75 86.4"/><polygon class="cls-22" points="323.5 100.9 324.26 84.14 317.93 83.29 317.08 99.82 323.5 100.9"/><polygon class="cls-23" points="329.5 110.65 320.5 115.82 318 107.48 329.5 110.65"/><polygon class="cls-23" points="348.5 126.84 366.33 119.65 361 139.32 348.5 126.84"/><polygon class="cls-23" points="387.64 102.48 379 100.9 385.25 111.65 387.64 102.48"/><polygon class="cls-23" points="382.33 96.48 383.32 88.65 388.83 89.65 382.33 96.48"/><polygon class="cls-5" points="302 63.4 333.75 47.15 387.64 47.15 350.75 71.81 302 63.4"/><polygon class="cls-24" points="350.75 71.81 364.5 92.57 363.25 105.16 375.75 106.28 379 83.8 392.02 85.68 395 71.81 387.64 47.15 350.75 71.81"/><polygon class="cls-2" points="302 63.4 387.64 47.15 332.83 42.82 302 63.4"/><polygon class="cls-5" points="334.75 86.4 324.26 84.14 326.67 78.82 334.75 86.4"/><polygon class="cls-5" points="317.93 83.29 317.66 88.65 307.5 81.9 317.93 83.29"/><polygon class="cls-5" points="323.5 100.9 332.5 111.65 310.08 107.98 317.08 99.82 323.5 100.9"/><polygon class="cls-24" points="323.5 100.9 320 104.48 317.08 99.82 323.5 100.9"/><ellipse class="cls-16" cx="329.17" cy="92.14" rx="2.17" ry="2.43"/><ellipse class="cls-16" cx="312.72" cy="90.66" rx="2.17" ry="2.43"/><polygon class="cls-14" points="365.43 188.16 405.2 180.61 407.38 190.97 366.33 198.18 365.43 188.16"/><polygon class="cls-14" points="342.79 175.3 325.29 171 323.75 180.15 341.47 186.45 342.79 175.3"/><polygon class="cls-17" points="395 95.26 393.5 78.82 399.94 75.53 410.83 73.48 407.38 95.85 395 95.26"/><polygon class="cls-18" points="393.5 78.82 388.83 71.81 392.49 63.4 410.83 73.48 393.5 78.82"/><polygon class="cls-25" points="395.71 135.46 408.38 135.46 421.75 139.32 399.93 155.53 395.71 135.46"/><polygon class="cls-19" points="395.71 135.46 395.12 102.15 402.75 98.53 416.81 102.48 421.75 139.32 395.71 135.46"/><polygon class="cls-14" points="395 102.15 416.81 102.48 415.75 94.57 395 95.26 395 102.15"/></g><g id="bench"><polygon class="cls-19" points="238.33 293.98 218.17 288.4 217 280.29 238.33 273.98 238.33 293.98"/><polygon class="cls-25" points="33 309.76 54.25 305.65 33 290.5 33 309.76"/><polygon class="cls-14" points="36 267.98 113.56 247.32 197.5 230.6 259 252.94 71.66 304.13 36 267.98"/><polygon class="cls-19" points="20.5 271.51 20.5 300.07 33 309.76 34.67 296.32 54.5 311.76 55.5 326.16 71.66 336.98 75 318.86 71.66 301.13 36 267.98 28.25 267.98 20.5 271.51"/><polygon class="cls-9" points="71.66 301.13 259 252.94 256.33 288.32 238.33 293.98 235.01 278.21 94.55 313.65 92.33 330.63 71.66 336.98 71.66 301.13"/><polygon class="cls-10" points="36 267.98 26 223.36 54.5 195.97 160.25 177.1 190.18 191.99 197.5 230.6 179.57 234.75 106.46 247.32 55.5 263.47 36 267.98"/><polygon class="cls-11" points="30 223.36 55.5 196.97 51.67 193.65 42.75 192.99 20.5 217.84 30 223.36"/><polygon class="cls-14" points="42.75 192.99 136.48 173.63 150.02 175.01 160.25 177.1 55.5 196.97 42.75 192.99"/><polygon class="cls-13" points="55.5 263.47 49 231.02 67 211.44 155.35 194.14 174.11 201.57 179.57 234.75 55.5 263.47"/><polygon class="cls-13" points="36 267.98 30 223.36 20.5 217.84 20.5 271.51 36 267.98"/><polygon class="cls-21" points="130.88 282.32 147.45 281.63 159.13 297.36 187.33 290.5 189.18 267.98 142.3 242.37 129.88 188.15 121.07 185.3 100.03 189.03 61.48 199.45 67 211.44 94.55 220.65 101.01 252.94 119 262.08 130.88 282.32"/></g><g id="intp"><polygon class="cls-26" points="211.51 197.11 218.17 187.65 207.04 190.79 197.5 197.37 211.51 197.11"/><polygon class="cls-26" points="192.92 196.32 189.04 189.65 185.91 190.16 187.33 202.55 191.28 200.26 192.92 196.32"/><polygon class="cls-27" points="187.33 202.55 192.92 196.32 211.51 197.11 196 206.56 190.5 206.56 187.33 202.55"/><polygon class="cls-6" points="163.95 197.97 181.08 227.32 160.74 224.68 163.95 197.97"/><polygon class="cls-26" points="199.67 247.32 193.67 293.48 186.33 297.65 180.02 263.67 199.67 247.32"/><polygon class="cls-27" points="182.02 261.67 187.33 295.65 182.22 298.91 178.33 297.87 170.82 282.64 168.5 274.58 182.02 261.67"/><polygon class="cls-13" points="187.33 295.65 193.67 293.48 210 308.78 189.33 308.78 187.33 295.65"/><polygon class="cls-20" points="181.86 315.65 184 310.15 178.33 297.87 178.16 315.65 181.86 315.65"/><polygon class="cls-10" points="178.33 297.87 187.33 295.65 203.87 315.65 184.4 315.65 178.33 297.87"/><polygon class="cls-28" points="182.3 263.47 184.13 275.15 199.67 247.32 169.39 265.33 167.91 276.75 170.82 282.65 182.3 263.47"/><polygon class="cls-10" points="161.88 238.85 199.67 247.32 162.65 281.63 137.95 270.49 137.95 239.38 161.88 238.85"/><polygon class="cls-13" points="162.65 281.63 137.06 245.73 130.88 268.67 162.65 281.63"/><polygon class="cls-7" points="128.18 281.63 80.06 267.98 127.09 255.72 128.18 281.63"/><polygon class="cls-8" points="117.07 267.98 80.06 267.98 130.88 282.32 124.67 273.98 117.07 267.98"/><polygon class="cls-7" points="145.91 182.99 155.35 184.14 163.95 197.97 140.25 207.02 113.35 213 106.11 197.37 120.24 187.65 145.91 182.99"/><polygon class="cls-29" points="163.95 197.97 161.88 238.85 140.68 241.31 119 244.07 113.35 213 163.95 197.97"/><polygon class="cls-6" points="119 244.07 117.07 267.98 130.88 282.32 140.68 241.31 119 244.07"/><polygon class="cls-13" points="144.14 186.45 151.84 201.57 144.14 207.84 135.03 206.56 120.24 187.65 139.07 195.32 144.14 186.45"/><polygon class="cls-20" points="135.03 206.56 140.68 241.31 161.88 238.85 151.84 201.57 135.03 206.56"/><polygon class="cls-8" points="142.3 183.65 154.63 189.65 151.84 201.57 142.3 183.65"/><polygon class="cls-9" points="77.97 207.02 55.5 196.97 79.37 187.73 82.98 192.59 77.97 207.02"/><polygon class="cls-25" points="113.35 178.15 77.97 207.02 81 164.36 113.35 178.15"/><polygon class="cls-9" points="97.01 115.31 75.67 139.32 63.12 158.29 113.35 176.15 97.01 115.31"/><polygon class="cls-27" points="159.03 111.11 163.02 114.89 174.11 168.4 150.02 175.01 133.04 191.57 123.33 186.82 95.6 153.69 101.79 109.99 145.46 97.21 159.03 111.11"/><polygon class="cls-26" points="139.07 196.32 150.02 175.01 135.76 178.88 122.88 127.29 116.31 119.86 95.6 153.69 120.24 187.65 139.07 196.32"/><polygon class="cls-30" points="116.31 119.86 139.76 115.05 154.53 109.82 146.08 95.26 99.64 108.53 106.46 118.15 116.31 119.86"/><polygon class="cls-28" points="106.11 168.18 110.46 163.63 113.35 178.15 106.11 168.18"/><polygon class="cls-27" points="106.11 168.18 113.15 160.83 101.75 142.66 95.6 153.69 106.11 168.18"/><polygon class="cls-28" points="102.42 149.52 106.46 154.81 99.02 153.34 102.42 149.52"/><polygon class="cls-31" points="116.01 164.66 112.96 166.96 108.1 160.48 111.31 158.06 116.01 164.66"/><polygon class="cls-32" points="158.28 150.74 150.78 152.31 145.41 130.37 152.91 128.79 158.28 150.74"/><polygon class="cls-33" points="158.28 150.74 155.62 154.51 150.78 152.31 158.28 150.74"/><polygon class="cls-34" points="128.18 130.7 132 130.54 134.89 127.84 140.25 128.59 133.32 125.88 128.18 130.7"/><polygon class="cls-34" points="152.95 126.84 155.95 126.28 158.5 122.03 162.65 122.62 157.33 120.24 152.95 126.84"/><polygon class="cls-35" points="147.68 162.69 156.29 161.94 161.58 159.69 157.63 157.4 155.38 158.78 152.88 158.28 147.68 162.69"/><polygon class="cls-36" points="147.68 162.69 156.21 167.11 161.58 159.69 147.68 162.69"/><polygon class="cls-37" points="166.38 141.85 157.25 146.51 156.76 144.23 166.38 141.85"/><polygon class="cls-37" points="129.88 149.52 150.02 149.19 149.13 145.8 129.88 149.52"/><polygon class="cls-37" points="128.81 137.27 144.14 139.32 143.31 133.29 128.81 137.27"/><polygon class="cls-37" points="163.34 130 158.17 136.14 154.53 130.37 163.34 130"/><polygon class="cls-9" points="146.08 95.26 139.76 115.05 159.03 111.11 146.08 95.26"/><polygon class="cls-19" points="101.75 143.66 111.31 158.06 117.07 151.69 107.16 134.8 116.31 119.86 99.64 108.53 82.98 151.4 95.6 153.69 101.75 143.66"/><polygon class="cls-25" points="82.98 151.4 106.11 168.18 95.6 153.69 82.98 151.4"/><polygon class="cls-19" points="63.12 158.29 82.98 151.4 106.11 168.18 113.35 178.15 63.12 158.29"/><polygon class="cls-30" points="97.01 115.31 63.12 158.29 74.91 123.69 97.01 115.31"/><path class="cls-35" d="M156.76,144.23l18.84-4-3.72-15.43-9.26,1.94,0-.07-17.19,3.71v0l-20.67,4.36-27.39,6.6L98.5,149l3.25-5.32,24.82-1.57,2,8.08,20.54-4.36-2.94-12.18L153.7,132Zm-25.72,2-2.24-9,14.13-3,2.16,9Zm40.52-8.54-12.35,2.6-2.24-9,12.43-2.6Z"/><polygon class="cls-38" points="150.23 162.14 155.41 164.26 158.67 160.41 150.23 162.14"/><polygon class="cls-28" points="126.17 180.82 141.81 190.97 150.02 175.01 126.17 180.82"/><polygon class="cls-4" points="106.11 197.37 127.09 229.4 126.17 236.65 119 244.07 100.03 218.9 106.11 197.37"/><polygon class="cls-4" points="162.37 224.89 187.33 202.55 196 206.56 179.57 234.75 162.37 224.89"/><polygon class="cls-10" points="139.07 196.32 135.03 206.56 126.17 198.5 120.24 187.65 139.07 196.32"/><polygon class="cls-10" points="144.14 186.45 139.07 196.32 151.84 201.57 144.14 186.45"/><polygon class="cls-8" points="120.24 187.65 120.24 202.55 135.03 206.56 120.24 187.65"/><polygon class="cls-21" points="173 260.14 146.4 258.83 133.78 270.16 136.6 258.4 119 244.07 152.79 251.57 173 260.14"/><polygon class="cls-8" points="127.09 229.4 156.76 245.73 154.75 251.15 150.23 255.34 119 244.07 127.09 229.4"/><polygon class="cls-27" points="156.76 245.73 171.25 245.73 166.43 252.33 159.13 257.4 150.23 255.34 156.76 245.73"/><polygon class="cls-26" points="171.25 245.73 180.02 257.4 173 260.14 159.13 257.4 171.25 245.73"/><circle class="cls-16" cx="140.25" cy="138.25" r="2.63"/><circle class="cls-16" cx="163.34" cy="133.29" r="2.63"/></g></g><g id="illustration_right" data-name="illustration right"><g id="shadows_copy" data-name="shadows copy"><polygon class="cls-1" points="473.5 294.96 637.45 255.34 768.5 282.98 681.37 319.82 499.5 350 473.5 294.96"/><polygon class="cls-1" points="900 290.5 839.83 308.78 775.19 282.59 770.46 270.16 703.17 257.71 755.49 240.85 795.17 227.32 839.83 240.51 809.88 260.58 880.88 282.32 900 290.5"/></g><g id="tree_copy" data-name="tree copy"><polygon class="cls-2" points="499.07 129.14 504.58 110.13 509.99 109.42 509.32 120.16 507.32 134.49 499.07 129.14"/><polygon class="cls-3" points="507.32 134.49 508.79 109.79 516.99 110.84 508.65 133.25 507.32 134.49"/><polygon class="cls-2" points="529.99 137.35 517.82 134.49 500.07 131.79 501.82 136.35 531.58 141.93 529.99 137.35"/><polygon class="cls-4" points="500.07 131.79 529.99 137.35 527.56 131.79 499.07 129.14 500.07 131.79"/><polygon class="cls-2" points="535.83 175.3 529.53 163.01 541.83 111.04 549.83 115.48 535.83 175.3"/><polygon class="cls-4" points="530 164.89 524 144.63 540.24 109.65 541.83 111.04 530 164.89"/><polygon class="cls-2" points="526.01 148.77 524 140.63 537.33 107.12 540.24 109.65 526.01 148.77"/><polygon class="cls-2" points="523.67 218.06 512.67 215.12 520.12 168.84 523.67 218.06"/><polygon class="cls-2" points="545 218.26 521.67 146.06 520 150.51 524 189.67 531.33 218.6 545 218.26"/><polygon class="cls-3" points="521.67 146.06 524 140.63 553 215.61 545 218.26 535 193.1 521.67 146.06"/><polygon class="cls-4" points="520 150.51 531.33 218.6 523.67 218.06 518.17 154.96 520 150.51"/><polygon class="cls-5" points="486.81 111.04 547.91 123.69 574.42 112.89 605 113.28 638.57 79.01 589.01 63.11 518.17 85.92 473 78.65 486.81 111.04"/><polygon class="cls-4" points="638.57 79.01 627.63 51.65 570.75 59.15 531.33 79.73 491.75 65.65 473 78.65 511 105.73 534.48 90.15 569.5 106.28 605.88 74.08 638.57 79.01"/><polygon class="cls-6" points="473 78.65 486.81 47.57 521.67 55.5 561 34.67 610.06 47.57 627.63 51.65 595.26 94.38 569.5 106.28 534.48 90.15 531.33 79.73 473 78.65"/><polygon class="cls-7" points="610.06 47.57 593.24 37.14 589.01 33.32 587.29 25.15 550.5 0 513.69 27.4 509 38.63 498.94 40.57 486.81 47.57 518.17 63.75 556.79 66.6 610.06 47.57"/><polygon class="cls-6" points="556.79 66.6 593.24 37.14 587.29 25.15 521.67 44.94 556.79 66.6"/><polygon class="cls-6" points="521.67 44.94 518.17 63.75 498.94 40.57 513.69 27.4 521.67 44.94"/><polygon class="cls-4" points="556.79 66.6 531.33 79.73 518.17 63.75 556.79 66.6"/><polygon class="cls-4" points="518.17 63.75 473 78.65 486.81 47.57 518.17 63.75"/><polygon class="cls-4" points="610.06 47.57 595.26 94.38 556.79 66.6 610.06 47.57"/><polygon class="cls-4" points="595.26 94.38 534.48 90.15 574.42 112.89 595.26 94.38"/></g><g id="dog_copy" data-name="dog copy"><polygon class="cls-6" points="802 235.85 799.15 247.32 792.24 249.83 787.12 245.73 790.29 235.85 796.38 233.8 802 235.85"/><polygon class="cls-4" points="738.5 233.15 732.5 252.94 723 250.32 726.67 222.32 738.5 233.15"/><polygon class="cls-6" points="732.5 252.94 729.25 258.4 717.83 254.98 723 250.32 732.5 252.94"/><polygon class="cls-2" points="726.67 222.32 761.83 200.32 794.63 197.34 808.25 209.21 800.26 229.82 747.33 248.32 726.67 222.32"/><polygon class="cls-5" points="726.67 222.32 772.88 233 808.25 209.21 802.26 231.82 747.33 250.32 726.67 222.32"/><polygon class="cls-4" points="773 233.15 774.83 253.98 769.5 258.83 762.4 257.4 755.49 228.4 773 233.15"/><polygon class="cls-2" points="762.4 257.4 774.83 253.98 778.5 261.67 763.5 263.67 762.4 257.4"/><polygon class="cls-12" points="804 227.32 799.83 222.32 784.5 218.27 790.29 235.85 802 235.85 804 227.32"/><polygon class="cls-6" points="808.25 209.21 784.5 218.27 804 227.32 808.25 209.21"/><polygon class="cls-2" points="785.33 251.32 787.12 245.73 799.15 247.32 797.5 253.94 785.33 251.32"/><polygon class="cls-13" points="767.46 231.65 772.88 233 782.25 207.53 777 205.61 767.46 202.28 767.46 231.65"/><polygon class="cls-14" points="770.08 222.83 772.33 221.82 773.42 224.07 770.92 225.48 770.08 222.83"/><polygon class="cls-14" points="772.33 212.59 774.58 211.58 775.67 213.83 773.17 215.25 772.33 212.59"/><polygon class="cls-2" points="728.29 225.21 747 230.4 737.67 215.65 728.29 225.21"/><polygon class="cls-31" points="729.87 217.65 744.91 224.48 742.91 219.65 737.67 215.65 729.87 217.65"/><polygon class="cls-6" points="768.38 199.72 767.46 231.65 746.17 234.75 742 219.65 737.5 217.62 726.04 227.06 717.83 216.48 735.67 193.48 768.38 199.72"/><polygon class="cls-15" points="737.5 217.62 732.5 209.21 747 211.82 737.5 217.62"/><polygon class="cls-2" points="747 211.82 747.69 209.17 758.25 207.21 753.17 218.65 747 211.82"/><polygon class="cls-2" points="732.5 209.21 733.13 206.44 729.4 201.57 726.62 205.15 726.67 211.65 732.5 209.21"/><circle class="cls-16" cx="730.31" cy="206.56" r="1.69"/><circle class="cls-16" cx="751.56" cy="210.9" r="1.69"/><polygon class="cls-4" points="761.25 198.36 768.13 208.25 775.17 204.97 772.95 199.31 768.83 197.34 761.25 198.36"/><polygon class="cls-4" points="735.67 193.48 729.83 190.07 724.42 188.07 724.25 197.73 735.67 193.48"/><polygon class="cls-3" points="761.25 198.36 770.45 192.9 772.95 199.31 761.25 198.36"/><polygon class="cls-3" points="735.67 193.48 735.5 184.82 724.42 188.07 735.67 193.48"/><polygon class="cls-2" points="737.5 217.62 736.84 220.81 739.56 218.65 739.75 222.14 742 219.65 737.5 217.62"/><polygon class="cls-11" points="732.21 177.24 731.65 169.05 728.26 167.54 726.5 157.31 726.5 170.08 729 171.36 732.21 177.24"/><polygon class="cls-11" points="714.97 198.25 707.32 195.29 704.51 197.73 694.5 194.99 706.07 200.4 708.29 198.67 714.97 198.25"/><polygon class="cls-11" points="721.59 179.07 719.44 173.44 716.75 173.76 711.86 164.27 714.99 176.87 717.6 176.07 721.59 179.07"/><polygon class="cls-11" points="717.23 189.13 710.93 182.86 707.12 183.08 701.23 176.3 707.18 186.76 710.29 185.68 717.23 189.13"/></g><g id="friend_copy" data-name="friend copy"><polygon class="cls-14" points="785.89 239.63 767.46 231.65 774 229.95 789 235.48 785.89 239.63"/><polygon class="cls-13" points="784.5 218.27 785.89 239.63 790.29 235.85 789.62 220.65 786.75 218.31 784.5 218.27"/><polygon class="cls-19" points="817.49 165.11 779.67 171 794.79 190.98 808.25 191.06 817.49 165.11"/><polygon class="cls-9" points="788.07 169.69 779.67 171 786.89 190.98 794.79 190.98 788.07 169.69"/><polygon class="cls-9" points="841.83 275.15 840.24 279.22 837.75 292.15 859.31 293.65 880.88 283.98 859.31 277.27 841.83 275.15"/><polygon class="cls-14" points="880.88 283.98 880.88 289.15 859.13 297.77 835.83 296.65 835.83 290.48 840.24 279.22 859 291.48 880.88 283.98"/><polygon class="cls-9" points="794.79 261.67 790.78 264.63 778.33 278.65 826.19 275.15 809.88 266.32 794.79 261.67"/><polygon class="cls-14" points="790.78 264.63 797.25 275.72 826.19 275.15 826.19 281.98 775.17 282.65 775.17 276.15 790.78 264.63"/><polygon class="cls-20" points="806 201.57 794.79 261.67 811.09 268.67 814.67 268.48 817.72 271.51 826.19 275.15 842.67 233.32 806 201.57"/><polygon class="cls-10" points="825 217.48 811.1 268.67 817.71 271.51 830.92 226.78 825 217.48"/><polygon class="cls-13" points="830.92 226.78 841.83 275.15 866.52 280.74 870.56 280.34 874.97 282.65 880.88 283.98 883 202.55 849 198.18 830.92 226.78"/><polygon class="cls-11" points="864.02 208.15 866.52 280.74 874.97 282.65 872 205.79 864.02 208.15"/><polygon class="cls-6" points="822 126.84 806 201.57 830.92 226.78 852.5 209.21 883 202.55 880.88 190.97 862.33 126.84 857.25 117.4 822 126.84"/><polygon class="cls-21" points="880.88 190.97 858.36 202.28 833.17 208.15 829.2 142.72 855.83 183.98 880.88 190.97"/><polygon class="cls-21" points="822 126.84 818.32 196.65 808.25 191.06 822 126.84"/><polygon class="cls-9" points="829.2 142.72 838.93 188.16 843.76 193.65 875.67 189.39 878.7 180.61 873.43 155.53 877.07 128 857.25 119.4 829.2 142.72"/><polygon class="cls-9" points="821.1 134.48 816.29 175.3 812 183.98 798.67 178.73 798.79 171 804.83 135.05 815.49 119.65 821.1 134.48"/><polygon class="cls-14" points="829.2 142.72 846.37 152.63 872 118.65 864.61 110.91 822 104.48 804.83 135.05 821.1 134.48 822 126.84 837 126.84 829.2 142.72"/><polygon class="cls-18" points="790.89 50.01 778.47 106.35 827.31 122.73 840.93 129.18 861.61 116.25 877.37 85.77 854.68 80.3 839.97 60.62 790.89 50.01"/><polygon class="cls-17" points="839.97 60.62 826.52 122.23 818.33 121.15 829.2 142.72 859.58 120.37 877.07 87.43 855.13 77.33 839.97 60.62"/><polygon class="cls-17" points="822 76.08 808.26 75.65 794.52 70.15 807.49 91.34 822 76.08"/><polygon class="cls-22" points="807.49 91.34 810.76 74.88 804.63 73.09 801.31 89.3 807.49 91.34"/><polygon class="cls-23" points="814.22 118.34 826.52 122.23 841.08 123.65 829.2 142.72 814.22 118.34"/><polygon class="cls-23" points="869.12 102.42 860.55 98.57 864.61 110.91 869.12 102.42"/><polygon class="cls-23" points="863.85 94.47 866 86.88 872.2 89.09 863.85 94.47"/><polygon class="cls-5" points="790.89 50.01 825.69 39.74 880.34 51.94 860.86 61.07 838.79 66.67 790.89 50.01"/><polygon class="cls-24" points="838.79 66.67 847.3 88.21 844.17 100.47 856.36 103.46 864.08 82.1 877.07 87.43 882.49 76.05 880.34 51.94 838.79 66.67"/><polygon class="cls-2" points="790.89 50.01 880.34 51.94 829.39 37.4 790.89 50.01"/><polygon class="cls-5" points="822 76.08 809.88 79.29 810.76 74.88 822 76.08"/><polygon class="cls-5" points="804.63 73.09 803.55 78.35 793.52 69.15 804.63 73.09"/><polygon class="cls-5" points="807.49 91.34 814.77 105.32 792.16 97.33 801.31 89.3 807.49 91.34"/><polygon class="cls-24" points="807.49 91.34 803.49 94.36 801.31 89.3 807.49 91.34"/><ellipse class="cls-16" cx="813.38" cy="84.69" rx="2.54" ry="2.17" transform="translate(607.49 876.13) rotate(-81.36)"/><ellipse class="cls-16" cx="797.35" cy="80.7" rx="2.54" ry="2.17" transform="translate(597.81 856.89) rotate(-81.36)"/><polygon class="cls-14" points="838.93 188.16 878.7 180.61 880.88 190.97 839.83 198.18 838.93 188.16"/><polygon class="cls-14" points="816.29 175.3 798.79 171 797.25 180.15 814.97 186.45 816.29 175.3"/><polygon class="cls-23" points="782.25 166.18 788.07 169.69 784.5 183.61 765.16 171 777 171.82 782.25 166.18"/><polygon class="cls-18" points="782.25 166.18 765.16 171 770.45 192.9 786.89 190.98 782.25 166.18"/><polygon class="cls-10" points="778.94 167.11 781.5 191.61 778.73 194.14 775.67 192.29 771.75 169.14 778.94 167.11"/><polygon class="cls-14" points="784.5 218.27 775.67 192.29 781.5 191.61 789.62 220.65 784.5 218.27"/><polygon class="cls-21" points="864.83 226.78 882.49 218.27 873.66 208.15 864.83 226.78"/><polygon class="cls-18" points="858.36 202.28 852.5 209.21 864.83 226.78 872.42 216.77 873.97 212.41 868.02 202.79 858.36 202.28"/><polygon class="cls-23" points="858.36 202.28 872.42 216.77 874.97 213.41 868.02 202.79 858.36 202.28"/><polygon class="cls-19" points="869.5 182.36 868.02 124.08 883 129.29 896 174 879.06 182.31 869.5 182.36"/><polygon class="cls-9" points="869.5 182.36 862.91 194.13 873.66 205.79 885.25 209.21 896 174 869.5 182.36"/><polygon class="cls-14" points="858.36 202.28 862.91 194.13 885.25 209.21 882.49 218.27 858.36 202.28"/><polygon class="cls-9" points="740.66 89.26 765.13 92.05 766.05 90.03 739.29 85.96 740.66 89.26"/><polygon class="cls-9" points="742.95 82.28 766.63 88.11 768.25 86.41 744.79 79.46 742.95 82.28"/><polygon class="cls-9" points="744.46 94.13 753.52 76.6 756.57 78.71 746.88 94.49 744.46 94.13"/><polygon class="cls-9" points="749.96 95.89 760.77 78.91 763.35 80.8 752.98 95.55 749.96 95.89"/><polygon class="cls-9" points="744.62 59.17 757.67 69.72 759.51 68.25 746.29 54.94 744.62 59.17"/><polygon class="cls-9" points="759.69 72.12 761.89 75.08 765.21 73.24 761.35 70.47 759.69 72.12"/><polygon class="cls-9" points="772.63 40.49 761.68 40.26 758.3 52.18 773.17 51.71 770.72 56.61 762.63 56.96 763.33 60.88 772.78 60.82 776.88 49.18 762.02 48.87 764.48 43.7 772.81 44.4 772.63 40.49"/><polygon class="cls-9" points="760 36.9 772.1 65.5 775.44 64.79 762.35 36.56 760 36.9"/></g><g id="bench_copy" data-name="bench copy"><polygon class="cls-19" points="711.83 293.98 691.67 288.4 690.5 280.29 711.83 273.98 711.83 293.98"/><polygon class="cls-25" points="506.5 309.76 527.75 305.65 506.5 290.5 506.5 309.76"/><polygon class="cls-14" points="509.5 267.98 587.06 247.32 671 230.6 732.5 252.94 545.16 304.13 509.5 267.98"/><polygon class="cls-19" points="494 271.51 494 300.07 506.5 309.76 508.17 296.32 528 311.76 529 326.16 545.16 336.98 548.5 318.86 545.16 301.13 509.5 267.98 501.75 267.98 494 271.51"/><polygon class="cls-9" points="545.16 301.13 732.5 252.94 729.83 288.32 711.83 293.98 708.51 278.21 568.05 313.65 565.83 330.63 545.16 336.98 545.16 301.13"/><polygon class="cls-10" points="509.5 267.98 499.5 223.36 528 195.97 632.44 178.56 664.68 191.99 671 230.6 653.07 234.75 579.96 247.32 529 263.47 509.5 267.98"/><polygon class="cls-11" points="503.5 223.36 529 196.97 525.17 193.65 516.25 192.99 494 217.84 503.5 223.36"/><polygon class="cls-14" points="516.25 192.99 619.98 173.63 632.44 178.56 529 196.97 516.25 192.99"/><polygon class="cls-13" points="529 263.47 522.5 231.02 540.5 211.44 628.85 194.14 647.61 201.57 653.07 234.75 529 263.47"/><polygon class="cls-13" points="509.5 267.98 503.5 223.36 494 217.84 494 271.51 509.5 267.98"/><polygon class="cls-21" points="604.38 282.32 620.95 281.63 632.63 297.36 660.83 290.5 662.68 267.98 615.8 242.37 603.38 188.15 585.55 187.64 567.5 189.98 546.16 194.14 563.33 242.5 572.83 247.32 574.51 252.94 592.5 262.08 604.38 282.32"/></g><g id="speech_bubble_copy" data-name="speech bubble copy"><polygon class="cls-8" points="645.75 44.67 651.66 93.32 677.37 95.89 687.5 115.4 673.17 132.72 705.17 117.76 699.5 96.89 729.25 99.31 724.59 34.67 645.75 44.67"/><polygon class="cls-9" points="670.43 66.97 674.46 62.95 678.49 67.42 673.34 71 670.43 66.97"/><polygon class="cls-9" points="682.74 66.97 686.76 62.95 691.01 66.75 686.54 70.55 682.74 66.97"/><polygon class="cls-9" points="695.49 66.77 698.33 62.5 703.32 66.77 698.81 70.33 695.49 66.77"/></g><g id="intp_copy" data-name="intp copy"><polygon class="cls-9" points="646.83 200.32 664.68 191.99 651.12 182.65 645.75 190.98 646.83 200.32"/><polygon class="cls-25" points="624.08 176.15 628.85 184.14 646.83 200.32 656.43 162.36 624.08 176.15"/><polygon class="cls-4" points="581.43 174.64 585.1 196.16 556.42 190.15 558.75 175.64 581.43 174.64"/><polygon class="cls-27" points="663.86 183.69 668.85 173.63 675.5 176.15 681.67 182.31 672.26 190.98 666.17 189.57 663.86 183.69"/><polygon class="cls-6" points="628.85 184.14 652.9 206.54 636.84 210.06 628.85 184.14"/><polygon class="cls-26" points="673.17 247.32 667.17 293.48 659.83 297.65 653.52 263.67 673.17 247.32"/><polygon class="cls-27" points="655.52 261.67 660.83 295.65 655.72 298.91 651.83 297.87 644.32 282.65 642.67 273 655.52 261.67"/><polygon class="cls-13" points="660.83 295.65 667.17 293.48 683.5 308.78 662.83 308.78 660.83 295.65"/><polygon class="cls-20" points="655.36 315.65 657.5 310.15 651.83 297.87 651.66 315.65 655.36 315.65"/><polygon class="cls-10" points="651.83 297.87 660.83 295.65 677.37 315.65 657.89 315.65 651.83 297.87"/><polygon class="cls-28" points="655.8 263.47 657.62 275.08 673.17 247.32 642.89 265.33 641.41 276.75 644.32 282.65 655.8 263.47"/><polygon class="cls-10" points="635.38 238.85 673.17 247.32 636.15 281.63 605.5 267.98 605.5 237.63 635.38 238.85"/><polygon class="cls-13" points="636.15 281.63 614.18 241.31 607.56 268.99 636.15 281.63"/><polygon class="cls-7" points="601.68 281.63 553.56 267.98 600.59 255.72 601.68 281.63"/><polygon class="cls-8" points="590.57 267.98 553.56 267.98 604.38 282.32 598.17 273.98 590.57 267.98"/><polygon class="cls-7" points="619.41 182.99 628.85 184.14 637.45 197.97 613.75 207.02 586.85 213 581.43 174.64 589.75 176.16 619.41 182.99"/><polygon class="cls-29" points="637.45 197.97 635.38 238.85 624.29 235.32 614.18 241.31 602.67 247.32 592.5 244.07 586.85 213 608.53 206.56 617.64 207.84 625.35 201.57 637.45 197.97"/><polygon class="cls-6" points="592.5 244.07 590.57 267.98 604.38 282.32 614.18 241.31 592.5 244.07"/><polygon class="cls-13" points="617.19 185.65 625.34 201.57 617.64 207.84 608.53 206.56 599.89 193.82 596.8 188.67 617.19 185.65"/><polygon class="cls-20" points="608.53 206.56 614.18 241.31 635.38 238.85 625.34 201.57 608.53 206.56"/><polygon class="cls-8" points="617.19 185.65 628.13 189.65 625.34 201.57 617.19 185.65"/><polygon class="cls-9" points="640.43 113.31 661.77 137.32 674.32 156.29 624.08 174.15 640.43 113.31"/><polygon class="cls-27" points="578.5 109.39 574.42 112.89 563.33 166.4 587.42 173.01 604.4 189.57 614.1 184.82 641.83 151.69 635.65 107.99 596.14 96.42 578.5 109.39"/><polygon class="cls-26" points="596.8 188.67 587.42 173.01 601.68 176.88 614.55 125.29 621.13 117.86 641.83 151.69 617.19 185.65 608.49 192.9 596.8 188.67"/><polygon class="cls-30" points="621.13 117.86 597.67 113.05 582.9 107.82 595.26 94.38 637.79 106.53 630.98 116.15 621.13 117.86"/><polygon class="cls-28" points="631.32 166.18 626.97 161.63 624.08 176.15 631.32 166.18"/><polygon class="cls-27" points="631.32 166.18 624.29 158.83 635.69 140.66 641.83 151.69 631.32 166.18"/><polygon class="cls-28" points="635.01 147.52 630.98 152.81 638.42 151.34 635.01 147.52"/><polygon class="cls-31" points="621.43 162.66 624.47 164.96 629.34 158.48 626.13 156.06 621.43 162.66"/><polygon class="cls-32" points="579.15 148.74 586.65 150.31 592.03 128.37 584.53 126.79 579.15 148.74"/><polygon class="cls-33" points="579.15 148.74 581.81 152.51 586.65 150.31 579.15 148.74"/><polygon class="cls-34" points="608.49 130.25 604.7 129.7 598.27 123.26 603.88 124.93 608.49 130.25"/><polygon class="cls-34" points="572.66 122.21 576.38 123.1 584.74 119.52 578.92 118.98 572.66 122.21"/><polygon class="cls-35" points="589.75 163.34 581.14 159.94 575.86 157.69 581.13 156.06 582.56 157.69 585.41 157.42 589.75 163.34"/><polygon class="cls-36" points="589.75 163.34 580.23 163.11 575.86 157.69 589.75 163.34"/><polygon class="cls-37" points="571.06 139.85 580.19 144.51 580.68 142.23 571.06 139.85"/><polygon class="cls-37" points="607.56 147.52 587.42 147.19 588.31 143.8 607.56 147.52"/><polygon class="cls-37" points="608.63 135.27 593.3 137.32 594.13 131.29 608.63 135.27"/><polygon class="cls-37" points="574.1 128 579.27 134.14 582.9 128.37 574.1 128"/><circle class="cls-16" cx="574.95" cy="130" r="2.29"/><circle class="cls-16" cx="600.96" cy="135.49" r="2.29"/><polygon class="cls-9" points="595.26 94.38 597.67 113.05 578.5 109.39 595.26 94.38"/><polygon class="cls-19" points="635.69 141.66 626.13 156.06 620.36 149.69 630.27 132.8 621.13 117.86 637.79 106.53 654.46 149.4 641.83 151.69 635.69 141.66"/><polygon class="cls-25" points="654.46 149.4 631.32 166.18 641.83 151.69 654.46 149.4"/><polygon class="cls-19" points="674.32 156.29 654.46 149.4 631.32 166.18 624.08 176.15 674.32 156.29"/><polygon class="cls-30" points="640.43 113.31 674.32 156.29 662.31 115.78 640.43 113.31"/><path class="cls-35" d="M583.73,130l7.52,1.62-2.94,12.18,20.54,4.36,2-8.08,24.82,1.57,3.25,5.32,1.14-7.64-27.38-6.6L592,128.37v0l-17.2-3.71v.07l-9.27-1.94-3.72,15.43,18.85,4Zm8.62,11.25,2.16-9,14.12,3-2.23,9ZM568,126.74l12.44,2.6-2.24,9-12.36-2.6Z"/><polygon class="cls-28" points="611.27 178.82 596.8 188.67 587.42 173.01 611.27 178.82"/><polygon class="cls-8" points="558.75 175.64 576.65 210.06 571.63 212.93 565.48 213.24 546.16 194.14 558.75 175.64"/><polygon class="cls-27" points="576.65 210.06 581.74 223.65 573.81 225.61 564.95 224.8 565.48 213.24 576.65 210.06"/><polygon class="cls-26" points="581.74 223.65 575.86 239.15 567.17 235.63 564.95 224.8 581.74 223.65"/><polygon class="cls-12" points="636.84 210.06 663.86 183.69 672.26 190.98 655.67 215.65 636.84 210.06"/><polygon class="cls-8" points="594.53 184.88 593.74 202.55 608.53 206.56 594.53 184.88"/><polygon class="cls-26" points="681.67 182.31 685.66 168.89 678.5 161.34 668.85 173.63 681.67 182.31"/><polygon class="cls-26" points="671 179.48 666.83 168.15 663.68 170.01 663.86 183.69 668.28 187.53 671 179.48"/><polygon class="cls-10" points="608.49 192.9 625.34 201.57 617.19 185.65 608.49 192.9"/><polygon class="cls-10" points="608.49 192.9 608.53 206.56 596.8 188.67 608.49 192.9"/></g></g><g id="slash"><polygon class="cls-7" points="421.75 0 467.67 160.05 426.33 200 468.33 350 445.01 205.61 486.81 165.11 421.75 0"/></g></svg>