<svg xmlns="http://www.w3.org/2000/svg" viewBox="0 0 900 350"><defs><style>.cls-1{fill:#a3a3a3;}.cls-2{fill:#dddddc;}.cls-3{fill:#cfcfcd;}.cls-4{fill:#b3889d;}.cls-5{fill:#96647c;}.cls-6{fill:#ececeb;}.cls-27,.cls-7{fill:#2b2b2b;}.cls-7{opacity:0.1;}.cls-8{fill:#c4c4c4;}.cls-9{fill:#d1a1b9;}.cls-10{fill:#a588b9;}.cls-11{fill:#795d88;}.cls-12{fill:#9075a0;}.cls-13{fill:#594265;}.cls-14{fill:#6f7273;}.cls-15{fill:#8f8f8f;}.cls-16{fill:#858686;}.cls-17{fill:#fff;}.cls-18{fill:#c2987a;}.cls-19{fill:#dfbda5;}.cls-20{fill:#8b6651;}.cls-21{fill:#543042;}.cls-22{fill:#734d61;}.cls-23{fill:#474748;}.cls-24{fill:#4f5353;}.cls-25{fill:#e9cbb7;}.cls-26{fill:#737474;}.cls-28{fill:#66493b;}.cls-29{fill:#916a59;}.cls-30{fill:#b08d79;}.cls-31{fill:#b99e8e;}.cls-32{fill:#c1907c;}.cls-33{fill:#f5cbb3;}.cls-34{fill:#fde4d5;}.cls-35{fill:#fff0e9;}</style></defs><title>analysts_ENTJ_scene_med_weaknesses</title><g id="background"><polygon class="cls-1" points="892.33 16 869.91 0 839.67 263.19 862.38 303 900 291.42 892.33 16"/><polygon class="cls-1" points="36.03 303 0.65 291.91 13 15.33 33 0 57.67 258.01 36.03 303"/><polygon class="cls-2" points="686.5 60 286.67 61.25 228.33 176.41 275.14 287.89 386.44 274.95 686.5 276.57 741.79 90.87 686.5 60"/><polygon class="cls-3" points="33 0 36.03 303 282.29 278.7 286.67 61.25 33 0"/><polygon class="cls-3" points="646.27 60 639.83 274.95 862.38 303 869.91 0 646.27 60"/><polygon class="cls-4" points="741.79 103.67 822 97.44 827.5 203.99 741.79 197.53 741.79 103.67"/><polygon class="cls-5" points="833.5 102.8 822 97.44 827.5 203.99 839.67 199.28 833.5 102.8"/><polygon class="cls-6" points="753.5 115.35 810 110.21 814 190.72 751.5 188.33 753.5 115.35"/><polygon class="cls-7" points="839.67 199.28 833.5 102.8 845 107.25 854.5 218.25 760 209.25 760 198.51 827.5 203.99 839.67 199.28"/><rect class="cls-1" x="782.75" y="173.85" width="21.25" height="2.3"/><rect class="cls-1" x="757.25" y="163.5" width="48.58" height="2.3"/><rect class="cls-1" x="756.42" y="154.6" width="48.58" height="2.3"/><polygon class="cls-1" points="756.42 146.25 805 144.71 805 147.4 756.42 148.55 756.42 146.25"/><polygon class="cls-1" points="756.42 137.43 805 135.32 805 137.52 756.42 139.73 756.42 137.43"/><rect class="cls-1" x="767.7" y="124.52" width="21.25" height="2.3" transform="translate(-5.77 43.35) rotate(-3.18)"/><polygon class="cls-8" points="415.29 31.05 475.16 47.17 531.6 31.05 473.44 17.82 415.29 31.05"/><polyline class="cls-6" points="443.48 32.5 471.63 26.3 506.44 32.5 473.44 41.43 442.27 32.5"/><polygon class="cls-8" points="210.21 16.5 275.83 34.18 337.69 16.5 273.95 2 210.21 16.5"/><polyline class="cls-6" points="241.1 18.09 271.96 11.29 310.11 18.09 273.95 27.88 239.78 18.09"/><polygon class="cls-8" points="596.1 16.47 657.05 32.89 714.5 16.47 655.3 3 596.1 16.47"/><polyline class="cls-6" points="624.8 17.95 653.46 11.63 688.89 17.95 655.3 27.04 623.57 17.95"/></g><g id="baloon"><polygon class="cls-6" points="277.08 133.19 256.85 122 271.75 83.05 209.94 28.56 108.3 18.18 43.78 74.1 66.54 153.65 157.76 172.93 241.97 160.87 253.06 131.88 277.08 133.19"/><path class="cls-9" d="M136,62V55.83a24.5,24.5,0,0,1,16.25-8.4A23,23,0,0,1,170.5,54.5v4.66L148.67,65Z"/><polygon class="cls-3" points="134.83 61.25 115.33 61 140.83 77 153.5 71 168.83 75 191.67 63.83 164 60 143.33 63.33 134.83 61.25"/><polygon class="cls-10" points="213.34 102.63 233.51 105.12 238.18 118.86 188.18 130.04 182.51 113.56 213.34 102.63"/><polygon class="cls-11" points="179.11 98.36 165.96 94.74 158.49 107.7 188.18 130.04 192.71 113.56 179.11 98.36"/><polygon class="cls-12" points="165.96 94.74 199.74 91.19 233.51 105.12 192.71 113.56 165.96 94.74"/><polygon class="cls-10" points="214.84 100.07 207.16 96.77 202.78 97.38 209.84 100.89 214.84 100.07"/><polygon class="cls-10" points="189.65 94.6 194.69 97.62 199.38 96.96 193.66 94.09 189.65 94.6"/><polygon class="cls-10" points="187.75 98.6 192.84 97.88 187.75 94.84 182.84 95.46 187.75 98.6"/><polygon class="cls-10" points="195.9 98.34 202.21 102.13 207.86 101.21 200.78 97.66 195.9 98.34"/><polygon class="cls-10" points="186.56 99.65 180.64 100.48 186.65 104.66 192.95 103.63 186.56 99.65"/><polygon class="cls-10" points="200.45 102.41 194.06 98.6 188.9 99.33 195.1 103.28 200.45 102.41"/><polygon class="cls-10" points="201.36 96.68 205.57 96.08 199.28 93.38 195.64 93.84 201.36 96.68"/><polygon class="cls-10" points="194.32 104.48 187.94 105.56 194.22 109.92 201.06 108.68 194.32 104.48"/><polygon class="cls-10" points="185.39 98.93 180.34 95.78 174.88 96.47 179.59 99.75 185.39 98.93"/><polygon class="cls-10" points="216.42 100.75 211.31 101.62 218.98 105.43 224.81 104.37 216.42 100.75"/><polygon class="cls-10" points="208.65 107.3 201.8 103.22 196.43 104.13 203.01 108.33 208.65 107.3"/><polygon class="cls-10" points="209.34 101.95 203.55 102.93 210.34 107 217 105.79 209.34 101.95"/><polygon class="cls-10" points="123.67 102.31 143.85 104.8 148.52 118.55 98.52 129.72 92.85 113.24 123.67 102.31"/><polygon class="cls-11" points="89.45 98.05 76.3 94.42 68.82 107.39 98.52 129.72 103.05 113.24 89.45 98.05"/><polygon class="cls-12" points="76.3 94.42 110.08 90.87 143.85 104.8 103.05 113.24 76.3 94.42"/><polygon class="cls-11" points="135.15 104.05 104.56 109.61 85.22 96.16 109.62 93.06 135.15 104.05"/><polygon class="cls-13" points="103.05 100.35 107.61 99.65 113.27 101.95 106.81 103.28 103.05 100.35"/><polygon class="cls-11" points="108.85 95.86 110.55 95.03 109.62 93.06 85.22 96.16 89.06 98.83 108.85 95.86"/><polygon class="cls-13" points="129.36 105.23 108.85 95.86 109.62 93.06 135.15 104.05 129.36 105.23"/><polygon class="cls-12" points="107.61 99.65 103.05 100.35 89.06 98.83 108.85 95.86 107.61 99.65"/><polygon class="cls-10" points="113.27 101.95 106.81 103.28 104.56 109.61 129.36 105.23 113.27 101.95"/><polygon class="cls-9" points="121.55 133.33 132.2 144.17 141.94 136.23 145.5 140.7 136.03 148.8 145.5 158.95 140.38 162.83 131.13 152.92 123 159.08 119.15 155.1 127.53 147.82 117.45 137.53 121.55 133.33"/><polygon class="cls-9" points="200.38 144.11 210.8 158.41 234.85 132.77 211.83 148.58 200.38 144.11"/><polygon class="cls-2" points="115.33 61 136 55.83 149.33 59.83 170.5 54.5 191.67 63.83 168.83 62.66 143.33 68 115.33 61"/><polygon class="cls-9" points="151.83 44.83 151.83 33.66 155.33 33.66 153.25 44.83 151.83 44.83"/><polygon class="cls-9" points="146.83 44.83 141.92 35.83 139.5 37.58 145.83 45.5 146.83 44.83"/><polygon class="cls-9" points="138.9 49.49 130.75 43.83 129.25 46.16 138.25 50.58 138.9 49.49"/><polygon class="cls-9" points="161.08 45.5 168.33 36.25 171.08 39.75 162.08 46.16 161.08 45.5"/><polygon class="cls-9" points="166.08 48.83 176.83 46.16 178.75 49.33 167.67 50 166.08 48.83"/></g><g id="table"><polygon class="cls-5" points="155.33 204.01 123.12 178.89 108.3 188.33 113.69 251.52 170.66 248.22 155.33 204.01"/><polygon class="cls-4" points="137.94 250.01 123.12 178.89 181.38 180.88 203.36 249.1 137.94 250.01"/><polygon class="cls-7" points="36.03 303 152 340.49 371.53 313.51 236.46 283.38 36.03 303"/><polygon class="cls-1" points="266.25 294.64 262.03 299.12 251.66 296.62 241.97 279.9 260.63 282.13 266.25 294.64"/><polygon class="cls-14" points="277.75 276.66 272.64 298.63 262.03 299.12 254.11 276.66 277.75 276.66"/><polygon class="cls-14" points="325.8 295.64 316.6 314.68 306.38 310.33 291.55 282.13 331.36 283.38 325.8 295.64"/><polygon class="cls-1" points="297.62 274.59 312.79 286.78 316.6 314.68 327.8 313.51 333.76 291.65 337.3 275.57 297.62 274.59"/><polygon class="cls-14" points="89.16 297.5 96.54 311.37 108.56 308.29 113.69 279.9 89.16 297.5"/><polygon class="cls-15" points="78.71 270.49 84.27 307.63 96.54 311.37 99.61 294.9 94.43 266.24 78.71 270.49"/><polygon class="cls-1" points="142.04 300.33 148.68 328.42 167.34 325.08 170.66 297.5 166.54 269.82 133.35 281.08 142.04 300.33"/><polygon class="cls-15" points="127.2 286.78 132.84 296.62 137.94 325.08 148.68 328.42 148.68 278.7 127.2 286.78"/><polygon class="cls-16" points="105.74 263.19 78.71 270.49 99.61 294.9 132.84 296.62 148.68 278.7 105.74 263.19"/><polygon class="cls-15" points="181.38 266.24 148.68 278.7 170.66 297.5 312.79 286.78 317.7 281.08 327.8 255.81 181.38 266.24"/><polygon class="cls-15" points="173.73 266.24 148.68 278.7 73.03 269.82 73.03 245.41 181.38 254.77 173.73 266.24"/><polygon class="cls-1" points="217.69 245.41 148.68 263.19 148.68 278.7 321.99 266.24 324.24 248.22 217.69 245.41"/><polygon class="cls-8" points="148.68 263.19 316.6 250.9 330.57 241.07 246.31 235.02 73.03 245.41 148.68 263.19"/><polygon class="cls-7" points="228.51 251.52 306.32 247.75 257.25 240.58 185.25 242.85 228.51 251.52"/><polygon class="cls-11" points="199.77 243.41 227.78 247.75 233.25 245.16 221.5 239.08 199.77 237.94 199.77 243.41"/><polygon class="cls-10" points="253.92 237.35 253.92 239.08 236.01 235.64 199.77 237.94 222.55 241.97 227.15 239.53 230.73 243.41 257.25 240.58 253.92 237.35"/><polygon class="cls-11" points="232.07 213.43 270.5 205.43 291.87 204.24 280.75 245.41 227.78 247.75 227.78 231.12 232.07 213.43"/><polygon class="cls-12" points="227.47 210.38 236.46 212.51 232.07 213.43 228.33 242.85 222.55 241.97 227.47 210.38"/><polygon class="cls-10" points="227.47 210.38 232.07 213.43 291.87 204.24 284.1 200.68 227.47 210.38"/><polygon class="cls-13" points="228.33 242.85 282.29 239.53 280.75 245.41 227.78 247.75 228.33 242.85"/><polygon class="cls-12" points="261.88 219.4 255.29 225.79 259.54 228.06 266.71 221.81 261.88 219.4"/><polygon class="cls-12" points="254.63 226.73 258.71 228.98 254.13 230.4 254.63 226.73"/></g><g id="main_character" data-name="main character"><polygon class="cls-5" points="382.31 187.86 388.17 177.81 411.82 174.91 391.41 204.01 379.43 195.26 382.31 187.86"/><polygon class="cls-17" points="395.13 163.27 396 224.9 436.81 222.84 436.81 162.43 395.13 163.27"/><polygon class="cls-2" points="395.13 163.27 406.22 167.89 412.45 170.27 423.56 162.7 395.13 163.27"/><polygon class="cls-18" points="411.08 183.05 412.45 192.76 409.04 199.28 400.88 190.72 406.22 184.41 411.08 183.05"/><polygon class="cls-18" points="414.66 178.89 401.88 183.05 400.88 190.72 415.34 183.05 414.66 178.89"/><polygon class="cls-18" points="390.12 193.61 396 183.05 401.88 183.05 400.88 188.67 390.12 193.61"/><polygon class="cls-19" points="409.04 199.28 401.88 183.05 390.12 193.61 395.13 202.48 409.04 199.28"/><polygon class="cls-7" points="291.55 332.04 369.6 321.88 450.74 333.81 367.09 350 291.55 332.04"/><polygon class="cls-18" points="351.03 297.5 346 316.18 339.41 322.67 336.17 318.54 334.23 291.44 336.48 274.59 351.03 297.5"/><polygon class="cls-20" points="338 286.78 352.54 291.65 351.03 297.5 334.23 291.44 338 286.78"/><polygon class="cls-18" points="382.42 263.19 383.3 291.96 382.26 311.53 375.88 320.63 371.53 313.51 367.09 297.5 382.42 263.19"/><polygon class="cls-20" points="372.06 283.38 383.3 291.96 367.09 297.5 365.46 291.75 372.06 283.38"/><polygon class="cls-21" points="317.7 281.08 356 272.4 397.74 282.13 387.38 246.09 365.52 220.92 330.68 253.09 327.8 255.81 317.7 281.08"/><polygon class="cls-5" points="352.54 291.65 331.1 252.78 335.8 241.22 365.83 215.85 385.66 240.64 383.3 291.96 352.54 291.65"/><polygon class="cls-22" points="334.23 291.44 331.1 252.78 335.8 241.22 365.83 215.85 372.21 236.72 352.54 291.65 334.23 291.44"/><polygon class="cls-23" points="259.9 145.59 282.29 175.93 288.56 176.14 294.27 157.25 290.97 149.83 259.9 145.59"/><polygon class="cls-24" points="378.86 123.78 307.45 183.57 282.29 175.93 310.38 91.5 378.86 123.78"/><polygon class="cls-23" points="378.86 123.78 370.75 150.82 307.45 183.57 340.2 105.57 378.86 123.78"/><polygon class="cls-23" points="387.7 70.36 406.22 95.06 390.99 133.03 375.98 68.9 387.7 70.36"/><polygon class="cls-23" points="388.38 66.96 406.22 95.06 375.98 68.9 388.38 66.96"/><polygon class="cls-18" points="345.48 179.44 312.79 103.01 331.46 89.72 350.87 112.84 371.74 161.55 364.63 194.71 345.48 179.44"/><polygon class="cls-19" points="384.61 76.33 395.75 159.09 350.3 167.19 330.63 89.98 384.61 76.33"/><polygon class="cls-17" points="369.07 151.26 360.65 150.07 368.29 147.15 373.69 144.8 380.11 147.46 382.31 148.59 372.16 152.38 369.07 151.26"/><polygon class="cls-20" points="371.48 163.27 364.63 194.87 345.32 167.72 371.48 163.27"/><polygon class="cls-23" points="325.97 98.82 338.58 121.27 335.02 124.4 337.53 154.64 339.99 166.72 304 110.54 325.97 98.82"/><polygon class="cls-19" points="335.02 124.4 324.24 127.59 330 141.98 339.52 138.06 335.02 124.4"/><polygon class="cls-20" points="333.08 128.33 327.85 129.84 334.13 133.71 333.08 128.33"/><polygon class="cls-22" points="335.75 136.12 338.42 144.23 334.13 145.54 332.04 137.32 335.75 136.12"/><polygon class="cls-25" points="371.85 111.95 377.08 134.24 369.07 135.44 365.78 112.74 371.85 111.95"/><polygon class="cls-20" points="372.63 139.1 377.08 134.24 369.07 135.44 372.63 139.1"/><polygon class="cls-18" points="349.92 113.67 365.78 112.74 369.07 135.44 349.92 113.67"/><polygon class="cls-18" points="375.93 129.22 384.71 106.98 371.85 111.95 375.93 129.22"/><polygon class="cls-23" points="350.16 108.03 361.8 113.27 345.32 113.83 350.16 108.03"/><polygon class="cls-22" points="382.31 148.59 373.08 142.22 360.65 150.07 373.08 146.35 382.31 148.59"/><polygon class="cls-4" points="372.1 152.69 382.31 148.59 373.08 148.85 360.65 150.07 372.1 152.69"/><polygon class="cls-23" points="387.02 106.09 371.85 111.95 382.94 100.23 387.02 106.09"/><polygon class="cls-24" points="395.13 75.33 338.58 121.27 295.84 108.03 310.38 91.5 381.47 53.68 395.13 75.33"/><polygon class="cls-23" points="295.84 108.03 306.67 88.41 381.47 53.68 295.84 108.03"/><polygon class="cls-26" points="406.85 75.54 338.58 121.27 381.47 53.68 406.85 75.54"/><polygon class="cls-5" points="326.96 184.41 332.61 176.98 335.38 175.93 349.67 184.09 364.94 191.41 370.07 200.67 365.57 224.9 355.06 237.35 331.31 254.77 336.07 225.26 326.96 184.41"/><polygon class="cls-4" points="355.06 237.35 317.7 281.08 316.6 250.9 336.07 225.26 355.06 237.35"/><polygon class="cls-4" points="385.4 226.36 391.41 250.01 372.21 236.72 378.49 247.91 365.57 224.9 364.94 191.41 377.6 182.05 374.67 176.04 385.97 178.86 387.96 182.16 385.4 226.36"/><polygon class="cls-9" points="385.4 226.36 400.88 258.8 397.74 282.13 378.49 247.91 372.21 236.72 385.4 226.36"/><polygon class="cls-22" points="370.49 167.14 374.67 176.04 377.24 179.75 377.6 182.05 372.27 190.06 364.94 191.41 370.49 167.14"/><polygon class="cls-22" points="335.38 175.93 339.83 166.36 364.94 191.41 346.16 191.37 335.38 175.93"/><polygon class="cls-4" points="335.38 175.93 324.24 179.28 326.96 184.41 339 181.06 335.38 175.93"/><polygon class="cls-9" points="374.67 176.04 388.17 177.81 387.96 182.16 377.6 182.05 376.61 179.96 374.67 176.04"/><polygon class="cls-9" points="372.21 236.72 355.06 237.35 365.57 224.9 372.21 236.72"/><path class="cls-27" d="M381.36,112.65a3.35,3.35,0,1,0,0,6.69,3.35,3.35,0,1,0,0-6.69Z"/><path class="cls-27" d="M356.1,117a3.35,3.35,0,1,0,0,6.7,3.35,3.35,0,0,0,0-6.7Z"/><polygon class="cls-22" points="374.73 334.28 371.64 334.23 369.6 321.88 371.53 313.51 378.86 318.43 377.29 323.35 374.73 334.28"/><polygon class="cls-22" points="336.17 318.54 331.36 329.1 334.92 338.31 336.17 318.54"/><polygon class="cls-19" points="346 316.18 349.67 323.4 344.85 329.42 335.12 331.3 336.17 318.54 346 316.18"/><polygon class="cls-5" points="335.12 331.3 349.67 323.4 351.45 326.59 348.36 331.3 334.92 334.6 335.12 331.3"/><polygon class="cls-5" points="334.92 334.6 351.45 326.59 356.57 334.6 348.46 336.11 334.92 334.6"/><polygon class="cls-19" points="382.26 311.37 390.63 320.42 386.29 325.13 379.69 327.48 371.53 313.51 382.26 311.37"/><polygon class="cls-5" points="379.69 327.48 390.63 320.42 393.19 322.93 389.27 327.32 381.42 329.73 379.69 327.48"/><polygon class="cls-5" points="381.42 330.46 393.19 322.93 401.09 330.46 390.68 332.04 381.42 330.46"/><polygon class="cls-22" points="334.92 334.6 334.92 338.31 356.57 338.31 356.57 334.6 334.92 334.6"/><polygon class="cls-22" points="377.29 323.35 375.67 324.87 376.35 326.44 384.04 334.44 401.09 334.44 401.09 330.46 386.91 330.46 377.29 323.35"/><polygon class="cls-9" points="365.13 201.28 324.24 179.28 333.76 214.93 365.46 219.28 373.08 210.82 365.13 201.28"/><polygon class="cls-5" points="386.44 192.31 365.13 201.28 365.46 219.28 386.44 208.31 391.41 200.94 386.44 192.31"/><polygon class="cls-22" points="391.41 185.78 381.42 194.42 386.44 208.31 401.88 205.79 391.41 185.78"/><polygon class="cls-18" points="420.11 165.67 426.25 162.65 412.45 158.51 403.25 163.11 420.11 165.67"/><polygon class="cls-19" points="403.25 163.11 412.45 170.27 424.71 169.42 426.25 162.65 403.25 163.11"/><polygon class="cls-8" points="403.25 207.06 431.02 205.43 431.02 203.8 403.25 205.09 403.25 207.06"/><polygon class="cls-8" points="403.25 216.08 431.02 214.45 431.02 212.82 403.25 214.11 403.25 216.08"/><polygon class="cls-8" points="401.88 175.47 431.36 174.45 431.36 176.41 401.88 177.68 401.88 175.47"/><polygon class="cls-8" points="411.38 185.15 431.02 184.8 431.02 186.8 411.68 187.31 411.38 185.15"/><polygon class="cls-8" points="411.35 194.87 431.02 194.36 431.02 196.72 410.21 197.05 411.35 194.87"/></g><g id="_2nd_character" data-name="2nd character"><polygon class="cls-7" points="450.74 328.42 516.33 319.9 581.93 331.3 519.11 340.49 450.74 328.42"/><polygon class="cls-13" points="500.58 318.54 483.58 322.93 483.58 327.48 514.98 327.48 523.48 321.59 500.58 318.54"/><polygon class="cls-12" points="508.65 307.63 503.64 311.37 483.58 322.93 524.57 323.48 524.57 307.63 508.65 307.63"/><polygon class="cls-13" points="523.03 321.59 514.98 327.48 514.98 331.35 545.01 331.35 545.94 327.48 523.03 321.59"/><polygon class="cls-10" points="528.82 306.33 519.11 313.51 514.98 327.48 545.94 327.48 543.55 318.54 528.82 306.33"/><polygon class="cls-13" points="498.74 279.72 494.59 285.13 503.64 311.37 519.11 313.51 526.86 291.65 498.74 279.72"/><polygon class="cls-11" points="531.77 282.13 515.73 290.44 519.11 313.51 543.55 318.54 548.61 297.5 531.77 282.13"/><polygon class="cls-11" points="527.85 276.23 515.73 290.44 494.59 285.13 481.39 246.33 524.35 253.17 527.85 276.23"/><polygon class="cls-12" points="512.64 256.82 511.27 266.54 515.73 290.44 548.61 297.5 559.8 248.22 512.64 256.82"/><polygon class="cls-13" points="473.45 202.48 467.99 211.21 481.39 237.35 498.74 211 473.45 202.48"/><polygon class="cls-12" points="486.56 171.34 481.39 169.25 467.99 211.21 491.51 213.02 486.56 171.34"/><polygon class="cls-13" points="569.2 211 581.93 215.85 559.8 248.22 537.68 221.73 569.2 211"/><polygon class="cls-11" points="551.14 179.1 565.29 169.25 581.93 215.85 554.72 217.81 551.14 179.1"/><polygon class="cls-13" points="493.55 233.32 481.39 246.33 511.27 266.54 559.8 248.22 493.55 233.32"/><polygon class="cls-11" points="522.18 202.48 512.64 245.41 481.39 237.35 481.39 169.25 497.49 162.09 523.03 173.85 522.18 202.48"/><polyline class="cls-12" points="529.85 160.56 541.08 162.09 565.29 169.25 560.31 239.7 512.64 245.41 511.7 178.89 528.82 160.56"/><polygon class="cls-12" points="520.47 177.68 512.64 178.45 489.12 189.46 497.81 162.09 520.47 177.68"/><polygon class="cls-10" points="534.27 192.76 512.64 178.45 528.31 154.94 541.08 162.09 534.27 192.76"/><polygon class="cls-14" points="527.63 86.78 527.29 81.01 521.33 77.24 491.51 77.92 478.22 89.72 504.74 102.8 527.63 86.78"/><polygon class="cls-16" points="508.55 98.37 507.18 87.47 527.29 81.01 548.08 93.94 519.11 107.38 508.55 98.37"/><polygon class="cls-28" points="493.07 157.32 512.64 178.45 535.13 158.51 493.07 157.32"/><polygon class="cls-29" points="541.52 132.28 543.82 137.53 541.08 162.09 512.64 178.45 527.46 160.56 519.11 160.56 514.85 100.97 519.11 96.66 545.01 107.38 541.52 132.28"/><polygon class="cls-28" points="537.51 124.86 535.13 127.37 543.82 137.53 546.54 124.86 537.51 124.86"/><polygon class="cls-24" points="546.54 110.81 551.14 120.69 543.82 137.53 545.01 128.33 541.08 115.58 546.54 110.81"/><polygon class="cls-30" points="546.54 113.83 545.01 128.33 535.13 127.37 535.13 123.51 532.23 109.08 546.54 113.83"/><polygon class="cls-24" points="535.13 107.32 529.85 109.86 529.85 123.51 535.13 123.51 536.49 110.81 535.13 107.32"/><polygon class="cls-30" points="467.99 99.39 470.21 160.56 519.11 160.56 519.11 96.66 507.18 87.47 489.12 92.74 478.22 89.72 467.99 99.39"/><polygon class="cls-29" points="482.14 114.55 473.45 120.35 495 133.19 509.57 117.79 503.26 113.83 495 116 490.27 123.51 485.54 117 482.14 114.55"/><polygon class="cls-28" points="490.27 128.33 486.56 133.71 490.27 137.53 495 133.19 490.27 128.33"/><polygon class="cls-31" points="485.54 117 486.56 133.71 495 133.19 495 116 485.54 117"/><polygon class="cls-24" points="483.67 110.81 473.45 117 473.45 120.35 485.54 117 483.67 110.81"/><polygon class="cls-24" points="509.57 115.35 498.49 109.86 495 116 509.57 117.79 509.57 115.35"/><polygon class="cls-28" points="481.39 146.66 492.06 144.19 504.74 146.15 504.74 148.1 492.56 146.66 481.39 148.56 481.39 146.66"/><path class="cls-27" d="M483.37,124.37a3,3,0,1,1-3-3A3,3,0,0,1,483.37,124.37Z"/><path class="cls-27" d="M504.74,123.7a3,3,0,1,1-3-3A3,3,0,0,1,504.74,123.7Z"/><polyline class="cls-14" points="549.79 108.89 551.14 120.69 529.85 109.86 519.11 96.66 548.08 93.94 549.79 108.89"/><polygon class="cls-28" points="543.65 118.7 539.39 117.79 539.39 123.51 543.65 118.7"/><polygon class="cls-10" points="481.39 237.35 560.31 239.7 559.8 248.22 481.39 246.33 481.39 237.35"/></g><g id="_3rd_character" data-name="3rd character"><polygon class="cls-7" points="580.67 325.08 646.02 318.24 709.33 332.04 647.55 340.49 580.67 325.08"/><polygon class="cls-13" points="626.17 316.9 616.62 321.59 616.62 325.67 638.6 325.67 645.42 321.59 635.88 316.9 626.17 316.9"/><polygon class="cls-11" points="635.88 302.15 628.13 309.82 616.62 321.59 645.42 321.59 647.55 306.33 635.88 302.15"/><polygon class="cls-13" points="647.55 318.54 638.6 325.67 638.6 329.76 662.46 329.76 662.46 325.67 647.55 318.54"/><polygon class="cls-10" points="653.11 305.22 642.44 311.1 638.6 325.67 662.46 325.67 658.74 311.1 653.11 305.22"/><polygon class="cls-13" points="624.42 278.7 618.41 286.45 628.13 309.82 642.44 311.1 649.07 284.77 624.42 278.7"/><polygon class="cls-11" points="656.24 276.34 640.9 291.42 642.44 311.1 658.74 311.1 664.2 294.9 656.24 276.34"/><polygon class="cls-12" points="649.07 282.13 640.9 291.42 618.41 286.45 605.89 259.98 643.78 248.22 649.07 282.13"/><polygon class="cls-10" points="652.15 241.07 638.6 257.68 640.9 291.42 664.2 294.9 677.2 256.4 652.15 241.07"/><polygon class="cls-13" points="597.97 207.06 587.26 215.85 607.17 251.29 616.62 204.01 597.97 207.06"/><polygon class="cls-10" points="620.96 184.8 607.42 171.55 587.26 215.85 618.03 211 620.96 184.8"/><polygon class="cls-13" points="686.65 204.01 703.33 218.25 675.92 256.4 660.33 215.85 686.65 204.01"/><polygon class="cls-11" points="671.58 180.88 683.59 170.27 703.33 218.25 677.54 215.85 671.58 180.88"/><polyline class="cls-11" points="630.68 197.05 605.89 212.91 599.5 260.75 639.72 273.97 656 257.75 647.55 221.13 630.68 197.05"/><polyline class="cls-12" points="636.82 162.09 607.42 171.55 605.89 212.91 638.25 222.84 647.55 221.13 636.05 163.5"/><polygon class="cls-12" points="643.33 184.8 638.25 222.84 639.72 273.97 686.25 259.25 682.18 216.34 663.14 202.48 655.3 189.46 643.33 184.8"/><polygon class="cls-10" points="646.27 165.73 638.1 180.88 638.25 222.84 682.18 216.34 683.59 170.27 666.98 163.5 646.27 165.73"/><polygon class="cls-14" points="608.7 100.24 595.41 100.24 607.03 125.1 608.7 100.24"/><polygon class="cls-24" points="621.31 89.04 595.41 100.24 605.89 109.08 655.3 94.02 637.92 86.18 621.31 89.04"/><polygon class="cls-16" points="655.3 92.23 649.85 84.39 622.25 77.24 595.41 100.24 641.54 90.78 655.3 92.23"/><polygon class="cls-14" points="668.64 115.58 688.1 116.09 668.02 84.39 649.85 84.39 641.54 90.78 668.64 115.58"/><polygon class="cls-24" points="675.84 139.6 679.5 142.03 684.53 153.4 666.98 163.5 663.14 144.97 675.84 139.6"/><polygon class="cls-14" points="672.43 117.19 688.1 116.09 679.5 142.03 670.01 147.74 666.98 128.33 672.43 117.19"/><polygon class="cls-24" points="688.1 116.09 674.3 126.57 653.26 129.63 641.54 90.78 688.1 116.09"/><polygon class="cls-32" points="663.78 150.59 670.01 147.74 671.58 139.6 659.05 130.15 663.78 150.59"/><polygon class="cls-33" points="651.56 117.79 658.74 116.6 663.91 124.02 666.98 129 661.74 137.56 670.01 147.74 666.98 163.5 638.1 180.88 636.05 155.7 637.33 117.24 651.56 117.79"/><polygon class="cls-32" points="624.42 156.21 638.1 180.88 663.14 159.41 657.26 159.41 643.78 150.59 624.42 156.21"/><polygon class="cls-34" points="641.54 90.78 605.89 109.08 609.47 159.41 657.26 159.41 658.74 116.6 641.54 90.78"/><polygon class="cls-33" points="611.64 120.69 634.77 135.9 650.62 119.8 643.33 115.58 636.05 117.12 634.77 119.28 629.79 123.51 626.59 119.28 625.19 117.54 618.92 114.64 611.64 120.69"/><polygon class="cls-12" points="630.04 143.69 620.2 147.4 630.68 148.42 643.85 147.4 630.04 143.69"/><polygon class="cls-32" points="631.32 132.06 626.59 135.9 631.32 138.58 634.77 135.9 631.32 132.06"/><rect class="cls-35" x="626.59" y="119.28" width="8.18" height="16.61"/><polygon class="cls-24" points="618.03 112.94 611.64 120.69 625.19 117.54 618.03 112.94"/><polygon class="cls-24" points="636.05 117.12 643.33 112.52 650.62 119.8 636.05 117.12"/><path class="cls-27" d="M621,123.63a2.94,2.94,0,1,1-2.93-2.94A2.94,2.94,0,0,1,621,123.63Z"/><path class="cls-27" d="M646.27,122.74a2.94,2.94,0,1,1-2.94-2.94A2.94,2.94,0,0,1,646.27,122.74Z"/><polygon class="cls-11" points="620.2 147.4 630.68 142.03 643.85 147.4 630.68 145.74 620.2 147.4"/><polygon class="cls-34" points="661.74 137.56 671.58 139.6 674.3 126.57 663.91 124.02 661.74 137.56"/><polygon class="cls-32" points="666.98 128.33 670.3 129.38 666.98 134.23 666.98 128.33"/></g></svg>