<svg id="Layer_1" data-name="Layer 1" xmlns="http://www.w3.org/2000/svg" viewBox="0 0 900 350"><defs><style>.cls-1{fill:#ebebea;}.cls-2{fill:#dcdcdb;}.cls-3{fill:#c3c3c3;}.cls-4{fill:#a2a2a2;}.cls-5{fill:#fefefe;}.cls-6{fill:#cdcdcc;}.cls-7{fill:#fff;}.cls-8{fill:#9ca0a1;}.cls-25,.cls-9{fill-opacity:0.1;}.cls-10{fill:#6f7173;}.cls-11{fill:#474747;}.cls-12{fill:#debca4;}.cls-13{fill:#c2977b;}.cls-14{fill:#737373;}.cls-15{fill:#e7c9b5;}.cls-16{fill:#543042;}.cls-17{fill:#95637c;}.cls-18{fill:#8a6651;}.cls-19{fill:#4f5253;}.cls-20,.cls-25{fill:#2b2b2b;}.cls-21{fill:#8e8e8e;}.cls-22{fill:#734d60;}.cls-23{fill:#b2879c;}.cls-24{fill:#848585;}.cls-26{fill:#594165;}.cls-27{fill:#785d87;}.cls-28{fill:#8f759f;}.cls-29{fill:#a587b9;}.cls-30{fill:#d0a0b7;}.cls-31{fill:#916d5a;}.cls-32{fill:#755445;}.cls-33{fill:#51362a;}.cls-34{fill:#98796a;}.cls-35{fill:#fce3d4;}.cls-36{fill:#f4c9b2;}.cls-37{fill:#c1907d;}.cls-38{fill:#b08c79;}.cls-39{fill:#906a59;}.cls-40{fill:#66483a;}</style></defs><title>analysts_Debater_ENTP_conclusion</title><polygon class="cls-1" points="3.82 162.76 561.91 140.38 565.73 0 1.01 12.49 3.82 162.76"/><polygon class="cls-2" points="565.22 21.76 565.73 0 1.01 12.49 1.5 39.07 565.22 21.76"/><polygon class="cls-3" points="894.54 245.09 561.91 140.38 565.73 0 899.27 31.59 894.54 245.09"/><polygon class="cls-4" points="894.54 245.09 561.91 140.38 562.47 120.24 562.47 120.24 895.41 206.31 894.54 245.09"/><polygon class="cls-4" points="565.22 21.76 565.73 0 899.27 31.59 898.64 59.58 565.25 21.76 565.22 21.76"/><polygon class="cls-2" points="3.82 162.76 561.91 140.38 562.47 120.24 3.39 140.41 3.82 162.76"/><polygon class="cls-3" points="243.78 53.41 336.03 74.82 341.44 108.73 335.69 112.05 237.04 113.35 243.78 53.41"/><polygon class="cls-5" points="243.78 53.41 246.65 108.22 341.44 108.73 348.72 52.3 243.78 53.41"/><polygon class="cls-6" points="254.18 58.65 256.7 100.8 322.94 100.29 322.77 98.62 317.95 98.65 261.49 92.5 257.04 74.6 256.16 57.97 254.18 58.65"/><polygon class="cls-3" points="257.01 74.6 272.48 70.94 275.26 86.35 272.82 99.13 258.32 99.3 257.01 74.6"/><polygon class="cls-1" points="305.52 75.67 317.19 64.03 317.95 98.65 305.8 98.79 300.22 90.49 305.52 75.67"/><polygon class="cls-3" points="291.35 77.2 305.52 75.67 305.8 98.79 291.61 98.93 289.08 91.68 291.35 77.2"/><polygon class="cls-1" points="286.85 71.45 291.35 77.2 291.61 98.93 287.19 98.99 282.8 92.33 286.85 71.45"/><polygon class="cls-3" points="277.89 75.16 286.85 71.45 287.1 90.91 287.19 98.99 278.18 99.07 274.04 92.76 277.89 75.16"/><polygon class="cls-1" points="272.48 70.94 277.89 75.16 278.04 88.28 278.18 99.07 272.82 99.13 272.48 70.94"/><polygon class="cls-3" points="126.07 52.75 118.56 113.92 192.19 112.22 192.36 105.08 126.07 52.75"/><polygon class="cls-2" points="126.07 52.75 195.59 52.07 194.91 109.67 127.77 111.03 126.07 52.75"/><polygon class="cls-5" points="131.71 57.17 132.39 75.93 188.43 74.06 188.77 55.98 131.71 57.17"/><path class="cls-1" d="M152.93,59.33a2.3,2.3,0,1,1-2.3,2.29A2.28,2.28,0,0,1,152.93,59.33Z"/><polygon class="cls-1" points="131.94 63.57 132.39 75.93 188.43 74.06 188.65 63.09 184.94 63.52 166.04 61.31 153.27 71.56 140.32 60.09 131.94 63.57"/><path class="cls-6" d="M132.11,68l.28,8,56-1.87.11-5.9-5.13-.22s-7.17-2.89-8.52-3.4S161.43,69,161.43,69L146.1,65.05Z"/><polygon class="cls-5" points="132.56 80.01 139.53 79.84 139.02 106.92 131.99 107.32 132.56 80.01"/><path class="cls-5" d="M144.31,78.82l.06,5.47,7.06-.18-.14-5.44-7,.15Zm.09,7.53.09,6,7.16-.17-.14-6-7.08.17Zm.11,8.11.06,5.63,7.25-.17-.14-5.61-7.17.17Zm.09,7.67.06,4.48,7.33-.2-.11-4.45Zm9.43,4.2,8.08-.23-.11-4.39-8.08.2Zm10.12-.29,5.61-.17-.12-4.36-5.61.14Zm7.68-.23,6-.16-.11-4.34-6,.14Zm8.1-.22,7.14-.2.11-4.31-7.37.18ZM187.24,99l.14-5.64-7.74.2.14,5.61,7.46-.2Zm.19-7.68.15-6-8.13.2.14,6Zm.2-8.1.14-5.27-8.49.17.14,5.29,8.24-.19Zm-10.42-5.07-6,.11.14,5.35,6-.14Zm-8.1.17-5.61.11.14,5.38,5.61-.14Zm-7.68.14-8.08.17.14,5.44,8.08-.2-.14-5.38Zm16.29,20.76-.14-5.61-6,.14.14,5.62Zm-.2-7.68-.14-6-6,.14.14,6Zm-8.25-5.83-5.6.14.14,6,5.61-.15Zm-7.67.2-8.08.2.15,6,8.07-.2Zm-7.74,13.91,8.08-.2L161.8,94l-8.08.2ZM164,99.58l5.61-.14-.14-5.61-5.61.14Z"/><polygon class="cls-6" points="157.69 48.56 157.01 54.4 163.55 54.23 162.84 48.13 157.69 48.56"/><polygon class="cls-7" points="716.22 80.2 723.02 98.31 842.07 92.22 842.89 67.83 724.18 53.29 716.22 80.2"/><path class="cls-1" d="M825.24,136.92l16-18.55.88-26.15C822.94,86.75,802,80.69,802,80.69l-68.75,8.72,14.9,28.5Z"/><polygon class="cls-6" points="711.66 115.34 711.32 127.97 832.94 155.68 840.11 151.71 841.21 118.37 824.02 120.1 810.02 114.83 788.75 115.76 770.13 103.89 724.69 113.89 711.66 115.34"/><polygon class="cls-8" points="713.25 51.96 711.32 127.97 713.05 128.43 722.37 124.26 724.18 53.29 713.25 51.96"/><polygon class="cls-8" points="711.32 127.97 839.77 162.25 840.11 151.71 722.37 124.26 711.32 127.97"/><polygon class="cls-9" points="326.11 236.2 377.45 282.4 466.57 277.98 495.07 232.43 481.02 211.24 444.25 207.04 359 214.27 326.11 236.2"/><polygon class="cls-10" points="419.06 236.65 434.36 250.19 442.27 222.57 422.24 224.98 419.06 236.65"/><polygon class="cls-10" points="345.21 233.59 347.64 200.04 349.8 196.67 352.8 199.82 386.26 208.06 396.65 223.34 396.83 257.08 397 262.91 380.2 252.74 379.63 237.16 372.52 233 365.86 234.21 359.23 241.81 345.21 233.59"/><polygon class="cls-4" points="397 262.91 409.74 258.58 411.27 237.44 435.72 227.87 434.36 250.19 449.37 245.09 444.25 207.04 418.73 217.67 395.75 225.04 397 262.91"/><polygon class="cls-11" points="357.3 111.03 355.04 119.25 349.88 112.45 341.58 108.82 342.94 95.33 328.6 69.81 352.06 37 373.23 65.78 367.36 66.55 377.87 92.44 367.5 103.15 363.76 101.11 357.3 111.03"/><polygon class="cls-12" points="422.41 59.27 426.97 66.75 421.07 84.43 419.23 119.56 391.7 120.55 389.46 130.97 370.73 124.17 364.27 108 369.03 106.04 369.31 88.68 367.36 66.55 422.41 59.27"/><polygon class="cls-13" points="357.95 131.09 354.16 115.76 357.47 106.67 360.31 92.59 365.24 90.41 365.52 87.15 367.36 66.55 373.23 65.78 375.01 131.03 357.95 131.09"/><polygon class="cls-14" points="417.36 55.05 422.69 53.63 426 42.41 356.2 51.73 328.6 69.81 366.2 79.64 417.36 55.05"/><polygon class="cls-11" points="407.65 77.94 418.75 68.36 421.67 73.15 423.03 74.65 421.58 74.54 418.64 71 407.42 83.09 407.65 77.94"/><polygon class="cls-15" points="407.65 77.94 406.71 98.25 401.1 98.2 397.31 77.94 407.65 77.94"/><polygon class="cls-11" points="398.38 83.58 381.13 74.23 380.39 72.5 383.62 73.32 397.31 77.94 398.38 83.58"/><polygon class="cls-13" points="404.33 101.59 406.71 98.25 401.1 98.2 404.33 101.59"/><polygon class="cls-13" points="410.68 82.1 406.71 98.25 407.42 83.09 418.64 71 421.58 74.54 410.68 82.1"/><polygon class="cls-13" points="401.1 98.2 394.64 85.02 381.13 74.23 398.38 83.58 401.1 98.2"/><polygon class="cls-16" points="352.8 199.82 351.75 173.56 407.93 161.49 411.9 162.65 408.33 165.99 389.06 185.57 378.1 193.16 352.8 199.82"/><polygon class="cls-17" points="403.76 105.79 392.18 104.4 386.29 101.57 391.92 108.79 398.41 110.46 403.76 105.79"/><polygon class="cls-16" points="386.29 101.57 391.73 105.22 398.81 106.78 403.76 105.79 400.11 104.6 392.83 103.98 386.29 101.57"/><polygon class="cls-18" points="384.02 120.75 363.37 121.29 375.01 131.03 389.46 130.97 391.02 123.81 391.7 120.55 388.07 120.66 384.02 120.75"/><polygon class="cls-18" points="351.5 104.85 355.4 95.59 362.8 99.67 354.16 115.76 353.42 112.64 351.5 104.85"/><polygon class="cls-12" points="362.8 99.67 356.28 81.03 346.99 86.55 351.5 104.85 358.01 101.88 362.8 99.67"/><polygon class="cls-18" points="359.12 96.07 350.59 89.44 355.18 86.52 359.12 96.07"/><polygon class="cls-19" points="330.73 102.87 333.02 128.06 345.21 114.29 350.42 114.4 349.03 107.37 345.63 100.63 342.94 95.33 330.73 102.87"/><polygon class="cls-20" points="355.04 119.25 350.65 110.58 349.03 107.37 347.05 110.94 345.21 114.29 355.04 119.25"/><polygon class="cls-20" points="432.32 69.27 426.06 57.94 423.82 57.8 422.41 59.27 421.07 84.43 432.32 69.27"/><polygon class="cls-21" points="366.2 79.64 381.13 74.23 382.8 73.6 383.62 73.32 424.13 58.65 432.3 55.7 426 42.41 366.2 79.64"/><polygon class="cls-11" points="328.6 69.81 352.06 37 426 42.41 328.6 69.81"/><polygon class="cls-5" points="355.66 107.49 355.15 114.74 359.68 113.75 357.47 106.67 355.66 107.49"/><polygon class="cls-22" points="344.05 137.63 357.95 131.09 375.07 147.41 381.67 175.34 355.35 174.38 351.04 170.98 344.05 137.63"/><polygon class="cls-12" points="377.79 182.57 355.35 174.38 375.55 158.4 402.83 149.42 407.93 161.49 377.79 182.57"/><polygon class="cls-13" points="420.06 146.02 407.22 140.72 402.83 149.42 407.93 161.49 417.28 166.7 422.52 163.33 425.07 153.47 420.06 146.02"/><polygon class="cls-16" points="401.13 130.97 411.87 139.53 412.63 142.93 414.99 142.02 420.08 146.07 413.62 147.29 411.33 145.22 402.83 149.42 396.94 138.85 401.13 130.97"/><polygon class="cls-12" points="431.64 142.19 420.08 146.07 422.52 163.33 435.01 152.34 431.64 142.19"/><polygon class="cls-18" points="402.83 149.42 411.87 139.53 414.99 142.02 414.53 147.12 402.83 149.42"/><polygon class="cls-23" points="357.95 131.09 389.46 130.97 401.13 130.97 402.83 149.42 375.55 158.4 368.32 147.18 357.95 131.09"/><polygon class="cls-1" points="373.79 143.24 375.01 131.03 385.41 134.69 389.54 141.49 373.79 143.24"/><polygon class="cls-1" points="389.46 130.97 385.92 135.37 389.54 141.49 401.22 145.79 389.46 130.97"/><polygon class="cls-1" points="375.01 131.03 389.46 130.97 389.54 141.49 375.01 131.03"/><polygon class="cls-11" points="422.92 184.41 424.42 176.25 403.06 170.01 384.98 183.95 376.82 186.5 352.8 199.82 379.88 207.21 403.63 197.58 413.23 191.4 422.92 184.41"/><polygon class="cls-11" points="432.58 192.6 424.42 176.25 413.23 191.4 424.73 194.75 432.58 192.6"/><polygon class="cls-22" points="408.33 165.99 407.93 161.49 422.52 163.33 424.42 176.25 408.33 165.99"/><polygon class="cls-12" points="388.58 179.16 408.33 165.99 424.42 176.25 396.48 187.44 387.11 186.11 388.58 179.16"/><polygon class="cls-4" points="344.05 137.63 340.08 145.17 347.47 180.84 352.8 199.82 355.35 174.38 344.05 137.63"/><polygon class="cls-11" points="396.65 223.34 352.8 199.82 380.56 198.88 402.24 198.15 405.63 206.02 396.65 223.34"/><polygon class="cls-19" points="413.23 191.4 405.63 206.02 380.56 198.88 413.23 191.4"/><polygon class="cls-14" points="431.16 202.06 420.62 202.26 413.23 191.4 432.58 192.6 431.16 202.06"/><polygon class="cls-19" points="371.69 238.77 359.23 241.81 361.67 226.65 372.52 233 371.69 238.77"/><polygon class="cls-10" points="431.16 202.06 444.25 207.04 418.73 217.67 431.16 202.06"/><polygon class="cls-24" points="335.04 140.61 347.64 200.04 349.46 199.96 352.8 199.82 344.05 137.63 335.04 140.61"/><polygon class="cls-7" points="390.37 104.31 392.12 106.98 398.3 108.39 398.81 106.78 391.81 105.25 390.37 104.31"/><polygon class="cls-13" points="396.65 223.34 419.88 245.72 424.08 244.1 431.93 237.78 425.5 224.18 410.23 219.79 396.65 223.34"/><polygon class="cls-18" points="396.65 223.34 407.79 213.31 420.65 213.9 425.5 224.18 407.42 233.73 396.65 223.34"/><polygon class="cls-22" points="419.88 245.72 420.06 259.63 428.7 267.84 419.88 245.72"/><polygon class="cls-12" points="431.93 237.78 437.51 243.53 434.9 253.11 425.3 260.16 419.88 245.72 431.93 237.78"/><polygon class="cls-17" points="425.3 260.16 437.51 243.53 440.51 246.62 439.63 253.39 426.77 263.73 425.3 260.16"/><polygon class="cls-12" points="426.77 263.73 440.51 246.62 450.14 252.69 442.21 258.52 426.77 263.73"/><polygon class="cls-22" points="426.77 263.73 428.7 267.84 452.1 256.79 450.14 252.69 426.77 263.73"/><polygon class="cls-13" points="444.87 249.37 426.77 263.73 450.14 252.69 444.87 249.37"/><polygon class="cls-22" points="396.65 223.34 386.2 229.99 381.61 242.88 390.34 236.62 396.65 223.34"/><polygon class="cls-13" points="407.42 233.73 431.16 202.06 413.23 191.4 396.65 223.34 407.42 233.73"/><polygon class="cls-12" points="384.36 239.31 388.21 238.58 387.42 235.32 396.65 223.34 407.42 233.73 400.68 253 384.36 239.31"/><polygon class="cls-13" points="400.68 253 384.36 239.31 402.49 247.81 400.68 253"/><polygon class="cls-22" points="381.61 242.88 384.36 239.31 400.68 253 396.83 257.08 381.61 242.88"/><polygon class="cls-17" points="405.1 240.36 387.42 235.32 384.36 239.31 403.54 244.86 405.1 240.36"/><path class="cls-20" d="M390.11,80.88a2.64,2.64,0,1,1-2.63,2.64A2.64,2.64,0,0,1,390.11,80.88Z"/><path class="cls-20" d="M412.86,80.8a2.64,2.64,0,1,1-2.63,2.63A2.63,2.63,0,0,1,412.86,80.8Z"/><polygon class="cls-13" points="377.79 182.57 388.01 179.34 396.8 187.1 390.22 194.29 381.44 192.74 377.79 182.57"/><polygon class="cls-18" points="373.31 196.02 377.79 182.57 390.22 194.29 380.88 200.84 373.31 196.02"/><polygon class="cls-25" points="820.68 277.75 858.67 264.64 851.3 260.81 827.45 256.51 798.72 261.04 820.68 277.75"/><polygon class="cls-26" points="800.25 222.8 842.95 218.92 859.66 225.91 821.07 241.98 800.25 222.8"/><polygon class="cls-27" points="859.66 225.91 819.35 231.07 814.84 245.91 825.38 269.26 850.76 263.05 859.66 225.91"/><polygon class="cls-27" points="836.54 228.86 819.35 231.07 839.89 242.88 836.54 228.86"/><path class="cls-28" d="M814.89,245.71l0,.2,4.16,9.24,4.51,2.29,30.31-7.19,1.87-7.85c-13.91,2.55-33.57,6.29-33.57,6.29l-7.23-3Z"/><polygon class="cls-22" points="837.25 177.98 839.85 193.13 850 205.43 842.8 218.21 827.99 229.96 819.35 231.07 813.28 213.98 820.05 193.41 819.06 185.83 837.25 177.98"/><polygon class="cls-28" points="800.25 222.8 819.35 231.07 825.38 269.26 807.84 262.2 805.12 248.07 808.55 246.28 803.76 241.1 800.25 222.8"/><polygon class="cls-29" points="822.12 248.69 823.51 257.44 805.12 248.07 805.1 248.07 803.76 241.1 822.12 248.69"/><polygon class="cls-17" points="842.95 218.92 839.89 242.88 813.28 213.98 829.54 209.42 842.95 218.92"/><polygon class="cls-30" points="840.34 205.8 842.95 218.92 828.55 216.53 813.28 213.98 822.29 205.4 840.34 205.8"/><polygon class="cls-30" points="839.85 193.13 840.34 205.8 850 205.43 851.25 194.24 848.55 189.22 839.85 193.13"/><polygon class="cls-23" points="864.53 220.05 840.34 205.8 851.25 194.24 864.53 220.05"/><polygon class="cls-23" points="877.64 195.68 851.25 194.24 839.85 193.13 846.97 177.41 877.64 195.68"/><polygon class="cls-23" points="797.5 185.71 837.25 177.98 820.05 193.41 797.5 185.71"/><polygon class="cls-17" points="807.13 210.53 805.61 203.73 820.05 193.41 822.29 205.4 813.28 213.98 807.13 210.53"/><polygon class="cls-30" points="788.38 210.67 820.05 193.41 807.13 210.53 788.38 210.67"/><polygon class="cls-26" points="456.63 199.48 457.71 223.14 486.4 234.35 495.92 206.42 482.92 204.04 456.63 199.48"/><polygon class="cls-8" points="474.62 204.63 472.86 203.02 470.57 203.47 470.54 209.31 473.97 210.44 474.62 204.63"/><polygon class="cls-27" points="455.84 181.6 456.63 199.48 474.62 204.63 494.51 210.3 495.87 206.22 490.6 189.79 477.14 183.42 455.84 181.6"/><polygon class="cls-3" points="470.57 203.47 474.62 204.63 475.04 200.95 470.6 200.1 470.57 203.47"/><polygon class="cls-29" points="470.06 177.86 455.84 181.6 483.83 188.17 490.6 189.79 497.48 202.11 502.58 186.28 470.06 177.86"/><path class="cls-28" d="M458.73,182.28l4.87,1.14h0l8.21-1-4.64-1.19-8.41,1.1Zm16.4,3.85,6.06,1.42h0l6.78-2.24-4.37-.93Z"/><polygon class="cls-28" points="495.07 232.43 502.58 186.28 490.6 189.79 486.4 234.35 495.07 232.43"/><polygon class="cls-17" points="471.62 168.48 467.14 181.18 471.81 182.37 473.83 173.84 476.55 171.91 471.62 168.48"/><polygon class="cls-17" points="489.95 171.51 484.14 172.08 485.16 176.08 483.6 184.38 487.96 185.34 489.95 171.51"/><polygon class="cls-22" points="489.95 171.51 471.62 168.48 473.83 173.84 485.16 176.08 489.95 171.51"/><polygon class="cls-25" points="17 311.02 110.72 313.2 144.77 214.98 65.64 215.54 17 311.02"/><polygon class="cls-3" points="30.8 238.18 106.41 242.06 130.58 198.6 134.88 175.63 69.78 175.17 30.8 238.18"/><polygon class="cls-10" points="120.26 233.34 131.54 233.47 127.91 215.09 120.26 233.34"/><polygon class="cls-9" points="70.6 200.24 44.11 234.27 61.9 238.35 98 238.58 97.2 211.6 120.69 204.61 89.21 175.31 70.6 200.24"/><polygon class="cls-21" points="136.55 222.17 131.4 194.24 99.19 252.94 90.03 263.76 103.15 294.87 110.72 277.95 110.38 262.66 127.8 221.72 131.54 233.47 136.55 222.17"/><polygon class="cls-24" points="31.05 251.47 30.8 238.18 106.41 238.63 108.73 242.37 106.41 253.11 99.19 252.94 75.98 264.92 36.86 251.61 31.05 251.47"/><polygon class="cls-8" points="136.1 188.01 134.88 175.63 106.41 238.63 106.41 253.11 136.1 188.01"/><polygon class="cls-10" points="34.08 290.45 36.86 251.61 70.91 252.34 99.19 252.94 100.2 263.93 103.15 294.87 87.91 293.9 84.94 277.36 56.49 275.86 51.62 280.93 46.46 291.24 34.08 290.45"/><polygon class="cls-19" points="55.56 284.5 46.46 291.24 49.72 275.49 56.49 275.86 55.56 284.5"/><polygon class="cls-28" points="90.09 173.16 125.87 172.54 120.69 204.61 79.95 198.35 90.09 173.16"/><polygon class="cls-26" points="120.69 204.61 119.58 196.9 79.95 198.35 80.94 204.38 120.69 204.61"/><polygon class="cls-29" points="125.87 172.54 126.72 179.96 120.69 204.61 119.58 196.9 125.87 172.54"/><path class="cls-29" d="M92.59,182.73l3.14,3.43c.93,1.05,1.84,2,2.72,3,2.21-.46,4.48-.88,6.8-1.36s4.81-1,7.31-1.45c-.6-.93-1.25-1.92-1.9-3s-1.42-2.21-2.15-3.37l-8.22,1.41C97.66,181.86,95.11,182.31,92.59,182.73Z"/><path class="cls-28" d="M95,183.38l.88,1,.85,1,2.1-.43,2.15-.42-1.44-1.81-2.27.37-2.24.33Zm2.55,2.87,1.14,1.27,2-.42,2-.43-1-1.21-2.13.39-2.07.4Zm6.63.11,2.69-.57,2.78-.59-.77-1.13-2.83.54-2.77.53.93,1.22Zm4-3.28-1-1.56-3,.48-3,.45,1.33,1.76,2.78-.57,2.86-.56Z"/><path class="cls-28" d="M104.09,187.47c-.12-.12-.2-.26-.31-.37.34-.09.7-.14,1.07-.23l.48.48C104.91,187.38,104.48,187.44,104.09,187.47Z"/><polygon class="cls-26" points="54 200.56 92.67 199.85 87.06 234.52 43.06 227.75 54 200.56"/><polygon class="cls-26" points="87.06 234.52 85.9 226.19 43.06 227.75 44.11 234.27 87.06 234.52"/><polygon class="cls-29" points="92.67 199.85 93.61 207.89 87.06 234.52 85.9 226.19 92.67 199.85"/><polygon class="cls-29" points="72.64 214.18 74.06 212.2 71.17 209.48 66.66 209.11 63.15 207.64 60.09 209.62 60.48 212.43 60.85 215.15 63.23 216.05 65.61 216.93 68.45 216.62 71.34 216.31 71.9 215.31 72.98 217.75 75.27 218.6 76.04 216.99 72.19 215.06 76.86 215.43 76.83 214.41 72.64 214.18"/><polygon class="cls-25" points="693.84 283.45 791.18 266.08 754.04 232.37 686.87 228.41 664.58 241.07 642.96 255.32 693.84 283.45"/><polygon class="cls-31" points="702.17 91.48 701.66 143.69 743.08 147.94 752.48 126.98 747.7 91.99 702.17 91.48"/><polygon class="cls-32" points="703.33 105.31 710.64 111.25 716.64 123.16 719.45 121.46 721.58 123.67 730.87 112.67 741.21 110.21 728.54 105.31 725.32 104.8 719.82 108.22 716.64 104.54 714.86 103.49 703.33 105.31"/><polygon class="cls-11" points="735 60.97 746.79 82.44 722.6 91.71 702.14 95.14 700.55 99.81 696.22 96.13 735 60.97"/><polygon class="cls-11" points="702.03 108.03 696.22 96.13 702.14 95.14 702.03 108.03"/><polygon class="cls-11" points="747.16 98.51 722.6 91.71 735 60.97 775.09 66.66 773.79 89.89 747.16 98.51"/><polygon class="cls-10" points="797.33 107.23 775.09 66.66 747.16 98.51 775.35 115.96 797.33 107.23"/><polygon class="cls-32" points="739.93 166.19 769.51 170.55 766.65 150.38 774.42 121.37 747.16 98.51 743.05 147.94 739.93 166.19"/><polygon class="cls-11" points="766.65 150.38 747.16 98.51 797.33 107.23 766.65 150.38"/><path class="cls-33" d="M728.6,146.47l6.92,12.07-1.11,4.16,5.58,3.49,14.39-17.31c-8.67-.71-17.14-1.53-25.81-2.41Z"/><polygon class="cls-11" points="728.54 105.31 735.8 102.33 741.21 110.21 728.54 105.31"/><polygon class="cls-11" points="714.86 103.49 712 99.1 703.33 105.31 714.86 103.49"/><polygon class="cls-34" points="716.64 104.54 716.64 123.16 721.58 123.67 725.32 104.8 716.64 104.54"/><polygon class="cls-33" points="718.21 125.88 716.64 123.16 721.58 123.67 718.21 125.88"/><polygon class="cls-10" points="685.57 238.21 689.56 243.34 692.4 233.93 700.33 240.59 700.1 256.9 708.4 267.53 718.43 241.98 707.55 224.41 705.79 224.61 689.59 208.18 685.57 238.21"/><polygon class="cls-26" points="709.93 131.17 718.34 130.01 731.77 133.89 716.93 140.47 709.93 131.17"/><polygon class="cls-7" points="712 132.19 717.95 132.33 728.88 134.32 723.47 136.81 719.17 135.42 714.04 135.48 712 132.19"/><polygon class="cls-28" points="767.78 174.43 750.99 172.82 753.25 158.31 766.65 150.38 777.87 156.87 786.14 174.24 772.85 183.1 767.78 174.43"/><polygon class="cls-27" points="750.99 187.95 767.78 174.43 779.28 165.82 786.14 174.24 767.53 207.78 748.83 198.6 750.99 187.95"/><polygon class="cls-29" points="721.75 161.46 735.52 158.51 739.93 166.19 753.25 158.31 767.78 174.43 750.99 187.95 734.12 188.34 722.46 179.08 721.75 161.46"/><polygon class="cls-26" points="723.22 191.69 722.46 179.08 750.99 187.95 723.22 191.69"/><polygon class="cls-31" points="720.16 203.56 717.61 196.02 723.22 191.69 750.99 187.95 767.53 207.78 742.12 212.6 720.16 203.56"/><polygon class="cls-32" points="708.03 200.78 720.16 203.56 722.46 201.18 723.22 191.69 710.9 186.13 706.67 193.47 708.03 200.78"/><polygon class="cls-31" points="701.26 198.46 708.03 200.78 710.84 186.08 703.13 190.53 701.26 198.46"/><polygon class="cls-33" points="715.91 174.69 710.84 186.08 723.22 191.69 723.62 179.87 715.91 174.69"/><polygon class="cls-31" points="658.86 240.62 690.61 200.56 695.54 226.37 668.48 244.01 664.97 248.77 658.86 240.62"/><polygon class="cls-32" points="678.4 215.94 690.61 200.56 695.54 226.37 684.49 233.56 678.4 215.94"/><polygon class="cls-31" points="721.75 161.46 715.91 174.69 723.62 179.87 729.99 176.84 729.42 165.88 721.75 161.46"/><polygon class="cls-32" points="733.28 161.46 721.75 161.46 729.99 176.84 735.2 170.27 733.28 161.46"/><polygon class="cls-11" points="690.61 200.56 695.03 225.12 705.79 224.61 708.51 228.91 724.35 216.79 708.03 200.78 701.26 198.46 690.61 200.56"/><polygon class="cls-11" points="753.08 212.8 762.88 224.01 761.01 238.94 708.51 228.91 708.23 211.63 708.03 200.78 730.1 205.8 753.08 212.8"/><polygon class="cls-28" points="767.53 207.78 771.15 216.68 762.88 224.01 708.03 200.78 722.46 201.18 767.53 207.78"/><polygon class="cls-31" points="682.34 245.15 690.61 200.56 705.79 224.61 691.01 249.68 686.13 251.66 682.34 245.15"/><polygon class="cls-31" points="690.61 200.56 705.79 224.61 697.69 238.35 690.61 200.56"/><polygon class="cls-27" points="692.93 261.52 692.56 247.05 682.23 253.65 687.78 261.55 692.93 261.52"/><polygon class="cls-28" points="664.8 261.58 682.34 245.15 692.56 247.05 683.64 261.58 664.8 261.58"/><polygon class="cls-21" points="753.02 250.13 737.18 252.66 731.58 237.33 756 238.24 753.02 250.13"/><polygon class="cls-8" points="781.27 172.22 784.02 181.94 772.68 223.08 768.35 230.9 762.88 224.01 775.12 180.44 781.27 172.22"/><path class="cls-10" d="M761.55,265l-10.25-6-1.48-18.41-13.4-3.88.76,15.95-9.62-6s6.39-15.41,7.21-15.41,30.78,2.94,30.78,2.94l-4,30.8Z"/><polygon class="cls-4" points="708.4 267.53 708.46 245.12 708.51 228.91 744.1 225.71 762.88 224.01 772.68 223.08 778.75 264.13 761.55 264.98 759.37 244.89 729.85 246.51 723.08 246.88 720.75 266.94 708.4 267.53"/><polygon class="cls-23" points="791.41 155.14 784.02 181.94 775.12 180.47 779.34 165.91 777.87 156.87 783.33 151.49 791.41 155.14"/><polygon class="cls-17" points="766.65 150.38 783.39 151.57 779.34 165.91 766.65 150.38"/><path class="cls-20" d="M731.27,111.11a2.64,2.64,0,1,1-2.64,2.64A2.64,2.64,0,0,1,731.27,111.11Z"/><path class="cls-20" d="M709.68,109.3a2.64,2.64,0,1,1-2.64,2.63A2.63,2.63,0,0,1,709.68,109.3Z"/><polygon class="cls-27" points="669.62 254.92 668.48 244.01 658.97 246.03 663.67 255.06 669.62 254.92"/><polygon class="cls-28" points="642.96 255.32 658.86 240.62 668.48 244.01 660.1 255.75 642.96 255.32"/><polygon class="cls-25" points="479.32 302.66 556.04 347.54 655.37 336.35 632.99 295.72 572.64 274.78 479.32 302.66"/><polygon class="cls-30" points="655.23 209.28 608.03 250.48 585.36 236.11 576.95 228.21 572.41 216.28 584.2 213.73 599.78 198.85 613.36 207.53 646.39 200.44 655.23 209.28"/><polygon class="cls-23" points="643.13 246.96 655.23 209.28 587.77 225.57 576.64 241.32 582.33 260.79 609.1 263.6 643.13 246.96"/><polygon class="cls-19" points="570.46 256.73 558.62 256.57 568.79 291.75 571.65 300.05 577.06 294.9 586.22 274.33 582.33 260.79 577.06 248.77 570.46 256.73"/><polygon class="cls-17" points="572.41 216.28 563.35 229.76 570.46 256.73 582.33 260.79 587.77 225.57 582.08 222.11 572.41 216.28"/><polygon class="cls-8" points="631.83 285.35 643.13 246.96 632.53 249.37 622.76 264.95 618.51 287.68 626.38 290.99 631.83 285.35"/><polygon class="cls-19" points="614.63 283.85 616.27 286.82 622.37 286.99 632.53 249.37 623.21 251.49 607.01 269.74 614.63 283.85"/><polygon class="cls-8" points="591.63 258.66 602.05 268.32 584.77 293.54 577.06 294.9 582.33 260.79 591.63 258.66"/><polygon class="cls-10" points="614.63 283.85 600.41 274.3 585.85 288.07 584.77 293.54 620.32 293.4 622.37 286.99 614.63 283.85"/><polygon class="cls-11" points="620.26 262.6 617.12 274.5 614.63 283.85 585.85 288.07 588.9 272.46 605.96 260.64 620.26 262.6"/><polygon class="cls-28" points="623.21 251.49 620.26 262.6 588.9 272.46 591.63 258.66 623.21 251.49"/><polygon class="cls-17" points="515.24 306.54 529.44 302.21 535.53 300.37 541.62 316.12 526.32 315.3 515.24 306.54"/><polygon class="cls-4" points="636.62 327.93 631.83 285.35 577.06 294.9 575.68 344.19 589.28 340.56 590.54 319.09 610.86 314.22 618.62 321.13 626.38 330.65 636.62 327.93"/><polygon class="cls-10" points="532.67 320.99 541.82 325.98 547.23 317.88 552.64 313.74 561.26 317.68 561.54 336.52 575.68 344.19 577.06 294.9 568.79 291.75 562.5 277.81 538.42 279.71 532.19 293.82 534.91 305.01 533.69 313.71 529.72 315.47 532.67 320.99"/><polygon class="cls-19" points="612.42 325.84 626.38 330.65 621.71 311.64 610.86 314.22 612.42 325.84"/><polygon class="cls-19" points="551.56 323.26 541.82 325.98 544.03 309.77 552.64 313.74 551.56 323.26"/><polygon class="cls-11" points="529.44 302.21 523.41 272.38 537.57 270.76 538.42 279.71 537.23 288.18 534.91 305.01 529.44 302.21"/><polygon class="cls-22" points="515.47 311.59 515.24 306.54 533.69 313.71 532.67 320.99 515.47 311.59"/><polygon class="cls-11" points="538.34 257.22 523.41 272.38 533.47 277.3 538.42 279.71 568.79 291.75 569.56 275.75 560.61 259.31 538.34 257.22"/><polygon class="cls-29" points="553.24 221.63 552.25 237.53 571.03 245.21 571.65 232.29 572.41 216.28 553.24 221.63"/><polygon class="cls-26" points="538.34 257.22 555.75 243 571.03 245.21 569.56 275.75 555.73 267.53 538.34 257.22"/><polygon class="cls-27" points="553.24 221.63 542.08 233.62 531.39 241.04 538.34 257.22 557.94 250.02 571.03 245.21 553.24 221.63"/><polygon class="cls-35" points="528.62 225.63 542.08 233.62 538.34 257.22 518.3 236.08 518 222.23 528.62 225.63"/><polygon class="cls-11" points="542.73 125.62 558.59 140.52 588.42 140.04 605.34 127.8 600.92 104.94 542.73 125.62"/><polygon class="cls-11" points="634.77 139.39 600.92 104.94 588.42 140.04 623.04 147.12 634.77 139.39"/><polygon class="cls-36" points="599.42 210.5 584.2 213.73 583.66 202.77 573.41 197.52 588.42 140.04 600.72 158.06 599.87 176.56 614.37 179.96 617.77 191.91 613.36 207.53 599.42 210.5"/><polygon class="cls-10" points="634.97 166.44 634.77 139.39 619.5 139.62 588.42 140.04 614.83 162.88 634.97 166.44"/><polygon class="cls-11" points="617.77 191.91 634.97 166.44 588.42 140.04 594.65 163.13 593.38 171.35 599.42 173.27 603.55 179.45 605.56 191.01 617.77 191.91"/><polygon class="cls-35" points="588.42 140.04 577.52 198.26 549.84 193.13 552.92 175.96 553.18 174.52 553.57 172.31 554.51 167.21 549.92 165.76 557.37 158.79 558.59 140.52 588.42 140.04"/><polygon class="cls-36" points="567.12 157.94 577.35 155.91 564.6 147.49 557.37 158.79 554.51 167.21 567.12 157.94"/><polygon class="cls-37" points="584.2 213.73 570.01 196.87 587.75 200.24 584.2 213.73"/><polygon class="cls-11" points="564.6 147.49 576.87 147.26 577.35 155.91 564.6 147.49"/><polygon class="cls-37" points="553.8 171.29 570.12 172.51 559.92 182.73 552.22 179.99 552.92 175.96 553.57 172.31 553.8 171.29"/><polygon class="cls-7" points="553.38 176.05 554.2 172.39 566.16 173.5 562.42 177.89 553.38 176.05"/><path class="cls-20" d="M567.12,155.23a2.72,2.72,0,1,1-2.72,2.71A2.71,2.71,0,0,1,567.12,155.23Z"/><polygon class="cls-36" points="505.39 224.49 512.89 212.85 512.87 207.98 518.17 209.03 524.62 214.27 528.62 225.63 518.3 236.08 505.39 224.49"/><polygon class="cls-35" points="510.04 195.77 518.17 209.03 512.89 212.85 505.53 200.41 510.04 195.77"/><polygon class="cls-37" points="527.14 210.56 528.62 225.63 518.17 209.03 527.14 210.56"/><polygon class="cls-35" points="598.06 178.97 601.65 163.84 614.85 168.91 608.73 183.47 604.57 185.23 598.06 178.97"/><polygon class="cls-37" points="602.13 174.92 604.52 168.17 610.07 169.87 602.13 174.92"/><polygon class="cls-37" points="605.56 191.01 598.06 178.97 608.73 183.47 605.56 191.01"/><polygon class="cls-25" points="157.04 307.53 200.78 347.54 299.91 340.11 346.6 290.05 290.81 264.61 157.04 307.53"/><polygon class="cls-30" points="159.9 189.59 234.6 218.21 249.54 197.13 239.65 195.03 225.43 182.77 202.45 187.07 169.47 180.01 159.9 189.59"/><polygon class="cls-17" points="172.99 230.36 159.9 189.59 232.91 207.21 247.95 228.91 238.8 245.32 218.6 262.06 172.99 230.36"/><polygon class="cls-4" points="242.62 225.71 251.52 238.54 269.51 250.33 253.45 278.83 251.97 286.74 244.49 282.24 237.18 267.05 238.8 245.32 242.62 225.71"/><polygon class="cls-8" points="185.2 271.92 172.99 230.36 184.46 232.97 196.5 259.43 195.14 273.65 191.63 282.63 185.2 271.92"/><polygon class="cls-24" points="205.51 273.31 195.14 273.65 184.46 232.97 194.52 235.26 212.71 255.12 205.51 273.31"/><polygon class="cls-24" points="228.71 243.05 221.97 261.3 236.16 280.79 240.56 288.81 244.49 282.24 241.63 263.65 238.8 245.32 228.71 243.05"/><polygon class="cls-19" points="203.84 270.28 218.88 265.55 235 274.84 236.16 280.79 212.82 293.23 195.14 273.65 203.84 270.28"/><polygon class="cls-11" points="220.69 248.24 197.72 247.27 203.84 270.28 212.25 271.52 235 274.84 231.66 257.98 220.69 248.24"/><polygon class="cls-26" points="194.52 235.26 197.72 247.27 231.66 257.98 228.71 243.05 194.52 235.26"/><polygon class="cls-10" points="180.49 313.97 185.2 271.92 244.49 282.24 246.02 335.61 231.29 331.7 229.9 308.44 207.92 303.17 199.96 306.63 192.7 319.01 180.49 313.97"/><polygon class="cls-4" points="297.87 307.42 287.07 313.29 279 305.83 270.92 302.63 261.63 306.91 261.29 327.31 246.02 335.61 244.49 282.24 290.81 264.61 297.87 307.42"/><polygon class="cls-19" points="206.67 311.7 192.7 319.01 196.16 300.37 207.92 303.17 206.67 311.7"/><polygon class="cls-10" points="275.2 312.97 287.07 313.29 280.25 298.35 270.92 302.63 275.2 312.97"/><polygon class="cls-14" points="277.98 90.38 221.34 87.34 217.15 107.26 241.72 121.09 265.91 117.06 277.98 90.38"/><polygon class="cls-21" points="221.34 87.34 180.81 122.11 204.57 129.47 241.72 121.09 221.34 87.34"/><polygon class="cls-11" points="180.81 122.11 187.35 149.05 214.55 145.88 241.72 121.09 180.81 122.11"/><polygon class="cls-38" points="251.8 174.72 241.35 166.64 241.72 121.09 265.91 117.06 268.66 137.72 276.22 143.75 269.93 148.28 272.2 169.96 251.8 174.72"/><polygon class="cls-39" points="251.49 131.23 263.9 135.08 269.93 148.28 268.66 137.72 267.72 130.63 264.01 128.54 251.49 131.23"/><polygon class="cls-40" points="228.88 174.09 251.8 174.72 239.65 195.03 228.88 174.09"/><polygon class="cls-39" points="239.65 195.03 235.43 177.75 251.8 174.72 241.72 121.09 234.75 133.86 203.33 170.64 202.45 187.07 219.16 190.64 239.65 195.03"/><polygon class="cls-11" points="235.54 146.75 240.98 145.71 241.72 121.09 187.35 149.05 203.33 170.64 218.43 163.33 235.54 146.75"/><polygon class="cls-14" points="203.33 170.64 222.34 156.53 227.95 161.88 224.49 168.6 203.33 170.64"/><polygon class="cls-38" points="220.33 146.27 235.17 142.76 236.7 159.87 223.61 162.9 220.33 146.27"/><polygon class="cls-29" points="277.27 245.43 283.73 242.77 277.07 238.38 276.85 229.96 265.63 224.18 251.52 238.54 252.06 249.77 252.59 261.01 277.27 245.43"/><polygon class="cls-40" points="225.23 148.65 232.91 146.78 233.67 154.09 225.23 148.65"/><polygon class="cls-28" points="274.98 201.49 249.54 197.13 242.56 206.99 249.96 220.25 265.2 215.71 274.98 201.49"/><polygon class="cls-27" points="251.52 238.54 302.14 221.38 300.64 202.45 292.6 197.95 274.98 201.49 250.36 214.07 239.56 227.93 251.52 238.54"/><polygon class="cls-38" points="313.48 168.48 292.6 197.95 302.14 221.38 323.82 175.54 322.4 165.65 313.48 168.48"/><polygon class="cls-39" points="333.39 176.25 324.47 162.39 324.5 157.52 319.2 158.57 312.71 163.81 308.75 175.17 319.06 185.63 333.39 176.25"/><polygon class="cls-38" points="327.33 145.31 319.2 158.57 324.47 162.39 331.83 149.96 327.33 145.31"/><polygon class="cls-40" points="310.22 160.1 308.75 175.17 319.2 158.57 310.22 160.1"/><path class="cls-11" d="M253.45,278.83,252.6,261l24.67-15.58,4.34-5,26.8,1.33-3.55,14.4-14.05,8.41Z"/><polygon class="cls-19" points="277.07 238.38 308.41 241.78 277.27 245.43 277.07 238.38"/><polygon class="cls-11" points="316.11 258.1 314.47 272.57 290.81 264.61 308.41 241.78 316.11 258.1"/><polygon class="cls-11" points="327.67 280.31 316.11 258.1 290.81 264.61 307.38 287.36 321.46 291.87 327.67 280.31"/><polygon class="cls-28" points="306.73 296.34 307.38 287.36 327.67 280.31 345.91 285.3 318.01 304.02 306.73 296.34"/><polygon class="cls-27" points="306.34 302.04 306.73 296.34 318.09 300.59 345.91 285.3 346.6 290.05 318.12 306.09 306.34 302.04"/><polygon class="cls-40" points="270.44 153.21 259.59 152.65 265.14 163.58 271.46 162.93 270.44 153.21"/><polygon class="cls-7" points="271.01 158.65 270.58 154.66 262.94 154.46 264.83 159.5 271.01 158.65"/><polygon class="cls-11" points="251.49 131.23 258.66 123.92 264.01 128.54 251.49 131.23"/><polygon class="cls-23" points="238.8 245.32 232.91 207.21 249.54 197.13 251.52 238.54 238.8 245.32"/><path class="cls-20" d="M262.91,133.35a2.84,2.84,0,1,1-2.84,2.84A2.84,2.84,0,0,1,262.91,133.35Z"/><polygon class="cls-40" points="224.49 168.6 223.61 162.9 236.7 159.87 224.49 168.6"/><polygon class="cls-7" points="458.16 84 497.34 99.33 550.74 82.78 564.2 30.63 523.39 4.58 454.23 15.44 451.36 68.22 434.42 87.83 458.16 84"/><polygon class="cls-29" points="528.96 23.06 527.63 64.28 482.33 55.1 484.37 21.7 528.96 23.06"/><polygon class="cls-26" points="532.47 26.18 528.96 23.06 525.33 58.87 527.63 64.28 532.47 26.18"/><polygon class="cls-27" points="511.79 80.8 525.33 58.87 482.33 55.1 465.84 62.38 511.79 80.8"/><polygon class="cls-26" points="527.63 64.28 511.79 80.8 511.11 73.92 525.33 58.87 527.63 64.28"/><polygon class="cls-29" points="465.84 62.38 465.58 68 511.79 80.8 511.11 73.92 465.84 62.38"/><polygon class="cls-1" points="518.36 61.2 512.89 66.66 478.05 60.57 483.06 57.06 518.36 61.2"/><polygon class="cls-1" points="497.57 65.3 489.15 63.6 486.29 66.13 495.79 68.36 497.57 65.3"/><polygon class="cls-1" points="524.74 25.98 522.58 54.65 487.26 51.59 489.07 26.15 524.74 25.98"/><polygon class="cls-27" points="506.43 35.56 502.64 34.76 498.76 38.64 498.33 43.35 496.23 47.46 499.33 50.06 507.91 47.37 510.4 41.65 509.01 35.9 506.43 35.56"/><polygon class="cls-27" points="505.78 31.14 505.64 35.95 506.94 36.63 507.31 30.68 505.78 31.14"/><polygon class="cls-27" points="512.33 30.97 509.72 30.88 506.69 36.09 511.17 33.66 512.33 30.97"/><polygon class="cls-7" points="68.65 76.95 59.69 107.49 74.43 138.54 132.81 152.08 149.87 127.12 171.68 130.29 154.66 115.42 161.57 77.66 115.05 60.15 68.65 76.95"/><polygon class="cls-28" points="82.02 82.64 83.26 106.89 83.18 118.37 107.86 113.49 128.11 109.27 126.07 76.16 82.02 82.64"/><polygon class="cls-26" points="78.9 86.3 82.02 82.64 85.44 113.04 83.18 118.37 78.9 86.3"/><polygon class="cls-28" points="98.87 134.77 85.44 113.04 128.11 109.27 144.46 116.5 98.87 134.77"/><polygon class="cls-26" points="83.18 118.37 98.87 134.77 99.55 127.94 85.44 113.04 83.18 118.37"/><polygon class="cls-27" points="144.46 116.5 144.71 122.08 98.87 134.77 99.55 127.94 144.46 116.5"/><polygon class="cls-1" points="92.36 115.31 97.77 120.75 132.36 114.68 127.37 111.23 92.36 115.31"/><polygon class="cls-1" points="112.98 119.41 121.34 117.72 124.17 120.21 114.77 122.42 112.98 119.41"/><polygon class="cls-1" points="85.5 85.19 88.17 108.82 123.21 105.81 121.42 80.55 85.5 85.19"/><polygon class="cls-28" points="99.02 86.16 111.11 86.64 109.41 103.27 98.76 102.33 99.02 86.16"/><path class="cls-26" d="M100.54,87.94l3.43.17-.34,4.79-3.06-.17V88Zm5.13.23,2.52.11-.53,4.81L105.33,93l.34-4.81Zm1.79,6.63-.68,6.09-2-.17.45-6.07,2.27.15Zm-4.39,5.77-2.53-.22v-6l2.95.17-.45,6Z"/><polygon class="cls-26" points="109.39 93.97 108.62 93.94 108.48 95.19 109.47 95.36 109.39 93.97"/><polygon class="cls-1" points="632.81 95.05 660.58 96.27 667.29 88.65 683.19 97.83 673.11 82.08 689.82 63.15 674.24 21.19 624.37 21.19 603.32 54.34 625.17 88.82 622.33 107.66 632.81 95.05"/><polygon class="cls-28" points="666.59 37.28 665.68 55.33 665.74 63.89 647.35 60.26 632.28 57.12 633.81 32.44 666.59 37.28"/><polygon class="cls-26" points="668.94 40 666.59 37.28 664.06 59.92 665.74 63.89 668.94 40"/><polygon class="cls-28" points="654.06 76.1 664.06 59.92 632.28 57.12 620.09 62.5 654.06 76.1"/><polygon class="cls-26" points="665.74 63.89 654.06 76.1 653.56 71.03 664.06 59.92 665.74 63.89"/><polygon class="cls-27" points="620.09 62.5 619.9 66.66 654.06 76.1 653.56 71.03 620.09 62.5"/><polygon class="cls-1" points="658.91 61.62 654.88 65.67 629.1 61.17 632.81 58.56 658.91 61.62"/><polygon class="cls-1" points="643.56 64.65 637.32 63.41 635.2 65.27 642.22 66.92 643.56 64.65"/><polygon class="cls-1" points="664.01 39.18 662.03 56.77 635.93 54.54 637.26 35.73 664.01 39.18"/><polygon class="cls-28" points="653.95 39.89 644.94 40.26 646.19 52.64 654.15 51.96 653.95 39.89"/><path class="cls-26" d="M652.82,41.22l-2.55.12.25,3.56,2.3-.14Zm-3.83.17-1.87.09.4,3.6,1.73-.12Zm-1.33,5,.51,4.53,1.51-.14-.35-4.5-1.67.08ZM651,50.66l1.87-.17V46l-2.21.14Z"/><polygon class="cls-26" points="646.25 45.73 646.79 45.7 646.9 46.63 646.16 46.75 646.25 45.73"/></svg>