<svg xmlns="http://www.w3.org/2000/svg" viewBox="0 0 900 350"><defs><style>.cls-1,.cls-40{fill:#33231b;}.cls-1{opacity:0.1;}.cls-2{fill:#dcdcdb;}.cls-3{fill:#c3c3c3;}.cls-27,.cls-4{fill:#a587b8;}.cls-29,.cls-5{fill:#8e8e8e;}.cls-30,.cls-6{fill:#9b9fa0;}.cls-22,.cls-7{fill:#848585;}.cls-23,.cls-8{fill:#95637c;}.cls-31,.cls-9{fill:#734d61;}.cls-10,.cls-26{fill:#795d88;}.cls-11,.cls-21{fill:#6f7273;}.cls-12,.cls-41{fill:#a2a1a1;}.cls-13{fill:#cecdcc;}.cls-14{fill:#ebebea;}.cls-15,.cls-25{fill:#b2879c;}.cls-16,.cls-24{fill:#d1a0b8;}.cls-17,.cls-20{fill:#543042;}.cls-18,.cls-28{fill:#8f759f;}.cls-19,.cls-33{fill:#fff;}.cls-20,.cls-21,.cls-22,.cls-23,.cls-24,.cls-25,.cls-26,.cls-27,.cls-28,.cls-29,.cls-30,.cls-31,.cls-33,.cls-34,.cls-35,.cls-36,.cls-37,.cls-38,.cls-39,.cls-41{fill-rule:evenodd;}.cls-32,.cls-39{fill:#412b23;}.cls-34{fill:#debca4;}.cls-35{fill:#c2977a;}.cls-36{fill:#2b2b2b;}.cls-37{fill:#e8c9b6;}.cls-38{fill:#8a6651;}</style></defs><title>analysts_Debater_ENTP_weaknesses</title><g id="shadow"><polygon class="cls-1" points="7.67 280.67 151 350 306.33 248.67 144.17 213.08 7.67 280.67"/><polygon class="cls-1" points="657 216 889 262 777.67 350.67 539.67 256.67 657 216"/><polygon class="cls-1" points="336.33 254 401.67 240 469.35 256.64 394.33 278 336.33 254"/><polygon class="cls-1" points="487 302.67 561.83 288.67 639.35 305.3 553.43 326.67 487 302.67"/><polygon class="cls-1" points="315.13 270.88 327.25 266 342.25 271.88 328.75 278.13 315.13 270.88"/><polygon class="cls-1" points="322.75 305.63 332.75 302.38 345.25 304.38 333.75 311.25 322.75 305.63"/><path class="cls-1" d="M467.91,260.08l9.69-3.15h0s11.82,3.52,11.73,3.58l-10.7,5.26a.13.13,0,0,1-.12,0l-10.67-5.46A.12.12,0,0,1,467.91,260.08Z"/><path class="cls-1" d="M455.28,245.2l9.69-3.15a.06.06,0,0,1,.06,0s11.82,3.52,11.72,3.57l-10.69,5.26a.13.13,0,0,1-.12,0l-10.68-5.46A.13.13,0,0,1,455.28,245.2Z"/></g><g id="wall"><polygon class="cls-2" points="455.5 58 456.45 56.92 469 42.75 899 0.67 889 262 475.33 206.33 455.5 58"/><polygon class="cls-3" points="229.25 108.33 239 40 469 42.75 475.58 206.33 315.96 216.1 305 207.88 293 204.5 285.83 218.31 241.25 221 229.25 108.33"/><polygon class="cls-4" points="229.25 108.33 239.17 57.92 469.88 62 470.13 67.75 239.21 62.58 229.25 108.33"/><polygon class="cls-2" points="0.33 0 239 40 240.33 219.33 7.67 280.67 0.33 0"/><polygon class="cls-4" points="0.88 20.31 239.17 57.92 239.21 62.58 1.13 27.31 0.88 20.31"/><polygon class="cls-4" points="898.31 20.19 469.88 62 470.13 67.75 897.88 27.31 898.31 20.19"/><polygon class="cls-4" points="325.25 62.75 327.25 215.38 332 215.09 329.75 62 325.25 62.75"/><polygon class="cls-4" points="394.92 64.72 396.92 211.04 401.67 210.77 399.42 64 394.92 64.72"/></g><g id="mouse"><polygon class="cls-5" points="310.06 196.66 315.96 197.68 315.96 216.1 310.71 213.8 310.06 196.66"/><polygon class="cls-6" points="299.1 195.74 300.48 192.24 306.19 191.69 315.96 197.68 311.08 199.15 299.1 195.74"/><polygon class="cls-7" points="286.48 202.1 288.5 194.73 300.48 192.24 311.08 199.15 310.71 213.8 286.29 215.92 286.48 202.1"/><polygon class="cls-8" points="285.37 206.8 289.89 205.23 292.65 204.86 292.37 208 285.83 218.31 286.29 210.85 285.37 206.8"/><polygon class="cls-9" points="285.83 205.32 286.2 199.06 288.5 194.73 290.35 199.15 287.86 202.93 289.59 205.44 297.07 203.57 292.37 208 289.39 205.02 285.83 205.32"/><polygon class="cls-4" points="278.19 207.44 278.83 204.59 286.2 199.06 292.37 208 286.29 210.85 280.49 209.93 278.19 207.44"/><polygon class="cls-9" points="278.83 204.59 280.49 209.93 275.79 209.01 275.79 207.07 278.83 204.59"/><path class="cls-10" d="M282.35,203.5a1.61,1.61,0,1,1,1.38,1.81A1.61,1.61,0,0,1,282.35,203.5Z"/><path class="cls-10" d="M284.56,207.09a1.61,1.61,0,1,1,1.38,1.81A1.6,1.6,0,0,1,284.56,207.09Z"/></g><g id="something_on_the_floor" data-name="something on the floor"><polygon class="cls-7" points="329.69 301.89 327.57 302.91 327.45 307.18 332.98 309.41 337.53 304.89 336.87 301.27 333.44 302.38 329.69 301.89"/><polygon class="cls-7" points="475.65 258.38 474.09 259.56 474.32 262.38 480.09 264.45 483.5 261.56 482.39 257.86 475.65 258.38"/><polygon class="cls-7" points="463.44 240.55 460 241.14 460.15 245.62 462.19 247.32 468.52 249.14 471.48 246.14 472.04 242.4 463.44 240.55"/><polygon class="cls-7" points="324.16 263.98 320.21 266.83 320.45 270.69 328.58 277.35 335.34 271.26 335.01 265.5 326.96 269.88 324.16 263.98"/><polygon class="cls-3" points="323.25 261.31 320.21 266.83 329.49 272.21 335.01 265.5 330.15 261.13 323.25 261.31"/><polygon class="cls-7" points="326.11 264.41 325.2 266.55 327.54 267.74 329.15 265.22 326.11 264.41"/><polygon class="cls-3" points="327.57 302.91 332.58 305.05 337.1 301.2 333.35 298.22 328.86 299.68 327.57 302.91"/><polygon class="cls-7" points="330.48 301.25 332.98 300.95 333.46 301.61 331.5 302.47 330.48 301.25"/><polygon class="cls-3" points="460 241.14 463.48 238.25 468.44 238.69 471.81 242.43 468.41 246.43 462.78 243.77 460 241.14"/><polygon class="cls-7" points="465 241.18 466.55 243.4 468.41 241.81 466.11 240.66 465 241.18"/><polygon class="cls-3" points="476.98 255.19 474.09 257.19 474.09 259.56 480.31 261.49 482.39 257.86 480.69 254.97 476.98 255.19"/><polygon class="cls-7" points="477.13 257.19 478.39 256.75 478.83 257.93 477.43 258.45 477.13 257.19"/></g><g id="right_table" data-name="right table"><polygon class="cls-11" points="590.17 236.67 596.25 265.75 619.5 259.5 628.83 239.5 590.17 236.67"/><polyline class="cls-11" points="854.25 253.25 854.88 253.88 862.75 261.75 857 277.75 820.25 270.5 853.75 254.75"/><polygon class="cls-12" points="763 275 782.5 317.75 798.5 310.5 804.25 285.75 853.25 265 857 277.75 869.5 270.75 860.25 211 759.5 256 763 275"/><polygon class="cls-5" points="732.75 237.5 784 256.5 782.5 317.75 766.75 313.25 756.75 289.75 599.75 247.75 596.25 265.75 578 260.75 576.75 199.5 732.75 237.5"/><polygon class="cls-13" points="744.5 207.25 784 256.5 881 209.5 882 192.25 744.5 207.25"/><polygon class="cls-6" points="638.25 190.5 565 186.5 564.5 202.75 784 256.5 784 237 638.25 190.5"/><polygon class="cls-14" points="565 186.5 784 237 882 192.25 672.75 166.5 565 186.5"/><polygon class="cls-1" points="703.25 180.75 725 194 742.75 178.25 718.25 175.75 703.25 180.75"/><polygon class="cls-1" points="777 191 753.75 200 820.75 217.5 846.25 201.75 777 191"/><polygon class="cls-1" points="724.4 197.08 715.58 193.42 706.58 197.5 715.31 203.04 724.4 197.08"/><polygon class="cls-1" points="711.33 211.25 724.66 219.71 738.53 210.61 724.22 207.21 711.33 211.25"/><polygon class="cls-1" points="672.75 166.5 635.5 173.5 656.24 185.61 643 194 686.5 214.5 687.99 179.21 707 170.75 672.75 166.5"/></g><g id="something_on_the_right" data-name="something on the right"><polygon class="cls-8" points="874.67 135.83 870.83 175.67 877.67 178 881.83 135.33 874.67 135.83"/><polygon class="cls-8" points="847.67 54.5 851.5 56.83 883.5 127.33 876.67 126.5 847 61 847.67 54.5"/><polygon class="cls-8" points="819.83 70.67 832.67 81.83 847 61 842.67 51.5 819.83 70.67"/><polygon class="cls-15" points="824.33 58.67 817.83 57.17 817.5 79 829.17 95.83 832.67 81.83 825.17 68.67 824.33 58.67"/><polygon class="cls-16" points="824.33 58.67 817.83 57.17 803.5 58.33 817.5 79 825.17 68.67 824.33 58.67"/><polygon class="cls-15" points="841.5 49 836.33 50.83 817.83 57.17 825.17 68.67 845.33 53.83 841.5 49"/><polygon class="cls-7" points="658 172.5 668.5 181.38 697.5 170.25 698.88 163 660.25 165.38 658 172.5"/><polygon class="cls-12" points="654.88 164.75 641.5 165.63 641.63 172.13 668.5 181.38 669.63 171.5 654.88 164.75"/><polygon class="cls-8" points="660.17 192.88 654.5 192.5 654.08 197.04 683.75 210.25 684.5 208.31 660.17 192.88"/><polygon class="cls-8" points="679.88 188.67 669.46 195.29 663.75 191.42 680.83 182.88 679.88 188.67"/><polygon class="cls-7" points="716.44 193 713.63 199.25 715.94 201.5 720.25 198.63 720.25 195.56 716.44 193"/><polygon class="cls-6" points="713.06 195.75 711.75 196.88 712.88 200.56 715.94 201.5 716 198.31 713.06 195.75"/><polygon class="cls-7" points="733.31 198.06 734.69 203 741.94 201.44 741.81 197.06 737.13 196.13 733.31 198.06"/><polygon class="cls-6" points="734.44 193.31 732.69 194 731.88 198.81 734.69 203 734.94 198.31 734.44 193.31"/><polygon class="cls-7" points="721.38 203.56 720.25 211.63 722.69 216.75 731.44 213.06 731.5 206.44 721.38 203.56"/><polygon class="cls-6" points="719.56 205.44 717.19 206.44 716.81 212.19 722.69 216.75 722.94 211.63 719.56 205.44"/><polygon class="cls-10" points="823.91 202.72 829.97 201.19 831.72 207.56 823 211.88 820.88 208.5 823.91 202.72"/><polygon class="cls-17" points="817.25 201.03 823.09 200.41 829.97 201.19 824.88 205.63 813.06 206.75 811.69 204.22 817.25 201.03"/><polygon class="cls-10" points="816.41 197.09 818.09 198.84 823.09 200.41 815.13 204.38 809.44 199.69 816.41 197.09"/><polygon class="cls-17" points="817.53 190.78 817.75 193.13 818.09 198.84 812 199.88 808.78 194.63 817.53 190.78"/><polygon class="cls-10" points="825.16 192.69 826.63 195.88 835.41 195.38 835.59 189.22 827.53 188.91 825.16 192.69"/><polygon class="cls-9" points="788.13 192.63 793.63 201.75 803.88 201.25 814.88 190.13 815.63 186.38 787.38 182.75 788.13 192.63"/><polygon class="cls-15" points="773 183.75 771.25 179.88 790.88 179 815.63 186.38 798 186.5 773 183.75"/><polygon class="cls-11" points="703.5 148 717.38 164.38 722.88 185.88 729.88 181.25 731.38 159.13 703.5 148"/><polygon class="cls-5" points="711.38 161.13 711.13 181.63 722.88 185.88 723.88 161 711.38 161.13"/><polygon class="cls-10" points="734.63 154 738.5 171.88 756.13 163.63 766.38 140.25 734.38 142 734.63 154"/><polygon class="cls-10" points="758.75 111.13 773.38 114.5 771.88 121.38 766.13 142 748.75 148.88 737.38 124.88 758.75 111.13"/><polygon class="cls-10" points="771.38 144.75 767.75 158.13 784.13 160.5 785.13 147.88 771.38 144.75"/><polygon class="cls-8" points="765.75 126.63 760.38 125.38 757 145.5 767.75 158.13 785.13 147.88 765.75 126.63"/><polygon class="cls-8" points="689.25 131.13 682.5 135 698.88 163 738.5 171.88 748.75 148.88 689.25 131.13"/><polygon class="cls-15" points="710.63 107.5 687.25 113.75 682.5 135 748.75 148.88 755.13 121.5 710.63 107.5"/><polygon class="cls-16" points="714.63 97.25 704.5 102.13 687.25 113.75 755.13 121.5 738.38 96.5 714.63 97.25"/><polygon class="cls-18" points="743.88 94.63 731 103.63 755.13 121.5 773.38 114.5 749.38 98.63 743.88 94.63"/><polygon class="cls-10" points="726.88 96.5 731 103.63 749.38 98.63 767.25 71.63 763.63 47.5 740.75 48.13 726.88 96.5"/><polygon class="cls-10" points="726.88 96.5 731 103.63 749.38 98.63 767.25 71.63 745.5 79.38 726.88 96.5"/><polygon class="cls-8" points="704.25 80.88 698.38 88.75 704.5 102.13 731 103.63 740.88 88.13 704.25 80.88"/><polygon class="cls-8" points="696.13 59.88 691 60.25 688.13 71.5 692 74.38 697.63 62.5 696.13 59.88"/><polygon class="cls-15" points="717.63 45 696.5 47.94 692 74.38 698.38 88.75 706.63 93.38 724.38 93.75 740.88 88.13 745.5 79.38 744.75 49.88 717.63 45"/><polygon class="cls-18" points="735.25 43.63 746.24 36.21 763.63 47.5 744.75 49.88 735.25 43.63"/><polygon class="cls-16" points="720.63 34.5 696.5 47.94 712.5 56.25 744.75 49.88 746.24 36.19 720.63 34.5"/><polygon class="cls-8" points="752 69.38 754.5 76.13 764 72.75 764 56.88 752.5 60 752 69.38"/><polygon class="cls-9" points="750 77.25 749.25 60 755.5 59.13 754.25 60.63 754.5 76.13 750 77.25"/><polygon class="cls-15" points="749.25 60 758.63 56.5 764 56.88 754.25 60.63 749.25 60"/><polygon class="cls-19" points="698.88 62.63 697.13 72.88 708.25 77.38 709.88 65.13 698.88 62.63"/><polygon class="cls-19" points="721.75 65.38 721.63 78.63 739.88 77.5 739.5 64 721.75 65.38"/><polygon class="cls-18" points="728.13 126.25 745.5 123.25 744.63 127.88 728.88 129.13 728.13 126.25"/><polygon class="cls-18" points="729.63 134.63 744.13 132.63 743 136.5 730.38 137.5 729.63 134.63"/><polygon class="cls-18" points="690.06 117.31 701.44 122.81 700.69 126.06 690.56 121.94 690.06 117.31"/><polygon class="cls-18" points="689.27 124.73 700.65 130.23 699.9 133.48 689.77 129.35 689.27 124.73"/><polygon class="cls-15" points="707.25 136.25 710.25 156.25 716.63 158 716.5 135.25 707.25 136.25"/><polygon class="cls-16" points="710.13 130.25 701.5 139 723.88 143.63 720.5 130.38 710.13 130.25"/><polygon class="cls-15" points="760.38 125.38 771.88 121.38 785.13 147.88 760.38 125.38"/><polygon class="cls-8" points="771.25 179.88 767.38 197.38 793.63 201.75 798 186.5 771.25 179.88"/><polygon class="cls-18" points="778.5 187.88 796.88 191 794.88 197 776.88 192.63 778.5 187.88"/><polygon class="cls-4" points="819.41 189.81 819.28 189.69 819.14 189.57 819.09 189.53 818.67 189.14 815.63 186.38 827.28 185.66 835.59 189.22 828.75 190.25 819.41 189.81"/><polygon class="cls-3" points="720.81 202.25 717.19 206.44 722.94 211.63 731.5 206.44 729 202.38 720.81 202.25"/><polygon class="cls-7" points="723.38 204.56 722.38 205.88 724.31 207.56 726.56 205.13 723.38 204.56"/><polygon class="cls-3" points="732.69 194 734.94 198.31 741.81 197.06 738.69 192.38 734 192.25 732.69 194"/><polygon class="cls-7" points="735.06 194.63 736.13 196.31 738.13 195.88 737.31 194.31 735.06 194.63"/><polygon class="cls-3" points="711.69 194.19 714.19 192.25 718.38 192.06 720.25 195.56 716 198.31 711.75 196.88 711.69 194.19"/><polygon class="cls-7" points="715.13 193.69 714 194.81 715.13 195.81 716.56 194.31 715.13 193.69"/><path class="cls-16" d="M654.5,192.5l30,15.81L683.67,178Zm13.5.33,10.08-6.16-.58,10.83Z"/><polygon class="cls-10" points="641.5 165.63 672.5 158.13 698.88 163 669.63 171.5 641.5 165.63"/><polygon class="cls-4" points="671.5 160.38 684.75 163.25 677.13 165.38 663.5 162.63 671.5 160.38"/><polygon class="cls-9" points="843 43.67 836.33 50.83 847 61 851.5 56.83 843 43.67"/><polygon class="cls-10" points="875.17 129.67 879.17 123.83 886.33 123.5 886.83 138.67 878.83 139.67 875.17 129.67"/><polygon class="cls-18" points="870.17 178.83 874.67 173.83 883.83 178.83 882 192.25 866.81 199.13 870.17 178.83"/><polygon class="cls-4" points="863.83 171.33 855.44 188.94 866.81 199.13 874.67 173.83 863.83 171.33"/><polygon class="cls-16" points="755.63 22.75 756.67 26.08 757.03 59.53 758.92 58.79 758.5 27 755.63 22.75"/><polygon class="cls-16" points="754.19 22.81 755.23 26.15 754.81 58.13 756.97 59.22 757.06 27.06 754.19 22.81"/><polygon class="cls-8" points="753.25 18.75 752.25 24.25 754.25 26.38 758.5 27 760.38 22.88 758.63 17.5 753.25 18.75"/><polygon class="cls-18" points="871 123.67 879.17 123.83 878.83 139.67 870.67 138.5 871 123.67"/><polygon class="cls-18" points="805.63 190.75 815.63 186.38 828.75 190.25 826.63 195.88 817.75 193.13 811.38 195.38 812 199.88 815.13 204.38 824.88 205.63 823 211.88 811.75 210.75 803.88 201.25 805.63 190.75"/></g><g id="rocket"><polygon class="cls-10" points="477.5 155.5 482.75 162.25 475.42 206 457.75 165 466.5 151.25 477.5 155.5"/><polygon class="cls-18" points="461.75 145.5 472.81 129.78 482.75 162.25 452 161.75 461.75 145.5"/><polygon class="cls-8" points="462 180.5 481.25 193.5 487.75 193.25 490 206 486.5 208.25 484.5 196.75 479 196 461.75 185 462 180.5"/><polygon class="cls-8" points="467.25 176.5 480 175.25 486.5 184 491 187.75 488.5 190.5 483.75 187 479.5 180.25 470.5 181.5 467.25 176.5"/><polygon class="cls-7" points="391.25 247.75 399.5 270.25 434.75 260.25 433 251.75 391.25 247.75"/><polygon class="cls-11" points="377.25 249.75 370.25 248 368.25 261 399.5 270.25 400 264.75 377.25 249.75"/><polygon class="cls-6" points="389.25 243.5 370.25 248 400 264.75 433 251.75 404 238.5 389.25 243.5"/><polygon class="cls-18" points="389 228.25 402.5 256.5 419 249.5 417.25 239.75 389 228.25"/><polygon class="cls-10" points="396 234 385.25 239 383.25 249 402.5 256.5 403.25 245.5 396 234"/><polygon class="cls-3" points="382.75 204 388.79 214.76 403.25 245.5 417.25 239.75 411.25 209.75 382.75 204"/><polygon class="cls-6" points="389.25 214.5 385.25 239 403.25 245.5 400.5 225.83 389.25 214.5"/><polygon class="cls-15" points="419.13 220 436.13 203.75 453.17 209.27 457.14 209.89 475.42 206 473.33 173.5 462.5 160.67 400.83 153.17 395.5 175.33 388 195.5 400.5 225.83 419.65 220.23 419.13 220"/><polygon class="cls-10" points="362.88 130.75 372.63 125.25 340.63 104.75 341.17 130.17 362.88 130.75"/><polygon class="cls-18" points="367.13 131.88 347.56 117.81 349.25 137.25 367.13 131.88"/><polygon class="cls-10" points="353 201.5 340.5 207.33 340.17 235.17 376.5 211.5 353 201.5"/><polygon class="cls-18" points="350 194.67 347 221.83 372 206 350 194.67"/><polygon class="cls-9" points="332.17 159.83 331 159.17 319.17 173.17 327.09 203.77 340.5 207.33 346.17 168.67 332.17 159.83"/><polygon class="cls-8" points="345.5 132.33 341.17 130.17 326.13 132.06 319.17 173.17 337.5 171.83 345.5 132.33"/><polygon class="cls-16" points="385.83 131 386.16 130.42 395.67 113.33 472.81 129.78 473.33 173.5 395.5 175.33 385.83 131"/><polygon class="cls-8" points="344.5 160.5 337.5 171.83 340.5 207.33 400.5 225.83 395.5 175.33 389.83 161.33 344.5 160.5"/><polygon class="cls-15" points="395.67 113.33 341.17 130.17 337.5 171.83 395.5 175.33 395.67 113.33"/><polygon class="cls-1" points="395.67 113.33 367.25 122 363.75 130 340 141.75 374.88 139.88 395.67 113.33"/><polygon class="cls-3" points="415 147.67 410.83 152.33 411.67 158.17 425.17 163.17 446 157 450.83 139.83 448.17 136.33 441.5 150.5 427.33 155.17 415 147.67"/><polygon class="cls-10" points="366.69 177.94 364.69 179.63 364.75 181.5 366.38 182.5 368.69 181.38 368.88 179.25 366.69 177.94"/><polygon class="cls-10" points="384 179.19 382 180.88 382.06 182.75 383.69 183.75 386 182.63 386.19 180.5 384 179.19"/><polygon class="cls-10" points="349.38 177.75 347.38 179.44 347.44 181.31 349.06 182.31 351.38 181.19 351.56 179.06 349.38 177.75"/><polygon class="cls-18" points="350.5 165.69 348.5 167.38 348.56 169.25 350.19 170.25 352.5 169.13 352.69 167 350.5 165.69"/><polygon class="cls-18" points="367.06 166.38 365.06 168.06 365.13 169.94 366.75 170.94 369.06 169.81 369.25 167.69 367.06 166.38"/><polygon class="cls-18" points="384.63 167.19 382.63 168.88 382.69 170.75 384.31 171.75 386.63 170.63 386.81 168.5 384.63 167.19"/><polygon class="cls-18" points="407.25 166.81 405.25 168.5 405.31 170.38 406.94 171.38 409.25 170.25 409.44 168.13 407.25 166.81"/><polygon class="cls-18" points="424.25 166.94 422.25 168.63 422.31 170.5 423.94 171.5 426.25 170.38 426.44 168.25 424.25 166.94"/><polygon class="cls-18" points="439.75 166.81 437.75 168.5 437.81 170.38 439.44 171.38 441.75 170.25 441.94 168.13 439.75 166.81"/><polygon class="cls-18" points="455.75 165.81 453.75 167.5 453.81 169.38 455.44 170.38 457.75 169.25 457.94 167.13 455.75 165.81"/><polygon class="cls-18" points="407.75 177.63 405.75 179.31 405.81 181.19 407.44 182.19 409.75 181.06 409.94 178.94 407.75 177.63"/><polygon class="cls-18" points="424.75 177.75 422.75 179.44 422.81 181.31 424.44 182.31 426.75 181.19 426.94 179.06 424.75 177.75"/><polygon class="cls-18" points="440.25 177.63 438.25 179.31 438.31 181.19 439.94 182.19 442.25 181.06 442.44 178.94 440.25 177.63"/><polygon class="cls-18" points="456.25 176.63 454.25 178.31 454.31 180.19 455.94 181.19 458.25 180.06 458.44 177.94 456.25 176.63"/><polygon class="cls-18" points="424.58 216.67 426.93 217.48 427.38 217.66 431.25 216.5 432.33 214 435.61 215.32 457.11 209.83 451.88 196.25 414.38 206.38 419.21 220.35 423.88 218.92 424.58 216.67"/><polygon class="cls-2" points="421.67 126.17 437.67 126.5 448.17 136.33 444 153.17 424.83 158.33 410.83 152.33 410 135.83 421.67 126.17"/><polygon class="cls-12" points="419 135.67 415.67 136 415.58 147.67 418.5 149.83 418.5 138.83 419 135.67"/><polygon class="cls-5" points="441.33 138 435 131.33 432 133 434.67 135.67 440.67 140.67 441.33 138"/><polygon class="cls-12" points="435 131.33 424.5 130.67 422.33 134 424.67 135.17 434.67 135.67 435 131.33"/><polygon class="cls-5" points="424.5 130.67 424.67 135.17 417.83 137.33 415.67 136 424.5 130.67"/><polygon class="cls-4" points="424.5 133.75 434.83 134.83 440.67 140.67 438.83 149.08 425.17 154.5 418.5 149.83 417.83 137.33 424.5 133.75"/><polygon class="cls-3" points="428.44 134 434.83 134.83 418.5 149.83 418.11 142.39 428.44 134"/><polygon class="cls-3" points="437.63 137.69 440.31 140.75 425.17 154.5 421.63 152 437.63 137.69"/><polygon class="cls-18" points="391.25 111.42 374.67 137.25 339.6 147.73 339.17 152.63 378.17 142.67 395.67 113.33 391.25 111.42"/><polygon class="cls-10" points="385.08 116.58 374.75 133.25 340.15 141.69 339.54 147.75 376.17 138.17 391.17 111.83 385.08 116.58"/><polygon class="cls-4" points="421.13 209.88 423.88 218.92 427.38 217.66 424.75 208.5 421.13 209.88"/><polygon class="cls-4" points="428.5 207.63 431.25 216.5 435.88 215.21 432.5 206.63 428.5 207.63"/><polygon class="cls-1" points="340.69 135.52 325 138.79 323.83 145.33 340.15 141.69 340.69 135.52"/><polygon class="cls-1" points="339.1 153.02 321.94 156.5 320.88 163.56 338.41 161.03 339.1 153.02"/><polygon class="cls-1" points="337.92 178.42 321.42 181.08 322.67 186.67 338.5 184.33 337.92 178.42"/><polygon class="cls-1" points="339.17 192.08 324.42 194.42 326.08 200.17 339.92 198.83 339.17 192.08"/></g><g id="left_table" data-name="left table"><polygon class="cls-11" points="256.67 235 248.5 265 216 261.67 256.67 235"/><polygon class="cls-11" points="51.67 273.33 63.5 299.17 94.67 287.67 60.33 265 51.67 273.33"/><polygon class="cls-5" points="159 280.5 157 324.33 129 317 127.67 299.67 73.5 284 63.5 299.17 40.67 291.33 34 226 170 241.5 159 280.5"/><polygon class="cls-12" points="269.5 197.5 263.5 253.56 248.5 265 240 254 179.5 291.5 178.33 309.33 157 324.33 158 256.5 269.5 197.5"/><polygon class="cls-13" points="148.5 208.5 158 256.5 275.79 207.07 280.5 175 148.5 208.5"/><polygon class="cls-6" points="93 212 22.5 214 23 240 158 256.5 159 239.5 93 212"/><polygon class="cls-14" points="22.5 214 159 239.5 280.5 175 182 164.5 22.5 214"/><polygon class="cls-1" points="22.5 214 66.67 222.5 100.33 210.67 67 200.5 22.5 214"/><polygon class="cls-1" points="211.75 182.19 247.58 182 270.09 173.89 239.98 170.67 211.75 182.19"/><polygon class="cls-1" points="86.17 203.17 160.17 222.67 181.28 208.42 217.13 202.75 211.83 192.75 191.88 187.63 180.02 196.29 132.5 187.17 86.17 203.17"/></g><g id="image_in_the_wall" data-name="image in the wall"><polygon class="cls-13" points="61.5 84.5 82 62.5 167.5 57.25 168.25 135.25 43.25 174.5 36.5 99 61.5 84.5"/><polygon class="cls-1" points="136.25 73.63 135.9 73.24 130.63 67.38 128.5 97.63 156.38 97.25 152.13 76.63 136.25 73.63"/><polygon class="cls-4" points="127.75 103.75 130.5 106 129.38 111.25 112.75 112.38 116.38 128.38 105 133.63 101.25 128.88 114.13 124.75 110.25 110 127.75 103.75"/><polygon class="cls-18" points="131.63 100.25 108.75 109.5 112.75 123 105.63 125.75 100 122.63 101.25 128.88 116.38 128.38 114 110.88 130.5 106 131.63 100.25"/><polygon class="cls-4" points="93.63 79.38 90.38 87.25 94.13 95.25 87.75 95.5 87.88 101.88 111.75 99 117.88 88.38 118.25 79.5 105.88 75.25 93.63 79.38"/><polygon class="cls-16" points="99.79 96.97 99.46 96.03 109.88 92.47 113.14 85.25 109.06 81.51 100.14 81.86 96.55 86.84 97.98 91.71 102.86 91.15 106.45 86.61 102.11 85.92 100.61 88.06 102.1 88.8 101.65 89.7 99.14 88.44 101.64 84.83 108.3 85.89 103.39 92.1 97.27 92.79 95.45 86.66 99.61 80.89 109.44 80.49 114.35 85 110.62 93.28 99.79 96.97"/><polygon class="cls-4" points="101.13 113.5 80.63 120.63 80.38 139.63 101.25 128.88 101.13 113.5"/><polygon class="cls-18" points="84.5 123.31 98.38 118.06 98.19 119.94 84.5 125 84.5 123.31"/><polygon class="cls-18" points="83.94 129.06 98.56 123.5 98.5 125.13 84.31 131.31 83.94 129.06"/><polygon class="cls-15" points="82.17 110.5 47.17 126.25 47.83 104.33 52 102.67 52 119.92 82 106.17 82.17 110.5"/><polygon class="cls-15" points="55.83 105.33 56.08 115.08 61.17 112.83 61.17 103.42 55.83 105.33"/><polygon class="cls-1" points="36.5 99 38.13 117.25 51.5 97 51.04 92.92 36.5 99"/><polygon class="cls-15" points="64 95.17 64.5 111.08 70.58 108.83 69.92 93 64 95.17"/><polygon class="cls-15" points="72.92 86.5 74.42 106 79.75 103.5 78.33 84.25 72.92 86.5"/><circle class="cls-19" cx="145.06" cy="78.19" r="5.06"/><circle class="cls-19" cx="145.06" cy="78.19" r="2.56"/><polygon class="cls-14" points="130.63 67.38 155.5 64.13 158.38 93.63 132.13 95.25 130.63 67.38"/><polygon class="cls-18" points="138.5 87.75 152.63 86 153 89 139.38 90.5 138.5 87.75"/><polygon class="cls-16" points="142.25 62.13 142.28 62.62 142.75 69.63 146 69 145.5 61.5 142.25 62.13"/><polygon class="cls-14" points="82 62.5 55.5 100.5 36.5 99 82 62.5"/><polygon class="cls-18" points="143.88 74.42 138.25 84.75 151.96 82.79 143.88 74.42"/></g><g id="something_on_the_left_table" data-name="something on the left table"><polygon class="cls-20" points="133.58 199.58 139 210.5 153.75 208.08 140.25 198 133.58 199.58"/><polygon class="cls-21" points="145.56 126.19 143 130.25 139 153 139.75 155.44 145.56 126.19"/><polygon class="cls-21" points="141.69 155.5 143.44 149.38 148.63 150.19 148.44 151.56 144.63 151.38 142.94 156.5 141.69 155.5"/><polygon class="cls-21" points="143.81 156.88 145.81 152.69 150.25 155.38 149.31 156.31 146.44 155.06 145.31 157 143.81 156.88"/><polygon class="cls-21" points="150.13 161.5 148.25 157.19 143.75 159.63 143.42 160.92 147.25 159.31 148.63 161.88 150.13 161.5"/><polygon class="cls-22" points="137.5 160.69 133.44 161.56 133.13 166.94 134.94 166.81 135.13 162.5 137.94 161.88 137.5 160.69"/><polygon class="cls-22" points="138.06 157.81 131.69 158.13 129.81 162.69 131.5 163.06 132.69 159.75 138.44 160 138.06 157.81"/><polygon class="cls-22" points="138.19 155.94 133.13 153.5 129.94 156.25 130.94 157.44 133.25 155.63 135.69 157.25 138.19 155.94"/><polygon class="cls-22" points="143.56 161.44 145.31 157 139 153 137.88 158.75 136.75 161.81 140.88 162.88 143.56 161.44"/><polygon class="cls-21" points="143.56 161.44 140.5 160.25 139 153 135.69 157.25 136.75 161.81 140.88 162.88 143.56 161.44"/><polygon class="cls-23" points="149.38 103.13 143.38 103.5 120.5 145.38 124.88 145.5 143.5 108.5 149.38 103.13"/><polygon class="cls-24" points="154.88 113.38 159.38 115.88 164.88 120.38 152.13 125.88 148.38 116.63 154.88 113.38"/><polygon class="cls-25" points="145.63 112 148.63 104.63 153.63 107.75 159.38 115.88 151.38 118.75 145.63 112"/><polygon class="cls-25" points="146 116.75 143.25 124.38 143 130.25 152.13 125.88 151.38 118.75 146 116.75"/><polygon class="cls-23" points="147.25 104.5 143.5 108.5 143.25 124.38 151.38 118.75 147.25 104.5"/><polygon class="cls-26" points="126.75 178.63 130.38 173.13 121.63 172.88 116.04 175.67 124.88 181.5 126.75 178.63"/><polygon class="cls-23" points="119.38 178.25 120.88 175.63 120.25 146.88 124.5 147 124.88 176 121.75 180.13 119.38 178.25"/><polygon class="cls-27" points="121.63 177.75 124.88 176 130.38 173.13 130.38 183.88 122 184.63 121.63 177.75"/><polygon class="cls-28" points="116.04 175.67 117.63 186.38 124.88 186.38 124.88 176 116.04 175.67"/><polygon class="cls-29" points="237.92 174 258.08 172.67 260.08 169.67 268.08 171.25 267.71 173.63 261.33 176.75 258.42 175.33 237.5 177.67 237.92 174"/><polygon class="cls-26" points="232.08 175.83 235.5 171.5 239.08 170.83 239.33 180.5 235.33 180.67 232.08 175.83"/><polygon class="cls-28" points="219.42 178.83 221 174 235.5 171.5 235.33 180.67 222.25 180.92 219.42 178.83"/><polygon class="cls-30" points="192.83 181.42 192.92 158.75 195 158.67 195.75 181.17 192.83 181.42"/><polygon class="cls-23" points="190.17 184.25 191.5 180.58 197.17 180.17 199.08 183.42 190.17 184.25"/><polygon class="cls-23" points="186.08 194.33 182.92 197.58 184.5 204.92 210.58 198.33 211.83 192.75 186.08 194.33"/><path class="cls-26" d="M165.88,207.62l-5.5,7.88-8.13-1.62s-.13-7.13-5-8S139,210.5,139,210.5l-38.5-10.75,3.5-11.87,33.12-4,33.5,16.62Z"/><polygon class="cls-27" points="163.88 191.88 160.63 200.75 160.38 215.5 177.75 203.88 178.25 190.63 163.88 191.88"/><polygon class="cls-28" points="153.63 191 164.25 187.38 178.25 190.63 160.63 200.75 148.25 198.75 153.63 191"/><polygon class="cls-26" points="150 186.38 147.63 178 130.38 180.38 104 187.88 125.75 187.25 150 186.38"/><path class="cls-21" d="M133.83,213.12v4c0,1.35,2.9,2.45,6.48,2.45s6.48-1.1,6.48-2.45v-4Z"/><path class="cls-21" d="M123.5,201.75a6.19,6.19,0,0,0-6.19-6.19,15.89,15.89,0,0,0-4.75,1.33l-.18.19.24.65a6.14,6.14,0,0,0-1.5,4,6.21,6.21,0,0,0,4.13,5.83l1.56.95,3.44-1.34A6.16,6.16,0,0,0,123.5,201.75Z"/><polygon class="cls-23" points="53.63 175.5 57.75 170.13 82.63 174 69.25 188.63 52.75 182.63 53.63 175.5"/><polygon class="cls-31" points="54.5 189.13 43.25 174.5 57.75 170.13 57.5 186.88 54.5 189.13"/><polygon class="cls-26" points="61 191.13 71.38 181.25 82.63 174 77.5 207.13 68.25 218 61 191.13"/><polygon class="cls-28" points="46.5 184.88 50.13 180.38 71.38 181.25 68.25 218 50.13 216.38 46.5 184.88"/><polygon class="cls-27" points="43.25 174.5 45.63 211 50.13 216.38 50.13 180.38 43.25 174.5"/><circle class="cls-5" cx="114.44" cy="202.81" r="6.19"/><path class="cls-26" d="M116.24,203.39a2.31,2.31,0,1,1-2.1-2.51A2.31,2.31,0,0,1,116.24,203.39Z"/><ellipse class="cls-5" cx="140.31" cy="213.13" rx="6.48" ry="2.46"/><path class="cls-26" d="M144.17,213.08c0,.53-1.68,1-3.75,1s-3.75-.43-3.75-1,1.68-1,3.75-1S144.17,212.55,144.17,213.08Z"/><polygon class="cls-27" points="125.83 187.13 148.25 198.75 164.25 187.38 147.71 177.83 125.83 187.13"/><polygon class="cls-26" points="135.13 188.25 148.5 181.5 157.25 187.13 145 193.38 135.13 188.25"/><polygon class="cls-28" points="164.75 202 174.13 196.38 170.63 205.13 164.75 202"/><polygon class="cls-25" points="182.92 184.25 206.58 181.25 211.83 192.75 182.92 197.58 182.92 184.25"/><path class="cls-31" d="M193.32,188.65c.34,1.41-.89,2.91-2.75,3.36s-3.63-.33-4-1.74.89-2.92,2.74-3.36S193,187.24,193.32,188.65Z"/><path class="cls-31" d="M206.4,186.31c.34,1.41-.89,2.92-2.74,3.37s-3.64-.33-4-1.74.89-2.92,2.75-3.37S206.06,184.9,206.4,186.31Z"/><polygon class="cls-26" points="217.75 174.67 218.17 181 222.25 180.92 221 174 217.75 174.67"/><polygon class="cls-28" points="123.25 144.38 127.63 144.5 126.88 153.63 122.88 153.75 120.5 149.18 123.25 144.38"/><polygon class="cls-26" points="117.63 144.38 123.25 144.38 122.88 153.75 117.75 154 117.63 144.38"/><polygon class="cls-31" points="143.38 103.5 143.5 108.5 153.63 107.75 152.38 100.5 143.38 103.5"/><circle class="cls-5" cx="142" cy="163.94" r="3.87"/><circle class="cls-11" cx="141.31" cy="164.38" r="1.19"/><path class="cls-21" d="M144.88,163.34a.72.72,0,1,1-.72-.72A.72.72,0,0,1,144.88,163.34Z"/></g><g id="main_character" data-name="main character"><polygon class="cls-26" points="541.92 258.63 552.75 273.26 567.82 269.48 578.82 260.57 566.81 214.59 545.92 246.46 541.92 258.63"/><polygon class="cls-20" points="552.75 273.26 566.02 292.14 582.43 288.24 585.09 284.08 578.82 260.57 552.75 273.26"/><polygon class="cls-28" points="499.83 214.17 566.81 214.59 545.92 246.46 527.87 238.07 499.83 214.17"/><polygon class="cls-27" points="545.92 246.46 540.43 269.48 525.25 275.76 510.08 270.23 499.83 214.17 545.92 246.46"/><polygon class="cls-26" points="540.43 269.48 535.55 290.22 526.44 294.93 514.52 294.13 510.08 270.23 540.43 269.48"/><polygon class="cls-23" points="535.55 290.22 542.21 305.77 528.42 307.27 514.15 305.77 514.52 294.13 535.55 290.22"/><polygon class="cls-23" points="585.09 284.08 604.1 301.99 582.04 303.48 566.37 301.99 566.02 292.14 585.09 284.08"/><rect class="cls-32" x="514.15" y="305.77" width="28.06" height="4.89"/><rect class="cls-32" x="566.37" y="301.99" width="37.73" height="4.89"/><polygon class="cls-33" points="503.47 133.51 537.65 168.86 547.17 131.93 524.58 128.37 503.47 133.51"/><polygon class="cls-34" points="546.39 46.6 554.44 37.89 563.61 36.16 576.92 109.23 552.85 115.35 524.21 117.32 510.29 67.66 507.5 44.25 527.35 41.85 546.39 46.6"/><polygon class="cls-35" points="541.43 120.58 576.92 109.23 524.21 118.82 513.5 65.39 507.5 44.25 495.76 58.6 499.09 69.74 507.24 83.39 503.57 84.38 501.5 88.35 497.17 85.23 493.67 77.65 489.78 83.62 485.06 86.27 492.07 92.03 495.24 99.05 497.26 103.47 498.31 112.32 503.33 134.02 547.17 131.93 541.43 120.58"/><polygon class="cls-36" points="567.48 57.4 570.92 31.99 557.9 34.1 567.48 57.4"/><polygon class="cls-25" points="570.47 139.54 588.33 150.17 592 178.83 557.17 176 561.01 159.06 570.47 139.54"/><polygon class="cls-35" points="519.77 62.26 535.79 70.57 545.08 86.79 543.97 71.7 541.43 63.56 519.77 62.26"/><polygon class="cls-35" points="551.35 56.78 549 62.52 548.64 68.47 551.65 75.77 564.92 54.17 558.65 47.12 551.35 56.78"/><polygon class="cls-36" points="541.43 63.56 521.08 57.3 519.77 62.26 537.78 68 541.43 63.56"/><polygon class="cls-36" points="549 53.65 558.65 47.12 564.92 54.17 561.26 57.04 556.96 52.08 551.35 56.78 549 53.65"/><polygon class="cls-37" points="549 62.52 553.43 84.7 549.89 87.1 545.08 86.79 541.43 63.56 549 62.52"/><polygon class="cls-38" points="561.78 98.67 545.96 99.73 533.65 95.98 535.67 91.08 528.91 95.41 530.66 103.89 533.04 99.32 545.96 103.08 561.78 98.67"/><polygon class="cls-34" points="501.5 88.35 503.33 92.53 495.24 99.05 485.06 86.27 493.67 77.65 501.5 88.35"/><polygon class="cls-21" points="546.39 46.6 570.92 31.99 544.82 15.54 542.8 32.57 546.39 46.6"/><polygon class="cls-29" points="546.39 46.6 544.82 15.54 476.97 41.12 491.61 45.59 507.5 44.25 546.39 46.6"/><polygon class="cls-21" points="476.97 41.12 474.36 80.78 486.2 70.79 495.76 58.6 507.5 44.25 476.97 41.12"/><polygon class="cls-36" points="495.76 58.6 507.24 83.39 501.5 88.35 493.67 77.65 485.06 86.27 474.36 80.78 495.76 58.6"/><polygon class="cls-38" points="489.76 86.79 492.89 83.66 496.81 90.18 489.76 86.79"/><polygon class="cls-38" points="495.24 99.05 500.98 94.36 498.4 112.74 495.24 99.05"/><polygon class="cls-38" points="553.43 84.7 549.78 90.7 545.08 86.79 553.43 84.7"/><polygon class="cls-23" points="503.47 133.51 535.69 157.5 517.15 172.23 494.33 186.29 494 168.33 481.31 145.62 503.47 133.51"/><polygon class="cls-23" points="547.17 131.93 570.47 139.54 563.37 163.17 550.27 165.97 535.69 157.5 547.17 131.93"/><polygon class="cls-31" points="494.33 186.29 499.83 214.17 508.5 215.26 542.06 218.69 542.21 185.43 535.69 157.5 494.33 186.29"/><polygon class="cls-39" points="535.69 157.5 563.37 163.17 566.81 214.59 542.06 218.69 535.69 157.5"/><path class="cls-40" d="M561.06,64.83a3.17,3.17,0,1,1-3.16-3.16A3.16,3.16,0,0,1,561.06,64.83Z"/><circle class="cls-40" cx="532.63" cy="70.57" r="3.17"/><polygon class="cls-38" points="515.17 118.49 576.92 109.23 547.17 122.28 547.17 131.93 515.17 118.49"/><polygon class="cls-41" points="614.42 133.08 615.42 116.08 623.08 92.08 628.08 92.08 617.75 137.08 614.42 133.08"/><polygon class="cls-23" points="613.75 131.42 633.75 139.42 610.42 190.08 591.08 192.08 599.08 132.75 613.75 131.42"/><polygon class="cls-25" points="590.75 135.08 582.75 116.75 615.42 116.08 633.75 139.42 609.08 142.08 590.75 135.08"/><polygon class="cls-28" points="582.75 116.75 577.08 180.75 591.08 192.08 609.08 142.08 582.75 116.75"/><polygon class="cls-27" points="585 132.92 581 170.25 589.75 173.75 598.33 144.92 585 132.92"/><polygon class="cls-26" points="585 132.92 581 170.25 587.83 158.83 591.96 139.08 585 132.92"/><polygon class="cls-35" points="564.42 170.08 579.3 156.02 593.71 160.83 589.75 173.75 577.08 180.75 564.42 170.08"/><polygon class="cls-34" points="550.75 175.08 563.75 164.08 579.3 156.02 577.08 180.75 564.08 180.08 550.75 175.08"/><polygon class="cls-23" points="510.75 185.75 528.08 172.08 563.75 164.08 564.08 180.08 525.08 199.75 510.75 185.75"/><polygon class="cls-25" points="481.31 145.62 494.42 186.42 525.08 199.75 528.08 172.08 481.31 145.62"/><polygon class="cls-23" points="624.08 81.75 620.42 88.08 623.08 92.08 627.75 94.08 631.75 89.75 632.08 84.08 624.08 81.75"/><polygon class="cls-34" points="616.33 161.33 627.08 153.83 631.33 166.58 621.83 178.08 615.83 178.08 616.33 161.33"/><polygon class="cls-35" points="612.83 158.08 627.08 153.83 615.83 178.08 608.83 169.83 612.83 158.08"/></g></svg>