<svg id="ILLUSTRATION" xmlns="http://www.w3.org/2000/svg" viewBox="0 0 900 350"><defs><style>.cls-1{fill:#cdcdcc;}.cls-1,.cls-10,.cls-11,.cls-12,.cls-13,.cls-14,.cls-16,.cls-18,.cls-19,.cls-2,.cls-20,.cls-21,.cls-22,.cls-23,.cls-24,.cls-25,.cls-26,.cls-27,.cls-29,.cls-3,.cls-30,.cls-31,.cls-32,.cls-33,.cls-34,.cls-35,.cls-36,.cls-37,.cls-38,.cls-4,.cls-40,.cls-41,.cls-5,.cls-6,.cls-7,.cls-8,.cls-9{fill-rule:evenodd;}.cls-2{fill:#dcdcdb;}.cls-28,.cls-3,.cls-34{fill:#2b2b2b;}.cls-3{opacity:0.1;}.cls-4{fill:#848585;}.cls-5{fill:#9ca0a1;}.cls-17,.cls-6{fill:#8f759f;}.cls-7{fill:#785d87;}.cls-8{fill:#a587b9;}.cls-9{fill:#734d60;}.cls-10{fill:#b2879c;}.cls-11,.cls-15{fill:#95637c;}.cls-12{fill:#a2a2a2;}.cls-13{fill:#ebebea;}.cls-14{fill:#c3c3c3;}.cls-16{fill:#d0a0b7;}.cls-18{fill:#737373;}.cls-19{fill:#8e8e8e;}.cls-20{fill:#fce3d4;}.cls-21{fill:#f4c9b2;}.cls-22{fill:#c1907d;}.cls-23{fill:#4f5253;}.cls-24{fill:#474747;}.cls-25{fill:#ffefe7;}.cls-26{fill:#594165;}.cls-27{fill:#fff;}.cls-29{fill:#b08c79;}.cls-30{fill:#906a59;}.cls-31{fill:#66483a;}.cls-32{fill:#b99d8d;}.cls-33{fill:#6f7173;}.cls-35{fill:#c2977b;}.cls-36{fill:#8a6651;}.cls-37{fill:#debca4;}.cls-38,.cls-39{fill:#543042;}.cls-40{fill:#fefefe;}.cls-41{fill:#e7c9b5;}</style></defs><title>analysts_Debater_ENTP_friendships</title><g id="wall"><polygon class="cls-1" points="349 74 358.5 20 900 14.13 893 262.5 358.5 236 349 74"/><polygon class="cls-2" points="7 317 358.5 236 358.5 20 0 0.67 7 317"/></g><g id="shadows"><polygon class="cls-3" points="115.5 178.5 81.11 188.59 7 317 239.63 350 374.25 316.5 297 298.5 115.5 178.5"/><polygon class="cls-3" points="324 285.75 327 290.75 359.17 297.17 469.67 266.67 344 248.5 305.25 261 324 285.75"/><polygon class="cls-3" points="458.67 277.33 376.33 300.33 485.67 309.33 513.33 321 593 313 615 321.33 648.33 314 761.5 326.5 861.5 279 662 271 458.67 277.33"/></g><g id="table"><polygon class="cls-4" points="418.5 259.17 415.5 272.67 408.17 271.33 397.17 241.83 415.33 242.5 418.5 259.17"/><polygon class="cls-4" points="388.67 233.67 367 288 354.06 286.09 351.5 258.33 328.67 255 327.5 282.16 319.67 281 312 226.67 388.67 233.67"/><polygon class="cls-5" points="425 229.67 423.58 270.67 415.5 272.67 412 250.33 381.33 257.17 376.77 284.8 367 288 368.33 243.67 425 229.67"/><polygon class="cls-6" points="354.67 213 357 232.33 367.75 253.5 433.67 239.67 425.5 211.25 354.67 213"/><polygon class="cls-7" points="361 213 292.67 213 289 235.75 332 246.75 367.75 253.5 369.25 225 361 213"/><polygon class="cls-8" points="292.67 213 358.25 203.25 425.5 211.25 369.25 225 292.67 213"/></g><g id="Layer_10" data-name="Layer 10"><polygon class="cls-3" points="336.75 211 362.38 216.5 384 210.63 358.75 207 336.75 211"/><polygon class="cls-9" points="354 200.63 347.91 191.88 358.5 189 374.09 192.04 354 200.63"/><polygon class="cls-10" points="358.96 199.53 361.17 193.24 374.09 192.04 370.61 210.91 361.17 213.13 358.96 199.53"/><polygon class="cls-11" points="347.91 191.88 349.44 210.24 361.17 213.13 361.17 193.24 347.91 191.88"/></g><g id="Layer_11" data-name="Layer 11"><polygon class="cls-3" points="431.33 71.33 461.99 61.35 469.33 151 395.67 148.33 388.67 95.67 431.33 71.33"/><polygon class="cls-12" points="387.33 61.89 388.41 142.1 462.17 145.07 461.99 61.35 387.33 61.89"/><polygon class="cls-13" points="455.7 70.75 455.86 100.21 425.59 119.67 394.65 102.56 393.69 71.02 455.7 70.75"/><polygon class="cls-1" points="455.86 100.21 455.93 113.49 425.35 115.39 394.78 106.7 394.65 102.56 416.99 96.72 455.86 100.21"/><polygon class="cls-14" points="455.93 113.49 455.98 122.6 419.8 127.7 395.28 123.2 394.78 106.7 419.16 111.02 455.93 113.49"/><polygon class="cls-1" points="455.95 117.96 456.04 134.07 395.54 131.69 395.22 121.38 455.95 117.96"/></g><g id="chat_bubble" data-name="chat bubble"><polygon class="cls-13" points="73.25 16 35.58 49 61.92 122.33 134.25 132 178.58 104 212.92 107 187.58 91.33 196.92 55.67 141.25 15.33 73.25 16"/><path class="cls-15" d="M64,49.67l35.46-.53,0,2.54L64,52.21Zm-.51,7.69,33.58.27,0,2.53-33.58-.27Zm0,8.75,25.25-.27,0,2.54-25.25.26ZM62.4,42.24h40.83v2.55H62.4Z"/><polygon class="cls-16" points="70.05 80.5 77.44 80.5 78.92 84.74 78.38 89.91 74.08 89.91 69.11 85.8 70.05 80.5"/><polygon class="cls-16" points="82.54 82.62 88.86 80.5 90.87 87.13 84.42 89.64 82.54 82.62"/><polygon class="cls-16" points="100 78.91 96.65 83.68 100.14 88.85 106.86 86.2 106.86 80.89 100 78.91"/><path class="cls-15" d="M123.58,82,139.43,52.6l.64-.57,25-4,1,2.33-24.56,3.8-15.63,29Zm-8.86-41.78L118.39,91l47.37-2.2.12,2.54-48.62,2.25-1.26.06-.09-1.24-3.76-52Z"/><polygon class="cls-13" points="826 21.5 777 47 769 88 785.5 105 760 117 806.83 113.67 824.67 127.83 876 116.5 894.5 76.5 867 26.5 826 21.5"/><path class="cls-17" d="M790,70.94l37.83-2.63.22,3L790.22,74Zm1,11.49L828.8,79.8l.22,3-37.83,2.63Zm-.25,13.64,37.83-2.63.22,3L791,99.12Zm46.11-9,11.64-16.75,1.3-1.87,1.27,1.89,5.17,7.76,6.5-11,.81-1.37,1.35.83,4.61,2.84,4.07-5.5-3.07-.26.25-3,5.82.47,1.2.1.19,1.18,1,5.74-3.06.5-.36-2.16-4.38,5.92-.85,1.15-1.21-.75-4.47-2.75-7,11.79-1.26,2.13L855,81.8l-5.27-7.91L839.4,88.76ZM790,62.45l37.83-2.63.22,3L790.22,65.5Z"/></g><g id="chair"><polygon class="cls-2" points="568.6 108.4 804.17 128.99 799.8 178.91 574.64 140.47 568.6 108.4"/><path class="cls-4" d="M745.94,258.7c-4.39.24-26.78,1.1-26.78,1.1L606.53,255l-11.24-34.64,7-32.59,38-3.91L720.07,212l25-1.93Z"/><polygon class="cls-4" points="719.2 257.52 703.93 257 606.39 252.54 612 300.33 717.83 305.69 726.14 303.59 719.2 257.52"/><polygon class="cls-3" points="703.93 257 614.73 252.9 597.97 264.16 612 300.33 651.5 302.17 660.21 269.8 703.93 257"/><polygon class="cls-12" points="663.36 131.58 578.57 122.16 504.9 123.12 460.19 222.94 540.87 227.44 584.13 229.51 602.07 189.11 626.92 183.81 663.36 131.58"/><polygon class="cls-4" points="594.56 254.67 563.4 262.33 460.04 246.53 473.73 204.04 596.51 212.06 594.56 254.67"/><polygon class="cls-18" points="459.22 291.64 449.25 240.75 596.05 244.3 584.49 291.84 574.65 298.58 459.22 291.64"/><path class="cls-12" d="M663.36,131.58l135.71,10.26-13.9,73.21L735,222.44l-94.78-38.57-13.29,0v0L617.3,155.5Z"/><polygon class="cls-3" points="685.58 127.69 754.8 128.4 765.06 139.85 744.76 155.02 751.08 199.33 743.19 214.52 639.51 211.15 685.58 127.69"/><polygon class="cls-12" points="433.75 188.57 434 289.45 459.22 291.64 460.04 246.53 485.89 243.25 460.43 187.11 459.78 181.32 433.75 188.57"/><polygon class="cls-1" points="468.67 170.79 433.75 188.57 460.43 187.11 466.57 183.71 472.05 177.51 468.67 170.79"/><polygon class="cls-19" points="713.04 198.23 710.54 305.69 744.51 307.83 755.48 252.86 743.8 199.33 713.04 198.23"/><polygon class="cls-14" points="749 184.75 713.04 198.23 743.8 199.33 776.59 196.19 782.49 185.28 749 184.75"/><polygon class="cls-4" points="810 289.66 744.51 307.83 743.8 199.33 782.49 185.28 784.13 141.02 804.9 128.99 810 289.66"/><polygon class="cls-19" points="578.02 191.02 574.65 298.58 612 300.33 616.33 228.83 617.17 191.5 597.15 187.47 578.02 191.02"/><polygon class="cls-1" points="640.22 183.87 603.49 183.34 578.02 191.02 617.17 191.5 640.22 183.87"/></g><g id="_3rd_character" data-name="3rd character"><polygon class="cls-20" points="658.17 35.72 632.76 108.49 668.27 124.41 672.89 134.93 680.83 131.54 705.41 122.81 711.05 60.72 658.17 35.72"/><polygon class="cls-21" points="661.04 87.94 657.39 87.8 657.48 73.81 654.72 57.98 663.31 59.89 666.72 65 668.28 67.84 669.59 71.99 674.27 70.69 679.83 70.91 689.26 72.9 695.61 79.68 678.91 83.14 663.83 91.31 661.04 87.94"/><polygon class="cls-22" points="665.82 155.86 663.54 140.83 669.19 131.54 668.29 124.28 681.3 130.45 695.12 132.89 690.16 145.58 665.82 155.86"/><polygon class="cls-21" points="665.28 171.02 694.24 168.87 705.27 142.51 741.94 80.23 711.05 60.72 681.3 130.45 691.5 137.9 666.53 153.21 665.28 171.02"/><polygon class="cls-22" points="715.91 124.99 721.52 114.88 712.64 110.3 715.91 124.99"/><polygon class="cls-21" points="717.54 95.62 728.92 102.14 722.02 115.24 710.9 110.41 717.54 95.62"/><polygon class="cls-22" points="716.43 105.19 719.83 99.52 724.49 101.82 716.43 105.19"/><polygon class="cls-23" points="707.91 68.08 708.83 105.67 712.07 107.07 718.74 94.16 729.8 100.17 743.24 99.55 752.93 70.69 742.49 56.44 722.04 52.95 707.91 68.08"/><polygon class="cls-18" points="745.11 158.09 712.47 130.29 730.35 100.17 752.93 70.69 749.07 113.83 764.74 142.97 745.11 158.09"/><polygon class="cls-23" points="780.22 140.74 745.11 158.09 749.07 113.83 780.22 140.74"/><polygon class="cls-18" points="696.05 23.77 742.49 56.44 707.91 68.08 689.91 50.72 696.05 23.77"/><polygon class="cls-23" points="643.84 34.51 696.05 23.77 701.17 42.88 707.91 68.08 656.75 41.28 651.25 47.49 643.84 34.51"/><polygon class="cls-24" points="647.88 65.24 643.84 34.51 656.75 41.28 647.88 65.24"/><polygon class="cls-23" points="654.72 57.98 664.94 58.2 666.72 65 654.72 57.98"/><polygon class="cls-23" points="679.83 70.91 690.27 69.6 695.61 79.68 679.83 70.91"/><polygon class="cls-25" points="668.28 67.84 657.39 87.8 663.83 91.31 674.27 70.69 668.28 67.84"/><polygon class="cls-22" points="657.83 94.16 657.39 87.8 663.83 91.31 657.83 94.16"/><polygon class="cls-11" points="637.79 163.76 663.36 131.58 669.19 131.54 669.57 158.78 687.39 171.75 675.29 188.01 652.78 179.33 637.79 163.76"/><polygon class="cls-11" points="699.88 199.9 669.42 182.82 669.57 158.78 705.36 138.49 718.85 148.22 719.71 170.63 699.88 199.9"/><polygon class="cls-9" points="705.08 212.47 696.69 198.68 694.15 188.38 718.85 148.22 726.21 173.81 705.08 212.47"/><polygon class="cls-11" points="658.76 210.69 696.01 213.04 706.44 210.42 694.15 188.38 659.67 191.29 658.76 210.69"/><polygon class="cls-9" points="641.59 195.18 636.51 190.96 640.22 183.87 637.79 163.76 669.97 177.77 694.15 188.38 641.59 195.18"/><polygon class="cls-20" points="615.57 198.35 627.14 189.85 623.89 201.32 622.86 211.06 615.57 198.35"/><polygon class="cls-22" points="642.79 206.91 622.86 211.06 623.89 201.32 641.59 195.18 645.76 196.49 642.79 206.91"/><polygon class="cls-20" points="659.58 192.93 641.59 195.18 641.96 206.94 659.72 208.3 659.58 192.93"/><polygon class="cls-26" points="713.41 235.28 706.44 210.42 641.96 206.94 688.31 233.3 713.41 235.28"/><polygon class="cls-7" points="703.93 257 713.41 235.28 641.96 206.94 622.86 211.06 663.44 246.78 703.93 257"/><polygon class="cls-26" points="652.46 256.01 703.93 257 622.86 211.06 634.76 253.78 652.46 256.01"/><polygon class="cls-23" points="745.11 158.09 705.36 138.49 730.35 100.17 745.11 158.09"/><polygon class="cls-21" points="641.59 195.18 637.29 191.61 632.11 191.68 627.14 189.85 623.88 201.32 641.96 206.94 641.59 195.18"/><polygon class="cls-9" points="636.53 187.42 640.22 183.87 641.59 195.18 636.85 191.3 636.53 187.42"/><polygon class="cls-20" points="632.11 191.68 636.53 187.42 641.59 195.18 632.11 191.68"/><polygon class="cls-7" points="649.58 99.42 660.08 98.6 669.55 105.51 673.26 107.55 669.14 108.97 660.7 112.42 652.45 109.17 649.58 99.42"/><polygon class="cls-27" points="651.79 100.28 658.06 101.45 669.35 107.5 664.04 109.22 657.35 106.02 653.28 104.8 651.79 100.28"/><circle class="cls-28" cx="656.26" cy="73.49" r="3.6"/><circle class="cls-28" cx="680.26" cy="83.09" r="3.6"/><polygon class="cls-9" points="579.93 270.53 564.09 268.35 563.08 273.54 603.84 295.4 606.16 290.75 579.93 270.53"/><polygon class="cls-11" points="599.88 263.43 587.59 264.59 564.09 268.35 606.16 290.75 614.63 276 599.88 263.43"/><polygon class="cls-9" points="640.04 287.2 648.61 287.11 651.38 291.16 616.41 312.75 612.72 309.33 640.04 287.2"/><polygon class="cls-11" points="633.49 268.07 618.99 286.58 612.72 309.33 648.61 287.11 633.49 268.07"/><polygon class="cls-7" points="660.21 269.8 622.86 211.06 615.07 259.37 618.99 286.58 660.21 269.8"/><polygon class="cls-26" points="587.59 264.59 618.99 285.76 622.8 211.14 587.59 264.59"/></g><g id="_2nd_character" data-name="2nd character"><path class="cls-3" d="M573.56,160l-5.24-27.82-58-8.83c-8.13,26-24.66,79.15-30.7,100.71l61.27,3.42,5.86-17.84,10.07-19L578,191l25.47-7.68Z"/><polygon class="cls-24" points="581.12 170.76 576.46 156.34 570.71 138.9 559.03 134.1 533.34 130.34 529.48 139.56 549.09 158.72 581.12 170.76"/><polygon class="cls-9" points="491.22 155.95 468.67 170.79 466.47 184.06 463.49 189.81 460.05 211.72 482.83 239.24 513.78 229.16 552.68 186.74 529.38 159.19 529.71 135.18 496.14 122.44 491.22 155.95"/><polygon class="cls-23" points="580.34 61.29 578.37 126.74 587.13 178.14 556.21 166.53 557.98 141.61 560.62 133.14 563.95 123.12 580.34 61.29"/><polygon class="cls-11" points="518.13 221.83 480.75 200.99 474.88 186.01 502.7 185.1 530.09 208.76 518.13 221.83"/><polygon class="cls-9" points="578.02 191.02 552.68 186.74 508.62 171.35 548.05 146.26 574.72 162.38 583.61 165.88 578.02 191.02"/><polygon class="cls-10" points="584.37 142.5 605.43 183.28 578.02 191.02 570.66 149.81 574.64 140.47 584.37 142.5"/><polygon class="cls-29" points="578.57 122.16 584.37 142.5 570.66 149.81 561.62 138.34 564 127.86 578.57 122.16"/><polygon class="cls-11" points="527.5 186.56 552.68 186.74 548.05 146.26 529.71 135.18 521.94 147.8 516.11 166.92 527.5 186.56"/><polygon class="cls-11" points="466.57 183.71 527.5 186.56 524.58 166.17 521.94 147.8 497.23 113.88 474.88 132.62 466.57 183.71"/><polygon class="cls-30" points="529.34 143.66 519.72 159.52 492.13 130.23 491.76 126.65 486.57 67.66 511.44 59.11 503.63 128.7 530.27 133.77 529.34 143.66"/><polygon class="cls-31" points="492.52 108.39 499.01 103.29 492.65 104.77 492.52 108.39"/><polygon class="cls-31" points="494.55 128.04 503.63 128.7 537.44 130.22 529.34 143.66 494.55 128.04"/><polygon class="cls-29" points="574.14 67.52 564.59 118.61 562.54 137.33 503.63 128.7 511.44 59.11 574.14 67.52"/><polygon class="cls-30" points="524.78 77.5 514.5 76.98 518.97 86.59 533.67 102.67 539.58 103.84 551.86 93.3 565.6 91.22 550.46 85.62 545.26 85.39 541.23 88.64 535.79 84.22 531.3 81.65 524.78 77.5"/><polygon class="cls-30" points="500.56 83.86 493.13 87.36 492.6 104.95 500.15 103.28 500.56 83.86"/><polygon class="cls-31" points="494.06 90.36 498.6 88.41 498.31 97.86 494.06 90.36"/><polygon class="cls-7" points="505.71 272.07 460.04 246.53 477.34 232.99 518.16 221.78 551.76 227.95 545.57 253.06 505.71 272.07"/><polygon class="cls-18" points="506.45 54.34 511.44 59.11 556.31 67.78 578.17 59.42 563.1 37.36 505.11 32.9 506.45 54.34"/><polygon class="cls-23" points="500.56 83.86 512.23 59.48 505.11 32.9 480.88 60.78 488.97 82.17 493.13 87.36 500.56 83.86"/><polygon class="cls-23" points="580.34 61.29 563.1 37.36 556.31 67.78 572.74 75.96 576.53 75.53 580.34 61.29"/><polygon class="cls-23" points="514.5 76.98 527.51 73.71 531.3 81.65 514.5 76.98"/><polygon class="cls-24" points="572.74 75.96 558.44 137.13 564.59 128.31 580.34 61.29 572.74 75.96"/><polygon class="cls-23" points="550.46 85.62 559.98 81.75 565.6 91.22 550.46 85.62"/><polygon class="cls-32" points="535.79 84.22 533.67 102.67 539.58 103.84 545.25 85.39 535.79 84.22"/><polygon class="cls-31" points="535.32 106.87 533.67 102.67 539.58 103.84 535.32 106.87"/><polygon class="cls-33" points="460.25 211.51 460.43 187.11 466.57 183.71 460.25 211.51"/><polygon class="cls-29" points="531.71 224.76 518.15 221.78 527.2 206.46 547.19 208.78 543.52 226.45 531.71 224.76"/><polygon class="cls-30" points="540.72 230.91 531.77 224.81 547.19 208.78 551.76 227.95 540.72 230.91"/><polygon class="cls-6" points="460.04 246.53 518.15 221.78 460.25 211.51 460.07 242.11 460.04 246.53"/><polygon class="cls-24" points="480.88 60.78 474.87 132.96 491.93 130.64 493.13 87.36 480.88 60.78"/><polygon class="cls-30" points="563.26 116.42 578.57 122.16 561.62 138.34 552.61 135.96 563.26 116.42"/><polygon class="cls-31" points="558 141.76 552.34 135.82 561.62 138.34 558 141.76"/><polygon class="cls-7" points="518.42 112.22 535.42 112.54 550.11 118.71 541.12 126.82 525.89 123.74 518.42 112.22"/><polygon class="cls-27" points="522.81 113.84 525.79 118.67 543.33 121.41 546.06 118.71 534.98 116 522.81 113.84"/><path class="cls-34" d="M526,88.16a3.65,3.65,0,1,1-3.65-3.65A3.65,3.65,0,0,1,526,88.16Z"/><path class="cls-34" d="M554.68,94.14A3.65,3.65,0,1,1,551,90.49,3.65,3.65,0,0,1,554.68,94.14Z"/><polygon class="cls-10" points="480.75 200.99 460.8 174.72 474.88 132.62 502.7 185.1 480.75 200.99"/><polygon class="cls-9" points="509.98 300.66 501.79 304.75 501.79 309.4 529.11 309.81 529.52 305.32 509.98 300.66"/><polygon class="cls-11" points="509.16 285.36 503.12 294.01 501.79 304.75 529.52 305.32 519.68 286.86 509.16 285.36"/><polygon class="cls-9" points="562.26 296.58 582.85 303.69 581.94 308.6 544.96 306.46 545.14 301.95 562.26 296.58"/><path class="cls-11" d="M544.68,277.23c1.64,0,22.32,12,22.32,12l15.85,14.43L545.14,302Z"/><polygon class="cls-26" points="567 289.25 551.76 227.95 505.71 272.07 503.12 294.01 567 289.25"/></g><g id="main_character" data-name="main character"><polygon class="cls-18" points="319.86 279.63 305.76 312.33 246.89 326.22 230.4 275.5 312.63 246.59 319.86 279.63"/><polygon class="cls-4" points="318.14 259.32 314.7 274.12 271.34 257.6 269.62 222.16 320.55 243.15 318.14 259.32"/><polygon class="cls-5" points="305.58 232.31 334.49 238.51 333.82 307.13 306.1 310.77 307.65 244.36 305.58 232.31"/><polygon class="cls-14" points="268.42 218.38 334.49 238.51 307.65 244.36 258.1 234.38 268.42 218.38"/><polygon class="cls-4" points="234.35 294.77 282.6 280.93 283.9 258.12 211.64 251.41 234.35 294.77"/><polygon class="cls-14" points="130.95 207.02 112.2 151.45 199.35 140.13 223.17 189.82 130.95 207.02"/><polygon class="cls-5" points="125.45 197.39 140.33 156.67 219.67 150 234.87 248.31 168.8 301.3 138.52 255.19 125.45 197.39"/><polygon class="cls-3" points="190.25 152.5 182.82 142.24 199.35 140.13 249.5 205.15 212.78 285.49 180.5 241.43 190.25 152.5"/><polygon class="cls-35" points="353.04 144 363.32 137.22 370.1 120.66 358.5 110.83 348.36 120.4 342.14 128.82 353.04 144"/><polygon class="cls-36" points="343.96 123.45 363.32 137.22 352.55 151.62 340.06 143.31 343.96 123.45"/><polygon class="cls-37" points="336.97 153.54 338.34 140.92 338.35 128.04 344.58 117.82 348.36 120.4 344.36 127.66 348.47 139.11 341.49 154.74 336.97 153.54"/><polygon class="cls-10" points="291.64 148.96 317.45 159.28 323.99 165.24 326.74 183.02 279.52 189.47 283.05 172.55 291.64 148.96"/><polygon class="cls-11" points="338.34 140.92 317.45 159.28 326.74 183.02 352.55 151.62 338.34 140.92"/><polygon class="cls-7" points="282.6 280.93 305.06 283.93 311.54 266.83 277.05 233.84 240.42 263.54 266.87 272.23 282.6 280.93"/><polygon class="cls-26" points="282.6 280.93 297.33 301.89 315.56 297.55 318.51 292.93 311.54 266.83 282.6 280.93"/><polygon class="cls-11" points="318.51 292.93 339.62 312.82 315.12 314.48 297.73 312.82 297.33 301.89 318.51 292.93"/><polygon class="cls-6" points="211.39 229.09 277.05 233.84 252.81 264.96 233.81 259.92 211.39 229.09"/><polygon class="cls-8" points="266.87 272.23 253.36 293.24 241.58 294.94 207 272.31 207.26 233.86 215 227.41 226.35 235.93 266.87 272.23"/><polygon class="cls-7" points="266.87 272.23 282.49 308.75 272.37 313.98 259.13 313.09 235.56 289.26 266.87 272.23"/><polygon class="cls-11" points="282.49 308.75 294.87 325.98 282.16 327.97 259.9 326.24 259.13 313.09 282.49 308.75"/><polygon class="cls-38" points="294.87 331.41 259.9 331.67 259.9 326.24 294.87 325.98 294.87 331.41"/><rect class="cls-39" x="297.73" y="312.82" width="41.89" height="5.43"/><polygon class="cls-40" points="226.17 131.91 255.44 178 274.05 139.96 250.27 131.03 226.17 131.91"/><polygon class="cls-37" points="305.1 55.7 316.89 49.81 327.09 51.61 312.24 132.74 284.83 129.65 248.55 120.74 259.34 63.4 265.64 38 287.19 43.29 305.1 55.7"/><polygon class="cls-35" points="270.92 130.6 312.24 132.74 253.72 122.01 263.57 62.31 265.64 38 247.81 48.3 246.89 61.17 250 78.55 245.8 78.13 242.09 81.45 238.82 76.51 238.16 67.27 231.78 71.94 225.83 72.83 230.85 81.57 231.39 90.11 231.76 95.49 229.37 105.1 226.12 131.62 274.03 140.01 270.92 130.6"/><polygon class="cls-24" points="322.77 75.2 336.32 50.15 321.97 47.23 322.77 75.2"/><polygon class="cls-35" points="272.94 64.7 284.69 76.44 287.98 96.93 292.74 80.83 293.3 71.37 291.9 66.89 281.26 58.57 272.94 64.7"/><polygon class="cls-35" points="306.26 68.22 301.57 73.26 298.86 79.3 299.12 88.06 321.38 70.83 317.64 61.05 306.26 68.22"/><polygon class="cls-24" points="294.42 62.83 281.13 54.37 269.19 60.31 272.94 64.7 281.9 60.05 291.9 66.89 294.42 62.83"/><polygon class="cls-24" points="305.05 64.04 317.64 61.05 321.38 70.83 316.46 72.38 313.93 65.54 306.26 68.22 305.05 64.04"/><polygon class="cls-41" points="301.57 73.26 297.47 98.04 292.85 99.14 287.98 96.93 293.3 71.37 301.57 73.26"/><polygon class="cls-37" points="242.09 81.45 242.35 86.5 231.39 90.11 225.83 72.83 238.16 67.27 242.09 81.45"/><polygon class="cls-18" points="305.1 55.7 336.32 50.15 315.67 22.83 306.88 39.72 305.1 55.7"/><polygon class="cls-19" points="305.1 55.7 315.67 22.83 235.15 22.76 248.6 33.15 265.64 38 305.1 55.7"/><polygon class="cls-18" points="235.15 22.76 216.87 62.94 233.09 57.2 247.81 48.3 265.64 38 235.15 22.76"/><polygon class="cls-24" points="247.81 48.3 250 78.55 242.09 81.45 238.16 67.27 225.83 72.83 216.87 62.94 247.81 48.3"/><polygon class="cls-36" points="230.51 75.22 234.99 73.19 236.5 81.5 230.51 75.22"/><polygon class="cls-36" points="231.39 90.11 239.19 87.48 229.31 105.56 231.39 90.11"/><polygon class="cls-36" points="297.47 98.04 291.32 102.84 287.98 96.93 297.47 98.04"/><polygon class="cls-11" points="226.17 131.91 255.85 165.2 232.4 177.08 204.43 187.27 199.95 166.29 199.35 140.13 226.17 131.91"/><polygon class="cls-11" points="274.05 139.96 291.64 148.96 284.69 177.55 269.81 177.67 255.85 165.2 274.05 139.96"/><polygon class="cls-9" points="204.43 187.27 207.26 233.86 251 234.76 256.71 197.04 255.85 165.2 204.43 187.27"/><polygon class="cls-38" points="255.85 165.2 284.69 177.55 276.94 234.25 251 234.76 255.85 165.2"/><path class="cls-28" d="M314.57,80.4a3.52,3.52,0,1,1-2.05-4.53A3.52,3.52,0,0,1,314.57,80.4Z"/><path class="cls-28" d="M286.06,76.44a3.51,3.51,0,1,1-2-4.53A3.51,3.51,0,0,1,286.06,76.44Z"/><polygon class="cls-36" points="244.46 118.11 312.24 132.74 276.21 134.61 274.05 139.96 244.46 118.11"/><polygon class="cls-10" points="199.35 140.13 192.19 188.41 223.14 213.03 237.04 191.82 239.19 181.91 199.35 140.13"/><polygon class="cls-35" points="291.26 174.69 277.22 187.44 283.48 194.98 288.34 187.38 295.25 179.84 291.26 174.69"/><polygon class="cls-37" points="295.55 186.72 277.22 187.44 258.91 200.93 273.45 207.08 292.47 210.06 300.58 192.87 295.55 186.72"/><polygon class="cls-35" points="308.42 185.34 295.55 186.72 292.47 210.06 308.47 204 308.42 185.34"/><polygon class="cls-11" points="239.19 181.91 223.14 213.03 273.45 207.08 277.22 187.44 239.19 181.91"/><polygon class="cls-36" points="275.47 101.9 303.95 108.18 294.05 121.6 277.62 117.73 275.47 101.9"/><polygon class="cls-27" points="279.17 105.08 299.64 109.64 295.86 114.46 279.95 111.28 279.17 105.08"/><polygon class="cls-5" points="210.78 253.82 246.57 257.26 246.89 326.22 211.65 335.57 190.48 277.22 210.78 253.82"/><polygon class="cls-14" points="194.96 275.15 218.35 264.14 246.57 257.26 180.5 241.43 146.09 248.31 194.96 275.15"/><polygon class="cls-4" points="112.2 151.45 105 325.93 211.65 335.57 218.35 264.14 146.09 248.31 140.33 156.67 112.2 151.45"/></g></svg>