<svg xmlns="http://www.w3.org/2000/svg" viewBox="0 0 900 350"><defs><style>.cls-1{fill:#cececd;}.cls-2{fill:#c4c4c4;}.cls-3{fill:#ececeb;}.cls-4{fill:none;}.cls-5{fill:#a3a3a3;}.cls-6{fill:#9da1a2;}.cls-7{fill:#dddddc;}.cls-8{fill:#8f8f8f;}.cls-22,.cls-9{fill-opacity:0.1;}.cls-10{fill:#474747;}.cls-11{fill:#737373;}.cls-12{fill:#a688ba;}.cls-13{fill:#9075a0;}.cls-14{fill:#543042;}.cls-15{fill:#858686;}.cls-16{fill:#6f7173;}.cls-17{fill:#926d5a;}.cls-18{fill:#755445;}.cls-19{fill:#4f5253;}.cls-20{fill:#99796a;}.cls-21{fill:#51362a;}.cls-22,.cls-26{fill:#2b2b2b;}.cls-23{fill:#b3889d;}.cls-24{fill:#734d60;}.cls-25{fill:#785d88;}.cls-27{fill:#96637c;}.cls-28{fill:#fff;}.cls-29{fill:#594165;}.cls-30{fill:#fefefe;}.cls-31{fill:#dfbda5;}.cls-32{fill:#c3987b;}.cls-33{fill:#e8cab6;}.cls-34{fill:#8b6651;}</style></defs><title>analysts_Debater_ENTP_workplacehabits</title><g id="wall"><polygon class="cls-1" points="9.85 18 334.6 6.17 368.52 101.61 334.6 200.13 9.85 270.23 9.85 18"/><polygon class="cls-2" points="334.6 156.79 334.6 200.13 9.85 270.23 9.85 216.55 334.6 156.79"/><polygon class="cls-3" points="46.44 39.42 298.34 26.34 300.25 124.86 114.3 114.61 46.95 161.12 42.69 161.79 46.44 39.42"/><polygon class="cls-2" points="283.25 27.09 298.34 26.34 300.25 124.86 281.75 122.78 283.25 27.09"/><polygon class="cls-4" points="300.25 124.86 42.45 171.96 42.69 161.79 281.75 122.78 300.25 124.86"/><polygon class="cls-2" points="113.46 57.85 100.29 76.43 113.96 150.12 171.22 140.78 173.39 50.76 113.46 57.85"/><polygon class="cls-5" points="86.54 52.35 113.46 57.85 111.88 101.03 84.29 75.1 86.54 52.35"/><polygon class="cls-1" points="80.54 86.69 58.37 110.53 76.95 156.2 123.63 148.53 126.38 81.85 80.54 86.69"/><polygon class="cls-5" points="45.03 85.02 80.54 86.69 76.95 156.2 42.69 161.79 45.03 85.02"/><polygon class="cls-6" points="158.55 62.18 150.47 63.77 150.47 78.43 158.22 77.19 158.55 62.18"/><polygon class="cls-6" points="139.55 66.02 131.46 67.6 131.46 82.27 141.05 80.68 139.55 66.02"/><polygon class="cls-6" points="140.97 120.94 132.72 121.86 132.47 133.11 140.8 131.86 140.97 120.94"/><polygon class="cls-7" points="45.28 79.02 84.29 75.1 126.38 81.85 80.54 86.69 45.03 85.02 45.28 79.02"/><polygon class="cls-7" points="136.13 46.43 86.54 52.35 113.46 57.85 173.39 50.76 136.13 46.43"/><polygon class="cls-6" points="159.97 87.6 151.89 89.1 151.89 103.78 159.64 102.52 159.97 87.6"/><polygon class="cls-6" points="160.14 117.78 152.05 119.28 152.14 130.11 159.89 128.86 160.14 117.78"/><polygon class="cls-6" points="141.88 91.52 133.8 93.02 133.8 107.69 141.55 106.44 141.88 91.52"/><polygon class="cls-6" points="93.79 140.2 93.87 148.53 101.21 147.53 101.21 139.2 93.79 140.2"/><polygon class="cls-6" points="93.62 122.53 93.79 133.95 101.21 133.28 101.21 121.11 93.62 122.53"/><polygon class="cls-6" points="101.21 95.1 93.37 95.86 93.54 110.19 101.21 109.02 101.21 95.1"/><polygon class="cls-6" points="109.29 138.12 109.38 146.87 116.63 145.87 116.71 137.12 109.29 138.12"/><polygon class="cls-6" points="109.13 119.53 109.29 132.62 116.71 131.95 116.71 118.03 109.13 119.53"/><polygon class="cls-6" points="116.71 93.44 108.88 94.19 109.04 107.86 116.71 106.69 116.71 93.44"/><polygon class="cls-1" points="182.48 72.43 238.74 63.6 236.99 130.11 184.98 138.53 182.48 72.43"/><polygon class="cls-5" points="172.89 70.85 182.48 72.43 184.98 138.53 171.22 140.78 172.89 70.85"/><polygon class="cls-7" points="207.98 60.93 173.06 64.68 172.89 70.85 182.48 72.43 238.74 63.6 207.98 60.93"/><polygon class="cls-5" points="890.14 0 334.6 6.17 334.6 200.13 882.06 226.64 890.14 0"/><polygon class="cls-8" points="334.6 156.79 334.6 200.13 882.06 226.64 884.06 170.04 334.6 156.79"/><polygon class="cls-3" points="389.44 24.25 382.86 59.27 388.61 75.35 411.03 115.69 441.37 94.86 464.63 116.53 503.14 117.19 543.81 93.77 559.24 118.03 602.49 94.6 665.51 119.69 742.11 103.69 835.05 33.84 835.05 23.25 389.44 24.25"/><polygon class="cls-1" points="387.36 115.36 376.77 120.36 835.05 132.53 835.05 122.44 387.36 115.36"/><polygon class="cls-2" points="389.44 24.25 387.94 115.36 376.77 120.36 377.77 24.25 389.44 24.25"/><polygon class="cls-5" points="808.12 46.26 816.63 94.69 806.96 121.94 750.11 121.11 731.19 80.77 761.12 44.76 808.12 46.26"/><polygon class="cls-1" points="835.05 42.68 818.96 35.92 808.12 46.26 806.96 121.94 835.05 122.44 835.05 42.68"/><polygon class="cls-5" points="749.7 87.52 709.02 70.77 664.09 89.69 661.68 119.69 750.11 121.11 749.7 87.52"/><path class="cls-7" d="M388.69,69.77c1.59,0,20.76.5,20.76.5l-3.17,11.5-17.75-.17.16-11.75Z"/><polygon class="cls-2" points="388.53 81.6 406.11 81.6 413.45 92.27 411.03 115.69 387.94 115.36 388.53 81.6"/><polygon class="cls-5" points="537.14 43.18 509.31 47.68 492.38 100.19 503.14 117.19 559.24 118.03 559.48 93.77 547.23 49.93 537.14 43.18"/><polygon class="cls-5" points="411.03 115.69 402.36 54.6 463.13 54.76 476.96 79.69 464.63 116.53 411.03 115.69"/><polygon class="cls-4" points="483.38 116.86 491.38 55.18 474.8 49.09 464.63 116.53 483.38 116.86"/><polygon class="cls-7" points="436.7 43.01 402.36 54.6 463.13 54.76 478.8 56.43 491.22 44.51 436.7 43.01"/><polygon class="cls-1" points="480.3 116.78 492.89 103.78 491.22 44.51 463.13 54.76 464.63 116.53 480.3 116.78"/><polygon class="cls-2" points="505.39 91.36 482.38 90.35 480.3 116.78 503.14 117.19 505.39 91.36"/><polygon class="cls-2" points="590.49 118.53 590.66 83.69 590.82 63.6 557.32 63.77 559.24 118.03 590.49 118.53"/><polygon class="cls-1" points="590.82 63.6 554.4 63.93 545.31 78.35 558.06 86.44 590.82 63.6"/><polygon class="cls-5" points="637 83.94 590.66 83.69 590.49 118.53 623.5 119.11 637 83.94"/><path class="cls-1" d="M673.18,61l88,.34s-4.92,29.5-4.92,28-73,0-73,0l-19.17.41-4.92-19.09L673.26,61Z"/><polygon class="cls-7" points="791.45 33.84 835.05 33.84 835.05 42.68 808.12 46.26 791.45 33.84"/><polygon class="cls-6" points="400.44 102.27 400.03 109.36 395.61 109.28 395.44 102.36 400.44 102.27"/><polygon class="cls-6" points="395.19 88.94 399.61 89.02 399.44 94.86 395.44 95.1 395.19 88.94"/><polygon class="cls-6" points="438.95 82.94 438.37 92.19 432.2 92.27 432.12 82.77 438.95 82.94"/><polygon class="cls-6" points="439.54 64.01 432.54 64.1 432.7 74.35 439.54 74.43 439.54 64.01"/><polygon class="cls-6" points="452.96 74.85 453.54 65.18 446.54 65.02 446.29 74.85 452.96 74.85"/><polygon class="cls-6" points="452.38 93.27 452.79 83.52 445.87 83.52 445.54 93.27 452.38 93.27"/><polygon class="cls-6" points="446.87 110.77 452.38 111.27 452.38 102.11 446.54 101.61 446.87 110.77"/><polygon class="cls-8" points="433.2 110.44 439.04 111.03 440.2 101.11 433.29 101.11 433.2 110.44"/><polygon class="cls-8" points="419.95 101.03 419.7 109.78 426.45 109.78 427.12 101.03 419.95 101.03"/><polygon class="cls-8" points="419.45 82.6 419.28 91.61 425.29 92.02 425.29 82.85 419.45 82.6"/><polygon class="cls-8" points="418.28 64.1 418.62 74.77 425.2 74.85 425.12 64.27 418.28 64.1"/><path class="cls-6" d="M487,95.77l4.74.25-.91,5.25h-3.75L487,95.86Zm9.33,1.09,4,.08-.08,4.58-4.25-.25Zm3,11.58-.33,5-3.67-.16.25-4.92,3.67.08Zm-9,4.25-4-.41v-5.17l4.5-.09Z"/><path class="cls-6" d="M513.72,100.27l7.5.17-.83,11.09-6.75.41.16-11.75Zm14.92,1,8.92.17-2.17,11.5-5.66-.25Zm16,.84,7.43-.09-.75,11.17-6.42-.33-.34-10.75Z"/><polygon class="cls-6" points="732.02 102.94 737.94 103.36 737.69 113.03 731.77 112.78 732.02 102.94"/><polygon class="cls-6" points="717.85 103.19 722.77 103.44 722.94 112.61 717.19 112.78 717.85 103.19"/><polygon class="cls-8" points="702.94 102.52 708.77 103.11 708.85 112.28 703.77 112.86 702.94 102.52"/><polygon class="cls-8" points="688.76 101.69 695.02 102.27 694.51 112.36 688.85 111.86 688.76 101.69"/><polygon class="cls-8" points="672.92 100.94 679.26 101.03 679.43 111.69 673.1 111.86 672.92 100.94"/><polygon class="cls-6" points="760.78 106.61 766.95 106.44 766.03 114.61 760.78 114.44 760.78 106.61"/><polygon class="cls-6" points="775.2 106.86 781.79 107.28 781.45 115.78 775.2 115.69 775.2 106.86"/><polygon class="cls-6" points="790.87 107.36 796.87 107.36 796.96 115.69 790.96 115.53 790.87 107.36"/></g><g id="boss_desk" data-name="boss + desk"><polygon class="cls-9" points="154.22 275.56 138.3 277.65 133.22 296.9 270.42 350 456.88 245.64 437.2 232.39 154.22 275.56"/><polygon class="cls-10" points="155.8 218.13 159.22 283.9 238.41 319.07 272.33 283.06 247.24 237.31 155.8 218.13"/><polygon class="cls-11" points="440.12 183.96 436.54 243.31 238.41 319.07 238.41 237.81 357.02 199.21 440.12 183.96"/><polygon class="cls-12" points="170.47 80.35 174.06 122.11 182.98 128.53 237.99 135.37 283.83 99.27 282.67 60.1 170.47 80.35"/><polygon class="cls-13" points="225.24 179.87 186.14 185.38 182.31 156.95 182.98 128.53 283.83 99.27 298.17 152.87 225.24 179.87"/><polygon class="cls-13" points="154.14 97.61 170.47 80.35 182.98 128.53 177.73 139.12 168.39 135.53 154.14 97.61"/><polygon class="cls-13" points="168.39 135.53 183.89 178.96 186.14 185.38 196.15 182.46 191.23 162.12 182.98 128.53 168.39 135.53"/><polygon class="cls-14" points="234.57 127.7 245.16 138.37 254 164.29 243.66 174.21 220.15 175.46 217.57 137.28 234.57 127.7"/><polygon class="cls-15" points="239.32 50.59 216.65 69.27 212.57 82.1 203.9 91.85 194.4 76.02 198.98 57.35 239.32 50.59"/><polygon class="cls-16" points="269.25 63.6 239.32 50.59 261.08 38.26 274.92 56.76 272 63.6 269.25 63.6"/><polygon class="cls-17" points="216.65 69.27 227.57 121.86 230.32 124.36 236.41 129.86 243.82 121.86 274.67 116.11 269.25 63.6 239.32 50.59 216.65 69.27"/><polygon class="cls-18" points="236.41 74.18 227.65 73.93 238.41 83.1 249.49 96.11 257.99 93.44 259.5 82.02 265.58 68.1 255.08 75.35 251.16 75.1 249.58 78.69 246.33 76.94 241.32 78.52 236.41 74.18"/><polygon class="cls-18" points="223.07 134.2 234.24 128.53 231.99 124.03 216.65 69.27 210.15 105.61 215.32 117.03 223.07 134.2"/><polygon class="cls-19" points="216.65 69.27 220.24 94.69 210.15 105.61 200.06 83.27 209.48 75.18 216.65 69.27"/><polygon class="cls-20" points="246.33 76.94 249.49 96.11 257.99 93.44 251.16 75.1 246.33 76.94"/><polygon class="cls-10" points="230.24 69.43 242.41 72.93 241.74 78.6 227.65 73.93 230.24 69.43"/><polygon class="cls-10" points="252.16 71.93 255.08 75.35 265.58 68.1 261.16 63.1 252.16 71.93"/><polygon class="cls-21" points="254.99 97.94 249.49 96.11 257.99 93.44 254.99 97.94"/><polygon class="cls-10" points="242.66 101.52 262.08 96.02 259 106.03 247.16 112.03 238.24 113.53 242.66 101.52"/><polygon class="cls-19" points="269.83 108.28 247.16 112.03 262.08 96.02 269.83 108.28"/><polygon class="cls-2" points="136.22 198.88 207.48 179.13 238.49 176.29 253.49 154.7 280.42 157.87 344.1 139.53 470.21 160.37 453.29 171.37 254.41 241.81 147.22 214.97 136.22 198.88"/><polygon class="cls-22" points="347.6 153.2 323.09 157.54 340.51 164.79 350.27 163.46 358.52 156.29 347.6 153.2"/><polygon class="cls-5" points="207.48 179.13 241.74 169.21 246.82 180.04 207.48 179.13"/><polygon class="cls-5" points="264 176.63 270.75 173.96 292.25 201.55 288.83 203.47 281.17 203.3 264 176.63"/><polygon class="cls-16" points="137.3 217.22 136.22 198.88 254 230.8 261.33 236.97 253.49 246.48 137.3 217.22"/><polygon class="cls-15" points="468.63 182.04 253.49 246.48 254 230.8 470.21 160.37 468.63 182.04"/><polygon class="cls-7" points="264.41 175.29 298.34 161.7 331.68 182.79 292.25 201.55 286.33 199.72 284 200.13 264.41 175.29"/><polygon class="cls-6" points="278.08 182.79 321.43 180.38 295.92 175.79 278.08 182.79"/><polygon class="cls-23" points="274.67 178.46 299.75 168.46 297.84 167.71 273.42 177.21 274.67 178.46"/><polygon class="cls-24" points="253.41 123.03 265.83 122.53 279.83 132.36 275.92 147.03 280.42 157.87 253.49 165.79 250.99 155.54 250.83 134.36 253.41 123.03"/><polygon class="cls-13" points="223.07 134.2 235.24 147.62 242.91 141.7 245.16 138.37 234.57 127.7 223.07 134.2"/><polygon class="cls-13" points="253.41 123.03 259.99 134.28 252.33 151.95 245.16 138.37 248.33 119.11 253.41 123.03"/><polygon class="cls-24" points="240.32 133.53 241.16 129.11 236.82 126.28 246.07 120.53 244.91 127.61 246.57 130.03 245.16 138.37 240.32 133.53"/><polygon class="cls-22" points="411.28 156.79 381.36 159.95 393.94 167.37 411.37 164.2 422.12 159.87 411.28 156.79"/><polygon class="cls-16" points="398.03 148.45 398.53 161.87 411.37 164.2 422.12 159.87 422.28 147.03 410.95 144.45 398.03 148.45"/><polygon class="cls-11" points="411.37 164.2 422.12 159.87 422.28 147.03 413.37 145.03 411.45 145.53 411.11 148.62 411.37 164.2"/><polygon class="cls-19" points="403.03 142.95 403.28 146.78 411.11 148.62 416.61 145.78 416.28 140.95 403.03 142.95"/><polygon class="cls-15" points="400.53 137.78 400.86 143.78 410.95 144.45 414.03 140.2 410.95 137.78 400.53 137.78"/><polygon class="cls-8" points="417.03 137.28 410.95 137.78 410.95 144.45 417.45 142.03 417.03 137.28"/><polygon class="cls-5" points="401.53 151.95 411.2 152.7 419.7 149.95 419.78 157.87 411.37 160.87 402.03 159.37 401.53 151.95"/><polygon class="cls-2" points="411.2 152.7 411.2 152.7 419.7 149.95 419.78 157.87 411.37 160.87 411.37 160.87 411.2 152.7"/><polygon class="cls-16" points="410.28 135.86 417.03 137.28 410.95 137.78 400.53 137.78 410.28 135.86"/><polygon class="cls-12" points="432.45 131.12 435.04 124.28 425.45 128.7 414.28 137.53 417.03 137.28 430.95 131.78 428.79 129.03 432.45 131.12"/><polygon class="cls-25" points="435.04 124.28 414.28 137.53 410.95 137.78 426.54 123.94 435.04 124.28"/><polygon class="cls-19" points="271.16 82.44 274.92 56.76 269.25 63.6 271.16 82.44"/><polygon class="cls-5" points="284 200.13 285.33 197.88 292.25 201.55 284 200.13"/><path class="cls-26" d="M260.57,79.35A2.87,2.87,0,1,1,256.85,81,2.87,2.87,0,0,1,260.57,79.35Z"/><path class="cls-26" d="M241.48,82.8a2.87,2.87,0,1,1-3.72,1.61A2.88,2.88,0,0,1,241.48,82.8Z"/><polygon class="cls-18" points="238.24 122.86 244.99 117.11 257.58 113.03 249.24 133.03 237.41 134.78 234.24 125.53 238.24 122.86"/><polygon class="cls-18" points="237.41 134.78 237.99 126.61 238.24 122.86 231.99 124.03 237.41 134.78"/><polygon class="cls-24" points="211.82 155.04 217.57 137.28 253.49 165.79 230.24 172.54 211.82 155.04"/><polygon class="cls-27" points="248.58 133.11 250.99 136.03 253.49 165.79 246.82 180.04 230.24 172.54 236.91 139.03 239.74 136.28 248.58 133.11"/><polygon class="cls-28" points="250.99 136.03 236.91 139.03 237.41 134.78 250.41 130.28 250.99 136.03"/><polygon class="cls-16" points="213.82 85.19 194.4 76.02 195.4 97.19 210.9 107.28 213.82 85.19"/><polygon class="cls-17" points="213.82 85.19 203.9 91.85 210.9 107.28 219.4 102.61 213.82 85.19"/><polygon class="cls-21" points="208.32 93.02 212.9 90.52 214.9 97.77 208.32 93.02"/><polygon class="cls-19" points="195.4 97.19 209.48 118.94 217.15 121.03 210.9 107.28 195.4 97.19"/><polygon class="cls-19" points="198.98 57.35 230.24 39.42 261.08 38.26 247.41 54.1 198.98 57.35"/><polygon class="cls-18" points="339.93 122.53 339.68 104.77 322.59 108.86 325.84 125.78 339.93 122.53"/><polygon class="cls-14" points="288.75 116.78 265.83 122.53 275.92 147.03 294.84 138.45 298.84 124.53 288.75 116.78"/><polygon class="cls-24" points="322.59 108.86 288.75 116.78 294.84 138.45 325.84 125.78 322.59 108.86"/><polygon class="cls-18" points="352.18 101.77 322.59 108.86 324.18 117.36 353.02 107.61 352.18 101.77"/><polygon class="cls-17" points="337.26 117.11 330.1 107.11 322.59 108.86 324.18 117.36 334.1 120.53 337.26 117.11"/><path class="cls-6" d="M293.5,183.54c.75,0,21.93-1.25,21.93-1.25l-15.68,5.09-6.25-3.92Z"/><polygon class="cls-6" points="288.58 184.55 295.25 186.79 290.67 189.46 288.58 184.55"/><polygon class="cls-6" points="281 184.38 285.67 184.46 289.08 190.38 286.33 190.46 281 184.38"/><polygon class="cls-6" points="288.67 192.54 319.84 182.71 292.92 194.55 288.67 192.54"/><polygon class="cls-11" points="329.76 153.29 341.93 149.7 367.6 152.53 364.02 156.2 350.35 161.45 329.76 153.29"/><polygon class="cls-10" points="329.43 157.29 329.76 153.29 350.44 159.45 351.77 161.04 350.27 163.46 329.43 157.29"/><polygon class="cls-16" points="367.02 157.54 350.27 163.46 350.44 159.45 367.6 152.53 367.02 157.54"/><polygon class="cls-7" points="335.35 154.04 349.93 157.7 362.69 153.12 344.77 151.2 335.35 154.04"/><path class="cls-28" d="M336.1,154.2l3.75.92,16.34-2.75-5.67-.58Zm6.75,1.67,3.75.92L357.43,155l5.26-1.91-2-.25-17.84,3Z"/><polygon class="cls-21" points="219.4 102.61 214.07 114.19 210.9 107.28 219.4 102.61"/><polygon class="cls-12" points="337.01 177.62 336.43 185.46 342.02 190.88 380.52 175.79 372.69 164.62 337.01 177.62"/><polygon class="cls-25" points="333.18 187.88 337.01 177.62 339.43 184.13 342.02 190.88 333.18 187.88"/><polygon class="cls-7" points="343.43 178.63 346.02 184.55 374.94 174.21 370.77 169.04 343.43 178.63"/><polygon class="cls-22" points="195.81 206.63 221.82 204.13 227.41 209.55 218.4 217.63 195.81 206.63"/><polygon class="cls-13" points="208.98 182.96 210.9 206.47 218.65 211.8 225.32 195.71 219.9 184.79 215.57 183.46 208.98 182.96"/><polygon class="cls-13" points="233.41 183.13 223.07 183.46 219.82 186.79 218.65 211.8 227.41 209.55 233.41 183.13"/><polygon class="cls-27" points="209.48 188.46 209.82 193.29 219.24 198.46 223.24 194.71 219.57 191.88 209.48 188.46"/><polygon class="cls-27" points="219.57 191.88 219.24 198.46 219.24 198.46 230.82 194.46 232.24 188.46 219.57 191.88"/><polygon class="cls-14" points="220.15 180.21 216.15 183.38 219.82 186.79 233.41 183.13 220.15 180.21"/><polygon class="cls-29" points="220.15 180.21 208.98 182.96 214.57 184.96 219.82 186.79 220.15 180.21"/><polygon class="cls-29" points="209.48 188.46 204.07 191.96 205.56 196.63 207.4 194.88 209.82 193.29 209.48 188.46"/><polygon class="cls-29" points="210.57 202.71 207.15 201.3 205.48 197.63 203.81 199.8 204.48 204.05 210.9 206.47 210.57 202.71"/><polygon class="cls-14" points="204.07 191.96 203.81 199.8 207.15 201.3 207.4 194.88 204.07 191.96"/></g><g id="carpet"><polygon class="cls-15" points="572.99 225.22 876.56 242.81 813.3 324.83 505.47 298.9 572.99 225.22"/><polygon class="cls-6" points="505.47 298.9 572.99 225.22 582.9 233.97 561.99 237.14 569.49 249.56 550.65 249.47 559.4 261.23 538.98 262.15 550.15 271.81 528.06 273.98 539.65 283.98 518.98 283.9 533.73 290.82 505.47 298.9"/><polygon class="cls-6" points="588.65 241.22 582.9 233.97 594.91 226.47 604.25 235.22 613.91 227.56 621.58 236.3 631.66 228.56 643.92 239.47 664.76 230.47 671.26 239.31 697.1 232.39 706.6 241.39 720.68 233.72 726.52 242.64 740.78 234.89 749.19 243.97 758.61 235.97 767.7 245.06 787.21 237.56 793.79 246.64 810.21 238.89 817.88 248.15 834.72 240.31 846.05 249.81 818.29 260.14 803.79 258.98 588.65 241.22"/><path class="cls-6" d="M876.56,242.81,861.81,262l-15.68-12.09,30.51-7ZM861.81,262l-8.43,10.92-18-9.42Zm-8.43,10.92-9.92,12.83-15.91-12.25Zm-9.92,12.83-9.58,12.42L817.8,285.73h25.66Zm-9.58,12.42L824.71,310l-28.5,3.17,17,11.75L824.71,310l-19.34-10Z"/><polygon class="cls-6" points="764.2 320.74 764.2 320.74 755.53 309.65 738.61 318.57 732.77 307.74 721.27 317.16 714.02 306.16 700.85 315.41 700.85 315.41 694.35 304.49 680.43 313.74 680.43 313.74 673.84 302.74 659.09 311.9 655.09 301.15 642.33 310.49 637.58 299.65 622.25 308.82 622.25 308.82 613.74 297.66 601.74 307.16 593.15 295.9 580.24 305.32 572.32 294.07 560.73 303.74 552.48 292.4 536.39 301.65 536.39 301.65 533.73 290.82 551.4 281.98 783.62 304.15 796.29 313.07 781.12 322.16 776.37 311.41 764.2 320.74"/><polygon class="cls-1" points="582.9 233.97 533.73 290.82 796.29 313.07 846.05 249.81 582.9 233.97"/></g><g id="plant"><polygon class="cls-22" points="67.11 287.65 24.27 299.24 64.12 312.99 83.12 305.49 100.62 316.66 123.21 313.83 137.3 328.41 163.89 324.74 161.47 314.16 137.13 314.16 122.55 305.15 103.46 311.82 89.37 302.9 100.71 297.07 67.11 287.65"/><polygon class="cls-8" points="51.28 268.23 80.12 260.73 108.79 265.48 101.29 278.23 78.95 284.65 51.28 268.23"/><polygon class="cls-11" points="105.38 271.31 101.29 278.23 78.95 284.65 59.53 273.15 80.45 268.73 105.38 271.31"/><polygon class="cls-5" points="50.45 279.56 51.28 268.23 79.12 276.15 82.12 281.23 79.12 289.49 70.12 295.82 55.78 281.57 50.45 279.56"/><polygon class="cls-1" points="108.79 265.48 79.12 276.15 79.12 289.49 91.12 294.24 103.54 280.98 107.79 279.56 108.79 265.48"/><polygon class="cls-16" points="55.78 281.57 58.95 300.07 78.2 307.4 82.45 299.49 79.12 289.49 55.78 281.57"/><polygon class="cls-8" points="103.54 280.98 100.46 298.4 78.2 307.4 79.12 289.49 103.54 280.98"/><polygon class="cls-12" points="79.62 267.81 76.78 253.56 72.62 254.23 65.11 239.72 55.36 234.72 75.29 275.06 79.12 276.15 81.29 269.56 79.62 267.81"/><polygon class="cls-25" points="51.28 235.47 49.78 235.72 56.03 254.73 75.29 275.06 79.12 276.15 58.2 236.64 51.28 235.47"/><polygon class="cls-23" points="76.12 210.13 72.62 254.23 75.95 260.64 79.37 271.48 83.7 261.31 80.37 256.98 81.62 237.56 84.29 232.14 82.2 229.39 83.54 209.72 76.12 210.13"/><polygon class="cls-27" points="81.62 237.56 89.95 228.56 82.2 229.39 81.62 237.56"/><polygon class="cls-27" points="72.53 210.22 72.62 254.23 75.87 260.56 77.87 209.97 72.53 210.22"/><polygon class="cls-25" points="79.12 276.15 88.12 266.56 103.46 237.06 98.87 232.89 79.37 271.48 79.12 276.15"/><polygon class="cls-12" points="99.37 244.89 95.37 229.72 80.37 256.89 80.12 260.23 79.37 271.48 99.37 244.89"/><polygon class="cls-25" points="90.96 237.72 104.04 257.06 122.55 252.23 130.8 227.47 100.71 232.39 90.96 237.72"/><polygon class="cls-12" points="111.79 216.3 93.12 220.13 90.96 237.72 130.8 227.47 111.79 216.3"/><polygon class="cls-23" points="27.19 228.72 44.11 218.3 60.37 228.56 52.78 244.31 29.27 254.64 27.19 228.72"/><polygon class="cls-27" points="65.11 239.72 56.03 254.73 43.61 254.73 29.27 254.64 60.37 228.56 65.11 239.72"/><polygon class="cls-12" points="84.95 196.3 69.12 194.55 56.11 214.72 77.12 216.39 93.29 209.05 84.95 196.3"/><polygon class="cls-25" points="72.62 228.8 82.54 224.3 93.29 209.05 56.11 214.72 72.62 228.8"/><polygon class="cls-28" points="111.79 226.39 113.71 222.97 118.13 226.3 111.79 226.39"/><polygon class="cls-28" points="96.54 230.8 99.87 225.22 104.12 228.3 96.54 230.8"/><polygon class="cls-28" points="79.2 203.88 84.54 200.96 86.45 204.63 79.2 203.88"/><polygon class="cls-28" points="73.12 203.05 68.45 199.38 66.12 203.3 73.12 203.05"/><polygon class="cls-28" points="29.94 235.05 36.11 233.97 30.27 240.22 29.94 235.05"/><polygon class="cls-27" points="128.22 269.4 119.3 255.98 119.05 270.56 128.22 269.4"/><polygon class="cls-27" points="137.38 271.56 142.63 258.06 144.47 273.23 139.55 275.32 137.38 271.56"/><polygon class="cls-28" points="40.69 231.39 45.7 222.8 49.28 227.3 40.69 231.39"/><polygon class="cls-23" points="79.37 271.48 93.87 262.65 106.79 274.98 124.63 268.56 157.97 276.48 161.39 289.99 125.21 276.9 101.46 284.82 91.62 271.56 79.12 276.15 79.37 271.48"/><polygon class="cls-24" points="133.22 296.9 131.88 283.57 138.22 282.15 140.3 287.48 133.22 296.9"/><polygon class="cls-27" points="101.29 288.24 91.04 274.06 79.12 276.15 92.2 268.31 104.12 279.9 125.55 273.23 151.14 281.98 164.06 285.23 161.97 297.74 124.21 279.9 101.29 288.24"/><polygon class="cls-25" points="185.06 300.07 170.31 304.99 161.47 293.99 162.56 278.07 175.22 279.4 189.31 279.98 185.06 300.07"/><polygon class="cls-29" points="158.55 300.49 151.14 281.98 157.64 278.23 165.31 285.15 167.31 292.98 170.31 304.99 158.55 300.49"/><polygon class="cls-12" points="158.47 277.9 158.39 267.31 175.81 266.81 189.31 279.98 187.23 280.4 165.31 285.15 158.47 277.9"/><polygon class="cls-13" points="151.14 281.98 158.39 267.31 165.31 285.15 161.14 284.23 157.39 283.4 151.14 281.98"/><polygon class="cls-28" points="165.47 273.4 172.72 276.9 167.81 278.07 165.47 273.4"/><polygon class="cls-28" points="177.73 272.06 175.89 276.23 180.48 275.48 177.73 272.06"/><polygon class="cls-24" points="42.11 246.64 43.28 253.14 49.95 253.23 48.7 248.64 56.7 249.39 54.86 242.22 60.7 243.14 60.28 237.22 55.36 234.72 54.86 242.22 47.36 240.72 48.7 248.64 42.11 246.64"/><polygon class="cls-29" points="68.62 214.55 67.7 220.97 72.62 225.3 72.62 219.05 68.62 214.55"/><polygon class="cls-29" points="75.95 212.39 72.62 219.05 77.37 223.88 80.2 217.3 75.95 212.39"/><polygon class="cls-29" points="83.37 211.47 80.2 217.3 82.7 221.55 86.12 216.39 83.37 211.47"/><polygon class="cls-29" points="102.96 238.06 101.54 246.89 106.63 251.98 108.71 245.14 102.96 238.06"/><polygon class="cls-29" points="110.71 236.14 108.71 245.14 114.63 250.23 116.3 241.98 110.71 236.14"/><polygon class="cls-29" points="118.88 233.31 116.3 241.98 121.71 247.39 124.21 239.81 118.88 233.31"/><polygon class="cls-29" points="170.89 286.57 169.31 295.23 172.39 300.32 174.56 293.32 170.89 286.57"/><polygon class="cls-29" points="177.31 285.9 174.56 293.32 177.39 298.82 181.39 292.57 177.31 285.9"/><polygon class="cls-29" points="184.39 283.65 181.39 292.57 182.31 297.74 185.98 291.15 184.39 283.65"/></g><g id="box_and_cone" data-name="box and cone"><polygon class="cls-12" points="785.95 185.46 733.61 192.29 767.95 236.72 820.79 198.55 785.95 185.46"/><polygon class="cls-22" points="732.61 269.48 779.45 254.48 830.71 285.65 796.29 313.07 748.19 297.74 732.61 269.48"/><polygon class="cls-25" points="733.61 192.29 732.61 269.48 765.62 295.23 786.45 250.64 768.95 211.8 733.61 192.29"/><polygon class="cls-13" points="765.62 295.23 817.88 285.65 820.79 198.55 768.95 211.8 765.62 295.23"/><polygon class="cls-29" points="745.53 211.38 746.11 227.64 751.28 230.47 756.53 233.31 758.45 215.14 745.53 211.38"/><polygon class="cls-29" points="750.78 231.97 746.03 236.97 750.61 246.14 756.2 240.06 750.78 231.97"/><path class="cls-29" d="M744.77,245.89c.51.09,9.43,4.75,9.43,4.75l-.09,22.26-9.08-7-.17-20Z"/><polygon class="cls-25" points="784.2 218.22 785.37 243.47 792.96 241.22 800.54 238.89 802.62 217.89 784.2 218.22"/><polygon class="cls-25" points="793.79 242.81 787.12 249.31 794.37 257.06 801.87 247.48 793.79 242.81"/><polygon class="cls-25" points="786.95 259.15 801.63 257.31 802.04 279.06 786.12 281.48 786.95 259.15"/><polygon class="cls-13" points="767.03 199.3 763.45 206.38 778.2 207.8 782.45 202.3 795.62 203.55 800.71 196.04 788.7 194.63 789.04 189.21 776.2 187.79 772.87 192.46 759.78 191.88 755.28 197.63 767.03 199.3"/><polygon class="cls-12" points="771.61 195.38 776.12 201.3 784.12 197.46 780.7 193.55 771.61 195.38"/><polygon class="cls-9" points="429.87 294.73 478.21 292.98 505.47 298.9 483.3 335 404.11 324.08 429.87 294.73"/><polygon class="cls-27" points="463.87 232.8 422.62 307.99 470.13 327.41 481.96 287.15 463.87 232.8"/><polygon class="cls-23" points="463.87 232.8 505.47 298.9 470.13 327.41 463.87 232.8"/><polygon class="cls-24" points="456.29 258.98 443.62 287.32 457.62 292.82 456.29 258.98"/><polygon class="cls-24" points="440.2 291.65 457.46 298.07 458.96 315.74 432.37 303.24 440.2 291.65"/><polygon class="cls-27" points="471.55 255.73 473.21 289.9 487.05 280.65 471.55 255.73"/><polygon class="cls-27" points="474.54 297.49 489.72 287.82 498.39 299.07 476.8 313.65 474.54 297.49"/></g><g id="speech_bubble" data-name="speech bubble"><polygon class="cls-3" points="710.94 96.61 733.53 146.53 817.88 168.46 877.81 103.61 833.38 15.84 756.28 8.42 715.1 77.6 679.43 89.44 710.94 96.61"/><polygon class="cls-27" points="765.7 52.93 735.77 107.69 770.37 121.86 779.03 92.52 765.7 52.93"/><polygon class="cls-23" points="765.7 52.93 796.21 101.11 770.37 121.86 765.7 52.93"/><polygon class="cls-24" points="762.03 70.77 750.94 92.44 761.7 96.02 762.03 70.77"/><polygon class="cls-24" points="748.11 96.44 761.7 100.86 762.36 114.69 742.02 104.94 748.11 96.44"/><polygon class="cls-27" points="771.45 69.93 783.04 90.1 773.28 95.52 771.45 69.93"/><polygon class="cls-27" points="774.12 100.86 785.37 94.02 790.29 101.52 774.62 112.44 774.12 100.86"/><polygon class="cls-27" points="810.46 104.44 822.13 94.11 813.13 84.27 818.8 80.85 827.05 89.77 839.47 78.77 843.72 83.19 831.22 94.11 843.3 107.19 837.05 110.53 826.13 98.52 813.96 109.19 810.46 104.44"/><path class="cls-29" d="M800.71,90.1c.5,0,8.58-.24,8.58-.24V86.77l-9-.08.42,3.5Z"/><path class="cls-29" d="M801.12,95.27c.51-.08,9.43,0,9.43,0l-1.18,4.09-9-.17.67-3.83Z"/><polygon class="cls-3" points="440.95 18.42 418.62 74.77 444.79 122.2 539.39 139.53 551.07 103.61 583.07 108.28 558.06 86.44 568.24 30.92 497.63 4.33 440.95 18.42"/><polygon class="cls-13" points="463.71 31.34 449.71 38.68 470.55 44.59 490.3 39.42 486.05 32.34 463.71 31.34"/><polygon class="cls-12" points="449.71 38.68 490.3 39.42 486.72 105.02 450.37 105.19 449.71 38.68"/><polygon class="cls-25" points="464.63 46.68 464.63 62.35 474.54 62.1 476.3 46.26 464.63 46.68"/><polygon class="cls-25" points="470.04 64.68 463.87 71.52 470.21 78.27 478.13 69.6 470.04 64.68"/><polygon class="cls-25" points="465.21 79.85 474.71 80.02 475.05 98.19 463.21 97.52 465.21 79.85"/><path class="cls-27" d="M497.22,62.76c.5,0,8.58-.24,8.58-.24V59.43l-9-.08.42,3.5Z"/><path class="cls-27" d="M497.63,68c.5-.09,9.42,0,9.42,0l-1.16,4.08-9-.17.67-3.83Z"/><path class="cls-12" d="M512.3,67.35l8.51-4.92,5.33,7.17,18.59-15.92,6.17,6.67C536,72.93,541.73,68,526.89,80.6l-14.5-13.34Z"/></g><g id="main_character" data-name="main character"><polygon class="cls-9" points="694.1 273.48 639.67 263.81 584.41 271.48 617.25 291.15 694.1 273.48"/><polygon class="cls-25" points="632.92 229.89 625.08 242.47 611.75 239.22 601.33 231.56 606.91 191.96 624.16 202.55 636.67 213.72 632.92 229.89"/><polygon class="cls-29" points="625.08 242.47 615.66 258.81 601.07 255.4 598.41 251.81 601.33 231.56 625.08 242.47"/><polygon class="cls-13" points="665 194.63 642.33 181.71 606.91 191.96 616.66 204.63 628.16 219.38 648.09 219.64 665 194.63"/><polygon class="cls-12" points="628.16 219.38 635.33 239.22 649.09 244.64 661.59 239.89 665 194.63 628.16 219.38"/><polygon class="cls-25" points="635.33 239.22 641.67 257.14 650.01 261.14 660.26 260.48 661.59 239.89 635.33 239.22"/><polygon class="cls-27" points="641.67 257.14 637.58 270.48 649.59 271.81 661.76 270.48 660.26 260.48 641.67 257.14"/><polygon class="cls-27" points="598.41 251.81 583.82 267.23 602.99 268.56 616.33 267.23 615.66 258.81 598.41 251.81"/><polygon class="cls-14" points="661.74 270.52 637.57 270.52 638.09 274.73 662.25 274.73 661.74 270.52"/><polygon class="cls-14" points="616.36 267.26 583.85 267.26 584.37 271.47 616.87 271.47 616.36 267.26"/><polygon class="cls-30" points="661.42 122.11 632 152.53 623.83 120.78 643.25 117.69 661.42 122.11"/><polygon class="cls-31" points="613.33 52.18 605.24 45.93 597.24 45.68 596.08 109.69 617.33 111.53 642 109.28 646.92 65.1 646.08 44.84 628.83 45.51 613.33 52.18"/><polygon class="cls-32" points="627.75 114.44 596.08 109.69 642.17 110.53 643.92 63.6 646.08 44.84 658.01 55.43 656.75 65.35 651.67 78.1 654.92 78.43 657.26 81.52 660.5 78.27 662.43 71.27 666.59 75.85 670.93 77.44 665.84 83.27 664.09 89.69 663.01 93.77 663.34 101.44 661.42 122.11 623.83 120.78 627.75 114.44"/><polygon class="cls-10" points="596.91 64.35 590.4 43.18 601.83 43.18 596.91 64.35"/><polygon class="cls-32" points="638.09 61.85 625.67 71.1 620 86.19 618.83 73.19 619.91 65.93 638.09 61.85"/><polygon class="cls-32" points="610.33 64.51 613.33 66.1 614.41 71.1 612.91 77.77 598.57 61.18 604.08 60.35 610.33 64.51"/><polygon class="cls-10" points="619.91 65.93 636.34 57.76 638.09 61.85 623.58 69.18 619.91 65.93"/><polygon class="cls-10" points="611.41 60.85 600.83 57.76 598.57 61.18 610.33 64.51 611.41 60.85"/><polygon class="cls-33" points="613.33 66.1 612.58 85.6 615.91 87.1 620 86.19 619.91 65.93 613.33 66.1"/><polygon class="cls-31" points="657.26 81.52 656.26 85.27 664.09 89.69 670.93 77.44 662.43 71.27 657.26 81.52"/><polygon class="cls-11" points="613.33 52.18 590.4 43.18 610.33 25.59 614.41 39.76 613.33 52.18"/><polygon class="cls-8" points="613.33 52.18 610.33 25.59 671.59 37.92 659.76 43.76 646.08 44.84 613.33 52.18"/><polygon class="cls-11" points="671.59 37.92 679.26 71.27 667.84 64.43 658.01 55.43 646.08 44.84 671.59 37.92"/><polygon class="cls-10" points="658.01 55.43 651.67 78.1 657.26 81.52 662.43 71.27 670.93 77.44 679.26 71.27 658.01 55.43"/><polygon class="cls-34" points="667.01 78.52 663.92 76.27 661.51 82.35 667.01 78.52"/><polygon class="cls-34" points="664.09 89.69 658.51 86.52 663.26 101.77 664.09 89.69"/><polygon class="cls-34" points="612.58 85.6 616.58 90.19 620 86.19 612.58 85.6"/><polygon class="cls-27" points="661.42 122.11 633.67 142.78 649.67 155.45 669.34 167.62 685.6 162.37 680.51 132.53 661.42 122.11"/><polygon class="cls-27" points="623.83 120.78 603.74 127.28 599.32 152.45 608.5 164.37 624.41 160.29 633.67 142.78 623.83 120.78"/><polygon class="cls-24" points="669.34 167.62 665 194.63 628.25 195.46 628.08 166.87 633.67 142.78 669.34 167.62"/><polygon class="cls-14" points="633.67 142.78 608.5 164.37 606.91 191.96 628.25 195.46 633.67 142.78"/><path class="cls-26" d="M605.62,66.61a2.73,2.73,0,1,0,3.13,2.25A2.73,2.73,0,0,0,605.62,66.61Z"/><path class="cls-26" d="M627.9,68A2.74,2.74,0,1,0,631,70.24,2.74,2.74,0,0,0,627.9,68Z"/><polygon class="cls-34" points="649.84 109.02 596.08 109.69 623.41 118.19 623.83 120.78 649.84 109.02"/><polygon class="cls-31" points="539.39 139.53 548.73 143.03 550.48 155.79 544.82 161.37 535.9 150.45 539.39 139.53"/><polygon class="cls-32" points="548.73 142.95 561.07 146.78 560.07 163.12 544.82 161.37 548.73 142.95"/><polygon class="cls-31" points="555.4 135.45 561.07 146.78 564.99 156.62 560.48 156.54 552.9 153.03 553.23 144.37 551.65 137.87 555.4 135.45"/><polygon class="cls-27" points="588.91 150.37 561.07 146.78 560.07 163.12 592.91 174.79 598.75 151.03 588.91 150.37"/><polygon class="cls-23" points="603.74 127.28 588.91 150.37 590.24 158.54 592.91 174.79 608.5 164.37 603.74 127.28"/><polygon class="cls-31" points="747.86 154.29 737.03 156.12 732.53 169.46 737.44 176.63 749.19 165.46 747.86 154.29"/><polygon class="cls-32" points="737.11 156.04 723.02 157.54 714.27 167.04 720.6 175.37 737.44 176.63 737.11 156.04"/><polygon class="cls-31" points="733.53 146.53 723.02 157.54 711.52 166.46 720.94 168.54 730.86 167.37 732.77 156.45 736.77 150.04 733.53 146.53"/><polygon class="cls-27" points="694.27 154.7 723.02 157.54 720.6 175.37 684.76 180.21 685.6 162.37 694.27 154.7"/><polygon class="cls-23" points="680.51 132.53 694.27 154.7 684.76 180.21 669.34 167.62 680.51 132.53"/><polygon class="cls-34" points="607.83 93.77 629.08 89.36 625.5 102.11 611.99 104.61 607.83 93.77"/><polygon class="cls-28" points="609.41 94.69 610.91 98.02 625.83 95.52 627.08 91.02 609.41 94.69"/></g></svg>