<svg id="illustration" xmlns="http://www.w3.org/2000/svg" viewBox="0 0 900 350"><defs><style>.cls-1{fill:#cdcdcc;}.cls-2{fill:#dcdcdb;}.cls-17,.cls-3{opacity:0.1;}.cls-14,.cls-4{fill:#785d87;}.cls-27,.cls-28,.cls-29,.cls-5{fill:none;stroke-miterlimit:10;}.cls-5{stroke:#a587b9;}.cls-27,.cls-29,.cls-5{stroke-width:2px;}.cls-35,.cls-6{fill:#734d60;}.cls-10,.cls-11,.cls-12,.cls-13,.cls-14,.cls-15,.cls-16,.cls-17,.cls-18,.cls-26,.cls-27,.cls-30,.cls-6,.cls-7,.cls-8,.cls-9{fill-rule:evenodd;}.cls-7{fill:#543042;}.cls-38,.cls-8{fill:#594165;}.cls-36,.cls-9{fill:#95637c;}.cls-10,.cls-22{fill:#b2879c;}.cls-11{fill:#debca4;}.cls-12{fill:#c2977b;}.cls-13{fill:#8a6651;}.cls-15{fill:#e7c9b5;}.cls-16,.cls-21{fill:#8f759f;}.cls-18,.cls-19{fill:#2b2b2b;}.cls-20,.cls-26{fill:#a587b9;}.cls-23{fill:#848585;}.cls-24{fill:#a2a2a2;}.cls-25{fill:#c3c3c3;}.cls-27{stroke:#8f759f;}.cls-28{stroke:#a2a2a2;}.cls-29{stroke:#b2879c;}.cls-30,.cls-32{fill:#ebebea;}.cls-31{opacity:0.14;}.cls-33{fill:#fff;}.cls-34{fill:#6f7173;}.cls-37{fill:#d0a0b7;}.cls-39{fill:#8e8e8e;}</style></defs><title>analysts_Architect_INTJ_strengths</title><g id="walls"><polygon class="cls-1" points="14.65 44.34 333.53 66.55 343.33 214.13 0 248.76 14.65 44.34"/><polygon class="cls-2" points="333.53 66.55 780.92 30.41 883.67 21.68 900 269.1 342.33 211.12 333.53 66.55"/></g><g id="picture"><polygon class="cls-3" points="71.71 78.37 62.54 94.63 67.08 94.63 75.1 85 83.08 92.57 87.04 94.11 76.63 78.37 71.71 78.37"/><polygon class="cls-3" points="34.67 93.01 31.75 95.34 26.23 183.63 104.82 180.13 112.75 90.49 34.67 93.01"/><polygon class="cls-4" points="38.51 90.49 34.67 93.01 34.63 172.82 39.3 173.34 38.51 90.49"/><polyline class="cls-5" points="64.87 95.34 75.63 78.37 87.92 95.34"/><polygon class="cls-2" points="44.85 96.39 107.75 96.53 106.02 165.24 50.93 162.96 44.85 96.39"/><polygon class="cls-4" points="102.75 160.96 99.77 164.31 101.5 104.4 42.5 101.39 43.84 95.37 107.7 98.45 102.75 160.96"/><g id="picture_character"><polygon class="cls-6" points="61.93 142.88 55.38 154.3 58.81 159 63.15 159.48 67.08 143.1 61.93 142.88"/><polygon class="cls-7" points="55.38 154.3 63.73 156.65 62.33 164.31 59.59 163.64 55.38 154.3"/><polygon class="cls-8" points="89.01 134.46 86.7 133.21 83.77 136.4 83.79 138.44 90.3 140.48 89.01 134.46"/><polygon class="cls-9" points="74.15 150.43 70.56 144.38 66.86 143.74 59.59 163.64 63.95 164.72 77.84 168.13 83.67 169.57 84.03 167.67 86.46 151.66 82.46 149.14 83.85 145 74.15 150.43"/><polygon class="cls-7" points="79.63 147.36 88.38 152.86 91.44 149.32 83.85 145 79.63 147.36"/><polygon class="cls-10" points="83.85 145 77.8 162.93 74.15 150.43 83.85 145"/><polygon class="cls-10" points="74.15 150.43 66.91 158.42 69.74 144.24 70.56 144.38 74.15 150.43"/><polygon class="cls-6" points="66.91 158.42 63.95 164.72 77.84 168.13 77.8 162.93 74.15 150.43 66.91 158.42"/><polygon class="cls-11" points="60.42 117.91 60.02 124.02 61.19 142.75 70.56 144.38 74.15 150.43 83.85 145 83.78 136.26 86.82 135.76 88.66 130.63 84.46 128.4 81.73 132.48 80.19 131.88 79.82 126.45 82.49 119.77 74.99 114.76 66.6 117.26 66.47 113.03 60.42 117.91"/><polygon class="cls-12" points="82.18 119.81 75.65 127.28 73.22 139.98 70.56 144.38 74.15 150.43 83.85 145 83.77 136.4 82.23 136.46 81.65 132.82 80.03 132.08 79.58 126.45 82.18 119.81"/><polygon class="cls-12" points="62.33 127.14 75.65 127.28 68.78 131.44 68.06 135.69 65.63 130.28 62.33 127.14"/><polygon class="cls-13" points="73.22 139.98 66.51 140.31 61.94 138.96 66.82 137.74 73.22 139.98"/><polygon class="cls-14" points="73.22 139.98 68.06 135.69 65.27 135.56 61.94 138.96 73.22 139.98"/><polygon class="cls-15" points="68.3 127.21 68.06 135.69 65.27 135.56 65.84 127.15 68.3 127.21"/><polygon class="cls-14" points="75.65 127.28 62.33 127.14 61.78 123.05 75.65 127.28"/><polygon class="cls-8" points="65.27 135.55 66.66 136.73 68.06 135.69 65.27 135.55"/><polygon class="cls-13" points="86.69 130.75 84.71 130.34 83.8 133.15 86.69 130.75"/><polygon class="cls-13" points="70.56 144.38 76.26 144.01 74.15 150.43 70.56 144.38"/><polygon class="cls-13" points="83.92 136.23 82.23 136.46 83.79 138.44 83.92 136.23"/><polygon class="cls-16" points="60.66 117.91 59.72 115.04 56.98 112.11 60.02 124.02 60.66 117.91"/><polygon class="cls-16" points="82.18 119.81 87.37 118.23 95.34 117.73 91.31 128.37 84.77 127.78 79.58 126.45 82.18 119.81"/><polygon class="cls-10" points="72.09 156.65 70.8 158.08 72.18 159.6 73.79 158.16 72.09 156.65"/><path class="cls-10" d="M66.75,165.4,66,169.71l6.68,1.22.94-3.84-6.83-1.69ZM68.1,167l3.64,1-.29,1.52-3.67-.88Z"/><polygon class="cls-6" points="84.03 167.67 86.46 151.66 88.38 152.86 91.44 149.32 95.34 162.96 84.03 167.67"/><polygon class="cls-7" points="95.34 162.96 85.38 158.79 84.03 167.67 95.34 162.96"/><polygon class="cls-17" points="74.15 150.43 65.56 143.51 70.56 144.38 74.15 150.43"/><polygon class="cls-14" points="60.66 117.91 66.31 113.58 69.52 111.75 73.17 108.34 56.98 112.11 60.66 117.91"/><polygon class="cls-14" points="82.18 119.81 74.92 115.04 80.77 112.82 86.94 111.36 95.34 117.73 82.18 119.81"/><polygon class="cls-16" points="73.17 108.34 82.91 106.07 86.94 111.36 74.92 115.04 66.41 117.57 66.31 113.58 73.17 108.34"/><polygon class="cls-14" points="79.58 126.45 91.31 128.37 89.01 134.46 86.82 135.76 88.47 130.7 84.47 128.64 81.65 132.82 80.03 132.08 79.58 126.45"/><path class="cls-18" d="M72.19,130.27a1,1,0,1,1-1-1A1,1,0,0,1,72.19,130.27Z"/><circle class="cls-19" cx="63.56" cy="129.64" r="1.02"/></g><polygon class="cls-20" points="44.85 96.39 40.37 94.29 38.51 90.49 112.75 90.49 109.97 98.6 105.84 101.39 44.85 96.39"/><polygon class="cls-20" points="50.93 162.96 46.12 164.22 39.3 173.34 110.82 171.13 107.75 163.55 102.75 160.96 50.93 162.96"/><polygon class="cls-21" points="44.85 96.39 50.93 162.96 39.3 173.34 38.51 90.49 44.85 96.39"/><polygon class="cls-21" points="112.75 90.49 110.82 171.13 102.75 160.96 105.84 101.39 112.75 90.49"/><ellipse class="cls-22" cx="75.63" cy="78.37" rx="3.93" ry="4.6"/></g><g id="map"><polygon class="cls-3" points="339.78 222.64 802.71 277.7 702.01 289.36 324.44 235.06 339.78 222.64"/><polygon class="cls-23" points="663.35 276.69 686.15 272.64 680.07 243.58 661.32 240.45 663.35 276.69"/><polygon class="cls-24" points="633.45 240.45 628.89 272.64 663.35 276.69 663.35 240.45 633.45 240.45"/><polygon class="cls-24" points="740.88 0 780.92 30.41 789.53 233.62 789.53 252.37 747.47 257.12 740.88 248.76 745.95 243.58 768.25 234.63 748.99 116.14 740.88 0"/><polygon class="cls-2" points="333.53 66.55 329.39 194.23 542.24 218.54 770.28 236.66 740.88 0 333.53 66.55"/><polygon class="cls-2" points="745.95 243.58 307.59 200.16 329.39 194.23 770.28 236.66 745.95 243.58"/><polygon class="cls-25" points="745.95 243.58 307.59 200.16 307.59 210.81 492.06 227.91 747.47 257.12 745.95 243.58"/><g id="continents"><polygon class="cls-26" points="362.85 87.75 372.84 82.86 389.63 84.3 405.86 82.18 400.71 77.31 405.4 73.5 424.48 74.85 419.67 81.97 425.36 81.34 434.69 73.4 452.67 78.16 450.81 83.64 441.73 83.48 441.46 79.56 427.6 88.17 439.3 95.77 441.42 86.65 453.51 87.29 461.89 97.56 449.45 106.4 442.12 119.83 430.26 121.14 429.55 132.74 437.18 128.77 450.51 144.56 431.79 135.13 425.47 135.99 408.6 118.92 403.96 117.13 400.59 103.01 382.92 93.6 367.37 101.9 366.71 95.88 363.35 95.27 362.85 87.75"/><polygon class="cls-26" points="446.75 140.88 452.03 136.51 470.08 141.93 473.02 147.7 488.52 152.41 482.85 169.66 469.35 183.01 461.75 195.57 463.4 202.63 456.32 199.87 455.21 187.84 456.94 169.07 450.49 164.34 445.57 151.06 447.56 143.76 446.75 140.88"/><polygon class="cls-26" points="521.76 102.97 520.94 106.02 530.57 109.73 534.01 106.56 543.37 106.53 545.62 119.27 552.86 128.18 559.49 125.64 556.38 136.19 550.55 143.09 553.2 153.66 544.13 172.94 535.93 176.15 527.74 157.13 529.06 152.71 522.78 136.11 516.26 135.19 508.63 139.16 499.53 129.79 501.28 115.77 506.52 106.63 521.76 102.97"/><polygon class="cls-26" points="506.92 105.76 511.97 102.24 514.39 97.36 519.23 96.5 525.34 101.09 527.85 99.99 530.56 103.64 534.74 99.73 543.53 101.88 542.32 107.28 552.48 124.77 566.12 114.04 560.39 111.38 554.32 108.59 556.2 106.25 564.24 110.46 576.4 113.23 582.14 126.43 585.5 124.09 589.88 111.58 594.65 111.55 606.45 124.41 610.3 119.04 607.21 110.49 616.12 107.7 620.27 100.49 615.94 91.09 620.31 88.96 623.25 94.73 627.38 85.88 634.87 76.16 630.97 72.14 634.23 67.34 643.1 67.18 647.89 62.87 652.57 63.5 645.1 70.42 647.61 75.25 653.69 64.7 665.89 60.38 665.01 53.9 652.63 53.62 631.78 51.15 620.72 56.81 616.63 54.13 606.22 55.28 600.44 52.14 578.8 58.97 569.44 59.18 566.33 63.8 545.26 69.75 540.59 73.72 538.95 70.78 543.63 68.45 542.64 65.43 528.63 65.33 513.19 77.57 516.21 82.51 523.8 82.66 524.36 77.33 529.61 72.63 529.22 79.59 526.3 84.52 516.98 85.06 511.57 89.77 506.69 93.27 509.27 97.27 502.68 98.65 506.92 105.76"/><polygon class="cls-26" points="503.52 82.43 508.93 80.68 508.52 84.51 511.45 88.63 509.34 90.34 505.21 90.31 506.5 87.04 503.52 82.43"/><polygon class="cls-26" points="500.57 87.03 503.07 85.77 504.69 87.07 502.16 90.97 500.57 87.03"/><polygon class="cls-26" points="556.06 160.34 561.66 154.45 560.82 167.71 557.13 168.61 556.06 160.34"/><polygon class="cls-26" points="468.51 84.48 471.12 79.75 477.92 75.7 484.32 74.01 483.25 68.86 486.65 68.32 486.73 63.04 491.2 57.28 489.06 55.87 483.73 58.27 480.66 52.84 463.08 56.1 457.9 61.45 451.04 61.88 446.75 70.75 457.01 71.26 459.93 79.83 468.51 84.48"/><polygon class="cls-26" points="621.76 167.66 620.6 161.7 615.25 153.25 624.26 150.1 624.05 146.67 634.79 141.03 637.32 141.58 636.93 145.57 641.7 147.02 640.79 140.21 644.08 141.66 648.16 148.78 651.39 151.22 655.03 158.89 650.11 167.99 645.25 168.69 639.54 163.23 629.03 163.4 628.68 166.24 621.76 167.66"/><polygon class="cls-26" points="610.87 130.18 617.88 123.64 619.63 130.52 616.5 134.99 614.08 135.42 610.87 130.18"/><polygon class="cls-26" points="633.24 130.01 644.43 132.89 647.73 137.47 646.16 138.13 643.36 136.63 640.76 138.4 634.45 133.5 630.51 130.64 633.24 130.01"/><polygon class="cls-26" points="601.28 123.83 607.2 128.28 606.68 130.97 609.44 133.63 609.76 138.04 613.23 139.63 609.74 140.84 604.83 136.6 602.61 131.42 599.92 127.93 602.13 127.02 601.28 123.83"/><polygon class="cls-26" points="635.07 81.59 638.93 83.02 635.19 86.02 635.43 91.56 627.5 96.88 626.73 93.26 631.93 90.09 632.1 84.88 635.07 81.59"/><polygon class="cls-26" points="486.91 78.32 490.49 80.51 494.55 77.1 493.26 75.39 487.48 76.77 486.91 78.32"/></g><polygon class="cls-27" points="631.52 152.88 598.49 86.66 533.88 128.09 412.37 96.88 458.94 156.78 631.52 152.88"/><polygon class="cls-14" points="603.54 86.66 598.49 93.14 593.43 86.66 598.49 80.18 603.54 86.66"/><polygon class="cls-14" points="636.58 152.88 631.52 159.37 626.47 152.88 631.52 146.4 636.58 152.88"/><polygon class="cls-14" points="538.93 128.09 533.88 134.57 528.83 128.09 533.88 121.61 538.93 128.09"/><polygon class="cls-14" points="464 156.78 458.94 163.26 453.89 156.78 458.94 150.3 464 156.78"/><polygon class="cls-14" points="417.42 96.88 412.37 103.36 407.31 96.88 412.37 90.39 417.42 96.88"/><polygon class="cls-22" points="345.78 128.38 345.44 134.97 352.03 134.97 351.86 127.03 345.78 128.38"/><polygon class="cls-22" points="345.95 142.74 352.88 143.58 351.35 150 345.78 150.17 345.95 142.74"/><polygon class="cls-22" points="345.95 157.94 351.86 157.1 352.37 164.53 345.78 164.02 345.95 157.94"/><polygon class="cls-22" points="345.61 170.78 353.21 172.64 351.35 179.73 346.29 179.73 345.61 170.78"/><line class="cls-28" x1="358.79" y1="130.74" x2="387.17" y2="129.9"/><polygon class="cls-22" points="571.47 170.55 570.95 182.6 579.96 182.6 580.72 170.53 571.47 170.55"/><line class="cls-28" x1="586.32" y1="173.51" x2="614.7" y2="174.29"/><line class="cls-28" x1="586.32" y1="177.57" x2="605.83" y2="178.13"/><line class="cls-28" x1="586.32" y1="181.62" x2="600.26" y2="181.93"/><polygon class="cls-22" points="571.5 192.73 570.92 204.78 579.92 204.83 580.75 192.75 571.5 192.73"/><line class="cls-28" x1="586.34" y1="195.78" x2="614.71" y2="196.71"/><line class="cls-28" x1="586.32" y1="199.83" x2="605.82" y2="200.5"/><line class="cls-28" x1="586.29" y1="203.88" x2="600.23" y2="204.27"/><line class="cls-28" x1="358.79" y1="146.96" x2="387.17" y2="147.13"/><line class="cls-28" x1="358.79" y1="162.16" x2="387.17" y2="163.35"/><line class="cls-28" x1="358.79" y1="177.37" x2="387.17" y2="179.56"/><polygon class="cls-22" points="685.14 32.94 687.67 59.29 725.17 54.73 722.13 27.87 685.14 32.94"/><polygon class="cls-22" points="688.69 66.39 705.41 64.86 706.42 74.49 689.2 76.52 688.69 66.39"/><polygon class="cls-22" points="690.72 84.12 707.44 82.6 707.95 92.74 690.72 93.75 690.72 84.12"/><line class="cls-29" x1="689.29" y1="136.51" x2="672.07" y2="168.34"/><line class="cls-29" x1="672.07" y1="168.34" x2="692.34" y2="193.68"/><polygon class="cls-10" points="698.97 135.91 689.29 148.32 679.62 135.91 689.29 123.5 698.97 135.91"/><polygon class="cls-30" points="693.24 135.91 689.29 140.97 685.35 135.91 689.29 130.84 693.24 135.91"/><polygon class="cls-10" points="681.74 168.34 672.07 180.75 662.39 168.34 672.07 155.93 681.74 168.34"/><polygon class="cls-30" points="676.01 168.34 672.07 173.4 668.12 168.34 672.07 163.28 676.01 168.34"/><polygon class="cls-10" points="702.01 193.68 692.34 206.09 682.66 193.68 692.34 181.27 702.01 193.68"/><polygon class="cls-30" points="696.28 193.68 692.34 198.74 688.39 193.68 692.34 188.62 696.28 193.68"/><polygon class="cls-24" points="570.95 17.23 577.7 26.66 568.66 28.14 570.95 17.23"/><polygon class="cls-31" points="573.18 27.4 564.24 110.46 502.68 98.65 496.74 39.88 573.18 27.4"/><polygon class="cls-32" points="496.74 39.88 570.95 17.23 554.23 96.88 481.93 91.83 496.74 39.88"/><polygon class="cls-22" points="492.53 74.33 533.88 35.81 547.47 90.58 492.53 74.33"/><polygon class="cls-33" points="529.56 44.59 540.96 83.62 502.6 73.4 529.56 44.59"/><polygon class="cls-29" points="516.39 64.21 526.44 58.78 533.11 68.92 521.95 72.97 516.39 64.21"/><ellipse class="cls-22" cx="524.19" cy="65.96" rx="2.25" ry="2.62"/></g><g id="maps"><polygon class="cls-3" points="751.19 291.89 789.53 276.14 883.67 292.55 796.54 307.36 751.19 291.89"/><polygon class="cls-34" points="732.95 219.21 791.05 208.85 845.11 222.64 790.04 243.58 732.95 219.21"/><polygon class="cls-35" points="847.3 139.56 853.38 155.3 828.39 173.9 847.3 139.56"/><polygon class="cls-36" points="784.91 234.87 822.98 137.09 847.3 139.56 800.68 240.45 784.91 234.87"/><polygon class="cls-22" points="853.38 155.3 833.62 152.88 816.11 182.6 796.38 238.93 809.8 243.58 853.38 155.3"/><polygon class="cls-37" points="833.62 152.88 828.55 144.56 789.53 236.66 796.38 238.93 833.62 152.88"/><polygon class="cls-4" points="761.67 167.4 797.13 160.37 793.08 236.66 776.86 233.1 761.67 167.4"/><polygon class="cls-21" points="784.91 234.87 784.97 175.34 764.08 177.81 776.86 233.1 784.91 234.87"/><polygon class="cls-38" points="797.13 160.37 782.95 175.34 784.91 234.87 793.08 236.66 797.13 160.37"/><polygon class="cls-4" points="782.95 175.34 808.84 173.4 800.68 240.45 792.74 237.64 786.94 232.84 783.32 186.73 782.95 175.34"/><polygon class="cls-20" points="782.95 186.74 799.16 186.74 793.08 236.66 784.91 234.87 782.95 186.74"/><polygon class="cls-35" points="769.84 233.1 747.47 169.57 744.94 147.13 769.84 151.64 776.86 233.1 769.84 233.1"/><polygon class="cls-36" points="744.94 147.13 769.84 233.1 752.54 228.64 720.61 167.4 744.94 147.13"/><polygon class="cls-22" points="755.65 157.1 740.88 170.78 744.94 191.56 760.9 233.1 776.86 233.1 755.65 157.1"/><polygon class="cls-37" points="740.88 170.78 720.61 167.4 752.03 233.1 760.9 233.1 740.88 170.78"/><polygon class="cls-23" points="845.11 222.64 791.05 229.63 769.84 273.79 789.53 298.35 833.62 291.89 845.11 222.64"/><polygon class="cls-24" points="791.05 229.63 732.95 219.21 751.19 291.89 789.53 298.35 791.05 229.63"/></g><g id="chair"><polygon class="cls-24" points="231.57 101.47 159.8 100.28 166.05 154.91 171.2 213.28 267.84 185.56 231.57 101.47"/><polygon class="cls-34" points="159.8 100.28 139.87 111.17 144.93 200.26 174.24 213.28 167.06 154.91 159.8 100.28"/><polygon class="cls-3" points="177.22 179.29 192.19 141.03 183.39 111.17 196.3 100.89 230.83 123.4 224.88 195 190.84 198.2 177.22 179.29"/></g><g id="table"><polygon class="cls-3" points="70.44 277.7 307.59 252.37 520.43 285.73 203.81 322.3 70.44 277.7"/><polygon class="cls-16" points="244.68 267.21 251.48 281.83 235.6 283.44 219.71 282 221.83 269.44 244.68 267.21"/><rect class="cls-38" x="219.73" y="281.92" width="31.77" height="4.98" transform="translate(-1.5 1.25) rotate(-0.3)"/><polygon class="cls-16" points="261.81 276.64 276.31 277.87 300.13 276.46 281.55 262.17 262.43 264.96 261.81 276.64"/><rect class="cls-38" x="261.82" y="276.55" width="38.33" height="4.98" transform="translate(-1.35 1.37) rotate(-0.28)"/><polygon class="cls-34" points="373.5 255.55 371.12 271.34 345.78 272.64 339.74 258.64 373.5 255.55"/><polygon class="cls-24" points="345.78 272.64 323.82 268.92 321.28 261.53 341.77 258.64 345.78 272.64"/><polygon class="cls-34" points="447.47 291.89 420.11 285.48 415.71 248.76 444.44 249.33 447.47 291.89"/><polygon class="cls-34" points="148.96 268.72 146.45 286.49 125.17 289.36 127.2 264.02 148.96 268.72"/><polygon class="cls-39" points="481.42 227.91 467.06 240.45 442.42 251.35 225.23 269.6 210.36 259.9 198.14 240.45 311.66 230.41 481.42 227.91"/><polygon class="cls-24" points="198.14 240.45 198.14 279.06 203.81 309.12 224.88 307.1 225.23 269.6 198.14 240.45"/><polygon class="cls-24" points="481.42 227.91 469.77 289.87 447.47 291.89 442.42 251.35 481.42 227.91"/><polygon class="cls-23" points="99.77 224.88 114.5 248.76 129.22 266.05 177.87 272.64 191.39 259.9 198.14 240.45 155.58 227.91 99.77 224.88"/><polygon class="cls-39" points="198.14 240.45 203.81 309.12 182.43 304.06 177.87 272.64 198.14 240.45"/><polygon class="cls-39" points="99.77 224.88 129.22 266.05 125.17 289.36 107.43 285.81 99.77 224.88"/><polygon class="cls-2" points="88.01 197.97 298.48 183.45 493.08 196.62 198.14 222.64 88.01 197.97"/><polygon class="cls-24" points="493.08 196.62 491.56 227.91 198.14 240.45 193.58 231.59 198.14 220.61 493.08 196.62"/><polygon class="cls-39" points="88.01 197.97 198.14 220.61 198.14 240.45 88.01 223.02 88.01 197.97"/><polygon class="cls-33" points="282.12 198.24 324.96 186.74 366.76 206.9 333.53 213.28 301.86 212.18 282.12 198.24"/><polygon class="cls-2" points="301.86 212.18 307.59 252.37 370.78 232.27 366.76 206.9 301.86 212.18"/><polygon class="cls-33" points="241.7 197.33 234.93 217.62 259.98 218.54 288.25 213.28 282.12 198.24 249.17 196.32 241.7 197.33"/><polygon class="cls-2" points="288.25 213.28 285.11 243.58 236.32 238.82 234.93 217.62 288.25 213.28"/><polygon class="cls-31" points="191.39 190.84 237.86 208.85 282.12 198.24 314.95 189.29 282.06 184.58 191.39 190.84"/><polygon class="cls-31" points="190.36 202.56 203.81 206.9 168.51 214.52 137.06 208.06 153.65 203.04 190.36 202.56"/></g><g id="intj"><polygon class="cls-6" points="267.81 172.51 290.3 191.56 291.31 161.23 270.26 143.24 267.81 172.51"/><polygon class="cls-9" points="219.37 141.03 196.78 163.57 189.92 190.94 267.84 185.56 267.81 172.51 277.62 147.02 219.37 141.03"/><polygon class="cls-8" points="211.75 131.06 217.52 127.04 226.28 134.66 219.37 141.03 205.49 137.25 211.75 131.06"/><polygon class="cls-11" points="282.87 78.5 285.76 94.63 288.25 144.8 263.79 151.95 245.15 155.3 238.59 160.86 226.21 134.28 217.96 133.87 211.53 120.77 222.04 113.59 230.52 123.62 234.43 121.58 233.81 107.01 224.71 90.02 243.18 74.47 266.22 78.61 265.31 67.32 282.87 78.5"/><polygon class="cls-12" points="225.55 90.05 245.15 107.98 255.41 141.03 263.79 151.95 238.59 160.86 219.37 141.03 226.28 134.66 230.39 134.37 230.84 124.5 234.93 122.05 234.45 106.95 225.55 90.05"/><polygon class="cls-12" points="280.55 103.61 245.15 107.98 264.67 116.98 267.84 128.09 272.7 112.94 280.55 103.61"/><polygon class="cls-13" points="255.41 141.03 273.36 139.9 285.11 134.95 271.75 133.15 255.41 141.03"/><polygon class="cls-14" points="255.41 141.03 267.84 128.09 275.23 126.9 285.11 134.95 255.41 141.03"/><polygon class="cls-15" points="264.69 105.58 267.84 128.09 275.23 126.9 271.21 104.69 264.69 105.58"/><circle class="cls-19" cx="278.36" cy="110.95" r="2.89"/><circle class="cls-19" cx="257.89" cy="114.26" r="2.89"/><polygon class="cls-14" points="245.15 107.98 280.55 103.61 280.77 92.57 245.15 107.98"/><polygon class="cls-8" points="275.22 126.86 271.88 130.43 267.84 128.09 275.22 126.86"/><polygon class="cls-13" points="216.82 120.51 221.97 118.81 225.23 126.03 216.82 120.51"/><polygon class="cls-13" points="263.79 151.95 240.97 149.75 238.59 160.86 263.79 151.95"/><polygon class="cls-13" points="225.81 134.26 230.39 134.37 226.83 141.1 219.37 141.03 225.81 134.26"/><polygon class="cls-16" points="282.24 78.57 283.88 70.65 290.09 63.52 285.76 94.63 282.24 78.57"/><polygon class="cls-16" points="225.55 90.05 211.27 87.39 189.92 88.44 203.81 115.56 221.03 112.01 234.45 106.95 225.55 90.05"/><polygon class="cls-14" points="282.24 78.57 265.9 68.75 256.82 64.82 246.09 55.84 290.09 63.52 282.24 78.57"/><polygon class="cls-14" points="225.55 90.05 243.44 75.2 227.22 71.02 210.36 69 189.92 88.44 225.55 90.05"/><polygon class="cls-16" points="246.09 55.84 219.5 50.72 210.36 69 243.44 75.2 266.83 79.37 265.9 68.75 246.09 55.84"/><polygon class="cls-14" points="234.45 106.95 203.81 115.56 211.75 131.06 217.96 133.87 212.07 120.9 222.1 114.23 230.84 124.5 234.93 122.05 234.45 106.95"/><polygon class="cls-10" points="219.37 141.03 224.88 189.29 238.59 160.86 219.37 141.03"/><polygon class="cls-10" points="255.41 154.91 253.23 187.46 238.59 160.86 255.41 154.91"/><polygon class="cls-9" points="238.59 160.86 253.23 187.46 224.88 189.29 238.59 160.86"/><polygon class="cls-6" points="220.66 152.3 191.39 153.04 215.59 200.26 238.5 182.1 220.66 152.3"/><polygon class="cls-7" points="219.37 141.03 191.39 153.04 196.78 163.57 220.66 152.3 219.37 141.03"/><polygon class="cls-7" points="215.59 200.26 256.94 163.57 263.79 167.38 267.81 172.51 249.03 196.5 215.59 200.26"/><polygon class="cls-10" points="290.3 191.56 290.3 162.24 294.96 159.12 301.86 159.12 314.7 189.29 290.3 191.56"/><polygon class="cls-13" points="290.3 162.24 290.3 172.51 277.99 166.39 290.3 162.24"/><polygon class="cls-11" points="288.06 141.03 301.86 159.12 290.3 162.24 286.27 152.3 288.06 141.03"/><polygon class="cls-12" points="290.3 162.24 288.06 141.03 275.52 148.23 280.77 155.3 290.3 162.24"/><polygon class="cls-11" points="256.94 163.57 275.52 148.23 290.3 162.24 267.81 172.51 256.94 163.57"/></g><g id="cup"><polygon class="cls-21" points="152.53 190.03 144.35 190.16 145.06 203.04 153.65 203.04 153.42 199.18 147.34 200.01 147.56 193.86 153.65 194.23 152.53 190.03"/><polygon class="cls-21" points="192.19 181.92 189.92 207.43 170.95 210.81 169.6 196.62 170.78 187.46 192.19 181.92"/><polygon class="cls-4" points="170.78 187.46 148.65 181.92 154.56 206.9 170.95 210.81 170.78 187.46"/><polygon class="cls-38" points="148.65 181.92 170.61 178.13 172.55 182.79 170.78 187.46 148.65 181.92"/><polygon class="cls-4" points="170.61 178.13 192.19 181.92 170.78 187.46 170.61 178.13"/><polygon class="cls-37" points="173.67 191.53 176.5 188.77 178.94 191 181.69 190.51 183.69 187.46 186.91 189.36 184.41 192.9 189.54 197.25 182.27 206.31 172.87 200.42 176.56 193.9 173.67 191.53"/><ellipse class="cls-4" cx="182.59" cy="195.39" rx="0.8" ry="1.16" transform="translate(-15.39 15.61) rotate(-4.7)"/><ellipse class="cls-4" cx="179.11" cy="196.15" rx="0.8" ry="1.16" transform="translate(-15.46 15.33) rotate(-4.7)"/><polygon class="cls-4" points="179.41 198.82 183.06 198.2 181.69 200.16 179.41 198.82"/><polygon class="cls-4" points="178.02 201.9 181.92 201.81 185.5 200.63 181.99 202.56 178.02 201.9"/><polyline class="cls-25" points="170.61 184.63 159.8 172.51 167.4 165.16 177.22 179.29 170.61 184.63"/><polygon class="cls-2" points="163.01 160.86 167.06 154.91 177.22 168.92 172.87 173.03 163.01 160.86"/></g><g id="toys"><polygon class="cls-3" points="381.08 318.98 401.86 313.38 453.13 325.32 448.44 330.92 412.78 337.65 394.51 333.11 365.38 337.65 339.78 329.57 354.37 324.22 381.08 318.98"/><polygon class="cls-3" points="512.32 321.03 605.53 328.21 638.44 303.21 620.92 301.28 556.25 298.31 527.53 306.59 512.32 321.03"/><polygon class="cls-38" points="544.68 301.91 538.93 307.6 544.68 317.23 575.83 307.6 566.05 301.91 544.68 301.91"/><polygon class="cls-4" points="568.66 307.6 562.01 316.73 571.7 323.82 615.25 309.57 624.33 296.29 619.63 289.36 588.6 298.31 568.66 307.6"/><polygon class="cls-37" points="571.37 315.2 573.91 310.39 615.97 295.19 618.5 298.23 612.17 305.83 573.91 319.01 571.37 315.2"/><polygon class="cls-21" points="568.66 307.6 557.71 305 553.55 314.49 561.11 317.23 564.04 316.73 568.66 307.6"/><polygon class="cls-21" points="529.51 298.31 527.53 306.59 534.89 309.57 540.96 307.6 544.68 301.91 538.93 298.31 529.51 298.31"/><polygon class="cls-38" points="553.55 314.49 558.4 320.27 571.7 323.82 564.04 316.73 553.55 314.49"/><polygon class="cls-4" points="544.68 317.23 527.53 314.49 527.53 306.59 540.96 307.6 544.68 317.23"/><polygon class="cls-37" points="596.4 269.1 573.18 280.49 547.47 273.4 577.7 266.18 596.4 269.1"/><polygon class="cls-37" points="596.4 272.64 615.25 276.54 595.44 285.31 596.4 272.64"/><polygon class="cls-36" points="594.37 271.13 598.49 282.27 615.25 276.54 619.63 289.36 568.66 307.6 568.66 292.1 573.18 277.45 594.37 271.13"/><polygon class="cls-35" points="598.49 282.27 570.92 292.55 573.18 277.45 596.4 269.1 598.49 282.27"/><polygon class="cls-36" points="547.47 273.4 573.18 277.45 570.92 292.55 556.06 292.55 542.24 286.83 547.47 273.4"/><polygon class="cls-22" points="570.92 292.55 568.66 307.6 529.51 298.31 542.24 286.83 570.92 292.55"/><polygon class="cls-21" points="560.53 281.25 536.1 264.53 529.51 275.17 554.57 283.99 560.53 281.25"/><polygon class="cls-4" points="529.51 275.17 522.98 267.57 529.51 259.48 536.1 264.53 529.51 275.17"/><polygon class="cls-3" points="479.9 341.05 488.69 339.02 499.67 343.25 488.35 345.44 479.9 341.05"/><polygon class="cls-21" points="484.97 333.28 484.97 341.22 488.43 343.25 489.45 332.27 484.97 333.28"/><polygon class="cls-37" points="488.43 332.27 488.43 343.25 492.91 343.25 491.73 333.28 488.43 332.27"/><polygon class="cls-37" points="490.81 325.17 495.24 325.81 495.17 327.67 491.78 329.57 490.81 325.17"/><polygon class="cls-37" points="485.81 314.64 484.97 320.95 488.43 322.3 491.9 320.95 492.91 314.64 489.19 313.63 485.81 314.64"/><polygon class="cls-21" points="485.81 314.64 488.94 309.01 492.91 314.64 485.81 314.64"/><polygon class="cls-21" points="484.97 320.95 484.97 333.28 491.73 333.28 491.9 320.95 484.97 320.95"/><rect class="cls-4" x="484.97" y="330.91" width="6.76" height="2.36"/><polygon class="cls-3" points="460.65 330.92 469.43 328.89 480.41 333.11 469.09 335.31 460.65 330.92"/><polygon class="cls-21" points="465.71 323.14 465.71 331.08 469.18 333.11 470.19 322.13 465.71 323.14"/><polygon class="cls-37" points="469.18 322.13 469.18 333.11 473.65 333.11 472.47 323.14 469.18 322.13"/><polygon class="cls-37" points="471.55 315.04 475.98 315.68 475.91 317.53 472.52 319.43 471.55 315.04"/><polygon class="cls-37" points="466.56 304.5 465.71 310.81 469.18 312.16 472.64 310.81 473.65 304.5 469.94 303.49 466.56 304.5"/><polygon class="cls-21" points="466.56 304.5 469.68 298.88 473.65 304.5 466.56 304.5"/><polygon class="cls-21" points="465.71 310.81 465.71 323.14 472.47 323.14 472.64 310.81 465.71 310.81"/><rect class="cls-4" x="465.71" y="320.78" width="6.76" height="2.36"/><polygon class="cls-3" points="441.14 345.42 449.92 343.39 460.9 347.62 449.58 349.81 441.14 345.42"/><polygon class="cls-21" points="446.2 337.65 446.2 345.59 449.67 347.62 450.68 336.64 446.2 337.65"/><polygon class="cls-37" points="449.67 336.64 449.67 347.62 454.14 347.62 452.96 337.65 449.67 336.64"/><polygon class="cls-37" points="452.04 329.54 456.47 330.18 456.4 332.04 453.01 333.94 452.04 329.54"/><polygon class="cls-37" points="447.05 319.01 446.2 325.32 449.67 326.67 453.13 325.32 454.14 319.01 450.43 318 447.05 319.01"/><polygon class="cls-21" points="447.05 319.01 450.17 313.38 454.14 319.01 447.05 319.01"/><polygon class="cls-21" points="446.2 325.32 446.2 337.65 452.96 337.65 453.13 325.32 446.2 325.32"/><rect class="cls-4" x="446.2" y="335.28" width="6.76" height="2.36"/><polygon class="cls-37" points="389.69 291.89 403.21 290.37 420.09 297.32 401.86 300.9 389.69 291.89"/><polygon class="cls-36" points="420.09 297.32 420.09 324.07 401.52 327.37 399.66 313.37 401.86 298.88 420.09 297.32"/><polygon class="cls-22" points="401.52 327.37 387.17 321.96 389.69 291.89 401.86 298.88 401.52 327.37"/><polygon class="cls-37" points="407.94 311.66 433.28 307.83 442.42 311.66 420.09 320.36 407.94 311.66"/><polygon class="cls-36" points="442.42 311.66 441.14 326.67 420.09 335.28 418.06 324.07 420.09 318.33 442.42 311.66"/><polygon class="cls-22" points="420.09 318.33 420.09 335.28 405.47 326.67 407.94 311.66 420.09 318.33"/><polygon class="cls-37" points="356.62 316.19 372.98 312.67 383.62 320.95 366.76 326.1 356.62 316.19"/><polygon class="cls-36" points="383.62 320.95 383.62 333.11 365.38 337.65 364.13 330.05 366.76 324.07 383.62 320.95"/><polygon class="cls-22" points="366.76 324.07 365.38 337.65 352.88 329.57 356.62 316.19 366.76 324.07"/><polygon class="cls-3" points="271.12 329.06 305.33 316.73 343.33 319.75 302.5 340.54 266.05 335.62 271.12 329.06"/><polygon class="cls-22" points="312.17 308.95 334.72 296.62 339.74 298.16 338 303.05 313.94 312.48 312.17 308.95"/><polygon class="cls-20" points="290.39 311.91 309.63 304.96 320.27 313.18 298.99 323.14 290.39 311.91"/><polygon class="cls-4" points="320.27 313.18 320.27 322.28 299.75 329.2 298.48 324.83 298.99 321.12 320.27 313.18"/><polygon class="cls-21" points="298.99 321.12 290.39 311.91 289.87 321.19 299.75 329.2 298.99 321.12"/><polygon class="cls-20" points="290.39 318.08 272.13 322.45 278.64 331.23 296.45 323.64 290.39 318.08"/><polygon class="cls-4" points="296.45 323.64 296.45 326.53 278.64 335.62 277.19 332.06 278.64 329.2 296.45 323.64"/><polygon class="cls-21" points="272.13 322.45 271.12 329.06 278.64 335.62 278.64 329.2 272.13 322.45"/><ellipse class="cls-37" cx="310.76" cy="325.79" rx="4.19" ry="5.61"/></g></svg>