<svg id="ILLUSTRATION" xmlns="http://www.w3.org/2000/svg" xmlns:xlink="http://www.w3.org/1999/xlink" viewBox="0 0 900 350"><defs><style>.cls-1{fill:#ececeb;}.cls-2{fill:#c4c4c4;}.cls-3{fill:#a3a3a3;}.cls-4{fill:#cfcfcd;}.cls-5{fill:#594265;}.cls-23,.cls-6{fill:#2b2b2b;}.cls-6{opacity:0.1;}.cls-7{fill:#96647c;}.cls-8{fill:#d1a1b9;}.cls-9{fill:#b3889d;}.cls-10{fill:#734d61;}.cls-11{fill:#795d88;}.cls-12{fill:#9075a0;}.cls-13{fill:#dddddc;}.cls-14{fill:#8f8f8f;}.cls-15{fill:#a588b9;}.cls-16{fill:#c2987a;}.cls-17{fill:#858686;}.cls-18{fill:#6f7273;}.cls-19{fill:#4f5353;}.cls-20{fill:#474748;}.cls-21{fill:#8b6651;}.cls-22{fill:#dfbda5;}.cls-24{fill:#e9cbb7;}.cls-25{fill:#543042;}.cls-26{fill:#fff;}.cls-27{fill:#737474;}.cls-28{clip-path:url(#clip-path);}.cls-29{fill:#926d5a;}.cls-30{fill:#755446;}.cls-31{fill:#51362a;}.cls-32{fill:#99796a;}.cls-33{clip-path:url(#clip-path-2);}</style><clipPath id="clip-path"><polygon class="cls-1" points="616.47 30.83 526.76 61.42 511.13 130.06 545.62 187.83 705.5 188.17 757.84 125.3 726.74 53.94 616.47 30.83"/></clipPath><clipPath id="clip-path-2"><polygon class="cls-1" points="77.75 18.83 16 36.33 2.5 78.08 63.25 106.33 113.33 93 128.83 45.17 77.75 18.83"/></clipPath></defs><title>analysts_Commander_ENTJ_parenthood</title><polygon class="cls-2" points="636.67 205.83 665.5 41.67 900.5 0.5 883.17 318.5 671.58 252.92 636.67 205.83"/><polygon class="cls-3" points="325 101.83 370.5 42.33 665.5 41.67 656.67 259.83 370 248.83 325 101.83"/><polygon class="cls-2" points="0.5 1.17 370.5 42.33 370 248.83 7 297.83 0.5 1.17"/><polygon class="cls-1" points="272.33 96.33 273.83 184.33 343.83 178.83 343.58 98.33 272.33 96.33"/><polygon class="cls-4" points="279.67 108.33 279.33 115.83 287.33 115.77 287.5 108.5 279.67 108.33"/><polygon class="cls-4" points="279.67 119.83 279.33 127.33 287.33 127 287.15 119.46 279.67 119.83"/><polygon class="cls-4" points="279.54 130.58 279.21 138.08 287.21 137.75 287.02 130.21 279.54 130.58"/><polygon class="cls-4" points="279.17 142.21 278.83 149.71 286.83 149.38 286.65 141.83 279.17 142.21"/><polygon class="cls-4" points="279.42 153.08 279.08 160.58 287.08 160.25 286.9 152.71 279.42 153.08"/><polygon class="cls-4" points="279.67 166.08 279.33 173.58 287.33 173.25 287.15 165.71 279.67 166.08"/><polygon class="cls-4" points="291.46 110.96 324.46 111.08 324.21 113.83 291.46 113.25 291.46 110.96"/><polygon class="cls-4" points="291.29 121.63 324.17 121.33 324.17 123.9 291.04 124.65 291.29 121.63"/><polygon class="cls-4" points="291.33 132.27 324.4 132.27 324.46 134.65 291.33 135.21 291.33 132.27"/><polygon class="cls-4" points="291.83 144.02 324.92 143.63 324.83 145.83 291.83 146.96 291.83 144.02"/><polygon class="cls-4" points="291.67 154.9 324.83 153.71 324.83 155.54 291.67 157.83 291.67 154.9"/><polygon class="cls-4" points="292.17 167.4 325.17 165.96 325.17 168.21 292.17 170.33 292.17 167.4"/><polygon class="cls-4" points="328.96 110.4 330.71 113.96 336.08 107.77 330.96 111.4 328.96 110.4"/><polygon class="cls-4" points="328.77 121.15 330.52 124.71 335.9 118.52 330.77 122.15 328.77 121.15"/><polygon class="cls-4" points="328.75 23.08 372.5 28.83 422 27.08 373.75 16.83 328.75 23.08"/><polygon class="cls-1" points="356.75 23.21 373.5 21.08 398.38 25.33 373 25.33 356.75 23.21"/><polygon class="cls-4" points="480.25 25.58 524 31.33 573.5 29.58 530.5 19.08 480.25 25.58"/><polygon class="cls-1" points="508.25 25.71 530 23.33 549.88 27.83 524.5 27.83 508.25 25.71"/><polygon class="cls-5" points="365.5 208.75 357.17 203.33 370.17 201.08 384.75 203.58 367.17 212.42 365.5 208.75"/><polygon class="cls-6" points="383.17 262.83 286.5 291.83 235.63 286.41 210.83 253.5 346.5 244.5 383.17 262.83"/><polygon class="cls-7" points="295.5 233.17 245 230.08 245.5 281.5 286.5 291.83 302.83 242.17 295.5 233.17"/><polygon class="cls-8" points="447.5 224.5 370.5 221.17 243.75 230.33 285.17 241.5 453.5 244.17 447.5 224.5"/><polygon class="cls-6" points="369.5 222.83 347.5 226.33 372.17 230.83 396.5 226.5 369.5 222.83"/><polygon class="cls-7" points="334.5 260.83 371.17 234.17 461.5 236.83 462.5 285.5 371.25 281.83 334.5 260.83"/><polygon class="cls-9" points="285.17 241.5 371.17 234.17 371.25 281.83 286.5 291.83 285.17 241.5"/><polygon class="cls-8" points="298.38 249.25 361.63 242.25 361.5 256.63 298.25 264 298.38 249.25"/><ellipse class="cls-9" cx="333.38" cy="252.33" rx="2.21" ry="2.75"/><polygon class="cls-8" points="298.38 269.67 361.5 261.88 361.42 277.25 298.25 284.42 298.38 269.67"/><ellipse class="cls-9" cx="333.38" cy="272.75" rx="2.21" ry="2.75"/><polygon class="cls-10" points="361.63 182.9 361.21 187.94 369.08 208.08 370.17 205.25 361.63 182.9"/><polygon class="cls-7" points="358.06 182.9 357.12 175.01 368.44 184.22 361.21 187.94 358.06 182.9"/><polygon class="cls-9" points="357.12 175.01 354.25 188.9 361.21 187.94 357.12 175.01"/><polygon class="cls-7" points="377.94 181.77 370.17 205.25 371.25 208 379.75 186.27 377.94 181.77"/><polygon class="cls-7" points="377.06 176.83 379.63 172.71 387.75 184.83 379.75 186.27 377.06 176.83"/><polygon class="cls-9" points="379.63 172.71 370.69 181.02 379.75 186.27 379.63 172.71"/><polygon class="cls-11" points="366.75 211.58 370.17 205.25 384.75 203.58 376.75 226.83 371.33 228.83 366.75 211.58"/><polygon class="cls-12" points="357.17 203.33 370.17 205.25 371.33 228.83 366.17 227.33 357.17 203.33"/><polygon class="cls-9" points="380.67 243.33 430.83 244.58 428.42 277.17 380.75 275.67 380.92 262.25 420.48 263.98 420.08 256.92 380.92 255.83 380.67 243.33"/><ellipse class="cls-7" cx="410.54" cy="250.71" rx="1.75" ry="2.5"/><ellipse class="cls-7" cx="410.38" cy="270.08" rx="1.75" ry="2.5"/><polygon class="cls-13" points="836.33 60.17 711.83 67.83 747.67 142.83 836.5 165.17 836.33 60.17"/><polygon class="cls-4" points="770.5 103.58 753.25 108.83 777.88 118.46 806.38 107.83 788.38 109.58 770.5 103.58"/><polygon class="cls-4" points="822.44 85.25 814.52 86.08 799.38 84.3 815.91 92.71 841.13 91.11 839.97 85.63 822.44 85.25"/><polygon class="cls-1" points="839.05 83.47 827.44 79.83 817.37 82.15 799.38 84.3 816.9 89.65 839.36 88.06 839.05 83.47"/><polygon class="cls-14" points="794 144.33 801.5 127.58 836.5 144.33 830.5 162.08 794 144.33"/><polygon class="cls-14" points="760.25 151.33 757.83 125.33 783.75 142.08 760.75 152.33 760.25 151.33"/><polygon class="cls-12" points="839.75 47.83 839.5 64.33 724 75.83 720 59.83 839.75 47.83"/><polygon class="cls-3" points="830.25 160.83 801.5 127.58 768.5 145.83 757.83 125.33 719.5 144.33 720 160.83 840 163.33 830.25 160.83"/><polygon class="cls-15" points="727 53.83 725.76 66.81 835 55.33 830.25 160.83 721.55 155.46 721 168.33 848.5 180.5 854 36.83 727 53.83"/><polygon class="cls-1" points="753.25 108.83 771.75 100.71 792.88 107.08 806.38 107.83 784.63 112.33 770.25 109.08 753.25 108.83"/><polygon class="cls-6" points="121.5 298.17 67.71 319.33 6.83 297.17 5.17 224.17 55.17 220.17 121.5 298.17"/><polygon class="cls-11" points="106.54 210.1 70.92 208.39 32.51 205.41 34.86 307.81 67.71 319.33 106.54 210.1"/><polygon class="cls-12" points="70.92 208.39 66.22 214.37 67.71 319.33 148.17 308.83 143.67 209.96 70.92 208.39"/><polygon class="cls-15" points="32.51 205.41 101.42 200 143.67 209.96 66.22 214.37 32.51 205.41"/><polygon class="cls-15" points="80.73 306.32 80.25 274.58 133.75 268.58 135.5 300.17 80.73 306.32"/><polygon class="cls-15" points="80.75 262.58 80.52 227.38 131.08 223.33 133.5 256.58 80.75 262.58"/><ellipse class="cls-12" cx="88.31" cy="245.08" rx="3.06" ry="3.87"/><ellipse class="cls-12" cx="88.06" cy="291.08" rx="3.06" ry="3.87"/><polygon class="cls-6" points="772.5 286.83 722.5 328.83 807.17 331.17 883.17 318.5 886.5 265.83 759.83 237.17 772.5 286.83"/><polygon class="cls-10" points="779.71 216.94 818.5 217.33 811.17 263.67 774.71 315.79 769.71 232.49 779.71 216.94"/><path class="cls-9" d="M656.67,239.83l-20.34-5-57.78,2.33s22.54,25.52,23.42,25,56.27-14.7,56.27-14.7l6.45-14Z"/><polygon class="cls-7" points="658.84 203.5 656.67 239.83 778.04 288.58 788.22 224.16 735.28 210.28 658.84 203.5"/><polygon class="cls-7" points="642.85 250.92 656.67 239.83 796.37 274.79 692.8 288.73 641.98 255.45 642.85 250.92"/><polygon class="cls-9" points="624.5 252.14 727.7 277.66 708.26 310.59 584.77 269.21 624.5 252.14"/><polygon class="cls-10" points="594.03 256.32 603.16 245.63 656.67 239.83 656.28 260 601 263.5 594.03 256.32"/><polygon class="cls-7" points="605.97 277 600.67 268.83 603.16 245.63 578.55 237.16 582.19 283.24 598.48 288.73 605.97 277"/><polygon class="cls-7" points="710.67 294.5 601 263.5 598.48 288.73 701.51 322.35 710.67 294.5"/><polygon class="cls-9" points="818.5 217.33 701.51 202.49 658.84 203.5 788.22 224.16 818.5 217.33"/><polygon class="cls-9" points="783.22 256.55 702.32 263 736.82 285.91 811.17 263.67 783.22 256.55"/><polygon class="cls-10" points="711.56 298.14 725.6 329.06 808.58 316.34 811.17 263.67 724.17 269.69 719.55 277.66 711.56 298.14"/><polygon class="cls-7" points="724.17 269.69 725.6 329.06 701.51 322.35 701.86 289.89 702.32 263 724.17 269.69"/><polygon class="cls-16" points="488.75 231.84 499.89 238.41 482.01 271.06 457.62 239.84 488.75 231.84"/><polygon class="cls-16" points="421.34 223.75 408.06 235.13 420.48 263.98 423.2 263.55 438.48 245.08 421.34 223.75"/><polygon class="cls-1" points="462.47 222.13 479.9 202.99 499.89 238.41 475.9 243.84 462.47 222.13"/><polygon class="cls-1" points="451.62 210.61 431.48 203.28 408.2 234.7 430.67 241.65 451.62 210.61"/><polygon class="cls-17" points="436.77 103.3 447.33 87.88 487.9 103.01 475.33 135.86 436.77 103.3"/><polygon class="cls-18" points="423.34 124.72 407.63 110.92 447.33 87.88 461.9 124.44 423.34 124.72"/><polygon class="cls-6" points="453.67 350.33 529 334.61 456 321.25 377.5 334.17 453.67 350.33"/><polygon class="cls-11" points="476.65 331.34 458.43 336.8 458.83 340.69 482.38 340.25 482.25 336.98 476.65 331.34"/><polygon class="cls-11" points="417.2 328.23 406.41 331.63 406.45 334.95 436.34 335.17 436.47 331.5 417.2 328.23"/><polygon class="cls-12" points="406.41 331.63 423.01 320.54 423.4 319.84 435.68 317.22 436.69 321.54 436.51 331.5 406.41 331.63"/><polygon class="cls-12" points="458.43 336.8 464.77 324.96 467.96 315.61 476.32 318.47 478.89 324.48 482.25 336.98 458.43 336.8"/><polygon class="cls-19" points="420.48 263.98 420.89 297.02 424.76 304.92 441.66 304.4 448.79 284.39 458.36 267.39 421.97 259.75 420.48 263.98"/><polygon class="cls-20" points="420.89 297.02 421.83 321.82 436.69 321.54 441.66 304.4 420.89 297.02"/><polygon class="cls-19" points="479.67 303.2 482.01 271.06 476.33 267.4 459.11 268.26 457.71 270.06 454.95 270.93 447.31 281.63 448.79 284.39 459.16 308.52 473.52 310.56 479.67 303.2"/><polygon class="cls-20" points="478.89 324.48 479.67 303.2 459.16 308.52 464.91 324.48 478.89 324.48"/><polygon class="cls-20" points="430.23 253.02 420.48 263.98 448.79 284.39 482.01 271.06 430.23 253.02"/><polygon class="cls-16" points="468.01 200.63 489.12 156.09 474.47 125.39 472.2 130.84 464.65 188.47 460.42 201.26 457.55 208.13 468.01 200.63"/><polygon class="cls-21" points="451.24 212.99 433.92 186.5 435.94 185.15 464.83 185.89 466.79 187.27 457.55 208.13 451.24 212.99"/><polygon class="cls-19" points="418.23 157.06 407.63 110.92 419.06 114.73 420.01 117.01 419.31 122.43 418.23 157.06"/><polygon class="cls-22" points="419.06 114.73 416.46 186.1 466.84 187.27 474.47 125.39 419.06 114.73"/><polygon class="cls-21" points="481.51 172.55 485.34 164.29 474.78 163.19 481.51 172.55"/><path class="cls-20" d="M501.32,144.86,487.9,103s-13.35,22.11-13.43,22.38,2.31,21.81,2.31,21.81l8.56,17.09Z"/><polygon class="cls-22" points="474.78 163.19 485.34 164.29 489.86 147.8 476.78 147.21 474.78 163.19"/><polygon class="cls-21" points="478.53 158.08 479.62 150.23 486.15 150.66 478.53 158.08"/><polygon class="cls-16" points="435.21 159.65 426.4 145.46 420.77 140.72 436.89 140.29 439.75 144 445.03 139.99 451.92 138.72 465.81 141.86 454.05 148 443.76 160.38 435.21 159.65"/><path class="cls-23" d="M457.41,148.24a3.52,3.52,0,0,1-3.1,3.8,3.48,3.48,0,0,1-3.75-3.15,3.45,3.45,0,0,1,3.1-3.75A3.48,3.48,0,0,1,457.41,148.24Z"/><polygon class="cls-21" points="439.12 163.93 435.21 159.65 443.76 160.38 439.12 163.93"/><polygon class="cls-24" points="436.89 140.29 435.21 159.65 443.76 160.38 445.03 139.99 436.89 140.29"/><polygon class="cls-20" points="435.16 140.31 433.77 135.15 420.77 140.72 435.16 140.31"/><polygon class="cls-20" points="449.68 139.44 451.33 134.58 465.81 141.86 449.68 139.44"/><polygon class="cls-21" points="430.86 169.86 453.05 172.9 454 175.28 430.67 172.24 430.86 169.86"/><polygon class="cls-12" points="431.48 203.28 443.55 201.35 451.24 212.99 453.45 225.92 454.72 228.26 453.02 264.23 449.92 266.71 420.48 263.98 431.48 203.28"/><polygon class="cls-11" points="468.01 200.63 479.9 202.99 479.51 239.79 482.01 271.06 449.92 266.71 451.24 212.99 468.01 200.63"/><path class="cls-23" d="M431.83,147.14a3.47,3.47,0,0,1-3.1,3.74,3.44,3.44,0,0,1-.65-6.84A3.47,3.47,0,0,1,431.83,147.14Z"/><polygon class="cls-22" points="290.6 147.04 292.96 139.18 302.78 130.97 313.04 141.74 303.45 154.15 290.6 147.04"/><polygon class="cls-16" points="281.29 143.49 285.27 142.22 292.96 139.18 303.45 154.15 285.94 161.5 279.69 150.09 281.29 143.49"/><polygon class="cls-22" points="277.4 159.73 276.22 149.58 279.18 142.73 285.61 135.62 289.16 137.31 285.52 144.08 285.94 148.99 277.4 159.73"/><polygon class="cls-6" points="137.11 332 211.5 318.83 313.16 334.53 207.5 350.5 137.11 332"/><polygon class="cls-16" points="198.52 292.78 192.75 314.26 185.17 321.71 181.44 316.96 179.21 285.81 181.8 266.44 198.52 292.78"/><polygon class="cls-21" points="183.55 280.45 200.27 286.05 198.52 292.78 179.21 285.81 183.55 280.45"/><polygon class="cls-16" points="234.61 253.33 235.63 286.41 234.43 308.9 227.09 319.37 222.1 311.19 216.99 292.78 234.61 253.33"/><polygon class="cls-21" points="222.7 276.55 235.63 286.41 216.99 292.78 215.12 286.17 222.7 276.55"/><polygon class="cls-25" points="160.17 277.33 197.83 271.83 245.5 273.58 240.32 233.66 215.18 204.73 175.13 241.72 171.82 244.85 160.17 277.33"/><polygon class="cls-7" points="200.27 286.05 175.61 241.36 181.02 228.07 215.54 198.9 238.34 227.41 235.63 286.41 200.27 286.05"/><polygon class="cls-10" points="179.21 285.81 175.61 241.36 181.02 228.07 215.54 198.9 222.88 222.89 200.27 286.05 179.21 285.81"/><polygon class="cls-7" points="273 146.81 271.6 163.51 274.75 169.94 287.32 167.58 298.6 156.06 273 146.81"/><polygon class="cls-10" points="171.09 173.15 158.16 179.47 153.17 210.81 171.82 222.23 179.46 218.8 181.32 209.72 182.58 191.74 168.93 162.45 171.09 173.15"/><polygon class="cls-10" points="160.09 167.08 158.16 179.47 177.47 189.03 181.68 184.88 177.35 154.21 161.47 158.06 160.09 167.08"/><polygon class="cls-11" points="153.17 210.81 171.82 222.23 179.46 218.8 181.32 209.72 153.17 210.81"/><polygon class="cls-23" points="101.89 94.64 119.53 134.25 126.52 136.03 137.6 116.24 135.74 107.08 101.89 94.64"/><polygon class="cls-19" points="240.86 99.58 145.89 149.05 119.53 134.25 171.96 46.39 240.86 99.58"/><polygon class="cls-23" points="240.86 99.58 225.06 127.94 145.89 149.05 201.96 69.57 240.86 99.58"/><polygon class="cls-20" points="264 41.8 278.69 74.1 252.2 112.98 251.21 37.25 264 41.8"/><polygon class="cls-23" points="265.61 38.15 278.69 74.1 251.21 37.25 265.61 38.15"/><polygon class="cls-16" points="186.59 138.19 171.81 59.91 196.07 49.61 212.14 80.38 223.53 140.23 207.33 175.71 186.1 142.69 186.59 138.19"/><polygon class="cls-22" points="259.06 47.73 251.09 143.41 198.05 141.26 195.07 49.7 259.06 47.73"/><polygon class="cls-26" points="221.66 127.99 214.21 123.27 223.35 122.58 229.41 125.27 236.55 125.85 238.94 126.75 226.4 129.41 221.66 127.99"/><polygon class="cls-21" points="222.81 142.1 213.69 178.74 192.34 140.62 222.81 142.1"/><polygon class="cls-20" points="187.65 58.48 196.25 86.79 191.48 89.44 186.82 124.01 186.59 138.19 160.08 66.2 187.65 58.48"/><polygon class="cls-22" points="191.48 89.44 178.59 90.35 181.5 107.93 193.16 105.88 191.48 89.44"/><polygon class="cls-21" points="188.34 93.36 182.09 93.77 188.18 99.67 188.34 93.36"/><polygon class="cls-10" points="189.41 102.78 190.4 112.54 185.25 112.95 184.94 103.21 189.41 102.78"/><polygon class="cls-24" points="235.91 84.57 236.28 110.89 226.99 110.26 228.91 83.95 235.91 84.57"/><polygon class="cls-21" points="230.08 115.25 236.28 110.89 226.99 110.26 230.08 115.25"/><polygon class="cls-16" points="211.31 82.47 228.91 83.95 226.99 110.26 211.31 82.47"/><polygon class="cls-16" points="236.22 104.96 249.84 84.25 235.91 84.57 236.22 104.96"/><polygon class="cls-23" points="210.29 76.46 224.31 83.56 204.18 81.58 210.29 76.46"/><polygon class="cls-10" points="238.94 126.75 228.31 120.47 214.21 123.27 238.94 126.75"/><polygon class="cls-9" points="224.9 133.81 238.94 126.75 226.22 129.25 214.21 123.27 224.9 133.81"/><polygon class="cls-23" points="253.92 83.92 235.91 84.57 251.75 77.28 253.92 83.92"/><polygon class="cls-19" points="271.11 49.21 196.25 86.79 151.54 61.36 171.96 46.39 261.14 21.52 271.11 49.21"/><polygon class="cls-23" points="151.54 61.36 168.55 42.01 261.14 21.52 151.54 61.36"/><polygon class="cls-27" points="284.22 52.35 196.25 86.79 261.14 21.52 284.22 52.35"/><polygon class="cls-10" points="229.02 161.97 237.5 159.86 241.23 155.17 268.47 175.19 279.78 168.82 255.92 194.12 233.11 188.49 229.02 161.97"/><polygon class="cls-11" points="255.92 194.12 271.6 163.51 287.32 167.58 278.1 200.37 255.92 194.12"/><polygon class="cls-7" points="170.85 162.75 177.35 154.21 180.54 153 196.96 162.39 214.52 170.81 220.41 181.45 215.24 209.3 203.15 223.62 175.85 243.64 181.32 209.72 170.85 162.75"/><polygon class="cls-9" points="203.15 223.62 160.17 277.33 158.94 239.19 181.32 209.72 203.15 223.62"/><polygon class="cls-9" points="238.04 210.99 244.96 238.17 222.88 222.89 230.1 235.77 215.24 209.3 214.52 170.81 229.08 160.04 225.71 153.12 238.7 156.37 240.99 160.16 238.04 210.99"/><polygon class="cls-8" points="238.04 210.99 255.84 248.28 245.5 273.58 230.1 235.77 222.88 222.89 238.04 210.99"/><polygon class="cls-10" points="222.22 144.38 225.71 153.12 228.66 157.39 229.08 160.04 222.94 169.24 214.52 170.81 222.22 144.38"/><polygon class="cls-10" points="180.54 153 186.08 142.08 214.52 170.81 192.93 170.75 180.54 153"/><polygon class="cls-9" points="180.54 153 161.47 158 160.09 167.02 160.09 167.08 184.69 158.9 180.54 153"/><polygon class="cls-8" points="225.71 153.12 241.23 155.17 240.99 160.16 229.08 160.04 227.93 157.63 225.71 153.12"/><polygon class="cls-8" points="222.88 222.89 203.15 223.62 215.24 209.3 222.88 222.89"/><polygon class="cls-8" points="210.61 186.87 214.82 182.72 218.31 186.99 214.88 191.26 210.61 186.87"/><polygon class="cls-8" points="210.91 202.26 215.06 198.29 218.67 202.5 215.24 206.53 210.91 202.26"/><path class="cls-23" d="M246.43,87.71a3.79,3.79,0,0,0-4.59,2.93,3.85,3.85,0,0,0,2.93,4.59,3.89,3.89,0,0,0,4.59-2.94A3.84,3.84,0,0,0,246.43,87.71Z"/><path class="cls-23" d="M217,86.34a3.85,3.85,0,1,0-1.66,7.52A3.85,3.85,0,1,0,217,86.34Z"/><polygon class="cls-10" points="225.77 335.07 222.22 335.01 219.87 320.81 222.1 311.19 230.52 316.84 228.72 322.5 225.77 335.07"/><polygon class="cls-10" points="181.44 316.96 175.91 329.11 180 339.7 181.44 316.96"/><polygon class="cls-22" points="192.75 314.26 196.96 322.56 191.42 329.48 180.24 331.64 181.44 316.96 192.75 314.26"/><polygon class="cls-7" points="180.24 331.64 196.96 322.56 199 326.23 195.45 331.64 180 335.43 180.24 331.64"/><polygon class="cls-7" points="180 335.43 199 326.23 204.9 335.43 195.57 337.17 180 335.43"/><polygon class="cls-22" points="234.43 308.72 244.05 319.13 239.06 324.54 231.48 327.25 222.1 311.19 234.43 308.72"/><polygon class="cls-7" points="231.48 327.25 244.05 319.13 247 322.02 242.49 327.07 233.47 329.83 231.48 327.25"/><polygon class="cls-7" points="233.47 330.68 247 322.02 256.08 330.68 244.11 332.48 233.47 330.68"/><polygon class="cls-10" points="180 335.43 180 339.7 204.9 339.7 204.9 335.43 180 335.43"/><polygon class="cls-10" points="228.72 322.5 226.85 324.24 227.63 326.05 236.47 335.25 256.08 335.25 256.08 330.68 239.78 330.68 228.72 322.5"/><polygon class="cls-1" points="616.47 30.83 526.76 61.42 511.13 130.06 545.62 187.83 705.5 188.17 757.84 125.3 726.74 53.94 616.47 30.83"/><g class="cls-28"><polygon class="cls-16" points="558.37 171.77 549.25 177.14 563.89 203.86 583.84 178.31 558.37 171.77"/><polygon class="cls-16" points="613.52 165.15 624.42 173.98 614.23 198.06 612.01 197.71 599.5 182.6 613.52 165.15"/><polygon class="cls-13" points="579.87 163.82 565.61 148.16 549.25 177.14 568.89 181.58 579.87 163.82"/><polygon class="cls-13" points="588.75 154.4 605.23 148.4 624.27 174.1 605.89 179.79 588.75 154.4"/><polygon class="cls-17" points="600.9 66.6 592.26 53.98 559.07 66.36 569.35 93.24 600.9 66.6"/><polygon class="cls-18" points="611.89 84.13 624.74 72.83 592.26 53.98 580.34 83.89 611.89 84.13"/><polygon class="cls-6" points="586.24 262.38 515.67 255.62 585.16 249.79 652.34 255.73 586.24 262.38"/><polygon class="cls-11" points="559.28 250.58 574.19 255.05 573.87 258.23 554.6 257.87 554.71 255.19 559.28 250.58"/><polygon class="cls-11" points="624.92 249.36 633.75 252.15 633.71 254.87 609.26 255.05 609.15 252.04 624.92 249.36"/><polygon class="cls-12" points="633.75 252.15 620.16 243.07 619.84 242.5 609.79 240.35 608.97 243.89 609.12 252.04 633.75 252.15"/><polygon class="cls-12" points="574.19 255.05 569.01 245.36 566.4 237.71 559.35 244.82 558.85 245.07 554.71 255.19 574.19 255.05"/><polygon class="cls-19" points="614.23 198.06 617.52 222.59 610.72 231.56 600.03 229.13 591.06 214.76 583.23 200.85 613.01 194.6 614.23 198.06"/><polygon class="cls-20" points="617.52 222.59 620.16 243.07 608.97 243.89 600.03 229.13 617.52 222.59"/><polygon class="cls-19" points="561.32 227.99 563.89 203.86 568.54 200.87 582.63 201.57 583.77 203.03 586.02 203.75 592.28 212.51 591.06 214.76 578.66 231.92 570.83 236.17 561.32 227.99"/><polygon class="cls-20" points="558.85 245.07 561.32 227.99 578.66 231.92 569.01 245.36 558.85 245.07"/><polygon class="cls-20" points="606.26 189.09 614.23 198.06 591.06 214.76 563.89 203.86 606.26 189.09"/><polygon class="cls-16" points="575.34 146.23 558.07 109.79 570.05 84.67 571.91 89.14 578.09 136.28 581.55 146.75 583.9 152.37 575.34 146.23"/><polygon class="cls-21" points="589.06 156.34 603.23 134.67 601.58 133.57 577.94 134.17 576.34 135.3 583.9 152.37 589.06 156.34"/><polygon class="cls-19" points="616.07 110.58 624.74 72.83 615.39 75.95 614.62 77.82 615.18 82.25 616.07 110.58"/><polygon class="cls-22" points="615.39 75.95 617.51 134.34 576.3 135.3 570.05 84.67 615.39 75.95"/><polygon class="cls-21" points="564.29 123.25 561.16 116.5 569.8 115.6 564.29 123.25"/><path class="cls-20" d="M548.09,100.6l11-34.23s10.92,18.08,11,18.3-1.88,17.85-1.88,17.85l-7,14Z"/><polygon class="cls-22" points="569.8 115.6 561.16 116.5 557.47 103.01 568.17 102.52 569.8 115.6"/><polygon class="cls-21" points="566.73 111.42 565.84 105 560.5 105.35 566.73 111.42"/><polygon class="cls-16" points="602.17 112.7 609.39 101.09 613.46 95.29 600.8 96.86 598.46 99.89 594.15 96.62 590.46 96.31 577.27 96.25 586.76 103.17 595.18 113.3 602.17 112.7"/><path class="cls-23" d="M584,103.37a2.81,2.81,0,1,0,5.6.53,2.81,2.81,0,1,0-5.6-.53Z"/><polygon class="cls-21" points="598.98 116.21 602.17 112.7 595.18 113.3 598.98 116.21"/><polygon class="cls-24" points="600.8 96.86 602.17 112.7 595.18 113.3 594.15 96.62 600.8 96.86"/><polygon class="cls-20" points="601.8 96.76 605.43 91.02 613.46 95.29 601.8 96.76"/><polygon class="cls-20" points="590.34 96.17 586.57 91.28 577.27 96.25 590.34 96.17"/><polygon class="cls-21" points="606.7 121.35 588.1 121.73 592.94 129.38 603.39 128.61 606.7 121.35"/><polygon class="cls-12" points="605.23 148.4 595.35 146.82 589.06 156.34 587.25 166.92 586.21 168.83 587.61 198.26 590.14 200.3 614.23 198.06 605.23 148.4"/><polygon class="cls-11" points="575.34 146.23 565.61 148.16 565.94 178.27 563.89 203.86 590.14 200.3 589.06 156.34 575.34 146.23"/><path class="cls-23" d="M604.94,102.46a2.85,2.85,0,0,0,2.54,3.07,2.81,2.81,0,0,0,.53-5.6A2.84,2.84,0,0,0,604.94,102.46Z"/><polygon class="cls-26" points="591 123.33 604.41 122.85 603.29 125.62 593.04 126.38 591 123.33"/><polygon class="cls-29" points="632 156.2 626.33 151.81 621.8 140.08 631.68 134.99 638.43 143.33 638.94 147.09 632 156.2"/><polygon class="cls-30" points="639.52 147.73 638.43 143.33 626.33 151.81 633.29 162.34 641.17 158.75 639.52 147.73"/><polygon class="cls-29" points="642.81 163.87 642.47 156.39 644.34 147.22 641.94 139 639.07 139.96 637.86 149.51 634.65 154.87 642.81 163.87"/><polygon class="cls-30" points="714.76 169.06 724.25 173.98 709.02 198.46 688.25 175.05 714.76 169.06"/><polygon class="cls-9" points="692.38 161.78 707.22 147.44 724.25 173.98 703.82 178.05 692.38 161.78"/><polygon class="cls-7" points="683.14 153.15 665.99 147.65 646.17 171.2 665.3 176.41 683.14 153.15"/><polygon class="cls-17" points="661.01 98.2 679.49 61.16 714.03 72.51 703.33 97.13 661.01 98.2"/><polygon class="cls-18" points="659.06 88.78 645.68 78.43 679.49 61.16 676.79 97.52 659.06 88.78"/><polygon class="cls-6" points="685.76 252.06 759.2 245.87 686.88 240.53 616.97 245.97 685.76 252.06"/><polygon class="cls-11" points="713.81 241.25 698.3 245.34 698.63 248.26 718.69 247.93 718.58 245.48 713.81 241.25"/><polygon class="cls-11" points="645.5 240.14 636.31 242.69 636.35 245.18 661.8 245.34 661.91 242.59 645.5 240.14"/><polygon class="cls-12" points="636.31 242.69 650.45 234.38 650.79 233.85 661.24 231.89 662.1 235.13 661.95 242.59 636.31 242.69"/><polygon class="cls-12" points="698.3 245.34 703.69 236.47 706.41 229.46 713.74 235.98 714.26 236.21 718.58 245.48 698.3 245.34"/><polygon class="cls-19" points="656.63 193.14 653.21 215.61 660.27 223.83 671.4 221.6 680.74 208.44 688.88 195.7 657.89 189.97 656.63 193.14"/><polygon class="cls-20" points="653.21 215.61 650.45 234.38 662.1 235.13 671.4 221.6 653.21 215.61"/><polygon class="cls-19" points="711.69 220.56 709.02 198.46 704.18 195.71 689.52 196.36 688.33 197.7 685.98 198.35 679.47 206.38 680.74 208.44 693.65 224.16 701.8 228.06 711.69 220.56"/><polygon class="cls-20" points="714.26 236.21 711.69 220.56 693.65 224.16 703.69 236.47 714.26 236.21"/><polygon class="cls-20" points="664.92 184.93 656.63 193.14 680.74 208.44 709.02 198.46 664.92 184.93"/><polygon class="cls-30" points="699.22 145.69 708.6 124.62 702.6 89.28 700.67 93.37 694.24 136.55 690.64 146.14 688.2 153.46 699.22 145.69"/><polygon class="cls-31" points="682.82 154.93 668.07 135.07 669.79 134.07 694.39 134.62 696.06 135.66 698.88 136.26 688.64 151.93 682.82 154.93"/><polygon class="cls-19" points="654.71 113.01 645.68 78.43 655.41 81.28 656.22 83 655.63 87.06 654.71 113.01"/><polygon class="cls-29" points="655.41 81.28 653.21 134.78 696.11 135.65 702.6 89.28 655.41 81.28"/><polygon class="cls-31" points="708.6 124.62 711.39 118.42 702.91 116.64 708.6 124.62"/><path class="cls-20" d="M723.17,89.88,714,72.51S702.67,89.08,702.6,89.28s2,16.35,2,16.35l7.06,3.11,4.08-2.66Z"/><polygon class="cls-29" points="702.91 116.64 711.39 118.42 715.7 106.08 704.56 105.63 702.91 116.64"/><polygon class="cls-31" points="706.06 113.78 706.99 107.9 712.55 108.22 706.06 113.78"/><polygon class="cls-30" points="669.17 114.95 661.66 104.32 657.5 98.12 670.6 100.44 673.04 103.22 677.53 100.22 681.49 99.81 695.14 99.81 685.21 106.23 676.45 115.5 669.17 114.95"/><path class="cls-23" d="M688.07,106.41a2.74,2.74,0,0,1-2.63,2.84,2.87,2.87,0,0,1-3.2-2.36,2.69,2.69,0,0,1,2.64-2.81A2.88,2.88,0,0,1,688.07,106.41Z"/><polygon class="cls-31" points="672.5 118.16 669.17 114.95 676.45 115.5 672.5 118.16"/><polygon class="cls-32" points="670.6 100.44 669.17 114.95 676.45 115.5 677.53 100.22 670.6 100.44"/><polygon class="cls-20" points="669.14 100.2 664.81 95.91 657.5 98.12 669.14 100.2"/><polygon class="cls-20" points="681.49 99.81 685.88 96.16 695.14 99.81 681.49 99.81"/><polygon class="cls-31" points="665.47 122.6 684.31 122.37 672.46 129.89 665.47 122.6"/><polygon class="cls-9" points="665.99 147.65 676.47 146.01 682.82 154.93 684.7 164.62 685.78 166.37 684.33 193.33 681.69 195.19 658.5 194.58 665.99 147.65"/><polygon class="cls-7" points="699.22 145.69 707.22 147.44 706.89 175.02 709.02 198.46 681.69 195.19 682.82 154.93 699.22 145.69"/><path class="cls-23" d="M666.29,105.58a2.71,2.71,0,0,1-2.64,2.8,2.84,2.84,0,0,1-3.19-2.32,2.69,2.69,0,0,1,2.64-2.81A2.88,2.88,0,0,1,666.29,105.58Z"/><polygon class="cls-26" points="669.44 124.45 679.38 123.73 672.54 127.68 669.44 124.45"/><polygon class="cls-30" points="642.47 156.39 660.31 175.08 649.14 186.47 635.88 166.14 642.47 156.39"/><polygon class="cls-12" points="635.88 166.14 645.25 159.39 642.58 155.57 633.29 162.34 635.88 166.14"/></g><polygon class="cls-1" points="532.5 152.83 528.5 150.33 487.5 172.83 541.5 169.33 532.5 152.83"/><polygon class="cls-1" points="77.75 18.83 16 36.33 2.5 78.08 63.25 106.33 113.33 93 128.83 45.17 77.75 18.83"/><g class="cls-33"><polygon class="cls-2" points="64.5 54.83 55 58.58 58.25 61.46 81.25 61.71 76.38 51.58 64.5 54.83"/><polygon class="cls-4" points="74.88 33.71 77.38 31.71 81.38 35.58 81.25 61.71 77.75 58.71 74.88 33.71"/><path class="cls-9" d="M103.56,71.11l6.62-.08L100,67.83l.06,10.34a12.37,12.37,0,0,0-2-.16c-3.69,0-6.68,1.61-6.68,3.6s3,3.6,6.68,3.6,6.69-1.61,6.69-3.6a2,2,0,0,0,0-.42Z"/><path class="cls-9" d="M95.63,57.73l6.61-.07L92.1,54.46l.05,10.33a12.37,12.37,0,0,0-2-.15c-3.7,0-6.69,1.61-6.69,3.59s3,3.6,6.69,3.6,6.68-1.61,6.68-3.6a2,2,0,0,0-.05-.42Z"/><polygon class="cls-2" points="30.34 45.52 41.04 45.46 41.21 62.9 53.85 80.29 18 80.52 30.58 62.73 30.34 45.52"/><polygon class="cls-12" points="31.05 67.58 24.75 77.29 47.25 77.29 40.92 67.71 31.05 67.58"/><polygon class="cls-12" points="56 32.33 55 58.58 77.75 58.71 77.38 31.71 56 32.33"/><polygon class="cls-1" points="59.63 37.21 74 36.96 73.75 42.46 59.25 42.46 59.63 37.21"/><polygon class="cls-1" points="59.63 51.96 73.25 51.83 73.25 53.21 59.58 53.13 59.63 51.96"/><polygon class="cls-1" points="59.63 54.29 73.19 54.27 73.25 55.65 59.5 55.52 59.63 54.29"/></g><polygon class="cls-1" points="113 81.17 132.17 98.67 110.17 92.67 113 81.17"/></svg>