<svg id="illustration_right" data-name="illustration right" xmlns="http://www.w3.org/2000/svg" viewBox="0 0 900 350"><defs><style>.cls-1{fill:#d1a1b8;}.cls-1,.cls-10,.cls-11,.cls-12,.cls-13,.cls-14,.cls-15,.cls-16,.cls-17,.cls-18,.cls-19,.cls-2,.cls-20,.cls-21,.cls-23,.cls-24,.cls-25,.cls-26,.cls-27,.cls-28,.cls-29,.cls-3,.cls-30,.cls-31,.cls-32,.cls-33,.cls-34,.cls-35,.cls-37,.cls-4,.cls-5,.cls-6,.cls-7,.cls-8,.cls-9{fill-rule:evenodd;}.cls-2{fill:#b3889d;}.cls-3{fill:#c4c4c4;}.cls-4{fill:#a3a3a3;}.cls-5{fill:#dddddc;}.cls-13,.cls-23,.cls-43,.cls-6{fill:#2b2b2b;}.cls-6{opacity:0.2;}.cls-7{fill:#8f8f8f;}.cls-8{fill:#858686;}.cls-44,.cls-9{fill:#9075a0;}.cls-10{fill:#96637c;}.cls-11{fill:#ececeb;}.cls-12{fill:#a688ba;}.cls-13{opacity:0.1;}.cls-14{fill:#734d60;}.cls-15{fill:#785d88;}.cls-16,.cls-42{fill:#594165;}.cls-17{fill:#4f5253;}.cls-18{fill:#6f7173;}.cls-19{fill:#737373;}.cls-20{fill:#cececd;}.cls-21,.cls-45{fill:#fff;}.cls-22{fill:none;stroke:#737373;stroke-miterlimit:10;}.cls-23{opacity:0.11;}.cls-24,.cls-39{fill:#8b6651;}.cls-25{fill:#318fa6;}.cls-26,.cls-36{fill:#474747;}.cls-27{fill:#27788c;}.cls-28{fill:#50a9aa;}.cls-29{fill:#dfbda5;}.cls-30,.cls-41{fill:#c3987b;}.cls-31,.cls-38{fill:#e8cab6;}.cls-33{fill:#1c7678;}.cls-34{fill:#369496;}.cls-35{fill:#72cbcc;}.cls-37,.cls-40{fill:#543042;}</style></defs><title>analysts_INTP_scene_med_workplace_habits</title><g id="walls"><polygon class="cls-1" points="29.32 31.54 302.16 59.5 573.57 83.38 575 55 33 0.23 29.32 31.54"/><polygon class="cls-2" points="575 55 873 0.23 875 23.5 733.72 54.46 573.57 83.38 575 55"/><polygon class="cls-3" points="887 311.82 860.41 320.13 560.2 288.67 573.57 83.38 875 23.5 885.38 148.36 887 311.82"/><polygon class="cls-4" points="784.1 312.13 789.39 312.69 770.37 44.28 765.84 45.18 784.1 312.13"/><polygon class="cls-5" points="573.57 83.38 479.8 74.44 451.65 78.09 407.53 67.56 29.32 31.54 4.86 274.74 5 316.64 77.56 318.29 104.4 316.64 191.27 305.93 235.03 308.62 413 297.7 487.67 288.36 560.2 288.67 573.57 83.38"/><polygon class="cls-4" points="88.19 317.63 94.88 317.23 116.4 39.83 110.16 39.23 88.19 317.63"/><polygon class="cls-3" points="255.5 307.37 257.17 251.13 243.5 267.67 242.34 308.18 255.5 307.37"/><polygon class="cls-3" points="104.4 316.64 235.03 308.62 236.75 267.58 107.5 272 104.4 316.64"/><polygon class="cls-3" points="0 323.05 77.56 318.29 81 272.33 4.86 274.74 0 323.05"/><polygon class="cls-3" points="560.2 288.67 562.34 255.71 413 262 413 297.7 560.2 288.67"/><polygon class="cls-3" points="312.24 58.48 310.38 113.46 313.25 119.96 315.12 58.76 312.24 58.48"/><polygon class="cls-3" points="370.24 64.01 368.42 117.46 371.3 123.96 373.12 64.28 370.24 64.01"/><polygon class="cls-6" points="111.99 316 121.01 271.54 116.4 214.74 136.22 196.5 129.67 161.78 146.05 153.04 179 221.62 174.25 295.23 167.89 312.74 111.99 316"/><polygon class="cls-3" points="79.25 44.88 100 47 99.33 52.67 78.67 50.67 79.25 44.88"/><polygon class="cls-3" points="125 48.75 145.75 50.88 145.08 56.54 124.42 54.54 125 48.75"/><polygon class="cls-3" points="322.67 67.5 363.33 71.33 363.33 74.67 322.33 70.67 322.67 67.5"/><polygon class="cls-3" points="322.67 74.51 363.33 78.34 363.33 81.67 322.33 77.67 322.67 74.51"/><polygon class="cls-3" points="322.67 81.51 363.33 85.34 363.33 88.68 322.33 84.68 322.67 81.51"/><polygon class="cls-3" points="14.36 180.27 85.67 182.67 94.33 85.33 24.47 79.82 14.36 180.27"/><polygon class="cls-7" points="86.17 92.33 84.58 108.5 82.67 108.33 84.08 92.17 86.17 92.33"/><polygon class="cls-7" points="81.17 91.75 79.58 107.92 77.67 107.75 79.08 91.58 81.17 91.75"/><polygon class="cls-7" points="76.33 91.5 74.75 107.67 72.83 107.5 74.25 91.33 76.33 91.5"/><polygon class="cls-7" points="71.25 90.92 69.67 107.08 67.75 106.92 69.17 90.75 71.25 90.92"/><polygon class="cls-5" points="79.33 168.83 78.67 176.67 50.67 175.67 51.5 167.83 79.33 168.83"/><polygon class="cls-5" points="14.99 173.99 44.33 175.33 45.17 167.33 15.8 165.99 14.99 173.99"/><polygon class="cls-3" points="479.8 74.44 407.53 67.56 405.33 133.99 477.67 136.66 479.8 74.44"/><polygon class="cls-7" points="470.58 81.97 470.02 93 468.72 92.95 469.17 81.93 470.58 81.97"/><polygon class="cls-7" points="466.58 81.52 466.02 92.54 464.71 92.49 465.16 81.47 466.58 81.52"/><polygon class="cls-7" points="462.58 81.12 462.02 92.15 460.71 92.09 461.16 81.08 462.58 81.12"/><polygon class="cls-7" points="458.57 80.71 458.01 91.73 456.71 91.68 457.16 80.66 458.57 80.71"/><polygon class="cls-4" points="885.38 148.36 849 150 860.41 320.13 900 324.28 885.38 148.36"/><polygon class="cls-8" points="860.21 160.95 874.6 160.34 875.01 163.63 860 164.24 860.21 160.95"/><polygon class="cls-8" points="861.44 169.59 875.84 168.98 876.25 172.27 861.24 172.88 861.44 169.59"/><polygon class="cls-8" points="862.26 178.24 876.66 177.62 877.07 180.91 862.06 181.53 862.26 178.24"/><polygon class="cls-8" points="863.09 186.88 877.48 186.26 877.89 189.55 862.88 190.17 863.09 186.88"/></g><g id="door"><polygon class="cls-1" points="279 305.93 279 142.67 314.5 123.55 369.93 128.44 393.5 149.93 385.98 299.36 376.48 299.94 363.71 298.36 347.04 301.75 323.06 303.22 309.25 301.11 290.63 305.21 279 305.93"/><polygon class="cls-2" points="333.19 302.31 336.33 129.37 340.33 129.37 337.83 302.31 333.19 302.31"/><polygon class="cls-9" points="263.52 306.88 267.5 138.89 310.47 113.4 371.18 117.03 404.25 148.72 401.67 298.4 385.98 299.36 388 153.04 366.49 132.27 313 130 284.67 146.29 279 305.93 263.52 306.88"/><polygon class="cls-10" points="329.25 219.12 328.75 237 324 232.63 324.25 221.97 329.25 219.12"/><polygon class="cls-10" points="344.63 219.25 344.38 237 349.13 233.25 349.13 223 344.63 219.25"/><polygon class="cls-2" points="290.63 305.21 323.06 303.22 324.05 256.01 291.75 274.75 290.63 305.21"/><polygon class="cls-2" points="347.04 301.75 376.48 299.94 376.25 271.25 347.75 256 347.04 301.75"/><polygon class="cls-2" points="291 151 313.5 137.25 331.25 138.25 329.5 202.25 289.5 202.25 291 151"/><polygon class="cls-10" points="325.75 143.75 324.5 196.5 313.8 196.5 309.25 160.56 315.25 143.25 325.75 143.75"/><polygon class="cls-11" points="295 196.5 313.8 196.5 315.25 143.25 296.25 154.5 295 196.5"/><polygon class="cls-12" points="328 108.67 356.25 110.33 356.25 103 328 101 328 108.67"/></g><g id="robot"><polygon class="cls-13" points="475.47 322.24 509.58 314.71 625.45 311.73 731.51 327.41 622.54 349.77 475.47 322.24"/><polygon class="cls-10" points="588.76 189.15 580.32 244.17 569.13 248.01 557.24 247.44 571.3 184.69 588.76 189.15"/><polygon class="cls-14" points="576.05 193.66 586.33 201.22 596.88 201.04 592 189.52 576.05 193.66"/><polygon class="cls-15" points="522.39 202.16 521.25 217.5 514.65 216.72 516.94 206.97 522.39 202.16"/><polygon class="cls-15" points="510.8 198.18 506.58 214.05 500.95 211.71 505.87 196.66 510.8 198.18"/><polygon class="cls-9" points="514.65 202.16 509.58 219.12 504.32 217.5 510.8 198.18 514.65 202.16"/><polygon class="cls-14" points="537.9 162.84 545.8 167.33 522.39 170.92 501.88 161.43 509.58 160.69 537.9 162.84"/><polygon class="cls-15" points="538.71 153.04 537.9 162.84 523.71 164.94 521.82 159.73 524.31 156.38 538.71 153.04"/><polygon class="cls-12" points="523.71 164.94 509.58 160.69 511.36 149.93 524.31 156.38 523.71 164.94"/><polygon class="cls-10" points="527.41 99.87 523.71 126.22 524.31 156.38 548.93 156.38 552.36 108.56 527.41 99.87"/><polygon class="cls-1" points="524.31 156.38 501.88 149.93 508.17 108.56 527.41 99.87 524.31 156.38"/><polygon class="cls-10" points="545.8 167.33 537.16 202.16 516.94 206.97 517.73 185.61 522.39 168.66 545.8 167.33"/><polygon class="cls-1" points="522.39 168.66 516.94 206.97 494.98 198.18 501.88 161.43 522.39 168.66"/><polygon class="cls-14" points="642.4 108.89 661.01 106.28 661.01 128.44 638.49 128.44 642.4 108.89"/><polygon class="cls-14" points="694.41 279.07 683.26 274.94 681.65 235.01 693.66 236.41 694.41 279.07"/><polygon class="cls-10" points="706.42 234.79 703.42 276.07 694.41 279.07 692.53 237.54 698.19 235.29 706.42 234.79"/><polygon class="cls-10" points="659.04 244.17 657.91 257.04 659.04 283.57 667.76 281.47 673.39 240.2 659.04 244.17"/><polygon class="cls-2" points="659.04 283.57 650.88 281.43 645.93 236.1 653.51 238.52 659.04 244.17 659.04 283.57"/><polygon class="cls-15" points="692.53 210.35 689.91 225.85 675.25 230.28 673.99 222.43 677.14 217.28 692.53 210.35"/><polygon class="cls-12" points="675.25 228.03 668.7 227.62 663.26 223.15 665.14 206.97 677.14 217.28 675.25 228.03"/><polygon class="cls-14" points="706.42 161.25 694.03 165.41 667.01 160.17 656.13 154.84 681.65 148.99 706.42 161.25"/><polygon class="cls-16" points="508.69 291.83 555.82 288.36 586.33 291.08 562.67 317.38 508.69 291.83"/><polygon class="cls-16" points="588.2 305.31 639.99 291.89 673.39 294.15 650.13 325.61 588.2 305.31"/><polygon class="cls-10" points="575.44 276.85 573 308.64 552.36 311.73 554.99 278.09 575.44 276.85"/><polygon class="cls-10" points="630.85 289.91 638.49 319.99 661.01 315.47 650.88 281.43 630.85 289.91"/><polygon class="cls-14" points="555.63 278.05 541.9 273.58 537.9 307.56 547.06 310.2 555.63 278.05"/><polygon class="cls-14" points="612.41 288.36 630.85 289.91 632.07 319.24 617.87 317.58 612.41 288.36"/><polygon class="cls-1" points="627.05 289.45 632.07 319.24 638.49 319.99 633.24 291.08 627.05 289.45"/><polygon class="cls-1" points="608.09 289.04 613.93 288.39 617.87 317.58 612.41 316.94 608.09 289.04"/><polygon class="cls-1" points="556.71 279.45 552.36 311.73 547.06 310.2 553.03 276.21 556.71 279.45"/><polygon class="cls-1" points="539.79 274.94 544.01 274.94 537.9 307.56 533.41 306.27 539.79 274.94"/><polygon class="cls-16" points="530.78 244.17 552.36 237.41 559.68 249.62 530.78 244.17"/><polygon class="cls-16" points="591.2 257.68 612.41 248.01 618.6 261.06 591.2 257.68"/><polygon class="cls-15" points="609.59 13.74 601.15 0.23 600.02 6.61 601.15 9.99 604.81 13.74 609.59 13.74"/><polygon class="cls-9" points="601.15 0.23 588.11 9.99 594.63 13.74 601.15 9.99 601.15 0.23"/><polygon class="cls-14" points="616.91 37.01 609.59 13.74 601.15 9.99 598.43 21.25 601.15 32.51 616.91 37.01"/><polygon class="cls-10" points="601.15 9.99 588.11 9.99 582.95 22 601.15 32.51 601.15 9.99"/><polygon class="cls-14" points="615.84 47.21 593.78 48.74 573.57 54.46 573.57 83.38 562.09 96.75 588.11 102.25 621.91 101 614.66 79.79 615.84 47.21"/><polygon class="cls-10" points="631.69 44.58 636.05 83.38 635.49 95.1 643.93 115.03 630.34 195.06 641.02 240.44 630.01 253.94 618.6 261.06 601.15 191.69 621.91 101 621.91 89.36 612.41 79.79 615.84 47.21 612.41 42.55 616.91 37.01 631.69 44.58"/><polygon class="cls-2" points="612.41 79.79 636.05 83.38 643.93 115.03 621.91 101 612.41 79.79"/><path class="cls-17" d="M637.23,148.41l13.65-36.26-29-11.15-66.34-4.72-28.16,3.59L532.29,146l23.65,5.13-1.51,5.25,2.15,10.31a9.5,9.5,0,0,1,.17,1.29l.49,10.37-16.32,69,16.32.06,18.81-53.78h12l13.08,67.4H618.6l-6.19-61.49,3.11-32.24-3.11-7.54,4.73-9.26Z"/><polygon class="cls-18" points="622.54 112.6 638.49 116.17 630.52 140.15 618.41 141.82 622.54 112.6"/><polygon class="cls-18" points="537.16 107.54 554.43 106.28 554.43 141.82 538.91 138.14 537.16 107.54"/><polygon class="cls-18" points="563.81 108.56 612.41 112.15 600.52 182.61 570.75 181.48 563.81 108.56"/><polygon class="cls-16" points="615.84 47.21 579.95 27.25 525.9 35.13 573.57 54.46 615.84 47.21"/><polygon class="cls-15" points="616.91 37.01 582.95 22 579.95 27.25 579.95 30.63 584.75 35.13 591.27 35.86 615.84 47.21 616.91 37.01"/><polygon class="cls-9" points="525.9 22 582.95 22 579.95 30.63 525.9 35.13 521.78 30.63 525.9 22"/><polygon class="cls-9" points="579.95 30.63 562.39 49.93 566.43 54.46 573.57 54.46 591.27 35.86 579.95 30.63"/><polygon class="cls-16" points="562.39 49.93 542.98 124.45 554.43 124.99 573.57 54.46 562.39 49.93"/><polygon class="cls-16" points="501.88 54.46 498.88 116.78 496.63 122.03 488.07 124.74 490.44 49.77 499.63 49.77 501.88 54.46"/><polygon class="cls-16" points="554.43 124.99 617.14 150.53 615.52 167.33 554.43 135.7 552.36 129.31 554.43 124.99"/><polygon class="cls-16" points="488.07 124.74 556.71 167.33 555.94 151.13 510.74 126.59 488.07 124.74"/><polygon class="cls-9" points="498.88 116.78 554.43 124.99 554.43 135.7 488.07 124.74 498.88 116.78"/><polygon class="cls-15" points="525.9 22 490.44 49.77 501.88 54.46 525.9 35.13 525.9 22"/><polygon class="cls-16" points="630.34 195.06 621.91 189.15 612.41 199.57 625.45 210.35 630.34 195.06"/><polygon class="cls-9" points="618.74 199.75 622.54 194.77 625.45 197.26 623.39 202.79 618.74 199.75"/><polygon class="cls-15" points="641.02 240.44 618.6 261.06 616.49 280.2 633.24 291.08 650.88 281.43 641.02 240.44"/><polygon class="cls-15" points="580.32 244.17 575.44 276.85 556.71 279.45 546.54 268.11 557.24 247.44 580.32 244.17"/><polygon class="cls-12" points="618.6 261.06 591.2 257.68 594.63 279.45 609.22 281.47 618.74 279.07 618.6 261.06"/><polygon class="cls-12" points="557.24 247.44 530.78 244.17 530.78 261.81 539.49 267.65 548.8 269.24 557.24 247.44"/><polygon class="cls-9" points="594.63 279.45 608.09 289.04 633.24 291.08 618.74 279.07 594.63 279.45"/><polygon class="cls-9" points="530.78 261.81 539.79 274.94 556.71 279.45 548.8 269.24 530.78 261.81"/><polygon class="cls-14" points="637.2 312.89 645.93 296.8 659.04 308.84 650.5 318.7 637.2 312.89"/><polygon class="cls-14" points="553.56 302.83 563.9 292.86 573.57 301.96 563.9 312.45 553.56 302.83"/><polygon class="cls-1" points="560.2 302.98 563.9 298.54 567.94 302.01 563.43 306.09 560.2 302.98"/><polygon class="cls-1" points="643.93 310.2 647.76 304.72 652.38 307.19 648.86 312.71 643.93 310.2"/><polygon class="cls-15" points="673.39 294.15 650.5 317.58 630.61 310.56 627.05 325.61 630.85 340.6 667.76 329.68 675.25 313.83 673.39 294.15"/><polygon class="cls-15" points="548.93 299.54 563.9 310.2 586.33 291.08 585.95 306.18 579.38 322.24 547.06 328.8 545.23 314.76 548.93 299.54"/><polygon class="cls-12" points="548.93 299.54 508.69 291.83 509.58 322.99 517.82 324.27 527.04 323.05 536.26 327.13 547.06 328.8 548.93 299.54"/><polygon class="cls-12" points="630.61 310.56 588.2 305.31 587.08 333.87 598.36 335.61 608.05 335 617.73 338.59 630.85 340.6 630.61 310.56"/><polygon class="cls-9" points="617.73 338.59 616.49 325.61 599.27 323.05 598.36 335.61 617.73 338.59"/><polygon class="cls-9" points="536.26 327.13 534.91 314.76 519.52 311.73 517.82 324.27 536.26 327.13"/><polygon class="cls-10" points="673.39 73.96 702.29 96.28 706.42 161.25 681.65 151.24 673.39 122.06 673.39 73.96"/><polygon class="cls-1" points="673.39 73.96 652.38 77.92 656.13 154.84 681.65 151.24 673.39 73.96"/><polygon class="cls-15" points="694.41 173.5 694.03 165.41 679.4 157.2 677.14 163.86 679.4 170.43 694.41 173.5"/><polygon class="cls-12" points="679.4 157.2 667.01 160.17 667.01 172.69 679.4 170.43 679.4 157.2"/><polygon class="cls-10" points="702.29 217.28 702.29 173.5 679.4 170.43 676.11 191.93 677.14 217.28 702.29 217.28"/><polygon class="cls-1" points="679.4 170.43 659.04 172.38 656.13 211.71 677.14 217.28 679.4 170.43"/><polygon class="cls-10" points="689.91 225.85 706.42 234.79 659.04 244.17 675.25 228.03 689.91 225.85"/><polygon class="cls-1" points="675.25 228.03 659.04 244.17 645.93 236.1 663.26 223.15 675.25 228.03"/></g><g id="alien"><polygon class="cls-6" points="838.16 226.75 821.38 239.38 819.97 202.91 838.16 214.29 840.34 219.88 838.16 226.75"/><polygon class="cls-19" points="816.16 259.56 822.35 243.88 818.12 224.29 819.97 202.91 811.09 131.41 809.5 106.28 737.91 112.44 740.83 257.69 816.16 259.56"/><polygon class="cls-17" points="737.91 112.44 816.16 137.46 814 100.45 737.91 112.44"/><polygon class="cls-20" points="740.83 257.69 822.35 243.88 823.47 263.2 740.83 257.69"/><polygon class="cls-5" points="733.72 151.43 733.72 165.08 767.04 169.63 767.04 161.99 733.72 151.43"/><polygon class="cls-5" points="734.15 189.05 739.27 183.25 769.77 178.89 771.68 183.25 743.01 189.55 734.15 189.05"/><polygon class="cls-21" points="755.99 185.67 753.75 176 750.38 186.54 755.99 185.67"/><polygon class="cls-21" points="751.72 157.13 745.01 173.99 743.99 154.68 751.72 157.13"/><polygon class="cls-21" points="763.15 160.75 759.76 171.27 758.26 159.2 763.15 160.75"/><polygon class="cls-21" points="743.99 187.53 739.17 178.89 739.37 188.24 743.99 187.53"/><polygon class="cls-16" points="799.93 178.89 799.05 187.47 819.97 202.91 819.08 187.65 810.12 180.64 799.93 178.89"/><polygon class="cls-15" points="799.93 178.89 819.08 187.65 817.85 166.52 804.17 158.5 799.93 178.89"/><polygon class="cls-9" points="815.67 129.03 760.71 119.73 741.19 144.3 767.04 156.77 783.79 149.86 817.85 166.52 815.67 129.03"/><polygon class="cls-12" points="760.71 119.73 767.04 156.77 730.99 147.93 760.71 119.73"/><polygon class="cls-16" points="799.93 178.89 808.36 166.52 777.03 168.36 771.68 183.25 791.29 183.14 799.93 178.89"/><polygon class="cls-15" points="799.93 178.89 797.99 197.99 726.38 207.5 734.15 189.05 799.93 178.89"/><polygon class="cls-9" points="791.29 180.22 799.05 187.47 791.29 198.88 784.39 189.55 791.29 180.22"/><polygon class="cls-15" points="787.42 168.03 783.06 174.89 781.78 181.83 786.52 174.89 787.42 168.03"/><polygon class="cls-15" points="796.7 167.75 796.7 174.79 791.29 180.22 793.07 173.71 796.7 167.75"/><polygon class="cls-16" points="802.17 161.07 784.39 151.91 772.5 159.07 779.52 165.08 802.17 161.07"/><polygon class="cls-15" points="804.17 158.5 780.69 163.99 771.68 156.77 767.04 161.99 777.03 168.36 813.1 167.21 804.17 158.5"/><polygon class="cls-10" points="817.5 160.53 784.39 146.81 765.57 151.91 733.72 145.41 726.38 149.25 767.04 165.24 784.39 155.32 818.12 171.27 817.5 160.53"/><polygon class="cls-15" points="819.97 202.91 815.22 208.12 808.36 211.65 809.5 216.6 806.77 221.55 807.69 226.75 805.63 231.94 822.35 243.88 819.97 202.91"/><polygon class="cls-12" points="819.97 202.91 834.39 213.32 808.36 211.65 813.99 207.41 819.97 202.91"/><polygon class="cls-9" points="808.36 211.65 834.39 219.51 806.77 221.55 807.63 216.22 808.36 211.65"/><polygon class="cls-12" points="806.77 221.55 834.39 226.79 805.63 231.94 806.13 227.41 806.26 226.19 806.77 221.55"/><polygon class="cls-10" points="825.67 207.03 823.96 212.65 838.16 214.29 825.67 207.03"/><polygon class="cls-10" points="820.58 215.34 820.99 220.5 840.34 219.88 820.58 215.34"/><polygon class="cls-10" points="821.21 224.29 821.49 229.1 838.16 226.75 821.21 224.29"/><polygon class="cls-10" points="785.15 59.94 802.83 57.64 802.1 74.61 791.73 76.07 792.83 83.06 787.41 84.38 785.22 71.97 796.39 70.41 796.2 63.75 785.89 65.82 785.15 59.94"/><polygon class="cls-10" points="787.13 88.74 793.28 87.68 794.76 94.8 785.83 95.94 787.13 88.74"/><polygon class="cls-5" points="766.83 304.33 677.14 324.28 743.99 345 838.16 317.8 766.83 304.33"/><polygon class="cls-19" points="838.16 317.8 838.16 324.28 743.99 350 742.99 346.33 743.99 342.99 838.16 317.8"/><polygon class="cls-7" points="677.14 324.28 677.14 328.8 743.99 350 743.99 342.99 677.14 324.28"/><line class="cls-22" x1="708.67" y1="322.83" x2="751" y2="335.83"/><line class="cls-22" x1="716.17" y1="321" x2="757.17" y2="333.5"/><line class="cls-22" x1="725" y1="319.33" x2="766.17" y2="331.67"/><line class="cls-22" x1="733" y1="317.33" x2="773.67" y2="329.5"/><line class="cls-22" x1="740.34" y1="315.17" x2="781.34" y2="327.33"/><line class="cls-22" x1="747.17" y1="313.17" x2="789" y2="324.67"/><line class="cls-22" x1="755.5" y1="311.5" x2="797.67" y2="322.67"/><line class="cls-22" x1="764" y1="310" x2="806" y2="320.17"/><polygon class="cls-7" points="741.75 338.88 745 337.13 748 339.13 743.75 340.63 741.75 338.88"/><polygon class="cls-7" points="688.88 324.63 692.13 322.88 695.25 323.63 691.88 325.5 688.88 324.63"/><polygon class="cls-7" points="763.25 307.5 766.5 305.75 770.25 306.75 766.75 308 763.25 307.5"/><polygon class="cls-7" points="819.75 318.63 823.25 316.88 827.75 317.38 822.75 319.5 819.75 318.63"/><polygon class="cls-23" points="695.84 334.73 695.84 329.51 704.53 318.19 677.14 324.28 677.14 328.8 695.84 334.73"/></g><g id="sentinel"><polygon class="cls-13" points="111.99 316.18 171 312.33 227.34 321.99 139.04 332.9 111.99 316.18"/><polygon class="cls-24" points="228.99 207.69 234.23 214.58 223.2 215.95 228.99 207.69"/><polygon class="cls-17" points="176.03 257.09 162.24 267.89 167.86 311.24 173.36 313.19 183.16 310.01 193.66 251.11 176.03 257.09"/><polygon class="cls-25" points="183.16 310.01 192.86 321.99 168.07 321.99 167.86 311.24 183.16 310.01"/><polygon class="cls-26" points="167.76 269 152.8 265.17 133.88 251.81 166.93 249.22 193.66 251.11 167.76 269"/><polygon class="cls-18" points="167.76 269 133.88 251.81 143.74 317.99 151.91 317.95 159.03 313.29 167.76 269"/><polygon class="cls-27" points="159.03 313.29 158.24 324.53 136.22 324.53 143.15 314.33 159.03 313.29"/><polygon class="cls-28" points="187.17 176.48 205.86 209.25 186.34 223.1 187.17 176.48"/><polygon class="cls-29" points="219.18 104.48 199.78 99.86 187.44 99.53 180.06 92.43 167.45 86.56 167.57 94.53 171.72 99.79 164.78 106.29 161.86 114.77 160.31 126.04 162.16 136.5 159.61 135.69 156.65 136.69 157.27 131.57 155.91 127.3 150.24 126.63 145.29 128.23 145.32 135.99 147.32 143.83 145.57 148.01 146.21 154.73 147.1 158.04 145.63 160.45 151.34 169.25 161.69 180.23 166.83 178.29 170.53 174.76 174.25 166.79 200.35 172.82 209.3 143.29 212.9 138.45 215.25 128.14 214.28 124.43 219.18 104.48"/><polygon class="cls-30" points="177.45 93.05 174.23 114.42 169.78 133.56 163.54 164.07 174.25 166.79 171.55 170.19 170.53 174.76 161.69 180.23 143.68 165.66 147.32 143.83 155.85 144.11 156.65 136.69 159.23 135.55 162.16 136.5 160.95 129.69 161.86 114.77 165.52 107.19 171.72 99.79 168.73 93.98 167.45 86.56 174.13 90.08 177.45 93.05"/><polygon class="cls-24" points="147.32 143.83 155.85 144.11 145.69 153.62 145.69 147.87 147.32 143.83"/><polygon class="cls-24" points="174.25 166.79 159.11 162.95 161.69 180.23 167.25 178.36 170.53 174.76 174.25 166.79"/><polygon class="cls-24" points="175.22 130.2 179.56 122.75 187.93 124.46 187.81 134.14 169.78 133.56 186.17 139.27 187.93 143.4 193.98 119.43 177.74 120.2 174.03 124.36 175.22 130.2"/><polygon class="cls-24" points="202.08 136.28 205.46 129.55 213.29 130.57 214.75 132.47 210.31 141.14 195.92 139.97 195.23 142.7 209.3 143.29 214.9 136.82 216.49 126.91 202.36 124.58 198.71 135.05 202.08 136.28"/><polygon class="cls-24" points="187.93 143.4 190.32 147.68 194.61 145.17 187.93 143.4"/><polygon class="cls-31" points="192.9 124.13 199.53 125.66 194.61 145.17 187.93 143.4 192.9 124.13"/><polygon class="cls-27" points="192.9 124.13 192.52 121.41 193.98 119.43 200.65 121.04 201.5 123.78 199.53 125.66 192.9 124.13"/><path class="cls-25" d="M194,119.43l-19.75-5-2.42,6.92-.48,5.54-1.55,6.68,19.52,4.54,3.6-14,1.08-4.7Zm-16.24.77,10.58,2.69-2.45,9.85-10.65-2.54Z"/><path class="cls-25" d="M200.65,121l19.29,4.79-4.8,18.91L195.92,140l3.61-14.31,1.12-4.62Zm3.78,6-2.35,9.24,9.13,2.39,2.42-9.39Z"/><path class="cls-32" d="M184.35,126.89c.69.16,1.06,1.07.84,2s-1,1.61-1.65,1.46-1.06-1.07-.84-2S183.66,126.73,184.35,126.89Z"/><path class="cls-32" d="M209.27,133.09a1.59,1.59,0,0,1,.84,2c-.22,1-1,1.61-1.64,1.45s-1.07-1.06-.85-2S208.59,132.93,209.27,133.09Z"/><polygon class="cls-24" points="177.69 150.89 187.26 154.21 197.02 155.63 196.65 158.11 186.77 156.66 177.32 153.37 177.69 150.89"/><polygon class="cls-24" points="153.6 137.92 152.97 131.35 148.46 131.24 153.6 137.92"/><polygon class="cls-20" points="219.18 104.48 187.49 84.76 186.34 93.17 187.44 99.53 219.18 104.48"/><polygon class="cls-3" points="167.45 86.56 158.56 86.61 150.05 100.18 159.46 101.66 171.72 99.79 167.45 86.56"/><polygon class="cls-11" points="150.05 100.18 135.24 123.21 149.55 119.83 161.86 114.77 171.72 99.79 150.05 100.18"/><polygon class="cls-4" points="161.86 114.77 162.16 136.5 156.65 136.69 155.83 127.31 145.29 128.23 147.32 143.83 145.69 153.62 135.24 123.21 161.86 114.77"/><polygon class="cls-3" points="187.44 99.53 187.49 84.76 167.45 86.56 187.44 99.53"/><polygon class="cls-27" points="174.23 114.42 141.01 126.44 145.94 133.18 145.29 128.23 155.91 127.39 171.33 126.88 174.23 114.42"/><polygon class="cls-24" points="162.03 127.2 171.33 126.88 170.54 130.27 162.07 129.54 162.03 127.2"/><polygon class="cls-19" points="155.84 127.39 162.03 127.2 162.07 129.54 155.98 129 155.84 127.39"/><polygon class="cls-33" points="187.17 176.48 190.41 213.31 183.05 223.76 134.37 223.61 133.88 178.4 187.17 176.48"/><polygon class="cls-34" points="190.41 213.31 133.88 234.47 133.88 251.81 193.66 251.11 190.41 213.31"/><polygon class="cls-35" points="133.88 178.4 145.74 216.4 133.88 234.47 119.21 185.49 133.88 178.4"/><polygon class="cls-28" points="144.96 213.39 166.44 209.25 171.72 215.95 170.96 223.84 133.88 234.47 144.96 213.39"/><polygon class="cls-5" points="166.44 209.25 171.91 208.06 175.03 213.98 177.2 221.62 170.96 223.84 166.44 209.25"/><rect class="cls-36" x="190.08" y="190.38" width="5.87" height="42.54" transform="translate(-88.54 158.93) rotate(-37.03)"/><polygon class="cls-11" points="143.68 165.66 141.57 174.52 161.1 185.34 169.15 187.93 175.1 181.29 178.38 172.76 174.25 166.79 166.6 176.78 143.68 165.66"/><polygon class="cls-3" points="178.38 172.76 187.17 176.48 177.45 191.83 171.56 198.46 163.79 195.65 133.88 178.4 141.57 174.52 169.15 187.93 178.38 172.76"/><polygon class="cls-26" points="166.6 176.78 161.77 184.34 169.15 187.93 173.77 180.45 166.6 176.78"/><polygon class="cls-19" points="169.15 187.93 163.79 195.66 172.01 200.4 177.45 191.83 169.15 187.93"/><polygon class="cls-29" points="171.91 208.06 181.41 201.15 186.09 207.04 181.25 219.7 177.2 221.62 171.91 208.06"/><polygon class="cls-24" points="181.41 201.15 181.25 219.7 190.86 218.54 193.82 207.85 181.41 201.15"/><polygon class="cls-18" points="180.36 246.74 195.38 201.15 215.06 195.59 236.73 194.07 220.99 238.33 180.36 246.74"/><polygon class="cls-26" points="195.38 201.15 236.73 194.07 238.92 187.93 197.52 194.63 195.38 201.15"/><polygon class="cls-6" points="219.18 229.23 221.8 236.07 224.23 229.23 219.18 229.23"/><polygon class="cls-29" points="234.23 214.58 228.71 230.4 219.18 229.23 219.94 214.58 234.23 214.58"/></g><g id="intp"><polygon class="cls-13" points="366.94 332.62 428.88 322.51 488.15 335.37 416.84 346 366.94 332.62"/><polygon class="cls-30" points="465.65 160.56 472.53 148.43 475.59 150.18 472.16 160.42 470.3 167.07 465.65 160.56"/><polygon class="cls-3" points="433.41 182.51 467.92 201.51 467.33 215.73 450.22 215.4 433.41 182.51"/><polygon class="cls-4" points="468.56 216.95 469.47 179.74 465.81 177.66 458.94 176.31 451.65 203.38 450.22 215.4 468.56 216.95"/><polygon class="cls-16" points="432.65 335.37 433.75 330.28 428.88 322.51 429.19 335.37 432.65 335.37"/><polygon class="cls-16" points="411.84 339.28 413.92 331.84 408.87 327.02 408.63 339.28 411.84 339.28"/><polygon class="cls-7" points="392.74 313.44 455.86 306.82 456.85 297.94 396.69 295.23 392.74 313.44"/><polygon class="cls-30" points="417.86 326.32 420.78 310.48 420.62 302.74 415.3 301.11 405.69 302.03 408.87 327.02 415.1 332.62 417.86 326.32"/><polygon class="cls-30" points="437.1 321.91 440.06 308.48 438.36 298.4 427.24 298.36 426.96 309.85 428.88 322.51 433.89 325.28 437.1 321.91"/><polygon class="cls-24" points="420.83 310.49 422.34 302.03 405.69 299.68 407.28 314.56 420.83 310.49"/><polygon class="cls-15" points="428.88 322.51 437.1 321.91 453.15 335.37 435 335.37 428.88 322.51"/><polygon class="cls-15" points="408.87 327.02 417.86 326.32 432.36 339.28 413.7 339.28 408.87 327.02"/><polygon class="cls-24" points="425.04 298.52 442.26 298.36 440.06 308.48 426.96 309.85 425.04 298.52"/><polygon class="cls-10" points="353.4 214.71 335.05 199.75 352.05 194.8 358.28 197.41 353.4 214.71"/><polygon class="cls-37" points="385.38 180.1 353.4 214.71 350.48 170.49 385.38 180.1"/><polygon class="cls-10" points="360.04 116.37 340.93 141.88 330.41 167.45 382.66 175.21 360.04 116.37"/><polygon class="cls-14" points="330.41 167.45 350.48 157.17 377.45 167.07 385.38 180.1 330.41 167.45"/><polygon class="cls-2" points="360.04 116.37 330.41 167.45 336.82 124.34 360.04 116.37"/><polygon class="cls-15" points="400.58 251.13 428.31 249.16 437.06 258.77 451.7 302.03 400.58 302.2 400.58 251.13"/><polygon class="cls-5" points="420.64 184.57 433.86 217.94 446.03 242.85 451.65 203.38 433.41 182.51 420.64 184.57"/><polygon class="cls-29" points="422.34 105.01 426.96 108.29 446.03 161.35 425.08 170.51 416.84 196.62 396.69 191.81 363.71 157.68 363.71 112.14 406.47 92.77 422.34 105.01"/><polygon class="cls-30" points="418.4 198.91 419.02 189.7 419.02 189.7 406.7 182.51 408.37 177.61 387.75 126.76 379.97 120.12 363.71 157.68 376.54 170.96 380.96 172.84 385.38 180.1 396.69 191.81 418.4 198.91"/><polygon class="cls-24" points="400.58 181.27 419.02 189.7 419.02 189.7 425.08 170.51 400.58 181.27"/><polygon class="cls-2" points="379.97 120.12 403.23 111.82 414.81 102.98 406.82 90.69 361.3 110.96 355.31 154.84 376.54 170.96 363.71 157.68 368.53 146.54 380.31 159.97 385.35 152.53 372.78 136.71 379.97 120.12"/><polygon class="cls-24" points="376.54 170.96 380.32 165.69 385.38 180.1 376.54 170.96"/><polygon class="cls-38" points="427.31 145.6 419.88 148.29 411.21 126.65 418.64 123.96 427.31 145.6"/><polygon class="cls-39" points="427.31 145.6 425.14 149.84 419.88 148.29 427.31 145.6"/><polygon class="cls-40" points="393.66 128.26 397.54 127.54 400.1 124.36 405.69 121.91 398.21 122.59 393.66 128.26"/><polygon class="cls-40" points="419.02 121.91 421.21 123.04 424.81 118.69 428.51 116.87 423.58 117.14 419.02 121.91"/><polygon class="cls-41" points="433.18 136.12 425.64 141.43 424.81 139.17 433.18 136.12"/><polygon class="cls-41" points="399.67 148.29 418.64 145.22 417.24 141.88 399.67 148.29"/><polygon class="cls-41" points="395.25 136.11 411.21 135.98 410.47 129.79 395.25 136.11"/><polygon class="cls-41" points="429.48 123.69 425.08 130.7 421.83 124.74 429.48 123.69"/><polygon class="cls-10" points="406.82 90.69 403.23 111.82 422.34 105.01 406.82 90.69"/><polygon class="cls-14" points="369.39 149.84 380.38 159.87 385.35 152.53 372.78 136.71 379.97 120.12 361.3 110.96 350.48 157.17 363.71 160.26 369.39 149.84"/><polygon class="cls-42" points="368.53 146.54 365.98 152.44 363.71 144.8 390.73 134.09 393.66 141.34 368.53 146.54"/><polygon class="cls-37" points="350.48 157.17 376.54 170.96 363.71 157.68 350.48 157.17"/><polygon class="cls-11" points="401.65 208.35 399.64 217.74 415.81 225.56 421.57 222.69 410.71 209.21 410.71 209.21 401.65 208.35"/><polygon class="cls-16" points="416.86 196.62 416.84 196.62 409.67 198.91 408.13 206.01 408.13 206.01 412.29 211.17 418.43 206.29 416.86 196.62"/><polygon class="cls-9" points="416.84 196.62 408.13 206.01 396.69 191.81 416.84 196.62"/><polygon class="cls-11" points="419.93 186.88 434.36 214.49 445.04 195.82 419.93 186.88"/><polygon class="cls-5" points="396.69 191.81 421.57 222.69 420.48 253.25 408.13 321.17 371.05 310.49 404.87 250.82 380.96 207.5 396.69 191.81"/><polygon class="cls-3" points="420.47 253.43 371.05 310.49 400.58 251.13 409.67 249.11 420.47 253.43"/><polygon class="cls-9" points="420.47 253.43 451.7 302.03 450.99 279.8 442.8 256.01 432.49 249.11 420.47 253.43"/><path class="cls-43" d="M432,127.1c.48,1.5.18,2.94-.67,3.21s-1.93-.72-2.41-2.21-.19-2.94.67-3.21S431.56,125.61,432,127.1Z"/><path class="cls-43" d="M409,135.64c.48,1.49.18,2.93-.67,3.2s-1.93-.72-2.41-2.21-.19-2.94.66-3.21S408.52,134.14,409,135.64Z"/><polygon class="cls-7" points="434.36 214.49 415.81 220.2 393.98 236.45 400.58 251.13 420.47 253.43 425.08 247.44 442.8 256.01 447.18 252.95 449.2 241.5 451.65 203.38 434.36 214.49"/><polygon class="cls-16" points="434.36 214.49 419.93 220.65 420.48 253.25 420.64 253.44 442.8 256.01 434.36 214.49"/><polygon class="cls-3" points="434.36 214.49 433.41 182.51 428.99 176.94 423.05 176.94 412.19 211.59 419.93 216.95 434.36 214.49"/><polygon class="cls-3" points="396.69 191.81 396.31 212.84 380.96 207.5 396.69 191.81"/><polygon class="cls-11" points="396.69 191.81 393.79 209.16 413.63 212.84 396.69 191.81"/><polygon class="cls-4" points="380.96 207.5 393.98 236.45 434.36 214.49 380.96 207.5"/><polygon class="cls-30" points="423.05 176.94 428.08 160.42 436.12 165.69 441.39 171.63 433.41 182.51 423.05 176.94"/><polygon class="cls-30" points="428.08 160.42 440.02 156.82 446.03 161.35 439.29 164.3 428.08 160.42"/><polygon class="cls-29" points="428.08 160.42 446.03 161.35 447.18 169.55 441.39 171.63 428.08 160.42"/><polygon class="cls-29" points="376.54 170.96 382.66 162.43 368.53 146.54 363.71 157.68 376.54 170.96"/><polygon class="cls-24" points="370.07 152.44 374.96 157.25 367.14 156.82 370.07 152.44"/><polygon class="cls-21" points="386.14 165.94 383.36 168.73 377.45 162.81 380.38 159.87 386.14 165.94"/><polygon class="cls-3" points="442.8 256.01 457.54 267.34 479.15 294.15 454.65 317.32 442.8 256.01"/><polygon class="cls-11" points="442.8 256.01 479.15 294.15 449.2 241.5 442.8 256.01"/><polygon class="cls-42" points="411.66 159.18 421.1 159.37 427.11 157.54 423.08 154.59 420.47 155.82 417.82 154.99 411.66 159.18"/><polygon class="cls-44" points="411.66 159.18 420.4 164.97 427.11 157.54 411.66 159.18"/><polygon class="cls-45" points="414.5 158.88 419.87 161.78 423.86 157.99 414.5 158.88"/><path class="cls-42" d="M424.81,139.17l18.68-6.8-6-15.23-46.72,17,6.16,15.21,20.35-7.43-4.76-12,7.44-2.75Zm-26,5.77-3.58-8.83,14-5.09,3.51,8.84ZM439,130.36l-12.24,4.44L423.16,126l12.33-4.46Z"/><polygon class="cls-30" points="469.47 179.74 477.76 168.02 465.65 160.56 458.94 176.31 469.47 179.74"/><polygon class="cls-29" points="467.92 171.46 471.38 162.44 480.19 168.02 474.65 175.21 467.92 171.46"/><polygon class="cls-29" points="458.94 176.31 453.03 161.78 456.2 159.5 462.25 167.07 465.65 171.46 464.58 178.15 458.94 176.31"/></g></svg>