<svg id="illustration_right" data-name="illustration right" xmlns="http://www.w3.org/2000/svg" viewBox="0 0 900 350"><defs><style>.cls-1,.cls-10,.cls-11,.cls-12,.cls-13,.cls-14,.cls-15,.cls-16,.cls-17,.cls-18,.cls-19,.cls-2,.cls-21,.cls-22,.cls-23,.cls-24,.cls-26,.cls-27,.cls-28,.cls-29,.cls-3,.cls-30,.cls-31,.cls-32,.cls-34,.cls-35,.cls-4,.cls-5,.cls-6,.cls-7,.cls-8,.cls-9{fill-rule:evenodd;}.cls-1{opacity:0.1;}.cls-2{fill:#dddddc;}.cls-3{fill:#fff;}.cls-4{fill:#b3889d;}.cls-5{fill:#d1a1b8;}.cls-6{fill:#543042;}.cls-33,.cls-7{fill:#734d60;}.cls-8{fill:#96637c;}.cls-9{fill:#737373;}.cls-10{fill:#858686;}.cls-11{fill:#9da1a2;}.cls-12{fill:#4f5253;}.cls-13{fill:#c4c4c4;}.cls-14{fill:#8f8f8f;}.cls-15{fill:#6f7173;}.cls-16{fill:#9075a0;}.cls-17,.cls-20{fill:#785d88;}.cls-18{fill:#594165;}.cls-19{fill:#a688ba;}.cls-21{fill:#a3a3a3;}.cls-22{fill:#cececd;}.cls-23,.cls-24,.cls-25,.cls-26{fill:#2b2b2b;}.cls-23{opacity:0.19;}.cls-24{opacity:0.2;}.cls-27{fill:#c3987b;}.cls-28{fill:#dfbda5;}.cls-29{fill:#8b6651;}.cls-30{fill:#e8cab6;}.cls-31{fill:#474747;}.cls-34{fill:#66483a;}.cls-35{fill:#ececeb;}</style></defs><title>analysts_INTP_scene_med_parenthood</title><g id="shadows"><polygon class="cls-1" points="471.06 326.75 427.33 330.25 376.78 320.46 343 312.99 284.18 316.96 247.54 316.73 219.75 319.08 235.01 323.48 272.2 327.42 298.25 327.8 365.54 345.25 429.31 334.95 468.05 342 503.46 333.43 471.06 326.75"/></g><g id="bubble1"><polygon class="cls-2" points="365.33 104.7 321 0 57.5 45 0 159.71 165 249.37 325.54 193.21 386.3 172.93 385.02 128.31 365.33 104.7"/><g id="Layer_12" data-name="Layer 12"><polygon class="cls-3" points="111 73.32 125.11 65.78 138.5 72 193.15 79.5 202.66 94.43 135 117.42 112.34 105.33 91.82 90.31 111 73.32"/><polygon class="cls-3" points="258.03 119.75 275.62 141.68 292.21 153.73 270.49 164.79 258.27 172.87 213.95 166.82 195.06 155.82 187.79 144.5 228.67 119.75 258.03 119.75"/></g><g id="meteorite"><polygon class="cls-4" points="321 0 276.75 32.67 262.17 26.67 235.83 37 239.33 49.33 228.67 56 238 76.87 234.33 92.47 256.68 90.31 265.01 99.13 276.75 92.47 288.83 96.33 312 72.66 304.18 59.83 331.94 25.85 321 0"/><polygon class="cls-5" points="327.73 15.9 300 43 288 41 323.5 5.89 327.73 15.9"/><polygon class="cls-6" points="300 65.78 264.01 71.32 260.67 82.73 290 82.73 300 65.78"/><polygon class="cls-7" points="265.01 73.32 256.04 61.67 242.08 50 239.33 65.78 260.67 82.73 265.01 73.32"/><polygon class="cls-8" points="265.01 73.32 270 58 270 35.5 252.17 39 242.08 50 265.01 73.32"/><polygon class="cls-7" points="265.01 73.32 300 65.78 288 49.33 270 35.5 265.01 73.32"/><polygon class="cls-8" points="270 35.5 300 43 300 65.78 270 35.5"/><polygon class="cls-6" points="278 62.5 280.33 59.83 283.33 61.17 282.51 64.5 278 62.5"/><polygon class="cls-6" points="274.5 51.83 275.67 48.5 279 50.64 276.75 53 274.5 51.83"/><polygon class="cls-6" points="260.67 54.41 258.03 52.17 259.35 49.33 262.17 51.87 260.67 54.41"/><polygon class="cls-6" points="290 48.5 288.83 45.83 292.33 45.83 292.33 48.5 290 48.5"/><polygon class="cls-6" points="272.17 58 274.5 56 276.75 58 274.5 59.83 272.17 58"/><polygon class="cls-6" points="255.33 74.26 256.04 70.32 258.03 72.29 258.03 75 255.33 74.26"/><polygon class="cls-6" points="246.33 65.78 245.17 61.33 248.33 60.5 248.33 63.44 246.33 65.78"/><polygon class="cls-6" points="258.83 62.17 258.03 59.17 262.17 59.17 260.67 62.17 258.83 62.17"/><polygon class="cls-6" points="249.17 47.17 250.33 44.83 253.67 47.17 250.5 48.5 249.17 47.17"/></g><g id="volcano"><polygon class="cls-9" points="85 79.5 96 70.32 106 79 119.91 106.86 163.64 174.21 132.18 196.52 90.4 208.83 64.66 186.45 31.84 177.01 20 165.12 68.5 114.47 85 79.5"/><polygon class="cls-10" points="96 70.32 73.27 118.53 68.5 106.86 83.87 73.87 96 70.32"/><polygon class="cls-11" points="73.27 118.53 31.84 177.01 12.56 166.54 68.5 106.86 73.27 118.53"/><polygon class="cls-9" points="110.5 73.87 96 70.32 104.93 109.34 128.67 155.82 125.11 114.47 119.91 106.86 110.5 73.87"/><polygon class="cls-11" points="119.91 106.86 104.93 109.34 128.67 155.82 202.66 167.67 182.33 135.99 119.91 106.86"/><polygon class="cls-12" points="96 131.99 116.95 201.01 90.4 208.83 73.27 199.53 73.27 118.53 85.56 92.47 96 70.32 104.93 109.34 93.7 116.23 96 131.99"/><polygon class="cls-10" points="182.33 135.99 140.45 157.59 207.67 167.67 182.33 135.99"/></g><g id="forest"><polygon class="cls-13" points="0 159.71 6.34 147.06 17.5 140.91 17.5 150.31 28.34 149.71 31.84 157.1 34.74 149.73 38 154.75 45 146.67 38.58 138.78 26 135.75 43.72 133.3 54.87 144.5 54.87 154.8 62 147.66 64.66 157.59 80.45 154.8 93 174.21 102.17 163 102.17 171.96 112.34 163.77 119.91 166.54 119.91 157.59 128.67 155.82 169.91 157.59 180.97 146.67 189.05 144.5 183 151.97 189.05 157.59 197.95 144.5 197.95 153.76 204 149.71 215 150.31 207.5 153.76 212.46 159.71 225.32 153.76 231 157.59 233 147.66 225.32 142.41 237.5 144.5 240.5 153.76 243.5 145.66 251.99 147.66 254.5 142.41 267 147.66 273.5 139.13 284 145.66 284 139.58 297.87 134.49 291 142.01 301.5 147.66 308 139.13 316.05 142.41 328.5 146.67 340.09 137.82 340.09 144.5 350.94 149.71 360.38 141.94 350.94 139.58 360.38 137.05 355.33 129.99 365.33 133.3 365.33 124.35 373.5 132.42 385.02 128.31 386.3 172.93 325.52 193.23 170.33 240.37 134.38 232.73 93.7 208.83 64.66 192.33 31.84 177.01 0 159.71"/><polygon class="cls-14" points="75.81 197.57 85.34 190.21 90.97 201.01 96 186.47 98.33 197.57 108.33 188.75 116.95 190.21 104.95 197.57 111.56 202.6 119.91 193.21 122 203.39 128.67 190.21 139.69 205.1 155.67 213.07 135.34 233.25 90 208.83 75.81 197.57"/></g><g id="palm"><polygon class="cls-15" points="303.61 180.13 297.87 139.16 290 140.91 297.87 184.97 303.61 180.13"/><polygon class="cls-9" points="299.61 141.05 279 166.54 279 131.65 303.61 119.75 328.5 144.5 312 163.77 299.61 141.05"/><polygon class="cls-14" points="288 134.3 303.61 119.75 303.61 126.39 312 165.12 288 134.3"/><polygon class="cls-14" points="318.33 109.34 300 121.49 328.5 146.67 328.5 125.98 318.33 109.34"/><polygon class="cls-14" points="288 134.3 263.33 159.71 268.67 124.31 295.1 123.86 288 134.3"/><polygon class="cls-14" points="303.61 119.75 291.67 105.33 260.67 111.61 295.1 123.86 303.61 119.75"/><polygon class="cls-11" points="280.12 118.53 290.06 121.86 297.87 122.52 303.61 126.39 279 143.57 280.12 118.53"/><polygon class="cls-13" points="290 122.05 303.75 106.86 318.27 127.07 318.37 144.5 303.61 126.39 290 122.05"/><polygon class="cls-14" points="233.83 114.41 233.83 102.33 246.33 105.33 236.83 106.34 233.83 114.41"/><polygon class="cls-14" points="221.83 125.87 227.33 137.82 239.33 129 228.67 132.26 221.83 125.87"/><polygon class="cls-14" points="207.45 115.53 207.45 127.98 195.33 123.66 204.33 123.83 207.45 115.53"/></g><polygon class="cls-16" points="189.05 67.51 165.65 56.77 151.94 65.78 138.24 71.98 125.11 114.47 128.67 155.82 138.24 230.81 165.65 243.85 197.95 237.85 228.69 227.09 263 212.13 301.14 201.75 325.54 193.21 313.42 184.39 303.61 180.13 254 179.88 212.46 171.96 161.65 154.8 153.94 134.49 149.09 114.47 155.75 83.27 189.05 67.51"/><polygon class="cls-17" points="149.09 114.47 128.67 155.82 136.53 213.07 161.65 149.79 149.09 114.47"/><polygon class="cls-18" points="128.67 155.82 197.95 237.85 165 249.37 135.34 233.25 128.67 155.82"/><polygon class="cls-17" points="212.46 171.96 228.69 227.09 301.14 201.75 303.61 180.13 212.46 171.96"/><polygon class="cls-18" points="189.05 67.51 151.37 82.09 155.12 86.23 158.79 86.23 189.05 67.51"/><polygon class="cls-17" points="151.37 82.09 149.09 114.47 158.79 86.23 151.37 82.09"/><polygon class="cls-19" points="165.65 56.77 151.37 82.09 138.24 71.98 165.65 56.77"/><polygon class="cls-19" points="212.46 171.96 149.48 180.46 161.65 149.79 212.46 171.96"/><circle class="cls-20" cx="167.99" cy="65.78" r="2.34"/><polygon class="cls-16" points="82.48 118.93 93.7 116.23 104.93 109.34 119.91 119.75 95 130.99 94.17 157.1 92.47 180.46 89.39 205.83 73.27 199.53 49.25 186.48 41 178.13 59.67 175 69.69 161.38 82.48 118.93"/><polygon class="cls-18" points="119.91 119.75 90 127.72 96 131.99 119.91 119.75"/><polygon class="cls-17" points="90 127.72 94.17 157.1 96 131.99 90 127.72"/><polygon class="cls-17" points="69.69 161.38 92.14 184.97 73.27 199.53 55.98 173.26 69.69 161.38"/><polygon class="cls-18" points="92.47 180.46 73.27 199.53 90.4 208.83 92.47 180.46"/><polygon class="cls-19" points="55.98 173.26 64.66 186.45 49.25 186.47 31.84 177.01 55.98 173.26"/><polygon class="cls-19" points="104.93 109.34 90 127.72 82.48 118.93 104.93 109.34"/><circle class="cls-20" cx="104.08" cy="117.42" r="1.92"/></g><g id="bubble2"><g id="Layer_17" data-name="Layer 17"><polygon class="cls-13" points="331.94 6.84 607.33 18 607.37 63.54 592.83 139.13 399.2 165.12 365.33 104.7 357.12 85.31 331.94 6.84"/><polygon class="cls-21" points="607.37 63.54 609.14 54.32 525.67 33.49 338.53 41.4 357.12 85.31 607.37 63.54"/><polygon class="cls-14" points="338.53 41.4 609.14 54.32 617 13.5 360.73 16.12 336.03 35.5 338.53 41.4"/><polygon class="cls-9" points="336.03 35.5 336.03 35.5 617 13.5 522.34 9.18 323.83 2 331.94 25.85 336.03 35.5"/></g><g id="volcano_copy" data-name="volcano copy"><polygon class="cls-9" points="411.24 55.98 401.25 47.3 390.24 56.48 373.74 91.45 364.02 101.61 365.33 104.7 399.2 165.12 441.16 170.85 468.89 151.19 425.15 83.84 411.24 55.98"/><polygon class="cls-10" points="401.25 47.3 378.51 95.51 373.74 83.84 389.11 50.85 401.25 47.3"/><polygon class="cls-11" points="361.86 96.52 365.33 104.7 368.28 109.96 378.51 95.51 373.74 83.84 361.86 96.52"/><polygon class="cls-9" points="415.74 50.85 401.25 47.3 410.17 86.33 433.92 132.8 430.36 91.45 425.15 83.84 415.74 50.85"/><polygon class="cls-11" points="425.15 83.84 410.17 86.33 427.68 167.5 457.69 172.49 487.58 112.97 425.15 83.84"/><polygon class="cls-15" points="401.25 47.3 390.8 69.45 378.51 95.51 378.51 128.22 399.2 165.12 419.11 167.84 401.25 108.97 398.95 93.21 410.17 86.33 401.25 47.3"/><polygon class="cls-10" points="487.58 112.97 445.69 134.57 457.69 172.49 505.5 179.67 487.58 112.97"/><polygon class="cls-18" points="415.74 50.85 424.18 43 440.11 45.83 471.37 28 496.34 33.67 505.75 19.67 459.51 19.67 436.97 31.33 414.81 28 405.07 33.49 378.27 27.33 364.02 18 327.83 16.12 331.94 25.85 360.38 37.67 379.71 38.33 389.11 50.85 415.74 50.85"/><polygon class="cls-17" points="505.75 19.67 481.25 24.45 459.51 19.67 442.75 33.49 418.86 33.49 398.87 43 378.27 27.33 364.02 29.33 327.83 16.12 321 0 345 8.67 375.05 5.89 401.25 11.67 477.75 7.15 522.34 9.18 505.75 19.67"/><polygon class="cls-16" points="477.75 7.15 459.51 19.67 431.22 16.12 403.21 21.5 382.29 10 346.79 16.12 321 0 423.67 4.68 477.75 7.15"/><polygon class="cls-18" points="403.21 21.5 379.56 18 418.86 33.49 431.22 21.5 403.21 21.5"/><polygon class="cls-17" points="429.82 59.17 438.16 56.77 441.89 64.5 433.84 63.14 429.82 59.17"/><polygon class="cls-17" points="378.37 45.71 370.29 49.44 375.16 54.29 379.81 52.88 378.37 45.71"/><polygon class="cls-17" points="364.59 70.2 361.56 66.36 358 68.28 361.29 74.28 364.59 70.2"/><polygon class="cls-17" points="360.03 48.65 363.14 44.98 367.56 50.27 360.03 52.02 360.03 48.65"/><polygon class="cls-16" points="421.67 71.63 415.74 50.85 389.11 50.85 381.88 66.37 395.65 59.17 399.38 65.78 393.96 82.73 407.05 72.66 410.17 65.78 421.67 71.63"/></g><g id="fire"><polygon class="cls-5" points="584.33 131.99 579.5 135.22 574.02 121.75 583.42 117.98 574.02 103.63 574.02 112.97 567.5 116.23 567.5 127.72 558.67 118.96 565 105.33 558.67 105.33 555.43 95.51 545.33 105.33 555.43 114.41 550 125.43 545.33 127.72 535.95 112.97 527.08 125.87 529.92 135.99 520.38 124.69 511.67 128.66 508.25 111.61 502.64 109.08 495.5 117.42 489.69 110.18 493.5 105.33 487.58 99.13 483.6 109.08 477.75 102.33 485.11 90.05 476.69 75 475.5 86.65 468.88 96.9 474.25 111.61 463.62 118.53 466.75 129.99 459.51 134.49 448.87 121.75 441.69 129.99 441.69 135.22 431.89 132.82 433.84 139.13 420.19 132.38 424.18 119.75 414.81 125.43 416.45 134.49 410.71 137.26 406.65 126.76 398.87 123.86 398.87 134.49 388.97 127.72 375.99 123.72 399.2 165.12 505.73 179.66 578.33 185.66 589.37 157.1 592.83 139.13 584.33 131.99"/><polygon class="cls-8" points="589.37 157.1 582.75 143.57 577.75 147.06 581 150.34 575.5 154.8 566 142.01 563.25 146.31 558.67 143.57 562.75 137.82 560.75 129.99 556.5 136.24 553.5 140.91 555.43 144.5 546.5 147.66 543.75 142.44 550 137.05 545.25 127.72 536.93 133.3 532.5 139.13 528.5 145.66 520.38 141.79 519.25 146.31 511.67 144.5 504.4 151.97 499.88 143.14 505.5 136.24 495.5 123.86 491.54 127.72 493.5 130.13 487.58 134.49 484.41 128.31 486.5 124.35 481.27 116.23 479.5 121.5 481.25 123.86 475.5 127.74 477.75 133.3 466.75 140.91 466.44 134.24 462 139.13 463.25 144.31 459.63 150.67 454.5 147.57 455.08 140.91 448.16 133.3 445.69 139.16 444.33 143.14 442.75 147.06 440.75 153.69 438.16 142.44 429.82 145.66 432.5 150.31 427.33 153.69 433.18 169.76 456.78 172.33 470 174.79 473.34 175.24 475.6 175.18 477.86 175.86 489.69 177.47 499.88 175.86 505.73 179.66 581.33 186.45 589.37 157.1"/><polygon class="cls-7" points="476.08 146.38 467.57 154.53 468.4 161.66 473.64 155.24 473.17 160.56 479.58 158.37 474.46 169.87 473.34 175.24 477.86 175.86 477.43 170.37 483.96 157.62 486.24 157.12 488.46 167.12 490.71 156.59 493.71 157.74 498.17 165.87 500.96 153.18 497.13 147.66 500.96 145.49 507.58 148.02 499.94 139.13 489.41 144.49 483.71 139.67 478.96 142.09 482.21 146.87 476.08 146.38"/><polygon class="cls-7" points="470 174.79 471.81 169.5 468.89 172.14 468.12 167.92 471.37 164.63 465.25 166.54 463.62 168.5 465.25 159.67 461.19 166.06 459.51 161.25 458 166.06 448.87 160.5 451.75 166.54 447.63 165.38 448.87 167.83 441.13 165.25 441.13 168.75 438.16 167.23 433.18 169.76 470 174.79"/><polygon class="cls-7" points="505.75 179.5 505.5 168.88 503.69 172.93 498.38 168.88 501.5 174.79 495.5 169.5 490.63 170.85 494.75 171.5 496.34 174.21 487.58 171.5 491.63 175 487.58 174.19 489.69 177.47 505.75 179.5"/><polygon class="cls-5" points="546.67 93.22 543 86.65 548 78 550.33 85.61 546.67 93.22"/><polygon class="cls-5" points="490.74 95.11 495.5 90.05 492.69 84.06 490.74 95.11"/><polygon class="cls-5" points="469.9 82.73 466.25 71.41 462 78 465.74 86.65 469.9 82.73"/><polygon class="cls-5" points="580.33 103.63 578.33 96.9 581 90.31 584.33 99.13 580.33 103.63"/><polygon class="cls-5" points="553 75 555.43 70.32 553.34 62.17 550.33 70.32 553 75"/></g><g id="Layer_14" data-name="Layer 14"><polygon class="cls-16" points="508.7 78 490.74 64.5 487.58 56 514.75 63.44 508.7 78"/><polygon class="cls-18" points="492.65 58.5 495.5 63.44 512.67 74.26 514.75 63.44 492.65 58.5"/><polygon class="cls-8" points="503.7 60.97 497.13 76.87 508.7 78 511.67 62.67 503.7 60.97"/><polygon class="cls-7" points="504.4 73.32 505.75 61.43 508.25 61.99 504.4 73.32"/><polygon class="cls-16" points="534.33 50.85 499.88 46.67 475.5 53 511.33 64.5 511.67 79.67 503.7 103.63 495.5 145.66 512.5 178.13 555.43 186.45 583 190.21 584.33 159.67 558.67 154.8 536.33 127.72 534.33 50.85"/><polygon class="cls-17" points="536.33 127.72 495.5 145.66 505.75 179.67 558.67 154.8 536.33 127.72"/><polygon class="cls-17" points="503.7 103.63 521 68.13 511.33 64.5 503.7 103.63"/><polygon class="cls-19" points="534.33 50.85 475.5 53 499.88 43 534.33 50.85"/><polygon class="cls-19" points="558.67 154.8 583 190.21 589.37 157.1 558.67 154.8"/><polygon class="cls-18" points="514.75 49.85 518.5 57.5 520.38 56.37 515.63 48.25 514.75 49.85"/><polygon class="cls-18" points="512.5 54 520.38 50.37 521.88 52.19 513.38 55 512.5 54"/><polygon class="cls-18" points="495.5 145.66 555.43 186.45 505.75 179.67 495.5 145.66"/></g></g><g id="bubble3"><g id="Layer_19" data-name="Layer 19"><polygon class="cls-2" points="622.75 21.5 819.2 54.32 867.09 110.78 874.09 121.18 894.5 160.38 842.32 194.4 815.54 210.63 757.78 237.84 588.25 190.21 585.08 179.4 609.14 54.32 622.75 21.5"/></g><g id="forest-2" data-name="forest"><polygon class="cls-22" points="815.54 210.51 811.35 204.92 796.6 201.75 795 195.2 780.43 199.34 772 208 759.12 199.34 755 204.92 745.78 197.09 750.97 190.21 732.44 175 713.15 186.03 714.03 199.52 707.75 203.39 705.5 192.11 698.1 191.22 693.33 184.19 667.46 182.36 657.64 172.5 632.58 168.67 607.37 183 600.52 178.13 589.37 182.36 585.08 179.39 583 190.21 758.5 244.82 815.54 210.51"/><polygon class="cls-21" points="771.5 68.58 760.73 68.58 770.11 237.84 790.91 225.32 771.5 68.58"/><polygon class="cls-21" points="714.03 230.99 732.91 236.86 755 72.05 741.5 68.01 714.03 230.99"/><polygon class="cls-21" points="671.42 217.73 670.07 80.19 654.91 82.73 654.91 212.59 671.42 217.73"/><polygon class="cls-21" points="780.43 157.16 838 101.52 848 106.52 780.43 175.41 780.43 157.16"/><polygon class="cls-21" points="604.16 80.2 659.66 129.99 661.21 114.6 606.51 68.01 604.16 80.2"/><polygon class="cls-21" points="600.52 99.13 628.14 97.83 621.05 92.47 601.57 93.68 600.52 99.13"/><polygon class="cls-21" points="768.05 108.37 780.43 99.49 775 118.53 787.2 128.47 790.11 123.86 795 125.87 791.9 130.51 795 137.05 803.56 123.42 815 125.43 832 129.16 841.85 119.42 848 118.96 848 124.69 853 129.16 853 116.23 860.65 121.33 857.35 109.96 867.18 110.91 826 49.68 617 13.5 609 55.05 613.37 60.97 617 55.82 625.44 59 617.89 63.5 625.44 75.77 626.19 65.78 635.07 65.38 634.11 70.32 639.86 73.99 645.32 69.48 647.85 82.73 653.09 83.25 649.3 90.05 671.47 111.61 700.51 107.57 732.44 121.76 752 121.33 759.34 91.88 768.05 108.37"/></g><g id="tree"><polygon class="cls-7" points="702.75 96.22 707.75 62.19 685.13 61.43 681.07 87.93 702.75 96.22"/><polygon class="cls-9" points="860.65 158.2 864.91 149.11 760.73 68.58 757.78 74.95 860.65 158.2"/><polygon class="cls-12" points="741.74 74.69 854.62 173.54 860.65 158.2 791.46 98.88 792.94 93.48 790.11 91.29 759.12 72.05 741.74 74.69"/><polygon class="cls-15" points="760.73 68.58 752.03 61.12 686.36 64.32 683.05 73.99 762.79 74.95 760.73 68.58"/><polygon class="cls-14" points="750.97 62.19 747.93 58.06 743.16 56.35 692.26 58.8 689.51 61.09 687.43 65.38 750.97 62.19"/><polygon class="cls-12" points="767.27 41.6 760.63 38.37 754.18 50.65 750.97 62.19 760.73 68.58 764.31 52.69 767.27 41.6"/><polygon class="cls-9" points="752 38.5 743.16 56.35 750.97 62.19 760.85 38.4 752 38.5"/><polygon class="cls-12" points="683.05 73.99 687.43 65.38 674.51 40.34 662.06 21.3 651.43 19.46 647.06 21.27 652.98 29.94 683.05 73.99"/><polygon class="cls-9" points="687.43 65.38 692.26 58.8 667.91 22.31 661.86 21.27 687.43 65.38"/><polygon class="cls-14" points="841.85 194.69 861.63 182.79 871.64 163.99 880.85 131.24 874.11 121.22 841.85 194.69"/><polygon class="cls-12" points="861.63 182.79 879.15 172.25 884.27 159.74 887.07 140.49 880.85 131.24 861.63 182.79"/><polygon class="cls-9" points="879.15 172.25 900 159.71 887.07 140.49 879.15 172.25"/><polyline class="cls-23" points="809.81 106.52 795 121.33 780.43 108.58 785.74 88.58 809.81 106.52"/><polygon class="cls-24" points="713.15 57.79 703 74.23 683.05 73.99 684.59 47.3 691.74 59.51 713.15 57.79"/><polygon class="cls-8" points="684.59 47.3 692.26 40.67 711.83 46 713.15 57.79 691.74 59.51 684.59 47.3"/><polygon class="cls-2" points="690.43 57.29 693.69 55.82 695.92 59.18 691.75 71.42 690.43 57.29"/><polygon class="cls-2" points="695.92 59.18 697.87 55.92 700.51 58.81 696.75 71.08 695.92 59.18"/><polygon class="cls-2" points="700.51 58.81 703.58 55.92 705.5 58.41 700.92 71.08 700.51 58.81"/><polygon class="cls-17" points="609.14 54.32 609.14 54.32 621.05 46.17 626.19 33.49 628.14 47 638.43 59 641.37 42.17 635.07 32.48 639.63 30.06 648.34 41.67 652.98 29.94 651.43 19.46 621.05 18 613.37 32.34 609.14 54.32"/><polygon class="cls-17" points="737.05 35.5 732.44 33.48 725.86 32.35 719.2 36.25 719.2 50.85 731 46.67 737.05 35.5"/><polygon class="cls-17" points="775 50.85 767.27 39.52 767.27 39.52 759.12 38.1 738.33 37.14 735 50.37 741.5 62.66 750.97 50.85 750.97 41.92 764.31 52.69 775 50.85"/><polygon class="cls-17" points="809.81 55 809.81 63.62 800.31 65.38 796.1 72.7 811.35 77 822 66.38 822 79.03 830.67 78.83 822 85.31 821.33 99.49 833 96.3 839.67 82.95 839.67 94.78 848 106.52 857.35 96.3 849.32 84.35 843.9 77.29 838.34 68.03 826 50.69 808.15 46.59 799.03 45.01 791 48.25 784.33 60.97 797.07 62.66 809.81 55"/><polygon class="cls-19" points="651.43 19.46 656.4 23.5 652.98 29.94 645.83 27.67 643 21.27 637.37 36.03 630 31.67 623.28 40.67 622.17 31.67 621.33 24 613.37 32.35 617 13.5 651.43 19.46"/><polygon class="cls-19" points="759.12 38.1 750.97 41.92 747.83 38.37 745.5 46.17 735 50.37 732.44 33.49 759.12 38.1"/><polygon class="cls-19" points="808.15 46.59 802.31 59.51 809.81 60.77 820 51.67 816.17 64.33 815.65 72.7 823.33 69.64 828.83 65.38 838.34 68.04 834.83 80.83 839.67 89.43 849.32 84.35 826 49.68 808.15 46.59"/></g><g id="sloth"><polygon class="cls-6" points="677.95 144.17 662.73 173.54 643 163.34 653.47 128.47 677.95 144.17"/><polygon class="cls-4" points="628.14 87.21 635.07 123.42 706.42 156.07 780.43 140.15 792.94 77 778.03 69.64 763.39 73.99 743.16 106.52 661.21 77 628.14 87.21"/><polygon class="cls-5" points="628.14 87.21 658.67 89.17 675.71 86.32 743.16 106.52 660.09 72.7 628.14 87.21"/><polygon class="cls-8" points="635.07 123.42 743.16 106.52 780.43 140.15 704.82 157.18 635.07 123.42"/><polygon class="cls-8" points="634.89 104.22 638.08 94.84 647.85 94.22 643.41 108.86 634.89 104.22"/><polygon class="cls-8" points="658.67 89.17 665.42 82.95 675.71 86.32 670.92 95.91 658.67 89.17"/><circle class="cls-25" cx="642.22" cy="99.49" r="2.36"/><circle class="cls-25" cx="665.1" cy="88.58" r="2.36"/><polygon class="cls-7" points="648.32 95.47 658.88 90.85 661.5 97.26 652.05 101.52 648.32 95.47"/><polygon class="cls-26" points="651.43 97.83 652.94 96.19 654.54 98.77 652.98 99.48 651.43 97.83"/><polygon class="cls-26" points="657.02 97.83 656.4 94.78 658.44 94.78 658.88 97 657.02 97.83"/><polygon class="cls-6" points="657.64 102.32 654.27 102.92 649.3 106.14 652.78 109.69 657.64 102.32"/><polygon class="cls-17" points="661.21 98.42 676.41 102.45 679.83 111.79 676.54 126.81 672.73 113.5 668.02 111.79 667.49 103.79 663.76 108.56 654.27 102.92 661.21 98.42"/><polygon class="cls-18" points="679.83 111.79 676.41 106.14 661.21 98.42 663.76 96.76 672.73 96.77 681.07 106.14 679.83 111.79"/><polygon class="cls-5" points="792.94 77 743.16 106.52 760.73 68.58 782.29 62.19 792.94 77"/><polygon class="cls-7" points="635.07 123.42 780.43 140.15 704.82 160.38 635.07 123.42"/><polygon class="cls-6" points="651.43 181.46 647.85 184.66 625.44 175.41 632.58 168.67 645.54 169.71 651.43 181.46"/><polygon class="cls-16" points="614.83 160.4 617.89 140.44 650.51 141.9 693.33 175.41 691.51 182.9 685.65 188.23 685.65 183 675.71 187.31 677.22 190.65 673.4 192.11 671.14 187.09 654.91 180.79 641.37 172.14 615.1 168.25 614.83 160.4"/><polygon class="cls-17" points="617.89 140.44 609.51 160.38 612.44 172.1 621.05 171.36 636.26 174.97 641.37 172.14 617.89 140.44"/><polygon class="cls-17" points="668.81 187.31 671.17 193.86 677.22 193.86 677.22 189.53 684.01 186.92 684.02 191.58 693.33 184.19 693.33 175.41 672.87 182.9 641.37 172.14 651.43 181.46 668.81 187.31"/><polygon class="cls-19" points="617.89 140.44 693.33 175.41 677.95 162.16 670.04 157.18 664.99 151.01 650.46 138.5 617.89 140.44"/><polygon class="cls-18" points="644.59 164.62 652.08 156.29 661.21 160.38 664.35 167.44 655.61 170.99 644.59 164.62"/><polygon class="cls-18" points="664.99 151.01 667.05 157.18 677.95 162.16 664.99 151.01"/><polygon class="cls-18" points="670.07 173.54 675.67 172.6 679.59 177.33 670.07 173.54"/><polygon class="cls-18" points="683.05 176.33 678.53 171.74 681.04 169.71 683.05 176.33"/><polygon class="cls-8" points="640.09 191.22 647.85 184.66 640.79 177.33 626.19 169.71 621.05 171.36 622.64 185.13 640.09 191.22"/><polygon class="cls-2" points="626.19 169.71 631.69 151.99 630.84 172.14 628.14 174.97 626.19 169.71"/><polygon class="cls-2" points="636.26 174.97 637.37 154.83 630.84 172.14 633.2 176.8 636.26 174.97"/><polygon class="cls-2" points="640.79 177.33 643 156.95 636.26 174.97 638.43 179.4 640.79 177.33"/><polygon class="cls-4" points="792.94 77 807.33 79.03 815 95.91 806.91 102.27 792.11 89.29 792.94 77"/><polygon class="cls-8" points="792.94 77 815 95.91 809.81 106.52 790.11 91.29 792.94 77"/><polygon class="cls-2" points="805.62 98.42 805.62 103.28 795 112.61 801.2 99.86 805.62 98.42"/><polygon class="cls-2" points="796.6 96.3 801.2 94.78 801.2 99.86 791 109.69 796.6 96.3"/><polygon class="cls-2" points="792.94 93.48 796.6 91.76 796.6 96.3 787.2 106 792.94 93.48"/></g></g><g id="daughter"><polygon class="cls-19" points="481.25 202.83 485.46 188.21 497.13 204.04 499.88 205.83 503 205.66 525.67 207.13 521 223.44 492.65 216.25 481.25 202.83"/><polygon class="cls-17" points="497.13 204.04 489.69 211.81 497.87 217.58 503 205.66 497.13 204.04"/><polygon class="cls-27" points="465.25 309.64 465.75 318.19 464.3 326.75 458.8 326.75 452.81 312.41 452.25 307.18 465.25 309.64"/><polygon class="cls-8" points="455.88 319.75 458.8 326.75 465.3 327.75 465.69 319.75 455.88 319.75"/><polygon class="cls-17" points="458.8 326.75 450.63 333.75 464.69 333.75 465.3 326.75 458.8 326.75"/><polygon class="cls-28" points="465.25 309.64 464.69 319.75 465.24 326.12 471.06 326.75 477.32 315.35 477.75 310.74 465.25 309.64"/><polygon class="cls-4" points="474.25 320.94 464.69 319.75 464.3 326.75 467.5 327.87 471.06 326.75 474.25 320.94 474.25 320.94"/><polygon class="cls-16" points="464.3 326.75 471.06 326.75 477.75 333.75 464.69 333.75 464.3 326.75"/><polygon class="cls-29" points="477.32 315.35 464.9 315.99 452.81 312.41 450.63 307.18 479.86 310.74 477.32 315.35"/><polygon class="cls-27" points="497.87 290 483.6 297.37 485.11 283.5 497.87 290"/><polygon class="cls-27" points="442.75 273.92 450 290.43 453.78 275.69 442.75 273.92"/><polygon class="cls-8" points="468.12 263.14 463.19 264.05 459.8 263.14 442.75 273.92 453.5 277.66 486.5 286.97 497.87 290 486.5 269.66 483.88 269.62 482.27 265.87 468.12 263.14"/><polygon class="cls-28" points="464.3 201.75 442.75 242.5 464.3 255 471.37 270.75 492.63 257.25 505.75 232.25 464.3 201.75"/><polygon class="cls-27" points="467.5 259.83 471 259.75 493.79 223.44 505.75 232.25 493.5 259.25 486.5 262.66 482.27 265.87 470 273.1 467.5 259.83"/><polygon class="cls-27" points="461.49 216.84 470 220 474.25 222.5 481.25 227.5 465.25 236 461.49 216.84"/><polygon class="cls-29" points="464.3 255 475.5 261.58 470 273.1 464.3 255"/><polygon class="cls-29" points="479.5 255.95 482.27 265.87 493.5 259.25 479.5 255.95"/><polygon class="cls-30" points="474.25 222.5 465.25 236 462 233.88 470 220 474.25 222.5"/><polygon class="cls-29" points="465.25 236 462.5 236.91 462 233.88 465.25 236"/><polygon class="cls-29" points="464.3 201.75 459.51 210.81 468.38 207.27 487.61 233.28 495.5 236.91 499.88 236.25 464.3 201.75"/><polygon class="cls-15" points="464.3 201.75 481.25 202.83 521 223.44 510 232 495.5 236.91 464.3 201.75"/><polygon class="cls-12" points="521 223.44 514.75 267.75 503.25 251.5 495.5 236.91 521 223.44"/><polygon class="cls-31" points="495.5 236.91 479.5 255.95 514.75 267.75 495.5 236.91"/><polygon class="cls-12" points="481.25 227.5 477.55 221.57 474.25 222.5 481.25 227.5"/><polygon class="cls-12" points="470 220 468.88 216.84 461.49 216.84 470 220"/><circle class="cls-25" cx="474.25" cy="230.81" r="2.44"/><circle class="cls-25" cx="462" cy="223.44" r="2.44"/><polygon class="cls-29" points="458.55 238.32 468.88 242 465.25 249.37 457.75 246.25 458.55 238.32"/><polygon class="cls-3" points="459.63 240.37 466.75 243.25 465.74 245.59 459.63 242.98 459.63 240.37"/><polygon class="cls-19" points="459.8 263.14 445.25 293.45 440 307.75 446.42 309.64 475.17 312.95 483.75 312.62 485.46 300.39 486.5 269.66 482.27 265.87 477.75 279.33 461.47 275.83 466.75 263.14 459.8 263.14"/><polygon class="cls-17" points="445 305.43 450.63 307.18 451.75 298.96 445.25 299.68 449 294.12 445.25 293.45 442.1 300.01 442.04 302.2 440 304.39 437.95 308.66 446.42 309.64 445 305.43"/><polygon class="cls-17" points="475.5 281.25 472.25 285.01 471.31 280.12 463.25 284.12 467.5 288 461.63 289.31 466.75 296.12 469.9 292.25 471.31 297.37 478.5 292.95 474.25 289.37 479.38 286.97 475.5 281.25"/><polygon class="cls-17" points="485.46 300.39 478.63 302.62 480.88 307.62 474.25 306.87 475.17 312.95 482.09 313.74 483.75 312.62 485.11 310.74 485.46 300.39"/><polygon class="cls-5" points="442.1 300.01 443.38 302.62 440 304.39 442.1 300.01"/><polygon class="cls-5" points="468.88 289.12 470.5 285.87 473.25 288.05 471.06 290.87 468.88 289.12"/><polygon class="cls-5" points="485.11 310.74 482.63 310.74 482.09 313.74 485 314.08 485.11 310.74"/></g><g id="dog"><polygon class="cls-16" points="278.66 250.6 274.75 238.84 277.58 234.84 270.66 233 271.25 231.5 280.91 233.92 277.25 239.44 281.37 249.44 278.66 250.6"/><polygon class="cls-8" points="271.08 235.59 274.08 229.5 267.83 228.75 266.5 231.5 271.08 235.59"/><polygon class="cls-4" points="292.1 288.5 288.33 313.34 290.16 316.61 293.83 319.89 300.59 304.2 302.33 292.25 292.1 288.5"/><polygon class="cls-8" points="288.33 313.34 280.83 319.89 293.83 319.89 288.33 313.34"/><polygon class="cls-8" points="291.83 290.25 300.59 304.2 306.33 290.88 291.83 290.25"/><polygon class="cls-8" points="335.16 254.38 319 251.44 293.8 250.6 291.41 265.5 292.1 288.5 313.05 296.67 338.75 287.18 335.16 254.38"/><polygon class="cls-7" points="338.75 287.18 291.83 279.67 291.83 290.25 313.05 300.67 338.75 287.18"/><polygon class="cls-5" points="319 251.44 321.5 268.15 314.18 276.49 306 281.57 291.5 265.5 292.41 243.89 296.24 247.32 319 251.44"/><polygon class="cls-4" points="321.5 268.15 321.5 323.2 315.29 320.99 313.05 316.59 306 281.57 321.5 268.15"/><polygon class="cls-8" points="313.05 316.59 306.16 323.2 321.5 323.2 313.05 316.59"/><polygon class="cls-8" points="297.33 255 294.87 262.5 292.69 252.63 292.41 243.89 296.44 250.25 297.33 255"/><polygon class="cls-4" points="265.83 254.38 280.35 250.6 292.41 243.89 294.87 262.5 278.66 269.05 265.83 254.38"/><polygon class="cls-16" points="278.66 269.05 284.12 289.88 291.83 289.25 300 286.18 306 281.57 294.87 262.5 291.83 263.73 287.33 266.75 282.12 267.65 278.66 269.05"/><polygon class="cls-17" points="306 281.57 295.62 281.57 289.87 271.13 293.12 282.5 284.12 289.88 291.83 290.25 301 287.18 306 281.57"/><polygon class="cls-7" points="282.12 267.65 291.83 263.73 289.87 271.13 282.12 267.65"/><polygon class="cls-16" points="292.41 243.89 298.83 238.42 305.66 251.59 297.33 254 292.41 243.89"/><polygon class="cls-16" points="265.83 254.38 258 252.34 260.91 268.59 268.5 264 265.83 254.38"/><polygon class="cls-17" points="265.83 254.38 260.91 268.59 269.5 265 265.83 254.38"/><polygon class="cls-17" points="292.41 243.89 305.66 251.59 297.33 255 292.41 243.89"/><circle class="cls-25" cx="288.81" cy="258.82" r="1.56"/><circle class="cls-25" cx="281.37" cy="261.67" r="1.56"/><polygon class="cls-5" points="292.41 243.89 282.12 254 265.83 254.38 292.41 243.89"/><polygon class="cls-7" points="315.29 254 313.75 255 315.08 256.71 316.71 255.55 315.29 254"/><polygon class="cls-7" points="306.5 254 308.29 252.96 309.25 254.55 307.62 255.67 306.5 254"/><polygon class="cls-7" points="323.79 256.71 325.5 255.36 326.87 257.25 325 258.5 323.79 256.71"/><polygon class="cls-8" points="309 282.58 318.37 275.13 318.37 286.92 309 282.58"/><polygon class="cls-4" points="313.07 282.1 316.14 279.87 316.14 283.76 313.07 282.1"/><polygon class="cls-13" points="241.67 310.67 269.88 315.38 275.1 311.55 279.77 316.21 275.86 318.98 278.3 323.15 272 325.43 269.39 321.17 239.45 316.76 234.07 319.89 230.22 315.03 235.14 312.35 233.44 307.16 240.13 305.39 241.67 310.67"/><polygon class="cls-11" points="279.77 316.21 270.15 317.97 275.86 318.98 279.77 316.21"/><polygon class="cls-11" points="233.44 307.16 240.29 313.49 235.14 312.35 233.44 307.16"/><polygon class="cls-11" points="230.22 315.03 240.29 313.49 270.15 317.97 278.3 323.15 272.2 327.42 269.49 322.16 239.55 317.76 234.17 320.88 230.22 315.03"/><polygon class="cls-8" points="241.84 235.37 247.23 228.03 253.24 234.29 250.12 238.63 253.09 240.69 251.67 243.16 246.31 239.59 249.67 234.91 247.15 232.64 244.28 237.18 241.84 235.37"/><polygon class="cls-8" points="253.18 244.79 254.96 242.15 258.11 244.11 255.38 247.81 253.18 244.79"/></g><g id="intp"><polygon class="cls-7" points="322 169.5 325.54 193.21 336.93 193.21 352.96 183.33 358.19 166.54 322 169.5"/><polygon class="cls-8" points="314 144.5 303.61 180.13 325.54 193.21 328.5 146.67 320.94 144.5 314 144.5"/><polygon class="cls-29" points="314 144.5 314 129.99 330.74 137.05 321.76 145.66 314 144.5"/><polygon class="cls-27" points="326.74 127.74 330.49 110.18 334.74 110.18 332.99 125.43 326.74 127.74"/><polygon class="cls-28" points="314 127.74 332.99 125.43 332.72 137.05 314 136.35 314 127.74"/><polygon class="cls-27" points="323.5 131.65 332.72 137.05 328.5 146.67 321.76 145.66 325.74 138.78 321 136.61 323.5 131.65"/><polygon class="cls-17" points="400.61 280.78 398.14 316.73 378.33 329.67 371.99 305.02 371.99 293.34 365.71 280.64 380.94 278.26 400.61 280.78"/><polygon class="cls-7" points="436.38 208.2 427.56 216.17 413.7 218.65 408.62 216.82 405.15 200.19 408.34 180.03 436.38 208.2"/><polygon class="cls-8" points="413.7 218.65 449.64 193.86 457.68 197.04 462.62 204.92 434.38 226.57 413.7 218.65"/><polygon class="cls-18" points="398.14 316.73 410.71 330.24 378.33 329.67 398.14 316.73"/><polygon class="cls-18" points="371.99 305.02 400.61 280.78 381.26 278.93 365.71 280.64 371.99 305.02"/><polygon class="cls-16" points="368.71 280.64 355.33 330.24 336.12 319.08 331.94 280.44 353.15 278.78 368.71 280.64"/><polygon class="cls-18" points="336.12 319.08 328.17 334.99 353.77 335.13 355.33 330.24 336.12 319.08"/><polygon class="cls-17" points="331.94 280.44 362.97 301.92 368.71 280.64 351.46 278.11 331.94 280.44"/><polygon class="cls-4" points="392.26 167.92 365.33 163 346.79 180.84 336.93 193.21 331.94 280.44 378.27 280.69 402.23 278.38 394.52 184.97 392.26 167.92"/><polygon class="cls-18" points="361.29 171.98 363.41 188.62 384.6 203.39 392.19 182.28 392.26 167.92 387.65 168.36 378.84 174.04 361.29 171.98"/><polygon class="cls-16" points="365.71 157.1 358.19 166.54 370.61 188.75 378.84 174.04 389.09 187.21 391.92 169.5 387.53 162.27 365.71 157.1"/><polygon class="cls-28" points="427.68 180.13 396.42 167.11 378.75 174.21 375.22 160.9 367.95 154.07 374.68 147.06 375.15 140.91 379.52 132.94 375.45 130.5 376.97 115.91 385.94 115.91 389.25 129.63 395.95 129.59 401.42 92.34 416.09 90.31 446 110.25 458.4 111.17 442.27 152.65 427.68 180.13"/><polygon class="cls-27" points="447.63 130.71 431.89 132.82 418.52 147.06 421.03 125.48 414.81 113.2 427.69 119.25 430.65 122.92 436.14 123.37 441.85 123.33 447.63 130.71"/><polygon class="cls-7" points="439.24 117.98 447.63 130.71 436.14 123.37 439.24 117.98"/><polygon class="cls-7" points="427.69 119.25 414.81 113.2 429.82 113.27 427.69 119.25"/><polygon class="cls-30" points="436.14 123.37 424.26 149.73 418.52 147.06 427.69 119.25 436.14 123.37"/><path class="cls-32" d="M439.75,136.85c.8,1,.21,2.79-1.32,4.05s-3.43,1.48-4.23.51-.21-2.8,1.32-4,3.42-1.49,4.23-.51"/><path class="cls-32" d="M421.8,128.44c.73,1,0,2.8-1.61,3.94s-3.53,1.23-4.26.2,0-2.8,1.61-3.94,3.53-1.24,4.26-.2"/><polygon class="cls-29" points="424.26 149.73 419.75 152.36 418.52 147.06 424.26 149.73"/><polygon class="cls-29" points="424.18 159.58 405.07 147.66 405.09 160.43 417.34 166.54 424.18 159.58"/><polygon class="cls-29" points="381.6 119.42 385.02 128.31 379.56 124.68 381.6 119.42"/><polygon class="cls-29" points="378.66 132.42 384.26 135.61 375.15 140.91 378.66 132.42"/><polygon class="cls-29" points="427.68 180.13 391.45 161.04 384.08 155.52 378.75 174.21 396.22 168.51 427.68 180.13"/><polygon class="cls-27" points="416.09 90.31 414.81 113.2 391.45 161.04 385.38 157.7 378.75 174.21 365.71 157.1 375.15 140.91 378.66 132.42 384.26 135.61 389.25 129.63 395.95 129.59 401.42 92.34 416.09 90.31"/><polygon class="cls-31" points="468.05 111.41 458.4 111.17 445.52 111.61 451.19 97.37 461.19 86.65 468.05 111.41"/><polygon class="cls-10" points="461.19 86.65 406.84 73.32 410.07 83.91 416.33 91.63 445.52 111.61 461.19 86.65"/><polygon class="cls-15" points="416.33 91.63 402.57 93.22 396.87 88.77 393.96 82.73 406.84 73.32 416.33 91.63"/><polygon class="cls-31" points="402.57 93.22 396.75 130.98 388.69 130.54 385.54 116.7 377.45 116.55 376 125.28 365.33 104.7 393.96 82.73 402.57 93.22"/><polygon class="cls-29" points="384.26 135.61 375.15 140.91 378.66 132.42 384.26 135.61"/><polygon class="cls-5" points="384.6 203.39 346.79 180.84 358.19 166.54 384.6 203.39"/><polygon class="cls-8" points="384.6 203.39 378.27 280.69 409.07 280.84 408.34 180.03 400.39 178.13 384.6 203.39"/><polygon class="cls-4" points="391.92 169.5 408.34 180.03 384.6 203.39 391.92 169.5"/><rect class="cls-33" x="389.28" y="213.79" width="6.54" height="6.06" transform="translate(-43.28 322.45) rotate(-42.54)"/><rect class="cls-33" x="387.49" y="235.85" width="6.54" height="6.06" transform="translate(-58.68 326.97) rotate(-42.53)"/><rect class="cls-33" x="385.7" y="257.92" width="6.54" height="6.06" transform="translate(-74.06 331.64) rotate(-42.54)"/><polygon class="cls-17" points="360.38 213.5 355.74 215.01 350.94 196.71 355.58 195.2 360.38 213.5"/><polygon class="cls-8" points="373.18 216.32 347.96 216.19 348.29 212.13 373.5 212.27 373.18 216.32"/><polygon class="cls-3" points="407.58 151.97 421.44 159.67 406.65 154.8 407.58 151.97"/><polygon class="cls-34" points="421.44 159.67 418.89 164.63 405.62 157.27 406.65 154.8 421.44 159.67"/><polygon class="cls-28" points="449.64 193.86 466.87 190.21 468.05 197.39 465.49 201.41 462.62 204.92 449.64 193.86"/><polygon class="cls-27" points="466.87 190.21 461.43 201.75 481.25 202.83 466.87 190.21"/><polygon class="cls-30" points="458.89 201.75 463.62 197.09 473.34 199.34 472.34 202.26 462.62 204.92 458.89 201.75"/></g><g id="bubble4"><polygon class="cls-35" points="586.7 170.99 545 253.9 522.34 256.51 540.89 273.1 548.42 320.19 647.06 350 710.54 260.91 671.14 202.6 586.7 170.99"/><path class="cls-8" d="M664,253.63l-35.62-27.06-41.54,8.83-14.38,45.29,34.29,40.91L666.44,304Zm-52.06,56-28.6-33.07,9.33-24.24,35.4-16.08,25.37,24.66v4.95l-.07,31.51Z"/><polygon class="cls-16" points="561.85 240.37 571.43 231.21 577.93 234.52 586.85 235.4 604.38 260.91 632.35 265.17 653.45 265.87 660.18 274.67 665.28 278.85 682.36 279.17 665.81 290.91 658.43 285.08 651.28 282.18 642.26 286.33 638.35 291.83 640.45 304.39 632.68 304.39 628.51 291.67 620.85 290.58 612.51 290.87 607.84 304.39 601.18 303.5 603.18 285.87 598.01 280.92 590.35 276.57 581.35 242.98 573.68 240.37 561.85 240.37"/><polygon class="cls-17" points="561.85 240.37 574.64 237.84 586.51 246.5 586.75 263.14 580.35 243.98 561.85 240.37"/><polygon class="cls-17" points="590.35 276.57 637.51 277.63 651.28 282.18 653.45 265.87 665.28 278.85 665.81 290.91 651.28 282.18 638.35 291.83 628.51 291.67 612.51 290.87 603.18 285.87 590.35 276.57"/><polygon class="cls-19" points="571.43 231.21 574.64 237.84 586.85 235.4 571.43 231.21"/><polygon class="cls-19" points="604.38 260.91 637.51 277.63 653.45 265.87 604.38 260.91"/><circle class="cls-20" cx="571.27" cy="235.72" r="1.2"/><polygon class="cls-8" points="638.68 238.88 592.68 297.37 601.18 303.5 643.96 245.59 638.68 238.88"/><polygon class="cls-7" points="584.58 204 589.76 201.75 591.74 211.98 595.55 205.87 599.56 212.29 602.8 202.88 607.16 202.46 600.38 218.27 595.28 212.7 591 219.91 584.58 204"/><polygon class="cls-7" points="609.7 203.39 607.94 217.98 611.08 218.98 613.08 210.83 619.46 213.76 618.72 219.98 622.63 220.47 624.33 203.39 621.65 202.88 620.33 210.26 613.83 207.88 614.64 203.14 609.7 203.39"/><polygon class="cls-7" points="626.39 203.97 631.79 213.43 626.39 222.43 629.09 224.46 641.83 205.76 637.22 204.68 634.11 210.74 630.83 203.97 626.39 203.97"/><polygon class="cls-7" points="646.15 205.21 657.14 202.88 657.53 213.58 651.09 215.02 652.13 219.35 648.79 220.46 646.79 212.77 653.73 211.23 653.28 207.06 646.91 208.87 646.15 205.21"/><polygon class="cls-7" points="648.84 223.2 652.65 222.23 653.93 226.63 648.38 227.79 648.84 223.2"/></g></svg>