<svg id="illustration" xmlns="http://www.w3.org/2000/svg" viewBox="0 0 900 350"><defs><style>.cls-1,.cls-13{fill:#b3889d;}.cls-2{fill:#785d88;}.cls-10,.cls-11,.cls-12,.cls-13,.cls-14,.cls-15,.cls-16,.cls-17,.cls-18,.cls-19,.cls-2,.cls-20,.cls-21,.cls-22,.cls-23,.cls-24,.cls-25,.cls-26,.cls-27,.cls-28,.cls-29,.cls-3,.cls-4,.cls-5,.cls-6,.cls-7,.cls-8,.cls-9{fill-rule:evenodd;}.cls-3{fill:#594165;}.cls-4{fill:#a688ba;}.cls-5{fill:#9075a0;}.cls-6{fill:#dddddc;}.cls-7{fill:#c4c4c4;}.cls-8{fill:#cececd;}.cls-29,.cls-9{opacity:0.1;}.cls-10{fill:#734d60;}.cls-11{fill:#96637c;}.cls-12{fill:#d1a1b8;}.cls-14{fill:#a3a3a3;}.cls-15{fill:#858686;}.cls-16{fill:#6f7173;}.cls-17{fill:#543042;}.cls-18,.cls-29{fill:#2b2b2b;}.cls-18{opacity:0.2;}.cls-19{fill:#fff;}.cls-20{fill:#4f5253;}.cls-21{fill:#9da1a2;}.cls-22{fill:#737373;}.cls-23{fill:#dfbda5;}.cls-24{fill:#c3987b;}.cls-25{fill:#8b6651;}.cls-26{fill:#e8cab6;}.cls-28{fill:#8f8f8f;}</style></defs><title>analysts_INTJ_scene_med_conclusion(1)</title><g id="suns"><circle class="cls-1" cx="554.29" cy="27.79" r="17.29"/><circle class="cls-1" cx="630.96" cy="43.94" r="6.85"/></g><g id="jabba_palace" data-name="jabba palace"><polygon class="cls-2" points="796.33 71.83 788 28.5 778.5 27.5 770.75 28.5 769.67 38 765.67 69.49 796.33 71.83"/><polygon class="cls-3" points="770.75 28.5 762.83 23.25 779.75 22.25 795.33 23.25 788 28.5 770.75 28.5"/><polygon class="cls-4" points="762.83 23.25 769.67 18.75 777.48 17.32 788 17.75 795.33 23.25 762.83 23.25"/><polygon class="cls-5" points="769.67 18.75 769.67 10.5 779.14 8.38 788 10.5 788 17.75 769.67 18.75"/><polygon class="cls-4" points="769.67 10.5 788 10.5 779.14 6.25 769.67 10.5"/><polygon class="cls-3" points="762.83 39 762.83 33.17 705.67 35.17 705 41 762.83 39"/><polygon class="cls-4" points="769.67 33.83 697.67 36.17 735.37 24.5 769.67 33.83"/><polygon class="cls-3" points="772.37 54.17 771.67 46.17 697.33 48.67 696.33 55.67 772.37 54.17"/><polygon class="cls-4" points="690.17 48.83 777.9 47.83 769.67 38 699 39.67 690.17 48.83"/><polygon class="cls-2" points="809 109.5 804.31 84.42 801.33 81.58 774.5 78.75 782.25 105.26 809 109.5"/><polygon class="cls-3" points="803.25 78.75 774.5 78.75 776.02 83.94 804.31 84.42 803.25 78.75"/><polygon class="cls-5" points="774.5 78.75 782.9 78.98 810.24 79.75 806.33 71.83 780.33 65.73 774.5 78.75"/><polygon class="cls-4" points="806.33 71.83 782.9 78.98 777.9 71.15 777.9 60 806.33 71.83"/><polygon class="cls-5" points="789.4 103.67 779.13 64.67 776.17 60.96 688.67 62 681.33 97.66 789.4 103.67"/><polygon class="cls-4" points="688.67 62 777.9 60 794.06 60 784.5 52.67 688.67 54.95 679.16 62 688.67 62"/><polygon class="cls-2" points="779.14 64.67 682.17 65.73 679.16 62 777.9 60 779.14 64.67"/></g><g id="sand"><polygon class="cls-6" points="61.75 95.49 123 74.16 181.4 77.44 132 99.6 61.75 95.49"/><polygon class="cls-7" points="132 92.74 61.75 95.49 42.5 126.71 103 111.56 132 92.74"/><polygon class="cls-8" points="720.5 68.62 676 49.51 637.81 81.95 684.9 94.16 720.5 68.62"/><polygon class="cls-6" points="676 49.51 612.21 70.12 646.5 81.95 676 49.51"/><polygon class="cls-7" points="688.67 83.16 600.65 62.91 536.25 107.54 473.38 101.98 416 129.79 543 132.41 688.67 83.16"/><polyline class="cls-8" points="103 279.44 172.9 299.22 224.71 310.17 339.25 313.33 351 327 426 325.09 581.99 307.53 807.33 295.33 861 203.38 804.5 106.46 720.5 68.62 613.91 102.73 467.67 126.25 290.81 109.55 132 92.74 92.5 108.17 42.5 168.81 103 279.44"/><polygon class="cls-6" points="467.67 242.77 548.75 275.13 787 266.99 810.24 264.86 807.33 295.33 388.25 285.94 359.5 264 411 230.85 467.67 242.77"/><polygon class="cls-6" points="303 222.63 94.89 237.4 140 270.67 320.33 247 351 224.11 329.33 209.19 303 222.63"/><polygon class="cls-7" points="388.25 285.94 329 278.33 172.9 299.22 221.61 313 335.67 320.33 351 327 392.75 316.32 388.25 285.94"/><polygon class="cls-6" points="303 222.63 90.31 192.05 105.5 143.1 296.44 182.24 373.17 197.81 303 222.63"/><polygon class="cls-7" points="88.5 134.38 329.33 117.15 314.67 108.17 291.52 105.26 132 92.74 88.5 134.38"/><polygon class="cls-7" points="807.33 295.33 567.92 289.97 426 325.09 807.33 295.33"/><polygon class="cls-6" points="705.52 261.88 775 251.72 788 224.71 773 225.56 705.52 261.88"/><polygon class="cls-7" points="674 101.98 692.25 118.1 765.67 132.5 828.11 146.46 827 113.45 804.5 106.46 720.5 68.62 674 101.98"/><polygon class="cls-6" points="613.91 102.73 720.5 68.62 692.25 118.1 613.91 102.73"/><polygon class="cls-6" points="692.25 118.1 617.13 135.33 467.67 126.25 692.25 118.1"/><polygon class="cls-6" points="600.65 62.91 531 71.67 440 80.75 473.38 101.98 536.25 115.22 600.65 62.91"/><polygon class="cls-8" points="132 92.74 199.51 71.83 320.33 81.47 290.81 93.36 132 92.74"/><polygon class="cls-6" points="285.9 88.69 132 92.74 290.81 109.55 305.56 99.6 285.9 88.69"/></g><g id="millenium_falcon"><polygon class="cls-9" points="81.27 88.69 99.17 94.02 132 92.74 182.4 82.6 188.23 79.84 181.4 77.44 157.34 76.09 104.08 79.84 93.95 84.28 81.27 88.69"/><polygon class="cls-10" points="100.39 84.45 100 90.06 95.43 90.3 93.61 82.92 99.09 80.97 100.39 84.45"/><polygon class="cls-10" points="145.3 77.12 146.66 84.5 152.03 84.22 152.93 75.19 145.3 77.12"/><polygon class="cls-11" points="85.66 47.9 86.29 59.74 111.64 57.3 112.68 49.56 85.66 47.9"/><polygon class="cls-12" points="85.66 47.9 116.47 43.02 191.23 50.08 130.98 70.26 100.91 73.55 61.7 63.77 57.49 51.98 95.78 55.18 111.11 51.31 85.66 47.9"/><polygon class="cls-11" points="130.89 68.6 128.69 76.48 131.76 84.75 188.6 65.51 191.23 50.08 130.89 68.6"/><polygon class="cls-11" points="100.82 71.9 103.62 77.82 100.39 84.45 65.01 76.44 61.7 63.77 100.82 71.9"/><polygon class="cls-10" points="100.82 71.9 130.89 68.6 131.76 84.75 100.39 84.45 100.82 71.9"/><polygon class="cls-13" points="116.52 55.56 130.02 52.31 141.52 52.96 138.97 56.93 124.81 59.57 116.52 55.56"/><polygon class="cls-12" points="139.75 71.47 184.56 57.2 183.56 61.6 139.98 75.88 139.75 71.47"/><polygon class="cls-11" points="147.74 50.52 155.17 44.84 164.81 40.44 167.3 47.82 147.74 50.52"/><polygon class="cls-13" points="164.81 40.44 147.5 45.95 147.74 50.52 164.81 40.44"/><polygon class="cls-10" points="100.82 71.9 93.61 82.92 87.89 69.21 96.14 61.93 100.16 67.38 100.82 71.9"/><polygon class="cls-11" points="100.82 71.9 112.01 64.19 96.14 61.93 100.82 71.9"/><polygon class="cls-12" points="91.34 71.17 95.31 67.08 97.53 72.28 94.44 76.52 91.34 71.17"/><polygon class="cls-11" points="123.91 56.13 129 53.85 136.68 54.44 129.18 57.19 123.91 56.13"/><polygon class="cls-13" points="129.83 48.73 135.33 46.6 139.85 48.2 133.5 49.57 129.83 48.73"/><polygon class="cls-11" points="127.33 40.79 134.17 48.5 140.71 37.79 133.96 38.15 127.33 40.79"/><polygon class="cls-13" points="127.33 40.79 133.5 29.48 140.71 37.79 127.33 40.79"/></g><g id="escape_pod"><polygon class="cls-14" points="579.96 67.65 593.11 55.67 613.91 55.67 598.16 68.62 579.96 67.65"/><polygon class="cls-15" points="614.24 100.9 604.75 87.92 597.18 65.73 613.91 55.67 643.2 93.36 624.1 99.47 614.24 100.9"/><polygon class="cls-16" points="597.18 65.73 579.96 67.65 582.26 107.82 597.85 105.31 606.21 102.42 613.91 102.73 597.18 65.73"/><polygon class="cls-12" points="622.55 66.78 602.53 77.58 602 80.92 605.61 84.37 626.48 71.83 622.55 66.78"/><polygon class="cls-5" points="605.61 84.37 581.1 87.5 580.62 79.18 602.53 77.58 605.61 84.37"/><polygon class="cls-5" points="597.85 105.31 597.85 94.16 608.67 91.15 611.77 96.17 613.91 102.73 611.78 103.08 606.21 102.42 600.65 104.86 597.85 105.31"/><polygon class="cls-12" points="608.67 91.15 624.1 99.47 613.91 102.73 608.67 91.15"/><polygon class="cls-16" points="611.77 103.08 605.08 96.94 600.65 104.86 611.77 103.08"/><polygon class="cls-2" points="591.03 57.56 582.75 44.67 590.67 44.08 596.94 40.08 598.11 55.67 595.08 57.92 591.03 57.56"/><polygon class="cls-5" points="584.55 63.47 588.25 63.47 591.67 61.08 589.5 49 583.55 52 576.83 53.5 584.55 63.47"/><polygon class="cls-5" points="593.67 47.5 599.33 57.92 602.92 57.92 605.88 55.67 604.58 43.17 599.77 46.5 593.67 47.5"/><polygon class="cls-3" points="576.83 53.5 584.98 48.13 589.5 49 584.55 53 576.83 53.5"/><polygon class="cls-3" points="593.67 47.5 597.18 43.17 604.58 43.17 599.77 47.5 593.67 47.5"/><polygon class="cls-3" points="582.75 44.67 588.92 40.08 596.94 40.08 590.67 45.08 582.75 44.67"/></g><g id="sarlac"><polygon class="cls-12" points="772.96 225.56 705.5 261.89 548 257.52 434.38 221.42 445.01 185.54 498.5 147.42 617 135.33 741 152.17 776.83 191.07 772.96 225.56"/><polygon class="cls-11" points="454.29 209.19 465.41 213.66 528.5 233.5 650.5 246.5 749.74 224.71 772.37 218.03 750 180.91 645.32 147.84 523.67 162.42 454.29 209.19"/><polygon class="cls-13" points="645.32 164.43 541.5 169.3 465.4 213.66 482.99 220.73 528.5 233.5 648.5 245.75 724.87 232.05 749.74 224.71 723.5 182.8 645.32 164.43"/><polygon class="cls-10" points="482.99 220.73 546.5 182.8 638.5 178.84 712.5 198.55 724.87 232.05 693.5 241.31 648.5 245.75 530.72 233.73 505.02 229.59 482.99 220.73"/><polygon class="cls-11" points="505.01 229.59 555 197.81 634 200.92 693.5 223.5 693.5 241.31 668.31 248.75 647.12 251.03 523.67 237.09 505.01 229.59"/><polygon class="cls-10" points="523.67 237.09 567 216.42 636.5 223.5 668.3 248.75 650.5 254 607.57 244.88 556.4 241.45 523.67 237.09"/><polygon class="cls-17" points="556.4 241.45 569.5 231.54 625.5 232.04 650.5 254 605.61 248.01 597.3 245.75 590.75 246.03 556.4 241.45"/><polygon class="cls-10" points="571.38 203.25 575.25 214 579.13 204.21 571.38 203.25"/><polygon class="cls-13" points="605.61 248.01 597.85 231.79 594.08 229.81 589 231.71 590.75 246.03 605.61 248.01"/><polygon class="cls-12" points="597.85 231.79 602.38 213.25 595.33 213.25 594 215.63 589 231.71 597.85 231.79"/><polygon class="cls-13" points="602.38 213.25 578.13 198.72 571.38 203.25 594 215.63 602.38 213.25"/><polygon class="cls-18" points="706.25 216.42 700 224.08 702.08 214 706.25 216.42"/><polygon class="cls-18" points="693.5 231.54 683.83 237.67 688.08 227.92 693.5 231.54"/><polygon class="cls-18" points="661.22 243.12 655.67 249.25 657.25 241 661.22 243.12"/><polygon class="cls-18" points="673.75 202.75 668.83 211.96 666.33 205.5 673.75 202.75"/><polygon class="cls-18" points="640.5 194.25 637.5 207.5 634.08 199.67 640.5 194.25"/><polygon class="cls-18" points="640.25 226.48 635.38 235.21 635.38 227.58 640.25 226.48"/><polygon class="cls-18" points="616.1 221.42 612.5 230.85 610.25 222.77 616.1 221.42"/><polygon class="cls-18" points="603.45 192.05 599.83 208.17 597.85 205.09 597.85 195.83 603.45 192.05"/><polygon class="cls-18" points="552.03 199.7 555.92 208.63 557.5 200.11 552.03 199.7"/><polygon class="cls-18" points="562 218.81 566.38 229.42 567.92 220.08 562 218.81"/><polygon class="cls-18" points="533.29 232.5 536.25 238.77 540.01 239.27 539.5 229.81 533.29 232.5"/><polygon class="cls-18" points="521.66 219 528 226.48 527.5 215.63 521.66 219"/><polygon class="cls-19" points="706.25 207.5 692.25 215 706.25 216.42 708.5 211.51 706.25 207.5"/><polygon class="cls-19" points="688.02 221.42 676 229.75 693.5 231.54 693.5 223.5 688.02 221.42"/><polygon class="cls-19" points="669.75 197.17 673.75 202.75 661.22 211.25 663.25 199.7 669.75 197.17"/><polygon class="cls-19" points="636.5 189.5 630.25 192.05 633.38 207.5 640.5 194.25 636.5 189.5"/><polygon class="cls-19" points="592.25 191 599.26 187.65 603.45 192.05 597.85 205.09 592.25 191"/><polygon class="cls-19" points="552.75 190.75 558.25 192.05 560.5 205.75 552.03 199.7 552.75 190.75"/><polygon class="cls-19" points="518.75 212.3 522.25 205.75 536.25 218.25 521.66 219 518.75 212.3"/><polygon class="cls-19" points="562 218.81 564.76 211.96 570.75 216.96 570.75 226.48 562 218.81"/><polygon class="cls-19" points="608.33 220.63 611.97 214 616.1 221.42 608.33 231.54 608.33 220.63"/><polygon class="cls-19" points="640.5 219 633.78 223.22 630.25 232.5 640.25 226.48 640.5 219"/><polygon class="cls-19" points="661.22 243.12 664 238.25 658.62 235.21 650.5 243.69 661.22 243.12"/><polygon class="cls-19" points="533.29 232.5 533.29 226.48 539.25 224.42 548.75 235.21 533.29 232.5"/></g><g id="big_rock"><polygon class="cls-9" points="326.28 207.17 277.78 219 290.81 251.03 388.25 286 488.36 251.03 464.5 235.21 446.67 224.42 326.28 207.17"/><polygon class="cls-20" points="310.69 231.54 339.5 232.04 356 176.94 347.37 156.03 310.69 231.54"/><polygon class="cls-21" points="310.69 231.54 302.99 222.63 326.99 143.8 347 182.8 310.69 231.54"/><polygon class="cls-16" points="347 182.8 310.85 147.78 305.56 106.46 345.9 122.71 347 182.8"/><polygon class="cls-21" points="362.99 123.78 363.5 188.79 359.5 264.2 400.94 255.13 405.84 191.07 400.94 147.42 467.67 126.25 467.67 98.2 362.99 123.78"/><polygon class="cls-20" points="323.92 101.98 362.99 123.78 371.47 187.54 360.75 195.75 347 182.8 323.92 101.98"/><polygon class="cls-22" points="371.47 187.54 359.5 264.2 320.33 247.17 347 182.8 371.47 187.54"/><polygon class="cls-20" points="393.75 143.1 413.58 156.03 422.99 169.3 419.15 208.25 405.84 191.07 393.75 143.1"/><polygon class="cls-16" points="418.33 198.55 428 225.56 423.5 260.04 393.75 256.7 405.84 191.07 418.33 198.55"/><polygon class="cls-14" points="423.5 260.04 467.67 243.3 445.01 185.54 430.67 182.8 418.33 198.55 423.5 260.04"/><polygon class="cls-22" points="422.99 169.3 438 156.03 475.01 139.07 445.01 185.54 418.33 198.55 422.99 169.3"/><polygon class="cls-6" points="422.99 169.3 475.01 139.07 467.67 126.25 393.75 143.1 422.99 169.3"/><polygon class="cls-14" points="407.75 216.4 385 221.63 389 264.2 411 258.64 407.75 216.4"/><polygon class="cls-16" points="389 264.2 372.38 261.38 381.25 218.03 389 218.03 387 222.63 389 264.2"/><polygon class="cls-6" points="407.75 216.4 403.57 203.38 381.25 218.03 387 222.63 407.75 216.4"/><polygon class="cls-22" points="362.99 123.78 467.67 126.25 475.01 96.88 362.99 123.78"/><polygon class="cls-15" points="362.99 123.78 290.81 109.55 283.3 77.67 360.75 92.56 362.99 123.78"/><polygon class="cls-21" points="353.33 95.86 523.67 61.33 513 94.16 362.99 123.78 353.33 95.86"/><polygon class="cls-21" points="355.45 101.98 269.06 85.47 273.5 31.67 329.33 57.5 359.5 81.95 362.99 90.75 355.45 101.98"/><polygon class="cls-7" points="359.5 81.95 434.38 62.91 534 46.33 531 71.67 355.45 101.98 359.5 81.95"/><polygon class="cls-6" points="534 46.33 480.5 20.5 312.17 20.5 273.5 31.67 359.5 81.95 534 46.33"/><polygon class="cls-21" points="426 20.5 438.5 46.33 355.45 64.79 355.01 36.11 426 20.5"/><polygon class="cls-15" points="355.45 64.79 312.17 20.5 320.33 9 353.33 27 360.75 40 355.45 64.79"/><polygon class="cls-6" points="426 20.5 381.25 0 320.33 9 360.75 40 426 20.5"/></g><g id="intj"><polygon class="cls-9" points="223.89 247.17 192.86 258.22 170.68 266.64 198.56 278.33 259.13 278.33 275.53 263.04 223.89 247.17"/><polygon class="cls-10" points="206.65 231.54 192.86 258.22 203.04 265.43 215.12 264.2 227.4 248.04 206.65 231.54"/><polygon class="cls-17" points="215.12 264.2 210.56 268.98 197.69 272.2 192.86 258.22 215.12 264.2"/><polygon class="cls-2" points="142.66 114.76 142.66 165.52 170.68 180.91 170.68 129.79 168.03 118.96 142.66 114.76"/><polygon class="cls-12" points="170.68 129.79 142.66 114.76 185.35 99.11 220.48 112.89 196.81 126.27 170.68 129.79"/><polygon class="cls-11" points="197.69 272.2 215.12 264.2 225.56 275.13 208.57 275.04 197.69 272.2"/><polygon class="cls-10" points="244.27 135.41 262.34 155.92 246.57 171.97 244.27 135.41"/><polygon class="cls-11" points="192.78 126.27 170.68 129.79 183.68 196.81 188.69 200.8 185.9 208.25 188.69 222.63 225.12 218.03 251.74 208.99 251.29 200.66 243.29 126.27 192.78 126.27"/><polygon class="cls-10" points="199.56 169.3 205.07 196.81 241.41 190.41 237.02 160.09 211.27 141.79 199.56 169.3"/><polygon class="cls-17" points="250.02 188.84 183.68 196.81 185.9 208.25 251.29 200.66 250.02 188.84"/><polygon class="cls-17" points="191.93 123.78 183.19 126.25 174.23 132.5 172.9 141.22 195.7 134.91 191.93 123.78"/><polygon class="cls-13" points="191.93 123.78 199.56 169.3 212.96 146.78 237.02 160.09 230.27 135.25 191.93 123.78"/><polygon class="cls-3" points="185.35 99.11 192.23 96.88 198.56 107 197.48 112.5 178.82 114.73 185.35 99.11"/><polygon class="cls-23" points="271.06 68.75 269.06 85.47 256.46 135.55 230.27 135.25 211.27 141.79 195.87 123.86 198.61 106.6 190.62 103.73 188.23 88.92 200.71 85.01 206.05 97.42 210.5 96.58 214.26 82.07 210.41 62.63 233.23 52.88 254.65 63.85 257.14 52.48 271.06 68.75"/><polygon class="cls-24" points="211.22 62.91 225.12 86.42 225.3 122 230.27 135.25 219.68 138.9 212.96 146.78 191.93 123.78 198.56 107 202.69 107.94 206.09 98.37 210.85 97.2 214.91 82.2 211.22 62.91"/><polygon class="cls-24" points="261.25 92.74 225.12 86.42 241.62 101.13 241.41 113 250.73 99.57 261.25 92.74"/><polygon class="cls-25" points="225.3 122 243.29 126.27 256.33 124.92 243.73 119.15 225.3 122"/><polygon class="cls-2" points="225.3 122 241.41 113 249.03 114.05 256.33 124.92 225.3 122"/><polygon class="cls-26" points="245.05 89.92 241.41 113 249.03 114.05 251.74 91 245.05 89.92"/><path class="cls-27" d="M234.23,99.58c-1.17-.21-1.85-1.91-1.51-3.79s1.55-3.26,2.71-3.05,1.84,1.91,1.51,3.79S235.39,99.78,234.23,99.58Z"/><path class="cls-27" d="M255.48,102.71c-1.17-.21-1.83-1.92-1.49-3.8s1.57-3.25,2.74-3,1.83,1.92,1.48,3.8S256.64,102.92,255.48,102.71Z"/><polygon class="cls-2" points="225.12 86.42 261.25 92.74 264.78 81.95 225.12 86.42"/><polygon class="cls-3" points="249.03 114.01 244.67 116.52 241.41 113 249.03 114.01"/><polygon class="cls-25" points="193.51 90.25 199.07 90.13 200.12 98.2 193.51 90.25"/><polygon class="cls-25" points="230.27 135.25 215.03 131.37 212.96 146.78 230.27 135.25"/><polygon class="cls-25" points="198.22 106.46 202.69 107.94 196.33 112.64 198.22 106.46"/><polygon class="cls-5" points="270.41 68.62 274.41 61.33 283.3 54.77 269.06 85.47 270.41 68.62"/><polygon class="cls-5" points="211.22 62.91 197.97 56.02 176.86 54.59 182.2 81.47 200.2 83.16 214.91 82.2 211.22 62.91"/><polygon class="cls-2" points="270.41 68.62 257.29 54.07 249.54 47.48 241.38 36.41 283.3 54.77 270.41 68.62"/><polygon class="cls-2" points="211.22 62.91 233.27 53.67 218.57 44.7 202.86 36.11 176.86 54.59 211.22 62.91"/><polygon class="cls-5" points="241.38 36.41 214.39 24.5 202.86 36.11 233.27 53.67 255.02 64.79 257.29 54.07 241.38 36.41"/><polygon class="cls-2" points="214.91 82.2 182.2 81.47 185.35 99.11 190.62 103.73 188.72 89.21 200.58 85.65 206.09 98.37 210.85 97.2 214.91 82.2"/><polygon class="cls-10" points="188.69 222.63 215 246.67 234.83 225.63 217.49 216.4 188.69 222.63"/><polygon class="cls-17" points="229.64 224.71 234.83 227.49 238.31 237.4 247.18 251.34 240.69 257.52 230.98 261.89 203.89 236.52 229.64 224.71"/><polygon class="cls-17" points="217.49 216.4 229.64 224.71 237.02 222.63 240.81 211.36 217.49 216.4"/><polygon class="cls-10" points="251.74 208.99 238.31 237.4 229.64 224.71 240.81 211.36 251.74 208.99"/><polygon class="cls-11" points="253.58 247.17 245.24 260.65 237.09 267.87 230.98 261.89 253.58 247.17"/><polygon class="cls-17" points="253.58 247.17 264.06 246.03 255.85 265 237.09 267.87 253.58 247.17"/><polygon class="cls-3" points="170.68 129.79 160.45 191.07 176.86 184.03 185.28 176.94 170.68 129.79"/><polygon class="cls-10" points="185.28 176.94 202.86 185.78 203.62 194.42 200.12 200.66 160.45 191.07 185.28 176.94"/><polygon class="cls-4" points="170.68 129.79 183.19 126.25 190.18 165.52 185.28 176.94 170.68 129.79"/><polygon class="cls-5" points="244.27 135.41 247.18 162.42 241.41 161.03 237.02 135.33 244.27 135.41"/><polygon class="cls-24" points="202.86 185.78 210.44 182.24 208.38 188.84 202.86 185.78"/><polygon class="cls-4" points="209.88 151.95 207.69 205.72 215.79 203.57 221.04 208.25 249.53 213.66 251.74 180.15 246.24 153.69 209.88 151.95"/><polygon class="cls-2" points="246.24 153.69 276.18 139.07 276.18 169.3 269.06 198.55 249.53 213.66 246.24 153.69"/><polygon class="cls-5" points="276.18 139.07 317.24 132.5 290.34 196.81 269.06 198.55 276.18 139.07"/><polygon class="cls-23" points="305.56 160.43 310.69 169.3 296.44 182.24 298.18 169.3 305.56 160.43"/><polygon class="cls-24" points="305.56 160.43 293.15 162.17 290.81 173.21 296.44 182.24 305.56 160.43"/><polygon class="cls-2" points="223.89 193.35 221.04 208.25 207.69 205.72 223.89 193.35"/><polygon class="cls-23" points="202.86 185.78 211.76 187.54 213.56 196.63 207.69 205.72 200.12 200.66 202.86 185.78"/><polygon class="cls-24" points="211.76 187.54 223.89 193.35 218.2 202.93 207.69 205.72 211.76 187.54"/></g><g id="rocks"><polygon class="cls-9" points="783 229.81 751.06 255.22 759.67 281.22 807.33 295.33 821.5 278.67 783 229.81"/><polygon class="cls-28" points="814 156.03 777.9 157.46 788 266.99 796.33 266.99 814 178.84 814 156.03"/><polygon class="cls-16" points="788 266.99 775 251.7 765.67 132.41 777.9 147.42 780.33 162.43 788 266.99"/><polygon class="cls-6" points="765.67 132.41 802.05 136.02 814 156.03 780.33 162.43 765.67 132.41"/><polygon class="cls-28" points="374 316.32 369.75 312.3 360.75 311 351 327 359.5 330 377 328.48 374 316.32"/><polygon class="cls-6" points="360.75 311 378.75 304.03 374 316.32 360.75 311"/><polygon class="cls-28" points="31 158.5 33 102.5 61.75 95.49 61.75 155.8 31 158.5"/><polygon class="cls-16" points="31 158.5 17.5 164.04 19 97.17 32.75 101.36 36 106.61 31 158.5"/><polygon class="cls-6" points="61.75 95.49 47.75 90.75 19 97.17 36 106.61 61.75 95.49"/><polygon class="cls-28" points="37 257.31 15.75 260.04 20 170.5 37 170.5 42.5 236.64 37 257.31"/><polygon class="cls-16" points="15.75 260.04 0 253 7.88 162.89 20.25 167.7 22.5 175 15.75 260.04"/><polygon class="cls-6" points="7.88 162.89 42.5 153.08 37 170.5 22.5 175 7.88 162.89"/><polygon class="cls-16" points="37 138.94 78 149.8 92.5 199.55 103 279.44 37 257.31 37 138.94"/><polygon class="cls-28" points="78 149.8 85.5 143.8 105.5 143.8 140 270.96 103 279.44 78 149.8"/><polygon class="cls-6" points="105.5 143.8 68.5 123.56 37 138.94 78 149.8 105.5 143.8"/><polygon class="cls-16" points="54.22 130.53 51.5 108.17 79.42 112.21 71.25 136.68 54.22 130.53"/><polygon class="cls-28" points="71.25 136.68 88.48 134.49 92.5 108.17 79.42 108.17 74.5 113.72 71.25 136.68"/><polygon class="cls-6" points="92.5 108.17 74.5 100.44 51.5 108.17 74.5 113.72 92.5 108.17"/><polygon class="cls-28" points="81.5 272.23 51.5 278.21 51.5 234.8 79.42 232.04 81.5 272.23"/><polygon class="cls-16" points="56.25 237.21 48.75 229.25 28.25 223 25.19 258.83 51.5 278.21 56.25 237.21"/><polygon class="cls-6" points="56.25 237.21 79.42 232.04 54.25 216.75 28.25 223 56.25 237.21"/><polygon class="cls-28" points="308 267.87 311.99 314 273.5 320.33 271.06 267.87 308 267.87"/><polygon class="cls-16" points="273.5 269.67 273.5 265.43 262.74 265 251.99 304.67 273.5 320.33 273.5 269.67"/><polygon class="cls-6" points="262.74 265 295.01 260.04 308 267.87 273.5 269.67 262.74 265"/><polygon class="cls-28" points="329.33 278.21 312.17 288.33 317.24 323.67 335.67 320.33 329.33 278.21"/><polygon class="cls-16" points="317.24 323.67 303.5 321.67 295.01 288.33 308 284.33 317.24 289.67 317.24 323.67"/><polygon class="cls-6" points="295.01 288.33 308.63 275.13 329.33 278.21 317.24 289.67 295.01 288.33"/><polygon class="cls-28" points="295.01 288.33 303.5 321.67 281.99 329 273.5 294.1 295.01 288.33"/><polygon class="cls-16" points="276.18 295.67 272.07 289.67 256.05 289.67 251.99 298.72 245.33 304 242.28 320.33 281.99 329 276.18 295.67"/><polygon class="cls-6" points="295.01 288.33 273.5 282.4 256.05 289.67 276.18 295.67 295.01 288.33"/><polygon class="cls-28" points="264.06 325.09 260 308.67 240.69 307.54 237.02 323.67 264.06 325.09"/><polygon class="cls-16" points="242.28 309.33 241.41 304.03 234.83 300.94 221.61 313 237.02 323.67 242.28 309.33"/><polygon class="cls-6" points="260 308.67 249.62 304 251.99 298.72 234.83 300.94 242.28 309.33 260 308.67"/><polygon class="cls-28" points="426 325.09 383.68 335.1 389 350 428 339 426 325.09"/><polygon class="cls-16" points="386.75 335.75 378.75 331.75 359.5 330 355.75 337.54 389 350 386.75 335.75"/><polygon class="cls-6" points="359.5 330 368.75 327 405.75 318.25 426 325.09 386.75 335.75 359.5 330"/><polygon class="cls-28" points="407.75 295.67 411 325.09 391 331 390.88 298.72 407.75 295.67"/><polygon class="cls-16" points="393.75 300.94 388 295.67 374 294.1 368.75 327 391 331 393.75 300.94"/><polygon class="cls-6" points="407.75 295.67 388.25 286 374 294.1 393.75 300.94 407.75 295.67"/><polygon class="cls-28" points="850 180.67 844 98.54 821.5 109.75 829.5 187.65 850 180.67"/><polygon class="cls-16" points="827 113.45 821.5 105.26 804.5 106.46 798.5 178.84 829.5 187.65 827 113.45"/><polygon class="cls-6" points="804.5 106.46 820.5 90.13 844 98.54 827 113.45 804.5 106.46"/><polygon class="cls-28" points="870 144.51 844.46 150.24 861 266.99 900 249.25 870 144.51"/><polygon class="cls-16" points="847.92 152.17 861 266.99 829.5 255.7 827.93 141.01 844 141.01 847.92 152.17"/><polygon class="cls-6" points="827.93 141.01 845.92 124.76 870 144.51 847.92 152.17 827.93 141.01"/><polygon class="cls-28" points="846 283.72 841 192.05 814 197.98 807.33 295.33 846 283.72"/><polygon class="cls-16" points="807.33 295.33 796.33 266.99 798.5 178.84 814 187.65 816.33 200.86 807.33 295.33"/><polygon class="cls-6" points="841 192.05 827.93 164.43 798.5 178.84 816.33 200.86 841 192.05"/></g><g id="cactuses"><polygon class="cls-29" points="426 325.09 455.69 314.39 483.5 320.5 426 325.09"/><polygon class="cls-29" points="507.58 301.44 516.6 302.67 505.01 309.33 490.94 309.02 501.67 300.94 507.58 301.44"/><polygon class="cls-29" points="590.02 312.29 607.57 305.14 632.5 308.98 590.02 312.29"/><polygon class="cls-2" points="451.75 320.33 461.99 325.09 461.47 286 444.73 266.99 434.38 278.21 439 298.72 451.75 320.33"/><polygon class="cls-5" points="454.29 270.67 465.4 267.87 474.5 287.87 470.33 321.63 461.99 325.09 455.99 286 454.29 270.67"/><polyline class="cls-3" points="437 298.72 450 323.21 461.99 325.09 435.02 279.29 434.38 278.21"/><polygon class="cls-4" points="465.4 267.87 455.99 286 444.73 266.99 465.4 267.87"/><polygon class="cls-2" points="499.16 306.98 494.33 269.67 509 269.67 499.16 306.98"/><polygon class="cls-5" points="499.16 306.98 506.38 305.2 516 275.13 506.38 261.22 499.16 306.98"/><polygon class="cls-4" points="506.38 258.22 494.33 269.67 516 275.13 506.38 258.22"/><polygon class="cls-2" points="600.5 308.5 591.01 278.67 596.94 273.49 605.61 290.81 605.43 313.33 600.5 308.5"/><polygon class="cls-5" points="605.43 313.33 615.17 307.53 620 291.13 616.1 272.83 601.5 270.67 596.94 273.49 602.38 290.74 605.43 313.33"/><polygon class="cls-3" points="587.68 290.41 599.26 311.57 605.43 313.33 591.01 278.67 587.68 290.41"/><polygon class="cls-4" points="600.65 266.99 616.1 272.83 599.71 282.27 591.01 278.67 600.65 266.99"/><polygon class="cls-2" points="620 291.13 605.43 313.33 617.16 310.17 620 291.13"/><polygon class="cls-11" points="438.55 301.65 428.42 303.27 437 298.72 438.55 299.92 438.55 301.65"/><polygon class="cls-11" points="455.07 284.44 460.33 282.17 456.12 286.81 455.07 284.44"/><polygon class="cls-11" points="464.39 267.82 469.83 262.5 466.22 269.67 464.39 267.82"/><polygon class="cls-11" points="435.38 277.13 424.5 274.67 434.67 280.42 435.68 280.42 435.38 277.13"/><polygon class="cls-11" points="495.49 268.57 485.92 266.99 494.55 271.35 495.96 270.08 495.49 268.57"/><polygon class="cls-11" points="510.09 264.75 515.56 261.89 511.19 266.68 510.09 266.08 510.09 264.75"/><polygon class="cls-11" points="515.35 273.99 521.67 274.67 515.56 276.49 514.75 274.82 515.35 273.99"/><polygon class="cls-11" points="600.5 281.81 595.99 278.67 598.24 283 600.18 283.77 600.5 281.81"/><polygon class="cls-11" points="591.57 277.99 582.92 276.49 590.51 280.42 591.92 280.87 591.57 277.99"/><polygon class="cls-11" points="614.9 272.38 621.58 267.42 616.48 274.63 614.09 273.99 614.9 272.38"/><polygon class="cls-11" points="601.78 267.42 601.17 261.22 599.56 268.31 601.17 268.67 601.78 267.42"/></g></svg>