<svg id="illustration" xmlns="http://www.w3.org/2000/svg" viewBox="0 0 900 350"><defs><style>.cls-1,.cls-12,.cls-31,.cls-33{fill:#2b2b2b;}.cls-1,.cls-12,.cls-13,.cls-14,.cls-15,.cls-17,.cls-18,.cls-19,.cls-2,.cls-20,.cls-21,.cls-22,.cls-23,.cls-24,.cls-27,.cls-28,.cls-29,.cls-3,.cls-30,.cls-31,.cls-32,.cls-34,.cls-36,.cls-37,.cls-38,.cls-39,.cls-4,.cls-40,.cls-5,.cls-6,.cls-7,.cls-8,.cls-9{fill-rule:evenodd;}.cls-1{opacity:0.1;}.cls-2,.cls-26{fill:#c4c4c4;}.cls-3{fill:#8f8f8f;}.cls-4{fill:#fff;}.cls-5{fill:#474747;}.cls-25,.cls-6{fill:#4f5253;}.cls-11,.cls-7{fill:#858686;}.cls-8{fill:#6f7173;}.cls-9{fill:#dddddc;}.cls-10,.cls-18{fill:#a3a3a3;}.cls-12{opacity:0.15;}.cls-13{fill:#9075a0;}.cls-14{fill:#785d88;}.cls-15{fill:#a688ba;}.cls-16,.cls-41,.cls-42{fill:none;stroke-miterlimit:10;}.cls-16{stroke:#9075a0;stroke-width:2px;}.cls-17{fill:#734d60;}.cls-19{fill:#96637c;}.cls-20{fill:#543042;}.cls-21{fill:#9da1a2;}.cls-22{fill:#594165;}.cls-23{fill:#cececd;}.cls-24{fill:#ececeb;}.cls-27{fill:#84614f;}.cls-28{fill:#674736;}.cls-29{fill:#8c6d5d;}.cls-30{fill:#412b23;}.cls-32{fill:#b3889d;}.cls-34,.cls-35{fill:#d1a1b8;}.cls-36{fill:#737373;}.cls-37{fill:#c3987b;}.cls-38{fill:#dfbda5;}.cls-39{fill:#e8cab6;}.cls-40{fill:#8b6651;}.cls-41{stroke:#785d88;}.cls-42{stroke:#96637c;}</style></defs><title>analysts_INTJ_scene_med_friendships</title><g id="shadows"><polygon class="cls-1" points="813.54 272.2 871 214.2 637.42 186.87 527.49 197.67 469.35 216.68 428.8 254.65 369.4 201.97 208.53 203.55 41.67 323.98 230.87 349.38 305.61 321.33 398.69 338.33 494.04 312.5 565.01 323.98 672.55 302.6 782.79 327.5 879 297.18 813.54 272.2"/></g><g id="space"><polygon class="cls-2" points="0 78.14 451.5 7.99 900 53.27 871 214.2 481.5 169.96 71.73 237.39 32.33 245.5 0 78.14"/><polygon class="cls-3" points="900 53.27 451.5 7.99 450 171.32 481.5 169.96 871 214.2 900 53.27"/><polygon class="cls-4" points="493.43 52.12 495.52 45.55 497.74 52.12 504.39 52.12 498.91 55.93 500.79 62.83 496.9 58.57 490.79 63.86 493.43 56.47 486.92 54.6 493.43 52.12"/><polygon class="cls-4" points="401.67 23.06 405.9 25.92 410.29 24.49 408.6 27.99 411.67 30.5 406.67 29.82 403.67 34.47 404 28.77 398.38 29.82 402.33 25.92 401.67 23.06"/><polygon class="cls-4" points="329.54 98.52 333 94.36 333 100.76 337.83 102.3 333.69 103.09 331.17 108.99 331.17 103.78 325.61 104.86 329.54 101.67 325.61 98.08 329.54 98.52"/><polygon class="cls-4" points="106.62 84.2 106.62 94.91 116.34 97.79 106.62 100.78 106.62 111.13 101.41 103.78 91.74 108.37 98.54 99.76 91.74 92.14 100.23 94.91 106.62 84.2"/><polygon class="cls-4" points="789 84.33 792 77.67 792.33 84.33 798 85.67 792.33 87.67 794 94.67 788.33 89.33 782.67 90.33 787 86.33 783.67 80.67 789 84.33"/><polygon class="cls-4" points="843.31 118.32 841.46 114.16 844.93 115.78 847.71 113 847.71 116.7 852.1 117.16 847.25 119.25 847.25 124.33 845.16 120.4 841 123.41 843.31 118.32"/><polygon class="cls-4" points="837.67 182.67 836 177 840.33 180.67 845.33 178.33 844 182.67 850.67 185.33 842 185.33 839 191.33 839 185.33 833 186 837.67 182.67"/><polygon class="cls-4" points="101.67 148.67 104.67 142.67 105.67 148.33 111 149.33 106.33 151 107 155.67 104.33 153.33 98.67 155.67 101 151.67 95.33 147.67 101.67 148.67"/><polygon class="cls-4" points="32 107.33 29.67 100.33 35.33 103 40 98.67 39 104.33 45.67 106.33 37.67 108.33 36.67 115.67 33.33 110.33 29.67 114 32 107.33"/><polygon class="cls-4" points="298.74 55.86 300.56 49.67 302.74 54.4 309.67 56.23 303.11 58.41 305.66 64.97 300.92 61.69 295.82 65.7 298.01 59.14 294 55.5 298.74 55.86"/></g><g id="desk"><polygon class="cls-5" points="517.54 218.97 550.95 208.21 555.67 189.69 519.36 182.2 517.54 218.97"/><polygon class="cls-6" points="790.07 237.43 762.29 231.63 790.07 190.15 790.07 237.43"/><polygon class="cls-7" points="790.07 237.43 812.41 223.45 812.41 154.36 735.6 199.41 727.8 237.43 733.42 285.79 760.12 264.55 762.29 231.63 787.35 210.62 790.07 237.43"/><polygon class="cls-8" points="733.42 285.79 707.45 275.07 697.65 236.63 524.44 191.39 517.54 218.97 502.5 203.68 496.12 154.36 735.6 199.41 733.42 285.79"/><polygon class="cls-9" points="825.48 137.08 739.96 191.87 481.74 138.81 584.59 103.78 825.48 137.08"/><polygon class="cls-10" points="825.48 137.08 824.03 158.72 735.6 208.21 735.6 199.41 739.96 189.69 825.48 137.08"/><polygon class="cls-11" points="739.96 189.69 481.74 138.81 481.74 154.36 735.6 208.21 739.96 189.69"/><polygon class="cls-12" points="751.68 126.88 731.06 147.07 696.66 152.79 629.01 131.72 660.87 114.33 751.68 126.88"/><polygon class="cls-12" points="756.66 152.11 732.7 164.09 759.32 177.78 797.07 154.56 756.66 152.11"/><polygon class="cls-13" points="592.35 150.61 618.49 129.91 694.75 142.98 685.76 154.15 670.78 166.13 592.35 150.61"/><polygon class="cls-14" points="694.75 142.98 696.66 152.79 670.78 166.13 694.75 142.98"/><polygon class="cls-15" points="685.49 145.57 619.58 134 600.38 148.57 668.61 160.96 685.49 145.57"/><line class="cls-16" x1="683.45" y1="149.11" x2="612.77" y2="136.86"/><line class="cls-16" x1="679.36" y1="153.2" x2="608.69" y2="140.94"/><line class="cls-16" x1="674.32" y1="157.42" x2="603.65" y2="145.16"/><line class="cls-16" x1="672.55" y1="141.76" x2="654.03" y2="159.6"/><line class="cls-16" x1="658.39" y1="139.72" x2="639.87" y2="156.87"/><line class="cls-16" x1="644.23" y1="137.26" x2="630.61" y2="149.79"/><line class="cls-16" x1="631.43" y1="135.22" x2="610.32" y2="152.11"/><polygon class="cls-12" points="677.93 156.87 670.78 166.13 654.03 173.07 651.22 190.31 627.75 185.44 633.15 168.64 662.07 149.11 677.93 156.87"/><polygon class="cls-12" points="651.22 190.31 654.03 173.07 645 171.22 628.7 185.53 651.22 190.31"/><polygon class="cls-13" points="698.02 160.14 710.82 172.67 723.35 159.32 710.55 155.51 698.02 160.14"/><polygon class="cls-15" points="698.02 160.14 709.19 150.75 714.9 151.02 723.35 159.32 710.96 157.69 698.02 160.14"/><polygon class="cls-13" points="712.59 150.91 712.11 157.84 710.15 157.84 711.02 150.83 712.59 150.91"/><polygon class="cls-17" points="731.06 147.07 764.84 132.6 797.88 143.66 762.29 158.61 731.06 147.07"/><polygon class="cls-18" points="742.49 151.29 747.72 142.98 751.13 145.16 756.3 140.94 759.84 141.76 757.66 145.16 762.29 145.16 763.11 137.26 767.06 137.94 767.06 142.98 772.1 143.53 772.1 139.72 775.23 138.81 777.27 143.53 781.63 142.98 787.5 148.02 762.29 158.61 742.49 151.29"/><polygon class="cls-7" points="747.65 153.2 751.13 145.16 755.21 147.48 753.44 151.29 760.12 151.29 760.12 147.07 762.29 145.16 765.29 149.79 770.6 149.11 769.24 147.07 772.78 145.16 776.18 147.07 781.63 142.98 789.77 147.07 762.29 158.61 747.65 153.2"/><polygon class="cls-19" points="797.88 143.66 787.99 160.14 766.26 173.51 760.93 164.09 762.29 157.52 797.88 143.66"/><polygon class="cls-20" points="731.06 147.07 739.96 164.09 766.26 173.51 762.29 157.52 731.06 147.07"/><polygon class="cls-18" points="663.29 125.08 677.32 116.57 723.35 122.97 708.1 134.78 663.29 125.08"/><polygon class="cls-6" points="663.29 125.08 708.1 132.6 710.27 134.78 708.1 139.42 658.39 132.25 663.29 125.08"/><polygon class="cls-7" points="708.1 132.6 723.35 122.97 723.35 129.82 708.1 139.42 708.1 135.9 708.1 132.6"/><polygon class="cls-8" points="695.98 117.62 697.07 125.26 707.01 120.43 707.01 114.39 695.98 117.62"/><polygon class="cls-5" points="697.07 125.26 683.72 124.15 683.72 113.29 697.07 118.7 697.07 125.26"/><polygon class="cls-21" points="627.75 25.87 648.11 18.79 757.66 34.32 747.65 40.85 627.75 25.87"/><polygon class="cls-6" points="627.75 25.87 747.65 37.58 747.65 73.05 739.96 125.26 630.61 110.15 627.75 25.87"/><polygon class="cls-8" points="747.65 37.58 757.66 34.32 753.85 118.2 739.96 125.26 747.65 37.58"/><polygon class="cls-13" points="641.64 38.4 737.24 43.47 731.06 115.89 639.87 101.08 641.64 38.4"/><polygon class="cls-21" points="637.42 102.4 640.85 98.88 645.46 98.08 731.51 110.7 731.06 115.89 637.42 102.4"/><polygon class="cls-5" points="645.46 98.08 649.13 38.8 641.64 38.4 637.42 102.4 645.46 98.08"/><polygon class="cls-22" points="692.86 68.08 686.34 66.19 683.41 73.92 692 84.57 706.43 76.84 709.87 67.39 703.34 69.97 707.29 60 700.94 63.61 701.28 52.27 696.64 59.14 692 49.52 691.14 57.26 680.84 51.07 683.93 58.46 673.8 56.91 679.47 62.24 670.71 65.84 676.37 67.05 669.85 73.74 675.34 73.4 672.77 81.47 677.06 79.41 677.06 87.14 679.98 83.02 684.45 87.14 679.98 90.23 672.08 90.23 684.27 94.19 689.86 87.66 678.78 76.84 680.84 65.5 689.86 61.2 697.67 67.9 694.24 76.49 687.02 71.86 692.86 68.08"/><polygon class="cls-23" points="729.79 7.99 748.81 2.18 767.92 9.44 778.45 25.87 771.01 45.76 774.64 52.65 759.21 64.46 752.85 61.73 749.77 54.29 743.77 55.38 739.96 50.1 731.51 52.47 724.44 49.02 715.02 28.27 723.35 23.06 729.79 7.99"/><polygon class="cls-9" points="723.35 23.06 738.69 46.66 746.74 48.03 752.13 52.84 771.01 45.76 774.64 52.65 760.3 65.55 752.85 61.73 749.77 54.29 743.77 55.38 739.96 50.1 731.51 52.47 723.35 50.11 715.02 28.27 723.35 23.06"/><polygon class="cls-9" points="729.79 7.99 741.96 20.52 753.4 23.06 767.56 29.82 778.45 25.87 770.1 7.99 759.57 5.81 748.81 0 729.79 7.99"/><polygon class="cls-24" points="748.81 0 741.96 20.52 767.56 29.82 770.1 7.99 748.81 0"/><polygon class="cls-7" points="729.79 7.99 741.96 20.52 767.56 29.82 778.45 25.87 776.14 32.04 767.2 34.32 739.05 24.33 728.03 12.11 729.79 7.99"/><polygon class="cls-6" points="741.96 20.52 739.05 24.33 767.2 34.32 767.56 29.82 741.96 20.52"/><polygon class="cls-6" points="748.81 32.32 737.24 26.43 735.51 33.68 748.81 32.32"/><polygon class="cls-6" points="756.03 34.95 767.56 37.71 764.55 44.3 756.03 34.95"/><polygon class="cls-8" points="739.96 39.89 750.95 39.63 757.66 47.75 754.76 48.57 749.77 42.3 739.96 42.58 739.96 39.89"/><polygon class="cls-18" points="723.35 50.11 731.61 45.94 738.69 46.66 752.13 52.84 757.66 57.01 760.3 65.55 751.76 62.82 749.77 55.38 743.77 56.47 739.96 51.19 731.51 53.56 723.35 50.11"/><polygon class="cls-5" points="729.16 50.29 732.7 48.57 736.24 50.29 731.52 51.29 729.16 50.29"/><polygon class="cls-5" points="752.76 57.47 755.39 58.1 756.66 61.64 753.31 60.92 752.76 57.47"/><polygon class="cls-5" points="739.96 51.19 744.23 49.21 747.9 50.89 749.77 55.38 743.77 56.47 739.96 51.19"/><polygon class="cls-8" points="768.56 49.93 761.79 53.47 762.75 56.47 769.47 51.84 768.56 49.93"/><polygon class="cls-8" points="720.81 31.23 722.8 30.5 726.89 37.04 723.85 37.88 720.81 31.23"/></g><g id="friend"><circle class="cls-25" cx="586.35" cy="300.37" r="11.55"/><circle class="cls-26" cx="586.35" cy="300.37" r="4.89"/><circle class="cls-25" cx="543.09" cy="277.19" r="11.55"/><circle class="cls-26" cx="543.09" cy="277.19" r="4.89"/><circle class="cls-25" cx="615.66" cy="266.79" r="11.55"/><circle class="cls-26" cx="615.66" cy="266.79" r="4.89"/><polygon class="cls-13" points="582.14 256.66 535.62 258.34 535.1 272.3 546.22 273.43 576.5 269.58 574.81 299.08 586.8 297.27 597.9 299.08 589.72 267.19 610.77 265.7 624.6 263.33 622.9 248.38 582.14 256.66"/><polygon class="cls-14" points="622.9 248.38 610.77 265.7 626.99 264.55 622.9 248.38"/><polygon class="cls-14" points="535.62 258.34 546.22 273.43 531.97 274.11 535.62 258.34"/><polygon class="cls-14" points="597.9 299.08 586.35 288.83 574.81 299.08 597.9 299.08"/><polygon class="cls-14" points="666.85 278.09 645.93 291.63 633.15 282.28 653.83 264.55 663.83 268.86 666.85 278.09"/><polygon class="cls-27" points="638.79 268.86 640.43 281.15 647.85 284.39 673.01 268.86 653.83 264.55 645.18 264.55 638.79 268.86"/><polygon class="cls-13" points="653.83 264.55 663.61 252.45 680.53 258.5 666.85 278.09 653.83 264.55"/><polygon class="cls-28" points="638.79 268.86 647.44 278.9 663.83 274.94 647.85 285.52 639.3 282.28 638.79 268.86"/><polygon class="cls-17" points="613.41 197.06 646.69 193.86 659 213.12 595.77 242.94 603.44 215.43 613.41 197.06"/><polygon class="cls-27" points="598.55 47.79 624.5 109.19 586.9 132.75 577.87 145.73 533.78 131.66 530.61 119.74 527.49 90.2 547.79 55.59 581.26 45.76 598.55 47.79"/><polygon class="cls-28" points="586.9 132.75 562.83 82.56 537.69 72.81 527.49 90.2 531.53 122 533.78 131.66 577.87 145.73 580.04 138.48 586.9 132.75"/><polygon class="cls-28" points="575.99 85.94 603.44 69.08 597.8 100.21 575.99 85.94"/><polygon class="cls-29" points="588.09 78.51 597.8 100.21 603.44 96.31 593.54 75.16 588.09 78.51"/><polygon class="cls-6" points="580.04 48.4 586.9 60.44 547.01 76.42 534.04 79.03 516.58 67.89 548.45 41.94 580.04 48.4"/><polygon class="cls-8" points="586.9 60.44 548.45 41.94 581.26 45.76 586.9 60.44"/><polygon class="cls-5" points="547.01 76.42 551.74 97.43 561.42 108.07 553.09 113.44 544.5 101.89 533.78 107.51 542.53 122 533.78 131.66 523.2 114.74 516.58 67.89 547.01 76.42"/><polygon class="cls-30" points="586.9 132.75 567.67 132.75 578.71 144.53 586.9 132.75"/><polygon class="cls-30" points="542.53 122 548.45 118.14 545.49 127.87 536.09 129.11 542.53 122"/><polygon class="cls-30" points="547.6 114.33 543.28 107.94 539 110.75 547.6 114.33"/><polygon class="cls-6" points="597.8 100.21 591.03 117.48 615.85 128.24 617.92 101.67 603.44 96.31 597.8 100.21"/><polygon class="cls-5" points="597.8 100.21 603.44 96.31 603.44 102.3 597.8 100.21"/><polygon class="cls-5" points="575.99 85.94 585.77 73.72 588.09 78.51 575.99 85.94"/><polygon class="cls-5" points="593.54 75.16 591.79 70.14 603.44 69.08 593.54 75.16"/><polygon class="cls-31" points="596.96 109.27 606.08 107.94 611.72 101.64 613.41 103.33 607.2 110.1 596.96 111.7 596.96 109.27"/><polygon class="cls-19" points="533.78 131.66 578.7 144.53 597.8 156.23 609.07 182.07 610.77 199.17 579.88 236.88 536.09 220.18 533.78 131.66"/><polygon class="cls-12" points="582.7 177.31 604.48 166.81 613.41 197.06 582.7 177.31"/><polygon class="cls-20" points="578.71 144.53 600.62 150.8 595.35 160.27 570.73 153.06 578.71 144.53"/><polygon class="cls-17" points="600.62 150.8 622.9 162.93 629.01 172.65 628.23 185.53 582.7 177.31 600.62 150.8"/><polygon class="cls-32" points="622.9 162.93 642.93 151.62 653.83 151.65 659 160.11 628.23 185.53 622.9 162.93"/><polygon class="cls-20" points="613.41 197.06 609.07 182.07 579.88 236.88 595.77 242.94 613.41 197.06"/><polygon class="cls-20" points="659 213.12 653.83 264.55 638.79 268.86 619.6 231.7 659 213.12"/><polygon class="cls-15" points="551.74 128.69 458.2 105.42 438.74 115.83 540.13 147.04 551.74 128.69"/><polygon class="cls-22" points="539 143.66 570.73 209.42 589.72 267.19 519.4 246.09 438.74 115.83 539 143.66"/><polygon class="cls-14" points="551.74 128.69 595.77 242.94 659 213.12 656.61 236.9 589.72 267.19 539 143.66 551.74 128.69"/><polygon class="cls-30" points="674.46 148.67 677.93 156.87 662.07 155.78 674.46 148.67"/><polygon class="cls-27" points="642.93 151.62 654.38 138.66 674.46 148.67 659 160.11 642.93 151.62"/><circle class="cls-33" cx="585.99" cy="90.38" r="2.61"/><circle class="cls-33" cx="602.57" cy="81.24" r="2.61"/></g><g id="desk-2" data-name="desk"><polygon class="cls-6" points="117.87 323.98 164 289.29 120.98 285.11 117.87 323.98"/><polygon class="cls-8" points="94.02 318.62 117.87 323.98 126.68 292.38 195.11 304.55 201.33 337.46 229.3 343.68 233.47 302.6 229.3 277.1 98.17 255.41 94.02 318.62"/><polygon class="cls-7" points="229.3 343.68 251.61 327.61 254.2 292.4 351.22 222.15 353.71 240.42 374.21 229.09 369.42 167.45 229.3 277.1 229.3 343.68"/><polygon class="cls-9" points="71.73 237.39 227.25 267.53 376.61 150.56 233.98 131.38 71.73 237.39"/><polygon class="cls-18" points="227.25 264.42 224.17 273.18 229.3 285.11 377.61 167.45 376.61 150.56 298.52 208.91 227.25 264.42"/><polygon class="cls-7" points="227.25 264.42 229.3 285.11 76.92 258.31 71.73 237.39 227.25 264.42"/><polygon class="cls-12" points="89.75 225.62 107.17 236.7 138.43 230.3 132.9 214.2 116.01 208.51 89.75 225.62"/><polygon class="cls-12" points="163.74 196.12 150.04 209.83 200.07 218.84 218.69 214.04 267.16 178.58 218.69 167.45 163.74 196.12"/><polygon class="cls-12" points="267.16 150.56 287.46 157.76 311.22 152.09 293.86 143.25 273.06 145.15 267.16 150.56"/><polygon class="cls-12" points="178.09 230.39 148.45 243.23 151.56 251.26 198.52 259.43 221.41 239.14 178.09 230.39"/><polygon class="cls-14" points="218.69 214.04 216.88 224.16 256.27 232.47 235.88 220.78 218.69 214.04"/><polygon class="cls-13" points="218.69 214.04 272.86 169.89 311.01 183.15 256.27 232.47 218.69 214.04"/><polygon class="cls-34" points="230.87 211.89 274.94 175.99 279.21 177.28 235.15 213.57 230.87 211.89"/><polygon class="cls-34" points="281.29 178.58 237.35 215 241.37 216.68 285.3 180.01 281.29 178.58"/><polygon class="cls-34" points="244.22 217.59 288.02 181.04 292.56 182.6 248.24 219.79 244.22 217.59"/><polygon class="cls-34" points="250.96 220.83 295.67 183.25 300.21 184.67 256.01 223.42 250.96 220.83"/><polygon class="cls-13" points="238 204.24 265.86 217.2 267.16 215.9 239.43 202.56 238 204.24"/><polygon class="cls-13" points="246.3 196.68 267.03 205.92 268.3 204.6 247.68 194.96 246.3 196.68"/><polygon class="cls-13" points="254.59 189.41 282.75 201.73 284.01 200.4 255.98 187.7 254.59 189.41"/><polygon class="cls-13" points="263.5 182.12 291.73 194.26 292.99 192.93 264.88 180.39 263.5 182.12"/><polygon class="cls-12" points="317.96 193.81 300.21 192.56 292.99 185.87 284.54 183.95 303.7 175.94 336.69 180.39 341.19 196.34 317.96 193.81"/><polygon class="cls-13" points="340.25 154.05 322.08 149.81 323.92 158.51 329.54 164.32 340.25 160.95 340.25 154.05"/><polygon class="cls-34" points="322.08 149.81 311.22 157.07 322.08 165.71 329.54 164.32 322.08 149.81"/><polygon class="cls-13" points="325.74 154.8 316.18 161.02 317.7 162.23 326.34 157.07 325.74 154.8"/><polygon class="cls-34" points="99.25 224.67 115.12 217.29 132.9 225.2 114.38 232.69 99.25 224.67"/><polygon class="cls-14" points="116.01 208.51 114.38 224.67 98.34 200.72 108.95 204.06 116.01 208.51"/><polygon class="cls-13" points="69.66 214.2 81.52 214.2 82.3 208.26 93.38 208.51 93.38 203.05 80.76 207.11 69.66 214.2"/><polygon class="cls-13" points="114.38 188.51 123.02 187.8 121.36 182.22 129.25 181.87 128.34 175.94 119.67 182.22 114.38 188.51"/><polygon class="cls-34" points="81.21 193.17 58.11 209.33 69.66 214.2 98.34 200.72 90.43 195.9 81.21 193.17"/><polygon class="cls-34" points="111.62 190.99 128.34 175.94 117.39 171.08 93.38 185.06 111.62 190.99"/><polygon class="cls-13" points="83.65 174.73 133.5 197.08 133.28 199.66 134.83 200.72 138.37 210.4 116.01 208.51 82.13 191.81 76.05 183.29 83.65 174.73"/><polygon class="cls-34" points="93.38 179.09 85.17 164.19 69.66 159.54 79.78 179.09 93.38 179.09"/><polygon class="cls-13" points="76.05 183.29 116.01 208.51 81.21 193.17 76.05 183.29"/><polygon class="cls-14" points="133.5 197.08 128.34 200.03 119.67 199.75 119.67 203.15 130.16 203.68 134.83 200.72 133.5 197.08"/><polygon class="cls-14" points="111.41 197.08 82.63 183.95 83.39 187.93 110.86 200.38 111.41 197.08"/><polygon class="cls-13" points="103.31 191.75 102.29 198.24 100.37 197.08 100.98 190.03 103.31 191.75"/><polygon class="cls-13" points="93.38 187.19 92.72 193.81 90.1 192.17 91.14 185.87 93.38 187.19"/><polygon class="cls-19" points="302.41 127.96 311.01 127.96 309.72 141.56 300.89 145.15 300.21 140.47 306.99 138.49 305.91 132.22 300.21 132.22 302.41 127.96"/><polygon class="cls-17" points="272.52 128.73 286.69 123.33 302.41 127.96 287.46 135.64 272.52 128.73"/><polygon class="cls-6" points="278.23 131.38 287.46 127.96 297.23 130.63 287.46 135.64 278.23 131.38"/><polygon class="cls-32" points="302.41 127.96 301.76 150.56 287.46 157.76 285.3 146.35 287.46 134.6 302.41 127.96"/><polygon class="cls-19" points="272.52 128.73 273.21 149.81 287.46 157.76 287.46 134.6 272.52 128.73"/><polygon class="cls-21" points="287.73 117.67 295.67 107.82 290.75 103.09 286.3 104.06 286.51 108.1 281.85 114.39 287.73 117.67"/><polygon class="cls-7" points="286.51 108.1 290.75 103.09 285.99 98.52 281.85 102.64 286.51 108.1"/><polygon class="cls-18" points="208.53 205.62 238.13 181.25 208.53 171.83 171.26 192.2 208.53 205.62"/><polygon class="cls-7" points="238.13 181.25 238.13 187.7 209.57 212.53 204.7 206.94 208.53 203.55 238.13 181.25"/><polygon class="cls-6" points="209.57 212.53 171 205.05 171.26 192.2 208.53 203.55 209.57 212.53"/><polygon class="cls-8" points="215.4 171.32 215.4 187.7 205.78 194.71 201.67 176.69 215.4 171.32"/><polygon class="cls-6" points="205.78 194.71 195.4 192.2 191.51 177.13 201.67 176.69 205.78 194.71"/><polygon class="cls-21" points="138.43 105.18 219.99 67.44 240.72 67.44 151.56 112.49 138.43 105.18"/><polygon class="cls-6" points="138.43 105.18 151.56 110.42 162.97 140.65 171.26 198.99 154.84 194.47 138.43 105.18"/><polygon class="cls-8" points="151.56 110.42 240.72 67.44 255.24 152.09 171.26 198.99 151.56 110.42"/><polygon class="cls-19" points="232.43 82.94 224.94 84.56 165.75 116.08 178.63 178.93 181.63 183.02 240.72 148.87 232.43 82.94"/><polygon class="cls-6" points="233.81 79.84 243.83 148.87 236.56 149.81 233.81 147.33 224.94 84.56 233.81 79.84"/><polygon class="cls-21" points="243.83 148.87 179.85 184.91 178.63 178.93 233.81 147.33 243.83 148.87"/><path class="cls-35" d="M217.91,124.26l-12.62,4,6.56,2.6-2.14,2.1L205,131.24l11,11.14-8.77,2.16-2.87-3.41-1.66,6.26-8,7.14,4.58-19.62-3.62,5.59-3,.64,4.95-8.29-10.46,9.06-3.72-7.17,3.23-7.27,10.81-6.39-5.1,7.65,5.58-1.21.77-2.63-3,1.75,1.91-3.89,3.5-2.07,2.41,3.82,3.67-4.24-5.66-1.61,11.11-6.57,3.7,2.85Zm-23.58-4.13,1.81-8,6.05,3.72-2.12,1.29L197.83,116l-.78,2.72Zm-4,24.21-3.22,10.46,5.22-3.67-.78,3.67-8.2,4.86,4.83-15.32Zm25.46-15.61,9.68,6.91-8.55,4.06-1.48-1.21,5.62-2.85-6.18-5.27Z"/><polygon class="cls-14" points="191.51 80.62 187.33 49.07 223.49 24.88 231.43 61.91 191.51 80.62"/><polygon class="cls-13" points="191.51 80.62 200.72 53.27 233.35 27.99 265.61 76.11 238.13 68.75 191.51 80.62"/><polygon class="cls-19" points="221.41 44.06 230.35 52.1 236.56 44.06 232.47 34.47 221.41 44.06"/><polygon class="cls-17" points="230.35 52.1 234.39 61.91 228.56 61.91 230.35 52.1"/><polygon class="cls-34" points="201.56 78.06 207.32 55.05 232.47 36.55 251.48 72.33 265.61 76.11 234.39 25.92 198.64 53.27 191.51 80.62 201.56 78.06"/><polygon class="cls-19" points="150.04 225.59 184.78 212.36 214.84 225.1 182.19 245.5 150.04 225.59"/><polygon class="cls-2" points="158.49 230.82 161.71 225.62 167.41 225.62 173.37 219.78 180.63 222.97 185.55 216.76 192.29 221.73 200.07 222.97 202.66 226.65 208.14 229.29 182.19 245.5 158.49 230.82"/><polygon class="cls-21" points="158.49 230.82 166.89 229.36 173.11 233.22 178.29 231.13 183.31 235.04 188.14 227.9 194.88 227.9 198.25 231.13 208.14 229.29 182.19 245.5 158.49 230.82"/><polygon class="cls-21" points="180.63 222.97 188.14 227.9 178.29 231.13 180.63 222.97"/><polygon class="cls-21" points="167.41 225.62 166.89 229.36 178.29 231.13 167.41 225.62"/><polygon class="cls-21" points="200.07 222.97 194.88 227.9 192.29 221.73 200.07 222.97"/><polygon class="cls-17" points="150.04 225.59 157.45 245.51 182.44 256.77 184.26 249.26 182.19 243.43 150.04 225.59"/><polygon class="cls-34" points="182.19 243.43 214.84 225.1 210.87 242.55 182.44 256.77 182.19 243.43"/></g><g id="intj"><polygon class="cls-6" points="336.1 212.99 339.5 237.39 350 235.68 350 210.93 336.1 212.99"/><polygon class="cls-36" points="399.47 302.6 390.81 292.38 399.92 289.29 406.56 295.94 399.47 302.6"/><polygon class="cls-2" points="298.52 197.67 365.93 186.18 380.49 198.94 313.3 210.81 298.52 197.67"/><polygon class="cls-21" points="380.49 198.94 313.3 208.73 311.22 214.95 313.3 220.73 380.49 210.93 380.49 198.94"/><polygon class="cls-8" points="313.3 208.73 298.52 197.67 298.52 208.73 313.3 220.73 313.3 208.73"/><circle class="cls-25" cx="424.07" cy="308" r="10.61"/><circle class="cls-26" cx="424.07" cy="308" r="4.5"/><circle class="cls-25" cx="361.43" cy="302.99" r="10.61"/><circle class="cls-26" cx="361.43" cy="302.99" r="4.5"/><polygon class="cls-36" points="396.57 280.76 433.78 294.44 433.78 303.72 420.09 305.91 396.3 291.67 378.73 298.06 365.89 303.51 352.09 297.96 352.09 289.12 396.57 280.76"/><polygon class="cls-2" points="493.74 114.26 411.67 90.2 385.95 98.52 469.33 123.33 493.74 114.26"/><polygon class="cls-8" points="469.33 121.26 402.97 100.76 378.97 236.52 441.85 264.31 469.33 121.26"/><polygon class="cls-7" points="469.33 121.26 493.74 114.26 454.46 279.23 442.51 274.61 441.85 264.31 469.33 121.26"/><polygon class="cls-2" points="376.61 279.23 441.85 264.31 387.94 237.39 322.08 243.23 376.61 279.23"/><polygon class="cls-8" points="378.73 298.06 381.51 286.87 376.61 277.16 322.08 243.23 320.92 261.05 378.73 298.06"/><polygon class="cls-37" points="313.3 186.18 300.85 192.32 298.52 188.73 306.67 180.4 313.3 186.18"/><polygon class="cls-19" points="326.77 287.21 305.78 307.14 345.43 305.06 337.66 293.66 326.77 287.21"/><polygon class="cls-17" points="340.25 298.06 305.78 307.14 345.43 305.06 340.25 298.06"/><polygon class="cls-19" points="345.78 217.03 372.91 242.6 376.61 277.16 408.6 262.07 411.67 254.35 390.81 237.39 345.78 217.03"/><polygon class="cls-17" points="376.61 150.56 342.32 171.41 347.51 184.54 356.26 194.89 376.61 150.56"/><polygon class="cls-32" points="342.32 171.41 316.75 171.41 312.98 178.69 313.3 186.18 356.26 194.89 342.32 171.41"/><polygon class="cls-19" points="376.61 150.56 350 208.54 413.1 250.53 448.95 176.01 422.01 163.03 376.61 150.56"/><polygon class="cls-32" points="391.07 178.82 398.64 206.24 422.01 160.95 384.92 156.13 366.54 188.69 391.07 178.82"/><polygon class="cls-22" points="443.65 135.16 437.25 129.88 426.23 138.02 423.8 143.07 444.04 154.59 443.65 135.16"/><polygon class="cls-38" points="364.99 66.63 360.07 85.32 352.4 147.31 380.49 154.8 389.56 167.45 417.25 159.82 426.35 137.57 436.09 137.87 444.88 123.07 433.21 113.64 422.28 124.63 417.88 121.86 419.98 104.79 432.29 85.67 412.05 65.64 384.56 68.33 386.7 55.14 364.99 66.63"/><polygon class="cls-37" points="431.31 85.62 406.56 104.86 391.37 142.76 380.49 154.8 385.95 163.63 391.07 178.82 422.01 160.95 426.23 138.02 421.43 137.28 421.83 125.63 417.25 122.37 419.24 104.65 431.31 85.62"/><polygon class="cls-37" points="365.34 96.37 406.56 104.86 382.75 113.6 377.98 126.36 373.69 108.09 365.34 96.37"/><polygon class="cls-37" points="393.54 137.35 369.15 141.91 357.81 126.48 372.9 131.94 393.54 137.35"/><polygon class="cls-14" points="393.54 137.35 384.83 132.83 377.98 126.36 369.4 124.26 363.73 126.58 357.81 126.48 366.95 135.81 377.2 138.49 393.54 137.35"/><polygon class="cls-39" points="383.82 100.19 377.98 126.36 369.4 124.26 376.23 98.52 383.82 100.19"/><polygon class="cls-14" points="406.56 104.86 365.34 96.37 366.13 83.37 406.56 104.86"/><polygon class="cls-22" points="369.42 124.22 373.01 128.73 377.98 126.36 369.42 124.22"/><polygon class="cls-40" points="438.69 122.27 432.8 119.79 428.27 127.96 438.69 122.27"/><polygon class="cls-40" points="380.49 154.8 398.38 157.08 391.07 178.82 380.49 154.8"/><polygon class="cls-40" points="426.82 137.59 421.43 137.28 425.07 144.34 426.82 137.59"/><polygon class="cls-13" points="365.73 66.77 364.55 57.3 357.81 46.55 360.07 85.32 365.73 66.77"/><polygon class="cls-13" points="431.31 85.62 448.35 83.85 473.35 87.1 454.46 117.67 434.54 111.88 419.24 104.65 431.31 85.62"/><polygon class="cls-14" points="365.73 66.77 385.87 56.77 396.92 53.01 410.29 44.63 357.81 46.55 365.73 66.77"/><polygon class="cls-14" points="431.31 85.62 411.67 66.47 431.14 63.09 451.16 62.31 473.35 87.1 431.31 85.62"/><polygon class="cls-13" points="410.29 44.63 441.85 43.48 451.16 62.31 411.67 66.47 383.77 69.17 385.87 56.77 410.29 44.63"/><polygon class="cls-14" points="419.24 104.65 454.46 117.67 443.65 135.16 436.09 137.87 444.23 123.18 433.07 114.38 421.83 125.63 417.25 122.37 419.24 104.65"/><polygon class="cls-5" points="385.52 110.76 391.1 110.53 396.11 113.33 394.29 115.47 390.53 113.35 385.57 113.27 385.52 110.76"/><polygon class="cls-5" points="362.32 104.28 367.9 104.06 372.91 106.85 371.09 108.99 367.34 106.87 362.37 106.78 362.32 104.28"/><polygon class="cls-17" points="391.07 178.82 366.54 188.69 356.58 212.92 385.95 232.47 398.64 206.24 391.07 178.82"/><polygon class="cls-32" points="383.22 194.89 377.47 196.71 378.79 202.98 385.4 201.66 383.22 194.89"/><polygon class="cls-20" points="351.06 206.24 363.58 212.99 372.58 218.75 382.87 223.38 417.25 241.91 411.67 254.35 376.61 234.49 367.6 228.54 358.08 223.99 345.78 217.03 351.06 206.24"/><path class="cls-32" d="M358.08,224l18.53,10.5,6.25-11.11L363.58,213Zm7.91-5.74,11.07,5.88-2.85,5-10.61-6Z"/><polygon class="cls-17" points="345.78 217.03 317.96 247.78 326.77 287.21 345.43 305.06 358.08 257.95 372.91 242.6 345.78 217.03"/><polygon class="cls-32" points="376.61 277.16 320.92 261.05 320.92 234.49 363.42 233.65 373.94 242.6 376.61 277.16"/><polygon class="cls-19" points="320.92 234.49 298.52 233.5 299.82 250.53 303.7 264.31 320.92 261.05 320.92 234.49"/><polygon class="cls-17" points="298.52 233.5 290.75 251.6 303.7 264.31 298.52 233.5"/><polygon class="cls-38" points="316.75 171.41 303.7 164.32 300.08 172.1 297.23 181.82 313.3 186.18 316.75 171.41"/><polygon class="cls-37" points="303.7 164.32 289.01 175.5 284.01 184.39 297.23 181.82 303.7 164.32"/><polygon class="cls-21" points="376.61 277.16 441.85 264.31 454.46 279.23 378.73 298.06 376.61 277.16"/><polygon class="cls-6" points="419.57 251.6 408.6 299.04 399.47 302.6 401.07 254.35 419.57 251.6"/><polygon class="cls-2" points="438.69 228.92 459.13 237.39 359.47 249.95 337.83 234.16 425.99 223.74 438.69 228.92"/><polygon class="cls-17" points="448.95 176.01 438.69 228.92 422.01 219.1 416.46 210.93 426.82 172.73 448.95 176.01"/><polygon class="cls-20" points="416.46 210.93 394.27 215.27 392.93 224.16 396.11 230.52 438.69 228.92 416.46 210.93"/><polygon class="cls-8" points="359.47 248.91 359.79 254.06 358.08 263.13 337.83 247.89 337.83 234.16 359.47 248.91"/><polygon class="cls-18" points="359.47 248.91 459.13 237.39 457.4 248.24 358.08 263.13 359.47 248.91"/><polygon class="cls-38" points="394.27 215.27 381.96 210.93 380.49 222.31 382.13 228.92 396.11 230.52 394.27 215.27"/><polygon class="cls-37" points="381.96 210.93 367.62 230.64 382.13 228.92 381.96 210.93"/><polygon class="cls-20" points="422.01 160.95 448.95 176.01 433.92 178.82 417.46 169.76 422.01 160.95"/><polygon class="cls-8" points="433.78 294.44 420.09 305.91 433.78 303.72 433.78 294.44"/><polygon class="cls-8" points="365.89 303.51 352.09 289.12 352.09 297.96 365.89 303.51"/></g><g id="stool"><polygon class="cls-7" points="826.03 302.7 804.1 296.39 828.55 285.34 826.03 302.7"/><polygon class="cls-23" points="706.04 269.52 790.57 242.84 843.07 259.52 762.84 300.39 706.04 269.52"/><polygon class="cls-7" points="706.04 269.52 702.31 294.02 765.53 321.69 767.28 305.49 762.34 296.39 706.04 269.52"/><polygon class="cls-18" points="843.07 259.52 845.86 296.68 826.03 302.7 822.59 292.3 783.92 305.21 784.16 315.89 765.53 321.69 762.34 296.39 843.07 259.52"/><polygon class="cls-15" points="763.63 255.51 751.99 285.34 777.51 289.57 785.57 292.4 796.15 259.52 763.63 255.51"/><polygon class="cls-13" points="777.51 289.57 788.07 284.63 785.57 292.4 777.51 289.57"/><polygon class="cls-19" points="728.18 274.91 740.64 266.58 749.97 268.94 738.55 277.33 728.18 274.91"/><line class="cls-41" x1="755.66" y1="281.19" x2="777.51" y2="284.64"/><line class="cls-41" x1="758.76" y1="278.5" x2="778.66" y2="281.94"/><polygon class="cls-14" points="764.27 274.86 784.84 278.28 787.35 270.43 766.69 267.51 764.27 274.86"/><polygon class="cls-14" points="784.42 260.71 790.29 261.31 788.07 267.51 782.19 266.69 784.42 260.71"/><polygon class="cls-32" points="750.45 255.51 778.28 262.92 751.99 285.34 720.51 276.43 750.45 255.51"/><line class="cls-42" x1="751.01" y1="259.52" x2="768.71" y2="264.23"/><line class="cls-42" x1="747.92" y1="261.87" x2="765.62" y2="266.58"/><line class="cls-42" x1="744.08" y1="264.23" x2="761.78" y2="268.93"/><polygon class="cls-19" points="740.64 278.05 746.93 273.34 756.77 275.69 750.49 281.19 740.64 278.05"/></g></svg>