<svg id="illustration" xmlns="http://www.w3.org/2000/svg" viewBox="0 0 900 350"><defs><style>.cls-1{fill:#fff0e8;}.cls-2,.cls-38{fill:#ececeb;}.cls-12,.cls-3{fill:#c4c4c4;}.cls-10,.cls-4{fill:#cececd;}.cls-5,.cls-8{fill:#9da1a2;}.cls-10,.cls-11,.cls-12,.cls-13,.cls-22,.cls-31,.cls-32,.cls-33,.cls-34,.cls-36,.cls-37,.cls-38,.cls-39,.cls-41,.cls-42,.cls-43,.cls-44,.cls-45,.cls-46,.cls-47,.cls-48,.cls-49,.cls-5,.cls-50,.cls-51{fill-rule:evenodd;}.cls-11,.cls-6{fill:#fff;}.cls-39,.cls-7{fill:#8f8f8f;}.cls-31,.cls-9{fill:#a3a3a3;}.cls-13,.cls-27{fill:#dddddc;}.cls-14,.cls-33{fill:#6f7173;}.cls-15,.cls-42{fill:#9075a0;}.cls-16,.cls-22{fill:#785d88;}.cls-17,.cls-36{fill:#a688ba;}.cls-18,.cls-32{fill:#4f5253;}.cls-19,.cls-51{fill:#d1a1b8;}.cls-20{fill:#737373;}.cls-21,.cls-34{fill:#858686;}.cls-23,.cls-48{fill:#734d60;}.cls-24,.cls-46{fill:#96637c;}.cls-25,.cls-47{fill:#b3889d;}.cls-26{fill:#594165;}.cls-28,.cls-30,.cls-37,.cls-41{fill:#2b2b2b;}.cls-28{opacity:0.2;}.cls-29,.cls-40{fill:none;stroke-miterlimit:10;}.cls-29{stroke:#9da1a2;}.cls-30,.cls-41,.cls-50{opacity:0.1;}.cls-35,.cls-49{fill:#543042;}.cls-37{opacity:0.11;}.cls-40{stroke:#785d88;}.cls-43{fill:#c3987b;}.cls-44{fill:#dfbda5;}.cls-45{fill:#8b6651;}.cls-50,.cls-52{fill:#474747;}</style></defs><title>analysts_INTP_scene_med_strengths</title><g id="city"><g id="Layer_13" data-name="Layer 13"><polygon class="cls-1" points="50.15 17 288 43.65 478.33 0 731.83 49.95 868 19 818.88 285.67 0 285.67 50.15 17"/></g><g id="buildings"><polygon class="cls-2" points="50.15 17 288 43.65 478.33 0 731.83 49.95 868 19 818.88 285.67 0 285.67 50.15 17"/><polygon class="cls-2" points="425.88 12.03 428.38 166.31 372.49 170 392.99 19.57 425.88 12.03"/><polygon class="cls-3" points="705 255.04 705.27 44.72 680.84 39.91 675.36 257.2 705 255.04"/><polygon class="cls-3" points="425.88 12.03 425 19 421 173.79 457.5 177.49 478.33 0 425.88 12.03"/><polygon class="cls-4" points="427.44 30.45 386.33 25.71 386.33 30.45 427.44 35.14 427.44 30.45"/><polygon class="cls-4" points="427.44 42.45 386.33 37.71 386.33 42.45 427.44 47.14 427.44 42.45"/><polygon class="cls-5" points="445.12 15.62 444.41 24.29 447.19 23.63 447.94 14.94 445.12 15.62"/><polygon class="cls-5" points="454.94 13.3 454.22 21.98 457 21.31 457.75 12.63 454.94 13.3"/><polygon class="cls-5" points="463.56 11.12 462.84 19.79 465.63 19.13 466.38 10.44 463.56 11.12"/><polygon class="cls-4" points="101.73 149.46 215.72 125.66 215.29 134.02 100.83 157.67 101.73 149.46"/><polygon class="cls-4" points="101.73 168.46 215.72 144.66 215.29 153.02 100.83 176.67 101.73 168.46"/><polygon class="cls-4" points="101.73 188.46 215.72 163.66 215.29 171.02 100.83 196.67 101.73 188.46"/><polygon class="cls-4" points="101.73 201.46 215.72 175.66 209.5 220.5 97 235.5 101.73 201.46"/><polygon class="cls-4" points="150 38 135.33 147 138.67 146.67 154.33 34.67 150 38"/><polygon class="cls-4" points="168.03 285.67 168.25 259.75 137.06 264.96 136.56 276.17 136.98 285.67 168.03 285.67"/><polygon class="cls-2" points="136.98 285.67 138.75 266.75 110.82 259.75 108.85 285.67 136.98 285.67"/><polygon class="cls-6" points="168.25 259.75 138.75 266.75 110.82 259.75 127.64 247.63 168.25 259.75"/></g><g id="building"><polygon class="cls-3" points="810.42 32.09 868 19 866.03 29.7 863.58 37.33 863.22 44.94 861.4 54.85 858.92 62.92 858.59 70.1 818.88 285.67 808.5 285.67 810.92 130 802.61 79.27 810.42 32.09"/><polygon class="cls-2" points="810.42 32.09 804.61 79.27 755.96 79.06 701.5 67 705.25 44.72 731.83 49.95 810.42 32.09"/><polygon class="cls-4" points="804.61 79.27 814.92 130 746.17 125.73 708.69 113.78 701.5 67 804.61 79.27"/><polygon class="cls-2" points="708.69 113.78 698 285.67 808.5 285.67 814.92 130 708.69 113.78"/><polygon class="cls-7" points="823 39.75 820.75 55.5 863.22 44.94 864.12 40.05 863.17 38.92 864.92 35.71 866.03 29.7 823 39.75"/><polygon class="cls-7" points="861.4 54.85 819 64.75 816.75 80.5 858.59 70.1 859.5 65.15 858.92 62.92 860.3 60.81 861.4 54.85"/><polygon class="cls-6" points="864.92 35.71 828 44 827.25 48.67 864.12 40.05 864.92 35.71"/><polygon class="cls-6" points="860.3 60.81 823.83 69 823.17 73.75 859.5 65.15 860.3 60.81"/><polygon class="cls-7" points="838.58 39.67 837.21 47.67 840.58 46.67 842 38.92 838.58 39.67"/><polygon class="cls-7" points="851.58 36.75 850.21 44.75 853.58 43.75 855 36 851.58 36.75"/><polygon class="cls-7" points="834.5 64.58 833.13 72.58 836.5 71.58 837.92 63.83 834.5 64.58"/><polygon class="cls-7" points="847.5 61.67 846.13 69.67 849.5 68.67 850.92 60.92 847.5 61.67"/><polygon class="cls-8" points="827.1 91.15 825.99 96.3 855.2 88.5 856.08 83.71 827.1 91.15"/><polygon class="cls-8" points="828.16 104.01 827.05 109.15 852.65 102.32 853.54 97.49 828.16 104.01"/><polygon class="cls-3" points="839.67 86.17 837.67 96.17 843.5 94.67 845.5 84 839.67 86.17"/><polygon class="cls-3" points="841.33 98.67 839.33 108.67 845.17 107.17 847.17 96.5 841.33 98.67"/><polygon class="cls-3" points="796.17 72.17 785.67 70.92 786 68.33 796.5 69.5 796.17 72.17"/><polygon class="cls-3" points="781 70.5 770.5 69.25 770.83 66.67 781.33 67.83 781 70.5"/><polygon class="cls-3" points="765.75 68.75 755.25 67.5 755.58 64.92 766.08 66.08 765.75 68.75"/><polygon class="cls-3" points="750.5 67 740 65.75 740.33 63.17 750.83 64.33 750.5 67"/><polygon class="cls-3" points="764.28 153.91 753.84 152.29 754.26 149.72 764.71 151.25 764.28 153.91"/><polygon class="cls-3" points="749.11 151.63 738.65 150.02 739.08 147.45 749.53 148.98 749.11 151.63"/><polygon class="cls-3" points="765.72 146.08 755.27 144.47 755.69 141.9 766.14 143.43 765.72 146.08"/><polygon class="cls-3" points="750.54 143.81 740.09 142.2 740.51 139.63 750.96 141.16 750.54 143.81"/><polygon class="cls-3" points="735.17 65.25 724.67 64 725 61.42 735.5 62.58 735.17 65.25"/><polygon class="cls-3" points="720.17 63.58 709.67 62.33 710 59.75 720.5 60.92 720.17 63.58"/><polygon class="cls-3" points="797.5 64 787 62.75 787.33 60.17 797.83 61.33 797.5 64"/><polygon class="cls-3" points="782.33 62.33 771.83 61.08 772.17 58.5 782.67 59.67 782.33 62.33"/><polygon class="cls-3" points="767.08 60.58 756.58 59.33 756.92 56.75 767.42 57.92 767.08 60.58"/><polygon class="cls-3" points="798.33 55 787.83 53.75 788.17 51.17 798.67 52.33 798.33 55"/><polygon class="cls-3" points="799.67 46.5 789.17 45.25 789.5 42.67 800 43.83 799.67 46.5"/><polygon class="cls-3" points="783.17 53.33 772.67 52.08 773 49.5 783.5 50.67 783.17 53.33"/><polygon class="cls-3" points="767.92 51.58 757.42 50.33 757.75 47.75 768.25 48.92 767.92 51.58"/><polygon class="cls-3" points="751.83 58.83 741.33 57.58 741.67 55 752.17 56.17 751.83 58.83"/><polygon class="cls-3" points="736.5 57.08 726 55.83 726.33 53.25 736.83 54.42 736.5 57.08"/><polygon class="cls-3" points="721.5 55.42 711 54.17 711.33 51.58 721.83 52.75 721.5 55.42"/><polygon class="cls-4" points="705.56 163.57 812.74 179.68 812.74 186.43 705.17 170.31 705.56 163.57"/><polygon class="cls-4" points="706.45 149.82 813.44 165.81 813.16 172.67 706 156.95 706.45 149.82"/><polygon class="cls-6" points="795.79 88.47 798.59 88.87 801.39 101.93 798.39 101.47 795.79 88.47"/><polygon class="cls-6" points="799.52 105.4 802.33 105.8 805.13 118.87 802.13 118.4 799.52 105.4"/><polygon class="cls-6" points="788.29 87.63 791.09 88.03 793.89 101.1 790.89 100.63 788.29 87.63"/><polygon class="cls-6" points="792.02 104.57 794.83 104.97 797.63 118.03 794.63 117.57 792.02 104.57"/><polygon class="cls-6" points="780.42 86.63 783.22 87.03 786.02 100.1 783.02 99.63 780.42 86.63"/><polygon class="cls-6" points="784.15 103.57 786.95 103.97 789.75 117.03 786.75 116.57 784.15 103.57"/><polygon class="cls-9" points="728.21 83.71 768.25 87.97 774.4 95.72 777.75 113.25 729 106 728.21 83.71"/><polygon class="cls-7" points="729 106 774.4 95.72 772.5 85.75 724.25 79 729 106"/><polygon class="cls-6" points="733.26 99.53 743.84 97.2 744.19 98.58 733.62 101.01 733.26 99.53"/><polygon class="cls-6" points="746.6 96.51 757.18 94.18 757.53 95.56 746.96 97.99 746.6 96.51"/><polygon class="cls-6" points="760.35 93.45 770.93 91.12 771.27 92.5 760.7 94.93 760.35 93.45"/><polygon class="cls-6" points="711 183.5 721.63 185.08 720.5 196.33 708.55 196.33 711 183.5"/><polygon class="cls-6" points="723.5 196.75 724.63 185.5 735.63 187.25 734.63 198.63 723.5 196.75"/></g><g id="building-2" data-name="building"><polygon class="cls-2" points="184.83 32.09 161.28 285.67 274.23 285.67 288 43.65 184.83 32.09"/><polygon class="cls-3" points="288 43.65 341.59 31.36 362.67 29.81 377.65 23.09 392.99 19.57 371.47 285.67 268.23 285.67 288 43.65"/><polygon class="cls-10" points="131.44 207.33 184.62 220.5 285.67 256.67 283 285.67 268.23 285.67 125.68 248.49 131.44 207.33"/><polygon class="cls-11" points="168.63 206.58 169.41 198.17 131.44 207.33 285.67 256.67 386.33 226.62 359.5 220.5 272.02 239.25 168.63 206.58"/><polygon class="cls-12" points="176 193.17 175.17 201.83 177.83 202.67 178.67 193.83 176 193.17"/><polygon class="cls-12" points="183.75 195.42 182.92 204.08 185.58 204.92 186.42 196.08 183.75 195.42"/><polygon class="cls-12" points="169 271.67 168.17 280.33 170.83 281.17 171.67 272.33 169 271.67"/><polygon class="cls-12" points="176.75 273.92 175.92 282.58 178.58 283.42 179.42 274.58 176.75 273.92"/><polygon class="cls-12" points="184.5 276.17 183.67 284.83 186.33 285.67 187.17 276.83 184.5 276.17"/><polygon class="cls-12" points="177.5 178.17 176.67 186.83 179.33 187.67 180.17 178.83 177.5 178.17"/><polygon class="cls-12" points="185.25 180.42 184.42 189.08 187.08 189.92 187.92 181.08 185.25 180.42"/><polygon class="cls-12" points="192.75 182.92 191.92 191.58 194.58 192.42 195.42 183.58 192.75 182.92"/><polygon class="cls-12" points="179 163.33 178.17 172 180.83 172.83 181.67 164 179 163.33"/><polygon class="cls-12" points="263.89 219.7 263.17 228.38 265.85 229.17 266.56 220.33 263.89 219.7"/><polygon class="cls-12" points="265.19 204.68 264.47 213.36 267.15 214.15 267.86 205.31 265.19 204.68"/><polygon class="cls-12" points="266.49 189.83 265.77 198.5 268.45 199.3 269.16 190.46 266.49 189.83"/><polygon class="cls-12" points="267.94 174.93 267.22 183.61 269.9 184.4 270.61 175.56 267.94 174.93"/><polygon class="cls-5" points="288.37 169.43 287.66 178.11 290.44 177.44 291.19 168.75 288.37 169.43"/><polygon class="cls-5" points="297 167.24 296.28 175.92 299.06 175.25 299.81 166.56 297 167.24"/><polygon class="cls-5" points="305.81 165.12 305.09 173.79 307.88 173.13 308.63 164.44 305.81 165.12"/><polygon class="cls-5" points="315.06 162.87 314.34 171.54 317.13 170.88 317.88 162.19 315.06 162.87"/><polygon class="cls-5" points="289.56 155.43 288.84 164.11 291.63 163.44 292.38 154.75 289.56 155.43"/><polygon class="cls-5" points="298.19 153.24 297.47 161.92 300.25 161.25 301 152.56 298.19 153.24"/><polygon class="cls-5" points="307 151.12 306.28 159.79 309.06 159.13 309.81 150.44 307 151.12"/><polygon class="cls-5" points="316.25 148.87 315.53 157.54 318.31 156.88 319.06 148.19 316.25 148.87"/><polygon class="cls-5" points="308.44 136.18 307.72 144.86 310.5 144.19 311.25 135.5 308.44 136.18"/><polygon class="cls-5" points="317.06 133.99 316.34 142.67 319.13 142 319.88 133.31 317.06 133.99"/><polygon class="cls-5" points="325.87 131.87 325.16 140.54 327.94 139.88 328.69 131.19 325.87 131.87"/><polygon class="cls-5" points="335.12 129.62 334.41 138.29 337.19 137.63 337.94 128.94 335.12 129.62"/><polygon class="cls-5" points="344.94 127.3 344.22 135.98 347 135.31 347.75 126.63 344.94 127.3"/><polygon class="cls-5" points="353.56 125.12 352.84 133.79 355.63 133.13 356.38 124.44 353.56 125.12"/><polygon class="cls-12" points="257.99 187.58 257.27 196.25 259.95 197.05 260.66 188.21 257.99 187.58"/><polygon class="cls-12" points="186.75 165.58 185.92 174.25 188.58 175.08 189.42 166.25 186.75 165.58"/><polygon class="cls-12" points="194.25 168.08 193.42 176.75 196.08 177.58 196.92 168.75 194.25 168.08"/><polygon class="cls-12" points="202 170.42 201.17 179.08 203.83 179.92 204.67 171.08 202 170.42"/><polygon class="cls-10" points="225.5 113 272.25 123.5 276 86.5 230.5 78 225.5 113"/><polygon class="cls-10" points="231 67.5 277.5 77 280.33 42.79 233.19 37.51 231 67.5"/><polygon class="cls-12" points="271.33 128.5 270.83 133.5 253.33 129.67 253.83 124.33 271.33 128.5"/><polygon class="cls-12" points="248.5 123.5 248 128.5 230.33 124.33 231.17 119.67 248.5 123.5"/><polygon class="cls-11" points="132.25 241.5 141.75 244.13 141.5 246.38 131.88 243.75 132.25 241.5"/><polygon class="cls-11" points="145.75 245.25 145.5 247.5 154.5 250 154.5 247.75 145.75 245.25"/><polygon class="cls-11" points="258.75 113.75 258.5 116 267.42 117.92 267.75 115.58 258.75 113.75"/><polygon class="cls-11" points="259.42 108.75 259.17 111 268.08 112.92 268.42 110.58 259.42 108.75"/><polygon class="cls-11" points="262.08 277.25 261.83 279.5 270.83 282 270.83 279.75 262.08 277.25"/><polygon class="cls-12" points="299 190.67 377.33 171.67 376 189.67 298 211.33 299 190.67"/><polygon class="cls-13" points="299 190.67 287 186.94 364.75 167.33 377.33 171.67 299 190.67"/><polygon class="cls-10" points="299 190.67 298 215.33 285 211.33 287 186.94 299 190.67"/><polygon class="cls-11" points="305.32 198.47 309.43 197.39 309.34 198.91 305.23 199.99 305.32 198.47"/><polygon class="cls-11" points="312.24 196.55 316.35 195.46 316.25 196.98 312.14 198.07 312.24 196.55"/><polygon class="cls-11" points="319.42 194.47 323.54 193.39 323.44 194.91 319.33 196 319.42 194.47"/><polygon class="cls-11" points="326.95 192.25 331.06 191.17 330.97 192.69 326.86 193.78 326.95 192.25"/><polygon class="cls-11" points="305.19 203.38 309.3 202.29 309.2 203.81 305.09 204.9 305.19 203.38"/><polygon class="cls-11" points="312.1 201.45 316.21 200.37 316.12 201.89 312.01 202.97 312.1 201.45"/><polygon class="cls-11" points="319.29 199.38 323.4 198.29 323.31 199.82 319.2 200.9 319.29 199.38"/><polygon class="cls-11" points="326.82 197.16 330.93 196.07 330.83 197.6 326.73 198.68 326.82 197.16"/><polygon class="cls-11" points="334.42 190.25 338.53 189.17 338.44 190.69 334.33 191.78 334.42 190.25"/><polygon class="cls-11" points="334.29 195.16 338.4 194.07 338.3 195.6 334.19 196.68 334.29 195.16"/><polygon class="cls-6" points="377.65 23.09 341.59 31.36 339.77 57.25 376.02 47.97 377.65 23.09"/><polygon class="cls-3" points="344.55 30.68 342.67 59.5 346.5 58.17 348.32 29.81 344.55 30.68"/><polygon class="cls-3" points="351.33 29.12 349.5 57.17 353.33 55.83 355.11 28.26 351.33 29.12"/><polygon class="cls-3" points="357.97 27.6 356.17 55.17 360 53.83 361.74 26.74 357.97 27.6"/><polygon class="cls-3" points="364.5 26.1 362.67 54.17 366.5 52.83 368.28 25.24 364.5 26.1"/><polygon class="cls-3" points="374.94 23.71 371.17 24.57 369.33 52.67 373.17 51.33 374.94 23.71"/><polygon class="cls-9" points="269.16 235.91 267.42 235.44 266.16 236.03 266.53 237.92 267.54 238.35 266.74 238.76 266.17 242.04 266.82 245.53 267.71 243.25 268.69 245.21 269.05 242.03 269.97 241.18 269.67 238.69 269.18 238.25 269.16 235.91"/><polygon class="cls-9" points="168.83 206.59 171.13 205.75 172.06 208.31 171.06 208.44 171.88 209.75 171.31 211.5 172.19 214.44 171.13 214.88 170.63 216.31 170.26 214.38 169.55 215.9 169.31 214.5 168.45 213.8 169.33 211.18 168.86 210.1 169.49 208.63 168.99 208.45 168.83 206.59"/><polygon class="cls-9" points="165.2 202.58 163.13 201.44 162.19 202.31 160.88 203.19 162.06 203.4 162.49 204.58 161.56 206.89 162.81 208.08 162.44 212.69 163.69 209.94 164.31 212.38 165.13 208.31 165.06 206 164.36 204.94 165.2 202.58"/></g><g id="building-3" data-name="building"><polygon class="cls-14" points="0 285.67 123.05 285.67 126.48 258.48 124.94 254.25 127.68 249 130.5 226.62 8.34 241 3.79 265.33 5 269 2.12 274.33 0 285.67"/><polygon class="cls-6" points="127.68 249 3.79 265.33 2.12 274.33 126.48 258.48 127.68 249"/><rect class="cls-14" x="76.45" y="263.46" width="40.38" height="3" transform="translate(-178.24 328.09) rotate(-82.89)"/><polygon class="cls-14" points="62.05 285.67 65.05 285.67 69.74 247.08 66.76 246.71 62.05 285.67"/><polygon class="cls-14" points="29.73 285.67 32.59 285.67 37.15 249.7 34.17 249.33 29.73 285.67"/><polygon class="cls-15" points="10.39 230 80.39 218.7 153.69 214.76 149 233.33 7.09 247.67 10.39 230"/><polygon class="cls-16" points="153.69 214.76 100.63 184.04 17.09 194.13 10.39 230 153.69 214.76"/><polygon class="cls-15" points="153.69 204.33 12.5 218.7 15.24 204 82.04 193 158.59 188.8 153.69 204.33"/><polygon class="cls-17" points="158.59 188.8 101.46 147.17 24.68 153.45 15.24 204 158.59 188.8"/><polygon class="cls-18" points="143 27.4 122.75 175 87.75 178.44 79.25 177.63 59.5 181.22 18.75 185.23 35.46 95.7 55.67 22.5 143 27.4"/><polygon class="cls-6" points="46.33 122 58 121 56.67 126 45.5 127 46.33 122"/><polygon class="cls-6" points="66.33 120 78 119 76.67 124 65.5 125 66.33 120"/><polygon class="cls-6" points="86.33 118 98 117 96.67 122 85.5 123 86.33 118"/><polygon class="cls-6" points="106.33 116 118 115 116.67 120 105.5 121 106.33 116"/><polygon class="cls-6" points="43.33 136 55 135 53.67 140 42.5 141 43.33 136"/><polygon class="cls-6" points="63.33 134 75 133 73.67 138 62.5 139 63.33 134"/><polygon class="cls-6" points="83.33 132 95 131 93.67 136 82.5 137 83.33 132"/><polygon class="cls-6" points="103.33 130 115 129 113.67 134 102.5 135 103.33 130"/><polygon class="cls-6" points="136.99 223.64 143 223.12 142.31 225.7 136.56 226.21 136.99 223.64"/><polygon class="cls-6" points="141.99 196.47 148 195.96 147.31 198.53 141.56 199.04 141.99 196.47"/><polygon class="cls-15" points="59.5 181.22 65.16 153 90 151.39 87.74 178.44 83.87 178.82 74.28 177.88 64.68 180.71 59.5 181.22"/><polygon class="cls-19" points="64.68 180.71 69.75 157.35 83.5 157.35 83.87 178.82 64.68 180.71"/><polygon class="cls-15" points="76.56 156 73.56 179.84 75.44 179.65 78.19 155.63 76.56 156"/><polygon class="cls-20" points="79.63 87.42 83.29 91.14 102.5 108.25 116 56 116 24.57 95 22.06 90.37 22.78 79.63 87.42"/><polygon class="cls-3" points="102.5 108.25 122.32 103.67 148 97.57 158.59 29.15 116 24.57 102.5 108.25"/><polygon class="cls-6" points="121.48 31.12 118.54 49.72 121.53 49.09 124.5 30.58 121.48 31.12"/><polygon class="cls-6" points="117.67 55.95 114.74 74.55 117.73 73.94 120.75 55.33 117.67 55.95"/><polygon class="cls-6" points="113.75 81.12 110.82 99.71 113.75 99.08 116.83 80.58 113.75 81.12"/><polygon class="cls-6" points="131.4 29.21 128.46 47.8 131.44 47.17 134.42 28.67 131.4 29.21"/><polygon class="cls-6" points="127.59 54.04 124.65 72.63 127.65 72.03 130.67 53.42 127.59 54.04"/><polygon class="cls-6" points="123.67 79.2 120.73 97.8 123.67 97.17 126.75 78.67 123.67 79.2"/><polygon class="cls-21" points="35.46 95.7 80.39 108.25 95 22.02 50.15 17 35.46 95.7"/><polygon class="cls-6" points="87 29.2 83.79 47.74 81.08 46.83 84.25 28.42 87 29.2"/><polygon class="cls-6" points="82.6 53.93 79.39 72.48 76.67 71.58 79.83 53.08 82.6 53.93"/><polygon class="cls-6" points="78.2 79.02 74.99 97.56 72.33 96.67 75.5 78.25 78.2 79.02"/><polygon class="cls-6" points="77.5 26.7 74.29 45.24 71.58 44.33 74.75 25.92 77.5 26.7"/><polygon class="cls-6" points="73.1 51.43 69.89 69.98 67.17 69.08 70.33 50.58 73.1 51.43"/><polygon class="cls-6" points="68.7 76.52 65.49 95.06 62.83 94.17 66 75.75 68.7 76.52"/><polygon class="cls-16" points="131.44 167.63 134.88 167.31 137.06 168.88 135.75 172.38 133.69 172.88 135.06 173.94 135.06 179.75 132.69 186.94 131.75 182.25 129.25 185.69 129.63 179.44 128.17 177.5 129.56 172.81 130.63 172.13 131.44 167.63"/><polygon class="cls-16" points="107.61 165.38 110.55 163.66 113.5 164.72 113.64 167.82 112.85 169.21 114.76 173.38 112.64 175.48 114.63 179.05 112.56 180.38 112.51 184.96 110.43 180.71 109.03 183.72 108.65 180.15 106.87 179.58 108.6 174.42 107.68 172.29 108.91 169.4 107.93 169.04 107.61 165.38"/><polygon class="cls-16" points="48.11 174.27 53.05 172.46 53.96 174.23 56.41 174.54 56.57 176.66 54.17 175.89 53.35 177.51 55.13 182.75 52.71 185.09 53.42 194.17 50.36 188.13 48.94 190.25 49.14 192.83 46.96 189.07 49.62 184.6 48.41 182.44 49.73 178.91 48.11 174.27"/></g><g id="trees"><polygon class="cls-22" points="324.58 146.49 491.01 111.41 737.37 129.29 576.42 178.82 324.58 146.49"/><polygon class="cls-18" points="395.33 155 393.67 117.33 389.67 117.33 390 153 395.33 155"/><polygon class="cls-18" points="695.33 142.33 693.5 113.67 701.33 115.33 700.33 142.33 695.33 142.33"/><polygon class="cls-18" points="397 155 396.83 118.42 406.33 119.33 404 155.33 397 155"/><polygon class="cls-18" points="401 121.67 405.67 158 573.67 175.67 690 144.67 694.67 116.67 662 103.33 619.33 107 545.67 97.67 486 112.67 421.67 111.67 401 121.67"/><polygon class="cls-7" points="501.33 137.33 502.67 170.67 506.67 171 507.33 137.33 501.33 137.33"/><polygon class="cls-7" points="520.33 137.33 521 171 525.67 171 528.67 137.67 520.33 137.33"/><polygon class="cls-7" points="496 162.67 492.33 131 485.33 129.67 491 164.67 496 162.67"/><polygon class="cls-7" points="517.67 164.67 512.33 130.33 506.67 130 513.67 165.67 517.67 164.67"/><polygon class="cls-7" points="482 162 481.33 129.67 474.33 128.33 478.33 162 482 162"/><polygon class="cls-7" points="467 160 469 122.33 459 123 460 161.33 467 160"/><polygon class="cls-7" points="457.33 160 454.33 120.33 449.33 119.67 452.67 160.33 457.33 160"/><polygon class="cls-7" points="447 159 445.67 119.33 439.67 117 440 157.67 447 159"/><polygon class="cls-7" points="429 157 433 115.67 425.33 115.67 425 157.67 429 157"/><polygon class="cls-7" points="420.67 156.67 418.67 118 412.33 120 417 156 420.67 156.67"/><polygon class="cls-7" points="407.67 155 405.67 117.33 397.67 120 404 155.33 407.67 155"/><polygon class="cls-7" points="385.33 153 389.67 117.33 381.67 116.67 381.33 153.33 385.33 153"/><polygon class="cls-7" points="393.67 153.33 392 115.67 396.67 114.33 398.33 155.33 393.67 153.33"/><polygon class="cls-7" points="533 166.33 531.67 128.67 537.67 129 535.67 167.33 533 166.33"/><polygon class="cls-7" points="539.67 167.33 546 131 556.67 129.67 545.67 169 539.67 167.33"/><polygon class="cls-7" points="551.33 168 559.33 127 562.33 127.33 559 169 551.33 168"/><polygon class="cls-7" points="568.33 169.67 567.67 123.67 574 123.33 572 170.67 568.33 169.67"/><polygon class="cls-7" points="576.67 169.67 577 126.67 588 124.33 581.33 172.67 576.67 169.67"/><polygon class="cls-7" points="585.67 169.67 590.67 129.67 596.67 127.67 593 170 585.67 169.67"/><polygon class="cls-7" points="599 166.67 600 123.33 605.67 121.33 603 166.67 599 166.67"/><polygon class="cls-7" points="612.33 162.33 611 124.67 624.67 121.33 617 163 612.33 162.33"/><polygon class="cls-7" points="628.67 159 630.33 126.33 637.33 119 632 159.33 628.67 159"/><polygon class="cls-7" points="620.67 160 622.33 127.33 629.33 120 624 160.33 620.67 160"/><polygon class="cls-7" points="635.67 156.67 640.33 103.67 645 104 641 156.33 635.67 156.67"/><polygon class="cls-7" points="645.67 153 647 105.67 651 104.33 649.67 154 645.67 153"/><polygon class="cls-7" points="654.67 152 657 105 667 106.67 659.33 152 654.67 152"/><polygon class="cls-7" points="666 148.33 672.33 109.33 677.33 109.33 672 148.67 666 148.33"/><polygon class="cls-7" points="678.33 145.33 679.33 110 684.33 110.67 682.67 145.67 678.33 145.33"/><polygon class="cls-7" points="688.33 143.33 690.67 113.33 696.33 114 691.67 143.33 688.33 143.33"/><polygon class="cls-7" points="698.33 140 700 115.33 708.55 112.88 701.67 140 698.33 140"/><polygon class="cls-7" points="379 153 375.33 117.33 369.33 115.33 373 131.67 368.33 129.33 364.67 116.33 361.33 115.67 364.33 133.33 372 136 376 152.67 379 153"/><polygon class="cls-7" points="536 145 545.67 139.67 544.67 145.67 535.67 149.33 536 145"/><polygon class="cls-7" points="477.33 145.33 465 138 464 142.67 478.33 150 477.33 145.33"/><polygon class="cls-7" points="603 147 612 136.67 614.33 139.33 602 154 603 147"/><polygon class="cls-7" points="647.67 139 640.33 135 640.33 139 647.67 144.33 647.67 139"/><polygon class="cls-7" points="429.33 134.67 442 128.33 441 133 428 141.33 429.33 134.67"/><polygon class="cls-7" points="415 137.33 405 131 405 135 415.33 139.67 415 137.33"/><polygon class="cls-7" points="453.33 137.33 461 131 461.67 135 455 141 453.33 137.33"/><polygon class="cls-7" points="649.67 119 658.33 124.67 657.67 128 649.67 124 649.67 119"/><polygon class="cls-7" points="659.33 134 670.67 125 670.67 129 659.67 137 659.33 134"/><polygon class="cls-7" points="702 125 708 122 711 112.88 715.2 110 711 123.33 701.33 128.67 702 125"/><polygon class="cls-7" points="689.67 126 682 120.33 682 124.33 691.33 130.33 689.67 126"/><polygon class="cls-23" points="344.92 110.18 362.98 125.33 392.86 135.2 413.24 127 424.67 129.29 445.73 121.33 459 131 487.74 144.5 508.54 141 520.63 144 544.8 137.91 568.03 148.5 589.79 136.67 621.49 143.81 628.01 132.66 646.21 133.89 670.33 121.33 703.71 118 729 106 690.25 106.91 673 79.06 622.17 84.41 620.73 105 574 98.79 556.67 89.26 512.17 102 474.33 98.79 412.33 95.29 385.74 109.33 344.92 110.18"/><polygon class="cls-24" points="344.92 94.48 344.92 110.18 379.81 119.33 398.33 108.33 433 115.67 450.75 99.79 498.33 110 542.38 100.75 591.17 121.33 615.79 116.64 631.43 97.57 675.34 87.57 690.25 111.75 729 106 734.5 91.88 698.33 84.5 658.93 79.5 624.67 49.95 588 71.75 539.34 64.75 510.29 78.5 471.17 58.25 420.67 58.25 393 73.25 372.25 71.75 344.92 94.48"/><polygon class="cls-24" points="498.33 110 459 131 485.33 132.66 523.01 126.38 498.33 110"/><polygon class="cls-25" points="344.92 94.48 370.17 59.91 387.33 65.67 398.72 44.67 431.99 25.01 463.5 19 478.33 0 500.83 4.41 565 25.62 617.83 27.35 641.17 32.09 673 43.65 684.33 58.84 703.5 62.67 724.25 79 734.5 91.88 708.69 98.5 675.34 87.57 640.33 78 622 59.91 589.67 81.63 542.38 100.75 512.33 87 474.58 86 443.33 75.35 407.67 89.79 385.5 81.63 365.5 100.98 344.92 94.48"/><polygon class="cls-19" points="425 19 398.72 44.67 414.2 74.73 387.33 65.67 368.69 55 357.76 76.9 385.5 81.63 414.2 74.73 425 49.22 449.33 40 463.5 19 425 19"/><polygon class="cls-19" points="500.83 4.41 488.59 19 496 36 528.67 26 525.6 55 548.17 47.04 570.83 55.71 605.67 49.22 617.83 27.35 586 21.11 556.38 17.3 528.67 9.87 500.83 4.41"/><polygon class="cls-19" points="443.33 75.35 449.47 59.91 481.79 47.04 504.33 59.91 508.54 71.11 479.67 64.53 443.33 75.35"/><polygon class="cls-19" points="605.67 49.22 622 59.91 641.17 32.09 670.33 51.85 684.33 58.84 703.23 56.75 724.25 79 694.67 69.56 640.33 78 622 59.91 589.67 81.63 605.67 49.22"/><polygon class="cls-25" points="586 21.11 548.17 47.04 528.67 26 528.67 9.87 586 21.11"/><polygon class="cls-25" points="407.67 89.79 435 90.63 450.75 99.79 398.33 108.33 407.67 89.79"/><polygon class="cls-25" points="589.67 81.63 591.17 121.33 615.79 116.64 626.42 110 631.43 97.57 589.67 81.63"/><polygon class="cls-19" points="508.54 71.11 512.33 87 542.38 79.05 589.67 81.63 570.83 55.71 508.54 71.11"/><polygon class="cls-24" points="425 49.22 449.47 59.91 481.79 47.04 469 42.33 449.33 40 425 49.22"/><polygon class="cls-24" points="508.54 71.11 504.33 59.91 548.17 47.04 570.83 55.71 508.54 71.11"/><polygon class="cls-24" points="443.33 75.35 479.67 64.53 508.54 71.11 512.33 87 469 89.26 443.33 75.35"/><polygon class="cls-24" points="684.33 58.84 680.84 39.91 641.17 32.09 662.07 54.12 684.33 58.84"/><polygon class="cls-23" points="512.33 87 443.33 75.35 450.75 99.79 512.33 87"/><polygon class="cls-24" points="631.43 97.57 660.83 109.33 628.01 132.66 615.79 116.64 631.43 97.57"/><polygon class="cls-24" points="463.5 19 488.59 19 496 36 481.79 47.04 463.5 19"/></g><g id="birds"><polygon class="cls-6" points="468.27 26.32 469 42.33 449.33 36 464.61 36.67 468.27 26.32"/><polygon class="cls-6" points="573.92 37.49 563.61 43 557 32.35 564.33 39.68 573.92 37.49"/><polygon class="cls-6" points="521.67 21.98 507.33 32.45 500.72 13.77 508.64 26.85 521.67 21.98"/><polygon class="cls-6" points="487.5 59.91 495.67 42.57 514.79 50.11 499.32 50.46 487.5 59.91"/></g><g id="building-4" data-name="building"><polygon class="cls-21" points="298.73 285.67 592.82 285.67 306 255.67 298.73 285.67"/><polygon class="cls-16" points="593.32 285.67 726.38 237.33 725.02 285.67 593.32 285.67"/><polygon class="cls-7" points="284.75 227.67 457 238.5 588 258.48 600.5 268 593.32 285.67 285.67 256.67 284.75 227.67"/><polygon class="cls-23" points="588 258.48 593.32 285.67 753.75 230 756.5 204 656.5 232 588 258.48"/><polygon class="cls-2" points="284.75 227.67 588 258.48 756.5 204 479.5 167.37 284.75 227.67"/><polygon class="cls-15" points="339.5 184.38 337 217.08 582.18 237.33 582.18 204 339.5 184.38"/><polygon class="cls-16" points="582.18 204 713.5 169 707.5 204 582.18 237.33 582.18 204"/><polygon class="cls-17" points="324.58 184.38 582.18 208.5 585.67 192.13 580.5 169 324.58 146.49 324.58 184.38"/><polygon class="cls-15" points="582.18 208.5 734.5 167.37 737.37 129.29 580.5 169 582.18 208.5"/><polygon class="cls-16" points="324.58 153.45 580.86 177.49 581.14 184.04 324.58 159.5 324.58 153.45"/><polygon class="cls-16" points="580.86 177.49 736.67 138.59 736.2 144.79 581.14 184.04 580.86 177.49"/><polygon class="cls-6" points="746.17 214.33 745.83 218 731.83 222.83 732 219.67 746.17 214.33"/><polygon class="cls-6" points="727.17 224.5 727.17 221.17 712.67 225.67 713 229.17 727.17 224.5"/><polygon class="cls-6" points="707.83 230.5 707.5 227.33 691.17 232.17 691.33 235.67 707.83 230.5"/><polygon class="cls-6" points="686.5 234 686.67 237.33 670.83 242.33 670.33 239.33 686.5 234"/><polygon class="cls-6" points="647.83 246.17 665 241 665 244 648.17 249.5 647.83 246.17"/><polygon class="cls-6" points="726.83 158 726.67 160.83 710.33 165.67 710.5 162.33 726.83 158"/><polygon class="cls-6" points="703.5 167.67 703.5 164.67 686.5 168.67 686.5 171.83 703.5 167.67"/><polygon class="cls-6" points="609.57 190.91 609.63 187.74 592.6 192.14 592.7 195.3 609.57 190.91"/><polygon class="cls-6" points="634.24 184.53 634.32 181.37 617.26 185.64 617.34 188.8 634.24 184.53"/><polygon class="cls-6" points="336.5 176.5 336.33 173.38 353.5 175.04 353.5 178.21 336.5 176.5"/><polygon class="cls-26" points="697.66 285.67 709.75 285.67 709.75 264 698.25 268 697.66 285.67"/><polygon class="cls-26" points="676.75 285.67 687.88 285.67 688.25 272 676.75 276 676.75 285.67"/><polygon class="cls-26" points="699.75 186.25 699 197.25 680.75 202 681.75 191.75 699.75 186.25"/><polygon class="cls-26" points="672 204.75 673 193.25 652.25 199 653.5 210 672 204.75"/><polygon class="cls-14" points="361.11 285.67 361.33 277 323 274.33 322.17 285.67 361.11 285.67"/><polygon class="cls-14" points="413.53 285.67 413.67 280.33 375.33 277.67 374.75 285.67 413.53 285.67"/><polygon class="cls-16" points="352.17 198.17 351.67 209.67 414.5 215 415 203.5 352.17 198.17"/><polygon class="cls-16" points="427.83 204.17 427.33 215.67 490.17 221 490.67 209.5 427.83 204.17"/><polygon class="cls-16" points="502.17 210.5 501.67 222 564.5 227.33 565 215.83 502.17 210.5"/><polygon class="cls-6" points="359.88 175.75 377.88 177.38 377.75 180.25 359.5 178.75 359.88 175.75"/><polygon class="cls-6" points="384.75 178.13 402.63 179.63 402.5 182.75 384.25 181 384.75 178.13"/><polygon class="cls-6" points="419.02 183.52 418.85 180.4 436.02 182.06 436.02 185.23 419.02 183.52"/><polygon class="cls-6" points="442.4 182.77 460.4 184.4 460.27 187.27 442.02 185.77 442.4 182.77"/><polygon class="cls-6" points="467.27 185.15 485.15 186.65 485.02 189.77 466.77 188.02 467.27 185.15"/><polygon class="cls-6" points="501 190.5 500.83 187.38 518 189.04 518 192.21 501 190.5"/><polygon class="cls-6" points="524.38 189.75 542.38 191.38 542.25 194.25 524 192.75 524.38 189.75"/><polygon class="cls-6" points="549.25 192.13 567.13 193.63 567 196.75 548.75 195 549.25 192.13"/><polygon class="cls-6" points="292.25 236 313.75 238 313.75 242.5 292 240.5 292.25 236"/><polygon class="cls-6" points="321.58 239 343.08 241 343.08 245.5 321.33 243.5 321.58 239"/><polygon class="cls-6" points="525.58 261.33 547.08 263.33 547.08 267.83 525.33 265.83 525.58 261.33"/><polygon class="cls-6" points="554.92 264.33 576.42 266.33 576.42 270.83 554.67 268.83 554.92 264.33"/><polygon class="cls-14" points="356.33 242.67 356 255.67 511.33 271 512 257.33 356.33 242.67"/><polygon class="cls-7" points="386.67 243.67 386.33 261.67 390 262.33 390.67 243.67 386.67 243.67"/><polygon class="cls-7" points="417 246.67 416.67 264.67 420.33 265.33 421 246.67 417 246.67"/><polygon class="cls-7" points="448.33 249 448 267 451.67 267.67 452.33 249 448.33 249"/><polygon class="cls-7" points="479.33 252 479 270 482.67 270.67 483.33 252 479.33 252"/></g><g id="car"><polygon class="cls-17" points="280.15 188.46 291.81 184.46 308.49 188.54 316.49 194.47 317.33 201.83 308.48 206.58 282.33 198 280.15 188.46"/><polygon class="cls-15" points="280.15 188.46 301.05 192.95 307.73 198.82 308.48 206.58 280.33 198.83 280.15 188.46"/><polygon class="cls-16" points="298.34 192.35 288 190.15 288.46 193.26 299.7 196.37 298.34 192.35"/><polygon class="cls-16" points="308.49 188.54 301.05 192.95 307.73 198.82 316.48 194.47 308.49 188.54"/><polygon class="cls-17" points="309.58 201.5 310.83 200.92 311.08 203.58 309.75 204.42 309.58 201.5"/><polygon class="cls-17" points="314.58 199.17 315.92 198.42 316.08 201.08 314.92 201.58 314.58 199.17"/></g></g><g id="papers"><polygon class="cls-3" points="424 310.33 463 301 493 307.75 445.75 321.25 424 310.33"/><polygon class="cls-4" points="484 301 449.65 319.05 417.5 309.5 450.75 294.5 484 301"/><polygon class="cls-27" points="404.25 298.75 422.75 318 450.75 310.25 432.25 292.5 404.25 298.75"/><polygon class="cls-28" points="477.74 304.32 451.87 319.47 449.82 320.04 442.75 335.5 401 331.25 437.5 332.33 455.75 307.88 450.61 318.55 477.74 304.32"/><polygon class="cls-2" points="421 304.11 455.75 307.88 441.5 334 401 331.25 421 304.11"/><line class="cls-29" x1="422.88" y1="308.75" x2="443.38" y2="311.13"/><line class="cls-29" x1="421.88" y1="311.75" x2="442.38" y2="314.13"/><line class="cls-29" x1="419.88" y1="314.75" x2="440.38" y2="317.13"/></g><g id="desk"><polygon class="cls-30" points="603.33 301.33 510 326 826.67 350 900 307.33 603.33 301.33"/><polygon class="cls-31" points="762.67 115.08 849.46 116.64 837 133.89 755.65 126.29 762.67 115.08"/><polygon class="cls-32" points="849.46 116.64 836 131.89 838 151.45 823.33 211.67 847 208.67 856.67 141.79 849.46 116.64"/><polygon class="cls-33" points="755.65 126.29 761.33 150.45 809.09 153.45 842 150.45 836 131.89 755.65 126.29"/><polygon class="cls-34" points="842 150.45 823.33 211.67 738.68 208.33 761.33 150.45 842 150.45"/><polygon class="cls-32" points="601.17 327.67 639.65 313.86 601.17 305.65 601.17 327.67"/><polygon class="cls-33" points="823.58 260.07 819.69 296.12 813.1 336.33 783.33 336.33 781.17 321 604.14 311.72 601.17 327.67 566.92 323.77 569.92 239.87 823.58 260.07"/><polygon class="cls-32" points="872.67 228.97 872.67 315.04 813.1 336.33 821.58 262.07 872.67 228.97"/><polygon class="cls-10" points="551.96 226.27 643.1 197.96 660.68 193 881.67 196.33 822.58 247.67 551.96 226.27"/><polygon class="cls-34" points="551.96 226.27 549.65 245.67 821.58 262.07 823.58 253.67 821.58 245.67 551.96 226.27"/><polygon class="cls-33" points="881.67 196.33 885.33 228.97 821.58 262.07 821.58 245.67 881.67 196.33"/><polygon class="cls-2" points="643.14 183.84 675.56 175.75 711.17 183.53 681.33 190.33 643.14 183.84"/><polygon class="cls-3" points="711.17 183.53 709.33 188.13 708.45 197.39 678.02 202.46 643.14 198.11 643.14 195.84 645.17 194.37 643.14 191.44 644.29 189.45 643.14 183.84 681.33 188.57 711.17 183.53"/><polygon class="cls-9" points="681.33 188.57 681.33 192.13 680.23 194.37 681.33 198.05 678.02 202.46 708.45 197.39 711.09 194.37 709.77 192.08 712.42 189.89 711.09 188.13 711.17 183.53 681.33 188.57"/><polygon class="cls-7" points="712.42 189.89 681.33 194.37 709.77 192.08 712.42 189.89"/><polygon class="cls-7" points="643.14 191.44 681.33 196.51 711.09 194.37 681.33 198.05 645.17 194.37 643.14 191.44"/><polygon class="cls-7" points="644.29 189.45 681.33 192.13 711.09 188.13 679.79 191.44 644.02 188.13 644.29 189.45"/><polygon class="cls-28" points="643.19 215.91 630.33 218.58 651.7 226.62 687.5 222.23 669.6 217 643.19 215.91"/><polygon class="cls-24" points="639.1 209.08 630.33 204.33 630.33 218.58 643.19 217 643.19 213.83 633.58 215.34 633.99 210.41 641.78 212.15 639.1 209.08"/><polygon class="cls-23" points="639.1 209.08 662.2 204.33 685.03 209.08 658.08 213.83 639.1 209.08"/><polygon class="cls-35" points="648.22 211.36 662.2 209.08 672.09 211.36 658.08 213.83 648.22 211.36"/><polygon class="cls-25" points="639.1 209.08 644.95 220.41 657.52 224.93 658.82 220.39 658.08 212.74 639.1 209.08"/><polygon class="cls-24" points="685.03 209.08 676.67 220.77 657.52 224.93 658.08 212.74 685.03 209.08"/><polygon class="cls-28" points="699.63 207.31 695.79 208.95 704.98 219.8 740.21 218.86 726.54 205.27 699.63 207.31"/><polygon class="cls-36" points="701.46 200.86 728.04 200.86 735.54 212.86 706.79 214.76 701.46 200.86"/><polygon class="cls-15" points="701.46 200.86 699.63 207.31 705.54 218.86 708.69 216.26 707.79 213.76 701.46 200.86"/><polygon class="cls-16" points="707.79 213.76 735.54 212.86 735.54 217.2 705.54 218.86 707.79 213.76"/><polygon class="cls-16" points="706.71 203.61 724.81 203.28 725.79 204.7 707.71 205.03 706.71 203.61"/><polygon class="cls-6" points="708.69 206.86 718.96 206.61 721.71 210.78 711.04 211.28 708.69 206.86"/><polygon class="cls-16" points="721.63 206.53 727.13 206.36 728.21 207.7 722.54 208.03 721.63 206.53"/><polygon class="cls-16" points="723.13 209.11 728.63 208.95 729.96 210.45 723.88 210.61 723.13 209.11"/><polygon class="cls-28" points="734.54 208.49 772.07 218.47 781.17 219.56 826 209.67 819 204 759.65 200.5 734.54 208.49"/><polygon class="cls-24" points="741.68 198.5 741.77 208.09 774.23 217.9 776.34 207.2 741.68 198.5"/><polygon class="cls-8" points="774.23 208.03 813.1 200.16 812.38 209.28 774.23 217.9 774.23 208.03"/><polygon class="cls-19" points="776.34 203 821.58 195.43 786.42 179 738 189.25 776.34 203"/><polygon class="cls-25" points="738 198.5 781.17 211.28 782.17 207.2 781.04 201.88 738 189.25 738 198.5"/><polygon class="cls-2" points="781.17 211.28 819 204 821.58 195.43 781.04 201.88 781.17 211.28"/><polygon class="cls-37" points="801.84 244.06 790.5 260.19 764.67 258.64 791.5 244.5 801.84 244.06"/><polygon class="cls-36" points="781.17 207.33 738 216.67 742.68 250.33 771.85 244.33 804.61 233.33 781.17 207.33"/><polygon class="cls-38" points="804.61 233.33 801.84 244.06 784.83 250.33 749.33 268.66 746.94 262.07 747.92 258.75 745.27 257.46 742.68 250.33 804.61 233.33"/><polygon class="cls-39" points="745.27 257.47 764.67 252.33 746.94 262.07 745.27 257.47"/><line class="cls-40" x1="754.97" y1="238.25" x2="789.17" y2="229.2"/><line class="cls-40" x1="786.42" y1="226.13" x2="762.04" y2="232.25"/><polygon class="cls-28" points="814 222.92 808.58 223.95 826 232.25 848.03 223.95 840.39 215 847 212.08 843.18 210.89 832.67 215.67 814 222.92"/><rect class="cls-17" x="832.03" y="211.95" width="11.43" height="2" transform="translate(8.67 457.48) rotate(-30.7)"/><polygon class="cls-24" points="840.39 210.21 843.18 210.89 846.08 210.55 842.67 206.75 840.39 210.21"/><polygon class="cls-25" points="814.92 217.9 829.5 212.08 841.83 217.08 826 226.33 814.92 217.9"/><polygon class="cls-24" points="814.92 217.9 814 222.92 826 230 827 227.67 826 225.33 814.92 217.9"/><polygon class="cls-23" points="841.83 217.08 841.42 222.33 826 230 826 225.33 841.83 217.08"/><polygon class="cls-15" points="822.83 216.9 828 215 832.32 216.9 827 219.67 822.83 216.9"/><polygon class="cls-16" points="832.32 216.9 832.32 218.21 827 220.5 822.83 218.56 822.83 216.9 827 219 832.32 216.9"/></g><g id="intp"><polygon class="cls-41" points="176.87 319.4 237.47 309 295.49 320.71 221.34 331.77 176.87 319.4"/><polygon class="cls-42" points="250.85 322.77 254.54 316.02 241.2 316.02 250.85 322.77"/><polygon class="cls-22" points="237.47 304.88 250.85 322.77 232.8 320.76 237.47 304.88"/><polygon class="cls-43" points="210.68 289.43 217.91 304.88 228.16 308.36 228.02 294.18 225.45 279.82 210.68 289.43"/><polygon class="cls-22" points="217.91 304.88 222.01 323.85 228.13 324.88 230.19 314.5 228.13 304.88 217.91 304.88"/><polygon class="cls-44" points="225.45 279.82 228.13 304.88 231.63 306.94 237.47 304.88 245.05 274.67 225.45 279.82"/><polygon class="cls-42" points="228.13 304.88 237.47 304.88 235.13 324.88 228.13 324.88 228.13 304.88"/><polygon class="cls-45" points="210.68 289.43 241 290.81 245.05 274.67 210.68 289.43"/><polygon class="cls-34" points="182.06 137.95 190.24 109.33 172.92 95.7 163.99 134.14 182.06 137.95"/><polygon class="cls-31" points="196.09 137.24 163.99 134.14 160.28 147.16 206.75 167.2 196.09 137.24"/><polygon class="cls-42" points="334.72 91.14 336.26 97.98 334.5 100.26 332.05 100.26 328.34 95.7 334.72 91.14"/><polygon class="cls-42" points="313.25 116.29 318.4 120.51 318.4 123.31 317.12 125.73 309.07 125.26 309.78 120.34 313.25 116.29"/><polygon class="cls-25" points="336.26 97.98 339.77 108.68 332.81 125.26 317.12 125.73 318.4 120.51 330.26 121.73 336.17 108.68 332.05 100.26 336.26 97.98"/><polygon class="cls-38" points="278.66 139.5 292.74 117.24 295.49 115.19 296.32 111.59 302.69 101.52 317.12 108.01 313.25 116.29 309.07 121.01 309.07 125.26 304.43 135.2 294.97 149 278.66 139.5"/><polygon class="cls-42" points="252.24 188.2 266.37 162.72 255.57 137.24 248.11 158.42 252.24 188.2"/><polygon class="cls-13" points="255.57 137.24 304.43 135.2 297.03 151.06 253.59 167.58 253.66 150.82 255.57 137.24"/><polygon class="cls-43" points="261.25 72.17 265.36 66.85 257.58 64.71 261.25 72.17"/><polygon class="cls-26" points="253.78 46.96 269.2 48.46 269.15 53.31 271.41 58.42 273.13 66.16 258.88 66.85 253.78 46.96"/><polygon class="cls-46" points="176.92 146.49 137.95 150 152.69 127.81 165.04 131.84 176.92 146.49"/><polygon class="cls-44" points="239.72 32.45 251.23 38.35 269.2 98.99 255.57 104.22 241.97 108.53 237.75 131.84 205.75 119.48 224.84 103.76 218.94 86.92 232.5 46.96 239.72 32.45"/><polygon class="cls-43" points="232.5 46.96 255.57 104.22 245.05 108.25 241.4 119.02 239.72 135.2 200.7 119.48 221.47 102.08 212.21 87.76 232.5 46.96"/><polygon class="cls-45" points="245.05 108.25 229.8 113.96 239.72 135.2 245.05 108.25"/><polygon class="cls-45" points="240 90.02 233.4 108.4 219.37 106.15 228.13 101.56 240 90.02"/><polygon class="cls-47" points="234.1 30.21 188.25 25.62 152.69 61.46 169.16 66.16 234.1 30.21"/><polygon class="cls-48" points="234.1 30.21 245.08 35.2 228.68 69.49 243.28 80.36 237.47 89.21 224.19 80.36 216.32 91.14 224.77 101.56 200.7 116.11 159.8 103.42 152.69 58.09 169.16 61.67 234.1 30.21"/><polygon class="cls-49" points="216.32 91.14 159.8 103.42 200.7 119.48 228.13 101.56 222.74 95.9 216.32 91.14"/><polygon class="cls-49" points="173.2 108.68 176.92 146.49 152.69 127.81 161.96 116.11 173.2 108.68"/><polygon class="cls-46" points="188.25 25.62 169.16 61.67 159.17 61.67 154.27 57.04 188.25 25.62"/><polygon class="cls-46" points="169.16 61.67 184.62 98.03 153.69 121.29 124.85 103.07 144.33 58.67 169.16 61.67"/><polygon class="cls-48" points="184.62 98.03 124.85 103.07 152.69 127.81 184.62 98.03"/><polygon class="cls-47" points="169.16 61.67 124.85 103.07 142.33 53.33 169.16 61.67"/><polygon class="cls-22" points="269.2 48.46 213.05 78.5 216.32 91.14 221.19 85.09 223.06 78.11 271.41 58.41 269.2 48.46"/><polygon class="cls-44" points="228.13 101.56 216.32 91.14 223.06 78.11 240 90.02 228.13 101.56"/><polygon class="cls-45" points="230.88 88.55 224.42 84.25 220.03 90.02 230.88 88.55"/><polygon class="cls-11" points="237.91 88.55 244.82 93.05 242.48 96.95 235.63 92.58 237.91 88.55"/><polygon class="cls-5" points="205.75 126.51 196.09 137.24 207.92 178.82 230.88 186.78 252.24 188.2 255.57 137.24 239.72 135.2 205.75 126.51"/><polygon class="cls-11" points="200.7 119.48 196.09 137.24 239.72 135.2 200.7 119.48"/><polygon class="cls-42" points="295.49 102.51 324.84 111.59 323.55 100.26 331.27 92.91 339.77 88.55 347.5 69.8 339 60.09 324.84 72.17 330.5 54.12 323.04 51.85 312.22 72.17 304.43 63.44 297.89 66.85 305.53 91.14 295.49 102.51"/><polygon class="cls-22" points="305.53 91.14 312.22 72.17 324.84 72.17 339.77 88.55 323.55 100.26 305.53 91.14"/><polygon class="cls-22" points="330.26 78.11 343.05 64.71 344.32 66.16 331.87 80.9 330.26 78.11"/><polygon class="cls-17" points="313.25 88.55 316.21 79.27 322.01 79.27 329.35 87.13 321.85 93.35 313.25 88.55"/><polygon class="cls-46" points="296.32 111.59 313.25 116.29 309.07 125.26 292.74 117.24 296.32 111.59"/><polygon class="cls-34" points="207.92 178.82 213.05 238.62 210.68 289.43 155.67 256.31 207.92 178.82"/><polygon class="cls-31" points="207.92 178.82 252.24 188.2 269.43 271 210.68 289.43 207.92 178.82"/><polygon class="cls-34" points="253.59 167.58 207.92 178.82 252.24 188.2 253.59 167.58"/></g><g id="dog"><polygon class="cls-50" points="45.66 322.98 94.03 314.48 150 326.68 95.75 332.5 58.5 328.81 45.66 322.98"/><polygon class="cls-22" points="78.19 283.66 68.65 282.51 65.05 277.63 50.48 269.17 75.16 267.67 64.33 292.33 75.88 289.43 78.19 283.66"/><polygon class="cls-36" points="64.33 292.33 75.16 267.67 58.3 282.57 64.33 292.33"/><polygon class="cls-46" points="95.75 312.45 90.58 318.53 95.35 320.26 92.11 323.26 80.7 322.04 91.27 308.98 95.75 312.45"/><polygon class="cls-47" points="113.27 318.53 117.7 323.19 112.47 325.3 105.22 321.32 113.27 318.53"/><polygon class="cls-46" points="119.26 304.78 113.27 318.53 107.15 321.32 109.01 304.78 119.26 304.78"/><polygon class="cls-46" points="124.26 306.68 111.14 307.08 102.2 308.8 92.11 313.72 82.26 314.8 66.02 300.56 82.79 287.25 115.13 287.25 124.26 306.68"/><polygon class="cls-51" points="102.89 296.3 86 298.25 79.07 300.56 66.02 300.56 78.19 283.66 92.66 283.23 115.13 286.25 102.89 296.3"/><polygon class="cls-48" points="112.47 300.56 111.14 307.08 124.26 306.68 112.47 300.56"/><polygon class="cls-47" points="123.65 282.28 129.5 287.25 142.81 287.25 150 298.7 128.17 310.32 112.47 300.56 102.89 296.3 107.15 276.96 115.13 285.3 124.94 270.67 123.65 282.28"/><polygon class="cls-51" points="142.81 287.25 128.71 298.16 112.47 300.56 129.5 287.25 142.81 287.25"/><polygon class="cls-22" points="142.81 287.25 128.71 298.16 141.91 303 142.81 287.25"/><ellipse class="cls-52" cx="122.32" cy="292.76" rx="1.6" ry="2.36" transform="translate(-157.36 142.92) rotate(-39.14)"/><ellipse class="cls-52" cx="126.58" cy="289.57" rx="1.6" ry="2.36" transform="translate(-154.39 144.9) rotate(-39.14)"/><polygon class="cls-22" points="107.15 276.96 108.61 292.22 115.13 285.3 107.15 276.96"/><polygon class="cls-22" points="124.94 270.67 119.26 283.66 123.65 282.28 124.94 270.67"/><polygon class="cls-48" points="99.29 303.89 86 298.25 92.11 313.72 102.89 309.96 99.29 303.89"/><polygon class="cls-47" points="111.14 307.08 99.29 303.89 100.23 324.21 107.15 321.32 111.14 307.08"/><polygon class="cls-51" points="107.15 321.32 112.47 325.3 105.22 328.86 100.23 324.21 107.15 321.32"/><polygon class="cls-47" points="86 298.25 66.02 300.56 76.89 319.7 75.47 324.21 81.86 322.38 92.11 313.72 86 298.25"/><polygon class="cls-51" points="83.79 320.75 92.11 323.26 87.89 327.8 75.47 324.21 83.79 320.75"/><polygon class="cls-22" points="53.72 321.66 61.29 320.65 68.86 322.63 67.91 326.68 56.74 325.78 53.72 321.66"/><polygon class="cls-42" points="53.72 321.66 61.29 316.53 70.6 320 71.24 323.55 67.91 326.68 66.34 322.47 53.72 321.66"/><polygon class="cls-22" points="53.72 321.66 66.72 318.55 66.72 316.53 62.68 314.95 59.2 315.35 53.72 321.66"/><polygon class="cls-42" points="66.72 316.53 61.29 312.43 59.2 315.35 66.72 316.53"/><polygon class="cls-36" points="66.72 318.55 66.34 322.47 53.72 321.66 66.72 318.55"/><polygon class="cls-5" points="64.44 309.8 65.05 308.69 63.55 304.46 64.47 302.09 61.99 304.41 64.44 309.8"/><polygon class="cls-5" points="61.62 310.71 62.35 309.63 60.55 303 61.33 299.23 57.95 303 61.62 310.71"/></g></svg>