<svg xmlns="http://www.w3.org/2000/svg" viewBox="0 0 900 350"><defs><style>.cls-1{fill:#8e8e8e;}.cls-1,.cls-10,.cls-12,.cls-13,.cls-14,.cls-15,.cls-16,.cls-17,.cls-18,.cls-19,.cls-2,.cls-20,.cls-21,.cls-22,.cls-23,.cls-24,.cls-25,.cls-26,.cls-28,.cls-29,.cls-3,.cls-33,.cls-4,.cls-44,.cls-45,.cls-46,.cls-47,.cls-48,.cls-5,.cls-6,.cls-7,.cls-8,.cls-9{fill-rule:evenodd;}.cls-2{fill:#785d87;}.cls-3{fill:#a2a2a2;}.cls-4{fill:#8f759f;}.cls-5{fill:#c3c3c3;}.cls-6{fill:#a587b9;}.cls-27,.cls-29,.cls-7{fill:#2b2b2b;}.cls-7{opacity:0.1;}.cls-41,.cls-8{fill:#ebebea;}.cls-40,.cls-9{fill:#b2879c;}.cls-10{fill:#9ca0a1;}.cls-11,.cls-16{fill:#95637c;}.cls-12{fill:#cdcdcc;}.cls-13{fill:#dcdcdb;}.cls-14{fill:#d0a0b7;}.cls-15,.cls-39{fill:#848585;}.cls-17,.cls-43{fill:#734d60;}.cls-18{fill:#594165;}.cls-19{fill:#543042;}.cls-20,.cls-38{fill:#4f5253;}.cls-21,.cls-36{fill:#6f7173;}.cls-22{fill:#eed2c1;}.cls-23{fill:#a8836c;}.cls-24{fill:#cfae95;}.cls-25{fill:#f6e5db;}.cls-26{fill:#737373;}.cls-28,.cls-42{fill:#fff;}.cls-30,.cls-44{fill:#755445;}.cls-31{fill:#8a6651;}.cls-32{fill:#c2977b;}.cls-33,.cls-35{fill:#debca4;}.cls-34,.cls-47{fill:#474747;}.cls-37{fill:#e7c9b5;}.cls-45{fill:#51362a;}.cls-46,.cls-49{fill:#916d5a;}.cls-48{fill:#98796a;}</style></defs><title>analysts_Debater_ENTP_romantic_relationships</title><g id="wall"><polyline class="cls-1" points="812.33 85.01 846.77 64.43 866.72 31.77 879.17 74.46 881.2 223.85 814.71 234.82 812.33 87.89"/><polyline class="cls-2" points="812.33 85.01 846.77 0.1 878.33 12.75 879.17 74.46 846.77 64.43 812.33 87.89"/><polygon class="cls-3" points="735.67 49.28 755.82 48.29 815.43 24.88 846.77 64.43 846.77 257.05 740.8 213.72 735.67 49.28"/><polygon class="cls-4" points="735.67 49.28 755.5 24.96 846.77 0.1 846.77 64.43 755.82 48.29 735.67 49.28"/><polygon class="cls-1" points="93 69.7 52 62.85 32.39 40.28 17.38 73.4 18.42 228.15 80 239.44 93 69.7"/><polygon class="cls-2" points="93 69.7 52 0 17 16.43 17.38 73.4 52 62.85 93 69.7"/><polygon class="cls-3" points="189.38 65.34 155.15 45.86 82.02 22.1 52 62.85 52 243.61 215.12 241.41 189.38 65.34"/><polygon class="cls-4" points="189.38 65.34 155.5 20.48 52 0 52 62.85 155.15 45.86 189.38 65.34"/><polygon class="cls-5" points="158 241.41 153.01 202.96 155.15 45.86 277.93 21.39 755.82 48.29 757.93 200.53 591.54 262.94 158 241.41"/><polygon class="cls-6" points="155.15 45.86 155.5 20.48 755.5 24.96 755.82 48.29 155.15 45.86"/><polygon class="cls-7" points="526.72 158.77 523.5 64.43 627.13 64.43 623.33 153.66 526.72 158.77"/><polygon class="cls-7" points="166.75 85.82 165.75 56.33 231.27 58.29 230.17 86.24 166.75 85.82"/><polygon class="cls-2" points="78.82 54.02 71.32 213.79 134.03 220.55 133.56 52.17 78.82 54.02"/><polygon class="cls-8" points="79.22 196.45 134.32 205.75 125.43 228.15 79.39 216.59 79.22 196.45"/><polygon class="cls-9" points="514.25 56.1 620.21 57.88 618.54 143.95 516.38 149.28 514.25 56.1"/><polygon class="cls-10" points="523.5 64.43 610.92 66.31 609.69 133.33 524.16 131.78 523.5 64.43"/><rect class="cls-11" x="523.5" y="137.18" width="6.44" height="7.18"/><polygon class="cls-5" points="581.83 77.17 571.5 84.76 571.5 96.88 578.5 98.88 579.17 106.63 596.5 106.63 602.38 98.22 595.75 87.68 595.17 77.55 581.83 77.17"/><polygon class="cls-1" points="580.5 88.57 577.38 91.9 576 97.42 571.5 96.88 579.17 106.63 584.75 101.73 582.38 95.07 584.75 90.82 580.5 88.57"/><polygon class="cls-1" points="587.88 79.58 587.88 85.7 591.63 91.09 591.63 96.88 594.38 98.22 599.25 96.75 602.38 98.22 603 86.78 595.17 77.55 587.88 79.58"/><polygon class="cls-1" points="594.5 100.92 591.38 102.69 594.5 105.1 598.5 101.87 597.25 98.88 594.5 100.92"/><polygon class="cls-5" points="541.56 78.9 541.56 80.25 539.81 81.05 541.5 81.69 541.19 83.68 542.52 82.21 544.13 82.27 543.13 81.29 543.81 80.13 542.56 80.09 541.56 78.9"/><polygon class="cls-5" points="541.69 103.45 541.69 104.38 540.48 104.94 541.65 105.37 541.43 106.75 542.35 105.74 543.46 105.77 542.77 105.1 543.24 104.3 542.38 104.27 541.69 103.45"/><polygon class="cls-5" points="531.43 121.91 531.43 122.84 530.22 123.4 531.39 123.84 531.17 125.22 532.09 124.2 533.2 124.24 532.51 123.56 532.98 122.77 532.12 122.74 531.43 121.91"/><polygon class="cls-5" points="570.32 69.82 569.67 70.43 568.49 69.81 568.94 71.05 567.83 71.77 569.14 71.86 569.84 72.79 569.87 71.78 570.74 71.65 570.2 70.92 570.32 69.82"/><polygon class="cls-5" points="559.33 87.09 558.68 87.7 557.5 87.08 557.95 88.32 556.84 89.04 558.15 89.13 558.85 90.06 558.88 89.05 559.75 88.92 559.21 88.19 559.33 87.09"/><polygon class="cls-5" points="600.56 72.11 599.91 72.72 598.73 72.1 599.18 73.34 598.07 74.06 599.39 74.14 600.08 75.07 600.11 74.07 600.98 73.94 600.44 73.21 600.56 72.11"/><polygon class="cls-5" points="582.84 116.41 582.19 117.02 581.01 116.4 581.46 117.64 580.35 118.36 581.67 118.45 582.37 119.38 582.39 118.37 583.26 118.24 582.72 117.52 582.84 116.41"/><polygon class="cls-5" points="560.62 116.45 559.94 117.38 558.32 116.91 559.17 118.34 557.94 119.54 559.61 119.3 560.69 120.28 560.49 119.02 561.55 118.62 560.71 117.86 560.62 116.45"/><polygon class="cls-5" points="597.51 123.86 597.29 125.19 595.44 125.65 597 126.59 596.37 128.5 597.92 127.3 599.49 127.65 598.66 126.5 599.52 125.5 598.3 125.22 597.51 123.86"/><polygon class="cls-10" points="829.25 95.82 834.57 98.83 834.57 143.85 830 144.6 816.13 124.83 829.25 95.82"/><polygon class="cls-12" points="801.02 98.19 829.25 95.82 830 144.6 801.02 140.81 801.02 98.19"/><polygon class="cls-13" points="805.61 104.23 823.93 103.22 823.93 114.2 805.61 114.2 805.61 104.23"/><polygon class="cls-13" points="805.61 119.64 811.08 119.64 810.83 125.03 805.61 124.48 805.61 119.64"/><polygon class="cls-13" points="805.61 128.78 810.5 128.78 810.27 134.68 805.61 133.86 805.61 128.78"/><polygon class="cls-13" points="812.95 119.86 812.95 125.22 818.25 125.58 818.42 120.21 812.95 119.86"/><polygon class="cls-13" points="812.95 128.92 812.56 134.68 817.23 135.04 817.23 129.42 812.95 128.92"/><polygon class="cls-13" points="820.75 120.21 820.37 135.5 824.57 135.87 824.57 120.21 820.75 120.21"/><polygon class="cls-4" points="68.29 46.34 67.75 218.77 80.45 216.39 79.83 57.68 131.74 57.68 134.33 206.45 144.59 204.39 142.06 41.61 68.29 46.34"/><polygon class="cls-13" points="160.97 54.71 161 79.15 226.81 79.15 226.47 54.71 160.97 54.71"/><polygon class="cls-14" points="164.69 57.68 165.08 76.14 222.46 75.19 222.46 58.49 164.69 57.68"/><polygon class="cls-14" points="208.08 66.24 206.19 70.08 210.81 69.77 208.08 66.24"/><polygon class="cls-9" points="177.43 65.34 204.01 65.34 204.01 62.08 216.1 66.24 204.01 71.51 203.93 68.55 177.43 68.73 177.43 65.34"/></g><g id="ground"><polygon class="cls-1" points="674.32 257.97 674.32 293.67 691.73 337.16 900 280.9 881.2 223.85 674.32 257.97"/><polygon class="cls-3" points="132 225.55 211.9 350 694.59 337.1 683.71 293.05 132 225.55"/><polygon class="cls-1" points="119 234.47 18.42 228.15 5 285.04 211.9 350 213.06 305.5 119 234.47"/><polygon class="cls-8" points="18.42 228.15 153.01 202.96 764.42 198.1 881.2 223.85 685.69 301.06 213.06 305.5 18.42 228.15"/><polygon class="cls-5" points="92.09 257.42 88.29 296.54 144.62 300.7 139.87 277.92 174.83 275.85 114.71 252.37 92.09 257.42"/><polygon class="cls-15" points="104.91 289.23 88.29 296.54 149.14 310.57 150.22 302.12 104.91 289.23"/><polygon class="cls-3" points="103.55 276.06 102.93 290.1 150.22 302.12 151.95 288.54 129.71 281.47 103.55 276.06"/><polygon class="cls-15" points="114.42 270.77 103.55 276.06 151.95 288.54 152.84 281.57 160.78 279.5 114.42 270.77"/><polygon class="cls-3" points="114.71 252.37 114.42 270.77 152.84 281.57 174.83 275.85 114.71 252.37"/></g><g id="shadow"><polygon class="cls-7" points="271.19 273.26 438.38 255.72 565.63 272.03 504.64 294.91 423.13 287.04 352.39 296.24 271.19 273.26"/><polygon class="cls-7" points="89.9 228.85 145.33 221.59 197.47 229.94 143.29 240.88 89.9 228.85"/><polygon class="cls-7" points="201.56 242.87 253.77 233.02 305.45 243.35 255.4 254 201.56 242.87"/><polygon class="cls-7" points="738.19 209.24 490.54 246.65 726.24 285.04 866.03 229.84 788.05 213.88 738.19 209.24"/></g><g id="lamp"><polygon class="cls-6" points="211.89 6.78 252.94 15.91 292.92 6.78 252.41 -0.07 211.89 6.78"/><polygon class="cls-8" points="252.41 4.5 232.12 7.03 252.41 11.51 272.51 7.49 252.41 4.5"/><polygon class="cls-6" points="407.41 10.46 448.46 19.59 488.43 10.46 447.92 3.61 407.41 10.46"/><polygon class="cls-8" points="447.92 8.18 427.63 10.71 447.92 15.19 468.02 11.16 447.92 8.18"/><polygon class="cls-6" points="612.99 6.95 654.04 16.08 694.01 6.95 653.5 0.1 612.99 6.95"/><polygon class="cls-8" points="653.5 4.67 633.21 7.2 653.5 11.68 673.6 7.66 653.5 4.67"/></g><g id="rocket"><polygon class="cls-14" points="560.39 226.43 724.26 205.11 831.32 220.15 801.32 230.83 708.73 261.31 560.39 226.43"/><polygon class="cls-7" points="737.49 215.99 727.83 219.1 693.29 226.32 689.46 214.75 621.07 223.92 641.47 235.74 708.44 244.88 804.82 221.17 737.49 215.99"/><polygon class="cls-16" points="554.5 243.04 560.39 226.43 716.43 249.46 730.22 256.79 718.65 267.87 554.5 243.04"/><polygon class="cls-17" points="835.92 233.16 831.32 220.15 716.43 249.46 718.65 267.87 835.92 233.16"/><polygon class="cls-2" points="644.73 103.42 627.13 111.37 700.98 113.44 681.49 99.07 644.73 103.42"/><polygon class="cls-6" points="632.28 103.12 687.08 93.28 686.15 105.61 676.14 104.61 627.13 111.37 632.28 103.12"/><polygon class="cls-4" points="676.14 104.61 687.08 93.28 705.68 109.65 711.47 128.65 706.23 135.74 695.52 133.18 676.14 104.61"/><polygon class="cls-2" points="708.65 96.42 687.08 93.28 711.47 128.65 720.45 133.1 730.22 127.47 708.65 96.42"/><polygon class="cls-2" points="695.52 133.18 706.93 171 718.33 175.89 723.03 169.66 721.47 143.94 711.47 128.65 695.52 133.18"/><polygon class="cls-6" points="730.22 127.47 711.47 128.65 723.03 169.66 733.33 175.68 741 167.81 730.22 127.47"/><polygon class="cls-18" points="704.69 207.55 706.93 171 723.03 169.66 724.75 192.52 718.65 212.35 711.33 216.96 704.69 207.55"/><polygon class="cls-4" points="738.19 207.82 728.53 216.02 718.65 212.35 723.03 169.66 741 167.81 738.19 207.82"/><polygon class="cls-2" points="689.29 234.24 704.69 207.55 718.65 212.35 725.22 227.49 710.33 237.25 689.29 234.24"/><polygon class="cls-18" points="736.69 232.29 710.33 237.25 718.65 212.35 738.19 207.82 736.69 232.29"/><polygon class="cls-18" points="733.38 139.29 730.22 127.47 756.22 113.35 761.43 130.46 756.96 138.54 748.49 139.29 733.38 139.29"/><polygon class="cls-2" points="756.36 102.14 740.36 100.44 761.43 130.46 773.06 136.77 778.33 129.4 756.36 102.14"/><polygon class="cls-2" points="748.49 139.29 757.35 168.64 766.16 173.54 771.85 167.43 770.45 144.25 761.43 130.46 748.49 139.29"/><polygon class="cls-6" points="778.33 129.4 761.43 130.46 771.85 167.43 779.31 174.31 788.05 165.76 778.33 129.4"/><polygon class="cls-18" points="755.23 203.02 757.35 168.64 771.85 167.43 773.4 188.03 767.91 205.9 759.51 210.3 755.23 203.02"/><polygon class="cls-4" points="785.52 201.81 775.4 210.86 767.91 205.9 771.85 167.43 788.05 165.76 785.52 201.81"/><polygon class="cls-2" points="741.57 227.07 755.23 203.02 767.91 205.9 774.74 218.3 762.74 228.54 741.57 227.07"/><polygon class="cls-18" points="790.76 221.88 762.74 228.54 767.91 205.9 785.52 201.81 790.76 221.88"/><polygon class="cls-4" points="708.65 96.42 740.36 100.44 761.43 130.46 730.22 127.47 708.65 96.42"/><polygon class="cls-13" points="649.64 159.14 651.49 159.38 651.02 161.5 649.59 161.98 648.38 160.92 649.64 159.14"/><polygon class="cls-13" points="649.63 163.26 651.04 163.44 650.68 165.05 649.59 165.42 648.67 164.61 649.63 163.26"/><polygon class="cls-4" points="683.19 161.66 679.43 160.89 674.07 171.14 678.62 183.09 683.27 181.74 685.21 176.57 679.77 171.59 685.37 166 683.19 161.66"/><polygon class="cls-6" points="679.21 165.28 678.62 177.05 685.21 176.57 685.37 166 679.21 165.28"/><polygon class="cls-4" points="637.95 160.22 641.47 159.26 640.84 182.17 635.49 180.56 633.79 174.95 639.34 169.75 635.33 164.48 637.95 160.22"/><polygon class="cls-6" points="641.27 163.86 640.75 176.47 633.79 174.95 635.33 164.48 641.27 163.86"/><polygon class="cls-4" points="637.33 218.62 632.56 213.34 637.33 201.57 657.4 202.22 679.97 202.83 680.14 211.9 678.61 218.13 671.61 220.77 669.28 217.99 662.9 222.07 650.5 221.58 646.53 216.38 642.57 220.27 637.33 218.62"/><path class="cls-6" d="M663.93,202.42l7.51-.58.17,18.93-8.71,1.3Zm-20.43.94,8-1.32-1,19.54-7.93-1.31Z"/><polygon class="cls-16" points="637.33 201.57 641.89 148.95 679.97 150.21 679.43 160.89 679.97 202.83 671.47 205.59 663.74 206.13 651.33 205.38 643.5 203.36 637.33 201.57"/><polygon class="cls-2" points="655.73 229.29 662.9 222.07 657.38 206.67 650.5 221.58 655.73 229.29"/><polygon class="cls-2" points="683.41 227.53 678.61 218.13 679.97 202.83 689.46 214.75 683.41 227.53"/><polygon class="cls-2" points="634.88 227.2 626.1 214.09 637.33 201.57 637.33 218.62 634.88 227.2"/><polygon class="cls-6" points="651.5 147.34 661.05 128.72 672.64 147.34 667.76 154.21 652.86 153.79 651.5 147.34"/><polygon class="cls-4" points="661.05 128.72 679.97 150.21 667.76 154.21 661.05 128.72"/><polygon class="cls-4" points="641.89 148.95 661.05 128.72 652.86 153.79 641.89 148.95"/><polygon class="cls-4" points="651.5 165.28 668.92 165.42 668.92 182.67 649.85 182.67 651.5 165.28"/><polygon class="cls-8" points="654.5 169.08 653.5 179.33 666 179.33 665.42 169.08 654.5 169.08"/></g><g id="characters_3_and_4" data-name="characters 3 and 4"><polygon class="cls-19" points="254.79 234.23 244.34 239.91 251.38 242.95 266.83 242.71 266.83 239.91 254.79 234.23"/><polygon class="cls-17" points="236.08 236.51 229.97 242.95 229.97 245.69 251.24 245.69 251.38 242.95 236.08 236.51"/><polygon class="cls-2" points="274.96 127.25 291.63 158.89 269.05 161.75 274.96 127.25"/><polygon class="cls-17" points="291.63 158.89 272.4 179.61 269.91 158.5 291.63 158.89"/><polygon class="cls-20" points="275.6 189.56 250.8 192.91 250.01 199.75 242.39 216.71 244.9 228.6 244.76 232.42 256.64 227.32 275.6 189.56"/><polygon class="cls-21" points="275.6 189.56 250.8 192.91 241.56 199.71 247.09 216.22 264.07 212.53 275.6 189.56"/><polygon class="cls-17" points="256.64 227.32 266.83 239.91 244.34 239.91 244.9 228.6 256.64 227.32"/><polygon class="cls-2" points="221.11 130.66 201.94 158.89 215.72 163.7 223.66 158.5 221.11 130.66"/><polygon class="cls-17" points="201.94 158.89 221.17 179.61 223.66 158.5 201.94 158.89"/><polygon class="cls-4" points="261.64 123.95 275 137.36 275.6 189.56 249.12 194.06 221.11 189.84 221.34 147.76 221.38 140.97 236.02 124.51 261.64 123.95"/><polygon class="cls-17" points="247.87 189.69 246.92 125.97 249.49 124.22 253.17 125.21 254.23 189.69 247.87 189.69"/><polygon class="cls-17" points="260.03 128.96 260.74 123.97 261.64 123.95 274.96 127.25 275 137.36 260.03 128.96"/><polygon class="cls-17" points="221.11 130.66 236.02 124.51 239.28 124.44 240.51 129.28 221.38 140.97 221.11 130.66"/><polygon class="cls-22" points="276.62 63.51 280.61 110.23 265.6 112.81 261.64 123.95 236.02 124.51 225.72 89.38 226.62 67.17 276.62 63.51"/><polygon class="cls-23" points="265.12 88.68 266.33 90.4 266.98 92.61 264.17 96.79 260.85 93.48 264.37 85.26 260.93 83.14 265.12 80.06 265.12 88.68"/><polygon class="cls-24" points="274.63 78.88 266.33 90.4 266.98 92.61 263.08 89.53 260.85 93.48 249.66 82.12 259.18 80.94 263.08 85.9 265.12 80.06 274.63 78.88"/><polygon class="cls-20" points="259.18 80.94 248.85 78.3 249.66 82.12 259.18 80.94"/><polygon class="cls-20" points="274.33 75.31 265.12 80.06 274.63 78.88 274.33 75.31"/><polygon class="cls-25" points="265.12 80.06 266.98 92.61 260.85 93.48 259.18 80.94 265.12 80.06"/><polygon class="cls-23" points="273.33 99.45 255.2 102.3 255.61 103.97 273.53 101.17 273.33 99.45"/><polygon class="cls-24" points="226.62 67.17 242.45 66.01 249.17 114.18 265.6 112.81 261.64 123.95 236.02 124.51 225.72 89.38 226.62 67.17"/><polygon class="cls-23" points="249.17 114.18 241.98 116.01 249.49 124.22 261.64 123.95 265.6 112.81 249.17 114.18"/><polygon class="cls-26" points="276.62 63.51 260.99 72.87 236.02 68.73 230.81 71.69 226.62 67.17 259.01 54.86 276.62 63.51"/><polygon class="cls-20" points="236.02 68.73 245.19 94.93 240.39 96.88 235.32 86.72 225.72 89.38 226.62 67.17 236.02 68.73"/><polygon class="cls-23" points="234.78 99.8 230.89 107.02 228.97 100.44 234.78 99.8"/><polygon class="cls-23" points="234.95 95.92 233.16 90.44 229.47 91.33 234.95 95.92"/><polygon class="cls-8" points="261.64 123.95 258.23 134.93 249.5 124.22 261.64 123.95"/><polygon class="cls-8" points="249.5 124.22 244.15 134.31 236.02 124.51 249.5 124.22"/><polygon class="cls-20" points="275.6 189.56 255.52 197.56 246.22 201.25 233.57 199.72 221.11 189.84 275.6 189.56"/><polygon class="cls-21" points="250.01 199.75 244.9 228.6 240.2 234.38 229.97 233.62 221.11 189.84 250.01 199.75"/><polygon class="cls-1" points="250.01 199.75 247.09 216.22 226.25 215.21 221.11 189.84 250.01 199.75"/><polygon class="cls-16" points="229.97 233.62 229.97 242.95 251.38 242.95 244.9 228.6 229.97 233.62"/><path class="cls-27" d="M268.11,84.1A2.43,2.43,0,1,0,271,82.27a2.43,2.43,0,0,0-2.91,1.83"/><path class="cls-27" d="M251.87,86.23a2.44,2.44,0,1,0,2.92-1.83,2.43,2.43,0,0,0-2.92,1.83"/><polygon class="cls-24" points="186.4 106.75 191.7 98.64 200.85 102.99 197.31 112.78 187.81 114.43 186.4 106.75"/><polygon class="cls-23" points="184.61 110.39 187.43 107.64 197.31 112.78 191.7 121.14 187.66 124.43 184.61 110.39"/><polygon class="cls-22" points="185.98 121.95 184.61 115.62 182.17 109.55 184.61 101.39 187.81 101.59 187.43 107.64 189.95 112.98 185.98 121.95"/><polygon class="cls-4" points="184.61 115.62 171.4 130.81 171.4 138.91 184.61 144.6 191.7 121.14 184.61 115.62"/><polygon class="cls-17" points="144.25 222.97 142.47 225.78 142.47 228.63 165.34 228.2 165.85 225.78 144.25 222.97"/><polygon class="cls-17" points="124.52 226.19 118.68 230.4 118.68 233.26 138.2 232.65 138.55 230.06 124.52 226.19"/><polygon class="cls-24" points="146.03 112.62 144.92 131.59 132.52 136.53 124.24 136.64 121.1 121.95 124.89 111.38 146.03 112.62"/><polygon class="cls-23" points="150.18 112.86 149.59 122.31 137.53 134.53 135.66 133.11 127.72 121.14 134.09 118.25 139.26 112.23 150.18 112.86"/><polygon class="cls-22" points="153.29 70.45 158.54 111.27 134.09 118.25 115.08 98.12 120.67 94.89 126.23 104.03 127.37 98.04 119.15 76.66 128.32 69.69 140.26 74.38 140.08 69.36 153.29 70.45"/><polygon class="cls-24" points="131.69 88.41 141.15 96.11 142.97 91.17 146.59 94.66 145.67 91.38 152.43 82.47 141.33 79.93 131.69 88.41"/><polygon class="cls-23" points="141.61 88.83 141.15 96.11 144.7 98.66 146.59 94.66 145.67 91.38 143.66 86.37 141.33 79.93 141.61 88.83"/><polygon class="cls-25" points="144.19 80.58 146.59 94.66 141.15 96.11 138.02 82.6 141.33 79.93 144.19 80.58"/><polygon class="cls-24" points="121.1 121.95 118.33 110.29 112.52 99.14 120.67 94.89 116.64 79.5 123.82 81.06 134.09 118.25 121.1 121.95"/><polygon class="cls-20" points="130.79 84.91 141.09 78.77 151.89 78.79 152.43 82.47 141.59 80.87 131.69 88.41 130.79 84.91"/><polygon class="cls-26" points="153.29 70.45 137.3 63.36 111.76 76.78 112.52 80.85 120.3 84.56 140.26 74.38 153.29 70.45"/><polygon class="cls-20" points="111.76 76.78 105.18 84.45 112.52 99.14 120.67 94.89 123.34 102.54 128.1 100.12 120.3 84.56 111.76 76.78"/><polygon class="cls-23" points="152.25 98.64 136.06 103.46 140.95 108.45 150.45 105.58 152.25 98.64"/><polygon class="cls-28" points="150.18 100.71 138.92 104.06 141.4 107.17 149.32 104.74 150.18 100.71"/><polygon class="cls-23" points="119.59 115.62 118.33 110.29 123.26 106.75 119.59 115.62"/><polygon class="cls-23" points="120.91 104.15 119.81 99.04 117.47 100.27 120.91 104.15"/><polygon class="cls-20" points="159.38 198.05 155.05 165.54 148.44 174.78 138.84 199.42 142.35 218.38 148.61 222.51 153.25 217.76 159.38 198.05"/><polygon class="cls-21" points="167.77 171.02 155.05 165.54 135.15 169.17 138.84 199.42 139.22 202.93 159.22 198.56 167.77 171.02"/><polygon class="cls-16" points="154.16 213.41 165.85 225.78 142.47 225.78 142.35 218.38 154.16 213.41"/><polygon class="cls-6" points="110.89 132.79 99.57 161.05 119.44 164.02 110.89 132.79"/><polygon class="cls-17" points="99.57 161.05 119.99 174.78 116.9 154.76 99.57 161.05"/><polygon class="cls-2" points="156.22 119.99 171.4 130.81 184.61 144.6 154.87 145.92 156.22 119.99"/><polygon class="cls-21" points="120.05 202.93 120.31 218.97 124.95 226.93 133.52 221.92 139.22 202.93 135.15 169.17 120.05 202.93"/><polygon class="cls-1" points="119.59 174.59 120.06 203.34 139.22 202.93 143.68 188.08 135.15 169.17 119.59 174.59"/><polygon class="cls-20" points="119.59 174.59 143.68 188.08 167.77 171.02 135.15 169.17 119.59 174.59"/><polygon class="cls-4" points="145.1 123.88 157.44 125.48 167.77 171.02 144.78 172.72 119.59 174.59 112 138.22 123.34 129.86 145.1 123.88"/><polygon class="cls-17" points="143.68 172.81 131.64 128.88 134.78 126.72 137.62 125.94 148.44 172.46 143.68 172.81"/><polygon class="cls-17" points="144.71 128.88 144.33 124.09 145.1 123.88 156.22 119.99 157.44 125.48 144.71 128.88"/><polygon class="cls-17" points="110.89 132.79 122.82 130.01 125.95 130.59 128.1 133.32 112 138.22 110.89 132.79"/><polygon class="cls-8" points="149.59 122.31 144.34 134.8 134.79 126.72 142.68 124.55 149.59 122.31"/><polygon class="cls-8" points="134.79 126.72 132.19 137.23 122.82 130.01 134.79 126.72"/><polygon class="cls-16" points="133.89 220.31 138.55 230.06 118.68 230.4 120.3 218.97 133.89 220.31"/><path class="cls-29" d="M151.1,87.4A2.08,2.08,0,1,1,149,85.32,2.09,2.09,0,0,1,151.1,87.4Z"/><path class="cls-29" d="M138.6,90.91a2.09,2.09,0,1,1-2.08-2.08A2.08,2.08,0,0,1,138.6,90.91Z"/></g><g id="characters_1_and_2" data-name="characters 1 and 2"><polygon class="cls-30" points="422.46 134.29 419.8 129.88 404 140.53 419.9 144.18 422.46 134.29"/><polygon class="cls-30" points="420.72 133.65 419.8 129.88 429.2 124.39 439.19 129.88 427.84 137.41 420.72 133.65"/><path class="cls-30" d="M390.67,150.9l11.39,8.73,9.81-7.52-7.42-14.93s-11,3.09-11.29,4S390.67,150.9,390.67,150.9Z"/><polygon class="cls-17" points="376.56 152.11 379.07 159.34 402.06 159.63 394.41 138.91 378.04 135.21 376.56 152.11"/><path class="cls-20" d="M413.24,233.85a20.73,20.73,0,0,1,4.49.49h0l11.19,2.54,4.27,6.46-1.49,3.15a18.07,18.07,0,0,1,1.08,6.17,18.86,18.86,0,0,1-12.35,17.51L419,273.26l-9.74-2.18h0a19,19,0,0,1-15.51-18.42c0-10.39,8.74-18.81,19.53-18.81"/><path class="cls-26" d="M423.4,236.11c10.78,0,19.53,8.43,19.53,18.82s-8.75,18.82-19.53,18.82-19.54-8.43-19.54-18.82,8.75-18.82,19.54-18.82"/><path class="cls-20" d="M423.4,246a9,9,0,1,1-9.32,9,9.17,9.17,0,0,1,9.32-9"/><polygon class="cls-2" points="415.89 260.25 415.51 251.53 459.96 259.06 464.16 263.78 458.76 265.98 432.84 266.11 418.71 263.91 415.89 260.25"/><polygon class="cls-4" points="467.61 272.44 458.76 265.98 459.96 259.06 485.65 265.27 484.81 276.74 467.61 272.44"/><polygon class="cls-6" points="415.51 251.53 425.67 246.63 446.99 244.5 465.96 253.6 488.63 252.3 498.31 253.2 501.54 258.7 485.65 265.27 468.44 264.79 459.96 259.06 433.31 260.13 419.69 257.26 415.51 251.53"/><polygon class="cls-8" points="503.77 257.15 503.42 268.02 487.05 275.19 487.88 263.72 503.77 257.15"/><path class="cls-20" d="M494.26,250.33a15.75,15.75,0,0,1,4,.27h0l9.95,2,4.12,6.24L511.16,262a20.72,20.72,0,0,1,1.3,6.11c.46,7.93-3.63,15-9.81,18.1l-1.11,3.16-8.65-1.68h0c-7.87-1.33-14.13-8.55-14.65-17.6-.6-10.38,6.57-19.23,16-19.78"/><path class="cls-26" d="M503.29,252.08c9.45-.54,17.6,7.43,18.2,17.8s-6.58,19.23-16,19.78-17.6-7.43-18.2-17.8,6.58-19.23,16-19.78"/><path class="cls-20" d="M503.86,261.91c4.51-.26,8.39,3.54,8.68,8.49s-3.14,9.17-7.65,9.44-8.39-3.55-8.68-8.5,3.14-9.17,7.65-9.43"/><polygon class="cls-31" points="399.33 138.91 394.51 132.75 389.86 129.88 375.18 135.06 396.7 140.53 399.33 138.91"/><polygon class="cls-32" points="398.61 138.91 389.86 140.53 379.35 138.91 379.35 134.29 397.62 136.6 398.61 138.91"/><polygon class="cls-33" points="421.44 146.69 416.67 136.9 394.51 132.75 389.86 140.53 411.87 152.11 421.44 146.69"/><polygon class="cls-17" points="449.29 131.15 441.35 127.66 416.67 136.9 411.87 152.11 437.31 151.97 449.29 131.15"/><polygon class="cls-34" points="479.57 115.85 483.11 116.37 486.92 110.08 493.69 105.62 491.42 102.93 504.38 77.28 485.03 50.21 467.57 73.97 472.42 74.59 463.77 95.97 471.19 109.31 474.26 107.66 479.57 115.85"/><polygon class="cls-35" points="427.04 68.59 423.27 74.74 428.12 89.32 429.66 118.31 452.35 119.12 460.68 133.45 478 135.81 474.96 108.74 471.04 107.12 470.77 92.86 472.42 74.59 427.04 68.59"/><polygon class="cls-32" points="480.19 127.81 483.11 116.37 480.57 107.66 479 97.59 474.28 95.53 473.92 91.55 472.42 74.59 467.57 73.97 457.61 134.62 470.5 131.43 480.19 127.81"/><polygon class="cls-36" points="431.16 65.09 426.81 63.94 424.08 54.71 485.03 50.21 504.38 77.28 473.38 85.36 431.16 65.09"/><polygon class="cls-37" points="439.19 83.97 439.96 100.7 444.62 100.66 447.73 83.97 439.19 83.97"/><polygon class="cls-31" points="441.92 103.47 439.96 100.7 444.62 100.66 441.92 103.47"/><polygon class="cls-32" points="436.73 87.39 439.96 100.7 439.43 88.24 439.15 82.15 434.71 80.65 427.84 83.97 436.73 87.39"/><polygon class="cls-32" points="444.62 100.66 450.15 89.63 461.72 85.01 454.12 81.15 448.09 82.07 444.62 100.66"/><polygon class="cls-31" points="442.81 118.87 475.73 119.74 457.61 134.62 451.36 121.24 442.81 118.87"/><polygon class="cls-31" points="485.3 107.41 482.07 99.76 475.96 103.14 483.11 116.37 483.73 113.83 485.3 107.41"/><polygon class="cls-35" points="475.96 103.14 481.34 87.76 489.03 92.34 485.3 107.41 479.92 104.95 475.96 103.14"/><polygon class="cls-31" points="479 100.18 486.07 94.72 482.23 92.3 479 100.18"/><polygon class="cls-38" points="503.34 100.8 500.72 129.41 491.23 112.26 486.92 112.37 488.4 106.78 494.32 97.18 503.34 100.8"/><polygon class="cls-27" points="483.11 116.37 488.32 107.08 489.69 109.53 491.23 112.26 483.11 116.37"/><polygon class="cls-34" points="418.89 76.82 424.04 67.47 425.89 67.4 427.04 68.59 428.12 89.32 418.89 76.82"/><polygon class="cls-39" points="473.38 85.36 461.04 80.93 459.69 80.43 459.04 80.17 425.62 68.05 418.89 65.63 424.08 54.71 473.38 85.36"/><polygon class="cls-38" points="504.38 77.28 485.03 50.21 424.08 54.71 504.38 77.28"/><polygon class="cls-40" points="449.29 137.97 449.29 127.66 441.35 127.66 430.58 152.01 435 163.71 436.83 191.02 452.69 187.53 480.19 161.42 480.19 127.81 468.9 131.43 467.04 136.47 457.61 134.62 445.88 141.58 449.29 137.97"/><polygon class="cls-34" points="434.38 193.09 429.2 215.68 450.77 209.64 476.57 226.76 488.95 188.34 478.19 179.65 434.38 193.09"/><polygon class="cls-32" points="476.57 226.76 478.76 245.1 476.03 245.29 470.07 243.87 461.48 231.66 466.26 223.21 476.57 226.76"/><polygon class="cls-41" points="480.19 127.81 457.61 134.62 463.26 142.31 480.19 127.81"/><polygon class="cls-41" points="441.58 146.69 449.29 127.66 454.36 127.66 457.61 134.62 441.58 146.69"/><polygon class="cls-32" points="442.72 229.58 437.86 212.07 421.44 222.16 434.49 238.35 437.05 239.31 444.88 238.35 442.72 229.58"/><polygon class="cls-31" points="476.57 226.76 467.84 224.14 456.09 224.65 461.48 231.66 476.57 226.76"/><polygon class="cls-31" points="421.44 222.16 434.95 221 442.02 226.43 442.72 229.58 421.44 222.16"/><polygon class="cls-11" points="430.58 152.01 432.08 192.6 446.5 205.11 463.92 191.61 488.95 188.34 480.19 161.42 430.58 152.01"/><polygon class="cls-38" points="476.57 226.76 442.02 226.43 448.04 203.95 463.92 191.61 476.57 226.76"/><polygon class="cls-38" points="442.02 226.43 463.92 191.61 432.08 192.6 431.54 218.6 442.02 226.43"/><polygon class="cls-36" points="442.02 226.43 421.44 222.16 432.08 192.6 442.02 226.43"/><polygon class="cls-42" points="483 104.99 483.42 110.95 479.69 110.14 481.5 104.3 483 104.99"/><path class="cls-27" d="M435.23,86.51a2.08,2.08,0,1,1,0,4.15,2.08,2.08,0,0,1,0-4.15Z"/><path class="cls-27" d="M451.54,88a2.06,2.06,0,0,1,0,4.12,2.06,2.06,0,1,1,0-4.12Z"/><polygon class="cls-43" points="443.26 253.5 445.53 253.46 446.99 244.5 444.88 238.35 440.26 242 441.45 245.58 443.26 253.5"/><polygon class="cls-43" points="478.76 245.1 482.26 252.79 479.65 259.56 478.76 245.1"/><polygon class="cls-35" points="470.07 243.87 468.5 248.48 472.42 253.06 479.53 254.44 478.76 245.1 470.07 243.87"/><polygon class="cls-11" points="479.53 254.44 468.5 248.48 467.65 250.95 469.88 254.44 479.65 256.79 479.53 254.44"/><polygon class="cls-35" points="479.65 256.79 467.65 250.95 463.92 256.79 469.8 257.94 479.65 256.79"/><polygon class="cls-35" points="434.49 238.35 431.76 243.39 434.88 246.88 439.68 248.58 444.88 238.35 434.49 238.35"/><polygon class="cls-11" points="439.68 248.58 431.76 243.39 430.61 245.23 432.69 248.46 438.38 250.15 439.68 248.58"/><polygon class="cls-35" points="438.38 250.73 430.61 245.23 424.07 250.73 431.65 251.88 438.38 250.73"/><polygon class="cls-43" points="479.65 256.79 479.65 259.56 463.92 259.56 463.92 256.79 479.65 256.79"/><polygon class="cls-43" points="441.34 245.31 442.61 246.62 442.72 249.62 436.49 253.62 424.07 253.62 424.07 250.73 434.38 250.73 441.34 245.31"/><polygon class="cls-32" points="434.38 250.73 424.07 247.58 424.07 250.73 434.38 250.73"/><polygon class="cls-32" points="465.96 253.6 479.65 256.79 463.92 256.79 465.96 253.6"/><polygon class="cls-34" points="439.18 80.33 434.33 79.05 427.46 83.17 427.84 83.97 434.33 81.64 439.15 82.15 439.18 80.33"/><polygon class="cls-34" points="448.09 82.07 453.58 82.16 461.72 85.01 462.19 83.97 453.58 79.31 448.54 80.32 448.09 82.07"/><polygon class="cls-16" points="434.33 106.9 442.1 105.77 452.5 107.22 443.04 113.68 434.33 106.9"/><polygon class="cls-19" points="447.35 109.33 445.34 110.93 441.21 111.02 439.26 109.33 439.97 109.07 446.75 109.07 447.35 109.33"/><polygon class="cls-28" points="437.16 107.52 449.52 107.6 447.35 109.33 439.26 109.33 437.16 107.52"/><polygon class="cls-43" points="456.41 165.34 460.47 157.03 480.19 127.81 492.24 147.54 473.74 172.55 456.41 165.34"/><polygon class="cls-30" points="426.07 163.74 421.44 158.85 410.75 165.01 413.01 174.42 422.66 173.64 426.07 163.74"/><polygon class="cls-35" points="435.25 164.53 431.91 161.82 421.44 158.85 422.66 173.64 434.8 171.46 435.25 164.53"/><polygon class="cls-32" points="431.91 161.82 460.47 157.03 473.74 172.55 432.74 171.83 431.91 161.82"/><polygon class="cls-17" points="388.31 272.03 395.58 274.07 395.58 278.13 363.42 278.13 363.42 273.75 388.21 272.52 388.31 272.03"/><polygon class="cls-16" points="374.33 256.79 379.64 260.81 395.58 274.07 363.42 273.75 364.75 260.68 374.33 256.79"/><polygon class="cls-17" points="346.29 277.27 355.37 282.16 355.37 285.76 330.11 286 330.11 282 346.29 277.27"/><polygon class="cls-16" points="341.8 258.82 347.98 265.27 355.37 282.16 330.11 282 331.31 266.11 341.8 258.82"/><polygon class="cls-44" points="376.16 223.21 390.67 231.66 382.37 253.62 371.6 260.74 365.02 254.93 365.42 246.77 376.16 223.21"/><polygon class="cls-17" points="382.37 253.62 380.47 261.49 364.67 262.31 365.05 254.5 382.37 253.62"/><polygon class="cls-45" points="376.16 223.21 390.67 231.66 365.42 246.77 365.86 237.46 376.16 223.21"/><polygon class="cls-44" points="345.49 224.14 355.32 246.77 351.53 256.33 340.65 260.3 332.1 254.5 333.19 238.35 345.49 224.14"/><polygon class="cls-17" points="351.53 256.33 347.98 265.27 331.31 266.11 332.1 254.5 351.53 256.33"/><polygon class="cls-45" points="345.49 224.14 358.66 238.35 355.32 246.77 333.02 240.91 345.49 224.14"/><polygon class="cls-21" points="372.49 193.14 379.07 200.71 390.67 231.66 365.86 237.46 349.87 225.29 352.97 209.02 372.49 193.14"/><polygon class="cls-20" points="388.43 225.69 390.67 231.66 365.86 237.46 358.65 231.97 388.43 225.69"/><polygon class="cls-15" points="333.02 240.91 358.66 238.35 358.63 221 334.35 191.02 318.49 197.88 333.02 240.91"/><polygon class="cls-21" points="333.02 240.91 358.66 238.35 358.65 231.97 330.63 233.84 333.02 240.91"/><polygon class="cls-20" points="334.35 185.54 318.49 197.88 358.63 221 379.07 200.71 334.35 185.54"/><polygon class="cls-2" points="356.81 201.29 376.75 199.92 379.35 193.94 354.52 191.02 356.81 201.29"/><polygon class="cls-8" points="347.95 194.99 376.48 194.37 378.88 144.6 374.33 138.91 357.73 138.91 347.95 194.99"/><polygon class="cls-9" points="379.35 135.81 385.53 139.86 380.83 167.58 385.3 200.04 373.73 206.01 372.33 162.57 373.78 142.5 379.35 135.81"/><polygon class="cls-9" points="346.5 134.29 340.06 138.5 332.02 138.91 334.35 157.63 323.41 170.8 318.49 197.88 353.66 206.48 367.16 182.88 372.49 163.14 366.48 142.5 346.5 134.29"/><polygon class="cls-16" points="371.8 127.46 377.8 128.93 389.86 129.88 373.78 142.5 371.8 127.46"/><polygon class="cls-46" points="377.25 75.99 382.89 69.89 389.3 68.69 398.61 119.8 381.77 124.08 361.5 127.36 352 90.72 350.05 74.35 363.93 72.67 377.25 75.99"/><polygon class="cls-44" points="373.78 127.74 398.61 119.8 361.73 126.51 354.25 89.13 350.05 74.35 341.84 84.39 344.16 92.18 349.87 101.73 347.3 102.42 344.8 101.77 342.82 103.01 340.38 97.71 337.65 101.89 334.35 103.74 339.25 107.77 341.47 112.68 342.89 115.77 341.93 123 347.13 137.14 373.78 142.5 373.78 127.74"/><polygon class="cls-47" points="392 83.55 394.41 62.6 385.3 67.24 392 83.55"/><polygon class="cls-44" points="358.63 86.94 369.84 92.76 376.16 101.77 375.56 93.55 373.08 87.95 371.7 83.81 358.63 86.94"/><polygon class="cls-44" points="379.35 82.68 379.35 87.09 378.82 91.29 380.93 96.39 389.86 82.68 384.22 81.01 379.35 82.68"/><polygon class="cls-47" points="363.88 80.12 358.63 86.94 371.7 83.81 363.88 80.12"/><polygon class="cls-47" points="383.91 77.61 389.86 82.68 379.35 82.68 383.91 77.61"/><polygon class="cls-48" points="379.35 87.09 382.18 100.62 379.7 104.32 376.16 101.77 373.08 87.95 379.35 87.09"/><polygon class="cls-46" points="344.94 105.81 346.5 108.53 338.37 113.92 333.77 104.32 340.38 97.71 344.94 105.81"/><polygon class="cls-26" points="377.25 75.99 394.41 62.6 358.63 53.73 360.69 67.43 377.25 75.99"/><polygon class="cls-1" points="377.25 75.99 358.63 53.73 328.69 72.16 338.93 75.28 350.05 74.35 377.25 75.99"/><polygon class="cls-26" points="328.69 72.16 330.25 96.39 335.15 92.91 341.84 84.39 350.05 74.35 328.69 72.16"/><polygon class="cls-47" points="341.84 84.39 349.87 101.73 344.59 105.25 340.38 97.71 333.77 104.32 330.25 96.39 341.84 84.39"/><polygon class="cls-45" points="336.88 105.92 339.83 102.97 342.57 107.53 336.88 105.92"/><polygon class="cls-45" points="338.37 113.92 346.5 108.53 341.93 123 338.37 113.92"/><polygon class="cls-45" points="382.18 100.62 379.92 104.86 376.16 101.77 382.18 100.62"/><path class="cls-27" d="M370.18,92.22a2.56,2.56,0,1,1-2.56-2.55A2.56,2.56,0,0,1,370.18,92.22Z"/><path class="cls-27" d="M387.85,89.3a2.55,2.55,0,1,1-2.55-2.55A2.55,2.55,0,0,1,387.85,89.3Z"/><polygon class="cls-45" points="354.52 127.25 398.61 119.8 377.8 128.93 373.78 142.5 366.48 142.5 354.52 127.25"/><polygon class="cls-45" points="387.52 106.42 370.24 108.53 376.26 115.54 384.64 114.17 387.52 106.42"/><polygon class="cls-28" points="384.92 108.36 373.78 109.97 377.01 113.41 383.54 112.25 384.92 108.36"/><polygon class="cls-11" points="341.93 123 340.06 138.5 366.48 142.5 371.8 131.35 341.93 123"/><polygon class="cls-44" points="407.99 167.79 414.66 157.64 421.44 158.85 425.34 173.16 416.21 176.45 407.99 167.79"/><polygon class="cls-46" points="393.91 172.39 401.11 163.9 414.66 157.64 416.21 176.45 404 176.45 393.91 172.39"/><polygon class="cls-44" points="361.1 160.43 372.49 163.14 401.11 163.9 404 176.45 367.16 182.88 361.1 160.43"/><polygon class="cls-17" points="332.02 138.91 323.41 170.8 367.16 182.88 372.49 163.14 332.02 138.91"/><polygon class="cls-49" points="419.8 129.88 428.19 135.64 425.77 138.91 416.67 136.9 419.8 129.88"/></g></svg>