<svg id="ILLUSTRATION" xmlns="http://www.w3.org/2000/svg" viewBox="0 0 900 350"><defs><style>.cls-1{fill:#a3a3a3;}.cls-1,.cls-10,.cls-11,.cls-12,.cls-13,.cls-14,.cls-15,.cls-16,.cls-17,.cls-18,.cls-19,.cls-2,.cls-20,.cls-21,.cls-23,.cls-24,.cls-25,.cls-26,.cls-27,.cls-28,.cls-29,.cls-3,.cls-30,.cls-31,.cls-32,.cls-33,.cls-34,.cls-35,.cls-36,.cls-37,.cls-38,.cls-39,.cls-4,.cls-40,.cls-41,.cls-5,.cls-6,.cls-8,.cls-9{fill-rule:evenodd;}.cls-2{fill:#c4c4c4;}.cls-3{fill:#cfcfcd;}.cls-4,.cls-7{fill:#dddddc;}.cls-5{fill:#9ca0a1;}.cls-37,.cls-6{fill:#ececeb;}.cls-8{fill:#010101;}.cls-36,.cls-8{opacity:0.1;}.cls-9{fill:#8b6651;}.cls-10{fill:#dfbda5;}.cls-11{fill:#c2987a;}.cls-12{fill:#96647c;}.cls-13,.cls-22{fill:#734d61;}.cls-14{fill:#b3889d;}.cls-15{fill:#543042;}.cls-16{fill:#9075a0;}.cls-17{fill:#a588b9;}.cls-18{fill:#795d88;}.cls-19{fill:#e9cbb7;}.cls-20{fill:#d1a1b9;}.cls-21,.cls-36,.cls-42{fill:#2b2b2b;}.cls-23{fill:#fff;}.cls-24{fill:#6f7273;}.cls-25{fill:#4f5353;}.cls-26{fill:#737474;}.cls-27{fill:#474748;}.cls-28{fill:#c1907c;}.cls-29{fill:#f5cbb3;}.cls-30{fill:#fde4d5;}.cls-31{fill:#fff0e9;}.cls-32{fill:#bf9c83;}.cls-33{fill:#a77e62;}.cls-34{fill:#835941;}.cls-35{fill:#c9ad9c;}.cls-37{opacity:0.3;}.cls-38{fill:#805e4f;}.cls-39{fill:#593e35;}.cls-40{fill:#a27e6e;}.cls-41{fill:#aa8d80;}</style></defs><title>analysts_Commander_ENTJ_workplace_habits</title><polygon class="cls-1" points="304.83 110.72 334.83 60.07 806.85 10.22 896.83 33.09 876.83 294.63 336.83 232.66 304.83 110.72"/><polygon class="cls-2" points="304.83 110.72 334.96 36.71 899.5 0.44 896.83 33.09 334.83 60.07 304.83 110.72"/><polygon class="cls-3" points="1.67 30.42 155.53 27.79 334.83 60.07 336.83 232.66 7.83 295.46 1.67 30.42"/><polygon class="cls-4" points="0.83 -0.06 334.96 36.71 334.83 60.07 1.67 30.42 0.83 -0.06"/><polygon class="cls-5" points="8.17 41.08 125.5 47.75 128.5 268.64 122.33 273.6 26.67 291.8 14.17 258.31 8.17 41.08"/><polygon class="cls-6" points="1.67 30.42 134.5 42.25 137.58 270.72 122.33 273.6 120.17 55.74 19.17 50.08 26.67 291.8 5 296.3 1.67 30.42"/><ellipse class="cls-7" cx="36.83" cy="180.27" rx="6.5" ry="8.75"/><polygon class="cls-8" points="281.21 91.4 262.4 69.31 265.46 145.21 286.62 141.92 281.21 91.4"/><polygon class="cls-4" points="308.01 114.27 319.61 129.31 326.58 140.75 273.77 146.7 270.71 139.02 308.01 114.27"/><polygon class="cls-6" points="262.4 69.31 316.79 73.23 319.61 129.31 270.71 139.02 262.4 69.31"/><polygon class="cls-4" points="274 67.9 274.16 73.78 277.45 73.86 276.98 68.45 274 67.9"/><polygon class="cls-4" points="305.35 69.31 305.5 75.19 308.8 75.27 308.32 69.86 305.35 69.31"/><polygon class="cls-4" points="271.49 92.34 272.98 102.76 278.08 102.05 276.74 91.95 271.49 92.34"/><polygon class="cls-4" points="281.6 101.66 278.86 83.8 285.36 83.33 287.17 101.19 281.6 101.66"/><polygon class="cls-4" points="290.62 93.44 291.48 100.02 296.65 99.55 295.55 92.89 290.62 93.44"/><polygon class="cls-4" points="299.47 93.28 300.41 99.31 305.27 98.69 304.25 92.5 299.47 93.28"/><polygon class="cls-4" points="308.4 94.85 309.26 98.29 313.97 97.98 313.11 94.22 308.4 94.85"/><polygon class="cls-4" points="271.18 108.16 315.06 103.89 315.18 106.13 271.34 110.47 271.18 108.16"/><polygon class="cls-4" points="271.96 118.74 316 113.22 316.12 115.45 272.28 121.48 271.96 118.74"/><polygon class="cls-4" points="273.61 128.14 317.49 122.38 317.61 124.61 273.77 131.19 273.61 128.14"/><polygon class="cls-8" points="284.6 314.19 207.33 300.96 148.54 311.84 68.5 300.63 0.5 319.28 82.83 336.28 145.46 322.3 200.33 329.61 284.6 314.19"/><polygon class="cls-8" points="272.83 320.95 517.83 276.97 786.83 272.97 831.83 249.57 876.83 294.63 769.83 331.44 702.33 318.95 544.83 349.94 272.83 320.95"/><polygon class="cls-9" points="296.51 170.63 302.71 165.9 289.27 162.43 284.05 166.89 296.51 170.63"/><polygon class="cls-10" points="281.81 155.83 315.37 160.53 312.93 165.15 289.03 166.91 279.29 173.82 277.92 164.46 281.81 155.83"/><polygon class="cls-11" points="279.29 173.82 289.03 166.91 296.51 170.63 295.29 174.28 279.29 173.82"/><polygon class="cls-12" points="250.13 151.38 270.77 154.28 274.19 166.47 267.81 175.37 238.47 178.59 236.62 164.44 250.13 151.38"/><polygon class="cls-13" points="281.81 155.83 279.29 173.82 267.81 175.37 270.77 154.28 281.81 155.83"/><polygon class="cls-14" points="250.13 151.38 238.47 178.59 219.86 180.64 226.97 148.13 250.13 151.38"/><polygon class="cls-15" points="153.67 267.73 172.55 270.25 186.07 243.51 172.81 243.5 153.67 267.73"/><polygon class="cls-16" points="230.84 250.83 219.53 272.08 194.65 285.3 185.17 250.83 222.68 232.1 230.84 250.83"/><polygon class="cls-13" points="219.53 272.08 201.44 275.54 192.51 276.88 195.87 297.64 203.57 297.64 208.34 292.64 219.53 272.08"/><polygon class="cls-12" points="208.34 292.64 228.81 307.96 212.58 310.46 194.25 307.96 195.87 297.64 208.34 292.64"/><polygon class="cls-13" points="196.1 312.97 203.43 312.97 204.78 310.31 212.95 312.97 229.06 312.97 229.06 307.96 196.1 307.96 196.1 312.97"/><polygon class="cls-17" points="205.3 258.85 201.44 275.54 188.26 279.1 175.07 277.76 163.58 243.5 184.37 226.09 198.72 250.83 205.3 258.85"/><polygon class="cls-12" points="175.07 277.76 181.78 300.29 189.53 302.36 195.87 297.64 201.44 275.54 175.07 277.76"/><polygon class="cls-14" points="195.87 297.64 203.43 312.97 192.51 315.76 177.39 312.97 181.78 300.29 195.87 297.64"/><polygon class="cls-18" points="230.13 232.1 205.3 258.85 167.29 233.68 202.63 219.72 230.13 232.1"/><polygon class="cls-16" points="208.6 164.99 198.05 174.67 197.43 198.7 202.63 219.72 217.76 230.05 216.19 193.99 208.6 164.99"/><polygon class="cls-17" points="198.05 174.67 185.3 170.34 183.19 199.92 186.56 231.62 202.63 219.72 198.05 174.67"/><polygon class="cls-4" points="212.87 181.7 184.12 182.88 184.51 191.35 213.87 188.33 212.87 181.7"/><polygon class="cls-4" points="215.86 201.62 184.23 204.3 185.51 212.56 216.92 208.7 215.86 201.62"/><polygon class="cls-17" points="157.83 161.01 136.33 170.98 163.58 189.23 162.08 162.45 157.83 161.01"/><polygon class="cls-18" points="136.33 170.98 135.07 189.23 166.5 195.04 161.4 183.08 136.33 170.98"/><polygon class="cls-14" points="161.13 191.49 135.07 189.23 132.42 206.84 166.5 210.56 161.13 191.49"/><polygon class="cls-15" points="226.97 148.13 230.84 250.83 217.76 230.05 208.6 164.99 215.15 157.47 226.97 148.13"/><polygon class="cls-13" points="185.3 170.34 186.56 231.62 153.67 267.73 157.83 161.01 175.31 162.92 185.3 170.34"/><polygon class="cls-10" points="171.64 144.38 170.76 134.03 170.51 119.81 166.12 118.49 161.87 121.65 162.13 116.73 160.56 115.12 166.63 83.11 223.2 79.64 230.09 140.01 209.82 142.5 199.53 155.9 192.7 172.15 192.16 160.57 187.66 153.54 179.28 145.69 171.64 144.38"/><polygon class="cls-11" points="179.51 82.32 182.08 88.81 182.92 92.48 187.01 145.67 209.82 142.5 202.22 149.88 201.26 157.32 204.97 159.26 198.05 174.67 184.85 158.22 166.5 151.03 168.89 128.33 172.27 121.92 170.51 119.81 161.87 121.65 160.56 115.12 164.67 104 166.63 83.11 179.51 82.32"/><polygon class="cls-9" points="168.24 109.89 172.6 112.99 165.87 115.33 165.24 111.93 168.24 109.89"/><polygon class="cls-11" points="182.92 92.48 194.67 95.37 200.58 110.79 197.8 89.86 182.92 92.48"/><polygon class="cls-11" points="219.5 88.48 209.09 99.11 207.84 88.84 219.5 88.48"/><polygon class="cls-19" points="207.84 88.84 210.1 109.92 200.58 110.79 197.8 89.86 207.84 88.84"/><polygon class="cls-9" points="210.1 109.92 206.5 114.86 200.58 110.79 210.1 109.92"/><polygon class="cls-9" points="179.28 145.69 203.49 159.26 209.82 142.5 179.28 145.69"/><polygon class="cls-9" points="215.07 119.46 198.51 120.7 197.18 131.52 217.5 129.69 215.07 119.46"/><polygon class="cls-16" points="166.63 83.11 173 106.65 160.56 115.12 166.63 83.11"/><polygon class="cls-13" points="132.58 101.8 139.12 100.24 143.25 96.33 153.2 82.19 160.21 64.44 168.97 55.3 167.44 41.28 191.92 43.16 209.93 38.09 217.01 53.02 225.39 63.73 231.26 75.72 237.42 83.67 239.62 89.7 248.08 92.37 233.25 99.03 226.96 104.96 226.35 92.47 223.2 79.64 193.86 79.78 166.63 83.11 162.14 101.11 160.56 115.12 145.34 111.31 131.5 111.76 133.75 107.47 132.58 101.8"/><polygon class="cls-14" points="132.58 101.8 156.31 107.9 143.25 96.33 132.58 101.8"/><polygon class="cls-12" points="156.31 107.9 165.23 77.77 157.6 63.94 143.25 96.33 156.31 107.9"/><polygon class="cls-15" points="165.23 77.77 203.39 74.02 167.44 41.28 157.6 63.94 165.23 77.77"/><polygon class="cls-13" points="203.39 74.02 223.89 71.75 225.39 63.73 209.93 38.09 196.65 66.89 203.39 74.02"/><polygon class="cls-20" points="209.93 38.09 196.65 66.89 167.44 41.28 209.93 38.09"/><polygon class="cls-12" points="237.42 83.67 233.56 94.17 223.89 71.75 225.39 63.73 237.42 83.67"/><polygon class="cls-14" points="237.42 83.67 233.56 94.17 251.88 91.3 237.42 83.67"/><polygon class="cls-15" points="251.88 91.3 250.72 97.42 226.27 106.58 223.2 79.64 223.89 71.75 233.85 92.61 251.88 91.3"/><polygon class="cls-15" points="165.23 77.77 166.63 83.11 160.56 115.12 131.5 111.76 132.58 101.8 151.16 103.33 165.23 77.77"/><polygon class="cls-12" points="223.89 71.75 203.39 74.02 165.23 77.77 166.63 83.11 223.2 79.64 223.89 71.75"/><polygon class="cls-12" points="192.89 44.76 197.8 31.52 188.07 17.91 192.89 44.76"/><polygon class="cls-14" points="192.89 44.76 188.07 17.91 182.28 31.52 192.89 44.76"/><polygon class="cls-9" points="170.51 119.81 177.24 118.14 168.89 128.33 170.51 119.81"/><polygon class="cls-12" points="189.64 157.33 166.5 151.03 152.57 146.03 157.83 161.01 198.05 174.67 189.64 157.33"/><polygon class="cls-15" points="167.44 142.66 152.57 146.03 166.5 151.03 167.44 142.66"/><polygon class="cls-12" points="209.35 142.35 198.05 174.67 226.97 148.13 209.35 142.35"/><path class="cls-21" d="M194.24,95.8A2.78,2.78,0,1,1,192,92.56,2.79,2.79,0,0,1,194.24,95.8Z"/><path class="cls-21" d="M215.77,93.26A2.78,2.78,0,1,1,213.56,90,2.78,2.78,0,0,1,215.77,93.26Z"/><polygon class="cls-16" points="219.25 82.9 205.77 86.09 199.17 87.06 182.08 88.81 182.92 92.48 198.08 92.48 208.08 91.23 219.5 88.48 219.25 82.9"/><rect class="cls-22" x="177.39" y="312.97" width="26.04" height="5.01"/><polygon class="cls-23" points="200.09 122.85 213.82 121.7 214.53 125.14 199.69 126.35 200.09 122.85"/><polygon class="cls-12" points="165.25 207.42 132.42 206.84 137.08 232.08 166.46 226.37 170.09 220.25 165.25 207.42"/><polygon class="cls-11" points="177.46 212.5 174.17 207.59 184.46 198.63 184.58 214.25 177.46 212.5"/><polygon class="cls-3" points="179.58 181.52 182.08 236.74 219.96 233.41 218.33 181.02 179.58 181.52"/><polygon class="cls-6" points="185.58 181.39 184.25 234.41 219.96 233.41 224.83 180.52 185.58 181.39"/><polygon class="cls-11" points="187.04 208.63 190.83 200.67 204.08 204.92 202.63 219.72 192.58 222.25 187.04 208.63"/><polygon class="cls-10" points="171.83 214.83 174.17 207.59 190.83 200.67 192.58 222.25 177.08 224.37 171.83 214.83"/><polygon class="cls-15" points="165.25 207.42 166.46 226.37 177.08 224.37 174.25 207.42 165.25 207.42"/><polygon class="cls-18" points="591.5 156.69 599.83 148.37 622.5 191.01 592.5 206 591.5 156.69"/><polygon class="cls-18" points="548.33 152.53 540.17 146.7 498.17 184.01 520.17 194.68 543.17 183.35 548.33 152.53"/><polygon class="cls-16" points="539.33 167.02 531.5 189.01 533.58 221 605.08 220.75 598.17 192.51 586.5 182.35 539.33 167.02"/><polygon class="cls-17" points="554.08 141.29 540.17 146.7 531.5 189.01 598.17 192.51 599.83 148.37 590.32 145.06 554.08 141.29"/><polygon class="cls-24" points="559.7 61.17 549.35 53.24 529.3 62.49 523.78 80.27 574.46 84.73 559.7 61.17"/><polygon class="cls-25" points="583.5 68.66 583.05 59.85 549.35 53.24 537.01 81.65 592.53 83.85 583.5 68.66"/><polygon class="cls-26" points="585.92 78.56 598.25 75.7 583.05 59.85 558.22 71 575.34 86.27 585.92 78.56"/><polygon class="cls-26" points="593.41 80.11 600.46 80.55 595.61 100.22 580.63 113.36 569.4 90.46 593.41 80.11"/><polygon class="cls-27" points="567.85 84.07 575.56 78.81 598.25 75.7 600.46 80.55 582.61 88.25 567.85 84.07"/><polygon class="cls-28" points="591.21 110.27 594.36 113.43 593.77 118.27 575.27 112.55 591.21 110.27"/><polygon class="cls-29" points="563.01 141.76 563.89 154.53 590.32 145.06 593.77 118.27 585.11 111.67 587.68 104.77 580.85 103.52 582.61 88.25 575.56 78.81 555.52 113.8 563.01 141.76"/><polygon class="cls-28" points="535.69 129.21 563.89 154.53 580.63 135.81 574.1 135.45 554.2 128.77 535.69 129.21"/><polygon class="cls-30" points="523.78 80.27 524.27 133.49 574.1 135.45 575.56 78.81 558.22 71 523.78 80.27"/><polygon class="cls-29" points="533.72 89.22 529.73 90.36 532.82 95.49 524.87 97.22 536.24 102.08 537.95 109.08 524.03 110.71 544.48 114.39 548.7 112.91 551.08 114.57 574.65 112.44 554.48 109.65 557.16 100.78 572.72 97.85 561.15 95.9 567.5 92.07 562.13 89.55 552.2 91.42 551.47 94.84 546.34 96.39 545.32 94.51 544.06 91.26 533.72 89.22"/><polygon class="cls-31" points="543.51 106.82 544.64 111.47 544.48 114.39 547.41 116.16 551.08 114.57 551.08 111.4 551.99 110.24 551.99 96.87 543.51 97.67 543.51 106.82"/><polygon class="cls-18" points="542.59 96.14 545.32 94.51 551.32 94.55 552.12 98.77 543.87 98.46 542.59 96.14"/><path class="cls-16" d="M522,94l-.29,16.76,23,.67.68-16.95Zm19.29,14.53-16.38-1V97.22l17.25.78Z"/><path class="cls-16" d="M551.32,94.55l-.24,16.85,23.57,1,.49-17.76Zm19.36,14-16.38-1V97.22l17.25.78Z"/><polygon class="cls-25" points="547.35 117.02 544.48 114.39 551.08 114.57 547.35 117.02"/><polygon class="cls-29" points="547.33 125.65 532.98 122.63 546.49 122.22 562.38 123.56 547.33 125.65"/><polygon class="cls-26" points="532.98 122.63 544.48 114.39 547.27 116.65 551.08 114.57 562.38 123.56 532.98 122.63"/><polygon class="cls-26" points="530.05 86.95 543.98 87.35 544.06 91.26 529.73 90.36 530.05 86.95"/><polygon class="cls-26" points="552.77 87.6 567.42 88.17 567.5 92.07 552.2 91.42 552.77 87.6"/><path class="cls-21" d="M540.56,102.77a2.9,2.9,0,1,1-2.9-2.89A2.89,2.89,0,0,1,540.56,102.77Z"/><path class="cls-21" d="M569.21,103.1a2.89,2.89,0,1,1-2.89-2.89A2.89,2.89,0,0,1,569.21,103.1Z"/><polygon class="cls-30" points="586.14 99.04 585.11 111.67 594.36 113.43 595.61 100.22 586.14 99.04"/><polygon class="cls-28" points="592.82 103.59 588.93 102.49 588.49 107.7 592.82 103.59"/><polygon class="cls-12" points="503.17 160.03 516.33 159.03 526.17 192.01 515.83 204.34 503.17 160.03"/><polygon class="cls-20" points="493.5 168.02 483.17 163.36 489.17 159.69 516.33 159.03 511.5 162.69 493.5 168.02"/><polygon class="cls-14" points="483.17 163.36 488.17 206 515.83 204.34 511.5 162.69 483.17 163.36"/><polygon class="cls-28" points="498.5 177.19 483.83 170.52 486.83 195.68 496.83 191.51 498.5 177.19"/><polygon class="cls-25" points="383.5 201.67 387.46 217.87 376.5 227 380.5 260.31 436.17 248.98 426.25 212.5 383.5 201.67"/><polygon class="cls-27" points="383.5 201.67 378.17 216 376.5 227 426.25 212.5 383.5 201.67"/><polygon class="cls-32" points="468.62 215.74 469.43 224 483.83 228.4 487.32 217.9 477.94 211.13 475.05 209.11 468.62 215.74"/><polygon class="cls-33" points="478.51 209.98 469.43 224 461.54 213.98 461.28 203.65 478.51 209.98"/><polygon class="cls-32" points="460.44 202.39 466.97 203.94 476.2 204.54 482.73 210.02 480.92 211.94 474.32 210.31 468.31 211.41 460.44 202.39"/><polygon class="cls-18" points="418.5 160.69 427.18 150.88 447.83 187.78 435.33 201.26 419.67 179.02 418.5 160.69"/><polygon class="cls-16" points="422.27 163.01 435.84 173.98 426.33 212.5 419.5 211.17 409.92 211.75 382.33 210.5 373.44 176 422.27 163.01"/><polygon class="cls-17" points="391.36 135.29 389.79 145.18 372.87 153.19 373.44 176 435.84 173.98 427.18 150.88 391.36 135.29"/><polygon class="cls-27" points="442.41 137.33 445.33 146.28 419.08 147.28 417.76 129.8 428.11 131.63 442.41 137.33"/><polygon class="cls-27" points="400.71 59.9 393.08 57.33 371.83 79.19 377.05 93.42 398.42 84.04 421.27 84.04 408.22 72.99 400.71 59.9"/><polygon class="cls-24" points="456.3 84.04 460.26 90.33 450.17 115.75 443.74 111.93 445.96 94.15 456.3 84.04"/><polygon class="cls-24" points="429.21 65 430.25 55.58 449 68.11 449.3 81.87 440.22 76.93 429.21 65"/><polygon class="cls-32" points="408.22 72.99 438.16 75.62 440.22 76.93 443.17 78.99 445.96 94.15 447.5 110.31 443.38 123.98 442.41 137.33 425.14 137.25 409.79 147.62 392.56 130.44 398.42 84.04 408.22 72.99"/><polygon class="cls-34" points="425.14 137.25 411.92 160.09 396.24 139.74 402.23 136.86 425.14 137.25"/><polygon class="cls-33" points="411.92 160.09 390.02 145.45 384.8 133.37 383.33 125.63 379.96 101.88 390.31 89.19 398.42 84.04 401.92 136.86 398.09 140.97 411.92 160.09"/><polygon class="cls-27" points="389.58 104.26 384.63 104.26 379.96 101.88 390.31 89.19 398.42 84.04 395.78 103.64 389.58 104.26"/><polygon class="cls-27" points="445.96 94.15 450.17 115.75 443.38 123.98 445.96 94.15"/><polygon class="cls-34" points="393.61 111.73 385.72 120.92 384.41 112.9 387.38 109.88 393.61 111.73"/><polygon class="cls-25" points="408.22 72.99 393.08 57.33 430.25 55.58 440.22 76.93 408.22 72.99"/><polygon class="cls-24" points="398.42 84.04 371.83 79.19 373.31 107.06 398.42 84.04"/><polygon class="cls-27" points="390.02 145.45 367.83 141.2 379.96 110.31 382.61 98.63 384.41 112.9 390.02 145.45"/><polygon class="cls-25" points="367.83 141.2 373.31 107.06 382.61 98.63 384.41 112.9 367.83 141.2"/><polygon class="cls-25" points="445.96 94.15 460.26 90.33 449 68.11 440.22 76.93 445.96 94.15"/><polygon class="cls-23" points="424.52 121.68 414.77 123.06 426.49 127.51 433.65 124.25 424.52 121.68"/><polygon class="cls-14" points="424.45 125.25 413.93 123.06 424.11 128.99 433.65 124.25 424.45 125.25"/><polygon class="cls-33" points="429.92 92.28 437.64 92.2 441.07 94.39 435.97 100.22 428.85 110.84 424.49 108.59 421.3 110.47 412.98 97.89 407.61 92.7 413.48 91.65 421.47 92.35 422.22 95.93 425.27 99.4 427.07 98.13 428.44 96.18 429.92 92.28"/><polygon class="cls-34" points="425.05 109.88 428.85 110.84 425.07 114.35 421.3 110.47 425.05 109.88"/><path class="cls-21" d="M410,99a3,3,0,1,0,3.19-2.7A3,3,0,0,0,410,99Z"/><path class="cls-21" d="M431.29,99.86a3,3,0,1,0,3.2-2.69A3,3,0,0,0,431.29,99.86Z"/><polygon class="cls-35" points="428.44 96.18 428.85 110.84 421.3 110.47 422.22 95.93 428.44 96.18"/><polygon class="cls-25" points="421.47 88.85 408.11 90.46 407.61 92.7 421.47 92.35 421.47 88.85"/><polygon class="cls-25" points="430.13 89.12 440.82 91.9 441.07 94.39 429.92 92.28 430.13 89.12"/><polygon class="cls-12" points="413.93 123.06 424.52 119.53 433.65 124.25 424.52 122.91 413.93 123.06"/><polygon class="cls-32" points="392.39 97.82 382.61 98.63 384.41 112.9 393.61 111.73 392.39 97.82"/><polygon class="cls-34" points="385.73 102.04 389.53 102.04 389.67 107.83 385.73 102.04"/><polygon class="cls-18" points="355.83 202.34 382.17 198.68 383.83 176.35 372.87 153.19 355.83 202.34"/><polyline class="cls-6" points="430.65 174.21 419.83 192.32 420.21 208.25 426.25 212.5 409.92 211.75 415.92 208.13 415.21 192.07 402.52 175.14"/><polygon class="cls-14" points="415.58 188.51 408.21 177.89 424.83 177.02 419.33 189.14 415.58 188.51"/><polygon class="cls-33" points="404.5 194.18 410.5 185.68 425 190.84 421.83 202.34 411.17 205.84 404.5 194.18"/><polygon class="cls-32" points="390.67 202.17 395.83 193.34 410.5 185.68 411.17 205.84 399.5 208.34 390.67 202.17"/><polygon class="cls-17" points="395.83 193.34 355.83 202.34 371.83 218.66 399.5 208.34 395.83 193.34"/><polygon class="cls-17" points="469.08 204.01 445.5 183.43 435.33 201.26 462.33 215.38 469.08 204.01"/><polygon class="cls-2" points="621.58 245.04 620.83 223.66 621.08 94.25 802.5 91.06 801.18 261.64 621.58 245.04"/><polygon class="cls-26" points="637.33 208.41 636.72 194.61 636.92 111.08 784.67 117.96 785.05 219.13 637.33 208.41"/><polygon class="cls-13" points="486.33 271.14 540.83 338.11 673.83 311.62 720.83 302.13 715.83 253.15 486.33 271.14"/><polygon class="cls-12" points="357.33 267.64 357.33 316.62 540.83 338.11 540.46 313.5 357.33 267.64"/><polygon class="cls-1" points="494.17 258.98 540.46 313.5 703.5 269.64 700.17 232.33 494.17 258.98"/><polygon class="cls-2" points="462.17 250.98 342.17 256.31 341.5 280.97 540.46 313.5 540.17 290.96 462.17 250.98"/><polygon class="cls-6" points="712.83 192.18 342.17 256.31 540.17 290.96 782.17 225 712.83 192.18"/><polygon class="cls-36" points="497.17 241.99 454.17 251.32 559.17 269.97 621.83 253.32 591.17 243.99 592.83 233.99 660.5 246.65 730.83 230.33 678.83 220.33 555.83 229.33 497.17 241.99"/><polygon class="cls-15" points="629.78 217.74 647 182.35 702.67 193.84 671.5 218.34 629.78 217.74"/><polygon class="cls-13" points="612.73 208.3 598.11 192.47 647 182.35 649.88 213.47 612.73 208.3"/><polygon class="cls-13" points="649.88 214.69 661.67 214 674.3 202.31 702.83 208.17 703.17 229 663.67 237.82 649.88 214.69"/><polygon class="cls-18" points="649.88 214.69 660.54 199.47 702.67 193.84 702.83 208.17 661.67 214 649.88 214.69"/><polygon class="cls-12" points="598.33 210.17 598.11 227.78 663.67 237.82 661.67 214 631.84 196.26 598.33 210.17"/><polygon class="cls-14" points="598.11 192.47 598.33 210.17 661.67 214 660.54 199.47 598.11 192.47"/><polygon class="cls-15" points="522 238.82 546 199.18 598.33 210.17 567.67 239.49 522 238.82"/><polygon class="cls-13" points="503.33 228.49 487.33 211.17 546 199.18 544 234.16 503.33 228.49"/><polygon class="cls-13" points="544 235.49 555.17 232.82 567.36 221.29 600 228.16 602.33 251.15 554.33 260.81 544 235.49"/><polygon class="cls-18" points="543.5 227.16 555.67 218.83 598.33 210.17 600 228.16 555.17 232.82 543.5 227.16"/><polygon class="cls-12" points="487.5 223.83 487.33 249.82 554.33 260.81 555.17 232.82 551.24 219.16 487.5 223.83"/><polygon class="cls-14" points="487.33 211.17 487.5 223.83 555.17 232.82 555.67 218.83 487.33 211.17"/><polygon class="cls-12" points="84.83 259.48 67.08 295.46 81.83 326.2 141.5 313.95 137.46 263.02 84.83 259.48"/><polygon class="cls-14" points="76.83 262.73 25.83 262.98 23.58 316.7 81.83 326.2 86.83 269.23 76.83 262.73"/><polygon class="cls-20" points="25.83 262.98 86.83 269.23 137.46 263.02 93.58 258.48 25.83 262.98"/><polygon class="cls-37" points="58.17 263.81 46.92 265.14 46.42 272.31 62.58 274.39 63.67 266.98 75.08 265.98 58.17 263.81"/><polygon class="cls-8" points="109.92 285.97 106.08 280.72 105.46 306.77 118.33 304.58 109.92 285.97"/><polygon class="cls-2" points="114.33 292.8 107.96 300.21 110.83 307.14 131.96 304.27 129.83 297.59 114.33 292.8"/><polygon class="cls-3" points="106.08 280.72 107.96 300.21 129.83 297.59 127.46 277.72 106.08 280.72"/><polygon class="cls-2" points="110.08 285.53 124.4 283.09 124.58 284.97 110.33 287.15 110.08 285.53"/><polygon class="cls-2" points="110.9 290.9 125.02 288.84 125.71 291.53 111.15 293.15 110.9 290.9"/><polygon class="cls-3" points="119.52 301.21 122.52 304.15 126.83 299.15 122.4 301.83 119.52 301.21"/><polygon class="cls-12" points="751.17 284.63 746.5 313.62 701.58 305.96 702.5 283.97 697.83 255.31 757.17 257.65 751.17 284.63"/><polygon class="cls-13" points="792.17 246.32 831.83 249.57 834.08 297.3 770.15 316.41 767 272.81 792.17 246.32"/><polygon class="cls-14" points="713.5 248.65 721.75 264.81 739.72 268.76 767 272.81 831.83 249.57 783.33 241.32 713.5 248.65"/><polygon class="cls-38" points="702.83 137.2 706.83 127.71 717.33 116.55 723.83 136.04 716.08 142.45 702.83 137.2"/><polygon class="cls-18" points="727.33 210.67 721.83 160.69 699.08 150.45 685.58 174.94 710.58 192.43 727.33 210.67"/><polygon class="cls-18" points="698.62 290.94 678.08 295.25 677.92 302.13 715.65 302.94 716.04 296.6 698.62 290.94"/><polygon class="cls-16" points="705.9 277.18 696.48 281.52 678.08 295.25 716.04 296.6 715.56 285.52 705.9 277.18"/><polygon class="cls-18" points="752.28 305.15 740.84 310.5 740.84 316.09 770.15 316.41 770.28 311.19 752.28 305.15"/><polygon class="cls-16" points="755.34 287.61 748.98 295.62 740.84 310.5 770.28 311.19 768.82 297.4 755.34 287.61"/><polygon class="cls-25" points="757.53 255.87 739.72 268.76 748.98 295.62 768.82 297.4 772 270.62 757.53 255.87"/><polygon class="cls-27" points="693.33 249.19 696.48 281.52 715.64 285.82 721.75 264.81 707.71 244.11 693.33 249.19"/><polygon class="cls-25" points="720.41 213.84 712.58 225.91 693.33 249.19 721.75 264.81 753.96 252.29 749.03 226.36 720.41 213.84"/><polygon class="cls-24" points="751.72 218.31 744.12 245.14 739.72 268.76 772 270.62 786.61 242.46 785.49 229.94 751.72 218.31"/><polygon class="cls-27" points="728.46 208.03 712.58 225.91 744.12 245.14 785.49 229.94 728.46 208.03"/><polygon class="cls-18" points="732.71 180.76 743.89 227.25 785.49 229.94 790.19 194.84 732.71 180.76"/><polygon class="cls-16" points="726.22 178.08 710.79 188.58 712.58 225.91 743.89 227.25 743.22 185.45 726.22 178.08"/><polygon class="cls-17" points="741.88 163.32 720.86 160.19 710.79 188.58 790.19 194.84 791.3 171.37 768.91 164.06 741.88 163.32"/><polygon class="cls-39" points="774.46 155.22 771.32 167.15 747.61 182.06 729.93 158.26 766.56 157.63 774.46 155.22"/><polygon class="cls-38" points="775.55 165.01 781.17 137.27 776.25 118.17 769.67 90.39 766.84 146.88 766.48 160.66 772.09 160.77 759.09 174.83 775.55 165.01"/><polygon class="cls-40" points="716.77 157.4 766.48 160.66 772.5 102.72 774.1 103.36 768.66 88.49 765.39 85.95 728.38 84.86 721.13 88.13 716.77 96.83 716.34 113.43 716.77 157.4"/><path class="cls-38" d="M745.41,110.14l-1.27,2.22,2.1,18.44,5.21-10.73,9.13-5.36-7-5.24Zm-25.08,3.33,6.4-4.84,8.5,2.22,1.67,1.51-2.81,18.44-2.22-10.28Z"/><polygon class="cls-27" points="788.88 91.83 784.67 117.96 776.64 123.31 772.65 123.67 772.03 97.72 768.66 88.49 773.01 82.69 788.88 91.83"/><polygon class="cls-25" points="769.61 76.39 788.88 91.83 772.03 97.72 759.04 86.86 761.58 79.61 769.61 76.39"/><polygon class="cls-24" points="727.4 76.39 769.61 76.39 759.04 86.86 730.38 86.5 726.39 83.23 727.4 76.39"/><polygon class="cls-25" points="712.69 92.97 727.4 76.39 730.38 86.5 719.64 94.83 717.5 94.11 712.69 92.97"/><polygon class="cls-27" points="716.33 111.39 720.65 91.97 712.69 92.97 716.33 111.39"/><polygon class="cls-39" points="781.17 137.27 774.77 130.38 778.76 128.93 782.59 130.22 781.17 137.27"/><polygon class="cls-40" points="776.17 116.46 784.67 117.96 782.59 130.22 774.77 130.38 776.17 116.46"/><polygon class="cls-39" points="778.77 120.32 782.07 121 778.04 127.94 778.77 120.32"/><path class="cls-41" d="M744.14,112.36H736.9l-2.81,18.44,5.25,1,6.9-1S743.94,112.36,744.14,112.36Z"/><polygon class="cls-39" points="739.34 134.41 746.24 130.8 734.09 130.8 739.34 134.41"/><polygon class="cls-39" points="751.17 141.29 747.78 149.65 731.9 148.42 728.67 140.24 751.17 141.29"/><polygon class="cls-27" points="720.33 113.47 728.88 106.01 735.23 110.85 720.33 113.47"/><polygon class="cls-27" points="745.41 110.14 753.91 105.85 760.58 114.72 745.41 110.14"/><circle class="cls-42" cx="727.54" cy="120.1" r="2.81" transform="translate(-0.23 1.38) rotate(-0.11)"/><path class="cls-21" d="M753.13,120.73a2.81,2.81,0,1,1-2.81-2.8A2.81,2.81,0,0,1,753.13,120.73Z"/><polygon class="cls-23" points="731.88 141.87 732.67 144.49 746.29 145.32 747.04 142.83 731.88 141.87"/><polygon class="cls-16" points="706.83 127.71 668.33 149.2 685.58 174.94 716.08 142.45 706.83 127.71"/><polygon class="cls-16" points="776.75 193.93 791.37 171.44 810.92 202.94 789.78 220.05 787.05 212.55 776.75 193.93"/><polygon class="cls-3" points="759.1 208.88 753.99 215.47 753.21 228.75 760.69 236.02 738.42 234.55 747.15 228.53 746.83 215.47 742.89 210.22 734.17 190.59 769.25 193.09 759.1 208.88"/><polygon class="cls-12" points="755.24 209.67 753.99 215.47 746.83 215.47 746.15 208.88 741.23 196.42 762.06 197.41 755.24 209.67"/><polygon class="cls-38" points="759.78 211.72 753.27 201.88 742.89 210.22 743.2 224.87 755.24 224.29 759.78 211.72"/><polygon class="cls-40" points="779.18 214.14 771.6 208.54 753.27 201.88 755.24 224.29 773.12 223.98 779.18 214.14"/><polygon class="cls-17" points="810.92 202.94 771.6 208.54 773.12 223.98 801.33 231.49 810.92 202.94"/></svg>