<svg id="ILLUSTRATION" xmlns="http://www.w3.org/2000/svg" viewBox="0 0 900 350"><defs><style>.cls-1{fill:#dddddb;}.cls-2{fill:#ebecea;}.cls-15,.cls-25,.cls-3{fill:#2a2b2a;}.cls-3{opacity:0.1;}.cls-4{fill:#5a753d;}.cls-5{fill:#738d58;}.cls-6{fill:#bfdb8e;}.cls-7{fill:#c4c3c3;}.cls-8{fill:#cececd;}.cls-9{fill:#838585;}.cls-10{fill:#9ca1a1;}.cls-11{fill:#a2a2a3;}.cls-12{fill:#3e8e6f;}.cls-13{fill:#36795d;}.cls-14{fill:#53af8a;}.cls-15{fill-opacity:0.1;}.cls-16{fill:#8b6752;}.cls-17{fill:#c3977b;}.cls-18{fill:#debca4;}.cls-19{fill:#474748;}.cls-20{fill:#6f9c52;}.cls-21{fill:#e8cab6;}.cls-22{fill:#4f5253;}.cls-23{fill:#707274;}.cls-24{fill:#98c26c;}.cls-26{fill:#8f8f8f;}.cls-27{fill:#73c6a4;}.cls-28{fill:#44612d;}.cls-29{fill:#b7c644;}.cls-30{fill:#e5e87b;}.cls-31{fill:#d0ab91;}.cls-32{fill:#fff;}</style></defs><title>diplomats_Protagonist_ENFJ_parenthood</title><polygon class="cls-1" points="122.49 74.77 14.61 89.25 92.21 97.44 143.94 111.29 246.15 81.07 154.67 87.99 122.49 74.77"/><polygon class="cls-2" points="14.61 89.25 108.61 66.59 181.8 79.81 246.15 81.07 151.51 98.7 90.32 83.59 14.61 89.25"/><polygon class="cls-3" points="184.47 294.44 177.47 290.11 169.13 317.06 193.14 345.01 211.14 324.38 184.47 294.44"/><polygon class="cls-3" points="245.81 294.44 388.84 293.77 366.5 327.04 226.48 318.39 245.81 294.44"/><polygon class="cls-3" points="398.5 319.72 550.2 304.75 693.89 322.72 550.2 341.35 398.5 319.72"/><polygon class="cls-3" points="741.14 286.7 699.14 302.17 777.65 323.13 807.15 320.89 852.41 292.44 769.4 281.71 741.14 286.7"/><polygon class="cls-3" points="764.9 220.08 773.4 263 743.63 258.99 668.38 275.97 615.87 260 553.53 268.82 492.35 256.01 433.38 247.2 383.34 253.52 337.33 240.04 280.32 243.54 204.31 266.49 179.14 262.33 114.79 282.46 61.28 262 262.82 204.11 540.86 202.12 764.9 220.08"/><polygon class="cls-3" points="95.78 315.54 109.75 312.81 121.53 316.73 108.66 319.89 95.78 315.54"/><polygon class="cls-4" points="106.8 304.87 108.69 317.06 110.51 316.99 113.06 304.5 106.8 304.87"/><polygon class="cls-5" points="91.45 300.44 111.02 296.81 123.28 303.78 107.6 309.15 91.45 300.44"/><polygon class="cls-6" points="100.73 301.75 110.4 300.4 115.64 302.83 108.33 305.3 100.73 301.75"/><polygon class="cls-3" points="712.06 336.66 722.3 334.66 730.94 337.54 721.5 339.85 712.06 336.66"/><polygon class="cls-4" points="720.14 328.83 721.53 337.78 722.86 337.72 724.73 328.57 720.14 328.83"/><polygon class="cls-5" points="708.89 325.59 723.24 322.93 732.22 328.04 720.73 331.98 708.89 325.59"/><polygon class="cls-6" points="715.69 326.55 722.78 325.56 726.62 327.34 721.26 329.15 715.69 326.55"/><polygon class="cls-3" points="138.36 296.65 148.27 294.59 157.8 297.56 148.08 299.94 138.36 296.65"/><polygon class="cls-4" points="146.05 288.59 148.11 297.81 149.48 297.75 150.77 288.31 146.05 288.59"/><polygon class="cls-5" points="136.63 285.54 149.23 282.5 160.13 287.04 150.05 292.98 136.63 285.54"/><polygon class="cls-6" points="144.46 286.54 149.85 285.63 153.8 287.47 150.3 289.53 144.46 286.54"/><polygon class="cls-3" points="752.94 335.44 760.21 333.92 767.2 336.1 760.07 337.85 752.94 335.44"/><polygon class="cls-4" points="758.58 329.52 760.09 336.28 761.1 336.24 762.04 329.32 758.58 329.52"/><polygon class="cls-5" points="751.67 327.29 760.92 325.06 768.91 328.39 761.51 332.75 751.67 327.29"/><polygon class="cls-6" points="757.42 328.02 761.37 327.36 764.27 328.7 761.7 330.21 757.42 328.02"/><polygon class="cls-3" points="154.48 335.39 161.84 333.85 168.91 336.06 161.7 337.83 154.48 335.39"/><polygon class="cls-4" points="160.19 329.4 161.72 336.24 162.74 336.2 163.7 329.19 160.19 329.4"/><polygon class="cls-5" points="153.2 327.13 163.86 324.69 170.65 328.25 161.05 333.3 153.2 327.13"/><polygon class="cls-6" points="159.01 327.88 163.01 327.2 165.95 328.57 162.05 330.75 159.01 327.88"/><polygon class="cls-7" points="428.84 132.41 489.19 114.45 509.19 119.44 538.86 128.09 650.32 139.34 685.05 142.9 714.72 137.57 711.89 161.86 663.55 192.97 428.84 132.41"/><polygon class="cls-7" points="347.25 134.33 344.42 123.93 366.5 118.69 428.01 123.93 383.5 145.06 347.25 134.33"/><polygon class="cls-8" points="312.82 128.26 333.08 129 342.58 146.72 307.07 163.44 312.82 128.26"/><polygon class="cls-7" points="300.07 155.7 299.67 154.91 288.05 132.41 308.07 126.76 333.08 129 317.57 133.86 300.07 155.7"/><polygon class="cls-7" points="240.35 146.68 246.19 147.84 284.82 148.59 266.48 167.35 201.47 162.69 240.35 146.68"/><polygon class="cls-8" points="216.98 140.4 239.02 138.53 246.19 147.84 219.7 154.97 202.14 153.87 216.98 140.4"/><polygon class="cls-7" points="85.79 212.59 70.45 197.96 98.17 185.02 118.29 184.9 106.15 169.17 120.54 160.44 148.3 157.7 168.76 152.67 163.76 159.78 183.8 154.33 191.06 158.07 184.73 145.42 211.93 137.36 239.02 138.53 216.38 144.23 200.81 182.32 85.79 212.59"/><polygon class="cls-8" points="168.76 152.67 150.72 164.44 161.3 167.93 162.13 164.66 183.8 154.33 168.76 152.67"/><polygon class="cls-9" points="61.28 262 70.45 197.96 95.54 236.05 106.15 195.04 106.15 169.17 130.99 168.78 134.55 176.41 150.72 164.44 162.13 164.66 183 161.74 195.06 163.94 208.81 158.7 219.7 154.97 264.44 156.7 279.32 164.44 288.18 132.41 317.57 133.86 321.08 153.71 324.34 146.22 344.42 123.93 381.38 127.9 387.59 145.47 404.39 130.43 436.69 117.82 491.19 125.43 587.88 151.92 612.48 151.65 627.24 138.65 650.32 139.34 660.61 157.89 700.22 152.71 706.22 152.71 742.51 142.63 745.3 161.21 786.23 148.38 819.57 174.67 820.24 198.29 834.91 272.98 732.23 251.19 690.79 258.47 679.38 244.53 665.26 264.57 653.43 253.03 580.87 262.83 472.73 232.47 459.7 241.75 433.51 233.39 401.9 239.23 390.34 206.61 363.44 233.28 349.47 233.26 328.07 231.27 314.11 238.7 280.2 226.89 248.16 235.51 209.86 252.5 205.56 204.11 193.51 246.13 158 253.16 150.8 226.07 143.53 256.43 116.94 262.42 102.29 244.03 98.97 266.43 61.28 262"/><path class="cls-10" d="M70.45,198l35.7-2.92,10.77,67.28-18.09,4L70.45,197.82Zm60.38-29.15,19.88-4.37L158,253.16l-14.49,3.19L131,168.68ZM183,161.74l1.73-16.32,31.64-1.19L219.7,155l-9.84,97.4L193.37,246l-10.5-84.39Zm81.44-5,9.25.25L288,132.41l-7.84,94.48Zm53.14-22.84,6.76,12.36,3.73,85.05-14,7.56L317.58,134Zm86.81-3.43-2.49,108.8-38.47-6L381.38,127.9h0Zm32.44-12.61L474.72,115,459.83,241.75l-26.19-8.36Zm135.22,28.53,16,5.57,24.6-.4,14.76-13-12,101.64-19.68-6.5h-7.44l-16.09-87.31Zm84.83,4.86L690,159.62l.8,98.85-25.53,6.1L671.91,187,653.56,253l-14.23-4.77ZM728,141.84l14.49.79,2.79,18.58L736.21,252l-13.57.83Zm48.4,23.88L792,154.18l8,98-30.77,20.92Z"/><polygon class="cls-10" points="808.9 269.49 819.57 174.67 846.91 266.49 829.58 276.47 808.9 269.49"/><polygon class="cls-7" points="628.88 232.89 764.9 239.54 700.89 320.39 384.84 336.03 407.84 248.53 628.88 232.89"/><polygon class="cls-8" points="760.9 265.99 764.9 239.54 611.87 256.51 658.5 320.26 760.9 265.99"/><polygon class="cls-7" points="815.41 287.45 764.9 239.54 658.5 320.26 684.38 345.84 792.9 350 842.91 320.06 815.41 287.45"/><polygon class="cls-7" points="396.17 260.17 481.52 285.46 554.2 230.23 529.53 231.56 343.16 229.56 359.17 264.83 396.17 260.17"/><polygon class="cls-7" points="397.34 276.47 384.84 336.03 684.38 345.84 658.5 320.26 541.36 241.04 482.1 221.08 397.34 276.47"/><polygon class="cls-8" points="277.32 302.42 384.84 336.03 444.85 265.49 452.35 215.59 293.82 229.06 196.81 238.55 211.31 298.43 277.32 302.42"/><polygon class="cls-7" points="124.79 252.52 208.81 247.53 285.32 231.06 237.81 225.57 232.19 228.92 94.79 240.54 124.79 252.52"/><polygon class="cls-7" points="213.81 275.48 207.81 241.21 94.79 240.54 -0.14 303.01 218.31 295.44 213.81 275.48"/><polygon class="cls-7" points="111.79 314.9 114.79 282.46 209.86 252.5 384.84 336.03 154.47 349 111.79 314.9"/><polygon class="cls-7" points="114.79 282.46 -0.14 303.01 154.47 349 114.79 282.46"/><polygon class="cls-11" points="764.9 239.54 842.91 320.06 899.86 284.33 764.9 239.54"/><g id="trunk"><path class="cls-12" d="M790.7,257.78l9.3-5.55L814.66,259l-5.27,42.41s-29.4-7.86-31.11-8S790.7,257.78,790.7,257.78Z"/><path class="cls-12" d="M813.53,257.88,802,256.57l.29,3.32,3.43,40.53,16.66-1.49,1.75-31.52L815,259.13Z"/><polygon class="cls-12" points="837.24 290.45 822.41 298.93 815.03 259.13 829.49 260.92 837.24 290.45"/><polygon class="cls-13" points="723.93 300.42 743.63 258.99 777.77 262.51 783.33 293.16 775.04 314.83 723.93 300.42"/><polygon class="cls-12" points="801.81 309.08 775.04 314.83 777.77 262.51 786.56 258.48 802.22 259.89 808.68 284.29 801.81 309.08"/><polygon class="cls-13" points="822.41 298.93 801.81 309.08 802.22 259.89 812.53 260 822.41 298.93"/><polygon class="cls-14" points="743.63 258.99 777.57 267.85 802.22 259.89 770.1 253.94 743.63 258.99"/><polygon class="cls-13" points="786.36 287.51 784.74 312.71 807.47 320.47 800.2 303.24 786.36 287.51"/><polygon class="cls-14" points="806.46 306.97 786.36 287.51 807.47 320.47 806.46 306.97"/><polygon class="cls-14" points="829.49 260.92 800 252.23 812.53 260 829.49 260.92"/></g><g id="chat_bubble" data-name="chat bubble"><polygon class="cls-2" points="878.28 38.44 803.04 2.33 707.7 25.83 661.55 68.54 682.29 109.6 642.88 125.26 689.13 123.16 700.22 152.71 820.27 174.85 899.42 120.02 878.28 38.44"/><polygon class="cls-15" points="708.14 131 739.39 125.76 771.02 132 738.89 140.11 708.14 131"/><polygon class="cls-16" points="706.56 60.75 706.56 64.06 707.61 65.71 711.47 64.66 708.71 57.34 706.56 60.75"/><polygon class="cls-17" points="765.93 64.81 769.02 62.02 770.42 55.92 766.37 54.3 763.43 56.88 763.06 64.74 765.93 64.81"/><polygon class="cls-16" points="762.84 59.08 769.02 62.02 766.08 66.81 763.06 66.79 762.84 59.08"/><polygon class="cls-18" points="761.73 69.22 761.49 64.11 761.22 59.81 763.43 56.88 764.46 58.05 763.57 60.4 765.41 63.56 761.73 69.22"/><polygon class="cls-12" points="748.37 128.79 745.8 130.88 745.9 132.57 759.26 132.58 759.19 130.83 748.37 128.79"/><polygon class="cls-14" points="748.89 122.04 752.03 125.16 759.19 130.83 745.8 130.88 745.64 126.52 748.89 122.04"/><polygon class="cls-4" points="758.68 71.61 760.06 78.93 746.55 87.96 749.51 73.97 755.7 72.16 758.68 71.61"/><polygon class="cls-12" points="730.59 130.22 734.45 132.85 734.38 134.7 724.38 134.78 724.32 132.89 730.59 130.22"/><polygon class="cls-14" points="729.97 125.66 725.88 127.05 724.32 132.89 734.45 132.85 732.65 127.05 729.97 125.66"/><polygon class="cls-17" points="745.64 126.52 743.67 118.37 747.71 110.69 752.23 115.06 752.03 125.16 745.64 126.52"/><polygon class="cls-16" points="744.84 109.91 752.23 115.06 743.67 118.37 742.27 112.86 744.84 109.91"/><polygon class="cls-17" points="732.65 127.05 734.32 118.61 730.82 107.91 725.38 114.89 725.88 127.05 732.65 127.05"/><polygon class="cls-16" points="728 110.86 725.38 114.89 734.32 118.61 735.58 112.36 728 110.86"/><polygon class="cls-4" points="727.98 87.25 714.84 78.69 715.8 72.74 719.66 71.5 725.88 73.86 727.98 87.25"/><polygon class="cls-19" points="749.75 56.89 758.72 44.1 741.27 40.48 753.73 44.49 749.75 56.89"/><polygon class="cls-20" points="725.38 114.89 724.86 100.94 740.63 100.76 743.78 109.61 739.22 110.89 737.28 115.05 725.38 114.89"/><polygon class="cls-20" points="741.21 115.05 739.22 110.89 740.63 100.76 751.64 100.34 752.23 115.06 741.21 115.05"/><polygon class="cls-4" points="724.86 100.94 739.22 110.89 751.64 100.34 737.18 94.71 724.86 100.94"/><polygon class="cls-17" points="729.27 74.31 725.36 64.06 726.31 62.89 724.5 61.84 721.79 54.91 727.78 45.86 733.14 44.73 738.61 60.59 739.51 82.92 729.27 74.31"/><polygon class="cls-18" points="753.73 44.49 731.83 44.85 735.4 71.52 752.42 71.52 753.73 44.49"/><polygon class="cls-17" points="751.72 51.39 751.72 51.39 746.2 51.39 742.16 51.62 736.01 51.96 740.9 54.86 743.18 60.42 744.94 61.21 746.71 60.3 748.3 54.8 751.72 51.39"/><polygon class="cls-16" points="739.51 82.92 746.41 71.52 734.27 71.52 739.51 82.92"/><polygon class="cls-19" points="736.01 51.96 740.68 48.44 742.16 51.62 736.01 51.96"/><polygon class="cls-19" points="746.2 51.39 747.39 48.67 751.72 51.39 746.2 51.39"/><polygon class="cls-21" points="742.84 51.62 743.18 60.42 746.71 60.3 745.63 51.39 742.84 51.62"/><polygon class="cls-16" points="745.12 62.12 743.18 60.42 746.71 60.3 745.12 62.12"/><polygon class="cls-22" points="730.52 34.99 747.66 34.1 758.72 44.1 753.73 44.49 733.26 40.87 730.52 34.99"/><polygon class="cls-23" points="731.83 44.85 728.62 41.34 730.52 34.99 753.73 44.49 731.83 44.85"/><polygon class="cls-22" points="717.74 46.71 730.52 34.99 731.24 40.39 731.83 44.85 725.76 48 717.74 46.71"/><polygon class="cls-19" points="722.26 56.06 717.74 46.71 731.83 44.85 730.43 56.81 728.39 57.31 727.94 54.77 722.26 56.06"/><polygon class="cls-20" points="724.86 100.94 725.88 73.86 729.27 74.31 733.97 81.79 739.51 82.92 743.14 93.49 740.21 102.84 724.86 100.94"/><polygon class="cls-24" points="751.64 100.34 740.21 102.84 739.51 82.92 743.97 80.6 744.86 74.07 749.51 73.97 750.64 90.11 751.64 100.34"/><polygon class="cls-6" points="732.25 83.87 739.51 82.92 729.27 74.31 732.25 83.87"/><polygon class="cls-6" points="746.11 83.16 739.51 82.92 744.86 74.07 746.11 83.16"/><polygon class="cls-16" points="725.36 64.06 724.5 61.84 728.93 60.47 725.36 64.06"/><path class="cls-25" d="M742,55.36a1.44,1.44,0,0,1-2.88,0,1.44,1.44,0,0,1,2.88,0Z"/><path class="cls-25" d="M750.52,55.18a1.44,1.44,0,1,1-1.44-1.43A1.44,1.44,0,0,1,750.52,55.18Z"/><polygon class="cls-16" points="739.97 63.46 748.78 63.46 747.08 68.74 741.76 68.63 739.97 63.46"/><polygon class="cls-16" points="724.18 57 726.8 56.53 726.3 59.31 724.18 57"/><polygon class="cls-17" points="761.49 64.11 755.7 72.16 760.06 78.93 766.08 66.81 761.49 64.11"/><polygon class="cls-2" points="741.42 64.4 747.58 64.44 746.92 66.43 742.09 66.43 741.42 64.4"/><polygon class="cls-26" points="704.07 46.33 704.93 49.57 712.88 48.62 704.07 46.33"/><polygon class="cls-26" points="715.67 43.28 721 43.73 721.19 53.77 720.22 54.08 714.56 48.35 715.67 43.28"/><polygon class="cls-10" points="711.94 41.29 712.98 41.15 721 43.73 717.62 45.59 703.69 41.76 711.94 41.29"/><polygon class="cls-13" points="704.9 63.85 702.51 74.32 704.28 74.03 713.33 47.62 711.57 47.06 704.9 63.85"/><polygon class="cls-12" points="710.16 46.42 700.95 72.98 702.51 74.32 711.57 47.06 710.16 46.42"/><polygon class="cls-26" points="711.41 39.26 713.59 39.48 712.98 41.15 708.27 41.78 706.09 39.91 709.54 38.96 711.41 39.26"/><polygon class="cls-10" points="702.88 39.21 703.41 37.41 709.04 37.87 713.59 39.48 709.11 39.83 707.09 41.79 702.88 39.21"/><polygon class="cls-23" points="711.6 46.83 717.62 45.59 720.22 54.08 717.38 54.43 715.22 52.75 711.6 46.83"/><polygon class="cls-22" points="707.84 41.63 704.95 48.46 715.22 52.75 717.62 45.59 707.84 41.63"/><polygon class="cls-23" points="709.11 39.83 704.93 49.57 698.87 47.12 703.41 37.41 709.11 39.83"/><polygon class="cls-18" points="707.69 55.09 707.35 54.5 704.56 57.76 704.66 62.28 707.69 55.09"/><polygon class="cls-17" points="707.35 54.5 704.66 62.28 706.56 64.06 710.98 59.37 709.15 55.52 707.35 54.5"/><polygon class="cls-18" points="712.25 65.05 711.47 62.62 712.02 58.55 709.15 55.52 708.16 56.78 709.1 59.26 707.88 61.52 710.15 65.1 712.25 65.05"/><polygon class="cls-17" points="707.61 65.71 714.84 78.69 719.66 71.5 711.47 62.62 707.61 65.71"/><polygon class="cls-2" points="522.86 76.96 458.35 62.13 464.83 29.72 408.33 0 302.96 12.95 280.82 74.67 328.14 115.5 396.11 118.86 452.51 90.49 456.62 74.26 522.86 76.96"/><polygon class="cls-15" points="768.4 136.41 807.24 128.75 867.41 135.57 833.74 150.55 768.4 136.41"/><polygon class="cls-14" points="773.57 89.25 774.66 84.67 784.12 84.74 784.53 89.87 781.52 92.68 775.64 93.57 773.57 89.25"/><polygon class="cls-12" points="860.47 126.97 863.75 120.3 806.23 127.81 794.47 126.26 790.08 134.74 793.48 138.41 848.99 137.28 860.47 126.97"/><polygon class="cls-14" points="778.75 124.89 777.66 120.86 791.82 115.51 806.23 127.81 794.25 135.08 778.75 124.89"/><polygon class="cls-13" points="799.62 95.97 799.05 121.88 793.02 130.75 801.8 127.21 813.02 113.68 799.62 95.97"/><polygon class="cls-14" points="839.65 111.28 845.88 129.46 851.59 125.27 851.64 105.72 839.65 111.28"/><polygon class="cls-12" points="787.88 92.77 802.88 86 805.48 85.58 806.74 88.17 810.76 100.21 806.32 116.93 795.01 108.32 787.88 92.77"/><polygon class="cls-14" points="791.82 115.51 787.88 92.77 797.86 105.89 806.32 116.93 796.6 119.27 791.82 115.51"/><polygon class="cls-12" points="788.06 125.98 791.82 115.51 806.32 116.93 793.02 130.75 788.06 125.98"/><polygon class="cls-14" points="818.72 93.1 813.77 88 806.74 88.17 806.32 116.93 815.12 107.48 818.72 93.1"/><polygon class="cls-12" points="819.72 114.26 806.32 116.93 818.72 93.1 820.56 103.72 819.72 114.26"/><polygon class="cls-14" points="822.4 113.92 820.56 103.72 822.4 93.85 834.3 100.38 838.83 115.68 822.4 113.92"/><polygon class="cls-13" points="818.72 93.1 820.31 91.93 822.4 93.77 822.4 103.05 822.4 113.84 819.72 114.26 818.72 93.1"/><polygon class="cls-12" points="834.14 86.83 827.18 88 822.4 93.85 838.83 115.68 845.78 116.43 852.4 106.56 845.03 91.26 834.14 86.83"/><polygon class="cls-14" points="849.55 80.22 852.4 106.56 834.14 86.83 833.63 76.46 838.91 66.76 849.89 72.03 849.55 80.22"/><polygon class="cls-12" points="852.15 56.56 845.11 58.4 838.91 66.76 843.52 72.53 858.94 75.37 866.06 70.69 852.15 56.56"/><polygon class="cls-13" points="849.55 80.22 843.52 72.53 856.26 71.53 866.06 70.69 865.64 79.22 849.55 80.22"/><polygon class="cls-13" points="843.1 131.56 838.83 115.68 852.4 106.56 845.78 129.56 843.1 131.56"/><polygon class="cls-13" points="802.38 80.22 802.88 86 806.74 88.17 808.66 86.33 807.32 82.82 807.57 79.89 802.38 80.22"/><polygon class="cls-13" points="820.31 88.59 807.32 82.82 806.74 88.17 818.72 93.1 820.73 92.1 820.31 88.59"/><polygon class="cls-12" points="822.4 93.85 822.74 90.68 820.31 88.59 818.72 93.1 822.4 93.85"/><polygon class="cls-13" points="834.14 86.83 833.72 82.32 830.03 82.07 820.31 88.59 821.32 91.18 822.4 93.85 834.14 86.83"/><polygon class="cls-13" points="830.78 63.59 838.91 66.76 835.39 72.78 836.32 77.55 833.47 81.39 834.14 86.83 830.03 82.07 830.78 63.59"/><polygon class="cls-27" points="838.91 66.76 837.4 73.2 836.32 77.55 830.03 82.07 834.14 86.83 836.32 77.55 830.45 73.12 838.91 66.76"/><polygon class="cls-13" points="860.61 47.2 852.15 56.56 838.91 66.76 830.78 63.59 850.64 46.03 860.61 47.2"/><polygon class="cls-27" points="844.86 62.16 844.86 62.16 836.99 58.07 838.91 66.76 830.78 63.59 850.64 46.03 852.15 56.56 842.43 53.3 844.86 62.16"/><path class="cls-13" d="M841.34,65.51a3,3,0,1,1-3,3A3,3,0,0,1,841.34,65.51Z"/><path class="cls-13" d="M850.73,62.33c.78,0,1.42.94,1.42,2.09s-.64,2.09-1.42,2.09-1.43-.93-1.43-2.09S849.94,62.33,850.73,62.33Z"/><polygon class="cls-12" points="777.66 120.86 794.25 135.08 795.68 139.42 791.91 140.76 776.4 126.97 777.66 120.86"/><polygon class="cls-13" points="787.88 92.77 781.52 92.68 784.12 84.74 792.32 90.76 787.88 92.77"/><polygon class="cls-14" points="863.75 120.3 847.16 134.51 846.16 138.11 849.51 140.19 865.01 126.4 863.75 120.3"/><polygon class="cls-13" points="847.16 134.51 794.25 135.08 791.91 140.76 849.51 140.19 847.16 134.51"/><polygon class="cls-13" points="767.55 93.04 774.66 84.67 775.64 93.57 772.94 95.9 767.55 93.04"/><polygon class="cls-14" points="776.74 104.82 775.64 93.57 767.55 93.04 770.01 101.67 776.74 104.82"/><polygon class="cls-13" points="763.53 110.5 776.74 104.82 767.55 93.04 763.53 110.5"/><polygon class="cls-4" points="776.07 47.55 797.25 70.7 828.66 38.93 817.6 30.19 797.24 51.57 784.99 40.24 776.07 47.55"/><polygon class="cls-17" points="327.9 106.89 325.44 111.79 321.76 108.46 327.9 106.89"/><polygon class="cls-18" points="326.5 98.95 330.3 101.11 331.88 104.03 333.23 110.22 325.44 111.79 323.69 103.33 326.5 98.95"/><polygon class="cls-17" points="326.67 85.28 315.62 87.39 323.69 103.33 330.3 101.11 328.25 91.06 326.67 85.28"/><polygon class="cls-17" points="389.59 53.5 393.93 49.58 393.3 39.77 387.67 37.48 386.07 42.37 385.56 53.4 389.59 53.5"/><polygon class="cls-16" points="385.25 45.46 393.93 49.58 389.79 56.31 385.56 56.29 385.25 45.46"/><polygon class="cls-18" points="383.69 59.69 383.36 52.52 382.97 46.49 386.07 42.37 387.52 44.02 386.28 47.31 388.86 51.75 383.69 59.69"/><polygon class="cls-4" points="379.41 63.04 381.34 73.33 362.38 86 366.54 66.37 375.22 63.82 379.41 63.04"/><polygon class="cls-4" points="336.31 85.01 328.25 91.06 315.62 87.39 331.41 67.95 336.31 85.01"/><polygon class="cls-19" points="366.86 42.39 379.47 24.42 354.97 19.35 372.46 24.98 366.86 42.39"/><polygon class="cls-20" points="332.2 115.66 331.93 104.22 354.07 103.97 358.5 116.4 352.21 116.98 332.2 115.66"/><polygon class="cls-20" points="352.21 116.98 354.07 103.97 369.52 103.39 371.32 117.59 352.21 116.98"/><polygon class="cls-4" points="331.93 104.22 352.21 116.98 369.52 103.39 349.23 95.47 331.93 104.22"/><polygon class="cls-17" points="338.12 66.84 332.63 52.45 333.97 50.81 331.42 49.33 327.63 39.6 336.03 26.9 343.55 25.31 351.24 47.57 352.49 78.93 338.12 66.84"/><polygon class="cls-18" points="372.46 24.98 341.71 25.48 346.73 62.92 370.62 62.92 372.46 24.98"/><polygon class="cls-17" points="369.32 32.56 365.29 32.45 361.88 34.67 356.21 34.98 347.56 32.92 354.45 39.53 357.65 47.34 360.12 48.46 362.6 47.18 364.84 39.45 369.32 32.56"/><polygon class="cls-16" points="352.49 78.93 362.18 62.92 345.14 62.92 352.49 78.93"/><polygon class="cls-19" points="347.56 32.92 355.16 31.16 356.21 34.98 347.56 32.92"/><polygon class="cls-19" points="361.88 34.67 362.77 31.28 369.32 32.56 361.88 34.67"/><polygon class="cls-21" points="357.17 34.98 357.65 47.34 362.6 47.18 361.08 34.67 357.17 34.98"/><polygon class="cls-16" points="360.36 49.73 357.65 47.34 362.6 47.18 360.36 49.73"/><polygon class="cls-22" points="339.87 11.64 363.94 10.39 379.47 24.42 372.46 24.98 343.72 19.89 339.87 11.64"/><polygon class="cls-23" points="341.71 25.48 337.2 20.56 339.87 11.64 372.46 24.98 341.71 25.48"/><polygon class="cls-22" points="321.94 28.09 339.87 11.64 340.88 19.22 341.71 25.48 333.19 29.9 321.94 28.09"/><polygon class="cls-19" points="328.28 41.22 321.94 28.09 341.71 25.48 339.75 42.27 336.89 42.97 336.25 39.41 328.28 41.22"/><polygon class="cls-20" points="331.93 104.22 331.41 67.95 338.12 66.84 344.72 77.34 352.49 78.93 357.59 93.77 353.48 106.89 331.93 104.22"/><polygon class="cls-24" points="369.52 103.39 353.48 106.89 352.49 78.93 358.76 75.67 360.01 66.5 366.54 66.37 368.12 89.02 369.52 103.39"/><polygon class="cls-6" points="342.3 80.26 352.49 78.93 338.12 66.84 342.3 80.26"/><polygon class="cls-6" points="361.77 79.26 352.49 78.93 360.01 66.5 361.77 79.26"/><polygon class="cls-16" points="332.63 52.45 331.42 49.33 337.64 47.41 332.63 52.45"/><path class="cls-25" d="M355.93,40.23a2,2,0,1,1-2-2A2,2,0,0,1,355.93,40.23Z"/><path class="cls-25" d="M368,40a2,2,0,1,1-2-2A2,2,0,0,1,368,40Z"/><polygon class="cls-16" points="354.46 51.66 364.76 51.54 366.16 58.2 352.59 58.31 354.46 51.66"/><polygon class="cls-16" points="330.98 42.55 334.66 41.88 333.95 45.79 330.98 42.55"/><polygon class="cls-17" points="383.36 52.52 375.22 63.82 381.34 73.33 389.79 56.31 383.36 52.52"/><polygon class="cls-2" points="355.98 52.82 363.47 53 364.35 55.51 355.05 55.57 355.98 52.82"/><polygon class="cls-14" points="392.34 18.34 388.33 19.38 386.23 24.53 390.72 27 387.38 30.91 395.01 32.24 394.54 28.05 398.64 26.24 398.07 20.81 392.34 18.34"/><polygon class="cls-12" points="389.93 21.89 388.25 23.68 391.44 24.72 389.93 21.89"/><polygon class="cls-12" points="393.55 24.89 396.66 22.89 396.98 25.14 393.55 24.89"/><path class="cls-14" d="M414.31,24.25,413.16,23l-1.52.6L411,21.94l2-.83-.76-1.93-1.92.94-.62-1.55-1.29.86.47,1.39-2.6,1.27-.55-2.16-1.82.93.67,2.06L402.24,24l.51,1.39,2.28-1,.5,1.55-1.67.67.93,1.93,1.38-.64.48,1.46,1.32-.54-.4-1.56,3-1.37.73,2.15,1.75-1-.78-2Zm-7.23,1.14-.42-1.62,2.78-1.17.55,1.63Z"/><polygon class="cls-14" points="374.78 39.38 385.66 31.67 387.28 33.29 374.78 39.38"/><polygon class="cls-4" points="446.54 49.13 438.11 42.13 425.29 52.97 412.54 41 403.83 48.57 416.29 60.59 402.98 71.85 412.26 81.1 425.13 69.1 436.7 80.26 445.41 71.85 433.83 60.98 446.54 49.13"/></g><g id="toy"><polygon class="cls-12" points="371.58 289.45 377.39 277.67 275.82 290.95 255.06 288.2 247.31 303.17 253.31 309.66 351.33 307.66 371.58 289.45"/><polygon class="cls-14" points="227.31 285.79 225.39 278.67 250.39 269.22 275.82 290.95 254.68 303.77 227.31 285.79"/><polygon class="cls-13" points="264.15 234.72 263.15 280.47 252.5 296.12 268 289.88 287.82 265.99 264.15 234.72"/><polygon class="cls-14" points="334.83 261.75 345.83 293.86 355.92 286.45 356 251.94 334.83 261.75"/><polygon class="cls-12" points="243.44 229.07 269.92 217.11 274.5 216.38 276.72 220.95 283.82 242.21 275.98 271.74 256.01 256.53 243.44 229.07"/><polygon class="cls-14" points="250.39 269.22 243.44 229.07 261.04 252.25 275.98 271.74 258.82 275.87 250.39 269.22"/><polygon class="cls-12" points="243.75 287.7 250.39 269.22 275.98 271.74 252.5 296.12 243.75 287.7"/><polygon class="cls-14" points="297.88 229.66 289.15 220.66 276.72 220.95 275.98 271.74 291.52 255.05 297.88 229.66"/><polygon class="cls-12" points="299.65 267.01 275.98 271.74 297.88 229.66 301.13 248.41 299.65 267.01"/><polygon class="cls-14" points="304.39 266.42 301.13 248.41 304.39 230.99 325.39 242.5 333.38 269.52 304.39 266.42"/><polygon class="cls-13" points="297.88 229.66 300.69 227.59 304.39 230.84 304.39 247.23 304.39 266.27 299.65 267.01 297.88 229.66"/><polygon class="cls-12" points="325.1 218.59 312.82 220.66 304.39 230.99 333.38 269.52 345.66 270.85 357.35 253.43 344.33 226.41 325.1 218.59"/><polygon class="cls-14" points="352.32 206.92 357.35 253.43 325.1 218.59 324.21 200.28 333.53 183.16 352.91 192.46 352.32 206.92"/><polygon class="cls-12" points="356.91 165.14 344.48 168.39 333.53 183.16 341.67 193.34 368.89 198.36 381.46 190.09 356.91 165.14"/><polygon class="cls-13" points="352.32 206.92 341.67 193.34 364.15 191.57 381.46 190.09 380.72 205.15 352.32 206.92"/><polygon class="cls-13" points="340.93 297.57 333.38 269.52 357.35 253.43 345.66 294.03 340.93 297.57"/><polygon class="cls-13" points="269.03 206.92 269.92 217.11 276.72 220.95 280.13 217.7 277.76 211.5 278.2 206.34 269.03 206.92"/><polygon class="cls-13" points="300.69 221.69 277.76 211.5 276.72 220.95 297.88 229.66 301.43 227.89 300.69 221.69"/><polygon class="cls-12" points="304.39 230.99 304.98 225.38 300.69 221.69 297.88 229.66 304.39 230.99"/><polygon class="cls-13" points="325.1 218.59 324.36 210.62 317.85 210.17 300.69 221.69 302.46 226.27 304.39 230.99 325.1 218.59"/><polygon class="cls-13" points="319.18 177.55 333.53 183.16 327.32 193.79 328.95 202.2 323.92 208.99 325.1 218.59 317.85 210.17 319.18 177.55"/><polygon class="cls-27" points="333.53 183.16 330.87 194.53 328.95 202.2 317.85 210.17 325.1 218.59 328.95 202.2 318.59 194.38 333.53 183.16"/><polygon class="cls-13" points="371.84 148.61 356.91 165.14 333.53 183.16 319.18 177.55 354.24 146.54 371.84 148.61"/><polygon class="cls-27" points="344.03 175.04 344.03 175.04 330.13 167.8 333.53 183.16 319.18 177.55 354.24 146.54 356.91 165.14 339.74 159.38 344.03 175.04"/><path class="cls-13" d="M337.82,180.94a5.32,5.32,0,1,1-5.33,5.31A5.32,5.32,0,0,1,337.82,180.94Z"/><path class="cls-13" d="M354.39,175.33c1.39,0,2.52,1.65,2.52,3.69s-1.13,3.7-2.52,3.7-2.51-1.66-2.51-3.7S353,175.33,354.39,175.33Z"/><polygon class="cls-12" points="225.39 278.67 254.68 303.77 257.2 311.45 250.54 313.81 223.17 289.45 225.39 278.67"/><polygon class="cls-14" points="243.44 229.07 232.19 228.92 231.46 221.84 236.78 214.89 251.28 225.52 243.44 229.07"/><polygon class="cls-13" points="226.13 219.91 236.78 214.89 232.19 228.92 226.13 219.91"/><polygon class="cls-14" points="377.39 277.67 348.1 302.77 346.32 309.12 352.24 312.81 379.61 288.45 377.39 277.67"/><polygon class="cls-13" points="348.1 302.77 254.68 303.77 250.54 313.81 352.24 312.81 348.1 302.77"/><polygon class="cls-14" points="178.35 290.08 189.68 279.49 187.74 291.14 198.62 291.39 191.06 301.24 183.95 300.87 178.35 290.08"/><polygon class="cls-13" points="179.12 310.78 178.35 290.08 191.06 301.24 190.28 307.91 179.12 310.78"/><polygon class="cls-14" points="206.94 315.5 191.06 301.24 179.12 310.78 193.56 319.68 206.94 315.5"/><polygon class="cls-13" points="195.8 340.2 206.94 315.5 179.12 310.78 195.8 340.2"/></g><polygon class="cls-17" points="683.26 168.1 690.59 168.6 700.26 152.46 690.59 143.98 673.59 153.13 683.26 168.1"/><polygon class="cls-16" points="673.59 153.13 690.59 168.6 676.92 179.41 665.42 179.08 673.59 153.13"/><polygon class="cls-18" points="655.75 179.08 664.92 166.77 667.05 154.21 676.76 146.97 679.59 150.13 674.26 156.95 675.59 164.44 663.42 179.57 655.75 179.08"/><polygon class="cls-28" points="526.06 297.6 529.86 206.36 533.62 189.93 585.62 152.96 629.25 198.87 649.24 307.67 630.9 323.6 525.33 323.88 508.74 320.31 526.06 297.6"/><polygon class="cls-12" points="542.11 285.36 565.7 294.94 562.2 312.25 550.06 312.25 542.11 305.38 542.11 285.36"/><polygon class="cls-14" points="542.11 305.38 527.02 320.31 541.6 323.6 562.56 320.31 562.2 312.25 542.11 305.38"/><polygon class="cls-12" points="527.02 326.98 562.56 326.98 562.56 320.31 532.58 320.31 520.8 315.88 527.02 326.98"/><polygon class="cls-13" points="542.11 285.36 563.74 303.79 565.7 294.94 553.9 285.36 542.11 285.36"/><polygon class="cls-29" points="625.86 122.54 643.88 144.97 651.9 159.32 635.17 188.99 520.07 178.74 523.62 134.15 535.82 126.77 625.86 122.54"/><polygon class="cls-30" points="535.82 126.77 625.86 122.54 650.32 139.34 651.9 159.32 637.85 149.66 533.62 141.03 523.62 134.15 535.82 126.77"/><polygon class="cls-12" points="596.76 296.09 600.46 310.81 612.61 312.25 623.51 307.67 621.65 290.62 596.76 296.09"/><polygon class="cls-14" points="623.51 307.67 630.9 323.6 599.95 323.6 600.46 310.81 623.51 307.67"/><polygon class="cls-12" points="599.95 329.14 630.9 329.14 630.9 323.6 615.43 318.86 599.95 323.6 599.95 329.14"/><polygon class="cls-13" points="621.65 290.62 598.69 303.79 596.76 296.09 604.39 289.33 621.65 290.62"/><polygon class="cls-4" points="578.99 229.51 596.76 285.36 578.16 300.17 542.11 285.36 542.21 230.98 556.31 224.72 578.99 229.51"/><polygon class="cls-20" points="616.58 242.69 621.65 290.62 578.16 300.17 578.99 229.51 616.58 242.69"/><polygon class="cls-4" points="542.21 157.73 533.62 141.03 511.61 182.9 504.36 201.37 529.86 206.36 547.86 186.65 542.21 157.73"/><polygon class="cls-4" points="618.71 142.73 590.73 157.37 565.34 176.91 578.99 229.51 615.68 229.51 615.68 217.2 630.9 177.99 618.71 142.73"/><polygon class="cls-20" points="575.5 172.93 579.02 217.2 578.99 229.51 542.21 229.51 542.11 212.32 533.62 141.03 551.56 139.34 552.2 146.79 552.2 146.79 559.83 146.43 563.83 163.64 575.5 172.93"/><polygon class="cls-4" points="626.88 197.13 641.49 189.82 658.5 320.31 646.33 312.34 640.09 301.08 626.88 197.13"/><polygon class="cls-20" points="630.9 323.6 658.5 320.31 640.09 301.08 630.9 323.6"/><polygon class="cls-24" points="615.68 229.51 542.21 229.51 542.21 243.29 616.58 242.69 615.68 229.51"/><polygon class="cls-5" points="653.38 188.02 630.9 146.95 615.87 141.09 609.61 140.17 616.64 165.18 619.62 190.89 626.88 197.13 653.38 188.02"/><polygon class="cls-13" points="575.83 166.26 565.7 155.76 559.83 146.43 549.14 147.98 550.08 163.73 575.5 172.93 581.53 167.54 575.83 166.26"/><polygon class="cls-14" points="575.83 166.26 575.5 172.93 616.64 165.18 618.71 142.73 609.61 140.17 599.3 151.33 575.83 166.26"/><polygon class="cls-25" points="612.35 141.03 614.71 101.35 619.63 91.14 628.95 95.43 630.9 146.95 612.35 141.03"/><polygon class="cls-25" points="536.42 90.62 533.62 141.03 548.43 139.74 550.8 85.69 536.42 90.62"/><polygon class="cls-18" points="549.14 147.98 596.76 145.74 610.24 136.13 616.64 63.17 542.2 59.97 549.14 147.98"/><polygon class="cls-17" points="556.31 147.65 605.03 141.26 610.88 70.27 619.63 56.37 611.98 145.22 610.24 156.28 575.83 166.26 557.93 157.47 556.31 147.65"/><polygon class="cls-16" points="583.22 118.01 576.24 122.78 569.25 118.01 583.22 118.01"/><polygon class="cls-17" points="605.06 99.72 590.46 104.19 583.22 118.01 579.1 95.69 599.91 93.81 605.06 99.72"/><polygon class="cls-17" points="569.25 118.01 558.87 104.19 547.41 99.72 552.57 96.48 562.02 95.43 573.37 95.69 573.37 109.53 569.25 118.01"/><polygon class="cls-21" points="569.25 118.01 576.24 119.76 583.22 118.01 579.1 95.69 573.37 95.69 569.25 118.01"/><polygon class="cls-19" points="573.37 95.69 552.57 96.48 547.41 99.72 552.57 91.14 573.37 95.69"/><polygon class="cls-19" points="579.1 95.69 599.91 96.48 605.06 99.72 599.91 91.14 579.1 95.69"/><polygon class="cls-16" points="573.86 160.62 556.31 147.65 611.98 145.22 573.86 160.62"/><polygon class="cls-22" points="628.95 95.43 627.47 58.44 611.98 54.58 599.83 45.34 558.31 45.34 549.14 56.37 533.29 63.17 536.42 90.62 544.73 92.06 542.81 66.28 574.94 76.78 609.69 61.16 615.56 105.91 628.95 95.43"/><polygon class="cls-23" points="574.94 76.78 599.83 45.34 627.47 58.44 610.88 70.27 574.94 76.78"/><polygon class="cls-17" points="606.5 123.45 547.47 126.86 549.14 147.98 605.06 145.53 606.5 123.45"/><polygon class="cls-19" points="558.31 45.34 574.94 76.78 543.09 70.03 533.29 63.17 558.31 45.34"/><polygon class="cls-31" points="606.5 123.45 614.12 120.39 611.98 145.22 605.06 145.53 606.5 123.45"/><ellipse class="cls-25" cx="559.02" cy="104.19" rx="3.54" ry="3.53"/><ellipse class="cls-25" cx="590.74" cy="104.19" rx="3.54" ry="3.53"/><polygon class="cls-16" points="564.7 130.25 590.7 128.92 583.53 140.4 570.62 140.86 564.7 130.25"/><polygon class="cls-32" points="568.68 132.06 585.81 131.06 583.56 135.99 570.62 136.05 568.68 132.06"/><polygon class="cls-14" points="511.61 182.9 488.65 189.74 475.1 210.1 529.86 206.36 511.61 182.9"/><polygon class="cls-14" points="664.92 166.77 626.88 197.13 644.75 215.34 676.92 179.41 664.92 166.77"/><g id="child"><polygon class="cls-17" points="493.85 211.43 503.02 222.58 493.44 245.87 477.52 217.25 493.85 211.43"/><polygon class="cls-12" points="486.1 309.66 480.34 314.33 480.56 318.13 510.52 318.14 510.36 314.24 486.1 309.66"/><polygon class="cls-14" points="487.27 294.52 494.31 301.51 510.36 314.24 480.34 314.33 479.99 304.56 487.27 294.52"/><polygon class="cls-4" points="503.02 222.58 489.85 228.56 482.02 218.09 488.65 189.74 503.02 222.58"/><polygon class="cls-12" points="446.22 312.86 454.89 318.77 454.72 322.91 432.3 323.09 432.18 318.85 446.22 312.86"/><polygon class="cls-14" points="444.85 302.63 435.68 305.75 432.18 318.85 454.89 318.77 450.85 305.75 444.85 302.63"/><polygon class="cls-17" points="479.99 304.56 475.56 286.29 484.62 269.07 494.75 278.87 494.31 301.51 479.99 304.56"/><polygon class="cls-16" points="478.18 267.32 494.75 278.87 475.56 286.29 472.43 273.94 478.18 267.32"/><polygon class="cls-17" points="450.85 305.75 454.59 286.82 446.74 262.83 434.55 278.49 435.68 305.75 450.85 305.75"/><polygon class="cls-16" points="440.43 269.44 434.55 278.49 454.59 286.82 457.43 272.81 440.43 269.44"/><polygon class="cls-18" points="425.93 163.69 424.26 156.45 427.55 146.55 436.85 154.37 434.51 164.5 425.93 163.69"/><polygon class="cls-4" points="439.43 220.66 413.17 197.71 422.18 181.24 435.68 186.48 439.43 220.66"/><polygon class="cls-17" points="434.51 164.5 413.17 197.71 399.67 184.98 424.26 156.45 434.51 164.5"/><polygon class="cls-19" points="489.19 148.43 509.31 119.73 470.18 111.62 498.13 120.61 489.19 148.43"/><polygon class="cls-20" points="434.55 278.49 433.38 247.2 468.75 246.8 475.82 266.64 465.59 269.51 461.23 278.84 434.55 278.49"/><polygon class="cls-20" points="470.04 278.84 465.59 269.51 468.75 246.8 493.44 245.87 494.75 278.87 470.04 278.84"/><polygon class="cls-4" points="433.38 247.2 465.59 269.51 493.44 245.87 461.01 233.22 433.38 247.2"/><polygon class="cls-17" points="443.27 187.48 434.51 164.5 436.64 161.88 432.57 159.51 426.51 143.98 439.93 123.68 451.95 121.15 464.23 156.71 466.23 206.79 443.27 187.48"/><polygon class="cls-18" points="498.13 120.61 449.01 121.41 457.02 181.22 495.19 181.22 498.13 120.61"/><polygon class="cls-17" points="493.61 136.09 493.61 136.09 481.23 136.09 472.17 136.6 458.39 137.36 469.36 143.86 474.47 156.33 478.42 158.12 482.38 156.08 485.95 143.73 493.61 136.09"/><polygon class="cls-16" points="466.23 206.79 481.71 181.22 454.48 181.22 466.23 206.79"/><polygon class="cls-19" points="458.39 137.36 468.85 129.47 472.17 136.6 458.39 137.36"/><polygon class="cls-19" points="481.23 136.09 483.91 129.98 493.61 136.09 481.23 136.09"/><polygon class="cls-21" points="473.7 136.6 474.47 156.33 482.38 156.08 479.95 136.09 473.7 136.6"/><polygon class="cls-16" points="478.8 160.15 474.47 156.33 482.38 156.08 478.8 160.15"/><polygon class="cls-22" points="446.07 99.3 484.52 97.31 509.31 119.73 498.13 120.61 452.22 112.49 446.07 99.3"/><polygon class="cls-23" points="449.01 121.41 441.81 113.56 446.07 99.3 498.13 120.61 449.01 121.41"/><polygon class="cls-22" points="417.43 125.59 446.07 99.3 447.68 111.42 449.01 121.41 435.4 128.47 417.43 125.59"/><polygon class="cls-19" points="427.55 146.55 417.43 125.59 449.01 121.41 445.87 148.24 441.3 149.36 440.29 143.67 427.55 146.55"/><polygon class="cls-20" points="433.38 247.2 435.68 186.48 443.27 187.48 453.82 204.26 466.23 206.79 474.37 230.5 467.81 251.46 433.38 247.2"/><polygon class="cls-24" points="493.44 245.87 467.81 251.46 466.23 206.79 476.24 201.59 478.24 186.94 483.58 188.28 488.65 189.74 491.19 222.91 493.44 245.87"/><polygon class="cls-6" points="449.94 208.92 466.23 206.79 443.27 187.48 449.94 208.92"/><polygon class="cls-6" points="481.04 207.33 466.23 206.79 478.24 186.94 481.04 207.33"/><polygon class="cls-16" points="434.51 164.5 432.57 159.51 442.51 156.45 434.51 164.5"/><ellipse class="cls-25" cx="468.62" cy="143.12" rx="3.23" ry="3.22"/><ellipse class="cls-25" cx="487.82" cy="142.72" rx="3.23" ry="3.22"/><polygon class="cls-16" points="467.02 164.52 486.77 164.52 484.77 167.01 469.52 167.1 467.02 164.52"/><polygon class="cls-16" points="431.86 148.68 437.74 147.62 436.62 153.85 431.86 148.68"/></g></svg>