<svg id="illustration" xmlns="http://www.w3.org/2000/svg" viewBox="0 0 899.92 349.58"><defs><style>.cls-1{fill:#99c26d;}.cls-1,.cls-10,.cls-13,.cls-14,.cls-15,.cls-16,.cls-17,.cls-18,.cls-19,.cls-2,.cls-20,.cls-21,.cls-22,.cls-23,.cls-3,.cls-32,.cls-33,.cls-34,.cls-35,.cls-36,.cls-37,.cls-38,.cls-39,.cls-40,.cls-41,.cls-42,.cls-43,.cls-44,.cls-45,.cls-46,.cls-47,.cls-48,.cls-49,.cls-5,.cls-50,.cls-51,.cls-52,.cls-53,.cls-6,.cls-7,.cls-8,.cls-9{fill-rule:evenodd;}.cls-2{fill:#bfdb8e;}.cls-3{fill:#dddddc;}.cls-4{fill:#fff;}.cls-27,.cls-5{fill:#709d53;}.cls-25,.cls-6{fill:#54b08b;}.cls-24,.cls-7{fill:#3f8f6f;}.cls-28,.cls-8{fill:#72c9a6;}.cls-9{fill:#cececd;}.cls-10{fill:#ececeb;}.cls-11,.cls-12,.cls-47,.cls-48,.cls-53,.cls-54{fill:#2b2b2b;}.cls-11,.cls-48{opacity:0.2;}.cls-12,.cls-18,.cls-47{opacity:0.1;}.cls-13{fill:#8f8f8f;}.cls-14{fill:#737373;}.cls-15{fill:#c4c4c4;}.cls-16{fill:#a3a3a3;}.cls-17{fill:#858686;}.cls-19{fill:#738d57;}.cls-20{fill:#b8c745;}.cls-21{fill:#e8f078;}.cls-22,.cls-26{fill:#35785d;}.cls-23,.cls-31{fill:#5a753d;}.cls-29,.cls-46{fill:#fff0e8;}.cls-30,.cls-35{fill:#a0cf7e;}.cls-32{fill:#6f7173;}.cls-33{fill:#4f5253;}.cls-34{opacity:0.14;}.cls-36{fill:#dfbda5;}.cls-37{fill:#c3987b;}.cls-38{fill:#8b6651;}.cls-39{fill:#e8cab6;}.cls-40{fill:#d0ab92;}.cls-42{fill:#9da1a2;}.cls-43{fill:#ac923c;}.cls-44{fill:#d9e354;}.cls-45{opacity:0.13;}.cls-49{fill:#7f5d4e;}.cls-50{fill:#a27e6e;}.cls-51{fill:#aa8d80;}.cls-52{fill:#593e35;}</style></defs><title>diplomats_Advocate_INFJ_career_path</title><g id="carpet"><polygon class="cls-1" points="303.92 325.58 318.17 349.58 756.2 302.92 636.92 246.58 611.9 235.25 278.17 279.93 303.92 325.58"/><polygon class="cls-2" points="318.17 349.58 360.42 345.08 295.56 277.6 278.17 279.93 318.17 349.58"/><polygon class="cls-2" points="756.2 302.92 611.9 235.25 592.22 238.44 714.19 307.39 756.2 302.92"/><polygon class="cls-2" points="570.63 285.63 560.25 281.08 575.04 274.8 581.11 281.08 592.22 277.58 605.45 282.58 592.22 287.25 606.47 293.92 592.22 300.25 585.48 295.58 581.11 302.25 568.89 300.58 572.75 293.92 561.81 295.92 556.28 287.25 570.63 285.63"/><path class="cls-2" d="M642,315.51l-5-4.84h13l-6.51-6.34,9.16-6,7,6.34s3.89-10.67,4.45-9.67,15.36,4.67,15.36,4.67l-8.61,6.44,11.76-.89,5.8,5.34Z" transform="translate(-0.08 -0.42)"/><polygon class="cls-2" points="537.3 326.24 540.6 319.25 527.58 317.25 534.09 308.58 516.91 308.58 516.91 315.09 507.58 311.58 495.17 317.41 505.92 321.58 496.5 325.58 502.89 329.9 537.3 326.24"/><polygon class="cls-2" points="437.24 318.34 452.9 318.34 454.57 310.01 439.57 310.01 450.24 304.68 434.57 300.18 430.52 307.01 422.57 302.28 411.24 307.34 420.57 312.56 409.24 313.45 413.9 321.35 425.24 321.35 423.57 327 441.9 325.34 437.24 318.34"/><polygon class="cls-2" points="376.57 300.03 383.67 294.52 368.25 290.92 366.92 297.92 358.48 294.52 347.5 300.03 358.17 302.25 347.5 310.38 358.17 315.09 365.58 311.58 363.92 319.24 379.65 315.09 373.58 308.58 383.67 310.25 387.25 300.92 376.57 300.03"/><polygon class="cls-2" points="474.13 273.58 486.92 277.6 487.04 268.33 505.92 269.92 496.5 277.6 508.92 275.08 512.04 284.08 496.5 283.93 505.92 291.53 492.04 294.52 488.42 288.53 483.42 294.52 471.58 290.92 481.58 285.63 468.92 283.93 474.13 273.58"/><polygon class="cls-2" points="447.41 257.27 453.49 259.75 442.87 263.66 456.87 267.58 445.54 275.26 437.54 269.41 437.54 279.09 423.2 279.09 427.2 270.25 418.44 275.26 409.54 270.25 421.92 264.25 411.92 262.02 447.41 257.27"/><polygon class="cls-1" points="486.67 281.43 492.04 279.09 493.92 281.43 489.9 283.93 486.67 281.43"/><polygon class="cls-1" points="428.67 262.08 433.2 259.92 436.67 262.08 430.92 264.25 428.67 262.08"/><polygon class="cls-1" points="365.88 302.25 370.22 302.25 368.25 306.33 362.46 304.81 365.88 302.25"/><polygon class="cls-1" points="428.67 312.58 433.2 310.08 436.67 313.59 427.67 315.09 428.67 312.58"/><polygon class="cls-1" points="514.42 322.83 520.09 319.24 523.81 322.83 517.88 325.58 514.42 322.83"/><polygon class="cls-1" points="576.67 288.53 581.11 285.63 585.48 287.08 580.32 290.92 576.67 288.53"/><polygon class="cls-1" points="658.98 313.27 662.63 308.58 668.33 312.28 658.98 313.27"/></g><g id="speechbuuble"><polygon class="cls-3" points="291.58 108.08 254.5 62.97 327.92 0 538.03 16 546.42 66.5 534.93 94.88 545.89 109.97 527.58 111.97 503.54 175.85 461.9 182.15 409.67 174.58 381.93 174.2 291.58 108.08"/><circle class="cls-4" cx="422.86" cy="99.26" r="28.75"/><polygon class="cls-5" points="522.05 126.67 512.42 108.94 504.42 113.79 489.9 112.45 475.45 116.33 504.93 145.03 516.43 141.59 522.05 126.67"/><polygon class="cls-5" points="383.17 112.45 373.93 104.79 361.67 105.75 349.67 97.95 344.46 88.38 326.25 83.88 319.46 92.92 294.29 85.32 282.17 96.63 291.58 108.08 366.92 121.58 383.17 112.45"/><polygon class="cls-1" points="522.05 126.67 512.04 117.42 487.52 128.08 475.45 116.33 486.9 108.71 504.93 109.96 512.04 103.32 527.58 111.97 522.05 126.67"/><polygon class="cls-1" points="282.17 96.63 298.89 88.38 314.67 95.12 347.48 100.14 354.7 111.98 383.17 112.45 374.54 102.62 362.48 103.32 350.67 96.16 345.58 79.92 323.21 81.79 318.17 90.21 293.89 80.6 273.67 86.29 282.17 96.63"/><polygon class="cls-6" points="509.28 143.21 431.4 102.24 387.42 117.25 366.92 121.58 323.88 155.53 381.93 174.2 409.43 176.9 502.89 162.62 509.28 143.21"/><polygon class="cls-7" points="431.4 102.24 448.85 118.26 474.93 145.03 442.42 137.46 428.67 121.84 414.93 123.58 409.43 176.9 461.9 182.15 503.54 175.85 516.43 141.59 475.46 116.33 431.4 102.24"/><polygon class="cls-7" points="381.93 174.2 401.9 128.08 384.93 135.47 371.42 157.53 366.46 170.45 381.93 174.2"/><polygon class="cls-8" points="383.17 112.45 431.4 102.24 454.57 109.71 448.85 118.26 428.67 121.84 414.93 123.58 401.9 128.08 384.93 135.47 366.92 121.58 383.17 112.45"/><polygon class="cls-6" points="448.85 118.26 431.4 102.24 475.45 116.33 448.85 118.26"/><polygon class="cls-6" points="401.9 128.08 411.92 106.36 395.92 117.22 384.93 135.47 401.9 128.08"/><polygon class="cls-6" points="414.93 123.58 420.74 104.5 423.08 104 428.67 121.84 414.93 123.58"/><polygon class="cls-9" points="297.7 25.92 320.17 21.58 337.92 31.34 359.94 34.54 339.13 38.48 318.17 43.16 276.91 43.74 297.7 25.92"/><polygon class="cls-10" points="359.94 34.54 345.92 25.92 320.17 21.58 302.92 21.58 290.41 32.17 318.43 35.79 359.94 34.54"/><polygon class="cls-9" points="471.67 61.58 492.04 61.58 523.81 72.6 546.42 66.5 539.8 82.83 520.09 84.33 490.33 75.78 471.67 61.58"/><polygon class="cls-10" points="471.67 61.58 489.9 68.83 523.81 72.6 546.42 66.5 527.58 60.25 492.04 61.58 471.67 61.58"/><polygon class="cls-9" points="339.13 70.5 355.2 79.02 371.42 74.76 390.42 72.6 363.92 66.42 339.13 70.5"/><polygon class="cls-10" points="390.42 72.6 383.67 63.33 349.67 66.08 339.13 70.5 364.74 70.5 390.42 72.6"/></g><g id="cupboard"><polygon class="cls-11" points="866.25 156.52 844.58 165.09 862 220.09 899.92 220.09 883.92 159.08 866.25 156.52"/><polygon class="cls-12" points="899.92 220.09 862 220.09 719.92 224.58 701.29 228.34 719.92 234.23 824.42 240.34 878.92 232.83 899.92 220.09"/><polygon class="cls-13" points="720.98 172.28 719.92 234.23 824.42 240.34 826.42 179.61 720.98 172.28"/><polygon class="cls-14" points="819.42 179.61 862.42 165.09 862 220.09 824.42 240.34 819.42 179.61"/><polygon class="cls-15" points="760.42 142.29 868.92 148.83 830.42 170.74 715.5 159.03 760.42 142.29"/><polygon class="cls-16" points="830.42 168.74 832.42 175.58 830.42 183.25 718.23 175.17 715.5 159.03 830.42 168.74"/><polygon class="cls-17" points="868.92 148.83 869.92 165.62 830.42 183.25 830.42 168.74 868.92 148.83"/><polygon class="cls-15" points="728.92 181.57 767.67 186.82 768.67 228.34 725.98 225.87 728.92 181.57"/><polygon class="cls-15" points="776.17 187.24 812.17 187.24 814.92 230.22 774.92 228.34 776.17 187.24"/><polygon class="cls-12" points="787.92 199.17 783.92 210.66 779.92 199.39 787.92 199.17"/><polygon class="cls-12" points="762.67 197.84 758.92 209.05 755.17 197.58 762.67 197.84"/><polygon class="cls-13" points="755.17 197.58 759.42 192.92 762.67 197.84 758.92 202.83 755.17 197.58"/><polygon class="cls-13" points="779.92 199.39 783.92 194.61 787.92 199.17 783.42 203.83 779.92 199.39"/><polygon class="cls-18" points="782.08 150.65 766.42 156.52 799.92 162.93 829.25 153.9 799.08 146.83 782.08 150.65"/><polygon class="cls-19" points="779.92 130.22 793.21 126.33 812.42 126.59 799.42 132.92 779.92 130.22"/><polygon class="cls-1" points="779.92 130.22 783.92 137.08 773.92 150.33 778.17 158.52 800.67 159.83 803.17 151.41 795.92 137.08 799.42 131.92 779.92 130.22"/><polygon class="cls-5" points="799.42 131.92 812.42 126.59 807.67 135.47 815.93 145.64 812.17 152.54 800.67 159.83 802.17 151.41 794.92 137.08 799.42 131.92"/><polygon class="cls-18" points="783.92 137.08 794.92 137.08 807.67 135.47 812.42 126.59 799.42 131.92 779.92 130.22 783.92 137.08"/><polygon class="cls-18" points="773.92 150.33 802.17 151.41 815.93 145.64 812.17 152.54 800.67 159.83 778.17 158.52 773.92 150.33"/><polygon class="cls-6" points="802.36 130.71 804.33 122.09 810.02 119.11 805.42 129.63 802.36 130.71"/><polygon class="cls-20" points="804.33 122.09 805.42 129.63 814.57 128.01 815.93 123.58 821.54 123.58 820.79 117.07 815.93 113.33 815.19 109.33 807.13 107.98 803.61 109.28 797.51 105.22 793.29 110.55 796.25 114.56 792.77 117.83 800.47 122.35 804.33 122.09"/><polygon class="cls-5" points="804.33 114.29 810.14 114.57 813.35 118.36 807.04 117.64 804.33 114.29"/><polygon class="cls-6" points="792.21 131.29 793.52 105.01 797.33 104.18 794.51 131.49 792.21 131.29"/><polygon class="cls-21" points="793.29 109.06 796.49 112.45 807.13 107.98 807.42 104 813.64 102.18 808.48 96.98 801.17 96.25 798.25 93.16 791.61 93.16 788.17 96.33 780.37 96.31 777.67 103.5 783.58 105.22 782.77 109.11 789.82 110.9 793.29 109.06"/><polygon class="cls-1" points="790.21 101.97 795.66 99.95 800.1 102.18 794.01 104 790.21 101.97"/><polygon class="cls-6" points="792.21 131.29 785.67 119.92 781.42 120.83 788.54 130.97 792.21 131.29"/><polygon class="cls-20" points="788.54 119.5 792.77 119.92 789.25 113.67 784.75 113.17 782.77 109.11 775.75 109.67 774.67 112.45 769.92 112.45 766.42 117.07 770.75 118.36 769.75 121.58 775.45 123.93 778.75 122.08 780.25 124.69 787.26 122.69 788.54 119.5"/><polygon class="cls-5" points="775.48 115.9 780.06 114.21 783.58 115.9 778.89 117.83 775.48 115.9"/></g><g id="lamp"><polygon class="cls-18" points="794.03 246.69 775.75 242.46 702.84 237.43 702.35 237.64 636.92 212.31 458.42 235.33 496.5 262.08 613.83 281.08 678.74 250.53 743.58 259.92 794.03 246.69"/><polygon class="cls-5" points="746.67 84.45 746.67 111.98 743.15 111.98 743.58 83 746.67 84.45"/><polygon class="cls-1" points="740.23 110.55 750.17 110.55 748.71 123.58 741.23 122.33 740.23 110.55"/><polygon class="cls-2" points="702.84 237.43 738.92 231.23 773.92 237.43 743.58 251.71 702.84 237.43"/><polygon class="cls-1" points="702.84 237.43 701.29 246.69 743.58 259.92 744.58 253.58 743.58 249.71 702.84 237.43"/><polygon class="cls-5" points="773.92 237.43 777.25 246.58 743.58 259.92 743.58 249.71 773.92 237.43"/><polygon class="cls-7" points="728.92 240.47 741.92 241.18 743.15 206.58 741.92 198.39 734.25 197.58 728.92 240.47"/><polygon class="cls-6" points="743.58 194.61 719.92 169.74 715.58 178.21 724.54 188.72 743.15 206.58 743.58 194.61"/><polygon class="cls-7" points="720.76 185.08 738.38 84.45 722.94 84.45 713.58 178.21 720.76 185.08"/><polygon class="cls-22" points="722.59 87.98 730.08 87.98 737.61 90.21 734.07 109.06 721.64 97.49 722.59 87.98"/><polygon class="cls-2" points="725.98 15.58 705.92 25.92 734.25 31.92 754.25 16.58 725.98 15.58"/><polygon class="cls-1" points="705.92 25.92 698.84 84.45 737.61 90.21 737.18 56.59 733.25 29.92 705.92 25.92"/><polygon class="cls-5" points="733.25 29.92 754.25 16.58 771.25 72 737.61 90.21 733.25 29.92"/><polygon class="cls-2" points="699.89 75.78 736.83 79.39 737.61 90.21 698.84 84.45 699.89 75.78"/><polygon class="cls-1" points="736.83 79.39 768.35 62.55 771.25 72 737.61 90.21 736.83 79.39"/><polygon class="cls-2" points="722.52 28.35 720.07 77.75 714.19 77.18 717.55 27.62 722.52 28.35"/><polygon class="cls-1" points="745.27 22.29 756.2 69.04 751.21 71.4 741.23 24.85 745.27 22.29"/><polygon class="cls-5" points="719.08 23.75 728.25 18.75 741.23 20.08 731.92 25.08 719.08 23.75"/></g><g id="bookcase"><polygon class="cls-11" points="37.51 75.91 13.92 78.54 0 220.09 29.92 220.09 48.42 138.25 37.51 75.91"/><polygon class="cls-12" points="29.92 220.09 0 220.09 105.09 256.81 247.92 226.09 29.92 220.09"/><polygon class="cls-15" points="62.92 66.08 38.42 58.68 182.42 41.58 234.33 52.58 62.92 66.08"/><polygon class="cls-17" points="62.92 64.08 38.42 58.68 29.92 220.09 72.38 245.08 72.38 141.59 62.92 64.08"/><polygon class="cls-16" points="62.92 64.08 234.33 52.58 247.92 226.09 72.38 245.08 62.92 64.08"/><polygon class="cls-14" points="80.92 80.92 222.92 66.08 226.25 107.78 80.92 121.84 80.92 80.92"/><polygon class="cls-15" points="226.25 107.78 190.25 97.58 80.92 106.62 80.92 121.84 226.25 107.78"/><polygon class="cls-14" points="79.58 135.5 226.25 121.12 229.58 162.21 83.58 172.81 79.58 135.5"/><polygon class="cls-15" points="229.58 162.21 186.25 150.73 82.22 160.12 83.58 172.81 229.58 162.21"/><polygon class="cls-14" points="82.22 186.52 231.58 174.58 234.33 215.5 82.22 228.72 82.22 186.52"/><polygon class="cls-15" points="234.33 215.5 197.25 200.47 82.22 212.31 82.22 228.72 234.33 215.5"/><polygon class="cls-15" points="204.92 76.33 184.42 74.08 171.92 75.83 192.42 81.33 204.92 76.33"/><polygon class="cls-23" points="192.42 79.33 171.92 75.83 173.92 103.58 193.42 107.83 196.67 89.83 192.42 79.33"/><polygon class="cls-5" points="203.42 106.62 204.92 76.33 192.42 79.33 193.42 107.83 203.42 106.62"/><polygon class="cls-15" points="181.29 80.46 162.79 78.21 152.29 78.96 168.79 83.46 181.29 80.46"/><polygon class="cls-22" points="168.79 81.46 152.29 78.96 152.29 105.71 169.79 109.96 173.04 91.96 168.79 81.46"/><polygon class="cls-7" points="182.79 108.74 181.29 80.46 168.79 81.46 169.79 109.96 182.79 108.74"/><polygon class="cls-15" points="158.15 78.54 137.71 74.98 128.82 75.91 145.65 80.46 158.15 78.54"/><polygon class="cls-19" points="145.65 79.21 128.82 75.91 132.15 106.46 146.65 110.71 149.9 92.71 145.65 79.21"/><polygon class="cls-1" points="157.65 109.49 158.15 78.54 145.65 79.21 146.65 110.71 157.65 109.49"/><polygon class="cls-15" points="141.88 83.46 124.58 78.96 116.56 80.46 132.13 84.33 141.88 83.46"/><polygon class="cls-22" points="132.13 84.33 116.56 80.46 116.56 107.83 132.13 113.83 133.75 95.21 132.13 84.33"/><polygon class="cls-7" points="141.88 112.62 141.88 83.46 132.13 84.33 132.13 113.83 141.88 112.62"/><polygon class="cls-15" points="126.28 84.65 108.99 80.15 100.97 81.65 116.53 85.52 126.28 84.65"/><polygon class="cls-22" points="116.53 85.52 100.97 81.65 100.97 109.02 116.53 115.02 118.16 96.4 116.53 85.52"/><polygon class="cls-7" points="126.28 113.81 126.28 84.65 116.53 85.52 116.53 115.02 126.28 113.81"/><polygon class="cls-15" points="111.78 85.71 94.49 81.21 86.47 82.71 102.03 86.58 111.78 85.71"/><polygon class="cls-23" points="102.03 86.58 86.47 82.71 86.47 110.08 102.03 116.08 103.66 97.46 102.03 86.58"/><polygon class="cls-5" points="111.78 114.87 111.78 85.71 102.03 86.58 102.03 116.08 111.78 114.87"/><polygon class="cls-15" points="182.79 127.92 203.92 132.42 190.25 136.08 170.67 128.75 182.79 127.92"/><polygon class="cls-23" points="190.25 134.08 192.42 143.85 190.25 160.28 170.67 155.53 170.67 128.75 190.25 134.08"/><polygon class="cls-5" points="190.25 134.08 203.92 132.42 203.42 159.03 190.25 160.28 190.25 134.08"/><polygon class="cls-15" points="166.08 133.08 185.25 137.46 175.79 140.58 158.28 133.58 166.08 133.08"/><polygon class="cls-19" points="175.79 138.58 176.58 147.48 174.75 160.28 160.08 156.25 158.28 133.58 175.79 138.58"/><polygon class="cls-1" points="185.25 137.46 184.29 158.83 174.75 160.28 175.79 138.58 185.25 137.46"/><polygon class="cls-15" points="137 131.72 146.75 131.03 161.58 138.25 148.29 141.42 137 131.72"/><polygon class="cls-22" points="137 131.72 137.62 156.77 149.25 162.62 149.9 146.93 148.29 139.42 137 131.72"/><polygon class="cls-7" points="161.58 138.25 161.58 161.38 149.25 162.62 148.29 139.42 161.58 138.25"/><polygon class="cls-15" points="118.16 131.72 125.16 131.03 137 134.08 127.58 136.92 118.16 131.72"/><polygon class="cls-22" points="127.58 134.92 128.82 144.51 126.28 162.62 116.56 157.02 118.16 131.72 127.58 134.92"/><polygon class="cls-7" points="137 134.08 137.75 161.38 126.28 162.62 127.58 134.92 137 134.08"/><polygon class="cls-15" points="113.76 132.15 124.25 137.46 114.58 140.25 105.09 133 113.76 132.15"/><polygon class="cls-7" points="114.58 138.25 115.58 149.58 114.58 162.62 105.09 158.06 105.09 133 114.58 138.25"/><polygon class="cls-6" points="124.25 137.46 124.12 161.38 114.58 162.62 114.58 138.25 124.25 137.46"/><polygon class="cls-15" points="99.58 136.92 111.78 142.58 99.58 145.75 89.08 137.46 99.58 136.92"/><polygon class="cls-19" points="99.58 143.75 100.43 151.88 99.58 165.09 89.08 159.08 89.08 137.46 99.58 143.75"/><polygon class="cls-1" points="111.78 142.58 111.78 163.87 99.58 165.09 99.58 143.75 111.78 142.58"/><polygon class="cls-15" points="155.9 184.25 166.58 183.25 181.75 189.92 170.67 191.92 155.9 184.25"/><polygon class="cls-23" points="170.67 190.92 171.92 200.47 171.76 214.59 155.9 207.66 155.9 184.25 170.67 190.92"/><polygon class="cls-5" points="170.67 190.92 181.75 189.92 181.75 213.25 171.76 214.59 170.67 190.92"/><polygon class="cls-15" points="151 186.75 163.91 193.58 157.46 195.58 145.65 187.58 151 186.75"/><polygon class="cls-22" points="157.46 194.58 158.11 205.91 156.75 217.76 145.65 210.75 145.65 187.58 157.46 194.58"/><polygon class="cls-7" points="157.46 194.58 163.91 193.58 164.58 216.42 156.75 217.76 157.46 194.58"/><polygon class="cls-15" points="130.75 185.92 137.75 185.08 151 192.92 140.42 196.25 130.75 185.92"/><polygon class="cls-22" points="130.75 185.92 130.08 212.58 141.36 220.15 141.86 206.31 140.42 194.25 130.75 185.92"/><polygon class="cls-7" points="151 192.92 151 218.75 141.36 220.15 140.42 194.25 151 192.92"/><polygon class="cls-15" points="117.42 189.92 124.25 188.92 135.08 195.58 124.25 197.25 117.42 189.92"/><polygon class="cls-23" points="117.42 189.92 116.53 211.92 124.25 218.02 125.25 207.08 124.25 196.25 117.42 189.92"/><polygon class="cls-5" points="135.08 195.58 135.97 216.53 124.25 218.02 124.25 196.25 135.08 195.58"/><polygon class="cls-15" points="96.25 187.58 103.66 186.75 118.16 195.58 108.08 198.25 96.25 187.58"/><polygon class="cls-23" points="96.25 187.58 96.25 212.71 109.2 221.75 109.57 207.42 108.08 196.25 96.25 187.58"/><polygon class="cls-5" points="118.16 195.58 117.42 221.15 109.2 221.75 108.08 196.25 118.16 195.58"/><polygon class="cls-15" points="82.22 194.75 89.08 193.58 99.58 204.67 89.08 206.67 82.22 194.75"/><polygon class="cls-23" points="82.22 194.75 82.22 216.42 89.08 224.58 90.08 212.42 89.08 205.67 82.22 194.75"/><polygon class="cls-5" points="99.58 204.67 97.92 223.33 89.08 224.58 89.08 205.67 99.58 204.67"/></g><g id="cat"><polygon class="cls-24" points="691.47 214.3 696.42 231.23 692.87 235.79 688.33 237.43 685.57 217.75 691.47 214.3"/><polygon class="cls-25" points="688.33 237.43 696.42 231.23 702.84 237.43 688.33 237.43"/><polygon class="cls-26" points="692.76 218.72 686.71 225.87 685.57 217.75 691.47 214.3 692.76 218.72"/><polygon class="cls-24" points="682.42 185.08 677.94 173.34 670.28 190.87 682.42 185.08"/><polygon class="cls-24" points="697.75 191.08 708.17 185.82 701.91 203.83 697.75 191.08"/><polygon class="cls-26" points="678.66 186.56 677.08 180.67 674.54 189.19 678.66 186.56"/><polygon class="cls-26" points="698.84 194.17 703.75 191.42 700.34 199.39 698.84 194.17"/><polygon class="cls-27" points="665.25 191.85 654.93 186.62 651.08 209.93 658.98 216.24 671.92 224.58 685.57 217.75 677.67 206.58 665.25 191.85"/><polygon class="cls-28" points="665.25 191.85 682.42 185.08 689.99 189.05 697.75 191.08 704.42 209.93 685.57 216.75 671.92 210.58 665.25 191.85"/><polygon class="cls-25" points="704.42 209.93 684.83 206.58 680.25 204.75 665.25 191.85 671.92 211.58 685.57 217.75 704.42 209.93"/><polygon class="cls-26" points="680.25 204.75 681.17 208.65 684.83 206.58 680.25 204.75"/><polygon class="cls-29" points="684.83 206.58 688.29 202.83 694.42 205.25 684.83 206.58"/><polygon class="cls-29" points="680.25 204.75 680.79 199.21 674.54 195.58 680.25 204.75"/><polygon class="cls-24" points="685.57 217.75 681.17 208.65 671.92 211.58 685.57 217.75"/><polygon class="cls-30" points="682.42 185.08 684.83 200.75 697.75 191.08 682.42 185.08"/><polygon class="cls-26" points="689.63 203.36 688.33 204.42 688.68 206.05 689.92 205.08 689.63 203.36"/><polygon class="cls-26" points="679.39 198.39 678.04 199.33 677.94 201.04 679.39 200.17 679.39 198.39"/><polygon class="cls-31" points="671.92 211.58 656.89 203.97 658.98 216.24 662.96 227.42 671.92 226.58 685.57 217.75 671.92 211.58"/><polygon class="cls-24" points="671.92 211.58 666.47 222.23 658.98 216.24 664.18 207.66 671.92 211.58"/><polygon class="cls-25" points="658.98 216.24 669.53 216.24 671.92 226.58 663.74 225.87 659.59 224.58 658.98 216.24"/><polygon class="cls-27" points="671.92 226.58 680.25 229.88 680.25 240.25 670.28 243.92 662.96 239.58 661.3 229.88 671.92 226.58"/><polygon class="cls-26" points="671.92 226.58 661.3 229.88 659.19 223.33 671.92 226.58"/><polygon class="cls-30" points="671.92 226.58 671.92 238.44 661.3 229.88 671.92 226.58"/><polygon class="cls-31" points="671.92 238.44 680.25 240.25 670.28 243.92 671.92 238.44"/><polygon class="cls-24" points="658.47 188.42 669.58 179.78 666.61 174.26 661.3 172.17 658.47 188.42"/><polygon class="cls-25" points="669.58 179.78 677.94 173.34 675.27 166.78 670.78 161.94 661.3 172.17 669.58 179.78"/><polygon class="cls-24" points="677.94 173.34 691 174.04 690.33 165.89 687.08 159.08 670.78 161.94 677.94 173.34"/><polygon class="cls-26" points="691 174.04 693.58 165.89 687.08 159.08 691 174.04"/></g><g id="advocate2"><polygon class="cls-17" points="654.93 95.42 622.4 92.12 558.64 88.58 551.25 149.3 546.42 181.58 641.9 194.61 652.42 140.74 654.93 95.42"/><polygon class="cls-14" points="654.93 95.42 645.24 72.58 594.99 71.78 546.42 66.08 557.04 93.16 622.4 97.12 654.93 95.42"/><polygon class="cls-16" points="461.9 182.15 485.92 191.99 539.42 182.15 543.89 169.74 461.9 182.15"/><polygon class="cls-32" points="485.92 189.99 483.42 212.31 488.42 242.46 504.93 240.08 580.32 231.23 573.32 177.4 485.92 189.99"/><polygon class="cls-17" points="485.92 189.99 488.42 242.46 458.42 235.33 461.9 182.15 485.92 189.99"/><polygon class="cls-16" points="543.63 201.97 593.19 189.99 614.78 187.24 641.9 194.61 627.92 242.46 559.41 254.58 539.78 250.02 543.63 201.97"/><polygon class="cls-32" points="571.38 216.69 641.9 194.61 645.24 210.73 636.92 246.58 557.04 262.08 561.81 237.43 571.38 216.69"/><polygon class="cls-17" points="571.38 216.69 543.63 201.97 533.56 253.58 557.04 262.08 571.38 216.69"/><polygon class="cls-32" points="641.9 237.43 654.93 235.33 655.87 197.99 685.57 88.58 667.72 86.45 654.93 95.42 641.9 194.61 641.9 237.43"/><polygon class="cls-16" points="546.42 66.08 575.04 41.58 673.92 52.58 645.24 72.58 594.99 75.78 546.42 66.08"/><polygon class="cls-33" points="641.9 194.61 655.87 197.99 662.96 239.58 636.92 246.58 641.9 194.61"/><polygon class="cls-33" points="645.24 72.58 673.92 52.58 685.57 88.58 654.93 95.42 645.24 72.58"/><polygon class="cls-14" points="659.58 75.78 667.72 69.58 672.88 82.08 662.96 84.45 659.58 75.78"/><polygon class="cls-34" points="617.7 197.99 619.92 188.11 622.4 157.83 615.42 149.3 629.17 117.78 622.4 97.12 584.17 127.53 583.77 183 617.7 197.99"/><polygon class="cls-19" points="551.25 149.3 527.58 164.03 530.75 172.79 538.03 182.48 545.67 168.17 551.25 149.3"/><polygon class="cls-1" points="594.94 148.1 597.19 149.31 598.19 151.73 601.11 151.41 602.06 153.9 605.73 153.9 603.75 174.19 593.19 189.99 572.23 189.86 539.78 177.6 544.63 165.06 551.25 149.3 556.27 148.35 558.88 149.3 561.81 147.3 563.79 148.1 566.84 146.34 579.81 160.73 594.94 148.1"/><polygon class="cls-35" points="593.19 189.99 539.78 177.6 533.56 194.99 543.63 201.97 593.19 189.99"/><polygon class="cls-36" points="562.03 78.92 579.13 78.49 594.99 75.78 607.57 87.66 622.4 97.12 617.7 108.11 612.42 123.33 609.58 135.88 579.81 160.73 557.04 135.47 543.63 131.44 562.03 78.92"/><polygon class="cls-37" points="562.62 99.12 566.76 107.78 575.04 114.78 581.72 110.6 587.34 107.38 575.4 100.04 562.62 99.12"/><polygon class="cls-37" points="620.64 98.52 609.41 95.42 589.49 145.2 579.81 160.73 603.75 140.74 605.73 137.08 609.58 135.88 613.84 122.99 620.64 98.52"/><polygon class="cls-38" points="557.04 135.47 579.81 160.73 589.49 145.2 557.04 135.47"/><polygon class="cls-39" points="571 98.75 566.22 111.98 575.04 114.78 579.52 101.25 571 98.75"/><polygon class="cls-40" points="550.33 112.31 566.22 111.98 575.04 114.78 595.95 129.07 589.49 145.2 543.63 131.44 550.33 112.31"/><polygon class="cls-38" points="566.22 111.98 569.77 117.25 575.04 114.78 566.22 111.98"/><polygon class="cls-33" points="579.52 101.25 587.34 107.38 578.48 104.39 579.52 101.25"/><polygon class="cls-33" points="571 98.75 562.62 99.12 570 101.53 571 98.75"/><polygon class="cls-33" points="615.25 91.55 609.38 94.76 606.04 103.32 605.73 109.06 602.4 112.67 597.97 124.02 602.82 126.33 606.97 119.69 613.84 122.99 615.57 117.78 615.43 114.61 617.7 111.33 622.4 97.12 615.25 91.55"/><path class="cls-41" d="M584.22,112.21c-.18,1.37-1.17,2.36-2.21,2.23a2.27,2.27,0,0,1-1.58-2.72c.18-1.37,1.17-2.36,2.22-2.23A2.26,2.26,0,0,1,584.22,112.21Z" transform="translate(-0.08 -0.42)"/><path class="cls-41" d="M566.23,106.29c-.17,1.36-1.17,2.36-2.21,2.22a2.26,2.26,0,0,1-1.58-2.72c.18-1.36,1.17-2.36,2.22-2.22A2.26,2.26,0,0,1,566.23,106.29Z" transform="translate(-0.08 -0.42)"/><polygon class="cls-38" points="609.58 135.88 603.75 133.41 603.75 140.74 609.58 135.88"/><polygon class="cls-38" points="604.77 130.22 606.73 124.84 610.38 125.32 604.77 130.22"/><polygon class="cls-42" points="562.03 78.92 581.71 88.73 609.58 93.42 622.4 97.12 594.99 75.78 562.03 78.92"/><polygon class="cls-32" points="581.71 88.73 594.99 75.78 622.4 97.12 609.38 94.76 581.71 88.73"/><polygon class="cls-32" points="606.04 103.32 617.7 111.33 615.57 117.78 602.4 112.67 606.04 103.32"/><polygon class="cls-43" points="597.19 149.31 583.77 171.2 567.7 165.89 563.31 164.03 566.84 146.34 561.81 147.3 559.41 149.3 556.27 148.35 550.75 172.79 583.77 179.53 605.73 153.9 602.06 153.9 601.11 151.41 597.19 149.31"/><polygon class="cls-20" points="587.34 182.15 585.48 176.37 601.11 151.41 605.73 153.9 587.34 182.15"/><polygon class="cls-20" points="561.81 147.3 557.46 168.11 550.75 172.79 556.27 148.35 561.81 147.3"/><polygon class="cls-44" points="563.31 164.03 550.75 172.79 563.79 175.45 567.7 165.89 563.31 164.03"/><polygon class="cls-44" points="577.11 169 573.32 177.4 583.77 179.53 583.77 171.2 577.11 169"/><polygon class="cls-37" points="579.81 160.73 571.83 160.73 566.84 146.34 579.81 160.73"/><polygon class="cls-38" points="579.66 125.87 568.7 122.75 558.86 119.1 558.2 126.84 566.81 131.22 577.32 131.92 579.66 125.87"/><polygon class="cls-19" points="605.73 153.9 617.7 197.99 593.19 189.99 605.73 153.9"/><polygon class="cls-36" points="527.58 164.03 509.59 174.94 512.42 180.87 516.91 185.52 538.03 182.48 527.58 164.03"/><polygon class="cls-6" points="509.59 174.94 503.54 175.85 505.58 182.15 509.28 186.62 516.91 185.52 509.59 174.94"/><polygon class="cls-37" points="503.54 175.85 490.33 172.17 493.25 178.21 499.67 183.52 501.75 185.52 509.28 186.62 503.54 175.85"/><polygon class="cls-36" points="499.67 183.52 496.5 186.84 498.93 188.11 509.28 186.62 499.67 183.52"/><polygon class="cls-36" points="490.33 172.17 480.13 179.4 490.08 184.25 499.67 183.52 490.33 172.17"/><polygon class="cls-22" points="517.92 203.83 518.34 218.72 522.17 234.08 535.17 245.33 541.61 212.31 517.92 203.83"/><polygon class="cls-6" points="518.34 218.72 537.92 231.23 535.17 245.33 524.92 242.46 518.9 238.44 518.34 218.72"/><polygon class="cls-19" points="518.9 238.44 505.92 249.83 520.54 251.71 534.25 250.02 535.17 245.33 518.9 238.44"/><polygon class="cls-1" points="505.92 249.83 505.92 253.58 533.56 253.58 534.25 250.02 505.92 249.83"/><polygon class="cls-7" points="540.6 217.52 527.58 214.31 517.92 203.83 514.42 191.99 533.56 194.99 543.63 201.97 540.6 217.52"/><polygon class="cls-6" points="527.58 214.31 499.81 226.09 496.5 218.02 493.92 208.2 514.42 191.99 527.58 214.31"/><polygon class="cls-19" points="493.92 208.2 478.17 203.97 486.42 220.59 492.04 229.58 499.81 226.09 493.92 208.2"/><polygon class="cls-1" points="492.04 229.58 487.88 231.23 474.67 207.66 478.17 203.97 492.04 229.58"/><polygon class="cls-19" points="562.8 182.15 563.38 179.61 560.42 179.1 562.8 182.15"/><polygon class="cls-19" points="537.3 197.58 538.03 182.48 543.89 182.15 540.78 185.52 541.21 195.26 537.3 197.58"/><path class="cls-5" d="M556.92,195.25,567,187.83l-6.5-8.31L537.38,198l5.87,7.67,9.5-7.42-3.67-6.08,2.75-2.09Zm3.5-12,3.25,4.25-6.17,4.83-3-4.25Zm-10.75,15-5.59,4.33-3.33-4.08,5.67-4.33Z" transform="translate(-0.08 -0.42)"/><polygon class="cls-45" points="590.84 203.83 571.38 195.26 585.48 191.85 590.84 203.83"/><polygon class="cls-36" points="617.7 197.99 589.49 176.37 580.32 187 590.84 203.83 617.7 197.99"/><polygon class="cls-6" points="589.49 176.37 583.77 171.2 574.98 180.78 580.32 187 589.49 176.37"/><polygon class="cls-36" points="583.77 171.2 567.7 165.89 560.42 179.1 574.98 180.78 583.77 171.2"/><polygon class="cls-38" points="571.38 180.37 567.09 183.52 562.8 182.15 563.38 179.61 571.38 180.37"/><polygon class="cls-46" points="560.25 121.42 567.7 124.84 577.52 126.92 577.24 128.59 560.25 123.75 560.25 121.42"/><polygon class="cls-37" points="567.7 165.89 562.81 168.17 560.42 179.1 567.7 165.89"/><polygon class="cls-5" points="562.81 168.17 563.31 164.03 569.79 163.46 567.7 165.89 562.81 168.17"/><polygon class="cls-22" points="537.3 197.58 540.6 217.52 543.17 205.25 537.3 197.58"/></g><g id="female_copy_2" data-name="female copy 2"><polygon class="cls-47" points="173.96 269.92 117.42 298.58 237.29 349.58 398.92 292.08 395.92 235.25 173.96 269.92"/><polygon class="cls-32" points="375.67 218.02 371.42 197.58 294.93 179.61 304.07 206.58 335.75 217.6 375.67 218.02"/><polygon class="cls-15" points="286.25 136.08 261.42 134.08 182.42 184.25 204.92 196.09 272.42 156.58 286.25 136.08"/><polygon class="cls-17" points="204.92 192.92 220.75 265.25 277.75 229.88 304.07 206.58 286.25 155.53 270.42 154.58 204.92 192.92"/><polygon class="cls-16" points="222.92 264.25 304.07 206.58 374.86 217.76 350.82 249.83 314.67 275.08 222.92 264.25"/><polygon class="cls-17" points="374.86 217.76 377.92 231.65 380.3 249.71 353.89 277.25 323.88 308.58 314.67 275.08 374.86 217.76"/><polygon class="cls-13" points="380.3 249.71 371.42 197.58 384.93 185.82 395.92 235.25 380.3 249.71"/><polygon class="cls-15" points="384.93 185.82 296.67 165.89 304.07 183.52 371.42 197.58 384.93 185.82"/><polygon class="cls-48" points="347.5 283.93 330.17 260.32 286.25 258.82 257.99 239.33 247.92 214.58 259.67 176.9 282.17 176.34 320.17 224.58 358.91 246.69 360.07 270.8 347.5 283.93"/><polygon class="cls-49" points="318.17 177.6 338.54 197.84 345.19 203.83 348.48 214.58 322.9 209.93 318.17 177.6"/><polygon class="cls-49" points="358.17 223.33 374.54 255.83 371.42 259.33 365.88 262.08 346.29 246.15 358.17 223.33"/><polygon class="cls-50" points="374.54 255.83 384.93 262.08 373.9 265.25 365.88 262.08 374.54 255.83"/><polygon class="cls-19" points="384.93 262.08 393.42 264.5 373.58 269.92 365.88 262.08 373.58 264.25 384.93 262.08"/><polygon class="cls-50" points="358.17 223.33 365.88 262.08 362.04 264.25 356.18 264.25 341.9 254.58 348.42 238.44 358.17 223.33"/><polygon class="cls-51" points="365.88 262.08 373.58 269.92 363.42 272.58 356.18 264.25 365.88 262.08"/><polygon class="cls-19" points="373.58 269.92 381.25 277.58 365.88 279.25 359.94 272.92 358.17 277.58 353.89 277.25 356.18 264.25 363.42 271.58 373.58 269.92"/><polygon class="cls-5" points="318.17 177.6 330.17 197.84 314.29 219.91 283.17 240.46 271.42 217.52 283.36 172.17 318.17 177.6"/><polygon class="cls-33" points="316.29 106.62 291.58 108.08 286.25 136.08 316.29 106.62"/><polygon class="cls-50" points="361.67 125 357.17 169.74 327.17 168.17 318.17 176.6 303.92 158.08 308.67 149.3 334.92 145.2 361.67 125"/><polygon class="cls-49" points="330.17 168.32 318.58 167.75 321.49 147.3 308.67 149.3 302.92 158.08 308.75 165.55 319.39 175.45 330.17 168.32"/><polygon class="cls-52" points="330.17 168.32 318.58 167.75 308.75 165.55 318.17 177.6 330.17 168.32"/><polygon class="cls-49" points="360.07 140.84 349.67 151.96 344.67 151.33 334.92 145.2 345.83 136.96 352.29 137.59 360.07 140.84"/><polygon class="cls-51" points="352.29 137.59 349.67 151.96 344.67 151.33 345.83 136.96 352.29 137.59"/><polygon class="cls-52" points="349.67 151.96 346.79 154.58 344.67 151.33 349.67 151.96"/><polygon class="cls-52" points="360.89 132.73 338.95 147.48 309.27 153.96 306.09 163.87 301.27 158.13 308.67 149.3 334.92 145.2 361.67 125 360.89 132.73"/><polygon class="cls-53" points="352.54 143.85 355.5 145.62 358.17 144.73 358.17 146.12 355.07 146.97 352.23 145.41 352.54 143.85"/><polygon class="cls-53" points="338.85 142.29 341.81 144.06 344.48 143.17 344.48 144.56 341.38 145.41 338.54 143.85 338.85 142.29"/><polygon class="cls-33" points="366.92 121.58 336.95 146.48 305.86 150.8 340.08 109.42 366.92 121.58"/><polygon class="cls-32" points="340.08 109.42 301.92 159.08 286.25 136.08 320.42 101.42 340.08 109.42"/><polygon class="cls-17" points="286.25 136.08 318.17 177.6 293.25 182.25 270.42 154.58 286.25 136.08"/><polygon class="cls-33" points="360.07 140.84 352.29 137.59 353.42 134.08 360.07 140.84"/><polygon class="cls-22" points="333.79 159.03 343.13 155.53 346.29 159.53 333.79 159.03"/><polygon class="cls-7" points="333.79 159.03 337.21 164.81 343.67 163.03 346.29 159.53 333.79 159.03"/><polygon class="cls-10" points="344.46 159.53 343.13 161.53 333.79 159.03 344.46 159.53"/><polygon class="cls-23" points="271.42 217.52 330.17 197.84 322.84 209.89 314.67 226.33 282.17 242.46 271.42 217.52"/><polygon class="cls-33" points="318.17 177.6 270.42 154.58 292.25 184.25 318.17 177.6"/><polygon class="cls-1" points="314.67 223.33 344.67 223.33 358.17 223.33 340.9 251.58 289.58 256.92 282.17 242.46 314.67 223.33"/><polygon class="cls-5" points="358.17 223.33 289.58 256.92 341.9 254.58 358.17 223.33"/><polygon class="cls-50" points="318.17 177.6 324.2 207.66 314.67 223.33 292.25 184.25 318.17 177.6"/><polygon class="cls-51" points="324.2 207.66 348.48 214.58 346.29 222.05 341.9 223.33 314.67 223.33 324.2 207.66"/><polygon class="cls-50" points="348.48 214.58 362.25 220.15 355.37 228.72 345.92 223.33 348.48 214.58"/><polygon class="cls-49" points="362.25 220.15 362.46 232.03 355.37 228.72 362.25 220.15"/><polygon class="cls-5" points="345.92 223.33 348.48 214.58 341.9 212.71 341.9 223.33 345.92 223.33"/><polygon class="cls-52" points="362.46 232.03 364.7 236.58 355.37 228.72 345.19 256.81 341.9 254.58 355.37 228.72 362.46 232.03"/><polygon class="cls-50" points="376.57 171.2 365.93 176.9 363.88 174.17 368.92 166.92 376.57 171.2"/><polygon class="cls-15" points="338.95 147.48 340.08 151.33 337.39 152.96 335.75 151.33 338.95 147.48"/><polygon class="cls-49" points="340.08 151.33 337.39 154.58 335.75 151.33 337.39 152.96 340.08 151.33"/><polygon class="cls-15" points="355.11 146.97 356.86 150.58 354.47 152.63 352.59 151.3 355.11 146.97"/><polygon class="cls-49" points="356.86 150.58 354.74 154.24 352.59 151.3 354.47 152.63 356.86 150.58"/><polygon class="cls-52" points="378.3 172.17 378.3 165.4 374.44 165.55 372.4 168.87 378.3 172.17"/><polygon class="cls-50" points="338.54 197.84 357.07 181.21 362.25 183.52 363.92 186.52 348.48 214.58 338.54 197.84"/><polygon class="cls-52" points="357.07 181.21 367.09 176.34 372.4 185.48 363.92 186.52 357.07 181.21"/><polygon class="cls-52" points="352.23 162.92 353.3 169.42 357.17 169.74 356.18 165.4 352.23 162.92"/><polygon class="cls-20" points="376.57 171.2 371.42 157.53 357.59 165.55 361.67 178.97 368.24 179.96 376.57 171.2"/><polygon class="cls-21" points="371.42 157.53 359.94 173.28 357.17 169.74 356.18 160.28 371.42 157.53"/><polygon class="cls-44" points="364.74 158.73 355.37 151.96 352.23 162.92 364.74 158.73"/><polygon class="cls-20" points="359.94 173.28 355.37 151.96 352.23 162.92 359.94 173.28"/><polygon class="cls-48" points="359.94 173.28 376.57 171.2 368.24 179.96 361.67 178.97 359.94 173.28"/><polygon class="cls-49" points="372.4 185.48 381.93 174.2 376.57 171.2 365.93 176.9 372.4 185.48"/><polygon class="cls-13" points="312.54 245.67 323.88 308.58 303.92 325.58 292.25 258.58 312.54 245.67"/><polygon class="cls-32" points="182.42 184.25 170.67 303.33 303.92 325.58 294.29 259.92 219.25 249.71 204.92 192.92 182.42 184.25"/><polygon class="cls-15" points="312.54 245.67 237.29 236.92 219.25 249.71 294.29 259.92 312.54 245.67"/></g><g id="female_copy" data-name="female copy"><polygon class="cls-49" points="442.92 36.79 442 32.59 442.92 31.72 444.32 34.54 443.92 35.79 442.92 36.79"/><polygon class="cls-49" points="395.04 45.9 395.04 41.59 393.92 41.59 393.17 43.94 393.92 45.33 395.04 45.9"/><polygon class="cls-7" points="412.26 48.57 412.67 51.83 411.92 55.83 402.46 57.58 402.46 53.42 403.9 50.96 412.26 48.57"/><polygon class="cls-6" points="403.9 50.96 395.04 45.9 394.1 47.58 393.92 49.49 402.46 57.58 403.9 50.96"/><polygon class="cls-7" points="427.25 45.9 436.81 44.21 438.98 45.9 440.54 48.57 432.42 51.83 429.63 49.49 427.25 45.9"/><polygon class="cls-6" points="436.81 44.21 442.92 36.79 444.73 37.33 445.92 38.48 440.54 48.57 436.81 44.21"/><polygon class="cls-49" points="442.92 36.79 444.32 34.54 446.48 35.01 448.41 36.1 445.92 38.48 442.92 36.79"/><polygon class="cls-49" points="395.04 45.9 393.17 43.94 391.25 45.9 390.29 48.46 393.92 49.49 395.04 45.9"/><polygon class="cls-49" points="444.32 34.54 447.14 29.83 449.96 32.59 448.41 36.1 444.32 34.54"/><polygon class="cls-49" points="393.17 43.94 389.42 39.33 387.67 44.16 390.29 48.46 393.17 43.94"/><polygon class="cls-49" points="435.63 82.27 424.11 97.02 424.6 83.98 435.63 82.27"/><polygon class="cls-50" points="424.11 97.02 425.2 95.5 429.56 101.3 423.11 99.22 424.11 97.02"/><polygon class="cls-19" points="423.11 99.22 423.11 102.26 424.24 102.26 424.24 100.74 426.79 103.22 431.4 102.24 429.56 101.3 423.11 99.22"/><polygon class="cls-50" points="425.26 83.88 424.11 97.02 420.33 97.95 415.25 85.43 425.26 83.88"/><polygon class="cls-51" points="424.11 97.02 425.83 101.08 421.67 101.5 420.33 97.95 424.11 97.02"/><polygon class="cls-5" points="425.83 101.08 428.23 102.91 422.67 104.09 420.74 104.5 418.87 101.5 420.33 97.95 421.67 101.5 425.83 101.08"/><polygon class="cls-52" points="415.25 85.43 425.08 85.91 424.87 88.38 435.63 82.27 425.26 83.21 415.25 85.43"/><polygon class="cls-6" points="425.05 43.16 432.42 51.83 421.55 55.49 411.92 55.83 412.42 45.33 425.05 43.16"/><polygon class="cls-7" points="432.42 51.83 427.89 63.33 415.25 64.58 411.92 55.83 432.42 51.83"/><polygon class="cls-50" points="432.87 19.85 437.15 35.47 426.86 38.82 424.93 42.82 417.74 38.44 418.2 34.87 426.49 30.1 432.87 19.85"/><polygon class="cls-49" points="427.89 38.48 423.92 39.79 422.25 32.54 416.28 34.1 414.92 40.27 421.17 45.33 423.79 45.9 425.05 43.16 427.89 38.48"/><polygon class="cls-52" points="427.89 38.48 423.92 39.79 420.33 40.82 425.05 43.16 427.89 38.48"/><polygon class="cls-49" points="434.39 25.38 432.33 30.46 430.56 30.9 426.49 30.1 429.1 25.92 431.18 25.12 434.39 25.38"/><polygon class="cls-51" points="431.18 25.12 432.33 30.46 430.56 30.9 429.1 25.92 431.18 25.12"/><polygon class="cls-52" points="432.33 30.46 431.7 31.72 430.56 30.9 432.33 30.46"/><polygon class="cls-52" points="433.61 22.55 426 30.46 419.01 36.36 418.04 43.16 415.6 40.82 418.2 34.87 424.37 29.69 432.87 19.85 433.61 22.55"/><polygon class="cls-33" points="434.39 25.38 431.18 25.12 431.27 23.97 434.39 25.38"/><polygon class="cls-7" points="428.12 34.1 432.53 35.79 434.81 32.17 428.12 34.1"/><polygon class="cls-10" points="433.93 32.59 432.23 35.01 429.63 33.98 433.93 32.59"/><polygon class="cls-22" points="428.12 34.1 431.75 32.39 434.81 32.17 432.12 33.54 428.12 34.1"/><ellipse class="cls-54" cx="433.2" cy="27.61" rx="0.58" ry="0.73" transform="translate(18.89 156.96) rotate(-21.04)"/><ellipse class="cls-54" cx="428.44" cy="29.04" rx="0.58" ry="0.73" transform="translate(18.06 155.35) rotate(-21.04)"/><polygon class="cls-33" points="415.25 19.54 407.56 23.03 408.96 33.33 415.25 19.54"/><polygon class="cls-33" points="434.2 18.02 425.29 30 416.28 36.79 423.6 17.4 434.2 18.02"/><polygon class="cls-32" points="423.6 17.4 416.28 41.59 408.96 33.33 415.96 17.26 423.6 17.4"/><polygon class="cls-17" points="408.96 33.33 421.17 45.33 412.42 45.33 406.03 41.59 408.96 33.33"/><polygon class="cls-33" points="421.17 45.33 406.03 41.59 412.26 48.57 421.17 45.33"/><polygon class="cls-1" points="427.89 63.33 435.63 82.27 415.25 85.43 411.92 72.6 415.25 64.58 427.89 63.33"/><polygon class="cls-5" points="411.92 72.6 435.63 82.27 415.25 85.43 411.92 72.6"/></g></svg>