<svg id="illustration" xmlns="http://www.w3.org/2000/svg" viewBox="0 0 900 350"><defs><style>.cls-1,.cls-27{fill:#33231b;}.cls-1,.cls-32{opacity:0.1;}.cls-2{fill:#cdcdcc;}.cls-3{fill:#dcdcdb;}.cls-4{fill:#a2a2a2;}.cls-5{fill:#8e8e8e;}.cls-6{fill:#ebebea;}.cls-7{fill:#c3c3c3;}.cls-8{fill:#9ca0a1;}.cls-9{fill:#737373;}.cls-10{fill:#6f7173;}.cls-11{fill:#b7c645;}.cls-12{fill:#e7ef78;}.cls-13,.cls-18{fill:#709c53;}.cls-13{opacity:0.3;}.cls-14{fill:#54af8a;}.cls-15{fill:#3f8e6f;}.cls-16{fill:#35785d;}.cls-17{fill:#72c8a5;}.cls-19{fill:#5a753d;}.cls-20{fill:#98c16d;}.cls-21{fill:#cfaa91;}.cls-22{fill:#b38b71;}.cls-23{fill:#82624d;}.cls-24{fill:#d7bba8;}.cls-25{fill:#848585;}.cls-26{fill:#474747;}.cls-28{fill:#738c57;}.cls-29{fill:#c2977b;}.cls-30{fill:#debca4;}.cls-31{fill:#446125;}.cls-32{fill:#2b2b2b;}.cls-33{fill:#165e60;}.cls-34{fill:#8a6651;}.cls-35{fill:#e7c9b5;}.cls-36{fill:#fff;}.cls-37{fill:#755445;}.cls-38{fill:#51362a;}.cls-39{fill:#4f5253;}.cls-40{fill:#916d5a;}.cls-41{fill:#98796a;}.cls-42{fill:#fce3d4;}.cls-43{fill:#f4c9b2;}.cls-44{fill:#c1907d;}</style></defs><title>diplomats_Advocate_INFJ_strengths</title><g id="Layer_21" data-name="Layer 21"><polygon class="cls-1" points="22.07 206.49 160.86 193.67 541.22 195.94 900 213.68 866.33 221.76 823.41 222.53 811.71 233.91 713.19 232.67 644.33 228.07 505.03 241.62 420.69 231.58 286.07 241.62 203.93 229.8 141.2 218.87 64.5 215.49 22.07 206.49"/></g><g id="Layer_20" data-name="Layer 20"><polygon class="cls-2" points="268.17 213.68 308.04 212 335.38 211.22 343.51 103.98 274.08 95.76 244.29 98.45 268.17 213.68"/><polygon class="cls-3" points="96.62 76.72 72.38 80.7 73.64 106.29 59.53 106.53 58.63 127.14 55.01 124.69 40.53 124.69 38.36 97.15 20.27 99.31 24.61 153.6 17.71 151.37 3.26 152.97 0 188.11 43.84 185.89 120.34 181.54 96.62 76.72"/><polygon class="cls-4" points="38.36 97.15 48.13 100.64 50.66 185.5 34.38 185.89 38.36 97.15"/><polygon class="cls-4" points="73.64 106.29 86.31 110.48 82.87 183.67 72.38 183.67 73.64 106.29"/><polygon class="cls-4" points="24.61 153.6 26.42 186.29 19.4 187.13 17.71 151.37 24.61 153.6"/><polygon class="cls-3" points="766.47 162.83 766.47 45.52 798.23 41.84 798.23 111 821.82 108.71 831.24 111.73 832.72 95.42 854.4 93.97 855.85 163.44 879.37 163.02 882.27 199.64 766.47 195.94 766.47 162.83"/><polygon class="cls-4" points="798.23 41.84 809.94 47.54 805.82 197.19 793.07 196.79 798.23 41.84"/><polygon class="cls-4" points="821.82 108.71 819.12 197.62 827.54 197.89 831.24 111.73 821.82 108.71"/><polygon class="cls-4" points="854.4 93.97 864.45 96.92 866.33 199.13 854.4 197.89 854.4 93.97"/><polygon class="cls-4" points="879.37 163.02 891.86 165.65 896.47 199.64 882.27 199.64 879.37 163.02"/><polygon class="cls-4" points="789.4 50.7 792.52 50.3 791.84 55.83 789.67 55.57 789.4 50.7"/><polygon class="cls-4" points="780.31 51.09 783.7 51.09 783.29 56.1 780.44 56.36 780.31 51.09"/><polygon class="cls-4" points="771.08 51.75 774.61 51.36 774.07 56.49 770.81 56.49 771.08 51.75"/><polygon class="cls-4" points="780.31 64.13 783.43 63.47 783.43 69.26 780.31 68.73 780.31 64.13"/><polygon class="cls-4" points="789.13 63.73 792.52 63.47 791.43 69.66 789.13 69.26 789.13 63.73"/><polygon class="cls-4" points="771.22 64.26 774.47 63.73 774.2 69 771.49 68.6 771.22 64.26"/><polygon class="cls-4" points="789.81 80.58 789.13 75.71 792.25 75.98 791.84 80.58 789.81 80.58"/><polygon class="cls-4" points="780.31 80.19 779.76 75.58 783.16 75.32 782.48 80.58 780.31 80.19"/><polygon class="cls-4" points="770.67 75.58 773.93 75.19 773.66 80.32 770.81 79.4 770.67 75.58"/><polygon class="cls-4" points="836.76 102.57 840.15 102.31 839.61 107.31 837.3 106.91 836.76 102.57"/><polygon class="cls-4" points="845.04 102.44 847.62 102.17 846.8 106.91 844.5 107.04 845.04 102.44"/><polygon class="cls-4" points="837.17 114.55 839.48 113.89 839.48 119.02 836.63 119.02 837.17 114.55"/><polygon class="cls-4" points="844.23 114.02 847.62 113.89 847.21 119.29 844.5 119.29 844.23 114.02"/><polygon class="cls-4" points="836.49 127.05 839.2 126.53 839.07 132.45 836.22 132.06 836.49 127.05"/><polygon class="cls-4" points="844.77 126.92 847.89 126.66 847.48 133.24 844.9 132.19 844.77 126.92"/><polygon class="cls-4" points="79.07 86.24 82.69 85.72 82.51 91.33 80.16 91.33 79.07 86.24"/><path class="cls-4" d="M88.3,84.84s4.16-.53,3.62-.53-.18,6.32-.18,6.32l-3.08-.35Z"/><polygon class="cls-4" points="89.75 98.18 93 97.65 93 103.97 90.29 104.15 89.75 98.18"/><polygon class="cls-4" points="79.98 99.23 82.51 98.53 83.41 105.03 79.98 104.5 79.98 99.23"/><polygon class="cls-4" points="8.69 158.74 12.12 158.03 11.58 163.3 8.69 162.95 8.69 158.74"/><polygon class="cls-4" points="8.87 169.62 11.58 169.27 11.22 175.06 7.96 174.71 8.87 169.62"/><polygon class="cls-4" points="55.01 124.69 53.72 185.33 57 185.33 58.63 127.14 55.01 124.69"/></g><g id="Layer_16" data-name="Layer 16"><polygon class="cls-5" points="102.86 45.7 108.56 39.64 118.33 41.22 111.01 47.8 102.86 45.7"/><polygon class="cls-4" points="109.11 55.7 106.67 46.75 113.18 44.12 113.18 56.23 109.11 55.7"/><polygon class="cls-6" points="102.86 45.7 108.02 31.22 118.33 41.22 102.86 45.7"/><polygon class="cls-7" points="107.26 175.78 92.64 57.46 141.2 39.97 147.81 172.61 107.26 175.78"/><polygon class="cls-8" points="141.2 39.97 188.53 49.12 189.59 169.07 147.81 172.61 141.2 39.97"/><polygon class="cls-6" points="101.51 64.63 106.03 95.73 117.52 93.09 114.14 61.74 101.51 64.63"/><polygon class="cls-6" points="124.58 91.25 121.47 59.05 133.26 53.86 135.71 87.3 124.58 91.25"/><polygon class="cls-5" points="104.63 67.81 111.96 65.58 112.36 72.95 105.44 73.74 104.63 67.81"/><polygon class="cls-5" points="106.12 76.77 112.77 75.71 114.4 90.46 108.7 92.3 106.12 76.77"/><polygon class="cls-5" points="124.85 61.36 131.09 59.52 131.63 67.55 125.12 69.26 124.85 61.36"/><polygon class="cls-5" points="125.53 73.34 131.77 71.11 132.86 84.93 126.89 86.11 125.53 73.34"/><polygon class="cls-7" points="150.72 52.19 164.84 53.95 162.67 81.86 150.72 81.15 150.72 52.19"/><polygon class="cls-7" points="171.17 55.53 183.47 56.05 182.03 81.15 170.26 80.98 171.17 55.53"/><polygon class="cls-9" points="153.8 55.53 161.76 57.28 161.4 63.6 153.44 62.55 153.8 55.53"/><polygon class="cls-9" points="153.62 66.58 160.86 66.58 159.95 78.17 153.62 78.52 153.62 66.58"/><polygon class="cls-9" points="173.52 59.04 181.12 59.56 180.58 65.88 173.7 64.48 173.52 59.04"/><polygon class="cls-9" points="173.34 67.99 180.04 68.52 180.58 79.57 173.7 79.57 173.34 67.99"/></g><g id="Layer_15" data-name="Layer 15"><polygon class="cls-2" points="137.88 135.74 49.22 148.73 40.53 208.76 152.71 211.57 137.88 135.74"/><polygon class="cls-6" points="57.54 157.16 56.09 171.2 72.38 171.55 72.38 156.1 57.54 157.16"/><polygon class="cls-6" points="85.04 154.7 82.87 171.2 100.24 169.79 101.33 152.59 85.04 154.7"/><polygon class="cls-5" points="60.07 159.61 69.48 158.91 69.3 162.07 59.53 162.07 60.07 159.61"/><polygon class="cls-5" points="59.17 164.7 68.94 164.7 69.3 168.92 58.81 169.09 59.17 164.7"/><polygon class="cls-5" points="87.76 156.98 98.25 155.75 97.53 159.61 87.03 160.49 87.76 156.98"/><polygon class="cls-5" points="86.67 163.3 97.71 162.42 97.71 167.34 86.31 168.39 86.67 163.3"/><polygon class="cls-6" points="70.39 209.51 70.39 182.96 90.11 182.96 89.39 209.98 70.39 209.51"/><polygon class="cls-4" points="73.64 209.59 73.64 187 86.31 186.47 85.58 209.59 73.64 209.59"/><polygon class="cls-4" points="48.74 152.01 38.36 147.77 137.88 135.74 138.75 140.22 48.74 152.01"/><polygon class="cls-6" points="38.36 147.77 40.53 140.63 138.75 129.45 137.88 135.74 38.36 147.77"/></g><g id="Layer_14" data-name="Layer 14"><polygon class="cls-6" points="120.11 117.9 142.84 88.5 188.9 70.47 186.12 103.15 154.51 113.1 120.11 117.9"/><polygon class="cls-7" points="188.9 70.47 242.39 80.16 272 115.08 222.06 114.72 186.12 103.15 188.9 70.47"/><polygon class="cls-4" points="133.32 100.81 187.74 84.07 187.46 87.43 130.87 103.98 133.32 100.81"/><polygon class="cls-5" points="252.36 91.91 187.74 84.07 187.46 87.43 256.67 96.99 252.36 91.91"/><polygon class="cls-4" points="120.11 117.9 186.12 103.15 200.12 161.58 203.93 229.8 136.06 227.25 120.11 117.9"/><polygon class="cls-5" points="186.12 103.15 272 115.08 268.26 223.59 203.93 229.8 186.12 103.15"/><polygon class="cls-7" points="203.56 119.16 225.81 119.94 225.81 153.12 207.36 153.65 203.56 119.16"/><polygon class="cls-7" points="239.38 122.31 260.83 126 257.57 157.86 239.93 154.7 239.38 122.31"/><polygon class="cls-7" points="208.72 166.02 228.26 167.07 227.17 202.09 212.79 204.46 208.72 166.02"/><polygon class="cls-7" points="240.2 167.34 257.57 166.81 256.75 199.72 239.11 201.83 240.2 167.34"/><polygon class="cls-10" points="208.26 123.81 221.83 124.68 222.19 132.76 208.44 131.71 208.26 123.81"/><polygon class="cls-10" points="209.71 136.97 222.19 136.44 221.83 149.43 210.43 148.73 209.71 136.97"/><polygon class="cls-9" points="243.91 128.02 256.94 129.42 255.49 137.5 243.73 135.22 243.91 128.02"/><polygon class="cls-9" points="243.91 139.25 255.13 141.18 254.58 152.59 243.55 151.54 243.91 139.25"/><polygon class="cls-10" points="214.05 170.67 225.27 171.55 224.91 179.1 213.87 180.15 214.05 170.67"/><polygon class="cls-10" points="213.87 180.15 225.09 181.26 224 198.23 215.86 198.76 213.87 180.15"/><polygon class="cls-10" points="244.45 171.2 254.58 171.02 253.68 179.1 242.82 178.75 244.45 171.2"/><polygon class="cls-10" points="243.19 183.13 253.14 182.96 253.68 195.42 243.37 197.18 243.19 183.13"/></g><g id="Layer_13" data-name="Layer 13"><polygon class="cls-8" points="583.72 131.23 588.59 9.89 513.68 1.99 513.68 145.67 583.72 131.23"/><polygon class="cls-2" points="513.68 1.99 482.51 25.16 490.73 128.78 513.68 145.67 513.68 1.99"/><polygon class="cls-2" points="565.44 19.89 580.64 19.89 579.19 39.2 566.16 37.45 565.44 19.89"/><polygon class="cls-2" points="543 17.44 558.93 18.32 556.94 37.62 544.63 36.57 543 17.44"/><polygon class="cls-2" points="522.74 16.38 535.77 16.21 534.68 35.34 521.11 32.88 522.74 16.38"/><polygon class="cls-2" points="521.65 46.05 535.04 45.52 534.86 63.25 520.93 61.67 521.65 46.05"/><polygon class="cls-2" points="543.73 46.05 556.94 47.45 556.94 64.65 541.74 64.65 543.73 46.05"/><polygon class="cls-2" points="565.44 48.51 578.47 49.56 578.29 67.99 563.81 65.36 565.44 48.51"/><polygon class="cls-2" points="520.75 74.66 534.86 74.31 535.22 92.56 521.11 92.91 520.75 74.66"/><polygon class="cls-2" points="544.27 75.54 558.02 76.24 556.75 93.27 543.18 93.97 544.27 75.54"/><polygon class="cls-2" points="565.26 76.24 578.65 76.06 577.74 94.14 563.99 92.39 565.26 76.24"/><polygon class="cls-9" points="567.93 22.13 578.11 22.4 577.7 26.48 568.06 25.82 567.93 22.13"/><polygon class="cls-9" points="568.34 27.79 577.56 28.98 576.88 36.22 568.88 35.3 568.34 27.79"/><polygon class="cls-9" points="546.22 20.29 555.85 20.82 555.72 24.9 545.94 24.5 546.22 20.29"/><polygon class="cls-9" points="546.22 27 555.31 27.66 554.9 34.77 546.62 33.85 546.22 27"/><polygon class="cls-9" points="524.91 19.24 533.19 18.97 532.92 23.84 524.5 22.79 524.91 19.24"/><polygon class="cls-9" points="524.37 25.42 532.37 26.21 532.24 32.53 523.69 30.69 524.37 25.42"/><polygon class="cls-9" points="524.1 48.46 532.37 47.94 532.64 53.46 523.42 52.28 524.1 48.46"/><polygon class="cls-9" points="523.69 55.18 532.64 56.1 532.37 60.84 523.55 59.78 523.69 55.18"/><polygon class="cls-9" points="546.22 49.12 554.49 49.91 554.36 53.99 545.94 53.46 546.22 49.12"/><polygon class="cls-9" points="545.54 56.23 554.22 56.49 554.22 62.15 544.86 62.42 545.54 56.23"/><polygon class="cls-9" points="567.79 51.23 576.34 51.88 575.8 55.44 567.11 55.44 567.79 51.23"/><polygon class="cls-9" points="566.71 57.68 575.66 58.2 576.21 64.79 566.3 63.6 566.71 57.68"/><polygon class="cls-9" points="523.69 77.69 532.51 76.63 532.51 80.98 523.82 81.37 523.69 77.69"/><polygon class="cls-9" points="523.55 84.4 532.51 83.35 532.64 90.06 524.1 90.06 523.55 84.4"/><polygon class="cls-9" points="546.49 78.34 555.58 78.61 555.44 82.16 546.08 82.43 546.49 78.34"/><polygon class="cls-9" points="546.22 85.06 555.04 84.53 555.17 91.11 545.81 91.11 546.22 85.06"/><polygon class="cls-9" points="567.11 78.61 575.8 78.61 576.21 83.08 566.43 82.95 567.11 78.61"/><polygon class="cls-9" points="566.71 85.85 575.53 85.19 575.53 91.38 566.03 90.19 566.71 85.85"/></g><g id="Layer_11" data-name="Layer 11"><polygon class="cls-4" points="643.6 109.02 523.33 113.35 517.61 214.76 644.77 218.87 643.6 109.02"/><polygon class="cls-6" points="533.25 129.5 557.03 128.78 555.64 151.8 532.46 151.8 533.25 129.5"/><rect class="cls-6" x="568.92" y="128.78" width="22.79" height="21.87"/><polygon class="cls-6" points="605.53 128.78 628.35 127.91 630.46 150.65 604.6 151.8 605.53 128.78"/><polygon class="cls-6" points="531.47 170.75 556.04 169.87 555.64 194.64 529.88 192.86 531.47 170.75"/><polygon class="cls-9" points="536.42 132.81 543.55 132.09 544.3 141.03 535.83 140.31 536.42 132.81"/><polygon class="cls-9" points="545.93 132.67 553.22 132.09 553.37 140.6 546.68 140.6 545.93 132.67"/><polygon class="cls-9" points="536.27 142.76 544.15 143.34 543.55 149.54 535.97 148.97 536.27 142.76"/><polygon class="cls-9" points="546.38 143.05 552.62 142.62 553.07 148.82 545.64 149.4 546.38 143.05"/><polygon class="cls-9" points="571.8 131.66 579.38 132.09 578.49 139.3 571.65 139.16 571.8 131.66"/><polygon class="cls-9" points="581.31 132.24 588.59 131.81 588.59 138.29 581.01 139.01 581.31 132.24"/><polygon class="cls-9" points="571.95 141.47 578.93 141.9 578.93 148.24 571.8 148.53 571.95 141.47"/><polygon class="cls-9" points="581.16 141.47 588.15 140.89 588.89 147.52 581.16 148.53 581.16 141.47"/><polygon class="cls-9" points="608.66 131.81 616.84 131.95 616.24 139.3 607.77 138.29 608.66 131.81"/><polygon class="cls-9" points="618.17 132.09 618.92 138.73 627.39 139.01 626.35 131.23 618.17 132.09"/><polygon class="cls-9" points="608.36 141.18 617.13 141.61 616.69 148.39 608.07 148.68 608.36 141.18"/><polygon class="cls-9" points="618.47 141.47 627.24 141.03 627.84 147.96 618.62 147.38 618.47 141.47"/><polygon class="cls-9" points="534.78 173.77 543.11 174.63 542.37 182.13 533.45 182.27 534.78 173.77"/><polygon class="cls-9" points="545.34 174.63 552.33 174.06 552.92 182.13 544.89 181.99 545.34 174.63"/><polygon class="cls-9" points="534.04 184.87 542.07 184.44 542.22 191.21 533.74 189.77 534.04 184.87"/></g><g id="Layer_10" data-name="Layer 10"><polygon class="cls-5" points="808.3 133.17 816.02 136.31 820.5 132.44 808.3 133.17"/><polygon class="cls-4" points="812.29 141.62 811.79 133.65 817.02 134.14 815.52 142.59 812.29 141.62"/><polygon class="cls-6" points="808.3 133.17 815.03 125.44 820.5 132.44 808.3 133.17"/><polygon class="cls-7" points="772.67 142.29 832.72 139.08 839.26 175.55 839.26 218.79 763.75 214.7 772.67 142.29"/><polygon class="cls-6" points="809.94 152.88 824.17 151.26 824.17 172.16 809.94 171.35 809.94 152.88"/><polygon class="cls-6" points="783.37 154.91 798.23 153.69 798.23 173.18 783.37 172.16 783.37 154.91"/><polygon class="cls-6" points="809.94 184.68 825.84 183.79 825.84 202.34 809.94 203.56 809.94 184.68"/><polygon class="cls-6" points="784.36 183.55 798.43 185.26 798.43 203.62 782.18 202.27 784.36 183.55"/><polygon class="cls-5" points="812.51 155.17 821.62 153.69 821.62 159.21 812.51 159.21 812.51 155.17"/><polygon class="cls-5" points="812.51 161.9 821.62 162.47 821.82 169.4 812.11 169.01 812.51 161.9"/><polygon class="cls-5" points="785.55 157.48 795.26 156.32 795.46 160.55 785.35 160.75 785.55 157.48"/><polygon class="cls-5" points="785.35 163.44 795.66 164.01 796.06 169.97 785.16 169.78 785.35 163.44"/><polygon class="cls-5" points="812.51 186.89 823.41 187.09 823.21 191.31 811.51 192.08 812.51 186.89"/><polygon class="cls-5" points="811.91 194.01 823.21 193.81 823.61 200.35 811.71 200.93 811.91 194.01"/><polygon class="cls-5" points="785.95 186.12 795.66 187.66 795.86 191.7 785.75 190.74 785.95 186.12"/><polygon class="cls-5" points="785.55 194.2 795.46 193.62 795.66 201.5 784.76 200.16 785.55 194.2"/><polygon class="cls-5" points="832.72 139.08 861.46 151.26 855.71 216.88 839.26 218.79 832.72 139.08"/></g><g id="Layer_9" data-name="Layer 9"><polygon class="cls-9" points="728.2 53.1 717.8 60.83 705.46 57.24 728.2 53.1"/><polygon class="cls-5" points="714.5 70.22 709.47 58.41 722.1 56.08 720.47 70.22 714.5 70.22"/><polygon class="cls-7" points="705.46 57.24 728.2 53.1 713.04 43.68 705.46 57.24"/><polygon class="cls-7" points="634.93 75.19 750.27 62.88 746.71 133.36 728.08 232.85 644.76 227.23 634.93 75.19"/><polygon class="cls-5" points="750.27 62.88 786.35 93.5 769.7 229 728.08 232.85 750.27 62.88"/><polygon class="cls-6" points="650.47 96.72 677.84 92.11 677.84 129.6 650.47 130.75 650.47 96.72"/><polygon class="cls-9" points="653.61 99.89 662.67 98.45 661.63 111.43 653.61 113.16 653.61 99.89"/><polygon class="cls-9" points="665.5 98.45 674.71 98.45 673.82 110.71 664.31 111 665.5 98.45"/><polygon class="cls-9" points="661.49 114.46 662.67 126.57 654.68 127.72 653.61 117.34 661.49 114.46"/><polygon class="cls-9" points="664.31 113.16 674.71 114.46 673.67 125.99 666.39 126.86 664.31 113.16"/><polygon class="cls-6" points="694.41 91.15 724.77 92.11 721.6 128.64 691.87 129.6 694.41 91.15"/><polygon class="cls-9" points="698.02 95.76 708.32 96.92 706.54 109.41 698.02 109.41 698.02 95.76"/><polygon class="cls-9" points="710.5 96.92 720.02 96.92 720.02 109.41 709.71 109.41 710.5 96.92"/><polygon class="cls-9" points="719.22 113.16 709.71 112.3 708.32 123.25 718.03 124.6 719.22 113.16"/><polygon class="cls-9" points="705.75 112.3 696.29 112.3 696.29 124.6 705.75 123.45 705.75 112.3"/></g><g id="Layer_12" data-name="Layer 12"><polygon class="cls-5" points="524.37 71.5 529.25 227.89 420.69 231.58 436.43 48.86 524.37 71.5"/><polygon class="cls-7" points="436.43 48.86 327.85 69.47 318.64 223.68 420.69 231.58 436.43 48.86"/></g><g id="Layer_19" data-name="Layer 19"><g id="Layer_18" data-name="Layer 18"><polygon class="cls-11" points="197.41 49.12 329.25 51.52 481.2 25.16 675.65 48.51 680.46 69.47 668.33 118.3 704.59 174.62 424.43 207.52 164.12 174.26 197.41 49.12"/></g><g id="Layer_17" data-name="Layer 17"><ellipse class="cls-12" cx="494.34" cy="78.26" rx="16.1" ry="16.18"/><polygon class="cls-13" points="580.94 63.01 595.5 56.38 631.07 60.72 615.19 66.08 602.53 62.5 580.94 63.01"/><polygon class="cls-13" points="446.62 44.66 464.17 40.6 482.99 43.14 494.14 42.63 498.82 48.51 472.05 50.79 468.18 48.8 448.54 49.59 446.62 44.66"/><polygon class="cls-13" points="667.87 178.94 662.09 88.28 608.35 72.47 552.56 114.66 472.75 120.64 418.5 89.73 319.61 134.47 256.97 62.82 216.6 49.48 197.41 49.12 164.12 174.26 424.43 207.52 667.87 178.94"/><polygon class="cls-14" points="536.66 118.63 539.23 66.41 547.32 66.17 545.37 119.32 536.66 118.63"/><polygon class="cls-15" points="546.68 83.76 538.38 83.76 538.84 74.37 547.02 74.37 546.68 83.76"/><polygon class="cls-15" points="550.58 104.84 559.83 106.94 559.53 122.88 552.19 122.88 550.58 104.84"/><polygon class="cls-16" points="559.83 106.94 550.58 104.84 550.84 107.8 559.77 108.56 559.78 109.21 561.56 107.8 559.83 106.94"/><polygon class="cls-14" points="553.51 105.5 561.56 107.8 556.38 99.25 553.51 105.5"/><polygon class="cls-15" points="556.38 99.25 550.58 100.53 553.51 105.5 556.38 99.25"/><polygon class="cls-17" points="561.56 107.8 554.3 103.79 553.51 105.5 561.56 107.8"/><polygon class="cls-14" points="540.05 94.14 552.19 96.92 555.96 121.47 542.58 121.47 540.05 94.14"/><polygon class="cls-16" points="552.19 96.92 554.55 97.76 552.62 99.69 552.42 98.38 541.53 98.17 541.37 94.44 552.19 96.92"/><polygon class="cls-14" points="541.37 94.44 554.55 97.76 546.63 86.16 541.37 94.44"/><polygon class="cls-15" points="546.63 86.16 539.04 88.55 541.37 94.44 546.63 86.16"/><polygon class="cls-17" points="554.55 97.76 542.83 92.14 541.37 94.44 554.55 97.76"/><polygon class="cls-15" points="527.73 77.91 540.75 80.69 542.58 121.47 530.55 118.11 527.73 77.91"/><polygon class="cls-16" points="537.6 89.75 537.92 85.69 537.12 83.62 536.18 85.78 536.29 89.64 537.6 89.75"/><polygon class="cls-16" points="543.4 73.16 543.6 70.61 543.1 69.31 542.51 70.66 542.57 73.09 543.4 73.16"/><polygon class="cls-16" points="543.18 79.11 543.38 76.56 542.88 75.25 542.28 76.61 542.35 79.04 543.18 79.11"/><polygon class="cls-16" points="544.6 104.7 544.58 102.46 543.81 100.85 543.19 102.64 543.39 104.64 544.6 104.7"/><polygon class="cls-16" points="548.04 104.67 548.05 102.69 547.28 101.08 546.66 102.87 546.86 104.67 548.04 104.67"/><polygon class="cls-16" points="551.44 104.64 551.46 102.79 550.68 101.18 550.06 102.97 550.2 104.64 551.44 104.64"/><polygon class="cls-16" points="557.6 113.99 557.61 112.14 556.84 110.53 556.21 112.32 556.35 113.99 557.6 113.99"/><polygon class="cls-16" points="545.29 110.93 545.27 108.68 544.5 107.07 543.87 108.86 544.08 110.86 545.29 110.93"/><polygon class="cls-16" points="548.72 110.89 548.74 108.91 547.97 107.3 547.34 109.09 547.55 110.89 548.72 110.89"/><polygon class="cls-16" points="552.13 110.86 552.14 109.01 551.37 107.4 550.75 109.19 550.88 110.86 552.13 110.86"/><polygon class="cls-16" points="533.84 89.21 534.04 85.14 533.18 83.1 532.3 85.28 532.48 89.12 533.84 89.21"/><polygon class="cls-16" points="537.86 99.23 538.18 95.17 537.38 93.1 536.44 95.26 536.55 99.12 537.86 99.23"/><polygon class="cls-16" points="534.1 98.69 534.3 94.62 533.44 92.58 532.56 94.76 532.74 98.59 534.1 98.69"/><polygon class="cls-16" points="540.83 82.49 529.46 81.14 529.38 78.26 540.75 80.69 543.42 81.7 540.89 83.76 540.83 82.49"/><polygon class="cls-14" points="529.38 78.26 534.04 69.28 543.42 81.7 529.38 78.26"/><polygon class="cls-15" points="534.04 69.28 525.65 71.56 529.38 78.26 534.04 69.28"/><polygon class="cls-17" points="529.38 78.26 530.55 76 543.42 81.7 529.38 78.26"/><polygon class="cls-15" points="491.07 100.21 482.01 102.08 480.62 118.11 488.97 115.67 491.07 100.21"/><polygon class="cls-14" points="478.61 103.78 487.78 93.1 489.86 101.81 478.61 103.78"/><polygon class="cls-15" points="487.78 93.1 494.51 94.21 495.05 101.48 489.86 101.81 487.78 93.1"/><polygon class="cls-16" points="481.78 104.81 490.78 103.78 489.86 101.81 481.92 103.2 478.61 103.78 481.68 105.9 481.78 104.81"/><polygon class="cls-17" points="478.61 103.78 489.26 99.3 489.86 101.81 478.61 103.78"/><polygon class="cls-14" points="488.97 115.67 490.94 84.9 500.04 83.02 498.99 119.94 488.97 115.67"/><polygon class="cls-16" points="490.69 88.81 490.78 87.35 499.43 86.59 498.38 83.4 490.94 84.9 487.78 86.59 490.69 88.81"/><polygon class="cls-14" points="487.78 86.59 498.38 83.4 496.04 76.65 487.78 86.59"/><polygon class="cls-17" points="487.78 86.59 497.79 81.7 498.38 83.4 487.78 86.59"/><polygon class="cls-15" points="496.04 76.65 502.91 78.26 498.38 83.4 496.04 76.65"/><polygon class="cls-15" points="498.99 119.94 498.2 72.62 511.69 71.56 510.09 122.88 498.99 119.94"/><polygon class="cls-16" points="502.44 83.32 501.92 79.29 502.62 77.18 503.66 79.29 503.75 83.15 502.44 83.32"/><polygon class="cls-16" points="505.93 82.96 505.52 78.91 506.28 76.82 507.27 78.96 507.29 82.8 505.93 82.96"/><polygon class="cls-16" points="502.41 92.72 502.03 88.67 502.81 86.59 503.78 88.73 503.73 92.59 502.41 92.72"/><polygon class="cls-16" points="505.91 92.48 505.65 88.42 506.49 86.36 507.39 88.54 507.27 92.37 505.91 92.48"/><polygon class="cls-16" points="502.67 102.55 502.3 98.5 503.07 96.42 504.04 98.56 503.99 102.42 502.67 102.55"/><polygon class="cls-16" points="506.18 102.31 505.91 98.25 506.75 96.19 507.66 98.36 507.53 102.2 506.18 102.31"/><polygon class="cls-16" points="498.2 72.62 510.09 71.56 510.09 74.99 498.23 74.33 498.25 75.64 495.46 72.97 498.2 72.62"/><polygon class="cls-14" points="510.09 71.56 495.46 72.97 504.94 59.85 510.09 71.56"/><polygon class="cls-15" points="504.94 59.85 510.09 62.47 511.69 65.33 510.09 71.56 504.94 59.85"/><polygon class="cls-14" points="510.09 122.88 510.09 62.47 528.92 62.62 530.55 118.11 510.09 122.88"/><polygon class="cls-15" points="510.09 62.47 528.92 64.39 528.92 62.62 510.09 62.47 510.09 62.47"/><polygon class="cls-14" points="510.09 62.47 528.92 62.62 519.73 37.27 510.09 62.47"/><polygon class="cls-17" points="510.09 62.47 511.09 59.85 528.1 60.37 528.92 62.62 510.09 62.47"/><polygon class="cls-15" points="512.75 55.5 526.34 55.5 525.65 53.6 513.21 54.32 512.75 55.5"/><polygon class="cls-15" points="515.95 47.16 523.55 47.82 523.31 47.16 516.4 45.97 515.95 47.16"/><polygon class="cls-17" points="513.21 54.32 525.65 53.6 525.03 51.91 513.93 52.43 513.21 54.32"/><polygon class="cls-17" points="516.4 45.97 523.31 47.16 522.74 45.59 516.79 44.95 516.4 45.97"/><polygon class="cls-17" points="495.46 72.97 510.09 71.56 509.09 69.28 495.46 72.97"/><polygon class="cls-16" points="539.23 66.41 547.32 66.17 550.58 66.41 547.17 70.36 547.22 68.93 539.17 67.71 539.12 68.8 536.27 66.91 539.23 66.41"/><polygon class="cls-14" points="536.27 66.91 550.58 66.41 546.43 59.19 543.42 48.22 541.1 59.1 536.27 66.91"/><polygon class="cls-17" points="536.27 66.91 537.31 65.22 549.42 64.39 550.58 66.41 536.27 66.91"/><polygon class="cls-17" points="541.1 59.1 546.43 59.19 545.86 57.08 541.37 57.82 541.1 59.1"/><polygon class="cls-16" points="495.9 93.32 495.92 91.07 496.69 89.46 497.32 91.25 497.11 93.25 495.9 93.32"/><polygon class="cls-16" points="492.47 93.28 492.45 91.31 493.22 89.69 493.85 91.48 493.64 93.28 492.47 93.28"/><polygon class="cls-16" points="495.57 99.7 495.59 97.46 496.37 95.85 496.99 97.64 496.79 99.64 495.57 99.7"/><polygon class="cls-16" points="492.14 99.67 492.12 97.69 492.9 96.08 493.52 97.87 493.32 99.67 492.14 99.67"/><polygon class="cls-16" points="495.25 106.48 495.27 104.24 496.04 102.63 496.66 104.42 496.46 106.42 495.25 106.48"/><polygon class="cls-16" points="491.81 106.45 491.8 104.47 492.57 102.86 493.19 104.65 492.99 106.45 491.81 106.45"/><polygon class="cls-16" points="484.87 109.61 484.86 107.63 485.63 106.02 486.25 107.81 486.05 109.61 484.87 109.61"/><polygon class="cls-16" points="484.28 115.4 484.27 113.42 485.04 111.81 485.66 113.6 485.46 115.4 484.28 115.4"/><polygon class="cls-17" points="515.36 74.02 519.9 67.09 524 74.02 525.05 121.24 515.01 121.68 515.36 74.02"/><polygon class="cls-16" points="518.49 81.14 518.21 75.2 519.86 72.17 521.23 75.34 520.82 81.14 518.49 81.14"/><polygon class="cls-16" points="518.49 98.17 518.21 92.24 519.86 89.21 521.23 92.38 520.82 98.17 518.49 98.17"/><polygon class="cls-16" points="518.49 114.66 518.21 108.73 519.86 105.7 521.23 108.87 520.82 114.66 518.49 114.66"/><polygon class="cls-17" points="498.81 109.21 494.82 119.09 498.44 119.09 501 109.21 498.81 109.21"/><polygon class="cls-16" points="501 109.21 501 119.94 498.44 119.09 501 109.21"/><polygon class="cls-17" points="489.27 110.93 486.64 118.11 489.44 118.11 491.07 110.89 489.27 110.93"/><polygon class="cls-16" points="491.07 110.89 491.41 118.11 489.44 118.11 491.07 110.89"/><polygon class="cls-17" points="542.16 112.26 545.29 121.47 541.99 121.3 540.05 112.26 542.16 112.26"/><polygon class="cls-16" points="540.05 112.26 540.05 121.68 541.99 121.3 540.05 112.26"/><polygon class="cls-17" points="554.91 114.66 558.04 122.38 555.21 122.38 553.51 114.66 554.91 114.66"/><polygon class="cls-16" points="553.51 114.66 553.59 121.68 555.21 122.38 553.51 114.66"/><polygon class="cls-17" points="482.46 99.3 488.83 97.5 488.63 96.69 483.76 97.78 482.46 99.3"/><polygon class="cls-17" points="491.41 82.21 497.27 80.21 496.99 79.4 492.68 80.69 491.41 82.21"/><polygon class="cls-17" points="498.86 68.26 508.05 66.91 507.29 65.18 500.2 66.41 498.86 68.26"/><polygon class="cls-17" points="531.8 73.6 538.78 75.64 537.88 74.37 532.3 72.63 531.8 73.6"/><polygon class="cls-17" points="544.19 89.99 551.52 93.32 550.33 91.57 544.69 89.21 544.19 89.99"/><polygon class="cls-17" points="554.95 102.38 559.27 104.03 558.68 102.91 555.2 101.82 554.95 102.38"/><polygon class="cls-16" points="579.34 145.71 579.73 138.02 582.99 137.72 581.44 144.99 579.34 145.71"/><polygon class="cls-15" points="573.9 140.67 588.21 140.63 582.29 128.54 573.9 140.67"/><polygon class="cls-14" points="575.64 133.82 587.72 134.47 584.09 124.69 575.64 133.82"/><polygon class="cls-16" points="606.71 139.43 605.29 127.67 608.52 126.71 608.52 139.43 606.71 139.43"/><polygon class="cls-15" points="597.7 133.77 619 129.83 605.9 118.89 597.7 133.77"/><polygon class="cls-14" points="596.65 126.33 616.19 124.33 606.57 112.25 596.65 126.33"/><polygon class="cls-15" points="600.49 116.56 614.96 116.56 605.9 105.27 600.49 116.56"/><polygon class="cls-14" points="602.05 109.41 612.38 107.91 603.48 100.56 602.05 109.41"/><polygon class="cls-16" points="219.11 93.27 221.91 83.49 219.31 82.24 217.58 93.02 219.11 93.27"/><polygon class="cls-15" points="227.52 89.71 210 83.45 222.59 75.97 227.52 89.71"/><polygon class="cls-14" points="229.42 83.55 213.13 79.17 222.93 70.25 229.42 83.55"/><polygon class="cls-15" points="227.49 74.74 215.23 72.75 224.44 64.42 227.49 74.74"/><polygon class="cls-14" points="227.14 68.46 218.59 65.77 227.13 60.76 227.14 68.46"/><polygon class="cls-16" points="631.95 126.96 629.71 120.64 631.95 119.52 633.76 126.19 631.95 126.96"/><polygon class="cls-15" points="623.07 125.35 640.09 119.08 627.54 112.06 623.07 125.35"/><polygon class="cls-14" points="623.07 118.71 635.08 112.93 625.17 107.94 623.07 118.71"/><polygon class="cls-15" points="622.69 112.06 631.74 109.66 624.67 105.36 622.69 112.06"/><polygon class="cls-14" points="622.69 107.94 628.76 106.44 624.33 101.95 622.69 107.94"/><polygon class="cls-16" points="255.65 110.29 255.77 103.58 258.26 103.33 257.62 110.21 255.65 110.29"/><polygon class="cls-15" points="247.91 105.63 266.03 105.8 256.75 94.78 247.91 105.63"/><polygon class="cls-14" points="250.24 99.42 263.5 98.27 255.98 90.08 250.24 99.42"/><polygon class="cls-15" points="252.21 93.06 261.52 94.02 256.42 87.49 252.21 93.06"/><polygon class="cls-14" points="253.66 89.2 259.86 89.95 257.29 84.19 253.66 89.2"/><polygon class="cls-16" points="230.62 101.38 232.58 94.65 234.93 95.4 232.24 102.82 230.62 101.38"/><polygon class="cls-15" points="226.6 94.64 241 97.77 234.44 90.19 226.6 94.64"/><polygon class="cls-14" points="229.89 90.66 238.86 93.43 235.46 86.17 229.89 90.66"/><polygon class="cls-15" points="231.61 87.36 238.2 88.78 236.19 83.06 231.61 87.36"/><polygon class="cls-14" points="233.63 83.48 238.64 85.97 239.08 77.5 233.63 83.48"/><polygon class="cls-16" points="200.66 85.98 200.59 78.97 203.06 79 202.62 86.89 200.66 85.98"/><polygon class="cls-15" points="194.87 80.71 207.39 80.71 201.09 74.17 194.87 80.71"/><polygon class="cls-14" points="196.87 75.94 206.25 75.98 200.9 70.02 196.87 75.94"/><polygon class="cls-15" points="197.56 72.28 204.28 71.72 200.71 66.83 197.56 72.28"/><polygon class="cls-14" points="198.37 67.98 203.89 68.9 201.87 60.67 198.37 67.98"/><polygon class="cls-15" points="680.46 69.47 618.26 133.18 567.35 148.53 551.22 181.93 544.83 193.38 704.59 174.62 680.46 69.47"/><polygon class="cls-16" points="685.42 91.11 647.85 130.55 682.56 144.15 656.6 164.82 625.88 161.21 594 187.61 704.59 174.62 685.42 91.11"/><polygon class="cls-14" points="618.26 133.18 643.24 139.01 614.15 150.11 567.35 148.53 618.26 133.18"/><polygon class="cls-14" points="656.53 142.78 605.9 163.63 625.88 161.21 671.88 152.75 656.53 142.78"/><polygon class="cls-14" points="680.46 69.47 682.64 79 618.26 133.18 680.46 69.47"/><polygon class="cls-15" points="190.38 75.56 249.95 109.41 288.13 107.32 333.04 117.84 389.34 119.02 426.75 158.92 476.93 153.69 544.83 193.38 424.43 207.52 164.12 174.26 182.5 113.1 182.22 106.16 186.4 90.46 191.42 88.39 190.38 75.56"/><polygon class="cls-16" points="182.24 106.16 217.04 136.44 241.22 134.6 267.42 148.53 224.02 155.75 244 169.07 300.5 154.66 409.79 190.07 447.5 183.99 544.83 193.38 424.43 207.52 164.12 174.26 182.24 106.16"/><polygon class="cls-14" points="190.94 73.46 249.95 109.41 227.78 113.16 186.4 90.46 190.94 73.46"/><polygon class="cls-14" points="249.95 109.41 317 124.16 423.75 169.87 476.93 153.69 413.44 144.72 402.02 149.15 338.63 113.56 289.25 100.16 249.95 109.41"/><polygon class="cls-18" points="472.57 120.12 480.62 132.85 490.94 135.83 504.26 154.27 512.8 154.27 520.95 169.4 533.57 167.07 541.22 148.13 547.32 146.74 566.41 121.04 530.55 118.11 515.27 119.98 488.97 115.67 472.57 120.12"/><polygon class="cls-19" points="480.62 132.85 485.63 129.89 485.63 125.18 490.94 135.83 480.62 132.85"/><polygon class="cls-19" points="547.32 146.74 542.77 144.56 546.53 128.37 539.14 138.62 537.83 156.53 541.22 148.13 547.32 146.74"/><polygon class="cls-19" points="515.27 119.98 522.52 119.09 519.49 141.14 527.73 143.59 527.73 160.47 533.57 167.07 520.95 169.4 512.8 154.27 504.26 154.27 500.66 139.41 509.95 138.62 515.27 119.98"/><polygon class="cls-19" points="530.55 118.11 527.73 143.59 533.57 148.44 541.1 118.97 530.55 118.11"/><polygon class="cls-19" points="500.66 139.41 498.25 117.39 488.97 115.67 495.78 137.62 500.66 139.41"/><polygon class="cls-14" points="421.28 73.54 425.23 76.45 440.7 74.06 453.64 81.2 457.16 85.46 460.95 86.43 460 92.82 451.76 88.26 453.64 86.43 449.4 83.38 440.81 85.76 420.39 76.86 413.6 78.57 408 68.91 415.21 75.79 421.28 73.54"/><polygon class="cls-15" points="453.64 86.43 452.19 83.27 449.4 83.38 436.24 81.28 425.23 76.45 420.39 76.86 412.05 75.91 413.6 78.57 420.19 77.5 440.81 85.76 449.29 84.21 453.64 86.43"/><polygon class="cls-15" points="445.6 76.77 456.18 71.8 447.92 78.05 445.6 76.77"/><polygon class="cls-14" points="445.6 76.77 442.33 71.95 444.54 66.94 456.18 71.8 445.6 76.77"/><polygon class="cls-15" points="455.45 88.41 456.93 88.62 457.07 89.39 455.45 88.41"/><polygon class="cls-15" points="458.72 88.24 459.45 87.54 459.28 88.95 458.72 88.24"/><polygon class="cls-15" points="460 92.82 454.33 88.28 453.64 86.43 451.76 88.26 460 92.82"/><polygon class="cls-17" points="460.95 86.43 457.02 86.24 451.9 81.45 439.9 77.5 425.23 76.45 440.7 74.06 453.64 81.2 457.16 85.46 460.95 86.43"/><polygon class="cls-17" points="457.69 87.07 459.69 89.36 459.81 91.94 457.69 87.07"/><polygon class="cls-17" points="456.18 71.8 444.54 66.94 453.43 71.7 452.06 73.73 456.18 71.8"/><polygon class="cls-17" points="425.23 76.45 421.28 73.54 415.21 75.79 421.35 74.69 425.23 76.45"/><polygon class="cls-17" points="407 68.2 407.55 72.4 409.54 71.57 410.05 72.46 415.21 75.79 410.29 71.09 412.19 70.04 407 68.2"/><polygon class="cls-15" points="439.9 77.5 442.94 64.04 418.58 55.59 434.81 67.06 439.9 77.5"/><polygon class="cls-15" points="439.9 77.5 446.26 63.04 442.94 64.04 439.9 77.5"/><polygon class="cls-14" points="446.26 63.04 418.58 55.59 442.94 64.04 446.26 63.04"/><polygon class="cls-15" points="436.9 83.14 427.98 84.4 425.65 82.58 422.63 81.64 426.86 81.25 428.21 82.52 430.39 80.44 436.9 83.14"/><polygon class="cls-15" points="445.82 84.03 447.96 86.76 447.44 88.7 446.45 88.01 446.22 86.46 442.21 84.76 445.82 84.03"/><polygon class="cls-12" points="460.22 93.62 464.19 95.64 463.44 98.48 464.68 99.87 464.62 104.94 460.51 98.97 460.53 97.7 458.55 95.46 460.22 93.62"/></g></g><g id="Layer_8" data-name="Layer 8"><polygon class="cls-1" points="119.15 294.13 189.32 272.84 269.75 294.55 184.4 310.01 119.15 294.13"/><polygon class="cls-20" points="153.27 200.63 141.79 215.08 137.52 271.3 183.14 251.94 212.01 228.07 181.98 198.66 153.27 200.63"/><polygon class="cls-21" points="189.17 124.64 198.4 143.25 200.75 152.27 204.91 156.39 214.83 176.4 185.77 190.93 172.92 206.53 125.51 181.26 133.99 172.25 140.05 169.85 137.02 150.11 178.47 122.6 189.17 124.64"/><polygon class="cls-22" points="137.02 150.11 166.19 200.47 185.77 190.93 173.96 215.06 125.51 181.26 133.99 172.25 137.02 150.11"/><polygon class="cls-23" points="185.77 190.93 162.55 201.87 173.96 215.06 185.77 190.93"/><polygon class="cls-22" points="157.91 162.51 196.47 144.72 183.14 171.43 157.91 162.51"/><polygon class="cls-24" points="175.57 154.37 183.14 171.43 190.21 167.97 182.89 150.99 175.57 154.37"/><polygon class="cls-23" points="183.14 171.43 188.49 172.76 190.21 167.97 183.14 171.43"/><polygon class="cls-23" points="139.37 190.93 144.59 186.46 144.96 194.83 139.37 190.93"/><polygon class="cls-23" points="141.16 184.33 136.41 178.75 131.77 181.54 141.16 184.33"/><polygon class="cls-25" points="185.77 117.76 189.17 124.64 175.57 145.67 151.9 123.5 185.77 117.76"/><polygon class="cls-10" points="175.57 145.67 142.67 147.5 151.9 123.5 175.57 145.67"/><polygon class="cls-26" points="138.41 152.52 146.4 176.79 141.16 179.55 135.5 172.76 125.51 181.26 112.8 150.11 138.41 152.52"/><polygon class="cls-25" points="151.9 123.5 112.8 150.11 138.41 152.52 142.67 147.5 151.9 123.5"/><polygon class="cls-23" points="177.19 181.54 199.49 170.37 200.7 172.76 178.3 184.33 177.19 181.54"/><polygon class="cls-16" points="146.46 166.41 135.5 172.76 138.57 176.45 149.37 171.43 146.46 166.41"/><path class="cls-15" d="M198.4,143.25l-51.94,23.16,2.9,5,11-5,3.78,7.85,16.8-7.85-4.43-10,7.3-3.35,4.64,10.77,16.48-7.47ZM176,165.46l-9.49,4.16-3.53-6.8,9.79-4.47Zm11.3-13.81,9.18-4.06,3.54,7.62-9.19,4.16Z"/><ellipse class="cls-27" cx="169.52" cy="163.63" rx="1.92" ry="1.93"/><ellipse class="cls-27" cx="192.98" cy="153.13" rx="1.92" ry="1.93"/><polygon class="cls-22" points="180.91 166.41 183.14 171.43 164.12 174.26 180.91 166.41"/><polygon class="cls-22" points="188.43 163.86 190.21 167.97 204.91 156.39 188.43 163.86"/><polygon class="cls-22" points="149.37 171.43 162.25 170.37 160.34 166.41 149.37 171.43"/><polygon class="cls-15" points="137.52 271.3 163 287.55 208.78 282.11 212.01 228.07 137.52 271.3"/><polygon class="cls-16" points="137.52 271.3 208.78 282.11 159.12 292.93 137.52 271.3"/><polygon class="cls-22" points="212.01 228.07 219.06 278.32 208.78 282.11 202.12 262.37 197.93 236.24 212.01 228.07"/><polygon class="cls-21" points="197.93 236.24 208.78 282.11 193.58 285.42 175.96 248.99 197.93 236.24"/><polygon class="cls-15" points="219.06 278.32 238.85 291.71 210.58 294.05 208.78 282.11 219.06 278.32"/><polygon class="cls-14" points="208.78 282.11 229.17 299.25 196.72 298.04 193.58 285.42 208.78 282.11"/><polygon class="cls-28" points="141.79 215.08 177.19 221.69 175.96 248.99 139.37 241.38 141.79 215.08"/><polygon class="cls-28" points="181.98 198.66 207.3 212.57 204.91 221.12 181.98 198.66"/><polygon class="cls-22" points="177.19 221.69 204.91 221.12 212.01 228.07 175.96 248.99 177.19 221.69"/><polygon class="cls-23" points="212.01 228.07 200.22 245.9 175.96 248.99 197.93 236.24 212.01 228.07"/><polygon class="cls-21" points="207.3 212.57 223.82 220.15 212.01 228.07 204.91 221.12 207.3 212.57"/><polygon class="cls-21" points="204.91 221.12 182.89 211.63 177.19 221.69 204.91 221.12"/><polygon class="cls-23" points="182.89 211.63 193.99 221.34 177.19 221.69 182.89 211.63"/><polygon class="cls-23" points="223.82 220.15 213.25 236.89 212.01 228.07 223.82 220.15"/><polygon class="cls-25" points="158.28 161.14 170.54 152.01 174.76 153.79 158.28 161.14"/><polygon class="cls-25" points="182.89 150.17 182.89 146.87 198.4 143.25 182.89 150.17"/></g><g id="infj"><polygon class="cls-29" points="426.15 119.47 437.79 114.35 440.7 123.49 441.57 133.66 431.97 140.1 426.15 119.47"/><polygon class="cls-30" points="437.79 114.35 449.72 109.97 451.76 123.42 441.57 133.66 437.79 114.35"/><polygon class="cls-30" points="426.15 119.47 428.77 104.99 433.14 106.46 433.84 123.38 428.34 127.23 426.15 119.47"/><polygon class="cls-29" points="310.38 210.82 296 204.37 305.44 196.93 310.38 210.82"/><polygon class="cls-28" points="322.78 139.69 315.92 138.65 297.83 136.75 323.69 153.26 323.69 162.1 334.71 184.66 349.55 170.12 322.78 139.69"/><polygon class="cls-31" points="307.63 156.46 321.51 179.66 329.87 183.44 335.9 174.81 323.69 153.43 307.63 156.46"/><polygon class="cls-19" points="285.28 167.86 296.67 189 311.32 177.47 304.4 164.72 323.69 153.43 312.63 142.26 290.9 161.15 285.28 167.86"/><polygon class="cls-20" points="271.7 162.07 282.31 164.86 290.9 161.15 316.38 139.37 305.44 140.73 297.83 136.75 271.7 162.07"/><polygon class="cls-28" points="271.7 162.07 274.67 194.71 296.67 189 290.9 161.15 271.7 162.07"/><polygon class="cls-15" points="274.67 194.71 296.67 189 311.32 177.47 314.28 182.48 298.89 194.44 275.25 200.49 274.67 194.71"/><polygon class="cls-32" points="267.29 290.13 343.67 303.64 422.33 288.89 339.67 276.15 267.29 290.13"/><polygon class="cls-33" points="355.13 270.65 355.13 280.14 366.77 276.52 373.39 271.47 375.56 262.93 355.13 270.65"/><polygon class="cls-33" points="305.08 262.12 301.59 280.19 311.67 280.14 321.23 274.05 323.38 269.51 305.08 262.12"/><polygon class="cls-14" points="373.39 271.47 355.13 280.14 355.13 285.06 370.62 286.37 389.65 285.06 373.39 271.47"/><rect class="cls-16" x="355.12" y="285.06" width="34.52" height="4.69"/><polygon class="cls-14" points="321.23 274.05 325.48 287.66 313.52 290.01 299.89 287.66 301.59 280.19 321.23 274.05"/><rect class="cls-16" x="299.89" y="287.66" width="25.59" height="4.69"/><polygon class="cls-28" points="389.73 157.84 354.11 210.51 335.9 174.81 321.51 179.66 294.42 256.13 331.09 278.45 331.23 278.55 392.36 254.35 389.73 157.84"/><polygon class="cls-20" points="376.88 161.81 364.81 182.99 358.67 177.45 349.55 170.12 335.9 174.81 331.71 273.29 386.23 157.5 377.34 160.56 376.88 161.81"/><polygon class="cls-5" points="397.58 84.34 378.38 88.07 379.66 97.72 381.62 109.42 391.32 102.63 397.58 84.34"/><polygon class="cls-3" points="376.11 75.44 381.42 89.95 397.58 84.34 376.11 75.44"/><polygon class="cls-5" points="383.67 121.67 387.41 124.72 395.28 126.34 402.17 111.59 391.2 115.27 383.67 121.67"/><polygon class="cls-7" points="391.32 102.63 378.38 102.63 383.67 121.67 402.17 111.59 391.32 102.63"/><polygon class="cls-7" points="311.64 115.27 295.8 119.64 291.19 131.8 300.72 133.56 312.89 123.19 311.64 115.27"/><polygon class="cls-5" points="309.59 104.16 287.57 109.97 295.8 119.64 310.79 122.48 315.15 115.27 309.59 104.16"/><polygon class="cls-3" points="309.65 88.22 305.3 89.17 301.98 84.9 287.57 109.97 310.09 106.84 309.65 88.22"/><polygon class="cls-5" points="322.11 125.78 291.19 131.8 297.83 136.75 324.37 132.38 322.11 125.78"/><polygon class="cls-5" points="378.87 75.25 378.91 75.44 378.89 75.25 378.87 75.25"/><polygon class="cls-28" points="431.66 140.88 421.7 121.46 407.48 128.45 395.05 154.5 431.66 140.88"/><polygon class="cls-20" points="383.67 121.67 382.09 136.99 398.87 150.88 407.48 128.45 383.67 121.67"/><polygon class="cls-19" points="386.23 157.5 409.71 164.19 424.44 150.88 428.4 138.85 398.87 150.88 386.23 137.41 365.98 116.37 386.23 157.5"/><polygon class="cls-16" points="426.17 119.3 421.7 121.46 428.4 138.85 409.71 164.19 415.33 165.89 434.71 140.21 426.17 119.3"/><polygon class="cls-28" points="377.34 160.56 386.23 157.5 381.8 148.43 377.34 160.56"/><polygon class="cls-14" points="349.55 170.12 350.71 170.85 349.55 170.12 349.55 170.12"/><polygon class="cls-16" points="378.62 148.6 374.13 160.79 373.71 161.8 377.34 160.56 381.8 148.43 380.1 144.95 378.62 148.6"/><polygon class="cls-14" points="344.2 127.99 341.99 137.41 321.23 146.67 352.75 168.68 352.94 168.95 373.71 161.8 344.2 127.99"/><polygon class="cls-17" points="315.63 145.01 321.23 146.67 345.77 137.41 310.79 122.48 300.72 133.56 315.63 145.01"/><polygon class="cls-33" points="364.81 113.65 364.77 113.57 364.63 113.67 364.81 113.65"/><polygon class="cls-16" points="350.71 165.49 300.72 133.56 297.83 136.75 349.55 170.12 368.6 194.95 378.98 161.81 350.71 165.49"/><polygon class="cls-16" points="344.2 127.99 332.73 120.11 311.64 115.27 310.79 122.48 345.77 137.41 344.2 127.99"/><polygon class="cls-30" points="385.04 111.15 373.57 43.78 354.5 29.01 342.39 39.3 317.27 37.64 312.89 41.65 321.99 59.5 337.61 124.23 360.59 117.84 385.04 111.15"/><polygon class="cls-6" points="354.5 32.85 373.57 43.78 362.2 28.53 352.85 25.77 350.87 29.01 354.5 32.85"/><polygon class="cls-3" points="352.85 25.77 333.61 20.1 334.07 34.51 344.45 43.78 354.5 32.85 352.85 25.77"/><polygon class="cls-7" points="315.3 34.51 315.5 36.77 317.05 38.06 344.41 43.82 344.45 43.78 333.61 20.1 315.3 34.51"/><polygon class="cls-5" points="341.48 54.48 342.39 57.26 332.49 64.52 331.21 61.27 341.48 54.48"/><polygon class="cls-5" points="355.96 52.01 357.06 55.33 367.39 56.95 368.09 54.7 355.96 52.01"/><polygon class="cls-29" points="332.49 64.52 357.22 89.95 355.96 68.29 346.86 59.44 354.58 58.08 358.55 69.22 362.24 75.38 367.39 56.95 357.06 55.33 354.58 58.08 346.86 59.44 342.39 57.26 332.49 64.52"/><polygon class="cls-29" points="324.11 49.38 317.27 37.64 305.99 56.95 311.65 63.52 312.89 80.84 307.78 75.06 304.06 80.73 297.83 83.05 302.95 98.07 308.22 96.74 311.65 97.44 310.09 106.84 311.64 115.27 334.07 124.03 338.22 124.31 324.11 49.38"/><polygon class="cls-34" points="308.22 96.74 310.09 106.84 315.07 94.89 308.22 96.74"/><polygon class="cls-34" points="348.97 121.07 334.07 124.03 345.39 128.45 348.97 121.07"/><polygon class="cls-34" points="301.98 84.9 310.79 90.82 308.47 82.79 301.98 84.9"/><polygon class="cls-16" points="331.71 273.29 294.42 256.13 292.57 261.27 331.09 278.45 331.23 278.55 392.5 260.04 392.36 254.35 331.71 273.29"/><polygon class="cls-7" points="357.22 89.95 340.41 105.16 350.71 165.49 369.58 182.96 371.03 185.54 370.37 188.1 368.6 194.95 378.93 202.17 372.04 128.45 362.22 91.04 357.22 89.95"/><polygon class="cls-6" points="380.91 181.22 389.73 157.84 379.66 97.72 365.07 88.22 362.22 91.04 378.93 202.17 384.6 191.1 381.69 186.35 380.1 184.01 380.91 181.22"/><rect class="cls-31" x="369.91" y="182.06" width="11.46" height="5.19" transform="translate(-23.73 59.34) rotate(-8.76)"/><polygon class="cls-34" points="368.9 103.22 357.54 105.5 352.48 97.87 370.65 94.9 368.9 103.22"/><ellipse class="cls-27" cx="342.29" cy="72.87" rx="2.92" ry="2.94"/><ellipse class="cls-27" cx="365.07" cy="67.68" rx="2.92" ry="2.94"/><polygon class="cls-35" points="354.58 58.08 360.19 66.11 365.07 88.22 357.22 89.95 352.97 68.12 346.86 59.44 354.58 58.08"/><polygon class="cls-5" points="294.71 50.93 304.06 80.73 307.04 79.65 313.42 83.36 315.25 59.88 307.92 55.56 317.27 37.64 315.3 34.51 294.71 50.93"/><polygon class="cls-5" points="365.07 88.22 357.22 89.95 362.55 93.2 365.07 88.22"/><polygon class="cls-36" points="355.69 99.28 368.54 96.97 368.02 99.49 357.13 101.52 355.69 99.28"/><polygon class="cls-30" points="314.28 182.48 320.71 192.82 310.38 210.82 298.5 194.48 314.28 182.48"/></g><g id="Layer_6" data-name="Layer 6"><polygon class="cls-1" points="549.74 290.4 673.55 275.27 759.22 301.13 729.66 309.32 677.77 301.13 620.63 305.22 549.74 290.4"/><polygon class="cls-14" points="677.77 211.22 652.73 223.45 659.29 241.57 673.55 226.83 677.77 211.22"/><polygon class="cls-37" points="652.73 223.45 633.92 231.66 634.24 240.97 659.29 241.57 652.73 223.45"/><polygon class="cls-38" points="652.73 223.45 651.59 241.39 659.29 241.57 652.73 223.45"/><polygon class="cls-37" points="718.12 295.47 713.07 305.22 719.42 305.22 725.4 299.56 718.12 295.47"/><polygon class="cls-37" points="706.26 253.36 718.12 295.47 727.81 292.35 724.71 248.68 715.4 248.68 706.26 253.36"/><polygon class="cls-17" points="677.77 211.22 659.29 226.83 677.26 250.61 700.46 267 718.64 224.22 677.77 211.22"/><polygon class="cls-39" points="729.63 194.69 735.09 220.29 703.76 232.67 713.85 209.84 729.63 194.69"/><polygon class="cls-39" points="736.83 184.11 729.12 144.47 700.46 141.55 711.67 158.51 736.83 184.11"/><polygon class="cls-40" points="660.51 145.89 643.24 196.98 677.77 211.22 688.63 229.36 709.58 213.36 706.28 192.3 675.44 157.2 660.51 145.89"/><polygon class="cls-37" points="677.77 211.22 686.3 214.34 696.18 180.81 706.28 192.3 709.58 213.36 688.63 229.36 677.77 211.22"/><polygon class="cls-38" points="677.77 211.22 686.3 214.34 698.43 214.34 688.63 229.36 677.77 211.22"/><polygon class="cls-37" points="659.29 163.34 666.71 164.8 673.55 167 683.3 170.95 667.2 182.39 659.29 163.34"/><polygon class="cls-41" points="666.71 164.8 662.64 180.81 667.2 182.39 673.55 167 666.71 164.8"/><polygon class="cls-38" points="662.64 180.81 663.9 184.99 667.2 182.39 662.64 180.81"/><polygon class="cls-9" points="656.53 142.78 705.68 193.04 707.74 150.76 695.23 134.94 656.53 142.78"/><polygon class="cls-10" points="707.74 150.76 736.83 184.11 703.76 232.67 707.74 150.76"/><polygon class="cls-9" points="705.68 193.04 683.3 237.94 703.76 232.67 705.68 193.04"/><polygon class="cls-39" points="736.83 184.11 705.68 193.04 656.53 142.78 736.83 184.11"/><ellipse class="cls-27" cx="677.26" cy="175.78" rx="2.4" ry="2.92"/><ellipse class="cls-27" cx="660.24" cy="169.95" rx="2.4" ry="2.92"/><polygon class="cls-26" points="683.3 170.95 674.86 164.8 673.55 167 683.3 170.95"/><polygon class="cls-26" points="666.71 164.8 667.2 161.88 659.29 163.34 666.71 164.8"/><polygon class="cls-38" points="670.64 194.69 662.64 187.62 654.93 188.5 661.04 191.72 670.64 194.69"/><polygon class="cls-37" points="670.64 194.69 660.24 194.69 654.93 188.5 661.04 191.72 670.64 194.69"/><polygon class="cls-15" points="659.29 226.83 659.29 248.27 671.3 268.56 691.3 287.67 700.46 267 659.29 226.83"/><polygon class="cls-17" points="691.3 287.67 659.29 248.27 657.84 273.24 667.2 298.2 691.3 287.67"/><polygon class="cls-20" points="659.29 248.27 623.85 237.94 624.62 272.9 636.65 296.74 667.2 298.2 659.29 248.27"/><polygon class="cls-14" points="703.76 232.67 706.26 253.36 732.47 246.71 727.09 223.45 703.76 232.67"/><polygon class="cls-38" points="724.71 248.68 725.4 258.42 706.26 253.36 724.71 248.68"/><polygon class="cls-41" points="718.12 295.47 727.81 290.4 741.2 290.4 736.83 295.47 726.26 303.07 718.12 295.47"/><polygon class="cls-37" points="741.2 290.4 750.7 301.51 737.9 305.22 726.26 303.07 741.2 290.4"/><polygon class="cls-40" points="635.08 240.99 623.85 237.94 614.15 226.83 633.92 231.66 635.08 240.99"/><polygon class="cls-37" points="623.85 237.94 603.48 270.7 609.69 275.77 628.9 272.07 623.85 237.94"/><polygon class="cls-14" points="603.48 270.7 594.56 283.96 609.69 275.77 603.48 270.7"/><polygon class="cls-38" points="623.85 237.94 622.86 273.24 628.9 272.07 623.85 237.94"/><polygon class="cls-40" points="628.5 269.34 603.48 277.33 602.12 285.81 606 294.3 632.77 298.2 628.5 269.34"/><polygon class="cls-17" points="603.48 277.33 586.99 281.04 586.99 289.42 590.49 293.91 606 294.3 603.48 277.33"/><polygon class="cls-37" points="614.15 226.83 614.15 238.4 617.42 248.27 623.85 237.94 614.15 226.83"/><polygon class="cls-37" points="635.08 240.99 627.73 250.03 625.06 246.15 627.86 239.11 635.08 240.99"/><polygon class="cls-38" points="623.85 237.94 617.42 248.27 623.66 244.57 623.85 237.94"/><polygon class="cls-15" points="586.99 281.04 574.77 269.34 574.77 294.3 590.49 293.91 586.99 281.04"/><polygon class="cls-18" points="667.2 298.2 628.5 269.34 632.77 298.2 667.2 298.2"/></g><g id="Layer_7" data-name="Layer 7"><polygon class="cls-32" points="429.17 334.05 516.5 313.73 590.37 336.19 486.33 351.99 429.17 334.05"/><polygon class="cls-28" points="459.87 318.64 447.64 320.69 447.64 334.44 463.94 339.12 476.93 332.85 459.87 318.64"/><polygon class="cls-31" points="459.87 318.64 463.94 339.12 476.93 332.85 459.87 318.64"/><polygon class="cls-14" points="511.07 255.36 500.02 259.76 485.86 284.82 501.13 304.73 511.27 278.86 511.07 255.36"/><polygon class="cls-42" points="485.86 284.82 468.3 290.41 459.87 299.32 501.13 318.64 501.13 304.73 485.86 284.82"/><polygon class="cls-43" points="473.81 330.54 459.87 318.64 459.87 299.32 472.72 304.73 473.81 330.54"/><polygon class="cls-43" points="468.3 290.41 459.28 284.82 450.26 297.97 459.87 299.32 468.3 290.41"/><polygon class="cls-44" points="450.26 297.97 459.87 308.31 459.87 299.32 450.26 297.97"/><polygon class="cls-42" points="491.68 188.17 476.93 229.71 502.93 241.62 511.07 255.36 533.77 246.87 512.24 227.96 516.12 215.87 505.35 211.11 500.6 219.57 495.17 213.51 502.15 192 491.68 188.17"/><polygon class="cls-43" points="502.15 192 476.93 229.71 502.93 241.62 511.07 255.36 523.02 255.36 533.77 246.87 526.2 233.85 512.74 226.4 516.12 215.87 505.35 211.11 500.6 219.57 495.17 213.51 502.15 192"/><polygon class="cls-44" points="476.93 229.71 503.6 231.17 502.25 225.71 510.78 226.4 502.93 241.62 476.93 229.71"/><polygon class="cls-44" points="504.09 222.9 507.19 216.25 511.85 217.81 504.09 222.9"/><polygon class="cls-31" points="533.77 246.87 564.99 216.25 537.84 195.94 510.78 226.4 533.77 246.87"/><polygon class="cls-28" points="537.84 199.64 519.22 186.58 502.15 192 495.17 213.51 500.6 219.57 505.35 211.11 516.12 215.87 510.78 226.4 537.84 199.64"/><polygon class="cls-18" points="537.84 199.64 513.59 174.62 491.68 188.17 502.15 192 537.84 199.64"/><polygon class="cls-28" points="513.59 174.62 551.22 181.93 564.99 216.25 537.84 199.64 520.38 182.85 513.59 174.62"/><polygon class="cls-15" points="533.77 246.87 557.62 282.81 523.89 326.64 501.13 304.73 511.07 255.36 533.77 246.87"/><polygon class="cls-16" points="557.62 282.81 552.19 322.74 535.9 326.64 523.68 319.42 557.62 282.81"/><polygon class="cls-16" points="501.13 304.73 523.68 319.42 510.78 322.74 498.85 315.72 501.13 304.73"/><polygon class="cls-9" points="552.19 322.74 547.54 338.73 516.5 340.68 493.86 345.36 498.85 315.72 552.19 322.74"/><polygon class="cls-39" points="547.54 338.73 498.85 315.72 493.86 345.36 547.54 338.73"/><polygon class="cls-25" points="493.86 345.36 473.81 330.54 472.72 304.73 498.85 315.72 493.86 345.36"/><polygon class="cls-9" points="498.85 315.72 473.81 330.54 493.86 345.36 498.85 315.72"/></g></svg>