<svg id="ILLUSTRATION" xmlns="http://www.w3.org/2000/svg" viewBox="0 0 900 350"><defs><style>.cls-1{fill:#ececeb;}.cls-1,.cls-10,.cls-11,.cls-12,.cls-13,.cls-2,.cls-3,.cls-31,.cls-32,.cls-33,.cls-34,.cls-35,.cls-36,.cls-37,.cls-38,.cls-39,.cls-4,.cls-5,.cls-6,.cls-7,.cls-8,.cls-9{fill-rule:evenodd;}.cls-2{fill:#dddddc;}.cls-3{fill:#c4c4c4;}.cls-4{fill:#cfcfcd;}.cls-5{fill:#74c7a5;}.cls-27,.cls-6{fill:#54b08b;}.cls-29,.cls-7{fill:#3f8f6f;}.cls-8{fill:#8f8f8f;}.cls-9{fill:#737474;}.cls-10,.cls-28,.cls-38{fill:#2b2b2b;}.cls-10{opacity:0.1;}.cls-11,.cls-19{fill:#6f9d52;}.cls-12,.cls-22{fill:#d9e256;}.cls-13,.cls-23{fill:#b8c744;}.cls-14,.cls-33{fill:#99c26c;}.cls-15{fill:#738d57;}.cls-16,.cls-31{fill:#dfbda5;}.cls-17,.cls-32{fill:#c2987a;}.cls-18,.cls-35{fill:#5a753d;}.cls-20{fill:#d1ab92;}.cls-21{fill:#e6e97b;}.cls-24,.cls-34{fill:#8b6651;}.cls-25,.cls-37{fill:#e9cbb7;}.cls-26{fill:#35785e;}.cls-30,.cls-39{fill:#fff;}.cls-36{fill:#1d7678;}</style></defs><title>diplomats_Mediator_INFP_friendships</title><g id="hill_and_land" data-name="hill and land"><polygon class="cls-1" points="435 69 479 58.5 500 65.5 519.5 93 451.5 126.5 435 69"/><polygon class="cls-2" points="425 101 511.5 85.5 530 141 417 147 425 101"/><polygon class="cls-3" points="426.5 113 469.5 125.5 528 124 557 152.5 438 185 384.5 126.5 426.5 113"/><polygon class="cls-1" points="494.83 177.83 487.33 155.83 427 139 406.5 156.5 416.17 182.33 492.5 205.67 494.83 177.83"/><polygon class="cls-2" points="476.83 201.33 474.5 188 487.33 155.83 526.67 139 550 151.33 547.33 190 490.33 213.67 476.83 201.33"/><polygon class="cls-2" points="473.17 206.67 474.5 188 423.17 163 393.83 208 463.17 245.33 473.17 206.67"/><polygon class="cls-2" points="659.83 132 627.83 106 608.17 82.33 598.17 79.67 584.83 87.67 629.83 183.33 687.83 172 669.83 137.33 659.83 132"/><polygon class="cls-1" points="627.83 106 608.17 82.33 598.17 79.67 584.83 87.67 608.75 121.5 627.83 106"/><polygon class="cls-1" points="739.5 165 762.5 151 627.83 106 670.5 150 739.5 165"/><polygon class="cls-2" points="784.25 244.25 783.5 198.33 762.5 151 670.5 150 715.5 240 784.25 244.25"/><polygon class="cls-2" points="297.83 150.67 280.5 119.33 373.17 80 372.5 168.67 297.83 150.67"/><polygon class="cls-1" points="241.17 138 280.5 119.33 345.83 148 391.83 174.67 391.83 229.33 252.5 239.33 241.17 138"/><polygon class="cls-2" points="205.17 150 220.5 125.33 280.5 119.33 246.5 194 205.17 196.67 205.17 150"/><polygon class="cls-1" points="138.5 192.67 134.5 166 220.5 125.33 211.17 212 138.5 192.67"/><polygon class="cls-3" points="205.83 206.67 180.5 182.67 134.5 166 81.5 254.5 205.83 206.67"/><polygon class="cls-1" points="723.5 202 717.5 183 670.5 150 639.75 156.75 556.5 182 606.5 238 723.5 202"/><polygon class="cls-4" points="816.5 290 787.25 214.5 717.5 183 549.5 216 816.5 290"/><polygon class="cls-4" points="115.5 253 72 253.5 205.67 185.83 379.67 215.83 333.67 244.5 115.5 253"/><polygon class="cls-1" points="815.17 258 801.17 251.33 787.25 214.5 541.83 210.67 587.17 266.67 815.17 258"/><polygon class="cls-5" points="800.5 298 899.92 255.96 797.17 231.33 583.5 230 526.5 203 411.5 243 800.5 298"/><polygon class="cls-5" points="552.5 279 577.5 314 635.25 350.5 811 334.5 899.92 255.96 754.81 252.17 612.5 275 552.5 279"/><polygon class="cls-3" points="245.5 272 381.5 340.75 635.25 350.5 594.5 307 564.5 273 245.5 272"/><polygon class="cls-5" points="82.5 276 66.5 297.5 151.5 350 381.25 340 359.5 309 267.5 268 82.5 276"/><polygon class="cls-5" points="192.5 225 0.06 256.03 66.5 297.5 170.37 282.91 408.5 251 377.5 230 192.5 225"/><polygon class="cls-3" points="408.5 200 439.83 204 474.5 188 537.17 209.33 511.83 240 407.83 234 408.5 200"/><polygon class="cls-6" points="247.5 265.5 264 242.5 359.83 238 472.83 252.33 589 240.5 680 246.5 649 283 285.5 276.5 247.5 265.5"/></g><polygon class="cls-2" points="201.36 71.81 256.25 76.75 168.3 102 135.83 94 49.5 80.25 131.64 62.47 201.36 71.81"/><polygon class="cls-1" points="49.5 80.25 117.62 56 186.26 65.34 256.25 76.75 172.73 82.83 116 76.5 49.5 80.25"/><polygon class="cls-2" points="847.48 125.97 880.37 129.08 827.67 145 799.64 139.96 756.5 131.29 805.71 120.08 847.48 125.97"/><polygon class="cls-1" points="756.5 131.29 797.32 116 838.44 121.89 880.37 129.08 830.33 132.92 794.95 123.7 756.5 131.29"/><polygon class="cls-2" points="743.67 22.5 818.67 15.5 697.67 64.5 619.67 34 535.17 23 646.67 9.5 743.67 22.5"/><polygon class="cls-1" points="535.17 23 627.17 0.5 722.67 13.5 818.67 15.5 703.83 37.83 621.67 17.5 535.17 23"/><g id="rocks"><polygon class="cls-7" points="267.5 197.67 239.17 181.1 225.83 218.33 238.83 223 267.5 197.67"/><polygon class="cls-7" points="188.83 174 215.5 166.67 223.17 213.33 211.17 222.67 185.83 180.67 188.83 174"/><polygon class="cls-7" points="694.17 186 721.5 184.67 728.5 246.33 716.17 249.67 681.17 200 694.17 186"/><polygon class="cls-7" points="765.5 212.33 738.17 206 730.65 241.17 736.75 255.37 754.81 252.17 785.17 224.67 765.5 212.33"/><polygon class="cls-8" points="233.17 224 262.5 222.67 269.83 276 232.5 294.67 215.83 251.33 233.17 224"/><polygon class="cls-9" points="227.17 220 193.83 224.67 183.83 281.67 232.5 294.67 231.17 232.67 227.17 220"/><polygon class="cls-8" points="565.5 285.5 538 288.5 499 298.5 453 298.5 431 259.5 548.5 256 565.5 285.5"/><polygon class="cls-9" points="617.5 282 594.5 307.5 552.75 299.75 535 257 598.5 261 617.5 282"/><polygon class="cls-8" points="575 252 591.75 276.75 594.5 307.5 642 293.5 627.83 250.67 575 252"/><polygon class="cls-8" points="344.5 297.33 359.75 307.5 398.25 299.75 437.83 258 340.5 274 344.5 297.33"/><polygon class="cls-2" points="549.83 238 627.83 250.67 591.75 276.75 540 272.5 549.83 238"/><polygon class="cls-9" points="347.17 261.33 301.83 256.67 292.75 301.75 359.75 307.5 360.5 274.75 347.17 261.33"/><polygon class="cls-2" points="405.83 240.67 367.17 246.67 301.83 256.67 360.5 274.75 426 270 405.83 240.67"/><polygon class="cls-2" points="437.17 235.83 516.33 238.67 516 271 440.5 270.5 437.17 235.83"/><polygon class="cls-8" points="279 252 301.83 256.67 313.67 303.54 276 317.5 262.5 282 270.5 256.5 279 252"/><polygon class="cls-3" points="255.5 280 244.5 253 275.5 245.67 301.83 256.67 273.83 262.33 255.5 280"/><polygon class="cls-9" points="244.5 253 229 308.5 276 317.5 273.83 262.33 244.5 253"/><polygon class="cls-8" points="151.17 269.32 167.96 272.76 176.67 307.23 148.96 317.5 139.03 291.39 144.92 272.63 151.17 269.32"/><polygon class="cls-3" points="133.88 289.92 125.79 270.06 148.59 264.67 167.96 272.76 146.76 281.09 133.88 289.92"/><polygon class="cls-9" points="125.79 270.06 114.39 310.88 148.96 317.5 146.76 281.09 125.79 270.06"/><polygon class="cls-8" points="674 231 701.17 231.5 705.5 296.5 675.33 308.83 661.83 273.33 669.83 247.83 674 231"/><polygon class="cls-3" points="654.83 254.83 643.83 227.83 674.83 220.5 701.17 231.5 672.33 242.83 654.83 254.83"/><polygon class="cls-9" points="643.83 227.83 631.5 296.5 675.33 308.83 672.33 242.83 643.83 227.83"/><polygon class="cls-3" points="193.83 224.67 231.17 232.67 262.5 222.67 223.17 213.33 193.83 224.67"/><polygon class="cls-8" points="733.87 247.5 754.81 252.17 765.67 299.04 731.11 313 718.73 277.5 726.07 252 733.87 247.5"/><polygon class="cls-3" points="712.31 275.5 702.22 248.5 730.65 241.17 754.81 252.17 729 258.5 712.31 275.5"/><polygon class="cls-9" points="702.22 248.5 688 304 731.11 313 729 258.5 702.22 248.5"/><polygon class="cls-6" points="808 252.5 783.5 198.33 738.17 206 808 252.5"/><polygon class="cls-6" points="670.5 230 680 176 721.5 184.67 670.5 230"/><polygon class="cls-6" points="165.83 215.33 174 158 215.5 166.67 165.83 215.33"/><polygon class="cls-6" points="279.88 221 273.19 174 239.17 181.1 279.88 221"/></g><path class="cls-10" d="M202.5,265.67,192,265l-24,9-48,24L89.5,311l34,22,34.33-1.33,35.67-18L276.83,334l39.67-19.67,58,15,105.67-11,104.66,6L626.17,310l49,12.33,19.66-6.66L740,327.75l69-32.5L744.17,283,616.5,288.67S455.83,259.33,452.5,260s-190.67,28-190.67,28Z"/><polygon class="cls-10" points="777.01 277.42 784.26 275.33 791.63 278.07 784.21 279.83 777.01 277.42"/><polygon class="cls-11" points="784.48 268.51 784.81 273.02 784.48 277.96 783.05 277.42 780.97 269.61 784.48 268.51"/><polygon class="cls-12" points="778.77 269.28 784.06 259.81 791.41 268.95 784.81 273.02 778.77 269.28"/><polygon class="cls-13" points="784.06 259.81 775.25 270.6 784.81 273.02 784.06 259.81"/><polygon class="cls-10" points="320.04 332.05 330.68 328.99 341.47 333.02 330.6 335.6 320.04 332.05"/><polygon class="cls-11" points="331 319 331.48 325.61 331 332.86 328.9 332.05 325.84 320.61 331 319"/><polygon class="cls-12" points="322.62 320.13 330.38 306.24 341.15 319.64 331.48 325.61 322.62 320.13"/><polygon class="cls-13" points="330.38 306.24 317.46 322.06 331.48 325.61 330.38 306.24"/><polygon class="cls-10" points="782.48 320.08 792.23 317.28 802.13 320.97 792.15 323.33 782.48 320.08"/><polygon class="cls-11" points="792.52 308.12 792.97 314.17 792.52 320.82 790.6 320.08 787.79 309.59 792.52 308.12"/><polygon class="cls-12" points="784.84 309.15 787.94 296 801.83 308.71 792.97 314.17 784.84 309.15"/><polygon class="cls-13" points="787.94 296 780.11 310.92 792.97 314.17 787.94 296"/><polygon class="cls-10" points="89.08 281.25 95.8 279.31 102.62 281.86 95.75 283.49 89.08 281.25"/><polygon class="cls-11" points="96 273 96.31 277.17 96 281.75 94.68 281.25 92.74 274.02 96 273"/><polygon class="cls-12" points="90.71 273.71 92.84 264.65 102.41 273.41 96.31 277.17 90.71 273.71"/><polygon class="cls-13" points="92.84 264.65 87.45 274.93 96.31 277.17 92.84 264.65"/><polygon class="cls-10" points="192.17 323.42 200.25 321.1 208.46 324.16 200.19 326.12 192.17 323.42"/><polygon class="cls-11" points="200.5 313.5 200.87 318.52 200.5 324.04 198.91 323.42 196.58 314.73 200.5 313.5"/><polygon class="cls-12" points="194.13 314.36 196.7 303.45 208.22 313.99 197.78 319.31 194.13 314.36"/><polygon class="cls-13" points="196.7 303.45 188.73 316.51 197.78 319.31 196.7 303.45"/><polygon class="cls-10" points="117.72 250.21 122.26 248.91 126.87 250.63 122.22 251.73 117.72 250.21"/><polygon class="cls-11" points="122.4 244.64 122.6 247.46 122.4 250.56 121.5 250.21 120.19 245.32 122.4 244.64"/><polygon class="cls-12" points="118.82 245.12 120.26 238.99 126.73 244.91 120.87 247.9 118.82 245.12"/><polygon class="cls-13" points="120.26 238.99 115.78 246.33 120.87 247.9 120.26 238.99"/><polygon class="cls-10" points="157.85 252.31 163.11 250.79 168.45 252.79 163.07 254.06 157.85 252.31"/><polygon class="cls-11" points="163.27 245.86 163.51 249.12 163.27 252.71 162.23 252.31 160.72 246.65 163.27 245.86"/><polygon class="cls-12" points="159.13 246.41 160.8 239.32 168.29 246.17 161.5 249.63 159.13 246.41"/><polygon class="cls-13" points="160.8 239.32 155.62 247.81 161.5 249.63 160.8 239.32"/><polygon class="cls-10" points="830.43 293 836.88 291.14 843.42 293.58 836.83 295.15 830.43 293"/><polygon class="cls-11" points="837.07 285.08 837.36 289.09 837.07 293.49 835.8 293 833.95 286.06 837.07 285.08"/><polygon class="cls-12" points="831.99 285.77 834.04 277.08 843.22 285.48 834.91 289.72 831.99 285.77"/><polygon class="cls-13" points="834.04 277.08 827.69 287.48 834.91 289.72 834.04 277.08"/><polygon class="cls-10" points="686.56 332.83 697.93 329.56 709.46 333.86 697.84 336.62 686.56 332.83"/><polygon class="cls-11" points="698.27 318.88 698.79 325.94 698.27 333.69 696.03 332.83 692.76 320.61 698.27 318.88"/><polygon class="cls-12" points="689.32 320.09 692.93 304.76 709.12 319.57 694.46 327.05 689.32 320.09"/><polygon class="cls-13" points="692.93 304.76 681.73 323.11 694.46 327.05 692.93 304.76"/><g id="shadows_1" data-name="shadows 1"><polygon class="cls-10" points="371 253 360.5 247 329 253 371.5 272.5 385.37 302.38 398.25 299.75 422 283 371 253"/><polyline class="cls-10" points="564 235.5 591.04 265 573.5 275 572.5 303 553.37 300 498.3 298.48 478.5 298.67 470.5 271 504.5 240.5 564 235.5"/></g><polygon class="cls-14" points="420.96 196.75 441.83 206.33 446 221.5 421 232.5 412.67 192.83 420.96 196.75"/><polygon class="cls-15" points="411.79 183.42 423 162.5 441.83 206.33 411.83 219.17 403.5 179.5 411.79 183.42"/><polygon class="cls-16" points="433.33 296.83 453.07 298.48 471.07 312.81 459.55 313.96 433.05 313.75 433.33 296.83"/><polygon class="cls-17" points="459.55 313.96 475.08 303.92 473.54 314 459.55 313.96"/><polygon class="cls-16" points="398 300 398.17 319.69 430.57 318.61 416.42 294.83 398 300"/><polygon class="cls-17" points="430.57 318.61 414.3 309.32 398.17 319.69 430.57 318.61"/><polygon class="cls-16" points="289 174.83 279 173.67 262.83 163.83 274.33 155.17 289.5 161.83 289 174.83"/><path class="cls-17" d="M299.16,163.83l-9.66-2L279,173.67l13.83,4.66s10.67-1,10.67-1.5S299.16,163.83,299.16,163.83Z"/><polygon class="cls-16" points="305.5 184.33 306.83 169.33 298.83 159.17 288.5 154 285.08 156.75 293 163.83 292.66 169.17 305.5 184.33"/><polygon class="cls-15" points="364.66 152.67 357.33 157.33 318.66 192 337.5 211 358.16 202.17 364.66 152.67"/><polygon class="cls-18" points="414.33 172.5 432.66 201.67 422.66 239.33 359.45 227.88 358.16 202.17 414.33 172.5"/><polygon class="cls-14" points="384.66 226.67 422.66 239.33 359.83 238 359.45 227.88 384.66 226.67"/><polygon class="cls-19" points="398.83 154 412.83 159.5 423 162.5 432.66 201.67 358.16 202.17 356 152 398.83 154"/><polygon class="cls-20" points="474.87 65.94 470.41 63.48 468.6 59.5 456.31 48.8 445.9 35.45 421.66 36.7 401.57 34.24 393.73 45.81 381.1 58.18 378.23 61.96 374.66 64.45 367.49 83.35 351.8 117.49 342.84 125.32 329.63 133.18 339.77 141.87 347.05 152.19 366.06 150.93 369.27 173.41 384.34 155.66 386.86 163.22 395.37 174.25 398.52 172.36 407.47 186.33 413.56 190.23 410.56 178 409.29 161.71 420 150.66 432.92 141.46 448.11 139.99 465.49 140.42 464.8 106.87 468.4 72.27 470.67 68 474.87 65.94"/><polygon class="cls-16" points="432.92 141.46 465.49 140.42 468.4 72.27 462.29 65.75 455.96 59.29 445.96 50.58 432.44 60.55 430.99 58.98 424.75 65.06 416.21 141.34 432.92 141.46"/><polygon class="cls-21" points="468.46 72.29 468.6 59.5 445.9 35.45 439.21 48.34 445.96 50.58 455.96 59.29 462.29 65.75 468.46 72.29"/><polygon class="cls-22" points="445.9 35.45 401.57 34.24 381.1 58.18 374.66 64.45 387.18 64.61 399.57 64.93 412.05 65.02 424.76 65.19 432.44 60.55 445.96 50.58 445.9 35.45"/><polygon class="cls-23" points="424.76 65.19 412.36 65.07 399.57 64.93 387.18 64.61 374.66 64.45 351.8 117.49 418.38 71.48 424.76 65.19"/><polygon class="cls-17" points="448.06 82.75 448.14 100.51 465.33 85.62 448.06 82.75"/><polygon class="cls-17" points="443.94 82.05 426.48 87.26 437.63 92.99 443.8 109.43 443.94 82.05"/><polygon class="cls-17" points="424.76 65.19 416.21 141.34 412.85 143.06 406.15 141.6 403.68 134.39 403.41 125.23 409.14 103.46 424.76 65.19"/><polygon class="cls-24" points="448.21 109.66 445.71 113.51 443.8 109.43 448.21 109.66"/><polygon class="cls-23" points="443.94 82.05 428.97 83.08 426.48 87.26 443.94 82.05"/><polygon class="cls-23" points="448.06 82.75 464.94 82.74 465.33 85.62 448.06 82.75"/><polygon class="cls-24" points="406.15 141.6 409.29 161.71 432.92 141.46 416.21 141.34 406.15 141.6"/><polygon class="cls-25" points="443.94 82.05 443.8 109.43 448.21 109.66 448.06 82.75 443.94 82.05"/><polygon class="cls-21" points="418.38 71.48 369.27 173.41 383.12 179.79 403.41 125.23 424.75 65.06 418.38 71.48"/><polygon class="cls-22" points="409.64 89.5 347.05 152.19 329.63 133.18 351.8 117.49 418.38 71.48 409.64 89.5"/><polygon class="cls-22" points="403.41 125.23 409.29 161.71 413.56 190.23 383.12 179.79 403.41 125.23"/><polygon class="cls-23" points="409.64 89.5 347.05 152.19 369.27 173.41 383.06 144.71 396.41 123.87 409.64 89.5"/><polygon class="cls-26" points="474.87 65.94 468.6 59.5 462.1 65.75 468.46 72.29 474.87 65.94"/><polygon class="cls-27" points="462.29 65.75 455.96 59.29 449.52 65.56 455.89 72.1 462.29 65.75"/><polygon class="cls-26" points="449.85 65.55 443.49 59.01 437.09 65.36 443.36 71.8 449.85 65.55"/><polygon class="cls-27" points="437.26 65.42 430.99 58.98 424.47 65.28 430.8 71.75 437.26 65.42"/><polygon class="cls-26" points="424.76 65.19 418.46 58.67 412.05 65.02 418.38 71.48 424.76 65.19"/><polygon class="cls-27" points="412.36 65.07 406.11 58.57 399.57 64.93 405.98 71.36 412.36 65.07"/><polygon class="cls-26" points="399.94 64.81 393.56 58.32 387.18 64.61 393.48 71.13 399.94 64.81"/><polygon class="cls-27" points="387.43 64.64 381.1 58.18 374.66 64.45 380.91 70.94 387.43 64.64"/><polygon class="cls-18" points="416.68 87.68 409.64 89.5 403.43 102.5 412.25 100.28 416.68 87.68"/><polygon class="cls-14" points="412.25 100.28 403.43 102.5 398.9 111.94 408.65 110.39 412.25 100.28"/><polygon class="cls-18" points="408.65 110.39 398.9 111.94 393.81 122.41 405.02 120.6 408.65 110.39"/><polygon class="cls-14" points="405.02 120.6 393.81 122.41 388.24 134.01 400.97 131.78 405.02 120.6"/><polygon class="cls-18" points="400.97 131.78 388.24 134.01 383.06 144.71 397.03 142.47 400.97 131.78"/><path class="cls-28" d="M458.88,91.37a3.36,3.36,0,0,0-4.37,2,3.42,3.42,0,0,0,2.05,4.39,3.49,3.49,0,0,0,4.46-2A3.43,3.43,0,0,0,458.88,91.37Z"/><path class="cls-28" d="M434.9,91.35a3.53,3.53,0,0,0-4.47,2.09,3.48,3.48,0,0,0,2.12,4.42,3.42,3.42,0,0,0,4.39-2.06A3.47,3.47,0,0,0,434.9,91.35Z"/><polygon class="cls-26" points="399.83 270.33 384.66 226.67 359.83 238 361.17 262 393.17 272.67 399.83 270.33"/><polygon class="cls-29" points="458.17 241 384.66 226.67 398 300 433.25 300.67 458.17 241"/><polygon class="cls-27" points="464.66 227.67 384.66 226.67 433 300.75 453.33 298.67 464.66 227.67"/><polygon class="cls-14" points="306.83 169.33 337.5 211 311.33 221.33 292.83 178.33 306.83 169.33"/><polygon class="cls-30" points="443.83 120.68 432.01 120.44 444.69 129.66 456.35 121.31 443.83 120.68"/><polygon class="cls-14" points="458.96 119.92 444.22 126.59 428.97 118.7 443.91 131.63 458.96 119.92"/><polygon class="cls-18" points="458.96 119.92 453.56 119.91 446.54 118.61 441.75 118.5 435.69 119.57 428.97 118.7 432.8 120.84 444.46 123.28 454.7 121.94 458.96 119.92"/><polygon class="cls-31" points="447.44 218.28 450.34 213.56 461.07 216.87 465.89 224.01 464.68 227.63 449.27 227.61 442.83 225 447.44 218.28"/><polygon class="cls-32" points="431.75 227.42 435.87 221.56 450.34 213.56 449.27 227.61 431.75 227.42"/><polygon class="cls-11" points="501.67 200.14 494 201.83 461.07 216.87 466.83 236.67 509.5 217.25 501.67 200.14"/><polygon class="cls-33" points="542.75 173.5 523 168.75 494 201.83 509.5 217.25 529.75 210.5 542.75 173.5"/><polygon class="cls-16" points="516.08 298.2 498.3 298.48 489.75 305.25 501.69 308.83 517 305.38 516.08 298.2"/><polygon class="cls-14" points="517 305.38 489.75 305.25 479.37 313.88 518.31 313.75 517 305.38"/><polygon class="cls-16" points="553.37 300 553.31 312.08 536.44 319.72 527.5 311.21 539.17 297.17 553.37 300"/><polygon class="cls-14" points="553.31 312.08 553.19 320.27 520.79 319.19 527.5 311.21 553.31 312.08"/><polygon class="cls-15" points="537.04 172.5 518.25 205 528.7 239.33 591.91 227.88 593.2 202.17 537.04 172.5"/><polygon class="cls-19" points="552.54 154 542.5 155.75 523 168.75 518.25 205 593.2 202.17 595.37 152 552.54 154"/><polygon class="cls-18" points="563.5 276.33 545.5 258.33 566.7 226.67 591.5 228.75 591.04 265 563.5 276.33"/><polygon class="cls-15" points="553 299.83 543.7 256.33 568.25 225.13 568.62 298.88 553 299.83"/><polygon class="cls-19" points="486.7 227.67 535.17 227 555.14 243.76 516.67 300.67 498.04 298.67 486.7 227.67"/><polygon class="cls-34" points="526.91 139.33 546.83 163.83 579 138 545.7 142.5 535.79 137.64 526.91 139.33"/><polygon class="cls-31" points="496.07 76.5 491.8 134.3 545.11 143.3 559.5 109.34 547.25 77.85 523.58 75.44 496.07 76.5"/><polygon class="cls-31" points="533.87 64.55 530.19 59.21 520.37 55.58 512.08 57.87 506.42 64.74 520.59 66.27 533.87 64.55"/><polygon class="cls-32" points="522.84 83.92 520.14 87.97 519.24 111.36 528.48 92.62 536.78 90.89 522.84 83.92"/><polygon class="cls-32" points="513.62 87.74 502.37 82.35 512.45 100.95 513.62 87.74"/><polygon class="cls-32" points="547.25 77.85 545.11 143.3 553.09 144.45 546.27 164.61 560.74 155.88 566.9 144.32 559.5 109.34 555.69 91.85 547.25 77.85"/><polygon class="cls-33" points="595.27 64.13 561.95 62.18 534.47 64.54 520.32 64.64 506.71 64.73 501.82 63.95 496.98 64.8 496.07 76.5 547.25 77.85 560.05 80.91 573.87 78.55 585.63 81.82 598.42 79.2 595.27 64.13"/><polygon class="cls-35" points="523.07 70.87 517.22 64.66 510.92 70.65 516.98 77.05 523.07 70.87"/><polygon class="cls-6" points="595.27 64.13 587.84 33.31 523.51 42.31 519.01 49.21 520.37 55.58 533.87 64.55 595.27 64.13"/><polygon class="cls-7" points="523.51 42.31 499.22 45.91 496.98 64.8 506.42 64.74 520.37 55.58 523.51 42.31"/><polygon class="cls-36" points="536.78 90.89 531.39 84.82 522.84 83.92 536.78 90.89"/><polygon class="cls-36" points="513.62 87.74 509.12 82.8 502.37 82.35 513.62 87.74"/><polygon class="cls-37" points="513.62 87.74 520.14 87.97 519.24 111.36 511.59 110.69 513.62 87.74"/><polygon class="cls-34" points="519.24 111.36 515.19 115.86 511.59 110.69 519.24 111.36"/><polygon class="cls-7" points="547.25 77.85 559.5 109.34 570.61 93.86 573.87 78.55 547.25 77.85"/><polygon class="cls-6" points="573.87 78.55 598.42 79.2 609.34 121.59 614.63 132.96 614.5 141.58 587.72 129.57 559.5 109.34 573.87 78.55"/><polygon class="cls-7" points="559.5 109.34 560.74 155.88 586.58 169.75 606.49 167.3 614.5 141.58 559.5 109.34"/><polygon class="cls-6" points="614.5 141.58 628.95 147.25 639.75 156.75 609.5 180.58 597.33 179.33 586.58 169.75 614.5 141.58"/><polygon class="cls-5" points="639.75 156.75 609.34 121.59 614.5 141.58 639.75 156.75"/><path class="cls-38" d="M523.82,95.17a3.4,3.4,0,1,0,3.4-3.4A3.4,3.4,0,0,0,523.82,95.17Z"/><path class="cls-38" d="M503.92,93.59a3.4,3.4,0,1,0,3.4-3.4A3.4,3.4,0,0,0,503.92,93.59Z"/><polygon class="cls-32" points="553.28 226.66 549.17 212.81 535.55 226.97 544.82 226.96 553.28 226.66"/><polygon class="cls-31" points="565.65 216.81 561.67 215.08 549.17 212.81 553.31 226.75 568.7 226.38 565.65 216.81"/><polygon class="cls-33" points="586.58 169.75 591.33 209 612.17 197.33 609.25 180.5 586.58 169.75"/><polygon class="cls-11" points="612.17 197.33 561.67 215.08 568.25 240.13 616 220.5 612.17 197.33"/><polygon class="cls-39" points="515.56 120.92 524.83 125.27 513.83 129.23 506.23 123.67 515.56 120.92"/><polygon class="cls-33" points="524.83 125.27 514.41 132.11 506.23 123.67 514.66 127.63 524.83 125.27"/><polygon class="cls-35" points="532.18 120.08 524.83 125.27 514.86 123.09 506.23 123.67 503.62 118.96 509.24 121.21 515.09 118.96 524.31 122.11 532.18 120.08"/><polygon class="cls-15" points="535.17 227 563 231.38 553.37 300 516.67 300.67 535.17 227"/></svg>