<svg id="ILLUSTRATION" xmlns="http://www.w3.org/2000/svg" viewBox="0 0 900 350"><defs><style>.cls-1{fill:#dddddc;}.cls-2{fill:#ececeb;}.cls-3{fill:#6f9d52;}.cls-4{fill:#c0db8f;}.cls-5{fill:#99c26c;}.cls-6{fill:#9ca0a1;}.cls-7{fill:#858686;}.cls-8{fill:#c4c4c4;}.cls-9{fill:#a0cf7f;}.cls-10{fill:#a3a3a3;}.cls-11{fill:#74c7a5;}.cls-12{fill:#8f8f8f;}.cls-13,.cls-23{fill:#2b2b2b;}.cls-13{opacity:0.1;}.cls-14{fill:#54b08b;}.cls-15{fill:#3f8f6f;}.cls-16{fill:#35785e;}.cls-17{fill:#a27e6e;}.cls-18{fill:#7f5b4c;}.cls-19{fill:#738d57;}.cls-20{fill:#593e35;}.cls-21{fill:#474748;}.cls-22{fill:#4f5353;}.cls-24{fill:#aa8d80;}.cls-25{fill:#fff;}.cls-26{fill:#d1af96;}.cls-27{fill:#a9846c;}.cls-28{fill:#efd3c2;}.cls-29{fill:#f7e6dc;}.cls-30{fill:#6f7273;}.cls-31{fill:#dfbda5;}.cls-32{fill:#c2987a;}.cls-33{fill:#5a753d;}.cls-34{fill:#d9e256;}.cls-35{fill:#8b6651;}.cls-36{fill:#b8c744;}.cls-37{fill:#e9cbb7;}.cls-38{fill:#d1ab92;}.cls-39{fill:#737474;}.cls-40{fill:#e6e97b;}</style></defs><title>diplomats_Mediator_INFP_strengths</title><polygon class="cls-1" points="782.26 54.98 743.52 57.32 659.83 60.41 731.37 77.39 758.05 71.14 788.41 76.87 838.48 62.45 782.26 54.98"/><polygon class="cls-2" points="838.48 62.45 785.95 44.56 739.58 53.42 710.85 46.65 659.83 60.41 734.24 67.32 781.3 58.29 838.48 62.45"/><polygon class="cls-1" points="284.78 9.64 282.79 9.71 207.13 12.11 280.15 27.88 301.04 23.27 325.13 26.8 369.36 10.7 284.78 9.64"/><polygon class="cls-2" points="369.36 10.7 307.63 3.95 286.36 9.01 261.54 0.5 207.13 12.11 308.19 18.67 369.36 10.7"/><polygon class="cls-1" points="65.95 99.81 64.38 99.87 4.7 102.09 40.2 115.51 58.36 111.81 92.65 122.37 132.67 100.79 65.95 99.81"/><polygon class="cls-2" points="132.67 100.79 99.6 92.19 72.17 97.59 47.62 91.33 4.7 102.09 96.57 108.42 132.67 100.79"/><g id="land"><polyline class="cls-3" points="613.27 195.56 672.87 178.1 749.3 220.57 758.33 250.45 611.88 251.84 613.27 195.56"/><polygon class="cls-4" points="434.9 227.52 458.15 207.02 534.15 188.61 613.27 246.28 445.48 308.29 434.9 227.52"/><polygon class="cls-5" points="444.62 230.47 349.36 219.27 156.24 262.26 174.63 269.9 408.52 271.29 443.23 258.09 444.62 230.47"/><polygon class="cls-3" points="349.36 219.27 154.5 258.09 174.63 269.9 361.85 317.5 281.17 263.3 349.36 219.27"/><polygon class="cls-6" points="451.38 297.69 298.61 252.1 87.01 267.99 49.88 292.39 451.38 297.69"/><polygon class="cls-7" points="173.41 323.23 181.74 252.88 86.48 253.92 49.63 294.73 173.41 323.23"/><polygon class="cls-7" points="487.3 284.14 298.61 252.1 232.76 278.41 28.88 294.22 487.3 284.14"/><polygon class="cls-7" points="196.84 308.12 313.09 270.6 473.64 256 729.61 239.85 810.38 275.81 376.95 332.09 196.84 308.12"/><polygon class="cls-6" points="196.84 308.12 583.43 295.61 625.76 244.19 729.61 239.85 810.38 275.81 376.95 332.09 196.84 308.12"/><polygon class="cls-7" points="196.84 308.12 534.84 307.42 729.61 239.85 810.38 275.81 376.95 332.09 196.84 308.12"/><polygon class="cls-8" points="196.84 308.12 222.87 271.64 473.94 257.57 562.95 279.98 376.95 332.09 196.84 308.12"/><polygon class="cls-2" points="156.58 299.78 166.65 350.5 664.28 342.51 766.66 297 686.41 264.34 456.42 283.97 210.89 291.44 156.58 299.78"/><polygon class="cls-1" points="664.28 342.51 899.9 294.73 789.56 268.51 686.41 264.34 664.28 342.51"/><polygon class="cls-1" points="-0.1 302.38 166.65 350.5 456.42 283.97 222.87 271.64 -0.1 302.38"/><polygon class="cls-6" points="611.71 215.36 557.05 246.1 450.86 228.38 457.63 255.48 473.94 257.57 572.67 251.84 611.71 215.36"/><polygon class="cls-9" points="624.38 223.35 660.77 213.66 698.99 192.6 760.41 205.98 663.24 232.38 624.38 223.35"/><polygon class="cls-3" points="450.86 215.71 516.97 209.1 566.42 230.3 564.34 247.15 452.25 230.64 450.86 215.71"/><polygon class="cls-5" points="563.82 177.84 516.97 209.1 559.65 230.47 563.82 177.84"/></g><polygon class="cls-10" points="35.47 270.6 41.98 291.44 79.98 298.74 73.75 225.09 39.8 225.87 35.47 270.6"/><polygon class="cls-8" points="53.95 226.65 31.48 226.3 31.31 303.17 55.51 299.26 55.45 234.38 53.95 226.65"/><polygon class="cls-11" points="31.48 226.3 49.78 221.35 73.75 225.09 55.45 234.38 31.48 226.3"/><polygon class="cls-12" points="86.25 246.58 93.67 299.61 119.66 292.38 116.29 241.02 91.39 233.36 86.25 246.58"/><polygon class="cls-6" points="93.04 231.15 69.31 234.03 66.33 293.73 93.67 299.61 95.24 244.32 93.04 231.15"/><polygon class="cls-8" points="69.31 234.03 94.32 227.85 116.29 241.02 95.07 248.06 69.31 234.03"/><polygon class="cls-12" points="45.05 274.42 52.55 310.52 78.54 303.3 74.34 261.01 49.53 267.73 45.05 274.42"/><polygon class="cls-6" points="51.22 267.21 21.42 275.42 25.21 304.64 52.55 310.52 54.04 272.16 51.22 267.21"/><polygon class="cls-11" points="21.42 275.42 31.31 264.34 74.34 261.01 54.04 272.16 21.42 275.42"/><polygon class="cls-12" points="802.63 212.23 810.83 246.88 845 236.64 839.75 150.74 808 151 802.63 212.23"/><polygon class="cls-6" points="810.17 147.87 778.98 151.96 774.9 238.55 828.43 249.06 817.07 160.03 810.17 147.87"/><polygon class="cls-11" points="778.98 151.96 810.04 147 839.75 150.74 817.07 160.03 778.98 151.96"/><polygon class="cls-12" points="753.53 239.85 761.73 274.5 806.65 270.07 805.35 188.26 754.86 195.56 753.53 239.85"/><polygon class="cls-6" points="760.58 191.91 716.86 197.12 715.82 264.34 769.43 275.55 769.01 192.69 760.58 191.91"/><polygon class="cls-11" points="716.86 197.12 777.76 180.44 806.13 188.26 769.53 202.59 716.86 197.12"/><polygon class="cls-10" points="846.18 263.47 854.38 298.13 882.56 292.13 875.1 239.07 840.4 241.5 846.18 263.47"/><polygon class="cls-8" points="846.3 238.03 822.43 237.07 818.45 289.79 854.38 298.13 845.95 245.67 846.3 238.03"/><polygon class="cls-11" points="822.43 237.07 844.39 230.47 875.1 239.07 845.95 245.67 822.43 237.07"/><polygon class="cls-10" points="792.05 273.9 800.25 308.55 834.41 298.3 824.8 220.31 797.93 224.56 792.05 273.9"/><polygon class="cls-8" points="800.1 221.44 768.91 225.52 764.31 300.21 800.25 308.55 811.35 233.6 800.1 221.44"/><polygon class="cls-1" points="768.91 225.52 805.67 214.44 824.8 220.31 811.35 233.6 768.91 225.52"/><polygon class="cls-10" points="737.94 280.58 746.79 315.24 795.2 307.07 793.64 260.95 745.23 261.82 737.94 280.58"/><polygon class="cls-8" points="747.57 258.7 710.09 265.38 708.01 306.9 746.79 315.24 750.69 277.37 747.57 258.7"/><polygon class="cls-1" points="710.09 265.38 767.09 248.97 793.64 260.95 750.69 277.37 710.09 265.38"/><polygon class="cls-10" points="100.02 299.65 111.11 323.75 137.1 316.52 134.11 286.36 110 286.09 100.02 299.65"/><polygon class="cls-8" points="100.98 279.2 76.47 282.06 73.09 313.18 111.11 323.75 110.3 297.17 100.98 279.2"/><polygon class="cls-1" points="76.47 282.06 94.47 275.81 135.81 284.14 110.3 297.17 76.47 282.06"/><polygon class="cls-13" points="267.81 319.93 288.28 314.89 312.4 320.27 290.71 326.53 267.81 319.93"/><polygon class="cls-14" points="303.81 294.18 296.13 291.83 287.02 315.8 289.89 322.19 295.22 321.14 309.93 300.43 303.81 294.18"/><polygon class="cls-15" points="269.98 298.87 286.63 300.69 289.89 322.19 284.03 320.75 269.98 298.87"/><polygon class="cls-14" points="286.63 300.69 269.45 290.4 258.78 306.94 286.63 300.69"/><polygon class="cls-11" points="316.56 286.36 316.3 310.98 296.13 291.83 316.56 286.36"/><g id="left_character" data-name="left character"><polygon class="cls-16" points="182.53 274.5 239 274.24 235.33 188.54 203.78 177.96 182.53 274.5"/><polygon class="cls-14" points="229.62 180.82 235.36 286.23 255.4 269.29 237.62 193.29 229.62 180.82"/><polygon class="cls-16" points="131.43 246.19 130.29 269.82 178.27 262.58 178.27 174.53 139.81 183.3 131.43 246.19"/><polygon class="cls-14" points="139.05 176.82 119.28 280.76 144 290.4 141.68 193.01 139.05 176.82"/><polygon class="cls-17" points="277.05 145.09 277.93 138.8 291.96 129.45 300.96 135.14 292.11 148.33 277.05 145.09"/><polygon class="cls-18" points="268.29 140.11 277.93 138.8 292.11 148.33 277.02 153.45 263.08 154.1 268.29 140.11"/><polygon class="cls-17" points="264.26 155.28 261.6 150.93 264.03 138.93 273.5 131.82 275.87 133.95 271.37 140.59 272.31 145.09 264.26 155.28"/><polygon class="cls-17" points="98.04 146.02 96.98 139.18 83.13 130.38 74.13 136.07 82.98 150.52 98.04 146.02"/><polygon class="cls-18" points="106.8 141.04 96.98 139.18 82.98 150.52 97.98 156.66 112.01 155.03 106.8 141.04"/><polygon class="cls-17" points="110.83 156.21 113.42 150.75 111.06 139.86 101.59 132.75 99.23 134.88 103.72 141.52 102.78 146.02 110.83 156.21"/><polygon class="cls-19" points="150.99 190.09 141.68 193.01 130.47 183.34 127.27 172.02 150.07 152.03 152.99 157.05 153.36 183.7 150.99 190.09"/><polygon class="cls-19" points="221.39 157.05 224.3 152.39 249.38 172.66 248.47 182.43 237.62 193.29 227.04 190.28 223.85 185.35 221.39 157.05"/><polygon class="cls-18" points="261.14 200.23 237.62 193.29 257.59 158.23 265.7 155.95 274.4 161.57 261.14 200.23"/><polygon class="cls-3" points="261.6 150.93 257.59 158.23 274.4 161.57 277.26 153.57 261.6 150.93"/><polygon class="cls-13" points="124.2 324.9 188.37 310.97 265.84 323.38 190.75 335.43 124.2 324.9"/><path class="cls-15" d="M230.5,236.74l-12.87,45.49-13.94,2.26-11.76.32s-1-21.5-1.37-20.5l3.83-28.93,7.85.18h0l6.74-3.74,21.71,5Z"/><polygon class="cls-18" points="217.63 282.23 197.69 285.26 192.34 292.16 193.03 305.49 201.23 308.59 211.62 305.69 217.63 282.23"/><polygon class="cls-14" points="162.09 288.02 152.17 238.39 176.34 227.07 198.77 237.38 188.07 285.26 175.98 288.31 162.09 288.02"/><polygon class="cls-18" points="186.45 292.69 171.22 288.4 162.09 288.02 165.8 306.95 174.42 310.79 183.27 307.22 186.45 292.69"/><polygon class="cls-5" points="159.57 321.1 165.8 306.95 183.06 307.25 187.21 321.14 182.35 321.31 163.26 323.75 159.57 321.1"/><polygon class="cls-5" points="192.39 318.23 193.1 305.49 211.62 305.69 228.62 318.23 223.53 320.67 196.87 320.67 192.39 318.23"/><polygon class="cls-16" points="230.5 236.75 195.67 251.44 152.17 238.39 199.77 233.73 230.5 236.75"/><polygon class="cls-3" points="150.99 190.09 152.17 238.39 230.5 236.75 227.04 190.28 222.57 187.26 197.13 199.95 155.91 184.98 150.99 190.09"/><polygon class="cls-5" points="150.07 152.03 150.99 190.09 198.92 200.55 227.04 190.28 224.3 152.39 209.71 144.72 195.49 154.13 165.51 142.51 150.07 152.03"/><polygon class="cls-20" points="170.87 135.69 183.41 151.47 195.94 157.41 209.71 144.72 215.64 128.38 181.72 123.18 170.87 135.69"/><polygon class="cls-18" points="158.46 119.44 165.51 142.51 183.41 151.47 176.65 135.22 181.79 135.37 182.17 49.69 168.68 55.07 157.19 89.49 158.46 119.44"/><polygon class="cls-21" points="142.57 77.81 149.89 89.31 161.04 90.01 162.02 100.54 168.58 83.28 172.32 57.36 154.37 65.9 142.57 77.81"/><polygon class="cls-22" points="162.02 100.54 171.59 98.71 172.32 57.36 156.37 88.03 162.02 100.54"/><polygon class="cls-20" points="168.31 107.93 163.02 106.75 155.73 110.58 158.47 118.88 168.31 107.93"/><polygon class="cls-17" points="239.47 135.37 241.99 52.7 235.52 48.59 182.17 49.69 173.05 53.34 181.79 135.37 239.47 135.37"/><polygon class="cls-17" points="164.21 86.48 149.89 89.31 155.73 110.58 168.31 107.93 164.21 86.48"/><polygon class="cls-20" points="154.36 92.41 160.1 91.59 162.02 100.54 154.36 92.41"/><polygon class="cls-22" points="149.89 48.96 142.57 77.81 172.32 57.36 164.21 48.59 149.89 48.96"/><polygon class="cls-21" points="180.26 32.98 149.89 48.96 172.32 57.36 187.92 43.57 180.26 32.98"/><polygon class="cls-22" points="217.48 31.21 180.26 32.98 172.32 57.36 215.18 60.64 225.67 54.34 221.84 50.69 223.94 49.6 217.48 31.21"/><polygon class="cls-21" points="247.61 50.46 217.48 31.21 215.18 60.64 241.45 56.72 242.72 56.81 247.61 50.46"/><path class="cls-3" d="M98,156.66l15.44-5.91,4.19,7.12-5.38,5-11.26.49Z"/><polygon class="cls-18" points="115.24 201.42 100.97 163.38 117.52 157.87 141.68 193.01 115.24 201.42"/><polygon class="cls-3" points="187.21 321.14 159.57 321.1 159.57 326.02 186.95 325.83 187.21 321.14"/><rect class="cls-3" x="192.39" y="318.22" width="36.23" height="4.38"/><polygon class="cls-22" points="241.28 80.1 247.61 50.46 241.45 56.72 241.28 80.1"/><polygon class="cls-18" points="226.28 78.73 233.97 78.76 224.51 89.55 222.27 102.76 217.25 104.77 212.39 102.69 206.9 93.49 191.35 78.55 200.26 78.5 208.76 80.97 209.53 84.17 217.64 87.93 221.25 85.38 221.34 81.36 226.28 78.73"/><path class="cls-22" d="M191.59,73.71l17,4.41.05,2.77-17.33-2.34ZM234,78.76l-12.63,2.52-.29-2.8,12.14-3.65Z"/><polygon class="cls-20" points="217.71 106.86 212.39 102.69 222.27 102.76 217.71 106.86"/><path class="cls-23" d="M201.46,85.15a3.46,3.46,0,1,0,3.36,3.56A3.45,3.45,0,0,0,201.46,85.15Z"/><path class="cls-23" d="M228.54,85.39A3.46,3.46,0,1,0,231.89,89,3.47,3.47,0,0,0,228.54,85.39Z"/><polygon class="cls-24" points="212.39 102.69 209.53 84.17 221.25 84.89 222.27 102.76 212.39 102.69"/><polygon class="cls-20" points="208.08 111.51 223.67 111.76 225.76 123.65 204.82 123.65 208.08 111.51"/><polygon class="cls-25" points="209.11 113.88 222.48 113.93 223.15 118.07 208.44 118.07 209.11 113.88"/><polygon class="cls-14" points="192.78 155.09 165.51 142.51 150.07 152.03 196.35 179.11 224.3 152.39 209.71 144.72 192.78 155.09"/><polygon class="cls-20" points="186.45 292.69 188.07 285.26 162.09 288.02 186.45 292.69"/><polygon class="cls-20" points="192.34 292.16 217.63 282.23 191.93 284.81 192.34 292.16"/></g><g id="right_character" data-name="right character"><polygon class="cls-16" points="664.55 282.78 578.64 290 568.22 250.76 644.94 147.09 664.55 282.78"/><polygon class="cls-14" points="649.23 170.53 663.93 212.12 678.16 279.28 654.27 300.7 649.23 170.53"/><polygon class="cls-26" points="544.62 155.09 524.06 184.44 544.81 222.37 575.46 217.22 567.84 176.06 544.62 155.09"/><polygon class="cls-27" points="537 164.62 524.06 184.44 562.13 187.49 557.75 172.82 537 164.62"/><polygon class="cls-28" points="680.76 137.46 695.16 123.04 710.53 131.95 701.95 151.06 692.73 155.59 680.76 137.46"/><polygon class="cls-26" points="680.76 137.46 701.95 151.06 688.2 166.12 672.03 159.15 680.76 137.46"/><polygon class="cls-28" points="677.85 164.5 672.68 155.27 672.35 141.83 677.69 128.71 682.54 130.65 680.44 141.18 685.29 150.57 677.85 164.5"/><polygon class="cls-19" points="561.41 132.03 552.71 134.31 528.24 162.72 560.23 190.16 575.84 172.25 573.96 132.03 561.41 132.03"/><polygon class="cls-19" points="624.19 150.9 642.85 133.37 672.5 172.67 633.33 199.69 624.19 150.9"/><polygon class="cls-13" points="503.77 315.88 592.68 305.64 669.66 317.13 598.11 330.62 503.77 315.88"/><polygon class="cls-15" points="596.74 262.13 585.26 279.82 562.31 287.5 546.92 263.82 550.84 225.41 571.91 230.01 596.74 262.13"/><polygon class="cls-14" points="571.83 241.64 578.12 260.27 594.81 280.01 609.03 287.5 629.21 286.26 637.35 270.09 640.05 228.69 571.91 226.87 571.83 241.64"/><polygon class="cls-26" points="602.32 289.54 609.91 280.31 637.35 270.1 635.72 304.91 621.09 308.21 609.03 298.09 602.32 289.54"/><polygon class="cls-26" points="546.92 263.82 574.03 279.59 578.64 290 566.51 308.7 550.84 301.44 544.34 290.15 546.92 263.82"/><polygon class="cls-5" points="609.03 298.09 600.6 315.13 619.33 318.33 638.14 315.32 635.72 304.91 609.03 298.09"/><polygon class="cls-3" points="637.85 321.47 600.6 321.53 600.6 315.13 638.14 315.32 637.85 321.47"/><polygon class="cls-5" points="544.34 290.15 523.31 308.7 544.34 312.73 571.46 308.32 571.84 299.94 544.34 290.15"/><polygon class="cls-16" points="640.05 228.69 578.12 260.27 550.84 225.41 577.21 223.37 640.05 228.69"/><polygon class="cls-3" points="617.1 126.31 642.85 133.37 640.05 228.69 586.12 236.66 571.27 202.74 554.82 146.76 552.71 134.31 563.37 128.98 617.1 126.31"/><polygon class="cls-5" points="617.1 126.31 590.12 183.39 586.12 236.66 550.84 225.41 554.82 146.76 552.71 134.31 563.37 128.98 617.1 126.31"/><polygon class="cls-14" points="617.1 126.31 642.85 133.37 590.12 183.39 552.71 134.31 563.37 128.98 617.1 126.31"/><polygon class="cls-28" points="539.67 47.98 543.33 125.02 566.89 123.84 586.81 132.86 611.25 132.41 620.95 115.46 627.88 61.65 609.57 35.35 573.22 29.83 553.56 45.13 539.67 47.98"/><polygon class="cls-26" points="602.78 34.57 596.21 45.89 597.75 122.46 584.64 137.31 591.45 156.81 625.1 128.58 626.2 97.57 625.52 87.17 626.51 86.64 627.77 64.5 609.57 35.35 602.78 34.57"/><polygon class="cls-26" points="584.09 68.97 568.91 90.02 560.17 90.49 547.66 70.95 551.78 68.32 559.8 69.76 561.04 71.92 567.04 71.6 568.1 69.24 579.93 64.84 584.09 68.97"/><polygon class="cls-27" points="626.51 86.64 615.34 85.32 626.2 97.57 626.51 86.64"/><polygon class="cls-27" points="618.34 77.14 618.71 70.25 625 71.14 618.34 77.14"/><polygon class="cls-29" points="567.04 71.6 568.91 90.02 560.17 90.49 561.04 71.92 567.04 71.6"/><polygon class="cls-27" points="560.17 90.49 565.15 94.79 568.91 90.02 560.17 90.49"/><polygon class="cls-22" points="568.29 30.04 578.89 26.56 589.8 27.34 592.22 29.44 601.03 28.15 616.23 29.24 614.2 37.54 605.31 47.02 596.21 45.89 582.5 39.6 575.84 43.41 559.09 48.37 568.29 30.04"/><polygon class="cls-21" points="616.23 29.24 627.92 46.89 627.67 67.33 619.24 60.9 614.96 60.41 613.09 74 608.42 74.22 601.47 61.81 607.48 56.42 605.31 47.02 616.23 29.24"/><polygon class="cls-30" points="539.67 48.37 548.04 34.45 578.89 26.56 559.09 48.37 539.67 48.37"/><polygon class="cls-22" points="605.31 47.02 627.67 67.33 601.47 61.81 605.31 47.02"/><polygon class="cls-30" points="575.84 43.41 589.8 27.34 601.03 28.15 596.21 45.89 575.84 43.41"/><polygon class="cls-21" points="584.09 68.97 585.02 65.9 581.45 61.52 568.21 66.58 568.1 69.24 579.83 66.12 584.09 68.97"/><polygon class="cls-21" points="559.8 69.76 559.61 67.26 547.22 65.54 547.66 70.95 559.8 69.76"/><path class="cls-23" d="M577.39,74.51a3,3,0,0,1-2.7,3.26,3.08,3.08,0,0,1-3.41-2.62,3,3,0,0,1,2.7-3.27A3.08,3.08,0,0,1,577.39,74.51Z"/><path class="cls-23" d="M557.9,76.16a3,3,0,0,1-2.7,3.26,3.08,3.08,0,0,1-3.41-2.62,3,3,0,0,1,2.7-3.27A3.08,3.08,0,0,1,557.9,76.16Z"/><polygon class="cls-27" points="555.9 97.63 576.6 96.49 580.6 110.21 554.47 111.35 555.9 97.63"/><polygon class="cls-27" points="566.89 123.84 607.69 121.81 591.45 156.81 566.89 123.84"/><polygon class="cls-3" points="571.46 314.99 523.31 315.1 523.31 308.7 571.46 308.32 571.46 314.99"/><polygon class="cls-25" points="557.51 99.63 574.93 98.44 576.12 103.25 557.25 104.35 557.51 99.63"/><polygon class="cls-27" points="546.92 263.82 578.64 290 585.26 279.82 546.92 263.82"/><polygon class="cls-27" points="637.35 270.09 602.32 289.54 594.81 280.01 637.35 270.09"/><polygon class="cls-26" points="666.21 164.66 641.13 194.35 663.93 212.12 682.71 175.83 677.24 161.37 666.21 164.66"/><polygon class="cls-5" points="666.21 164.66 682.71 175.83 688.2 166.12 672.68 155.27 666.21 164.66"/><polygon class="cls-28" points="552.04 201.98 540.57 233.56 556.8 233.8 563.46 213.98 552.04 201.98"/></g><polygon class="cls-31" points="509.3 109.83 514.63 105.83 531 101.54 535 113.35 521.87 122.88 509.3 109.83"/><polygon class="cls-32" points="508.35 110.59 514.63 105.83 521.87 122.88 506.92 133.94 499.59 127.36 508.35 110.59"/><polygon class="cls-31" points="495.5 132.51 500.16 120.02 502.64 109.16 512.73 100.97 516.06 103.25 509.68 113.64 510.92 123.07 495.5 132.51"/><polygon class="cls-31" points="296.89 177.39 290.68 172.53 276.83 171.1 277.33 183.82 295.61 188.11 296.89 177.39"/><polygon class="cls-32" points="304.89 169.81 299.39 171.39 290.68 172.53 295.61 188.11 314.17 187.11 317.17 175.96 304.89 169.81"/><polygon class="cls-31" points="318.6 176.1 310.74 170.53 302.46 164.53 290.47 164.38 290.9 169.88 299.39 171.39 303.75 176.1 318.6 176.1"/><polygon class="cls-16" points="356.06 271.14 432.24 274.35 478.19 262.52 450.96 168.17 377.41 162.73 360.81 184.82 345.5 252.92 356.06 271.14"/><polygon class="cls-14" points="355.96 187.72 331.14 277.11 352.5 301.33 367.03 181.07 358.89 168.06 355.96 187.72"/><polygon class="cls-14" points="449.13 160.45 452.67 156.86 484.55 260.29 465.32 289.26 449.13 160.45"/><polygon class="cls-13" points="338.63 310.29 403.55 323.19 473.88 310.9 409.45 302.91 338.63 310.29"/><polygon class="cls-33" points="427.63 148.71 449.71 168.48 429.6 208.57 391.35 209.87 378.19 187.41 375.51 176 364.32 154.97 427.63 148.71"/><polygon class="cls-11" points="407.32 151.51 409.19 158.49 401.99 162.79 371.67 156.48 365.11 151.89 365.95 139.86 382.21 133.95 397.21 136.05 407.32 151.51"/><polygon class="cls-23" points="364.29 128.99 348.75 117.11 353.36 100.61 364.71 104.99 364.29 128.99"/><polygon class="cls-11" points="407.32 151.51 418.39 157.24 436.35 149.63 443.53 127.46 419.52 127.93 395.12 138.59 407.32 151.51"/><polygon class="cls-5" points="416.82 178.95 407.18 168.55 401.99 162.79 418.63 156.85 430.33 160.6 416.82 178.95"/><polygon class="cls-34" points="418.63 156.85 413.25 168.17 401.99 162.79 407.32 151.51 418.63 156.85"/><polygon class="cls-19" points="416.82 178.95 449.57 169.24 429.6 208.57 411.66 217.96 386.34 225.96 379.38 219.32 378.19 187.41 416.82 178.95"/><polygon class="cls-33" points="416.88 202.67 421.69 214.24 443.89 215.44 450.33 169.81 416.82 178.95 416.88 202.67"/><polygon class="cls-19" points="418.63 156.85 416.82 178.95 450.33 169.81 449.13 160.45 452.45 145.25 443.53 127.46 418.63 156.85"/><polygon class="cls-14" points="371.67 156.48 365.95 139.86 353.71 152.75 360.89 162.8 371.67 156.48"/><polygon class="cls-5" points="344.63 189.21 314.17 187.11 310.74 170.53 336.44 169.77 353.16 181.83 344.63 189.21"/><polygon class="cls-19" points="375.51 176 344.63 189.21 336.44 169.77 353.71 152.75 371.67 156.48 375.51 176"/><polygon class="cls-32" points="399.47 279.9 389.16 303.65 385.14 307.73 375.05 302.17 376.63 271.01 397.56 275.45 399.47 279.9"/><polygon class="cls-32" points="420.13 280 418.12 300.53 423.83 308.52 430.86 301.64 444.55 271.11 424.52 272.91 420.13 280"/><polygon class="cls-31" points="418.12 300.53 431.18 300.74 444.39 311.27 435.93 312.12 416.48 311.96 418.12 300.53"/><polygon class="cls-32" points="435.93 312.12 446.82 305.72 445.61 312.28 435.93 312.12"/><polygon class="cls-31" points="389.16 303.65 389.21 314.55 365.43 313.76 375.05 302.17 389.16 303.65"/><polygon class="cls-32" points="365.43 313.76 377.37 306.93 389.21 314.55 365.43 313.76"/><polygon class="cls-35" points="376.63 271.01 399.47 279.9 403.32 271.01 376.63 271.01"/><polygon class="cls-35" points="420.13 280 444.55 271.11 421.08 271.11 420.13 280"/><polygon class="cls-33" points="443.53 127.46 449.13 160.45 480.36 155.09 488.17 131.46 470.46 132.22 443.53 127.46"/><polygon class="cls-34" points="387.94 219.32 379.38 219.32 376.63 271.01 403.32 271.01 411.09 254.08 419.71 247.15 422.19 214.34 387.94 219.32"/><polygon class="cls-36" points="444.18 211.06 422.19 214.34 411.04 253.92 411.09 254.08 421.08 271.11 444.55 271.11 444.18 211.06"/><polygon class="cls-5" points="422.19 214.34 415.16 203.97 411.57 215.88 422.19 214.34"/><polygon class="cls-31" points="422.38 122.41 406.23 135.74 407.32 151.51 382.21 133.95 384.23 100.29 378.58 79.58 382.36 55.03 411.73 45.11 435.3 52.8 439.61 59.19 446.77 118.17 422.38 122.41"/><polygon class="cls-32" points="370.63 90.81 382.21 133.95 407.32 151.51 412.73 141.12 400.76 125.49 391.56 69.66 388.19 64 378.39 78.95 370.63 90.81"/><polygon class="cls-7" points="405.24 42.59 438.56 28.14 427.31 23.24 363.96 37.87 377.53 52.53 405.24 42.59"/><polygon class="cls-23" points="443.92 51 442.87 57.48 456.01 72.91 443.19 88.65 439.61 59.19 435.6 52.91 438.69 48.9 443.92 51"/><polygon class="cls-37" points="429.42 93.23 421.67 94.45 417.54 69.79 425.28 68.57 429.42 93.23"/><polygon class="cls-35" points="429.42 93.23 426.64 96.77 421.67 94.45 429.42 93.23"/><polygon class="cls-35" points="374.44 104.88 384.23 100.29 377.43 116.13 374.44 104.88"/><polygon class="cls-21" points="399.27 69.67 402.33 71.86 408.91 66.35 414.13 67.42 414.36 66.33 408.91 63.7 399.27 69.67"/><polygon class="cls-21" points="424.66 64.5 425.28 68.57 431.87 63 435.76 64.29 435.93 63.46 431.03 60.51 424.66 64.5"/><polygon class="cls-32" points="402.33 71.86 420.44 87.02 417.54 69.79 414.13 67.42 408.91 66.35 402.33 71.86"/><polygon class="cls-32" points="427.3 80.38 435.76 64.29 431.87 63 425.28 68.57 427.3 80.38"/><polygon class="cls-35" points="413.86 103.36 435.75 99.95 433.9 110.15 418.39 112.74 413.86 103.36"/><polygon class="cls-35" points="412.73 141.12 422.38 122.41 394.93 126.35 412.73 141.12"/><polygon class="cls-7" points="439.61 59.19 443.92 51 456.01 72.91 439.61 59.19"/><polygon class="cls-22" points="448.13 66.33 443.19 88.65 444.22 97.34 456.01 72.91 448.13 66.33"/><polygon class="cls-38" points="374.44 104.88 384.23 100.29 378.52 78.82 369.65 86.88 374.44 104.88"/><polygon class="cls-35" points="373.2 88.8 377.12 85.44 379.39 95.19 373.2 88.8"/><polygon class="cls-31" points="403.88 60.3 437.49 55.84 435.6 52.91 403.88 60.3"/><polygon class="cls-23" points="347.2 84.56 365.19 111.62 364.29 128.99 382.21 133.95 369.65 86.88 365.05 77.19 347.2 84.56"/><polygon class="cls-21" points="347.2 84.56 374.44 104.88 364.29 128.99 347.2 84.56"/><polygon class="cls-21" points="392.77 103.88 384.1 70.29 388.19 64 387.78 48.8 363.96 37.87 347.2 84.56 369.65 86.88 378.39 78.95 385.75 106.06 392.77 103.88"/><polygon class="cls-7" points="450.74 83.93 452.53 94.45 445.38 106.98 444.22 97.34 450.74 83.93"/><polygon class="cls-39" points="438.56 28.14 420.39 49.21 388.19 64 363.96 37.87 438.56 28.14"/><polygon class="cls-7" points="438.56 28.14 388.19 64 449.65 49.63 438.56 28.14"/><polygon class="cls-36" points="428.54 187.88 424.93 192.33 420.43 188.76 424.05 184.21 428.54 187.88"/><polygon class="cls-36" points="427.53 203.92 424.89 209.1 419.76 206.41 422.35 201.27 427.53 203.92"/><path class="cls-23" d="M433.23,71.11a3.17,3.17,0,0,0-3.68,2.44A3.13,3.13,0,0,0,432,77.23a3.09,3.09,0,0,0,3.68-2.43A3.13,3.13,0,0,0,433.23,71.11Z"/><path class="cls-23" d="M411.83,74.24a3.12,3.12,0,1,0,2.43,3.68A3.12,3.12,0,0,0,411.83,74.24Z"/><polygon class="cls-40" points="379.38 219.32 414.9 240.27 444.18 218.68 444.18 211.06 379.38 219.32"/><polygon class="cls-25" points="417.44 105.25 433.03 102.62 432.68 106.08 418.76 108.23 417.44 105.25"/><polygon class="cls-5" points="500.16 120.02 470.46 132.22 480.36 155.09 506.92 133.94 500.16 120.02"/></svg>