<svg xmlns="http://www.w3.org/2000/svg" viewBox="0 0 900 350"><defs><style>.cls-1,.cls-22{fill:#54b08b;}.cls-1,.cls-10,.cls-2,.cls-24,.cls-25,.cls-26,.cls-27,.cls-28,.cls-3,.cls-4,.cls-44,.cls-45,.cls-46,.cls-47,.cls-48,.cls-49,.cls-50,.cls-51,.cls-52,.cls-53,.cls-54,.cls-55,.cls-56,.cls-57,.cls-6,.cls-7{fill-rule:evenodd;}.cls-12,.cls-2{fill:#74c7a5;}.cls-14,.cls-3{fill:#35785e;}.cls-21,.cls-4{fill:#3f8f6f;}.cls-25,.cls-5{fill:#6f9d52;}.cls-20,.cls-6{fill:#cfcfcd;}.cls-23,.cls-7{fill:#c4c4c4;}.cls-49,.cls-8{fill:#99c26c;}.cls-26,.cls-9{fill:#d9e256;}.cls-10,.cls-19{fill:#ececeb;}.cls-11,.cls-55{fill:#737474;}.cls-13,.cls-57{fill:#a3a3a3;}.cls-15{fill:#a0cf7f;}.cls-16,.cls-24,.cls-31,.cls-51{fill:#2b2b2b;}.cls-16,.cls-24{opacity:0.1;}.cls-17{fill:#dddddc;}.cls-18{fill:#8f8f8f;}.cls-27,.cls-32{fill:#738d57;}.cls-28,.cls-42{fill:#5a753d;}.cls-29,.cls-44{fill:#b8c744;}.cls-30{opacity:0.1;}.cls-33,.cls-47{fill:#c2987a;}.cls-34,.cls-46{fill:#8b6651;}.cls-35,.cls-48{fill:#dfbda5;}.cls-36{fill:#4f5353;}.cls-37,.cls-54{fill:#858686;}.cls-38{fill:#6f7273;}.cls-39,.cls-52{fill:#e9cbb7;}.cls-40,.cls-53{fill:#474748;}.cls-41,.cls-56{fill:#fff;}.cls-43,.cls-45{fill:#e6e97b;}.cls-50{fill:#44622d;}</style></defs><title>diplomats_Mediator_INFP_parenthood</title><g id="other_objects" data-name="other objects"><polygon class="cls-1" points="197.5 245.49 208.69 241.71 203.09 236.65 198.35 237.64 197.5 245.49"/><polygon class="cls-2" points="200.02 233.66 197.35 238.23 195.85 240.81 205.69 237.23 200.02 233.66"/><polygon class="cls-3" points="841.63 242.34 841.63 246.17 840.2 246.17 839.5 241.05 841.63 242.34"/><polygon class="cls-4" points="827.18 242.82 835.74 243.67 834.14 238.43 829.01 238.6 827.18 242.82"/><polygon class="cls-1" points="827.26 238.67 835.74 239.31 832.15 233.52 829.24 233.35 827.26 238.67"/><polygon class="cls-2" points="827.26 233.9 833.9 234.24 830.28 230.21 827.26 233.9"/><polygon class="cls-4" points="835.87 242.23 847.38 242.56 844.59 237.07 837.95 237.27 835.87 242.23"/><polygon class="cls-1" points="835.67 237.35 846.38 237.46 841.98 230.57 838.21 230.33 835.67 237.35"/><polygon class="cls-2" points="837.07 231.11 843.34 231.41 839.54 226.19 837.07 231.11"/><polygon class="cls-4" points="354.63 233.17 369.66 233.7 367.24 226.52 358.17 227.14 354.63 233.17"/><polygon class="cls-1" points="355.07 227.36 369.99 227.63 364.08 219.81 358.96 219.79 355.07 227.36"/><polygon class="cls-2" points="357.37 220.68 367.13 220.68 361.04 215.34 357.37 220.68"/><polygon class="cls-5" points="609.01 226.16 684 203 729.52 220.5 799.5 232.91 827.85 241.04 858.66 256.7 900 261.73 849.15 278.4 663.95 258.72 609.01 226.16"/><polygon class="cls-6" points="89.93 251.72 104.47 227.47 121.62 221.76 138.5 204.25 152.47 199.47 158.31 214.93 166.5 222.27 181.02 254.13 89.93 251.72"/><polygon class="cls-7" points="121.62 221.76 111.14 247.48 102.18 249.1 104.47 227.47 121.62 221.76"/><polygon class="cls-7" points="158.31 214.93 163.17 249.1 146.5 244.2 152.47 199.47 158.31 214.93"/><polygon class="cls-6" points="505.95 227.25 520.5 203 537.64 197.29 556.12 169.93 568.5 175 574.33 190.46 584.92 193.25 597.05 229.67 505.95 227.25"/><polygon class="cls-5" points="197.54 247.83 96.94 240.68 89.93 251.72 76.3 247.94 55.36 255.31 42.93 266.64 0 274.81 42.93 276.92 61.49 290.23 94.69 298.56 197.54 247.83"/><polygon class="cls-3" points="580.83 215.37 580.42 220.57 582.42 221 583.67 215.6 580.83 215.37"/><polygon class="cls-1" points="600.5 210.33 603 219 593 217.5 589.33 212.67 589.33 209.25 597.02 207.83 600.5 210.33"/><polygon class="cls-2" points="596.33 203 591.04 206.48 593 210.33 603 210.33 596.33 203"/><polygon class="cls-4" points="599.88 218.53 602.01 224.63 587.67 222.5 591.04 216.5 599.88 218.53"/><polygon class="cls-4" points="573 214 593 217.5 590 209.33 578.33 207.83 573 214"/><polygon class="cls-1" points="574.33 207.33 593 210.33 587.67 199.83 581.17 198.5 574.33 207.33"/><polygon class="cls-2" points="578.92 199.25 589.75 201.33 584.92 193.25 578.92 199.25"/><polygon class="cls-3" points="377.94 231.52 378.54 236.7 380.58 236.74 380.77 231.2 377.94 231.52"/><polygon class="cls-4" points="369.99 231.69 390.29 231.27 385.78 223.83 374.04 224.61 369.99 231.69"/><polygon class="cls-1" points="370.02 224.89 388.91 224.24 381.66 214.96 375.02 214.9 370.02 224.89"/><polygon class="cls-2" points="372.96 216.07 383.99 216.03 377.69 209.03 372.96 216.07"/><polygon class="cls-3" points="189.92 241.27 191.83 250.1 189.42 249.35 187.58 242.27 189.92 241.27"/><polygon class="cls-4" points="182.17 235.44 179.83 246.27 199 239.78 191.83 233.27 182.17 235.44"/><polygon class="cls-1" points="182.83 228.04 179.83 237.44 195.33 233.6 189 226.35 182.83 228.04"/><polygon class="cls-2" points="183.83 222.27 179.83 230.44 192.5 228.04 183.83 222.27"/><polygon class="cls-7" points="537.64 197.29 527.17 223.01 518.21 224.63 520.5 203 537.64 197.29"/><polygon class="cls-7" points="574.33 190.46 569.23 217.5 560.75 215.75 568.5 175 574.33 190.46"/><polygon class="cls-8" points="143.83 282.98 110.79 292.61 76.3 247.94 96.94 240.68 143.83 282.98"/><polygon class="cls-8" points="55.36 255.31 61.49 290.23 0 274.81 55.36 255.31"/><polygon class="cls-8" points="757 224.45 724.32 213.87 684 203 698.22 228.26 757 224.45"/><polygon class="cls-8" points="827.85 241.04 849.15 278.4 900 261.73 827.85 241.04"/><circle class="cls-9" cx="611.92" cy="49.71" r="17.08"/><polygon class="cls-10" points="556.12 61.2 597 70.15 623.23 64.83 651.17 67.02 678.89 60.32 646.96 46.44 619.56 53.83 586.83 49.41 556.12 61.2"/><polygon class="cls-6" points="623.23 67.83 651.5 71.02 678.89 60.32 650.83 65.5 629 60.32 597 65.5 556.12 61.2 597 73.72 623.23 67.83"/><polygon class="cls-10" points="117.61 142.29 158.5 151.25 184.73 145.93 212.67 148.12 240.39 141.42 208.46 127.54 181.06 134.93 148.33 130.51 117.61 142.29"/><polygon class="cls-6" points="184.73 148.93 213 152.12 240.39 141.42 212.33 146.6 190.5 141.42 158.5 146.6 117.61 142.29 158.5 154.81 184.73 148.93"/><polygon class="cls-10" points="480.25 150.79 501 144.12 519.75 148.72 540.88 145.42 552.96 153.08 531.24 160.03 519.85 155.55 495 159.48 480.25 150.79"/><polygon class="cls-6" points="519.85 155.55 531.24 160.03 552.96 153.08 531.24 154.5 522 152.07 498.25 154.5 480.25 150.79 495 159.48 519.85 155.55"/></g><g id="ground"><polygon class="cls-11" points="833.5 150 836.75 138.5 832.25 140.92 827.17 146.75 828.83 151.08 833.5 150"/><polygon class="cls-12" points="728.25 135.08 745.5 135.08 751.5 142.73 740.13 146.75 716.89 145.42 728.25 135.08"/><polygon class="cls-13" points="738.5 159.75 747.92 178.42 745.08 181.67 735.83 180.42 731.28 162.75 738.5 159.75"/><polygon class="cls-11" points="731.36 163.08 747.5 178.17 738.5 159.75 731.36 163.08"/><polygon class="cls-14" points="699.7 121.08 767.12 104.67 783.83 107.17 790.23 99.04 858.31 110.58 900 90.94 815.35 60.32 678.89 102.93 699.7 121.08"/><polygon class="cls-15" points="560.5 215.6 459.48 239.33 350.35 232.49 219.48 237 0 310.94 198.4 335.5 257.11 319.59 306.88 325.5 452.33 350 527.93 318.33 598.5 324.17 769.83 336.17 790.23 302.27 877.17 284.5 669.29 252 560.5 215.6"/><polygon class="cls-8" points="560.5 215.6 769.83 336.17 877.17 284.5 560.5 215.6"/><polygon class="cls-16" points="684 248.25 669.29 252 693.38 259.34 691.25 262.63 688.38 262.98 685.25 264.63 693.88 267.75 702.5 265.25 716.61 278.4 745.88 276.68 767.75 286.12 816.54 271.31 684 248.25"/><polygon class="cls-17" points="698.5 228.19 715.83 236.67 720.29 225.56 698.5 228.19"/><polygon class="cls-18" points="678.5 252.25 702.04 259.34 716.61 232.98 698.22 228.26 678.5 252.25"/><polygon class="cls-19" points="765.83 210.54 748.5 232.98 724.32 213.87 765.83 210.54"/><polygon class="cls-13" points="724.32 213.87 702.04 259.34 724.5 275.88 742.51 271.85 757 232.91 747.92 225.25 724.32 213.87"/><polygon class="cls-19" points="776.5 228.19 757 232.91 775.87 242.34 799.5 232.91 776.5 228.19"/><polygon class="cls-18" points="770.5 280.5 776.5 237.83 757 232.91 742.51 271.85 770.5 280.5"/><polygon class="cls-20" points="799.5 232.91 816.54 271.31 770.5 280.5 776.5 237.83 799.5 232.91"/><polygon class="cls-20" points="765.83 210.54 776.5 228.19 757 232.91 747.92 225.25 765.83 210.54"/><polygon class="cls-11" points="793.52 197.5 809.83 167.08 790.23 99.04 778.25 101.96 787.83 170.35 793.52 197.5"/><polygon class="cls-11" points="745.08 185.2 751.5 188.52 773.51 187.58 781.75 180.97 778.25 173.42 761.54 179.35 745.08 185.2"/><polygon class="cls-14" points="761.5 153.08 751.5 161.75 738.5 159.75 725.17 168.96 698.5 159.75 720.24 154.52 739.6 151.08 751.5 150 761.5 153.08"/><polygon class="cls-21" points="755.5 142.42 739.6 151.08 761.5 153.08 755.5 142.42"/><polygon class="cls-22" points="698.5 159.75 716.89 145.42 722.17 153.08 722.17 159.75 698.5 159.75"/><polygon class="cls-21" points="739.6 151.08 731.28 146.75 716.89 145.42 722.17 159.75 739.6 151.08"/><polygon class="cls-22" points="755.5 142.42 716.89 145.42 739.6 151.08 755.5 142.42"/><polygon class="cls-21" points="728.25 135.08 736.2 143.92 716.89 145.42 728.25 135.08"/><polygon class="cls-21" points="678.89 102.93 687.93 55.81 742.51 44.5 815.35 70.15 678.89 102.93"/><polygon class="cls-21" points="900 90.94 885.25 40.47 832.79 45.28 815.35 70.15 900 90.94"/><polygon class="cls-14" points="727.99 60.32 790.23 28.68 828.17 38.75 854.22 53.65 815.35 70.15 727.99 60.32"/><polygon class="cls-22" points="687.93 55.81 712.41 40.47 737.81 36.62 767.12 19.71 790.23 28.68 727.99 60.32 687.93 55.81"/><polygon class="cls-12" points="885.25 40.47 871.45 38.75 845.83 28.68 790.23 28.68 854.22 53.65 885.25 40.47"/><polygon class="cls-12" points="737.81 36.62 767.02 5.09 825.73 0.67 871.45 38.75 790.23 28.68 737.81 36.62"/><polygon class="cls-16" points="745.08 285.56 735.83 288.88 752.36 294.43 768.5 288.88 745.08 285.56"/><polygon class="cls-22" points="825.73 0.67 790.23 28.68 871.45 38.75 825.73 0.67"/><polygon class="cls-8" points="198.4 335.5 330.29 239.33 350.35 232.49 401.53 235.7 306.88 325.5 198.4 335.5"/><polygon class="cls-8" points="452.33 350 428.45 243.8 560.5 215.6 598.5 324.17 452.33 350"/><polygon class="cls-23" points="747.92 225.25 724.5 275.88 747.92 273.52 757 232.91 747.92 225.25"/><polygon class="cls-18" points="778.25 173.42 809.83 167.08 799.5 232.91 776.5 228.19 765.83 210.54 778.25 173.42"/><polygon class="cls-13" points="793.52 170.35 776.5 228.19 765.83 210.54 778.25 173.42 793.52 170.35"/><polygon class="cls-18" points="793.52 170.35 778.25 101.96 767.12 104.67 778.25 173.42 793.52 170.35"/><polygon class="cls-18" points="745.08 185.2 775.91 180.42 778.25 173.42 735.83 180.42 745.08 185.2"/><polygon class="cls-16" points="805 280.5 801.63 282.8 814.58 284.75 830.38 278.63 805 280.5"/><polygon class="cls-12" points="716.89 145.42 705.17 145.42 698.5 159.75 716.89 145.42"/><polygon class="cls-20" points="739 287.75 742.51 284.75 750.5 282.8 762.21 285.27 763.41 289.25 752.75 293 739 287.75"/><polygon class="cls-19" points="742.51 284.75 752.5 287.9 762.21 285.27 750.5 282.8 742.51 284.75"/><polygon class="cls-18" points="752.5 287.9 752.75 293 739 287.75 742.51 284.75 752.5 287.9"/><polygon class="cls-17" points="688.38 262.98 689.5 261.44 693.38 259.34 699.13 259.34 702.63 262.63 702.63 265.63 693.88 266.63 688.38 262.98"/><polygon class="cls-18" points="696.38 262.98 693.88 266.63 688.38 262.98 689.5 261.44 693.38 259.34 696.38 262.98"/><polygon class="cls-23" points="702.63 262.63 696.38 262.98 693.88 266.63 703.63 265.63 702.63 262.63"/><polygon class="cls-19" points="806.33 278.4 812.5 281.38 822.83 277.5 814.33 275.88 806.33 278.4"/><polygon class="cls-18" points="812.5 280.5 812.17 282.8 805 280.5 806.33 278.4 812.5 280.5"/><polygon class="cls-20" points="822.83 277.5 812.5 280.5 812.17 282.8 823.67 279.67 822.83 277.5"/><polygon class="cls-11" points="809.83 167.08 833.5 150 827.17 146.75 805.8 153.08 809.83 167.08"/><polygon class="cls-18" points="833.5 150 807.72 159.75 805.8 153.08 827.17 146.75 833.5 150"/><polygon class="cls-12" points="843.5 122.58 830.76 122.58 826.33 128.22 834.73 131.19 851.88 130.21 843.5 122.58"/><polygon class="cls-14" points="818.95 135.87 826.33 142.26 835.93 140.79 845.77 147.58 865.45 140.79 849.4 136.93 835.12 134.39 826.33 133.59 818.95 135.87"/><polygon class="cls-22" points="823.38 127.99 835.12 134.39 818.95 135.87 823.38 127.99"/><polygon class="cls-22" points="865.45 140.79 851.88 130.21 835.12 134.39 847.98 140.79 865.45 140.79"/><polygon class="cls-21" points="823.38 127.99 851.88 130.21 835.12 134.39 823.38 127.99"/><polygon class="cls-22" points="843.5 122.58 837.63 129.1 851.88 130.21 843.5 122.58"/><polygon class="cls-12" points="851.88 130.21 860.53 130.21 865.45 140.79 851.88 130.21"/><polygon class="cls-3" points="471.58 23.93 469.35 18.68 466.67 19.03 466.84 21.32 467.99 21.33 467.86 19.96 468.59 20 470.2 23.1 471.58 23.93 476.26 20.66 478.35 22.39 476.99 24.24 476 23.64 476.85 22.55 476.2 22.18 473.19 23.96 471.58 23.93"/><polygon class="cls-2" points="470.21 28.69 477.31 33.93 476.45 41.91 469.11 36.34 470.21 28.69"/><polygon class="cls-1" points="473.23 28.18 475.42 27.32 486.09 22.81 477.31 33.93 471.33 33.16 473.23 28.18"/><polygon class="cls-2" points="470.21 28.69 461.41 29.36 457.91 36.58 467.08 35.76 470.21 28.69"/><polygon class="cls-1" points="467.93 26.66 466.53 24.77 459.88 15.28 461.41 29.36 466.89 31.89 467.93 26.66"/><polygon class="cls-3" points="472.07 22.21 466.53 24.77 467.25 39.01 475.42 27.32 472.07 22.21"/><polygon class="cls-2" points="473.18 18.38 466.53 24.77 475.42 27.32 473.18 18.38"/><polygon class="cls-3" points="537.62 108.86 531.92 108.97 531.24 111.59 533.43 112.29 533.87 111.23 532.55 110.83 532.86 110.16 536.34 109.84 537.62 108.86 536.35 103.31 538.73 102.02 539.94 103.97 539.01 104.66 538.32 103.47 537.74 103.93 538.26 107.39 537.62 108.86"/><polygon class="cls-2" points="541.52 111.92 549.05 107.31 556.12 111.1 548.21 115.81 541.52 111.92"/><polygon class="cls-1" points="542.18 108.93 542.21 106.58 542.02 95 549.05 107.31 546.09 112.56 542.18 108.93"/><polygon class="cls-2" points="541.52 111.92 538.85 120.33 544.22 126.28 546.9 117.47 541.52 111.92"/><polygon class="cls-1" points="538.78 113.27 536.51 113.87 525.22 116.47 538.85 120.33 543.24 116.2 538.78 113.27"/><polygon class="cls-3" points="536.22 107.77 536.51 113.87 549.98 118.54 542.21 106.58 536.22 107.77"/><polygon class="cls-2" points="533.08 105.31 536.51 113.87 542.21 106.58 533.08 105.31"/><polygon class="cls-3" points="627.66 161.69 627.66 161.69 624.56 158.19 621.82 158.71 622.34 160.32 623.54 160.22 623.2 159.25 623.96 159.2 626.1 161.24 627.66 161.69"/><polygon class="cls-1" points="617.46 161.21 619.56 150.79 609.07 157.44 605.13 159.94 609.07 165.58 617.46 161.21"/><polygon class="cls-2" points="609.07 157.44 613.26 163.4 608.5 165.32 597 159.95 609.07 157.44"/><polygon class="cls-3" points="626.64 161.21 619.56 168.4 599.88 169.27 617.46 161.21 626.64 161.21"/><polygon class="cls-2" points="617.46 161.21 619.56 168.4 629 161.21 617.46 161.21"/></g><g id="flowers"><polygon class="cls-24" points="142 301.75 152.13 305.38 164.38 301.5 151 300.16 142 301.75"/><polygon class="cls-24" points="165.31 292.65 175.44 296.27 187.69 292.4 174.31 291.06 165.31 292.65"/><polygon class="cls-24" points="143.83 282.98 151.75 286.6 161.33 282.73 150.87 281.39 143.83 282.98"/><polygon class="cls-24" points="649.44 293.34 661.92 296.25 675.04 291.9 661 290.38 649.44 293.34"/><polygon class="cls-25" points="665.68 282.23 660.54 293.27 658.17 293.27 661.05 282.69 665.68 282.23"/><polygon class="cls-24" points="660.11 286.12 663.96 285.94 665.68 282.23 661.05 282.69 660.11 286.12"/><polygon class="cls-24" points="603.42 315 615.47 318.33 629.75 313.42 615.71 311.67 603.42 315"/><polygon class="cls-10" points="607 292.25 617 290.3 623.5 296.25 607 299.75 607 292.25"/><polygon class="cls-26" points="600.49 287 624 278.4 617 290.3 607 292.25 600.49 287"/><polygon class="cls-26" points="626.88 281.5 638.38 296.25 623.5 296.25 617 290.3 626.88 281.5"/><polygon class="cls-26" points="607 292.25 593.49 293.27 598.5 304 607 299.75 607 292.25"/><polygon class="cls-26" points="605.25 304 632.63 300.88 623.5 296.25 607 299.75 605.25 304"/><polygon class="cls-25" points="620.39 302.27 615.25 315 612.88 315 615.76 302.8 620.39 302.27"/><polygon class="cls-27" points="615.25 315 607 306.75 609.01 315 615.25 315"/><polygon class="cls-28" points="613.33 313.08 624 306.75 620.39 315 615.25 315 613.33 313.08"/><polygon class="cls-24" points="615.47 304 619.69 304 620.39 302.27 615.76 302.8 615.47 304"/><polygon class="cls-24" points="587.14 279.43 599.26 282.23 613.45 278.52 599.42 277.53 587.14 279.43"/><polygon class="cls-25" points="604.1 272.19 598.97 279.43 596.59 279.43 599.47 272.49 604.1 272.19"/><polygon class="cls-27" points="598.97 279.43 590.72 274.73 592.73 279.43 598.97 279.43"/><polygon class="cls-28" points="597.05 278.33 607.71 274.73 604.1 279.43 598.97 279.43 597.05 278.33"/><polygon class="cls-24" points="599.19 273.17 603.4 273.17 604.1 272.19 599.47 272.49 599.19 273.17"/><polygon class="cls-24" points="415.98 335.52 428.11 337.7 442.29 334.62 428.26 333.62 415.98 335.52"/><polygon class="cls-10" points="422.66 320.38 429.66 319.27 434.21 322.65 422.66 324.64 422.66 320.38"/><polygon class="cls-26" points="419.89 313.83 434.21 312.42 429.66 319.27 422.66 320.38 419.89 313.83"/><polygon class="cls-26" points="433.67 316.54 440.6 319.27 434.21 322.65 429.66 319.27 433.67 316.54"/><polygon class="cls-26" points="422.66 320.38 414.78 319.27 418.17 325.42 422.66 324.64 422.66 320.38"/><polygon class="cls-26" points="418.72 327.67 439.05 324.64 434.21 322.65 422.66 324.64 418.72 327.67"/><polygon class="cls-25" points="434.21 325.42 427.89 334.92 425.97 334.57 428.64 326.38 434.21 325.42"/><polygon class="cls-27" points="427.89 335.66 419.65 330.97 421.66 335.66 427.89 335.66"/><polygon class="cls-28" points="425.97 334.57 436.63 330.97 433.02 335.66 427.89 335.66 425.97 334.57"/><polygon class="cls-24" points="428.36 327.06 432.58 327.06 434.21 325.42 428.64 326.38 428.36 327.06"/><polygon class="cls-10" points="652.29 273.54 662.29 271.85 668.79 277.01 652.29 280.05 652.29 273.54"/><polygon class="cls-26" points="645 268.06 664.73 264.63 662.29 271.85 652.29 273.54 645 268.06"/><polygon class="cls-26" points="667.83 266.48 682.83 271.85 668.79 277.01 662.29 271.85 667.83 266.48"/><polygon class="cls-26" points="652.29 273.54 643.79 272.68 641.04 283.8 652.29 280.05 652.29 273.54"/><polygon class="cls-26" points="652.29 286.12 677.18 282.8 668.79 277.01 652.29 280.05 652.29 286.12"/><polygon class="cls-27" points="660.54 293.27 652.29 286.12 654.3 293.27 660.54 293.27"/><polygon class="cls-28" points="658.62 291.6 669.29 286.12 665.68 293.27 660.54 293.27 658.62 291.6"/><polygon class="cls-26" points="142.58 292.36 153.67 288.72 165.17 292.67 154.17 296.5 142.58 292.36"/><polygon class="cls-25" points="152.58 303.33 154.17 296.5 149.45 294.81 152.58 303.33"/><polygon class="cls-10" points="153.91 291.06 148.5 292.61 152.58 294.42 160.08 293.33 153.91 291.06"/><polygon class="cls-24" points="798.25 303.26 808.38 306.89 820.63 303.01 807.25 301.68 798.25 303.26"/><polygon class="cls-26" points="799.42 293 809.92 290.23 822.83 295.88 810.42 298.01 799.42 293"/><polygon class="cls-25" points="807.25 304.85 810.42 298.01 806.33 296.15 807.25 304.85"/><polygon class="cls-10" points="810.42 292.85 807.25 294.12 810.42 295.18 813.58 294.01 810.42 292.85"/><polygon class="cls-26" points="168.33 283.42 179.83 285.5 190.75 282.8 178.58 279.08 168.33 283.42"/><polygon class="cls-25" points="178.33 293.67 179.83 285.5 175 284.72 178.33 293.67"/><polygon class="cls-26" points="145.83 276.83 154.17 278.4 162.31 275 154.17 271.25 145.83 276.83"/><polygon class="cls-25" points="152.58 284.02 154.17 278.4 151 277.81 152.58 284.02"/><polygon class="cls-10" points="151 275.56 153.78 276.94 156.56 275.13 153.78 273.63 151 275.56"/><polygon class="cls-24" points="706.86 290.91 714.78 294.53 724.36 290.66 713.9 289.32 706.86 290.91"/><polygon class="cls-26" points="708.86 284.77 717.19 286.34 726.36 284.77 716.61 278.4 708.86 284.77"/><polygon class="cls-25" points="715.61 291.95 717.19 286.34 714.03 285.74 715.61 291.95"/><polygon class="cls-10" points="713.17 283.8 717.19 285.35 720.75 282.8 716.61 281.5 713.17 283.8"/><polygon class="cls-24" points="514.4 255.21 521.09 257.13 529.18 255.08 520.35 254.37 514.4 255.21"/><polygon class="cls-26" points="515.16 249.72 522.2 251.25 529.94 249.72 524.59 245.67 515.16 249.72"/><polygon class="cls-25" points="520.96 255.75 522.2 251.25 519.72 250.71 520.96 255.75"/><polygon class="cls-10" points="520.48 249.21 522.2 249.92 524.59 249.41 523.42 247.83 520.48 249.21"/><polygon class="cls-24" points="487.27 271.25 492.82 272.72 499.54 271.15 492.2 270.61 487.27 271.25"/><polygon class="cls-26" points="488.67 265.33 494.52 267.25 500.94 265.33 494.52 260.33 488.67 265.33"/><polygon class="cls-25" points="493.21 271.67 494.52 267.25 491.9 266.39 493.21 271.67"/><polygon class="cls-10" points="492.41 263.72 494.2 265.4 497.2 263.64 494.63 261.89 492.41 263.72"/><polygon class="cls-10" points="179.25 281.2 175.42 282.53 178.42 283.38 183.67 282.01 179.25 281.2"/><polygon class="cls-10" points="593.49 266.48 600.49 265.38 605.04 268.76 593.49 270.75 593.49 266.48"/><polygon class="cls-26" points="590.72 260.17 602.38 258.17 600.49 265.38 593.49 266.48 590.72 260.17"/><polygon class="cls-26" points="605.25 262.33 613.45 262.98 605.04 268.76 600.49 265.38 605.25 262.33"/><polygon class="cls-26" points="593.49 266.48 585.61 265.38 587.53 273.17 593.49 270.75 593.49 266.48"/><polygon class="cls-26" points="593.49 273.54 612.24 270.65 605.04 268.76 593.49 270.75 593.49 273.54"/></g><g id="boy"><polygon class="cls-29" points="404.25 105.38 420.06 116.78 428.45 104.67 429.83 88.21 418 94.66 404.25 105.38"/><g class="cls-30"><polygon class="cls-31" points="367.75 289.22 434.56 299.75 490.52 289.77 432.04 282.53 367.75 289.22"/></g><polygon class="cls-29" points="498.25 62.05 486.75 83.5 479.57 69.6 498.25 62.05"/><polygon class="cls-32" points="486.75 77.16 486.75 83.5 483.99 81.09 483.99 77.16 486.75 77.16"/><polygon class="cls-33" points="437.5 263.13 445.17 283.44 452.33 284.5 455.5 281.62 455.5 260.45 437.5 263.13"/><polygon class="cls-21" points="445.17 283.44 443.83 291.67 452.33 293.25 460.83 291.67 455.5 281.62 445.17 283.44"/><rect class="cls-22" x="443.83" y="291.67" width="17" height="3.17"/><polygon class="cls-34" points="455.5 260.45 438.96 267 437.5 263.13 445 259.67 455.5 260.45"/><polygon class="cls-33" points="404.25 258.72 406.25 278.4 409.83 281.62 415 281.62 421 262.27 404.25 258.72"/><polygon class="cls-21" points="415 281.62 415 287.14 404.25 288.72 391.25 287.14 406.25 278.4 415 281.62"/><rect class="cls-22" x="391.25" y="287.14" width="23.75" height="3.17"/><polygon class="cls-34" points="404.25 258.72 419.59 266.8 421 262.27 417.33 256.67 404.25 258.72"/><polygon class="cls-35" points="474 222.33 467.5 229.67 470.75 232.17 474 228.5 475 225.92 474 222.33"/><polygon class="cls-35" points="474 222.33 479.57 225.25 484.83 220.83 482.75 192 471.57 194.75 465.17 204.83 474 222.33"/><polygon class="cls-21" points="419.42 148.72 404.25 144.12 393.75 145.65 388.36 158.03 412.01 175.94 420.5 166 419.42 148.72"/><polygon class="cls-35" points="404.25 144.12 385.25 121.08 377.88 122.75 374.25 128.25 388.36 158.03 404.25 144.12"/><polygon class="cls-34" points="364.89 120.09 374.25 128.25 379.92 124.56 381.57 107.63 373.17 108.91 364.89 120.09"/><polygon class="cls-33" points="370.5 115.6 372.88 118.84 378.63 115.88 379.92 124.56 385.25 121.08 384.5 111.33 381.57 107.63 370.5 115.6"/><polygon class="cls-23" points="341 137.96 338 133.67 395.97 90.62 398.96 94.62 341 137.96"/><polygon class="cls-35" points="381.57 107.63 376 103.3 362.25 113.62 364.89 120.09 381.57 107.63"/><polygon class="cls-35" points="429.83 88.21 413.5 135.95 450 148.72 470.5 106.01 450 96.14 434.5 84.83 429.83 88.21"/><polygon class="cls-21" points="495 109.75 482 134.5 474.46 123.67 472.01 109.75 469.56 108.19 470.5 106.01 480.25 86.41 495 109.75"/><polygon class="cls-33" points="463 155 482 134.5 472.01 109.75 470.5 108.47 470.5 106.01 450 148.72 431.72 142.33 434 169.93 463 155"/><polygon class="cls-34" points="428.45 141.18 430.49 151.75 429.83 159 434 169.93 454.63 150.31 428.45 141.18"/><polygon class="cls-36" points="473.3 112.95 469.6 119.44 472 125.25 466.58 131.25 469.25 135.25 478.65 126.21 473.3 112.95"/><polygon class="cls-35" points="469.25 135.25 473.9 143.24 482 134.5 478.65 126.21 469.25 135.25"/><polygon class="cls-34" points="469.25 148.26 469.25 135.25 473.9 143.24 469.25 148.26"/><polygon class="cls-22" points="419.42 148.72 410.5 181.5 420.5 201.38 407.42 215.6 430.71 223.01 457.79 220.83 457.79 198.38 454 190.46 470.5 166 463 155 434 169.93 430.49 151.75 419.42 148.72"/><polygon class="cls-9" points="388.36 76.18 404.25 105.38 461.41 63.03 425.39 45.41 388.36 76.18"/><polygon class="cls-32" points="424.74 52.24 396.61 76.67 407.36 97.79 450.61 63.56 424.74 52.24"/><polygon class="cls-29" points="461.41 63.03 466.58 79.99 449.31 71.81 461.41 63.03"/><polygon class="cls-9" points="480.25 86.41 486.75 77.16 471.57 61.2 462.17 65.52 466.58 79.99 480.25 86.41"/><polygon class="cls-21" points="470.5 166 482.75 192 465.17 204.83 454 190.46 470.5 166"/><polygon class="cls-33" points="474 222.33 474 234.07 482.75 233.75 489.67 230.73 484.83 220.83 474 222.33"/><polygon class="cls-35" points="478.33 244.33 487.83 241 489.67 230.73 474 234.07 478.33 244.33"/><polygon class="cls-37" points="395.33 256.83 424.67 263.05 428.51 245.22 430.71 233 407.42 215.6 395.33 256.83"/><polygon class="cls-13" points="457.79 220.83 461.33 259.58 434.07 263.64 426.83 239.67 437.5 227.92 457.79 220.83"/><polygon class="cls-38" points="407.42 215.6 426.83 239.67 457.79 220.83 407.42 215.6"/><polygon class="cls-21" points="410.5 181.5 454 190.46 452.92 220.33 407.42 215.6 410.5 181.5"/><polygon class="cls-14" points="459.42 197.43 457.79 220.83 452.92 220.33 454 190.46 459.42 197.43"/><polygon class="cls-14" points="470.5 106.01 461.41 104.67 455.5 106.54 453.91 107.3 452.92 109.63 472 109.75 470.5 106.01"/><polygon class="cls-12" points="415.17 91.6 418.35 94.93 429.67 88.67 433.5 86.84 449.1 105.15 450.45 107.3 452.92 109.63 455.5 106.54 449.31 95.64 435.33 81.09 415.17 91.6"/><polygon class="cls-12" points="449.31 71.81 435.33 81.09 470.5 106.01 480.25 86.41 449.31 71.81"/><polygon class="cls-34" points="473.9 133.31 479.57 133.5 478.19 130.38 473.9 133.31"/><polygon class="cls-33" points="452.33 110.75 444.52 114.69 434.9 119.53 439.96 106.54 442.42 106.16 447.67 107.17 452.33 110.75"/><polygon class="cls-39" points="435.33 104.67 439.96 106.54 434.9 119.53 429.83 118 435.33 104.67"/><polygon class="cls-34" points="431.34 120.88 429.83 118 434.9 119.53 431.34 120.88"/><polygon class="cls-34" points="425.89 123.67 442.77 128.5 436.31 135.58 425.89 131.94 425.89 123.67"/><polygon class="cls-40" points="445.05 115.05 443.6 112.41 440.08 112.95 439.85 111.47 444.4 110.76 446.36 114.33 445.05 115.05"/><polygon class="cls-36" points="442.42 106.16 443 104.67 449.1 105.15 452.92 109.63 452.33 110.75 447.67 107.17 442.42 106.16"/><polygon class="cls-36" points="435.13 101.75 434.46 103.5 431.81 100.67 427.46 100.67 428.05 99.21 432.69 98.79 435.13 101.75"/><polygon class="cls-41" points="426.67 125.25 426.67 127.42 438.76 130.83 441.08 129.17 426.67 125.25"/><polygon class="cls-33" points="434.46 103.5 435.33 104.67 431.29 114.46 429.83 105.63 427.46 100.67 431.81 100.67 434.46 103.5"/><polygon class="cls-40" points="430.91 110.5 429.95 108.1 426.83 108.79 426.5 107.33 430.88 106.36 432.3 109.95 430.91 110.5"/><polygon class="cls-21" points="435.33 81.09 470.5 106.01 455.5 106.54 435.33 81.09"/><polygon class="cls-21" points="418.35 94.93 426.56 97.79 429.67 88.67 418.35 94.93"/><polygon class="cls-33" points="448.69 104.67 433.5 86.84 429.67 88.67 448.69 104.67"/></g><g id="INFP_male" data-name="INFP male"><polygon class="cls-33" points="338 70.4 328.99 80.81 322.83 79.58 319.25 74.26 325.11 60.56 333.58 63.33 338 70.4"/><g class="cls-30"><polygon class="cls-31" points="208.66 285.77 271.08 294.62 331.44 286.32 272.95 279.08 208.66 285.77"/></g><polygon class="cls-35" points="338 70.4 325.11 60.56 335.08 51.92 340.67 58.33 338 70.4"/><polygon class="cls-35" points="323.25 78.92 325.75 68.97 320.5 58.33 317.51 59.42 319.25 74.26 322.42 82.47 323.25 78.92"/><polygon class="cls-14" points="235.2 250.15 304.81 250.24 347.37 232.01 302.17 152.51 235.77 161.05 225.02 183.69 223.78 246.98 235.2 250.15"/><polygon class="cls-22" points="221.23 187.15 217.97 270.49 238.79 288.72 229.87 179.23 220.27 169.16 221.23 187.15"/><polygon class="cls-33" points="213.41 208.09 216.89 224.45 215.73 227.06 206.55 218.27 213.41 208.09"/><polygon class="cls-33" points="207.9 216.87 210.01 224.26 209.96 235.44 204.39 232.99 196.28 219.41 207.9 216.87"/><polygon class="cls-42" points="277.9 139.46 301.74 152.7 290.51 192.28 256.74 200.39 240.95 182.83 236.49 173.19 222.72 156.54 277.9 139.46"/><polygon class="cls-12" points="260.34 145.65 263.26 151.5 257.65 156.64 229.53 156.54 222.87 153.66 221.43 142.82 236.65 131.08 248.53 133.75 260.34 145.65"/><polygon class="cls-31" points="220.15 127.53 205.44 117.6 208.75 102.42 219.26 105.78 220.15 127.53"/><polygon class="cls-12" points="260.34 145.65 271.23 148.72 285.81 138.69 287.16 115.09 272.45 118.5 247.14 136.39 260.34 145.65"/><polygon class="cls-8" points="273.77 168.29 263.31 160.81 257.65 156.64 271.37 148.34 282.45 149.53 273.77 168.29"/><polygon class="cls-9" points="271.37 148.34 268.64 159.37 257.65 156.64 260.34 145.65 271.37 148.34"/><polygon class="cls-32" points="273.77 168.29 301.74 152.7 290.51 192.28 276.27 203.9 255.2 215.6 245.66 203.27 240.95 182.83 273.77 168.29"/><polygon class="cls-42" points="278.14 189.36 284.52 198.76 304.48 195.79 301.74 152.7 273.77 168.29 278.14 189.36"/><polygon class="cls-32" points="271.37 148.34 273.77 168.29 303.9 151.45 299.15 145.98 299.34 131.88 287.16 115.09 271.37 148.34"/><polygon class="cls-22" points="229.53 156.54 221.43 142.82 212.89 156.49 221.09 164.12 229.53 156.54"/><polygon class="cls-8" points="221.43 184.79 213.41 208.09 206.46 212.7 202.62 206.03 202.47 181.51 214.09 169.76 221.43 184.79"/><polygon class="cls-32" points="236.49 173.19 221.43 184.79 202.47 181.51 212.89 156.49 229.53 156.54 236.49 173.19"/><polygon class="cls-33" points="263.89 258.21 254.53 279.75 250.88 283.44 241.72 278.4 243.16 250.15 262.16 254.18 263.89 258.21"/><polygon class="cls-33" points="282.65 258.3 280.82 276.92 286 284.16 292.39 277.93 304.81 250.24 286.63 251.87 282.65 258.3"/><polygon class="cls-35" points="280.82 276.92 292.67 277.11 304.67 286.66 296.99 287.43 279.34 287.28 280.82 276.92"/><polygon class="cls-33" points="296.99 287.43 306.88 281.62 305.77 287.57 296.99 287.43"/><polygon class="cls-35" points="254.53 279.75 254.58 289.63 232.99 288.91 241.72 278.4 254.53 279.75"/><polygon class="cls-33" points="232.99 288.91 243.83 282.72 254.58 289.63 232.99 288.91"/><polygon class="cls-34" points="243.16 250.15 263.89 258.21 267.39 250.15 243.16 250.15"/><polygon class="cls-34" points="282.65 258.3 304.81 250.24 283.51 250.24 282.65 258.3"/><polygon class="cls-42" points="287.16 115.09 300.88 150.56 321.6 111.32 313.02 95.83 306.48 96.44 287.16 115.09"/><polygon class="cls-8" points="319.25 74.26 306.04 96.87 321.6 111.32 328.99 80.81 319.25 74.26"/><polygon class="cls-35" points="202.62 206.03 196.28 219.41 210.01 224.26 213.41 208.09 202.62 206.03"/><polygon class="cls-12" points="300.88 150.56 304.04 144.58 350.35 232.49 338.69 263.05 300.88 150.56"/><polygon class="cls-43" points="253.43 203.27 245.66 203.27 243.16 250.15 267.39 250.15 274.44 234.79 282.26 228.51 284.52 198.76 253.43 203.27"/><polygon class="cls-9" points="304.48 195.79 284.52 198.76 274.39 234.65 274.44 234.79 283.51 250.24 304.81 250.24 304.48 195.79"/><polygon class="cls-8" points="284.52 198.76 278.14 189.36 274.87 200.15 284.52 198.76"/><polygon class="cls-35" points="272.45 118.5 258.51 131.42 260.34 145.65 236.65 131.08 236.71 100.5 230.5 82.05 232.62 59.62 258.72 49.09 280.48 54.8 284.72 60.36 294.33 113.37 272.45 118.5"/><polygon class="cls-33" points="223.88 92.64 236.65 131.08 260.34 145.65 264.69 135.95 253.02 122.44 241.73 72.38 238.38 67.44 230.29 81.49 223.88 92.64"/><polygon class="cls-37" points="252.7 47.16 282.13 32.31 271.68 28.47 215.04 45.06 228.11 57.62 252.7 47.16"/><polygon class="cls-31" points="288.2 52.72 287.59 58.64 300.31 71.92 289.53 86.84 284.72 60.36 280.76 54.89 283.35 51.1 288.2 52.72"/><polygon class="cls-39" points="277.29 91.72 270.33 93.23 265.28 71.13 272.24 69.61 277.29 91.72"/><polygon class="cls-34" points="277.29 91.72 274.96 95.07 270.33 93.23 277.29 91.72"/><polygon class="cls-34" points="228.08 105.17 236.71 100.5 231.38 115.19 228.08 105.17"/><polygon class="cls-40" points="248.72 71.98 251.61 73.81 257.28 68.47 262.07 69.16 262.22 68.17 257.14 66.07 248.72 71.98"/><polygon class="cls-40" points="271.46 65.96 272.24 69.61 277.91 64.22 281.51 65.18 281.62 64.42 277.02 62.01 271.46 65.96"/><polygon class="cls-33" points="251.61 73.81 268.82 86.57 265.28 71.13 262.07 69.16 257.28 68.47 251.61 73.81"/><polygon class="cls-33" points="274.69 80.19 281.51 65.18 277.91 64.23 272.24 69.61 274.69 80.19"/><polygon class="cls-34" points="263.49 101.36 283.15 97.12 282.81 105.69 267.3 108.69 263.49 101.36"/><polygon class="cls-34" points="264.69 135.95 272.45 118.5 247.78 123.52 264.69 135.95"/><polygon class="cls-37" points="284.72 60.36 288.2 52.72 300.31 71.92 284.72 60.36"/><polygon class="cls-36" points="292.82 66.38 289.53 86.84 290.92 94.66 300.31 71.92 292.82 66.38"/><polygon class="cls-35" points="228.08 105.17 236.71 100.5 230.4 81.36 222.78 89.13 228.08 105.17"/><polygon class="cls-34" points="226.1 90.68 229.48 87.43 232.05 96.14 226.1 90.68"/><polygon class="cls-33" points="252.41 63.26 282.62 57.44 280.76 54.89 252.41 63.26"/><polygon class="cls-31" points="202.31 88.21 220.05 111.76 220.15 127.53 236.65 131.08 222.79 89.13 218.1 80.6 202.31 88.21"/><polygon class="cls-40" points="202.31 88.21 228.08 105.17 220.15 127.53 202.31 88.21"/><polygon class="cls-40" points="244.64 103.29 235 73.35 238.38 67.44 237.21 53.7 215.04 45.06 202.31 88.21 222.79 89.13 230.29 81.49 238.39 105.64 244.64 103.29"/><polygon class="cls-37" points="296.12 82.17 298.29 91.6 292.58 103.65 290.92 94.66 296.12 82.17"/><polygon class="cls-11" points="282.13 32.31 266.78 52.34 238.38 67.44 215.04 45.06 282.13 32.31"/><polygon class="cls-37" points="282.13 32.31 238.38 67.44 293.32 51.18 282.13 32.31"/><polygon class="cls-29" points="285.81 174.1 283.41 178.71 278.76 176.35 281.16 171.65 285.81 174.1"/><polygon class="cls-29" points="289.36 189.31 286.96 194.01 282.31 191.56 284.66 186.91 289.36 189.31"/><path class="cls-31" d="M279.58,71.5a2.83,2.83,0,1,0-.81,5.6,2.8,2.8,0,0,0,3.2-2.4,2.83,2.83,0,0,0-2.39-3.2"/><path class="cls-31" d="M260.34,75.46a2.83,2.83,0,1,0,2.4,3.2,2.83,2.83,0,0,0-2.4-3.2"/><polygon class="cls-29" points="245.66 203.27 277.9 222.27 304.48 202.69 304.48 195.79 245.66 203.27"/><polygon class="cls-39" points="265.5 102.01 282.06 98.45 281.75 100.58 266.35 103.65 265.5 102.01"/><path class="cls-10" d="M.46,59.75,46.72,15.53S118.87,2.24,118.87.86s51.35,59.71,51.35,59.71L125,125.78l-81.11,8.56Z"/><path class="cls-6" d="M43.32,120.1c.51,0,18-5.07,18-5.07l21.24,4.44L68,125.17Z"/><polygon class="cls-44" points="97.63 35.57 91.15 35.73 88.31 24.51 97.63 35.57"/><polygon class="cls-45" points="105.73 32.1 104.14 27.68 91.15 35.73 101.96 41.43 105.73 32.1"/><path class="cls-44" d="M116.13,32.61c-.56-.25-12-4.93-12-4.93L102,41.43,105.77,51l13.85-10.24Z"/><polygon class="cls-46" points="101.06 70.68 103.95 68.36 102.86 72.15 101.01 74.15 100.29 72.03 101.06 70.68"/><path class="cls-26" d="M119.62,40.73c.36-.06,8.67-.67,8.67-.67l-9.74-9-14.41-3.37,8,5.46Z"/><polygon class="cls-3" points="53.86 105.24 39.64 98.23 59 82.49 74.03 90.39 84.07 84.89 83.36 111.38 76.16 113.27 70.83 111.51 60.33 108.4 53.86 105.24"/><polygon class="cls-2" points="82.95 79.33 85.88 84.18 89.07 108.83 83.26 114.05 83.36 111.38 83.29 88.37 82.95 79.33"/><polygon class="cls-2" points="63.13 81.47 57.05 81.89 39.64 98.23 46.98 106.39 55.24 90.96 63.13 81.47"/><polygon class="cls-47" points="59.9 102.82 60.33 108.4 51.39 113.27 49.2 110.46 53.86 105.24 59.9 102.82"/><polygon class="cls-46" points="60.05 104.86 60.33 108.4 57.74 109.81 53.86 105.24 58.14 103.53 60.05 104.86"/><polygon class="cls-47" points="75.28 107.15 78.93 110.13 70.71 119.43 67.79 119.43 70.83 111.51 75.28 107.15"/><polygon class="cls-48" points="69.48 115.03 67.79 119.43 77.74 119.42 73.68 116.07 69.48 115.03"/><polygon class="cls-46" points="75.28 107.15 78.93 110.13 76.16 113.27 70.83 111.51 75.28 107.15"/><polygon class="cls-26" points="77.24 95.81 76.56 99.22 78.93 110.13 70.83 111.51 64.97 103.51 69.04 93.88 77.24 95.81"/><polygon class="cls-45" points="70.21 91.99 71.07 97.1 60.33 108.4 53.86 105.24 55.24 90.96 70.21 91.99"/><polygon class="cls-47" points="46.24 81.13 47.31 82.15 47.66 84.4 47.31 84.89 46.2 83.68 46.24 81.13"/><polygon class="cls-47" points="44.81 81.28 43.32 81.33 42.93 84.18 44.36 87.09 45.33 84.87 44.81 81.28"/><polygon class="cls-48" points="48.43 80.52 46.4 79.6 43.32 81.33 45.33 84.87 47.31 82.15 48.43 80.52"/><path class="cls-49" d="M57.3,78.27l-4.08-2.19L46.39,79.6l.92,2.55s10-.4,9.78-.25S57.3,78.27,57.3,78.27Z"/><path class="cls-27" d="M67.08,74.76c0-.36-3.67,1-3.67,1l-10.19.31,5.53,8.32,9.4-2.71Z"/><polygon class="cls-50" points="53.22 76.08 58.75 84.4 61.95 83.48 61.53 79.24 53.22 76.08"/><path class="cls-1" d="M67.08,74.76c0-.36-3.67,1-3.67,1L59,75.91h0l2.5,3.33,5,2.93,1.65-.48Z"/><polygon class="cls-49" points="92.56 76.44 94.9 73.59 101.06 70.68 101.01 74.15 93.73 80.42 92.56 76.44"/><polygon class="cls-27" points="83.03 71.91 85.96 73.64 94.9 73.59 93.73 80.42 85.88 84.18 79.05 77.82 83.03 71.91"/><polygon class="cls-50" points="93.73 80.42 85.88 84.18 83.45 81.92 84.72 79.83 93.73 80.42"/><polygon class="cls-1" points="83.28 81.76 79.05 77.82 85.96 73.64 89.47 73.62 84.72 79.83 83.28 81.76"/><polygon class="cls-27" points="65.81 74.25 63.41 75.77 58.75 84.4 55.24 90.96 71.07 97.1 85.88 84.18 83.79 76.35 65.81 74.25"/><polygon class="cls-28" points="71.07 97.1 76.56 99.22 85.88 84.18 83.79 76.35 82.46 76.19 77.28 81.89 76.52 90.76 71.07 97.1"/><polygon class="cls-49" points="77.2 86 74.62 86.94 76.52 90.76 77.94 88.9 77.2 86"/><polygon class="cls-2" points="65.26 74.6 63.41 75.77 61.53 79.24 61.53 79.24 77.94 88.9 84.72 79.83 83.79 76.35 65.93 74.26 65.26 74.6"/><polygon class="cls-26" points="74.62 86.94 77.94 88.9 79.79 86.43 78.38 83.1 74.62 86.94"/><polygon class="cls-48" points="85.96 73.64 79.01 80.73 70.15 77.88 64.16 59.53 67.86 57.12 71.48 50.74 90.21 45.53 91.99 48.13 95.64 71.61 85.96 73.64"/><polygon class="cls-47" points="64.82 61.71 70.06 78.43 78.38 83.1 80.78 76.28 77.35 75.15 72.92 52.96 71.48 50.74 67.76 56.86 64.82 61.71"/><polygon class="cls-6" points="71.48 50.74 95.86 44.18 91.15 35.73 86.59 33.93 61.43 40.65 55.36 59.51 64.82 61.71 67.76 56.86 71.48 50.74"/><polygon class="cls-51" points="93.58 44.8 98.73 53.38 94.36 63.33 91.99 48.13 90.31 45.67 93.58 44.8"/><polygon class="cls-52" points="87.75 61.6 85.06 62.11 83.33 53.6 86.02 53.09 87.75 61.6"/><polygon class="cls-46" points="87.75 61.6 86.83 62.87 85.06 62.11 87.75 61.6"/><polygon class="cls-46" points="66.86 68.4 68.78 66.68 67.88 71.74 66.86 68.4"/><polygon class="cls-53" points="76.96 53.77 78.06 54.49 80.28 52.51 82.13 52.82 82.19 52.44 80.27 51.58 76.96 53.77"/><polygon class="cls-53" points="85.75 51.68 86.02 53.09 88.23 51.06 89.61 51.48 89.67 51.16 87.92 50.23 85.75 51.68"/><polygon class="cls-47" points="78.06 54.49 84.54 59.54 83.33 53.6 82.13 52.82 80.28 52.51 78.06 54.49"/><polygon class="cls-47" points="86.85 57.17 89.61 51.48 88.23 51.06 86.02 53.09 86.85 57.17"/><polygon class="cls-46" points="81.75 64.74 89.33 63.31 89.07 67.13 83.46 68.04 81.75 64.74"/><polygon class="cls-46" points="78.38 83.1 85.96 73.64 75.01 75.57 78.38 83.1"/><polygon class="cls-54" points="91.99 48.13 93.58 44.8 98.73 53.38 91.99 48.13"/><polygon class="cls-53" points="95.5 50.86 93.82 59.87 94.36 63.33 98.73 53.38 95.5 50.86"/><polygon class="cls-48" points="66.86 68.4 70.37 65.31 67.8 56.81 64.82 61.71 66.86 68.4"/><polygon class="cls-46" points="66.16 61.32 67.62 59.17 68.66 63.05 66.16 61.32"/><polygon class="cls-47" points="77.72 49.06 91.1 46.83 90.31 45.67 77.72 49.06"/><polygon class="cls-51" points="55.36 59.51 63.41 75.77 70.06 78.43 64.82 61.71 62.4 56.34 55.36 59.51"/><polygon class="cls-53" points="55.36 59.51 66.86 68.4 63.41 75.77 55.36 59.51"/><polygon class="cls-53" points="73.86 66.63 69.92 53.3 71.48 50.74 61.43 40.65 55.36 59.51 64.82 61.71 67.76 56.87 71.07 67.58 73.86 66.63"/><polygon class="cls-51" points="63.41 75.77 56.41 72.51 58.29 65.42 63.41 75.77"/><polygon class="cls-54" points="96.77 57.85 97.42 62.45 94.95 67.13 94.36 63.33 96.77 57.85"/><polygon class="cls-54" points="91.15 35.73 61.43 40.65 86.59 33.93 91.15 35.73"/><polygon class="cls-55" points="91.15 35.73 71.48 50.74 61.43 40.65 91.15 35.73"/><polygon class="cls-54" points="91.15 35.73 71.48 50.74 95.86 44.18 91.15 35.73"/><polygon class="cls-56" points="82.69 64.91 88.88 63.8 88.59 64.83 83.33 66.02 82.69 64.91"/><polygon class="cls-26" points="77.39 92.09 76.24 92.52 76.17 94 77.56 93.34 77.39 92.09"/><polygon class="cls-26" points="75 95.11 73.68 95.84 73.95 97.41 75.35 96.39 75 95.11"/><polygon class="cls-7" points="99.42 77.28 111.73 53.01 114.07 53.92 101.39 78.02 99.42 77.28"/><polygon class="cls-57" points="100.41 75.34 101.88 72.44 104.47 72.17 102.92 75.1 100.41 75.34"/><polygon class="cls-57" points="110.8 54.83 111.73 53.01 114.07 53.92 113.92 54.21 113.36 55.27 110.8 54.83"/><polygon class="cls-45" points="105.77 50.97 121.51 57.23 128.28 40.06 112.13 33.13 105.77 50.97"/><polygon class="cls-26" points="121.51 57.08 128.28 39.91 125.33 41.19 118.2 46.59 120.18 54.18 121.51 57.08"/><polygon class="cls-26" points="112.13 33.13 105.77 50.97 108.67 49.49 117 45.31 113.46 36.29 112.13 33.13"/><polygon class="cls-27" points="113.46 36.14 108.67 49.49 120.18 54.18 125.33 41.19 113.46 36.14"/><polygon class="cls-48" points="103.29 69.66 106.07 70.48 103.53 73.95 101.01 74.15 103.29 69.66"/><polygon class="cls-3" points="142.61 51.52 142.92 47.74 141.23 47.12 140.62 48.52 141.3 48.88 141.64 48.03 142.07 48.28 142.05 50.61 142.61 51.52 146.37 51.05 147.07 52.72 145.69 53.39 145.3 52.73 146.13 52.35 145.87 51.93 143.54 52.04 142.61 51.52"/><polygon class="cls-2" points="140.32 53.9 142.87 59.19 139.89 63.62 137.3 58.06 140.32 53.9"/><polygon class="cls-1" points="142.25 54.54 143.81 54.72 151.49 55.37 142.87 59.19 139.59 56.88 142.25 54.54"/><polygon class="cls-2" points="140.32 53.9 134.93 51.56 130.63 54.72 136.28 57.09 140.32 53.9"/><polygon class="cls-1" points="139.61 52 139.37 50.45 138.41 42.8 134.93 51.56 137.37 54.75 139.61 52"/><polygon class="cls-3" points="143.43 50.67 139.37 50.45 135.37 59.05 143.81 54.72 143.43 50.67"/><polygon class="cls-2" points="145.27 48.75 139.37 50.45 143.81 54.72 145.27 48.75"/><polygon class="cls-47" points="73.36 119.43 77.74 119.42 79.31 116.72 73.36 119.43"/><path class="cls-51" d="M82.08,56.51A1.09,1.09,0,1,1,81,55.42,1.09,1.09,0,0,1,82.08,56.51Z"/><path class="cls-51" d="M89.16,54.79a1.09,1.09,0,1,1-1.09-1.09A1.09,1.09,0,0,1,89.16,54.79Z"/><polygon class="cls-44" points="64.98 103.53 55.24 90.96 76.56 99.22 64.98 103.53"/><polygon class="cls-48" points="49.2 110.46 46.31 112.63 51.39 118.38 51.39 113.27 49.2 110.46"/><polygon class="cls-47" points="49.2 115.89 55.24 117.23 51.39 118.38 49.2 115.89"/><polygon class="cls-10" points="171.17 78.47 154.83 86.13 160.83 100.3 177.5 100.95 180.83 80.11 171.17 78.47"/><polygon class="cls-10" points="182.5 107.35 183.83 95.2 194.31 94.51 194.47 106.8 182.5 107.35"/></g></svg>