<svg id="illustration" xmlns="http://www.w3.org/2000/svg" viewBox="0 0 900 350"><defs><style>.cls-1,.cls-22{fill:#c3c3c3;}.cls-2,.cls-8{fill:#dcdcdb;}.cls-3{fill:#e7ef78;}.cls-10,.cls-11,.cls-12,.cls-13,.cls-14,.cls-15,.cls-16,.cls-17,.cls-18,.cls-19,.cls-20,.cls-21,.cls-22,.cls-24,.cls-25,.cls-26,.cls-27,.cls-28,.cls-29,.cls-3,.cls-30,.cls-31,.cls-32,.cls-33,.cls-34,.cls-35,.cls-36,.cls-37,.cls-4,.cls-5,.cls-7,.cls-8,.cls-9{fill-rule:evenodd;}.cls-4{fill:#b7c645;}.cls-5{fill:#d8e254;}.cls-23,.cls-6{fill:none;stroke-miterlimit:10;}.cls-6{stroke:#e7ef78;stroke-width:2px;}.cls-7{fill:#ebebea;}.cls-9{fill:#35785d;}.cls-10{fill:#709c53;}.cls-11,.cls-38{fill:#738c57;}.cls-12{fill:#3f8e6f;}.cls-13{fill:#54af8a;}.cls-14{fill:#72c8a5;}.cls-15{fill:#98c16d;}.cls-16{fill:#9fce7e;}.cls-17{fill:#beda8d;}.cls-18{fill:#a2a2a2;}.cls-19{fill:#9ca0a1;}.cls-20{fill:#5a753d;}.cls-21{fill:#cdcdcc;}.cls-23{stroke:#c3c3c3;}.cls-24,.cls-34{opacity:0.1;}.cls-25{fill:#c2977b;}.cls-26{fill:#8a6651;}.cls-27{fill:#debca4;}.cls-28{fill:#1c7678;}.cls-29{fill:#e7c9b5;}.cls-30,.cls-34,.cls-37{fill:#2b2b2b;}.cls-31{fill:#8e8e8e;}.cls-32{fill:#848585;}.cls-33{fill:#6f7173;}.cls-35{fill:#4f5253;}.cls-36{fill:#cfaa91;}.cls-37{opacity:0.14;}</style></defs><title>diplomats_Advocate_INFJ_friendships</title><g id="sky"><polygon class="cls-1" points="449.88 92.31 427.89 92.16 414.9 71.77 438.13 78.23 449.88 92.31"/><polygon class="cls-1" points="723 53.26 692.13 57.58 710.5 64.91 792.33 59.14 723 53.26"/><polygon class="cls-2" points="692.13 57.58 710.5 45.73 767.75 44.27 792.33 59.14 723 54.26 692.13 57.58"/><polygon class="cls-1" points="554.85 94.28 538.92 85.84 487.4 79.4 449.88 92.31 502.15 98.87 554.85 94.28"/><polygon class="cls-2" points="449.88 92.31 487.4 81.4 538.92 87.84 554.85 94.28 542.9 72.68 485.41 65.01 414.9 71.77 449.88 92.31"/><polygon class="cls-1" points="60.58 36.36 89.17 47.22 172.33 37.2 105.76 23.79 60.58 36.36"/><polygon class="cls-2" points="172.33 37.2 105.76 26.79 60.58 36.36 74.84 21.29 148.72 17.39 172.33 37.2"/></g><g id="water"><polygon class="cls-3" points="460.5 306.25 500.01 312 543.5 319.42 569.8 309.56 573.5 296 620 291.5 810.6 255.89 754.41 229.33 620.61 244.5 516.99 225.96 346.32 227.61 243.04 256.33 460.5 306.25"/><polygon class="cls-4" points="481 282.48 470.39 307.69 460.5 306.25 455.5 300 460.5 294 481 282.48"/><polygon class="cls-4" points="511 294.02 527.5 327.31 543.5 319.42 569.8 309.56 573.5 296 511 294.02"/><polygon class="cls-5" points="393.5 232.36 483.5 262.94 486.25 268.5 573.5 296 582.2 278.25 627.5 266 639.83 257.11 718.83 248.04 754.41 229.33 614.67 231.08 497.01 215.73 398.51 224.83 393.5 232.36"/><line class="cls-6" x1="477.88" y1="249.71" x2="536.15" y2="249.71"/><line class="cls-6" x1="519.2" y1="255.36" x2="550.83" y2="255.36"/><line class="cls-6" x1="548.95" y1="244.5" x2="580.59" y2="244.5"/></g><g id="land_copy" data-name="land copy"><polygon class="cls-7" points="455.95 145.2 490.75 135.93 519.01 145.2 497.01 158.1 455.95 145.2"/><polygon class="cls-8" points="158.45 182.36 376.96 170.5 559.63 185.33 519.01 202.19 279.11 206.09 180.67 200.5 158.45 182.36"/><polygon class="cls-7" points="376.96 172.5 559.63 185.33 486.76 164.17 426 159 259.67 164.47 158.45 182.36 376.96 172.5"/><polygon class="cls-8" points="497.01 155.1 438.13 140.9 285.19 161.41 426 162 486.76 164.17 497.01 155.1"/></g><g id="coast_copy" data-name="coast copy"><polygon class="cls-9" points="136.67 105.75 164.67 106.75 180.67 93.7 148.72 101 136.67 105.75"/><polygon class="cls-10" points="165 112.48 172.02 106.75 173.69 106.11 175.36 107.12 167.76 115.89 166 114.93 165 112.48"/><polygon class="cls-11" points="172.02 106.75 172.02 97.25 175.36 95.99 175.36 107.12 172.02 106.75"/><polygon class="cls-11" points="169.13 127.53 164.5 114.44 157.5 101 155 102.13 160.75 129.25 169.13 127.53"/><polygon class="cls-10" points="157.5 101 164.38 101.5 165 112.48 163.63 113.23 162.06 111.41 157.5 101"/><polygon class="cls-10" points="175.36 125.27 165 112.48 162.06 111.41 169.13 127.53 175.36 125.27"/><polygon class="cls-12" points="136.67 105.75 164.38 101.5 183.29 95.33 189.24 84.47 159.73 92.12 127.67 103.83 136.67 105.75"/><polygon class="cls-13" points="127.67 103.83 127.67 97.83 129.75 94.17 165 90.75 183.29 77.94 189.24 84.47 127.67 103.83"/><polygon class="cls-12" points="127.67 103.83 105.83 93.7 129.75 94.17 127.67 103.83"/><polygon class="cls-14" points="129.75 94.17 147.67 81.3 165 91.76 129.75 94.17"/><polygon class="cls-12" points="165 91.76 147.67 83.44 158.45 76.42 183.29 77.94 165 91.76"/><polygon class="cls-13" points="105.83 93.7 122 85.37 136.67 83.12 147.67 83.44 129.75 94.17 105.83 93.7"/><polygon class="cls-13" points="183.29 77.94 168.71 71.09 163 73.72 158.45 77.94 183.29 77.94"/><polygon class="cls-14" points="122 85.37 144.5 76.75 168.71 71.09 158.45 77.94 147.67 83.44 122 85.37"/><polygon class="cls-13" points="122 85.37 129.75 75.84 143.33 71.09 165 67.5 168.71 71.09 122 85.37"/><polygon class="cls-14" points="129.75 75.84 136.67 68 165 67.5 129.75 75.84"/><polygon class="cls-9" points="660 110.34 669.5 115.72 681.83 118.17 691.13 119.67 705.83 122.33 689 111.83 669.5 108 660 110.34"/><polygon class="cls-11" points="676.75 146.78 686.67 130.16 684.17 129.24 681.71 130.16 672.98 140.03 669.5 147.67 676.75 146.78"/><polygon class="cls-10" points="669.5 147.67 664.24 146.32 678.73 129.24 679 127.58 680.67 126.96 681.71 127.83 681.71 130.16 669.5 147.67"/><polygon class="cls-15" points="681.71 130.16 685 121 686.67 114.5 682.67 111.83 680.67 126.96 681.71 130.16"/><polygon class="cls-10" points="681.71 130.16 686.67 114.5 692.83 115.67 686.67 130.16 681.71 130.16"/><polygon class="cls-10" points="680.67 126.96 674.17 118.17 672.33 118.17 671.17 119.67 678.73 129.24 680.67 126.96"/><polygon class="cls-11" points="674.17 118.17 671.17 109 666.67 109 671.17 119.67 674.17 118.17"/><polygon class="cls-12" points="651.5 109.67 679 111.83 705.83 122.33 718.83 116 672.98 103.7 643.62 105.5 651.5 109.67"/><polygon class="cls-13" points="671.17 104.83 680.67 96.77 708.33 106.83 718.83 116 671.17 104.83"/><polygon class="cls-14" points="681.78 98.17 668.31 98.17 654.83 99.88 643.62 105.5 671.17 104.83 681.78 98.17"/><polygon class="cls-12" points="708.33 106.83 704.17 96.26 675.92 92.21 681.78 98.17 708.33 106.83"/><polygon class="cls-13" points="678.08 93.54 674.83 91.62 666.67 90.8 654.83 99.88 681.78 98.17 678.08 93.54"/><polygon class="cls-14" points="666.67 90.8 674.17 89.81 681.23 88.17 686.67 88.17 691 91.62 692.83 95.08 678.08 93.54 666.67 90.8"/><polygon class="cls-13" points="686.67 88.17 698.17 91.62 704.17 96.26 692.83 95.08 689.86 91.75 686.67 88.17"/><polygon class="cls-13" points="686.67 88.17 680.67 84.67 674.17 89.81 686.67 88.17"/><polygon class="cls-11" points="567.13 82.38 564.56 69.75 558.19 71.58 566.03 89.06 568.22 86.59 567.13 82.38"/><polygon class="cls-11" points="602.27 89.06 609.23 70.48 617.47 70.48 609.23 90.8 603.74 90.8 602.27 89.06"/><polygon class="cls-10" points="576.83 93.54 567.13 82.38 566.03 89.06 573.53 99.88 576.83 97.2 576.83 93.54"/><polygon class="cls-10" points="584.79 96.26 602.27 89.06 609.23 90.8 585.72 102.34 584.02 99.88 584.79 96.26"/><polygon class="cls-15" points="556.7 132.24 576.83 93.54 581.95 89.06 586.9 90.8 584.79 96.26 582.69 106.17 566.03 130.16 556.7 132.24"/><polygon class="cls-10" points="566.03 130.16 582.69 128.19 584.79 116.89 581.95 103.61 566.03 130.16"/><polygon class="cls-10" points="576.83 93.54 583.78 66.27 586.9 70.48 586.9 90.8 576.83 93.54"/><polygon class="cls-11" points="584.79 96.26 589.83 129.24 582 126.96 581.95 103.61 584.79 96.26"/><polygon class="cls-11" points="586.9 90.8 583.78 66.27 592.75 65.53 586.9 90.8"/><polygon class="cls-9" points="499.76 74.07 546.16 78.17 583.78 66.27 629.92 79.4 653.12 70.35 579.39 51.5 499.76 74.07"/><polygon class="cls-12" points="499.76 74.07 518.84 61.39 538.19 47.22 579.67 54.26 499.76 74.07"/><polygon class="cls-12" points="653.12 70.35 664.24 57.07 618.93 52.83 579.67 54.26 653.12 70.35"/><polygon class="cls-13" points="537.93 48.71 571.43 37.2 579.67 54.26 537.93 48.71"/><polygon class="cls-13" points="518.84 61.39 522.83 47.22 539.71 38.53 542.6 43.48 537.93 48.71 518.84 61.39"/><polygon class="cls-13" points="579.67 54.26 606.3 38.53 645.15 51.5 664.24 57.07 579.67 54.26"/><polygon class="cls-9" points="579.67 54.26 569.28 40.18 598.34 27.69 606.3 40.18 579.67 54.26"/><polygon class="cls-12" points="539.71 38.53 579.39 21.55 598.34 30.3 569.28 40.18 537.93 48.71 539.71 38.53"/><polygon class="cls-12" points="598.34 30.3 613.44 27.69 630.19 32.77 645.15 51.5 606.3 40.18 598.34 30.3"/><polygon class="cls-14" points="539.71 38.53 554.68 21.78 566.03 20.19 579.67 16.84 589.83 16.84 579.67 24.53 539.71 38.53"/><polygon class="cls-13" points="589.83 16.84 598.34 16.84 608.01 21.55 619.48 24.53 630.19 32.77 598.34 30.3 579.67 24.53 589.83 16.84"/><polygon class="cls-12" points="608.01 21.55 592.75 9.43 589.83 13.35 589.83 16.84 608.01 21.55"/><polygon class="cls-13" points="592.75 9.43 575.41 12.17 566.03 20.19 589.83 16.84 592.75 9.43"/><polygon class="cls-16" points="786 222.96 620.61 238.84 519.5 217.67 535 207 551.99 200.5 598 206.67 710.5 200.5 786 222.96"/><polygon class="cls-10" points="620.61 235.84 618.83 238.84 620.61 244.5 792.33 231.59 786 222.96 620.61 235.84"/><polygon class="cls-10" points="620.61 244.5 516.99 231.08 516.99 224.83 519.5 217.67 620.61 235.84 620.61 244.5"/><polygon class="cls-17" points="551.99 200.5 490.25 192.5 427.01 189.53 405 200.5 375.98 220.33 519.5 217.67 551.99 200.5"/><polygon class="cls-10" points="519.5 217.67 516.99 231.08 407.38 232.5 380.27 233.73 382.98 218.33 519.5 217.67"/><polygon class="cls-16" points="427.01 189.53 292.05 195.85 382.98 218.33 427.01 189.53"/><polygon class="cls-10" points="752.5 191.2 725.75 170.96 646.13 180 603.5 189.53 598 209.67 710.5 200.5 755.5 195.85 752.5 191.2"/><polygon class="cls-10" points="603.5 189.53 581 185.33 559.63 185.33 551.99 200.5 598 209.67 603.5 189.53"/><polygon class="cls-15" points="559.63 185.33 524.5 172 486.25 164.07 427.01 189.53 551.99 200.5 559.63 185.33"/><polygon class="cls-15" points="725.75 170.96 717.44 157.75 628.5 159.25 551.99 164.84 559.63 185.33 603.5 189.53 725.75 170.96"/><polygon class="cls-16" points="551.99 164.84 529.75 157.75 497.01 155.1 486.25 164.07 559.63 185.33 558.34 173.64 551.99 164.84"/><polygon class="cls-17" points="497.01 155.1 551.99 164.84 622.39 161.82 571.25 151.02 519.01 145.2 497.01 155.1"/><polygon class="cls-10" points="551.99 164.84 603.5 189.53 559.63 185.33 551.99 164.84"/><polygon class="cls-16" points="717.44 157.75 686.5 151.02 646.13 146.78 600.25 146.78 569.8 152.5 620.61 161.9 717.44 157.75"/><polygon class="cls-10" points="646.13 146.78 611.83 135.93 554.75 138.73 569.8 152.5 646.13 146.78"/><polygon class="cls-15" points="558.34 140.03 548.5 137.62 527.5 140.03 519.01 145.2 569.8 152.5 558.34 140.03"/><polygon class="cls-16" points="611.83 135.93 582 126.96 566 134 558.34 140.03 611.83 135.93"/><polygon class="cls-17" points="582 126.96 544.4 132.65 527.5 140.03 558.34 140.03 582 126.96"/><polygon class="cls-10" points="646.13 146.78 707.58 145.2 717.44 157.75 646.13 146.78"/><polygon class="cls-18" points="194.79 142.72 152.4 137.62 110 139.16 119.23 216.04 191.33 209.6 194.79 142.72"/><polygon class="cls-17" points="149.5 140.81 161.33 132 187.45 124.36 192.62 134.2 177.33 142.72 149.5 140.81"/><polygon class="cls-16" points="187.45 124.36 135 128.31 110 139.16 149.5 140.81 187.45 124.36"/><polygon class="cls-19" points="149.5 140.81 147.38 172 133.33 161 129.75 140.16 149.5 140.81"/></g><g id="infj"><polygon class="cls-10" points="451.5 105.48 460.5 102.75 426 162 376.96 172.5 336.52 144.25 338.79 139.75 397.51 134.2 451.5 105.48"/><polygon class="cls-20" points="376.96 172.5 379.77 168.04 373.39 99.99 336.52 144.25 376.96 172.5"/><polygon class="cls-21" points="341.15 134 371.65 86.5 409.75 113.27 380.77 161 341.15 134"/><polygon class="cls-7" points="409.75 113.27 450 101.5 419 152 380.77 161 409.75 113.27"/><polygon class="cls-22" points="450 101.5 452.5 108.48 422.75 157.75 419 152 450 101.5"/><line class="cls-23" x1="411" y1="120.25" x2="436.63" y2="112.88"/><line class="cls-23" x1="406.38" y1="126.13" x2="432" y2="118.75"/><line class="cls-23" x1="403" y1="132" x2="428.63" y2="124.63"/><polygon class="cls-18" points="419 152 380.77 161 341.15 134 337.79 139.75 379.77 168.04 422.75 157.75 419 152"/><polygon class="cls-19" points="380.77 161 379.77 168.04 338.46 140.41 341.15 134 380.77 161"/><polygon class="cls-12" points="364.38 111.27 380.27 115.83 390.89 133.31 378.4 129.81 368.38 120.17 364.38 111.27"/><polygon class="cls-13" points="364.38 111.27 381.77 118.91 390.89 133.31 392.83 126.09 380.27 115.83 370.48 109.83 364.38 111.27"/><polygon class="cls-12" points="380.27 115.83 392.83 126.09 390.89 116.5 380.27 115.83"/><polygon class="cls-14" points="370.48 109.83 380.27 115.83 390.89 116.5 381.77 111.27 370.48 109.83"/><polygon class="cls-13" points="370.48 109.83 381.77 107.48 381.77 111.27 370.48 109.83"/><polygon class="cls-12" points="381.77 111.27 390.89 116.5 381.77 107.48 381.77 111.27"/><polygon class="cls-14" points="381.77 107.48 392.83 113.17 390.89 116.5 381.77 107.48"/><polygon class="cls-19" points="368.38 120.17 367.13 124.36 370.08 125.89 371.15 122.83 368.38 120.17"/><polygon class="cls-24" points="386.55 121.24 378.71 131.61 375.85 136.25 379.96 138.73 380.25 144.75 371.89 154.95 368.38 141.69 376.13 124.36 386.55 121.24"/><polygon class="cls-25" points="373.41 121.97 386.55 117.41 386.55 121.24 377.75 126.09 374.5 124.36 373.41 121.97"/><polygon class="cls-26" points="379.96 138.73 370.48 146.72 367.13 138.73 379.96 138.73"/><polygon class="cls-27" points="367.13 124.36 373.41 121.97 377.75 126.09 379.96 138.73 369.67 141.25 366.82 133.31 367.13 124.36"/><polygon class="cls-11" points="341.15 155.13 322.83 183 310 195.33 280.71 185.33 287.55 165.67 320.75 155.13 341.15 155.13"/><polygon class="cls-10" points="310 195.33 341.15 155.13 338.33 184.5 332.98 204 310 195.33"/><polygon class="cls-27" points="376.83 207 382.98 218.33 363.85 210.23 370.16 207.83 376.83 207"/><polygon class="cls-15" points="363.85 210.23 382.98 218.33 386.35 225.67 355.37 212.33 359.67 209.67 363.85 210.23"/><polygon class="cls-10" points="326.67 173.82 332.98 204 355.37 212.33 370.86 204 360.26 154.99 326.67 173.82"/><polygon class="cls-9" points="306.7 113.27 305.74 135 292.05 153.35 286.9 135.4 286.9 125.67 306.7 113.27"/><polygon class="cls-20" points="306.7 113.27 316 135.57 320.75 155.13 280.71 185.33 306.7 113.27"/><polygon class="cls-26" points="349.32 103.39 337.1 121.33 332.98 109.89 333.99 101.5 342.81 100.02 349.32 103.39"/><polygon class="cls-27" points="386.35 61.9 376.5 106.75 333.99 101.5 330.76 72.46 347.2 51.33 365.71 54.86 386.35 61.9"/><polygon class="cls-27" points="360.37 44.27 364.37 41.05 372.65 40.52 378.42 44.13 381.16 50.63 370.06 48.58 360.37 44.27"/><polygon class="cls-25" points="364.35 61.47 365.48 65.15 360.87 83.12 358.1 66.79 352.19 63.6 364.35 61.47"/><polygon class="cls-25" points="370.48 66.46 380.25 64.91 368.38 76.75 370.48 66.46"/><polygon class="cls-25" points="347.2 51.33 333.99 101.5 329.72 85.03 330.76 72.46 337.62 60.05 347.2 51.33"/><polygon class="cls-15" points="313.86 30.04 339.59 36.11 359.92 44.13 370.63 47.41 380.94 50.56 384.83 51.07 388.32 52.82 386.35 61.9 347.2 51.33 336.79 50.75 326.83 45.83 317.17 45.65 308.05 40.76 313.86 30.04"/><polygon class="cls-20" points="367.13 51.52 372.98 48.13 376.41 54.1 370.35 57.58 367.13 51.52"/><polygon class="cls-13" points="313.86 30.04 326.47 8.32 373.26 29.73 375.12 35.98 372.65 40.52 360.37 44.27 313.86 30.04"/><polygon class="cls-12" points="373.26 29.73 390.89 37.96 388.32 52.82 381.16 50.63 372.65 40.52 373.26 29.73"/><polygon class="cls-28" points="352.19 63.6 357.66 60.22 364.35 61.47 352.19 63.6"/><polygon class="cls-28" points="370.48 66.46 375.02 63.72 380.25 64.91 370.48 66.46"/><polygon class="cls-29" points="370.48 66.46 365.48 65.15 360.87 83.12 366.82 84.34 370.48 66.46"/><polygon class="cls-26" points="360.87 83.12 362.92 87.45 366.82 84.34 360.87 83.12"/><polygon class="cls-15" points="355.37 93.7 360.04 98.63 365.65 96.03 355.37 93.7"/><polygon class="cls-20" points="348.86 87.48 355.37 93.7 365.65 96.03 370.8 93.1 366.02 93.54 362.09 90.5 354.38 90.81 348.86 87.48"/><polygon class="cls-12" points="347.2 51.33 330.76 72.46 325.84 58.19 326.83 45.83 347.2 51.33"/><polygon class="cls-13" points="326.83 45.83 308.05 40.76 290.15 70.47 283.56 77.9 281.71 84.47 304.76 81.42 330.76 72.46 326.83 45.83"/><polygon class="cls-12" points="330.76 72.46 333.12 93.62 319.28 107.51 306.7 113.27 287.55 127.53 281.96 105.82 281.71 84.47 330.76 72.46"/><polygon class="cls-13" points="281.71 84.47 269.46 85.5 249.1 92.12 264.19 109.37 263.79 117.41 287.55 127.53 281.71 84.47"/><polygon class="cls-13" points="333.12 93.62 333.99 101.5 337.1 121.33 319 117.67 306.7 113.27 333.12 93.62"/><polygon class="cls-12" points="292.05 153.35 273.8 130.26 263.79 117.41 287.55 127.53 292.05 153.35"/><polygon class="cls-14" points="249.1 92.12 290.15 70.47 281.71 84.47 249.1 92.12"/><polygon class="cls-15" points="306.7 113.27 337.1 121.33 341.15 134 333.12 144 320.75 155.13 306.7 113.27"/><polygon class="cls-10" points="341.15 134 367.13 124.36 371.89 154.95 320.75 155.13 341.15 134"/><polygon class="cls-20" points="320.75 155.13 326.67 173.82 360.26 154.99 320.75 155.13"/><polygon class="cls-10" points="360.26 154.99 355.37 212.33 376.83 207 360.26 154.99"/><path class="cls-30" d="M361.36,70a2.72,2.72,0,1,1-1.85-3.36A2.72,2.72,0,0,1,361.36,70Z"/><path class="cls-30" d="M377,73.28a2.72,2.72,0,1,1-1.85-3.36A2.72,2.72,0,0,1,377,73.28Z"/></g><g id="rocks_copy" data-name="rocks copy"><polygon class="cls-8" points="772.5 211.69 824.33 205.5 852 216 786 225.96 772.5 211.69"/><polygon class="cls-31" points="852 216 873.5 251.5 790 257.33 786 222.96 852 216"/><polygon class="cls-8" points="858.03 225.96 888.5 235.33 852.5 238.75 858.03 225.96"/><polygon class="cls-18" points="852.5 238.75 855.5 252.76 900 255.36 888.5 235.33 852.5 238.75"/><polygon class="cls-8" points="801.5 242.17 808.41 238.75 852.5 238.75 832 257.33 810.6 255.89 801.5 242.17"/><polygon class="cls-18" points="832 257.33 832 282.5 805.5 276.75 810.6 255.89 832 257.33"/><polygon class="cls-32" points="852.5 238.75 859 252.51 832 282.5 832 257.33 852.5 238.75"/><polygon class="cls-8" points="676.5 222 715.75 213.17 715.75 231.08 676.5 222"/><polygon class="cls-18" points="652.25 270.5 676.5 222 715.75 228.08 690.5 276.75 652.25 270.5"/><polygon class="cls-8" points="674 265.5 630.5 268.13 659.66 286.13 674 265.5"/><polygon class="cls-18" points="630.5 268.13 620 291.5 639 308.75 655.01 296 659.66 282.5 630.5 268.13"/><polygon class="cls-8" points="89.67 198.53 58.67 207 95.67 220.59 109 204.43 89.67 198.53"/><polygon class="cls-18" points="58.67 207 55.25 225.67 94 235.33 95.67 217.21 58.67 207"/><polygon class="cls-8" points="133.67 161 102.33 175.23 120.67 180.26 155.76 166.37 133.67 161"/><polygon class="cls-32" points="155.76 166.37 161.33 191.35 119.23 216.04 115.75 194.03 120.67 178.26 155.76 166.37"/><polygon class="cls-18" points="102.33 175.23 85.75 227.61 118.84 228.08 119.23 216.04 120.67 178.26 102.33 175.23"/><polygon class="cls-8" points="110 238.5 94.27 238.84 71.5 240.75 53.04 239.11 37.5 242.75 13.25 240.75 55.25 225.67 124 222 110 238.5"/><polygon class="cls-18" points="53.04 236.11 71.5 238.75 82.13 240.75 94.27 235.84 110 238.5 82.83 273.75 70 273.75 44.5 260.75 46.82 248.27 53.04 236.11"/><polygon class="cls-32" points="71.5 238.75 70 273.75 92.5 273.75 94.27 235.84 71.5 238.75"/><polygon class="cls-32" points="53.04 236.11 44.5 260.75 31 261.5 32.2 251.29 37.5 240.75 53.04 236.11"/><polygon class="cls-18" points="37.5 240.75 13.25 240.75 0 254.79 31 261.5 37.5 240.75"/><polygon class="cls-8" points="84.09 266.41 50.33 272 67.21 283.5 81 282.5 92.5 273.75 84.09 266.41"/><polygon class="cls-18" points="50.33 272 44.5 295 66.33 302.33 69.81 287.01 67.21 282.5 50.33 272"/><polygon class="cls-32" points="67.21 282.5 81 282.5 92.5 300 66.33 302.33 67.21 282.5"/><polygon class="cls-8" points="419.19 209.67 436.63 204 452.5 208.5 440 218.33 419.19 209.67"/><polygon class="cls-31" points="455.5 300 451 246.71 440 213.76 419.19 209.67 407.38 232.5 398.51 275.5 455.5 300"/><polygon class="cls-32" points="440 213.76 452.5 208.5 481 282.5 455.5 300 440 213.76"/><polygon class="cls-8" points="110 238.5 86.95 251.5 144.5 282.5 170 279.5 197.38 275.38 249.1 275.5 373.39 300 440 263 415.81 256.33 301.75 235.33 141 225.88 110 238.5"/><polygon class="cls-8" points="373.55 257.33 407.38 232.5 279.11 182.36 240.57 201.67 373.55 257.33"/><polygon class="cls-8" points="170 178.26 129 192.25 149.09 204.43 203.54 191.23 170 178.26"/><polygon class="cls-32" points="149.5 198.53 144.5 218.33 146.5 242.17 190.5 235.33 203.54 191.23 149.5 198.53"/><polygon class="cls-18" points="149.5 198.53 129 192.25 110 238.5 146.5 242.17 149.5 198.53"/><polygon class="cls-33" points="214.75 239.63 241.63 247 243.16 218.33 203.54 191.23 214.75 239.63"/><polygon class="cls-32" points="241.63 247 267.13 241.75 258.04 207 240.92 220.04 241.63 247"/><polygon class="cls-32" points="268.33 246.33 258.04 207 373.55 256.33 375.45 262.17 373.89 270.5 268.33 246.33"/><polygon class="cls-18" points="373.55 256.33 407.38 232.5 415.81 256.33 373.89 270.5 373.55 256.33"/><polygon class="cls-18" points="86.95 251.5 81 282.5 110 295.5 137.5 302 144.5 294 144.5 279.5 86.95 251.5"/><polygon class="cls-32" points="144.5 279.5 170 279.5 174.02 294 170 305 153.75 309.5 137.5 302 141.15 290.27 144.5 279.5"/><polygon class="cls-33" points="137.5 302 135 316 137.5 330 170 324.5 172.33 312.5 170 305 137.5 302"/><polygon class="cls-31" points="137.5 302 137.5 316.67 137.5 330 87.5 309.5 81 282.5 137.5 302"/><polygon class="cls-32" points="249.1 275.5 372.65 295.5 376.13 302 375.45 312.5 310 312.5 243.04 302 242.15 289.33 249.1 275.5"/><polygon class="cls-18" points="375.45 312.5 378.61 318.67 378.61 328 323.93 332.5 276.5 326 222.33 330 231.32 312.5 243.04 302 375.45 312.5"/><polygon class="cls-18" points="440 263 443.5 285 411 302 375.45 312.5 372.65 295.5 440 263"/><polygon class="cls-21" points="443.5 285 460.5 306.25 378.61 328 376.85 319.36 375.45 312.5 443.5 285"/><polygon class="cls-7" points="170 279.5 220.83 262.17 249.1 275.5 215.46 296 170 279.5"/><polygon class="cls-18" points="170 279.5 215.46 294 219.33 306.25 222.33 330 170 324.5 170 279.5"/><polygon class="cls-31" points="249.1 275.5 215.46 294 222.33 330 243.04 302 249.1 275.5"/><polygon class="cls-8" points="276.5 304.65 300.47 298 320.75 308.16 295.88 318 276.5 304.65"/><polygon class="cls-18" points="276.5 304.65 273.79 332.5 296.97 342.67 298.8 326.67 295.88 316 276.5 304.65"/><polygon class="cls-31" points="320.75 308.16 323.93 332.5 296.97 342.67 295.88 316 320.75 308.16"/><polygon class="cls-8" points="694 242.17 674 254.25 684.5 272.5 747.81 287.75 807.5 231.59 786 222.96 721.5 222.96 694 242.17"/><polygon class="cls-18" points="674 254.25 659.66 282.5 663.5 298 674 306.5 752.5 318 755.5 298 747 282.5 686.5 270.5 674 254.25"/><polygon class="cls-32" points="807.5 231.59 814 282.5 752.5 318 747 282.5 807.5 231.59"/><polygon class="cls-8" points="710.5 200.5 752.5 191.2 778.5 195.85 752.5 213.17 710.5 200.5"/><polygon class="cls-18" points="710.5 200.5 694 242.17 755.5 249.17 757.5 225.67 752.5 211.17 710.5 200.5"/><polygon class="cls-31" points="778.5 195.85 786 222.96 755.5 249.17 752.5 211.17 778.5 195.85"/><polygon class="cls-31" points="659.66 282.5 639 308.75 665.5 306.25 674 306.5 659.66 282.5"/><polygon class="cls-7" points="703 254.84 671.99 279.5 703 293.67 725.75 257.33 703 254.84"/><polygon class="cls-18" points="671.99 279.5 656 323.66 701.5 330 707.58 304.65 703 287.75 671.99 279.5"/><polygon class="cls-8" points="812.79 273.06 760 295.63 778.5 315.5 851 282.5 812.79 273.06"/><polygon class="cls-18" points="760 295.63 752.5 318 773.5 335 783 318 778.5 312.5 760 295.63"/><polygon class="cls-31" points="851 282.5 859 306.5 773.5 335 778.5 312.5 851 282.5"/><polygon class="cls-8" points="526.5 268.5 550 260.63 565.01 270.5 545.76 278.81 526.5 268.5"/><polygon class="cls-18" points="526.5 268.5 511 294 545.76 308 548.5 289.25 545.76 275.81 526.5 268.5"/><polygon class="cls-31" points="565.01 270.5 573.5 296 545.76 308 545.76 275.81 565.01 270.5"/><polygon class="cls-8" points="500.01 312 516.99 306.5 536 312 518.01 319.66 500.01 312"/><polygon class="cls-18" points="500.01 312 492 320 516.99 332.5 519.5 324 518.01 317.66 500.01 312"/><polygon class="cls-31" points="536 312 543.5 319.42 516.99 332.5 518.01 317.66 536 312"/><polygon class="cls-32" points="725.75 257.33 730 271.29 721.61 277.46 714.96 312.5 701.5 330 703 287.75 725.75 257.33"/></g><g id="flowers"><polygon class="cls-34" points="429.75 334.75 438.13 331.25 446.5 336 435.84 338.25 429.75 334.75"/><polygon class="cls-34" points="447.89 319.66 460.69 316.89 469.83 319.66 458.53 323.66 447.89 319.66"/><polygon class="cls-34" points="475.5 308.43 484.17 307.71 495.9 311.4 483 313 475.5 308.43"/><polygon class="cls-34" points="581.99 306.5 593.3 303.63 609.5 307.69 589 312 581.99 306.5"/><polygon class="cls-34" points="605.43 300 611.66 298.26 617.75 300.83 609.08 302.81 605.43 300"/><polygon class="cls-34" points="619.88 289.06 614.37 292.05 622.39 293.67 619.88 289.06"/><polygon class="cls-34" points="634.5 323.51 645.32 326.38 631.17 328 625.75 325.44 634.5 323.51"/><polygon class="cls-15" points="589 308 593 275 598 275 592.5 308.5 589 308"/><polygon class="cls-12" points="581 268.13 596.36 285 606.67 265.5 593.5 263 581 268.13"/><polygon class="cls-14" points="581 268.13 589 251.5 606.67 265.5 581 268.13"/><polygon class="cls-15" points="611.5 300.83 612.17 290.33 609.5 290.33 609.5 300.83 611.5 300.83"/><polygon class="cls-12" points="603.5 287.75 611.96 293.67 614.67 283.83 609.08 285 603.5 287.75"/><polygon class="cls-14" points="603.5 287.75 606 276.75 614.67 283.83 603.5 287.75"/><polygon class="cls-15" points="620 291.5 618.83 268.13 622 267.33 622.39 293.67 620 291.5"/><polygon class="cls-12" points="628.5 265.5 619.22 275.81 610.83 263 620.61 263 628.5 265.5"/><polygon class="cls-14" points="610.83 263 622.39 250.17 628.5 265.5 610.83 263"/><polygon class="cls-15" points="631.17 325.44 633.67 315.1 637.83 315.81 633.67 325.44 631.17 325.44"/><polygon class="cls-12" points="628.5 309.56 635.9 320.27 645.13 312.56 637.83 310.19 628.5 309.56"/><polygon class="cls-14" points="628.5 309.56 639.61 302.81 645.13 312.56 628.5 309.56"/><polygon class="cls-15" points="438.13 334.75 435.84 318 432.5 318 435.88 334.75 438.13 334.75"/><polygon class="cls-12" points="424 315.94 433.64 323.66 441.11 311.4 432.5 311.4 424 315.94"/><polygon class="cls-14" points="424 315.94 430.25 300 441.11 311.4 424 315.94"/><polygon class="cls-15" points="458.75 320.25 456.31 300.42 460.5 306.25 460.75 320.25 458.75 320.25"/><polygon class="cls-12" points="460.5 306.25 446.9 289.25 457.36 286.34 465.72 286.34 460.5 306.25"/><polygon class="cls-14" points="465.72 286.34 450.06 269.72 446.9 289.25 465.72 286.34"/><polygon class="cls-15" points="481 310.5 484.17 296.75 488.75 296.75 483 310.5 481 310.5"/><polygon class="cls-12" points="486.56 302 478.5 289.25 488.38 290.33 494 294 486.56 302"/><polygon class="cls-14" points="478.5 289.25 490.75 282.5 494 294 478.5 289.25"/></g><g id="advocate2"><polygon class="cls-13" points="218.66 218.35 217.07 231.61 213.33 242.18 199.66 242.18 190.49 235.35 191.33 209.61 218.66 218.35"/><polygon class="cls-13" points="258.03 216.01 290.44 208.51 289.99 242.18 277.91 246.73 268.32 246.35 261.53 231.61 258.03 216.01"/><polygon class="cls-11" points="268.32 246.35 268.32 264.51 287.54 270.51 301.74 260.76 289.99 242.18 268.32 246.35"/><polygon class="cls-11" points="213.33 242.18 212.24 257.01 190.49 263.01 177.33 254.51 190.49 235.35 213.33 242.18"/><polygon class="cls-15" points="177.33 254.51 177.33 261.01 190.49 268.51 211.24 263.76 212.24 257.01 190.49 262.01 177.33 254.51"/><polygon class="cls-15" points="268.32 264.51 268.32 271.01 287.54 275.51 301.74 267.26 301.74 260.76 287.54 269.51 268.32 264.51"/><polygon class="cls-12" points="290.44 208.51 261.53 231.61 253.32 213.77 271.92 206.58 290.44 208.51"/><polygon class="cls-12" points="191.33 209.61 217.06 231.61 222.12 217.34 208.17 210.37 191.33 209.61"/><polygon class="cls-9" points="281.71 195.11 290.45 208.5 253.33 213.76 265.45 203.18 281.71 195.11"/><polygon class="cls-25" points="177.33 164.07 170 178.26 192.75 205.5 188.67 163.07 177.33 164.07"/><polygon class="cls-25" points="295.88 157.39 306.24 178.26 280.71 192.25 285.19 161.41 295.88 157.39"/><polygon class="cls-26" points="177.33 164.07 189.24 173.82 188.67 163.07 177.33 164.07"/><polygon class="cls-26" points="295.88 157.39 285.02 170.96 285.19 161.41 295.88 157.39"/><polygon class="cls-27" points="170 178.26 188.07 172.86 191.33 188.25 191.33 209.6 170 178.26"/><polygon class="cls-27" points="306.24 178.26 285.02 170.96 282 181.25 281.71 195.11 306.24 178.26"/><polygon class="cls-15" points="202.68 109.37 201.81 111.95 197.04 114.93 187.18 124.63 196.33 153.43 244.25 170.96 275.33 143.1 268.33 112.48 202.68 109.37"/><polygon class="cls-11" points="187.18 124.63 166 164.07 188.67 164.07 196.33 153.43 187.18 124.63"/><polygon class="cls-11" points="268.33 112.48 303.67 153.35 283 164.07 275.33 146.29 268.33 112.48"/><polygon class="cls-3" points="197.04 114.93 216.53 168.44 232.14 168.94 244.25 167.48 259.67 164.47 257.98 116.56 253.33 117.78 248.68 120.25 250.25 151.43 222.33 154.75 208.84 114.93 202.68 109.37 201.36 110.67 200.31 112.5 197.04 114.93"/><polygon class="cls-5" points="222.33 154.75 215.46 170.96 232.14 168.94 232.5 153.54 222.33 154.75"/><polygon class="cls-5" points="250.25 151.43 262.74 165.25 243.04 166.37 240.78 152.56 250.25 151.43"/><polygon class="cls-4" points="201.36 110.67 219.33 161.84 215.46 170.96 197.04 114.93 201.36 110.67"/><polygon class="cls-4" points="255.66 157.75 253.33 118.41 255.19 117.41 257.98 116.56 262.74 165.25 255.66 157.75"/><polygon class="cls-27" points="264.47 44.27 284.63 106 241.67 123.03 234.67 134 202.67 108.98 199.67 99.99 203 98.63 212.33 101.5 220.25 97.88 209.33 65.15 245.33 60.22 264.47 44.27"/><polygon class="cls-25" points="241.67 123.03 234 126.13 222.33 98.63 213 98.74 206.97 89.13 195.67 93.32 202.68 109.37 236.33 139.75 241.67 123.03"/><polygon class="cls-19" points="264.47 44.27 245.33 60.22 228.67 49.08 216.67 33 264.47 44.27"/><polygon class="cls-33" points="245.33 60.22 209.33 65.15 195.67 69.17 182 62.62 216.67 33 245.33 60.22"/><polygon class="cls-35" points="209.33 65.15 212.66 73.72 214 80.4 217.06 85.06 222.33 98.63 212.33 101.5 207.67 91.7 195.67 93.32 193.06 87.45 192.33 84.08 190.02 80.64 182 62.62 209.33 65.15"/><polygon class="cls-33" points="212.66 73.72 190.02 80.64 193.05 87.45 217.06 85.06 212.66 73.72"/><polygon class="cls-25" points="264.45 70.09 261.13 78.67 250.56 88.82 242.61 84.2 235.94 80.66 249.58 71.65 264.45 70.09"/><polygon class="cls-29" points="254.66 69.98 260.74 85.22 250.56 88.82 244.82 73.22 254.66 69.98"/><polygon class="cls-36" points="277.89 85.37 260.74 85.22 250.56 88.82 225.35 105.75 234 126.13 284.63 106 277.89 85.37"/><polygon class="cls-26" points="260.74 85.22 256.79 91.51 250.56 88.82 260.74 85.22"/><polygon class="cls-35" points="244.82 73.22 235.94 80.66 246.15 76.83 244.82 73.22"/><polygon class="cls-35" points="254.66 69.98 264.45 70.09 255.94 73.18 254.66 69.98"/><polygon class="cls-26" points="243.25 102.01 259.5 100.04 271.92 93.17 272.79 95.78 260.79 102.88 243.83 105.11 243.25 102.01"/><polygon class="cls-26" points="241.67 123.03 234 126.13 220.98 125.89 236.33 139.75 241.67 123.03"/><polygon class="cls-26" points="202.68 109.37 211.25 107.48 208.84 114.93 202.68 109.37"/><polygon class="cls-26" points="206.97 101.5 204.5 95.99 199.67 96.59 206.97 101.5"/><polygon class="cls-29" points="283 146.29 275.33 143.1 243.04 166.37 244.25 170.96 263.02 163.07 283 146.29"/><polygon class="cls-7" points="243.04 166.37 196.33 153.43 191.33 158.19 216.67 166.37 244.25 170.96 243.04 166.37"/><polygon class="cls-14" points="281.71 195.11 289 142.72 244.25 170.96 241.67 189.53 240.78 222 281.71 195.11"/><polygon class="cls-13" points="240.78 222 191.33 209.6 189.52 189.22 186.67 157.07 244.25 170.96 240.78 222"/><polygon class="cls-24" points="199.67 200.5 199.67 211.69 191.33 209.6 199.67 200.5"/><polygon class="cls-24" points="276.5 189.53 276.5 198.53 281.71 195.11 276.5 189.53"/><polygon class="cls-25" points="188.77 180.73 181.47 195.11 191.33 209.6 191.33 195.11 188.77 180.73"/><polygon class="cls-27" points="188.77 180.73 199.67 186.75 199.67 200.5 191.33 209.6 188.77 180.73"/><polygon class="cls-25" points="285.02 170.96 290.89 188.81 281.71 195.11 281.71 184.58 285.02 170.96"/><polygon class="cls-27" points="285.02 170.96 276.5 176.75 276.5 189.53 281.71 195.11 285.02 170.96"/><path class="cls-30" d="M265.36,78.42a2.72,2.72,0,1,1-1.85-3.37A2.71,2.71,0,0,1,265.36,78.42Z"/><path class="cls-30" d="M244.73,86a2.71,2.71,0,1,1-1.85-3.36A2.72,2.72,0,0,1,244.73,86Z"/></g><g id="turtle"><polygon class="cls-37" points="730.47 250.79 719.3 256.63 725.75 257.33 727.48 263 744.5 269.2 773.97 259.81 786.64 249.15 772.12 243.32 759.78 238.33 730.47 250.79"/><polygon class="cls-10" points="772.01 242.27 779.43 239.93 779.78 232.59 776.9 238.71 770.56 238.25 772.01 242.27"/><polygon class="cls-11" points="779.43 239.93 770.86 241.41 772.12 243.32 779.43 239.93"/><polygon class="cls-10" points="759.78 248.72 762.56 252.2 769.74 250.39 769.21 255.97 776.34 254.31 772.12 243.32 765.78 245.35 759.78 248.72"/><polygon class="cls-11" points="762.56 252.2 771.87 247.55 769.21 255.97 768.78 251.55 762.56 252.2"/><polygon class="cls-10" points="731.16 249.63 726.58 257.27 733.18 257.95 734.36 253.16 731.16 249.63"/><polygon class="cls-12" points="770.96 231.58 760.22 225.92 753.05 218.12 739.17 221.81 729.74 222.4 721.17 237.62 728.88 240.79 734.72 244.91 747.55 245.81 759.78 248.72 765.78 245.35 772.12 243.32 770.96 231.58"/><polygon class="cls-14" points="753.05 218.12 743.4 230.41 729.74 222.4 753.05 218.12"/><polygon class="cls-9" points="743.4 230.41 760.8 231.9 759.78 248.72 734.72 244.91 743.4 230.41"/><polygon class="cls-9" points="760.8 231.9 753.05 218.12 770.96 231.58 760.8 231.9"/><polygon class="cls-17" points="721.17 237.62 710.56 237.04 705.75 244 708.72 247.04 709.75 249.47 719.41 246.98 734.72 244.91 721.17 237.62"/><polygon class="cls-11" points="725.05 245.85 733.7 253.38 759.78 248.72 734.72 244.91 725.05 245.85"/><polygon class="cls-16" points="734.72 244.91 732.49 263.4 739.25 264.18 740.06 257.29 739.64 245.66 734.72 244.91"/><polygon class="cls-10" points="739.64 245.66 739.25 264.18 742.08 263 739.64 245.66"/><circle class="cls-38" cx="713" cy="242.08" r="1.29"/><polygon class="cls-10" points="728.88 241.77 714.41 245.8 705.75 244 709.75 249.47 734.72 244.91 728.88 241.77"/><polygon class="cls-11" points="721.17 237.62 730.9 246.88 734.72 244.91 721.17 237.62"/><polygon class="cls-14" points="722.84 234.67 736.61 241.77 734.72 244.91 721.17 237.62 722.84 234.67"/><polygon class="cls-13" points="736.61 241.77 760 244.32 759.78 248.72 734.72 244.91 736.61 241.77"/><polygon class="cls-14" points="760 244.32 771.63 238.33 772.12 243.32 759.78 248.72 760 244.32"/><polygon class="cls-11" points="734.72 244.91 740.75 247.55 741.39 245.93 734.72 244.91"/></g><g id="lizard"><polygon class="cls-37" points="75.46 211.63 73 224.72 66.33 228.08 68.63 232 76.18 230.33 88.53 233.97 100.33 225.5 94.97 223.21 91.9 222 89.75 214.92 75.46 211.63"/><polygon class="cls-10" points="93.77 228.6 95.93 230.25 99.24 231.04 96.47 231.41 95.66 233.38 95.34 230.85 91.9 228.53 93.77 228.6"/><polygon class="cls-16" points="69.81 228.08 72.5 229 68.63 232 63.38 229.54 66.33 228.08 67.88 227.08 69.81 228.08"/><polygon class="cls-15" points="66.33 218.33 66.33 228.08 69.81 228.08 71.21 218.85 66.33 218.33"/><polygon class="cls-17" points="77.17 221.7 66.33 218.33 76.18 216.07 77.17 221.7"/><polygon class="cls-10" points="77.88 228.08 74.28 202.61 84.23 204.25 92.27 207 89.5 213.25 88.59 218.63 77.88 228.08"/><polygon class="cls-16" points="74.28 202.61 89.5 195.33 91.44 200.53 92.27 207 74.28 202.61"/><polygon class="cls-10" points="89.5 195.33 96.02 195.16 92.27 207 89.5 195.33"/><polygon class="cls-10" points="76.18 216.07 77.88 228.08 88.59 218.63 84.23 216.98 76.18 216.07"/><polygon class="cls-10" points="96.02 195.16 91.46 190.36 91.84 189.69 93.67 189.53 97.45 190.66 96.02 195.16"/><polygon class="cls-16" points="89.5 188.3 83.4 193.38 93.67 189.53 89.5 188.3"/><polygon class="cls-10" points="76.18 216.07 92.27 207 88.59 218.63 76.18 216.07"/><polygon class="cls-10" points="66.33 218.33 70.72 222.07 71.06 219.85 66.33 218.33"/><polygon class="cls-16" points="77.88 228.08 83.28 220.59 88.59 218.63 93.04 219.85 97.45 227.54 82.39 231.46 77.88 228.08"/><polygon class="cls-15" points="77.88 228.08 97.45 227.54 93.04 219.85 97.45 227.54 82.13 232.13 77.88 228.08"/><polygon class="cls-17" points="83.28 220.59 97.45 227.54 93.04 219.85 88.59 218.63 83.28 220.59"/><polygon class="cls-10" points="82.72 227.64 84.54 226.79 85.75 227.35 84.06 228.53 82.72 227.64"/><polygon class="cls-10" points="93.04 219.85 93.95 221.45 93.67 222 92.27 220.92 93.04 219.85"/></g></svg>