<svg id="ILLUSTRATION" xmlns="http://www.w3.org/2000/svg" viewBox="0 0 900 350"><defs><style>.cls-1{fill:#010101;opacity:0.1;}.cls-2{fill:#c4c4c4;}.cls-3{fill:#dddddc;}.cls-4{fill:#a3a3a3;}.cls-5{fill:#8f8f8f;}.cls-6{fill:#ececeb;}.cls-7{fill:#3f8f6f;}.cls-8{fill:#54b08b;}.cls-27,.cls-9{fill:#c2987a;}.cls-10,.cls-25{fill:#99c26c;}.cls-10,.cls-11,.cls-13,.cls-27{fill-rule:evenodd;}.cls-11,.cls-17{fill:#738d57;}.cls-12{fill:#5a753d;}.cls-13,.cls-19{fill:#dfbda5;}.cls-14{fill:#35785e;}.cls-15{fill:#74c7a5;}.cls-16{fill:#cfcfcd;}.cls-18{fill:#d1ab92;}.cls-20{fill:#e6e97b;}.cls-21{fill:#d9e256;}.cls-22{fill:#b8c744;}.cls-23{fill:#8b6651;}.cls-24{fill:#e9cbb7;}.cls-26{fill:#2b2b2b;}.cls-28{fill:#6f9d52;}.cls-29{fill:#6f7273;}</style></defs><title>diplomats_Mediator_INFP_weaknesses</title><g id="Shadow"><polygon class="cls-1" points="118.95 305.21 345.67 270.17 582.33 310.83 252.32 349.8 118.95 305.21"/><polygon class="cls-1" points="580.34 311.5 778.84 289.5 890.84 313.5 747.34 350.5 580.34 311.5"/></g><g id="Wall"><polygon class="cls-2" points="392.84 55.5 426.17 22 898.84 1.5 882.84 290.5 420.84 228.83 392.84 55.5"/><polygon class="cls-3" points="426.17 22 423.17 230.83 18.17 269.5 1.84 0.5 426.17 22"/></g><g id="Window"><polygon class="cls-4" points="538.34 46 804.84 43 788.34 150.5 535.84 130 538.34 46"/><polygon class="cls-5" points="658.84 112 696.17 64.5 750.84 80 753.84 182.5 673.34 174 658.84 112"/><polygon class="cls-5" points="576.17 95.5 596.59 79.75 633 89.83 642.34 174.5 580.17 170.83 576.17 95.5"/><polygon class="cls-4" points="718.84 182.5 718.5 100.17 794.84 99.83 791.34 188.5 718.84 182.5"/><polygon class="cls-4" points="628.5 174.5 630.84 66.25 696.17 64.5 697.17 182.5 628.5 174.5"/><polygon class="cls-4" points="540.5 81.17 596.59 79.75 594.5 169.17 536.5 166.17 540.5 81.17"/><polygon class="cls-2" points="579.24 92.79 585.91 92.79 585.9 99.83 579.26 99.76 579.24 92.79"/><polygon class="cls-2" points="726.9 112.13 733.57 112.13 733.57 119.17 726.92 119.09 726.9 112.13"/><polygon class="cls-2" points="747.15 112.25 753.82 112.25 753.82 119.29 747.17 119.22 747.15 112.25"/><polygon class="cls-2" points="767.4 112.38 774.07 112.38 774.07 119.42 767.42 119.34 767.4 112.38"/><polygon class="cls-2" points="726.9 132 733.57 132 733.57 139.04 726.92 138.97 726.9 132"/><polygon class="cls-2" points="747.15 132.88 753.82 132.88 753.77 140.19 747.17 139.84 747.15 132.88"/><polygon class="cls-2" points="767.4 133.25 774.07 133.25 774.15 140.75 767.59 140.5 767.4 133.25"/><polygon class="cls-2" points="727.02 151.19 733.7 151.5 733.65 158.94 727.05 158.47 727.02 151.19"/><polygon class="cls-2" points="747.28 152.38 753.96 152.75 754.02 160.19 747.15 159.75 747.28 152.38"/><polygon class="cls-2" points="767.59 153.81 774.2 154.13 774.21 161.63 767.55 161.09 767.59 153.81"/><polygon class="cls-2" points="635.9 75.46 647.57 75.46 647.56 82.93 635.94 82.85 635.9 75.46"/><polygon class="cls-2" points="654.24 75.64 665.91 75.64 665.89 83.1 654.27 83.02 654.24 75.64"/><polygon class="cls-2" points="672.57 75.81 684.24 75.81 684.23 83.28 672.6 83.2 672.57 75.81"/><polygon class="cls-2" points="636.4 95.25 648.07 95.25 648.06 102.72 636.44 102.64 636.4 95.25"/><polygon class="cls-2" points="654.74 95.43 666.41 95.43 666.39 102.9 654.77 102.82 654.74 95.43"/><polygon class="cls-2" points="673.07 95.61 684.74 95.61 684.73 103.08 673.1 103 673.07 95.61"/><polygon class="cls-2" points="636.9 114.17 648.57 114.17 648.56 121.63 636.94 121.55 636.9 114.17"/><polygon class="cls-2" points="655.24 114.34 666.91 114.34 666.89 121.81 655.27 121.73 655.24 114.34"/><polygon class="cls-2" points="673.57 114.52 685.24 114.52 685.23 121.99 673.6 121.91 673.57 114.52"/><polygon class="cls-2" points="636.4 133.25 647.96 133.74 648.06 140.72 636.46 140.5 636.4 133.25"/><polygon class="cls-2" points="655.4 133.78 667.02 134.07 667 141.78 655.44 141.17 655.4 133.78"/><polygon class="cls-2" points="674.07 134.49 685.84 135.2 685.67 142.58 674.1 141.88 674.07 134.49"/><polygon class="cls-2" points="636.07 151.81 647.75 152.56 647.59 160.07 636.1 159.2 636.07 151.81"/><polygon class="cls-2" points="654.9 153.05 666.59 153.71 666.59 161.66 654.94 160.44 654.9 153.05"/><polygon class="cls-2" points="674.84 154.77 686.15 155.41 686.23 163.17 674.59 162.28 674.84 154.77"/><polygon class="cls-2" points="579.49 109.54 586.16 109.54 586.15 116.58 579.51 116.51 579.49 109.54"/><polygon class="cls-2" points="579.74 128.23 586.52 128.41 586.4 135.56 579.76 135.2 579.74 128.23"/><polygon class="cls-2" points="579.99 147.04 586.65 147.38 586.4 154.81 579.96 154.5 579.99 147.04"/><polygon class="cls-2" points="564.4 92.79 571.07 92.79 571.07 99.83 564.42 99.76 564.4 92.79"/><polygon class="cls-2" points="564.65 109.54 571.32 109.54 571.32 116.58 564.67 116.51 564.65 109.54"/><polygon class="cls-2" points="564.9 127.85 571.62 127.97 571.57 134.9 564.93 134.59 564.9 127.85"/><polygon class="cls-2" points="565.15 145.94 571.82 146.38 571.84 153.81 565.17 153.34 565.15 145.94"/><polygon class="cls-2" points="549.57 92.79 556.24 92.79 556.23 99.83 549.59 99.76 549.57 92.79"/><polygon class="cls-2" points="549.82 109.54 556.49 109.54 556.48 116.58 549.84 116.51 549.82 109.54"/><polygon class="cls-2" points="550.07 127.29 556.71 127.5 556.73 134.33 550.18 134 550.07 127.29"/><polygon class="cls-2" points="549.95 144.73 556.65 145.19 556.71 152.31 549.97 151.7 549.95 144.73"/><path class="cls-6" d="M530.09,39l-2.25,134.17,280,27,4-172ZM782.84,179.17l-237-19.5,2.25-104.92L785.34,48Z"/></g><g id="Sketch_on_the_wall" data-name="Sketch on the wall"><polygon class="cls-1" points="32.2 53.94 124.07 66.58 123.1 180.82 27.34 192 32.2 53.94"/><polygon class="cls-6" points="70.6 116.65 36.57 161.86 42.41 186.17 132.34 168.18 127.48 148.74 70.6 116.65"/><polygon class="cls-6" points="32.2 53.94 36.57 161.86 127.48 148.74 129.42 52 32.2 53.94"/><polygon class="cls-3" points="105.53 63.25 92.9 66.38 86.25 78.36 96.42 91.91 113.48 91.78 120.25 79.01 113.48 67.29 105.53 63.25"/><polygon class="cls-6" points="93.09 72.97 93.71 84.36 106.55 89.95 115.73 82.98 114.07 71.11 102.94 66.86 93.09 72.97"/><polygon class="cls-3" points="42.34 82.17 76.67 80.67 76.34 84.67 42.67 85.83 42.34 82.17"/><polygon class="cls-3" points="42.5 90.5 76.84 89 76.5 93 42.84 94.17 42.5 90.5"/><polygon class="cls-3" points="42.5 73.33 76.84 71.83 76.5 75.83 42.84 77 42.5 73.33"/><polygon class="cls-3" points="88.96 128.67 123.17 125.25 123.09 129.08 89.3 132.33 88.96 128.67"/><polygon class="cls-3" points="89.13 137 123.5 133.5 123.25 136.83 89.46 140.67 89.13 137"/><polygon class="cls-3" points="89.13 119.83 123.42 117.08 123.17 120.83 89.46 123.5 89.13 119.83"/><polygon class="cls-3" points="42.55 137.67 50.05 136.67 53.05 130.79 69.67 129.17 73.17 134.67 81.05 134.29 81.92 141.92 43.17 144.67 42.55 137.67"/><polygon class="cls-3" points="100.59 96.75 100.59 103.75 61.09 105.75 62.34 125.63 64.84 125.38 64.46 108.38 102.71 105.88 102.46 96.88 100.59 96.75"/></g><g id="Msin_Character" data-name="Msin Character"><polygon class="cls-7" points="164.66 141.59 155.49 136.08 136.77 142.69 144.84 232.26 192.93 221.25 164.66 141.59"/><polygon class="cls-8" points="192.56 133.88 155.49 136.08 163.56 223.08 238.08 221.25 192.56 133.88"/><polygon class="cls-1" points="192.56 133.88 168.61 168.11 179.53 227.67 238.08 221.25 192.56 133.88"/><polygon class="cls-9" points="323.24 114.52 327.19 123.97 333.43 126.27 341.32 119.11 323.24 114.52"/><polygon class="cls-9" points="322.14 105.62 320.3 101.95 334.25 89.1 335.35 108.92 322.14 105.62"/><polygon class="cls-10" points="320.67 115.53 295.71 143.88 305.34 169.49 333.43 126.27 320.67 115.53"/><polygon class="cls-11" points="237.62 155.17 258.27 143.43 295.71 143.88 305.62 167.28 250.01 182.43 237.62 155.17"/><polygon class="cls-12" points="245.33 141.96 258.27 143.43 272.58 178.66 263.77 216.84 216.05 210.6 191.09 151.5 245.33 141.96"/><polygon class="cls-13" points="278.64 290.62 292.4 306.41 261.75 308.06 257.41 306.59 259.74 292.76 278.64 290.62"/><polygon class="cls-13" points="293.49 301.06 335.7 300.86 315.23 285.12 294.17 288.19 293.49 301.06"/><polygon class="cls-14" points="426.76 277.46 424.14 294.85 396.24 296.28 389.59 280.87 426.76 277.46"/><polygon class="cls-14" points="396.24 296.28 372.06 292.19 369.26 284.05 391.82 280.87 396.24 296.28"/><polygon class="cls-14" points="503.01 312.92 475.21 306.86 473.25 269.99 504.89 270.61 503.01 312.92"/><polygon class="cls-14" points="179.5 291.97 176.74 311.53 153.3 314.7 155.53 286.79 179.5 291.97"/><polygon class="cls-7" points="545.61 247.03 529.8 260.84 502.66 272.84 263.49 292.93 247.11 282.26 233.67 271.17 358.66 249.78 545.61 247.03"/><polygon class="cls-15" points="233.67 271.17 233.66 303.35 235.14 338.25 257.9 334.3 263.49 292.93 233.67 271.17"/><polygon class="cls-15" points="545.61 247.03 537.42 309.62 503.01 312.92 502.66 272.84 545.61 247.03"/><polygon class="cls-7" points="125.33 243.69 127.77 261.26 152.18 288.42 211.34 296.28 226.22 282.26 233.67 271.17 186.78 247.03 125.33 243.69"/><polygon class="cls-8" points="233.67 271.17 235.14 338.25 216.36 330.88 211.34 296.28 233.67 271.17"/><polygon class="cls-8" points="127.77 261.26 157.76 289.03 153.3 314.7 133.77 310.79 127.77 261.26"/><polygon class="cls-16" points="112.38 214.06 344.15 198.06 558.45 212.57 233.66 241.22 112.38 214.06"/><polygon class="cls-1" points="162.41 210.61 195.53 208.31 305.34 217.67 244.69 227.12 198.8 221.61 162.41 210.61"/><polygon class="cls-4" points="558.45 212.57 556.77 247.03 233.67 271.17 228.64 251.08 233.66 238.99 558.45 212.57"/><polygon class="cls-1" points="430.59 228 438.84 232.5 438.84 244 377.34 246.5 372.15 227.58 430.59 228"/><polygon class="cls-5" points="112.38 214.06 233.66 238.99 233.67 271.17 114.74 259.79 112.38 214.06"/><polygon class="cls-17" points="184.49 142.51 186.32 168.76 193.71 200.05 218.26 209.5 218.07 156.27 184.49 142.51"/><polygon class="cls-18" points="278.02 42.9 272.94 42.1 269.85 38.94 254.51 33 240.03 23.91 217.44 33.44 197.52 38.01 194.05 51.69 186.32 67.78 184.89 72.36 182.36 75.95 182.05 96.36 178.89 134.17 173.07 144.69 213.94 153.79 245.33 141.96 264.16 129.04 278.08 122.42 294.73 116.85 282.54 85.23 274.06 51.13 274.74 46.31 278.02 42.9"/><polygon class="cls-19" points="264.16 129.04 294.73 116.85 274.06 51.13 266.01 47.05 257.79 43.09 245.29 38.26 235.88 52.37 233.96 51.38 230.13 59.3 248.26 134.67 264.16 129.04"/><polygon class="cls-20" points="274.12 51.13 269.85 38.94 240.03 23.91 238.11 38.45 245.29 38.26 257.79 43.09 266.01 47.05 274.12 51.13"/><polygon class="cls-21" points="240.03 23.91 197.52 38.01 186.32 67.78 182.36 75.95 194.3 71.8 206.18 67.84 218.06 63.63 230.19 59.42 235.88 52.37 245.29 38.26 240.03 23.91"/><polygon class="cls-22" points="230.19 59.42 218.37 63.57 206.18 67.84 194.3 71.8 182.36 75.95 178.89 134.17 226.29 67.59 230.19 59.42"/><polygon class="cls-9" points="258.34 68.09 264.53 84.92 275.73 64.87 258.34 68.09"/><polygon class="cls-9" points="254.2 68.83 239.41 79.78 251.97 81.39 263.48 94.88 254.2 68.83"/><polygon class="cls-9" points="230.19 59.42 248.26 134.67 245.66 137.45 238.79 138.38 233.96 132.38 230.56 123.78 228.52 101.13 230.19 59.42"/><polygon class="cls-23" points="267.75 93.58 266.7 98.1 263.48 94.88 267.75 93.58"/><polygon class="cls-22" points="254.2 68.83 240.34 74.96 239.41 79.78 254.2 68.83"/><polygon class="cls-22" points="258.34 68.09 274.37 62.27 275.73 64.87 258.34 68.09"/><polygon class="cls-23" points="238.79 138.38 243.13 155.72 249.46 141.41 264.16 129.04 248.26 134.67 238.79 138.38"/><polygon class="cls-24" points="254.2 68.83 263.48 94.88 267.75 93.58 258.34 68.09 254.2 68.83"/><polygon class="cls-20" points="227.07 59.67 217.9 149.73 210 160.22 214.72 181.26 230.06 182.56 237.16 150.58 230.4 142.69 230.56 123.78 230.13 59.3 227.07 59.67"/><polygon class="cls-21" points="224.19 87.7 186.32 168.76 163.24 156.7 178.89 134.17 226.29 67.59 224.19 87.7"/><polygon class="cls-21" points="230.56 123.78 248.69 156.39 262.55 182 230.06 182.56 230.56 123.78"/><polygon class="cls-22" points="224.19 87.7 186.32 168.76 214.72 181.26 217.94 149.27 223.44 124.89 224.19 87.7"/><polygon class="cls-25" points="281.92 100.82 269.36 109.55 253.02 109.98 270.66 114.37 281.92 100.82"/><polygon class="cls-12" points="281.92 100.82 276.78 102.68 269.67 103.85 265.09 105.4 259.7 108.49 253.02 109.98 269.36 109.55 281.92 100.82"/><polygon class="cls-14" points="278.02 42.9 269.85 38.94 265.83 47.11 274.12 51.13 278.02 42.9"/><polygon class="cls-8" points="266.01 47.05 257.79 43.09 253.82 51.26 262.12 55.28 266.01 47.05"/><polygon class="cls-14" points="254.13 51.13 245.84 47.11 241.94 55.34 250.11 59.3 254.13 51.13"/><polygon class="cls-8" points="242.13 55.34 233.96 51.38 229.94 59.61 238.17 63.57 242.13 55.34"/><polygon class="cls-14" points="230.19 59.42 221.96 55.4 218.06 63.63 226.29 67.59 230.19 59.42"/><polygon class="cls-8" points="218.37 63.57 210.2 59.55 206.18 67.84 214.47 71.74 218.37 63.57"/><polygon class="cls-14" points="206.49 67.59 198.2 63.63 194.3 71.8 202.53 75.82 206.49 67.59"/><polygon class="cls-8" points="194.55 71.74 186.32 67.78 182.36 75.95 190.53 79.97 194.55 71.74"/><polygon class="cls-12" points="230.25 83.56 224.19 87.7 222.76 102.18 230.37 97.05 230.25 83.56"/><polygon class="cls-25" points="230.37 97.05 222.76 102.18 221.71 112.7 230.44 107.87 230.37 97.05"/><polygon class="cls-12" points="230.44 107.87 221.71 112.7 220.47 124.4 230.5 118.83 230.44 107.87"/><polygon class="cls-25" points="230.5 118.83 220.47 124.4 219.17 137.33 230.5 130.83 230.5 118.83"/><polygon class="cls-12" points="230.5 130.83 219.17 137.33 217.94 149.27 230.44 142.34 230.5 130.83"/><path class="cls-26" d="M271.58,72.54A3.41,3.41,0,0,0,268.12,76a3.46,3.46,0,0,0,3.46,3.46A3.52,3.52,0,0,0,275.11,76,3.47,3.47,0,0,0,271.58,72.54Z"/><path class="cls-26" d="M248.81,80.77a3.56,3.56,0,0,0-3.52,3.53,3.5,3.5,0,0,0,3.52,3.46,3.46,3.46,0,0,0,3.47-3.46A3.52,3.52,0,0,0,248.81,80.77Z"/><polygon class="cls-6" points="266.25 208.86 267.63 165.91 317.18 162.33 305.34 217.67 290.62 219.32 266.25 208.86"/><polygon class="cls-9" points="263.87 210.88 277.54 198.03 294.33 202.16 291.03 219.23 277.45 219.96 263.87 210.88"/><polygon class="cls-19" points="250.56 209.04 258.45 203.07 277.54 198.03 277.45 219.96 261.39 219.41 250.56 209.04"/><polygon class="cls-25" points="258.45 203.07 193.71 200.05 198.25 220.69 261.39 219.41 258.45 203.07"/><polygon class="cls-27" points="334.8 288.05 317.92 301.08 337.92 301.08 334.8 288.05"/><polygon class="cls-27" points="290.57 293.56 274.42 307.51 292.4 306.41 290.57 293.56"/><polygon class="cls-6" points="328.19 61.84 326.61 120.55 371.69 126.91 379.68 63.49 328.19 61.84"/><polygon class="cls-16" points="331.73 69.97 373.44 71.89 372.88 75.06 331.45 72.86 331.73 69.97"/><polygon class="cls-16" points="330.63 80.56 372.33 82.49 371.78 85.66 330.35 83.46 330.63 80.56"/><polygon class="cls-16" points="330.21 93.5 370.84 96 370.17 99.17 329.94 96.39 330.21 93.5"/><polygon class="cls-16" points="330.35 105.34 368.67 109.25 368 112.75 330.07 108.23 330.35 105.34"/><polygon class="cls-1" points="326.54 104.15 326.61 120.55 337.37 122.14 335.35 102.68 326.54 104.15"/><polygon class="cls-19" points="326.61 120.55 320.67 115.53 320.3 101.95 335.54 96.81 335.35 102.68 328.75 107.45 330.4 115.53 326.61 120.55"/><polygon class="cls-3" points="403.26 215 439.42 222.35 441.8 236.29 379.4 241.8 372.15 227.58 403.26 215"/><polygon class="cls-6" points="337.74 215.37 385.09 207.66 439.42 222.35 372.15 227.58 337.74 215.37"/></g><g id="Book"><polygon class="cls-8" points="450.9 206.18 475.43 200.73 423.91 193.3 378.63 198.89 426.88 212.37 450.9 206.18"/><polygon class="cls-3" points="436.59 208.8 420 205.82 378.63 198.89 377.89 209.04 419.75 217.22 436.59 208.8"/><polygon class="cls-6" points="419.75 217.22 475.62 211.88 475.43 200.73 420 205.82 419.75 217.22"/><polygon class="cls-8" points="451.82 192.97 483.05 186.97 432.12 178.99 386.43 184.3 427.8 199.16 451.82 192.97"/><polygon class="cls-2" points="444.39 194.21 427.8 191.23 386.43 184.3 385.73 195.37 427.55 202.63 444.39 194.21"/><polygon class="cls-6" points="427.55 202.63 483.74 197.57 483.05 186.97 427.8 191.23 427.55 202.63"/><polygon class="cls-8" points="451 180.03 475.52 174.58 424.46 167.13 379.47 170.79 426.97 186.22 451 180.03"/><polygon class="cls-2" points="444.39 180.99 427.8 178.02 379.47 170.79 379.33 181.12 427.55 189.41 444.39 180.99"/><polygon class="cls-6" points="427.55 189.41 475.48 185.59 475.52 174.58 427.8 178.02 427.55 189.41"/></g><g id="Food_Tabble" data-name="Food Tabble"><polygon class="cls-15" points="639.84 292.83 650.17 315.5 684.5 308.5 671.17 289.17 639.84 292.83"/><polygon class="cls-7" points="846.5 294.17 840.84 315.25 819.84 313 813.84 290 846.5 294.17"/><polygon class="cls-15" points="740.84 304.83 755.84 334.5 780.34 328.5 786.59 312 836.59 302.75 840.84 315.25 862.09 310.75 862.84 260 730.34 275 740.84 304.83"/><polygon class="cls-7" points="622.17 253.5 626.84 310.83 650.17 315.5 652.84 304.83 726.17 318.5 728.17 330.17 755.84 334.5 758.17 284.83 622.17 253.5"/><polygon class="cls-4" points="762.84 240.17 879.5 246.83 879.5 270.83 758.17 284.83 726.84 252.17 762.84 240.17"/><polygon class="cls-5" points="721.5 241.5 607.5 242.17 606.84 265.5 758.17 284.83 757.5 261.5 721.5 241.5"/><polygon class="cls-3" points="742.17 233.5 607.5 242.17 757.5 261.5 879.5 246.83 742.17 233.5"/></g><g id="Food"><polygon class="cls-1" points="694 238.42 742.5 242.67 761 241.17 827.5 249.83 782 255.42 740 250.42 720.75 252.67 656.75 243.92 694 238.42"/><polygon class="cls-1" points="738.09 255 744.4 254.13 753.59 255.63 743.71 257 738.09 255"/><polygon class="cls-7" points="755 244.72 747.03 238.13 760.09 232.51 809.14 235.34 785.06 246.12 755 244.72"/><polygon class="cls-28" points="794.03 237.64 789.71 234.02 785.61 236.94 785.81 242.7 793.32 244.84 794.03 237.64"/><polygon class="cls-25" points="799.66 240.86 795.06 232.13 789.71 234.02 789.93 246.27 799.66 240.86"/><polygon class="cls-25" points="775.59 239.09 780.15 235.27 785.81 242.7 775.02 245.56 775.59 239.09"/><polygon class="cls-28" points="775.02 245.56 770.81 241.86 772.97 236.32 780.15 235.27 775.02 245.56"/><polygon class="cls-25" points="759.44 242.41 760.09 232.51 767 232.56 770.81 241.86 759.44 242.41"/><polygon class="cls-28" points="755.76 243.37 754.09 238.59 760.09 232.51 764.35 242.63 755.76 243.37"/><polygon class="cls-15" points="780.09 246.19 783.51 252.32 805.84 249 809.14 235.34 785.81 242.7 780.09 246.19"/><polygon class="cls-12" points="693.71 218.88 703.46 208.88 683.46 205.25 669.29 208 694.34 227.5 693.71 218.88"/><polygon class="cls-8" points="665.34 200.75 680.09 195.38 690.84 219.13 687.21 219.38 678.46 200 666.46 205 665.34 200.75"/><polygon class="cls-25" points="677.67 232.67 683.63 211 703.46 208.88 697.59 243.13 684 245 677.67 232.67"/><polygon class="cls-28" points="669.29 208 672.96 243.25 684 245 683.63 211 669.29 208"/><polygon class="cls-7" points="715.75 244.08 708.75 229.58 726 225.58 740 230.83 715.75 244.08"/><polygon class="cls-15" points="717 236.58 728 231.83 740 230.83 737.75 246.83 724 249.83 717 236.58"/><polygon class="cls-8" points="708.75 229.58 728 231.83 724 249.83 710.5 246.83 708.75 229.58"/><polygon class="cls-8" points="747.03 238.13 785.81 242.7 783.51 252.32 749.74 247.74 747.03 238.13"/><polygon class="cls-29" points="767.96 220.56 774.42 221.38 779.28 217.09 772.25 216.5 767.96 220.56"/><polygon class="cls-6" points="776.78 215.38 771.06 219.14 773.25 213.75 776.78 215.38"/><polygon class="cls-6" points="771.43 220.53 777.79 222.38 778.65 219.6 771.43 220.53"/><polygon class="cls-29" points="760.07 232.54 763.26 233.07 767.95 232.43 762.71 230.57 760.07 232.54"/><polygon class="cls-6" points="766.93 232.05 762.71 230.57 769.04 229.9 766.93 232.05"/><polygon class="cls-29" points="819.24 204.54 821.23 207.57 825.33 208.01 822.38 204.68 819.24 204.54"/><polygon class="cls-6" points="825.05 206.23 821.11 205.3 825.04 202.38 825.05 206.23"/><polygon class="cls-6" points="820.66 206.02 820.46 210.63 824 208.75 820.66 206.02"/><polygon class="cls-29" points="704.22 201.41 701.08 198.18 695.98 198.61 700.36 201.97 704.22 201.41"/><polygon class="cls-6" points="696.72 202.65 701.76 200.92 698.8 204.94 696.72 202.65"/><polygon class="cls-6" points="702.14 199.94 702.93 195.67 699.39 195.88 702.14 199.94"/><polygon class="cls-3" points="672.03 194.31 665.88 194.25 669.13 196.83 672.03 194.31"/><polygon class="cls-29" points="675.84 196 672.03 194.31 665.67 196.79 671.16 198.86 675.84 196"/><polygon class="cls-6" points="672.42 194.67 665.59 195.35 669.21 197.54 672.42 194.67"/><polygon class="cls-3" points="746.19 251.74 740.46 249.48 742.57 253.06 746.19 251.74"/><polygon class="cls-29" points="749.14 254.68 746.19 251.74 739.36 251.78 743.75 255.68 749.14 254.68"/><polygon class="cls-6" points="746.42 252.21 739.79 250.41 742.4 253.75 746.42 252.21"/></g></svg>