<svg id="illustration" xmlns="http://www.w3.org/2000/svg" viewBox="0 0 900 350"><defs><style>.cls-1{fill:#dddddc;}.cls-2{fill:#c4c4c4;}.cls-3{fill:#a3a3a3;}.cls-4{fill:#cececd;}.cls-5{fill:#54b08b;}.cls-6{fill:#72c9a6;}.cls-7{fill:#ececeb;}.cls-8{fill:#99c26d;}.cls-9{fill:#a0cf7e;}.cls-10{fill:#bfdb8e;}.cls-11{fill:#709d53;}.cls-12,.cls-15,.cls-21{fill:#2b2b2b;}.cls-12{opacity:0.1;}.cls-13{fill:#9da1a2;}.cls-14{fill:#858686;}.cls-15{opacity:0.11;}.cls-16{fill:#35785d;}.cls-17{fill:#3f8f6f;}.cls-18{fill:#165e60;}.cls-19{fill:#737373;}.cls-20{fill:#6f7173;}.cls-21{opacity:0.14;}.cls-22{fill:#b8c745;}.cls-23{fill:#e8f078;}.cls-24{fill:#c3987b;}.cls-25{fill:#dfbda5;}.cls-26{fill:#8b6651;}.cls-27{fill:#4f5253;}.cls-28{fill:#738d57;}.cls-29{fill:#5a753d;}.cls-30{fill:#446125;}.cls-31{fill:#8f8f8f;}.cls-32{fill:#e8cab6;}</style></defs><title>diplomats_Advocate_INFJ_parenthood</title><g id="sky"><polygon class="cls-1" points="395.1 66.88 424 47 479.88 60.17 515.26 57.5 544.75 63.33 481.94 70.5 432.48 65.33 395.1 66.88"/><polygon class="cls-2" points="395.1 66.88 432.48 64.33 485.92 69.11 544.75 63.33 515.26 75.57 446.46 77.17 395.1 66.88"/><polygon class="cls-1" points="734.92 92.26 773.56 82.31 808.52 86.09 838.96 89.88 789.01 97.35 734.92 92.26"/><polygon class="cls-2" points="838.96 89.88 814.66 101.65 768.93 104.08 734.92 92.26 788.92 96.35 838.96 89.88"/><polygon class="cls-1" points="38.83 149.37 72.17 137.59 96.6 143.47 107.26 141.63 117.17 148.97 83.66 154.53 62.93 150.18 38.83 149.37"/><polygon class="cls-2" points="117.17 148.97 102.71 157.15 67.35 159.76 38.83 149.37 62.93 149.37 83.66 153.72 117.17 148.97"/></g><g id="city"><polygon class="cls-3" points="82.33 217.77 82.33 207.51 96 201.4 98.33 208.16 96 215.71 82.33 217.77"/><polygon class="cls-4" points="96 201.4 113.33 203.09 113.33 213.21 96 215.71 96 201.4"/><polygon class="cls-3" points="108.67 215.71 110.33 176 121.33 170.12 124.13 187.47 121.33 217.03 108.67 215.71"/><polygon class="cls-4" points="121.33 170.12 133 172.23 133 214.02 121.33 217.03 121.33 170.12"/><polygon class="cls-3" points="182.67 207.51 161.83 207.51 161.83 155.83 182.67 136.95 185.67 179.36 182.67 207.51"/><polygon class="cls-3" points="269.5 99.3 247.5 117.09 247.5 208.16 274.42 203.09 277 149.11 269.5 99.3"/><polygon class="cls-4" points="309.25 159.14 308 104.38 269.5 99.3 274.42 203.09 310.15 193.83 309.25 159.14"/><polygon class="cls-3" points="311.52 190.97 312.5 173.59 309.25 159.14 288.29 175.37 289.91 200.92 311.52 190.97"/><polygon class="cls-4" points="309.25 159.14 331.25 162.62 331.5 167.63 331.5 191.61 311.52 190.97 309.25 159.14"/><polygon class="cls-3" points="388.75 199 383.24 126.6 407 116.2 407 149.11 402.43 200.56 388.75 199"/><polygon class="cls-4" points="407 116.2 431.31 118.89 424.75 206.14 402.43 200.56 407 116.2"/><polygon class="cls-3" points="345.43 87.25 352.48 155.25 352.48 196.08 340.65 195.47 336 97.25 345.43 87.25"/><polygon class="cls-4" points="345.43 87.25 368.38 90.5 376 195.47 352.48 196.08 345.43 87.25"/><polygon class="cls-3" points="316.08 187.47 317.75 174.83 331.5 167.63 332.5 177.17 330 191.1 316.08 187.47"/><polygon class="cls-4" points="331.5 167.63 345.43 169.09 345.43 192.57 330 191.1 331.5 167.63"/><polygon class="cls-3" points="361.94 152.75 378.25 146.66 382 165.52 383.24 197.56 367.5 196.74 361.94 152.75"/><polygon class="cls-4" points="378.25 146.66 399.08 149.11 402.43 200.56 383.24 197.56 378.25 146.66"/><polygon class="cls-4" points="182.67 135.95 216.81 140.37 221.67 210.75 182.67 207.51 182.67 135.95"/><polygon class="cls-3" points="126.5 195.47 145.33 187.1 148.38 197.56 145.33 214.4 126.5 215.71 126.5 195.47"/><polygon class="cls-4" points="145.33 187.1 171.97 190.25 174.09 211.75 145.33 214.4 145.33 187.1"/><polygon class="cls-3" points="362.67 110.5 365.33 110 365.5 114.17 362.83 114.17 362.67 110.5"/><polygon class="cls-3" points="363.17 118.67 365.33 118.5 365.67 122.83 363.17 123 363.17 118.67"/><polygon class="cls-3" points="363.67 128.33 366 127.83 366.17 132.67 364 132.5 363.67 128.33"/><polygon class="cls-3" points="364.33 138 366.5 137.33 367.17 142.17 364.5 142.5 364.33 138"/><polygon class="cls-3" points="358 118.67 360.17 118.67 360.33 122.83 357.83 122.67 358 118.67"/><polygon class="cls-3" points="358.5 128.5 360.33 128.33 360.83 132.67 358.17 132.67 358.5 128.5"/><polygon class="cls-3" points="359 138.33 361.17 138.33 361.5 142.33 359.33 142.67 359 138.33"/><polygon class="cls-3" points="352.67 128.67 354.83 128.67 355.17 132.17 353 132.17 352.67 128.67"/><polygon class="cls-3" points="353.33 137.83 355.5 137.33 355.83 141.67 353.67 141.67 353.33 137.83"/><polygon class="cls-3" points="354 147.5 356.17 147.33 356.17 151.17 354.33 150.83 354 147.5"/><polygon class="cls-3" points="354.67 156.67 356.67 156 356.83 160.5 354.67 160 354.67 156.67"/><polygon class="cls-3" points="383.67 153.67 386.17 153.67 386.5 158.17 384 157.5 383.67 153.67"/><polygon class="cls-3" points="390.5 154.17 393.33 154.5 393.67 159 390.67 158.33 390.5 154.17"/><polygon class="cls-3" points="384.5 162.5 387.17 162.67 387.5 167.5 385 166.83 384.5 162.5"/><polygon class="cls-3" points="334.83 172.5 336.67 172.67 336.67 176 334.83 175.67 334.83 172.5"/><polygon class="cls-3" points="339.83 173.33 342 173.17 341.67 176.83 339.67 176.33 339.83 173.33"/><polygon class="cls-3" points="334.5 180.33 336.67 180.5 336.5 185 334.67 184.5 334.5 180.33"/><polygon class="cls-3" points="339.83 181.33 341.5 181.17 341.5 185.5 339.5 184.83 339.83 181.33"/><polygon class="cls-3" points="411.5 123.17 414.5 123 413.83 128 411.67 127.33 411.5 123.17"/><polygon class="cls-3" points="411.33 132.67 413.83 132.83 413.33 137.83 410.5 137.5 411.33 132.67"/><polygon class="cls-3" points="302.17 143.33 304.33 143.5 304.33 146 302.17 145.5 302.17 143.33"/><polygon class="cls-3" points="302.17 150.5 304.17 150.5 304.33 153.33 301.83 153 302.17 150.5"/><polygon class="cls-3" points="302.17 158.17 304.17 158.17 304.17 160.67 301.83 160.67 302.17 158.17"/><polygon class="cls-3" points="296.33 143 298.67 142.83 298.17 145.33 296.17 144.83 296.33 143"/><polygon class="cls-3" points="296.33 150.33 298.33 150.5 298.33 153.17 296 152.67 296.33 150.33"/><polygon class="cls-3" points="296.17 158.67 298 158.17 297.83 161 295.5 160.5 296.17 158.67"/><polygon class="cls-3" points="289.17 157.67 290.83 157.67 291 160.33 288.67 160 289.17 157.67"/><polygon class="cls-3" points="289.17 164.67 290.83 164.67 290.67 167.67 288.83 167.33 289.17 164.67"/><polygon class="cls-3" points="313.33 163.67 316.67 164 316.83 165.67 313.5 165.17 313.33 163.67"/><polygon class="cls-3" points="320.67 164.5 324.83 165 324 166.67 320.83 166 320.67 164.5"/><polygon class="cls-3" points="313.5 168.83 317 169 316.5 170.83 313.5 170.33 313.5 168.83"/><polygon class="cls-3" points="188 179 190.33 179.17 190.17 183.33 188 182.67 188 179"/><polygon class="cls-3" points="188.17 188 190.33 188 190.17 192.33 187.83 192.17 188.17 188"/><polygon class="cls-3" points="188.17 197 189.67 197 189.67 201.67 187.5 201 188.17 197"/><polygon class="cls-3" points="194.83 188.67 197.33 188.67 196.83 192.33 194.83 192 194.83 188.67"/><polygon class="cls-3" points="194.67 197 196.83 196.83 196.33 201.33 194.33 201 194.67 197"/><polygon class="cls-3" points="150 192.17 152.67 192.33 152.67 194.33 150.17 194 150 192.17"/><polygon class="cls-3" points="156.67 192.67 160 192.67 160.17 194.67 156.5 194.17 156.67 192.67"/><polygon class="cls-3" points="164.33 193 167.83 193.33 167.83 195.5 164.33 194.83 164.33 193"/><polygon class="cls-3" points="149.83 198.5 152.83 198.5 152.5 200.5 149.67 200.33 149.83 198.5"/><polygon class="cls-3" points="157.33 198.67 160.33 198.5 160 200.83 157 200.33 157.33 198.67"/><polygon class="cls-3" points="165.17 199 168 199 168.17 201.17 165 200.67 165.17 199"/><polygon class="cls-3" points="124.33 175 125.5 175.33 125.5 177.67 124 177.33 124.33 175"/><polygon class="cls-3" points="127.83 175.67 129.67 175.67 129.5 178.67 128 177.83 127.83 175.67"/><polygon class="cls-3" points="124 182 125.17 181.5 125.33 184.17 123.83 183.83 124 182"/><polygon class="cls-3" points="128 182.17 129.67 181.83 129.5 184.67 128 184.33 128 182.17"/><polygon class="cls-3" points="355.5 165.67 357.33 165.5 357.33 169.17 355 168.5 355.5 165.67"/><polygon class="cls-3" points="355.83 174.67 357.83 174.17 358 178.33 355.83 177.67 355.83 174.67"/><polygon class="cls-3" points="356.5 183.5 358.33 183.17 358.5 187.67 356.5 187.17 356.5 183.5"/></g><g id="ground4"><polygon class="cls-5" points="411.73 207.25 305.17 202.52 274.42 203.09 228.06 206.61 345.25 224.63 411.73 207.25"/><polygon class="cls-6" points="274.42 203.09 300.99 191 316.08 187.47 419 201.21 411.73 207.25 301.73 204.72 274.42 203.09"/><polygon class="cls-1" points="362.08 215.17 360 206.06 367.58 205.22 373.17 206.36 377.01 212.91 362.08 215.17"/><polygon class="cls-7" points="360 206.06 376 195.47 383.24 196.44 373.17 206.36 360 206.06"/></g><g id="ground3"><polygon class="cls-5" points="691.68 138.03 693.61 129.67 691.37 128.78 690.34 137.65 691.68 138.03"/><polygon class="cls-5" points="698.16 133.99 684.91 128.99 694.12 122.95 698.16 133.99"/><polygon class="cls-6" points="698.72 128.53 686.27 125.56 695.06 120.13 698.72 128.53"/><polygon class="cls-5" points="697.82 123.64 689.2 120.91 695.81 116.28 697.82 123.64"/><polygon class="cls-6" points="691.45 117.8 699.09 117.55 694.62 111.17 691.45 117.8"/><polygon class="cls-5" points="729.23 148.38 732.53 143.08 734.67 143.89 730.33 148.68 729.23 148.38"/><polygon class="cls-5" points="728.11 141.5 739.07 148.67 737.33 138.56 728.11 141.5"/><polygon class="cls-6" points="731.5 138.43 740.3 144.04 738.4 134.97 731.5 138.43"/><polygon class="cls-5" points="735.07 134.93 740.72 139.85 741.34 133.27 735.07 134.93"/><polygon class="cls-6" points="738.3 132.9 742.79 135.39 742.61 129.47 738.3 132.9"/><polygon class="cls-5" points="720.82 143.99 722.14 136.74 724.34 137.15 722.09 143.95 720.82 143.99"/><polygon class="cls-5" points="715.46 137.75 730.82 139.9 723.78 131.12 715.46 137.75"/><polygon class="cls-6" points="718.32 132.94 729.52 134.43 723.38 128.02 718.32 132.94"/><polygon class="cls-5" points="720.24 129.28 728.02 130.07 723.22 125.62 720.24 129.28"/><polygon class="cls-6" points="721.51 125.53 725.26 127.33 724.41 121.99 721.51 125.53"/><polygon class="cls-5" points="607.04 104.45 608.09 95.39 610.31 95.58 608.34 104.4 607.04 104.45"/><polygon class="cls-5" points="602.7 96.74 616.12 97.75 609.37 88.47 602.7 96.74"/><polygon class="cls-6" points="604.53 91.44 614.52 92.73 610.33 83.68 604.53 91.44"/><polygon class="cls-5" points="605.91 86.03 614.19 88.55 611.85 79.98 605.91 86.03"/><polygon class="cls-6" points="608.22 81.39 614.09 82.35 613.11 75.57 608.22 81.39"/><polygon class="cls-5" points="585.67 79.67 585.17 74 587 73.83 587 80.5 585.67 79.67"/><polygon class="cls-5" points="580.17 76 593.67 74.33 585.25 67.67 580.17 76"/><polygon class="cls-6" points="580.95 69.83 590.54 70 585.45 63.33 580.95 69.83"/><polygon class="cls-5" points="581.93 66 589.36 65 583.88 60.17 581.93 66"/><polygon class="cls-6" points="582.32 61.33 587.41 61.33 584.47 56.33 582.32 61.33"/><polygon class="cls-8" points="587 109 596 85.5 628.83 104.67 630.64 131.2 614.82 130.61 587 109"/><polygon class="cls-9" points="587 109 615.5 96.88 596 85.5 584.5 90.39 570.11 101.12 587 109"/><polygon class="cls-10" points="570.11 101.12 596 85.5 585.67 79.67 570.11 101.12"/><polygon class="cls-9" points="670.23 121.99 723 142.67 755 163.96 850.39 222.93 729 201.21 650.7 160.88 630.64 131.2 628.83 104.67 670.23 121.99"/><polygon class="cls-10" points="723 142.67 692 149 644.67 151.8 630.64 131.2 665.7 120.1 723 142.67"/><polygon class="cls-10" points="703.95 184.08 745 182.1 780.95 180 751.1 161.37 686.3 166.65 661.91 166.65 703.95 184.08"/><polygon class="cls-5" points="519.96 124.6 517.24 114.38 519.96 113.19 521.59 124.08 519.96 124.6"/><polygon class="cls-5" points="511.8 119.89 527.93 113.19 516.33 106.12 511.8 119.89"/><polygon class="cls-6" points="510.9 113.19 524.37 111.02 515.07 102.68 510.9 113.19"/><polygon class="cls-5" points="511.8 107.12 522.31 103.41 513.98 97.97 511.8 107.12"/><polygon class="cls-6" points="519.41 99.67 509.99 99.67 515.25 91.63 519.41 99.67"/><polygon class="cls-5" points="540.88 111.02 539.5 103.45 542.14 102.41 542.14 110.38 540.88 111.02"/><polygon class="cls-5" points="534.17 105.67 550.11 103.14 540.14 95.35 534.17 105.67"/><polygon class="cls-6" points="534.71 100.06 548.83 100.06 538.15 91.18 534.71 100.06"/><polygon class="cls-5" points="535.07 93.9 544.31 93.72 539.42 87.2 535.07 93.9"/><polygon class="cls-6" points="536.34 89.37 542.5 87.92 537.43 82.67 536.34 89.37"/><polygon class="cls-5" points="510 124.06 503.18 115.52 505.21 113.78 511.05 122.91 510 124.06"/><polygon class="cls-5" points="499.77 121.25 511.96 110.68 498.36 108.58 499.77 121.25"/><polygon class="cls-6" points="496.81 115.21 506.34 107.8 495.1 103.72 496.81 115.21"/><polygon class="cls-5" points="493.36 109.46 502.5 104.55 493.23 99.3 493.36 109.46"/><polygon class="cls-6" points="491.36 103.59 497.14 99.39 490.53 94.51 491.36 103.59"/><polygon class="cls-5" points="536.45 129.34 532.84 119.02 535.34 118.06 537.82 128.61 536.45 129.34"/><polygon class="cls-5" points="527.73 123.3 542.73 117.36 530.59 110.88 527.73 123.3"/><polygon class="cls-6" points="526.94 116.62 538.39 112.79 529.13 105.21 526.94 116.62"/><polygon class="cls-5" points="525.59 110.06 535.84 108.45 528.83 100.43 525.59 110.06"/><polygon class="cls-6" points="525.65 103.86 532.49 101.81 527.88 95.01 525.65 103.86"/><polygon class="cls-5" points="492.18 136.67 488.56 128.33 491.09 127.25 493.45 135.76 492.18 136.67"/><polygon class="cls-5" points="482.4 133.95 499.61 125.62 486.38 121.45 482.4 133.95"/><polygon class="cls-6" points="482.04 127.06 494.54 120.91 483.85 118.55 482.04 127.06"/><polygon class="cls-5" points="481.49 121.99 490.01 117.46 482.04 116.2 481.49 121.99"/><polygon class="cls-6" points="480.23 117.28 485.3 116.56 480.77 111.67 480.23 117.28"/><polygon class="cls-9" points="560.5 168.98 576.63 142.5 581.99 138.06 608.67 145.49 644.67 151.8 664.62 178.81 553.75 182.67 560.5 168.98"/><polygon class="cls-10" points="581.99 138.06 573.13 132.75 565.01 124.33 608.67 126.67 630.64 131.2 644.67 151.8 608.67 147.49 581.99 138.06"/><polygon class="cls-9" points="565.01 124.33 573.75 117.13 587 109 630.64 131.2 565.01 124.33"/><polygon class="cls-10" points="569 139.73 567.87 135.33 558.22 126.67 483.5 146.24 431.99 189.1 569 139.73"/><polygon class="cls-9" points="558.22 126.67 557.25 124.33 553.75 121.5 529.5 120.1 485.5 131.2 462.71 139.73 431.99 189.1 485.5 149.11 558.22 126.67"/><polygon class="cls-10" points="553.75 121.5 566.5 116.13 581.99 106.5 555.5 94.5 485.5 131.2 553.75 121.5"/><polygon class="cls-1" points="581.99 138.06 565.01 124.33 563.13 122.81 553.75 121.5 569 139.73 575.13 140.75 581.99 138.06"/><polygon class="cls-7" points="553.75 121.5 581.99 106.5 587 109 565.01 124.33 553.75 121.5"/><polygon class="cls-9" points="569 139.73 558.22 154.29 530.5 179.98 481.13 195.77 434.98 200.5 431.99 189.1 569 139.73"/><polygon class="cls-7" points="530.5 179.98 569 139.73 581.99 138.06 560.5 168.98 553.75 182.67 530.5 179.98"/></g><g id="ground"><polygon class="cls-10" points="133 312.91 236.97 346 385.01 325.14 419 304.63 442.5 285.28 333.5 291.5 133 312.91"/><polygon class="cls-8" points="442.5 285.28 407.5 270.06 369.78 260 316.08 262.25 172 282.71 133 312.91 442.5 285.28"/><polygon class="cls-10" points="369.78 260 350.5 251.39 329 245.78 207.75 260 148.38 272.61 172 282.71 369.78 260"/><polygon class="cls-8" points="329 245.78 348.5 230.04 357 215.71 206.5 225.59 219.11 241.83 243.19 258.53 329 245.78"/><polygon class="cls-11" points="206.5 225.59 156.09 237.12 86 262.25 148.38 272.61 243.19 258.53 206.5 225.59"/><polygon class="cls-8" points="206.5 225.59 86 262.25 46.5 258.53 103.5 230 206.5 225.59"/><polygon class="cls-11" points="105.68 232.29 46.5 258.53 0.08 232.29 70.5 230 105.68 232.29"/><polygon class="cls-10" points="105.68 232.29 159.69 213 200.5 203.24 321.5 218.04 206.5 225.59 105.68 232.29"/><polygon class="cls-8" points="200.5 203.24 108.72 210.75 0.08 232.29 105.68 232.29 200.5 203.24"/><polygon class="cls-10" points="524 338.96 553.75 291.32 590 249.96 635.5 253.64 643 295.52 524 338.96"/><polygon class="cls-11" points="643 295.52 631 257.88 679.5 270.06 717.18 291.32 643 295.52"/><polygon class="cls-8" points="583.5 215.33 675.5 239.92 767.5 272.61 717.18 291.32 631 257.88 590 249.96 581.99 232.6 583.5 215.33"/><polygon class="cls-10" points="583.5 215.33 767.5 272.61 823 251.39 691 213.21 576 187.47 576 200.56 583.5 215.33"/><polygon class="cls-8" points="576 187.47 571 179.98 571 170.61 641.5 156.88 717.18 189.82 786 213 849.78 245.78 823 251.39 656.5 214.93 576 187.47"/><polygon class="cls-10" points="717.18 189.82 900 235.27 849.78 245.78 717.18 189.82"/><polygon class="cls-10" points="517.5 237.12 415.01 239.92 412.5 231.47 475.01 217.03 524 209.33 524 221.07 517.5 237.12"/><polygon class="cls-8" points="524 209.33 529.5 200.56 527.5 193.6 497.5 192.57 419 202.52 393.5 224.63 412.5 231.47 524 209.33"/><polygon class="cls-10" points="527.5 193.6 535.01 187.1 530.5 179.98 419 202.52 527.5 193.6"/><polygon class="cls-2" points="385.01 325.14 442.5 285.28 456.42 270.72 517.5 237.12 544.75 239.92 590 249.96 524 338.96 385.01 325.14"/><polygon class="cls-1" points="517.5 237.12 442.5 285.28 369.78 260 390 249.1 415.01 239.92 517.5 237.12"/><polygon class="cls-4" points="415.01 239.92 369.78 260 329 245.78 393.5 224.63 412.5 231.47 415.01 239.92"/><polygon class="cls-2" points="329 245.78 357 215.71 419 202.52 406.29 232.6 329 245.78"/><polygon class="cls-1" points="590 249.96 517.5 237.12 524 209.33 553.75 209.33 583.5 215.33 590 249.96"/><polygon class="cls-2" points="583.5 215.33 576 187.47 551.75 187.1 527.5 193.6 524 209.33 583.5 215.33"/><polygon class="cls-4" points="576 187.47 571 170.61 530.5 179.98 527.5 193.6 576 187.47"/><polygon class="cls-11" points="767.24 210.95 656.5 214.93 823 251.39 849.78 245.78 767.24 210.95"/></g><g id="rocks"><polygon class="cls-12" points="393.5 224.63 386.5 236.27 440.25 251.39 491.99 229.65 481.49 217.77 393.5 224.63"/><polygon class="cls-1" points="462.71 139.73 485.5 149.11 472.5 152.75 461.5 152.75 462.71 139.73"/><polygon class="cls-13" points="461.5 152.75 470 238.26 481.49 217.77 485.5 149.11 461.5 152.75"/><polygon class="cls-1" points="403 160.88 388.75 177.17 399 178.02 406.71 174.83 403 160.88"/><polygon class="cls-14" points="388.75 177.17 405.92 232.6 406.71 174.83 388.75 177.17"/><polygon class="cls-1" points="418.27 139.73 399 149.11 407 155.25 418.45 152.75 418.27 139.73"/><polygon class="cls-14" points="407 153.25 405 168.8 405.92 232.6 412.5 231.47 418.45 152.75 407 153.25"/><polygon class="cls-13" points="399 149.11 401.33 196.74 403 202.52 406.29 205.22 407 153.25 399 149.11"/><polygon class="cls-13" points="401.33 196.74 393.5 224.63 405.92 232.6 406.29 205.22 401.33 196.74"/><polygon class="cls-1" points="436.26 125.7 460.44 115.42 440.22 111.67 420 117.8 436.26 125.7"/><polygon class="cls-14" points="460.44 115.42 470 238.26 415.01 239.92 426.67 160.88 436.26 123.7 460.44 115.42"/><polygon class="cls-13" points="420 117.8 412.5 231.47 415.01 239.92 436.26 123.7 420 117.8"/></g><g id="pines"><polygon class="cls-15" points="610.31 209.33 636.87 208.16 656.51 214.93 700.77 224.63 645.32 227.79 610.31 209.33"/><polygon class="cls-15" points="751.1 204.13 769.33 222.09 801.94 225.59 751.1 204.13"/><polygon class="cls-16" points="656.51 214.93 661.33 191.25 652.67 192.67 651.68 213.29 656.51 214.93"/><polygon class="cls-5" points="679.67 189.1 703.95 184.06 659 139.73 636.5 167.67 666.62 192.67 679.67 189.1"/><polygon class="cls-6" points="659 139.73 666.62 192.67 616.68 172.01 659 139.73"/><polygon class="cls-17" points="662.05 160.92 692 149.11 648.33 96.33 623.23 145.66 662.05 160.92"/><polygon class="cls-5" points="648.33 96.33 662.05 160.92 618.67 146.24 648.33 96.33"/><polygon class="cls-5" points="655.1 128.2 682 116.33 656 79.67 632 104.67 655.1 128.2"/><polygon class="cls-6" points="656 79.67 655.1 128.2 644 121.5 635.23 115.42 628.83 104.67 656 79.67"/><polygon class="cls-17" points="655.4 112 679.67 98.67 657.61 67.5 633.45 96.33 655.4 112"/><polygon class="cls-5" points="657.61 67.5 655.4 112 628.83 96.33 657.61 67.5"/><polygon class="cls-5" points="672.08 87.94 656.56 91.33 643 76.33 662.67 53 672.08 87.94"/><polygon class="cls-6" points="662.67 53 656.56 91.33 638.67 77.67 662.67 53"/><polygon class="cls-16" points="638.67 219.27 643 220.67 644.67 193.83 636.33 200.97 638.67 219.27"/><polygon class="cls-17" points="605.67 185.84 636.5 203.13 679.67 189.1 633.67 155.25 605.67 185.84"/><polygon class="cls-5" points="636.5 203.13 633.67 155.25 601 187.47 636.5 203.13"/><polygon class="cls-5" points="635.23 181.59 611.67 157.88 633 135.33 662.05 160.92 635.23 181.59"/><polygon class="cls-6" points="633 135.33 635.23 181.59 607 157.88 633 135.33"/><polygon class="cls-17" points="613 146.24 634.04 156.88 658.69 145.11 627.33 118.33 613 146.24"/><polygon class="cls-5" points="627.33 118.33 634.04 156.88 608.67 147.49 627.33 118.33"/><polygon class="cls-5" points="615.5 128.2 630.64 137.38 644 121.5 628.83 104.67 615.5 128.2"/><polygon class="cls-6" points="628.83 104.67 630.64 137.38 613 128.67 628.83 104.67"/><polygon class="cls-16" points="767.24 210.95 769.33 192.67 776 193.83 771.75 212.85 767.24 210.95"/><polygon class="cls-17" points="768.9 196.99 800.09 191.83 771.75 166.2 748 182.1 768.9 196.99"/><polygon class="cls-5" points="771.75 166.2 768.9 196.99 745 182.1 771.75 166.2"/><polygon class="cls-5" points="770.39 180.88 794.5 176.33 779.5 149.11 758.38 163.67 770.39 180.88"/><polygon class="cls-6" points="779.5 149.11 770.39 180.88 755.14 163.91 779.5 149.11"/><polygon class="cls-17" points="775.38 163.47 793.33 160.92 785 137.93 766 151.33 775.38 163.47"/><polygon class="cls-5" points="785 137.93 775.38 163.47 763 151.33 785 137.93"/><polygon class="cls-5" points="781.04 148.44 793.33 146.24 785 123.33 771.75 139.73 781.04 148.44"/><polygon class="cls-6" points="785 123.33 781.04 148.44 769.33 139.73 785 123.33"/></g><g id="tree"><polygon class="cls-12" points="156.75 321.24 210.05 313.58 302.98 313.99 385.01 325.14 236.97 346 156.75 321.24"/><polygon class="cls-18" points="142 128.67 209 159.14 293.55 142 348.5 128.67 236.03 121.5 142 128.67"/><polygon class="cls-19" points="293.55 142 292.54 152.75 253.72 184.42 280.58 150.96 293.55 142"/><polygon class="cls-19" points="294.27 131.33 295.68 118.33 286.13 118.33 282.39 126.67 281.77 138.06 287.19 137 294.27 131.33"/><polygon class="cls-20" points="286.13 118.33 274.42 118.33 281.77 138.06 286.13 118.33"/><polyline class="cls-13" points="247.11 157.71 275.17 141.62 294.27 131.33 293.55 142 283.9 152.75 253.72 184.42 247.11 157.71"/><polygon class="cls-13" points="209 170.61 191.67 161.58 187.33 160.88 182.67 165 206.5 180.83 210.05 178.02 209 170.61"/><polygon class="cls-20" points="206.5 180.83 182.67 165 203.5 192.61 206.5 187.25 206.5 180.83"/><polygon class="cls-14" points="182.67 165 185.67 144.96 182.67 131.33 169.33 126.67 182.67 165"/><polygon class="cls-20" points="182.67 165 191.67 161.58 195.83 135.84 182.67 131.33 182.67 165"/><polygon class="cls-13" points="220.85 203.24 229.22 149.11 226.71 137 210.05 142.67 209 170.61 214.33 190.97 220.85 203.24"/><polygon class="cls-20" points="220.85 203.24 226.71 137 242.74 133 241.81 149.11 240.29 146.82 227 210.33 220.85 203.24"/><polygon class="cls-14" points="242.74 133 256.73 128.67 253.72 135.84 230.45 193.83 242.74 133"/><polygon class="cls-19" points="219.11 262.25 207.75 326.29 219.11 328.79 222.5 313.45 222.5 268.19 219.11 262.25"/><polygon class="cls-13" points="222.5 268.19 219.11 328.79 235.01 331.89 229.22 285.28 222.5 268.19"/><polygon class="cls-20" points="235.01 331.89 200.5 203.24 203.5 192.61 226.71 248.32 252.93 328.79 235.01 331.89"/><polygon class="cls-14" points="252.93 328.79 203.5 192.61 206.5 180.83 232.17 231.47 266.44 322.23 252.93 328.79"/><polygon class="cls-20" points="266.44 322.23 236.03 256.51 206.5 180.83 209 170.61 220.85 203.24 231.19 210.17 278.98 316.54 266.44 322.23"/><polygon class="cls-16" points="98.76 120.5 210.05 142.67 294 128.5 348.5 128.67 386.5 90 245.66 119.5 78 101.5 98.76 120.5"/><polygon class="cls-17" points="245.66 121.5 235.01 82 86.65 84 78 101.5 245.66 121.5"/><polygon class="cls-17" points="386.5 90 369.78 67.5 306.5 90 245.66 121.5 386.5 90"/><polygon class="cls-5" points="230.18 85.5 293.55 64.97 352.48 57.5 355.01 64.5 369.78 67.5 245.66 121.5 230.18 85.5"/><polygon class="cls-6" points="230.18 85.5 130.47 84.46 223.37 53.5 311.52 66.88 230.18 85.5"/><polygon class="cls-17" points="352.48 57.5 344.41 40.5 300.99 49.5 267.83 62.23 311.52 66.88 352.48 57.5"/><polygon class="cls-17" points="130.47 84.46 124.13 76.5 124.13 62.5 196.36 35.03 223.37 57.5 130.47 84.46"/><polygon class="cls-16" points="124.13 62.5 105.68 84 130.47 84.46 127.02 72.49 124.13 62.5"/><polygon class="cls-5" points="195.63 40.5 223.37 57.5 267.83 62.23 344.41 40.5 303.37 23.5 235.01 29 195.63 40.5"/><polygon class="cls-6" points="159.69 51.56 173.75 35.03 209.82 18.5 242.12 16.5 303.37 23.5 195.63 40.5 159.69 51.56"/><polygon class="cls-5" points="209.82 18.5 234.85 5 303.37 23.5 209.82 18.5"/><polygon class="cls-5" points="209.82 18.5 157 27.5 124.13 62.5 159.69 51.56 209.82 18.5"/><polygon class="cls-6" points="311.52 66.88 369.78 67.5 352.48 57.5 311.52 66.88"/></g><g id="mushrooms"><polygon class="cls-21" points="587.5 289.46 599.74 284.58 614.25 290.46 597.48 293.33 587.5 289.46"/><polygon class="cls-21" points="614.25 293.33 624.02 289.46 634.04 293.33 623.03 296.77 614.25 293.33"/><polygon class="cls-21" points="608.03 261.2 615.53 258.66 623.03 263 611.67 264 608.03 261.2"/><polygon class="cls-21" points="653.09 266.45 668.98 272.61 659.45 272.61 653.09 266.45"/><polygon class="cls-21" points="719.2 257.58 732.99 261.87 724 261.87 719.2 257.58"/><polygon class="cls-5" points="599.94 282.63 599.21 289.46 595.67 289.46 595.02 279.7 599.94 282.63"/><polygon class="cls-22" points="613.43 276.3 596.33 261.53 585 273.72 599.94 282.63 613.43 276.3"/><polygon class="cls-23" points="596.33 261.53 599.94 282.63 582 273.72 596.33 261.53"/><polygon class="cls-5" points="623.23 294.46 624.5 286.46 619.7 288.04 621.11 294.46 623.23 294.46"/><polygon class="cls-22" points="624.75 276.7 634.04 285.28 620.01 289.46 613.67 282.16 624.75 276.7"/><polygon class="cls-23" points="620.01 289.46 624.75 276.7 611.67 281.16 620.01 289.46"/><polygon class="cls-5" points="659.87 269.08 661.91 261.2 658.69 261.2 657 267.96 659.87 269.08"/><path class="cls-22" d="M670.23,262.25c-1.48,0-9.34,2.89-9.34,2.89L651.25,260,657,246.67Z"/><polygon class="cls-23" points="657 246.66 660.89 265.14 649.25 260 657 246.66"/><polygon class="cls-5" points="614.82 263 615.67 257.88 612.83 257.88 612.83 263 614.82 263"/><polygon class="cls-22" points="612.83 259.5 623.03 256.34 613.67 248.67 608.03 252.86 612.83 259.5"/><polygon class="cls-23" points="613.67 248.67 612.83 259.5 605.03 252.86 613.67 248.67"/><polygon class="cls-5" points="724.7 259.29 726.5 251.88 723.13 252.08 723.13 258.8 724.7 259.29"/><polygon class="cls-22" points="725.83 254.62 734.5 252.63 725.83 239.63 718.5 250.5 725.83 254.62"/><polygon class="cls-23" points="725.83 239.63 725.83 254.62 716.5 250.5 725.83 239.63"/></g><g id="child"><polygon class="cls-21" points="443.68 294.46 490.01 282.2 549.83 295.91 498.4 308.5 443.68 294.46"/><polygon class="cls-14" points="544.61 177.76 543.35 233.81 546.88 234.44 549.77 232.32 551.94 199.41 554.27 184.46 544.61 177.76"/><polygon class="cls-16" points="537.82 167.09 544.61 177.76 554.27 184.46 555.69 178.87 550.44 172.18 537.82 167.09"/><polygon class="cls-5" points="537.82 167.09 550.44 165.45 560.5 168.98 555.69 178.87 537.82 167.09"/><polygon class="cls-6" points="537.82 167.09 547.58 159.5 552.36 157.12 560.5 168.98 537.82 167.09"/><polygon class="cls-5" points="537.82 167.09 545.95 148.03 552.36 157.12 537.82 167.09"/><polygon class="cls-24" points="481.45 266.97 475.82 272.17 478.11 276.04 482.35 279.63 481.45 266.97"/><polygon class="cls-17" points="475.82 272.17 482.35 279.63 483.92 294.9 469.44 277.94 475.82 272.17"/><polygon class="cls-5" points="488.89 281.16 505.62 296.77 482.92 296.77 482.74 289.46 488.89 281.16"/><polygon class="cls-25" points="503.8 268 482.74 289.46 481.45 266.97 503.8 268"/><polygon class="cls-26" points="481.45 266.97 497.44 274.48 503.8 268 481.45 266.97"/><polygon class="cls-26" points="554.27 184.46 557.44 189.39 551.94 199.41 552.44 189.76 554.27 184.46"/><polygon class="cls-24" points="544.41 186.66 554.27 184.39 551.94 199.34 544.12 199.47 543.35 193.38 544.41 186.66"/><polygon class="cls-25" points="528.6 204.49 544.41 186.66 543.97 206.21 528.6 204.49"/><polygon class="cls-24" points="525.61 202.09 543.97 206.21 520.69 218.25 522.29 207.92 525.61 202.09"/><polygon class="cls-25" points="452.77 170.43 456.42 164.29 453.77 162.87 448.76 168.09 452.77 170.43"/><polygon class="cls-24" points="458.44 195.77 452.1 194.25 443.68 194.56 457.25 210.62 459.11 201.27 458.44 195.77"/><polygon class="cls-25" points="458.44 195.77 449.44 176.56 446.51 176.17 443.68 177.76 443.68 194.56 458.44 195.77"/><polygon class="cls-24" points="449.44 176.56 452.77 170.43 448.08 165.22 443.05 165.92 438.77 168.37 443.68 177.76 449.44 176.56"/><polygon class="cls-25" points="448.08 165.22 443.68 157.12 437.61 161.17 438.77 168.37 448.08 165.22"/><polygon class="cls-25" points="509.6 147.62 512.27 184.16 502.3 185.34 498.54 196.72 481.45 189.89 464.44 172.18 498.27 149.96 504.05 146.62 509.6 147.62"/><polygon class="cls-24" points="512.27 184.16 501.3 185.34 499.54 197.72 481.45 190.89 462.44 172.18 498.27 149.96 501.32 149.29 512.27 184.16"/><polygon class="cls-26" points="512.27 184.16 497.44 177.98 499.54 197.72 502.3 186.34 512.27 184.16"/><polygon class="cls-26" points="497.44 177.98 491.95 175.76 488.04 178.35 493.27 180.95 497.44 177.98"/><polygon class="cls-26" points="496.77 173.84 496.77 168.98 494 169.18 496.77 173.84"/><polygon class="cls-27" points="491.95 175.76 476.5 186.02 462.44 172.18 478.89 168.34 491.95 167.09 491.95 175.76"/><polygon class="cls-19" points="491.95 167.09 497.89 166.09 498.27 169.18 503.57 168.18 501.32 149.29 481.45 151.62 460.44 157.12 462.44 172.18 491.95 167.09"/><polygon class="cls-27" points="508.94 141.46 487.36 137.12 462.29 139.16 460.44 150.43 486.48 148.46 508.94 141.46"/><polygon class="cls-19" points="462.29 139.16 487.92 134.32 502.3 132.29 508.94 141.46 462.29 139.16"/><polygon class="cls-5" points="509.6 147.62 508.94 141.46 460.44 150.43 460.44 157.12 509.6 147.62"/><polygon class="cls-27" points="502.3 132.29 488.36 129.7 462.29 139.16 502.3 132.29"/><polygon class="cls-5" points="499.54 197.72 525.61 202.09 520.35 224.95 503.86 219.71 499.54 197.72"/><polygon class="cls-5" points="465.94 195.77 458.44 195.77 456.66 217.98 466.94 217.4 465.94 195.77"/><polygon class="cls-16" points="499.54 197.72 510.78 244.24 487.36 245.24 466.66 244.24 465.94 195.77 481.45 190.89 499.54 197.72"/><polygon class="cls-19" points="510.78 244.24 516.4 270.29 481.45 266.97 468.66 245.24 510.78 244.24"/><polygon class="cls-27" points="510.78 244.24 481.45 266.97 466.66 244.24 510.78 244.24"/><polygon class="cls-20" points="543.97 206.21 551.94 199.34 544.12 199.47 543.97 206.21"/><polygon class="cls-14" points="548.45 242.6 551.38 246.81 554 251.58 549.83 295.91 546.08 296.13 548.45 242.6"/><polygon class="cls-20" points="543.35 233.81 549.77 232.32 554.69 243.71 554 251.58 549.05 243.64 543.35 233.81"/><polygon class="cls-28" points="506.34 198.86 497.86 209.33 491.74 204.09 499.54 197.72 506.34 198.86"/><polygon class="cls-8" points="497.86 209.33 481.45 192.89 458.44 195.77 450 238.87 473.31 253.46 497.36 243.24 497.86 209.33"/><polygon class="cls-11" points="497.86 209.33 473.31 254.46 486.33 247.15 498.36 244.24 497.86 209.33"/><polygon class="cls-29" points="498.36 244.24 450 238.87 473.31 254.46 498.36 244.24"/><polygon class="cls-10" points="497.86 209.33 468.66 217.98 458.44 195.77 481.45 190.89 497.86 209.33"/><polygon class="cls-17" points="466.19 212.61 476.33 215.71 472.5 226.79 464.28 224.17 466.19 212.61"/><polygon class="cls-8" points="467.83 216.5 472.82 217.77 471 223.15 466.94 222.33 467.83 216.5"/></g><g id="infj"><polygon class="cls-17" points="287.61 302.54 283.72 328.89 276.59 332.06 266.7 328.89 266.57 315.25 287.61 302.54"/><polygon class="cls-5" points="266.7 328.89 264.79 334 275.46 338.96 286.13 333.99 283.72 328.89 275.96 325.9 266.7 328.89"/><polygon class="cls-18" points="266.44 322.23 283.72 328.89 284.55 323.29 275.08 313.58 266.44 322.23"/><polygon class="cls-17" points="272.87 319.23 281 320.33 284.54 323.28 291.35 325.65 297.48 320.3 299.96 312.93 287.84 301.52 272.87 319.23"/><polygon class="cls-5" points="291.35 325.65 299.39 337.36 302.98 313.99 299.96 312.93 291.35 325.65"/><polygon class="cls-18" points="295.73 308.95 284.55 323.29 269.3 317.99 287.61 302.54 295.73 308.95"/><polygon class="cls-14" points="246.86 214.4 224.55 215.5 234.5 231.47 248.65 219.26 246.86 214.4"/><polygon class="cls-2" points="238.89 206.78 227.14 210.28 224.55 215.5 235.09 219.63 239.79 214.71 238.89 206.78"/><polygon class="cls-28" points="232.89 219.15 247.42 241.68 246.81 251.39 257.44 251.39 262.92 251.39 275.07 248.63 283.03 228.24 232.89 219.15"/><polygon class="cls-30" points="242.12 231.47 261.9 251.39 254.41 253.64 245.11 252.94 242.12 231.47"/><polygon class="cls-14" points="292.54 209.35 292.75 218.73 294.41 219.27 301.73 204.56 292.54 209.35"/><polygon class="cls-2" points="293.55 202.52 290.01 196.28 289.7 210.06 292.82 210.95 301.73 204.56 293.55 202.52"/><polygon class="cls-14" points="300.99 190.97 287.88 191.84 286.84 197.37 290.97 201.29 293.55 202.52 300.99 190.97"/><polygon class="cls-1" points="288.29 175.37 285.88 174.83 288.72 192.57 300.99 190.97 288.29 175.37"/><polygon class="cls-7" points="269.5 144.96 274.7 149.82 283.9 152.75 275.17 141.62 268.15 139.73 267.51 143.12 269.5 144.96"/><polygon class="cls-1" points="268.15 139.73 253.72 135.84 256.84 145.23 262.18 153.23 266.91 150.24 269.5 144.96 268.15 139.73"/><polygon class="cls-2" points="239.34 147.6 241.66 149.43 241.81 149.11 250.11 152.77 262.15 153.25 262.18 153.23 253.72 135.84 239.34 147.6"/><polygon class="cls-31" points="224.75 159.14 232.67 181.29 234.97 181.32 240.15 184.22 242.2 166.78 237.26 161.71 241.81 149.11 240.29 146.82 224.75 159.14"/><polygon class="cls-14" points="243.88 197.56 220.85 203.24 227.14 210.28 239.79 214.71 243.88 207.5 243.88 197.56"/><polygon class="cls-1" points="236.96 186.75 233.73 187.52 231.19 184.42 220.85 203.24 237.59 200.56 236.96 186.75"/><polygon class="cls-28" points="243.11 253.94 234.5 322.28 266.44 322.23 295.73 308.95 296.27 255.78 292.41 243.14 261.9 251.39 243.11 253.94"/><polygon class="cls-8" points="266.12 317.89 290.28 253.12 283.03 248.32 261.9 260.86 266.12 317.89"/><polygon class="cls-16" points="235.05 317.89 266.12 317.89 295.73 304.63 295.73 308.95 266.44 322.23 234.5 322.28 235.05 317.89"/><polygon class="cls-31" points="288.36 176 288.4 176.14 288.38 176 288.36 176"/><polygon class="cls-28" points="288.05 239 294.68 236.73 291.37 230 288.05 239"/><polygon class="cls-5" points="267.32 246.09 268.18 246.63 267.32 246.09 267.32 246.09"/><polygon class="cls-16" points="289 230.12 285.66 239.17 285.34 239.92 288.05 239 291.37 230 290.1 227.42 289 230.12"/><polygon class="cls-5" points="263.37 215.68 260.51 220.97 246.93 225.93 271.26 242.55 283.36 228.65 278.47 204.65 263.37 215.68"/><polygon class="cls-6" points="250.83 227.42 262.81 220.92 253.58 215.99 239.79 214.71 236.97 217.03 250.83 227.42"/><polygon class="cls-18" points="278.5 204.71 278.47 204.65 278.37 204.72 278.5 204.71"/><polygon class="cls-16" points="273.61 242.09 236.97 217.03 232.89 219.15 276.1 249.33 284.56 259.5 286.78 246.09 288.36 237.53 277.29 231.5 273.61 242.09"/><polygon class="cls-16" points="265.14 213 239.69 209.33 239.79 214.71 267.15 222.09 265.14 213"/><polygon class="cls-25" points="293.55 202.52 283.9 152.75 269.5 144.96 262.15 153.25 241.81 149.11 241.41 149.93 246.2 161.51 258.39 213 275.43 207.89 293.55 202.52"/><polygon class="cls-32" points="269.97 163.66 274.29 169.53 278.28 185.84 272.46 187.25 268.94 171.13 264.23 164.8 269.97 163.66"/><polygon class="cls-29" points="260.14 161.21 260.87 163.25 253.6 168.8 252.59 166.41 260.14 161.21"/><polygon class="cls-29" points="270.9 159.14 271.78 161.58 278.98 162.62 278.96 161.48 270.9 159.14"/><polygon class="cls-24" points="253.6 168.8 271.3 181.97 268.94 171.13 264.23 164.8 269.97 163.66 274.43 170.12 275.96 176.37 278.98 162.62 271.78 161.58 260.87 163.25 253.6 168.8"/><path d="M279.5,170.09c.38,1.62,0,3.17-.86,3.45s-1.86-.8-2.24-2.42,0-3.17.86-3.45S279.12,168.47,279.5,170.09Z"/><path d="M263,174.21c.35,1.72-.26,3.41-1.34,3.75s-2.23-.77-2.57-2.5.26-3.41,1.34-3.76S262.66,172.48,263,174.21Z"/><polygon class="cls-24" points="247.11 157.71 241.81 149.11 235.13 162.56 240.67 165.64 239.69 183.08 234.88 180.44 232.67 181.29 228.06 183.11 232.12 194.16 236.03 193.09 239.01 193.13 237.59 200.56 239.69 209.33 252.93 212.47 258.32 212.54 247.11 157.71"/><polygon class="cls-26" points="236.03 193.09 237.59 200.56 241.11 191.61 236.03 193.09"/><polygon class="cls-26" points="265.04 215.33 263.85 210.75 258.35 211.59 252.93 212.47 265.04 215.33"/><polygon class="cls-31" points="278.28 185.84 272.46 187.25 276.57 189.1 278.28 185.84"/><polygon class="cls-26" points="231.19 184.42 237.81 187.1 235.99 182.75 231.19 184.42"/><polygon class="cls-2" points="272.46 187.25 259.44 195.46 268.79 243.25 284.07 256.14 285 257.88 287.94 247.94 282.57 218.91 276.57 189.1 272.46 187.25"/><polygon class="cls-7" points="291.29 254.73 297.81 237.07 289.32 192.65 278.28 185.84 276.57 189.1 282.98 226.48 290.75 256.63 291.29 254.73"/><polygon class="cls-30" points="291.81 258.24 284.56 259.5 284.07 256.14 291.29 254.73 291.81 258.24"/><polygon class="cls-5" points="245.8 302.31 244.54 303.44 246.8 303.05 252.94 287.25 249.98 289.39 245.8 302.31"/><polygon class="cls-16" points="244.54 303.44 245.8 302.31 249.98 289.39 252.94 287.25 251.59 280.12 256.91 275.71 255.78 272.96 258.5 264.42 260.62 265.03 260.62 265.03 261.18 263.44 263.85 253.96 258.55 253.64 253.78 273.07 248.19 278.8 249.3 287.77 244.54 303.44"/><polygon class="cls-5" points="258.5 264.42 255.78 272.96 256.91 275.71 260.62 265.03 260.62 265.03 258.5 264.42"/><polygon class="cls-29" points="266.44 194.28 277.58 194.25 284.17 190.97 284.81 192.61 277.79 196.24 266.69 196.24 266.44 194.28"/><polygon class="cls-11" points="294.27 218.56 313.5 233.64 297.06 233.14 294.27 218.56"/><polygon class="cls-29" points="313.5 233.64 307.94 248.96 289.33 260 288.96 240.25 300.3 236.62 313.5 233.64"/><polygon class="cls-28" points="313.5 233.64 302.86 233.07 293.21 232.29 286.14 232.29 288.96 240.25 313.5 233.64"/><polygon class="cls-25" points="282.98 226.48 294.94 222.09 292.65 232.6 286.14 232.29 284.07 230 282.98 226.48"/><polygon class="cls-24" points="294.94 222.09 302.86 233.07 292.65 232.6 294.94 222.09"/><polygon class="cls-29" points="232.89 219.15 245.35 249.96 286.5 240.83 287.19 251.39 285.63 264.52 236.03 256.51 232.89 219.15"/><polygon class="cls-8" points="232.89 219.15 245.63 228.04 249.59 239 249.59 245.46 245.35 249.96 232.89 219.15"/><polygon class="cls-28" points="249.59 239 279.34 227.79 284.42 234.5 286.5 240.83 245.35 249.96 249.59 239"/><polygon class="cls-16" points="279.34 227.79 282.98 226.48 290.28 239.92 289.5 265.08 285.63 264.52 286.5 240.83 279.34 227.79"/><polygon class="cls-24" points="266.69 232.53 254.2 225.59 249.59 239 266.69 232.53"/><polygon class="cls-25" points="254.2 225.59 241.11 228.91 249.59 239 254.2 225.59"/></g></svg>