<svg id="illustration_kopia_4" data-name="illustration kopia 4" xmlns="http://www.w3.org/2000/svg" xmlns:xlink="http://www.w3.org/1999/xlink" viewBox="0 0 900 350"><defs><style>.cls-1{fill:none;clip-rule:evenodd;}.cls-2,.cls-25,.cls-3,.cls-43{fill:#2b2b2b;}.cls-10,.cls-11,.cls-12,.cls-13,.cls-14,.cls-15,.cls-16,.cls-17,.cls-18,.cls-19,.cls-2,.cls-20,.cls-21,.cls-22,.cls-23,.cls-24,.cls-26,.cls-27,.cls-28,.cls-3,.cls-30,.cls-31,.cls-35,.cls-37,.cls-38,.cls-39,.cls-40,.cls-41,.cls-42,.cls-43,.cls-44,.cls-47,.cls-48,.cls-51,.cls-52,.cls-53,.cls-54,.cls-55,.cls-56,.cls-57,.cls-6,.cls-64,.cls-7,.cls-8,.cls-9{fill-rule:evenodd;}.cls-2,.cls-31{opacity:0.2;}.cls-20,.cls-27,.cls-3{opacity:0.1;}.cls-4,.cls-6{fill:#98c16d;}.cls-16,.cls-5{fill:#3f8e6f;}.cls-7{fill:#beda8d;}.cls-63,.cls-8{fill:#4f5253;}.cls-9{fill:#6f7173;}.cls-10,.cls-20,.cls-60{fill:#737373;}.cls-11,.cls-62{fill:#848585;}.cls-12,.cls-61{fill:#9ca0a1;}.cls-13,.cls-58{fill:#c3c3c3;}.cls-14{fill:#cdcdcc;}.cls-15,.cls-36{fill:#35785d;}.cls-17{fill:#72c8a5;}.cls-18,.cls-59{fill:#54af8a;}.cls-19{fill:#738c57;}.cls-21{fill:#f4c9b2;}.cls-22{fill:#fce3d4;}.cls-23{fill:#c1907d;}.cls-24{fill:#ffefe7;}.cls-26,.cls-34{fill:#709c53;}.cls-28{fill:#8e8e8e;}.cls-29{clip-path:url(#clip-path);}.cls-30,.cls-33{fill:#ebebea;}.cls-32,.cls-35{fill:#5a753d;}.cls-37{fill:#c2977b;}.cls-38{fill:#8a6651;}.cls-39{fill:#debca4;}.cls-40{fill:#a17e6e;}.cls-41{fill:#7f5d4e;}.cls-42{fill:#a98c80;}.cls-44{fill:#593e35;}.cls-45,.cls-55{fill:#d8e254;}.cls-46,.cls-47{fill:#ab913c;}.cls-48{fill:#e7c9b5;}.cls-49,.cls-54{fill:#b7c645;}.cls-50{fill:#e7ef78;}.cls-51{fill:#9fce7e;}.cls-52{fill:#cfae95;}.cls-53{fill:#474747;}.cls-56{fill:#fff;}.cls-57{fill:#dcdcdb;}.cls-64{fill:#a2a2a2;}</style><clipPath id="clip-path"><polygon class="cls-1" points="488.35 13.66 497.05 101.95 516.61 116.92 490.34 119.01 482.19 166.54 409.47 171.82 242.22 129.1 308.12 0 488.35 13.66"/></clipPath></defs><title>diplomats_Advocate_INFJ_weaknesses</title><polygon class="cls-2" points="93.13 273.33 99 256.16 91 245.22 96.33 220.72 39.25 215.38 34.69 239.36 41.72 240.43 45.37 222.02 88.06 227.01 85.13 244.36 70.98 242.03 69.59 273.33 93.13 273.33"/><polygon class="cls-3" points="39.25 287.39 100.6 278.92 93.13 273.33 37.05 273.14 0 282.51 39.25 287.39"/><polygon class="cls-2" points="302.64 272.81 302.64 254.06 277.38 214.92 279.16 199.53 261.37 193.09 257.81 224.61 225.33 261.53 209.88 259.15 211.36 93.41 202.61 96.22 199.36 257.67 167.08 267.98 272.26 272.81 302.64 272.81"/><polygon class="cls-3" points="147.97 274.27 187.69 282.51 238.06 287.89 288.08 282.51 302.64 272.81 246.91 272.81 147.97 274.27"/><rect class="cls-4" x="192.58" y="92.38" width="9.67" height="166.03" transform="translate(20.46 -20.62) rotate(6.31)"/><rect class="cls-5" x="151.03" y="254.03" width="73.68" height="15.3" transform="translate(29.88 -19.05) rotate(6.31)"/><polygon class="cls-6" points="224.16 268.73 224.26 283.6 214.45 282.51 202.61 280.31 185.91 279.36 181.14 278.92 169.99 276.7 160.88 274.08 147.97 274.27 150.92 260.63 224.16 268.73"/><polygon class="cls-7" points="213.69 267.57 214.45 282.51 202.61 280.31 206.26 266.75 213.69 267.57"/><polygon class="cls-7" points="185.91 279.36 187.69 264.7 182.73 264.15 181.14 278.92 185.91 279.36"/><polygon class="cls-7" points="169.99 276.7 175.16 263.31 161.97 261.85 160.88 274.08 169.99 276.7"/><polygon class="cls-7" points="199.36 265.99 197.81 280.04 192.47 279.73 195.65 265.58 199.36 265.99"/><polygon class="cls-8" points="280.76 254.71 267.51 282.92 238.06 286.07 257.62 267.62 280.76 254.71"/><polygon class="cls-9" points="206.26 266.75 223.03 283.36 238.06 286.07 224.71 251.95 206.26 266.75"/><polygon class="cls-10" points="257.81 270.47 238.06 286.07 236.75 272.31 238.62 261.53 247 263.54 257.81 270.47"/><polygon class="cls-11" points="238.06 286.07 224.01 254.71 232.46 255.89 238.62 261.53 238.06 286.07"/><polygon class="cls-10" points="254.25 217.41 280.76 254.71 257.81 270.47 254.25 246.29 254.25 217.41"/><polygon class="cls-11" points="234.77 212.53 206.26 266.75 224.01 254.71 229.4 241.22 234.77 212.53"/><polygon class="cls-10" points="236.75 204.77 222.05 191.17 234.77 183.89 236.75 204.77"/><polygon class="cls-8" points="236.75 204.77 231.32 176.15 244.03 176.15 240.47 204.77 236.75 204.77"/><polygon class="cls-11" points="249.27 201.84 259.23 171.5 245.36 170.96 236.75 204.77 236.28 208.78 234.77 232.85 238.62 261.53 257.81 270.47 254.25 217.41 250.38 208.93 249.27 201.84"/><polygon class="cls-12" points="236.11 207.31 238.62 261.53 224.01 254.71 236.11 207.31"/><polygon class="cls-13" points="234.77 212.53 254.25 217.41 251.94 210.2 235.69 208.93 234.77 212.53"/><polygon class="cls-11" points="235.69 208.93 251.94 210.2 250.38 205.29 236.75 204.77 235.69 208.93"/><polygon class="cls-14" points="235.69 208.93 250.38 205.29 249.27 201.84 236.75 204.77 235.69 208.93"/><polygon class="cls-15" points="39.25 258.44 78 236.75 37.05 228.7 39.25 258.44"/><polygon class="cls-16" points="37.05 228.7 1.87 239.36 41.72 257.67 37.05 228.7"/><polygon class="cls-17" points="1.87 239.36 13.08 281.5 39.25 287.39 40.96 261.68 40.21 248.29 1.87 239.36"/><polygon class="cls-18" points="78 236.75 68.05 280.07 39.25 287.39 40.21 248.29 78 236.75"/><polygon class="cls-6" points="1.87 239.36 1.87 203.61 6.94 207.48 8.01 211.6 6.2 240.43 1.87 239.36"/><polygon class="cls-6" points="78 236.75 70.98 199.53 65.91 203.61 65.91 206.75 72.32 238.48 78 236.75"/><polygon class="cls-19" points="8.01 211.6 65.91 206.75 70.98 199.53 1.87 203.61 8.01 211.6"/><polygon class="cls-20" points="86.8 332.43 159.75 318.21 237.76 329.63 148.72 343.9 86.8 332.43"/><polygon class="cls-15" points="173.72 320.7 173.72 331.1 178.26 331.1 180.58 325.9 178.39 323.23 173.72 320.7"/><polygon class="cls-21" points="169.63 280.35 175.17 291.8 181.72 311.72 178.92 313.78 173.72 313.78 141.43 278.03 169.63 280.35"/><polygon class="cls-21" points="133.16 278.03 128.22 313.78 123.82 314.96 118.57 313.78 112.97 297.49 109.94 280.27 133.16 278.03"/><polygon class="cls-22" points="181.72 311.72 197.56 324.7 185.64 323.76 173.72 320.7 173.72 313.78 181.72 311.72"/><polygon class="cls-22" points="128.22 313.78 135.83 327.37 127.73 329.63 119.82 328.79 118.57 313.78 128.22 313.78"/><polygon class="cls-16" points="197.56 324.7 207.88 332.43 189.2 332.43 173.72 320.7 197.56 324.7"/><polygon class="cls-16" points="135.83 327.37 141.43 335.37 119.82 334.3 119.82 328.79 135.83 327.37"/><polygon class="cls-23" points="112.97 297.5 129.3 305.97 130.69 295.9 121.83 294.56 112.97 297.5"/><polygon class="cls-23" points="175.18 291.81 162.28 301.12 155.5 293.61 164.51 290.43 175.18 291.81"/><polygon class="cls-23" points="93 249.49 85.15 244.16 93 234.82 94.33 241.36 93 249.49"/><polygon class="cls-21" points="93 230.29 93 249.49 100.34 242.16 102.71 235.97 98.2 231.22 93 230.29"/><polygon class="cls-21" points="184.41 187.09 157.54 214.5 162.86 183.68 184.41 187.09"/><polygon class="cls-22" points="70.89 194.37 93 230.29 102.71 235.97 97.7 199.09 70.89 194.37"/><polygon class="cls-16" points="98.2 171.89 70.89 194.37 106.47 204.69 106.47 188.29 98.2 171.89"/><polygon class="cls-16" points="148.72 157.09 184.41 187.09 165.71 187.09 156.11 175.62 148.72 157.09"/><polygon class="cls-16" points="106.47 204.69 135.83 193.49 165.71 187.09 153.44 228.26 111.12 224.27 106.47 204.69"/><polygon class="cls-22" points="112.34 161.48 98.2 171.89 135.29 183.68 148.72 157.09 112.34 161.48"/><polygon class="cls-8" points="163.28 73.97 176.92 86.63 167.57 109.48 159.75 84.59 163.28 73.97"/><polygon class="cls-8" points="75.88 120.59 70.89 138.81 99.4 146.96 88.24 132.19 75.88 120.59"/><polygon class="cls-9" points="162.25 82.81 165.89 51.78 125.15 67.88 88.86 77.39 100.16 89.92 108.34 96.14 162.25 82.81"/><polygon class="cls-8" points="88.86 77.39 78.01 112.14 95 105.39 108.34 96.14 102.39 86.81 88.86 77.39"/><polygon class="cls-11" points="108.34 96.14 106.58 113.75 91.23 113.75 78.01 112.14 108.34 96.14"/><polygon class="cls-9" points="106.58 113.75 106.58 125.04 100.25 128.95 95.8 122.01 82.94 128.5 75.88 120.59 78.01 112.14 106.58 113.75"/><polygon class="cls-22" points="162.25 82.81 173.72 140.24 139.3 148.31 131.29 161.22 113.14 157.09 88.86 127.31 95.53 123.35 101.14 130.02 107.27 127.31 108.34 96.14 162.25 82.81"/><polygon class="cls-21" points="108.34 96.14 120.88 152.6 139.3 148.31 132.63 163.89 112.34 161.48 82.94 128.5 95.8 120.15 100.34 127.31 105.51 124.48 108.34 96.14"/><polygon class="cls-23" points="139.3 148.31 117.15 153.29 132.63 163.89 139.3 148.31"/><polygon class="cls-21" points="125.15 106.55 156.11 100.14 148.11 116.72 141.97 122.01 125.15 106.55"/><polygon class="cls-24" points="137.67 103.96 141.97 122.01 148.72 120.59 145.81 102.28 137.67 103.96"/><polygon class="cls-23" points="141.97 122.01 146.41 125.39 148.72 120.59 141.97 122.01"/><circle class="cls-25" cx="153.44" cy="109.48" r="2.67"/><circle class="cls-25" cx="133.16" cy="113.75" r="2.67"/><polygon class="cls-11" points="108.34 96.14 165.89 51.78 88.86 77.39 108.34 96.14"/><polygon class="cls-23" points="94.36 141.31 102.39 136.41 99.4 146.96 94.36 141.31"/><polygon class="cls-23" points="88.86 130.02 93.17 127.31 97.13 133.28 88.86 130.02"/><polygon class="cls-18" points="137.78 134.81 148.81 137.48 155.57 131.26 147.66 133.39 137.78 134.81"/><polygon class="cls-15" points="137.78 134.81 147.03 128.77 155.57 131.26 147.84 134.1 137.78 134.81"/><polygon class="cls-8" points="137.67 103.96 136.54 100.14 125.15 106.55 137.67 103.96"/><polygon class="cls-8" points="145.81 102.28 145.26 98.01 156.11 100.14 145.81 102.28"/><polygon class="cls-18" points="98.2 171.89 106.47 204.69 165.71 187.09 148.72 157.09 133.16 179.41 98.2 171.89"/><polygon class="cls-6" points="153.44 228.26 111.12 224.27 93 249.49 111.45 268.48 142.5 264.85 161.88 252.38 153.44 228.26"/><polygon class="cls-19" points="161.88 252.38 175.18 291.81 112.97 297.5 106.47 278.61 161.88 252.38"/><polygon class="cls-26" points="161.88 252.38 93 249.49 106.47 278.61 161.88 252.38"/><polygon class="cls-15" points="549.7 37.24 745.07 34.51 733.79 196.99 557.93 201.01 549.7 37.24"/><polygon class="cls-27" points="556.32 177.37 573.85 169.05 576.85 176.54 587.86 177.56 589.86 167.06 603.2 163 605.2 167.06 625.55 170.28 628.21 178.51 642.35 163 654.56 159.65 656.57 164.76 670.48 168.55 675.17 176.54 679.87 164.76 696.28 161.15 711.08 165.26 722.94 161.15 731.23 161.15 729.69 199.32 643.77 199.32 556.32 200.71 556.32 177.37"/><polygon class="cls-28" points="555.18 41.02 740.12 36.55 736.36 54.91 639.39 50.22 554.5 50.9 555.18 41.02"/><polygon class="cls-28" points="731.57 136.01 553.13 129.48 554.84 143.49 639.39 147.24 731.57 145.53 731.57 136.01"/><polygon class="cls-12" points="733.79 41.02 727.64 54.71 725.52 131.29 733.79 127.02 733.79 41.02"/><polygon class="cls-12" points="727.64 138.78 719.95 145.53 719.95 197.97 729.69 199.32 727.64 138.78"/><polygon class="cls-12" points="559.63 44.75 569.68 50.78 562.71 123.37 554.5 123.15 559.63 44.75"/><polygon class="cls-12" points="558.46 134.28 566.47 143.62 566.47 200.4 557.93 201.01 558.46 134.28"/><path class="cls-14" d="M538,29.38l11.9,184.75,191.59-3,15.39-191Zm95.75,161.5-71,4.36-4.25-61,76.08,5ZM559.41,119l.22-74.27L637.47,41l1.92,82.35Zm166.12,75.46-79.51-3V136l81.62,2.77Zm4.16-73.64-78.09,2.07L651.29,41h82.5Z"/><polygon class="cls-18" points="717.38 65.59 696.02 82.13 675.17 104.45 700.48 83.7 717.38 65.59"/><polygon class="cls-18" points="679.67 89.34 706.95 67.62 694.01 73.86 679.67 89.34"/><polygon class="cls-16" points="709.85 99.27 708.89 94.84 712.59 93.27 709.85 85.77 720.49 79.96 717.58 87.84 719.6 91.42 717.69 95.83 709.85 99.27"/><polygon class="cls-16" points="677.24 57.05 686.83 57.05 682.45 65.59 675.17 67.62 670.48 61.15 677.24 57.05"/><polygon class="cls-6" points="679.87 112.1 676.18 112.1 676.18 116.63 679.87 116.63 681.31 114.25 679.87 112.1"/><polygon class="cls-16" points="683.54 118.79 680.85 128.88 678.02 129.48 679.67 132.31 682.77 130.29 689.06 122.03 686.83 118.79 683.54 118.79"/><polygon class="cls-18" points="691.15 199.86 681.71 155.74 698.82 154.03 714.69 156.62 707.3 200.71 691.15 199.86"/><polygon class="cls-17" points="681.71 155.74 693.97 118.2 703.2 118.2 714.69 156.62 681.71 155.74"/><polygon class="cls-27" points="692.64 122.27 691.5 125.78 706.14 128.05 704.66 123.08 698.2 120.45 692.64 122.27"/><polygon class="cls-6" points="689.06 122.03 709.05 123.37 709.05 114.36 706.96 105.91 688.18 106.48 686.83 114.64 689.06 122.03"/><polygon class="cls-26" points="706.96 105.91 715.21 112.1 714.18 121.29 709.05 123.37 706.96 105.91"/><polygon class="cls-26" points="688.18 106.48 679.87 112.1 679.87 116.63 689.06 122.03 688.18 106.48"/><polygon class="cls-16" points="666.46 78.48 670.48 74.88 672.78 79.96 668.38 84.72 666.46 78.48"/><g class="cls-29"><polygon class="cls-7" points="261.6 74.88 308.12 -6.15 505.61 -6.15 522.87 152.74 438.4 200.83 229.92 130.75 261.6 74.88"/><polygon class="cls-30" points="505.61 74.88 476.04 74.88 467.75 81.96 482.19 84.06 484.72 90.36 510.98 84.72 505.61 74.88"/><polygon class="cls-30" points="381.17 66.28 404.75 62.34 435.02 62.34 432.22 69.38 412.46 74.88 398.17 76.42 381.17 66.28"/><polygon class="cls-30" points="428.69 36.64 290.4 10.08 254.7 79.72 428.69 39.63 428.69 36.64"/><polygon class="cls-30" points="445.44 36.64 522.68 10.08 524 63.36 445.44 39.63 445.44 36.64"/><polygon class="cls-26" points="396.06 169.85 260.63 62.34 223.76 137.81 397.87 190.32 396.06 169.85"/><polygon class="cls-16" points="349.84 168.04 428.69 74.88 445.44 74.88 532.4 160.35 441.51 194.53 349.84 168.04"/><polygon class="cls-17" points="383.73 176.88 476.04 124.29 438.4 99.13 448.88 88.55 440.09 74.88 434.68 74.88 438.4 87.54 421.58 99.64 448.88 122.98 349.84 168.04 383.73 176.88"/><polygon class="cls-6" points="442.37 41.02 431.77 41.02 428.69 74.88 445.44 74.88 442.37 41.02"/><polygon class="cls-31" points="431.34 45.73 443.03 48.3 442.37 41.02 431.77 41.02 431.34 45.73"/><rect class="cls-4" x="428.69" y="34.5" width="16.75" height="10.25"/><polygon class="cls-18" points="428.69 34.51 437.07 25.96 445.44 34.51 428.69 34.51"/><rect class="cls-32" x="434.68" y="66.28" width="5.21" height="8.6"/><rect class="cls-33" x="428.69" y="36.64" width="16.75" height="2.99"/><polygon class="cls-34" points="313 183.43 310.5 203.05 307.02 203.36 304.34 201.45 303.24 195.47 305.9 190.23 313 183.43"/><polygon class="cls-27" points="272.39 216.94 302 214.01 324.94 217.61 296.3 221.64 272.39 216.94"/><polyline class="cls-35" points="310.5 203.05 304.95 211.04 295.14 211.27 289.3 210.13 295.14 199.05 310.5 203.05"/><polygon class="cls-16" points="289.3 210.13 286.88 214.06 291.19 215.6 295.19 215.6 294.2 210.13 289.3 210.13"/><polygon class="cls-36" points="286.88 214.06 286.49 215.97 295.9 217.9 295.19 215.6 286.88 214.06"/><polyline class="cls-6" points="303.24 195.47 304.34 201.45 298.2 206.75 291.04 209.65 285.69 195.47 285 187.75 297.03 191.01 303.24 195.47"/><polygon class="cls-34" points="304.34 201.45 307.02 210.13 301 213.35 294.2 215.75 291.04 209.65 304.34 201.45"/><polygon class="cls-37" points="320.2 175.15 321.21 180.4 323.12 184.25 323.41 187.24 316.7 189.76 313 181.25 314.18 178.16 320.2 175.15"/><polygon class="cls-38" points="318.2 176.04 320.2 179.02 320.66 182.34 314.53 184.76 313 181.25 313.46 178.16 315.3 175.15 318.2 176.04"/><polygon class="cls-39" points="320.2 175.15 322.7 179.96 323.12 184.25 321.6 184.76 318.2 176.04 320.2 175.15"/><polygon class="cls-37" points="280.49 183.96 282.19 188.69 279.42 194.25 278.9 187.75 280.49 183.96"/><polygon class="cls-39" points="280.49 183.96 279.42 194.25 271.69 191.56 271.69 181.25 276.59 180.4 280.49 183.96"/><polygon class="cls-6" points="316.2 164.48 320.2 175.15 313.46 178.16 311.26 172.11 312.5 165.07 314.18 162.98 316.2 164.48"/><polygon class="cls-6" points="281.49 174.08 280.49 183.96 271.69 181.25 271.69 165.07 278.24 169.3 281.49 174.08"/><polygon class="cls-26" points="311.6 149.67 316.2 164.48 312.5 165.07 310.5 158.88 311.6 149.67"/><polygon class="cls-26" points="278.29 151.87 283.33 159.31 284 170.82 281.49 174.08 271.69 165.07 278.29 151.87"/><polygon class="cls-16" points="286.11 144.21 297.6 156.46 301 144.56 286.11 144.21"/><polygon class="cls-40" points="308.4 114.59 311.6 140.38 303.4 141.97 295.6 148.15 280.19 140.57 275.19 132.78 279.59 119.58 291.88 113.79 299.3 116.28 303.4 113.43 308.4 114.59"/><polygon class="cls-41" points="284.67 117.71 286.88 142.96 303.4 141.97 295.8 150.17 280.19 140.57 275.19 132.78 279.59 119.58 284.67 117.71"/><polygon class="cls-41" points="306 123.11 300.62 128.23 301 132.18 297.6 132.49 294.82 127.8 290.4 124.4 306 123.11"/><polygon class="cls-42" points="300.17 123.6 301 132.18 297.6 132.49 296.59 123.89 300.17 123.6"/><polygon class="cls-16" points="306 123.11 300.26 122.59 300.17 123.6 306 123.11"/><polygon class="cls-16" points="296.59 123.89 296.59 122.59 290.4 124.4 296.59 123.89"/><path class="cls-43" d="M304.34,127.12a1.11,1.11,0,1,1-1.1-1.1A1.11,1.11,0,0,1,304.34,127.12Z"/><path class="cls-43" d="M295.3,127.8a1.11,1.11,0,1,1-1.1-1.1A1.11,1.11,0,0,1,295.3,127.8Z"/><polygon class="cls-16" points="301 132.18 306.4 135.03 292.66 136.24 297.6 132.49 301 132.18"/><polygon class="cls-31" points="297.6 132.49 299.53 133.91 301 132.18 297.6 132.49"/><polygon class="cls-16" points="279.59 119.58 282.19 131.11 279.93 132.18 278.46 130.2 275.19 132.78 274.39 118.44 278.9 118.35 279.59 119.58"/><polygon class="cls-18" points="279.59 119.58 292.26 114.91 292.66 112.34 290.4 109.45 274.39 118.44 279.59 119.58"/><polygon class="cls-16" points="290.4 109.45 301 111.12 303.24 112.34 303.66 114.19 298.8 117.78 292.26 114.91 290.4 109.45"/><polygon class="cls-18" points="301 111.12 308.4 112.79 308.4 114.59 303.66 114.19 301 111.12"/><polygon class="cls-44" points="303.4 141.97 286.88 142.96 286.49 144.62 295.8 150.17 303.4 141.97"/><polygon class="cls-44" points="280.99 135.33 277.84 136.9 280.05 140.35 280.99 135.33"/><polygon class="cls-44" points="278.29 132.18 279.42 134.13 277.06 133.05 278.29 132.18"/><polygon class="cls-18" points="286.49 144.62 278.29 151.87 284 170.82 292.26 164.48 297.6 156.46 286.49 144.62"/><polygon class="cls-18" points="301 144.47 311.6 149.67 312.5 165.07 304.7 162.21 297.6 156.46 301 144.47"/><polygon class="cls-6" points="286.49 144.62 297.6 156.46 290.4 158.06 286.49 144.62"/><polygon class="cls-6" points="301 144.47 304.34 156.46 297.6 156.46 301 144.47"/><polygon class="cls-35" points="313 183.43 303.24 195.47 285 187.75 313 183.43"/><polygon class="cls-36" points="284 170.82 297.6 156.46 301 168.21 301.6 179.96 293.55 181.88 284.5 182.56 284 170.82"/><polygon class="cls-5" points="297.6 156.46 312.5 165.07 313.46 178.16 307.02 180.4 301.6 179.96 297.6 156.46"/><polyline class="cls-26" points="284.5 182.56 285 187.75 313 183.43 313.46 178.16 284.5 182.56"/><polyline class="cls-6" points="298.71 180.4 299.3 185.54 305.05 184.65 305.05 179.44 298.71 180.4"/><polyline class="cls-16" points="307.02 210.13 315.7 214.15 304.34 217.96 295.6 219.34 294.2 215.75 307.02 210.13"/><polygon class="cls-36" points="315.7 214.15 316.2 216.73 296.3 221.64 295.6 219.34 315.7 214.15"/><polygon class="cls-32" points="274.04 205.22 287.09 206.9 275.45 211.56 270.89 208.46 271.68 205.94 274.04 205.22"/><polygon class="cls-39" points="270.89 196.46 274.04 205.22 270.89 208.46 260.79 199.56 270.89 196.46"/><polygon class="cls-38" points="270.89 196.46 265.3 203.52 260.79 199.56 270.89 196.46"/><polyline class="cls-37" points="246.89 145.94 242.57 159.41 247.61 168.99 251.21 165.41 246.89 145.94"/><polygon class="cls-27" points="232.81 212.84 261.77 210.37 292.01 213.25 260.81 214.69 232.81 212.84"/><polygon class="cls-32" points="246.89 206.75 254.35 213.37 242.57 213.37 240.01 206.04 243.53 205.46 246.89 206.75"/><polygon class="cls-39" points="240.9 200.3 240.01 206.04 246.89 206.75 243.9 202.46 240.9 200.3"/><polygon class="cls-16" points="246.24 185.29 240.9 200.3 246.89 206.75 246.24 185.29"/><polygon class="cls-18" points="265.17 177.92 270.89 196.46 246.89 206.75 243.53 179.2 257.21 176.36 265.17 177.92"/><polygon class="cls-16" points="263.82 167.45 265.17 177.92 243.53 179.2 249.09 165.29 256.47 164.71 263.82 167.45"/><polygon class="cls-37" points="265.99 163.34 271.29 163.34 274.37 167.45 269.2 166.59 265.99 163.34"/><polygon class="cls-26" points="274.37 147.48 263.82 167.45 251.21 163.34 246.89 145.94 251.34 138.04 265.92 144.77 274.37 147.48"/><polygon class="cls-45" points="269.96 91.2 253.61 92.22 246.89 99.26 255.95 97.89 269.96 91.2"/><polygon class="cls-45" points="241.94 121.76 238.25 111.57 246.89 99.26 245.83 108.65 241.94 121.76"/><polygon class="cls-46" points="278.33 95.97 284.81 100.08 280.57 109.51 278.88 105.44 278.33 95.97"/><polygon class="cls-39" points="278.33 95.97 282.89 123.56 255.51 128.98 249.09 122.24 278.33 95.97"/><polygon class="cls-37" points="276.79 107.42 272.08 112.21 271.68 114.52 270.63 116.53 268.79 115.79 265.69 112.52 261.6 111.01 265.59 107.42 276.38 105.39 276.79 107.42"/><polygon class="cls-47" points="271.29 106.22 276.38 105.39 276.79 107.42 271.29 106.22"/><polygon class="cls-48" points="271.29 106.22 272.46 115.04 268.79 115.79 267.46 106.88 271.29 106.22"/><polygon class="cls-38" points="271.68 125.78 263.05 134.86 255.95 128.98 271.68 125.78"/><polyline class="cls-37" points="259.25 115 262.24 127.65 256.81 128.8 250.7 123.07 259.25 115"/><polygon class="cls-39" points="263.05 134.86 274.37 147.48 265.17 146.72 263.05 140.99 263.05 134.86"/><polygon class="cls-37" points="252.67 155.9 265.99 163.34 265.92 165.72 263.82 167.45 249.09 165.29 250.19 159.95 252.67 155.9"/><polyline class="cls-39" points="257.75 142.57 249.09 165.29 246.89 145.94 251.83 139.25 257.75 142.57"/><path d="M266.53,112.19a1.36,1.36,0,1,1-1.36-1.35A1.36,1.36,0,0,1,266.53,112.19Z"/><path d="M273.47,110.55a1.36,1.36,0,1,0,1.36-1.36A1.36,1.36,0,0,0,273.47,110.55Z"/><polygon class="cls-32" points="267.86 120.46 271.36 119.54 274.93 119.39 271.62 122.03 267.86 120.46"/><polygon class="cls-34" points="267.86 120.46 271.54 121.54 274.93 119.39 271.75 122.89 267.86 120.46"/><polygon class="cls-49" points="258.43 130.32 263.05 134.86 265.17 146.72 251.83 139.25 253.89 134.46 258.43 130.32"/><polygon class="cls-46" points="250.7 123.07 258.43 130.32 246.89 145.94 240.01 133.15 244.84 126.57 250.7 123.07"/><polygon class="cls-45" points="281.57 93.94 240.01 133.15 241.94 121.76 255.95 103.78 269.96 91.2 274.83 88.55 281.57 93.94"/><polygon class="cls-50" points="269.96 91.2 246.89 99.26 241.94 121.76 256.19 106.22 269.96 91.2"/><polygon class="cls-39" points="265.99 163.34 274.37 167.45 270.18 174.64 263.82 167.45 265.99 163.34"/><polygon class="cls-38" points="268.79 115.79 271.12 117.62 272.46 115.04 268.79 115.79"/><polygon class="cls-27" points="320.11 206.04 356.6 202.96 400.28 205.53 357.14 209.28 320.11 206.04"/><polygon class="cls-18" points="365.58 188.81 363.8 197.17 349.89 199.43 348.65 186.52 365.58 188.81"/><polygon class="cls-19" points="349.84 198.94 349.87 202.58 368.39 204.47 371.32 202.58 363.57 197.2 349.84 198.94"/><rect class="cls-4" x="349.87" y="202.58" width="21.44" height="2.51"/><polygon class="cls-15" points="354.67 165.52 370.87 165.52 365.58 188.81 338.73 186.75 330.78 169.02 354.67 165.52"/><polygon class="cls-39" points="315.75 142.39 313.71 151.98 313.98 153.94 312.83 156.09 310.29 163.08 309.8 169.02 315.87 170.72 317.99 167.52 320.11 166.4 318.59 163.54 319.16 158.4 319.69 156.79 321.41 155.58 327.38 148.12 322.52 144.18 315.75 142.39"/><polygon class="cls-18" points="313.71 151.98 321.41 155.58 319.16 158.4 312.83 156.09 313.71 151.98"/><polygon class="cls-37" points="319.16 158.4 320.11 166.4 315.87 170.72 319.16 158.4"/><polygon class="cls-19" points="326.14 124.51 311.56 140.29 330.78 149.81 329.4 136.22 326.14 124.51"/><polygon class="cls-38" points="391.1 107.54 391.1 110.4 389.13 112.31 384.7 111 391.1 107.54"/><polygon class="cls-39" points="373.29 111 382.19 107.54 383.73 116.92 369.37 126.29 369.97 118.34 373.29 111"/><polygon class="cls-39" points="382.19 107.54 396.06 101.27 395.23 104.41 386.69 110.88 386.1 113.9 383.73 116.92 382.19 107.54"/><polygon class="cls-37" points="386.69 110.88 391.91 113.95 391.05 115.45 383.73 116.92 386.69 110.88"/><polygon class="cls-18" points="382.19 107.54 383.73 116.92 380.52 119.01 378.62 108.93 382.19 107.54"/><polygon class="cls-19" points="360.8 115.45 373.29 111 366.3 138.24 361.55 125.45 360.8 115.45"/><polygon class="cls-6" points="332.78 120.94 331.4 121.68 329.68 123.78 326.14 124.51 330.78 149.81 346.13 148.21 366.3 138.24 360.8 115.45 352.49 117.2 342.1 128.72 332.78 120.94"/><polygon class="cls-51" points="330.78 149.81 366.3 138.24 369.97 153.62 356.25 156.78 330.78 156.78 330.78 149.81"/><polygon class="cls-26" points="330.78 156.78 369.97 153.62 370.87 165.52 330.78 169.02 330.78 156.78"/><polygon class="cls-16" points="352.87 177.16 349.17 191.94 340.73 191.36 332.38 187.79 330.78 169.02 352.87 177.16"/><polygon class="cls-39" points="353.06 78.36 340.93 84.39 323.89 88.1 323.77 113.42 332.79 120.94 337.09 122.98 342.1 128.72 350.09 119.86 350.48 117.21 356.13 113.16 364.39 110.69 353.06 78.36"/><polygon class="cls-37" points="352.69 90.79 350.14 96.12 345.04 100.43 340.92 97.86 337.46 95.87 344.82 91.36 352.69 90.79"/><polygon class="cls-37" points="319.69 90.79 323.89 88.1 336.14 119.16 342.1 128.72 323.77 113.42 321.14 105.48 319.69 90.79"/><polygon class="cls-38" points="356.13 113.16 342.1 128.72 336.14 119.16 356.13 113.16"/><polygon class="cls-48" points="347.53 90.56 350.48 98.7 345.04 100.43 342.28 92.1 347.53 90.56"/><polygon class="cls-52" points="360.26 98.91 350.48 98.7 345.04 100.43 332.16 109.23 336.14 119.16 364.39 110.69 360.26 98.91"/><polygon class="cls-38" points="350.48 98.7 348.28 101.95 345.04 100.43 350.48 98.7"/><polygon class="cls-8" points="342.28 92.1 337.46 95.87 342.92 94.03 342.28 92.1"/><polygon class="cls-8" points="347.53 90.56 352.69 90.79 348.15 92.27 347.53 90.56"/><polygon class="cls-53" points="328.19 99.13 330.92 106.12 327.93 107.54 325.37 103.45 321.14 105.48 320.08 102.28 328.19 99.13"/><polygon class="cls-38" points="323.77 113.42 327.35 111.9 327.35 116.41 323.77 113.42"/><polygon class="cls-38" points="326.73 109.93 325.52 106.62 323.27 106.92 326.73 109.93"/><polygon class="cls-10" points="353.06 78.36 340.93 84.39 332.75 76.42 353.06 78.36"/><polygon class="cls-8" points="340.93 84.39 332.75 76.42 315.87 89.56 323.89 88.1 340.93 84.39"/><polygon class="cls-9" points="325.94 93.37 318.76 98.31 320.08 102.28 328.19 99.13 325.94 93.37"/><polygon class="cls-47" points="331.4 121.68 341.79 132.85 352.27 130.75 350.09 119.86 352.49 117.2 354.68 121.28 356.11 116.44 360 136.14 339.66 140.29 326.14 124.51 328.39 124.29 328.99 122.98 331.4 121.68"/><polygon class="cls-54" points="339.66 140.29 340.73 136.38 328.99 122.98 326.14 124.51 339.66 140.29"/><polygon class="cls-54" points="352.49 117.2 355.87 133.26 360 136.14 356.11 116.44 352.49 117.2"/><polygon class="cls-55" points="352.27 130.75 360 136.14 351.97 137.78 349.33 131.34 352.27 130.75"/><polygon class="cls-55" points="345.23 132.16 346.1 138.97 339.66 140.29 341.79 132.85 345.23 132.16"/><polygon class="cls-55" points="349.2 138.34 347.29 142.92 350.63 146.45 352.49 141.9 349.2 138.34"/><polygon class="cls-47" points="347.29 142.92 352.49 141.9 350.63 146.45 347.29 142.92"/><polygon class="cls-37" points="342.1 128.72 347.02 128.72 350.09 119.86 342.1 128.72"/><polygon class="cls-38" points="340.44 107.11 356.11 102.58 354.18 108.77 346.23 111 340.44 107.11"/><polygon class="cls-56" points="342.98 107.36 354.67 103.99 353.3 108.03 346.54 109.93 342.98 107.36"/><polygon class="cls-53" points="323.89 88.1 315.87 89.56 318.76 98.31 325.94 93.37 323.89 88.1"/><polygon class="cls-18" points="347.29 199.43 349.17 191.94 332.38 187.79 333.26 198.12 347.29 199.43"/><polygon class="cls-19" points="347.29 199.43 347.29 204.47 331.33 205.09 333.26 198.12 347.29 199.43"/><polygon class="cls-6" points="347.29 204.47 347.29 207.53 331.33 207.53 331.33 205.09 347.29 204.47"/><circle class="cls-25" cx="351.64" cy="94.83" r="1.41"/><circle class="cls-25" cx="340.63" cy="98.42" r="1.41"/></g><polygon class="cls-27" points="283.76 299.37 417.07 283.47 520.65 308.49 360.16 315.67 283.76 299.37"/><polygon class="cls-13" points="344.77 216.24 505.28 205.38 491.92 306.58 360.16 315.67 349.73 263.29 344.77 216.24"/><polygon class="cls-14" points="346.65 219.69 338.89 211.96 317.26 204.27 312.47 299.37 360.16 315.67 346.65 219.69"/><polygon class="cls-57" points="346.65 219.69 505.28 205.38 469.71 174.39 317.26 204.27 346.65 219.69"/><polygon class="cls-8" points="370.91 242.91 481.17 232.76 482.05 241.68 476.55 288.34 371.95 292.09 369.41 249.97 370.91 242.91"/><polygon class="cls-30" points="369.41 249.97 482.05 241.68 483.22 231.74 368.86 240.86 369.41 249.97"/><rect class="cls-58" x="364.14" y="258.56" width="123.3" height="2.05" transform="translate(-15.51 27.35) rotate(-3.61)"/><rect class="cls-58" x="364.14" y="274.96" width="123.3" height="2.05" transform="translate(-6.74 10.69) rotate(-1.43)"/><polygon class="cls-59" points="392.58 222.43 387.3 228.87 393.64 232.81 398.17 227.58 392.58 222.43"/><polygon class="cls-5" points="387.3 228.87 398.17 227.58 393.54 233.6 387.3 228.87"/><polygon class="cls-59" points="416.43 220.33 409.47 224.92 414.36 230.56 420.24 226.91 416.43 220.33"/><polygon class="cls-5" points="409.47 224.92 420.24 226.91 414.03 231.29 409.47 224.92"/><polygon class="cls-59" points="437.03 218.99 433.23 226.4 440.26 228.91 443.58 222.84 437.03 218.99"/><polygon class="cls-5" points="433.23 226.4 443.58 222.84 440.33 229.71 433.23 226.4"/><polygon class="cls-59" points="463.71 216.24 457.74 222.04 463.6 226.67 468.69 221.98 463.71 216.24"/><polygon class="cls-5" points="457.74 222.04 468.69 221.98 463.41 227.45 457.74 222.04"/><polygon class="cls-60" points="459.97 192.51 471.08 197.32 454.5 203.1 435.02 200.37 446.81 193.23 459.97 192.51"/><polygon class="cls-60" points="421.43 167.73 455.27 159.3 455.27 173.21 451.68 188.45 432.2 184.87 421.43 167.73"/><polygon class="cls-61" points="455.27 159.3 482.19 166.54 466.3 184.87 451.68 188.45 455.27 159.3"/><polygon class="cls-45" points="432.2 172.52 454.25 165.26 470.14 172.52 452.71 178.59 432.2 172.52"/><polygon class="cls-61" points="421.43 167.73 453.31 175.26 455.27 186.19 453.31 197.32 426.3 194.73 421.43 167.73"/><polygon class="cls-62" points="453.31 175.26 482.19 166.54 472.19 190.43 453.31 197.32 453.31 175.26"/><polygon class="cls-60" points="379.81 197.04 364.94 204.27 382.2 209.95 400.92 203.5 379.81 197.04"/><polygon class="cls-13" points="346.65 176.54 320.69 175.51 318.37 182.82 346.65 176.54"/><polygon class="cls-60" points="318.37 182.82 321.96 188.38 349.73 180.11 346.65 176.54 328.02 179.17 318.37 182.82"/><polygon class="cls-63" points="346.65 176.54 380.5 167.66 409.47 171.82 379.47 189.36 346.65 176.54"/><polygon class="cls-62" points="346.65 176.54 379.81 183.34 382.93 191.4 383.23 204.69 357.59 199.49 346.65 176.54"/><polygon class="cls-60" points="379.81 183.34 409.47 171.82 405.79 193.84 383.23 204.69 379.81 183.34"/><polygon class="cls-58" points="346.65 176.54 375.03 178.51 377.9 170.47 378.06 158.6 346.65 176.54"/><polygon class="cls-61" points="378.06 158.6 409.47 171.82 375.03 178.51 378.06 158.6"/><polygon class="cls-58" points="369.97 153.62 378.06 150.06 387.3 156.62 377.9 158.94 369.97 153.62"/><polygon class="cls-61" points="376.98 165.69 369.99 163.21 369.97 153.62 378.06 157.32 379.13 159.94 376.98 165.69"/><polygon class="cls-62" points="376.98 165.69 386.38 162.1 387.3 156.62 378.06 157.32 376.98 165.69"/><polygon class="cls-27" points="648.09 302 773.51 284.58 900 305.51 796.13 328.65 674.84 307.47 648.09 302"/><polygon class="cls-57" points="684.23 167.06 761.48 140.58 847.11 175.08 793.79 195.51 684.23 167.06"/><polygon class="cls-13" points="684.23 167.06 674.84 307.47 798.91 318.88 801.99 244.22 793.79 188.97 684.23 167.06"/><polygon class="cls-64" points="793.79 188.97 847.11 175.08 850.19 302 798.91 318.88 793.79 188.97"/><polygon class="cls-8" points="704.05 223.9 711.08 217.76 747.64 205.64 758.41 237.09 758.41 249.94 756.36 261.69 748.23 274.46 741.66 280.48 712.55 279.23 704.05 223.9"/><polygon class="cls-11" points="711.08 217.76 711.08 217.76 702 220.78 710.72 281.85 717.38 274.5 719.44 269.44 711.08 217.76"/><polygon class="cls-57" points="748.23 274.47 719.44 269.44 710.72 281.85 743.54 281.85 748.23 274.47"/><polygon class="cls-27" points="756.36 261.69 765.67 273.27 763.32 289.02 761.01 295.85 798.91 318.88 810.19 307.47 805.07 292.09 806.43 272.96 780.11 280.48 765.67 259.05 756.36 261.69"/><polygon class="cls-27" points="780.45 253.83 796.13 248.43 788.91 232.22 780.45 253.83"/><polygon class="cls-27" points="783.66 202.03 775.67 219.41 763.36 201.42 783.66 202.03"/><polygon class="cls-26" points="758.41 237.09 765.67 237.89 764.9 251.95 762.76 263.31 756.36 261.69 758.41 237.09"/><polygon class="cls-6" points="786.09 216.1 801.99 212.16 829.16 244.54 821.99 248.43 816.86 247.01 800.75 235.86 786.09 216.1"/><polygon class="cls-26" points="829.16 244.54 813.27 295.85 798.25 302 806.43 272.96 816.86 247.01 829.16 244.54"/><polygon class="cls-26" points="786.09 232.22 793.79 239.82 780.45 253.83 776.69 255.94 772.25 253.83 783.02 232.22 786.09 232.22"/><polygon class="cls-6" points="780.45 253.83 790.71 275.64 776.35 284.58 772.25 253.83 780.45 253.83"/><path class="cls-7" d="M786.09,216.1l-20.42,21.79-5,29.18L763.32,289l34.93,13,18.61-55Zm-6,64.38-7.86-26.65,13.84-21.61,10.46,26.83Z"/><polygon class="cls-6" points="773.27 193.7 782.45 202.53 773.27 213.01 763.36 201.42 773.27 193.7"/><polygon class="cls-55" points="769.17 201.88 772.42 199 775.67 201.88 772.42 207.2 769.17 201.88"/><polygon class="cls-26" points="773.27 193.7 775.67 192.94 783.66 202.03 782.45 203.1 781.48 202.93 773.27 193.7"/><polygon class="cls-19" points="783.66 202.03 777.51 211.51 773.27 213.01 781.48 202.93 783.66 202.03"/><polygon class="cls-11" points="741.74 187.53 763.36 191.46 762.64 196.27 741.74 191.9 741.74 187.53"/><polygon class="cls-7" points="690.72 177.56 710.72 182.17 709.44 201.42 689.06 197.33 690.72 177.56"/><polygon class="cls-27" points="302.58 341.29 369.41 329.33 448.88 342.06 365.29 350 302.58 341.29"/><polygon class="cls-18" points="399.47 336.16 409.47 343.85 398.17 343.85 397.87 339.24 399.47 336.16"/><polygon class="cls-15" points="379.13 325.19 385.98 337.69 395.65 338.06 388.87 325.19 379.13 325.19"/><polygon class="cls-16" points="304.22 303.73 295.05 323.52 310.11 317.86 308.2 310.86 304.22 303.73"/><polygon class="cls-17" points="323.65 312.59 304.22 303.73 312.47 323.52 320.25 317.72 323.65 312.59"/><polygon class="cls-15" points="322.45 331.63 329.29 339.1 335.73 339.1 332.51 327.62 327.85 327.62 322.45 331.63"/><polygon class="cls-16" points="349.73 334.35 356.58 343.85 346.65 343.85 343.22 339.24 346.14 335.74 349.73 334.35"/><polygon class="cls-18" points="390.81 294.77 388.87 277.92 395.61 286.03 390.81 294.77"/><polygon class="cls-16" points="332.51 327.62 322.45 331.63 327.11 314.64 340.07 310.86 332.51 327.62"/><polygon class="cls-18" points="343.22 293.46 312.47 323.52 336.31 320.69 343.22 293.46"/><polygon class="cls-16" points="387.35 326.11 398.17 343.85 400.92 327.62 394.64 325.19 387.35 326.11"/><polygon class="cls-35" points="421.58 303.03 418.78 341.29 423.57 343.85 426.04 301.75 421.58 303.03"/><path class="cls-19" d="M430.25,301.75H427l-2.61.86,2.39,33.55,14.7-8.54Zm-1.56,6.06,8,17.38-6.84,4.14Z"/><polygon class="cls-18" points="404.75 291.07 437.8 280.44 436.85 291.07 435.52 300.98 421.58 303.03 417.58 306.74 415 310.86 408.29 318.85 403.82 322.14 400.92 327.62 364.13 323.52 354.6 312.33 343.22 293.46 391.29 297.22 404.75 291.07"/><polygon class="cls-17" points="343.22 293.46 332.51 327.62 343.75 337.87 364.13 323.52 343.22 293.46"/><polygon class="cls-18" points="332.51 327.62 364.13 323.52 343.22 339.24 332.51 327.62"/><polygon class="cls-15" points="421.58 303.03 412.46 303.54 415 310.86 421.58 303.03"/><polygon class="cls-17" points="343.22 293.46 397.87 304.49 438.4 279.45 390.81 294.77 343.22 293.46"/><polygon class="cls-7" points="390.81 294.77 408.29 318.85 400.92 327.62 382.46 294.54 390.81 294.77"/><polygon class="cls-17" points="390.81 294.77 399.09 275.62 397.87 304.49 390.81 294.77"/><polygon class="cls-16" points="399.09 275.62 404.75 290.35 397.87 304.49 399.09 275.62"/><circle class="cls-25" cx="412.55" cy="294.14" r="3.08"/><polygon class="cls-6" points="426.04 283.47 436.85 291.07 438.4 279.45 426.04 283.47"/><polygon class="cls-39" points="639.44 192.28 657.21 224.86 638.07 229.06 615.7 212.16 622.34 200.02 639.44 192.28"/><polygon class="cls-19" points="611.91 161.42 645.54 192.51 615.7 212.16 611.91 188.41 611.91 161.42"/><polygon class="cls-27" points="639.11 322.97 548.71 310.52 460.86 322.82 557.26 341.27 639.11 322.97"/><polygon class="cls-6" points="593.68 153.08 599.68 156.96 606.07 158.4 611.91 161.42 616.47 222.4 531.6 224.86 529.3 160.35 541.68 157.39 548.86 157.01 555.7 154.03 574.83 171.83 593.68 153.08"/><polygon class="cls-51" points="550.54 215.24 533.88 199.99 529.3 232.22 616.47 232.22 615.7 212.16 550.54 215.24"/><polygon class="cls-39" points="541.28 64.03 570.56 70.89 606.8 79.72 611.91 134.94 593.67 153.08 584.68 158.36 574.83 171.83 555.7 154.03 554.36 148.33 541.25 140.58 524.24 136.01 529.5 110.27 541.28 64.03"/><polygon class="cls-37" points="544.47 91.09 551.05 102.24 563 110.66 571.49 104.27 578.66 99.27 561.74 90.83 544.47 91.09"/><polygon class="cls-37" points="616.47 84.78 606.8 79.72 586.01 149.83 574.83 171.83 611.91 134.94 616.13 117.12 616.47 84.78"/><polygon class="cls-38" points="541.25 140.58 574.83 171.83 586.01 149.83 541.25 140.58"/><polygon class="cls-48" points="555.69 89.61 550.81 107.94 563 110.66 567.43 91.97 555.69 89.61"/><polygon class="cls-52" points="529.5 110.27 550.81 107.94 563 110.66 592.79 127.4 586.01 149.83 522.75 136.76 529.5 110.27"/><polygon class="cls-38" points="550.81 107.94 556.21 114.61 563 110.66 550.81 107.94"/><polygon class="cls-8" points="567.43 91.97 578.66 99.27 566.4 96.3 567.43 91.97"/><polygon class="cls-8" points="555.69 89.61 544.47 91.09 554.66 93.46 555.69 89.61"/><polygon class="cls-53" points="599.52 104.6 594.91 120.37 601.7 122.91 606.5 113.5 616.13 117.12 617.83 109.92 609.1 104.6 599.52 104.6"/><polygon class="cls-38" points="611.91 134.94 603.8 132.31 604.66 142.16 611.91 134.94"/><polygon class="cls-38" points="604.78 127.91 606.78 120.45 611.75 120.66 604.78 127.91"/><polygon class="cls-10" points="541.28 64.03 568.9 74.88 579.62 67.62 585.22 55.93 541.28 64.03"/><polygon class="cls-8" points="568.9 74.88 585.22 55.93 624.58 81.36 614.48 82.19 606.8 79.72 568.9 74.88"/><polygon class="cls-9" points="603.33 91.61 612.37 93.46 619.94 101 617.83 109.92 599.52 104.6 603.33 91.61"/><polygon class="cls-47" points="593.68 153.08 586.96 179.36 563 181.06 555.7 154.03 549.02 155.63 545.96 158 541.68 157.39 554.69 194.53 595.65 191.46 606.07 158.4 600.03 158.6 600.03 155.81 593.68 153.08"/><polygon class="cls-54" points="595.65 191.46 591.19 185.25 600.03 155.81 606.07 158.4 595.65 191.46"/><polygon class="cls-54" points="549.02 155.63 559.01 187.53 554.69 194.53 541.68 157.39 549.02 155.63"/><polygon class="cls-55" points="563 181.06 554.69 194.53 570.4 193.36 570.4 180.54 563 181.06"/><polygon class="cls-55" points="578.66 179.95 581.21 192.54 595.65 191.46 586.96 179.36 578.66 179.95"/><polygon class="cls-55" points="575.91 192.91 582.66 201.42 577.72 210.84 571.1 202.37 575.91 192.91"/><polygon class="cls-47" points="582.66 201.42 571.1 202.37 577.72 210.84 582.66 201.42"/><polygon class="cls-37" points="574.83 171.83 564.11 172.77 555.7 154.03 574.83 171.83"/><polygon class="cls-38" points="566.29 127.43 544.88 121.45 544.38 127.01 564.02 134.65 566.29 127.43"/><polygon class="cls-53" points="606.8 79.72 624.58 81.36 619.94 101 603.33 91.61 606.8 79.72"/><polygon class="cls-37" points="542.66 195.51 545.94 202.93 540.52 214.28 529.97 227.55 516.4 199.99 527.81 195.51 542.66 195.51"/><polygon class="cls-37" points="545.94 202.93 551.64 217.76 553.72 227.55 529.97 227.55 545.94 202.93"/><polygon class="cls-19" points="529.3 160.35 507.51 202.03 542.66 195.51 529.3 160.35"/><polygon class="cls-26" points="529.3 232.22 616.47 232.22 611.91 253.83 527.81 243.02 529.3 232.22"/><polygon class="cls-15" points="611.91 253.83 586.01 265.79 561.56 268.86 544.84 261 527.81 243.02 611.91 253.83"/><polygon class="cls-16" points="611.91 253.83 605.57 283.75 588.36 299.61 568.55 290.88 561.56 268.86 611.91 253.83"/><polygon class="cls-18" points="568.55 290.88 605.57 283.75 601.66 305.51 591.19 313.62 573.18 307.63 568.55 290.88"/><polygon class="cls-19" points="601.66 305.51 607.99 319.5 592.79 321.72 571.14 319.17 573.18 307.63 601.66 305.51"/><polygon class="cls-6" points="607.99 319.5 607.99 325.17 571.14 324.83 571.14 319.17 607.99 319.5"/><polygon class="cls-16" points="561.56 268.86 547.31 295.85 532.56 289.02 521.72 277.23 527.81 243.02 561.56 268.86"/><polygon class="cls-18" points="521.72 277.23 518.36 300.42 529.3 301.32 543.89 302 547.31 295.85 521.72 277.23"/><polygon class="cls-19" points="543.89 302 543.16 315.48 526.36 319.88 501.85 315.32 518.36 300.42 543.89 302"/><polygon class="cls-6" points="543.16 315.48 543.16 321.63 501.85 321.72 501.85 315.32 543.16 315.48"/><polygon class="cls-16" points="559.01 187.53 542.66 214.28 567.06 207.98 559.01 187.53"/><polygon class="cls-8" points="510.05 224.48 614.15 191.46 617.73 213.01 617.73 237.09 561.56 247.36 510.05 224.48"/><polygon class="cls-27" points="542.66 214.28 553.72 227.55 572.53 225.11 566.29 206.64 542.66 214.28"/><polygon class="cls-9" points="614.15 191.46 664.73 216.1 617.73 237.09 614.15 191.46"/><polygon class="cls-12" points="510.05 224.48 518.85 260.58 564.4 277.92 565.26 263.14 561.56 247.36 510.05 224.48"/><polygon class="cls-11" points="564.4 277.92 651.66 258.48 664.73 216.1 561.56 247.36 564.4 277.92"/><path class="cls-31" d="M617.83,230.31l-18.31,5.55-32.46,20.08,7.66,19.68,3.06-8.81,23.61,2.87,14.31-3.19-4.77-24.09Z"/><polygon class="cls-6" points="608.26 233.21 609.73 295.85 645.76 284.58 627.01 227.53 608.26 233.21"/><polygon class="cls-39" points="587.5 101.16 582.58 108.93 589.44 110.38 587.5 101.16"/><polygon class="cls-37" points="589.44 110.38 584.29 114.72 582.58 108.93 589.44 110.38"/><polygon class="cls-39" points="582.55 79.99 577.63 87.76 584.48 89.22 582.55 79.99"/><polygon class="cls-37" points="584.48 89.22 579.34 93.56 577.63 87.76 584.48 89.22"/><polygon class="cls-39" points="542.66 79.72 543.38 86.77 537.66 84.72 542.66 79.72"/><polygon class="cls-37" points="537.66 84.72 539.45 90.36 543.38 86.77 537.66 84.72"/><polygon class="cls-16" points="638.92 223.92 630.72 209.02 582.66 201.42 599.52 235.86 638.92 223.92"/><polygon class="cls-18" points="638.92 223.92 582.66 201.42 567.06 212.6 522.39 212.16 529.97 219.41 545.94 227.74 561.56 247.36 638.92 223.92"/><polygon class="cls-26" points="562.01 200.71 543.89 212.02 545.94 227.74 572.53 225.11 562.01 200.71"/><polygon class="cls-17" points="595.46 237.09 595.65 197.33 559.01 187.53 571.94 244.22 595.46 237.09"/><polygon class="cls-17" points="545.94 227.74 522.39 212.16 502.53 224.48 510.05 241.5 516.4 250.52 545.94 227.74"/><polygon class="cls-16" points="516.4 250.52 502.53 224.48 493.76 245.94 516.4 266.05 516.4 250.52"/><polygon class="cls-26" points="505.61 270.91 526.36 231.72 564.88 223.9 571.94 244.22 561.56 247.36 554.69 272.96 505.61 270.91"/><polygon class="cls-6" points="526.36 231.72 555.34 225.84 574.72 275.62 547.31 295.85 526.36 231.72"/><polygon class="cls-27" points="545.94 227.74 541.84 258.47 571 266.05 555.34 225.84 545.94 227.74"/><polygon class="cls-7" points="545.94 227.74 571.1 207.2 617.83 230.31 599.52 243.02 572.3 237.89 545.94 227.74"/><polygon class="cls-26" points="599.52 243.02 595.65 261.34 547.42 253.83 545.94 227.74 599.52 243.02"/><polygon class="cls-37" points="661.73 225.84 664.73 244.22 654.29 249.94 651.23 237.89 654.29 225.84 661.73 225.84"/><polygon class="cls-39" points="654.29 249.94 641.36 243.02 645.51 224.69 654.29 225.84 654.29 249.94"/><circle class="cls-25" cx="547.31" cy="99.73" r="3.13"/><circle class="cls-25" cx="572.26" cy="105.35" r="3.13"/></svg>