<svg id="illustration" xmlns="http://www.w3.org/2000/svg" viewBox="0 0 900 350"><defs><style>.cls-1{fill:#3f8e6f;}.cls-2{fill:#6f7173;}.cls-3{fill:#54af8a;}.cls-4{fill:#beda8d;}.cls-5{fill:#709c53;}.cls-6{fill:#98c16d;}.cls-7{fill:#5a753d;}.cls-8{fill:#35785d;}.cls-9{fill:#8e8e8e;}.cls-10{fill:#a2a2a2;}.cls-11{fill:#cdcdcc;}.cls-12{fill:#dcdcdb;}.cls-13{fill:#ebebea;}.cls-14,.cls-30{fill:#33231b;}.cls-14{opacity:0.14;}.cls-15{fill:#e7ef78;}.cls-16{fill:#b7c645;}.cls-17{fill:#738c57;}.cls-18{fill:#72c8a5;}.cls-19{fill:#9fce7e;}.cls-20{fill:#2b2b2b;}.cls-21{fill:#848585;}.cls-22{fill:#446125;}.cls-23{fill:#9ca0a1;}.cls-24{fill:#8a6651;}.cls-25{fill:#165e60;}.cls-26{fill:#c3c3c3;}.cls-27{fill:#debca4;}.cls-28{fill:#e7c9b5;}.cls-29{fill:#c2977b;}</style></defs><title>diplomats_Advocate_INFJ_conclusion</title><g id="goblin"><polygon class="cls-1" points="785 246.05 775 259.01 790.84 267.62 785 246.05"/><polygon class="cls-2" points="785 246.05 789 270.8 810.97 274.77 819.67 256.31 803.23 247.59 794.35 244.84 785 246.05"/><polygon class="cls-3" points="803.23 247.59 808.47 241.51 813.17 239.5 822.9 256 816.63 259.67 806.1 257.64 803.23 247.59"/><polygon class="cls-4" points="822.9 256 830.07 267.62 820.2 269.8 814.24 265.62 806.1 257.64 822.9 256"/><polygon class="cls-4" points="771 210.87 760.33 233.35 795.33 240.69 805.33 215.48 782.83 209.83 771 210.87"/><polygon class="cls-5" points="768.67 240.69 785 246.05 803.23 247.59 795 237.08 768.67 240.69"/><polygon class="cls-6" points="805.33 215.48 818.33 235.29 803.23 247.59 795 237.08 805.33 215.48"/><polygon class="cls-6" points="777 217.43 762.67 210.87 752 219.08 765.09 223.33 778.33 221.97 777 217.43"/><polygon class="cls-5" points="778.33 221.97 752 219.08 764 225.62 778.33 221.97"/><polygon class="cls-7" points="777 217.43 790.84 217.43 778.33 221.97 777 217.43"/><polygon class="cls-6" points="764 225.62 755 232.04 768.67 240.69 795 237.08 764 225.62"/><polygon class="cls-2" points="771 210.87 805.33 216.48 818.33 235.29 819.67 224.39 806.67 207.33 775 204.72 771 210.87"/><polygon class="cls-1" points="775 204.72 790.84 194.63 798.75 193.77 806.67 197.79 809.67 207.34 806.67 209.33 775 204.72"/><polygon class="cls-8" points="806.67 197.79 816.67 212.51 819.67 224.39 806.67 209.33 806.67 197.79"/><polygon class="cls-3" points="806.67 197.79 798.67 185.18 790.84 194.63 806.67 197.79"/><polygon class="cls-5" points="812.07 226.22 813.17 239.5 828.33 239.5 812.07 226.22"/><polygon class="cls-4" points="812.07 226.22 819.67 224.39 828.33 239.5 812.07 226.22"/><polygon class="cls-6" points="814.24 265.62 805.33 272.3 816.63 277.25 830.07 267.62 814.24 265.62"/></g><g id="paths"><polygon class="cls-9" points="293.78 157.1 333.5 144 317.67 129 293.78 157.1"/><polygon class="cls-10" points="319.72 117.5 360.69 224.39 348.37 228.12 317.67 132 293.78 157.1 249.83 80.29 262.45 63.85 296.29 136.67 319.72 117.5"/><polygon class="cls-11" points="296.35 138.3 266.02 72.97 322.66 45.53 351.8 115.75 317.76 121.72 296.35 138.3"/><polygon class="cls-12" points="389.99 252.94 431.99 220.88 361 112.9 317.76 121.72 360.69 224.39 389.99 252.94"/><polygon class="cls-9" points="736.33 171.32 625.01 165.94 659.66 150.08 736.33 171.32"/><polygon class="cls-9" points="573.5 243.33 505.01 238.3 545.5 218.44 573.5 243.33"/><polygon class="cls-10" points="453.99 267.62 550.99 203.65 573.5 220.33 659.66 128.05 733 159.28 825.67 109.94 836.33 128.41 736.33 171.32 659.66 152.08 573.5 243.33 543.5 220.44 470.99 285.08 453.99 267.62"/><polygon class="cls-12" points="551.99 205.65 573.5 223.33 659.66 128.05 547 112.9 507.63 203.75 551.99 205.65"/><polygon class="cls-12" points="659.66 128.05 713.67 78.25 825.67 109.94 733 161.28 659.66 128.05"/><polygon class="cls-9" points="887.82 338 826.48 350 713.67 274.45 765.33 269.8 887.82 338"/><polygon class="cls-10" points="480.85 294.97 611.99 305 767.67 255.8 900.48 314.09 887.82 338 764.33 270.8 608.33 323.33 496.5 310.9 480.85 294.97"/><polygon class="cls-9" points="270.33 294.67 322.25 289.72 303.5 260.64 270.33 294.67"/><polygon class="cls-10" points="333.5 270.8 298 240.33 273.5 277.67 61.67 186.85 61.67 224.39 270.33 294.67 303.5 267.62 322.25 289.72 333.5 270.8"/><polygon class="cls-12" points="333.19 232.7 181.67 126.67 61.67 186.85 273.5 280.67 298 243.33 333.19 232.7"/><polygon class="cls-11" points="453.99 267.62 551.99 205.65 466.54 197.79 389.99 248.94 453.99 267.62"/><polygon class="cls-12" points="298 330.5 397.25 327.33 496.5 310.9 453.99 267.62 389.99 248.94 333.5 270.8 298 330.5"/><polygon class="cls-10" points="496.5 310.9 486.9 334.5 300 350 298 330.5 496.5 310.9"/><polygon class="cls-13" points="453.99 267.62 565.01 282.94 595.01 289.72 611.99 306 480.85 294.97 453.99 267.62"/><polygon class="cls-12" points="565.01 282.94 667.23 230.41 767.67 255.8 611.99 306 565.01 282.94"/><polygon class="cls-11" points="333.5 270.8 298 243.33 360.69 224.39 389.99 248.94 333.5 270.8"/></g><g id="dragon"><polygon class="cls-14" points="273.64 89.38 283.52 90.21 286.02 93.5 288.41 94.53 305.32 93.39 316.92 89.28 323.92 75.44 325.6 72.34 332.42 70.16 322.66 45.53 266.02 72.97 273.64 89.38"/><polygon class="cls-15" points="306.35 85.51 305.32 93.39 311.81 95.28 310.55 99.09 317.33 103.63 318.26 97.03 314.51 93.4 316.92 89.28 311.4 84.78 307.43 82.67 306.35 85.51"/><polygon class="cls-16" points="307.7 85.57 307.12 90.43 311.29 92.08 312.44 88.18 307.7 85.57"/><polygon class="cls-1" points="292.02 80 290.56 87.53 288.49 88.39 286.89 87.17 282.71 68.09 290.14 71.43 292.02 80"/><polygon class="cls-1" points="312.44 55.97 319.89 69.3 318.96 71.68 317.16 72.33 313.7 71.05 307.29 60.44 312.44 55.97"/><polygon class="cls-1" points="263.48 10.66 276.82 4.97 274.87 0.22 285.72 3.71 279.67 11.94 277.96 7.48 264.33 20.83 263.48 10.66"/><polygon class="cls-3" points="269.38 30.33 263.48 10.66 259.51 33.28 270.15 40.08 269.38 30.33"/><polygon class="cls-1" points="285.14 29.81 269.38 30.33 267.68 47.66 275.25 52.5 281.62 41.75 285.14 29.81"/><polygon class="cls-5" points="285.14 29.81 275.25 52.5 282.71 68.09 289.64 50.33 285.14 29.81"/><polygon class="cls-6" points="289.64 50.33 286.4 40.73 285.14 29.81 309.95 44.62 312.44 55.97 289.64 50.33"/><polygon class="cls-3" points="289.4 49.25 293.44 58.58 302.72 72.93 312.44 55.97 289.4 49.25"/><polygon class="cls-1" points="289.4 49.25 282.71 68.09 302.72 72.93 289.4 49.25"/><polygon class="cls-6" points="286.75 71.16 292.62 77.61 302.19 83.27 307.7 85.57 309.2 80.65 311.3 70.44 310.47 62.01 286.75 71.16"/><polygon class="cls-4" points="296.54 67.38 304.21 87.34 308.76 88.34 311.4 84.78 302.23 65.19 296.54 67.38"/><polygon class="cls-6" points="303.71 86.04 304.21 87.34 308.76 88.34 311.4 84.78 310.74 83.35 308.58 84.6 306.35 85.51 303.71 86.04"/><polygon class="cls-17" points="303.71 86.04 306.35 85.51 308.76 88.34 303.71 86.04"/><polygon class="cls-17" points="310.74 83.35 308.58 84.6 308.76 88.34 310.74 83.35"/><polygon class="cls-5" points="286.75 71.16 302.74 83.5 292.02 80 286.75 71.16"/><polygon class="cls-5" points="309.31 80.41 310.47 62.01 313.7 71.05 309.31 80.41"/><polygon class="cls-5" points="292.64 68.89 286.51 66.51 282.71 68.09 286.75 71.16 292.64 68.89"/><polygon class="cls-5" points="305.69 63.85 308.45 57.98 312.44 55.97 310.47 62.01 305.69 63.85"/><polygon class="cls-6" points="305.69 63.85 312.44 55.97 307.14 57.13 305.69 63.85"/><polygon class="cls-6" points="292.64 68.89 286.03 64.35 282.71 68.09 292.64 68.89"/><polygon class="cls-3" points="290.56 87.53 293.44 91.36 291.2 93.88 289.77 90.42 288.41 94.53 287.49 89.91 286.02 93.5 283.52 90.21 286.89 87.17 290.56 87.53"/><polygon class="cls-3" points="317.16 72.33 316.86 76.09 321.57 76.98 319.76 73.62 323.92 75.44 321.56 71.77 325.6 72.34 322.79 67.92 319.89 69.3 317.16 72.33"/><polygon class="cls-17" points="300.73 78.27 301.14 76.23 295.18 75.6 300.73 78.27"/><polygon class="cls-17" points="307.17 75.74 308.49 70.16 305.41 74.59 307.17 75.74"/><polygon class="cls-1" points="285.24 61.61 257.76 52.66 226.3 93.46 259.52 74.87 282.71 68.09 285.24 61.61"/><polygon class="cls-1" points="306.5 54.24 317.5 22.33 371.74 10.72 336.45 31.45 312.44 55.97 306.5 54.24"/><polygon class="cls-18" points="285.24 61.61 260.46 37.94 258.01 46.99 257.99 53.74 285.24 61.61"/><polygon class="cls-3" points="260.46 37.94 226.3 93.46 257.99 53.74 260.46 37.94"/><polygon class="cls-3" points="306.5 54.24 303.38 53.33 313.18 15.7 317.35 17.89 318.81 23.17 306.5 54.24"/><polygon class="cls-18" points="313.18 15.7 371.74 10.72 318.81 23.17 313.18 15.7"/><polygon class="cls-8" points="226.3 93.46 241.8 84.78 241.78 74.05 226.3 93.46"/><polygon class="cls-8" points="249.83 80.29 247.22 67.23 257.99 53.74 259.52 74.87 249.83 80.29"/><polygon class="cls-8" points="266.02 72.97 267.69 56.54 275.23 58.72 271.8 71.28 266.02 72.97"/><polygon class="cls-8" points="281.17 60.43 278.34 69.37 282.71 68.09 285.24 61.61 281.17 60.43"/><polygon class="cls-8" points="312.44 55.97 306.5 54.24 308.52 49.14 314.67 53.69 312.44 55.97"/><polygon class="cls-8" points="317.84 50.45 310.57 43.98 312.99 37.86 322.66 45.53 317.84 50.45"/><polygon class="cls-8" points="336.45 31.45 318.81 23.17 315.68 31.07 328 40.08 336.45 31.45"/><polygon class="cls-8" points="343.74 27.17 333.86 19.63 346.35 16.69 351.8 22.43 343.74 27.17"/><polygon class="cls-8" points="359.69 17.79 355.62 14.51 371.74 10.72 359.69 17.79"/></g><g id="goblin-2" data-name="goblin"><polygon class="cls-14" points="662.17 285.76 667.5 288.1 716.96 272.15 690.52 244.32 622.02 264.46 662.17 285.76"/><polygon class="cls-2" points="623.56 233.35 606.08 208.82 609.58 183.43 629.61 231.53 631.67 236.58 627.25 238.3 623.56 233.35"/><polygon class="cls-3" points="688.83 250.86 685.58 261.14 675.25 252.94 688.83 250.86"/><polygon class="cls-2" points="668 230.88 658.33 242.33 669.26 250.5 672.93 241.33 668 230.88"/><polygon class="cls-6" points="667.93 259.67 693.23 271.8 680.67 254.3 673.97 252.94 667.93 259.67"/><polygon class="cls-2" points="668 230.88 672.93 241.33 698.37 244 702.74 238.3 704.46 232.7 701.34 217.44 695.71 209.69 668 230.88"/><polygon class="cls-1" points="653.5 221.97 647.59 223.33 645.16 228.63 649 235.29 668 230.88 653.5 221.97"/><polygon class="cls-3" points="709.92 209.69 718.67 228.12 704.46 232.7 700.34 218.44 702.79 204.72 709.92 209.69"/><polygon class="cls-3" points="680.67 174.75 694.67 161 700.37 177.25 691.44 180.29 680.67 174.75"/><polygon class="cls-6" points="673.97 185.18 659.33 177.25 663.46 190.39 673.97 185.18"/><polygon class="cls-6" points="681.5 224.25 668 230.88 653.5 221.97 664.4 215.33 668.91 218.44 681.5 224.25"/><polygon class="cls-4" points="653.5 192.66 652.5 206.33 668.91 218.44 681.5 224.25 691.94 209.69 695.71 195.41 673.97 185.18 653.5 192.66"/><polygon class="cls-6" points="681.5 224.25 700.34 218.44 706 197.51 695.71 195.41 681.5 224.25"/><polygon class="cls-7" points="653.5 192.66 664.93 204.11 671.07 207.34 685.01 209.83 669.51 215.33 656.31 205.65 653.5 192.66"/><polygon class="cls-6" points="671.07 207.34 662.84 202.01 652.5 206.33 647.59 223.33 667.91 217.44 671.07 207.34"/><polygon class="cls-5" points="668.91 218.44 647.59 223.33 671.07 207.34 668.91 218.44"/><polygon class="cls-4" points="695.71 195.41 704.46 209.69 723.25 209.83 706 197.51 695.71 195.41"/><polygon class="cls-2" points="667.5 181.68 670 198.38 706 197.51 694.67 178.44 667.5 181.68"/><polygon class="cls-1" points="673.97 180.91 680.67 174.75 691.44 178.29 686.25 185.18 675.25 192.12 673.97 180.91"/><polygon class="cls-8" points="691.44 178.29 700.37 177.25 702.79 192.12 675.25 192.12 691.44 178.29"/><polygon class="cls-5" points="697.16 197.79 700.34 218.44 704.46 209.69 697.16 197.79"/><polygon class="cls-2" points="702.74 238.3 672.93 241.33 687.88 246.05 700.37 246 702.74 238.3"/><polygon class="cls-9" points="700.37 246 667.93 259.67 661.93 256.83 672.93 241.33 700.37 246"/><polygon class="cls-3" points="693.23 271.8 677.93 285.08 665.93 280.67 677.93 264.46 693.23 271.8"/><polygon class="cls-8" points="677.93 285.08 657.93 274.8 662.17 285.76 677.93 285.08"/><polygon class="cls-1" points="677.93 264.46 685.55 278.47 693.23 271.8 677.93 264.46"/><polygon class="cls-4" points="718.67 228.12 727.48 246.05 715.97 244 713.67 237.76 704.46 232.7 718.67 228.12"/><polygon class="cls-6" points="727.48 246.05 713.67 237.76 700.37 246 702.74 252.94 727.48 246.05"/><polygon class="cls-4" points="700.37 246 690.52 244.32 694.23 255.94 702.74 252.94 700.37 246"/><polygon class="cls-6" points="690.52 244.32 682.04 247.59 687.21 256 694.23 255.94 690.52 244.32"/><polygon class="cls-4" points="647.59 223.33 629.5 221.44 626.33 225.5 629.61 231.53 649 235.29 647.59 223.33"/><polygon class="cls-6" points="623.36 216.53 618.87 219.08 623.56 233.35 629.61 231.53 623.36 216.53"/><polygon class="cls-5" points="618.87 219.08 613.18 224.49 619.16 233.35 623.56 233.35 618.87 219.08"/><polygon class="cls-19" points="629.5 221.44 623.36 216.53 626.9 225.5 629.5 221.44"/><polygon class="cls-4" points="623.36 216.53 618.87 219.08 621.69 227.66 625.17 226.22 623.36 216.53"/></g><g id="monster"><polygon class="cls-14" points="189.5 143.05 215.67 171.32 239 179 205.46 194.98 247.22 235.7 226.3 227 188.25 211.25 126.33 200.55 105.5 188.65 72.1 181.62 123.69 155.75 171.33 144.73 189.5 143.05"/><polygon class="cls-18" points="37.33 218.44 49.54 191.1 59.83 201.04 37.33 218.44"/><polygon class="cls-5" points="76.67 290.09 100.96 302.67 94 282.76 76.67 290.09"/><polygon class="cls-7" points="99.36 254.8 76.67 290.09 113.33 277.44 99.36 254.8"/><polygon class="cls-1" points="69 245 81.1 230.88 61.67 224.39 64.03 233.84 69 245"/><polygon class="cls-3" points="155.33 105.5 182.65 111.75 201 130.6 189.5 143.05 171.33 144.73 149.48 127.12 155.33 105.5"/><polygon class="cls-20" points="45 185.65 61.67 205.65 61.67 184.85 45 185.65"/><polygon class="cls-2" points="43 139.54 45 185.65 61.67 186.85 84.1 175.6 74 154.93 43 139.54"/><polygon class="cls-20" points="95 143.05 108.55 162.67 131.67 152.44 95 143.05"/><polygon class="cls-2" points="100 112.9 95 127.12 95 143.05 120 152.08 117.1 121.72 100 112.9"/><polygon class="cls-21" points="143.77 95.19 100 82.46 65.5 95.19 100 112.9 139.83 108.3 143.77 95.19"/><polygon class="cls-5" points="120 152.08 148.48 180.41 158.17 175 152.41 166.24 120 152.08"/><polygon class="cls-22" points="120 152.08 158.17 175 167.54 170.33 167.18 165.94 158 159 120 152.08"/><polygon class="cls-17" points="120 152.08 110.67 124.65 131.67 148.38 120 152.08"/><polygon class="cls-5" points="146 146.69 154.69 151.22 163 157.51 162 161.28 158.67 163.36 120 152.08 129.67 147.38 146 146.69"/><polygon class="cls-17" points="162 161.28 158.67 163.36 164.33 168.5 173.67 162.28 168.98 160.88 162 161.28"/><polygon class="cls-5" points="171.33 151.91 171.33 137.62 169 126.67 163.75 137.18 166.34 145.16 171.33 151.91"/><polygon class="cls-6" points="137.33 101.17 155.33 105.5 169 126.67 159 146.69 129.67 147.38 110.67 124.65 124.33 107.02 137.33 101.17"/><polygon class="cls-4" points="137.33 101.17 165.75 138.88 170.33 150.91 169 156 164 156.51 149.06 148.94 124.33 107.02 137.33 101.17"/><polygon class="cls-7" points="171.33 151.91 176 152.59 173.67 162.28 162 161.28 163 157.51 171.33 151.91"/><polygon class="cls-5" points="137.33 101.17 151 88.47 154.33 104.5 149.48 104.09 137.33 101.17"/><polygon class="cls-5" points="124.33 107.02 100 112.9 110.67 123.65 117.1 116.36 124.33 107.02"/><polygon class="cls-7" points="151 88.47 149.48 104.09 155.33 105.5 151 88.47"/><polygon class="cls-7" points="100 112.9 117.1 116.36 110.67 124.65 100 112.9"/><polygon class="cls-5" points="129.67 147.38 133.66 122.83 146.97 145.4 129.67 147.38"/><polygon class="cls-5" points="164.47 137.18 169 126.67 148.48 115.95 164.47 137.18"/><polygon class="cls-7" points="129.67 147.38 144.88 141.85 149.06 148.94 129.67 147.38"/><polygon class="cls-7" points="169 126.67 161.64 133.43 165.75 138.88 169 126.67"/><polygon class="cls-13" points="164 134.63 166.17 131.13 165.63 136.25 164 134.63"/><polygon class="cls-13" points="138.32 146.13 144.75 144.69 145.06 147.06 138.32 146.13"/><polygon class="cls-13" points="120 152.08 126.41 155.93 128.84 154.66 129.05 157.51 132.64 155.76 133.34 160.09 137.33 157.2 138.32 163.08 144.09 159.11 144.09 166.54 149.48 161.04 150.2 170.22 155.33 162.39 154.52 172.81 161.51 165.94 161.64 173.27 164.33 168.5 167.54 170.33 168.18 165.94 164.33 168.5 158.67 163.36 120 152.08"/><polygon class="cls-23" points="100 112.9 95 143.05 80.81 103.05 100 112.9"/><polygon class="cls-3" points="65.5 95.19 43 139.54 91.62 133.51 80.81 103.05 65.5 95.19"/><polygon class="cls-18" points="43 139.54 91.62 133.51 95 143.05 65.5 162.45 43 139.54"/><polygon class="cls-1" points="95 143.05 65.5 162.45 84.1 175.6 100.96 151.68 95 143.05"/><polygon class="cls-5" points="115.5 159.59 93.5 180.41 105.5 188.65 100.39 173.85 113.33 181.62 108.47 166.24 120 175.6 115.5 159.59"/><polygon class="cls-3" points="93.5 180.41 115.5 159.59 100.96 151.68 84.1 175.6 93.5 180.41"/><polygon class="cls-18" points="189.5 143.05 182.65 111.75 201 115.95 197.72 123.68 189.5 143.05"/><polygon class="cls-1" points="201 115.95 226.3 116.36 219.83 130.97 209.27 145.99 189.5 143.05 201 115.95"/><polygon class="cls-5" points="209.27 145.99 220.17 156.82 217.1 140.82 229.67 150.33 227.94 133.69 239 144.69 236.05 128.34 209.27 145.99"/><polygon class="cls-3" points="209.27 145.99 236.05 128.34 226.3 116.36 209.27 145.99"/><polygon class="cls-3" points="61.67 197.79 37.33 218.44 69 245 61.67 224.39 61.67 197.79"/><polygon class="cls-5" points="81.1 230.88 113.33 277.44 117.91 243.33 81.1 230.88"/><polygon class="cls-3" points="100.96 302.67 98.54 295.75 104.64 284.08 120 320.5 100.96 302.67"/><polygon class="cls-1" points="100.96 302.67 93.5 298.81 79.75 305.75 120 320.5 100.96 302.67"/><polygon class="cls-6" points="149.06 148.94 165.75 138.88 171.33 151.91 163 157.51 149.06 148.94"/><polygon class="cls-6" points="108.55 96.48 139.37 70.16 123.96 45.53 93.5 37 65.5 45.53 45 63.85 35.25 85.51 37.33 110.68 49.78 126.17 65.5 95.19 82.74 88.83 108.55 96.48"/><polygon class="cls-5" points="108.55 96.48 139.37 70.16 123.96 45.53 97.32 93.15 108.55 96.48"/><polygon class="cls-5" points="93.5 37 87.31 90.18 82.74 88.83 77.25 90.85 65.5 45.53 93.5 37"/><polygon class="cls-5" points="45 63.85 65.5 95.19 60.77 104.5 35.25 85.51 45 63.85"/><polygon class="cls-5" points="37.33 110.68 55.8 114.31 49.78 126.17 37.33 110.68"/><polygon class="cls-3" points="119.04 44.16 138.32 20.83 126.28 49.25 119.04 44.16"/><polygon class="cls-3" points="88.81 38.43 95 10.66 97.32 38.43 88.81 38.43"/><polygon class="cls-3" points="69 44.47 50.38 17.79 61.68 48.95 69 44.47"/><polygon class="cls-3" points="47.52 61.61 16.33 44.16 43 67.92 47.52 61.61"/><polygon class="cls-3" points="36.62 82.46 0.08 83.35 35.69 90.77 36.62 82.46"/><polygon class="cls-3" points="37.03 107.02 8 126.17 40.25 114.31 37.03 107.02"/><polygon class="cls-3" points="168.18 165.94 182.65 179 177 184.56 170.41 184.56 158.17 175 168.18 165.94"/><polygon class="cls-1" points="158.17 175 154.52 172.81 161.51 165.94 164.33 168.5 168.18 165.94 158.17 175"/><polygon class="cls-1" points="170.41 184.56 188.25 211.25 197.43 208.5 198.75 205.65 182.65 179 170.41 184.56"/><polygon class="cls-18" points="198.75 205.65 222.66 200.67 219.5 208.5 209.71 212.25 188.25 211.25 198.75 205.65"/><polygon class="cls-1" points="222.66 200.67 235 221.4 233 225.13 226.3 227 209.71 212.25 222.66 200.67"/><polygon class="cls-3" points="235 221.4 247.22 226.25 226.3 227 235 221.4"/></g><g id="ogre_copy_2" data-name="ogre copy 2"><polygon class="cls-8" points="485.25 142.28 495.5 144.28 489.68 165.97 477.1 164.03 485.25 142.28"/><polygon class="cls-1" points="454.41 119.71 446.47 124.65 451.67 134.54 454.25 125.98 454.41 119.71"/><polygon class="cls-2" points="461.86 101.16 454.41 119.71 464 129.93 482.85 137.18 483.81 130.6 481.4 115.75 461.86 101.16"/><polygon class="cls-1" points="450.47 93.66 457.4 79.21 482.5 123.12 450.47 93.66"/><polygon class="cls-1" points="611.99 95.66 626.33 93.7 620 106.75 614.22 102.51 611.99 95.66"/><polygon class="cls-2" points="600.69 85.72 611.99 95.66 603.82 108.15 592.17 120.5 577 114.31 590.67 93.12 600.69 85.72"/><polygon class="cls-1" points="592.19 68.5 607.33 77.7 577 114.31 583.64 85.72 592.19 68.5"/><polygon class="cls-20" points="507.63 127.03 522.49 147.38 541.99 152.59 560.33 151.67 567.67 126.17 523.45 122.65 507.63 127.03"/><polygon class="cls-21" points="522.49 147.38 506.75 184.56 531 178.44 529 148.11 522.49 147.38"/><polygon class="cls-2" points="506.75 184.56 526.75 203.33 537.65 187.76 531 178.44 506.75 184.56"/><polygon class="cls-20" points="573.5 159.66 558.67 185.18 547.82 159.91 555.38 141.54 565.01 150.73 573.5 159.66"/><polygon class="cls-21" points="469.39 67 518.79 54.02 573.5 64.36 567.67 126.17 523.45 122.65 483.81 130.6 469.39 67"/><polygon class="cls-2" points="567.67 126.17 532.38 105.5 510 106.75 483.81 130.6 523.45 124.65 567.67 126.17"/><polygon class="cls-17" points="482.5 68.5 516 22.5 519.5 62 511.75 59.67 495.5 79.19 482.5 68.5"/><polygon class="cls-7" points="516 22.5 555.75 64.36 545.5 74.75 526.75 58.67 519.5 62 516 22.5"/><polygon class="cls-4" points="545.5 72.75 555.75 64.36 556.75 79.25 544.89 81.21 545.5 72.75"/><polygon class="cls-17" points="548.88 78.7 548.88 72.79 554.38 70.63 548.88 78.7"/><polygon class="cls-4" points="495.5 77.19 482.5 68.5 485 85.72 496.86 84.24 495.5 77.19"/><polygon class="cls-17" points="492.38 82.46 491.25 76.7 485.25 76.34 492.38 82.46"/><polygon class="cls-6" points="495.5 77.19 496.5 96.67 510 106.75 532.38 105.5 546.5 94.66 545.5 72.75 495.5 77.19"/><polygon class="cls-4" points="511.75 56.67 495.5 77.19 521.5 105.75 545.5 72.75 526.75 56.67 519.5 62 511.75 56.67"/><polygon class="cls-22" points="501.44 69.69 510 77.19 503.26 85.72 495.5 77.19 501.44 69.69"/><polygon class="cls-22" points="539.26 67.39 531 76.19 537.84 83.29 545.5 72.75 539.26 67.39"/><polygon class="cls-13" points="534.38 77.25 540.38 71.63 542.88 75.34 534.38 77.25"/><polygon class="cls-13" points="496.94 78.78 500.38 74.75 507.63 78.7 496.94 78.78"/><polygon class="cls-17" points="510 93.12 520.5 75.34 531.71 91.72 510 93.12"/><polygon class="cls-22" points="528.09 86.44 522.49 78.25 523.2 86.67 528.09 86.44"/><polygon class="cls-22" points="518.47 78.78 513.54 87.13 518.47 86.89 518.47 78.78"/><polygon class="cls-22" points="510 93.12 510 106.75 532.38 105.5 531.71 91.72 510 93.12"/><polygon class="cls-13" points="510 93.12 513.54 106.55 515.34 92.77 518.47 106.28 520.5 92.44 524 105.97 526.11 92.08 529.13 105.68 531.71 91.72 510 93.12"/><polygon class="cls-5" points="532.38 105.5 533.17 118.67 510.33 119.82 510 106.75 520.01 107.19 532.38 105.5"/><polygon class="cls-6" points="510 106.75 521.58 119.25 532.38 105.5 510 106.75"/><polygon class="cls-5" points="510 77.19 518.67 72.5 519.5 62 521.58 72.5 531 76.19 520.5 75.34 510 77.19"/><polygon class="cls-23" points="511.75 56.67 491.25 28 503.26 67.39 511.75 56.67"/><polygon class="cls-23" points="526.75 56.67 544.89 27 535.73 64.36 526.75 56.67"/><polygon class="cls-18" points="554.38 139.54 560.33 151.67 550.82 159.91 539.34 162.28 525.74 158.53 531 141.73 554.38 139.54"/><polygon class="cls-1" points="550.82 159.91 565.01 150.73 554.38 139.54 550.82 159.91"/><polygon class="cls-2" points="550.82 159.91 562.16 192.66 528.09 188.55 525.74 158.53 550.82 159.91"/><polygon class="cls-1" points="550.82 159.91 538.25 175.72 525.74 158.53 550.82 159.91"/><polygon class="cls-1" points="562.16 192.66 560.33 212.51 551.99 205.65 554.38 198.04 562.16 192.66"/><polygon class="cls-18" points="562.16 192.66 522.49 185.18 513.69 202.12 551.99 205.65 562.16 192.66"/><polygon class="cls-18" points="567.67 56.67 568.94 112.66 577 114.31 595.67 58 567.67 56.67"/><polygon class="cls-21" points="592.17 120.5 592.17 136.67 608.52 136.21 625.01 131.73 620 106.75 607.47 110.94 592.17 120.5"/><polygon class="cls-18" points="592.17 120.5 611.99 95.66 620 106.75 592.17 120.5"/><polygon class="cls-1" points="592.17 136.67 589.56 144.27 590.67 155.56 607.33 156.83 626.33 154 625.01 131.73 592.17 136.67"/><polygon class="cls-8" points="626.33 154 623.54 168 597.33 171.32 590.67 155.56 626.33 154"/><polygon class="cls-8" points="592.17 136.67 583.64 149.72 590.67 155.56 592.17 136.67"/><polygon class="cls-18" points="482.5 123.12 473.39 62 451.67 72.79 482.5 123.12"/><polygon class="cls-21" points="482.85 137.18 465.93 133.51 451.67 134.54 453.99 152.59 469.11 147.38 482.85 137.18"/><polygon class="cls-18" points="482.85 137.18 454.41 119.71 451.67 134.54 482.85 137.18"/><polygon class="cls-1" points="482.85 137.18 492.38 154.93 464.33 173.85 453.99 152.59 482.85 137.18"/><polygon class="cls-2" points="526.75 56.67 537.61 56.67 535.73 64.36 526.75 56.67"/><polygon class="cls-2" points="511.75 56.67 500.71 59.04 503.26 67.39 511.75 56.67"/></g><g id="golem"><polygon class="cls-14" points="685.01 139.54 719.5 128.44 792.77 128.17 733 161.28 685.01 139.54"/><polygon class="cls-3" points="675.25 18.78 643.49 41.92 659.66 60.82 680.67 50.85 675.25 18.78"/><polygon class="cls-1" points="643.49 41.92 656.93 40.98 675.25 43.5 680.85 64.89 653.16 65.92 643.49 41.92"/><polygon class="cls-3" points="653.16 65.92 678.85 63.89 686.83 67.63 680.67 80.66 653.16 65.92"/><polygon class="cls-8" points="821.47 56.67 842.56 69.34 821.5 95.07 803.23 81.21 807.35 69.64 821.47 56.67"/><polygon class="cls-2" points="801.33 114.31 837.33 9.74 861.5 13.74 873.17 29.12 811.02 118.05 801.33 114.31"/><polygon class="cls-23" points="837.33 9.74 856.5 27.45 873.17 29.12 861.5 10.74 837.33 9.74"/><polygon class="cls-2" points="856.5 27.45 836.33 62.44 816.67 91.4 801.33 114.31 811.02 118.05 873.17 29.12 856.5 27.45"/><polygon class="cls-3" points="788 10.57 813 45.68 792.67 55.82 777 47.04 780.33 25.17 788 10.57"/><polygon class="cls-1" points="777 47.04 813 45.68 785 67.39 768.67 55.82 777 47.04"/><polygon class="cls-1" points="785 67.39 803.23 81.21 821.47 56.67 813 49.68 785 67.39"/><polygon class="cls-3" points="821.47 56.67 785 67.39 813 45.68 821.47 56.67"/><polygon class="cls-8" points="829.67 68.39 843.47 71.63 845.67 84.24 825.5 97.12 819.67 91.4 829.67 68.39"/><polygon class="cls-1" points="843.47 71.63 825.5 97.12 816.67 91.4 829.67 66.39 843.47 71.63"/><polygon class="cls-3" points="821.47 56.67 836.33 62.44 834.67 76.34 825.37 74.66 824.33 68.5 816.63 69.18 821.47 56.67"/><polygon class="cls-18" points="824.33 68.5 836.33 62.44 821.47 56.67 814.24 66.39 816.63 69.18 824.33 68.5"/><polygon class="cls-20" points="816.67 69.6 825.37 74.66 824.33 68.5 816.67 69.6"/><polygon class="cls-20" points="816.67 91.4 821.47 103.11 825.5 97.12 816.67 91.4"/><polygon class="cls-7" points="732.77 111.76 727.07 123.49 738.05 130.6 762.67 132.6 758 123.49 732.77 111.76"/><polygon class="cls-1" points="728.63 103.75 735.33 122.54 764 110.68 755 91.05 740.21 95.69 728.63 103.75"/><polygon class="cls-3" points="705.67 93.75 688.83 102 694.98 111.76 709.92 121.51 728.63 103.75 718.66 97.97 705.67 93.75"/><polygon class="cls-8" points="705.67 93.75 728.63 103.75 755 91.05 728.64 90.49 705.67 93.75"/><polygon class="cls-17" points="688.83 102 681.5 123.17 709.92 121.51 688.83 102"/><polygon class="cls-7" points="709.92 121.51 705.67 148.9 673.97 134.53 682.5 120.17 709.92 121.51"/><polygon class="cls-6" points="694.16 130.28 696.21 120.84 669.33 116.05 659.66 128.05 685.01 139.54 694.16 130.28"/><polygon class="cls-5" points="656.93 40.98 691.75 77.38 756.61 80.66 777 47.04 700.37 46.03 656.93 40.98"/><polygon class="cls-6" points="746.28 15 788 10.57 777 47.04 724.75 48.75 675.25 43.5 656.93 40.98 675.25 18.78 709.92 21.23 746.28 15"/><polygon class="cls-3" points="746.28 15 764 13.12 765.67 47.41 724.75 48.75 666.34 42.27 681.43 19.43 709.92 21.23 709.92 21.23 746.28 15"/><polygon class="cls-6" points="682.5 12.44 705.67 0 745.75 6.37 727.75 18.78 682.5 12.44"/><polygon class="cls-17" points="682.5 12.44 727.75 16.78 728.63 28.68 724.75 48.75 677.75 43.5 682.5 12.44"/><polygon class="cls-22" points="689 21.23 702.75 26 717.75 23.11 721.25 28.75 701.75 33.66 686.25 26.25 689 21.23"/><polygon class="cls-13" points="689.83 23.58 694.67 28.08 688.83 26.67 689.83 23.58"/><polygon class="cls-13" points="716.17 25.17 709.92 29.42 717.5 28.67 716.17 25.17"/><polygon class="cls-7" points="745.75 6.37 745.75 29.4 724.75 48.75 727.75 16.78 745.75 6.37"/><polygon class="cls-7" points="675.25 43.5 686.25 54.5 720.25 56.05 720.5 43.75 699.25 38.16 675.25 43.5"/><polygon class="cls-4" points="675.25 43.5 678.56 38.22 700.5 35.5 725.48 40.98 719.5 43.75 699.25 39.16 675.25 43.5"/><polygon class="cls-22" points="725.48 40.98 724.75 48.75 720.25 56.05 719.5 43.75 725.48 40.98"/><polygon class="cls-7" points="691.75 77.38 705.67 93.75 755 91.05 756.61 80.66 691.75 77.38"/><polygon class="cls-7" points="725.48 79.4 720.25 56.05 716.96 78.77 725.48 79.4"/><polygon class="cls-17" points="735.33 122.54 738.05 130.6 765.67 123.12 764 110.68 735.33 122.54"/><polygon class="cls-17" points="696.21 120.84 685.01 139.54 697.88 145.37 696.21 120.84"/><polygon class="cls-17" points="727.07 123.49 726.63 140.28 738.05 149.72 741.33 139.54 738.05 130.6 727.07 123.49"/><polygon class="cls-5" points="738.05 130.6 767.67 130.6 768.67 141.52 738.05 149.72 738.05 142.28 738.05 130.6"/><polygon class="cls-1" points="671.33 96.72 680.67 80.66 662.08 68.39 659.66 85.49 671.33 96.72"/><polygon class="cls-18" points="641.33 74.66 653.16 65.92 662.08 68.39 641.33 74.66"/><polygon class="cls-18" points="662.08 68.39 672.38 75.19 666.34 84.23 662.08 68.39"/><polygon class="cls-8" points="641.33 74.66 662.08 68.39 671.33 96.72 655.93 102.22 641.33 74.66"/><polygon class="cls-1" points="662.08 68.39 655.93 102.22 648 101.12 641.33 74.66 662.08 68.39"/></g><g id="infj"><polygon class="cls-24" points="472.46 204.11 482.06 205.65 489.14 202.91 477.1 198.38 472.46 204.11"/><polygon class="cls-14" points="472.26 295.65 392.69 267.62 322.92 295.77 406.73 310.9 472.26 295.65"/><polygon class="cls-17" points="423.69 178.29 417.88 189.5 418.55 200.15 406.88 200.15 400.87 200.15 387.54 197.12 378.81 174.75 423.69 178.29"/><polygon class="cls-22" points="423.69 178.29 401.99 200.15 410.21 202.62 420.41 201.85 423.69 178.29"/><polygon class="cls-1" points="351.8 275.35 349.99 285.08 357.51 290.84 366.36 291.43 368.75 286.25 372.58 266.25 351.8 275.35"/><polygon class="cls-25" points="351.8 275.35 369 286.42 372.81 278.98 364.8 274.45 351.8 275.35"/><polygon class="cls-25" points="438.5 278.47 428 285.69 422.5 285.25 419.21 279.5 426.77 278.13 438.5 278.47"/><polygon class="cls-21" points="367.56 149.97 366.14 160.17 362.25 160.96 358.15 143.59 367.56 149.97"/><polygon class="cls-26" points="367.33 142.4 371.98 136.04 370.56 151.11 367.06 151.68 358.15 143.59 367.33 142.4"/><polygon class="cls-21" points="360.69 128.86 374.87 131.48 375.29 137.64 370.3 141.39 367.33 142.4 360.69 128.86"/><polygon class="cls-26" points="376.02 114.07 376.34 114.16 376.3 114.31 373.85 132.17 360.69 128.86 376.02 114.07"/><polygon class="cls-6" points="367.06 151.68 344.46 174.38 344.62 186.97 358.29 179.52 365.07 170.11 367.06 151.68"/><polygon class="cls-8" points="312.31 179 314.93 196.48 319.35 196.78 322.83 182.88 326.38 165.94 322.76 164.03 312.31 179"/><polygon class="cls-17" points="344.46 174.38 326.38 165.94 316.33 181.62 331.08 184.56 345.83 184.56 344.46 174.38"/><polygon class="cls-7" points="358.29 179.52 345.83 184.56 316.33 181.62 319.35 196.78 343.66 197.79 360.69 190.45 358.29 179.52"/><polygon class="cls-26" points="400.86 82.72 394.57 87.36 384.18 89.38 395.11 78.36 403 77.19 403.26 80.97 400.86 82.72"/><polygon class="cls-12" points="403 77.19 419.22 74.79 414.62 84.63 407.79 92.66 403.01 88.81 400.86 82.72 403 77.19"/><polygon class="cls-26" points="433.39 89.44 430.63 91.13 430.51 90.77 421 93.7 407.81 92.7 407.79 92.66 419.22 74.79 433.39 89.44"/><polygon class="cls-21" points="447.31 104.03 436.38 127 433.88 126.74 427.86 129.25 427.84 109.97 433.87 105.08 430.51 90.77 432.46 88.47 447.31 104.03"/><polygon class="cls-7" points="443.18 192.12 464.75 206.63 449.36 217.43 432.18 200.15 413.63 178.87 424.44 171.32 439.46 184.56 443.18 192.12"/><polygon class="cls-21" points="416.71 161.28 440.89 165.32 436.1 175.72 414.13 166.35 416.71 161.28"/><polygon class="cls-26" points="426.37 154 438.72 159.3 440.89 165.32 433.82 164.77 425.02 160.24 426.37 154"/><polygon class="cls-21" points="427.75 144.25 446.47 152.44 438.72 159.3 426.25 159.91 426.37 154 427.75 144.25"/><polygon class="cls-26" points="431.01 132.41 434.44 133.66 437.6 130.6 446.47 152.44 428.57 147.38 431.01 132.41"/><polygon class="cls-6" points="446.47 185.18 445.72 189.63 441.45 192.12 424.44 171.32 427.62 168 433.82 164.77 446.47 185.18"/><polygon class="cls-17" points="446.47 185.18 466.54 192.22 464.75 206.63 441.45 192.12 446.47 185.18"/><polygon class="cls-17" points="420.41 201.85 437.52 273.64 402.34 284.08 352.5 270.8 362.09 216.48 368.51 191.1 401.99 200.15 420.41 201.85"/><polygon class="cls-6" points="402.59 279.81 370.85 202.05 378.81 196.78 401.99 200.15 402.59 279.81"/><polygon class="cls-8" points="437.52 273.64 402.59 279.81 352.5 270.8 351.8 275.35 402.34 284.08 438.5 278.47 437.52 273.64"/><polygon class="cls-26" points="376.4 113.85 376.34 114.16 376.02 114.07 376.4 113.85"/><polygon class="cls-9" points="376.36 114.16 376.3 114.31 376.34 114.16 376.36 114.16"/><polygon class="cls-17" points="373.3 186.55 366.02 184.06 369.65 176.68 373.3 186.55"/><polygon class="cls-3" points="396.05 194.33 395.1 194.93 396.05 194.33 396.05 194.33"/><polygon class="cls-8" points="372.25 176.81 375.92 186.74 376.27 187.56 373.3 186.55 369.65 176.68 371.04 173.85 372.25 176.81"/><polygon class="cls-3" points="398.55 160.58 400.99 166.71 415.17 173.85 388.39 192.66 375.12 172.18 383.49 146.64 398.55 160.58"/><polygon class="cls-18" points="414.13 173.85 400.99 166.71 411.12 161.3 426.25 159.91 429.34 162.45 414.13 173.85"/><polygon class="cls-25" points="383.45 146.7 383.49 146.64 383.6 146.73 383.45 146.7"/><polygon class="cls-8" points="389.14 189.94 429.34 162.45 433.82 164.77 386.41 197.89 377.63 213.08 374.69 194.33 372.96 184.94 385.1 178.32 389.14 189.94"/><polygon class="cls-8" points="398.55 160.58 426.37 154 426.25 159.91 396.23 168 398.55 160.58"/><polygon class="cls-27" points="367.33 142.4 384.18 89.38 400.86 82.72 407.81 92.7 430.51 90.77 430.84 91.71 424.15 103.73 404.32 158.29 386.4 150.56 367.33 142.4"/><polygon class="cls-28" points="397.97 103.05 392.52 108.89 386.09 126.17 392.26 128.44 398.15 111.32 403.39 105.75 397.97 103.05"/><polygon class="cls-29" points="414.13 108.18 394.19 122.83 398.15 111.32 403.39 105.75 397.97 103.05 392.28 109.52 389.82 116.14 388.28 100.77 396.91 98.53 406.28 105.61 414.13 108.18"/><polygon class="cls-29" points="423.64 99.47 430.51 90.77 436.08 106.27 429.65 108.93 428.51 128.07 434.09 125.8 436.38 127 441.18 129.57 435.34 141.1 431.22 139.44 427.96 139.1 428.57 147.38 426.37 154 407.21 158.53 404.45 157.8 423.64 99.47"/><polygon class="cls-24" points="431.22 139.44 428.57 147.38 425.87 137.18 431.22 139.44"/><polygon class="cls-24" points="398.55 160.58 399.85 155.56 405.88 156.47 411.83 157.44 398.55 160.58"/><polygon class="cls-9" points="386.09 126.17 392.26 128.44 387.54 129.93 386.09 126.17"/><polygon class="cls-24" points="437.6 130.6 430.04 132.68 432.58 128.17 437.6 130.6"/><polygon class="cls-26" points="392.26 128.44 405.4 139.04 389.14 189.94 370.85 202.05 369.89 205.65 371.42 209.99 362.09 216.48 377.21 161.66 387.54 129.93 392.26 128.44"/><polygon class="cls-13" points="363.15 199.59 358.29 179.52 373.2 132.18 386.09 126.17 387.54 129.93 362.09 216.48 358.11 206.28 362.14 203.35 363.15 199.59"/><polygon class="cls-22" points="362.14 203.35 369.89 205.65 370.85 202.05 363.15 199.59 362.14 203.35"/><polygon class="cls-3" points="318.37 123.48 317.76 121.72 319.72 123.3 317.25 141.73 315.55 138.1 318.37 123.48"/><polygon class="cls-8" points="317.76 121.72 318.37 123.48 315.55 138.1 317.25 141.73 312.18 147.87 314.96 154.93 312.42 156.96 310.51 166.62 312.87 167.15 312.87 167.15 312.56 168.97 309.8 181.62 303.64 180.62 310.56 155.8 308.21 147.34 314.04 139.31 317.76 121.72"/><polygon class="cls-3" points="310.51 166.62 312.42 156.96 314.96 154.93 312.87 167.15 312.87 167.15 310.51 166.62"/><polygon class="cls-24" points="322.76 164.03 314.63 157.2 308.14 164.77 303.76 173.78 312.31 179 322.76 164.03"/><polygon class="cls-29" points="313.26 158.79 305.74 156.82 302.87 173.85 310.51 177.8 313.26 158.79"/><polygon class="cls-27" points="322.76 164.03 314.63 157.2 308.14 164.77 311.11 168.1 315.55 164.77 317.63 171.38 322.76 164.03"/><polygon class="cls-27" points="470.96 193.77 465.93 207.34 479.64 200.55 480.85 195.33 470.96 193.77"/><polygon class="cls-8" points="466.54 192.22 461.86 204.77 449.36 217.43 453.01 220.44 465.93 207.34 470.96 193.77 466.54 192.22"/><polygon class="cls-24" points="395.58 140.64 382.37 133.51 381.21 135.95 394.13 142.87 395.58 140.64"/><polygon class="cls-29" points="479.64 200.55 489.14 202.91 493.04 200.15 480.85 195.33 479.64 200.55"/><polygon class="cls-29" points="465.93 207.34 474.67 215.27 477.1 211.87 472.46 204.11 465.93 207.34"/><polygon class="cls-9" points="403.39 105.75 400.99 108.3 414.13 108.18 413.63 105.96 403.39 105.75"/><polygon class="cls-9" points="397.03 95.31 396.91 98.53 388.28 100.77 388.5 98.91 397.03 95.31"/><polygon class="cls-3" points="407.46 15.74 430.06 14.83 434.89 31.11 418.31 37.74 418.91 42.56 432.78 40.15 431.87 54.02 411.08 50.7 407.76 40.45 419.82 30.2 418.61 22.37 405.65 26.59 407.46 15.74"/><polygon class="cls-3" points="415.6 64.01 420.92 59.04 426.96 63.66 421.28 69.69 415.6 64.01"/><circle class="cls-30" cx="406" cy="115.5" r="2.36"/><circle class="cls-30" cx="388.32" cy="108.9" r="2.36"/><polygon class="cls-1" points="438.42 278.39 441.59 292.9 432.51 292.88 423.89 288 422.5 285.25 424.09 284.56 438.42 278.39"/><polygon class="cls-3" points="349.98 284.68 366.36 291.43 365.88 295.38 352.24 296.65 336.86 295.62 349.98 284.68"/><polygon class="cls-8" points="336.87 299.39 365.63 299.19 365.88 295.38 336.86 295.62 336.87 299.39"/><polygon class="cls-3" points="423.89 288 420.08 298.95 430.86 300.81 443.13 298.91 441.59 292.9 423.89 288"/><rect class="cls-8" x="420.08" y="298.93" width="23.05" height="3.77" transform="translate(863.68 600.96) rotate(179.91)"/></g></svg>