<svg id="ILLUSTRASI" xmlns="http://www.w3.org/2000/svg" viewBox="0 0 900 350"><defs><style>.cls-1{fill:#cececd;}.cls-2{fill:#ebecea;}.cls-3,.cls-44{fill:#dddddb;}.cls-4{fill:#c4c3c3;}.cls-25,.cls-40,.cls-5{fill:#2a2b2a;}.cls-5{opacity:0.1;}.cls-6{fill:#53af8a;}.cls-7{fill:#3e8e6f;}.cls-49,.cls-8{fill:#36795d;}.cls-39,.cls-9{fill:#707274;}.cls-10,.cls-48{fill:#737374;}.cls-11{fill:#8f8f8f;}.cls-12{fill:#838585;}.cls-13{fill:#b7c644;}.cls-14{fill:#d8e156;}.cls-15{fill:#e5e87b;}.cls-16,.cls-41{fill:#5a753d;}.cls-17,.cls-35{fill:#c3977b;}.cls-18,.cls-36{fill:#8b6752;}.cls-19,.cls-37{fill:#debca4;}.cls-20{fill:#744d61;}.cls-21{fill:#95647d;}.cls-22,.cls-38{fill:#474748;}.cls-23{fill:#4f5253;}.cls-24,.cls-46{fill:#e8cab6;}.cls-26{fill:#b3889d;}.cls-27,.cls-47{fill:#fff;}.cls-28{fill:#553042;}.cls-29,.cls-42{fill:#738d58;}.cls-30,.cls-50{fill:#98c26c;}.cls-31{fill:#bfdb8e;}.cls-32,.cls-45{fill:#6f9c52;}.cls-33{fill:#73c6a4;}.cls-34,.cls-43{fill:#44612d;}.cls-35,.cls-36,.cls-37,.cls-38,.cls-39,.cls-40,.cls-41,.cls-42,.cls-43,.cls-44,.cls-45,.cls-46,.cls-47,.cls-48,.cls-49,.cls-50{fill-rule:evenodd;}.cls-51{fill:#594265;}.cls-52{fill:#9ca1a1;}.cls-53{fill:#a587b9;}.cls-54{fill:#795d88;}</style></defs><title>diplomats_Protagonist_ENFJ_friendships</title><g id="sky"><polygon class="cls-1" points="83.19 226.96 15.19 167.96 30.19 105.96 86.3 73.06 160.19 7.96 347.19 1.96 510.19 21.96 715.19 1.96 824.69 45.46 839.69 110.96 877.52 167.3 834.76 278.55 111.79 299.55 83.19 226.96"/></g><g id="stars"><polygon class="cls-2" points="412.13 138.12 416.19 138.63 416.52 142.78 417.87 138.82 421.93 141.12 418.58 137.56 422.1 132.02 417.52 135.81 416.59 131.83 416.37 136.95 412.13 138.12"/><polygon class="cls-2" points="345.49 20.98 347.59 24.48 344.52 27.3 348.48 25.93 349.16 30.54 349.9 25.71 356.44 25.07 350.63 23.81 353.19 20.62 349.03 23.6 345.49 20.98"/><polygon class="cls-2" points="99.39 107.01 101.13 110.71 97.8 113.21 101.87 112.23 102.09 116.89 103.31 112.17 109.87 112.19 104.22 110.34 107.09 107.42 102.65 109.97 99.39 107.01"/><polygon class="cls-2" points="670.74 142.03 674.79 142.53 675.13 146.68 676.48 142.72 680.54 145.02 677.19 141.46 680.71 135.92 676.13 139.72 675.19 135.74 674.98 140.85 670.74 142.03"/><polygon class="cls-2" points="795.04 129.09 797.98 126.24 801.42 128.58 799.17 125.05 803.51 123.32 798.64 123.7 796.52 117.49 796.62 123.44 792.92 121.68 796.78 125.05 795.04 129.09"/><polygon class="cls-2" points="462.31 95.23 461.32 101.28 455.09 101.54 460.95 103.79 457.27 109.75 462.79 104.92 470.9 110.51 465.47 103.44 471.49 102.25 463.83 101.65 462.31 95.23"/><polygon class="cls-2" points="679.82 36.26 674.18 38.66 670.62 33.54 671.86 39.69 664.86 39.78 671.88 41.86 671.51 51.7 674.57 43.32 678.79 47.77 675.21 40.98 679.82 36.26"/><polygon class="cls-2" points="191.89 58.26 187.09 54.45 189.89 48.87 185.08 52.9 181.66 46.8 183.19 53.96 174.36 58.33 183.18 57.02 181.29 62.86 185.54 56.46 191.89 58.26"/><polygon class="cls-2" points="229.32 179.2 230.66 175.5 234.62 176.07 231.19 173.96 234.2 170.64 230.16 173.03 225.7 168.55 228.29 173.65 224.36 173.69 229.12 174.97 229.32 179.2"/><polygon class="cls-3" points="378.04 58.93 400.62 43.87 403.16 50.24 394.24 62.79 378.04 58.93"/><polygon class="cls-2" points="379.56 85.14 378.04 58.93 394.24 62.79 397.4 74.46 379.56 85.14"/><polygon class="cls-4" points="379.56 85.14 378.04 58.93 394.24 62.79 379.56 85.14"/><polygon class="cls-3" points="399.3 95.83 379.56 85.14 397.4 74.46 406.83 81.96 399.3 95.83"/><path class="cls-2" d="M418.84,84.89c-.54.25-19.54,10.94-19.54,10.94L406.83,82l10.62-1.5Z"/><polygon class="cls-4" points="423.36 72.67 417.45 80.46 418.83 84.89 423.36 72.67"/><polygon class="cls-2" points="412.36 50.17 403.16 50.24 400.62 43.87 412.36 50.17"/></g><g id="ground"><polygon class="cls-2" points="137.52 273.3 154.85 233.3 422.85 220.63 561.52 257.96 461.85 342.96 326.69 346.46 144.85 305.3 137.52 273.3"/><polygon class="cls-3" points="654.19 329.96 569.52 339.96 461.85 342.96 424.19 271.96 416.19 220.3 525.52 216.63 639.52 230.3 721.19 238.3 727.52 273.96 706.19 321.63 654.19 329.96"/><polygon class="cls-1" points="751.52 257.3 569.52 339.96 793.52 349.96 899.19 283.46 780.35 247.8 751.52 257.3"/><polygon class="cls-3" points="326.69 346.46 153.85 236.96 127.85 266.3 94.52 260.3 -0.15 286.63 50.85 337.96 218.69 349.96 326.69 346.46"/></g><g id="shadows"><polygon class="cls-5" points="191.52 344.3 314.19 318.96 284.85 302.3 357.85 288.3 298.19 263.3 181.85 272.3 88.85 300.3 43.52 321.3 191.52 344.3"/><polygon class="cls-5" points="333.19 311.71 380.19 336.96 461.69 342.96 522.19 335.96 549.69 305.46 438.44 267.71 333.19 311.71"/><polygon class="cls-5" points="519.85 252.3 587.19 240.63 664.85 252.96 599.85 286.96 540.52 285.3 519.85 252.3"/><polygon class="cls-5" points="641.52 311.3 725.52 292.96 776.19 292.96 831.52 313.96 743.85 346.63 661.52 335.96 641.52 311.3"/><polygon class="cls-5" points="92.19 257.46 109.69 290.46 65.19 302.46 24.19 311.96 -0.31 286.96 92.19 257.46"/><polygon class="cls-5" points="861.19 248.96 898.35 283.3 867.85 295.13 835.52 291.3 780.52 298.3 794.02 254.96 861.19 248.96"/></g><g id="green_rocks" data-name="green rocks"><polygon class="cls-6" points="33.69 206.96 21.19 193.46 15.19 167.96 59.19 149.96 128.69 156.96 129.69 194.46 33.69 206.96"/><polygon class="cls-7" points="106.19 215.46 113.19 171.46 160.69 172.46 144.69 245.96 109.69 267.46 106.19 215.46"/><polygon class="cls-8" points="74.19 216.46 84.19 173.96 113.19 171.46 128.19 257.46 82.19 273.96 74.19 216.46"/><polygon class="cls-7" points="58.19 201.96 54.69 290.96 89.69 288.46 105.69 280.46 93.69 260.96 84.19 173.96 73.19 177.46 58.19 201.96"/><polygon class="cls-8" points="42.19 261.46 54.69 290.96 73.19 177.46 44.19 184.46 42.19 261.46"/><polygon class="cls-7" points="19.69 279.46 24.19 297.46 54.69 290.96 44.19 184.46 28.52 181.3 19.69 279.46"/><polygon class="cls-6" points="877.52 167.3 855.94 158.71 830.19 162.3 805.85 150.63 758.52 161.96 762.52 189.3 866.52 194.63 877.52 167.3"/><polygon class="cls-7" points="806.85 178.3 794.19 165.46 764.85 168.96 755.85 250.96 802.52 250.3 806.85 178.3"/><polygon class="cls-8" points="824.19 234.46 819.52 177.63 794.19 165.46 776.19 237.96 777.19 264.96 792.19 281.46 807.06 273.09 816.19 275.63 824.19 234.46"/><polygon class="cls-8" points="862.52 239.3 874.52 286.96 898.52 283.3 877.52 167.3 862.52 239.3"/><polygon class="cls-7" points="850.85 186.3 862.44 180.21 877.52 167.3 874.52 286.96 847.85 274.63 850.85 186.3"/><polygon class="cls-8" points="824.69 219.96 842.02 176.3 862.44 180.21 847.85 274.63 824.69 219.96"/><polygon class="cls-7" points="819.52 177.63 816.19 275.63 847.85 274.63 842.02 176.3 819.52 177.63"/><polygon class="cls-8" points="15.19 167.96 -0.15 286.63 24.19 297.46 28.52 181.3 15.19 167.96"/></g><g id="rock"><polygon class="cls-9" points="102.19 301.21 78.02 302.13 76.19 320.71 101.19 327.71 122.44 305.71 102.19 301.21"/><polygon class="cls-9" points="114.44 310.21 123.44 326.96 156.44 313.46 138.44 274.21 111.69 299.71 114.44 310.21"/><polygon class="cls-10" points="108.69 298.71 120.69 303.13 123.44 326.96 101.19 327.71 103.69 309.46 108.69 298.71"/><polygon class="cls-11" points="104.02 285.63 90.19 288.63 78.02 302.13 103.69 309.46 120.69 303.13 129.02 288.8 104.02 285.63"/><polygon class="cls-10" points="110.69 277.96 120.69 292.8 120.69 303.13 134.02 299.3 160.19 277.46 136.69 259.13 110.69 277.96"/><polygon class="cls-12" points="120.37 258.59 94.19 260.71 90.19 288.63 120.69 292.8 132.56 270.65 120.37 258.59"/><polygon class="cls-11" points="138.94 249.96 125.69 246.21 94.19 260.71 132.56 270.65 138.94 249.96"/></g><g id="fire"><polygon class="cls-13" points="420.31 190.72 413.21 176.2 427.11 152.39 430.98 175.88 420.31 190.72"/><polygon class="cls-14" points="437.62 176.2 427.11 152.39 420.31 190.72 437.62 176.2"/><polygon class="cls-13" points="441.33 177.12 428.5 205.25 438.24 239.55 446.27 204.16 441.33 177.12"/><polygon class="cls-14" points="454.62 198.44 441.33 177.12 438.24 239.55 454.62 198.44"/><polygon class="cls-14" points="469.92 186.39 460.19 204.47 471.16 227.34 473.32 209.26 469.92 186.39"/><polygon class="cls-15" points="480.89 215.44 469.92 186.39 471.16 227.34 480.89 215.44"/><polygon class="cls-15" points="485.37 220.54 494.65 216.06 497.43 235.23 489.39 253.15 485.37 220.54"/><polygon class="cls-14" points="504.69 225.03 494.65 216.06 489.39 253.15 504.69 225.03"/><polygon class="cls-14" points="454.62 220.08 430.52 264.13 460.19 301.98 471.31 256.39 454.62 220.08"/><polygon class="cls-13" points="484.14 250.06 454.62 220.08 456.32 256.86 460.19 301.98 484.14 250.06"/><polygon class="cls-15" points="503.45 244.03 446.27 300.75 472.7 301.98 509.79 252.07 503.45 244.03"/><polygon class="cls-13" points="497.74 295.19 509.79 252.07 454.16 301.06 472.7 301.98 497.74 295.19"/><polygon class="cls-13" points="432.52 306.77 449.06 250.52 407.18 192.26 399.3 249.13 407.02 311.41 432.52 306.77"/><polygon class="cls-15" points="377.97 259.33 394.97 220.24 407.18 192.26 414.29 310.18 407.02 311.41 377.97 259.33"/><polygon class="cls-15" points="384 197.98 374.73 223.48 389.71 247.59 388.79 222.09 384 197.98"/><polygon class="cls-13" points="384 197.98 389.71 247.59 394.97 220.24 384 197.98"/><polygon class="cls-6" points="364.22 284.21 378.9 287.77 382.76 295.49 390.03 312.34 381.52 329.03 361.44 317.29 364.22 284.21"/><polygon class="cls-7" points="417.99 333.2 381.52 329.03 382.76 295.49 411.2 293.64 420.31 297.19 431.29 315.59 417.99 333.2"/><polygon class="cls-6" points="456.32 333.51 417.99 333.2 420.31 297.19 439.79 293.49 457.25 298.28 472.86 315.43 456.32 333.51"/><polygon class="cls-7" points="489.24 327.95 456.32 333.51 457.25 298.28 475.17 293.49 489.39 297.35 497.58 310.18 489.24 327.95"/><polygon class="cls-6" points="522.93 317.44 489.24 327.95 489.39 297.35 502.37 287.15 522.15 283.59 525.55 292.25 522.93 317.44"/><polygon class="cls-7" points="527.4 273.39 520.92 276.64 522.15 283.59 522.93 317.44 528.18 302.14 527.4 273.39"/><polygon class="cls-6" points="512.88 271.85 518.6 270.77 527.4 273.39 522.15 283.59 509.94 284.21 509.79 280.04 508.71 274.94 512.88 271.85"/><polygon class="cls-7" points="483.83 289.62 482.13 293.95 489.39 297.35 522.15 283.59 514.27 281.28 509.79 280.04 505.15 279.11 500.98 283.29 483.83 289.62"/><polygon class="cls-6" points="456.63 290.55 451.22 293.95 457.25 298.28 489.39 297.35 483.83 289.62 456.63 290.55"/><polygon class="cls-7" points="421.7 290.86 437.31 290.7 444.88 287.61 451.22 290.55 456.63 290.55 456.94 294.11 457.25 298.28 420.31 297.19 415.68 292.87 421.7 290.86"/><polygon class="cls-6" points="382.76 295.49 384.77 289.31 394.35 288.85 421.7 290.86 420.31 297.19 382.76 295.49"/><polygon class="cls-7" points="364.22 284.21 374.57 280.35 380.29 282.67 387.09 282.05 394.35 288.85 382.76 295.49 364.22 284.21"/><polygon class="cls-6" points="384.93 272 384.62 279.73 380.29 282.67 364.22 284.21 375.04 272.78 381.37 270.92 384.93 272"/><polygon class="cls-7" points="382.92 268.45 375.04 272.78 384.93 272 382.92 268.45"/><polygon class="cls-16" points="380.29 282.67 384.93 272 394.35 288.85 380.29 282.67"/><polygon class="cls-16" points="441.18 277.57 451.22 290.55 437.31 290.7 441.18 277.57"/><polygon class="cls-16" points="512.88 271.85 510.56 267.52 505.62 266.9 500.98 283.29 506.55 281.28 509.79 280.04 512.88 271.85"/><polygon class="cls-7" points="507.17 261.5 527.4 273.39 512.88 271.85 509.17 269.38 505.62 266.9 507.17 261.5"/><polygon class="cls-8" points="480.43 258.25 488.78 258.72 482.75 264.59 478.88 267.21 477.03 265.36 480.43 258.25"/><polygon class="cls-16" points="472.86 274.33 482.75 264.59 477.03 265.36 472.86 274.33"/></g><g id="chair"><polygon class="cls-11" points="710.35 271.96 712.35 281.96 708.1 313.71 744.1 326.21 778.35 303.21 766.6 271.46 710.35 271.96"/><polygon class="cls-10" points="798.1 303.71 785.1 323.46 741.6 325.21 743.85 278.21 789.6 279.96 798.1 303.71"/><polygon class="cls-9" points="794.6 277.21 807.19 272.96 811.85 314.96 785.1 323.46 792.35 287.96 783.85 284.46 794.6 277.21"/><polygon class="cls-11" points="772.19 260.3 778.85 257.3 807.19 272.96 792.35 287.96 757.6 290.46 772.19 260.3"/><polygon class="cls-11" points="600.85 250.63 577.9 263.72 557.52 258.3 547.19 228.3 551.87 215.98 585.19 225.96 600.85 250.63"/><polygon class="cls-10" points="626.52 246.96 614.52 265.3 588.56 265.23 578.19 219.96 608.19 214.3 626.52 246.96"/><polygon class="cls-9" points="620.85 214.96 610.52 227.96 614.52 265.3 644.85 254.96 636.52 212.3 620.85 214.96"/><polygon class="cls-11" points="607.44 204.21 636.52 212.3 610.52 227.96 590.85 226.96 607.44 204.21"/></g><g id="ENTP"><polygon class="cls-17" points="507.85 116.8 499.02 115.96 499.31 99.21 512.56 97.21 514.39 106.34 514.52 117.38 507.85 116.8"/><polygon class="cls-18" points="510.02 131.46 507.44 130.46 499.02 115.96 516.02 112.46 516.52 130.8 510.02 131.46"/><polygon class="cls-19" points="519.19 132.63 517.94 124.96 520.02 114.13 517.69 105.88 514.39 106.34 513.85 113.63 510.52 121.13 516.52 133.3 519.19 132.63"/><path class="cls-20" d="M526.94,140.71l11.75,22,18,2-1.15-40Z"/><polygon class="cls-17" points="517.94 124.96 540.94 161.96 514.94 157.46 507.44 130.46 517.94 124.96"/><polygon class="cls-17" points="591.14 239.21 588.56 265.23 585.21 265.47 577.9 263.72 569.84 242.39 575.93 231.19 591.14 239.21"/><polygon class="cls-17" points="554.91 228.7 551.87 215.98 533.65 229.94 546.75 249.6 550.76 250.79 559.49 249.6 554.91 228.7"/><polygon class="cls-18" points="590.71 243.63 578.09 228.74 566.32 233.57 569.84 242.39 590.71 243.63"/><polygon class="cls-18" points="525.87 217.6 540.06 220.13 554.91 228.7 533.65 229.94 525.87 217.6"/><polygon class="cls-20" points="557.51 268.19 560.29 268.15 562.08 257.15 559.49 249.6 553.83 254.09 555.29 258.48 557.51 268.19"/><polygon class="cls-19" points="577.9 263.72 575.96 269.38 580.77 275 589.5 276.7 588.56 265.23 577.9 263.72"/><polygon class="cls-21" points="589.5 276.7 575.96 269.38 574.92 272.4 577.66 276.7 589.64 279.57 589.5 276.7"/><polygon class="cls-19" points="589.64 279.57 574.92 272.4 570.35 279.57 577.57 280.99 589.64 279.57"/><polygon class="cls-19" points="546.75 249.6 543.4 255.79 547.22 260.08 553.12 262.15 559.49 249.6 546.75 249.6"/><polygon class="cls-21" points="553.12 262.15 543.4 255.79 541.99 258.05 544.53 262.01 551.52 264.09 553.12 262.15"/><polygon class="cls-19" points="551.52 264.8 541.99 258.05 533.97 264.8 543.26 266.21 551.52 264.8"/><polygon class="cls-20" points="589.64 279.57 589.64 282.97 570.35 282.97 570.35 279.57 589.64 279.57"/><polygon class="cls-20" points="555.15 258.14 556.71 259.75 556.85 263.43 549.2 268.33 533.97 268.33 533.97 264.8 546.61 264.8 555.15 258.14"/><polygon class="cls-17" points="546.61 264.8 533.97 260.93 533.97 264.8 546.61 264.8"/><polygon class="cls-17" points="572.85 275.66 589.64 279.57 570.35 279.57 572.85 275.66"/><polygon class="cls-22" points="540.73 208.82 551.38 219.37 566.32 233.57 590.71 243.63 613.54 212.94 613.95 199.19 600.74 188.53 540.73 208.82"/><polygon class="cls-23" points="566.32 233.57 554.91 228.7 546.2 216.05 543.5 195.93 567.56 176.85 594.18 202.01 566.32 233.57"/><polygon class="cls-9" points="554.91 228.7 525.56 217.5 543.5 195.93 554.91 228.7"/><polygon class="cls-22" points="602.44 110.26 606.78 110.9 611.45 103.19 619.76 97.71 616.97 94.41 632.87 62.94 609.14 29.73 587.72 58.89 593.66 59.64 583.05 85.87 592.15 102.24 595.93 100.21 602.44 110.26"/><polygon class="cls-19" points="537.99 52.28 533.37 59.83 539.31 77.71 541.2 113.28 569.04 114.27 573.47 134.75 600.5 134.75 596.78 101.53 591.96 99.55 591.63 82.05 593.66 59.64 537.99 52.28"/><polygon class="cls-17" points="603.19 124.93 606.78 110.9 603.66 100.21 601.73 87.85 595.94 85.33 595.5 80.45 593.66 59.64 587.72 58.89 585.92 124.89 591.3 129.37 603.19 124.93"/><polygon class="cls-9" points="543.04 47.99 537.71 46.57 534.36 35.25 609.14 29.73 632.87 62.94 594.84 72.85 543.04 47.99"/><polygon class="cls-22" points="552.9 71.15 541.67 61.48 538.7 66.34 537.38 67.8 538.79 67.71 541.77 64.12 553.18 76.39 552.9 71.15"/><polygon class="cls-24" points="552.9 71.15 553.84 91.67 559.55 91.63 563.37 71.15 552.9 71.15"/><polygon class="cls-22" points="562.29 76.91 579.7 67.42 580.45 65.68 577.24 66.48 563.37 71.15 562.29 76.91"/><polygon class="cls-18" points="556.25 95.07 553.84 91.67 559.55 91.63 556.25 95.07"/><polygon class="cls-17" points="549.88 75.35 553.84 91.67 553.18 76.39 541.77 64.12 538.79 67.71 549.88 75.35"/><polygon class="cls-17" points="559.55 91.63 566.35 78.09 579.7 67.42 562.29 76.91 559.55 91.63"/><polygon class="cls-18" points="569.04 114.27 586.3 114.69 597.72 115.03 585.92 124.89 580.26 126.54 571.3 124.84 569.04 114.27"/><polygon class="cls-18" points="609.47 99.91 605.5 90.52 598 94.67 606.78 110.9 607.53 107.78 609.47 99.91"/><polygon class="cls-19" points="598 94.67 604.61 75.8 614.04 81.41 609.47 99.91 602.86 96.89 598 94.67"/><polygon class="cls-18" points="601.73 91.04 610.41 84.34 605.69 81.37 601.73 91.04"/><polygon class="cls-23" points="631.59 91.79 628.38 126.89 616.73 105.85 611.45 105.99 613.27 99.13 620.53 87.36 631.59 91.79"/><polygon class="cls-25" points="606.78 110.9 613.17 99.51 614.85 102.5 616.73 105.85 606.78 110.9"/><polygon class="cls-22" points="527.99 62.38 534.31 50.91 536.58 50.82 537.99 52.28 539.31 77.71 527.99 62.38"/><polygon class="cls-12" points="594.84 72.85 579.7 67.42 578.05 66.81 577.24 66.48 536.25 51.62 527.99 48.65 534.36 35.25 594.84 72.85"/><polygon class="cls-23" points="632.87 62.94 609.14 29.73 534.36 35.25 632.87 62.94"/><polygon class="cls-26" points="574.27 131.08 571.3 124.84 555.54 124.75 549.13 161.17 547.86 169.38 569.46 198.2 613.19 159.63 611.74 126.24 603.19 124.93 578.42 130.66 572.33 133.84 574.27 131.08"/><polygon class="cls-21" points="547.86 169.38 543.5 195.93 594.18 202.01 613.95 199.19 609.67 169.17 547.86 169.38"/><polygon class="cls-27" points="606.64 96.93 607.16 104.25 602.58 103.26 604.8 96.08 606.64 96.93"/><path class="cls-25" d="M548,74.27a2.55,2.55,0,1,1,0,5.09,2.55,2.55,0,0,1,0-5.09Z"/><path class="cls-25" d="M568,76.06a2.47,2.47,0,0,1,2.51,2.55,2.5,2.5,0,0,1-2.51,2.5,2.56,2.56,0,0,1-2.54-2.5A2.53,2.53,0,0,1,568,76.06Z"/><polygon class="cls-20" points="588.56 265.23 592.85 274.67 589.64 282.97 588.56 265.23"/><polygon class="cls-20" points="628.54 141.79 622.11 166.48 586.53 175.91 601.16 170.63 611.74 126.24 628.54 141.79"/><polygon class="cls-3" points="603.21 124.89 595.42 125 582.6 129.14 594.11 143.14 603.21 124.89"/><polygon class="cls-2" points="569.84 147.53 571.3 124.84 603.08 124.94 569.84 147.53"/><polygon class="cls-6" points="462.6 145.65 449.02 141.19 453.48 138.42 470.76 142.8 462.6 145.65"/><polygon class="cls-13" points="477.56 138.19 482.38 138.67 479.27 153.21 470.62 153.18 469.27 138.88 477.56 138.19"/><polygon class="cls-14" points="462 141.63 460.01 137.27 468.56 133.09 482.38 138.67 472.44 140.55 462 141.63"/><polygon class="cls-15" points="453.96 148.17 460.01 137.27 472.44 140.55 470.62 153.18 453.96 148.17"/><polygon class="cls-6" points="583.31 179.59 473.69 147.53 478.14 144.75 577.44 170.59 583.31 179.59"/><polygon class="cls-17" points="581.32 172.7 584.47 167.2 622.11 166.48 617.96 183.35 583.74 179.44 581.32 172.7"/><polygon class="cls-19" points="564.87 173.43 571.87 164.32 584.47 167.2 583.74 179.44 573.85 181.96 564.87 173.43"/><polygon class="cls-17" points="559.06 169.38 571.87 164.32 573.85 181.96 561.27 178.23 559.06 169.38"/><polygon class="cls-27" points="563.22 98.75 571.72 97.4 567.34 103.18 562.56 104.09 556.31 100.31 563.22 98.75"/><polygon class="cls-21" points="554.1 99.55 560.02 99.55 558.14 100.88 562.52 103.46 566.77 102.46 570.77 97.34 574.51 95.07 568.27 104.3 562.1 105.71 554.1 99.55"/><polygon class="cls-28" points="574.51 95.07 570.23 98.17 558.14 100.88 554.1 99.55 556.48 99.55 561.97 97.84 569 96.78 574.51 95.07"/></g><g id="ENFP"><polygon class="cls-6" points="628.54 153.57 617.79 144.15 622.98 143.34 637.16 154.13 628.54 153.57"/><polygon class="cls-13" points="645.23 152.55 649.48 154.88 641.77 167.55 632.98 163.63 641.39 151.05 645.23 152.55"/><polygon class="cls-14" points="629.56 149.63 629.44 144.84 638.94 144.34 649.48 154.88 642.98 154.3 629.56 149.63"/><polygon class="cls-29" points="676.23 311.96 656.44 314.75 656.35 319.21 698.02 319.75 698.27 315 676.23 311.96"/><polygon class="cls-30" points="685.85 293.46 676.52 297.3 656.44 314.75 698.27 315 698.85 304.13 685.85 293.46"/><polygon class="cls-8" points="708.52 266.63 683.52 260.96 676.52 297.3 698.85 304.13 712.52 282.3 708.52 266.63"/><polygon class="cls-15" points="619.6 152.5 629.44 144.84 642.98 154.3 632.98 163.63 619.6 152.5"/><polygon class="cls-7" points="729.19 239.3 711.41 246.33 683.52 260.96 712.52 282.3 742.85 281.63 751.19 260.3 729.19 239.3"/><polygon class="cls-29" points="739.94 327.96 751.48 331.92 751.52 336.38 716.52 336.46 716.39 331.84 739.94 327.96"/><polygon class="cls-30" points="728.19 300.13 727.64 312.92 716.39 331.84 751.48 331.92 751.69 316.96 728.19 300.13"/><polygon class="cls-8" points="751.35 274.46 726.69 282.13 727.64 312.92 751.69 316.96 757.85 295.46 751.35 274.46"/><polygon class="cls-8" points="711.41 246.33 742.53 278.1 780.38 248.19 711.41 246.33"/><polygon class="cls-6" points="726.69 282.13 760.69 244.63 780.38 248.19 782.35 274.46 757.85 295.46 726.69 282.13"/><polygon class="cls-8" points="724.16 57.49 716.39 45.61 732.97 45.9 724.16 57.49"/><polygon class="cls-19" points="671.16 183.56 668.35 172.4 652.1 167.53 658.56 174.3 671.16 183.56"/><polygon class="cls-19" points="688.7 190.86 671.26 183.65 668 187.38 665.63 193.54 682.08 208.48 689.82 205.85 688.7 190.86"/><polygon class="cls-18" points="688.7 190.86 682.08 208.48 693.6 217.84 694.97 206.1 688.7 190.86"/><polygon class="cls-17" points="671.16 183.56 665.63 193.54 657.11 189.93 655.94 177.13 671.16 183.56"/><polygon class="cls-16" points="711.22 177.32 688.7 190.86 690.48 221.71 711.27 212.86 715.24 196.2 711.22 177.32"/><polygon class="cls-30" points="737.37 196.09 743.18 218.31 761.52 221.45 780.93 208.23 780.85 173.63 767.64 168.74 742.42 177.35 737.37 196.09"/><polygon class="cls-19" points="759.99 161.67 742.75 169.83 731.97 164.53 726.63 160.82 703.77 161.15 696.51 98.61 699.5 82.79 716.73 86.55 750.17 88.8 758.9 102.11 757.48 119.25 769.19 123.08 759.99 161.67"/><polygon class="cls-17" points="743.61 160.2 742.47 100.81 744.37 89.58 756.29 99.05 761.99 114.44 774.57 119.66 769.64 133.89 766.99 136.24 766.71 142.33 760.13 161.32 753.71 170.7 742.42 177.35 744.99 163.91 743.61 160.2"/><polygon class="cls-18" points="769.6 133.88 761.88 131.24 766.71 142.33 769.6 133.88"/><polygon class="cls-6" points="716.39 45.61 732.26 60.58 733.75 74.04 715.01 93.44 709.12 69.19 716.39 45.61"/><polygon class="cls-18" points="770.36 122.04 765.39 120.17 763.05 128.33 770.36 122.04"/><polygon class="cls-24" points="715.12 132.85 721.85 132.54 721.15 111.14 714.42 111.45 715.12 132.85"/><polygon class="cls-18" points="715.12 132.85 719.02 135.72 721.85 132.54 715.12 132.85"/><polygon class="cls-27" points="727.04 148.07 733.1 138.51 706.75 140.08 713.97 148.27 727.04 148.07"/><path class="cls-18" d="M731.51,139.44l-4.94,7.8-12.23.18-5.82-6.6,23-1.38m3.18-1.87-3.28.2-23,1.37-3.44.21,2.28,2.58,5.83,6.6.51.58h.77l12.23-.18h.9l.49-.77,4.94-7.8,1.76-2.77Z"/><polygon class="cls-31" points="718.65 172.22 742.42 177.35 742.62 187.75 742.61 187.75 743.18 218.31 723.81 219.95 711.27 212.86 711.27 212.85 711.22 177.32 718.65 172.22"/><polygon class="cls-8" points="738.31 105.62 736.49 106.75 726.78 102.47 722.68 104.82 721.81 103.75 724.77 97.81 738.31 105.62"/><polygon class="cls-8" points="711.81 105.61 707 105.57 703.45 101.42 697.6 99.69 704.05 98.84 711.81 105.61"/><polygon class="cls-22" points="749.66 183.39 742.61 187.75 736.26 183.07 742.42 177.35 749.66 183.39"/><polygon class="cls-16" points="753.12 215.66 780.93 208.23 780.38 248.19 743.33 258.4 735.47 226.56 753.12 215.66"/><polygon class="cls-32" points="711.27 212.86 711.27 212.86 743.18 218.31 743.53 227.41 743.33 258.4 711.41 246.33 711.27 212.86"/><polygon class="cls-33" points="695.51 79.89 701.33 62.5 716.39 45.61 715.01 93.44 695.51 79.89"/><polygon class="cls-7" points="780.42 105.24 774.57 119.66 762.47 117.65 759.04 127.85 749.78 125.05 753.92 103.36 764.98 98.78 780.42 105.24"/><polygon class="cls-34" points="742.57 106.36 776.21 115.34 774.57 119.66 742.73 114.36 742.57 106.36"/><polygon class="cls-7" points="755.85 67.4 753.1 83.66 744.41 90.17 744.41 90.17 744.24 89.93 715.01 93.44 732.26 60.58 755.85 67.4"/><polygon class="cls-8" points="780.42 105.24 753.92 103.36 744.41 90.17 755.85 67.4 780.42 105.24"/><polygon class="cls-17" points="739.48 119.73 736.43 112.72 724.59 112.91 723.19 110.52 739.78 108.66 739.48 119.73"/><polygon class="cls-17" points="704.14 112.08 709.15 113.95 711.21 121.36 712.41 109.88 704.14 112.08"/><polygon class="cls-18" points="715.01 93.44 698.65 87.25 699.51 82.75 715.01 93.44"/><polygon class="cls-17" points="711.81 105.61 714.01 108.04 701.09 108.93 697.6 99.69 703.45 101.42 707 105.57 711.81 105.61"/><polygon class="cls-17" points="722.68 104.82 721.84 107.78 736.59 106.78 726.78 102.47 722.68 104.82"/><polygon class="cls-17" points="739.82 122.69 721.66 126.63 721.56 123.51 739.82 122.69"/><polygon class="cls-17" points="714.93 127.14 699.64 123.9 714.85 124.58 714.93 127.14"/><polygon class="cls-18" points="726.63 160.82 747.77 160.05 742.42 177.35 733.7 174.54 727.08 164.38 726.63 160.82"/><path class="cls-32" d="M692.7,109.52l.84,15.57,21.31-.51-.43-13.19,6.69-.23.45,12.35,21.33-.5-.32-16.65L721,107.8l-6.68.23v0l-1.1.08h-.38v0ZM724.49,111,739.28,110l.19,9.77L725,120Zm-28.26,1.63,14.79-1,.19,9.77-14.49.31Z"/><path class="cls-25" d="M700.63,115.3a2.45,2.45,0,1,0,3.16-1.43A2.44,2.44,0,0,0,700.63,115.3Z"/><path class="cls-25" d="M725.64,114a2.45,2.45,0,1,0,3.15-1.43A2.46,2.46,0,0,0,725.64,114Z"/><polygon class="cls-9" points="753.12 215.65 753.12 215.66 743.35 222.67 732.55 216.49 742.61 187.75 753.12 215.65"/><polygon class="cls-22" points="732.55 216.49 753.12 215.66 743.53 227.41 732.55 216.49"/><polygon class="cls-34" points="760.13 161.32 767.64 168.74 751.86 188.34 742.42 177.35 760.13 161.32"/><polygon class="cls-34" points="742.42 177.35 734.59 187.35 718.65 172.22 727.08 164.38 742.42 177.35"/><polygon class="cls-6" points="639.1 161.88 730.1 241.71 733.27 236.96 643.1 158.41 639.1 161.88"/><polygon class="cls-17" points="657.11 189.93 649.89 187.15 639.56 174.51 646.54 168.28 655.08 179.46 657.11 189.93"/><polygon class="cls-19" points="657.11 189.93 646.54 168.28 661.27 177.21 657.11 189.93"/><polygon class="cls-17" points="718.19 225.46 711.29 218.21 698.35 225.8 701.85 238.63 715.85 236.8 718.19 225.46"/><polygon class="cls-19" points="735.85 219.8 726.35 218.63 711.29 218.21 715.85 236.8 730.35 231.8 735.85 219.8"/><polygon class="cls-17" points="768.35 205.46 755.35 208.13 726.35 218.63 730.35 231.8 774.85 227.21 768.35 205.46"/><polygon class="cls-34" points="780.85 173.63 792.19 210.13 774.85 227.21 755.35 208.13 780.85 173.63"/></g><g id="ENFJ"><polygon class="cls-35" points="343.17 134.71 340.25 123.74 349.67 112.6 356.58 119.43 352.78 134.18 343.17 134.71"/><polygon class="cls-36" points="337.91 126.73 342.03 122.09 352.78 134.18 344.87 143.2 336.89 144.56 337.91 126.73"/><polygon class="cls-37" points="334.52 143.54 334.86 135.73 334.69 125.55 341.48 116.38 344.36 118.92 340.29 126.39 342.15 133.69 334.52 143.54"/><polygon class="cls-38" points="244.78 273.28 249.78 279.26 253.03 286.03 249.94 293.01 245.33 293.14 243.38 281.7 244.78 273.28"/><polygon class="cls-39" points="276.84 292.26 257.47 292.87 244.78 273.28 254.21 269.75 276.84 292.26"/><polygon class="cls-38" points="240.56 85.69 226.12 100.86 237.8 122.31 252.03 91.98 240.56 85.69"/><polygon class="cls-40" points="259.66 103.23 231.71 78.9 238.71 73.34 244.16 72.8 259.41 85.38 259.66 103.23"/><polygon class="cls-41" points="295.37 131.59 302 128.82 307.82 128.85 326.66 151.03 312.64 161 303.92 157.48 295.37 131.59"/><polygon class="cls-42" points="295.75 131.78 307.82 128.85 291.78 119.14 295.75 131.78"/><polygon class="cls-43" points="275.79 253.34 272.86 263.22 261.47 277.38 244.78 273.28 252.35 231.48 275.79 253.34"/><polygon class="cls-38" points="297.78 262.68 294.35 266.13 299.83 279.85 304.17 279.48 305.17 270.69 302.5 264.46 297.78 262.68"/><polygon class="cls-39" points="316.75 266.07 334.11 277.86 313.15 279.35 297.78 262.68 305.44 259.79 311.26 262.09 316.75 266.07"/><polygon class="cls-44" points="291.78 119.14 273.27 124.84 263.86 118.22 259.47 133.61 258.17 145.47 286.56 152.35 302.39 141.78 291.78 119.14"/><polygon class="cls-43" points="301.45 144.07 309.18 159.77 292.96 197.56 268.17 202.05 245.45 190 252.2 164.69 258.17 145.47 291.92 144.96 301.45 144.07"/><polygon class="cls-45" points="309.18 159.77 252.2 164.69 249.37 146.33 258.17 145.47 292.14 142.95 302.39 141.78 309.18 159.77"/><polygon class="cls-42" points="263.86 118.22 241.18 133.68 254.37 136.34 260.86 132.57 263.86 118.22"/><polygon class="cls-41" points="241.18 133.68 248.64 178.83 263.33 170.66 263.03 163.78 260.86 132.57 241.18 133.68"/><polygon class="cls-37" points="324.82 53.08 325.29 60.32 323.45 66.83 318.69 114.49 295.11 114.09 282.05 127.9 261.35 94.58 253.6 87.1 248.47 88.21 244.16 72.8 251.11 68.62 257.45 68.6 259.83 70.82 258.92 76.9 264.09 61.65 273.34 48.56 286.62 41.59 302.33 39.7 316.3 44.97 324.82 53.08"/><polygon class="cls-35" points="273.36 48.75 279.82 59.77 275.48 114.65 289.43 118.44 288.73 129.13 283.23 143.55 263.86 118.22 259.68 103.42 258.29 95.86 255.8 93.37 258.94 77.09 261.52 69.46 264.51 66.14 265.54 59.82 273.36 48.75"/><polygon class="cls-35" points="297.59 83.81 289.2 65.78 279.8 59.58 292.26 58.63 296.98 59.31 297.59 83.81"/><polygon class="cls-35" points="303.93 59.48 308.52 59.3 319.79 62.07 310.87 65.86 304.41 74.31 303.93 59.48"/><polygon class="cls-36" points="304.73 84.03 300.8 87.62 297.59 83.81 304.73 84.03"/><polygon class="cls-38" points="308.52 59.3 315.02 57.66 319.79 62.07 308.52 59.3"/><polygon class="cls-38" points="292.26 58.63 286.27 56.09 279.8 59.58 292.26 58.63"/><polygon class="cls-46" points="296.98 59.31 297.59 83.81 304.73 84.03 303.93 59.48 296.98 59.31"/><polygon class="cls-43" points="280.84 92.23 300.8 90.54 312.5 95.32 298.69 96.57 280.84 92.23"/><polygon class="cls-42" points="280.84 92.23 299.59 106.14 312.5 95.32 298.69 96.57 280.84 92.23"/><polygon class="cls-47" points="284.67 93.17 296.23 100.73 302.89 101.28 309.42 95.6 298.93 95.85 284.67 93.17"/><polygon class="cls-36" points="248.05 74.89 254.98 73.02 256.12 81.78 248.05 74.89"/><polygon class="cls-40" points="257.45 68.6 258.87 65.7 264.49 65.95 258.92 76.9 257.45 68.6"/><polygon class="cls-38" points="231.71 78.9 237.85 59.04 255.07 51.39 273.34 48.56 264.49 65.95 257.45 68.6 244.16 72.8 231.71 78.9"/><polygon class="cls-40" points="329.45 56 323.45 66.83 324.82 53.08 329.45 56"/><polygon class="cls-38" points="295.37 13.17 333.62 46.83 329.45 56 324.82 53.08 302.33 39.7 296.8 29.86 295.37 13.17"/><polygon class="cls-48" points="237.85 59.04 245.56 34.93 295.37 13.17 302.33 39.7 273.34 48.56 237.85 59.04"/><polygon class="cls-36" points="295.11 114.09 269.16 112.65 288.64 129.12 295.11 114.09"/><polygon class="cls-36" points="259.77 90.97 259.66 103.23 255.78 93.18 259.77 90.97"/><polygon class="cls-42" points="292.96 197.56 283.22 251.65 252.35 231.48 245.45 190 292.96 197.56"/><polygon class="cls-45" points="292.96 197.56 295.62 229.37 311.26 262.09 261.47 277.38 252.35 231.48 292.96 197.56"/><polygon class="cls-49" points="252.51 84.05 255.78 93.18 259.77 90.97 257.87 82.33 252.51 84.05"/><path class="cls-40" d="M291.17,68.39a2.91,2.91,0,1,1-1.89-3.66A2.91,2.91,0,0,1,291.17,68.39Z"/><path class="cls-40" d="M315,69a2.91,2.91,0,1,1-1.88-3.66A2.91,2.91,0,0,1,315,69Z"/><polygon class="cls-50" points="252.35 231.48 311.26 262.09 292.96 197.56 252.35 231.48"/><polygon class="cls-50" points="334.84 135.31 312.64 161 328.59 168.81 345.06 143.01 334.84 135.31"/><polygon class="cls-35" points="283.31 181.84 288.72 187.95 301.44 182.46 283.31 181.84"/><polygon class="cls-6" points="374.35 143.95 386.5 138.06 386.36 141.75 375.22 147.05 374.35 143.95"/><polygon class="cls-13" points="374.61 147.72 370.87 156.98 361.27 157.89 356.82 146.81 370.75 142.34 374.61 147.72"/><polygon class="cls-14" points="379.44 143.35 379.34 140.06 371.33 139.81 356.82 146.81 366.31 145.3 379.44 143.35"/><polygon class="cls-6" points="364.23 148.96 283.64 190.65 286.32 194.82 366.44 152.17 364.23 148.96"/><polygon class="cls-15" points="366.31 145.3 379.34 140.06 384.85 150.07 370.87 156.98 366.31 145.3"/><polygon class="cls-50" points="263.03 163.78 283.31 181.84 274.35 193.39 248.64 178.83 263.03 163.78"/><polygon class="cls-37" points="283.31 181.84 297.56 186.71 295.68 196.25 289.19 198.41 274.35 193.39 283.31 181.84"/><polygon class="cls-35" points="297.56 186.71 303.51 192.43 293.01 199.05 289.19 198.41 297.56 186.71"/></g><g id="INTP"><polygon class="cls-51" points="278.89 289.28 287.08 283.46 291.33 286.78 271.58 315.22 266.28 312.65 278.89 289.28"/><polygon class="cls-51" points="216.83 322.15 226.21 326.19 226.33 331.65 186.39 332.15 186.64 326.76 216.83 322.15"/><polygon class="cls-6" points="356.85 197.11 371.6 192.36 370.85 196.52 357.35 200.77 356.85 197.11"/><polygon class="cls-13" points="356.55 201.43 350.81 211.36 338.02 206.94 336.48 197.57 353.02 194.7 356.55 201.43"/><polygon class="cls-14" points="362.73 197.24 363.14 193.48 354.08 191.92 336.48 197.57 347.5 197.36 362.73 197.24"/><polygon class="cls-19" points="211.27 200.25 176.64 207.37 165.61 223.84 154.72 214.49 144.38 212.81 146.06 202.9 142.85 197.31 142.01 187.82 136.98 188.09 129.72 174.55 137.54 169.39 148.43 179.3 154.16 175.25 137.12 139.93 148.57 129.45 186.13 129.17 197.3 122.75 207.78 167.99 211.27 200.25"/><polygon class="cls-19" points="199.53 145.93 187.11 156.96 183.9 177.06 173.42 156.96 160.86 149.98 175.52 147.75 180.27 149.14 185.3 146.35 190.18 142.86 199.53 145.93"/><polygon class="cls-20" points="193.11 139.78 199.53 145.93 185.3 146.35 193.11 139.78"/><polygon class="cls-17" points="185.3 146.35 199.53 145.93 194.37 154.64 190.46 176.09 183.9 177.06 173.42 156.96 160.86 149.98 185.3 146.35"/><polygon class="cls-20" points="175.52 147.75 160.86 149.98 167.98 143.97 175.52 147.75"/><polygon class="cls-24" points="185.3 146.35 190.46 176.09 183.9 177.06 175.52 147.75 185.3 146.35"/><polygon class="cls-18" points="190.46 176.09 188.09 180.97 183.9 177.06 190.46 176.09"/><polygon class="cls-18" points="196.74 181.53 172.31 183.77 180.27 196.47 194.37 194.66 196.74 181.53"/><polygon class="cls-18" points="135.87 174.97 143.97 180.56 137.12 180.7 135.87 174.97"/><polygon class="cls-18" points="140.89 187.82 147.59 187.4 142.85 197.31 140.89 187.82"/><polygon class="cls-18" points="211.27 200.25 168.82 205.13 159.19 204.57 165.61 223.84 173.42 222.86 174.27 212.67 177.34 208.76 211.27 200.25"/><polygon class="cls-17" points="148.57 129.45 160.86 149.98 168.82 205.13 161.56 205.69 165.61 223.84 156.67 224.68 144.38 212.81 142.85 197.31 140.89 187.82 147.59 187.4 148.43 179.3 154.16 175.25 137.12 139.93 148.57 129.45"/><polygon class="cls-9" points="205.82 117.31 197.3 122.75 186.41 130.57 182.92 115.07 185.3 99.86 205.82 117.31"/><polygon class="cls-10" points="185.3 99.86 130.56 120.24 139.64 127.5 149.55 130.57 186.41 130.57 185.3 99.86"/><polygon class="cls-9" points="149.55 130.57 138.52 139.93 130.98 139.51 124.97 136.01 130.56 120.24 149.55 130.57"/><polygon class="cls-23" points="138.52 139.93 155.69 175.95 148.43 180.42 137.68 170.22 130.56 174.83 134.47 183.21 113.11 171.76 124.97 136.01 138.52 139.93"/><polygon class="cls-18" points="147.59 187.4 142.85 197.31 140.89 187.82 147.59 187.4"/><polygon class="cls-27" points="175.24 185.03 195.35 183.35 194.09 187.96 177.61 189.63 175.24 185.03"/><polygon class="cls-18" points="194.09 187.96 193.11 193.54 180.41 194.8 177.61 189.63 194.09 187.96"/><polygon class="cls-3" points="138.1 217.7 144.38 212.81 165.61 223.84 175.72 210.76 182.08 212.11 184.32 230.96 178.87 245.76 154.44 238.36 138.1 217.7"/><polygon class="cls-21" points="129.86 225.52 138.1 217.7 178.87 245.76 154.16 259.17 140.75 251.21 129.86 225.52"/><polygon class="cls-52" points="132.52 270.75 126.09 246.46 129.86 225.52 144.38 245.62 154.16 259.17 151.64 272.43 132.52 270.75"/><polygon class="cls-3" points="146.48 289.61 132.52 270.75 178.87 245.76 193.25 256.66 188.22 267.55 165.33 287.65 146.48 289.61"/><polygon class="cls-17" points="210.85 242.83 194.79 246.32 178.87 245.76 188.37 267.69 200.38 272.01 207.63 265.17 210.85 242.83"/><polygon class="cls-21" points="193.39 215.05 182.08 212.11 178.87 245.76 194.79 246.32 198.26 239.72 193.39 215.05"/><polygon class="cls-52" points="219.36 243.67 193.39 215.05 194.79 246.32 199.33 246.72 207.5 265.03 218.39 254.14 219.36 243.67"/><polygon class="cls-53" points="186.78 324.11 183.76 314.04 173.42 299.1 172.01 275.84 188.22 267.55 207.5 265.03 216.43 292.82 210.29 308.04 204.14 319.91 186.78 324.11"/><polygon class="cls-54" points="186.64 326.76 186.78 324.11 210.29 308.04 226.21 326.19 186.64 326.76"/><polygon class="cls-54" points="159.47 324.24 183.76 314.04 172.01 275.84 160.44 282.2 146.48 289.61 138.52 290.16 134.19 299.38 159.47 324.24"/><polygon class="cls-21" points="132.52 270.75 134.19 299.38 141.03 293.94 146.48 289.61 132.52 270.75"/><polygon class="cls-3" points="208.33 276.48 245.39 251.34 248.74 240.87 239.81 235.56 219.36 243.67 207.5 265.03 208.33 276.48"/><polygon class="cls-54" points="229.84 301.19 210.29 308.04 208.33 276.48 215.81 271.09 234.72 272.01 238.21 289.05 229.84 301.19"/><polygon class="cls-53" points="260.97 310.55 229.84 301.19 234.72 272.01 262.37 286.39 269.07 296.87 260.97 310.55"/><polygon class="cls-54" points="287.08 283.46 262.37 286.39 260.97 310.55 266.28 312.65 287.08 283.46"/><polygon class="cls-18" points="239.81 235.56 241.76 241.01 249.76 240.72 255.72 237.38 251.11 230.4 239.81 235.56"/><polygon class="cls-6" points="344.56 201.19 246.37 235.7 248.74 240.87 346.56 205.19 344.56 201.19"/><polygon class="cls-19" points="251.11 230.4 262.7 240.17 257.81 246.59 245.39 251.34 241.76 241.01 251.11 230.4"/><polygon class="cls-15" points="347.5 197.36 363.14 193.48 367.8 205.73 350.81 211.36 347.5 197.36"/><path class="cls-25" d="M172.05,154.94a3.18,3.18,0,0,0-.82,4.42,3.15,3.15,0,1,0,5.19-3.57A3.16,3.16,0,0,0,172.05,154.94Z"/><path class="cls-25" d="M192,152.06a3.15,3.15,0,1,0,4.38.78A3.12,3.12,0,0,0,192,152.06Z"/></g></svg>