<svg id="ILLUSTRATION" xmlns="http://www.w3.org/2000/svg" viewBox="0 0 900 350"><defs><style>.cls-1,.cls-19{fill:#2a2b2a;}.cls-1{opacity:0.1;}.cls-2{fill:#9ca1a1;}.cls-3{fill:#8f8f8f;}.cls-4{fill:#c4c3c3;}.cls-5{fill:#ebecea;}.cls-6{fill:#dddddb;}.cls-7{fill:#3e8e6f;}.cls-8{fill:#53af8a;}.cls-9{fill:#36795d;}.cls-10{fill:#b7c644;}.cls-11{fill:#d8e156;}.cls-12{fill:#e5e87b;}.cls-13{fill:#6f9c52;}.cls-14{fill:#98c26c;}.cls-15{fill:#5a753d;}.cls-16{fill:#73c6a4;}.cls-17{fill:#44612d;}.cls-18{fill:#738d58;}.cls-20{fill:#debca4;}.cls-21{fill:#c3977b;}.cls-22{fill:#8b6752;}.cls-23{fill:#e8cab6;}.cls-24{fill:#474748;}.cls-25{fill:#4f5253;}.cls-26{fill:#707274;}.cls-27{fill:#d0ae95;}.cls-28{fill:#b28b71;}.cls-29{fill:#a2a2a3;}.cls-30{fill:#fff;}.cls-31{fill:#737374;}.cls-32{fill:#838585;}.cls-33{fill:#a17f6e;}.cls-34{fill:#805b4c;}.cls-35{fill:#a98c80;}.cls-36{fill:#593e35;}.cls-37{fill:#eed3c2;}.cls-38{fill:#a8836c;}.cls-39{fill:#f6e5db;}</style></defs><title>diplomats_Protagonist_ENFJ_weaknesses</title><g id="shadows"><polygon class="cls-1" points="720.98 159.11 753.65 152.27 788.15 163.44 751.65 168.94 720.98 159.11"/><polygon class="cls-1" points="680.4 302.61 799.98 289.77 854.15 289.61 872.77 294.86 806.02 327.48 680.4 302.61"/><polygon class="cls-1" points="18.82 285.11 147.65 272.11 222.98 287.61 84.98 303.77 18.82 285.11"/><polygon class="cls-1" points="387.9 219.36 452.65 201.36 524.65 222.36 448.4 236.86 387.9 219.36"/><polygon class="cls-1" points="165.9 318.61 231.15 305.86 320.4 307.61 217.9 331.61 165.9 318.61"/><polygon class="cls-1" points="87.98 139.44 113.15 129.86 185.98 122.11 238.98 132.11 264.98 143.44 193.98 163.77 87.98 139.44"/><polygon class="cls-1" points="541.9 261.36 574.9 294.11 644.15 299.61 600.65 267.61 541.9 261.36"/></g><polygon class="cls-2" points="223.65 316.11 164.81 349.11 0.65 333.06 0.9 284.36 223.65 316.11"/><polygon class="cls-3" points="340.31 325.11 295.81 349.27 164.81 349.11 164.31 337.77 329.98 309.11 340.31 325.11"/><polygon class="cls-2" points="428.65 315.11 404.98 327.44 295.81 349.27 296.98 338.77 403.98 260.44 428.65 315.11"/><polygon class="cls-3" points="559.65 322.11 531.98 330.77 404.98 327.44 393.65 285.11 554.98 258.77 559.65 322.11"/><polygon class="cls-2" points="660.98 313.11 620.98 345.11 531.98 330.77 545.65 286.11 605.32 281.44 660.98 313.11"/><polygon class="cls-3" points="855.65 327.77 812.46 349.04 620.98 345.11 622.32 324.11 850.32 310.11 855.65 327.77"/><polygon class="cls-2" points="863.32 297.11 893.98 300.77 900.61 339.61 812.46 349.04 813.65 333.11 863.32 297.11"/><polygon class="cls-3" points="643.65 185.11 588.98 230.44 548.32 260.44 486.31 221.11 602.98 159.77 643.65 185.11"/><polygon class="cls-2" points="768.32 181.77 706.4 239.11 584.32 225.11 579.65 201.11 702.98 151.11 768.32 181.77"/><polygon class="cls-3" points="822.98 208.44 804.32 231.77 706.4 239.11 702.98 208.44 807.65 177.11 822.98 208.44"/><polygon class="cls-2" points="793.65 170.44 873.65 173.11 856.65 222.11 821.65 228.44 761.65 186.44 793.65 170.44"/><polygon class="cls-3" points="301.31 185.11 334.9 229.36 391.65 263.11 407.31 212.11 328.65 170.11 301.31 185.11"/><path class="cls-2" d="M187.32,186.44l20.33,41.67,127.25,1.25,3.25-28.75s-39.5-26.17-40.5-26.17S187.32,186.44,187.32,186.44Z"/><polygon class="cls-3" points="74.65 160.11 133.65 234.11 207.65 228.11 212.31 202.44 74.65 160.11"/><polygon class="cls-2" points="108.65 150.11 32.98 159.77 55.65 221.77 133.65 234.11 108.65 150.11"/><polygon class="cls-4" points="714.98 161.11 759.15 127.61 873.65 173.11 811.65 206.44 702.98 208.44 714.98 161.11"/><polygon class="cls-5" points="546.32 167.11 594.98 145.77 677.65 142.11 722.65 133.36 759.15 127.61 702.98 208.44 579.65 201.11 546.32 167.11"/><polygon class="cls-4" points="502.98 195.77 457.65 157.77 474.31 133.77 491.31 158.11 595.98 145.44 596.32 179.11 579.65 201.11 502.98 195.77"/><polygon class="cls-4" points="225.65 158.44 168.15 109.11 32.98 159.77 112.31 205.77 212.31 202.44 225.65 158.44"/><polygon class="cls-5" points="347.65 166.44 338.65 205.11 212.31 202.44 168.15 109.11 284.98 129.11 347.65 166.44"/><polygon class="cls-4" points="376.65 188.61 338.65 205.11 301.31 175.77 284.98 129.11 407.98 155.44 403.65 181.11 376.65 188.61"/><polygon class="cls-6" points="426.65 238.61 388.31 223.44 337.65 204.77 426.65 142.61 497.15 158.11 579.65 201.11 521.32 227.11 426.65 238.61"/><polygon class="cls-5" points="388.31 223.44 521.32 227.11 554.98 262.77 545.65 286.11 393.65 285.11 381.98 254.11 388.31 223.44"/><polygon class="cls-6" points="770.32 324.11 813.65 333.11 893.98 300.77 846.98 287.44 764.98 298.11 770.32 324.11"/><polygon class="cls-4" points="601.98 277.77 622.32 324.11 813.65 333.11 749.15 281.61 666.65 278.44 601.98 277.77"/><polygon class="cls-6" points="286.98 300.11 297.31 276.11 388.31 223.44 393.65 285.11 296.98 338.77 286.98 300.11"/><polygon class="cls-4" points="166.65 293.11 164.31 337.77 296.98 338.77 297.31 276.11 231.98 271.44 166.65 293.11"/><polygon class="cls-6" points="0.9 284.36 164.31 337.77 236.65 272.44 87.31 263.44 0.9 284.36"/><polygon class="cls-6" points="521.32 227.11 545.65 286.11 622.32 324.11 666.65 278.44 521.32 227.11"/><polygon class="cls-7" points="249.37 86.56 244.9 98.2 242.8 145.72 188.15 151.44 182.86 123.67 189.94 88.75 215.06 52.08 249.37 86.56"/><polygon class="cls-8" points="113.15 129.86 188.15 151.44 190.38 105.47 189.94 88.75 115.4 86.36 113.15 129.86"/><polygon class="cls-8" points="215.5 57.77 190.29 101.18 181.72 94 215.67 46.13 215.5 57.77"/><polygon class="cls-8" points="254.09 99.78 215.5 57.77 215.67 46.13 257.77 91.11 254.09 99.78"/><polygon class="cls-9" points="244.9 98.2 254.09 99.78 245.25 90.15 245.08 93.04 244.9 98.2"/><polygon class="cls-7" points="131.14 42.2 215.67 46.13 181.72 94 106.4 81.11 131.14 42.2"/><polygon class="cls-9" points="199.05 69.67 192.57 78.69 116.9 64.11 122.9 55.36 204.82 61.54 199.05 69.67"/><polygon class="cls-9" points="190.29 101.18 115.4 86.36 106.4 81.11 181.72 94 190.29 101.18"/><polygon class="cls-9" points="171.48 108.44 149.87 104.33 146.81 139.77 169.81 146.27 171.48 108.44"/><polygon class="cls-9" points="226.35 92.08 205.44 91.99 206.4 123.41 225.47 121.22 226.35 92.08"/><polygon class="cls-10" points="216.15 -0.77 227.05 13.23 216.9 26.44 208.65 6.23 216.15 -0.77"/><polygon class="cls-11" points="216.15 -0.77 227.05 13.23 220.49 21.8 216.15 -0.77"/><polygon class="cls-11" points="239.3 34.76 229.41 1.41 212.35 24.34 220.93 56.02 239.3 34.76"/><polygon class="cls-10" points="229.41 1.41 212.35 24.34 220.93 56.02 229.41 1.41"/><polygon class="cls-11" points="247.7 25.65 232.48 31.43 216.11 63.72 226.35 92.08 252.08 76.32 247.7 25.65"/><polygon class="cls-10" points="247.7 25.65 232.48 31.43 216.11 63.72 226.35 92.08 247.7 25.65"/><polygon class="cls-10" points="213.84 14.02 201.94 26.88 207.19 72.12 221.71 79.21 226.18 57.33 213.84 14.02"/><polygon class="cls-11" points="213.84 14.02 201.94 26.88 207.19 72.12 221.71 79.21 213.84 14.02"/><polygon class="cls-11" points="155.03 -0.78 144.44 7.98 147.68 21.28 152.49 26.88 157.13 21.98 159.32 9.82 155.03 -0.78"/><polygon class="cls-10" points="155.03 -0.78 144.44 7.98 147.68 21.28 152.49 26.88 155.03 -0.78"/><polygon class="cls-11" points="136.91 29.07 131.14 42.2 147.85 64.42 149.87 54.36 136.91 29.07"/><polygon class="cls-10" points="136.91 29.07 131.14 42.2 147.85 64.42 136.91 29.07"/><polygon class="cls-12" points="151.97 38.96 138.58 67.92 147.94 89.8 163.52 72.47 151.97 38.96"/><polygon class="cls-10" points="151.97 38.96 138.58 67.92 147.94 89.8 151.97 38.96"/><polygon class="cls-11" points="164.22 46.31 153.1 70.46 161.16 86.3 171.22 71.16 164.22 46.31"/><polygon class="cls-12" points="161.16 86.3 171.22 71.16 164.22 46.31 161.16 86.3"/><polygon class="cls-10" points="153.63 62.32 139.89 84.38 149.87 104.33 167.1 86.74 153.63 62.32"/><polygon class="cls-11" points="153.63 62.32 139.89 84.38 149.87 104.33 153.63 62.32"/><g id="tree"><path class="cls-13" d="M769.43,78.91c-.53-1.15,3.47,12,3.47,12l-3.74,5.78-2.49-17.88Z"/><polygon class="cls-14" points="759.82 161.29 761.15 127.58 755.91 128.11 750.13 129.35 745.23 161.56 752.53 163.87 759.82 161.29"/><polygon class="cls-13" points="749.68 127.49 746.39 130.07 745.23 161.56 752.53 163.87 753.42 133.09 753.42 127.93 749.68 127.49"/><polygon class="cls-15" points="788.55 69.31 774.23 98.4 769.61 102.31 769.25 96.71 786.69 69.39 788.55 69.31"/><polygon class="cls-14" points="774.23 98.4 761.15 127.58 755.28 111.21 769.25 96.71 774.23 98.4"/><polygon class="cls-15" points="737.94 87.01 740.25 100.98 740.7 103.03 736.07 101.95 734.91 87.28 737.94 87.01"/><polygon class="cls-14" points="740.25 101.07 748.25 110.32 751.9 118.15 747.99 118.86 736.07 101.95 740.25 101.07"/><polygon class="cls-15" points="761.15 127.58 759.82 117.35 748.17 112.81 747.99 118.86 746.39 130.07 753.24 138.69 761.15 127.58"/><polygon class="cls-13" points="761.15 127.58 758.58 107.83 753.95 101.95 748.52 103.56 747.99 118.86 761.15 127.58"/><polygon class="cls-15" points="758.58 107.83 756.98 78.65 750.84 78.38 748.52 103.56 758.58 107.83"/><polygon class="cls-9" points="791.76 76.16 729.66 93.68 718.72 84.43 740.52 73.76 782.77 68.33 805.19 64.33 791.76 76.16"/><polygon class="cls-7" points="718.72 84.43 708.22 83.99 710.72 71.97 736.16 63.88 771.47 71.18 779.13 61.57 794.25 52.14 805.19 64.33 774.23 75.09 753.59 85.32 718.72 84.43"/><polygon class="cls-8" points="710.72 71.97 709.29 59.61 716.14 53.83 720.41 51.07 721.3 53.12 786.42 50.8 794.25 52.14 774.23 75.09 738.74 73.67 710.72 71.97"/><polygon class="cls-9" points="710.72 71.97 702.89 33.46 718.36 43.87 719.35 54.01 710.72 71.97"/><polygon class="cls-8" points="702.89 33.46 749.77 29.45 777.08 28.56 755.64 42 719.35 54.01 702.89 33.46"/><polygon class="cls-16" points="715.25 32.39 744.16 23.49 757.06 18.6 770.5 9.71 780.28 26.07 777.08 28.56 715.25 32.39"/><polygon class="cls-8" points="744.16 23.49 770.5 9.71 747.37 30.43 744.16 23.49"/><polygon class="cls-8" points="770.5 9.71 803.06 45.29 794.25 52.14 782.24 43.51 777.08 28.56 770.5 9.71"/><polygon class="cls-7" points="777.08 28.56 719.35 54.01 794.25 52.14 777.08 28.56"/></g><polygon class="cls-17" points="496.99 200.62 497.37 147.36 491.27 118.99 459.58 106.09 419.01 116.95 403.78 208.26 417.65 220.34 475.62 218.91 500.9 217.69 496.99 200.62"/><polygon class="cls-15" points="424.28 121.82 418.62 114.42 412 133.32 396.77 217.85 405.98 211.81 410.7 203.27 424.28 121.82"/><polygon class="cls-8" points="408.81 114.42 399.33 116.36 391.01 122.41 394.13 139.5 412 133.32 408.81 114.42"/><polygon class="cls-7" points="491.1 187.34 473.24 194.61 475.89 207.74 485.08 207.74 491.1 202.53 491.1 187.34"/><polygon class="cls-8" points="491.1 202.53 502.51 213.85 491.48 216.34 475.62 213.85 475.89 207.74 491.1 202.53"/><polygon class="cls-7" points="502.51 218.91 475.62 218.91 475.62 213.85 498.31 213.85 507.22 210.49 502.51 218.91"/><polygon class="cls-9" points="491.1 187.34 474.73 201.32 473.24 194.61 482.17 187.34 491.1 187.34"/><polygon class="cls-10" points="421.47 67.88 402.96 80.62 401.76 95.77 414.42 118.27 501.52 110.5 498.84 76.69 489.61 71.09 421.47 67.88"/><polygon class="cls-12" points="489.61 71.09 421.47 67.88 402.96 80.62 401.76 95.77 412.4 88.45 491.27 81.9 498.84 76.69 489.61 71.09"/><polygon class="cls-7" points="443.49 199.48 440.69 210.64 431.5 211.74 423.25 208.26 424.66 195.34 443.49 199.48"/><polygon class="cls-8" points="423.25 208.26 417.65 220.34 441.07 220.34 440.69 210.64 423.25 208.26"/><polygon class="cls-7" points="441.07 224.55 417.65 224.55 417.65 220.34 429.36 216.75 441.07 220.34 441.07 224.55"/><polygon class="cls-9" points="424.66 195.34 442.03 205.32 443.49 199.48 437.72 194.36 424.66 195.34"/><polygon class="cls-15" points="456.94 149 443.49 191.34 457.57 202.58 491.1 187.34 484.77 159.45 474.1 145.36 456.94 149"/><polygon class="cls-13" points="428.5 158.99 424.66 195.34 457.57 202.58 456.94 149 428.5 158.99"/><polygon class="cls-15" points="484.77 94.56 491.27 81.9 510.53 131.96 484.04 128.73 481.72 122.01 484.77 94.56"/><polygon class="cls-15" points="426.88 83.19 448.06 94.29 467.27 109.11 456.94 149 429.18 149 429.05 146.54 431.42 131.57 427.1 126.8 417.65 109.93 426.88 83.19"/><polygon class="cls-13" points="459.58 106.09 456.92 139.66 456.94 149 484.77 149 484.64 132.74 491.27 81.9 477.69 80.62 477.21 86.27 477.21 86.27 471.44 86 468.41 99.05 459.58 106.09"/><polygon class="cls-13" points="417.65 220.34 396.77 217.85 410.7 203.27 417.65 220.34"/><polygon class="cls-14" points="429.18 149 484.77 149 484.77 159.45 428.5 158.99 429.18 149"/><polygon class="cls-18" points="399.33 116.36 412.4 88.45 429.03 81.95 433.76 81.25 428.45 100.21 424.28 121.82 412 133.32 399.33 116.36"/><polygon class="cls-9" points="459.33 101.03 466.99 93.07 471.44 86 479.53 87.18 478.82 99.11 459.58 106.09 455.01 102.01 459.33 101.03"/><polygon class="cls-8" points="459.33 101.03 459.58 106.09 428.45 100.21 426.88 83.19 433.76 81.25 441.56 89.72 459.33 101.03"/><polygon class="cls-19" points="431.7 81.9 429.91 51.81 426.18 44.08 419.13 47.33 417.65 86.39 431.7 81.9"/><polygon class="cls-19" points="489.15 43.68 491.27 81.9 480.06 80.92 478.27 39.94 489.15 43.68"/><polygon class="cls-20" points="479.53 87.18 443.49 85.48 433.29 78.19 428.45 22.86 484.78 20.43 479.53 87.18"/><polygon class="cls-21" points="474.1 86.92 437.24 82.08 432.8 28.25 426.18 17.71 431.97 85.08 433.29 93.46 459.33 101.03 472.88 94.37 474.1 86.92"/><polygon class="cls-22" points="453.74 64.44 459.02 68.06 464.31 64.44 453.74 64.44"/><polygon class="cls-21" points="437.06 48.86 448.26 53.97 453.74 64.44 456.85 47.53 442.06 44.86 437.06 48.86"/><polygon class="cls-21" points="464.31 64.44 472.17 53.97 480.56 49.11 476.56 45.52 470.81 45.77 461.19 47.53 461.19 58.01 464.31 64.44"/><polygon class="cls-23" points="464.31 64.44 459.02 65.77 453.74 64.44 456.85 47.53 461.19 47.53 464.31 64.44"/><polygon class="cls-24" points="461.19 47.53 476.81 46.44 480.56 49.11 476.9 42.52 461.19 47.53"/><polygon class="cls-24" points="456.85 47.53 441.65 45.69 437.06 48.86 441.65 41.19 456.85 47.53"/><polygon class="cls-22" points="460.82 96.75 474.1 86.92 431.97 85.08 460.82 96.75"/><polygon class="cls-25" points="419.13 47.33 420.25 19.28 431.97 16.35 441.17 9.34 472.58 9.34 479.53 17.71 491.52 22.86 489.15 43.68 482.87 44.77 484.32 25.22 460 33.18 433.71 21.34 429.26 55.27 419.13 47.33"/><polygon class="cls-26" points="460 33.18 441.17 9.34 420.25 19.28 432.8 28.25 460 33.18"/><polygon class="cls-27" points="436.12 68.57 480.79 71.16 479.53 87.18 437.21 85.31 436.12 68.57"/><polygon class="cls-24" points="472.58 9.34 460 33.18 484.1 28.07 491.52 22.86 472.58 9.34"/><polygon class="cls-28" points="436.12 68.57 430.35 66.25 431.97 85.08 437.21 85.31 436.12 68.57"/><path class="cls-19" d="M472.46,54a2.68,2.68,0,1,1-2.68-2.68A2.68,2.68,0,0,1,472.46,54Z"/><path class="cls-19" d="M448.45,54a2.68,2.68,0,1,1-2.67-2.68A2.68,2.68,0,0,1,448.45,54Z"/><polygon class="cls-13" points="465.1 105.42 427.1 126.8 429.05 146.54 464.79 130.77 484.7 139.76 515.68 120.25 508.19 109.36 530.28 98.82 519.99 81.8 495.97 78.71 486.77 104.33 465.1 105.42"/><polygon class="cls-14" points="429.05 146.54 484.7 139.76 465.1 105.42 429.05 146.54"/><polygon class="cls-14" points="515.68 120.25 530.28 98.82 511.94 88.27 496.9 79.56 495.97 78.71 491.28 81.91 474.87 102.26 465.1 105.42 515.68 120.25"/><polygon class="cls-20" points="514.42 89.71 496.9 79.56 481.77 101.61 482.31 102.77 493.69 110.4 496.94 110.86 514.42 89.71"/><path class="cls-21" d="M496.9,79.56l-17.17,20.92,2.59,2.29,14.45-23.34Zm-3.21,30.84,4.71,3.08,16-23.77Z"/><polygon class="cls-25" points="503.26 89.42 507.73 92.92 506.43 90.08 503.26 89.42"/><polygon class="cls-25" points="494.54 86.09 500.1 88.36 499.29 86.31 494.54 86.09"/><polygon class="cls-21" points="492.71 94.69 495.35 90.34 494.54 86.09 500.1 88.36 503.26 89.42 507.73 92.92 501.15 94.17 496.27 96.14 492.71 94.69"/><polygon class="cls-23" points="500.1 88.36 492.71 94.69 496.27 96.14 503.26 89.42 500.1 88.36"/><polygon class="cls-22" points="493.37 96.81 492.71 94.69 496.27 96.14 493.37 96.81"/><path class="cls-19" d="M495.43,90.19A1.19,1.19,0,1,1,494.24,89,1.18,1.18,0,0,1,495.43,90.19Z"/><path class="cls-19" d="M502.52,94.66a1.19,1.19,0,1,1-1.19-1.19A1.18,1.18,0,0,1,502.52,94.66Z"/><polygon class="cls-8" points="490.54 97.35 494.13 99.02 494.22 102.51 490.73 103.91 487.79 102.37 487.33 99.07 490.54 97.35"/><polygon class="cls-7" points="490.1 99.67 491.47 98.97 491.61 100.46 490.76 101.77 489.7 101.81 490.1 99.67"/><polygon class="cls-16" points="490.45 98.32 488.68 101.21 489.7 101.81 491.47 98.97 490.45 98.32"/><polygon class="cls-8" points="510.53 131.96 485.58 119 476.99 118.45 478.37 126.6 497.37 147.36 510.53 131.96"/><polygon class="cls-21" points="476.81 115 474.95 108.76 469.4 108.67 458.87 114.81 463.65 119.48 476.81 115"/><polygon class="cls-20" points="485.58 119 478.37 126.6 463.65 119.48 474.95 108.76 485.58 119"/><polygon class="cls-20" points="390.65 126.01 391.01 122.41 395.92 124.29 397.25 130.89 394.71 132.19 390.65 126.01"/><rect class="cls-3" x="367.52" y="30.17" width="6.04" height="123.9" transform="translate(2.23 192.8) rotate(-29.25)"/><path class="cls-6" d="M396.09,149.24a5.62,5.62,0,1,1,7.65,2.16A5.62,5.62,0,0,1,396.09,149.24Z"/><polygon class="cls-4" points="347.86 31.35 336.15 29.98 336.81 43.38 379.88 114.98 391.12 108.6 347.86 31.35"/><polygon class="cls-29" points="374.23 118.06 382.48 113.44 336.15 29.98 330.96 40.81 374.23 118.06"/><polygon class="cls-6" points="363.03 118.31 361.25 126.93 369.1 129.15 371.2 121.71 379.69 116.95 385.33 118.54 386.93 112.9 394.65 108.57 401.86 110.71 405.69 102.72 396.03 99.83 395.03 104.63 385.34 110.06 379.7 108.47 378.11 114.11 367.64 119.97 363.03 118.31"/><polyline class="cls-21" points="386.75 131.76 384.35 122.96 391.01 122.41 397.99 134.76 395.09 142.04 386.62 131.67"/><polygon class="cls-20" points="384.35 122.96 384.09 134.78 395.09 142.04 384.35 122.96"/><polygon class="cls-22" points="451.11 73.36 466.86 73.04 468.92 80.92 448.92 79.98 451.11 73.36"/><polygon class="cls-30" points="452.17 74.77 465.75 74.48 466.63 77.48 451.44 77.33 452.17 74.77"/><polygon class="cls-25" points="492.73 46.61 523.36 46.61 513.11 42.36 513.23 44.86 492.73 46.61"/><polygon class="cls-25" points="492.73 53.11 528.23 53.11 517.98 48.86 518.11 51.36 492.73 53.11"/><polygon class="cls-25" points="413.98 46.61 383.36 46.61 393.61 42.36 393.48 44.86 413.98 46.61"/><polygon class="cls-25" points="413.98 53.11 378.48 53.11 388.73 48.86 388.61 51.36 413.98 53.11"/><polygon class="cls-24" points="670.73 91.64 676.36 96.93 693.09 146.73 657.8 159.82 670.73 91.64"/><polygon class="cls-25" points="664.86 81.83 675.36 79.82 676.36 96.93 651.89 111.76 664.86 81.83"/><polygon class="cls-31" points="645.58 79.5 651.25 65.61 675.36 79.82 666.74 85.89 646.54 101.06 645.58 79.5"/><polygon class="cls-32" points="621.39 81.42 618.51 74.47 651.25 65.61 652.77 100.34 642.23 105.37 621.39 81.42"/><polygon class="cls-24" points="611.8 95.79 601.03 102.97 615.64 164.53 647.02 166.21 629.53 91.48 611.8 95.79"/><polygon class="cls-25" points="624.98 85.25 603.42 82.37 601.03 102.97 616.88 102.06 637.67 101.3 624.98 85.25"/><polygon class="cls-31" points="647.98 99.38 645.98 96.75 618.51 74.47 603.42 82.37 623.62 94.83 647.98 99.38"/><polygon class="cls-33" points="680.55 91.24 679.05 78.48 691.21 75.55 698.52 88.12 681.15 95.31 680.55 91.24"/><polygon class="cls-34" points="704.15 106.69 702.83 102.14 702.57 99.08 698.52 88.12 680.79 92.67 686.28 98.56 693.25 103.81 704.15 106.69"/><polygon class="cls-33" points="697.68 110.16 689.35 104.93 682.35 101.9 677.62 95.19 680.79 92.67 684.98 96.75 693.37 97.11 697.68 110.16"/><polygon class="cls-15" points="611.93 203.93 619.96 181.35 649.22 176.17 669.12 185.53 674.97 201.09 664.94 227.84 611.93 203.93"/><polygon class="cls-15" points="675.98 201.76 664.94 227.84 638.35 215.97 647.21 182.53 675.98 201.76"/><polygon class="cls-14" points="596.21 190.22 664.94 227.84 653.73 249.75 605.74 227.18 596.71 217.98 596.21 190.22"/><polygon class="cls-33" points="581.33 232.86 584.5 224 595.87 225.67 598.72 239.22 589.02 256.27 577.14 249.59 581.33 232.86"/><polygon class="cls-15" points="584.5 224 596.21 190.22 605.74 227.18 598.72 239.22 584.5 224"/><polygon class="cls-34" points="562.43 241.39 581.33 232.86 589.02 256.27 569.9 247.27 562.43 241.39"/><path class="cls-33" d="M568.28,230l1.79,17.25-16.75-8.75Z"/><polygon class="cls-33" points="616.44 263.47 620.62 277.85 638.52 279.52 635.84 259.78 623.47 253.6 616.44 263.47"/><polygon class="cls-15" points="605.74 227.18 616.44 263.47 616.44 263.47 636.01 260.62 633 240.05 605.74 227.18"/><polygon class="cls-34" points="608.41 288.22 619.29 273.16 638.52 279.52 617.45 294.57 608.41 288.22"/><polygon class="cls-33" points="601.56 291.22 608.25 283.7 617.45 294.57 601.56 291.22"/><polygon class="cls-18" points="643.42 195.28 619.96 181.35 611.43 168.14 627.98 158.78 638.63 154.63 647.88 166.47 656.58 154.1 681.83 144.73 692.87 152.59 686.68 176.68 675.98 201.76 643.42 195.28"/><polygon class="cls-15" points="588.35 160.45 627.98 158.78 619.96 181.35 596.47 178.19 588.35 160.45"/><polygon class="cls-15" points="697.88 129.85 681.83 144.73 686.68 176.68 713.27 144.73 697.88 129.85"/><polygon class="cls-13" points="689.35 104.93 704.91 154.93 713.27 144.73 722.3 132.86 702.57 99.08 689.35 104.93"/><polygon class="cls-33" points="623.62 94.83 645.98 96.75 666.74 85.89 674.56 121.5 627.98 158.78 623.62 94.83"/><polygon class="cls-34" points="631.83 115.63 641.86 117.31 647.54 120.99 655.91 119.14 660.09 111.79 664.94 107.94 654.24 103.93 650.73 104.26 644.2 106.77 639.69 107.11 631.83 115.63"/><polygon class="cls-34" points="616.88 102.06 623.62 94.83 632.16 140.1 623.47 136.03 616.88 102.06"/><polygon class="cls-35" points="644.2 106.77 650.73 104.26 655.91 119.14 647.54 120.99 644.2 106.77"/><polygon class="cls-36" points="653.23 123.66 647.54 120.99 655.91 119.14 653.23 123.66"/><polygon class="cls-24" points="631.83 115.63 639.69 107.11 636.68 104.09 629.99 112.46 631.83 115.63"/><polygon class="cls-24" points="654.24 103.93 664.94 107.94 666.44 103.93 656.25 99.24 654.24 103.93"/><polygon class="cls-26" points="652.23 127.68 674.64 121.16 681.83 144.73 651.06 169.65 642.15 156.47 637.04 147.16 652.23 127.68"/><polygon class="cls-25" points="623.47 136.03 652.23 127.68 652.23 127.68 651.06 169.65 627.98 158.78 623.47 136.03"/><polygon class="cls-36" points="644.2 134.03 661.15 130.52 665.7 142.8 642.03 147.24 644.2 134.03"/><polygon class="cls-30" points="645.88 135.97 658.87 133.4 660.55 137.47 645.58 139.98 645.88 135.97"/><circle class="cls-19" cx="640.15" cy="115.71" r="2.44"/><circle class="cls-19" cx="658.87" cy="111.92" r="2.44"/><polygon class="cls-34" points="601.03 128.13 593.48 114.11 601.03 102.97 613.72 107.21 611.57 120.46 601.03 128.13"/><polygon class="cls-33" points="596.79 149.76 593 132.32 593.48 114.11 611.57 120.46 607.13 137.47 596.79 149.76"/><polygon class="cls-13" points="593 132.32 576.03 164.78 596.47 178.19 607.13 137.47 593 132.32"/><g id="snake"><polygon class="cls-7" points="699.02 185.95 706.18 173.21 737.77 186.73 724.08 192.2 699.02 185.95"/><polygon class="cls-7" points="704.9 220.16 724.72 210.54 724.98 206.11 732.65 206.76 738.79 208.85 735.34 215.35 709.89 224.71 704.9 220.16"/><polygon class="cls-8" points="709.12 208.32 704.9 220.16 711.04 217.17 709.12 208.32"/><polygon class="cls-8" points="701.96 187.77 705.67 199.74 708.36 191.68 701.96 187.77"/><polygon class="cls-9" points="724.72 210.54 708.36 191.68 725.88 196.1 732.65 206.76 724.72 210.54"/><polygon class="cls-7" points="755.67 182.83 737.77 186.73 729.33 195.06 732.65 206.76 748.13 209.11 763.6 200.39 755.67 182.83"/><polygon class="cls-8" points="753.76 217.82 735.34 215.35 733.8 210.54 732.65 206.76 749.66 203.25 763.6 200.39 767.95 213.26 753.76 217.82"/><polygon class="cls-9" points="804.39 218.21 791.22 222.63 769.23 217.56 757.46 211.19 763.6 200.39 789.69 208.97 804.39 218.21"/><path class="cls-8" d="M800.05,225.75,753.76,218l3.83-6.63s44.12,8.58,45.53,9.23Z"/><path class="cls-16" d="M792.5,224.45l-13.94-2.34,8.57-5.07Zm-13.94-2.34L753.76,218l11-5.34,3.46,7.68,7.79-5.46,2.69,7.28Z"/><polygon class="cls-8" points="763.6 200.39 811.17 206.63 798 219.25 763.6 200.39"/><polygon class="cls-7" points="752.73 284.54 768.85 254.76 811.17 206.63 819.23 222.76 808.1 237.46 763.73 277.38 752.73 284.54"/><polygon class="cls-9" points="729.07 285.19 811.17 206.63 752.73 284.54 738.41 288.7 729.07 285.19"/><polygon class="cls-8" points="819.23 222.76 822.04 228.36 754.27 294.69 745.44 291.3 819.23 222.76"/><path class="cls-16" d="M822,228.36l-9.59,9.36.13-8.71,9.46-.53Zm-9.59,9.36-10.1,9.89,1.28-10.41,8.69.52Zm-10.1,9.89L792.76,257l-10.49.13-1,11.18,11.51-11.18-.38-9.23,10-.14Zm-21.1,20.54-8.7,8.45-.64-10Zm-8.7,8.45-7.67,7.55-1.66-9.49Z"/><polygon class="cls-7" points="818.59 282.59 746.47 290.39 728.3 297.81 785.6 306.65 815.13 303.79 824.85 293.13 818.59 282.59"/><polygon class="cls-8" points="818.59 282.59 802.86 278.82 788.54 278.3 765.01 284.15 729.07 285.19 728.3 297.81 818.59 282.59"/><polygon class="cls-8" points="728.3 297.81 727.79 306 813.47 314.32 815.13 303.79 728.3 297.81"/><path class="cls-16" d="M727.79,306l13.56,1.3,7.8-8.06,3.71,9.23,13.68,1.3L761,300l-8.18,8.45-11.51-1.17-5.12-9Zm38.75,3.77,15.35,1.56,7.29-9.23,6,10.53-13.3-1.3-6.14-10.27Zm28.65,2.86,18.28,1.82-9.72-11.31-8.56,9.63Z"/><polygon class="cls-9" points="843.27 283.37 818.59 282.59 815.13 303.79 820.51 306.26 848.38 294.56 854.26 288.96 843.27 283.37"/><polygon class="cls-8" points="855.8 275.69 831.51 273.62 818.59 282.59 854.26 288.96 855.8 275.69"/><polygon class="cls-8" points="815.13 303.79 813.47 314.32 853.37 296.37 854.26 288.96 815.13 303.79"/><path class="cls-16" d="M813.47,314.32l12.15-5.46-6.26-6.63Zm12.15-5.46,9.72-4.42-4.09-6.76-5.5,11.18Zm9.72-4.42,7.8-3.51-2.94-6.63Zm7.8-3.51,10.23-4.68-5.11-5.07-5.12,9.62Z"/><polygon class="cls-7" points="832.27 247.61 818.2 275.95 808.74 282.85 798.89 283.11 798.26 271.01 818.33 262.43 832.27 247.61"/><polygon class="cls-8" points="832.27 247.61 826.39 262.56 827.67 274.53 818.59 282.59 808.74 282.85 832.27 247.61"/><polygon class="cls-9" points="765.01 284.15 795.31 265.94 806.83 270.62 802.86 278.82 798.89 283.11 765.01 284.15"/><polygon class="cls-8" points="818.33 262.43 795.31 265.94 802.86 278.82 808.87 272.57 818.33 262.43"/><polygon class="cls-7" points="826.39 262.56 855.8 275.69 818.59 282.59 822.81 271.66 826.39 262.56"/><polygon class="cls-9" points="739.43 193.88 751.07 186.6 751.2 192.72 739.43 193.88"/><polygon class="cls-8" points="704.9 180.23 710.27 178.54 708.61 183.09 704.9 180.23"/><polygon class="cls-8" points="699.02 185.95 737.77 186.73 735.34 195.97 732.65 206.76 699.02 185.95"/></g><g id="monster"><polygon class="cls-7" points="62.51 246.13 61.78 233.21 75.14 234.23 77.9 220.15 89.52 220.73 88.21 210.56 102 208.96 105.49 195.6 116.96 204.32 123.93 192.84 134.09 203.88 130.32 208.82 104.76 212.16 69.91 244.97 62.51 246.13"/><polygon class="cls-9" points="62.51 246.13 106.79 204.46 114.2 208.53 103.19 255.86 78.19 251.5 62.51 246.13"/><polygon class="cls-7" points="50.02 246.86 62.51 246.13 64.34 256.23 66.52 258.73 42.47 257.31 44.07 248.75 50.02 246.86"/><polygon class="cls-9" points="32.16 224.64 50.02 246.86 42.91 257.46 32.16 224.64"/><polygon class="cls-8" points="14.45 219.27 24.9 216.51 32.16 224.64 22.87 223.63 14.45 219.27"/><polygon class="cls-7" points="32.16 224.64 22.44 227.55 14.45 219.27 32.16 224.64"/><polygon class="cls-9" points="57.27 271.23 62.51 246.13 78.19 251.5 75.28 259.2 69.71 275.24 58.02 277.11 57.27 271.23"/><polygon class="cls-7" points="39.07 288.59 57.27 271.23 69.71 275.24 39.07 288.59"/><polygon class="cls-9" points="62.45 292.37 39.07 288.59 52.28 282.78 62.45 292.37"/><polygon class="cls-9" points="84.33 271.54 70.53 252.95 81.14 248.16 89.99 250.63 97.4 274.29 85.35 276.18 84.33 271.54"/><polygon class="cls-7" points="69.23 286.78 84.33 271.54 97.4 274.29 69.23 286.78"/><polygon class="cls-9" points="90.72 289.98 69.23 286.78 82.3 280.98 90.72 289.98"/><polygon class="cls-7" points="103.19 255.86 62.51 246.13 75.28 259.2 85.59 257.89 85.33 258.03 103.19 255.86"/><polygon class="cls-16" points="106.79 204.46 103.19 255.86 132.5 252.37 134.09 203.88 106.79 204.46"/><polygon class="cls-8" points="132.5 252.37 137.58 225.66 134.09 203.88 106.79 204.46 132.5 252.37"/><polygon class="cls-7" points="132.31 288.61 105.56 277.69 103.19 255.86 132.5 252.37 122.9 269.86 132.31 288.61"/><polygon class="cls-7" points="130.98 291.61 127.81 284.27 136.33 283.2 138.65 278.77 155.98 291.61 130.98 291.61"/><polygon class="cls-9" points="132.5 252.37 143.81 268.94 153.48 269.94 159.31 261.77 149.31 230.11 132.5 252.37"/><polygon class="cls-7" points="175.69 282.33 161.75 284.95 143.81 268.94 159.31 261.77 175.69 282.33"/><polygon class="cls-9" points="161.75 284.95 178.3 273.76 190.65 285.82 161.75 284.95"/><polygon class="cls-7" points="132.5 252.37 185.2 246.86 179.4 236.4 151.22 209.4 134.09 203.88 132.5 252.37"/><polygon class="cls-8" points="185.2 246.86 197.25 219.85 155.15 199.67 146.87 198.22 134.09 203.88 185.2 246.86"/><polygon class="cls-9" points="190.14 235.97 197.25 219.85 181.28 222.61 190.14 235.97"/><polygon class="cls-9" points="154.42 204.9 164.59 218.98 154.56 217.82 154.42 204.9"/><polygon class="cls-9" points="139.61 232.34 148.47 221.6 166.62 237.27 160.81 243.09 139.61 232.34"/><polygon class="cls-30" points="143.39 227.84 148.47 221.6 166.62 237.27 164.15 239.6 143.39 227.84"/><polygon class="cls-9" points="150.64 177.31 155.15 199.67 147.45 201.27 144.84 200.69 143.68 197.49 150.64 177.31"/><polygon class="cls-7" points="127.85 182.1 147.45 201.27 142.95 202.14 134.09 203.88 127.85 182.1"/><polygon class="cls-9" points="122.9 269.86 105.56 277.69 130.9 291.52 136.24 283.12 122.9 269.86"/></g><polygon class="cls-37" points="261.73 140.37 232.87 193.56 244.94 199.4 273.99 213.55 305.49 163.57 261.73 140.37"/><polygon class="cls-27" points="254.18 160.74 259.65 169.23 259.65 180.74 266.07 184.13 277.57 177.53 286.81 180.36 279.08 170.36 274.55 168.47 268.14 166.22 264.18 164.51 254.18 160.74"/><polygon class="cls-24" points="247.77 122.84 251.73 159.05 261.73 140.37 247.77 122.84"/><polygon class="cls-27" points="283.61 210.91 273.99 213.55 305.49 163.57 315.67 186.4 283.61 210.91"/><polygon class="cls-26" points="299.26 173.57 257.96 147.35 247.77 122.84 271.48 138.11 284.93 129.25 320.01 157.91 312.48 170.11 299.26 173.57"/><polygon class="cls-25" points="247.77 122.84 284.93 129.25 299.26 173.57 247.77 122.84"/><polygon class="cls-24" points="299.26 173.57 293.79 192.05 299.26 187.9 304.73 194.88 315.67 186.4 312.98 171.27 299.26 173.57"/><polygon class="cls-37" points="299.26 187.9 304.17 195.26 293.41 203.37 288.51 196.39 299.26 187.9"/><polygon class="cls-38" points="299.45 192.62 300.77 195.45 296.81 197.71 299.45 192.62"/><polygon class="cls-25" points="315.67 186.4 320.01 157.91 299.26 173.57 315.67 186.4"/><polygon class="cls-39" points="268.14 166.22 259.65 180.74 266.07 184.13 274.55 168.47 268.14 166.22"/><polygon class="cls-38" points="260.6 186.02 259.65 180.74 266.07 184.13 260.6 186.02"/><polygon class="cls-25" points="254.18 160.74 264.18 164.51 267.38 158.67 254.18 160.74"/><polygon class="cls-25" points="279.08 170.36 283.04 165.65 286.81 180.36 279.08 170.36"/><polygon class="cls-38" points="267.85 192.92 265.72 204.69 247.04 194.8 252.18 186.27 267.85 192.92"/><polygon class="cls-30" points="252.61 187.66 266.69 193.63 265.91 197.6 250.66 190.61 252.61 187.66"/><polygon class="cls-38" points="262.49 231.09 244.94 199.4 273.99 213.55 283.61 210.91 262.49 231.09"/><polygon class="cls-13" points="234.9 228.23 219.48 255.61 240.04 266.17 266.25 259.19 267.01 236.75 275.87 232.79 279.08 223.36 283.61 210.91 234.9 228.23"/><polygon class="cls-15" points="262.49 231.09 229.67 224.49 236.65 202.99 278.77 205.98 277.2 216.95 262.49 231.09"/><polygon class="cls-37" points="312.09 200.92 278.77 205.98 262.49 231.09 312.84 208.08 312.09 200.92"/><polygon class="cls-38" points="328.68 197.71 312.09 200.92 312.84 208.08 328.31 202.05 328.68 197.71"/><polygon class="cls-27" points="324.72 181.11 312.09 200.92 312.84 208.08 320.57 205.06 328.31 185.27 324.72 181.11"/><polygon class="cls-14" points="219.48 255.61 262.49 231.09 229.67 224.49 219.48 255.61"/><polygon class="cls-14" points="266.25 259.19 262.49 231.09 275.87 232.79 266.25 259.19"/><polygon class="cls-27" points="318.31 236 275.87 232.79 279.68 224.79 291.34 217.89 318.31 228.45 318.31 236"/><polygon class="cls-38" points="275.87 232.79 278.68 223.73 291.34 217.89 298.32 220.53 275.87 232.79"/><polygon class="cls-38" points="325.67 210.53 318.31 228.45 318.31 236 325.85 228.64 328.12 212.23 325.67 210.53"/><polygon class="cls-37" points="330.94 224.49 318.31 228.45 318.31 236 330.75 229.21 330.94 224.49"/><polygon class="cls-15" points="213.45 288.61 219.48 255.61 242.12 257.31 266.25 259.19 263.43 274.85 243.81 283.33 232.87 295.02 216.28 297.1 213.45 288.61"/><polygon class="cls-17" points="219.48 255.61 242.12 257.31 266.25 259.19 263.43 274.85 243.81 283.33 219.48 255.61"/><polygon class="cls-13" points="262.3 282.39 243.81 283.33 266.25 259.19 280.21 262.78 275.12 279.19 262.3 282.39"/><polygon class="cls-37" points="279.46 308.23 262.3 282.39 280.21 262.78 286.44 299.74 286.06 305.4 279.46 308.23"/><polygon class="cls-27" points="300.77 308.42 279.46 308.23 286.44 299.74 300.77 308.42"/><polygon class="cls-37" points="299.45 298.8 300.77 308.42 292.28 308.42 299.45 298.8"/><polygon class="cls-37" points="207.41 306.34 232.87 295.02 213.45 288.61 195.34 303.7 199.49 309.74 207.41 306.34"/><polygon class="cls-27" points="196.1 322.94 195.34 303.7 207.41 306.34 196.1 322.94"/><polygon class="cls-37" points="207.23 322.18 196.1 322.94 195.91 315.02 207.23 322.18"/><path class="cls-19" d="M261.52,170.06a3,3,0,1,1-3-3A3,3,0,0,1,261.52,170.06Z"/><path class="cls-19" d="M279.71,178.29a3,3,0,1,1-3-3A3,3,0,0,1,279.71,178.29Z"/></svg>