<svg id="Layer_1" data-name="Layer 1" xmlns="http://www.w3.org/2000/svg" xmlns:xlink="http://www.w3.org/1999/xlink" viewBox="0 0 900 350"><defs><style>.cls-1{fill:none;clip-rule:evenodd;}.cls-2{fill:#cfcfcd;}.cls-10,.cls-11,.cls-12,.cls-13,.cls-14,.cls-15,.cls-16,.cls-17,.cls-18,.cls-19,.cls-2,.cls-20,.cls-21,.cls-22,.cls-23,.cls-24,.cls-26,.cls-27,.cls-28,.cls-29,.cls-3,.cls-30,.cls-31,.cls-32,.cls-33,.cls-34,.cls-4,.cls-5,.cls-6,.cls-7,.cls-8,.cls-9{fill-rule:evenodd;}.cls-3,.cls-36{fill:#8f8f8f;}.cls-4,.cls-7{opacity:0.1;}.cls-5{fill:#99c26c;}.cls-6{fill:#6f9d52;}.cls-32,.cls-7{fill:#2b2b2b;}.cls-35,.cls-8{fill:#474748;}.cls-38,.cls-9{fill:#6f7273;}.cls-10{fill:#4f5353;}.cls-11{fill:#74c7a5;}.cls-12{fill:#3f8f6f;}.cls-13{fill:#54b08b;}.cls-14{fill:#35785e;}.cls-15{fill:#c4c4c4;}.cls-16{fill:#b8c744;}.cls-17{fill:#d9e256;}.cls-18{fill:#e6e97b;}.cls-19{fill:#5a753d;}.cls-20{fill:#44622d;}.cls-21{fill:#a0cf7f;}.cls-22{fill:#c0db8f;}.cls-23,.cls-37{fill:#ececeb;}.cls-24{fill:#9ca0a1;}.cls-25{clip-path:url(#clip-path);}.cls-26{fill:#a3a3a3;}.cls-27{fill:#8b6651;}.cls-28{fill:#dddddc;}.cls-29{fill:#c2987a;}.cls-30{fill:#fff;}.cls-31{fill:#738d57;}.cls-33{fill:#e9cbb7;}.cls-34{fill:#dfbda5;}</style><clipPath id="clip-path"><polygon class="cls-1" points="16.59 149.86 14.6 87.15 25.55 33.4 129.07 3.54 171.75 5 235.57 20.46 286.34 66.24 257.47 203.61 170.88 226.5 68.35 214.56 16.59 149.86"/></clipPath></defs><title>diplomats_Mediator_INFP_career_path</title><polygon class="cls-2" points="0.5 314 602.5 211.5 542.5 186.17 602.22 158.28 601.5 18.5 19.25 0.25 0.5 314"/><polygon class="cls-3" points="601.5 18.5 883.5 0.5 898.5 298.5 602.5 211.5 547.62 183.57 602.2 154.16 601.5 18.5"/><polygon class="cls-4" points="283 165.5 332 154.5 364.5 244.5 295.25 215.5 283 165.5"/><polygon class="cls-5" points="302.5 137 391.5 124 468.25 209 340 220.5 302.5 137"/><polygon class="cls-6" points="302.5 137 290 150.5 327.5 224.5 340 220.5 302.5 137"/><polygon class="cls-7" points="256.5 315.5 287.5 262.5 590.5 193.5 759.5 96.5 795.5 265.5 698.5 295.5 602.5 275.5 614.5 323.5 356.5 350.5 256.5 315.5"/><polygon class="cls-8" points="618.5 80 590.5 106 603.87 178.79 701 214 695.5 102 618.5 80"/><path class="cls-9" d="M609.44,95l-11.94,2.8-7.58,3.09-.42,23.91,45.94,10.94,3.83,4.18,27.66-5.83s.54-28.87.5-28.18C667.4,106.46,628.2,98.76,609.44,95Z"/><polygon class="cls-9" points="600.69 84.74 544.5 89.17 539.67 189.75 547.62 183.57 596.92 92.58 600.69 84.74"/><path class="cls-9" d="M603.87,178.79l1-20.52c-8.61-4.81-27.16-15.21-28.3-14.34S547.92,145,547.92,145l-4.2,36.21,3.89,3.72Z"/><polygon class="cls-10" points="573.81 140.1 556.72 131.1 557.6 108.69 569.5 112.5 590.5 106 587.99 117.38 575.92 135.78 573.81 140.1"/><polygon class="cls-3" points="536.73 135.61 697.67 178.51 744.39 169.13 606.04 126.77 540.87 132.5 536.73 135.61"/><path class="cls-9" d="M718.32,161.15,657,141.39l-21.6-5.62,7.23,19.52,7.8-1,8.54,5.46,5.76.87,8.72-2.49,7.62,6.93s22.3,7.19,22.49,5.9,12.59-2.4,12.59-2.4S717.21,165.17,718.32,161.15Z"/><path class="cls-9" d="M594.39,126.29l-39.78,5,17.81,9.48,13.69,3.38,19.24-14.95S597.42,127.34,594.39,126.29Z"/><path class="cls-9" d="M611.14,129l-39.78,5L589,142l115.75,31L622.1,131.93S614.17,130.09,611.14,129Z"/><polygon class="cls-11" points="568.96 116.12 567.01 104 591.85 102.19 605.35 129.18 582.5 136.38 568.96 116.12"/><polygon class="cls-12" points="573.81 140.1 582.5 136.38 567.01 104 557.6 108.69 573.81 140.1"/><polygon class="cls-13" points="546.81 134.07 691.03 172.26 695.33 171.42 697.67 178.51 609.55 157.13 536.73 135.61 546.81 134.07"/><polygon class="cls-14" points="692.52 117.83 691.03 172.26 700.69 179.03 709.11 111.72 692.52 117.83"/><polygon class="cls-13" points="547.61 184.92 689.03 222.47 694.77 231.69 596.45 205.1 539.67 189.75 547.61 184.92"/><polygon class="cls-14" points="690.66 181.17 689.03 222.47 694.75 231.97 700.69 179.03 689 177.19 690.66 181.17"/><polygon class="cls-12" points="547.92 144.99 690.66 181.17 700.69 179.03 536.73 135.61 541.71 145.3 547.92 144.99"/><polygon class="cls-14" points="547.92 144.99 542.48 140.43 536.73 135.61 539.67 189.75 547.61 184.92 547.92 144.99"/><polygon class="cls-15" points="573.81 140.1 579.92 131.02 602 124.38 605.25 131.88 573.81 140.1"/><polygon class="cls-13" points="603.49 144.13 592.64 141.26 593.42 106.36 604.04 108.43 603.49 144.13"/><polygon class="cls-16" points="603.75 127.14 593.01 124.66 593.24 114.41 603.91 116.66 603.75 127.14"/><polygon class="cls-2" points="593.42 106.36 604.04 108.43 628.22 97.83 616.44 95.87 593.42 106.36"/><polygon class="cls-17" points="614.79 147.13 603.47 144.13 604.01 108.43 615.08 110.59 614.79 147.13"/><polygon class="cls-18" points="614.93 129.74 603.73 127.14 603.89 116.66 615.01 119.01 614.93 129.74"/><polygon class="cls-15" points="604.01 108.43 615.08 110.59 640.21 99.84 627.9 97.78 604.01 108.43"/><polygon class="cls-13" points="626.61 150.25 614.77 147.12 615.06 110.58 626.61 112.84 626.61 150.25"/><polygon class="cls-16" points="626.61 132.44 614.91 129.73 615 119.01 626.61 121.46 626.61 132.44"/><polygon class="cls-2" points="615.06 110.58 626.61 112.84 652.75 101.93 639.88 99.78 615.06 110.58"/><polygon class="cls-6" points="638.96 153.52 626.59 150.25 626.59 112.83 638.66 115.19 638.96 153.52"/><polygon class="cls-19" points="638.82 135.27 626.59 132.44 626.59 121.46 638.73 124.02 638.82 135.27"/><polygon class="cls-15" points="626.59 112.83 638.66 115.19 665.87 104.12 652.4 101.87 626.59 112.83"/><polygon class="cls-16" points="651.9 156.95 638.94 153.52 638.64 115.18 651.26 117.65 651.9 156.95"/><polygon class="cls-17" points="651.6 138.23 638.8 135.26 638.71 124.02 651.41 126.7 651.6 138.23"/><polygon class="cls-2" points="638.64 115.18 651.26 117.65 679.61 106.41 665.51 104.06 638.64 115.18"/><polygon class="cls-11" points="665.46 160.54 651.88 156.94 651.24 117.64 664.45 120.22 665.46 160.54"/><polygon class="cls-17" points="664.98 141.33 651.58 138.22 651.39 126.69 664.68 129.5 664.98 141.33"/><polygon class="cls-15" points="651.24 117.64 664.45 120.22 694.03 108.81 679.24 106.35 651.24 117.64"/><polygon class="cls-13" points="679.69 164.3 665.44 160.53 664.43 120.22 678.27 122.92 679.69 164.3"/><polygon class="cls-16" points="679.01 144.58 664.96 141.32 664.66 129.5 678.6 132.44 679.01 144.58"/><polygon class="cls-2" points="664.43 120.22 678.27 122.92 709.16 111.34 693.63 108.75 664.43 120.22"/><polygon class="cls-20" points="694.64 168.26 679.67 164.3 678.25 122.91 692.77 125.75 694.64 168.26"/><polygon class="cls-19" points="693.75 147.99 678.99 144.57 678.58 132.43 693.2 135.52 693.75 147.99"/><polygon class="cls-15" points="678.25 122.91 692.77 125.75 725.07 113.99 708.75 111.27 678.25 122.91"/><path class="cls-9" d="M640.17,185.33l-3.34,12.84-6.66,7.16L700,223.07l-60.29-35.4S643.13,186.35,640.17,185.33Z"/><polygon class="cls-9" points="628.83 189.33 579.67 183 565.17 186.83 587 196 631 198 628.83 189.33"/><polygon class="cls-13" points="648.16 207.11 635.43 203.59 637.35 173.29 649.79 176.02 648.16 207.11"/><polygon class="cls-2" points="637.35 173.29 649.79 176.02 678.73 168.9 664.8 166.17 637.35 173.29"/><polygon class="cls-11" points="661.48 210.79 648.14 207.1 649.77 176.01 662.8 178.87 661.48 210.79"/><polygon class="cls-15" points="649.77 176.01 662.8 178.87 692.97 171.7 678.36 168.83 649.77 176.01"/><polygon class="cls-17" points="675.46 214.65 661.46 210.78 662.78 178.87 676.44 181.86 675.46 214.65"/><polygon class="cls-2" points="662.78 178.87 676.44 181.86 707.93 174.63 692.59 171.62 662.78 178.87"/><polygon class="cls-11" points="690.15 218.7 675.44 214.64 676.42 181.86 690.74 185 690.15 218.7"/><polygon class="cls-15" points="676.42 181.86 690.74 185 723.65 177.72 707.52 174.55 676.42 181.86"/><polygon class="cls-4" points="596.33 105.03 608.39 99 696.03 112.83 696.58 124.02 596.33 105.03"/><polygon class="cls-4" points="642.61 171.63 658.63 167.48 696.74 176.42 696.74 184.56 642.61 171.63"/><path class="cls-6" d="M541,83.75l-14,145,167.5,54L699,108.5ZM689,222.47,547.92,184.92V145l142.75,36.18Zm2-50.21L546.81,134.07,547,93.72l145.54,24.1Z"/><polygon class="cls-21" points="694.5 282.75 699 108.5 758.75 95.5 763.75 259.75 694.5 282.75"/><polygon class="cls-22" points="699 108.5 541 83.75 605.5 76.25 758.75 95.5 699 108.5"/><path class="cls-21" d="M686.25,233.75l-145-43-4.5,32,150,48.25ZM604.12,232a5.38,5.38,0,1,1,5.38-5.38A5.38,5.38,0,0,1,604.12,232Z"/><polygon class="cls-17" points="574 178.83 572 167.17 588.5 164.17 600.33 176 591.33 184.67 574 178.83"/><polygon class="cls-17" points="612.33 172.67 621.33 167 629.5 169.67 632.17 177.67 621.33 187.67 612.33 172.67"/><polygon class="cls-6" points="607.67 176.83 606 185.33 620.67 181.33 620.33 172.67 607.67 176.83"/><polygon class="cls-5" points="607.67 176.83 588.17 170.67 585 180.67 606 185.33 607.67 176.83"/><polygon class="cls-22" points="588.17 170.67 595.17 165 606 172.33 610.5 165.33 620.33 172.67 607.67 176.83 588.17 170.67"/><polygon class="cls-5" points="595.17 165 604.33 167.33 610.5 165.33 606 172.33 595.17 165"/><polygon class="cls-12" points="603.67 194 606 185.33 632.17 177.67 628.83 189.33 603.67 194"/><polygon class="cls-13" points="606 185.33 571 175.67 571 185.5 603.67 194 606 185.33"/><polygon class="cls-14" points="548.5 242.5 544 292 512.5 277.5 500 255.5 564.2 220.2 548.5 242.5"/><polygon class="cls-12" points="355 347 390.5 337 406.5 289.5 536.5 258 544 292 572.5 282 567.5 217 416.22 211.37 348.05 245.22 355 347"/><polygon class="cls-12" points="288.14 283.49 288.64 299.6 341 290 309.99 232.09 296 248.5 288.14 283.49"/><polygon class="cls-14" points="360.5 231 278 215.5 273.5 289 289 298.5 301.5 276.5 325 287 329.39 331.12 355 347 354.48 248.13 360.5 231"/><polygon class="cls-13" points="278 215.5 496.5 190.5 567.5 217 354.48 248.13 278 215.5"/><polygon class="cls-20" points="543.74 191.24 551.26 186.44 538.52 179.88 543.74 191.24"/><polygon class="cls-7" points="543.94 208.28 550.87 215.46 521.75 221.24 503.24 223.65 485.77 215.48 480.74 192.54 494.02 191.77 543.94 208.28"/><polygon class="cls-15" points="502.44 167.63 493.07 168.45 492.81 205.31 497.46 208.85 501.07 185.11 502.44 167.63"/><polygon class="cls-23" points="528.57 171.64 532.51 165.07 526.6 162.46 493.07 168.45 498.22 171.59 528.57 171.64"/><polygon class="cls-24" points="498.22 171.59 497.46 208.85 531.47 201.93 532.51 165.07 498.22 171.59"/><polygon class="cls-15" points="508.91 172.76 499.54 173.59 499.27 210.45 503.92 213.99 507.53 190.25 508.91 172.76"/><polygon class="cls-23" points="535.03 176.78 538.97 170.21 533.07 167.6 499.54 173.59 504.68 176.72 535.03 176.78"/><polygon class="cls-24" points="504.68 176.72 503.92 213.99 537.94 207.07 538.97 170.21 504.68 176.72"/><polygon class="cls-15" points="515.94 177.14 506.57 177.96 506.3 214.82 510.96 218.36 514.57 194.62 515.94 177.14"/><polygon class="cls-23" points="542.06 181.15 546 174.58 540.1 171.97 506.57 177.96 511.72 181.1 542.06 181.15"/><polygon class="cls-24" points="511.72 181.1 510.96 218.36 544.97 211.44 546 174.58 511.72 181.1"/><polygon class="cls-17" points="521.34 221.32 550.87 215.46 551.26 186.44 520.84 191.57 521.34 221.32"/><polygon class="cls-23" points="305.07 72.36 288.45 82.23 300.68 99.72 311.35 99.92 319.99 82.46 305.07 72.36"/><polygon class="cls-23" points="330.4 88.23 324.74 91.39 324.67 96.72 331.44 99.02 334.25 93.03 330.4 88.23"/><g class="cls-25"><polygon class="cls-23" points="377.64 150.64 236.7 21.43 149.48 -50.59 -32.91 63.98 99.27 295 377.64 150.64"/><polygon class="cls-26" points="162.34 194.7 185.02 198.68 379.33 140.33 310.93 112.32 195.31 157.52 162.34 194.7"/><path class="cls-26" d="M62.86,232.5l-9.3-16.61S143.17,176,144.33,176s45.25,16.61,45.25,16.61l.45,4.71Z"/><polygon class="cls-2" points="147.84 79.89 157.78 64.45 206.77 30.78 236.7 21.43 288.62 66.33 350.45 125.5 200.69 179.5 189.58 192.6 147.84 79.89"/><path class="cls-10" d="M181.71,120.58l9.31-3.72,1.81.12-10.44,5.3-.68-1.7Zm-8.23-46.1,27.88-11.14L202,65,174.15,76.17l-.67-1.69ZM175,92.37c.07,0,26.44-14.72,29.16-13.17l-.9,1.58c-1.83-1-27.3,13.14-27.38,13.18L175,92.37ZM178,106l.79,1.64c.07,0,24-11.67,25.71-10.5l1-1.51C202.86,93.86,178,106,178,106Z"/><polygon class="cls-16" points="195.66 102.8 189.47 104.67 189.82 118.47 200.69 113.09 195.66 102.8"/><polygon class="cls-27" points="227 46.68 225.86 40.54 194.61 61.88 189.47 104.67 215.89 78.25 227 46.68"/><polygon class="cls-26" points="49.74 50.89 34.31 34.06 23.09 80.36 34.31 182.31 53.56 215.88 76.52 152.14 49.74 50.89"/><polygon class="cls-28" points="157.78 64.45 125.04 43.88 34.31 34.06 53.56 215.88 165.26 189.79 189.58 192.6 157.78 64.45"/><polygon class="cls-13" points="200.69 113.09 189.47 104.67 236.7 21.43 253.26 35.75 200.69 113.09"/><polygon class="cls-14" points="195.08 108.88 189.47 104.67 236.7 21.43 243.46 27.28 195.08 108.88"/><polygon class="cls-29" points="230.44 69.32 227.93 99.76 212.93 108.02 237.29 132.03 319.71 119.35 288.62 66.33 253.26 35.75 230.44 69.32"/><polygon class="cls-27" points="230.44 69.32 229.85 76.44 262.02 43.33 253.26 35.75 230.44 69.32"/><polygon class="cls-27" points="227.94 99.76 201.94 97.32 200.69 113.09 237.29 132.03 227.94 99.76"/><polygon class="cls-14" points="104.46 74.13 99.7 79.15 107.31 86.34 110.56 68.81 104.46 74.13"/><polygon class="cls-13" points="108.35 70.51 106.34 70.94 101.46 76.07 100.95 81.1 107.13 72.05 108.35 70.51"/><path class="cls-12" d="M97.4,98l9.07,4.33L114,94.43l-13.9-4S97.73,98.13,97.4,98Z"/><polygon class="cls-12" points="131.72 101.45 127.78 100.89 117.95 103.3 111.14 91.93 118.26 86.9 127.1 86.32 131.72 101.45"/><polygon class="cls-16" points="120.04 108.18 124.53 108.02 125.22 116.69 122.56 116.03 120.58 120.94 117.41 117.19 116.09 121.71 112.31 118.15 120.04 108.18"/><polygon class="cls-12" points="114.94 101.52 117.95 103.3 124.53 108.02 122.52 116.22 112.31 118.15 106.47 102.3 114.94 101.52"/><polygon class="cls-11" points="108.5 96.86 117.95 103.3 114.73 93.18 108.5 96.86"/><polygon class="cls-14" points="108.5 96.86 107.29 97.15 106.47 102.3 117.95 103.3 108.5 96.86"/><polygon class="cls-14" points="63.8 83.5 60.17 78.47 45.85 84.89 61.13 86.28 63.8 83.5"/><polygon class="cls-11" points="80.51 91.16 62.1 94.1 60.17 78.47 80.51 91.16"/><polygon class="cls-14" points="95.05 92.47 90.86 96.54 62.1 94.1 89.91 78 95.05 92.47"/><polygon class="cls-16" points="88.96 106.24 91.94 113.09 94.34 113.84 94.65 110.07 88.96 106.24"/><polygon class="cls-16" points="91.88 109.78 91.94 113.09 88.65 116.34 87.7 110.97 83.99 115.12 83.28 108.76 86.72 107.33 91.88 109.78"/><polygon class="cls-12" points="90.47 99.7 91.25 102.95 94.65 110.07 91.94 113.09 83.28 108.76 84.44 99.4 90.47 99.7"/><polygon class="cls-14" points="96.66 93.44 98.44 104.35 91.25 102.95 84.44 99.4 90.74 96.42 96.66 93.44"/><polygon class="cls-11" points="93.49 76.96 89.91 78 85.44 90.96 98.44 104.35 101.93 94.43 108.42 85.24 93.49 76.96"/><polygon class="cls-16" points="81.27 71.86 89.85 77.81 91.71 84.23 104.69 87.03 99.91 76.5 85.06 59.09 81.27 71.86"/><polygon class="cls-17" points="69.74 68.92 70.44 73.64 75 80.75 89.85 77.81 85.17 61.67 69.74 68.92"/><polygon class="cls-18" points="85.75 59.71 43.94 73.04 70.44 73.64 85.17 61.67 85.75 59.71"/><polygon class="cls-12" points="108.32 82.71 106.4 82.44 86.64 56.95 43.94 73.04 85.17 61.67 104.69 87.03 108.32 82.71"/><polygon class="cls-16" points="134.7 110.69 132.46 112.31 134 117.73 135.53 114.56 134.7 110.69"/><polygon class="cls-16" points="137.6 112.28 135.53 114.56 138.36 117.59 138.71 113.36 137.6 112.28"/><polygon class="cls-16" points="139.65 110.96 138.71 113.36 140.43 116.45 141.89 112.16 139.65 110.96"/><polygon class="cls-12" points="137.33 104 138.76 105.7 141.89 112.16 135.53 114.56 132.46 112.31 132.69 105.55 137.33 104"/><path class="cls-16" d="M127.23,89.57,138.13,92s.14-8.6.32-8.42-12.26,3.89-12.26,3.89Z"/><polygon class="cls-18" points="148.78 87.91 144.06 91.66 140.77 90.19 137.4 85.09 139.42 82.96 153.85 77.97 154.19 78.89 148.78 87.91"/><polygon class="cls-17" points="154.35 85.97 152.18 88.57 144.06 91.66 153.54 78.9 154.35 85.97"/><polygon class="cls-16" points="155.12 81.22 159.18 92.16 152.18 88.57 153.54 78.9 155.12 81.22"/><polygon class="cls-12" points="125.88 87.91 127.45 85.86 154.43 76.92 159.18 92.16 153.54 78.9 129.16 88.26 125.88 87.91"/><polygon class="cls-11" points="137.13 95.76 140.58 95.1 140.77 90.19 137.4 85.09 137.06 90.69 137.13 95.76"/><polygon class="cls-12" points="127.91 89.13 129.16 88.26 131.71 87.28 137.06 90.69 140.58 95.1 142.24 101.41 138.76 105.7 136.96 104.12 132.69 105.55 126.95 95.57 127.91 89.13"/><polygon class="cls-14" points="132.69 105.55 127.51 100.63 126.95 95.57 127.42 92.43 128.06 91.91 132.38 97.27 132.69 105.55"/><polygon class="cls-30" points="129.13 93.24 132.38 97.27 132.5 100.68 128.82 98.27 129.13 93.24"/><polygon class="cls-14" points="142.24 101.41 138.76 105.7 132.69 105.55 139.22 100.36 142.24 101.41"/><polygon class="cls-30" points="137.03 102.1 139.22 100.36 142.24 101.41 139.07 102.84 137.03 102.1"/><polygon class="cls-27" points="120.92 84.7 121.81 84.29 123.09 86.02 120.17 86.05 120.92 84.7"/><polygon class="cls-29" points="119.43 83.5 120.3 84.19 121.81 84.29 120.67 85.97 119.09 85.07 119.43 83.5"/><polygon class="cls-5" points="117.71 78.64 118.66 79.36 120.3 84.19 119.09 85.07 117.11 80.7 117.71 78.64"/><polygon class="cls-17" points="113.75 80.35 114.37 80.9 117.71 84.75 111.52 84.8 110.53 79.84 113.75 80.35"/><polygon class="cls-14" points="110.25 82.98 125.75 86.65 123.39 90.31 108.5 96.86 107.29 97.15 101.93 94.43 106.4 82.44 110.25 82.98"/><polygon class="cls-19" points="111.57 87.89 112.66 88.78 113.55 85.8 110.18 85.02 111.57 87.89"/><polygon class="cls-27" points="107.22 95.87 107.29 97.15 108.5 96.86 107.22 95.87"/><polygon class="cls-27" points="107.01 93.11 106.47 94.97 107.29 97.15 108.14 93.3 107.01 93.11"/><polygon class="cls-29" points="111.23 87.62 112.66 88.78 106.47 94.97 106.05 93.54 107.71 88.08 111.23 87.62"/><polygon class="cls-27" points="110.61 84.49 112.09 86.37 112.66 88.78 107.71 88.08 110.61 84.49"/><path class="cls-16" d="M107.59,78.72c.24,0-.83.72-.83.72l-.36,3,1.31,5.65,5.84-2.28L112,80.86Z"/><polygon class="cls-31" points="117.61 73.93 118.39 74.49 118.66 79.36 117.11 80.7 115.45 77.02 115.78 73.35 117.61 73.93"/><polygon class="cls-20" points="117.11 80.7 115.45 77.02 115.78 73.35 116.74 74.91 117.11 80.7"/><polygon class="cls-13" points="115.95 73.21 116.73 72.43 118.39 74.49 116.74 74.91 115.95 73.21"/><polygon class="cls-19" points="113.84 77.94 114.27 78.94 114.37 80.9 111.98 80.86 110.8 78.17 113.84 77.94"/><polygon class="cls-31" points="110.53 77.08 111.86 78.89 114.27 78.94 116.74 74.91 113.46 74.38 110.53 77.08"/><path class="cls-31" d="M110.4,76.92l1.46,2,.12,2L107.92,80s-.19-3-.27-2.87A16.63,16.63,0,0,0,110.4,76.92Z"/><polygon class="cls-19" points="107.84 73.75 108.38 77.7 111.86 78.89 112.64 77.07 113.63 73.81 109.14 69.45 107.84 73.75"/><polygon class="cls-19" points="107.57 76.07 107.18 77.11 106.76 79.44 107.92 80.02 108.38 77.7 107.57 76.07"/><polygon class="cls-19" points="107.3 70.46 107.13 72.05 107.18 77.11 108.38 77.7 109.4 70.55 107.3 70.46"/><polygon class="cls-5" points="112.39 72.87 112.38 73.95 112.64 77.07 115.36 75.12 112.39 72.87"/><polygon class="cls-11" points="109.11 69.09 109.4 70.55 113.63 75.38 116.74 74.91 116.73 72.43 115.56 71.2 110.68 68.06 109.11 69.09"/><polygon class="cls-29" points="105.81 60.02 105.54 58.57 108.19 56.48 109.42 59.03 107.07 59.5 105.81 60.02"/><polygon class="cls-5" points="105.21 67.7 102.04 64.78 105.54 58.57 107.07 59.5 106.02 66.28 105.21 67.7"/><polygon class="cls-20" points="108.89 68.36 107.81 66.96 102.04 64.78 107.13 72.05 109.4 70.55 108.89 68.36"/><polygon class="cls-31" points="108.89 68.36 107.81 66.96 102.04 64.78 109.4 70.55 108.89 68.36"/><polygon class="cls-13" points="109.71 67.83 108.88 67.45 107.81 66.96 109.4 70.55 110.4 69.03 109.71 67.83"/><polygon class="cls-29" points="116.96 69.3 114.79 72.26 112.3 69.89 111.69 64.28 112.84 63.8 114.17 62.24 119.6 61.78 119.95 62.59 119.73 69.25 116.96 69.3"/><polygon class="cls-27" points="111.76 64.91 112.3 69.89 114.79 72.26 116.96 69.3 114.51 69.27 114.45 62.93 114.17 62.24 112.82 63.73 111.76 64.91"/><polygon class="cls-2" points="114.17 62.24 121.22 61.71 120.37 59.13 119.21 58.4 111.93 58.94 109.27 63.81 111.76 64.91 112.82 63.73 114.17 62.24"/><polygon class="cls-32" points="120.56 61.76 121.53 64.39 119.81 66.9 119.95 62.59 119.62 61.83 120.56 61.76"/><polygon class="cls-33" points="118.24 66.19 117.36 66.19 117.32 63.39 118.2 63.39 118.24 66.19"/><polygon class="cls-27" points="118.24 66.19 117.87 66.53 117.36 66.19 118.24 66.19"/><polygon class="cls-27" points="111.97 66.86 112.59 66.49 112.08 67.83 111.97 66.86"/><polygon class="cls-10" points="115.29 63.06 115.6 63.35 116.42 62.86 116.99 63.07 117.03 62.95 116.47 62.56 115.29 63.06"/><polygon class="cls-10" points="118.2 62.93 118.2 63.39 119.03 62.88 119.44 63.09 119.47 63 118.97 62.6 118.2 62.93"/><path class="cls-32" d="M119.32,64.17c0,.25-.16.45-.3.44s-.23-.23-.21-.49.16-.45.3-.44S119.34,63.91,119.32,64.17Z"/><polygon class="cls-27" points="115.6 63.35 117.35 65.34 117.32 63.39 116.99 63.07 116.42 62.86 115.6 63.35"/><path class="cls-32" d="M116.67,64.21c0,.26-.15.46-.29.45s-.24-.23-.21-.49.15-.45.29-.44S116.7,64,116.67,64.21Z"/><polygon class="cls-27" points="118.22 64.73 119.44 63.09 119.03 62.88 118.2 63.39 118.22 64.73"/><polygon class="cls-27" points="116.06 66.62 119.19 66.84 118.27 68.71 116.91 68.69 116.06 66.62"/><polygon class="cls-27" points="115.56 71.2 116.96 69.3 113.84 69.26 115.56 71.2"/><polygon class="cls-3" points="119.95 62.59 120.56 61.76 121.53 64.39 119.95 62.59"/><polygon class="cls-10" points="120.77 63.53 119.84 65.92 119.81 66.9 121.53 64.39 120.77 63.53"/><polygon class="cls-29" points="111.97 66.86 113.1 66.19 112.84 63.72 111.76 64.91 111.97 66.86"/><polygon class="cls-27" points="112.15 64.88 112.66 64.36 112.75 65.48 112.15 64.88"/><polygon class="cls-27" points="115.97 62.1 119.77 62.19 119.62 61.83 115.97 62.1"/><polygon class="cls-32" points="109.27 63.81 110.4 69.03 112.3 69.89 111.76 64.91 111.37 63.31 109.27 63.81"/><polygon class="cls-9" points="109.27 63.81 111.97 66.86 110.4 69.03 109.55 67.26 109.68 65.7 109.27 63.81"/><polygon class="cls-10" points="113.99 66.74 113.6 62.87 114.17 62.24 114.55 60.29 111.93 58.94 109.27 63.81 111.76 64.91 112.82 63.73 113.17 66.86 113.99 66.74"/><polygon class="cls-10" points="110.4 69.03 108.88 67.45 109.68 65.7 110.01 67.22 110.4 69.03"/><polygon class="cls-3" points="120.76 65.52 120.78 66.72 119.77 67.98 119.81 66.9 120.76 65.52"/><polygon class="cls-15" points="120.37 59.13 117.55 59.7 111.93 58.94 119.21 58.4 120.37 59.13"/><polygon class="cls-9" points="120.37 59.13 118.3 61.09 114.17 62.24 113.16 60.75 111.93 58.94 120.37 59.13"/><polygon class="cls-3" points="120.37 59.13 118.03 60.3 114.17 62.24 121.22 61.71 120.37 59.13"/><polygon class="cls-30" points="116.37 66.83 118.89 67 118.14 68.5 117.05 68.49 116.37 66.83"/><polygon class="cls-27" points="107.48 58.25 108.19 56.48 109.42 59.03 108.3 59.26 107.48 58.25"/><polygon class="cls-5" points="114.79 72.26 115.36 75.12 113.63 75.38 112.38 73.95 114.79 72.26"/><polygon class="cls-16" points="113.02 77.48 112.58 77.87 112.6 78.34 113.16 77.98 113.02 77.48"/><polygon class="cls-16" points="112.38 79.32 112.15 79.85 112.4 80.37 112.77 79.78 112.38 79.32"/><polygon class="cls-11" points="126.95 95.57 123.39 90.31 122.58 79.01 129.16 88.26 126.95 95.57"/><path class="cls-14" d="M130.34,98.47A1.37,1.37,0,1,0,129,97.11,1.36,1.36,0,0,0,130.34,98.47Z"/><path class="cls-14" d="M139.25,102.64a1,1,0,1,0-1-1A1,1,0,0,0,139.25,102.64Z"/><path class="cls-10" d="M62.31,148.79l63.4-5.21h.14l40.9,3.29-.14,1.83-40.83-3.29-63.33,5.2-.14-1.82Zm3.84,30.9,74.33-10h.15l32.94,1.1-.06,1.82-32.86-1.09-74.26,10-.24-1.81Zm-2-16.05,66.76-8h.19l39.53,3.84-.17,1.81L131,157.48l-66.67,8-.22-1.82ZM67,133.15c.16,0,57.47-2.69,60.68-2.75s41,4.92,41.14,4.94l-.24,1.81c-.11,0-37.67-5-40.87-4.92S67.25,135,67.09,135Z"/></g><path class="cls-12" d="M329.9,210.3l26.53-5.2L399,229.69l8.89-1.38,1.64,3.27-15.4,4.31L389.67,231l8.81-1.25c-3.9-.81-22.53-6.44-22.53-6.44l-44-4.06Z"/><polyline class="cls-31" points="429.76 175.99 401.68 179.55 399.98 155.55 411.9 149.3 418.43 159.99 432.13 172.55"/><polygon class="cls-19" points="358.68 200.09 359.52 171.09 350.95 165.99 377.56 162.57 394.88 173.06 401.68 179.55 395.38 195.18 358.68 200.09"/><polygon class="cls-31" points="400.25 201.5 363 206.75 358.68 200.09 401.68 179.55 403.85 191.73 400.25 201.5"/><polygon class="cls-19" points="434.1 173.78 441.5 196.75 400.25 201.5 401.68 179.55 434.1 173.78"/><polygon class="cls-5" points="388.49 167.32 383.51 172.06 401.68 179.55 400.94 163.82 388.49 167.32"/><polygon class="cls-10" points="396.72 215.05 403.15 215.57 411.48 223.66 409.51 231.57 401.26 232.79 394.32 233.26 379.45 222.46 396.72 215.05"/><polygon class="cls-3" points="399.02 215.23 403.15 215.57 411.48 223.66 410.32 228.36 397.26 220.16 399.02 215.23"/><polygon class="cls-9" points="410.75 226.58 409.51 231.57 399.12 225.08 400.09 218.1 410.75 226.58"/><polygon class="cls-29" points="390.13 211.9 394.16 205.02 403.15 215.57 399.12 225.08 395.3 224.67 390.13 211.9"/><polygon class="cls-34" points="375.23 214.13 381.9 210.09 394.16 205.02 395.3 224.67 379.45 222.46 375.23 214.13"/><polygon class="cls-5" points="343.64 201.23 339.69 213.32 379.45 222.46 381.9 210.09 358.68 200.09 343.64 201.23"/><polygon class="cls-31" points="360.28 172.2 358.68 200.09 339.69 213.32 342.96 161.41 360.28 172.2"/><polygon class="cls-13" points="353.25 163.51 360.28 172.2 342.01 176.53 342.96 161.41 353.25 163.51"/><path class="cls-11" d="M357.37,146.34l-3.65,3.58L343,161.41l17.32,10.79,35,.31,14.39-21.91-.54-10.84s-14.6-.51-13.93-.14S357.37,146.34,357.37,146.34Z"/><polygon class="cls-5" points="409.53 141.16 417.06 140.39 446.19 174.63 437.31 182.29 414.34 161.25 409.62 150.6 409.53 141.16"/><polygon class="cls-34" points="398.57 135.03 389.47 151.49 368.67 150.84 350.27 114.61 356.78 108.51 361.77 94.56 397.19 77.63 401.64 82.19 417.13 127.61 398.57 135.03"/><polygon class="cls-29" points="412.64 133.91 417.13 127.61 409.61 123.49 399.67 126.54 403.89 132.91 412.64 133.91"/><polygon class="cls-29" points="352.35 118.7 369.32 151.49 389.46 157.27 398.57 135.03 381.98 141.06 365.39 98.46 361.77 94.56 356.51 108.04 352.35 118.7"/><polygon class="cls-2" points="361.77 94.56 407.97 72.98 395.63 57.82 385.93 55.83 338.25 78 332.77 117.64 352.35 118.7 356.51 108.04 361.77 94.56"/><polygon class="cls-32" points="403.65 75 416.89 90.28 411.67 111.59 401.64 82.19 397.45 77.89 398.46 73.67 403.65 75"/><polygon class="cls-27" points="358.75 131.29 361.98 127.21 361.94 137.59 358.75 131.29"/><polygon class="cls-27" points="391.61 152.02 398.57 135.03 377.46 142.72 391.61 152.02"/><polygon class="cls-3" points="401.64 82.19 402.46 79.24 403.65 75 416.89 90.28 401.64 82.19"/><polygon class="cls-10" points="409.57 86.39 409.39 104.9 411.67 111.59 414.31 108.17 414.55 99.85 416.89 90.28 409.57 86.39"/><polygon class="cls-29" points="358.75 131.29 364.65 123.93 356.56 107.91 352.35 118.7 358.75 131.29"/><polygon class="cls-27" points="354.87 117.47 357.02 112.67 360.45 120.03 354.87 117.47"/><polygon class="cls-27" points="373.59 89.03 399.42 79.91 397.45 77.89 373.59 89.03"/><polygon class="cls-32" points="332.77 117.64 353.72 149.92 369.06 150.98 352.35 118.7 345.66 108.87 332.77 117.64"/><polygon class="cls-9" points="332.77 117.64 348.71 126.02 358.75 131.29 353.72 149.92 332.77 117.64"/><polygon class="cls-8" points="372.06 125.33 359.56 100.2 361.77 94.56 361.27 80.69 338.25 78 332.77 117.64 352.35 118.7 356.51 108.04 366.84 128.2 372.06 125.33"/><polygon class="cls-8" points="353.72 149.92 339.4 143.13 340.35 129.32 353.72 149.92"/><polygon class="cls-3" points="414.55 99.85 417.45 108.78 414.18 118.95 411.67 111.59 413.33 104.8 414.55 99.85"/><polygon class="cls-3" points="395.63 57.82 376.36 71.88 338.25 78 385.93 55.83 395.63 57.82"/><polygon class="cls-9" points="395.63 57.82 385.63 77.86 361.77 94.56 338.25 78 395.63 57.82"/><polygon class="cls-3" points="395.63 57.82 382.99 71.53 361.77 94.56 407.97 72.98 395.63 57.82"/><polygon class="cls-34" points="417.13 127.61 417.06 140.39 409.62 150.6 403.89 132.91 417.13 127.61"/><polygon class="cls-17" points="400.94 163.82 389.46 157.27 384.38 172.54 397.18 173.74 400.94 163.82"/><polygon class="cls-16" points="405.23 182.67 403.8 185.79 405.47 187.92 407.18 185.29 405.23 182.67"/><polygon class="cls-27" points="390.47 122.85 404.51 113.69 405.24 115.89 391.19 124.93 390.47 122.85"/><polygon class="cls-27" points="392.64 114.28 398.67 111.13 397.71 115.03 392.64 114.28"/><polygon class="cls-29" points="373.22 101.34 376.76 95.92 384.59 95.83 389.46 93.95 393.96 87.97 396.82 88.44 396.2 95.07 394.7 104.28 398.67 111.13 392.64 114.28 389.39 106.94 380.58 102.47 373.22 101.34"/><circle class="cls-35" cx="380.29" cy="102.74" r="2.56"/><circle class="cls-35" cx="396.07" cy="95.02" r="2.56"/><polygon class="cls-8" points="373.22 101.34 369.98 100.02 375.59 93.76 381.42 93.69 381.27 95.83 376.76 95.92 373.22 101.34"/><polygon class="cls-8" points="389.46 93.95 388.23 90.85 392.55 85.82 397.86 87.3 396.82 88.44 393.96 87.97 389.46 93.95"/><polygon class="cls-33" points="392.64 114.28 384.59 95.83 389.46 93.95 398.67 111.13 392.64 114.28"/><path class="cls-7" d="M386.07,236.13l.21,1.61L347,244.53l-23.09-12s17.9-5.77,18.08-6.24S386.07,236.13,386.07,236.13Z"/><polygon class="cls-16" points="385.64 227.26 346.93 235.83 346.97 244.53 386.07 236.13 385.64 227.26"/><polygon class="cls-15" points="346.93 235.83 346.77 228.81 334.67 224.38 334.59 230.99 346.97 244.53 346.93 235.83"/><polygon class="cls-18" points="385.64 227.26 370.6 218.34 334.67 224.38 346.93 235.83 385.64 227.26"/><polygon class="cls-16" points="383.26 217.86 349.01 226 348.86 234.18 383.38 225.99 383.26 217.86"/><polygon class="cls-15" points="349.01 226 348.05 220.19 336.5 215.54 336.14 222.61 348.86 234.18 349.01 226"/><polygon class="cls-18" points="383.26 217.86 369.32 210.03 336.5 215.54 349.01 226 383.26 217.86"/><polygon class="cls-21" points="432.63 42.13 518.38 43 522 130.25 429.75 138.88 432.63 42.13"/><rect class="cls-36" x="476.56" y="34.62" width="3" height="33.38" transform="translate(421.38 528.77) rotate(-89.36)"/><rect class="cls-36" x="461.87" y="63.75" width="50.26" height="2" transform="translate(-0.9 7.14) rotate(-0.84)"/><rect class="cls-36" x="461.5" y="71.25" width="50.26" height="2" transform="translate(-1.01 7.14) rotate(-0.84)"/><rect class="cls-36" x="461.62" y="78.12" width="50.26" height="2" transform="translate(-1.11 7.14) rotate(-0.84)"/><rect class="cls-36" x="461.11" y="94.19" width="51.4" height="2" transform="translate(-2.74 15.26) rotate(-1.79)"/><rect class="cls-36" x="461.23" y="101.81" width="51.53" height="2" transform="matrix(1, -0.04, 0.04, 1, -3.4, 17.66)"/><rect class="cls-36" x="461.09" y="109.75" width="51.69" height="2" transform="translate(-4.83 23.9) rotate(-2.8)"/><rect class="cls-36" x="477.2" y="123.63" width="33.47" height="2" transform="translate(-7.89 37.01) rotate(-4.26)"/><polygon class="cls-37" points="439.88 64.88 447 61.88 454.5 69.13 447.13 80.88 436.13 74.88 439.88 64.88"/><polygon class="cls-37" points="437.38 106.13 441 96 448.5 92.88 456.25 101.13 449.5 110.5 437.38 106.13"/><polygon class="cls-6" points="436.26 70.58 444.46 82.59 455.05 57.15 443.04 74.27 436.26 70.58"/><polygon class="cls-6" points="436 99.75 445.27 111.01 455.13 90.17 444.01 103.51 436 99.75"/><polygon class="cls-7" points="731.5 304 815 336.5 898.75 316.75 886 295.25 864 245 862.5 228.75 843.75 233.75 843.25 246.75 769 293.75 731.5 304"/><polygon class="cls-31" points="754 263 757 275 814.5 299 861.5 286.5 812 249.5 754 263"/><polygon class="cls-6" points="822.5 274.5 834 310.5 784 310 785 263 822.5 274.5"/><polygon class="cls-22" points="726 279 761.5 230 788 255 726 279"/><polygon class="cls-6" points="787.5 244 792.5 281 822.5 274.5 837.5 253 787.5 244"/><polygon class="cls-22" points="787.5 244 821 234 837.5 253 787.5 244"/><polygon class="cls-14" points="836.25 235.75 840 238.25 815.25 279.25 808.75 275.75 836.25 235.75"/><polygon class="cls-3" points="815.5 326 855.5 310.5 861.5 286.5 814.5 299 815.5 326"/><polygon class="cls-22" points="813.5 263 857 249.5 887 305.5 813.5 263"/><polygon class="cls-14" points="803.5 229.75 798.5 274 805.25 276 809.25 229.25 803.5 229.75"/><polygon class="cls-15" points="815.5 326 814.5 299 757 275 765.5 309.5 815.5 326"/><polygon class="cls-22" points="776 301.5 785 263 822.5 274.5 776 301.5"/><polygon class="cls-18" points="790.5 224 795 206 813.5 217 790.5 224"/><polygon class="cls-18" points="834 230 854 222.5 856.5 238.5 834 230"/><polygon class="cls-16" points="790.5 224 813.5 217 810 237 790.5 224"/><polygon class="cls-16" points="834 230 856.5 238.5 835.5 245.5 834 230"/><polygon class="cls-7" points="579.5 78.92 573.08 80 570.83 86 601.33 90.17 625.33 84.67 612.58 77.58 607.58 77.25 579.5 78.92"/><circle class="cls-38" cx="593" cy="62" r="21.5"/><polygon class="cls-10" points="590.83 45.25 594.08 48.92 600.17 47.92 597.42 45 590.83 45.25"/><polygon class="cls-8" points="594.08 48.92 596.83 48.33 595.25 46.83 592.42 47.25 594.08 48.92"/><polygon class="cls-10" points="601.75 47.33 604.13 51 608.58 50 606.57 47.08 601.75 47.33"/><polygon class="cls-8" points="604.13 51 606.14 50.42 604.98 48.92 602.91 49.33 604.13 51"/><polygon class="cls-10" points="595.43 52.3 598.71 55.88 603.41 53.97 600.67 51.14 595.43 52.3"/><polygon class="cls-8" points="598.71 55.88 600.81 54.88 599.26 53.44 597.07 54.28 598.71 55.88"/><path class="cls-7" d="M507.21,225.73l-40.71,6.1-22.72-13.15-29.07,3L400,211.78,394.16,205l-2.57,1.11-4.09-2.76,3.6-.57,94.08,4.78c.06.63,22,18.15,22,18.15Z"/><polygon class="cls-9" points="418.65 207.57 413.18 215.85 414.83 218.95 493.84 204.19 459.29 205.52 418.65 207.57"/><polygon class="cls-10" points="403.35 201.95 390.91 200.07 391.1 202.8 414.83 218.95 415.3 215.7 403.35 201.95"/><polygon class="cls-9" points="461.09 223.87 468.54 230.93 507.21 225.74 507.25 220.8 461.09 223.87"/><polygon class="cls-10" points="456.72 217.44 448.51 217.07 448.48 218.99 468.54 230.93 468.98 226.8 456.72 217.44"/><path class="cls-26" d="M415.3,215.7c.75.11,78.49-12.63,78.49-12.63l-14.38-15-88.5,12Z"/><path class="cls-28" d="M399.27,201.45l3.84,2.56,10.41-1.62-3.64-2.4-10.61,1.46Zm15.8.7-3.56-2.39,9.19-1.26,3.41,2.25-9,1.4Zm10.59-1.64,8.33-1.3-3.19-2.1-8.46,1.17,3.32,2.23Zm9.87-1.54-3.09-2.08,8.22-1.14,1.17.78c-.75.21-6,2.31-6.3,2.44Zm7.88-2.69,8.49-1.36-.9-.59-8.71,1.2,1.12.75Zm10.06-1.6c2.67-.43,5.56-.88,8.39-1.31l-.66-.44-8.57,1.18.84.57Zm10-1.56c3-.45,5.85-.87,8.23-1.21l-.53-.35-8.32,1.15.62.41Zm9.79-1.42,1.29-.17-.73-.33-1.08.15.52.35Zm-68.84,13.17,10.27-1.73,4.67,3.09-10.47,1.62-4.47-3Zm16.4,1.13,9.12-1.42-4.83-3.19-8.92,1.5,4.63,3.11Zm10.59-1.65-4.79-3.22,8.22-1.38,5,3.28-8.4,1.32Zm9.86-1.55,8.16-1.28-5.1-3.37-8,1.34,4.92,3.31Zm9.62-1.51-5.05-3.39,8.44-1.42,5.22,3.44-8.61,1.37Zm10.08-1.6-5.17-3.47,8.31-1.39,5.32,3.51-8.46,1.35Zm9.91-1.59-5.26-3.53,8.06-1.35,5.38,3.55-8.18,1.33Zm9.58-1.56,3.36-.57-.08-.25L477,192.66h0l-1.86.31,5.31,3.57Zm-70.22,12.21,5.73,3.84,10.48-1.68-5.9-3.9c-4.35.71-7.93,1.32-10.31,1.74Zm17.56,1.94-5.83-3.92,9.05-1.48,5.95,3.93-9.17,1.47ZM438.29,209l8.47-1.36-6-3.94-8.37,1.35,5.87,3.95Zm9.83-1.58-5.89-3.95,8.13-1.31,6,3.94-8.22,1.32Zm9.58-1.54,8.69-1.39-6-3.94-8.61,1.37,5.89,4Zm10.05-1.61,8.56-1.37-6-3.94-8.47,1.35,5.88,4Zm9.92-1.59,8-1.28-.11-.34L480,197.42l-8.23,1.31,5.88,4Zm7.37-3.05-3.62-2.43,2.64-.42Z"/><polygon class="cls-24" points="435.21 167.18 418.63 166.03 414.34 161.25 492.76 149.47 502.16 152.02 435.21 167.18"/><polygon class="cls-3" points="448.33 217.1 468.98 226.8 507.25 220.8 485.89 210.97 448.33 217.1"/><polygon class="cls-26" points="473.27 205.54 472.62 206.33 467.02 217.44 469.64 218.89 483.32 207.38 473.27 205.54"/><polygon class="cls-10" points="478.36 200.77 475.25 206.56 469.64 218.89 486.75 216.28 491.71 204.48 478.36 200.77"/><polygon class="cls-10" points="427.74 168.25 420.59 164.03 414.34 161.25 423.78 204.99 427.62 206.88 427.74 168.25"/><polygon class="cls-9" points="420.59 164.03 427.62 206.88 501.74 194.66 502.16 152.02 420.59 164.03"/><path class="cls-10" d="M471.56,186.74l-8.23-2.46.08,4.75,9.21,17.3,2.63.23s2.43-6.11,2.15-7S471.56,186.74,471.56,186.74Z"/><polygon class="cls-3" points="477.53 181.75 491.71 204.48 475.25 206.56 463.33 184.28 477.53 181.75"/></svg>