<svg id="ILLUSTRATION" xmlns="http://www.w3.org/2000/svg" xmlns:xlink="http://www.w3.org/1999/xlink" viewBox="0 0 900 350"><defs><style>.cls-1,.cls-28{fill:#ebecea;}.cls-2,.cls-33{fill:#dddddb;}.cls-3,.cls-51{fill:#c4c3c3;}.cls-4{fill:#cececd;}.cls-40,.cls-5{fill:#8f8f8f;}.cls-45,.cls-6{fill:#a2a2a3;}.cls-7{fill:#738d58;}.cls-8{fill:#6f9c52;}.cls-9{fill:#36795d;}.cls-10{fill:#53af8a;}.cls-11{fill:#73c6a4;}.cls-12{fill:#5a753d;}.cls-13,.cls-42,.cls-46{fill:#2a2b2a;}.cls-14{fill:#98c26c;}.cls-15{fill:#d8e156;}.cls-16,.cls-34{fill:#8b6752;}.cls-17{fill:#b7c644;}.cls-18,.cls-26{fill:#debca4;}.cls-19,.cls-27{fill:#c3977b;}.cls-20{fill:#838585;}.cls-21{fill:#e8cab6;}.cls-22{fill:#474748;}.cls-23{fill:#4f5253;}.cls-24{fill:#d0ab91;}.cls-25{fill:#737374;}.cls-26,.cls-27,.cls-28,.cls-29,.cls-30,.cls-31,.cls-32,.cls-33,.cls-34,.cls-35,.cls-37,.cls-38,.cls-40,.cls-41,.cls-42,.cls-45,.cls-51{fill-rule:evenodd;}.cls-29{fill:#b3889d;}.cls-30{fill:#95647d;}.cls-31{fill:#553042;}.cls-32,.cls-36{fill:#744d61;}.cls-35,.cls-43{fill:#fff;}.cls-37,.cls-44{fill:#9076a0;}.cls-38,.cls-39{fill:#594265;}.cls-41{fill:#795d88;}.cls-46{opacity:0.1;}.cls-47{fill:#3e8e6f;}.cls-48{fill:#9fcf7e;}.cls-49{fill:#bfdb8e;}.cls-50{clip-path:url(#clip-path);}</style><clipPath id="clip-path"><polygon class="cls-1" points="128.37 12.83 45.66 61.09 40.83 149.58 137.5 201.59 224.5 165.13 258.15 86.3 214.29 23.56 128.37 12.83"/></clipPath></defs><title>diplomats_Mediator_INFP_romantic_relationships</title><g id="wall"><polygon class="cls-2" points="815.38 267 870.96 300 897.5 292.5 900 10.5 872.96 0 815.38 267"/><polygon class="cls-3" points="430.14 89 448.83 15.67 872.96 0 870.96 300 435.48 250.33 430.14 89"/><polygon class="cls-3" points="86.96 280.33 37.56 311 7.51 301.5 0 7.5 30.88 0 86.96 280.33"/><polygon class="cls-2" points="448.83 15.67 445.49 249.67 37.56 311 30.88 0 448.83 15.67"/></g><g id="window"><polygon class="cls-4" points="811.87 51 810.87 206.5 541.97 199.5 553.49 51 811.87 51"/><polygon class="cls-5" points="678.3 139.16 692.86 200.47 738.34 199.56 744.6 103.67 706.05 109.19 678.3 139.16"/><polygon class="cls-2" points="694.22 132.81 708.55 110.33 775.32 103 709.88 101.33 634.27 108 694.22 132.81"/><polygon class="cls-2" points="784.73 123.27 798.37 104.8 818.38 97.39 768.3 96 727.42 101.93 784.73 123.27"/><polygon class="cls-6" points="727.42 204.56 727.42 101.93 802.92 103.89 804.74 206.37 727.42 204.56"/><polygon class="cls-6" points="633.11 207.25 634.27 108 708.55 110.33 708.38 204.67 633.11 207.25"/><polygon class="cls-3" points="683.01 122 699.04 122.67 699.04 141.75 683.01 141.17 683.01 122"/><polygon class="cls-5" points="685.1 124.58 696.7 125 696.74 129 685.06 128.46 685.1 124.58"/><polygon class="cls-5" points="685.1 130.71 696.7 131.29 696.82 139.67 685.1 139.04 685.1 130.71"/><polygon class="cls-3" points="734.92 115.33 750.95 115.88 750.99 128.71 734.92 127.87 734.92 115.33"/><polygon class="cls-5" points="737.01 117.02 748.61 117.3 748.65 122.75 736.97 122.29 737.01 117.02"/><polygon class="cls-5" points="737.05 123.75 748.65 124.13 748.73 126.89 737.05 126.25 737.05 123.75"/><polygon class="cls-3" points="756.43 116.25 772.46 116.79 772.5 129.63 756.43 128.78 756.43 116.25"/><polygon class="cls-5" points="758.52 117.94 770.12 118.21 770.16 123.67 758.48 123.21 758.52 117.94"/><polygon class="cls-5" points="758.56 124.67 770.16 125.04 770.25 127.8 758.56 127.17 758.56 124.67"/><polygon class="cls-3" points="777.49 117.42 793.51 117.96 793.55 130.79 777.49 129.95 777.49 117.42"/><polygon class="cls-5" points="779.57 119.11 791.17 119.38 791.21 124.83 779.53 124.38 779.57 119.11"/><polygon class="cls-5" points="779.61 125.83 791.21 126.21 791.3 128.97 779.61 128.33 779.61 125.83"/><polygon class="cls-3" points="734.92 135.08 750.95 135.63 750.99 148.46 734.92 147.62 734.92 135.08"/><polygon class="cls-5" points="737.01 136.77 748.61 137.04 748.65 142.5 736.97 142.04 737.01 136.77"/><polygon class="cls-5" points="737.05 143.5 748.65 143.88 748.73 146.64 737.05 146 737.05 143.5"/><polygon class="cls-3" points="756.43 136 772.46 136.54 772.5 149.38 756.43 148.53 756.43 136"/><polygon class="cls-5" points="758.52 137.69 770.12 137.96 770.16 143.42 758.48 142.96 758.52 137.69"/><polygon class="cls-5" points="758.56 144.42 770.16 144.79 770.25 147.55 758.56 146.92 758.56 144.42"/><polygon class="cls-3" points="777.49 137.17 793.51 137.71 793.55 150.54 777.49 149.7 777.49 137.17"/><polygon class="cls-5" points="779.57 138.86 791.17 139.13 791.21 144.58 779.53 144.13 779.57 138.86"/><polygon class="cls-5" points="779.61 145.58 791.21 145.96 791.3 148.72 779.61 148.08 779.61 145.58"/><polygon class="cls-3" points="734.92 154.83 750.95 155.38 750.99 168.21 734.92 167.37 734.92 154.83"/><polygon class="cls-5" points="737.01 156.52 748.61 156.79 748.65 162.25 736.97 161.79 737.01 156.52"/><polygon class="cls-5" points="737.05 163.25 748.65 163.63 748.73 166.39 737.05 165.75 737.05 163.25"/><polygon class="cls-3" points="756.43 155.75 772.46 156.29 772.5 169.13 756.43 168.28 756.43 155.75"/><polygon class="cls-5" points="758.52 157.44 770.12 157.71 770.16 163.17 758.48 162.71 758.52 157.44"/><polygon class="cls-5" points="758.56 164.17 770.16 164.54 770.25 167.3 758.56 166.67 758.56 164.17"/><polygon class="cls-3" points="777.49 156.92 793.51 157.46 793.55 170.29 777.49 169.45 777.49 156.92"/><polygon class="cls-5" points="779.57 158.61 791.17 158.88 791.21 164.33 779.53 163.88 779.57 158.61"/><polygon class="cls-5" points="779.61 165.33 791.21 165.71 791.3 168.47 779.61 167.83 779.61 165.33"/><polygon class="cls-3" points="734.92 174.58 750.95 175.13 750.99 187.96 734.92 187.12 734.92 174.58"/><polygon class="cls-5" points="737.01 176.27 748.61 176.54 748.65 182 736.97 181.54 737.01 176.27"/><polygon class="cls-5" points="737.05 183 748.65 183.38 748.73 186.14 737.05 185.5 737.05 183"/><polygon class="cls-3" points="756.43 175.5 772.46 176.04 772.5 188.88 756.43 188.03 756.43 175.5"/><polygon class="cls-5" points="758.52 177.19 770.12 177.46 770.16 182.92 758.48 182.46 758.52 177.19"/><polygon class="cls-5" points="758.56 183.92 770.16 184.29 770.25 187.05 758.56 186.42 758.56 183.92"/><polygon class="cls-3" points="777.49 176.67 793.51 177.21 793.55 190.04 777.49 189.2 777.49 176.67"/><polygon class="cls-5" points="779.57 178.36 791.17 178.63 791.21 184.08 779.53 183.63 779.57 178.36"/><polygon class="cls-5" points="779.61 185.08 791.21 185.46 791.3 188.22 779.61 187.58 779.61 185.08"/><polygon class="cls-3" points="661.81 121.5 677.84 122.17 677.84 141.25 661.81 140.67 661.81 121.5"/><polygon class="cls-5" points="663.9 124.08 675.5 124.5 675.54 128.5 663.86 127.96 663.9 124.08"/><polygon class="cls-5" points="663.9 130.21 675.5 130.79 675.63 139.17 663.9 138.54 663.9 130.21"/><polygon class="cls-3" points="640.87 120.92 656.89 121.58 656.89 140.67 640.87 140.08 640.87 120.92"/><polygon class="cls-5" points="642.95 123.5 654.55 123.92 654.6 127.92 642.91 127.38 642.95 123.5"/><polygon class="cls-5" points="642.95 129.63 654.55 130.21 654.68 138.58 642.95 137.96 642.95 129.63"/><polygon class="cls-3" points="683.01 149.25 699.04 149.92 699.04 169 683.01 168.42 683.01 149.25"/><polygon class="cls-5" points="685.1 151.83 696.7 152.25 696.74 156.25 685.06 155.71 685.1 151.83"/><polygon class="cls-5" points="685.1 157.96 696.7 158.54 696.82 166.92 685.1 166.29 685.1 157.96"/><polygon class="cls-3" points="661.81 148.75 677.84 149.42 677.84 168.5 661.81 167.92 661.81 148.75"/><polygon class="cls-5" points="663.9 151.33 675.5 151.75 675.54 155.75 663.86 155.21 663.9 151.33"/><polygon class="cls-5" points="663.9 157.46 675.5 158.04 675.63 166.42 663.9 165.79 663.9 157.46"/><polygon class="cls-3" points="640.87 148.17 656.89 148.83 656.89 167.92 640.87 167.33 640.87 148.17"/><polygon class="cls-5" points="642.95 150.75 654.55 151.17 654.6 155.17 642.91 154.63 642.95 150.75"/><polygon class="cls-5" points="642.95 156.88 654.55 157.46 654.68 165.83 642.95 165.21 642.95 156.88"/><polygon class="cls-3" points="683.01 176.21 699.04 176.88 699.04 195.96 683.01 195.38 683.01 176.21"/><polygon class="cls-5" points="685.1 178.79 696.7 179.21 696.74 183.21 685.06 182.67 685.1 178.79"/><polygon class="cls-5" points="685.1 184.92 696.7 185.5 696.82 193.88 685.1 193.25 685.1 184.92"/><polygon class="cls-3" points="661.81 175.71 677.84 176.38 677.84 195.46 661.81 194.88 661.81 175.71"/><polygon class="cls-5" points="663.9 178.29 675.5 178.71 675.54 182.71 663.86 182.17 663.9 178.29"/><polygon class="cls-5" points="663.9 184.42 675.5 185 675.63 193.38 663.9 192.75 663.9 184.42"/><polygon class="cls-3" points="640.87 175.13 656.89 175.79 656.89 194.88 640.87 194.29 640.87 175.13"/><polygon class="cls-5" points="642.95 177.71 654.55 178.13 654.6 182.13 642.91 181.58 642.95 177.71"/><polygon class="cls-5" points="642.95 183.83 654.55 184.42 654.68 192.79 642.95 192.17 642.95 183.83"/><polygon class="cls-1" points="574.02 42.5 572.01 60.5 796.01 58.33 796.68 197 649 188.88 648.46 189.67 564.34 191.67 563.21 121.33 552.99 201.67 820.72 218.33 822.89 35.5 574.02 42.5"/><polygon class="cls-2" points="696.2 79.67 676.17 84.67 640.78 80 672.83 94.33 726.58 88.33 766.64 85 713.56 77.67 696.2 79.67"/><polygon class="cls-1" points="766.64 85 716.23 72.33 677.5 79.33 640.78 80 676.84 89.67 721.57 79.67 766.64 85"/></g><g id="chair"><polygon class="cls-7" points="293.52 137.08 276.24 124.83 260.97 130.33 266.73 191.58 302.28 197.08 293.52 137.08"/><polygon class="cls-8" points="276.24 124.83 311.29 122.83 337.08 122.83 343.09 209.58 284 210.58 276.24 124.83"/><polygon class="cls-8" points="594.97 137.08 612.24 124.83 627.51 130.33 621.75 191.58 586.2 197.08 594.97 137.08"/><polygon class="cls-7" points="612.24 124.83 577.19 122.83 551.4 122.83 545.39 209.58 604.48 210.58 612.24 124.83"/></g><polygon class="cls-9" points="280.68 234.88 344.19 254.03 388.03 249.07 368.58 164.25 305.64 153.84 289.62 171.53 271.12 228.86 280.68 234.88"/><polygon class="cls-10" points="279.86 164.74 263.34 234.88 285.99 239.77 295.27 168.8 289.27 156.99 279.86 164.74"/><polygon class="cls-11" points="367.62 157.47 370.94 154.66 390.61 250.32 344.44 244.96 367.62 157.47"/><polygon class="cls-12" points="350.01 145.7 367.55 164.28 347.03 197.3 313.98 195.44 304.39 175.11 302.97 165.1 294.97 146.16 350.01 145.7"/><polygon class="cls-11" points="332.28 146.53 333.35 152.67 326.82 155.81 301.19 148.02 295.89 143.57 297.55 133.3 312.02 129.49 324.78 132.46 332.28 146.53"/><polygon class="cls-13" points="296.96 123.83 284.5 112.41 289.76 98.59 299.2 103.23 296.96 123.83"/><polygon class="cls-11" points="332.28 146.53 341.38 152.31 357.44 147.17 365.14 126.03 344.64 127.22 322.78 134.48 332.28 146.53"/><polygon class="cls-14" points="338.33 170.85 330.84 161.16 326.82 155.81 341.62 152 351.4 156.13 338.33 170.85"/><polygon class="cls-15" points="341.62 152 336.1 161.31 326.82 155.81 332.28 146.53 341.62 152"/><polygon class="cls-7" points="338.33 170.85 367.55 164.28 347.03 197.3 330.85 203.98 308.41 208.88 303.28 197.06 304.39 175.11 338.33 170.85"/><polygon class="cls-12" points="336.54 191.24 340.54 203.29 360.42 201.22 367.55 164.28 338.33 170.85 336.54 191.24"/><polygon class="cls-7" points="341.62 152 338.33 170.85 367.55 164.28 367.62 157.47 371.66 144.67 365.14 126.03 341.62 152"/><polygon class="cls-16" points="302.06 246.39 321.81 254.06 325.15 246.39 302.06 246.39"/><polygon class="cls-16" points="339.69 254.15 360.81 246.48 340.51 246.48 339.69 254.15"/><polygon class="cls-15" points="311.84 201.78 303.05 202.41 302.06 246.39 325.15 246.39 331.87 231.78 339.32 225.8 335.64 206.46 311.84 201.78"/><polygon class="cls-17" points="360.42 201.22 339.39 203.86 331.82 231.64 331.87 231.78 340.51 246.48 360.81 246.48 360.42 201.22"/><polygon class="cls-14" points="339.78 201.56 336.54 191.24 330.51 201.8 339.78 201.56"/><polygon class="cls-18" points="347.53 122.7 332.57 132.89 332.28 146.53 312.02 129.49 316.38 100.72 313.13 82.48 318.3 61.67 344.38 55.44 364.08 63.88 367.3 69.71 368.87 120.95 347.53 122.7"/><polygon class="cls-19" points="305.4 91.51 312.02 129.49 332.28 146.53 337.76 138.02 328.67 123.66 325.08 74.96 322.62 69.84 313.01 81.92 305.4 91.51"/><polygon class="cls-20" points="338.98 52.77 368.81 42.94 359.5 37.86 303.78 45.5 314.33 59.15 338.98 52.77"/><polygon class="cls-13" points="371.65 63 370.24 68.49 380.36 82.78 368.09 95.31 367.3 69.71 364.33 64 367.31 60.79 371.65 63"/><polygon class="cls-21" points="355.87 98.17 349.09 98.61 347.45 77.1 354.23 76.65 355.87 98.17"/><polygon class="cls-16" points="355.87 98.17 353.2 100.99 349.09 98.61 355.87 98.17"/><polygon class="cls-16" points="307.59 103.89 316.38 100.72 309.29 113.8 307.59 103.89"/><polygon class="cls-22" points="331.73 75.57 334.19 77.7 340.29 73.47 344.71 74.8 344.99 73.88 340.49 71.2 331.73 75.57"/><polygon class="cls-22" points="354 73.11 354.23 76.65 360.33 72.38 363.59 73.79 363.8 73.09 359.8 70.17 354 73.11"/><polygon class="cls-19" points="334.19 77.7 348.61 92.13 347.45 77.1 344.71 74.8 340.29 73.47 334.19 77.7"/><polygon class="cls-19" points="355.04 86.96 363.59 73.79 360.33 72.38 354.23 76.65 355.04 86.96"/><polygon class="cls-16" points="341.88 106.87 360.85 105.8 359.47 108.36 343.33 109.28 341.88 106.87"/><polygon class="cls-16" points="337.76 138.02 347.53 122.7 323.57 123.94 337.76 138.02"/><polygon class="cls-20" points="367.3 69.71 371.65 63 380.36 82.78 367.3 69.71"/><polygon class="cls-23" points="374.08 76.51 368.09 95.31 368.3 102.85 380.36 82.78 374.08 76.51"/><polygon class="cls-24" points="307.59 103.89 316.38 100.72 313.14 81.82 304.86 88.06 307.59 103.89"/><polygon class="cls-16" points="307.77 89.98 311.41 87.4 312.61 95.96 307.77 89.98"/><polygon class="cls-18" points="336.43 67.88 365.73 66.66 364.33 64 336.43 67.88"/><polygon class="cls-13" points="285.7 84.31 299.09 108.97 296.96 123.83 312.02 129.49 304.86 88.06 301.65 79.37 285.7 84.31"/><polygon class="cls-22" points="285.7 84.31 307.59 103.89 296.96 123.83 285.7 84.31"/><polygon class="cls-22" points="323.46 104.46 318.6 74.92 322.62 69.84 323.46 56.74 303.78 45.5 285.7 84.31 304.86 88.06 313.01 81.92 317.24 105.79 323.46 104.46"/><polygon class="cls-20" points="374.96 91.84 375.68 101.02 368.55 111.22 368.3 102.85 374.96 91.84"/><polygon class="cls-25" points="368.81 42.94 351.52 59.63 322.62 69.84 303.78 45.5 368.81 42.94"/><polygon class="cls-20" points="368.81 42.94 322.62 69.84 376.69 62.28 368.81 42.94"/><polygon class="cls-17" points="346.8 194.27 343.32 197.9 339.74 194.4 343.17 190.8 346.8 194.27"/><path class="cls-13" d="M360.88,79.46a2.73,2.73,0,0,0-3.36,1.8,2.69,2.69,0,1,0,3.36-1.8Z"/><path class="cls-13" d="M342.19,80.48A2.69,2.69,0,1,0,344,83.83,2.69,2.69,0,0,0,342.19,80.48Z"/><polygon class="cls-17" points="303.28 197.06 303.05 202.41 335.16 219.86 360.42 201.22 303.28 197.06"/><polygon class="cls-8" points="365.14 126.03 367.24 164.59 365.71 173.91 383.8 159.21 382.93 156.87 365.14 126.03"/><g id="intp"><polygon class="cls-26" points="472.18 126.62 465.52 127.65 459.09 114.7 468.39 109.66 473.9 116.42 472.18 126.62"/><polygon class="cls-27" points="481.7 126.5 480.1 121.35 473.9 116.42 465.35 127.65 474.59 135.56 484.57 135.44 481.7 126.5"/><path class="cls-26" d="M487.9,147.94l-3-19.37.46-8.37-6.19-7.56-2.3,2.06,3.21,6.65-2.29,5.84s4.7,8.37,4.7,8.71S487.9,147.94,487.9,147.94Z"/><polygon class="cls-28" points="536.1 141.06 528.09 129 485.14 150 510.05 158.08 518.82 157.5 536.1 141.06"/><polygon class="cls-5" points="536.39 158.08 537.85 160.5 540.38 199.22 530.92 189.68 518.82 157.5 536.39 158.08"/><polygon class="cls-29" points="577.74 48.97 592.72 67.67 617.78 85.75 599.6 47.95 577.74 48.97"/><polygon class="cls-30" points="610.9 135.84 625.62 117 606.48 117.16 600.64 121.59 610.9 135.84"/><polygon class="cls-30" points="577.74 48.97 617.78 85.75 590.47 85.8 577.74 48.97"/><polygon class="cls-31" points="571.62 113.13 610.9 135.84 600.23 91.9 571.62 113.13"/><polygon class="cls-32" points="617.78 85.75 597.2 82.13 585.27 91.01 575.16 102.17 571.62 113.13 617.78 85.75"/><polygon class="cls-31" points="597.2 82.13 577.15 102.21 582.45 83.19 597.2 82.13"/><polygon class="cls-33" points="540.39 127.62 537.85 160.5 518.82 157.5 528.09 129 540.39 127.62"/><polygon class="cls-26" points="516.13 54.65 512.8 58.99 510.37 113.17 532.25 115.63 547.27 137.28 562.69 121.43 577.5 85.88 572.12 44.54 527.25 38.9 516.13 54.65"/><polygon class="cls-27" points="547.36 137.25 542.05 131.93 543.38 131.52 549.89 119.96 554.24 64.79 559.51 56.47 585.17 86.36 577.15 102.21 574.45 105 571.62 113.13 564.54 127.1 557.63 134.08 547.36 137.25"/><polygon class="cls-34" points="557.96 118.53 548.04 137.85 543.38 131.52 540.39 127.62 532.34 115.6 557.96 118.53"/><polygon class="cls-29" points="559.51 56.47 535.74 55.46 526.62 50.04 526.42 37.06 574.09 42.74 570.1 56.17 559.51 56.47"/><polygon class="cls-34" points="577.15 102.21 572.16 98.44 571.62 113.13 577.15 102.21"/><polygon class="cls-26" points="577.15 102.21 569.09 96.12 577.56 77.5 585.17 86.36 577.15 102.21"/><polygon class="cls-34" points="577.83 83.35 574.65 91.15 582.55 86.97 577.83 83.35"/><polygon class="cls-35" points="566.88 100.33 570.23 102.1 573.98 94.98 570.45 93.12 566.88 100.33"/><polygon class="cls-16" points="523.2 93.35 526.4 96.63 530.8 93.71 523.2 93.35"/><polygon class="cls-36" points="549.58 68.97 545.8 69.41 542.54 67.22 537.4 68.8 543.77 65.05 549.58 68.97"/><polygon class="cls-36" points="524.66 69.08 521.63 69.01 518.45 65.25 514.47 66.48 519.32 63.31 524.66 69.08"/><polygon class="cls-19" points="515.1 86.31 523.54 89.04 524.49 85.16 515.1 86.31"/><polygon class="cls-19" points="549.4 87.96 531.06 90.53 529.65 85.64 549.4 87.96"/><polygon class="cls-19" points="550 75.5 535.27 79.92 535.67 74.81 550 75.5"/><polygon class="cls-19" points="514.96 73.82 521 79.02 521.52 74.09 514.96 73.82"/><polygon class="cls-30" points="526.42 37.06 535.74 55.46 516.21 54.63 526.42 37.06"/><polygon class="cls-32" points="577.56 77.5 570.45 93.12 563.79 87.78 570.85 69.67 559.51 56.47 574.09 42.74 597.2 82.13 588.93 85.04 585.17 86.36 577.56 77.5"/><polygon class="cls-37" points="540.39 127.62 548.84 136.47 536.84 147.64 530.72 146.64 536.67 135.1 536.9 134.41 540.39 127.62"/><polygon class="cls-28" points="540.39 127.62 537.85 160.5 526.46 142.55 540.39 127.62"/><polygon class="cls-38" points="538.7 173.39 537.86 160.52 547.69 148.85 553.52 160.88 560.14 190.34 560.04 190.56 540.38 199.22 538.7 173.39"/><polygon class="cls-39" points="577.56 77.5 581.59 82.19 581.51 74.53 553.59 72.37 552.95 79.86 577.56 77.5"/><polygon class="cls-21" points="523.2 93.35 530.8 93.71 532.62 71.35 525.01 70.99 523.2 93.35"/><path class="cls-39" d="M524.73,74.26l7.63.4-1,12.4,20.85,1,1.34-15.73-47.83-2.29-1.22,15.71,19.13.93ZM535,83.93l.71-9.12L550,75.5l-.78,9.14ZM508.81,73.54l12.61.59-.78,9.13-12.54-.6Z"/><polygon class="cls-33" points="564.54 127.1 555.9 149.69 551.65 160.77 568.01 182.62 584.63 253.38 608 245.91 573.52 187.7 578.22 165.58 583.48 137.05 564.54 127.1"/><polygon class="cls-40" points="551.65 160.77 578.22 165.58 577.52 189.45 560.19 190.5 560.19 190.49 551.65 160.77"/><polygon class="cls-28" points="564.54 127.1 573.3 143.84 551.65 160.77 558.26 139.63 564.54 127.1"/><polygon class="cls-37" points="548.84 136.47 552.98 142.34 558.36 143.25 564.54 127.1 548.84 136.47"/><polygon class="cls-41" points="539.03 145.19 548.84 136.47 558.36 143.25 551.65 160.77 537.85 160.5 539.03 145.19"/><path class="cls-42" d="M537.24,80.87a2,2,0,1,0,1.33-2.52A2,2,0,0,0,537.24,80.87Z"/><path class="cls-42" d="M513.6,79.58a2,2,0,1,0,1.33-2.52A2,2,0,0,0,513.6,79.58Z"/><polygon class="cls-43" points="524.63 101.55 520.03 101.92 524.19 107.2 530.88 107.63 534.74 103.01 524.63 101.55"/><polygon class="cls-44" points="530.45 107.08 524.31 106.39 520 101.73 518.48 101.78 522.82 108.69 531.63 109.57 536.79 103.2 534.59 102.96 530.45 107.08"/><polygon class="cls-39" points="518.48 101.78 522.85 101.01 524.9 100.29 529.03 100.58 530.88 101.48 536.79 103.2 526.63 102.5 518.48 101.78"/><polygon class="cls-45" points="484.92 128.57 510.05 158.08 489.74 160.31 474.59 135.56 484.92 128.57"/></g><polygon class="cls-46" points="195.79 299 462.85 257 707.88 292.33 442.82 350 195.79 299"/><polygon class="cls-47" points="638.68 280.46 627.9 297.42 614.13 295.28 594.23 268.54 638.68 280.46"/><polygon class="cls-9" points="263.9 275.65 280.58 303 292.01 300.09 300.81 275.94 263.9 275.65"/><polygon class="cls-10" points="646.83 206.66 641.78 292.83 627.9 297.42 617.57 283.67 466.09 312.95 457.37 331.06 439.93 334.5 390.61 250.32 646.83 206.66"/><polygon class="cls-47" points="253.5 232.87 262.53 299.26 280.58 303 281.84 283.28 414.22 309.29 421.1 329.92 439.93 334.5 445.44 278.12 253.5 232.87"/><polygon class="cls-2" points="519.8 192.86 649.13 188.83 669.16 240.83 445.44 278.12 421.1 206.15 519.8 192.86"/><polygon class="cls-6" points="341.23 196.98 234.51 194.17 225.17 240.17 445.44 278.12 447.33 221.5 341.23 196.98"/><polygon class="cls-1" points="446.83 169.25 234.51 194.17 448.16 220.83 649.13 188.83 446.83 169.25"/><polygon class="cls-46" points="393.83 175.67 274.07 189.42 351.79 196.98 415.42 184.72 393.83 175.67"/><polygon class="cls-46" points="547.14 178.92 513.68 175.58 515.21 195.03 575.64 183.27 547.14 178.92"/><polygon class="cls-7" points="301.19 148.02 313.83 180.18 292.11 189.8 279.86 164.74 291.8 144.88 301.19 148.02"/><polygon class="cls-10" points="301.19 148.02 297.55 133.3 279.86 164.74 301.19 148.02"/><polygon class="cls-19" points="347.5 179.87 349.8 173.3 365.71 173.91 364.79 188.43 353.31 191.18 347.5 179.87"/><polygon class="cls-18" points="332.5 192.71 353.31 191.18 349.8 173.3 337.71 178.65 326.69 183.69 332.5 192.71"/><polygon class="cls-14" points="332.5 192.71 292.11 189.8 311.08 173.45 337.71 178.65 332.5 192.71"/><path class="cls-1" d="M583.46,137.39c.61,1.38,12.24,23.53,12.24,23.53l-15.91,27.2-17-10.85Z"/><polygon class="cls-19" points="530.55 186.86 523.48 179.68 511.27 185.49 515.21 195.03 527.26 195.61 530.55 186.86"/><polygon class="cls-18" points="542.15 185.22 536.79 182.09 523.48 179.68 527.26 195.61 540 196.37 542.15 185.22"/><polygon class="cls-6" points="536.79 182.09 564.68 173.43 579.79 188.12 540 196.37 536.79 182.09"/><polygon class="cls-19" points="411.73 171.6 423.06 164.72 433.31 170.83 428.11 177.71 415.14 177.88 411.73 171.6"/><polygon class="cls-19" points="404.69 172.12 401.4 179.39 415.42 184.72 416.57 181.86 404.69 172.12"/><polygon class="cls-18" points="397.96 168.96 404.62 167.25 423.06 164.72 415.14 177.88 401.4 179.39 397.96 168.96"/><polygon class="cls-14" points="401.4 179.39 365.71 173.91 382.93 156.87 405.04 167.26 401.4 179.39"/><g id="food"><polygon class="cls-46" points="373.64 204.2 396.55 200.08 414.49 205.09 393.9 211.2 373.64 204.2"/><polygon class="cls-20" points="389.99 198.85 381.36 183.71 395.22 180.36 406.96 183.43 399.31 199.69 389.99 198.85"/><polygon class="cls-10" points="389.15 189.54 383.75 186.82 395.76 183.19 404.96 186.33 391.66 194.13 389.15 189.54"/><polygon class="cls-4" points="393.05 191.07 396.4 186.7 406.96 183.43 404.32 205.24 395.14 208.57 393.05 191.07"/><polygon class="cls-6" points="396.4 186.7 395.14 208.57 383.61 204.67 381.36 183.71 396.4 186.7"/><polygon class="cls-46" points="450.03 185.83 475.73 180.79 495.17 185.52 472.52 192.25 450.03 185.83"/><polygon class="cls-20" points="469.79 178.63 460.3 161.97 475.73 159.2 488.42 163.23 480.04 179.54 469.79 178.63"/><polygon class="cls-10" points="468.87 168.39 463.98 164.38 475.5 161.88 486.69 166.21 471.62 173.43 468.87 168.39"/><polygon class="cls-4" points="473.15 170.07 476 165.13 488.42 163.23 485.55 185.66 475.45 189.32 473.15 170.07"/><polygon class="cls-6" points="476 165.13 475.45 189.32 464.12 186.12 460.3 161.97 476 165.13"/><polygon class="cls-46" points="422.54 203.03 474.56 192.03 508.23 200.89 458.96 213.72 422.54 203.03"/><polygon class="cls-48" points="490.33 184.54 490.37 183.93 490.94 176.75 496.45 181.18 496.14 192.79 492.32 194.78 490.33 184.54"/><polygon class="cls-14" points="477.93 187.29 482.83 180.57 488.03 186.22 485.43 199.36 477.78 198.75 477.93 187.29"/><polygon class="cls-49" points="482.83 180.57 486.35 197.53 492.13 197.64 490.94 176.75 482.83 180.57"/><polygon class="cls-48" points="475.79 179.5 471.05 199.51 482.06 199.66 482.83 180.57 475.79 179.5"/><polygon class="cls-14" points="452.76 185.38 458.04 178.73 462.17 184.69 462.4 204.48 450.92 200.96 452.76 185.38"/><polygon class="cls-48" points="446.56 202.11 447.94 178.73 458.04 178.73 456.89 199.59 446.56 202.11"/><polygon class="cls-48" points="467.91 187.21 459.64 181.71 458.04 189.5 464.08 203.26 469.29 200.28 467.91 187.21"/><polygon class="cls-49" points="477.78 195.92 466.99 177.81 459.64 181.71 469.29 200.28 477.78 195.92"/><polygon class="cls-48" points="441.51 188.59 432.79 186.3 432.1 189.96 434.17 193.4 452.99 200.05 441.51 188.59"/><polygon class="cls-49" points="450.92 200.96 432.79 186.3 440.82 182.63 456.89 199.59 450.92 200.96"/><polygon class="cls-47" points="464.93 201.88 456.89 199.59 434.17 193.4 433.25 202.11 458.04 208.91 464.93 201.88"/><polygon class="cls-10" points="456.89 199.59 496.14 189.96 496.98 200.43 458.04 208.91 456.89 199.59"/></g><g id="flower"><polygon class="cls-46" points="752.62 305 697.53 321 799.35 339.67 871.79 315.5 752.62 305"/><polygon class="cls-9" points="807.7 296 837.74 271 816.04 255 735.26 261.33 736.92 276 807.7 296"/><polygon class="cls-47" points="803.44 224.25 799.43 235.5 796.43 258.25 782.66 260 799.68 221.5 803.44 224.25"/><polygon class="cls-17" points="804.69 210 790.17 216.25 799.43 235.5 820.72 218.33 804.69 210"/><polygon class="cls-47" points="765.47 229.5 771.31 235.83 776.15 248 767.3 249.83 765.47 229.5"/><polygon class="cls-17" points="754.62 219.33 749.28 230 771.31 235.83 771.52 215.25 754.62 219.33"/><polygon class="cls-8" points="741.85 244.5 776.15 248 788 294.33 764.88 289.25 737.34 252.75 741.85 244.5"/><polygon class="cls-15" points="747.98 207 749.28 230 771.52 215.25 747.98 207"/><polygon class="cls-8" points="816.46 245.25 793.93 245.5 785.41 285 807.2 283.75 823.22 254.25 816.46 245.25"/><polygon class="cls-14" points="773.65 260.75 796.43 258.25 802.36 276.33 779.9 288.5 773.65 260.75"/><polygon class="cls-10" points="771.64 287.67 802.36 276.33 838.41 266.33 826.39 314.33 796.35 326.67 771.64 287.67"/><polygon class="cls-47" points="731.25 266.33 742.6 318.33 796.35 326.67 802.36 276.33 731.25 266.33"/><polygon class="cls-14" points="737.09 233.75 718.57 276.5 776.15 248 737.09 233.75"/><polygon class="cls-14" points="846 285 834.74 238 793.93 245.5 846 285"/><polygon class="cls-48" points="767.89 255.25 754.37 289.75 796.43 258.25 767.89 255.25"/><polygon class="cls-15" points="812.7 193.25 790.17 216.25 820.72 218.33 812.7 193.25"/></g><g id="chat_buuble" data-name="chat buuble"><polygon class="cls-1" points="128.37 12.83 45.66 61.09 40.83 149.58 137.5 201.59 224.5 165.13 258.15 86.3 214.29 23.56 128.37 12.83"/><g class="cls-50"><polygon class="cls-3" points="222.35 126.34 210.91 121.51 178.31 128.84 210.66 130.9 234.53 139.21 263.74 123.66 232.09 128.75 222.35 126.34"/><polygon class="cls-4" points="178.31 128.84 211.61 115.26 231.36 123.66 263.17 113.47 234.28 133.04 209.93 125.53 178.31 128.84"/><polyline class="cls-4" points="110.67 37.79 120.44 37.29 140.05 38.89 117.62 27.85 104.02 29.64 89.52 30.95 100.9 42.27 110.77 37.29"/><polygon class="cls-5" points="145.05 171.19 140.4 224.81 93.14 224.46 60.92 170.47 145.05 171.19"/><polygon class="cls-6" points="168.32 175.84 150.42 209.44 143.62 213.73 127.87 182.63 161.16 156.53 168.32 175.84"/><polygon class="cls-4" points="157.22 160.82 198.76 157.25 184.31 199.71 150.42 209.44 157.22 160.82"/><polygon class="cls-47" points="29.41 144.74 84.19 136.16 173.16 141.7 198.76 157.25 126.79 180.49 43.02 174.76 17.95 157.25 29.41 144.74"/><polygon class="cls-11" points="139.32 160.73 122.55 150.95 105.99 148.15 80.31 148.01 40.83 149.58 42.66 177.09 118.11 169.58 139.32 160.73"/><polygon class="cls-47" points="137.71 164.22 127.87 182.63 42.66 177.09 98.87 162.25 137.71 164.22"/><polygon class="cls-10" points="127.74 151.49 198.76 157.25 127.87 182.63 98.87 162.25 127.74 151.49"/><polygon class="cls-46" points="75.05 158.24 123.45 161.81 167.47 156.39 124.38 151.91 75.05 158.24"/><polygon class="cls-9" points="119.9 139.5 148.14 139.54 155.36 135.85 146.84 100.22 120.13 103.42 115.77 112.59 115.27 138.22 119.9 139.5"/><polygon class="cls-10" points="114.24 113.99 110.33 148.97 122.55 150.95 117.74 110.78 113.85 106.7 114.24 113.99"/><path class="cls-16" d="M164,67.2l1.47,3.47L164,72a7.14,7.14,0,0,1-1.56-.76,25.06,25.06,0,0,1-.78-3.06c.07-.1,1.65-1.63,1.65-1.63Z"/><polygon class="cls-19" points="158.76 71.95 161.18 67.22 167.16 64.01 168.02 65.5 163.56 68.6 163.23 71.08 158.76 71.95"/><polygon class="cls-12" points="137.22 94.67 146.89 100.04 142.34 116.07 128.64 119.35 122.23 112.24 120.42 108.33 114.84 101.59 137.22 94.67"/><polygon class="cls-11" points="130.1 97.18 131.28 99.55 129.01 101.63 117.6 101.59 114.9 100.43 114.31 96.03 119.74 92.71 125.31 92.36 130.1 97.18"/><polygon class="cls-13" points="112.91 92.25 106.43 89.12 106.88 82.84 111.3 83.58 112.91 92.25"/><polygon class="cls-11" points="130.1 97.18 134.52 98.42 140.43 94.36 140.98 84.8 132.76 87.8 124.75 93.43 130.1 97.18"/><polygon class="cls-14" points="135.55 106.35 131.3 103.32 129.01 101.63 134.57 98.27 139.07 98.75 135.55 106.35"/><polygon class="cls-15" points="134.57 98.27 133.47 102.74 129.01 101.63 130.1 97.18 134.57 98.27"/><polygon class="cls-7" points="135.55 106.35 146.89 100.04 142.34 116.07 136.56 120.77 128.01 125.51 124.14 120.52 122.23 112.24 135.55 106.35"/><polygon class="cls-12" points="137.32 114.88 139.91 118.69 148 117.49 146.89 100.04 135.55 106.35 137.32 114.88"/><polygon class="cls-7" points="134.57 98.27 135.55 106.35 147.77 99.53 145.84 97.32 145.92 91.6 140.98 84.8 134.57 98.27"/><polygon class="cls-10" points="117.6 101.59 114.31 96.03 110.85 101.57 114.18 104.66 117.6 101.59"/><polygon class="cls-19" points="131.54 142.77 127.74 151.49 126.26 152.99 122.55 150.95 123.13 139.5 130.84 141.14 131.54 142.77"/><polygon class="cls-19" points="139.15 142.81 138.41 150.35 140.51 153.28 143.1 150.76 148.14 139.54 140.76 140.2 139.15 142.81"/><polygon class="cls-18" points="138.41 150.35 143.22 150.43 148.08 154.29 144.97 154.6 137.81 154.54 138.41 150.35"/><polygon class="cls-19" points="144.97 154.6 148.97 152.25 148.53 154.66 144.97 154.6"/><polygon class="cls-18" points="127.74 151.49 127.76 155.5 119 155.21 122.55 150.95 127.74 151.49"/><polygon class="cls-19" points="119 155.21 123.4 152.7 127.76 155.5 119 155.21"/><polygon class="cls-16" points="123.13 139.5 131.54 142.77 132.96 139.5 123.13 139.5"/><polygon class="cls-16" points="139.15 142.81 148.14 139.54 139.5 139.54 139.15 142.81"/><polygon class="cls-18" points="161.75 75.72 164.25 74.16 167.28 71.32 166.71 70.38 158.76 71.95 158.16 75.6 161.75 75.72"/><polygon class="cls-12" points="140.98 84.8 145.84 97.32 154.42 86.11 154.62 77.81 149.1 80.03 140.98 84.8"/><polygon class="cls-14" points="158.76 71.95 149.1 80.03 154.42 86.11 161.75 75.72 158.76 71.95"/><polygon class="cls-11" points="145.84 97.32 146.85 95.76 161.58 135.04 157.52 146.79 145.84 97.32"/><polygon class="cls-15" points="127.3 120.52 124.14 120.52 123.13 139.5 132.96 139.5 135.82 133.29 138.99 130.74 139.91 118.69 127.3 120.52"/><polygon class="cls-17" points="148 117.49 139.91 118.69 135.8 133.23 135.82 133.29 139.5 139.54 148.14 139.54 148 117.49"/><polygon class="cls-14" points="139.91 118.69 137.32 114.88 136 119.26 139.91 118.69"/><polygon class="cls-18" points="133.39 85.6 128.54 91.58 130.1 97.18 119.74 92.71 117.99 80.45 114.43 73.42 113.98 64.3 123.85 58.57 132.92 59.6 134.94 61.58 141.87 82.28 133.39 85.6"/><polygon class="cls-19" points="112.39 78.04 119.74 92.71 130.1 97.18 131.28 93.04 125.82 88.3 118.38 68.89 116.75 67.1 114.31 73.2 112.39 78.04"/><polygon class="cls-20" points="121.32 58.14 132.28 50.48 127.86 49.55 106.08 59.48 112.06 63.76 121.32 58.14"/><polygon class="cls-13" points="135.9 58.32 136 60.73 141.87 65.31 138.41 71.92 134.94 61.58 133.04 59.62 133.85 57.95 135.9 58.32"/><polygon class="cls-21" points="133.78 74.58 131.07 75.59 127.76 67.02 130.47 66.01 133.78 74.58"/><polygon class="cls-16" points="133.78 74.58 133.04 76.06 131.07 75.59 133.78 74.58"/><polygon class="cls-16" points="114.8 82.82 117.99 80.45 116.71 86.65 114.8 82.82"/><polygon class="cls-22" points="121.17 68.32 122.43 68.89 124.4 66.42 126.36 66.42 126.36 66.01 124.2 65.47 121.17 68.32"/><polygon class="cls-22" points="129.94 64.59 130.47 66.01 132.43 63.52 133.93 63.7 133.93 63.39 131.95 62.69 129.94 64.59"/><polygon class="cls-19" points="122.43 68.89 130.08 73.01 127.76 67.02 126.36 66.42 124.4 66.42 122.43 68.89"/><polygon class="cls-19" points="132.06 70.11 133.93 63.7 132.43 63.52 130.47 66.01 132.06 70.11"/><polygon class="cls-16" points="128.79 79.42 136.44 76.59 136.17 80.21 132.43 81.65 128.79 79.42"/><polygon class="cls-16" points="131.28 93.04 133.39 85.6 123.77 89.04 131.28 93.04"/><polygon class="cls-20" points="134.94 61.58 135.9 58.32 141.87 65.31 134.94 61.58"/><polygon class="cls-23" points="138.54 63.52 138.41 71.92 139.42 74.97 141.87 65.31 138.54 63.52"/><polygon class="cls-24" points="114.8 82.82 117.99 80.45 114.35 73.14 111.75 76.7 114.8 82.82"/><polygon class="cls-16" points="113.17 77.13 114.33 75.63 115.87 78.97 113.17 77.13"/><polygon class="cls-18" points="122.14 64.61 133.93 60.53 133.04 59.62 122.14 64.61"/><polygon class="cls-13" points="103.47 77.52 111.96 85.93 112.91 92.25 119.74 92.71 111.75 76.7 109.37 73.55 103.47 77.52"/><polygon class="cls-22" points="103.47 77.52 114.8 82.82 112.91 92.25 103.47 77.52"/><polygon class="cls-22" points="121.34 81.11 115.73 69.67 116.75 67.1 115.48 61.66 106.08 59.48 103.47 77.52 111.75 76.7 114.31 73.2 118.97 82.41 121.34 81.11"/><polygon class="cls-20" points="140.78 69.67 142.2 73.32 140.55 78.35 139.42 74.97 140.78 69.67"/><polygon class="cls-25" points="132.28 50.48 127.28 59.4 116.75 67.1 106.08 59.48 132.28 50.48"/><polygon class="cls-20" points="132.28 50.48 116.75 67.1 137.86 57.4 132.28 50.48"/><polygon class="cls-17" points="140.43 108.7 139.46 110.57 137.57 109.62 138.54 107.71 140.43 108.7"/><polygon class="cls-17" points="141.87 114.86 140.9 116.77 139.01 115.78 139.96 113.89 141.87 114.86"/><path class="cls-13" d="M133.52,66.34a1.17,1.17,0,0,0-1.15,1.15,1.15,1.15,0,0,0,1.15,1.14,1.13,1.13,0,0,0,1.15-1.14A1.15,1.15,0,0,0,133.52,66.34Z"/><path class="cls-13" d="M126,69a1.16,1.16,0,0,0-1.15,1.15,1.15,1.15,0,0,0,2.3,0A1.16,1.16,0,0,0,126,69Z"/><polygon class="cls-17" points="124.14 120.52 137.22 128.21 148 120.29 148 117.49 124.14 120.52"/><polygon class="cls-43" points="135.74 77.6 130.67 79.52 131.83 80.26 135.65 78.81 135.74 77.6"/><polygon class="cls-20" points="104.61 98.47 106.56 93.37 112.47 99.01 111.03 101.58 110.89 105.8 105.35 104.75 104.61 98.47"/><polygon class="cls-38" points="91.89 159.3 93.35 156.92 91.78 152.94 90.4 154.97 90.88 159.3 91.89 159.3"/><polygon class="cls-38" points="110.12 157.21 110.94 154.06 109.83 152 108.51 150.81 107.78 153.26 108.94 157.21 110.12 157.21"/><polygon class="cls-28" points="104.79 124.78 117.16 141.79 108.35 117.85 105.72 119.7 104.79 124.78"/><polygon class="cls-51" points="105.47 123.75 117.16 141.79 111.49 148.28 107.05 136.04 105.47 123.75"/><polygon class="cls-40" points="80.31 148.01 111.49 148.28 108.78 141.4 86.77 139.9 80.31 148.01"/><polygon class="cls-27" points="95.47 152.65 95.85 142.75 88.37 142.75 91.78 152.94 94.34 155.23 95.47 152.65"/><polygon class="cls-27" points="111.89 150.02 110.17 142.75 103.11 142.75 108.51 150.81 111.09 153.93 111.89 150.02"/><polygon class="cls-34" points="110.17 142.75 104.79 141.32 103.11 142.75 104.52 144.86 110.17 142.75"/><polygon class="cls-34" points="95.53 151.26 90.89 150.27 91.45 151.94 95.53 151.26"/><polygon class="cls-41" points="108.51 150.81 111.89 150.02 119.28 157.21 112.33 157.21 108.51 150.81"/><polygon class="cls-41" points="91.78 152.94 95.47 152.65 99.02 159.3 91.89 159.3 91.78 152.94"/><polygon class="cls-5" points="102.98 105.82 105.47 123.75 109.05 119.21 111.07 111.25 111.23 105.56 102.98 105.82"/><polygon class="cls-44" points="101.25 93.35 98.91 97.98 105.06 100.2 107.17 95.08 101.25 93.35"/><polygon class="cls-29" points="80.92 62.45 75.68 71.22 66.15 80.32 71.62 63.29 80.92 62.45"/><polygon class="cls-30" points="71.98 101.08 64.66 93.98 72.76 92.93 75.48 94.46 71.98 101.08"/><polygon class="cls-30" points="80.92 62.45 66.15 80.32 77.69 78.75 80.92 62.45"/><polygon class="cls-31" points="87.25 89.2 71.98 101.08 73.92 81.9 87.25 89.2"/><polygon class="cls-32" points="66.15 80.32 74.63 77.59 80.19 80.65 85.11 84.77 87.25 89.2 66.15 80.32"/><polygon class="cls-31" points="74.63 77.59 84.28 84.91 80.93 77.18 74.63 77.59"/><polygon class="cls-41" points="88.37 121.8 99.77 120.99 105.14 125.78 110.17 142.75 95.85 142.75 88.37 121.8"/><polygon class="cls-33" points="101.25 93.35 104.28 107.24 111.23 105.56 106.56 93.37 101.25 93.35"/><polygon class="cls-26" points="107.24 61.26 108.89 62.89 113.09 85.64 103.99 87.95 98.91 97.98 91.47 92.18 83.14 78.02 82.99 60.24 101.62 55.25 107.24 61.26"/><polygon class="cls-27" points="98.91 97.98 100.52 94.94 100.03 92.94 96.83 90.81 91.77 67.76 89.05 64.56 79.96 78.68 84.28 84.91 85.58 85.93 87.25 89.2 91.06 94.69 94.39 97.23 98.91 97.98"/><polygon class="cls-34" points="93.34 90.68 100.52 94.94 103.99 87.95 93.34 90.68"/><polygon class="cls-29" points="89.05 64.56 99.04 62.74 102.57 59.92 101.9 54.43 82.1 59.61 84.56 65.05 89.05 64.56"/><polygon class="cls-34" points="84.28 84.91 86.16 83.03 87.25 89.2 84.28 84.91"/><polygon class="cls-26" points="84.28 84.91 87.33 81.86 82.66 74.49 79.96 78.68 84.28 84.91"/><polygon class="cls-34" points="82.89 76.98 84.68 80.09 81.1 78.78 82.89 76.98"/><polygon class="cls-35" points="88.5 83.51 87.19 84.46 85.19 81.67 86.57 80.67 88.5 83.51"/><polygon class="cls-16" points="106.55 78.02 105.39 79.59 103.36 78.61 106.55 78.02"/><polygon class="cls-36" points="93.98 69.26 95.6 69.23 96.85 68.11 99.12 68.48 96.2 67.27 93.98 69.26"/><polygon class="cls-36" points="104.51 67.86 105.79 67.65 106.92 65.88 108.67 66.16 106.43 65.11 104.51 67.86"/><polygon class="cls-19" points="109.56 74.57 106.15 76.22 105.52 74.64 109.56 74.57"/><polygon class="cls-19" points="95.17 77.27 103.06 77.29 103.38 75.14 95.17 77.27"/><polygon class="cls-19" points="94.18 72.04 100.66 73.05 100.2 70.92 94.18 72.04"/><polygon class="cls-19" points="108.89 69.29 106.64 71.84 106.13 69.79 108.89 69.29"/><polygon class="cls-30" points="101.9 54.43 99.04 62.74 107.24 61.26 101.9 54.43"/><polygon class="cls-32" points="82.66 74.49 86.57 80.67 89.08 78.03 85.04 70.8 89.05 64.56 82.1 59.61 74.63 77.59 78.3 78.34 79.96 78.68 82.66 74.49"/><polygon class="cls-28" points="91.97 101.71 90.53 105.38 96.56 109.62 98.58 108.17 95.58 102.67 95.58 102.67 91.97 101.71"/><polygon class="cls-28" points="101.25 93.35 104.25 107.41 108.86 99.62 101.25 93.35"/><polygon class="cls-37" points="96.55 122.74 110.17 142.69 105.47 123.75 101.3 122.36 96.55 122.74"/><polygon class="cls-38" points="104.68 112.74 104.28 107.25 97.68 108.32 96.61 121.14 96.55 122.74 105.47 123.75 104.68 112.74"/><polygon class="cls-39" points="82.66 74.49 81.23 76.71 80.82 73.47 92.48 70.93 93.19 74.06 82.66 74.49"/><polygon class="cls-21" points="106.55 78.02 103.36 78.61 101.28 69.28 104.48 68.68 106.55 78.02"/><path class="cls-39" d="M106,75.25l8-1.51-1.43-6.57L92.48,70.93,94,77.5l8.75-1.66-1.13-5.18,3.2-.61Zm-10.92.61L94.18,72l6-1.13.83,3.82Zm17.25-3.23-5.26,1-.86-3.81,5.29-1Z"/><polygon class="cls-33" points="96.55 122.74 95.53 151.26 80.31 148.01 90.14 120.99 92.11 119.93 96.55 122.74"/><polygon class="cls-33" points="91.06 94.69 96.03 103.73 98.58 108.17 96.59 121.22 95.29 115.14 92.67 117.72 90.55 118.45 83.63 99.99 91.06 94.69"/><polygon class="cls-51" points="96.55 122.74 80.31 148.01 88.79 120.67 93.05 117.3 96.55 122.74"/><polygon class="cls-40" points="87.67 110.75 88.79 120.67 96.55 122.74 98.58 108.17 87.67 110.75"/><polygon class="cls-28" points="91.06 94.69 88.33 102.27 98.58 108.17 94.44 99.61 91.06 94.69"/><polygon class="cls-37" points="98.91 97.98 96.83 100.45 94.61 101.15 91.06 94.69 98.91 97.98"/><polygon class="cls-41" points="98.92 97.98 98.91 97.98 94.61 101.15 98.58 108.17 104.28 107.24 102.43 99.15 98.92 97.98"/><path class="cls-42" d="M100.07,72.64a.86.86,0,1,1-.71-1A.85.85,0,0,1,100.07,72.64Z"/><path class="cls-42" d="M110,70.72a.86.86,0,1,1-.71-1A.86.86,0,0,1,110,70.72Z"/><polygon class="cls-35" points="106.53 81.3 101.7 82.03 104.47 84.02 107.67 83.38 108.53 80.9 106.53 81.3"/><polygon class="cls-44" points="101.81 81.93 100.46 81.98 104.54 84.46 107.74 83.91 109.2 80.49 108.32 80.79 107.18 83.1 104.63 83.49 101.81 81.93"/><polygon class="cls-39" points="100.46 81.98 103.12 81.35 103.82 81 106.76 80.52 107.48 80.67 109.2 80.49 105.8 81.89 100.46 81.98"/><polygon class="cls-19" points="119.51 126.78 122.39 130.99 122.07 132.94 118.92 131.72 119.51 126.78"/><polygon class="cls-19" points="119.15 130.97 121.28 133.24 123.33 137.28 120.87 137.42 115.43 134.03 119.15 130.97"/><polygon class="cls-14" points="118.26 117.09 119.51 126.78 117.86 129.73 115.24 128.03 110.65 119.23 112.66 112.84 118.26 117.09"/><polygon class="cls-7" points="120.42 108.33 118.26 117.09 110.65 119.23 110.85 101.57 117.6 101.59 120.42 108.33"/><polygon class="cls-18" points="115.24 128.03 115.43 134.03 121.28 133.24 119.51 126.78 115.24 128.03"/><polygon class="cls-18" points="116.91 114.94 119.54 111.7 120.49 116.35 118.66 119.52 116.91 114.94"/><polygon class="cls-19" points="115.42 112.78 119.54 111.7 118.66 119.52 115.85 117.86 115.42 112.78"/><polygon class="cls-19" points="109.32 114.22 110.76 110.75 114.77 112.55 114.05 116.38 110.67 116.83 109.32 114.22"/><polygon class="cls-18" points="104.54 114.71 106.48 112.55 110.76 110.75 110.67 116.83 106.61 117.41 104.54 114.71"/><polygon class="cls-6" points="93.14 114.31 93.77 110.8 106.48 112.55 106.61 117.41 94.99 117.95 93.14 114.31"/><polygon class="cls-20" points="84.81 114.31 83.63 99.99 93.77 110.8 94.99 117.95 84.81 114.31"/><polygon class="cls-3" points="78.42 39.11 104.12 43.76 119.63 39.16 140.05 38.89 115.81 32.57 103.32 36.42 85.05 31.69 78.42 39.11"/><polygon class="cls-3" points="202.3 35.31 201.36 39.2 197.06 39.87 200.69 41.88 200.15 45.63 203.58 43.09 207.27 44.7 205.12 40.94 207.81 38.26 204.31 38.8 202.3 35.31"/><polygon class="cls-3" points="223.37 87.04 221.37 87.75 219.83 86.04 219.98 88.23 218.16 89.08 220.28 89.86 220.63 91.96 221.68 89.92 223.65 90.34 222.4 88.94 223.37 87.04"/><polygon class="cls-3" points="147.56 29.96 145.82 28.74 146.33 26.5 144.63 27.89 142.88 26.9 143.47 29.08 141.96 30.58 144.23 30.25 145.03 32.1 145.45 30.28 147.56 29.96"/><polygon class="cls-3" points="64.53 120.86 62.75 119.7 63.18 117.44 61.53 118.89 59.75 117.95 60.41 120.11 58.95 121.67 61.21 121.26 62.08 123.08 62.43 121.24 64.53 120.86"/><polygon class="cls-3" points="164.39 107.02 164.41 105.62 165.83 105.06 164.43 104.64 164.33 103.31 163.35 104.45 161.96 104.18 162.99 105.31 162.27 106.43 163.43 105.98 164.39 107.02"/><polygon class="cls-3" points="59.6 82.76 58.73 81.65 59.49 80.33 58.14 80.88 57.23 79.91 57.18 81.41 55.92 82.06 57.43 82.3 57.58 83.63 58.2 82.55 59.6 82.76"/><polygon class="cls-3" points="218.25 154.8 218.57 153.43 220.07 153.18 218.79 152.48 218.96 151.16 217.77 152.07 216.47 151.52 217.24 152.83 216.31 153.79 217.53 153.58 218.25 154.8"/><polygon class="cls-3" points="171.42 52.62 170.56 51.51 171.32 50.19 169.97 50.74 169.06 49.77 169 51.26 167.75 51.92 169.26 52.16 169.4 53.48 170.02 52.41 171.42 52.62"/></g><polygon class="cls-1" points="259.34 102.25 252.71 106.25 252.58 115 261.35 117.75 266.85 111.13 265.35 105.5 259.34 102.25"/><polygon class="cls-1" points="273.14 112.34 273.06 117.12 277.6 120.06 281.92 116.39 280.26 111.33 276.82 110.27 273.14 112.34"/></g></svg>