<svg id="ILLUSTRATION" xmlns="http://www.w3.org/2000/svg" viewBox="0 0 900 350"><defs><style>.cls-1,.cls-6{fill:#dddddb;}.cls-1,.cls-17,.cls-18,.cls-19,.cls-2,.cls-20,.cls-21,.cls-22,.cls-23,.cls-24,.cls-25,.cls-26,.cls-27,.cls-28,.cls-29,.cls-30,.cls-31,.cls-32,.cls-33,.cls-34,.cls-35,.cls-36,.cls-37,.cls-38,.cls-39,.cls-40{fill-rule:evenodd;}.cls-2,.cls-4{fill:#ebecea;}.cls-3{fill:#8f8f8f;}.cls-5{fill:#9ca1a1;}.cls-7{fill:#cececd;}.cls-17,.cls-22,.cls-48,.cls-8{fill:#2a2b2a;}.cls-17,.cls-39,.cls-8{opacity:0.1;}.cls-33,.cls-9{fill:#3e8e6f;}.cls-10,.cls-34{fill:#53af8a;}.cls-11,.cls-31{fill:#36795d;}.cls-12{fill:#73c6a4;}.cls-13{fill:#b7c644;}.cls-14{fill:#d8e156;}.cls-15{fill:#e5e87b;}.cls-16{fill:#9fcf7e;}.cls-18{fill:#8b6752;}.cls-19{fill:#5a753d;}.cls-20,.cls-39,.cls-41{fill:#474748;}.cls-21,.cls-43{fill:#707274;}.cls-23{fill:#738d58;}.cls-24{fill:#44612d;}.cls-25{fill:#6f9c52;}.cls-26{fill:#debca4;}.cls-27{fill:#c3977b;}.cls-28{fill:#e8cab6;}.cls-29,.cls-50{fill:#fff;}.cls-30{fill:#737374;}.cls-32{fill:#98c26c;}.cls-35,.cls-42{fill:#4f5253;}.cls-36{fill:#805b4c;}.cls-37{fill:#593e35;}.cls-38{fill:#a17f6e;}.cls-40{fill:#a98c80;}.cls-44{fill:#f5cab3;}.cls-45{fill:#c1907d;}.cls-46{fill:#fde4d4;}.cls-47{fill:#ffefe8;}.cls-49{fill:#eed3c2;}</style></defs><title>diplomats_Protagonist_ENFJ_conclusion</title><g id="clouds"><polygon class="cls-1" points="415.17 96.42 376.67 97.75 407.5 106.08 424.83 112.08 441.5 111.08 463.33 98.08 427.83 100.58 415.17 96.42"/><polygon class="cls-1" points="153.67 23.5 116 22.84 79.67 19.17 113.67 36.84 148 33.5 170.67 37.84 210.33 26.84 153.67 23.5"/><polygon class="cls-1" points="649.28 72.39 618.62 74.47 568.67 67.48 614.79 89.53 663.49 87.19 706.53 78.54 649.28 72.39"/><polygon class="cls-2" points="706.53 78.54 652.47 64.31 612.44 68.38 568.67 67.48 617.03 80.64 664.77 77.5 706.53 78.54"/><polygon class="cls-2" points="210.33 26.84 167 17.5 126 19.5 79.67 19.17 135.33 28.5 210.33 26.84"/><polygon class="cls-2" points="376.67 97.75 408.17 90.75 438.33 95.58 463.33 98.08 438.83 106.42 413 100.92 376.67 97.75"/></g><g id="ground"><polygon class="cls-3" points="254.5 211.5 263.67 252.17 381.08 239.5 371.58 222.84 254.5 211.5"/><polygon class="cls-4" points="417.58 197.5 292 160 175.21 168.78 133.5 200 266.5 240 417.58 197.5"/><polygon class="cls-5" points="409.58 212.84 336.67 207.47 265 230.84 129 188.17 123.66 206.84 142.38 216.34 263.67 252.17 340.42 228.34 412.25 263.5 409.58 212.84"/><polygon class="cls-6" points="504.25 228.17 493.99 211.64 439.08 188.5 336.67 207.47 403.58 240.5 474.25 274.17 504.25 228.17"/><polygon class="cls-3" points="841.67 196.17 812.33 222.84 699 201.5 707 173.5 801 204.84 841.67 196.17"/><polygon class="cls-6" points="725.67 178.84 728.33 166.84 779.67 128.17 877.67 152.84 814.33 209.5 725.67 178.84"/><polygon class="cls-6" points="541.58 241.5 529.67 212.5 638.33 133.5 728.33 166.84 604.19 259.83 541.58 241.5"/><polygon class="cls-4" points="595.67 259.5 594.33 254.17 529.67 212.5 520.03 246.67 498.25 266.17 595.67 259.5"/><polygon class="cls-5" points="877.67 152.84 813 201.5 728.33 166.84 594.33 254.17 523.75 249.25 546.92 271.5 607.17 268.5 731 192.67 812.33 222.84 879.67 188.84 877.67 152.84"/><polygon class="cls-5" points="572.58 332.83 636.25 345 755.75 349.5 876.33 323.5 867.33 288.17 694.33 305.5 536.25 284.83 572.58 332.83"/><polygon class="cls-5" points="554.58 320.5 576.5 333.5 570.33 349.5 329.08 347 329.58 314.5 554.58 320.5"/><polygon class="cls-6" points="248.33 287.5 171 266.83 25.67 295.5 159 335.5 248.33 287.5"/><polygon class="cls-5" points="408.58 314.5 423.58 272.17 274.33 265.5 165 323.5 25.67 295.5 11 318.17 155.67 348.83 320.92 292.17 408.58 314.5"/><polygon class="cls-4" points="590.5 301.5 601 287.5 641.58 272.33 721.67 264.17 867.33 288.17 757 327.5 637 324.5 590.5 301.5"/><polygon class="cls-6" points="601 287.5 637 324.5 553.58 296.5 498.58 285 523.75 249.25 601 287.5"/><polygon class="cls-7" points="430.08 264 415.08 285.5 329.58 314.5 576.5 333.5 553.58 296.5 523.75 249.25 477.85 257.3 430.08 264"/><polygon class="cls-4" points="415.08 285.5 274.33 265.5 403.58 240.5 506 249.5 415.08 285.5"/></g><g id="house"><polygon class="cls-8" points="167.67 188.17 291.33 215.5 376.67 196.5 276.67 184.84 167.67 188.17"/><polygon class="cls-9" points="371.61 124.85 365.74 140.15 360.58 195.85 291.32 209.14 284.17 173.63 293.49 127.73 326.51 79.53 371.61 124.85"/><polygon class="cls-10" points="193.61 190.21 236.21 198.92 248.26 193.77 267.27 205.06 291.32 209.14 294.06 149.7 293.49 127.73 195.49 124.58 193.61 190.21"/><polygon class="cls-10" points="328.64 91.6 293.95 144.06 282.68 134.63 327.31 71.7 328.64 91.6"/><polygon class="cls-10" points="378.29 141.85 326.7 91.87 327.31 71.7 382.65 130.84 378.29 141.85"/><polygon class="cls-11" points="365.74 140.15 378.29 141.85 366.2 129.57 365.97 133.36 365.74 140.15"/><polygon class="cls-9" points="216.18 66.53 327.31 71.7 282.68 134.63 231.35 129.29 183.66 117.68 216.18 66.53"/><polygon class="cls-11" points="305.45 102.65 296.94 114.5 197.11 96.53 205.33 83.59 313.05 91.95 305.45 102.65"/><polygon class="cls-11" points="293.95 144.06 195.49 124.58 183.66 117.68 282.68 134.63 293.95 144.06"/><polygon class="cls-12" points="269.22 153.61 240.16 149.9 236.21 198.92 241.49 199.97 250.66 194.8 260.7 203.82 267.27 205.06 269.22 153.61"/><polygon class="cls-9" points="262.68 158.77 244.44 156.3 241.49 199.92 241.48 199.99 260.7 203.79 262.68 158.77"/><polygon class="cls-10" points="344.3 137.52 316.81 137.41 318.07 178.71 343.15 175.83 344.3 137.52"/><polygon class="cls-13" points="327.57 17.84 341.9 36.24 328.56 53.61 317.71 27.04 327.57 17.84"/><polygon class="cls-14" points="327.57 17.84 341.9 36.24 333.28 47.51 327.57 17.84"/><polygon class="cls-14" points="358.37 56.74 345.01 20.7 322.57 50.84 334.22 84.7 358.37 56.74"/><polygon class="cls-13" points="345.01 20.7 322.57 50.84 334.22 84.7 345.01 20.7"/><polygon class="cls-14" points="369.05 52.57 349.04 60.16 327.89 94.82 341.35 132.1 375.21 115.72 369.05 52.57"/><polygon class="cls-13" points="369.05 52.57 349.04 60.16 327.89 94.82 341.35 132.1 369.05 52.57"/><polygon class="cls-13" points="324.53 37.27 322.99 66.58 320.85 87.94 335.25 115.19 341.12 86.42 324.53 37.27"/><polygon class="cls-14" points="324.53 37.27 308.89 54.18 316.08 110.58 335.25 115.19 324.53 37.27"/><polygon class="cls-14" points="288.33 21.87 271.14 36.08 276.39 57.67 284.21 66.77 291.74 58.81 295.29 39.06 288.33 21.87"/><polygon class="cls-13" points="288.33 21.87 271.14 36.08 276.39 57.67 284.21 66.77 288.33 21.87"/><polygon class="cls-14" points="255.46 22.21 247.69 38.8 243.41 43.4 251.3 48.79 258.9 44.08 259.83 39.24 255.46 22.21"/><polygon class="cls-13" points="255.46 22.21 241.15 37.81 243.41 43.4 251.3 48.79 255.46 22.21"/><polygon class="cls-14" points="223.77 49.27 216.18 66.53 238.15 95.75 240.8 82.51 223.77 49.27"/><polygon class="cls-13" points="223.77 49.27 216.18 66.53 238.15 95.75 223.77 49.27"/><polygon class="cls-15" points="243.56 62.27 225.96 100.34 238.27 129.11 258.75 106.33 243.56 62.27"/><polygon class="cls-13" points="243.56 62.27 224.88 101.42 238.27 129.11 243.56 62.27"/><polygon class="cls-14" points="259.67 71.93 245.06 103.68 255.64 124.5 268.87 104.6 259.67 71.93"/><polygon class="cls-15" points="255.64 124.5 268.87 104.6 259.67 71.93 255.64 124.5"/><polygon class="cls-13" points="245.75 92.98 227.69 121.98 240.8 148.21 263.46 125.08 245.75 92.98"/><polygon class="cls-14" points="245.75 92.98 227.69 121.98 240.8 148.21 245.75 92.98"/><polygon class="cls-11" points="321.51 142.75 322.66 174.3 339.33 172.57 338.92 141.76 321.51 142.75"/><polygon class="cls-10" points="329.15 140.78 330.38 174.46 332.76 174.22 332.11 140.53 329.15 140.78"/><polygon class="cls-10" points="320.93 159.59 340.57 158.11 340.49 155.65 320.36 157.37 320.93 159.59"/></g><g id="grass"><polygon class="cls-8" points="388.8 268.27 410 272.29 426.87 266.41 407.76 263.63 388.8 268.27"/><polygon class="cls-16" points="399.29 267.92 388.17 252.79 399.92 259.54 400.38 245.38 408.75 260.88 419.79 244.67 415.25 260 425.42 254.29 416.54 268.17 399.29 267.92"/><polygon class="cls-8" points="581.31 227.91 597.4 230.96 610.2 226.5 595.7 224.38 581.31 227.91"/><polygon class="cls-16" points="589.27 227.64 580.83 216.17 589.75 221.29 593.92 210.38 594.87 221.57 604.83 210 599.42 223.47 609.09 217.3 602.36 227.83 589.27 227.64"/><polygon class="cls-8" points="633.44 161.95 643.64 163.88 651.76 161.05 642.56 159.71 633.44 161.95"/><polygon class="cls-16" points="638.49 161.78 633.14 154.5 638.79 157.75 639.63 148.91 643.24 155.84 646.69 149.95 646.05 157.33 651.06 155.22 646.79 161.9 638.49 161.78"/></g><g id="main_character" data-name="main character"><polygon class="cls-17" points="420 293.83 491.67 280.17 544 299.17 479 308.5 420 293.83"/><polygon class="cls-18" points="484.43 80.73 473.13 94.43 464.17 117.91 475.78 114.84 491.71 107.94 484.43 80.73"/><polygon class="cls-19" points="543.55 148.92 551.42 161.05 544.21 173.05 528.04 178.68 524.39 170.15 524.98 151.11 543.55 148.92"/><polygon class="cls-20" points="524.55 280.17 520.1 285.83 517.29 292.18 520.36 298.53 524.61 298.53 526.09 287.9 524.55 280.17"/><polygon class="cls-21" points="495.49 298.63 513.4 298.63 524.55 280.17 515.74 277.18 495.49 298.63"/><polygon class="cls-20" points="550.84 122.03 560.51 138.8 545.35 155.53 539.17 125.19 550.84 122.03"/><polygon class="cls-22" points="529.88 133.63 560.27 117.87 555.2 111.36 550.41 109.68 533.98 117.66 529.88 133.63"/><polygon class="cls-19" points="490.28 151.02 487.26 147.51 481.93 146.74 463.58 135.92 459.32 155.71 476.18 170.96 494.39 170.67 490.28 151.02"/><polygon class="cls-23" points="490.32 151.03 481.93 146.74 497.27 141.5 490.32 151.03"/><polygon class="cls-24" points="493.58 266.33 494.92 275.76 503.39 290.26 524.55 280.17 523.38 228.95 493.58 266.33"/><polygon class="cls-20" points="475.45 276.92 478.75 282.15 475.04 292.9 471.02 292.94 469.34 284.93 471.26 278.97 475.45 276.92"/><polygon class="cls-21" points="458.28 281.68 443.33 294.01 462.74 293.58 475.45 276.92 468.15 274.92 462.99 277.54 458.28 281.68"/><polygon class="cls-1" points="497.27 141.5 509.96 141.33 525.71 138.91 528.77 156.75 524.39 170.15 497.51 172.56 483.37 160.56 497.27 141.5"/><polygon class="cls-24" points="483.37 160.56 476.18 170.96 485.5 213.01 507.54 220.5 529.94 212.58 531.39 183.92 524.39 170.15 493.62 165.08 483.37 160.56"/><polygon class="cls-25" points="476.18 170.96 531.39 183.92 534.45 151 527.23 154.07 525.09 155.78 524.39 170.15 493.7 163.22 483.37 160.56 490.32 151.03 487.25 149.4 476.18 170.96"/><polygon class="cls-23" points="525.71 138.91 541.01 149.22 532.3 152.75 525.04 155.86 525.71 138.91"/><polygon class="cls-26" points="482.27 74.42 480.27 80.82 480.51 87.06 474.41 130.9 495.67 135.68 504.4 150.92 530.24 125.5 538.83 120.46 543.19 122.58 550.41 109.68 545.09 104.42 539.39 103.02 536.77 104.5 536.27 110.15 534.94 95.33 529.49 81.56 519.08 72.41 505.38 67.3 491.69 68.99 482.27 74.42"/><polygon class="cls-27" points="529.49 81.56 522.14 90.25 513.24 140.28 499.89 140.65 497.07 151.55 498.05 164.22 525.71 138.91 529.88 133.63 532.77 127.15 535.55 125.45 536.76 110.31 535.61 102.74 533.65 99.1 534.1 93.2 529.49 81.56"/><polygon class="cls-27" points="500.04 107.94 511.5 93.58 519.71 92.01 510.52 85.27 505.92 86.07 500.04 107.94"/><polygon class="cls-27" points="499.64 84.71 495.64 82.36 485.74 85.6 492.02 88.93 495.98 97.92 499.64 84.71"/><polygon class="cls-18" points="493.58 106.59 496.33 110.66 500.04 107.94 493.58 106.59"/><polygon class="cls-20" points="495.64 82.36 490.15 79.63 485.74 85.6 495.64 82.36"/><polygon class="cls-20" points="510.52 85.27 516.96 85.39 519.71 92.01 510.52 85.27"/><polygon class="cls-28" points="505.92 86.07 500.04 107.94 493.58 106.59 499.64 84.71 505.92 86.07"/><polygon class="cls-24" points="509.52 124.01 495.63 113.2 482.69 118.24 495.3 123.94 509.52 124.01"/><polygon class="cls-23" points="509.52 124.01 493.38 129.41 482.69 118.24 496.11 119.58 509.52 124.01"/><polygon class="cls-24" points="507.09 123.21 497.16 125.32 492.07 124.28 484.43 118.44 494.8 119.01 507.09 123.21"/><polygon class="cls-29" points="507.09 123.21 484.43 118.44 495.09 116.82 507.09 123.21"/><polygon class="cls-18" points="546.47 110.71 540.65 107.52 537.72 115.14 546.47 110.71"/><polygon class="cls-22" points="539.39 103.02 538.76 100.1 533.65 99.1 536.27 110.15 539.39 103.02"/><polygon class="cls-20" points="560.27 117.87 559.07 98.69 545.28 88.08 529.49 81.56 533.65 99.1 539.39 103.02 550.41 109.68 560.27 117.87"/><polygon class="cls-22" points="477.48 76.03 480.51 87.06 482.27 74.42 477.48 76.03"/><polygon class="cls-20" points="517.41 44.99 475.73 66.89 477.48 76.03 482.27 74.42 505.38 67.3 512.49 59.66 517.41 44.99"/><polygon class="cls-30" points="559.07 98.69 557.39 75.37 517.41 44.99 505.38 67.3 529.49 81.56 559.07 98.69"/><polygon class="cls-18" points="495.67 135.68 519.63 141 497.07 151.55 495.67 135.68"/><polygon class="cls-18" points="532.44 122.6 529.88 133.63 535.55 125.45 532.44 122.6"/><polygon class="cls-23" points="485.5 213.01 487.02 263.77 532.85 230.98 529.94 212.58 485.5 213.01"/><polygon class="cls-25" points="485.5 213.01 478.72 241.72 462.99 277.54 503.39 290.26 532.85 230.98 485.5 213.01"/><polygon class="cls-31" points="540.47 117.97 535.55 125.45 532.44 122.6 536.28 115.65 540.47 117.97"/><path class="cls-22" d="M509.16,95.49a2.69,2.69,0,1,0,2.49-2.87A2.7,2.7,0,0,0,509.16,95.49Z"/><path class="cls-22" d="M487.63,90.84A2.69,2.69,0,1,0,490.12,88,2.7,2.7,0,0,0,487.63,90.84Z"/><polygon class="cls-32" points="532.85 230.98 462.99 277.54 485.5 213.01 532.85 230.98"/><polygon class="cls-27" points="552.9 119.12 555.63 114.02 549.82 100.09 537.38 98.29 536.27 110.15 552.9 119.12"/><polygon class="cls-26" points="549.75 143.83 550.79 130.39 555.63 114.02 536.27 110.15 536.28 130.38 549.75 143.83"/><polygon class="cls-32" points="536.28 130.38 544.21 173.05 562.83 166.29 550.79 130.39 536.28 130.38"/><polygon class="cls-27" points="468.42 115.33 464.17 108.84 467.68 96.52 480.29 84.5 480.74 88.46 473.01 99.43 475.78 114.84 468.42 115.33"/><polygon class="cls-32" points="464.17 108.84 442.82 139.92 459.32 155.71 475.78 114.84 464.17 108.84"/></g><g id="_3rd_character" data-name="3rd character"><polygon class="cls-17" points="746.33 168.84 787.33 151.84 832 161.84 791 183.5 746.33 168.84"/><polygon class="cls-31" points="777.31 164.64 761.13 168.55 761.13 171.74 785.2 171.9 792.05 166.24 777.31 164.64"/><polygon class="cls-33" points="778.66 152.69 775.85 156.43 761.13 168.55 790.14 168.57 792.69 156.91 778.66 152.69"/><polygon class="cls-33" points="791.18 167.03 785.2 171.9 785.28 174.76 804.57 175.16 804.65 172.37 791.18 167.03"/><polygon class="cls-34" points="793.09 154.84 788.71 160.52 785.2 171.9 804.65 172.37 803.48 161.11 793.09 154.84"/><polygon class="cls-20" points="776.27 135.07 773.08 140.07 775.85 156.43 788.71 160.52 795.83 140.17 776.27 135.07"/><polygon class="cls-35" points="794.55 136.45 787.51 144.26 788.71 160.52 803.48 161.11 806.24 144.8 794.55 136.45"/><polygon class="cls-35" points="777.12 113.29 768.62 112.65 773.08 140.07 787.51 144.26 792.21 119.77 777.12 113.29"/><polygon class="cls-21" points="791.68 118.71 786.05 126.36 787.51 144.26 806.24 144.8 811.77 114.24 791.68 118.71"/><polygon class="cls-20" points="780.74 99.58 768.62 112.65 786.05 126.36 811.77 114.24 780.74 99.58"/><polygon class="cls-35" points="781.05 102.55 768.59 108.82 768.62 112.65 811.77 114.24 812.09 105.42 781.05 102.55"/><polygon class="cls-31" points="804.56 75.85 817.54 65.31 832.78 92.31 804.75 90.94 804.56 75.85"/><polygon class="cls-36" points="726.21 70.7 719.99 72.61 711.32 59.53 719.99 52.82 731.85 62.42 728.22 72.22 726.21 70.7"/><polygon class="cls-37" points="736.66 78.28 732.43 78.35 719.99 72.61 731.11 61.49 736.66 78.28"/><polygon class="cls-38" points="743.77 79.43 737.55 69.07 734.11 61.02 728.17 54.63 725.34 57.17 728.61 62.42 729.24 70.34 743.77 79.43"/><polygon class="cls-31" points="783.39 79.38 767.71 64.38 752.87 76.29 747.33 80.55 753.8 93.68 780.25 89.37 783.39 79.38"/><polygon class="cls-33" points="772.71 75.9 768.1 88 768.59 108.82 811.81 110.14 814.36 90.74 772.71 75.9"/><polygon class="cls-34" points="767.71 64.38 768.1 88 814.36 90.74 817.54 65.31 812.2 63.7 782.71 61.54 767.71 64.38"/><polygon class="cls-2" points="806.42 55.86 809.65 59.19 812.2 63.7 803.18 78.59 789.17 71.05 775.85 76.73 779.57 58.41 806.42 55.86"/><polygon class="cls-20" points="769.84 9.5 760.46 14.92 769.71 34.05 769.84 9.5"/><polygon class="cls-35" points="790.29 13.08 780.06 24.97 767.82 17.05 760.46 14.92 775.55 0 790.29 13.08"/><polygon class="cls-21" points="783.9 24.08 782.02 20.53 775.55 0 804.7 1.71 801.03 28.55 783.9 24.08"/><polygon class="cls-35" points="806.27 23.31 800.52 17.85 804.7 1.71 816.72 16.02 806.27 23.31"/><polygon class="cls-20" points="792.59 34.18 800.52 17.85 816.72 16.02 812.33 31.62 798.73 44.28 792.59 34.18"/><polygon class="cls-36" points="788.12 64.35 799.56 65.46 809.65 59.19 811.03 44.92 810.36 42.88 811.43 40.77 812.33 31.62 805.89 30.86 805.12 35.16 802.91 34.6 800.52 17.85 783.96 58.47 788.12 64.35"/><polygon class="cls-37" points="776.74 55.91 789.17 71.05 799.56 65.46 803.08 59.24 798.91 58.33 776.74 55.91"/><polygon class="cls-38" points="767.82 17.05 767.28 56.99 798.91 58.33 800.52 17.85 782.02 20.53 767.82 17.05"/><polygon class="cls-39" points="767.47 41.53 767.28 56.99 798.91 58.33 799.53 42.65 767.47 41.53"/><polygon class="cls-37" points="777.51 45.17 775.97 51.92 789.37 52.75 787.61 45.77 777.51 45.17"/><polygon class="cls-36" points="773.29 28.36 770.34 27.15 780.15 42.02 783.56 40.49 784.94 42.17 795.84 28.22 791.06 28.94 787.67 31.21 785.52 31.71 782.68 37.7 780.15 31.54 777.76 30.95 773.29 28.36"/><path class="cls-22" d="M777.48,34.51a2,2,0,1,1-2-2A2,2,0,0,1,777.48,34.51Z"/><path class="cls-22" d="M792.22,35.31a2,2,0,1,1-2-2A2,2,0,0,1,792.22,35.31Z"/><polygon class="cls-35" points="777.76 30.95 770.34 27.15 772.27 25.43 778.4 28.17 777.76 30.95"/><polygon class="cls-35" points="787 28.3 793.84 26.36 795.84 28.22 787.67 31.21 787 28.3"/><polygon class="cls-37" points="782.71 39.87 780.15 42.02 782.47 43.47 784.94 42.17 782.71 39.87"/><polygon class="cls-40" points="780.15 31.54 780.15 42.02 784.94 42.17 785.52 31.71 780.15 31.54"/><polygon class="cls-29" points="778.53 46.52 777.99 49.07 786.9 49.63 786.41 46.92 778.53 46.52"/><polygon class="cls-37" points="809.96 34.09 807.87 33.92 807.7 37.76 809.96 34.09"/><polygon class="cls-37" points="807.54 40.24 811.43 40.77 811.03 44.92 807.54 40.24"/><polygon class="cls-39" points="805.12 35.16 802.91 34.6 799.53 42.65 798.91 58.33 803.08 59.24 805.12 35.16"/><polygon class="cls-33" points="732.43 78.35 753.8 93.68 752.82 76.44 737.53 68.91 732.43 78.35"/><polygon class="cls-2" points="811.81 76.63 841.6 78 833.76 112.3 806.16 110 811.81 76.63"/><polygon class="cls-38" points="834.07 91.33 839.95 85.34 840.35 96.66 836.21 101.62 834.07 91.33"/><polygon class="cls-36" points="830.13 89.79 839.95 85.34 836.21 101.62 830.1 98.94 830.13 89.79"/></g><g id="_2nd_character" data-name="2nd character"><polygon class="cls-8" points="61.33 297.83 128.33 283.83 182.67 297.17 125.67 310.83 61.33 297.83"/><polygon class="cls-11" points="144.37 290.4 154.94 293.85 154.83 297.86 125.45 298.08 116.44 290.18 144.37 290.4"/><polygon class="cls-9" points="131.91 269.6 135.36 277.61 154.94 293.85 116.78 293.63 113.55 272.15 131.91 269.6"/><polygon class="cls-9" points="113.55 293.19 125.45 298.08 125.45 302.2 95.86 302.2 95.75 298.08 113.55 293.19"/><polygon class="cls-10" points="112.7 272.12 120.71 280.57 125.45 298.08 95.75 298.08 96.67 280.43 112.7 272.12"/><polygon class="cls-41" points="135.4 243.63 140.96 252.91 135.36 277.61 120.71 280.57 106.36 250.42 135.4 243.63"/><polygon class="cls-42" points="103.94 246.01 93.45 255.02 96.67 280.43 120.71 280.57 123.72 255.73 103.94 246.01"/><polygon class="cls-42" points="130.35 220.19 150.38 215.59 140.96 252.91 123.53 255.73 103.05 233.1 130.35 220.19"/><polygon class="cls-43" points="106.32 210.25 88.96 215.15 93.45 255.02 123.72 255.73 126.12 238.29 106.32 210.25"/><polygon class="cls-41" points="97.86 209.81 88.96 215.15 126.12 238.29 150.38 215.59 97.86 209.81"/><polygon class="cls-42" points="99.9 195.38 87.89 210.14 88.96 215.15 150.38 215.59 150.35 208.06 99.9 195.38"/><polygon class="cls-11" points="170.48 167.23 139.47 140.07 131.87 155.54 146.66 175 167.31 178.95 170.48 167.23"/><polygon class="cls-43" points="155.06 99.87 166.97 84.33 153.51 64.31 133.12 62.99 134.94 66.42 122.29 62.27 105.75 61.19 88.05 88.09 98.06 89.88 109.08 82.59 116.93 81.85 121.98 84.39 138.4 88.15 148.17 89.91 152.34 92.13 155.06 99.87"/><polygon class="cls-42" points="144.84 83.67 143.58 76.16 153.51 64.31 166.97 84.33 153.1 94.35 144.84 83.67"/><polygon class="cls-41" points="147.06 89.18 157.16 86.84 166.97 84.33 154.56 104.38 147.06 89.18"/><polygon class="cls-42" points="136.72 88.38 129.09 85.75 122.29 62.28 133.12 62.99 143.58 76.16 136.72 88.38"/><polygon class="cls-42" points="123.75 86.89 117.2 77.29 105.75 61.19 88.05 88.09 123.75 86.89"/><polygon class="cls-41" points="108.19 83.25 88.05 88.09 90.8 104.76 103.57 103.2 105.23 115.58 108.19 83.25"/><polygon class="cls-44" points="93.52 136.51 93.26 130.91 96.55 124.95 92.44 121.27 90.8 104.76 103.57 103.2 108.19 83.25 116.99 81.33 137.49 115.72 122.43 135.03 118.27 140.07 113.34 166.25 102.19 163.16 93.79 136.51 93.52 136.51"/><polygon class="cls-45" points="120.78 134.54 122.43 135.03 131.3 135.73 129.84 138.04 144.91 157.21 120.5 152.05 105.64 143.61 105.36 136.76 112.79 136.51 120.78 134.54"/><polygon class="cls-10" points="93.52 136.51 76.29 141.53 78.1 200.54 98.34 194.75 110.73 175.13 116.65 163.41 120.5 152.05 93.52 136.51"/><polygon class="cls-10" points="110.64 187.95 149.2 181.23 147.76 157.03 145.05 156.79 139.47 140.07 130.84 136.44 120.5 152.05 110.64 187.95"/><polygon class="cls-9" points="87.89 210.14 150.35 209.84 152.06 180.97 116.05 181.7 82.61 181.35 87.89 210.14"/><polygon class="cls-46" points="157.16 86.84 152.68 136.33 112.79 136.51 116.99 81.33 143.58 76.16 157.16 86.84"/><polygon class="cls-44" points="119.14 100.66 127.66 104.92 130.97 118.13 138.95 118.25 139.09 113.93 145.01 106.78 152.56 103.19 142.55 98.58 141.02 101.84 131.93 101.22 131.15 98.26 119.14 100.66"/><polygon class="cls-47" points="141.02 101.72 138.95 118.25 130.97 118.13 131.93 101.22 141.02 101.72"/><polygon class="cls-45" points="93.26 130.91 92.46 121.27 102.47 118.62 93.26 130.91"/><polygon class="cls-45" points="97.89 114.55 98.3 107.89 94.72 108.63 97.89 114.55"/><polygon class="cls-45" points="138.95 118.25 134.82 122.57 130.97 118.13 138.95 118.25"/><polygon class="cls-41" points="142.55 98.58 149.7 97.75 152.56 103.19 142.55 98.58"/><polygon class="cls-41" points="119.14 100.66 124.46 95 131.15 98.26 119.14 100.66"/><polygon class="cls-14" points="153.27 159.83 150.66 164.39 147.22 172.41 156.16 182.16 154.1 189.19 156.44 194.25 152.03 205.85 150.38 215.59 176.55 192.32 182.52 155.96 168.78 142.64 148.03 147.43 153.27 159.83"/><polygon class="cls-13" points="145.05 156.79 148.1 164.98 140.6 172.54 150.71 185.55 146.11 190.92 151.33 196.48 146.39 206.09 150.38 215.59 161.81 195.36 155.89 189.56 163.78 180.11 151.48 172.91 163.92 158.74 148.03 147.43 145.05 156.79"/><polygon class="cls-11" points="76.29 141.53 65.29 197.33 90.38 191.76 89.2 181.28 94.82 167.13 76.29 141.53"/><path class="cls-48" d="M128.82,105.8A2.78,2.78,0,1,1,126,103,2.78,2.78,0,0,1,128.82,105.8Z"/><path class="cls-48" d="M147.83,107.33a2.78,2.78,0,1,1-2.78-2.78A2.78,2.78,0,0,1,147.83,107.33Z"/><polygon class="cls-45" points="126.59 125.24 140.71 124.22 141.55 126.52 125.15 127.74 126.59 125.24"/><polygon class="cls-41" points="100.91 101.7 101.58 108.38 105.04 108.05 108.19 83.25 100.91 101.7"/><polygon class="cls-46" points="106.47 195.54 103.57 190.43 112.36 184.04 115.69 195.28 106.47 195.54"/><polygon class="cls-14" points="120.5 152.05 105.5 164.01 105.23 175.66 123.16 204.5 150.38 215.59 140.74 205.6 147.49 195.98 137.03 191.04 146.65 181.28 135.78 174.26 143.63 163.65 120.5 152.05"/><polygon class="cls-13" points="120.5 152.05 104.67 158.47 98.34 173.89 122.16 206.71 150.38 215.59 131.66 206.09 109.63 171.67 120.5 152.05"/><polygon class="cls-49" points="103.57 190.43 120.94 189.3 127.11 195.61 123.13 209.18 103.57 206.96 99.71 198.82 103.57 190.43"/><polygon class="cls-46" points="133.22 193.88 120.94 189.3 123.13 209.18 133.84 207.09 133.22 193.88"/><polygon class="cls-46" points="103.57 190.43 89.2 181.28 65.29 197.33 103.57 206.96 103.57 198.57 103.57 190.43"/><polygon class="cls-49" points="173.36 166.65 182.52 155.96 183.21 168.03 178.77 178.58 173.36 166.65"/><polygon class="cls-46" points="168.4 163.07 182.52 155.96 178.78 178.71 170.48 174.52 168.4 163.07"/></g><g id="animal"><polygon class="cls-8" points="637 302.5 722.33 288.17 795 302.83 716.67 320.83 637 302.5"/><polygon class="cls-13" points="685.55 293.38 680.16 295.56 669.25 304.41 693.25 305.18 685.55 293.38"/><polygon class="cls-13" points="638.16 252.49 634.48 243.33 612.15 245.81 627.64 256.11 638.16 252.49"/><polygon class="cls-13" points="727.51 286.32 735.98 295.24 730.78 302.04 710.25 301.27 727.51 286.32"/><polygon class="cls-13" points="746.18 289.98 737.52 304.54 756.55 304.63 759.68 294.02 746.18 289.98"/><polygon class="cls-11" points="713.78 290.68 733.54 283.31 735.98 295.24 713.78 290.68"/><path class="cls-11" d="M659.8,212.71l-1.45-4.66-14.56-10.63L644,215l38.83,9.07,9.89-7.81s1.8-18.62,1.55-18.62S678.54,209,678.54,209l-4.45,7.18Z"/><polygon class="cls-9" points="657.32 213.22 658.35 208.05 678.54 208.94 678.79 215.1 665.53 219.47 657.32 213.22"/><polygon class="cls-13" points="748.55 259.66 749.16 246.39 735.68 244.79 738.08 231.44 724.22 231.44 726.1 216.73 711.44 216.88 696.5 219.64 691.72 221.35 713.14 224.78 742.35 258.46 748.55 259.66"/><polygon class="cls-9" points="748.55 259.66 711.44 216.88 705.23 221.05 714.46 269.64 735.41 265.17 748.55 259.66"/><polygon class="cls-9" points="759.02 260.4 748.55 259.66 747.02 270.02 745.19 272.59 764.98 271.28 764.01 262.34 759.02 260.4"/><polygon class="cls-10" points="773.99 237.59 759.02 260.4 764.98 271.28 773.99 237.59"/><polygon class="cls-10" points="788.83 232.08 780.07 229.25 773.99 237.59 781.77 236.55 788.83 232.08"/><polygon class="cls-9" points="773.99 237.59 782.14 240.58 788.83 232.08 773.99 237.59"/><polygon class="cls-9" points="747.14 270.97 732.94 261.74 725.52 264.27 713.78 290.68 729.95 290.68 747.14 270.97"/><polygon class="cls-11" points="714.46 269.64 748.55 259.66 737.85 273.07 704.03 280.68 714.46 269.64"/><polygon class="cls-11" points="711.44 216.88 714.46 269.64 702.83 273.79 693.86 266.62 694.28 233.45 711.44 216.88"/><polygon class="cls-9" points="692.48 278.24 666.05 269.77 657.49 249.07 688.56 216.28 697.1 230.12 693.86 266.62 692.48 278.24"/><polygon class="cls-10" points="683.84 250.26 659.03 243.08 688.56 216.28 711.44 216.88 693.86 266.62 683.84 250.26"/><polygon class="cls-9" points="683.84 250.26 659.03 243.08 688.56 216.28 701.08 216.77 683.84 250.26"/><polygon class="cls-10" points="685.72 297.31 706.6 294.62 714.46 269.64 693.86 266.62 690.86 284.48 685.72 297.31"/><polygon class="cls-9" points="706.6 294.79 690.86 284.48 680.16 295.56 693.25 305.18 706.6 294.79"/><polygon class="cls-11" points="648.74 258.11 641.58 272.33 666.05 269.77 657.83 248.38 648.74 258.11"/><polygon class="cls-9" points="641.58 272.33 652.02 254.71 634.48 243.33 627.64 256.11 641.58 272.33"/><polygon class="cls-10" points="643.98 215.02 652.87 248.9 683.84 250.26 692.7 216.28 666.43 226.27 643.98 215.02"/><polygon class="cls-9" points="643.98 215.02 660.91 234.96 671.37 235.34 692.7 216.28 666.43 226.27 643.98 215.02"/><polygon class="cls-11" points="656.98 240.25 675.54 240.68 666.22 247.27 656.98 240.25"/><path class="cls-41" d="M656.91,225.64a2.73,2.73,0,1,1-2.72-2.73A2.72,2.72,0,0,1,656.91,225.64Z"/><path class="cls-41" d="M681.17,226.83a2.73,2.73,0,1,1-2.73-2.72A2.73,2.73,0,0,1,681.17,226.83Z"/><polygon class="cls-12" points="673.75 223.06 692.7 216.28 678.54 208.94 666.43 217.54 658.35 208.05 643.98 215.02 659.12 223.19 673.75 223.06"/><polygon class="cls-11" points="665.53 230.5 643.98 215.02 666.56 222.29 692.7 216.28 665.53 230.5"/><polygon class="cls-11" points="663.54 233.52 660.91 234.96 666.11 238.69 671.37 235.34 663.54 233.52"/><polygon class="cls-12" points="657.58 224.82 660.91 234.96 671.37 235.34 675.71 225.2 657.58 224.82"/><polygon class="cls-10" points="745.99 289.14 748.55 259.66 730.85 274.9 729.95 290.68 745.99 289.14"/><polygon class="cls-50" points="661.47 241.67 671.8 241.84 666.17 245.3 661.47 241.67"/><polygon class="cls-9" points="729.95 290.68 746.89 278.69 759.68 294.02 729.95 290.68"/></g></svg>