<svg id="ILLUSTRATOR" xmlns="http://www.w3.org/2000/svg" viewBox="0 0 900 350"><defs><style>.cls-1,.cls-15{fill:#dddddb;}.cls-1,.cls-11,.cls-12,.cls-14,.cls-19,.cls-2,.cls-28,.cls-29,.cls-3,.cls-30,.cls-31,.cls-32,.cls-33,.cls-34,.cls-35,.cls-36,.cls-37,.cls-38,.cls-39,.cls-4,.cls-40,.cls-41,.cls-42,.cls-43,.cls-44,.cls-45,.cls-46,.cls-47,.cls-48,.cls-49,.cls-5,.cls-50,.cls-51,.cls-52,.cls-53,.cls-54,.cls-55,.cls-56,.cls-6,.cls-7{fill-rule:evenodd;}.cls-16,.cls-2{fill:#ebecea;}.cls-26,.cls-3{fill:#a2a2a3;}.cls-4{fill:#8f8f8f;}.cls-5{fill:#9ca1a1;}.cls-18,.cls-6{fill:#cececd;}.cls-7,.cls-9{fill:#73c6a4;}.cls-11,.cls-8{fill:#53af8a;}.cls-10,.cls-12{fill:#3e8e6f;}.cls-13,.cls-14{fill:#36795d;}.cls-17{fill:#c4c3c3;}.cls-19,.cls-24{opacity:0.1;}.cls-20,.cls-42{fill:#b7c644;}.cls-21{fill:#d8e156;}.cls-22,.cls-34{fill:#6f9c52;}.cls-23{fill:#9fcf7e;}.cls-25,.cls-44{fill:#838585;}.cls-27,.cls-40{fill:#737374;}.cls-28{fill:#474748;}.cls-29{fill:#707274;}.cls-30{fill:#2a2b2a;}.cls-31{fill:#5a753d;}.cls-32{fill:#738d58;}.cls-33{fill:#44612d;}.cls-35{fill:#debca4;}.cls-36{fill:#c3977b;}.cls-37{fill:#8b6752;}.cls-38{fill:#e8cab6;}.cls-39{fill:#fff;}.cls-41{fill:#98c26c;}.cls-43{fill:#4f5253;}.cls-45{fill:#a67e62;}.cls-46{fill:#825941;}.cls-47{fill:#be9a82;}.cls-48{fill:#c9ad9b;}.cls-49{fill:#a17f6e;}.cls-50{fill:#805b4c;}.cls-51{fill:#593e35;}.cls-52{fill:#a98c80;}.cls-53{fill:#f5cab3;}.cls-54{fill:#c1907d;}.cls-55{fill:#fde4d4;}.cls-56{fill:#ffefe8;}</style></defs><title>diplomats_Protagonist_ENFJ_career_path</title><g id="clouds_and_hill" data-name="clouds and hill"><polygon class="cls-1" points="791.67 7 741.67 11 815.33 25.67 885 11 820.67 14.67 791.67 7"/><polygon class="cls-1" points="459.43 132.58 420.44 138.26 454 145.41 469.33 149.5 502 134.67 474.23 139.49 459.43 132.58"/><polygon class="cls-1" points="164.84 93.71 229.11 95.79 160.86 113.95 110.54 111.52 59.4 105.65 92.35 96.05 122.28 90.6 164.84 93.71"/><polygon class="cls-2" points="114.61 216.84 130.44 180.33 190.9 190.89 190.12 218.13 114.61 216.84"/><path class="cls-3" d="M173,231.89l-17.12-21.28,35-19.72L213.48,208s-25.43,18.69-25.95,19.46S173,231.89,173,231.89Z"/><polygon class="cls-4" points="107.6 207.67 116.6 224.97 57.43 232.23 46.36 206.8 56.4 203.51 107.6 207.67"/><polygon class="cls-5" points="114.7 205.25 107.43 212.51 96.88 221.51 119.19 231.54 170.4 220.29 155.87 210.61 114.7 205.25"/><polygon class="cls-3" points="118.85 195.9 95.84 197.63 54.84 203.86 107.43 212.51 155.87 210.61 118.85 195.9"/><polygon class="cls-6" points="155.87 210.61 130.44 180.33 95.84 197.63 155.87 210.61"/><polygon class="cls-2" points="298.24 194.52 332.15 202.82 364.67 207.67 363.29 222.89 278.18 235.35 298.24 194.52"/><polygon class="cls-2" points="229.11 95.79 168.9 85.67 147.88 88.78 118.3 84.63 59.4 105.65 111.3 95.01 153.33 101.24 229.11 95.79"/><polygon class="cls-2" points="418.65 192.79 433.52 189.33 455.67 183.45 504.11 186.91 572.61 183.45 597.87 174.45 623.82 177.57 665.68 174.8 707.2 176.53 719.66 179.99 733.15 190.71 743.53 194.87 745.26 249.19 471.24 236.04 418.65 192.79"/><polygon class="cls-2" points="420.44 138.26 455.17 130 473.99 133.32 502 134.67 473.74 142.7 448.57 139.49 420.44 138.26"/><polygon class="cls-2" points="741.67 11 808.67 0 846.67 7 885 11 826.33 16.33 741.67 11"/></g><g id="grass"><polygon class="cls-7" points="36.5 215.8 9.52 231.37 0.69 266.14 44.81 258.35 36.5 215.8"/><polygon class="cls-8" points="90.3 232.58 96.88 221.51 133.21 226.7 156.04 210.78 213.48 213.55 200.67 240.54 133.55 246.42 90.3 232.58"/><polygon class="cls-9" points="122.48 244.69 127.67 239.15 96.88 221.51 77.16 227.04 50.17 211.82 51.21 253.68 104.83 260.26 122.48 244.69"/><polygon class="cls-10" points="62.62 251.95 90.65 236.73 127.67 239.15 161.58 221.85 200.67 229.81 131.13 266.14 85.11 263.72 62.62 251.95"/><polygon class="cls-7" points="847.33 242.61 841.45 218.74 812.38 199.71 790.93 217.35 847.33 242.61"/><polygon class="cls-11" points="853.21 239.5 852.17 230.5 841.45 218.74 817.57 214.24 811 225.66 853.21 239.5"/><polygon class="cls-11" points="702.36 206.72 705.47 188.81 728.83 197.89 750.11 198.41 762.82 223.06 731.68 232.41 702.36 206.72"/><polygon class="cls-11" points="633.85 201.09 588.31 195.43 627.75 184.14 651.89 188.68 678.49 199.36 643.54 221.16 633.85 201.09"/><polygon class="cls-11" points="622.44 196.59 588.88 195.21 564.31 184.49 561.2 208.71 620.01 227.73 622.44 196.59"/><polygon class="cls-7" points="632.12 228.43 666.03 206.63 630.05 192.1 588.88 195.21 602.02 209.4 632.12 228.43"/><polygon class="cls-11" points="617.59 210.78 631.43 204.55 676.76 217.7 624.17 233.27 617.59 210.78"/><polygon class="cls-12" points="558.77 212.51 571.58 201.09 602.02 209.4 631.43 204.55 629.01 217.35 539.05 233.27 558.77 212.51"/><polygon class="cls-7" points="479.54 205.07 481.27 190.37 536.11 192.27 558.6 202.48 508.26 210.44 479.54 205.07"/><polygon class="cls-7" points="488.93 207.36 481.27 190.37 451.3 199.84 425.87 196.34 419.51 213.72 451.95 221.12 488.93 207.36"/><polygon class="cls-11" points="472.28 220.47 460.51 204.55 481.27 190.37 491.13 199.19 512.07 200.4 545.97 212.86 525.21 233.27 472.28 220.47"/><polygon class="cls-12" points="426.95 251.95 406.19 218.05 460.51 204.55 494.42 219.78 541.47 218.74 491.65 244.69 426.95 251.95"/><polygon class="cls-12" points="689.9 214.5 696.13 194.52 738.69 211.39 769.31 208.01 769.31 224.1 689.9 214.5"/><polygon class="cls-12" points="813.77 217.01 828.3 230.16 852.17 230.5 863.94 246.07 809.96 250.57 797.51 223.58 813.77 217.01"/><polygon class="cls-13" points="213.82 201.78 184.41 232.23 161.92 230.5 115.56 255.41 223.51 248.15 213.82 201.78"/><polygon class="cls-13" points="113.48 261.99 93.42 246.76 75.08 247.8 51.9 241.92 52.94 263.72 113.48 261.99"/><polygon class="cls-14" points="37.02 236.56 0.69 266.14 61.41 270.81 37.02 236.56"/></g><g id="ground"><polygon class="cls-15" points="128.02 322.54 22.49 312.59 0 265.79 316.75 226.7 128.02 322.54"/><polygon class="cls-16" points="503.07 258.87 478.85 232.58 389.15 219.17 278.87 276 398.58 314.92 503.07 258.87"/><polygon class="cls-17" points="356.71 317 241.52 349.75 22.49 312.59 101.11 290.01 370.21 269.25 416.92 305.58 356.71 317"/><polygon class="cls-18" points="644.92 310.77 610.32 341.91 241.52 349.75 411.73 269.6 628.32 265.1 644.92 310.77"/><polygon class="cls-15" points="617.76 246.42 592.85 269.25 411.73 269.6 478.85 232.58 629.79 216.84 617.76 246.42"/><polygon class="cls-16" points="681.6 296.24 592.85 269.25 629.79 216.84 711.73 208.39 790.24 226.35 800.45 272.37 681.6 296.24"/><polygon class="cls-15" points="789.03 288.45 767.4 270.64 592.85 269.25 610.32 341.91 769.39 349.75 789.03 288.45"/><polygon class="cls-18" points="836.21 304.02 767.4 270.64 813.51 230.07 864.28 246.07 899 296.33 836.21 304.02"/><polygon class="cls-17" points="767.4 270.64 769.39 349.75 899 296.33 767.4 270.64"/><polygon class="cls-17" points="368.13 235.52 343.57 219.43 244.61 233.27 299.63 266.14 368.13 235.52"/></g><polygon class="cls-19" points="458.28 286.57 525.05 276.94 599.46 290.23 529.2 300.69 458.28 286.57"/><polygon class="cls-19" points="715.85 304.54 781.59 293.13 845.25 308.35 776.05 319.07 715.85 304.54"/><polygon class="cls-19" points="595.37 282.64 662.14 273 736.55 286.29 666.3 296.76 595.37 282.64"/><polygon class="cls-19" points="41.69 307.14 261.48 340.09 310.79 317.52 365.02 330.49 472.97 313.54 420.72 294.86 137.53 279.46 41.69 307.14"/><polygon class="cls-19" points="0 265.79 5.75 277.85 63.32 289.32 221.09 277.21 193.93 241.92 0 265.79"/><polygon class="cls-19" points="813.51 230.07 864.28 246.07 823.54 244.34 806.67 236.56 748.03 229.03 730.13 220.21 697.43 220.73 659.8 219.69 619.32 231.11 594.67 228.25 559.12 237.08 474.78 247.97 388.37 225.66 421.58 224.07 478.85 232.58 711.73 208.39 813.51 230.07"/><g id="flag"><polygon class="cls-10" points="31.14 36.06 357.06 54.74 361.21 36.06 32.52 18.06 31.14 36.06"/><polygon class="cls-10" points="66.43 11.84 37.43 4.58 22.14 15.3 18.68 272.71 38.75 276.87 47.05 256.11 52.59 21.52 66.43 11.84"/><polygon class="cls-20" points="66.34 17.55 58.82 26.37 81.91 61.66 111.24 29.74 66.34 17.55"/><polygon class="cls-21" points="132.51 20.4 111.24 29.74 139.78 65.55 165.73 32.6 132.51 20.4"/><polygon class="cls-20" points="184.67 25.07 165.73 32.6 195.83 67.89 221.26 35.19 184.67 25.07"/><polygon class="cls-21" points="229.82 27.15 221.26 35.71 243.58 74.11 272.38 38.3 229.82 27.15"/><polygon class="cls-20" points="299.11 29.48 271.6 39.08 301.18 70.22 326.1 41.94 299.11 29.48"/><polygon class="cls-21" points="344.26 33.37 326.1 41.94 347.11 72.82 364.76 38.3 344.26 33.37"/><polygon class="cls-8" points="38.75 276.87 37.43 4.58 370.21 29.83 364.67 247.8 357.75 240.19 357.75 43.67 58.82 26.37 58.04 274.18 38.75 276.87"/></g><g id="podium"><polygon class="cls-10" points="58.04 274.18 162.53 276.36 256.7 272.68 271.87 286.29 254.47 322.19 56.74 302.81 58.04 274.18"/><polygon class="cls-8" points="360.18 270.29 256.7 272.68 253.44 290.27 254.47 322.19 359.57 296.5 360.18 270.29"/><polygon class="cls-9" points="193.75 255.24 58.04 274.18 253.44 290.27 359.83 269.6 193.75 255.24"/><polygon class="cls-22" points="190.64 138.49 191.16 279.11 252.57 284.48 282.23 207.39 249.74 131.74 190.64 138.49"/><polygon class="cls-23" points="315.77 123.43 251.64 132.26 252.57 284.48 317.62 273.06 315.77 123.43"/><polygon class="cls-24" points="315.77 123.43 190.64 155.42 190.99 191.06 252.75 159.11 316.24 147.47 315.77 123.43"/><polygon class="cls-25" points="246.62 76.6 269.79 102.1 265.29 106.98 240.24 84.69 240.36 79.17 246.62 76.6"/><polygon class="cls-26" points="247.35 69.12 251.03 71.69 246.62 76.6 240.24 84.69 236.69 87.39 232.52 84.08 234.6 81.87 237.54 76.11 243.92 72.55 247.35 69.12"/><polygon class="cls-25" points="223.16 66.24 234.93 59.58 244.62 64.6 243.92 72.55 234.6 81.87 231.77 78.48 224.2 77.58 223.16 66.24"/><polygon class="cls-27" points="244.62 64.6 243.92 72.55 234.58 81.92 224.2 77.58 244.62 64.6"/><polygon class="cls-26" points="260.96 81.75 245.39 94.25 250.3 98.42 252.5 104.55 255.2 102.47 265.87 86.9 260.96 81.75"/><polygon class="cls-25" points="253.6 121.11 255.2 102.47 250.3 98.42 248.58 112.16 253.6 121.11"/><polygon class="cls-10" points="173.83 125 177.67 156.75 252.26 146.61 270.89 129.57 248.58 112.16 173.83 125"/><polygon class="cls-8" points="322.67 106.25 248.58 112.16 252.26 146.61 323.24 141.15 322.67 106.25"/><polygon class="cls-22" points="288.78 166.42 266.22 200.87 290.86 228.58 311.34 197.2 288.78 166.42"/></g><polygon class="cls-28" points="350.01 297.11 355.1 303.59 358.32 310.85 354.81 318.13 349.94 318.12 348.25 305.96 350.01 297.11"/><polygon class="cls-29" points="383.26 318.23 362.77 318.23 350.01 297.11 360.1 293.69 383.26 318.23"/><polygon class="cls-28" points="322.5 113.16 309.42 131.03 324.57 151.93 335.38 118.2 322.5 113.16"/><polygon class="cls-30" points="344.9 128.96 312.29 107.25 318.88 100.47 324.53 99.16 342.22 110.28 344.9 128.96"/><polygon class="cls-31" points="389.22 149.36 393.42 147 399.51 146.12 417.26 181.69 401.9 192.67 391.75 192.67 389.22 149.36"/><polygon class="cls-32" points="389.18 149.37 399.51 146.12 381.23 138.47 389.18 149.37"/><polygon class="cls-33" points="385.44 281.28 383.92 292.07 374.22 308.66 350.01 297.11 351.35 238.52 385.44 281.28"/><polygon class="cls-28" points="406.19 293.4 402.41 299.38 406.66 311.68 411.26 311.72 413.18 302.56 410.98 295.75 406.19 293.4"/><polygon class="cls-29" points="425.83 298.84 442.94 312.95 420.73 312.46 406.19 293.4 414.54 291.11 420.44 294.11 425.83 298.84"/><polygon class="cls-1" points="381.23 138.47 362.76 147.31 351.88 141.87 349.7 158.64 350.19 171.24 380.95 174 397.13 160.27 381.23 138.47"/><polygon class="cls-33" points="397.13 160.27 406.51 175.03 394.69 220.28 369.47 228.85 343.84 219.79 346.95 192.27 350.19 171.24 385.4 165.45 397.13 160.27"/><polygon class="cls-34" points="406.51 175.03 346.95 192.27 341.12 173.52 350.19 171.24 385.31 163.31 397.13 160.27 406.51 175.03"/><polygon class="cls-32" points="351.88 141.87 331.37 158.85 344.01 158.69 350.99 157.34 351.88 141.87"/><polygon class="cls-31" points="331.37 158.85 333.05 203.75 345.46 199.51 349.9 191.69 350.19 171.24 350.99 157.34 331.37 158.85"/><polygon class="cls-35" points="406.42 67.55 407.89 75.08 406.85 82.15 408.32 132.76 383.54 135.55 371.71 151.79 345.5 119.67 336.36 112.87 331.13 114.74 324.53 99.16 331.24 93.84 337.89 92.96 340.69 94.97 340.55 101.46 343.91 84.77 351.83 69.79 364.81 60.68 381.02 56.58 396.38 60.21 406.42 67.55"/><polygon class="cls-36" points="351.83 69.79 360.1 80.47 362.99 138.59 378.13 140.68 380.59 151.55 378.25 164.85 351.89 141.85 344.9 128.96 342.41 121.23 339.47 118.95 340.55 101.46 342.23 93.11 344.91 89.22 345.13 82.45 351.83 69.79"/><polygon class="cls-36" points="382.04 103.46 370.79 85.7 360.1 80.47 373.03 77.78 378.08 77.86 382.04 103.46"/><polygon class="cls-36" points="385.39 77.09 390.17 76.28 402.36 77.66 393.52 82.84 387.9 92.57 385.39 77.09"/><polygon class="cls-37" points="389.55 102.73 385.92 107.02 382.04 103.46 389.55 102.73"/><polygon class="cls-28" points="390.17 76.28 396.76 73.69 402.36 77.66 390.17 76.28"/><polygon class="cls-28" points="373.03 77.78 366.41 75.93 360.1 80.47 373.03 77.78"/><polygon class="cls-38" points="378.08 77.86 382.04 103.46 389.55 102.73 385.39 77.09 378.08 77.86"/><polygon class="cls-33" points="365.61 114.56 386.31 110.09 399.23 113.5 384.92 116.69 365.61 114.56"/><polygon class="cls-32" points="365.61 114.56 387.15 126.6 399.23 113.5 384.92 116.69 365.61 114.56"/><polygon class="cls-39" points="369.75 115.02 382.91 121.39 389.96 121.06 396.04 114.22 385.07 115.9 369.75 115.02"/><polygon class="cls-37" points="328.89 100.83 335.9 97.92 338.28 106.95 328.89 100.83"/><polygon class="cls-30" points="337.89 92.96 338.98 89.72 344.91 89.22 340.55 101.46 337.89 92.96"/><polygon class="cls-28" points="312.29 107.25 316.05 85.59 333.06 75.23 351.83 69.79 344.91 89.22 337.89 92.96 324.53 99.16 312.29 107.25"/><polygon class="cls-30" points="411.67 69.98 406.85 82.15 406.42 67.55 411.67 69.98"/><polygon class="cls-28" points="370.13 29.7 414.8 59.8 411.67 69.98 406.42 67.55 381.02 56.58 373.89 47 370.13 29.7"/><polygon class="cls-40" points="316.05 85.59 320.86 59.27 370.13 29.7 381.02 56.58 351.83 69.79 316.05 85.59"/><polygon class="cls-37" points="383.54 135.55 356.14 137.56 380.59 151.55 383.54 135.55"/><polygon class="cls-37" points="343.35 116.1 344.9 128.96 339.47 118.95 343.35 116.1"/><polygon class="cls-32" points="394.69 220.28 392.95 278.35 351.35 242.41 343.84 219.79 394.69 220.28"/><polygon class="cls-34" points="394.69 220.28 402.44 253.13 420.44 294.11 374.22 308.66 351.35 242.41 394.69 220.28"/><polygon class="cls-14" points="334.8 109.83 339.47 118.95 343.35 116.1 340.19 107.3 334.8 109.83"/><path class="cls-30" d="M373.21,88.17a3.08,3.08,0,1,1-2.47-3.58A3.08,3.08,0,0,1,373.21,88.17Z"/><path class="cls-30" d="M398.27,85.56A3.08,3.08,0,1,1,395.8,82,3.07,3.07,0,0,1,398.27,85.56Z"/><polygon class="cls-41" points="351.35 242.41 420.44 294.11 394.69 220.28 351.35 242.41"/><polygon class="cls-36" points="373.95 202.13 382.97 207.22 390.29 200.13 388.73 196.6 373.95 202.13"/><polygon class="cls-1" points="385.08 170.13 437.82 165.21 421.58 224.07 372.15 231.76 385.08 170.13"/><polygon class="cls-41" points="349.9 191.69 373.95 202.13 368.71 215 333.05 203.75 349.9 191.69"/><polygon class="cls-35" points="373.95 202.13 390.06 204.22 391.46 214.91 384.29 220.69 368.71 215 373.95 202.13"/><polygon class="cls-36" points="390.06 204.22 402.32 209.84 396.67 220.47 384.29 220.69 390.06 204.22"/><polygon class="cls-35" points="428.94 188.69 427.39 202.88 434.13 189.3 433.9 179.13 428.94 188.69"/><polygon class="cls-36" points="421.06 183.94 433.9 179.13 427.39 202.88 420.55 192.76 421.06 183.94"/><polygon class="cls-42" points="422.02 171.51 424.01 164.42 400.78 165.97 399.44 173.24 422.02 171.51"/><g id="character_3" data-name="character 3"><polygon class="cls-33" points="764.72 293.69 751.29 299.03 751.36 304.02 775.71 304.76 785.31 299.22 778.39 291.44 764.72 293.69"/><polygon class="cls-31" points="773.98 275.48 769.91 283.05 751.29 299.03 792.36 299.48 791.62 278.77 773.98 275.48"/><polygon class="cls-31" points="790.15 298.45 775.71 304.76 775.62 309.86 806.7 309.86 806.67 304.67 790.15 298.45"/><polygon class="cls-34" points="794.3 276.87 784.96 287.42 775.71 304.76 806.67 304.67 806.07 286.94 794.3 276.87"/><polygon class="cls-28" points="765.37 255.69 764.27 261.79 769.91 283.05 784.96 287.42 793.53 255.69 765.37 255.69"/><polygon class="cls-43" points="777.18 229.55 754.71 219.44 764.27 261.79 781.46 262.96 798.98 245.38 777.18 229.55"/><polygon class="cls-43" points="800.92 255.18 781.46 262.96 784.96 287.42 806.07 286.94 809.57 261.06 800.92 255.18"/><polygon class="cls-29" points="783.15 209.83 777.29 242.03 781.46 262.96 809.57 261.06 814.83 220.44 783.15 209.83"/><polygon class="cls-29" points="766.54 80.6 745.78 85.53 748.37 63.99 751.49 42.63 774.06 42.19 777.96 45.77 792.18 41.84 805.12 41.59 802.09 70.48 808.84 90.46 782.63 107.59 766.54 80.6"/><polygon class="cls-44" points="769.52 75.15 774.06 42.2 792.18 41.85 778.09 72.56 769.52 75.15"/><polygon class="cls-44" points="765.5 78.96 756.42 75.15 751.49 42.63 730.73 66.85 741.45 71.87 759.45 89.68 765.5 78.96"/><polygon class="cls-43" points="786.09 75.15 793.35 64.77 805.12 41.59 821.21 69.79 792.49 87.44 786.09 75.15"/><polygon class="cls-28" points="792.49 82.42 800.45 76.19 821.21 69.79 817.08 89.94 790.24 110.96 744.57 97.99 730.73 66.85 741.45 71.87 761.7 81.38 792.49 82.42"/><polygon class="cls-45" points="742.66 177.09 733.2 191.78 754.71 219.44 767.58 183.06 742.66 177.09"/><polygon class="cls-14" points="806.19 167.62 819.3 149.11 826.05 150.75 840.23 197.76 811.92 194.53 806.19 167.62"/><polygon class="cls-14" points="764.67 163.63 753.22 150.32 750.55 151.18 733.2 191.78 770.32 197.51 764.67 163.63"/><polygon class="cls-28" points="767.99 202.5 754.71 219.44 777.29 242.03 800.01 220.21 767.99 202.5"/><polygon class="cls-12" points="765.67 162.3 751.88 182.73 754.71 219.44 814.83 220.44 817.01 183.62 765.67 162.3"/><polygon class="cls-11" points="771.31 144.2 753.22 150.32 751.88 182.73 817.01 183.62 819.3 149.11 806.23 145.84 771.31 144.2"/><polygon class="cls-2" points="768.66 138.88 761.47 147.5 759.27 167.01 775.3 155.82 799.58 168.92 811.74 147.19 806.69 138.72 768.66 138.88"/><polygon class="cls-45" points="782 142.47 793.74 145.86 806.69 138.72 813.23 106.69 810.49 104.35 814.15 102.27 817.08 89.94 805.21 88.08 803.79 95.48 800.42 95.26 800.45 76.19 793.35 64.77 762.7 111.05 782 142.47"/><polygon class="cls-46" points="761.68 131.24 775.04 156.16 793.74 145.86 799.5 135.74 792.77 135.51 767.63 125.64 761.68 131.24"/><polygon class="cls-47" points="741.45 71.87 741.61 135.29 792.77 135.51 793.35 64.77 756.42 75.15 741.45 71.87"/><polygon class="cls-45" points="754.14 88.16 747.66 89.61 754.14 96.06 761.49 106.47 766.32 100.83 769.86 106.36 777.7 96.75 783.95 89.76 775.02 86.98 769.7 89.54 769.22 92.19 764.17 97.99 761.81 92.3 761.12 89.54 754.14 88.16"/><polygon class="cls-46" points="766.21 102.28 761.49 106.47 765.57 110.44 769.86 106.36 766.21 102.28"/><polygon class="cls-48" points="761.81 92.3 761.49 106.47 769.86 106.36 769.22 92.19 761.81 92.3"/><path class="cls-30" d="M755.75,96.66a3.33,3.33,0,1,1-3.33-3.32A3.33,3.33,0,0,1,755.75,96.66Z"/><path class="cls-30" d="M782.66,96.52a3.33,3.33,0,1,1-3.33-3.33A3.33,3.33,0,0,1,782.66,96.52Z"/><polygon class="cls-43" points="770.43 84.06 769.7 89.54 783.95 89.76 770.43 84.06"/><polygon class="cls-43" points="761.12 89.54 760.74 84.41 747.66 89.61 761.12 89.54"/><polygon class="cls-46" points="805.98 101.26 814.15 102.27 813.18 106.68 805.98 101.26"/><polygon class="cls-46" points="812.33 92.68 809.08 92.12 808.07 97.33 812.33 92.68"/><polygon class="cls-46" points="753.13 115.31 780.21 114.88 766.15 128.87 753.13 115.31"/><polygon class="cls-45" points="816.36 194.13 840.23 197.76 813.51 230.07 800.01 220.21 816.36 194.13"/><polygon class="cls-39" points="757.69 117.21 774.95 116.76 766 125.39 757.69 117.21"/></g><g id="character_2" data-name="character 2"><polygon class="cls-33" points="691.71 143.78 707.58 121.51 722.19 158.07 696.52 173.02 691.71 143.78"/><polygon class="cls-33" points="630.59 153.09 648.87 122.94 663.45 156.45 642.38 169.36 630.59 153.09"/><polygon class="cls-34" points="626.52 120.7 618.46 131.49 620.45 165.13 642.38 169.36 634.24 133.4 626.52 120.7"/><polygon class="cls-49" points="626.18 111.4 619.79 114.3 618.46 131.49 634.24 133.4 637.81 119.04 626.18 111.4"/><polygon class="cls-43" points="701.34 90.47 705.33 79.5 722.27 84.82 713.3 118.7 701.34 90.47"/><polygon class="cls-28" points="635.24 75.85 614.81 56.67 627.26 45.12 628.51 27.27 683.4 41.8 692.68 118 635.24 75.85"/><polygon class="cls-43" points="644.04 57.58 634.59 43.71 628.51 27.27 614.81 56.67 627.57 58 644.04 57.58"/><polygon class="cls-43" points="672.36 65.39 683.16 58.26 628.51 27.27 692.79 25.03 716.95 63.89 679.33 74.36 672.36 65.39"/><polygon class="cls-28" points="679.09 89.06 683.16 58.26 716.95 63.89 692.68 118 679.09 89.06"/><polygon class="cls-12" points="683.22 280.08 677.9 284.2 677.9 287.68 701.86 287.75 701.8 284.37 683.22 280.08"/><polygon class="cls-12" points="639.26 276.36 626.1 280.34 626.1 284.5 655.93 284.63 656.06 280.69 639.26 276.36"/><polygon class="cls-11" points="648.79 261.47 640.47 269.09 626.1 280.34 656.06 280.69 656.32 269.61 648.79 261.47"/><polygon class="cls-50" points="660.21 227.53 643.94 248.13 640.47 269.09 656.32 269.61 661.73 255.15 660.21 227.53"/><polygon class="cls-51" points="660.21 227.53 643.94 248.13 661.73 255.15 669.05 234.89 660.21 227.53"/><polygon class="cls-11" points="689.39 265.54 684.98 272.03 677.9 284.2 701.8 284.37 700.56 272.29 689.39 265.54"/><polygon class="cls-50" points="693.55 230.73 705.24 246.58 700.56 272.29 684.98 272.03 684.98 255.8 693.55 230.73"/><polygon class="cls-51" points="693.55 230.73 705.24 246.58 684.98 255.8 684.72 232.29 693.55 230.73"/><polygon class="cls-43" points="666.79 179.04 651.73 188.65 643.94 248.13 705.24 246.58 711.73 208.39 666.79 179.04"/><polyline class="cls-29" points="670.6 167.27 651.73 188.65 711.73 208.39 706.02 188.65 668.87 166.57"/><polygon class="cls-31" points="664.98 136.7 643.48 156.78 651.73 188.65 706.02 188.65 706.99 156.91 664.98 136.7"/><polygon class="cls-34" points="664.37 119.3 648.87 122.94 643.48 156.78 706.99 156.91 707.58 121.51 692.68 118 664.37 119.3"/><polygon class="cls-2" points="664.37 119.3 660.77 120.45 654.42 135.02 692.16 134.9 692.68 118 664.37 119.3"/><polygon class="cls-50" points="667.31 116.18 683.16 125.01 692.68 118 696.11 92.85 695.37 89.48 696.76 88.49 698.48 75.92 690.3 74.1 688.42 78.97 686.54 78.78 683.16 58.26 659.26 107.35 667.31 116.18"/><polygon class="cls-51" points="651.73 107.87 670.24 135.02 683.16 125.01 686.36 112.63 680.56 112.03 651.73 107.87"/><polygon class="cls-49" points="627.57 58 630.95 111.25 680.56 112.03 683.16 58.26 634.59 43.71 627.57 58"/><polygon class="cls-50" points="640.3 67.74 632.78 69.22 642.25 75.83 649.66 87.75 652.34 84.28 656.83 87.66 664.5 75.75 673.79 69.3 664.2 68 658.72 68.97 656.99 73.01 653.37 78.73 649.42 72.68 645.63 68.64 640.3 67.74"/><polygon class="cls-51" points="654.19 83.63 649.66 87.75 653.86 91.12 656.83 87.66 654.19 83.63"/><polygon class="cls-52" points="649.42 72.68 649.66 87.75 656.83 87.66 656.99 73.01 649.42 72.68"/><path class="cls-30" d="M644.13,75.13A3.09,3.09,0,1,1,641,72,3.1,3.1,0,0,1,644.13,75.13Z"/><path class="cls-30" d="M668.17,75.13A3.09,3.09,0,1,1,665.08,72,3.09,3.09,0,0,1,668.17,75.13Z"/><polygon class="cls-30" points="632.78 69.22 645.63 68.64 640.36 65.19 632.78 69.22"/><polygon class="cls-30" points="658.72 68.97 663.99 65.51 673.79 69.3 658.72 68.97"/><polygon class="cls-34" points="642.34 95.9 653.86 93.26 666.79 96.06 659.22 105.53 649.17 105.45 642.34 95.9"/><polygon class="cls-39" points="645.27 96.56 663.46 96.99 660.74 100.39 647.71 100.2 645.27 96.56"/><polygon class="cls-51" points="690.11 87.61 696.76 88.49 696.11 92.85 690.11 87.61"/><polygon class="cls-51" points="695.77 78.91 692.59 78 692.14 83.13 695.77 78.91"/><polygon class="cls-50" points="630.25 101.51 643.21 111.48 637.81 119.04 619.79 114.3 630.25 101.51"/><polygon class="cls-50" points="676.97 174.39 669.87 168.53 659.15 179.25 665.88 187.47 676.22 185.85 676.97 174.39"/><polygon class="cls-49" points="692.71 176.01 686.25 169.72 669.87 168.53 676.22 185.85 690.05 184.81 692.71 176.01"/><polygon class="cls-34" points="686.25 169.72 722.19 158.07 719.28 179.49 690.05 184.81 686.25 169.72"/></g><g id="character_1" data-name="character 1"><polygon class="cls-53" points="567.9 151.04 597.96 174.63 572.22 201.53 567.9 151.04"/><polygon class="cls-53" points="500.05 158.18 490.58 172.88 512.09 200.54 524.97 164.16 500.05 158.18"/><polygon class="cls-14" points="563.58 148.72 579.53 130.78 597.96 174.63 569.31 175.62 563.58 148.72"/><polygon class="cls-14" points="522.06 144.73 507.94 132.27 490.58 172.88 527.71 178.61 522.06 144.73"/><polygon class="cls-12" points="507.4 273.66 486.85 280.01 486.72 286.24 531.94 286.82 531.94 280.76 507.4 273.66"/><polygon class="cls-11" points="517.62 255.85 506.94 265.81 486.85 280.01 531.94 280.76 532.36 270.3 517.62 255.85"/><polygon class="cls-12" points="551.96 279.76 534.39 286.08 534.47 291.14 565.91 291.14 566.24 286.08 551.96 279.76"/><polygon class="cls-11" points="550.63 254.85 540.66 270.55 534.39 286.08 566.24 286.08 564.7 271.05 550.63 254.85"/><polygon class="cls-28" points="522.97 232.43 509.27 240.4 506.94 265.81 532.36 270.3 537.75 246.21 522.97 232.43"/><polygon class="cls-43" points="522.97 188.75 512.09 200.54 509.27 240.4 537.75 246.21 549.38 217.15 522.97 188.75"/><polygon class="cls-43" points="557.11 225.2 567.69 245.13 564.7 271.05 540.66 270.55 537.75 246.21 557.11 225.2"/><polygon class="cls-29" points="539.91 208.01 534.68 223.13 537.75 246.21 567.69 245.13 572.22 201.53 539.91 208.01"/><polygon class="cls-28" points="525.38 183.6 512.09 200.54 534.68 223.13 572.22 201.53 525.38 183.6"/><polygon class="cls-12" points="523.06 143.4 509.27 163.83 512.09 200.54 572.22 201.53 576.21 164.66 523.06 143.4"/><polygon class="cls-11" points="528.7 125.3 507.94 132.27 509.27 163.83 576.21 164.66 579.53 130.78 563.62 126.93 528.7 125.3"/><polygon class="cls-2" points="526.04 119.98 518.86 128.6 516.74 148.59 532.69 136.92 554.61 150.71 569.13 128.29 564.08 119.82 526.04 119.98"/><polygon class="cls-28" points="508.19 42.71 485.75 56.02 504.75 81.91 508.19 42.71"/><polygon class="cls-43" points="529.74 54.38 498.32 58.94 485.75 56.02 506.1 29.39 539.61 44.21 529.74 54.38"/><polygon class="cls-29" points="544.1 37.92 524.35 41.21 506.1 29.39 556.37 28.8 544.1 37.92"/><polygon class="cls-43" points="527.64 55.28 524.35 41.21 556.37 28.8 574.39 56.02 554.42 72.48 527.64 55.28"/><polygon class="cls-28" points="554.72 71.88 556.29 62.53 574.39 56.02 570.65 74.7 558.31 86.99 554.72 71.88"/><polygon class="cls-53" points="539.39 123.57 551.13 126.96 564.08 119.82 568.35 91.82 567.41 89.85 568.95 87.3 570.65 74.7 562.13 73.58 560.7 80.99 557.34 80.76 556.29 62.53 549.93 57.82 520.09 92.15 539.39 123.57"/><polygon class="cls-54" points="519.07 112.34 532.43 137.26 551.13 126.96 556.89 116.84 550.16 116.61 525.02 106.74 519.07 112.34"/><polygon class="cls-55" points="498.32 58.94 498.99 116.39 550.16 116.61 549.93 57.82 524.35 41.21 498.32 58.94"/><polygon class="cls-53" points="511.52 69.63 505.05 71.08 511.52 77.52 518.88 87.94 523.71 82.3 527.25 87.83 535.09 78.22 541.34 71.22 532.41 68.45 527.09 71.01 526.61 73.66 521.56 79.45 519.2 73.76 518.5 71.01 511.52 69.63"/><polygon class="cls-54" points="523.6 83.75 518.88 87.94 522.96 91.91 527.25 87.83 523.6 83.75"/><polygon class="cls-56" points="519.2 73.76 518.88 87.94 527.25 87.83 526.61 73.66 519.2 73.76"/><path class="cls-30" d="M513.14,78.13a3.33,3.33,0,1,1-3.33-3.33A3.33,3.33,0,0,1,513.14,78.13Z"/><path class="cls-30" d="M540.05,78a3.33,3.33,0,1,1-3.33-3.33A3.34,3.34,0,0,1,540.05,78Z"/><polygon class="cls-54" points="510.88 96.42 536.86 96.42 530.96 106.4 517 106.29 510.88 96.42"/><polygon class="cls-39" points="514.91 98.22 532.71 98.35 530.99 101.68 516.84 101.46 514.91 98.22"/><polygon class="cls-43" points="532.03 66.57 527.09 71.01 541.34 71.22 532.03 66.57"/><polygon class="cls-43" points="518.5 71.01 513.06 66.64 505.05 71.08 518.5 71.01"/><polygon class="cls-54" points="562.89 86.77 568.95 87.3 568.3 91.82 562.89 86.77"/><polygon class="cls-54" points="567.77 78.18 564.52 77.62 563.51 82.84 567.77 78.18"/></g></svg>