<svg id="ILLUSTRATION" xmlns="http://www.w3.org/2000/svg" viewBox="0 0 900 350"><defs><style>.cls-1,.cls-33{fill:#dcdcdb;}.cls-10,.cls-2{fill:#ebebea;}.cls-17,.cls-3{fill:#35785d;}.cls-30,.cls-4{fill:#5a753d;}.cls-14,.cls-5{fill:#709c53;}.cls-15,.cls-6{fill:#3f8e6f;}.cls-18,.cls-7{fill:#72c8a5;}.cls-16,.cls-8{fill:#54af8a;}.cls-11,.cls-29,.cls-45,.cls-9{fill:#2b2b2b;}.cls-11,.cls-9{opacity:0.1;}.cls-10,.cls-11,.cls-12,.cls-13,.cls-14,.cls-15,.cls-16,.cls-17,.cls-18,.cls-20,.cls-21,.cls-22,.cls-23,.cls-24,.cls-25,.cls-26,.cls-27,.cls-28,.cls-29,.cls-30,.cls-31,.cls-32,.cls-33,.cls-34,.cls-35,.cls-36,.cls-37,.cls-38,.cls-39,.cls-40,.cls-41,.cls-42,.cls-43,.cls-44{fill-rule:evenodd;}.cls-12{fill:#beda8d;}.cls-13{fill:#98c16d;}.cls-19,.cls-31{fill:#738c57;}.cls-20{fill:#d8e254;}.cls-21{fill:#b7c645;}.cls-22{fill:#8e8e8e;}.cls-23{fill:#a2a2a2;}.cls-24{fill:#737373;}.cls-25{fill:#cdcdcc;}.cls-26{fill:#e7ef78;}.cls-27{fill:#474747;}.cls-28{fill:#6f7173;}.cls-32{fill:#446125;}.cls-34{fill:#debca4;}.cls-35{fill:#c2977b;}.cls-36{fill:#8a6651;}.cls-37{fill:#e7c9b5;}.cls-38{fill:#fff;}.cls-39{fill:#fce3d4;}.cls-40{fill:#f4c9b2;}.cls-41{fill:#4f5253;}.cls-42{fill:#848585;}.cls-43{fill:#c1907d;}.cls-44{fill:#ffefe7;}</style></defs><title>diplomats_Protagonist_ENFJ_romantic_relationships</title><g id="clouds"><polygon class="cls-1" points="214.6 22.18 190.06 23.09 217.09 39.67 247.76 33.31 265.25 33.53 300 26.72 254.34 19.68 224.14 26.95 214.6 22.18"/><polygon class="cls-1" points="486.83 32.83 417.83 39.83 487.83 62.83 528.83 59.83 589.83 67.83 668.83 41.33 534.33 47.33 486.83 32.83"/><polygon class="cls-2" points="417.83 39.83 497.33 24.33 557.33 35.33 614.83 29.83 668.83 41.33 574.83 56.83 487.33 39.33 417.83 39.83"/><polygon class="cls-2" points="300 26.72 258.66 14 236.4 20.13 219.37 15.59 190.06 23.09 228.68 31.72 248.67 24.68 300 26.72"/></g><g id="tree"><polygon class="cls-3" points="571.17 132.33 581 134.25 562 155.83 538.5 156.83 543.67 138.5 571.17 132.33"/><polygon class="cls-4" points="532.83 179.67 530 184 529.67 201.5 542.5 202.83 541.67 198 535.75 184.25 532.83 179.67"/><polygon class="cls-4" points="531.83 173 512 155.5 514.83 150.33 531.67 167 531.83 173"/><polygon class="cls-5" points="549.75 144.25 529 149 530 184 535.75 184.25 541 150.75 549.75 144.25"/><polygon class="cls-4" points="551 141.75 547.25 149.75 535.75 184.25 539 146.33 551 141.75"/><polygon class="cls-3" points="501.25 127.25 481.5 131.25 512 155.5 547.25 149.75 501.25 127.25"/><polygon class="cls-6" points="518.5 128.25 511.25 143 547.25 149.75 581 134.25 585 118 518.5 128.25"/><polygon class="cls-7" points="548.75 119 548.5 130.5 511.25 143 481.5 131.25 492 120.5 531.25 113.25 548.75 119"/><polygon class="cls-8" points="523.5 109.75 526 121.5 548.5 130.5 585 118 568.75 99.75 523.5 109.75"/><polygon class="cls-6" points="524 96.75 499.33 108.67 492 120.5 526 121.5 568.75 99.75 524 96.75"/><polygon class="cls-9" points="477.42 220.58 514.58 207.08 553.58 220.58 512.58 231.58 477.42 220.58"/><polygon class="cls-7" points="568.75 99.75 526.67 90 499.33 108.67 568.75 99.75"/></g><g id="land"><polygon class="cls-10" points="89.5 281 22.5 270 0.5 248.5 109.61 212.59 618 212.75 834.5 217 882.33 242.67 900.08 295 859.94 312.69 89.5 281"/></g><g id="grass"><polygon class="cls-11" points="461.5 204 410.5 216 435.58 221.26 482.5 227 538.5 219 585 227 627.75 224 620 204 461.5 204"/><polygon class="cls-11" points="50.5 227 60.25 239 95.5 227.5 135.5 221.5 171 224 226 221.5 266 225 313.5 222 333.42 213.33 311.5 208.5 90 206.5 50.5 227"/><polygon class="cls-12" points="244.5 193 195.83 199 161.5 194 117.17 197.83 93.5 194.33 65.33 213.5 169 207.83 246.33 207 244.5 193"/><path class="cls-13" d="M251.33,197l-32.66,6.67-22.67-9-20.33,4.66-8,8.34L124.33,201l-50,8-34.66,2-30,34.33L62,221l42-6,28.75-2.25s61.25-5.42,62.92-5.08,30.08,4.83,30.08,4.83l41.92,5.83,8-18Z"/><polygon class="cls-12" points="420.88 213.75 412 202.75 441.88 200.38 468 186.38 494.13 199.33 499.67 204.5 518.25 187.88 541.75 198 573.38 189.13 592.67 204.75 597.25 192.5 610.88 178.88 635.75 177.5 630.5 200.5 560.25 211 550.94 212.81 544.17 212.83 465.75 208 457.25 212.25 420.88 213.75"/><path class="cls-13" d="M451.88,212.62l-18-4.5L449,206l12.77-.47,10.65-10.86,21.46,4.58s23.24-3.87,24.24-3.37,26,17,26,17l-20.67,1-9.33-1Z"/><polygon class="cls-13" points="632.88 187.75 612.88 187.63 597.25 192.5 573.38 189.13 550.94 212.81 573.88 212.38 624.17 209.5 632.88 187.75"/><polygon class="cls-12" points="861.25 225.25 859.25 218.5 851.25 203 841.5 203 824.75 195.25 828.75 218.5 861.25 225.25"/><polygon class="cls-13" points="841 216.5 845 208.5 859.25 218.5 871 219.5 882 242.25 870.75 240 841 216.5"/><polygon class="cls-14" points="825 209.5 845 208.5 855.5 224.5 864.75 228 870.75 240 846 228.75 827.25 231.75 825 209.5"/><polygon class="cls-14" points="624.25 206.5 607.75 201.25 589.5 208 550.94 212.81 578 216 595 221.33 614.67 219.67 627.75 224 624.25 206.5"/><polygon class="cls-14" points="514.17 212.83 479.75 218.75 458.5 217.75 438.5 216.75 408.5 220.75 435.31 206.56 453.83 211.33 474 203.67 486.67 208.67 514.17 212.83"/><polygon class="cls-14" points="225.75 212.5 210.5 216 190.5 213 156.25 217.5 132.75 212.75 156.75 206.17 178 198.67 195.75 200.92 209 206.42 225.75 212.5"/><polygon class="cls-14" points="115.5 214.13 94 212.33 66 204 33 232.67 9.67 245.33 60.25 239 67.5 227.25 87 226.25 115.5 214.13"/><polygon class="cls-14" points="267.33 209.67 289.67 196.33 310 204.33 335.67 210.33 302.33 215.67 267.33 209.67"/></g><g id="house"><polygon class="cls-11" points="634 227.5 566 235.75 740 262.25 882 242.25 846 228.75 835 230.38 634 227.5"/><polygon class="cls-15" points="697.5 206.5 737 249.13 835.5 239.75 835 216.5 697.5 206.5"/><polygon class="cls-16" points="642 189.5 617.83 212.67 617.67 235.67 650.44 239.44 666.67 231.5 681.17 242.92 737 249.13 736.67 226.33 642 189.5"/><polygon class="cls-16" points="673 184 736.67 226.33 835 216.5 834.5 140.5 668.5 154.5 673 184"/><polygon class="cls-17" points="598 156 593.67 166.67 629 165.33 687.67 113.33 659.33 79.67 598 156"/><polygon class="cls-18" points="686.33 81.67 617.83 158.5 617.83 212.67 736.67 226.33 736.67 170.33 686.33 81.67"/><polygon class="cls-17" points="831.67 150.67 870.74 168.26 860.17 179 715 187.5 726.33 155.33 831.67 150.67"/><polygon class="cls-15" points="696.33 86 663.08 70.1 587.25 159.25 593.67 166.67 660.5 91.75 715 187.5 723.08 175.09 696.33 86"/><polygon class="cls-16" points="675.33 90.67 749.63 76.17 828.75 108.75 844.67 131.67 777.64 155.6 707 146.33 675.33 90.67"/><polygon class="cls-16" points="707 146.33 844.67 131.67 870.74 168.26 723.08 175.09 707 146.33"/><polygon class="cls-18" points="663.08 70.1 802.33 73.33 828.75 108.75 674.67 90.33 663.08 70.1"/><polygon class="cls-16" points="651.67 188.75 650.44 239.44 654.06 239.81 670.25 227.83 677.19 242.5 681.17 242.92 682 191.5 651.67 188.75"/><polygon class="cls-15" points="655.38 193.75 654.06 239.81 677.19 242.5 677.75 195.31 655.38 193.75"/><ellipse class="cls-8" cx="672.15" cy="220.2" rx="2.78" ry="3.86"/><polygon class="cls-16" points="776.67 190.17 777.5 216.33 804 214.33 803.33 186.83 776.67 190.17"/><polygon class="cls-15" points="780.5 194.17 798.67 191.5 799.5 209.67 781.17 211.83 780.5 194.17"/><polygon class="cls-16" points="789.06 190.75 789.75 212.19 792.63 211.81 791.69 190.94 789.06 190.75"/><polygon class="cls-16" points="779.13 202.31 801 198.81 801.06 202.25 779.69 205 779.13 202.31"/><polygon class="cls-16" points="655.63 143.25 680.38 144.25 679.88 162.38 655.13 160.5 655.63 143.25"/><polygon class="cls-15" points="659.42 146.75 659 157.71 675.75 158.54 676.33 147.54 659.42 146.75"/><polygon class="cls-16" points="658.08 150.71 677.33 151.92 677.33 154 657.71 153.04 658.08 150.71"/><polygon class="cls-16" points="666.38 146.08 665.79 159.21 668.58 159.17 668.58 146.25 666.38 146.08"/></g><g id="tree-2" data-name="tree"><polygon class="cls-9" points="93.07 236.5 137.02 228.79 184.58 236.5 137.02 243.81 93.07 236.5"/><polygon class="cls-4" points="127.11 238.9 126.66 204.94 137.22 196.51 140.73 202.16 145.64 239.23 127.11 238.9"/><polygon class="cls-5" points="130.82 171.14 126.66 204.94 140.73 202.16 144.47 189.37 139.88 180.85 139.24 171.35 134.23 167.3 130.82 171.14"/><polygon class="cls-4" points="153.53 166.99 139.88 180.85 140.73 202.16 155.45 174.87 156.83 167.3 153.53 166.99"/><polygon class="cls-5" points="155.23 139.05 153.53 166.99 155.45 174.87 159.82 168.05 158.22 138.41 155.23 139.05"/><polygon class="cls-19" points="147.34 137.67 139.24 171.35 134.23 167.3 143.61 137.56 147.34 137.67"/><polygon class="cls-19" points="117.71 140.54 134.23 167.3 130.82 171.14 116.11 141.4 117.71 140.54"/><polygon class="cls-3" points="123.61 157.04 177.33 145.83 183.06 135.32 172.29 129.46 152.14 120.39 90.86 141.42 123.61 157.04"/><polygon class="cls-6" points="177.33 145.83 199.1 133.11 196.17 116.98 184.66 106.86 172.61 120.61 169.83 132.08 177.33 145.83"/><polygon class="cls-8" points="90.86 141.42 169.83 132.08 184.66 106.86 141.59 108.03 88.82 120.82 90.86 141.42"/><polygon class="cls-8" points="69.31 95.23 88.82 120.82 97.03 98.97 92.44 88.52 87.22 83.83 69.31 95.23"/><polygon class="cls-6" points="95.53 71.04 69.31 95.23 92.44 88.52 100.12 80.21 95.53 71.04"/><polygon class="cls-7" points="131.25 102.81 92.44 88.52 95.53 71.04 164.19 68.16 191.16 85.22 145.53 106.33 131.25 102.81"/><polygon class="cls-6" points="88.92 120.93 92.44 88.52 134.98 100.57 159.39 107.61 88.92 120.93"/><polygon class="cls-6" points="184.66 106.86 195.32 98.86 191.16 85.22 136.79 101.1 141.59 108.03 159.39 107.61 184.66 106.86"/><polygon class="cls-6" points="152.67 53.45 95.53 71.04 191.16 85.22 183.8 66.67 152.67 53.45"/><polygon class="cls-8" points="220.37 99.93 202.89 81.16 191.16 85.22 184.66 106.86 199.1 133.11 220.37 99.93"/><polygon class="cls-7" points="195 61.87 152.67 53.45 191.16 85.22 220.37 99.93 195 61.87"/></g><g id="grass-2" data-name="grass"><polygon class="cls-11" points="832.83 268.33 846.67 265.17 860.17 269.5 847.5 272.83 832.83 268.33"/><polygon class="cls-11" points="184.13 234.38 196.38 231 208.13 235.25 195 238.25 184.13 234.38"/><polygon class="cls-11" points="526.08 229.9 538.66 227.01 550.22 232.37 536.6 233.4 526.08 229.9"/><polygon class="cls-11" points="658.42 277.11 673.06 273.95 687.28 279.22 670.95 280.27 658.42 277.11"/><polygon class="cls-14" points="659.13 262.09 668.15 277.04 675.93 277.41 689.52 261.97 677.04 270.99 681.37 256.53 674.2 268.39 669.88 254.55 669.13 268.89 659.13 262.09"/><polygon class="cls-14" points="530 221.44 533.71 230.1 543.41 230.51 550.42 218.96 542.17 225.77 540.73 215.25 537.84 223.29 532.27 213.6 534.12 224.12 530 221.44"/><polygon class="cls-14" points="189.63 234.75 199.75 234.5 207.38 223.38 200.25 228.63 200.38 216.38 197 230 190.63 218.75 191.63 229.13 183.5 223.25 189.63 234.75"/><polygon class="cls-14" points="834.83 257.5 840 268.33 851.67 268.17 857.5 255.67 849.67 261.67 847.67 252.17 846 261.83 839 251.33 840.67 261.83 834.83 257.5"/></g><g id="pool"><polygon class="cls-20" points="221 309 136.88 323.38 73 309 56.67 297.17 120 259 204.67 270.33 221 309"/><polygon class="cls-20" points="404.5 310.5 495.5 342.5 618 333 763.67 350 798.75 337 757.92 286.42 667.5 298.75 568.33 268.83 532.33 260.67 404.5 310.5"/><polygon class="cls-21" points="775.5 303.75 827 326.33 798.75 337 756.25 325.25 654 327 556.25 315.25 495.5 342.5 433.67 342 191.25 288.5 137.25 290.75 105.75 277.5 56.67 297.17 42.75 287.25 108.75 257.25 147.75 268.75 225.5 265.25 573.5 284.5 692.75 303 775.5 303.75"/><polygon class="cls-22" points="112.83 262.5 108.33 265.17 42.75 287.25 22.67 270.17 108.17 250.67 112.83 262.5"/><polygon class="cls-23" points="152 272.33 139 277.33 108.33 265.17 108.17 250.67 138.83 261.5 152 272.33"/><polygon class="cls-22" points="241.67 261 213.75 261.25 138.83 261.5 139 277.33 208 276 241.67 261"/><polygon class="cls-23" points="747.92 295.17 763 310.33 827 326.33 860 312.67 757.92 286.42 747.92 295.17"/><polygon class="cls-22" points="653.5 294.5 666.17 312.67 763 310.33 757.92 286.42 668 290 653.5 294.5"/><polygon class="cls-23" points="560 274 569.25 295.25 666.17 312.67 668 290 568.33 268.83 560 274"/><polygon class="cls-24" points="559.33 271.33 569.25 295.25 468 283.5 528 257.67 559.33 271.33"/><polygon class="cls-22" points="373.67 318.67 405 342 433.67 342 465 290 536.33 266.83 569.25 295.25 568.33 268.83 534 252.5 409.5 258.5 373.67 318.67"/><polygon class="cls-25" points="295 306 213.75 261.25 322.5 245 534 252.5 447.21 275.04 295 306"/><polygon class="cls-23" points="405 342 447.21 275.04 213.75 261.25 136.88 323.38 405 342"/><polygon class="cls-26" points="120 278.5 105.5 271.92 86.5 279.83 106.33 274.75 120 278.5"/><polygon class="cls-26" points="89.5 283.17 107.75 276.5 127.5 284.17 109.33 279.33 89.5 283.17"/><polygon class="cls-26" points="650.38 315.75 666 318.75 705.75 317.75 665.38 322 650.38 315.75"/><polygon class="cls-26" points="642.25 319.75 664.75 324.63 699.75 324.25 664.5 327.75 642.25 319.75"/></g><g id="main_character" data-name="main character"><polygon class="cls-11" points="336.33 295.67 383 276.33 431.67 297 402.33 315 336.33 295.67"/><polygon class="cls-13" points="363.83 186 358.75 188.75 340.33 201.83 347.5 213.08 380 197.75 374.33 185.5 363.83 186"/><polygon class="cls-27" points="418.53 285.51 414.15 291.09 411.38 297.34 414.4 303.59 418.59 303.59 420.04 293.13 418.53 285.51"/><polygon class="cls-28" points="389.92 303.68 407.55 303.68 418.53 285.51 409.85 282.57 389.92 303.68"/><polygon class="cls-27" points="442.81 125.4 454.09 140.76 441.08 158.77 431.74 129.76 442.81 125.4"/><polygon class="cls-29" points="423.56 139.03 451.59 120.31 445.91 114.48 441.05 113.36 425.84 122.95 423.56 139.03"/><polygon class="cls-30" points="384.79 158.38 381.18 156.35 375.94 155.59 358.75 188.75 373.88 195.65 382.62 195.65 384.79 158.38"/><polygon class="cls-31" points="384.83 158.39 375.94 155.59 391.67 149.01 384.83 158.39"/><polygon class="cls-32" points="388.04 271.89 389.36 281.17 397.7 295.45 418.53 285.51 412.06 255.37 388.04 271.89"/><polygon class="cls-27" points="378.5 276.01 381.94 281.04 378.66 291.75 374.71 291.93 372.78 284.11 374.46 278.18 378.5 276.01"/><polygon class="cls-28" points="361.79 281.3 347.51 293.96 366.59 292.86 378.5 276.01 371.26 274.31 366.27 277.07 361.79 281.3"/><polygon class="cls-33" points="391.67 149.01 407.56 156.62 416.92 151.93 418.8 166.36 418.37 177.21 391.91 179.59 377.99 167.77 391.67 149.01"/><polygon class="cls-32" points="377.99 167.77 369.92 180.47 380.09 219.41 401.79 226.77 423.84 218.98 421.17 195.3 418.37 177.21 388.08 172.22 377.99 167.77"/><polygon class="cls-14" points="369.92 180.47 421.17 195.3 426.18 179.17 418.37 177.21 388.15 170.38 377.99 167.77 369.92 180.47"/><polygon class="cls-31" points="416.92 151.93 433.57 165.83 423.69 166.41 417.69 165.25 416.92 151.93"/><polygon class="cls-30" points="433.57 165.83 443.58 193.74 435.58 197.19 427.64 196.75 418.37 177.21 417.69 165.25 433.57 165.83"/><polygon class="cls-34" points="370.55 86.25 369.3 92.73 370.2 98.82 368.99 142.37 390.31 144.74 400.51 158.7 423.03 131.03 430.89 125.17 435.39 126.77 441.05 113.36 435.27 108.79 429.55 108.04 427.14 109.77 427.27 115.36 424.36 101 417.53 88.12 406.35 80.3 392.39 76.78 379.18 79.92 370.55 86.25"/><polygon class="cls-35" points="417.53 88.12 410.43 97.32 408 147.33 394.98 149.14 394.42 159.04 398.63 172.75 416.92 151.93 423.56 139.02 425.69 132.37 428.22 130.41 427.27 115.36 425.81 108.18 423.5 104.83 423.31 99.01 417.53 88.12"/><polygon class="cls-35" points="391.57 117.13 401.23 101.83 410.43 97.32 399.29 95.02 394.95 95.09 391.57 117.13"/><polygon class="cls-35" points="388.66 94.44 384.54 93.75 374.06 94.95 381.67 99.39 386.52 107.76 388.66 94.44"/><polygon class="cls-36" points="385.11 116.5 388.24 120.19 391.57 117.13 385.11 116.5"/><polygon class="cls-27" points="384.54 93.75 378.87 91.52 374.06 94.95 384.54 93.75"/><polygon class="cls-27" points="399.29 95.02 404.99 93.42 410.43 97.32 399.29 95.02"/><polygon class="cls-37" points="394.95 95.09 391.57 117.13 385.11 116.5 388.66 94.44 394.95 95.09"/><polygon class="cls-32" points="405.72 126.66 387.91 122.83 376.8 125.79 389.11 128.51 405.72 126.66"/><polygon class="cls-31" points="405.72 126.66 387.19 137.04 376.8 125.79 389.11 128.51 405.72 126.66"/><polygon class="cls-38" points="402.15 127.06 390.85 132.55 384.77 132.28 379.54 126.39 388.98 127.83 402.15 127.06"/><polygon class="cls-36" points="437.3 114.8 431.27 112.31 429.23 120.08 437.3 114.8"/><polygon class="cls-29" points="429.55 108.04 428.61 105.25 423.5 104.83 427.27 115.36 429.55 108.04"/><polygon class="cls-27" points="451.59 120.31 448.33 101.67 433.68 92.78 417.53 88.12 423.5 104.83 429.55 108.04 441.05 113.36 451.59 120.31"/><polygon class="cls-29" points="366.04 88.36 370.2 98.82 370.55 86.25 366.04 88.36"/><polygon class="cls-27" points="401.74 53.65 363.34 79.6 366.04 88.36 370.55 86.25 392.39 76.78 398.52 68.54 401.74 53.65"/><polygon class="cls-24" points="448.33 101.67 444.16 79.03 401.74 53.65 392.39 76.78 417.53 88.12 448.33 101.67"/><polygon class="cls-36" points="390.31 144.74 413.89 146.43 394.42 159.04 390.31 144.74"/><polygon class="cls-36" points="424.87 127.95 423.56 139.03 428.22 130.41 424.87 127.95"/><polygon class="cls-31" points="380.09 219.41 381.58 269.37 412.06 255.37 423.84 218.98 380.09 219.41"/><polygon class="cls-14" points="380.09 219.41 367.5 250.33 364.67 278.33 397.7 295.45 394.25 255.75 380.09 219.41"/><polygon class="cls-17" points="432.22 122.55 428.22 130.41 424.87 127.95 427.58 120.38 432.22 122.55"/><path class="cls-29" d="M399.15,104a2.65,2.65,0,1,0,2.13-3.09A2.65,2.65,0,0,0,399.15,104Z"/><path class="cls-29" d="M377.58,101.74a2.65,2.65,0,1,0,5.21-1,2.65,2.65,0,0,0-5.21,1Z"/><polygon class="cls-13" points="412.06 255.37 397.7 295.45 367.5 250.33 380.09 219.41 412.06 255.37"/><polygon class="cls-13" points="427.64 196.75 423.84 218.98 435.58 221.26 443.58 193.74 427.64 196.75"/><polygon class="cls-35" points="423.84 218.98 423.27 227.88 414.71 229.81 412.9 227.03 423.84 218.98"/><polygon class="cls-34" points="423.84 218.98 417.77 231.57 424.81 237.61 432.35 235.16 435.58 221.26 423.84 218.98"/><polygon class="cls-35" points="417.77 231.57 416.05 243.05 426.36 243.98 432.35 235.16 417.77 231.57"/></g><g id="_2nd_character" data-name="2nd character"><polygon class="cls-11" points="194.33 291.67 268.67 277.33 333 288.33 257.67 308.33 194.33 291.67"/><polygon class="cls-30" points="291.17 285.33 284.83 291.83 287 297.17 312.83 290.83 311.5 286 291.17 285.33"/><polygon class="cls-14" points="293.83 264.83 287.17 277 284.83 291.83 311.5 286 306.17 273 293.83 264.83"/><polygon class="cls-30" points="225.83 285.67 213.33 289.5 213.5 295.33 249.67 295.33 250.33 289.5 225.83 285.67"/><polygon class="cls-14" points="237.33 263.5 229.88 275.88 213.33 289.5 250.33 289.5 251.5 280.38 237.33 263.5"/><polygon class="cls-39" points="183.5 149.08 177.33 145.83 169.81 132.38 179.42 123.42 190.25 132.08 183.5 149.08"/><polygon class="cls-40" points="198.5 138.33 190.25 132.08 177.33 145.83 190.25 157.08 200.58 152.75 198.5 138.33"/><polygon class="cls-39" points="210.25 160.25 204.75 146.5 201.25 134.5 195.25 126.17 190.75 129.17 195.75 138.33 194.25 147.42 204 162 210.25 160.25"/><polygon class="cls-27" points="274.83 240.17 272 257.33 287.17 277 306.17 273 299 249.33 274.83 240.17"/><polygon class="cls-27" points="236.67 241.83 228.38 246.25 229.88 275.88 251.5 280.38 255 254.75 236.67 241.83"/><polygon class="cls-41" points="252.67 198.67 240 204.75 228.38 246.25 255 254.75 271.17 232 252.67 198.67"/><polygon class="cls-28" points="267.67 194.67 262.88 233.63 272 257.33 299 249.33 292 206 267.67 194.67"/><polygon class="cls-27" points="251 190 250.04 191.28 240 204.75 262.88 233.63 292 206 251 190"/><polygon class="cls-30" points="255.25 158.75 231.75 143.96 214.25 160.5 208.5 166.75 225 178.25 235.25 174.75 255.25 158.75"/><polygon class="cls-40" points="341.08 206.88 347.5 213.08 344.5 219.25 333.38 222.44 329.83 219.13 330.58 209.13 328.42 207.17 322.75 203.63 341.08 206.88"/><polygon class="cls-39" points="333.33 193.13 339.75 198.96 347.5 213.08 329.83 219.13 322.75 203.63 333.33 193.13"/><polygon class="cls-13" points="310.42 168.63 327 173.5 339.75 198.96 322.75 203.63 310.75 185.75 310.42 168.63"/><polygon class="cls-30" points="286.75 153.29 308.75 144.29 327 173.5 310.75 185.75 299.42 175.92 286.75 153.29"/><polygon class="cls-30" points="248.42 162.54 235.25 174.75 240 204.75 292 206 299.42 175.92 248.42 162.54"/><polygon class="cls-14" points="246.08 143.29 232.67 154.04 235.25 174.75 299.42 175.92 306.08 152.96 287.08 138.63 246.08 143.29"/><polygon class="cls-31" points="280.42 139.96 306.08 152.96 308.75 144.29 289.75 131.63 280.42 139.96"/><polygon class="cls-31" points="254.42 127.79 252.55 134.11 231.75 143.96 232.67 154.04 265.41 144.77 254.42 127.79"/><polygon class="cls-33" points="269.42 134.29 252.55 134.11 249.08 157.79 276.36 153.97 298.42 156.29 293.75 134.13 269.42 134.29"/><polygon class="cls-41" points="273.29 64.89 239.56 72.26 244.52 96.35 270.88 108.41 273.29 64.89"/><polygon class="cls-28" points="283.08 71.6 267.45 84.02 239.56 72.26 251.82 51.3 287.46 64.89 283.08 71.6"/><polygon class="cls-42" points="288.48 74.52 280.89 64.16 251.82 51.3 301.26 47.72 288.48 74.52"/><polygon class="cls-28" points="287.9 74.38 280.89 64.16 301.26 47.72 325.43 75.11 312.58 85.19 287.9 74.38"/><polygon class="cls-41" points="306.15 79.64 315.36 78.47 325.43 75.11 314.33 90.44 306.15 79.64"/><polygon class="cls-40" points="300.68 127.25 265.41 144.77 252.55 134.11 249.08 116.36 253.94 98.98 258.65 97.01 259.38 89.24 267.45 84.02 300.68 127.25"/><polygon class="cls-43" points="252.84 104.64 257.33 106.21 249.08 116.36 247.37 108.18 252.84 104.64"/><polygon class="cls-43" points="282.06 126.81 268.04 131.34 260.44 131.92 265.41 144.77 276.36 153.97 299.73 128.56 282.06 126.81"/><polygon class="cls-39" points="267.45 84.02 268.04 131.34 315.36 130.75 315.36 78.47 280.89 64.16 267.45 84.02"/><polygon class="cls-40" points="280.36 88.58 273.51 89.93 283.41 97.09 288.8 108.48 291.58 105.28 297.86 108.48 303.69 95.92 310.75 90.15 303.85 88.25 298.63 89.79 298 93.28 291.15 103.42 288.56 93.22 287.82 89.71 280.36 88.58"/><polygon class="cls-43" points="292.46 102.13 297.86 108.48 292.57 111.66 288.8 108.48 292.46 102.13"/><polygon class="cls-44" points="298 93.28 297.86 108.48 288.8 108.48 288.56 93.22 298 93.28"/><polygon class="cls-43" points="279.94 114.18 303.52 114.03 297.99 123.47 285.45 123.69 279.94 114.18"/><polygon class="cls-38" points="283.64 115.86 299.96 115.68 298.05 119.09 285.52 119.2 283.64 115.86"/><polygon class="cls-27" points="287.61 85.04 273.44 87.3 273.51 89.93 287.82 89.71 287.61 85.04"/><polygon class="cls-27" points="298.63 89.79 298.63 84.89 310.9 87.74 310.75 90.15 298.63 89.79"/><path class="cls-29" d="M285.13,96.56a2.71,2.71,0,1,1-2.7-2.7A2.7,2.7,0,0,1,285.13,96.56Z"/><circle class="cls-45" cx="305.43" cy="96.82" r="2.7"/><polygon class="cls-39" points="247.37 108.18 257.33 106.21 255.47 94.27 244.52 96.35 247.37 108.18"/><polygon class="cls-43" points="248.68 99.05 252.59 98.61 252.95 102.92 248.68 99.05"/><polygon class="cls-35" points="330 205.5 322.75 203.63 322.42 211.25 329.83 219.13 333.42 213.33 330 205.5"/><polygon class="cls-13" points="190.25 157.08 203.67 185.83 225 178.25 204.75 146.5 190.25 157.08"/></g></svg>