<svg id="ILLUSTRATOR" xmlns="http://www.w3.org/2000/svg" viewBox="0 0 900 350"><defs><style>.cls-1{fill:#c4c3c3;}.cls-2{fill:#cececd;}.cls-18,.cls-3{fill:#2a2b2a;}.cls-3{opacity:0.1;}.cls-4{fill:#ebecea;}.cls-5{fill:#98c26c;}.cls-6{fill:#738d58;}.cls-7{fill:#6f9c52;}.cls-8{fill:#9fcf7e;}.cls-9{fill:#3e8e6f;}.cls-10{fill:#53af8a;}.cls-11{fill:#474748;}.cls-12{fill:#4f5253;}.cls-13{fill:#707274;}.cls-14{fill:#f5cab3;}.cls-15{fill:#c1907d;}.cls-16{fill:#fde4d4;}.cls-17{fill:#ffefe8;}.cls-19{fill:#fff;}.cls-20{fill:#dddddb;}.cls-21{fill:#737374;}.cls-22{fill:#9ca1a1;}.cls-23{fill:#838585;}.cls-24{fill:#36795d;}.cls-25{fill:#b7c644;}.cls-26{fill:#e5e87b;}.cls-27{fill:#5a753d;}.cls-28{fill:#debca4;}.cls-29{fill:#c3977b;}.cls-30{fill:#8b6752;}.cls-31{fill:#e8cab6;}.cls-32{fill:#d0ae95;}.cls-33{fill:#b28b71;}.cls-34{fill:#44612d;}.cls-35{fill:#8f8f8f;}.cls-36{fill:#a2a2a3;}</style></defs><title>diplomats_Protagonist_ENFJ_workplace_habits</title><g id="wall"><polygon class="cls-1" points="357.33 84.67 382.67 25 899.54 0.13 892 287.33 381.67 252 357.33 84.67"/><polygon class="cls-2" points="382.67 25 385.17 252 8.67 304 0 0 382.67 25"/></g><g id="poster"><polyline class="cls-3" points="76.47 99.27 48.56 57.68 37.86 189.5 132.16 183.81 124.84 119.59 76.88 97.64"/><polygon class="cls-4" points="48.56 57.68 49.8 178.39 139.47 174.06 138.09 61.67 48.56 57.68"/><polygon class="cls-5" points="59.54 54.83 59.27 62.96 72.82 63.23 72.41 55.78 59.54 54.83"/><polygon class="cls-5" points="113.19 57.27 112.92 65.4 126.47 65.67 126.06 58.22 113.19 57.27"/><polygon class="cls-2" points="68.95 78.34 119.15 79.76 119.22 84.64 68.95 83.62 68.95 78.34"/><polygon class="cls-2" points="58.39 98.46 119.74 99.88 119.83 104.76 58.39 103.74 58.39 98.46"/><polygon class="cls-2" points="58.18 115.53 119.54 116.95 119.62 121.83 58.18 120.81 58.18 115.53"/><polygon class="cls-2" points="58.18 133.82 119.34 134.02 119.42 138.9 58.08 140.42 58.18 133.82"/><polygon class="cls-2" points="57.68 153.33 119.13 151.09 119.22 155.97 57.78 158.91 57.68 153.33"/><polygon class="cls-2" points="125.11 100.49 128.36 105.44 134.59 99.41 132.02 97.98 128.9 101.37 126.53 98.73 125.11 100.49"/><polygon class="cls-2" points="124.3 116.88 127.21 114.24 131.61 116.88 129.92 122.78 129.85 124 127.48 124 127.35 121.29 128.7 118.37 127.48 117.22 125.04 118.78 124.3 116.88"/><polygon class="cls-2" points="127.89 125.69 129.92 125.49 130.06 128.06 127.75 127.92 127.89 125.69"/><polygon class="cls-2" points="123.48 133.55 126.4 130.91 130.8 133.55 129.11 139.44 129.04 140.66 126.67 140.66 126.53 137.95 127.89 135.04 126.67 133.89 124.23 135.44 123.48 133.55"/><polygon class="cls-2" points="127.08 142.35 129.11 142.15 129.24 144.72 126.94 144.59 127.08 142.35"/><polygon class="cls-2" points="122.67 150.21 125.58 147.57 129.99 150.21 128.29 156.1 128.23 157.32 125.86 157.32 125.72 154.61 127.08 151.7 125.86 150.55 123.42 152.11 122.67 150.21"/><polygon class="cls-2" points="126.26 159.02 128.29 158.81 128.43 161.39 126.13 161.25 126.26 159.02"/></g><g id="shadows"><polygon class="cls-3" points="351 305.67 249 290.33 201.1 297.27 34.33 223.33 22.17 237.5 8.67 304 94.17 323.5 172.17 316 174.62 315.6 242.67 330 351 305.67"/><polygon class="cls-3" points="474.67 291.58 301.67 326.25 727.17 349.75 884 297.67 789.17 291.5 474.67 291.58"/></g><g id="cupboard"><polygon class="cls-6" points="97.67 221.67 34.33 223.33 35 299.67 95.67 311.75 97.67 221.67"/><polygon class="cls-7" points="124.33 222.33 92.67 230 95.67 311.75 208 298 200 219 124.33 222.33"/><polygon class="cls-8" points="34.33 223.33 151.33 214 203 218.67 92.67 230 34.33 223.33"/><polygon class="cls-8" points="109.92 244.25 112.67 297.25 157.17 291.25 154.17 238.5 109.92 244.25"/><polygon class="cls-8" points="168.54 236.63 171.29 289.63 215.79 283.63 212.79 230.88 168.54 236.63"/><ellipse class="cls-7" cx="145.5" cy="267.08" rx="4" ry="5.75"/><ellipse class="cls-7" cx="178.83" cy="263.25" rx="4" ry="5.75"/></g><g id="Layer_9" data-name="Layer 9"><polygon class="cls-3" points="782.83 78.67 768.67 110.67 773.83 116.5 813.67 119.17 836.67 102 838.83 67.33 822.08 44.42 782.83 78.67"/><polygon class="cls-7" points="800.58 86.75 807.33 113 815.33 112.08 831.33 95.83 831.83 63.17 822.08 44.42 812.67 43.33 800.58 86.75"/><polygon class="cls-5" points="773.33 43 812.67 43.33 824.67 63.33 825.33 93.67 807.33 113 768.67 110.67 754.33 90.67 755 61.67 773.33 43"/><polygon class="cls-4" points="776.94 51.42 807.28 51.67 816.54 67.1 817.05 90.5 803.17 105.42 773.34 103.62 762.28 88.19 762.79 65.82 776.94 51.42"/><polygon class="cls-5" points="785.67 74.88 785.54 79.25 789.29 79.13 789.42 74.38 785.67 74.88"/><polygon class="cls-5" points="787.04 77.88 793.42 88.25 799.42 89.75 797.04 83.63 788.29 77.25 787.67 74.75 784.04 57.25 779.17 53.5 778.67 57.75 787.04 77.88"/><polygon class="cls-5" points="787.08 53.42 789.58 57.08 792.17 53.58 787.08 53.42"/><polygon class="cls-5" points="764.33 74.5 764.08 80.17 768 76.92 764.33 74.5"/><polygon class="cls-5" points="784.08 103 789.67 103.08 786.75 98.5 784.08 103"/><polygon class="cls-5" points="814.08 74.67 814.17 79.58 809.75 77.33 814.08 74.67"/></g><g id="_2nd_character" data-name="2nd character"><polygon class="cls-9" points="210.47 301.21 234.68 313.3 234.48 318.38 193.88 318.38 193.88 313.13 210.47 301.21"/><polygon class="cls-9" points="281.88 295.27 265.08 300.11 265.16 305.92 311.74 305.94 311.53 300.02 281.88 295.27"/><polygon class="cls-10" points="216.17 287.73 226.33 296.91 234.68 313.3 193.88 313.13 196.34 294.94 216.17 287.73"/><polygon class="cls-10" points="272.21 272.82 290.23 282.98 311.53 300.02 265.08 300.11 264.67 286.92 272.21 272.82"/><polygon class="cls-11" points="270.08 238.17 284.09 246.77 290.23 282.98 264.67 286.92 251.15 262.5 270.08 238.17"/><polygon class="cls-12" points="245.25 214.33 255.82 219.74 267.87 219.64 284.09 246.77 251.15 262.5 224.36 244.8 245.25 214.33"/><polygon class="cls-12" points="222.89 247.75 237.14 265.7 226.33 296.91 196.34 294.94 198.64 263.48 222.89 247.75"/><polygon class="cls-11" points="235.42 233.74 181.23 215.93 263.03 214.82 235.42 233.74"/><polygon class="cls-13" points="187 211.54 181.23 215.93 198.64 263.48 237.14 265.7 235.42 233.74 187 211.54"/><polygon class="cls-6" points="207.4 121.26 186.68 128.47 181.23 215.93 225.71 218.4 267.95 162.71 252.87 115.52 207.4 121.26"/><polygon class="cls-7" points="207.4 121.26 186.68 128.47 181.1 167.96 226.76 174.18 267.95 162.71 252.87 115.52 207.4 121.26"/><polygon class="cls-11" points="278.01 84.26 278.55 83.55 293.53 63.8 274.71 56.04 278.01 84.26"/><polygon class="cls-12" points="275.89 68.04 283.62 63.74 293.53 63.8 277.38 32.06 236.38 55.34 275.89 68.04"/><polygon class="cls-13" points="262.49 77.68 260.45 50.63 277.38 32.06 213.89 27.04 231.68 75.8 262.49 77.68"/><polygon class="cls-12" points="252.37 66.86 260.45 50.63 213.89 27.04 192.41 59.34 253.31 88.26 252.37 66.86"/><polygon class="cls-11" points="277.06 86.14 224.19 59.78 192.41 59.34 198.88 84.14 235.91 109.89 277.06 86.14"/><polygon class="cls-14" points="226.98 131.53 207.4 121.26 198.88 84.14 209.46 82.38 210.99 89.67 214.87 89.32 214.99 73.21 224.19 59.78 245.2 125.3 226.98 131.53"/><polygon class="cls-15" points="256.61 122.12 268.6 125.41 248.38 130.12 225.9 144.09 207.4 121.26 226.63 126.22 256.61 122.12"/><polygon class="cls-16" points="283.62 63.74 282.7 126.83 226.63 126.22 224.19 59.78 260.45 50.63 283.62 63.74"/><polygon class="cls-14" points="242.86 75.09 233.28 76.24 251.09 99.1 257.28 92.56 260.55 99.55 275.77 77.46 268.56 74.98 261.12 76.44 261 83.77 254.13 90.76 250.86 83.55 249.73 76.44 242.86 75.09"/><polygon class="cls-15" points="254.92 95.42 251.09 99.1 255.44 103.01 260.55 99.55 254.92 95.42"/><polygon class="cls-17" points="250.2 79.74 251.09 99.1 260.55 99.55 261.07 80.15 250.2 79.74"/><circle class="cls-18" cx="243.16" cy="83.79" r="3.74"/><path class="cls-18" d="M274.47,84.39a3.74,3.74,0,1,1-3.74-3.74A3.73,3.73,0,0,1,274.47,84.39Z"/><polygon class="cls-15" points="245.56 108.68 265.17 107.67 265.57 113.8 244.35 115.36 245.56 108.68"/><polygon class="cls-12" points="233.28 76.24 249.73 76.44 241.98 71.1 233.28 76.24"/><polygon class="cls-12" points="261.12 76.44 267.43 71.71 275.77 77.46 261.12 76.44"/><polygon class="cls-15" points="202.44 86.97 206.96 86.3 207.77 91.16 202.44 86.97"/><polygon class="cls-15" points="209.15 97.63 202.17 98.53 203.27 103.66 209.15 97.63"/><polygon class="cls-19" points="247.4 110.06 246.77 113.56 263.85 112.37 263.42 109.17 247.4 110.06"/><polygon class="cls-1" points="268.3 201.18 275.3 208 323.9 200.19 323.66 196.43 268.3 201.18"/><polygon class="cls-20" points="246.85 200.67 245.99 200.34 226.62 203.21 226.76 207 275.3 208 275.36 204.48 246.85 200.67"/><polygon class="cls-4" points="226.62 203.21 278.64 191.53 323.66 196.43 275.36 204.48 226.62 203.21"/><polygon class="cls-1" points="268.3 195.77 275.3 202.59 323.9 194.79 323.66 191.02 268.3 195.77"/><polygon class="cls-20" points="246.77 195.63 245.95 194.85 226.62 197.8 226.76 201.59 275.3 202.59 275.36 199.07 246.77 195.63"/><polygon class="cls-4" points="226.62 197.8 278.64 186.12 323.66 191.02 275.36 199.07 226.62 197.8"/><polygon class="cls-1" points="268.3 190.36 275.3 197.18 323.9 189.38 323.66 185.61 268.3 190.36"/><polygon class="cls-20" points="246.89 190.43 245.7 190.55 226.62 192.39 226.76 196.18 275.3 197.18 275.36 193.66 246.89 190.43"/><polygon class="cls-4" points="226.62 192.39 278.64 180.72 323.66 185.61 275.36 193.66 226.62 192.39"/><polygon class="cls-1" points="268.3 184.96 275.3 191.78 323.9 183.97 323.66 180.21 268.3 184.96"/><polygon class="cls-20" points="247.01 184.36 244.8 184.77 226.62 186.98 226.76 190.77 275.3 191.78 275.36 188.25 247.01 184.36"/><polygon class="cls-4" points="226.62 186.98 278.64 175.31 323.66 180.21 275.36 188.25 226.62 186.98"/><polygon class="cls-1" points="268.3 179.43 275.3 186.25 323.9 178.44 323.66 174.68 268.3 179.43"/><polygon class="cls-20" points="247.01 178.83 244.8 179.24 226.62 181.45 226.76 185.24 275.3 186.25 275.36 182.72 247.01 178.83"/><polygon class="cls-4" points="226.62 181.45 278.64 169.78 323.66 174.68 275.36 182.72 226.62 181.45"/><polygon class="cls-1" points="268.3 173.9 275.3 180.72 323.9 172.91 323.66 169.15 268.3 173.9"/><polygon class="cls-20" points="247.01 173.3 244.8 173.71 226.62 175.92 226.76 179.71 275.3 180.72 275.36 177.19 247.01 173.3"/><polygon class="cls-4" points="226.62 175.92 278.64 164.25 323.66 169.15 275.36 177.19 226.62 175.92"/><polygon class="cls-1" points="268.3 168.37 275.3 175.19 323.9 167.38 323.66 163.61 268.3 168.37"/><polygon class="cls-20" points="247.01 167.77 244.8 168.18 226.62 170.39 226.76 174.18 275.3 175.19 275.36 171.66 247.01 167.77"/><polygon class="cls-4" points="226.62 170.39 278.64 158.72 323.66 163.61 275.36 171.66 226.62 170.39"/><polygon class="cls-1" points="268.3 162.84 275.3 169.66 323.9 161.85 323.66 158.08 268.3 162.84"/><polygon class="cls-20" points="247.01 162.24 244.8 162.65 226.62 164.86 226.76 168.65 275.3 169.66 275.36 166.13 247.01 162.24"/><polygon class="cls-4" points="226.62 164.86 278.64 153.19 323.66 158.08 275.36 166.13 226.62 164.86"/><polygon class="cls-1" points="268.3 157.31 275.3 164.13 323.9 156.32 323.66 152.55 268.3 157.31"/><polygon class="cls-20" points="247.01 156.71 244.8 157.12 226.62 159.33 226.76 163.12 275.3 164.13 275.36 160.6 247.01 156.71"/><polygon class="cls-4" points="226.62 159.33 278.64 147.66 323.66 152.55 275.36 160.6 226.62 159.33"/><polygon class="cls-1" points="268.3 151.78 275.3 158.6 323.9 150.79 323.66 147.02 268.3 151.78"/><polygon class="cls-20" points="247.01 151.18 244.8 151.59 226.62 153.8 226.76 157.59 275.3 158.6 275.36 155.07 247.01 151.18"/><polygon class="cls-4" points="226.62 153.8 278.64 142.13 323.66 147.02 275.36 155.07 226.62 153.8"/><polygon class="cls-1" points="268.3 146.25 275.3 153.07 323.9 145.26 323.66 141.49 268.3 146.25"/><polygon class="cls-20" points="247.01 145.65 244.8 146.06 226.62 148.27 226.76 152.06 275.3 153.07 275.36 149.54 247.01 145.65"/><polygon class="cls-4" points="226.62 148.27 278.64 136.6 323.66 141.49 275.36 149.54 226.62 148.27"/><polygon class="cls-1" points="268.3 140.72 275.3 147.54 323.9 139.73 323.66 135.96 268.3 140.72"/><polygon class="cls-20" points="247.01 140.12 244.8 140.53 226.62 142.74 226.76 146.53 275.3 147.54 275.36 144.01 247.01 140.12"/><polygon class="cls-4" points="226.62 142.74 278.64 131.07 323.66 135.96 275.36 144.01 226.62 142.74"/><polygon class="cls-1" points="268.3 135.19 275.3 142.01 323.9 134.2 323.66 130.43 268.3 135.19"/><polygon class="cls-20" points="247.01 134.59 244.8 135 226.62 137.21 226.76 141 275.3 142.01 275.36 138.48 247.01 134.59"/><polygon class="cls-4" points="226.62 137.21 278.64 125.54 323.66 130.43 275.36 138.48 226.62 137.21"/><polygon class="cls-1" points="268.3 129.66 275.3 136.48 323.9 128.67 323.66 124.9 268.3 129.66"/><polygon class="cls-20" points="247.01 129.06 244.8 129.47 226.62 131.68 226.76 135.47 275.3 136.48 275.36 132.95 247.01 129.06"/><polygon class="cls-4" points="226.62 131.68 278.64 120.01 323.66 124.9 275.36 132.95 226.62 131.68"/><polygon class="cls-1" points="268.3 124.13 275.3 130.95 323.9 123.14 323.66 119.37 268.3 124.13"/><polygon class="cls-20" points="247.01 123.53 244.8 123.94 226.62 126.15 226.76 129.94 275.3 130.95 275.36 127.42 247.01 123.53"/><polygon class="cls-4" points="226.62 126.15 282.61 115.89 323.66 119.37 275.36 127.42 226.62 126.15"/><polygon class="cls-9" points="265.28 209.39 276.75 206.16 326.61 197.82 326.94 209.45 276.84 219.96 265.28 209.39"/><polygon class="cls-10" points="225.3 204.52 225.71 218.4 276.84 219.96 276.75 206.16 225.3 204.52"/></g><g id="chair"><polygon class="cls-21" points="699.42 131.61 714.25 130.39 707.93 198.93 675.36 198.2 699.42 131.61"/><polygon class="cls-22" points="676.33 128.45 714.25 130.39 699.42 135.74 673.17 150.56 676.33 128.45"/><polygon class="cls-23" points="664.91 146.19 690.67 135.5 699.42 135.74 694.32 197.96 661.99 196.74 664.91 146.19"/></g><g id="main_character" data-name="main character"><polygon class="cls-24" points="585.19 259.54 605.79 277.12 607.66 268.68 596.42 259.54 585.19 259.54"/><polygon class="cls-25" points="664.95 104.15 682.41 124.92 691 135.41 673.82 167.57 564.2 157.79 567.58 115.24 581.67 112.65 664.95 104.15"/><polygon class="cls-26" points="579.2 108.19 664.95 104.15 688.24 120.19 691 135.41 676.37 130.04 577.11 121.8 567.58 115.24 579.2 108.19"/><polygon class="cls-24" points="660.94 264.56 639.08 277.12 637.23 269.77 644.5 263.33 660.94 264.56"/><polygon class="cls-27" points="620.32 206.24 637.23 259.54 619.52 273.67 585.19 259.54 585.29 207.64 598.71 201.67 620.32 206.24"/><polygon class="cls-7" points="656.11 218.82 660.94 264.56 619.52 273.67 620.32 206.24 656.11 218.82"/><polygon class="cls-27" points="585.29 137.74 577.11 121.8 547.6 169.03 586.2 180.74 589.13 172.27 585.29 137.74"/><polygon class="cls-27" points="658.14 123.43 631.49 137.39 607.31 156.04 620.32 206.24 655.25 206.24 655.25 194.49 669.75 157.08 658.14 123.43"/><polygon class="cls-7" points="616.99 152.24 620.34 194.49 620.32 206.24 585.29 206.24 585.19 189.83 577.11 121.8 594.19 120.19 594.8 127.3 594.8 127.3 602.07 126.96 605.88 143.38 616.99 152.24"/><polygon class="cls-27" points="662.82 162.77 674.31 140.44 691.16 199.74 705.25 261.39 678.5 274.54 662.82 162.77"/><polygon class="cls-5" points="655.25 206.24 585.29 206.24 585.29 219.39 656.11 218.82 655.25 206.24"/><polygon class="cls-24" points="617.31 145.88 607.66 135.86 602.07 126.96 591.89 128.44 592.78 143.46 616.99 152.24 622.74 147.11 617.31 145.88"/><polygon class="cls-10" points="617.31 145.88 616.99 152.24 656.17 144.85 658.59 115.2 649.48 120.98 639.66 131.63 617.31 145.88"/><polygon class="cls-18" points="652.08 121.8 654.33 83.94 659.02 74.2 667.89 78.29 669.97 127.84 665.52 139.26 658.39 123.93 652.08 121.8"/><polygon class="cls-18" points="579.77 73.7 577.11 121.8 591.21 120.57 593.47 68.99 579.77 73.7"/><polygon class="cls-28" points="591.89 128.44 637.23 126.3 650.08 117.13 656.17 47.5 585.27 44.44 591.89 128.44"/><polygon class="cls-29" points="598.71 128.12 645.11 122.02 650.69 54.28 659.02 41.01 651.74 125.81 650.08 136.35 617.31 145.88 600.25 137.5 598.71 128.12"/><polygon class="cls-30" points="624.34 99.83 617.69 104.38 611.04 99.83 624.34 99.83"/><polygon class="cls-29" points="645.14 82.38 631.23 86.65 624.34 99.83 620.42 78.54 640.23 76.74 645.14 82.38"/><polygon class="cls-29" points="611.04 99.83 601.15 86.65 590.24 82.38 595.15 79.29 604.15 78.29 614.96 78.54 614.96 91.74 611.04 99.83"/><polygon class="cls-31" points="611.04 99.83 617.69 101.5 624.34 99.83 620.42 78.54 614.96 78.54 611.04 99.83"/><polygon class="cls-11" points="614.96 78.54 595.15 79.29 590.24 82.38 595.15 74.2 614.96 78.54"/><polygon class="cls-11" points="620.42 78.54 640.23 79.29 645.14 82.38 640.23 74.2 620.42 78.54"/><polygon class="cls-30" points="615.43 140.49 598.71 128.12 651.74 125.81 615.43 140.49"/><polygon class="cls-12" points="667.89 78.29 666.49 42.99 651.74 39.3 640.16 30.49 600.62 30.49 591.89 41.01 576.79 47.5 579.77 73.7 587.68 75.07 585.86 50.47 616.45 60.48 649.55 45.59 655.14 88.29 667.89 78.29"/><polygon class="cls-13" points="616.45 60.48 640.16 30.49 666.49 42.99 650.69 54.28 616.45 60.48"/><polygon class="cls-32" points="646.51 105.02 590.3 108.28 591.89 128.44 645.14 126.09 646.51 105.02"/><polygon class="cls-11" points="600.62 30.49 616.45 60.48 586.12 54.05 576.79 47.5 600.62 30.49"/><polygon class="cls-33" points="646.51 105.02 653.77 102.11 651.74 125.81 645.14 126.09 646.51 105.02"/><path class="cls-18" d="M600.78,87.27a3.37,3.37,0,1,0,3.37-3.37A3.37,3.37,0,0,0,600.78,87.27Z"/><path class="cls-18" d="M631,87.27a3.37,3.37,0,1,0,3.37-3.37A3.37,3.37,0,0,0,631,87.27Z"/><polygon class="cls-30" points="609.64 112.16 628.04 113.38 629.71 116.21 608.69 114.55 609.64 112.16"/></g><g id="table"><polygon class="cls-34" points="811.71 294.04 793.56 316.08 772.04 315.25 759.21 276.87 809.76 250.62 811.71 294.04"/><polygon class="cls-27" points="387.51 301.82 401.94 321.77 426.4 316.72 430.62 278.81 383.3 281.08 387.51 301.82"/><polygon class="cls-27" points="661.99 240.73 722.43 331.79 745.61 326.81 745.17 308.25 792.26 287.56 793.56 316.08 818.19 311.21 821.11 218.53 802.71 214.66 661.99 240.73"/><polygon class="cls-6" points="365.81 225.02 375.21 320.94 401.94 321.77 401.94 295.17 691 314.67 692.13 330.85 722.43 331.79 723.6 250.5 365.81 225.02"/><polygon class="cls-35" points="707.36 227.61 723.6 250.5 832.77 220.48 837.63 190.66 614.68 203.63 707.36 227.61"/><polygon class="cls-36" points="432.56 201.68 346.04 210.43 347.99 231.98 723.6 250.5 724.05 219.67 432.56 201.68"/><polygon class="cls-20" points="481.17 182.89 837.63 190.66 724.05 219.67 346.04 210.43 481.17 182.89"/><polygon class="cls-6" points="674.87 187.1 676.37 130.04 660.86 124.78 658.06 123.83 656.17 144.85 653.77 173.23 674.87 187.1"/><polygon class="cls-27" points="400 249.58 400 276.25 690.67 294.67 690.67 258.58 400 249.58"/><polygon class="cls-34" points="747.5 255.5 747.17 287.25 793.5 267.25 793.75 246.5 747.5 255.5"/></g><g id="paper"><polygon class="cls-3" points="651.5 214.63 750.25 198.13 788.75 201.13 724.38 216.88 651.5 214.63"/><polygon class="cls-3" points="409.25 208.13 477 211 555 196.25 451 197.88 409.25 208.13"/><polygon class="cls-3" points="687.51 187.38 583.73 185.2 575.71 192 580.55 192.39 529.39 209.52 589.18 210.25 635.75 194.88 653.61 193.46 687.51 187.38"/><polygon class="cls-4" points="522.63 207 581.67 207.92 634.88 190.5 585.17 189.75 522.63 207"/><polygon class="cls-2" points="544.83 203.81 585.17 204.17 589.08 203.06 549.77 202.5 544.83 203.81"/><polygon class="cls-2" points="557.33 200.42 595.58 200.92 600 199.83 561.38 199.19 557.33 200.42"/><polygon class="cls-2" points="567.5 197.19 605.33 197.75 611.75 196.44 572.44 195.88 567.5 197.19"/><polygon class="cls-1" points="717.06 195.19 724.19 202.13 774.5 191.38 774.25 187.54 717.06 195.19"/><polygon class="cls-20" points="694.5 192.19 694.26 192.22 674.92 195.21 675.06 199.06 724.19 202.13 724.25 198.54 694.5 192.19"/><polygon class="cls-4" points="674.92 195.21 727.58 185.38 774.25 187.54 724.25 198.54 674.92 195.21"/><polygon class="cls-1" points="717.06 189.69 724.19 196.63 774.5 185.88 774.25 182.04 717.06 189.69"/><polygon class="cls-20" points="694.5 186.69 694.26 186.72 674.92 189.71 675.06 193.56 724.19 196.63 724.25 193.04 694.5 186.69"/><polygon class="cls-4" points="674.92 189.71 727.58 179.88 774.25 182.04 724.25 193.04 674.92 189.71"/><polygon class="cls-1" points="717.06 184.19 724.19 191.13 774.5 180.38 774.25 176.54 717.06 184.19"/><polygon class="cls-20" points="694.5 181.19 694.26 181.22 674.92 184.21 675.06 188.06 724.19 191.13 724.25 187.54 694.5 181.19"/><polygon class="cls-4" points="674.92 184.21 727.58 174.38 774.25 176.54 724.25 187.54 674.92 184.21"/><polygon class="cls-1" points="717.06 178.69 724.19 185.63 774.5 174.88 774.25 171.04 717.06 178.69"/><polygon class="cls-20" points="694.5 175.69 694.26 175.72 674.92 178.71 675.06 182.56 724.19 185.63 724.25 182.04 694.5 175.69"/><polygon class="cls-4" points="674.92 178.71 727.58 168.88 774.25 171.04 724.25 182.04 674.92 178.71"/><polygon class="cls-9" points="714 203.54 726.5 198.04 776.75 186.79 777.25 203.04 725.75 214.29 714 203.54"/><polygon class="cls-10" points="673.58 196.54 673.75 212.71 725.75 214.29 726.5 198.04 673.58 196.54"/><polygon class="cls-1" points="467.56 188.52 474.69 195.46 524.42 190.67 524.42 186.19 467.56 188.52"/><polygon class="cls-20" points="445.75 188 444.88 187.67 425.17 190.58 425.31 194.44 474.69 195.46 474.75 191.88 445.75 188"/><polygon class="cls-4" points="425.17 190.58 478.08 178.71 524.67 186.13 474.75 191.88 425.17 190.58"/><polygon class="cls-1" points="467.56 183.02 474.69 189.96 524.42 185.17 524.17 181.33 467.56 183.02"/><polygon class="cls-20" points="445.67 182.88 444.83 182.08 425.17 185.08 425.31 188.94 474.69 189.96 474.75 186.38 445.67 182.88"/><polygon class="cls-4" points="425.17 185.08 478.08 173.21 524.17 181.33 474.75 186.38 425.17 185.08"/><polygon class="cls-1" points="467.56 177.52 474.69 184.46 524.42 179.67 524.17 175.83 467.56 177.52"/><polygon class="cls-20" points="445.79 177.58 444.58 177.71 425.17 179.58 425.31 183.44 474.69 184.46 474.75 180.88 445.79 177.58"/><polygon class="cls-4" points="425.17 179.58 478.08 167.71 524.17 175.83 474.75 180.88 425.17 179.58"/><polygon class="cls-1" points="467.56 172.02 474.69 178.96 524.42 174.17 524.17 170.33 467.56 172.02"/><polygon class="cls-20" points="445.92 171.42 443.67 171.83 425.17 174.08 425.31 177.94 474.69 178.96 474.75 175.38 445.92 171.42"/><polygon class="cls-4" points="425.17 174.08 478.08 162.21 524.17 170.33 474.75 175.38 425.17 174.08"/><polygon class="cls-1" points="467.56 166.4 474.69 173.33 524.42 168.54 524.17 164.71 467.56 166.4"/><polygon class="cls-20" points="445.92 165.79 443.67 166.21 425.17 168.46 425.31 172.31 474.69 173.33 474.75 169.75 445.92 165.79"/><polygon class="cls-4" points="425.17 168.46 478.08 156.58 524.17 164.71 474.75 169.75 425.17 168.46"/><polygon class="cls-1" points="467.56 160.77 474.69 167.71 524.42 162.92 524.17 159.08 467.56 160.77"/><polygon class="cls-20" points="445.92 160.17 443.67 160.58 425.17 162.83 425.31 166.69 474.69 167.71 474.75 164.13 445.92 160.17"/><polygon class="cls-4" points="425.17 162.83 478.08 150.96 524.17 159.08 474.75 164.13 425.17 162.83"/><polygon class="cls-1" points="467.56 155.15 474.69 162.08 524.42 157.29 524.17 153.46 467.56 155.15"/><polygon class="cls-20" points="445.92 154.54 443.67 154.96 425.17 157.21 425.31 161.06 474.69 162.08 474.75 158.5 445.92 154.54"/><polygon class="cls-4" points="425.17 157.21 478.08 145.33 524.17 153.46 474.75 158.5 425.17 157.21"/><polygon class="cls-1" points="467.56 149.52 474.69 156.46 524.42 151.67 524.17 147.83 467.56 149.52"/><polygon class="cls-20" points="445.92 148.92 443.67 149.33 425.17 151.58 425.31 155.44 474.69 156.46 474.75 152.88 445.92 148.92"/><polygon class="cls-4" points="425.17 151.58 478.08 139.71 524.17 147.83 474.75 152.88 425.17 151.58"/><polygon class="cls-1" points="467.56 143.9 474.69 150.83 524.42 146.04 524.17 142.21 467.56 143.9"/><polygon class="cls-20" points="445.92 143.29 443.67 143.71 425.17 145.96 425.31 149.81 474.69 150.83 474.75 147.25 445.92 143.29"/><polygon class="cls-4" points="425.17 145.96 478.08 134.08 524.17 142.21 474.75 147.25 425.17 145.96"/><polygon class="cls-1" points="467.56 138.27 474.69 145.21 524.42 140.42 524.17 136.58 467.56 138.27"/><polygon class="cls-20" points="445.92 137.67 443.67 138.08 425.17 140.33 425.31 144.19 474.69 145.21 474.75 141.63 445.92 137.67"/><polygon class="cls-4" points="425.17 140.33 478.08 128.46 524.17 136.58 474.75 141.63 425.17 140.33"/><polygon class="cls-1" points="467.56 132.65 474.69 139.58 524.42 134.79 524.17 130.96 467.56 132.65"/><polygon class="cls-20" points="445.92 132.04 443.67 132.46 425.17 134.71 425.31 138.56 474.69 139.58 474.75 136 445.92 132.04"/><polygon class="cls-4" points="425.17 134.71 478.08 122.83 524.17 130.96 474.75 136 425.17 134.71"/><polygon class="cls-1" points="467.56 127.02 474.69 133.96 524.42 129.17 524.17 125.33 467.56 127.02"/><polygon class="cls-20" points="445.92 126.42 443.67 126.83 425.17 129.08 425.31 132.94 474.69 133.96 474.75 130.38 445.92 126.42"/><polygon class="cls-4" points="425.17 129.08 478.08 117.21 524.17 125.33 474.75 130.38 425.17 129.08"/><polygon class="cls-1" points="467.56 121.4 474.69 128.33 524.42 123.54 524.17 119.71 467.56 121.4"/><polygon class="cls-20" points="445.92 120.79 443.67 121.21 425.17 123.46 425.31 127.31 474.69 128.33 474.75 124.75 445.92 120.79"/><polygon class="cls-4" points="425.17 123.46 478 114.83 524.17 119.71 474.75 124.75 425.17 123.46"/><polygon class="cls-1" points="467.56 115.77 474.69 122.71 524.42 117.92 524.17 114.08 467.56 115.77"/><polygon class="cls-20" points="446 117.25 443.42 117.63 425.17 117.83 425.31 121.69 474.69 122.71 474.75 119.13 446 117.25"/><polygon class="cls-4" points="425.17 117.83 477.83 112.58 524.17 114.08 474.75 119.13 425.17 117.83"/><polygon class="cls-9" points="464.5 196.88 476.17 193.58 527.83 186.58 527.5 199.58 476.25 207.63 464.5 196.88"/><polygon class="cls-10" points="423.83 191.92 424.25 206.04 476.25 207.63 476.17 193.58 423.83 191.92"/><polygon class="cls-25" points="691.5 206 695.75 210.58 704.92 202.75 701.92 201 696.25 206.25 693.58 203.33 691.5 206"/><polygon class="cls-25" points="440.92 198.33 453.08 198.58 452.92 201.33 441 200.92 440.92 198.33"/><polygon class="cls-9" points="186.68 128.47 201.63 180.29 199.13 185 182.09 201.71 166.36 162.22 186.68 128.47"/><polygon class="cls-14" points="239.85 211.75 239.35 225.72 267.87 219.64 256.07 205.5 239.85 211.75"/><polygon class="cls-16" points="222.89 202.04 234.11 198.02 256.07 205.5 239.35 225.72 225.71 218.32 222.89 202.04"/><polygon class="cls-14" points="201.63 180.29 234.11 198.02 225.71 218.32 182.09 201.71 201.63 180.29"/></g><g id="hand"><polygon class="cls-10" points="547.6 169.03 577.07 168.16 578.87 178.51 577.09 186.29 556.43 184.59 547.6 169.03"/><polygon class="cls-12" points="581.9 169.68 583.49 172.85 585.8 196.62 582.4 194.66 579.47 170.66 581.9 169.68"/><polygon class="cls-28" points="556.42 184.5 577.07 168.16 584.29 181.06 578.98 191.38 562.77 195.89 556.42 184.5"/><polygon class="cls-29" points="582.4 194.66 562.77 195.89 584.29 181.06 582.4 194.66"/><polygon class="cls-1" points="583.08 157.29 584.29 181.06 566.06 148.48 572.71 138.33 583.08 157.29"/><polygon class="cls-2" points="577.11 121.8 585.68 149.67 581.46 158.5 566.06 148.48 577.11 121.8"/><polygon class="cls-4" points="588.92 146.92 577.11 121.8 584.29 181.06 588.92 146.92"/><polygon class="cls-29" points="626.51 129.66 620.84 127.15 619.22 135.92 628.45 134.95 626.51 129.66"/><polygon class="cls-10" points="674.87 187.1 638.17 190.83 629.83 149.85 638.24 136.57 650.08 145.94 674.87 187.1"/><polygon class="cls-28" points="629.83 149.85 650.08 145.94 645.14 126.09 620.84 127.15 629.83 149.85"/></g></svg>