<svg id="ILLUSTRATION" xmlns="http://www.w3.org/2000/svg" viewBox="0 0 900 350"><defs><style>.cls-1{fill:#dddddb;}.cls-2{fill:#ebecea;}.cls-3{fill:#5a753d;}.cls-4{fill:#709d52;}.cls-5{fill:#3f8f6f;}.cls-6{fill:#36785d;}.cls-7{fill:#54b08b;}.cls-8{fill:#74c7a5;}.cls-9{fill:#738d56;}.cls-10{fill:#99c26c;}.cls-11{fill:#3d8e6e;}.cls-12{fill:#53af8a;}.cls-13{fill:#35775b;}.cls-14{fill:#72c6a4;}.cls-15{fill:#4faf87;}.cls-16{fill:#dddddc;}.cls-17{fill:#ececeb;}.cls-18{fill:#c4c4c3;}.cls-19{fill:#a3a2a2;}.cls-20{fill:#cfcecd;}.cls-21{fill:#2b2b2b;}.cls-21,.cls-39{opacity:0.1;}.cls-22{fill:#738d58;}.cls-23{fill:#4f5253;}.cls-24{fill:#d0ae95;}.cls-25{fill:#a8836c;}.cls-26{fill:#eed3c2;}.cls-27{fill:#6f9c52;}.cls-28{fill:#b7c644;}.cls-29{fill:#d8e156;}.cls-30{fill:#474748;}.cls-31{fill:#f6e5db;}.cls-32{fill:#fff;}.cls-33,.cls-39{fill:#2a2b2a;}.cls-34{fill:#8f8f8f;}.cls-35{fill:#36795d;}.cls-36{fill:#3e8e6f;}.cls-37{fill:#a2a2a3;}.cls-38{fill:#cececd;}.cls-40{fill:#98c26c;}.cls-41{fill:#a17f6e;}.cls-42{fill:#c3977b;}.cls-43{fill:#debca4;}.cls-44{fill:#44612d;}.cls-45{fill:#e5e87b;}.cls-46{fill:#8b6752;}.cls-47{fill:#e8cab6;}.cls-48{fill:#707274;}.cls-49{fill:#d0ab91;}.cls-50{fill:#b28b71;}.cls-51{fill:#c4c3c3;}.cls-52{fill:#9ca1a1;}.cls-53{fill:#73c6a4;}.cls-54{fill:#805b4c;}.cls-55{fill:#593e35;}.cls-56{fill:#a98c80;}</style></defs><title>diplomats_Protagonist_ENFJ_strengths</title><polygon class="cls-1" points="575.11 21.01 541.8 7.83 469.35 17.3 555.6 46.28 595.35 41.37 617.58 44.47 692.1 17.3 621.32 4.95 575.11 21.01"/><polygon class="cls-2" points="692.1 17.3 628.4 0.01 592.02 6.7 546.38 -0.81 469.35 17.3 537.63 15.24 574.69 31.71 629.65 14.42 692.1 17.3"/><g id="trees"><polygon class="cls-3" points="828.5 200.5 830.5 236 843.75 276 817 287 803 223 828.5 200.5"/><polygon class="cls-4" points="798.38 173.63 798 178.13 817.75 190.5 816.13 178.56 803.06 173.63 798.38 173.63"/><polygon class="cls-3" points="796.13 157.38 803.06 173.63 798 178.13 787.25 159.25 796.13 157.38"/><path class="cls-4" d="M841.93,173.88v-3l9.68-18.66s5.2-3.76,5.14-3.56-8.56,26.57-8.56,26.57Z"/><polygon class="cls-3" points="830.63 187.25 848.19 175.2 841.93 170.85 826.92 177.14 830.63 187.25"/><polygon class="cls-4" points="837.58 155.68 830.5 236 820.46 192.03 819.67 153.04 837.58 155.68"/><polygon class="cls-3" points="827.31 154.36 827.51 162.85 821.25 199.4 817.04 193.34 812.56 151.2 827.31 154.36"/><polygon class="cls-5" points="863.07 142.7 867.42 149.81 827.51 162.85 782.58 165.31 829.48 130.85 863.07 142.7"/><polygon class="cls-6" points="816.45 142.31 847.46 141.71 867.42 149.81 900.17 125.17 822.17 125.32 816.45 142.31"/><polygon class="cls-6" points="832.05 128.68 847.46 141.71 782.58 165.31 755.79 133.42 803.41 108.33 832.05 128.68"/><polygon class="cls-5" points="862.48 128.28 847.46 141.71 804.39 123.28 847.46 107.34 862.48 128.28"/><polygon class="cls-7" points="827.71 113.27 884.5 101.38 900.17 125.17 847.46 141.71 848.91 119.85 827.71 113.27"/><polygon class="cls-5" points="811.31 109.71 804.39 123.28 763.97 129.52 747.38 125.63 747 113.9 766.67 97.37 811.31 109.71"/><polygon class="cls-7" points="856.81 107.73 848.91 119.85 804.39 123.28 766.67 97.37 839.16 92.45 856.81 107.73"/><polygon class="cls-5" points="850.23 88.24 867 90.88 884.5 101.38 848.91 119.85 839.69 105.36 850.23 88.24"/><polygon class="cls-8" points="844.17 87.98 856.29 71.91 815.72 59 789.64 73.75 844.17 87.98"/><polygon class="cls-8" points="806.5 90.61 839.69 105.36 867 90.88 856.29 71.91 806.76 81.39 806.5 90.61"/><polygon class="cls-5" points="816.77 80.34 789.64 73.75 768.63 82.63 766.67 97.37 839.69 105.36 824.15 88.5 816.77 80.34"/><polygon class="cls-7" points="789.64 73.75 816.77 75.33 856.29 71.91 824.15 88.5 789.64 73.75"/><polygon class="cls-9" points="125.63 122.25 105.87 151.81 102 146 120.63 124.5 125.63 122.25"/><polygon class="cls-10" points="87.44 232.21 89.05 189.16 82.29 189.8 74.89 191.41 77.17 229.5 78.03 235.59 87.44 232.21"/><polygon class="cls-3" points="65.5 192.75 65.75 215.5 48.25 289.5 80 286.67 83.82 198.09 79.15 189.64 65.5 192.75"/><polygon class="cls-3" points="95.57 118.57 105.87 151.81 99.84 156.88 99.43 149.64 93.08 118.73 95.57 118.57"/><polygon class="cls-9" points="105.87 151.81 89.05 189.16 81.65 168.15 99.43 149.64 105.87 151.81"/><polygon class="cls-3" points="35.69 123.24 42.86 153.26 43.42 155.84 37.47 154.47 31.83 123.64 35.69 123.24"/><polygon class="cls-9" points="42.86 153.26 72.63 167.1 77.22 177 72.31 177.97 37.47 154.47 42.86 153.26"/><polygon class="cls-9" points="89.05 189.16 87.36 176.12 72.47 170.24 72.31 177.97 68.5 199.5 83.82 198.09 89.05 189.16"/><polygon class="cls-10" points="89.05 189.16 85.75 163.8 79.8 156.32 72.88 158.41 72.31 177.97 89.05 189.16"/><polygon class="cls-3" points="85.75 163.8 65.95 117.29 54.83 117.58 72.88 158.41 85.75 163.8"/><polygon class="cls-6" points="142.25 122.29 48.73 145.78 34.73 133.87 62.74 120.26 116.74 113.26 142.81 110.06 142.25 122.29"/><polygon class="cls-11" points="34.73 133.87 21.37 133.38 24.51 118.01 22.82 114.23 102.33 116.97 112.15 104.65 131.39 92.66 142.81 110.06 105.87 121.96 79.4 135.07 34.73 133.87"/><polygon class="cls-12" points="24.51 118.01 22.66 102.16 31.51 94.75 36.98 91.21 38.11 93.87 121.41 90.89 131.39 92.66 119.31 102.4 105.87 121.96 60.4 120.18 24.51 118.01"/><polygon class="cls-13" points="24.51 118.01 0.17 79.17 26.76 90.57 35.61 94.99 24.51 118.01"/><polygon class="cls-12" points="0.17 79.17 32.88 73.42 74.57 63.6 109.5 62.4 82.05 79.62 35.61 94.99 0.17 79.17"/><polygon class="cls-14" points="32.88 73.42 39.8 50.23 91.79 52.34 137.18 39.38 113.6 59.26 109.5 62.4 32.88 73.42"/><polygon class="cls-15" points="39.8 50.23 137.18 39.38 72.71 67.71 39.8 50.23"/><polygon class="cls-12" points="137.18 39.38 142.74 83.81 131.39 92.66 116.02 81.63 109.5 62.4 137.18 39.38"/><polygon class="cls-11" points="109.5 62.4 35.61 94.99 131.39 92.66 109.5 62.4"/><polygon class="cls-4" points="93.25 224.75 75.33 221 70.17 267.83 95.08 267.08 93.25 224.75"/></g><g id="clouds"><polygon class="cls-16" points="240.61 43.93 223.37 48.66 199.01 32.45 151.67 45.33 202.84 69.59 240.33 60 264.7 67.23 320.67 49 264.7 40.56 240.61 43.93"/><path class="cls-17" d="M151.67,45.33l54.18-16.25,28.48,5.59,38-4.24L320.67,49s-60.62-5.74-62-5.07-29.56,11.14-29.56,11.14L196,40.22Z"/></g><g id="ground"><polygon class="cls-18" points="661 245 540 249.61 605 314.27 715 305.76 661 245"/><polygon class="cls-18" points="791 303.21 899.67 301.51 844 276 753.15 256.06 657 246.21 653 308.31 791 303.21"/><polygon class="cls-18" points="198 312.57 105 337.24 1 282.79 130.75 244.25 238 292.15 198 312.57"/><polygon class="cls-16" points="695 329.58 773.5 338.94 899.67 301.51 716.33 277.97 627.33 303.78 695 329.58"/><polygon class="cls-16" points="656.33 329.01 663.67 308.03 700.5 299.59 716.33 274.57 591 258.55 532.33 299.52 656.33 329.01"/><polygon class="cls-17" points="344.17 260.1 362.67 238.84 445.33 259.82 381.33 271.16 344.17 260.1"/><polygon class="cls-19" points="403.5 278.11 363 258.5 522.5 236 589 276.84 459.5 286.62 403.5 278.11"/><polygon class="cls-20" points="411.67 312.57 462.33 287.61 362.25 258 192.25 251.5 263.67 313.13 389 327.88 411.67 312.57"/><polygon class="cls-16" points="341 331.85 324.25 306.4 351.67 296.12 462.33 287.61 576.33 321.07 435.25 350 341 331.85"/><polygon class="cls-18" points="529 303.21 435.25 350 773.5 338.94 663.67 308.03 529 303.21"/><polygon class="cls-20" points="183.67 280.81 165 300.23 281 342.63 435.25 350 324.25 306.4 183.67 280.81"/><polygon class="cls-19" points="183.67 280.81 165 298 105 337.24 281 342.63 324.25 306.4 202 260.75 183.67 280.81"/></g><g id="shadows"><polygon class="cls-21" points="46.5 285.25 182.25 319 294.75 295.25 351.88 317.38 403.17 292.17 328.25 267.25 300.25 241 93 236.25 88.25 272.5 46.5 285.25"/><polygon class="cls-21" points="713 252 754 256.67 843.75 276 690.67 315.83 535.33 313.67 489.67 323.33 411 291.67 463.25 271.25 591.17 241.67 613 247.33 659.67 245.5 713 252"/></g><polygon class="cls-3" points="749.34 263.55 755.42 270.94 755.64 277.47 732.59 277.69 731.72 268.77 749.34 263.55"/><polygon class="cls-22" points="733.46 242.67 752.82 255.29 755.42 270.94 722.8 270.51 733.46 242.67"/><polygon class="cls-23" points="761.95 205.27 752.82 255.29 731.07 256.15 725.41 223.53 761.95 205.27"/><polygon class="cls-3" points="750.21 135.68 763.63 128.74 782.25 164.53 758.9 179.17 750.21 135.68"/><polygon class="cls-24" points="641.04 148.73 631.03 152.64 614.07 144.23 619.87 129.15 637.99 133.94 641.04 148.73"/><polygon class="cls-25" points="657.71 154.24 645.97 155.4 631.03 152.64 635.53 134.52 654.08 145.1 657.71 154.24"/><polygon class="cls-26" points="657.85 146.99 648.86 139.59 643.07 130.02 629.87 126.47 627.7 131.33 635.53 134.52 639.59 143.8 650.31 150.75 657.85 146.99"/><polygon class="cls-24" points="688.44 144.38 672.35 142.2 648.86 139.59 645.97 155.4 677.87 167.46 688.44 144.38"/><polygon class="cls-3" points="706.28 140.46 690.59 128.19 672.35 142.2 677.87 167.46 701.06 160.03 706.28 140.46"/><polygon class="cls-22" points="712.31 115.97 698.45 139.45 696.71 188.74 760.21 187.44 763.63 128.74 752.09 120.05 712.31 115.97"/><polygon class="cls-27" points="712.31 115.97 690.59 128.19 696.71 188.74 717.59 204.69 716.52 137.56 734.11 118.28 712.31 115.97"/><polygon class="cls-28" points="728.33 109.73 716.52 137.56 701.31 122.19 708.37 114.07 728.33 109.73"/><polygon class="cls-29" points="743.54 107.83 746.66 113.12 752.09 120.05 716.52 137.56 716.93 126.97 743.54 107.83"/><polygon class="cls-30" points="711.77 67.91 687.87 75.78 676.47 58.41 692.96 50.8 692.96 38.58 727.38 34.92 737.16 47.34 749.38 48.36 753.86 74.43 723.17 89.63 711.77 67.91"/><polygon class="cls-30" points="711.77 67.91 687.87 75.78 676.47 58.41 692.96 50.8 692.96 38.58 727.38 34.92 737.16 47.34 749.38 48.36 753.86 74.43 723.17 89.63 711.77 67.91"/><polygon class="cls-23" points="703.55 67.3 686.24 63.99 676.47 58.41 692.96 38.58 707.63 54.36 727.38 34.92 749.38 48.36 735.8 61.49 703.55 67.3"/><polygon class="cls-24" points="699.82 109.73 716.93 126.97 746.66 113.12 750.19 92.62 743.27 80.27 740.28 77.82 735.8 61.49 699.82 109.73"/><polygon class="cls-25" points="729.55 104.98 735.93 112.53 740.01 112.85 735.26 118.55 716.93 126.97 699.41 109.59 729.55 104.98"/><polygon class="cls-25" points="748.83 80.54 740.82 86.65 750.19 92.62 751.28 87.6 748.83 80.54"/><polygon class="cls-26" points="686.24 63.99 687.97 112.96 735.93 112.53 735.8 61.49 707.63 54.36 686.24 63.99"/><polygon class="cls-24" points="700.03 70.09 704.48 72.6 705.28 75.75 712.17 77.7 714.39 75.62 714.97 72.39 722.94 69.87 730.26 71.31 720.28 78.7 714.87 89.59 711.16 84.38 705.28 89.72 698.88 78.56 690.48 70.73 700.03 70.09"/><polygon class="cls-25" points="711.79 82.88 705.28 89.72 710.08 93.22 714.87 89.59 711.79 82.88"/><polygon class="cls-31" points="705.28 75.75 705.28 89.72 714.87 89.59 714.39 75.62 705.28 75.75"/><polygon class="cls-25" points="699.77 96.27 720.52 95.55 717.34 105.2 704.08 105 699.77 96.27"/><polygon class="cls-32" points="703.37 98.15 717.82 97.53 716.24 103.15 705.69 103.35 703.37 98.15"/><circle class="cls-33" cx="697.92" cy="80.38" r="2.77"/><circle class="cls-33" cx="721.96" cy="80.03" r="2.77"/><polygon class="cls-23" points="690.48 70.73 699.38 68.15 704.48 72.6 690.48 70.73"/><polygon class="cls-23" points="714.97 72.39 722.15 67.5 730.26 71.31 714.97 72.39"/><polygon class="cls-26" points="740.82 86.65 751.28 87.6 753.86 74.43 743.27 71.98 740.82 86.65"/><polygon class="cls-25" points="750.65 77.35 746.13 77.35 746.13 84.27 750.65 77.35"/><g id="table"><polygon class="cls-6" points="85.92 238.23 93.02 283.9 108.24 281.29 124.77 230.69 83.02 229.53 85.92 238.23"/><polygon class="cls-5" points="324.26 249.25 316 286 299.91 284.26 279.03 231.85 328.32 224.31 324.26 249.25"/><polygon class="cls-5" points="209.44 209.24 180.46 302.22 165 298 159.68 260.85 100.67 251.33 93.02 283.9 78.96 281.15 74.32 204.6 209.44 209.24"/><polygon class="cls-7" points="337.6 206.92 329.48 281.73 316 286 309.08 254.11 206.43 262.59 200.03 300.33 180.46 302.22 180.88 221.27 337.6 206.92"/><polygon class="cls-34" points="206.54 191.69 180.67 228.33 64.5 220.25 58.66 191.26 206.54 191.69"/><polygon class="cls-19" points="197.84 196.48 210.02 196.27 351.81 193.87 350 219.67 180.67 228.33 181.31 202.57 197.84 196.48"/><polygon class="cls-20" points="351.81 193.87 181.31 202.57 58.66 191.26 229.16 186.91 351.81 193.87"/><polygon class="cls-35" points="651.47 258.62 659.59 274.86 674.09 272.54 683.08 230.78 649.73 234.26 651.47 258.62"/><polygon class="cls-12" points="635.82 223.82 644.23 273.41 659.59 274.86 658.43 229.62 635.82 223.82"/><polygon class="cls-36" points="813.71 237.45 806.6 283.12 791.38 280.51 774.85 229.91 816.61 228.75 813.71 237.45"/><polygon class="cls-35" points="575.36 248.47 583.91 281.82 600.01 280.08 620.59 231.07 571.3 223.53 575.36 248.47"/><polygon class="cls-12" points="690.18 208.46 719.18 291.96 733.97 290.08 743.54 242.67 796.31 238.61 806.6 283.12 820.66 280.37 825.3 203.82 690.18 208.46"/><polygon class="cls-36" points="562.02 206.14 570.14 280.95 583.91 281.82 594.79 236.15 688.73 243.11 699.61 290.08 719.18 291.96 718.75 220.49 562.02 206.14"/><polygon class="cls-37" points="693.08 190.91 718.75 220.49 838.79 210.05 840.96 190.48 693.08 190.91"/><polygon class="cls-34" points="701.78 195.7 689.6 195.49 547.81 193.09 549.12 211.79 718.75 220.49 718.31 201.79 701.78 195.7"/><polygon class="cls-38" points="547.81 193.09 718.31 201.79 840.96 190.48 670.47 186.13 547.81 193.09"/></g><g id="flowers"><polygon class="cls-21" points="635.05 323.25 648.76 320.66 665.21 323.46 646.74 327.17 635.05 323.25"/><polygon class="cls-3" points="646.11 311.98 647.58 324.23 650.23 324.16 651 315.55 646.11 311.98"/><polygon class="cls-4" points="631.83 307.58 648.9 301 669.47 309.82 651 315.55 631.83 307.58"/><polygon class="cls-32" points="650.02 305.13 644.5 307.23 650.44 310.1 653.73 307.65 650.02 305.13"/><polygon class="cls-21" points="255.95 332.6 269.66 330.01 286.1 332.81 267.63 336.52 255.95 332.6"/><polygon class="cls-3" points="267 321.33 268.47 333.58 271.13 333.51 272.17 319.5 267 321.33"/><polygon class="cls-4" points="252.73 316.93 269.8 310.35 290.37 319.16 267.58 325.58 252.73 316.93"/><polygon class="cls-32" points="270.08 315.39 264.56 317.49 270.5 320.36 274.5 318.38 270.08 315.39"/><polygon class="cls-21" points="105.63 313.13 116.55 311.07 129.64 313.3 114.94 316.25 105.63 313.13"/><polygon class="cls-3" points="114.43 304.16 115.6 313.91 117.72 313.85 118.33 307 114.43 304.16"/><polygon class="cls-4" points="103.07 300.65 116.66 295.41 133.04 302.43 118.33 307 103.07 300.65"/><polygon class="cls-32" points="117.55 298.7 113.15 300.37 117.89 302.65 120.51 300.7 117.55 298.7"/><polygon class="cls-21" points="227.65 298.03 237.52 296.16 249.36 298.18 236.06 300.85 227.65 298.03"/><polygon class="cls-3" points="235.61 289.92 236.66 298.73 238.58 298.68 239.13 292.49 235.61 289.92"/><polygon class="cls-4" points="225.33 286.74 242.79 281.98 252.43 288.35 239.13 292.49 225.33 286.74"/><polygon class="cls-32" points="241.22 285 234.45 286.49 238.73 288.56 242.79 286.39 241.22 285"/><polygon class="cls-21" points="790.29 305.48 797.36 304.14 805.85 305.59 796.32 307.5 790.29 305.48"/><polygon class="cls-3" points="795.99 299.67 796.75 305.98 798.12 305.95 798.52 301.51 795.99 299.67"/><polygon class="cls-4" points="788.63 297.39 800 293 808.05 298.55 798.52 301.51 788.63 297.39"/><polygon class="cls-32" points="800.38 296.25 795.16 297.21 798.23 298.69 801.3 297.8 800.38 296.25"/><polygon class="cls-21" points="722.51 328.11 732.03 326.32 743.44 328.26 730.62 330.83 722.51 328.11"/><polygon class="cls-3" points="730.18 320.29 731.2 328.79 733.05 328.75 733.58 322.77 730.18 320.29"/><polygon class="cls-4" points="720.27 317.23 732.12 312.67 746.4 318.79 730.67 323.67 720.27 317.23"/><polygon class="cls-32" points="732.9 315.53 729.06 316.99 731 320 735.48 317.28 732.9 315.53"/></g><g id="something_on_the_table" data-name="something on the table"><polygon class="cls-21" points="237.75 189.09 208.61 191.48 254.71 198.87 301.97 196.41 282.76 192.13 237.75 189.09"/><polygon class="cls-21" points="140.76 188.43 133.15 191.69 119.66 192.78 160.33 200.61 212.74 197.57 186.21 193 140.76 188.43"/><polygon class="cls-3" points="190.48 189.52 204.4 178.94 166.13 169.8 129.59 175.89 169.61 193.72 190.48 189.52"/><polygon class="cls-7" points="176.13 175.31 171.2 167.19 183.53 159.22 192.51 167.48 190.92 183.28 180.19 183.28 176.13 175.31"/><polygon class="cls-5" points="175.12 184.74 169.17 179.23 171.2 167.19 180.91 170.53 186.28 184.59 175.12 184.74"/><polygon class="cls-7" points="157.14 174.01 153.15 168.93 160.04 160.23 171.2 167.19 174.1 184.01 159.31 184.01 157.14 174.01"/><polygon class="cls-5" points="158.44 185.6 152.35 178.79 153.15 168.93 163.52 170.96 165.11 179.37 158.44 185.6"/><polygon class="cls-7" points="142.06 176.54 135.97 170.67 142.82 163.39 153.15 168.93 156.31 181.98 142.28 186.55 142.06 176.54"/><polygon class="cls-5" points="144.09 189.52 138.29 181.4 135.97 170.67 148.15 174.59 150.87 189.48 144.09 189.52"/><polygon class="cls-10" points="153.8 188.5 165.11 179.37 204.4 178.94 200.92 196.04 160.55 198.36 153.8 188.5"/><polygon class="cls-9" points="132.2 193.58 129.59 175.89 165.11 179.37 160.55 198.36 132.2 193.58"/><polygon class="cls-10" points="139.56 152.62 138.58 158.06 142.82 163.39 143.69 156.65 139.56 152.62"/><polygon class="cls-10" points="163.66 150.3 158.88 154.43 160.04 160.23 164.31 155.59 163.66 150.3"/><polygon class="cls-10" points="179.32 149.22 178.45 155.16 183.53 159.22 183.81 153.42 179.32 149.22"/><polygon class="cls-6" points="250.22 186.47 229.19 176.62 267.18 172.7 289.65 180.39 250.22 186.47"/><polygon class="cls-9" points="255.15 166.76 252.53 172.41 254.56 179.95 250.22 181.98 249.82 176.36 251.38 168.06 255.15 166.76"/><polygon class="cls-10" points="246.3 168.64 240.47 166.14 247.61 156.03 258.19 165.89 249.82 176.36 246.3 168.64"/><polygon class="cls-9" points="240.47 166.14 253.84 164.62 249.82 176.36 240.47 166.14"/><polygon class="cls-9" points="283.13 169.66 280.52 175.31 282.55 182.85 278.2 184.88 277.8 179.26 279.36 170.96 283.13 169.66"/><polygon class="cls-10" points="274.28 171.54 268.45 169.04 277.91 162.26 286.17 168.79 277.8 179.26 274.28 171.54"/><polygon class="cls-9" points="268.45 169.04 281.82 167.52 277.8 179.26 268.45 169.04"/><polygon class="cls-9" points="268.48 159.8 265.87 165.45 269.21 184.3 264.86 186.33 263.15 169.4 264.71 161.1 268.48 159.8"/><polygon class="cls-10" points="259.64 161.68 253.8 159.18 269.06 150.23 271.53 158.93 263.15 169.4 259.64 161.68"/><polygon class="cls-9" points="253.8 159.18 267.18 157.66 263.15 169.4 253.8 159.18"/><polygon class="cls-5" points="263.41 184.88 255.15 195.61 223.83 192.27 229.19 176.62 254.56 179.95 263.41 184.88"/><polygon class="cls-7" points="255.15 195.61 254.56 179.95 289.65 180.39 289.36 194.45 255.15 195.61"/><polygon class="cls-39" points="696.05 193.85 680.83 196.79 717.15 200.38 769.56 194.07 754.34 190.48 696.05 193.85"/><polygon class="cls-39" points="607.33 190.81 587.21 195.16 656.69 198.63 694.64 192.22 676.7 189.72 607.33 190.81"/><polygon class="cls-35" points="753.36 187.76 766.88 179.17 725.85 172 688.3 178.01 753.36 187.76"/><polygon class="cls-29" points="745.26 177.59 749.93 174.93 753.79 181.62 742.43 183.79 745.26 177.59"/><polygon class="cls-28" points="734.22 182.16 736.87 174.97 742.43 172.38 749.93 174.93 746.02 181.13 734.22 182.16"/><polygon class="cls-29" points="723.82 175.84 729.18 170.47 736.87 174.97 737.59 182.22 725.41 187 723.82 175.84"/><polygon class="cls-28" points="713.38 180.33 720.77 170.76 729.18 170.47 732.37 176.27 731.21 185.12 716.42 186.13 713.38 180.33"/><polygon class="cls-28" points="699.64 186.95 695.29 179.7 701.53 173.9 712.69 172.74 717.62 179.84 710.81 187.67 699.64 186.95"/><polygon class="cls-29" points="705.73 186.66 712.69 172.74 720.09 181 705.73 186.66"/><polygon class="cls-12" points="708.02 187.87 716.13 197.73 761.37 193.38 766.88 179.17 719.9 180.62 708.02 187.87"/><polygon class="cls-3" points="638.21 186.56 601.89 176.85 643.21 170.69 684.82 177.43 638.21 186.56"/><polygon class="cls-22" points="620.4 160.67 619.14 159.38 619.44 157.38 622.88 156.72 623.35 158.15 620.4 160.67"/><polygon class="cls-28" points="624.94 165.04 621.25 158.73 619.14 159.38 617.8 171.38 621.03 181.13 633.5 181.53 624.94 165.04"/><polygon class="cls-29" points="640.31 183.52 628.64 170.98 623.35 158.15 621.25 158.73 622.84 170.76 630.74 183.52 640.31 183.52"/><polygon class="cls-22" points="676.13 164.58 677.39 163.3 677.09 161.3 673.65 160.63 673.18 162.06 676.13 164.58"/><polygon class="cls-28" points="671.59 168.95 675.29 162.64 677.39 163.3 678.73 175.29 675.5 185.04 663.04 185.44 671.59 168.95"/><polygon class="cls-29" points="656.22 187.44 667.89 174.89 673.18 162.06 675.29 162.64 673.69 174.68 665.79 187.44 656.22 187.44"/><polygon class="cls-22" points="603.85 164.89 602.69 163.59 602.42 161.25 606.86 159.69 607.75 161.47 603.85 164.89"/><polygon class="cls-28" points="607.91 165.47 605.08 162.57 602.69 163.59 604.72 177.79 620.81 181.71 607.91 165.47"/><polygon class="cls-29" points="624.65 179.46 613.27 171.05 607.75 161.47 605.08 162.57 608.41 172.79 617.48 182.29 624.65 179.46"/><polygon class="cls-22" points="649.54 157.67 649.2 156.59 650.3 154.9 654.48 156.27 654 158.62 649.54 157.67"/><path class="cls-29" d="M642.78,173.08l9.06-15.53,2.2.91-2.06,8-.22,2.53.51,7.11L645,184.75s-2.61-3.91-2.61-4.13S642.78,173.08,642.78,173.08Z"/><polygon class="cls-28" points="638.57 180.11 641.33 168.37 649.2 156.59 651.84 157.55 647.63 167.5 645.24 181.06 638.57 180.11"/><polygon class="cls-22" points="661.53 167.92 661.53 161.23 664.09 159.27 667.78 160.74 666.97 162.53 661.53 167.92"/><polygon class="cls-29" points="657.02 169.17 664.73 162.02 666.97 162.53 662.46 172.76 661.15 180.26 653.32 181.56 657.02 169.17"/><polygon class="cls-28" points="648.1 181.18 651.8 169.06 661.53 161.23 664.73 162.02 659.09 171.02 656.98 179.75 648.1 181.18"/><polygon class="cls-40" points="640.17 185.55 653.79 195.7 682.79 191.64 684.82 177.43 656.98 179.75 640.17 185.55"/><polygon class="cls-22" points="601.89 176.85 604.21 193.09 653.79 195.7 656.98 179.75 601.89 176.85"/><polygon class="cls-36" points="688.3 178.01 691.2 195.99 716.13 197.73 719.9 180.62 688.3 178.01"/><polygon class="cls-24" points="733.24 175.15 726.86 168.59 712.69 172.74 714.03 185.55 729.44 188.52 733.24 175.15"/><polygon class="cls-26" points="752.38 176.78 741.07 170.18 726.86 168.59 729.44 188.52 744.33 185.91 752.38 176.78"/><polygon class="cls-24" points="782.25 164.53 741.07 170.18 744.33 185.91 776.08 185.69 782.25 164.53"/></g><polygon class="cls-41" points="412.53 197.15 408.32 202.51 391.65 203.09 387.88 192.8 403.97 185.26 412.53 197.15"/><polygon class="cls-42" points="424.27 190.19 422.24 198.59 408.32 202.51 403.25 188.74 421.08 185.4 424.27 190.19"/><circle class="cls-40" cx="397.66" cy="193.95" r="10.66"/><path class="cls-39" d="M401.32,181.81l-3.67,4.74-10.4,4.86a11.81,11.81,0,0,1,5.4-6.9,10.64,10.64,0,0,1,7.75-1Z"/><polygon class="cls-12" points="399.49 179.62 403.47 173.83 402.95 183.37 397.65 186.55 399.49 179.62"/><polygon class="cls-35" points="403.47 173.83 398.88 176.8 397.65 186.55 403.47 173.83"/><polygon class="cls-43" points="422.09 185.62 416.44 183.81 406.65 181.92 394.04 187.36 395.56 190.62 404.26 188.66 413.39 192.58 423.18 188.23 422.09 185.62"/><polygon class="cls-44" points="459.09 277.25 458.48 195.99 465.7 182.82 502.36 167.91 549.61 193.89 566.9 286.09 550.85 300.06 458.44 300.31 443.93 297.17 459.09 277.25"/><polygon class="cls-36" points="473.13 266.52 493.78 274.93 490.72 290.11 480.09 290.11 473.13 284.08 473.13 266.52"/><polygon class="cls-12" points="473.13 284.08 459.92 297.17 472.68 300.06 491.03 297.17 490.72 290.11 473.13 284.08"/><polygon class="cls-36" points="459.92 303.03 491.03 303.03 491.03 297.17 464.79 297.17 454.48 293.29 459.92 303.03"/><polygon class="cls-35" points="473.13 266.52 492.06 282.69 493.78 274.93 483.46 266.52 473.13 266.52"/><polygon class="cls-28" points="546.43 123.71 562.36 143.1 570.84 153 554.59 181.99 453.84 173 454.61 135.38 470.81 132.56 546.43 123.71"/><polygon class="cls-45" points="467.62 127.42 546.43 123.71 567.84 138.45 570.84 153 556.93 147.5 467.18 145.1 454.61 135.38 467.62 127.42"/><polygon class="cls-36" points="520.96 275.93 524.21 288.84 534.84 290.11 544.38 286.09 542.75 271.13 520.96 275.93"/><polygon class="cls-12" points="544.38 286.09 550.85 300.06 523.76 300.06 524.21 288.84 544.38 286.09"/><polygon class="cls-36" points="523.76 304.93 550.85 304.93 550.85 300.06 537.31 295.9 523.76 300.06 523.76 304.93"/><polygon class="cls-35" points="542.75 271.13 522.66 282.69 520.96 275.93 527.64 270.01 542.75 271.13"/><polygon class="cls-3" points="505.41 217.54 520.96 266.52 504.68 279.51 473.13 266.52 473.22 218.82 485.56 213.33 505.41 217.54"/><polygon class="cls-27" points="538.31 229.1 542.75 271.13 504.68 279.51 505.41 217.54 538.31 229.1"/><polygon class="cls-3" points="473.22 154.57 467.18 145.1 445 176.41 440.22 190.77 458.48 195.99 476.75 177.43 473.22 154.57"/><polygon class="cls-3" points="540.18 141.42 515.68 154.26 493.46 171.4 505.41 217.54 537.52 217.54 537.52 206.74 550.85 172.35 540.18 141.42"/><polygon class="cls-27" points="502.36 167.91 505.44 206.74 505.41 217.54 473.22 217.54 473.13 202.46 467.22 144.95 481.4 138.45 481.96 144.98 481.96 144.98 488.64 144.67 492.15 159.76 502.36 167.91"/><polygon class="cls-3" points="549.61 193.89 560.12 182.73 575.01 297.17 564.36 290.19 558.89 280.31 549.61 193.89"/><polygon class="cls-27" points="550.85 300.06 575.01 297.17 558.89 280.31 550.85 300.06"/><polygon class="cls-40" points="537.52 217.54 473.22 217.54 473.22 229.62 538.31 229.1 537.52 217.54"/><polygon class="cls-22" points="560.12 182.73 556.93 147.5 537.7 139.98 532.22 139.18 538.37 161.11 536.92 194.53 560.12 182.73"/><polygon class="cls-35" points="502.65 162.06 493.78 152.85 488.64 144.67 479.28 146.03 480.1 159.84 502.36 167.91 507.64 163.19 502.65 162.06"/><polygon class="cls-12" points="502.65 162.06 502.36 167.91 538.37 161.11 540.18 141.42 532.22 139.18 523.19 148.97 502.65 162.06"/><polygon class="cls-33" points="534.61 139.92 536.68 105.13 540.99 96.17 549.14 99.93 550.85 145.12 534.61 139.92"/><polygon class="cls-33" points="468.15 95.71 467.18 145.1 480.23 140.31 480.74 91.39 468.15 95.71"/><polygon class="cls-43" points="479.28 146.03 520.96 144.06 532.77 135.63 538.37 71.63 473.21 68.83 479.28 146.03"/><polygon class="cls-42" points="485.56 145.73 528.2 140.13 533.33 77.87 540.99 65.67 534.29 143.61 532.77 153.3 502.65 162.06 486.98 154.35 485.56 145.73"/><polygon class="cls-46" points="509.12 119.73 503 123.92 496.89 119.73 509.12 119.73"/><polygon class="cls-42" points="528.23 103.69 515.45 107.62 509.12 119.73 505.51 100.17 523.72 98.51 528.23 103.69"/><polygon class="cls-42" points="496.89 119.73 487.8 107.62 477.77 103.69 482.28 100.85 490.56 99.93 500.5 100.17 500.5 112.3 496.89 119.73"/><polygon class="cls-47" points="496.89 119.73 503 121.27 509.12 119.73 505.51 100.17 500.5 100.17 496.89 119.73"/><polygon class="cls-30" points="500.5 100.17 482.28 100.85 477.77 103.69 482.28 96.17 500.5 100.17"/><polygon class="cls-30" points="505.51 100.17 523.72 100.85 528.23 103.69 523.72 96.17 505.51 100.17"/><polygon class="cls-46" points="500.92 157.11 485.56 145.73 534.29 143.61 500.92 157.11"/><polygon class="cls-23" points="549.14 99.93 547.85 67.49 534.29 64.1 523.65 56 487.31 56 479.28 65.67 465.41 71.63 468.15 95.71 475.42 96.97 473.74 74.36 501.87 83.57 532.28 69.88 537.42 109.12 549.14 99.93"/><polygon class="cls-48" points="501.87 83.57 523.65 56 547.85 67.49 533.33 77.87 501.87 83.57"/><polygon class="cls-49" points="529.49 124.5 477.82 127.5 479.28 146.03 528.23 143.87 529.49 124.5"/><polygon class="cls-30" points="487.31 56 501.87 83.57 473.99 77.66 465.41 71.63 487.31 56"/><polygon class="cls-50" points="529.49 124.5 536.16 121.83 534.29 143.61 528.23 143.87 529.49 124.5"/><path class="cls-33" d="M484.41,107.62a3.1,3.1,0,1,0,3.1-3.1A3.1,3.1,0,0,0,484.41,107.62Z"/><path class="cls-33" d="M512.18,107.62a3.1,3.1,0,1,0,3.1-3.1A3.1,3.1,0,0,0,512.18,107.62Z"/><circle class="cls-28" cx="509.59" cy="195.12" r="7.61"/><path class="cls-39" d="M509.77,185.8l1.36,3.53-6.94,5.6-.11-5.14A8.52,8.52,0,0,1,508,187.7,1.94,1.94,0,0,0,509.77,185.8Z"/><circle class="cls-28" cx="488.57" cy="196.35" r="7.61" transform="translate(216.5 647.15) rotate(-80.78)"/><path class="cls-39" d="M488.88,188.36l-.44,1.78-3.15,1.44-.53-1.85a9.38,9.38,0,0,1,3.25-1C489.13,188.77,488.88,188.36,488.88,188.36Z"/><circle class="cls-29" cx="498.64" cy="195.12" r="7.61"/><circle class="cls-29" cx="479.94" cy="195.62" r="7.61" transform="translate(179.28 617.78) rotate(-76.72)"/><polygon class="cls-51" points="482.04 210.27 469.39 204.65 472.33 196.28 517.06 196.71 519.45 201.49 504.66 208.38 482.04 210.27"/><polygon class="cls-52" points="518.87 213.67 489.4 204.65 469.39 204.65 473.22 217.54 496.25 217.59 504.59 214.83 505.41 217.54 517.51 217.53 518.87 213.67"/><polygon class="cls-42" points="507.78 207.58 505.41 217.54 496.25 217.59 489.4 204.65 497.56 201.49 507.78 207.58"/><polygon class="cls-43" points="529.74 202.58 518.87 213.67 505.41 217.54 497.56 201.49 515.57 200.77 529.74 202.58"/><polygon class="cls-12" points="560.12 182.73 551.05 209.32 518.87 213.67 515.57 200.77 560.12 182.73"/><path class="cls-39" d="M478.77,188.28l.32,1.19-5.46,1.83a8.9,8.9,0,0,1,2.49-2.3,3.9,3.9,0,0,1,2-.65Z"/><polygon class="cls-12" points="475.92 186.3 474.68 180.51 479.72 185.11 479.09 189.47 475.92 186.3"/><polygon class="cls-35" points="474.68 180.51 474.12 187.2 479.09 189.47 474.68 180.51"/><polygon class="cls-12" points="507.96 186.16 506.72 180.37 510.89 183.84 511.13 189.33 507.96 186.16"/><polygon class="cls-35" points="506.72 180.37 507.05 187.43 511.13 189.33 506.72 180.37"/><polygon class="cls-12" points="488.55 185.66 491.88 180.77 492.44 184.86 488.44 190.14 488.55 185.66"/><polygon class="cls-35" points="491.88 180.77 486.66 184.98 488.44 190.14 491.88 180.77"/><path class="cls-39" d="M501.25,186.45l-2.62,3.38-7.42,3.47a8.42,8.42,0,0,1,3.86-4.92,7.57,7.57,0,0,1,5.53-.69Z"/><polygon class="cls-12" points="499.95 184.88 502.79 180.75 502.42 187.56 498.63 189.83 499.95 184.88"/><polygon class="cls-35" points="502.79 180.75 499.51 182.87 498.63 189.83 502.79 180.75"/><polygon class="cls-46" points="491.9 131.41 514.9 129.84 511.15 140.11 497.67 140.88 491.9 131.41"/><polygon class="cls-32" points="495.38 133.1 512.24 131.85 510.82 135.66 497.56 136.47 495.38 133.1"/><polygon class="cls-12" points="416.44 183.81 445 176.41 458.48 195.99 422.24 198.59 416.44 183.81"/><polygon class="cls-3" points="298.45 236.86 338.76 235.12 330.35 172.2 301.93 190.18 298.45 236.86"/><polygon class="cls-27" points="329.19 161.76 303.19 154.63 290.62 240.92 305.12 244.11 308.31 175.1 329.19 161.76"/><polygon class="cls-44" points="360.29 281.58 368.84 285.79 368.55 291.01 339.7 291.01 335.64 283.9 360.29 281.58"/><polygon class="cls-3" points="346.88 268.17 354.13 268.75 368.84 285.79 337.24 285.79 325.93 267.52 346.88 268.17"/><polygon class="cls-3" points="321 285.5 316.76 291.05 316.76 296.55 344.16 296.41 344.3 291.05 321 285.5"/><polygon class="cls-27" points="330.06 265.56 338.9 274.63 344.3 291.05 316.76 291.05 318.89 275.28 330.06 265.56"/><polygon class="cls-30" points="347.75 211.56 358.62 252.08 354.13 268.75 338.9 274.63 335.13 223.52 347.75 211.56"/><polygon class="cls-23" points="347.75 211.56 369.5 216.24 358.62 252.08 341.44 255.34 335.13 223.52 347.75 211.56"/><polygon class="cls-23" points="329.48 204.82 315.7 254.98 318.89 275.28 338.9 274.63 341.44 255.34 329.48 204.82"/><polygon class="cls-48" points="329.48 204.82 309.47 216.56 315.7 254.98 341.44 255.34 343.83 238.31 329.48 204.82"/><polygon class="cls-30" points="324.91 207.21 369.5 216.24 343.83 238.31 309.47 216.56 324.91 207.21"/><polygon class="cls-41" points="371.6 175.68 377.39 178.87 385.58 188.65 376.52 202.06 360.87 190.47 371.6 175.68"/><polygon class="cls-53" points="360 167.56 369.03 151.81 377.39 178.87 366.96 190.47 360 167.56"/><polygon class="cls-36" points="323.41 140.05 319.31 146.2 303.19 154.63 310.63 174.52 306.72 190.47 309.47 216.56 369.5 216.24 369.03 151.81 343.63 140.75 323.41 140.05"/><polygon class="cls-40" points="345.21 148.13 356.37 143.06 360.87 148.42 345.35 166.69 327.52 150.02 320.27 139.29 345.21 148.13"/><polygon class="cls-27" points="345.21 148.13 356.37 143.06 344.97 156.2 345.35 166.69 313.33 149.36 320.27 139.29 345.21 148.13"/><polygon class="cls-23" points="373.19 99.23 383.25 87.39 383.25 72.59 369.44 57.98 347.33 69.82 351.28 97.85 312.86 105.41 323.65 134.75 373.19 99.23"/><polygon class="cls-48" points="373.19 99.23 369.44 101 367.46 76.73 369.44 57.98 317.93 59.76 311.02 97.25 312.86 105.41 323.65 134.75 373.19 99.23"/><polygon class="cls-23" points="373.19 99.23 383.25 87.39 357.2 103.57 333.52 81.47 317.93 59.76 304.47 83.8 309.91 105.65 323.65 134.75 373.19 99.23"/><polygon class="cls-54" points="362.2 136.59 331.15 148.71 318.53 141.75 315.13 127.07 321.15 110.94 328.34 109 326.51 96.59 333.52 81.47 362.2 136.59"/><polygon class="cls-55" points="322.42 114.38 323.29 116.73 315.13 127.07 313.56 119.23 322.42 114.38"/><polygon class="cls-55" points="344.57 131.2 334.7 140.47 328.52 141.59 331.15 148.71 344.97 156.2 361.41 139.35 344.57 131.2"/><polygon class="cls-41" points="383.25 87.39 381.08 140.28 334.7 140.47 333.52 81.47 367.46 76.73 383.25 87.39"/><polygon class="cls-54" points="353.98 96.16 355.61 97.99 356.35 101.92 360.21 105.35 364.54 101.92 365.07 97.9 370.36 96.81 375.25 98.78 369.68 103.32 364.24 115.68 361 113.14 356.35 115.58 350.05 103.18 342.9 97.77 353.98 96.16"/><polygon class="cls-55" points="360.58 106.63 364.24 115.68 359.88 118.82 356.35 115.58 360.58 106.63"/><polygon class="cls-56" points="355.61 97.99 356.35 115.58 364.24 115.68 364.89 98.03 355.61 97.99"/><path class="cls-33" d="M352.56,102.94a2.74,2.74,0,1,1-2.74-2.74A2.74,2.74,0,0,1,352.56,102.94Z"/><path class="cls-33" d="M374.3,103.48a2.74,2.74,0,1,1-2.74-2.75A2.74,2.74,0,0,1,374.3,103.48Z"/><polygon class="cls-55" points="347.86 121.86 370.94 122.3 359.53 133.27 347.86 121.86"/><polygon class="cls-32" points="352.39 123.65 366.98 123.87 359.7 130.4 352.39 123.65"/><polygon class="cls-23" points="355.44 93.29 342.81 95.03 342.9 97.77 355.61 97.99 355.44 93.29"/><polygon class="cls-23" points="364.89 98.03 364.97 93.33 375.67 96.15 375.25 98.78 364.89 98.03"/><polygon class="cls-41" points="323.29 116.73 321.84 102.65 309.91 105.65 313.56 119.23 323.29 116.73"/><polygon class="cls-55" points="314.2 108.41 318.14 106.88 318.93 112.16 314.2 108.41"/><polygon class="cls-54" points="386.17 199.74 391.46 192.78 405.08 197.57 402.91 208.66 392.04 211.49 386.17 199.74"/><polygon class="cls-54" points="380.73 200.61 374.5 191.04 387.4 184.67 390.3 188.44 380.73 200.61"/><polygon class="cls-41" points="370.58 192.64 372.68 206.7 392.04 211.49 391.46 192.78 374.5 191.04 370.58 192.64"/><polygon class="cls-54" points="321.36 184.74 344.56 180.32 374.5 191.04 372.68 206.7 334.7 203.88 321.36 184.74"/><polygon class="cls-53" points="303.19 154.63 306.72 190.47 334.7 203.88 344.56 180.32 303.19 154.63"/></svg>