<svg id="illustration_kopia_3" data-name="illustration kopia 3" xmlns="http://www.w3.org/2000/svg" viewBox="0 0 900 350"><defs><style>.cls-1{fill:#c3c3c3;}.cls-1,.cls-10,.cls-11,.cls-12,.cls-13,.cls-14,.cls-15,.cls-16,.cls-17,.cls-18,.cls-19,.cls-20,.cls-21,.cls-22,.cls-23,.cls-24,.cls-25,.cls-26,.cls-27,.cls-28,.cls-29,.cls-3,.cls-30,.cls-31,.cls-32,.cls-33,.cls-34,.cls-4,.cls-5,.cls-6,.cls-7,.cls-8,.cls-9{fill-rule:evenodd;}.cls-2,.cls-34{fill:#e7ef78;}.cls-3{fill:#dcdcdb;}.cls-4{fill:#ebebea;}.cls-28,.cls-5{fill:#2b2b2b;}.cls-5,.cls-9{opacity:0.1;}.cls-6{fill:#a2a2a2;}.cls-7{fill:#8e8e8e;}.cls-8{fill:#9ca0a1;}.cls-10{fill:#35785d;}.cls-11{fill:#3f8e6f;}.cls-12{fill:#54af8a;}.cls-13{fill:#72c8a5;}.cls-14{fill:#d8e254;}.cls-15{fill:#709c53;}.cls-16{fill:#738c57;}.cls-17{fill:#98c16d;}.cls-18{fill:#9fce7e;}.cls-19{fill:#beda8d;}.cls-20{fill:#b7c645;}.cls-21{fill:#7f5d4e;}.cls-22{fill:#c2977b;}.cls-23{fill:#debca4;}.cls-24{fill:#8a6651;}.cls-25{fill:#5a753d;}.cls-26{fill:#1c7678;}.cls-27{fill:#e7c9b5;}.cls-29{fill:#446125;}.cls-30{fill:#a17e6e;}.cls-31{fill:#593e35;}.cls-32{fill:#a98c80;}.cls-33{fill:#fff;}</style></defs><title>diplomats_Advocate_INFJ_romantic_relationships</title><g id="sky"><polygon class="cls-1" points="573.14 60.79 550.68 70.06 495.89 53.64 518 48.8 573.14 60.79"/><circle class="cls-2" cx="295.01" cy="65.56" r="29.56" transform="translate(163.43 337.62) rotate(-76.72)"/><polygon class="cls-3" points="658.77 48.8 644.32 60.79 573.14 60.79 512.84 53.64 542.95 48.8 579.09 48.8 658.77 48.8"/><polygon class="cls-1" points="243.5 91.12 272.22 103.5 299.93 85.91 256.86 79.33 184.1 85.91 243.5 91.12"/><polygon class="cls-3" points="299.93 85.91 286.52 74.43 238.32 69.27 184.1 85.91 262.68 81.58 299.93 85.91"/><polygon class="cls-4" points="286.52 74.43 265.53 63.44 192.31 66.48 184.1 85.91 243.08 72.97 286.52 74.43"/><polygon class="cls-4" points="542.95 48.8 580.68 35.63 656.84 42.21 658.77 48.8 573.5 53.64 542.95 48.8"/><polygon class="cls-4" points="542.95 48.8 523.83 39.33 466.29 53.64 495.89 53.64 512.84 53.64 542.95 48.8"/></g><g id="buildings"><polygon class="cls-5" points="850.19 279.05 900 268.99 851.61 258.32 850.19 279.05"/><polygon class="cls-6" points="636.69 268.46 630.36 165.97 691.62 164.8 757.05 166.73 750.5 271.37 636.69 268.46"/><polygon class="cls-7" points="630.36 165.97 625.93 160.12 689.16 157.99 761.72 160.12 757.05 166.73 630.36 165.97"/><polygon class="cls-1" points="625.93 160.12 627.76 151.08 691.62 148.23 758.9 150.31 761.72 160.12 625.93 160.12"/><polygon class="cls-3" points="627.76 151.08 636.7 143.24 695.5 140.84 752.18 142.71 758.9 150.31 627.76 151.08"/><polygon class="cls-8" points="702.25 160.12 710.07 178.94 716.87 160.12 702.25 160.12"/><polygon class="cls-6" points="636.7 143.24 638.11 134.1 695.5 132.15 750.42 132.15 752.18 142.71 636.7 143.24"/><polygon class="cls-3" points="638.11 134.1 663.54 120.78 732.49 119.99 750.42 132.15 638.11 134.1"/><polygon class="cls-6" points="846.75 267.13 888.33 268.99 885.16 227.4 851.25 221.57 846.75 267.13"/><polygon class="cls-7" points="851.25 226.07 885.16 227.4 888.33 223.78 851.25 218.13 851.25 226.07"/><polygon class="cls-3" points="888.33 223.78 855.22 185.11 851.25 218.13 888.33 223.78"/><polygon class="cls-1" points="852.57 207.18 871.25 203.83 878.51 212.3 852.57 207.18"/><polygon class="cls-1" points="683.58 272.17 691.62 107.67 731.35 107.67 709.01 273.66 683.58 272.17"/><polygon class="cls-3" points="683.58 116.64 738.41 111.12 738.41 96.81 714.59 90.85 681.73 94.96 683.58 116.64"/><polygon class="cls-7" points="683.58 116.64 690.58 128.86 728.99 125.23 738.41 111.12 683.58 116.64"/><polygon class="cls-1" points="681.73 94.96 683.58 88.07 711.22 84.89 738.41 90.19 738.41 96.81 681.73 94.96"/><polygon class="cls-1" points="683.58 116.64 697.44 95.47 702.38 114.75 711.22 95.92 718.82 113.09 726.67 96.43 738.41 111.12 683.58 116.64"/><polygon class="cls-3" points="683.58 88.07 707.46 63.7 714.59 58.67 721.72 63.7 738.41 90.19 683.58 88.07"/><polygon class="cls-1" points="707.46 63.7 714.59 0.93 721.72 63.7 707.46 63.7"/><polygon class="cls-7" points="702.03 163.74 703.09 146.08 708.74 139.72 712.28 147.49 709.8 164.09 702.03 163.74"/><polygon class="cls-1" points="750.6 277.73 748.48 137.6 858.93 151.08 850.19 279.05 750.6 277.73"/><polygon class="cls-3" points="742.12 142.71 865.29 143.84 866.35 133.5 742.12 132.15 742.12 142.71"/><polygon class="cls-8" points="742.12 142.71 748.68 150.23 858.93 151.08 865.29 143.84 742.12 142.71"/><polygon class="cls-3" points="748.68 150.23 756.95 159.06 764.1 150.34 772.85 159.06 779.73 150.46 788.92 160.12 797.04 150.59 805.69 160.12 812.32 150.7 820.32 160.12 827.68 151.08 835.62 160.12 843.3 150.93 851.78 160.12 858.93 151.08 748.68 150.23"/><polygon class="cls-7" points="834.83 194.46 834.83 177.2 840.39 171.19 843.83 178.93 841.18 194.64 834.83 194.46"/><polygon class="cls-3" points="699.47 162.28 712.28 162.28 711.22 167.8 699.47 165.97 699.47 162.28"/><polygon class="cls-3" points="831.65 193.23 843.83 193.23 843.83 198.71 831.65 198 831.65 193.23"/><polygon class="cls-7" points="814.96 193.47 813.37 177.2 818.67 170.2 822.91 176.88 821.32 193.66 814.96 193.47"/><polygon class="cls-3" points="811.78 192.24 823.97 192.24 823.97 197.72 811.78 197.01 811.78 192.24"/><polygon class="cls-1" points="742.12 132.15 748.68 123.02 862.38 127.58 866.35 133.5 742.12 132.15"/><polygon class="cls-3" points="748.68 123.02 760.13 114.17 854.43 114.17 862.38 127.58 748.68 123.02"/><polygon class="cls-1" points="760.13 114.17 757.22 103.75 854.43 107.67 854.43 114.17 760.13 114.17"/><polygon class="cls-6" points="748.68 123.02 756.69 132.31 764.37 123.96 772.85 132.15 778.16 124.2 786.62 132.63 794.04 124.84 801.19 132.63 809.4 125.23 815.75 132.95 822.91 126 829.53 132.95 836.68 126.55 843.83 132.95 850.19 127.09 856.72 133.03 862.38 127.58 748.68 123.02"/><polygon class="cls-3" points="757.22 103.75 782.91 84.89 837.74 84.89 854.43 107.67 757.22 103.75"/><polygon class="cls-1" points="809.4 105.85 795.1 84.89 795.1 69.27 823.97 69.27 823.97 84.89 809.4 105.85"/><polygon class="cls-6" points="795.1 69.27 788.92 65.56 828.21 63.7 823.97 69.27 795.1 69.27"/><polygon class="cls-3" points="788.92 65.56 805.82 52.84 814.96 52.84 828.21 63.7 788.92 65.56"/><polygon class="cls-1" points="805.82 52.84 810.39 22.12 814.96 52.84 805.82 52.84"/><polygon class="cls-7" points="807.02 90.19 807.02 76.15 810.39 72.97 813.37 76.42 811.78 90.19 807.02 90.19"/><polygon class="cls-1" points="795.1 84.89 787.43 104.97 782.91 84.89 795.1 84.89"/><polygon class="cls-1" points="823.97 84.89 828.21 106.61 837.74 84.89 823.97 84.89"/><polygon class="cls-7" points="865.54 256.54 865.54 242.65 868.55 237.64 871.56 242.65 871.56 256.54 865.54 256.54"/></g><g id="bushes"><polygon class="cls-9" points="28.18 287.6 141.19 270.05 320 274.42 559.37 263.95 715.46 268.46 763.5 282.95 820.32 288.89 856.72 298.66 734.17 309.13 604.55 302.36 443.86 307.39 328.38 300.9 218.72 309.13 82.56 295.48 28.18 287.6"/><polygon class="cls-10" points="814.96 278.58 782.38 295.48 730.47 302.36 681.73 291.46 643.25 294.15 591.15 287.6 513.78 293.36 377.64 285.41 295.53 294.15 262.68 291.77 199.11 298.3 146.14 282.76 120.18 288.19 61.38 288.19 37.01 253.09 85.74 266.87 169.98 242.5 209.72 256.27 269.04 242.5 400.44 238.26 468.23 253.62 602.18 234.55 646.76 249.91 724.11 234.55 749.54 252.03 842.25 238.26 814.96 278.58"/><polygon class="cls-11" points="842.25 238.26 750.07 260.51 720.4 244.09 647.82 254.68 603.09 252.39 465.59 258.39 398.3 241.97 269.04 249.38 202.64 259.86 166.31 243.56 85.21 272.17 37.01 253.09 57.67 225.02 78.86 234.55 112.56 226.6 121.24 205.94 159.91 193.76 189.05 209.65 234.61 193.76 265.33 216.01 282.29 201.18 345.86 185.28 389.83 201.18 450.21 173.63 487.83 178.93 489.95 206.47 564.12 173.63 588.49 188.99 593.2 202.24 640.92 197.47 657.36 220.25 707.68 194.82 748.48 218.66 788.74 212.3 795.1 222.9 824.23 214.42 842.25 238.26"/><polygon class="cls-12" points="37.01 253.09 78.33 241.44 107.46 247.27 139.78 219.19 187.99 230.84 207.06 244.09 262.15 226.6 282.29 230.84 336.87 216.54 386.63 227.14 400.44 214.42 464.01 222.9 475.12 233.76 502.14 217.6 549.29 222.9 574.18 233.76 596.97 222.9 651 238.79 708.74 222.9 750.6 230.84 763.84 242.5 791.92 228.19 834.32 227.78 842.25 211.77 799.86 194.82 770.2 202.77 737.35 187.93 697.09 203.83 681.73 187.93 652.59 202.77 640.92 192.7 593.2 196.94 591.15 187.93 563.06 170.45 493.13 196.94 487.83 178.93 445.98 167.8 388.77 196.41 345.86 181.04 278.58 194.82 259.49 207.53 236.73 190.58 209.72 180.52 186.93 204.35 163.09 190.58 115.41 200.12 112.56 226.6 78.33 228.72 53.96 222.9 37.01 253.09"/><polygon class="cls-13" points="799.86 194.82 813.37 177.2 761.72 165.15 728.35 180.52 691.62 198.17 708.74 222.9 730.47 202.77 750.6 230.84 799.86 194.82"/><polygon class="cls-13" points="681.73 187.93 651 238.79 596.9 183.16 630.95 173.63 651.53 183.16 672.71 176.28 681.73 187.93"/><polygon class="cls-13" points="593.2 196.94 549.29 222.9 491.75 205.68 476.18 183.69 435.11 180.52 389.83 201.18 342.15 185.81 282.29 199.59 262.15 226.6 236.73 190.58 272.22 175.22 336.87 167.8 386.63 176.28 432.23 152.97 516.97 159.33 531.27 167.8 568.36 160.38 602.18 183.69 611.18 195.34 593.2 196.94"/><polygon class="cls-13" points="186.93 204.35 166.8 180.52 114.35 192.44 112.56 226.6 53.96 222.9 78.33 241.44 139.78 219.19 186.93 204.35"/><polygon class="cls-13" points="186.93 204.35 209.72 180.52 232.49 217.6 202.64 259.86 186.93 204.35"/><polygon class="cls-11" points="232.49 217.6 256.86 241.44 202.64 259.86 232.49 217.6"/><polygon class="cls-11" points="813.37 177.2 820.32 203 775.5 212.64 813.37 177.2"/><polygon class="cls-12" points="651.53 183.16 668.12 210.45 611.18 195.34 651.53 183.16"/><polygon class="cls-11" points="750.07 260.51 695.5 277.99 730.47 302.36 772.85 277.46 750.07 260.51"/><polygon class="cls-11" points="146.14 282.76 166.31 243.56 199.11 298.3 146.14 282.76"/><polygon class="cls-11" points="85.21 272.17 61.38 288.19 120.18 288.19 85.21 272.17"/><polygon class="cls-11" points="681.73 291.46 695.5 277.99 647.82 254.68 639.31 270.93 643.25 294.15 681.73 291.46"/><polygon class="cls-11" points="269.04 249.38 295.53 294.15 262.68 291.77 269.04 249.38"/><polygon class="cls-10" points="651 238.79 603.09 252.39 596.97 222.9 651 238.79"/><polygon class="cls-10" points="246.71 231.51 269.04 249.38 282.29 230.84 262.15 226.6 246.71 231.51"/><polygon class="cls-12" points="691.62 198.17 730.47 202.77 761.72 165.15 691.62 198.17"/><polyline class="cls-12" points="114.35 192.44 78.29 224.44 112.56 226.6"/><polygon class="cls-12" points="720.4 244.09 750.6 230.84 750.07 260.51 720.4 244.09"/><polygon class="cls-14" points="669.54 204 673.43 210.36 669.19 214.25 661.07 207.18 669.54 204"/><polygon class="cls-14" points="711.57 198 715.1 201.18 711.92 203.3 707.33 198.71 711.57 198"/><polygon class="cls-14" points="697.44 219.9 704.51 214.95 704.15 226.25 697.44 219.9"/><polygon class="cls-14" points="644.47 182.81 650.83 178.93 657.18 187.05 647.29 187.76 644.47 182.81"/><polygon class="cls-14" points="789.98 191.29 795.98 190.58 797.04 197.29 788.92 198.71 789.98 191.29"/><polygon class="cls-14" points="241.85 198 247.85 199.41 246.44 205.06 238.32 201.88 241.85 198"/><polygon class="cls-14" points="141.19 214.95 144.37 222.37 136.6 222.72 136.6 216.36 141.19 214.95"/><polygon class="cls-14" points="158.15 201.88 164.15 204 155.67 208.59 152.49 202.59 158.15 201.88"/><polygon class="cls-14" points="174.39 205.06 176.16 213.19 169.45 215.66 168.39 207.89 174.39 205.06"/><polygon class="cls-14" points="187.99 230.84 195.94 228.02 196.64 236.85 189.58 237.91 187.99 230.84"/></g><g id="tree"><polygon class="cls-5" points="50.64 324.96 109.98 315.82 189 327.65 102.24 339.05 50.64 324.96"/><polygon class="cls-6" points="119.6 197.47 158.15 175.25 162.56 175.25 166.8 180.52 118.55 207.38 117.53 203.47 119.6 197.47"/><polygon class="cls-1" points="158.15 175.25 170.36 149.79 180.04 154.39 166.8 180.52 158.15 175.25"/><polygon class="cls-6" points="106.08 159.74 100.47 129.39 112.76 133.71 106.08 159.74"/><polygon class="cls-7" points="123.14 164.12 136.6 140.37 124.83 132.53 123.03 149.53 123.14 164.12"/><polygon class="cls-6" points="104.4 332.48 91.3 330.08 91.04 304.08 100.34 316.61 104.4 332.48"/><polygon class="cls-1" points="104.4 332.48 81.15 288.06 95.53 266.24 111.17 305.81 117.53 332.48 104.4 332.48"/><polygon class="cls-6" points="111.34 275.34 126.71 130.41 119.82 129.39 109.65 189.52 104.81 252.15 106.62 267.93 111.34 275.34"/><polygon class="cls-3" points="117.53 332.48 126.27 329.14 104.81 252.15 95.53 266.24 117.53 332.48"/><polygon class="cls-4" points="81.15 288.06 91.3 247.8 98.64 247.8 104.81 252.15 81.15 288.06"/><polygon class="cls-3" points="91.3 247.8 111.17 129.39 119.82 129.39 104.81 252.15 91.3 247.8"/><polygon class="cls-6" points="113.78 178.77 101.98 184.17 64.02 125.6 77.97 133.9 113.78 178.77"/><polygon class="cls-11" points="58.2 139.46 68.08 135.03 77.97 133.9 81.86 121.36 100.47 129.39 109.89 137.04 147.21 142.16 155.67 151.7 163.45 164.2 180.04 154.39 205.21 148.48 217.66 136.02 192.23 139.46 169.09 113.77 115.41 119.24 58.2 98.93 26.14 130.14 58.2 139.46"/><polygon class="cls-12" points="26.14 130.14 0 69.27 69.85 62.91 88.9 70.86 118.59 40.66 162.56 59.2 162.56 85.4 205.63 85.4 205.63 107.94 227.49 119.24 217.66 136.02 192.23 141.58 169.09 115.89 115.41 121.36 58.2 102.64 26.14 130.14"/><polygon class="cls-13" points="33.3 74.56 13.17 70.86 33.3 53.64 49.19 34.83 64.02 40.66 78.29 26.09 88.9 9.4 129.19 0.93 172.63 22.12 164.15 36.16 180.04 41.54 196.64 43.84 196.64 61.32 224.01 78.27 217.66 97.34 216.49 113.55 199.11 110.85 192.31 91.12 146.14 88.34 114.35 57.24 88.9 79.33 53.96 85.16 33.3 74.56"/><polygon class="cls-12" points="114.35 57.24 64.02 40.66 88.9 9.4 114.35 57.24"/><polygon class="cls-12" points="146.14 88.34 158.32 38.54 196.64 61.32 146.14 88.34"/><polygon class="cls-11" points="146.14 88.34 115.41 121.36 88.9 79.33 146.14 88.34"/><polygon class="cls-11" points="53.96 85.16 58.2 102.64 0 69.27 53.96 85.16"/><polygon class="cls-11" points="199.11 110.85 169.09 115.89 192.31 91.12 199.11 110.85"/><polygon class="cls-12" points="172.63 22.12 180.04 41.54 158.32 38.54 172.63 22.12"/><polygon class="cls-10" points="163.45 164.2 169.09 115.89 147.21 142.16 163.45 164.2"/><polygon class="cls-10" points="109.89 137.04 115.41 121.36 81.86 121.36 109.89 137.04"/><polygon class="cls-10" points="58.2 139.46 58.2 102.64 77.97 133.9 58.2 139.46"/><polygon class="cls-10" points="192.23 141.58 180.04 154.39 205.63 151.7 217.66 136.02 192.23 141.58"/><polygon class="cls-12" points="224.01 78.27 192.31 91.12 216.49 113.55 224.01 78.27"/><polygon class="cls-12" points="158.32 38.54 129.19 0.93 114.35 57.24 158.32 38.54"/><polygon class="cls-12" points="53.96 85.16 49.19 34.83 0 69.27 53.96 85.16"/></g><g id="bench"><polygon class="cls-9" points="217.13 319.96 295.53 312.12 606.16 313.32 667.95 330.08 597.75 349.51 256.86 335.38 217.13 319.96"/><polygon class="cls-15" points="604.5 314.67 596.22 319.96 589.83 315.67 584.67 289.67 598.67 288.67 604.5 314.67"/><polygon class="cls-15" points="291.83 313 298.97 319.31 306.5 316.67 313.5 287.5 290 290.5 291.83 313"/><polygon class="cls-16" points="299.93 296.95 298.97 319.31 283.89 319.31 283.89 295.48 299.93 296.95"/><polygon class="cls-16" points="615 319.96 596.22 319.96 594.09 292.82 607.19 291.46 615 319.96"/><polygon class="cls-15" points="625.93 331.37 613.42 327.62 605.67 293.51 620.7 291.46 625.93 331.37"/><polygon class="cls-15" points="274.34 330.08 286.52 325.56 287.85 297.63 274.34 294.15 274.34 330.08"/><polygon class="cls-17" points="643.32 293 641.08 331.37 625.93 331.37 618.59 293.13 628.9 288.89 643.32 293"/><polygon class="cls-17" points="276.87 297.83 274.34 330.08 256.86 330.08 252.44 298.3 266.39 295.48 276.87 297.83"/><polygon class="cls-17" points="430.03 84.89 286.52 149.85 288.65 155.75 291.28 157.99 377.64 132.15 445.81 102.02 439.27 92.05 430.03 84.89"/><polygon class="cls-17" points="462.85 85.64 609.13 154.73 605.67 161.8 597.75 162.28 529.68 139.81 445.81 102.02 453.31 92.05 462.85 85.64"/><polygon class="cls-17" points="293.8 175.22 302.24 207.14 305.08 252.39 295.53 257.86 272.22 175.22 283.88 172.46 293.8 175.22"/><polygon class="cls-17" points="618.15 177.2 602.26 256.54 594.17 250.44 593.2 214.47 597.22 175.22 606.16 172.46 618.15 177.2"/><polygon class="cls-18" points="642.5 263.95 450.22 263.95 249.44 270.05 252.44 298.3 643.32 293 642.5 263.95"/><polygon class="cls-19" points="249.44 270.05 305.08 252.39 450.21 246.47 594.17 250.44 642.5 263.95 249.44 270.05"/><polygon class="cls-12" points="445.81 102.02 430.03 84.89 445.45 69.27 462.85 85.64 445.81 102.02"/><polygon class="cls-14" points="437.51 84.1 444.51 94.96 455.87 87.28 447.04 76.86 437.51 84.1"/><polygon class="cls-12" points="291.28 157.99 286.52 149.85 272.22 175.22 293.8 175.22 295.53 168.63 291.28 157.99"/><polygon class="cls-12" points="609.13 154.73 618.15 177.2 597.22 175.22 594.17 170.45 597.75 162.28 609.13 154.73"/><polygon class="cls-9" points="343.73 268.61 375 296.5 421.17 286.17 370.47 269.7 343.73 268.61"/><polygon class="cls-16" points="445.81 102.02 291.28 157.99 305.08 252.39 445.45 251.44 594.17 250.44 597.75 162.28 445.81 102.02"/></g><g id="bird"><polygon class="cls-17" points="630.36 112.71 636.69 112.71 630.73 115.64 630.36 114.17 630.36 112.71"/><polygon class="cls-17" points="630.73 115.64 635.51 115.84 631.16 118.97 630.73 117.48 630.73 115.64"/><polygon class="cls-12" points="624.49 128.86 620.76 126.7 616.12 125.23 604.65 128.86 591.31 130.42 598.65 144.06 602.88 150.23 613.1 140.84 624.49 128.86"/><polygon class="cls-17" points="616.12 125.23 613.1 140.84 591.31 130.42 616.12 125.23"/><polygon class="cls-11" points="613.1 140.84 598.65 144.06 602.77 151.71 613.1 140.84"/><polygon class="cls-15" points="591.31 130.42 583.47 115.09 579.65 126.55 591.31 130.42"/><polygon class="cls-11" points="616.12 125.23 619.9 112.71 630.36 112.71 631.16 118.97 624.49 128.86 616.12 125.23"/><path class="cls-14" d="M627.76,117.48a1.85,1.85,0,1,1-1.85-1.84A1.85,1.85,0,0,1,627.76,117.48Z"/></g><g id="infj"><polygon class="cls-10" points="593.38 310.75 600.77 301.18 604.13 301.38 601 338.5 585.5 337.88 585.3 335.6 592.38 332.13 593.38 310.75"/><polygon class="cls-10" points="465.38 327 450.58 329.75 450.5 333.25 486.13 333.88 486.51 330.08 465.38 327"/><polygon class="cls-20" points="567.75 167.33 550.54 201.18 545.42 191.47 540.47 177.36 536.68 162.28 552.52 162.28 567.75 167.33"/><polygon class="cls-21" points="470.62 229.54 459.05 230.84 453.31 230.84 446.3 227.49 445.45 220.18 457.99 220.18 465.99 220.18 470.62 229.54"/><polygon class="cls-12" points="531.33 204.33 518.33 208.67 504.17 215.83 477.37 213.97 467.17 224.05 482.11 251.2 519.95 224.05 524.93 204.81 531.33 204.33"/><polygon class="cls-10" points="504.17 215.83 519.58 227.58 522.11 202.95 504.17 215.83"/><polygon class="cls-11" points="592.43 326.33 585.3 335.6 597.75 335.6 596.43 330.08 592.43 326.33"/><polygon class="cls-10" points="470.75 266.57 473.32 316.11 480.95 319.58 487.9 317.67 495.8 293.57 489.16 279.29 470.75 266.57"/><polygon class="cls-12" points="487.9 317.67 486.51 330.08 450.58 329.75 473.32 316.11 487.9 317.67"/><polygon class="cls-12" points="515.78 263.95 470.75 266.57 510.83 311.25 515.27 282.76 515.78 263.95"/><polygon class="cls-10" points="568.63 302.23 587.17 302 589.55 309.51 587.42 317.59 572.85 325.75 568.63 302.23"/><polygon class="cls-12" points="587.17 302 600.77 301.18 597.75 335.6 587.42 317.59 587.17 302"/><polygon class="cls-22" points="440.97 291.2 456.34 292.52 447.33 301.52 434.61 305.77 428.47 297.44 433.38 292.52 440.97 291.2"/><polygon class="cls-22" points="388.82 309.13 388.82 321.04 402.07 324.08 415.32 322.67 409.04 318.25 402.07 312.56 388.82 309.13"/><polygon class="cls-15" points="434.61 305.77 439.65 313.45 470.64 293.85 456.34 292.52 434.61 305.77"/><polygon class="cls-15" points="388.82 321.04 389.05 330.09 427.41 330.09 415.32 322.67 388.82 321.04"/><polygon class="cls-23" points="443.86 206.37 463.99 203.88 462.05 212.03 457.99 220.18 445.45 220.18 442.63 213.19 443.86 206.37"/><polygon class="cls-22" points="463.99 203.88 476.36 216.33 467.17 224.05 457.99 220.18 463.99 203.88"/><polygon class="cls-17" points="383 186.7 415 213.13 420.76 222.88 412 230.33 390.33 224.33 370.18 226.44 383 216.33 383 186.7"/><polygon class="cls-15" points="415 213.13 443.86 206.37 447.04 233.98 412 230.33 415 213.13"/><polygon class="cls-11" points="347.28 220.32 347.28 232.54 323.03 212.67 315.83 175.22 334.89 201.21 347.28 220.32"/><polygon class="cls-24" points="397.45 175.34 383 186.7 380.65 180.8 382.21 172.46 391.15 171.54 397.45 175.34"/><polygon class="cls-23" points="437.25 136.11 424.49 180.45 382.21 172.46 380.83 143.13 398.67 123 417 127.73 437.25 136.11"/><polygon class="cls-23" points="412.33 116.77 416.54 113.79 424.88 113.79 430.44 117.79 432.77 124.48 421.76 121.72 412.33 116.77"/><polygon class="cls-22" points="415.21 134.27 416.11 138.04 410.33 155.75 408.61 139.21 402.88 135.63 415.21 134.27"/><polygon class="cls-22" points="421.04 139.67 430.93 138.74 418.27 149.85 421.04 139.67"/><polygon class="cls-22" points="398.67 123 382.21 172.46 378.98 155.67 380.83 143.13 388.5 131.13 398.67 123"/><polygon class="cls-17" points="366.61 99.51 392.02 107.25 411.88 116.6 422.42 120.57 432.55 124.4 436.42 125.16 439.8 127.13 437.25 136.11 398.67 123 388.27 121.75 378.6 116.18 368.92 115.38 360.1 109.89 366.61 99.51"/><polygon class="cls-25" points="418.65 124.47 424.73 121.44 427.77 127.65 421.48 130.75 418.65 124.47"/><polygon class="cls-12" points="366.61 99.51 380.65 78.55 426.19 103.02 427.65 109.41 424.88 113.79 412.33 116.77 366.61 99.51"/><polygon class="cls-11" points="426.19 103.02 443.33 112.41 439.8 127.13 432.77 124.48 424.88 113.79 426.19 103.02"/><polygon class="cls-26" points="402.88 135.63 408.58 132.58 415.21 134.27 402.88 135.63"/><polygon class="cls-26" points="421.04 139.67 425.77 137.22 430.93 138.74 421.04 139.67"/><polygon class="cls-27" points="421.04 139.67 416.11 138.04 410.33 155.75 416.23 157.35 421.04 139.67"/><polygon class="cls-24" points="410.33 155.75 412.11 160.22 416.23 157.35 410.33 155.75"/><polygon class="cls-11" points="398.67 123 380.83 143.13 376.81 128.51 378.6 116.18 398.67 123"/><polygon class="cls-12" points="378.6 116.18 360.1 109.89 325.33 163.17 353.67 163.83 380.83 143.13 378.6 116.18"/><polygon class="cls-11" points="380.83 143.13 381.83 164.5 367.07 177.54 358.54 185.02 341.05 192.74 329.76 173.44 332.17 160.67 380.83 143.13"/><polygon class="cls-12" points="332.17 160.67 328.17 156.5 304.17 169.5 324.4 189.29 333.9 192.74 341.05 192.74 332.17 160.67"/><polygon class="cls-13" points="340 140.5 304.17 169.5 332.17 160.67 340 140.5"/><polygon class="cls-17" points="404.89 166.4 409.46 171.19 414.93 168.63 404.89 166.4"/><polygon class="cls-25" points="398.5 160.34 404.89 166.4 414.93 168.63 419.95 165.75 415.29 166.19 411.44 163.24 403.91 163.56 398.5 160.34"/><polygon class="cls-28" points="403.73 138.94 407.02 141.3 410.72 140.99 411.08 142.96 406.32 143.33 402.61 140.59 403.73 138.94"/><polygon class="cls-28" points="421.87 143.84 425.17 146.2 428.86 145.89 429.23 147.86 424.47 148.23 420.76 145.49 421.87 143.84"/><polygon class="cls-15" points="383 186.7 367.38 188.73 366.61 228.6 386.21 216.78 397.45 210.01 383 186.7"/><polygon class="cls-25" points="397.45 210.01 362.75 219 366.61 247.85 386.21 236.03 389.75 240.5 397.45 210.01"/><polygon class="cls-17" points="367.38 188.73 341.05 192.74 341.05 204.81 345.36 220.32 348.34 239.32 362.02 233.98 370.18 226.44 367.38 188.73"/><polygon class="cls-12" points="381.83 164.5 382.21 172.46 383 186.7 368 198.5 341.05 192.74 381.83 164.5"/><polygon class="cls-10" points="341.05 192.74 345.37 220.32 324.4 189.29 341.05 192.74"/><polygon class="cls-29" points="373.25 267.75 376.17 313.17 409.04 318.25 400.48 294.59 393.35 279.06 376.81 274.28 373.25 267.75"/><polygon class="cls-25" points="348.34 239.32 343.77 268.61 397.25 288 389.05 262.28 380.83 247.8 348.34 239.32"/><polygon class="cls-16" points="380.83 247.8 415.23 243.51 440.97 291.2 412.67 307.42 397.25 288 380.83 247.8"/><polygon class="cls-9" points="348.34 239.32 389.75 268.5 408.12 248.33 424.6 246.47 406.85 245.27 389.5 242.33 348.34 239.32"/><polygon class="cls-23" points="400.83 233.98 419.43 230.84 416.52 240.38 413.1 246.47 395 245.3 396.75 238.66 400.83 233.98"/><polygon class="cls-22" points="419.43 230.84 424.69 246.36 421.27 254.46 413.1 246.47 419.43 230.84"/><polygon class="cls-15" points="370.18 226.44 400.83 233.98 394.33 261.17 348.34 239.32 370.18 226.44"/><polygon class="cls-15" points="397.25 288 440.97 291.2 409.04 318.25 397.25 288"/><polygon class="cls-30" points="462.24 125.48 464.14 138.66 465.29 142.73 465.16 145.75 472.31 195.37 507.8 190.14 522.11 202.95 543.3 191.47 534.82 163.44 538.53 143.38 510.19 123.92 483.44 133.27 462.24 125.48"/><polygon class="cls-21" points="510.19 123.92 516.94 188.63 500.95 191.15 515.13 196.7 522.11 202.95 537.75 202.63 545.42 191.47 536.68 162.28 539.28 155.64 541.44 142.35 521.91 129.82 510.19 123.92"/><polygon class="cls-31" points="500.95 191.15 526.08 187.44 522.11 202.95 500.95 191.15"/><polygon class="cls-21" points="470.08 152.67 496.94 148.83 487.41 168.42 481.85 169.09 478.14 157.38 470.08 152.67"/><polygon class="cls-32" points="481.85 169.09 479.2 151.35 486.21 150.35 487.41 168.42 481.85 169.09"/><polygon class="cls-31" points="481.85 169.09 485.29 172 487.41 168.42 481.85 169.09"/><polygon class="cls-12" points="470.08 152.67 478.49 147.21 479.2 151.35 470.08 152.67"/><polygon class="cls-12" points="486.21 150.35 486.21 146.44 496.94 148.83 486.21 150.35"/><polygon class="cls-31" points="477.7 176.46 500.3 173.28 494.82 181.23 482.55 182.81 477.7 176.46"/><polygon class="cls-33" points="481.4 177.87 495.53 176.02 493.5 179.73 483.61 181.05 481.4 177.87"/><polygon class="cls-14" points="510.19 123.92 518.75 117.3 532.17 111.21 550.18 121.54 551.31 125.78 552.63 128.02 567.75 167.33 536.68 162.28 541.44 142.35 527.4 145.56 523.87 157.19 513.36 154.29 517.86 128.45 510.19 123.92"/><polygon class="cls-34" points="462.24 125.48 513.52 101.14 532.17 111.21 510.19 123.92 482.38 135.39 462.24 125.48"/><polygon class="cls-31" points="536.68 162.28 527.93 161.86 539.28 170.98 536.68 162.28"/><polygon class="cls-31" points="536.68 148.4 530.58 148.83 529.35 157.38 536.68 148.4"/><polygon class="cls-15" points="464.14 138.66 550.18 121.54 552.67 128.02 465.17 145.75 464.14 138.66"/><polygon class="cls-11" points="522.13 202.88 515.5 224.33 517.14 250.96 517.32 256.54 515.78 263.95 515.27 303.35 508.49 333.62 531.1 330.09 549.44 336.19 573.67 325.67 568.12 294.15 562.53 283.47 562.9 265.07 560.94 260.51 562.53 250.66 563.5 215.5 545.88 205.25 545.42 191.47 522.13 202.88"/><polygon class="cls-10" points="517.14 250.96 562.53 250.66 562.9 265.07 515.78 263.95 517.14 250.96"/><polygon class="cls-12" points="562.9 265.07 535.36 294.15 508.49 333.62 549.43 336.19 568.12 294.15 562.9 265.07"/><polygon class="cls-11" points="562.9 265.07 508.49 333.62 515.78 263.95 562.9 265.07"/><polygon class="cls-12" points="545.42 191.47 515.5 224.33 515.78 230.84 517 251.33 563.5 215.5 545.42 191.47"/><polygon class="cls-21" points="477.37 213.97 463.99 201.35 459.05 207.66 455.87 213.97 477.98 227.58 478.17 221 477.37 213.97"/><polygon class="cls-13" points="515.5 224.33 477.37 213.97 478.67 251.33 517.14 250.96 515.5 224.33"/><polygon class="cls-30" points="463.99 201.35 443.86 206.37 455.87 213.97 463.99 201.35"/><polygon class="cls-23" points="457.99 220.18 459.05 230.84 453.31 230.84 445.45 220.18 457.99 220.18"/><path class="cls-28" d="M494.9,156.1a2.46,2.46,0,1,1-1.93-1.93A2.46,2.46,0,0,1,494.9,156.1Z"/><path class="cls-28" d="M477.57,158.52a2.46,2.46,0,1,1-1.94-1.93A2.47,2.47,0,0,1,477.57,158.52Z"/></g></svg>