<svg id="illustration" xmlns="http://www.w3.org/2000/svg" xmlns:xlink="http://www.w3.org/1999/xlink" viewBox="0 0 899.92 350"><defs><style>.cls-1,.cls-37,.cls-46,.cls-47,.cls-75{fill:none;}.cls-1{clip-rule:evenodd;}.cls-10,.cls-11,.cls-12,.cls-13,.cls-14,.cls-15,.cls-16,.cls-17,.cls-2,.cls-20,.cls-21,.cls-22,.cls-23,.cls-24,.cls-25,.cls-27,.cls-28,.cls-29,.cls-3,.cls-30,.cls-31,.cls-33,.cls-34,.cls-35,.cls-36,.cls-37,.cls-38,.cls-39,.cls-4,.cls-40,.cls-41,.cls-42,.cls-43,.cls-44,.cls-45,.cls-5,.cls-51,.cls-6,.cls-65,.cls-66,.cls-67,.cls-68,.cls-69,.cls-7,.cls-70,.cls-71,.cls-72,.cls-73,.cls-74,.cls-77,.cls-78,.cls-79,.cls-8,.cls-80,.cls-81,.cls-9{fill-rule:evenodd;}.cls-2{opacity:0.1;}.cls-3{fill:#8e8e8e;}.cls-32,.cls-4{fill:#737373;}.cls-5,.cls-52{fill:#dcdcdb;}.cls-49,.cls-6{fill:#a2a2a2;}.cls-48,.cls-7{fill:#9ca0a1;}.cls-8{fill:#709c53;}.cls-50,.cls-9{fill:#ebebea;}.cls-10{fill:#72c8a5;}.cls-11,.cls-62{fill:#3f8e6f;}.cls-12,.cls-61{fill:#54af8a;}.cls-13{fill:#35785d;}.cls-14,.cls-18,.cls-45{fill:#fff;}.cls-15{fill:#c3c3c3;}.cls-16{opacity:0.14;}.cls-17{fill:#cdcdcc;}.cls-19{clip-path:url(#clip-path);}.cls-20,.cls-63{fill:#4f5253;}.cls-21{opacity:0.05;}.cls-22{fill:#474747;}.cls-23{fill:#6f7173;}.cls-24,.cls-76{fill:#848585;}.cls-25,.cls-45{opacity:0.2;}.cls-26,.cls-27{fill:#2b2b2b;}.cls-28,.cls-57{fill:#825940;}.cls-29{fill:#bb8e2d;}.cls-30{fill:#e4c728;}.cls-31{fill:#8c7c2f;}.cls-33{fill:#cbac14;}.cls-34{fill:#b2879c;}.cls-35{fill:#734d60;}.cls-36{fill:#593e35;}.cls-37{stroke:#000;stroke-width:1.35px;}.cls-37,.cls-46,.cls-47,.cls-75{stroke-miterlimit:10;}.cls-38{fill:#debca4;}.cls-39{fill:#27788b;}.cls-40{fill:#8a6651;}.cls-41{fill:#3a9fb9;}.cls-42{fill:#369395;}.cls-43{fill:#50a8a9;}.cls-44{fill:#1c7678;}.cls-46{stroke:#8e8e8e;stroke-width:2px;}.cls-47{stroke:#a2a2a2;}.cls-51{opacity:0.13;}.cls-53,.cls-65{fill:#98c16d;}.cls-54,.cls-70{fill:#738c57;}.cls-55{fill:#bf9b83;}.cls-56{fill:#a67e62;}.cls-58{fill:#c8ac9a;}.cls-59{fill:#e7ef78;}.cls-60{fill:#b7c645;}.cls-64,.cls-77{opacity:0.15;}.cls-66{fill:#a17e6e;}.cls-67{fill:#7f5d4e;}.cls-68{fill:#a98c80;}.cls-69{fill:#beda8d;}.cls-71{fill:#5a753d;}.cls-72{opacity:0.17;}.cls-73{fill:#c2977b;}.cls-74{fill:#e7c9b5;}.cls-75{stroke:#848585;}.cls-78{fill:#c1907d;}.cls-79{fill:#f4c9b2;}.cls-80{fill:#fce3d4;}.cls-81{fill:#ffefe7;}</style><clipPath id="clip-path"><polygon class="cls-1" points="74.83 44.94 239.95 41.06 236.51 130.5 81.65 136.36 74.83 44.94"/></clipPath></defs><title>diplomats_Advocate_INFJ_workplace_habits</title><g id="table"><polygon class="cls-2" points="0 295.4 115.92 277.97 271.49 297.01 165.86 318.02 33.42 320.82 0 295.4"/><polygon class="cls-2" points="428.46 327.56 478.75 313.27 546.58 331.11 473.92 349.67 403.79 333.6 428.46 327.56"/><polygon class="cls-2" points="594.58 286.67 538.92 305 597.25 318 593.8 322.77 679.92 350 874.25 339 884.92 318.02 827.4 305.5 671.6 296.51 594.58 286.67"/><polygon class="cls-2" points="232.25 324.33 292.92 309.67 347.58 322.67 285.58 336.67 232.25 324.33"/><polygon class="cls-2" points="319.25 302.67 385.25 290 442.92 301.67 377.92 317 319.25 302.67"/><polygon class="cls-3" points="72.49 261.16 73.82 284.83 71.76 320.35 16.88 297.41 19.1 243.04 72.49 261.16"/><polygon class="cls-4" points="72.49 261.16 71.76 320.35 227.41 302.11 226.79 260.29 72.49 261.16"/><polygon class="cls-5" points="11.05 228.23 72.49 258.76 135.12 250.38 234.44 242.83 189.3 225.56 11.05 228.23"/><polygon class="cls-6" points="68.87 249.27 73.57 257.83 72.49 263.32 13.21 251.24 11.05 228.23 68.87 249.27"/><polygon class="cls-7" points="72.49 263.32 233.88 260.29 234.44 242.83 68.87 249.27 72.49 263.32"/><polygon class="cls-2" points="84.67 227.13 94.04 243.83 112.28 247.2 173.05 245.22 183.58 234.57 160 225.4 84.67 227.13"/><polygon class="cls-8" points="158.97 221.65 163.65 221.47 165 223 159.51 223.26 158.97 221.65"/><polygon class="cls-8" points="158.25 220.21 162.66 220.12 161.49 218.76 157.35 218.76 158.25 220.21"/><polygon class="cls-7" points="107.41 206.94 105.14 184.54 144.56 183.72 147 205.51 129.71 208.3 107.41 206.94"/><polygon class="cls-9" points="112.49 206.76 110.27 188.92 140.22 187.9 141.78 205.7 129.09 207.24 112.49 206.76"/><polygon class="cls-10" points="90.47 207.56 160.05 205.04 173.05 225.81 100.08 229.31 90.47 207.56"/><polygon class="cls-11" points="90.47 207.56 84.67 227.13 103.07 243.24 103.37 233.21 100.08 227.15 90.47 207.56"/><polygon class="cls-12" points="100.08 227.15 103.07 243.24 172.78 239.48 173.05 225.81 100.08 227.15"/><polygon class="cls-13" points="113.36 234.24 113.36 230.84 157.26 228.35 157.26 231.94 135.48 235.24 113.36 234.24"/><polygon class="cls-8" points="113.36 234.24 122 247.2 165.86 245.47 157.26 231.94 113.36 234.24"/><polygon class="cls-11" points="107.41 206.94 113.56 220.42 154.92 219.84 147 205.51 107.41 206.94"/><polygon class="cls-14" points="122 231.49 122.72 233.75 127.82 243.24 156.18 241.62 150.06 232.32 146.73 229.97 122 231.49"/><polygon class="cls-15" points="122.72 233.75 150.06 232.32 147.81 228.89 120.92 230.41 122.72 233.75"/><polygon class="cls-3" points="687.42 218.4 655.42 199.4 655.42 265.78 685.23 278.37 688.58 241.24 687.42 218.4"/><polygon class="cls-5" points="887.58 198.59 828.76 178.46 649.42 185.13 687.42 203.53 748.93 204.97 887.58 198.59"/><polygon class="cls-6" points="687.42 201.53 649.42 185.13 649.42 203.06 687.42 218.4 689.42 209.33 687.42 201.53"/><polygon class="cls-2" points="899.92 280.79 808.93 288.81 651.79 288.03 630.64 267.81 707.5 263.25 845.59 265.98 899.92 280.79"/><polygon class="cls-4" points="874.25 218.17 871.92 276.76 685.23 278.37 687.42 218.4 800.92 212.25 874.25 218.17"/><polygon class="cls-7" points="887.58 198.59 687.42 201.53 687.42 218.4 885.42 218.83 887.58 198.59"/><polygon class="cls-16" points="253.26 32.5 257.08 157.06 74.37 154.84 75.25 125.19 253.26 32.5"/><polygon class="cls-17" points="74.83 44.94 239.95 41.06 236.51 130.5 81.65 136.36 74.83 44.94"/><circle class="cls-18" cx="128.08" cy="68.69" r="15.79"/><g class="cls-19"><polygon class="cls-20" points="118.22 98.02 124.59 99.53 124.69 107.69 123.51 112.46 119.58 105.17 118.22 98.02"/><polygon class="cls-20" points="123.96 122.78 125.98 142.78 125.48 144.28 126.27 145.62 121.74 145.08 117.66 145.92 117.29 143.95 116.38 143 112.82 136.19 108.62 143.57 107.16 144.84 106.5 146.86 103 145.92 99.32 146.53 99.66 144.67 99.33 143.31 99.39 125.74 102.36 117.64 123.96 122.78"/><polygon class="cls-21" points="139.83 150.24 113.55 144.52 88.64 152.53 112.44 160.43 139.83 150.24"/><polygon class="cls-10" points="123.74 145.7 124.1 148.17 125.45 148.77 130.31 148.69 130.31 152.62 119.76 152.72 119.83 148.99 120.56 145.84 123.74 145.7"/><polygon class="cls-13" points="119.83 148.99 121.25 151.84 125.45 148.77 123.74 145.7 122.16 145.02 119.88 145.84 119.83 148.99"/><polygon class="cls-2" points="123.74 145.7 119.88 145.84 119.83 147.87 123.74 145.7"/><polygon class="cls-10" points="100.72 146.59 100.37 149.06 99.02 149.66 96.18 149.59 96.18 153.52 104.71 153.62 104.64 149.89 103.91 146.74 100.72 146.59"/><polygon class="cls-13" points="104.64 149.89 103.21 152.73 101.87 149.74 99.02 149.66 100.72 146.59 102.31 145.92 104.58 146.74 104.64 149.89"/><polygon class="cls-22" points="122.16 124.92 123.95 142.89 121.17 143.38 118.16 124.39 122.16 124.92"/><polygon class="cls-22" points="116.38 128.96 118.13 143.31 116.38 143 112.82 136.19 111.93 126.22 116.38 128.96"/><polygon class="cls-22" points="110.77 126.63 108.62 143.57 104.65 143.72 107.39 128.68 110.77 126.63"/><polygon class="cls-22" points="105.55 124.39 102.19 143.57 100.46 143.41 101.17 128.26 105.55 124.39"/><polygon class="cls-4" points="125.98 142.78 116.38 143 117.66 145.92 126.27 145.62 125.98 142.78"/><polygon class="cls-4" points="108.62 143.57 99.33 143.31 99.32 146.53 106.5 146.86 108.62 143.57"/><polygon class="cls-2" points="100.72 146.59 104.58 146.74 104.64 148.77 100.72 146.59"/><polygon class="cls-23" points="110.63 98.4 123.51 112.46 125.03 113.93 119.58 122.4 118.16 124.39 116.38 128.96 111.93 126.22 107.39 128.68 105.55 124.39 104.13 122.4 102.37 119.83 99.7 110.87 110.63 98.4"/><polygon class="cls-20" points="105.48 98.4 99.5 100.29 99.02 107.69 100.19 112.46 104.13 105.17 105.48 98.4"/><polygon class="cls-20" points="126.92 93.06 118.64 91.47 118.18 89.09 119.6 86.45 122.91 88.54 126.92 93.06"/><polygon class="cls-9" points="91.7 77.33 93.78 87.52 96.34 93.78 97.58 98.2 105.95 96.75 109.58 104.99 111.98 106.72 116.52 102.56 119.6 86.45 108.68 76.61 97.23 71.24 91.7 77.33"/><polygon class="cls-7" points="99.43 72.27 91.65 77.39 94.38 73.11 97.23 71.24 98.67 71.09 99.43 72.27"/><polygon class="cls-5" points="101.57 86.75 102.98 80.24 104.66 76.96 100.31 76.88 100.2 78.84 101.57 86.75"/><polygon class="cls-5" points="98.35 79.19 97.26 77.54 93.58 79.41 99.33 84.45 98.35 79.19"/><polygon class="cls-7" points="99.82 87.09 100.96 88.14 101.57 86.75 99.82 87.09"/><polygon class="cls-5" points="108.68 76.61 112.76 95.27 109.38 98.14 108.11 101.62 107.89 103.03 109.58 104.99 113.76 108.03 118.61 101.73 119.34 97.61 118.64 91.47 118.18 89.09 119.6 86.45 108.68 76.61"/><polygon class="cls-14" points="98.35 79.19 99.82 87.09 101.57 86.75 100.2 78.84 98.35 79.19"/><polygon class="cls-7" points="108.68 76.61 112.69 83.11 116.64 85.61 112.53 87.25 118.64 91.47 119.6 86.45 115.61 82.16 108.68 76.61"/><polygon class="cls-23" points="97.26 77.54 94.76 77.12 93.58 79.41 97.26 77.54"/><polygon class="cls-23" points="100.31 76.88 102.15 75.67 104.66 76.96 100.31 76.88"/><polygon class="cls-24" points="96.81 91.35 102.29 94.69 107.37 89.44 96.81 91.35"/><polygon class="cls-14" points="98.18 91.44 101.59 91.54 106.05 89.96 103.14 92.67 101.06 93.03 98.18 91.44"/><polygon class="cls-20" points="96.81 91.35 101.28 89.86 107.37 89.44 101.59 91.7 96.81 91.35"/><polygon class="cls-24" points="97.23 71.24 108.68 76.61 119.5 82.43 129.82 86.52 131.07 81.14 131.14 77.51 120.27 74.65 111.6 73.65 105.74 72.22 97.23 71.24"/><polygon class="cls-23" points="108.68 76.61 129.82 86.52 126.92 93.06 108.68 76.61"/><polygon class="cls-20" points="111.6 73.65 117.1 64.83 131.14 77.51 111.6 73.65"/><polygon class="cls-20" points="131.14 77.51 136.1 82.03 129.82 86.52 131.14 77.51"/><polygon class="cls-3" points="97.23 71.24 99.7 65.03 117.1 64.83 111.6 73.65 97.23 71.24"/><polygon class="cls-20" points="91.7 77.33 96.34 93.78 94.04 92.15 91.96 91.66 89.83 90.63 90.09 79.1 90.33 77.64 91.7 77.33"/><polygon class="cls-23" points="97.23 71.24 90.09 79.1 86.16 74.33 99.7 65.03 97.23 71.24"/><polygon class="cls-24" points="112.8 80.32 112.53 87.25 121.31 88 118.91 85.83 114.37 85.4 114.45 81.81 112.8 80.32"/><polygon class="cls-24" points="93.76 84.63 91.96 91.66 96.34 93.78 95.48 90.74 94.19 90.2 94.74 88.11 93.76 84.63"/><polygon class="cls-7" points="105.95 96.75 114.59 94.81 109.92 103.75 105.95 96.75"/><polygon class="cls-22" points="119.08 95.3 111.98 106.72 120.36 100.29 119.08 95.3"/><polygon class="cls-15" points="111.98 106.72 104.39 101.3 100.19 112.46 111.98 106.72"/><polygon class="cls-15" points="120.36 100.29 111.98 106.72 123.51 112.46 120.36 100.29"/><polygon class="cls-20" points="111.98 106.72 123.51 117.02 123.51 112.46 111.98 106.72"/><polygon class="cls-20" points="100.19 112.46 101.6 117.49 111.98 106.72 100.19 112.46"/><polygon class="cls-22" points="114.59 108.03 111.98 111.01 109.27 108.03 111.98 106.72 114.59 108.03"/><polygon class="cls-22" points="111.98 111.01 108.04 121.9 111.93 126.22 115.54 122.01 111.98 111.01"/><polygon class="cls-22" points="115.54 122.01 108.04 121.9 111.93 126.22 115.54 122.01"/><polygon class="cls-22" points="105.95 96.75 104.39 101.3 111.98 106.72 105.95 96.75"/><polygon class="cls-24" points="100.19 112.46 99.5 100.29 92.96 115.27 97.78 113.91 100.19 112.46"/><polygon class="cls-15" points="92.96 115.27 98.13 126.63 99.39 125.74 102.19 124.49 104.13 122.4 100.19 112.46 92.96 115.27"/><polygon class="cls-5" points="104.13 122.4 105.55 124.39 101.17 128.26 99.39 125.74 104.13 122.4"/><polygon class="cls-24" points="123.51 112.46 124.59 99.53 130.75 115.27 125.93 113.91 123.51 112.46"/><polygon class="cls-15" points="130.75 115.27 125.58 126.63 124.32 125.74 121.52 124.49 119.58 122.4 123.51 112.46 130.75 115.27"/><polygon class="cls-5" points="119.58 122.4 118.16 124.39 122.54 128.26 124.32 125.74 119.58 122.4"/><polygon class="cls-25" points="122.54 128.26 124.73 130.34 124.32 125.74 122.54 128.26"/><polygon class="cls-25" points="101.17 128.26 99.38 130.34 99.39 125.74 101.17 128.26"/><circle class="cls-26" cx="96.12" cy="82.61" r="1.08"/><path class="cls-27" d="M104.48,80.89a1.08,1.08,0,1,1-2.16,0,1.08,1.08,0,0,1,2.16,0Z"/><polygon class="cls-21" points="148.26 154.5 174.5 146.18 197.75 155.54 175.15 165.06 148.26 154.5"/><polygon class="cls-28" points="173.6 141.18 174.2 143.97 166.53 141.51 163.87 131.51 168.49 134.85 172.53 139.43 173.6 141.18"/><polygon class="cls-28" points="167.93 146.18 168.97 150.04 171.28 153.35 176.23 153.93 177.34 148.91 167.93 146.18"/><polygon class="cls-29" points="176.23 153.93 168.97 150.04 165.11 150.29 162.95 152.7 166.53 155.14 176.23 155.55 176.23 153.93"/><polygon class="cls-30" points="162.95 152.7 162.95 154.24 166.97 156.92 176.23 155.55 176.23 153.93 167.31 154.6 162.95 152.7"/><polygon class="cls-31" points="172.53 139.43 174.2 143.97 179.93 146.08 185.42 147.29 187.03 135.78 176.41 137.65 172.53 139.43"/><polygon class="cls-30" points="174.2 143.97 185.42 147.29 185.06 150.61 180.22 150.48 176.03 149.32 174.2 143.97"/><polygon class="cls-28" points="176.03 149.32 176.23 155.55 179.71 155.02 184.64 155.95 185.06 150.61 176.03 149.32"/><polygon class="cls-29" points="180.83 153.93 178.26 154.81 176.23 155.55 175.97 157.48 180.86 158.84 185.95 157.48 185.3 156.09 180.83 153.93"/><polygon class="cls-30" points="175.97 157.48 175.95 159.14 181.12 160.57 186.15 159.14 185.95 157.48 180.86 158.27 175.97 157.48"/><polygon class="cls-28" points="167.93 135.17 172.53 139.43 175.38 138.76 173.73 132.91 171.99 129.21 169.53 132 167.93 135.17"/><polygon class="cls-15" points="171.99 129.21 167.93 135.17 163.87 131.51 164.29 124.83 168.44 126.65 171.99 129.21"/><polygon class="cls-15" points="171.99 129.21 175.38 138.76 187.03 135.78 186.43 132.83 186.54 124.63 171.99 129.21"/><polygon class="cls-7" points="164.14 120.67 164.29 124.83 171.99 129.21 172.67 119.73 168.83 119.66 164.14 120.67"/><polygon class="cls-7" points="172.67 119.73 178.83 121.48 186.54 124.63 182.29 126.36 177.34 128.13 171.99 129.21 172.67 119.73"/><polygon class="cls-15" points="169.22 97.79 164 97.85 163.58 107.56 164.14 120.67 172.67 119.73 173.86 106.26 171.79 101.31 169.22 97.79"/><polygon class="cls-15" points="187.43 102.46 191.84 104.02 190.25 112.66 187.37 120.34 186.54 124.63 172.67 119.73 173.86 106.26 180.68 103.94 187.43 102.46"/><polygon class="cls-4" points="179.71 99.63 186.21 97.97 187.69 97.17 189.47 96.84 187.43 102.46 173.86 106.26 179.71 99.63"/><polygon class="cls-20" points="189.47 96.84 187.67 95.69 186.53 96.61 186.21 97.97 189.47 96.84"/><polygon class="cls-20" points="172.61 92.11 168.68 94.27 169.22 97.79 173.86 106.26 173.61 97.64 172.61 92.11"/><polygon class="cls-20" points="187.37 120.34 191.84 104.02 197.59 105.29 193.06 113.08 187.37 120.34"/><polygon class="cls-23" points="197.59 105.29 201.35 105.88 200.97 119.84 187.37 120.34 197.59 105.29"/><polygon class="cls-20" points="164 97.85 163.64 108.89 157.64 97.79 164 97.85"/><polygon class="cls-23" points="157.64 97.79 150.99 102.3 153.45 106.26 155.61 110.94 163.64 108.89 157.64 97.79"/><polygon class="cls-29" points="151.53 96.44 144.45 100.39 149.3 112.53 155.61 110.94 151.53 96.44"/><rect class="cls-32" x="180.83" y="107.91" width="1.35" height="9.82" transform="translate(18.59 251.13) rotate(-72.19)"/><polygon class="cls-4" points="173.86 106.26 173.27 119.91 171.99 129.21 172.05 119.8 173.86 106.26"/><polygon class="cls-31" points="182.08 134.32 184.31 136.47 187.03 135.78 186.43 132.83 184.32 133.61 182.08 134.32"/><polygon class="cls-28" points="184.31 136.47 186.47 138.51 187.03 135.78 184.31 136.47"/><polygon class="cls-9" points="188.89 72.32 175.12 70.87 170.88 68.81 166.25 90.16 172.61 92.11 173.47 94.87 173.05 97.8 180.19 99.86 186.21 97.97 195.19 83.97 197.36 80.63 188.89 72.32"/><polygon class="cls-5" points="187.31 72.15 180.79 94.5 172.61 92.11 173.36 94.98 173.05 97.8 173.86 106.26 180.19 99.86 186.21 97.97 192.27 88.53 188.66 85.82 191.73 81.46 195.19 83.97 197.36 80.63 190.74 74.14 188.89 72.32 187.31 72.15"/><polygon class="cls-5" points="174.2 82.99 178.19 77.31 183.26 75.67 177.46 73.88 175.97 75.69 174.2 82.99"/><polygon class="cls-5" points="173.8 75.17 172.77 73.32 170.13 72.27 172.57 80.23 173.8 75.17"/><polygon class="cls-7" points="188.66 85.82 192.27 88.53 190.44 91.38 188.66 85.82"/><polygon class="cls-7" points="175.21 78.82 181.81 84.33 184.52 81.72 185.68 81.67 186.22 80.88 183.26 80.57 175.21 78.82"/><polygon class="cls-7" points="173.01 78.4 168.48 79.88 168.67 78.99 169.56 77.4 173.01 78.4"/><polygon class="cls-23" points="190.74 74.14 182.64 86.2 186.43 88.99 191.73 81.46 195.19 83.97 197.36 80.63 193.87 76.39 190.74 74.14"/><rect class="cls-18" x="170.24" y="77.96" width="7.52" height="2.23" transform="translate(56.59 229.89) rotate(-76.54)"/><polygon class="cls-22" points="184.04 77.62 194.91 80.24 195.19 83.97 191.73 81.46 183.26 80.57 183.35 78.92 184.04 77.62"/><polygon class="cls-20" points="173.8 75.17 175.97 75.69 176.08 76.61 175.51 77.58 173.35 77.04 173.11 76.25 173.8 75.17"/><path class="cls-22" d="M173.8,75.17,173,78.4l-7.37,1,1.11-5.85Zm2.17.52L184,77.62l-1.57,5.91-7.26-4.71Z"/><polygon class="cls-7" points="190.78 85.22 192.27 82.99 193.25 84.47 190.78 85.22"/><polygon class="cls-20" points="183.26 75.67 179.24 72.93 177.46 73.88 183.26 75.67"/><polygon class="cls-20" points="172.77 73.32 170.54 70.87 168.87 71.76 172.77 73.32"/><polygon class="cls-7" points="168.59 83.64 180.8 86.59 175.22 90.08 171.64 89.05 168.59 83.64"/><polygon class="cls-14" points="170 84.77 178.57 86.84 176.97 87.89 170.85 86.05 170 84.77"/><polygon class="cls-7" points="172.03 82.47 172.96 84.01 174.2 82.99 172.03 82.47"/><polygon class="cls-20" points="188.89 72.32 186.12 69.09 180.86 64.74 175.12 62.39 174.65 66.73 175.12 70.87 188.89 72.32"/><polygon class="cls-4" points="175.12 62.39 165.47 58.6 170.88 68.81 175.12 70.87 175.12 62.39"/><polygon class="cls-7" points="180.86 64.74 186.21 61.73 194.79 65.46 200.32 68.97 197.36 80.63 190.74 74.14 188.89 72.32 180.86 64.74"/><polygon class="cls-15" points="186.21 61.73 194.97 60.39 198.19 64.81 200.32 68.97 186.21 61.73"/><polygon class="cls-7" points="194.97 60.39 197.92 58.53 202.05 57.1 203.27 67.41 198.46 63.96 194.97 60.39"/><polygon class="cls-4" points="194.97 60.39 203.27 67.41 200.32 68.97 194.97 60.39"/><polygon class="cls-20" points="185.68 81.67 191.35 82.01 191.73 81.46 186.2 80.9 185.68 81.67"/><polygon class="cls-15" points="194.97 60.39 202.05 57.1 195.35 56.99 194.97 60.39"/><polygon class="cls-7" points="172.61 92.11 183.31 95.24 173.05 97.8 172.61 92.11"/><polygon class="cls-33" points="166.53 141.51 174.2 143.97 176.03 149.32 167.93 146.18 166.53 141.51"/><polygon class="cls-23" points="170.85 86.05 171.96 88.24 175.21 88.99 176.97 87.89 170.85 86.05"/><polygon class="cls-21" points="168.79 149.78 143.07 143.12 117.91 150.28 143.34 159.18 168.79 149.78"/><polygon class="cls-23" points="128.8 121.25 134.5 124.72 143.44 130.15 137.42 147.2 129.93 143.79 128.8 121.25"/><polygon class="cls-34" points="148.26 147.17 143 132.65 149.84 131.28 157.05 134.99 156.73 147.77 152.3 149.17 148.26 147.17"/><polygon class="cls-35" points="148.26 147.17 147.65 153.63 158.34 153.13 156.73 147.77 148.26 147.17"/><polygon class="cls-20" points="125.89 109.17 129.53 117.62 133.25 115.12 133.4 110.76 128.79 109.23 125.89 109.17"/><polygon class="cls-23" points="132.47 98.6 125.89 109.17 133.4 110.76 134.81 108.72 137.64 102.08 132.47 98.6"/><polygon class="cls-24" points="128.8 121.25 141.3 122.81 156.66 126.56 157.05 134.99 143 132.65 128.8 121.25"/><polygon class="cls-20" points="131.79 123.65 140.9 137.35 143 132.65 131.79 123.65"/><polygon class="cls-36" points="129.93 143.79 124.94 150.6 137.51 150.03 137.42 147.2 129.93 143.79"/><polygon class="cls-23" points="156.74 121.28 157.57 113.12 159.23 105.17 164.18 107.41 167.28 120.33 156.74 121.28"/><polygon class="cls-20" points="167.28 120.33 157.57 113.12 155.41 118.98 156.66 126.56 167.28 120.33"/><polygon class="cls-22" points="160.29 89.09 157.99 87.74 154.1 90.16 154.85 92.97 161.41 95.26 160.29 89.09"/><polygon class="cls-24" points="146.12 99.74 141.23 99.3 134.21 100.37 129.53 117.62 156.84 123.47 159.23 105.17 156.78 103.49 154.7 99.64 146.12 99.74"/><polygon class="cls-20" points="152.53 102.56 159.23 105.17 164.18 107.41 163.85 102.46 154.7 99.64 152.53 102.56"/><polygon class="cls-20" points="130.28 102.12 141.89 101.37 140.4 98.4 132.47 98.6 130.28 102.12"/><polygon class="cls-15" points="145.26 110.93 143.25 108.36 142.29 104.21 154.7 99.64 145.26 110.93"/><polygon class="cls-15" points="142.29 104.21 140.64 106.65 136.83 109.02 140.4 98.4 142.29 104.21"/><polygon class="cls-23" points="136.83 109.02 133.38 118.45 145.8 121.12 145.26 110.93 142.29 104.21 136.83 109.02"/><polygon class="cls-9" points="131.74 71.31 131.14 77.51 131.71 96.61 141.2 98.58 143.33 101.25 142.29 104.21 154.7 99.64 154.91 90.75 158.03 90.34 160.07 85.18 155.87 82.78 152.95 86.84 151.41 86.18 151.21 80.64 154.14 73.92 146.67 68.58 138.06 70.85 138.06 66.54 131.74 71.31"/><polygon class="cls-5" points="153.83 73.96 146.94 81.35 144.04 94.19 140.4 98.4 143.31 101.98 142.29 104.21 154.7 99.64 154.9 90.9 153.33 90.91 152.86 87.18 151.23 86.38 150.96 80.63 153.83 73.96"/><polygon class="cls-5" points="138.35 84.07 132.53 80.17 137.97 78.76 146.95 81.75 141.23 83.35 138.94 89.66 138.35 84.07"/><polygon class="cls-5" points="144.61 91.6 137.64 94.89 132.1 90.72 137.61 91.69 144.61 91.6"/><polygon class="cls-23" points="144.61 91.6 140.91 90.76 138.94 89.66 136.1 89.43 134.54 90.36 132.1 90.72 137.59 93.39 144.61 91.6"/><polygon class="cls-14" points="139.59 79.55 138.94 89.66 136.1 89.43 137.07 79.55 139.59 79.55"/><polygon class="cls-20" points="146.95 81.75 137.99 80.1 132.53 80.17 133.04 78.2 138.82 77.42 146.88 80.1 146.95 81.75"/><polygon class="cls-22" points="136.11 89.42 137.5 91.07 138.94 89.66 136.11 89.42"/><polygon class="cls-7" points="158.05 85.24 156.05 84.76 155.03 87.59 158.05 85.24"/><polygon class="cls-7" points="140.4 98.4 146.78 98.99 142.29 104.21 140.4 98.4"/><polygon class="cls-7" points="155.06 90.73 153.33 90.91 154.85 92.97 155.06 90.73"/><polygon class="cls-24" points="131.99 71.32 131.12 68.36 128.43 65.29 131.1 77.37 131.99 71.32"/><polygon class="cls-24" points="153.83 73.96 159.16 72.52 166.75 73.55 162.84 82.97 156.2 82.15 150.96 80.63 153.83 73.96"/><polygon class="cls-15" points="141.29 108.45 139.63 109.5 140.57 111.37 142.54 110.39 141.29 108.45"/><polygon class="cls-15" points="139.99 114.44 141.07 116.18 139.13 117.16 138.26 115.53 139.99 114.44"/><polygon class="cls-20" points="156.84 123.47 129.53 117.62 128.8 121.25 156.66 126.56 156.84 123.47"/><path class="cls-15" d="M135.74,122.61l6.51,1.13.51-3.33-6.3-1.31Zm1.71-2.29,4.1.77-.25,1.72-4.2-.75Z"/><polygon class="cls-20" points="131.99 71.32 137.88 67.1 141.21 65.34 145.04 61.99 128.43 65.29 131.99 71.32"/><polygon class="cls-20" points="153.83 73.96 146.59 68.87 152.62 66.8 158.95 65.52 166.75 73.55 153.83 73.96"/><polygon class="cls-24" points="145.04 61.99 155.02 60 158.95 65.52 146.59 68.87 137.85 71.16 137.88 67.1 145.04 61.99"/><polygon class="cls-20" points="150.96 80.63 162.84 82.97 160.29 89.09 158.03 90.34 159.87 85.25 155.86 83.02 152.86 87.18 151.23 86.38 150.96 80.63"/><path class="cls-37" d="M157,72.69"/><polygon class="cls-24" points="132.81 96.84 129.84 99.44 136.66 101.59 140.4 98.4 132.81 96.84"/><polygon class="cls-20" points="129.84 99.44 130.28 102.12 134.45 104.39 136.66 101.59 129.84 99.44"/><circle class="cls-26" cx="134.83" cy="82.48" r="1.08"/><circle class="cls-26" cx="142.12" cy="83.07" r="1.08"/><polygon class="cls-20" points="194.23 74.54 187.84 78.44 192.97 84.63 194.23 79.58 194.23 74.54"/><polygon class="cls-7" points="221.06 74.54 223.4 72.75 226.22 67.76 206.38 58.92 204.64 64.19 204.37 68.29 213.16 73.02 221.06 74.54"/><polygon class="cls-6" points="206.38 58.92 192.62 64.66 194.23 74.54 200.11 72.06 204.37 68.29 206.38 58.92"/><polygon class="cls-4" points="226.22 67.76 225.01 79.58 222.27 77.23 221.06 74.54 226.22 67.76"/><polygon class="cls-23" points="205.97 60.82 206.76 61.14 206.34 63.41 208.24 64.18 207.95 65.68 205.97 64.93 205.53 67.01 204.71 66.73 204.64 64.19 205.97 60.82"/><polygon class="cls-24" points="205.97 60.82 205.03 61.28 204.58 63.22 202.65 64.15 202.67 65.5 204.26 64.79 203.82 67.02 204.71 66.73 205.97 60.82"/><polygon class="cls-9" points="199.75 116.62 200.73 121.27 200.73 127.29 192.96 120.13 199.75 116.62"/><polygon class="cls-6" points="204.64 104.4 201.35 105.88 192.96 120.13 199.75 116.62 199.99 113.68 204.64 104.4"/><polygon class="cls-2" points="232 167.76 207.56 164.36 178.82 167.5 201.59 169.9 232 167.76"/><polygon class="cls-38" points="205.9 153.31 204.19 154.56 203.94 156.15 199.73 162.23 198.8 162.68 198 161.66 198.8 154.06 205.9 153.31"/><polygon class="cls-38" points="210.43 152.86 211.31 154.06 210.97 155.52 212.44 162.69 213.71 163.1 214.36 161.78 216.99 152.19 210.43 152.86"/><polygon class="cls-39" points="198 161.66 194.12 165.09 196.15 166.82 200.48 167.13 199.73 162.23 198 161.66"/><polygon class="cls-39" points="212.44 162.69 211.92 167.94 217.08 167.13 217.16 165.7 214.36 161.78 212.44 162.69"/><polygon class="cls-40" points="198.8 154.06 203.94 156.14 205.9 153.31 202.35 152.97 198.8 154.06"/><polygon class="cls-40" points="216.99 152.19 210.97 155.52 210.43 152.86 213.37 152.19 216.99 152.19"/><polygon class="cls-41" points="200.48 167.13 194.12 165.09 191.81 167.13 200.48 167.13"/><polygon class="cls-41" points="211.92 167.94 217.16 165.7 218.76 167.94 211.92 167.94"/><polygon class="cls-6" points="213.23 103.94 219.05 106.89 218.63 112.93 217.08 117.92 215.17 117.14 207.28 111.21 213.23 103.94"/><polygon class="cls-9" points="194.23 74.54 191.29 98.1 202.93 99.97 207.28 111.21 216.6 98.12 223.13 91.83 218.66 89.37 216.74 92.88 213.23 80.05 209.39 77.74 202.65 75.17 194.23 74.54"/><polygon class="cls-5" points="213.23 80.05 210.34 101.07 202.93 99.97 205.26 102.18 204.64 104.4 207.28 111.21 223.13 91.83 218.66 89.37 216.74 92.88 216.29 86.75 213.23 80.05"/><polygon class="cls-5" points="196.18 80.69 200.48 86.61 202.55 89.38 208.74 82.71 196.18 80.69"/><polygon class="cls-14" points="203.64 81.87 202.55 89.38 200.11 89.04 201.25 81.48 203.64 81.87"/><polygon class="cls-7" points="200.11 89.04 201.17 90.66 202.55 89.38 200.11 89.04"/><polygon class="cls-7" points="202.93 99.97 204.64 104.4 212.56 101.36 202.93 99.97"/><polygon class="cls-7" points="217.08 94.99 217.99 98.12 219.46 96.31 217.08 94.99"/><polygon class="cls-7" points="217.96 93.88 219.46 91.4 221.06 92.29 217.96 93.88"/><polygon class="cls-20" points="205.26 77.74 203.88 73.02 204.37 68.29 221.06 74.54 228.71 84.31 220.97 82.71 213.23 80.05 209.77 79.04 205.26 77.74"/><polygon class="cls-22" points="213.23 80.05 216.74 92.88 218.66 89.37 223.13 91.83 228.71 84.31 213.23 80.05"/><polygon class="cls-23" points="204.37 68.29 194.23 74.54 205.26 77.74 204.37 68.29"/><polygon class="cls-20" points="203.64 81.87 203.89 80.21 208.74 82.71 203.64 81.87"/><polygon class="cls-20" points="201.25 81.48 196.18 80.69 201.43 79.88 201.25 81.48"/><polygon class="cls-7" points="205.48 93.56 200.34 95.75 196.46 92.16 200.61 94.17 205.48 93.56"/><polygon class="cls-23" points="203.39 93.82 200.9 92.28 198.18 92.99 200.61 94.17 203.39 93.82"/><polygon class="cls-14" points="207.28 111.21 211 114.41 214.21 115.96 213.23 103.94 207.28 111.21"/><polygon class="cls-14" points="204.64 104.4 199.5 113.84 202.93 113.44 207.28 111.21 204.64 104.4"/><polygon class="cls-7" points="219.05 106.89 227.47 124.74 220.44 120.79 217.08 117.92 219.05 106.89"/><polygon class="cls-7" points="207.28 111.21 213.03 115.15 214.21 115.96 215.04 116.53 217.08 117.92 217.95 122.45 220.69 127 223.13 133.11 214.21 133.11 204.19 131.32 201.71 129.94 199.5 113.84 207.28 111.21"/><polygon class="cls-4" points="207.28 111.21 204.19 131.32 201.07 131.02 200.97 129.94 201.84 128.98 200.73 127.29 199.5 113.84 207.28 111.21"/><polygon class="cls-42" points="204.19 131.32 209.38 140.69 218.08 148.86 223.13 133.11 204.19 131.32"/><polygon class="cls-43" points="204.19 131.32 199.5 146.97 199.5 152.97 216.99 152.19 218.08 148.86 204.19 131.32"/><polygon class="cls-42" points="216.99 152.19 199.5 146.97 198.8 154.06 216.99 152.19"/><polygon class="cls-44" points="220.69 127 220.05 125.39 208.44 125.39 204.19 131.32 220.69 127"/><polygon class="cls-44" points="204.19 131.32 200.97 129.94 200.73 127.29 206.47 126.64 204.19 131.32"/><polygon class="cls-42" points="204.19 131.32 199.5 146.97 200.97 129.94 204.19 131.32"/><polygon class="cls-9" points="217.08 117.92 208.94 123.02 208.44 124.59 208.94 126.37 227.47 124.74 217.08 117.92"/><polygon class="cls-40" points="200.73 127.29 204.19 131.32 208.94 126.37 204.64 125.85 200.73 127.29"/><polygon class="cls-5" points="208.94 123.02 202.93 119.34 201.11 123.75 200.73 127.29 208.94 126.37 208.94 123.02"/><polygon class="cls-14" points="202.93 119.34 197.63 124.43 200.73 127.29 202.93 119.34"/><polygon class="cls-24" points="214.44 102.46 220.69 104.02 221.06 106.89 213.23 103.94 214.44 102.46"/><polygon class="cls-20" points="221.06 106.89 218.5 109.95 213.57 108.11 213.23 103.94 221.06 106.89"/><circle class="cls-26" cx="198.46" cy="84.42" r="1.08"/><circle class="cls-26" cx="205.55" cy="85.47" r="1.08"/></g><polygon class="cls-45" points="73.83 44.44 238.95 40.56 235.51 130 80.65 135.86 73.83 44.44"/><line class="cls-46" x1="153.65" y1="21.02" x2="127.36" y2="41.06"/><line class="cls-46" x1="162.37" y1="22.32" x2="190.27" y2="41.06"/><polygon class="cls-7" points="155.19 15.21 149.48 23 157.53 29.43 165.72 23.38 155.19 15.21"/><path class="cls-7" d="M64.69,35.57l8,112.22L163.13,142l82.43-2.9,7.7-106.63-93.15,2.81Zm168.69,88.86-69.83,7.8-79.2.69-3.73-85.4,79.79-3.93,73.52,1.35Z"/><polygon class="cls-6" points="253.26 32.5 233.93 44.94 80.62 47.52 64.69 35.57 253.26 32.5"/><polygon class="cls-24" points="84.35 132.92 72.71 147.79 245.56 139.13 233.38 124.43 84.35 132.92"/><line class="cls-46" x1="509.17" y1="9" x2="487.92" y2="20"/><line class="cls-46" x1="531.67" y1="7.75" x2="552.16" y2="23"/><polygon class="cls-4" points="514.67 25 516.17 8.5 522.92 9.75 521.67 25 514.67 25"/><polygon class="cls-6" points="506.17 11 533.67 9.75 534.67 0 504.17 3 506.17 11"/><polygon class="cls-2" points="429.37 263.7 554.42 259.96 634.93 278.75 530.58 289.6 429.42 283.88 429.37 263.7"/><polygon class="cls-15" points="475.3 258.78 546.67 255.59 580.42 270.25 481.93 272.96 475.3 258.78"/><polygon class="cls-7" points="481.93 270.96 580.42 270.25 579.49 278.86 481.93 281.79 481.93 270.96"/><polygon class="cls-3" points="512.04 265.78 504.9 262.67 509.25 191.98 517.93 200.5 512.04 265.78"/><polygon class="cls-4" points="531.9 201.69 535.58 264.25 512.04 265.78 514.93 201.46 531.9 201.69"/><polygon class="cls-2" points="507.26 224.41 513.62 230.71 533.32 225.77 531.9 201.69 517.93 200.5 509.25 191.98 507.26 224.41"/><polygon class="cls-24" points="475.3 258.78 473.3 270.25 481.93 281.79 483.93 275 481.93 270.96 475.3 258.78"/><polygon class="cls-5" points="413.16 11.67 618.87 21.58 630.64 211.35 404.55 215.43 413.16 11.67"/><polygon class="cls-3" points="619.79 33.25 618.87 21.58 413.16 11.67 412.94 29.88 619.79 33.25"/><line class="cls-47" x1="564.58" y1="59.26" x2="609.44" y2="47.08"/><line class="cls-47" x1="567.06" y1="65.12" x2="603.36" y2="54.75"/><line class="cls-47" x1="568.86" y1="71.43" x2="605.3" y2="61.18"/><polygon class="cls-48" points="532.03 46.79 538.57 41.37 543.41 49.04 537.76 53.68 540.18 57.51 537.43 58.66 533.59 53.57 538.75 48.73 537.42 46.14 533.7 49.4 532.03 46.79"/><polygon class="cls-48" points="538.57 64.25 540.1 61.34 543.42 64.06 541.08 66.75 538.57 64.25"/><line class="cls-47" x1="549.87" y1="177.67" x2="576.21" y2="173"/><line class="cls-47" x1="550.54" y1="182" x2="569.21" y2="178.67"/><polygon class="cls-49" points="535.58 181.75 541.46 186.13 548.46 174.88 540.08 181.88 535.58 181.75"/><line class="cls-47" x1="552.75" y1="192.79" x2="579.08" y2="188.13"/><line class="cls-47" x1="553.42" y1="197.13" x2="572.08" y2="193.79"/><polygon class="cls-49" points="538.46 196.88 544.33 201.25 551.33 190 542.96 197 538.46 196.88"/><polygon class="cls-16" points="498.25 88 512.04 167.31 576.71 144.14 572.46 128.12 498.25 88"/><polygon class="cls-50" points="498.25 86.87 556.58 72 581.08 138.25 518.42 156.75 498.25 86.87"/><polygon class="cls-51" points="533.92 84.67 531.29 92.01 526.75 84.83 531.29 85.44 533.92 84.67"/><polygon class="cls-7" points="529.25 82 533.92 84.67 530.08 88.17 526.75 84.83 529.25 82"/><polyline class="cls-47" points="547.94 98.15 522.4 106.13 533.65 124.64 547.27 121.1"/><polygon class="cls-49" points="516.52 102.88 525.77 100.1 528.27 109.54 520.29 111.79 516.52 102.88"/><polygon class="cls-49" points="544.27 94.52 552.52 92.17 554.64 100.89 547.4 103.21 544.27 94.52"/><polygon class="cls-49" points="529.11 124.25 537.4 121.1 540.09 128.93 532.02 131.39 529.11 124.25"/><polygon class="cls-49" points="544.27 119.04 551.48 116.5 553.77 123.91 546.62 126.91 544.27 119.04"/><polygon class="cls-16" points="501.54 60.69 490.55 137.35 433.86 125.13 444.28 106.66 501.54 60.69"/><polygon class="cls-9" points="443.17 44.75 501.54 60.69 480.42 130.26 423.44 110.38 443.17 44.75"/><polygon class="cls-51" points="465.08 58.01 465.08 67.5 472.81 60.69 465.08 58.01"/><polygon class="cls-7" points="465.08 58.01 470.42 55.67 472.81 60.69 466.8 62.85 465.08 58.01"/><ellipse class="cls-52" cx="451.04" cy="73.76" rx="6.23" ry="7.01"/><ellipse class="cls-52" cx="479.42" cy="96.2" rx="6.5" ry="7.37"/><ellipse class="cls-52" cx="450.73" cy="106.66" rx="6.46" ry="6.79"/><polygon class="cls-6" points="459.08 78.67 469.92 85.33 472.25 81.83 472.58 89.67 465.25 90.17 468.08 87 458.08 80.5 459.08 78.67"/><polygon class="cls-6" points="451.42 83.5 453.75 83.67 453.08 93.5 456.58 93.67 451.58 97.17 447.75 92.83 450.75 93.33 451.42 83.5"/><polygon class="cls-53" points="371.81 293.79 377.31 305.34 361.36 309.17 350.36 305.27 352.91 293.65 363.19 291.79 371.81 293.79"/><polygon class="cls-54" points="377.31 305.34 377.26 309.67 350.4 310.19 350.36 305.27 377.31 305.34"/><polygon class="cls-53" points="393.77 287.1 395.09 296.1 407.99 297.08 428.63 295.92 413.78 282.18 403.7 283.61 393.77 287.1"/><polygon class="cls-54" points="395.09 296.1 395.09 300.46 428.63 300.46 428.63 295.92 395.09 296.1"/><polygon class="cls-32" points="356.69 176.51 332.85 162.49 350.58 218.19 400.87 210.5 401.96 183.65 387.4 161.94 366.86 143.91 356.69 176.51"/><polygon class="cls-48" points="350.58 147.8 332.85 162.49 336.22 196.19 401.96 183.65 394.29 143.78 366.86 143.91 350.58 147.8"/><polygon class="cls-32" points="350.58 147.8 344.77 152.61 366.77 169.71 383.41 166.27 386.42 143.85 381.21 143.84 350.58 147.8"/><polygon class="cls-55" points="350.58 147.8 374.15 162.49 381.21 143.84 361.47 142.85 350.58 147.8"/><polygon class="cls-55" points="402.13 63.65 416.49 125.19 385.78 133.22 371.29 148 359.48 143.13 331.37 105.8 342.38 103.24 347.39 111.94 354.74 111.2 350.4 77.43 385.44 73.14 402.13 63.65"/><polygon class="cls-56" points="356.06 76.74 373.26 136.83 381.77 137.22 372.23 156.31 350.58 147.8 330.26 105.38 342.38 101.9 347.39 110.61 353.73 109.23 350.4 77.43 356.06 76.74"/><polygon class="cls-57" points="385.78 133.22 360.74 139.69 372.17 156.5 385.78 133.22"/><polygon class="cls-57" points="338.48 122.58 347.39 119.48 342.16 130.26 338.48 122.58"/><polygon class="cls-57" points="344.05 114.55 340.38 108.39 334.71 110.06 344.05 114.55"/><polygon class="cls-56" points="399.8 84.91 388.11 104.21 368.92 92.06 399.8 84.91"/><polygon class="cls-58" points="388.93 87.42 392.95 102.94 388.11 104.21 384.36 88.48 388.93 87.42"/><polygon class="cls-57" points="392.95 102.94 390.95 107.34 388.11 104.21 392.95 102.94"/><polygon class="cls-59" points="408.14 58.54 384.36 74.07 350.4 77.43 338.24 73.29 321.36 64.34 380.1 43.8 408.14 58.54"/><polygon class="cls-60" points="350.4 77.43 355.07 109.23 347.39 111.94 342.38 103.24 330.26 105.38 321.36 64.34 350.4 77.43"/><polygon class="cls-60" points="350.4 77.43 408.14 58.54 384.36 76.74 350.4 77.43"/><polygon class="cls-60" points="368.92 92.06 379.27 86.23 384.36 88.48 368.92 92.06"/><polygon class="cls-60" points="388.93 87.42 391.62 83.15 399.8 84.91 388.93 87.42"/><polygon class="cls-57" points="378.6 114.55 403.13 108.39 399.8 119.48 387.28 122.58 378.6 114.55"/><polygon class="cls-18" points="382.61 115.48 399.8 111.47 398.71 117.48 388.11 120.07 382.61 115.48"/><polygon class="cls-50" points="352.27 90.72 362.58 88.14 356.07 96.71 352.27 90.72"/><polygon class="cls-48" points="358.59 89.14 360.21 91.26 362.58 88.14 358.59 89.14"/><polygon class="cls-61" points="342.38 103.24 343.34 104.91 356.07 96.71 352.27 90.72 330.26 105.38 342.38 103.24"/><polygon class="cls-61" points="330.26 105.38 321.36 111.31 324.69 116.92 333.17 111.47 330.26 105.38"/><polygon class="cls-61" points="350.58 218.19 351.81 240.79 352.61 268.78 376.89 264.72 378.96 254.53 374.68 241.47 384.35 263.76 400.29 271.44 403.99 270.55 408.93 257.34 400.87 210.5 350.58 218.19"/><polygon class="cls-62" points="352.99 266.7 352.91 293.65 371.81 293.79 376.89 264.72 352.99 266.7"/><polygon class="cls-62" points="393.77 287.1 413.78 282.18 408.93 257.34 384.35 263.76 393.77 287.1"/><polygon class="cls-63" points="332.85 162.49 325.3 205.32 336.16 200.22 346.37 193.38 332.85 162.49"/><polygon class="cls-48" points="346.37 193.38 357.63 215.01 352.25 220.38 345.85 224.45 325.3 205.32 346.37 193.38"/><polygon class="cls-63" points="394.29 143.78 420.8 185.93 407.55 186.07 401.77 184.56 394.29 143.78"/><polygon class="cls-48" points="401.77 184.56 395.61 207.59 401.43 212.42 408.16 215.73 420.8 185.93 401.77 184.56"/><polygon class="cls-55" points="395.61 207.59 392.13 211.84 403.62 226.22 408.16 215.73 395.61 207.59"/><polygon class="cls-56" points="357.63 215.01 366.45 216.73 362.07 224.63 357.63 215.01"/><polygon class="cls-52" points="330.49 242.29 378.93 204.24 400.14 240.65 350.34 277.15 330.49 242.29"/><polygon class="cls-64" points="348.85 233.68 351.95 245.8 363.32 242.23 367.03 235.91 355.23 228.03 348.85 233.68"/><polygon class="cls-55" points="357.63 215.01 364.78 225.78 355.13 231.62 348.85 233.68 345.85 224.45 357.63 215.01"/><polygon class="cls-56" points="364.78 225.78 367.03 235.91 356.19 238.76 348.85 233.68 364.78 225.78"/><polygon class="cls-48" points="354.62 248.85 360.94 249.03 359.88 255.69 354.44 255.52 353.92 258.86 351.81 258.15 352.16 253.41 357.43 253.24 357.95 251.13 354.27 251.13 354.62 248.85"/><polygon class="cls-48" points="349.7 261.84 351.99 260.96 352.51 264.12 349.88 264.47 349.7 261.84"/><line class="cls-47" x1="376.03" y1="214.09" x2="390.43" y2="239.02"/><line class="cls-47" x1="371.64" y1="217.78" x2="386.04" y2="242.53"/><line class="cls-47" x1="339.7" y1="241.3" x2="351.28" y2="248.5"/><line class="cls-47" x1="338.29" y1="244.99" x2="347.24" y2="250.43"/><line class="cls-47" x1="367.26" y1="220.94" x2="376.91" y2="237.79"/><line class="cls-47" x1="368.13" y1="242.18" x2="380.07" y2="248.32"/><line class="cls-47" x1="366.91" y1="245.34" x2="376.21" y2="249.73"/><line class="cls-47" x1="365.68" y1="248.32" x2="372.52" y2="251.48"/><polygon class="cls-64" points="354.03 274.5 376.83 264.97 378.52 256.52 354.03 274.5"/><polygon class="cls-64" points="382.65 259.77 400.74 249.49 397.57 242.53 380.44 255.05 382.65 259.77"/><path class="cls-27" d="M399.16,93a3,3,0,1,1-3-3A3,3,0,0,1,399.16,93Z"/><path class="cls-27" d="M382.43,95.92a3,3,0,1,1-3-3A3,3,0,0,1,382.43,95.92Z"/><polygon class="cls-10" points="599.16 146.07 568.58 166.21 588.4 185.49 596.88 186.41 599.16 146.07"/><polygon class="cls-65" points="654.36 146.07 672.2 161.53 621.23 174.41 610.19 142.35 623.86 137.14 654.36 146.07"/><polygon class="cls-66" points="619.32 56.65 592.38 114.73 622.52 133.59 630.54 153.68 660.75 141.25 665.16 130.75 671.25 133.59 678.63 118.29 667.09 111.98 663.88 118.29 655.86 116.72 660.03 89.47 619.32 56.65"/><polygon class="cls-67" points="660.03 89.47 633.74 139.72 622.52 133.59 636 156.69 659.47 150.28 660.65 147.76 671.25 133.59 678.63 118.29 667.09 111.98 663.88 118.29 655.86 116.72 660.03 89.47"/><polygon class="cls-67" points="639.83 98.3 614.19 82.66 621.24 107.23 639.83 98.3"/><polygon class="cls-68" points="623.33 88.23 615.15 103.56 621.24 107.23 629.09 91.75 623.33 88.23"/><polygon class="cls-36" points="622.52 133.59 633.74 139.72 646.41 141.87 636 154.22 630.54 153.68 622.52 133.59"/><polygon class="cls-23" points="619.32 56.65 681.51 70.52 659.07 79.36 639.83 81.22 619.32 56.65"/><polygon class="cls-23" points="660.03 89.47 653.62 118.29 663.88 118.29 668.05 114.63 678.63 118.29 670.61 131.56 667.09 132.42 668.85 139.95 683.12 135.59 696.26 105.16 674.94 92.62 660.03 89.47"/><polygon class="cls-20" points="670.61 131.56 683.12 135.59 660.51 148.11 667.61 136.76 667.61 133.61 670.61 131.56"/><polygon class="cls-20" points="639.83 98.3 634.46 87.84 629.09 91.75 639.83 98.3"/><polygon class="cls-20" points="623.33 88.23 624.77 81.22 614.19 82.66 623.33 88.23"/><polygon class="cls-20" points="621.24 107.23 624.77 122.47 602.97 109.6 615.15 103.56 621.24 107.23"/><polygon class="cls-22" points="615.15 103.56 615.15 109.6 621.24 107.23 615.15 103.56"/><polygon class="cls-36" points="666.28 124.88 670.29 118.29 674.14 121.59 666.28 124.88"/><polygon class="cls-36" points="670.72 131.59 664.11 130.06 667.61 136.76 670.72 131.59"/><polygon class="cls-20" points="639.83 81.22 696.26 105.16 681.51 70.52 639.83 81.22"/><polygon class="cls-69" points="659.47 150.28 638.04 168.33 630.42 153.6 616.5 155.77 623.86 137.14 630.42 153.6 659.47 150.28"/><polygon class="cls-12" points="672.2 161.53 666.04 191.69 657.48 223.1 619.18 221.43 581.56 210.16 599.16 146.07 606.38 143.6 621.23 174.41 672.2 161.53"/><polygon class="cls-11" points="667.68 157.62 621.23 174.41 612.85 141.34 606.38 143.6 618.43 182.72 672.2 161.53 667.68 157.62"/><polygon class="cls-70" points="657.48 223.1 614.41 252.79 581.56 210.16 657.48 223.1"/><polygon class="cls-71" points="581.56 210.16 587.96 259.18 598.22 271.16 621.23 278.97 620.31 263.47 614.41 248.61 581.56 210.16"/><polygon class="cls-70" points="587.96 259.18 591.8 287.24 603.42 292.43 614.41 295.29 625.98 273.38 587.96 259.18"/><polygon class="cls-8" points="657.48 223.1 654.88 268.55 638.88 273.19 621.23 278.97 614.41 248.61 657.48 223.1"/><polygon class="cls-65" points="621.23 278.97 626.75 297.66 642.79 295.56 654.86 292.15 654.88 268.55 621.23 278.97"/><polygon class="cls-12" points="591.8 287.24 575.78 300.54 598.99 301.59 614.41 300.54 614.41 295.29 591.8 287.24"/><rect class="cls-62" x="575.78" y="300.54" width="38.63" height="4.94"/><polygon class="cls-12" points="626.75 297.66 625.83 305.15 646.84 309.71 661.16 302.79 654.86 292.15 626.75 297.66"/><polygon class="cls-11" points="625.83 305.15 625.83 310.49 647.89 314.44 661.16 309.27 661.16 302.79 646.84 308.65 625.83 305.15"/><polygon class="cls-11" points="672.2 161.53 690.76 208.04 675.3 200.19 664.26 194.75 672.2 161.53"/><polygon class="cls-10" points="664.26 194.75 646.84 221.28 656.85 233.5 690.76 208.04 664.26 194.75"/><polygon class="cls-66" points="646.84 221.28 643.43 227.22 649.6 239.98 656.85 233.5 646.84 221.28"/><polygon class="cls-72" points="649.6 239.98 656.08 246.02 656.85 233.5 649.6 239.98"/><polygon class="cls-11" points="588.4 185.49 583.16 143.6 576.59 138.01 570.87 135.55 562.36 177.8 588.4 185.49"/><polygon class="cls-67" points="570.9 135.59 581.06 114.73 587.58 125.05 591.1 136.98 583.19 143.63 570.9 135.59"/><polygon class="cls-68" points="581.06 114.73 595.58 107.85 600.08 124.88 591.1 136.98 581.06 114.73"/><path class="cls-27" d="M617.06,92.64a3,3,0,1,1-3-3A3,3,0,0,1,617.06,92.64Z"/><path class="cls-27" d="M634.2,101.49a3,3,0,1,1-3-3A3,3,0,0,1,634.2,101.49Z"/><polygon class="cls-70" points="272.63 326.34 270.03 327.73 266.74 327.83 263.55 319.35 272.33 318.15 272.63 326.34"/><polygon class="cls-65" points="271.03 315.26 270.03 327.73 288.1 327.73 280.21 316.36 271.03 315.26"/><polygon class="cls-70" points="302.91 311.14 299.42 316.51 301.46 324.6 305.03 324.49 310.61 313.38 304.36 305.42 302.91 311.14"/><polygon class="cls-65" points="310.39 301.49 316.17 308.65 326.02 324.15 311.02 324.79 304.47 310.35 310.39 301.49"/><polygon class="cls-11" points="307.78 178.36 320.41 213.08 300.95 230.96 302.33 204.15 307.78 178.36"/><polygon class="cls-11" points="245.37 182.87 229.24 212.73 252.32 210.37 245.37 182.87"/><polygon class="cls-12" points="296.88 174.35 307.78 178.36 300.95 230.96 277.73 233.86 259.13 234.29 248.35 196.38 239.85 168.14 296.88 174.35"/><polygon class="cls-38" points="296.88 174.35 273.84 200.45 255.88 181.93 264.15 159.92 287.8 170.71 296.88 174.35"/><polygon class="cls-20" points="300.44 101.27 314.87 114.86 306.6 134.38 300.44 101.27"/><polygon class="cls-38" points="300.44 101.27 314.87 162.85 287.8 170.71 279.86 190.88 259.88 177.6 246.49 165.28 254.55 152.14 277.71 123.73 300.44 101.27"/><polygon class="cls-73" points="254.55 152.14 259.88 177.6 287.8 170.71 279.86 190.88 259.88 177.6 237.57 169.22 254.55 152.14"/><polygon class="cls-73" points="297.2 124.94 286.4 146.82 270.61 134.33 297.2 124.94"/><polygon class="cls-74" points="286.33 128.78 290.4 145.84 286.4 146.82 281.89 130.35 286.33 128.78"/><polygon class="cls-40" points="290.4 145.84 288.94 149.56 286.4 146.82 290.4 145.84"/><polygon class="cls-40" points="287.8 170.71 259.88 177.6 280.35 193.15 287.8 170.71"/><polygon class="cls-23" points="300.44 101.27 239.73 169.22 228.25 166.92 215.32 156.55 251.37 111.94 283.9 85.29 300.44 101.27"/><polygon class="cls-20" points="283.9 85.29 227.02 109.81 215.32 156.55 283.9 85.29"/><polyline class="cls-20" points="215.32 156.55 259.88 177.6 237.57 201.74"/><polygon class="cls-10" points="259.13 240.08 249.38 266.58 279.58 277.75 308.45 278.34 300.95 243.19 283.33 240.83 259.13 240.08"/><polygon class="cls-11" points="249.38 266.58 260.81 318.42 285.5 323.89 315.74 308.27 308.45 278.34 249.38 266.58"/><polygon class="cls-8" points="259.13 234.29 300.95 230.96 300.95 243.19 259.13 240.08 259.13 234.29"/><polygon class="cls-65" points="283.33 232.37 283.33 241.88 273.79 241.17 273.79 233.13 283.33 232.37"/><path class="cls-5" d="M211.46,207.67"/><polygon class="cls-9" points="210.61 208.41 248.35 196.38 270.13 246.3 233.88 260.29 210.61 208.41"/><line class="cls-75" x1="218.54" y1="215.36" x2="246.24" y2="205.72"/><line class="cls-75" x1="220.47" y1="220.62" x2="248.35" y2="210.54"/><polyline class="cls-75" points="250.1 224.48 248.52 233.94 233.09 233.94"/><line class="cls-75" x1="248.48" y1="233.81" x2="249.09" y2="240.52"/><polygon class="cls-76" points="230.81 231.14 235.55 230.79 235.02 237.45 230.11 237.45 230.81 231.14"/><polygon class="cls-76" points="245.54 222.72 250.45 220.27 253.25 226.41 248.96 227.98 245.54 222.72"/><polygon class="cls-76" points="246.42 238.85 252.03 240.43 250.98 244.46 246.42 244.29 246.42 238.85"/><polygon class="cls-77" points="218.54 205.88 228.97 221.32 238.7 210.99 218.54 205.88"/><polygon class="cls-38" points="235.93 200.34 228.97 197.8 218.54 205.88 227.84 203.97 235.93 200.34"/><polygon class="cls-73" points="218.54 205.88 229.94 216.76 238.7 210.99 235.93 200.34 218.54 205.88"/><polygon class="cls-23" points="286.33 128.78 284.89 124.94 297.2 124.94 286.33 128.78"/><polygon class="cls-23" points="281.89 130.35 280.68 126.86 270.61 134.33 281.89 130.35"/><circle class="cls-26" cx="295.05" cy="134.05" r="2.55"/><circle class="cls-26" cx="276.74" cy="139.15" r="2.55"/><polygon class="cls-8" points="276.79 157.34 289.42 150.86 300.44 152.14 291.05 163.5 276.79 157.34"/><polygon class="cls-14" points="281.97 157.02 296.55 153.62 290.24 159.94 281.97 157.02"/><polygon class="cls-77" points="261.26 225.97 273.79 233.13 283.33 241.88 303.98 257.31 300.95 243.19 300.95 230.96 276.88 222.33 266.45 221.32 262.29 213.6 248.61 212.82 257.81 218.08 261.26 225.97"/><polygon class="cls-13" points="320.41 213.08 278.33 211.76 275.97 218.69 277.8 225.97 300.95 230.96 320.41 213.08"/><polygon class="cls-73" points="260.18 210.19 247.56 209.66 248.61 212.82 262.29 216.76 260.18 210.19"/><polygon class="cls-73" points="278.33 211.76 270.7 205.72 264.39 211.24 278.33 211.76"/><polygon class="cls-38" points="278.33 211.76 260.18 210.19 262.81 224.65 277.8 225.97 278.33 211.76"/><polygon class="cls-13" points="285.5 323.89 249.38 266.58 258.87 320.37 285.5 323.89"/><polygon class="cls-20" points="251.22 168.52 259.88 177.6 246.81 191.79 251.22 168.52"/><polygon class="cls-20" points="254.59 152.72 246.81 191.79 215.32 156.55 254.59 152.72"/><polygon class="cls-13" points="727.33 236.8 737.75 252.13 754.04 257.25 769.82 249.66 785.03 240.4 759.62 234.68 727.33 236.8"/><polygon class="cls-11" points="754.04 257.25 759.42 278.36 768.42 307.62 785.03 300.34 788.25 281.63 785.03 240.4 754.04 257.25"/><polygon class="cls-11" points="727.33 236.8 722.49 270.93 733.66 277.78 747.93 282 754.04 257.25 727.33 236.8"/><polygon class="cls-13" points="747.93 282 745.94 306.29 732.07 302.79 723.48 299.02 722.49 270.93 747.93 282"/><polygon class="cls-13" points="767.4 309.47 779.42 306.72 789.9 302.82 788.25 281.63 759.42 278.36 767.4 309.47"/><polygon class="cls-4" points="789.9 302.82 796.43 313.89 780.81 319.51 766.93 314.39 767.4 309.47 789.9 302.82"/><polygon class="cls-23" points="766.93 314.39 766.93 318.52 781.68 322.65 796.43 318.52 796.43 313.89 780.81 318.52 766.93 314.39"/><polygon class="cls-4" points="745.94 306.29 745.94 311.91 730 312.7 712.46 311.49 723.48 299.02 745.94 306.29"/><polygon class="cls-23" points="745.94 311.91 745.94 316.08 712.46 316.08 712.46 311.49 745.94 311.91"/><polygon class="cls-78" points="708.23 195.37 723.39 220 732.85 205.31 708.23 195.37"/><polygon class="cls-79" points="809.57 216.15 783.29 240.03 787.27 208.83 809.57 216.15"/><polygon class="cls-20" points="796.43 167.65 809.57 216.15 788.26 210.81 790.59 192.97 796.43 167.65"/><polygon class="cls-20" points="730.62 164.05 708.23 195.37 728.99 206.26 731.08 186.58 730.62 164.05"/><polygon class="cls-4" points="745.61 156.4 730.62 164.05 728.99 206.26 730.62 228.2 783.29 226.22 788.26 210.81 796.43 167.65 777.59 159.51 745.61 156.4"/><polygon class="cls-20" points="788.26 210.81 785.03 240.4 727.33 236.8 728.76 205.51 788.26 210.81"/><polygon class="cls-80" points="726.87 76.9 715.19 92.62 708.17 143.06 736.69 147.87 754.96 161.32 762.55 160.55 781.24 161.91 793.36 122.68 785.82 120.67 779.93 130.38 772.07 128.16 778.94 89.35 766.83 81.16 741.28 86.07 726.87 76.9"/><polygon class="cls-79" points="736.69 147.87 762.24 151.63 769.45 102.12 778.94 89.35 775.67 125.8 778.29 126.71 784.51 115.55 796.96 119.16 783.53 162.35 754.42 176.04 744.06 159.6 736.69 147.87"/><polygon class="cls-79" points="723.59 100.53 736.69 122.68 754.05 105.55 723.59 100.53"/><polygon class="cls-81" points="740.8 103.37 736.69 122.68 731.62 121.77 735.06 102.42 740.8 103.37"/><polygon class="cls-78" points="736.69 147.87 768.14 152.39 754.42 176.04 736.69 147.87"/><polygon class="cls-78" points="791.05 138.15 781.24 135.69 788.03 147.87 791.05 138.15"/><polygon class="cls-78" points="736.69 122.68 733.58 126.36 731.62 121.77 736.69 122.68"/><polygon class="cls-78" points="723.59 128.16 746.85 130.94 738.82 140.44 725.89 138.97 723.59 128.16"/><polygon class="cls-14" points="726.87 131.11 741.28 132.91 739.64 135.69 727.03 134.05 726.87 131.11"/><polygon class="cls-78" points="784.68 131.11 787.3 122.68 792.93 124.06 784.68 131.11"/><polygon class="cls-12" points="726.87 76.9 754.05 63.91 748.67 76.22 741.28 87.38 726.87 76.9"/><polygon class="cls-11" points="741.28 87.38 754.05 63.91 774.9 70.24 771.96 76.69 766.83 82.47 741.28 87.38"/><polygon class="cls-12" points="766.83 82.47 774.9 70.24 791.05 87.38 784.31 89.79 778.94 89.35 766.83 82.47"/><polygon class="cls-11" points="778.94 89.35 791.05 87.38 801.98 100.53 796.96 119.16 784.51 116.86 779.6 128.02 774.36 127.11 778.94 89.35"/><polygon class="cls-11" points="754.05 105.55 723.59 100.53 725.34 94.26 754.05 102.42 754.05 105.55"/><polygon class="cls-79" points="723.39 220 705.65 187.11 698.7 186.9 688.95 193.72 704.45 225.75 723.39 220"/><polygon class="cls-79" points="696.3 169.09 688.95 151.87 684.5 153.41 690.36 171.5 694 171.5 696.3 169.09"/><polygon class="cls-78" points="705.65 187.22 696.3 169.09 690.36 171.5 679.92 178.17 682.05 186.05 688.95 193.72 705.65 187.22"/><polygon class="cls-79" points="690.31 171.38 694 181.41 682.05 186.05 678.23 176.88 690.31 171.38"/><path class="cls-27" d="M729.51,108.64a3.1,3.1,0,1,1-2.23-2.24A3.1,3.1,0,0,1,729.51,108.64Z"/><path class="cls-27" d="M750,112.32a3.1,3.1,0,1,1-2.23-2.24A3.07,3.07,0,0,1,750,112.32Z"/><polygon class="cls-80" points="705.65 187.22 711.17 171.5 707.8 169.09 695.2 181.69 697.67 190.42 705.65 187.22"/><polygon class="cls-40" points="540.71 166.96 544.52 173.13 541.1 178.13 537.19 175.96 540.71 166.96"/><polygon class="cls-38" points="527.78 175.77 543.07 154.47 546.06 157.35 537.19 175.96 537.26 180.7 534.65 190.67 527.78 175.77"/><polygon class="cls-73" points="537.19 175.96 547.66 178.24 546.96 181.99 535.8 185.69 537.19 175.96"/><polygon class="cls-12" points="423.2 173.19 406.69 179.5 418.79 185.93 444.07 223.41 455.33 187.71 439.48 176.44 423.2 173.19"/><polygon class="cls-11" points="443.48 221.04 431.58 220.56 419.08 186.03 455.53 205.88 443.48 221.04"/><polygon class="cls-10" points="406.69 179.5 427.68 155.81 433.11 164 423.2 173.19 406.69 179.5"/><polygon class="cls-65" points="467.6 335.21 460.45 341.7 442.15 336.52 445.69 329.46 467.6 335.21"/><polygon class="cls-38" points="464.37 331.93 459.29 337.06 447.23 330.44 464.37 331.93"/><polygon class="cls-65" points="490.18 179.32 508.81 198.26 521.18 207.09 506.95 225.02 494.65 215.2 490.46 196.63 490.18 179.32"/><polygon class="cls-70" points="508.81 198.26 527.83 175.77 547.4 199.32 506.95 225.02 508.81 198.26"/><polygon class="cls-71" points="449.94 185.09 444.62 211.85 450.43 231.3 467.54 236.28 489.26 231.3 497.47 206.78 485.04 185.41 449.94 185.09"/><polygon class="cls-70" points="497.47 206.78 444.62 215.77 447.78 182.93 484.37 178.41 490.18 179.32 497.47 206.78"/><polygon class="cls-38" points="506.87 319.75 514.26 327.75 503.15 329.51 497.55 326.32 506.87 319.75"/><polygon class="cls-65" points="514.26 327.75 520.96 332.51 491.13 333.51 498.63 326.22 514.26 327.75"/><polygon class="cls-71" points="450.67 238.84 440.92 263.42 467.54 270.96 494.84 270.01 487.52 241.27 467.54 236.28 450.67 238.84"/><polygon class="cls-70" points="440.92 263.42 440.83 294.35 471.85 297.58 491.12 283.55 494.84 270.01 440.92 263.42"/><polygon class="cls-65" points="497.27 279.55 498.82 286.14 490.21 331.36 467.6 335.21 437.96 328.63 440.83 294.35 497.27 279.55"/><polygon class="cls-8" points="498.82 286.14 467.6 335.21 491.13 333.51 506.87 319.75 498.82 286.14"/><polygon class="cls-12" points="450.43 231.3 489.26 231.3 487.52 241.27 450.67 238.84 450.43 231.3"/><polygon class="cls-11" points="478.42 231.3 482.06 235.95 478.01 240.64 473.97 235.79 478.42 231.3"/><polygon class="cls-51" points="498.82 286.14 466.99 320.51 440.2 299.15 443.97 279.73 494.84 270.01 498.82 286.14"/><polygon class="cls-40" points="458.88 244.54 466.9 250.86 463.98 255.38 458.88 244.54"/><polygon class="cls-9" points="502.15 274.76 472.62 244.54 429.8 288.11 458.03 318.05 502.15 274.76"/><line class="cls-75" x1="492.99" y1="275.39" x2="471.76" y2="252.96"/><line class="cls-75" x1="488.92" y1="279.5" x2="467.91" y2="257.71"/><line class="cls-75" x1="463.06" y1="287.95" x2="450.23" y2="274.64"/><line class="cls-75" x1="461.35" y1="294.2" x2="446.36" y2="278.67"/><line class="cls-75" x1="453.31" y1="293.9" x2="442.35" y2="282.53"/><polygon class="cls-77" points="466.36 263.38 460.2 271.76 450.65 266.89 463.05 254.27 466.36 263.38"/><polygon class="cls-38" points="458.88 244.54 463.51 253.81 459.72 258.37 454.07 263.42 447.71 247.93 458.88 244.54"/><polygon class="cls-73" points="463.51 253.81 466.36 263.38 458.63 266.73 454.07 263.42 463.51 253.81"/><polygon class="cls-65" points="447.78 182.93 431.58 220.56 440.92 219.15 448.83 215.06 447.78 182.93"/><polygon class="cls-8" points="448.83 215.06 458.88 244.54 432.11 257.16 431.58 220.56 448.83 215.06"/><polygon class="cls-38" points="526.19 116.59 527.6 166.54 478.33 173.38 471.03 145.15 476.47 117.76 502.27 115.67 526.19 116.59"/><polygon class="cls-73" points="476.47 117.76 478.33 173.38 484.67 185.19 476.82 196.3 458.01 184.87 455.41 144.53 471.03 118.04 476.47 117.76"/><polygon class="cls-40" points="494.83 171.3 484.67 185.19 464.34 172.08 478.33 173.38 494.83 171.3"/><polygon class="cls-38" points="493.33 106.2 496.52 101.56 505.06 98.4 512.27 100.39 517.19 106.36 504.87 107.7 493.33 106.2"/><polygon class="cls-73" points="500.31 123.04 502.65 126.56 503.44 146.91 495.4 130.61 488.18 129.11 500.31 123.04"/><polygon class="cls-73" points="508.32 126.37 518.11 121.67 509.34 137.86 508.32 126.37"/><polygon class="cls-65" points="439.93 105.83 468.9 104.14 492.8 106.19 505.11 106.28 516.94 106.36 521.2 105.68 525.41 106.42 526.19 116.59 481.69 117.76 437.19 118.94 439.93 105.83"/><polygon class="cls-71" points="502.72 111.7 507.81 106.3 513.28 111.5 508.01 117.07 502.72 111.7"/><polygon class="cls-12" points="439.93 105.83 446.38 79.03 502.33 86.86 506.24 92.86 505.06 98.4 493.33 106.2 439.93 105.83"/><polygon class="cls-11" points="502.33 86.86 523.45 89.98 525.41 106.42 517.19 106.36 505.06 98.4 502.33 86.86"/><polygon class="cls-44" points="488.18 129.11 492.87 123.83 500.31 123.04 488.18 129.11"/><polygon class="cls-44" points="508.32 126.37 512.24 122.07 518.11 121.67 508.32 126.37"/><polygon class="cls-74" points="508.32 126.37 502.65 126.56 503.44 146.91 510.09 146.32 508.32 126.37"/><polygon class="cls-40" points="503.44 146.91 506.96 150.82 510.09 146.32 503.44 146.91"/><polygon class="cls-65" points="494.55 156.84 503.44 163.78 510.53 163.25 517.19 155.32 494.55 156.84"/><polygon class="cls-71" points="492.18 154.31 494.55 156.84 499.85 158.08 513.39 156.8 517.19 155.32 518.33 153.33 511.55 155.07 507.05 153.33 500.31 155.87 492.18 154.31"/><polygon class="cls-11" points="471.03 118.04 456.73 142.29 450.71 134.98 450.71 118.37 471.03 118.04"/><polygon class="cls-12" points="450.71 118.37 437.19 118.94 427.68 155.81 423.2 173.19 446.49 162.75 456.73 142.29 450.71 118.37"/><polygon class="cls-11" points="456.73 142.29 458.01 184.87 447.48 183.41 423.2 173.19 456.73 142.29"/><polygon class="cls-14" points="513.39 156.8 499.85 158.08 503.79 161.3 509.23 160.86 513.39 156.8"/><polygon class="cls-11" points="463.19 129.11 464.65 140.68 456.73 142.29 463.19 129.11"/><polygon class="cls-40" points="457.06 155.55 463.35 154.92 457.32 162.56 457.06 155.55"/><polygon class="cls-40" points="456.92 144.69 460.77 144.09 460.22 148.05 456.92 144.69"/><path class="cls-27" d="M499.84,133.25a3,3,0,1,1-3-3A3,3,0,0,1,499.84,133.25Z"/><path class="cls-27" d="M517.37,131.86a3,3,0,1,1-3-3A3,3,0,0,1,517.37,131.86Z"/><polygon class="cls-8" points="439.44 310.17 467.6 335.21 437.96 328.63 439.44 310.17"/><polygon class="cls-4" points="622.91 320.56 649.61 318.75 628.05 296.29 622.91 320.56"/><polygon class="cls-3" points="687.42 317.5 679.92 350 666.42 342 666.42 327.75 628.3 307.33 622.91 320.56 608.79 314.79 612.9 279.64 687.42 317.5"/><polygon class="cls-20" points="809.58 335.75 781.86 323.32 807.92 314.79 809.58 335.75"/><polygon class="cls-4" points="682.92 321.5 679.92 350 693.42 347 701.9 329.5 805.42 321.5 809.58 335.75 831.92 332.5 827.4 305.5 723.42 308.98 682.92 321.5"/><polygon class="cls-5" points="606.41 258.84 763.83 247.21 842.92 289.5 682.42 296.29 606.41 258.84"/><polygon class="cls-6" points="606.41 258.84 603.75 279.64 682.92 321.5 684.59 303.51 682.42 294.29 606.41 258.84"/><polygon class="cls-7" points="682.42 294.29 842.92 289.5 838.42 304.28 682.92 321.5 682.42 294.29"/><polygon class="cls-2" points="707.58 265.67 719.33 283.75 781.86 282.58 789.92 274.31 794.42 266.5 707.58 265.67"/><polygon class="cls-69" points="707.58 258.84 762.67 252.4 789.25 265.96 731.08 274.5 707.58 258.84"/><polygon class="cls-8" points="731.08 272.5 728.64 232.51 800.54 223.83 789.25 265.96 760.6 270.18 731.08 272.5"/><polygon class="cls-71" points="789.25 265.96 731.08 272.5 729.64 276.28 730.25 279.67 789.92 274.31 789.25 265.96"/><polygon class="cls-8" points="731.08 272.5 707.58 258.84 707.58 265.67 730.25 279.67 731.08 272.5"/><polygon class="cls-65" points="731.08 272.5 729.64 233.51 728.38 231.04 724.66 229.98 728 270.71 731.08 272.5"/><polygon class="cls-69" points="724.66 229.98 795.42 219.25 800.54 223.83 729.64 233.51 724.66 229.98"/><polygon class="cls-65" points="766.33 244.29 772.17 240.48 769.73 247.57 766.33 244.29"/><polygon class="cls-65" points="770 251.97 767.28 255.67 773.33 257.75 770 251.97"/><polygon class="cls-65" points="759.75 253.15 762.83 256.08 757.25 259.59 759.75 253.15"/><polygon class="cls-65" points="761.92 245.07 755.05 242.02 759.5 248.22 761.92 245.07"/><polygon class="cls-65" points="764.42 245.42 769.08 249.92 764.92 255.62 760.04 250.52 764.42 245.42"/><polygon class="cls-2" points="790.92 282 807.17 290.57 831.92 283.62 815.26 274.71 790.92 282"/><polygon class="cls-69" points="791.17 277.5 810.92 264 828.42 269 807.17 283.75 791.17 277.5"/><polygon class="cls-20" points="802.42 273 811.42 266.5 822.92 269.5 812.42 276.25 802.42 273"/><polygon class="cls-8" points="798.83 275.42 800.92 274.25 811.17 277.5 809.25 278.5 798.83 275.42"/><polygon class="cls-8" points="795.67 277.17 797 276.33 807.92 279.5 805.92 280.67 795.67 277.17"/><polygon class="cls-8" points="791.17 277.5 790.92 282 807.58 287.67 808.37 285.18 807.17 282.75 791.17 277.5"/><polygon class="cls-71" points="828.42 269 826.4 280.67 807.58 287.67 807.17 282.75 828.42 269"/><polygon class="cls-9" points="641.28 266.5 659.82 283.75 701.92 280.67 679.92 259.59 641.28 266.5"/><polygon class="cls-14" points="644.17 276.45 663.92 266.5 695.48 274.5 675.11 290.88 657.74 286.55 644.17 276.45"/><polygon class="cls-9" points="675.11 290.88 673.17 300.03 640.37 296.29 644.17 276.45 675.11 290.88"/><line class="cls-47" x1="662.09" y1="271.15" x2="684.59" y2="276.76"/><line class="cls-47" x1="658.09" y1="274.15" x2="680.59" y2="279.76"/><line class="cls-47" x1="654.09" y1="277.15" x2="676.59" y2="282.76"/></g></svg>