<svg id="Layer_1" data-name="Layer 1" xmlns="http://www.w3.org/2000/svg" viewBox="0 0 900 350"><defs><style>.cls-1{fill:#8e8e8e;}.cls-2{fill:#a2a2a2;}.cls-3{fill:#9ca0a1;}.cls-4{fill:#cbac14;}.cls-5{fill:#e4c728;}.cls-6{fill:#f3d65d;}.cls-7{fill:#ebebea;}.cls-8{fill:#dcdcdb;}.cls-9{fill:none;}.cls-10{fill:#e1a842;}.cls-11{fill:#bb8e2d;}.cls-12{fill:#be8e00;}.cls-13{fill:#f1bc68;}.cls-14{fill:#c3c3c3;}.cls-15{fill:#fce3d4;}.cls-16{fill:#f4c9b2;}.cls-17{fill:#c1907d;}.cls-18,.cls-21,.cls-27{fill:#2b2b2b;}.cls-18{fill-opacity:0.1;}.cls-19{fill:#debca4;}.cls-20{fill:#c2977b;}.cls-21{opacity:0.2;}.cls-22{fill:#8a6651;}.cls-23{fill:#474747;}.cls-24{fill:#9d7700;}.cls-25{fill:#846400;}.cls-26{fill:#755800;}.cls-28{fill:#e7c9b5;}.cls-29{fill:#fff;}.cls-30{fill:#8c7c2f;}.cls-31{fill:#737373;}.cls-32{fill:#ffefe7;}</style></defs><title>explorers_Virtuoso_ISTP_romantic_relationships</title><g id="Layer_1-2" data-name="Layer_1"><g id="_413907176" data-name=" 413907176"><polygon class="cls-1" points="843.25 213.1 843.7 218.85 830.72 219.73 835.59 201.46 838.24 202.79 843.25 213.1"/><polygon class="cls-1" points="858.43 181.86 853.72 184.66 848.26 191.73 842.07 197.92 841.34 200.43 842.52 203.82 862.27 183.33 858.43 181.86"/><polygon class="cls-2" points="826.89 188.05 843.25 213.1 842.07 197.92 833.38 183.48 829.1 184.37 826.89 188.05"/><polygon class="cls-3" points="829.1 184.37 842.37 201.75 842.07 197.92 833.82 182.45 829.1 184.37"/><polygon class="cls-3" points="851.65 181.86 848.41 191.73 858.58 181.86 851.65 181.86"/><polygon class="cls-4" points="810.53 178.03 832.05 179.21 844.43 183.48 826.89 188.05 810.53 178.03"/><polygon class="cls-4" points="810.53 178.03 844.43 183.48 822.18 170.51 799.48 164.18 810.53 178.03"/><polygon class="cls-4" points="875.39 186.87 844.43 183.48 851.21 175.96 861.23 175.38 874.8 179.21 875.39 186.87"/><polygon class="cls-4" points="900 175.23 875.39 186.87 872.44 180.39 880.99 176.85 900 175.23"/><polygon class="cls-5" points="889.68 164.91 900 175.23 872.44 180.39 856.81 175.67 872.59 169.04 889.68 164.91"/><polygon class="cls-6" points="822.47 153.71 841.93 162.7 856.81 175.67 844.43 183.48 799.48 164.18 822.47 153.71"/><polygon class="cls-4" points="876.12 157.54 889.68 164.91 856.81 175.67 839.72 164.62 856.08 159.16 876.12 157.54"/><polygon class="cls-5" points="822.47 153.71 839.72 164.62 876.12 157.54 852.39 153.12 822.47 153.71"/><polygon class="cls-6" points="830.58 147.38 822.62 153.86 852.54 156.37 846.79 150.47 830.58 147.38"/><polygon class="cls-6" points="869.34 147.08 857.4 150.03 852.54 156.37 876.12 157.54 869.34 147.08"/><polygon class="cls-6" points="856.37 142.95 857.4 150.03 852.54 156.37 846.79 150.47 846.2 146.93 856.37 142.95"/><polygon class="cls-5" points="830.58 147.38 852.54 156.37 846.2 146.93 830.58 147.38"/><polygon class="cls-5" points="856.37 142.95 852.54 156.37 869.34 147.08 856.37 142.95"/><polygon class="cls-7" points="170.69 122.91 205.32 109.65 234.95 117.31 250.13 114.07 282.71 124.24 238.04 126.3 208.71 123.94 170.69 122.91"/><polygon class="cls-8" points="207.24 133.23 170.69 122.91 207.83 118.49 236.57 123.5 254.7 121 282.71 124.24 251.6 131.16 234.06 128.22 207.24 133.23"/><polygon class="cls-5" points="814.22 191.88 806.26 191.73 800.51 197.63 805.37 201.61 811.41 201.16 816.87 197.92 814.22 191.88"/><polygon class="cls-6" points="822.32 203.08 814.22 191.88 811.41 201.16 814.22 205.29 822.32 203.08"/><polygon class="cls-6" points="793.28 200.57 800.51 197.63 811.41 201.16 809.06 206.18 802.72 206.62 794.61 206.47 793.28 200.57"/><polygon class="cls-4" points="787.24 204.11 793.28 200.57 802.72 206.62 796.67 211.33 787.54 211.33 786.06 207.5 787.24 204.11"/><polygon class="cls-5" points="810.09 214.87 818.64 210.16 822.32 203.08 811.41 201.16 801.98 205.73 803.01 212.51 810.09 214.87"/><polygon class="cls-4" points="810.09 214.87 836.62 212.95 822.32 203.08 810.09 214.87"/><polygon class="cls-1" points="780.76 196.6 776.19 207.21 787.54 211.33 786.65 194.09 780.76 196.6"/><polygon class="cls-3" points="786.65 194.09 776.19 207.21 780.31 190.41 786.65 194.09"/><polygon class="cls-1" points="767.49 192.18 768.23 204.56 760.71 201.9 762.92 195.12 767.49 192.18"/><polygon class="cls-3" points="762.92 189.82 760.71 201.9 767.49 192.18 762.92 189.82"/><polygon class="cls-4" points="807.88 181.27 800.36 191.73 779.14 195.27 775.01 190.26 767.05 185.69 766.75 180.09 807.88 181.27"/><polygon class="cls-4" points="762.04 194.39 775.01 190.26 766.75 180.09 755.11 177.59 744.94 180.24 744.5 186.43 753.05 190.11 762.04 194.39"/><polygon class="cls-9" points="739.49 192.62 736.83 193.06 734.48 196.16 739.78 197.33 739.49 192.62"/><polygon class="cls-9" points="736.39 191.15 739.49 192.62 734.48 196.16 735.06 193.35 736.39 191.15"/><polygon class="cls-4" points="734.48 196.16 749.21 196.6 753.05 190.11 744.94 180.24 735.06 179.8 725.04 186.58 722.24 188.79 734.48 196.16"/><polygon class="cls-4" points="716.49 173.9 731.38 193.35 734.48 196.16 717.67 192.47 702.2 189.08 716.49 173.9"/><polygon class="cls-5" points="785.18 186.58 807.88 181.27 802.42 174.2 783.41 168.01 766.02 170.66 766.75 180.09 785.18 186.58"/><polygon class="cls-4" points="786.8 160.93 798.59 167.42 802.42 174.2 769.55 174.93 768.67 169.04 771.03 165.65 786.8 160.93"/><polygon class="cls-5" points="802.42 174.2 785.62 163.29 784.44 154.6 788.42 145.02 796.09 155.04 802.42 174.2"/><polygon class="cls-6" points="788.42 145.02 785.62 163.29 778.4 161.08 780.76 157.25 788.42 145.02"/><polygon class="cls-4" points="754.08 169.19 760.42 168.3 769.55 174.93 766.75 180.09 744.94 180.24 747.59 173.46 754.08 169.19"/><polygon class="cls-5" points="754.08 169.19 769.55 174.93 768.23 165.21 764.25 158.43 754.08 169.19"/><polygon class="cls-4" points="764.25 158.43 769.55 174.93 771.03 165.65 764.25 158.43"/><polygon class="cls-5" points="739.04 169.48 734.03 174.64 730.05 183.19 731.38 193.35 744.94 180.24 754.08 169.19 739.04 169.48"/><polygon class="cls-6" points="754.08 169.19 734.03 174.64 734.62 166.83 738.6 165.65 741.4 159.9 754.08 169.19"/><polygon class="cls-4" points="701.16 172.28 734.03 174.64 731.38 193.35 716.2 178.47 702.2 189.08 692.32 186.87 695.56 180.53 701.16 172.28"/><polygon class="cls-5" points="724.01 164.62 713.69 161.82 704.7 166.24 698.8 165.94 693.79 169.78 697.18 172.57 704.7 173.61 716.2 178.47 734.03 174.64 724.01 164.62"/><polygon class="cls-6" points="726.81 148.41 719.59 155.78 718.85 164.91 734.03 174.64 731.53 156.81 726.81 148.41"/><polygon class="cls-5" points="726.81 148.41 734.03 174.64 738.6 165.65 726.81 148.41"/><polygon class="cls-4" points="704.55 173.46 692.32 186.87 665.49 181.12 664.9 176.85 667.85 172.72 704.55 173.46"/><polygon class="cls-4" points="682.44 177.14 704.55 173.46 696.89 170.22 688.93 164.32 669.91 165.21 666.23 169.92 667.85 172.72 682.44 177.14"/><polygon class="cls-6" points="704.7 166.24 690.11 149.73 690.55 159.9 696.89 170.22 704.7 166.24"/><polygon class="cls-5" points="659.74 155.19 671.83 157.99 690.11 149.73 696.89 170.22 669.91 165.21 661.96 167.86 652.67 165.65 659.74 155.19"/><polygon class="cls-4" points="655.62 175.67 660.78 171.25 667.85 172.72 665.49 181.12 654.44 182.89 653.41 178.47 655.62 175.67"/><polygon class="cls-5" points="652.67 165.65 654.59 172.57 655.62 175.67 654.44 182.89 646.92 180.53 630.27 174.49 652.67 165.65"/><polygon class="cls-6" points="652.67 165.65 655.03 179.06 667.85 172.72 669.91 165.21 652.67 165.65"/><polygon class="cls-4" points="719.59 155.78 725.93 169.48 716.2 178.47 713.69 161.82 719.59 155.78"/><polygon class="cls-5" points="780.76 157.25 771.03 165.65 785.62 163.29 780.76 157.25"/><polygon class="cls-6" points="690.11 149.73 669.91 165.21 659.74 155.19 690.11 149.73"/><polygon class="cls-10" points="120.86 71.78 100.52 84.16 92.86 107.29 99.2 228.28 103.47 232.85 125.29 232.11 129.56 224.6 126.47 77.82 120.86 71.78"/><polygon class="cls-11" points="100.67 95.5 102.29 91.52 121.16 80.91 124.99 85.63 121.31 89.46 104.06 99.04 100.67 95.5"/><polygon class="cls-11" points="96.84 111.71 121.6 99.78 124.99 104.34 121.9 107.73 97.28 119.08 96.84 111.71"/><polygon class="cls-11" points="97.58 125.56 122.19 116.72 125.88 120.85 122.34 126.3 98.02 134.7 97.58 125.56"/><polygon class="cls-9" points="98.46 142.07 122.63 135.14 126.32 139.56 122.93 143.54 98.9 150.47 95.95 146.79 98.46 142.07"/><polygon class="cls-10" points="21.08 136.91 0 156.51 9.14 231.96 25.94 233.29 24.17 141.19 21.08 136.91"/><polygon class="cls-4" points="40.24 115.4 44.07 111.27 65 101.25 67.21 105.08 70.6 231.23 66.03 234.03 53.95 234.47 51.74 232.41 40.68 138.83 40.24 115.4"/><polygon class="cls-5" points="93.45 104.64 96.54 107.73 103.47 232.85 66.03 234.03 65 101.25 93.45 104.64"/><polygon class="cls-12" points="33.16 110.39 40.24 115.4 65.15 104.79 96.54 107.73 104.06 99.04 100.67 95.5 63.38 93.29 37.59 104.34 33.16 110.39"/><polygon class="cls-5" points="67.06 65.14 73.4 75.31 64.56 82.83 53.21 91.82 43.78 90.64 67.06 65.14"/><polygon class="cls-6" points="90.06 83.71 67.06 65.14 64.56 82.83 79.3 86.95 90.06 83.71"/><polygon class="cls-4" points="33.9 94.32 33.16 110.39 62.79 97.27 68.1 88.87 64.56 82.83 33.9 94.32"/><polygon class="cls-5" points="100.52 84.16 104.06 99.04 62.79 97.27 64.56 82.83 100.52 84.16"/><polygon class="cls-13" points="52.03 139.86 21.08 136.91 24.03 230.93 53.95 234.47 52.03 139.86"/><path class="cls-10" d="M28.15,145.75v3.39H47.31v-3.09Zm1,69.27.15,3.39H48.49l-.14-3.1ZM29,205.14l.14,3.39H48.35l-.15-3.09Zm-.15-10v3.54H48.2l-.15-3.1Zm-.15-9.87v3.54H48.05l-.15-3.1Zm-.15-9.87v3.53H47.76v-3.09Zm-.14-9.88V169H47.61V165.8Zm-.15-9.87V159H47.46v-3.1Z"/><path class="cls-4" d="M69.57,140.3h5v6.49l-4.86.14Zm-.44-26.52,5.45.44v6.48l-5.3-.29Zm10,1,4.72.44v5.89l-4.57-.29Zm9.29.88,4.27.44v5.46l-4.12-.15ZM69.42,127l5.16.29v6.34H69.42Zm9.88.44,4.72.15v6H79.3Zm9.43.44,4.13.15v5.45h-4Z"/><polygon class="cls-13" points="156.24 76.93 120.86 71.78 125.29 232.11 160.81 230.93 156.24 76.93"/><polygon class="cls-10" points="156.53 86.22 121.16 80.91 121.31 89.46 156.83 95.65 156.53 86.22"/><polygon class="cls-10" points="157.12 104.49 121.6 99.78 121.9 107.73 157.42 112.45 157.12 104.49"/><polygon class="cls-10" points="122.19 116.72 157.57 119.67 157.86 128.96 122.34 126.3 122.19 116.72"/><polygon class="cls-9" points="158.16 138.53 122.63 135.14 122.93 143.54 158.45 147.97 158.16 138.53"/><polygon class="cls-5" points="160.81 230.93 166.71 108.32 187.04 96.24 188.81 100.36 181.74 227.84 178.2 230.34 160.81 230.93"/><polygon class="cls-6" points="204.59 100.81 187.04 96.24 183.07 194.53 178.2 230.34 215.2 229.16 204.59 100.81"/><path class="cls-5" d="M201.93,104.05l-2.21-.44c0,.88.15,1.62.15,2.36.88.14,1.62.14,2.36.29C202.08,105.52,202.08,104.79,201.93,104.05ZM205.32,162c-1.18-.15-2.21-.45-3.24-.59,0,1.62.15,3.24.3,4.86l3.38.44C205.62,165.06,205.47,163.44,205.32,162Zm-6.34-1a35.81,35.81,0,0,0-3.83-.59c0,1.63.15,3.25.15,4.87a39,39,0,0,0,4,.59C199.13,164.18,199.13,162.55,199,160.93Zm-6.78-1.18c-1.32-.14-2.65-.44-4-.59,0,1.63,0,3.39-.14,5.16l4.12.44Zm12.39-9.13-3-.44c0,1.47.15,2.8.29,4.27l3.1.44C204.88,153.42,204.73,152.09,204.59,150.62Zm-5.75-.89c-1.33-.14-2.51-.44-3.69-.59a43.42,43.42,0,0,0,.15,4.42c1.18.15,2.36.3,3.68.45C198.84,152.53,198.84,151.21,198.84,149.73Zm-6.49-1c-1.32-.29-2.5-.44-3.68-.59,0,1.48-.15,2.95-.15,4.42a32,32,0,0,0,3.83.59Zm11.65-8a20.25,20.25,0,0,0-2.8-.59c.14,1.33.14,2.51.29,3.84,1,.14,1.92.29,2.95.44C204.29,143.1,204.14,141.92,204,140.74Zm-5.46-.88a29.21,29.21,0,0,0-3.53-.59c.14,1.18.14,2.51.29,3.83,1,.15,2.21.3,3.39.59C198.69,142.37,198.54,141,198.54,139.86Zm-6-1c-1.18-.15-2.36-.44-3.54-.59a35.39,35.39,0,0,1-.15,4,33.7,33.7,0,0,0,3.69.59Zm11.05-7.08c-.88-.14-1.76-.29-2.8-.44a25.87,25.87,0,0,1,.3,3.39c1,.15,1.91.3,2.8.44A26,26,0,0,0,203.55,131.75Zm-5.3-.88c-1-.15-2.07-.29-3.24-.44,0,1.18.14,2.36.14,3.54,1.18.14,2.21.29,3.25.44A28,28,0,0,0,198.25,130.87ZM192.5,130c-1-.15-2.06-.3-3.24-.45a28,28,0,0,1-.15,3.54l3.54.44A27.79,27.79,0,0,1,192.5,130Zm10.61-6.19-2.65-.45c.15,1,.15,2.07.29,3.1a17.17,17.17,0,0,1,2.66.29C203.26,125.71,203.26,124.68,203.11,123.8Zm-5-.74a22.42,22.42,0,0,0-3.09-.59c0,1,.14,2.06.14,3.24,1,.15,2.07.15,3.1.3C198.25,125,198.1,123.94,198.1,123.06Zm-5.45-.88-3.1-.45c0,1-.15,2.07-.15,3.1,1.18.14,2.21.29,3.25.44Zm10-5.6-2.51-.45c.15.89.15,1.92.3,2.8.88.15,1.62.15,2.5.3C202.82,118.34,202.82,117.46,202.67,116.58Zm-4.72-.74L195,115.4a19.86,19.86,0,0,0,.14,2.8l2.95.44A18.48,18.48,0,0,1,198,115.84Zm-5.16-.89c-1-.14-2.06-.29-2.94-.44a19.44,19.44,0,0,0-.15,2.95l3.09.44Zm9.44-5c-.74-.14-1.48-.14-2.36-.29.15.74.15,1.62.29,2.5.74.15,1.63.15,2.36.3A14.42,14.42,0,0,0,202.23,109.94Zm-4.42-.59c-1-.14-1.92-.29-2.8-.44a16,16,0,0,0,.14,2.51c.89.15,1.77.29,2.8.44A16,16,0,0,1,197.81,109.35Zm-5-.73c-.88-.15-1.91-.3-2.8-.44a16.88,16.88,0,0,1-.14,2.65,18.89,18.89,0,0,1,2.94.29Zm4.87-5.31c-.89-.14-1.77-.14-2.8-.29a11.67,11.67,0,0,1,.15,2.36,16.16,16.16,0,0,1,2.8.29A12.48,12.48,0,0,1,197.66,103.31Zm-4.72-.73a19.84,19.84,0,0,1-2.8-.3v2.36c.89.15,1.92.29,2.8.44Z"/><polygon class="cls-4" points="79.45 140.16 84.31 140.01 84.16 146.34 79.59 146.49 79.45 140.16"/><polygon class="cls-4" points="89.17 140.01 93.3 139.86 93.3 146.05 89.17 146.34 89.17 140.01"/><polygon class="cls-4" points="79.74 154.01 84.61 153.86 84.46 160.2 79.89 160.34 79.74 154.01"/><polygon class="cls-4" points="89.62 153.86 93.89 153.71 93.74 159.9 89.62 160.2 89.62 153.86"/><polygon class="cls-4" points="69.87 154.45 74.73 154.3 74.73 160.49 70.01 160.79 69.87 154.45"/><polygon class="cls-4" points="79.89 167.57 84.9 167.42 84.9 173.75 80.04 173.9 79.89 167.57"/><polygon class="cls-4" points="80.18 181.12 85.19 180.98 85.19 187.31 80.33 187.46 80.18 181.12"/><polygon class="cls-4" points="80.33 194.68 85.64 194.53 85.49 200.87 80.48 201.02 80.33 194.68"/><polygon class="cls-4" points="80.92 221.8 86.37 221.65 86.37 227.99 81.07 228.13 80.92 221.8"/><polygon class="cls-4" points="90.06 167.42 94.48 167.27 94.33 173.46 90.06 173.75 90.06 167.42"/><polygon class="cls-4" points="90.5 180.98 94.92 180.83 94.92 187.02 90.5 187.31 90.5 180.98"/><polygon class="cls-4" points="90.94 194.53 95.51 194.39 95.37 200.57 90.94 200.87 90.94 194.53"/><polygon class="cls-4" points="91.97 221.65 96.84 221.5 96.84 227.69 92.12 227.99 91.97 221.65"/><polygon class="cls-4" points="69.87 168.01 74.88 167.86 74.73 174.05 70.01 174.34 69.87 168.01"/><polygon class="cls-4" points="69.87 181.56 75.03 181.42 74.88 187.61 70.01 187.9 69.87 181.56"/><polygon class="cls-4" points="69.87 195.12 75.17 194.97 75.03 201.16 70.01 201.46 69.87 195.12"/><polygon class="cls-4" points="69.87 222.24 75.47 222.09 75.32 228.28 70.01 228.57 69.87 222.24"/><polygon class="cls-11" points="98.61 145.46 122.63 136.91 126.47 141.04 122.93 146.49 99.2 155.19 98.61 145.46"/><polygon class="cls-11" points="99.79 165.65 123.22 157.1 127.06 161.23 123.52 166.68 100.23 175.08 99.79 165.65"/><polygon class="cls-11" points="100.82 185.54 123.81 177.29 127.5 181.56 124.11 186.87 101.41 194.97 100.82 185.54"/><polygon class="cls-11" points="102 205.73 124.4 197.48 128.09 201.75 124.55 207.06 102.44 215.02 102 205.73"/><polygon class="cls-11" points="103.03 223.56 124.84 217.82 128.68 221.94 125.14 227.4 103.77 232.85 103.03 223.56"/><polygon class="cls-10" points="122.63 136.91 158.16 139.71 158.45 149.14 122.93 146.49 122.63 136.91"/><polygon class="cls-10" points="123.22 157.1 158.75 159.9 159.04 169.63 123.52 166.68 123.22 157.1"/><polygon class="cls-10" points="123.81 177.29 159.34 180.09 159.63 189.67 124.11 186.87 123.81 177.29"/><polygon class="cls-10" points="124.4 197.48 159.92 200.43 160.22 209.86 124.55 207.06 124.4 197.48"/><polygon class="cls-10" points="124.84 217.82 160.51 219.14 160.81 228.57 125.14 227.4 124.84 217.82"/><path class="cls-5" d="M205.91,173.61a28.34,28.34,0,0,0-3.39-.3c.15,1.62.3,3.24.44,4.87,1,.14,2.22.14,3.39.29C206.21,176.85,206.06,175.23,205.91,173.61Zm-6.48-.59-4.13-.44c.15,1.76.15,3.53.29,5.15a35.71,35.71,0,0,0,4,.3C199.57,176.26,199.43,174.64,199.43,173Zm-7.23-.74a38.24,38.24,0,0,1-4-.29c0,1.76-.14,3.53-.14,5.3,1.32.15,2.8.15,4.27.3C192.2,175.82,192.2,174.05,192.2,172.28Z"/><path class="cls-5" d="M207.24,199.1c-1.18,0-2.51-.15-3.69-.15.15,1.77.3,3.69.45,5.46a36.41,36.41,0,0,1,3.83.14C207.68,202.64,207.39,200.87,207.24,199.1Zm-7.22-.29c-1.48-.15-3-.15-4.57-.3.14,1.92.29,3.83.29,5.75,1.48,0,3.1.15,4.57.15C200.16,202.49,200.16,200.58,200,198.81Zm-8-.45c-1.48,0-2.95-.14-4.42-.14-.15,1.91-.15,3.83-.3,5.89,1.62,0,3.24,0,4.86.15C192.06,202.2,192.06,200.28,192.06,198.36Z"/><path class="cls-5" d="M208.27,213.69a35.3,35.3,0,0,0-4-.15q.22,2.88.44,5.75c1.48,0,2.8.15,4.13.15C208.71,217.52,208.42,215.61,208.27,213.69Zm-7.66-.44c-1.63,0-3.25-.15-4.72-.15,0,1.92.15,4,.15,6,1.62.15,3.24.15,4.86.15C200.75,217.23,200.75,215.31,200.61,213.25Zm-8.41-.3c-1.62-.14-3.24-.14-4.71-.29-.15,2.06-.15,4.27-.3,6.34,1.77,0,3.39.14,5,.14Z"/><polygon class="cls-13" points="253.23 141.48 255.58 145.46 254.7 210.3 251.9 213.25 237.31 217.23 240.25 145.46 253.23 141.48"/><polygon class="cls-10" points="271.5 144.28 253.23 141.48 251.9 213.25 276.96 206.62 276.37 199.25 271.5 144.28"/><path class="cls-11" d="M268.85,148.26c-.74-.15-1.47-.15-2.21-.29,0,.73.15,1.47.15,2.35.73,0,1.47.15,2.21.15C269,149.73,268.85,149,268.85,148.26ZM273,198.81c-1,.14-2.07.14-3.1.29a43.94,43.94,0,0,1,.3,4.42,21.68,21.68,0,0,0,3.24-.29C273.27,201.75,273.12,200.28,273,198.81Zm-6.49.59c-1.18.14-2.21.14-3.39.29,0,1.48.15,3.1.15,4.57,1.18-.15,2.21-.15,3.39-.29C266.49,202.34,266.49,200.87,266.49,199.4Zm-7.07.59c-1.18.14-2.36.14-3.39.29-.15,1.62-.15,3.24-.15,4.72a28.18,28.18,0,0,0,3.54-.3Zm12.82-10.61h-2.95c.15,1.32.15,2.8.3,4.12a19.38,19.38,0,0,1,3-.15C272.39,191.88,272.39,190.7,272.24,189.38Zm-6.19.14a23.43,23.43,0,0,1-3.24.15c.14,1.47.14,2.8.14,4.27,1-.14,2.22-.14,3.25-.29A36.65,36.65,0,0,1,266.05,189.52Zm-6.78.3A22.37,22.37,0,0,1,256,190v4.27a25.64,25.64,0,0,0,3.39-.15A40.62,40.62,0,0,1,259.27,189.82Zm12.23-9h-2.8c.15,1.18.15,2.36.3,3.54h2.8C271.65,183.19,271.65,182,271.5,180.83Zm-5.89,0h-2.95v3.68h3.09C265.75,183.19,265.61,182,265.61,180.83Zm-6.34,0h-3.1v3.83h3.1ZM270.91,173h-2.65c0,1,.15,2.06.15,3.24h2.8A23.66,23.66,0,0,1,270.91,173Zm-5.74-.15a18.42,18.42,0,0,1-2.8-.15c0,1.18.14,2.36.14,3.39a17.46,17.46,0,0,1,2.8.15A26.27,26.27,0,0,0,265.17,172.87Zm-5.9-.15a20.82,20.82,0,0,1-2.95-.14v3.53h2.95Zm11.05-6.78a15,15,0,0,1-2.5-.14c0,1,.15,2.06.15,3.09h2.65A17.73,17.73,0,0,1,270.32,165.94Zm-5.45-.29c-.88,0-1.77-.15-2.65-.15v3.1a17.85,17.85,0,0,1,2.8.14A21.32,21.32,0,0,0,264.87,165.65Zm-5.75-.3c-.88,0-1.77-.14-2.8-.14v3.09c1,0,1.92.15,2.8.15Zm10.61-5.74c-.73-.15-1.62-.15-2.35-.3,0,.89.14,1.92.14,2.8.89,0,1.63.15,2.51.15C269.88,161.38,269.88,160.49,269.73,159.61Zm-5.15-.45c-.89-.14-1.63-.14-2.51-.29v2.8a15.71,15.71,0,0,0,2.65.15A16.94,16.94,0,0,0,264.58,159.16Zm-5.46-.44c-.88-.14-1.77-.14-2.65-.29v2.8c.88.15,1.77.15,2.65.29Zm10.17-5c-.73-.15-1.47-.15-2.36-.29a14,14,0,0,1,.15,2.5c.89.15,1.62.15,2.36.3A13.29,13.29,0,0,0,269.29,153.71Zm-5-.59c-.74-.14-1.62-.14-2.36-.29v2.65c.89,0,1.62.15,2.51.15A14.1,14.1,0,0,0,264.28,153.12Zm-5.16-.59a12.71,12.71,0,0,1-2.5-.29c0,.88-.15,1.77-.15,2.65.88.15,1.77.15,2.65.3Zm5-4.86a14.2,14.2,0,0,0-2.5-.29,10.91,10.91,0,0,1,.15,2.21,13.48,13.48,0,0,0,2.35.29Zm-5.15-.74c-.74-.14-1.48-.14-2.36-.29V149a13.51,13.51,0,0,0,2.5.29A14.22,14.22,0,0,0,259,146.93Z"/><polygon class="cls-1" points="667.85 172.72 665.35 181.71 685.98 187.16 683.77 156.22 679.05 157.69 667.85 172.72"/><polygon class="cls-1" points="653.26 117.61 659.89 123.65 666.38 136.62 674.49 148.7 674.78 152.98 671.83 157.99 646.63 118.79 653.26 117.61"/><polygon class="cls-2" points="701.9 137.65 667.85 172.72 674.49 148.7 693.06 128.07 699.54 130.87 701.9 137.65"/><polygon class="cls-3" points="699.54 130.87 672.72 154.74 674.49 148.7 692.61 126.45 699.54 130.87"/><polygon class="cls-3" points="664.02 119.82 666.23 136.76 653.11 117.61 664.02 119.82"/><polygon class="cls-4" points="731.53 126.6 696.45 121.73 675.22 124.68 701.9 137.65 731.53 126.6"/><polygon class="cls-4" points="731.53 126.6 675.22 124.68 715.02 110.68 754.81 107.73 731.53 126.6"/><polygon class="cls-4" points="624.37 120.41 675.22 124.68 666.67 110.53 650.75 106.26 627.91 108.17 624.37 120.41"/><polygon class="cls-4" points="588.4 94.03 624.37 120.41 631.15 110.83 618.62 102.58 588.4 94.03"/><polygon class="cls-5" points="608.3 80.77 588.4 94.03 631.15 110.83 657.68 108.17 634.54 92.56 608.3 80.77"/><polygon class="cls-6" points="719.73 83.71 685.83 92.11 657.68 108.17 675.22 124.68 754.81 107.73 719.73 83.71"/><polygon class="cls-4" points="632.48 73.1 608.3 80.77 657.68 108.17 688.63 95.94 664.02 81.94 632.48 73.1"/><polygon class="cls-5" points="719.73 83.71 688.63 95.94 632.48 73.1 671.98 73.4 719.73 83.71"/><polygon class="cls-6" points="708.83 71.04 719.73 83.86 670.65 78.55 681.71 70.74 708.83 71.04"/><polygon class="cls-6" points="646.63 58.37 664.9 66.91 670.65 78.55 632.48 73.1 646.63 58.37"/><polygon class="cls-6" points="668.74 55.71 664.9 66.91 670.65 78.55 681.71 70.74 683.77 65.29 668.74 55.71"/><polygon class="cls-5" points="708.83 71.04 670.65 78.55 683.77 65.29 708.83 71.04"/><polygon class="cls-5" points="668.74 55.71 670.65 78.55 646.63 58.37 668.74 55.71"/><polygon class="cls-2" points="168.33 222.24 138.85 275 776.34 261.73 770.14 249.06 680.97 187.61 665.49 180.68 539.62 157.69 419.64 193.06 252.64 179.65 168.33 222.24"/><polygon class="cls-14" points="776.34 261.73 665.49 181.12 900 224.74 776.34 261.73"/><polygon class="cls-14" points="252.64 179.65 355.52 197.92 417.28 206.77 539.62 157.69 422 179.21 252.64 179.65"/><polygon class="cls-6" points="138.85 275 368.05 347.21 431.72 330.41 507.34 333.65 776.34 261.73 459.14 195.42 417.28 206.77 387.06 213.25 138.85 275"/><polygon class="cls-11" points="550.23 196.6 555.54 227.99 532.98 211.48 528.86 199.99 533.57 188.2 542.27 186.28 550.23 196.6"/><polygon class="cls-6" points="529.89 181.42 542.27 186.28 528.86 199.99 529.89 181.42"/><polygon class="cls-10" points="542.27 186.28 555.24 230.2 555.24 191 542.27 186.28"/><polygon class="cls-10" points="616.26 196.16 600.34 202.49 603 215.16 626.43 210.01 641.47 193.35 616.26 196.16"/><polygon class="cls-11" points="639.99 187.75 641.47 193.35 600.34 202.49 599.02 197.04 639.99 187.75"/><polygon class="cls-15" points="618.62 203.23 603 215.16 609.63 220.32 618.03 219.44 626.43 210.01 618.62 203.23"/><polygon class="cls-7" points="186.75 275.29 377.48 332.18 469.75 325.4 719.73 263.5 622.45 243.75 555.54 227.99 497.76 210.89 479.92 207.35 447.64 215.75 421.85 217.23 395.02 229.9 233.77 266.45 186.75 275.29"/><polygon class="cls-15" points="471.67 230.64 443.51 244.64 461.2 250.53 474.17 246.11 476.38 235.65 471.67 230.64"/><polygon class="cls-16" points="479.92 207.35 471.67 230.64 474.17 246.11 505.13 210.01 479.92 207.35"/><polygon class="cls-17" points="485.08 203.23 479.92 207.35 497.76 218.7 504.68 207.06 485.08 203.23"/><polygon class="cls-18" points="271.95 278.68 233.77 266.45 278.28 258.79 383.97 255.25 434.08 249.94 484.64 257.02 503.8 239.04 679.64 261.29 603 283.4 554.06 280.15 484.93 291.8 431.72 278.83 390.45 290.62 335.47 284.13 271.95 278.68"/><polygon class="cls-16" points="618.03 219.44 603 215.16 602.7 233.44 599.61 255.69 622.45 243.75 618.03 219.44"/><polygon class="cls-19" points="426.27 154.3 422 179.21 417.28 206.77 397.97 204.41 381.9 210.6 367.46 207.21 356.26 202.05 353.16 182.16 349.92 169.33 346.97 154.6 349.62 132.93 367.61 145.16 396.2 149.88 405.05 142.07 410.94 151.06 426.27 154.3"/><polygon class="cls-20" points="373.94 147.08 370.7 172.13 367.16 200.28 376.15 222.09 355.52 197.92 351.69 178.76 359.5 170.66 359.65 160.2 364.66 161.08 367.46 146.05 373.94 147.08"/><polygon class="cls-20" points="393.25 175.23 387.8 159.75 373.94 147.08 398.71 148.56 393.25 175.23"/><polygon class="cls-20" points="406.96 173.61 424.35 154.01 408.29 148.85 406.96 173.61"/><polygon class="cls-21" points="422 179.21 370.7 172.13 367.16 200.28 394.43 203.97 417.28 206.77 422 179.21"/><polygon class="cls-21" points="370.7 172.13 367.16 200.28 373.5 204.11 376.15 222.09 356.26 202.05 351.69 178.76 352.28 174.64 349.92 169.33 359.5 170.66 370.7 172.13"/><polygon class="cls-22" points="397.97 204.41 367.16 200.28 376.15 222.09 387.06 213.25 397.97 204.41"/><polygon class="cls-22" points="359.5 170.66 351.69 178.76 349.92 169.33 359.5 170.66"/><polygon class="cls-22" points="408.29 187.16 382.05 181.86 388.09 193.8 400.48 196.01 408.29 187.16"/><polygon class="cls-22" points="393.25 175.23 399.44 180.83 406.37 177.14 399.89 175.52 393.25 175.23"/><polygon class="cls-23" points="373.94 147.08 395.76 156.81 396.64 150.47 387.8 148.26 373.94 147.08"/><polygon class="cls-23" points="409.17 159.16 410.35 151.94 416.69 151.94 424.35 154.01 409.17 159.16"/><polygon class="cls-23" points="367.46 146.05 364.66 161.08 359.65 160.2 359.5 152.68 346.97 154.6 342.55 132.05 357.58 136.62 367.46 146.05"/><polygon class="cls-22" points="350.51 157.69 355.37 156.95 355.96 166.09 350.51 157.69"/><polygon class="cls-24" points="372.03 119.08 362.3 116.87 353.31 116.58 347.71 123.36 342.55 132.05 361.27 124.97 372.03 119.08"/><polygon class="cls-25" points="353.31 116.58 381.31 109.65 405.49 106.26 429.07 127.92 397.53 124.53 372.03 119.08 363.63 118.05 353.31 116.58"/><polygon class="cls-12" points="405.49 106.26 365.69 99.33 353.31 116.58 405.49 106.26"/><polygon class="cls-24" points="353.31 116.58 344.32 102.43 326.04 112.16 338.57 115.4 353.31 116.58"/><polygon class="cls-12" points="326.04 112.16 298.77 126.89 334.88 120.7 353.31 116.58 326.04 112.16"/><polygon class="cls-26" points="298.77 126.89 342.55 132.05 353.31 116.58 298.77 126.89"/><polygon class="cls-5" points="372.03 119.08 442.48 129.99 438.36 156.22 410.35 151.94 405.05 142.07 396.64 150.47 367.46 146.05 369.08 130.28 372.03 119.08"/><polygon class="cls-23" points="378.51 126.45 404.31 130.43 393.25 142.51 376.3 139.86 378.51 126.45"/><polygon class="cls-23" points="435.26 135.14 409.47 131.16 416.39 146.05 433.35 148.7 435.26 135.14"/><polygon class="cls-4" points="367.46 146.05 342.55 132.05 372.03 119.08 367.46 146.05"/><path class="cls-27" d="M417.31,162.36a3.21,3.21,0,1,1-3.9,2.31A3.2,3.2,0,0,1,417.31,162.36Z"/><polygon class="cls-28" points="405.05 142.07 410.35 151.94 406.37 177.14 393.25 175.23 396.79 150.47 405.05 142.07"/><path class="cls-27" d="M389.54,158.94a3.21,3.21,0,1,1-3.9,2.3A3.2,3.2,0,0,1,389.54,158.94Z"/><polygon class="cls-29" points="405.05 188.05 385.59 184.07 389.71 192.32 399.74 193.94 405.05 188.05"/><polygon class="cls-5" points="383.08 242.28 381.31 227.1 376.15 222.09 355.67 197.92 355.67 206.62 371.29 246.85 383.08 242.28"/><polygon class="cls-4" points="398.12 226.66 387.06 213.25 381.61 225.78 383.08 242.28 393.84 237.86 398.12 226.66"/><polygon class="cls-12" points="387.06 213.25 383.08 242.28 376.15 222.09 387.06 213.25"/><polygon class="cls-12" points="324.86 214.28 316.75 218.7 318.67 247.29 330.02 270.13 359.2 267.33 342.4 227.54 324.86 214.28"/><polygon class="cls-4" points="362.45 247.59 343.14 242.43 324.86 214.28 355.67 197.92 371.73 242.43 362.45 247.59"/><polygon class="cls-20" points="428.92 220.76 425.39 212.07 417.28 206.77 395.02 229.9 398.41 247 412.12 242.13 428.92 220.76"/><polygon class="cls-5" points="398.12 226.66 411.09 242.43 392.81 245.82 383.08 242.28 398.12 226.66"/><polygon class="cls-19" points="428.92 220.76 417.28 206.77 436.29 195.12 446.46 199.4 447.64 215.75 428.92 220.76"/><polygon class="cls-20" points="453.54 184.51 436.29 195.12 447.64 215.75 459.88 195.56 453.54 184.51"/><polygon class="cls-20" points="429.22 183.19 417.28 206.77 431.28 207.65 434.08 184.07 429.22 183.19"/><polygon class="cls-19" points="397.82 259.67 380.43 266.45 370.26 256.72 371.73 242.43 400.77 242.28 402.24 250.53 397.82 259.67"/><polygon class="cls-20" points="414.04 264.39 397.82 259.67 400.77 242.28 419.05 241.99 422 251.71 414.04 264.39"/><polygon class="cls-5" points="343.14 242.43 371.73 242.43 380.43 266.45 363.04 273.23 343.14 242.43"/><polygon class="cls-22" points="434.67 254.66 414.04 264.39 419.05 241.99 427.89 244.93 434.67 254.66"/><polygon class="cls-4" points="194.41 267.04 221.09 250.53 231.71 235.5 226.4 229.31 190.29 262.18 194.41 267.04"/><polygon class="cls-26" points="233.77 266.45 194.41 267.04 231.56 235.35 235.83 248.47 233.77 266.45"/><polygon class="cls-25" points="285.06 231.08 282.56 218.41 265.31 216.93 246.45 223.71 246.59 233.29 267.67 233.44 285.06 231.08"/><polygon class="cls-24" points="305.99 258.79 297.59 271.17 248.07 267.48 242.02 251.12 246.59 233.29 305.4 224.89 305.99 258.79"/><polygon class="cls-12" points="246.59 233.29 248.07 267.48 233.77 266.45 231.71 235.5 246.59 233.29"/><polygon class="cls-30" points="246.45 223.71 282.56 218.41 280.05 205.73 260.89 206.03 246.15 214.28 246.45 223.71"/><polygon class="cls-4" points="228.76 199.69 230.23 206.03 256.76 201.31 279.46 191.73 279.02 184.37 228.76 199.69"/><polygon class="cls-26" points="246.15 214.28 230.23 206.03 279.46 191.73 280.05 205.73 246.15 214.28"/><polygon class="cls-12" points="305.4 224.89 297.59 271.17 314.1 272.34 315.72 247.88 305.4 224.89"/><polygon class="cls-25" points="316.75 218.7 330.02 270.13 314.1 272.34 305.4 224.89 316.75 218.7"/><polygon class="cls-14" points="322.06 311.25 356.11 310.07 356.4 315.67 340.04 320.98 322.21 315.67 322.06 311.25"/><polygon class="cls-8" points="338.72 305.5 322.06 311.25 339.31 315.52 356.11 310.07 338.72 305.5"/><polygon class="cls-14" points="341.96 310.07 341.22 284.72 359.2 267.33 336.5 257.46 314.1 272.34 335.47 284.13 336.06 310.22 341.96 310.07"/><polygon class="cls-5" points="390.45 290.62 368.05 347.21 389.71 345 408.14 325.4 460.91 338.22 507.34 333.65 390.45 290.62"/><polygon class="cls-8" points="401.36 312.72 389.71 345 460.91 338.22 401.36 312.72"/><polygon class="cls-10" points="338.72 281.48 320.44 272.05 353.46 267.78 338.72 281.48"/><polygon class="cls-13" points="338.72 274.55 320.44 272.05 336.65 261.44 353.9 267.78 338.72 274.55"/><polygon class="cls-1" points="551.7 266.3 543.89 242.57 522.08 233.73 513.23 251.42 514.41 265.56 551.7 266.3"/><polygon class="cls-31" points="498.79 247.59 514.41 265.56 522.08 233.73 498.79 247.59"/><polygon class="cls-15" points="436.73 260.26 419.05 241.99 434.23 229.02 443.51 244.64 443.81 252.3 436.73 260.26"/><polygon class="cls-16" points="474.17 246.11 443.51 244.64 436.73 260.26 479.48 272.05 482.28 253.78 474.17 246.11"/><polygon class="cls-15" points="499.38 208.68 474.17 246.11 479.48 272.05 522.08 233.73 516.48 221.06 499.38 208.68"/><polygon class="cls-2" points="555.54 227.99 563.35 243.31 551.7 266.3 522.08 233.73 499.38 208.68 529 208.68 555.54 227.99"/><polygon class="cls-15" points="453.24 157.84 453.69 205.59 499.38 208.68 506.45 186.72 507.63 160.79 470.05 136.32 454.72 150.76 453.24 157.84"/><polygon class="cls-16" points="507.63 160.79 499.38 208.68 522.67 208.68 528.86 199.99 507.63 160.79"/><polygon class="cls-10" points="441.01 139.27 453.24 157.84 471.08 139.42 458.84 137.5 441.01 139.27"/><polygon class="cls-14" points="499.38 208.68 555.54 227.99 528.86 199.99 499.38 208.68"/><polygon class="cls-14" points="577.2 220.03 591.21 237.56 551.7 266.3 555.54 227.99 577.2 220.03"/><polygon class="cls-2" points="611.55 263.94 551.7 266.3 577.2 220.03 609.93 237.12 617.44 260.26 611.55 263.94"/><polygon class="cls-15" points="642.79 262.76 611.55 263.94 609.93 237.12 635.13 250.39 645.74 256.87 642.79 262.76"/><polygon class="cls-10" points="659.01 246.26 642.35 239.78 635.13 250.39 656.21 262.18 679.64 261.29 659.01 246.26"/><polygon class="cls-11" points="682.3 255.99 679.64 261.29 642.35 239.78 645.45 235.35 682.3 255.99"/><polygon class="cls-16" points="655.47 252.74 635.13 250.39 642.79 262.76 656.21 262.18 655.47 252.74"/><polygon class="cls-16" points="464.44 168.74 456.49 160.2 463.56 158.87 470.49 160.49 472.7 169.33 470.93 182.3 464.44 168.74"/><path class="cls-16" d="M477.12,169.33l1.18,13L485.52,169l9.58-8.4L487.44,159s-7.52,1-7.67,1.47C479.77,160.93,477.12,169.33,477.12,169.33Z"/><polygon class="cls-26" points="456.49 160.2 462.97 157.1 470.49 160.49 456.49 160.2"/><polygon class="cls-26" points="479.77 160.49 488.62 157.25 495.1 160.64 479.77 160.49"/><polygon class="cls-32" points="470.93 182.3 470.49 160.49 479.77 160.49 478.3 182.3 474.17 184.07 470.93 182.3"/><polygon class="cls-17" points="474.62 185.84 470.93 182.3 478.3 182.3 474.62 185.84"/><polygon class="cls-11" points="474.47 189.08 466.95 189.97 474.62 194.39 482.87 190.26 474.47 189.08"/><polygon class="cls-10" points="464.15 188.49 474.17 192.91 487 188.49 474.47 197.19 464.15 188.49"/><path class="cls-27" d="M461.61,165.94a3.21,3.21,0,1,0,3.9,2.31A3.2,3.2,0,0,0,461.61,165.94Z"/><path class="cls-27" d="M483.92,166.32a3.2,3.2,0,1,0,3.91,2.3A3.2,3.2,0,0,0,483.92,166.32Z"/><polygon class="cls-10" points="528.86 199.99 471.08 139.42 516.18 126.45 528.86 199.99"/><polygon class="cls-11" points="543.89 141.04 528.86 199.99 511.02 131.9 516.18 126.45 543.89 141.04"/><polygon class="cls-13" points="475.65 113.92 441.01 139.27 471.08 139.42 513.23 140.3 516.18 126.45 475.65 113.92"/><polygon class="cls-10" points="517.07 116.87 543.89 141.04 513.23 140.3 475.65 113.92 517.07 116.87"/><polygon class="cls-14" points="503.5 304.18 536.38 303 536.08 309.04 518.98 313.31 503.8 309.19 503.5 304.18"/><polygon class="cls-8" points="520.31 297.1 503.5 304.18 520.01 309.19 536.38 303 520.31 297.1"/><polygon class="cls-14" points="522.67 303.44 522.08 280.6 540.8 266.15 517.36 253.48 495.1 268.22 516.48 280.01 516.77 303.73 522.67 303.44"/><polygon class="cls-10" points="519.72 277.36 501.44 267.92 534.31 266.01 519.72 277.36"/><polygon class="cls-13" points="519.72 270.43 501.44 267.92 516.77 257.9 534.31 266.01 519.72 270.43"/><polygon class="cls-14" points="252.64 179.65 138.85 275 9.14 231.96 252.64 179.65"/><polygon class="cls-18" points="88.58 233.44 74.29 240.07 60.28 235.8 72.52 230.34 88.58 233.44"/><polygon class="cls-18" points="102.29 232.85 120.42 237.42 138.41 228.57 120.28 223.56 102.29 232.85"/><polygon class="cls-24" points="74.73 235.35 68.69 219 75.61 218.26 74.73 235.35"/><polygon class="cls-7" points="75.32 222.53 65.3 219.88 55.13 217.23 70.01 205.29 88.88 209.71 75.32 222.53"/><polygon class="cls-11" points="66.62 214.43 73.4 215.61 76.94 212.07 70.75 210.6 66.62 214.43"/><polygon class="cls-24" points="118.95 233.14 126.02 211.19 116 211.78 118.95 233.14"/><polygon class="cls-6" points="124.4 216.2 146.07 202.49 124.11 191.15 102 205.59 124.4 216.2"/><polygon class="cls-11" points="131.03 202.79 124.84 207.21 117.03 204.11 123.96 200.28 131.03 202.79"/><polygon class="cls-18" points="147.99 209.86 160.37 215.61 172.45 211.92 161.84 207.06 147.99 209.86"/><polygon class="cls-24" points="159.92 211.48 165.08 197.33 159.19 196.74 159.92 211.48"/><polygon class="cls-7" points="159.34 199.69 165.08 197.48 178.35 192.03 163.17 183.48 146.07 188.64 159.34 199.69"/><polygon class="cls-11" points="167.15 190.85 161.4 193.21 158.3 190.26 163.02 188.34 167.15 190.85"/><polygon class="cls-18" points="209.01 216.2 200.02 223.86 188.08 220.18 198.25 213.99 209.01 216.2"/><polygon class="cls-24" points="200.46 219.14 194.41 202.79 201.34 202.05 200.46 219.14"/><polygon class="cls-13" points="201.05 205.44 194.41 202.93 182.77 198.07 197.22 187.61 214.61 193.8 201.05 205.44"/><polygon class="cls-11" points="193.83 197.19 198.99 199.1 202.67 195.56 197.07 194.24 193.83 197.19"/><polygon class="cls-18" points="168.33 238.74 159.19 245.23 148.13 241.54 158.01 237.27 168.33 238.74"/><polygon class="cls-24" points="159.34 240.51 155.65 230.2 159.92 229.75 159.34 240.51"/><polygon class="cls-5" points="159.78 231.82 155.65 230.2 145.92 226.22 155.5 219.44 168.33 224.45 159.78 231.82"/><polygon class="cls-11" points="154.47 225.63 158.16 226.95 160.51 224.45 156.39 223.56 154.47 225.63"/><polygon class="cls-18" points="646.48 212.22 655.47 216.34 664.31 213.69 656.5 210.16 646.48 212.22"/><polygon class="cls-24" points="655.18 213.4 659.01 203.08 654.59 202.64 655.18 213.4"/><polygon class="cls-6" points="654.73 204.85 658.86 203.08 668.59 199.25 659.15 192.32 646.18 197.48 654.73 204.85"/><polygon class="cls-11" points="659.6 198.81 656.21 200.13 654 197.92 657.83 197.04 659.6 198.81"/><polygon class="cls-7" points="183.66 49.82 276.81 25.65 320.14 35.82 349.92 28.16 415.07 44.07 327.22 52.32 269.29 50.85 183.66 49.82"/><polygon class="cls-8" points="267.38 68.53 183.66 49.82 266.93 40.68 323.98 47.16 359.5 40.68 415.07 44.07 348 61.9 319.55 56.45 267.38 68.53"/><polygon class="cls-7" points="589.14 73.99 528.41 59.25 501.59 67.36 482.72 63.38 442.34 75.75 497.76 78.41 534.02 75.61 589.14 73.99"/><polygon class="cls-8" points="535.78 87.1 589.14 73.99 535.19 68.68 499.52 74.87 477.12 71.78 442.34 75.75 485.08 85.33 502.62 80.77 535.78 87.1"/><path class="cls-6" d="M454.57-2.79a24.91,24.91,0,1,1-24.91,24.9A24.9,24.9,0,0,1,454.57-2.79Z"/><polygon class="cls-18" points="784.74 230.93 773.24 236.24 761.89 232.85 771.77 228.28 784.74 230.93"/><polygon class="cls-24" points="773.53 232.41 768.67 219.14 774.27 218.7 773.53 232.41"/><polygon class="cls-6" points="774.12 221.35 768.82 219.29 756.29 214.13 768.52 205.29 785.03 211.92 774.12 221.35"/><polygon class="cls-11" points="767.93 213.84 772.21 215.31 775.16 212.51 770.14 211.33 767.93 213.84"/><polygon class="cls-18" points="795.94 230.79 802.87 233.88 809.65 231.82 803.6 229.16 795.94 230.79"/><polygon class="cls-24" points="802.57 231.67 805.52 223.71 802.13 223.42 802.57 231.67"/><polygon class="cls-7" points="802.28 225.04 805.52 223.86 812.89 220.76 805.52 215.46 795.79 219.44 802.28 225.04"/><polygon class="cls-11" points="805.96 220.62 803.46 221.5 801.69 219.73 804.63 219.14 805.96 220.62"/><polygon class="cls-18" points="595.18 199.1 583.25 204.56 571.46 201.02 581.77 196.3 595.18 199.1"/><polygon class="cls-24" points="583.54 200.57 578.68 186.87 584.28 186.28 583.54 200.57"/><polygon class="cls-7" points="584.13 189.08 578.68 187.02 565.85 181.71 578.38 172.57 595.48 179.35 584.13 189.08"/><polygon class="cls-11" points="577.79 181.27 582.22 182.89 585.16 179.94 580 178.76 577.79 181.27"/><polygon class="cls-18" points="601.52 185.69 608.15 188.79 614.79 186.72 609.04 184.22 601.52 185.69"/><polygon class="cls-24" points="608.01 186.58 610.81 178.91 607.57 178.62 608.01 186.58"/><polygon class="cls-7" points="607.71 180.24 610.81 178.91 618.03 175.96 610.96 170.95 601.38 174.79 607.71 180.24"/><polygon class="cls-11" points="611.25 175.82 608.75 176.7 607.12 175.08 610.07 174.34 611.25 175.82"/></g></g></svg>