<svg xmlns="http://www.w3.org/2000/svg" viewBox="0 0 900 350"><defs><style>.cls-1{fill:#8f8f8f;}.cls-2{fill:#a3a1a1;}.cls-3{fill:#ececeb;}.cls-4{fill:#c9c9c9;}.cls-5{fill:#dddddc;}.cls-29,.cls-6{fill:#2b2b2b;}.cls-30,.cls-6{opacity:0.1;}.cls-7{fill:#ba8e2d;}.cls-8{fill:#c4c4c2;}.cls-9{fill:#b3b3b3;}.cls-10{fill:#cbad2d;}.cls-11{fill:#b38b2e;}.cls-12{fill:#9c782c;}.cls-13{fill:#e4c723;}.cls-14{fill:#e1a940;}.cls-15{fill:#d0cecd;}.cls-16{fill:#c2977a;}.cls-17{fill:#debca4;}.cls-18{fill:#272626;}.cls-19{fill:#404040;}.cls-20{fill:#836528;}.cls-21{fill:#755924;}.cls-22{fill:#8a6651;}.cls-23{fill:#474747;}.cls-24{fill:#333;}.cls-25{fill:#737373;}.cls-26{fill:#505353;}.cls-27{fill:#e8c9b6;}.cls-28{fill:#fff;}.cls-30,.cls-37{fill:#2b2c2b;}.cls-31{fill:#f3d65c;}.cls-32{fill:#858686;}.cls-33{fill:#707274;}.cls-34{fill:#4e5353;}.cls-35{fill:#505354;}.cls-36{fill:#494849;}</style></defs><title>explorers_Entertainer_ESFP_parenthood</title><g id="ILLUSTRATION_copy_2" data-name="ILLUSTRATION copy 2"><g id="wall_and_floor_copy_2" data-name="wall and floor copy 2"><polygon class="cls-1" points="255.17 296.17 271.5 351.5 574 350 598.5 298.17 255.17 296.17"/><polygon class="cls-2" points="806.57 83.09 874.07 0.55 898.5 7.5 895.5 337 574 350 572.5 325.5 806.57 83.09"/><polygon class="cls-2" points="102.5 116.5 31.5 0 2.5 6.5 13.5 322.5 271.5 351.5 272.5 323.5 102.5 116.5"/><polygon class="cls-3" points="82.5 203.5 43.5 290.23 272.5 323.5 572.5 325.5 860.57 298.58 676.5 175.5 82.5 203.5"/><polygon class="cls-4" points="335.5 70.37 285.5 35.42 31.5 0 43.5 290.23 288.5 195.48 335.5 70.37"/><polygon class="cls-5" points="646.5 102.57 588.5 34.5 285.5 35.42 288.5 195.48 583.83 195.78 646.5 102.57"/><polygon class="cls-4" points="588.5 34.5 874.07 0.55 860.57 298.58 583.83 195.78 588.5 34.5"/><polygon class="cls-5" points="606 269.5 552.5 213.5 698 209 862 256 655 301 606 269.5"/><polygon class="cls-2" points="631.5 295.5 642.5 274.17 878.5 254.17 877.83 310.17 636.5 319.5 631.5 295.5"/><polygon class="cls-1" points="552.5 213.5 545 248 636.5 319.5 646.5 274.17 552.5 213.5"/><path class="cls-5" d="M521,161.7c7.66,0,7.67-11.9,0-11.9s-7.67,11.9,0,11.9Z"/></g><g id="variation_copy_2" data-name="variation copy 2"><polygon class="cls-2" points="177.83 276.83 140.17 291.5 96.5 298.17 150.17 314.17 206.83 314.17 239.17 300.83 177.83 276.83"/><polygon class="cls-4" points="177.83 276.83 175.5 301.17 98.83 313.83 96.5 298.17 177.83 276.83"/><polygon class="cls-3" points="204.83 331.5 206.83 314.17 175.5 301.17 98.83 313.83 204.83 331.5"/></g><g id="picture_on_the_wall_copy_2" data-name="picture on the wall copy 2"><polygon class="cls-6" points="260.69 164.56 250.32 182.92 50.72 249.58 44.33 75.54 61.3 42.4 260.69 164.56"/><polygon class="cls-7" points="89.44 41.8 76.27 36.42 61.3 42.4 68.78 216.35 82.86 219.05 89.44 41.8"/><polygon class="cls-5" points="84.65 42.4 92.24 205.27 266.68 157.37 265.49 63.16 84.65 42.4"/><polygon class="cls-8" points="131.16 66.56 99.82 70.55 126.17 74.54 147.52 80.13 168.48 72.14 147.13 71.94 131.16 66.56"/><polygon class="cls-8" points="220.32 111.92 233.62 108.67 253.11 113.93 235.94 115.63 211.96 124.14 190 107.9 213.05 114.7 220.32 111.92"/><polygon class="cls-2" points="123.97 106.47 131.16 96.69 136.55 102.08 137.94 131.82 119.98 128.23 123.97 106.47"/><polygon class="cls-9" points="112.99 102.88 120.18 90.91 131.16 96.69 136.55 137.01 108.4 140.8 112.99 102.88"/><polygon class="cls-8" points="103.01 121.04 101.82 114.46 112.59 90.71 120.18 90.91 113.79 122.44 103.01 121.04"/><polygon class="cls-8" points="104.01 126.83 113.79 122.44 124.27 129.43 139.74 162.36 105.81 167.95 91.84 152.38 104.01 126.83"/><polygon class="cls-9" points="89.24 129.23 101.82 114.46 113.79 122.44 100.02 158.97 90.84 152.18 89.24 129.23"/><polygon class="cls-2" points="91.44 146.99 124.87 155.57 175.47 185.71 91.24 203.48 91.44 146.99"/><polygon class="cls-10" points="235.35 146.69 247.45 139.26 249.02 162.86 231.45 158.17 235.35 146.69"/><polygon class="cls-11" points="235.05 157.97 236.54 151.58 247.45 139.26 223.57 148.09 235.05 157.97"/><polygon class="cls-10" points="203.81 150.59 216.78 133.42 236.54 151.58 208.2 160.37 203.81 150.59"/><polygon class="cls-12" points="204.81 160.96 211.79 151.58 216.78 133.42 198.02 147.79 204.81 160.96"/><polygon class="cls-10" points="186.84 139.81 193.23 130.82 214.59 154.78 181.66 156.37 186.84 139.81"/><polygon class="cls-12" points="173.07 145.59 193.23 130.82 190.04 151.46 173.07 145.59"/><polygon class="cls-12" points="137.74 125.44 124.27 129.43 124.87 155.57 154.51 169.35 166.29 149.99 137.74 125.44"/><polygon class="cls-11" points="151.87 157.37 124.87 155.57 145.53 188.91 191.24 180.13 151.87 157.37"/><polygon class="cls-10" points="163.09 148.99 151.87 157.37 174.67 181.72 209.6 171.74 190.04 151.46 163.09 148.99"/><polygon class="cls-11" points="190.04 151.46 236.54 151.58 250.91 161.36 200.82 176.33 190.04 151.46"/><polygon class="cls-13" points="141.61 130.65 139.81 141.43 151.87 157.37 190.04 151.46 151.72 117.93 141.61 130.65"/><polygon class="cls-10" points="149.92 92.4 139.89 92.7 124.27 129.43 139.81 141.43 151.72 117.93 157.25 95.32 149.92 92.4"/><polygon class="cls-11" points="158.68 96.82 153.14 97.94 151.72 117.93 156.66 103.25 158.68 96.82"/><polygon class="cls-13" points="163.24 85.74 162.72 81.62 139.89 92.7 153.14 97.94 163.24 85.74"/><polygon class="cls-12" points="165.79 86.86 178.06 88.29 156.66 103.25 153.14 97.94 165.79 86.86"/><path class="cls-14" d="M272.07,58,76.27,36.42l6.59,182.63L274.67,165ZM97.82,197.49,93,54.68,261.69,67.15l2.2,89.82Z"/><polygon class="cls-10" points="162.72 81.62 153.14 97.94 178.06 88.29 162.72 81.62"/><path class="cls-11" d="M165.09,88.19a1.82,1.82,0,1,1-1.82-1.83A1.83,1.83,0,0,1,165.09,88.19Z"/><polygon class="cls-15" points="253.11 113.93 233.47 105.58 208.56 109.13 190 107.9 214.44 117.33 233 111.76 253.11 113.93"/><polygon class="cls-15" points="99.82 70.55 129.56 63.56 152.12 70.55 168.48 72.14 151.91 75.34 127.76 70.15 99.82 70.55"/></g><g id="main_character_copy_2" data-name="main character copy 2"><polygon class="cls-16" points="334.72 221.72 329.56 224.86 323.27 217.9 336.51 218.58 334.72 221.72"/><polygon class="cls-17" points="334.72 203.99 332.03 210.72 329.56 224.86 347.96 225.76 347.29 204.21 334.72 203.99"/><polygon class="cls-16" points="322.82 171.9 312.28 177.51 332.03 210.72 348.41 206.91 341.23 173.24 322.82 171.9"/><polygon class="cls-17" points="335.62 152.59 320.36 164.71 312.28 177.51 349.76 186.93 352 156.63 335.62 152.59"/><polygon class="cls-6" points="435.48 280.63 369.62 271.82 301.83 280.58 366.77 297.67 435.48 280.63"/><polygon class="cls-18" points="362.3 279.5 368.83 283.85 368.78 286.96 346.2 286.96 346.26 284.09 362.3 279.5"/><polygon class="cls-19" points="346.26 284.09 368.83 283.85 362.21 272.78 354 264.11 347.99 274.62 346.26 284.09"/><polygon class="cls-18" points="389.52 274.79 407.18 279.54 407.18 282.55 375.6 282.85 375.83 279.69 389.52 274.79"/><polygon class="cls-20" points="409.57 138.53 394.29 126.91 391.18 132.4 388.7 139.47 400.77 141.79 409.57 138.53"/><polygon class="cls-21" points="414.91 172.1 406.65 156.82 402.55 140.26 409.57 138.53 420.58 145.3 428.7 165.92 414.91 172.1"/><polygon class="cls-13" points="359.39 210.81 391.77 209.53 410.36 202.36 399.38 163.2 388.75 139.42 378.37 145 368.14 141.54 365.96 140.26 363.44 139.96 359.78 171.11 359.39 210.81"/><polygon class="cls-10" points="401.66 171.01 399.38 163.2 398.89 162.11 395.23 158.5 362.7 161.72 360.18 168.14 359.78 171.11 359.98 176.84 355.87 188.66 403.14 181.34 401.66 171.01"/><polygon class="cls-16" points="377.38 57.47 356.9 59.33 355.26 101.62 374.51 125.17 375.23 106.19 376.76 63.2 376.69 62.72 377.38 57.47"/><polygon class="cls-12" points="340.51 173.58 320.36 164.71 336.51 140.03 350.58 135.36 347.42 155.09 340.51 173.58"/><polygon class="cls-16" points="376.9 107.58 355.26 101.62 355.56 104.78 358.54 135.06 359.88 135.95 363.44 139.96 377.12 124.14 376.9 107.58"/><polygon class="cls-17" points="399.73 62.91 420.2 65.68 423.12 75.67 422.94 90.56 426.11 122.38 372.25 119.62 376.69 62.72 376.72 62.42 399.73 62.91"/><polygon class="cls-16" points="405.77 90.3 411.34 80.97 419.01 76.63 411.75 75.23 407.31 76.26 404.23 76.43 400.08 76.25 395.57 75.66 390.12 73.48 383.9 74.99 391.33 78.9 399.53 90.21 405.77 90.3"/><polygon class="cls-22" points="388.7 139.47 407.58 121.63 363.3 117.84 363.44 139.96 378.56 147.36 388.7 139.47"/><polygon class="cls-22" points="355.32 99.53 355.26 101.62 366.65 95.54 359.19 90.96 355.32 99.53"/><polygon class="cls-23" points="439.72 32 422.94 90.56 420.2 65.68 425.81 53.27 439.72 32"/><polygon class="cls-23" points="364.62 84.56 355.26 101.62 350.39 52.64 357.39 65.31 364.62 84.56"/><polygon class="cls-24" points="364.62 84.56 350.39 52.64 355.66 53.64 367.37 58.39 376.69 62.72 368.83 78.44 364.62 84.56"/><polygon class="cls-23" points="350.39 52.64 376.6 34.98 378.44 46.63 376.69 62.72 350.39 52.64"/><polygon class="cls-25" points="420.2 65.68 395.42 64.02 415.97 47.31 439.72 32 420.2 65.68"/><polygon class="cls-26" points="395.42 64.02 376.69 62.72 376.6 34.98 439.72 32 395.42 64.02"/><polygon class="cls-17" points="368.83 78.44 356.82 77.16 356.19 94.02 366.65 95.54 368.83 78.44"/><polygon class="cls-22" points="360.98 80.68 366.19 81.66 365.31 86.86 360.98 80.68"/><polygon class="cls-27" points="404.23 76.43 406.37 91.08 399.53 90.21 400.08 76.25 404.23 76.43"/><polygon class="cls-22" points="402.79 94.91 406.37 91.08 399.53 90.21 402.79 94.91"/><polygon class="cls-24" points="419.26 76.65 412.88 71.9 407.31 76.26 419.26 76.65"/><polygon class="cls-24" points="395.57 75.66 389.39 70.76 382.02 75.85 395.57 75.66"/><polygon class="cls-22" points="409.76 101.78 381.27 92.78 385.8 111.38 401.35 114.88 409.76 101.78"/><polygon class="cls-28" points="408.12 102.14 385.74 96.08 386.63 102.13 404.5 107.25 408.12 102.14"/><polygon class="cls-11" points="429.4 209.72 402.55 140.26 388.7 139.47 410.36 202.36 429.4 209.72"/><polygon class="cls-16" points="450.28 139.47 431.1 151.16 431.1 167.97 435.48 180.98 459.47 146.15 455.61 140.44 450.28 139.47"/><polygon class="cls-19" points="407.18 279.54 375.83 279.69 376.34 271.38 382.48 256.6 391.32 270.45 407.18 279.54"/><path class="cls-20" d="M398.67,243.34l11.69-41-38.07,13.35,2.27,31.1,13.75,4.89Z"/><path class="cls-21" d="M391.33,270.45l7.34-27.11-24.11,3.47,1.78,24.57Z"/><polygon class="cls-20" points="370.46 246.96 379.21 220.65 389.15 210.56 359.09 210.81 359.24 222.13 350.58 213.33 342.33 207.89 345.39 245.08 357.51 257.29 370.46 246.96"/><polygon class="cls-21" points="362.21 272.78 370.46 246.96 345.39 245.08 347.99 274.62 362.21 272.78"/><polygon class="cls-21" points="410.36 202.31 377.23 226.62 359.93 210.81 410.36 202.31"/><polygon class="cls-11" points="359.24 223.62 333.28 199.79 350.58 135.36 363.44 139.96 359.24 223.62"/><polygon class="cls-20" points="347.52 146.69 363.44 139.96 357.46 126.11 350.58 135.36 347.52 146.69"/><polygon class="cls-17" points="414.91 172.1 420.58 145.3 431.1 151.16 435.48 180.98 414.91 172.1"/><path class="cls-29" d="M391.8,78.88a3,3,0,1,1-1.59,5.71,2.94,2.94,0,0,1-2.06-3.65A3,3,0,0,1,391.8,78.88Z"/><path class="cls-29" d="M411,80a3,3,0,0,1-1.59,5.72A3,3,0,1,1,411,80Z"/><polygon class="cls-22" points="469.52 135.45 463.8 128.31 453.77 124.75 450.28 139.47 459.47 146.15 469.52 135.45"/><polygon class="cls-16" points="465.82 114.03 453.77 124.75 469.52 135.45 472.93 122.01 465.82 114.03"/><polygon class="cls-17" points="453.77 122.01 456.99 135.48 454.95 142.86 450.28 139.47 449.3 122.01 453.77 122.01"/></g><g id="skeleton_copy_2" data-name="skeleton copy 2"><polygon class="cls-30" points="588.83 226.5 648.83 258.83 746.17 263.17 783.17 243.5 677.83 214.83 588.83 226.5"/><polygon class="cls-20" points="734.17 221.69 730.05 227.5 720.65 248.93 755.14 250.53 746.09 227.04 734.17 221.69"/><polygon class="cls-20" points="734.79 245.83 720.65 248.93 734.25 261 754.8 250.64 734.79 245.83"/><polygon class="cls-11" points="736.01 239.41 727.53 243.31 720.65 248.93 755.14 250.53 747.01 244.61 736.01 239.41"/><polygon class="cls-10" points="737.84 223.22 733.03 232.54 727.53 243.31 747.01 244.61 741.74 233.46 737.84 223.22"/><polygon class="cls-11" points="633.91 217.51 624.52 214.76 618.1 232.86 639.18 230.8 633.91 217.51"/><polygon class="cls-10" points="642.39 214.07 636.66 214.53 624.52 214.76 632.48 226.73 648.81 228.05 642.39 214.07"/><polygon class="cls-11" points="654.08 203.99 650.41 206.51 636.66 214.53 643.77 222.55 652.7 221.63 657.74 209.72 654.08 203.99"/><polyline class="cls-20" points="638.27 225.76 637.29 225.5 632.08 226.9 618.1 232.86 635.29 232.17"/><polygon class="cls-11" points="649.04 219.11 643.77 222.55 632.48 226.73 635.29 232.17 658.58 230.72 649.04 219.11"/><polygon class="cls-20" points="659.35 204.44 652.24 212.92 643.77 222.55 658.58 230.72 665 215.75 659.35 204.44"/><polygon class="cls-31" points="690.41 125.3 675.05 124.15 656.95 163.8 690.41 125.3"/><polygon class="cls-11" points="713.55 113.61 707.44 125.15 729.13 182.82 719.05 117.51 713.55 113.61"/><polygon class="cls-11" points="730.97 174.57 729.13 182.82 730.05 227.5 733.03 232.54 741.74 233.46 746.09 227.04 744.72 180.98 730.97 174.57"/><polygon class="cls-10" points="666.35 154.63 656.95 163.8 650.41 206.51 652.24 212.92 660.95 214.99 665 215.75 671.39 168.61 666.35 154.63"/><polygon class="cls-11" points="681.24 123.7 656.95 163.8 671.39 168.61 690.64 130.8 681.24 123.7"/><polygon class="cls-20" points="665.66 122.09 690.64 130.8 699.5 125.91 702.09 119.8 680.33 115.68 665.66 122.09"/><polyline class="cls-11" points="751.82 88.41 751.26 87.79 744.95 80.84 734.17 71.68 753.65 81.53"/><polygon class="cls-10" points="752.74 100.32 748.38 93.22 744.95 80.84 753.65 81.53 758.47 93.22 752.74 100.32"/><polygon class="cls-11" points="748.61 116.59 747.7 105.14 748.38 93.22 758.47 93.22 755.26 116.13 748.61 116.59"/><polygon class="cls-10" points="741.28 112.47 744.72 110.41 747.7 105.14 755.26 116.13 745.63 135.15 741.28 112.47"/><polygon class="cls-11" points="728.67 104.22 744.72 110.41 745.63 135.15 730.51 130.11 728.67 104.22"/><polygon class="cls-10" points="712.86 119.8 729.13 182.82 744.72 180.98 732.11 140.88 733.26 124.38 722.49 113.38 717.2 116.91 712.86 119.8"/><polygon class="cls-20" points="720.88 103.76 728.33 99.86 745.63 135.15 732.11 140.88 726.61 123.47 720.88 103.76"/><polygon class="cls-20" points="662.68 98.72 661.94 99.08 652.37 103.76 652.71 112.47 668.64 118.42 682.96 105.36 662.68 98.72"/><polygon class="cls-11" points="666.58 87.49 652.37 103.76 682.96 105.36 692.7 98.15 666.58 87.49"/><polygon class="cls-11" points="654.2 132.63 652.45 125.15 652.71 112.47 707.25 113.04 707.44 125.15 704.5 128.97 699.5 125.91 678.26 119.11 659.32 127.13 654.2 132.63"/><polygon class="cls-11" points="705.99 94.59 703.7 101.47 697.17 101.7 675.97 98.72 665.89 74.43 705.99 94.59"/><polygon class="cls-10" points="694.53 87.26 676.2 75.12 665.89 78.09 670.93 81.07 694.53 87.26"/><polygon class="cls-20" points="671.62 92.99 670.36 100.21 687.09 102.39 697.17 101.7 680.9 95.85 671.62 92.99"/><polygon class="cls-10" points="662.91 77.06 661.99 81.99 670.36 100.21 680.9 95.85 670.93 81.07 662.91 77.06"/><polygon class="cls-10" points="691.83 150.31 699.96 151.58 697.79 163.55 706.21 152.31 706.16 143.4 691.83 150.31"/><polygon class="cls-31" points="704.48 132.52 702.27 137.57 699.96 151.58 706.21 152.31 711.88 140.04 704.48 132.52"/><polygon class="cls-10" points="645.57 139.66 638.54 137.83 633.96 148.67 643.13 143.33 646.03 149.13 647.4 140.12 645.57 139.66"/><polygon class="cls-31" points="654.74 131.41 650.92 134.62 638.54 137.83 643.13 143.33 657.79 140.73 654.74 131.41"/><polygon class="cls-13" points="668.18 55.87 668.11 54.73 667.49 45.33 654.89 37.46 644.58 52.89 668.18 55.87"/><polygon class="cls-11" points="670.47 68.47 672.08 59.3 667.49 45.33 654.43 49.22 656.72 65.72 670.47 68.47"/><polygon class="cls-13" points="664.06 76.95 670.93 81.07 676.2 75.12 672.08 59.3 660.7 60.22 664.06 76.95"/><polygon class="cls-11" points="653.74 65.72 660.16 79.47 661.99 81.99 670.93 81.07 660.7 60.22 653.74 65.72"/><polygon class="cls-20" points="642.36 67.1 628.92 78.55 628.61 88.03 640.38 89.4 630.29 108.04 615.02 115.52 608.3 118.12 603.71 106.2 616.55 86.96 618.99 69.08 620.67 52.13 635.79 49.38 646.18 57.32 642.36 67.1"/><polygon class="cls-14" points="606.16 117.05 599.74 113.84 603.41 97.34 608.45 112.31 612.73 95.82 618.84 111.09 620.82 109.11 620.59 98.18 624.03 101.47 624.95 94.14 627.39 95.82 629.84 103.45 618.68 117.05 606.16 117.05"/><polygon class="cls-10" points="635.03 95.51 632.59 88.03 641.49 59.82 647.16 56.5 655.2 56.86 660.7 60.22 660.16 79.47 645.88 98.11 635.03 95.51"/><polygon class="cls-14" points="590.42 47.54 583.7 51.82 588.44 68.47 592.71 51.97 600.05 69.54 603.41 53.04 610.74 69.69 614.87 57.63 618.99 69.08 621.59 60.22 614.41 48.76 590.42 47.54"/><polygon class="cls-31" points="628.16 46.17 619.09 31.52 638.85 20.35 654.89 37.46 660.7 60.22 641.49 59.82 637.59 57.24 628.16 46.17"/><polygon class="cls-10" points="597.72 40.06 597.63 39.4 596.08 27.84 619.09 31.52 641.49 59.82 629.68 57.01 597.72 40.06"/><polygon class="cls-11" points="583.7 51.82 584.77 37.61 596.08 27.84 629.68 57.01 621.59 60.22 603.41 53.04 583.7 51.82"/><polygon class="cls-11" points="599.74 113.84 618.84 111.09 632.59 88.03 645.88 98.11 619.3 124.69 602.8 123.47 599.74 113.84"/><polygon class="cls-13" points="652.45 125.15 650.92 134.62 657.79 140.73 659.32 127.13 652.45 125.15"/><polygon class="cls-13" points="699.5 125.91 702.27 137.57 711.88 140.04 707.44 125.15 699.5 125.91"/><polygon class="cls-31" points="671.73 81.3 702.32 98.95 719.74 103.76 728.33 99.86 714.24 85.43 671.73 81.3"/><polygon class="cls-13" points="707.44 125.15 702.32 98.95 728.33 99.86 726.61 123.47 707.44 125.15"/><polygon class="cls-11" points="643.08 32.5 639.24 34.58 633.1 38.31 643.98 52.67 650.5 47.41 643.08 32.5"/><polygon class="cls-20" points="639.24 34.58 645.13 46.2 640.52 48.17 632.33 37.98 639.24 34.58"/><polygon class="cls-20" points="600 38.17 594.33 47.08 605.17 48.75 600 38.17"/><polygon class="cls-20" points="586.5 38.25 591.17 46.92 585.92 47.25 586.5 38.25"/><polygon class="cls-21" points="601.31 40.88 599.06 45.63 604.13 46.63 601.31 40.88"/><polygon class="cls-21" points="588.08 41.19 587.36 45.28 590.16 45.09 588.08 41.19"/></g><g id="child_copy_2" data-name="child copy 2"><polygon class="cls-12" points="493.99 157.35 480.34 142.36 464.67 170.11 483.47 174.36 493.99 157.35"/><polygon class="cls-32" points="519.46 89.84 505.85 62.62 474.07 73.23 483.92 96.25 519.46 89.84"/><polygon class="cls-33" points="524.65 88.44 536.94 75.85 539.53 64.99 505.85 62.62 507.36 88.23 524.65 88.44"/><polygon class="cls-30" points="500.89 257.81 449.17 246.42 499.06 235.02 546.5 241.67 545 248 500.89 257.81"/><polygon class="cls-12" points="482.88 242.93 497.15 247.21 496.85 250.25 478.39 249.91 478.5 247.34 482.88 242.93"/><polygon class="cls-12" points="529.46 240.48 537.92 243.16 537.88 245.76 514.47 245.93 514.37 243.05 529.46 240.48"/><polygon class="cls-10" points="537.92 243.16 524.91 234.46 524.6 233.91 514.98 231.86 514.19 235.25 514.33 243.05 537.92 243.16"/><polygon class="cls-10" points="497.15 247.21 492.19 237.93 489.69 230.6 483.14 232.84 481.12 237.55 478.5 247.34 497.15 247.21"/><polygon class="cls-34" points="526.89 190.14 526.57 216.03 523.53 222.23 510.3 221.82 504.71 206.13 497.21 192.82 525.73 186.83 526.89 190.14"/><polygon class="cls-23" points="526.57 216.03 525.83 235.47 514.19 235.25 510.3 221.82 526.57 216.03"/><polygon class="cls-34" points="480.52 220.88 478.68 195.7 483.13 192.83 496.63 193.5 497.72 194.91 499.88 195.59 505.87 203.98 504.71 206.13 496.58 225.04 485.33 226.64 480.52 220.88"/><polygon class="cls-23" points="481.12 237.55 480.52 220.88 496.58 225.04 492.08 237.55 481.12 237.55"/><polygon class="cls-23" points="519.26 181.56 526.89 190.14 504.71 206.13 478.68 195.7 519.26 181.56"/><polygon class="cls-16" points="486.45 142.21 479.07 121.96 482.63 85.87 486.37 92.73 492.28 133.12 495.6 142.09 496.46 151.25 486.45 142.21"/><polygon class="cls-22" points="502.79 150.19 516.36 129.43 514.78 128.38 492.14 128.96 490.56 132.28 487.05 133.18 492.41 144.67 502.79 150.19"/><polygon class="cls-35" points="528.65 111.11 536.94 75.85 528.01 81.44 527.26 83.04 527.81 86.84 528.65 111.11"/><polygon class="cls-17" points="528.01 81.44 530.04 131.46 490.56 132.28 482.63 85.87 508.08 86.48 528.01 81.44"/><polygon class="cls-22" points="479.07 121.96 476.88 116.08 484.35 115.4 479.07 121.96"/><path class="cls-36" d="M465.88,92.58l8.19-19.35,8.56,12.64.15,18.33-10.25.42Z"/><polygon class="cls-17" points="484.35 115.4 476.88 116.08 472.53 104.62 482.78 104.2 484.35 115.4"/><polygon class="cls-22" points="481.41 111.82 480.55 106.32 475.44 106.62 481.41 111.82"/><polygon class="cls-16" points="515.35 112.92 519.81 103.6 526.13 95.98 514.03 99.35 511.79 101.95 506.62 99.77 505.42 99.19 491.48 96.74 501.24 104.76 508.65 113.44 515.35 112.92"/><path class="cls-37" d="M498.8,102.35a2.76,2.76,0,0,0,2.42,3,2.73,2.73,0,0,0,2.94-2.47,2.69,2.69,0,0,0-2.43-2.94A2.72,2.72,0,0,0,498.8,102.35Z"/><polygon class="cls-22" points="512.29 115.92 515.35 112.92 508.65 113.44 512.29 115.92"/><polygon class="cls-27" points="514.61 99.19 515.35 112.92 508.65 113.44 506.62 99.77 514.61 99.19"/><polygon class="cls-36" points="515.43 99.1 519.13 94.58 526.13 95.98 515.43 99.1"/><polygon class="cls-36" points="505.27 99.23 501.75 94.96 491.43 96.87 505.27 99.23"/><polygon class="cls-22" points="520.48 115.87 503.1 119.08 507.1 127.71 516.76 127.44 520.48 115.87"/><polygon class="cls-13" points="518.27 142.58 508.82 141.07 502.79 150.19 501.06 160.32 500.06 162.16 501.4 190.34 503.83 192.29 526.89 190.14 518.27 142.58"/><polygon class="cls-10" points="486.45 141.14 480.34 142.36 480.64 171.19 478.68 195.7 503.83 192.29 502.79 150.19 486.45 141.14"/><path class="cls-37" d="M518.24,101.53a2.73,2.73,0,0,0,2.43,2.94,2.7,2.7,0,0,0,.51-5.37A2.73,2.73,0,0,0,518.24,101.53Z"/><polygon class="cls-28" points="505.75 120.15 517.61 118.46 516.83 121.84 506.83 122.78 505.75 120.15"/><polygon class="cls-12" points="492.5 159.37 502.79 150.19 513.74 156.53 510.5 141.34 509.06 140.58 502.83 149.61 485.4 139.04 484.21 141.59 492.5 159.37"/><polygon class="cls-3" points="508.25 131.98 511.08 172.66 541.11 170.54 544.45 126.79 508.25 131.98"/><polygon class="cls-17" points="541.11 155.3 542.8 148.3 545.49 156.69 541.69 163.62 541.11 155.3"/><polygon class="cls-16" points="533.84 153.51 542.8 148.3 541.69 163.62 534.24 160.18 533.84 153.51"/><polygon class="cls-16" points="501.57 157.85 500.68 150.16 509.51 150.16 512.58 156.7 506.87 163.37 501.57 157.85"/><polygon class="cls-17" points="492.67 163.43 492.5 159.37 500.68 150.16 506.87 163.37 497.28 168.18 492.67 163.43"/><polygon class="cls-16" points="492.5 159.37 464.67 170.11 474.88 184.69 497.28 168.18 492.5 159.37"/></g></g></svg>