<svg xmlns="http://www.w3.org/2000/svg" viewBox="0 0 900 350"><defs><style>.cls-1,.cls-34{fill:#cfcecd;}.cls-1,.cls-10,.cls-11,.cls-12,.cls-13,.cls-14,.cls-15,.cls-16,.cls-17,.cls-18,.cls-19,.cls-2,.cls-20,.cls-3,.cls-31,.cls-35,.cls-36,.cls-37,.cls-38,.cls-39,.cls-4,.cls-41,.cls-42,.cls-43,.cls-46,.cls-47,.cls-5,.cls-50,.cls-51,.cls-52,.cls-53,.cls-58,.cls-6,.cls-7,.cls-8,.cls-9{fill-rule:evenodd;}.cls-2,.cls-23{fill:#e1a842;}.cls-3{fill:#afafaf;}.cls-33,.cls-4{fill:#dddddc;}.cls-32,.cls-5{fill:#f1bc68;}.cls-6{fill:#c4c4c3;}.cls-27,.cls-40,.cls-42,.cls-7{fill:#2b2b2b;}.cls-27,.cls-50,.cls-7{opacity:0.1;}.cls-30,.cls-8{fill:#ececeb;}.cls-9{fill:#6f7173;}.cls-10{fill:#858686;}.cls-11{fill:#755800;}.cls-12,.cls-21{fill:#bb8e2d;}.cls-13,.cls-29{fill:#cbac14;}.cls-14,.cls-55{fill:#846400;}.cls-15,.cls-56{fill:#c2977b;}.cls-16,.cls-57{fill:#debca4;}.cls-17{fill:#8a6651;}.cls-18{fill:#e7c9b5;}.cls-19,.cls-50,.cls-54{fill:#2a2b2a;}.cls-20{fill:#f3d65d;}.cls-22,.cls-31{fill:#9d7700;}.cls-24,.cls-46{fill:#b2b2b2;}.cls-25{fill:#9a9ea0;}.cls-26{fill:#cececd;}.cls-28{fill:#e4c728;}.cls-35{fill:#4f5253;}.cls-36,.cls-45{fill:#916d5a;}.cls-37{fill:#51362a;}.cls-38,.cls-44{fill:#755445;}.cls-39{fill:#98796a;}.cls-41{fill:#fff;}.cls-43{fill:#8e8e8e;}.cls-47{fill:#9ca0a1;}.cls-48{fill:#8c7c2f;}.cls-49{fill:#ab913c;}.cls-51{fill:#484748;}.cls-52{fill:#848585;}.cls-53{fill:#707274;}.cls-58{fill:#d6d6d6;}</style></defs><title>explorers_Adventurer_ISFP_weaknesses</title><g id="ILLUSTRATION_copy_2" data-name="ILLUSTRATION copy 2"><g id="wall_copy_2" data-name="wall copy 2"><polygon class="cls-1" points="377 129 445.42 59.29 580 35.64 898.33 38.33 891 281.67 444.67 220.33 377 129"/><polygon class="cls-2" points="377 129 445.5 34.5 899.67 0 898.33 38.33 445.42 59.29 377 129"/><polygon class="cls-3" points="376.38 158.13 444.88 63.63 898 46 896.67 73.67 445.25 78.13 376.38 158.13"/><polygon class="cls-4" points="0.92 39.08 169.68 22.59 445.42 59.29 445.4 63.63 439.25 66.66 445.25 78.13 444.67 220.33 6 257.5 0.92 39.08"/><polygon class="cls-5" points="0 0 445.5 34.5 445.42 59.29 0.92 39.08 0 0"/><polygon class="cls-6" points="1 45.67 445.4 63.63 445.25 78.13 1.75 73.75 1 45.67"/></g><g id="shadows_copy_2" data-name="shadows copy 2"><polygon class="cls-7" points="46 313 328.33 283.33 486.33 319.33 254.33 350.33 46 313"/><polygon class="cls-7" points="464 310.67 546.67 296 638 317.67 544.67 329 464 310.67"/><polygon class="cls-7" points="612.33 293 733.67 293.67 855.67 328.33 725.33 328 612.33 293"/></g><g id="poster_copy_2" data-name="poster copy 2"><polygon class="cls-7" points="358.67 114.83 342.33 88.33 333.88 167.13 395.83 169.67 394.83 125.83 358.67 114.83"/><polygon class="cls-8" points="342.33 88.33 343.33 164 406 162 403.33 90.67 342.33 88.33"/><polygon class="cls-4" points="354.67 100.17 392 101.17 392 105 355.08 103.58 354.67 100.17"/><polygon class="cls-4" points="348.25 111 396.92 112.33 396.92 115.5 348 114.42 348.25 111"/><polygon class="cls-4" points="348.75 121.58 397.42 122.92 397.42 126.08 348.5 125 348.75 121.58"/><polygon class="cls-4" points="348.67 132.92 397.42 133.67 397.42 136.83 348.5 136.67 348.67 132.92"/><polygon class="cls-4" points="378.25 146.5 397.54 146.92 397.54 150.08 378.25 150.13 378.25 146.5"/></g><g id="chair_copy_2" data-name="chair copy 2"><polygon class="cls-9" points="173.67 166.33 148 157 135.13 166.5 147 223.33 199.67 221.33 173.67 166.33"/><polygon class="cls-10" points="208.32 178.04 187.75 153.92 148 157 163.62 226.29 196.26 224.87 208.32 178.04"/></g><g id="main_character_copy_2" data-name="main character copy 2"><polygon class="cls-11" points="188.11 153.59 166.59 185.64 194.53 201.87 192.13 173.47 188.11 153.59"/><polygon class="cls-12" points="209.14 146.29 188.11 153.59 183.49 219.52 210.56 240.27 226.7 224.69 231.6 192.45 239.57 147.67 209.14 146.29"/><polygon class="cls-13" points="227.42 155.86 226.7 224.69 233.41 238.41 251.37 226 253.69 155.71 239.5 148.39 226.87 147.09 227.42 155.86"/><polygon class="cls-14" points="269.36 61.01 273.64 75.75 266.98 81.89 255.86 59.36 265.64 57.24 269.36 61.01"/><polygon class="cls-15" points="192.62 65.2 217.47 71.5 224.3 111.39 227.42 155.86 209.14 146.29 200.36 131.68 196.09 108.69 182.8 102.46 192.62 65.2"/><polygon class="cls-13" points="188.79 68.38 186.25 47.56 270.63 33.87 258.53 55.89 210.72 74.07 188.79 68.38"/><path class="cls-11" d="M203.36,75.71c-.33-1.48.44,28.13.44,28.13L199,105.52l-3-8L186.66,101l-3.86,1.46L171.05,82.91l21.57-15Z"/><polygon class="cls-16" points="195.83 97.12 202.58 115.16 192.66 118.87 182.8 102.46 195.83 97.12"/><polygon class="cls-17" points="202.58 115.16 200.36 131.68 192.66 118.87 202.58 115.16"/><polygon class="cls-16" points="223.46 143.33 243.94 135.82 271.66 129.87 265.04 61.97 234.03 65.21 210.72 74.07 223.46 143.33"/><polygon class="cls-17" points="249.67 107.53 251.61 104.55 247.1 105.5 249.67 107.53"/><polygon class="cls-11" points="220.25 87.9 234.26 76.11 239.59 82.22 220.25 87.9"/><polygon class="cls-11" points="252.45 74.15 263.71 79.92 248.81 80.27 252.45 74.15"/><polygon class="cls-15" points="220.25 87.9 232.49 87.8 247.1 105.5 244.61 89.95 240.28 83.91 239.59 82.22 220.25 87.9"/><polygon class="cls-15" points="255.97 84.55 251.61 104.55 248.21 93.35 248.08 82.42 248.81 80.27 263.71 79.92 255.97 84.55"/><polygon class="cls-17" points="238.26 116.18 260.81 112.23 261.76 114.86 238.23 119.37 238.26 116.18"/><polygon class="cls-14" points="186.25 47.56 171.04 82.91 193.94 77.81 210.72 74.07 186.25 47.56"/><polygon class="cls-12" points="210.72 74.07 269.36 61.01 270.63 33.87 210.72 74.07"/><polygon class="cls-17" points="187.98 104.22 192.7 102.41 196.65 111.69 187.98 104.22"/><polygon class="cls-18" points="240.28 83.91 248.08 82.42 251.61 104.55 247.1 105.5 240.28 83.91"/><path class="cls-19" d="M261,88.91a3.55,3.55,0,1,1-2.44-4.38A3.54,3.54,0,0,1,261,88.91Z"/><path class="cls-19" d="M237,92.79a3.55,3.55,0,1,1-2.44-4.38A3.56,3.56,0,0,1,237,92.79Z"/><polygon class="cls-17" points="243.94 135.82 239.57 147.67 227.42 155.86 214.43 142.12 243.94 135.82"/><polygon class="cls-20" points="227.42 155.86 209.75 168.84 209.14 146.29 227.42 155.86"/><polygon class="cls-20" points="239.57 147.67 245.49 168.97 227.42 155.86 239.57 147.67"/></g><g id="table_copy_2" data-name="table copy 2"><polygon class="cls-21" points="414.42 264.16 406.55 320.54 389.53 317.08 367.47 233.98 395.35 236.15 414.42 264.16"/><polygon class="cls-22" points="118.68 261.5 132.56 320.63 145.8 318.8 159.6 252.81 125.2 243.76 118.68 261.5"/><polygon class="cls-23" points="235.41 281.54 254.93 339.67 272.91 337.5 274.13 315.52 402.38 298.49 406.55 320.54 424.25 318.75 429.75 229.5 231.31 238.81 235.41 281.54"/><polygon class="cls-21" points="104 227.5 110.25 317 132.56 320.63 133.47 299.37 232.8 314.98 234.62 336.51 254.93 339.67 255.27 253.49 104 227.5"/><polygon class="cls-24" points="233.16 209.26 255.19 261.57 442.5 242.38 444.67 220.33 233.16 209.26"/><polygon class="cls-25" points="225.78 215.71 89.67 215.17 91.67 238.5 255.19 261.57 255.73 237.37 225.78 215.71"/><polygon class="cls-26" points="89.67 215.17 300.11 200.66 444.67 220.33 255.73 237.37 89.67 215.17"/><polygon class="cls-21" points="395.75 259.75 396.33 283.67 282.58 297.92 282.58 271.17 395.75 259.75"/><polygon class="cls-22" points="229 270.83 229.33 297.17 137 282.83 137 256.5 229 270.83"/></g><g id="something_on_the_table_copy_2" data-name="something on the table copy 2"><path class="cls-27" d="M274.5,220.75,320.75,225,266,233.75S223.75,222,223,222s-44.5-.75-44.5-.75L160,210.5l131-9-29.62,11.12Z"/><polygon class="cls-27" points="350.44 214.88 374.25 212.75 396.56 217.88 372.5 223.33 350.44 214.88"/><polygon class="cls-21" points="363.17 199.5 358.33 192.33 375.17 188.83 388.83 193.83 372.67 203 363.17 199.5"/><polygon class="cls-28" points="363.33 204.5 373.67 195.5 388.83 193.83 384.33 217.83 373.5 219.33 363.33 204.5"/><polygon class="cls-29" points="361.5 217.33 358.33 192.33 373.67 195.5 373.5 219.33 361.5 217.33"/><polygon class="cls-30" points="261.38 212.63 320.75 225 268.75 230.5 226 219.25 261.38 212.63"/><polygon class="cls-26" points="304.38 224.81 273.88 228.13 271.75 227.38 297.38 223.88 304.38 224.81"/><polygon class="cls-26" points="280.38 221.13 261.06 225 258.25 224.56 276.31 220.88 280.38 221.13"/><polygon class="cls-26" points="273.38 217.81 266 219.38 263.56 219.13 270.56 217.56 273.38 217.81"/><polyline class="cls-26" points="265.69 216.5 245.19 220.94 242.25 220.69 263.63 216.19 265.94 216.44"/></g><g id="hand_copy_2" data-name="hand copy 2"><polygon class="cls-11" points="253.69 155.71 276.68 183.04 265.04 203.73 252 192.09 253.69 155.71"/><polygon class="cls-31" points="274.93 153.98 286.37 154.51 290.85 202.14 265.04 203.73 268.41 160.1 274.93 153.98"/><polygon class="cls-16" points="274.62 136.55 281.36 132.65 286.37 154.51 268.41 160.1 261.14 145.2 274.62 136.55"/><polygon class="cls-15" points="254.26 133.69 270.89 121.52 281.36 132.65 261.14 145.2 254.26 133.69"/><polygon class="cls-15" points="222.73 205.33 229.78 201.21 242.16 204.8 240.29 216.64 226.19 218.9 222.73 205.33"/><polygon class="cls-16" points="206.5 210.78 214.62 202.53 229.78 201.21 226.19 218.9 211.56 218.23 206.5 210.78"/><polygon class="cls-31" points="214.62 202.53 166.59 185.64 163.53 210.19 211.56 218.23 214.62 202.53"/></g><g id="white_board_copy_2" data-name="white board copy 2"><polygon class="cls-32" points="744.67 77 748 45.13 765 44.5 768.1 62.93 762.17 81.33 744.67 77"/><polygon class="cls-21" points="772.17 80.33 773.13 51 765 44.5 762.17 80.33 772.17 80.33"/><polygon class="cls-30" points="683.17 75.67 667.7 218.35 806.58 233.13 813.44 74.44 683.17 75.67"/><polygon class="cls-33" points="831.5 81 813.44 74.44 806.58 233.13 824.25 230.92 831.5 81"/><polygon class="cls-23" points="661.75 213 802.38 226.77 804.97 236.79 801.62 245.21 785.99 243.59 768.52 248.87 752.35 239.81 717.52 236.04 699.73 247.15 689.75 232.25 661.34 229.78 661.75 213"/><polygon class="cls-21" points="824.42 231 802.38 226.77 801.62 245.21 823.83 244.67 824.42 231"/><polygon class="cls-23" points="674 302 689.65 232.22 709.06 234.38 713.35 257.45 697.25 307.25 674 302"/><polygon class="cls-21" points="712.67 304.83 697.25 307.25 708.96 234.75 723.63 236.62 712.67 304.83"/><polygon class="cls-27" points="720.75 252.25 687.63 241.25 689.65 232.22 723.63 236.62 720.75 252.25"/><polygon class="cls-23" points="753.5 319 752.35 239.81 771.64 241.97 781.03 263 777.39 323.86 753.5 319"/><polygon class="cls-21" points="791.75 320 777.39 323.86 771.64 241.97 785.99 243.59 791.75 320"/><polygon class="cls-27" points="787.59 261.23 752.59 249.98 752.35 239.81 785.99 243.59 787.59 261.23"/><polygon class="cls-34" points="724.9 101.57 730.83 102 731.05 105.24 722.64 107.5 725.12 110.41 734.18 105.77 732.35 99.95 728.36 99.85 731.27 95.64 721.24 96.29 721.67 99.09 727.17 97.69 724.9 101.57"/><polygon class="cls-34" points="746.04 96.07 721.99 121.95 723.18 124 747.87 97.15 746.04 96.07"/><polygon class="cls-34" points="750.03 110.63 737.84 113.75 739.78 116.56 749.49 113.86 740.86 125.4 744.75 127.34 751.97 113.75 750.03 110.63"/><polygon class="cls-34" points="735.77 188.19 729.73 192.61 734.04 194.23 726.82 206.41 733.18 207.92 740.3 188.3 735.77 188.19"/><path class="cls-34" d="M775.88,190.24l-10.57-2.05h-.1l-4.1,11.86,3.13,10.78s9.48-2.15,10-2.48,5.4-9.81,5.4-9.81Zm-7.55,15.09-3.88-5.49,2.91-6.58,4.42.32,2.27,7Z"/><path class="cls-34" d="M747.42,188.94l-7.34,7,.65,11.22,9.06,2.26,9.49-9.38.54-7.65-8.09-5.4Zm5.92,11.33-4.52,5.28L745,203.72l-.75-6.37,6-3.66,2.7,1.4Z"/><path class="cls-34" d="M786.34,192.4c.22-.11,2-3.78,2-3.78l-1.4-3.24-4.1-.75v.11l-1.62,4.53,1.19,4.09S786.12,192.5,786.34,192.4Zm-2.59-5.72,1.73.11.86,2.69-2.16,1.83-1.51-2Z"/><path class="cls-34" d="M795.51,204l-4.1-.76v.11l-1.62,4.53L791,212s3.66-.87,3.88-1,2-3.78,2-3.78Zm-2.91,5.82-1.52-2,1.08-2.59,1.73.21.86,2.59Z"/><polygon class="cls-34" points="793.46 189.05 779.01 209.32 781.38 212.02 796.48 189.27 793.46 189.05"/><polygon class="cls-34" points="693.35 150.26 696.04 150.47 694.32 165.14 691.73 165.03 691.19 166.65 698.09 167.84 698.31 165.57 695.93 165.03 697.77 150.47 700.25 150.47 700.25 148.53 693.56 148.75 693.35 150.26"/><polygon class="cls-34" points="719.55 164.71 719.33 158.67 714.48 155.44 711.68 157.59 710.06 155.44 707.04 157.05 706.93 156.19 705.42 156.4 704.67 164.81 706.93 164.6 707.26 159.21 709.41 157.59 711.25 159.32 709.31 165.78 713.08 166.65 712.87 159.32 714.91 158.13 717.5 160.39 717.29 165.35 719.55 164.71"/><path class="cls-34" d="M742.88,156.32c-.86-4,4.1-7.12,6.15-1.94L756.9,151c-1.61-4.21,3-7.23,6.36-2.7l4.75-1.61-2.81-7.23-10.78,4.64-1.62-4.42-10.24,4.74.76,4.85-4.64,2.16.43,5.28v.11Z"/><path class="cls-34" d="M744.72,156.11a1.74,1.74,0,1,0,3.45,0,1.74,1.74,0,1,0-3.45,0Z"/><path class="cls-34" d="M758.52,150a1.74,1.74,0,1,0,1.72-1.94A1.84,1.84,0,0,0,758.52,150Z"/><polygon class="cls-34" points="788.67 145.5 741.33 166 742.17 168.33 790.17 148.67 788.67 145.5"/></g><g id="teacher_copy_2" data-name="teacher copy 2"><polygon class="cls-35" points="547.69 24.33 520.86 34.21 490.63 13 484.14 46.82 534.46 39.67 547.69 24.33"/><polygon class="cls-9" points="547.69 24.33 546.33 17.91 490.63 13 500.12 37.71 534.46 39.67 547.69 24.33"/><polygon class="cls-9" points="547.13 27.88 562.54 25.66 568.99 46.83 531.64 58.66 526.96 36.86 547.13 27.88"/><polygon class="cls-35" points="514.87 50.32 500.12 37.71 546.33 17.91 562.54 25.66 537.59 42.21 514.87 50.32"/><polygon class="cls-36" points="484.14 46.82 487.32 111.76 510.06 112.21 525.73 126.78 559.88 125.58 568.5 68.76 537.59 42.21 500.12 37.71 484.14 46.82"/><polygon class="cls-37" points="505.23 72.03 503.71 74.96 503.14 80.25 508.41 84.45 512.64 80.37 505.69 66.55 510.58 62.54 503.42 58.62 505.23 72.03"/><polygon class="cls-38" points="488.37 58.78 484.86 61.77 494.86 65.63 502.91 74.11 485.66 76.85 503.14 80.25 508.59 72.93 512.64 80.37 537.35 77.1 515.61 75.03 522.31 66.29 535.64 61.68 527.9 58.57 512.85 58.74 507.83 67.28 503.42 58.62 488.37 58.78"/><polygon class="cls-35" points="512.85 58.74 515.25 53.62 527.9 58.57 512.85 58.74"/><polygon class="cls-35" points="501.12 53.31 503.42 58.62 488.37 58.78 501.12 53.31"/><polygon class="cls-39" points="503.42 58.62 503.14 80.25 512.64 80.37 512.85 58.74 503.42 58.62"/><polygon class="cls-37" points="495.19 88.8 523.99 89.42 515.56 99.17 502 99.17 495.19 88.8"/><polygon class="cls-38" points="546.91 46.86 537.59 42.21 537.24 112.27 511.4 113.59 538.67 137.68 560.15 122.96 568.5 68.76 546.91 46.86"/><polygon class="cls-37" points="537.24 112.27 548.81 113.61 538.67 137.68 519.9 130.09 510.06 112.21 537.24 112.27"/><polygon class="cls-35" points="546.91 46.86 541.32 89.08 548.3 92.48 553.02 66.64 568.5 68.76 568.99 46.83 546.91 46.86"/><polygon class="cls-37" points="556.6 86.88 564.17 97.29 565.79 86.65 556.6 86.88"/><polygon class="cls-37" points="555.53 80.88 557.16 71.96 563.09 72.58 555.53 80.88"/><path class="cls-40" d="M498.43,66.53a3.82,3.82,0,1,1-4.92-2.23,3.81,3.81,0,0,1,4.92,2.23"/><path class="cls-40" d="M524.14,66.43a3.82,3.82,0,1,1-4.92-2.23,3.83,3.83,0,0,1,4.92,2.23"/><polygon class="cls-41" points="500.11 91 518.76 91.34 516.13 95 502.21 94.97 500.11 91"/><polygon class="cls-42" points="482.61 58.59 503.42 58.62 503.39 61.87 486.1 61.9 486.36 73.47 503.18 73.2 503.15 76.85 482.98 76.8 482.61 58.59"/><polygon class="cls-42" points="537.43 58.09 512.85 58.74 512.85 62.22 533.84 61.71 534.01 73.9 512.71 73.4 512.67 76.89 537.35 77.1 537.43 58.09"/><polygon class="cls-31" points="528.76 301.7 545.18 310.62 534.12 315.39 509.87 315.01 509.87 310.62 528.76 301.7"/><polygon class="cls-12" points="558.14 305.27 567.73 315.39 567.73 319.69 534.35 319.69 534.12 315.39 558.14 305.27"/><polygon class="cls-12" points="497.1 133.74 470.94 183.41 506.38 187.91 497.1 133.74"/><polygon class="cls-31" points="470.94 183.41 501.12 215.95 505.03 182.8 470.94 183.41"/><polygon class="cls-35" points="496.09 231.58 535.04 236.83 536.27 247.56 548.24 274.19 544.29 292.86 544.51 298.86 525.85 290.86 496.09 231.58"/><polygon class="cls-9" points="496.09 231.58 535.04 236.83 549.54 247.5 540.85 273.43 514.2 267.63 496.09 231.58"/><polygon class="cls-12" points="525.85 290.86 509.87 310.62 545.18 310.62 544.29 292.86 525.85 290.86"/><polygon class="cls-12" points="581.64 139.09 611.74 183.41 584.01 193.9 577.65 182.8 581.64 139.09"/><polygon class="cls-6" points="518.01 128.56 497.04 149.63 496.09 231.58 537.67 238.64 581.64 232.02 581.27 165.95 581.22 155.28 558.24 129.45 518.01 128.56"/><polygon class="cls-1" points="518.01 128.56 497.04 149.63 505.88 180.98 567.65 184.34 581.64 232.02 581.27 165.95 581.22 155.28 558.24 129.45 518.01 128.56"/><polygon class="cls-12" points="538.53 147.73 544.9 133.6 535.6 138.59 525.52 131.7 532.67 147.73 534.22 178.22 538.53 147.73"/><polygon class="cls-35" points="496.09 231.58 527.62 244.12 542.22 249.93 562.08 247.52 581.64 232.02 496.09 231.58"/><polygon class="cls-9" points="536.27 247.56 544.29 292.86 551.68 301.93 567.73 300.74 581.64 232.02 536.27 247.56"/><polygon class="cls-43" points="536.27 247.56 540.85 273.43 573.58 271.84 581.64 232.02 536.27 247.56"/><polygon class="cls-13" points="567.73 300.74 567.73 315.39 534.12 315.39 544.29 292.86 567.73 300.74"/><polygon class="cls-13" points="522.68 256.44 521.13 194.67 510.79 130.07 497.1 133.74 489.08 252.3 522.68 256.44"/><polygon class="cls-12" points="521.13 194.67 519.06 132.26 518.01 128.56 510.79 130.07 505.88 144.28 513.89 157.2 506.14 172.71 521.13 194.67"/><polygon class="cls-13" points="581.64 139.09 558.24 129.45 553.11 129.34 544.13 259.02 586.77 252.82 581.64 139.09"/><polygon class="cls-13" points="581.64 139.09 558.24 129.45 547.83 197 544.13 259.02 586.77 252.82 581.64 139.09"/><polygon class="cls-12" points="564.35 131.94 558.24 129.45 552.79 133.94 547.83 197 564.72 176.15 555.24 159.96 564.1 155.31 564.35 131.94"/><polygon class="cls-8" points="535.6 138.59 551.62 151.39 564.35 131.94 560.15 122.96 535.6 138.59"/><polygon class="cls-8" points="515.35 121.83 510.79 130.07 519.71 148.03 535.6 138.59 515.35 121.83"/><polygon class="cls-31" points="538.53 147.73 532.67 147.73 524.75 202.17 533.36 210.61 543.35 203.37 538.53 147.73"/><polygon class="cls-13" points="623.78 154.18 584.01 193.9 605.38 211.64 637.94 167.02 634.58 156.94 623.78 154.18"/><polygon class="cls-44" points="642.5 162.03 659.11 153.81 653.17 139.13 642.26 137.69 632.48 149.83 642.5 162.03"/><polygon class="cls-44" points="647.52 125.55 627.95 139.5 644.8 138.59 656.03 133.16 647.52 125.55"/><polygon class="cls-29" points="616.9 142.06 716.5 119.32 716.14 122.58 617.26 148.76 616.9 142.06"/><polygon class="cls-45" points="623.78 154.18 627.95 139.5 645.09 135.61 644.82 141.45 635.92 149.1 642.5 162.03 637.94 167.02 623.78 154.18"/></g><g id="chat_bubble_copy_2" data-name="chat bubble copy 2"><polygon class="cls-8" points="81.33 21.67 20.33 40 7.5 98 91 124.67 147.06 107.88 155.25 79.75 143.25 45.75 81.33 21.67"/><polygon class="cls-8" points="157.75 123.13 151.5 128.5 152.63 136.63 161.5 137.63 167.75 132.75 164.63 126.13 157.75 123.13"/><polygon class="cls-8" points="175.81 125.5 177.25 130.13 184.13 130.69 188.19 125.75 185.44 122.38 179 121.5 175.81 125.5"/></g><g id="scene_in_the_chat_bubble_copy_2" data-name="scene in the chat bubble copy 2"><polygon class="cls-1" points="132.33 78.92 149.56 77.63 136.33 86.33 125.25 83.75 113.88 77 129.08 80 132.33 78.92"/><polygon class="cls-4" points="26.5 106.5 7.44 98.03 38 86.5 60 99.38 82.25 93.25 105.29 102.33 129 95 147.06 107.88 74.5 123.83 26.5 106.5"/><polygon class="cls-1" points="39.38 55.56 22.38 61.38 36.69 65.94 54.38 68.69 67.75 58.69 52.31 63.63 39.38 55.56"/><polygon class="cls-1" points="79.25 96.13 67.76 104.18 60 99.38 73.09 95.53 79.25 96.13"/><polygon class="cls-46" points="81.5 129.5 92.59 109.52 147.06 107.88 141.35 127.67 81.5 129.5"/><polygon class="cls-46" points="66.75 128.5 83.96 110.11 7.44 98.03 28.33 120.46 66.75 128.5"/><polygon class="cls-47" points="28.33 120.46 83.96 110.11 141.35 127.67 50.38 144.25 28.33 120.46"/><polygon class="cls-48" points="96.63 78.38 102.63 80 96.88 98.75 92.39 99.08 83.88 89.13 96.63 78.38"/><polygon class="cls-49" points="91.38 74.75 102.63 80 96.3 80.47 85.71 77.33 91.38 74.75"/><polygon class="cls-15" points="103.02 100.59 105.29 102.33 104.27 106.75 100.33 106.91 99.88 103.33 100.27 101.44 97.24 102.5 96.74 101.06 99.33 98.69 103.02 100.59"/><polygon class="cls-16" points="101.5 95.25 103.88 97.79 105.29 102.33 99.88 103.33 99.33 98.69 101.5 95.25"/><polygon class="cls-50" points="100.64 122.23 82.31 118.94 56.82 122.23 83.56 123.83 100.64 122.23"/><polygon class="cls-11" points="77.98 75.89 67.56 82.81 72.97 88.8 79.38 88.25 77.98 75.89"/><polygon class="cls-11" points="96.3 80.47 102.06 88.54 100.13 93.81 96.02 93.04 90.83 89.75 96.3 80.47"/><polygon class="cls-35" points="73.09 95.53 67.76 104.18 74.31 110.25 75.88 106.92 85.79 103.11 73.09 95.53"/><polygon class="cls-51" points="75.84 106.81 67.76 104.18 69.25 110.87 70.73 112.69 74.19 113.08 75.84 106.81"/><polygon class="cls-12" points="69.25 110.87 67.11 112.69 67.56 116.64 74.12 115.72 74.19 113.08 69.25 110.87"/><polygon class="cls-14" points="67.11 112.69 68.26 115.72 74.12 115.72 74.12 117.33 63.52 117.33 63.52 115.72 67.11 112.69"/><polygon class="cls-52" points="92.39 99.08 92.59 109.52 88.39 113.86 83.96 110.11 80.02 103.95 85.67 99.08 92.39 99.08"/><polygon class="cls-53" points="83.96 110.11 92.59 109.52 92.74 116.98 89.31 117.3 87.71 116.39 83.96 110.11"/><polygon class="cls-53" points="73.09 95.53 80.02 103.95 92.39 99.08 80.38 95.81 73.09 95.53"/><polygon class="cls-12" points="91.05 76.79 96.3 80.47 93.81 85.94 93.94 91.44 92.39 99.08 83.26 102.69 80.02 97.11 81.2 87.8 82.52 74.78 91.05 76.79"/><polygon class="cls-13" points="85.24 78 80.02 97.11 77.08 100.38 73.09 95.53 74.8 88.64 77.75 81.75 77.98 75.89 82.52 74.78 86.08 75.62 85.24 78"/><polygon class="cls-14" points="81.1 48.44 78.75 52.19 80.11 54.41 84.96 49.05 82.42 47.69 81.1 48.44"/><polygon class="cls-15" points="102.01 55.65 94.63 55.44 89.6 65.94 85.24 78 91.05 76.79 94.63 73.44 97.62 67.41 101.79 66.73 102.01 55.65"/><polygon class="cls-13" points="102.82 56.83 104.79 50.84 82.88 40.83 84.5 47.88 96.3 56.67 102.82 56.83"/><path class="cls-11" d="M98.21,57.71c.21-.38-2.34,7.75-2.34,7.75l1.2.85,1.45-2L100.84,66l1,.71,4.79-4.48-4.79-5.86Z"/><polygon class="cls-16" points="98.61 64.23 95.32 68.69 97.77 70.5 101.79 66.73 98.61 64.23"/><polygon class="cls-17" points="95.32 68.69 94.63 73.44 97.77 70.5 95.32 68.69"/><polygon class="cls-16" points="87.32 74.84 82.24 71.15 75.04 67.33 82.22 49.05 90.55 52.39 96.3 56.67 87.32 74.84"/><polygon class="cls-17" points="82.88 62.87 82.58 61.89 83.76 62.51 82.88 62.87"/><polygon class="cls-11" points="93.25 59.3 89.26 55.7 87.34 57.07 93.25 59.3"/><polygon class="cls-11" points="84.95 53.8 81.2 53.8 85.3 56.05 84.95 53.8"/><polygon class="cls-15" points="93.25 59.3 89.19 58.76 83.76 62.51 85.67 58.4 87.34 57.07 93.25 59.3"/><polygon class="cls-15" points="82.95 56.02 82.58 61.89 84.4 59.06 85.3 56.05 81.2 53.8 82.95 56.02"/><polygon class="cls-17" points="86.95 65.89 79.29 62.21 79.62 65.77 83.13 67.63 86.95 65.89"/><polygon class="cls-14" points="104.79 50.84 106.58 62.24 100.65 59.03 96.3 56.67 104.79 50.84"/><polygon class="cls-12" points="96.3 56.67 81.1 48.44 82.88 40.83 96.3 56.67"/><polygon class="cls-41" points="85.3 65.89 80.07 63.38 80.23 64.81 83.46 66.5 85.3 65.89"/><polygon class="cls-17" points="100.22 66.81 99.06 65.94 97.23 68.19 100.22 66.81"/><polygon class="cls-18" points="87.34 57.07 85.3 56.05 82.58 61.89 83.76 62.51 87.34 57.07"/><circle class="cls-54" cx="82.24" cy="56.83" r="1.02"/><path class="cls-19" d="M87.56,59.79a1,1,0,1,0,1-1A1,1,0,0,0,87.56,59.79Z"/><polygon class="cls-17" points="82.24 71.15 82.52 74.78 85.24 78 89.92 75.22 82.24 71.15"/><polygon class="cls-20" points="85.24 78 89.11 82.98 91.05 76.79 85.24 78"/><polygon class="cls-20" points="82.52 74.78 79.2 80.21 85.24 78 82.52 74.78"/><polygon class="cls-12" points="87.71 116.39 85.77 120.62 93.47 120.62 92.74 116.98 87.71 116.39"/><polygon class="cls-14" points="89.12 118.36 93.47 120.62 93.47 122.23 85.77 122.23 85.77 120.62 89.12 118.36"/><polygon class="cls-13" points="61.78 80.5 65.64 89.64 72.97 88.8 65.58 77.31 61.78 80.5"/><polygon class="cls-13" points="99.33 98.69 96.02 93.04 102.06 88.54 103.88 97.79 99.33 98.69"/><polygon class="cls-55" points="67.25 66.28 70.82 70.15 65.58 77.31 61.98 80.31 35.33 112.9 33.85 111.87 43.85 97.88 45.01 89.9 46.58 95.78 59.09 78.97 61.78 75.33 65.23 72.8 67.25 66.28"/><polygon class="cls-56" points="60.84 73.15 57.76 77.47 59.09 78.97 61.78 75.33 60.6 75.38 60.84 73.15"/><polygon class="cls-57" points="65.58 77.31 65.23 72.8 60.84 73.15 60.6 75.38 62.97 75.28 61.78 80.54 65.58 77.31"/><polygon class="cls-21" points="108.08 71.16 108.4 71.9 109.76 71.48 109.76 69.54 111.45 70.26 111.06 71.19 110.34 71.03 110.26 71.58 111.06 72.14 111.93 69.81 109.49 68.9 109.47 70.97 108.38 70.63 108.08 71.16"/><polygon class="cls-21" points="118.38 64.46 119.2 65.44 121.06 64.17 120.17 61.23 123.08 61.54 122.91 63.13 121.75 63.22 121.88 64.1 123.35 64.58 123.6 60.63 119.48 60.38 120.39 63.54 118.58 63.52 118.38 64.46"/><polygon class="cls-21" points="111.3 50.9 112.54 52.38 115.34 50.47 114 46.03 118.38 46.5 118.12 48.9 116.37 49.03 116.57 50.36 118.78 51.08 119.16 45.13 112.95 44.76 114.33 49.52 111.6 49.48 111.3 50.9"/><polygon class="cls-48" points="91.05 76.79 93.94 91.72 94.84 87.67 95.23 85.88 96.3 80.47 91.05 76.79"/><polygon class="cls-48" points="74.8 88.64 82.52 74.78 77.98 75.89 76.52 81.34 74.8 88.64"/><polygon class="cls-1" points="118.13 107.13 129 95 105.29 102.33 118.13 107.13"/><polygon class="cls-58" points="31.63 95.25 38 86.5 7.44 98.03 31.63 95.25"/><polygon class="cls-4" points="22.38 61.38 39.31 52.56 53.63 59.38 67.75 58.69 53.13 65.63 39.38 59.75 22.38 61.38"/><polygon class="cls-4" points="113.88 77 126.13 78.25 137.56 76.88 149.56 77.63 132.25 82.31 113.88 77"/><polygon class="cls-50" points="105.91 126.44 109.52 126.02 112.95 126.99 109.18 127.55 105.91 126.44"/><polygon class="cls-31" points="109.85 123.12 109.95 124.45 110.33 126.97 108.72 126.95 109.85 123.12"/><polygon class="cls-12" points="108.8 121.1 107 121.7 109.16 125.41 111.78 122.09 108.8 121.1"/><polygon class="cls-13" points="109.06 118.47 107 121.7 111.78 122.09 109.06 118.47"/><polygon class="cls-50" points="128.32 117.03 130.83 116.74 133.21 117.41 130.59 117.8 128.32 117.03"/><polygon class="cls-31" points="131.05 114.72 131.12 115.64 131.39 117.4 130.27 117.38 131.05 114.72"/><polygon class="cls-12" points="130.32 113.32 129.08 113.74 131.12 115.64 132.4 114.01 130.32 113.32"/><polygon class="cls-13" points="130.58 112.11 129.08 113.74 132.4 114.01 130.58 112.11"/><polygon class="cls-50" points="49.15 114.7 51.66 114.4 54.04 115.08 51.42 115.47 49.15 114.7"/><polygon class="cls-31" points="51.89 112.39 51.96 113.31 52.22 115.06 51.1 115.05 51.89 112.39"/><polygon class="cls-12" points="51.16 110.99 49.91 111.41 51.52 113.67 53.23 111.67 51.16 110.99"/><polygon class="cls-13" points="51.88 108.83 49.91 111.41 53.23 111.67 51.88 108.83"/><polygon class="cls-50" points="27.82 110.53 30.33 110.24 32.71 110.91 30.09 111.3 27.82 110.53"/><polygon class="cls-31" points="30.55 108.22 30.62 109.14 30.89 110.9 29.77 110.88 30.55 108.22"/><polygon class="cls-12" points="29.82 106.82 28.58 107.24 30.62 109.14 31.9 107.51 29.82 106.82"/><polygon class="cls-13" points="30.5 104.83 28.58 107.24 31.9 107.51 30.5 104.83"/><polygon class="cls-50" points="46.87 131.63 51.08 131.14 55.09 132.27 50.68 132.93 46.87 131.63"/><polygon class="cls-31" points="51.46 127.75 51.58 129.3 52.02 132.25 50.14 132.22 51.46 127.75"/><polygon class="cls-12" points="50.23 125.39 48.14 126.1 51.58 129.3 53.72 126.55 50.23 125.39"/><polygon class="cls-13" points="50.88 121.81 48.14 126.1 53.72 126.55 50.88 121.81"/></g></g></svg>