<svg xmlns="http://www.w3.org/2000/svg" xmlns:xlink="http://www.w3.org/1999/xlink" viewBox="0 0 900 350"><defs><style>.cls-1,.cls-12,.cls-17{fill:none;}.cls-2{isolation:isolate;}.cls-3{fill:#cfcfcd;}.cls-4{fill:#a3a3a3;}.cls-20,.cls-31,.cls-35,.cls-5{fill:#2b2b2b;}.cls-20,.cls-36,.cls-5{opacity:0.1;}.cls-6{fill:#858686;}.cls-7{fill:#dddddc;}.cls-8{fill:#8d7c2f;}.cls-50,.cls-9{fill:#ccae2d;}.cls-10,.cls-47{fill:#fff;}.cls-11{fill:#ac923b;}.cls-12{stroke:#ac923b;}.cls-12,.cls-17{stroke-miterlimit:10;stroke-width:2px;}.cls-13,.cls-40{fill:#b38c2e;}.cls-14,.cls-51{fill:#c4c4c4;}.cls-15{fill:#f2bd67;}.cls-16{fill:#e2a940;}.cls-17{stroke:#c4c4c4;}.cls-18,.cls-42{fill:#9d782c;}.cls-19,.cls-41{fill:#e4c823;}.cls-20{mix-blend-mode:multiply;}.cls-21{fill:#737474;}.cls-22,.cls-52{fill:#ececeb;}.cls-23{fill:#6f7273;}.cls-24{fill:#f4d75c;}.cls-25{fill:#8f8f8f;}.cls-26{fill:#bb8f2d;}.cls-27{clip-path:url(#clip-path);}.cls-28{fill:#755041;}.cls-29{fill:#33231b;}.cls-30{fill:#573a2f;}.cls-32,.cls-48{fill:#474748;}.cls-33{fill:#7f5b4c;}.cls-34,.cls-38{fill:#bd902d;}.cls-35{opacity:0.2;}.cls-36{fill:#010101;}.cls-37,.cls-53{fill:#846528;}.cls-37,.cls-38,.cls-39,.cls-40,.cls-41,.cls-42,.cls-43,.cls-44,.cls-45,.cls-46,.cls-47,.cls-48,.cls-49,.cls-50,.cls-51,.cls-52{fill-rule:evenodd;}.cls-39,.cls-58{fill:#755924;}.cls-43{fill:#dfbda5;}.cls-44{fill:#c2987a;}.cls-45{fill:#8b6651;}.cls-46{fill:#e9cbb7;}.cls-49{fill:#4f5353;}.cls-54{fill:#a77e62;}.cls-55{fill:#bf9c83;}.cls-56{fill:#835941;}.cls-57{fill:#c9ad9c;}</style><clipPath id="clip-path"><polygon class="cls-1" points="418.81 210.4 433.55 210.88 430.31 231.04 415.37 229.58 418.81 210.4"/></clipPath></defs><title>explorers_Entrepreneur_ESTP_workplace_habits</title><g class="cls-2"><g id="illustration_copy" data-name="illustration copy"><g id="walls_copy" data-name="walls copy"><polygon class="cls-3" points="0 0 405.09 55.1 432.05 106.25 405.09 284.58 191.66 310.2 138 302.33 78.83 320.67 66.67 325.09 16.61 331.08 0 0"/><polygon class="cls-4" points="900 0 405.09 55.1 405.09 284.58 883.57 331.08 900 0"/></g><g id="objects_copy" data-name="objects copy"><polygon class="cls-5" points="523.65 308.12 575.82 300.56 559 238.17 523.65 308.12"/><polygon class="cls-4" points="54 97.42 54 326.18 78.83 323.82 78.83 320.67 108.34 306.49 172.5 304.49 176.67 312.17 193.44 309.98 192.4 106.25 54 97.42"/><polygon class="cls-6" points="76.67 116.29 174.51 119.61 176.67 312.17 168 310.24 78.83 320.67 76.67 116.29"/><path class="cls-7" d="M103.3,216.72c0,4.42-3.21,8-7.17,8s-7.17-3.57-7.17-8,3.21-8,7.17-8S103.3,212.31,103.3,216.72Z"/><polygon class="cls-5" points="149.63 83 145 85.83 120.45 85.45 110.75 76.9 110.75 67.96 149.63 83"/><polygon class="cls-8" points="121.9 48.48 132.5 27 124.17 28.45 112.02 38.78 110.75 67.96 122.71 80.83 149.63 83 158.42 78.75 121.9 48.48"/><polygon class="cls-9" points="132.5 27 158.78 29.36 168.93 41.32 168.93 66.69 158.42 78.75 127.33 76.07 116.73 65.97 118.37 36.06 132.5 27"/><polygon class="cls-10" points="136.94 33.34 153.61 37.33 161.58 47.12 161.4 62.34 151.93 70.68 133.18 69.68 126.39 60.84 127.47 41.68 136.94 33.34"/><polygon class="cls-11" points="133.9 36.02 152.62 39.27 159.08 45.82 159.32 61.52 151.93 70.68 156.15 70.9 163.36 61.93 163.36 46.3 154.34 35.43 136.94 33.34 133.9 36.02"/><polyline class="cls-12" points="156.42 55 143.74 54 144.87 43.13"/><line class="cls-12" x1="129.24" y1="52.88" x2="133.9" y2="53.46"/><line class="cls-12" x1="142.83" y1="68.46" x2="143.25" y2="65.1"/><polygon class="cls-4" points="383.86 215.99 395.88 221.63 384.66 259.48 379.12 252.46 373.91 245.84 383.86 215.99"/><polygon class="cls-6" points="477.62 256.13 478.02 263.15 473.48 278.5 461.28 266.23 463.56 260.69 488.17 249.17 477.62 256.13"/><polygon class="cls-5" points="341.99 169.18 265.5 174.21 265.5 170.25 295.06 160.65 341.99 169.18"/><polygon class="cls-10" points="272.73 119.38 346.54 111.04 341.99 169.18 272.09 169.41 272.73 119.38"/><polygon class="cls-9" points="270.16 119.38 343.9 123.25 346.54 111.04 270.16 103.45 270.16 119.38"/><polygon class="cls-13" points="270.16 103.45 265.5 103.15 265.5 120.82 270.16 119.38 270.16 103.45"/><polygon class="cls-4" points="265.5 120.82 265.5 170.25 269.5 169.41 272.73 119.38 270.16 119.38 265.5 120.82"/><polygon class="cls-10" points="270.16 128.37 346.54 131.84 341.99 169.18 269.5 169.41 270.16 128.37"/><polygon class="cls-14" points="300.05 165.54 298.05 165.54 298.05 129.38 300.05 129.86 300.05 165.54"/><polygon class="cls-14" points="325.67 165.54 323.67 165.54 323.67 130.19 325.67 130.92 325.67 165.54"/><polygon class="cls-15" points="270.16 119.38 270.16 128.37 300.05 129.86 303.25 125.87 300.05 120.82 270.16 119.38"/><polygon class="cls-16" points="325.67 122.26 328.11 127.05 325.67 130.92 300.05 129.86 300.05 120.82 325.67 122.26"/><polygon class="cls-15" points="325.67 130.92 349.66 131.84 343.9 123.25 325.67 122.26 325.67 130.92"/><line class="cls-17" x1="277.34" y1="142.32" x2="341.42" y2="144.63"/><line class="cls-17" x1="279.51" y1="156.12" x2="340.06" y2="157.82"/><polygon class="cls-5" points="511.17 131.69 516.92 135.8 598.24 138.59 598.24 76.25 591.67 66.24 531.17 123.33 511.17 131.69"/><polygon class="cls-13" points="580.42 60.74 591.67 66.24 588.17 129.02 580.17 125.66 580.42 60.74"/><polygon class="cls-9" points="502.17 67.99 580.42 60.74 584.17 122.84 505.14 126.84 502.17 67.99"/><polygon class="cls-10" points="512.24 75.54 511.69 121.68 576.67 116.74 572.92 67.99 512.24 75.54"/><polygon class="cls-18" points="505.14 126.84 511.17 131.69 588.17 129.02 584.17 122.84 505.14 126.84"/><polygon class="cls-4" points="516.92 82.74 539.42 80.74 539.42 82.74 516.92 85.49 516.92 82.74"/><polygon class="cls-4" points="521.92 91.24 567.67 87.74 567.67 89.49 521.92 94.41 521.92 91.24"/><polygon class="cls-4" points="521.92 97.24 566.42 94.41 566.42 97.24 520.92 100.99 521.92 97.24"/><polygon class="cls-4" points="520.92 103.49 564.17 100.99 564.17 103.49 520.92 107.24 520.92 103.49"/><polygon class="cls-19" points="564.17 105.87 561.29 109.37 566.42 112.18 570.79 109.37 569.42 105.87 564.17 105.87"/><polygon class="cls-11" points="564.17 109.37 568.17 109.37 569.42 114.99 566.42 112.18 562.79 114.99 564.17 109.37"/><polygon class="cls-20" points="845.33 337.99 883.57 331.08 885.87 289.56 867.83 266.16 868.92 250.37 881.66 234.33 849.79 239.73 822.62 309.99 845.33 337.99"/><polygon class="cls-9" points="806.28 247.66 828.11 255.13 820.33 264.41 806.28 247.66"/><polygon class="cls-21" points="800.99 281.99 814.08 277.01 845.33 276.47 867.35 281.99 844.16 299.16 800.99 281.99"/><polygon class="cls-9" points="855.16 261.41 848.66 287.99 837.72 292.75 826.47 285.2 840.82 264.99 855.16 261.41"/><polygon class="cls-9" points="809.02 265.58 817.19 284.03 820.33 287 820.33 264.41 812.66 261.41 809.02 265.58"/><polygon class="cls-14" points="800.99 281.99 812.87 334.66 845.33 337.99 857.41 296.66 848.66 287.99 800.99 281.99"/><polygon class="cls-4" points="848.66 287.99 845.33 337.99 859.62 332.97 867.35 281.99 848.66 287.99"/><polygon class="cls-19" points="881.66 234.33 843.88 229.33 859.66 245.66 881.66 234.33"/><polygon class="cls-13" points="843.88 229.33 828.11 255.13 845.33 263.87 857.41 266.16 859.66 245.66 843.88 229.33"/><polygon class="cls-13" points="863.14 272.92 855.16 285.91 848.66 287.99 849.79 265.87 855.16 264.41 863.14 272.92"/><polygon class="cls-19" points="820.33 253.33 858.06 260.2 849.69 267.78 820.33 301.94 820.33 253.33"/><polygon class="cls-9" points="849.69 267.78 868.92 250.37 885.87 289.56 849.69 267.78"/><polygon class="cls-19" points="820.33 264.41 806.28 247.66 779.33 268.66 820.33 264.41"/><polygon class="cls-10" points="702.33 98.33 812.5 90.25 853.45 91 853.45 199.04 703.88 195.94 702.33 98.33"/><polygon class="cls-14" points="736.01 141.75 746.82 149.5 744.08 196.58 735.92 197.42 731.28 170.35 736.01 141.75"/><polygon class="cls-22" points="710.25 142.25 736.01 141.75 739.33 196.54 707 196.58 710.25 142.25"/><polygon class="cls-14" points="847 141.67 862.77 147.46 862.77 199.04 843.88 200.5 840.81 162.9 847 141.67"/><polygon class="cls-22" points="806.05 143.52 847 141.67 847 199.04 810.3 199.04 806.05 143.52"/><polygon class="cls-14" points="800.5 119.75 813.52 127.29 815.82 198.5 801.51 201.5 791.33 169.16 800.5 119.75"/><polygon class="cls-22" points="746.82 122.67 800.5 119.75 801.51 199.04 742.35 196.54 746.82 122.67"/><polygon class="cls-14" points="820.06 152.7 828.09 152.33 828.09 157.77 820.06 158.13 820.06 152.7"/><polygon class="cls-14" points="830.31 152.23 838.35 151.87 838.35 157.3 830.31 157.67 830.31 152.23"/><polygon class="cls-14" points="820.06 160.36 828.09 159.99 828.09 165.43 820.06 165.8 820.06 160.36"/><polygon class="cls-14" points="830.31 159.89 838.35 159.53 838.35 164.96 830.31 165.33 830.31 159.89"/><polygon class="cls-14" points="712.81 147.22 720.94 147.19 720.92 152.56 712.8 152.59 712.81 147.22"/><polygon class="cls-14" points="723.18 147.18 731.31 147.15 731.29 152.53 723.17 152.56 723.18 147.18"/><polygon class="cls-14" points="712.79 154.79 720.92 154.76 720.9 160.14 712.78 160.17 712.79 154.79"/><polygon class="cls-14" points="723.16 154.76 731.28 154.73 731.27 160.1 723.14 160.13 723.16 154.76"/><polygon class="cls-14" points="752 130.45 760.03 130.08 760.03 135.52 752 135.88 752 130.45"/><polygon class="cls-14" points="762.25 129.98 770.28 129.62 770.28 135.05 762.25 135.42 762.25 129.98"/><polygon class="cls-14" points="752 138.11 760.03 137.74 760.03 143.18 752 143.55 752 138.11"/><polygon class="cls-14" points="762.25 137.64 770.28 137.28 770.28 142.71 762.25 143.08 762.25 137.64"/><polygon class="cls-14" points="774.5 129.75 782.53 129.39 782.53 134.82 774.5 135.19 774.5 129.75"/><polygon class="cls-14" points="784.75 129.29 792.78 128.92 792.78 134.36 784.75 134.72 784.75 129.29"/><polygon class="cls-14" points="774.5 137.41 782.53 137.05 782.53 142.48 774.5 142.85 774.5 137.41"/><polygon class="cls-14" points="784.75 136.95 792.78 136.58 792.78 142.02 784.75 142.38 784.75 136.95"/><polygon class="cls-14" points="752 148.98 760.03 148.62 760.03 154.06 752 154.42 752 148.98"/><polygon class="cls-14" points="762.25 148.52 770.28 148.15 770.28 153.59 762.25 153.95 762.25 148.52"/><polygon class="cls-14" points="752 156.64 760.03 156.28 760.03 161.72 752 162.08 752 156.64"/><polygon class="cls-14" points="762.25 156.18 770.28 155.81 770.28 161.25 762.25 161.61 762.25 156.18"/><polygon class="cls-14" points="774.5 148.29 782.53 147.92 782.53 153.36 774.5 153.72 774.5 148.29"/><polygon class="cls-14" points="784.75 147.82 792.78 147.46 792.78 152.89 784.75 153.26 784.75 147.82"/><polygon class="cls-14" points="774.5 155.95 782.53 155.58 782.53 161.02 774.5 161.38 774.5 155.95"/><polygon class="cls-14" points="784.75 155.48 792.78 155.12 792.78 160.55 784.75 160.92 784.75 155.48"/><path class="cls-6" d="M680.36,78.33V211.94L874.5,220.5V63ZM853.45,199l-149.57-3.1v-95.4L853.45,91Z"/><polygon class="cls-23" points="700.5 94.88 853.45 85.67 853.45 95 711.33 104.33 708.73 196.04 699 195.75 700.5 94.88"/><polygon class="cls-5" points="645.33 319.37 681.29 322.1 695.97 312.85 665.54 156.5 644.92 160.82 628.8 247.81 645.33 319.37"/><polygon class="cls-14" points="585 246.78 643.5 250.02 652.55 285.86 645.33 319.37 568.37 311.33 585 246.78"/><polygon class="cls-21" points="645.33 319.37 675.42 310.86 663.81 244.21 643.5 250.02 645.33 319.37"/><polygon class="cls-7" points="585 246.78 605.76 241.49 663.81 244.21 643.5 250.02 585 246.78"/><polygon class="cls-5" points="630.13 247.4 654.83 246.78 663.81 244.21 641.8 243.09 630.13 247.4"/><polygon class="cls-8" points="617.15 242.61 629.91 238.77 642.05 240.02 641.64 244.97 630.13 247.4 617.15 242.61"/><polygon class="cls-19" points="638.25 233.79 652.04 143.17 603.87 148.82 591.33 155.14 588.97 179.32 595.09 184.42 600.18 199 591.92 203.29 590 228.43 610.8 239.55 629.91 240.98 638.25 233.79"/><polygon class="cls-11" points="629.91 238.77 630.13 247.4 612.13 244.95 610.8 239.55 629.91 238.77"/><polygon class="cls-9" points="590 228.43 632.05 230.84 642.38 233.79 629.91 240.98 610.8 239.55 590 228.43"/><polygon class="cls-11" points="632.05 230.84 629.91 240.98 642.05 240.02 665.98 226.6 632.05 230.84"/><polygon class="cls-9" points="660.38 199 658.9 184.42 665.54 175.97 665.54 153.94 652.04 143.17 629.91 152.1 630.13 176.37 635.89 182.34 635.89 199 632.05 204.91 632.05 230.84 665.98 226.6 667.09 204.91 660.38 199"/><polygon class="cls-11" points="632.05 204.91 667.09 204.91 660.38 199 635.89 199 632.05 204.91"/><polygon class="cls-11" points="630.13 176.37 665.54 175.97 658.9 184.42 635.89 182.34 630.13 176.37"/><polygon class="cls-11" points="629.91 152.1 665.54 153.94 652.04 143.17 629.91 152.1"/><polygon class="cls-9" points="588.97 179.32 595.09 184.42 635.89 182.34 630.13 176.37 588.97 179.32"/><polygon class="cls-9" points="591.92 203.29 632.05 204.91 635.89 199 600.18 197.94 591.92 203.29"/><polygon class="cls-24" points="606.5 145.44 652.04 143.17 629.91 152.1 591.33 155.14 606.5 145.44"/><polygon class="cls-6" points="595 266.8 631.09 270 632.83 306.67 598 300.14 595 266.8"/><polygon class="cls-9" points="607.88 268 607.88 277.31 611.06 277.63 613.51 268.44 607.88 268"/><polygon class="cls-9" points="624.06 269.38 621.36 277.88 618.25 277.88 618.78 268.91 624.06 269.38"/><polygon class="cls-19" points="617 264.54 616.2 273.15 621.36 273.5 621.36 264.79 617 264.54"/><polygon class="cls-19" points="607.35 263.84 605.76 272.26 610.85 272.69 611.59 264.25 607.35 263.84"/><polygon class="cls-4" points="589.46 302.42 595 297.75 598 300.14 632.64 302.53 632.83 306.67 589.46 302.42"/><polygon class="cls-25" points="598.24 267.09 598 300.14 589.46 302.42 595 266.8 598.24 267.09"/><polygon class="cls-7" points="559 238.17 518.24 250.56 392.83 240.62 398.66 230.72 559 238.17"/><polygon class="cls-25" points="559 238.17 559 251 518.24 264.21 518.24 246.78 559 238.17"/><polygon class="cls-25" points="523.65 308.12 510.52 306.67 421.68 291.9 378.47 293.28 363.48 291.38 386.23 246.39 518.24 264.21 523.65 283.78 523.65 308.12"/><polygon class="cls-4" points="518.24 264.21 383 248.29 392.1 234.35 518.24 246.78 518.24 264.21"/><polygon class="cls-21" points="518.24 264.21 523.65 308.12 556.7 299.32 559 251 518.24 264.21"/><polygon class="cls-5" points="546.19 237.63 538.15 188.5 526.18 213.66 527.25 234.72 531.42 234.72 526.55 242.41 539 241.17 546.19 237.63"/><polyline class="cls-21" points="408.87 259.48 506.97 270.36 512.08 306.67 488.03 304.26 458.56 295.44 433.28 298.77 378.7 292.39 388.02 257.16 408.87 259.48"/><polygon class="cls-5" points="443.86 232.93 439.33 205.78 437.24 215.05 435.8 226.72 433.13 235.16 438.85 234.37 440.06 234.02 441.1 233.95 443.86 232.93"/><polygon class="cls-18" points="434.53 212.51 437.5 212.51 438.85 234.37 432.35 234.01 434.53 212.51"/><polygon class="cls-16" points="417.04 206.26 437.19 207.28 433.13 235.16 411.43 233.41 417.04 206.26"/><polygon class="cls-22" points="418.81 210.4 433.55 210.88 430.31 231.04 415.37 229.58 418.81 210.4"/><polygon class="cls-15" points="417.04 206.26 420.33 205.25 439.33 205.78 437.19 207.28 417.04 206.26"/><polygon class="cls-26" points="439.33 205.78 435.61 234.2 433.13 235.16 437.19 207.28 439.33 205.78"/><g class="cls-27"><polygon class="cls-28" points="419.36 224.59 419.18 219.89 416.96 220.72 415.6 224.59 419.36 224.59"/><polygon class="cls-29" points="419.31 224.44 417.92 226.82 416.81 226.96 416.22 224.51 419.31 224.44"/><polygon class="cls-30" points="420.44 221.55 420.6 224.19 419.26 226.82 417.92 226.82 418.43 224.59 420.44 221.55"/><polygon class="cls-30" points="429.15 228.01 425.94 229.4 425.63 226.81 425.97 225.88 426.01 218.59 428.66 215.64 429.75 215.13 430.39 216.81 430.84 223.18 429.15 228.01"/><polygon class="cls-29" points="425.94 229.4 428.01 226.53 425.94 225.99 423.57 225.38 425.94 229.4"/><polygon class="cls-28" points="425.94 225.99 428.66 215.64 423.56 215.64 422.02 213.42 419.85 224.59 425.94 225.99"/><polygon class="cls-28" points="431.64 220.91 430.61 219.89 429.62 222.55 430.84 223.18 431.64 220.91"/><polygon class="cls-31" points="430.1 221.27 429.25 220.74 430.39 216.81 431.38 216.91 432.56 218.27 431.64 220.91 430.61 219.89 430.1 221.27"/><polygon class="cls-32" points="428.66 215.64 432.56 218.27 431.17 213.79 428.39 213.14 427.14 213.54 427.08 214.77 428.66 215.64"/><polygon class="cls-31" points="427.14 213.54 424.75 211.7 422.96 211.57 422.77 213.39 423.56 215.64 428.66 215.64 427.14 213.54"/><polygon class="cls-32" points="421.29 211.95 422.13 211.24 422.96 211.57 423.56 215.64 422.21 213.79 421.29 211.95"/><polygon class="cls-32" points="427.14 213.54 426.13 211.57 424.81 210.47 423.28 208.94 422.96 211.57 427.14 213.54"/><polygon class="cls-23" points="431.17 213.79 424.81 210.47 427.14 213.54 431.17 213.79"/><polygon class="cls-29" points="430.95 221.86 430.68 220.71 431.19 221.12 430.95 221.86"/><polygon class="cls-29" points="429.62 222.55 430.35 224.59 430.84 223.18 429.62 222.55"/><polygon class="cls-31" points="426.2 218.34 424.39 217.82 424.78 217.23 426.2 218.34"/><polygon class="cls-31" points="423.09 216.88 423.23 217.58 421.85 217.4 423.09 216.88"/><polygon class="cls-33" points="424.04 218.28 423.21 218.03 422.67 220.42 423.29 220.54 424.04 218.28"/><polygon class="cls-29" points="422.67 220.42 422.81 220.96 423.29 220.54 422.67 220.42"/><polygon class="cls-30" points="423.23 217.58 423.21 218.03 422.67 220.42 421.85 217.4 423.23 217.58"/><polygon class="cls-30" points="424.39 217.82 424.04 218.28 423.29 220.54 424.88 219.22 426.2 218.34 424.39 217.82"/><polygon class="cls-29" points="424.45 222.08 421.99 221.55 421.85 222.9 423.81 223.3 424.45 222.08"/><path class="cls-31" d="M424.57,219.1a.35.35,0,0,0,.34.4.41.41,0,0,0,.39-.4.37.37,0,0,0-.35-.4A.4.4,0,0,0,424.57,219.1Z"/><path class="cls-31" d="M421.9,218.6a.37.37,0,0,0,.35.4.4.4,0,0,0,.38-.4.36.36,0,0,0-.35-.4A.4.4,0,0,0,421.9,218.6Z"/><polygon class="cls-10" points="424.21 222.23 424.09 222.42 422.2 222.05 422.12 221.73 424.21 222.23"/><polygon class="cls-23" points="423.28 208.94 421.29 211.95 422.96 211.57 423.28 208.94"/><polygon class="cls-19" points="424.5 226.96 422.23 227.39 420.01 230.04 430.31 231.04 430.67 228.75 429.31 227.57 425.94 229.4 424.5 226.96"/><polygon class="cls-19" points="419.26 226.82 420.45 230.08 417.24 229.77 417.15 226.82 419.26 226.82"/><polygon class="cls-34" points="422.23 227.39 422.21 230.25 420.45 230.08 420.06 229 422.23 227.39"/><polygon class="cls-34" points="425.94 229.4 423.51 229.84 424.5 226.96 425.94 229.4"/><polygon class="cls-34" points="429.31 227.57 428.53 230.43 425.94 229.4 429.31 227.57"/></g><path class="cls-26" d="M438.42,212.74c-.34.51-.61,2-1.18,2.31l1.61,19.32,2.25-.42Z"/><polygon class="cls-11" points="522.88 228.25 518.4 232.25 516.84 240.02 526.55 242.41 534.75 240.65 531.89 231.27 527.81 228.71 522.88 228.25"/><polygon class="cls-9" points="525.34 232.25 527.81 228.71 527.81 220.85 525.34 223.25 524.55 225.35 525.34 232.25"/><polyline class="cls-18" points="513.67 188.5 521.77 197.59 538.15 188.5 525.21 186.93"/><polygon class="cls-11" points="521.41 195.01 523.63 216.18 525.34 223.25 533.06 215.75 538.15 188.5 521.41 195.01"/><polyline class="cls-9" points="513.67 188.5 516.97 214.05 525.34 223.25 521.41 195.01 513.67 188.5"/><polygon class="cls-11" points="525.34 223.25 525.34 232.25 522.88 228.25 521.95 219.53 525.34 223.25"/><polygon class="cls-9" points="518.07 231.27 525.34 232.25 526.55 242.41 515.92 241.83 518.07 231.27"/><polygon class="cls-19" points="522.88 228.25 525.34 232.25 518.07 231.27 522.88 228.25"/><polygon class="cls-35" points="168 310.24 166 125.01 76.67 122.47 76.67 116.29 174.51 119.61 176.67 312.17 168 310.24"/><polygon class="cls-5" points="684.78 321.77 714.24 314.63 696.92 292.56 684.78 321.77"/><path class="cls-26" d="M700,300.56a18.75,18.75,0,0,0-3.07-8l-11.59,10.63-21.52,7.2a18.92,18.92,0,0,0,6.74,8.35l19.78-6.44Z"/><path class="cls-16" d="M688.34,285.66a18.88,18.88,0,0,0-25.14,12.06L681.29,293Z"/><path class="cls-15" d="M662.42,302.53l.77-4.78A18.88,18.88,0,0,0,662.42,302.53Z"/><path class="cls-15" d="M663.19,297.72v0a0,0,0,0,1,0,0Z"/><path class="cls-15" d="M696.92,292.56a19,19,0,0,0-8.58-6.9L681.29,293l-18.09,4.72a0,0,0,0,0,0,0l-.77,4.78c0,.22,0,.44,0,.66a19,19,0,0,0,1.43,7.2l21.52-7.2Z"/><path class="cls-18" d="M700.2,303.19a19,19,0,0,0-.21-2.63l-9.66,11.74-19.78,6.44a18.89,18.89,0,0,0,29.65-15.55Z"/></g><g id="characters_copy" data-name="characters copy"><polygon class="cls-36" points="503.88 342.33 457.83 333.85 405.27 335.35 347.43 328.19 287.55 335.33 347.83 343.28 386.67 340.48 450 349.52 503.88 342.33"/><polygon class="cls-37" points="405 207.89 384.18 243.72 400.23 249.17 415.79 236.71 405 207.89"/><polygon class="cls-37" points="328.52 190.95 315.67 217.13 312.47 232.59 324.72 241.03 330.12 236.71 333.6 233.26 332.37 208.5 328.52 190.95"/><polygon class="cls-38" points="315.67 217.13 300.05 211.44 295.37 218.93 295.05 229.33 324.72 241.03 315.67 217.13"/><polygon class="cls-37" points="330.79 269.16 327.4 295.44 335.82 309.05 351.07 306.5 365.95 282.11 330.79 269.16"/><polygon class="cls-39" points="351.07 306.5 327.4 295.44 324.85 315.22 332.66 322.65 341.79 321.72 351.07 306.5"/><polygon class="cls-40" points="324.4 317.14 318.27 320.95 307.77 330.09 326.87 331.51 341.07 330.09 341.79 321.72 328.52 313.92 324.4 317.14"/><polygon class="cls-41" points="329.17 316.87 322.74 322.65 318.27 320.95 324.85 315.22 327.4 313.92 329.17 316.87"/><polygon class="cls-38" points="353.11 287.29 357.37 302.06 370.78 309.05 384.18 305.44 391.83 270.19 363.56 278.48 353.11 287.29"/><polygon class="cls-37" points="384.18 305.44 357.37 302.06 362.92 321.3 371.82 325.79 380.38 324.52 384.18 305.44"/><polygon class="cls-40" points="362.92 321.3 357.37 334.26 371 336.17 382.04 334.26 380.38 324.52 374.5 320.75 371.58 319.99 368.72 319.99 362.92 321.3"/><rect class="cls-19" x="357.37" y="334.26" width="24.68" height="3.83"/><polygon class="cls-41" points="374.5 323.36 373.64 329.51 366.54 329.51 368.88 322.36 371.58 321.72 374.5 323.36"/><rect class="cls-19" x="307.75" y="330.02" width="33.32" height="3.83"/><polygon class="cls-42" points="330.79 269.16 353.11 287.29 391.83 270.19 364.98 266.47 352.18 258.56 344.33 264.46 330.79 269.16"/><polygon class="cls-41" points="334.81 195.01 344.33 190.78 350.87 199.75 356.12 212.32 373.46 206.42 390.61 202.65 398.08 208.81 392.77 240.98 390.61 252 391.83 270.19 359.31 275.74 352.18 259.48 344.33 275.74 330.79 269.16 333.48 246.51 330.12 236.71 330.03 232.31 334.81 195.01"/><polygon class="cls-39" points="395.77 188.37 389.3 181.6 388.31 187.8 384.39 194.34 395.77 188.37"/><polygon class="cls-39" points="351.22 174.06 338.38 180.8 344.33 190.78 356.12 212.32 355.49 190.42 351.22 174.06"/><polygon class="cls-38" points="393.02 239.45 390.61 202.65 405 207.89 393.02 239.45"/><polygon class="cls-38" points="328.52 190.95 330.12 236.71 344.33 190.78 328.52 190.95"/><rect class="cls-34" x="371.92" y="216.5" width="3.44" height="24.95" transform="translate(88.78 561.98) rotate(-80.96)"/><polygon class="cls-43" points="395.24 120.54 358 116.62 346.54 111.04 334.03 168.78 351.22 174.06 353.57 181.51 355.98 186.41 371.72 195.01 384.69 186.83 404.38 164.36 412.28 152.04 414.49 139.4 395.24 120.54"/><polygon class="cls-44" points="390.98 120.09 373.36 180.51 351.22 174.06 353.25 181.8 353.06 189.43 356.12 212.32 375.99 200.87 388 189.89 399.43 172.07 399.84 167.02 404.38 164.36 394.64 157.05 402.93 145.26 412.28 152.04 418.16 143 400.26 125.46 395.24 120.54 390.98 120.09"/><polygon class="cls-44" points="355.52 149.4 366.32 134.02 380.01 129.58 364.33 124.76 360.31 129.64 354.6 139.92 355.52 149.4"/><polygon class="cls-44" points="354.44 128.23 353.81 123.25 344.52 120.39 351.81 143.3 354.44 128.23"/><polygon class="cls-45" points="394.64 157.05 404.38 164.36 399.43 172.07 394.64 157.05"/><polygon class="cls-45" points="358.26 138.1 376.09 153.02 383.44 145.95 386.58 145.83 388.02 143.69 380.01 139.86 358.26 138.1"/><polygon class="cls-45" points="352.32 136.98 340.06 140.98 340.58 138.57 342.97 134.28 352.32 136.98"/><polygon class="cls-37" points="399.21 127.03 381.09 154.01 390.55 162.86 402.93 145.26 412.28 152.04 418.16 143 408.71 131.56 399.21 127.03"/><polygon class="cls-46" points="354.44 128.23 360.31 129.64 355.52 149.4 349.66 147.98 354.44 128.23"/><polygon class="cls-45" points="399.68 156.09 403.48 149.53 409.1 153.41 399.68 156.09"/><polygon class="cls-37" points="380.01 129.58 369.16 122.19 364.33 124.76 380.01 129.58"/><polygon class="cls-37" points="353.81 123.25 349.17 118.39 344.52 120.39 353.81 123.25"/><polygon class="cls-45" points="346.19 152.55 365.69 157.27 362.4 162.85 346.43 159.01 346.19 152.55"/><polygon class="cls-47" points="347.58 154.51 362.88 158.2 362.22 159.76 347.82 156.35 347.58 154.51"/><polygon class="cls-45" points="349.66 147.98 352.18 152.16 355.52 149.4 349.66 147.98"/><polygon class="cls-39" points="386.58 145.83 401.89 146.74 402.93 145.26 394.75 143 387.98 143.75 386.58 145.83"/><polygon class="cls-45" points="351.22 174.06 380.17 182.5 353.06 189.43 351.22 174.06"/><polygon class="cls-38" points="358 93.7 412.28 107.27 422.18 123.85 388 111.04 358 93.7"/><polygon class="cls-42" points="390.98 120.09 418.16 143 422.18 123.85 397.86 111.94 390.98 120.09"/><polygon class="cls-37" points="390.98 120.09 397.86 111.94 358 93.7 356.73 105.42 358 116.62 390.98 120.09"/><polygon class="cls-34" points="358 93.7 358 116.62 346.54 111.04 331.92 87.42 358 93.7"/><polygon class="cls-48" points="382.13 134.86 411.52 141.94 412.28 152.04 402.93 145.26 380.01 142.85 380.28 138.4 382.13 134.86"/><polygon class="cls-48" points="354.44 128.23 360.31 129.64 360.62 132.13 359.07 134.76 353.22 133.29 352.58 131.15 354.44 128.23"/><path class="cls-49" d="M354.44,128.23,352.33,137l-20,2.7,3.31-16.88Zm5.87,1.41,21.82,5.22-4.23,16L358.26,138.1Z"/><polygon class="cls-38" points="371 195.45 395.77 188.37 390.61 202.65 356.12 212.32 371 195.45"/><polygon class="cls-50" points="390.61 252 355.98 236.71 352.18 236.71 330.35 247.93 352.18 258.56 390.61 252"/><polygon class="cls-38" points="356.12 212.32 355.98 236.71 352.18 259.48 352.18 236.71 356.12 212.32"/><polygon class="cls-38" points="415.79 236.71 370.25 243 377.02 258.1 408.87 259.48 415.79 236.71"/><polygon class="cls-42" points="382.69 312.95 360.48 312.85 362.92 321.3 380.39 324.52 382.69 312.95"/><polygon class="cls-50" points="374.49 323.44 374.49 317.14 368.51 316.54 368.87 322.4 374.49 323.44"/><polygon class="cls-42" points="346.2 314.5 326.17 305.05 324.85 315.22 341.79 321.72 346.2 314.5"/><polygon class="cls-50" points="329.17 316.87 330.35 310.48 325.65 309.05 324.85 315.22 329.17 316.87"/><polygon class="cls-44" points="300.05 211.44 289.59 207.88 285.18 215.34 282.22 226.34 295.05 229.33 300.05 211.44"/><polygon class="cls-43" points="300.05 211.44 292.05 197.95 287.64 198.09 290.33 214.52 297.73 219.75 300.05 211.44"/><polygon class="cls-43" points="274.95 204.68 273.3 217.16 282.22 226.34 289.59 207.88 274.95 204.68"/><polygon class="cls-43" points="370.25 243 359.01 238.05 352.18 243.88 352.18 259.48 377.02 258.1 370.25 243"/><polygon class="cls-51" points="352.18 265.84 360.48 259.02 355 248.76 359.01 238.05 352.18 236.71 349.29 255.88 352.18 265.84"/><polygon class="cls-44" points="359.01 238.05 360.48 259.02 352.18 259.48 352.18 243.88 359.01 238.05"/><polygon class="cls-52" points="330.79 269.16 352.18 269.16 352.18 236.71 330.12 236.71 330.79 269.16"/><polygon class="cls-23" points="251.64 75 249.47 85.17 252.96 90.87 263.87 93.19 251.64 75"/><polygon class="cls-28" points="273.46 239.36 282.81 256.13 279.3 263.82 274.04 267.54 260.9 258.83 256.57 239.09 273.46 239.36"/><polygon class="cls-30" points="273.46 239.36 260.12 249.69 257.76 244.53 259.52 242.67 273.46 239.36"/><polygon class="cls-23" points="260.9 258.83 248.17 277.39 229.86 282.6 212.26 280.36 191.84 261.18 242.9 252.48 260.9 258.83"/><polygon class="cls-36" points="169.91 338.09 222.44 329.6 288.88 335.33 227.83 344.33 169.91 338.09"/><polygon class="cls-19" points="237.88 183.99 255.81 199.12 260.9 258.83 191.84 261.18 189.8 205.03 206.99 190.06 227.83 198.43 237.88 183.99"/><polygon class="cls-6" points="225.81 302.58 240.72 312.58 255.81 293.68 260.9 258.83 229.86 282.6 223.44 287.92 224.73 296.27 225.81 302.58"/><polygon class="cls-23" points="225.81 302.58 255.81 293.68 251.97 316.57 244.7 324.25 229.86 326.18 225.81 302.58"/><polygon class="cls-30" points="206.99 190.06 227.83 198.43 230.64 182.81 228.71 177.21 230.64 133.2 214.02 115.43 206.99 112.37 202.25 122.47 197.32 160.94 206.99 190.06"/><polygon class="cls-29" points="227.83 198.43 215.02 181.1 228.87 177.88 244.69 174.21 227.83 198.43"/><polygon class="cls-28" points="228.87 177.88 214.02 115.43 247.75 115.43 258.59 102.02 269.5 169.41 228.87 177.88"/><polygon class="cls-28" points="192.77 147.23 199.88 141.06 205.59 157.09 197.32 160.94 192.77 147.23"/><polygon class="cls-31" points="202.84 149.37 208.56 146.18 202.25 122.47 195.67 123.08 187.48 131.3 192.77 147.23 199.88 141.06 202.84 149.37"/><polygon class="cls-32" points="214.02 115.43 187.48 131.3 192.4 106.25 216.57 100.33 224.73 102.78 224.73 110.17 214.02 115.43"/><polygon class="cls-31" points="224.73 102.78 241.06 91.67 252.96 90.87 253.62 101.83 247.75 115.43 214.02 115.43 224.73 102.78"/><polygon class="cls-32" points="263.87 93.19 258.57 88.89 252.96 90.87 247.75 115.43 257.26 104.24 263.87 93.19"/><polygon class="cls-32" points="224.73 102.78 232 90.87 241.06 84.26 251.64 75 252.96 90.87 224.73 102.78"/><polygon class="cls-23" points="192.4 106.25 241.06 84.26 224.73 102.78 192.4 106.25"/><polygon class="cls-29" points="196.99 152.96 199.18 146.02 195.67 148.5 196.99 152.96"/><polygon class="cls-29" points="205.59 157.09 200.14 169.41 197.32 160.94 205.59 157.09"/><polygon class="cls-31" points="229.48 131.72 241.56 128.59 239.22 125.01 229.48 131.72"/><polygon class="cls-31" points="250.44 122.89 249.32 127.13 258.5 126.02 250.44 122.89"/><polygon class="cls-33" points="243.75 131.35 249.32 129.86 252.16 144.25 248.02 144.99 243.75 131.35"/><polygon class="cls-29" points="252.16 144.25 251.1 147.55 248.02 144.99 252.16 144.25"/><polygon class="cls-30" points="249.32 127.13 249.32 129.86 252.16 144.25 258.5 126.02 249.32 127.13"/><polygon class="cls-30" points="241.56 128.59 243.75 131.35 248.02 144.99 237.96 137.05 229.48 131.72 241.56 128.59"/><polygon class="cls-29" points="239.9 154.31 256.31 151.08 256.84 156.17 241.79 159.24 239.9 154.31"/><polygon class="cls-22" points="206.99 190.06 211.62 208.18 227.83 198.43 206.99 190.06"/><polygon class="cls-22" points="237.88 183.99 242.05 205.03 227.83 198.43 237.88 183.99"/><polygon class="cls-34" points="193.73 242.67 206.99 190.06 189.8 205.03 193.73 242.67"/><polygon class="cls-34" points="263.87 205.03 273.46 239.36 259.52 242.67 260.9 211.67 263.87 205.03"/><polygon class="cls-53" points="259.52 242.67 263.87 205.03 255.81 199.12 259.52 242.67"/><polygon class="cls-53" points="189.8 205.03 175.91 242.67 193.73 242.67 189.8 205.03"/><polygon class="cls-30" points="191.84 261.18 175.91 242.67 215.02 237.79 218.45 245.5 215.02 254.9 191.84 261.18"/><polygon class="cls-30" points="221.98 227.29 215.02 237.79 222.91 234.58 221.98 227.29"/><polygon class="cls-22" points="246.35 223.85 242.05 259.51 226.18 260.08 221.54 223.85 246.35 223.85"/><polygon class="cls-5" points="238.27 250.65 225.61 255.66 225.14 251.97 227.83 249 238.27 250.65"/><polygon class="cls-25" points="192.83 291.27 208.71 310.24 222.44 302.39 229.86 282.6 191.84 261.18 192.83 291.27"/><polygon class="cls-23" points="192.83 291.27 222.44 302.39 213.86 327.12 202.82 328.13 193.73 318.81 192.83 291.27"/><polygon class="cls-28" points="300.33 258.83 300.33 262.5 291.11 266.23 279.53 265.07 285.02 260.08 300.33 258.83"/><polygon class="cls-30" points="276.77 269.35 283.59 277.39 291.66 266 279.3 263.82 276.77 269.35"/><polygon class="cls-28" points="295.99 280.36 283.59 277.39 291.66 266 295.99 264.26 301.32 272.04 295.99 280.36"/><polygon class="cls-28" points="229.86 231.75 231.82 241.97 229.86 250.6 215.02 254.9 215.02 237.79 229.86 231.75"/><path class="cls-31" d="M240,136.34a2.42,2.42,0,1,1-2.41-2.42A2.41,2.41,0,0,1,240,136.34Z"/><circle class="cls-31" cx="255.39" cy="133.29" r="2.41"/><polygon class="cls-10" points="241.43 155.16 242.18 156.34 254.76 154.09 255.39 152.17 241.43 155.16"/><polygon class="cls-30" points="229.86 231.75 242.82 236.5 238.27 250.65 229.86 250.6 229.86 231.75"/><polygon class="cls-34" points="285.02 260.08 276.77 269.35 274.04 267.54 282.81 256.13 285.02 260.08"/><polygon class="cls-23" points="266.49 334.33 229.86 334.33 229.86 329.36 252.07 326.24 266.49 329.36 266.49 334.33"/><polygon class="cls-25" points="266.49 329.36 251.97 316.57 229.86 326.18 229.86 329.36 266.49 329.36"/><polygon class="cls-23" points="216.25 338.65 185.99 338.65 185.99 333.67 201.12 330.11 216.25 333.67 216.25 338.65"/><polygon class="cls-25" points="193.73 318.81 185.99 333.67 216.25 333.67 214.17 326.24 193.73 318.81"/><polygon class="cls-53" points="438.7 161.62 433.42 143.47 444.12 126.08 446.96 128.1 438.7 161.62"/><polygon class="cls-13" points="433.31 330.73 432.17 339.24 435.89 339.24 440.46 330.15 438.5 324.5 431.5 327.74 433.31 330.73"/><polygon class="cls-13" points="481.93 327.92 484.73 337.07 483.86 344.78 481.3 344.78 479.79 336.03 481.93 327.92"/><polygon class="cls-54" points="427.26 322.57 430.07 327.3 438.5 324.5 450.38 305.33 443.74 298.06 433.63 297.41 427.26 322.57"/><polygon class="cls-54" points="467.58 307.25 470.5 327.92 475.39 331.48 481.93 327.92 488.03 304.29 473.42 301.6 467.58 307.25"/><polygon class="cls-9" points="416.55 331.44 407.84 338.65 427.26 338.87 438.5 324.5 435.96 324.06 416.55 331.44"/><polygon class="cls-55" points="416.55 331.44 427.26 332.04 435.96 324.06 427.26 322.57 416.55 331.44"/><polygon class="cls-56" points="433.28 298.77 450.38 305.33 454.44 298.84 447.5 295.65 433.28 298.77"/><polygon class="cls-56" points="466.78 301.6 467.58 307.25 488.03 304.29 473.41 297.41 466.78 301.6"/><polygon class="cls-9" points="470.5 327.92 465.02 344.78 481.3 344.78 481.93 327.92 478.34 328.01 470.5 327.92"/><polygon class="cls-55" points="468.88 337.64 480.18 337.75 478.9 328.01 471.96 327.94 468.88 337.64"/><polygon class="cls-54" points="434.04 267.63 435.12 258.67 442.17 263.75 434.04 267.63"/><polygon class="cls-54" points="444.27 258 431.76 237.69 440.77 227.67 446.6 236.96 444.27 258"/><polygon class="cls-18" points="431.76 237.69 440.77 229.67 450.36 222.27 453.72 210.67 444.27 213.74 431.76 237.69"/><polygon class="cls-54" points="490 152.79 503.44 173.13 490.53 205.25 464.17 215.04 469.69 206.38 471.64 190 490 152.79"/><polygon class="cls-53" points="494.13 181.08 495.71 192.38 490.53 205.25 513.67 188.5 511.11 176.13 503.44 173.13 494.13 181.08"/><polygon class="cls-56" points="464.17 215.04 481.93 200.74 456.83 194.25 464.17 215.04"/><polygon class="cls-55" points="431.76 187.97 475.06 198.81 487.5 160.65 490 157.5 490 152.79 446.96 128.1 431.76 187.97"/><polygon class="cls-34" points="508.56 126.08 502.1 141.33 490 152.79 467.45 128.1 459.87 106.25 508.56 126.08"/><polygon class="cls-34" points="522.81 161.62 508.56 161.62 490 152.79 508.56 126.08 522.81 161.62"/><polygon class="cls-18" points="513.67 188.5 505.7 176.48 503.46 173.11 494.13 164.68 490 152.79 522.81 161.62 513.67 188.5"/><polygon class="cls-55" points="490 182.83 498.27 186.01 503.44 173.08 493.4 168.67 490 182.83"/><polygon class="cls-56" points="500.01 174.63 494.13 177.88 495.46 173.13 500.01 174.63"/><polygon class="cls-56" points="490 182.83 495.71 192.38 498.27 186.01 490 182.83"/><polygon class="cls-18" points="444.62 151.49 453.41 152.79 451.46 148.92 444.62 151.49"/><polygon class="cls-57" points="455.29 156.25 458.25 157.17 455.02 170.79 450.36 169.5 455.29 156.25"/><polygon class="cls-56" points="450.36 169.5 452.06 172.67 455.02 170.79 450.36 169.5"/><polygon class="cls-11" points="445.52 176.32 449.7 182.82 459.08 180 452.13 177.61 445.52 176.32"/><polygon class="cls-19" points="461.05 206.21 453.72 210.67 440.77 229.67 464.17 244.5 499.32 236.96 503.88 228.5 490.53 205.25 464.17 215.04 461.05 206.21"/><polygon class="cls-9" points="440.77 229.67 499.32 236.96 487.48 262 444.27 258 440.77 229.67"/><polygon class="cls-18" points="503.88 228.5 510.18 246 492.04 249.39 503.88 228.5"/><polygon class="cls-18" points="444.27 258 433.28 298.77 488.03 304.29 494.13 278.75 485.69 271.83 487.63 261.47 460.17 257.16 453.16 258.82 444.27 258"/><polygon class="cls-54" points="473.32 260.98 499.45 262 510.18 246 476.01 250.1 472.11 253.5 473.32 260.98"/><polygon class="cls-54" points="476.01 250.1 474.31 242.32 470.04 246.58 476.01 250.1"/><polygon class="cls-22" points="452.7 231.16 452.94 245.84 456.64 249.69 453.16 258.82 453.28 266 467.37 267.63 476.56 234.13 452.7 231.16"/><polygon class="cls-34" points="487.68 261.6 433.63 297.41 494.13 278.75 487.68 261.6"/><polygon class="cls-22" points="464.17 215.04 475.29 222.27 490.53 205.25 464.17 215.04"/><polygon class="cls-22" points="461.05 206.21 464.17 215.04 455.38 219.17 461.05 206.21"/><polygon class="cls-10" points="447.51 176.85 451 179.32 456.83 179.39 451.89 177.52 447.51 176.85"/><polygon class="cls-58" points="456.45 178.22 452.08 175.26 447.45 176.01 444.01 173.95 445.52 176.32 448.36 177.07 459.08 180 462.6 178.87 456.45 178.22"/><polygon class="cls-54" points="453.41 152.79 455.29 156.25 451.46 166.55 444.62 151.49 453.41 152.79"/><polygon class="cls-54" points="462.94 154.58 458.25 157.17 455.02 170.79 465.52 163.23 475.02 159.76 468.74 156.25 462.94 154.58"/><polygon class="cls-18" points="462.94 154.58 468.52 152.79 475.02 159.76 462.94 154.58"/><polygon class="cls-16" points="437.32 122.83 487.5 160.65 491.43 159.02 490 152.79 459.87 106.25 437.32 122.83"/><polygon class="cls-53" points="490 152.79 487.5 160.65 491.61 176.13 493.4 168.67 503.44 173.08 490 152.79"/><polygon class="cls-55" points="458.72 250.97 464.17 241.25 476.01 250.1 473.32 260.98 462 259.64 458.72 250.97"/><polygon class="cls-55" points="464.17 241.25 472.83 247.72 468.5 260.69 462 259.64 459.19 250.97 464.17 241.25"/><polygon class="cls-55" points="444.27 258 434.04 267.63 439.77 270.36 444.27 258"/><polygon class="cls-54" points="464.17 241.25 462 259.64 453.16 258.82 452.94 245.84 464.17 241.25"/><circle class="cls-31" cx="464.82" cy="163.23" r="2.41"/><path class="cls-31" d="M451.43,158.93a2.42,2.42,0,1,1-2.41-2.41A2.41,2.41,0,0,1,451.43,158.93Z"/></g></g></g></svg>