<svg xmlns="http://www.w3.org/2000/svg" viewBox="0 0 900 350"><defs><style>.cls-1{fill:#2b2b2b;opacity:0.1;}.cls-1,.cls-10,.cls-11,.cls-12,.cls-13,.cls-14,.cls-15,.cls-16,.cls-17,.cls-18,.cls-19,.cls-2,.cls-20,.cls-21,.cls-22,.cls-23,.cls-24,.cls-25,.cls-26,.cls-27,.cls-28,.cls-29,.cls-3,.cls-30,.cls-31,.cls-32,.cls-33,.cls-34,.cls-35,.cls-37,.cls-38,.cls-39,.cls-4,.cls-40,.cls-5,.cls-6,.cls-7,.cls-8,.cls-9{fill-rule:evenodd;}.cls-2{fill:#dddddc;}.cls-3{fill:#949494;}.cls-4{fill:#d4d4d4;}.cls-5{fill:#e1a842;}.cls-6{fill:#f1bc68;}.cls-7{fill:#b48a00;}.cls-8{fill:#b0b0b0;}.cls-9{fill:#dededb;}.cls-10{fill:#f2f2f2;}.cls-11{fill:#bfbfbf;}.cls-12{fill:#dedede;}.cls-13{fill:#a1a1a1;}.cls-14{fill:#bb8e2d;}.cls-15{fill:#a3a3a3;}.cls-16{fill:#c7c7c7;}.cls-17{fill:#c2c2c2;}.cls-18{fill:#a3a2a2;}.cls-19{fill:#737474;}.cls-20{fill:#4f5253;}.cls-21{fill:#454745;}.cls-22{fill:#e4c728;}.cls-23{fill:#9d7700;}.cls-24{fill:#cbac14;}.cls-25{fill:#debca4;}.cls-26{fill:#8f8f8f;}.cls-27{fill:#c2977b;}.cls-28{fill:#f3d65d;}.cls-29{fill:#e7c9b5;}.cls-30{fill:#8a6651;}.cls-31{fill:#474747;}.cls-32,.cls-36{fill:#be8e00;}.cls-33{fill:#755800;}.cls-34{fill:#484748;}.cls-35{fill:#846400;}.cls-37{fill:#6f7173;}.cls-38{fill:#82878a;}.cls-39{fill:#6b6e73;}.cls-40{fill:#ececeb;}</style></defs><title>explorers_Entrepreneur_ESTP_friendships</title><g id="ILLUSTRATION_copy" data-name="ILLUSTRATION copy"><g id="shadows_copy" data-name="shadows copy"><polygon class="cls-1" points="247.22 302.43 313.2 289.58 375.7 305.21 318.75 315.28 247.22 302.43"/><polygon class="cls-1" points="489.41 315.62 555.38 302.78 617.88 318.4 560.94 328.47 489.41 315.62"/><polygon class="cls-1" points="362.85 322.22 433.68 309.72 491.49 322.48 434.38 335.07 362.85 322.22"/><polygon class="cls-1" points="240.97 187.85 281.6 202.08 244.1 217.36 205.9 217.01 149.66 230.9 129.17 236.46 192.01 268.75 217.71 264.24 201.04 285.42 196.53 290.97 172.92 292.01 153.47 288.89 119.1 299.31 103.13 294.1 79.52 311.81 121.18 311.11 124.31 332.64 109.72 343.75 27.09 349.31 0.35 321.18 14.24 287.15 4.52 261.46 71.18 206.6 5.56 240.63 1.04 237.85 0.7 235.76 240.97 187.85"/><polygon class="cls-1" points="627.08 186.68 597.14 193.19 627.34 215.19 692.71 219.36 756.51 230.56 809.38 226.91 824.22 247.74 800.26 276.65 741.93 318.84 807.03 349.04 880.73 320.4 827.87 302.43 850 280.81 831.25 248 839.84 228.47 866.93 233.94 899.22 213.37 708.33 172.22 627.08 186.68"/><polygon class="cls-1" points="634.38 274.04 671.62 267.79 709.12 275.35 673.7 284.72 634.38 274.04"/><polygon class="cls-1" points="224.2 319.57 253.41 314.67 282.84 320.6 255.05 327.95 224.2 319.57"/></g><g id="background_copy" data-name="background copy"><path class="cls-2" d="M13.28,176.84l2-11.74L354,134.59l507.43,19.74L863.19,166,352.92,156.2ZM27.33,70.75,171.53,1.39,492.67,39.32,665.28,0,877.34,54.11l22.31,106.48L467,78.09l-465.46,78Z"/></g><g id="coral_reefs_copy" data-name="coral reefs copy"><polygon class="cls-3" points="189.18 275.75 184.16 280.55 185.07 286.04 199.21 287.41 195.12 280.8 189.18 275.75"/><polygon class="cls-4" points="204.46 277.62 189.18 275.75 199.21 287.41 203.09 283.98 204.46 277.62"/><polygon class="cls-5" points="57.36 154.52 60.81 169.94 64.03 175.33 96.03 179.09 103.56 188.19 106.07 180.27 112.26 181 124.69 192.71 132.94 187.98 130.99 166.1 135.16 133.29 143.23 135.24 140.3 95.06 160.16 90.51 163.96 106.36 179.61 105.8 181.26 68.54 196.33 65.52 211.4 132.78 245.44 154.81 253.84 185.46 282.03 202.04 267.19 204.25 242.51 201.71 179.71 204.8 0 236.53 21.78 204.59 30.56 199.83 25.89 181.06 36.6 174.95 41.8 173.52 43.81 151.75 57.36 154.52"/><path class="cls-6" d="M43.81,151.75l13.55,2.77L49,162.8ZM25.89,181.06,36.6,175l-1.5,7.6Zm203.36-36.73,16.19,10.48-11.8,2.81Zm-48-75.79,15.07-3-6.59,9ZM164,106.36l15.65-.56L172,115.65ZM140.3,95.06l19.86-4.55-7.9,11.58Z"/><path class="cls-7" d="M36.6,175l7.21-23.2L48.33,201ZM21.78,204.59l4.11-23.53L46,228.41Zm102.91-11.88,6.43-27.17,10.2,46h0l-5.68,1ZM96,179.09l10,1.18v37.54l-13.36,2.35h0Zm64.13-88.58,3.8,15.85,12.86,68.52,2.79-69.08,1.65-37.26,11.67,104.39-25.39,8.32Zm85.28,64.3,8.4,30.65-11.33,16.25-15.79.72Zm-34-22,17.85,11.55L216.47,203h0l-7,.36Zm-76.24.51,5.14-38.23L175.23,205.6l-8.81,1.55h0Zm-77.8,21.23L64,175.33l-2.56,50.35Z"/><path class="cls-6" d="M132.4,171.3l8.09-9.17,8.16.88-6.16,9.26Zm56.43-35.07,10.38-5.47,12.19,2-10.06,10.7Zm21.27,42.83-18.41,9.52-24.15-7.33,25.39-8.32Zm-104,19.57,18.62-5.92-5,11.8Z"/><path class="cls-7" d="M181,180.49l11.51-3.38,5.57,2.13-7.17,4.54Zm17.21-47.05,6.55,2-4.51,3.47-3.89-2.76Z"/><polygon class="cls-4" points="121.19 224 95.59 220.45 93.47 209.12 81.45 204.86 84.28 183.25 67.67 183.25 71.21 196 58.13 208.09 41.73 186.35 23.29 194.96 36.56 219.49 5.48 214.78 5.48 223.64 16.09 229.31 1.95 238.17 6.34 248.08 78.47 272.64 88.52 278.41 105.93 280.77 118.81 274.5 121.19 224"/><polygon class="cls-8" points="88.37 278.41 105.93 280.77 118.81 274.5 121.19 224 105.93 280.77 98.84 231.3 88.37 278.41"/><polygon class="cls-8" points="93.47 209.12 81.45 204.86 77.43 225.16 71.21 196 58.13 208.09 71.94 231.03 81.23 243.76 93.47 209.12"/><polygon class="cls-9" points="121.19 224 95.59 220.45 98.84 231.3 121.19 224"/><polygon class="cls-8" points="23.29 194.96 36.56 219.49 53.18 222.23 40.17 199.9 23.29 194.96"/><polygon class="cls-8" points="5.48 223.64 16.04 229.31 71.94 231.03 5.48 223.64"/><polygon class="cls-10" points="1.95 238.17 6.34 248.08 78.47 272.64 90.53 256.48 71.94 231.03 52.65 242.25 1.95 238.17"/><polygon class="cls-8" points="1.95 238.17 6.34 248.08 28.23 266.48 73.46 282.34 90.53 256.48 60.24 259.05 52.65 242.25 1.95 238.17"/><polygon class="cls-8" points="62.5 245.58 71.71 240.33 78.34 250.2 66.66 252.25 62.5 245.58"/><polygon class="cls-3" points="196.14 298.57 191.12 303.37 187.25 310.82 206.17 310.23 202.08 303.61 196.14 298.57"/><polygon class="cls-11" points="196.14 298.57 206.17 310.23 215.92 301.6 196.14 298.57"/><polygon class="cls-12" points="8.33 320.59 13.99 293.73 47.09 283.05 57.35 260.63 69.03 268.28 66.91 278.6 73.46 282.34 81.45 270.23 88.52 278.41 87.44 288.03 103.55 294.08 101.78 302.62 121.6 311.16 119.12 319.35 108.5 321.48 117.89 333.4 32.04 342.12 8.33 320.59"/><polygon class="cls-11" points="117.89 333.4 32.04 342.12 8.33 320.59 39.3 297.82 49.92 301.38 61.96 297.64 84.25 310.98 84.25 321.3 117.89 333.4"/><path class="cls-13" d="M32,342.11,8.33,320.59l31-22.77Zm85.85-8.71L32,342.11l17.88-40.73,12-3.74-22.84,34L84.25,321.3Z"/><polygon class="cls-13" points="47.79 289.17 58.06 282.52 65.36 288.63 55.27 293.79 47.79 289.17"/><path class="cls-13" d="M80.05,299.88c0-.36,1.15-5.56,1.15-5.56l10.44.72-1.59,8.53Z"/><polygon class="cls-13" points="95.41 311.63 102.04 309.49 111.43 314.25 99.92 316.07 95.41 311.63"/><polygon class="cls-5" points="597.18 193.21 603.65 185.5 612.57 170.08 629.21 164.92 633.86 155.03 638.95 125.78 643.75 126.47 648.03 122.82 652.34 126.39 656.06 120.2 661.72 121.88 668.42 116.17 671.09 132.9 674.79 137.43 704.61 138.23 730.34 211.83 695.34 206.94 680.73 191.75 668.49 203.18 654.73 201.26 652.34 190.19 650.05 200.6 641.84 199.45 631.51 183.94 621.85 196.66 597.18 193.21"/><path class="cls-6" d="M674.79,137.43l29.82.8-13.72,8ZM656.06,120.2l12.36-4-6,8.82ZM639,125.78l9.09-3h0l-3.78,7.2Zm-26.38,44.3,16.64-5.16-9.47,10.51Z"/><polygon class="cls-5" points="704.61 138.23 708.16 137.67 708.68 125.69 727.71 113.95 730.21 108.16 728.68 62.27 745.85 56.22 761.25 117.77 764.58 127.95 768.33 129.34 787.62 124.18 788.2 121.35 787.62 106.21 804.44 105.32 814.35 146.95 818.58 162.15 864.97 208.64 777.6 208.16 774.13 210.8 745.85 211.47 741.84 209.38 730.34 211.83 704.61 138.23"/><path class="cls-5" d="M787.62,106.21l16.82-.89-7,8.1Zm-19.29,23.13,19.29-5.16-7.88,10.23ZM728.68,62.27l17.17-6.05L740.5,67.53Zm-20,63.42,19-11.74-8.67,14Z"/><polygon class="cls-6" points="812.64 209.88 776.57 210.74 772.4 197.65 789.03 186.98 799.3 187.87 810.89 188.76 812.64 209.88"/><polygon class="cls-7" points="812.64 209.88 786.5 210.5 788.81 202.52 810.89 188.76 812.64 209.88"/><polygon class="cls-14" points="786.5 210.5 773.96 210.68 772.4 197.65 788.81 202.52 786.5 210.5"/><path class="cls-14" d="M814.18,146.25l.17.7,16.16,19.69-5.53,43-1.2,0-9.61-62.49Zm-26.56-22.07v-18l11.68,81.66L789,187Zm-26.37-6.41,7.08,11.57,13.47,62.28-9.4,6ZM727.71,114l1-51.68,17.17,149.2h0l-15.52.36-4.89-14Zm-23.1,24.28,4.07-12.54,7,44.18Z"/><path class="cls-7" d="M668.42,116.17l6.37,21.26,20.55,69.51-26.85-3.76ZM648,122.82l8-2.62-1.33,81.06-4.68-.66Zm-18.83,42.1L639,125.78l2.89,73.68-20-2.8Zm-32,28.29,15.39-23.13-7.34,24.25h0Z"/><polygon class="cls-7" points="783.28 195.98 790.8 190.11 798.73 191.31 790.76 196.78 783.28 195.98"/><polygon class="cls-6" points="740.95 168.9 749.96 157.95 767.36 161.56 755.45 171.83 740.95 168.9"/><polygon class="cls-7" points="748.37 166.18 751.96 161.82 758.86 163.02 754.08 167.07 748.37 166.18"/><polygon class="cls-6" points="794.19 152.17 803.11 142.61 814.18 146.25 804.17 154.35 794.19 152.17"/><polygon class="cls-6" points="683.08 165.46 711.74 158.62 716.53 172.34 697.45 173.99 683.08 165.46"/><polygon class="cls-7" points="694.83 166.49 707.8 162.67 706.82 168.76 694.83 166.49"/><polygon class="cls-7" points="697.45 173.99 715.94 206.19 716.53 172.34 697.45 173.99"/><polygon class="cls-12" points="813.27 218.02 811.03 188.67 816.75 164.15 830.47 166.84 827.94 190.63 838.46 210.55 861.41 154.33 876.42 159.85 873.31 186.89 886.77 190.45 900 213.22 849.67 226.92 813.27 218.02"/><polygon class="cls-15" points="861.41 154.33 876.42 159.85 866.11 164.93 861.41 154.33"/><path class="cls-10" d="M874.84,220.07l-24.53,6.67L869,207.53Zm-46.9-29.44,10.52,19.92-14.2,10.16Zm-16.91-2,5.55-25.56,13.93,3.53Z"/><polygon class="cls-15" points="826.1 205.67 838.46 210.55 824.25 220.71 826.1 205.67"/><path class="cls-16" d="M886.77,190.45,900,213.22l-25.16,6.85ZM813.27,218,811,188.67l13.23,32,14.2-10.16,2,14.12,35.95-64.82-3.11,27L869,207.53l-19.33,19.39Z"/><path class="cls-7" d="M662.7,274.33l-16.64-17-13.63-3.29,8.32-11.21L653.59,250l4.51-11.29,10,6.91s4.47,1.45,4.91,1.72a54.42,54.42,0,0,0,5.75.7l14.08-8.89L695,250l.91,4.22-7.42,4.46.08,9.6-4.16,9.07Z"/><path class="cls-14" d="M658.1,238.66l11.77-4.1s2.74,12.46,3.18,12.73l-5,27.79Z"/><polygon class="cls-6" points="695.88 254.22 705.67 264.04 688.54 268.28 670.77 260.02 678.45 257.87 695.88 254.22"/><path class="cls-5" d="M678.8,248l14.08-8.89-14.43,18.77L670.77,260Zm-16.1,26.34-16.64-17,7.53-7.39Z"/><path class="cls-7" d="M258.17,321.53l12.4-7.51,6.12-13.09-6-8.07-6,11.12,1.81-8.13-6.06-3.51s-4.5,6.71-4.81,6.9-9.1,3.33-9.1,3.33l-10.13-6.41-1.74,1.19,1.11,4.69,4.1,7.62-.35,7.51,2.8,4.7Z"/><path class="cls-14" d="M266.54,295.85l-5.93-5.53s-4.63,8.73-4.94,8.92l-1.11,20.9Z"/><polygon class="cls-5" points="235.81 302.04 227.02 308.42 239.56 317.17 246.81 313.89 235.81 302.04"/><path class="cls-5" d="M252.36,311.23l-5.55,2.66-10.37-17.73,10.13,6.41ZM264.73,304l5.84,10-12.4,7.51Z"/><path class="cls-12" d="M822.07,266.31l-30.78-7.55-12.78-1.13-2.66-21.8L759.64,240l4.67,16.16L754.59,259l-8.48-15.87L740,253.57l1.06,4.15L724.09,269.1l6.44,7.92-23.68,9.43,2.22,8.64L720.83,298l-11.57,12.2,52.83,3.77,36.24,5.45L813.71,316s12.82-7.36,12-9-2.4-9.34-2.4-9.34Z"/><path class="cls-11" d="M706.85,286.45l2.22,8.64L720.83,298l18.54-1.82Zm24.34-22.12-7.1,4.77,6.44,7.92L744,286.88ZM741,251.74,740,253.57l1.06,4.15,13.4,17.07Zm18.41,5.86L754.59,259,761,270.34Zm.19-17.59,4.67,16.17L766,273.61l7.48,5.38,6.35-2.39Zm30.5,18.65-11.64-1,2.64,15.21,9.05-14Z"/><path class="cls-17" d="M709.26,310.16l32.33,8.38,20.5-4.61,36.24,5.45L813.71,316s12.82-7.36,12-9-2.4-9.34-2.4-9.34l-.7-17.39-32.33-7.63L773.47,279,766,273.61,744,286.88v11.65Z"/><polygon class="cls-18" points="709.26 310.16 741.59 318.54 761.52 313.89 763.89 304.06 744.03 298.53 709.26 310.16"/><polygon class="cls-18" points="779.81 276.6 773.46 278.99 765.98 273.61 769.09 290.28 782.94 281.71 779.81 276.6"/><polygon class="cls-10" points="842.45 210.41 828.65 183.35 827.92 190.7 826.08 203.94 842.45 210.41"/><polygon class="cls-10" points="846.51 241.75 843.32 222.36 824.25 220.71 817.22 225.58 815.25 246.4 846.51 241.75"/><polygon class="cls-8" points="843.32 222.36 842.45 210.41 826.08 203.94 824.25 220.71 843.32 222.36"/><polygon class="cls-10" points="837.92 275.34 844.88 256.24 809.25 252.44 809.43 274.65 837.92 275.34"/><polygon class="cls-8" points="844.88 256.24 846.51 241.75 815.25 246.4 809.25 252.44 844.88 256.24"/><polygon class="cls-8" points="809.43 274.65 808.09 289.19 825.57 302.92 837.92 275.34 809.43 274.65"/><polygon class="cls-8" points="843.32 222.36 856.05 220.26 866.86 234 846.51 241.75 843.32 222.36"/><polygon class="cls-10" points="870.5 200.37 856.05 220.26 866.86 234 874.84 220.07 878.55 210.85 870.5 200.37"/><polygon class="cls-8" points="844.88 256.24 853.23 258.58 855.43 270.48 837.92 275.34 844.88 256.24"/><polygon class="cls-10" points="869.57 253.98 853.23 258.58 855.43 270.48 872.23 267 869.57 253.98"/><polygon class="cls-17" points="809.25 252.44 805.58 251.56 790.19 258.86 792.57 263.05 809.43 274.65 809.25 252.44"/><polygon class="cls-10" points="797.08 232.83 805.58 251.56 790.19 258.86 786.95 246.41 785.98 237.51 797.08 232.83"/><polygon class="cls-8" points="817.22 225.58 814.45 214.92 813.34 203.44 794.45 218.35 802.3 230.4 815.25 246.4 817.22 225.58"/><polygon class="cls-10" points="800.26 204.77 813.34 203.44 794.45 218.35 800.26 204.77"/><polygon class="cls-10" points="763.89 304.06 769.09 290.28 782.94 281.71 803.43 283.81 848.58 307.58 791.75 289.88 783.32 290.35 763.89 304.06"/><polygon class="cls-12" points="767.77 311.01 763.89 304.06 788.58 286.63 848.58 307.58 822.46 309.24 808.17 308.35 804.43 311.14 792.93 314.15 777.81 312.26 777.99 312.12 777.8 312.26 767.77 311.01"/><polygon class="cls-17" points="848.58 307.58 822.46 309.24 808.17 308.35 804.43 311.14 792.93 314.15 777.81 312.26 777.99 312.13 777.8 312.26 767.77 311.01 796.01 297.92 848.58 307.58"/><polygon class="cls-12" points="803.73 324.6 792.93 314.15 808.17 308.35 848.58 307.58 837.77 316.44 825.35 324.06 819.56 327.94 803.73 324.6"/><polygon class="cls-3" points="777.8 312.26 787.25 318.43 794.35 323.74 804.77 337.7 819.23 334.76 825.24 324.14 819.56 327.94 803.73 324.6 797.45 318.52 792.93 314.15 777.8 312.26"/><polygon class="cls-8" points="763.89 304.06 760.92 308.17 761.11 313.49 784.03 323.93 787.25 318.43 777.8 312.26 767.77 311.01 763.89 304.06"/><polygon class="cls-12" points="805.15 345.87 804.77 337.7 794.35 323.74 787.25 318.43 784.03 323.93 787.91 329.35 805.15 345.87"/><polygon class="cls-17" points="823.33 338.46 805.15 345.87 804.77 337.7 819.23 334.76 819.67 327.86 848.58 307.58 823.33 338.46"/><polygon class="cls-10" points="122.66 274.96 126.91 258.32 120.98 238.49 130.63 230.84 149.57 227.9 165.41 233.33 167.62 241.87 192.04 251.12 207.97 251.83 218.5 264.82 208.95 270.42 143.64 284.03 136.11 284.03 122.66 274.96"/><polygon class="cls-4" points="122.66 274.96 126.91 258.32 120.98 238.49 130.63 230.84 151.78 250.67 167.35 248.63 176.2 254.67 192.04 251.12 208.95 270.42 143.64 284.03 136.11 284.03 122.66 274.96"/><path class="cls-8" d="M151.78,250.67l15.57-2-19,32.46,43.71-30L209,270.42l-64.76,13.5Zm-24.87,7.65L121,238.49l9.65-7.65L136.11,284Z"/><polygon class="cls-13" points="122.66 274.96 126.91 258.32 136.11 284.03 122.66 274.96"/><path class="cls-8" d="M153.9,243.84l6.46-5.11,2.08,5.87Zm47.83,12.94,5.14-.84L212,263l-2.12.85ZM142.66,235l6.29-1.51,8,3-7.48,4.85Z"/><polygon class="cls-10" points="861.41 154.33 846.49 190.32 864.71 180.82 876.42 159.85 867.32 163.24 861.41 154.33"/></g><g id="_2nd_character_copy" data-name="2nd character copy"><polygon class="cls-19" points="298.38 199.58 282.21 132.69 297.92 130.16 316.83 126.84 327.08 204.27 309.89 212.78 298.38 199.58"/><polygon class="cls-20" points="295.35 186.65 286.4 150.23 319.39 146.16 324.13 181.99 295.35 186.65"/><polygon class="cls-21" points="301.07 210.78 298.38 199.58 324.06 197.36 324.06 205.76 309.89 212.78 301.07 210.78"/><polygon class="cls-20" points="282.21 132.69 294 120.34 316.83 126.84 299.68 134.54 282.21 132.69"/><polygon class="cls-14" points="263.03 219.7 241.78 247.53 263.12 245.87 275.58 252.31 275.84 232.53 269.39 227.58 275.02 221.11 263.03 219.7"/><polygon class="cls-22" points="264.85 234.75 241.78 247.53 257.7 257.6 264.85 234.75"/><path class="cls-22" d="M325.38,192.64l34.73-6.49,9.32-24,7.4-6.19L350.58,132,342,151.17,324.84,128l-18.56,11.4-9.62,2.25,4.84,13.1.62-14,7.14.47-5,38.12Z"/><polygon class="cls-23" points="361.83 135.11 352.09 134.44 369.43 162.15 383.05 161.8 397.6 144.72 361.83 135.11"/><path class="cls-23" d="M324.84,128l-18.1,32.34,2.52-19.16-7.14-.47-.62,14-4.84-13.1,3.46-7Zm-48.59,52.28,20.41-38.63,7.6,37.65-9.07,7.51-6.42-11.51Z"/><polygon class="cls-24" points="360.11 186.15 362.96 178.81 340.23 173.97 304.26 179.33 315.51 198.02 334.45 213.38 356.74 194.81 360.11 186.15"/><polygon class="cls-24" points="341.04 258.1 334.52 236.16 364.08 214.82 358.17 255.65 341.04 258.1"/><polygon class="cls-24" points="300.26 259 334.52 236.16 364.08 214.82 348.38 211.3 330.24 205.14 306.2 211.83 284.58 243.51 300.26 259"/><polygon class="cls-23" points="334.52 236.16 364.08 214.82 356.74 194.81 315.44 198.12 306.2 211.83 334.52 236.16"/><polygon class="cls-23" points="274.96 221.11 269.39 227.58 284.58 243.51 299.99 221.05 274.96 221.11"/><polygon class="cls-23" points="341.04 258.1 318.18 247.06 334.52 236.16 341.04 258.1"/><polygon class="cls-24" points="275.58 252.31 264.85 234.75 257.7 257.6 275.58 252.31"/><polygon class="cls-25" points="341.99 151.17 350.58 132.02 346.58 131.44 341.86 137.56 324.84 128.03 341.99 151.17"/><polygon class="cls-20" points="320.55 28.67 303.33 45.16 275.94 54.64 277.36 88.62 284.58 114.69 319 117.11 320.55 28.67"/><polygon class="cls-26" points="320.55 28.67 305.21 27.31 275.94 54.64 322.6 76.23 320.55 28.67"/><polygon class="cls-19" points="277.36 88.62 240.28 115.97 264.29 118.84 282.15 108.26 299.27 126.02 319 117.11 277.36 88.62"/><polygon class="cls-26" points="277.36 88.62 264.29 118.84 299.27 126.02 277.36 88.62"/><polygon class="cls-25" points="325.29 89.11 331.19 122.26 377.13 112.64 375.11 103.21 368.24 105.08 368.71 100.42 365.43 96.79 373.48 95.55 370.53 81.76 365.33 85.69 361.37 83.57 356.64 82.41 358.15 87.65 355.92 92.33 351.46 88.97 349.81 82.73 345.42 85.59 342.58 87.35 342.21 90.9 335.17 88.91 325.29 89.11"/><path class="cls-27" d="M358.47,73.4l-3.67,2.7,3.35,11.55,6.43-8.16Zm-7,15.63L337,80.79l10.67-6.26,2.15,8.24Z"/><polygon class="cls-19" points="334.2 65.82 349.86 58.18 363.75 44.31 367.69 43.67 371.29 38.82 334.92 42.58 304.16 50.35 298.93 59.53 295.8 63.78 300.58 82.61 322 76.1 334.2 65.82"/><polygon class="cls-26" points="307.5 37.86 295.55 63.71 371.29 38.82 358.68 17.3 307.5 37.86"/><polygon class="cls-20" points="305.21 27.31 295.8 63.78 358.68 17.3 305.21 27.31"/><polygon class="cls-14" points="322 76.1 334.2 65.82 348.32 69.22 358.1 59.99 361.38 60.18 370.69 65.27 372.92 74.02 380.57 79.37 372.91 79.61 365.33 86.47 355.86 79.73 351.48 76.62 348.63 80.28 342.21 90.9 325.29 89.11 322.28 83.31 322 76.1"/><polygon class="cls-22" points="327.83 78.65 329.24 84.49 339.3 85.91 346.54 78.55 345.4 73.47 335.16 71.3 327.83 78.65"/><polygon class="cls-28" points="334.55 85.24 339.22 85.89 340.38 72.4 337.28 71.75 334.55 85.24"/><polygon class="cls-22" points="353.87 71.77 354.81 76.1 364.58 79.5 368.71 76.39 367.02 68.94 359.13 66.21 353.87 71.77"/><polygon class="cls-28" points="358.13 77.26 362.39 78.73 362.71 67.45 359.13 66.21 358.13 77.26"/><polygon class="cls-29" points="351.46 88.97 349.03 79.77 351.48 76.62 355.86 79.73 358.15 87.65 351.46 88.97"/><polygon class="cls-30" points="355.92 92.33 351.46 88.97 358.15 87.65 355.92 92.33"/><polygon class="cls-23" points="363.73 92.23 349.63 93.82 344.19 100.42 347.1 110.31 356.31 113.89 367.77 109.75 368.71 100.42 363.73 92.23"/><polygon class="cls-14" points="352.83 98.82 360.26 97.87 361.48 104.75 354.9 106.35 352.83 98.82"/><polygon class="cls-24" points="366.1 96.12 379.24 94.67 387.13 99.94 368.24 105.08 368.71 100.42 366.1 96.12"/><polygon class="cls-23" points="372.84 79.67 382.81 82.42 390.61 77.8 372.93 74.06 374.07 78.55 372.84 79.67"/><polygon class="cls-22" points="379.24 94.67 382.81 82.42 390.61 77.8 387.13 99.94 379.24 94.67"/><polygon class="cls-23" points="276.93 78.17 322 76.1 325.29 89.11 314.39 84.02 309.19 86.72 302.64 88.35 277.36 88.62 276.93 78.17"/><polygon class="cls-25" points="302.64 88.35 308.92 102.35 310.63 97.68 315.77 102.46 320.97 100.89 314.39 84.02 302.64 88.35"/><polygon class="cls-30" points="307.25 89.67 312.42 87.32 316.08 93.72 307.25 89.67"/><polygon class="cls-14" points="306.59 108.71 310.63 97.68 319.65 106.07 313.36 115.49 306.59 108.71"/><polygon class="cls-27" points="324.84 128.03 316.01 111.52 319.65 106.07 315.77 102.46 320.97 100.89 314.39 84.02 325.29 89.11 331.19 122.26 358 116.64 341.86 137.56 324.84 128.03"/><polygon class="cls-30" points="331.19 122.26 358 116.64 346.58 131.44 326.05 123.32 331.19 122.26"/><polygon class="cls-25" points="367.37 63.45 363.75 44.31 334.2 65.82 348.32 69.22 358.1 59.99 361.38 60.18 367.37 63.45"/><polygon class="cls-20" points="371.29 38.82 367.37 63.45 363.75 44.31 371.29 38.82"/><polygon class="cls-31" points="350.26 59.12 357.51 53.51 365.48 58.58 350.26 59.12"/><polygon class="cls-32" points="322.06 133 342.29 156.47 353.17 136.16 355.1 139.25 342.71 162.09 320.16 136.39 322.06 133"/><polygon class="cls-8" points="361.83 135.11 369.43 162.15 366.22 170.42 350.58 132.02 361.83 135.11"/><polygon class="cls-8" points="324.84 128.03 304.26 179.33 299.88 167.22 312.48 131.36 324.84 128.03"/><polygon class="cls-27" points="297 154.62 295.54 157.1 275.9 180.47 295.19 186.84 304.24 163.78 300.92 160.63 302.21 155.12 297 154.62"/><path class="cls-25" d="M312.53,148.54c-.21-.08-.95-3.7-3.09-6.15a24.17,24.17,0,0,0-6.76-5L291,148l11.18,7.16Z"/><polygon class="cls-25" points="314.25 142.3 310.01 141.27 308.27 136.55 308.89 122.51 315.82 122.69 314.25 142.3"/><polygon class="cls-27" points="314.25 142.3 317.81 158.42 312.53 148.54 302.69 137.4 296.89 126.68 303.44 123.46 310.01 141.27 314.25 142.3"/><polygon class="cls-30" points="295.54 157.1 291.03 147.96 302.21 155.12 312.43 148.62 317.81 158.42 304.24 163.78 295.54 157.1"/><polygon class="cls-25" points="312.53 148.54 319.98 150.31 317.81 158.42 310.1 153.14 312.53 148.54"/></g><g id="fishs_copy" data-name="fishs copy"><polygon class="cls-28" points="643.5 72.95 653.29 52.37 657.49 67.71 658.18 75.03 643.5 72.95"/><polygon class="cls-28" points="647.45 81.26 658.18 75.03 659.72 78.26 660.25 86.35 647.45 81.26"/><polygon class="cls-14" points="653.29 52.37 665.15 47.04 677.38 49.73 677.08 69.1 674.19 84.84 671.93 85.79 666.88 88.26 660.25 86.35 658.18 75.03 658.59 67.8 653.29 52.37"/><polygon class="cls-24" points="669.86 97.49 660.25 86.35 671.93 85.79 669.86 97.49"/><polygon class="cls-24" points="653.29 52.37 661.95 62.95 660.25 86.35 658.18 75.03 653.29 52.37"/><polygon class="cls-24" points="678.65 32.12 659.5 36.9 653.29 52.37 665.15 49.35 677.38 49.73 680.59 36.14 678.65 32.12"/><polygon class="cls-28" points="686.05 20.47 659.5 36.9 680.59 36.14 686.05 20.47"/><polygon class="cls-24" points="683.48 76.22 683.76 68.54 677.38 49.73 674.19 84.84 683.48 76.22"/><polygon class="cls-28" points="687.15 60.57 677.38 49.73 683.48 76.22 689.12 69.34 690.61 66.89 687.15 60.57"/><polygon class="cls-24" points="694.48 48.04 687.15 60.57 689.12 69.34 697.29 80.17 696.1 66.49 692.79 65.28 695.55 60.27 694.48 48.04"/><polygon class="cls-14" points="687.59 62.54 688.6 67.03 696.1 66.49 695.55 60.27 687.59 62.54"/><path class="cls-33" d="M664.44,63.5a2.81,2.81,0,1,1-2.81-2.81A2.81,2.81,0,0,1,664.44,63.5Z"/><polygon class="cls-22" points="101.56 125.87 98.03 99.47 91.56 114 89.77 121.13 101.56 125.87"/><polygon class="cls-14" points="101.56 125.87 89.77 121.13 87.76 124.09 86.02 132.01 101.56 125.87"/><polygon class="cls-14" points="98.03 99.47 87.11 92.42 74.61 93.23 71.98 112.42 72.47 128.42 74.56 129.69 79.18 132.9 86.02 132.01 89.77 121.13 90.46 113.92 98.03 99.47"/><polygon class="cls-24" points="67.97 138.11 86.02 132.01 74.56 129.69 67.97 138.11"/><polygon class="cls-24" points="98.03 99.47 87.87 108.62 86.02 132.01 89.77 121.13 98.03 99.47"/><polygon class="cls-24" points="77.89 86.36 94.14 85.37 98.03 99.47 86.76 94.7 74.61 93.23 75.36 90.04 77.89 86.36"/><polygon class="cls-22" points="72.33 73.73 94.14 85.37 75.36 90.04 72.33 73.73"/><polygon class="cls-24" points="64.58 118.49 65.47 110.85 74.61 93.23 72.47 128.42 64.58 118.49"/><polygon class="cls-22" points="63.32 102.47 74.61 93.23 64.58 118.49 60.05 110.84 58.95 108.2 63.32 102.47"/><polygon class="cls-24" points="57.97 88.97 63.32 102.47 60.05 110.84 50.33 120.31 53.58 106.97 57.03 106.27 55.06 100.91 57.97 88.97"/><polygon class="cls-14" points="62.59 104.35 60.91 108.64 53.58 106.97 55.06 100.91 62.59 104.35"/><path class="cls-33" d="M85.33,108.79a2.81,2.81,0,1,0,3.2-2.36A2.81,2.81,0,0,0,85.33,108.79Z"/></g><g id="main_character_copy" data-name="main character copy"><polygon class="cls-30" points="457.24 171.46 443.06 159.72 432.29 158.51 414.5 171.13 423.3 185.35 446.64 180.36 457.24 171.46"/><polygon class="cls-25" points="441 162.18 442.33 172.23 455.12 173 454.62 164.22 444.38 154.26 424.24 157.95 424.81 164.38 441 162.18"/><polygon class="cls-27" points="428.88 152.65 411.97 166.46 414.5 171.13 430.1 163.67 430.08 157.16 444.38 154.26 428.88 152.65"/><polygon class="cls-24" points="569.27 106.34 573.96 108.42 573.3 132.94 565.89 124.57 567.19 121.01 567.97 112.59 569.27 106.34"/><polygon class="cls-23" points="552.87 98 560.76 95.38 573.96 108.42 567.97 112.59 552.87 98"/><polygon class="cls-34" points="573.61 185.42 581.25 199.65 563.2 223.96 551.39 189.93 573.61 185.42"/><polygon class="cls-20" points="573.96 153.13 582.64 181.77 581.25 199.65 570.49 202.43 536.11 178.82 573.96 153.13"/><polygon class="cls-20" points="553.65 122.05 567.19 121.01 573.3 132.94 555.56 141.67 553.65 122.05"/><polygon class="cls-23" points="487.63 91.23 479.25 86.46 494.92 75.35 494.92 91.36 487.63 91.23"/><polygon class="cls-22" points="570.52 266.94 565.37 278.08 558.54 299.58 594.48 291.94 586.98 261.97 570.52 266.94"/><polygon class="cls-22" points="523.12 283.09 512.45 295.05 499.34 314.34 533.19 296.11 541.62 273.34 523.12 283.09"/><polygon class="cls-27" points="410.8 121.7 417.56 116.9 419.46 100.82 406.7 97.05 399.81 108.77 401.5 122.07 410.8 121.7"/><polygon class="cls-30" points="398.96 111.17 417.56 116.9 411.22 128.17 401.92 132.6 398.96 111.17"/><polygon class="cls-25" points="396.64 135.93 398.33 125.95 394.1 115.05 400.23 104.89 404.25 106.92 401.92 113.94 404.25 121.33 401.92 137.04 396.64 135.93"/><polygon class="cls-35" points="573.3 132.94 557.42 175.32 582.64 181.77 596.7 163.54 573.3 132.94"/><polygon class="cls-35" points="487.85 128.66 472.72 162.43 478.17 176.43 487.97 183.76 497.02 172.92 495.2 146.86 487.85 128.66"/><polygon class="cls-32" points="472.72 162.43 454.62 163.91 446.64 180.36 487.97 183.76 472.72 162.43"/><polygon class="cls-35" points="504.57 212.47 507.06 251.89 517.27 254.5 535.01 246.14 544.8 219.99 504.57 212.47"/><polygon class="cls-33" points="535.01 246.14 507.06 251.89 512.24 261.12 529.41 272.31 535.95 256.33 535.01 246.14"/><polygon class="cls-7" points="517.72 270.88 512.45 295.05 541.62 273.34 536.8 265.53 520.09 267.36 517.72 270.88"/><polygon class="cls-32" points="531.92 227.92 544.35 249.89 554.91 248.12 570.03 235.35 570.49 202.43 541.56 216.51 531.92 227.92"/><polygon class="cls-33" points="570.03 235.35 544.35 249.89 561.77 263.11 572.49 261.23 579.17 254.53 570.03 235.35"/><polygon class="cls-7" points="561.77 263.11 565.37 278.08 586.98 261.97 579.17 254.53 571.55 255.06 568.5 256.31 566 258.17 561.77 263.11"/><polygon class="cls-23" points="504.57 212.47 531.92 227.92 570.49 202.43 540.9 203.32 525.67 197.15 518.3 204.93 504.57 212.47"/><polygon class="cls-22" points="495.37 131.89 504.85 125.59 513.52 134.05 521.47 146.63 539.06 137.12 556.85 129.93 567.1 138.04 567.25 173.66 565.86 183.06 570.49 202.43 536.49 214.35 525.84 198.14 519.07 215.25 504.57 212.47 497.02 172.92 495.37 131.89"/><polygon class="cls-33" points="559.8 113.61 551.59 107.5 551.65 114.35 548.63 122.11 559.8 113.61"/><polygon class="cls-33" points="509.21 106.33 496.62 115.93 504.85 125.59 521.47 146.63 516.79 123.16 509.21 106.33"/><polygon class="cls-32" points="567.25 173.66 556.85 129.93 573.3 132.94 567.25 173.66"/><polygon class="cls-32" points="487.85 128.66 497.02 172.92 504.85 125.59 487.85 128.66"/><rect class="cls-36" x="529.75" y="159.49" width="27.25" height="3.76" transform="translate(-1.6 5.49) rotate(-0.58)"/><polygon class="cls-25" points="546.84 40.65 506.02 43.23 492.67 39.32 489.74 103.78 509.21 106.33 513.1 113.93 516.58 118.76 535.11 125.15 547.58 113.97 564.68 86.17 570.94 71.47 571.01 57.46 546.84 40.65"/><polygon class="cls-27" points="542.17 40.95 534.22 109.24 509.21 106.33 512.81 114.29 514 122.55 521.47 146.63 540.77 130.68 551.71 116.66 560.76 95.38 560.28 89.87 564.68 86.18 552.85 80.08 559.63 65.88 570.94 71.47 575.62 60.66 553.15 45.04 546.84 40.65 542.17 40.95"/><polygon class="cls-27" points="509.34 78.99 518.15 60.46 532.09 53.17 514.33 50.84 510.88 56.83 506.62 68.95 509.34 78.99"/><polygon class="cls-27" points="504.31 56.39 502.72 51.14 492.19 49.76 504.23 73.1 504.31 56.39"/><polygon class="cls-30" points="552.85 80.08 564.68 86.18 560.76 95.38 552.85 80.08"/><polygon class="cls-30" points="510.22 66.32 532.15 79.14 538.77 70.17 542.13 69.48 543.29 66.91 533.97 64.25 510.22 66.32"/><polygon class="cls-30" points="503.63 66.2 491.15 72.74 491.27 70.06 493.06 65 503.63 66.2"/><polygon class="cls-35" points="552.3 46.92 537.71 79.28 549.51 87.08 559.63 65.88 570.94 71.47 575.62 60.66 563.36 50.06 552.3 46.92"/><polygon class="cls-29" points="504.31 56.39 510.88 56.83 509.34 78.99 502.77 78.53 504.31 56.39"/><polygon class="cls-30" points="558.11 78.13 561.01 70.37 567.76 73.52 558.11 78.13"/><polygon class="cls-35" points="532.09 53.17 519.06 47.2 514.33 50.84 532.09 53.17"/><polygon class="cls-35" points="502.72 51.14 496.83 46.75 492.19 49.76 502.72 51.14"/><polygon class="cls-30" points="502.77 78.53 506.25 82.56 509.34 78.99 502.77 78.53"/><polygon class="cls-33" points="542.13 69.48 558.78 67.65 559.63 65.88 550.42 64.93 543.26 66.97 542.13 69.48"/><polygon class="cls-30" points="509.21 106.33 541.92 110.13 514 122.55 509.21 106.33"/><polygon class="cls-32" points="501.84 18.55 562.76 23.26 576.46 39.31 537.31 31.75 501.84 18.55"/><polygon class="cls-23" points="542.17 40.95 575.62 60.66 576.46 39.31 548.09 30.92 524.31 32.47 542.17 40.95"/><polygon class="cls-35" points="542.17 40.95 548.09 30.92 501.84 18.55 502.62 31.4 506.02 43.23 542.17 40.95"/><polygon class="cls-32" points="501.84 18.55 472.61 16.55 492.67 39.32 506.02 43.23 501.84 18.55"/><polygon class="cls-34" points="535.33 58.47 568.28 60.73 570.94 71.47 559.63 65.88 534.52 67.46 533.99 62.62 535.33 58.47"/><polygon class="cls-34" points="504.31 56.39 510.88 56.83 511.67 59.47 510.48 62.58 503.92 62.06 502.84 59.87 504.31 56.39"/><path class="cls-20" d="M483.81,55l20.5,1.38-.68,9.81-21,6.55L483.81,55Zm27.07,1.82,24.45,1.64-1.63,18L510.22,66.32Z"/><polygon class="cls-32" points="534.41 125.76 559.8 113.61 556.85 129.93 521.47 146.63 534.41 125.76"/><polygon class="cls-24" points="565.86 183.06 525.77 172.92 521.68 173.62 500.22 189.68 525.67 197.15 565.86 183.06"/><polygon class="cls-32" points="521.47 146.63 525.77 172.92 525.84 198.14 521.68 173.62 521.47 146.63"/><polygon class="cls-22" points="573.63 242.89 554.12 257.3 561.77 263.11 579.17 254.53 573.63 242.89"/><polygon class="cls-22" points="535.95 256.33 512.24 261.12 517.72 270.88 536.8 265.53 535.95 256.33"/><polygon class="cls-27" points="398.33 125.95 383.05 161.8 401.99 161.82 411.22 128.17 398.33 125.95"/><polygon class="cls-32" points="567.25 173.66 582.47 153.65 596.7 163.54 582.64 181.77 567.25 173.66"/><polygon class="cls-30" points="588.13 151.82 589.53 138.04 582.02 136.66 578.81 152.13 573.56 156.63 570.96 148.26 564.8 153.87 562.51 168.63 567.25 173.66 588.13 151.82"/><polygon class="cls-25" points="578.31 157.69 588.13 151.82 590.54 159.46 582.98 176.82 578.31 157.69"/><polygon class="cls-27" points="570.44 148.13 588.13 151.82 582.98 176.82 567.25 173.66 570.44 148.13"/><polygon class="cls-22" points="513.15 59.4 532.1 60.83 531.58 72.42 512.89 64.28 513.15 59.4"/><polygon class="cls-22" points="501.3 58.81 486.72 58.03 485.87 68.84 500.86 64.5 501.3 58.81"/><polygon class="cls-28" points="497.81 58.62 492.65 66.88 497.55 65.46 501.18 60.34 501.3 58.81 497.81 58.62"/><polygon class="cls-28" points="492.65 58.35 488.63 58.13 486.55 60.2 486.18 64.95 492.65 58.35"/><polygon class="cls-28" points="515.28 59.56 513.04 61.42 512.89 64.28 516.06 65.66 520.82 59.98 515.28 59.56"/><polygon class="cls-28" points="532.04 62.18 532.1 60.83 525.84 60.36 520.35 67.53 525.28 69.68 532.04 62.18"/><polygon class="cls-24" points="503.21 90.63 496.68 88.43 479.25 86.46 479.6 92.97 496.62 95.14 503.21 90.63"/><polygon class="cls-23" points="501.11 84.33 513.09 85.18 516.02 90.91 515.24 96.57 511.72 100.28 500.46 99.05 496.62 95.14 496.68 88.43 501.11 84.33"/><polygon class="cls-14" points="502.21 89.02 501.82 94.88 509.83 95.2 509.77 88.95 502.21 89.02"/></g><g id="thurtle_copy" data-name="thurtle copy"><polygon class="cls-24" points="442.33 172.23 414.5 171.13 429.15 186.93 442.33 172.23"/><polygon class="cls-33" points="430.58 293.01 423.54 280.95 427.06 279.71 430.17 280.49 431.55 284.97 430.58 293.01"/><polygon class="cls-24" points="437.06 280.01 430.58 293.01 430.17 280.49 432.67 279.49 437.06 280.01"/><polygon class="cls-28" points="429.49 193.22 425.49 184.83 429.2 175.47 442.33 172.23 450.14 186.82 447.24 193.6 444.71 198.96 435.39 196.55 429.49 193.22"/><polygon class="cls-33" points="429.49 193.22 421.78 199.9 427.96 210.86 439.48 207.25 446.36 212.33 451.28 197.42 452.41 194.6 450.14 186.82 444.79 197.05 429.49 193.22"/><polygon class="cls-22" points="403.7 187.59 406.8 200.44 412.26 209.06 415.31 202.19 421.78 199.9 431.69 193.66 429.2 175.47 414.5 171.13 403.7 187.59"/><polygon class="cls-14" points="403.7 187.59 398.51 195.44 397.13 203.24 403.39 215.56 409.04 223.82 413.29 216.13 412.27 209.06 403.7 187.59"/><polygon class="cls-37" points="375.09 207.24 386.54 207.26 397.13 203.24 400.36 195.56 403.7 187.59 375.09 207.24"/><polygon class="cls-37" points="450.14 186.82 456.04 191.12 480.21 212.11 461.75 202.76 458.83 205.45 452.33 205.34 451.04 194.29 447.74 191.58 450.14 186.82"/><polygon class="cls-24" points="412.26 209.06 410.81 215.72 409.04 223.82 425.2 224.68 442.02 221.91 442.4 221.29 441.89 221.93 445.31 210.94 444.88 204.08 421.78 199.9 415.31 202.19 412.26 209.06"/><polygon class="cls-22" points="442.4 221.29 452.33 205.34 451.04 194.29 444.88 204.08 441.89 221.93 442.4 221.29"/><polygon class="cls-8" points="447.73 250.39 450.49 236.71 442.02 221.91 409.04 223.82 406.37 235.29 406.37 254.59 431.53 253.44 447.73 250.39"/><polygon class="cls-38" points="450.79 277.91 451.67 261.98 447.73 250.39 430.58 252.13 406.37 254.59 404.53 269.94 408.66 280.01 423.66 280.96 437.06 280.01 450.79 277.91"/><polygon class="cls-9" points="466.8 232.8 452.33 205.34 442.02 221.91 444.49 234.52 447.73 250.39 466.8 232.8"/><polygon class="cls-8" points="450.79 277.91 459.42 269.61 466.8 256.69 466.8 232.8 447.73 250.39 450.79 277.91"/><polygon class="cls-33" points="459.17 284.6 450.79 277.91 457.57 268.93 466.8 256.69 464.96 271.04 459.17 284.6"/><polygon class="cls-24" points="459.17 301.23 459.17 284.6 466.8 256.69 472.32 262.21 471.8 269.86 474.99 278.29 464.51 303.14 459.17 301.23"/><polygon class="cls-24" points="393.03 218.47 400.34 241.05 401.99 258.03 398.46 259.4 394.94 259.37 390.88 241.53 393.03 218.47"/><polygon class="cls-38" points="406.37 254.59 399.61 247.53 393.03 218.47 389.76 217.19 397.13 203.24 409.04 223.82 406.37 235.29 406.37 254.59"/><polygon class="cls-32" points="401.99 258.03 403.57 266.76 395.99 284.15 388.47 279.95 394.94 259.37 401.99 258.03"/><polygon class="cls-39" points="408.66 280.01 398.52 273.15 400.31 265.36 401.99 258.03 399.61 247.53 406.37 254.59 408.66 280.01"/><path class="cls-24" d="M403.32,311.17c0-.49-1.28-10.59-2.51-20.25l-2.29-17.77-2.53,11-8.68,6.76,9.91,22.94Z"/><polygon class="cls-33" points="408.66 280.01 400.81 290.92 398.52 273.15 408.66 280.01"/><polygon class="cls-33" points="372.06 289.95 378.45 297.34 387.31 290.91 395.99 284.15 388.47 279.95 372.06 289.95"/><polygon class="cls-22" points="380.05 246.94 381.02 270.07 372.06 289.95 388.47 279.95 394.94 259.37 393.03 218.47 397.13 203.24 387.01 208.76 379.29 217.33 380.05 246.94"/><polygon class="cls-20" points="380.05 246.94 381.02 270.07 368.05 261.28 359.86 239.1 375.09 207.24 397.13 203.24 379.3 217.31 380.05 246.94"/><path class="cls-23" d="M397.13,203.24,379.3,217.31Z"/><polygon class="cls-22" points="452.33 205.34 479.84 224.71 486.81 235.48 483.19 238.18 479.76 238.72 474.12 233.3 452.33 205.34"/><polygon class="cls-24" points="480.11 251.14 478.66 244.91 479.76 238.72 486.81 235.48 486.96 249.8 484.22 250.98 480.11 251.14"/><polygon class="cls-22" points="492.77 270.18 485.16 260.63 480.11 251.14 486.96 249.8 500.15 265.39 492.77 270.18"/><polygon class="cls-33" points="466.8 256.69 472.75 261.93 479.02 263.04 492.77 270.18 480.11 251.14 479.76 238.72 452.33 205.34 466.8 232.8 466.8 256.69"/><polygon class="cls-20" points="471.8 269.86 479.18 263.12 474.11 260.49 466.8 256.69 471.8 269.86"/><polygon class="cls-20" points="480.21 212.11 461.75 202.76 452.33 205.34 479.57 227.45 486.81 235.48 480.21 212.11"/><path class="cls-33" d="M423.1,182.31c.33,2.4-.87,4.55-2.68,4.8s-3.54-1.5-3.87-3.9.87-4.55,2.68-4.8S422.77,179.91,423.1,182.31Z"/></g><g id="bubble_copy" data-name="bubble copy"><polygon class="cls-40" points="473.7 60.37 470.57 64.54 472.53 67.4 477.48 66.62 478.52 63.37 473.7 60.37"/><polygon class="cls-40" points="467.45 46.7 463.67 50.35 466.54 54.38 472.27 53.47 473.7 49.44 467.45 46.7"/><polygon class="cls-40" points="473.18 30.04 468.49 35.37 475.65 40.71 478.91 38.11 479.17 34.2 476.56 30.82 473.18 30.04"/><polygon class="cls-40" points="385.29 66.49 381.38 69.49 384.38 72.48 391.67 71.31 390.11 65.84 385.29 66.49"/><polygon class="cls-40" points="385.25 47.4 380.47 51.88 381.67 54.87 388.54 55.16 390.63 51.73 389.28 47.25 385.25 47.4"/><polygon class="cls-40" points="384.84 25.87 381.24 30.32 383.13 34.2 388.54 36.02 392.98 29.94 389.95 26.53 384.84 25.87"/><polygon class="cls-40" points="635.55 70.01 632.55 73.39 633.2 75.22 636.59 76.26 638.54 72.22 635.55 70.01"/><polygon class="cls-40" points="631.64 56.34 627.74 59.59 628.78 63.24 634.77 64.02 636.33 60.37 634.51 57.25 631.64 56.34"/><polygon class="cls-40" points="635.29 40.32 632.03 42.8 631.9 48.39 636.33 52.04 640.89 49.57 641.54 45.01 639.06 41.75 635.29 40.32"/><polygon class="cls-40" points="636.47 20.78 631.92 18.52 625.61 21.45 623.98 28.4 629.25 32.12 634.69 30.33 636.96 25.78 636.47 20.78"/><polygon class="cls-40" points="108.86 114.41 105.47 118.32 107.55 121.18 110.68 119.1 111.98 115.19 108.86 114.41"/><polygon class="cls-40" points="108.88 96.96 104.43 101.88 107.01 106.34 111.46 105.87 113.1 102.12 112.63 98.13 108.88 96.96"/><polygon class="cls-40" points="103.72 74.31 102.08 81.47 104.54 85.35 110.88 85.76 113.95 81.47 111.5 74.92 103.72 74.31"/><polygon class="cls-40" points="95.87 45.73 92.34 51.69 95.69 56.34 104.8 56.15 107.41 48.71 103.5 43.32 95.87 45.73"/></g></g></svg>