<svg xmlns="http://www.w3.org/2000/svg" viewBox="0 0 900 350"><defs><style>.cls-1{fill:#dddddc;}.cls-1,.cls-10,.cls-11,.cls-12,.cls-13,.cls-14,.cls-15,.cls-16,.cls-17,.cls-18,.cls-19,.cls-2,.cls-20,.cls-21,.cls-22,.cls-23,.cls-24,.cls-25,.cls-26,.cls-28,.cls-29,.cls-3,.cls-30,.cls-31,.cls-32,.cls-34,.cls-35,.cls-36,.cls-5,.cls-6,.cls-7,.cls-8,.cls-9{fill-rule:evenodd;}.cls-2{fill:#ececeb;}.cls-3{fill:#cfcecd;}.cls-4,.cls-6,.cls-7{fill:#f3d65d;}.cls-5{fill:#cbac14;}.cls-6{opacity:0.23;}.cls-8{fill:#b7b7b7;}.cls-9{fill:#9ca0a1;}.cls-10{fill:#c4c4c3;}.cls-11,.cls-27,.cls-36{fill:#2b2b2b;}.cls-11{opacity:0.1;}.cls-12,.cls-33{fill:#9d7700;}.cls-13{fill:#755800;}.cls-14{fill:#bb8e2d;}.cls-15{fill:#e1a842;}.cls-16{fill:#fff;}.cls-17{fill:#858686;}.cls-18{fill:#484748;}.cls-19{fill:#6f7173;}.cls-20{fill:#4f5253;}.cls-21{fill:#474747;}.cls-22{fill:#a67e62;}.cls-23{fill:#bf9b83;}.cls-24{fill:#be8e00;}.cls-25{fill:#c8ac9a;}.cls-26{fill:#825940;}.cls-28{fill:#e4c728;}.cls-29{fill:#c2977b;}.cls-30{fill:#8a6651;}.cls-31{fill:#debca4;}.cls-32{fill:#846400;}.cls-34{fill:#b48a00;}.cls-35{fill:#e7c9b5;}</style></defs><title>explorers_Adventurer_ISFP_romantic_relationships</title><g id="ILLUSTRATION_copy_2" data-name="ILLUSTRATION copy 2"><g id="clouds_copy_2" data-name="clouds copy 2"><path class="cls-1" d="M415.24,22.4S353.57,4.68,352.23,5s-54.67,5-54.67,5l56.34,8.69s60.34,26.74,62,26.07,87-23.06,87-23.06Z"/><polygon class="cls-1" points="827.7 37.85 895.83 53.03 832.75 74.96 811.72 69.9 778.91 80.86 712.47 47.13 778.91 53.03 827.7 37.85"/><polygon class="cls-1" points="130.02 73.54 76.01 55.49 5 63.18 58.01 72.88 112.35 96.61 200.04 67.86 130.02 73.54"/><polygon class="cls-2" points="5 63.18 78.35 51.48 115.12 60.09 159.53 57 200.04 67.86 132.69 79.23 67.01 59.5 5 63.18"/><polygon class="cls-2" points="895.83 53.03 822.65 29.42 778.91 43.76 746.11 40.38 712.47 47.13 773.87 65.68 819.29 52.19 895.83 53.03"/><polygon class="cls-3" points="513.1 64.69 523.76 73.04 539.43 69.7 521.76 80.06 513.1 64.69"/><polygon class="cls-3" points="485.42 81.06 496.43 89.76 499.09 76.72 494.43 83.74 485.42 81.06"/><polygon class="cls-3" points="531.76 86.75 535.1 100.45 554.1 103.38 539.1 98.11 531.76 86.75"/><polygon class="cls-3" points="472.92 103.36 481.45 107.35 484.01 99.66 479.74 104.22 472.92 103.36"/><polygon class="cls-3" points="506.76 113.62 507.77 123.73 517.18 121.03 509.45 120.02 506.76 113.62"/><path class="cls-2" d="M297.56,10,354.23,0l93,16.05,55.68,5.68s-80,8.36-81.35,8.69S346.9,10,345.56,9.69,297.56,10,297.56,10Z"/></g><g id="sun_copy_2" data-name="sun copy 2"><ellipse class="cls-4" cx="439.08" cy="194.89" rx="64.51" ry="64.68"/></g><g id="water_copy_2" data-name="water copy 2"><polygon class="cls-5" points="88.35 262.08 68.01 184.86 819.15 197.9 702.21 274.2 196.64 278.71 88.35 262.08"/><path class="cls-6" d="M374.57,194.89a64.51,64.51,0,1,0,129,0c0-.83,0-1.65-.06-2.47l-128.77-2.23C374.65,191.74,374.57,193.31,374.57,194.89Z"/><polygon class="cls-7" points="406.07 193.64 473.71 194.01 435.71 197.4 456.08 200.16 438.46 201.28 466.34 206.05 406.2 207.68 437.58 205.55 416.2 201.66 430.83 201.16 422.2 198.53 426.33 196.14 406.07 193.64"/></g><g id="land_copy_2" data-name="land copy 2"><polygon class="cls-8" points="733.89 251.3 692.25 226.1 520.35 251.3 403.57 287.65 315.06 350 542.43 331.61 747.14 316.24 733.89 251.3"/><polygon class="cls-9" points="737.64 273.62 722.63 254.73 692.25 226.1 819.03 197.84 801.15 304.87 748.14 296.85 737.64 273.62"/><polygon class="cls-8" points="697.88 290.16 660.37 260.33 692.25 226.1 778.48 248.71 801.15 304.87 748.14 296.85 697.88 290.16"/><polygon class="cls-3" points="779.14 317.57 731.13 348.33 542.43 331.61 697.13 272.78 722.88 280.13 787.15 293.5 779.14 317.57"/><polygon class="cls-8" points="813.48 279.8 787.15 293.5 731.13 348.33 858.16 304.2 813.48 279.8"/><polygon class="cls-8" points="871.16 232 832.99 199.24 819.03 197.84 778.48 248.71 829.15 277.63 874.33 258.57 871.16 232"/><polygon class="cls-8" points="267.8 237.26 268.55 266.6 346.06 263.08 346.81 234.5 323.81 233.75 298.06 231.24 267.8 237.26"/><polygon class="cls-9" points="157.7 296.85 166.53 329.78 315.06 350 497.09 281.14 343.31 251.55 324.31 257.82 282.72 257.57 174.78 248.04 157.7 296.85"/><polygon class="cls-8" points="144.03 239.02 196.54 253.56 232.04 253.56 257.55 242.53 242.04 228.99 213.54 227.48 144.03 239.02"/><polygon class="cls-8" points="179.53 225.98 196.54 253.56 135.03 276.37 86.02 263.59 77.01 220.97 179.53 225.98"/><polygon class="cls-9" points="69.01 233 84.68 235.67 86.02 263.59 63.84 283.06 53.34 270.11 69.01 233"/><polygon class="cls-10" points="127.52 222.47 155.03 228.49 196.54 253.56 213.54 227.48 154.03 201.41 127.52 222.47"/><polygon class="cls-3" points="64.51 229.99 84.68 235.67 155.03 228.49 154.03 201.41 68.01 184.86 64.51 229.99"/><polygon class="cls-8" points="35.01 209.93 23.67 237.68 53.34 270.11 84.68 235.67 68.01 184.86 35.01 209.93"/><polygon class="cls-9" points="23.67 237.68 0 208.93 68.01 184.86 23.67 237.68"/><polygon class="cls-3" points="196.54 253.56 166.53 329.78 30.26 310.22 86.02 263.59 196.54 253.56"/><polygon class="cls-9" points="874.33 258.57 832.99 199.24 900 233.75 874.33 258.57"/><polygon class="cls-9" points="778.48 248.71 874.33 258.57 858.16 304.2 787.15 293.5 778.48 248.71"/></g><g id="shadow_copy_2" data-name="shadow copy 2"><polygon class="cls-11" points="179.37 321.25 285.39 342.31 380.74 324.26 563.44 323.26 657.79 336.29 733.14 303.53 652.45 283.14 485.76 267.43 350.73 277.79 344.4 292.17 230.71 304.54 179.37 321.25"/></g><g id="chair_copy_2" data-name="chair copy 2"><polygon class="cls-12" points="307.06 307.96 306.43 314.36 296.68 314.36 290.93 305.2 308.56 303.83 307.06 307.96"/><polygon class="cls-13" points="211.41 313.48 214.29 320.86 223.29 319.5 226.92 306.96 212.79 308.34 211.41 313.48"/><polygon class="cls-14" points="231.54 289.49 266.13 326.52 280.33 322.11 282.05 314.61 304.31 308.46 306.43 314.36 313.23 311.89 311.22 279.46 231.54 289.49"/><polygon class="cls-12" points="201.2 290.83 204.54 319.91 214.29 320.86 217.54 313.23 253.92 318.62 255.66 324.87 263.21 325.6 264.22 299.52 201.2 290.83"/><polygon class="cls-1" points="264.55 277.79 249.21 304.54 299.89 295.51 311.56 276.12 264.55 277.79"/><polygon class="cls-3" points="216.87 273.11 192.2 276.46 191.87 295.51 249.21 304.54 259.21 283.81 216.87 273.11"/><polygon class="cls-2" points="246.88 264.09 192.2 276.46 248.33 293.42 295.48 284.83 282.55 260.08 246.88 264.09"/><polygon class="cls-12" points="707.95 299.49 704.04 306.55 692.76 305.36 685.3 292.01 706.5 294.14 707.95 299.49"/><polygon class="cls-13" points="591.16 296.09 596.75 306.89 608.97 305.28 617.88 292.26 591.55 292.65 591.16 296.09"/><polygon class="cls-12" points="683.95 292.01 647.31 313.78 644.46 313.39 642.3 304.51 603.12 296.6 596.75 306.89 591.93 306.23 585.57 270.92 683.95 292.01"/><polygon class="cls-14" points="714.56 268.54 713.29 303.75 704.04 306.55 702.01 298.05 679.88 304.2 678.79 313.44 678.43 313.95 661.56 282.49 714.56 268.54"/><polygon class="cls-3" points="664.44 278.75 652.23 289.97 591.67 280.79 591.16 259.87 665.97 259.87 664.44 278.75"/><polygon class="cls-1" points="693.44 262.93 722.62 254.94 722.45 279.76 656.3 290.48 654.77 267.01 693.44 262.93"/><polygon class="cls-2" points="627.97 240.65 600.41 270.07 645.95 275.77 679.87 270.58 722.62 254.94 627.97 240.65"/></g><g id="flowers_copy_2" data-name="flowers copy 2"><polygon class="cls-11" points="114.82 286.74 122.26 284.98 129.42 287.92 121.92 289.64 114.82 286.74"/><polygon class="cls-14" points="121.77 288.15 121.02 276.62 124.29 276.49 122.98 288.15 121.77 288.15"/><polygon class="cls-15" points="112.73 276.49 122.56 273.05 130.53 276.89 121.58 283.71 112.73 276.49"/><polygon class="cls-16" points="122.82 275.78 125.44 277.01 121.96 279.36 118.63 276.86 122.82 275.78"/><polygon class="cls-11" points="830.68 293.87 838.13 292.1 845.28 295.05 837.78 296.76 830.68 293.87"/><polygon class="cls-14" points="837.63 295.27 836.88 283.75 840.15 283.61 838.84 295.27 837.63 295.27"/><polygon class="cls-15" points="828.59 283.61 838.42 280.18 846.39 284.01 837.45 290.83 828.59 283.61"/><polygon class="cls-16" points="838.68 282.91 841.3 284.13 837.82 286.49 834.49 283.98 838.68 282.91"/><polygon class="cls-11" points="761.43 276.24 768.88 274.48 776.04 277.42 768.54 279.14 761.43 276.24"/><polygon class="cls-14" points="768.39 277.65 767.64 266.12 770.91 265.99 769.6 277.65 768.39 277.65"/><polygon class="cls-15" points="759.34 265.99 768.23 262.25 777.15 266.39 768.2 273.21 759.34 265.99"/><polygon class="cls-16" points="768.35 264.76 772.06 266.51 768.58 268.86 765.25 266.36 768.35 264.76"/><polygon class="cls-11" points="143.57 307.34 152.52 305.21 161.11 308.75 152.11 310.82 143.57 307.34"/><polygon class="cls-14" points="151.93 309.03 151.03 295.18 154.95 295.02 153.38 309.03 151.93 309.03"/><polygon class="cls-15" points="141.06 295.02 152.87 290.89 162.45 295.49 154.21 301 141.06 295.02"/><polygon class="cls-16" points="153.18 294.17 156.34 295.64 153.74 296.86 149.26 295.41 153.18 294.17"/><polygon class="cls-11" points="787.21 315.38 796.16 313.25 804.76 316.79 795.75 318.86 787.21 315.38"/><polygon class="cls-14" points="795.57 317.07 794.67 303.22 798.59 303.06 797.02 317.07 795.57 317.07"/><polygon class="cls-15" points="784.7 303.06 796.51 298.93 806.09 303.53 797.85 309.04 784.7 303.06"/><polygon class="cls-16" points="796.82 302.21 799.98 303.68 797.39 304.9 792.9 303.45 796.82 302.21"/><polygon class="cls-11" points="78.06 298.81 87.01 296.69 95.6 300.23 86.59 302.3 78.06 298.81"/><polygon class="cls-14" points="86.42 300.5 85.52 286.65 89.44 286.5 87.87 300.5 86.42 300.5"/><polygon class="cls-15" points="75.55 286.5 87.36 282.36 96.94 286.97 88.43 295.3 75.55 286.5"/><polygon class="cls-16" points="87.67 285.64 91.77 287.53 88.27 290.62 83.22 287.24 87.67 285.64"/><polygon class="cls-11" points="733.93 313.4 742.88 311.27 751.47 314.81 742.47 316.88 733.93 313.4"/><polygon class="cls-14" points="742.29 315.09 741.39 301.24 745.31 301.08 743.74 315.09 742.29 315.09"/><polygon class="cls-15" points="731.42 301.08 743.23 296.95 752.81 301.55 744.3 309.88 731.42 301.08"/><polygon class="cls-16" points="743.54 300.23 747.64 302.11 744.14 305.2 739.1 301.82 743.54 300.23"/><polygon class="cls-11" points="146 269.8 152.02 268.37 157.81 270.76 151.75 272.15 146 269.8"/><polygon class="cls-14" points="151.63 270.94 151.02 261.62 153.66 261.51 152.6 270.94 151.63 270.94"/><polygon class="cls-15" points="144.31 261.51 150.78 258.76 158.7 261.83 151.47 265.97 144.31 261.51"/><polygon class="cls-16" points="150.73 260.64 154.19 261.95 151.31 263.21 149.38 261.79 150.73 260.64"/><polygon class="cls-11" points="112.38 250.62 118.4 249.19 124.19 251.58 118.12 252.97 112.38 250.62"/><polygon class="cls-14" points="118 251.76 117.4 242.44 120.04 242.33 118.98 251.76 118 251.76"/><polygon class="cls-15" points="110.69 242.33 117.16 239.58 125.08 242.65 119.36 247.96 110.69 242.33"/><polygon class="cls-16" points="117.11 241.46 120.57 242.77 118.73 244.99 115.76 242.61 117.11 241.46"/><polygon class="cls-11" points="807.13 268.38 813.15 266.95 818.94 269.33 812.88 270.73 807.13 268.38"/><polygon class="cls-14" points="812.76 269.52 812.15 260.2 814.79 260.09 813.74 269.52 812.76 269.52"/><polygon class="cls-15" points="805.44 260.09 811.91 257.34 819.84 260.41 814.11 265.72 805.44 260.09"/><polygon class="cls-16" points="811.87 259.22 815.33 260.53 813.48 262.75 810.52 260.37 811.87 259.22"/></g><g id="table_copy_2" data-name="table copy 2"><polygon class="cls-13" points="397.41 282.64 403.41 299.02 413.08 295.34 422.41 267.93 396.74 266.6 397.41 282.64"/><polygon class="cls-12" points="402.41 252.56 403.41 299.02 389.74 297.68 379.07 266.6 402.41 252.56"/><polygon class="cls-12" points="576.11 288.16 569.64 306.35 552.85 305.71 543.43 270.44 570.77 266.43 576.11 288.16"/><polygon class="cls-14" points="591.61 233.5 583.11 302.7 569.64 306.35 566.61 273.62 543.1 280.63 536.62 315.31 522.1 319.25 498.09 268.1 547.1 241.02 591.61 233.5"/><polygon class="cls-13" points="350.06 293.5 361.06 313.94 374.74 308.55 390.41 267.43 352.4 268.1 350.06 293.5"/><polygon class="cls-12" points="336.06 255.56 339.56 313.23 361.06 313.94 368.07 280.63 493.59 284.65 499.58 318.5 522.1 319.25 525.6 259.57 336.06 255.56"/><polygon class="cls-1" points="559.1 221.47 602.11 216.95 599.44 249.71 525.6 259.57 500.09 229.49 559.1 221.47"/><polygon class="cls-2" points="338.56 248.54 323.56 234 407.58 217.96 602.11 216.95 526.6 236.51 509.09 253.06 338.56 248.54"/><polygon class="cls-3" points="323.56 234 526.6 236.51 525.6 259.57 324.39 257.74 323.56 234"/></g><g id="food_copy_2" data-name="food copy 2"><polygon class="cls-11" points="398.07 231.16 499.72 233.63 540.23 222.97 454.33 218.46 398.07 231.16"/><polygon class="cls-17" points="457.33 212.94 520.51 216.45 514.18 222.13 496.34 226.65 426.83 224.98 457.33 212.94"/><polygon class="cls-18" points="523.51 218.63 530.01 213.44 456 211.1 417.66 222.13 426.83 224.98 460.71 218.21 523.51 218.63"/><polygon class="cls-14" points="458.34 219.37 461.06 218.16 461.48 223.79 457.43 225.15 450.9 224.79 439.71 223.97 441.97 216.61 458.34 219.37"/><polygon class="cls-2" points="452.24 215.14 446.89 214.63 441.97 216.61 449.96 222.09 458.83 220.88 461.06 218.16 452.24 215.14"/><polygon class="cls-5" points="452.09 216.44 448.93 216.15 447.5 217.09 451.32 219.42 455.64 218.94 456.47 218.17 452.09 216.44"/><polygon class="cls-14" points="486.61 215.78 489.11 214.17 490.38 219.67 486.59 221.63 479.25 222.76 469.67 220.5 470.01 215.57 486.61 215.78"/><polygon class="cls-2" points="483.55 212.57 472.86 213 470.01 215.57 479.71 218.42 487.32 217.2 489.11 214.17 483.55 212.57"/><polygon class="cls-5" points="482.46 213.74 476.42 214.11 474.92 215.16 479.67 216.91 484.51 215.95 485.21 214.86 482.46 213.74"/><polygon class="cls-14" points="509.15 214.23 511.17 212.05 513.77 217.05 510.59 219.91 503.77 222.83 493.93 223.05 493.02 218.19 509.15 214.23"/><polygon class="cls-2" points="505.39 211.89 495.14 214.99 493.02 218.19 503.13 218.51 510.19 215.43 511.17 212.05 505.39 211.89"/><polygon class="cls-5" points="504.63 213.29 498.87 215.17 497.68 216.56 502.71 217.06 507.16 214.92 507.57 213.69 504.63 213.29"/><polygon class="cls-19" points="491.84 226.98 499.68 223.14 530.01 213.44 525.85 222.8 497.68 229.66 491.84 226.98"/><polygon class="cls-20" points="419.33 227.99 497.68 229.66 499.68 223.14 417.66 222.13 419.33 227.99"/></g><g id="_2nd_character_copy_2" data-name="2nd character copy 2"><polygon class="cls-21" points="698.08 204.59 678.75 165.48 665.35 197.79 666.87 216.33 698.08 204.59"/><polygon class="cls-22" points="562.05 187.08 549.54 190.09 528.08 191.37 531.86 186.57 526.26 187.93 521.51 177.04 558.32 179.59 562.05 187.08"/><polygon class="cls-23" points="557.81 180.61 551.45 174.66 511.67 172.11 511.67 177.21 532.37 180.44 526.26 187.93 528.13 191.5 551.7 183.84 557.81 180.61"/><polygon class="cls-22" points="596.48 181.8 580.2 177.98 561.27 175.71 552.38 187.73 559.72 193.28 588.85 202.98 596.48 181.8"/><polygon class="cls-12" points="561.27 175.71 551.45 174.66 549.54 190.09 559.72 193.28 561.27 175.71"/><polygon class="cls-23" points="601.32 176.45 580.2 177.98 588.85 202.98 610.48 201.45 601.32 176.45"/><polygon class="cls-21" points="615.82 170.32 610.56 164.12 580.2 177.98 610.48 201.45 615.82 170.32"/><polygon class="cls-18" points="566.05 291.17 552.72 301.19 552.89 306.3 591.97 306.38 592.48 301.1 566.05 291.17"/><polygon class="cls-19" points="584 274.23 574.6 283.85 566.05 291.17 577.82 300.85 592.48 301.1 593.5 284.78 584 274.23"/><polygon class="cls-22" points="602.66 239.54 577.98 246.34 574.6 283.85 593.5 284.78 605.71 258.59 602.66 239.54"/><polygon class="cls-12" points="643.45 265.98 600.42 270.07 577.98 246.34 610.21 236.39 664.48 252.55 643.45 265.98"/><polygon class="cls-18" points="664.21 300.65 678.79 313.44 678.41 319.05 647.01 319.39 647.01 313.77 664.21 300.65"/><polygon class="cls-19" points="667.17 289.97 672.87 297.63 678.79 313.44 664.34 303.96 647.01 313.77 650.12 297.71 667.17 289.97"/><polygon class="cls-22" points="661.94 263.6 679.81 271.09 672.87 297.63 650.12 297.71 645.84 275.68 661.94 263.6"/><polygon class="cls-24" points="651.34 215.47 678.82 234.86 679.81 271.09 645.84 275.68 638.04 260.89 651.34 215.47"/><polygon class="cls-13" points="661.52 224.15 678.82 234.86 638.04 260.89 610.21 236.39 661.52 224.15"/><polygon class="cls-21" points="626.67 159.69 619.47 161.65 614.98 178.59 629.3 225.43 665.94 219.81 673.72 186.82 669.53 162.54 661.74 159.85 626.67 159.69"/><polygon class="cls-19" points="667.25 84.08 686.21 99.58 676.12 112.67 652.5 94.09 649.25 77.51 667.25 84.08"/><polygon class="cls-21" points="641.18 64.63 674 59.27 686.21 99.58 653.64 84.01 650.94 81.03 641.18 64.63"/><polygon class="cls-19" points="643.72 68.71 616.5 47.45 593.85 71.26 619.38 93.28 643.72 68.71"/><polygon class="cls-20" points="627.18 79.42 631.76 69.98 616.5 47.45 674 59.27 650.94 81.03 627.18 79.42"/><polygon class="cls-23" points="631.76 69.98 601.65 76.61 600.96 78.36 595.05 143.84 616.71 147.33 644.82 152.21 650.35 101.89 650.94 81.03 631.76 69.98"/><polygon class="cls-22" points="627.16 151.03 595.05 143.84 642.17 148.1 647.35 100.14 650.94 81.03 661.53 94.98 660.37 102.83 654.28 115.52 657.59 116.1 660.65 115 663.28 116.34 665.76 109.38 669.65 114.33 674.01 116.29 668.31 121.93 666.08 128.37 667.59 131.68 666.67 141.43 663.79 160.63 644.24 165.81 627.16 151.03"/><polygon class="cls-21" points="599.25 97.39 593.85 71.26 601.65 76.61 599.25 97.39"/><polygon class="cls-22" points="641.59 97.88 645.88 104.04 628.15 106.49 624.13 113.52 645.52 116.82 622.69 117.01 621.05 108.13 623.54 100.79 624.79 95.42 641.59 97.88"/><polygon class="cls-22" points="615.06 94.86 615.77 97.49 614.38 98.98 615.56 100.42 616.69 105.66 612.34 115.99 597.79 112.77 610.89 111.78 606.72 102.25 598.48 99.32 601.85 96.06 608.74 93.31 615.06 94.86"/><polygon class="cls-21" points="626.5 89.97 641.26 94.05 641.59 97.88 624.79 95.42 626.5 89.97"/><polygon class="cls-21" points="613.53 89.2 602.33 92.26 601.85 96.06 615.06 94.86 613.53 89.2"/><polygon class="cls-25" points="615.56 100.42 612.34 115.99 617.25 118.38 622.69 117.09 623.54 100.79 615.56 100.42"/><polygon class="cls-22" points="660.94 120.11 659.28 123.72 670.12 129.57 674.81 116.95 665.76 109.38 660.94 120.11"/><polygon class="cls-21" points="661.53 94.98 654.28 115.52 661.31 119.36 665.76 109.38 674.81 116.95 676.12 112.67 661.53 94.98"/><polygon class="cls-26" points="671.09 119.33 667.04 115.94 664.12 122 671.09 119.33"/><polygon class="cls-26" points="670.12 129.57 664.29 126.45 666.67 141.43 670.12 129.57"/><polygon class="cls-26" points="612.34 115.99 617 120.83 622.69 117.09 612.34 115.99"/><path class="cls-27" d="M626.78,106.73a3.22,3.22,0,1,0,2.92-3.5A3.23,3.23,0,0,0,626.78,106.73Z"/><path class="cls-27" d="M604.23,105.07a3.22,3.22,0,1,0,2.91-3.51A3.22,3.22,0,0,0,604.23,105.07Z"/><polygon class="cls-26" points="651.33 148.22 595.05 143.84 622.25 152.98 632.78 169.39 644.24 165.81 651.33 148.22"/><polygon class="cls-26" points="607.4 123.24 629.35 123.94 624.51 138.14 607.97 136.74 607.4 123.24"/><polygon class="cls-16" points="609.8 125.34 626.08 126.36 624.76 130.29 610.2 128.96 609.8 125.34"/><polygon class="cls-24" points="619.47 161.65 623.11 184.35 644.76 195.16 662.23 187.08 669.53 162.54 678.75 165.48 678.52 206.63 610.48 201.45 610.56 164.12 619.47 161.65"/><polygon class="cls-13" points="623.11 184.35 662.23 187.08 678.52 206.63 678.82 234.86 610.21 236.39 610.48 201.45 623.11 184.35"/><polygon class="cls-12" points="597.41 95.49 615.9 97.53 615.56 100.42 600.13 98.72 599.2 109.82 613.4 110.89 612.76 113.95 595.89 112.58 597.41 95.49"/><polygon class="cls-12" points="623.9 98.13 647.35 100.14 645.52 116.82 622.75 114.65 622.94 111.46 642.87 113.35 644.12 102.59 623.54 100.79 623.9 98.13"/><polygon class="cls-26" points="650.5 204.34 658.22 209.02 648.04 214.46 650.5 204.34"/><polygon class="cls-9" points="634.26 205.23 627.44 198.78 640.72 195.16 653.56 198.58 638.16 209.53 634.26 205.23"/><polygon class="cls-28" points="634.55 208.38 630.7 200.81 641.01 198.31 652.34 200.51 638.45 212.68 634.55 208.38"/><polygon class="cls-10" points="636.21 208.75 639.72 200.73 653.56 198.58 650.83 225.75 639.13 228.49 636.21 208.75"/><polygon class="cls-1" points="627.44 198.78 631.34 226.14 639.13 228.49 639.72 200.73 627.44 198.78"/><polygon class="cls-22" points="646.35 212.93 639.73 205.7 628.88 209.02 630.91 222.71 639.23 224.92 646.35 212.93"/><polygon class="cls-23" points="664.67 212.93 658.22 209.02 639.73 205.7 639.23 224.92 658.9 223.47 664.67 212.93"/><polygon class="cls-22" points="658.22 209.02 698.08 204.59 692.14 226.19 658.9 223.47 658.22 209.02"/></g><g id="main_character_copy_2" data-name="main character copy 2"><polygon class="cls-29" points="359.51 177.6 367.72 189.44 365.89 192 354.31 187.18 345.43 176.65 359.51 177.6"/><polygon class="cls-30" points="339.84 187.68 347.04 197.41 359.94 194.39 348.38 181.47 339.84 187.68"/><polygon class="cls-20" points="329.89 164.8 326.39 167.81 383.24 209.1 384.57 206.76 329.89 164.8"/><polygon class="cls-12" points="385.03 204.88 387.28 199.36 391.91 207.26 391.53 211.94 382.32 218.79 372.53 217.33 368.57 210.96 385.03 204.88"/><polygon class="cls-2" points="377.97 198.48 371.03 202.62 368.57 210.96 379.32 213.21 387.2 207.05 387.28 199.36 377.97 198.48"/><polygon class="cls-5" points="378.19 202.12 375.09 203.97 373.99 207.69 378.8 208.7 382.32 205.95 382.36 202.51 378.19 202.12"/><polygon class="cls-29" points="191 191.71 187.73 180.65 175.33 171.57 168.71 180.12 177.99 192.16 191 191.71"/><polygon class="cls-30" points="197.92 186.52 197.92 185.38 187.73 180.65 177.99 192.16 190.77 199.33 202.03 198.42 197.92 186.52"/><polygon class="cls-31" points="202.03 199.33 202.33 191.4 202.48 181.72 196.7 172.03 194.19 173.94 196.85 181.72 195.49 189.57 202.03 199.33"/><polygon class="cls-31" points="309.32 310.77 310.1 318.66 321.72 318.66 325.56 316.77 328.85 313.58 318.57 303.22 313.56 303.05 309.32 310.77"/><polygon class="cls-29" points="310.1 318.66 309.49 312.49 316.29 318.66 332.97 310.2 340.47 318.66 310.1 318.66"/><polygon class="cls-31" points="263.85 312.58 258.7 319.12 256.96 329.5 266.14 329.5 270.41 325.78 274.95 320.3 271.44 314.2 263.85 312.58"/><polygon class="cls-29" points="274.5 319.82 283.76 329.5 256.96 329.5 258.14 322.47 262.99 329.5 274.5 319.82"/><polygon class="cls-30" points="315.99 300.62 311.89 301.02 308.53 302.88 309.32 310.77 318.57 303.22 315.99 300.62"/><polygon class="cls-30" points="260.01 311.33 263.31 309.29 268.67 309.39 271.44 314.2 258.7 319.12 260.01 311.33"/><polygon class="cls-12" points="303.25 252.35 286.03 259.33 263.21 270.77 295.48 284.83 309.81 296.18 327.72 275.24 303.25 252.35"/><polygon class="cls-28" points="295.48 284.83 299.23 295.54 313.83 286.59 327.72 275.24 295.48 284.83"/><polygon class="cls-5" points="299.23 295.54 327.72 275.24 333.35 295.35 316.34 297.03 299.23 295.54"/><polygon class="cls-28" points="299.23 295.54 302.98 304.56 333.35 295.35 299.23 295.54"/><polygon class="cls-24" points="272.8 267.47 285.26 287.03 262.55 302.2 248.33 293.42 230.88 281.47 232.78 253.86 259.8 254.39 272.8 267.47"/><polygon class="cls-28" points="285.26 287.03 266.46 297.94 249.27 305.07 248.33 293.42 285.26 287.03"/><polygon class="cls-5" points="285.26 287.03 287.13 305.26 266.47 306.21 249.27 305.07 285.26 287.03"/><polygon class="cls-28" points="249.27 305.07 287.13 305.26 250.21 313.53 249.27 305.07"/><polygon class="cls-21" points="283.14 165.75 293.64 170.4 297.58 175.41 303.16 174.64 313.65 185.35 310.64 195.18 302.97 206.59 236.24 208.28 228.26 201.53 222.19 193.25 237.18 174.45 242.89 173.71 245.78 170.76 254.37 167.08 267.64 176.65 283.14 165.75"/><polygon class="cls-32" points="303.25 252.35 272.8 267.47 232.78 253.86 236.24 208.28 241.9 201.83 247.58 198.6 292.01 196.16 297.26 198.94 302.97 206.59 303.25 252.35"/><polygon class="cls-31" points="236.24 208.28 227.28 215.5 213.28 203.77 222.19 193.25 236.24 208.28"/><polygon class="cls-31" points="328.28 197.85 313.65 185.35 302.97 206.59 313.75 210.25 323.6 206.81 328.28 197.85"/><polygon class="cls-24" points="303.16 174.64 302.97 206.59 292.01 196.16 293.64 170.4 303.16 174.64"/><polygon class="cls-24" points="245.78 170.76 247.58 198.6 236.24 208.28 237.18 174.45 245.78 170.76"/><rect class="cls-33" x="258.46" y="208.31" width="29.98" height="30.64"/><polygon class="cls-29" points="313.75 210.25 339.84 187.68 348.5 187.18 347.04 197.41 332.39 216.29 313.75 210.25"/><polygon class="cls-19" points="329.63 164.94 325.9 167.68 379.32 213.21 381.23 211.72 329.63 164.94"/><polygon class="cls-31" points="343.96 193.25 346.6 187.47 354.89 188.46 356.93 185.27 345.43 176.65 339.84 187.68 343.96 193.25"/><polygon class="cls-29" points="202.33 191.4 227.28 215.5 213.59 227.4 190.77 199.33 202.33 191.4"/><polygon class="cls-5" points="229.26 97.94 270.67 95.74 314.19 91.33 314.73 85.26 312.99 75.92 270.42 86.4 229.26 97.94"/><polygon class="cls-28" points="312.99 75.92 269.17 78.48 224.34 84.13 225.13 89.91 229.26 97.94 312.99 75.92"/><polygon class="cls-13" points="266.19 68.81 259.99 80.83 277.63 79.19 266.19 68.81"/><polygon class="cls-13" points="312.99 75.92 319.27 79.42 325.58 86.11 314.55 98.01 313.39 93.81 314.19 91.33 312.99 75.92"/><polygon class="cls-5" points="312.99 75.92 313.4 68.9 316.71 60.29 322.89 74.66 325.58 86.11 312.99 75.92"/><polygon class="cls-24" points="316.71 60.29 336.6 78.55 325.58 86.11 316.71 60.29"/><polygon class="cls-32" points="312.99 75.92 316.71 60.29 318.8 51.7 299.31 65.81 297.57 77.34 312.99 75.92"/><polygon class="cls-24" points="312.57 56.63 296.38 40.97 291.62 48.74 289.18 55.13 294.66 62.04 300.28 66.35 312.57 56.63"/><polygon class="cls-5" points="300.28 66.35 289.18 55.13 283.35 64.35 277.63 79.19 297.57 77.34 300.28 66.35"/><polygon class="cls-5" points="296.38 40.97 268.02 49.86 281.84 54.04 289.18 55.13 296.38 40.97"/><polygon class="cls-24" points="289.18 55.13 268.02 49.86 270.64 60.96 277.63 79.19 289.18 55.13"/><polygon class="cls-13" points="217.25 101.13 232.82 107.77 231.35 101.58 229.26 97.94 223.62 98.24 217.25 101.13"/><polygon class="cls-5" points="277.63 79.19 266.65 70.14 259.62 65.44 255.66 61.09 258.99 53.96 263.19 48.56 266.06 43.78 268.02 49.86 277.63 79.19"/><polygon class="cls-24" points="255.66 61.09 249.04 57.53 243.04 50.65 242.92 43.03 263.19 48.56 255.66 61.09"/><polygon class="cls-32" points="255.66 61.09 243.04 50.65 234.19 58.79 237.22 68.92 242.95 82.4 252.16 69.33 255.66 61.09"/><polygon class="cls-32" points="217.55 84.84 210.89 102.81 229.26 97.94 224.34 84.13 221.3 83.38 217.55 84.84"/><polygon class="cls-24" points="234.19 58.79 226.45 64.89 223.16 69.94 230.14 74.72 242.95 82.4 234.19 58.79"/><polygon class="cls-5" points="234.19 58.79 210.28 62.14 223.16 69.94 234.19 58.79"/><polygon class="cls-5" points="223.16 69.94 207.32 85.91 224.34 84.13 242.95 82.4 223.16 69.94"/><polygon class="cls-24" points="255.66 61.09 242.95 82.4 250.27 96.31 259.99 80.83 266.65 70.14 255.66 61.09"/><polygon class="cls-31" points="314.19 91.33 317.42 150.87 290.57 155.15 286.12 160.51 278.25 166.36 270.12 173.31 265.44 164.27 249.11 149.03 241.37 131.29 235.53 115.23 235.05 107.77 229.26 97.94 314.19 91.33"/><polygon class="cls-30" points="250.09 124.15 247.16 116.12 239.51 118.43 245.03 122.42 250.09 124.15"/><polygon class="cls-29" points="262.89 95.32 273.96 157.67 282.95 159.31 283.14 165.75 272.69 181.34 254.47 167.41 250 155.11 249.38 149.87 247.22 147.43 241.37 131.29 256.07 125.88 253.26 116.81 261.29 113.91 255.04 95.94 262.89 95.32"/><polygon class="cls-29" points="274.44 106.3 282.15 107.69 288.73 121.33 289.68 106.89 286.13 98.8 274.44 106.3"/><polygon class="cls-29" points="296.78 97.75 296.8 117.11 302.9 104.72 309.99 102.01 296.78 97.75"/><polygon class="cls-32" points="286.13 98.8 273.24 101.07 274.44 106.3 286.13 98.8"/><polygon class="cls-32" points="296.78 97.75 309.83 96.65 309.99 102.01 296.78 97.75"/><polygon class="cls-32" points="255.04 95.94 261.29 113.91 253.26 116.81 250.63 109.95 235.53 115.23 229.26 97.94 255.04 95.94"/><polygon class="cls-30" points="290.57 155.15 267.95 158.58 283.14 165.75 290.57 155.15"/><polygon class="cls-30" points="255.16 130.32 249.54 142.47 244.2 133.78 255.16 130.32"/><polygon class="cls-30" points="263.34 141.5 250 155.11 247.26 147.41 253.05 143.12 263.34 141.5"/><path class="cls-13" d="M257.45,125.38l5.89,16.12-16.08,5.91-5.9-16.12,16.09-5.91Zm-11.16,8.2,3.25,8.89,8.87-3.26-3.25-8.89Z"/><polygon class="cls-34" points="248.94 120.98 245.03 122.42 249.54 134.78 253.45 133.34 248.94 120.98"/><polygon class="cls-35" points="296.78 97.75 286.13 98.8 288.73 121.33 299.2 120.19 296.78 97.75"/><polygon class="cls-30" points="299.2 120.19 294.53 126.01 288.73 121.33 299.2 120.19"/><path class="cls-36" d="M284.73,114.32a3.15,3.15,0,1,1-2.52-3.69A3.16,3.16,0,0,1,284.73,114.32Z"/><path class="cls-36" d="M307,111.3a3.15,3.15,0,1,1-2.52-3.69A3.16,3.16,0,0,1,307,111.3Z"/><polygon class="cls-13" points="303.5 131.98 284.53 136.84 291.55 141.85 300.58 141.82 305.57 132.11 303.5 131.98"/><polygon class="cls-16" points="301.6 132.26 283.3 133.87 287.71 137.88 303.15 136.57 305.27 132.69 301.6 132.26"/><polygon class="cls-13" points="279.94 133.56 294.81 131.18 307.18 131.01 303.52 135.94 303.57 132.95 294.99 134.53 284.74 134.71 283.83 135.5 279.94 133.56"/><polygon class="cls-34" points="307.18 131.01 303.57 132.95 300.03 140.7 292.4 140.99 284.74 134.71 279.94 133.56 291.53 143.96 301.37 143.06 307.18 131.01"/></g></g></svg>