<svg xmlns="http://www.w3.org/2000/svg" viewBox="0 0 900 350"><defs><style>.cls-1,.cls-8{fill:#f3d65d;}.cls-2{fill:#dddddc;}.cls-3{fill:#ececeb;}.cls-4{fill:#ffe783;}.cls-12,.cls-13,.cls-14,.cls-21,.cls-22,.cls-23,.cls-24,.cls-25,.cls-26,.cls-27,.cls-28,.cls-29,.cls-30,.cls-31,.cls-32,.cls-33,.cls-34,.cls-35,.cls-36,.cls-37,.cls-4,.cls-5,.cls-50,.cls-6,.cls-7,.cls-8{fill-rule:evenodd;}.cls-5{fill:#cbac14;}.cls-6{fill:#e4c728;}.cls-19,.cls-7{fill:#bb8e2d;}.cls-21,.cls-9{fill:#2b2b2b;opacity:0.1;}.cls-10,.cls-12{fill:#cfcecd;}.cls-11,.cls-14{fill:#c4c4c3;}.cls-13{fill:#b2b2b2;}.cls-15{fill:#f1bc68;}.cls-16{fill:#858686;}.cls-17{fill:#e1a842;}.cls-18,.cls-36{fill:#737474;}.cls-20,.cls-50{fill:#6f7173;}.cls-22{fill:#c2977b;}.cls-23{fill:#8a6651;}.cls-24{fill:#debca4;}.cls-25,.cls-40{fill:#4f5253;}.cls-26{fill:#848585;}.cls-27,.cls-44{fill:#707274;}.cls-28{fill:#846400;}.cls-29{fill:#755800;}.cls-30,.cls-48{fill:#fff;}.cls-31{fill:#e7c9b5;}.cls-32,.cls-47{fill:#2a2b2a;}.cls-33{fill:#eed2c1;}.cls-34{fill:#cfae95;}.cls-35{fill:#a8836c;}.cls-37{fill:#f6e5db;}.cls-38{fill:#9ca0a1;}.cls-39{fill:#593e35;}.cls-41{fill:#a17e6e;}.cls-42{fill:#7f5d4e;}.cls-43{fill:#474747;}.cls-45{fill:#494849;}.cls-46{fill:#a98c80;}.cls-49{fill:#484748;}</style></defs><title>explorers_Adventurer_ISFP_friendships</title><g id="ILLUSTRATION_copy" data-name="ILLUSTRATION copy"><g id="clouds_copy" data-name="clouds copy"><ellipse class="cls-1" cx="543.43" cy="115.97" rx="28.22" ry="28.24" transform="translate(426.82 659.27) rotate(-89.93)"/><polygon class="cls-2" points="50.76 62.59 62.79 70.47 96.75 66.38 123.22 71.93 93.01 82.16 71.7 79.53 46.93 85.76 4.77 71.35 50.76 62.59"/><polygon class="cls-2" points="512.19 120.81 456.89 126.27 514.58 145.62 547.08 146.62 567.5 144.79 628.01 128.95 567.5 116.51 535.54 128.58 512.19 120.81"/><polygon class="cls-3" points="628.01 128.95 571.21 113.04 541.5 121.97 515.38 115.52 456.89 126.27 506.89 125.94 528.64 134.7 563.26 128.09 628.01 128.95"/><polygon class="cls-3" points="4.77 71.35 47.28 58.5 64.66 66.67 92.2 61.71 123.22 71.93 89.8 69.3 61.72 75.14 44.08 69.3 4.77 71.35"/><polygon class="cls-2" points="718.61 4.09 706.58 11.98 672.62 7.89 614.09 14.22 674.78 27.38 693.61 24.72 722.44 27.26 793.81 13.89 718.61 4.09"/><polygon class="cls-3" points="793.81 13.89 722.08 0 703.28 6.22 677.16 3.21 614.09 14.22 679.57 10.81 707.64 16.65 725.29 10.81 793.81 13.89"/></g><g id="water_copy" data-name="water copy"><polygon class="cls-4" points="614.43 225.35 617.43 246.68 695.45 239.18 630.1 211.02 614.43 225.35"/><polygon class="cls-5" points="840.9 176.86 815.89 250.1 780.14 230.6 808.89 170.61 840.9 176.86"/><polygon class="cls-6" points="720.87 103.62 768.88 201.86 799.76 185.27 783.89 90.12 720.87 103.62"/><polygon class="cls-5" points="705.37 117.12 737.13 179.86 769.13 196.11 769.63 185.86 729.12 111.37 705.37 117.12"/><polygon class="cls-7" points="745.13 117.87 748.38 129.12 769.63 185.86 726.12 126.12 745.13 117.87"/><polygon class="cls-6" points="853.4 109.37 857.16 198.36 813.64 183.86 817.4 115.37 853.4 109.37"/><polygon class="cls-5" points="847.15 117.62 841.9 139.37 850.4 186.36 871.16 150.61 847.15 117.62"/><polygon class="cls-5" points="873.16 154.11 889.91 113.87 899.67 184.36 855.9 198.86 850.4 186.36 854.65 159.86 873.16 154.11"/><polygon class="cls-8" points="880.16 138.37 889.91 113.87 836.15 82.38 747.13 69.88 688.61 87.62 687.86 105.12 672.86 123.37 684.36 131.12 767.13 122.37 823.9 146.62 839.4 132.12 854.65 133.87 870.16 153.11 880.16 138.37"/><polygon class="cls-5" points="774.13 196.11 769.63 185.86 737.13 179.86 717.87 237.85 777.89 237.1 774.13 196.11"/><polygon class="cls-5" points="778.39 186.11 769.63 185.86 755.38 224.58 787.89 226.6 788.14 186.61 778.39 186.11"/><polygon class="cls-5" points="861.16 196.86 850.4 186.36 823.98 185.36 810.14 239.35 838.65 240.85 861.16 196.86"/><polygon class="cls-6" points="830.4 262.85 826.15 236.35 779.39 226.35 755.38 224.58 709.62 266.1 788.39 282.84 830.4 262.85"/><polygon class="cls-9" points="754.71 223.77 753.42 246.64 779.39 253.97 796.47 247.18 813.14 232.85 823.98 185.36 754.71 223.77"/><polygon class="cls-5" points="835.15 255.85 826.15 236.35 850.4 186.36 851.65 243.1 835.15 255.85"/><polygon class="cls-5" points="861.41 235.6 899.67 184.36 850.4 186.36 840.4 243.6 861.41 235.6"/><polygon class="cls-6" points="845.65 256.1 840.4 243.6 899.67 184.36 852.9 264.85 845.65 256.1"/><polygon class="cls-8" points="782.39 269.1 752.88 283.84 750.13 268.51 826.15 236.35 782.39 269.1"/><polygon class="cls-6" points="846.4 263.1 840.4 243.6 826.15 236.35 781.39 290.59 846.4 263.1"/><polygon class="cls-5" points="751.13 276.1 826.15 236.35 801.64 277.18 840.4 243.6 900 276.18 768.13 291.84 751.13 276.1"/><polygon class="cls-5" points="693.36 247.85 683.86 269.35 724.79 258.51 755.38 224.58 693.36 247.85"/><polygon class="cls-5" points="674.28 262.85 696.95 259.85 755.38 224.58 696.78 239.52 601.42 251.35 649.44 276.85 674.28 262.85"/><polygon class="cls-4" points="766.47 287.01 801.64 277.18 750.13 268.51 724.79 258.51 696.95 259.85 681.28 252.01 624.6 257.18 751.8 304.67 766.47 287.01"/><polygon class="cls-8" points="871.83 284.34 900 276.18 801.64 277.18 743.46 281.84 712.95 272.51 672.94 273.85 744.29 311.17 871.83 284.34"/><polygon class="cls-4" points="845.82 294.68 875.99 287.84 900 276.18 827.65 286.01 788.97 284.34 753.63 297.18 809.64 312.17 845.82 294.68"/><path class="cls-8" d="M810.48,311.67c2,0,38.84-10.5,38.84-10.5L876,287.84,836.15,289l-40,14.16Z"/><polygon class="cls-5" points="793.47 317.84 849.32 301.17 753.63 297.18 724.79 314.17 744.46 323.5 793.47 317.84"/><polygon class="cls-8" points="716.45 298.51 739.79 313.01 849.32 301.17 783.47 335.5 632.93 326.84 716.45 298.51"/><polygon class="cls-8" points="617.43 246.68 669.27 245.18 695.45 239.18 619.26 235.68 617.43 246.68"/><polygon class="cls-6" points="554.91 236.02 619.26 235.68 669.27 245.18 624.6 257.18 537.91 247.85 554.91 236.02"/><polygon class="cls-6" points="594.76 235.52 619.26 235.68 639.6 228.69 580.75 227.52 583.09 235.68 594.76 235.52"/><polygon class="cls-8" points="568.58 232.52 552.58 226.19 622.1 222.85 622.76 225.85 639.6 228.69 568.58 232.52"/><polygon class="cls-4" points="528.07 237.52 566.75 243.85 624.6 257.18 518.9 255.01 528.07 237.52"/><polygon class="cls-8" points="518.4 244.02 518.4 232.69 552.58 226.19 566.41 228.85 619.26 235.68 566.75 243.85 520.74 244.01 518.4 244.02"/><polygon class="cls-6" points="536.57 264.35 532.91 248.52 566.75 243.85 518.43 233.25 429.21 255.01 481.56 281.18 536.57 264.35"/><polygon class="cls-8" points="523.07 269.51 530.57 279.84 445.72 260.68 532.91 248.52 624.6 257.18 523.07 269.51"/><polygon class="cls-6" points="618.43 277.35 672.94 273.85 624.6 257.18 527.9 261.85 479.39 256.01 530.57 279.84 618.43 277.35"/><polygon class="cls-5" points="671.61 280.68 672.94 273.85 597.76 269.18 530.57 279.84 669.44 297.51 671.61 280.68"/><polygon class="cls-4" points="595.26 300.17 577.59 290.48 512.9 285.01 530.57 279.84 621.76 283.01 672.94 273.85 753.63 297.18 595.26 300.17"/><polygon class="cls-6" points="662.11 311.51 739.79 313.01 753.63 297.18 682.95 284.84 577.59 290.48 536.24 308.34 555.41 321.34 662.11 311.51"/><polygon class="cls-6" points="568.42 326.34 562.25 331 653.44 350 783.47 335.5 666.11 320.84 580.75 321.17 568.42 326.34"/><polygon class="cls-5" points="576.92 321.17 559.91 306.67 656.61 302.34 739.79 313.01 666.11 320.84 594.09 321.11 576.92 321.17"/><polygon class="cls-8" points="543.24 315.17 562.25 331 666.11 320.84 559.91 306.67 543.24 315.17"/><polygon class="cls-8" points="535.91 320 559.91 306.67 577.59 290.48 443.55 306.01 449.69 319.05 535.91 320"/><polygon class="cls-6" points="496.56 328.17 562.25 331 559.91 306.67 449.69 319.05 496.56 328.17"/><polygon class="cls-5" points="432.05 338.67 478.23 338.83 562.25 331 449.69 319.05 389.04 326.5 394.7 340 432.05 338.67"/><polygon class="cls-6" points="338.69 338.5 352.53 349.83 478.23 338.83 395.87 332.17 338.69 338.5"/><polygon class="cls-8" points="230 339.58 352.53 349.83 449.69 319.05 258 317.84 230 339.58"/><polygon class="cls-4" points="889.91 113.87 878.16 161.36 854.65 159.86 852.65 138.37 841.9 139.37 825.9 159.61 765.63 129.87 748.38 129.12 670.61 140.37 664.11 117.37 682.61 102.37 688.61 87.62 692.36 107.12 684.11 115.87 691.11 126.62 751.98 114.15 766.92 115.49 778.89 116.12 809.77 135.04 822.4 139.62 833.4 126.12 869.66 127.37 869.91 138.87 889.91 113.87"/><polygon class="cls-1" points="695.49 142.12 687.61 145.74 696.49 151.36 695.49 142.12"/><polygon class="cls-1" points="703.74 151.49 719.5 177.86 721.62 177.74 706.62 145.37 703.74 151.49"/><polygon class="cls-1" points="749.88 222.98 745.5 223.73 745.5 216.6 750 216.73 749.88 222.98"/><polygon class="cls-1" points="748.88 210.98 748.63 201.36 752.75 204.23 748.88 210.98"/><polygon class="cls-1" points="819.27 221.48 824.27 216.98 827.52 221.48 819.27 221.48"/><polygon class="cls-1" points="826.52 207.85 830.02 199.61 832.77 203.86 828.52 209.6 826.52 207.85"/><polygon class="cls-1" points="716.12 178.86 708.62 166.61 708.12 171.61 714.87 181.11 716.12 178.86"/><polygon class="cls-1" points="814.52 229.98 821.27 224.23 825.52 233.23 814.52 229.98"/></g><g id="hill_copy" data-name="hill copy"><polygon class="cls-10" points="298.01 205.86 258 167.53 252 168.86 223.18 196.73 271.01 206.19 298.01 205.86"/><polygon class="cls-11" points="270.01 183.19 258.34 185.19 184.42 209.42 206.32 223.52 264.34 219.85 270.01 183.19"/><polygon class="cls-2" points="435.55 197.86 422.55 177.36 380.53 168.36 321.52 193.36 410.04 234.85 435.55 197.86"/><polygon class="cls-11" points="521.07 218.85 468.06 188.86 422.55 177.36 373.03 192.86 434.55 242.35 521.07 218.85"/><polygon class="cls-10" points="582.09 196.86 570.08 184.86 468.06 188.86 449.55 212.85 573.08 217.35 582.09 196.86"/><polygon class="cls-2" points="646.6 216.35 634.1 198.86 570.08 184.86 545.58 200.36 622.1 222.85 646.6 216.35"/><polygon class="cls-2" points="549.58 213.35 466.06 216.85 373.03 192.86 187.49 214.35 496.06 235.85 549.58 213.35"/><polygon class="cls-11" points="656.11 222.35 545.58 200.36 422.05 216.35 511.4 233.85 561.41 229.52 656.11 222.35"/><polygon class="cls-10" points="696.78 239.52 719.62 233.85 634.1 198.86 566.41 228.85 622.76 225.85 696.78 239.52"/></g><g id="land_copy" data-name="land copy"><polygon class="cls-12" points="191.32 329.84 187.24 349.83 449.69 319.05 255 294.51 191.32 329.84"/><polygon class="cls-13" points="335.52 275.35 263.67 307.17 187.24 349.83 45.7 329.59 335.52 275.35"/><polygon class="cls-14" points="181.6 230.42 211.98 213.68 276.82 216.8 268.48 242.25 241.39 236.27 181.6 230.42"/><polygon class="cls-13" points="188.97 240.02 189.27 222.76 219.64 239.72 277.42 230.5 278.01 267.41 207.14 278.72 188.97 240.02"/><polygon class="cls-12" points="118.4 268.89 57.5 245.23 121.97 221.86 173.78 225.73 241.39 236.27 209.82 278.72 118.4 268.89"/><polygon class="cls-12" points="183.16 285.56 213.54 277.08 219.79 266.37 299.75 254.31 285.01 288.69 213.99 297.62 183.16 285.56"/><polygon class="cls-14" points="49.61 286.01 0 276.97 57.5 245.23 212.35 266.37 210.64 296.28 49.61 286.01"/><polygon class="cls-14" points="0 276.97 204.38 282.77 279.2 301.34 45.7 329.59 0 276.97"/><polygon class="cls-13" points="418.12 252.75 386.85 264.58 278.08 293.38 308.91 235.33 419.91 227.07 418.12 252.75"/><polygon class="cls-12" points="431.44 245.16 373.15 246.5 364.29 242.33 380.29 216.13 429.43 215.24 518.39 233.25 431.44 245.16"/><polygon class="cls-14" points="453.41 278.64 386.85 264.58 367.87 247.61 518.43 233.25 446.41 260.56 453.41 278.64"/><polygon class="cls-14" points="434.65 272.17 386.85 264.58 204.66 282.67 45.7 329.59 262.68 307.44 465.02 305.21 434.65 272.17"/><polygon class="cls-12" points="467.7 298.51 430.18 286.01 386.85 264.58 446.41 260.56 577.59 290.48 467.7 298.51"/><polygon class="cls-13" points="460.56 299.41 430.18 286.01 262.68 307.44 449.69 319.05 460.56 299.41"/><polygon class="cls-14" points="430.18 286.01 449.69 319.05 577.59 290.48 430.18 286.01"/></g><g id="bottle_and_star_copy" data-name="bottle and star copy"><polygon class="cls-9" points="442.3 287.97 426.05 286.59 435.92 298.22 435.3 314.71 454.8 304.71 474.56 308.59 442.3 287.97"/><polygon class="cls-9" points="58.12 264.34 89.56 254.79 121.47 266.13 88.97 277.22 58.12 264.34"/><polygon class="cls-15" points="79.63 250.04 76.24 237.73 91.43 233.04 104.15 237.73 89.2 253.57 79.63 250.04"/><polygon class="cls-16" points="86.97 228.91 85.12 222.14 89.42 220.19 94.33 222.14 89.35 229.51 86.97 228.91"/><polygon class="cls-17" points="86.97 232.67 89.65 227.48 92.27 224.49 94.81 226.05 96.18 237.26 89.72 238.76 86.97 232.67"/><polygon class="cls-18" points="86.97 232.67 89.65 223.5 94.33 222.14 94.81 226.05 89.65 227.48 86.97 232.67"/><polygon class="cls-17" points="84.75 256.38 89.3 241.54 104.15 237.73 104.42 266.58 90.29 270.22 84.75 256.38"/><polygon class="cls-19" points="76.24 237.73 74.65 264.78 90.29 270.22 89.3 241.54 76.24 237.73"/><polygon class="cls-20" points="84.65 225.88 85.12 222.14 89.65 223.5 89.65 227.48 87.09 232.08 84.65 225.88"/><polygon class="cls-19" points="83.26 237.33 84.65 225.88 89.65 227.48 89.72 238.76 83.26 237.33"/><polygon class="cls-15" points="100.78 247.48 92.91 249.14 93.21 258.69 101.3 257.18 100.78 247.48"/><polygon class="cls-15" points="450.18 271.6 443.68 282.84 426.05 286.59 441.18 295.34 438.8 309.21 454.93 302.34 474.56 308.59 464.43 294.22 474.18 287.34 459.68 283.59 450.18 271.6"/><polygon class="cls-17" points="443.68 282.84 426.05 286.59 441.18 295.34 438.8 309.21 454.93 302.34 474.56 308.59 464.43 294.22 453.98 288.49 443.68 282.84"/></g><g id="main_character_copy" data-name="main character copy"><polygon class="cls-21" points="243.67 293.51 342.02 273.85 416.04 288.18 338.69 306.17 243.67 293.51"/><polygon class="cls-22" points="416.84 98.61 425.99 85.07 436.27 94.11 431.24 107.28 416.54 102.04 416.84 98.61"/><polygon class="cls-23" points="416.72 96.79 431.24 107.28 425.55 121.87 416.39 120.53 416.72 96.79"/><polygon class="cls-24" points="413.11 120.53 414.38 112.64 412.52 103.04 416.35 91.8 419.48 94.33 418.62 102.67 421.3 111.45 416.84 123.66 413.11 120.53"/><polygon class="cls-24" points="372.71 156.97 373.91 139.62 413.28 130.63 411.05 154.29 389.77 165.18 372.71 156.97"/><polygon class="cls-22" points="372.71 156.97 373.91 139.62 389.77 165.18 372.71 173.94 372.71 156.97"/><polygon class="cls-25" points="375.09 217.1 367.81 247.91 354.1 259.63 341.05 256.61 334.96 233.41 375.09 217.1"/><polygon class="cls-22" points="341.02 256.62 367.81 247.91 362.89 270.07 357.97 276.11 346.51 277.43 341.02 256.62"/><polygon class="cls-24" points="362.89 270.07 379.5 284.5 366.1 288.19 346.89 288.13 346.51 277.43 362.89 270.07"/><polygon class="cls-22" points="382.68 277.15 366.1 288.19 382.13 288.24 382.68 277.15"/><polygon class="cls-26" points="313.15 215.76 312.43 254.66 326.35 269.03 341.02 256.62 354.1 236.19 335.37 220.06 313.15 215.76"/><polygon class="cls-22" points="341.02 256.62 312.43 254.66 311.94 279.38 323.29 280.43 328.61 277.43 341.02 256.62"/><polygon class="cls-27" points="375.09 217.1 354.1 236.19 313.15 215.76 352.92 209.22 375.09 217.1"/><polygon class="cls-24" points="334.53 143.46 314.57 150.67 314.02 216.1 375.09 217.1 373.91 201.67 372.25 196.45 373.95 192.86 374.6 185.3 374.78 181.86 380.84 169.65 373.91 139.62 363.58 144.39 334.53 143.46"/><polygon class="cls-22" points="318.35 169.53 328.02 189.36 356.36 179.69 333.36 182.36 318.35 169.53"/><polygon class="cls-22" points="300.01 183.86 317.02 207.11 329.77 196.11 315.94 190.61 300.01 183.86"/><polygon class="cls-22" points="334.53 143.46 341.52 141.87 352.09 152.35 373.91 139.62 355.86 138.03 334.53 143.46"/><polygon class="cls-28" points="390.91 61.38 395.18 75.39 388.91 81.33 378.02 59.98 387.32 57.84 390.91 61.38"/><polygon class="cls-22" points="317.77 66.34 341.54 72.04 348.56 109.99 352.09 152.35 334.53 143.46 325.97 129.63 321.62 107.76 308.86 101.99 317.77 66.34"/><polygon class="cls-5" points="314.15 69.42 313.02 48.57 391.78 35.49 380.52 56.64 335.14 74.57 314.15 69.42"/><path class="cls-29" d="M328.14,76.23c-.34-1.41.77,26.81.77,26.81l-4.58,1.67-2.94-7.56-8.86,3.4L308.86,102,297.4,83.49,317.8,68.9Z"/><polygon class="cls-24" points="321.23 96.73 327.89 113.86 318.47 117.52 308.86 101.99 321.23 96.73"/><polygon class="cls-23" points="327.89 113.86 325.97 129.63 318.47 117.52 327.89 113.86"/><polygon class="cls-24" points="348.15 140.45 367.6 133.03 393.97 127.02 386.81 62.35 357.26 65.83 335.14 74.57 348.15 140.45"/><polygon class="cls-23" points="372.71 105.99 374.52 103.12 370.23 104.08 372.71 105.99"/><polygon class="cls-29" points="342.63 85.59 358.51 77.54 363.46 83.58 342.63 85.59"/><polygon class="cls-29" points="373.94 75.2 385.95 78.43 370.88 82.06 373.94 75.2"/><polygon class="cls-22" points="342.63 85.59 356.08 87.39 370.23 104.08 367.67 89.29 363.46 83.58 342.63 85.59"/><polygon class="cls-22" points="378.44 84 374.52 103.12 371.14 92.48 370.88 82.06 385.95 78.43 378.44 84"/><polygon class="cls-23" points="357.08 112.13 384.77 106.99 380.9 121.25 366.94 124.49 357.08 112.13"/><polygon class="cls-28" points="313.02 48.57 297.4 83.49 319.18 78.35 335.14 74.57 313.02 48.57"/><polygon class="cls-7" points="335.14 74.57 390.91 61.38 391.78 35.49 335.14 74.57"/><polygon class="cls-30" points="362.37 113.55 381.26 110.06 380.45 114.5 365.71 117.57 362.37 113.55"/><polygon class="cls-23" points="313.82 103.6 318.31 101.82 322.18 110.61 313.82 103.6"/><polygon class="cls-31" points="363.46 83.58 370.88 82.06 374.52 103.12 370.23 104.08 363.46 83.58"/><path class="cls-32" d="M383.26,88.09A3.38,3.38,0,1,1,380.87,84,3.39,3.39,0,0,1,383.26,88.09Z"/><path class="cls-32" d="M360.4,92.09A3.38,3.38,0,1,1,358,88,3.38,3.38,0,0,1,360.4,92.09Z"/><polygon class="cls-23" points="367.6 133.03 352.09 152.35 339.53 139.41 367.6 133.03"/><polygon class="cls-24" points="328.61 277.43 335.56 292.93 307.75 292.93 311.94 279.38 328.61 277.43"/><polygon class="cls-22" points="323.93 283.95 307.75 292.93 335.56 292.93 323.93 283.95"/><polygon class="cls-6" points="299.53 116.19 278.08 115.3 265.28 151.32 281.06 293.01 300.12 292.71 314.42 154.59 299.53 116.19"/><polygon class="cls-5" points="299.53 116.19 298.04 293.3 311.59 293.01 322.23 147.82 299.53 116.19"/><polygon class="cls-8" points="278.08 115.3 256.64 144.77 263.35 293.45 281.06 293.01 278.08 115.3"/><polygon class="cls-8" points="297.44 274.93 301.52 257.38 298.37 252.15 280.39 251.67 297.44 274.93"/><polygon class="cls-5" points="298.86 266.77 293.72 257.02 280.39 251.67 280.77 281.31 286.45 282.73 293.36 299.93 298.86 266.77"/><polygon class="cls-8" points="293.36 299.93 293.72 257.02 301.52 257.38 300.81 299.93 293.36 299.93"/><polygon class="cls-22" points="255.38 170.07 256.98 153.08 269.38 165.75 266.84 176.17 258.58 186.18 255.38 170.07"/><polygon class="cls-24" points="252.4 168.58 256.98 153.08 258.58 186.18 252.4 168.58"/><polygon class="cls-22" points="414.38 112.64 397.2 135.24 411.05 154.29 425.55 121.87 414.38 112.64"/><polygon class="cls-22" points="373.03 179.61 380.84 169.65 374.6 185.3 358.53 179.61 373.03 179.61"/><polygon class="cls-22" points="353.28 156.49 353.65 166.99 355.9 176.74 356.53 166.61 353.28 156.49"/><polygon class="cls-22" points="335.61 173.11 334.44 175.16 336.3 176.53 337.76 174.57 335.61 173.11"/><polygon class="cls-22" points="358.69 211.46 356.92 213.02 358.24 214.91 360.26 213.53 358.69 211.46"/><polygon class="cls-22" points="372.21 172.47 370.53 174.16 372.41 175.44 373.7 173.86 372.21 172.47"/><polygon class="cls-22" points="369.37 194.77 373.97 192.86 373.91 201.67 369.37 194.77"/></g><g id="keft_character_copy" data-name="keft character copy"><polygon class="cls-21" points="96.71 291.59 182.23 271.85 257.75 284.09 177.48 303.84 96.71 291.59"/><polygon class="cls-33" points="209.37 179.3 223.22 196.71 209.37 227.18 201.49 218.19 203.36 197.48 209.37 179.3"/><polygon class="cls-34" points="191.61 182.48 200.36 150.24 223.22 196.71 203.36 197.48 191.61 182.48"/><polygon class="cls-35" points="191.61 182.48 195.74 157.11 202.66 177.03 203.36 197.48 191.61 182.48"/><polygon class="cls-34" points="164.55 167.39 135.94 154.35 120.03 184.06 128.97 209.96 164.55 167.39"/><polygon class="cls-33" points="213.72 260.11 219.37 266.96 233.82 278 225.77 282.67 204.66 282.67 203.45 273.81 213.72 260.11"/><polygon class="cls-33" points="154.48 265.35 158 281.99 164.45 296.5 152.49 291.8 137.31 296.3 138.92 281.45 154.48 265.35"/><polygon class="cls-34" points="151.79 242.45 140.13 256.54 138.92 281.45 158 281.99 167.1 259.57 151.79 242.45"/><polygon class="cls-25" points="195.89 52.57 216.54 47.63 215.12 68.83 177.36 67.84 195.89 52.57"/><polygon class="cls-36" points="168.31 62.19 162.79 47.73 216.54 47.63 194.33 60.91 168.31 62.19"/><polygon class="cls-25" points="184.03 222.84 201.84 218.21 220.17 239.97 199.35 257.76 168.72 244.33 184.03 222.84"/><polygon class="cls-26" points="173.55 229.83 175.7 241.38 167.1 259.57 140.13 256.54 141.58 219.42 173.55 229.83"/><polygon class="cls-27" points="160.66 199.75 141.58 219.42 175.7 241.38 201.84 218.21 160.66 199.75"/><polygon class="cls-33" points="156.09 146.56 135.94 154.35 139.6 196.98 142.99 203.85 145.06 208.27 141.58 219.42 201.49 218.19 198.57 206.02 197.4 200.27 198.31 195.93 198.32 191.53 196.82 187.03 202.66 177.03 200.36 150.24 171.67 142.8 156.09 146.56"/><polygon class="cls-34" points="176.58 158.76 200.36 150.24 171.67 142.8 176.58 158.76"/><polygon class="cls-33" points="215.12 68.83 226.46 129.74 199.14 137.58 179.19 145.39 170.9 141.04 167.63 134.77 153.27 103.9 153.76 96.29 157.66 79.14 194.33 60.91 215.12 68.83"/><polygon class="cls-34" points="157.66 79.14 179.91 140.39 203.62 136.54 191.96 140.87 186.65 147.13 176.58 158.76 150.19 148.94 147.36 132.98 149.66 126.49 145.89 126.12 142.75 111.88 153.61 101.83 157.66 79.14"/><polygon class="cls-35" points="145.89 126.12 155.72 120.69 147.36 132.98 145.89 126.12"/><polygon class="cls-35" points="154.25 117.45 151.02 111.53 147.11 113.53 154.25 117.45"/><polygon class="cls-25" points="138.08 91.42 142.75 111.88 154.61 106.36 157.66 117.13 161.67 114.25 157.02 97.19 148.58 89.19 138.08 91.42"/><polygon class="cls-35" points="211.42 112.39 188.98 117.93 205.01 128.37 211.42 112.39"/><polygon class="cls-30" points="207.99 115.47 194.23 118.79 203.9 124.63 207.99 115.47"/><polygon class="cls-34" points="205.45 83.9 212.63 83.5 201.28 104.87 195.55 109.75 174.86 92.54 182.56 89.17 190.45 89.75 192.07 94.15 197.52 99.05 199.75 92.5 199.05 87.62 205.45 83.9"/><path class="cls-32" d="M204.14,94.09a3,3,0,1,0,2.58-3.39A3,3,0,0,0,204.14,94.09Z"/><path class="cls-32" d="M184.82,98.45a3,3,0,1,0,1.94-3.79A3,3,0,0,0,184.82,98.45Z"/><polygon class="cls-35" points="201.11 105.35 204.15 107.59 200.2 111.55 195.55 109.75 201.11 105.35"/><polygon class="cls-37" points="199.05 87.62 204.15 107.59 195.55 109.75 190.45 89.75 199.05 87.62"/><polygon class="cls-25" points="211.37 78.85 199.05 87.62 212.63 83.5 211.37 78.85"/><polygon class="cls-25" points="190.45 89.75 173.88 86.38 174.86 92.54 190.45 89.75"/><polygon class="cls-35" points="179.91 140.39 224.67 130.3 195.57 140.73 176.58 158.76 167.7 144.53 179.91 140.39"/><polygon class="cls-36" points="150.81 66.71 137.23 71.8 138.08 91.42 157.02 97.19 158.76 82.09 150.81 66.71"/><polygon class="cls-25" points="162.79 47.73 194.33 60.91 158.76 82.09 137.23 71.8 162.79 47.73"/><polygon class="cls-34" points="154.37 286.96 137.31 296.3 164.45 296.5 154.37 286.96"/><polygon class="cls-34" points="195.39 256.08 220.17 239.97 219.37 266.96 203.45 273.81 195.39 256.08"/><polygon class="cls-34" points="238.51 271.8 225.62 282.67 239.92 282.67 238.51 271.8"/><polygon class="cls-34" points="142.52 226.48 153.42 227.02 156.51 240.62 146.24 246.27 138.65 239.57 142.52 226.48"/><polygon class="cls-33" points="133.66 220.08 141.74 219.62 153.42 227.02 138.65 239.57 127.35 228.83 133.66 220.08"/><polygon class="cls-33" points="137.16 212.49 120.03 184.06 108.52 205.39 122.04 222.27 133.08 221.87 137.16 212.49"/><polygon class="cls-7" points="141.74 219.62 137.16 212.49 122.04 222.27 127.35 228.83 141.74 219.62"/><polygon class="cls-34" points="206.8 229.64 214.17 232.85 211.72 222.27 201.84 218.21 206.8 229.64"/><polygon class="cls-33" points="196.03 229.53 201.84 218.21 214.17 232.85 204.4 236.5 196.03 229.53"/><polygon class="cls-8" points="127.92 220.26 130.98 224.39 136.11 221.16 133.17 217.18 127.92 220.26"/><polygon class="cls-34" points="176.82 164.44 175.48 174.11 177.65 186.53 178.4 173.61 176.82 164.44"/><polygon class="cls-34" points="138.81 177.69 153.85 185.61 175.15 187.03 148.72 193.73 138.81 177.69"/><polygon class="cls-34" points="180.98 186.69 195.82 184.69 202.66 177.03 198.32 191.53 180.98 186.69"/><polygon class="cls-34" points="139.6 196.98 147.22 202.98 145.06 208.27 139.6 196.98"/><polygon class="cls-34" points="155.97 177.99 154.29 180.05 156.27 182.3 157.9 179.91 155.97 177.99"/><polygon class="cls-34" points="192.36 177.24 190.74 179.64 193.11 181.24 194.61 178.99 192.36 177.24"/><polygon class="cls-34" points="195.23 199.85 198.31 195.93 198.64 206.43 195.23 199.85"/><polygon class="cls-34" points="179.73 212.92 177.73 214.98 179.73 216.85 181.23 214.67 179.73 212.92"/></g><g id="right_character_copy" data-name="right character copy"><polygon class="cls-11" points="781.1 197.29 758.08 226.07 758.98 242.48 775.81 249.5 792.97 237.1 815.35 191.33 781.1 197.29"/><polygon class="cls-38" points="804.38 190.43 775.82 249.49 798.93 239.9 815.34 191.35 804.38 190.43"/><polygon class="cls-2" points="781.1 197.29 755.38 224.58 758.98 242.48 773.41 224.21 804 189.41 781.1 197.29"/><polygon class="cls-39" points="776.49 191.62 771.19 195.27 783.79 209.4 790.34 195.75 776.49 191.62"/><polygon class="cls-40" points="790.91 179.89 781.5 175.83 771.19 195.27 792.36 195.46 799.76 185.27 790.91 179.89"/><polygon class="cls-41" points="787.41 212.29 781.01 214.16 772.93 225.08 792.16 226.13 795.53 225.27 794.88 214.29 787.41 212.29"/><polygon class="cls-42" points="799.76 191.04 778.08 192.43 781.01 214.16 794.88 214.29 800.35 198.69 799.76 191.04"/><polygon class="cls-42" points="757.23 118.6 751.98 114.15 747.89 106.06 756.87 101.8 762.38 108.29 764.34 114.06 757.23 118.6"/><polygon class="cls-39" points="758.56 127.04 755.27 124.82 751.98 114.15 763.72 111.84 763.89 124.11 758.56 127.04"/><polygon class="cls-41" points="765.23 126.42 765.05 120.28 766.92 115.49 765.49 108.11 762.38 108.29 762.03 114.6 758.91 117.89 763.09 127.22 765.23 126.42"/><polygon class="cls-42" points="780.92 152.55 766.25 144.15 755.27 124.82 765.05 120.28 778.12 136.55 780.92 152.55"/><polygon class="cls-39" points="788.45 146.72 783.59 161.48 766.25 144.15 768.71 141.64 779.05 136.68 788.45 146.72"/><polygon class="cls-43" points="788.39 170.94 781.5 175.83 797.19 190.28 814.66 185.74 808.39 167.61 788.39 170.94"/><polygon class="cls-20" points="805.34 176.23 778.08 192.43 800.35 198.69 823.06 189.74 820.53 176.28 812.26 171.48 805.34 176.23"/><polygon class="cls-41" points="782.53 142.19 785.18 144.41 781.01 158.77 783.18 162.54 782.99 163.93 781.5 175.83 825.45 179.03 818.53 143.04 810.13 138.55 782.53 142.19"/><polygon class="cls-42" points="809.39 136.06 809.42 136.99 810.13 138.55 797.95 147.22 793.41 148.73 795.87 105.82 805.95 114.98 807.58 131.74 809.39 136.06"/><polygon class="cls-39" points="791.72 151.04 784.28 144.99 771.32 141.48 794.3 147.04 797.59 147.39 791.72 151.04"/><polygon class="cls-39" points="807.62 133.74 809.77 135.04 810.13 138.55 803.16 133.98 807.62 133.74"/><polygon class="cls-44" points="784.83 114.51 807.28 103.22 810.24 108.13 800.73 111.61 784.83 114.51"/><polygon class="cls-40" points="810.74 121.46 817.1 117.79 810.24 108.13 800.73 111.61 805.37 123.46 810.74 121.46"/><polygon class="cls-45" points="803.82 119.44 817.1 117.79 812.92 127.83 805.95 130.92 801.02 130.01 803.82 119.44"/><polygon class="cls-41" points="805.88 126.03 812.92 127.83 809.77 135.04 803.16 133.98 805.88 126.03"/><polygon class="cls-44" points="791.85 107.1 790.87 100.54 785.35 100.54 776.07 105.82 784.84 116.83 791.85 107.1"/><path class="cls-40" d="M793.75,113.66c0-.21,1.44-.62,1.44-.62l12.09-9.82-16.41-2.68-6,11.82Z"/><polygon class="cls-41" points="794.3 147.04 768.71 141.64 773.2 107.73 776.07 105.82 784.84 112.36 800.73 111.61 794.3 147.04"/><polygon class="cls-39" points="809.6 128.98 807.43 128.31 806.48 131.71 809.6 128.98"/><line class="cls-46" x1="784.84" y1="131.84" x2="780.38" y2="131.32"/><polygon class="cls-42" points="779.8 118.56 773.91 118.18 777.36 123.72 780.42 130.69 784.42 131.84 788.61 124.96 794.56 120.35 788.23 119.79 785.84 120.54 785.72 121.49 783.72 123.81 780.87 120.88 780.77 119.9 779.8 118.56"/><polygon class="cls-39" points="781.93 129.48 779.39 131.2 781.97 133.1 784.42 131.84 781.93 129.48"/><polygon class="cls-46" points="780.87 120.88 779.39 131.2 784.42 131.84 785.72 121.49 780.87 120.88"/><polygon class="cls-40" points="781.04 117.83 774.21 115.89 773.91 118.18 780.87 120.88 781.04 117.83"/><polygon class="cls-40" points="785.74 121.55 786.11 118.46 794.76 118.49 794.56 120.35 785.74 121.55"/><path class="cls-47" d="M778.45,124a1.79,1.79,0,1,1-3.56-.45,1.79,1.79,0,0,1,3.56.45Z"/><path class="cls-47" d="M790.73,125.59a1.79,1.79,0,1,1-1.56-2A1.81,1.81,0,0,1,790.73,125.59Z"/><polygon class="cls-39" points="775.78 133.92 789.42 136.98 783.3 142.53 777.32 141.53 775.78 133.92"/><polygon class="cls-48" points="777.95 135.45 786.15 137.38 783.08 141.19 778.14 140.02 777.95 135.45"/><polygon class="cls-42" points="803.5 153.2 818.53 143.04 835.73 163.83 821.15 166.15 803.5 153.2"/><polygon class="cls-42" points="825.42 189.79 831.11 191.92 825.78 199.38 818.13 198.32 817.24 190.32 825.42 189.79"/><polygon class="cls-41" points="825.24 174.5 820.49 182.41 817.24 190.32 831.11 191.92 830.58 183.03 825.24 174.5"/><polygon class="cls-46" points="820.49 182.41 821.15 166.15 835.73 163.83 830.58 183.03 820.49 182.41"/><polygon class="cls-49" points="770.56 118.95 780.87 120.88 780.12 125.97 777.05 127.22 772.96 126.55 769.85 124.37 770.56 118.95"/><polygon class="cls-49" points="785.72 121.49 798.59 123.48 797.56 129.07 793.99 130.59 788.08 129.31 785.05 126.6 785.72 121.49"/><polygon class="cls-42" points="781.97 218.44 772.93 225.08 792.16 226.13 781.97 218.44"/><polygon class="cls-42" points="791.31 154.03 790.25 157.3 790.54 161.91 792.08 158.06 791.31 154.03"/><polygon class="cls-42" points="781.01 158.77 784.43 162.34 790.1 162.59 782.99 163.93 781.01 158.77"/><polygon class="cls-42" points="792.75 162.94 808.39 167.61 813.53 161.85 806.02 164.99 792.75 162.94"/><polygon class="cls-42" points="789.09 173.26 788.13 174.41 788.84 175.37 790.18 174.41 789.09 173.26"/><polygon class="cls-42" points="804.55 161.37 803.65 162.72 804.82 163.71 805.45 162.72 804.55 161.37"/><polygon class="cls-42" points="784.94 159.24 783.96 160.13 784.5 161.46 785.75 160.3 784.94 159.24"/><polygon class="cls-50" points="786.56 125.73 788.97 128.29 794.03 129.38 796.24 128.07 796.98 124.38 787.07 123.13 786.56 125.73"/><polygon class="cls-50" points="779.38 121.88 771.75 120.53 771.36 123.16 773.13 125.02 776.91 125.6 779.03 124.86 779.38 121.88"/><polygon class="cls-3" points="796.02 124.7 792.61 128.64 791.33 128.5 794.89 124.56 796.02 124.7"/><polygon class="cls-3" points="793.3 124.44 790.46 128.09 789.45 127.95 788.97 127.37 791.76 124.15 793.3 124.44"/><polygon class="cls-3" points="778.03 122.27 775.75 125.01 774.11 124.75 776.54 122.01 778.03 122.27"/><polygon class="cls-3" points="775.53 121.59 773.01 124.16 772.48 123.68 774.57 121.45 775.53 121.59"/></g></g></svg>