<svg xmlns="http://www.w3.org/2000/svg" viewBox="0 0 900 350"><defs><style>.cls-1,.cls-16{fill:#dddddc;}.cls-1,.cls-18,.cls-19,.cls-2,.cls-20,.cls-21,.cls-22,.cls-23,.cls-24,.cls-25,.cls-26,.cls-27,.cls-28,.cls-29,.cls-30,.cls-31,.cls-32,.cls-33,.cls-34,.cls-37,.cls-38,.cls-39,.cls-40,.cls-41,.cls-42,.cls-43,.cls-46,.cls-47{fill-rule:evenodd;}.cls-2{fill:#ececeb;}.cls-19,.cls-3{fill:#9d7700;}.cls-21,.cls-4{fill:#bb8e2d;}.cls-37,.cls-5{fill:#e1a842;}.cls-38,.cls-6{fill:#f1bc68;}.cls-40,.cls-7{fill:#9ca0a1;}.cls-8{fill:#8e8e8e;}.cls-22,.cls-9{fill:#858686;}.cls-10{fill:#7c7c7c;}.cls-11{fill:#6f7173;}.cls-12,.cls-42{fill:#c4c4c3;}.cls-13{fill:#cfcecd;}.cls-14,.cls-39{fill:#8f8f8f;}.cls-15,.cls-23{fill:#a3a2a2;}.cls-17,.cls-18{fill:#2b2b2b;opacity:0.1;}.cls-20{fill:#cbac14;}.cls-24{fill:#737474;}.cls-25{fill:#755800;}.cls-26,.cls-36{fill:#707274;}.cls-27{fill:#846400;}.cls-28{fill:#c2977b;}.cls-29{fill:#debca4;}.cls-30{fill:#8a6651;}.cls-31{fill:#fff;}.cls-32{fill:#e7c9b5;}.cls-33{fill:#2a2b2a;}.cls-34{fill:#f3d65d;}.cls-35{fill:#4f5253;}.cls-41{fill:#f7f7f7;}.cls-43,.cls-44,.cls-45,.cls-46{fill:none;}.cls-43,.cls-44{stroke:#c4c4c3;stroke-miterlimit:10;stroke-width:4px;}.cls-47{fill:#e4c728;}</style></defs><title>explorers_Adventurer_ISFP_strengths</title><g id="ILLUSTRATION_copy" data-name="ILLUSTRATION copy"><g id="cloud_copy" data-name="cloud copy"><polygon class="cls-1" points="782.89 6.37 865.67 25.09 802.44 42.12 759.33 40.41 731.16 47.79 663.33 22.82 741.51 27.36 782.89 6.37"/><polygon class="cls-2" points="865.67 25.09 778.87 0.13 736.33 17.72 663.33 22.82 728.86 35.31 783.47 26.23 865.67 25.09"/></g><g id="tree_and_grass_copy" data-name="tree and grass copy"><polygon class="cls-3" points="190.83 110.92 209.75 116.5 170.83 146.42 144.5 146.58 127.67 126.42 190.83 110.92"/><polygon class="cls-4" points="683.88 188.21 665.83 180.21 656.87 215.01 664.5 215.75 686.48 190.61 683.88 188.21"/><polygon class="cls-4" points="623.25 166.25 647.25 168.25 657 214.25 647.25 215.25 647 205.25 626 173.42 623.25 166.25"/><polygon class="cls-4" points="130.67 198.42 112.67 198.42 112 230.08 119.33 236.08 132.67 206.42 130.67 198.42"/><polygon class="cls-4" points="86.67 188.08 92.33 186.75 112 230.08 104.67 236.08 75.33 201.42 86.67 188.08"/><polygon class="cls-5" points="192.5 60.75 225.5 42.25 247 70.75 211.5 95.25 192.5 60.75"/><polygon class="cls-6" points="157.5 32.75 166 22.75 225.5 42.25 211 63.75 157.5 32.75"/><polygon class="cls-5" points="104.5 47.25 112.5 20.75 166 22.75 211 63.75 124.5 101.75 104.5 47.25"/><polygon class="cls-6" points="80.5 85.25 64.5 56.25 112.5 20.75 150 68.25 80.5 110.75 80.5 85.25"/><polygon class="cls-5" points="90.5 116.25 57.5 123.25 64.5 56.25 104.5 79.25 90.5 116.25"/><polygon class="cls-5" points="200 96.75 209.75 116.5 234.84 101.14 244 73.75 224.53 75.19 211 63.75 200 96.75"/><polygon class="cls-6" points="172 71.75 211 63.75 209.75 116.5 160 101.25 172 71.75"/><polygon class="cls-4" points="150.5 91.75 150 68.25 211 63.75 176.5 88.5 150.5 91.75"/><polygon class="cls-5" points="104.5 112.25 104.5 79.25 150 68.25 176.5 88.5 123 133.25 104.5 112.25"/><polygon class="cls-4" points="119.5 124.75 106.75 138.25 57.5 123.25 104.5 79.25 124 106.75 119.5 124.75"/><polygon class="cls-7" points="160 146.75 153 140.5 171.5 105.25 177.75 111 160 146.75"/><polygon class="cls-8" points="168.5 172.75 173 160.75 183.5 117 177.75 111 153 140.5 159.25 174.5 168.5 172.75"/><polygon class="cls-9" points="149.25 144 129.5 127.5 120.25 132.13 153.5 161.83 155.25 151.5 149.25 144"/><polygon class="cls-7" points="160.25 181 151.92 152.63 129.5 127.5 153 140.5 161.75 156.33 160.25 181"/><polygon class="cls-10" points="148.33 234.08 147 218.42 151.92 152.63 161.75 156.33 148.33 234.08"/><polyline class="cls-11" points="173.33 203.42 180 203.42 190 227.08 160.67 247.08 172 203.08"/><polygon class="cls-7" points="182.67 189.75 180 203.42 174.67 231.42 159.67 193.08 182.67 189.75"/><polygon class="cls-10" points="171.67 181.75 177.5 187.42 198.67 178.08 180 203.42 169 196.42 171.67 181.75"/><polygon class="cls-12" points="171.67 181.75 177.67 185.08 198.67 178.08 169.88 196.88 171.67 181.75"/><polygon class="cls-7" points="152.67 209.08 161.75 156.33 173 160.75 177.67 185.08 155 219.42 152.67 209.08"/><polygon class="cls-8" points="136.33 244.42 143.5 232.25 161.75 156.33 174.67 231.42 136.33 244.42"/><polygon class="cls-5" points="160.25 99.25 182.38 121.63 209.75 116.5 176.5 88.5 160.25 99.25"/><polygon class="cls-5" points="145.75 116 137.75 136.5 106.75 138.25 124 106.75 145.75 116"/><polygon class="cls-4" points="124 106.75 176.5 88.5 175.08 114.21 137.75 136.5 124 106.75"/><polygon class="cls-5" points="66.33 183.42 64 222.75 92.33 186.75 66.33 183.42"/><polygon class="cls-5" points="133 192.42 142.67 215.08 112.67 198.42 133 192.42"/><polygon class="cls-5" points="614.5 163.58 602.96 191.54 647.71 168.04 614.5 163.58"/><polygon class="cls-5" points="687.75 175.6 693.96 198.61 665.95 180.21 687.75 175.6"/></g><g id="land_copy" data-name="land copy"><polygon class="cls-13" points="194.33 227.75 204 210.08 246.33 214.75 206.33 253.75 194.33 227.75"/><polygon class="cls-11" points="142.67 242.42 174.67 231.42 204 210.08 205.99 231.82 176 259.75 142.67 242.42"/><polygon class="cls-13" points="102.67 258.42 75.67 242.42 112 230.08 174.67 231.42 137.67 261.42 102.67 258.42"/><polygon class="cls-11" points="138.67 243.42 128 240.42 75.67 242.42 60 276.25 145.67 287.08 138.67 243.42"/><polygon class="cls-9" points="195 263.75 182.5 245.25 174.67 231.42 128 240.42 138.67 291.42 195 263.75"/><polygon class="cls-13" points="412.5 253.75 390.5 229.25 450 225.75 474 227.75 455.5 270.75 412.5 253.75"/><polygon class="cls-14" points="463.5 274.75 444 243.75 390.5 229.25 342 238.25 424 295.75 463.5 274.75"/><polygon class="cls-13" points="556 232.75 545.5 208.25 594 197.25 647 205.25 612.5 247.25 556 232.75"/><polygon class="cls-15" points="570.5 222.25 590.5 220.25 647 205.25 657 214.25 672 239.75 578.5 245.25 570.5 222.25"/><polygon class="cls-14" points="515.5 238.75 545.5 208.25 590.5 220.25 602.5 235.75 609.5 263.75 543 265.25 515.5 238.75"/><polygon class="cls-13" points="808 250.75 798.5 232.75 754.5 222.25 712.5 221.75 789.5 273.75 808 250.75"/><polygon class="cls-15" points="760 246.75 766.5 239.75 798.5 232.75 837.5 274.08 758 276.25 760 246.75"/><polygon class="cls-14" points="724.5 228.75 766.5 239.75 789 269.25 714.5 252.75 724.5 228.75"/><polygon class="cls-16" points="563.5 250.25 547.5 236.25 474 227.75 444 243.75 530 284.25 563.5 250.25"/><polygon class="cls-13" points="617.5 248.25 547.5 236.25 509.5 252.25 506 283.25 621.5 281.25 617.5 248.25"/><polygon class="cls-13" points="603.5 252.25 602.5 235.75 663 225.75 694.5 257.25 603.5 252.25"/><polygon class="cls-15" points="586.5 266.25 602.5 235.75 677 239.25 666 267.75 586.5 266.25"/><polygon class="cls-13" points="721 234.25 729 207.25 699 199.75 657 214.25 703 251.75 721 234.25"/><polygon class="cls-15" points="696.5 234.25 712.5 216.75 729 207.25 737 266.75 688 273.75 696.5 234.25"/><polygon class="cls-14" points="664.5 258.25 657 214.25 712.5 216.75 709.5 244.75 664.5 258.25"/><polygon class="cls-15" points="431 261.25 444 243.75 509.5 252.25 521 272.42 426 275.75 431 261.25"/><polygon class="cls-12" points="82.5 317.25 60 276.25 145.5 266.25 285 293.75 224.5 341.25 82.5 317.25"/><polyline class="cls-9" points="249.94 323.06 199.33 331.58 60 276.25 0 323.75 190.33 349.08 249.94 323.06"/><polygon class="cls-13" points="244 282.75 223.25 301 217.5 322.75 200 331.25 209.25 340.75 558.33 326.42 559 303.75 521 272.42 337 245.75 244 282.75"/><polygon class="cls-14" points="585 285.75 529 315.08 200 331.25 190.33 349.08 504.67 341.08 580.33 328.75 585 285.75"/><polygon class="cls-16" points="533.33 329.42 529 315.08 521 272.42 709.5 244.75 837.5 274.08 758.33 327.08 533.33 329.42"/><polygon class="cls-15" points="777 316.42 705.67 315.08 529 315.08 504.67 341.08 688.33 349.75 777 316.42"/><polygon class="cls-14" points="705.67 315.08 688.33 349.75 899.67 318.75 837.5 274.08 705.67 315.08"/></g><g id="rock_copy" data-name="rock copy"><polygon class="cls-17" points="643 286.75 635 294.42 607.33 297.42 705.33 315.08 777.33 292.75 669.67 285.75 643 286.75"/><polygon class="cls-15" points="699 262 703.63 278 736.38 277.5 734.75 250.5 704.38 250.75 699 262"/><polygon class="cls-14" points="707.38 247.63 685.56 248.25 682.5 260.25 680.75 276 703.63 278 706.33 270.75 712.38 254 707.38 247.63"/><polygon class="cls-14" points="650.5 264.75 631.5 263.25 625.5 299 660.67 305.75 664.5 268.75 650.5 264.75"/><polygon class="cls-15" points="662.25 265.75 657.25 272.5 660.67 305.75 686.75 287 682.5 260.25 662.25 265.75"/><polygon class="cls-13" points="678.67 295.42 669 278.75 706.33 270.75 741.33 277.75 700.33 301.75 678.67 295.42"/><polygon class="cls-15" points="683.33 297.75 703.67 285.75 741.33 277.75 751 294.42 705 307.75 683.33 297.75"/><polygon class="cls-14" points="669 278.75 660.67 305.75 705 307.75 703.67 285.75 669 278.75"/><polygon class="cls-13" points="631.5 263.25 660.75 257 682.5 260.25 657.25 272.5 631.5 263.25"/><polygon class="cls-13" points="685.56 248.25 709.69 243.06 734.75 250.5 712.38 254 685.56 248.25"/></g><g id="flower_copy" data-name="flower copy"><polygon class="cls-18" points="546.56 301.26 576.95 295.78 609.7 302.66 575.95 308.16 546.56 301.26"/><polygon class="cls-19" points="580.86 259.3 573.21 264.49 575.67 277.75 575.39 286.22 574.98 293.74 577.72 291.14 580.86 259.3"/><polygon class="cls-20" points="583.05 246.73 589.06 243.18 589.06 264.49 573.21 264.49 583.05 246.73"/><polygon class="cls-21" points="566.92 258.34 567.33 246.87 589.06 243.18 573.21 264.49 566.92 258.34"/><polygon class="cls-19" points="600.88 279.6 585.71 274.68 575.74 294.35 580.18 301.32 600.88 279.6"/><polygon class="cls-21" points="553.94 282.26 575.67 277.75 580.18 301.32 573.82 301.73 553.94 282.26"/><polygon class="cls-20" points="545.6 300.03 550.73 271.39 575.67 277.75 545.6 300.03"/><polygon class="cls-20" points="611.61 295.45 606.48 268.39 585.71 274.68 611.61 295.45"/><polygon class="cls-20" points="567.33 246.87 559.95 256.98 573.21 264.49 567.33 246.87"/></g><g id="rock_chair_copy" data-name="rock chair copy"><polyline class="cls-17" points="282.5 257.25 403.56 296.09 329.53 313.43 316 303.75 290.94 314.56 232.29 298.31 180.5 323.25 150.87 324.03 165.5 302.75 141.5 283.75 235.5 247.75 282.5 257.25"/><polygon class="cls-22" points="218.33 248.25 145.5 266.25 141.5 283.75 223.17 299.25 218.33 248.25"/><polygon class="cls-23" points="217.5 251.75 182.5 245.25 145.5 266.25 162.4 263.61 215.33 277.25 217.5 251.75"/><polygon class="cls-24" points="215.33 277.25 223.17 299.25 266.2 294.95 276.19 236.54 215.33 277.25"/><polygon class="cls-22" points="223.54 230.06 254.5 262.25 215.33 277.25 182.5 245.25 205.99 231.82 223.54 230.06"/><polygon class="cls-23" points="249.55 212.42 218.95 220.48 205.99 231.82 254.6 262.29 264.99 231.55 249.55 212.42"/></g><g id="main_character_copy" data-name="main character copy"><polygon class="cls-25" points="317.01 164.67 347.84 208.81 332.08 207.8 310.08 207.34 317.01 164.67"/><polygon class="cls-25" points="235.62 175.8 219.09 220.49 242.91 235.47 247.3 203.22 235.62 175.8"/><polygon class="cls-26" points="317.44 266.05 312.59 276.19 256.62 268.42 303 242.91 317.44 266.05"/><polygon class="cls-21" points="258.33 165.57 235.62 175.8 254.6 262.29 292.99 273.81 304.99 252.1 300.09 212.51 294.64 157.11 258.33 165.57"/><polygon class="cls-20" points="283.04 170.79 304.99 252.1 317.44 266.05 334.49 245.47 317.01 164.67 294.64 157.11 279.49 160.64 283.04 170.79"/><polygon class="cls-27" points="347.59 68.27 349.83 86.93 340.57 93.02 331.62 63.6 343.85 62.98 347.59 68.27"/><polygon class="cls-28" points="254.1 58.1 282.85 70.64 283.18 120.16 283.04 170.79 265.98 179.55 258.39 165.77 250.24 139.9 249.65 111.29 234.84 101.14 254.1 58.1"/><polygon class="cls-20" points="248.84 61.18 252.1 34.58 354.51 35.75 335.53 59.94 274.2 72.4 248.84 61.18"/><path class="cls-25" d="M265,72.92c-.1-1.86-5,34.06-5,34.06L253.77,108l-2-10.2-12,2.3-4.95,1L224.53,75.19l29-13.85Z"/><polygon class="cls-29" points="251.64 97.27 256.2 120.4 243.49 122.91 234.84 101.14 251.64 97.27"/><polygon class="cls-30" points="256.2 120.4 250.24 139.9 243.49 122.91 256.2 120.4"/><polygon class="cls-29" points="275.82 158.56 302.04 153.56 336.69 151.88 342.19 68.58 304.1 66.33 274.2 72.4 275.82 158.56"/><polygon class="cls-30" points="314.58 120.54 317.51 117.32 311.87 117.57 314.58 120.54"/><polygon class="cls-25" points="281.17 88.01 303.04 81.41 307.94 90.15 281.17 88.01"/><polygon class="cls-25" points="323.04 81.91 337.49 88.69 317.65 89.9 323.04 81.91"/><polygon class="cls-28" points="281.17 88.01 297.75 93.31 311.87 117.57 311.96 98.31 307.94 90.15 281.17 88.01"/><polygon class="cls-28" points="326.75 94.04 317.51 117.32 315.63 103.12 317.65 89.9 337.49 88.69 326.75 94.04"/><polygon class="cls-30" points="293.46 124.78 329.58 124.51 321.89 137.59 305 138.38 293.46 124.78"/><polygon class="cls-27" points="252.1 34.58 224.53 75.19 253.19 73.58 274.2 72.4 252.1 34.58"/><polygon class="cls-21" points="274.2 72.4 347.59 68.27 354.51 35.75 274.2 72.4"/><polygon class="cls-31" points="299.82 127.76 324.46 127.61 321.28 132.81 305.78 133.46 299.82 127.76"/><polygon class="cls-30" points="240.75 104.29 246.81 103.04 249.73 115.02 240.75 104.29"/><polygon class="cls-32" points="307.94 90.15 317.65 89.9 317.51 117.32 311.87 117.57 307.94 90.15"/><path class="cls-33" d="M331.92,100.29a4.34,4.34,0,1,1-2.08-5.77A4.34,4.34,0,0,1,331.92,100.29Z"/><path class="cls-33" d="M302.16,100.21a4.34,4.34,0,1,1-2.08-5.77A4.34,4.34,0,0,1,302.16,100.21Z"/><polygon class="cls-30" points="302.04 153.56 294.41 167 283.04 170.79 265.15 155.3 302.04 153.56"/><polygon class="cls-34" points="283.04 170.79 266.52 191.93 258.33 165.57 283.04 170.79"/><polygon class="cls-34" points="299.27 158.29 308.67 180.24 283.04 170.79 299.27 158.29"/><polygon class="cls-35" points="352.53 221.68 330.69 229.88 295.98 257.02 319.29 288.49 329.53 286.52 340.63 266.86 368.23 251.87 352.53 221.68"/><polygon class="cls-35" points="309.6 265.31 311.92 262.73 309.79 264.02 309.99 262.73 306.74 255.29 305.26 245.89 303.19 247.19 301.27 242.78 285.55 253.82 269.55 247.74 254.6 262.29 266.2 294.95 288.91 292.03 300.54 275.38 308.55 272.25 309.6 265.31"/><polygon class="cls-36" points="309.1 236.34 269.55 247.74 288.91 292.03 309.6 298.16 319.29 288.49 309.1 236.34"/><polygon class="cls-36" points="317.85 281.1 285.75 284.8 288.91 292.03 309.6 298.16 319.29 288.49 317.85 281.1"/><polygon class="cls-21" points="319.29 288.49 329.53 306.81 313.73 312.58 290.49 307.89 288.91 292.03 319.29 288.49"/><polygon class="cls-27" points="290.94 314.56 329.53 313.43 329.53 306.81 313.06 297.07 290.49 307.89 290.94 314.56"/><polygon class="cls-36" points="352.53 221.68 340.63 266.86 352.03 280.7 372.02 281.73 380.56 271.28 352.53 221.68"/><polygon class="cls-36" points="377.84 266.48 345.41 271.93 352.03 280.7 372.02 281.73 380.56 271.28 377.84 266.48"/><polygon class="cls-21" points="380.56 271.28 390.34 279.39 383.85 294.71 352.79 290.46 352.03 280.7 380.56 271.28"/><polygon class="cls-27" points="353.35 296.78 403.56 296.09 402.64 289.43 390.34 279.39 379.67 289.9 352.79 290.46 353.35 296.78"/><polygon class="cls-21" points="304.83 188.67 295.56 183.22 295.9 179.44 299.14 177.95 303.09 179.39 304.83 188.67"/><polygon class="cls-19" points="303.09 179.39 316.54 201.3 305.99 200.96 298.69 187.85 295.56 183.22 303.09 179.39"/><polygon class="cls-28" points="291.04 198.99 298.69 187.85 315.73 200.96 305.31 215.1 291.04 198.99"/><polygon class="cls-29" points="275.04 208.26 279.9 198.06 298.69 187.85 305.31 215.1 287.09 219.28 275.04 208.26"/><polygon class="cls-19" points="279.9 198.06 219.09 220.49 239.79 245.71 287.09 219.28 279.9 198.06"/><polygon class="cls-2" points="317.01 164.67 301.7 229.13 352.53 221.68 373.82 159.8 317.01 164.67"/><polygon class="cls-29" points="357.01 194.41 356.22 210.84 366.4 198.41 366.57 181.19 357.01 194.41"/><polygon class="cls-28" points="349.62 188.32 366.57 181.19 356.22 210.84 350.48 203.88 349.62 188.32"/></g><g id="guitar_copy" data-name="guitar copy"><polygon class="cls-37" points="232.29 298.31 150.87 324.03 171.05 276.09 162.4 263.61 223.49 249.3 217.88 277.75 232.29 298.31"/><polygon class="cls-21" points="183.11 278.24 184.88 296.73 150.87 324.03 162.4 263.61 183.11 278.24"/><polygon class="cls-38" points="223.49 249.3 200.48 276.33 204.36 292.15 232.29 298.31 223.49 249.3"/><polygon class="cls-39" points="244.83 270.36 213.97 284.58 214.94 289.32 275.09 269.43 276.24 267.95 274.96 267.5 244.83 270.36"/><polygon class="cls-39" points="274.74 264.5 244.17 270.61 213.13 280.43 213.97 284.58 274.96 267.5 275.88 265.2 274.74 264.5"/><polygon class="cls-40" points="274.52 261.39 243.92 266.56 212.18 275.8 213.13 280.43 274.74 264.5 276.04 263.04 274.52 261.39"/><polygon class="cls-40" points="274.34 258.8 211.44 272.17 212.18 275.8 274.52 261.39 275.79 259.91 274.34 258.8"/><polygon class="cls-19" points="201.38 275.26 204.36 292.15 184.88 296.73 183.11 278.24 201.38 275.26"/><polygon class="cls-2" points="179.78 282.7 274.48 260.86 274.52 261.39 180.06 283.19 179.78 282.7"/><polygon class="cls-2" points="180.98 288.17 274.7 263.94 274.74 264.5 181.15 288.69 180.98 288.17"/><polygon class="cls-2" points="180.65 293.23 274.91 266.89 274.96 267.5 181.11 293.68 180.65 293.23"/><polygon class="cls-37" points="279.93 260.43 283.32 268.13 293.86 271.08 295.8 262.9 279.93 260.43"/><path class="cls-21" d="M275.09,269.43l16.21,1.42,2.56.23-4.08-4-12.14-3.67-2.55,6Z"/><polygon class="cls-38" points="274.34 258.8 275.09 269.43 289.78 267.11 295.8 262.9 280.63 255.34 274.34 258.8"/><polygon class="cls-19" points="175.3 280.55 176.79 298.02 181.97 294.57 181.1 280.68 175.3 280.55"/></g><g id="paper_copy" data-name="paper copy"><polygon class="cls-18" points="232.75 303.19 205.83 331.75 248.33 343.92 270.5 310.25 232.75 303.19"/><polygon class="cls-2" points="223.25 301 199.33 331.58 248.5 336.25 265 303.25 223.25 301"/><polygon class="cls-18" points="442.88 264.43 491.41 278.41 489.81 310.72 419.33 305.75 442.88 264.43"/><polygon class="cls-41" points="443.17 261.2 500 269.42 489.81 310.72 417.7 295.54 443.17 261.2"/><polyline class="cls-42" points="487.69 272.88 489.98 273.35 482.39 302.19 479.76 301.79"/><polyline class="cls-42" points="472.49 270.38 474.25 270.85 465.19 299.35 462.55 298.95"/><polyline class="cls-42" points="458.05 268.18 459.81 268.65 447.35 296.45 445.35 296.11"/><polygon class="cls-20" points="481.49 275.72 481.54 271.5 479 271.08 477.74 275.76 479.76 277 484.41 277.45 483.26 282.27 480.3 282 480.48 279.55 477.81 278.82 476.7 282.03 479.43 283.65 484.45 283.22 486.21 275.59 481.49 275.72"/><polygon class="cls-20" points="441.69 282.45 441.73 278.22 439.19 277.8 437.93 282.48 439.95 283.73 444.6 284.18 443.45 289 440.49 288.73 440.67 286.28 438 285.55 436.89 288.75 439.63 290.37 444.64 289.95 446.4 282.31 441.69 282.45"/><polygon class="cls-20" points="455.53 292.93 456.05 288.55 453.37 288.2 451.38 293.42 453.79 294.77 460.15 294.75 461.13 297.14 462.27 293.98 455.53 292.93"/><polygon class="cls-20" points="460.62 282.42 461.13 278.04 458.46 277.69 456.46 282.91 458.88 284.26 465.23 284.24 466.21 286.63 467.36 283.47 460.62 282.42"/><polygon class="cls-20" points="446.83 272.71 447.35 268.33 444.67 267.98 442.68 273.2 445.09 274.55 451.44 274.54 452.42 276.93 453.57 273.76 446.83 272.71"/><polygon class="cls-42" points="221.25 309.75 257.38 310.69 256 312.19 220.06 311 221.25 309.75"/><polygon class="cls-42" points="215.75 319.63 249.94 323.06 249.13 324.69 214 321.19 215.75 319.63"/><polygon class="cls-20" points="229.27 305.69 226.6 305.79 225.38 308.15 231 308.52 230.67 303.85 234.69 303.92 234.54 306.4 232.81 305.96 232.46 307.81 235.77 309.1 237.1 307.98 235.52 303.17 229.52 303.27 229.27 305.69"/><polygon class="cls-20" points="241.46 316.5 238.71 315.71 235.63 318.46 241.38 321.29 244.17 314.46 247.33 316.96 247.5 314.29 242.88 313.46 241.46 316.5"/><polygon class="cls-20" points="225.46 328.79 222.42 328.71 220.08 330.46 224 333.13 229.13 331.83 227.88 325.54 233.17 325.25 232.54 323.96 225.63 324.29 225.46 328.79"/></g><g id="music_node_copy" data-name="music node copy"><polyline class="cls-43" points="483.4 43.32 475.67 35.08 427.67 39.75 401.67 70.08"/><polyline class="cls-43" points="488.36 112.23 495 109.08 506.67 68.08"/><line class="cls-44" x1="432.28" y1="138.81" x2="462.69" y2="124.4"/><line class="cls-44" x1="377" y1="165" x2="384.38" y2="161.5"/><line class="cls-44" x1="412.95" y1="27.44" x2="391.5" y2="48.25"/><polyline class="cls-43" points="377 179.5 511.5 119 529.5 62 500.5 18.75 464.26 17.31"/><line class="cls-44" x1="729.97" y1="79.32" x2="781" y2="61.75"/><line class="cls-44" x1="610.73" y1="91.34" x2="680.33" y2="96.42"/><line class="cls-44" x1="527.67" y1="117.08" x2="569.69" y2="98.36"/><line class="cls-44" x1="454.13" y1="162.33" x2="375" y2="195.75"/><line class="cls-44" x1="497.88" y1="143.85" x2="472.78" y2="154.45"/><polyline class="cls-43" points="739.08 98.63 683 119.08 589.67 105.08 535.86 127.81"/><line class="cls-44" x1="789" y1="80.42" x2="769.54" y2="87.52"/><line class="cls-45" x1="440.87" y1="185.09" x2="367.67" y2="214.42"/><polyline class="cls-43" points="610.08 129.3 592.33 124.42 474.17 171.75"/><polyline class="cls-43" points="796.33 115.08 684.33 149.75 675.83 147.41"/><polyline class="cls-46" points="784.5 221.75 775 185.75 694.5 154.75"/><line class="cls-44" x1="746.44" y1="156.71" x2="726" y2="147.75"/><polyline class="cls-43" points="793.03 182.63 791 176.25 772.34 168.07"/><line class="cls-45" x1="805" y1="220.25" x2="802.38" y2="212.02"/><polygon class="cls-20" points="394.21 151.44 385.78 157.94 389.65 162.78 400.02 161.26 403.47 154.48 387.78 138.83 405.13 126.7 415.5 139 407.34 145.64 410.66 151.58 421.86 150.06 425.18 141.49 404.86 120.61 381.07 138.72 394.21 151.44"/><polygon class="cls-47" points="480.4 115.18 469.36 116.2 467.49 124.02 480.74 127.58 485.83 120.28 477.68 101.6 488.55 101.94 485.66 96.5 472.41 100.58 480.4 115.18"/><polygon class="cls-20" points="763.55 160.54 753.76 155.32 748.33 166.75 757.02 171.09 765.29 167.78 768.75 147.69 777.64 153.95 778.22 147.82 764.91 143.95 763.55 160.54"/><polygon class="cls-20" points="596.12 86.16 582.88 86.31 575.8 96.78 589.19 100.17 602.74 92.93 592.58 71.69 603.2 72.31 598.89 64.92 587.5 71.54 596.12 86.16"/><polygon class="cls-20" points="499.75 57.25 497.5 47.25 484 49.75 486 63.5 502.5 64 510 54.92 514.17 61.58 520.17 56.92 514.25 45.75 499.75 57.25"/><polygon class="cls-20" points="431.83 20.42 424 11.58 415.33 17.75 417.83 26.42 438 26.25 436.33 3.33 455.67 2.83 454 15.75 448 13.42 444.17 17.58 444.33 22.92 459.5 22.92 457.67 0 431.5 0.5 431.83 20.42"/><polygon class="cls-20" points="508.38 140.35 502.87 144.07 507.66 150.42 515.69 149.22 518.8 143.23 510.3 132.45 519.64 123.1 524.79 129.45 526.95 134.25 522.04 134.37 523.23 141.55 529.34 141.55 537.13 135.92 519.64 119.75 506.22 131.37 512.93 141.79 508.38 140.35"/><polygon class="cls-20" points="461.01 174.42 451.41 174.73 446.65 183.97 458.74 184.98 466.91 183.66 469.4 174.32 460.5 158.71 469.95 158.93 468.32 154.7 453.25 155.97 464.03 173.01 461.01 174.42"/><polygon class="cls-20" points="627.67 127.42 622.17 122.75 614 129.58 614.83 136.08 633.33 140.58 636.83 121.75 651.5 124.58 649.33 134.58 642.5 132.58 639.67 137.58 643.33 144.58 653.5 144.92 654.33 125.42 668.67 129.92 668.17 141.08 663.33 136.92 657.17 143.25 664 152.58 672 146.75 671.33 128.08 652.5 120.42 634.17 118.58 631.5 132.92 627.67 127.42"/><polygon class="cls-47" points="690.83 84.25 684.83 90.42 686 97.08 701.5 97.08 705 89.25 692 72.58 710.17 60.75 716.5 70.92 709.83 74.42 712.67 81.58 724.83 81.75 726 71.58 709.5 55.58 685.67 70.25 700.17 88.08 690.83 84.25"/><polygon class="cls-47" points="800.67 189.29 798.02 187.12 791.53 186.83 788.63 192.62 801.04 205.92 809.46 184.81 823.35 200.07 816.16 210.36 812.93 202.98 807.16 205.79 808.89 216 818.17 218.33 826.43 199.61 808.1 179.28 799.99 197.61 800.67 189.29"/><polygon class="cls-20" points="745.42 105.42 740.17 115.42 740.42 121.42 755.42 122.42 765.67 114.92 748.42 93.17 765.92 90.42 763.17 85.17 741.42 91.17 756.92 113.67 745.42 105.42"/></g></g></svg>