<svg xmlns="http://www.w3.org/2000/svg" xmlns:xlink="http://www.w3.org/1999/xlink" viewBox="0 0 900 350"><defs><style>.cls-1,.cls-8{fill:none;}.cls-1{clip-rule:evenodd;}.cls-2{fill:#cfcfcd;}.cls-10,.cls-11,.cls-12,.cls-16,.cls-17,.cls-18,.cls-19,.cls-2,.cls-20,.cls-21,.cls-23,.cls-25,.cls-26,.cls-27,.cls-29,.cls-3,.cls-30,.cls-31,.cls-32,.cls-33,.cls-34,.cls-35,.cls-4,.cls-47,.cls-48,.cls-5,.cls-6,.cls-8,.cls-9{fill-rule:evenodd;}.cls-3,.cls-44{fill:#ececeb;}.cls-4,.cls-41{fill:#c4c4c4;}.cls-37,.cls-5,.cls-9{fill:#8f8f8f;}.cls-46,.cls-5{opacity:0.2;}.cls-46,.cls-6,.cls-7{fill:#2b2b2b;}.cls-6,.cls-7{opacity:0.1;}.cls-8{stroke:#8a6651;stroke-miterlimit:10;}.cls-10,.cls-42{fill:#dddddc;}.cls-11,.cls-13{fill:#b38c2e;}.cls-12,.cls-40{fill:#f4d75c;}.cls-14{clip-path:url(#clip-path);}.cls-15{opacity:0.1;}.cls-16{fill:#010101;}.cls-17{fill:#4f5353;}.cls-18{fill:#846528;}.cls-19,.cls-24{fill:#bd902d;}.cls-20{fill:#755924;}.cls-21,.cls-22{fill:#e4c823;}.cls-23{fill:#9d782c;}.cls-25{fill:#dfbda5;}.cls-26{fill:#c2987a;}.cls-27{fill:#8b6651;}.cls-28,.cls-48{fill:#e9cbb7;}.cls-29,.cls-43{fill:#fff;}.cls-30{fill:#474748;}.cls-31,.cls-39{fill:#ccae2d;}.cls-32,.cls-45{fill:#858686;}.cls-33,.cls-38{fill:#a3a3a3;}.cls-34{fill:#6f7273;}.cls-35{fill:#8d7c2f;}.cls-36{fill:#737474;}.cls-47{fill:#ac923b;}</style><clipPath id="clip-path"><polygon class="cls-1" points="537.62 102.06 540.66 53.49 579.67 57.75 579.67 109 537.62 102.06"/></clipPath></defs><title>explorers_Entrepreneur_ESTP_strengths</title><g id="illustration_copy" data-name="illustration copy"><g id="background_copy" data-name="background copy"><polygon class="cls-2" points="0 32.46 281.47 11.52 437.27 92.03 436.33 243.38 27.67 305.63 0 32.46"/><polygon class="cls-3" points="436.33 0 622.16 21.47 622.16 276.27 436.33 243.38 436.33 0"/><polygon class="cls-4" points="622.16 21.47 846.67 0 881.53 236.22 622.16 276.27 622.16 21.47"/><polygon class="cls-5" points="66.55 82.91 10.58 136.89 20.73 237.13 157.13 219.22 164.5 151.36 144.46 83.5 66.55 82.91"/></g><g id="Layer_5_copy" data-name="Layer 5 copy"><polygon class="cls-6" points="622.16 276.27 691.83 350 900 294.68 900 286.67 622.16 276.27"/><polygon class="cls-6" points="27.67 305.63 52.21 350 172.85 342.5 212.83 316.67 389.5 318.67 425.92 301.11 414.33 282 510.1 256.44 491.05 253.06 27.67 305.63"/><polygon class="cls-7" points="487.67 139.45 510.1 256.44 491.05 253.06 487.67 139.45"/></g><g id="Layer_2_copy" data-name="Layer 2 copy"><polygon class="cls-8" points="111.26 235.52 139.5 234 145.67 240.17 110 241.5 111.26 235.52"/><polygon class="cls-4" points="35 271.09 27.67 305.63 75.33 331.13 87.5 286.25 35 271.09"/><polygon class="cls-4" points="792.5 185.5 900 209 900 286.67 708.33 332.67 622.16 276.27 622.16 189.13 792.5 185.5"/><polygon class="cls-9" points="622.16 189.13 719.5 244 708.33 332.67 622.16 276.27 622.16 189.13"/><polygon class="cls-10" points="900 209 719.5 244 622.16 189.13 824.5 159.88 900 209"/><polygon class="cls-9" points="738.55 252.67 879.42 221.87 891 273.33 731.5 308.67 738.55 252.67"/><polygon class="cls-4" points="803.99 244.17 825.97 239.5 825.97 244.17 803.99 248.5 803.99 244.17"/><polygon class="cls-4" points="851.76 227.91 768.61 300.44 782.84 297.29 861.35 225.82 851.76 227.91"/><polygon class="cls-4" points="867.26 224.53 794.63 294.68 801.26 293.21 871.49 223.6 867.26 224.53"/><polygon class="cls-11" points="536 47.95 554.16 49.94 584.67 53.27 586 116.25 532.33 106.54 536 47.95"/><polygon class="cls-12" points="537.62 102.06 540.66 53.49 579.67 57.75 579.67 109 537.62 102.06"/><polygon class="cls-13" points="564.16 52.42 560.92 45.96 556.92 51.49 556.11 50.91 561.08 44.04 565.05 51.98 564.16 52.42"/><path class="cls-11" d="M561.94,44.87a1,1,0,1,1-1-1A1,1,0,0,1,561.94,44.87Z"/><g class="cls-14"><g class="cls-15"><polygon class="cls-16" points="522.7 148.9 551.77 146.36 580.26 149.89 551.92 151.94 522.7 148.9"/></g><polygon class="cls-17" points="581.02 121.31 578.75 116.93 575.96 117.57 578.78 122.53 581.02 121.31"/><polygon class="cls-18" points="571.09 102.4 563.47 115.5 569.34 117.5 575.03 110.11 571.09 102.4"/><polygon class="cls-18" points="543.11 96.2 536.23 106.5 537.24 111.43 540.07 114.4 543.66 111.33 544.52 102.62 543.11 96.2"/><polygon class="cls-19" points="536.23 106.5 530.17 105.98 529.23 109.06 530.11 112.77 540.07 114.4 536.23 106.5"/><polygon class="cls-18" points="543.94 124.81 542.7 134.42 545.78 139.39 551.36 138.46 556.8 129.54 543.94 124.81"/><polygon class="cls-20" points="551.36 138.46 542.7 134.42 541.77 141.65 544.63 144.37 547.97 144.03 551.36 138.46"/><polygon class="cls-11" points="541.61 142.35 539.36 143.75 535.52 147.09 542.51 147.61 547.7 147.09 547.97 144.03 543.11 141.18 541.61 142.35"/><polygon class="cls-21" points="543.35 142.26 541 144.37 539.36 143.75 541.77 141.65 542.7 141.18 543.35 142.26"/><polygon class="cls-19" points="552.11 131.44 553.66 136.84 558.57 139.39 563.47 138.08 566.27 125.18 555.93 128.21 552.11 131.44"/><polygon class="cls-18" points="563.47 138.08 553.66 136.84 555.69 143.88 558.95 145.52 562.08 145.06 563.47 138.08"/><polygon class="cls-11" points="555.69 143.88 553.66 148.62 558.65 149.32 562.69 148.62 562.08 145.06 559.93 143.67 558.86 143.4 557.82 143.4 555.69 143.88"/><rect class="cls-22" x="553.67" y="148.62" width="9.02" height="1.4"/><polygon class="cls-21" points="559.93 144.63 559.61 146.88 557.02 146.88 557.87 144.26 558.86 144.03 559.93 144.63"/><rect class="cls-22" x="535.51" y="147.07" width="12.19" height="1.4"/><polygon class="cls-23" points="543.94 124.81 552.11 131.44 566.27 125.18 556.45 123.82 551.77 120.93 548.9 123.09 543.94 124.81"/><polygon class="cls-21" points="545.41 97.69 548.9 96.14 551.29 99.42 553.21 104.02 559.55 101.86 565.82 100.48 568.75 103.73 566.81 115.5 565.82 118.53 566.27 125.18 554.38 127.21 551.77 121.27 548.58 126.54 543.94 124.81 543.66 111.33 545.41 97.69"/><polygon class="cls-20" points="567.71 95.26 565.34 92.78 564.98 95.05 563.55 97.44 567.71 95.26"/><polygon class="cls-20" points="551.41 90.02 546.72 92.49 548.9 96.14 553.21 104.02 552.98 96 551.41 90.02"/><polygon class="cls-19" points="566.81 115.5 565.82 100.48 571.09 102.4 566.81 115.5"/><polygon class="cls-19" points="543.11 96.2 543.66 111.33 548.9 96.14 543.11 96.2"/><rect class="cls-24" x="558.99" y="105.55" width="1.26" height="9.12" transform="translate(362.92 645.46) rotate(-80.96)"/><polygon class="cls-25" points="567.52 70.45 553.89 69.01 549.71 66.97 545.13 88.09 551.41 90.02 552.27 92.75 553.15 94.54 558.91 97.69 563.66 94.69 570.86 86.47 573.75 81.97 574.56 77.35 567.52 70.45"/><polygon class="cls-26" points="565.96 70.28 559.51 92.38 551.41 90.02 552.16 92.85 552.09 95.64 553.21 104.02 560.48 99.83 564.87 95.81 569.05 89.3 569.2 87.45 570.86 86.47 567.3 83.8 570.33 79.49 573.75 81.97 575.9 78.66 569.35 72.25 567.52 70.45 565.96 70.28"/><polygon class="cls-26" points="552.99 81 556.94 75.38 561.95 73.75 556.21 71.99 554.74 73.77 552.65 77.53 552.99 81"/><polygon class="cls-26" points="552.6 73.26 552.36 71.44 548.97 70.39 551.63 78.77 552.6 73.26"/><polygon class="cls-27" points="567.29 83.8 570.86 86.47 569.05 89.29 567.29 83.8"/><polygon class="cls-27" points="553.99 76.87 560.51 82.33 563.2 79.74 564.35 79.7 564.87 78.92 561.95 77.52 553.99 76.87"/><polygon class="cls-27" points="551.82 76.46 547.33 77.92 547.52 77.04 548.4 75.47 551.82 76.46"/><polygon class="cls-18" points="568.97 72.82 562.34 82.69 565.8 85.92 570.33 79.49 573.75 81.97 575.9 78.66 572.44 74.48 568.97 72.82"/><rect class="cls-28" x="549.08" y="76.03" width="7.43" height="2.21" transform="translate(349.06 596.77) rotate(-76.54)"/><polygon class="cls-27" points="569.14 83.45 570.53 81.05 572.59 82.47 569.14 83.45"/><polygon class="cls-18" points="561.95 73.75 557.98 71.05 556.21 71.99 561.95 73.75"/><polygon class="cls-18" points="552.36 71.44 550.66 69.66 548.97 70.39 552.36 71.44"/><polygon class="cls-27" points="547.44 81.64 559.52 84.56 554.94 86.88 549.71 85.67 547.44 81.64"/><polygon class="cls-29" points="548.83 82.76 557.32 84.81 554.78 86.22 550.24 85.16 548.83 82.76"/><polygon class="cls-27" points="550.85 80.48 551.77 82.01 552.99 81 550.85 80.48"/><polygon class="cls-20" points="564.35 79.7 569.95 80.03 570.33 79.49 567.34 78.66 564.86 78.94 564.35 79.7"/><polygon class="cls-27" points="551.41 90.02 562 93.11 552.09 95.65 551.41 90.02"/><polygon class="cls-19" points="553.89 60.63 573.75 65.59 577.37 71.66 564.87 66.97 553.89 60.63"/><polygon class="cls-23" points="565.96 70.28 575.9 78.66 577.37 71.66 568.47 67.3 565.96 70.28"/><polygon class="cls-18" points="565.96 70.28 568.47 69.31 568.47 67.3 553.89 60.63 553.43 64.92 553.89 69.01 565.96 70.28"/><polygon class="cls-24" points="553.89 60.63 553.89 69.01 549.71 66.97 544.36 58.33 553.89 60.63"/><polygon class="cls-30" points="562.72 75.68 573.47 78.28 573.75 81.97 570.33 79.49 561.95 78.61 562.04 76.98 562.72 75.68"/><polygon class="cls-30" points="552.6 73.26 554.74 73.77 554.85 74.69 554.29 75.65 552.15 75.11 551.91 74.33 552.6 73.26"/><path class="cls-17" d="M552.59,73.26l-.77,3.2-7.3,1,1.38-5.79Zm2.15.51,8,1.91-1.55,5.85L554,76.87Z"/><polygon class="cls-19" points="558.65 97.85 567.71 95.26 565.82 100.48 553.21 104.02 558.65 97.85"/><polygon class="cls-31" points="565.82 118.53 553.15 112.94 551.77 112.94 543.78 117.04 551.77 120.93 565.82 118.53"/><polygon class="cls-19" points="553.21 104.02 553.15 112.94 551.77 121.27 551.77 112.94 553.21 104.02"/><polygon class="cls-19" points="575.03 110.11 563.66 117.57 564.22 120.93 566.13 123.09 578.75 116.93 575.03 110.11"/><polygon class="cls-25" points="563.66 117.57 560.83 119.38 566.13 123.09 563.66 117.57"/><polygon class="cls-23" points="562.92 140.82 554.8 140.78 555.69 143.88 562.08 145.06 562.92 140.82"/><polygon class="cls-31" points="559.93 144.66 559.93 142.35 557.74 142.13 557.87 144.28 559.93 144.66"/><polygon class="cls-23" points="549.58 141.39 542.25 137.93 541.77 141.65 547.97 144.03 549.58 141.39"/><polygon class="cls-31" points="543.35 142.26 543.78 139.92 542.06 139.39 541.77 141.65 543.35 142.26"/><polygon class="cls-26" points="530.17 105.98 526.6 105.72 525.29 108.77 526.03 112.78 530.11 112.77 530.17 105.98"/><polygon class="cls-25" points="530.17 105.98 527.39 101.33 525.85 101.8 527.03 107.99 530.14 109.13 530.17 105.98"/><polygon class="cls-26" points="526.6 105.72 519.35 105.3 519.35 106.77 525.52 108.23 526.6 105.72"/><polygon class="cls-25" points="522.92 107.61 522.7 111.7 526.03 112.78 527.03 107.99 522.92 107.61"/><polygon class="cls-32" points="582.15 123.09 565.45 129.58 562.34 132.29 563.47 138.08 583.55 133.97 586.36 126.18 582.15 123.09"/><polygon class="cls-33" points="565.45 129.58 586.36 126.18 581.02 121.31 559.25 124.01 560.95 127.92 565.45 129.58"/><polygon class="cls-34" points="559.78 124.84 561.46 126 565.45 129.58 563.47 138.08 556.98 132.29 558.56 126.5 559.78 124.84"/><polygon class="cls-10" points="578.17 129.6 580.08 129.73 580.21 130.69 579.21 131.38 580.38 131.81 580.34 132.47 578.73 132.25 578.3 131.16 579.56 130.38 578.04 130.25 578.17 129.6"/><path class="cls-10" d="M576,131.86l1.26-.17-.08,1.21.86-.26-.56-2.61-1.61.31Zm.65-1,.53-.3.08.56-.52.22Z"/><path class="cls-10" d="M573.65,133.21l1.82-.13-.21-2.44-1.74.22Zm.39-1.57.78-.22.13,1-.65.17Z"/><path class="cls-10" d="M571.49,133.86l.86-1.31-.09,1.22.87-.26-.57-2.61-1.6.31.39,1.52-.45,1.06Zm.86-1.87-.52.22-.09-.48.52-.31Z"/><polygon class="cls-10" points="570.41 131.45 568.07 131.58 568.16 132.2 569.21 132.13 569.37 134.05 570.22 133.89 569.73 132.16 570.58 132.03 570.41 131.45"/></g><polygon class="cls-6" points="532.33 106.54 536.25 112.75 581 120.75 586 116.25 532.33 106.54"/><path class="cls-35" d="M739.77,194l-32,5.92-6.82,11.4,18.3,9.77,37-6.67-2-14.5Zm7.61,14.59-25.33,4.5-12.84-4.83,4.17-6.5,23.33-3.5,11.5,4.16Z"/><polygon class="cls-35" points="724.3 206.09 728.13 203.34 736.13 204.17 731.3 206.67 724.3 206.09"/><polygon class="cls-6" points="812.69 161.69 805.5 166.67 824.53 169.13 829.36 163.04 828.15 162.25 812.69 161.69"/><polygon class="cls-31" points="814.98 130.25 811.25 135 812.69 161.69 817.17 166 824.88 166 828.15 162.25 827.5 134.5 822.75 130.25 822.39 125.37 824.88 124.63 821.75 123 814.98 123.52 812.13 125.75 814.98 125.75 814.98 130.25"/><polygon class="cls-12" points="817.91 163 816.05 160.45 814.32 135.94 824.53 135.87 825.13 160.66 823.37 163 817.91 163"/><polygon class="cls-11" points="814.32 135.94 818.67 137 824.53 135.87 819.43 134.5 814.32 135.94"/><polygon class="cls-21" points="818.67 137 817.91 163 816.05 160.45 814.32 135.94 818.67 137"/><polygon class="cls-3" points="822 143.19 821.25 144.5 822 145.5 822.56 144.34 822 143.19"/><polygon class="cls-3" points="821.25 146 820.59 146.77 821.25 147.36 821.75 146.68 821.25 146"/><polygon class="cls-3" points="820.74 143.13 820.02 143.82 820.74 144.34 821.28 143.74 820.74 143.13"/><polygon class="cls-11" points="816.49 123.4 814.32 117.88 817.25 116.26 821.75 116.26 823.38 117.5 821.75 123 816.49 123.4"/><polygon class="cls-36" points="534.5 244.49 549 239.36 588.25 241.76 570.25 250.01 534.5 244.49"/><polygon class="cls-37" points="588.25 241.76 581.5 277.51 563.75 286.01 563.75 265.13 570.25 250.01 588.25 241.76"/><polygon class="cls-38" points="534.5 244.49 543 278.51 563.75 286.01 570.25 250.01 534.5 244.49"/><polygon class="cls-39" points="549 239.36 577.25 233.01 569.34 257.71 549 239.36"/><polygon class="cls-39" points="573 205.16 584 221.26 577.25 233.01 568.25 225.51 573 205.16"/><polygon class="cls-40" points="597.25 215.01 573 205.16 584 221.26 597.25 215.01"/><polygon class="cls-22" points="582.5 185.5 573 205.16 554.5 202.26 582.5 185.5"/><polygon class="cls-13" points="555.75 215.26 554.5 202.26 573 205.16 568.25 225.51 556.49 226.43 555.75 215.26"/><polygon class="cls-39" points="563.13 214.34 561.38 226.05 549 239.36 544.51 232.43 563.13 214.34"/><polygon class="cls-40" points="543.23 217.81 563.13 214.34 552.38 226.76 543.23 217.81"/><polygon class="cls-22" points="529.5 243.26 543.23 217.81 552.38 226.76 529.5 243.26"/><polygon class="cls-22" points="547.25 202.26 555.78 215.7 522.75 221.26 547.25 202.26"/><polygon class="cls-40" points="577.25 233.01 568.25 225.51 552.38 226.76 549 239.36 577.25 233.01"/><polygon class="cls-7" points="522.75 221.26 539.25 227.06 529.5 243.26 535.3 260.9 537 268.3 525 276.27 561.38 293 598.89 272.15 588.25 241.76 582.5 235.17 586.83 225.51 597.25 215.01 584 221.26 543 217.57 522.75 221.26"/><polygon class="cls-39" points="538.75 261.51 566.61 270.19 584.27 262.82 583.04 269.35 565.51 276.27 540.28 267.64 538.75 261.51"/><polygon class="cls-22" points="566.61 270.19 538.75 261.51 540.28 267.64 565.51 276.27 566.61 270.19"/><polygon class="cls-6" points="767 197.25 776.67 187.16 824 183.63 838.59 189 855.5 200.63 799.5 209.45 767 197.25"/><polygon class="cls-35" points="781.8 190.11 777.25 197.25 796.92 205.5 843.31 197.8 838.59 189 781.8 190.11"/><polygon class="cls-3" points="769.83 165.16 788.83 150.04 827.76 145.5 843.31 154.9 838.59 170.96 803.27 177.63 782.33 173.56 769.83 165.16"/><polygon class="cls-4" points="782.33 173.56 789.37 164.18 820.7 160.55 838.59 170.96 806.2 180.71 782.33 173.56"/><polygon class="cls-33" points="769.83 165.16 776.67 187.16 797.04 198.86 837.24 193.14 845.5 183.63 849.5 156.75 838.59 170.96 803.27 177.63 782.33 173.56 769.83 165.16"/><polygon class="cls-10" points="827.76 145.5 820.7 160.55 838.59 170.96 849.5 156.75 827.76 145.5"/><polygon class="cls-9" points="803.27 177.63 797.04 198.86 776.67 187.16 782.33 173.56 803.27 177.63"/><polygon class="cls-9" points="838.59 170.96 837.24 193.14 845.5 183.63 849.5 156.75 838.59 170.96"/><polygon class="cls-10" points="667.26 63.2 805.76 46.2 805.76 40.2 796.26 36.7 660.76 54.19 660.76 61.2 667.26 63.2"/><polygon class="cls-33" points="660.76 54.19 668.26 56.7 805.76 40.2 805.76 46.2 667.26 63.2 660.76 61.2 660.76 54.19"/><polygon class="cls-32" points="670.77 62.77 669.56 78.56 679.67 101.67 665.38 133.19 801.26 127.7 796.25 87.1 796.1 47.38 670.77 62.77"/><polygon class="cls-33" points="788 46.5 791.76 115.2 801.26 127.7 796.1 47.38 788 46.5"/><polygon class="cls-10" points="791.76 115.2 728.57 117.75 665.38 133.19 664.26 147.7 801.26 127.7 791.76 115.2"/><polygon class="cls-21" points="788.25 48.35 769.25 59 765.5 76 761.08 82.1 749.5 87.1 746 100 733.32 109 733.32 123.52 791.76 115.2 788.25 48.35"/><polygon class="cls-31" points="769.25 59 789.03 63.2 775.06 85.93 761.08 82.1 769.25 59"/><polygon class="cls-11" points="733.32 109 791.76 115.2 733.32 123.52 733.32 109"/><polygon class="cls-31" points="746 100 775.06 85.93 790.4 90.28 791.21 104.75 746 100"/><polygon class="cls-12" points="761.08 82.1 790.4 90.28 789.03 63.2 761.08 82.1"/><polygon class="cls-21" points="769.25 59 789.03 63.2 788.25 48.35 769.25 59"/><polygon class="cls-35" points="669.56 78.56 682.5 81.24 687 93.5 701 95.92 710 106.54 733.32 109 738.55 122.77 665.38 133.19 669.56 78.56"/><polygon class="cls-3" points="707.25 73.75 715.75 69.5 725.5 71.63 742.75 66.75 755.75 70.25 738.55 79.75 727.25 76.74 720 79.75 707.25 73.75"/><polygon class="cls-2" points="707.25 73.75 724.5 73.75 733.32 75.5 755.75 70.25 738.55 79.75 727.25 76.74 720.25 81 707.25 73.75"/><polygon class="cls-3" points="687.88 67.63 687.13 69 685.25 69 686.56 70.25 685.25 72.47 687.88 71.63 689.13 73.25 689.13 71.25 691.25 70.25 688.25 69.38 687.88 67.63"/><polygon class="cls-3" points="702.49 85.35 702.09 87.04 700.08 87.04 701.29 88.64 700.08 90.28 702.49 89.35 705.06 91.29 704.42 88.96 705.54 87.92 703.71 87.52 702.49 85.35"/><polygon class="cls-3" points="759.56 56.08 758.67 58.05 756.5 58.05 758.03 59.24 756.5 61.9 758.97 60.62 761.73 61.9 761.04 59.73 762.42 58.45 760.44 58.25 759.56 56.08"/><polygon class="cls-9" points="201.23 175 203.78 311.17 196.29 305.63 157.25 224.85 156 165.5 201.23 175"/><polygon class="cls-41" points="303.27 292.85 394.58 289.32 402.75 284.57 396.28 163.72 360.33 150.88 289.62 184.38 303.27 292.85"/><polygon class="cls-10" points="200 106.54 276.47 92.06 273.4 69.52 144.46 83.5 200 106.54"/><polygon class="cls-4" points="285.7 159.88 201.23 175 200 106.54 276.47 92.06 285.7 159.88"/><polygon class="cls-3" points="201.23 175 285.7 159.88 294.36 214 303.27 292.85 203.78 311.17 201.23 175"/><polygon class="cls-33" points="201.23 175 157.13 219.22 144.46 83.5 200 106.54 201.23 175"/><polygon class="cls-29" points="211.5 124.76 213.75 158.25 222.25 157 220.25 123.34 211.5 124.76"/><polygon class="cls-9" points="211.5 180.5 211.5 197.83 268.59 214 275.82 170.17 211.5 180.5"/><polygon class="cls-10" points="212.83 230.83 288.84 221.5 291.1 252.23 212.83 264.13 212.83 230.83"/><polygon class="cls-10" points="212.83 271.09 291.1 261.05 294.2 283.83 212.83 297.13 212.83 271.09"/><polygon class="cls-33" points="282.27 97.74 281.47 11.52 418.5 8 491.05 6.21 491.05 88.03 333.11 106.54 282.27 97.74"/><polygon class="cls-10" points="281.47 11.52 307.39 24.91 330.83 22.67 491.05 6.21 436.33 0 281.47 11.52"/><polygon class="cls-33" points="330.83 22.67 333.11 106.54 282.27 97.74 281.47 11.52 330.83 22.67"/><polygon class="cls-4" points="436.33 122.77 487.67 139.45 480.33 149.33 488.28 159.88 491.05 253.06 359.32 280.11 327.51 138.8 436.33 122.77"/><polygon class="cls-33" points="436.33 122.77 487.67 139.45 386.26 156.12 327.51 138.8 436.33 122.77"/><polygon class="cls-42" points="409.28 174.41 488.28 159.88 487.67 139.45 386.26 156.12 409.28 174.41"/><polygon class="cls-38" points="422.21 266.8 418.5 149.33 422.57 150.15 425.92 266.01 422.21 266.8"/><polygon class="cls-43" points="431.83 201.36 440.5 199.75 440.5 221.23 431.83 222.84 431.83 201.36"/><polygon class="cls-43" points="405.67 206.21 414.33 204.6 414.33 226.08 405.67 227.69 405.67 206.21"/><polygon class="cls-9" points="386.26 135.2 431.83 127.49 469.25 138.13 405.75 147.7 386.26 135.2"/><polygon class="cls-31" points="408.63 131.38 411 118.17 416 116 416 130.25 408.63 131.38"/><polygon class="cls-4" points="431.83 127.49 431.27 129.9 432.28 132 433.43 143.53 469.25 138.13 431.83 127.49"/><polygon class="cls-11" points="416 120.13 414.25 120.13 411.61 130.92 416 130.25 416 120.13"/><polygon class="cls-7" points="491.05 88.03 436.33 108.58 436.33 94.44 491.05 88.03"/><polygon class="cls-4" points="482.5 17.5 482.5 79.75 430 85.92 422.21 23.8 482.5 17.5"/><polygon class="cls-10" points="211.5 222.58 268.59 214 283.14 206.89 271.12 198.63 211.5 205 211.5 222.58"/><polygon class="cls-6" points="258.27 208.67 255.86 216.09 251.39 216.59 258.27 208.67"/><polygon class="cls-38" points="312.67 258.6 380.67 254.67 382.19 281.93 314.81 281.36 312.67 258.6"/><polygon class="cls-38" points="306.56 220.5 308.8 230.2 311.13 250.79 380.67 249.33 379.18 220.5 306.56 220.5"/><polygon class="cls-38" points="394.58 289.32 388.9 168 397.57 192.66 402.75 284.57 394.58 289.32"/><polygon class="cls-21" points="432.28 132 431 117.5 427.75 113.33 416 116 417.63 128.75 420.74 133.3 432.28 132"/><polygon class="cls-31" points="431 117.5 420.31 118.25 420.74 133.3 416 132.38 416 116 427.75 113.33 431 117.5"/><polygon class="cls-21" points="256.95 177.35 255.53 179.55 256.24 183.35 251.72 185.37 254.37 187.9 254.32 190.35 258.95 187.9 262.32 189.97 264.82 188.81 262 186.25 263.45 182.97 260.82 183.1 262.2 178.8 260 176.56 256.95 177.35"/><polygon class="cls-23" points="241.25 187.9 245.83 184.67 252.58 185.22 255.37 188.05 252.67 189.92 246.25 190.35 241.25 187.9"/><polygon class="cls-31" points="252.69 196.23 249 198.67 249.67 212 244.93 217.56 251.39 216.59 258.27 208.67 259 204.75 252.69 196.23"/><polygon class="cls-12" points="259.25 180.63 257.83 182.83 258.54 186.63 254.02 188.65 255.06 191.31 256.63 193.63 261.25 191.17 264.63 193.25 267.13 192.08 268.59 188.5 265.75 186.25 263.13 186.38 265.75 182.75 263.5 180.13 259.25 180.63"/><polygon class="cls-21" points="211.5 197.83 222.75 202.67 230.6 200.1 244.5 188.69 230.26 185.22 211.5 197.83"/><polygon class="cls-39" points="211.5 197.83 230.6 200.1 227.33 212 234 219.2 211.5 222.58 211.5 197.83"/><polyline class="cls-11" points="233.87 219.22 227.33 212 230.6 200.1 244.5 188.69 255.37 188.05 256.63 193.63 249 198.67 249.67 212 244.83 217.67 238.5 216.59 233.87 219.22"/><polygon class="cls-37" points="261.3 240.17 212.83 246 212.83 230.83 261.3 224.88 261.3 240.17"/><polygon class="cls-41" points="291.1 252.23 261.3 240.17 261.3 224.88 288.84 221.5 291.1 252.23"/><polygon class="cls-41" points="294.2 283.83 263.67 276.2 263.67 264.57 291.1 261.05 294.2 283.83"/><polygon class="cls-37" points="263.67 276.2 212.83 284.61 212.83 271.09 263.67 264.57 263.67 276.2"/><polygon class="cls-6" points="258.57 240.5 259.83 248.17 273.75 253.06 291.1 252.23 285.56 249.99 258.57 240.5"/><polygon class="cls-44" points="274.12 231.75 274.12 252.23 285.67 250.67 282.63 230.75 274.12 231.75"/><polygon class="cls-45" points="274.12 252.23 258.57 240.5 261.3 224.88 274.12 231.75 274.12 252.23"/><polygon class="cls-33" points="261.3 224.88 273.23 223.42 282.63 230.75 274.12 231.75 261.3 224.88"/><polygon class="cls-7" points="288.97 282.53 294.2 283.83 275.17 286.94 257.67 277.2 260.33 276.75 288.97 282.53"/><polygon class="cls-44" points="276.83 269.98 275.63 285.63 290.65 282.95 286.09 267.74 276.83 269.98"/><polygon class="cls-45" points="275.63 285.63 260.33 276.75 261.63 264.83 276.83 269.98 275.63 285.63"/><polygon class="cls-33" points="261.63 264.83 274.12 263.23 286.09 267.74 276.83 269.98 261.63 264.83"/><polygon class="cls-23" points="234 219.2 227.33 212 249.67 212 244.83 217.67 234 219.2"/><path class="cls-7" d="M263.67,285.49c0,2.68-9.55,4.85-21.34,4.85S221,288.17,221,285.49s9.55-4.86,21.33-4.86S263.67,282.81,263.67,285.49Z"/><path class="cls-45" d="M259.84,284.93c0,2.15-8.14,4.37-18.18,4.37s-18.17-2.22-18.17-4.37c0-.67,0,0,.1-5.55,3.07-1.22,29.31-.42,36.25-.42Z"/><path class="cls-44" d="M259.84,276.17c0-2.16-8.14-1.51-18.18-1.51s-18.17-.65-18.17,1.51V279c0,2.16,8.14,3.91,18.17,3.91s18.18-1.75,18.18-3.91Z"/><path class="cls-46" d="M223.49,276.17V279a1,1,0,0,0,.1.42h0c-.1,5.55-.1,4.88-.1,5.55,0,.88,1.38,1.78,3.69,2.52l3,.78h0l5.09-8.41-9.84-4.9C224.19,275.16,223.49,275.54,223.49,276.17Z"/><path class="cls-38" d="M259.84,276.17c0,2.15-8.14,3.9-18.18,3.9s-18.17-1.75-18.17-3.9,8.14-3.91,18.17-3.91S259.84,274,259.84,276.17Z"/><polygon class="cls-47" points="211.5 210.21 227.33 212 234 219.2 211.5 222.58 211.5 210.21"/><polygon class="cls-47" points="249.67 212 258.27 208.67 251.39 216.59 244.83 217.67 249.67 212"/><polygon class="cls-10" points="20.73 237.13 79.33 268.62 176.61 259.82 202.5 242 157.13 219.22 65 225 20.73 237.13"/><polygon class="cls-4" points="168.5 259.82 168.5 331.13 75.33 331.13 79.33 268.62 168.5 259.82"/><polygon class="cls-33" points="20.73 237.13 27.67 305.63 75.33 331.13 79.33 268.62 20.73 237.13"/><polygon class="cls-9" points="203.78 311.17 168.5 331.13 168.5 259.82 202.5 242 203.78 311.17"/><polygon class="cls-6" points="52.21 228.5 77.88 259.41 150.33 255.6 157.13 219.22 52.21 228.5"/><polygon class="cls-12" points="66.55 182.83 97.21 197.09 134.21 196.67 141.55 182.83 130.42 176.17 122.96 179.75 89.71 179.75 77.88 177.67 66.55 182.83"/><polygon class="cls-21" points="97.21 197.09 134.21 196.67 141.55 250 86.21 252.23 97.21 197.09"/><polygon class="cls-21" points="144.46 83.5 147.21 103.17 139.21 111.49 139.21 129.19 147.21 139.45 143.21 165.5 132.71 175.06 122.96 179.75 89.71 179.75 77.88 177.67 64.21 165.7 63.88 138.8 70.21 130.59 69.88 111.49 62.55 101.67 66.55 82.91 74.55 76.27 85.88 73.3 122.96 72.2 135.21 76.27 144.46 83.5"/><polygon class="cls-23" points="89.71 179.75 89.71 184 98.46 189 115.21 189 122.46 186.5 122.96 179.75 89.71 179.75"/><polygon class="cls-31" points="97.21 197.09 86.21 252.23 52.21 228.5 66.55 182.83 97.21 197.09"/><polygon class="cls-31" points="134.21 196.67 141.55 250 157.13 219.22 141.55 182.83 134.21 196.67"/><polygon class="cls-31" points="104.88 205 129.05 205 132.88 240.17 97.21 241.5 104.88 205"/><polygon class="cls-12" points="108.38 205 106.34 217.53 114.05 217.53 114.05 205 108.38 205"/><polygon class="cls-12" points="120.38 205 119.71 217.53 126.71 217.53 126.71 205 120.38 205"/><polygon class="cls-11" points="129.05 205 126.71 234 132.88 240.17 129.05 205"/><polygon class="cls-11" points="126.71 234 98.79 234 97.21 241.5 132.88 240.17 126.71 234"/><polygon class="cls-47" points="62.55 101.67 92.88 105.45 121.55 105.78 147.21 103.17 139.21 111.49 121.55 115.49 92.88 114.25 69.88 111.49 62.55 101.67"/><polygon class="cls-12" points="122.96 79.75 135.21 76.27 122.96 72.2 85.88 73.3 74.55 76.27 87.21 79.75 122.96 79.75"/><polygon class="cls-31" points="87.21 79.75 92.88 92.39 92.88 105.45 62.55 101.67 66.55 82.91 74.55 76.27 87.21 79.75"/><polygon class="cls-12" points="70.21 130.59 86.21 133.53 119.71 133.53 139.21 129.19 147.21 139.45 124.55 143.74 86.21 144.59 63.88 138.8 70.21 130.59"/><polygon class="cls-31" points="86.21 144.59 86.21 170.17 77.88 177.67 64.21 165.7 63.88 138.8 86.21 144.59"/><polygon class="cls-31" points="92.88 114.25 89.71 133.53 70.21 130.59 69.88 111.49 92.88 114.25"/><polygon class="cls-31" points="86.21 170.17 94.96 176.17 122.96 179.75 89.71 179.75 77.88 177.67 86.21 170.17"/></g><g id="character_copy" data-name="character copy"><polygon class="cls-25" points="274.37 79.54 248.93 109.01 237.36 115.49 279.25 160.44 293.96 148.9 301.72 151.32 307.33 152.16 324.02 143.82 324.73 127.9 317.22 97.74 311.39 83.69 301.91 74.3 274.37 79.54"/><polygon class="cls-26" points="271.46 82.91 312.61 133.82 293.95 148.9 301.77 151.76 306.63 158.25 323 165.25 328.75 139.5 319.93 104.26 316.8 103.2 317.22 97.74 305.2 101.72 300.05 87.64 311.39 83.69 307.16 73.3 281.56 78.17 274.37 79.54 271.46 82.91"/><polygon class="cls-26" points="275.45 130.59 268.72 112.25 273.06 97.91 259.64 108.44 261.42 114.77 266.81 125.75 275.45 130.59"/><polygon class="cls-26" points="256.73 118.95 252.1 116.53 244.14 122.77 268.04 130.14 256.73 118.95"/><polygon class="cls-27" points="305.2 101.72 317.22 97.74 319.93 104.26 305.2 101.72"/><polygon class="cls-27" points="267.43 121.55 290.76 115.17 289.07 104.7 290.84 101.95 289.86 99.45 281.84 104.01 267.43 121.55"/><polygon class="cls-27" points="262.95 125.95 259.08 138.8 257.33 136.93 255.09 132.34 262.95 125.95"/><polygon class="cls-18" points="282.27 80 294.56 111.49 307.73 108.66 300.05 87.64 311.39 83.69 307.16 73.3 291.78 74.57 282.27 80"/><polygon class="cls-48" points="256.73 118.95 261.41 114.77 275.45 130.59 270.76 134.75 256.73 118.95"/><polygon class="cls-27" points="307.38 96.85 304.02 89.7 310.67 87.21 307.38 96.85"/><polygon class="cls-18" points="273.06 97.91 260.31 102.8 259.64 108.44 273.06 97.91"/><polygon class="cls-18" points="252.1 116.53 245.19 117.61 244.14 122.77 252.1 116.53"/><polygon class="cls-27" points="270.76 134.75 275.82 135.08 275.45 130.59 270.76 134.75"/><polygon class="cls-20" points="290.84 101.95 300.7 89.41 300.05 87.64 293.27 93.28 289.89 99.51 290.84 101.95"/><polygon class="cls-27" points="291.13 150.88 318.34 129.19 306.63 158.25 291.13 150.88"/><polygon class="cls-19" points="229.35 95.41 273.15 57.12 293.19 58.5 261.97 80.08 229.35 95.41"/><polygon class="cls-23" points="271.46 82.91 307.16 73.3 293.19 58.5 268.59 72.2 271.46 82.91"/><polygon class="cls-18" points="271.46 82.91 273.29 75.47 268.59 72.2 229.35 95.41 238.61 103.45 248.93 109.01 271.46 82.91"/><polygon class="cls-24" points="229.35 95.41 248.93 109.01 237.36 115.49 208.51 113.96 229.35 95.41"/><polygon class="cls-30" points="278.82 99.24 302.32 78.34 311.39 83.69 300.05 87.64 284.39 105.78 280.75 102.91 278.82 99.24"/><polygon class="cls-30" points="256.73 118.95 261.41 114.77 263.73 115.99 265.05 118.87 260.32 122.99 258.12 122.27 256.73 118.95"/><path class="cls-17" d="M256.73,119l6.22,7-9.54,18.64L242.13,132Zm4.68-4.18,17.41-15.53L290,112.33l-22.53,9.22Z"/><polygon class="cls-20" points="323 165.25 297.89 154.09 291.78 160.11 298.67 165.67 323 165.25"/><polygon class="cls-20" points="325.68 127.23 329.06 140.5 340.33 130.14 325.68 127.23"/><polygon class="cls-19" points="323 165.25 319.83 147.17 340.33 130.14 344 140.5 323 165.25"/><polygon class="cls-18" points="410 175 371.38 183.71 369 145.82 380.67 150.88 410 175"/><polygon class="cls-26" points="392.75 218 398.67 208.67 391.32 203.25 392.75 218"/><polygon class="cls-26" points="275.82 170.17 273.4 154.17 279.25 160.44 275.82 170.17"/><polygon class="cls-25" points="285.72 155.23 297.89 165.04 290.01 175.84 275.82 170.17 279.25 160.44 285.72 155.23"/><polygon class="cls-19" points="275.82 170.17 290.01 175.84 294.36 214 268.59 214 275.82 170.17"/><polygon class="cls-18" points="303.27 206.36 294.36 214 290.01 175.84 300.67 186.33 303.27 206.36"/><polygon class="cls-21" points="303.69 230.75 330.83 239 338.67 226.67 352.86 235.35 373.75 221.5 371.38 183.71 360.33 150.88 344 140.5 323 165.25 297.89 165.04 295.63 176.56 297.79 193.98 307.58 216.83 303.69 230.75"/><polygon class="cls-23" points="309.05 232.38 329.8 247.13 342.33 249.33 355.38 243.38 373.75 221.5 352.86 235.35 338.67 226.67 330.83 239 309.05 232.38"/><polygon class="cls-31" points="297.79 193.98 290.01 175.84 297.89 165.04 297.79 193.98"/><polygon class="cls-18" points="330.67 279.25 339.88 283.34 349.83 281.14 350.63 275.55 347.46 269.98 337.93 265.8 326.02 267.98 330.67 279.25"/><polygon class="cls-21" points="348 297.37 314.67 297.37 314.67 293.21 348.47 293.21 348 297.37"/><polygon class="cls-23" points="330.67 279.25 314.67 293.21 348.47 293.21 350.63 287.83 349.83 281.14 330.67 279.25"/><polygon class="cls-22" points="325.25 283.97 330.17 284.61 335.1 279.69 330.67 279.25 325.25 283.97"/><polygon class="cls-39" points="327.98 272.73 330.67 279.25 335.1 279.69 333.67 273.47 327.98 272.73"/><polygon class="cls-19" points="302.33 185.67 322.38 181.75 323 185.13 302.33 189.75 302.33 185.67"/><polygon class="cls-19" points="344 140.5 371.38 183.71 369 145.82 344 140.5"/><polygon class="cls-25" points="391.32 203.25 372.64 203.25 373.75 221.5 392.75 218 391.32 203.25"/><polygon class="cls-19" points="380.06 181.75 410 175 391.32 203.25 372.64 203.25 380.06 181.75"/><polygon class="cls-26" points="285.72 155.23 291.13 150.88 297.89 154.09 291.78 160.11 285.72 155.23"/><polygon class="cls-31" points="307.58 216.83 333.11 201.67 372.64 203.77 338.67 226.67 307.58 216.83"/><polygon class="cls-19" points="323 165.25 328.75 193.67 338.67 226.67 335.17 191.17 323 165.25"/><polygon class="cls-18" points="309.05 232.38 342.9 248.58 348.47 253.63 345.93 262.83 336.75 265 323 260.6 309.05 232.38"/><polygon class="cls-19" points="373.75 221.5 342.9 248.58 345.93 262.83 361.75 261.85 372.71 255.12 373.75 221.5"/><polygon class="cls-20" points="322.73 260.02 345.93 262.83 349.38 265.8 347.46 269.98 326.02 267.98 322.73 260.02"/><polygon class="cls-18" points="345.93 262.83 372.71 255.12 372.51 261.85 358.04 269.3 347.46 269.98 345.93 262.83"/><polygon class="cls-23" points="349.83 281.14 368.25 282.06 372 278.29 372.51 261.85 347.46 269.98 349.83 281.14"/><polygon class="cls-11" points="372 278.29 377.17 297.37 348 297.37 349.83 281.14 372 278.29"/><polygon class="cls-22" points="358.04 280.09 359.5 286.09 367.93 286.09 363.67 279.45 363.67 279.37 358.04 280.09"/><polygon class="cls-39" points="363.75 272.26 356.25 273.36 358.04 280.09 358.04 280.09 363.67 279.37 363.75 272.26"/><rect class="cls-22" x="348" y="297.37" width="29.17" height="4.17"/><polygon class="cls-27" points="276.32 143.08 291.81 129.75 290.01 127.75 274.31 141.58 276.32 143.08"/><polygon class="cls-29" points="311.39 39.09 345.93 11.33 423.05 13.19 453 53.06 436.33 94.44 403.16 115.57 362.67 110.14 331.92 119.27 337.22 110.5 311.39 83.69 311.39 39.09"/><polygon class="cls-31" points="345.9 58.77 370.07 66.6 374.1 80.63 352.75 85.92 335.9 76.41 345.9 58.77"/><polygon class="cls-6" points="330.83 92.39 365.64 84.6 419.66 94.8 371.38 99.45 330.83 92.39"/><polygon class="cls-33" points="344 82.91 356.57 95.44 397.57 95.44 411.61 82.91 398.28 80.63 352.24 80.63 344 82.91"/><polygon class="cls-21" points="403.53 43.29 407.9 42.77 409.15 38.73 412.65 37.48 414.9 39.6 414.9 41.73 412.15 43.35 413.53 44.98 412.28 48.35 408.9 49.1 404.25 49.33 403.53 43.29"/><polygon class="cls-12" points="413.53 44.98 412.28 48.35 404 47.23 407.33 58.42 414.65 53.85 416.03 56.94 418.65 56.94 421.15 54.23 419.66 50.98 417.15 50.96 419.66 48.85 419.66 46.6 417.78 44.73 413.53 44.98"/><polygon class="cls-23" points="381.72 51.18 385.38 51.91 387.4 49.98 404.25 49.33 403.53 43.29 391.05 41.77 382.9 45.6 381.72 51.18"/><polygon class="cls-21" points="345.9 58.77 370.07 66.6 385.38 51.91 371.57 45.6 345.9 58.77"/><polygon class="cls-31" points="402.88 61.63 412.31 65.3 419.66 73.77 398.28 80.63 391.57 80.63 402.88 61.63"/><polygon class="cls-12" points="363.3 0.16 356.03 19.61 360.4 29.33 359.66 49.46 370.2 26.45 363.41 16.8 363.3 0.16"/><polygon class="cls-12" points="380.63 0 374.23 16.49 380.63 28.5 377.78 47.6 388.9 27.67 381.85 15.43 380.63 0"/><polygon class="cls-2" points="352.24 80.63 356.57 95.44 342.24 89.44 335.9 76.41 352.24 80.63"/><polygon class="cls-2" points="398.28 80.63 397.57 95.44 407.9 94.01 419.66 73.77 398.28 80.63"/><polygon class="cls-11" points="404 47.23 387.4 49.98 370.07 66.6 374.1 80.63 391.57 80.63 400.67 74.5 402.88 61.63 407.33 58.42 404 47.23"/><polygon class="cls-23" points="374.1 80.63 391.57 80.63 400.67 74.5 370.07 66.6 374.1 80.63"/></g></g></svg>