<svg xmlns="http://www.w3.org/2000/svg" viewBox="0 0 900 350"><defs><style>.cls-1{fill:#a3a2a2;}.cls-11,.cls-2{fill:#e1a842;}.cls-3{fill:#c4c4c3;}.cls-4{fill:#f1bc68;}.cls-39,.cls-5{fill:#737474;}.cls-10,.cls-11,.cls-12,.cls-13,.cls-14,.cls-15,.cls-16,.cls-17,.cls-18,.cls-19,.cls-20,.cls-21,.cls-22,.cls-23,.cls-24,.cls-25,.cls-5,.cls-6,.cls-7,.cls-8,.cls-9{fill-rule:evenodd;}.cls-6{fill:#8f8f8f;}.cls-7{fill:#debca4;}.cls-8{fill:#c2977b;}.cls-33,.cls-9{fill:#755800;}.cls-10,.cls-27{fill:#bb8e2d;}.cls-12{fill:#846400;}.cls-13{fill:#8a6651;}.cls-14,.cls-44{fill:#fff;}.cls-15{fill:#e7c9b5;}.cls-16,.cls-19,.cls-26{fill:#2a2b2a;}.cls-17{fill:#f3d65d;}.cls-18,.cls-45{fill:#9d7700;}.cls-19,.cls-26{opacity:0.1;}.cls-20,.cls-29{fill:#dddddc;}.cls-21,.cls-28{fill:#cfcecd;}.cls-22,.cls-30{fill:#ececeb;}.cls-23{fill:#f9f9f9;}.cls-24{fill:#858686;}.cls-25{fill:#9ca0a1;}.cls-31{fill:#f4c9b2;}.cls-32{fill:#fce3d4;}.cls-34{fill:#e4c728;}.cls-35{fill:#4f5253;}.cls-36{fill:#484748;}.cls-37{fill:#6f7173;}.cls-38{fill:#c1907d;}.cls-40{fill:#565656;}.cls-41{fill:#8c7c2f;}.cls-42{fill:#2b2b2b;}.cls-43{fill:#ffefe7;}</style></defs><title>explorers_Adventurer_ISFP_workplace_habits</title><g id="ILLUSTRATION_copy" data-name="ILLUSTRATION copy"><g id="wall_copy" data-name="wall copy"><polygon class="cls-1" points="491 113 460.75 29 180.06 7.57 1.13 16.75 6 290.5 472 252 491 113"/><polygon class="cls-2" points="491 113 466 18.88 0 0.25 1.13 16.75 460.75 29 491 113"/><polygon class="cls-3" points="899.25 16.75 623 11.99 460.75 29 460 246 893 291 899.25 16.75"/><polygon class="cls-4" points="900 0 466 18.88 460.75 29 899.25 16.75 900 0"/></g><g id="chair_copy" data-name="chair copy"><polygon class="cls-5" points="729.23 140.9 745.6 132.17 756.79 141.72 745.87 216.49 707.94 217.04 729.23 140.9"/><polygon class="cls-6" points="703.03 123.44 713.95 126.17 745.6 132.17 728.14 224.68 664.83 223.86 703.03 123.44"/></g><g id="main_character_copy" data-name="main character copy"><polygon class="cls-7" points="584.27 154.64 580.35 148.98 563.73 146 558.27 158.91 573.35 168.93 584.27 154.64"/><polygon class="cls-8" points="588.28 150.91 580.35 148.98 573.35 168.93 590.76 171.96 603.37 163.07 588.28 150.91"/><polygon class="cls-7" points="602.11 168.93 598.06 155.74 592.32 145.91 579.18 140.71 577.83 145.89 585.25 150.09 586.59 158.23 602.11 168.93"/><polygon class="cls-9" points="653.89 141.83 615.87 166.44 627.94 187.31 656.82 177.6 653.89 141.83"/><polygon class="cls-10" points="702.45 145.09 722.13 155.37 707.39 227.72 673.57 241.12 661.55 220.41 665.92 185.91 670.82 137.63 702.45 145.09"/><polygon class="cls-11" points="680.89 149.58 661.55 220.41 650.66 232.54 635.86 214.56 653.98 141.76 670.82 137.63 684.01 140.74 680.89 149.58"/><polygon class="cls-12" points="646.46 45.48 640.72 60.81 647.29 67.88 660.95 44.82 650.72 41.77 646.46 45.48"/><polygon class="cls-8" points="727.75 56.16 700.81 60.85 690.3 102.73 680.89 149.58 702.36 145.29 714.13 126.24 720.53 102.13 735.17 96.59 727.75 56.16"/><polygon class="cls-11" points="731.57 59.85 734.3 36.65 647.31 16.5 658.4 40.91 707.77 64.13 731.57 59.85"/><path class="cls-9" d="M715.48,66.47c.47-1.55-2.76,29.89-2.76,29.89l5,2.17,3.81-8.22,9.66,4.41,4,1.87,14.08-19.85L727.53,59Z"/><polygon class="cls-7" points="721.74 89.85 713.1 108.5 723.36 113.25 735.17 96.59 721.74 89.85"/><polygon class="cls-13" points="713.1 108.5 714.13 126.24 723.36 113.25 713.1 108.5"/><polygon class="cls-7" points="688.61 136.76 667.43 127.11 638.43 118.54 650.97 46.85 683.7 52.81 707.77 64.13 688.61 136.76"/><polygon class="cls-13" points="663.63 96.56 661.81 93.23 666.53 94.61 663.63 96.56"/><polygon class="cls-9" points="697.85 68.32 679.97 65.59 675.53 72.19 697.85 68.32"/><polygon class="cls-9" points="666.19 62.86 652.91 59.77 667.36 69.97 666.19 62.86"/><polygon class="cls-8" points="697.85 68.32 683.5 76.97 666.53 94.61 670.44 78.27 675.53 72.19 697.85 68.32"/><polygon class="cls-8" points="658.79 71.61 661.81 93.23 666.34 81.59 667.36 69.97 652.91 59.77 658.79 71.61"/><polygon class="cls-13" points="673.11 102.88 655.09 97.97 650.25 112.38 673.25 118 673.11 102.88"/><polygon class="cls-12" points="734.3 36.65 749.26 76.75 725.32 69.46 707.77 64.13 734.3 36.65"/><polygon class="cls-10" points="707.77 64.13 646.46 45.48 647.31 16.5 707.77 64.13"/><polygon class="cls-14" points="670.49 104.61 656.3 101.2 654.59 105.43 670.83 109.32 670.49 104.61"/><polygon class="cls-13" points="729.52 98.04 724.64 95.73 719.7 105.28 729.52 98.04"/><polygon class="cls-15" points="675.53 72.19 667.36 69.97 661.81 93.23 666.53 94.61 675.53 72.19"/><path class="cls-16" d="M653.13,75.83a3.78,3.78,0,1,0,3-4.46A3.77,3.77,0,0,0,653.13,75.83Z"/><path class="cls-16" d="M678.35,81.91a3.78,3.78,0,1,0,2.95-4.46A3.78,3.78,0,0,0,678.35,81.91Z"/><polygon class="cls-13" points="667.43 127.11 670.82 137.63 680.89 149.58 698.32 136.21 667.43 127.11"/><polygon class="cls-17" points="680.89 149.58 695.24 168.05 702.45 145.09 680.89 149.58"/><polygon class="cls-17" points="670.82 137.63 658.52 157.76 680.89 149.58 670.82 137.63"/><polygon class="cls-18" points="598.06 155.75 625 160.67 627.94 187.31 591.14 172 598.06 155.75"/></g><g id="table_copy" data-name="table copy"><polygon class="cls-19" points="865 313 651 350 376 305 563.5 282.5 865 313"/><polygon class="cls-18" points="784.44 297.31 763.84 319.26 736.96 317.64 731.5 282.65 790.99 283.12 784.44 297.31"/><polygon class="cls-10" points="464.08 291.16 474.99 308.5 504.46 305.35 517.56 284.07 467.35 281.23 464.08 291.16"/><polygon class="cls-11" points="719.93 283.39 652.22 331.22 610.43 325.96 610.34 306.29 482.27 289.9 474.99 308.5 444.65 305.08 447.17 210.69 691.53 222.8 719.93 283.39"/><polygon class="cls-10" points="800.47 224.08 795.01 315.92 763.84 319.26 760.25 300.62 691.84 309.44 686.81 327.52 652.22 331.22 649.58 243.85 800.47 224.08"/><polygon class="cls-20" points="676.08 208.13 650.01 250.69 431.35 227.18 433.18 199.84 676.08 208.13"/><polygon class="cls-21" points="669.45 212.6 812.98 212.6 811.74 241.01 650.01 250.69 648.11 225.35 669.45 212.6"/><polygon class="cls-22" points="812.98 212.6 571.56 189.64 433.18 199.84 648.11 225.35 812.98 212.6"/><polygon class="cls-18" points="776.25 258.46 775.16 280.44 684.02 291.79 684.29 266.02 776.25 258.46"/><polygon class="cls-10" points="611.07 264.37 610.34 287.38 481.9 272.88 483.36 248.92 611.07 264.37"/></g><g id="laptop_and_the_hand_copy" data-name="laptop and the hand copy"><polygon class="cls-19" points="603 200.88 626.88 204.75 571 214 489.38 203.5 524 198.63 603 200.88"/><polygon class="cls-19" points="630.88 211.75 591.75 209.25 640.63 222 686.38 215.13 724.25 216 747.38 206.5 623 194.63 648.38 203.5 630.88 211.75"/><polygon class="cls-23" points="652 201.5 591.75 209.25 636.13 216.5 663.62 212.75 664 206.63 652 201.5"/><polygon class="cls-9" points="722.33 155.67 736.75 195.25 697.67 206.33 707.75 202 722.33 155.67"/><polygon class="cls-8" points="672.47 201.1 665.48 190.39 648.25 197.61 649.18 209.72 663.62 212.75 672.47 201.1"/><polygon class="cls-7" points="692.5 205.3 686.21 193.89 665.48 190.39 663.62 212.75 684.12 212.28 692.5 205.3"/><polygon class="cls-18" points="685.66 193.78 736.75 195.25 724.25 216 683.5 212.25 685.66 193.78"/><polygon class="cls-6" points="580.79 201.77 605.96 196.35 558.46 190.1 560.63 201.02 580.79 201.77"/><polygon class="cls-5" points="546.96 190.85 574.46 199.19 605.96 196.35 606.96 204.6 567.38 208.85 546.96 190.85"/><polygon class="cls-24" points="521.96 184.19 506.29 193.52 507.21 202.44 567.38 208.85 564.63 200.19 521.96 184.19"/><polygon class="cls-24" points="526.96 178.85 544.63 153.52 560.29 153.52 574.46 199.19 564.63 200.19 526.96 178.85"/><polygon class="cls-25" points="523.29 172.19 494.63 154.52 505.96 148.85 560.29 153.52 552.96 158.85 523.29 172.19"/><polygon class="cls-6" points="552.96 158.85 564.63 200.19 506.29 193.52 494.63 154.52 552.96 158.85"/><polygon class="cls-25" points="528.33 171.67 523.42 174.83 519.42 171.25 517.17 173.67 520.92 177.5 517.42 180.92 519.75 183.08 523.33 180 526.42 183.17 529.58 181.58 525.92 177.75 530.92 174.17 528.33 171.67"/><polygon class="cls-25" points="534.92 173.42 529.38 177.83 535.63 182.88 536.79 180.29 533.67 177.92 536.67 175.58 534.92 173.42"/><polygon class="cls-25" points="512.79 174 518.46 176.79 513.63 182.04 512.21 179.46 514.5 177.29 511.42 176.29 512.79 174"/><polygon class="cls-20" points="612.88 209.25 636.83 213.29 646.63 211.71 624.58 208.04 612.88 209.25"/></g><g id="cupboard_copy" data-name="cupboard copy"><polygon class="cls-26" points="212 265.67 80.83 315.33 5.67 290.67 18.33 241.33 32.33 245 42 213.67 186.33 275 212 265.67"/><polygon class="cls-27" points="95.67 274 87 242 18.33 241.33 16.67 289.67 80.83 315.33 95.67 274"/><polygon class="cls-2" points="107.67 243.33 229.67 239.33 231.17 301.67 80.83 315.33 72.33 251.33 107.67 243.33"/><polygon class="cls-4" points="168.33 232 229.67 239.33 72.33 251.33 18.33 241.33 168.33 232"/><polygon class="cls-4" points="217.75 249.75 220.25 291.5 95 302.75 88.08 259.42 217.75 249.75"/><polygon class="cls-2" points="164.67 253 167 302 156 300 152.67 253.67 164.67 253"/><ellipse class="cls-2" cx="173.5" cy="272.83" rx="3.75" ry="4.75"/><ellipse class="cls-2" cx="147.58" cy="274.83" rx="3.75" ry="4.75"/></g><g id="book_copy" data-name="book copy"><polygon class="cls-26" points="44.64 239.58 42.38 239.84 39.83 240 75.06 248.69 127.88 245 101.19 239.63 44.64 239.58"/><polygon class="cls-27" points="102.88 238.84 114.5 235.21 74.5 231.09 42.13 232.59 66.88 239.59 102.88 238.84"/><polygon class="cls-28" points="85.75 241.21 74.75 245.84 42.38 239.84 42.13 232.59 74 238.09 85.75 241.21"/><polygon class="cls-29" points="114.38 243.46 114.5 235.21 74 238.09 74.75 245.84 114.38 243.46"/><polygon class="cls-27" points="102.88 229.46 114.5 225.84 74.5 221.71 42.13 223.21 66.88 230.21 102.88 229.46"/><polygon class="cls-28" points="85.75 231.84 74.75 236.46 42.38 230.84 42.13 223.21 74 228.71 85.75 231.84"/><polygon class="cls-29" points="114.38 234.09 114.5 225.84 74 228.71 74.75 236.46 114.38 234.09"/><polygon class="cls-27" points="102.88 220.13 114.5 216.5 74.5 212.38 42.13 213.88 66.88 220.88 102.88 220.13"/><polygon class="cls-28" points="85.75 222.5 74.75 227.13 42.38 221.5 42.13 213.88 74 219.38 85.75 222.5"/><polygon class="cls-29" points="114.38 224.75 114.5 216.5 74 219.38 74.75 227.13 114.38 224.75"/></g><g id="poster_copy" data-name="poster copy"><polygon class="cls-26" points="587 82 603.5 67 602.83 95.17 499 92.67 500.33 81.67 587 82"/><polygon class="cls-26" points="826.5 105.17 866.33 99.33 871.5 188 793.67 183.67 798.67 128.83 826.5 105.17"/><polygon class="cls-30" points="866.33 99.33 788.67 95.33 788.67 176 864.67 180 866.33 99.33"/><polygon class="cls-28" points="844.5 110.33 805.67 108.67 805.83 113.83 844.33 114.17 844.5 110.33"/><polygon class="cls-28" points="846.38 127 797.01 125.5 796.23 166.33 845.6 168.17 846.38 127"/><polygon class="cls-30" points="847.78 133.33 793.58 130.63 793.46 135.38 847.47 136.67 848.41 143 794.36 140.83 794.16 145.63 847.47 148 847.47 154.33 794.04 151.25 794.28 156.13 847.94 158.5 847.63 164.33 795.57 161.25 794.98 169.75 850.75 169.83 847.78 133.33"/><polygon class="cls-28" points="851.68 128.33 854.65 135.34 860.4 127.17 854.74 130.76 851.68 128.33"/><polygon class="cls-28" points="858.88 139.15 851.61 138.79 851.7 140.5 859.33 140.68 858.88 139.15"/><polygon class="cls-28" points="860.44 149.82 852.27 149.64 852.36 151.35 859.99 151.53 860.44 149.82"/><polygon class="cls-28" points="859.45 160.22 852.18 159.86 852.27 161.57 859.9 161.75 859.45 160.22"/><polygon class="cls-30" points="603.5 67 495 66 495 89.5 598.33 91.33 603.5 67"/><polygon class="cls-28" points="591.25 74.75 547.63 74.75 547.5 80.38 590.5 80.25 591.25 74.75"/><polygon class="cls-28" points="541.5 74.88 534.88 74.63 534.88 80.13 541 79.75 541.5 74.88"/><polygon class="cls-28" points="529.88 74.88 529.63 79.63 502.25 79.5 502.88 75 529.88 74.88"/></g><g id="_2nd_character_copy" data-name="2nd character copy"><polygon class="cls-31" points="189.54 128.71 179.21 126.75 164.49 138.66 179.58 145.75 195.02 143.4 189.54 128.71"/><polygon class="cls-31" points="417.22 158.12 417.75 169.31 412.62 172.73 403.67 172.47 401.43 173.91 392.88 175.89 385.51 164.31 405.25 156.02 417.22 158.12"/><polygon class="cls-32" points="376.83 169.04 392.88 152.47 429.46 151.68 430.25 158.52 404.2 161.68 412.62 172.73 408.14 178.78 394.06 168.52 376.83 169.04"/><polygon class="cls-28" points="237.34 146.41 244.98 182.47 283.22 208 306.82 178.26 313.14 140.63 296.82 140.62 282.83 142.46 241.97 136.63 237.34 146.41"/><polygon class="cls-33" points="289.58 148.65 283.27 157.2 289.45 179.97 281.91 197.47 270.5 180.36 276.29 156.68 268.53 148.91 281.23 143.78 289.58 148.65"/><polygon class="cls-27" points="334.19 157.47 348.4 151.15 382.97 152.29 392.88 159.31 384.02 176.5 349.28 179.31 334.19 157.47"/><polygon class="cls-34" points="382.97 152.29 392.88 152.47 392.88 175.89 384.02 176.5 382.97 152.29"/><polygon class="cls-33" points="236.02 180.25 226.24 183.32 214.44 173.15 211.08 161.26 235.06 140.25 238.13 145.53 238.52 173.53 236.02 180.25"/><polygon class="cls-33" points="310.07 145.53 313.14 140.63 348.4 151.15 349.28 179.31 316.02 180.44 312.66 175.26 310.07 145.53"/><polygon class="cls-26" points="207.85 321.89 275.35 307.25 356.83 320.29 277.85 332.96 207.85 321.89"/><path class="cls-35" d="M319.66,229.27l-13.54,47.79-14.66,2.37-12.37.34s-1-22.59-1.44-21.54l4-30.4,8.25.19h0l7.1-3.93,22.83,5.27Z"/><polygon class="cls-36" points="306.12 277.06 279.09 279.77 280.24 301.5 288.87 304.76 299.8 301.71 306.12 277.06"/><polygon class="cls-37" points="247.7 283.15 237.27 231 262.69 219.1 286.29 229.94 275.03 280.24 262.31 283.45 247.7 283.15"/><polygon class="cls-35" points="275.03 280.24 247.7 283.15 251.6 303.03 260.67 307.06 269.98 303.32 275.03 280.24"/><polygon class="cls-27" points="245.06 317.9 251.6 303.03 269.76 303.35 274.12 317.95 269.02 318.13 248.94 320.68 245.06 317.9"/><polygon class="cls-27" points="279.57 314.88 280.32 301.5 299.8 301.71 317.68 314.88 312.33 317.44 284.28 317.44 279.57 314.88"/><polygon class="cls-36" points="319.67 229.27 283.02 244.71 237.27 231 281.21 214.4 319.67 229.27"/><polygon class="cls-38" points="256.93 123.08 270.12 139.67 283.31 145.91 297.79 132.58 304.03 115.41 268.35 109.94 256.93 123.08"/><polygon class="cls-31" points="243.89 106.01 251.3 130.25 270.12 139.67 263.01 122.59 268.42 122.75 268.83 32.72 254.63 38.38 242.54 74.54 243.89 106.01"/><polygon class="cls-39" points="247.63 86.15 257.7 84.23 258.46 40.78 241.03 42.28 227.17 62.27 231.75 69.38 247.63 86.15"/><polygon class="cls-40" points="247.63 86.15 257.7 84.23 258.13 59.75 231.75 69.38 234.87 74.35 247.63 86.15"/><polygon class="cls-38" points="250.9 94.7 248.68 92.67 241.01 96.7 243.89 105.42 250.9 94.7"/><polygon class="cls-32" points="329.1 122.75 331.75 35.89 324.94 31.57 268.83 32.72 259.23 36.56 268.42 122.75 329.1 122.75"/><polygon class="cls-31" points="249.93 71.38 234.87 74.35 241.01 96.7 254.25 93.92 249.93 71.38"/><polygon class="cls-38" points="239.57 77.61 245.61 76.75 247.63 86.15 239.57 77.61"/><polygon class="cls-40" points="234.87 31.95 227.17 62.27 258.46 40.78 249.93 31.57 234.87 31.95"/><polygon class="cls-39" points="266.81 15.17 234.87 31.95 258.46 40.78 274.87 26.29 266.81 15.17"/><polygon class="cls-40" points="305.97 13.31 266.81 15.17 258.46 40.78 303.55 44.23 314.58 37.61 310.55 33.78 312.76 32.63 305.97 13.31"/><polygon class="cls-39" points="337.66 33.53 305.97 13.31 303.55 44.23 331.18 40.11 332.52 40.2 337.66 33.53"/><path class="cls-34" d="M179.58,145.75l16.92-6.84,4.41,7.48-5.65,5.28-12.66,1.19Z"/><polygon class="cls-27" points="198.42 192.15 181.03 153.25 200.82 146.39 226.24 183.32 198.42 192.15"/><polygon class="cls-41" points="274.12 317.95 245.06 317.9 245.06 323.07 273.85 322.87 274.12 317.95"/><rect class="cls-41" x="279.57" y="314.88" width="38.11" height="4.6"/><polygon class="cls-40" points="331 64.67 337.66 33.53 331.18 40.11 331 64.67"/><polygon class="cls-31" points="311.8 63.23 323.67 60.5 309.93 74.6 307.58 88.49 302.3 90.6 297.19 88.41 291.42 78.75 273.27 60.84 284.44 62.99 293.37 65.59 294.18 68.95 302.71 72.9 306.51 70.22 306.61 66 311.8 63.23"/><path class="cls-40" d="M276.82,54.83l16.42,7.77.05,2.91-20-4.67Zm46.85,5.67L306.6,65.92l-.3-3,16-8.64Z"/><polygon class="cls-36" points="302.79 92.79 297.19 88.41 307.58 88.49 302.79 92.79"/><path class="cls-42" d="M285.7,70a3.64,3.64,0,1,0,3.52,3.75A3.64,3.64,0,0,0,285.7,70Z"/><path class="cls-42" d="M314.18,70.24A3.63,3.63,0,1,0,317.7,74,3.63,3.63,0,0,0,314.18,70.24Z"/><polygon class="cls-43" points="297.19 88.41 294.18 68.95 306.51 69.71 307.58 88.49 297.19 88.41"/><polygon class="cls-38" points="291.43 97.68 310.48 98.03 314.54 112.29 285.86 112.55 291.43 97.68"/><polygon class="cls-44" points="292.69 101.04 309.02 101.11 310.15 107.11 291.03 106.85 292.69 101.04"/><polygon class="cls-27" points="281.91 197.47 267.87 210.54 281.73 224.05 293.14 240.63 319.67 229.27 316.02 180.44 305.42 136.68 281.91 197.47"/><polygon class="cls-27" points="291.3 146.68 296.12 158.25 281.91 197.47 316.02 180.44 313.14 140.63 305.42 136.68 291.3 146.68"/><polygon class="cls-45" points="261.16 160.49 281.91 197.47 281.73 224.05 271.56 241.42 237.27 231 236.02 180.25 235.06 140.25 241.91 136.32 261.16 160.49"/><polygon class="cls-34" points="302.87 136.81 305.42 136.68 305.64 158.39 298.01 166.28 302 181 281.91 197.47 293.33 157.47 302.87 136.81"/><polygon class="cls-34" points="246.29 135.75 264.89 159.66 281.91 197.47 256.67 181.67 259.06 163.12 244.45 157.86 241.91 136.32 246.29 135.75"/><polygon class="cls-30" points="279.99 143.47 249.28 124.04 241.91 136.32 264.89 159.66 279.98 145.1 293.33 157.47 305.42 136.68 298.75 129.48 279.99 143.47"/><polygon class="cls-30" points="184.97 161.68 198.75 103.34 154.18 89.57 137.6 149.04 184.97 161.68"/><polygon class="cls-3" points="188.92 114.17 156.94 104.96 155.76 108.52 187.87 117.86 188.92 114.17"/><polygon class="cls-30" points="184.91 111.97 183.2 117.36 180.76 116.71 182.34 111.48 184.91 111.97"/><polygon class="cls-3" points="184.01 131.19 152.03 121.98 150.85 125.53 182.96 134.88 184.01 131.19"/><polygon class="cls-30" points="179.99 128.99 178.28 134.38 175.85 133.72 177.43 128.5 179.99 128.99"/><polygon class="cls-3" points="181.38 141.37 149.4 132.16 148.22 135.71 180.32 145.05 181.38 141.37"/><polygon class="cls-30" points="177.36 139.16 175.65 144.56 173.22 143.9 174.8 138.67 177.36 139.16"/><polygon class="cls-3" points="187.17 123.47 155.19 114.26 154.01 117.81 186.11 127.16 187.17 123.47"/><polygon class="cls-30" points="183.15 121.27 181.44 126.66 179.01 126.01 180.59 120.78 183.15 121.27"/><polygon class="cls-26" points="187.6 128.91 181.58 122.23 187.34 151.41 189.62 141.94 187.6 128.91"/><polygon class="cls-32" points="189.62 141.94 196.5 138.91 194.03 127.47 184.07 119.99 181.58 122.23 186.31 129.21 185.31 133.94 189.62 141.94"/><polygon class="cls-3" points="187.08 96.94 181.68 103.78 169.71 100.49 169.71 91.41 187.08 96.94"/><polygon class="cls-40" points="322.09 96.87 307.58 88.49 303.07 91.87 297.19 88.41 277.54 99.11 302.28 100.23 322.09 96.87"/></g><g id="chat_bubble_copy" data-name="chat bubble copy"><polygon class="cls-20" points="96 25.33 142.33 45.67 145 107.33 99.67 156.67 29.67 143 8 90 37.33 39 96 25.33"/><polygon class="cls-20" points="136.67 69.33 226 79.33 137 81 136.67 69.33"/><polygon class="cls-25" points="52.97 58.91 84.31 48.09 122.19 67.17 126.75 104.78 106.24 125.28 63.23 127 39.58 91.1 52.97 58.91"/><polygon class="cls-22" points="83.83 58.83 59.67 65.17 50.33 89.5 65.83 116.33 103.17 119.5 120.5 102.83 110.17 69.17 83.83 58.83"/><polygon class="cls-25" points="82.87 62.17 81.99 67.2 85.51 67.58 85.51 62.42 82.87 62.17"/><polygon class="cls-25" points="53.08 88.67 58 88.75 57.92 91.83 53.42 91.5 53.08 88.67"/><path class="cls-25" d="M115.83,97.08h-7.08l.5,2.34,6.17,1.58Z"/><polygon class="cls-25" points="80.17 110.5 80.42 115.75 84.83 116.25 83.5 111.17 80.17 110.5"/><polygon class="cls-25" points="82.1 91.58 81.04 76.29 84.25 71.88 86.79 76.67 84.17 91.63 83.17 91.65 82.1 91.58"/><polygon class="cls-25" points="93.1 81.67 87.23 83.79 82.1 91.58 83.79 92.6 91.04 86.92 93.1 81.67"/></g></g></svg>