<svg xmlns="http://www.w3.org/2000/svg" viewBox="0 0 900 350"><defs><style>.cls-1,.cls-60{fill:#ececeb;}.cls-2{fill:#dddddc;}.cls-3{fill:#d0cecd;}.cls-4{fill:#c4c4c2;}.cls-5{fill:#a3a1a1;}.cls-57,.cls-6,.cls-68{fill:#2b2b2b;}.cls-6{opacity:0.1;}.cls-19,.cls-7{fill:#9c782c;}.cls-8{fill:#ba8e2d;}.cls-9{fill:#e1a940;}.cls-10{fill:#f0bc67;}.cls-11{fill:#c4c3c2;}.cls-12{fill:#8f8f8f;}.cls-13{fill:#969696;}.cls-14,.cls-33{fill:#debca4;}.cls-14,.cls-15,.cls-16,.cls-17,.cls-18,.cls-19,.cls-20,.cls-21,.cls-22,.cls-23,.cls-24,.cls-25,.cls-26,.cls-28,.cls-29,.cls-30,.cls-31,.cls-40,.cls-41,.cls-42,.cls-45,.cls-46,.cls-47,.cls-48,.cls-49,.cls-52,.cls-53,.cls-54,.cls-55,.cls-56,.cls-60,.cls-61,.cls-62,.cls-63,.cls-64,.cls-65,.cls-66,.cls-67,.cls-68,.cls-69{fill-rule:evenodd;}.cls-15,.cls-32{fill:#c2977a;}.cls-16,.cls-35{fill:#8a6651;}.cls-17,.cls-27{fill:#2b2c2b;}.cls-18{fill:#7b7b7b;}.cls-20,.cls-39{fill:#755924;}.cls-21{fill:#5d5d5d;}.cls-22{fill:#494849;}.cls-23{fill:#836528;}.cls-24{fill:#e8c9b6;}.cls-25{fill:#474748;}.cls-26,.cls-59{fill:#fff;}.cls-28{fill:#959494;}.cls-29{fill:#383938;}.cls-30{fill:#fbe3d4;}.cls-31,.cls-34{fill:#f4cab2;}.cls-36{fill:#f3d65c;}.cls-37,.cls-42{fill:#e4c723;}.cls-38,.cls-41{fill:#cbad2d;}.cls-40,.cls-43{fill:#b38b2e;}.cls-44{fill:#858686;}.cls-45{fill:#906a59;}.cls-46{fill:#b08c79;}.cls-47,.cls-58{fill:#66493b;}.cls-48{fill:#bc8f2d;}.cls-49{fill:#494749;}.cls-50,.cls-63{fill:#4f5353;}.cls-51,.cls-64{fill:#6f7273;}.cls-52{fill:#383737;}.cls-53{fill:#b89d8d;}.cls-54{fill:#908f8f;}.cls-55{fill:#747474;}.cls-56{fill:#484848;}.cls-61{fill:#916d5a;}.cls-62{fill:#755446;}.cls-65{fill:#51362a;}.cls-66{fill:#5c5c5c;}.cls-67{fill:#737475;}.cls-69{fill:#98796a;}.cls-70{fill:#595b5c;}.cls-71{fill:#9b9fa0;}</style></defs><title>explorers_Entertainer_ESFP_friendships</title><g id="ILLUSTRATION_copy" data-name="ILLUSTRATION copy"><g id="city_silhouette_copy" data-name="city silhouette copy"><polygon class="cls-1" points="495.94 133.79 473.19 133.29 472.44 155.79 462.44 155.29 461.94 166.29 454.94 166.29 455.19 148.04 445.94 147.54 446.19 152.04 436.44 151.04 423.44 159.29 407.94 158.79 386.44 152.79 380.19 153.04 379.44 160.79 363.94 159.54 359.44 197.29 535.19 209.54 592.69 174.04 572.19 141.04 495.94 133.79"/></g><g id="clouds_copy" data-name="clouds copy"><polygon class="cls-2" points="604.44 13.79 525.77 10.96 576.44 39.04 638.44 33.79 694.15 11.33 604.44 13.79"/><polygon class="cls-2" points="49.69 48.29 4.69 55.79 39.69 71.54 57.94 68.04 76.94 73.04 115.19 54.79 71.69 60.04 49.69 48.29"/><polygon class="cls-1" points="4.69 55.79 55.77 43.96 79.81 51.42 115.19 54.79 76.06 63.92 40.94 57.54 4.69 55.79"/><polygon class="cls-1" points="694.15 11.33 645.15 0 587.77 12.29 525.77 10.96 579.15 25 637.81 14 694.15 11.33"/></g><g id="land_copy" data-name="land copy"><polygon class="cls-1" points="684.44 269.29 744.44 239.63 823.44 251.29 900.44 242.29 854.56 207.92 683.77 178.63 554.44 175.79 504.44 186.96 477.44 180.96 185.1 183.29 684.44 269.29"/><polygon class="cls-3" points="477.1 202.63 447.1 255.96 611.1 247.29 610.44 221.29 477.1 202.63"/><polygon class="cls-3" points="315.94 249.79 216.44 266.79 135.09 215.03 145.94 199.79 314.44 212.29 315.94 249.79"/><polygon class="cls-1" points="276.44 181.96 289.44 201.96 304.44 195.29 319.1 206.63 273.77 232.63 135.44 215.29 184.44 180.63 276.44 181.96"/><polygon class="cls-4" points="500.44 253.79 362.19 261.46 343.1 311.29 508.44 305.79 500.44 253.79"/><polygon class="cls-4" points="488.44 241.96 607.77 235.96 641.1 246.63 648.44 273.96 509.1 285.29 488.44 241.96"/><polygon class="cls-4" points="639.44 271.29 519.77 263.96 493.94 248.79 521.44 303.29 629.77 317.96 639.44 271.29"/><polygon class="cls-3" points="331.1 278.63 305.1 271.29 296.77 270.29 191.77 264.63 173.1 255.29 134.44 281.29 173.1 329.29 345.1 325.29 331.1 278.63"/><polygon class="cls-3" points="220.44 326.63 149.94 276.29 123.44 287.29 103.44 330.29 220.44 326.63"/><polygon class="cls-4" points="281.1 328.63 315.1 305.29 365.77 299.29 436.44 302.63 467.1 321.29 420.44 331.29 315.77 338.63 281.1 328.63"/><polygon class="cls-3" points="117.1 243.96 149.94 276.29 206.44 251.96 158.69 221.54 135.44 215.29 117.1 243.96"/><polygon class="cls-1" points="108.44 216.29 135.44 215.29 149.94 276.29 123.44 287.29 72.44 238.29 108.44 216.29"/><polygon class="cls-3" points="95.94 212.79 72.44 238.29 0 211.45 113.44 193.79 95.94 212.79"/><polygon class="cls-3" points="645.1 306.63 639.44 271.29 484.44 262.79 460.94 251.29 420.44 331.29 573.77 339.96 645.1 306.63"/><polygon class="cls-2" points="718.44 238.63 709.1 232.63 599.1 203.96 580.44 189.29 545.77 201.29 517.77 219.96 607.77 235.96 710.44 263.96 718.44 238.63"/><polygon class="cls-1" points="709.1 232.63 677.69 251.21 789.77 262.63 823.44 251.29 900.44 242.29 709.1 232.63"/><polygon class="cls-2" points="814.44 282.63 634.1 241.04 646.69 248.54 647.44 279.54 761.77 321.29 803.44 317.29 814.44 282.63"/><polygon class="cls-1" points="749.1 314.63 715.77 279.29 639.44 271.29 573.77 339.96 740.44 349.29 749.1 314.63"/><polygon class="cls-3" points="715.77 279.29 803.44 317.29 740.44 349.29 715.77 279.29"/><polygon class="cls-2" points="823.44 251.29 814.44 282.63 677.69 251.21 823.44 251.29"/><polygon class="cls-3" points="854.94 208.04 709.1 232.63 599.1 203.96 609.77 185.29 717.77 185.96 854.94 208.04"/><polygon class="cls-3" points="125.94 195.79 92.44 206.29 0 211.45 114.94 180.79 125.94 195.79"/><polygon class="cls-3" points="94.44 205.79 72.44 238.29 135.44 215.29 94.44 205.79"/><polygon class="cls-4" points="284.1 181.96 289.44 201.96 179.77 206.29 145.1 172.96 257.77 157.63 284.1 181.96"/><polygon class="cls-3" points="315.1 305.29 103.44 330.29 160.44 350.29 315.77 338.63 315.1 305.29"/><polygon class="cls-3" points="334.94 190.29 347.44 205.29 360.44 198.29 379.94 198.29 403.44 198.29 394.44 178.29 342.94 179.79 334.94 190.29"/><polygon class="cls-3" points="414.94 183.29 427.44 176.29 467.06 182.17 437.44 219.42 414.94 183.29"/><polygon class="cls-5" points="413.44 213.96 381.44 193.29 339.77 195.29 336.1 223.29 383.44 226.96 413.44 213.96"/><polygon class="cls-3" points="330.77 220.63 334.44 260.63 443.1 262.96 442.77 240.63 426.1 212.96 390.1 226.96 383.44 226.96 330.77 220.63"/><polygon class="cls-3" points="307.44 248.29 234.77 262.63 267.77 278.96 296.77 270.29 305.1 271.29 307.44 248.29"/></g><g id="shadows_copy" data-name="shadows copy"><polygon class="cls-6" points="182.77 263.29 170.44 267.29 149.94 276.29 207.44 317.29 315.94 332.79 424.94 322.29 501.94 327.79 571.44 296.79 455.44 264.29 395.57 261.92 322.77 274.63 305.1 271.29 296.77 270.29 182.77 263.29"/><polygon class="cls-6" points="580.94 320.29 643.44 343.79 708.94 327.04 643.44 304.54 580.94 320.29"/></g><g id="flowers_copy" data-name="flowers copy"><polygon class="cls-7" points="744.66 307.67 744.8 310.12 744.45 317.96 746.48 318.38 747.88 307.53 744.66 307.67"/><polygon class="cls-8" points="745.78 301.37 736.26 298.99 744.8 310.12 758.52 302.49 745.78 301.37"/><polygon class="cls-9" points="736.26 298.99 745.5 306.69 758.52 302.49 744.63 296.67 736.26 298.99"/><polygon class="cls-10" points="745.25 299.04 741.37 300.6 745.85 303.54 752.57 302.63 745.25 299.04"/><polygon class="cls-6" points="731.29 314.95 745.5 313.55 758.52 318.31 744.31 320.69 731.29 314.95"/><polygon class="cls-7" points="211.52 330.64 211.66 333.14 211.3 341.16 213.38 341.59 214.81 330.5 211.52 330.64"/><polygon class="cls-8" points="212.66 324.2 202.93 321.76 211.66 333.14 225.69 325.34 212.66 324.2"/><polygon class="cls-9" points="202.93 321.76 212.38 329.64 225.69 325.34 214.13 319.35 202.93 321.76"/><polygon class="cls-10" points="213.94 321.85 208.15 323.41 213 327.35 219.6 325.49 213.94 321.85"/><polygon class="cls-6" points="197.85 338.08 212.38 336.65 225.69 341.52 211.16 343.95 197.85 338.08"/><polygon class="cls-7" points="148.01 308.44 148.11 310.24 147.85 315.97 149.34 316.28 150.36 308.34 148.01 308.44"/><polygon class="cls-8" points="148.83 303.84 141.86 302.1 148.11 310.24 158.15 304.66 148.83 303.84"/><polygon class="cls-9" points="141.86 302.1 148.62 307.73 158.15 304.66 149.38 299.35 141.86 302.1"/><polygon class="cls-10" points="149.38 301.54 145.25 302.85 149.06 305.92 154.31 304.42 149.38 301.54"/><polygon class="cls-6" points="138.23 313.77 148.62 312.75 158.15 316.23 147.75 317.97 138.23 313.77"/><polygon class="cls-7" points="158.86 284.24 158.95 285.86 158.72 291.07 160.07 291.35 161 284.14 158.86 284.24"/><polygon class="cls-8" points="159.6 280.05 153.28 278.47 158.95 285.86 168.06 280.8 159.6 280.05"/><polygon class="cls-9" points="153.28 278.47 159.41 283.58 168.06 280.8 162.52 275.88 153.28 278.47"/><polygon class="cls-10" points="161.69 278.08 156.67 279.54 160 282.1 164.11 280.89 161.69 278.08"/><polygon class="cls-6" points="149.98 289.07 159.41 288.14 168.06 291.3 158.62 292.88 149.98 289.07"/><polygon class="cls-7" points="121.69 263.18 121.77 264.44 121.59 268.48 122.63 268.7 123.35 263.11 121.69 263.18"/><polygon class="cls-8" points="122.27 259.94 117.37 258.71 121.77 264.44 128.83 260.51 122.27 259.94"/><polygon class="cls-9" points="117.37 258.71 122.13 262.68 128.83 260.51 122.52 256.63 117.37 258.71"/><polygon class="cls-10" points="122.73 258.46 120 259.54 122.31 261.05 125.4 260.04 122.73 258.46"/><polygon class="cls-6" points="114.81 266.93 122.13 266.21 128.83 268.66 121.51 269.88 114.81 266.93"/><polygon class="cls-7" points="157.03 244.9 157.1 246.09 156.93 249.91 157.92 250.11 158.6 244.83 157.03 244.9"/><polygon class="cls-8" points="157.58 241.83 152.95 240.68 157.1 246.09 163.78 242.38 157.58 241.83"/><polygon class="cls-9" points="152.95 240.68 157.44 244.42 163.78 242.38 159.15 239.08 152.95 240.68"/><polygon class="cls-10" points="158.81 240.63 155.43 241.46 157.85 243.08 160.9 242.17 158.81 240.63"/><polygon class="cls-6" points="150.53 248.44 157.44 247.76 163.78 250.08 156.86 251.24 150.53 248.44"/><polygon class="cls-7" points="737.04 274.99 737.13 276.47 736.91 281.21 738.14 281.46 738.99 274.9 737.04 274.99"/><polygon class="cls-8" points="737.72 271.18 731.96 269.74 737.13 276.47 745.42 271.85 737.72 271.18"/><polygon class="cls-9" points="731.96 269.74 737.55 274.39 745.42 271.85 741.27 267.79 731.96 269.74"/><polygon class="cls-10" points="740.19 269.48 735.05 270.71 737.76 272.49 741.82 271.94 740.19 269.48"/><polygon class="cls-6" points="728.96 279.39 737.55 278.54 745.42 281.42 736.83 282.86 728.96 279.39"/><polygon class="cls-7" points="794.29 302.29 794.37 303.63 794.17 307.9 795.28 308.13 796.04 302.22 794.29 302.29"/><polygon class="cls-8" points="794.9 298.86 789.71 297.56 794.37 303.63 801.84 299.47 794.9 298.86"/><polygon class="cls-9" points="789.71 297.56 794.75 301.76 801.84 299.47 796.19 295.83 789.71 297.56"/><polygon class="cls-10" points="795.94 297.21 792.5 298.44 794.94 300.04 798.6 299.55 795.94 297.21"/><polygon class="cls-6" points="787 306.26 794.75 305.5 801.84 308.09 794.1 309.39 787 306.26"/><polygon class="cls-7" points="802.31 258.23 802.38 259.42 802.21 263.23 803.2 263.43 803.88 258.17 802.31 258.23"/><polygon class="cls-8" points="802.86 255.18 798.24 254.02 802.38 259.42 809.04 255.72 802.86 255.18"/><polygon class="cls-9" points="798.24 254.02 802.72 257.76 809.04 255.72 804.55 253.72 798.24 254.02"/><polygon class="cls-10" points="804.08 254.67 800.72 254.8 802.89 256.23 806.15 255.79 804.08 254.67"/><polygon class="cls-6" points="795.83 261.77 802.72 261.09 809.04 263.4 802.14 264.55 795.83 261.77"/><polygon class="cls-7" points="778.13 279.11 778.19 280.3 778.02 284.1 779.01 284.31 779.69 279.04 778.13 279.11"/><polygon class="cls-8" points="778.67 276.05 774.05 274.9 778.19 280.3 784.85 276.6 778.67 276.05"/><polygon class="cls-9" points="774.05 274.9 778.53 278.63 784.85 276.6 778.16 273.95 774.05 274.9"/><polygon class="cls-10" points="778.63 275.23 776.53 275.68 778.7 277.11 781.96 276.66 778.63 275.23"/><polygon class="cls-6" points="771.64 282.64 778.53 281.96 784.85 284.27 777.96 285.43 771.64 282.64"/></g><g id="building_copy" data-name="building copy"><polygon class="cls-8" points="796.94 107.79 778.94 66.29 736.94 79.79 732.94 160.29 784.44 160.29 796.94 107.79"/><polygon class="cls-9" points="807.77 157.63 808.94 83.79 778.94 66.29 777.19 154.54 807.77 157.63"/><polygon class="cls-10" points="182.43 22.59 176.57 16.53 182.83 12.67 190.37 12.93 187.02 21.41 182.43 22.59"/><polygon class="cls-8" points="103.13 80.91 102.98 92.92 125.76 125.14 132.41 123.06 134.66 116.5 103.13 80.91"/><polygon class="cls-8" points="136.38 73.5 124.29 80.92 120.14 88.35 134.05 105.79 138.13 94.39 136.38 73.5"/><polygon class="cls-8" points="180.81 38.39 167.83 22 182.66 18.52 187.85 29.78 186.77 38.39 184.08 39.77 180.81 38.39"/><polygon class="cls-9" points="182.66 18.52 200.8 21.16 186.77 38.39 182.66 18.52"/><polygon class="cls-9" points="186.77 38.39 186.77 52.77 180 59.45 178.69 53.81 180.81 38.39 186.77 38.39"/><polygon class="cls-10" points="170.06 65.98 176.02 45.2 181.59 48.11 177.52 77.29 171.48 75.7 170.06 65.98"/><polygon class="cls-10" points="163.45 99.79 173.14 92.67 168.24 76.47 163.45 69.48 160.47 70.91 160.47 88.18 163.45 99.79"/><polygon class="cls-10" points="136.38 73.5 134.05 105.79 166.84 143.31 165.39 117.28 136.38 73.5"/><polygon class="cls-8" points="134.05 105.79 132.41 123.06 131.29 136.04 139.31 149.66 145.01 113.14 134.05 105.79"/><polygon class="cls-9" points="159.11 66.64 160.47 70.91 152.83 74.27 136.38 73.5 145.7 61.59 159.11 66.64"/><polygon class="cls-9" points="144.41 67.28 152.73 70.45 159.11 66.64 145.7 43.44 142.21 57.59 144.41 67.28"/><polygon class="cls-8" points="144.41 67.28 152.83 74.27 159.11 66.64 148.29 67.28 144.41 67.28"/><polygon class="cls-10" points="168.24 40.59 168.82 48.64 167.68 65.86 148.29 67.28 145.7 43.44 168.24 40.59"/><polygon class="cls-8" points="139.23 57.43 136.38 73.5 144.41 67.28 146.38 49.69 142.6 49.69 139.23 57.43"/><polygon class="cls-7" points="153 42.52 138.01 64.19 134.05 55.88 140.78 38.26 147.78 32.05 159.96 32.05 168.21 37.06 168.82 48.64 160.21 39.77 153 42.52"/><polygon class="cls-9" points="152.83 50.44 165.39 49.69 159.69 60.15 152.83 50.44"/><polygon class="cls-10" points="156.36 50.19 157.88 57.59 161.18 57.43 161.5 49.97 156.36 50.19"/><polygon class="cls-9" points="167.72 36.71 140.78 38.26 138.13 45.2 168.24 40.59 167.72 36.71"/><polygon class="cls-9" points="140.78 38.26 126.58 34.45 140.78 42.93 140.78 38.26"/><polygon class="cls-9" points="146.38 37.94 145.25 22.29 152.73 39.77 146.38 37.94"/><polygon class="cls-9" points="156.46 39.41 164.64 22.53 162.62 38.35 156.46 39.41"/><polygon class="cls-9" points="167.72 36.71 176.8 34.98 168.24 40.59 165.91 39.3 167.72 36.71"/><polygon class="cls-9" points="152.83 74.27 154.34 83.51 163.45 99.79 160.47 70.91 152.83 74.27"/><polygon class="cls-10" points="152.83 74.27 136.38 73.5 151.76 100.78 165.39 117.28 163.45 99.79 152.83 74.27"/><polygon class="cls-9" points="136.38 73.5 134.54 96.93 164.56 110.92 136.38 73.5"/><polygon class="cls-9" points="163.45 69.48 170.06 65.98 182.84 85.35 173.14 92.67 163.45 69.48"/><polygon class="cls-10" points="186.77 40.96 186.77 48.11 181.59 48.11 181.39 40.59 186.77 40.96"/><polygon class="cls-9" points="176.02 45.2 180.81 38.39 186.77 38.39 186.77 40.96 182.1 41.8 181.59 48.11 176.02 45.2"/><polygon class="cls-9" points="176.57 16.53 178.12 9.84 182.43 9.2 186.25 10.74 190.37 12.93 176.57 16.53"/><polygon class="cls-10" points="178.01 9.91 182.01 6.82 183.3 0.13 190.25 12.9 178.01 9.91"/><polygon class="cls-9" points="144.38 117.38 136.85 151.69 149.42 151.97 168.55 143 144.38 117.38"/><polygon class="cls-9" points="154.89 140.11 155.72 161.23 169.66 155.35 168.82 148.63 154.89 140.11"/><polygon class="cls-9" points="145.1 113.19 124.29 80.92 103.13 80.91 127.05 119.61 133.13 117.28 145.1 113.19"/><polygon class="cls-9" points="111.26 94.27 105.59 103.49 116.15 111.74 118.44 105.79 116.14 98.19 111.26 94.27"/><polygon class="cls-10" points="111.26 94.27 117.9 92.67 121.01 97.5 118.44 105.79 111.26 94.27"/><path class="cls-7" d="M156.57,52.66a1,1,0,1,1-1-1A1,1,0,0,1,156.57,52.66Z"/><path class="cls-7" d="M163.63,52.34a1,1,0,1,1-1-1A1,1,0,0,1,163.63,52.34Z"/><polygon class="cls-9" points="208.55 121.51 216.5 97.99 268.28 108.48 267.42 185.55 217.66 195.68 208.55 121.51"/><polygon class="cls-8" points="164.59 111.2 164.55 187.1 217.66 195.68 216.5 97.99 164.59 111.2"/><polygon class="cls-9" points="176.13 114.92 177.67 185.79 166.67 184.29 165.29 117.25 176.13 114.92"/><polygon class="cls-7" points="167.96 119.75 169.33 182.33 174.96 183.08 173.29 118.92 167.96 119.75"/><polygon class="cls-11" points="647.52 91.63 667.77 54.63 714.1 71.29 707.44 195.96 649.77 170.63 647.52 91.63"/><polygon class="cls-5" points="629.94 192.29 630.44 72.79 667.77 54.63 663.44 200.29 629.94 192.29"/><polygon class="cls-1" points="672.64 67.66 672.02 77.63 681.98 80.38 682.99 70.9 672.64 67.66"/><polygon class="cls-5" points="674.68 70.32 674.32 76.12 680.11 77.72 680.7 72.2 674.68 70.32"/><polygon class="cls-1" points="686.21 71.81 685.59 81.78 695.54 84.53 696.56 75.05 686.21 71.81"/><polygon class="cls-5" points="688.25 74.47 687.88 80.27 693.67 81.87 694.26 76.35 688.25 74.47"/><polygon class="cls-1" points="699.78 75.95 699.15 85.93 709.11 88.68 710.13 79.2 699.78 75.95"/><polygon class="cls-5" points="701.81 78.62 701.45 84.42 707.24 86.02 707.83 80.5 701.81 78.62"/><polygon class="cls-1" points="671.12 86.05 670.85 96.05 680.89 98.45 681.58 88.94 671.12 86.05"/><polygon class="cls-5" points="673.25 88.64 673.09 94.46 678.93 95.85 679.33 90.32 673.25 88.64"/><polygon class="cls-1" points="684.83 89.73 684.55 99.72 694.59 102.12 695.28 92.61 684.83 89.73"/><polygon class="cls-5" points="686.95 92.32 686.79 98.13 692.63 99.53 693.03 93.99 686.95 92.32"/><polygon class="cls-1" points="698.53 93.4 698.25 103.39 708.3 105.8 708.99 96.28 698.53 93.4"/><polygon class="cls-5" points="700.65 95.99 700.5 101.8 706.34 103.2 706.74 97.67 700.65 95.99"/><polygon class="cls-1" points="669.73 103.96 669.73 113.96 679.84 116.08 680.26 106.55 669.73 103.96"/><polygon class="cls-5" points="671.92 106.49 671.93 112.3 677.81 113.53 678.05 107.99 671.92 106.49"/><polygon class="cls-1" points="683.53 107.25 683.53 117.25 693.64 119.36 694.06 109.83 683.53 107.25"/><polygon class="cls-5" points="685.73 109.78 685.73 115.59 691.61 116.82 691.85 111.28 685.73 109.78"/><polygon class="cls-1" points="697.33 110.54 697.33 120.53 707.44 122.65 707.86 113.12 697.33 110.54"/><polygon class="cls-5" points="699.53 113.07 699.53 118.88 705.41 120.11 705.65 114.57 699.53 113.07"/><polygon class="cls-11" points="280.63 128.39 291.15 64.62 330.72 75.97 331.19 199.17 289.74 202.56 280.63 128.39"/><polygon class="cls-5" points="243.68 74.94 250.56 194.67 289.74 202.56 291.15 64.62 243.68 74.94"/><polygon class="cls-11" points="589.58 129.07 603.44 99.79 646.94 110.63 640.94 194.54 598.69 203.25 589.58 129.07"/><polygon class="cls-5" points="554.69 105.22 556.18 194.58 598.69 203.25 603.44 99.79 554.69 105.22"/><polygon class="cls-9" points="695.61 144.09 711.88 114.6 751.69 127.29 748.01 207.43 705.1 218.27 695.61 144.09"/><polygon class="cls-8" points="659.29 120.23 660.83 209.59 705.1 218.27 711.88 114.6 659.29 120.23"/><polygon class="cls-3" points="125.98 152 135.13 127.41 176.52 132.46 179.77 206.21 135.09 215.03 125.98 152"/><polygon class="cls-5" points="99.01 133.43 93.2 206.32 135.09 215.03 135.13 127.41 99.01 133.43"/><polygon class="cls-11" points="773.33 173.3 790.69 118.79 823.08 130.82 823.65 213.43 782.44 220.31 773.33 173.3"/><polygon class="cls-5" points="739.94 123.79 736.44 214.38 782.44 220.31 790.69 118.79 739.94 123.79"/><polygon class="cls-3" points="780.69 133.04 779.06 154.54 765.56 154.67 767.06 133.04 780.69 133.04"/><polygon class="cls-3" points="757.19 133.17 743.81 133.79 742.94 153.42 755.81 153.67 757.19 133.17"/><polygon class="cls-12" points="777.21 146.3 777.81 135.85 768.94 135.79 768.32 146.34 777.21 146.3"/><polygon class="cls-12" points="768.23 147.89 768 151.79 776.88 151.98 777.09 148.23 768.23 147.89"/><polygon class="cls-12" points="744.91 147.81 744.69 151.17 753.63 150.79 753.69 147.66 744.91 147.81"/><polygon class="cls-12" points="753.73 145.91 753.94 136.17 745.69 136.29 745.03 146.05 753.73 145.91"/><polygon class="cls-3" points="779.52 165.04 777.9 186.54 764.4 186.67 765.9 165.04 779.52 165.04"/><polygon class="cls-3" points="756.02 165.17 742.65 165.79 741.77 185.42 754.65 185.67 756.02 165.17"/><polygon class="cls-12" points="776.04 178.3 776.65 167.85 767.77 167.79 767.15 178.34 776.04 178.3"/><polygon class="cls-12" points="767.06 179.89 766.83 183.79 775.71 183.98 775.93 180.23 767.06 179.89"/><polygon class="cls-12" points="743.75 179.81 743.52 183.17 752.46 182.79 752.52 179.66 743.75 179.81"/><polygon class="cls-12" points="752.56 177.91 752.77 168.17 744.52 168.29 743.86 178.05 752.56 177.91"/><polygon class="cls-1" points="620.77 134.63 621.76 114.92 611.44 112.46 610.09 133.11 620.77 134.63"/><polygon class="cls-1" points="629.36 135.85 638.88 137.19 640.06 119.29 630.32 116.97 629.36 135.85"/><polygon class="cls-1" points="609.52 141.94 608.23 161.79 619.41 161.79 620.36 142.87 609.52 141.94"/><polygon class="cls-1" points="628.97 143.6 628.04 161.79 637.25 161.79 638.4 144.41 628.97 143.6"/><polygon class="cls-5" points="617.35 148.57 617.5 144.98 611.5 144.73 611.36 148.29 617.35 148.57"/><polygon class="cls-5" points="611.29 150.22 610.94 159.23 616.88 159.42 617.25 150.64 611.29 150.22"/><polygon class="cls-5" points="635.92 149.62 636.13 146.54 631.19 146.29 630.99 149.28 635.92 149.62"/><polygon class="cls-5" points="630.87 151.14 630.31 159.48 635.25 159.6 635.79 151.5 630.87 151.14"/><polygon class="cls-5" points="619.35 120.67 619.56 117.1 613.63 115.67 613.28 119.57 619.35 120.67"/><polygon class="cls-5" points="613.11 121.57 612.31 130.6 618.69 131.67 619.21 122.92 613.11 121.57"/><polygon class="cls-5" points="632.13 125.1 631.75 133.54 636.5 134.29 637.22 125.84 632.13 125.1"/><polygon class="cls-5" points="637.35 124.28 637.63 121.1 632.38 119.92 632.22 123.26 637.35 124.28"/><polygon class="cls-9" points="679.09 167.64 666.95 167.48 666.72 180.1 678.66 180.83 679.09 167.64"/><polygon class="cls-9" points="680.3 131.38 667.6 132.29 667.4 143.17 679.93 142.41 680.3 131.38"/><polygon class="cls-9" points="679.67 150.12 667.28 149.85 667.08 160.79 679.32 160.79 679.67 150.12"/><polygon class="cls-9" points="686.03 130.97 685.5 142.06 701.46 141.09 702.6 129.79 686.03 130.97"/><polygon class="cls-9" points="683.6 181.13 697.3 181.96 698.73 167.9 684.25 167.71 683.6 181.13"/><polygon class="cls-9" points="684.58 160.79 699.45 160.79 700.49 150.56 685.1 150.23 684.58 160.79"/><polygon class="cls-7" points="669.27 134 678.06 133.21 677.9 140.29 669.15 141.46 669.27 134"/><polygon class="cls-7" points="688.19 132.67 687.77 139.54 699.1 138.88 699.94 131.79 688.19 132.67"/><polygon class="cls-7" points="687.02 152.38 686.56 158.96 696.9 159 697.6 152.67 687.02 152.38"/><polygon class="cls-7" points="677.35 152.33 677.23 158.83 668.85 158.71 669.02 151.67 677.35 152.33"/><polygon class="cls-7" points="668.85 169.79 668.65 178.13 676.44 178.67 676.69 169.88 668.85 169.79"/><polygon class="cls-7" points="686.35 170.04 685.77 179.08 695.27 179.83 695.9 170.42 686.35 170.04"/><polygon class="cls-9" points="678.2 188.37 666.69 187.48 666.56 199.17 677.46 200.75 678.2 188.37"/><polygon class="cls-9" points="683.18 188.76 682.48 201.48 695.81 203.42 696.56 189.79 683.18 188.76"/><polygon class="cls-7" points="668.63 190.17 675.69 190.6 675.44 198.48 668.38 197.54 668.63 190.17"/><polygon class="cls-7" points="685.19 191.48 684.75 199.6 693.19 200.85 693.94 191.92 685.19 191.48"/><polygon class="cls-3" points="264.19 137.83 254.08 137.49 254.87 153.68 264.69 154.19 264.19 137.83"/><polygon class="cls-3" points="269.15 101.61 281.62 99.98 281.77 81.29 268.78 83.55 269.15 101.61"/><polygon class="cls-3" points="263.4 112.23 252.88 112.7 253.63 128.31 263.9 128.48 263.4 112.23"/><polygon class="cls-3" points="281.3 138.41 269.91 138.03 270.25 154.47 281.17 155.03 281.3 138.41"/><polygon class="cls-3" points="269.37 111.97 269.71 128.57 281.38 128.76 281.52 111.42 269.37 111.97"/><polygon class="cls-3" points="270.46 164.22 270.81 181.3 280.94 182.79 281.08 164.91 270.46 164.22"/><polygon class="cls-3" points="264.98 163.86 255.33 163.23 256.1 179.13 265.49 180.51 264.98 163.86"/><polygon class="cls-3" points="263.11 102.4 262.56 84.62 251.6 86.52 252.44 103.8 263.11 102.4"/><polygon class="cls-13" points="260.11 94 259.85 87.71 253.6 88.88 253.9 94.81 260.11 94"/><polygon class="cls-13" points="253.98 96.58 254.19 100.71 260.35 99.96 260.18 95.56 253.98 96.58"/><polygon class="cls-13" points="278.99 90.76 278.81 84.83 271.06 86 271.19 92.09 278.99 90.76"/><polygon class="cls-13" points="271.22 93.82 271.31 98.29 279.19 97.38 279.06 92.96 271.22 93.82"/><polygon class="cls-13" points="261.34 120.9 261.27 114.96 254.98 115.29 255.16 121.09 261.34 120.9"/><polygon class="cls-13" points="255.2 122.44 255.31 126.25 261.4 126.08 261.35 122.31 255.2 122.44"/><polygon class="cls-13" points="271.92 122.33 271.94 126 278.94 126.17 278.96 122.51 271.92 122.33"/><polygon class="cls-13" points="278.98 120.27 279.02 114.21 271.9 114.54 271.92 120.57 278.98 120.27"/><polygon class="cls-13" points="262.24 146.67 262.06 140.17 255.85 140.08 256.17 146.39 262.24 146.67"/><polygon class="cls-13" points="256.25 147.86 256.44 151.67 262.4 152.13 262.29 148.28 256.25 147.86"/><polygon class="cls-13" points="278.84 147.32 279.15 140.75 272.19 140.71 272.21 146.97 278.84 147.32"/><polygon class="cls-13" points="272.22 148.65 272.23 152.17 278.6 152.54 278.75 149.29 272.22 148.65"/><polygon class="cls-13" points="263.15 173 263.1 166.5 257.15 166 257.5 172.26 263.15 173"/><polygon class="cls-13" points="257.59 173.85 257.77 177.13 263.19 178.08 263.16 174.81 257.59 173.85"/><polygon class="cls-13" points="278.43 174.48 278.69 167.25 272.44 166.92 272.51 173.57 278.43 174.48"/><polygon class="cls-13" points="272.52 175.26 272.56 178.92 278.23 179.88 278.37 176.12 272.52 175.26"/><polygon class="cls-9" points="207.44 108.79 209.1 184.96 198.1 183.46 196.6 111.13 207.44 108.79"/><polygon class="cls-7" points="199.27 113.63 200.44 180.79 206.1 181.46 204.6 112.79 199.27 113.63"/><polygon class="cls-9" points="190.6 112.29 192.15 183.17 181.15 181.67 179.77 114.63 190.6 112.29"/><polygon class="cls-7" points="182.44 117.13 183.81 179.71 189.44 180.46 187.77 116.29 182.44 117.13"/><polygon class="cls-9" points="166.52 130.21 174.35 129.29 175.23 132.29 166.19 131.21 166.52 130.21"/><polygon class="cls-9" points="181.77 128.96 189.6 128.04 189.77 130.79 181.52 131.54 181.77 128.96"/><polygon class="cls-9" points="198.19 127.71 206.02 126.79 206.19 129.54 197.94 130.29 198.19 127.71"/><polygon class="cls-9" points="181.23 145.33 189.23 145.33 189.35 148.83 181.26 148.21 181.23 145.33"/><polygon class="cls-9" points="181.44 162.42 190.56 162.92 190.56 166.04 181.56 165.04 181.44 162.42"/><polygon class="cls-9" points="198.85 145.54 206.6 145.63 206.35 148.54 198.44 148.54 198.85 145.54"/><polygon class="cls-9" points="198.85 163.38 206.6 163.79 206.6 167.54 198.35 166.46 198.85 163.38"/><polygon class="cls-1" points="159.82 155.35 170.6 155.72 169.94 139.79 159.25 138.75 159.82 155.35"/><polygon class="cls-1" points="170.86 161.97 160.05 162.02 160.56 176.7 171.44 175.9 170.86 161.97"/><polygon class="cls-1" points="155.36 162.05 141.69 162.12 141.69 178.07 155.86 177.04 155.36 162.05"/><polygon class="cls-1" points="160.78 183.34 161.26 197.14 172.27 195.79 171.7 182.11 160.78 183.34"/><polygon class="cls-1" points="155.13 155.19 154.57 138.3 141.69 137.04 141.69 154.73 155.13 155.19"/><polygon class="cls-1" points="156.09 183.87 141.69 185.49 141.69 199.54 156.55 197.72 156.09 183.87"/><polygon class="cls-5" points="150.42 195.89 154 195.42 153.75 187.04 150.35 187.28 150.42 195.89"/><polygon class="cls-5" points="148.17 187.43 143.81 187.73 144 196.73 148.24 196.17 148.17 187.43"/><polygon class="cls-5" points="150.26 175.04 153.38 174.92 152.94 164.54 150.18 164.44 150.26 175.04"/><polygon class="cls-5" points="147.99 164.36 144.31 164.23 144.06 175.29 148.07 175.13 147.99 164.36"/><polygon class="cls-5" points="150.09 152.48 152.69 152.67 152.5 140.42 149.99 140.21 150.09 152.48"/><polygon class="cls-5" points="147.79 140.02 144.25 139.73 144.13 152.04 147.89 152.32 147.79 140.02"/><polygon class="cls-5" points="166.35 153.1 168.31 153.23 168 142.17 165.93 142 166.35 153.1"/><polygon class="cls-5" points="164.27 141.87 161.63 141.67 161.88 152.79 164.7 152.98 164.27 141.87"/><polygon class="cls-5" points="166.58 173.6 169.5 173.48 168.94 164.29 166.15 164.35 166.58 173.6"/><polygon class="cls-5" points="165.14 164.36 162.06 164.42 162.63 173.79 165.49 173.66 165.14 164.36"/><polygon class="cls-5" points="167.75 193.71 170.06 193.42 170 184.73 167.18 185.07 167.75 193.71"/><polygon class="cls-5" points="165.94 185.23 163.38 185.54 163.56 194.23 166.27 193.89 165.94 185.23"/><polygon class="cls-10" points="797.21 99.76 804.83 102.74 804.94 89.46 797.93 85.87 797.21 99.76"/><polygon class="cls-10" points="783.19 100.96 783.03 115.92 793.15 119.77 793.43 104.93 783.19 100.96"/><polygon class="cls-10" points="793.55 98.33 793.82 83.77 783.44 78.46 783.27 94.31 793.55 98.33"/><polygon class="cls-10" points="804.77 109.32 796.87 106.26 796.11 120.9 804.64 124.14 804.77 109.32"/><polygon class="cls-8" points="791.72 90.69 792.06 84.96 785.48 82.13 785.32 87.7 791.72 90.69"/><polygon class="cls-8" points="785.29 89.03 785.19 92.63 791.44 95.33 791.64 91.93 785.29 89.03"/><polygon class="cls-8" points="803.2 96.01 803.56 90.46 799.23 88.63 799.01 94.05 803.2 96.01"/><polygon class="cls-8" points="798.97 95.22 798.85 98.13 802.94 100.08 803.13 97.05 798.97 95.22"/><polygon class="cls-8" points="791.34 112.21 791.63 106.54 785.38 104.48 785.23 110.13 791.34 112.21"/><polygon class="cls-8" points="785.2 111.28 785.13 114.35 791.13 116.35 791.26 113.63 785.2 111.28"/><polygon class="cls-8" points="798.07 116.5 797.94 119.2 802.53 121.29 802.64 118.32 798.07 116.5"/><polygon class="cls-8" points="802.7 116.86 802.93 110.91 798.41 109.35 798.14 115.1 802.7 116.86"/></g><g id="main_character_copy" data-name="main character copy"><polygon class="cls-14" points="396.14 136.03 384.65 120.54 358.13 139.22 360.59 155.63 387.94 141.69 396.14 136.03"/><polygon class="cls-15" points="471.15 90.09 482.01 91.34 485.8 78.96 475.96 73.8 470.33 82.16 471.15 90.09"/><polygon class="cls-16" points="469.08 95.83 469.81 84.87 482.01 91.34 477.68 102.31 469.08 104.27 469.08 95.83"/><polygon class="cls-14" points="469.87 105.56 467.29 98.64 464.79 91.61 470.33 82.16 473.3 83.41 471.39 91.38 474.32 96.53 469.87 105.56"/><polygon class="cls-14" points="425.89 118.7 461.74 123.33 462.21 135.2 429.79 138.72 426.37 142.68 427.48 128.13 425.89 118.7"/><polygon class="cls-17" points="363.39 110.94 394.72 110.36 390.45 88.98 363.39 110.94"/><polygon class="cls-18" points="341.45 54.93 339.28 87.06 362.52 76.12 341.45 54.93"/><polygon class="cls-14" points="384.65 120.54 425.89 118.7 413.39 138.92 384.65 120.54"/><polygon class="cls-19" points="384.65 120.54 386.65 153.2 405.86 143.89 413.23 135.97 384.65 120.54"/><polygon class="cls-19" points="413.23 135.97 425.89 118.7 436.35 151.21 419.54 146.21 413.23 135.97"/><polygon class="cls-20" points="386.65 153.2 387.53 180.75 413.3 196.44 426.94 176.49 436.35 151.21 413.23 135.97 386.65 153.2"/><polygon class="cls-17" points="466.88 57.96 468.61 70.04 451.75 72.62 451.61 52.66 466.88 57.96"/><polygon class="cls-21" points="456.39 33.38 473.15 51.89 460.06 58.62 453.72 55.93 448.25 40.13 456.39 33.38"/><polygon class="cls-22" points="473.15 51.89 453.72 55.93 445.02 63.76 451.75 72.62 473.15 51.89"/><polygon class="cls-22" points="339.28 87.06 373.54 95.47 389.39 94.03 386.25 75.51 375.09 62.95 339.28 87.06"/><polygon class="cls-23" points="449.58 61.34 458.64 79.25 446.64 86.16 447.49 79 450.65 77.13 448.28 72.31 446.55 68.57 449.58 61.34"/><polygon class="cls-14" points="384.32 78.46 392.7 100.13 404.04 119.37 417.28 117.61 423.12 106.94 447.38 109.52 456.39 33.38 403.84 57.75 384.32 78.46"/><polygon class="cls-15" points="408.08 73.41 407.06 106.4 423.12 106.94 416.24 119.4 416.93 127.31 397.6 120.35 389.39 94.03 389.61 88.2 384.32 78.46 399.45 59.92 408.08 73.41"/><polygon class="cls-15" points="441.44 53.77 439.48 56.01 437.64 71.67 446.42 60.31 449.86 55.98 441.44 53.77"/><polygon class="cls-15" points="434.29 55.38 429.99 52.16 418.53 54.13 428.06 65.71 431.12 76.41 434.29 55.38"/><polygon class="cls-16" points="399.44 85.89 389.39 94.03 384.32 78.46 392.78 65.51 404.36 72.23 399.44 85.89"/><polygon class="cls-24" points="434.29 55.38 439.48 56.01 437.01 77.09 431.12 76.41 434.29 55.38"/><polygon class="cls-16" points="431.12 76.41 433.76 80.34 437.01 77.09 431.12 76.41"/><polygon class="cls-16" points="455.81 38.29 408.08 76.19 398.48 77.49 400.31 68.32 429.99 52.16 456.39 33.38 455.81 38.29"/><polygon class="cls-21" points="368.78 52.38 364.25 45.65 327.28 43.82 366.49 90.84 378.54 74.9 378.34 63.98 368.78 52.38"/><polygon class="cls-18" points="359.96 58.16 327.28 43.82 374.92 31.4 372.78 47.24 359.96 58.16"/><polygon class="cls-21" points="425.18 15.39 387.16 9.52 359.96 58.16 400.7 37.43 425.18 15.39"/><polygon class="cls-17" points="442.9 48.09 449.86 55.98 441.44 53.77 442.9 48.09"/><polygon class="cls-23" points="413.34 82.65 433.54 81.83 446.09 87.52 430.71 102.73 413.34 82.65"/><polygon class="cls-25" points="423.63 90.05 430.14 86.36 437.61 92.13 433.62 96.17 428.32 95.42 423.63 90.05"/><polygon class="cls-26" points="423.63 90.05 437.61 92.13 441.61 88.09 418.94 84.68 423.63 90.05"/><polygon class="cls-23" points="401.37 71.28 399.44 85.89 379.4 83.69 379.83 80.29 384.32 78.46 394.63 79.43 395.31 73.83 401.37 71.28"/><polygon class="cls-16" points="423.12 106.94 401.47 104.41 416.93 127.31 423.12 106.94"/><polygon class="cls-17" points="378.34 63.98 366.49 90.84 401.37 71.28 397.66 60.67 378.34 63.98"/><path class="cls-27" d="M448.05,63.16a3.09,3.09,0,1,1-3.64-2.43A3.09,3.09,0,0,1,448.05,63.16Z"/><path class="cls-27" d="M428.83,60.73a3.1,3.1,0,1,1-3.64-2.43A3.08,3.08,0,0,1,428.83,60.73Z"/><polygon class="cls-22" points="464.42 26.73 408.08 73.41 359.96 58.16 409 41.38 464.42 26.73"/><polygon class="cls-28" points="464.42 26.73 439.67 5.89 359.96 58.16 464.42 26.73"/><polygon class="cls-29" points="339.28 87.06 389.39 94.03 363.39 110.94 339.28 87.06"/><polygon class="cls-20" points="461.67 272.55 437.68 272.05 436.65 264.88 448.04 264.88 461.67 272.55"/><polygon class="cls-30" points="438.69 247.2 447.08 255.48 462.58 269.55 459.02 270.76 444.7 267.33 438.94 263.23 437.69 256.96 438.69 247.2"/><polygon class="cls-31" points="437.69 256.96 444.7 267.33 464.83 268.92 461.67 272.55 436.65 264.88 437.69 256.96"/><polygon class="cls-19" points="455.13 262.79 451.2 269.34 454.43 270.33 457.69 265.12 455.13 262.79"/><polygon class="cls-32" points="382.87 228.64 386.75 261.9 388.4 272.38 396.07 272.46 395.57 261.92 401.19 229.88 382.87 228.64"/><polygon class="cls-33" points="386.75 261.9 385.9 280.13 400.17 279.95 395.57 261.72 386.75 261.9"/><polygon class="cls-34" points="385.9 280.13 400.17 279.95 392.03 275.4 385.9 280.13"/><polygon class="cls-7" points="385.55 275.4 398.81 275.06 398.29 272.64 386.56 273.03 385.55 275.4"/><polygon class="cls-35" points="383.78 236.89 383.86 237.06 399.46 239.45 401.19 229.88 396.24 229.55 383.78 236.89"/><polygon class="cls-32" points="420.5 227.07 437.69 256.96 447.08 255.48 438.57 221.79 420.5 227.07"/><polygon class="cls-35" points="420.5 227.07 424.63 234.25 439.15 224.1 439.15 224.1 433.04 223.44 420.5 227.07"/><polygon class="cls-36" points="426.94 176.49 387.43 177.56 379.82 199.27 406.47 188.04 426.94 176.49"/><polygon class="cls-37" points="439.23 224.1 392.44 216.59 379.82 199.27 426.94 176.49 439.23 224.1"/><polygon class="cls-38" points="439.23 224.1 383.62 236.97 379.82 199.27 439.23 224.1"/><polygon class="cls-39" points="402.01 281.12 396.86 266.84 398.81 279.15 386.75 279.42 386.61 264.8 383.88 281.48 402.01 281.12"/><polygon class="cls-15" points="467.29 98.64 452.13 121.84 462.21 135.2 477.68 102.31 467.29 98.64"/></g><g id="bag_copy" data-name="bag copy"><polygon class="cls-40" points="212.84 233.71 203.65 219.27 189.36 219.79 184.27 234.44 190.09 233.92 193.35 224.3 196.9 224.1 207.96 233.19 212.84 233.71"/><polygon class="cls-40" points="203.6 255.43 236.01 238.28 214.82 227.06 174.92 232.36 195.49 256.36 203.6 255.43"/><polygon class="cls-41" points="197.36 268.83 184.27 288.46 169.47 278.65 174.92 232.36 183.65 237.97 197.36 268.83"/><polygon class="cls-42" points="183.65 237.97 184.27 288.46 235.07 285.35 236.01 238.28 183.65 237.97"/><polygon class="cls-42" points="189.41 242.13 196.9 224.1 216.06 223.64 226.04 240.16 220.27 241.14 213.62 230.08 201.31 229.97 196.48 241.82 189.41 242.13"/><polygon class="cls-37" points="267.8 272.88 297.1 270.39 298.03 290.96 260.01 311.53 251.59 285.04 267.8 272.88"/><polygon class="cls-43" points="231.65 270.07 212.01 270.07 211.39 303.42 260.01 311.53 264.21 288.77 231.65 270.07"/><polygon class="cls-38" points="212.01 270.07 264.21 288.77 297.1 270.39 236.01 261.66 212.01 270.07"/><polygon class="cls-5" points="231.65 277.09 218.56 281.3 250.03 291.43 259.38 286.9 231.65 277.09"/><polygon class="cls-44" points="218.87 297.66 218.56 281.3 250.81 289.71 248.63 303.42 218.87 297.66"/><polygon class="cls-12" points="262.03 300.93 248.63 303.42 250.81 289.71 259.38 286.9 264.21 288.77 262.03 300.93"/><polygon class="cls-38" points="234.45 274.28 222.45 285.5 240.94 290.96 255.8 285.35 248.94 283.17 240.68 286.49 231.39 283.48 238.66 275.37 234.45 274.28"/><polygon class="cls-43" points="224.79 304.15 218.56 312.57 234.45 316.83 250.76 308.72 243.7 307.06 235.18 312.15 227.18 310.9 230.71 304.36 224.79 304.15"/></g><g id="left_character_copy" data-name="left character copy"><polygon class="cls-45" points="254.87 267.27 245.36 268.83 241.78 280.83 255.49 285.89 261.1 276.78 262.03 271.94 266.4 280.05 269.82 277.24 268.27 266.02 254.87 267.27"/><polygon class="cls-46" points="269.82 252.93 257.05 260.1 245.36 268.83 261.1 276.78 268.27 266.02 269.82 252.93"/><polygon class="cls-45" points="293.2 227.06 268.19 240.04 257.05 260.1 268.27 266.02 288.47 243.9 293.2 227.06"/><polygon class="cls-47" points="293.2 227.06 273.1 231.43 268.19 240.04 288.47 243.9 293.2 227.06"/><polygon class="cls-19" points="309.71 220.35 301.24 199.9 273.1 231.43 288.47 243.9 304.59 232.53 309.71 220.35"/><polygon class="cls-19" points="353.88 230.12 368.68 236 383.64 227.27 360.15 198.78 353.88 230.12"/><polygon class="cls-48" points="315.79 200.25 345.67 209.84 328.93 245.69 303.06 239.11 301.24 199.9 315.79 200.25"/><polygon class="cls-48" points="345.83 197.8 360.15 198.78 363.35 237.02 337.95 247.67 327.53 246.99 345.83 197.8"/><polygon class="cls-19" points="303.06 239.11 305.13 271.22 332.35 284.03 363.35 254.44 363.35 237.02 303.06 239.11"/><polygon class="cls-49" points="305.13 271.22 317.85 267.56 336.4 272.2 349.94 258.3 363.35 254.44 364.57 272.68 305.71 279.36 305.13 271.22"/><polygon class="cls-50" points="385.19 246.41 363.35 254.44 339.29 275.09 358.21 300.63 366.52 299.02 375.53 283.07 397.93 270.91 385.19 246.41"/><polygon class="cls-50" points="350.35 281.81 352.23 279.71 350.5 280.77 350.66 279.71 348.02 273.68 346.83 266.06 345.15 267.11 343.59 263.53 330.83 272.49 317.85 267.56 305.71 279.36 315.13 305.87 333.56 303.5 342.99 289.98 349.5 287.44 350.35 281.81"/><polygon class="cls-51" points="349.94 258.3 317.85 267.56 333.56 303.5 350.35 308.47 358.21 300.63 349.94 258.3"/><polygon class="cls-51" points="357.04 294.63 330.99 297.63 333.56 303.5 350.35 308.47 358.21 300.63 357.04 294.63"/><polygon class="cls-40" points="358.21 300.63 366.52 315.49 353.7 320.18 334.84 316.37 333.56 303.5 358.21 300.63"/><polygon class="cls-19" points="335.21 321.78 366.52 320.86 366.52 315.49 334.84 316.37 335.21 321.78"/><polygon class="cls-51" points="385.19 246.41 375.53 283.07 384.78 294.3 401.01 295.14 407.93 286.66 385.19 246.41"/><polygon class="cls-51" points="405.73 282.76 379.41 287.18 384.78 294.3 401.01 295.14 407.93 286.66 405.73 282.76"/><polygon class="cls-40" points="407.93 286.66 425.85 301.39 410.6 305.67 385.4 302.23 384.78 294.3 407.93 286.66"/><polygon class="cls-19" points="385.85 307.35 426.6 306.79 425.85 301.39 385.4 302.23 385.85 307.35"/><polygon class="cls-46" points="347.96 118.14 362.98 123.75 370.23 127.02 378.65 187.36 361.39 192.01 337.12 194.45 326.47 152.87 324.18 133.66 340.46 131.69 347.96 118.14"/><polygon class="cls-45" points="352.02 196.3 355.27 195.19 337.89 194.85 324.18 133.66 314.55 145.44 317.27 154.58 318.66 159.97 318.23 163.63 319.26 169.85 315.7 167.29 312.83 161.07 309.64 165.97 309.69 169.55 311.51 172.87 314.12 178.63 312.74 178.52 312.81 186.82 315.79 200.25 340.03 213.26 352.02 196.3"/><polygon class="cls-52" points="372.81 145.06 376.88 125.11 368.45 124.5 372.81 145.06"/><polygon class="cls-45" points="334.25 148.43 347.4 155.26 354.2 167.46 354.11 156.19 349.87 149.86 347.75 146.58 342.87 145.7 334.25 148.43"/><polygon class="cls-45" points="359.05 145.12 358.97 148.84 357.94 153.54 360.41 159.52 369.51 143.74 364.55 141.91 359.05 145.12"/><polygon class="cls-53" points="358.97 148.84 364.2 166.17 358.97 168.82 354.2 167.46 349.87 149.86 358.97 148.84"/><polygon class="cls-46" points="317.4 167.85 318.84 171.38 310.74 177.08 304.72 165.7 313.09 158.54 317.4 167.85"/><polygon class="cls-54" points="358.65 130.82 376.88 125.11 350.08 106.5 335.29 126.37 358.65 130.82"/><polygon class="cls-55" points="358.65 130.82 350.08 106.5 311.61 110.22 317.07 123.77 348.26 131.64 358.65 130.82"/><polygon class="cls-54" points="348.26 131.64 311.61 110.22 294.88 132.51 311.14 134.76 324.18 133.66 348.26 131.64"/><polygon class="cls-55" points="294.88 132.51 297.24 156.67 306.7 155.44 314.55 145.44 324.18 133.66 294.88 132.51"/><polygon class="cls-56" points="318.99 140.07 323.79 168.03 318.84 171.38 313.09 160.06 304.72 165.7 297.24 156.67 318.99 140.07"/><polygon class="cls-47" points="308.57 166.13 311.68 164.32 313.7 169.9 308.57 166.13"/><polygon class="cls-47" points="310.74 177.08 318.88 171.47 312.81 186.82 310.74 177.08"/><polygon class="cls-47" points="364.2 166.17 359.5 169.99 354.21 167.46 364.2 166.17"/><path class="cls-57" d="M348.63,154.73a3,3,0,1,1-3-3A3,3,0,0,1,348.63,154.73Z"/><path class="cls-57" d="M368.82,152.92a3,3,0,1,1-3-3A3,3,0,0,1,368.82,152.92Z"/><polygon class="cls-47" points="327.2 196.64 337.55 193.42 378.65 187.36 355.62 195.77 340.03 213.26 327.2 196.64"/><polygon class="cls-56" points="347.75 146.58 347.86 142.95 334.03 143.88 334.25 148.43 347.75 146.58"/><polygon class="cls-56" points="359.05 145.12 357.59 141.91 368.08 140.24 369.51 143.74 359.05 145.12"/><polygon class="cls-58" points="346 175.47 370.16 172.08 361.11 184.84 346 175.47"/><polygon class="cls-59" points="352.3 176.81 365.86 174.82 360.54 181.57 352.3 176.81"/><polygon class="cls-45" points="342.48 234.73 338.18 228.94 333.81 215.4 329.24 217.64 331.7 231.16 342.48 234.73"/><polygon class="cls-45" points="332.2 244.05 327.9 238.26 320.75 224.13 315.25 238.83 319.19 246.47 332.2 244.05"/><polygon class="cls-46" points="342.21 231.77 338.18 228.94 320.75 224.13 319.19 246.47 336.99 244.06 342.21 231.77"/><polygon class="cls-45" points="345.89 228.84 383.64 227.27 379.69 248.57 346.37 244.9 339.49 231.49 345.89 228.84"/><polygon class="cls-41" points="345.89 228.84 346.37 244.9 336.99 244.06 338.18 228.94 345.89 228.84"/><polygon class="cls-48" points="337.84 232.81 346 232.82 346.24 240.55 337.32 239.73 337.84 232.81"/><polygon class="cls-60" points="344.5 234.67 339.45 234.5 339.01 238.27 344.6 238.67 344.5 234.67"/></g><g id="right_character_copy" data-name="right character copy"><polygon class="cls-61" points="512.39 251.76 510.58 257.57 516.91 265.79 525.8 261.1 522.84 250.33 512.39 251.76"/><polygon class="cls-62" points="507.82 241.59 504.69 249.04 510.58 257.57 522.84 250.33 520.72 245.4 507.82 241.59"/><polygon class="cls-61" points="513.3 239.75 513.56 239.51 521.47 242.69 526.6 248.48 524.95 250.91 519.15 247.2 513.12 247.08 508.95 242.97 513.3 239.75"/><polygon class="cls-62" points="499.1 217.28 510.2 234.14 506.4 240.51 499.98 244.37 486.83 230.86 499.1 217.28"/><polygon class="cls-19" points="513.67 239.51 504.69 249.04 499.98 244.37 510.2 234.14 513.67 239.51"/><polygon class="cls-19" points="507.23 295.96 497.37 301.4 497.48 305.91 532.16 305.95 531.7 301.74 507.23 295.96"/><polygon class="cls-40" points="512.36 285.24 517.48 289.55 531.7 301.74 497.37 301.4 496.97 292.89 512.36 285.24"/><polygon class="cls-19" points="460.62 308.89 466.3 315.38 466.3 319.37 435.95 319.63 436.09 315.65 460.62 308.89"/><polygon class="cls-40" points="453 295.37 458.73 302.06 466.3 315.38 436.09 315.65 436.35 302.66 453 295.37"/><polygon class="cls-49" points="508.63 254.81 519.56 264.61 517.48 289.55 496.97 292.89 492.47 270.82 508.63 254.81"/><polygon class="cls-63" points="448.37 260.53 464.77 278.29 458.73 302.06 436.3 302.66 437.21 277.84 448.37 260.53"/><polygon class="cls-63" points="462.11 245.42 487.62 228.72 495.17 234.22 519.56 264.61 492.47 270.82 458.46 252.71 462.11 245.42"/><polygon class="cls-49" points="458.62 213.38 434 221.98 465.91 258.02 495.17 234.22 458.62 213.38"/><polygon class="cls-64" points="458.62 217.93 433.9 221.83 437.21 277.84 464.77 278.29 470.46 253.92 433.9 221.83 458.62 217.93"/><polygon class="cls-40" points="458.83 215.6 464.68 236.16 495.17 234.22 505.19 210.78 480.25 187.76 458.83 215.6"/><polygon class="cls-19" points="478.1 180.91 454.12 183.05 433.9 221.83 464.68 236.16 477.75 201.11 478.1 180.91"/><polygon class="cls-40" points="494.81 163.35 484.36 163.8 454.12 183.05 477.75 201.11 505.08 201.04 505.94 169.34 494.81 163.35"/><polygon class="cls-61" points="554.67 100.6 556.8 121.09 563.04 160.5 536.18 168.2 516.56 175.88 508.41 171.61 505.2 165.44 491.08 135.08 491.56 127.59 491.13 108.08 535.33 105.2 554.67 100.6"/><polygon class="cls-62" points="495.4 110.72 517.27 170.97 540.59 167.19 529.12 171.44 523.9 177.6 512.98 187 497.63 173.4 484.78 163.72 487.53 157.29 483.82 156.93 481.73 142.83 491.42 133.04 495.4 110.72"/><polygon class="cls-65" points="483.82 156.93 493.49 151.6 484.78 163.72 483.82 156.93"/><polygon class="cls-65" points="492.05 148.41 488.87 142.58 485.02 144.55 492.05 148.41"/><polygon class="cls-63" points="522.19 108.03 495.4 110.72 490.29 115.53 476.57 112.35 504.34 85.21 520.38 99.13 522.19 108.03"/><polygon class="cls-63" points="484.22 126.36 483.08 132.87 481.73 142.83 492.4 137.49 495.4 148.09 499.34 145.26 494.77 128.48 484.22 126.36"/><polygon class="cls-66" points="495.2 116.79 488.37 115.47 478.1 121.42 479.86 131.78 492.85 125.88 495.2 116.79"/><polygon class="cls-66" points="495.2 116.79 479.86 131.78 481.73 142.83 494.77 128.48 495.2 116.79"/><polygon class="cls-49" points="548.58 99.72 553 101.66 556.8 121.09 561.9 100.37 549.42 96.19 543.78 97.17 548.58 99.72"/><polygon class="cls-66" points="533.17 88.14 525.86 101.94 534.25 108.98 561.9 100.37 548.24 89.1 533.17 88.14"/><polygon class="cls-67" points="533.17 88.14 534.25 108.98 522.19 108.03 504.34 85.21 533.17 88.14"/><polygon class="cls-66" points="476.57 112.35 478.1 121.42 495.2 116.79 495.4 110.72 476.57 112.35"/><polygon class="cls-65" points="549.23 144.81 527.17 150.27 537.54 156.58 545.51 154.58 549.23 144.81"/><polygon class="cls-26" points="545.91 147.56 532.38 150.83 537.95 154.11 543.81 152.68 545.91 147.56"/><polygon class="cls-62" points="543.36 116.8 550.42 116.4 539.25 137.42 533.63 142.22 513.28 125.3 520.85 121.97 528.61 122.55 530.2 126.87 535.57 131.7 537.76 125.25 537.07 120.45 543.36 116.8"/><path class="cls-68" d="M542.07,128.07a3,3,0,1,0,2.54-3.34A3,3,0,0,0,542.07,128.07Z"/><path class="cls-68" d="M523.07,132.36a3,3,0,1,0,1.92-3.73A3,3,0,0,0,523.07,132.36Z"/><polygon class="cls-65" points="539.09 137.89 542.08 140.1 538.2 143.99 533.63 142.22 539.09 137.89"/><polygon class="cls-69" points="537.76 125.25 542.08 140.1 533.63 142.22 530.2 126.87 537.76 125.25"/><polygon class="cls-63" points="543.04 114.26 537.07 120.45 550.42 116.4 543.04 114.26"/><polygon class="cls-63" points="528.61 122.55 520.56 118.38 513.28 125.3 528.61 122.55"/><polygon class="cls-65" points="517.27 170.97 561.29 161.04 532.68 171.31 514 189.03 507.27 183.04 505.27 175.04 517.27 170.97"/><polygon class="cls-19" points="496.19 172.29 522.85 193.87 534.64 198.61 518.43 220 477.75 201.11 496.19 172.29"/><polygon class="cls-62" points="547.45 190.18 522.85 193.87 523.19 213.21 528.52 215.38 551.42 204.94 559.28 196.03 547.45 190.18"/><polygon class="cls-65" points="522.85 193.87 520.5 207.8 518.43 220 528.52 215.38 522.85 193.87"/><polygon class="cls-62" points="552.17 194.61 554.5 188.16 554.76 174.63 559.54 175.42 561 188.4 552.17 194.61"/><polygon class="cls-62" points="564.1 200.27 566.42 193.82 569.05 179 577.93 188.09 576.6 198.91 564.1 200.27"/><polygon class="cls-61" points="551.61 191.84 554.5 188.16 569.05 179 576.6 198.91 559.74 201.6 551.61 191.84"/><polygon class="cls-42" points="547.45 190.18 551.42 204.94 559.74 201.6 554.5 188.16 547.45 190.18"/><polygon class="cls-19" points="555.87 191.59 548.45 193.84 550.35 200.94 558.25 197.75 555.87 191.59"/><polygon class="cls-60" points="552.46 193.56 555.68 195.72 553.88 198.71 550.63 196.94 552.46 193.56"/></g><g id="camera_copy" data-name="camera copy"><polygon class="cls-51" points="655.31 322.67 672.35 321.04 672.31 329.92 645.69 340.42 637.44 325.92 655.31 322.67"/><polygon class="cls-70" points="629.44 318.92 615.77 316.04 613.44 323.67 645.69 340.42 645.85 330.71 629.44 318.92"/><polygon class="cls-71" points="615.77 316.04 645.85 330.71 672.35 321.04 646.94 309.29 615.77 316.04"/><polygon class="cls-51" points="640.1 309.96 644.85 323.79 656.35 320.54 651.94 315.79 640.1 309.96"/><polygon class="cls-70" points="642.69 311.29 638.27 313.88 633.69 318.96 644.85 323.79 646.1 317.38 642.69 311.29"/><polygon class="cls-44" points="649.1 238.92 655.44 239.79 651.94 315.79 646.1 317.38 641.73 238.67 649.1 238.92"/><polygon class="cls-51" points="640.77 239.46 638.27 313.88 646.1 317.38 644.77 239.79 640.77 239.46"/><polygon class="cls-38" points="616.98 246.91 606.9 233.32 615.57 225.82 620.26 234.72 616.98 246.91"/><polygon class="cls-43" points="621.32 242.69 614.4 244.45 606.67 243.51 606.9 233.32 621.55 234.96 621.32 242.69"/><polygon class="cls-7" points="653.12 213 612.17 223.3 613.42 247.92 628.53 253.01 653.12 213"/><polygon class="cls-38" points="637.16 230.59 624.48 224.31 612.17 223.3 660.91 206.47 675.23 212.5 637.16 230.59"/><polygon class="cls-43" points="624.48 224.31 675.23 212.5 677.99 251.22 628.53 253.01 624.48 224.31"/><polygon class="cls-1" points="632.27 227.82 670.08 220.79 671.58 246.04 633.27 247.17 632.27 227.82"/><polygon class="cls-38" points="639.22 213.9 637.27 208.25 647.51 204.98 652.73 205.73 643.81 215.28 639.22 213.9"/><polygon class="cls-7" points="648.01 212.58 643.3 208.87 637.27 208.25 633.72 215.87 642.05 220.3 648.01 212.58"/><polygon class="cls-43" points="641.55 220.87 643.3 208.87 652.73 205.73 660.07 218.04 646.26 223.07 641.55 220.87"/><polygon class="cls-1" points="646.4 211.75 645.27 219.44 654.69 217.12 651.3 210.58 646.4 211.75"/></g></g></svg>