<svg xmlns="http://www.w3.org/2000/svg" viewBox="0 0 900 350"><defs><style>.cls-1,.cls-31{fill:#a3a3a3;}.cls-1,.cls-2,.cls-20,.cls-21,.cls-22,.cls-23,.cls-29,.cls-3,.cls-30,.cls-4,.cls-42,.cls-43,.cls-44,.cls-45,.cls-47,.cls-48,.cls-5,.cls-51,.cls-6,.cls-7,.cls-8,.cls-9{fill-rule:evenodd;}.cls-17,.cls-2{fill:#c4c4c4;}.cls-11,.cls-3{fill:#ececeb;}.cls-13,.cls-4{fill:#858686;}.cls-24,.cls-5{fill:#6f7173;}.cls-10,.cls-6{fill:#dddddc;}.cls-28,.cls-7{fill:#ccad14;}.cls-25,.cls-8{fill:#f4d75d;}.cls-19,.cls-9{fill:#bc8f2d;}.cls-12,.cls-16,.cls-23,.cls-35,.cls-41,.cls-48,.cls-51{fill:#2b2b2b;}.cls-12,.cls-23{opacity:0.1;}.cls-14{fill:#9da1a2;}.cls-15,.cls-30{fill:#cececd;}.cls-16{opacity:0.2;}.cls-18,.cls-21{fill:#8f8f8f;}.cls-20,.cls-26{fill:#9e7700;}.cls-22,.cls-27{fill:#e5c828;}.cls-29,.cls-40{fill:#fff;}.cls-32{fill:#474747;}.cls-33{fill:#dfbda5;}.cls-34{fill:#8b6651;}.cls-36{fill:#4f5253;}.cls-37{fill:#c3987b;}.cls-38,.cls-42{fill:#856400;}.cls-39{fill:#e8cab6;}.cls-41,.cls-51{opacity:0.3;}.cls-43,.cls-49{fill:#916a59;}.cls-44,.cls-50{fill:#b18d79;}.cls-45,.cls-46{fill:#66483a;}.cls-47{fill:#ba9e8e;}</style></defs><title>Explorers_Entrepreneur_ESTP_romantic_relationships</title><g id="illustration_copy" data-name="illustration copy"><g id="background_copy" data-name="background copy"><polygon class="cls-1" points="33.62 248.64 56.22 253.04 123.53 253.04 214.23 258.37 268.22 283.91 491.34 265.95 587.89 280.22 654.02 257.31 675.71 247.68 693.09 239.97 871.06 182.19 899.8 108.17 807.02 0 690.08 41.4 431.51 0 195.63 19.31 79.62 12.32 0 108.52 19.41 213.01 33.62 248.64"/></g><g id="mountain_copy" data-name="mountain copy"><polygon class="cls-2" points="221.08 200.87 246 175.44 270.61 166.15 282.84 145.47 299 149.73 347.33 215.83 393.33 200.17 458.34 208.19 741.45 250.15 206.32 295.67 221.08 200.87"/><polygon class="cls-3" points="266 211.33 218.35 218.38 217.13 226.23 233.26 230.62 262.6 221.09 301.94 220.01 266 211.33"/><polygon class="cls-3" points="301.94 220.01 347.33 215.83 389.91 229.73 368.06 235.28 301.94 220.01"/><polygon class="cls-3" points="393.33 200.17 423.96 221.09 462.96 228.32 458.34 208.19 393.33 200.17"/><polygon class="cls-3" points="288.01 187.75 307.75 181.59 311.8 187.75 328.79 190.47 328.79 190.47 299 149.73 282.84 145.47 270.61 166.15 246 175.44 275.75 177.75 288.01 187.75"/><polygon class="cls-4" points="0 253.04 32.16 186.71 78.56 172.53 133.07 88.06 152.35 93.16 193.03 192.93 221.08 200.87 233.26 230.62 254.97 242.83 268.22 283.91 210.03 281.9 152.82 262.7 56.34 264.6 0 253.04"/><polygon class="cls-5" points="195.43 277.05 152.82 262.7 165.67 185.98 195.63 276.88 195.43 277.05"/><polygon class="cls-5" points="56.34 264.6 50.63 263.43 93.91 200.85 80.88 262.71 56.34 264.6"/><polygon class="cls-6" points="78.56 172.53 48.53 233.73 55.36 179.62 78.56 172.53"/><polygon class="cls-6" points="88.83 156.63 113.7 141.37 123.32 183.28 145.76 136.22 147.98 164.03 164.98 161.77 185.54 183.28 188.4 181.58 152.35 93.16 133.07 88.06 88.83 156.63"/><polygon class="cls-6" points="193.03 192.93 209.46 249.6 221.08 200.87 193.03 192.93"/><polygon class="cls-6" points="233.26 230.62 218.49 256.79 224.13 268.96 254.97 242.83 233.26 230.62"/><polygon class="cls-7" points="704.56 159.49 731.77 153.82 742.67 110.49 755.14 105.1 762.79 74.5 793.64 76.75 808.97 111.62 842.12 121.53 900 242.83 853.54 250.17 840.62 241.75 835.68 253 774.69 262.63 765.84 250.15 755 257.16 693.09 239.97 654.02 257.31 704.56 159.49"/><polygon class="cls-8" points="684.6 198.14 704.56 159.49 731.77 153.82 742.67 110.49 755.14 105.1 762.79 74.5 793.64 76.75 802.08 145.89 808.97 111.62 842.12 121.53 870.93 181.9 824.55 156.38 803.87 194.92 777.76 107.12 755 125.13 733.84 176.46 717.46 185.28 684.6 198.14"/><polygon class="cls-9" points="755 257.16 776.67 175.08 774.69 262.63 755 257.16"/><polygon class="cls-9" points="831.64 176.22 825.97 191.52 835.68 253 853.54 250.18 831.64 176.22"/><polygon class="cls-9" points="808.97 111.62 802.08 145.89 793.64 76.75 808.97 111.62"/><polygon class="cls-9" points="704.14 200.87 675.71 247.68 693.09 239.97 704.14 200.87"/></g><g id="ground_copy" data-name="ground copy"><polygon class="cls-10" points="900 242.83 841.67 299.67 780.95 350 721.22 317.63 720.33 244.02 774.55 250.15 900 242.83"/><polygon class="cls-10" points="152.82 262.7 218.33 350 268.22 283.91 223.77 282.37 208.46 281.22 152.82 262.7"/><polygon class="cls-10" points="80.88 262.71 100.27 329.3 75.75 306.38 44.23 286.68 50.63 263.43 80.88 262.71"/><polygon class="cls-11" points="0 253.04 50.63 263.43 44.23 286.68 0 253.04"/><polygon class="cls-11" points="152.82 262.7 80.88 262.71 100.27 329.3 218.33 350 152.82 262.7"/><polygon class="cls-3" points="491.34 265.95 458.33 350 218.33 350 268.22 283.91 491.34 265.95"/><polyline class="cls-6" points="720.33 244.02 594.29 350 458.33 350 491.34 265.95 720.33 244.02"/><polygon class="cls-11" points="900 242.83 781.23 350 870.93 329.3 900 242.83"/><polygon class="cls-11" points="781.23 350 721.22 317.63 720.33 244.02 570.75 349.73 781.23 350"/></g><g id="pinus_copy" data-name="pinus copy"><polygon class="cls-12" points="795.24 290.44 809.86 287.97 824.66 290.25 807.61 294.48 795.24 290.44"/><polygon class="cls-13" points="806.83 293.5 806.28 282.3 810.43 282.43 809.25 291.42 806.83 293.5"/><polygon class="cls-14" points="806.56 285.38 824.67 279.76 804.47 268.73 792.15 278.41 806.56 285.38"/><polygon class="cls-15" points="804.47 268.73 806.56 285.38 790.35 278.62 804.47 268.73"/><polygon class="cls-16" points="814.13 274 805.98 279.88 799.46 272.24 814.13 274"/><polygon class="cls-17" points="805.47 276.26 821 272.17 807.02 259.56 796.12 268.37 805.47 276.26"/><polygon class="cls-11" points="807.02 259.56 805.47 276.26 794.2 268.72 807.02 259.56"/><polygon class="cls-16" points="813.25 265.25 806.03 270.25 801.34 264.16 813.25 265.25"/><polygon class="cls-14" points="806.32 267.11 818.25 263.88 808.96 253.52 799.18 261.6 806.32 267.11"/><polygon class="cls-15" points="808.96 253.52 806.32 267.11 794.25 263.38 808.96 253.52"/><polygon class="cls-16" points="812.54 257.5 807.28 262.16 801.42 258.63 812.54 257.5"/><polygon class="cls-17" points="807.87 259.11 816.5 256 805.88 246.63 801.21 255.34 807.87 259.11"/><polygon class="cls-11" points="805.88 246.63 807.87 259.11 797.17 259.08 805.88 246.63"/><polygon class="cls-12" points="198.83 324.02 219.38 319.81 237.84 322.73 217.8 329.3 198.83 324.02"/><polygon class="cls-13" points="215.92 325.5 215.23 311.38 220.44 311.43 219.71 324.04 215.92 325.5"/><polygon class="cls-14" points="215.44 314.71 238.47 306.91 213.77 290.98 197.72 306.01 215.44 314.71"/><polygon class="cls-17" points="213.77 290.98 215.44 314.71 195.44 306.38 213.77 290.98"/><polygon class="cls-12" points="225.27 298.4 214.97 307.98 207.05 296.63 225.27 298.4"/><polygon class="cls-17" points="214.57 302.29 232.3 295.84 217.53 277.05 203.3 290.73 214.57 302.29"/><polygon class="cls-11" points="217.53 277.05 214.57 302.29 200.88 291.31 217.53 277.05"/><polygon class="cls-12" points="224.13 285.44 215.44 294.82 209.51 283.91 224.13 285.44"/><polygon class="cls-14" points="216.19 288.46 231.58 282.62 219.04 268.96 207.55 280.41 216.19 288.46"/><polygon class="cls-17" points="220.31 267.87 216.19 288.46 205.28 280.78 220.31 267.87"/><polygon class="cls-12" points="223.99 274.45 217.53 281.9 211.15 272.49 223.99 274.45"/><polygon class="cls-17" points="218.61 276.35 227.66 273.14 218.49 256.79 210.47 270.89 218.61 276.35"/><polygon class="cls-11" points="218.49 256.79 218.61 276.35 208.63 271.19 218.49 256.79"/><polygon class="cls-12" points="274.57 315.95 286.96 309.5 317.76 310.88 286.75 329.3 274.57 315.95"/><polygon class="cls-13" points="298.36 313.96 301.16 300.21 296.13 301.04 295.56 313.01 298.36 313.96"/><polygon class="cls-17" points="307.39 303.16 325.89 296.05 299.81 270.32 286.75 286.54 301.94 301.71 307.39 303.16"/><polygon class="cls-11" points="299.81 270.32 304.23 301.04 279.72 289.64 299.81 270.32"/><polygon class="cls-14" points="301.58 282.62 318.95 275.77 293.62 245.15 279.05 273.76 301.58 282.62"/><polygon class="cls-11" points="293.62 245.15 301.58 282.62 276.41 274.1 293.62 245.15"/><polygon class="cls-12" points="305.87 259.96 298.36 267.48 291.1 259.75 305.87 259.96"/><polygon class="cls-17" points="297.55 263.63 313.15 256.75 298.07 235.48 284.14 249.98 297.55 263.63"/><polygon class="cls-11" points="298.07 235.48 297.54 263.63 291.1 259.75 286.01 256.22 282.3 249.98 298.07 235.48"/><polygon class="cls-12" points="307.54 248.84 297.62 259.47 285.5 247.04 307.54 248.84"/><polygon class="cls-14" points="297.72 254.24 311.8 246.5 299 228.41 284.99 245.15 297.72 254.24"/><polygon class="cls-15" points="299 228.41 297.72 254.24 282.3 245.15 299 228.41"/><polygon class="cls-12" points="306.67 239.25 298.39 246.18 290.91 236.53 306.67 239.25"/><polygon class="cls-17" points="310.07 238.02 298.39 242.24 290.52 233.54 301.94 220.01 310.07 238.02"/><polygon class="cls-11" points="301.94 220.01 298.39 242.24 288.01 234.31 301.94 220.01"/><polygon class="cls-13" points="288.01 316.48 290.52 317.29 291.49 301.71 286.66 305.86 288.01 316.48"/><polygon class="cls-14" points="272.35 299.04 286.75 307.1 307.39 303.16 285.11 279.33 272.35 299.04"/><polygon class="cls-15" points="286.75 307.11 285.11 279.33 267.97 301.04 286.75 307.11"/><polygon class="cls-12" points="293.79 288.62 286.18 297.33 277.11 289.46 293.79 288.62"/><polygon class="cls-17" points="286.01 294.61 272.35 280.86 284.73 267.77 301.58 282.62 286.01 294.61"/><polygon class="cls-11" points="284.73 267.77 286.01 294.62 267.97 284.17 284.73 267.77"/><polygon class="cls-12" points="294.46 276.35 285.5 283.91 275.62 276.68 294.46 276.35"/><polygon class="cls-14" points="273.12 274.1 285.32 280.27 299.63 273.44 281.44 257.91 273.12 274.1"/><polygon class="cls-15" points="281.44 257.91 285.32 280.27 270.61 274.82 281.44 257.91"/><polygon class="cls-12" points="288.01 263.42 283.86 271.88 276.52 265.58 288.01 263.42"/><polygon class="cls-17" points="274.57 263.63 283.36 268.96 291.1 259.75 282.3 249.98 274.57 263.63"/><polygon class="cls-11" points="282.3 249.98 283.36 268.96 273.12 263.9 282.3 249.98"/><polygon class="cls-12" points="309.22 279.61 302.42 288.46 299 284.6 301.58 282.62 309.22 279.61"/><polygon class="cls-12" points="733.28 310.24 747.47 305.66 765.68 307.93 747.47 315.09 733.28 310.24"/><polygon class="cls-13" points="746.53 309.33 748.77 310.05 749.63 296.19 745.32 299.88 746.53 309.33"/><polygon class="cls-14" points="732.59 293.81 745.41 300.99 763.78 297.48 743.95 276.27 732.59 293.81"/><polygon class="cls-15" points="745.41 300.99 743.95 276.27 727.75 294.75 745.41 300.99"/><polygon class="cls-16" points="751.65 284.51 745.07 294.48 735.88 285.5 751.65 284.51"/><polygon class="cls-17" points="744.75 289.87 732.59 277.63 743.61 265.98 758.6 279.2 744.75 289.87"/><polygon class="cls-11" points="743.61 265.98 744.75 289.88 727.25 281.25 743.61 265.98"/><polygon class="cls-16" points="751.98 273.37 744.34 281.25 735.46 273.63 751.98 273.37"/><polygon class="cls-14" points="733.28 271.62 744.14 277.11 756.87 271.04 740.68 257.21 733.28 271.62"/><polygon class="cls-15" points="740.68 257.21 744.14 277.11 730 271.5 740.68 257.21"/><polygon class="cls-16" points="748 263.5 743.25 272.02 735.75 263.75 748 263.5"/><polygon class="cls-17" points="734.57 262.31 742.38 267.05 752.88 260.5 741.45 250.15 734.57 262.31"/><polygon class="cls-11" points="741.45 250.15 742.38 267.05 732.25 261.88 741.45 250.15"/><polygon class="cls-12" points="771.62 325.57 797.36 322.05 818.75 326.75 793.42 331.3 771.62 325.57"/><polygon class="cls-13" points="792.82 327.34 791.07 313.98 798.37 314.16 798.05 326.06 792.82 327.34"/><polygon class="cls-14" points="791.54 317.13 820.5 314.5 805.63 301.63 787.88 294.68 766.2 308.45 791.54 317.13"/><polygon class="cls-15" points="787.88 294.68 791.54 317.13 763.03 308.74 787.88 294.68"/><polygon class="cls-16" points="805.63 301.63 790.31 309.56 779.07 299.66 805.63 301.63"/><polygon class="cls-17" points="789.64 305.38 814.15 299.76 792.38 281.62 773.18 294.16 789.64 305.38"/><polygon class="cls-11" points="792.38 281.62 789.64 305.38 769.81 294.65 792.38 281.62"/><polygon class="cls-16" points="802.6 290.13 790.66 296.46 782.36 288.16 802.6 290.13"/><polygon class="cls-14" points="791.14 292.37 809.58 288.77 795.78 273.03 778.56 284.53 791.14 292.37"/><polygon class="cls-15" points="795.78 273.03 791.14 292.37 775.4 284.83 795.78 273.03"/><polygon class="cls-16" points="802.14 280.23 792.83 285.31 786.57 278.36 802.14 280.23"/><polygon class="cls-17" points="793.87 280.98 805.98 279.88 792.61 262.51 782.14 275.62 793.87 280.98"/><polygon class="cls-11" points="792.61 262.51 793.87 280.98 779.58 275.86 792.61 262.51"/></g><g id="house_copy" data-name="house copy"><polygon class="cls-12" points="427.87 270.61 454.51 290.35 406.94 320.74 336.86 313.96 333.33 278.17 427.87 270.61"/><polygon class="cls-1" points="427.87 270.61 453.3 284.27 401.3 301.68 395.52 302 366.88 288.1 427.87 270.61"/><polygon class="cls-18" points="366.88 288.1 427.87 270.61 427.87 264.14 370.74 269.61 367.93 277.08 366.88 288.1"/><polygon class="cls-16" points="366.88 288.1 427.87 270.61 427.87 264.14 370.74 269.61 367.93 277.08 366.88 288.1"/><polygon class="cls-19" points="346.43 257.27 364.32 246.91 378.65 273.63 390.83 277.08 368.06 235.28 340.69 250.29 346.43 257.27"/><polygon class="cls-7" points="453.3 284.27 447.94 257.27 444.67 258.34 447.94 286.07 401.3 301.68 401.3 272.53 395.52 274.43 395.52 311.02 454.51 290.35 453.3 284.27"/><polygon class="cls-20" points="378.65 273.63 346.43 257.27 364.32 246.91 378.65 273.63"/><polygon class="cls-9" points="370.74 269.61 366.75 287.28 340.3 273.76 346.43 257.27 370.74 269.61"/><polygon class="cls-20" points="343.16 266.05 368.81 278.16 366.88 288.1 339.85 274.99 343.16 266.05"/><polygon class="cls-9" points="391.32 271.01 389.06 298.86 339.85 274.99 336.86 283.05 395.52 311.02 395.52 302 395.52 269.76 391.32 271.01"/><polygon class="cls-21" points="443.22 254.14 443.22 283.42 447.94 286.07 444.75 253.65 443.22 254.14"/><polygon class="cls-22" points="390.83 277.08 454.51 255.11 423.96 221.09 368.06 235.28 390.83 277.08"/><polygon class="cls-23" points="419.53 287.87 425.52 280.17 440.45 281.25 436.52 288.41 419.53 287.87"/><polygon class="cls-2" points="437.53 285.29 436.07 286.02 435.79 280.85 432.3 282.5 432.55 287.19 430.97 287.87 430.97 281.94 423.19 277.14 423.19 271.68 430.36 269.67 432.43 269.24 432.43 275 436.98 278.72 437.53 285.29"/><polygon class="cls-21" points="423.19 271.68 423.19 283.96 424.9 284.79 425.01 279.83 429.63 282.98 429.39 287.19 430.97 287.87 430.97 281.94 424.9 278.19 424.86 271.98 432.43 269.24 431.44 268.86 423.19 271.68"/><polygon class="cls-6" points="430.97 281.94 436.98 278.72 432.43 275 424.9 278.19 430.97 281.94"/><polygon class="cls-21" points="436.07 286.02 434.59 284.92 434.59 281.42 435.79 280.85 436.07 286.02"/><polygon class="cls-2" points="424.9 284.79 426.13 283.88 426.13 280.59 425.01 279.83 424.9 284.79"/></g><g id="Layer_7_copy" data-name="Layer 7 copy"><polygon class="cls-24" points="0 230.62 0 235.04 604.42 11.71 601.49 0 0 230.62"/><polygon class="cls-25" points="107.21 236.24 136.16 231.92 143.49 228.84 149.57 231.42 177.86 229.99 179.95 231.06 182.89 229.73 178.95 226.27 149.29 226.03 135.78 226.56 95.19 233.53 100.27 237.63 107.21 236.24"/><polygon class="cls-19" points="77.66 314.56 107.21 236.24 95.19 233.53 75.75 306.38 76.47 313.96 77.66 314.56"/><polygon class="cls-26" points="100.27 329.3 95.68 316.06 88.3 308.34 98.04 282.51 92.5 275.23 77.66 314.56 100.27 329.3"/><polygon class="cls-27" points="98.04 282.51 183.42 280.62 188.95 305.34 193.94 312.04 198.83 324.02 100.27 329.3 95.68 316.06 88.3 308.34 98.04 282.51"/><polygon class="cls-28" points="88.3 308.34 188.95 305.34 193.94 312.04 95.68 316.06 88.3 308.34"/><polygon class="cls-19" points="193.37 300.83 101.35 304.42 82.22 296.31 83.51 291.15 102.1 299.56 193.37 296.17 193.37 300.83"/><polygon class="cls-26" points="185.88 291.62 193.37 296.17 186.96 296.41 185.88 291.62"/><polygon class="cls-19" points="182.89 229.73 183.42 280.62 177.86 271.85 177.86 229.99 182.89 229.73"/><polygon class="cls-18" points="134.57 221.7 136.16 231.92 149.57 231.42 149.86 221.7 134.57 221.7"/><polygon class="cls-28" points="102.1 299.56 101.35 304.42 193.37 300.83 193.37 296.17 102.1 299.56"/><polygon class="cls-28" points="136.16 231.92 132.8 227.05 135.34 226.63 136.16 231.92"/><polygon class="cls-28" points="92.5 275.23 177.86 271.85 183.42 280.62 98.04 282.51 92.5 275.23"/><polygon class="cls-14" points="149.86 224.2 114.29 224.2 112.76 193.38 109.93 187.18 110.39 182.29 119.27 179.02 123.32 183.28 115.89 186.13 117.79 191.52 119.11 219.19 149.86 219.19 149.86 224.2"/></g><g id="stars_copy" data-name="stars copy"><polygon class="cls-29" points="97.28 46.08 101.87 46.2 104.65 40.76 106.7 46.57 112.01 46.57 107.66 50.32 108.21 54.8 103.68 51.65 99.22 53.83 101.03 49.11 97.28 46.08"/><polygon class="cls-29" points="284.77 46.87 281.97 50.27 277.64 49.11 280.3 52.62 277.4 56.55 282.11 55.6 284.49 58.82 284.96 54.59 289.31 52.33 285.25 51.05 284.77 46.87"/><polygon class="cls-29" points="214.43 125.56 213.75 129.92 209.43 131.13 213.51 132.79 213.03 137.65 216.59 134.43 220.28 135.98 218.52 132.1 221.11 127.94 216.97 128.91 214.43 125.56"/><polygon class="cls-29" points="37.55 121.39 36.87 125.75 32.55 126.97 36.63 128.63 36.15 133.48 39.71 130.26 43.4 131.81 41.64 127.94 44.23 123.78 40.09 124.75 37.55 121.39"/><polygon class="cls-29" points="402.89 105.42 407.48 105.54 410.25 100.1 412.31 105.91 417.62 105.91 413.27 109.66 413.81 114.14 409.29 110.99 404.82 113.17 406.63 108.45 402.89 105.42"/><polygon class="cls-29" points="740.82 53.88 745.41 54 748.18 48.56 750.24 54.37 755.55 54.37 751.2 58.12 751.75 62.6 747.22 59.45 742.75 61.63 744.56 56.91 740.82 53.88"/><polygon class="cls-29" points="317.06 28.84 321.51 27.72 322.7 21.73 326.25 26.76 331.37 25.32 328.2 30.11 329.94 34.27 324.73 32.47 321.02 35.78 321.48 30.74 317.06 28.84"/><polygon class="cls-29" points="455.6 101.24 460.18 101.36 462.95 95.92 465.01 101.73 470.32 101.73 465.98 105.48 466.52 109.95 461.99 106.81 457.52 108.99 459.33 104.27 455.6 101.24"/><polygon class="cls-29" points="388.16 180.27 392.75 180.39 395.52 174.94 397.58 180.75 402.89 180.75 398.54 184.5 399.09 188.98 394.56 185.84 390.09 188.01 391.9 183.29 388.16 180.27"/><polygon class="cls-29" points="587.79 29.73 587.12 34.09 582.8 35.31 586.88 36.97 586.4 41.82 589.96 38.6 593.65 40.16 591.89 36.28 594.48 32.12 590.34 33.09 587.79 29.73"/><polygon class="cls-29" points="825.12 67.28 824.45 71.64 820.13 72.85 824.21 74.51 823.72 79.36 827.29 76.15 830.98 77.7 829.22 73.82 831.81 69.66 827.66 70.63 825.12 67.28"/><path class="cls-29" d="M82.2,80.33a2.58,2.58,0,1,1-2.58,2.58,2.58,2.58,0,0,1,2.58-2.58"/><path class="cls-29" d="M160.37,45.56a2.58,2.58,0,1,1-2.57,2.57,2.58,2.58,0,0,1,2.57-2.57"/><path class="cls-29" d="M484.09,23.6a2.58,2.58,0,1,1-2.58,2.58,2.58,2.58,0,0,1,2.58-2.58"/><path class="cls-29" d="M73.78,150.84a2.58,2.58,0,1,1-2.57,2.58,2.59,2.59,0,0,1,2.57-2.58"/><path class="cls-29" d="M177.94,97.87a2.58,2.58,0,1,1-2.57,2.58,2.58,2.58,0,0,1,2.57-2.58"/><path class="cls-29" d="M260,112a2.58,2.58,0,1,1-2.57,2.57A2.57,2.57,0,0,1,260,112"/><path class="cls-29" d="M443,131.24a2.57,2.57,0,1,1-2.58,2.57,2.57,2.57,0,0,1,2.58-2.57"/><path class="cls-29" d="M324.21,65a2.58,2.58,0,1,1-2.57,2.58A2.59,2.59,0,0,1,324.21,65"/><path class="cls-29" d="M538.29,70.64a2.58,2.58,0,1,1-2.58,2.57,2.57,2.57,0,0,1,2.58-2.57"/><path class="cls-29" d="M374,125.13a2.58,2.58,0,1,1-2.58,2.57,2.57,2.57,0,0,1,2.58-2.57"/><path class="cls-29" d="M797.38,33.89a2.58,2.58,0,1,1-2.58,2.57,2.57,2.57,0,0,1,2.58-2.57"/><path class="cls-29" d="M575.2,156.08a2.58,2.58,0,1,1-2.58,2.57,2.57,2.57,0,0,1,2.58-2.57"/><path class="cls-2" d="M538.29,110.74,492,103.5Z"/><polygon class="cls-3" points="342.82 36.7 366.43 21.21 422.8 29.05 438.51 23.19 462.96 37.81 438.51 47.9 356.51 45.42 342.82 36.7"/><polygon class="cls-30" points="438.51 47.9 462.96 37.81 431.15 40.87 342.82 36.7 356.51 45.42 438.51 47.9"/><path class="cls-8" d="M215.27,69.44a23.89,23.89,0,0,1,16.51-22.71,23.88,23.88,0,1,0,0,45.42A23.88,23.88,0,0,1,215.27,69.44Z"/></g><g id="character_copy" data-name="character copy"><polygon class="cls-18" points="462.96 228.32 510.47 37.81 506.25 35.94 496.15 40.39 458.34 208.19 462.96 228.32"/><polygon class="cls-11" points="496.15 40.39 604.42 20.91 638.34 18.13 706.83 19.31 713.72 22.57 719.07 19.52 706.05 12.49 637.3 10.41 604.42 11.71 601.49 13.88 597.18 12.92 511.25 27.33 496.15 40.39"/><polygon class="cls-13" points="510.21 252.51 506.83 232.02 488.86 213.01 499.54 149.73 480.77 156.36 462.96 228.32 510.21 252.51"/><polygon class="cls-11" points="499.54 149.73 720.37 144.78 733.83 205.63 731.03 216.42 745.98 222.13 745.98 243.13 510.21 252.51 506.83 232.02 506.07 220.14 488.86 213.01 499.54 149.73"/><polygon class="cls-31" points="488.86 213.01 733.83 205.63 745.98 222.13 506.83 232.02 488.86 213.01"/><polygon class="cls-13" points="726.36 171.87 744.59 183.06 728.96 183.65 726.36 171.87"/><polygon class="cls-18" points="719.07 19.52 733.84 176.46 726.36 171.87 720.37 144.78 706.83 19.31 719.07 19.52"/><polygon class="cls-31" points="604.74 20.88 597.18 12.92 603.36 11.89 607.61 15.63 604.74 20.88"/><polygon class="cls-18" points="601.49 0 604.74 20.88 637.99 23.69 638.68 0 601.49 0"/><path class="cls-16" d="M695.76,206.78l-1.24-21.84L698,145.28l-174.7,3.92-10.46,18.06,9.62,24.14-1.82,12v8.68l5.9,4.36,40.55,13.18L562,250.45l112.13-5.64,11.38-20.18,22.4-11.88Zm-98.4-29,14.89,12.77-4,18.89-24.89.75,7.24-21.33Z"/><polygon class="cls-28" points="561.96 250.45 484.48 283.42 478.62 296.83 488.86 320.56 499.61 320.21 509.32 325.42 582.02 293.04 643.74 245.33 561.96 250.45"/><polygon class="cls-12" points="546.9 279.59 593.25 284.36 643.74 245.33 561.96 250.45 550.48 255.47 546.9 279.59"/><polygon class="cls-19" points="479.14 297.01 488.86 320.56 498.58 320.21 509.32 325.42 581.93 293.08 593.25 284.36 510.36 319.52 499.61 318.65 491.81 315.01 484.09 295.21 484.48 283.42 479.14 297.01"/><polygon class="cls-27" points="488.86 320.56 491.81 315.01 510.36 319.52 509.32 325.42 488.86 320.56"/><polygon class="cls-27" points="643.74 245.33 554.51 314.31 550.62 331.76 570.75 349.73 586.46 345.44 598.75 346.09 726.36 243.91 643.74 245.33"/><polygon class="cls-28" points="550.62 331.76 570.75 349.73 586.46 345.44 598.75 346.09 726.36 243.91 720.33 244.02 598.75 341.14 590.98 343.57 573.79 344.52 554.51 328.38 554.51 314.31 550.62 331.76"/><polygon class="cls-12" points="605.51 274.89 612.25 292.78 674.09 279.59 674.09 255.98 720.33 244.02 643.74 245.33 605.51 274.89"/><polygon class="cls-28" points="545.63 134.95 536.44 144.78 537.43 169 571.46 163.16 592.33 152.16 584 132.54 569.85 128.67 545.63 134.95"/><polygon class="cls-32" points="572.97 87.92 573.12 51.5 563.59 51.29 559.72 64.47 572.97 87.92"/><polygon class="cls-33" points="557.72 55.58 568.73 66.13 587.61 111.58 549.35 126.5 525.35 69.6 557.72 55.58"/><path class="cls-34" d="M563.2,52.85l5.47,13.3L543.17,83s-7.9-12.22-7.63-12.87,0-2.46.33-5.06L563.25,53Z"/><polygon class="cls-35" points="500.81 83.41 499.77 87.91 507.18 136.08 509.33 142.21 518.62 94.91 500.81 83.41"/><polygon class="cls-36" points="500.81 83.41 487.55 101.68 509.05 141.8 500.81 83.41"/><polygon class="cls-37" points="558.35 139.94 545.63 134.95 518.81 95.65 525.35 69.6 551.04 126.72 566.4 129.84 565.74 137.81 558.35 139.94"/><polygon class="cls-34" points="538.75 123.89 534.13 117.23 538.75 115.39 538.75 123.89"/><polygon class="cls-34" points="535.67 119.6 531.86 114.18 538.1 109.44 535.67 119.6"/><polygon class="cls-34" points="567.83 119.24 550.67 125.98 547.95 127.19 565.74 137.81 571.46 136.12 567.83 119.24"/><polygon class="cls-38" points="507.1 89.01 501.66 90.45 502.82 97.63 512.71 94.58 507.1 89.01"/><polygon class="cls-36" points="512.47 73.01 507.61 76.32 507.1 89.01 521.12 103.23 531.98 101.83 535.45 99.44 524.11 74.73 512.47 73.01"/><polygon class="cls-37" points="563.7 95.31 546.28 87.59 534.8 87.15 550.66 81.19 559.32 76.95 562.8 73.61 571.01 72.67 567.59 79.57 567.74 93.45 566 95.49 563.7 95.31"/><polygon class="cls-39" points="559.32 76.95 567.74 93.45 563.7 95.31 551.94 79.35 559.32 76.95"/><polygon class="cls-34" points="566.83 96.86 567.74 93.45 563.7 95.31 566.83 96.86"/><polygon class="cls-38" points="576.66 101.35 564.99 101.22 551.61 106.04 565.6 115.29 576.66 101.35"/><polygon class="cls-35" points="558.35 108.89 561.99 111.18 568.12 110.17 570.41 106.7 569.25 106.48 559.15 108.41 558.35 108.89"/><polygon class="cls-40" points="572.95 102.99 554.51 106.55 558.35 108.89 570.41 106.7 572.95 102.99"/><polygon class="cls-35" points="571.01 72.67 562.41 71.64 559.32 76.95 571.01 72.67"/><polygon class="cls-33" points="529.36 97 521.12 103.23 532.14 114.54 538.1 109.44 529.36 97"/><polygon class="cls-34" points="532.32 105.07 529.98 100.8 525.28 103.61 532.32 105.07"/><path class="cls-38" d="M530.43,109.44l8.48,5.91-3.74,9.49-8.64-6.7,3.74-8.65Zm5.87,6.86L534,120.8l-4.38-2.54,2.2-5h0Z"/><polygon class="cls-18" points="573.12 51.5 559.21 37.08 551.95 40.59 515.42 68.35 512.47 73.01 520 74.81 568.14 56.83 573.12 51.5"/><polygon class="cls-36" points="559.21 37.08 513.98 52.09 512.47 73.01 559.21 37.08"/><polygon class="cls-24" points="553.49 81.54 573.12 51.5 512.47 73.01 512.71 94.58 553.49 81.54"/><path class="cls-35" d="M564.65,82.44a2.62,2.62,0,1,0,1.87-3.27,2.67,2.67,0,0,0-1.87,3.27"/><path class="cls-35" d="M548.06,90.18a2.67,2.67,0,0,0,3.27,1.87,2.63,2.63,0,0,0,1.84-3.22A2.6,2.6,0,0,0,550,87a2.65,2.65,0,0,0-1.93,3.19"/><polygon class="cls-19" points="581.05 191.4 550.62 194.52 537.43 169 565.16 165.75 578.67 156.35 588.31 166.15 581.05 191.4"/><polygon class="cls-38" points="536.44 144.78 559.7 162.17 537.43 169 536.44 144.78"/><polygon class="cls-38" points="550.62 194.52 581.05 191.4 571.9 210.51 550.62 194.52"/><polygon class="cls-19" points="593.25 226.56 550.62 194.52 542.96 211.38 551.97 223.86 575.49 230.98 593.25 226.56"/><polygon class="cls-26" points="587.2 279.59 579.48 255.72 572.91 252.51 567.08 253.36 564.21 261.01 587.2 279.59"/><polygon class="cls-38" points="593.25 226.56 583.91 246.35 574.45 248.75 570.75 243.6 575.49 230.98 593.25 226.56"/><polygon class="cls-33" points="570.75 243.6 583.91 246.35 579.48 255.72 567.08 253.36 570.75 243.6"/><polygon class="cls-26" points="581.05 191.4 609.33 223.86 593.25 226.56 571.9 210.51 581.05 191.4"/><polygon class="cls-38" points="583.91 246.35 595.04 245.95 609.33 223.86 593.25 226.56 583.91 246.35"/><polygon class="cls-37" points="579.48 255.72 591.46 251.47 595.04 245.95 583.91 246.35 579.48 255.72"/><polygon class="cls-38" points="609.11 257.19 582.02 263.57 579.48 255.72 591.46 251.47 609.11 257.19"/><polygon class="cls-28" points="610.02 261.65 609.11 257.19 582.02 263.57 583.38 267.79 610.02 261.65"/><polygon class="cls-40" points="558.35 139.94 571.46 144.22 571.46 136.12 558.35 139.94"/><polygon class="cls-19" points="571.46 144.22 543.57 131.93 542.96 137.81 571.46 144.22"/><polygon class="cls-19" points="571.46 144.22 578.67 156.35 595.63 151.47 584 132.54 576.1 129.35 572.54 135.28 571.46 144.22"/><polygon class="cls-27" points="587.2 279.59 584.28 283.42 560.39 265.88 564.21 261.01 587.2 279.59"/><polygon class="cls-25" points="571.46 144.22 571.46 136.12 573.12 121.17 576.1 129.35 571.46 144.22"/><polygon class="cls-38" points="573.12 121.17 567.83 119.24 571.28 136.17 573.12 121.17"/><polygon class="cls-25" points="546.9 187.34 584.28 180.14 581.05 191.4 550.62 194.52 546.9 187.34"/><polygon class="cls-27" points="574.86 181.96 572.54 192.27 581.05 191.4 585.93 179.61 574.86 181.96"/><polygon class="cls-38" points="574.86 181.96 578.67 156.35 591.77 164.27 585.93 179.61 574.86 181.96"/><polygon class="cls-27" points="537.43 169 592.33 152.16 598.58 160.58 558.35 182.37 537.43 169"/><polygon class="cls-19" points="542.96 137.81 520.63 145.47 517.16 141.46 543.57 131.93 542.96 137.81"/><polygon class="cls-19" points="520.63 145.47 537.43 169 536.44 144.78 542.96 137.81 520.63 145.47"/><polygon class="cls-38" points="517.16 141.46 540.06 126.78 543.57 131.93 517.16 141.46"/><polygon class="cls-27" points="542.96 211.38 548.07 208.98 553.04 216.42 551.97 223.86 542.96 211.38"/><polygon class="cls-28" points="579.02 245.33 575.01 244.49 581.05 229.6 583.91 228.83 579.02 245.33"/><polygon class="cls-27" points="556.3 207.43 559.28 201.03 556.24 198.75 552.6 208.13 581.05 229.6 583.89 228.88 583.91 228.83 556.3 207.43"/><polygon class="cls-38" points="582.02 263.57 576.88 264.84 577.23 266.05 582.53 265.14 582.02 263.57"/><polygon class="cls-38" points="583.38 267.79 578.62 268.82 578.62 267.79 582.82 266.05 583.38 267.79"/><polygon class="cls-41" points="593.25 256.44 596.98 253.25 595.3 252.71 591.92 255.72 593.25 256.44"/><polygon class="cls-41" points="596.62 257.19 599.93 254.22 598.29 253.69 594.64 256.7 596.62 257.19"/><polygon class="cls-7" points="588.88 171.87 597.36 177.76 619.41 164.27 594.29 150.26 588.88 171.87"/><polygon class="cls-7" points="647.51 115.29 625.67 123.52 637.65 165.18 631.22 188.79 655.18 195.56 687.17 190.53 697.99 145.28 687.99 115.39 647.51 115.29"/><polygon class="cls-42" points="687.99 115.39 697.99 145.28 666.98 172.6 650.19 150.26 687.99 115.39"/><polygon class="cls-43" points="683.91 57.02 700.55 84.37 687.99 115.39 652.54 131.6 657.61 106.48 663.4 98.96 683.91 57.02"/><polygon class="cls-44" points="625.67 103.23 637.62 46.02 650.84 55.04 683.91 57.02 670.6 110.34 625.67 103.23"/><polygon class="cls-42" points="704.66 74.23 683.91 57.02 685.21 74.3 687.5 75.8 683.91 85.54 688.6 87.88 692.76 79.25 700.55 84.37 704.66 74.23"/><polygon class="cls-44" points="687.17 91.66 695.76 96.21 700.55 84.37 692.76 79.25 687.17 91.66"/><polygon class="cls-45" points="687.17 91.66 693.17 102.6 695.76 96.21 687.17 91.66"/><polygon class="cls-42" points="629.31 39 640.16 48.17 634.1 62.88 629.31 39"/><polygon class="cls-29" points="639.31 89.41 661.06 90.2 655.12 97.89 641.66 97.89 639.31 89.41"/><path class="cls-46" d="M655.61,98.89H640.9L638,88.36l25,.92Zm-13.19-2h12.2l4.46-5.76-18.44-.67Z"/><polygon class="cls-47" points="648.88 70.69 653.83 71.34 652.45 83.29 646.45 82.92 648.88 70.69"/><polygon class="cls-45" points="648.88 85.6 652.45 83.29 646.45 82.92 648.88 85.6"/><polygon class="cls-45" points="644.6 106.23 675.49 111.18 652.54 131.6 644.6 106.23"/><polygon class="cls-43" points="648.88 70.69 647.58 66.66 638.6 66.66 647.03 79.98 648.88 70.69"/><polygon class="cls-43" points="653.83 71.34 657.61 67.57 669.2 70.04 652.45 83.29 653.83 71.34"/><polygon class="cls-20" points="657.61 67.57 660.87 64.79 669.2 70.04 657.61 67.57"/><polygon class="cls-20" points="647.58 66.66 647.58 62.88 638.6 66.66 647.58 66.66"/><path class="cls-48" d="M645.21,73.3a2.77,2.77,0,1,1-2.77-2.77A2.76,2.76,0,0,1,645.21,73.3Z"/><path class="cls-48" d="M663.31,75.58a2.77,2.77,0,1,1-2.77-2.77A2.76,2.76,0,0,1,663.31,75.58Z"/><polygon class="cls-45" points="691.46 87.73 693.86 82.92 697.58 85.33 691.46 87.73"/><polygon class="cls-9" points="640.16 48.17 650.84 55.04 683.91 57.02 704.66 74.23 703.25 57.37 690.08 41.4 646.85 31.33 629.31 39 640.16 48.17"/><polygon class="cls-7" points="683.91 57.02 703.25 57.37 704.66 74.23 683.91 57.02"/><polygon class="cls-20" points="646.85 31.33 650.84 55.04 690.08 41.4 646.85 31.33"/><polygon class="cls-42" points="625.67 123.52 602.66 143.61 613.69 150.62 622.37 152.16 638.69 167.65 625.67 123.52"/><polygon class="cls-49" points="597.36 134.12 596.62 133.59 587.3 126.78 574.83 126 576.1 129.35 584 132.54 586.35 138.08 588.64 141.46 588.64 141.46 597.36 134.12"/><polygon class="cls-28" points="622.37 152.16 597.36 134.12 588.64 141.46 588.64 141.46 594.63 150.26 622.37 152.16"/><polygon class="cls-50" points="588.64 141.46 579.48 138.7 580.7 135.15 597.36 134.12 588.64 141.46"/><polygon class="cls-44" points="622.37 152.16 614.65 146.59 608.04 160.58 619.41 164.27 622.37 152.16"/><polygon class="cls-22" points="650.19 150.26 622.37 152.16 619.41 164.27 666.98 172.6 650.19 150.26"/><polygon class="cls-20" points="631.22 188.79 609.33 223.86 622.37 253.69 608.04 274.99 643.91 261.01 638.69 250.83 640.71 226.48 672.95 192.77 655.18 195.56 631.22 188.79"/><polygon class="cls-42" points="631.22 188.79 653.84 212.75 672.95 192.77 655.18 195.56 631.22 188.79"/><polygon class="cls-42" points="609.33 223.86 640.71 226.48 638.69 250.83 622.37 253.69 609.33 223.86"/><polygon class="cls-42" points="608.04 274.99 643.91 261.01 638.69 250.83 622.37 253.69 608.04 274.99"/><polygon class="cls-22" points="608.04 274.99 610.04 279.59 641.51 267.44 643.91 261.01 608.04 274.99"/><polygon class="cls-22" points="638.69 274.99 638.69 279.59 661.82 279.59 666.98 272.22 666.98 266.05 638.69 274.99"/><polygon class="cls-9" points="687.17 190.53 690.16 214.17 671.41 228.83 664.64 248.75 666.98 266.05 661.82 273.43 638.69 274.99 647.71 250.83 640.71 226.48 672.95 192.77 687.17 190.53"/><polygon class="cls-42" points="671.41 228.83 640.71 226.48 647.71 250.83 664.64 248.75 671.41 228.83"/><polygon class="cls-42" points="664.64 248.75 661.82 273.43 666.98 266.05 664.64 248.75"/><polygon class="cls-7" points="661.82 273.43 661.82 279.59 666.98 272.22 666.98 266.05 661.82 273.43"/><polygon class="cls-51" points="615.72 263.57 622.97 264.81 623.84 262.49 617.09 261.54 615.72 263.57"/><polygon class="cls-51" points="618.09 260.05 624.45 261.01 625.4 258.5 619.78 257.54 618.09 260.05"/><polygon class="cls-42" points="647.71 259.98 658.13 259.98 658.13 262.04 647.02 262.04 647.71 259.98"/><polygon class="cls-42" points="646.74 263.86 658.13 264.14 658.13 266.05 645.63 266.05 646.74 263.86"/><polygon class="cls-22" points="666.98 172.6 672.95 192.77 687.17 190.53 697.99 145.28 666.98 172.6"/><polygon class="cls-37" points="591.77 164.27 598.58 160.58 592.33 152.16 585.57 154.24 591.77 164.27"/><polygon class="cls-25" points="585.56 154.24 578.67 156.35 588.31 166.15 591.77 164.27 585.56 154.24"/><polygon class="cls-49" points="612.19 153.38 608.04 160.58 603.38 157.54 612.19 153.38"/><polygon class="cls-33" points="592.33 152.16 600.83 143.33 608.04 142.85 612.19 153.38 598.58 160.58 592.33 152.16"/><polygon class="cls-37" points="600.83 143.33 612.19 153.38 614.65 146.59 608.83 138.25 600.83 143.33"/><polygon class="cls-18" points="744.59 194.52 520.63 203.38 474.08 183.41 477.22 170.71 522.45 191.4 744.59 183.06 744.59 194.52"/><polygon class="cls-31" points="522.45 191.4 520.63 203.38 744.59 194.52 744.59 183.06 522.45 191.4"/><polygon class="cls-25" points="573.79 344.52 570.75 349.73 598.75 346.09 598.75 341.14 573.79 344.52"/></g></g></svg>