<svg xmlns="http://www.w3.org/2000/svg" viewBox="0 0 900 350"><defs><style>.cls-1{fill:#cfcecd;}.cls-1,.cls-10,.cls-11,.cls-12,.cls-13,.cls-14,.cls-15,.cls-16,.cls-17,.cls-18,.cls-19,.cls-2,.cls-20,.cls-21,.cls-22,.cls-23,.cls-24,.cls-26,.cls-27,.cls-3,.cls-4,.cls-5,.cls-6,.cls-7,.cls-8,.cls-9{fill-rule:evenodd;}.cls-2{fill:#dddddc;}.cls-3{fill:#a3a2a2;}.cls-4{fill:#c4c4c3;}.cls-27,.cls-5{fill:#2b2b2b;}.cls-5{opacity:0.1;}.cls-6{fill:#ececeb;}.cls-7{fill:#f1bc68;}.cls-8{fill:#e1a842;}.cls-9{fill:#bb8e2d;}.cls-10{fill:#846400;}.cls-11{fill:#9d7700;}.cls-12{fill:#f3d65d;}.cls-13{fill:#e4c728;}.cls-14{fill:#8f8f8f;}.cls-15{fill:#737474;}.cls-16{fill:#cbac14;}.cls-17{fill:#debca4;}.cls-18{fill:#474747;}.cls-19{fill:#c2977b;}.cls-20,.cls-25{fill:#b48a00;}.cls-21{fill:#be8e00;}.cls-22{fill:#755800;}.cls-23{fill:#8a6651;}.cls-24{fill:#fff;}.cls-26{fill:#e7c9b5;}</style></defs><title>explorers_Adventurer_ISFP_career_path</title><g id="ILLUSTRATION_copy" data-name="ILLUSTRATION copy"><g id="wall_copy" data-name="wall copy"><polygon class="cls-1" points="321.19 50.74 421.12 22.82 900 0.42 884.25 297.02 415.12 261.04 321.19 50.74"/><polygon class="cls-2" points="0 0 10 283.03 415.12 250.05 421.12 22.82 0 0"/><polygon class="cls-3" points="415.12 27.15 420.99 42.19 898.25 30.15 900 0.42 421.12 22.82 415.12 27.15"/><polygon class="cls-4" points="1.08 30.15 420.99 43.19 421.12 22.82 0 0 1.08 30.15"/></g><g id="poster_copy" data-name="poster copy"><polygon class="cls-5" points="766.21 60.14 773.72 46.15 784.72 132.35 710.7 130.1 713.95 64.14 766.21 60.14"/><polygon class="cls-6" points="701.2 46.64 701.7 124.61 774.22 128.11 773.72 46.15 701.2 46.64"/><polygon class="cls-2" points="717.95 57.89 754.21 58.39 753.96 63.26 717.45 63.14 717.95 57.89"/><polygon class="cls-2" points="709.45 73.38 739.71 74.01 739.46 78.38 709.2 77 709.45 73.38"/><polygon class="cls-2" points="708.95 86.5 739.21 87.13 738.96 91.5 708.7 90.12 708.95 86.5"/><polygon class="cls-2" points="708.7 99.37 738.96 99.99 738.71 104.37 708.45 102.99 708.7 99.37"/><polygon class="cls-2" points="708.57 111.99 738.83 112.61 738.58 116.99 708.32 115.61 708.57 111.99"/><polygon class="cls-2" points="749.08 73.88 752.83 81 763.84 71.76 753.46 76.5 749.08 73.88"/><polygon class="cls-2" points="750.08 87.38 760.34 87.75 759.71 92 749.83 91.12 750.08 87.38"/><polygon class="cls-2" points="749.21 101.12 759.46 101.49 758.84 105.74 748.96 104.87 749.21 101.12"/><polygon class="cls-2" points="748.71 113.36 758.96 113.74 758.34 117.98 748.46 117.11 748.71 113.36"/></g><g id="shadows_copy" data-name="shadows copy"><polygon class="cls-5" points="58.35 288.7 1 294.69 196.39 328.01 285.75 322.01 461.13 350 593.5 331.68 459.79 308.02 313.75 257.38 92.36 256.71 58.35 288.7"/><polygon class="cls-5" points="575.16 278.03 473.63 293.03 797.89 321.35 883.91 296.69 870.58 138.77 575.16 278.03"/></g><g id="locker_copy" data-name="locker copy"><polygon class="cls-7" points="648.65 222.75 551.74 140.97 682.03 133.44 870.58 139.43 778.94 213.07 648.65 222.75"/><polygon class="cls-8" points="730.49 220.6 797.22 308.52 872.24 295.53 870.58 139.43 798.55 146.76 730.49 220.6"/><polygon class="cls-9" points="551.74 140.97 548.15 289.36 797.22 308.52 798.55 146.76 551.74 140.97"/><polygon class="cls-10" points="564.82 154.09 562.82 278.7 781.22 293.03 781.88 165.42 564.82 154.09"/><polygon class="cls-11" points="573.49 217.73 564.49 209.73 616.17 201.57 618.11 156.84 628.51 157.26 640.51 213.73 685.3 205.62 686.86 160.59 698.53 161.09 711.53 218.4 758.71 209.07 757.71 164.09 781.88 165.42 781.84 227.18 573.49 217.73"/><polygon class="cls-11" points="631.01 224.23 615.5 219.73 613.17 270.87 562.82 278.7 626.51 282.87 631.01 224.23"/><polygon class="cls-11" points="704.07 227.31 685.07 225.56 683.69 273.66 637.43 283.53 699.69 287.65 704.07 227.31"/><polygon class="cls-11" points="710.7 288.28 781.22 293.03 781.22 235.39 759.21 230.39 758.21 282.03 710.7 288.28"/><polygon class="cls-9" points="628.84 152.09 624.17 287.36 637.18 287.03 641.85 152.09 628.84 152.09"/><polygon class="cls-9" points="698.86 157.43 696.19 292.03 710.53 293.69 711.86 157.43 698.86 157.43"/><polygon class="cls-9" points="561.82 209.73 784.72 222.56 783.55 235.72 560.82 223.06 561.82 209.73"/></g><g id="vas_copy" data-name="vas copy"><polygon class="cls-9" points="741.99 196.12 735.08 189.22 757.82 186.86 779.05 191.74 747.75 194.47 741.99 196.12"/><polygon class="cls-7" points="744.05 193.46 756.01 216.52 770.67 215.18 779.05 191.74 756.31 191.91 744.05 193.46"/><polygon class="cls-8" points="735.08 189.22 740.45 213.88 756.01 216.52 756.31 191.91 735.08 189.22"/><polygon class="cls-12" points="769.6 201.61 756.23 197.41 751.87 201.31 756.08 206.71 769.6 201.61"/><polygon class="cls-13" points="756.23 197.41 745.45 200.12 756.14 206.62 756.23 197.41"/><polygon class="cls-12" points="770.05 206.07 768.21 212.9 762.11 212.61 770.05 206.07"/><polygon class="cls-9" points="658.13 257.17 651.22 250.27 673.97 247.91 695.19 252.8 663.69 266.77 658.13 257.17"/><polygon class="cls-7" points="659.98 265.76 671.49 282.57 686.14 281.23 695.19 252.8 672.45 252.97 659.98 265.76"/><polygon class="cls-8" points="651.22 250.27 655.93 279.94 671.49 282.57 672.45 252.97 651.22 250.27"/><polygon class="cls-12" points="682.27 276.22 672.11 270.02 669.75 277.46 672.11 280.12 682.27 276.22"/><polygon class="cls-13" points="672.11 270.02 664.33 270.85 672.11 280.12 672.11 270.02"/><polygon class="cls-12" points="686.15 260.98 688.71 268.16 678.69 267.23 686.15 260.98"/><polygon class="cls-9" points="661.26 182.17 654.35 175.26 677.09 172.91 698.32 177.79 666.82 191.76 661.26 182.17"/><polygon class="cls-7" points="663.11 190.75 675.07 213.81 689.73 212.47 698.32 177.79 675.58 177.96 663.11 190.75"/><polygon class="cls-8" points="654.35 175.26 659.51 211.18 675.07 213.81 675.58 177.96 654.35 175.26"/><polygon class="cls-12" points="685.68 190.19 675.24 195.02 672.88 202.45 675.24 205.12 685.68 190.19"/><polygon class="cls-13" points="675.24 195.02 667.49 206.13 675.24 205.12 675.24 195.02"/><polygon class="cls-13" points="660.25 182.92 670.52 191.34 660.5 190.41 660.25 182.92"/><polygon class="cls-9" points="589.99 187.37 583.08 180.47 605.82 178.11 627.05 183 596.67 193.59 589.99 187.37"/><polygon class="cls-7" points="592.96 192.59 604.68 209.78 619.33 208.43 627.05 183 604.31 183.16 592.96 192.59"/><polygon class="cls-8" points="583.08 180.47 589.12 207.14 604.68 209.78 604.31 183.16 583.08 180.47"/><polygon class="cls-12" points="608.86 193.3 605.29 189.53 602.49 198.41 604.84 201.08 608.86 193.3"/><polygon class="cls-13" points="605.29 189.53 597.09 202.09 604.84 201.08 605.29 189.53"/><polygon class="cls-12" points="612.71 191.53 622.59 189.01 622.4 192.26 612.71 191.53"/><polygon class="cls-9" points="583.94 249.59 577.03 242.69 599.78 240.34 621.01 245.22 590.04 254.77 583.94 249.59"/><polygon class="cls-7" points="585.8 258.18 598.3 276.83 612.96 275.48 621.01 245.22 598.26 245.38 585.8 258.18"/><polygon class="cls-8" points="577.03 242.69 582.58 275.45 598.3 276.83 598.26 245.38 577.03 242.69"/><polygon class="cls-13" points="588.01 257.95 598.45 262.78 600.81 270.21 598.45 272.88 588.01 257.95"/><polygon class="cls-12" points="598.45 262.78 606.2 273.89 598.45 272.88 598.45 262.78"/><polygon class="cls-13" points="582.93 250.35 593.75 254.35 583.18 257.84 582.93 250.35"/><polygon class="cls-9" points="739.8 256.51 732.89 249.6 758.54 246.22 776.86 252.13 745.36 266.1 739.8 256.51"/><polygon class="cls-7" points="741.65 265.09 753.61 288.15 768.27 286.81 776.86 252.13 754.12 252.3 741.65 265.09"/><polygon class="cls-8" points="732.89 249.6 738.06 285.52 753.61 288.15 754.12 252.3 732.89 249.6"/><polygon class="cls-12" points="765.23 266.5 754.03 258.49 751.67 265.92 754.03 268.59 765.23 266.5"/><polygon class="cls-13" points="754.03 258.49 746.35 261 754.03 268.59 754.03 258.49"/><polygon class="cls-13" points="741.91 270.01 752.19 278.43 742.17 277.5 741.91 270.01"/></g><g id="table_copy" data-name="table copy"><polygon class="cls-10" points="254.07 268.04 244.4 289.69 212.73 290.03 214.39 269.7 254.07 268.04"/><polygon class="cls-11" points="44.96 280.72 59.03 300.28 85.74 297.84 97.56 268.9 44.96 280.72"/><polygon class="cls-11" points="352.65 265.44 348.37 298.14 336.34 298.77 330.34 281.03 219.6 277.66 231.7 145.63 358.77 190.25 352.65 265.44"/><polygon class="cls-8" points="158.74 279.09 198.7 315.77 222.36 313.42 237.73 225.73 333.08 210.43 348.37 298.14 368.36 296.21 373.25 169.06 152.21 178.84 158.74 279.09"/><polygon class="cls-9" points="34.76 172.32 34.76 297.02 59.03 300.28 64.22 281.33 164.55 286.22 171.89 312.2 198.7 315.77 199.98 192.9 34.76 172.32"/><polygon class="cls-14" points="227.4 148.85 390.29 156.37 353.16 191.03 199.72 202.4 191.38 160.67 227.4 148.85"/><polygon class="cls-15" points="205.9 154.76 19.36 153.69 19.89 180.55 199.72 202.4 200.52 167.12 205.9 154.76"/><polygon class="cls-3" points="200.52 167.12 390.29 156.37 377.87 152.32 231.7 145.63 19.36 153.69 200.52 167.12"/><polygon class="cls-11" points="63.31 208.18 63.61 258.41 167.71 266.46 167.38 225.06 63.31 208.18"/></g><g id="computer_copy" data-name="computer copy"><polygon class="cls-5" points="211.31 151.84 174.67 162.21 101.15 153.47 162.92 148.72 211.31 151.84"/><polygon class="cls-5" points="323.84 157.34 216.56 164.71 184.8 160.22 230.94 149.59 323.84 157.34"/><polygon class="cls-9" points="177.96 150.47 156.9 156.63 137.58 154.54 146.15 137.84 156.95 137.43 177.96 150.47"/><polygon class="cls-16" points="175.71 136.21 188.76 155.16 156.9 156.63 151.04 138.86 175.71 136.21"/><polygon class="cls-5" points="175.71 136.21 183.51 147.46 140.38 149.6 145.43 138.75 175.71 136.21"/><polygon class="cls-9" points="134.52 82.01 110.56 69.38 101.69 77.12 104.96 144.15 114.54 144.15 134.52 82.01"/><polygon class="cls-16" points="110.56 69.38 211.19 68.36 216.09 137.23 114.54 144.15 110.56 69.38"/><polygon class="cls-6" points="122.19 78.54 125.55 133.86 205.69 128.97 201.71 76.1 122.19 78.54"/><polygon class="cls-9" points="233.47 153.17 200.44 151.49 195.02 159.41 217.41 162.49 233.47 153.17"/><polygon class="cls-16" points="294.49 150.42 305.5 150.57 306.72 156.99 217.41 162.49 217.72 156.99 294.49 150.42"/><polygon class="cls-13" points="200.44 151.49 266.5 143.39 305.5 150.57 217.72 156.99 200.44 151.49"/><polygon class="cls-16" points="266.4 145.32 261.43 146.24 265.71 148 271.83 146.7 266.4 145.32"/><polygon class="cls-16" points="274.81 148.38 268.08 149.53 272.9 151.13 281.92 149.99 274.81 148.38"/><polygon class="cls-16" points="261.13 148.46 254.4 149.3 253.25 147.39 257.84 146.78 261.13 148.46"/><polygon class="cls-16" points="263.5 150.06 255.24 150.67 255.93 152.58 265.79 151.74 263.5 150.06"/><polygon class="cls-16" points="225.57 152.74 251.72 150.75 251.64 152.97 228.09 154.65 225.57 152.74"/><polygon class="cls-16" points="222.59 152.89 225.87 154.8 220.83 155.03 217.69 154.04 222.59 152.89"/><polygon class="cls-16" points="221.44 151.67 216.7 152.89 214.18 151.13 220.06 150.75 221.44 151.67"/><polygon class="cls-16" points="224.12 151.51 230.69 150.98 228.78 149.53 222.51 150.29 224.12 151.51"/><polygon class="cls-16" points="231.99 149.15 237.12 148.69 238.41 150.22 233.29 150.44 231.99 149.15"/><polygon class="cls-16" points="240.33 148.38 245.07 147.92 246.29 149.3 241.32 149.76 240.33 148.38"/><polygon class="cls-16" points="246.83 147.77 251.64 147.24 251.64 148.76 248.05 148.99 246.83 147.77"/><polygon class="cls-8" points="135.82 93.33 158.71 92.49 153.9 113.1 142.74 113.67 135.82 93.33"/><polygon class="cls-7" points="151.64 102.18 157.01 99.59 155.98 104.3 151.64 102.18"/><polygon class="cls-7" points="140.43 106.89 148.77 107.27 141.94 111.22 140.43 106.89"/><polygon class="cls-3" points="164.55 89.43 186.59 88.02 186.73 91.69 164.55 92.67 164.55 89.43"/><polygon class="cls-3" points="164.72 99.19 198.82 97.37 199.19 100.65 164.79 102.44 164.72 99.19"/><polygon class="cls-3" points="165.28 107.76 199.39 105.93 199.76 109.22 165.36 111.01 165.28 107.76"/><polygon class="cls-3" points="165.85 116.33 199.95 114.5 200.32 117.78 165.92 119.57 165.85 116.33"/></g><g id="main_character_copy_2" data-name="main character copy 2"><polygon class="cls-16" points="531.29 209.66 539.4 239.29 528.48 241.16 523.98 216.73 531.29 209.66"/><polygon class="cls-17" points="455.13 182.37 468.94 181.75 480.1 199.84 465.43 221.2 443.27 196.09 455.13 182.37"/><polygon class="cls-17" points="364.12 179.06 359.13 181.87 353.16 191.03 380.97 216.8 388.77 183.74 364.12 179.06"/><polygon class="cls-18" points="359.13 181.87 377.87 152.32 404.38 182.49 394.71 201.83 359.13 181.87"/><polygon class="cls-17" points="347.24 304.21 338.98 296.23 324.98 292.39 323.7 305.01 328.21 311.4 335.1 318.4 343.95 314.42 347.24 304.21"/><polygon class="cls-19" points="335.82 317.84 321.25 329.23 324.98 292.39 334.47 294.99 324.14 300.68 335.82 317.84"/><polygon class="cls-17" points="349.48 299.11 351.83 303.93 350.94 311.28 343.95 314.42 338.98 296.23 349.48 299.11"/><polygon class="cls-13" points="437.02 291.14 401.17 283.19 417.05 318.67 434.93 321.92 444.76 305.08 437.02 291.14"/><polygon class="cls-13" points="375.75 313.55 364.66 329.79 342.98 321.35 347.66 293.31 369.17 291.31 375.75 313.55"/><polygon class="cls-10" points="454.15 281.57 478.46 294.14 451.86 323.63 434.93 321.92 410.87 286.98 454.15 281.57"/><polygon class="cls-20" points="419.71 252.46 447.85 251 478.46 294.14 434.93 321.92 388.08 280.74 419.71 252.46"/><polygon class="cls-10" points="393.05 307.46 416.95 318.98 390.17 339.29 364.66 329.79 393.05 307.46"/><polygon class="cls-21" points="416.95 318.98 411.68 258.33 397.17 234.34 362.5 248.33 359.66 271.82 364.66 329.79 416.95 318.98"/><polygon class="cls-18" points="435.89 151.35 444.68 155.3 449.23 160.6 455.92 160.36 469.07 181.87 451.92 198.01 372.76 192.09 378.7 184.28 381.6 175.32 377.87 152.32 384.72 152.12 390.08 148.49 399.09 145.66 413.65 158.51 435.89 151.35"/><polygon class="cls-10" points="447.85 251 413.62 280.07 362.5 248.33 372.76 192.09 380.22 185.16 387.33 182.03 440.18 184.41 446.06 188.32 451.92 198.01 447.85 251"/><polygon class="cls-21" points="455.92 160.36 451.92 198.01 440.18 184.41 444.67 155.3 455.92 160.36"/><polygon class="cls-21" points="390.08 148.49 391.66 184.33 372.76 192.09 377.87 152.32 390.08 148.49"/><polygon class="cls-11" points="432.37 231.53 396.74 227.53 400.19 193.64 435.67 197.19 432.37 231.53"/><polygon class="cls-16" points="399.88 63.66 447.03 78.1 497.43 90.95 500.5 84.42 502.36 73.31 450.55 67.61 399.88 63.66"/><polygon class="cls-13" points="502.36 73.31 452.38 58.28 400.01 46.27 398.54 53.03 399.88 63.66 502.36 73.31"/><polygon class="cls-22" points="452.99 46.3 441.17 57.15 461.54 62.52 452.99 46.3"/><polygon class="cls-22" points="502.36 73.31 507.95 79.77 512.27 89.8 495.11 98.54 495.52 93.39 497.43 90.95 502.36 73.31"/><polygon class="cls-16" points="502.36 73.31 505.69 65.67 512.89 57.44 513.93 75.95 512.27 89.8 502.36 73.31"/><polygon class="cls-21" points="512.89 57.44 527.66 85.87 512.27 89.8 512.89 57.44"/><polygon class="cls-10" points="502.36 73.31 512.89 57.44 518.72 48.73 491.2 56.48 484.57 68.61 502.36 73.31"/><polygon class="cls-21" points="509.76 51.67 498.05 27.63 489.57 34.34 484.24 40.46 487.55 50.39 492.06 57.48 509.76 51.67"/><polygon class="cls-16" points="492.06 57.48 484.24 40.46 473.97 48.33 461.54 62.52 484.57 68.61 492.06 57.48"/><polygon class="cls-16" points="498.05 27.63 462.75 25.95 476.48 36.25 484.24 40.46 498.05 27.63"/><polygon class="cls-21" points="484.24 40.46 462.75 25.95 461.16 39.38 461.54 62.52 484.24 40.46"/><polygon class="cls-22" points="385.17 62.3 399.86 76.05 400.73 68.56 399.88 63.66 393.46 61.69 385.17 62.3"/><polygon class="cls-16" points="461.54 62.52 452.96 47.97 447.03 39.86 444.38 33.42 451 26.84 457.89 22.54 463.04 18.39 462.75 25.95 461.54 62.52"/><polygon class="cls-21" points="444.38 33.42 438.43 26.75 434.53 16.64 437.5 8.11 457.89 22.54 444.38 33.42"/><polygon class="cls-10" points="444.38 33.42 434.53 16.64 421.34 22.09 420.59 34.61 421.5 51.95 437.11 41.16 444.38 33.42"/><polygon class="cls-10" points="392.14 44.29 377.38 61.58 399.88 63.66 400.01 46.27 396.92 44.2 392.14 44.29"/><polygon class="cls-21" points="421.34 22.09 410.2 25.73 404.47 30 410.32 38.17 421.5 51.95 421.34 22.09"/><polygon class="cls-16" points="421.34 22.09 393.27 16.07 404.47 30 421.34 22.09"/><polygon class="cls-16" points="404.47 30 380.27 41.32 400.01 46.27 421.5 51.95 404.47 30"/><polygon class="cls-21" points="444.38 33.42 421.5 51.95 424.01 70.41 441.17 57.15 452.96 47.97 444.38 33.42"/><polygon class="cls-17" points="497.43 90.95 476.78 158.54 445.05 152.35 437.9 156.5 430.71 163.09 414.81 164.22 412.65 155.95 401.24 128.62 399.82 105.71 399.84 85.45 402.34 76.96 399.88 63.66 497.43 90.95"/><polygon class="cls-23" points="412.47 101.33 412.46 91.19 402.99 90.64 407.52 97.33 412.47 101.33"/><polygon class="cls-19" points="438.51 74.47 425.47 148.38 434.85 153.87 430.71 163.09 420.61 170.85 399.09 145.66 399.76 135.75 401.2 129.67 399.78 126.06 399.82 105.71 418.44 105.69 419 94.45 429.15 94.5 429.49 71.94 438.51 74.47"/><polygon class="cls-19" points="446.94 91.4 454.98 96.09 456.77 113.96 463.71 98.26 463.04 87.82 446.94 91.4"/><polygon class="cls-19" points="475.37 91 467.5 112.55 479.36 101.25 488.38 101.13 475.37 91"/><polygon class="cls-10" points="463.04 87.82 447.72 85.09 446.94 91.4 463.04 87.82"/><polygon class="cls-10" points="475.37 91 490.39 95.1 488.38 101.13 475.37 91"/><polygon class="cls-22" points="457.94 127.45 472.88 133.2 459.38 141.44 450.38 138.38 444.19 126.39 457.94 127.45"/><polygon class="cls-24" points="457.94 127.45 472.88 133.2 467.22 136.38 447.78 132.26 444.19 126.39 457.94 127.45"/><polygon class="cls-10" points="429.49 71.94 429.15 94.5 419 94.45 418.86 85.74 399.84 85.45 399.88 63.66 429.49 71.94"/><polygon class="cls-23" points="445.05 152.35 418.39 146.94 430.71 163.09 445.05 152.35"/><polygon class="cls-23" points="415.62 110.26 404.4 121.49 401.98 109.64 415.62 110.26"/><polygon class="cls-23" points="420.2 126.05 399.76 135.75 399.83 126.06 408.04 123.65 420.2 126.05"/><path class="cls-22" d="M420.19,105.69V126l-20.37,0V105.71l20.37,0Zm-15.8,4.58v11.22h11.23V110.26Z"/><rect class="cls-25" x="407.53" y="97.33" width="4.95" height="15.6"/><polygon class="cls-26" points="475.37 91 463.04 87.82 456.77 113.96 468.93 116.96 475.37 91"/><polygon class="cls-23" points="468.93 116.96 461.35 121.54 456.77 113.96 468.93 116.96"/><path class="cls-27" d="M455.16,104.52a3.75,3.75,0,1,1-1.31-5.13A3.75,3.75,0,0,1,455.16,104.52Z"/><path class="cls-27" d="M481.21,110.22a3.75,3.75,0,1,1-1.32-5.13A3.75,3.75,0,0,1,481.21,110.22Z"/><polygon class="cls-22" points="441.94 125.2 460.4 125.45 474.94 133.09 471.51 134.39 471.32 133.45 445.44 127.58 444.06 128.51 441.94 125.2"/><polygon class="cls-20" points="474.94 133.09 471.32 133.45 460.86 139.97 451.81 137.76 445.44 127.58 441.94 125.2 449.88 140.94 461.11 143.3 474.94 133.09"/><polygon class="cls-14" points="518.89 267.81 548.65 271.2 550.34 299.68 547.91 302.78 551.2 310.03 552.99 333.43 531.84 336.65 531.59 336.26 519.34 337.9 493.61 340.84 472.69 282.36 518.89 267.81"/><polygon class="cls-15" points="493.3 269.3 448.66 262.47 446.79 302.19 452.97 306.09 446.12 312.3 445.16 330.94 493.61 340.84 495.17 278.5 493.3 269.3"/><polygon class="cls-3" points="448.66 262.47 495.17 278.5 548.65 271.2 507.65 258.61 448.66 262.47"/><polygon class="cls-13" points="407.09 237.79 421.44 236.75 448.69 239.59 455.53 244.65 436.84 243.56 407.09 237.79"/><polygon class="cls-16" points="487.09 314.93 494.27 310.15 550.34 299.68 551.19 310.03 494.04 323.32 487.09 314.93"/><polygon class="cls-13" points="520.38 273.66 532.14 275.63 531.84 336.65 519.34 337.9 515.29 276.88 520.38 273.66"/><polygon class="cls-9" points="446.79 302.19 494.27 310.15 494.04 323.32 446.12 312.3 446.79 302.19"/><polygon class="cls-12" points="448.69 239.59 532.14 275.63 515.29 276.88 436.84 243.56 448.69 239.59"/><polygon class="cls-19" points="509.13 201.71 478.38 196.95 465.43 221.2 508.35 215.9 509.13 201.71"/><polygon class="cls-19" points="518.91 212.52 523.98 216.73 541.17 215.43 540.96 201.29 521.61 199 518.91 212.52"/><polygon class="cls-23" points="508.43 209.97 508.35 215.9 523.64 216.56 528.75 199.95 512.33 203.11 508.43 209.97"/><polygon class="cls-12" points="494.72 259.49 507.65 258.61 530.7 199.95 520.05 200.35 494.72 259.49"/><polygon class="cls-17" points="508.43 209.97 509.13 201.71 518.18 197.5 529.69 195.9 530.7 199.95 521.22 202.95 516.62 210.23 508.43 209.97"/><polygon class="cls-12" points="400.75 240.4 396.42 240.25 396.79 279.7 413.62 280.07 408.99 249.83 400.75 240.4"/><polygon class="cls-19" points="410.59 232.39 420.68 230.28 431.03 242.39 421.73 253.33 409.05 249.94 410.59 232.39"/><polygon class="cls-17" points="383.2 226.96 400.39 223.04 420.68 230.28 409.05 249.94 393.57 239.45 383.2 226.96"/><polygon class="cls-19" points="353.16 191.03 402.61 224.06 393.57 239.45 351.33 221.01 353.16 191.03"/></g></g></svg>