<svg xmlns="http://www.w3.org/2000/svg" viewBox="0 0 900 350"><defs><style>.cls-1{fill:#dddddc;}.cls-2{fill:#ececeb;}.cls-3{fill:#9b9fa0;}.cls-4{fill:#c4c4c2;}.cls-5{fill:#a3a1a1;}.cls-6{fill:#f0bc67;}.cls-48,.cls-7{fill:#e1a940;}.cls-8{fill:#bc8f2d;}.cls-33,.cls-9{fill:#010101;}.cls-19,.cls-33,.cls-9{opacity:0.1;}.cls-10,.cls-35{fill:#836528;}.cls-11,.cls-37{fill:#9c782c;}.cls-12,.cls-32{fill:#cbad2d;}.cls-13,.cls-28{fill:#f3d65c;}.cls-14{fill:#b08c79;}.cls-15{fill:#906a59;}.cls-16{fill:#494749;}.cls-17{fill:#4f5353;}.cls-18{fill:#6f7273;}.cls-19,.cls-24,.cls-39{fill:#2b2c2b;}.cls-20{fill:#66493b;}.cls-21,.cls-34{fill:#755924;}.cls-22{fill:#858686;}.cls-23{fill:#b89d8d;}.cls-25,.cls-44{fill:#474748;}.cls-26,.cls-45{fill:#fff;}.cls-27,.cls-38{fill:#e4c723;}.cls-28,.cls-30,.cls-31,.cls-32,.cls-33,.cls-34,.cls-35,.cls-36,.cls-37,.cls-38,.cls-39,.cls-40,.cls-41,.cls-42,.cls-43,.cls-44,.cls-45,.cls-46,.cls-47,.cls-48{fill-rule:evenodd;}.cls-29{fill:#d0cecd;}.cls-30{fill:#c2977a;}.cls-31,.cls-53{fill:#debca4;}.cls-36{fill:#8a6651;}.cls-40{fill:#7c7b7b;}.cls-41{fill:#5d5d5d;}.cls-42{fill:#494849;}.cls-43{fill:#e8c9b6;}.cls-46{fill:#959494;}.cls-47{fill:#383938;}.cls-49{fill:#82624e;}.cls-50{fill:#4f5253;}.cls-51{fill:#6f7173;}.cls-52{fill:#b28b71;}.cls-54{fill:#2b2b2b;}.cls-55{fill:#d6bba9;}.cls-56{fill:#737475;}.cls-57{fill:#b38b2e;}.cls-58{fill:#f4cab2;}.cls-59{fill:#c18f7c;}.cls-60{fill:#fbe3d4;}.cls-61{fill:#fff0e8;}</style></defs><title>explorers_Entertainer_ESFP_conclusion</title><g id="ILLUSTRATION_copy_2" data-name="ILLUSTRATION copy 2"><g id="clouds_copy_2" data-name="clouds copy 2"><polygon class="cls-1" points="76.89 11.75 5.39 19.25 65.39 24.46 123.39 59.25 243.89 11.75 124.39 24.13 76.89 11.75"/><polygon class="cls-2" points="5.39 19.25 77.14 0 132.39 16.31 243.89 11.75 121.89 31.3 69.89 15.99 5.39 19.25"/><polygon class="cls-1" points="714.19 49.69 668.39 56.35 706.82 60.99 739.89 79 821.16 49.69 744.61 60.7 714.19 49.69"/><polygon class="cls-2" points="668.39 56.35 713.55 46.5 771.55 51.67 821.16 49.69 743.01 67.08 709.7 53.45 668.39 56.35"/></g><g id="buildings_copy_2" data-name="buildings copy 2"><polygon class="cls-3" points="758.55 116.67 751.05 100 737.05 115 740.55 163.67 759.72 167.33 758.55 116.67"/><polygon class="cls-4" points="751.55 170.17 751.05 100 790.55 101.17 791.05 141.67 764.05 176.67 751.55 170.17"/><polygon class="cls-5" points="755.71 110.3 764.31 110.47 764.39 106.17 755.64 106.08 755.71 110.3"/><polygon class="cls-5" points="767.62 110.56 774.58 110.74 774.64 106.44 767.56 106.35 767.62 110.56"/><polygon class="cls-5" points="777.14 106.61 777.21 110.82 785.81 111 785.89 106.7 777.14 106.61"/><polygon class="cls-5" points="755.63 119.88 764.23 120.06 764.3 115.75 755.55 115.67 755.63 119.88"/><polygon class="cls-5" points="767.55 120.14 774.51 120.32 774.57 116.02 767.49 115.93 767.55 120.14"/><polygon class="cls-5" points="755.63 130.3 764.23 130.47 764.3 126.17 755.55 126.08 755.63 130.3"/><polygon class="cls-5" points="755.63 140.71 764.23 140.89 764.3 136.59 755.55 136.5 755.63 140.71"/><polygon class="cls-5" points="755.63 151.13 764.23 151.31 764.3 147 755.55 146.92 755.63 151.13"/><polygon class="cls-4" points="631.55 97 641.89 66.33 684.26 78.88 682.89 118.67 644.89 157 631.55 97"/><polygon class="cls-5" points="603.55 74.33 616.55 75 641.89 66.33 648.89 164.33 618.55 162 603.55 74.33"/><polygon class="cls-4" points="528.89 43.33 548.89 15.92 607.55 29 616.39 185 548.39 192 528.89 43.33"/><polyline class="cls-5" points="523.39 202 515.89 40.33 548.89 15.92 563.89 191 523.39 202"/><polygon class="cls-5" points="513.39 120.5 499.39 94 485.39 107.5 493.89 211.5 514.89 211.5 513.39 120.5"/><polyline class="cls-4" points="514.89 234.5 502.48 198.09 499.39 94 540.89 100.33 547.89 212.5 514.89 234.5"/><polygon class="cls-4" points="808.14 111.25 824.64 88.25 860.89 107.25 854.96 244.59 813.39 235 808.14 111.25"/><polygon class="cls-5" points="800.64 96.88 798.72 219 820.89 224.5 824.64 88.25 800.64 96.88"/><polygon class="cls-4" points="781.89 137.67 790.89 117.67 823.14 132.5 812.89 215.92 777.55 210 781.89 137.67"/><polygon class="cls-5" points="771.22 187 769.72 123.83 790.89 117.67 786.22 201 771.22 187"/><polygon class="cls-5" points="796.22 131.67 817.64 140.5 810.97 188.42 791.89 182.92 796.22 131.67"/><polygon class="cls-4" points="793.64 138.08 817.76 147.75 817.01 152.38 793.64 145 792.47 152.83 815.89 160.13 815.14 165.63 792.72 159.08 791.72 167.58 813.8 174.58 813.22 181 790.14 174.08 792.05 140 793.64 138.08"/><polygon class="cls-4" points="804.26 134.25 799.26 190.25 803.39 191 810.01 136 804.26 134.25"/><polygon class="cls-5" points="649.01 76.13 652.81 136.87 678.54 131.53 678.39 84 649.01 76.13"/><path class="cls-4" d="M655.14,75.39,659.26,145l4.67-.44-3.29-69.22,5.84-.26,3.64,68.22,3.92-2.64a1,1,0,0,0,.43-.84l-2-59.21-6.06-5.87c-.19,0-4.7-1-4.88-.88Z"/><polygon class="cls-5" points="830.22 105.33 827.55 220.67 848.22 227.67 856.14 117.38 830.22 105.33"/><polygon class="cls-4" points="836.97 104.83 833.14 225.5 836.39 226.75 839.89 107.5 847.14 111.58 841.64 229.25 843.89 230.5 850.89 109.75 836.97 104.83"/><polygon class="cls-4" points="827.89 112.17 857.39 127.67 856.72 138.67 828.55 126.5 828.55 135.5 854.39 144.83 854.22 157.17 828.22 148 828.05 155.83 852.72 164.33 852.89 176.83 827.89 168.33 827.22 176.33 852.05 184.5 851.05 196.17 827.55 189 827.39 197.83 851.22 203.5 849.72 216.5 826.39 209.5 826.22 217.17 851.39 225.5 850.89 232 823.72 219.33 827.89 112.17"/><polygon class="cls-5" points="558.55 30 563.89 81 601.55 82.33 599.76 38.38 558.55 30"/><polygon class="cls-4" points="568.14 27.63 573.39 95.63 580.51 96.5 574.39 29.38 582.89 29 590.22 94.33 594.89 94.33 589.22 27.67 575.55 23.67 568.14 27.63"/><polygon class="cls-4" points="556.64 40.13 602.51 46.13 602.39 50.5 559.64 47.38 560.51 57.63 604.01 58.38 600.89 74.38 554.39 74.88 556.64 40.13"/><polygon class="cls-5" points="510.14 182.25 506.22 106 534.22 108.67 536.89 181.5 510.14 182.25"/><polygon class="cls-4" points="513.39 102.17 517.89 184.75 521.14 184.63 516.8 103.58 523.22 103.67 526.89 184.25 531.05 183.33 526.8 101.58 513.39 102.17"/><polygon class="cls-4" points="504.89 113.25 536.14 115.75 536.14 124.13 506.01 122.38 506.14 130.13 536.26 130.75 536.26 139.38 506.76 137.88 507.01 145.88 536.39 146.63 536.76 156.13 507.39 154.75 507.64 162.13 538.01 163.25 538.14 171.88 506.51 172.5 504.89 113.25"/><polygon class="cls-4" points="648.26 88.25 680.01 95.5 679.51 104.13 650.01 99.25 650.26 111.25 679.01 113.25 678.89 123 649.51 122.63 648.26 88.25"/><polygon class="cls-4" points="61.89 168 67.55 153 93.22 152.33 96.55 234 80.89 235.67 61.89 168"/><polygon class="cls-5" points="65.22 231.67 65.07 230.43 57.22 167 67.55 153 82.55 217.33 65.22 231.67"/><polygon class="cls-5" points="53.89 198.33 45.89 181.67 33.55 195.67 44.55 240.67 55.55 240.33 53.89 198.33"/><polygon class="cls-4" points="50.89 241.33 69.26 221.5 65.22 180 45.89 181.67 50.89 241.33"/><polygon class="cls-5" points="89.22 172 93.89 217.67 105.89 216.33 107.55 179.83 101.22 163.17 89.22 172"/><polygon class="cls-4" points="105.89 220.83 101.22 163.17 121.72 163.67 130.22 212.5 105.89 220.83"/><polygon class="cls-5" points="117.18 192.31 113 192.46 113.45 196.32 117.72 196.06 117.18 192.31"/><polygon class="cls-5" points="112.12 201.77 108.79 202.06 109.19 206.33 112.56 205.81 112.12 201.77"/><polygon class="cls-5" points="112.04 184.35 112.44 187.72 116.52 187.63 116.04 184.24 112.04 184.35"/><polygon class="cls-5" points="108.28 196.63 111.54 196.43 111.11 192.53 107.91 192.65 108.28 196.63"/><polygon class="cls-5" points="114.23 171.52 113.83 168.68 110.18 168.56 110.53 171.48 114.23 171.52"/><polygon class="cls-5" points="115.31 179.08 114.84 175.83 111.04 175.83 111.42 179.08 115.31 179.08"/><polygon class="cls-5" points="110.23 184.4 107.14 184.48 107.46 187.82 110.59 187.75 110.23 184.4"/><polygon class="cls-5" points="117.35 179.08 120.53 179.08 119.96 175.83 116.87 175.83 117.35 179.08"/><polygon class="cls-5" points="118.45 201.23 114.08 201.6 114.53 205.51 118.96 204.83 118.45 201.23"/><polygon class="cls-5" points="106.64 179.08 109.65 179.08 109.29 175.83 106.33 175.83 106.64 179.08"/><polygon class="cls-5" points="108.82 171.46 108.5 168.51 105.64 168.42 105.92 171.43 108.82 171.46"/><polygon class="cls-5" points="116.23 171.54 119.2 171.57 118.72 168.83 115.82 168.74 116.23 171.54"/><polygon class="cls-5" points="118.11 184.19 118.61 187.59 122.02 187.51 121.42 184.1 118.11 184.19"/><polygon class="cls-5" points="124.35 200.72 120.6 201.04 121.11 204.5 124.92 203.92 124.35 200.72"/><polygon class="cls-5" points="119.3 192.24 119.84 195.92 123.47 195.7 122.83 192.11 119.3 192.24"/><polygon class="cls-5" points="88.78 183.79 88.47 181.56 82.92 181.95 83.22 184.05 88.78 183.79"/><polygon class="cls-5" points="89.76 190.64 89.44 188.41 83.92 188.8 84.23 190.9 89.76 190.64"/><polygon class="cls-5" points="87.84 177.17 87.53 174.92 81.94 175.31 82.25 177.43 87.84 177.17"/><polygon class="cls-5" points="85.14 158.13 84.84 156.03 79.15 156.42 79.45 158.46 85.14 158.13"/><polygon class="cls-5" points="85.97 163.96 85.67 161.86 80.01 162.25 80.31 164.29 85.97 163.96"/><polygon class="cls-5" points="91.23 190.57 97.35 190.29 97.05 187.88 90.92 188.31 91.23 190.57"/><polygon class="cls-5" points="86.9 170.51 86.58 168.24 80.95 168.63 81.27 170.77 86.9 170.51"/><polygon class="cls-5" points="88.42 170.44 92.55 170.25 92.26 167.83 88.09 168.13 88.42 170.44"/><polygon class="cls-5" points="81.27 182.07 77.51 182.33 77.97 184.29 81.6 184.12 81.27 182.07"/><polygon class="cls-5" points="80.19 175.44 75.76 175.75 76.22 177.71 80.53 177.51 80.19 175.44"/><polygon class="cls-5" points="87.5 163.87 91.76 163.63 91.51 161.46 87.2 161.75 87.5 163.87"/><polygon class="cls-5" points="79.1 168.76 74.01 169.13 74.47 171.08 79.44 170.85 79.1 168.76"/><polygon class="cls-5" points="82.38 188.91 78.8 189.17 79.26 191.13 82.72 190.97 82.38 188.91"/><polygon class="cls-5" points="78.06 162.38 72.64 162.75 73.1 164.71 78.39 164.4 78.06 162.38"/><polygon class="cls-5" points="86.69 158.04 90.97 157.79 90.72 155.63 86.39 155.92 86.69 158.04"/><polygon class="cls-5" points="77.12 156.56 71.85 156.92 72.3 158.88 77.45 158.58 77.12 156.56"/><polygon class="cls-5" points="48.97 184.67 51.8 219.83 66.14 218 62.97 183.58 48.97 184.67"/><polygon class="cls-4" points="47.72 188.33 64.3 186.83 64.3 190.83 48.89 191.75 49.22 195.75 64.55 194.33 64.72 198.08 49.97 199.67 50.14 203.5 65.14 202.08 65.55 206.5 50.64 207.58 50.64 212.17 65.97 210.25 66.47 214.33 49.64 215.42 47.72 188.33"/><polygon class="cls-4" points="52.72 183.25 55.39 222.25 57.64 222.08 55.22 183.25 58.3 183.08 61.05 220 63.3 220.08 60.47 181.67 52.72 183.25"/></g><g id="land_copy_2" data-name="land copy 2"><polygon class="cls-6" points="682.47 118.59 502.48 198.09 437.98 202.59 266.99 183.09 110.99 208.59 0 243.09 67.5 307.58 176.99 321.08 350.98 348.08 712.46 327.08 818.96 300.08 895.46 282.08 854.96 244.59 812.96 216.09 773.96 165.09 682.47 118.59"/><polygon class="cls-7" points="17.64 260 83.89 267 90.14 292.5 67.5 307.58 17.64 260"/><polygon class="cls-8" points="85.64 263 67.5 307.58 152.89 318 85.64 263"/><polygon class="cls-8" points="150.89 269.5 149.39 226.5 138.39 202 110.99 208.59 82.26 217.63 119.89 257 150.89 269.5"/><polygon class="cls-7" points="286.89 220 262.89 231.33 181.89 229.67 178.55 198.67 187.55 196.33 291.22 196.67 286.89 220"/><polygon class="cls-8" points="295.39 209 388.39 207 402.39 202.5 408.39 215.5 292.39 253.5 295.39 209"/><polygon class="cls-8" points="592.55 226.33 558.39 205.5 603.22 170.67 597.22 156 502.48 198.09 580.89 236 592.55 226.33"/><polygon class="cls-7" points="557.55 227.33 558.39 205.5 617.89 199.67 616.55 233 557.55 227.33"/><polygon class="cls-7" points="465.89 233.67 393.55 216.67 294.89 241 313.89 252.33 339.22 270.67 465.89 233.67"/><polygon class="cls-7" points="586.55 229.33 558.39 205.5 502.48 198.09 465.89 233.67 489.55 257.67 586.55 229.33"/><polygon class="cls-8" points="618.89 218 558.39 205.5 499.89 245 527.89 249.5 616.89 239 618.89 218"/><polygon class="cls-8" points="651.55 218.67 663.22 197.33 699.89 191 674.55 161.33 657.22 150.67 617.89 153 651.55 218.67"/><path class="cls-7" d="M631.22,148.67s21.33,7.66,22.67,8,16,3.33,16,3.33l28.66-11.67-1-18-15.08-11.74-50.58,20.08Z"/><polygon class="cls-6" points="697.55 146.67 682.47 118.59 711.39 132.75 697.55 146.67"/><path class="cls-6" d="M496.55,258.33,499.89,245l-34-11.33-152,18.66-30.67,20s.67,40.67,9.33,38.67,160.67-.67,160.67-.67Z"/><polygon class="cls-8" points="554.89 270.33 499.89 245 453.22 253.33 421.89 254.67 412.89 259.67 404.55 264.67 335.55 277.33 505.55 301.67 554.89 270.33"/><polygon class="cls-7" points="610.55 250.33 601.22 236.33 499.89 245 543.55 270.67 595.89 294.33 610.55 250.33"/><polygon class="cls-6" points="773.96 165.09 734.89 187 779.14 215.08 812.96 216.09 773.96 165.09"/><polygon class="cls-8" points="795.51 193.38 747.64 196.75 734.89 187 773.96 165.09 795.51 193.38"/><polygon class="cls-7" points="708.22 187 734.89 187 773.96 165.09 751.3 153.42 684.22 160.67 699.89 176 708.22 187"/><polygon class="cls-6" points="721.3 133.17 690.55 161.33 751.3 153.42 721.3 133.17"/><path class="cls-8" d="M746.22,205l17.67,7.67L813,216.09l-27.74,33.24s-66,34-58.33-5.33l7.66-39.33Z"/><polygon class="cls-7" points="784.64 214.06 734.89 187 713.89 231 779.14 215.08 784.64 214.06"/><polygon class="cls-8" points="760.55 239.33 812.96 216.09 854.96 244.59 761.22 248.67 760.55 239.33"/><polygon class="cls-7" points="731.89 233.67 854.96 244.59 895.46 282.08 735.89 261 720.89 227 731.89 233.67"/><polygon class="cls-6" points="804.39 278.5 803.55 268.33 735.89 261 647.89 331 719.89 329 769.89 312.5 804.39 278.5"/><polygon class="cls-2" points="702.89 128.75 669.89 160 696.39 175 695.14 191.75 675.89 239.33 590.89 272 463.89 281 270.39 267.5 162.89 278 127.14 253.75 93.47 214 69.26 221.5 83.89 267 136.89 286.5 152.89 318 350.98 348.08 647.89 331 662.39 303.5 735.89 261 734.89 187 702.39 170.5 708.64 159 721.64 133.21 702.89 128.75"/><polygon class="cls-8" points="803.55 268.33 895.46 282.08 769.89 312.5 803.55 268.33"/><polygon class="cls-7" points="702.39 288 769.89 312.5 720.89 332.5 647.89 331 702.39 288"/><polygon class="cls-8" points="605.89 238 640.39 222 663.39 228 651.39 245 619.89 252 605.89 238"/><polygon class="cls-7" points="278.89 252.33 315.22 252.67 356.39 273.38 273.14 268.38 224.55 267.33 278.89 252.33"/><polygon class="cls-8" points="289.55 213.33 187.55 196.33 271.89 180.67 295.22 186.67 289.55 213.33"/><polygon class="cls-1" points="669.89 160 708.64 159 734.89 187 695.14 191.75 669.89 160"/><polygon class="cls-1" points="677.72 243.5 735.89 261 647.89 331 463.89 281 651.51 245.53 677.72 243.5"/><polygon class="cls-1" points="291.89 269.5 152.89 318 83.89 267 126.39 253.5 291.89 269.5"/></g><g id="flowers_copy_2" data-name="flowers copy 2"><polygon class="cls-9" points="750.2 283.31 764.58 279.49 778.7 284.31 764.19 291.15 750.2 283.31"/><polygon class="cls-10" points="767.67 270.19 762.42 275.83 764.09 285.67 765.35 285.73 767.67 270.19"/><polygon class="cls-11" points="756.84 262.15 751.66 262.61 762.42 275.83 777.04 263.28 756.84 262.15"/><polygon class="cls-12" points="751.66 262.61 770.08 256.81 777.04 263.28 763.09 269.92 751.66 262.61"/><polygon class="cls-13" points="758.17 263.14 767.33 260 771.06 263.28 763.09 266.73 758.17 263.14"/><polygon class="cls-9" points="52.86 284.05 62.07 281.6 71.11 284.69 61.81 289.06 52.86 284.05"/><polygon class="cls-10" points="64.05 275.64 60.69 279.26 61.75 285.55 62.56 285.6 64.05 275.64"/><polygon class="cls-11" points="57.11 270.49 53.79 270.79 60.69 279.26 70.05 271.22 57.11 270.49"/><polygon class="cls-12" points="53.79 270.79 64.14 265.63 70.05 271.22 61.11 275.47 53.79 270.79"/><polygon class="cls-13" points="57.96 271.13 63.58 268.25 66.22 271.22 61.11 273.43 57.96 271.13"/><polygon class="cls-9" points="522.19 251.38 531.4 248.93 540.44 252.02 531.15 256.4 522.19 251.38"/><polygon class="cls-10" points="533.38 242.97 530.02 246.59 531.08 252.89 531.89 252.93 533.38 242.97"/><polygon class="cls-11" points="526.45 237.83 523.13 238.12 530.02 246.59 539.38 238.55 526.45 237.83"/><polygon class="cls-12" points="523.13 238.12 532.08 231.63 539.38 238.55 530.45 242.8 523.13 238.12"/><polygon class="cls-13" points="527.3 238.47 531.51 234.13 535.55 238.55 530.45 240.76 527.3 238.47"/><polygon class="cls-9" points="491.89 236.46 498.58 234.68 505.14 236.92 498.4 240.1 491.89 236.46"/><polygon class="cls-10" points="500.02 230.36 497.58 232.98 498.35 237.55 498.94 237.58 500.02 230.36"/><polygon class="cls-11" points="494.98 226.62 492.57 226.84 497.58 232.98 504.37 227.14 494.98 226.62"/><polygon class="cls-12" points="492.57 226.84 500.45 222.38 504.37 227.14 497.89 230.23 492.57 226.84"/><polygon class="cls-13" points="495.6 227.08 499.64 224.5 501.59 227.14 497.89 228.75 495.6 227.08"/><polygon class="cls-9" points="513.42 219.69 518.39 218.36 523.27 220.03 518.25 222.4 513.42 219.69"/><polygon class="cls-10" points="519.46 215.15 517.65 217.1 518.22 220.5 518.66 220.52 519.46 215.15"/><polygon class="cls-11" points="515.72 212.37 513.92 212.53 517.65 217.1 522.7 212.76 515.72 212.37"/><polygon class="cls-12" points="513.92 212.53 516.89 209.44 522.7 212.76 517.88 215.06 513.92 212.53"/><polygon class="cls-13" points="516.18 212.71 517.64 210.88 520.63 212.76 517.88 213.95 516.18 212.71"/><polygon class="cls-9" points="40.52 253.27 46.88 251.58 53.11 253.71 46.7 256.73 40.52 253.27"/><polygon class="cls-10" points="48.24 247.47 45.92 249.97 46.66 254.31 47.21 254.34 48.24 247.47"/><polygon class="cls-11" points="43.46 243.93 41.17 244.13 45.92 249.97 52.38 244.42 43.46 243.93"/><polygon class="cls-12" points="41.17 244.13 45.51 240.38 52.38 244.42 46.22 247.36 41.17 244.13"/><polygon class="cls-13" points="44.05 244.37 45.95 242.25 49.73 244.42 46.22 245.95 44.05 244.37"/><polygon class="cls-9" points="82.36 296.99 88.92 295.24 95.36 297.45 88.74 300.56 82.36 296.99"/><polygon class="cls-10" points="90.33 291 87.93 293.58 88.69 298.06 89.27 298.09 90.33 291"/><polygon class="cls-11" points="85.39 287.33 83.03 287.55 87.93 293.58 94.6 287.85 85.39 287.33"/><polygon class="cls-12" points="83.03 287.55 86.89 283.38 94.6 287.85 88.24 290.88 83.03 287.55"/><polygon class="cls-13" points="85.99 287.79 87.51 285.06 91.87 287.85 88.24 289.43 85.99 287.79"/><polygon class="cls-9" points="60.36 258.36 64.39 257.29 68.36 258.64 64.28 260.56 60.36 258.36"/><polygon class="cls-10" points="65.26 254.68 63.79 256.26 64.25 259.02 64.61 259.04 65.26 254.68"/><polygon class="cls-11" points="62.22 252.42 60.77 252.55 63.79 256.26 67.89 252.74 62.22 252.42"/><polygon class="cls-12" points="60.77 252.55 64.95 249.13 67.89 252.74 63.98 254.6 60.77 252.55"/><polygon class="cls-13" points="62.59 252.7 64.76 250.75 66.21 252.74 63.98 253.71 62.59 252.7"/><polygon class="cls-9" points="799.29 254.47 809.68 251.7 819.87 255.19 809.39 260.12 799.29 254.47"/><polygon class="cls-10" points="811.91 244.99 808.12 249.07 809.32 256.17 810.23 256.21 811.91 244.99"/><polygon class="cls-11" points="804.09 239.18 800.35 239.52 808.12 249.07 818.67 240 804.09 239.18"/><polygon class="cls-12" points="800.35 239.52 810.04 235.87 818.67 240 808.6 244.8 800.35 239.52"/><polygon class="cls-13" points="805.05 239.9 809.75 237.79 814.35 240 808.6 242.49 805.05 239.9"/><polygon class="cls-9" points="769.14 226.67 778.1 224.28 786.89 227.29 777.85 231.55 769.14 226.67"/><polygon class="cls-10" points="780.02 218.49 776.76 222.01 777.79 228.13 778.58 228.17 780.02 218.49"/><polygon class="cls-11" points="773.28 213.49 770.05 213.78 776.76 222.01 785.86 214.19 773.28 213.49"/><polygon class="cls-12" points="770.05 213.78 775.14 208.92 785.86 214.19 777.17 218.33 770.05 213.78"/><polygon class="cls-13" points="774.11 214.11 776.22 211.25 782.14 214.19 777.17 216.34 774.11 214.11"/><polygon class="cls-9" points="749.02 249.71 756.3 247.77 763.44 250.21 756.1 253.67 749.02 249.71"/><polygon class="cls-10" points="757.86 243.06 755.21 245.92 756.05 250.9 756.68 250.93 757.86 243.06"/><polygon class="cls-11" points="752.38 238.99 749.76 239.23 755.21 245.92 762.6 239.56 752.38 238.99"/><polygon class="cls-12" points="749.76 239.23 756.64 233.33 762.6 239.56 755.54 242.93 749.76 239.23"/><polygon class="cls-13" points="753.05 239.5 756.39 235.58 759.58 239.56 755.54 241.31 753.05 239.5"/><polygon class="cls-9" points="809.35 290.54 816.63 288.6 823.78 291.05 816.43 294.5 809.35 290.54"/><polygon class="cls-10" points="818.2 283.89 815.54 286.75 816.38 291.73 817.02 291.76 818.2 283.89"/><polygon class="cls-11" points="812.71 279.82 810.09 280.06 815.54 286.75 822.94 280.4 812.71 279.82"/><polygon class="cls-12" points="810.09 280.06 814.72 275 822.94 280.4 815.88 283.76 810.09 280.06"/><polygon class="cls-13" points="813.39 280.33 815.55 277.58 819.91 280.4 815.88 282.15 813.39 280.33"/></g><g id="friend_of_character_copy_2" data-name="friend of character copy 2"><polygon class="cls-14" points="485.27 157.5 485.43 149.05 493.56 142.41 499.7 150.04 493.73 161.03 485.27 157.5"/><polygon class="cls-15" points="475.03 154.92 477.55 154.77 485.43 149.05 493.73 161.03 483.41 165.87 475.48 166.3 475.03 154.92"/><polygon class="cls-14" points="472.51 165.69 473.98 160.93 473.9 154.36 479.23 146.51 481.61 148.13 479.48 153.56 480.21 159.5 475.68 167.66 472.51 165.69"/><polygon class="cls-14" points="429.48 170.93 447.7 150.66 466.12 176.44 453.67 183.73 429.48 170.93"/><polygon class="cls-16" points="449.05 134.05 449.95 144.42 447.7 150.66 411.79 154.39 429.44 125.22 449.05 134.05"/><polygon class="cls-17" points="447.33 117.63 462.04 115.66 449.95 144.42 437.53 134.05 447.33 117.63"/><polygon class="cls-16" points="376.74 124.73 378.5 145.55 392.1 175.46 414 161.5 413.5 122.04 376.74 124.73"/><polygon class="cls-17" points="388.5 112.48 366.08 109.9 378.5 145.55 410.74 127.53 388.5 112.48"/><polygon class="cls-18" points="373.54 70.04 366.08 109.9 387.16 124.24 382.6 80.61 373.54 70.04"/><polygon class="cls-19" points="482.66 298.19 414.89 288.67 354.71 298.84 424.89 313 482.66 298.19"/><polygon class="cls-10" points="434 292.07 440.95 300.44 423.55 300.81 419.4 290.1 414.98 293.38 413.88 291.63 416.35 283.54 422.64 278.08 429.64 292.29 434 292.07"/><polygon class="cls-10" points="409.07 287.64 405.62 294.91 409.07 304.09 411.79 304.09 411.79 294.47 409.07 287.64"/><polygon class="cls-15" points="416.44 256.57 421.29 267.38 416.35 283.54 421.99 301.46 409.09 288.23 404.62 264 416.44 256.57"/><polygon class="cls-14" points="409.09 288.23 416.35 283.54 423.5 296.52 421.99 301.46 411.79 304.09 409.09 288.23"/><polygon class="cls-8" points="411.79 304.09 423.5 296.52 427.67 304.09 411.79 304.09"/><polygon class="cls-15" points="453.72 253.29 431.1 278.3 428.58 289.89 427.37 288.53 421.99 278.74 426.95 267.42 436.66 251.76 453.72 253.29"/><polygon class="cls-14" points="431.1 278.3 434 292.07 423.5 296.52 421.99 278.74 431.1 278.3"/><polygon class="cls-20" points="404.62 264 421.29 267.39 423.41 259.1 404.62 264"/><polygon class="cls-20" points="453.72 253.29 426.95 267.42 430.92 255.8 453.72 253.29"/><polygon class="cls-14" points="390.81 155 385.07 190.76 399.01 199.14 402.75 182.83 405.01 180.9 401.39 159.83 390.81 155"/><polygon class="cls-11" points="447.7 150.66 434.01 146.31 413.62 146.31 390.81 155 402.41 183.28 431.95 184.27 446.63 179.92 447.7 150.66"/><polygon class="cls-21" points="402.41 183.28 400.03 193.59 402.9 202.88 437.97 210.82 438.55 206.51 446.63 179.92 402.41 183.28"/><polygon class="cls-18" points="438.77 205.98 401.84 207.26 393.6 217.2 423.41 229.47 448.82 235.36 438.77 205.98"/><polygon class="cls-17" points="393.6 217.2 404.62 264 453.72 253.29 448.82 235.36 393.6 217.2"/><polygon class="cls-16" points="393.6 217.2 438.77 205.98 399.8 203.71 393.6 217.2"/><polygon class="cls-14" points="380.49 75 379.6 136.26 386.67 136.38 408.11 138.83 424.4 137.53 429.76 114 429.9 77.37 423.1 59.67 386.31 64.78 380.49 75"/><polygon class="cls-22" points="373.54 70.04 380.44 83.66 409.33 71.82 392.44 63.38 394.86 60.23 394.77 57.97 373.54 70.04"/><polygon class="cls-15" points="429.48 77.93 450.94 113.25 434.01 146.31 418.76 158.47 424.4 137.53 429.48 77.93"/><polygon class="cls-22" points="396.95 51.76 402.12 53.21 404.62 59.99 409.33 71.82 373.54 70.04 396.95 51.76"/><polygon class="cls-18" points="417.55 71.76 430.69 71.46 437.95 53.45 396.95 51.76 409.33 71.82 417.55 71.76"/><polygon class="cls-22" points="433.38 87.79 442.47 67.33 437.95 53.45 409.33 71.82 433.38 87.79"/><polygon class="cls-17" points="460 82.64 452.14 95.02 433.38 87.79 437.95 53.45 460 82.64"/><polygon class="cls-16" points="462.04 115.66 439.45 135.96 433.38 87.65 456.15 99.49 462.04 115.66"/><polygon class="cls-18" points="460 82.64 462.04 115.66 433.38 87.79 460 82.64"/><polygon class="cls-20" points="428.84 138.45 424.4 137.53 386.67 136.38 400.35 139.85 418.53 158.62 428.84 138.45"/><polygon class="cls-15" points="400.34 112.86 396.5 110.9 395.43 109.41 379.93 107.7 393.95 106.53 390.4 100.47 381.89 95.93 389.12 96.12 383.33 91.18 392.54 91.44 397.56 92.91 398.49 96.64 400.94 98.48 402.6 96.07 406.29 93.89 413.43 91.89 423.45 92.61 414.11 98.86 408.19 105.93 421.78 108 406.21 109.23 403.95 110.98 400.34 112.86"/><polygon class="cls-17" points="383.33 91.26 393.94 89.31 397.56 92.91 383.33 91.26"/><polygon class="cls-17" points="423.45 92.61 411.24 89.62 406.29 93.89 423.45 92.61"/><polygon class="cls-23" points="398.49 96.64 396.5 110.9 400.34 112.86 403.95 110.98 402.6 96.07 398.49 96.64"/><polygon class="cls-20" points="400.69 113.25 396.5 110.9 403.95 110.98 400.69 113.25"/><path class="cls-24" d="M410,98.77a2.83,2.83,0,1,1-2.82,2.82A2.83,2.83,0,0,1,410,98.77Z"/><path class="cls-24" d="M389.77,98.62a2.83,2.83,0,1,1-2.82,2.83A2.83,2.83,0,0,1,389.77,98.62Z"/><polygon class="cls-21" points="390.36 119.26 400.73 117.86 412.76 119.71 406.15 130.19 395.94 129.96 390.36 119.26"/><polygon class="cls-25" points="394.41 123.06 400.7 120.57 408.7 123.04 404.8 127.55 397.57 127.55 394.41 123.06"/><polygon class="cls-26" points="394.41 123.06 408.7 123.04 410.77 120.75 392.53 120.44 394.41 123.06"/><polygon class="cls-6" points="380.17 94.03 398.4 94.16 398.49 96.64 382.84 96.55 382.87 105.06 397.27 105.31 396.93 107.82 379.93 107.7 380.17 94.03"/><polygon class="cls-6" points="402.52 94.34 402.64 96.67 419.47 96.95 419.31 105.37 403.42 105.41 403.62 107.74 421.8 107.82 421.96 94.42 402.52 94.34"/><polygon class="cls-15" points="474.01 160.96 453.67 183.73 467.89 191.66 483.41 165.87 474.01 160.96"/><polygon class="cls-15" points="427.9 195.86 431.47 192.23 438.72 197.67 436.73 205.98 429.26 207.19 427.9 195.86"/><polygon class="cls-14" points="413.28 199.26 417.32 195.18 431.47 192.23 429.26 207.19 416.99 204.86 413.28 199.26"/><polygon class="cls-15" points="417.32 195.18 385.07 190.76 388.81 207.19 416.99 204.86 417.32 195.18"/><polygon class="cls-21" points="405.01 168.51 418.53 158.62 437.75 168.44 438.55 147.59 434.58 145.33 418.38 157.79 407.62 147.37 400.25 151.56 405.01 168.51"/><polygon class="cls-27" points="469.44 165.96 480.79 170.23 483.41 165.87 474.01 160.96 469.44 165.96"/></g><g id="main_character_copy_2" data-name="main character copy 2"><polygon class="cls-28" points="352.53 182.77 356.01 192.18 358.96 191.47 354.71 182.83 352.53 182.77"/><polygon class="cls-28" points="367.4 140.57 370.06 143.23 371.25 186.91 367.51 185.32 367.17 144.36 367.4 140.57"/><polygon class="cls-29" points="341.57 152.65 340.13 148.73 363.43 147.37 370.57 151.67 340.66 157.03 341.57 152.65"/><polygon class="cls-22" points="351.99 155.3 344.51 150.76 340.13 148.73 335 178.41 339.05 181.38 351.99 155.3"/><polygon class="cls-3" points="344.51 150.76 339.05 181.38 357.2 184.07 370.57 151.67 344.51 150.76"/><polygon class="cls-30" points="348.43 177.8 357.33 175.28 355.39 161.92 345.91 161.92 342.23 171.02 348.43 177.8"/><polygon class="cls-31" points="340.1 190.59 338.62 182.7 342.23 171.02 357.33 175.28 347.07 185.54 340.1 190.59"/><polygon class="cls-31" points="313.02 177.96 314.94 162.84 335.39 196.25 304.56 206.66 313.02 177.96"/><polygon class="cls-30" points="241.72 219.95 232.46 222.14 232.35 233.85 239.72 236.98 245.04 228.49 245.49 223.84 248.29 228.6 252.14 227.54 249.87 218.29 241.72 219.95"/><polygon class="cls-31" points="245.95 209.83 241.11 213 232.46 222.14 245.04 228.49 249.87 218.29 245.95 209.83"/><polygon class="cls-30" points="265.13 190.19 255.31 192.16 241.11 213 249.87 218.29 266.49 201.37 265.13 190.19"/><polygon class="cls-32" points="297.91 253.79 305.16 229.32 292.17 209.98 278.42 212.54 297.91 253.79"/><polygon class="cls-33" points="223.13 312.41 297.39 298.25 364.06 311.5 298.64 328.25 223.13 312.41"/><polygon class="cls-34" points="291.99 316.52 269.33 316.05 268.36 309.28 279.13 309.28 291.99 316.52"/><polygon class="cls-31" points="277.26 169.18 255.31 192.16 266.19 201.07 277.88 195.43 279.3 176.31 277.26 169.18"/><polygon class="cls-34" points="334.76 305.07 311.74 301.45 312.23 294.56 324.74 299.18 334.76 305.07"/><polygon class="cls-35" points="291.05 273.66 304.92 272.97 314.8 252.25 284.5 251.85 291.05 273.66"/><polygon class="cls-31" points="322.53 284.8 335.74 302.28 332.89 302.64 329.31 302.23 318.01 297.26 314.7 292.91 315.19 288.12 316.3 280.21 322.53 284.8"/><polygon class="cls-30" points="314.8 252.25 322.53 284.8 315.19 288.12 304.92 272.97 306.97 253.71 314.8 252.25"/><polygon class="cls-31" points="279.3 291.21 278.22 300.4 292.86 313.69 289.5 314.84 275.97 311.6 270.52 307.72 269.35 301.81 279.3 291.21"/><polygon class="cls-30" points="285.15 285.94 278.22 300.4 269.35 301.81 272.04 281.31 275.49 275.29 285.15 285.94"/><polygon class="cls-36" points="272.19 281.25 285.15 285.94 291.05 273.66 279.74 270.31 272.19 281.25"/><polygon class="cls-36" points="298.29 263.61 304.92 272.97 314.8 252.25 302.04 252.21 298.29 263.61"/><polygon class="cls-31" points="277.15 168.83 314.94 162.84 303.13 181.95 277.15 168.83"/><polygon class="cls-37" points="277.15 168.83 277.88 195.43 296.02 186.64 302.98 179.16 277.15 168.83"/><polygon class="cls-37" points="302.98 179.16 314.94 162.84 323.74 195.56 308.94 188.83 302.98 179.16"/><polygon class="cls-34" points="277.88 195.43 278.42 212.54 305.16 229.32 323.74 195.56 302.98 179.16 277.88 195.43"/><polygon class="cls-38" points="280.18 221.23 314.8 252.25 291.05 273.66 282.12 272.72 262.69 231.39 280.18 221.23"/><polygon class="cls-32" points="262.69 231.39 291.05 273.66 272.04 281.31 262.69 231.39"/><polygon class="cls-39" points="260.38 158.43 284.34 155.31 280.66 135.04 260.38 158.43"/><polygon class="cls-40" points="243.7 105.8 232.37 132.39 254.5 122.44 243.7 105.8"/><polygon class="cls-39" points="353.35 106.99 354.79 118.43 338.82 120.59 339.01 101.74 353.35 106.99"/><polygon class="cls-41" points="343.85 83.61 359.37 101.35 346.9 107.5 340.96 104.86 336.04 89.85 343.85 83.61"/><polygon class="cls-42" points="359.37 101.35 340.96 104.86 332.61 112.11 338.82 120.59 359.37 101.35"/><polygon class="cls-42" points="232.37 132.39 264.59 140.89 279.58 139.79 276.91 122.25 266.58 110.21 232.37 132.39"/><polygon class="cls-35" points="336.95 109.9 345.23 126.96 333.77 133.29 334.69 126.54 337.72 124.83 335.55 120.24 333.98 116.68 336.95 109.9"/><polygon class="cls-31" points="275.04 125 282.61 145.6 293 163.96 305.53 162.52 311.23 152.54 334.09 155.37 343.85 83.61 293.82 105.76 275.04 125"/><polygon class="cls-30" points="297.57 120.62 296.06 151.77 311.23 152.54 304.52 164.19 301.91 171.61 287.43 167.21 279.58 139.79 279.88 134.29 275.04 125 289.64 107.74 297.57 120.62"/><polygon class="cls-30" points="329.39 102.61 327.5 104.7 325.51 119.46 333.99 108.88 337.31 104.84 329.39 102.61"/><polygon class="cls-30" points="322.62 104.02 318.61 100.91 307.75 102.58 316.56 113.68 319.28 123.83 322.62 104.02"/><polygon class="cls-36" points="289.21 132.27 279.58 139.79 275.04 125 283.25 112.91 294.07 119.45 289.21 132.27"/><polygon class="cls-43" points="322.62 104.02 327.5 104.7 324.83 124.57 319.28 123.83 322.62 104.02"/><polygon class="cls-36" points="319.28 123.83 321.71 127.58 324.83 124.57 319.28 123.83"/><polygon class="cls-36" points="343.22 88.23 297.52 123.25 288.43 124.32 290.31 115.69 318.61 100.91 343.85 83.61 343.22 88.23"/><polygon class="cls-41" points="260.79 100.12 256.62 93.69 227.71 91.76 258 136.41 269.64 121.54 269.63 111.23 260.79 100.12"/><polygon class="cls-40" points="252.37 105.44 227.71 91.76 266.94 80.41 264.65 95.33 252.37 105.44"/><polygon class="cls-41" points="314.67 66.11 278.85 59.94 252.37 105.44 291.19 86.52 314.67 66.11"/><polygon class="cls-39" points="330.87 97.28 337.31 104.84 329.39 102.61 330.87 97.28"/><polygon class="cls-35" points="302.39 129.43 321.47 128.99 333.24 134.56 318.46 148.69 302.39 129.43"/><polygon class="cls-44" points="311.98 136.59 318.19 133.22 325.15 138.78 321.31 142.54 316.32 141.74 311.98 136.59"/><polygon class="cls-45" points="311.98 136.59 325.15 138.78 328.99 135.03 307.64 131.44 311.98 136.59"/><polygon class="cls-35" points="291.26 118.5 289.21 132.27 270.32 129.86 270.77 126.66 275.04 125 284.76 126.09 285.5 120.81 291.26 118.5"/><polygon class="cls-36" points="311.23 152.54 290.82 149.79 301.91 171.61 311.23 152.54"/><polygon class="cls-39" points="269.63 111.23 258 136.41 291.26 118.5 286.28 109.75 269.63 111.23"/><path class="cls-24" d="M336.74,110.82a2.92,2.92,0,1,1-3.4-2.36A2.92,2.92,0,0,1,336.74,110.82Z"/><path class="cls-24" d="M318.62,108.21a2.92,2.92,0,1,1-3.39-2.35A2.92,2.92,0,0,1,318.62,108.21Z"/><polygon class="cls-42" points="351.54 77.46 297.57 120.62 252.37 105.44 298.96 90.38 351.54 77.46"/><polygon class="cls-46" points="351.54 77.46 328.5 57.37 252.37 105.44 351.54 77.46"/><polygon class="cls-47" points="232.37 132.39 279.58 139.79 260.38 158.43 232.37 132.39"/><polygon class="cls-30" points="269.35 301.81 275.97 311.6 295.86 313.04 291.99 316.52 268.36 309.28 269.35 301.81"/><polygon class="cls-37" points="285.82 307.3 282.11 313.5 285.15 314.43 288.24 309.5 285.82 307.3"/><polygon class="cls-30" points="315.19 288.12 318.01 297.26 338.77 301.75 334.76 305.07 312.23 294.56 315.19 288.12"/><polygon class="cls-37" points="329.56 294.11 325.04 300.54 327.58 301.73 331.57 296.76 329.56 294.11"/><polygon class="cls-28" points="314.8 252.25 262.69 231.39 278.42 212.54 314.8 252.25"/><polygon class="cls-30" points="339.05 181.38 319.81 202.65 335.39 207.75 348.51 184.01 339.05 181.38"/><polygon class="cls-29" points="359.05 154.31 357.47 158.73 363.28 158.88 364.87 154.77 359.05 154.31"/><polygon class="cls-22" points="359.92 155.22 359.05 157.83 362.71 158.09 363.47 155.6 359.92 155.22"/><polygon class="cls-28" points="337.82 127.89 347.91 133.8 362.26 138.68 362.39 141.25 346.95 136.6 337.36 131.31 337.57 129.79 337.82 127.89"/><polygon class="cls-28" points="367.79 139.21 368.15 138.08 379.7 128.22 379.72 129.76 379.65 131.35 368.7 140.51 367.79 139.21"/><polygon class="cls-48" points="362.26 138.68 368.15 138.08 370.12 139.24 370.06 143.23 367.17 144.36 361.45 140.85 362.26 138.68"/><polygon class="cls-32" points="367.51 184.22 356.01 192.18 360.3 193.08 371.25 186.91 367.51 184.22"/></g><g id="running_character_copy_2" data-name="running character copy 2"><polygon class="cls-33" points="566.55 278 646.89 268.32 711.89 277.67 640.22 294 566.55 278"/><polygon class="cls-10" points="692.12 252.87 689.85 267.46 695.16 268.63 705.39 242.58 701.1 240.85 692.12 252.87"/><polygon class="cls-11" points="679.71 245.18 684.22 251.44 689.85 267.46 701.1 240.85 689.6 236.77 679.71 245.18"/><polygon class="cls-10" points="602.84 271.77 587.78 275.69 587.62 280.4 619.15 280.87 619.62 275.85 602.84 271.77"/><polygon class="cls-11" points="613.82 257.18 603.15 262.59 587.78 275.69 619.62 275.85 620.09 265.42 613.82 257.18"/><polygon class="cls-16" points="613.98 233.18 601.97 236.94 603.15 262.59 620.09 265.42 627.15 243.06 613.98 233.18"/><polygon class="cls-17" points="650.81 229.18 651.51 245.53 684.22 251.44 689.6 236.77 672.1 228 650.81 229.18"/><polygon class="cls-17" points="624.33 191.92 614.92 200.23 601.97 236.94 626.68 243.77 646.13 222.19 624.33 191.92"/><polygon class="cls-18" points="636.57 205.88 634.21 218.43 651.51 245.53 672.1 228 663.23 197.09 636.57 205.88"/><polygon class="cls-16" points="627.31 189.88 614.92 200.23 634.21 218.43 663.23 197.09 659.63 188.94 627.31 189.88"/><polygon class="cls-12" points="603.46 139.68 623.46 128.54 635.47 132.78 641.43 152.54 654.29 156.46 659.63 188.94 627.62 201.64 614.92 200.23 596.56 175.13 594.68 151.52 603.46 139.68"/><polygon class="cls-49" points="582.44 137.79 603.31 151.6 611.15 142.5 618.21 124.62 582.44 137.79"/><polygon class="cls-50" points="577.92 68.14 551.08 69.65 544.42 93.74 596.45 80.95 585.8 69.92 577.92 68.14"/><polygon class="cls-51" points="585.3 63.33 574.41 57.85 551.08 69.65 589.15 77.41 585.3 63.33"/><polygon class="cls-50" points="603.97 72.01 603.23 58.04 574.41 57.85 589.15 77.41 603.97 72.01"/><polygon class="cls-51" points="594.31 91.99 589.15 77.41 603.23 58.04 617.4 75.4 601.73 93.97 594.31 91.99"/><polygon class="cls-50" points="595.03 88.13 598.33 83.93 617.4 75.4 618.65 86.4 612.28 105.68 598.8 106.3 595.03 88.13"/><polygon class="cls-49" points="601.76 103.8 621.19 108.69 620.34 102.08 613.29 94.84 601.76 103.8"/><polygon class="cls-52" points="610.21 104.46 621.19 108.69 623.46 128.54 611.15 142.5 611.87 131.26 603.06 133.86 590.37 115.48 589.15 77.41 598.33 83.93 602.49 98.72 613.84 95.89 610.21 104.46"/><polygon class="cls-53" points="544.42 93.74 561.34 146.79 603.06 133.86 589.15 77.41 544.42 93.74"/><polygon class="cls-52" points="557.24 102.31 564.39 101.84 568.9 106.9 572.42 98.24 579.82 94.93 585.34 94.23 577.91 115.64 552.75 105.68 557.24 102.31"/><path class="cls-54" d="M563.53,109.42a2.49,2.49,0,1,1-3.29-1.26A2.49,2.49,0,0,1,563.53,109.42Z"/><path class="cls-54" d="M581.84,102.86a2.49,2.49,0,1,1-3.29-1.25A2.48,2.48,0,0,1,581.84,102.86Z"/><polygon class="cls-49" points="570.71 112.93 569.01 118.56 574.25 120.85 577.91 115.64 570.71 112.93"/><polygon class="cls-55" points="564.39 101.84 569.01 118.56 577.91 115.64 572.42 98.24 564.39 101.84"/><polygon class="cls-56" points="563.44 97.29 564.39 101.84 552.75 105.68 563.44 97.29"/><polygon class="cls-56" points="572.16 93.39 585.34 94.23 572.42 98.24 572.16 93.39"/><polygon class="cls-49" points="570.62 127.22 583.21 123.05 590.38 129.46 571.26 135.87 570.62 127.22"/><polygon class="cls-53" points="606.3 90.17 610.21 104.46 620.34 102.08 618.65 86.4 606.3 90.17"/><polygon class="cls-49" points="615.8 90.4 610.39 92.33 612.14 97.44 615.8 90.4"/><polygon class="cls-26" points="582.97 124.64 585.44 127.14 572.65 131.08 572.41 128.34 582.97 124.64"/><polygon class="cls-26" points="582.39 163.08 582.87 166.28 586.98 166.45 587.05 162.92 582.39 163.08"/><polygon class="cls-52" points="574.36 170.93 563.66 178.59 574.39 181.73 574.36 170.93"/><polygon class="cls-53" points="583.64 162.6 579.37 160.63 563.81 162.29 563.66 178.59 582.55 171.63 583.64 162.6"/><polygon class="cls-52" points="589.95 160.62 611.61 159.76 622.6 163.06 619.68 180.69 589.16 173.88 582.46 165.81 589.95 160.62"/><polygon class="cls-11" points="635.47 132.78 610.05 159.76 619.68 180.69 654.29 156.46 635.47 132.78"/><polygon class="cls-11" points="579.47 160.62 589.95 160.62 589.16 173.88 581.29 172.3 579.47 160.62"/><polygon class="cls-12" points="581.08 162.06 588.06 161.99 587.92 167.49 581.98 167.39 581.08 162.06"/></g><g id="character_with_the_phone_copy_2" data-name="character with the phone copy 2"><polygon class="cls-33" points="121.89 286.67 180.89 276.67 238.55 285.17 186.64 299.75 121.89 286.67"/><polygon class="cls-11" points="195.13 275.96 207.59 280.86 207.32 284.47 183.14 283.88 182.89 280.13 195.13 275.96"/><polygon class="cls-57" points="187.38 260.44 192.96 265.95 207.59 280.86 182.89 280.13 182.39 271.08 187.38 260.44"/><polygon class="cls-11" points="157.97 282.55 167.39 286.63 167.76 290.88 147.22 291.12 147.25 286.97 157.97 282.55"/><polygon class="cls-57" points="158.24 268.12 158.72 273.58 167.39 286.63 147.25 286.97 147.35 275.19 158.24 268.12"/><polygon class="cls-58" points="191.19 244.84 192.96 265.95 182.39 271.08 174.3 253.5 170.62 234.06 191.19 244.84"/><polygon class="cls-58" points="162.55 256.92 161.37 239.19 145 253.35 147.35 275.19 158.72 273.58 162.55 256.92"/><polygon class="cls-59" points="166.55 241.09 145 253.35 162.55 256.75 166.55 241.09"/><polygon class="cls-59" points="174.3 253.5 191.19 244.84 177.78 237.72 170.61 245.66 174.3 253.5"/><polygon class="cls-17" points="182.07 200.87 186.83 202.64 191.19 244.84 145 253.35 142.86 233.74 164.5 195.15 182.07 200.87"/><polygon class="cls-9" points="162.67 218.43 173.35 228.37 144.19 245.89 143.27 238.13 162.67 218.43"/><polygon class="cls-11" points="172.54 155.54 175.4 140.02 182.2 140.83 205.75 152.68 197.72 168.33 193.91 169.69 172.54 155.54"/><polygon class="cls-27" points="199.35 131.44 205.14 133.41 213.89 162.25 197.72 168.33 194.93 139.1 199.35 131.44"/><polygon class="cls-58" points="200.85 111.84 185.33 111.84 190.13 121.54 198.91 128.89 205.75 123.2 200.85 111.84"/><polygon class="cls-59" points="194.86 124.23 205.75 123.2 205.14 133.41 194.93 139.1 193.5 125.42 194.86 124.23"/><polygon class="cls-3" points="187.72 119.53 204.02 118.17 199.93 134.47 195.44 136.09 187.72 119.53"/><polygon class="cls-29" points="186.76 113.17 204.02 118.17 200.99 119.05 193.09 133.82 186.76 113.17"/><polygon class="cls-22" points="185.84 115 181.66 131.75 195.47 135.9 200.99 119.05 185.84 115"/><polygon class="cls-18" points="185.69 118.12 195.44 121.03 193.77 128.85 192.22 132.1 191.55 130.6 184.36 128.68 185.69 118.12"/><polygon class="cls-11" points="180.3 186.03 187.1 193.59 186.83 202.64 160.42 211.08 156.61 199.64 180.3 186.03"/><polygon class="cls-16" points="130.91 137.52 124.85 141.08 137.82 153.63 162.26 142.37 130.91 137.52"/><polygon class="cls-57" points="182.75 160.44 194.01 169.59 187.1 193.59 170.22 197.6 153.61 206.99 138.64 184.67 182.75 160.44"/><polygon class="cls-12" points="177.03 150.09 187.65 157.17 194.01 169.59 149.26 183.03 130.34 164.11 137.82 153.63 177.03 150.09"/><polygon class="cls-57" points="171.28 155.1 161.51 168.33 137.82 153.63 142.34 146.12 173.49 137.57 187.65 157.17 171.28 155.1"/><polygon class="cls-51" points="179.63 78.39 191.24 75.54 186.43 99.73 179.63 78.39"/><polygon class="cls-50" points="166.22 71.31 191.24 75.54 183.98 85.5 137.61 82.96 151.1 72.39 166.22 71.31"/><polygon class="cls-22" points="137.23 81.4 134.39 68.04 162.87 61.22 191.24 75.54 148.93 77.18 137.23 81.4"/><polygon class="cls-51" points="130.6 104.64 113.71 109.27 124.44 77.29 134.39 68.04 148.93 77.18 130.6 104.64"/><polygon class="cls-50" points="129.47 127.16 126.8 130.07 124.85 141.08 142.34 146.12 141.71 129.12 129.47 127.16"/><polygon class="cls-51" points="127.64 106.87 113.71 109.27 126.8 130.07 136.31 133.02 134.79 115.42 127.64 106.87"/><polygon class="cls-50" points="113.71 109.27 128.01 115.45 147.04 113.61 148.93 77.18 113.71 109.27"/><polygon class="cls-59" points="142.36 134.17 136.31 133.02 133.19 126.25 142.09 115.3 142.36 134.17"/><polygon class="cls-58" points="145.99 102.91 139.46 103.41 136.54 111 134.93 116 141.34 122.35 136.31 133.02 142.34 146.12 171.28 155.1 167.66 132.68 158.29 99.37 145.99 102.91"/><polygon class="cls-59" points="177.93 130.63 171.28 155.1 155.09 150.13 144.81 141.73 149.83 140.86 159.82 129.88 177.93 130.63"/><polygon class="cls-60" points="148.82 77.58 183.87 85.89 191.55 130.6 149.83 140.86 139.35 103.81 148.82 77.58"/><polygon class="cls-58" points="180.69 96.57 175.33 102.72 169.81 112.72 164.53 115.11 155.67 107.04 147.05 104.32 152.69 99.22 158.84 96.68 160.96 100.61 166.22 103.23 168.1 98.85 168.45 95.71 174.26 94.63 180.69 96.57"/><polygon class="cls-59" points="166.72 111.03 171.67 113.36 168.12 116.72 164.53 115.11 166.72 111.03"/><rect class="cls-61" x="162.64" y="99.51" width="7.35" height="14.94" transform="translate(-20.73 42.81) rotate(-13.81)"/><polygon class="cls-50" points="174.07 93.31 180.69 96.57 168.61 95.6 174.07 93.31"/><polygon class="cls-50" points="158.84 96.68 152.47 97 146.98 104.35 158.84 96.68"/><path class="cls-54" d="M171.77,101.24A2.64,2.64,0,1,0,173.7,98,2.64,2.64,0,0,0,171.77,101.24Z"/><path class="cls-54" d="M153,105.53a2.64,2.64,0,1,0,1.94-3.19A2.64,2.64,0,0,0,153,105.53Z"/><polygon class="cls-60" points="141.34 122.35 133.19 126.25 128.01 115.45 136.54 111 141.34 122.35"/><polygon class="cls-59" points="134.79 115.42 132.11 117.05 136.06 120.58 134.79 115.42"/><polygon class="cls-57" points="159.43 125.61 169.36 119.42 180.01 121.21 174.4 127.78 168.56 129.29 159.43 125.61"/><polygon class="cls-10" points="162.94 125.12 169.71 121.86 176.55 122.51 173.72 125.36 167.99 126.63 162.94 125.12"/><polygon class="cls-26" points="163.88 125.4 176.19 122.88 176.55 122.51 169.7 121.83 162.94 125.12 163.88 125.4"/><polygon class="cls-29" points="164.37 200.46 170.22 197.6 178.39 220.2 173.35 228.37 160.97 207.67 164.37 200.46"/><polygon class="cls-2" points="134.97 219.79 127.61 214.62 133.33 209.44 170.22 197.6 167.77 202.09 134.97 219.79"/><polygon class="cls-12" points="167.77 202.09 127.61 214.62 143.27 238.13 173.35 228.37 167.77 202.09"/><polygon class="cls-9" points="150.89 207.38 136.39 211.88 150.26 236 157.64 233.75 150.89 207.38"/><polygon class="cls-58" points="152.66 221.42 149.53 231.91 153.78 234.8 164.74 231.19 163.69 224.69 152.66 221.42"/><polygon class="cls-58" points="153.26 214.88 147.53 224.41 153.64 220.5 162.67 218.43 162.89 215.63 153.26 214.88"/><polygon class="cls-60" points="145.45 209.72 144.22 220.06 149.53 231.91 163.69 224.69 153.26 214.88 145.45 209.72"/><polygon class="cls-27" points="141.77 180.04 133.51 199.13 144.22 220.06 153.26 214.88 149.94 196.38 141.77 180.04"/><polygon class="cls-11" points="130.34 164.11 133.51 199.13 149.87 196.1 151.71 182.49 130.34 164.11"/><polygon class="cls-60" points="194.93 139.1 187.65 133.48 193.77 128.85 196.22 131.03 194.93 139.1"/></g></g></svg>