<svg xmlns="http://www.w3.org/2000/svg" viewBox="0 0 900 350"><defs><style>.cls-1,.cls-12{fill:#dddddc;}.cls-13,.cls-2{fill:#ececeb;}.cls-15,.cls-3{fill:#ba8e2d;}.cls-16,.cls-4{fill:#e1a940;}.cls-5,.cls-9{fill:#d0cecd;}.cls-6{fill:#8f8f8f;}.cls-11,.cls-7{fill:#c4c4c2;}.cls-17,.cls-8{fill:#f0bc67;}.cls-10,.cls-11,.cls-12,.cls-13,.cls-14,.cls-15,.cls-16,.cls-17,.cls-38,.cls-39,.cls-40,.cls-41,.cls-42,.cls-43,.cls-44,.cls-45,.cls-46,.cls-47,.cls-48,.cls-49,.cls-50,.cls-52,.cls-60,.cls-61,.cls-63,.cls-76,.cls-9{fill-rule:evenodd;}.cls-10,.cls-19{fill:#a3a1a1;}.cls-14,.cls-24,.cls-36{fill:#2b2c2b;}.cls-14,.cls-24,.cls-53{opacity:0.1;}.cls-18{fill:#b0aeae;}.cls-20,.cls-47{fill:#9c782c;}.cls-21{fill:#858686;}.cls-22,.cls-53{fill:#2b2b2b;}.cls-23{fill:#474748;}.cls-25,.cls-46{fill:#836528;}.cls-26{fill:#573a2f;}.cls-27{fill:#bc8f2d;}.cls-28{fill:#33231b;}.cls-29,.cls-41{fill:#b38b2e;}.cls-30,.cls-44{fill:#6f7273;}.cls-31,.cls-43{fill:#494749;}.cls-32,.cls-45{fill:#4f5353;}.cls-33{fill:#c3c3c3;}.cls-34{fill:#755041;}.cls-35{fill:#7f5b4c;}.cls-37,.cls-52{fill:#fff;}.cls-38{fill:#916d5a;}.cls-39{fill:#755446;}.cls-40,.cls-51{fill:#2a2a2a;}.cls-40{stroke:#74cee4;stroke-miterlimit:2.61;stroke-width:0.22px;opacity:0.15;}.cls-42{fill:#51362a;}.cls-48,.cls-66{fill:#755924;}.cls-49{fill:#eaeceb;}.cls-50{fill:#98796a;}.cls-54{fill:#825941;}.cls-55,.cls-61{fill:#a67e62;}.cls-56{fill:#484749;}.cls-57{fill:#be9b82;}.cls-58{fill:#4f5253;}.cls-59{fill:#c8ac9a;}.cls-60,.cls-62{fill:#cbad2d;}.cls-63{fill:#cbcac8;}.cls-64{fill:#272626;}.cls-65{fill:#404040;}.cls-67,.cls-76{fill:#e4c723;}.cls-68{fill:#c2977a;}.cls-69{fill:#debca4;}.cls-70{fill:#8a6651;}.cls-71{fill:#474747;}.cls-72{fill:#333;}.cls-73{fill:#737373;}.cls-74{fill:#505353;}.cls-75{fill:#e8c9b6;}</style></defs><title>explorers_Entertainer_ESFP_strengths</title><g id="illustration_copy" data-name="illustration copy"><g id="Layer_8_copy" data-name="Layer 8 copy"><polygon class="cls-1" points="80.19 30.61 16.94 37.24 83.25 52.55 105.69 63.26 176.08 31.13 103.65 40.31 80.19 30.61"/><polygon class="cls-1" points="834.81 82.89 882.75 79.58 832.77 98.45 775.22 90.63 733.82 86.72 796.81 71.16 834.81 82.89"/><polygon class="cls-2" points="800.38 62.24 835.83 79.07 882.75 79.58 833.28 88.51 800.63 77.03 742.23 77.28 800.38 62.24"/><polygon class="cls-2" points="16.94 37.24 77.64 25.51 108.24 32.15 176.08 31.13 103.14 47.96 75.09 36.73 16.94 37.24"/></g><g id="Layer_9_copy" data-name="Layer 9 copy"><polygon class="cls-3" points="38.19 207.77 30.37 199.95 13.71 214.23 32.58 275.61 49.07 267.45 38.19 207.77"/><polygon class="cls-4" points="50.09 198.93 30.37 199.95 48.22 266.6 65.74 257.42 50.09 198.93"/><polygon class="cls-4" points="841.95 183.63 850.36 177.76 861.33 191.54 847.3 251.72 832.51 250.19 841.95 183.63"/><polygon class="cls-3" points="828.43 175.72 850.36 177.76 838.12 245.35 813.64 236.16 828.43 175.72"/><polygon class="cls-5" points="807.01 126.5 813.13 123.44 835.91 144.19 822.99 236.34 789.67 232.25 807.01 126.5"/><polygon class="cls-6" points="80.19 170.88 67.95 157.11 42.95 182.1 60.81 264.73 88.35 254.53 80.19 170.88"/><polygon class="cls-7" points="79.68 253.51 67.95 157.11 101.61 158.13 116.91 240.25 79.68 253.51"/><polygon class="cls-6" points="804.29 225.45 813.13 123.44 784.57 125.14 780.49 217.29 804.29 225.45"/><polygon class="cls-7" points="47.88 190.94 53.07 186.52 55.07 196.93 50.09 200.04 47.88 190.94"/><polygon class="cls-7" points="57.15 184.31 62.93 179.47 64.72 191.03 59.36 194.34 57.15 184.31"/><polygon class="cls-4" points="16.98 217.62 20.81 214.36 22.47 221.75 18.96 224.1 16.98 217.62"/><polygon class="cls-4" points="23.57 212.65 27.39 209.39 29.37 216.74 25.55 219.13 23.57 212.65"/><polygon class="cls-4" points="21.51 231.35 25.33 228.09 26.99 235.48 23.48 237.83 21.51 231.35"/><polygon class="cls-4" points="28.1 226.38 31.77 223.31 33.58 230.51 30.07 232.86 28.1 226.38"/><polygon class="cls-4" points="26.16 244.99 29.99 241.73 31.65 249.13 28.14 251.48 26.16 244.99"/><polygon class="cls-4" points="32.75 240.02 36.43 236.95 38.24 244.16 34.73 246.5 32.75 240.02"/><polygon class="cls-7" points="51.54 207.81 56.77 204.41 58.72 213.81 53.75 216.91 51.54 207.81"/><polygon class="cls-7" points="60.93 202.2 66.16 198.8 68.12 208.2 63.14 211.3 60.93 202.2"/><polygon class="cls-2" points="832.6 150.05 827.41 145.63 825.41 156.04 830.39 159.15 832.6 150.05"/><polygon class="cls-2" points="823.33 143.42 817.55 138.58 815.77 150.14 821.12 153.45 823.33 143.42"/><polygon class="cls-8" points="858.79 195.15 856.22 192.08 854.91 199.01 857.4 201.19 858.79 195.15"/><polygon class="cls-8" points="854.17 190.52 851.32 187.15 850.08 194.85 852.76 197.19 854.17 190.52"/><polygon class="cls-8" points="855.39 209.31 852.82 206.24 851.51 213.17 854 215.35 855.39 209.31"/><polygon class="cls-8" points="850.77 204.67 847.91 201.31 846.68 209.01 849.36 211.34 850.77 204.67"/><polygon class="cls-8" points="852.58 223.16 850.02 220.09 848.7 227.02 851.19 229.21 852.58 223.16"/><polygon class="cls-8" points="847.97 218.53 845.11 215.16 843.87 222.87 846.55 225.2 847.97 218.53"/><polygon class="cls-2" points="829.28 168.75 824.35 164.5 822.35 174.92 827.33 178.02 829.28 168.75"/><polygon class="cls-2" points="820.1 162.55 815.09 158.3 813.3 169.86 818.23 172.66 820.1 162.55"/><polygon class="cls-2" points="825.88 189.75 820.95 185.5 818.95 195.91 823.93 199.02 825.88 189.75"/><polygon class="cls-2" points="816.7 183.54 811.68 179.29 809.9 190.86 814.83 193.66 816.7 183.54"/></g><g id="Layer_2_copy" data-name="Layer 2 copy"><polygon class="cls-9" points="408.66 191.79 416.82 180.06 728.8 181.93 786.61 207.09 412.74 233.1 408.66 191.79"/><polygon class="cls-10" points="746.82 220.35 786.61 207.09 899.67 269.08 791.71 284.62 705 248.92 746.82 220.35"/><polygon class="cls-11" points="409.17 244.84 414.95 205.05 786.61 207.09 748.86 247.9 639.71 267.28 409.17 244.84"/><polygon class="cls-9" points="813.13 266.26 748.86 247.9 479.56 233.62 389.79 279.52 648.89 320.32 813.13 266.26"/><polygon class="cls-11" points="743.76 305.02 832.51 328.48 900.17 269.25 748.86 247.9 697.86 275.44 743.76 305.02"/><polygon class="cls-10" points="478.54 319.3 603.33 343.79 832.51 328.48 697.86 275.44 419.37 272.89 478.54 319.3"/><polygon class="cls-12" points="135.44 215.93 98.04 228.85 0.5 287.73 141.56 288.02 323.82 255.38 423.11 249.26 425.83 227.49 350.34 197.57 135.44 215.93"/><polygon class="cls-11" points="190.97 324.49 68.8 328.82 0.17 288.07 266.26 258.58 261.36 304.6 190.97 324.49"/><polygon class="cls-10" points="346.26 323.38 301.72 350.42 68.8 328.82 261.51 281.24 346.26 323.38"/><polygon class="cls-13" points="603.33 343.79 419.37 272.89 479.56 233.62 412.77 196.11 360.2 161.53 406.04 227.89 270.78 298.22 301.72 350.42 603.33 343.79"/><polygon class="cls-11" points="355.11 191.45 308.18 186.69 176.59 187.71 98.04 228.85 317.87 226.22 355.11 191.45"/></g><g id="Layer_10_copy" data-name="Layer 10 copy"><polygon class="cls-14" points="757.55 322.2 764.29 320.99 771 322.93 764.08 324.66 757.55 322.2"/><polygon class="cls-15" points="763.8 313.35 765.75 317.47 765.73 323.05 762.58 322.7 763.8 313.35"/><polygon class="cls-16" points="761.31 309.01 755.24 311.29 765.75 317.47 770.38 311.69 761.31 309.01"/><polygon class="cls-17" points="761.85 303.92 755.24 311.29 770.38 311.69 761.85 303.92"/><polygon class="cls-14" points="85.59 266.65 92.66 265.38 99.69 267.41 92.43 269.23 85.59 266.65"/><polygon class="cls-15" points="92.15 257.37 94.19 261.69 94.17 267.55 90.87 267.18 92.15 257.37"/><polygon class="cls-16" points="89.53 252.82 83.16 255.21 94.19 261.69 99.05 255.62 89.53 252.82"/><polygon class="cls-17" points="90.1 247.47 83.16 255.21 99.05 255.62 90.1 247.47"/><polygon class="cls-14" points="846.21 292.55 852.2 291.48 858.16 293.19 852.01 294.74 846.21 292.55"/><polygon class="cls-15" points="851.77 284.69 853.5 288.35 853.48 293.31 850.68 292.99 851.77 284.69"/><polygon class="cls-16" points="849.55 280.83 844.16 282.86 853.5 288.35 857.61 283.21 849.55 280.83"/><polygon class="cls-17" points="854.09 274.42 844.16 282.86 857.61 283.21 854.09 274.42"/><polygon class="cls-14" points="797.09 296.1 803.75 294.9 810.38 296.81 803.54 298.53 797.09 296.1"/><polygon class="cls-15" points="803.27 287.34 805.2 291.42 805.17 296.94 802.06 296.59 803.27 287.34"/><polygon class="cls-16" points="800.8 283.05 794.8 285.3 805.2 291.42 809.78 285.7 800.8 283.05"/><polygon class="cls-17" points="804.18 268.92 794.8 285.3 809.78 285.7 804.18 268.92"/><polygon class="cls-14" points="83.78 312.11 88.73 311.22 93.64 312.64 88.57 313.91 83.78 312.11"/><polygon class="cls-15" points="88.37 305.61 89.8 308.63 89.78 312.73 87.47 312.47 88.37 305.61"/><polygon class="cls-16" points="86.54 302.43 82.08 304.1 89.8 308.63 93.19 304.39 86.54 302.43"/><polygon class="cls-17" points="89.04 291.95 82.08 304.1 93.19 304.39 89.04 291.95"/><polygon class="cls-14" points="114.46 299.09 120.84 297.94 127.18 299.77 120.64 301.41 114.46 299.09"/><polygon class="cls-15" points="120.38 290.71 122.22 294.61 122.2 299.89 119.22 299.56 120.38 290.71"/><polygon class="cls-16" points="118.02 286.61 112.28 288.76 122.22 294.61 126.6 289.14 118.02 286.61"/><polygon class="cls-17" points="118.14 276.33 112.28 288.76 126.6 289.14 118.14 276.33"/><polygon class="cls-14" points="776.44 266.42 780.92 265.61 785.38 266.89 780.78 268.05 776.44 266.42"/><polygon class="cls-15" points="780.6 260.53 781.73 261.71 781.88 266.98 779.79 266.75 780.6 260.53"/><polygon class="cls-16" points="778.94 257.65 774.9 259.16 780.06 264.23 784.97 259.42 778.94 257.65"/><polygon class="cls-17" points="781.14 253.21 774.9 259.16 784.97 259.42 781.14 253.21"/><polygon class="cls-14" points="126.26 255.74 130.41 255 134.53 256.19 130.28 257.25 126.26 255.74"/><polygon class="cls-15" points="130.11 250.29 131.16 251.39 131.29 256.26 129.36 256.05 130.11 250.29"/><polygon class="cls-16" points="128.58 247.63 124.84 249.03 129.61 253.72 134.16 249.27 128.58 247.63"/><polygon class="cls-17" points="130.62 243.52 124.84 249.03 134.16 249.27 130.62 243.52"/></g><g id="Layer_7_copy" data-name="Layer 7 copy"><polygon class="cls-7" points="598.57 20.07 608.09 3.75 666.58 33.67 657.05 172.41 580.21 171.05 598.57 20.07"/><polygon class="cls-6" points="550.96 22.11 555.73 192.81 600.61 192.81 608.09 3.75 550.96 22.11"/><polygon class="cls-2" points="611.66 55.95 623.9 61.22 622.12 78.52 610.38 74.35 611.66 55.95"/><polygon class="cls-6" points="613.96 59.77 613.11 72.82 619.91 75.29 621.52 63.09 613.96 59.77"/><polygon class="cls-2" points="628.36 62.88 626.96 80.34 638.18 84.81 639.97 67.85 628.36 62.88"/><polygon class="cls-6" points="630.91 67.21 629.64 77.92 636.52 80.73 637.54 69.38 630.91 67.21"/><polygon class="cls-2" points="609.62 88.76 621.86 92.71 620.2 109.42 608.35 107.17 609.62 88.76"/><polygon class="cls-6" points="611.91 92.59 611.07 105.64 618.16 106.61 619.44 94.63 611.91 92.59"/><polygon class="cls-2" points="626.71 94.24 624.92 113.16 636.14 117.62 638.31 97.94 626.71 94.24"/><polygon class="cls-6" points="628.75 97.81 627.6 110.73 634.49 113.54 635.89 99.85 628.75 97.81"/><polygon class="cls-3" points="763.65 80.6 729.48 23.47 681.88 40.82 687.66 170.88 744.27 169.35 763.65 80.6"/><polygon class="cls-4" points="729.48 197.91 729.48 23.47 791.03 46.6 777.43 205.39 729.48 197.91"/><polygon class="cls-3" points="150.23 72.27 130.85 41.67 84.95 79.41 97.7 228.85 146.66 229.88 150.23 72.27"/><polygon class="cls-6" points="775.39 188.73 757.02 218.65 570.01 215.93 571.37 115.96 779.47 130.93 775.39 188.73"/><polygon class="cls-5" points="740.02 118 793.07 141.13 787.63 158.13 786.27 207.09 757.02 218.65 763.14 145.21 740.02 118"/><polygon class="cls-18" points="756.35 118 763.14 145.21 787.63 158.13 802.59 154.05 801.23 140.45 756.35 118"/><polygon class="cls-1" points="750.9 114.6 774.03 111.03 805.48 136.71 802.59 154.05 771.99 131.6 750.9 114.6"/><polygon class="cls-19" points="771.99 131.6 763.14 145.21 575.45 133.65 571.37 115.96 771.99 131.6"/><polyline class="cls-4" points="461.19 89.44 484.32 55.44 537.7 78.56 532.6 149.97 529.2 180.57 510.16 200.29 482.28 193.49 461.19 86.72"/><polygon class="cls-6" points="330.62 41.24 307 0.5 240.75 24.42 241.87 187.2 303.08 200.72 330.62 41.24"/><polygon class="cls-7" points="369.39 190.18 370.5 20.25 307 0.5 303.08 200.72 369.39 190.18"/><polygon class="cls-3" points="419.03 180.57 418.35 76.52 484.32 55.44 485 194.17 419.03 180.57"/><polygon class="cls-5" points="587.69 112.56 599.25 107.12 774.03 111.03 771.99 131.6 585.65 124.8 587.69 112.56"/><polygon class="cls-4" points="130.85 41.67 226.57 56.12 222.49 208.11 144.28 223.41 130.85 41.67"/><polygon class="cls-8" points="91.24 89.1 93.11 111.88 103.99 107.46 102.12 82.47 91.24 89.1"/><polygon class="cls-8" points="110.28 77.03 112.32 104.06 124.9 97.77 122.78 68.23 110.28 77.03"/><polygon class="cls-8" points="94.55 126.84 96.42 149.63 107.31 145.21 105.56 121.66 94.55 126.84"/><polygon class="cls-8" points="113.6 117.83 115.64 142.83 128.22 138.58 126.09 111.33 113.6 117.83"/><polygon class="cls-20" points="92.88 91.44 100.46 87.29 100.91 92.65 93.32 95.84 92.88 91.44"/><polygon class="cls-20" points="93.74 98.42 94.72 108.08 101.99 105.21 101.02 95.52 93.74 98.42"/><polygon class="cls-20" points="112.49 79.5 120.91 74.65 121.5 82.05 112.92 86.13 112.49 79.5"/><polygon class="cls-20" points="113.6 88.59 114.28 98.96 122.44 95.22 121.59 85.11 113.6 88.59"/><polygon class="cls-20" points="96.25 128.61 104.1 125.04 104.61 130.78 96.83 134.09 96.25 128.61"/><polygon class="cls-20" points="97.08 136.58 104.48 133.45 105.37 143.34 97.91 146.33 97.08 136.58"/><polygon class="cls-20" points="115.76 119.62 124.05 115.41 124.82 122.23 116.4 125.99 115.76 119.62"/><polygon class="cls-20" points="116.85 130.01 125.26 126.38 125.77 136.77 117.93 139.38 116.85 130.01"/><polygon class="cls-8" points="98.97 166.12 100.84 188.9 111.73 184.48 109.98 160.93 98.97 166.12"/><polygon class="cls-8" points="118.02 157.11 120.06 182.1 132.64 177.85 130.51 150.6 118.02 157.11"/><polygon class="cls-20" points="100.67 167.88 108.52 164.31 109.03 170.05 101.25 173.37 100.67 167.88"/><polygon class="cls-20" points="101.5 175.85 108.9 172.73 109.79 182.61 102.33 185.61 101.5 175.85"/><polygon class="cls-20" points="120.18 158.89 128.47 154.69 129.24 161.51 120.82 165.27 120.18 158.89"/><polygon class="cls-20" points="121.27 169.28 129.68 165.65 130.19 176.04 122.35 178.66 121.27 169.28"/><polygon class="cls-5" points="248.16 44.3 263.55 40.81 263.3 71.41 248.5 73.71 248.16 44.3"/><polygon class="cls-21" points="250.71 47.19 260.57 45.15 260.57 55.9 250.88 57.47 250.71 47.19"/><polygon class="cls-21" points="251.12 60.19 259.96 58.85 259.96 58.85 260.4 58.87 260.24 68.42 251.25 69.95 251.12 60.19"/><polygon class="cls-5" points="274.01 38.85 290.92 35.28 290.67 68.61 273.33 70.39 274.01 38.85"/><polygon class="cls-21" points="276.56 42.26 287.01 40.47 287.18 52.29 276.47 53.65 276.56 42.26"/><polygon class="cls-21" points="276.9 56.96 287.1 55.77 287.35 65.04 276.39 66.31 276.9 56.96"/><polygon class="cls-5" points="248.59 89.57 264.32 86.5 265 115.9 249.01 118.68 248.59 89.57"/><polygon class="cls-5" points="274.26 84.91 274.52 114.61 291.6 112.52 291.01 81.53 274.26 84.91"/><polygon class="cls-21" points="250.8 92.65 251.14 102.78 262.02 100.9 261.6 90.37 250.8 92.65"/><polygon class="cls-21" points="251.31 106.16 261.85 104.28 262.45 113.11 251.65 115.1 251.31 106.16"/><polygon class="cls-21" points="276.9 87.89 287.86 85.4 288.29 96.43 277.15 98.31 276.9 87.89"/><polygon class="cls-21" points="277.66 101.69 288.29 99.81 288.71 109.84 277.41 110.73 277.66 101.69"/><polygon class="cls-5" points="250.37 137.63 267.55 135.08 268.14 163.9 251.22 163.82 250.37 137.63"/><polygon class="cls-5" points="275.03 134.4 275.15 163.99 292.43 164.18 292.37 132.36 275.03 134.4"/><polygon class="cls-21" points="253.18 141.21 264.57 139.5 264.74 149.53 253.52 149.88 253.18 141.21"/><polygon class="cls-21" points="253.78 153.19 264.57 152.94 264.91 160.84 253.69 160.84 253.78 153.19"/><polygon class="cls-21" points="277.83 137.8 289.56 136.36 289.82 147.41 278.26 148.09 277.83 137.8"/><polygon class="cls-21" points="278.09 151.49 289.73 151.41 289.56 160.54 278.51 160.33 278.09 151.49"/><polygon class="cls-8" points="425.49 89.44 443 85.36 443 95.73 425.49 98.96 425.49 89.44"/><polygon class="cls-20" points="427.92 91.18 440.62 88.17 440.71 93.69 427.96 96.16 427.92 91.18"/><polygon class="cls-8" points="451.76 83.83 471.91 79.33 472.16 90.93 452.01 94.37 451.76 83.83"/><polygon class="cls-20" points="454.69 85.32 468.85 82.26 469.1 89.02 454.69 91.69 454.69 85.32"/><polygon class="cls-8" points="425.62 111.52 442.77 108.46 443.15 120 425.62 121.72 425.62 111.52"/><polygon class="cls-20" points="428.04 113.43 440.28 111.52 440.48 117.77 428.04 119.24 428.04 113.43"/><polygon class="cls-8" points="451.5 107.63 452.01 119.11 472.67 117.15 472.59 104.4 451.5 107.63"/><polygon class="cls-20" points="454.65 110.1 469.61 107.72 469.87 114.52 454.74 116.13 454.65 110.1"/><polygon class="cls-8" points="493.84 79.75 493.5 90.8 509.31 95.05 509.65 85.02 493.84 79.75"/><polygon class="cls-3" points="496.32 83.02 496.01 89.33 506.72 92.14 507.1 86.21 496.32 83.02"/><polygon class="cls-8" points="493.5 103.89 493.33 116.98 508.59 119.02 508.63 107.8 493.5 103.89"/><polygon class="cls-3" points="496.18 107.25 496.18 114.9 505.65 116.18 506.08 109.55 496.18 107.25"/><polygon class="cls-8" points="517.05 86.47 517.05 97.05 529.92 100.87 529.16 90.93 517.05 86.47"/><polygon class="cls-3" points="520.11 90.04 519.98 95.01 527.63 97.56 528.01 92.08 520.11 90.04"/><polygon class="cls-8" points="516.03 109.42 515.77 120 532.6 122.3 532.73 112.99 516.03 109.42"/><polygon class="cls-3" points="528.9 114.9 518.96 112.35 518.83 116.94 528.9 118.98 528.9 114.9"/><polygon class="cls-8" points="451.5 132.24 472.33 131.94 472.16 146.91 451.25 146.4 451.5 132.24"/><polygon class="cls-20" points="455.5 135.85 468.17 135.6 468.08 143.08 453.46 143.17 455.5 135.85"/><polygon class="cls-8" points="493.16 132.28 493.33 146.23 509.48 147.25 509.82 134.66 493.16 132.28"/><polygon class="cls-3" points="496.45 136.26 506.65 137.53 506.33 144.36 496.07 143.15 496.45 136.26"/><polygon class="cls-8" points="515.52 135.37 515.32 147.29 527.44 148.18 527.63 136.96 515.52 135.37"/><polygon class="cls-3" points="517.94 138.75 517.75 144.68 524.89 145.31 524.95 139.83 517.94 138.75"/><polygon class="cls-2" points="614.72 20.41 625.69 26.15 625.18 44.6 613.45 40.43 614.72 20.41"/><polygon class="cls-6" points="617.1 24.88 616.17 38.9 622.97 41.37 623.26 28.07 617.1 24.88"/><polygon class="cls-2" points="631.42 28.96 630.02 46.43 641.24 50.89 643.03 33.93 631.42 28.96"/><polygon class="cls-6" points="633.98 33.29 632.7 44 639.59 46.81 640.61 35.46 633.98 33.29"/><polygon class="cls-2" points="649.28 35.59 647.87 53.06 659.1 57.52 660.88 40.56 649.28 35.59"/><polygon class="cls-6" points="651.83 39.92 650.55 50.63 657.44 53.44 658.46 42.09 651.83 39.92"/><polygon class="cls-2" points="646.22 69.51 644.81 86.97 656.03 91.44 657.82 74.48 646.22 69.51"/><polygon class="cls-6" points="648.77 73.84 647.49 84.55 654.38 87.36 655.4 76.01 648.77 73.84"/><polygon class="cls-8" points="738.53 43.66 754.52 48.76 752.48 74.1 738.02 70.78 738.53 43.66"/><polygon class="cls-8" points="764.34 76.86 766.72 52.55 779.47 56.63 777.09 80.43 764.34 76.86"/><polygon class="cls-3" points="741.47 48.21 741.34 55.23 750.39 57.9 751.16 50.89 741.47 48.21"/><polygon class="cls-3" points="741.6 59.94 740.96 67.85 749.63 70.14 750.01 61.6 741.6 59.94"/><polygon class="cls-3" points="768.5 56.12 767.91 62.32 776.15 64.45 777 58.33 768.5 56.12"/><polygon class="cls-3" points="767.74 65.47 766.8 73.63 774.71 76.26 775.73 67.17 767.74 65.47"/><polygon class="cls-8" points="763.27 86.85 775.9 89.78 774.37 110.18 760.47 107.5 763.27 86.85"/><polygon class="cls-8" points="751.54 85.57 750.14 106.1 735.99 103.42 736.75 82.51 751.54 85.57"/><polygon class="cls-3" points="765.06 89.91 764.26 96.73 773.44 98.23 774.02 92.01 765.06 89.91"/><polygon class="cls-3" points="763.97 99.22 762.83 105.85 772.71 107.79 773.22 100.84 763.97 99.22"/><polygon class="cls-3" points="738.89 85.61 749.66 87.68 748.93 94.85 738.6 93.32 738.89 85.61"/><polygon class="cls-3" points="738.02 95.49 748.48 97.11 748.13 103.9 737.74 101.58 738.02 95.49"/><polygon class="cls-2" points="766.33 158.32 773.98 161.95 772.9 173.05 765.06 171.2 766.33 158.32"/><polygon class="cls-2" points="778.19 163.55 777.11 173.88 783.48 175.6 784.38 166.22 778.19 163.55"/><polygon class="cls-6" points="767.67 161.89 766.97 169.73 771.5 170.81 772.39 163.55 767.67 161.89"/><polygon class="cls-6" points="779.09 166.03 782.85 167.56 782.4 173.43 778.32 172.28 779.09 166.03"/><polygon class="cls-2" points="764.17 180.7 771.63 182.1 771.05 192.11 763.21 191.41 764.17 180.7"/><polygon class="cls-6" points="765.63 183.12 765.06 189.94 769.59 190.52 770.22 183.76 765.63 183.12"/><polygon class="cls-2" points="776.6 182.67 775.9 192.3 782.14 192.94 782.46 183.69 776.6 182.67"/><polygon class="cls-6" points="777.81 184.91 777.17 191.15 781.13 191.15 781.32 185.41 777.81 184.91"/><polygon class="cls-5" points="730.76 155.83 749.12 156.6 748.61 168.58 730.5 167.22 730.76 155.83"/><polygon class="cls-21" points="732.71 157.96 746.57 158.38 746.23 166.46 732.63 165.35 732.71 157.96"/><polygon class="cls-5" points="730.25 177.08 747.84 178.27 746.99 189.5 729.91 187.97 730.25 177.08"/><polygon class="cls-21" points="731.86 179.63 745.38 180.57 745.21 187.2 731.35 185.59 731.86 179.63"/><polyline class="cls-5" points="601.97 159.53 603.83 149.78 630.02 152.39 628.49 166.2 602.99 164.5 601.97 159.53 601.97 159.53 601.97 159.53"/><polygon class="cls-21" points="604.65 152.64 626.71 154.69 625.69 163.74 604.26 161.57 604.65 152.64"/><polygon class="cls-5" points="648.38 154.05 648.26 167.82 669.17 169.22 667.64 154.3 648.38 154.05"/><polygon class="cls-21" points="664.83 157.11 651.19 156.85 650.81 165.27 664.58 165.52 664.83 157.11"/></g><g id="character_3_copy" data-name="character 3 copy"><polygon class="cls-22" points="659.29 111.24 644.93 132.94 677.47 143.5 686.56 121.51 659.29 111.24"/><polygon class="cls-23" points="647.86 61.69 644.93 132.94 654.31 130.11 657.29 72.69 647.86 61.69"/><polygon class="cls-24" points="633.92 314.36 688.2 307.92 747 315.1 687.23 326.17 633.92 314.36"/><polygon class="cls-25" points="675.42 307.47 667.6 316.9 687.18 317.31 691.85 305.26 696.82 308.95 698.07 306.98 695.28 297.88 688.2 291.73 680.33 307.72 675.42 307.47"/><polygon class="cls-25" points="703.48 302.49 707.36 310.67 703.48 321 700.42 321 700.42 310.18 703.48 302.49"/><polygon class="cls-26" points="695.18 267.52 689.72 279.69 695.28 297.88 687.23 312.48 688.94 318.05 700.42 321 708.48 275.88 695.18 267.52"/><polygon class="cls-27" points="700.42 321 687.23 312.48 682.54 321 700.42 321"/><polygon class="cls-26" points="653.22 263.83 678.68 291.97 675.42 307.47 687.23 312.48 688.94 292.46 683.36 279.73 672.43 262.11 653.22 263.83"/><polygon class="cls-28" points="708.48 275.88 689.72 279.69 687.34 270.36 708.48 275.88"/><polygon class="cls-28" points="653.22 263.83 683.36 279.74 678.88 266.65 653.22 263.83"/><polygon class="cls-26" points="725.35 149.66 731.75 197.74 714.88 202.54 707.13 181.64 725.35 149.66"/><polygon class="cls-26" points="664.08 148.48 643.83 193.2 663.58 203.79 664.08 148.48"/><polygon class="cls-29" points="664.08 148.48 678.37 143.76 705.72 144.77 725.35 149.66 710.07 181.64 681.81 186.31 656.94 184.84 664.08 148.48"/><polygon class="cls-20" points="710.07 181.64 714.88 202.54 675.03 216.2 663.92 204.76 656.94 184.84 710.07 181.64"/><polygon class="cls-30" points="662.13 223.38 709.04 202.79 720.89 223.21 687.34 237.02 657.43 243.73 662.13 223.38"/><polygon class="cls-31" points="720.89 223.21 708.48 275.88 653.22 263.83 657.43 243.73 720.89 223.21"/><polygon class="cls-32" points="720.89 223.21 685.59 216.2 662.13 223.38 665.07 209.84 686.12 198.63 714.88 213.15 720.89 223.21"/><polygon class="cls-33" points="659.25 164.58 664.28 223.15 707.28 217.48 701.27 162.43 659.25 164.58"/><polygon class="cls-2" points="654.7 170.18 662.13 224.13 703.57 219.63 697.9 166.07 654.7 170.18"/><polygon class="cls-34" points="643.83 193.2 662.45 200.58 669.62 202.79 673.01 212.39 642.91 213.46 643.83 193.2"/><polygon class="cls-26" points="673.01 212.39 685.59 216.2 694.08 204.69 686.12 203.79 667.97 202.54 673.01 212.39"/><polygon class="cls-28" points="685.59 216.2 701.15 207.71 691.14 205.43 685.59 216.2"/><polygon class="cls-34" points="731.75 197.74 698.26 194.07 691.12 199.08 691.14 205.43 714.88 213.15 731.75 197.74"/><polygon class="cls-34" points="690.49 193.2 675.12 193.69 669.98 203.95 673.01 212.39 686.12 203.79 691.12 199.08 690.49 193.2"/><polygon class="cls-26" points="675.12 193.69 662.45 200.58 673.01 212.39 675.12 193.69"/><polygon class="cls-29" points="690.49 193.2 686.12 203.79 691.14 205.43 698.26 194.07 690.49 193.2"/><polygon class="cls-34" points="655.09 66.85 654.16 130.6 668.68 130.89 677.4 137.49 700.78 131.92 706.36 107.43 706.5 69.32 699.43 50.9 661.15 56.22 655.09 66.85"/><polygon class="cls-30" points="647.86 61.69 655.04 75.86 685.1 63.55 667.52 54.76 670.04 51.49 669.96 49.14 647.86 61.69"/><polygon class="cls-26" points="706.06 69.9 728.39 106.65 705.72 144.77 684.02 152.59 700.78 131.92 706.06 69.9"/><polygon class="cls-23" points="672.22 42.67 677.6 44.18 680.2 51.23 685.1 63.55 647.86 61.69 672.22 42.67"/><polygon class="cls-32" points="695.85 58.96 694.56 44.35 681.88 40.82 672.22 42.67 685.1 63.55 695.85 58.96"/><polygon class="cls-23" points="714.88 44.43 681.88 40.82 695.85 58.96 708.58 50.9 714.88 44.43"/><polygon class="cls-30" points="710.12 80.16 719.58 58.88 714.88 44.43 695.85 58.96 710.12 80.16"/><polygon class="cls-23" points="730.33 65.51 723.19 75.58 710.12 80.16 714.88 44.43 730.33 65.51"/><polygon class="cls-22" points="739.05 134.41 705.72 144.77 710.61 130.07 710.12 80.02 734.36 111.27 739.05 134.41"/><polygon class="cls-32" points="730.33 65.51 739.05 134.41 710.12 80.16 730.33 65.51"/><polygon class="cls-28" points="705.4 132.87 700.78 131.92 668.68 130.89 684.02 152.59 705.4 132.87"/><polygon class="cls-26" points="675.75 106.24 671.75 104.21 665.41 90.97 658.05 83.69 667.63 83.95 672.85 85.49 674.57 88.78 676.37 91.29 678.1 88.78 681.93 86.51 689.37 84.43 699.79 85.18 690.08 91.68 679.51 104.28 675.75 106.24"/><polygon class="cls-22" points="658.05 83.77 669.09 81.74 672.85 85.49 658.05 83.77"/><polygon class="cls-22" points="699.79 85.18 687.09 82.06 681.93 86.51 699.79 85.18"/><polygon class="cls-35" points="674.57 88.78 671.75 104.21 675.75 106.24 679.51 104.28 678.1 88.78 674.57 88.78"/><polygon class="cls-28" points="676.11 106.65 671.75 104.21 679.51 104.28 676.11 106.65"/><path class="cls-36" d="M688.65,90a2.94,2.94,0,1,1-2.93,2.94A2.94,2.94,0,0,1,688.65,90Z"/><path class="cls-36" d="M666.4,89.45a2.94,2.94,0,1,1-2.94,2.94A2.94,2.94,0,0,1,666.4,89.45Z"/><polygon class="cls-37" points="675.94 112.66 665.37 112.9 676.65 119.26 688.67 113.38 675.94 112.66"/><polygon class="cls-27" points="665.37 112.9 676.15 111.44 688.67 113.38 675.73 114.87 665.37 112.9"/><polygon class="cls-3" points="676.11 121.66 665.37 112.9 675.88 117.88 688.67 113.38 676.11 121.66"/></g><g id="character_2_copy" data-name="character 2 copy"><polygon class="cls-38" points="475.87 199.87 470.3 196.4 459.45 196.4 462.67 209.01 477.63 210.92 475.87 199.87"/><polygon class="cls-39" points="478.12 194.01 470.3 196.4 477.63 210.92 491.8 207.5 491.99 195.96 478.12 194.01"/><polygon class="cls-38" points="493.26 200.36 486.81 192.35 479.58 188.73 468.1 188.63 468.54 192.74 475.67 194.79 481.24 201.24 493.26 200.36"/><polygon class="cls-13" points="499.62 194.4 493.46 190.69 486.81 192.35 491.8 207.5 500.79 206.23 499.62 194.4"/><polygon class="cls-40" points="492.88 309.82 563.14 320.14 639.32 311.29 563.9 300.32 492.88 309.82"/><polygon class="cls-41" points="602.76 181.39 604.02 189.99 607.76 200.13 624.39 197.08 630.98 195.67 610.97 150.54 606.48 156.26 602.76 181.39"/><polygon class="cls-42" points="543.84 130.59 548.97 142.51 560.2 151.91 572.67 146.6 577.17 146.31 579.43 140.03 585.08 125.87 576.14 123.64 546.46 127.61 543.84 130.59"/><polygon class="cls-39" points="586.07 81.88 581.13 69.61 572.96 124.84 576.93 131.85 580.25 132.83 575.66 143.3 574.65 145.8 581.79 143.34 586.46 140.89 595.49 114.23 594.75 109.24 592.68 106.82 589.98 84.64 586.07 81.88"/><polygon class="cls-42" points="588.67 105.59 595.49 114.23 598.03 108.47 594.38 104.02 588.67 105.59"/><polygon class="cls-43" points="590.22 76.56 586.07 81.88 582.99 99.69 590.51 102.14 594.79 90.82 605.06 92.5 612.21 75.16 590.22 76.56"/><polygon class="cls-44" points="574.41 59.08 581.13 69.61 586.07 81.88 612.21 75.16 587.58 61.38 581.82 53.77 575.7 56.13 574.41 59.08"/><polygon class="cls-44" points="594.72 46.04 579.08 46.62 573.79 51.92 575.7 56.13 612.21 75.16 594.72 46.04"/><polygon class="cls-45" points="551.13 36.17 539.2 59.72 546.73 70.57 572.63 66.66 575.41 60.21 594.72 46.04 551.13 36.17"/><polygon class="cls-44" points="518.58 48.48 517.8 61.67 524.25 70.11 536.2 73.33 548.39 67.93 551.13 36.17 518.58 48.48"/><polygon class="cls-45" points="510.5 66.66 525.71 92.75 527 79.02 524.25 70.11 518.58 48.48 510.5 66.66"/><polygon class="cls-38" points="525.62 130.58 576.93 131.85 581.13 69.61 575.41 60.21 548.68 67.64 524.25 70.11 524.18 78.56 525.62 130.58"/><polygon class="cls-39" points="533.53 80.99 529.52 81.42 535.91 89.2 541.25 100.67 545.29 87.53 541.95 84.06 541.74 81.52 533.53 80.99"/><polygon class="cls-39" points="548.26 87.47 552 83.86 553.47 80.73 561.09 79.27 568.23 81.12 557.95 87.9 552.21 100.29 548.26 87.47"/><polygon class="cls-42" points="547.83 104.23 541.34 100.45 546.65 98.89 552.21 100.29 547.83 104.23"/><polygon class="cls-46" points="514.28 307.53 551.47 307.58 551.61 304.25 545.75 301.86 522.23 301.81 514.51 303.83 514.28 307.53"/><polygon class="cls-46" points="575.66 312.66 603.41 312.66 603.51 309.44 601.46 307.53 582.19 307.42 575.85 309.53 575.66 312.66"/><polygon class="cls-47" points="531.98 291.55 514.51 303.83 551.61 304.25 551.91 292.82 546.31 290 536.55 289.79 531.98 291.55"/><polygon class="cls-47" points="580.54 297.22 575.85 309.53 603.51 309.44 598.86 297.16 595.65 294.32 585.27 294.57 580.54 297.22"/><polygon class="cls-43" points="543.16 234.67 532.02 265.31 531.98 291.55 551.91 292.82 557.67 274.4 561.63 252.87 543.16 234.67"/><polygon class="cls-45" points="543.16 234.67 532.02 231.59 532.02 265.31 557.67 274.4 563.24 257.83 561.63 252.87 543.16 234.67"/><polygon class="cls-43" points="570.59 241.37 571.6 276.45 580.54 297.22 598.86 297.16 599.31 272.05 598.52 227.99 587.28 219.96 570.59 241.37"/><polygon class="cls-45" points="570.59 241.37 563.1 257.39 571.6 276.45 599.31 272.05 601.36 234.41 598.52 227.99 587.28 219.96 570.59 241.37"/><polygon class="cls-43" points="538.32 233.2 538.76 238.33 563.24 257.83 572.17 246.16 571.79 239.83 554.48 216.35 550.35 216.58 538.32 233.2"/><polygon class="cls-47" points="531.65 216.41 532.02 231.59 538.76 238.33 551.64 228.8 551.82 225.84 531.65 216.41"/><polygon class="cls-41" points="551.64 228.8 572.17 246.16 588.83 224.98 592.32 223.56 597.37 217.09 586.59 216.1 551.67 224.46 551.64 228.8"/><polygon class="cls-46" points="533.14 150.03 512.78 189.32 530.7 201.83 534.54 190.31 535.38 155.11 533.14 150.03"/><polygon class="cls-47" points="531.65 216.41 549 225.52 554.35 223.39 555.76 211.9 553.2 209.08 555.67 198.16 560.48 149.33 555.62 150.91 548.97 142.51 533.14 150.03 530.01 190.11 531.65 216.41"/><polygon class="cls-46" points="553.21 193.14 552.08 222.88 552.53 224.8 554.64 225.7 594.09 218.3 598.14 215.08 605.44 197.59 604.5 191.29 610.97 150.54 586.46 140.89 570.48 149.2 560.48 149.33 553.21 193.14"/><polygon class="cls-41" points="553.18 193.23 564.17 188.78 560.48 149.33 555.62 150.91 548.97 142.51 533.14 150.03 530.01 190.11 553.18 193.23"/><polygon class="cls-47" points="553.18 193.23 604.5 191.29 610.97 150.54 586.46 140.89 570.48 149.2 560.48 149.33 553.18 193.23"/><polygon class="cls-48" points="550.12 211.71 552.75 214.99 555.76 211.9 553.2 209.08 550.12 211.71"/><polygon class="cls-49" points="548.97 142.51 560.48 149.33 543.7 160.97 548.97 142.51"/><polygon class="cls-49" points="560.48 149.33 586.46 140.89 578.59 163.42 560.48 149.33"/><polygon class="cls-39" points="588.83 224.98 601.36 234.41 605.03 226.78 605.06 223.23 597.5 215.88 594.09 218.3 588.83 224.98"/><polygon class="cls-47" points="595.16 215.9 600.42 218.73 607.01 221.19 609.63 220.86 630.98 195.67 604.5 191.29 595.16 215.9"/><polygon class="cls-12" points="609.63 220.86 597.38 210.09 594.09 218.3 605.03 226.78 609.63 220.86"/><polygon class="cls-50" points="541.95 84.04 552 83.86 552.21 100.29 541.34 100.45 541.95 84.04"/><polygon class="cls-38" points="593.35 87.77 588.67 105.59 598.03 108.47 605.06 92.5 593.35 87.77"/><polygon class="cls-42" points="596.32 92.91 600.64 94.94 594.31 100.19 596.32 92.91"/><polygon class="cls-48" points="549 225.52 551.64 228.8 554.64 225.7 552.08 222.88 549 225.52"/><path class="cls-51" d="M539,89.09a3.17,3.17,0,1,1-3.17-3.17A3.17,3.17,0,0,1,539,89.09Z"/><path class="cls-51" d="M561.11,89a3.17,3.17,0,1,1-3.17-3.17A3.17,3.17,0,0,1,561.11,89Z"/><polygon class="cls-43" points="529.92 78.09 542.03 76.63 541.74 81.52 529.52 81.42 529.92 78.09"/><polygon class="cls-43" points="552.79 76.14 553.18 80.73 568.23 81.12 568.82 77.51 552.79 76.14"/><polygon class="cls-42" points="534.71 108.1 563.73 108.64 554.35 119.73 541.74 119.37 534.71 108.1"/><polygon class="cls-52" points="539.69 110.83 557.72 111.01 553.84 116.55 543.13 116.64 539.69 110.83"/><polygon class="cls-47" points="493.46 190.69 515.16 184.82 530.7 201.83 500.79 206.23 493.46 190.69"/></g><g id="character_1_copy" data-name="character 1 copy"><polygon class="cls-53" points="129.41 314.2 192.91 298.14 258.7 315.22 189.59 325.68 129.41 314.2"/><polygon class="cls-20" points="217.99 189.98 196.92 211.73 212.24 225.48 235.97 191.78 217.99 189.98"/><polygon class="cls-31" points="229.48 61.93 239.36 69.86 226.48 101.67 229.48 61.93"/><polygon class="cls-54" points="207.6 133.98 202.19 145.31 188 157.6 164.11 136.48 173.05 127.19 176.05 125.89 190.55 130.42 198.98 130.42 207.6 133.98"/><polygon class="cls-55" points="164.03 144.21 180.11 158.79 187.98 156.77 167.11 135.1 173.11 133.6 190.55 130.42 174.41 130.62 174.35 70.43 166.14 73.43 159.57 100.72 155.49 115.52 164.03 144.21"/><polygon class="cls-54" points="155.49 115.52 162.99 105.17 159.91 102.02 153.23 106.15 155.49 115.52"/><polygon class="cls-56" points="171.01 73.09 161.32 99.17 159.24 93.59 154.2 93.59 149.74 91.18 140.68 79.92 152.84 70.49 166.65 70.49 171.01 73.09"/><polygon class="cls-57" points="160.13 91.15 162.99 105.17 153.23 106.15 149.74 91.18 160.13 91.15"/><polygon class="cls-54" points="157.4 94 158.25 100.46 153.04 94 157.4 94"/><polygon class="cls-32" points="224.87 41.22 239.36 69.86 232.28 72.47 228.26 72.13 219.31 59.5 222.88 48.06 224.87 41.22"/><polygon class="cls-30" points="192.95 59.54 218.8 62.67 223.22 58.77 224.87 41.22 184.15 37.36 183.47 42.57 192.95 59.54"/><polygon class="cls-56" points="194.49 62.76 192.87 59.32 184.15 37.36 153.99 50.81 163.26 57.18 182.79 67.2 189.19 63.01 194.49 62.76"/><polygon class="cls-58" points="184.83 66.92 182.79 63.69 153.99 50.81 140.68 79.92 171.01 73.09 176.22 73.6 184.83 66.92"/><polygon class="cls-57" points="228.48 134.73 173.11 133.6 171.01 73.09 192.95 59.54 223.22 58.77 232.28 72.47 228.48 134.73"/><polygon class="cls-55" points="205.57 87.28 210.17 85.3 210.42 80.86 221.31 79.47 223.79 80.74 208.63 105.91 205.57 87.28"/><polygon class="cls-55" points="199.86 85.05 199.51 104.89 184.56 78.44 188.98 76.29 199.54 80.24 199.86 85.05"/><polygon class="cls-54" points="205.35 109.36 210.1 104.73 204.89 103.42 199.51 104.89 205.35 109.36"/><polygon class="cls-59" points="210.17 85.3 199.86 85.05 199.51 104.89 210.1 104.73 210.17 85.3"/><path class="cls-51" d="M213.44,91.19a3.12,3.12,0,1,0,3.11-3.12A3.14,3.14,0,0,0,213.44,91.19Z"/><path class="cls-51" d="M188.81,90.17a3.12,3.12,0,0,0,6.23,0,3.12,3.12,0,1,0-6.23,0Z"/><polygon class="cls-60" points="152.69 211.41 142.18 195.64 130.84 188.73 114.8 191.5 142.07 224.51 148.82 217.21 152.69 211.41"/><polygon class="cls-61" points="145.22 228 153.73 236.35 160.15 228.27 156 220.25 145.22 228"/><polygon class="cls-49" points="142.07 224.51 146.93 229.84 154.9 221.08 157.11 217.21 152.69 211.41 142.07 224.51"/><polygon class="cls-46" points="235.97 191.78 213.52 150.85 210.2 180.44 215.46 194.54 235.97 191.78"/><polygon class="cls-43" points="216.23 225.3 200.8 249.56 186.2 248.85 165.68 249.56 157.94 225.23 191.4 216.1 216.23 225.3"/><polygon class="cls-45" points="216.23 224.91 186.2 248.85 189.98 277.08 200.55 298.12 212.35 272.46 216.23 224.91"/><polygon class="cls-43" points="189.98 277.08 193.89 306.31 209.81 296.16 212.35 272.46 189.98 277.08"/><polygon class="cls-45" points="186.2 248.85 157.98 225.49 153.68 235.67 155.74 273.71 159.15 311.58 178.98 276.21 186.2 248.85"/><polygon class="cls-43" points="178.98 276.21 155.74 273.71 156.7 301.15 165.15 306 172.32 302.25 178.98 276.21"/><polygon class="cls-60" points="213.52 150.85 202.19 145.31 187.98 156.77 190.29 201.72 205.98 193.59 217.67 179.05 213.52 150.85"/><polygon class="cls-41" points="152.41 148.63 148.26 167.16 156.56 182.92 169.74 198.22 189.8 191.19 187.98 156.77 164.03 144.21 152.41 148.63"/><polygon class="cls-47" points="156.56 182.92 150.75 183.2 150.48 188.45 152.69 211.41 157.94 225.23 190.23 229.01 201.38 209.37 189.8 191.19 156.56 182.92"/><polygon class="cls-46" points="142.18 195.64 156.56 182.92 152.41 148.63 114.8 191.5 128.91 193.71 142.18 195.64"/><polygon class="cls-41" points="216.23 225.3 217.67 179.05 189.8 191.19 190.23 229.01 216.23 225.3"/><polygon class="cls-20" points="172.45 310.96 179.23 313.88 178.92 317.27 154.52 317.66 154.52 314.2 172.45 310.96"/><polygon class="cls-20" points="212.91 304.44 228.19 309.17 228.19 312.26 193.28 311.82 193.28 308.32 212.91 304.44"/><polygon class="cls-62" points="228.19 309.17 209.81 296.16 193.28 301.73 193.28 308.32 228.19 309.17"/><polygon class="cls-62" points="156.7 301.15 154.52 314.2 179.23 313.88 172.32 302.25 156.7 301.15"/><polygon class="cls-31" points="193.46 73.42 184.56 78.44 199.54 80.24 193.46 73.42"/><polygon class="cls-31" points="217.06 75.86 210.42 80.86 223.79 80.74 217.06 75.86"/><polygon class="cls-63" points="202.19 145.31 187.98 156.77 198.06 164.85 202.19 145.31"/><polygon class="cls-49" points="174.63 167.25 187.98 156.77 164.09 144.19 174.63 167.25"/><polygon class="cls-54" points="214.28 115.74 192.07 113.78 195.73 124.56 210.91 124.56 214.28 115.74"/><polygon class="cls-37" points="195.95 116.45 210.56 117.4 209.78 120.67 197.12 120.06 195.95 116.45"/></g><g id="main_character_copy" data-name="main character copy"><polygon class="cls-53" points="413.94 308.64 341.11 298.91 266.15 308.59 338.65 322.15 413.94 308.64"/><polygon class="cls-64" points="331.85 305.05 339.06 309.87 339.01 313.31 314.04 313.31 314.11 310.13 331.85 305.05"/><polygon class="cls-65" points="314.11 310.13 339.06 309.87 331.74 297.62 322.66 288.04 316.01 299.65 314.11 310.13"/><polygon class="cls-64" points="361.94 299.85 381.47 305.1 381.47 308.43 346.56 308.76 346.8 305.26 361.94 299.85"/><polygon class="cls-25" points="384.12 149.17 367.22 136.31 363.78 142.38 361.04 150.2 374.38 152.77 384.12 149.17"/><polygon class="cls-66" points="390.02 186.29 380.89 169.39 376.35 151.08 384.12 149.17 396.29 156.65 405.27 179.45 390.02 186.29"/><polygon class="cls-67" points="328.62 229.1 364.43 227.68 384.99 219.75 372.85 176.44 361.1 150.15 349.62 156.32 338.3 152.5 335.89 151.08 333.11 150.75 329.06 185.19 328.62 229.1"/><polygon class="cls-62" points="375.37 185.08 372.85 176.44 372.31 175.24 368.26 171.25 332.29 174.81 329.5 181.91 329.06 185.19 329.28 191.53 324.74 204.6 377.01 196.51 375.37 185.08"/><polygon class="cls-68" points="351.98 59.34 329.27 60.37 325.34 107 345.42 133.99 347.17 113.06 351.01 65.64 350.96 65.11 351.98 59.34"/><polygon class="cls-20" points="310.11 189.24 295.25 183.67 290.76 176.43 302.41 154.13 318.89 145.66 319.49 173.31 310.11 189.24"/><polygon class="cls-68" points="348.94 114.67 325.34 107 325.51 110.51 327.29 144.11 328.73 145.16 335.42 151.12 348.36 132.97 348.94 114.67"/><polygon class="cls-69" points="376.4 66.47 398.88 70.55 401.61 81.74 400.66 98.17 402.56 133.49 343.21 127.74 350.96 65.11 351.01 64.78 376.4 66.47"/><polygon class="cls-68" points="381.7 97.03 388.32 87 397.01 82.6 389.06 80.69 384.11 81.59 380.7 81.63 376.12 81.22 371.17 80.35 365.26 77.67 358.31 79.02 366.33 83.71 374.82 96.62 381.7 97.03"/><polygon class="cls-70" points="361.13 150.53 382.13 131.73 333.41 125.33 335.42 151.12 350.13 158.01 361.13 150.53"/><polygon class="cls-70" points="325.52 104.7 325.34 107 338.22 100.86 330.22 95.42 325.52 104.7"/><polygon class="cls-71" points="422.13 34.33 400.66 98.17 398.88 70.55 405.69 57.13 422.13 34.33"/><polygon class="cls-71" points="336.53 88.63 325.34 107 322.42 52.66 329.51 67 336.53 88.63"/><polygon class="cls-72" points="336.53 88.63 322.42 52.66 328.18 54.03 340.88 59.85 350.96 65.11 341.49 82.08 336.53 88.63"/><polygon class="cls-71" points="322.42 52.66 352.25 34.46 353.7 47.42 350.96 65.11 322.42 52.66"/><polygon class="cls-73" points="398.88 70.55 371.58 67.48 395.12 50.05 422.13 34.33 398.88 70.55"/><polygon class="cls-74" points="371.58 67.48 350.96 65.11 352.25 34.46 422.13 34.33 371.58 67.48"/><polygon class="cls-69" points="341.49 82.08 328.29 80.06 326.75 98.66 338.22 100.86 341.49 82.08"/><polygon class="cls-70" points="332.7 84.16 338.41 85.51 337.18 91.2 332.7 84.16"/><polygon class="cls-75" points="380.7 81.63 382.33 97.93 374.82 96.62 376.12 81.22 380.7 81.63"/><polygon class="cls-70" points="378.18 101.98 382.33 97.93 374.82 96.62 378.18 101.98"/><polygon class="cls-72" points="397.29 82.63 390.48 77.07 384.11 81.59 397.29 82.63"/><polygon class="cls-72" points="371.17 80.35 364.58 74.63 356.19 79.88 371.17 80.35"/><polygon class="cls-70" points="385.54 109.91 354.51 98.54 358.58 119.32 375.59 123.97 385.54 109.91"/><polygon class="cls-37" points="383.71 110.23 359.29 102.41 360.27 117.34 375.19 121.82 383.71 110.23"/><polygon class="cls-29" points="406.04 227.89 376.35 151.08 361.04 150.2 384.99 219.75 406.04 227.89"/><polygon class="cls-68" points="429.13 150.2 407.92 163.14 407.92 181.72 412.77 196.11 439.29 157.59 435.03 151.27 429.13 150.2"/><polygon class="cls-65" points="381.47 305.1 346.8 305.26 347.38 296.07 354.16 279.73 363.94 295.04 381.47 305.1"/><path class="cls-25" d="M372.06,265.06,385,219.75l-42.1,14.76,2.52,34.39,15.2,5.41Z"/><path class="cls-66" d="M363.94,295l8.12-30-26.65,3.84,2,27.17Z"/><polygon class="cls-25" points="340.21 270.65 350.55 239.98 361.54 228.82 328.29 229.1 328.46 241.62 318.89 231.88 309.76 225.87 313.15 266.99 326.54 280.49 340.21 270.65"/><polygon class="cls-66" points="331.74 297.62 340.21 270.65 313.15 266.99 316.01 299.65 331.74 297.62"/><polygon class="cls-66" points="384.99 219.69 348.35 246.57 329.22 229.1 384.99 219.69"/><polygon class="cls-29" points="328.46 243.26 295.43 214.74 308.94 188.65 313.43 179.95 318.89 145.66 335.42 151.12 328.46 243.26"/><polygon class="cls-25" points="316.56 160.06 335.42 151.12 326.92 136.07 318.89 145.66 316.56 160.06"/><polygon class="cls-69" points="390.02 186.29 396.29 156.65 407.92 163.14 412.77 196.11 390.02 186.29"/><path class="cls-22" d="M366.85,83.71a3.32,3.32,0,0,1,2.09,4.14,3.28,3.28,0,1,1-2.09-4.14Z"/><path class="cls-22" d="M388,85.93a3.28,3.28,0,0,1-2,6.24,3.28,3.28,0,1,1,2-6.24Z"/><polygon class="cls-70" points="454.15 146.65 444.09 137.87 437.4 136.87 429.13 150.2 439.29 157.59 454.15 146.65"/><polygon class="cls-69" points="448.21 125.03 437.4 136.87 454.15 146.65 457.15 132.21 448.21 125.03"/><polygon class="cls-69" points="433 130.9 436.56 145.79 434.29 153.96 429.13 150.2 428.05 130.9 433 130.9"/><polygon class="cls-47" points="358.15 277.13 376.57 276.71 373.83 294.89 367.19 296.94 358.15 277.13"/><polygon class="cls-41" points="314.17 267.83 322.23 267.82 376.57 276.71 368.36 282.38 311.41 283.03 314.17 267.83"/><polygon class="cls-47" points="304.86 251.95 311.76 250.34 322.23 267.82 315.43 274.47 299.87 257.83 304.86 251.95"/><polygon class="cls-41" points="260.88 254.15 259.53 248.21 268.83 245.21 311.76 250.34 303.4 255.34 260.88 254.15"/><polygon class="cls-60" points="303.4 255.34 315.43 274.47 368.36 282.38 367.19 296.94 313.28 295.43 298.65 308.44 247.37 303.67 258.99 265.91 303.4 255.34"/><polygon class="cls-76" points="259.53 248.21 303.4 255.34 247.37 303.67 235.75 287.68 239.92 261.5 259.53 248.21"/><polygon class="cls-70" points="290.56 236.64 296.62 231.85 302 245.14 290.56 236.64"/><polygon class="cls-20" points="301.02 238.86 304.32 238.72 306.33 250.96 302.93 253.93 298.82 243.11 301.02 238.86"/><polygon class="cls-29" points="273.02 237.98 273.46 234.78 280.13 234.32 304.32 238.72 301.8 239.87 273.02 237.98"/><path class="cls-20" d="M269.72,245.31l2.71,4,6.6-2s0-8-.3-7.92S269.72,245.31,269.72,245.31Z"/><polygon class="cls-25" points="273.46 234.78 266.57 247.95 272.43 249.34 275.31 242.7 297.01 247.19 296.82 252.77 302.93 253.93 301.8 239.87 273.46 234.78"/><polygon class="cls-68" points="283.33 236.35 275.31 242.7 279.19 251.38 296.79 254.27 297.01 247.19 283.33 236.35"/><polygon class="cls-69" points="296.82 219.05 296.62 231.85 297.01 247.19 275.31 242.7 283.13 225.01 296.82 219.05"/><polygon class="cls-68" points="305.61 187.09 283.33 190.7 282.16 226.08 296.62 231.85 303.22 200.97 305.61 187.09"/><polygon class="cls-69" points="308.94 188.65 303.22 200.97 283.33 190.7 290.95 175.65 308.94 188.65"/><polygon class="cls-20" points="393.28 51.11 390.25 48.28 377.55 47.4 369.53 51.21 351.74 44.22 324.13 80.41 327.68 87.54 328.29 80.04 331.24 80.51 355.36 51.89 372.27 56.88 376.57 52.58 393.57 53.46 393.28 51.11"/><polygon class="cls-62" points="351.74 44.22 380.19 47.59 378.87 62.55 351.16 61.23 351.74 44.22"/><polygon class="cls-62" points="390.25 48.28 390.06 63.23 415.86 65.77 417.03 49.35 390.25 48.28"/><polygon class="cls-66" points="354.6 48.11 376.45 50.16 375.71 59.03 354.24 57.78 354.6 48.11"/><polygon class="cls-66" points="394.26 51.7 394.11 59.76 412.07 61.45 412.73 52.65 394.26 51.7"/></g></g></svg>