<svg xmlns="http://www.w3.org/2000/svg" viewBox="0 0 900 350"><defs><style>.cls-1{fill:#dddddc;}.cls-2,.cls-58{fill:#c4c4c2;}.cls-3,.cls-75{fill:#e1a940;}.cls-4,.cls-7{fill:#ba8e2d;}.cls-19,.cls-27,.cls-5{fill:#2b2c2b;}.cls-5{fill-opacity:0.1;}.cls-6,.cls-9{fill:#f0bc67;}.cls-16,.cls-17,.cls-18,.cls-19,.cls-20,.cls-21,.cls-22,.cls-23,.cls-24,.cls-25,.cls-26,.cls-28,.cls-29,.cls-38,.cls-39,.cls-40,.cls-41,.cls-44,.cls-45,.cls-46,.cls-47,.cls-48,.cls-49,.cls-50,.cls-51,.cls-52,.cls-53,.cls-54,.cls-58,.cls-65,.cls-66,.cls-67,.cls-68,.cls-69,.cls-7,.cls-75,.cls-8,.cls-9{fill-rule:evenodd;}.cls-32,.cls-8{fill:#9c782c;}.cls-10,.cls-40{fill:#9b9fa0;}.cls-11,.cls-39{fill:#858686;}.cls-12{fill:#ececeb;}.cls-13,.cls-41{fill:#8f8f8f;}.cls-14{fill:#a3a1a1;}.cls-15,.cls-51{fill:#cbad2d;}.cls-16,.cls-33{fill:#8a6651;}.cls-17,.cls-31{fill:#debca4;}.cls-18,.cls-30{fill:#c2977a;}.cls-20{fill:#7b7b7b;}.cls-21,.cls-36{fill:#755924;}.cls-22{fill:#5d5d5d;}.cls-23{fill:#494849;}.cls-24,.cls-57{fill:#836528;}.cls-25{fill:#e8c9b6;}.cls-26{fill:#fff;}.cls-28{fill:#959494;}.cls-29{fill:#383938;}.cls-34{fill:#f3d65c;}.cls-35,.cls-52{fill:#e4c723;}.cls-37,.cls-38{fill:#737475;}.cls-42,.cls-45{fill:#805e4f;}.cls-43,.cls-44{fill:#593e35;}.cls-46,.cls-59{fill:#4f5353;}.cls-47,.cls-55{fill:#a17e6e;}.cls-48,.cls-60{fill:#6f7273;}.cls-49{fill:#a98c80;}.cls-50,.cls-56{fill:#b38b2e;}.cls-53{fill:#070908;opacity:0.2;}.cls-54,.cls-73{fill:#2b2b2b;}.cls-61{fill:#494749;}.cls-62{fill:#a67e62;}.cls-63,.cls-69{fill:#825941;}.cls-64,.cls-68{fill:#be9b82;}.cls-65,.cls-74{fill:#4f5253;}.cls-66{fill:#6f7173;}.cls-67{fill:#484749;}.cls-70{fill:#bc8f2d;}.cls-71{fill:#d0cecd;}.cls-72{fill:#c8ac9a;}</style></defs><title>explorers_Entertainer_ESFP_workplace_habits</title><g id="ILLUSTRATION_copy" data-name="ILLUSTRATION copy"><g id="stage_wall_copy" data-name="stage wall copy"><polygon class="cls-1" points="209.23 69.4 222.75 6.03 702.78 0 709.12 197.8 286.32 202.16 213.24 172.99 209.23 69.4"/><polygon class="cls-2" points="201.06 214.73 191.38 20.79 222.75 6.03 219.91 160.25 236.6 227.97 201.06 214.73"/></g><g id="speaker_copy" data-name="speaker copy"><polygon class="cls-3" points="133.5 104.93 136.82 156.23 124.75 163.94 125.46 108.28 133.5 104.93"/><polygon class="cls-4" points="126.88 106.61 124.75 161.17 118.18 165.19 116.46 117.42 126.88 106.61"/><polygon class="cls-5" points="117.29 135.52 134.33 118.34 133.5 104.93 116.46 117.42 117.29 135.52"/><polygon class="cls-6" points="92.85 81.97 79.75 48.28 138.9 41.49 163.91 46.9 92.85 81.97"/><polygon class="cls-4" points="140.19 71.51 108.68 54.72 80.76 47.94 90.1 111.89 116.46 117.42 140.19 71.51"/><polygon class="cls-3" points="163.91 46.9 166.44 97.5 116.46 117.42 107.65 54.65 163.91 46.9"/><polygon class="cls-7" points="139.06 79.58 144.07 83.79 154.95 91.01 154 94.37 128.67 100.48 123.99 81.38 139.06 79.58"/><polygon class="cls-8" points="141.01 70.3 142.66 73.17 144.07 83.79 125.69 88.61 122.87 72.35 141.01 70.3"/><polygon class="cls-7" points="150.36 57.85 149.94 60.03 142.66 73.17 123.19 78.11 123.56 65.66 150.36 57.85"/><path class="cls-9" d="M155.6,53.29,115.46,63.53l9.91,42,35.91-11.38Zm-25.73,45-5-30.77L149.94,60l5,31Z"/></g><g id="floor_copy" data-name="floor copy"><polygon class="cls-10" points="563.63 258.48 596.66 350 900 281.61 899 235.34 563.63 258.48"/><polygon class="cls-11" points="89.1 252.44 3 268.53 0 306.75 596.66 350 595.66 326.07 89.1 252.44"/><polygon class="cls-12" points="3 268.53 595.66 326.07 899 235.34 652.73 177.22 223.1 191.33 3 268.53"/><polygon class="cls-5" points="357.57 267.16 301.24 257.19 240.37 264.72 281.63 276.51 357.57 267.16"/><polygon class="cls-5" points="481.54 285.97 416.8 270.21 340.82 286.18 418.46 302.39 481.54 285.97"/><polygon class="cls-5" points="234.59 224.95 165.52 207.52 57.73 249.43 143.83 267.19 234.59 224.95"/><polygon class="cls-5" points="838.61 232.97 782.28 222.99 721.4 230.52 779.87 242.38 838.61 232.97"/><polygon class="cls-5" points="797.89 265.52 660.23 245.4 547.94 258.48 500.56 246.74 425.08 257.68 483.37 272.22 529.92 272.39 654.23 308.76 797.89 265.52"/></g><g id="stage_copy" data-name="stage copy"><polygon class="cls-12" points="234.76 180.03 219.74 160.92 565.63 161.93 565.63 198.13 271.8 197.13 234.76 180.03"/><polygon class="cls-2" points="236.6 182.38 317.21 219.68 583.65 214.56 588.99 179.02 569.63 170.98 577.64 189.58 256.29 188.58 236.6 182.38"/><polygon class="cls-2" points="219.74 160.92 274.64 189.08 264.29 213.22 218.37 192.98 219.74 160.92"/></g><g id="amply_on_stage_copy" data-name="amply on stage copy"><polygon class="cls-13" points="374.17 183.55 363.15 189.08 348.89 180.28 356.4 161.17 371.41 172.74 374.17 183.55"/><polygon class="cls-14" points="383.18 168.21 400.94 172.23 400.44 189.08 363.15 189.08 362.15 172.23 383.18 168.21"/><polygon class="cls-2" points="356.4 161.17 394.94 160.92 400.94 172.23 362.15 172.23 356.4 161.17"/></g><g id="amply_copy" data-name="amply copy"><polygon class="cls-2" points="94.11 205.17 77.75 167.29 159.18 145.83 202.22 160.92 94.11 205.17"/><polygon class="cls-11" points="171.69 192.6 131.15 170.98 77.75 167.29 75.33 242.89 141.16 251.69 171.69 192.6"/><polygon class="cls-10" points="202.22 160.92 205.48 226.04 141.16 251.69 129.81 170.89 202.22 160.92"/><polygon class="cls-1" points="196.94 184.81 196.05 168.13 138.9 177.6 141.4 194.66 196.94 184.81"/><polygon class="cls-13" points="142.1 199.44 148 239.7 198.89 221.26 197.21 189.78 142.1 199.44"/><polygon class="cls-15" points="185.87 176.76 186.46 181.12 190.96 180.87 190.54 175.59 185.87 176.76"/><path class="cls-10" d="M175.41,180.74a2.79,2.79,0,1,1,3.5,1.84A2.8,2.8,0,0,1,175.41,180.74Z"/><path class="cls-10" d="M166.73,182.34a2.79,2.79,0,1,1,3.5,1.83A2.78,2.78,0,0,1,166.73,182.34Z"/><path class="cls-10" d="M158.05,183.93a2.8,2.8,0,1,1,3.51,1.84A2.81,2.81,0,0,1,158.05,183.93Z"/><path class="cls-10" d="M143.2,186.69a2.8,2.8,0,1,1,3.51,1.84A2.82,2.82,0,0,1,143.2,186.69Z"/></g><g id="main_character_copy" data-name="main character copy"><polygon class="cls-16" points="349.83 112.5 351.25 105.72 362.07 98.94 366.37 109.5 355.12 113.55 349.83 112.5"/><polygon class="cls-4" points="357.58 98.01 354.43 93.94 363.22 90.99 373.72 94.91 365.18 99.98 357.58 98.01"/><polygon class="cls-3" points="365.91 98.33 371.98 88.54 377.86 89.42 376.97 91.54 372.68 90.9 367.38 98.93 365.91 98.33"/><polygon class="cls-3" points="360.4 103.85 364.38 118.75 371.92 115.36 372.71 99.05 363.4 100.16 360.4 103.85"/><polygon class="cls-4" points="355.57 97.82 355.18 113.41 364.38 118.75 363.4 100.16 355.57 97.82"/><polygon class="cls-6" points="361.87 98.56 363.15 96.9 373.72 94.91 374.27 99.53 363.49 102.13 361.87 98.56"/><polygon class="cls-3" points="354.43 93.94 354.15 99.53 363.49 102.13 363.15 96.9 354.43 93.94"/><polygon class="cls-17" points="348.7 111.24 351.25 105.72 355.61 99.96 361.04 99.25 361.66 101.38 357.61 104.9 356.53 108.36 348.7 111.24"/><polygon class="cls-17" points="305.05 122.88 330.42 120.72 333.23 128.6 334.64 133.97 310.6 140.91 305.43 144.32 306.46 130.86 305.05 122.88"/><polygon class="cls-18" points="330.08 120.71 351.25 105.72 355.12 113.55 334.64 133.97 330.08 120.71"/><polygon class="cls-19" points="247.41 114.94 276.27 114.41 272.34 94.62 247.41 114.94"/><polygon class="cls-20" points="227.2 63.1 225.2 92.83 246.61 82.71 227.2 63.1"/><polygon class="cls-17" points="268.24 128.33 254.4 155.88 257.55 171.21 268.73 155.51 270.23 135.31 268.24 128.33"/><polygon class="cls-17" points="268.13 127.98 305.05 122.88 293.48 140.84 268.13 127.98"/><polygon class="cls-8" points="268.13 127.98 268.89 155.12 286.54 145.44 293.33 138.11 268.13 127.98"/><polygon class="cls-8" points="293.33 138.11 305.05 122.88 314.63 152.21 299.14 147.58 293.33 138.11"/><polygon class="cls-21" points="268.84 154.05 269.65 179.56 293.39 194.08 305.96 175.61 314.63 152.21 293.33 138.11 268.84 154.05"/><polygon class="cls-19" points="342.76 65.9 344.35 77.08 328.81 79.47 328.68 61 342.76 65.9"/><polygon class="cls-22" points="333.1 43.15 348.53 60.28 336.47 66.51 330.63 64.02 325.59 49.4 333.1 43.15"/><polygon class="cls-23" points="348.53 60.28 330.63 64.02 322.62 71.27 328.81 79.47 348.53 60.28"/><polygon class="cls-23" points="225.2 92.83 256.76 100.62 271.36 99.28 268.47 82.14 258.19 70.53 225.2 92.83"/><polygon class="cls-24" points="326.81 69.03 335.17 85.61 324.11 92 324.89 85.38 327.81 83.65 325.62 79.18 324.03 75.72 326.81 69.03"/><polygon class="cls-17" points="266.69 84.87 274.41 104.93 284.86 122.74 297.06 121.12 302.44 111.24 324.79 113.63 333.1 43.15 284.68 65.71 266.69 84.87"/><polygon class="cls-18" points="288.58 80.2 287.64 110.74 302.44 111.24 296.1 122.77 296.73 130.09 279.53 126.37 271.36 99.28 271.57 93.89 266.69 84.87 280.63 67.72 288.58 80.2"/><polygon class="cls-18" points="319.32 62.02 317.51 64.1 315.82 78.59 323.91 68.08 327.07 64.07 319.32 62.02"/><polygon class="cls-18" points="312.73 63.51 308.77 60.53 298.21 62.36 306.99 73.08 309.81 82.98 312.73 63.51"/><polygon class="cls-16" points="280.62 91.75 271.36 99.28 266.69 84.87 274.49 72.89 285.15 79.11 280.62 91.75"/><polygon class="cls-25" points="312.73 63.51 317.51 64.1 315.23 83.61 309.81 82.98 312.73 63.51"/><polygon class="cls-16" points="309.81 82.98 312.24 86.61 315.23 83.61 309.81 82.98"/><polygon class="cls-16" points="332.56 47.7 288.58 82.78 279.74 83.98 281.42 75.49 308.77 60.53 333.1 43.15 332.56 47.7"/><polygon class="cls-22" points="252.37 60.74 248.2 54.51 214.13 52.81 250.26 96.33 261.37 81.58 261.18 71.48 252.37 60.74"/><polygon class="cls-20" points="244.25 66.09 214.13 52.81 258.04 41.32 256.06 55.98 244.25 66.09"/><polygon class="cls-22" points="304.34 26.5 269.31 21.06 244.25 66.09 281.79 46.9 304.34 26.5"/><polygon class="cls-19" points="320.67 56.77 327.07 64.07 319.32 62.02 320.67 56.77"/><polygon class="cls-24" points="293.43 88.75 312.04 87.99 323.61 93.26 309.43 107.34 293.43 88.75"/><polygon class="cls-21" points="302.91 95.61 308.91 92.19 315.79 97.53 312.11 101.27 307.23 100.58 302.91 95.61"/><polygon class="cls-26" points="302.91 95.61 315.79 97.53 319.47 93.79 298.59 90.64 302.91 95.61"/><polygon class="cls-24" points="282.4 78.23 280.62 91.75 262.16 89.72 262.55 86.57 266.69 84.87 276.19 85.78 276.82 80.59 282.4 78.23"/><polygon class="cls-16" points="302.44 111.24 282.49 108.89 296.73 130.09 302.44 111.24"/><polygon class="cls-19" points="261.18 71.48 250.26 96.33 282.4 78.23 278.98 68.41 261.18 71.48"/><path class="cls-27" d="M325.41,70.71a2.85,2.85,0,1,1-3.35-2.25A2.86,2.86,0,0,1,325.41,70.71Z"/><path class="cls-27" d="M307.7,68.47a2.85,2.85,0,1,1-3.35-2.25A2.86,2.86,0,0,1,307.7,68.47Z"/><polygon class="cls-23" points="340.49 37 288.58 80.2 244.25 66.09 289.43 50.55 340.49 37"/><polygon class="cls-28" points="340.49 37 317.69 17.71 244.25 66.09 340.49 37"/><polygon class="cls-29" points="225.2 92.83 271.36 99.28 247.41 114.94 225.2 92.83"/><polygon class="cls-21" points="337.95 264.52 315.85 264.06 314.9 257.43 325.4 257.43 337.95 264.52"/><polygon class="cls-17" points="316.79 241.06 324.52 248.73 338.79 261.75 335.52 262.87 322.32 259.7 317.01 255.9 315.86 250.1 316.79 241.06"/><polygon class="cls-18" points="315.86 250.1 322.32 259.7 341.73 261.11 337.95 264.52 314.9 257.43 315.86 250.1"/><polygon class="cls-8" points="331.93 255.49 328.31 261.56 331.28 262.47 334.29 257.64 331.93 255.49"/><polygon class="cls-30" points="265.36 223.88 268.93 254.66 270.45 264.37 277.52 264.44 277.06 254.68 282.24 225.03 265.36 223.88"/><polygon class="cls-31" points="268.93 254.66 268.14 271.54 281.29 271.38 277.05 254.5 268.93 254.66"/><polygon class="cls-30" points="268.14 271.54 281.29 271.38 273.8 267.16 268.14 271.54"/><polygon class="cls-32" points="267.82 267.16 280.04 266.85 279.56 264.61 268.75 264.97 267.82 267.16"/><polygon class="cls-33" points="266.19 231.52 266.27 231.68 280.64 233.89 282.24 225.03 277.67 224.72 266.19 231.52"/><polygon class="cls-30" points="300.03 222.43 315.86 250.1 324.52 248.73 316.68 217.54 300.03 222.43"/><polygon class="cls-33" points="300.03 222.43 303.83 229.08 317.21 219.68 317.21 219.68 311.58 219.07 300.03 222.43"/><polygon class="cls-34" points="305.96 175.61 269.56 176.6 262.55 196.69 287.1 186.31 305.96 175.61"/><polygon class="cls-35" points="317.28 219.68 274.18 212.73 262.55 196.69 305.96 175.61 317.28 219.68"/><polygon class="cls-15" points="317.28 219.68 266.04 231.6 262.55 196.69 317.28 219.68"/><polygon class="cls-36" points="283 272.46 278.24 259.24 280.04 270.63 268.93 270.89 268.81 257.36 266.29 272.79 283 272.46"/><polygon class="cls-4" points="287.91 162.63 284.73 158.54 293.59 155.56 304.18 159.52 295.57 164.62 287.91 162.63"/><polygon class="cls-3" points="297.73 164.38 300.89 153.78 306.58 152.77 306.69 154.85 302.35 155.36 299.32 164.58 297.73 164.38"/><polygon class="cls-3" points="290.75 168.52 294.44 181.27 302.9 177.22 303.16 163.69 293.78 164.8 290.75 168.52"/><polygon class="cls-4" points="285.89 162.45 285.94 179.11 294.44 181.27 293.78 164.8 285.89 162.45"/><polygon class="cls-6" points="292.23 163.19 293.53 161.52 304.18 159.52 304.73 164.17 293.87 166.79 292.23 163.19"/><polygon class="cls-3" points="284.73 158.54 284.45 164.17 293.87 166.79 293.53 161.52 284.73 158.54"/><polygon class="cls-32" points="271.38 162.94 269.01 158.59 278.71 156.11 288.4 159.79 279.04 164.92 271.38 162.94"/><polygon class="cls-3" points="279.78 163.26 284.95 153.28 289.67 155.29 288.96 156.86 285.6 155.5 281.26 163.87 279.78 163.26"/><polygon class="cls-3" points="274.22 168.83 278 181.87 286.68 179.31 286.63 163.99 277.25 165.11 274.22 168.83"/><polygon class="cls-4" points="269.36 162.75 269.13 178.01 278 181.87 277.25 165.11 269.36 162.75"/><polygon class="cls-6" points="275.71 163.5 277.37 161.83 288.4 159.79 288.34 165.32 277.34 167.09 275.71 163.5"/><polygon class="cls-3" points="269.01 158.59 267.93 164.47 277.34 167.09 277.37 161.83 269.01 158.59"/><polygon class="cls-18" points="285.19 174.61 289.2 167.63 297.5 171.77 296.71 178.25 288.78 179.91 285.19 174.61"/><polygon class="cls-17" points="276.71 171.65 279.89 168.06 289.2 167.63 288.78 179.91 277.92 176.51 276.71 171.65"/><polygon class="cls-18" points="247.35 168.92 277.92 176.51 279.89 168.06 254.4 155.88 247.35 168.92"/></g><g id="_3rd_character_copy" data-name="3rd character copy"><polygon class="cls-37" points="875.26 225.03 878.89 219.88 866.63 215.86 860.5 224.35 875.26 225.03"/><polygon class="cls-11" points="853.49 227.17 860.12 230.94 878.31 230.15 878.89 219.88 860.5 224.35 853.49 227.17"/><polygon class="cls-37" points="849.61 225.16 845.79 221.29 844.48 213.09 859.62 220.26 849.61 225.16"/><polygon class="cls-11" points="852.49 228.18 845.89 221.32 851.24 220 859.62 220.26 860.5 224.35 852.49 228.18"/><polygon class="cls-37" points="858.12 205.71 853.87 200.85 847.17 206.99 849.14 214.66 854.45 208.4 858.12 205.71"/><polygon class="cls-10" points="859.46 200.94 853.87 200.85 854.45 208.4 868.88 213.59 871.47 207.64 859.46 200.94"/><polygon class="cls-11" points="877.48 214.01 877.98 208.15 860.87 197.75 853.87 200.85 869.22 209.15 877.48 214.01"/><polygon class="cls-37" points="871.63 217.03 877.98 208.15 869.22 209.15 860.14 214.05 857.54 219.12 860.79 220.8 871.63 217.03"/><polyline class="cls-11" points="857.54 220.38 857.73 220.64 860.5 224.35 879.89 216.61 877.98 208.15 861.79 218.9"/><polygon class="cls-37" points="845.79 221.29 846.23 229.06 860.12 230.94 860.5 224.35 845.79 221.29"/><polygon class="cls-38" points="848.83 214.76 847.18 207.06 837.87 176.76 835.16 178.54 840.11 209.91 848.83 214.76"/><polygon class="cls-39" points="856.25 220.92 861.79 218.9 860.14 214.05 847.18 207.06 845.41 209.2 856.25 220.92"/><polygon class="cls-40" points="838.93 204.94 840.93 215.47 860.5 224.35 861.79 218.9 845.41 209.2 838.93 204.94"/><polygon class="cls-39" points="845.41 209.2 840.93 215.47 827.5 182.32 828.64 177.12 835.16 178.54 845.41 209.2"/><polygon class="cls-39" points="806.02 33.33 810.42 25.43 790.62 20.26 778.21 21.96 773.96 16.28 765.17 14.07 749.41 38.11 795.65 40.59 806.02 33.33"/><polygon class="cls-41" points="774.59 32.06 790.62 20.26 773.97 16.28 761.87 39.16 775.22 42.01 774.59 32.06"/><polygon class="cls-42" points="699.38 145.79 695.84 144.08 685.6 146.86 689.52 156.35 703.49 155.15 699.38 145.79"/><polygon class="cls-43" points="699.45 140.49 695.16 143.99 703.49 155.15 714.65 148.15 715.08 141.07 699.45 140.49"/><polygon class="cls-44" points="762.35 85.67 768.31 94.99 770.59 114.32 780.79 105.72 786.34 102.47 793.37 101.14 799.99 88.32 780.37 88.99 770.23 87.81 762.35 85.67"/><polygon class="cls-45" points="787.35 81.09 790.53 90.36 795.08 91.2 792.03 101.57 793.39 104.23 798.74 102.31 799.31 94.88 806.66 74.99 804.64 61.2 797.29 50.62 794.28 51.4 787.35 81.09"/><polygon class="cls-44" points="799.24 67.27 806.66 74.99 808.95 69.09 804.74 65.83 799.24 67.27"/><polygon class="cls-46" points="795.52 46.84 797.29 50.62 801.05 62.79 814.41 56.04 815.49 52.94 812.79 35.24 801.98 38.88 799.11 43.26 795.52 46.84"/><polygon class="cls-47" points="802.08 54.46 799.24 67.27 808.95 69.09 814.41 56.04 802.08 54.46"/><polygon class="cls-44" points="805 58.51 803.23 63.81 809.24 59.02 805 58.51"/><polygon class="cls-47" points="746.94 86.27 790.53 90.36 799.11 43.26 774.59 32.06 749.41 38.11 746.94 86.27"/><polygon class="cls-45" points="751.53 48.71 758.84 46.74 764.31 50.92 766.5 54.29 766.58 59.86 763.69 66.2 759.49 54.91 751.53 48.71"/><polygon class="cls-45" points="770.81 54.55 769.39 59.76 771.28 66.74 778.03 56.4 787.83 51.92 780.59 49.37 773.49 51.48 770.81 54.55"/><polygon class="cls-48" points="751.53 48.71 758.83 44.87 764.72 48.9 764.31 50.92 758.11 48.64 751.53 48.71"/><polygon class="cls-48" points="773.44 49.42 773.49 51.48 780.48 50.34 787.83 51.92 780.77 47.32 773.44 49.42"/><polygon class="cls-44" points="763.69 66.2 767.34 65.35 771.28 66.74 767.46 69.56 763.69 66.2"/><polygon class="cls-49" points="766.5 54.29 770.81 54.55 771.28 66.74 763.69 66.2 766.5 54.29"/><polygon class="cls-8" points="752.1 136 749.74 140.34 746.06 139.66 733.06 131.57 731.94 126.17 749.36 106 752.1 110.35 752.1 136"/><polygon class="cls-50" points="731.94 126.17 722.51 137.09 745.78 144.47 749.74 140.34 731.94 126.17"/><polygon class="cls-8" points="769.97 231.92 738.45 231.85 738.45 229.09 741.92 227.09 766.49 226.66 769.97 229.17 769.97 231.92"/><polygon class="cls-8" points="816.8 235.43 795.59 235.43 795.46 232.22 798.12 229.88 813.82 229.3 816.68 232.22 816.8 235.43"/><polygon class="cls-50" points="757.46 217.5 738.45 229.09 753.04 229.17 769.97 229.17 769.97 221.09 768.35 218.76 760.13 216.22 757.46 217.5"/><polygon class="cls-50" points="798.57 220.02 795.46 232.22 802.47 229.48 808.82 229.48 816.68 232.22 812.56 219.56 808.65 216.96 802.25 217.2 798.57 220.02"/><polygon class="cls-50" points="801.04 227.8 795.46 232.22 816.68 232.22 810.44 227.57 801.04 227.8"/><polygon class="cls-48" points="781.36 183.79 789.4 200.61 793.33 202.85 810.36 203.31 813.12 201.64 814.13 169.19 811.19 165.99 804.59 164.38 780.43 177.9 781.36 183.79"/><polygon class="cls-48" points="749.01 164.99 753.4 199.78 758.09 201.32 771.07 201.7 776.47 200.16 781.36 183.79 778.5 178.01 754.17 165.9 754.51 162.35 749.01 164.99"/><polygon class="cls-46" points="798.57 220.02 812.56 219.56 813.12 201.64 789.4 200.61 798.57 220.02"/><polygon class="cls-46" points="755.9 218.39 769.97 221.09 776.47 200.16 753.37 199.71 755.9 218.39"/><polygon class="cls-46" points="749.01 164.99 781.36 183.79 802.94 167.13 804.59 164.38 802.12 157.97 749.14 160.07 749.01 164.99"/><polygon class="cls-51" points="749.14 160.07 772.71 160.95 775.46 159.12 777.39 111.96 774.36 110.35 772.71 101.88 765.29 104.17 763.68 100.23 749.36 106 749.14 160.07"/><polygon class="cls-50" points="778.49 102.11 774.36 110.35 772.71 160.95 803.19 160.15 812.01 155.46 814.68 151.68 815.13 137.22 819.53 122.19 816 102.57 801 99.23 788.92 106.72 778.49 102.11"/><polygon class="cls-52" points="768.18 94.79 763.68 100.23 762.27 109.44 772.71 101.88 768.18 94.79"/><polygon class="cls-52" points="778.49 102.11 789.62 111.16 801.78 99.48 800.4 91.95 778.49 102.11"/><path class="cls-53" d="M813.93,175.62l-11-8.49,11.19,2.06-.2,6.43Z"/><polygon class="cls-44" points="758.37 72.5 778.03 74.08 774.58 82.43 761.86 81.54 758.37 72.5"/><polygon class="cls-26" points="761.2 74.13 774.58 75.38 773.64 78.05 762.51 77.23 761.2 74.13"/><polygon class="cls-45" points="708.38 138.7 726.81 131.98 745.78 144.47 714.65 148.15 708.38 138.7"/><polygon class="cls-48" points="783.71 39.32 774.59 32.06 810.42 25.43 812.79 35.24 799.11 43.26 783.71 39.32"/><path class="cls-54" d="M762.12,55.3a2.36,2.36,0,1,1-2.35-2.36A2.36,2.36,0,0,1,762.12,55.3Z"/><path class="cls-54" d="M779.43,56.59a2.36,2.36,0,1,1-2.36-2.37A2.36,2.36,0,0,1,779.43,56.59Z"/><polygon class="cls-39" points="751.34 155.18 746.55 153.52 677.19 134.34 674.44 137.81 743.49 159.12 754.64 159.28 751.34 155.18"/><polygon class="cls-38" points="794.15 154.39 801.7 151.07 789.25 149.73 746.55 153.52 749.46 157.07 794.15 154.39"/><polygon class="cls-39" points="801.7 151.07 800.52 156.28 749.01 164.99 745.49 160.78 749.46 157.07 801.7 151.07"/><polygon class="cls-40" points="749.46 157.07 749.01 164.99 675.85 142.67 676.79 137.46 749.46 157.07"/><polygon class="cls-55" points="711.79 143.73 708.38 138.7 700.46 137.81 691.63 141.37 692.8 144.83 699.31 143.76 705.19 146.01 711.79 143.73"/><polygon class="cls-39" points="835.16 178.54 837.87 176.76 801.7 151.07 829.74 176.29 835.16 178.54"/><polygon class="cls-44" points="843.11 144.03 822.26 143.99 825.75 141.49 841.7 137.35 848.87 138.32 843.11 144.03"/><polygon class="cls-8" points="815.13 137.22 821.46 137.35 833.24 132.29 837.8 127.08 816 102.57 815.13 137.22"/><polygon class="cls-47" points="822.26 143.99 818.96 149.98 819.69 155.71 817.1 161.98 818.32 165.63 823.11 161.46 824.02 158.34 826.9 158.16 846.26 141.29 843.11 144.03 834.26 141.84 822.26 143.99"/><polygon class="cls-50" points="815.13 137.22 822.26 143.99 848.87 138.32 837.8 127.08 815.13 137.22"/><polygon class="cls-50" points="818.96 149.98 826.9 158.16 823.11 161.46 819.42 156.94 817.01 155.62 816.71 153.98 818.96 149.98"/><polygon class="cls-40" points="835.16 178.54 827.5 182.32 800.52 156.28 801.7 151.07 835.16 178.54"/><polygon class="cls-47" points="802.12 157.97 802.94 167.13 814.13 169.19 818.34 165.61 814.68 151.68 802.12 157.97"/><polygon class="cls-45" points="819.42 156.94 814.68 151.68 814.35 159.92 818.22 165.72 819.42 156.94"/></g><g id="Layer_3_copy" data-name="Layer 3 copy"><polygon class="cls-56" points="625.7 233.54 652.73 291.37 756.84 269.75 756.34 249.13 625.7 233.54"/><polygon class="cls-57" points="599.17 250.64 558.62 251.14 557.12 267.23 652.73 291.37 656.23 273.27 599.17 250.64"/><polygon class="cls-3" points="638.21 250.64 656.23 273.27 756.34 249.13 742.58 219.71 651.22 210.91 638.21 250.64"/><polygon class="cls-4" points="600.67 206.89 582.65 215.44 558.62 251.14 656.23 273.27 668.24 226.5 600.67 206.89"/><polygon class="cls-38" points="691.02 216.94 668.24 226.5 582.65 215.44 574.89 178.73 691.02 216.94"/><polygon class="cls-39" points="749.08 188.03 753.4 199.78 742.58 219.71 668.24 226.5 670.08 212.75 749.08 188.03"/><polygon class="cls-58" points="732.81 83.35 748.83 57.2 656.73 44.46 583.32 59.21 672.75 110.84 732.81 83.35"/><polygon class="cls-40" points="636.71 73.96 666.74 68.6 748.83 57.2 753.4 199.78 670.08 212.75 636.71 73.96"/><polygon class="cls-39" points="581.98 88.71 583.32 80.67 583.32 59.21 666.74 68.6 670.08 212.75 619.06 201.01 581.98 88.71"/><polygon class="cls-2" points="582.04 110.77 548.39 91.77 583.03 83 651.14 89.61 612.15 109.78 582.04 110.77"/><polygon class="cls-10" points="598.33 110.27 623.5 97.88 651.14 89.61 648.01 197.54 619.06 201.01 598.33 110.27"/><polygon class="cls-11" points="548.39 91.77 623.5 97.88 619.06 201.01 542.03 180.32 548.39 91.77"/><polygon class="cls-59" points="576.2 119.03 602.03 124.4 599.07 158.78 569.21 158.12 576.2 119.03"/><polygon class="cls-60" points="573.74 154.98 599.07 158.78 598.83 162.33 578.59 159.44 573.74 154.98"/><polygon class="cls-60" points="574.8 138.45 576.2 119.03 572.17 118.2 571.35 129.19 574.8 138.45"/><polygon class="cls-61" points="597.78 130.41 597.1 137.6 593.03 137.23 593.77 129.92 597.78 130.41"/><polygon class="cls-61" points="591.98 142.19 596.42 142.69 594.82 152.73 590.87 152.17 591.98 142.19"/><polygon class="cls-61" points="585.56 133.51 590.5 134.01 590.13 136.86 585.13 136.05 585.56 133.51"/><polygon class="cls-61" points="585.87 131.53 590.5 132.21 590.99 129.24 585.81 128.74 585.87 131.53"/><polygon class="cls-35" points="602.9 106.18 602.28 113.74 610.42 115.11 611.41 107.79 602.9 106.18"/><polygon class="cls-39" points="709.12 152.75 715.96 160.62 731.15 174.54 729.14 179.9 689.93 185.26 686.1 152.91 709.12 152.75"/><polygon class="cls-48" points="713.63 137.83 715.63 142.85 715.96 160.62 687.43 165.15 685.93 137.83 713.63 137.83"/><polygon class="cls-39" points="729.81 119.05 728.81 122.57 715.63 142.85 685.43 147.38 688.1 126.93 729.81 119.05"/><path class="cls-9" d="M738.49,112.52l-57.07,6.7L684.09,193l56.07-12.06ZM692.1,181.91l-2.33-51.63,39-7.71,2.34,52Z"/><polygon class="cls-58" points="677.88 79.41 680.13 108.45 739.2 103.3 736.19 72.24 677.88 79.41"/><polygon class="cls-40" points="682.42 85.11 682.92 92.82 689.52 92.32 688.6 84.52 682.42 85.11"/><polygon class="cls-40" points="693.19 84.52 694.44 91.98 701.03 91.39 699.44 83.68 693.19 84.52"/><polygon class="cls-40" points="705.78 83.27 707.04 91.23 732.9 88.29 731.81 81.5 705.78 83.27"/><polygon class="cls-40" points="688.76 96.84 689.35 102.79 695.19 102.37 695.11 96.09 688.76 96.84"/><polygon class="cls-40" points="700.28 95.25 701.2 101.95 709.71 101.28 708.87 94.58 700.28 95.25"/><polygon class="cls-40" points="713.71 94.92 714.21 101.12 722.8 100.53 721.8 94.08 713.71 94.92"/><polygon class="cls-40" points="725.6 93.53 726.43 99.73 734.19 99.23 733.52 92.36 725.6 93.53"/></g><g id="_2nd_character_copy" data-name="2nd character copy"><g id="man"><polygon class="cls-62" points="551.96 144.4 560.02 140.02 576.06 139.19 576.96 149.85 565.61 155.97 551.96 144.4"/><polygon class="cls-4" points="572.65 132.56 578.26 133.89 569.43 161.76 563.12 166.01 566.53 137.82 572.65 132.56"/><polygon class="cls-6" points="565.55 134.05 564.9 130.04 568.21 129.35 578.26 133.89 574.44 135.11 565.55 134.05"/><polygon class="cls-63" points="550.48 148.69 559.28 140.02 565.61 155.97 552.7 160.35 544.14 155.39 550.48 148.69"/><polygon class="cls-3" points="564.9 130.04 552.37 160.66 563.12 166.01 574.44 135.11 564.9 130.04"/><polygon class="cls-64" points="540.69 160.35 546.94 149.44 551.22 139.52 560.59 137.04 561.42 140.68 555.49 144.64 553.52 151.75 540.69 160.35"/><polygon class="cls-57" points="467.7 134.07 453.95 127.46 435.3 143.99 461.45 159.36 467.7 134.07"/><polygon class="cls-57" points="505.21 145.64 515.93 135.28 539.11 159.52 511.47 166.8 504.89 161.51 505.21 145.64"/><polygon class="cls-57" points="496.55 248.31 512.31 253 512.31 257.88 483.69 258.06 473.86 250.34 496.55 248.31"/><polygon class="cls-4" points="495.92 234.38 500.27 241.85 512.31 253 477.13 254.26 477.13 242.49 495.92 234.38"/><polygon class="cls-32" points="476 253.63 483.69 258.06 483.69 262.12 459.86 262.12 459.86 258.06 476 253.63"/><polygon class="cls-3" points="478.14 244.13 482.18 248.31 483.69 258.06 459.86 258.06 464.65 249.2 478.14 244.13"/><polygon class="cls-61" points="491.76 213.73 503.86 219.43 500.27 241.85 482.18 248.31 472.6 226.27 490.88 213.73 491.76 213.73"/><polygon class="cls-59" points="467.3 212.21 482.18 227.92 482.18 248.31 464.65 249.2 461.75 235.26 467.3 212.21"/><polygon class="cls-59" points="493.9 188.65 509.21 191.57 503.86 219.43 482.18 227.92 471.96 216.77 493.9 188.65"/><polygon class="cls-60" points="477.64 201.57 482.18 212.21 482.18 227.92 461.75 235.26 453.42 199.46 477.64 201.57"/><polygon class="cls-61" points="496.05 168.89 509.21 191.57 482.18 212.21 453.42 199.46 451.99 193.3 496.05 168.89"/><polygon class="cls-62" points="497.93 121.54 495.56 137.18 470.93 117.1 466.38 89.51 490.99 50.53 506.91 80.2 497.93 121.54"/><polyline class="cls-63" points="465.68 84.87 466.38 89.51 475.78 84.59 470.61 77.86 469.14 83.03"/><polygon class="cls-65" points="486.08 41.03 472.41 41.36 462.67 58.13 464.06 71.28 483.59 62.26 492.41 48.28 486.08 41.03"/><polygon class="cls-66" points="494.58 30.7 472.41 41.36 490.99 50.53 509.54 59.88 494.58 30.7"/><polygon class="cls-65" points="518.13 38.64 494.58 30.7 508.28 60.4 522.4 61.45 518.13 38.64"/><polygon class="cls-66" points="528.01 64.04 519.85 66.89 518.13 38.64 532.75 43.56 538.62 63.56 528.01 64.04"/><polygon class="cls-66" points="528.01 64.04 518.62 68.87 518.13 38.64 523.8 40.7 528.01 64.04 528.01 64.04"/><polygon class="cls-67" points="471.17 71.1 474.1 77.72 475.67 75.62 481.46 75.67 490.99 50.53 464.42 71.25 471.17 71.1"/><polygon class="cls-63" points="511.9 111.95 497.84 129.62 482.76 126.87 478.26 124.24 477.11 112.71 482.57 113.48 511.9 111.95"/><polygon class="cls-64" points="527.48 121.11 482.57 113.48 490.99 50.53 538.62 63.56 527.48 121.11"/><polygon class="cls-68" points="474.56 69.94 464.42 71.25 465.68 84.87 475.78 84.59 474.56 69.94"/><polygon class="cls-69" points="471.59 75.76 471.62 81.56 467.67 75.92 471.59 75.76"/><polygon class="cls-32" points="505.42 129.19 505.3 141.7 511.47 166.8 509.57 186.63 497.65 189.6 480.83 192.22 471.01 186.88 490.03 126.87 505.42 129.19"/><polygon class="cls-56" points="505.42 129.19 515.93 135.28 511.47 166.8 485.06 166.47 481.28 155.39 490.03 126.87 505.42 129.19"/><polygon class="cls-57" points="470.94 124.13 453.95 127.46 451.48 187.66 459.52 193.82 481.61 193.69 485.06 166.47 478.98 128.55 470.94 124.13"/><polygon class="cls-70" points="509.55 186.32 451.48 187.66 451.99 193.3 509.21 191.57 509.55 186.32"/><polygon class="cls-32" points="469.46 122.35 453.95 127.46 452.56 160.05 485.06 166.47 490.03 126.87 478.98 128.55 469.46 122.35"/><polygon class="cls-3" points="470.78 116.54 466.88 123.2 476.82 136.78 490.03 126.87 499.9 140.16 505.42 129.19 503.12 122.98 490.03 126.87 470.78 116.54"/><polygon class="cls-71" points="486.39 186.79 487.04 192.27 478.09 192.58 478.34 186.99 486.39 186.79"/><polygon class="cls-62" points="523.93 76.18 518.12 76.46 517.33 78.04 513.09 79.82 510.91 76.74 509.87 74.95 506.96 72.11 501.29 70.85 495.36 71.13 501.12 77.64 508.32 91.45 513.83 87.26 515.77 92.81 525.38 82.48 532.21 78.02 525.41 75.38 523.93 76.18"/><polygon class="cls-63" points="512.58 87.7 515.77 92.81 510.78 95.59 508.32 91.45 512.58 87.7"/><polygon class="cls-72" points="517.33 78.04 510.91 76.74 508.32 91.45 515.77 92.81 517.33 78.04"/><path class="cls-73" d="M501.37,79.33a2.56,2.56,0,1,0,3-2.07A2.56,2.56,0,0,0,501.37,79.33Z"/><ellipse class="cls-73" cx="524.13" cy="83.3" rx="2.56" ry="2.58"/><polygon class="cls-74" points="509.87 74.95 505.24 69.43 495.36 71.13 509.87 74.95"/><polygon class="cls-74" points="518.12 76.46 525.41 73.45 532.21 78.02 518.12 76.46"/><polygon class="cls-63" points="499.28 102.99 516.46 104.88 516.15 106.61 498.76 104.75 499.28 102.99"/><polygon class="cls-62" points="539.13 153.32 511.47 166.8 524.4 180.68 545.79 165.55 549.92 155.08 539.13 153.32"/><polygon class="cls-6" points="421.39 138.29 461.13 136.05 457.18 175.47 425.1 176.71 421.39 138.29"/><polygon class="cls-62" points="426.58 152.11 422.09 145.72 418.99 155.45 424.36 169.09 426.58 152.11"/><polygon class="cls-64" points="422.09 145.72 434.19 150.14 432.5 162.58 424.36 169.09 422.09 145.72"/><polygon class="cls-56" points="539.13 153.32 545.79 165.3 552.7 160.35 546.94 149.44 539.13 153.32"/><polygon class="cls-34" points="567.58 143.37 569.1 138.98 565.73 136.79 563.61 141.81 567.58 143.37"/><polygon class="cls-4" points="558.85 153.06 556.35 158.96 561.49 161 563.55 155.04 558.85 153.06"/><polygon class="cls-4" points="566.63 146.13 562.55 144.31 560.4 149.39 564.9 151.13 566.63 146.13"/><polygon class="cls-14" points="579.5 115.09 582.08 114.17 580.5 118.2 577.16 119.62 579.5 115.09"/><polygon class="cls-2" points="577.33 119.29 577.25 116.27 580.16 113.5 582.08 114.17 579.08 117.61 577.33 119.29"/><polygon class="cls-2" points="572 129.84 572.24 132.5 573.97 132.32 580.5 118.2 579.08 117.61 572 129.84"/><polygon class="cls-1" points="570.21 131.88 577.25 116.27 579.08 117.61 572.24 132.5 570.21 131.88"/></g></g><g id="tool_copy" data-name="tool copy"><polygon class="cls-9" points="415.71 244.59 412.49 245.75 364.4 255.46 377.48 255.21 431.61 260.49 424.91 243.71 415.71 244.59"/><polygon class="cls-24" points="386.76 264.34 381.13 255 420.47 247.16 438.82 253.95 406.12 271.38 386.76 264.34"/><polygon class="cls-75" points="395.5 237.92 394.13 232.2 398.38 232.26 404.7 245.4 401.07 248.17 395.5 237.92"/><polygon class="cls-7" points="399.07 248.67 391.75 235.6 394.13 232.2 401.7 247.22 399.07 248.67"/><polygon class="cls-40" points="403.78 248.75 402.11 247.75 400.11 248.75 406.95 260.66 409.79 260.99 403.78 248.75"/><polygon class="cls-58" points="411.79 260.32 404.78 246.41 402.11 247.75 409.79 260.99 411.79 260.32"/><polygon class="cls-58" points="439.65 237.36 440.11 234.72 435.32 233.67 430.15 234.39 424.97 242.55 439.65 237.36"/><polygon class="cls-39" points="425.85 260.36 421.09 245.65 430.23 241.38 432.98 256.47 425.85 260.36"/><polygon class="cls-40" points="447.25 257.72 445.83 251.44 440.11 234.72 425.6 238.74 429.48 257.6 447.25 257.72"/><polyline class="cls-48" points="387.12 237.54 386.98 237.24 385.52 234.31 383.63 235.07 384.38 243.9 388.83 244.09"/><polygon class="cls-58" points="377.67 237.35 379.65 234.78 381.07 235.07 382.58 241.72 386.84 241.15 385.52 234.31 388.35 234.21 390.25 238.11 391.76 246.04 390.2 249.56 393.27 261.1 388.45 262.24 384.48 251.22 378.43 247.7 377.67 237.35"/><polygon class="cls-39" points="378.05 243.24 375.21 239.91 376.79 235.53 379.65 234.78 378.52 239.63 378.05 243.24"/><polygon class="cls-48" points="386.94 270.36 383.91 251.88 377.38 248.94 375.21 239.91 378.52 239.63 380.22 247.99 384.95 250.27 389.01 271.59 386.94 270.36"/><polyline class="cls-48" points="416.11 231.59 416.29 231.24 418.01 227.79 420.24 228.68 419.34 239.09 414.11 239.32"/><polygon class="cls-58" points="427.25 231.37 424.91 228.35 423.24 228.68 421.46 236.52 416.45 235.85 418.01 227.79 414.66 227.68 412.44 232.26 410.65 241.61 412.49 245.75 408.87 259.35 416.96 263.51 419.23 247.71 426.36 243.57 427.25 231.37"/><polygon class="cls-39" points="426.81 238.31 430.15 234.39 428.28 229.23 424.91 228.35 426.25 234.06 426.81 238.31"/><polygon class="cls-48" points="417.59 272.81 419.84 250.05 427.23 246.78 430.15 234.39 426.25 234.06 424.25 243.91 418.68 246.59 413.88 271.72 417.59 272.81"/><polygon class="cls-9" points="370.08 266.52 364.4 255.46 375.17 253.7 416.13 256.8 445.83 251.44 457.18 253.45 423.14 276.92 370.08 266.52"/><polygon class="cls-75" points="380.09 273.9 417.8 260.82 457.18 253.45 456.84 285.3 415.46 294.01 380.09 273.9"/><polygon class="cls-7" points="364.4 255.46 417.8 260.82 415.46 294.01 362.07 285.3 364.4 255.46"/><polygon class="cls-48" points="429.79 243.64 438.68 240.63 441.05 246.78 430.98 249.68 429.79 243.64"/><polygon class="cls-7" points="398.5 250.18 406.7 245.97 405.76 244.27 397.57 248.67 398.5 250.18"/></g></g></svg>