<svg xmlns="http://www.w3.org/2000/svg" viewBox="0 0 900 350"><defs><style>.cls-1{fill:#dddddc;}.cls-2{fill:#ebebea;}.cls-3{fill:#c9c9c9;}.cls-4{fill:#8e8e8e;}.cls-5{fill:#cbcaca;}.cls-6{fill:#be8e00;}.cls-7{fill:#f3d65d;}.cls-8{fill:#a3a3a3;}.cls-9{fill:#846400;}.cls-10{fill:#9d7700;}.cls-11{fill:#e4c728;}.cls-12{fill:#cbac14;}.cls-13{fill:#debca4;}.cls-14{fill:#c2977b;}.cls-15{fill:#bf9b83;}.cls-16{fill:#b38b71;}.cls-17{fill:#8a6651;}.cls-18{fill:#484748;}.cls-19{fill:#755800;}.cls-20{fill:#474747;}.cls-21,.cls-44{fill:#2b2b2b;}.cls-22{fill:#e7c9b5;}.cls-23{fill:#b48a00;}.cls-24{fill:#fff;}.cls-25{fill:#bb8e2d;}.cls-26{fill:#848585;}.cls-27{fill:#e1a842;}.cls-28{fill:#acacac;}.cls-29{fill:#c3c3c3;}.cls-30{fill:#f1bc68;}.cls-31{fill:#c1907d;}.cls-32{fill:#f4c9b2;}.cls-33{fill:#fce3d4;}.cls-34{fill:#8c7c2f;}.cls-35{fill:#afafaf;}.cls-36{fill:#ffefe7;}.cls-37{fill:#66483a;}.cls-38{fill:#906a59;}.cls-39{fill:#b08c79;}.cls-40{fill:#5f6162;}.cls-41{fill:#737373;}.cls-42{fill:#b99d8d;}.cls-43{fill:#454444;}.cls-44{fill-opacity:0.1;}</style></defs><title>explorers_Virtuoso_ISTP_friendships</title><g id="Layer_1_copy_2" data-name="Layer 1 copy 2"><g id="Layer_1-2" data-name="Layer_1"><polygon class="cls-1" points="603.79 282.82 598.27 272.78 619.71 266.79 635.55 268.89 646.65 283.13 603.79 282.82"/><polygon class="cls-2" points="662.12 258.51 619.71 266.79 646.65 283.13 662.12 258.51"/><polygon class="cls-1" points="120.89 175.87 138.97 214.62 141.07 280.68 85.88 262.08 101.44 194.67 120.89 175.87"/><polygon class="cls-1" points="69.6 266.52 112.47 251.06 126.72 295.79 37.28 313.93 69.6 266.52"/><polygon class="cls-2" points="148.76 288.65 112.47 251.06 98.7 302.67 148.76 288.65"/><polygon class="cls-2" points="147.14 187.22 120.89 175.87 141.07 280.68 148.76 288.65 170.93 274.09 156.87 226.72 147.14 187.22"/><polygon class="cls-3" points="101.44 194.67 84.59 261.12 112.47 251.06 101.44 194.67"/><polygon class="cls-3" points="713.65 294.48 708.77 281.51 718.27 259.32 734.74 269.75 736.99 293.2 713.65 294.48"/><polygon class="cls-1" points="643.97 290.61 660.5 244.58 682.53 231.29 698.09 262.9 699.76 290.73 643.97 290.61"/><polygon class="cls-3" points="694.21 184.31 682.53 231.29 703.92 243.94 706.85 207.97 694.21 184.31"/><polygon class="cls-1" points="730.82 192.41 694.21 184.31 703.92 243.94 704.91 273.75 712.65 289.28 718.27 259.32 735.37 229.02 730.82 192.41"/><polygon class="cls-2" points="703.92 243.94 682.53 231.29 699.76 290.73 713.65 294.48 703.92 243.94"/><polygon class="cls-2" points="742.82 238.74 730.82 192.41 718.27 259.32 742.82 238.74"/><polygon class="cls-1" points="765.18 253.98 742.82 238.74 718.27 259.32 731.48 272.78 753.51 276.67 765.18 253.98"/><polygon class="cls-2" points="774.74 282.3 765.18 253.98 731.48 272.78 736.99 293.2 774.74 282.3"/><polygon class="cls-2" points="4.82 99.43 80.36 70.33 143.09 90.48 183.99 80.08 217.13 90.32 178.83 101.17 147.42 97.93 95.17 112.52 4.82 99.43"/><polygon class="cls-1" points="4.82 99.43 92.94 101.82 151.03 95.34 183.91 96.05 217.13 90.32 177.43 107.14 145.64 103.17 95.5 121.43 4.82 99.43"/><polygon class="cls-4" points="508.18 187.87 519.86 161.6 555.34 85.28 556.47 85.13 556.79 86.09 514.01 190.46 510.61 190.95 508.18 187.87"/><polygon class="cls-5" points="429.1 151.19 416.29 120.62 409.66 149.69 417.74 167.83 431.37 158.76 429.1 151.19"/><polygon class="cls-5" points="357.48 120.85 373.6 114.71 397.79 116.2 416.19 124.13 418.2 181.14 392.96 185.44 363.87 177.65 357.48 120.85"/><path class="cls-6" d="M378.42,125.89l8.07.22,1.93,2.61-1.39,3-8.29-.34Zm-15.68,41.72L376,164l-6.82-4.68L362,160.85Zm30.52-41.32,7.83.22.65,5.83-8.38-.36-3-3.26Z"/><polygon class="cls-7" points="386.49 126.11 387.02 131.71 393.36 131.98 393.26 126.29 386.49 126.11"/><polygon class="cls-8" points="362.33 189.17 363.87 177.65 385.06 183.32 394.31 191.43 362.33 189.17"/><polygon class="cls-8" points="421.96 192.73 418.2 181.14 400.39 184.17 394.31 191.43 421.96 192.73"/><polygon class="cls-4" points="363.87 177.65 418.2 181.14 394.31 191.43 363.87 177.65"/><path class="cls-6" d="M380.16,141.21l7.42.2,2.3,2.7L388,147l-7.53-.32Zm14,.39,8.66.22.65,5.83-9.38-.38-1.49-2.83Z"/><polygon class="cls-8" points="236.49 162.59 252.38 196.3 264.94 196.33 265.78 189 252.4 158.12 236.49 162.59"/><polygon class="cls-9" points="293.16 169.45 312.99 180.28 273.62 181.99 293.16 169.45"/><polygon class="cls-10" points="264.97 195.05 258.95 226.1 253.73 228.18 234.53 232.66 228.64 185.25 249.98 182.42 264.97 195.05"/><polygon class="cls-6" points="293.16 169.45 284.55 177.82 273.62 181.99 228.68 185.25 248.4 179.2 293.16 169.45"/><polygon class="cls-11" points="225.09 102.05 255.44 98.66 281.88 151.76 287.62 160.14 238.65 170.33 227.51 175.26 225.47 166.12 225.09 102.05"/><polygon class="cls-6" points="213.43 111.12 225.09 102.05 238.94 137.19 231.75 138.79 220.11 123.36 213.43 111.12"/><polygon class="cls-6" points="225.47 166.12 257.25 136.42 279.83 137.81 289.21 160.31 257.9 170.81 226.51 172.38 225.47 166.12"/><polygon class="cls-12" points="285.25 120.34 283.61 127.1 279.83 137.81 269.75 125.87 262.29 107.47 263.52 99.82 270.84 100.87 285.25 120.34"/><polygon class="cls-9" points="289.21 160.31 273.51 163.5 270.15 166.92 264.73 165.28 226.51 172.38 228.68 185.25 267.6 175.71 271.16 171.66 276.3 173.57 293.16 169.45 289.21 160.31"/><polygon class="cls-12" points="264.73 165.28 267.6 175.71 276.3 173.57 273.51 163.5 264.73 165.28"/><polygon class="cls-13" points="268.49 34.3 274.04 57.71 275.84 80.65 258.09 89.03 250.69 99.91 236.83 102.33 225.09 102.05 214.98 85.72 207.33 75.77 199.34 63.98 193.62 44.16 213.88 48.14 240.57 41.58 245.38 31.54 254 37.21 268.49 34.3"/><polygon class="cls-14" points="220.04 47.4 226.59 70.59 222.1 75.08 216.22 73.38 212.44 64.26 217.24 63.09 214.01 48.95 220.04 47.4"/><polygon class="cls-14" points="247.51 64.89 236.98 53.36 220.04 47.4 242.25 39.51 247.51 64.89"/><polygon class="cls-14" points="258.75 58.34 266.75 34.77 250.75 36.28 258.75 58.34"/><polygon class="cls-15" points="274.04 57.71 207.33 75.77 234.76 102.78 243.06 102.94 259.2 89.51 280.15 83.56 274.04 57.71"/><polygon class="cls-16" points="226.59 70.59 234 96.43 240.88 97.52 249.96 112.09 225.09 102.05 212.43 83.4 211.39 79.55 207.33 75.77 216.22 73.38 226.59 70.59"/><polygon class="cls-17" points="259.2 89.51 230.71 97.32 249.96 112.09 259.2 89.51"/><polygon class="cls-17" points="216.22 73.38 212.43 83.4 207.33 75.77 216.22 73.38"/><polygon class="cls-17" points="267.87 66.59 240.09 72.19 249.71 84.98 265.58 80.88 267.87 66.59"/><polygon class="cls-17" points="247.51 64.89 254.9 67.52 259.58 61.65 253.39 62.65 247.51 64.89"/><polygon class="cls-18" points="220.04 47.4 242.8 47.84 241.26 41.92 232.69 43.35 220.04 47.4"/><polygon class="cls-18" points="255.43 44.95 253.69 38.17 259.27 35.76 266.75 34.77 255.43 44.95"/><polygon class="cls-18" points="214.01 48.95 217.24 63.09 212.44 64.26 209.57 57.65 199.34 63.98 187.11 45.99 201.92 44.32 214.01 48.95"/><polygon class="cls-17" points="203.56 65.34 207.53 62.99 211.47 70.67 203.56 65.34"/><polygon class="cls-10" points="208.03 23.61 198.73 25.35 190.8 28.48 188.32 36.42 187.11 45.99 200.77 32.87 208.03 23.61"/><polygon class="cls-9" points="190.8 28.48 212.62 12 232.45 0 261.09 10.22 232.36 18.96 208.03 23.61 200.35 25.81 190.8 28.48"/><polygon class="cls-6" points="232.45 0 195.17 8.75 190.8 28.48 232.45 0"/><polygon class="cls-10" points="190.8 28.48 177.6 19.49 165.23 34.75 177.43 32.84 190.8 28.48"/><polygon class="cls-6" points="165.23 34.75 146.98 57.63 176.16 38.98 190.8 28.48 165.23 34.75"/><polygon class="cls-19" points="146.98 57.63 187.11 45.99 190.8 28.48 146.98 57.63"/><polygon class="cls-11" points="208.03 23.61 273.6 7.03 279.82 31.43 253.69 38.17 245.38 31.54 241.26 41.92 214.01 48.95 209.56 34.57 208.03 23.61"/><polygon class="cls-20" points="216.41 27.71 240.51 21.6 235.36 36.28 219.47 40.24 216.41 27.71"/><polygon class="cls-20" points="269.34 14.27 245.23 20.31 256.77 30.78 272.58 26.77 269.34 14.27"/><polygon class="cls-12" points="214.01 48.95 187.11 45.99 208.03 23.61 214.01 48.95"/><path class="cls-21" d="M263.68,44.66a3.06,3.06,0,1,1-2.57,3.49A3.07,3.07,0,0,1,263.68,44.66Z"/><polygon class="cls-22" points="245.38 31.54 253.69 38.17 259.58 61.65 247.51 64.89 241.39 41.9 245.38 31.54"/><polygon class="cls-12" points="211.27 144.93 196.86 124.03 213.43 111.12 231.75 138.79 225.4 146.35 211.27 144.93"/><polygon class="cls-11" points="242.08 154.5 225.47 166.12 211.27 144.93 231.75 138.79 240.07 145.56 242.08 154.5"/><polygon class="cls-13" points="254.34 131.3 231.75 138.79 242.08 154.5 260.16 141.92 260.28 135.96 254.34 131.3"/><polygon class="cls-23" points="263.52 99.82 255.46 98.66 262.35 126.12 268.66 125.22 271.68 118.81 263.52 99.82"/><polygon class="cls-13" points="254.34 131.3 265.27 130.01 272.61 124.43 277.07 118.24 273.74 115.44 254.34 131.3"/><polygon class="cls-14" points="279.83 137.81 286.2 112.84 296.37 109.94 297.99 118.19 297.45 142.23 279.83 137.81"/><polygon class="cls-17" points="286.2 112.84 297.12 105.72 304.66 97.51 312.33 103.23 297.99 118.19 286.2 112.84"/><polygon class="cls-10" points="289.7 186.59 298.26 189.58 299.91 196.04 290.9 199.79 284.23 186.35 289.7 186.59"/><polygon class="cls-23" points="296.06 180.88 298.26 189.58 284.23 186.35 296.06 180.88"/><path class="cls-21" d="M238.14,52a3.07,3.07,0,1,1-2.57,3.49A3.06,3.06,0,0,1,238.14,52Z"/><polygon class="cls-24" points="264.5 69.49 245 73.71 248.22 78.02 264 74.07 264.5 69.49"/><polygon class="cls-25" points="699.76 290.73 618.21 310.85 551.02 290.9 558.94 270.59 699.76 290.73"/><polygon class="cls-26" points="596 245.56 604.76 253.01 606.15 277.33 567.77 279.54 572.67 267.6 596 245.56"/><polygon class="cls-6" points="600.54 259.77 604.76 261.43 602.92 267.24 576.88 269.86 585.31 261.43 600.54 259.77"/><path class="cls-4" d="M607.51,229.51l11.1,6,1.1,31.29-13.56,10.54-3.23-10.09,1.84-5.81-4.22-1.66L596,245.56ZM557,208.12l10.91-11,31-2.17,4.67,10.41Z"/><polygon class="cls-12" points="602.92 267.24 619.41 258.13 619.04 247.75 600.54 259.77 602.92 267.24"/><polygon class="cls-8" points="591.01 210.79 598.92 195 608.86 205.87 591.01 210.79"/><polygon class="cls-27" points="774.74 282.3 745.57 319.29 672.97 350 394.74 324.96 774.74 282.3"/><polygon class="cls-28" points="284.55 283.79 304.72 300.36 554.83 290.75 628.51 226.94 616.75 218.98 285.61 191.88 266.94 207.58 284.55 283.79"/><polygon class="cls-29" points="271.67 193.46 286.69 205.93 304.72 300.36 244.68 304.86 191.73 269.5 149.31 217.44 164 205.69 271.67 193.46"/><polygon class="cls-30" points="191.73 269.5 143.74 303.4 85.41 350 394.74 324.96 191.73 269.5"/><polygon class="cls-28" points="133.2 215.09 129.34 219.77 155.69 225.26 174.2 227.57 259.98 220.81 287.99 212.77 294.93 203.1 286.45 202.8 133.2 215.09"/><polygon class="cls-4" points="640.45 227.66 618.61 235.5 601.75 237.53 307.73 217.85 287.99 212.77 286.69 205.93 294.93 203.1 634.9 223.84 640.45 227.66"/><polygon class="cls-1" points="134.48 197.79 129.22 219.12 286.69 205.93 298.75 192.95 284.55 177.82 134.48 197.79"/><polygon class="cls-31" points="467.74 120.59 470.53 117.46 502.25 117.53 486.47 124.01 481.42 133.41 475.29 136.18 472.13 130.33 467.74 120.59"/><polygon class="cls-8" points="453.75 151.16 462.82 127.25 467.34 152.21 462.63 166.12 459.19 160.27 453.75 151.16"/><polygon class="cls-32" points="466.39 82.06 471.05 97.44 470.48 119.65 472.13 130.33 469.44 133.91 462.82 127.25 455.85 113.87 459.46 94.96 459.46 80.9 466.39 82.06"/><polygon class="cls-33" points="502.07 81.31 502.25 117.53 470.48 119.65 465.5 83.7 490.67 72.81 502.07 81.31"/><polygon class="cls-32" points="484.7 87.11 471.05 85.86 476.76 89.59 484.43 98.98 484.7 87.11"/><polygon class="cls-32" points="489.46 87.32 488.13 97.4 494.08 91.05 499.6 85.86 489.46 87.32"/><polygon class="cls-31" points="477.64 106 492.45 105.65 489.7 113.91 481.08 113.57 477.64 106"/><polygon class="cls-34" points="459.89 77.59 463.33 101.32 459.11 102.34 448.56 99.86 447.77 89.32 459.89 77.59"/><polygon class="cls-31" points="456.83 108.13 461.18 108.55 455.85 113.87 454.05 110.39 456.83 108.13"/><polygon class="cls-33" points="457.05 96.14 448.56 99.86 454.05 110.39 461.18 108.55 457.05 96.14"/><polygon class="cls-31" points="457.5 105.33 455.21 100.16 452.33 101.4 457.5 105.33"/><polygon class="cls-35" points="446.37 70.55 447.77 89.32 465.5 83.7 473.17 69.57 470.25 59.84 446.37 70.55"/><polygon class="cls-5" points="488.41 57.91 470.25 59.84 465.5 83.7 492.29 71.84 488.41 57.91"/><polygon class="cls-19" points="471.05 85.86 483.69 85.44 483.63 88.38 471.05 85.86"/><polygon class="cls-19" points="489.54 85.75 489.58 88.43 499.6 85.86 489.54 85.75"/><polygon class="cls-31" points="487.23 99.07 483.1 100.72 487.19 102.82 489.73 100.4 487.23 99.07"/><polygon class="cls-36" points="483.69 85.44 483.34 100.69 489.73 100.4 489.54 85.75 483.69 85.44"/><polygon class="cls-24" points="479.54 107.16 490.71 106.91 489.67 109.62 480.88 109.74 479.54 107.16"/><path class="cls-21" d="M477.61,89.63a1.85,1.85,0,1,1-1.85,1.85A1.85,1.85,0,0,1,477.61,89.63Z"/><path class="cls-21" d="M494.52,89.83a1.85,1.85,0,1,1-1.84,1.84A1.84,1.84,0,0,1,494.52,89.83Z"/><polygon class="cls-1" points="501.69 65.04 488.41 57.91 488.77 68.4 492.5 74.18 501.92 74.84 501.69 65.04"/><polygon class="cls-5" points="462.82 127.25 471.63 127.17 496.08 153.55 498.45 180.75 478.36 185.93 462.56 178.79 462.82 127.25"/><polygon class="cls-23" points="462.56 178.79 475.35 189.09 477.61 198 462.48 195.64 462.56 178.79"/><polygon class="cls-12" points="477.61 198 471.55 190.46 482.58 183 498.45 180.75 500.07 198.56 477.61 198"/><polygon class="cls-10" points="462.56 178.79 471.55 190.46 498.45 180.75 462.56 178.79"/><polygon class="cls-8" points="479.66 167.21 471.63 127.17 488.24 132.6 496.08 153.55 489.7 165.03 479.66 167.21"/><polygon class="cls-29" points="635.55 208.18 284.55 177.82 286.69 205.93 640.45 227.66 635.55 208.18"/><polygon class="cls-30" points="774.74 282.3 672.97 350 900 333.79 774.74 282.3"/><polygon class="cls-27" points="280.34 113.7 260.16 141.92 250.2 155.45 255.39 161.62 263.32 155.29 284.54 119.37 280.34 113.7"/><polygon class="cls-27" points="255.39 161.62 270.12 140.25 272.34 144.29 263.81 161.62 255.39 161.62"/><polygon class="cls-6" points="758.18 141.58 781.25 161.27 784.45 141.77 775.46 135.74 758.18 141.58"/><polygon class="cls-29" points="698.01 290.47 591.72 44.53 591.79 43.65 592.41 43.7 699.76 290.73 698.01 290.47"/><polygon class="cls-8" points="592.41 43.7 592.12 42.67 555.34 85.28 556.79 86.09 592.41 43.7"/><polygon class="cls-1" points="450.17 2.82 453.63 2.71 781.53 135.7 781.04 138.02 450.17 2.82"/><polygon class="cls-37" points="405.06 103.19 394.58 121.91 380.02 116.2 376.5 113.98 380.21 107.02 405.06 103.19"/><polygon class="cls-38" points="382.99 109.06 380.02 116.2 373.6 114.71 362.6 96.46 364.83 82.18 363.71 58.99 367.32 55.01 370.47 57.88 374.09 60.66 383.92 102.01 382.99 109.06"/><polygon class="cls-37" points="362.6 96.46 367.32 88.19 360.08 88.29 358.61 90.15 362.6 96.46"/><polygon class="cls-39" points="420.63 99.05 382.99 109.06 370.47 57.88 381.61 52.5 413.58 55.66 420.63 99.05"/><polygon class="cls-40" points="342.05 66.78 358.61 90.15 359.82 85.98 371.12 83 370.47 57.88 353.32 59.82 342.05 66.78"/><polygon class="cls-41" points="370.47 57.88 342.05 66.78 353.6 41.38 366.58 48.79 370.47 57.88"/><polygon class="cls-40" points="418.87 39.89 413.58 55.66 370.47 57.88 398.76 45.92 418.87 39.89"/><polygon class="cls-4" points="353.6 41.38 370.47 57.88 390.88 42.02 396.2 29.93 353.6 41.38"/><polygon class="cls-41" points="396.2 29.93 370.47 57.88 418.87 39.89 396.2 29.93"/><polygon class="cls-39" points="363.9 75.59 367.32 88.19 358.61 90.15 354.9 78.18 363.9 75.59"/><polygon class="cls-37" points="361.76 79.57 358.52 80.41 363.34 85.05 361.76 79.57"/><polygon class="cls-38" points="412.67 63.91 406.07 64.83 402.74 66.41 401.81 71.69 405.98 81.53 412.67 63.91"/><polygon class="cls-38" points="397.83 83.47 396.8 72.44 393.84 68.08 388.46 67.99 381.23 70.11 397.83 83.47"/><polygon class="cls-42" points="405.98 81.53 402.65 83.28 397.83 83.47 393.84 68.08 402.74 66.41 405.98 81.53"/><polygon class="cls-37" points="402.74 84.86 405.98 81.53 397.83 83.47 402.74 84.86"/><polygon class="cls-43" points="412.67 63.91 406.45 62.98 402.74 66.41 412.67 63.91"/><polygon class="cls-43" points="393.84 68.08 388.09 66.31 381.23 70.11 393.84 68.08"/><polygon class="cls-37" points="408.96 88.19 406.55 96.88 397.73 99.26 389.86 91.44 408.96 88.19"/><polygon class="cls-24" points="406.73 90.05 393.65 92.36 395.89 94.73 405.73 92.83 406.73 90.05"/><path class="cls-43" d="M409.45,69.66a2.22,2.22,0,0,0-2.21,2.18A2.12,2.12,0,0,0,409.37,74a2.22,2.22,0,0,0,2.21-2.17A2.12,2.12,0,0,0,409.45,69.66Z"/><path class="cls-43" d="M390.94,73.87A2.22,2.22,0,0,0,388.73,76a2.11,2.11,0,0,0,2.12,2.16A2.23,2.23,0,0,0,393.07,76,2.12,2.12,0,0,0,390.94,73.87Z"/><polygon class="cls-14" points="260.16 141.92 272.34 144.29 275.65 132.84 272.61 124.43 254.34 131.3 260.16 141.92"/><polygon class="cls-17" points="279.83 137.81 272.34 144.29 272.61 124.43 284.54 119.37 279.83 137.81"/><polygon class="cls-30" points="453.69 2.72 451.63 2.01 376.29 35.28 350.84 54.69 323.46 68.83 280.34 113.7 284.54 119.37 326.63 73.69 350.84 54.69 378.2 38.45 453.69 2.72"/><polygon class="cls-14" points="312.33 103.22 312.25 89.3 296.98 96.36 297.12 105.72 312.33 103.22"/><polygon class="cls-6" points="825.36 133.84 855.95 140.02 862.92 163.63 857.84 177.4 825.36 133.84"/><polygon class="cls-10" points="805.12 176.55 812.58 188.01 806.96 190.68 790.01 183.79 789.5 167.69 805.12 176.55"/><polygon class="cls-27" points="783.07 308.58 800.97 313.1 774.74 282.3 783.07 308.58"/><polygon class="cls-27" points="800.22 282.04 800.92 309.77 801.06 320.81 820.37 320.04 800.22 282.04"/><polygon class="cls-27" points="868.08 309.56 825.95 321.56 842.48 333.87 868.08 309.56"/><polygon class="cls-6" points="812.58 188.01 830.91 211.09 848.04 218.3 857.84 177.4 827.19 171.79 812.58 188.01"/><polygon class="cls-6" points="827.73 123.73 827.43 160.63 812.58 188.01 781.25 161.27 798.87 138.98 827.73 123.73"/><polygon class="cls-10" points="827.73 123.73 770.97 115.91 781.25 161.27 827.73 123.73"/><path class="cls-19" d="M793.86,134.22a4.65,4.65,0,1,1,4.16-5.1A4.67,4.67,0,0,1,793.86,134.22Z"/><polygon class="cls-30" points="781.97 257.69 775.46 267.69 785.29 279.25 781.97 257.69"/><polygon class="cls-30" points="872.34 283.41 856.76 300.81 873.83 295.02 872.34 283.41"/><polygon class="cls-6" points="836.17 244.74 843.04 237.6 848.04 218.3 836.43 214.61 826.75 222.07 821.05 235.9 836.17 244.74"/><polygon class="cls-6" points="790.01 183.79 812.58 188.01 807.5 204.32 790.01 183.79"/><polygon class="cls-10" points="855.95 140.02 873.54 178.46 857.84 177.4 855.95 140.02"/><polygon class="cls-10" points="827.73 123.73 812.58 188.01 857.84 177.4 827.73 123.73"/><polygon class="cls-10" points="826.75 222.07 812.58 188.01 848.04 218.3 826.75 222.07"/><polygon class="cls-10" points="809.6 252.55 826.75 222.07 836.17 244.74 848.04 218.3 860.32 253.58 836.17 244.74 809.6 252.55"/><polygon class="cls-27" points="323.46 68.83 326.63 73.69 378.2 38.45 376.29 35.28 323.46 68.83"/><polygon class="cls-35" points="488.77 68.4 465.5 83.7 514.33 80.92 488.77 68.4"/><polygon class="cls-39" points="441.43 158.91 427.02 146.25 417.57 163.22 444.25 168.09 445.95 163.3 441.43 158.91"/><polygon class="cls-27" points="338.79 177.52 506 147.19 513.77 148.12 504.21 152.06 351.48 180.57 337.71 182.42 338.79 177.52"/><polygon class="cls-6" points="343.84 182.95 337.71 182.42 504.21 152.06 343.84 182.95"/><polygon class="cls-27" points="560.69 148.07 506 147.19 506.92 152.3 559.32 152.7 562.52 152.22 612.01 136.06 612.54 129.27 560.69 148.07"/><polygon class="cls-25" points="556.8 121.82 504.21 152.06 502.82 147.77 555.83 113.06 559.22 117.7 556.8 121.82"/><polygon class="cls-27" points="612.01 136.06 556.8 121.82 555.83 113.06 612.54 129.27 612.01 136.06"/><path class="cls-1" d="M556,192.3l9.39,2-1.79-6.95Zm-4.8,1.37-45.35-40.16-1.63-1.45,1.87-1.14L556,120.44l.6-.38.68.2L612,136.06l-29.16,53.61-15,7.5Zm-41.56-41.13,5.68,5,8.39-4.24-5.6-6Zm10.23,9.06,5.61,5,7.67-3.14-6.26-6.7Zm9.33,8.28,9.78,8.66,5.54-3-8.5-9.09Zm13.17,11.66,10.07,8.92,3.8-2.38L546.8,178ZM580.63,187l7-13-7-1.88-5.18,13.39Zm9.43-17.36,6-11.08-9.83-.9-4.42,11.42Zm7.71-14.16,5-9.13-11.34-1.9-3.62,9.33ZM604.56,143l2.69-5-10.53-3-3.8,5.44Zm-12.48-9.32L578,129.61l-1,6.67,12.75,3.35Zm-18-5.18-15.39-4.44,1,7.7,14.08,3.7Zm-18.6-4-14.93,9.12,1.95,8.37,14-9.71ZM536.21,136.3,522,145l4.77,6.95,13-8Zm27.27,47.25-1.7-12.62-7,2.8L559.55,186Zm8.32,1,.57-13.76-7.41-.49,2.13,12.94Zm-4.55,2.09.73,7.3,10.7-4.53Zm-6.81-49.89,2.08,15.49,10.58,1,.6-14.47Zm2.67,19.88,1.29,9.54,8.1,1.36.47-11.07Zm-1.9,10-2-9.76-9.61,3.3,4.07,10.51Zm-1.89-14-2.68-14.62-12.9,7,4.66,12.09Zm28.83-8.85-11.25-4.26-.59,13.91,8.28-.45ZM541,147l-11.43,7.91,6.77,7.24,9.07-3.73Zm41.93,10.37-6.75-.62-.46,11.33,2.88.48Zm-36.35,4.07-7.49,3.65,8.37,8.94,3.31-1.77Zm30.82,10.2-1.82-.31-.24,5.64Zm-25.46,3.65-2.19,1.17,4.5,4.81Z"/><polygon class="cls-39" points="447.08 150.76 443.83 157.39 450.98 156.26 453.75 151.16 447.08 150.76"/><polygon class="cls-38" points="444.25 168.09 441.43 158.91 453.74 151.13 459.43 160.69 451.45 165.51 444.25 168.09"/><polygon class="cls-37" points="452.12 168.17 459.43 160.69 444.25 168.09 452.12 168.17"/><polygon class="cls-12" points="372.41 112.74 357.48 120.85 362.86 146.82 372.21 153.35 378.91 153.66 375.79 120.29 372.41 112.74"/><polygon class="cls-12" points="410.07 115.41 397.79 116.2 400.26 162.12 411.63 155.82 411.71 121.72 410.07 115.41"/><polygon class="cls-11" points="372.41 112.74 372.82 149.51 377.25 155.78 383.96 157.1 380.02 116.2 372.41 112.74"/><polygon class="cls-11" points="410.07 115.41 409.01 152.54 417.57 163.22 416.29 120.62 410.07 115.41"/><polygon class="cls-6" points="400.26 162.12 409.01 152.54 417.57 163.22 400.26 162.12"/><polygon class="cls-39" points="383.96 157.1 366 144.85 355.54 145.48 346.2 157.26 375.96 164.02 383.96 157.1"/><polygon class="cls-38" points="390.6 168.13 383.96 157.1 374.96 163.79 373.29 171.26 390.6 168.13"/><polygon class="cls-37" points="393.69 173.35 390.6 168.13 373.29 171.26 380.41 178.71 393.69 173.35"/><polygon class="cls-39" points="383.96 157.1 390.6 168.13 397.03 166.96 383.96 157.1"/><polygon class="cls-5" points="357.48 120.85 366 144.85 346.2 157.26 357.48 120.85"/><polygon class="cls-7" points="387.58 141.41 388.02 147 394.12 147.27 394.19 141.6 387.58 141.41"/><polygon class="cls-33" points="509.15 170.04 479.66 167.21 496.08 153.55 517.6 163.91 516.32 169.55 509.15 170.04"/><polygon class="cls-32" points="518.63 179.13 509.15 170.04 517.6 163.91 528.52 173.6 518.63 179.13"/><polygon class="cls-41" points="511.79 187.6 508.18 187.87 510.61 190.95 514.01 190.46 511.79 187.6"/><polygon class="cls-27" points="470.6 274.48 304.72 300.36 394.74 324.96 598.83 302.04 470.6 274.48"/><polygon class="cls-30" points="470.6 274.48 394.74 324.96 610.71 300.72 554.83 290.75 470.6 274.48"/><polygon class="cls-27" points="0 311.81 85.41 350 191.73 269.5 0 311.81"/><polygon class="cls-2" points="626.56 49.7 690.65 32.91 726.39 39.07 794.95 19.94 876.15 45.65 812.76 59.79 756.68 48.4 695.62 60.67 626.56 49.7"/><polygon class="cls-11" points="279.69 220.6 290.67 226.8 607.96 244.74 618.61 235.5 287.99 212.77 279.69 220.6"/><polygon class="cls-7" points="155.69 225.26 165.02 236.71 290.67 226.8 287.99 212.77 155.69 225.26"/><polygon class="cls-44" points="191.73 269.5 300.96 280.67 470.6 274.48 567.77 279.54 554.83 290.75 470.6 274.48 304.72 300.36 191.73 269.5"/><polygon class="cls-1" points="626.56 49.7 686.85 56.58 751.71 42.84 809.55 54.24 876.15 45.65 801.36 75.44 733.19 60.34 694.73 68.55 626.56 49.7"/><polygon class="cls-30" points="823.63 261.7 828.26 288.16 839.46 269.13 823.63 261.7"/></g></g></svg>