<svg id="Layer_1" data-name="Layer 1" xmlns="http://www.w3.org/2000/svg" viewBox="0 0 900 350"><defs><style>.cls-1{fill:#ebebea;}.cls-2{fill:#dcdcdb;}.cls-3{fill:#9d7700;}.cls-4{fill:#a17e6e;}.cls-5{fill:#846400;}.cls-6{fill:#b48a00;}.cls-7{fill:#cdcdcc;}.cls-30,.cls-8{fill:#2b2b2b;}.cls-8{fill-opacity:0.1;}.cls-9{fill:#6f7173;}.cls-10{fill:#737373;}.cls-11{fill:#848585;}.cls-12{fill:#a2a2a2;}.cls-13{fill:#8e8e8e;}.cls-14{fill:#c3c3c3;}.cls-15{fill:#f3d65d;}.cls-16{fill:#e4c728;}.cls-17{fill:#bb8e2d;}.cls-18{fill:#cbac14;}.cls-19{fill:#755800;}.cls-20{fill:#83614f;}.cls-21{fill:#674736;}.cls-22{fill:#4f5253;}.cls-23{fill:#412b23;}.cls-24{fill:#474747;}.cls-25{fill:#c2977b;}.cls-26{fill:#debca4;}.cls-27{fill:#8a6651;}.cls-28{fill:#7f5d4e;}.cls-29{fill:#593e35;}.cls-31{fill:#fff;}.cls-32{fill:#e7c9b5;}.cls-33{fill:#a98c80;}.cls-34{fill:#8b6d5d;}.cls-35{fill:#e1a842;}.cls-36{fill:#f1bc68;}</style></defs><title>explorers_Virtuoso_ISTP_strenghts</title><g id="Layer_1-2" data-name="Layer_1"><g id="_396306376" data-name=" 396306376"><polygon class="cls-1" points="238.92 108.07 294.96 91.8 337.59 102.11 397.98 85.5 479.56 108.07 401.3 124.34 339.99 114.6 299.54 121.82 238.92 108.07"/><polygon class="cls-1" points="452.18 30.48 521.27 16.04 550.61 24.52 589.11 15.47 639.99 31.06 600.23 38.28 564.36 33.01 518.07 42.17 452.18 30.48"/><polygon class="cls-1" points="724.79 141.99 672.54 132.83 645.84 142.68 624.75 138.44 595.53 146.81 624.98 153.11 644.58 149.79 680.44 152.42 724.79 141.99"/><polygon class="cls-2" points="724.79 141.99 677.12 148.53 645.84 147.84 628.19 150.47 595.53 146.81 623.15 156.32 645.84 152.42 681.02 156.32 724.79 141.99"/><polygon class="cls-2" points="238.92 108.07 300.8 116.55 339.31 110.02 396.71 118.73 479.56 108.07 401.07 131.11 337.01 118.5 296.33 128.59 238.92 108.07"/><polygon class="cls-2" points="452.18 30.48 518.64 37.02 564.36 29.11 598.85 32.43 639.99 31.06 597.59 40.91 561.04 36.33 520.59 46.76 452.18 30.48"/><polygon class="cls-3" points="522.88 195.51 529.07 205.6 533.19 195.4 522.88 195.51"/><polygon class="cls-3" points="557.94 234.02 564.02 243.76 566.88 232.65 557.94 234.02"/><polygon class="cls-4" points="513.6 185.54 508.9 187.72 516.23 202.39 529.87 197.81 535.37 192.42 531.36 182.22 513.6 185.54"/><polygon class="cls-5" points="327.39 147.95 317.19 164.57 336.9 164.11 342.97 145.55 337.59 139.59 327.39 147.95"/><polygon class="cls-1" points="0 309.77 60.5 330.52 336.9 325.36 742.55 295.33 674.03 283.07 549.81 282.84 194.81 276.54 0 309.77"/><polygon class="cls-5" points="393.28 300.49 381.36 303.47 385.14 296.02 393.28 300.49"/><polygon class="cls-6" points="374.94 297.05 383.42 286.97 394.19 284.33 384.68 300.49 381.36 303.47 374.94 297.05"/><polygon class="cls-7" points="465.36 281.35 450.11 287.43 482.2 288.11 465.36 281.35"/><polygon class="cls-7" points="26.93 305.08 70.82 308.17 53.63 300.61 26.93 305.08"/><polygon class="cls-7" points="82.73 307.25 128.11 314.36 116.54 301.52 82.73 307.25"/><polygon class="cls-7" points="238.24 277.34 261.04 282.27 254.16 277.57 238.24 277.34"/><polygon class="cls-2" points="60.5 330.52 367.95 350 900 325.82 742.55 295.33 670.59 299.92 60.5 330.52"/><polygon class="cls-8" points="627.96 296.25 663.14 311.26 773.03 331.55 900 325.82 855.42 317.11 702.67 287.88 665.43 290.98 627.96 296.25"/><polygon class="cls-1" points="768.22 220.61 847.75 217.52 747.36 207.66 670.36 207.43 688.46 212.71 768.22 220.61"/><polygon class="cls-9" points="750.34 296.37 746.33 306.91 750.57 306.45 769.25 296.37 771.2 293.04 764.78 291.09 753.67 290.18 750.34 296.37"/><polygon class="cls-10" points="769.25 296.37 760.66 297.17 762.6 324.67 774.18 323.87 778.42 316.31 777.96 306.34 769.25 296.37"/><polygon class="cls-11" points="760.66 297.17 753.1 300.15 749.54 308.86 749.88 317.22 754.58 324.1 762.6 324.67 769.37 317.45 770.17 308.29 767.42 299.57 760.66 297.17"/><polygon class="cls-12" points="757.11 306.68 755.84 312.07 757.11 316.54 760.77 317.34 761.92 315.85 759.05 306.91 757.11 306.68"/><polygon class="cls-9" points="680.79 283.19 676.89 293.16 680.9 292.81 698.55 283.19 693.05 279.86 683.31 278.6 680.79 283.19"/><polygon class="cls-11" points="851.3 291.55 842.7 292.47 844.65 319.98 855.08 317.57 860.47 311.61 860.01 301.64 851.3 291.55"/><polygon class="cls-10" points="842.7 292.47 835.14 295.45 831.59 304.16 831.93 312.52 835.83 318.03 844.65 319.98 851.53 312.64 852.22 303.59 849.58 294.88 842.7 292.47"/><polygon class="cls-12" points="654.55 255.91 655 282.5 675.51 286.4 683.54 274.48 699.35 278.37 708.29 293.73 746.33 300.95 754.13 286.74 771.89 288.34 776.93 306.91 799.27 310.58 807.18 273.9 794.69 269.66 772.46 264.39 654.55 255.91"/><polygon class="cls-7" points="670.36 207.43 654.55 255.91 776.81 268.52 779.57 259.23 767.53 217.18 670.36 207.43"/><polygon class="cls-13" points="650.65 288.11 650.76 278.6 657.3 278.6 674.03 283.07 678.04 285.59 676.89 293.16 650.65 288.11"/><polygon class="cls-10" points="698.55 283.19 690.53 283.99 692.25 310 703.25 309.32 707.26 302.1 706.8 292.7 698.55 283.19"/><polygon class="cls-13" points="746.33 306.91 702.79 298.2 703.7 291.9 707.6 291.09 744.73 295.68 746.33 300.95 746.33 306.91"/><polygon class="cls-11" points="750.23 281.81 742.55 295.33 746.33 306.91 754.24 291.67 756.07 284.9 750.23 281.81"/><polygon class="cls-13" points="768.34 294.19 754.24 291.67 750.23 281.81 774.64 286.51 773.03 292.36 768.34 294.19"/><polygon class="cls-11" points="774.98 311.38 768.34 294.19 774.64 286.51 775.1 288.46 777.96 299.35 779.45 304.62 779.79 307.37 774.98 311.38"/><polygon class="cls-13" points="798.01 316.42 774.98 311.38 779.45 304.62 801.22 303.7 801.79 313.1 798.01 316.42"/><polygon class="cls-11" points="690.53 283.99 683.31 286.85 679.98 295.11 680.33 302.9 684.8 309.43 692.25 310 698.78 303.13 699.47 294.53 696.94 286.28 690.53 283.99"/><polygon class="cls-12" points="687.09 293.04 685.83 298.08 687.2 302.32 690.64 303.13 691.56 301.87 688.81 293.16 687.09 293.04"/><polygon class="cls-11" points="683.42 272.3 674.03 283.07 676.89 293.16 685.14 279.86 685.83 275.62 683.42 272.3"/><polygon class="cls-13" points="703.02 275.74 683.42 272.3 685.14 280.09 698.55 283.19 702.22 281.24 703.02 275.74"/><polygon class="cls-11" points="702.79 298.2 698.55 283.19 703.02 275.74 707.6 291.09 702.79 298.2"/><polygon class="cls-2" points="847.75 217.52 767.53 217.18 776.81 268.52 815.66 266.34 858.4 258.2 847.75 217.52"/><polygon class="cls-7" points="876.97 269.09 858.4 258.2 776.81 268.52 801.22 274.36 843.97 275.85 876.97 269.09"/><polygon class="cls-14" points="876.51 297.28 880.18 293.16 876.97 269.2 801.22 274.36 797.9 303.81 800.65 303.7 876.51 297.28"/><polygon class="cls-12" points="883.04 310.58 798.01 316.42 800.99 303.59 870.89 295.68 884.07 297.28 883.04 310.58"/><polygon class="cls-15" points="860.7 285.59 860.92 275.85 873.76 274.48 874.9 285.48 860.7 285.59"/><polygon class="cls-15" points="820.59 290.98 820.59 279.75 805.58 280.89 804.54 292.58 820.59 290.98"/><polygon class="cls-7" points="880.06 291.78 884.07 297.28 801.22 303.7 854.51 295.91 880.06 291.78"/><polygon class="cls-7" points="650.76 278.6 654.89 275.97 674.03 283.07 650.76 278.6"/><polygon class="cls-14" points="777.5 223.82 843.51 224.28 845 225.66 847.98 253.04 791.25 259.35 786.44 258.77 781.97 240.78 777.5 223.82"/><polygon class="cls-12" points="843.51 224.28 846.83 251.78 786.44 258.77 787.01 261.52 850.73 253.96 845.57 224.28 843.51 224.28"/><polygon class="cls-16" points="860.92 275.85 867.91 280.09 860.7 285.59 860.92 275.85"/><polygon class="cls-16" points="873.76 274.48 867.91 280.09 874.9 285.48 873.76 274.48"/><polygon class="cls-16" points="805.58 280.89 813.94 285.94 804.54 292.58 805.58 280.89"/><polygon class="cls-16" points="820.59 279.75 813.94 285.94 820.59 290.98 820.59 279.75"/><polygon class="cls-7" points="688.81 293.16 687.78 297.74 688.58 301.18 691.56 301.87 693.51 299.35 691.67 293.39 688.81 293.16"/><polygon class="cls-7" points="759.05 306.91 758.02 311.61 758.82 315.27 761.92 315.96 763.87 313.33 762.15 307.14 759.05 306.91"/><polygon class="cls-8" points="606.42 339.11 499.73 325.36 588.43 315.05 705.54 325.02 606.42 339.11"/><polygon class="cls-12" points="458.59 209.15 465.7 285.36 482.2 288.11 485.18 238.95 479.68 205.03 458.59 209.15"/><polygon class="cls-1" points="531.36 270.81 542.7 269.2 538.81 275.05 533.31 275.74 531.36 270.81"/><polygon class="cls-7" points="533.31 275.74 542.7 269.2 550.15 276.31 549.58 282.84 537.55 283.42 533.31 275.74"/><polygon class="cls-12" points="513.25 279.4 510.05 266.11 502.94 264.85 494.81 268.75 498.59 286.51 510.05 288.8 513.25 279.4"/><polygon class="cls-1" points="497.44 261.98 523.34 257.06 515.55 266.11 510.05 266.11 494.81 268.75 497.44 261.98"/><polygon class="cls-12" points="534.45 274.94 535.6 274.13 537.55 283.42 535.72 283.53 534.11 278.14 534.45 274.94"/><polygon class="cls-7" points="510.05 266.11 523.34 257.06 535.6 266.11 535.72 287.66 510.05 288.8 510.05 266.11"/><polygon class="cls-12" points="423.64 277.46 430.98 285.71 441.75 288.46 440.83 247.43 423.3 255.45 423.64 277.46"/><polygon class="cls-7" points="434.3 221.19 467.65 225.43 465.7 285.36 441.75 288.46 434.3 221.19"/><polygon class="cls-7" points="505.35 210.18 479.68 205.03 482.2 288.11 498.59 286.51 505.35 210.18"/><polygon class="cls-12" points="271.58 204.91 279.03 271.95 278.8 278.72 291.75 279.18 298.05 216.6 294.16 195.63 271.58 204.91"/><polygon class="cls-12" points="266.08 237.69 263.44 224.05 249.92 229.55 251.99 277.57 261.04 282.27 266.08 237.69"/><polygon class="cls-7" points="323.95 197.23 294.16 195.63 291.75 279.18 328.88 280.32 323.95 197.23"/><polygon class="cls-1" points="301.6 221.99 301.38 230.81 316.27 231.5 316.62 222.68 301.6 221.99"/><polygon class="cls-13" points="302.75 223.59 302.64 229.44 307.79 229.67 308.14 223.71 302.75 223.59"/><polygon class="cls-13" points="309.4 223.71 315.47 223.82 315.13 229.78 309.17 229.44 309.4 223.71"/><polygon class="cls-7" points="261.04 282.27 263.44 224.05 293.35 224.62 282.58 281.01 261.04 282.27"/><polygon class="cls-5" points="445.65 251.21 428.11 262.21 425.94 247.09 429.49 240.55 437.51 234.71 443.35 234.71 445.65 251.21"/><polygon class="cls-17" points="367.95 107.61 337.59 102.11 350.54 86.18 389.38 74.26 390.99 86.87 387.89 104.52 367.95 107.61"/><polygon class="cls-18" points="389.38 74.26 408.4 65.55 411.04 105.44 384.8 101.42 389.38 74.26"/><polygon class="cls-16" points="408.4 65.55 407.26 104.86 428.8 100.74 419.4 75.18 408.4 65.55"/><polygon class="cls-5" points="378.27 189.78 381.25 204.34 393.51 214.65 403.25 200.78 405.65 191.96 395.11 188.75 378.27 189.78"/><polygon class="cls-8" points="266.88 320.2 368.75 340.49 474.64 330.17 360.85 315.5 266.88 320.2"/><polygon class="cls-12" points="22.92 205.94 49.5 171.68 64.97 250.64 70.82 308.17 49.05 301.41 22.92 205.94"/><polygon class="cls-12" points="120.32 137.64 87.2 173.05 115.85 304.62 128.11 314.36 130.75 211.44 120.32 137.64"/><polygon class="cls-7" points="111.61 173.97 49.5 171.68 70.82 308.17 115.85 304.62 111.61 173.97"/><polygon class="cls-7" points="259.55 181.65 199.04 172.71 189.65 254.19 199.96 298.77 233.65 298.2 259.55 181.65"/><polygon class="cls-12" points="199.04 172.71 193.77 218.55 195.15 298.89 199.96 298.77 199.04 172.71"/><polygon class="cls-7" points="199.96 143.48 120.32 137.64 128.11 314.36 194.81 311.15 199.96 143.48"/><polygon class="cls-1" points="65.32 200.44 67.61 219.58 101.87 219.93 100.95 200.78 65.32 200.44"/><polygon class="cls-13" points="69.21 203.65 97.75 204 98.32 215.69 86.97 211.79 70.47 215.69 69.21 203.65"/><polygon class="cls-1" points="70.24 236.08 101.53 235.4 101.87 253.85 73.11 254.19 70.24 236.08"/><polygon class="cls-13" points="74.03 238.95 75.97 249.95 86.06 250.29 85.71 239.29 74.03 238.95"/><polygon class="cls-13" points="89.27 239.64 89.61 250.18 98.32 250.41 97.98 239.29 89.27 239.64"/><polygon class="cls-1" points="75.75 271.73 102.9 272.3 102.9 288.11 78.61 288.8 75.75 271.73"/><polygon class="cls-13" points="80.21 274.94 88.69 275.39 88.92 285.25 81.82 284.9 80.21 274.94"/><polygon class="cls-13" points="92.25 275.16 92.25 284.9 99.69 284.9 99.92 275.16 92.25 275.16"/><polygon class="cls-1" points="138.2 197.92 139.11 216.6 181.86 217.98 181.51 199.18 138.2 197.92"/><polygon class="cls-1" points="135.91 152.54 137.16 179.13 183.46 179.13 184.72 156.78 135.91 152.54"/><polygon class="cls-13" points="140.15 156.43 140.72 175 161.46 170.65 179.56 175.57 180.37 160.1 140.15 156.43"/><polygon class="cls-13" points="141.75 201.36 142.32 213.74 157.22 214.08 157.22 201.47 141.75 201.36"/><polygon class="cls-13" points="161.8 201.47 178.65 201.7 178.65 214.42 162.15 213.74 161.8 201.47"/><polygon class="cls-1" points="139.46 234.25 140.37 253.04 181.51 254.31 181.17 235.51 139.46 234.25"/><polygon class="cls-13" points="142.9 237.69 143.47 250.06 157.79 250.41 157.79 237.8 142.9 237.69"/><polygon class="cls-13" points="161.46 237.8 178.3 238.15 178.3 250.75 161.8 250.06 161.46 237.8"/><polygon class="cls-1" points="140.37 270.69 141.29 289.49 180.37 290.87 180.02 272.07 140.37 270.69"/><polygon class="cls-13" points="143.7 274.25 144.16 286.63 157.79 286.97 157.79 274.36 143.7 274.25"/><polygon class="cls-13" points="161.92 274.36 177.39 274.59 177.39 287.2 162.26 286.63 161.92 274.36"/><polygon class="cls-1" points="235.94 237.46 204.54 235.4 204.2 253.73 232.96 255.45 235.94 237.46"/><polygon class="cls-13" points="231.93 240.9 230.1 251.1 221.39 250.64 222.19 240.09 231.93 240.9"/><polygon class="cls-13" points="218.07 239.98 217.49 250.64 207.75 250.52 208.1 239.41 218.07 239.98"/><polygon class="cls-1" points="226.66 271.84 204.77 271.15 204.77 283.99 224.48 284.56 226.66 271.84"/><polygon class="cls-13" points="223.11 273.9 216.35 273.68 216.12 281.7 221.85 281.35 223.11 273.9"/><polygon class="cls-13" points="213.48 273.9 213.48 281.35 207.41 281.35 207.18 273.44 213.48 273.9"/><polygon class="cls-1" points="243.51 204.22 241.22 223.13 206.84 221.65 207.87 202.5 243.51 204.22"/><polygon class="cls-13" points="239.61 207.2 211.08 205.94 210.5 217.63 238.24 219.12 239.61 207.2"/><polygon class="cls-17" points="70.47 215.69 74.71 209.5 83.65 210.18 86.29 215.69 70.47 215.69"/><polygon class="cls-16" points="98.32 215.69 86.29 215.69 88.92 209.84 95 208.81 98.32 215.69"/><polygon class="cls-18" points="107.14 199.53 95 208.81 86.97 205.6 82.73 197.46 88.35 190.47 96.37 190.47 107.14 199.53"/><polygon class="cls-15" points="74.25 199.41 74.71 209.5 86.29 215.69 95 208.81 82.73 197.46 74.25 199.41"/><path class="cls-16" d="M66.35,184.63l15.93,13.18,14.09-7.34s6.19-14.32,6.19-15.58-19.14.68-19.14.68Z"/><polygon class="cls-18" points="84.68 161.94 66.35 184.63 102.56 174.88 91.56 165.14 84.68 161.94"/><polygon class="cls-18" points="78.27 147.04 84.68 161.94 94.88 164.8 99.35 162.62 103.7 155.4 90.98 148.41 78.27 147.04"/><polygon class="cls-16" points="90.53 137.64 78.27 147.04 103.7 155.4 90.53 137.64"/><polygon class="cls-16" points="102.56 174.88 84.68 161.94 99.35 162.62 102.56 174.88"/><polygon class="cls-16" points="144.61 168.12 140.72 175 152.87 175.23 148.17 168.7 144.61 168.12"/><polygon class="cls-16" points="172.12 162.62 168.56 167.44 168.45 175.34 179.56 175.57 177.04 165.49 172.12 162.62"/><polygon class="cls-15" points="155.96 153.22 151.15 164.57 152.87 175.23 168.45 175.34 172.12 162.62 166.62 157.12 155.96 153.22"/><polygon class="cls-17" points="133.27 138.67 144.61 168.12 152.87 175.23 155.96 153.22 146.56 143.48 133.27 138.67"/><polygon class="cls-17" points="205.46 150.25 179.56 175.57 172.12 162.62 177.96 153.8 182.77 152.54 192.51 148.99 205.46 150.25"/><polygon class="cls-15" points="173.84 141.54 161.46 144.75 155.96 153.22 172.12 162.62 182.77 152.54 180.25 145.78 173.84 141.54"/><polygon class="cls-18" points="205.46 150.25 182.77 152.54 173.84 141.54 177.27 132.48 187.7 126.98 194.46 130.19 195.15 136.38 205.46 150.25"/><polygon class="cls-18" points="156.88 120.22 133.27 138.67 155.96 153.22 173.84 141.54 165.35 125.72 156.88 120.22"/><polygon class="cls-16" points="188.27 108.19 192.86 119.53 187.7 126.98 173.84 141.54 156.88 120.22 172.8 110.48 188.27 108.19"/><polygon class="cls-17" points="151.72 108.87 156.88 120.22 188.27 108.19 171.77 105.67 151.72 108.87"/><polygon class="cls-17" points="204.2 122.51 195.72 121.48 187.7 126.98 195.15 136.38 204.2 122.51"/><polygon class="cls-18" points="188.27 108.19 204.2 122.51 187.7 126.98 188.27 108.19"/><polygon class="cls-16" points="170.51 93.63 151.72 108.87 188.27 108.19 178.99 98.22 170.51 93.63"/><polygon class="cls-17" points="198.36 96.27 188.27 108.19 170.51 93.63 183.12 92.72 198.36 96.27"/><polygon class="cls-18" points="169.59 83.66 170.51 93.63 198.36 96.27 183.46 86.87 169.59 83.66"/><polygon class="cls-16" points="187.7 71.05 169.59 83.66 198.36 96.27 187.7 71.05"/><polygon class="cls-17" points="222.77 203.31 210.5 217.63 227.81 218.55 234.91 213.39 234.57 209.5 229.75 203.54 222.77 203.31"/><polygon class="cls-15" points="234.57 209.5 238.24 219.12 227.81 218.55 234.57 209.5"/><polygon class="cls-16" points="247.29 197.92 234.57 209.5 222.77 203.31 225.86 193.34 239.15 188.18 247.29 197.92"/><polygon class="cls-18" points="215.78 211.33 208.44 196.89 214.86 187.49 221.96 193.68 222.77 203.31 215.78 211.33"/><polygon class="cls-15" points="225.86 173.63 217.49 180.04 214.86 187.49 222.77 203.31 239.15 188.18 235.26 178.09 225.86 173.63"/><polygon class="cls-17" points="204.54 179.13 214.86 187.49 225.86 173.63 215.55 173.28 204.54 179.13"/><polygon class="cls-18" points="246.94 164.57 231.7 167.44 225.86 173.63 239.15 188.18 246.94 164.57"/><polygon class="cls-16" points="220.7 161.25 204.54 179.13 225.86 173.63 246.94 164.57 233.31 163.54 227.12 160.33 220.7 161.25"/><polygon class="cls-18" points="215.89 154.14 220.7 161.25 233.31 163.54 236.52 154.83 227.12 151.97 215.89 154.14"/><polygon class="cls-16" points="225.86 143.48 215.89 154.14 236.52 154.83 225.86 143.48"/><polygon class="cls-18" points="315.58 322.38 312.83 319.75 310.77 301.52 312.83 294.19 321.77 292.24 327.73 295.45 326.36 304.16 315.58 322.38"/><polygon class="cls-3" points="308.71 294.99 311.12 322.61 315.58 322.38 312.83 294.19 308.71 294.99"/><polygon class="cls-19" points="331.28 287.54 321.77 292.24 326.36 304.16 341.71 299.92 339.42 291.44 331.28 287.54"/><polygon class="cls-18" points="342.06 266.8 337.7 283.87 344.81 293.27 356.61 301.87 369.56 280.44 367.49 274.82 352.94 267.6 342.06 266.8"/><polygon class="cls-5" points="297.37 256.14 342.06 266.8 331.05 234.48 316.27 222.56 297.37 256.14"/><polygon class="cls-18" points="406.8 314.24 407.6 306.68 416.42 303.81 435.9 303.7 421.81 320.09 413.9 323.53 406.8 314.24"/><polygon class="cls-3" points="417 327.88 445.3 306.34 442.67 303.47 435.9 303.7 413.9 323.53 417 327.88"/><polygon class="cls-19" points="416.42 303.81 409.21 292.58 392.93 291.67 393.28 300.49 407.83 315.62 416.42 303.81"/><polygon class="cls-18" points="342.06 266.8 374.94 297.05 394.19 284.33 394.54 272.3 381.93 258.66 342.06 266.8"/><polygon class="cls-10" points="394.19 284.33 399.69 278.14 405.31 280.32 408.06 288.8 395 294.65 382.96 296.71 394.19 284.33"/><polygon class="cls-20" points="381.93 258.66 394.19 284.33 405.31 280.32 404.85 262.56 390.64 257.74 381.93 258.66"/><polygon class="cls-21" points="404.85 262.56 421.81 283.3 430.98 285.71 430.06 277.57 428.11 262.21 415.51 259.69 404.85 262.56"/><polygon class="cls-22" points="429.49 240.55 424.9 235.74 419.4 237.34 408.06 249.38 404.85 262.56 428.11 262.21 429.49 240.55"/><polygon class="cls-13" points="382.51 239.98 379.3 248.69 381.93 258.66 404.85 262.56 420.21 237.12 410.01 229.9 400.95 228.06 386.4 230.24 382.51 239.98"/><polygon class="cls-19" points="443.7 216.6 443.35 234.71 429.49 240.55 433.38 227.03 443.7 216.6"/><polygon class="cls-14" points="422.38 217.63 409.44 221.87 401.41 229.9 429.49 240.55 450.46 205.14 443.01 188.75 440.03 200.67 422.38 217.63"/><polygon class="cls-5" points="370.01 219.47 355.69 238.95 342.06 266.8 381.93 258.66 382.51 239.98 378.27 228.29 370.01 219.47"/><polygon class="cls-17" points="382.51 239.98 359.13 239.41 361.65 226.46 369.9 222.44 378.27 228.29 382.51 239.98"/><polygon class="cls-3" points="337.81 184.05 330.6 196.89 335.29 207.89 321.89 212.59 316.27 222.56 342.06 266.8 369.9 222.44 358.21 196.54 350.19 191.39 345.03 183.25 337.81 184.05"/><polygon class="cls-18" points="393.28 214.31 378.61 215.69 369.9 222.44 382.51 239.98 401.41 229.9 399.01 220.15 393.28 214.31"/><polygon class="cls-17" points="360.5 184.28 354.32 185.2 337.81 184.05 369.9 222.44 393.28 214.31 378.27 189.78 371.5 188.75 367.61 192.99 365.32 184.28 360.5 184.28"/><polygon class="cls-21" points="367.27 179.7 355.69 180.96 353.4 188.98 367.61 192.99 369.56 185.2 367.27 179.7"/><polygon class="cls-23" points="406.11 178.44 400.04 176.49 376.78 181.3 381.02 188.18 389.61 191.27 403.25 192.99 406.11 178.44"/><path class="cls-14" d="M443,188.75l-9.63-10L423,176.83l-13.3,6.42L403.25,193l-10.09,21.43,19.48-4.58,6.19-5.5,12.26-4.24S442.9,188.64,443,188.75Z"/><polygon class="cls-24" points="422.96 176.83 443.01 188.75 462.49 171.33 450.46 150.59 427.54 131.79 422.04 152.88 422.96 176.83"/><polygon class="cls-22" points="464.1 146.69 462.49 171.33 427.54 131.79 445.3 135.12 464.1 146.69"/><polygon class="cls-9" points="449.2 129.96 427.54 131.79 464.1 146.69 449.2 129.96"/><polygon class="cls-21" points="423.19 153.34 432.7 158.73 422.96 176.83 423.19 153.34"/><polygon class="cls-23" points="424.22 157.58 428.46 159.99 424.33 163.2 424.22 157.58"/><polygon class="cls-25" points="376.78 181.53 367.27 179.7 361.76 170.65 363.48 166.18 358.56 152.54 363.14 144.51 374.02 138.21 378.61 162.97 376.78 181.53"/><polygon class="cls-17" points="358.56 152.54 365.09 154.49 368.3 147.38 374.02 138.21 377.69 125.03 372.88 119.07 363.48 115.98 355.35 119.19 353.4 137.98 358.56 152.54"/><polygon class="cls-26" points="372.88 119.07 376.78 181.3 422.96 176.83 427.54 131.79 424.33 120.56 407.14 112.43 372.88 119.07"/><polygon class="cls-25" points="382.62 132.71 403.36 155.86 403.82 137.07 382.62 132.71"/><polygon class="cls-25" points="410.24 137.75 410.12 155.63 423.76 133.06 410.24 137.75"/><polygon class="cls-18" points="341.71 170.07 337.81 184.05 346.06 193.91 367.27 179.7 364.29 169.04 358.56 152.54 341.71 170.07"/><polygon class="cls-3" points="382.62 132.71 401.3 134.77 402.56 139.59 382.62 132.71"/><polygon class="cls-3" points="411.61 134.77 411.04 139.01 423.76 133.06 411.61 134.77"/><polygon class="cls-27" points="406.46 154.49 403.36 155.86 407.14 158.73 410.12 155.63 406.46 154.49"/><polygon class="cls-17" points="408.4 168.12 401.53 168.58 390.99 165.49 406.8 163.88 412.99 164.8 408.4 168.12"/><polygon class="cls-10" points="529.87 318.48 557.03 300.49 573.87 304.85 573.18 318.48 549.01 320.55 529.87 318.48"/><polygon class="cls-3" points="557.03 300.49 561.61 291.55 583.04 294.07 595.76 305.65 588.43 315.05 557.03 300.49"/><polygon class="cls-18" points="583.04 247.77 561.61 291.55 595.76 305.65 614.9 281.35 603.67 258.2 583.04 247.77"/><polygon class="cls-10" points="675.4 323.87 657.64 325.48 643.66 323.53 650.53 305.31 669.44 305.31 675.4 323.87"/><polygon class="cls-3" points="666.12 293.27 669.44 305.31 631.74 313.44 627.27 304.85 643.77 293.04 666.12 293.27"/><polygon class="cls-18" points="614.9 281.35 627.27 304.85 666.12 293.27 654.09 250.18 626.01 259.23 614.9 281.35"/><polygon class="cls-5" points="583.04 247.77 614.9 281.35 654.09 250.18 613.64 239.64 583.04 247.77"/><polygon class="cls-28" points="530.67 228.41 546.37 238.26 550.04 228.06 542.93 221.07 527.23 216.03 530.67 228.41"/><polygon class="cls-28" points="542.93 215 551.53 223.94 562.3 219.47 546.03 210.53 542.93 215"/><polygon class="cls-17" points="581.89 194.02 571.47 180.96 560.12 190.01 556.23 205.6 562.3 219.47 590.37 213.97 581.89 194.02"/><polygon class="cls-3" points="603.55 163.2 579.14 174.88 571.47 180.96 576.62 210.64 581.44 238.38 583.04 247.77 654.09 250.18 631.97 170.07 603.55 163.2"/><polygon class="cls-28" points="499.96 194.25 499.96 182.22 513.6 185.54 516.23 202.39 499.96 194.25"/><polygon class="cls-28" points="514.17 177.18 523.34 190.36 530.56 190.59 531.36 182.22 517.03 174.66 514.17 177.18"/><polygon class="cls-28" points="603.55 163.2 588.77 183.82 581.44 171.45 574.68 170.76 566.65 173.63 555.65 139.24 556 108.53 589.69 125.38 606.53 146.46 603.55 163.2"/><polygon class="cls-29" points="577.65 138.33 592.89 141.42 591.52 135.35 577.65 138.33"/><polygon class="cls-4" points="526.2 119.19 540.53 110.82 556 108.53 566.65 173.63 536.4 176.95 526.2 119.19"/><polygon class="cls-28" points="543.05 128.47 548.66 146.35 556 121.82 543.05 128.47"/><polygon class="cls-28" points="528.73 133.4 538.23 130.76 541.22 148.53 528.73 133.4"/><polygon class="cls-5" points="541.79 154.72 541.22 163.2 558.75 159.64 550.61 151.85 541.79 154.72"/><polygon class="cls-17" points="615.93 85.27 589.69 64.18 542.48 63.6 542.48 81.03 548.21 90.77 586.71 96.61 615.93 85.27"/><polygon class="cls-30" points="556 121.82 543.85 124.92 544.19 132.71 556 121.82"/><polygon class="cls-30" points="538.92 129.5 536.63 128.01 528.73 133.4 539.27 133.06 538.92 129.5"/><polygon class="cls-31" points="543.74 155.98 549.69 154.49 554.51 158.61 543.05 160.56 543.74 155.98"/><polygon class="cls-24" points="569.29 133.4 556 108.53 577.08 116.32 577.54 132.71 569.29 133.4"/><polygon class="cls-4" points="588.65 117.01 575.13 121.94 577.65 138.33 590.6 137.07 588.65 117.01"/><polygon class="cls-29" points="580.63 127.55 580.63 134.32 585.68 128.81 580.63 127.55"/><polygon class="cls-5" points="601.37 152.19 603.55 163.2 631.05 161.02 617.19 148.64 606.53 146.46 601.37 152.19"/><polygon class="cls-24" points="603.55 163.2 590.6 137.07 601.37 137.64 606.53 146.46 603.55 163.2"/><polygon class="cls-5" points="390.99 165.49 402.9 162.62 406.8 162.97 409.44 162.28 412.99 164.8 390.99 165.49"/><polygon class="cls-32" points="411.61 134.77 401.3 134.77 403.36 155.86 410.12 155.63 411.61 134.77"/><polygon class="cls-26" points="368.3 147.38 371.96 163.43 363.14 165.37 358.56 152.54 368.3 147.38"/><polygon class="cls-18" points="339.08 140.28 339.19 150.02 345.38 154.26 358.56 152.54 343.2 132.25 336.56 130.88 339.08 140.28"/><polygon class="cls-5" points="442.44 118.96 428.8 100.74 418.49 106.92 415.51 118.61 427.54 131.79 442.44 118.96"/><polygon class="cls-19" points="340.45 128.59 358.56 152.54 355.35 119.19 340.45 128.59"/><polygon class="cls-17" points="349.85 113.92 372.88 119.07 317.19 164.57 331.17 135 349.85 113.92"/><polygon class="cls-5" points="318.79 128.01 331.17 135 355.35 119.19 350.54 110.48 337.59 102.11 318.79 128.01"/><polygon class="cls-3" points="428.8 100.74 337.59 102.11 355.35 119.19 415.51 118.61 428.8 100.74"/><polygon class="cls-16" points="151.72 80.68 149.54 95.58 157.91 90.42 151.72 80.68"/><polygon class="cls-18" points="125.59 113.46 133.73 122.74 127.77 130.88 125.59 113.46"/><polygon class="cls-18" points="66 162.62 66 149.33 72.42 159.3 66 162.62"/><polygon class="cls-16" points="245.34 151.97 252.1 140.62 242.36 145.78 245.34 151.97"/><polygon class="cls-18" points="531.36 182.22 560.12 190.01 562.3 219.47 529.07 205.6 531.36 182.22"/><polygon class="cls-16" points="527.35 104.86 541.79 99.82 548.21 90.77 542.48 63.6 530.21 63.6 527.35 104.86"/><polygon class="cls-18" points="530.21 63.6 534.11 99.02 525.86 109.33 525.17 77.36 530.21 63.6"/><polygon class="cls-5" points="503.97 116.78 526.78 122.74 556 108.53 554.39 96.61 548.21 90.77 503.97 116.78"/><polygon class="cls-17" points="631.05 161.02 590.6 137.07 556 108.53 616.27 106.01 619.37 119.42 631.05 161.02"/><polygon class="cls-3" points="623.95 84.58 548.21 90.77 556 108.53 615.47 110.59 624.29 97.87 623.95 84.58"/><polygon class="cls-5" points="640.79 110.48 623.95 84.58 615.47 110.59 620.4 123.31 640.79 110.48"/><polygon class="cls-29" points="544.42 146.35 541.22 148.53 546.72 151.16 548.66 146.35 544.42 146.35"/><polygon class="cls-33" points="536.63 128.01 543.85 124.92 548.66 146.35 541.22 148.53 536.63 128.01"/><polygon class="cls-34" points="376.66 181.42 367.27 179.7 367.61 192.99 378.27 189.78 376.66 181.42"/><polygon class="cls-19" points="418.83 204.34 393.28 214.31 398.09 242.96 422.38 217.63 422.04 208.58 418.83 204.34"/><polygon class="cls-19" points="443.01 188.75 432.81 195.4 428.11 203.65 437.39 214.65 447.25 198.03 443.01 188.75"/><polygon class="cls-19" points="421.58 188.87 418.83 204.34 428.11 203.65 425.48 189.21 421.58 188.87"/><polygon class="cls-5" points="432.81 195.4 418.83 204.34 422.38 217.63 437.39 214.65 432.81 195.4"/><polygon class="cls-27" points="361.99 154.94 367.72 159.19 365.89 152.77 361.99 154.94"/><polygon class="cls-31" points="366.69 163.88 361.76 161.59 359.59 166.52 364.29 169.04 366.69 163.88"/><polygon class="cls-18" points="590.83 201.59 562.3 219.47 558.17 226.23 563.45 235.4 564.02 243.76 613.98 230.01 599.2 210.76 590.83 201.59"/><polygon class="cls-4" points="542.93 221.07 546.37 238.26 563.45 235.4 562.3 219.47 542.93 221.07"/><polygon class="cls-1" points="270.44 229.9 270.32 238.72 285.1 239.29 285.56 230.47 270.44 229.9"/><polygon class="cls-13" points="271.58 231.5 271.47 237.34 276.62 237.46 276.97 231.5 271.58 231.5"/><polygon class="cls-13" points="278.34 231.5 284.42 231.73 284.07 237.57 278.11 237.34 278.34 231.5"/><polygon class="cls-1" points="269.18 246.63 269.06 254.99 282.93 255.57 283.27 247.2 269.18 246.63"/><polygon class="cls-13" points="270.32 248.23 270.21 253.62 275.02 253.85 275.36 248.23 270.32 248.23"/><polygon class="cls-13" points="276.51 248.23 282.24 248.35 281.89 253.96 276.39 253.62 276.51 248.23"/><polygon class="cls-1" points="269.29 262.21 269.06 269.32 281.09 269.78 281.44 262.67 269.29 262.21"/><polygon class="cls-13" points="270.21 263.48 270.09 268.17 274.22 268.4 274.56 263.59 270.21 263.48"/><polygon class="cls-13" points="275.59 263.59 280.52 263.7 280.18 268.52 275.36 268.17 275.59 263.59"/><polygon class="cls-1" points="300.69 203.19 300.46 212.02 315.24 212.59 315.7 203.77 300.69 203.19"/><polygon class="cls-13" points="301.83 204.8 301.72 210.64 306.88 210.76 307.22 204.91 301.83 204.8"/><polygon class="cls-13" points="308.48 204.91 314.55 205.03 314.21 210.99 308.25 210.64 308.48 204.91"/><polygon class="cls-1" points="485.64 215 485.52 223.02 499.16 226.46 499.5 218.44 485.64 215"/><polygon class="cls-13" points="486.67 216.72 486.56 221.99 491.37 223.13 491.71 217.75 486.67 216.72"/><polygon class="cls-13" points="492.86 217.98 498.47 219.35 498.13 224.74 492.63 223.36 492.86 217.98"/><polygon class="cls-1" points="485.41 232.88 485.3 240.21 497.78 242.96 498.13 235.63 485.41 232.88"/><polygon class="cls-13" points="486.32 234.37 486.32 239.29 490.68 240.21 490.91 235.28 486.32 234.37"/><polygon class="cls-13" points="492.06 235.4 497.1 236.43 496.87 241.36 491.83 240.21 492.06 235.4"/><polygon class="cls-1" points="485.52 249.61 485.41 256.25 496.75 257.4 496.98 250.75 485.52 249.61"/><polygon class="cls-13" points="486.44 250.87 486.32 255.34 490.33 255.68 490.56 251.1 486.44 250.87"/><polygon class="cls-13" points="491.6 251.21 496.18 251.56 495.95 256.14 491.37 255.57 491.6 251.21"/><polygon class="cls-1" points="485.41 266 485.3 272.76 496.52 272.53 496.87 265.77 485.41 266"/><polygon class="cls-13" points="486.21 267.14 486.21 271.61 490.11 271.5 490.33 267.03 486.21 267.14"/><polygon class="cls-13" points="491.37 266.91 495.95 266.8 495.72 271.38 491.25 271.38 491.37 266.91"/><polygon class="cls-1" points="445.07 231.16 445.19 239.52 459.51 240.78 459.63 232.42 445.07 231.16"/><polygon class="cls-13" points="446.22 232.76 446.33 238.26 451.37 238.72 451.49 232.99 446.22 232.76"/><polygon class="cls-13" points="452.75 233.1 458.59 233.45 458.48 239.18 452.75 238.61 452.75 233.1"/><polygon class="cls-1" points="445.53 249.72 445.65 257.4 458.71 258.09 458.82 250.41 445.53 249.72"/><polygon class="cls-13" points="446.56 251.1 446.68 256.14 451.14 256.37 451.26 251.21 446.56 251.1"/><polygon class="cls-13" points="452.41 251.21 457.79 251.44 457.68 256.6 452.41 256.25 452.41 251.21"/><polygon class="cls-1" points="446.22 266.91 446.33 273.9 458.14 273.22 458.25 266.23 446.22 266.91"/><polygon class="cls-13" points="447.25 268.17 447.25 272.76 451.37 272.41 451.49 267.71 447.25 268.17"/><polygon class="cls-13" points="452.52 267.6 457.33 267.26 457.22 271.95 452.52 272.19 452.52 267.6"/><polygon class="cls-1" points="516.92 272.19 517.03 279.4 529.3 279.06 529.41 271.84 516.92 272.19"/><polygon class="cls-13" points="517.95 273.44 517.95 278.14 522.31 278.03 522.42 273.22 517.95 273.44"/><polygon class="cls-13" points="523.45 273.1 528.5 272.87 528.38 277.8 523.45 277.8 523.45 273.1"/><polygon class="cls-1" points="538.69 275.85 538.69 279.63 545.23 279.52 545.34 275.74 538.69 275.85"/><polygon class="cls-13" points="539.15 276.54 539.27 279.06 541.56 278.94 541.56 276.43 539.15 276.54"/><polygon class="cls-13" points="542.13 276.31 544.88 276.19 544.77 278.83 542.13 278.83 542.13 276.31"/><polygon class="cls-13" points="403.25 192.99 423.07 176.83 401.87 178.9 403.25 192.99"/><polygon class="cls-18" points="82.73 197.46 74.71 209.5 66.35 184.63 82.73 197.46"/><path class="cls-21" d="M376.66,181.42l12.95,9.85-11.34-1.49S376.78,181.53,376.66,181.42Z"/><polygon class="cls-29" points="574.68 170.76 592.44 164.46 588.77 183.82 574.68 170.76"/><polygon class="cls-16" points="358.56 152.54 337.81 184.05 323.95 168.7 339.19 150.02 358.56 152.54"/><polygon class="cls-35" points="321.89 212.59 359.13 239.41 369.9 222.44 330.6 196.89 321.89 212.59"/><path class="cls-30" d="M392.7,139.7a2.64,2.64,0,1,1-2.63,2.64A2.64,2.64,0,0,1,392.7,139.7Z"/><path class="cls-30" d="M417.69,139.7a2.64,2.64,0,1,1-2.64,2.64A2.64,2.64,0,0,1,417.69,139.7Z"/><path class="cls-30" d="M551.64,131.34a2.52,2.52,0,1,1-2.52,2.52A2.52,2.52,0,0,1,551.64,131.34Z"/><polygon class="cls-22" points="530.33 322.73 529.87 318.48 573.18 318.48 573.18 322.5 530.33 322.73"/><polygon class="cls-22" points="643.43 328.8 643.66 323.53 675.4 323.87 675.29 327.77 643.43 328.8"/><path class="cls-30" d="M534.45,136.72a2.52,2.52,0,1,1-2.52,2.52A2.52,2.52,0,0,1,534.45,136.72Z"/><polygon class="cls-35" points="627.62 203.77 602.75 231.96 646.98 224.28 640.68 201.82 627.62 203.77"/><polygon class="cls-17" points="631.97 170.07 590.83 201.59 613.98 230.01 640.68 201.82 631.97 170.07"/><polygon class="cls-22" points="393.28 300.49 384.45 300.49 405.08 292.36 409.21 292.58 393.28 300.49"/><polygon class="cls-22" points="384.45 300.49 382.96 296.71 408.06 288.8 409.21 292.58 384.45 300.49"/><polygon class="cls-10" points="421.01 282.27 430.06 277.57 434.53 284.33 425.02 292.7 415.97 297.28 421.01 282.27"/><polygon class="cls-22" points="427.43 297.97 417.46 300.49 433.04 288.11 436.71 287.2 427.43 297.97"/><polygon class="cls-22" points="417.46 300.49 415.97 297.28 434.53 284.33 436.71 287.2 417.46 300.49"/><polygon class="cls-5" points="417 327.88 437.97 307.14 445.3 306.34 428.34 325.36 417 327.88"/><polygon class="cls-6" points="337.7 283.87 356.61 301.87 348.59 308.17 331.28 287.54 337.7 283.87"/><polygon class="cls-8" points="360.96 294.65 342.06 266.8 365.09 287.77 360.96 294.65"/><polygon class="cls-35" points="276.28 53.29 275.13 62 279.37 62.69 279.14 53.98 276.28 53.29"/><polygon class="cls-35" points="265.39 50.31 263.9 59.02 259.78 58.45 262.41 50.2 265.39 50.31"/><polygon class="cls-17" points="246.03 51.57 249.92 51.23 251.99 55.81 291.29 63.84 290.83 66.47 247.63 58.91 246.03 51.57"/><polygon class="cls-36" points="260.69 9.51 282.47 22.12 279.14 25.79 245.91 6.19 288.08 0 328.3 21.43 287.17 27.62 284.99 22.92 312.95 19.02 286.94 6.65 260.69 9.51"/><polygon class="cls-3" points="301.03 48.02 279.26 54.67 262.41 50.2 276.39 46.87 301.03 48.02"/><polygon class="cls-36" points="264.02 22.12 245.34 39.54 278.92 43.66 306.3 42.4 302.52 36.67 287.17 27.62 264.02 22.12"/><polygon class="cls-35" points="246.37 27.85 306.3 42.4 300.92 48.25 269.18 45.61 245.34 39.54 246.37 27.85"/><polygon class="cls-35" points="339.65 41.14 287.17 27.62 306.3 42.4 345.03 48.13 344.69 43.78 339.65 41.14"/><polygon class="cls-17" points="355.12 27.96 350.76 31.63 350.65 35.41 342.86 41.37 348.93 49.05 356.38 44.12 356.72 40.23 363.71 33.01 355.12 27.96"/><polygon class="cls-36" points="360.05 44.92 347.79 51.69 339.65 41.14 350.76 31.63 360.05 44.92"/><polygon class="cls-17" points="349.96 37.48 354.55 43.44 348.93 47.33 345.03 41.49 349.96 37.48"/><polygon class="cls-17" points="265.05 24.98 260.12 31.17 269.86 33.58 272.38 26.82 265.05 24.98"/><polygon class="cls-17" points="275.25 27.39 272.73 34.27 281.67 36.44 283.04 29.34 275.25 27.39"/><polygon class="cls-35" points="279.14 25.79 287.17 27.62 284.76 17.76 279.14 25.79"/><polygon class="cls-17" points="245.34 39.54 301.03 48.02 262.41 50.2 245.34 39.54"/><polygon class="cls-15" points="705.88 224.62 717 225.66 715.74 234.14 726.05 235.4 724.79 247.43 715.62 246.4 714.71 255.22 702.44 253.39 703.13 244.91 694.42 242.73 695.45 232.07 705.2 232.65 705.88 224.62"/><polygon class="cls-15" points="752.18 198.03 746.22 209.84 765.81 212.48 764.55 198.03 752.18 198.03"/><polygon class="cls-16" points="781.51 198.72 764.55 198.03 765.81 212.48 784.38 213.16 784.38 213.16 781.51 198.72"/><polygon class="cls-6" points="808.44 199.64 795.03 199.18 798.59 213.62 798.59 213.62 815.32 214.19 808.44 199.64"/><polygon class="cls-2" points="781.51 198.72 784.38 213.16 798.59 213.62 795.03 199.18 781.51 198.72"/><path class="cls-15" d="M685.26,51a19.83,19.83,0,1,1-19.83,19.83A19.82,19.82,0,0,1,685.26,51Z"/></g></g></svg>