<svg xmlns="http://www.w3.org/2000/svg" viewBox="0 0 900 350"><defs><style>.cls-1{fill:#9b9fa0;}.cls-1,.cls-10,.cls-11,.cls-13,.cls-14,.cls-15,.cls-16,.cls-17,.cls-18,.cls-19,.cls-2,.cls-20,.cls-23,.cls-27,.cls-3,.cls-36,.cls-37,.cls-38,.cls-39,.cls-4,.cls-40,.cls-41,.cls-42,.cls-43,.cls-44,.cls-45,.cls-46,.cls-47,.cls-48,.cls-5,.cls-50,.cls-51,.cls-6,.cls-7,.cls-8,.cls-9{fill-rule:evenodd;}.cls-2{fill:#c4c4c2;}.cls-3{fill:#dddddc;}.cls-4{fill:#ececeb;}.cls-5{fill:#836528;}.cls-6{fill:#ba8e2d;}.cls-7{fill:#e1a940;}.cls-25,.cls-8{fill:#9c782c;}.cls-9{fill:#b38b2e;}.cls-10,.cls-12{fill:#f0bc67;}.cls-11,.cls-33{fill:#bc8f2d;}.cls-13{fill:#b3b3b3;}.cls-14{fill:#a3a1a1;}.cls-15{fill:#f7f7f5;}.cls-16{fill:#d0cecd;}.cls-17,.cls-31{fill:#2b2b2b;}.cls-17,.cls-20{opacity:0.1;}.cls-18{fill:#cbad2d;}.cls-19{fill:#f3d65c;}.cls-20{fill:#010101;}.cls-21,.cls-27{fill:#573a2f;}.cls-22,.cls-38{fill:#755041;}.cls-23,.cls-29{fill:#33231b;}.cls-24,.cls-41{fill:#755924;}.cls-26{fill:#4f5353;}.cls-28{fill:#494749;}.cls-30,.cls-47{fill:#474748;}.cls-32{fill:#7f5b4c;}.cls-34,.cls-48{fill:#fff;}.cls-35{fill:#6f7273;}.cls-36{fill:#c2977a;}.cls-37{fill:#debca4;}.cls-39{fill:#8a6651;}.cls-40{fill:#e4c723;}.cls-42,.cls-49{fill:#2b2c2b;}.cls-43{fill:#7c7b7b;}.cls-44{fill:#5d5d5d;}.cls-45{fill:#494849;}.cls-46{fill:#e8c9b6;}.cls-50{fill:#959494;}.cls-51{fill:#383938;}</style></defs><title>explorers_Entertainer_ESFP_romantic_relationships</title><g id="Layer_8_copy" data-name="Layer 8 copy"><g id="buildings_and_clouds_copy" data-name="buildings and clouds copy"><polygon class="cls-1" points="445 106.47 455.25 98.47 473.51 110.47 491.01 163.49 479.51 187.24 439.5 181.49 445 106.47"/><polygon class="cls-1" points="661.58 188.83 674.25 146.15 699.93 174.82 699.93 228.17 649.91 217.84 661.58 188.83"/><polygon class="cls-2" points="850.9 166.74 842.39 148.48 799.13 149.48 791.63 231.26 845.65 247.26 850.9 166.74"/><polygon class="cls-3" points="482.51 33.45 455.5 36.45 384.98 32.45 464 57.95 570.54 43.45 614.56 40.95 584.05 33.45 482.51 33.45"/><polygon class="cls-4" points="584.05 33.45 506.02 25.45 440.5 31.45 384.98 32.45 471.51 45.95 584.05 33.45"/><path class="cls-3" d="M81.36,8.44s-12.67-4.67-13.67-4S20,8.77,20,8.77l35,2.34,55.69,27.67,75-29L117,19.11Z"/><polygon class="cls-4" points="20.01 8.77 70.03 0.44 132.72 11.11 187.07 9.77 112.71 22.11 63.69 8.11 20.01 8.77"/><polygon class="cls-1" points="855.9 249.01 861.65 163.99 842.39 148.48 837.39 238.51 855.9 249.01"/><polygon class="cls-2" points="640.9 215.17 642.24 148.15 679.92 146.15 681.59 220.84 640.9 215.17"/><polygon class="cls-2" points="422.66 159.49 421.49 101.13 455.25 98.47 450.75 188.99 416.74 184.49 422.66 159.49"/><polygon class="cls-1" points="803.3 158.49 832.64 158.65 830.64 227 794.79 223.17 803.3 158.49"/><polygon class="cls-2" points="821.39 156.23 818.47 229.42 823.3 230.01 825.97 156.65 821.39 156.23"/><polygon class="cls-2" points="810.8 156.4 807.88 229.59 812.72 230.17 815.38 156.82 810.8 156.4"/><path class="cls-2" d="M799.8,164.32c.83,0,36,1.33,36,1.33l.17,7-34.68-1.84Z"/><path class="cls-2" d="M799.13,180c.83,0,36,1.33,36,1.33l.17,7-34.68-1.84Z"/><path class="cls-2" d="M798.8,194.16c.83,0,36,1.34,36,1.34l.17,7-34.68-1.84Z"/><path class="cls-2" d="M799.3,207.33c.83,0,36,1.34,36,1.34l.17,7-34.68-1.84Z"/><path class="cls-2" d="M797.8,220.84c.83,0,36,1.33,36,1.33l.17,7-34.68-1.83Z"/><polygon class="cls-1" points="650.18 154.66 672.39 154.79 670.88 206.54 648.95 205.87 650.18 154.66"/><polygon class="cls-2" points="663.87 152.96 661.66 208.37 665.32 208.81 667.34 153.28 663.87 152.96"/><polygon class="cls-2" points="655.86 153.09 653.65 208.5 657.31 208.94 659.33 153.4 655.86 153.09"/><path class="cls-2" d="M647.53,159.08c.63,0,27.26,1,27.26,1l.13,5.3L648.66,164Z"/><path class="cls-2" d="M647,171c.63,0,27.27,1,27.27,1l.12,5.3-26.25-1.39Z"/><path class="cls-2" d="M646.77,181.68c.63,0,27.26,1,27.26,1l.13,5.3L647.9,186.6Z"/><path class="cls-2" d="M647.15,191.65c.63,0,27.26,1,27.26,1l.13,5.3-26.26-1.39Z"/><path class="cls-2" d="M646,201.87c.63,0,27.27,1,27.27,1l.12,5.3-26.25-1.39Z"/><polygon class="cls-1" points="425.16 106.14 448.31 104.78 446.79 156.53 424.87 155.86 425.16 106.14"/><polygon class="cls-2" points="439.79 102.95 437.58 158.36 441.24 158.8 443.26 103.26 439.79 102.95"/><polygon class="cls-2" points="431.77 103.07 429.56 158.48 433.23 158.92 435.25 103.39 431.77 103.07"/><polygon class="cls-2" points="423.41 110.72 450.71 110.08 450.83 115.38 424.24 116.06 423.41 110.72"/><path class="cls-2" d="M422.94,120.93c.63,0,27.26,1,27.26,1l.13,5.3-26.26-1.39Z"/><path class="cls-2" d="M422.68,131.66c.64,0,27.27,1,27.27,1l.13,5.3-26.26-1.39Z"/><path class="cls-2" d="M423.06,141.63c.63,0,27.27,1,27.27,1l.12,5.3-26.25-1.39Z"/><path class="cls-2" d="M421.93,151.86c.63,0,27.26,1,27.26,1l.13,5.3-26.26-1.39Z"/></g><g id="carnival_copy" data-name="carnival copy"><polygon class="cls-5" points="458.63 144.93 467.03 155.95 449.75 160.43 382.74 161.25 365.47 154.78 402.51 139.89 458.63 144.93"/><polygon class="cls-6" points="412.1 156.78 398.96 145.91 377.92 143.86 373.16 187.64 405.98 189.24 412.1 156.78"/><polygon class="cls-7" points="384.34 150.46 398.96 145.91 377.92 143.86 373.16 187.64 380.01 192.63 384.34 150.46"/><polygon class="cls-7" points="401.72 151.74 419.52 147.45 393.76 145.02 388.73 188.78 397.18 193.9 401.72 151.74"/><polygon class="cls-6" points="442.62 155.03 439.12 146.34 405.43 148.3 402.72 184.77 440.48 177.29 442.62 155.03"/><polygon class="cls-6" points="454.66 176.42 454.34 148.09 435.75 146.07 436.05 187.33 454.66 176.42"/><polygon class="cls-7" points="446.54 183.27 446.34 147.53 439.12 146.34 439.42 187.61 446.54 183.27"/><polygon class="cls-8" points="444.72 137.68 468.62 147.08 467.03 155.95 435.76 152.47 398.12 151.97 365.47 154.78 364.27 145.8 408.78 136.01 444.72 137.68"/><polygon class="cls-8" points="431.58 179.03 431.75 159.42 412.26 159.13 409.43 184.14 431.58 179.03"/><polygon class="cls-7" points="421.77 111.79 468.62 147.08 439.12 142.02 426.84 132.65 421.77 111.79"/><polygon class="cls-7" points="364.27 145.8 412.64 111.73 413.3 137.6 400.49 141.36 364.27 145.8"/><polygon class="cls-6" points="439.22 142.14 400.49 141.36 412.64 111.73 421.77 111.79 439.22 142.14"/><polygon class="cls-8" points="366.14 181.82 352.8 175.82 312.78 174.49 311.45 196.83 366.8 200.83 366.14 181.82"/><polygon class="cls-9" points="481.18 173.49 352.8 175.82 353.13 184.83 483.85 206.83 481.18 173.49"/><polygon class="cls-7" points="625.4 141.15 625.46 140.5 627.07 124.6 618.4 121.64 615.23 138.81 625.4 141.15"/><polygon class="cls-6" points="471.26 96.34 476.68 88.8 485.51 95.09 486.89 101.84 506.9 97.47 508.02 79.63 516.77 86.21 516.9 91.72 546.87 84.63 555.37 77.63 560.21 82.46 557.71 93.13 576.55 101.97 587.88 91.97 593.39 96.97 592.72 108.97 475.34 110.8 471.26 96.34"/><polygon class="cls-6" points="610.43 106.72 616.39 100.47 622.23 110.8 620.15 126.06 624.57 132.6 627.07 124.6 632.57 133.1 631.23 140.81 621.69 139.6 610.43 114.35 610.43 106.72"/><polygon class="cls-7" points="470.84 107.47 464.84 105.47 463.34 93.97 476.68 88.8 478.34 101.3 493.85 98.47 491.85 85.46 508.02 79.63 511.69 91.47 524.69 88.13 522.69 75.96 540.03 69.63 555.37 77.63 551.7 90.46 567.54 96.13 573.05 83.96 587.88 91.97 585.38 104.14 598.39 109.97 603.06 96.63 616.39 100.47 614.69 113.1 619.73 125.64 624.23 132.14 631.23 140.81 618.73 140.15 557.71 110.14 470.84 107.47"/><polygon class="cls-8" points="469.17 137.48 488.35 149.48 539.37 146.15 626.57 169.99 620.4 146.15 521.36 117.47 469.17 137.48"/><polygon class="cls-8" points="485.51 148.23 496.18 138.15 507.86 142.65 511.86 204.16 491.76 190.99 485.51 148.23"/><polygon class="cls-8" points="616.56 163.15 613.06 230.01 583.8 216.5 601.93 148.73 616.56 163.15"/><polygon class="cls-6" points="597.8 119.97 614.69 113.1 631.23 140.81 626.57 169.99 608.68 148.36 597.8 119.97"/><polygon class="cls-6" points="575.05 211 580.42 144.98 601.93 148.73 596.89 231.17 575.05 211"/><polygon class="cls-6" points="494.52 208 495.18 184.49 496.18 138.15 478.18 139.15 475.01 197 494.52 208"/><polygon class="cls-7" points="469.17 137.48 536.2 133.81 608.68 148.36 614.69 113.1 538.66 82.46 464.84 105.47 469.17 137.48"/><polygon class="cls-10" points="472.01 111.1 473.76 131.6 536.66 128.1 603.56 140.85 606.93 119.47 538.53 89.34 472.01 111.1"/><polygon class="cls-8" points="704.76 37.45 735.52 87.21 728.52 91.47 696.76 42.45 704.76 37.45"/><polygon class="cls-8" points="775.29 44.2 777.54 46.45 745.23 98.47 744.03 102.47 803.3 100.22 803.8 109.72 745.86 108.3 758.09 128.23 750.03 130.23 740.02 109.97 736.27 110.72 712.01 152.48 700.76 152.48 726.02 106.72 667.5 106.72 669.5 98.22 729.77 95.97 736.27 92.97 769.78 43.95 775.29 44.2"/><polygon class="cls-9" points="799.05 105.22 662.25 102.22 663.5 93.72 799.55 97.22 799.05 105.22"/><polygon class="cls-9" points="772.79 156.98 694.76 29.95 687.25 34.7 767.28 163.24 772.79 156.98"/><polygon class="cls-9" points="689.76 161.24 761.12 48.12 772.79 45.2 698.26 163.74 689.76 161.24"/><polygon class="cls-11" points="746.78 86.38 750.56 100.13 741.77 117.64 726.85 118.06 719.85 113.81 724.63 85.16 738.44 84.05 746.78 86.38"/><path class="cls-8" d="M786.71,21.69H694L647.65,102,694,182.25h92.71L833.07,102ZM781.36,173h-82l-41-71,38.42-67.69h86.36L822.37,102Z"/><path class="cls-9" d="M779,20.19H686.25L639.9,100.47l46.35,80.28H779l46.35-80.28Zm-5.35,151.3h-82l-41-71,41-71h82l41,71Z"/><polygon class="cls-7" points="769.53 7.69 776.41 2.19 786.17 12.82 790.04 23.03 768.53 18.69 769.53 7.69"/><polygon class="cls-10" points="758.16 16.57 746.65 12.82 755.11 3.27 776.41 2.19 777.79 12.36 758.16 16.57"/><polygon class="cls-11" points="764.95 31.45 770.12 45.28 784.6 48.39 790.04 23.03 777.79 12.36 764.95 31.45"/><polygon class="cls-8" points="762.62 28.28 750.28 40.78 761.12 48.12 784.6 48.39 774.79 40.7 762.62 28.28"/><polygon class="cls-7" points="746.65 12.82 750.28 40.78 774.79 40.7 777.79 12.36 746.65 12.82"/><polygon class="cls-10" points="751.78 18 773.35 17.25 771.47 35.82 753.4 35.64 751.78 18"/><polygon class="cls-6" points="754.65 20.63 755.65 33.13 768.97 33.13 770.22 20.51 754.65 20.63"/><polygon class="cls-7" points="689.84 5.69 696.72 0 706.47 10.82 710.35 21.03 688.84 16.69 689.84 5.69"/><polygon class="cls-10" points="678.46 14.57 666.96 10.82 678.84 1.19 696.72 0 698.09 10.36 678.46 14.57"/><polygon class="cls-11" points="685.25 29.45 690.42 43.28 704.91 46.39 710.35 21.03 698.09 10.36 685.25 29.45"/><polygon class="cls-8" points="682.92 26.28 670.58 38.78 680.71 48.28 704.91 46.39 695.09 38.7 682.92 26.28"/><polygon class="cls-7" points="666.96 10.82 670.58 38.78 695.09 38.7 698.09 10.36 666.96 10.82"/><polygon class="cls-10" points="672.08 16 693.65 15.26 691.78 33.82 673.71 33.63 672.08 16"/><polygon class="cls-6" points="674.96 18.63 675.96 31.13 689.28 31.13 690.53 18.51 674.96 18.63"/><polygon class="cls-7" points="655.83 71.96 659.08 66.79 672.46 77.08 676.33 87.3 654.83 82.96 655.83 71.96"/><polygon class="cls-10" points="644.45 80.84 632.94 77.08 644.82 67.46 659.08 66.79 664.08 76.63 644.45 80.84"/><polygon class="cls-11" points="651.24 95.72 656.41 109.55 670.89 112.66 676.33 87.3 664.08 76.63 651.24 95.72"/><polygon class="cls-8" points="648.91 92.55 636.57 105.05 647.41 112.39 670.89 112.66 661.08 104.97 648.91 92.55"/><polygon class="cls-7" points="632.94 77.08 636.57 105.05 661.08 104.97 664.08 76.63 632.94 77.08"/><polygon class="cls-10" points="638.07 82.27 659.64 81.52 657.76 100.09 639.7 99.91 638.07 82.27"/><polygon class="cls-6" points="640.95 84.9 641.95 97.4 655.26 97.4 656.51 84.78 640.95 84.9"/><polygon class="cls-7" points="815.13 73.71 822.01 68.21 831.77 78.84 835.64 89.05 814.13 84.71 815.13 73.71"/><polygon class="cls-10" points="803.76 82.59 792.25 78.84 805.63 66.62 822.01 68.21 823.39 78.38 803.76 82.59"/><polygon class="cls-11" points="810.55 97.47 815.72 111.3 830.2 114.41 835.64 89.05 823.39 78.38 810.55 97.47"/><polygon class="cls-8" points="808.22 94.3 795.88 106.8 806.72 114.14 830.2 114.41 820.39 106.72 808.22 94.3"/><polygon class="cls-7" points="792.25 78.84 795.88 106.8 820.39 106.72 823.39 78.38 792.25 78.84"/><polygon class="cls-10" points="797.38 84.03 818.95 83.28 817.07 101.84 799 101.66 797.38 84.03"/><polygon class="cls-6" points="800.25 86.65 801.25 99.16 814.57 99.16 815.82 86.53 800.25 86.65"/><polygon class="cls-10" points="738.44 84.05 745.23 98.47 736.58 113.44 719.85 113.81 709.26 99.88 717.52 83.13 738.44 84.05"/><polygon class="cls-5" points="687.59 168.74 674.33 183.49 698.47 191.87 794 200.75 819.39 193.5 768.24 167.99 687.59 168.74"/><polygon class="cls-6" points="752.61 190.99 772.62 176.99 802.88 176.49 804.63 239.51 757.61 238.01 752.61 190.99"/><polygon class="cls-7" points="792.96 185.16 772.62 176.99 802.88 176.49 804.63 239.51 794.29 245.84 792.96 185.16"/><polygon class="cls-7" points="768 184.99 743.11 176.82 780.15 176.32 782.29 239.34 769.64 245.68 768 184.99"/><polygon class="cls-6" points="709.26 184.99 715.26 172.99 763.12 179.66 762.78 232.01 709.76 217 709.26 184.99"/><polygon class="cls-6" points="689.63 214.13 693.34 173.74 720.1 172.99 714.93 231.84 689.63 214.13"/><polygon class="cls-7" points="700.43 224.84 704.82 173.86 715.26 172.99 710.1 231.84 700.43 224.84"/><polygon class="cls-8" points="708.26 159.99 673.08 170.66 674.33 183.49 719.35 182.12 773.12 185.74 819.39 193.5 822.14 180.82 759.74 161.74 708.26 159.99"/><polygon class="cls-8" points="722.27 220.5 724.27 192.5 752.11 194.33 753.28 230.34 722.27 220.5"/><polygon class="cls-7" points="743.98 125.68 673.08 170.66 715.76 166.82 734.36 154.86 743.98 125.68"/><polygon class="cls-7" points="822.14 180.82 757.03 126.64 753.11 163.49 770.95 170.32 822.14 180.82"/><polygon class="cls-6" points="715.6 166.99 770.95 170.32 757.03 126.64 743.98 125.68 715.6 166.99"/><polygon class="cls-8" points="744.28 232.84 752.45 225.5 871.66 237.18 870.32 268.85 742.94 263.52 744.28 232.84"/><polygon class="cls-9" points="599.22 194 752.45 225.5 749.61 246.51 704.59 272.85 597.39 218.5 599.22 194"/><polygon class="cls-7" points="483.51 146.11 482.26 177.24 489.14 177.24 490.01 146.23 483.51 146.11"/><polygon class="cls-7" points="585.22 154.65 579.88 202.5 589.88 204 593.55 155.82 585.22 154.65"/><polygon class="cls-7" points="479.01 113.64 480.18 126.81 489.35 125.64 489.01 122.31 483.01 122.89 482.43 116.06 488.68 114.97 488.43 111.22 479.01 113.64"/><path class="cls-7" d="M498.77,108.72l-6.75,2-.34,14.42,3.59-.58v-3.25l4.83-.59.92,3.67,4.67-.83Zm-3.09,8.75v-3.08l1.5-.25,1.5,3Z"/><polygon class="cls-7" points="597.43 131.23 591.68 128.98 594.18 119.35 588.18 116.97 585.67 132.48 596.55 135.48 597.43 131.23"/><path class="cls-7" d="M582.3,131.35l-.88-16.75-6.75-2.13-10.5,14,5.62,1.37,2.76-3.75,4.5,1.37-.38,4.26Zm-8.5-10.63,1.37-2,2.5.38-.37,2.75Z"/><path class="cls-7" d="M521,110l-3.5-5.88-11.26,2.75,2.5,15.76,5.88-.63-1.13-5.12L518.9,119l2-2.87-4.25-2.63Zm-8.38,1.38-.63-2.26,2.75-1.62.88,1.75Z"/><polygon class="cls-7" points="526.4 103.72 525.15 121.1 530.65 121.22 531.15 113.22 534.78 119.72 539.53 119.85 540.53 102.34 535.66 102.72 535.78 112.47 530.65 103.72 526.4 103.72"/><polygon class="cls-7" points="545.78 104.34 543.66 120.47 548.41 120.85 549.66 106.09 545.78 104.34"/><polygon class="cls-7" points="552.91 107.59 554.79 122.6 558.91 123.72 569.54 111.35 564.79 110.34 558.66 116.85 557.04 108.09 552.91 107.59"/></g><g id="land_copy" data-name="land copy"><polygon class="cls-7" points="21.68 249.18 173.27 209.63 194.22 211.81 200.5 203.97 290.44 184.83 495.02 185.24 709.6 242.13 749.61 246.51 779.12 262.52 900 264.85 835.31 310.86 631.57 321.53 261.43 349.54 70.36 307.53 21.68 249.18"/><polygon class="cls-12" points="141.39 245.01 125.63 242.76 82.61 237.01 89.62 231.01 129.13 220.5 141.39 245.01"/><polygon class="cls-6" points="87.7 260.18 58.35 261.51 21.68 249.18 0 289.52 70.36 307.53 87.7 260.18"/><polygon class="cls-13" points="78.36 291.52 58.35 261.51 129.05 242.18 134.05 257.51 87.7 272.19 78.36 291.52"/><polygon class="cls-10" points="387.48 199.16 355.96 194 353.09 184.96 495.18 184.49 466.26 196 387.48 199.16"/><polygon class="cls-7" points="461 206.5 466.26 196 355.96 194 331.79 215.5 402.98 239.51 460.5 218 461 206.5"/><polygon class="cls-13" points="628.82 245.76 626.57 239.01 566.54 218.13 543.78 217.25 531.53 219.5 560.04 253.01 628.82 245.76"/><polygon class="cls-13" points="444.5 224 418.49 214.84 466.26 196 487.98 192.79 486.26 206.75 470.01 218.5 444.5 224"/><polygon class="cls-14" points="466.26 196 495.18 184.49 510.98 189.12 486.26 206.75 466.26 196"/><polygon class="cls-13" points="549.04 229.51 626.57 239.01 765.28 276.85 604.06 265.52 549.04 229.51"/><polygon class="cls-14" points="418.49 214.84 470.01 218.5 493.27 220 526.28 253.51 450.5 243.51 418.49 214.84"/><polygon class="cls-13" points="525.53 240.01 448.17 241.84 410.49 264.02 536.03 271.02 566.54 248.01 525.53 240.01"/><polygon class="cls-6" points="900 264.85 798.13 264.35 765.28 276.85 717.27 279.52 731.94 312.86 834.64 339.2 900 264.85"/><polygon class="cls-14" points="614.56 262.18 632.07 253.51 765.28 276.85 752.61 285.52 741.27 316.87 620.56 312.2 614.56 262.18"/><polygon class="cls-6" points="729.27 317.53 765.28 276.85 835.31 310.86 834.64 339.2 729.27 317.53"/><polygon class="cls-13" points="619.9 294.19 631.57 321.53 834.64 339.2 765.28 276.85 619.9 294.19"/><polygon class="cls-14" points="559.21 262.18 528.03 259.01 377.14 254.85 300.44 274.85 503.85 319.53 559.21 262.18"/><polygon class="cls-13" points="350.96 285.02 377.14 254.85 317.37 235.01 290.44 239.51 218.41 254.01 284.94 302.03 350.96 285.02"/><polygon class="cls-14" points="575.55 206.25 566.54 218.13 531.53 219.5 548.04 199 575.55 206.25"/><polygon class="cls-7" points="685.84 258.01 749.61 246.51 900 264.85 765.28 276.85 685.84 258.01"/><polygon class="cls-10" points="651.45 226 625.32 238.51 685.84 258.01 749.61 246.51 709.6 241.26 651.45 226"/><polygon class="cls-7" points="575.17 206.25 613.44 215.25 651.45 226 625.32 238.51 566.54 218.13 575.17 206.25"/><polygon class="cls-3" points="302.95 217.67 349.71 229.01 377.14 254.85 317.37 235.01 302.61 224.5 302.95 217.67"/><polygon class="cls-6" points="452.5 241.84 418.49 214.84 331.79 215.5 275.77 223.17 377.14 254.85 425.16 256.51 452.5 241.84"/><polygon class="cls-10" points="355.96 194 331.79 215.5 304.45 221.25 298.19 198.25 303.2 194 355.96 194"/><polygon class="cls-13" points="269.93 215.25 262.28 206.88 238.92 196.75 184.9 198.5 272.43 230.26 269.93 215.25"/><polygon class="cls-14" points="58.35 261.51 70.36 307.53 110.37 326.54 87.7 272.19 58.35 261.51"/></g><g id="road_copy" data-name="road copy"><polygon class="cls-15" points="631.57 321.53 272.04 258.96 295.11 238.18 179.28 196 173.27 209.63 203.74 230.84 87.7 272.19 110.37 326.54 261.35 350 631.57 321.53"/><polygon class="cls-16" points="514.52 200.5 470.01 218.5 528.03 259.01 465.01 294.52 631.57 321.53 632.07 253.51 531.53 219.5 526.86 209.5 514.52 200.5"/><polygon class="cls-3" points="514.52 200.5 470.01 218.5 528.03 259.01 632.07 253.51 531.53 219.5 526.86 209.5 514.52 200.5"/><polygon class="cls-4" points="510.98 189.12 470.01 218.5 531.53 219.5 548.04 199 510.98 189.12"/><polygon class="cls-16" points="501.52 293.52 467.51 292.52 256.93 349.54 631.57 321.53 501.52 293.52"/><polygon class="cls-3" points="272.04 258.96 87.7 272.19 110.37 326.54 256.93 349.54 467.51 292.52 272.04 258.96"/><polygon class="cls-4" points="203.74 230.84 267.43 227 294.94 242.51 272.04 258.96 87.7 272.19 203.74 230.84"/></g><g id="flowers_copy" data-name="flowers copy"><polygon class="cls-17" points="748.19 324.03 762.78 320.62 777.71 324.62 762.12 329.95 748.19 324.03"/><polygon class="cls-6" points="762.07 311.78 760.44 316.8 761.5 325.54 763.21 325.54 766.33 310.46 762.07 311.78"/><polygon class="cls-8" points="764.4 302.95 775.61 304.27 760.44 316.8 747.44 300.61 764.4 302.95"/><polygon class="cls-18" points="747.44 300.61 765.32 298.2 775.61 304.27 759.92 310.2 747.44 300.61"/><polygon class="cls-19" points="764.66 301.23 753.61 301.86 761.1 306.64 769.67 304.27 764.66 301.23"/><polygon class="cls-17" points="429.54 247.47 420 245.23 410.23 247.85 420.43 251.34 429.54 247.47"/><polygon class="cls-7" points="420.46 239.45 421.53 242.73 420.84 248.45 419.71 248.45 417.67 238.59 420.46 239.45"/><polygon class="cls-8" points="418.94 233.67 411.6 234.53 421.53 242.73 430.03 232.14 418.94 233.67"/><polygon class="cls-18" points="430.03 232.14 422.53 230.65 411.6 234.53 421.87 238.41 430.03 232.14"/><polygon class="cls-19" points="422.28 232 426 232.96 421.1 236.09 415.49 234.53 422.28 232"/><polygon class="cls-17" points="389.56 245.29 380.87 243.25 371.98 245.64 381.27 248.82 389.56 245.29"/><polygon class="cls-7" points="381.3 237.99 382.27 240.98 381.64 246.19 380.62 246.19 378.76 237.21 381.3 237.99"/><polygon class="cls-8" points="379.91 232.73 373.23 233.52 382.27 240.98 388.23 235.84 379.91 232.73"/><polygon class="cls-18" points="388.23 235.84 379.36 229.9 373.23 233.52 382.58 237.05 388.23 235.84"/><polygon class="cls-19" points="379.75 231.71 384.56 234.92 381.87 234.93 376.77 233.52 379.75 231.71"/><polygon class="cls-17" points="404.28 234.89 398.29 233.49 392.17 235.13 398.57 237.32 404.28 234.89"/><polygon class="cls-7" points="398.58 229.87 399.25 231.92 398.82 235.51 398.12 235.51 396.83 229.32 398.58 229.87"/><polygon class="cls-8" points="397.63 226.24 393.03 226.78 399.25 231.92 404.58 225.28 397.63 226.24"/><polygon class="cls-18" points="404.58 225.28 397.25 224.29 393.03 226.78 399.47 229.22 404.58 225.28"/><polygon class="cls-19" points="397.52 225.54 402.05 225.79 398.98 227.75 395.46 226.78 397.52 225.54"/><polygon class="cls-17" points="369.76 227.89 363.78 226.49 357.66 228.13 364.05 230.31 369.76 227.89"/><polygon class="cls-7" points="364.07 222.86 364.74 224.92 364.31 228.51 363.6 228.51 362.32 222.32 364.07 222.86"/><polygon class="cls-8" points="363.12 219.24 358.52 219.78 364.74 224.92 370.07 218.28 363.12 219.24"/><polygon class="cls-18" points="370.07 218.28 362.74 217.29 358.52 219.78 364.95 222.21 370.07 218.28"/><polygon class="cls-19" points="363.01 218.53 367.54 218.79 364.47 220.75 360.95 219.78 363.01 218.53"/><polygon class="cls-17" points="387.86 224.9 384.27 224.06 380.61 225.05 384.44 226.36 387.86 224.9"/><polygon class="cls-6" points="384.45 221.89 384.85 223.12 384.59 225.27 384.17 225.27 383.4 221.57 384.45 221.89"/><polygon class="cls-8" points="383.87 219.72 381.12 220.04 384.85 223.12 388.04 219.15 383.87 219.72"/><polygon class="cls-18" points="388.04 219.15 384.16 217.97 381.12 220.04 384.98 221.5 388.04 219.15"/><polygon class="cls-19" points="384.11 218.72 386.52 219.45 384.68 220.63 382.58 220.04 384.11 218.72"/><polygon class="cls-20" points="422.28 225.31 417.69 224.23 413 225.49 417.9 227.17 422.28 225.31"/><polygon class="cls-6" points="417.91 221.46 418.43 223.03 418.09 225.78 417.55 225.78 416.57 221.04 417.91 221.46"/><polygon class="cls-8" points="417.18 218.68 413.66 219.09 418.43 223.03 422.51 217.94 417.18 218.68"/><polygon class="cls-18" points="422.51 217.94 417.37 216.24 413.66 219.09 418.59 220.96 422.51 217.94"/><polygon class="cls-19" points="417.51 217.34 420.57 218.34 418.22 219.84 415.52 219.09 417.51 217.34"/><polygon class="cls-17" points="683.37 286.13 691.84 284.14 700.49 286.46 691.45 289.56 683.37 286.13"/><polygon class="cls-6" points="691.42 279.02 690.48 281.93 691.09 287 692.08 287 693.89 278.26 691.42 279.02"/><polygon class="cls-8" points="692.77 273.9 699.27 274.66 690.48 281.93 686.65 273.29 692.77 273.9"/><polygon class="cls-18" points="686.65 273.29 693.3 272.08 699.27 274.66 690.17 278.1 686.65 273.29"/><polygon class="cls-19" points="692.93 273.33 689.18 273.97 690.86 276.04 695.83 274.66 692.93 273.33"/><polygon class="cls-17" points="709.13 307.88 717.59 305.9 726.25 308.22 717.21 311.31 709.13 307.88"/><polygon class="cls-6" points="717.18 300.78 716.24 303.68 716.85 308.76 717.84 308.76 719.65 300.01 717.18 300.78"/><polygon class="cls-8" points="718.53 295.65 726.39 295.09 716.24 303.68 711.85 296.02 718.53 295.65"/><polygon class="cls-18" points="711.85 296.02 719.07 292.9 726.39 295.09 715.93 299.86 711.85 296.02"/><polygon class="cls-19" points="719.05 294.21 714.94 295.73 716.62 297.8 722.91 295.38 719.05 294.21"/><polygon class="cls-17" points="667.88 315.05 678.76 312.51 689.88 315.49 678.26 319.46 667.88 315.05"/><polygon class="cls-6" points="678.23 305.92 677.01 309.66 677.8 316.18 679.08 316.18 681.4 304.94 678.23 305.92"/><polygon class="cls-8" points="679.96 299.34 688.32 300.32 677.01 309.66 672.1 298.55 679.96 299.34"/><polygon class="cls-18" points="672.1 298.55 680.65 295.8 688.32 300.32 676.62 304.74 672.1 298.55"/><polygon class="cls-19" points="680.16 298.06 675.34 299.44 677.51 302.09 683.89 300.32 680.16 298.06"/><polygon class="cls-17" points="725.45 287.29 731.92 285.77 738.54 287.55 731.63 289.91 725.45 287.29"/><polygon class="cls-6" points="731.6 281.86 730.88 284.08 731.35 287.96 732.11 287.96 733.5 281.27 731.6 281.86"/><polygon class="cls-8" points="732.64 277.94 737.61 278.52 730.88 284.08 727.96 277.47 732.64 277.94"/><polygon class="cls-18" points="727.96 277.47 733.05 275.83 737.61 278.52 730.65 281.15 727.96 277.47"/><polygon class="cls-19" points="732.75 277.18 729.89 278 731.17 279.57 734.98 278.52 732.75 277.18"/><polygon class="cls-17" points="666.36 267.73 672.83 266.21 679.44 267.99 672.53 270.35 666.36 267.73"/><polygon class="cls-6" points="672.51 262.3 671.79 264.52 672.26 268.4 673.02 268.4 674.4 261.71 672.51 262.3"/><polygon class="cls-8" points="673.54 258.38 678.51 258.96 671.79 264.52 666.26 257.82 673.54 258.38"/><polygon class="cls-18" points="666.36 257.79 673.95 256.27 678.51 258.96 671.56 261.59 666.36 257.79"/><polygon class="cls-19" points="673.66 257.62 670.8 258.44 672.08 260.01 675.88 258.96 673.66 257.62"/></g><g id="_2nd_character_copy" data-name="2nd character copy"><polygon class="cls-20" points="88.11 313.81 173.8 300.94 244.9 312.17 171.68 325.62 88.11 313.81"/><polygon class="cls-21" points="79.31 234.62 68.93 236.14 71.18 247.97 83.41 251.67 85.33 241.96 84.86 237 90.15 241.93 93.28 238.81 89.09 229.51 79.31 234.62"/><polygon class="cls-22" points="84.86 220.43 76 223.38 68.93 236.14 85.33 241.96 89.09 229.51 84.86 220.43"/><polygon class="cls-21" points="96.41 193.78 86.58 192.31 76 223.38 89.09 229.51 103.24 205.53 96.41 193.78"/><polygon class="cls-23" points="222.43 196.68 223.82 200.25 227.42 201.83 236.97 198.73 237.83 191.72 222.63 192.05 222.43 196.68"/><polygon class="cls-24" points="130.71 296.52 130.86 309.8 125.11 311.61 114.89 283.13 120.76 280.69 130.71 296.52"/><polygon class="cls-25" points="145.02 286.48 138.08 292.51 130.86 309.8 120.76 280.69 131.63 276.1 145.02 286.48"/><polygon class="cls-24" points="187.19 300.19 205.97 306.01 207.29 311.82 180.32 318.04 177.94 312.22 187.19 300.19"/><polygon class="cls-25" points="173.18 285.12 189.84 293.58 205.97 306.01 177.94 312.22 174.37 300.85 173.18 285.12"/><polygon class="cls-26" points="159.06 276.93 160.22 284.33 138.08 292.51 131.63 276.1 148.12 264.19 159.06 276.93"/><polygon class="cls-26" points="158.46 230.48 179.79 229.77 177.5 264.67 148.94 259.74 158.46 230.48"/><polygon class="cls-26" points="159.52 262.91 180.05 267.93 189.84 293.58 174.37 300.85 160.22 284.33 159.52 262.91"/><polygon class="cls-27" points="228.05 187.95 202.79 182.27 176.35 185.84 179 199.59 223.82 200.25 228.05 187.95"/><polygon class="cls-28" points="170.45 211.44 180.32 223.78 179.79 229.77 163.75 245.64 151.76 254.8 123.91 229.77 170.45 211.44"/><polygon class="cls-24" points="169.94 158.09 179.32 147.58 202.79 182.27 179.44 201.17 169.94 158.09"/><polygon class="cls-24" points="123.31 173.01 104.17 159.77 86.58 192.31 108.04 208.58 116.15 198.71 123.31 173.01"/><polygon class="cls-25" points="133.01 151.33 114.91 150.48 104.17 159.77 116.15 198.71 154.67 216.38 182.34 192.81 179.32 147.58 168.74 142.59 133.01 151.33"/><polygon class="cls-24" points="116.15 198.71 123.91 229.77 180.32 223.78 182.34 192.81 116.15 198.71"/><polygon class="cls-24" points="126.06 138.78 122.65 144.25 114.91 150.48 154.88 169.41 168.74 142.59 155.69 137.47 126.06 138.78"/><polygon class="cls-21" points="110.44 119.69 112.11 125.27 121.69 145.03 152.89 159.36 156.19 151.83 134.66 53.37 114.04 72.13 111.39 107.8 110.44 119.69"/><polygon class="cls-29" points="156.19 151.83 167.56 126.78 127.97 140.63 156.19 151.83"/><polygon class="cls-29" points="110.62 110.54 106.89 114.56 112.11 125.27 119.74 111.02 110.62 110.54"/><polygon class="cls-26" points="147.77 63.8 118.4 42.58 105.26 58.1 124.73 65.23 147.77 63.8"/><polygon class="cls-30" points="104.24 85.39 91.21 77.88 105.26 58.1 124.73 65.23 110.62 87.66 104.24 85.39"/><polygon class="cls-31" points="118.4 81.26 121.02 71.12 91.21 77.88 99.76 98.44 114.04 104.75 124.13 102.89 118.4 81.26"/><polygon class="cls-22" points="114.19 94.75 99.76 98.44 106.89 114.56 119.74 111.02 114.19 94.75"/><polygon class="cls-26" points="142.88 56 144.9 42.58 156.19 42.58 175.19 53.37 157.23 75.92 142.88 56"/><path class="cls-30" d="M139,69.42c0-.43-5.47-10.09-5.47-10.09L118.4,42.57h26.5l12.33,24.2Z"/><polygon class="cls-22" points="137.82 137.19 190.25 126.71 181.06 57.28 175.19 53.37 166.36 55.06 157.23 66.77 133.53 59.33 124.73 65.23 137.82 137.19"/><polygon class="cls-29" points="106.56 100.78 111 99.41 112.94 106.37 106.56 100.78"/><line class="cls-32" x1="157.23" y1="106.63" x2="166.36" y2="105.58"/><polygon class="cls-21" points="167.55 79.46 179.6 78.67 177.47 82.1 181.44 83.21 173.81 86.84 171.21 96.86 186.17 96.04 169.75 100.14 169.14 102.36 166.29 104.28 157.95 103.59 156.21 101.54 136.66 103.32 153.5 98.34 146.06 89.58 137.89 88.17 142.66 85.97 139.6 83.02 150.3 81.96 155.18 83.51 155.43 86.19 159.54 90.2 165.52 85.03 165.55 82.2 167.55 79.46"/><polygon class="cls-29" points="163.2 101.82 169.14 102.36 164.77 107.34 157.95 103.59 163.2 101.82"/><polygon class="cls-32" points="165.52 85.03 169.14 102.36 157.95 103.59 155.43 86.19 165.52 85.03"/><polygon class="cls-31" points="169.28 76.71 179.6 78.67 165.55 82.2 169.28 76.71"/><polygon class="cls-31" points="155.18 83.51 147.72 78.69 139.6 83.02 155.18 83.51"/><path class="cls-31" d="M172.67,89.86a3,3,0,1,0,2.59-3.42A3,3,0,0,0,172.67,89.86Z"/><path class="cls-31" d="M147.91,92.56a3,3,0,1,0,2.59-3.42A3,3,0,0,0,147.91,92.56Z"/><polygon class="cls-29" points="176.62 109.74 149.75 114.44 157.25 125.26 174.8 122.2 176.62 109.74"/><polygon class="cls-33" points="133.59 85.99 155.18 83.51 155.43 86.19 137.89 88.17 139.66 99.02 156.86 96.29 157.42 99.86 136.66 103.32 133.59 85.99"/><polygon class="cls-33" points="167.64 95.2 182.85 93.4 181.44 83.21 165.52 85.03 165.55 82.2 184.05 80.05 186.17 96.04 168.35 98.78 167.64 95.2"/><polygon class="cls-34" points="153.35 115.73 174.15 112.07 173.58 116.21 155.76 119.36 153.35 115.73"/><polygon class="cls-35" points="163.75 245.64 180.05 267.93 160.22 284.33 124.05 259.51 123.91 229.77 163.75 245.64"/></g><g id="main_character_copy" data-name="main character copy"><polygon class="cls-36" points="234.75 200 227.42 201.83 231.72 208.94 239.5 208 234.75 200"/><polygon class="cls-37" points="237.59 191.16 234.38 191.37 227.42 201.83 239.5 208 244.76 196.31 237.59 191.16"/><polygon class="cls-36" points="259.14 164.15 250.38 166.49 234.19 191.56 244.76 196.31 260.64 179.24 259.14 164.15"/><polygon class="cls-38" points="225.35 195.87 227.89 187.99 235.88 187.13 242.76 189.81 241.19 192.56 234.24 191.6 229.5 196 225.35 195.87"/><polygon class="cls-39" points="376.06 112.97 380.72 118.81 379.72 122.81 371.89 123.64 372.39 117.97 376.06 112.97"/><polygon class="cls-36" points="362.72 128.14 366.05 119.89 372.76 110.93 384.48 106.84 386.39 108.8 377.35 114.47 370.39 129.31 362.72 128.14"/><polygon class="cls-36" points="334.04 141.98 343.29 132.23 366.05 119.89 370.39 129.31 346.3 147.98 334.04 141.98"/><polygon class="cls-37" points="304.28 160.74 316.8 135.37 343.29 132.23 346.3 147.98 314.03 160.61 304.28 160.74"/><polygon class="cls-40" points="278.02 192.87 278.69 187.21 296.86 191.33 306.28 207.37 309.16 228.25 278.02 192.87"/><polygon class="cls-20" points="231.49 295.02 312.53 282.86 379.78 293.47 310.53 306.19 231.49 295.02"/><polygon class="cls-41" points="292.85 295.69 269.21 295.19 268.2 288.14 279.43 288.14 292.85 295.69"/><polygon class="cls-37" points="277.48 141.99 250.38 166.49 260.64 179.24 278.13 169.37 279.61 149.42 277.48 141.99"/><polygon class="cls-41" points="341.46 283.5 317.23 281.45 317.23 274.24 330.6 278.11 341.46 283.5"/><polygon class="cls-5" points="291.86 250.97 306.78 250.14 301.65 226.63 285.03 228.22 291.86 250.97"/><polygon class="cls-37" points="327.23 263.32 342.27 280.52 339.34 281.12 335.58 280.95 323.45 276.62 319.69 272.35 319.84 267.32 320.4 259.01 327.23 263.32"/><polygon class="cls-36" points="317.37 235.01 327.23 263.32 319.84 267.32 306.78 250.14 308.72 232.13 317.37 235.01"/><polygon class="cls-37" points="279.61 269.29 278.48 278.88 293.75 292.74 290.25 293.93 276.14 290.55 270.45 286.51 269.23 280.33 279.61 269.29"/><polygon class="cls-36" points="285.72 263.79 278.48 278.88 269.23 280.33 272.04 258.96 275.63 252.67 285.72 263.79"/><polygon class="cls-39" points="272.19 258.9 285.72 263.79 291.86 250.97 280.07 247.48 272.19 258.9"/><polygon class="cls-39" points="299.53 241.13 306.78 250.14 317.37 235.01 303.48 230.94 299.53 241.13"/><polygon class="cls-37" points="277.36 141.62 316.8 135.37 304.47 155.3 277.36 141.62"/><polygon class="cls-8" points="277.36 141.62 278.13 169.37 297.05 160.19 304.31 152.4 277.36 141.62"/><polygon class="cls-8" points="304.31 152.4 316.8 135.37 327.1 167.41 310.53 162.48 304.31 152.4"/><polygon class="cls-41" points="278.13 169.37 278.69 187.21 306.28 207.37 327.1 167.41 304.31 152.4 278.13 169.37"/><polygon class="cls-40" points="280.52 196.28 317.37 235.01 290.84 251.39 282.55 249.99 262.28 206.88 280.52 196.28"/><polygon class="cls-18" points="262.28 206.88 291.86 250.97 272.04 258.96 262.28 206.88"/><polygon class="cls-42" points="261.01 130.98 285.95 127.29 281.74 106.22 261.01 130.98"/><polygon class="cls-43" points="242.67 76.38 231.32 104.31 254.23 93.54 242.67 76.38"/><polygon class="cls-42" points="357.07 75.66 358.78 87.56 342.15 90.11 342.02 70.44 357.07 75.66"/><polygon class="cls-44" points="346.74 51.44 363.25 69.67 350.34 76.31 344.11 73.66 338.71 58.09 346.74 51.44"/><polygon class="cls-45" points="363.25 69.67 344.11 73.66 335.53 81.37 342.15 90.11 363.25 69.67"/><polygon class="cls-45" points="231.32 104.31 265.08 112.61 280.7 111.19 277.61 92.94 266.62 80.57 231.32 104.31"/><polygon class="cls-5" points="340.02 78.99 348.95 96.64 337.12 103.44 337.95 96.39 341.08 94.55 338.74 89.79 337.03 86.11 340.02 78.99"/><polygon class="cls-37" points="275.71 95.84 283.96 117.2 295.13 136.16 308.18 134.44 313.94 123.92 337.84 126.46 346.74 51.44 294.95 75.44 275.71 95.84"/><polygon class="cls-36" points="299.12 90.87 298.11 123.39 313.94 123.92 307.15 136.19 307.83 143.98 290.86 143.09 280.7 111.19 280.92 105.44 275.71 95.84 290.62 77.58 299.12 90.87"/><polygon class="cls-36" points="332 71.52 330.06 73.74 328.25 89.16 336.91 77.97 340.29 73.71 332 71.52"/><polygon class="cls-36" points="324.96 73.11 320.72 69.94 309.43 71.88 318.81 83.29 321.83 93.84 324.96 73.11"/><polygon class="cls-39" points="290.61 103.17 280.7 111.19 275.71 95.84 284.05 83.09 295.45 89.71 290.61 103.17"/><polygon class="cls-46" points="324.96 73.11 330.06 73.74 327.63 94.51 321.83 93.84 324.96 73.11"/><polygon class="cls-39" points="321.83 93.84 324.43 97.7 327.63 94.51 321.83 93.84"/><polygon class="cls-39" points="346.17 56.28 299.12 93.62 289.66 94.89 291.46 85.86 320.72 69.94 346.74 51.44 346.17 56.28"/><polygon class="cls-44" points="260.4 70.15 255.93 63.52 225.74 62.02 258.13 108.04 270.01 92.33 269.82 81.58 260.4 70.15"/><polygon class="cls-43" points="251.71 75.84 225.74 62.02 266.46 49.48 264.34 65.08 251.71 75.84"/><polygon class="cls-44" points="315.98 33.71 278.52 27.91 251.71 75.84 291.86 55.42 315.98 33.71"/><polygon class="cls-42" points="333.44 65.93 340.29 73.71 332 71.52 333.44 65.93"/><polygon class="cls-5" points="304.31 99.98 324.21 99.17 336.58 104.78 321.42 119.77 304.31 99.98"/><polygon class="cls-47" points="314.45 107.28 320.86 103.64 328.22 109.33 324.28 113.31 319.07 112.57 314.45 107.28"/><polygon class="cls-48" points="314.45 107.28 328.22 109.33 332.16 105.34 309.83 101.98 314.45 107.28"/><polygon class="cls-5" points="292.51 88.78 290.61 103.17 270.86 101 271.28 97.65 275.71 95.84 285.87 96.81 286.54 91.29 292.51 88.78"/><polygon class="cls-39" points="313.94 123.92 292.6 121.42 307.83 143.98 313.94 123.92"/><polygon class="cls-42" points="269.82 81.58 258.13 108.04 292.51 88.78 283.36 80.8 269.82 81.58"/><path class="cls-49" d="M338.52,80.78a3,3,0,1,1-3.59-2.4A3,3,0,0,1,338.52,80.78Z"/><path class="cls-49" d="M319.58,78.39A3,3,0,1,1,316,76,3,3,0,0,1,319.58,78.39Z"/><polygon class="cls-45" points="354.65 44.89 299.12 90.87 251.71 75.84 300.04 59.31 354.65 44.89"/><polygon class="cls-50" points="354.65 44.89 330.26 24.35 251.71 75.84 354.65 44.89"/><polygon class="cls-51" points="231.32 104.31 280.7 111.19 261.01 130.98 231.32 104.31"/><polygon class="cls-36" points="269.23 280.33 276.14 290.55 296.89 292.06 292.85 295.69 268.2 288.14 269.23 280.33"/><polygon class="cls-8" points="286.41 286.07 282.54 292.53 285.72 293.5 288.94 288.37 286.41 286.07"/><polygon class="cls-36" points="319.84 267.32 323.45 276.62 345.39 279.75 341.46 283.5 317.23 274.24 319.84 267.32"/><polygon class="cls-8" points="335.24 272.48 331.01 279.51 333.75 280.56 337.52 275.09 335.24 272.48"/><polygon class="cls-19" points="317.37 235.01 262.28 206.88 278.69 187.21 317.37 235.01"/><polygon class="cls-37" points="366.05 119.89 374.22 121.56 380.96 121.66 381.84 123.76 377.18 126.39 370.39 129.31 366.05 119.89"/><polygon class="cls-36" points="237.88 198.43 244.76 196.31 242.07 206.69 239.5 208 237.88 198.43"/></g></g></svg>