<svg xmlns="http://www.w3.org/2000/svg" viewBox="0 0 900 350"><defs><style>.cls-1{fill:#dddddc;}.cls-1,.cls-10,.cls-11,.cls-12,.cls-13,.cls-14,.cls-15,.cls-16,.cls-17,.cls-18,.cls-19,.cls-2,.cls-20,.cls-21,.cls-22,.cls-23,.cls-24,.cls-25,.cls-26,.cls-27,.cls-28,.cls-29,.cls-3,.cls-30,.cls-31,.cls-32,.cls-33,.cls-34,.cls-35,.cls-36,.cls-37,.cls-38,.cls-39,.cls-4,.cls-40,.cls-41,.cls-42,.cls-43,.cls-44,.cls-45,.cls-46,.cls-5,.cls-6,.cls-7,.cls-8,.cls-9{fill-rule:evenodd;}.cls-2{fill:#ececeb;}.cls-3,.cls-38{fill:#2b2b2b;}.cls-3{opacity:0.1;}.cls-4{fill:#737474;}.cls-5{fill:#858686;}.cls-6{fill:#bb8e2d;}.cls-7{fill:#e1a842;}.cls-8{fill:#f1bc68;}.cls-9{fill:#cfcecd;}.cls-10{fill:#c4c4c3;}.cls-11{fill:#bfbfbf;}.cls-12{fill:#9d7700;}.cls-13{fill:#755800;}.cls-14{fill:#707274;}.cls-15{fill:#4f5253;}.cls-16{fill:#846400;}.cls-17{fill:#848585;}.cls-18{fill:#c2977b;}.cls-19{fill:#debca4;}.cls-20{fill:#8a6651;}.cls-21{fill:#fff;}.cls-22{fill:#e7c9b5;}.cls-23,.cls-25{fill:#2a2b2a;}.cls-24{fill:#f3d65d;}.cls-25{opacity:0.2;}.cls-26{fill:#696b6d;}.cls-27{fill:#9fa0a0;}.cls-28{fill:#cdcccb;}.cls-29{fill:#393939;}.cls-30{fill:#454849;}.cls-31{fill:#6d6e6e;}.cls-32{fill:#818281;}.cls-33{fill:#484748;}.cls-34{fill:#573a2f;}.cls-35{fill:#33231b;}.cls-36{fill:#6f7173;}.cls-37{fill:#754f40;}.cls-39{fill:#474747;}.cls-40{fill:#7f5a4b;}.cls-41{fill:#9ca0a1;}.cls-42{fill:#906a59;}.cls-43{fill:#66483a;}.cls-44{fill:#b08c79;}.cls-45{fill:#b99d8d;}.cls-46{fill:#a3a2a2;}</style></defs><title>explorers_Adventurer_ISFP_conclusion</title><g id="ILLUSTRATION_copy" data-name="ILLUSTRATION copy"><g id="cloudd_copy" data-name="cloudd copy"><polygon class="cls-1" points="80.32 8.82 23.11 22.45 86.2 46.91 105.11 39.49 145.06 50.58 206.67 24.05 165.19 12.23 116.56 23.85 80.32 8.82"/><polygon class="cls-2" points="206.67 24.05 166.14 4.21 131.28 10.49 83.34 0 23.11 22.45 82.86 15.84 131.5 34.08 172.02 19.24 206.67 24.05"/><polygon class="cls-1" points="599.61 47.56 562.24 61.9 531.88 46.56 470.81 55.9 513.86 81.57 545.89 75.23 594.27 84.91 666.01 56.9 599.61 47.56"/><polygon class="cls-2" points="666.01 56.9 603.95 38.55 566.58 47.23 523.87 36.89 470.81 55.9 522.2 56.23 585.6 70.57 617.29 56.9 666.01 56.9"/></g><g id="trees_copy" data-name="trees copy"><polygon class="cls-3" points="583.82 232.59 589.89 230.26 595.99 231.78 590.23 234.47 583.82 232.59"/><polygon class="cls-4" points="589.63 226.63 593.38 223.66 593.63 216.88 592.01 217.56 592.27 222.73 589.41 225.95 589.63 226.63"/><polygon class="cls-4" points="583.08 217.2 583.28 218.74 585 223.15 588.55 225.12 588.1 223.57 585.92 222.68 585.68 219.71 583.08 217.2"/><polygon class="cls-5" points="589.31 216.87 590.39 222.14 590.76 232.56 589.42 232.58 586.45 218.35 589.31 216.87"/><polygon class="cls-6" points="583.7 203.22 576.69 208.12 582.25 218.86 590.39 222.14 594.24 217.04 597.24 206.67 583.7 203.22"/><polygon class="cls-7" points="584.68 192.19 579.39 197.32 576.69 208.12 586.18 214.12 597.24 206.67 592.44 195.16 584.68 192.19"/><polygon class="cls-8" points="582.14 178.06 579.39 197.32 588.18 208.03 592.44 195.16 582.14 178.06"/><polygon class="cls-3" points="611.1 249.85 617.17 247.52 623.26 249.04 617.51 251.73 611.1 249.85"/><polygon class="cls-4" points="616.9 243.88 620.66 240.92 620.91 234.14 619.29 234.82 619.54 239.99 616.69 243.21 616.9 243.88"/><polygon class="cls-4" points="610.35 234.45 610.56 236 612.27 240.4 615.83 242.37 615.38 240.82 613.2 239.93 612.96 236.96 610.35 234.45"/><polygon class="cls-5" points="616.59 234.12 617.67 239.4 618.04 249.82 616.7 249.84 613.73 235.61 616.59 234.12"/><polygon class="cls-6" points="610.98 220.48 603.97 225.38 609.53 236.11 617.67 239.4 621.51 234.3 624.52 223.93 610.98 220.48"/><polygon class="cls-7" points="611.96 209.45 606.67 214.58 603.97 225.38 613.46 231.37 624.52 223.93 619.71 212.41 611.96 209.45"/><polygon class="cls-8" points="609.42 195.32 606.67 214.58 615.46 225.29 619.71 212.41 609.42 195.32"/><polygon class="cls-3" points="322.71 231.36 331.94 229.81 340.1 233.69 331.21 235.84 322.71 231.36"/><polygon class="cls-4" points="332.6 224.6 338.74 221.49 341.03 212 338.55 212.5 337.44 219.87 332.49 223.59 332.6 224.6"/><polygon class="cls-4" points="326.06 209.43 325.9 211.67 327.07 218.37 331.52 222.16 331.33 219.85 328.51 217.97 329.02 213.71 326.06 209.43"/><polygon class="cls-5" points="334.95 210.75 334.96 218.5 332.51 233.3 330.61 232.94 330.49 212.03 334.95 210.75"/><polygon class="cls-6" points="330.93 189.9 319.65 194.81 324.42 211.54 334.96 218.5 341.84 212.4 349.05 198.64 330.93 189.9"/><polygon class="cls-7" points="335.47 174.63 326.54 180.35 319.65 194.81 331.32 205.98 349.05 198.64 345.56 181.02 335.47 174.63"/><polygon class="cls-8" points="335.93 153.98 326.54 180.35 335.88 197.97 345.56 181.02 335.93 153.98"/><polygon class="cls-3" points="814.09 239.3 820.45 240.68 824.71 245.28 818.42 244.38 814.09 239.3"/><polygon class="cls-4" points="822.22 237.49 826.98 237.06 830.91 231.53 829.18 231.21 826.56 235.68 822.41 236.81 822.22 237.49"/><polygon class="cls-4" points="821.91 226.01 821.23 227.41 820.25 232.04 822.15 235.63 822.62 234.09 821.28 232.16 822.71 229.54 821.91 226.01"/><polygon class="cls-5" points="827.31 229.15 825.32 234.16 819.91 243.08 818.78 242.36 824.1 228.83 827.31 229.15"/><polygon class="cls-6" points="830.09 214.66 821.54 214.92 820.31 226.95 825.32 234.16 831.33 232 839.53 224.97 830.09 214.66"/><polygon class="cls-7" points="836.96 205.97 829.72 207.37 821.54 214.92 827.68 227.21 839.53 224.97 841.82 212.7 836.96 205.97"/><polygon class="cls-8" points="842.58 192.77 829.72 207.37 832.18 216.45 841.82 212.7 842.58 192.77"/><polygon class="cls-3" points="567.26 235.98 571.56 234.43 575.84 235.38 571.76 237.16 567.26 235.98"/><polygon class="cls-4" points="571.39 232.08 574.05 230.13 574.27 225.74 573.13 226.19 573.27 229.54 571.25 231.64 571.39 232.08"/><polygon class="cls-4" points="566.84 226.01 566.97 227.01 568.15 229.85 570.64 231.1 570.34 230.1 568.81 229.54 568.66 227.62 566.84 226.01"/><polygon class="cls-5" points="571.23 225.76 571.96 229.17 572.15 235.92 571.21 235.94 569.21 226.74 571.23 225.76"/><polygon class="cls-6" points="567.37 216.95 562.4 220.17 566.25 227.09 571.96 229.17 574.7 225.84 576.88 219.1 567.37 216.95"/><polygon class="cls-7" points="568.13 209.8 564.37 213.16 561.91 221.29 568.2 223.34 576.88 219.1 573.57 211.67 568.13 209.8"/><polygon class="cls-8" points="571.08 195.36 564.37 213.16 571.01 217.24 573.57 211.67 571.08 195.36"/><polygon class="cls-3" points="52.95 259.66 59.31 257.36 65.67 258.76 59.62 261.41 52.95 259.66"/><polygon class="cls-4" points="59.07 253.87 63.02 250.98 63.34 244.47 61.64 245.14 61.86 250.1 58.85 253.22 59.07 253.87"/><polygon class="cls-4" points="52.31 244.87 52.51 246.35 54.26 250.57 57.96 252.43 57.51 250.94 55.24 250.11 55.01 247.25 52.31 244.87"/><polygon class="cls-5" points="58.83 244.49 59.91 249.55 60.2 259.57 58.8 259.6 55.83 245.95 58.83 244.49"/><polygon class="cls-6" points="53.1 231.43 45.73 236.2 51.44 246.47 59.91 249.55 63.98 244.61 67.22 234.62 53.1 231.43"/><polygon class="cls-7" points="54.23 220.82 48.65 225.8 45.73 236.2 56.95 241.1 67.22 234.62 62.3 223.59 54.23 220.82"/><polygon class="cls-8" points="53.98 205.48 48.65 225.8 55.46 237.64 62.3 223.59 53.98 205.48"/></g><g id="land_copy" data-name="land copy"><polygon class="cls-9" points="743.59 246.96 808.66 218.2 900 275.47 797.9 280.98 743.59 246.96"/><polygon class="cls-2" points="788.89 261.47 786.88 252.72 808.66 218.2 739.59 205.7 715.81 231.71 770.87 279.23 788.89 261.47"/><polygon class="cls-10" points="844.94 279.23 832.93 268.47 786.88 252.72 738.84 237.21 737.33 266.97 800.4 299.73 844.94 279.23"/><polygon class="cls-1" points="787.13 252.8 900 275.47 857.54 300.98 777.13 311.65 768.45 262.8 787.13 252.8"/><polygon class="cls-10" points="774.12 290.98 790.47 285.31 857.54 300.98 873.89 332.99 804.65 336 760.77 311.32 774.12 290.98"/><polyline class="cls-1" points="556.23 235.29 555.57 271.31 646.33 309.99 723.07 269.3 723.74 205.95 556.23 232.63"/><polygon class="cls-9" points="630.48 288.98 714.56 291.48 772.12 302.98 787.64 322.49 804.65 336 743.97 350 596.11 337.16 630.48 288.98"/><polygon class="cls-10" points="494.17 325.99 596.11 337.16 657 301.32 663.01 279.98 636.98 281.98 588.27 271.31 480.82 301.32 494.17 325.99"/><polygon class="cls-1" points="480.82 247.96 502.18 240.29 588.27 271.31 534.13 293.73 458.3 308.24 410.75 304.48 408.75 277.97 443.04 241.46 480.82 247.96"/><polygon class="cls-2" points="407.25 287.81 415.76 296.15 535.88 305.48 596.11 337.16 267.11 349.75 233.91 305.65 407.25 287.81"/><polygon class="cls-2" points="395.74 277.97 410.75 241.96 382.22 230.96 300.56 226.5 288.13 257.97 395.74 277.97"/><polygon class="cls-1" points="357.7 304.48 396.65 298.65 418.26 272.97 415.26 241.46 403.24 233.96 381.85 231.08 298.64 260.47 312.65 311.99 357.7 304.48"/><polygon class="cls-10" points="130.47 324.49 261.93 332.99 396.53 298.61 314.15 272.97 254.09 253.47 153.49 242.46 108.44 281.48 130.47 324.49"/><polygon class="cls-1" points="102.1 297.31 142.48 314.49 261.93 332.99 267.11 349.75 61.02 331.87 102.1 297.31"/><polygon class="cls-1" points="89.67 251.72 94.93 234.21 154.99 214.2 178.76 243.96 169.92 272.14 156.91 274.64 131.8 277.31 60.98 274.64 67.9 256.22 89.67 251.72"/><polygon class="cls-2" points="57.23 266.89 48.76 242.21 94.93 234.21 131.8 277.31 71.74 278.64 57.23 266.89"/><polygon class="cls-9" points="96.43 296.31 131.8 277.31 48.76 242.21 0 259.97 82.54 296.73 96.43 296.31"/><polygon class="cls-11" points="131.8 277.31 82.54 296.73 61.02 331.87 142.48 314.49 131.8 277.31"/><polygon class="cls-2" points="497.84 246.21 588.27 271.31 667.01 219.95 675.02 211.28 669.01 206.45 475.48 233.29 497.84 246.21"/></g><g id="trees_copy-2" data-name="trees copy"><polygon class="cls-3" points="783.6 225.65 805.25 223.34 824.01 232.57 803.12 236.21 783.6 225.65"/><polygon class="cls-4" points="807.14 212.25 821.69 206.25 827.7 186.15 821.87 186.94 818.76 202.62 806.96 210.06 807.14 212.25"/><polygon class="cls-4" points="792.93 178.98 792.42 183.75 794.67 198.27 804.79 206.9 804.51 201.91 798.06 197.57 799.54 188.49 792.93 178.98"/><polygon class="cls-5" points="813.59 182.78 813.09 199.41 806.33 230.91 801.92 229.93 803.09 185.03 813.59 182.78"/><polygon class="cls-6" points="805.66 137.6 779 146.88 788.97 183.31 813.09 199.41 829.55 187.09 847.32 158.34 805.66 137.6"/><polygon class="cls-7" points="817.3 105.33 796.08 116.62 779 146.88 802.28 168.12 847.32 158.34 840.41 120.16 817.3 105.33"/><polygon class="cls-8" points="819.81 61.06 796.08 116.62 822.23 143.07 840.41 120.16 819.81 61.06"/><polygon class="cls-3" points="65.2 244.38 81.91 238.38 98.56 242.06 82.71 248.98 65.2 244.38"/><polygon class="cls-4" points="63.58 205.6 64.09 209.49 68.68 220.55 78.37 225.43 77.19 221.54 71.23 219.35 70.65 211.86 63.58 205.6"/><polygon class="cls-5" points="80.68 204.63 81.75 210.7 84.23 244.16 80.55 244.23 72.79 208.44 80.68 204.63"/><polygon class="cls-6" points="65.66 170.37 48.59 180.62 61.28 209.8 74.53 216.33 94.16 204.96 102.68 178.76 65.66 170.37"/><polygon class="cls-7" points="68.64 142.55 54.02 155.6 48.59 180.62 68.89 195.2 102.68 178.76 84.92 149.93 68.64 142.55"/><polygon class="cls-8" points="77.16 99.41 54.02 155.6 79.85 171.5 84.92 149.93 77.16 99.41"/></g><g id="chairs_copy" data-name="chairs copy"><polygon class="cls-3" points="354.19 309.49 396.65 298.65 415.76 296.15 453.13 286.64 541.45 308.55 564.58 311.65 454.46 333.33 354.19 309.49"/><path class="cls-3" d="M573.42,311.49S718.57,283,720.57,284s118.37,30.26,118.37,30.26L714.06,343Z"/><polygon class="cls-7" points="518.03 294.15 533.88 293.65 542.01 309.11 518.53 316.32 502.01 303.82 518.03 294.15"/><polygon class="cls-7" points="465.14 295.31 456.8 304.15 463.99 317.24 518.53 316.32 516.03 301.15 472.98 294.65 465.14 295.31"/><polygon class="cls-6" points="469.81 293.65 454.46 293.31 445.66 310.36 463.99 317.24 466.14 300.98 469.81 293.65"/><polygon class="cls-8" points="454.46 293.31 466.14 300.98 516.03 301.15 533.88 293.65 508.52 286.98 478.15 286.31 454.46 293.31"/><polygon class="cls-6" points="522.03 314.36 526.62 317.4 515.86 316.24 516.28 303.23 521.57 313.07 522.03 314.36"/><polygon class="cls-8" points="526.62 317.4 523.2 313.82 516.28 303.23 520.49 314.36 526.62 317.4"/><polygon class="cls-6" points="758.11 296.48 735.58 324.24 658 300.98 649.25 276.22 685.03 256.22 755.6 286.98 758.11 296.48"/><polygon class="cls-7" points="771.62 273.97 768.62 262.97 704.8 247.46 658 263.47 723.82 281.23 734.58 284.48 771.62 273.97"/><polygon class="cls-8" points="768.62 262.97 734.58 284.48 735.58 324.24 787.64 322.99 790.64 285.48 768.62 262.97"/><polygon class="cls-7" points="763.61 281.48 751.6 291.98 750.1 310.99 778.63 305.98 774.62 285.98 763.61 281.48"/><polygon class="cls-6" points="170.42 283.64 160.41 242.96 208.8 226.62 243.16 253.63 246.17 275.31 243.5 288.98 204.46 299.98 170.42 283.64"/><polygon class="cls-8" points="160.41 242.96 186.34 253.64 211.8 274.31 200.46 299.65 153.01 296.51 143.65 275.97 160.41 242.96"/><polygon class="cls-7" points="163.67 257.72 155.66 266.72 162.92 285.48 181.44 283.98 185.44 268.47 163.67 257.72"/></g><g id="main_character_copy" data-name="main character copy"><polygon class="cls-12" points="465.39 211.77 496.65 199.56 486.51 188.14 464.55 199.28 465.39 211.77"/><polygon class="cls-13" points="453.26 140.92 484 183.15 468.35 200.49 449.9 181.92 453.26 140.92"/><polygon class="cls-13" points="382.93 158.47 364.99 192.22 389.32 207.48 393.2 178.37 382.93 158.47"/><polygon class="cls-14" points="472.04 216.27 497.99 246.36 487.16 265.15 465.25 258.28 422.79 246.46 472.04 216.27"/><polygon class="cls-15" points="465.25 258.28 497.99 246.36 492.29 272.02 486.59 279.02 473.32 280.54 465.25 258.28"/><polygon class="cls-6" points="492.29 272.02 500.48 279.02 498.79 294.16 473.57 290.65 473.32 280.54 492.29 272.02"/><polygon class="cls-16" points="500.48 279.02 496.08 290.65 473.57 290.65 473.57 296.83 514.29 296.83 514.29 290.65 500.48 279.02"/><polygon class="cls-17" points="397.94 229.89 397.16 269.95 413.29 286.59 430.28 272.22 445.42 248.57 423.74 229.89 397.94 229.89"/><polygon class="cls-14" points="430.28 272.22 397.16 269.95 396.6 298.58 409.75 299.79 415.91 296.32 430.28 272.22"/><polygon class="cls-15" points="472.04 216.27 445.42 248.57 397.94 229.89 444.06 217.34 472.04 216.27"/><polygon class="cls-6" points="403.07 144.37 397.94 150.14 393.77 150.87 382.93 158.47 397.94 229.89 432.98 243.75 445.42 222.32 440.89 186.61 435.82 136.64 403.07 144.37"/><polygon class="cls-7" points="425.39 149.01 445.42 222.32 456.7 234.88 472.04 216.27 453.26 140.92 445.22 138.94 422.16 139.86 425.39 149.01"/><polygon class="cls-16" points="362.46 51.96 358.89 68.53 366.69 74.77 377.21 49.09 366.27 47.52 362.46 51.96"/><polygon class="cls-18" points="447.36 50.64 420.47 59.5 416.02 103.97 410.89 150.24 425.52 149.49 437.64 137.11 443.99 124.45 446.91 98.8 461.07 90.92 447.36 50.64"/><polygon class="cls-7" points="451.83 53.84 451.13 29.67 358.96 22.16 374 45.48 428.1 61.8 451.83 53.84"/><path class="cls-13" d="M436.35,63c.24-1.66,1.68,31,1.68,31l5.45,1.48,2.67-9,10.56,3.06,4.37,1.32,11.44-22.45L447.57,53.6Z"/><polygon class="cls-19" points="446.3 86.04 440.25 106.44 451.48 109.75 461.07 90.92 446.3 86.04"/><polygon class="cls-20" points="440.25 106.44 443.99 124.45 451.48 109.75 440.25 106.44"/><polygon class="cls-19" points="419.43 139.07 396.27 132.39 365.26 127.99 367.29 52.68 401.72 53.84 428.1 61.8 419.43 139.07"/><polygon class="cls-20" points="387.76 101.68 385.39 98.54 390.44 99.24 387.76 101.68"/><polygon class="cls-13" points="420.52 75.24 401.41 67.48 396.28 74.93 420.52 75.24"/><polygon class="cls-13" points="383.39 66.26 369.83 71.14 387.57 73.89 383.39 66.26"/><polygon class="cls-18" points="420.52 75.24 405.17 78.61 390.44 99.24 391.98 81.92 396.28 74.93 420.52 75.24"/><polygon class="cls-18" points="379.04 76.85 385.39 98.54 388.27 85.94 387.57 73.89 369.83 71.14 379.04 76.85"/><polygon class="cls-20" points="406.4 107.25 373.94 103.98 379.25 119.53 396.68 122.08 406.4 107.25"/><polygon class="cls-16" points="451.13 29.67 472.51 68.47 446.89 64.62 428.1 61.8 451.13 29.67"/><polygon class="cls-6" points="428.1 61.8 362.46 51.96 358.96 22.16 428.1 61.8"/><polygon class="cls-21" points="400.43 109.4 378.29 107.2 380.1 112.19 397.22 113.77 400.43 109.4"/><polygon class="cls-20" points="455.5 93.25 450.15 91.62 446.53 102.15 455.5 93.25"/><polygon class="cls-22" points="396.28 74.93 387.57 73.89 385.39 98.54 390.44 99.24 396.28 74.93"/><path class="cls-23" d="M373.87,82a3.91,3.91,0,1,0,2.35-5A3.91,3.91,0,0,0,373.87,82Z"/><path class="cls-23" d="M400.63,84.45a3.91,3.91,0,1,0,2.35-5A3.92,3.92,0,0,0,400.63,84.45Z"/><polygon class="cls-20" points="396.27 132.39 403.07 144.37 416.03 153.19 429.29 137.04 396.27 132.39"/><polygon class="cls-24" points="425.52 149.49 410.53 168.13 403.07 144.37 425.52 149.49"/><polygon class="cls-24" points="437.64 137.11 448.56 157.47 425.52 149.49 437.64 137.11"/><polygon class="cls-6" points="415.91 296.32 423.33 312.54 393.77 312.54 396.6 298.58 415.91 296.32"/><polygon class="cls-16" points="410.49 303.87 393.77 312.54 393.77 318.73 423.33 318.73 423.33 312.54 410.49 303.87"/><polygon class="cls-25" points="472.04 216.27 432.98 243.75 397.16 269.95 397.94 246.05 472.04 216.27"/><polygon class="cls-26" points="458.02 160.02 445.22 138.94 437.64 137.11 452.33 163.64 458.02 160.02"/><polygon class="cls-26" points="403.07 144.37 393.77 181.67 387.86 181.92 393.77 150.87 403.07 144.37"/><polygon class="cls-27" points="472.04 216.27 379.52 253.46 399.02 195.76 387.86 181.92 458.02 160.02 453.89 193.72 472.04 216.27"/><polygon class="cls-26" points="411.52 199.71 407.43 221.16 379.52 253.46 387.86 181.92 411.52 199.71"/><polygon class="cls-28" points="458.02 160.02 433.44 193.54 439.31 211.68 472.04 216.27 458.02 160.02"/><polygon class="cls-29" points="484.76 182.8 449.9 202.03 451.44 207.48 520.04 179.15 521.25 177.32 519.71 176.91 484.76 182.8"/><polygon class="cls-30" points="519.21 173.42 484 183.15 448.56 197.25 449.9 202.03 519.71 176.91 520.6 174.14 519.21 173.42"/><polygon class="cls-31" points="518.69 169.8 483.37 178.44 447.06 191.92 448.56 197.25 519.21 173.42 520.6 171.61 518.69 169.8"/><polygon class="cls-32" points="518.25 166.79 445.89 187.75 447.06 191.92 518.69 169.8 520.04 167.97 518.25 166.79"/><polygon class="cls-33" points="434.04 192.22 439.31 211.68 416.94 218.69 414.23 202.26 425.42 195.08 434.04 192.22"/><polygon class="cls-2" points="421.04 199.28 518.6 169.18 518.69 169.8 423.42 199.22 421.04 199.28"/><polygon class="cls-2" points="419.56 206.39 519.11 172.77 519.21 173.42 419.75 206.97 419.56 206.39"/><polygon class="cls-2" points="424.07 210.67 519.61 176.2 519.71 176.91 424.27 211.25 424.07 210.67"/><polygon class="cls-12" points="411.52 199.71 420.02 214.27 407.43 221.16 367.87 218.69 364.99 192.22 411.52 199.71"/><polygon class="cls-18" points="425.42 195.08 427.05 198.1 423.06 205.21 417 205.9 411.52 199.71 425.42 195.08"/><polygon class="cls-32" points="524.92 168.22 529.54 176.93 542.11 179.47 543.68 169.76 524.92 168.22"/><path class="cls-26" d="M520,179.15l19.06.28,3,0L537,175.19l-14.49-3.25L520,179.15Z"/><polygon class="cls-27" points="518.25 166.79 520.04 179.15 537 175.19 543.68 169.76 525.31 162.22 518.25 166.79"/><polygon class="cls-19" points="423.92 223.56 407.43 221.16 411.52 199.71 429.82 208.43 431.82 212.23 423.92 223.56"/><polygon class="cls-20" points="423.92 223.56 430.86 222.1 439.31 211.68 429.82 208.43 423.92 223.56"/><polygon class="cls-26" points="528.18 163.4 526.26 159.53 532.5 160.27 528.18 163.4"/><polygon class="cls-26" points="533.61 165.63 533.61 161.07 539 164.15 533.61 165.63"/><polygon class="cls-26" points="540.5 168.46 539.93 164.3 545.91 165.59 540.5 168.46"/><polygon class="cls-20" points="480.26 195.57 496.65 199.56 502.14 186.54 490.96 186.54 480.26 195.57"/><polygon class="cls-19" points="502.14 186.54 492.4 174.28 477.31 181.92 480.26 195.57 502.14 186.54"/></g><g id="left_character_copy" data-name="left character copy"><polygon class="cls-12" points="327.96 285.8 338.16 291.69 337.48 298.48 294.2 299.08 293.94 291.97 327.96 285.8"/><polygon class="cls-6" points="305.76 263.72 313.91 271.76 338.16 291.69 293.94 291.97 293.29 281.27 305.76 263.72"/><polygon class="cls-34" points="271.54 250.92 300.55 226.47 313.91 271.76 293.29 281.27 271.54 250.92"/><polygon class="cls-35" points="271.54 250.92 300.55 226.47 291.93 261.79 272.3 277.8 271.54 250.92"/><polygon class="cls-36" points="242.99 246.85 284.23 223.3 300.55 226.47 271.09 276.74 242.99 246.85"/><polygon class="cls-12" points="199.93 300.74 192.53 305.88 192.83 312.82 226.52 312.82 226.52 306.18 199.93 300.74"/><polygon class="cls-6" points="205.22 271.91 199.18 288.67 192.53 305.88 226.52 306.18 219.12 289.12 205.22 271.91"/><polygon class="cls-36" points="199.48 257.72 186.34 253.64 199.18 229.03 237.85 226.32 251.75 249.87 227.73 260.74 199.48 257.72"/><path class="cls-7" d="M239.82,237.56l-15.41,5.66L233,286.7s11.78,5.66,29.23,5.21,31-10.64,31-10.64v-46.2Z"/><path class="cls-6" d="M279.09,219.75l13.21-1,1,16.3a94.12,94.12,0,0,1-31.57,10.19,95.7,95.7,0,0,1-37.31-2l-3.52-18.34Z"/><polygon class="cls-34" points="286.19 104.33 293.92 96.65 298.43 78.67 285.14 71.42 273.18 86.58 286.19 104.33"/><polygon class="cls-35" points="275.77 99.96 275.56 89.24 293.92 96.65 286.1 117.49 274.71 117.77 275.77 99.96"/><polygon class="cls-37" points="275.92 118.37 272.67 107.13 269.43 93.16 272.75 79.07 277.83 80.63 277.88 90.26 282.87 99.65 275.92 118.37"/><polygon class="cls-34" points="272.67 107.13 252.5 133.62 249.79 144.72 270.78 155.66 286.1 117.49 272.67 107.13"/><polygon class="cls-12" points="155.23 214.64 167.75 182.73 198.31 202.07 194.71 208.43 185.45 226.81 155.23 214.64"/><polygon class="cls-12" points="236.4 176.79 247.97 175.29 270.78 155.66 252.5 133.62 233.32 138.15 236.4 176.79"/><polygon class="cls-6" points="228.31 168.91 248.08 174.58 259.63 220.52 200.1 233.17 194.71 208.43 228.31 168.91"/><polygon class="cls-7" points="233.32 138.15 248.08 174.58 194.71 208.43 167.75 182.73 182.36 167.67 212.61 141.95 233.32 138.15"/><polygon class="cls-38" points="218.08 60.3 230.32 61.62 231.14 101.21 216.57 85.65 218.08 60.3"/><polygon class="cls-36" points="181.16 63.06 191.71 44.49 230.32 61.62 224.73 78.37 182.17 80.38 181.16 63.06"/><polygon class="cls-39" points="168.86 93.05 153.04 59.55 191.71 44.49 209.92 70.59 168.86 93.05"/><polygon class="cls-38" points="145.19 103.22 141.23 113.38 152.67 124.64 189.07 130.89 180.22 99.27 145.19 103.22"/><polygon class="cls-39" points="157.43 80.44 138.03 91.17 141.23 113.38 181.16 104.16 184.74 84.77 157.43 80.44"/><polygon class="cls-36" points="205.08 79.88 193.12 76.16 153.04 59.55 138.03 91.17 175.01 96.44 205.08 79.88"/><polygon class="cls-34" points="213.06 159.94 213.56 169.22 181.16 169.47 166.6 146.1 167.62 138.28 162.4 139.64 152.67 124.64 165.58 117.02 168.36 122.76 173.26 119.75 175.01 96.44 214.31 122.54 213.06 159.94"/><polygon class="cls-35" points="224.61 133.84 202.26 153.28 192.21 159.18 213.56 169.22 224.61 133.84"/><polygon class="cls-37" points="225.75 75 248.71 134.58 202.26 153.28 175.01 96.44 193.12 76.16 209.92 70.59 225.75 75"/><polygon class="cls-35" points="171 134.81 162.4 139.64 166.6 146.1 171 134.81"/><polygon class="cls-35" points="159.12 125.58 164.3 122.71 166.51 130.66 159.12 125.58"/><polygon class="cls-35" points="204.36 122.98 231.67 112.88 227.03 134.96 204.36 122.98"/><polygon class="cls-21" points="227.43 117.49 211.58 123.2 217.89 126.28 227.03 122.6 227.43 117.49"/><polygon class="cls-34" points="215.94 89.16 212.23 90.7 214.97 95.94 211.42 102.72 206.68 99.14 203.2 93.15 193.97 93.93 187.82 99.2 212.08 112.25 214.94 105.92 221.81 109.3 225.61 88.2 215.94 89.16"/><polygon class="cls-40" points="218.36 113.32 221.81 109.3 214.97 95.94 206.68 99.14 212.08 112.25 218.36 113.32"/><polygon class="cls-35" points="221.81 109.3 219.3 115.33 212.08 112.25 221.81 109.3"/><polygon class="cls-38" points="198.58 89.38 184.99 96 187.82 99.2 203.2 93.15 198.58 89.38"/><polygon class="cls-38" points="212.23 90.7 211.01 85.58 225 84.96 225.61 88.2 212.23 90.7"/><path class="cls-38" d="M203.26,103.22a3.52,3.52,0,1,1-3.51-3.52A3.51,3.51,0,0,1,203.26,103.22Z"/><path class="cls-38" d="M225.74,96.32a3.52,3.52,0,1,1-3.52-3.52A3.52,3.52,0,0,1,225.74,96.32Z"/><polygon class="cls-34" points="186.34 253.64 220.18 259.79 225.62 267.98 219.12 289.12 199.18 288.67 186.34 253.64"/><polygon class="cls-35" points="186.34 253.64 227.73 260.74 225.62 267.98 186.34 253.64"/><path class="cls-10" d="M292.3,218.77c.26,3.74-15.73,7.89-35.7,9.27s-36.38-.55-36.64-4.29,15.73-7.89,35.7-9.27S292,215,292.3,218.77Z"/><path class="cls-41" d="M285.88,219.21c.15,2.2-13,4.91-29.47,6s-29.88.26-30-1.94,13.05-4.91,29.48-6S285.73,217,285.88,219.21Z"/><polygon class="cls-34" points="223.2 221.03 225.65 211.86 242.99 215.6 242.42 228.5 229.39 232.81 223.2 221.03"/><polygon class="cls-37" points="201.9 218.77 207.87 216.73 225.65 211.86 229.39 232.81 208.85 231.68 201.9 218.77"/><polygon class="cls-34" points="207.87 216.73 155.23 214.64 169.57 239.9 208.85 231.68 207.87 216.73"/><path class="cls-8" d="M228,260.55s18.19,4.59,37,3.92,28.11-7.92,28.11-7.92l-.08,14.26a92.89,92.89,0,0,1-37.37,6c-20.77-1.09-25.78-5.25-25.78-5.25Z"/></g><g id="right_character_copy" data-name="right character copy"><polygon class="cls-16" points="614.96 295.31 599.28 288.64 595.44 294.81 633.31 317.82 636.65 311.99 614.96 295.31"/><polygon class="cls-6" points="636.98 282.64 628.64 285.31 599.28 288.64 636.65 311.99 646.66 297.31 636.98 282.64"/><polygon class="cls-16" points="688.2 321.07 677.69 326.74 677.61 332.74 712.73 333.16 712.73 327.49 688.2 321.07"/><polygon class="cls-6" points="692.79 301.73 687.52 310.41 677.69 326.74 712.73 327.49 713.02 310.82 692.79 301.73"/><polygon class="cls-42" points="676.69 258.63 648.98 251.72 628.64 285.31 646.66 297.31 662.51 285.31 676.69 258.63"/><polygon class="cls-43" points="676.69 258.63 648.98 251.72 662.51 285.31 672.68 277.64 676.69 258.63"/><polygon class="cls-36" points="689.84 229.92 666.64 242.05 648.98 251.72 672.68 277.64 706.43 277.97 689.84 229.92"/><polygon class="cls-42" points="712.2 254.5 686.41 288.6 687.52 310.41 713.02 310.82 723.82 281.22 712.2 254.5"/><polygon class="cls-43" points="712.2 254.5 685.72 277.72 686.41 288.6 723.82 281.22 712.2 254.5"/><polygon class="cls-5" points="725.78 226.54 739.08 237.23 742.23 259.84 723.82 281.22 685.72 277.72 690.81 264.37 693.69 239.7 725.78 226.54"/><polygon class="cls-15" points="695.34 231.07 670.93 239.84 690.81 264.37 721.25 236.41 695.34 231.07"/><polygon class="cls-6" points="727.62 221.32 685.84 249.88 666.64 242.05 671.06 166.25 690.07 163.15 727.62 221.32"/><polygon class="cls-16" points="716.56 161.46 724.19 170.75 738.68 177.73 730.7 199.83 739.61 206.32 739.08 237.23 685.84 249.88 686.35 172.02 716.56 161.46"/><polyline class="cls-15" points="750.16 92.3 759.45 101.63 747.58 122.74 727.01 128.42 715.56 108.48 729.1 93.29 749.94 91.89"/><polygon class="cls-4" points="718.47 77.47 741.03 66.36 759.45 101.63 727.97 103.98 713.12 87.6 718.47 77.47"/><polygon class="cls-15" points="675.61 75.24 658.35 68.88 663.39 102.84 675.61 75.24"/><polygon class="cls-4" points="727.05 74.16 724.06 65.98 703.34 55.25 658.35 68.88 669.13 76.89 684.4 100.5 714.47 83.07 726.63 74.18 727.05 74.16"/><path class="cls-5" d="M724.06,66c-.3.33-35.31,27-35.31,27S712.62,99.06,713,99s8-6.51,8-6.51l20-26.17Z"/><polygon class="cls-42" points="692.5 163.32 685.09 174.48 726.24 171.59 736.62 147.58 737.47 140.51 740.38 139.12 747.58 122.74 734.83 116.96 731.5 122.94 726.95 120.39 727.97 103.98 721.05 92.53 687.88 147.73 692.5 163.32"/><polygon class="cls-43" points="674.42 144.63 685.09 174.48 712.33 161.13 702.49 157.65 674.42 144.63"/><polygon class="cls-44" points="669.13 76.89 651.72 144.25 702.49 157.65 721.05 92.53 688.75 92.94 669.13 76.89"/><polygon class="cls-43" points="731.69 135.69 740.38 139.12 736.62 147.58 731.69 135.69"/><polygon class="cls-43" points="743.03 126.28 737.79 123.96 735.03 131.51 743.03 126.28"/><polygon class="cls-42" points="670.13 95.19 666.53 96.3 674.8 124.36 681.06 118.39 685.52 127.22 709.1 109.47 708.08 106.97 693.33 105 686.83 113.23 682.32 101.45 670.13 95.19"/><path class="cls-38" d="M675.54,107.92a3.47,3.47,0,1,1-3.47-3.46A3.47,3.47,0,0,1,675.54,107.92Z"/><path class="cls-38" d="M700.83,116.1a3.47,3.47,0,1,1-3.47-3.46A3.47,3.47,0,0,1,700.83,116.1Z"/><polygon class="cls-45" points="678.89 128.12 674.8 124.36 682.32 101.45 693.33 105 685.52 127.22 678.89 128.12"/><polygon class="cls-43" points="674.8 124.36 685.52 127.22 678.08 131.31 674.8 124.36"/><polygon class="cls-15" points="693.33 105.08 709.84 104.07 709.1 109.47 693.33 105.08"/><polygon class="cls-15" points="682.32 101.45 671.69 92.04 666.53 96.3 682.32 101.45"/><path class="cls-7" d="M639.76,176.81s.77-6.45,1.84-6.45,28.65-5.14,28.65-5.14l2.54,35-16.82.92Z"/><polygon class="cls-42" points="638.24 145.8 638.05 151.98 655.97 201.14 627.63 203.21 622.42 153.17 638.24 145.8"/><polygon class="cls-43" points="634.1 131.83 621.19 129.83 618.27 141.81 622.5 153.78 630.64 152.86 634.1 131.83"/><polygon class="cls-7" points="738.68 177.73 739.61 206.32 701.2 214.57 671.71 195.53 738.68 177.73"/><polygon class="cls-42" points="660.23 155.78 671.17 162.11 701.2 214.57 668.02 220.71 654.47 164.53 660.23 155.78"/><polygon class="cls-15" points="673.63 134.44 689.04 133.24 692.03 137.93 689.39 143.41 673.63 134.44"/><polygon class="cls-4" points="605.32 135.56 592.34 137.32 594.79 143.52 689.39 143.41 687.62 137.88 605.32 135.56"/><polygon class="cls-46" points="597.19 132.87 689.04 133.24 687.62 137.88 592.34 137.32 597.19 132.87"/><polygon class="cls-4" points="608.39 133.92 606.08 135.74 612.33 135.99 611.83 133.86 608.39 133.92"/><polygon class="cls-4" points="618.78 134.36 618.4 135.92 623.84 136.36 623.97 134.24 618.78 134.36"/><polygon class="cls-4" points="647.78 134.17 647.53 136.01 652.29 136.01 653.06 134.45 647.78 134.17"/><polygon class="cls-44" points="657.69 140.47 649.86 146.91 654.47 164.53 671.17 162.11 671.58 149.62 657.69 140.47"/><polygon class="cls-42" points="655.45 133.02 649.86 146.91 671.58 149.62 671.17 133.1 655.45 133.02"/><path class="cls-44" d="M630.64,152.86l7.41-.88,9.79-11.86L644.16,139s-5.53,4.32-5.88,4.32l-8.6.11Z"/><polygon class="cls-44" points="641.01 127.99 646.54 133.06 631.95 137.36 621.19 129.83 641.01 127.99"/></g></g></svg>