<svg xmlns="http://www.w3.org/2000/svg" viewBox="0 0 900 350"><defs><style>.cls-1{fill:#cfcfcd;}.cls-2{fill:#a3a3a3;}.cls-3{fill:#dddddc;}.cls-22,.cls-24,.cls-25,.cls-32,.cls-4{fill:none;}.cls-4{stroke:#ececeb;stroke-width:3px;}.cls-24,.cls-25,.cls-32,.cls-4{stroke-miterlimit:10;}.cls-31,.cls-5{fill:#2b2b2b;}.cls-5{opacity:0.1;}.cls-6{fill:#f2bd67;}.cls-7{fill:#bb8f2d;}.cls-8{fill:#e2a940;}.cls-9{fill:#c4c4c4;}.cls-10{fill:#ccae2d;}.cls-11{fill:#b38c2e;}.cls-12{fill:#e4c823;}.cls-13{fill:#f4d75c;}.cls-14{fill:#858686;}.cls-15{fill:#ececeb;}.cls-16{fill:#fff;}.cls-17{fill:#ac923b;}.cls-18{fill:#6f7273;}.cls-19{fill:#9d782c;}.cls-20{fill:#737474;}.cls-21{fill:#8f8f8f;}.cls-23{fill:#8d7c2f;}.cls-24{stroke:#9d782c;}.cls-24,.cls-25{stroke-width:2px;}.cls-25{stroke:#ccae2d;}.cls-26{fill:#f5cbb3;}.cls-27{fill:#c1907c;}.cls-28{fill:#fde4d5;}.cls-29{fill:#4f5353;}.cls-30{fill:#fff0e9;}.cls-32{stroke:#4f5353;}.cls-33{fill:#b38c71;}.cls-34{fill:#d1ab92;}.cls-35{fill:#83624e;}.cls-36{fill:#d7bca9;}.cls-37{fill:#846528;}.cls-38{fill:#474748;}.cls-39{fill:#dfbda5;}.cls-40{fill:#8b6651;}.cls-41{fill:#c2987a;}.cls-42{fill:#e9cbb7;}.cls-43{fill:#bd902d;}.cls-44{fill:#755924;}</style></defs><title>explorers_Entrepreneur_ESTP_conclusion</title><g id="illustration_copy" data-name="illustration copy"><g id="wall_copy" data-name="wall copy"><polygon class="cls-1" points="0 249.49 647.02 210.37 647.02 8.13 22.67 0.74 0 249.49"/><polygon class="cls-2" points="647.02 8.13 881 0 901.47 292.13 647.02 210.37 647.02 8.13"/></g><g id="object_copy" data-name="object copy"><polygon class="cls-3" points="159.05 293.68 656.66 255.34 764.21 297.18 217.6 350 159.05 293.68"/><polygon class="cls-4" points="182.06 301.93 655.15 265.48 721.43 291.26 221.22 339.6 182.06 301.93"/><polygon class="cls-5" points="339.67 122.74 322.22 128.43 308.43 173.46 350.67 177.84 339.67 122.74"/><polygon class="cls-5" points="679.67 220.98 647.02 228.9 595.52 224.32 556.91 215.82 567.63 147.78 675.51 219.53 679.67 220.98"/><polygon class="cls-5" points="120.74 134.57 120.74 141.5 201.5 138.04 203.21 130.41 120.74 134.57"/><polygon class="cls-5" points="556.91 86.38 556.91 94.41 476.67 94.41 475.91 87.75 556.91 86.38"/><polygon class="cls-5" points="16.97 229.43 31.5 250.13 22.5 261.2 85.67 263.43 109.12 252.53 48.55 248.45 39.92 212.65 16.97 229.43"/><polygon class="cls-5" points="612.54 282.09 667.27 289.07 691.87 280.09 653.87 274.42 612.54 282.09"/><polygon class="cls-5" points="507 277.55 570.54 257.49 478.33 226.73 280.13 231.71 247.21 253.98 297.72 282.99 507 277.55"/><polygon class="cls-6" points="335.96 110.4 346.99 100.14 379.96 97.64 394.79 109.75 412.96 171.86 344.29 177.01 332.71 115.89 335.96 110.4"/><polygon class="cls-7" points="335.96 110.4 346.99 171.86 340.96 175.47 328.29 114.39 335.96 110.4"/><polygon class="cls-8" points="346.99 100.14 334.08 104.76 328.29 114.39 335.96 110.4 346.99 100.14"/><polygon class="cls-9" points="570.54 136.8 594.33 147.5 594.33 163.46 567.63 147.78 570.54 136.8"/><polygon class="cls-2" points="595.52 224.32 594.33 163.46 570.54 149.49 572.92 214.75 595.52 224.32"/><polygon class="cls-1" points="675.51 146.1 677.26 160.19 594.33 163.46 594.33 147.5 675.51 146.1"/><polygon class="cls-3" points="570.54 136.8 644.94 134.45 675.51 146.1 594.33 147.5 570.54 136.8"/><polygon class="cls-9" points="675.51 219.53 595.52 224.32 594.33 163.46 674.46 160.25 675.51 219.53"/><polygon class="cls-5" points="606.33 137.83 598.5 140.98 631.88 144.25 646.13 138.38 606.33 137.83"/><polygon class="cls-2" points="606.97 216.57 663.77 213.29 663.77 160.92 604.82 162.78 606.97 216.57"/><polygon class="cls-9" points="603.61 192.5 664.98 189.34 663.67 181.3 603.61 184.75 603.61 192.5"/><circle class="cls-9" cx="636.76" cy="173.59" r="4.12"/><circle class="cls-9" cx="637.39" cy="203.71" r="4.12"/><polygon class="cls-10" points="607.86 127.08 622.36 129.87 620.19 142.88 606.33 137.83 607.86 127.08"/><polygon class="cls-11" points="633.86 126.24 622.36 129.87 620.19 142.88 638.67 140.98 633.86 126.24"/><polygon class="cls-12" points="612.02 123.91 628.36 123.41 633.86 126.24 622.36 129.87 607.86 127.08 612.02 123.91"/><polygon class="cls-10" points="612.19 119.82 627.48 120.41 628.36 123.41 612.02 123.91 612.19 119.82"/><polygon class="cls-12" points="620.19 117.58 596.36 112.59 607.02 86.24 617.36 86.24 620.19 117.58"/><polygon class="cls-10" points="640.86 110.24 620.19 117.58 617.36 86.24 627.38 86.24 640.86 110.24"/><polygon class="cls-11" points="615.73 116.61 615.53 119.95 625.19 120.32 625.19 115.8 620.19 117.58 615.73 116.61"/><polygon class="cls-11" points="280.28 249.49 304.75 273.25 303.67 210.54 279.66 174.76 280.28 249.49"/><polygon class="cls-12" points="523 180.13 303.67 191 303.67 210.54 526.25 198.67 523 180.13"/><polygon class="cls-10" points="279.66 174.76 303.67 191 303.67 210.54 275.6 193.85 279.66 174.76"/><polygon class="cls-13" points="279.66 174.76 478.63 164.68 523 180.13 303.67 191 279.66 174.76"/><polygon class="cls-5" points="395.67 180.13 399.17 186.26 469.5 182.78 460 175 406.83 177.17 395.67 180.13"/><polygon class="cls-10" points="303.67 210.54 304.75 273.25 327 271.67 334.17 248.25 490.25 238.5 499 258.25 520.66 256.56 520.42 198.98 303.67 210.54"/><polygon class="cls-9" points="448.5 177.17 448.5 180.13 414.96 181.33 406.83 177.17 406.83 174.33 431.63 170.41 448.5 177.17"/><polygon class="cls-2" points="425 175 430.67 175 432.58 165.82 425 166.44 425 175"/><polygon class="cls-14" points="425 175 422.63 173.25 421.86 166.69 425 166.44 425 175"/><polygon class="cls-2" points="448.5 177.17 415.88 178.13 414.96 181.33 448.5 180.13 448.5 177.17"/><polygon class="cls-14" points="406.83 174.33 415.88 178.13 414.96 181.33 406.83 177.17 406.83 174.33"/><polygon class="cls-2" points="401.25 125.78 467.67 118.22 471.67 122.23 463.33 165.41 394.38 168.92 387.67 165.88 401.25 125.78"/><polygon class="cls-14" points="403.67 129.05 394.38 168.92 387.67 165.88 399 122.74 403.67 129.05"/><polygon class="cls-15" points="471.67 122.23 403.67 129.05 399 122.74 467.67 118.22 471.67 122.23"/><polygon class="cls-14" points="416.67 151.9 451.67 149.92 449.25 166.12 413.5 167.94 416.67 151.9"/><polygon class="cls-8" points="359 124.74 359 129.05 354.5 132.25 359 132.25 362.25 136.19 362.25 131.75 365.25 129.05 361.5 129.05 359 124.74"/><polygon class="cls-8" points="380 122.74 380 127.04 375.5 130.24 380 130.24 383.25 134.18 383.25 129.74 386.25 127.04 382.5 127.04 380 122.74"/><polygon class="cls-8" points="363 145.83 363 150.13 358.5 153.33 363 153.33 366.25 157.27 366.25 152.83 369.25 150.13 365.5 150.13 363 145.83"/><polygon class="cls-5" points="304.25 183.67 327.25 185 337.64 180.75 309.5 179.13 304.25 183.67"/><polygon class="cls-8" points="385.38 145.83 385.38 150.13 380.88 153.33 385.38 153.33 388.63 157.27 388.63 152.83 391.63 150.13 387.88 150.13 385.38 145.83"/><polygon class="cls-10" points="560.75 21.32 562.66 86.29 479.92 87.65 482.67 21.32 560.75 21.32"/><polygon class="cls-16" points="490.5 29 489.41 78.25 556.91 78.25 552.08 66.92 555.52 57.56 553.5 29 490.5 29"/><path class="cls-13" d="M527.62,64.46A4.46,4.46,0,1,1,523.16,60,4.46,4.46,0,0,1,527.62,64.46Z"/><polygon class="cls-1" points="489.41 66 508.58 58.92 522.66 65.25 549.58 64.92 556.91 78.25 489.41 78.25 489.41 66"/><polygon class="cls-15" points="501.41 46.42 506.91 43.75 510.91 46.42 518.58 44.58 521.24 48.08 515.58 50.42 509.08 49.42 504.91 49.64 501.41 46.42"/><polygon class="cls-1" points="501.41 46.42 505.74 47.08 512.66 48.75 521.24 48.08 515.58 50.42 509.08 49.42 504.91 49.64 501.41 46.42"/><polygon class="cls-17" points="479.92 87.65 475.91 87.75 476.63 21.32 482.67 21.32 479.92 87.65"/><polygon class="cls-9" points="522.66 65.25 546.58 78.25 556.91 78.25 555.52 57.56 522.66 65.25"/><polygon class="cls-15" points="530.66 52.97 536.5 51.75 539.76 52.97 547.23 51.75 550.08 52.97 542.34 56.03 538.53 55.42 534.73 55.3 530.66 52.97"/><polygon class="cls-1" points="530.66 52.97 534.05 54.3 539.76 54.3 542.2 55.11 550.08 52.97 544.1 56.54 540.37 55.72 534.73 56.54 530.66 52.97"/><polygon class="cls-12" points="120.74 62.82 198.74 62.45 203.23 70.95 184.57 70.95 127.23 65.48 120.74 62.82"/><polygon class="cls-10" points="203.23 65.48 206.23 133.32 125 135.45 127.23 65.48 203.23 65.48"/><polygon class="cls-16" points="133.33 73.05 133.17 125.99 199.55 123.7 196.34 103.13 200.53 73.05 133.33 73.05"/><polygon class="cls-17" points="125 135.45 120.74 134.57 120.74 62.82 127.23 65.48 125 135.45"/><polygon class="cls-14" points="334.17 155.5 317.17 157.27 317.33 183.67 330.67 182 334.17 155.5"/><polygon class="cls-2" points="304.75 154 317.17 157.27 317.33 183.67 309.5 179.13 304.75 154"/><polygon class="cls-18" points="304.75 154 319.46 152.05 334.17 155.5 317.17 157.27 304.75 154"/><polygon class="cls-10" points="317.17 157.27 315.5 137.32 312.75 140.75 313.95 156.42 317.17 157.27"/><polygon class="cls-11" points="321.12 156.86 321.63 149.38 323.51 149.38 328.29 151 328.29 156.11 321.12 156.86"/><polygon class="cls-12" points="317.17 157.27 320.94 137.32 323.06 136.94 324.71 137.88 321.12 156.86 317.17 157.27"/><polygon class="cls-11" points="320.44 139.95 322.44 139.69 324.25 140.31 323.85 142.44 322.34 141.19 320.19 141.3 320.44 139.95"/><polygon class="cls-19" points="316.02 143.53 316.58 139.25 319 139.25 319.68 143.96 317.17 157.27 316.02 143.53"/><polyline class="cls-5" points="520.66 203.71 520.42 198.98 303.67 210.54 303.67 219.05"/><polyline class="cls-5" points="279.66 207.66 279.66 196.27 303.67 210.54 303.67 219.05"/><polygon class="cls-20" points="35.1 216.53 73.76 213.54 94.43 220.87 52.56 224.33 35.1 216.53"/><polygon class="cls-21" points="630.25 261.5 625.5 266.32 624.5 272.84 626.02 280.2 634.29 284.38 636.31 278.09 637.23 267.59 630.25 261.5"/><polygon class="cls-15" points="683.79 267.59 637.23 267.59 630.25 261.5 675.33 262.54 683.79 267.59"/><polygon class="cls-1" points="636.31 278.09 683.97 275.13 683.79 267.59 637.23 267.59 636.31 278.09"/><polygon class="cls-2" points="683.97 275.13 681.48 280.26 634.29 284.38 636.31 278.09 683.97 275.13"/><path class="cls-22" d="M343.6,214.09l-69-1.5"/><polygon class="cls-23" points="59.03 224.33 71.97 197.03 87.17 212.59 82.65 222.38 59.03 224.33"/><polygon class="cls-17" points="39.92 218.68 56.25 230 62.16 217.72 59.6 209.47 39.92 218.68"/><polygon class="cls-2" points="35.1 216.53 52.56 224.33 94.43 220.87 89.1 258.86 53.76 261.2 44.4 254.36 35.1 216.53"/><polygon class="cls-12" points="71.97 197.03 98.23 186.66 105.85 231.71 71.97 197.03"/><polygon class="cls-21" points="53.76 261.2 44.4 254.36 35.1 216.53 52.56 224.33 53.76 261.2"/><polygon class="cls-12" points="59.6 209.47 15.75 230 34.88 191.38 59.6 209.47"/><polygon class="cls-10" points="48.55 201.38 48.55 185.99 76.67 185 79.38 194.11 71.97 197.03 62.16 217.72 59.6 209.47 48.55 201.38"/><polygon class="cls-12" points="48.55 185.99 79.38 194.11 85.67 166.09 48.55 185.99"/><polygon class="cls-9" points="142.33 83.12 141.84 86.83 179.5 86.83 179.33 82.34 142.33 83.12"/><polygon class="cls-9" points="150.83 89.75 181.44 90.14 179.33 94.74 150.75 93.13 150.83 89.75"/><polygon class="cls-9" points="151.9 96.33 178.54 96.66 177.42 101.24 151.5 100.32 151.9 96.33"/><polygon class="cls-9" points="152 103.98 178.54 103.98 177.42 107.65 152 107.65 152 103.98"/><polygon class="cls-10" points="144.68 114.18 142.33 120.34 147.27 118.75 151.9 120.34 150.43 114.18 144.68 114.18"/><polygon class="cls-12" points="148.32 109.27 142.63 112.58 147.27 116.72 152.83 113 148.32 109.27"/><polygon class="cls-11" points="610 97 606.33 101 610 105 613.25 101 610 97"/><polygon class="cls-11" points="626.7 97 623.03 101 627.75 103.63 630.38 100.31 626.7 97"/><polygon class="cls-11" points="499 258.25 474 239.51 474 239.51 490.25 238.5 499 258.25"/><polygon class="cls-5" points="134.97 331.28 172.75 310.13 126.92 303.42 72.42 314.21 63.17 322.01 134.97 331.28"/><polygon class="cls-12" points="76.11 288.58 61.38 295.75 73.69 305.38 77.19 295.5 76.11 288.58"/><polygon class="cls-12" points="90.58 278.88 99.63 267 105.21 281.7 98.88 281.7 90.58 278.88"/><polygon class="cls-10" points="72.42 314.21 106.92 312.88 110.92 282.88 90.58 278.88 76.11 288.58 72.42 314.21"/><polygon class="cls-12" points="106.92 312.88 104.75 324.54 79.25 320.38 81.68 313.85 106.92 312.88"/><polygon class="cls-10" points="109.42 293.38 114.75 303.13 114.75 317.13 110.42 322.04 104.75 324.54 106.92 312.88 109.42 293.38"/><polygon class="cls-12" points="133.75 288.88 119.88 307.25 114.75 303.13 109.42 293.38 133.75 288.88"/><polygon class="cls-12" points="121.58 318.71 129 316.5 149.08 306.21 152.25 318.38 140.92 326.21 119.25 326.21 124.13 322.75 117.68 321.35 121.58 318.71"/><polygon class="cls-10" points="119.88 307.25 129 316.5 149.08 306.21 133.75 288.88 119.88 307.25"/><polygon class="cls-11" points="114.75 303.13 114.75 317.13 129 316.5 119.88 307.25 114.75 303.13"/><polygon class="cls-13" points="89.25 301.38 81.68 313.85 106.92 312.88 109.42 293.38 96.5 296.54 95.77 302.22 89.25 301.38"/><polyline class="cls-24" points="80.5 301.5 83.88 300.25 85.25 296.54"/><polyline class="cls-24" points="94.5 292 99.63 291.13 99.63 287.75"/><polygon class="cls-19" points="75.42 293.38 68.08 295.71 74.14 302.22 75.42 293.38"/><polygon class="cls-19" points="94.5 279.63 98.67 274.35 103.25 281.38 94.5 279.63"/><polygon class="cls-10" points="129 316.5 140.92 326.21 119.25 326.21 112.91 323.75 120.13 316.89 129 316.5"/><polyline class="cls-25" points="94.8 300.81 97.15 304.7 94.8 308.27"/><line class="cls-25" x1="97.15" y1="304.7" x2="101" y2="303.86"/><polygon class="cls-19" points="89.25 301.38 96.5 296.54 95.77 302.22 89.25 301.38"/></g><g id="characters_copy" data-name="characters copy"><polygon class="cls-5" points="759.85 70.47 767.4 75.63 763.62 123.41 773.35 137.78 775.17 172.66 760.81 202.62 760.55 249.49 745.41 258.19 744.66 266.91 706.05 271.46 674.1 260.29 708.63 249.49 728.74 107.56 759.85 70.47"/><polygon class="cls-5" points="863.66 93.83 809.92 189.41 808.03 277.7 809.19 278.65 802.24 277.66 760.81 285.55 810.29 299.87 868.73 287.16 872.17 283.23 872.17 154.78 868.38 140.98 872.17 108.94 863.66 93.83"/><polygon class="cls-26" points="815.75 143.19 847.75 135.91 864.42 91.41 851.09 63.07 838.42 96.41 836.41 123.45 828.75 128.35 815.75 143.19"/><polygon class="cls-27" points="808.03 118.88 842.13 124.45 815.75 143.19 808.03 118.88"/><polygon class="cls-28" points="795.84 57.85 788.34 114.36 836.41 123.45 851.09 63.07 804.09 60.07 795.84 57.85"/><polygon class="cls-12" points="811.78 130.69 793.67 137.78 790.17 202.16 814.77 210.07 851.09 210.07 856.19 145.74 847.75 135.91 815.75 143.19 811.78 130.69"/><polygon class="cls-28" points="870.17 189.41 851.09 210.07 828.54 194.07 834.42 182.74 870.17 189.41"/><polygon class="cls-11" points="870.17 189.41 856.19 145.74 852.98 186.2 870.17 189.41"/><polygon class="cls-26" points="828.54 194.07 819.5 179.15 816.92 171.53 819 163.41 830.67 163.41 834.42 182.74 828.54 194.07"/><polygon class="cls-28" points="811.17 173.91 809.92 189.41 790.48 196.41 775.17 172.66 811.17 173.91"/><polygon class="cls-11" points="793.67 137.78 775.17 172.66 791.74 173.23 793.67 137.78"/><polygon class="cls-26" points="809.92 189.41 821.77 182.74 819.91 179.41 811.17 173.91 809.92 189.41"/><polygon class="cls-10" points="815.75 143.19 828.54 152.41 847.75 135.91 815.75 143.19"/><polygon class="cls-10" points="811.78 130.69 804.67 146.91 815.75 143.19 811.78 130.69"/><polygon class="cls-19" points="790.17 202.16 813.42 223.17 851.09 210.07 790.17 202.16"/><polygon class="cls-10" points="828.54 274.78 837.13 277.7 846.92 274.78 851.09 210.07 813.42 223.17 828.54 274.78"/><polygon class="cls-11" points="790.17 202.16 791.42 266.53 797.91 272.92 809.92 272.92 819.91 245.34 813.42 223.17 790.17 202.16"/><polygon class="cls-20" points="828.54 274.78 823.18 285.55 851.09 285.55 846.92 274.78 828.54 274.78"/><rect class="cls-21" x="775.17" y="280.37" width="34.75" height="3.21"/><rect class="cls-21" x="823.18" y="285.55" width="27.91" height="3.21"/><polygon class="cls-20" points="809.92 272.92 809.92 280.37 775.17 280.37 791.42 266.53 809.92 272.92"/><polygon class="cls-28" points="830.67 163.41 819.5 179.15 811.17 173.91 818.92 162.41 830.67 163.41"/><polygon class="cls-19" points="790.9 240.03 817.54 251.9 809.92 272.92 791.42 266.53 790.9 240.03"/><polygon class="cls-11" points="821.77 251.66 848.73 246.69 846.92 274.78 828.54 274.78 821.77 251.66"/><polygon class="cls-26" points="819.17 77.47 814.44 80.48 812.65 96.55 824.32 87.01 835.2 78.88 819.17 77.47"/><polygon class="cls-26" points="807.11 77.02 809.07 79.65 807.77 91.97 797.75 74.6 807.11 77.02"/><polygon class="cls-27" points="852.02 100.32 856.46 112.79 859.19 105.78 852.02 100.32"/><polygon class="cls-29" points="807.65 74.52 807.11 77.02 797.75 74.6 797.75 72.66 807.65 74.52"/><polygon class="cls-29" points="819.17 75.08 819.17 77.47 835.2 78.88 836.23 75.64 819.17 75.08"/><polygon class="cls-30" points="809.07 79.65 814.44 80.48 812.65 96.55 807.33 96.18 809.07 79.65"/><polygon class="cls-27" points="805.01 100.97 824.35 102.47 820.22 109.11 804.53 107.45 805.01 100.97"/><polygon class="cls-27" points="807.31 96.37 809.6 98.63 812.63 96.73 807.31 96.37"/><path class="cls-31" d="M824.64,86.29a2.87,2.87,0,1,1-2.87-2.87A2.86,2.86,0,0,1,824.64,86.29Z"/><path class="cls-31" d="M806.27,85a2.87,2.87,0,1,1-2.86-2.86A2.87,2.87,0,0,1,806.27,85Z"/><polygon class="cls-28" points="856.37 88.07 863.66 93.83 859.19 105.78 852.02 100.32 856.37 88.07"/><polygon class="cls-27" points="855.05 97.5 861.66 94.67 857.47 91.84 855.05 97.5"/><polygon class="cls-16" points="806.47 102.05 820.22 103.28 817.99 105.04 806.47 104.07 806.47 102.05"/><polygon class="cls-21" points="802.67 26.66 803.41 42.03 852.98 52.65 872.17 72.66 852.92 42.66 802.67 26.66"/><polygon class="cls-29" points="803.41 42.03 852.98 52.65 851.09 63.07 804.09 60.07 791.92 56.31 803.41 42.03"/><polygon class="cls-20" points="802.67 26.66 803.41 42.03 791.92 56.31 786.92 39.16 802.67 26.66"/><polygon class="cls-20" points="852.98 52.65 851.09 63.07 853.46 74.95 868.38 82.1 872.17 72.66 852.98 52.65"/><polygon class="cls-29" points="868.38 82.1 853.46 74.95 850.54 91.97 854.02 94.67 856.37 88.07 863.66 93.83 868.38 82.1"/><polyline class="cls-32" points="687.94 179.72 737.48 188.52 752.68 168.42 742.19 145.41 760.55 132.99"/><polygon class="cls-21" points="714.89 262.19 683.97 262.19 683.97 258.98 702.27 256.11 714.89 258.98 714.89 262.19"/><polygon class="cls-21" points="738.14 265.4 713.53 265.4 713.53 262.19 724.64 259.77 738.14 262.19 738.14 265.4"/><polygon class="cls-29" points="701.67 243.71 683.97 258.98 714.2 258.98 717.52 255.15 716.06 250.03 710.64 243.15 701.67 243.71"/><polygon class="cls-33" points="744.66 116.69 718.31 129.58 727.89 114.35 728.52 104.98 738.23 52.48 744.34 63.76 744.33 74.9 746.95 76.15 748.25 74.4 757.58 77.29 744.66 116.69"/><polygon class="cls-12" points="710.23 112.65 695.82 121.04 687.94 179.72 711.26 188.75 737.48 188.52 752.68 168.42 742.19 145.41 760.55 132.99 744.66 116.69 718.31 129.58 710.23 112.65"/><polygon class="cls-34" points="684.29 106.39 731.49 108.94 735.27 86.83 738.23 52.48 709.39 36.96 686.2 43.87 684.29 106.39"/><polygon class="cls-35" points="738.23 108.94 718.31 129.58 706.05 107.56 738.23 108.94"/><polygon class="cls-10" points="718.31 129.58 734.73 137.09 744.66 116.69 718.31 129.58"/><polygon class="cls-10" points="710.23 112.65 703.58 130.36 718.31 129.58 710.23 112.65"/><polygon class="cls-11" points="752.68 168.42 773.35 172.71 760.55 132.99 742.19 145.41 752.68 168.42"/><polygon class="cls-19" points="687.94 179.72 713.53 202.67 737.48 188.52 687.94 179.72"/><polygon class="cls-21" points="688.72 40 701.95 48.11 726.23 47 738.23 52.48 744.34 63.76 745.48 73.88 747.17 78.67 748.25 74.4 757.58 77.29 762.75 61.53 757.58 29.86 711.37 18.2 686.24 25.8 688.72 40"/><polygon class="cls-33" points="678.67 149.65 691.87 150.46 687.94 179.72 678.67 149.65"/><polygon class="cls-11" points="678.67 149.65 691.87 150.46 695.82 121.04 678.67 149.65"/><polygon class="cls-20" points="716.06 250.03 713.53 262.19 738.14 262.19 735.81 250.03 725.84 246.15 716.06 250.03"/><polygon class="cls-11" points="713.53 202.67 687.94 179.72 696.38 219.04 714.75 225.51 718.81 216.53 713.53 202.67"/><polygon class="cls-10" points="714.75 225.51 727.52 228.9 742.73 224.41 749.64 197.28 749.77 192.96 737.48 188.52 713.53 202.67 714.75 225.51 714.75 225.51"/><polygon class="cls-33" points="735.81 250.03 742.73 224.41 742.73 224.41 735.81 250.03"/><polygon class="cls-19" points="696.38 219.04 701.67 243.71 716.06 250.03 721.31 237.22 714.75 225.51 696.38 219.04"/><polygon class="cls-11" points="714.75 225.51 714.75 225.51 716.06 250.03 735.81 250.03 742.73 224.41 714.75 225.51"/><polygon class="cls-34" points="752.68 168.42 773.35 172.71 749.64 197.28 737.48 188.52 752.68 168.42"/><polygon class="cls-29" points="738.23 52.48 762.75 61.53 758.75 73.86 749.41 70.97 747.39 78.67 741.8 76.87 744.34 63.76 738.23 52.48"/><polygon class="cls-20" points="701.95 48.11 686.24 25.8 711.37 18.2 701.95 48.11"/><polygon class="cls-20" points="757.58 29.86 701.95 48.11 738.23 52.48 762.75 61.53 757.58 29.86"/><polygon class="cls-29" points="686.24 25.8 701.95 48.11 686.2 43.87 686.24 25.8"/><polygon class="cls-35" points="746.38 82.5 753.59 89.58 754.96 85.43 746.38 82.5"/><polygon class="cls-36" points="699.86 67.91 699.61 80.67 704.94 80.67 704.94 67.91 699.86 67.91"/><polygon class="cls-35" points="699.61 80.67 702.27 84.17 704.94 80.67 699.61 80.67"/><polygon class="cls-35" points="699.77 87.06 716.88 87.79 713.95 94.41 700.76 93.99 699.77 87.06"/><polygon class="cls-16" points="701.48 88.44 714.95 88.88 714.11 90.92 702.54 90.55 701.48 88.44"/><polygon class="cls-29" points="698.8 64.81 697.64 61.53 688.72 60.81 688.72 63.17 698.8 64.81"/><polygon class="cls-29" points="707.33 64.81 707.64 61.53 723.35 61.69 723.27 63.77 707.33 64.81"/><polygon class="cls-34" points="749.41 70.97 746.38 82.5 754.96 85.43 758.75 73.86 749.41 70.97"/><polygon class="cls-35" points="749.92 77.37 755.57 75.35 750.8 73.88 749.92 77.37"/><polygon class="cls-33" points="698.8 64.81 699.86 67.91 699.61 77.78 695.22 72.53 688.72 63.17 698.8 64.81"/><polygon class="cls-33" points="707.33 64.81 704.94 67.91 704.94 80.67 712.22 73.86 723.27 63.77 707.33 64.81"/><path class="cls-31" d="M698.66,71.65a2.74,2.74,0,1,1-2.74-2.73A2.74,2.74,0,0,1,698.66,71.65Z"/><path class="cls-31" d="M714.11,72.53a2.74,2.74,0,1,1-2.74-2.74A2.74,2.74,0,0,1,714.11,72.53Z"/><polygon class="cls-5" points="216.81 325.02 230.22 329.4 247.77 325.79 232.08 322.78 216.81 325.02"/><polygon class="cls-5" points="181.47 300.25 224.63 289.48 285.43 296.25 230.22 305.93 181.47 300.25"/><polygon class="cls-19" points="241.06 206.7 245.32 220.46 248.55 277.55 236.41 277.55 228.07 246.07 241.06 206.7"/><polygon class="cls-10" points="208.71 140.3 194.79 153.31 189.81 135.16 208.71 140.3"/><polygon class="cls-37" points="185.03 128.43 194.97 134.08 209.92 136.5 235.44 146.01 238.4 129.46 185.03 128.43"/><polygon class="cls-11" points="185.12 128.84 208.32 135.16 208.71 140.3 186.46 135.16 185.12 128.84"/><polygon class="cls-38" points="247.95 93.09 258.23 55.87 248.54 53 240.91 65.41 247.95 93.09"/><polygon class="cls-39" points="241.34 55.75 249.66 69.61 256.33 121.37 213.04 125.99 204.33 61.09 241.34 55.75"/><path class="cls-40" d="M247.72,54.48l1.88,15.14L218.83,79.75S214.14,65,214.6,64.46s.69-2.52,1.75-5.09l31.37-4.7Z"/><polygon class="cls-31" points="175.38 68.39 173.05 72.71 167.23 124.05 167.72 130.91 190.39 85.11 175.38 68.39"/><polygon class="cls-29" points="175.38 68.39 156.72 83.38 167.55 130.41 175.38 68.39"/><polygon class="cls-41" points="210.94 142.36 190.38 85.92 204.33 61.09 214.71 126.68 229.56 134.14 232.18 140.25 234.37 150.11 237.16 157.53 213.38 155.25 210.94 142.36"/><polygon class="cls-40" points="202.92 120.36 200.04 112.26 205.29 111.67 202.92 120.36"/><polygon class="cls-40" points="200.97 115.11 198.58 108.51 206.28 105.4 200.97 115.11"/><polygon class="cls-40" points="233.96 123.7 214.53 125.82 211.42 126.29 234.37 150.11 234.37 145.77 233.96 123.7"/><polygon class="cls-37" points="180.25 75.87 174.29 75.83 173.47 83.5 184.44 83.12 180.25 75.87"/><polygon class="cls-29" points="190.19 60.99 184.31 63.03 180.25 75.87 190.64 94.32 202.14 95.91 206.35 94.43 201.63 66 190.19 60.99"/><polygon class="cls-41" points="236.4 98.07 220.73 85.32 209.11 81.67 227 79.99 237.03 78.07 241.52 75.62 250.18 76.94 244.77 83.05 241.06 97.29 238.7 98.89 236.4 98.07"/><polygon class="cls-42" points="237.03 78.07 241.06 97.29 236.4 98.07 228.81 78.47 237.03 78.07"/><polygon class="cls-40" points="239.18 100.52 241.06 97.29 236.4 98.07 239.18 100.52"/><polygon class="cls-37" points="247.98 107.86 236.08 104.48 221.04 105.68 234.51 108.14 247.98 107.86"/><polygon class="cls-31" points="250.18 76.94 241.67 73.5 237.03 78.07 250.18 76.94"/><polygon class="cls-39" points="200.8 90.24 190.64 94.32 198.76 108.96 206.28 105.4 200.8 90.24"/><polygon class="cls-40" points="201.58 99.32 200.38 94.3 194.79 95.86 201.58 99.32"/><path class="cls-37" d="M198.44,103.27l7,8.4L199,120.34l-7-9.26,6.24-7.81Zm4.09,8.65-3.64,4-3.76-3.82,3.64-4.54h0Z"/><polygon class="cls-21" points="258.23 55.87 248.02 37.24 239.61 38.81 194.51 57.05 190.19 60.99 197.39 64.93 251.65 59.93 258.23 55.87"/><polygon class="cls-29" points="248.02 37.24 197.56 40.01 190.19 60.99 248.02 37.24"/><polygon class="cls-11" points="164.1 32.01 170.03 35.01 204.33 28.88 209.92 11.86 200.04 2.05 200.04 23.86 164.1 32.01"/><polygon class="cls-18" points="229.79 81.14 258.23 55.87 190.19 60.99 184.44 83.12 229.79 81.14"/><path class="cls-31" d="M241,85.17a2.78,2.78,0,0,0,5.56,0,2.78,2.78,0,1,0-5.56,0"/><path class="cls-31" d="M221.83,88.47a2.84,2.84,0,0,0,2.83,2.82,2.78,2.78,0,0,0,0-5.56,2.82,2.82,0,0,0-2.87,2.74"/><polygon class="cls-10" points="238.4 129.46 240.13 143.14 232.08 155.02 238.4 129.46"/><polygon class="cls-43" points="240.13 143.14 240.13 143.14 255.25 173.22 245.19 196.3 214.57 190.1 207.53 167.92 209.92 139.55 232.08 155.02 240.13 143.14"/><polygon class="cls-12" points="250.18 150.11 265.31 173.03 253.61 177.64 255.39 173.46 240.13 143.14 250.18 150.11"/><polygon class="cls-12" points="245.19 196.3 241.06 206.7 210.95 196.3 214.57 190.1 245.19 196.3"/><polygon class="cls-43" points="207.53 167.92 202.67 170.73 188.88 164.28 193.78 154.25 208.71 140.3 207.53 167.92"/><polygon class="cls-9" points="199.96 198.83 164.1 32.01 170.03 35.01 204 197.97 199.96 198.83"/><polygon class="cls-43" points="241.06 206.7 217.6 280.13 205.46 280.13 203.53 202.75 210.95 196.3 241.06 206.7"/><polygon class="cls-19" points="205.46 286.32 200.82 298.96 219.39 298.96 215.63 286.31 212.43 283.23 205.46 286.32"/><rect class="cls-10" x="200.82" y="298.96" width="18.57" height="2.58"/><rect class="cls-10" x="238.47" y="293.67" width="27.09" height="2.58"/><polygon class="cls-39" points="248.55 277.55 249.71 285.29 238.47 285.29 236.41 277.55 248.55 277.55"/><polygon class="cls-19" points="238.47 293.68 265.56 293.68 249.71 285.29 238.47 285.29 238.47 293.68"/><polygon class="cls-43" points="232.08 155.02 208.71 140.3 208.32 135.16 232.08 155.02"/><polygon class="cls-12" points="232.08 155.02 236.58 170.5 207.53 167.92 208.71 140.3 232.08 155.02"/><polygon class="cls-11" points="240.13 143.14 232.08 155.02 236.58 170.5 255.39 173.46 240.13 143.14 240.13 143.14"/><polygon class="cls-37" points="236.58 170.5 231.93 193.61 245.19 196.3 255.39 173.46 236.58 170.5"/><polygon class="cls-43" points="265.31 173.03 256.33 190.57 212.77 184.43 209.92 175.46 265.31 173.03"/><polygon class="cls-13" points="235.84 174.32 224.33 174.83 222.89 185.86 227.62 186.52 233.2 187.31 235.84 174.32"/><polygon class="cls-39" points="209.92 175.46 199.14 172.76 196.58 179.36 201.98 185.86 212.77 184.43 209.92 175.46"/><polygon class="cls-41" points="224.33 174.83 222.89 185.86 212.77 184.43 209.92 175.46 224.33 174.83"/><polygon class="cls-41" points="197.55 143.41 200.04 151.15 196.47 152.62 194.46 143.41 197.55 143.41"/><polygon class="cls-44" points="234.06 228.59 219.39 199.21 241.06 206.7 234.06 228.59"/><polygon class="cls-37" points="204.81 253.98 205.46 280.13 217.6 280.13 225.1 256.66 204.81 253.98"/><polygon class="cls-12" points="203.98 220.98 205.88 220.29 208.71 208.35 203.66 208.35 203.98 220.98"/><polygon class="cls-12" points="219.39 199.21 208.71 280.13 205.46 280.13 216.32 198.15 219.39 199.21"/><polygon class="cls-10" points="208.85 254.52 205.46 280.13 208.71 280.13 212.03 254.94 208.85 254.52"/><polygon class="cls-39" points="217.6 280.13 215.63 286.31 205.46 286.32 205.46 280.13 217.6 280.13"/><rect class="cls-37" x="207.01" y="290.06" width="8.13" height="1.59"/><polygon class="cls-13" points="196.12 158.05 198.74 163.13 199.55 170.51 185.69 169.56 185.69 161.81 196.12 158.05"/><rect class="cls-37" x="207.01" y="293.29" width="8.13" height="1.59"/><polygon class="cls-12" points="185.69 169.56 198.74 163.13 202.67 170.73 185.69 180.53 185.69 169.56"/><polygon class="cls-37" points="230.73 256.11 247.21 253.98 248.55 277.55 236.41 277.55 230.73 256.11"/><polygon class="cls-12" points="234.06 228.59 241.06 277.55 238.31 277.55 232.08 234.79 234.06 228.59"/><polygon class="cls-10" points="235.1 255.55 238.31 277.55 241.06 277.55 237.86 255.19 235.1 255.55"/><polygon class="cls-37" points="253.12 287.1 249.71 288.39 251.32 289.03 254.65 287.9 253.12 287.1"/><polygon class="cls-37" points="256.19 288.72 252.93 290.06 255.25 290.86 257.51 289.42 256.19 288.72"/><polygon class="cls-10" points="169.43 32.15 200.04 23.86 200.04 2.05 173.47 11.86 165.21 25.53 164.1 32.01 169.43 32.15"/><polygon class="cls-19" points="173.47 11.86 169.43 32.15 164.1 32.01 165.21 25.53 173.47 11.86"/><polygon class="cls-44" points="199.96 198.83 204.67 197.76 202.04 185.84 199.26 181.33 199.15 172.76 191.97 140.3 187.57 141.18 199.96 198.83"/><polygon class="cls-41" points="199.14 172.76 201.98 185.86 194.8 186.92 191.45 177.2 199.14 172.76"/><polygon class="cls-39" points="197.55 157.53 185.69 161.81 182.07 143.41 194.46 143.41 197.55 157.53"/><polygon class="cls-43" points="245.36 107.91 236.11 110.91 222.05 105.87 245.36 107.91"/><circle class="cls-13" cx="231.23" cy="319.51" r="8.04" transform="translate(-93.24 543.74) rotate(-88.75)"/><polygon class="cls-5" points="742.19 145.41 738.14 187.64 752.68 168.42 742.19 145.41"/></g></g></svg>