<svg xmlns="http://www.w3.org/2000/svg" viewBox="0 0 900 350"><defs><style>.cls-1{fill:#c4c4c2;}.cls-2{fill:#a3a1a1;}.cls-3,.cls-52{fill:#e1a940;}.cls-32,.cls-4{fill:#dddddc;}.cls-5,.cls-69{fill:#f0bc67;}.cls-6,.cls-71{fill:#e4c723;}.cls-10,.cls-11,.cls-31,.cls-32,.cls-33,.cls-34,.cls-35,.cls-36,.cls-37,.cls-38,.cls-39,.cls-40,.cls-41,.cls-42,.cls-43,.cls-44,.cls-45,.cls-46,.cls-47,.cls-48,.cls-49,.cls-50,.cls-51,.cls-52,.cls-6,.cls-69,.cls-7,.cls-8,.cls-83,.cls-84,.cls-85,.cls-86,.cls-87,.cls-88,.cls-89,.cls-9,.cls-90,.cls-91,.cls-92{fill-rule:evenodd;}.cls-7,.cls-72{fill:#cbad2d;}.cls-12,.cls-8{fill:#b38b2e;}.cls-70,.cls-81,.cls-9,.cls-91{fill:#2b2b2b;}.cls-70,.cls-9{opacity:0.1;}.cls-10,.cls-29{fill:#858686;}.cls-11,.cls-30{fill:#6f7273;}.cls-13{fill:#755446;}.cls-14{fill:#916d5a;}.cls-15{fill:#ebebea;}.cls-16{fill:#c3c3c3;}.cls-17,.cls-33{fill:#9c782c;}.cls-18,.cls-19,.cls-47{fill:#2b2c2b;}.cls-18{fill-opacity:0.1;}.cls-20,.cls-48{fill:#484848;}.cls-21,.cls-34{fill:#755924;}.cls-22,.cls-31{fill:#836528;}.cls-23,.cls-51{fill:#bc8f2d;}.cls-24{fill:#51362a;}.cls-25,.cls-49{fill:#505354;}.cls-26{fill:#98796a;}.cls-27,.cls-44{fill:#fff;}.cls-28,.cls-86{fill:#4f5353;}.cls-35{fill:#737374;}.cls-36{fill:#838383;}.cls-37{fill:#5e5f5f;}.cls-38{fill:#fbe3d4;}.cls-39{fill:#969696;}.cls-40{fill:#7c7b7b;}.cls-41{fill:#f4cab2;}.cls-42{fill:#c18f7c;}.cls-43{fill:#fff0e8;}.cls-45{fill:#c8ac9a;}.cls-46{fill:#aeaeae;}.cls-50{fill:#f3d65c;}.cls-53{fill:#8f7f74;}.cls-54{fill:#5f5145;}.cls-55{fill:#debda6;}.cls-56{fill:#c2987a;}.cls-57{fill:#856628;}.cls-58{fill:#b48c2e;}.cls-59{fill:#ccae2c;}.cls-60{fill:#e4c825;}.cls-61{fill:#f4d85c;}.cls-62{fill:#8c6752;}.cls-63{fill:#74665c;}.cls-64{fill:#e9cbb7;}.cls-65{fill:#9e792c;}.cls-66{fill:#bd902d;}.cls-67{fill:#272626;}.cls-68{fill:#404040;}.cls-73{fill:#c2977a;}.cls-74{fill:#debca4;}.cls-75{fill:#8a6651;}.cls-76{fill:#474747;}.cls-77{fill:#333;}.cls-78{fill:#737373;}.cls-79{fill:#505353;}.cls-80{fill:#e8c9b6;}.cls-82,.cls-89{fill:#ececeb;}.cls-83{fill:#444648;}.cls-84{fill:#5e5e5f;}.cls-85{fill:#eed2c1;}.cls-87{fill:#eaeceb;}.cls-88{fill:#ba8e2d;}.cls-90{fill:#494749;}.cls-92{fill:#be9b82;}</style></defs><title>explorers_Entertainer_ESFP_career_path</title><g id="ILLUSTRATION_copy" data-name="ILLUSTRATION copy"><g id="wall_copy" data-name="wall copy"><polygon class="cls-1" points="433.07 120.34 464.61 34.85 900 0 874.97 306.25 460.1 244.84 433.07 120.34"/><polygon class="cls-2" points="252.95 26.58 216.91 79.92 192.21 51.92 5.34 41.25 3.34 29.92 252.95 26.58"/><polygon class="cls-1" points="248.94 242.58 230.26 270.25 191.55 265.25 192.21 51.92 232.93 43.92 248.94 242.58"/><polygon class="cls-3" points="433.07 120.34 464.61 34.85 900 0 896.33 45.25 464.1 58.08 433.07 120.34"/><polygon class="cls-4" points="230.26 270.25 460.1 244.84 464.61 34.85 0 0.58 10.01 23.25 232.93 37.25 230.26 270.25"/><polygon class="cls-5" points="3.34 29.92 464.1 58.08 464.61 34.85 0 0.58 3.34 29.92"/><polygon class="cls-3" points="460.51 70 463.93 68.25 894.99 57.58 893.99 71.58 463.85 75.25 460.51 70"/><polygon class="cls-5" points="232.59 52.92 463.93 68.25 463.85 75.25 232.93 62.58 232.59 52.92"/></g><g id="picture_on_the_wall_copy" data-name="picture on the wall copy"><polygon class="cls-6" points="778.03 97.92 774.86 244.58 844.27 251.25 849.44 98.58 778.03 97.92"/><polygon class="cls-7" points="794.55 143.92 808.9 107.42 833.59 123.25 830.92 176.58 802.23 172.92 794.55 143.92"/><polygon class="cls-8" points="791.55 181.92 788.88 169.25 791.21 115.58 808.9 107.42 806.56 183.58 791.55 181.92"/><polygon class="cls-7" points="816.91 169.25 827.25 154.58 846.94 169.58 843.6 245.25 817.58 245.92 816.91 169.25"/><polygon class="cls-8" points="798.55 248.58 804.23 163.25 827.25 154.58 821.91 245.25 798.55 248.58"/><polygon class="cls-7" points="784.54 179.92 788.88 169.25 812.9 181.25 810.57 247.92 781.53 241.92 784.54 179.92"/><polygon class="cls-8" points="774.19 175.25 788.88 169.25 786.87 239.25 771.19 239.92 774.19 175.25"/><polygon class="cls-9" points="837.93 249.25 847.27 261.58 833.26 268.92 752.34 257.25 759.68 112.08 778.7 95.08 766.35 247.75 837.93 249.25"/><polygon class="cls-10" points="850.11 99.58 853.45 92.58 863.46 94.25 857.95 255.92 847.27 261.58 850.11 99.58"/><path class="cls-11" d="M771.36,94.25l-7.18,156.33,83.09,11,6.18-169Zm64.82,146.5-60.32-6.17,5.84-129,60.07-.5Z"/><polygon class="cls-12" points="793.08 193.53 796.02 194.5 796.22 190.06 793.26 189 793.08 193.53"/><polygon class="cls-12" points="801.22 221.5 798.16 220.88 798.04 224.31 801.11 224.79 801.22 221.5"/><polygon class="cls-12" points="799.17 191.12 799.02 195.48 802.05 196.47 802.19 192.2 799.17 191.12"/><polygon class="cls-12" points="794.84 220.21 792.02 219.65 791.87 223.36 794.67 223.8 794.84 220.21"/><polygon class="cls-12" points="795.14 213.55 795.33 209.45 792.46 208.72 792.29 212.88 795.14 213.55"/><polygon class="cls-12" points="808.44 189.79 808.57 185.92 805.56 184.75 805.43 188.6 808.44 189.79"/><polygon class="cls-12" points="798.86 200.32 798.71 204.51 801.75 205.28 801.89 201.21 798.86 200.32"/><polygon class="cls-12" points="801.43 215.03 801.57 211.06 798.52 210.27 798.38 214.31 801.43 215.03"/><polygon class="cls-12" points="795.79 199.42 792.87 198.56 792.69 203 795.59 203.73 795.79 199.42"/><polygon class="cls-12" points="807.36 222.74 804.3 222.12 804.19 225.26 807.26 225.74 807.36 222.74"/><polygon class="cls-12" points="797.83 230.41 797.72 233.75 800.81 234 800.92 230.6 797.83 230.41"/><polygon class="cls-12" points="804.64 211.85 804.51 215.75 807.56 216.47 807.69 212.63 804.64 211.85"/><polygon class="cls-12" points="791.6 230.04 791.46 233.42 794.22 233.67 794.38 230.21 791.6 230.04"/><polygon class="cls-12" points="804 230.79 803.89 234.08 806.98 234.25 807.09 230.97 804 230.79"/><polygon class="cls-12" points="796.45 185.04 796.63 181.08 793.63 179.75 793.47 183.86 796.45 185.04"/><polygon class="cls-12" points="802.35 187.38 802.48 183.5 799.47 182.25 799.34 186.18 802.35 187.38"/><polygon class="cls-12" points="804.98 202.11 804.84 206.06 807.88 206.83 808 203 804.98 202.11"/><polygon class="cls-12" points="805.27 193.3 805.13 197.49 808.15 198.48 808.29 194.38 805.27 193.3"/><polygon class="cls-8" points="828 142.25 821.78 139.08 821.58 142.35 827.83 145.08 828 142.25"/><polygon class="cls-8" points="819.17 137.75 812.42 134.31 812.23 138.27 818.98 141.22 819.17 137.75"/><polygon class="cls-8" points="822.68 124.97 828.84 128.41 829 125.67 822.87 121.95 822.68 124.97"/><polygon class="cls-8" points="819.66 128.99 812.85 125.67 812.66 129.44 819.45 132.7 819.66 128.99"/><polygon class="cls-8" points="821.25 147.5 821 151.31 827.25 154.58 827.47 150.93 821.25 147.5"/><polygon class="cls-8" points="818.71 146.11 812.02 142.43 811.82 146.5 818.49 149.99 818.71 146.11"/><polygon class="cls-8" points="822.11 133.98 828.32 136.96 828.54 133.32 822.34 130.3 822.11 133.98"/><polygon class="cls-8" points="819.97 123.45 820.14 120.3 813.32 116.17 813.15 119.64 819.97 123.45"/><polygon class="cls-8" points="833.09 213.45 829.12 213.04 828.89 218.1 832.8 219.09 833.09 213.45"/><polygon class="cls-8" points="835.19 172.89 835.43 168.25 831.26 165.75 831.03 170.84 835.19 172.89"/><polygon class="cls-8" points="830.58 180.74 830.34 186.11 834.42 187.68 834.69 182.47 830.58 180.74"/><polygon class="cls-8" points="828.36 229.66 828.09 235.75 831.92 236.08 832.24 229.95 828.36 229.66"/><polygon class="cls-8" points="829.84 196.96 829.58 202.89 833.6 203.67 833.86 198.63 829.84 196.96"/></g><polygon class="cls-13" points="207.41 180.22 207.41 176.93 209.6 163.76 213.45 163.76 214.55 169.8 232.68 167.05 233.22 171.44 222.79 174.74 212.9 187.9 207.41 180.22"/><polygon class="cls-14" points="222.79 185.71 222.79 174.74 213.45 175.83 212.9 187.9 222.79 185.71"/><polygon class="cls-15" points="201.36 184.06 204.11 178.57 207.41 176.93 210.15 181.87 207.96 184.61 202.46 185.71 201.36 184.06"/><polygon class="cls-16" points="210.15 181.87 212.9 187.9 207.96 191.2 202.46 185.71 210.15 181.87"/><polygon class="cls-12" points="192.03 181.87 199.17 179.67 204.11 178.57 207.96 191.2 195.32 198.88 192.03 181.87"/><path class="cls-17" d="M181,164.31s8.24-4.94,8.24-4.39,9.89,20.3,9.89,20.3l-3.85,19.21-11.53-9.88Z"/><polygon class="cls-17" points="133.8 158.28 130.5 155.53 115.62 186.47 122.27 205.46 134.9 192.84 133.8 158.28"/><polygon class="cls-18" points="214 278.99 156.87 290.51 107.98 280.63 158.52 275.15 214 278.99"/><polygon class="cls-19" points="187.63 276.79 195.87 279.54 195.87 282.28 163.46 282.83 164.01 279.54 167.86 275.15 187.63 276.79"/><polygon class="cls-19" points="153.57 278.44 156.32 282.83 156.32 285.57 132.7 285.57 132.7 283.38 153.57 278.44"/><path class="cls-20" d="M171.7,262.53l7.69,3.29,16.48,14.26H164v-9.32l7.69-7.68Z"/><polygon class="cls-20" points="147.53 258.69 140.94 268.01 132.7 283.38 156.32 282.83 155.22 270.76 147.53 258.69"/><polygon class="cls-21" points="156.87 236.19 157.97 250.46 155.22 270.76 140.94 268.01 138.19 246.06 156.87 236.19"/><polygon class="cls-21" points="174.45 235.09 181.59 244.42 179.39 265.82 164.01 270.76 161.81 251 174.45 235.09"/><polygon class="cls-22" points="183.79 219.18 181.59 244.42 161.81 251 160.72 233.44 161.26 210.95 178.29 214.79 184.34 215.89 183.79 219.18"/><polygon class="cls-22" points="146.98 211.5 164.56 214.24 160.72 232.9 157.97 250.46 138.19 246.06 133.25 210.4 146.98 211.5"/><path class="cls-17" d="M173.35,201.62l-8.79,12.62-13.73,10.43L133.25,210.4l1.1-17.56s30.21-2.74,30.76-2.74S173.35,201.62,173.35,201.62Z"/><polygon class="cls-12" points="179.94 186.81 183.79 189.55 183.79 199.98 181.59 203.27 183.79 204.37 184.34 215.89 174.45 223.02 164.56 214.24 166.21 196.13 179.94 186.81"/><polygon class="cls-12" points="155.77 180.77 166.21 196.13 134.9 192.84 130.5 155.53 139.84 150.59 155.77 180.77"/><polygon class="cls-23" points="181.04 163.21 181.59 154.43 189.28 159.37 183.79 189.55 166.21 196.13 166.76 163.76 181.04 164.31 181.04 163.21"/><path class="cls-16" d="M143.69,161s11,21.94,12.63,21.94c1.1,0,18.68-.54,18.68-.54l5.49-23-21.42-6-14.83,8.23Z"/><polygon class="cls-22" points="165.66 161.57 168.41 165.96 172.25 179.67 172.8 183.51 166.21 196.13 157.42 182.96 158.52 180.22 161.81 165.96 165.66 161.57"/><polygon class="cls-3" points="150.83 170.89 158.52 180.22 166.21 196.13 142.04 179.13 145.34 169.25 150.83 170.89"/><polygon class="cls-3" points="177.74 172.54 172.25 180.22 166.21 196.13 182.69 178.03 179.39 168.7 177.74 172.54"/><polygon class="cls-5" points="151.38 158.28 150.83 164.31 158.52 180.22 137.65 168.15 139.84 150.59 151.38 158.28"/><polygon class="cls-5" points="176.1 159.37 178.29 163.76 172.25 180.22 185.43 167.05 181.59 154.43 176.1 159.37"/><polygon class="cls-21" points="172.8 156.63 168.41 165.96 161.81 165.96 155.77 157.18 163.46 150.04 172.8 156.63"/><polygon class="cls-13" points="155.77 146.2 146.43 152.24 143.69 144.56 139.84 126.45 139.84 88.59 162.36 79.26 162.36 147.85 155.77 146.2"/><polygon class="cls-24" points="177.19 141.26 174.45 149.5 173.9 154.43 167.86 154.98 162.36 154.98 153.03 152.79 146.98 139.07 151.93 141.26 170.05 137.97 177.19 141.26"/><polygon class="cls-24" points="144.24 114.38 146.98 117.67 139.84 126.45 138.74 119.87 144.24 114.38"/><polygon class="cls-19" points="146.98 84.75 146.98 91.88 147.53 105.6 139.84 106.69 135.45 103.95 132.15 85.3 146.98 84.75"/><polygon class="cls-20" points="163.46 67.19 146.98 60.61 132.15 85.3 146.98 91.88 150.83 86.39 162.36 79.26 163.46 67.19"/><polygon class="cls-25" points="187.63 81.46 193.12 72.68 184.34 60.61 146.98 60.61 159.07 73.23 187.63 81.46"/><polygon class="cls-14" points="193.12 72.68 198.07 80.36 199.17 118.77 188.18 142.36 151.93 141.26 150.83 86.39 159.07 73.23 193.12 72.68"/><path class="cls-13" d="M191.48,90.78l-6,3.84-2.74,4.94-2.75,2.2-2.2-2.2-3.84-4.94-11.54-4.39-4.94,3.85,7.14,7.13,8.79,13.17,6.59-1.1c.55,0,4.95,1.1,4.95,1.1l5.49-12.07,5.49-8.78L192,91.33l-1.65.55Z"/><polygon class="cls-19" points="178.84 114.93 179.94 116.57 178.29 119.32 163.46 122.06 165.66 117.67 177.74 114.38 178.84 114.93"/><polygon class="cls-19" points="182.14 114.38 191.48 118.77 192.03 121.51 181.04 119.32 179.94 116.57 182.14 114.38"/><polygon class="cls-24" points="182.14 109.44 185.98 113.28 179.94 116.57 174.45 113.28 182.14 109.44"/><polygon class="cls-19" points="196.42 92.43 192.03 89.69 184.34 91.88 185.43 94.62 192.03 91.33 195.87 93.53 196.42 92.43"/><polygon class="cls-19" points="175 91.88 162.91 88.59 157.42 91.88 157.97 93.53 162.91 91.33 174.45 94.08 175 91.88"/><polygon class="cls-26" points="182.69 99.01 177.74 99.01 174.45 113.28 185.98 113.28 182.69 99.01"/><polygon class="cls-24" points="189.28 122.61 166.21 122.06 171.7 131.39 184.34 131.39 189.28 122.61"/><polygon class="cls-14" points="144.78 101.76 135.45 103.95 138.74 119.87 146.98 117.67 144.78 101.76"/><polygon class="cls-24" points="142.59 111.64 142.04 106.15 138.74 107.25 142.59 111.64"/><polygon class="cls-15" points="143.69 116.02 144.24 119.87 141.49 120.96 140.94 116.57 143.69 116.02"/><polygon class="cls-15" points="143.69 144.56 162.36 154.98 150.83 164.31 139.84 150.59 143.69 144.56"/><polygon class="cls-15" points="181.59 154.43 174.45 149.5 167.86 154.98 178.29 163.76 181.59 154.43"/><polygon class="cls-23" points="183.79 199.98 173.9 201.07 174.45 205.46 183.79 204.37 183.79 199.98"/><polygon class="cls-23" points="155.22 201.07 140.39 198.88 139.84 203.81 154.12 206.01 155.22 201.07"/><polygon class="cls-27" points="187.08 123.71 168.95 123.71 172.8 130.29 183.79 129.74 187.08 123.71"/><circle class="cls-19" cx="189.18" cy="100.66" r="2.2"/><path class="cls-19" d="M166.66,97.92a2.2,2.2,0,1,0,2.2,2.19A2.2,2.2,0,0,0,166.66,97.92Z"/><polygon class="cls-21" points="160.72 232.9 174.45 223.02 164.56 214.24 150.83 225.22 160.72 232.9"/><polygon class="cls-13" points="149.21 191.91 155.77 181.2 159.54 184.59 157.64 190.39 149.21 191.91"/><polygon class="cls-28" points="162.12 185.35 155.77 181.2 167.41 178.81 176.41 182.33 167.47 187.3 162.12 185.35"/><polygon class="cls-29" points="162.69 192.14 167.35 183.97 176.41 182.33 175.53 201.94 167.85 205.96 162.69 192.14"/><polygon class="cls-30" points="155.77 181.2 158.41 204.58 167.85 205.96 167.35 183.97 155.77 181.2"/><polygon class="cls-14" points="149.32 191.48 161.79 187.27 164.12 194.87 165.26 201.24 151.97 203.15 149.21 197.79 149.32 191.48"/><polygon class="cls-13" points="161.79 187.27 172.99 186.01 172.99 195.25 165.26 201.24 161.79 187.27"/><polygon class="cls-31" points="142.28 190.67 146.63 195.87 145.17 201.39 143.66 204.18 121.12 206.93 115.62 186.47 142.28 190.67"/><polygon class="cls-32" points="143.66 204.18 142.28 190.67 149.32 191.48 151.97 203.15 143.66 204.18"/><g id="tree_characters_on_the_left_copy" data-name="tree characters on the left copy"><path class="cls-9" d="M308.84,278.5l-108.62-12-44.55,8.75-58.06-2.5-83.09,14,55.06,21.5,104.11-16s104.12,7,105.62,6Z"/><polygon class="cls-33" points="262.58 269.34 258.43 281.52 269.39 283.14 283.93 283.14 282.72 275.25 271.81 271.43 262.58 269.34"/><polygon class="cls-34" points="258.43 281.52 258.43 287.26 283.93 288.13 283.93 283.14 258.43 281.52"/><polygon class="cls-33" points="237.85 270.85 237.85 277.34 221.93 278.85 206 275.95 221.16 263.42 230.19 265.16 237.85 270.85"/><polygon class="cls-34" points="206 275.95 206 280.82 237.85 281.75 237.85 277.34 206 275.95"/><polygon class="cls-35" points="245.69 251.56 237.85 270.85 221.16 263.42 221.44 242.84 237.35 216.27 245.69 251.56"/><polygon class="cls-36" points="237.35 216.27 250.9 238.83 245.69 251.56 221.44 242.84 222.24 217.35 222.89 206.68 228.03 202.22 237.35 216.27"/><polygon class="cls-37" points="227.62 202.57 250.9 238.83 265.77 224.22 271.34 213.17 246.02 216.27 227.62 202.57"/><polygon class="cls-35" points="264.03 222.57 256.77 253.75 262.58 269.34 282.72 275.25 283.15 250.83 279.07 216.27 271.35 213.24 264.03 222.57"/><polygon class="cls-36" points="271.34 213.17 284.05 220.42 283.15 250.83 256.77 253.75 250.9 238.83 271.34 213.17"/><polygon class="cls-7" points="224.87 147.38 205.85 184.48 226.2 183.72 224.87 147.38"/><polygon class="cls-7" points="289.21 149.07 307.39 186.59 282.82 187.51 289.21 149.07"/><polygon class="cls-33" points="271.52 143.43 284.41 154.99 276.13 205.76 247.35 217.98 222.89 200.32 224.87 147.38 231.4 145.46 271.52 143.43"/><polygon class="cls-31" points="247.35 217.98 249.21 165.9 260.61 159 279.12 145.86 289.21 149.07 284.12 210.61 265.13 211.7 247.35 217.98"/><polygon class="cls-38" points="239.34 143.38 249.21 165.9 271.52 143.43 239.34 143.38"/><polygon class="cls-39" points="282.56 109.75 285.25 112.26 285.75 125.39 276.2 127.83 282.56 109.75"/><polygon class="cls-40" points="215.68 82.57 209.96 90.4 211.45 94.44 214.12 102.03 216.06 92.98 215.68 82.57"/><polygon class="cls-38" points="215.68 82.57 211.59 133.87 235.72 136.69 251.12 150.5 268.77 140.6 279.42 111.72 274.86 104.65 275.06 86.92 259.42 74.65 237.16 77.42 229.03 75.02 215.68 82.57"/><polygon class="cls-41" points="265.01 79.03 255.85 139.65 235.72 136.69 246.52 144.95 250.35 153 271.52 143.43 276.2 127.83 276.09 124.61 278.48 121.95 282.86 110.64 274.86 104.65 275.06 86.92 265.01 79.03"/><polygon class="cls-41" points="250.87 98.11 235.44 110.12 229.4 109.2 217.67 95.1 222.13 90.37 230.39 91.73 230.74 96.5 236.31 96.85 238.73 92.42 247.96 91.65 250.87 98.11"/><polygon class="cls-42" points="234.77 110.02 231.49 113.14 229.4 109.2 232.91 107.45 234.77 110.02"/><polygon class="cls-43" points="236.31 96.85 234.77 110.02 229.4 109.2 230.74 96.5 236.31 96.85"/><polygon class="cls-42" points="219.22 116.07 246.27 117.63 238.34 127.43 224.49 126.38 219.22 116.07"/><polygon class="cls-44" points="222.56 118.08 241.9 119.17 237.47 125.68 225.72 124.61 222.56 118.08"/><polygon class="cls-42" points="231.05 136.14 264.45 139.81 250.35 153 231.05 136.14"/><polygon class="cls-45" points="278.48 121.95 272.58 120.07 276.2 127.83 278.48 121.95"/><polygon class="cls-42" points="275.55 116.6 277.17 111.25 280.35 112.53 275.55 116.6"/><polygon class="cls-39" points="215.68 82.57 216.72 75.96 235.53 67.73 232.84 72.31 229.03 75.02 215.68 82.57"/><polygon class="cls-46" points="229.03 75.02 235.53 67.73 251.29 66 245.37 72.7 234.73 79.59 229.03 75.02"/><polygon class="cls-39" points="251.29 66 263.92 69.53 261.96 73.22 257.5 75.77 234.73 79.59 251.29 66"/><polygon class="cls-46" points="263.92 69.53 286.79 84.48 279.29 87.81 272.04 87.7 257.5 75.77 263.92 69.53"/><polygon class="cls-39" points="272.04 87.7 286.79 84.48 288.75 106.22 277.5 101.12 270.42 95.57 272.04 87.7"/><polygon class="cls-40" points="288.75 106.22 285.25 112.26 276.2 107.27 271.88 119.13 265.68 116.58 270.42 95.57 288.75 106.22"/><path class="cls-47" d="M244.38,102.82a1.93,1.93,0,1,1-2-1.85A1.92,1.92,0,0,1,244.38,102.82Z"/><path class="cls-47" d="M224.41,100.69a1.92,1.92,0,1,1-2-1.85A1.92,1.92,0,0,1,224.41,100.69Z"/><polygon class="cls-40" points="238.73 92.42 249.39 88.93 250.87 98.11 247.22 92.52 241.68 94.58 238.73 92.42"/><polygon class="cls-40" points="230.39 91.73 221.24 87.79 217.67 95.1 222.68 91.74 227.53 93.98 230.39 91.73"/><polygon class="cls-42" points="234.77 110.02 251.31 115.68 259.64 114.55 249.45 111.6 234.77 110.02"/><polygon class="cls-42" points="229.4 109.2 213.45 110.44 213.63 108.11 223.39 107.81 229.4 109.2"/><polygon class="cls-48" points="261.96 99.19 281.91 105.56 282.76 110.88 276.2 107.27 259.91 105.25 261.96 99.19"/><polygon class="cls-49" points="230.73 96.33 236.31 96.85 236.41 99.72 229.42 99.13 230.73 96.33"/><path class="cls-49" d="M236.31,96.85,234.77,110l24.87,4.53L262,99.19Zm19.77,14.29-17.64-3.2.59-7.6,19.12,1.15Z"/><path class="cls-49" d="M211.45,94.44l-.84,13.46,18.79,1.3,1.33-12.87Zm15.23,12-12.8-1.38.59-7.45,13.06.94Z"/><polygon class="cls-50" points="271.52 143.43 274.19 144.28 274.89 144.99 276.43 145 279.12 145.86 256.83 168.05 254.15 167.29 253.58 166.64 251.85 166.65 249.21 165.9 271.52 143.43"/><polygon class="cls-50" points="239.34 143.38 249.21 165.9 246.21 166.01 244.85 165.25 243.88 166.1 241.4 166.19 231.4 145.46 233.91 144.75 235.31 144.78 236.64 144.06 239.34 143.38"/><polygon class="cls-33" points="251.85 166.65 274.19 144.28 276.42 145 254.15 167.29 251.85 166.65"/><polygon class="cls-31" points="236.64 144.06 246.21 166.01 243.88 166.1 233.91 144.75 236.64 144.06"/><polygon class="cls-50" points="226.05 192.92 247.66 209.25 248.66 212.31 247.35 217.98 229.72 205.81 227.32 200.55 226.05 192.92"/><polygon class="cls-7" points="247.66 209.25 277.49 202.97 277.73 209.37 271.34 213.17 247.35 217.98 247.66 209.25"/><polygon class="cls-33" points="227.19 197.06 247.55 212.47 248.42 213.56 247.44 215.41 228.03 200.08 227.19 197.06"/><polygon class="cls-31" points="247.55 212.47 277.61 206.21 277.71 208.78 247.44 215.41 247.55 212.47"/><polygon class="cls-50" points="223.51 183.71 228.68 202.47 220.38 205.84 214.52 202.26 205.85 184.48 223.51 183.71"/><polygon class="cls-31" points="228.68 202.47 228.03 200.08 226.82 199.46 227.19 197.06 226.05 192.92 214.52 202.26 215.98 205.1 216.88 205.97 217.17 207.4 219.05 211.04 224.53 207.13 228.68 202.47"/><polygon class="cls-50" points="215.99 205.1 227.19 197.06 228.03 200.08 217.18 207.4 215.99 205.1"/><polygon class="cls-41" points="228.68 202.47 229.72 205.81 222.24 217.35 219.05 211.04 228.68 202.47"/><polygon class="cls-50" points="286.23 185.03 280.43 196.94 284.32 211.1 292.19 207.68 307.39 186.59 286.23 185.03"/><polygon class="cls-33" points="276.13 205.76 277.49 202.97 278.57 202.46 278.71 200.47 280.43 196.94 292.19 207.68 289.61 211.27 287.97 212.32 287.7 213.91 284.95 217.72 279.39 213.12 276.13 205.76"/><polygon class="cls-50" points="278.71 200.47 289.61 211.27 287.7 213.91 277.49 202.97 278.71 200.47"/><polygon class="cls-41" points="276.13 205.76 271.34 213.17 284.05 220.42 284.95 217.72 276.13 205.76"/><path class="cls-8" d="M266.73,177.77l-4.17,6.9a8.79,8.79,0,0,0,4.66,2l2.34-9.14-2.08-8.31a8.8,8.8,0,0,0-5.89,3Z"/><path class="cls-8" d="M273.74,177.37l2.05,5.1a8.76,8.76,0,0,0-1.19-10.54Z"/><path class="cls-8" d="M265.31,177.92l-4.42-4.75a8.73,8.73,0,0,0,.83,10.69Z"/><path class="cls-8" d="M272.56,177.5l1-6.49a8.82,8.82,0,0,0-4.94-1.8l2.09,8.34-2.35,9.2h.18a8.72,8.72,0,0,0,6.43-3.18Z"/><polygon class="cls-50" points="228.74 191.52 238.78 185.5 240.02 187.51 230.08 193.01 228.74 191.52"/><polygon class="cls-7" points="265.95 189.84 275.18 197.32 273.64 198.81 264.1 191.35 265.95 189.84"/><polygon class="cls-33" points="283.21 57.57 291.38 79.76 286.79 84.48 271.45 74.45 275.48 65.09 283.21 57.57"/><polygon class="cls-51" points="247.02 68.63 255.31 56.89 261.76 53.98 270.56 50.8 283.21 57.57 271.45 74.45 247.02 68.63"/><polygon class="cls-52" points="270.56 50.8 260 71.72 247.02 68.63 255.31 56.89 260.17 51.19 270.56 50.8"/><polygon class="cls-31" points="219.34 59.38 231.79 69.36 271.45 74.45 255.31 56.89 219.34 59.38"/><g id="Layer_1_copy" data-name="Layer 1 copy"><polygon class="cls-53" points="102.32 84.57 107.89 84.84 113.87 92.85 108.64 135 99.67 130.65 97.5 119.25 102.32 84.57"/><polygon class="cls-54" points="108.64 135 87.58 153.53 82.75 158 75.28 154.61 77.52 139.41 79.63 133.57 100.62 120.81 108.64 135"/><polygon class="cls-54" points="58.23 133.03 56.53 144.29 52.79 152.78 46.68 150.2 42.12 138.46 46.88 122.1 58.23 133.03"/><polygon class="cls-55" points="41.63 184.95 59.71 195.19 61.61 199.13 55.97 202.86 26.14 188.68 41.63 184.95"/><polygon class="cls-56" points="47.7 164.04 37.37 153.59 26.14 188.68 41.63 184.95 44.21 170.66 47.7 164.04"/><polygon class="cls-55" points="75.82 148.37 87.58 153.53 82.06 162.28 76.01 168.46 44.21 170.66 37.37 153.59 56.46 144.23 68.96 149.66 75.82 148.37"/><polygon class="cls-56" points="71.87 163.5 76.01 168.46 71.59 169.75 71.87 163.5"/><polygon class="cls-18" points="66.09 298.56 111.95 288.85 66.09 279.76 24.04 288.31 66.09 298.56"/><polygon class="cls-56" points="112.97 182.91 100.67 170.49 91.23 165.26 90.75 179.99 96.33 184.27 105.23 186.1 112.97 182.91"/><polygon class="cls-57" points="63.24 280.37 69.49 290.21 50.26 290.21 55.42 281.73 63.24 280.37"/><polygon class="cls-57" points="82.06 279.28 74.25 279.82 69.49 290.21 86.95 290.21 82.06 279.28"/><polygon class="cls-21" points="85.05 270.53 89.33 279.82 86.95 290.21 83.14 278.13 85.05 270.53"/><polygon class="cls-21" points="54.88 264.76 55.63 275.35 50.26 290.21 48.16 274.87 54.88 264.76"/><polygon class="cls-56" points="80.77 267.95 85.05 270.53 86.95 290.21 74.25 279.82 76.49 270.19 80.77 267.95"/><polygon class="cls-56" points="60.05 265.17 62.29 269.78 63.24 280.37 50.26 290.21 54.88 264.76 60.05 265.17"/><polygon class="cls-55" points="92.72 244.53 85.05 270.53 75.74 273.31 75.33 255.05 77.78 247.11 85.8 241.07 92.72 244.53"/><polygon class="cls-56" points="92.72 244.53 75.33 255.05 82.19 241.68 92.72 244.53"/><polygon class="cls-55" points="61.95 242.97 54.88 264.76 62.49 272.16 83.55 244.06 74.58 239.65 61.95 242.97"/><polygon class="cls-58" points="83.55 244.06 61.95 242.97 53.66 224.24 53.93 207.14 55.97 202.86 67.31 205.24 83.69 240.19 83.55 244.06"/><polygon class="cls-59" points="59.71 195.19 64.73 194.31 87.43 199.67 90.96 202.86 98.98 223.63 92.72 244.53 83.55 244.06 59.71 195.19"/><polygon class="cls-18" points="98.98 223.63 57.67 220.24 53.66 224.24 61.95 242.97 92.72 244.53 98.98 223.63"/><polygon class="cls-55" points="84.57 209.18 90.96 202.86 95.24 208.02 95.78 215.42 87.9 214.54 84.57 209.18"/><polygon class="cls-55" points="112.97 182.91 96.33 184.27 90.96 202.86 94.15 207.55 97.14 207.68 112.97 182.91"/><polygon class="cls-56" points="95.78 215.42 97.14 207.68 90.96 202.86 95.78 215.42"/><polygon class="cls-60" points="94.15 169.95 90.96 202.86 76.62 199.33 67.04 200.35 59.71 195.19 55.02 178.09 58.28 167.03 76.01 168.46 87.29 166.76 94.15 169.95"/><polygon class="cls-55" points="65.68 207.48 63.24 203.81 67.86 197.16 76.62 199.33 75.74 205.44 65.68 207.48"/><polygon class="cls-55" points="70.98 193.23 71.73 195.67 67.86 197.16 62.29 197.03 59.71 195.19 70.98 193.23"/><polygon class="cls-56" points="59.71 195.19 67.86 197.16 65.68 207.48 55.97 202.86 59.71 195.19"/><polygon class="cls-59" points="58.28 167.03 44.21 170.66 59.71 195.19 58.28 167.03"/><polygon class="cls-60" points="100.67 170.49 94.15 169.95 86.2 162.55 87.58 153.53 100.67 170.49"/><polygon class="cls-61" points="76.01 168.46 94.15 169.95 87.58 153.53 76.01 168.46"/><polygon class="cls-56" points="59.04 115.32 75.01 133.23 75.28 154.61 56.46 144.23 49.12 127.33 51.57 119.73 59.04 115.32"/><polygon class="cls-62" points="52.25 116.2 58.5 120.54 49.12 127.33 46.88 122.1 52.25 116.2"/><polygon class="cls-62" points="78.07 135.95 72.7 138.05 61.76 137.51 75.28 154.61 82.14 138.46 78.07 135.95"/><polygon class="cls-63" points="99.81 62.72 113.87 92.85 105.04 86.68 93.56 83.01 90.23 76.22 87.31 63.47 99.81 62.72"/><polygon class="cls-53" points="64.95 54.64 99.81 62.72 90.23 76.22 86.29 83.15 69.37 95.02 61.49 91.9 58.97 68.69 64.95 54.64"/><polygon class="cls-63" points="41.04 72.02 64.95 54.64 61.49 91.9 47.76 86.88 41.04 72.02"/><polygon class="cls-63" points="19.02 132.42 34.38 121.22 46.88 122.1 46.61 159.16 19.02 132.42"/><polygon class="cls-53" points="41.04 72.02 61.49 91.9 65.77 107.17 58.5 120.54 19.02 132.42 41.04 72.02"/><polygon class="cls-55" points="105.17 86.54 101.64 122.64 85.88 138.66 72.7 138.05 58.5 120.54 61.49 91.9 90.23 76.22 105.17 86.54"/><polygon class="cls-56" points="98.45 97.81 101.51 100.93 94.44 103.78 85.95 114.98 85.34 108.6 86.15 103.98 88.87 100.45 98.45 97.81"/><polygon class="cls-54" points="98.31 97.26 101.51 100.93 97.36 98.82 88.87 100.45 90.64 97.87 98.31 97.26"/><polygon class="cls-56" points="79.56 99.16 82.69 103.71 83.91 108.19 80.99 116.2 73.17 103.3 65.36 97.94 71.07 95.7 79.56 99.16"/><polygon class="cls-54" points="78 96.58 79.56 99.16 69.78 96.99 65.36 97.94 69.44 95.09 78 96.58"/><polygon class="cls-62" points="85.88 116.54 84.04 114.3 80.99 116.2 82.96 118.91 85.88 116.54"/><polygon class="cls-64" points="86.15 103.98 82.69 103.71 80.99 116.2 85.88 116.54 86.15 103.98"/><polygon class="cls-65" points="87.92 123.8 83.16 121.22 75.28 122.85 82.75 124.21 87.92 123.8"/><path class="cls-56" d="M73.85,130.31a.95.95,0,1,0,0,1.9,1,1,0,0,0,0-1.9Z"/><path class="cls-19" d="M93,103a2.33,2.33,0,1,0,2.26,2.41A2.32,2.32,0,0,0,93,103Z"/><path class="cls-19" d="M75,101.51A2.37,2.37,0,1,0,77.24,104,2.36,2.36,0,0,0,75,101.51Z"/><polygon class="cls-66" points="83.98 127.19 89.34 123.12 82.48 124.21 73.78 122.03 79.76 127.06 83.98 127.19"/></g></g><g id="main_character_copy" data-name="main character copy"><polygon class="cls-67" points="359.65 320.49 366.46 325.03 366.41 328.27 342.86 328.27 342.93 325.28 359.65 320.49"/><polygon class="cls-68" points="342.93 325.28 366.46 325.03 359.55 313.49 350.99 304.46 344.72 315.4 342.93 325.28"/><polygon class="cls-67" points="409.29 312.31 427.7 317.25 427.7 320.39 394.77 320.7 395.01 317.41 409.29 312.31"/><polygon class="cls-68" points="427.7 317.25 395.01 317.41 395.55 308.75 401.94 293.35 411.17 307.78 427.7 317.25"/><path class="cls-21" d="M408.65,279.06l-2.57-38.93-21.3,15.58-5.46-7.1-7.79,16.79,12.38,22.34,17.31,3.65Z"/><path class="cls-21" d="M411.17,307.78l-2.52-28.72-24.74,8.68,11.64,21Z"/><polygon class="cls-22" points="368.16 286.59 377.29 259.18 387.65 248.68 356.3 248.93 346.46 246.52 347.43 251.56 338.82 245.9 342.02 284.63 354.65 297.35 368.16 286.59"/><polygon class="cls-21" points="359.55 313.49 368.16 286.59 342.02 284.63 344.72 315.4 359.55 313.49"/><polygon class="cls-21" points="406.08 240.07 375.26 265.08 351.75 249.23 406.08 240.07"/><polygon class="cls-33" points="441.7 159.48 438.17 163.49 431.4 160.8 432.34 144.97 441.21 149.86 441.7 159.48"/><polygon class="cls-33" points="461.67 147.33 466.56 134.91 457.47 133.13 450.42 131.25 437.45 131.88 437.28 142.39 461.67 147.33"/><polygon class="cls-52" points="435.74 135.17 441.53 134.81 466.56 134.91 466.09 157.16 438.17 163.49 435.74 135.17"/><path class="cls-33" d="M451.16,154.62l6.32.6.47-18.48-6.79-.15c-5.31,2.21-6.2,12.46-1.37,17.29A2.2,2.2,0,0,0,451.16,154.62Z"/><path class="cls-69" d="M457.63,155.23c3.14.16,5.92-3.86,6.18-8.95s-2.09-9.36-5.23-9.53-5.92,3.86-6.18,8.95S454.49,155.07,457.63,155.23Z"/><path class="cls-33" d="M458.49,138.5c2.39.12,4.16,3.58,3.95,7.71s-2.33,7.4-4.72,7.28a3.54,3.54,0,0,1-2.7-1.9l1.38-4.79-.79-6.69A3.49,3.49,0,0,1,458.49,138.5Z"/><path class="cls-31" d="M455,151.59a11.45,11.45,0,0,1,.59-11.48,1.34,1.34,0,0,1,.28,0c1.61.08,2.78,2.73,2.62,5.91s-1.6,5.7-3.21,5.62A1.35,1.35,0,0,1,455,151.59Z"/><polygon class="cls-70" points="461.18 322.25 386.78 309.12 305.34 321.92 382.85 339.94 461.18 322.25"/><polygon class="cls-22" points="405.31 176.46 390.02 163.55 386.48 169.1 383.53 176.32 395.97 179.38 405.31 176.46"/><polygon class="cls-21" points="409.08 211.67 401.29 195.33 397.9 177.88 405.31 176.46 416.41 184.09 423.78 205.97 409.08 211.67"/><polygon class="cls-71" points="349.18 248.98 384 247.5 402.73 242.91 393.38 201.58 383.58 176.27 373.3 170.79 362 177.38 359.8 175.93 357.19 175.49 351.71 207.7 349.18 248.98"/><polygon class="cls-72" points="395.34 206.16 393.38 197.91 392.93 196.76 389.43 187.92 355.25 194.41 352.28 200.97 351.71 204.03 351.61 210.01 346.7 222.09 396.33 216.99 395.34 206.16"/><polygon class="cls-73" points="377.36 89.32 355.92 89.63 350.88 133.44 369.05 159.42 371.3 139.76 376.27 95.22 376.23 94.71 377.36 89.32"/><polygon class="cls-73" points="372.92 141.33 350.88 133.44 350.95 136.74 351.66 168.44 352.99 169.46 364.62 173.46 371.85 158.55 372.92 141.33"/><polygon class="cls-74" points="400.18 96.72 421.25 101.21 423.5 111.82 422.14 127.27 422.93 160.57 367.14 153.47 376.23 94.71 376.29 94.41 400.18 96.72"/><polygon class="cls-73" points="404.3 125.65 410.83 116.39 419.15 112.5 411.71 110.47 407.01 111.18 403.8 111.12 399.49 110.61 394.85 109.64 389.35 106.95 382.77 108.03 390.19 112.67 397.82 125.07 404.3 125.65"/><polygon class="cls-75" points="383.53 176.32 403.81 158.16 357.97 150.93 359.64 168.12 377.02 181.65 383.53 176.32"/><polygon class="cls-75" points="351.12 131.27 350.88 133.44 363.2 128.02 355.82 122.67 351.12 131.27"/><polygon class="cls-76" points="444.2 67.75 422.14 127.27 421.25 101.21 428.05 88.76 444.2 67.75"/><polygon class="cls-76" points="361.96 116.45 350.88 133.44 349.68 82.18 355.96 95.89 361.96 116.45"/><polygon class="cls-77" points="361.96 116.45 349.68 82.18 355.07 83.63 366.88 89.48 376.23 94.71 366.82 110.43 361.96 116.45"/><polygon class="cls-76" points="349.68 82.18 378.32 65.89 379.32 78.14 376.23 94.71 349.68 82.18"/><polygon class="cls-78" points="421.25 101.21 395.61 97.54 418.29 81.79 444.2 67.75 421.25 101.21"/><polygon class="cls-79" points="395.61 97.54 376.23 94.71 378.32 65.89 444.2 67.75 395.61 97.54"/><polygon class="cls-74" points="366.82 110.43 354.43 108.15 352.45 125.62 363.2 128.02 366.82 110.43"/><polygon class="cls-75" points="358.48 112.13 363.82 113.57 362.5 118.89 358.48 112.13"/><polygon class="cls-80" points="403.8 111.12 404.87 126.51 397.82 125.07 399.49 110.61 403.8 111.12"/><polygon class="cls-75" points="400.85 130.21 404.87 126.51 397.82 125.07 400.85 130.21"/><polygon class="cls-77" points="419.41 112.53 413.15 107.1 407.01 111.18 419.41 112.53"/><polygon class="cls-77" points="394.85 109.64 388.8 104.07 380.75 108.77 394.85 109.64"/><polygon class="cls-75" points="407.55 137.88 378.63 126.3 381.88 145.98 397.77 150.84 407.55 137.88"/><polygon class="cls-27" points="405.82 138.13 383.02 130.08 383.52 144.17 397.46 148.81 405.82 138.13"/><polygon class="cls-12" points="422.16 251.59 397.9 177.88 383.53 176.32 402.73 242.91 422.16 251.59"/><polygon class="cls-73" points="451.34 186.38 425.64 189.27 421.12 205.6 421.57 217.29 457.34 196.59 456.04 189.53 451.34 186.38"/><polygon class="cls-12" points="348.34 262.3 322.58 236.12 333.3 194.67 367.36 189.03 348.34 262.3"/><polygon class="cls-22" points="353.12 187.81 372.13 177.62 351.45 160.4 340.35 166.15 353.12 187.81"/><polygon class="cls-74" points="409.08 211.67 416.41 184.09 425.64 189.27 421.47 217.63 409.08 211.67"/><path class="cls-81" d="M390.68,112.69a3.09,3.09,0,1,1-2.1,5.81,3.09,3.09,0,1,1,2.1-5.81Z"/><path class="cls-81" d="M410.59,115.38a3.09,3.09,0,0,1-2.1,5.81,3.09,3.09,0,1,1,2.1-5.81Z"/><polygon class="cls-75" points="471.42 190.57 468.93 181.37 460.82 173.79 451.34 186.38 457.34 196.59 471.42 190.57"/><polygon class="cls-73" points="476.81 168.57 460.82 173.79 471.42 190.57 480.28 179.15 476.81 168.57"/><polygon class="cls-74" points="461.97 171.17 459.43 185.37 454.39 191.57 451.34 186.38 457.69 169.31 461.97 171.17"/><polygon class="cls-73" points="437.35 145.84 428.47 131.6 443.32 131.56 445.03 145 437.35 145.84"/><polygon class="cls-73" points="422.37 147.95 389.74 165.81 385.21 178.95 402.85 192.94 431.4 160.8 422.37 147.95"/><polygon class="cls-74" points="363.7 172.27 380.84 165.83 389.74 165.81 402.89 192.86 366.49 194.73 363.7 172.27"/><polygon class="cls-17" points="375.13 198.63 333.3 194.67 340.35 166.15 380.84 165.83 375.13 198.63"/><polygon class="cls-74" points="428.47 131.6 422.37 147.95 431.4 160.8 445.03 145 428.47 131.6"/><polygon class="cls-17" points="448.75 130.96 447.98 127.47 443.86 128.66 443.32 131.56 444.82 133.18 448.75 130.96"/><polygon class="cls-3" points="446.66 133.19 447.98 127.47 455.5 126.67 457.47 133.13 446.66 133.19"/><polygon class="cls-82" points="449.74 128.84 449.18 131.96 454.95 131.88 453.8 128.44 449.74 128.84"/></g><g id="character_with_trophy_copy" data-name="character with trophy copy"><polygon class="cls-9" points="530.53 325.96 585.22 318.58 638.58 327.44 584.91 335.71 530.53 325.96"/><polygon class="cls-83" points="544.63 324.06 577.43 323.97 577.43 319.77 573.02 317.53 552.07 317.53 544.63 319.77 544.63 324.06"/><polygon class="cls-83" points="598.58 329.9 622.64 329.9 622.64 325.48 619.41 323.13 604.04 323.13 598.58 325.48 598.58 329.9"/><polygon class="cls-84" points="560.85 309.12 544.63 319.77 577.43 319.77 577.28 309.13 574.12 306.88 563.37 306.88 560.85 309.12"/><polygon class="cls-84" points="605.68 311.85 602.13 314.17 598.58 325.48 622.64 325.48 617.96 314.17 614.64 312.13 605.68 311.85"/><polygon class="cls-33" points="544.9 252.99 555.12 288.88 568.01 309.12 578.77 290 580.19 272.14 552.9 254.3 544.9 252.99"/><polygon class="cls-31" points="555.12 288.88 560.85 309.12 577.28 309.13 578.77 290 555.12 288.88"/><polygon class="cls-31" points="582.83 267.78 591.49 293.5 602.13 314.17 617.96 314.17 616.52 292.17 601.61 259.98 582.83 267.78"/><polygon class="cls-33" points="591.49 293.5 580.19 272.14 609.46 256.14 614.22 257.31 616.52 292.17 591.49 293.5"/><polygon class="cls-31" points="568.06 241.44 576.33 241.44 581.01 252.47 595.14 252.62 614.22 257.31 580.19 272.14 544.9 252.99 548.49 250.1 562.82 250.63 568.06 241.44"/><polygon class="cls-31" points="545.73 195 550.37 191.54 560.89 174.53 562.48 166.89 546.51 140.12 542.66 141.43 534.43 153.81 533.93 161.33 545.73 195"/><polygon class="cls-33" points="562.48 166.89 574.12 173.22 573.57 176.37 550.69 195.26 545.73 195 562.48 166.89"/><polygon class="cls-33" points="524.03 133.06 525.33 129.14 533.32 124.94 537.38 124.83 546.51 140.12 533.93 161.33 524.03 133.06"/><polygon class="cls-42" points="568.71 166.42 573.61 164.94 607.89 169.96 605.59 174.13 587.79 178.71 581.3 178.71 571.44 171.76 568.71 166.42"/><polygon class="cls-85" points="617.28 115.27 613.15 116.39 603.72 146.88 610.28 153.13 604.67 163.66 599.01 162.7 602.21 172.12 601.37 175.22 602.72 179.56 606.1 181.36 626.94 152.87 627.72 145.19 621.5 133.75 624.52 121.92 617.28 115.27"/><polygon class="cls-32" points="609.71 176.43 602.21 172.12 601.6 178.43 608.07 185.64 612.36 184.83 609.71 176.43"/><polygon class="cls-86" points="610.28 146.31 602.24 149.51 595.54 162.36 602.21 172.12 622.11 142.34 622.78 135.54 620.55 133.33 610.28 146.31"/><polygon class="cls-31" points="622.64 190.54 618.78 195.53 614.57 229.68 616.83 236.6 620.75 241.9 624.58 241.56 634.55 228.45 634.62 222.96 622.64 190.54"/><polygon class="cls-32" points="568.72 188.41 566.79 192.84 572.75 215.21 578.26 215.99 597.27 194.92 597.5 189.69 596.18 186.08 588.73 182.14 579.09 181.62 570.82 185.03 568.72 188.41"/><polygon class="cls-87" points="581.03 181.72 578.35 184.63 571.75 211.44 572.75 215.21 578.26 215.99 581.72 212.16 587.89 185.75 585.85 181.99 581.03 181.72"/><polygon class="cls-31" points="528.38 232.22 523.13 234.1 544.9 252.99 548.49 250.1 551.24 233.84 528.38 232.22"/><polygon class="cls-33" points="594.52 255.88 614.22 257.31 622.64 190.54 606.1 181.36 604.72 187.13 611.06 204.19 598.53 236.62 594.52 255.88"/><polygon class="cls-52" points="568.72 188.41 575.5 211.01 578.26 215.99 576.61 236.98 572.19 241.44 565.1 254.17 544.9 252.99 547.66 236.98 549.87 223.34 563.95 190.91 568.72 188.41"/><polygon class="cls-88" points="597.5 189.69 575.5 211.01 572.19 241.44 578.3 254.93 594.52 255.88 598.53 236.62 599.76 191.85 597.5 189.69"/><polygon class="cls-33" points="545.73 195 547.93 197.89 549.87 223.34 547.66 236.98 523.13 234.1 545.73 195"/><polygon class="cls-6" points="545.73 195 566.13 179.78 569.28 179.92 570.82 185.03 568.72 188.41 547.66 236.98 545.73 195"/><polygon class="cls-6" points="606.1 181.36 617.47 206.14 594.52 255.88 597.5 189.69 599.93 184.29 606.1 181.36"/><polygon class="cls-52" points="602.21 172.12 589.56 176.37 587.08 179.52 596.18 183.72 606.1 181.36 602.21 172.12"/><polygon class="cls-88" points="597.5 189.69 587.89 185.75 587.08 179.52 606.1 181.36 597.5 189.69"/><polygon class="cls-52" points="571.44 171.76 579.91 176.37 581.01 179.52 572.47 181.88 566.13 179.78 571.44 171.76"/><polygon class="cls-88" points="568.72 188.41 566.13 179.78 581.01 179.52 578.35 184.63 568.72 188.41"/><polygon class="cls-33" points="579.91 176.37 578.35 184.63 587.89 185.75 589.56 176.37 579.91 176.37"/><polygon class="cls-33" points="634.62 222.96 620.75 241.9 632.44 257.72 635.88 257.98 643.87 253.51 644.47 249.6 634.62 222.96"/><polygon class="cls-51" points="515.09 114.73 520.73 123.66 523.95 123.89 530.29 105.52 528.36 103.95 515.23 110.75 515.09 114.73"/><polygon class="cls-85" points="510.6 107.49 511.55 110.77 515.09 114.73 522.85 110.25 529.19 97.13 510.6 107.49"/><path class="cls-51" d="M531.89,89.75l-2.7,7.38L528,99.55l4.75,9.12,3,.53,7.16-1v-4.72l-6.06-11.29S531.81,89.9,531.89,89.75Z"/><polygon class="cls-52" points="531.89 89.75 542.97 108.15 550.42 102.9 542.7 92.67 531.89 89.75"/><polygon class="cls-6" points="541.61 85.03 531.89 89.75 550.42 102.9 547.93 92.41 541.61 85.03"/><polygon class="cls-52" points="550.15 89.62 541.61 85.03 550.42 102.9 551.79 94.24 552.35 91.88 550.15 89.62"/><polygon class="cls-51" points="552.12 85.94 550.15 89.62 551.79 94.24 556.21 94.24 556.76 89.52 552.12 85.94"/><polygon class="cls-6" points="557.9 82.8 552.12 85.94 556.21 94.24 562.03 91.73 562.82 85.84 557.9 82.8"/><polygon class="cls-43" points="535.81 109.2 529.19 97.13 520.23 105.93 522.85 110.25 527.26 107.62 520.73 123.66 523.95 123.89 531.39 119.96 535.81 109.2"/><polygon class="cls-89" points="520.73 123.66 532.65 116.9 537.38 124.83 524.03 133.06 520.73 123.66"/><polygon class="cls-6" points="497.88 108.91 510.6 107.49 518.27 112.89 516.48 117.07 509.89 117.59 504.65 116.81 500.37 114.02 497.88 108.91"/><polygon class="cls-52" points="507.96 122.84 509.89 117.59 518.27 112.89 520.73 123.66 512.68 132.52 509.89 129.66 507.96 122.84"/><polygon class="cls-51" points="500.52 124.94 497.88 108.91 509.89 117.59 512.68 132.52 500.52 124.94"/><polygon class="cls-86" points="563.75 101.93 568.92 104.16 588.77 101.97 596.77 99.6 574.99 87.01 562.82 85.84 563.75 101.93"/><polygon class="cls-11" points="562.82 85.84 589.56 99.83 592.28 101.54 603.61 105.36 606.8 104.09 606.97 95.93 595.12 83.34 585.19 76.51 562.82 85.84"/><polygon class="cls-86" points="644.85 113.91 631.04 89.32 618.27 93.57 606.8 104.09 614.33 108.25 633.73 115.91 644.85 113.91"/><polygon class="cls-90" points="617.09 107.78 619.84 107.31 644.85 113.91 638 130.49 629.32 131.35 622.11 142.34 617.61 116.4 615.43 113.23 617.09 107.78"/><polygon class="cls-45" points="626.94 152.87 622.11 142.34 627.74 141.91 631.24 146.98 626.94 152.87"/><polygon class="cls-38" points="563.75 101.93 557.58 143.31 561.69 155.27 592.21 157.66 610.28 146.31 619.84 107.31 589.56 99.83 563.75 101.93"/><polygon class="cls-38" points="627.19 126.42 622.11 142.34 631.24 146.98 638.04 130.44 627.19 126.42"/><polygon class="cls-45" points="629.89 132 633.86 133.58 627.93 139.28 629.89 132"/><polygon class="cls-42" points="574.99 132.68 578.59 137.56 584.88 132.79 579.82 130.86 574.99 132.68"/><polygon class="cls-41" points="580.12 124.45 574.99 132.68 571.24 120.37 565.73 116.87 570.93 114.84 578.88 117.89 579.75 120.8 580.12 124.45"/><polygon class="cls-41" points="583.18 124.74 584.63 121 588.74 117.88 598.72 116.33 604.92 118.94 594.58 122.45 584.88 132.79 583.18 124.74"/><polygon class="cls-43" points="579.75 120.8 574.99 132.68 584.88 132.79 584.63 121 579.75 120.8"/><polygon class="cls-90" points="578.73 116.05 578.88 117.89 570.54 115.82 565.73 116.87 570.24 114 578.73 116.05"/><polygon class="cls-90" points="589.05 115.93 588.74 117.88 599.5 117.34 604.92 118.94 599.94 115.46 589.05 115.93"/><path class="cls-91" d="M570.65,124.57a2.33,2.33,0,1,0-2.45-2.33A2.39,2.39,0,0,0,570.65,124.57Z"/><path class="cls-91" d="M592.82,126.33a2.33,2.33,0,1,0-2.45-2.33A2.4,2.4,0,0,0,592.82,126.33Z"/><polygon class="cls-31" points="570.94 218.47 575.08 214.93 578.87 219.19 574.26 222.45 570.94 218.47"/><polygon class="cls-31" points="568.9 234.69 573.31 231.21 576.85 235.4 572.49 238.75 568.9 234.69"/><polygon class="cls-42" points="571.84 143.12 587.79 143.49 591.26 142.3 591.98 144.08 588.2 145.43 571.63 144.65 571.84 143.12"/><path class="cls-86" d="M557.58,143.31l6.86,4.57,3.11-8.39,11-1.93,15.72,2.73-.95,10.26,16.92-4.24-10.65,18.21-3.69,2.26-27-4.63-13-3.9,1.63-14.94Zm33.69-1-21.52-.45-2.67,7.49,3.28,1.92,3.57-3.93,7.58,0L582.6,152l7.47-.68Z"/><polygon class="cls-90" points="568.71 166.42 555.95 158.25 599.63 164.52 602.21 172.12 568.71 166.42"/><polygon class="cls-45" points="642.55 263.92 636.7 263.49 635.38 270.48 640.9 272.58 649.17 268.12 642.55 263.92"/><polygon class="cls-85" points="635.38 270.48 638.9 269.77 653.99 269.04 654.3 274.59 636.35 277.7 635.38 270.48"/><polygon class="cls-43" points="639.79 259.2 636.7 263.49 645.86 266.02 638.9 269.77 640.39 273.75 653.99 269.04 653.44 263 647.18 256.93 639.79 259.2"/><polygon class="cls-32" points="632.44 257.72 636.7 263.49 647.18 256.93 644.47 249.6 632.44 257.72"/><polygon class="cls-11" points="631.04 89.32 609.66 83.32 605.59 87.01 604.78 93.6 606.8 104.09 631.04 89.32"/><polygon class="cls-86" points="609.66 83.32 606.8 104.09 585.19 76.51 609.66 83.32"/></g><g id="woman_character_copy" data-name="woman character copy"><polygon class="cls-9" points="616.18 337.75 672 350 731.31 339.75 672.64 327.33 616.18 337.75"/><polygon class="cls-31" points="671.71 339.3 673.64 325.65 669.4 328.81 668.22 333.71 671.71 339.3"/><polygon class="cls-34" points="630.77 255.13 624.45 246.66 629.85 245.43 630.77 255.13"/><polygon class="cls-88" points="683.77 172.9 708.63 180.84 709.95 178.46 694.52 151.88 691.63 151.91 683.77 172.9"/><polygon class="cls-88" points="713.1 188.43 717.19 176.98 725.82 171.72 720.41 200.84 712.87 194.38 713.1 188.43"/><path class="cls-33" d="M701.54,180.45c1.07-.76,4.78-3.55,4.78-3.55L729,215.4l-5.39,2-15.27-.16L702,214.79l-5.14-8.65-1-5.83Z"/><polygon class="cls-38" points="630.31 262.22 636.4 262.6 640.23 258.33 633.24 249.59 628.36 247.42 630.31 262.22"/><polygon class="cls-41" points="630.31 262.22 638.4 259.52 641.75 262.81 641.32 268.24 630.31 262.22"/><polygon class="cls-41" points="630.62 245.74 628.36 247.42 642.18 264.07 636.14 246.34 630.62 245.74"/><polygon class="cls-31" points="633.7 213.25 624.45 246.66 634.78 248.67 638.23 247.29 648.54 227.88 649.28 225.57 635.86 211.86 633.7 213.25"/><polygon class="cls-33" points="635.97 185.58 633.7 213.25 646.96 227.72 649.28 225.57 639.33 188.68 635.97 185.58"/><polygon class="cls-31" points="655.95 332.13 649.12 339.3 664.46 339.3 660.38 333.35 655.95 332.13"/><polygon class="cls-34" points="660.07 324.43 661.64 321.93 667.53 319.26 669.13 320.06 673.64 325.65 664.46 339.3 655.95 332.13 660.07 324.43"/><polygon class="cls-41" points="646.73 284.47 653.54 304.87 656.68 306.55 664.62 306.42 649.74 285.01 649.81 284.89 646.73 284.47"/><polygon class="cls-31" points="653.54 304.87 661.19 304.83 664.62 306.42 669.23 313.06 669.13 320.06 660.07 324.43 653.54 304.87"/><polygon class="cls-31" points="634.78 248.67 646.73 284.47 652.25 280.79 665.31 258.83 638.23 247.29 634.78 248.67"/><polygon class="cls-34" points="705.24 248.67 704.01 244.2 694.29 233.73 692.25 242.39 693.87 247.13 705.24 248.67"/><polygon class="cls-52" points="703.85 106.9 699.86 104.54 688.56 105.68 684.62 109.49 687.06 114.56 705.66 127.86 709.42 128.42 703.85 106.9"/><polygon class="cls-52" points="713.1 188.43 710.05 177.76 710.56 165.43 713.33 152.86 725.82 171.72 713.1 188.43"/><polygon class="cls-92" points="635.47 173.58 644.19 183.57 653.8 189.4 664.87 183.53 663.25 174.74 660.95 168.49 652.76 169.03 635.1 159.16 635.47 173.58"/><polygon class="cls-38" points="657.88 175.31 656.28 177.45 651.82 185.45 686.03 187.97 688.08 175.07 686.59 171.05 665.85 179.29 657.88 175.31"/><polygon class="cls-42" points="652.43 168.89 665.8 184.72 686.88 171.06 684.62 162.14 671.56 167.28 660.95 168.49 652.43 168.89"/><polygon class="cls-41" points="682.88 142.87 683.85 138.94 688.9 141.79 694.14 150.42 693.23 154.67 686.59 171.05 686.59 171.05 667.24 167.77 682.65 153.26 682.88 142.87"/><polygon class="cls-88" points="622.71 167.48 626.16 161.96 641.5 155.26 657.84 175.39 635.97 185.58 622.71 167.48"/><polygon class="cls-69" points="629.3 134.08 622.71 167.48 638.31 157.15 631.86 149.16 629.3 134.08"/><polygon class="cls-52" points="619.04 131.55 637 158.13 637.58 155.16 635.1 130.42 632.37 126.06 626.27 124.39 622.62 126.14 619.04 131.55"/><polygon class="cls-52" points="626.26 106.31 628.21 97.24 640.17 97.75 647.61 104.18 645.7 106.63 632.68 108.85 629.29 106.95 626.26 106.31"/><polygon class="cls-52" points="650.46 92.99 647.61 104.18 652.05 106 669.75 103.14 672.95 100.05 670.53 91.41 657.46 87.6 650.46 92.99"/><polygon class="cls-69" points="619.04 131.55 632.37 126.06 634.62 122.81 632.68 108.85 629.29 106.95 628.21 97.24 619.04 131.55"/><polygon class="cls-69" points="628.21 97.24 647.61 104.18 657.46 87.6 628.21 97.24"/><polygon class="cls-69" points="684.62 109.49 688.56 105.68 684.53 89.06 677.7 80.94 657.46 87.6 672.95 100.05 672.78 103.62 680.1 109.96 684.62 109.49"/><polygon class="cls-69" points="688.36 121.69 684.62 109.49 716.63 132.17 713.63 136.57 701.77 142.79 688.36 121.69"/><polygon class="cls-52" points="685.22 140.84 693.45 137.4 703.79 138.45 709.63 141.41 714.12 154.05 708.55 156.65 693.23 154.67 685.22 140.84"/><polygon class="cls-69" points="703.79 138.45 716.63 132.17 714.12 154.05 703.79 138.45"/><polygon class="cls-69" points="677.7 80.94 703.85 106.9 684.62 109.49 677.7 80.94"/><polygon class="cls-69" points="682.96 137.56 681.35 113.93 684.62 109.49 703.79 138.45 685.22 140.84 682.96 137.56"/><polygon class="cls-38" points="638.47 169.75 683.11 170.36 684.62 109.49 674.6 102.74 666.31 101.09 634.13 106.18 631.25 112.89 632.37 126.06 638.47 169.75"/><polygon class="cls-41" points="642.7 133.71 635.46 130.7 640.54 127.44 648.3 128.28 651.36 131.19 652.75 136.01 650.1 144.95 642.7 133.71"/><polygon class="cls-41" points="654.78 136.03 655.59 130.6 657.93 127.43 665.52 123.67 675 125.69 665.08 131.87 658.22 144.4 654.78 136.03"/><polygon class="cls-42" points="655.03 148.69 650.1 144.95 653.81 142.59 658.22 144.4 655.03 148.69"/><polygon class="cls-43" points="651.36 131.19 655.59 130.6 658.22 144.4 650.1 144.95 651.36 131.19"/><polygon class="cls-6" points="655.82 160.1 646.99 155.19 655.77 153.21 670.31 151.93 662.58 159.21 655.82 160.1"/><polygon class="cls-44" points="656.1 157.91 650.02 154.77 666.86 152.41 661.55 157.12 656.1 157.91"/><polygon class="cls-88" points="635.46 130.7 640.67 125.79 648.3 128.28 640.65 128.19 635.46 130.7"/><polygon class="cls-88" points="657.93 127.43 665.84 122.07 675 125.69 665.86 124.47 657.93 127.43"/><polygon class="cls-8" points="646.99 155.19 655.26 152.09 670.31 151.93 646.99 155.19"/><polygon class="cls-42" points="634.13 106.18 629.29 106.95 632.37 126.06 634.13 106.18"/><polygon class="cls-42" points="666.31 101.09 684.62 109.49 672.95 100.05 666.31 101.09"/><path class="cls-91" d="M643.45,137.69a2.25,2.25,0,1,0-2.38-2.24A2.32,2.32,0,0,0,643.45,137.69Z"/><path class="cls-91" d="M665.19,135.85a2.25,2.25,0,1,0-2.37-2.25A2.31,2.31,0,0,0,665.19,135.85Z"/><polygon class="cls-33" points="697.07 321.11 684.69 313.12 683.86 316.53 689.34 321.85 697.07 321.11"/><polygon class="cls-38" points="646.73 284.47 661.19 304.83 664.62 306.42 673.17 299.01 673.8 294.85 671.15 287.81 668.09 284.22 651.38 282.26 646.73 284.47"/><polygon class="cls-33" points="673.8 294.85 661.19 304.83 676.84 326.85 681.8 322.59 680.93 313.75 673.8 294.85"/><polygon class="cls-31" points="680.93 313.75 684.69 313.12 693.99 330.57 685.35 333.04 680.12 331.26 676.84 326.85 680.93 313.75"/><polygon class="cls-33" points="661.23 261.05 646.73 284.47 671.15 287.81 698.82 261.56 696.4 259.12 665.31 258.83 661.23 261.05"/><polygon class="cls-34" points="634.78 248.67 638.23 247.29 696.4 259.12 698.82 261.56 661.23 261.05 634.78 248.67"/><polygon class="cls-7" points="646.96 227.72 644.95 235.41 643.71 248.31 645.42 251.22 683.37 258.45 685.51 255.44 680.44 228.81 649.28 225.57 646.96 227.72"/><polygon class="cls-33" points="646.96 227.72 645.42 251.22 634.78 248.67 646.96 227.72"/><polygon class="cls-6" points="677.5 230.66 646.96 227.72 645.73 219.25 645.42 193.53 649.09 191.75 651.28 190.15 681.19 192.76 682.88 195.07 684.74 197.69 680.44 228.81 677.5 230.66"/><polygon class="cls-33" points="698.82 261.56 693.87 247.13 690.92 243.04 682.5 239.64 679.62 240.67 683.37 258.45 698.82 261.56"/><polygon class="cls-50" points="654.28 183.85 684.49 186.12 686.03 187.97 685.35 193.69 680.3 212.3 647.6 206.69 647.27 189.22 650.57 185.04 654.28 183.85"/><polygon class="cls-31" points="641.4 202.89 641.53 207.23 646.96 227.72 648.5 191.69 645.42 193.53 641.4 202.89"/><polygon class="cls-34" points="657.88 175.31 641.53 207.23 635.97 185.58 657.88 175.31"/><polygon class="cls-31" points="686.59 171.05 688.93 177.37 699.38 189.69 685.2 204.62 680.3 212.3 677.5 230.66 683.12 233.65 688.59 231.73 706.32 176.9 686.59 171.05"/><polygon class="cls-34" points="702.23 189.55 680.3 212.3 686.59 171.05 702.23 189.55"/><polygon class="cls-41" points="694.29 233.73 688.59 231.73 687.97 238.97 693.87 247.13 698.9 242.21 694.29 233.73"/><polygon class="cls-38" points="679.62 240.67 693.87 247.13 688.59 231.73 677.5 230.66 679.62 240.67"/><polygon class="cls-31" points="705.24 248.67 688.59 231.73 702 214.79 728.98 215.4 705.24 248.67"/><polygon class="cls-6" points="685.66 212.41 683.69 214.02 685.28 216.06 687.31 214.35 685.66 212.41"/><polygon class="cls-6" points="684.16 224.35 682.18 225.96 683.78 228 685.8 226.29 684.16 224.35"/><polygon class="cls-33" points="680.12 331.26 681.81 341.97 693.99 330.57 680.12 331.26"/><polygon class="cls-69" points="714.12 154.05 693.23 154.67 706.32 176.9 713.1 188.43 714.12 154.05"/></g></g></svg>