<svg xmlns="http://www.w3.org/2000/svg" viewBox="0 0 900 350"><defs><style>.cls-1{fill:#c4c4c4;}.cls-2{fill:#a3a3a3;}.cls-3{fill:#dddddc;}.cls-4{fill:#e5c828;}.cls-5{fill:#ccad14;}.cls-6{fill:#f4d75d;}.cls-7{fill:#9da1a2;}.cls-27,.cls-8{fill:#2b2b2b;}.cls-8{fill-opacity:0.1;}.cls-9{fill:#ececeb;}.cls-10{fill:#858686;}.cls-11{fill:#e2a942;}.cls-12{fill:#bc8f2d;}.cls-13{fill:#f2bd68;}.cls-14{fill:#737373;}.cls-15{fill:#8f8f8f;}.cls-16{fill:#efd3c2;}.cls-17{fill:#6f7173;}.cls-18{fill:#d0af96;}.cls-19{fill:#4f5253;}.cls-20{fill:#a27e6e;}.cls-21{fill:#7f5d4e;}.cls-22{fill:#593e35;}.cls-23{fill:#755800;}.cls-24{fill:#9e7700;}.cls-25{fill:#b58b00;}.cls-26{fill:#aa8d80;}.cls-28{fill:#a9846c;}.cls-29{fill:#856400;}.cls-30{fill:#f7e6dc;}.cls-31{fill:#fff;}.cls-32{fill:#c3987b;}.cls-33{fill:#8b6651;}.cls-34{fill:#474747;}.cls-35{fill:none;}.cls-36{fill:#8d7c2f;}.cls-37{fill:#dfbda5;}.cls-38{fill:#e8cab6;}</style></defs><title>explorers_Virtuoso_ISTP_weaknesses</title><g id="illustration_copy_2" data-name="illustration copy 2"><g id="_413898776" data-name=" 413898776"><polygon class="cls-1" points="54.98 271.6 75.91 263.5 82.98 270.27 81.22 286.19 52.33 290.02 54.98 271.6"/><polygon class="cls-2" points="95.81 263.5 75.91 263.5 81.22 286.19 103.62 277.64 95.81 263.5"/><polygon class="cls-3" points="406.67 17.54 393.11 17.98 374.83 214.57 369.23 266.15 375.86 271.31 381.61 268.51 385.74 230.93 407.99 23.58 406.67 17.54"/><polygon class="cls-2" points="413.3 20.93 406.67 17.54 378.37 270.57 389.42 275.14 394.28 221.5 413.3 20.93"/><polygon class="cls-4" points="864.18 162.11 852.83 196.44 814.07 183.03 839.13 142.36 864.18 162.11"/><polygon class="cls-5" points="818.34 160.63 814.07 183.03 835.59 174.04 818.34 160.63"/><polygon class="cls-6" points="845.46 124.38 835.59 174.04 795.2 156.51 801.83 124.97 812.89 107.43 845.46 124.38"/><polygon class="cls-7" points="816.72 96.67 765.43 238.88 760.12 236.82 800.8 109.05 809.2 92.55 816.72 96.67"/><polygon class="cls-1" points="802.72 93.43 809.2 92.55 761.15 240.51 759.09 236.53 802.72 93.43"/><path class="cls-8" d="M860.2,173.9,838.09,162,835.59,174l21.81,8.84Zm-20.93-18.13,3.39-17.1L808,121l-6.64,18.27Z"/><polygon class="cls-1" points="587.23 13.12 405.19 29.03 396.5 103.01 595.48 102.13 587.23 13.12"/><path class="cls-9" d="M404,39.94l18.28-1.18-1.62,16.65L402,56.29Zm36.26-2.36L459,36.4l.89,17.24-19.9.89Zm40.83-2.65,22.7-1.48,1.77,18-23,1Zm44.51-2.8,23.29-1.62,1.92,18.71-22.7,1Zm43-2.8L588.55,28l1.77,19.3-19.9.89Zm23.73,39.2,1.77,19.15-20,.45-1.77-18.87Zm-37.73,20L533.43,89l-2.51-18.27,22-.74Zm-45.4,1L486,90l-1.62-17.68,23.14-.74Zm-47.61,1-22.25.44L439.68,74l21.08-.74Zm-44.36,1-19.46.45,1.92-16.51,19.16-.88Z"/><path class="cls-10" d="M422.29,38.76l18-1.18-.29,17-19.31.88ZM459,36.4l22.11-1.47,1.47,17.53-22.69,1.18Zm44.81-2.95,21.81-1.32,2.51,18.12-22.55,1.18Zm45.1-2.94,19.75-1.18,1.77,18.86-19.6,1Zm4,39.49,1.77,18.57,19.46-.44-1.77-18.87Zm-92.12,3.24.88,17.39L486,90l-1.62-17.68ZM418.9,74.72l-1.62,16.94,22.11-.59L439.68,74Zm88.58-3.1,1.77,18L533.43,89l-2.51-18.27Z"/><path class="cls-10" d="M590.32,47.3l2.06,21.23-20,.73-1.92-21.07ZM552.88,70l-22,.74-2.8-20.49,22.7-1Zm-45.4,1.62-23.14.74-1.77-19.9,23-1Zm-46.72,1.62L439.68,74l.3-19.45,19.9-.89ZM418.9,74.72l-19.16.88L402,56.29l18.72-.88Z"/><path class="cls-9" d="M572.34,69.26,552.88,70l-2.06-20.78,19.6-1Zm-41.42,1.48-23.44.88-1.91-20.19,22.55-1.18Zm-46.58,1.62-23.58.88-.88-19.6,22.69-1.18ZM439.68,74l-20.78.74,1.77-19.31L440,54.53Z"/><polygon class="cls-3" points="585.6 3.98 603.73 182.88 610.07 261.43 613.9 276.46 633.66 272.63 633.66 232.25 610.22 18.27 602.41 0 585.6 3.98"/><polygon class="cls-1" points="612.58 3.54 602.41 0 624.81 211.33 630.56 204.25 634.25 199.24 612.58 3.54"/><polygon class="cls-9" points="392.07 28.88 405.19 29.03 404.75 33.75 391.63 34.63 392.07 28.88"/><polygon class="cls-9" points="385.15 104.19 396.5 103.01 397.08 97.56 385.74 97.41 385.15 104.19"/><polygon class="cls-9" points="586.49 13.12 603.29 8.55 606.09 13.12 604.32 18.57 587.08 19.3 586.49 13.12"/><polygon class="cls-9" points="613.31 102.57 595.48 102.13 594.74 94.46 612.14 91.52 617.29 96.23 613.31 102.57"/><polygon class="cls-3" points="613.46 11.94 603.29 8.55 604.32 18.57 614.94 24.17 613.46 11.94"/><polygon class="cls-3" points="622.45 93.14 612.14 91.52 613.31 102.57 623.78 104.78 622.45 93.14"/><polygon class="cls-11" points="176.88 177.87 173.04 154 204.73 132.63 211.37 178.02 176.88 177.87"/><path class="cls-8" d="M175.4,168.29l22.7-4V152.08L190,154.74l-16.06,5.16Z"/><polygon class="cls-4" points="108.92 147.96 112.91 187.31 157.57 182 140.32 132.63 108.92 147.96"/><polygon class="cls-5" points="158.3 156.95 157.57 182 136.64 167.26 158.3 156.95"/><polygon class="cls-6" points="137.67 111.85 136.64 167.26 183.95 157.98 184.1 122.76 176.43 101.39 137.67 111.85"/><polygon class="cls-1" points="174.81 89.01 196.63 253.03 202.67 252.15 187.19 101.39 183.8 86.21 174.81 89.01"/><polygon class="cls-7" points="187.63 88.27 183.8 86.21 201.2 252.44 204 252 187.63 88.27"/><polygon class="cls-12" points="211.66 151.94 211.37 178.02 198.1 164.32 211.66 151.94"/><polygon class="cls-13" points="198.4 111.85 198.1 164.32 217.11 159.16 220.95 126.3 218.44 104.19 198.4 111.85"/><polygon class="cls-1" points="218.88 90.78 214.9 252.29 219.77 252.29 228.17 105.07 227.14 89.45 218.88 90.78"/><polygon class="cls-7" points="230.97 93.43 227.14 89.45 218.74 251.41 221.39 250.53 230.97 93.43"/><path class="cls-8" d="M110.25,161.52l26.53-7.67-.14,13.41-25.36,4.42Zm26.68-14.59.44-19.16L178.5,117l2.8,21.07Z"/><polygon class="cls-8" points="198.25 130.13 218 124.67 217.56 143.24 198.1 148.84 198.25 130.13"/><polygon class="cls-11" points="184.25 350 108.34 307.12 90.35 278.82 298.04 259.37 293.61 277.05 212.69 344.11 184.25 350"/><polygon class="cls-13" points="478.74 350 184.25 350 298.04 259.37 422.58 271.31 484.34 262.17 539.76 252.29 539.76 267.92 499.67 335.71 478.74 350"/><polygon class="cls-11" points="768.82 262.91 753.34 271.16 555.53 333.64 478.74 350 521.93 280.88 547.28 266 576.02 274.25 728.28 250.09 768.82 262.91"/><polygon class="cls-12" points="478.74 350 752.9 267.48 768.82 262.91 900 304.02 478.74 350"/><polygon class="cls-8" points="633.8 311.69 698.07 316.84 731.53 302.11 693.35 295.03 657.98 304.91 633.8 311.69"/><polygon class="cls-8" points="778.55 301.81 731.82 296.65 763.36 284.86 799.92 290.61 778.55 301.81"/><polygon class="cls-2" points="226.55 266 221.39 250.38 186.75 258.19 186.75 272.78 194.56 280 226.55 266"/><polygon class="cls-3" points="221.39 250.38 184.39 251.12 186.75 263.35 221.39 250.38"/><polygon class="cls-1" points="154.77 305.5 101.41 287.22 108.63 256.13 147.99 258.04 161.69 291.5 154.77 305.5"/><polygon class="cls-1" points="197.66 259.37 194.56 280 182.33 257.45 197.66 259.37"/><polygon class="cls-2" points="197.07 287.07 154.77 305.5 145.33 263.79 147.99 258.04 184.39 251.12 197.07 287.07"/><polygon class="cls-3" points="146.22 246.11 108.63 256.13 145.33 263.79 184.39 251.12 146.22 246.11"/><polygon class="cls-1" points="545.81 307.12 552.14 277.2 597.54 272.34 593.27 310.8 545.81 307.12"/><polygon class="cls-2" points="627.76 290.76 593.27 310.8 595.04 272.04 610.07 261.43 627.76 290.76"/><polygon class="cls-3" points="571.45 258.19 557.16 261.43 552.14 277.2 597.84 280.15 610.07 261.43 571.45 258.19"/><polygon class="cls-14" points="700.72 223.56 603.29 207.94 608.89 200.86 701.31 215.45 705.29 219.14 700.72 223.56"/><polygon class="cls-2" points="607.57 194.53 703.67 211.77 705.29 219.14 606.83 203.52 607.57 194.53"/><polygon class="cls-2" points="624.81 211.33 632.62 207.64 635.28 216.48 635.42 296.65 631.44 304.02 628.2 302.99 624.81 211.33"/><polygon class="cls-15" points="640.58 208.82 641.02 301.07 631.44 304.02 632.62 207.64 640.58 208.82"/><polygon class="cls-2" points="654.44 216.04 660.77 212.06 663.43 221.05 661.37 292.97 658.27 295.92 653.55 293.85 654.44 216.04"/><polygon class="cls-15" points="666.82 213.09 667.56 293.26 658.27 295.92 660.77 212.06 666.82 213.09"/><polygon class="cls-15" points="599.61 181.12 595.63 188.19 598.43 301.81 599.9 313.45 610.07 310.36 610.22 185.54 599.61 181.12"/><polygon class="cls-2" points="585.9 185.83 599.61 181.12 599.9 313.45 593.27 310.8 585.9 185.83"/><polygon class="cls-12" points="90.35 278.82 184.25 350 0 297.83 90.35 278.82"/><path class="cls-8" d="M540.35,331.43l5.46-24.31,47.46,3.68,6.63,2.65ZM116.89,320.08l-15.48-32.86,53.36,18.28Z"/><path class="cls-5" d="M475.35,150.76l10-3.69-6.93-2.94Zm2.07,48.48,8.25-6,10,3-6.34,4.42Zm-2.07-17.39-2.65,4.28,9.73-1Zm17.1-20,7.81-6.93,7.52,2.66-6,5.3Zm42.74,21.66,8.26-3.68,6,5.31-4.71,3.09Z"/><polygon class="cls-9" points="358.02 295.48 379.69 259.07 398.12 261.14 420.82 240.06 444.55 248.46 466.8 235.79 484.49 242.42 503.21 228.13 528.56 250.82 554.65 239.77 571.45 258.19 552.14 277.2 489.21 265.12 474.17 255.83 454.42 265.85 423.17 262.17 358.02 295.48"/><polygon class="cls-3" points="422.58 271.31 358.02 295.48 395.76 267.18 407.4 270.27 425.83 256.42 440.13 261.58 471.52 251.12 489.21 256.13 507.63 252.74 529.45 270.27 545.22 266.89 552.14 277.2 521.93 280.88 515 280.15 480.36 272.34 461.64 274.99 435.56 269.69 422.58 271.31"/><polygon class="cls-1" points="461.64 274.99 435.85 266.44 422.58 271.31 515 280.15 489.21 265.12 461.64 274.99"/><polygon class="cls-11" points="749.95 158.27 735.65 140.44 747.15 138.38 749.95 158.27"/><polygon class="cls-12" points="797.27 164.17 806.99 141.77 795.64 138.09 781.2 141.18 787.1 156.51 797.27 164.17"/><path class="cls-11" d="M808.62,180.38l-28.31,12.08,5.16-22.1,11.5-6.49S808.47,180.53,808.62,180.38Z"/><polygon class="cls-12" points="808.62 180.38 784.29 188.04 790.19 193.05 793.58 191.14 808.62 180.38"/><polygon class="cls-16" points="732.41 224.89 734.48 202.48 739.04 197.18 744.06 198.8 745.23 207.5 748.77 212.8 747.15 221.2 732.41 224.89"/><polygon class="cls-17" points="749.07 236.97 747.15 221.2 745.23 207.5 768.82 207.5 784.15 213.83 779.14 228.27 759.09 236.53 749.07 236.97"/><polygon class="cls-18" points="786.5 199.24 780.46 217.52 795.2 215.6 793.58 191.14 786.5 199.24"/><polygon class="cls-17" points="693.35 305.94 657.98 304.91 657.98 299.6 677.73 296.36 693.35 300.34 693.35 305.94"/><polygon class="cls-2" points="693.35 291.64 693.35 300.34 657.98 299.6 676.99 286.93 686.42 285.6 693.35 291.64"/><polygon class="cls-10" points="728.43 234.61 727.99 265.71 719.14 273.22 707.35 268.95 712.07 245.52 728.43 234.61"/><polygon class="cls-7" points="707.8 240.95 685.39 238.59 681.71 259.96 693.64 267.92 707.35 268.95 717.82 251.71 707.8 240.95"/><polygon class="cls-14" points="681.71 259.96 707.35 268.95 693.35 291.64 676.99 286.93 681.71 259.96"/><polygon class="cls-17" points="709.71 295.92 720.47 291.64 731.82 296.65 731.53 302.11 709.86 301.81 709.71 295.92"/><polygon class="cls-2" points="713.1 285.6 709.71 295.92 731.82 296.65 727.69 285.31 721.36 282.65 713.1 285.6"/><polygon class="cls-17" points="727.99 265.71 707.35 268.95 713.1 285.6 727.69 285.31 727.99 265.71"/><polygon class="cls-19" points="706.76 230.63 685.39 238.59 717.82 251.71 728.43 234.61 706.76 230.63"/><polygon class="cls-1" points="689.08 213.54 685.39 238.59 728.43 234.61 724.01 216.93 709.12 190.11 700.72 186.57 689.08 213.54"/><polygon class="cls-20" points="644.27 201.16 652.67 195.12 664.02 193.79 664.02 203.37 655.62 203.07 644.27 201.16"/><polygon class="cls-21" points="666.82 213.09 655.62 203.07 664.02 193.79 672.57 202.78 671.24 209.41 666.82 213.09"/><path class="cls-3" d="M719.74,206.17c-1.33.74-25.36,12.23-25.36,12.23l-16.21-3.54-2.07-6,24.62-22.25Z"/><polygon class="cls-20" points="678.46 226.65 698.51 216.48 672.57 202.78 666.82 213.09 678.46 226.65"/><polygon class="cls-2" points="728.43 234.61 700.72 186.57 715.61 185.69 728.43 188.78 728.43 234.61"/><path class="cls-16" d="M737.72,179.79l-9.29,9,5.6,3.39,9.14-2.65,5.31-7.52S737.57,180.08,737.72,179.79Z"/><polygon class="cls-18" points="744.06 198.8 743.17 189.52 728.43 188.78 734.48 202.48 744.06 198.8"/><polygon class="cls-15" points="755.85 190.4 745.23 207.5 783.85 214.57 793.58 191.14 778.55 186.13 755.85 190.4"/><polygon class="cls-19" points="787.39 238.59 780.76 241.83 753.05 240.65 749.07 236.97 780.17 225.33 787.39 238.59"/><polygon class="cls-16" points="754.67 280.15 752.16 262.32 759.09 259.96 765.87 270.57 762.77 281.03 759.09 283.69 754.67 280.15"/><polygon class="cls-10" points="742.73 290.31 754.67 280.15 762.77 281.03 763.81 288.69 755.85 291.64 742.73 290.31"/><polygon class="cls-19" points="743.17 293.56 742.73 290.31 763.81 288.69 764.1 291.94 743.17 293.56"/><polygon class="cls-16" points="787.83 272.19 785.18 266.3 775.3 263.5 771.91 268.65 781.93 279.26 785.18 278.97 787.83 272.19"/><polygon class="cls-10" points="792.84 277.35 787.83 272.19 781.93 279.26 781.49 286.34 777.51 289.58 779.87 291.2 789.16 291.94 792.84 280.88 792.84 277.35"/><polygon class="cls-19" points="777.51 289.58 788.13 289.88 792.84 277.35 794.91 279.56 790.19 293.26 777.51 293.26 777.51 289.58"/><polygon class="cls-16" points="772.06 212.06 784.15 213.83 795.2 215.6 788.57 228.57 780.17 225.33 768.52 221.35 767.49 214.86 772.06 212.06"/><polygon class="cls-16" points="767.05 200.13 770.44 199.83 772.06 212.06 765.43 211.03 767.05 200.13"/><polygon class="cls-18" points="758.06 220.91 768.52 221.35 772.06 212.06 763.51 207.5 759.83 212.21 758.06 220.91"/><polygon class="cls-16" points="752.01 208.82 758.06 220.91 763.51 207.5 755.11 204.25 752.01 208.82"/><polygon class="cls-14" points="785.18 266.3 787.39 238.59 749.07 236.97 752.16 262.32 785.18 266.3"/><path class="cls-22" d="M689.22,169.18c.89.88,11.5,17.39,11.5,17.39l4-3.69,8.7-3.68,2.8-7.22Z"/><polygon class="cls-20" points="672.42 178.61 706.47 174.19 708.09 150.91 706.47 126 664.9 125.71 672.42 178.61"/><polygon class="cls-21" points="701.75 124.08 706.47 174.19 714.43 173.6 700.72 186.57 719 184.06 723.42 163.73 719.14 135.14 701.75 124.08"/><polygon class="cls-23" points="730.5 136.02 723.42 163.73 719.14 157.83 713.4 152.82 709.71 152.53 702.19 129.24 701.9 126.59 717.52 123.5 730.5 136.02"/><polygon class="cls-24" points="717.82 109.94 730.5 136.02 702.19 129.24 707.5 117.45 717.82 109.94"/><polygon class="cls-25" points="670.36 111.12 717.82 109.94 702.19 129.24 680.67 120.25 670.36 111.12"/><polygon class="cls-23" points="667.11 141.18 650.75 128.5 678.17 127.92 667.11 141.18"/><polygon class="cls-20" points="713.54 146.49 721.95 147.66 719.14 157.83 713.25 157.24 713.54 146.49"/><polygon class="cls-22" points="716.2 149.58 719.14 149.58 716.2 153.71 716.2 149.58"/><polygon class="cls-22" points="715.76 162.11 713.25 157.24 719.14 157.83 715.76 162.11"/><polygon class="cls-1" points="720.03 176.84 728.43 188.78 700.72 186.57 720.03 176.84"/><polygon class="cls-21" points="669.77 146.04 682.74 152.67 679.79 142.06 669.77 146.04"/><polygon class="cls-21" points="686.42 140.88 687.31 152.53 699.25 142.06 686.42 140.88"/><polygon class="cls-23" points="669.77 146.04 678.91 141.03 680.82 143.09 669.77 146.04"/><polygon class="cls-23" points="685.1 142.36 687.75 139.26 699.25 142.06 685.1 142.36"/><polygon class="cls-22" points="684.36 154.74 682.15 156.51 685.24 158.72 687.9 155.77 684.36 154.74"/><polygon class="cls-26" points="678.91 141.03 682.15 156.51 687.9 155.77 687.75 139.26 678.91 141.03"/><polygon class="cls-22" points="695.71 163.87 694.68 166.09 689.96 164.46 682 168.44 680.97 166.23 689.81 161.96 695.71 163.87"/><path class="cls-27" d="M675,147a2.29,2.29,0,1,1-2,2.55A2.28,2.28,0,0,1,675,147Z"/><path class="cls-27" d="M690.68,145.05a2.28,2.28,0,1,1-2,2.55A2.28,2.28,0,0,1,690.68,145.05Z"/><polygon class="cls-28" points="778.55 177.73 760.56 182.59 770.88 193.64 785.18 184.8 778.55 177.73"/><polygon class="cls-16" points="744.64 138.82 748.48 182 778.1 183.47 784 162.99 781.2 141.18 760.71 136.91 744.64 138.82"/><polygon class="cls-18" points="783.12 183.62 778.1 183.47 781.2 141.18 789.89 158.57 794.32 169.18 784.29 188.04 770.88 193.64 783.12 183.62"/><polygon class="cls-28" points="792.25 161.52 789.89 163.87 794.32 169.18 797.27 164.17 792.25 161.52"/><polygon class="cls-13" points="763.51 115.69 735.65 140.44 781.2 141.18 777.51 126.44 763.51 115.69"/><polygon class="cls-11" points="793.14 124.82 763.51 115.69 781.2 141.18 793.58 136.61 793.14 124.82"/><polygon class="cls-13" points="806.99 141.77 793.14 124.82 781.2 141.18 806.99 141.77"/><polygon class="cls-11" points="781.2 141.18 789.89 163.87 789.75 153.41 781.2 141.18"/><polygon class="cls-16" points="789.75 153.41 789.89 163.87 797.27 164.17 789.75 153.41"/><polygon class="cls-18" points="749.36 151.79 759.97 159.75 761.6 154 760.27 150.91 749.36 151.79"/><polygon class="cls-18" points="763.95 150.91 763.36 160.63 775.45 152.67 763.95 150.91"/><polygon class="cls-29" points="749.36 151.79 754.96 149.28 760.27 150.91 749.36 151.79"/><polygon class="cls-29" points="763.95 150.91 769.55 149.87 775.45 152.67 763.95 150.91"/><polygon class="cls-28" points="761.15 161.96 758.79 163.14 761.3 165.64 764.1 163.43 761.15 161.96"/><polygon class="cls-30" points="760.27 150.91 758.79 163.14 764.1 163.43 763.95 150.91 760.27 150.91"/><polygon class="cls-28" points="758.79 168.44 765.28 168.44 765.58 168.44 765.87 168.74 769.26 172.86 770.29 174.04 768.67 174.04 757.91 173.75 757.02 173.75 757.32 172.86 758.06 169.03 758.21 168.44 758.79 168.44"/><polygon class="cls-31" points="764.99 169.92 759.38 169.92 758.94 172.27 767.05 172.42 764.99 169.92"/><path class="cls-27" d="M754,153.55a2.22,2.22,0,1,1-2.32,2.13A2.23,2.23,0,0,1,754,153.55Z"/><path class="cls-27" d="M769.37,154.21a2.22,2.22,0,1,1-2.31,2.12A2.22,2.22,0,0,1,769.37,154.21Z"/><polygon class="cls-24" points="650.75 128.5 670.36 111.12 702.19 129.24 650.75 128.5"/><path class="cls-25" d="M250,293.26l-.59,4.87,5.46.44.15-5Zm162.58,43.33,5.75-2.36,3.54,4.72-7.23,3.68Zm-9.58-.88,6.93-2.66-1.62,6.05Zm28.3-11.06,4-4,7.37,2.66-6,4.71Zm53.06-40.38.45,7.08h5.3l2.36-6.78ZM515,280.15l2.21,8.1,11.65-5.3-2.8-8.7ZM235.69,300l-1.62,10.32,11.64-2.07.44-7.66Z"/><polygon class="cls-18" points="765.87 270.57 752.16 262.32 767.64 264.08 765.87 270.57"/><polygon class="cls-18" points="767.64 264.08 771.91 268.65 785.18 266.3 767.64 264.08"/><polygon class="cls-2" points="267.38 225.33 285.51 226.21 285.21 254.21 265.61 252.59 267.38 225.33"/><polygon class="cls-24" points="322.94 214.42 309.09 197.33 303.34 206.31 306.88 210.59 322.94 214.42"/><polygon class="cls-12" points="310.56 189.37 322.94 214.42 308.2 202.34 306.29 195.41 310.56 189.37"/><polygon class="cls-32" points="344.91 87.39 342.4 92.69 313.07 115.09 323.68 122.91 334.15 126.59 353.9 116.57 344.91 87.39"/><polygon class="cls-29" points="313.07 115.09 289.04 131.16 287.13 138.82 290.52 145.75 329.13 133.96 326.04 130.42 323.68 122.91 313.07 115.09"/><polygon class="cls-33" points="334.15 126.59 313.22 115.39 326.04 130.42 334.15 126.59"/><polygon class="cls-34" points="372.18 129.83 349.62 118.63 361.86 107.14 388.83 105.81 400.48 109.35 389.57 127.18 372.18 129.83"/><polygon class="cls-29" points="273.86 121.14 261.48 130.13 268.56 139.56 279.02 130.42 273.86 121.14"/><polygon class="cls-23" points="273.86 121.14 275.34 130.13 276.37 138.67 285.06 145.45 290.52 145.75 289.04 131.16 273.86 121.14"/><polygon class="cls-34" points="419.78 129.54 429.51 121.73 421.55 110.23 409.47 117.31 403.13 137.35 419.78 129.54"/><polygon class="cls-12" points="436.29 131.6 412.12 151.2 389.13 155.92 372.47 147.96 368.78 141.18 393.69 134.25 436.29 131.6"/><polygon class="cls-5" points="389.13 155.92 356.55 174.34 344.91 159.6 368.78 141.18 389.13 155.92"/><polygon class="cls-10" points="415.21 224.3 429.51 225.33 429.36 218.69 424.2 212.21 415.21 212.36 415.21 224.3"/><polygon class="cls-19" points="430.69 218.25 432.17 221.94 429.51 225.33 424.06 217.37 430.69 218.25"/><polygon class="cls-19" points="389.13 155.92 411.68 146.63 449.12 143.83 413 169.47 366.87 181.56 357.29 168.44 389.13 155.92"/><polygon class="cls-19" points="328.1 180.23 340.04 179.35 351.39 185.83 335.03 198.51 328.1 180.23"/><polygon class="cls-6" points="370.55 178.02 363.18 185.1 351.39 185.83 328.1 180.23 311.89 158.42 326.78 146.34 370.55 178.02"/><polygon class="cls-2" points="310.86 146.78 328.99 133.96 337.39 133.96 332.38 147.96 315.87 158.86 303.49 161.22 304.52 149.43 310.86 146.78"/><path class="cls-19" d="M283.88,196.29c9.73.89,17.25,5.31,23,14.3S314.4,233,313.36,246c-2.06,25.79-17.39,45.39-36.84,43.77-19.61-1.48-31.7-20.93-29.63-46.87C248.8,217.07,264.28,194.82,283.88,196.29ZM274.6,272c-4.57-5.6-6.93-15.91-5.9-27.85,1-13.26,5.9-24,12.24-28C300.39,218.84,302.31,267,274.6,272Z"/><path class="cls-2" d="M287,214.42c8.7.74,14.74,15.18,13.41,32.28s-9.58,30.5-18.27,29.91A11.14,11.14,0,0,1,274.6,272c6.19-4.12,11.2-15,12.23-28.14.89-11.65-1.47-22.11-5.89-27.71A9.29,9.29,0,0,1,287,214.42Z"/><polygon class="cls-10" points="277.25 240.36 285.51 225.92 293.61 241.24 285.21 254.21 277.25 240.36"/><polygon class="cls-19" points="284.77 238.59 284.77 242.72 293.91 244.63 294.2 237.41 284.77 238.59"/><polygon class="cls-1" points="300.1 249.2 289.49 247.43 297 200.86 292.43 187.6 304.08 157.39 315.87 158.86 316.75 178.32 310.56 189.37 300.1 249.2"/><path class="cls-14" d="M297,200.86l1-6.48,11.35,1.33-1.17,6.63ZM299.07,188l1-6.63,11.5,1.33-1,6.63Zm2.06-12.82,1.18-6.63,11.64,1-1.18,6.63Zm2.21-13,.74-4.86,11.79,1.47-.89,4.42Z"/><polygon class="cls-13" points="250.28 209.26 266.34 209.56 290.08 197.62 299.07 188.04 282.56 181.12 274.75 186.57 250.28 209.26"/><polygon class="cls-11" points="297 200.86 266.34 209.56 299.07 188.04 297 200.86"/><polygon class="cls-4" points="267.82 170.95 274.75 186.57 299.07 188.04 298.77 169.47 274.3 168 267.82 170.95"/><polygon class="cls-5" points="310.86 146.78 304.52 149.43 295.53 169.33 299.07 188.04 310.86 146.78"/><polygon class="cls-2" points="275.34 130.13 285.06 145.45 272.98 151.35 261.48 130.13 275.34 130.13"/><polygon class="cls-6" points="274.6 144.86 267.82 170.95 295.97 171.54 310.86 146.78 274.6 144.86"/><polygon class="cls-12" points="283.3 150.61 282.12 154 285.21 154.74 282.71 168.44 287.86 168.74 292.73 150.17 283.3 150.61"/><polygon class="cls-11" points="245.86 155.92 235.69 145.6 260.6 137.64 271.21 157.98 245.86 155.92"/><polygon class="cls-13" points="241.29 133.22 235.69 145.6 258.68 146.04 264.43 137.35 261.48 130.13 241.29 133.22"/><polygon class="cls-12" points="274.6 144.86 261.48 130.13 258.68 146.04 271.21 157.98 274.6 144.86"/><polygon class="cls-3" points="278.58 135.28 323.39 137.94 328.99 133.96 275.34 130.13 278.58 135.28"/><polygon class="cls-2" points="363.48 241.69 330.17 235.64 329.43 194.08 347.56 197.03 363.48 241.69"/><polygon class="cls-15" points="339.6 200.27 315.87 158.86 310.56 189.37 339.6 200.27"/><polygon class="cls-3" points="363.48 241.69 339.6 200.27 368.78 203.52 366.87 227.24 363.48 241.69"/><polygon class="cls-1" points="378.66 235.94 363.48 241.69 362.59 207.94 389.57 193.2 397.82 194.82 378.66 235.94"/><polygon class="cls-2" points="372.91 211.77 397.82 194.82 378.66 235.94 371 238.74 372.91 211.77"/><polygon class="cls-2" points="391.19 178.17 366.87 184.51 339.6 200.27 362.59 207.94 389.57 193.2 391.19 178.17"/><path class="cls-19" d="M314,169.62l15.48,26.82-9.14-3.39-7.52-16.8S313.36,169.62,314,169.62Z"/><polygon class="cls-3" points="335.18 192.46 391.04 169.77 391.19 178.17 339.6 200.27 335.18 192.46"/><polygon class="cls-3" points="449.12 143.83 417.28 159.6 414.77 172.27 450.74 149.58 449.12 143.83"/><polygon class="cls-35" points="386.92 233.28 405.34 237.41 406.81 229.16 392.07 226.51 386.92 233.28"/><path class="cls-19" d="M433.64,177.58c17.24,1.33,29.63,19.45,28,40.38-1.76,20.78-17.09,36.55-34.34,35.07s-29.63-19.6-27.86-40.38S416.54,176.11,433.64,177.58Zm-8.25,60.57c-6.34-4.13-9.73-14.44-7.82-25.35,1.77-9.43,6.93-17,13.12-19.89C451,201.75,446.76,237.56,425.39,238.15Z"/><path class="cls-2" d="M438.5,191.73c9.29,1.76,14.74,13.85,12.38,27.11s-11.79,22.7-21.07,20.93a18.21,18.21,0,0,1-4.42-1.62c5.89-2.07,12.08-6.78,13.55-17.24,2.22-14.3-3.83-23.44-8.25-28A13.12,13.12,0,0,1,438.5,191.73Z"/><polygon class="cls-2" points="438.94 220.91 423.17 203.52 397.82 194.82 395.02 200.86 432.17 221.94 438.94 220.91"/><polygon class="cls-1" points="443.51 208.82 438.94 220.91 397.82 194.82 405.34 184.51 443.51 208.82"/><polygon class="cls-19" points="329.73 208.08 346.38 212.06 339.6 200.27 329.43 196.44 329.73 208.08"/><polygon class="cls-19" points="386.18 241.1 371 238.74 371.44 233.58 405.05 220.02 406.52 225.33 386.18 241.1"/><polygon class="cls-5" points="387.06 211.33 371.44 233.58 385.15 235.79 405.05 220.02 401.95 210.15 394.43 207.64 387.06 211.33"/><polygon class="cls-36" points="403.42 191.73 406.08 194.38 417.87 192.46 410.35 183.03 403.42 191.73"/><polygon class="cls-17" points="385.88 180.53 387.06 211.33 401.95 210.15 409.17 183.03 385.88 180.53"/><polygon class="cls-4" points="421.99 179.2 436.29 131.6 389.13 155.92 387.36 169.47 404.6 178.91 421.99 179.2"/><polygon class="cls-5" points="387.36 169.47 421.99 179.2 417.87 192.46 385.88 180.53 387.36 169.47"/><polygon class="cls-19" points="400.48 109.35 403.72 83.7 392.22 82.23 370.11 80.61 342.4 92.69 349.62 118.63 400.48 109.35"/><polygon class="cls-33" points="336.36 90.19 363.63 79.58 372.47 81.05 372.76 85.33 362.89 101.54 336.36 90.19"/><polygon class="cls-32" points="372.76 85.33 372.18 56.59 369.82 34.04 357.73 35.96 355.96 28 311 32.42 314.25 38.76 345.79 47.9 364.81 87.24 372.76 85.33"/><polygon class="cls-12" points="371 47.6 360.53 9.43 321.62 17.68 311 32.42 314.25 38.76 333.85 40.82 357.14 38.61 358.76 46.13 363.48 48.19 364.22 49.52 371 47.6"/><polygon class="cls-5" points="370.55 20.78 379.1 22.7 390.31 48.34 399.74 75.6 392.22 82.23 372.76 85.33 371 47.6 370.55 20.78"/><polygon class="cls-31" points="364.51 26.08 370.7 29.92 369.67 35.96 364.51 26.08"/><polygon class="cls-29" points="364.51 26.08 371 47.6 377.04 21.66 375.42 14 360.53 9.43 364.51 26.08"/><polygon class="cls-4" points="390.31 48.34 371 47.6 399.74 75.6 406.37 68.67 390.31 48.34"/><polygon class="cls-37" points="365.98 62.63 373.21 61.01 371 47.6 363.48 48.19 365.98 62.63"/><polygon class="cls-4" points="310.56 39.94 311 32.42 360.53 9.43 335.03 36.84 310.56 39.94"/><polygon class="cls-5" points="356.85 32.27 363.04 20.78 360.53 9.43 333.85 36.99 356.85 32.27"/><polygon class="cls-23" points="371 47.6 379.1 22.7 375.42 14 371 47.6"/><polygon class="cls-33" points="367.02 56.15 369.08 49.81 366.13 50.11 367.02 56.15"/><polygon class="cls-31" points="371.14 59.09 374.53 62.48 371.44 65.73 367.75 62.19 371.14 59.09"/><polygon class="cls-37" points="326.33 96.67 364.81 87.24 356.85 32.27 310.56 39.94 326.33 96.67"/><polygon class="cls-32" points="350.51 47.45 336.65 66.02 318.08 53.64 333.12 53.05 350.51 47.45"/><polygon class="cls-38" points="328.84 52.02 336.8 50.25 338.86 68.97 332.67 70.15 328.84 52.02"/><polygon class="cls-33" points="338.86 68.97 335.77 71.77 332.67 70.15 338.86 68.97"/><polygon class="cls-12" points="328.84 52.02 318.08 53.64 329.58 55.41 328.84 52.02"/><polygon class="cls-12" points="336.8 50.25 350.51 47.45 337.24 53.94 336.8 50.25"/><polygon class="cls-12" points="336.5 78.99 349.03 74.86 352.13 71.03 350.8 77.37 341.52 82.38 336.5 78.99"/><polygon class="cls-29" points="352.13 71.03 348.89 76.04 341.66 79.14 336.5 78.99 339.6 76.93 347.56 74.72 352.13 71.03"/><path class="cls-27" d="M324.27,58.06a2.62,2.62,0,0,1,3.1,1.48,2.78,2.78,0,0,1-1.92,3.24,2.36,2.36,0,0,1-2.8-1.92A2.06,2.06,0,0,1,324.27,58.06Z"/><path class="cls-27" d="M344,54.38a2.54,2.54,0,0,1,3.1,1.47,2.67,2.67,0,0,1-1.77,3.24,2.57,2.57,0,0,1-3-1.91A2.24,2.24,0,0,1,344,54.38Z"/><polygon class="cls-37" points="421.55 110.23 403.13 137.35 393.99 132.04 387.65 122.17 403.72 83.7 421.55 110.23"/><polygon class="cls-19" points="434.97 208.82 433.05 212.51 436.44 214.13 438.36 211.47 434.97 208.82"/><polygon class="cls-23" points="356.4 128.06 337.39 133.96 355.52 142.65 368.78 141.18 360.97 135.28 356.4 128.06"/><polygon class="cls-29" points="387.65 122.17 393.99 132.04 394.28 139.12 397.08 146.34 367.9 148.25 363.92 139.71 360.97 135.28 387.65 122.17"/><polygon class="cls-32" points="403.13 137.35 394.28 139.12 387.65 122.17 403.13 137.35"/><polygon class="cls-12" points="329.73 159.6 320.44 147.52 337.39 133.96 341.07 148.69 329.73 159.6"/><polygon class="cls-12" points="355.81 152.38 363.92 139.71 369.23 148.25 365.69 165.2 355.81 152.38"/><polygon class="cls-11" points="329.73 159.6 365.69 165.2 360.09 152.38 351.39 147.22 337.68 147.52 329.73 159.6"/><polygon class="cls-13" points="337.39 133.96 337.68 147.52 360.09 152.38 363.92 139.71 337.39 133.96"/><polygon class="cls-19" points="429.51 121.73 409.02 128.65 403.13 137.35 436.29 131.6 429.51 121.73"/></g></g></svg>