<svg id="Layer_8" data-name="Layer 8" xmlns="http://www.w3.org/2000/svg" viewBox="0 0 900 350"><defs><style>.cls-1,.cls-13,.cls-26{fill:#2b2b2b;}.cls-1{opacity:0.1;}.cls-2{fill:#c4c4c4;}.cls-3{fill:#ececeb;}.cls-4{fill:#e4c823;}.cls-5{fill:#ccae2d;}.cls-38,.cls-6{fill:#846528;}.cls-43,.cls-7{fill:#9d782c;}.cls-8{fill:#b38c2e;}.cls-9{fill:#cfcfcd;}.cls-10{fill:#9ca0a1;}.cls-11{fill:#f4d75c;}.cls-12{fill:#dddddc;}.cls-13{opacity:0.2;}.cls-14,.cls-31,.cls-40{fill:#fff;}.cls-15{fill:#8d7c2f;}.cls-16{fill:#66493b;}.cls-17{fill:#b08d79;}.cls-18,.cls-45{fill:#4f5353;}.cls-19{fill:#737474;}.cls-20{fill:#858686;}.cls-21,.cls-42{fill:#bd902d;}.cls-22,.cls-41{fill:#755924;}.cls-23{fill:#916a59;}.cls-24{fill:#a3a3a3;}.cls-25{fill:#b99e8e;}.cls-27{fill:#f5cbb3;}.cls-28{fill:#fde4d5;}.cls-29{fill:#c1907c;}.cls-30{fill:#fff0e9;}.cls-31{stroke:#c1907c;stroke-miterlimit:10;stroke-width:1.5px;}.cls-32{fill:none;}.cls-33,.cls-35{fill:#dfbda5;}.cls-34,.cls-36{fill:#c2987a;}.cls-35,.cls-36,.cls-37,.cls-38,.cls-39,.cls-40,.cls-41,.cls-42,.cls-43,.cls-44,.cls-45{fill-rule:evenodd;}.cls-37{fill:#8b6651;}.cls-39{fill:#e9cbb7;}.cls-44{fill:#474748;}</style></defs><title>explorers_Entrepreneur_ESTP_weaknesses</title><g id="background"><polygon class="cls-1" points="589.99 279.75 350.68 268.03 0 285.08 13.43 301.65 21.8 310.29 62.77 312.95 82.22 329.09 119.18 320.08 221.13 340.49 275.38 324.58 337.02 315.42 350.68 300.56 382.15 311.56 504.23 321.64 540.13 310.49 605.67 323.4 687.71 302.93 626.64 292.39 589.99 279.75"/><polygon class="cls-2" points="567.87 220.37 581.97 192.62 590.42 190.03 596.99 179.95 607.17 177.97 613.89 172.25 625.29 172.25 631.44 177.97 638.46 180.32 659.92 220.68 567.87 220.37"/><polygon class="cls-1" points="618.12 335.93 605.67 343.62 630.92 350.01 649.94 343.62 667.23 347.42 682.79 340.68 649.25 336.87 618.12 335.93"/><polygon class="cls-3" points="665.72 220.15 689.29 170.06 699.66 165.77 705.9 158.69 716.93 153.1 722.88 142.84 738.9 142.84 753.85 160.11 762.77 163.12 781.97 221.62 665.72 220.15"/><polygon class="cls-2" points="716.93 153.1 700.92 223.16 680.19 220.33 703.12 156.09 716.93 153.1"/><polygon class="cls-2" points="738.9 142.84 749.71 221.21 753.85 160.11 738.9 142.84"/><polygon class="cls-4" points="699.4 91.09 706.5 85.55 711.56 91.09 717.2 87.7 723.13 93.08 714.7 92.33 717.99 96.52 700.7 95.83 707.45 92.58 706.11 90.61 699.4 91.09"/><polygon class="cls-5" points="715.47 101.31 723.61 96.52 729.13 100.01 735.81 98.45 739.82 105.08 732.73 102.5 724.96 106.35 725.7 102.95 721.25 100.02 715.47 101.31"/><polygon class="cls-6" points="64.94 256.77 76.38 259.24 82.12 220.64 66.81 231.07 64.94 256.77"/><polygon class="cls-7" points="33.99 216.6 66.81 234.6 142.96 217.99 68.48 156.23 33.99 216.6"/><polygon class="cls-8" points="66.81 234.6 68.48 156.23 6.69 218.42 66.81 234.6"/><polygon class="cls-1" points="98.08 180.78 67.3 211.56 40.06 185.29 98.08 180.78"/><polygon class="cls-5" points="67.56 199.35 42.67 147.19 70.06 123.69 116.52 169.56 67.56 199.35"/><polygon class="cls-4" points="70.06 123.69 67.56 199.35 13.88 171.9 70.06 123.69"/><polygon class="cls-1" points="96.42 149.17 68.17 170.68 42.67 147.19 96.42 149.17"/><polygon class="cls-7" points="34.17 138.56 68.89 158.93 112.9 143.33 101.06 117.14 62.64 95.19 34.17 138.56"/><polygon class="cls-8" points="62.64 95.19 68.89 158.93 23.04 140.06 62.64 95.19"/><polygon class="cls-1" points="96.42 114.07 67.49 144.6 43.67 116.69 96.42 114.07"/><polygon class="cls-5" points="40.94 109.55 65.73 126.68 105.78 109.33 67.09 73.15 40.94 109.55"/><polygon class="cls-4" points="67.09 73.15 65.73 126.68 31.93 111.37 67.09 73.15"/><polygon class="cls-4" points="796.88 245.61 630.19 276.44 580.44 279.3 463.7 223.82 463.51 219.88 498.58 217.51 784.74 217.03 796.88 245.61"/><polygon class="cls-9" points="316.13 143.02 320.54 101.33 368.12 110.23 420.11 120.89 420.11 213.2 350.68 195.06 316.13 143.02"/><polygon class="cls-3" points="320.54 101.33 364.56 126.37 414.23 121.69 357.77 101.33 320.54 101.33"/><polygon class="cls-10" points="364.56 126.37 377.91 202.18 350.68 195.06 294.6 127.46 320.54 101.33 364.56 126.37"/><polygon class="cls-3" points="553.68 251.61 463.7 223.82 402.86 221.87 370.67 228.61 350.68 221.88 328 218.38 242.26 235.53 150.96 273.31 195.05 294.15 350.68 251.61 508.64 285.33 553.68 251.61"/><polygon class="cls-11" points="781.97 242.9 663.23 267.56 609.06 276.44 578.54 279.21 633.97 281.81 796.88 245.61 781.97 242.9"/><polygon class="cls-9" points="26.05 223.42 78.04 236.91 57.06 297.77 0 285.08 26.05 223.42"/><polygon class="cls-10" points="78.04 236.91 117.7 216.5 125.54 253.68 105.83 286.37 57.06 297.77 78.04 236.91"/><polygon class="cls-9" points="125.54 170.34 139.74 166.22 163.58 204.53 150.96 273.31 128.13 309.08 105.83 286.37 125.54 170.34"/><polygon class="cls-10" points="150.96 273.31 195.05 294.08 199.03 324.58 128.13 309.08 150.96 273.31"/><polygon class="cls-2" points="163.58 204.53 193.15 200.51 217.1 248.86 150.96 273.31 163.58 204.53"/><polygon class="cls-2" points="217.1 248.86 242.26 235.53 193.15 200.51 217.1 248.86"/><polygon class="cls-10" points="553.68 251.61 508.64 285.33 502.67 311.56 586.19 282.39 553.68 251.61"/><polygon class="cls-2" points="508.64 285.33 350.68 251.61 351.71 275.99 412.41 288.61 502.67 311.56 508.64 285.33"/><polygon class="cls-10" points="350.68 251.61 280.55 271.09 281.94 294.15 299.32 293.46 351.71 275.99 350.68 251.61"/><polygon class="cls-12" points="70.81 311.53 75.74 302.78 88.71 297.77 100.12 297.77 112.74 302.78 117.5 309.08 117.5 314.12 86.11 320.08 70.81 311.53"/><polygon class="cls-2" points="75.74 302.78 88.71 311.01 86.11 320.08 70.81 311.53 75.74 302.78"/><polygon class="cls-10" points="88.71 311.01 112.74 302.78 117.5 309.08 117.5 314.12 86.11 320.08 88.71 311.01"/><polygon class="cls-12" points="613.45 341.2 618.36 333.76 627.8 330.39 636.98 330.63 643.54 333.94 648.38 341.2 626.94 345.87 613.45 341.2"/><polygon class="cls-2" points="618.36 333.76 627.8 338.52 626.94 345.87 613.45 341.2 618.36 333.76"/><polygon class="cls-10" points="643.54 333.94 638.53 337.05 627.8 338.52 626.94 345.87 648.38 341.2 643.54 333.94"/><polygon class="cls-12" points="652.01 340.85 653.4 335.32 662.04 333.42 671.73 335.49 675.1 339.64 660.83 343.62 652.01 340.85"/><polygon class="cls-10" points="653.24 335.93 661.35 339.81 660.83 343.62 652.01 340.85 653.24 335.93"/><polygon class="cls-2" points="671.73 335.49 669.91 338.13 661.35 339.81 660.83 343.62 665.15 343.62 675.1 341.72 675.1 339.64 671.73 335.49"/><polygon class="cls-13" points="291.89 293.75 287.22 269.69 295.55 267.93 299.32 293.46 291.89 293.75"/><polygon class="cls-13" points="278.99 269.07 287.22 269.69 295.55 267.93 275.65 265.06 278.99 269.07"/><rect class="cls-11" x="503.17" y="227.64" width="32.11" height="2.59"/><rect class="cls-11" x="521.54" y="224.29" width="24.43" height="1.29"/><rect class="cls-11" x="691.29" y="230.59" width="32.11" height="2.59"/><rect class="cls-11" x="678.33" y="238.39" width="32.11" height="2.59"/><rect class="cls-11" x="521.54" y="234.47" width="28.5" height="1.33"/><polygon class="cls-1" points="4.74 324.91 15.5 322.83 23.8 325.51 15.63 329.7 4.74 324.91"/><polygon class="cls-1" points="27.3 324.13 31.93 321.79 38.59 324.13 31.93 326.72 27.3 324.13"/><polygon class="cls-7" points="33.49 315.85 33.49 325.51 30.37 323.55 28.98 315.19 33.49 315.85"/><polygon class="cls-7" points="19.31 318.94 17.92 325.86 14.98 326.72 14.98 315.85 19.31 318.94"/><polygon class="cls-4" points="27.26 296.2 25.7 309.08 33.49 315.85 45.94 308.44 27.26 296.2"/><polygon class="cls-5" points="17.92 313.59 33.49 315.85 27.26 296.2 17.92 313.59"/><polygon class="cls-4" points="13.43 301.65 8.45 313.2 19.31 318.94 28.98 315.19 13.43 301.65"/><polygon class="cls-5" points="13.43 301.65 19.31 318.94 0.98 315.85 13.43 301.65"/><polygon class="cls-7" points="483.54 333.92 483.12 339.84 486.12 332.92 483.54 333.92"/><polygon class="cls-4" points="483.54 333.92 478.87 328.59 487.63 327.25 491.76 332.15 483.54 333.92"/><polygon class="cls-14" points="484.2 331.68 484.2 330.1 486.37 329.68 486.87 331.27 484.2 331.68"/><polygon class="cls-1" points="478.87 339.46 483.12 337.4 489.85 339.84 482.48 341.34 478.87 339.46"/><polygon class="cls-7" points="461.43 326.88 461.01 332.79 464.01 325.87 461.43 326.88"/><polygon class="cls-4" points="461.43 326.88 456.76 321.54 466.23 318.82 469.64 325.1 461.43 326.88"/><polygon class="cls-14" points="462.09 324.64 462.09 323.05 465.16 322.16 464.76 324.22 462.09 324.64"/><polygon class="cls-1" points="456.76 332.42 461.01 330.35 467.74 332.79 460.36 334.29 456.76 332.42"/><polygon class="cls-7" points="497.98 325.5 497.56 331.42 500.56 324.49 497.98 325.5"/><polygon class="cls-4" points="497.98 325.5 493.32 320.17 502.08 318.82 508.29 321.26 497.98 325.5"/><polygon class="cls-14" points="499.06 322.85 498.43 320.67 500.59 320.26 502.35 321.26 499.06 322.85"/><polygon class="cls-1" points="493.32 331.04 497.56 328.98 504.3 331.42 496.92 332.92 493.32 331.04"/><polygon class="cls-12" points="2.62 41.47 20.22 30.23 47.77 32.32 90.47 30.23 109.37 43.32 31.62 44.84 2.62 41.47"/><polygon class="cls-2" points="109.37 43.32 36.94 38.99 2.62 41.47 25.33 47.76 109.37 43.32"/><polygon class="cls-12" points="289.07 32.94 350.04 19.99 419.37 26.46 442.16 19.99 465.33 41.27 389.16 47.76 316.13 45.42 289.07 32.94"/><polygon class="cls-2" points="289.07 32.94 334.03 41.27 392.7 36.6 465.33 41.27 388.7 53.98 314.29 49.17 289.07 32.94"/><polygon class="cls-2" points="642.14 54.85 666.57 48.95 717.32 51.81 738.17 51.81 765.11 54.85 739.98 65.11 657.72 65.11 642.14 54.85"/><polygon class="cls-12" points="716.42 54.85 765.11 54.85 738.17 48.79 715.51 49.56 663.85 44.27 642.14 54.85 663.85 61.13 716.42 54.85"/><polygon class="cls-1" points="863.95 295.52 870.43 292.68 881.2 294.1 873.72 298.12 863.95 295.52"/><polygon class="cls-1" points="791.58 306.81 802.22 308.5 806.63 305.78 797.55 305 791.58 306.81"/><polygon class="cls-1" points="779.08 294.73 789.71 296.41 794.12 293.69 785.04 292.91 779.08 294.73"/><polygon class="cls-7" points="873.72 284.48 873.72 296.48 870.61 295.1 867.15 281.96 873.72 284.48"/><polygon class="cls-5" points="867.15 266.22 855.56 282.48 873.72 284.48 882.88 276.98 867.15 266.22"/><polygon class="cls-4" points="867.15 266.22 873.72 284.48 882.88 276.98 867.15 266.22"/><polygon class="cls-7" points="799.62 301.5 798.84 307.46 800.85 307.46 802.86 298.12 799.62 301.5"/><polygon class="cls-4" points="796.9 289.54 789.12 299.29 799.62 301.5 810.13 295.52 796.9 289.54"/><polygon class="cls-5" points="796.9 289.54 799.62 301.5 789.12 299.29 796.9 289.54"/><polygon class="cls-1" points="109.46 342.09 120.09 343.77 124.5 341.05 115.42 340.27 109.46 342.09"/><polygon class="cls-7" points="117.5 336.77 116.72 342.74 118.73 342.74 120.74 333.4 117.5 336.77"/><polygon class="cls-4" points="114.77 324.81 111.45 333.4 117.5 336.77 128 330.79 114.77 324.81"/><polygon class="cls-5" points="114.77 324.81 117.5 336.77 106.99 334.56 114.77 324.81"/><polygon class="cls-7" points="785.24 288.54 785.03 294.66 786.98 294.66 789.52 285.08 785.24 288.54"/><polygon class="cls-4" points="786.57 276.27 775.74 286.25 785.24 288.54 797.47 282.43 786.57 276.27"/><polygon class="cls-5" points="786.57 276.27 785.24 288.54 775.74 286.25 786.57 276.27"/><polygon class="cls-1" points="815.37 288.46 831.04 285.98 852.04 288.46 833.08 294.42 815.37 288.46"/><polygon class="cls-1" points="869.22 253.55 873.92 252.01 878.72 253.55 873.92 254.71 869.22 253.55"/><polygon class="cls-4" points="876.37 241.59 869.22 243.83 872.71 247.76 880.87 243.56 876.37 241.59"/><polygon class="cls-7" points="873.74 253.84 872.71 247.76 874.77 246.69 873.74 253.84"/><polygon class="cls-14" points="873.74 245.21 872.71 244.4 875.05 243.71 876.1 244.46 873.74 245.21"/><polygon class="cls-1" points="876.5 260.73 880.41 259.25 884.41 260.73 880.41 261.84 876.5 260.73"/><polygon class="cls-7" points="880.45 261.03 882.88 256.81 880.45 256.26 880.45 261.03"/><polygon class="cls-4" points="882.88 256.81 877.95 255.84 881.67 252.96 887.29 254.89 882.88 256.81"/><polygon class="cls-14" points="881.14 255.32 882 254.57 884.27 254.69 882.62 255.76 881.14 255.32"/><polygon class="cls-1" points="858.29 258.64 862.2 257.17 866.21 258.64 862.2 259.75 858.29 258.64"/><polygon class="cls-4" points="857.37 253.05 862.29 250.27 867.15 253.17 862.45 255.84 857.37 253.05"/><polygon class="cls-14" points="860.95 253.05 861.79 252.51 863.45 252.51 862.26 253.42 860.95 253.05"/><polygon class="cls-7" points="862.45 255.84 862.45 258.92 860.39 254.71 862.45 255.84"/><polygon class="cls-12" points="820.49 286.84 822.16 283.5 831.54 281.96 841.29 283.5 843.79 285.46 845.66 289.22 830.91 291.96 821.04 289.22 820.49 286.84"/><polygon class="cls-3" points="82.7 192.42 52.41 174.57 91.3 164.97 82.7 192.42"/><polygon class="cls-10" points="821.04 289.22 830.91 291.96 845.66 289.22 843.79 285.46 841.91 286.96 831.04 288.46 822.16 283.5 820.49 286.84 821.04 289.22"/><polygon class="cls-2" points="841.91 286.96 845.66 289.22 843.79 285.46 841.91 286.96"/><polygon class="cls-2" points="831.04 288.46 820.49 286.84 822.16 283.5 831.04 288.46"/><polygon class="cls-3" points="163.58 204.53 258.54 191.95 268.06 174.93 287.26 168.37 350.68 221.88 370.67 228.61 402.86 221.87 401.26 204.53 294.6 127.46 225.1 141.45 139.74 166.22 163.58 204.53"/><polygon class="cls-10" points="80.77 198.1 101.06 117.14 191.04 133.81 139.74 166.22 116.52 223.42 80.77 198.1"/><polygon class="cls-3" points="26.05 223.42 80.77 198.1 117.7 216.5 78.04 236.91 26.05 223.42"/><polygon class="cls-10" points="52.41 174.57 44.79 214.75 80.77 198.1 82.7 192.42 82.7 192.42 52.41 174.57"/><polygon class="cls-2" points="350.68 221.88 330.97 188.89 320.54 209.92 328 218.38 350.68 221.88"/><polygon class="cls-9" points="330.97 188.89 362.35 179.96 401.26 204.53 350.68 221.88 330.97 188.89"/><polygon class="cls-1" points="67.73 208.66 54.73 215.23 77.83 223.92 101.06 213.92 67.73 208.66"/><polygon class="cls-15" points="66.48 211.33 71.58 205.1 77.2 204.06 82.99 210.46 82.99 213.92 77.2 217.29 66.48 211.33"/><polygon class="cls-5" points="77.2 204.06 82.32 203.4 87.51 207.62 86.54 212.34 82.99 213.92 82.99 210.46 77.2 204.06"/><polygon class="cls-4" points="82.32 203.4 90.1 202.81 91.79 204.5 86.62 211.92 87.51 207.62 82.32 203.4"/><polygon class="cls-4" points="61.64 211.92 59.04 206.44 55.99 205.28 57.75 200.93 61.64 202.81 60.4 205.28 62.74 210.68 63.78 205.34 62.74 202.81 65.27 200.35 67.73 203.4 65.66 205.21 64.81 211.56 66.48 211.33 77.2 217.29 86.62 211.92 98.47 213.92 77.83 219.63 65.61 216.69 59.3 215.56 61.64 211.92"/><polygon class="cls-14" points="57.19 204.21 57.81 202.81 59.37 203.4 58.49 204.4 57.19 204.21"/><polygon class="cls-14" points="63.61 203.2 64.23 202.16 65.95 203.2 64.56 204.24 63.61 203.2"/><polygon class="cls-4" points="73.11 206.9 72.21 209.69 73.7 209.99 74.73 208.66 73.11 206.9"/><polygon class="cls-4" points="76.16 210.27 74.73 211.37 75.77 212.67 77.23 211.92 76.16 210.27"/><polygon class="cls-4" points="75.58 209.36 75.58 207.81 77.2 207.37 77.23 209.04 75.58 209.36"/><polygon class="cls-9" points="198.52 149.16 191.04 133.81 138.04 146.26 139.74 166.22 198.52 149.16"/><polygon class="cls-3" points="146.71 103.42 101.06 117.14 138.04 146.26 191.04 133.81 146.71 103.42"/><polygon class="cls-1" points="674.65 266.69 681.29 272.6 695.3 268.41 696.51 266.35 674.65 266.69"/><polygon class="cls-3" points="692.82 264.42 682.18 269.35 678.4 264.8 679.15 257.29 690.79 255.47 694.9 259.32 692.82 264.42"/><polygon class="cls-2" points="679.15 257.29 684.28 261.21 682.18 269.35 674.65 266.69 679.15 257.29"/><polygon class="cls-10" points="684.28 261.21 694.9 259.32 696.51 266.35 682.18 269.35 684.28 261.21"/><polygon class="cls-1" points="852.04 255.16 815.34 248.93 777.55 263.74 775.47 260.59 787.81 251.43 699.14 263.89 706.65 271.88 717.3 270.21 733.43 277.8 754.49 271.22 762.07 274.02 778.66 265.29 778.66 265.29 815.34 276.27 852.04 255.16"/><polygon class="cls-3" points="699.14 263.89 704.61 250.3 716.13 247.21 720.29 233.6 729.89 231.94 740.13 233.6 742.05 242.27 750.37 240.62 757.08 242.8 760.65 250.3 773.23 257.19 772.91 263.72 759.96 269.78 750.37 266.26 729.57 273.02 717.3 268.23 708.9 269.78 699.14 263.89"/><polygon class="cls-2" points="704.61 250.3 714.15 253.73 708.9 269.78 699.14 263.89 704.61 250.3"/><polygon class="cls-2" points="720.29 233.6 731.69 238.91 729.99 255.06 716.13 247.21 720.29 233.6"/><polygon class="cls-10" points="731.69 238.91 740.33 233.6 750.57 266.26 729.77 273.02 729.99 255.06 731.69 238.91"/><polygon class="cls-10" points="773.23 257.19 760.65 262.23 760.65 271.22 777.65 263.89 773.23 257.19"/><polygon class="cls-2" points="760.65 262.23 752.71 255.06 748.34 247.21 743.78 244.61 746.28 252.56 751.47 267.85 761.06 271.37 760.65 262.23"/><polygon class="cls-3" points="722.84 251.06 729.99 255.06 746.28 252.57 752.71 255.06 731.49 260.59 714.15 253.73 718.17 251.06 722.84 251.06"/><polygon class="cls-10" points="752.71 255.06 754.49 268.96 733.43 275.75 731.49 260.59 752.71 255.06"/><polygon class="cls-2" points="733.43 275.75 717.3 268.23 722.9 257.19 731.49 260.59 733.43 275.75"/><polygon class="cls-10" points="757.08 242.8 748.34 247.21 752.71 255.06 760.65 250.3 757.08 242.8"/><polygon class="cls-10" points="717.3 268.23 719.13 252.2 714.15 253.73 708.9 269.78 717.3 268.23"/><polygon class="cls-2" points="719.13 252.2 731.49 260.59 729.57 273.02 717.3 268.23 719.13 252.2"/><polygon class="cls-10" points="760.65 250.3 780.51 247.4 787.81 251.43 771.86 256.44 760.65 250.3"/><polygon class="cls-3" points="780.51 247.4 771.98 244.33 758.54 245.86 760.65 250.3 780.51 247.4"/><polygon class="cls-1" points="710.01 275.75 727.78 276.76 719.13 280.59 710.01 275.75"/><polygon class="cls-3" points="711.65 275.75 714.01 273.21 717.3 272.29 723.91 274.02 725.37 277.21 719.13 279.49 711.65 275.75"/><polygon class="cls-2" points="714.01 273.21 718.51 275.89 719.13 279.49 711.65 275.75 714.01 273.21"/><polygon class="cls-10" points="723.91 274.02 718.51 275.89 719.13 279.49 725.37 277.21 723.91 274.02"/><polygon class="cls-6" points="830.5 261.03 838.05 225.92 823.1 228.25 821.4 264.63 830.5 261.03"/><polygon class="cls-5" points="869.69 222.41 899.04 216.64 834.03 141.73 795.2 187.39 847.17 228.25 869.69 222.41"/><polygon class="cls-4" points="834.03 141.73 847.17 228.25 772.29 201.72 834.03 141.73"/><polygon class="cls-1" points="858.02 169.37 841.65 191.93 821.86 189.08 839.29 176.36 858.02 169.37"/><polygon class="cls-7" points="839.29 176.36 890.98 157.07 815.62 70.81 772.29 151.43 839.29 176.36"/><polygon class="cls-8" points="815.62 70.81 839.29 176.36 764.42 152.37 815.62 70.81"/><polygon class="cls-1" points="852.07 112.54 830.58 137.51 808.14 111.94 852.07 112.54"/><polygon class="cls-5" points="827.3 122.89 873.72 103.5 828.85 43.58 787.43 84.43 827.3 122.89"/><polygon class="cls-4" points="828.85 43.58 827.3 122.89 808.14 111.94 793 102 781.97 84.43 828.85 43.58"/><polygon class="cls-6" points="795.2 267.59 806.8 269.09 809.29 230.14 794.91 241.81 795.2 267.59"/><polygon class="cls-7" points="760.99 230.14 795.2 245.33 869.69 222.41 790.31 167.1 760.99 230.14"/><polygon class="cls-8" points="795.2 245.34 790.31 167.1 740.13 233.6 795.2 245.34"/><polygon class="cls-1" points="821.86 189.08 793.76 222.34 764.42 198.44 821.86 189.08"/><polygon class="cls-5" points="793 210.15 763.84 160.25 789.16 134.55 839.29 176.36 793 210.15"/><polygon class="cls-4" points="789.16 134.55 793 210.15 737.21 187.29 789.16 134.55"/><polygon class="cls-1" points="817.56 157.73 791.72 184.99 763.84 160.25 817.56 157.73"/><polygon class="cls-7" points="754.65 152.37 790.95 169.75 833.5 150.53 779.38 106.77 754.65 152.37"/><polygon class="cls-8" points="779.38 106.77 790.95 169.75 747.17 154.41 779.38 106.77"/><polygon class="cls-1" points="798.94 122.3 788.35 155.59 764.57 128.68 798.94 122.3"/><polygon class="cls-5" points="758.96 122.89 785.1 137.88 808.14 111.94 781.97 84.43 758.96 122.89"/><polygon class="cls-4" points="781.97 84.43 785.1 137.88 754.65 123.65 781.97 84.43"/><polygon class="cls-1" points="791.49 76.13 827.56 109.24 857.03 81.21 791.49 76.13"/><polygon class="cls-7" points="827.81 96.42 869.69 74.63 831.63 23.69 789.94 70.81 827.81 96.42"/><polygon class="cls-8" points="831.63 23.69 827.81 96.42 781.97 70.81 831.63 23.69"/><polygon class="cls-1" points="854.08 53.73 828.89 75.99 807.55 46.54 854.08 53.73"/><polygon class="cls-5" points="866.88 49.03 829.82 62.64 806.41 38.13 840.36 0 866.88 49.03"/><polygon class="cls-4" points="840.36 0 829.81 62.64 798.94 40.31 840.36 0"/></g><g id="additional_character" data-name="additional character"><polygon class="cls-3" points="521.25 110.23 526.9 92.74 510.24 85.4 493.09 48.96 511.83 17.89 567.85 11.96 604.57 46.14 586.09 88.22 542.72 95.53 521.25 110.23"/><polygon class="cls-7" points="528.03 51.22 520.69 53.48 516.73 59.7 522.38 65.06 533.11 61.1 528.03 51.22"/><polygon class="cls-7" points="576.89 51.22 569.55 53.48 565.59 59.7 571.24 65.06 581.98 61.1 576.89 51.22"/><polygon class="cls-7" points="541.31 58.14 544.69 65.06 554.01 61.6 556.21 56.31 548.83 51.22 541.31 58.14"/><polygon class="cls-13" points="412.41 288.61 417.31 289.86 417.31 265.99 430.28 259.22 430.28 254.32 408.95 261.03 412.41 288.61"/><polygon class="cls-1" points="385.18 258.97 394.72 221.11 463.7 223.82 489.79 254.03 458.36 274.06 454.47 299.33 431.45 293.46 433.26 264.57 438.06 247.46 385.18 258.97"/><polygon class="cls-16" points="375.06 174.83 376.79 170.34 365.92 166.92 364.56 170.88 375.06 174.83"/><polygon class="cls-4" points="398.4 166.26 402.81 221.88 463.51 219.88 472.58 170.43 453.5 162.61 398.4 166.26"/><polygon class="cls-17" points="393.48 150.69 432.4 154.48 436.92 117.73 433.68 101.33 407.36 98.27 395.65 104.48 393.48 150.69"/><polygon class="cls-18" points="407.36 98.27 389.16 90.02 395.65 104.48 407.36 98.27"/><polygon class="cls-19" points="451.07 88.8 433.68 101.33 407.36 98.27 389.16 90.02 412.41 80.42 451.07 88.8"/><polygon class="cls-20" points="463.51 110.23 433.68 101.33 451.07 88.8 463.51 110.23"/><polygon class="cls-17" points="448.59 135.03 458.36 137.15 460.83 124.24 450.22 121.35 448.59 135.03"/><polygon class="cls-16" points="456.87 144.97 448.59 135.03 458.36 137.15 456.87 144.97"/><polygon class="cls-21" points="417.31 161.41 401.26 204.53 398.4 166.26 417.31 161.41"/><polygon class="cls-5" points="422.92 177.59 411.86 176.04 417.31 161.41 422.92 177.59"/><polygon class="cls-5" points="453.5 162.61 422.92 177.59 439.25 179.5 453.5 162.61"/><polygon class="cls-21" points="472.58 170.43 464.22 215.16 453.5 162.61 472.58 170.43"/><polygon class="cls-21" points="489.79 198.44 464.76 211.55 463.7 223.82 498.58 217.51 489.79 198.44"/><polygon class="cls-6" points="472.58 170.43 479.46 176.04 489.79 198.44 464.76 211.55 472.58 170.43"/><polygon class="cls-12" points="444.05 194.42 449.15 191.69 459.36 191.69 463.51 193.9 459.36 197.14 449.24 197.14 444.05 194.42"/><polygon class="cls-21" points="375.06 174.83 396.33 212.23 369.09 204.53 362.35 179.96 375.06 174.83"/><polygon class="cls-6" points="398.4 166.26 401.26 204.53 396.33 212.23 383.71 190.05 398.4 166.26"/><polygon class="cls-8" points="450.55 292.61 451.06 300.89 423.04 300.89 430.56 292.07 450.55 292.61"/><polygon class="cls-8" points="412.55 288.79 412.86 297.77 376.62 297.77 389.84 283.51 412.55 288.79"/><polygon class="cls-5" points="402.81 221.88 425.7 234.49 463.71 225.75 444.05 225.67 444.05 215.16 426.76 207 402.81 221.88"/><polygon class="cls-21" points="425.7 234.49 422.92 210.04 422.92 177.59 427.66 207.42 425.7 234.49"/><polygon class="cls-4" points="425.7 234.49 419.5 245.56 396.33 234.84 402.81 221.88 425.7 234.49"/><polygon class="cls-21" points="434.4 242.06 426.36 265.99 453.26 271.58 466.1 253.68 464.68 237.06 438.35 242.53 434.4 242.06"/><polygon class="cls-22" points="426.36 265.99 453.26 271.58 452.39 278.3 449.04 286.09 450.55 292.61 430.56 292.07 431.54 281.34 427.66 274.06 426.36 265.99"/><rect class="cls-4" x="423.04" y="300.89" width="28.01" height="6.48"/><polygon class="cls-7" points="427.66 274.06 452.4 278.3 450.55 292.61 430.56 292.07 427.66 274.06"/><polygon class="cls-6" points="419.5 245.56 429.98 255.22 434.4 242.06 425.7 234.49 419.5 245.56"/><polygon class="cls-4" points="433.23 245.56 464.68 237.06 463.71 225.75 425.7 234.49 433.23 245.56"/><polygon class="cls-21" points="385.18 258.97 399.84 262.81 410.47 264.37 429.98 255.22 419.5 245.56 396.33 234.84 385.18 258.97"/><polygon class="cls-2" points="463.51 193.9 463.71 225.75 459.62 228.27 448.76 229.19 446.23 223.08 447.17 199.39 449.24 197.14 459.36 197.14 463.51 193.9"/><polygon class="cls-22" points="387.13 268.21 398.4 276.34 411.23 272.97 410.47 264.37 385.18 258.97 387.13 268.21"/><polygon class="cls-7" points="387.13 268.21 411.23 272.97 412.55 288.79 389.84 283.51 387.13 268.21"/><polygon class="cls-5" points="388.96 278.5 393.56 278.5 392.7 284.18 389.84 283.51 388.96 278.5"/><polygon class="cls-4" points="384.14 289.66 389.76 291.21 392.7 284.18 389.84 283.51 384.14 289.66"/><rect class="cls-4" x="376.62" y="297.77" width="36.25" height="5.59"/><polygon class="cls-23" points="422.92 177.59 453.5 162.61 456.87 144.97 448.59 135.03 450.22 121.35 436.92 117.73 432.4 154.48 422.92 177.59"/><polygon class="cls-18" points="463.51 110.23 433.68 101.33 436.92 117.73 443.68 119.57 444.99 130.03 449.04 131.25 450.22 121.35 460.83 124.24 463.51 110.23"/><polygon class="cls-4" points="437.05 292.24 434.4 297.43 441.72 297.43 441.07 292.24 437.05 292.24"/><polygon class="cls-5" points="437.05 285.33 441.72 285.33 441.07 292.24 437.05 292.24 437.05 285.33"/><polygon class="cls-24" points="449.24 197.14 453.88 197.14 448.76 229.19 444.05 225.67 444.05 215.16 447.17 210.04 444.24 207.45 444.05 194.42 449.24 197.14"/><polygon class="cls-17" points="452.75 204.25 464.76 211.55 463.7 223.82 449.97 221.62 447.36 215.34 452.75 204.25"/><polygon class="cls-23" points="452.75 204.25 449.97 221.62 444.05 218.93 444.25 207.18 452.75 204.25"/><polygon class="cls-14" points="452.1 193.25 456.31 193.25 458.4 193.9 457.14 195.06 452.96 195.06 450.54 193.9 452.1 193.25"/><polygon class="cls-16" points="451.52 130.17 458.36 126.02 452.42 124.76 451.52 130.17"/><polygon class="cls-25" points="408.35 119.62 411.96 119.62 411.96 130.71 407.36 130.17 408.35 119.62"/><polygon class="cls-16" points="407.36 130.17 409.66 132.69 411.96 130.71 407.36 130.17"/><polygon class="cls-23" points="411.96 119.62 418.09 113.86 429.08 115.3 411.96 130.71 411.96 119.62"/><polygon class="cls-23" points="408.35 119.62 405.02 114.67 398.26 117.14 407.36 130.17 408.35 119.62"/><polygon class="cls-6" points="429.08 115.3 421.19 110.23 418.09 113.86 429.08 115.3"/><polygon class="cls-6" points="405.02 114.67 403.94 110.97 398.26 117.14 405.02 114.67"/><polygon class="cls-16" points="409.98 152.34 438.23 155.04 422.92 177.59 409.98 152.34"/><path class="cls-26" d="M404.84,121.44a2.26,2.26,0,1,1-2.25-2.25A2.26,2.26,0,0,1,404.84,121.44Z"/><path class="cls-26" d="M422.37,120.89a2.26,2.26,0,1,1-2.26-2.26A2.26,2.26,0,0,1,422.37,120.89Z"/><rect class="cls-16" x="405.85" y="137.16" width="16.77" height="1.62" transform="translate(-21.09 104.57) rotate(-14.03)"/><polygon class="cls-17" points="375.06 174.83 364.17 169.39 340.3 168.73 362.35 179.96 375.06 174.83"/><polygon class="cls-8" points="367.28 150.46 372.98 148.51 378.81 151.73 377.44 164.34 361.83 166.26 340.3 161.93 346.73 157.32 367.28 150.46"/><polygon class="cls-4" points="346.73 157.32 358.87 158.58 367.28 150.46 362.35 147.98 357.77 149.41 346.73 157.32"/><polygon class="cls-6" points="357.77 149.41 378.81 151.73 379.34 146.82 357.77 144.23 357.77 149.41"/><polygon class="cls-6" points="340.3 161.93 377.44 164.34 376.79 170.34 340.3 168.73 340.3 161.93"/><polygon class="cls-2" points="653.19 198.49 649.09 234.84 631.09 245.56 631.31 210.38 653.19 198.49"/><polygon class="cls-8" points="581.87 290.24 586.36 286.68 592.98 287.29 596.64 298.04 583.02 304.99 561.5 308.89 565.63 302.93 581.87 290.24"/><polygon class="cls-4" points="565.63 302.93 577.29 299.76 581.87 290.24 576.36 289.92 572.7 292.67 565.63 302.93"/><polygon class="cls-6" points="561.5 308.89 596.64 298.04 598.38 303.15 564.16 314.43 561.5 308.89"/><polygon class="cls-21" points="615.76 276.44 638.85 259.53 631.09 245.56 600.98 262.5 615.76 276.44"/><polygon class="cls-7" points="651.56 267.56 641.5 284.03 615.76 276.44 638.85 259.53 651.56 267.56"/><polygon class="cls-27" points="663.23 267.56 660.5 283.11 656.8 299.45 641.5 284.03 651.56 267.56 663.23 267.56"/><polygon class="cls-21" points="559.91 264.57 587.84 271.46 600.98 262.5 568.88 245.56 559.91 264.57"/><polygon class="cls-6" points="600.98 262.5 568.88 245.56 599.94 245.56 631.09 245.56 600.98 262.5"/><polygon class="cls-7" points="571.25 288.3 582.96 287.42 591.55 283.11 587.84 271.46 559.91 264.57 571.25 288.3"/><polygon class="cls-28" points="553.81 140.41 551.44 120.89 586.01 117.38 595.21 123.68 604.59 167.8 567.4 175.57 553.81 140.41"/><polygon class="cls-27" points="601.9 190.45 619.05 170.88 622.9 131.6 600.51 131.49 595.21 123.68 604.59 167.8 601.9 190.45"/><polygon class="cls-29" points="582.79 172.36 609.43 166.61 601.9 190.45 582.79 172.36"/><polygon class="cls-29" points="642.74 300.82 659.69 286.68 656.8 299.45 642.74 300.82"/><polygon class="cls-18" points="542.25 108.52 551.44 120.89 553.81 140.41 543.92 136.61 542.25 108.52"/><polygon class="cls-19" points="610.55 100.82 586.01 117.38 551.44 120.89 542.25 108.52 561.76 96.73 610.55 100.82"/><polygon class="cls-20" points="622.81 115.04 586.01 117.38 610.55 100.82 622.81 115.04"/><polygon class="cls-28" points="611.24 131.54 611.24 145.56 621.53 145.56 622.9 131.6 611.24 131.54"/><polygon class="cls-29" points="611.24 145.56 620.82 152.81 621.53 145.56 611.24 145.56"/><polygon class="cls-5" points="619.05 170.88 633.66 179.5 631.09 245.56 600.98 251.61 568.88 245.56 573.27 227.26 568.88 187.67 589.99 178.01 600.98 187.67 619.05 170.88"/><polygon class="cls-5" points="572.57 221.36 545.47 197.14 534.79 206.85 557.14 232.94 572.57 221.36"/><polygon class="cls-6" points="568.88 187.67 557.2 207.62 572.57 221.36 568.88 187.67"/><polygon class="cls-6" points="633.89 178.88 642.74 183.65 666.86 217.89 657.91 221.46 645.26 213.32 631.31 210.37 633.89 178.88"/><polygon class="cls-5" points="666.86 217.89 645.25 213.32 653.89 238.64 668.34 241.21 666.86 217.89"/><polygon class="cls-28" points="668.34 241.21 668.93 251.61 654.44 251.61 653.89 238.64 668.34 241.21"/><polygon class="cls-27" points="668.93 251.61 665.91 261.81 656.31 261.64 654.44 251.61 668.93 251.61"/><polygon class="cls-27" points="653.89 238.64 644.9 248.5 647.49 251.61 654.25 247.25 653.89 238.64"/><polygon class="cls-6" points="600.98 187.67 596.57 211.5 600.98 251.61 602.45 212.36 600.98 187.67"/><polygon class="cls-5" points="600.98 187.67 580.85 195.06 582.1 181.62 589.99 178.01 600.98 187.67"/><polygon class="cls-5" points="619.05 170.88 619.05 192.99 600.98 187.67 619.05 170.88"/><polygon class="cls-2" points="633.89 178.88 631.91 224.29 623.37 218.75 619.05 208.22 619.05 170.88 633.89 178.88"/><polygon class="cls-2" points="638.85 165.5 633.89 178.88 642.74 183.65 653.19 198.49 649.58 166.61 643.42 159.88 638.85 165.5"/><polygon class="cls-2" points="582.1 181.62 580.44 208.22 578.75 221.36 573.27 227.26 568.88 187.67 582.1 181.62"/><polygon class="cls-10" points="568.88 187.67 575.04 177.69 582.79 172.36 589.99 178.01 568.88 187.67"/><polygon class="cls-28" points="545.47 197.14 545.47 180.8 540.13 179.88 536.26 190.57 534.79 196.63 540.15 201.97 545.47 197.14"/><polygon class="cls-28" points="526.28 190.57 528.06 205.91 517.2 204.4 508.64 187.21 526.28 190.57"/><polygon class="cls-27" points="536.26 190.57 523.96 190.13 528.06 205.91 534.79 206.85 540.15 201.97 534.79 196.63 536.26 190.57"/><polygon class="cls-10" points="620.82 152.81 643.42 159.88 633.89 178.88 619.05 170.88 620.82 152.81"/><polygon class="cls-18" points="622.9 131.6 622.81 115.04 586.01 117.38 595.21 123.68 600.51 131.49 611.18 131.54 604.59 131.51 604.59 141.73 611.24 141.73 611.24 131.54 622.9 131.6"/><polygon class="cls-29" points="620.02 134.27 614.31 140.41 614.31 134.27 620.02 134.27"/><polygon class="cls-10" points="572.41 219.88 579.57 215.04 578.75 221.36 573.27 227.26 572.41 219.88"/><polygon class="cls-10" points="619.05 208.22 632.45 210.61 631.91 224.29 623.37 218.75 619.05 208.22"/><polygon class="cls-6" points="557.39 139.94 566.87 134.55 564.55 130.28 557.39 139.94"/><polygon class="cls-6" points="578.01 128.39 576.4 132.6 587.78 133.72 578.01 128.39"/><polygon class="cls-30" points="568.88 139.94 573.87 139.22 572.77 145.56 574.86 152.81 570.12 154.21 568.59 146.48 568.88 139.94"/><polygon class="cls-29" points="570.12 154.21 573.61 155.88 574.86 152.81 570.12 154.21"/><polygon class="cls-27" points="574.86 152.81 587.78 133.72 576.4 132.6 573.87 139.22 572.77 145.56 574.86 152.81"/><polygon class="cls-27" points="566.87 134.55 568.88 139.94 568.59 146.48 569.37 150.4 557.39 139.94 566.87 134.55"/><path class="cls-26" d="M582.79,139.94a2.52,2.52,0,1,1-2.52-2.51A2.52,2.52,0,0,1,582.79,139.94Z"/><path class="cls-26" d="M564.65,141.73a2.52,2.52,0,1,1-2.52-2.51A2.52,2.52,0,0,1,564.65,141.73Z"/><polygon class="cls-31" points="573.87 159.66 586.19 157.2 589.99 162.12 574.65 165.5 573.87 159.66"/><polygon class="cls-6" points="572.7 292.67 592.98 287.29 591.55 283.11 571.25 288.3 572.7 292.67"/><line class="cls-32" x1="619.05" y1="170.88" x2="622.9" y2="131.6"/></g><g id="main_character" data-name="main character"><polygon class="cls-3" points="113.33 69.12 123.12 26.02 183.87 0.09 220.87 0.09 245.58 46.14 236.11 67.9 203.61 78.86 205.24 99.15 179.45 83.22 138.35 94 113.33 69.12"/><polygon class="cls-7" points="152.22 28.19 185.12 11.88 189.47 55.39 177.32 63 152.22 28.19"/><polygon class="cls-7" points="179.45 67.49 191.37 60.28 198.52 70.48 182.4 77.55 179.45 67.49"/><polygon class="cls-2" points="233.83 240.2 238.89 261.73 280.55 271.09 295.55 267.93 318.72 260.49 242.26 235.53 233.83 240.2"/><polygon class="cls-10" points="193.15 200.51 297.19 164.98 330.12 197.27 328 218.38 242.26 235.53 233.83 240.2 193.15 200.51"/><polygon class="cls-4" points="238.63 174.31 278.53 167.28 297.07 164.98 300.53 210.97 300.01 228.61 273.56 243.66 242.26 235.53 225.49 176.74 238.63 174.31"/><polygon class="cls-22" points="233.44 165.5 238.74 160.09 242.66 167.65 233.44 165.5"/><polygon class="cls-21" points="278.53 167.28 299.32 194.94 297.07 164.98 278.53 167.28"/><polygon class="cls-21" points="330.97 188.89 299.32 196.36 300.53 210.97 328.54 212.7 330.97 188.89"/><polygon class="cls-6" points="297.07 164.98 330.97 188.89 299.32 196.36 297.07 164.98"/><polygon class="cls-6" points="296.54 212.7 302.89 211.12 301.92 202.72 297.07 203.5 292.66 207.15 296.54 212.7"/><polygon class="cls-3" points="292.66 207.15 298.48 207.52 301.92 202.72 299.32 196.36 292.51 197.07 289.18 202.18 292.66 207.15"/><polygon class="cls-21" points="238.63 174.31 238.36 221.88 225.49 176.74 238.63 174.31"/><polygon class="cls-21" points="213.37 185.68 229.03 204.53 223.06 217.2 193.15 200.6 213.37 185.68"/><polygon class="cls-33" points="229.03 204.53 243.72 204.53 233.79 217.2 223.06 217.2 229.03 204.53"/><polygon class="cls-34" points="243.72 204.53 249.01 215.81 238.36 221.88 233.79 217.2 243.72 204.53"/><polygon class="cls-6" points="225.49 176.74 213.37 185.68 229.03 204.53 233.39 204.53 225.49 176.74"/><polygon class="cls-5" points="242.26 235.53 267.33 213.35 273.56 212.23 300.01 228.61 273.56 243.66 242.26 235.53"/><polygon class="cls-21" points="268.01 183.65 267.33 213.35 273.56 243.66 273.56 212.23 268.01 183.65"/><polygon class="cls-4" points="273.56 243.66 269.06 257.14 240.45 248.86 242.26 235.53 273.56 243.66"/><polygon class="cls-4" points="306.67 239.15 284.39 251.78 273.56 243.66 300.01 228.61 306.67 239.15"/><polygon class="cls-7" points="306.67 239.15 275.68 265.1 269.06 257.14 273.56 243.66 284.39 251.78 306.67 239.15"/><polygon class="cls-21" points="280.65 271.06 259.12 276.77 238.63 262.25 240.45 248.86 269.06 257.14 280.65 271.06"/><polygon class="cls-21" points="318.71 260.09 295.43 268.21 275.68 265.1 306.67 239.15 318.71 260.09"/><polygon class="cls-22" points="319.03 286.37 299.32 293.46 295.43 268.21 318.71 260.09 319.03 286.37"/><polygon class="cls-8" points="337.02 299.33 299.32 301.81 299.32 293.46 319.03 286.37 337.02 299.33"/><polygon class="cls-4" points="337.02 299.33 337.02 305.21 299.32 307.38 299.32 301.81 337.02 299.33"/><polygon class="cls-7" points="297.07 279.11 318.89 274.44 319.03 286.37 299.32 293.46 297.07 279.11"/><polygon class="cls-5" points="312.81 284.98 319.03 282.39 319.03 286.37 315.14 287.78 312.81 284.98"/><polygon class="cls-4" points="325.85 291.28 320.76 293.46 315.14 287.78 319.03 286.37 325.85 291.28"/><polygon class="cls-7" points="260.34 283.51 281.23 281.37 281.94 294.15 262.49 295.44 260.34 283.51"/><polygon class="cls-4" points="291.8 310.49 267.75 311.42 269.06 315.42 291.89 315.42 291.8 310.49"/><polygon class="cls-5" points="269.06 295.01 268.37 289.91 273.56 289.13 274.59 295.01 269.06 295.01"/><polygon class="cls-33" points="289.18 202.18 279.87 207.52 290.24 219.88 296.54 212.7 289.18 202.18"/><polygon class="cls-34" points="279.87 207.52 278.53 221.26 288.21 226.54 290.24 219.88 279.87 207.52"/><polygon class="cls-6" points="293.16 203.5 297.07 202.65 294.31 198.44 294.82 201.94 293.16 203.5"/><polygon class="cls-12" points="291.63 194.94 288.21 184.34 283.15 183.65 283.59 188.24 291.63 194.94"/><polygon class="cls-12" points="290.24 197.27 282.07 197.27 281.34 194.61 283.15 191.95 290.24 197.27"/><polygon class="cls-12" points="293.49 194.94 292.66 186.07 295.12 185.3 296.54 187.67 293.49 194.94"/><polygon class="cls-22" points="259.12 276.77 280.65 271.06 281.23 281.37 260.34 283.51 259.12 276.77"/><polygon class="cls-8" points="281.94 294.15 291.8 310.49 267.75 311.42 262.49 295.44 281.94 294.15"/><polygon class="cls-4" points="269.06 300.89 276.5 300.72 274.53 294.64 269.06 295.01 269.06 300.89"/><polygon class="cls-21" points="264.63 197.27 240.45 198.1 240.45 194.61 264.63 193.78 264.63 197.27"/><polygon class="cls-35" points="233.56 100.91 268.01 97.28 278.61 92.12 290.18 145.54 274.28 150.42 272.11 157.32 269.88 161.85 255.31 169.81 243.32 162.24 225.1 141.45 217.8 130.06 215.75 118.36 233.56 100.91"/><polygon class="cls-36" points="237.5 100.5 253.8 156.39 274.28 150.42 272.4 157.58 272.57 164.65 268.01 183.65 251.37 175.23 240.95 166.74 229.68 148.58 229.31 143.91 225.1 141.45 234.12 134.69 226.45 123.78 217.8 130.06 212.36 121.69 228.91 105.47 233.56 100.91 237.5 100.5"/><polygon class="cls-35" points="270.3 127.61 260.32 113.39 248.29 108.03 262.15 104.81 265.87 109.33 271.15 118.84 270.3 127.61"/><polygon class="cls-35" points="271.3 108.03 271.88 103.42 280.48 100.77 273.74 121.97 271.3 108.03"/><polygon class="cls-37" points="234.12 134.69 225.1 141.45 229.68 148.58 234.12 134.69"/><polygon class="cls-37" points="267.77 117.16 251.27 130.97 244.48 124.42 241.57 124.31 240.24 122.33 247.65 118.79 267.77 117.16"/><polygon class="cls-37" points="273.26 116.13 284.61 119.82 284.13 117.6 281.91 113.62 273.26 116.13"/><polygon class="cls-38" points="229.89 106.92 246.65 131.87 237.9 140.06 226.45 123.78 217.8 130.06 212.36 121.69 221.09 111.11 229.89 106.92"/><polygon class="cls-39" points="271.3 108.03 265.87 109.33 270.3 127.61 275.72 126.3 271.3 108.03"/><polygon class="cls-37" points="229.45 133.81 225.94 127.73 220.74 131.32 229.45 133.81"/><polygon class="cls-38" points="271.88 103.42 271.3 108.03 280.48 100.77 271.88 103.42"/><polygon class="cls-37" points="278.94 130.97 264.92 134.01 260.89 147.09 285.7 141.63 278.94 130.97"/><polygon class="cls-40" points="278.53 132.64 265.87 135.85 263.01 145.09 283.15 140.06 278.53 132.64"/><polygon class="cls-37" points="275.72 126.3 273.39 130.16 270.3 127.61 275.72 126.3"/><polygon class="cls-41" points="241.57 124.31 227.41 125.15 226.45 123.78 234.01 121.69 240.27 122.38 241.57 124.31"/><polygon class="cls-37" points="274.28 150.42 247.51 158.23 271.53 164.98 274.28 150.42"/><polygon class="cls-42" points="268.01 76.09 217.8 88.64 208.64 103.98 240.25 92.12 268.01 76.09"/><polygon class="cls-43" points="237.5 100.5 212.36 121.69 208.64 103.98 231.14 92.96 237.5 100.5"/><polygon class="cls-38" points="237.5 100.5 231.14 98.05 231.14 92.96 268.01 76.08 269.18 86.93 268.01 97.28 237.5 100.5"/><polygon class="cls-21" points="268.01 76.09 268.01 97.28 278.61 92.12 292.13 70.27 268.01 76.09"/><polygon class="cls-44" points="245.69 114.16 218.5 120.72 217.8 130.06 226.45 123.78 247.65 121.55 247.4 117.43 245.69 114.16"/><polygon class="cls-44" points="271.3 108.03 265.87 109.33 265.59 111.64 267.02 114.07 272.43 112.71 273.02 110.73 271.3 108.03"/><path class="cls-45" d="M288.23,104l3.49,14.64-18.46-2.5-2-8.09Zm-20.46,13.18L249.6,128.94l-3.91-14.78,20.18-4.83Z"/><polygon class="cls-22" points="268.01 183.65 285.7 158.62 274.28 150.42 268.01 183.65"/><polygon class="cls-21" points="238.63 174.31 268.01 183.65 259.4 169.81 233.44 165.5 238.63 174.31"/><polygon class="cls-38" points="265.87 109.33 248.29 108.03 263.37 104.81 265.87 109.33"/><polygon class="cls-22" points="211.09 272.19 233.39 260.77 254.02 265.1 259.12 276.77 238.63 282.39 222.03 280.49 211.09 272.19"/><polygon class="cls-8" points="211.09 272.19 206.72 269.12 216.32 263.67 221.13 267.05 211.09 272.19"/><polygon class="cls-8" points="220.21 261.73 228.38 257.14 233.39 260.77 224.94 265.1 220.21 261.73"/><polygon class="cls-6" points="220.21 261.73 221.13 267.05 224.94 265.1 220.21 261.73"/><polygon class="cls-5" points="222.03 280.49 226.96 294.09 226.8 302.78 216.27 329.09 199.03 324.58 200.61 293.46 211.09 272.19 222.03 280.49"/><polygon class="cls-7" points="206.72 269.12 195.05 294.15 200.61 298.95 206.16 293.58 211.09 272.19 206.72 269.12"/><polygon class="cls-8" points="199.03 324.58 195.05 294.15 206.16 293.58 199.03 324.58"/><polygon class="cls-4" points="262.49 295.44 226.8 302.78 222.03 280.49 238.63 282.39 259.12 276.77 262.49 295.44"/><polygon class="cls-5" points="267.33 301.81 246.37 310.49 232.06 309.08 226.8 302.78 262.49 295.44 267.33 301.81"/><polygon class="cls-8" points="226.96 331.89 233.39 318.76 232.06 309.08 226.8 302.78 216.27 329.09 226.96 331.89"/><polygon class="cls-4" points="270.44 320.35 226.96 331.89 232.06 309.08 267.33 301.81 270.44 320.35"/><polygon class="cls-8" points="232.92 274.95 233.39 281.79 222.03 280.49 220.21 279.11 232.92 274.95"/><polygon class="cls-12" points="211.09 272.19 221.13 267.05 226 267.05 232.4 271.58 232.92 274.95 225.35 279.11 220.21 279.11 212.91 273.57 211.09 272.19"/><polygon class="cls-14" points="219.11 272.49 221.48 271.06 223.84 271.06 224.94 271.78 224.94 273.4 222.42 274.82 219.43 274.18 219.11 272.49"/><polygon class="cls-5" points="251.85 274 251.89 278.75 241.97 281.47 238.63 282.39 233.39 281.79 232.4 271.58 239.7 277.12 251.85 274"/><polygon class="cls-12" points="234 268.44 240.61 265.06 245.49 265.06 251.89 269.59 251.85 274 244.84 277.12 239.7 277.12 232.4 271.58 234 268.44"/><polygon class="cls-14" points="238.6 270.5 240.96 269.07 243.33 269.07 244.43 269.79 244.43 271.41 241.9 272.83 238.92 272.19 238.6 270.5"/><polygon class="cls-7" points="239.7 277.12 239.7 282.1 238.63 282.39 233.39 281.79 232.4 271.58 239.7 277.12"/><polygon class="cls-1" points="179.45 266.69 193.51 258.81 216.32 263.67 199.98 272.94 179.45 266.69"/><polygon class="cls-12" points="186.58 234.19 191.68 231.46 201.88 231.46 206.03 233.67 201.88 236.91 191.77 236.91 186.58 234.19"/><polygon class="cls-4" points="206.03 233.67 206.24 265.52 202.14 268.03 191.19 268.03 188.76 262.85 189.69 239.16 191.77 236.91 201.88 236.91 206.03 233.67"/><polygon class="cls-5" points="191.77 236.91 196.41 236.91 192.29 268.03 191.19 268.03 186.58 265.44 186.58 234.19 191.77 236.91"/><polygon class="cls-14" points="194.62 233.02 198.84 233.02 200.93 233.67 199.67 234.84 195.49 234.84 193.06 233.67 194.62 233.02"/></g></svg>