<svg xmlns="http://www.w3.org/2000/svg" viewBox="0 0 900 350"><defs><style>.cls-1{fill:#ececeb;}.cls-2{fill:#c4c4c4;}.cls-3{fill:#a3a3a3;}.cls-4{fill:#8f8f8f;}.cls-5{fill:#dddddc;}.cls-6{fill:#fff;}.cls-30,.cls-35,.cls-7{fill:#2b2b2b;}.cls-7{fill-opacity:0.1;}.cls-8{fill:#8b6651;}.cls-9{fill:#c3987b;}.cls-10{fill:#dfbda5;}.cls-11{fill:#4f5253;}.cls-12{fill:#737373;}.cls-13{fill:#e8cab6;}.cls-14{fill:#474747;}.cls-15{fill:#cececd;}.cls-16{fill:#ac923c;}.cls-17{fill:#ccad14;}.cls-18{fill:#e5c828;}.cls-19{fill:#f4d75d;}.cls-20{fill:#755800;}.cls-21{fill:#856400;}.cls-22{fill:#84614f;}.cls-23{fill:#6f7173;}.cls-24{fill:#674736;}.cls-25{fill:#412b23;}.cls-26{fill:#bf8f00;}.cls-27{fill:#b58b00;}.cls-28{fill:#9e7700;}.cls-29{fill:#8c6d5d;}.cls-31{fill:#9da1a2;}.cls-32{fill:#858686;}.cls-33{fill:#bc8f2d;}.cls-34{fill:#8d7c2f;}.cls-35{fill-opacity:0.2;}.cls-36{fill:#926d5a;}.cls-37{fill:#51362a;}.cls-38{fill:#755445;}.cls-39{fill:#99796a;}.cls-40{fill:#f2bd68;}</style></defs><title>explorers_Virtuoso_ISTP_conclusion</title><g id="illustration_copy" data-name="illustration copy"><g id="Layer_1"><polygon class="cls-1" points="30.07 68.97 19.16 91.07 0 259.51 900 259.51 884.67 86.95 739.34 17.24 472.4 42 228.91 0 63.53 55.26 30.07 68.97"/><g id="_330435272" data-name=" 330435272"><polygon class="cls-2" points="757.03 201.31 757.62 210.59 730.2 246.84 622.01 232.4 574.85 221.2 757.03 201.31"/><polygon class="cls-3" points="757.03 201.31 735.8 230.48 725.48 244.78 811.86 255.09 833.38 252.15 757.03 201.31"/><polygon class="cls-4" points="757.03 201.31 809.2 248.76 848.12 262.61 900 259.51 757.03 201.31"/><polygon class="cls-3" points="124.4 228.57 91.24 220.76 91.24 235.2 105.54 250.23 118.06 242.57 124.4 228.57"/><polygon class="cls-2" points="91.24 220.76 0 259.51 76.2 258.48 105.54 250.23 91.24 220.76"/><polygon class="cls-5" points="268.11 126.88 306.14 137.05 302.46 151.64 280.35 181.71 259.27 150.17 268.11 126.88"/><polygon class="cls-6" points="268.11 126.88 280.35 181.71 252.49 193.2 230.09 174.63 268.11 126.88"/><polygon class="cls-2" points="306.14 137.05 280.35 181.71 315.72 196.15 345.94 162.69 306.14 137.05"/><polygon class="cls-4" points="105.54 250.23 157.71 218.55 211.22 196.15 230.09 174.63 262.81 188.93 280.35 181.71 345.94 162.69 517.65 214.42 495.84 224.88 362.15 205.72 313.22 241.09 117.92 258.19 105.54 250.23"/><polygon class="cls-2" points="208.71 223.85 301.13 233.28 230.09 174.63 211.22 196.15 208.71 223.85"/><polygon class="cls-3" points="517.65 214.42 230.09 174.63 301.13 233.28 313.22 241.09 495.84 224.88 517.65 214.42"/><polygon class="cls-3" points="230.09 174.63 209.16 222.82 157.71 218.55 230.09 174.63"/><path class="cls-5" d="M732.85,90.48l46.43-13.26L806,82.82l42.3-13.41L884.67,87l-38.62,24.17-35.67-11.06-35.81,4.57ZM84.75,68.23,123.37,78.4,149,74.13l43.63,6.92L145.33,98.88l-39.06-7.51L70.6,103.75,19.16,91.07ZM46.58,42.59l82-26.53,33.9,6.19L228.91,0l50.7,8.69L346.82,24,254,63.66,181.74,50.1l-41.12,7.52Zm212,41.7,75-21.51L381.61,74l24.32-5.45,46.58,13.7-37.89,9.58-36.84-2.65L320.44,101Zm291.4-49.51L636.31,13l43.63,9.87,63.38-12.53L852.24,39.79,740.67,66.17,669.18,50.69l-39.8,6.93Zm-3.53,42,52.76-14.44,37.15,9,19.75-3.39,41.27,8.84-45.25,9-19.9-4.87L599.9,87.83Z"/><path class="cls-7" d="M732.85,90.48l46,4.13,33.61-3.39,34.64,4.57,41-9.73-42,25.06-35.67-11.06-35.81,4.57ZM258.53,84.29l69.13,4.87,52.18-10.32,34.93,6.93,37.74-3.54-42.9,10.61-31.83-3.68L320.44,101ZM46.58,42.59,129,40.53l52.77-6.19,53.65,3.53,64-7.95L346.82,24,254,63.66,181.74,50.1l-41.12,7.52ZM19.16,91.07l50.12-1.32,40.38-6,35.08,4.12,47.91-6.78L145.33,98.88l-39.06-7.51L70.6,103.75ZM546.4,76.78,595,78.84l32.28-4.71,28.74,5.45,41.27-2.8-45.25,9-19.9-4.87L599.9,87.83Zm3.53-42,91.54,7.81,47-10.61,54.68,13.26,109.07-5.45L740.67,66.17,669.18,50.69l-39.8,6.93Z"/><polygon class="cls-8" points="74.73 127.77 71.64 142.5 64.27 149.14 55.27 145.01 51.44 137.05 54.98 130.42 74.73 127.77"/><polygon class="cls-9" points="57.48 132.34 55.27 145.01 52.33 143.68 38.47 120.55 40.53 107.14 39.5 85.47 42.89 81.79 45.84 84.44 49.23 87.09 58.37 125.85 57.48 132.34"/><polygon class="cls-8" points="38.47 120.55 42.89 112.88 36.11 112.88 34.64 114.65 38.47 120.55"/><polygon class="cls-10" points="92.86 123.05 57.48 132.34 45.84 84.44 56.3 79.43 86.23 82.38 92.86 123.05"/><polygon class="cls-11" points="19.16 91.07 34.64 114.65 35.82 110.82 46.43 108.02 45.84 84.44 29.77 86.21 19.16 91.07"/><polygon class="cls-12" points="45.84 84.44 19.16 91.07 30.07 68.97 42.16 75.89 45.84 84.44"/><polygon class="cls-11" points="97.43 71.47 86.23 82.38 45.84 84.44 72.37 73.24 97.43 71.47"/><polygon class="cls-4" points="30.07 68.97 45.84 84.44 65 69.56 63.53 55.26 30.07 68.97"/><polygon class="cls-12" points="63.53 55.26 45.84 84.44 97.43 71.47 63.53 55.26"/><polygon class="cls-10" points="39.65 101.09 42.89 112.88 34.64 114.65 31.25 103.45 39.65 101.09"/><polygon class="cls-8" points="37.73 104.78 34.64 105.52 39.21 109.94 37.73 104.78"/><polygon class="cls-9" points="85.34 90.04 79.15 90.93 76.06 92.4 75.17 97.41 79.15 106.55 85.34 90.04"/><polygon class="cls-9" points="71.49 108.46 70.45 98.15 67.66 94.02 62.64 93.87 55.86 95.94 71.49 108.46"/><polygon class="cls-13" points="79.15 106.55 75.91 108.17 71.49 108.46 67.66 94.02 76.06 92.4 79.15 106.55"/><polygon class="cls-8" points="76.06 109.79 79.15 106.55 71.49 108.46 76.06 109.79"/><polygon class="cls-14" points="85.34 90.04 79.59 89.16 76.06 92.4 85.34 90.04"/><polygon class="cls-14" points="67.66 94.02 62.35 92.4 55.86 95.94 67.66 94.02"/><polygon class="cls-8" points="84.02 114.21 84.02 117.01 66.92 119.66 66.33 117.01 84.02 114.21"/><path class="cls-14" d="M83.13,97.7a2.07,2.07,0,0,0,0,4.13,2.2,2.2,0,0,0,2.06-2.06A2,2,0,0,0,83.13,97.7Z"/><path class="cls-14" d="M65.74,101.68a2.07,2.07,0,0,0,0,4.13,2.22,2.22,0,0,0,2.06-2.06A2,2,0,0,0,65.74,101.68Z"/><polygon class="cls-4" points="723.27 233.87 724.6 238.88 713.25 241.83 714.43 224.74 716.93 225.47 723.27 233.87"/><polygon class="cls-3" points="731.23 203.37 727.55 206.76 719.59 220.61 719.29 222.97 720.91 225.62 734.92 204.1 731.23 203.37"/><polygon class="cls-3" points="704.41 214.42 723.27 233.87 719.59 220.61 705.73 210.74 704.41 214.42"/><polygon class="cls-15" points="705 212.65 720.91 225.62 719.59 220.61 707.65 210.74 705 212.65"/><polygon class="cls-15" points="725.34 204.55 719.59 220.61 731.38 203.37 725.34 204.55"/><polygon class="cls-16" points="688.04 208.38 707.35 205.72 719.14 207.35 704.41 214.42 688.04 208.38"/><polygon class="cls-17" points="689.08 208.67 719.14 207.35 702.93 196.74 680.23 194.53 689.08 208.67"/><polygon class="cls-17" points="737.13 215.75 719.14 207.35 723.86 199.54 732.71 197.18 745.23 198.21 737.13 215.75"/><polygon class="cls-16" points="757.03 201.31 737.13 215.75 740.96 197.77 757.03 201.31"/><polygon class="cls-18" points="750.69 184.21 757.03 201.31 728.87 198.21 738.45 187.75 750.69 184.21"/><polygon class="cls-19" points="694.53 184.8 713.25 189.22 728.87 198.21 719.14 207.35 680.23 194.53 694.53 184.8"/><polygon class="cls-17" points="742.73 178.91 750.69 184.21 728.87 198.21 711.63 191.43 725.34 183.77 742.73 178.91"/><polygon class="cls-18" points="694.53 184.8 711.63 191.43 742.73 178.91 720.91 179.05 694.53 184.8"/><polygon class="cls-19" points="698.36 175.96 694.53 184.8 721.65 181.85 715.46 177.58 698.36 175.96"/><polygon class="cls-19" points="723.42 166.97 724.75 175.37 721.65 181.85 715.46 177.58 714.43 174.48 723.42 166.97"/><polygon class="cls-18" points="698.36 175.96 721.65 181.85 714.43 174.48 698.36 175.96"/><polygon class="cls-17" points="723.42 166.97 721.65 181.85 742.73 178.91 723.42 166.97"/><polygon class="cls-3" points="811.86 239.18 809.2 248.76 830.87 254.5 828.66 221.79 823.8 223.26 811.86 239.18"/><polygon class="cls-2" points="796.53 181.12 803.46 187.45 818.78 213.83 819.23 218.4 815.69 225.18 789.45 182.29 796.53 181.12"/><polygon class="cls-2" points="847.82 202.19 811.86 239.18 818.78 213.83 845.17 195.12 847.82 202.19"/><polygon class="cls-3" points="846.5 198.65 815.69 225.18 818.78 213.83 841.63 194.97 846.5 198.65"/><polygon class="cls-4" points="807.88 183.32 818.78 213.83 796.23 181.12 807.88 183.32"/><polygon class="cls-17" points="878.92 190.55 842.07 185.39 819.67 188.63 847.82 202.19 878.92 190.55"/><polygon class="cls-16" points="878.92 190.55 819.67 188.63 850.48 168.29 884.82 166.23 878.92 190.55"/><polygon class="cls-16" points="775.01 192.31 819.67 188.63 810.53 173.6 793.73 169.18 769.7 171.09 775.01 192.31"/><polygon class="cls-17" points="743.61 168.15 775.01 192.31 777.96 170.5 759.97 165.2 743.61 168.15"/><polygon class="cls-19" points="763.36 141.62 743.61 168.15 777.51 173.45 801.1 171.09 782.67 151.2 763.36 141.62"/><polygon class="cls-17" points="866.54 145.45 830.87 154.15 801.1 171.09 819.67 188.63 884.82 166.23 866.54 145.45"/><polygon class="cls-18" points="774.57 134.25 763.36 141.62 801.1 171.09 833.82 158.27 807.88 143.54 774.57 134.25"/><polygon class="cls-19" points="866.54 145.45 833.82 158.27 774.57 134.25 816.28 134.55 866.54 145.45"/><polygon class="cls-18" points="859.47 128.5 866.54 145.45 814.8 140 826.6 131.75 859.47 128.5"/><polygon class="cls-18" points="789.45 118.63 808.76 127.62 814.8 140 774.57 134.25 789.45 118.63"/><polygon class="cls-18" points="812.74 115.83 808.76 127.62 814.8 140 826.6 131.75 828.81 126 812.74 115.83"/><polygon class="cls-19" points="859.47 128.5 814.8 140 828.81 126 859.47 128.5"/><polygon class="cls-19" points="812.74 115.83 814.8 140 789.45 118.63 812.74 115.83"/><polygon class="cls-5" points="301.13 233.28 284.92 244.34 225.96 337.62 229.94 350 689.37 326.72 691.43 310.95 566.59 228.57 533.87 216.34 517.65 214.42 301.13 233.28"/><polygon class="cls-15" points="533.87 216.34 689.37 326.72 900 259.51 533.87 216.34"/><polygon class="cls-7" points="658.27 274.99 616.85 268.8 656.5 261.58 699.98 266.74 658.27 274.99"/><polygon class="cls-20" points="662.25 130.72 669.62 110.08 658.57 111.85 662.25 130.72"/><polygon class="cls-21" points="621.42 150.76 618.18 155.33 612.73 156.06 607.71 133.52 616.12 127.18 628.64 124.97 628.2 140.59 621.42 150.76"/><polygon class="cls-20" points="629.23 171.83 645.59 170.95 633.95 152.67 621.57 150.46 612.73 156.06 629.23 171.83"/><polygon class="cls-22" points="681.12 209.56 679.35 213.83 675.37 215.01 662.69 199.39 672.42 188.63 681.12 209.56"/><polygon class="cls-23" points="670.8 216.19 672.42 188.63 652.52 187.9 637.78 193.64 635.57 206.76 647.81 213.98 670.8 216.19"/><polygon class="cls-23" points="635.87 179.64 641.17 197.18 624.37 194.38 629.23 171.83 635.87 179.64"/><polygon class="cls-4" points="663.13 171.24 672.42 188.63 638.08 194.23 629.23 171.83 643.68 167.26 663.13 171.24"/><polygon class="cls-11" points="634.1 214.72 640.58 220.46 666.97 219.73 670.8 216.19 635.57 206.76 634.1 214.72"/><polygon class="cls-22" points="649.43 192.17 637.78 193.64 624.37 194.38 635.57 206.76 641.47 204.69 652.67 201.01 653.7 194.82 649.43 192.17"/><polygon class="cls-22" points="656.5 182.29 653.7 181.71 649.43 192.17 655.76 191.28 656.5 182.29"/><polygon class="cls-24" points="662.54 200.72 652.67 201.01 649.43 192.17 657.68 187.9 661.07 192.46 662.54 200.72"/><polygon class="cls-22" points="668.59 189.37 662.54 200.72 657.68 187.9 665.64 184.95 668.59 189.37"/><polygon class="cls-25" points="642.5 157.09 660.33 155.91 654.59 172.42 638.81 165.5 642.5 157.09"/><polygon class="cls-22" points="660.92 111.41 673.01 151.94 644.71 162.25 633.07 145.45 628.64 124.97 645.89 114.65 660.92 111.41"/><polygon class="cls-24" points="641.62 163.43 644.71 162.25 628.64 124.97 626.43 143.39 625.7 154.29 640.73 168.29 654.59 172.42 641.62 163.43"/><polygon class="cls-25" points="625.11 146.78 627.91 148.25 625.7 154.29 621.42 150.76 625.11 146.78"/><polygon class="cls-26" points="636.75 96.38 669.62 110.08 628.64 124.97 627.32 110.53 636.75 96.38"/><polygon class="cls-27" points="612.73 113.92 636.75 96.38 628.64 124.97 616.12 124.67 612.73 113.92"/><polygon class="cls-28" points="607.71 133.52 612.73 113.92 628.64 124.97 607.71 133.52"/><polygon class="cls-20" points="628.64 124.97 627.91 148.25 624.81 138.67 628.64 124.97"/><polygon class="cls-22" points="624.81 138.67 627.91 148.25 621.42 150.76 624.81 138.67"/><polygon class="cls-24" points="660.78 124.67 653.7 135.14 650.31 130.42 650.61 127.18 660.78 124.67"/><polygon class="cls-24" points="647.22 128.36 650.9 136.91 637.49 133.52 647.22 128.36"/><polygon class="cls-26" points="660.78 124.67 654.88 124.08 650.61 127.18 660.78 124.67"/><polygon class="cls-26" points="647.22 128.36 641.91 129.09 637.49 133.52 647.22 128.36"/><polygon class="cls-25" points="653.26 137.35 655.76 137.79 654.44 140.74 651.05 139.71 653.26 137.35"/><polygon class="cls-29" points="650.61 127.18 655.76 137.79 651.05 139.71 647.22 128.36 650.61 127.18"/><polygon class="cls-25" points="649.57 149.14 650.61 150.31 656.21 145.45 661.37 145.31 661.37 143.39 655.32 143.39 649.57 149.14"/><path class="cls-30" d="M657.09,127.61a2.13,2.13,0,1,0,2.76,1.19A2.13,2.13,0,0,0,657.09,127.61Z"/><path class="cls-30" d="M643.46,133a2.12,2.12,0,1,0,2.75,1.18A2.12,2.12,0,0,0,643.46,133Z"/><polygon class="cls-31" points="653.7 217.81 670.8 216.19 673.89 238.29 666.67 243.9 658.71 244.34 648.98 226.8 653.7 217.81"/><polygon class="cls-3" points="634.1 214.72 633.65 239.18 640.43 245.81 650.02 242.86 655.03 231.07 651.34 222.38 634.1 214.72"/><polygon class="cls-32" points="670.8 216.19 655.03 231.07 634.1 214.72 670.8 216.19"/><polygon class="cls-32" points="673.89 238.29 658.71 244.34 666.67 258.34 671.83 258.48 676.25 255.54 673.89 238.29"/><polygon class="cls-11" points="647.22 265.41 639.11 261.58 630.41 265.7 630.41 269.39 646.92 269.39 647.22 265.41"/><polygon class="cls-12" points="644.71 256.57 647.22 265.41 630.41 265.7 633.51 256.13 638.52 253.77 644.71 256.57"/><polygon class="cls-4" points="633.65 239.18 650.02 243.16 644.71 256.57 633.51 256.13 633.65 239.18"/><polygon class="cls-11" points="666.52 267.62 687.01 267.32 687.01 263.94 675.66 261.58 666.52 263.94 666.52 267.62"/><polygon class="cls-12" points="666.67 258.34 666.52 263.94 687.01 263.94 676.25 255.54 666.67 258.34"/><polygon class="cls-28" points="525.32 253.91 514.85 251.56 488.03 262.61 455.6 265.7 461.06 275.43 495.1 270.57 514.12 260.4 527.68 257.16 525.32 253.91"/><polygon class="cls-27" points="453.24 274.25 455.6 265.7 462.68 271.3 466.8 274.69 459.29 279.56 453.24 274.25"/><polygon class="cls-21" points="462.68 271.3 495.1 270.57 459.29 279.56 462.68 271.3"/><polygon class="cls-27" points="514.12 260.4 523.11 250.38 556.72 252.88 574.11 250.23 575.58 252.59 571.16 255.39 558.63 257.6 514.12 260.4"/><polygon class="cls-28" points="576.32 250.97 558.63 257.6 574.4 255.98 576.32 250.97"/><polygon class="cls-1" points="229.94 350 301.13 233.28 0 259.51 229.94 350"/><path class="cls-7" d="M173.48,274.25l-50-.59L120,261.87Zm65.15,17.1-44.8-8,12.67-13.85,34.64-.59,31.1,11.64Zm529.3-8.85-19.16-13-45.4,5.6,24.47,11.2ZM513.23,274l-53.94,5.6,33.9-8.55,20.93-10.61,44.51-2.8Zm101.56,43.18L767.05,302l-74.29-3.83ZM544.19,279l9-2.36,27-4.27L643.09,281l-52.92,7.81-61.46-2.5L525,274.55ZM363.48,328.92l-49.82-.59L310,316.55Z"/><polygon class="cls-4" points="346.97 250.23 339.16 233.87 336.36 233.43 335.33 234.9 339.75 245.81 346.97 250.23"/><polygon class="cls-27" points="464.59 112 507.93 61.16 515.59 63.96 466.65 128.21 448.82 139.12 464.59 112"/><polygon class="cls-7" points="424.8 325.98 347.26 314.34 361.27 312.42 411.23 304.9 499.97 312.42 424.8 325.98"/><polygon class="cls-27" points="103.77 269.68 105.54 250.23 169.21 176.99 210.78 118.34 213.28 105.66 294.35 21.81 297.44 22.55 299.36 29.92 237.31 95.64 178.94 184.36 132.66 242.27 103.77 269.68"/><polygon class="cls-27" points="557.75 57.33 542.71 57.33 535.05 62.04 537.7 66.61 556.42 68.23 561.58 63.37 557.75 57.33"/><polygon class="cls-17" points="419.19 29.47 328.55 18.57 321.91 22.99 323.68 29.62 443.07 47.75 437.18 36.69 419.19 29.47"/><polygon class="cls-27" points="535.34 57.03 419.19 29.47 443.07 47.75 507.93 61.16 527.53 69.56 535.05 62.04 535.34 57.03"/><polygon class="cls-28" points="528.71 286.34 544.19 278.97 533.87 216.34 528.12 154.15 532.25 77.07 542.71 57.33 535.34 57.03 529 65.87 507.78 61.16 522.08 75.75 522.52 148.1 517.65 214.42 519.42 255.39 528.71 286.34"/><polygon class="cls-10" points="374.98 219.43 375.56 211.91 402.54 201.75 409.32 217.37 396.2 226.21 379.25 228.72 374.98 219.43"/><polygon class="cls-17" points="466.95 302.25 460.17 284.71 453.24 284.86 448.67 289.58 454.27 301.96 460.76 310.95 466.95 302.25"/><polygon class="cls-18" points="454.27 301.96 465.62 304.17 461.5 309.92 448.53 308.3 454.27 301.96"/><polygon class="cls-21" points="462.38 312.27 448.82 312.27 448.53 308.3 459.88 307.85 465.62 304.17 460.17 284.71 463.86 284.57 470.93 306.97 462.38 312.27"/><polygon class="cls-23" points="460.17 284.71 441.16 284.86 446.31 302.69 452.8 298.71 460.17 284.71"/><polygon class="cls-33" points="448.82 312.27 441.6 313.01 438.8 298.86 446.46 284.57 448.82 312.27"/><polygon class="cls-7" points="105.54 250.23 77.53 270.86 13.41 258.34 105.54 250.23"/><polygon class="cls-2" points="93.45 168.29 84.75 144.42 77.83 170.65 84.16 184.65 93.6 180.82 93.45 168.29"/><polygon class="cls-32" points="83.87 203.37 80.77 227.68 71.34 233.28 62.2 228.13 59.1 214.27 63.67 203.37 76.94 200.72 83.87 203.37"/><polygon class="cls-11" points="83.87 203.37 64.41 200.86 35.23 205.43 45.69 213.68 59.99 218.25 83.87 203.37"/><polygon class="cls-32" points="35.23 205.43 34.93 228.57 42.45 232.69 55.13 229.16 59.99 218.25 35.23 205.43"/><polygon class="cls-5" points="83.87 203.37 64.71 204.4 60.14 170.5 64.27 149.14 72.37 138.67 84.75 144.42 83.87 203.37"/><polygon class="cls-2" points="35.52 189.81 35.23 205.43 64.71 204.4 64.85 198.21 64.27 149.14 49.67 139.41 36.11 144.57 38.77 164.02 35.52 189.81"/><polygon class="cls-31" points="31.84 256.57 34.64 249.05 41.27 244.93 47.46 248.31 51.88 256.57 42.89 257.45 31.84 256.57"/><polygon class="cls-31" points="65.89 253.32 66.03 245.66 72.96 242.57 78.56 245.22 89.03 253.32 77.38 254.65 65.89 253.32"/><polygon class="cls-32" points="65.89 253.32 89.03 253.32 88.88 257.45 65.74 257.45 65.89 253.32"/><polygon class="cls-32" points="31.98 256.57 51.74 256.57 51.88 261.28 31.98 261.28 31.98 256.57"/><polygon class="cls-23" points="34.64 249.05 47.46 248.31 55.13 229.16 34.93 228.57 34.64 249.05"/><polygon class="cls-23" points="66.03 245.66 78.56 245.22 80.77 227.68 62.2 228.13 66.03 245.66"/><polygon class="cls-21" points="387.5 304.46 391.19 308 391.34 312.57 361.27 312.42 360.97 308 387.5 304.46"/><polygon class="cls-17" points="379.25 296.65 360.97 308 391.19 308 390.89 298.86 386.32 291.2 379.25 296.65"/><polygon class="cls-23" points="378.51 269.24 379.25 296.65 390.89 298.86 394.58 289.28 378.51 269.24"/><polygon class="cls-11" points="396.5 283.98 394.58 289.28 378.66 274.99 388.39 274.55 396.5 283.98"/><polygon class="cls-9" points="444.99 195.85 447.64 159.6 452.06 133.07 437.62 131.45 438.06 121.87 385.74 112.88 387.36 120.99 420.37 141.33 421.26 194.53 444.99 195.85"/><polygon class="cls-33" points="449.12 148.84 449.12 102.27 402.24 99.47 385.74 112.88 387.36 120.99 408.88 129.54 436.14 134.4 435.7 143.54 440.27 147.22 440.86 148.84 449.12 148.84"/><polygon class="cls-17" points="449.12 102.27 460.47 117.89 466.65 128.21 469.75 152.53 480.22 185.24 456.93 203.22 440.57 199.83 439.24 192.31 449.12 148.84 449.12 102.27"/><polygon class="cls-6" points="448.53 122.46 454.27 128.8 451.18 135.28 448.53 122.46"/><polygon class="cls-21" points="448.53 122.46 449.12 148.84 464 121.28 464.59 112 449.12 102.27 448.53 122.46"/><polygon class="cls-18" points="469.75 152.53 449.12 148.84 470.49 192.76 480.22 185.24 469.75 152.53"/><polygon class="cls-10" points="438.65 164.46 447.35 164.76 449.12 148.84 440.27 147.22 438.65 164.46"/><polygon class="cls-11" points="453.1 224.59 411.68 238.74 396.2 226.21 402.54 201.75 417.57 195.85 443.37 195.12 456.93 203.22 453.1 224.59"/><polygon class="cls-18" points="382.64 121.28 385.74 112.88 449.12 102.27 411.68 125.41 382.64 121.28"/><polygon class="cls-17" points="437.91 127.03 448.53 115.98 449.12 102.27 410.2 125.12 437.91 127.03"/><polygon class="cls-20" points="449.12 148.84 466.65 128.21 464.59 112 449.12 148.84"/><polygon class="cls-14" points="427.15 228.13 454.86 228.57 450 261.43 448.82 264.23 409.91 267.77 408.44 261.43 396.2 226.21 427.15 228.13"/><polygon class="cls-8" points="396.5 186.42 429.51 194.38 439.24 192.31 443.37 195.12 423.17 207.64 396.5 186.42"/><polygon class="cls-18" points="371.88 266.3 380.72 248.02 394.58 245.81 409.91 267.77 398.26 280.44 377.19 273.22 371.88 266.3"/><polygon class="cls-33" points="396.5 283.98 398.26 280.44 374.24 261.43 369.82 270.57 396.5 283.98"/><polygon class="cls-17" points="402.83 269.68 398.26 280.44 419.34 293.7 413.59 273.96 402.83 269.68"/><polygon class="cls-21" points="398.71 246.4 392.66 250.38 402.83 269.68 449.7 265.11 450.74 256.57 416.69 256.13 398.71 246.4"/><polygon class="cls-8" points="441.89 157.39 446.31 150.76 442.78 150.31 441.89 157.39"/><polygon class="cls-6" points="445.73 161.96 448.53 166.97 443.81 169.77 440.86 164.46 445.73 161.96"/><polygon class="cls-10" points="382.94 190.69 429.51 194.38 437.91 127.03 382.64 121.28 382.94 190.69"/><polygon class="cls-9" points="425.83 142.36 406.37 160.34 398.71 159.16 387.06 139.26 404.31 143.24 425.83 142.36"/><polygon class="cls-13" points="399.88 140.74 409.47 141.18 405.93 163.14 398.56 162.55 399.88 140.74"/><polygon class="cls-8" points="405.93 163.14 401.51 165.35 398.56 162.55 405.93 163.14"/><polygon class="cls-33" points="399.88 140.74 387.06 139.26 399.59 144.86 399.88 140.74"/><polygon class="cls-33" points="409.47 141.18 425.83 142.36 408.73 145.45 409.47 141.18"/><polygon class="cls-33" points="400.18 173.75 415.66 173.01 420.37 169.77 416.83 176.55 404.75 179.2 400.18 173.75"/><polygon class="cls-21" points="420.37 169.77 415.21 174.34 405.93 175.66 400.18 173.75 404.31 172.42 414.04 172.42 420.37 169.77"/><polygon class="cls-34" points="397.97 250.53 404.9 262.9 416.69 256.13 409.76 254.95 397.97 250.53"/><polygon class="cls-33" points="402.83 269.68 413.3 289.87 430.25 282.8 449.7 265.11 418.75 262.76 402.83 269.68"/><path class="cls-30" d="M391.78,149a3,3,0,0,1,3,2.95,2.68,2.68,0,0,1-3,2.8,2.84,2.84,0,0,1-2.8-3A2.79,2.79,0,0,1,391.78,149Z"/><path class="cls-30" d="M415.51,151.05a2.75,2.75,0,0,1,2.95,2.8,3,3,0,0,1-2.95,3,2.75,2.75,0,0,1-2.8-3A2.71,2.71,0,0,1,415.51,151.05Z"/><polygon class="cls-10" points="434.96 248.31 425.83 244.04 427.15 228.13 456.93 203.22 461.06 228.57 434.96 248.31"/><polygon class="cls-9" points="427.15 228.13 434.96 248.31 412.86 246.99 417.43 231.37 427.15 228.13"/><polygon class="cls-20" points="416.69 256.13 409.47 243.9 393.84 237.12 376.45 240.5 392.66 250.38 416.69 256.13"/><polygon class="cls-21" points="416.69 256.13 410.06 250.38 393.84 237.12 417.43 231.37 416.69 256.13"/><polygon class="cls-20" points="384.26 244.19 376.45 236.82 382.2 232.1 393.84 237.12 384.26 244.19"/><polygon class="cls-20" points="378.66 242.13 376.45 236.82 371.29 241.68 377.48 254.5 378.37 241.83 378.66 242.13"/><polygon class="cls-4" points="385.14 270.13 381.75 253.32 384.7 248.76 390.31 268.65 385.14 270.13"/><polygon class="cls-21" points="393.84 237.12 376.45 236.82 377.48 254.5 392.66 250.38 393.84 237.12"/><polygon class="cls-18" points="413.3 289.87 409.91 314.04 441.6 313.01 449.7 265.11 413.3 289.87"/><polygon class="cls-28" points="313.66 328.33 331.05 321.41 319.56 254.95 314.4 173.75 321.18 117.31 317.49 43.18 328.55 18.57 320.59 16.36 297 12.23 294.35 21.81 306.14 41.41 306.14 177.14 301.13 233.28 304.67 280.88 313.66 328.33"/><polygon class="cls-20" points="370.85 237.56 363.48 225.18 348 218.4 343.29 225.32 346.82 231.66 370.85 237.56"/><polygon class="cls-9" points="369.52 217.96 371.58 212.65 375.56 211.91 379.25 228.72 371.14 228.42 369.52 217.96"/><polygon class="cls-21" points="370.85 237.56 364.07 231.81 348 218.4 371.58 212.65 370.85 237.56"/><polygon class="cls-20" points="348 218.4 330.61 218.1 331.2 228.86 339.16 233.87 346.82 231.66 348 218.4"/><polygon class="cls-20" points="339.16 233.87 335.92 220.91 325.45 223.12 331.64 235.94 339.16 233.87"/><polygon class="cls-21" points="335.92 220.91 327.37 227.09 325.45 223.12 336.36 213.39 348 218.4 346.82 231.66 335.92 220.91"/><polygon class="cls-27" points="283.44 18.13 313.81 28.15 320.59 16.36 287.72 0 283.44 18.13"/><polygon class="cls-28" points="279.61 8.7 287.72 0 292.73 11.05 283.44 18.13 279.61 8.7"/><polygon class="cls-28" points="178.94 184.36 103.77 269.68 123.52 273.66 178.94 184.36"/><polygon class="cls-17" points="169.21 176.99 237.31 95.64 213.28 105.66 169.21 176.99"/><polygon class="cls-27" points="313.66 328.33 301.13 233.28 295.82 320.82 313.66 328.33"/><polygon class="cls-27" points="319.56 254.95 306.14 177.14 321.18 117.31 319.56 254.95"/><polygon class="cls-27" points="528.71 286.34 517.65 214.42 512.64 280.74 528.71 286.34"/><polygon class="cls-27" points="533.87 216.34 522.52 148.1 532.25 77.07 533.87 216.34"/><polygon class="cls-27" points="230.09 174.63 243.79 192.17 301.13 233.28 319.56 254.95 333.85 272.78 332.53 246.1 303.05 211.18 246.15 176.84 235.83 172.13 230.09 174.63"/><polygon class="cls-28" points="345.5 265.26 333.85 272.78 330.46 254.36 336.36 246.4 346.97 250.23 345.5 265.26"/><polygon class="cls-17" points="330.46 254.36 303.05 211.18 346.97 250.23 330.46 254.36"/><polygon class="cls-28" points="246.15 176.84 230.09 174.63 196.63 132.63 173.19 109.35 175.55 102.86 184.1 108.02 201.78 124.38 246.15 176.84"/><polygon class="cls-4" points="323.09 226.65 320.59 227.24 319.85 226.21 325.45 219.14 331.05 218.1 323.09 226.65"/><polygon class="cls-4" points="325.6 231.22 370.85 237.56 374.68 238.44 378.66 235.05 319.85 226.21 320.59 229.01 325.6 231.22"/><polygon class="cls-3" points="294.94 229.75 319.85 226.21 325.6 231.22 301.13 233.28 294.94 229.75"/><polygon class="cls-4" points="196.63 132.63 213.72 131.45 211.07 135.58 194.12 136.76 196.63 132.63"/><polygon class="cls-3" points="201.78 124.38 202.23 149.14 205.62 143.83 205.03 119.22 201.78 124.38"/><polygon class="cls-17" points="175.55 102.86 201.78 124.38 181.3 102.57 175.55 102.86"/><path class="cls-35" d="M313.81,28.15l-7.67,13.26-11.79-19.6ZM529,65.87l-6.92,9.88L507.93,61.16Z"/><polygon class="cls-24" points="675.37 215.01 680.82 209.56 689.08 208.67 687.46 218.69 682.15 220.32 675.37 215.01"/><polygon class="cls-22" points="691.88 216.48 689.08 208.67 682.15 220.32 688.04 226.06 691.88 216.48"/><polygon class="cls-22" points="679.05 225.91 675.37 215.01 680.97 219.28 681.85 225.18 679.05 225.91"/><polygon class="cls-36" points="533.57 189.22 557.75 201.9 572.34 188.78 564.53 182 551.26 183.91 538.88 180.97 534.46 184.06 533.57 189.22"/><polygon class="cls-5" points="551.26 183.91 569.39 163.43 576.91 184.8 572.34 188.78 551.26 183.91"/><polygon class="cls-12" points="598.28 219.14 575.58 216.78 571.16 242.86 580.59 249.49 591.06 250.08 604.18 229.75 598.28 219.14"/><polygon class="cls-12" points="624.52 215.75 624.08 244.63 615.08 252.29 603.29 247.87 594.45 224.44 624.52 215.75"/><polygon class="cls-11" points="597.1 208.67 575.58 216.78 599.31 237.41 624.52 215.75 597.1 208.67"/><polygon class="cls-2" points="575.58 216.78 624.52 215.75 620.68 198.21 598.72 181.85 611.1 160.48 602.11 155.03 579.86 160.34 569.39 163.43 575.58 216.78"/><path class="cls-37" d="M571.16,147.37c.88.88,11.5,17.39,11.5,17.39l4.12-3.69,8.7-3.68,2.8-7.22Z"/><polygon class="cls-36" points="554.21 156.95 588.55 152.38 590.17 128.95 588.55 103.89 546.69 103.6 554.21 156.95"/><polygon class="cls-38" points="583.69 101.98 588.4 152.38 596.51 151.79 582.66 164.76 602.7 155.33 605.5 141.91 601.38 113.18 583.69 101.98"/><polygon class="cls-12" points="612.73 113.92 605.5 141.91 601.23 136.02 595.48 130.86 591.65 130.57 584.28 107.28 583.98 104.34 599.61 101.39 612.73 113.92"/><polygon class="cls-32" points="599.9 87.83 612.73 113.92 584.28 107.28 589.58 95.35 599.9 87.83"/><polygon class="cls-4" points="552.29 88.86 599.9 87.83 584.28 107.28 562.61 98.15 552.29 88.86"/><polygon class="cls-32" points="548.9 119.07 532.39 106.4 561.14 104.48 548.9 119.07"/><polygon class="cls-31" points="532.39 106.4 552.29 88.86 584.28 107.28 532.39 106.4"/><polygon class="cls-36" points="595.63 124.53 604.03 125.7 601.23 136.02 595.33 135.43 595.63 124.53"/><polygon class="cls-37" points="598.28 127.62 601.23 127.62 598.28 131.75 598.28 127.62"/><polygon class="cls-37" points="597.84 140.29 595.33 135.43 601.23 136.02 597.84 140.29"/><polygon class="cls-38" points="551.41 121.58 564.53 130.72 561.73 120.11 551.41 121.58"/><polygon class="cls-38" points="568.36 118.78 569.24 130.57 580.89 117.31 568.36 118.78"/><polygon class="cls-21" points="551.41 121.58 560.69 119.07 562.76 121.14 551.41 121.58"/><polygon class="cls-21" points="567.03 120.25 569.69 117.31 580.89 117.31 567.03 120.25"/><polygon class="cls-37" points="566.3 132.78 563.94 134.55 567.03 136.91 569.83 133.81 566.3 132.78"/><polygon class="cls-39" points="560.69 119.07 563.94 134.55 569.83 133.81 569.69 117.31 560.69 119.07"/><polygon class="cls-37" points="575.88 138.53 576.47 141.03 563.79 143.39 562.76 141.03 575.88 138.53"/><path class="cls-30" d="M556.85,125a2.3,2.3,0,1,1-2,2.57A2.31,2.31,0,0,1,556.85,125Z"/><path class="cls-30" d="M572.62,123.06a2.3,2.3,0,1,1-2,2.56A2.3,2.3,0,0,1,572.62,123.06Z"/><polygon class="cls-23" points="571.16 242.86 591.06 250.08 580.15 266.44 573.37 266.59 567.62 262.9 571.16 242.86"/><polygon class="cls-23" points="605.65 275.14 616.41 270.86 627.91 275.87 627.76 280.15 605.95 279.85 605.65 275.14"/><polygon class="cls-3" points="609.04 264.82 605.65 275.14 627.91 275.87 623.93 264.52 617.44 261.73 609.04 264.82"/><polygon class="cls-36" points="569.39 163.43 579.12 165.64 575.58 174.19 565.71 177.28 569.39 163.43"/><polygon class="cls-38" points="577.06 187.31 565.71 177.28 579.12 165.64 582.66 176.99 581.48 183.62 577.06 187.31"/><path class="cls-5" d="M617.74,186.57c-1.33.73-13.12,6-13.12,6l-16.36-3.54-1.92-6,24.76-22.55Z"/><polygon class="cls-36" points="588.7 201.01 608.89 190.69 582.66 176.99 577.06 187.31 588.7 201.01"/><polygon class="cls-3" points="620.68 198.21 588.7 201.01 617.74 186.57 620.68 198.21"/><polygon class="cls-23" points="624.08 244.63 603.29 247.87 609.04 264.82 623.93 264.52 624.08 244.63"/><polygon class="cls-23" points="580.15 277.49 553.18 276.61 553.18 272.63 568.21 270.13 580.15 273.07 580.15 277.49"/><polygon class="cls-3" points="580.15 266.44 580.15 273.07 553.18 272.63 567.62 262.9 580.15 266.44"/><polygon class="cls-38" points="533.28 169.91 538.88 180.97 533.57 189.22 528.41 175.96 524.29 176.99 520.6 173.75 520.9 169.91 533.28 169.91"/><polygon class="cls-38" points="515 178.32 520.6 173.75 522.52 181.12 519.42 190.25 515 178.32"/><polygon class="cls-36" points="520.6 173.75 528.41 175.96 525.91 186.57 519.42 190.25 520.6 173.75"/><polygon class="cls-3" points="568.36 178.76 565.71 177.28 533.72 204.69 517.95 210.59 517.65 214.42 533.72 208.97 568.36 178.76"/><polygon class="cls-27" points="711.77 247.58 683.62 237.26 685.98 232.1 688.19 234.61 709.42 244.19 711.77 247.58"/><polygon class="cls-28" points="702.19 257.89 696 241.83 700.13 239.91 703.82 256.42 702.19 257.89"/><polygon class="cls-28" points="688.19 234.61 683.62 237.26 680.97 219.28 687.31 225.32 688.19 234.61"/><polygon class="cls-16" points="703.37 275.14 696.59 258.63 706.32 252.29 708.68 261.58 703.37 275.14"/><polygon class="cls-17" points="719.88 245.66 706.32 252.29 703.37 275.14 717.97 265.41 728.28 252.29 719.88 245.66"/><polygon class="cls-19" points="713.54 237.56 706.32 252.29 719.88 245.66 724.6 238.88 713.54 237.56"/><polygon class="cls-18" points="735.8 230.48 724.6 238.88 706.32 252.29 733 252.29 735.8 230.48"/><polygon class="cls-17" points="745.23 241.24 735.8 230.48 728.28 252.29 741.99 244.78 745.23 241.24"/><polygon class="cls-18" points="754.96 248.17 745.23 241.24 728.28 252.29 743.91 259.22 754.96 248.17"/><polygon class="cls-17" points="760.42 261.28 754.96 248.17 737.57 256.42 738.45 266 748.77 269.54 760.42 261.28"/><polygon class="cls-16" points="721.65 276.9 703.37 275.14 728.28 252.29 727.55 266.74 721.65 276.9"/><polygon class="cls-17" points="727.84 286.34 721.65 276.9 728.28 252.29 737.57 256.42 739.19 272.19 727.84 286.34"/><polygon class="cls-16" points="745.38 280.44 727.84 286.34 737.57 256.42 748.77 269.54 745.38 280.44"/><polygon class="cls-27" points="225.37 254.06 253.67 280.74 258.24 274.99 254.26 273.96 230.68 254.8 225.37 254.06"/><polygon class="cls-28" points="219.03 271.16 241.14 268.95 240.99 263.2 219.62 268.36 219.03 271.16"/><polygon class="cls-28" points="254.26 273.96 253.67 280.74 272.24 280.59 270.91 269.54 254.26 273.96"/><polygon class="cls-17" points="232.59 226.21 241.44 249.2 228.76 257.31 225.66 245.22 232.59 226.21"/><polygon class="cls-16" points="211.07 266 228.76 257.31 232.59 226.21 213.58 240.36 200.16 257.31 211.07 266"/><polygon class="cls-16" points="219.32 276.61 228.76 257.31 211.07 266 205.03 274.84 219.32 276.61"/><polygon class="cls-17" points="193.83 283.39 205.03 274.84 228.76 257.31 193.97 257.31 193.83 283.39"/><polygon class="cls-16" points="178.2 271.75 193.83 283.39 200.16 257.31 186.31 260.84 178.2 271.75"/><polygon class="cls-17" points="172.16 244.48 178.2 271.75 200.16 257.31 172.16 244.48"/><polygon class="cls-18" points="172.16 244.48 188.08 252 186.9 239.47 177.17 220.61 172.16 244.48"/><polygon class="cls-17" points="209.16 222.82 232.59 226.21 200.16 257.31 201.2 238.59 209.16 222.82"/><polygon class="cls-18" points="200.75 213.09 209.16 222.82 200.16 257.31 188.08 252 186.01 231.37 200.75 213.09"/><polygon class="cls-19" points="177.17 220.61 200.75 213.09 188.08 252 177.17 220.61"/><polygon class="cls-21" points="275.93 274.4 270.91 269.54 265.9 274.84 272.24 280.59 275.93 274.4"/><polygon class="cls-15" points="45.69 171.09 36.11 144.57 24.61 168.29 35.52 189.81 44.51 181.85 45.69 171.09"/><polygon class="cls-10" points="45.69 171.09 35.52 189.81 62.05 192.61 66.92 189.52 67.21 183.62 45.69 171.09"/><polygon class="cls-10" points="93.45 168.29 84.16 184.65 106.27 189.81 110.55 181.41 93.45 168.29"/><polygon class="cls-27" points="137.23 166.08 106.27 189.81 111.28 195.26 113.05 195.41 135.6 171.24 137.23 166.08"/><polygon class="cls-28" points="121.31 156.95 119.98 179.35 125.73 179.94 123.96 157.98 121.31 156.95"/><polygon class="cls-28" points="113.35 195.12 106.27 189.81 93.15 201.45 102.14 206.61 113.35 195.12"/><polygon class="cls-16" points="169.21 176.99 139.58 182.74 133.39 168.88 145.92 167.71 169.21 176.99"/><polygon class="cls-17" points="127.64 150.17 133.39 168.88 169.21 176.99 152.56 156.65 137.96 140.59 127.64 150.17"/><polygon class="cls-17" points="110.84 158.13 133.39 168.88 127.64 150.17 116.3 136.17 110.84 158.13"/><polygon class="cls-18" points="105.98 127.18 133.39 168.88 139 134.55 105.98 127.18"/><polygon class="cls-19" points="127.2 116.72 105.98 127.18 137.96 140.59 136.64 126.29 127.2 116.72"/><polygon class="cls-18" points="141.21 115.98 127.2 116.72 137.96 140.59 150.05 121.87 141.21 115.98"/><polygon class="cls-19" points="155.5 108.31 141.21 115.98 145.04 129.54 157.71 130.27 163.17 125.12 155.5 108.31"/><polygon class="cls-16" points="168.18 154.29 169.21 176.99 137.96 140.59 156.39 144.57 168.18 154.29"/><polygon class="cls-17" points="185.57 150.46 168.18 154.29 137.96 140.59 145.04 129.54 165.82 130.72 185.57 150.46"/><polygon class="cls-16" points="177.76 124.38 185.57 150.46 145.04 129.54 161.1 127.03 166.41 122.46 177.76 124.38"/><polygon class="cls-21" points="94.33 207.35 102.14 206.61 98.9 201.31 93.15 201.45 94.33 207.35"/><polygon class="cls-17" points="177.76 124.38 155.5 108.31 160.51 127.77 177.76 124.38"/><polygon class="cls-10" points="117.18 182.59 112.02 185.39 113.5 195.41 121.01 188.78 117.18 182.59"/><polygon class="cls-9" points="108.63 179.94 106.27 189.81 117.03 185.24 121.01 188.78 124.55 186.27 119.98 179.35 108.63 179.94"/><polygon class="cls-27" points="89.17 133.81 84.9 144.86 70.16 183.47 76.79 185.98 91.24 140 91.97 135.87 89.17 133.81"/><polygon class="cls-17" points="109.22 102.27 89.17 133.81 91.24 140 111.87 104.34 109.22 102.27"/><polygon class="cls-28" points="72.37 198.95 65.59 227.98 63.53 212.95 64.85 195.85 72.37 198.95"/><polygon class="cls-27" points="53.5 266.15 59.99 218.25 64.85 195.85 66.03 245.66 62.5 259.22 53.5 266.15"/><polygon class="cls-28" points="61.91 267.77 66.03 245.66 53.5 266.15 61.91 267.77"/><polygon class="cls-9" points="77.24 184.8 67.21 183.62 62.05 192.61 71.19 204.1 76.94 195.56 77.24 184.8"/><polygon class="cls-10" points="77.24 184.8 71.19 204.1 81.36 193.05 77.24 184.8"/><polygon class="cls-27" points="104.06 95.35 104.5 117.16 99.2 118.04 101.41 95.05 104.06 95.35"/><polygon class="cls-21" points="608.89 301.07 645.89 295.77 761.74 294.88 817.16 281.18 818.49 285.45 767.05 301.96 725.19 295.33 692.76 298.13 614.79 317.14 608.89 301.07"/><polygon class="cls-27" points="604.47 308.88 608.89 301.07 620.54 307.85 614.79 317.14 604.47 308.88"/><polygon class="cls-28" points="691.14 289.43 645.89 295.77 767.05 301.96 761.74 294.88 691.14 289.43"/><polygon class="cls-28" points="801.98 273.37 792.84 287.22 798.74 291.79 805.67 274.55 801.98 273.37"/><polygon class="cls-7" points="193.68 315.51 203.11 319.79 212.4 316.99 204.14 313.3 193.68 315.51"/><polygon class="cls-28" points="202.82 316.69 206.8 305.79 202.23 305.35 202.82 316.69"/><polygon class="cls-19" points="202.37 307.56 206.65 305.94 216.82 301.81 206.94 294.44 193.38 299.89 202.37 307.56"/><polygon class="cls-33" points="207.39 301.37 204 302.69 201.49 300.34 205.62 299.45 207.39 301.37"/><polygon class="cls-7" points="801.39 269.98 792.55 273.96 784 271.3 791.52 267.92 801.39 269.98"/><polygon class="cls-28" points="792.84 271.16 789.16 260.99 793.43 260.55 792.84 271.16"/><polygon class="cls-19" points="793.28 262.76 789.16 261.14 779.73 257.31 789.01 250.53 801.54 255.54 793.28 262.76"/><polygon class="cls-33" points="788.57 256.86 791.81 258.04 794.02 255.98 790.19 255.09 788.57 256.86"/><polygon class="cls-7" points="809.79 269.83 815.1 272.19 820.11 270.71 815.69 268.65 809.79 269.83"/><polygon class="cls-28" points="814.8 270.57 817.02 264.52 814.51 264.23 814.8 270.57"/><polygon class="cls-19" points="814.66 265.56 817.02 264.52 822.62 262.31 817.16 258.19 809.64 261.28 814.66 265.56"/><polygon class="cls-33" points="817.46 262.02 815.54 262.76 814.22 261.43 816.43 260.99 817.46 262.02"/><polygon class="cls-7" points="141.21 301.52 126.61 309.32 113.5 304.17 127.2 298.71 141.21 301.52"/><polygon class="cls-28" points="128.97 303.14 123.81 288.69 129.85 288.1 128.97 303.14"/><polygon class="cls-40" points="129.71 291.05 123.81 288.84 110.25 283.24 123.52 273.66 141.5 280.88 129.71 291.05"/><polygon class="cls-33" points="122.93 282.8 127.5 284.57 130.74 281.47 125.29 280.15 122.93 282.8"/><polygon class="cls-7" points="148.13 311.98 155.94 315.51 163.61 313.16 156.83 310.21 148.13 311.98"/><polygon class="cls-28" points="155.65 313.01 159.04 303.87 155.21 303.58 155.65 313.01"/><polygon class="cls-40" points="155.35 305.49 158.89 304.02 167.44 300.63 159.04 294.59 147.99 299.01 155.35 305.49"/><polygon class="cls-33" points="159.48 300.34 156.68 301.37 154.62 299.45 158.01 298.57 159.48 300.34"/><polygon class="cls-7" points="531.36 324.36 518.98 329.96 506.89 326.27 517.51 321.56 531.36 324.36"/><polygon class="cls-28" points="519.42 325.98 514.26 311.68 520.16 311.09 519.42 325.98"/><polygon class="cls-18" points="520.01 314.04 514.26 311.83 501 306.38 513.97 296.8 531.66 303.87 520.01 314.04"/><polygon class="cls-33" points="513.38 305.94 517.95 307.56 521.04 304.46 515.74 303.28 513.38 305.94"/><polygon class="cls-7" points="544.48 317.87 552.14 321.41 559.66 319.2 553.03 316.25 544.48 317.87"/><polygon class="cls-28" points="551.85 318.9 555.09 310.21 551.41 309.77 551.85 318.9"/><polygon class="cls-40" points="551.56 311.54 555.09 310.21 563.35 306.82 555.24 300.93 544.33 305.35 551.56 311.54"/><polygon class="cls-33" points="555.68 306.52 552.88 307.56 550.82 305.64 554.21 304.9 555.68 306.52"/></g></g></g></svg>