<svg xmlns="http://www.w3.org/2000/svg" viewBox="0 0 900 350"><defs><style>.cls-1{fill:#c4c4c2;}.cls-1,.cls-11,.cls-12,.cls-13,.cls-14,.cls-15,.cls-2,.cls-3,.cls-4,.cls-5,.cls-6,.cls-7,.cls-8,.cls-9{fill-rule:evenodd;}.cls-2{fill:#a3a1a1;}.cls-10,.cls-3{fill:#d0cecd;}.cls-4,.cls-48{fill:#ececeb;}.cls-22,.cls-5{fill:#ba8e2d;}.cls-23,.cls-6{fill:#f0bc67;}.cls-39,.cls-7{fill:#b38b2e;}.cls-8{fill:#dddddc;}.cls-49,.cls-9{fill:#9b9fa0;}.cls-11,.cls-40{fill:#2b2b2b;}.cls-11{opacity:0.1;}.cls-12,.cls-28{fill:#e4c723;}.cls-13,.cls-29{fill:#cbad2d;}.cls-14,.cls-50{fill:#ab913c;}.cls-15,.cls-51{fill:#8c7c2f;}.cls-16{fill:#d0ae95;}.cls-17{fill:#e1a940;}.cls-18{fill:#a8836c;}.cls-19{fill:#eed2c1;}.cls-20{fill:#9c782c;}.cls-21{fill:#494749;}.cls-24{fill:#272626;}.cls-25{fill:#404040;}.cls-26{fill:#836528;}.cls-27{fill:#755924;}.cls-30{fill:#c2977a;}.cls-31{fill:#debca4;}.cls-32{fill:#8a6651;}.cls-33{fill:#474747;}.cls-34{fill:#333;}.cls-35{fill:#737373;}.cls-36{fill:#505353;}.cls-37{fill:#e8c9b6;}.cls-38{fill:#fff;}.cls-41{fill:#f3d65c;}.cls-42{fill:#737475;}.cls-43{fill:#4f5353;}.cls-44{fill:#f6e5db;}.cls-45{fill:#8f8f8f;}.cls-46{fill:#bc8f2d;}.cls-47{fill:#2b2c2b;}</style></defs><title>explorers_Entertainer_ESFP_weaknesses</title><g id="ILLUSTRATION_copy" data-name="ILLUSTRATION copy"><g id="wall_and_floor_copy" data-name="wall and floor copy"><polygon class="cls-1" points="791.61 72.11 858.7 0 888.3 24.75 873.28 309.27 760.63 313.79 791.61 72.11"/><polygon class="cls-2" points="255.96 65.4 40.73 0 5.51 28.67 17.14 312.28 180.85 294.22 255.96 65.4"/><polygon class="cls-2" points="154.21 316.55 106.15 339.3 3.34 313.87 0 279.08 140.19 281.75 154.21 316.55"/><polygon class="cls-1" points="794.44 307.85 819.14 350 897.25 323.91 900 292.63 794.44 307.85"/><polygon class="cls-2" points="490.68 303.16 547.43 349.67 819.14 350 819.64 325.24 490.68 303.16"/><polygon class="cls-3" points="104.14 291.12 104.81 301.16 106.15 339.3 547.43 349.67 547.43 329.93 228.32 224.88 104.14 291.12"/><polygon class="cls-4" points="110.15 231.24 63.98 275.55 0 279.08 102.82 302.28 547.43 329.93 819.64 325.24 900 292.63 840.92 286.52 520.72 176.04 110.15 231.24"/><polygon class="cls-2" points="470.23 89.11 531.79 35.64 858.7 0 840.92 286.52 534.74 250.97 470.23 89.11"/><polygon class="cls-3" points="40.73 0 531.79 35.64 532.07 249.64 54.41 276.07 40.73 0"/></g><g id="store_copy" data-name="store copy"><polygon class="cls-3" points="813.5 47.89 801.78 281.75 775.74 279.75 700.55 246.04 593.32 258.5 576.8 256.33 581.41 64.8 813.5 47.89"/><polygon class="cls-5" points="595.54 80.34 791.61 72.11 775.74 279.75 593.32 258.5 595.54 80.34"/><polygon class="cls-6" points="640.1 31.88 640.78 51.48 728.14 45.49 728.27 24.42 640.1 31.88"/><polygon class="cls-7" points="661.78 34.86 657.11 33.49 653.09 37.15 657.65 40.61 657.64 42.03 651.3 41.99 651.53 45.17 661.04 45.23 662.49 41.47 658.67 37.69 660.09 37.36 662.01 37.87 661.78 34.86"/><polygon class="cls-7" points="666.21 33.97 678.23 32.79 678.04 36.39 672.7 36.77 673.07 43.63 669.4 43.78 669.44 36.92 665.94 36.81 666.21 33.97"/><polygon class="cls-7" points="682.99 32.91 681.05 35.82 681.02 40.34 684.42 43.45 690.18 43.16 692.37 39.91 689.99 34.12 686.74 32.68 682.99 32.91"/><polygon class="cls-6" points="685.29 35.55 683.76 36.92 684.55 39.95 686.86 41.25 689.28 39.89 688.32 36.58 685.29 35.55"/><polygon class="cls-7" points="695.53 42.19 694.51 31.98 701.19 32.02 701.5 34.7 699.32 37.36 702.72 40.23 701.04 41.81 697.54 40.11 697.95 42.54 695.53 42.19"/><polygon class="cls-6" points="697.18 34.16 697.17 35.81 699.51 33.81 697.18 34.16"/><polygon class="cls-7" points="704.53 31.54 704.62 42.33 713.39 42.05 713.16 38.87 708.24 39.15 708.22 37.61 710.58 37.6 710.51 35.09 708.21 34.85 708.13 33.19 711.86 33.26 711.88 30.67 704.53 31.54"/><polygon class="cls-8" points="178.25 50.25 220.31 54.26 451.63 74.34 450.63 199.79 430.6 208.82 167.23 220.87 178.25 50.25"/><polygon class="cls-9" points="187.76 74.34 435.61 87.38 435.1 194.27 188.26 204.81 187.76 74.34"/><polygon class="cls-3" points="675.27 70.99 670.93 267.7 687.29 269.38 689.96 68.98 675.27 70.99"/><ellipse class="cls-10" cx="709.49" cy="181.72" rx="7.51" ry="10.54"/><ellipse class="cls-10" cx="655.41" cy="178.21" rx="7.51" ry="10.54"/></g><g id="shadows_copy" data-name="shadows copy"><polygon class="cls-11" points="130.51 282.42 195.27 274.06 257.36 284.43 191.6 298.81 130.51 282.42"/><polygon class="cls-11" points="255.85 295.13 331.64 283.14 388.04 298.65 325.79 310.52 255.85 295.13"/><polygon class="cls-11" points="481.17 303.67 551.43 294.8 613.35 307.18 550.43 318.55 481.17 303.67"/></g><g id="trash_bin_copy" data-name="trash bin copy"><polygon class="cls-12" points="168.99 227.14 167.36 219.74 200.53 215.35 220.31 219.11 190.51 231.15 168.99 227.14"/><polygon class="cls-13" points="179.75 241.44 192.52 220.62 220.31 219.11 228.82 231.91 186.26 253.23 179.75 241.44"/><polygon class="cls-7" points="181 251.73 157.72 233.91 167.36 219.74 192.52 220.62 193.52 236.67 181 251.73"/><polygon class="cls-14" points="177.75 265.53 191.01 289.87 221.56 284.35 228.82 231.91 193.52 236.67 177.75 265.53"/><polygon class="cls-15" points="157.72 233.91 162.73 285.1 191.01 289.87 193.52 236.67 157.72 233.91"/></g><g id="characters_copy" data-name="characters copy"><polygon class="cls-16" points="400.81 147.18 402.81 142.67 409.32 143.67 418.58 159.31 407.84 161.78 400.81 147.18"/><polygon class="cls-17" points="409.65 158.77 409.32 143.67 427.09 145.93 432.43 154.38 425.8 161.09 409.65 158.77"/><polygon class="cls-18" points="389.79 169.01 392.13 158.39 402.81 142.67 407.84 161.78 400.43 166.88 389.79 169.01"/><polygon class="cls-19" points="388.29 173.28 392.13 158.39 402.33 147.98 411.07 147.35 411.76 150.86 404.24 153.22 401.81 161.78 396.76 165.37 388.29 173.28"/><polygon class="cls-16" points="293.07 210.5 289.07 219.03 282.39 215.18 293.07 210.5"/><polygon class="cls-19" points="292.41 192.26 297.75 197.11 301.17 200.71 300.25 212.67 295.58 217.19 289.07 219.03 287.73 200.79 292.41 192.26"/><polygon class="cls-20" points="311.43 145.01 293.74 135.72 268.37 169.6 285.9 181.14 299.25 169.18 311.43 145.01"/><polygon class="cls-21" points="361.75 90.56 373.52 105.62 347.48 139.74 322.45 123.43 361.75 90.56"/><polygon class="cls-21" points="295.91 90.81 290.15 101.1 313.69 140.49 328.96 106.12 295.91 90.81"/><polygon class="cls-20" points="338.8 138.74 356.83 136.73 377.77 170.69 359 177.96 344.48 162.82 338.8 138.74"/><polygon class="cls-22" points="348.82 147.43 357.66 168.01 353.16 199.62 309.18 209.49 301.17 200.71 299.25 169.18 348.82 147.43"/><polygon class="cls-17" points="293.74 135.72 307.76 130.54 329.21 134.74 347.48 132.21 356.83 136.73 357.66 168.01 299.25 169.18 293.74 135.72"/><polygon class="cls-23" points="307.76 130.54 313.52 128.78 329.79 124.69 347.48 132.21 351.15 149.27 335.59 138.28 313.94 150.28 307.76 130.54"/><polygon class="cls-24" points="561.56 300.96 554.48 305.69 554.53 309.08 579.04 309.08 578.97 305.96 561.56 300.96"/><polygon class="cls-25" points="578.97 305.96 554.48 305.69 561.66 293.65 570.58 284.22 577.1 295.65 578.97 305.96"/><polygon class="cls-24" points="532.02 295.84 512.85 301 512.85 304.28 547.12 304.6 546.88 301.16 532.02 295.84"/><polygon class="cls-26" points="510.25 147.59 526.84 134.94 530.22 140.92 532.9 148.61 519.8 151.14 510.25 147.59"/><polygon class="cls-27" points="504.45 184.11 513.42 167.49 517.87 149.47 510.25 147.59 498.3 154.96 489.48 177.39 504.45 184.11"/><polygon class="cls-28" points="564.73 226.23 529.57 224.83 509.39 217.03 521.31 174.43 532.85 148.56 544.12 154.63 555.23 150.87 557.59 149.47 560.33 149.15 564.3 183.04 564.73 226.23"/><polygon class="cls-29" points="518.84 182.93 521.31 174.43 521.84 173.25 525.82 169.32 561.13 172.81 563.87 179.81 564.3 183.04 564.08 189.28 568.54 202.13 517.23 194.17 518.84 182.93"/><polygon class="cls-30" points="541.79 59.22 564.09 60.22 567.95 106.11 548.24 132.66 546.52 112.06 542.75 65.42 542.8 64.89 541.79 59.22"/><polygon class="cls-20" points="582.9 187.01 597.49 181.53 598.08 162.33 590.46 152.47 574.28 144.14 573.69 171.34 582.9 187.01"/><polygon class="cls-30" points="544.78 113.65 567.95 106.11 567.78 109.56 566.04 142.62 564.63 143.65 558.05 149.51 545.35 131.66 544.78 113.65"/><polygon class="cls-31" points="517.83 66.23 495.75 70.25 493.08 81.25 494.01 97.42 492.15 132.16 550.41 126.51 542.8 64.89 542.75 64.57 517.83 66.23"/><polygon class="cls-30" points="512.62 96.3 506.12 86.43 497.59 82.1 505.39 80.22 510.26 81.11 513.6 81.14 518.1 80.75 522.96 79.89 528.76 77.25 535.58 78.58 527.71 83.19 519.38 95.89 512.62 96.3"/><polygon class="cls-32" points="532.82 148.94 512.2 130.43 560.03 124.14 558.05 149.51 543.61 156.29 532.82 148.94"/><polygon class="cls-32" points="567.78 103.84 567.95 106.11 555.3 100.07 563.16 94.72 567.78 103.84"/><polygon class="cls-33" points="472.93 34.6 494.01 97.42 495.75 70.25 489.07 57.04 472.93 34.6"/><polygon class="cls-33" points="556.97 88.03 567.95 106.11 570.82 52.64 563.85 66.75 556.97 88.03"/><polygon class="cls-34" points="556.97 88.03 570.82 52.64 565.16 53.99 552.69 59.72 542.8 64.89 552.09 81.59 556.97 88.03"/><polygon class="cls-33" points="570.82 52.64 541.54 34.74 540.11 47.49 542.8 64.89 570.82 52.64"/><polygon class="cls-35" points="495.75 70.25 522.55 67.23 499.45 50.08 472.93 34.6 495.75 70.25"/><polygon class="cls-36" points="522.55 67.23 542.8 64.89 541.54 34.74 472.93 34.6 522.55 67.23"/><polygon class="cls-31" points="552.09 81.59 565.05 79.6 566.57 97.9 555.3 100.07 552.09 81.59"/><polygon class="cls-32" points="560.72 83.63 555.12 84.96 556.32 90.56 560.72 83.63"/><polygon class="cls-37" points="513.6 81.14 512.01 97.18 519.38 95.89 518.1 80.75 513.6 81.14"/><polygon class="cls-32" points="516.08 101.16 512.01 97.18 519.38 95.89 516.08 101.16"/><polygon class="cls-34" points="497.32 82.13 504 76.65 510.26 81.11 497.32 82.13"/><polygon class="cls-34" points="522.96 79.89 529.42 74.26 537.66 79.42 522.96 79.89"/><polygon class="cls-32" points="508.85 108.97 530.86 104.24 537.12 119.17 506.83 124.69 508.85 108.97"/><polygon class="cls-38" points="510.33 110.39 529.11 106.37 532.11 112.77 510.21 116.28 510.33 110.39"/><polygon class="cls-39" points="488.73 225.05 517.87 149.47 532.9 148.61 509.39 217.03 488.73 225.05"/><polygon class="cls-30" points="466.06 148.61 486.88 161.34 486.88 179.62 482.13 193.77 456.09 155.88 460.27 149.66 466.06 148.61"/><polygon class="cls-25" points="512.85 301 546.88 301.16 546.32 292.13 539.66 276.04 530.06 291.11 512.85 301"/><path class="cls-26" d="M522.08,261.62,509.39,217l41.33,14.53-2.47,33.83-14.92,5.33Z"/><path class="cls-27" d="M530.06,291.11l-8-29.49,26.17,3.77-1.93,26.73Z"/><polygon class="cls-26" points="553.35 267.11 543.21 236.93 532.42 225.96 565.05 226.23 564.89 238.55 574.28 228.97 583.24 223.06 579.92 263.51 566.77 276.79 553.35 267.11"/><polygon class="cls-27" points="561.66 293.65 553.35 267.11 579.92 263.51 577.1 295.65 561.66 293.65"/><polygon class="cls-27" points="509.39 216.98 545.36 243.42 564.14 226.23 509.39 216.98"/><polygon class="cls-39" points="564.89 240.16 591.54 217.45 584.05 186.44 579.64 177.88 574.28 144.14 558.05 149.51 564.89 240.16"/><polygon class="cls-26" points="576.57 158.31 558.05 149.51 566.4 134.71 574.28 144.14 576.57 158.31"/><polygon class="cls-31" points="504.45 184.11 498.3 154.96 486.88 161.34 482.13 193.77 504.45 184.11"/><path class="cls-40" d="M527.2,83.19a3.27,3.27,0,0,0-2.05,4.07,3.22,3.22,0,1,0,2.05-4.07Z"/><path class="cls-40" d="M506.4,85.38a3.22,3.22,0,0,0,2,6.13,3.22,3.22,0,1,0-2-6.13Z"/><polygon class="cls-32" points="439.86 147.02 451.38 136.47 457.13 135.81 466.06 148.61 457.63 158.06 439.86 147.02"/><polygon class="cls-30" points="445.87 124.77 457.38 135.98 439.86 147.02 435.56 131.92 445.87 124.77"/><polygon class="cls-31" points="462.27 129.62 458.77 144.27 461.81 153.71 466.06 148.61 467.12 129.62 462.27 129.62"/><polygon class="cls-32" points="643.35 163.16 632.96 147.6 630.33 148.86 616.28 157.3 623.83 167.3 643.35 163.16"/><polygon class="cls-30" points="643.85 138.82 630.33 148.86 643.35 163.16 653.49 147.1 643.85 138.82"/><polygon class="cls-31" points="627.2 143.71 625.2 156.63 620.82 162.91 616.48 156.51 623.57 142.08 627.2 143.71"/><polygon class="cls-31" points="584.05 186.44 593.57 200.97 605.59 184.16 598.08 162.33 584.05 186.44"/><polygon class="cls-30" points="616.48 156.51 598.08 162.33 593.95 200.84 624.45 167.3 616.48 156.51"/><polygon class="cls-39" points="456.63 187.92 478.91 211.5 488.18 208.24 483.42 159.06 476.29 154.92 456.63 187.92"/><polygon class="cls-28" points="432.43 154.38 476.29 154.92 478.91 211.5 429.1 210.5 432.43 154.38"/><polygon class="cls-29" points="446.7 154.97 457.38 135.98 460.47 136.23 458.97 143.93 461.81 153.71 461.64 155.05 446.7 154.97"/><polygon class="cls-41" points="438.77 165.67 467.82 166.34 468.65 184.74 437.61 183.57 438.77 165.67"/><g id="Layer_1"><polygon class="cls-27" points="361.91 292.53 354.51 291.34 334.2 291.25 331.64 292.53 331.64 296.04 361.91 296.04 361.91 292.53"/><polygon class="cls-27" points="319.75 298.02 316.2 296.73 301.51 296.78 298.3 298.02 298.45 302.02 319.85 302.02 319.75 298.02"/><polygon class="cls-19" points="342.88 281.36 351.8 286.6 352.49 288.33 354.81 288.38 361.91 292.53 351.06 292.53 349.63 291.39 346.77 292.53 331.64 292.53 331.64 283.14 333.66 281.06 339.08 280.37 342.88 281.36"/><polygon class="cls-19" points="312.4 283.93 315.31 285.46 316.5 288.82 316.2 291.1 317.73 292.23 319.75 298.02 298.3 298.02 301.31 291.84 303.18 290.55 303.09 288.23 304.56 285.26 306.98 283.98 312.4 283.93"/><polygon class="cls-19" points="352.15 229.47 347.81 255.02 345.15 257.69 332.18 258.28 328.68 255.61 327 240 330.16 234.91 347.37 227.79 352.15 229.47"/><polygon class="cls-42" points="373.65 88.92 373.52 105.62 365.91 106.71 367.04 98.56 371.92 87.73 373.65 88.92"/><polygon class="cls-21" points="368.42 67.37 370.14 61.58 373.6 69.5 374.44 80.37 373.65 88.92 365.91 106.71 363.59 102.86 368.42 67.37"/><polygon class="cls-42" points="380.75 69.99 373.65 88.92 370.14 61.58 375.57 65.89 380.75 69.99"/><polygon class="cls-43" points="302.3 76.76 305.16 79.73 310.14 96.33 309.79 100.83 290.15 101.1 295.49 79.23 297.42 76.22 302.3 76.76"/><polygon class="cls-43" points="293.81 66.58 290.15 101.1 302.3 76.76 299.39 69.89 296.92 67.22 293.81 66.58"/><polygon class="cls-18" points="346.15 117.66 335.59 138.28 321.78 132.13 315.24 122.12 312.23 108.28 332.92 116.35 341.45 116.59 346.15 117.66"/><polygon class="cls-16" points="320.99 101.03 336.86 116.5 319.78 117.91 316.44 117.66 321.78 132.13 313.52 128.78 309.59 100.19 308.76 96.08 310.93 91.98 313.74 73.1 317.58 62.13 319.8 69.89 320.99 101.03"/><polygon class="cls-21" points="312.75 94.31 317.58 62.13 306.76 62.96 303.73 72.36 302.3 76.76 303.23 79.78 308.71 81.01 309.1 89.66 312.75 94.31"/><polygon class="cls-18" points="312.75 94.31 309.79 100.83 307.52 93.56 308.07 91.83 310.93 91.98 312.75 94.31"/><polygon class="cls-19" points="311.67 79.83 312.75 94.31 307.52 93.56 303.23 79.78 311.67 79.83"/><polygon class="cls-18" points="309.2 82.94 306.29 82.84 309.64 88.33 309.2 82.94"/><polygon class="cls-19" points="362.42 120.25 319.78 117.91 317.58 62.13 326.95 47.41 343.47 48.79 355.16 44.44 363.25 46.53 370.14 61.58 362.42 120.25"/><polygon class="cls-18" points="352.4 95.29 347.32 99.05 342.78 94.85 347.86 93.27 352.4 95.29"/><polygon class="cls-16" points="360.68 74.34 366.32 74.06 358.12 82 352.4 95.29 347.86 81.9 351.46 77.11 360.68 74.34"/><polygon class="cls-16" points="343.22 77.01 347.22 81.95 342.78 94.85 336.76 81.8 326.52 72.56 335.68 73.84 343.22 77.01"/><polygon class="cls-44" points="352.4 95.29 342.78 94.85 343.22 77.01 351.46 77.11 352.4 95.29"/><polygon class="cls-21" points="366.32 74.06 360.53 73.5 352.74 74.64 351.46 77.11 360.43 75.38 366.32 74.06"/><polygon class="cls-21" points="341.7 74.14 343.22 77.01 334.3 74.69 326.52 72.56 334.35 72.71 341.7 74.14"/><polygon class="cls-42" points="351.06 29.91 371.53 43.75 366.88 49.04 344.16 52.15 344.48 40.38 347.37 33.67 351.06 29.91"/><polygon class="cls-45" points="329.66 28.33 351.06 29.91 344.16 52.15 332.28 44.24 329.47 34.21 329.66 28.33"/><polygon class="cls-42" points="329.66 28.33 344.16 52.15 330.25 44.24 313.1 42.51 311.18 33.35 329.66 28.33"/><polygon class="cls-45" points="297.91 46.9 306.93 55.21 317.58 62.13 344.16 52.15 311.18 33.35 297.91 46.9"/><polygon class="cls-42" points="302.3 76.76 317.58 62.13 297.91 46.9 293.81 66.58 302.3 76.76"/><polygon class="cls-29" points="317.73 292.23 314.57 295.15 311.57 295.15 311.42 293.27 316.5 288.82 317.73 292.23"/><polygon class="cls-46" points="303.09 288.23 314.57 295.15 311.32 298.02 301.31 291.84 303.09 288.23"/><polygon class="cls-46" points="354.81 288.38 351.06 292.53 346.77 292.53 351.8 286.6 354.81 288.38"/><polygon class="cls-16" points="347.81 255.02 326.7 249.64 331.64 283.14 343.32 281.66 347.81 255.02"/><polygon class="cls-18" points="347.81 255.02 326.7 249.64 328.46 260.84 347.81 255.02"/><polygon class="cls-16" points="322.2 248.13 299.44 255.91 304.56 285.26 315.22 285.41 322.2 248.13"/><polygon class="cls-18" points="322.2 248.13 299.44 255.91 319.61 261.35 322.2 248.13"/><polygon class="cls-45" points="371.53 43.75 380.75 69.99 370.39 61.79 344.16 52.15 371.53 43.75"/><polygon class="cls-38" points="346.81 102.86 335.22 106.56 346.56 109.25 354.93 107.75 346.81 102.86"/><polygon class="cls-28" points="354.93 107.75 346.02 110.82 335.22 106.56 346.21 107.31 354.93 107.75"/><polygon class="cls-39" points="354.93 107.75 347.02 104.4 335.03 106.75 346.9 101.77 354.93 107.75"/><path class="cls-47" d="M340.68,81.13A3.09,3.09,0,1,1,337.59,78,3.09,3.09,0,0,1,340.68,81.13Z"/><path class="cls-47" d="M363.05,82.14A3.09,3.09,0,1,1,360,79,3.1,3.1,0,0,1,363.05,82.14Z"/></g><polygon class="cls-16" points="393.21 157.14 359 177.96 370.76 192.26 400.43 166.88 393.21 157.14"/><polygon class="cls-21" points="301.16 200.16 293.91 218.02 299.44 255.91 347.81 255.02 354.24 222.54 353.16 199.62 301.16 200.16"/><polygon class="cls-43" points="301.16 200.16 293.91 218.02 299.44 255.91 320.19 255.24 353.16 199.62 301.16 200.16"/><polygon class="cls-16" points="287.73 200.79 297.75 197.11 292.41 175.37 277.05 174.87 274.88 179.72 287.73 200.79"/><polygon class="cls-18" points="274.55 179.72 292.41 175.37 268.37 169.6 274.55 179.72"/><polygon class="cls-23" points="426.06 152.02 424.06 151.92 421.27 149.29 418.68 153.75 416.17 152.87 417.08 148.92 415.7 148.92 414.82 151.05 412.84 150.8 412.36 152.7 414.17 152.71 417.14 155.57 419.52 154.94 421.63 151.49 422.59 153.06 421.77 155.5 423.59 155.38 423.93 153.75 425.74 153.9 426.06 152.02"/></g><g id="chat_bubble_copy" data-name="chat bubble copy"><polygon class="cls-48" points="217.8 54.26 99.14 12.11 22.36 83.03 50.07 190.76 188.26 204.81 228.32 129.54 217.8 54.26"/><polygon class="cls-49" points="145.33 162.24 147.87 174.32 155.34 179.01 178.25 146.85 177.25 140.07 145.33 162.24"/><polygon class="cls-49" points="132.77 160.77 129.01 162.49 132.06 166.75 155.34 179.01 153.38 175.37 132.77 160.77"/><polygon class="cls-28" points="164.9 52.76 163.06 50.25 166.77 49.16 170.65 50.33 164.9 52.76"/><polygon class="cls-50" points="164.4 54.52 167.48 50.84 170.65 50.33 174.41 57.11 164.48 62.8 164.4 54.52"/><polygon class="cls-51" points="162.31 60.7 161.06 58.11 163.06 50.25 167.48 50.84 167.06 58.95 162.31 60.7"/><polygon class="cls-39" points="94.47 65.3 106.48 56.94 114.49 61.96 113.91 105.95 102.89 111.47 94.47 65.3"/><polygon class="cls-48" points="221.81 109.46 218.3 137.06 292.41 116.49 221.81 109.46"/><polygon class="cls-29" points="77.9 141.09 78.22 163.99 107.98 163.67 107.88 141.19 117.23 140.13 118.62 129.26 104.27 124.25 80.03 123.93 65.67 128.3 68.65 140.45 77.9 141.09"/><polygon class="cls-39" points="92.57 133.41 84.49 124.01 99.38 124.17 92.57 133.41"/><polygon class="cls-29" points="87 153.87 78.22 163.99 78.11 175.08 90.13 174.45 93.38 165.5 97.14 174.2 109.65 174.07 107.98 163.67 87 153.87"/><polygon class="cls-28" points="159.89 63.97 167.06 58.95 174.41 57.11 184.26 67.31 162.06 78.02 159.89 63.97"/><polygon class="cls-39" points="157.89 80.69 153.55 67.98 161.06 58.11 167.06 58.95 166.23 70.32 157.89 80.69"/><polygon class="cls-50" points="162.22 84.04 166.23 70.32 184.26 67.31 187.26 97.42 172.57 103.44 162.22 84.04"/><polygon class="cls-51" points="153.55 67.98 155.22 97.75 172.57 103.44 166.23 70.32 153.55 67.98"/><polygon class="cls-10" points="148.04 128.2 129.01 162.49 153.38 175.37 177.25 140.07 148.04 128.2"/><polygon class="cls-49" points="149.88 135.39 135.69 159.31 152.21 168.01 169.57 141.91 149.88 135.39"/><polygon class="cls-49" points="140.07 163.87 139.03 165.71 142.87 167.93 143.91 165.79 140.07 163.87"/><polygon class="cls-17" points="128.68 125.27 173.99 169.43 168.48 174.7 125.42 129.28 128.68 125.27"/><polygon class="cls-17" points="178 126.78 124.67 164.66 129.43 167.67 180.5 132.8 178 126.78"/><polygon class="cls-22" points="68.09 78.35 58.41 85.04 62.09 108.71 102.89 111.47 105.15 89.06 68.09 78.35"/><polygon class="cls-17" points="64.42 55.6 58.41 85.04 105.15 89.06 106.48 56.94 64.42 55.6"/><polygon class="cls-22" points="79.11 62.71 76.94 78.94 84.37 79.61 84.87 63.13 79.11 62.71"/><polygon class="cls-22" points="73.35 67.39 89.37 68.65 89.29 74.5 72.35 72.92 73.35 67.39"/></g></g></svg>