<svg xmlns="http://www.w3.org/2000/svg" viewBox="0 0 900 350"><defs><style>.cls-1,.cls-4{fill:#cececd;}.cls-2,.cls-3{fill:#ececeb;}.cls-14,.cls-15,.cls-16,.cls-17,.cls-18,.cls-19,.cls-20,.cls-21,.cls-22,.cls-23,.cls-24,.cls-25,.cls-26,.cls-27,.cls-28,.cls-3,.cls-4,.cls-40,.cls-41,.cls-42,.cls-43,.cls-44,.cls-49,.cls-5,.cls-50,.cls-51{fill-rule:evenodd;}.cls-21,.cls-5,.cls-6{fill:#dddddc;}.cls-16,.cls-32,.cls-43,.cls-48,.cls-49,.cls-7{fill:#2b2b2b;}.cls-16,.cls-21,.cls-7{opacity:0.1;}.cls-20,.cls-8{fill:#a3a3a3;}.cls-17,.cls-9{fill:#bc8f2d;}.cls-10,.cls-19{fill:#737373;}.cls-11,.cls-50{fill:#858686;}.cls-12{fill:#9da1a2;}.cls-13{fill:#c4c4c4;}.cls-14,.cls-52{fill:#e5c828;}.cls-15,.cls-47{fill:#ccad14;}.cls-18,.cls-38{fill:#8f8f8f;}.cls-22{fill:#b58b00;}.cls-23,.cls-53{fill:#f4d75d;}.cls-24,.cls-34{fill:#c3987b;}.cls-25,.cls-35{fill:#856400;}.cls-26,.cls-45{fill:#9e7700;}.cls-27,.cls-30{fill:#dfbda5;}.cls-28,.cls-37{fill:#fff;}.cls-29,.cls-42{fill:#474747;}.cls-31,.cls-40{fill:#8b6651;}.cls-33{fill:#4f5253;}.cls-36,.cls-44{fill:#e8cab6;}.cls-39,.cls-41{fill:#6f7173;}.cls-46{fill:#bf8f00;}.cls-48,.cls-49{opacity:0.2;}.cls-51{fill:#755800;}</style></defs><title>explorers_Entrepreneur_ESTP_parenthood</title><g id="illustration_copy" data-name="illustration copy"><g id="background_copy" data-name="background copy"><polygon class="cls-1" points="0.06 220.59 168.59 165.41 237.67 169.1 288.51 200.18 0.06 220.59"/><polygon class="cls-2" points="0.06 220.59 162.19 205.67 226.75 200.81 423 190.67 454.49 195.96 437 213.33 338.83 224.33 253.18 239.62 148.46 251 52.61 275.42 0.06 220.59"/><polygon class="cls-3" points="900 253.66 900 207.77 885 207.31 856.62 207.77 782.83 209.14 541.13 200.15 510.5 213.69 510.5 228 248.17 350 327.57 350 482.64 330.36 571.86 293.21 653.58 334.68 697.36 334.68 767.68 327.23 873.18 312.73 798.94 289.49 865.58 275.4 900 253.66"/><polygon class="cls-4" points="162.19 205.67 253.18 239.62 127.06 254.03 52.61 275.42 0.06 220.59 57 202.61 96.37 211.72 162.19 205.67"/><polygon class="cls-2" points="114.56 186.88 69.38 175 57 200.15 96.34 211.4 145.66 200.81 114.56 186.88"/><polygon class="cls-5" points="69.38 175 96.34 211.4 0.06 220.59 69.38 175"/><polygon class="cls-6" points="259.55 141.04 423 190.67 454.49 195.96 437 213.33 338.83 224.33 274.85 192.08 242.05 145.73 259.55 141.04"/><polygon class="cls-2" points="242.05 145.73 214.01 153.46 162.19 205.67 226.75 200.81 251.63 199.69 274.5 192 242.05 145.73"/><polygon class="cls-5" points="96.34 211.4 52.61 275.42 253.18 239.62 162.19 205.67 96.34 211.4"/><polygon class="cls-4" points="873.18 312.73 798.94 289.49 865.58 275.4 778.4 283.06 390.42 283.84 248.17 350 327.57 350 482.64 330.36 571.86 293.21 653.58 334.68 697.36 334.68 767.68 327.23 873.18 312.73"/><polygon class="cls-5" points="885 207.31 856.62 207.77 782.83 209.14 541.13 200.15 510.5 213.69 510.5 228 900 253.66 900 207.77 885 207.31"/></g><g id="trees_copy" data-name="trees copy"><polygon class="cls-7" points="57 235.5 105.5 222.93 175.27 235.5 111 253.73 57 235.5"/><polygon class="cls-8" points="85.44 171.58 85.44 171.58 67.27 155.79 56.38 154.38 49.67 162.72 85.5 184.09 103.56 184.09 107.5 169.18 85.44 171.58"/><polygon class="cls-9" points="240.36 76.87 180.83 35.12 212.62 70.7 240.36 76.87"/><polygon class="cls-9" points="213.15 69.8 187.34 40.91 235.67 74.8 213.15 69.8"/><polygon class="cls-10" points="89.44 147.07 107.5 169.18 120.67 245.03 141.78 240.58 145.66 200.83 138.52 159.88 131.08 147.93 98.33 143.58 89.44 147.07"/><polygon class="cls-10" points="107.5 169.18 138.52 159.88 130.67 147.08 98.33 143.58 107.5 169.18"/><polygon class="cls-11" points="49.67 162.72 98.33 143.58 152.79 150.34 240.36 139.6 254.13 113.8 238.5 112.03 196.01 121.15 141.78 131.7 105.5 118.81 61 118.22 42.5 137.25 0 109.03 5.67 141.34 49.67 162.72"/><polygon class="cls-1" points="30 81 42.5 137.25 0 109.03 30 81"/><polygon class="cls-12" points="30 81 67.75 62.83 124.1 51.01 240.36 76.87 222.96 90.21 211.46 85.86 155 103.42 145.66 111 105.5 118.81 30 81"/><polygon class="cls-13" points="30 81 42.5 137.25 105.5 118.81 30 81"/><polygon class="cls-1" points="240.36 101.86 105.5 118.81 142.82 132.11 195.1 118.81 216.09 118.86 254.13 113.8 240.36 101.86"/><polygon class="cls-13" points="240.36 76.87 105.5 118.81 240.36 101.86 240.36 76.87"/><polygon class="cls-1" points="240.36 76.87 180.83 35.12 212.62 70.7 240.36 76.87"/><polygon class="cls-13" points="176.19 19.5 124.1 51.01 148.51 58.03 180.83 35.12 176.19 19.5"/><polygon class="cls-2" points="85.5 27 124.1 51.01 38 55 85.5 27"/><polygon class="cls-13" points="30 81 38 55 124.1 51.01 30 81"/><polygon class="cls-8" points="93.5 0 124.1 51.01 85.5 27 93.5 0"/><polygon class="cls-2" points="176.19 19.5 109.7 27 93.5 0 135.5 0 176.19 19.5"/><polygon class="cls-6" points="109.7 27 124.1 51.01 176.19 19.5 109.7 27"/><polygon class="cls-12" points="107.5 169.18 107.5 176.63 103.56 184.09 85.44 171.58 107.5 169.18"/><polygon class="cls-8" points="107.5 169.18 89.44 237.5 100.5 245.03 120.67 245.03 138.52 159.88 107.5 169.18"/><polygon class="cls-10" points="138.52 159.88 152.79 150.34 155.48 154.97 142.59 183.24 139.13 172.98 138.52 159.88"/><polygon class="cls-8" points="142.59 183.24 148.46 171.58 155.48 154.97 138.52 159.88 142.59 183.24"/><polygon class="cls-10" points="56.87 159.88 90.52 184.35 76.94 185.21 49.67 162.72 56.87 159.88"/><polygon class="cls-10" points="119.72 165.52 100.5 245.03 89.44 237.5 107.5 169.18 119.72 165.52"/><polygon class="cls-8" points="119.72 165.52 114.68 145.81 98.33 143.58 107.5 169.18 119.72 165.52"/><polygon class="cls-10" points="291.35 95.35 266.33 104.51 275.71 132.11 334.48 150.57 345.49 125.67 353.33 107.95 291.35 95.35"/><polygon class="cls-7" points="358.89 196.84 341.2 205.58 379.81 210.75 413.8 203.88 397.14 197.09 358.89 196.84"/><polygon class="cls-8" points="391.25 147.22 402.01 162.72 390.65 200.15 357.6 200.41 370.85 163.87 361.66 143.58 375.91 139.6 391.25 147.22"/><polygon class="cls-9" points="397.72 156.53 402.01 162.72 413.8 150 407.38 149.21 397.72 156.53"/><polygon class="cls-9" points="399.09 156.75 407.66 150.25 411.74 150.75 402.13 161.13 399.09 156.75"/><polygon class="cls-11" points="413.8 150 461.51 141.08 475.51 116.34 444.34 116.34 414.51 132.31 375.91 120.29 345.49 125.67 334.48 150.57 361.66 143.58 413.8 150"/><polygon class="cls-1" points="414.51 132.31 385.18 107.95 463.18 104.97 475.51 116.34 414.51 132.31"/><polygon class="cls-13" points="353.33 107.95 385.18 107.95 414.51 132.31 345.49 125.67 353.33 107.95"/><polygon class="cls-13" points="458.18 86.65 420.51 68.73 399 63 373.51 65 369.5 85.48 385.18 107.95 463.18 104.97 458.18 86.65"/><polygon class="cls-1" points="412.85 51.01 372.18 65 420.51 68.73 412.85 51.01"/><polygon class="cls-13" points="333.84 45.33 372.18 65 341.97 69.5 324.68 61.97 333.84 45.33"/><polygon class="cls-1" points="289.87 70.36 317.13 80.54 373.51 65 324.68 61.97 289.87 70.36"/><polygon class="cls-12" points="317.13 80.54 353.33 107.95 385.18 107.95 373.51 65 317.13 80.54"/><polygon class="cls-8" points="289.87 70.36 285.1 90.21 298.51 88.1 317.13 80.54 289.87 70.36"/><polygon class="cls-2" points="378.58 36.67 333.84 45.33 372.18 65 412.85 51.01 378.58 36.67"/><polygon class="cls-8" points="413.8 150 402.01 162.72 397.72 156.53 407.38 149.21 413.8 150"/><polygon class="cls-10" points="370.85 163.87 360.35 159.88 350.55 146.44 343.6 148.22 355.1 162.72 368.78 169.57 370.85 163.87"/><polygon class="cls-8" points="360.35 159.88 352.85 159.88 355.1 162.72 369.85 167.17 370.85 163.87 360.35 159.88"/><polygon class="cls-8" points="360.35 159.88 343.6 148.22 350.55 146.44 360.35 159.88"/><polygon class="cls-10" points="370.85 163.87 402.01 162.72 391.25 147.22 370.85 163.87"/><polygon class="cls-10" points="373.61 145.05 379.28 156.99 370.85 163.87 361.66 143.58 373.61 145.05"/><polygon class="cls-10" points="407.38 149.21 402.01 162.72 413.8 150 407.38 149.21"/><polygon class="cls-10" points="402.01 162.72 380.51 205.33 366.78 205.33 357.6 200.41 370.85 163.87 402.01 162.72"/><polygon class="cls-10" points="389.44 181.53 396 183.66 396.51 201.5 380.51 205.33 389.44 181.53"/><polygon class="cls-1" points="266.33 104.51 300.03 118.81 291.35 95.35 285.1 90.21 266.33 104.51"/><polygon class="cls-8" points="389.44 181.53 380.51 205.33 366.78 205.33 379.28 156.99 382.63 150.57 391.25 147.22 389.44 181.53"/></g><g id="character_copy" data-name="character copy"><polygon class="cls-14" points="419.99 296.94 424.85 326.19 410.62 306.06 389.44 295.84 419.99 296.94"/><polygon class="cls-14" points="456.45 289.65 434.01 284.96 419.99 296.94 424.85 326.19 433.68 298.89 439.91 293.03 456.45 289.65"/><polygon class="cls-14" points="461.61 304.67 447.06 296.94 433.68 298.89 424.85 326.19 441.58 305.01 461.61 304.67"/><polygon class="cls-15" points="419.99 296.94 410.62 306.06 424.85 326.19 419.99 296.94"/><path class="cls-16" d="M402.28,322.2l23-.9,22.92,2.37s-22,6.08-22.31,5.82S402.28,322.2,402.28,322.2Z"/><polygon class="cls-15" points="410.16 312.54 419.47 324.29 423.81 326.19 416.96 315.02 410.16 312.54"/><polygon class="cls-14" points="410.62 306.06 416.96 315.02 389.44 317.07 410.62 306.06"/><polygon class="cls-15" points="419.99 296.94 433.68 298.89 439.91 293.03 434.01 284.96 419.99 296.94"/><polygon class="cls-15" points="433.68 298.89 441.58 305.01 424.85 326.19 433.68 298.89"/><polygon class="cls-17" points="433.68 298.89 424.85 326.19 419.99 296.94 433.68 298.89"/><polygon class="cls-14" points="416.96 315.02 434.92 307.79 449.16 321.3 416.96 315.02"/><polygon class="cls-17" points="416.96 315.02 423.81 326.19 427.49 326.19 431.44 317.85 416.96 315.02"/><polygon class="cls-14" points="637.36 260.85 634.89 279.18 642.13 266.56 648.85 262.57 637.36 260.85"/><polygon class="cls-14" points="630.39 252.66 637.21 255.72 637.36 260.85 634.89 279.18 630.39 262.07 627.22 258.4 630.39 252.66"/><polygon class="cls-14" points="616.17 265.69 623.58 260.85 630.39 262.07 634.89 279.18 626.37 265.91 616.17 265.69"/><polygon class="cls-15" points="637.36 260.85 642.13 266.56 634.89 279.18 637.36 260.85"/><polygon class="cls-16" points="646.38 276.68 634.67 276.11 623 277.6 634.5 280.5 646.38 276.68"/><polygon class="cls-15" points="642.37 270.62 637.63 277.98 635.42 279.18 638.9 272.18 642.37 270.62"/><polygon class="cls-14" points="642.13 266.56 638.9 272.18 652.91 273.46 642.13 266.56"/><polygon class="cls-15" points="637.36 260.85 630.39 262.07 627.22 258.4 637.21 255.72 637.36 260.85"/><polygon class="cls-15" points="630.39 262.07 626.37 265.91 634.89 279.18 630.39 262.07"/><polygon class="cls-17" points="630.39 262.07 634.89 279.18 637.36 260.85 630.39 262.07"/><polygon class="cls-14" points="638.9 272.18 626.37 265.91 622.52 276.11 638.9 272.18"/><polygon class="cls-17" points="638.9 272.18 635.42 279.18 633.54 279.18 631.53 273.95 638.9 272.18"/><polygon class="cls-1" points="427.51 34.16 460.2 29.6 490.44 31.15 513.02 31.15 537.76 31.15 508.6 45.75 484.99 43.56 451.96 41.77 427.51 34.16"/><polygon class="cls-2" points="490.44 35.61 504.17 38.19 537.76 31.15 517.45 26.64 490.44 31.15 456.18 24.76 427.51 34.16 460.79 36.58 490.44 35.61"/><polygon class="cls-1" points="203.41 19.88 247.19 15.32 287.68 16.87 317.92 16.87 351.05 16.87 311.99 31.47 280.38 29.28 236.15 27.49 203.41 19.88"/><polygon class="cls-2" points="287.68 21.33 306.07 23.91 351.05 16.87 323.85 12.36 287.68 16.87 241.8 10.48 203.41 19.88 247.97 22.3 287.68 21.33"/><polygon class="cls-14" points="726.35 309.74 716.67 291.58 703.42 297.05 712.36 299.67 725.45 315.29 726.35 309.74"/><polygon class="cls-14" points="719.23 307.88 711.91 303.43 696.91 311.07 711.91 311.07 719.36 311.72 725.45 315.29 719.23 307.88"/><polygon class="cls-14" points="723.18 305.62 724.29 298.93 735.42 307.01 728.39 304.99 727.18 311.63 723.18 305.62"/><polygon class="cls-17" points="724.29 298.93 728.39 304.99 729.39 313.4 723.37 304.44 724.29 298.93"/><polygon class="cls-15" points="716.67 291.58 712.36 299.67 725.45 315.29 729.39 312.42 716.67 291.58"/><polygon class="cls-17" points="711.91 303.43 711.91 311.07 722.14 315.23 725.45 315.29 718.68 307.21 711.91 303.43"/><polygon class="cls-5" points="711.41 318.73 729.39 313.4 762.76 312.73 739.32 319.25 711.41 318.73"/><polygon class="cls-16" points="523.91 262.19 531.25 259.41 541.88 261.51 532.5 264.25 523.91 262.19"/><polygon class="cls-14" points="525.09 241.42 527.6 248.68 522.8 247.25 510.68 244.76 525.09 241.42"/><polygon class="cls-14" points="546.18 240.29 532.86 243.52 535.42 253.84 538.79 248.21 546.18 240.29"/><polygon class="cls-15" points="525.09 241.42 522.8 247.25 533.77 259.41 531.51 246.92 525.09 241.42"/><polygon class="cls-15" points="524.45 251.74 529.32 261.45 532.5 262.19 528.75 253.84 524.45 251.74"/><polygon class="cls-14" points="522.8 247.25 528.75 253.84 512.06 256.96 522.8 247.25"/><polygon class="cls-17" points="532.86 243.52 539.49 247.94 536.15 255.72 528.75 253.84 532.86 243.52"/><polygon class="cls-14" points="528.75 253.84 539.49 247.94 552.51 256.96 528.75 253.84"/><polygon class="cls-17" points="528.75 253.84 532.5 262.19 534.98 262.05 537.5 254.99 528.75 253.84"/><polygon class="cls-15" points="818.47 39.61 810.48 30.5 806.44 33.75 801.63 30.5 791.86 35.05 799.41 33.75 802.8 37.53 794.73 43.52 807.36 39.74 814.78 40.91 811.91 37.01 818.47 39.61"/><polygon class="cls-15" points="823.37 43.52 831.31 39.74 835.02 41.63 840.56 38.83 847.98 45.6 840.69 43.52 833.53 46.49 830.79 43.52 823.37 43.52"/><polygon class="cls-18" points="533.3 333.2 507.49 336.68 486.72 329.45 503.28 313.59 524.13 313.59 535.95 292.12 552.18 289.95 562.49 293.67 563.51 300.66 574.3 287.59 596.09 287.59 614.75 291.95 615.4 304.56 630.9 320.97 635.07 317.08 644.89 316.27 646.94 319.51 651.62 333.53 632.62 332.92 632.74 332.06 630.27 333.07 616.87 336.74 582.91 342.64 533.3 333.2"/><polygon class="cls-19" points="563.8 292.6 564.48 297.2 560.94 315.43 540.16 313.08 546.09 294.55 563.8 292.6"/><polygon class="cls-20" points="502.78 312.13 513.2 318.73 507.29 338.17 482.64 330.36 502.78 312.13"/><polygon class="cls-5" points="523.26 312.13 530.9 316.3 513.2 318.73 502.78 312.13 523.26 312.13"/><polygon class="cls-19" points="530.9 316.3 534.35 334.53 507.29 338.17 513.2 318.73 530.9 316.3"/><polygon class="cls-20" points="535.02 290.78 546.09 294.55 533.25 334.68 530.9 316.3 523.26 312.13 535.02 290.78"/><polygon class="cls-5" points="552.34 288.45 535.02 290.78 546.09 294.55 563.8 292.6 552.34 288.45"/><polygon class="cls-5" points="573.61 286.13 596.09 286.13 616.14 290.78 585.59 290.78 573.61 286.13"/><polygon class="cls-20" points="585.59 290.78 582.81 344.11 533.25 334.68 530.9 316.3 555.88 307.61 573.61 286.13 585.59 290.78"/><polygon class="cls-19" points="616.14 290.78 617.28 338.17 582.81 344.11 585.59 290.78 616.14 290.78"/><polygon class="cls-5" points="632.84 303.1 616.65 312.13 616.43 302.63 632.84 303.1"/><polygon class="cls-20" points="630.9 334.68 617.28 338.17 616.65 312.13 632.84 303.1 634.8 315.48 630.9 334.68"/><polygon class="cls-5" points="648.18 318.73 630.9 320.97 634.8 315.48 645.7 315.48 648.18 318.73"/><polygon class="cls-21" points="523.26 312.13 530.9 316.3 513.2 318.73 502.78 312.13 523.26 312.13"/><polygon class="cls-21" points="552.34 288.45 535.02 290.78 546.09 294.55 563.8 292.6 552.34 288.45"/><polygon class="cls-21" points="573.61 286.13 596.09 286.13 616.14 290.78 585.59 290.78 573.61 286.13"/><polygon class="cls-21" points="632.84 303.1 616.65 312.13 616.43 302.63 632.84 303.1"/><polygon class="cls-21" points="648.18 318.73 630.9 320.97 634.8 315.48 645.7 315.48 648.18 318.73"/><polygon class="cls-19" points="653.58 334.68 630.9 334.68 630.9 320.97 648.18 318.73 653.58 334.68"/><polygon class="cls-5" points="865.67 274.87 792 274.87 778.4 283.06 765.46 300.8 873.18 312.73 889.71 291.3 865.67 274.87"/><polygon class="cls-20" points="873.18 312.73 868.1 338.18 756.21 326.71 762.76 312.73 765.46 300.32 873.18 312.73"/><polygon class="cls-19" points="889.71 291.3 900 331.58 868.1 338.18 873.18 312.73 889.71 291.3"/><polygon class="cls-19" points="740.83 339.78 739.32 319.25 762.76 312.73 767.68 327.23 740.83 339.78"/><polygon class="cls-20" points="739.32 319.25 711.41 318.73 697.36 334.68 740.83 339.78 739.32 319.25"/><polygon class="cls-16" points="363.48 282.88 304.89 272.55 252.82 278.82 183.74 269.27 118.22 282.9 181.3 298.42 262.77 286.01 330.45 294.55 363.48 282.88"/><polygon class="cls-14" points="203.63 137.53 212.44 140.48 216.61 175.02 232.49 193.47 226.76 200.83 205.65 183.24 203.63 137.53"/><polygon class="cls-22" points="216.61 175.02 205.65 183.24 217.55 193.16 225.77 185.67 216.61 175.02"/><polygon class="cls-23" points="228.36 188.68 221.38 196.34 217.55 193.16 225.77 185.67 228.36 188.68"/><polygon class="cls-24" points="232.49 193.47 226.76 200.83 221.38 196.34 228.36 188.68 232.49 193.47"/><polygon class="cls-15" points="144.91 136.8 171.13 134.25 169.1 149.39 156.88 157.36 144.91 136.8"/><polygon class="cls-25" points="162.86 137.53 154.17 136.52 141.78 131.7 163.11 121.61 200.41 125.36 196.5 140.48 162.86 137.53"/><polygon class="cls-26" points="208.51 220.57 214.8 240.1 201.9 243.62 195.3 241.49 181.72 220.41 200.29 195.03 208.51 220.57"/><polygon class="cls-22" points="141.78 131.7 164.37 133.83 163.01 138.25 144.91 136.8 141.78 131.7"/><polygon class="cls-27" points="173.79 136.57 169.37 139.91 148.46 171.58 161.83 175.88 168.64 165.68 174.4 183.25 169.01 193.84 168.43 244.21 181.17 246.08 200.29 195.03 203.35 163.95 204.37 136.52 196.5 140.48 192.98 134.44 192.52 139.96 183.33 137.4 173.79 136.57"/><path class="cls-28" d="M182.69,143c.71.33,19-3.58,19-3.58l-2.62,14.07-15-3.73Z"/><polygon class="cls-14" points="164.37 133.83 162.86 137.53 168.64 165.68 174.4 183.25 205.65 183.24 210.36 162.72 204.37 136.52 195.1 149.14 164.37 133.83"/><polygon class="cls-17" points="169.01 193.84 162.19 205.67 168.4 244.03 177.66 247.33 185.73 242.39 200.29 195.03 169.01 193.84"/><polygon class="cls-22" points="191.72 183.25 205.65 183.24 214.97 162.72 204.37 136.52 195.1 149.14 198.27 163.78 191.72 183.24 191.72 183.25"/><polygon class="cls-22" points="168.64 165.68 174.4 183.25 205.65 183.24 214.97 162.72 168.64 165.68"/><polygon class="cls-25" points="191.72 183.25 205.65 183.24 214.97 162.72 198.27 163.78 191.72 183.24 191.72 183.25"/><polygon class="cls-25" points="185.73 242.39 177.66 268.63 172.02 271.94 166.64 268.63 168.4 244.03 185.73 242.39"/><polygon class="cls-15" points="172.72 243.62 175.79 243.33 169 268.63 166.64 268.63 172.72 243.62"/><polygon class="cls-27" points="177.66 268.63 175.41 275.95 166.1 275.95 166.64 268.63 177.66 268.63"/><polygon class="cls-27" points="154.77 202.18 145.66 200.83 141.78 210.47 144.56 220.62 153.93 221.98 154.94 210.73 154.77 202.18"/><polygon class="cls-14" points="206.08 243.25 206.08 243.25 192.48 205.57 194.67 202.61 208.71 242.3 206.08 243.25"/><polygon class="cls-26" points="212.65 275.08 229.13 284.72 229.17 288.1 204.36 288.42 202.94 276.2 212.65 275.08"/><polygon class="cls-25" points="220.77 279.83 219.21 278.91 217.1 281.95 218.5 282.79 220.77 279.83"/><polygon class="cls-25" points="217.1 277.68 215.45 276.71 213.15 280.09 214.55 280.93 217.1 277.68"/><polygon class="cls-15" points="229.13 284.72 229.13 284.72 229.17 288.1 204.36 288.42 204.06 285.83 229.13 284.72"/><polygon class="cls-25" points="214.8 240.1 213.15 266.9 207.17 272.45 201.9 266.85 195.3 241.49 214.8 240.1"/><polygon class="cls-15" points="205.05 240.79 208.1 240.58 208.71 266.88 206.75 266.87 205.05 240.79"/><polygon class="cls-27" points="213.15 266.9 212.65 275.08 202.95 276.37 201.9 266.85 213.15 266.9"/><polygon class="cls-23" points="175.79 243.33 180.22 194.27 176.81 194.14 172.72 243.62 175.79 243.33"/><polygon class="cls-14" points="148.46 171.58 145.66 200.83 154.77 202.18 161.83 175.88 148.46 171.58"/><polygon class="cls-24" points="146.36 193.55 145.66 200.83 154.77 202.18 156.25 196.69 146.36 193.55"/><polygon class="cls-15" points="185.18 288.42 185.18 291.56 171.17 291.51 165.37 288.05 165.54 285.13 170.99 288.46 185.18 288.42"/><polygon class="cls-26" points="175.41 275.95 185.18 288.42 170.99 288.46 165.54 285.13 166.11 275.78 175.41 275.95"/><path class="cls-25" d="M179.91,281.75l1.23,1.51h-6.58l-1.14-1.13Zm-2.39-3.1,1.22,1.55-6.35.3L171,279.08Z"/><polygon class="cls-23" points="169.01 193.84 200.09 195.02 200.29 195.03 202.03 191.19 205.65 183.24 204.17 183.24 194.41 183.24 174.4 183.25 169.01 193.84"/><polygon class="cls-14" points="187.6 194.55 200.09 195.02 200.29 195.03 202.03 191.19 205.65 183.24 204.17 183.24 194.41 183.24 191.72 183.24 187.57 194.55 187.6 194.55"/><polygon class="cls-22" points="161.83 175.88 168.64 165.68 162.86 137.53 148.46 171.58 161.83 175.88"/><polygon class="cls-23" points="166.73 128.07 195.1 149.14 164.37 133.83 166.73 128.07"/><polygon class="cls-15" points="200.41 125.36 196.5 140.48 195.1 149.14 204.37 136.52 200.41 125.36"/><polygon class="cls-25" points="193.53 217.01 176.81 194.14 200.29 195.03 193.53 217.01"/><polygon class="cls-14" points="162.19 205.67 170.99 205.67 169.27 217.83 164.56 220.3 162.19 205.67"/><polygon class="cls-29" points="207.38 90.21 217.55 52.34 207.7 49.5 200.04 62.16 207.38 90.21"/><polygon class="cls-30" points="200.41 52.34 208.96 66.36 216.09 118.86 172.17 123.86 162.86 58.03 200.41 52.34"/><path class="cls-31" d="M206.87,51l2,15.36-31.18,10.5s-4.86-14.9-4.39-15.49c.54-.74.68-2.57,1.74-5.19l31.81-5Z"/><polygon class="cls-32" points="133.52 65.64 131.18 70.04 125.63 122.21 126.19 129.18 148.88 82.51 133.52 65.64"/><polygon class="cls-33" points="133.52 65.64 114.68 81 126 128.67 133.52 65.64"/><polygon class="cls-34" points="166.48 130.69 148.88 83.33 162.86 58.03 173.86 124.55 188.99 132.02 190.15 141.74 185.09 142.69 166.48 130.69"/><polygon class="cls-31" points="161.85 118.22 158.87 110.02 164.19 109.38 161.85 118.22"/><polygon class="cls-31" points="159.84 112.9 157.36 106.21 165.16 103 159.84 112.9"/><polygon class="cls-31" points="196.01 121.15 173.68 123.68 170.52 124.18 190.15 141.74 196.5 140.48 196.01 121.15"/><polygon class="cls-35" points="138.52 73.2 132.47 73.2 131.69 81 142.82 80.54 138.52 73.2"/><polygon class="cls-33" points="148.51 58.03 142.55 60.14 138.52 73.2 149.2 91.86 160.88 93.4 165.16 91.86 160.16 63.03 148.51 58.03"/><polygon class="cls-34" points="195.69 95.35 179.69 82.51 167.85 78.89 186.01 77.05 196.19 75.04 200.73 72.52 209.53 73.8 204.08 80.03 200.41 94.52 198.02 96.17 195.69 95.35"/><polygon class="cls-36" points="196.19 75.04 200.41 94.52 195.69 95.35 187.85 75.5 196.19 75.04"/><polygon class="cls-31" points="198.53 97.82 200.41 94.52 195.69 95.35 198.53 97.82"/><polygon class="cls-35" points="207.51 105.2 195.41 101.86 180.15 103.18 192.16 116.66 207.51 105.2"/><polygon class="cls-37" points="203.21 105.89 183.03 104.51 186.38 108 199.54 109.05 203.21 105.89"/><polygon class="cls-32" points="209.53 73.8 200.87 70.36 196.19 75.04 209.53 73.8"/><polygon class="cls-30" points="159.48 87.64 149.2 91.86 157.54 106.67 165.16 103 159.48 87.64"/><polygon class="cls-31" points="160.34 96.86 159.09 91.78 153.42 93.4 160.34 96.86"/><path class="cls-35" d="M157.18,100.89l7.19,8.49-6.51,8.84-7.15-9.35,6.28-8Zm4.21,8.76-3.66,4-3.85-3.85,3.66-4.63h0Z"/><polygon class="cls-38" points="217.55 52.34 207.06 33.5 198.53 35.15 152.87 53.99 148.51 58.03 155.85 61.97 210.91 56.51 217.55 52.34"/><polygon class="cls-33" points="207.06 33.5 155.85 36.66 148.51 58.03 207.06 33.5"/><polygon class="cls-39" points="188.85 78.2 217.55 52.34 148.51 58.03 142.82 80.54 188.85 78.2"/><path class="cls-32" d="M200.22,82.22a2.82,2.82,0,0,0,5.64,0,2.82,2.82,0,1,0-5.64,0"/><path class="cls-32" d="M180.83,85.7a2.86,2.86,0,0,0,2.88,2.84,2.82,2.82,0,0,0,0-5.64,2.86,2.86,0,0,0-2.88,2.8"/><polygon class="cls-23" points="146.3 194.14 156.25 196.69 157.18 193.22 146.67 190.26 146.3 194.14"/><polygon class="cls-24" points="141.78 210.47 154.94 210.73 153.93 221.98 143.76 220.3 141.78 210.47"/><polygon class="cls-24" points="154.77 202.18 154.94 210.73 159.94 215.05 161.13 212.31 154.77 202.18"/><polygon class="cls-24" points="232.95 201.91 234.97 212.7 231.36 214.39 226.76 200.83 232.95 201.91"/><polygon class="cls-27" points="232.49 193.47 242.31 196.28 233.7 205.91 226.76 200.83 232.49 193.47"/><polygon class="cls-40" points="253.49 206.89 247.02 210.33 245.44 205.63 245.38 201.69 252.82 203.15 253.49 206.89"/><polygon class="cls-14" points="297.02 171.58 287.27 218.56 310.18 225.85 338.83 224.11 347.86 165.52 339.26 162.72 316.61 175.02 308.53 167.08 297.02 171.58"/><polygon class="cls-22" points="371.81 172.98 360.7 192.34 344 190.57 347.86 165.52 371.81 172.98"/><polygon class="cls-24" points="393.17 170.72 389.44 181.53 360.7 192.34 371.81 172.98 393.17 170.72"/><polygon class="cls-27" points="399 176.75 407.23 176.88 407.55 179.23 396 183.66 389.44 181.53 399 176.75"/><polygon class="cls-24" points="393.17 170.72 412.17 162.72 411.69 166.81 404.38 170.64 399 176.75 389.44 181.53 393.17 170.72"/><polygon class="cls-40" points="404.38 170.64 407.88 172.12 407.23 176.88 399 176.75 404.38 170.64"/><polygon class="cls-22" points="297.02 171.58 274.42 192.08 289.3 208.75 297.02 171.58"/><polygon class="cls-27" points="274.42 192.08 251.63 198.72 253.49 206.89 289.3 208.75 274.42 192.08"/><polygon class="cls-22" points="251.63 198.72 253.49 206.89 256.63 207.05 255.46 197.6 251.63 198.72"/><polygon class="cls-27" points="282.49 147.81 318.43 159.88 334.83 109.26 309.83 104.97 291.35 95.35 282.49 147.81"/><polygon class="cls-24" points="334.83 109.26 356.66 123.37 339.26 162.72 316.61 175.02 318.43 159.88 334.83 109.26"/><polygon class="cls-40" points="306.26 155.79 326.15 162.65 316.61 175.02 308.53 167.08 306.26 155.79"/><polygon class="cls-41" points="291.35 95.35 309.83 104.97 334.83 109.26 334.83 136.61 339.26 137.52 341.61 132.31 351.36 135.37 363.48 107.95 354.89 88.1 317.13 80.54 298.12 91.5 291.35 95.35"/><polygon class="cls-42" points="317.13 80.54 309.83 104.97 291.35 95.35 285.1 90.21 317.13 80.54"/><polygon class="cls-18" points="334.83 109.26 354.89 88.1 363.48 107.95 334.83 109.26"/><polygon class="cls-42" points="339.26 137.52 334.83 136.61 334.83 109.26 363.48 107.95 351.36 135.37 341.61 132.31 339.26 137.52"/><polygon class="cls-27" points="351.36 135.37 341.61 132.31 337.44 143.58 346.5 146.35 351.36 135.37"/><polygon class="cls-40" points="337.44 143.58 344.63 150.57 346.5 146.35 337.44 143.58"/><polygon class="cls-40" points="341.97 139.6 343.43 135.37 347.86 136.68 341.97 139.6"/><polygon class="cls-43" points="300.03 118.81 300.03 114.82 291.43 114.21 300.03 118.81"/><polygon class="cls-43" points="304.89 120.29 308.66 116.04 317.13 120.29 304.89 120.29"/><polygon class="cls-44" points="300.03 118.81 298.12 129.84 302.54 131.05 304.89 120.29 300.03 118.81"/><polygon class="cls-40" points="298.12 129.84 299.68 133.16 302.54 131.05 298.12 129.84"/><polygon class="cls-24" points="317.13 120.29 311.01 124.93 302.54 131.05 304.89 120.29 317.13 120.29"/><polygon class="cls-24" points="291.43 114.21 294.41 120.29 298.12 129.84 300.03 118.81 291.43 114.21"/><polygon class="cls-40" points="291.8 136.02 298.44 141.1 309.38 139.67 309.38 141.36 298.12 142.53 291.43 137.52 291.8 136.02"/><path class="cls-43" d="M313,125.71a2.38,2.38,0,1,1-2.38-2.38A2.37,2.37,0,0,1,313,125.71Z"/><path class="cls-43" d="M296.19,123a2.38,2.38,0,1,1-2.38-2.38A2.39,2.39,0,0,1,296.19,123Z"/><polygon class="cls-25" points="338.83 224.11 327.57 238.17 311.66 245.03 295.77 237.48 287.27 218.56 310.18 225.85 338.83 224.11"/><polygon class="cls-17" points="311.66 245.03 299.07 264.22 272.86 250.33 287.27 218.56 311.66 245.03"/><polygon class="cls-26" points="338.83 224.11 311.66 245.03 322.86 265.95 349.25 252.58 338.83 224.11"/><polygon class="cls-24" points="341.71 260.44 341.08 270.98 330.84 272.55 327.57 263.57 337.76 259.92 341.71 260.44"/><polygon class="cls-15" points="341.08 270.98 349.42 283 327.57 283 330.84 272.55 341.08 270.98"/><rect class="cls-45" x="327.57" y="283" width="21.85" height="3.83"/><rect class="cls-45" x="261.23" y="278.1" width="22.74" height="3.83"/><polygon class="cls-24" points="291.78 260.35 283.97 270.98 274.85 264.8 278.8 256.27 281.97 256.27 291.78 260.35"/><polygon class="cls-15" points="283.97 270.98 283.97 278.1 261.23 278.1 274.85 264.8 283.97 270.98"/><polygon class="cls-40" points="291.78 260.35 278.13 257.74 279.84 254.03 291.78 260.35"/><polygon class="cls-40" points="327.57 263.57 341.71 260.44 341.95 256.27 327.57 263.57"/><polygon class="cls-34" points="233.7 205.91 240.5 213.69 247.02 210.33 242.31 196.28 233.7 205.91"/><polygon class="cls-27" points="252.82 203.94 251.63 198.72 241.32 196 240.88 205.63 245.44 205.63 245.38 201.69 247.49 204.44 252.82 203.94"/><polygon class="cls-22" points="391.42 170.91 389.44 181.53 386.06 182.8 386.99 171.38 391.42 170.91"/><polygon class="cls-3" points="765.46 300.32 873.18 312.73 889.71 291.3 765.46 300.32"/></g><g id="temple_copy" data-name="temple copy"><polygon class="cls-46" points="597.67 40 597.67 58.94 619.75 68.73 665 50.82 670.88 39.76 665.8 18.32 638.83 20 597.67 40"/><polygon class="cls-35" points="719.71 39.76 693.16 18.32 665.8 18.32 665 50.82 686.5 58.67 720.32 56.11 719.71 39.76"/><polygon class="cls-14" points="680 12.5 666.25 0 597.67 29.25 597.67 40 665.8 18.32 680 12.5"/><polygon class="cls-47" points="719.71 39.76 719.28 28.25 666.25 0 665.8 18.32 719.71 39.76"/><polygon class="cls-20" points="885 207.31 871.07 194.86 868.33 182.41 856.62 182.66 842.5 171 848.33 158.94 828.62 157.98 817.5 145 813.66 129.06 798.99 127.38 778.5 109 787 94.73 770.98 92.97 757 76.5 757.66 61.33 698.5 68.73 665 50.82 597.67 68.73 555.66 64 557.5 77.5 542.75 86.65 527 87.33 531.2 102.5 510.5 116.34 497 116.72 504 131 485.67 141.08 471.67 141.08 475.5 155.3 457.07 166.6 447 165.63 450 175 423 190.67 444.82 186.67 454.49 195.96 451.13 204.75 437 213.33 492.33 202 510.5 228 538.87 210.14 562.75 214.15 665 225.54 752.31 221.8 813.67 245.33 832.5 216 881 227.67 864.41 209.55 885 207.31"/><polygon class="cls-13" points="447 165.63 423 190.67 665 231.33 665 186.67 447 165.63"/><polygon class="cls-13" points="868.33 182.41 665 186.67 665 231.33 885 207.31 868.33 182.41"/><polygon class="cls-8" points="471.67 141.08 457.07 166.6 665 186.67 665 150 471.67 141.08"/><polygon class="cls-8" points="848.33 158.94 665 150 665 186.67 856.62 182.66 848.33 158.94"/><polygon class="cls-13" points="813.66 129.06 798.99 127.38 665 112 665 150 828.62 157.98 813.66 129.06"/><polygon class="cls-13" points="510.5 116.34 497 116.72 485.67 141.08 665 150 665 112 510.5 116.34"/><polygon class="cls-8" points="798.99 127.38 787 94.73 665 81.33 665 112 798.99 127.38"/><polygon class="cls-8" points="665 81.33 527 87.33 510.5 116.34 665 112 665 81.33"/><polygon class="cls-13" points="555.66 64 542.75 86.65 665 81.33 665 50.82 637.5 54.14 603.88 64.17 591.71 59.66 555.66 64"/><polygon class="cls-13" points="757.66 61.33 665 50.82 665 81.33 770.98 92.97 757.66 61.33"/><polygon class="cls-3" points="591.71 59.66 437 213.33 444.82 214.9 492.67 195.67 498.16 225.54 510.5 228 626.19 55.5 617.57 56.54 602.38 60.75 597.67 58.94 591.71 59.66"/><polygon class="cls-18" points="510.5 228 562.75 214.15 572.89 177.78 583.67 178.82 592.28 146.38 604.76 147 610.16 113.54 619.83 113.27 626.19 83.02 630.33 82.84 635.68 54.68 626.19 55.5 510.5 228"/><polygon class="cls-20" points="597.67 58.94 444.82 214.89 498.16 225.54 617.57 56.54 597.67 58.94"/><polygon class="cls-48" points="688.85 83.95 687.35 53.36 665 50.82 665 81.33 688.85 83.95"/><polygon class="cls-48" points="723.39 87.75 665 81.33 665 112 702.85 116.34 723.39 87.75"/><polygon class="cls-49" points="756.07 122.45 665 112 665 150 773.57 155.3 756.07 122.45"/><polygon class="cls-49" points="787.08 162.3 769.29 155.09 665 150 665 186.67 785.72 184.14 787.08 162.3"/><path class="cls-49" d="M782.18,184.21,665,186.67v44.66l107.79-11.77C775.18,209.48,779.44,194,782.18,184.21Z"/><polygon class="cls-3" points="881 227.67 871.07 230.27 842.33 221 825.71 242.17 813.67 245.33 693.16 53.03 698.5 53.64 714.5 62 720.32 56.11 724.27 56.56 881 227.67"/><polygon class="cls-50" points="813.67 245.33 752.31 221.8 747.68 184.83 736.33 184.83 729.51 153.15 720.75 152.79 710.42 117.21 702.85 116.34 693.46 84.65 688.85 83.95 685.13 53.1 693.16 53.03 813.67 245.33"/><polygon class="cls-20" points="698.5 53.64 825.71 242.17 871.07 230.27 720.32 56.11 698.5 53.64"/><polygon class="cls-25" points="607.6 57.74 607.6 46.32 617.57 43.81 617.57 56.54 607.6 57.74"/><polygon class="cls-51" points="698.5 53.64 698.5 41.73 708.32 44.9 708.32 54.75 698.5 53.64"/></g><g id="goat_copy" data-name="goat copy"><polygon class="cls-16" points="689.87 269.75 736.54 275.32 767.5 270.14 747.36 260.11 709.33 257.51 689.87 269.75"/><polygon class="cls-15" points="661.29 223.95 678.04 239.91 667.99 246.42 661.29 223.95"/><polygon class="cls-14" points="698.87 228.41 661.29 223.95 677.54 240.24 698.87 228.41"/><polygon class="cls-15" points="698.87 228.41 689.68 207.66 661.29 223.95 698.87 228.41"/><polygon class="cls-14" points="679.81 191.37 685.52 206.94 661.29 223.95 679.81 191.37"/><polygon class="cls-17" points="710.31 261.56 715.94 261.56 712.47 239.88 706.41 245.36 710.31 261.56"/><polygon class="cls-15" points="698.87 228.41 715.94 213.44 719.02 227.33 719.51 234.15 704.25 250.47 696.6 249.67 698.87 228.41"/><polygon class="cls-14" points="706.34 270.56 700.42 270.56 696.6 249.67 704.25 250.47 706.34 270.56"/><polygon class="cls-14" points="685.52 206.94 714.29 193.54 715.94 213.44 698.87 228.41 685.52 206.94"/><polygon class="cls-14" points="699.66 171.91 714.29 193.54 697.05 194.88 679.81 191.37 699.66 171.91"/><polygon class="cls-23" points="679.81 191.37 714.29 193.54 661.29 223.95 679.81 191.37"/><polygon class="cls-14" points="761.59 169.5 764.94 179.9 741.13 193.54 714.29 193.54 699.66 171.91 735.56 164.93 761.59 169.5"/><polygon class="cls-17" points="719.02 227.33 735.77 223.88 747.99 216.2 741.13 193.54 714.29 193.54 715.94 213.44 719.02 227.33"/><polygon class="cls-25" points="739.88 232.32 747.36 232.32 750.36 222.63 747.99 216.2 735.77 223.88 739.88 232.32"/><polygon class="cls-17" points="730.65 261.56 739 261.56 747.36 232.32 739.88 232.32 730.65 261.56"/><polygon class="cls-15" points="764.94 179.9 747.99 219.74 741.13 193.54 764.94 179.9"/><polygon class="cls-14" points="765.73 224.93 747.99 219.74 764.94 179.9 771.05 201.14 765.73 224.93"/><polygon class="cls-15" points="754.76 238.55 767.5 237.69 765.73 224.93 747.99 219.74 754.76 238.55"/><polygon class="cls-14" points="750.95 270.56 759.22 270.56 767.5 237.69 754.76 238.55 750.95 270.56"/><polygon class="cls-15" points="761.59 169.5 764.94 179.9 776.9 186.67 763.8 165.75 761.59 169.5"/><polygon class="cls-14" points="776.15 168.72 781.88 183.29 776.73 186.39 763.8 165.75 776.15 168.72"/><polygon class="cls-15" points="699.66 171.91 741.13 193.54 714.29 193.54 699.66 171.91"/><polygon class="cls-52" points="647.94 236.29 671.26 244.3 669.66 253.05 664.92 269.87 660.3 270.14 654.98 270 649.27 250.49 646.12 246.02 647.94 236.29"/><polygon class="cls-45" points="655.94 268.43 654.52 264.74 657.35 265.73 655.94 268.43"/><polygon class="cls-15" points="662.4 241.62 662.37 243.94 655.94 249.24 661.45 250.47 661.97 261.59 663.01 263.38 662.15 265.46 662.23 267.29 661.45 270.14 664.92 269.87 669.66 253.05 671.26 244.3 669.66 243.94 662.4 241.62"/><polygon class="cls-17" points="671.83 259.37 678.04 253.64 668.59 256.86 661.97 261.59 661.63 263.49 662.15 265.46 668.48 265.17 679.52 269.12 671.83 259.37"/><polygon class="cls-45" points="661.45 270.14 659.95 270.13 661.29 267.28 661.29 261.59 661.97 261.59 662.23 267.29 661.45 270.14"/><polygon class="cls-9" points="675.27 237.27 661.29 223.95 651.59 226.44 647.94 236.29 661.94 244.3 681.72 243.74 675.27 237.27"/><path class="cls-35" d="M653.13,247.1a1.59,1.59,0,1,1-1.58-1.59A1.58,1.58,0,0,1,653.13,247.1Z"/><polygon class="cls-45" points="681.72 243.74 675.27 237.27 671.96 234.13 653.13 235.19 647.94 236.29 661.94 244.3 681.72 243.74"/><polygon class="cls-53" points="647.27 239.88 642.83 226.91 646.58 227.92 647.94 226.91 653.13 235.19 653.04 239.21 647.27 239.88"/><polygon class="cls-52" points="642.83 226.91 646.58 227.92 648.66 226.17 648.66 217.34 642.83 226.91"/><polygon class="cls-47" points="642.83 226.91 653.04 239.21 653.13 235.19 648.66 226.17 642.83 226.91"/></g></g></svg>