<svg xmlns="http://www.w3.org/2000/svg" viewBox="0 0 900 350"><defs><style>.cls-1{fill:#a3a3a3;}.cls-2{fill:#858686;}.cls-3{fill:#8f8f8f;}.cls-4{fill:#6f7173;}.cls-28,.cls-5{fill:#2b2b2b;}.cls-5{fill-opacity:0.1;}.cls-6{fill:#c4c4c4;}.cls-7{fill:#fff;}.cls-8{fill:#ececeb;}.cls-9{fill:#dddddc;}.cls-10{fill:#ccad14;}.cls-11{fill:#f2bd68;}.cls-12{fill:#e2a942;}.cls-13{fill:#cececd;}.cls-14{fill:#bc8f2d;}.cls-15{fill:#e5c828;}.cls-16{fill:#dfbda5;}.cls-17{fill:#f4d75d;}.cls-18{fill:#9e7700;}.cls-19{fill:#bf8f00;}.cls-20{fill:#b58b00;}.cls-21{fill:#c3987b;}.cls-22{fill:#c09c84;}.cls-23{fill:#a77e62;}.cls-24{fill:#8b6651;}.cls-25{fill:#474747;}.cls-26{fill:#856400;}.cls-27{fill:#755800;}.cls-29{fill:#e8cab6;}</style></defs><title>explorers_Virtuoso_ISTP_workplace_habits</title><g id="illustration_copy" data-name="illustration copy"><polygon class="cls-1" points="206.36 331.13 202.01 337.12 207.4 341.31 218.19 342.36 224.48 338.47 226.87 334.12 217.74 329.93 206.36 331.13"/><polygon class="cls-2" points="202.01 337.12 203.51 347 210.85 350 212.79 345.81 210.85 340.86 202.01 337.12"/><polygon class="cls-2" points="226.87 334.12 222.83 338.77 221.33 344.16 221.93 348.2 225.52 344.31 226.87 334.12"/><polygon class="cls-3" points="222.83 338.77 210.85 340.86 210.85 350 221.93 348.2 222.83 338.77"/><polygon class="cls-4" points="210.7 333.68 212.05 336.97 218.04 336.37 216.69 333.08 210.7 333.68"/><polygon class="cls-5" points="655.01 285.15 876.79 271.97 684.21 255.5 652.46 264.04 655.01 285.15"/><polygon class="cls-6" points="367.94 76.83 397.74 10.78 445.36 8.84 727.04 20.37 773.91 111.72 883.53 133.89 882.63 248.16 876.79 271.97 684.21 255.5 303.1 216.26 309.98 92.4 367.94 76.83"/><polygon class="cls-7" points="390.85 91.36 363 103.94 466.77 121.46 481.9 96 390.85 91.36"/><polygon class="cls-8" points="475.46 143.92 465.87 110.38 363 103.94 361.95 184.51 466.92 190.5 475.46 143.92"/><polygon class="cls-9" points="481.9 96 465.87 110.38 466.92 190.5 494.48 177.02 490.43 155.31 481.9 96"/><polygon class="cls-5" points="677.77 212.37 659.2 117.86 679.57 107.38 690.95 183.16 720.9 194.99 840.7 221.95 823.48 242.92 795.92 241.72 796.67 265.08 788.74 296.98 775.26 240.97 714.16 238.43 708.02 207.87 677.77 212.37"/><path class="cls-10" d="M40.73,289,27.25,305.82l85.21,27.26,16.48.45,2.54-7.49H118.75L41.93,303.12,47.62,294,87.9,285.3l4.5-6.74ZM138.52,334l11.68.3,2-8.38-11.68.15Zm19.77.6,21,.75L336,299.68,328,281.41l-38.18-2.85-7.64,3.6,41.33,5.24-.75,8.68L179.25,325.74l-19.77.15Z"/><polygon class="cls-1" points="320.17 303.27 334.39 235.58 551.08 272.87 562.76 324.39 546.59 350 320.17 303.27"/><polygon class="cls-3" points="658.75 316.9 546.59 350 551.08 272.87 651.72 256.4 658.75 316.9"/><polygon class="cls-5" points="212.35 318.85 70.68 311.66 63.94 290.39 87.9 285.3 188.69 276.17 290.07 286.35 290.96 302.67 212.35 318.85"/><polygon class="cls-9" points="102.58 209.52 77.72 208.62 85.06 225.69 103.18 227.64 116.36 220.75 102.58 209.52"/><polygon class="cls-6" points="77.72 208.62 116.36 220.75 103.33 201.88 77.72 208.62"/><polygon class="cls-2" points="231.36 294.89 188.09 286.35 183.74 257 246.64 247.71 231.36 294.89"/><polygon class="cls-6" points="290.07 286.35 231.36 294.89 234.51 249.51 288.87 252.2 290.07 286.35"/><polygon class="cls-1" points="87.6 307.77 88.2 260.29 148.7 251.6 137.32 309.56 87.6 307.77"/><polygon class="cls-6" points="190.93 300.43 137.32 309.56 139.57 252.95 189.58 257.44 190.93 300.43"/><polygon class="cls-1" points="203.06 192.6 191.83 203.23 180 225.4 179.25 250.41 189.58 257.44 210.7 248.46 233.91 229.59 229.87 183.16 203.06 192.6"/><polygon class="cls-1" points="125.19 188.1 159.48 188.7 146.46 235.58 109.17 247.86 103.78 235.73 116.36 220.75 125.19 188.1"/><polygon class="cls-6" points="192.58 202.48 155.29 188.7 144.51 227.04 146.46 235.58 179.25 250.41 192.58 202.48"/><polygon class="cls-8" points="144.51 227.04 88.2 260.29 189.58 257.44 144.51 227.04"/><polygon class="cls-6" points="239.9 178.07 225.37 184.81 228.67 233.78 241.4 220.6 239.9 178.07"/><polygon class="cls-9" points="196.02 147.07 160.38 163.24 125.19 188.1 192.58 202.48 239.9 178.07 222.23 159.65 196.02 147.07"/><path class="cls-8" d="M164.73,169.83l1.94,27.11,25.91,5.54,3.89-47.32Zm56.45-1.64-5.39,22.46,24.11-12.58Z"/><polygon class="cls-2" points="82.51 150.51 91.5 160.55 125.19 188.1 114.41 125.8 82.51 150.51"/><polygon class="cls-3" points="139.42 122.21 109.47 131.49 125.19 188.1 174.31 165.49 185.09 165.49 196.47 155.16 166.67 121.16 139.42 122.21"/><polygon class="cls-11" points="334.39 123.26 327.8 145.72 288.72 159.5 253.23 150.81 253.68 135.09 265.51 125.8 310.43 117.42 334.39 123.26"/><polygon class="cls-1" points="298.45 77.88 334.39 123.26 293.81 124.75 274.19 107.53 281.68 91.51 298.45 77.88"/><polygon class="cls-8" points="259.82 88.06 298.45 77.88 283.33 101.69 265.06 112.32 245.89 100.94 259.82 88.06"/><polygon class="cls-3" points="283.33 101.69 253.68 103.19 251.28 117.72 265.51 125.8 293.81 124.75 283.33 101.69"/><polygon class="cls-3" points="225.97 119.81 196.47 155.16 239.9 178.07 265.51 125.8 225.97 119.81"/><polygon class="cls-1" points="194.97 86.27 151.85 87.16 103.03 108.58 99.14 121.61 109.47 131.49 173.71 129.1 205.31 108.13 194.97 86.27"/><polygon class="cls-1" points="253.68 103.19 265.51 125.8 219.68 127.45 195.42 106.48 194.97 86.27 222.23 86.41 253.68 103.19"/><polygon class="cls-11" points="167.27 129.4 188.39 148.12 213.24 127.6 186.89 110.97 167.27 129.4"/><polygon class="cls-12" points="213.09 124.3 206.21 127.9 188.39 148.12 196.47 155.16 224.63 127.3 213.09 124.3"/><polygon class="cls-6" points="93 61.25 80.27 92.7 111.41 89.56 135.22 35.64 93 61.25"/><polygon class="cls-13" points="221.78 36.54 190.78 47.77 135.22 35.64 98.09 90.91 103.03 108.58 152 92.4 194.97 86.27 215.64 91.21 253.68 103.19 259.82 88.06 221.78 36.54"/><polygon class="cls-8" points="135.22 35.64 161.73 75.93 209.8 75.03 221.78 36.54 135.22 35.64"/><polygon class="cls-11" points="137.02 60.95 169.22 59.31 168.92 66.05 138.37 68.29 137.02 60.95"/><polygon class="cls-11" points="199.62 66.35 198.57 59.61 224.78 62.15 223.73 67.84 199.62 66.35"/><polygon class="cls-6" points="69.48 273.92 105.87 259.84 109.17 247.86 94.19 246.81 71.88 252.5 69.48 273.92"/><polygon class="cls-9" points="79.07 239.62 71.28 257.3 109.17 247.86 112.76 234.23 96.44 232.58 79.07 239.62"/><polygon class="cls-6" points="85.06 225.69 79.07 239.62 112.76 234.23 116.36 220.75 85.06 225.69"/><polygon class="cls-3" points="42.98 242.47 51.06 220.6 77.72 208.62 93.89 224.35 69.48 273.92 42.98 242.47"/><polygon class="cls-6" points="53.76 200.98 60.35 225.54 42.98 242.47 26.8 223.9 30.1 185.71 53.76 200.98"/><polygon class="cls-9" points="37.74 197.54 60.35 225.54 77.72 208.62 69.63 195.89 49.87 190.8 37.74 197.54"/><polygon class="cls-1" points="30.1 185.71 40.88 189.9 26.8 223.9 5.09 199.19 30.1 185.71"/><polygon class="cls-11" points="0 135.39 2.25 163.24 42.38 181.66 91.5 160.55 109.47 131.49 69.03 119.66 0 135.39"/><polygon class="cls-6" points="2.25 163.24 91.5 160.55 69.63 195.89 5.09 199.19 2.25 163.24"/><polygon class="cls-6" points="33.24 76.98 0 135.39 73.38 132.69 79.07 118.31 67.99 91.66 33.24 76.98"/><polygon class="cls-8" points="103.03 108.58 95.09 115.62 75.33 109.18 33.24 76.98 98.09 90.91 103.03 108.58"/><polygon class="cls-2" points="75.33 109.18 66.49 132.99 109.47 131.49 103.03 108.58 75.33 109.18"/><polygon class="cls-1" points="283.18 187.21 279.73 199.94 288.87 220.45 303.1 216.26 311.18 196.19 305.34 172.08 283.18 187.21"/><polygon class="cls-9" points="279.73 199.94 302.94 177.77 279.73 174.32 265.96 177.77 261.91 203.23 279.73 199.94"/><polygon class="cls-2" points="311.18 196.19 302.94 177.77 310.88 170.88 318.37 177.77 311.18 196.19"/><polygon class="cls-1" points="253.23 150.81 265.96 177.77 318.37 177.77 327.8 145.72 253.23 150.81"/><polygon class="cls-13" points="241.4 220.6 252.93 228.24 253.38 244.86 234.06 255.2 189.58 257.44 241.4 220.6"/><polygon class="cls-3" points="288.87 252.2 303.1 216.26 279.73 199.94 279.58 224.65 288.87 252.2"/><polygon class="cls-9" points="267.75 208.77 282.88 217.76 285.72 234.08 270.9 240.22 258.17 235.88 252.93 228.24 252.63 217.76 267.75 208.77"/><polygon class="cls-6" points="282.88 217.76 252.63 217.76 252.48 210.87 262.21 201.58 279.73 199.94 282.88 217.76"/><polygon class="cls-6" points="285.72 234.08 258.17 235.88 263.41 243.52 288.87 252.2 285.72 234.08"/><polygon class="cls-8" points="252.93 228.24 234.06 255.2 288.87 252.2 252.93 228.24"/><polygon class="cls-12" points="0.9 146.17 38.34 146.02 37.14 154.86 1.5 153.36 0.9 146.17"/><polygon class="cls-12" points="331.85 131.94 304.29 132.39 305.04 140.63 329.9 138.83 331.85 131.94"/><path class="cls-5" d="M87.9,284.1l18-24.26-17.82,6.89Zm104.68-81.62-3,55-10.33-7Z"/><polygon class="cls-5" points="87.75 289.94 138.07 292.34 190.48 286.8 190.93 300.43 137.32 309.56 87.6 307.77 87.75 289.94"/><polygon class="cls-5" points="190.18 274.52 232.56 278.11 289.47 270.92 290.07 286.35 231.36 294.89 190.48 286.8 190.18 274.52"/><polygon class="cls-6" points="152 92.4 195.27 103.34 215.64 91.21 189.73 83.57 152 92.4"/><polygon class="cls-9" points="152 92.4 161.73 75.93 209.8 75.03 215.64 91.21 152 92.4"/><polygon class="cls-14" points="186.89 110.97 206.21 127.9 224.63 127.3 195.27 103.34 186.89 110.97"/><polygon class="cls-1" points="244.84 204.13 262.21 201.58 252.93 228.24 244.84 204.13"/><polygon class="cls-8" points="264.01 190.5 244.84 204.13 279.73 199.94 264.01 190.5"/><polygon class="cls-14" points="590.02 203.53 590.17 209.52 603.19 220.15 624.61 214.91 614.43 175.67 590.02 203.53"/><polygon class="cls-15" points="582.23 137.33 586.42 149.61 574.14 180.31 523.08 170.28 525.92 147.67 582.23 137.33"/><polygon class="cls-10" points="520.98 163.84 575.19 176.87 570.55 192.75 528.77 188.1 520.98 163.84"/><polygon class="cls-14" points="582.23 137.33 568.9 188.4 599.3 175.07 605.59 143.32 582.23 137.33"/><polygon class="cls-14" points="511.25 152.91 515.14 183.76 531.61 180.62 526.07 146.02 511.25 152.91"/><polygon class="cls-1" points="571.45 287.1 558.87 269.58 572.35 256.85 595.56 229.14 682.11 223.75 684.21 255.5 571.45 287.1"/><polygon class="cls-6" points="572.35 256.85 445.66 219.4 303.1 216.26 301.3 236.48 571.45 287.1 572.35 256.85"/><polygon class="cls-8" points="682.11 223.75 572.35 256.85 303.1 216.26 402.98 180.62 682.11 223.75"/><polygon class="cls-5" points="488.33 212.97 527.57 239.32 613.98 244.26 618.02 273.92 606.19 277.21 609.48 331.43 656.96 330.38 651.26 319 627 326.34 618.02 273.92 627.46 271.37 613.98 244.26 589.87 226.74 624.61 214.76 593.46 209.97 434.57 186.01 364.79 208.17 336.79 221.35 333.94 242.62 342.18 244.12 336.79 306.72 323.01 303.87 320.46 318.25 287.07 338.77 338.14 323.64 546.59 350 354.61 310.46 352.96 246.21 342.18 244.12 337.69 221.5 381.26 211.17 488.33 212.97"/><polygon class="cls-10" points="481.75 188.85 494.48 199.49 518.59 189.75 511.25 152.91 484.59 173.88 481.75 188.85"/><polygon class="cls-16" points="568.9 188.4 531.61 180.62 524.27 189.75 524.27 199.34 555.72 210.12 566.5 199.78 568.9 188.4"/><polygon class="cls-10" points="582.53 219.7 568.9 188.4 605.59 143.32 617.72 188.25 582.53 219.7"/><polygon class="cls-15" points="555.72 210.12 582.53 219.7 609.48 195.74 568.9 188.4 555.72 210.12"/><polygon class="cls-17" points="397.44 178.37 338.44 194.25 382.01 206.97 434.57 185.56 397.44 178.37"/><polygon class="cls-15" points="392.2 142.88 400.43 178.82 338.44 194.25 331.85 177.02 330.8 153.51 392.2 142.88"/><polygon class="cls-10" points="434.73 193.05 434.57 185.56 382.76 202.78 377.82 205.63 381.26 211.17 434.73 193.05"/><polygon class="cls-15" points="338.44 194.25 338.88 203.53 381.26 211.17 382.76 202.78 338.44 194.25"/><polygon class="cls-10" points="333.05 193.79 324.66 156.65 330.8 153.51 338.44 194.25 333.05 193.79"/><polygon class="cls-1" points="334.69 156.06 389.35 147.07 396.39 175.97 341.13 189.6 334.69 156.06"/><path class="cls-10" d="M353.71,193.05l7.19,1.34,6.89-1.94-7.34-1Zm17.82-1.65,32.2-8.69-4.2-.75-35.34,8.54Z"/><path class="cls-10" d="M365.69,195.14l6.89-1.94,7.64,1.05-7,2.24Zm10.78-3,31-8.69,4.79.9-28.15,8.69Z"/><path class="cls-10" d="M383.21,198.29l-5.84-1,7.19-2.25,6.14.9Zm5.54-4.65,27.71-8.53,5.09.9-26.66,8.53Z"/><polygon class="cls-17" points="345.02 203.98 319.87 215.36 303.99 307.02 285.12 318.85 233.76 306.12 206.66 170.88 196.17 169.83 187.94 181.66 216.09 315.1 286.17 335.92 317.32 317.5 336.79 221.35 362.39 205.63 345.02 203.98"/><polygon class="cls-15" points="358.95 210.57 359.4 205.93 334.69 218.51 315.37 314.95 285.72 334.27 217.44 313.76 189.88 181.22 184.79 178.67 186.14 182.41 212.35 318.85 287.07 338.77 320.46 318.25 337.69 221.5 358.95 210.57"/><polygon class="cls-18" points="185.84 182.11 189.88 181.22 184.79 170.88 174.31 165.49 173.26 170.88 185.84 182.11"/><polygon class="cls-19" points="174.31 165.49 189.88 181.22 206.66 170.88 196.47 155.16 174.31 165.49"/><polygon class="cls-11" points="195.57 177.77 223.58 311.51 285.12 327.83 311.18 312.11 331.25 216.86 353.41 205.63 349.37 204.88 326.31 215.96 308.34 309.26 285.72 322.74 229.72 309.26 200.37 174.78 195.57 177.77"/><polygon class="cls-19" points="345.02 203.98 358.05 206.53 361.8 207.57 364.94 203.08 352.06 200.83 345.02 203.98"/><polygon class="cls-18" points="358.95 211.02 358.05 206.53 364.94 203.08 364.79 208.17 358.95 211.02"/><polygon class="cls-11" points="360.75 164.89 361.95 171.33 370.63 169.68 369.13 162.65 360.75 164.89"/><polygon class="cls-11" points="345.32 169.68 346.22 174.78 351.76 173.13 350.42 168.34 345.32 169.68"/><polygon class="cls-11" points="352.06 158 353.26 167.14 356.86 166.09 355.96 161 370.63 158 372.58 161.9 375.87 161 372.88 153.96 352.06 158"/><polygon class="cls-11" points="384.56 160.7 385.76 166.39 380.37 167.74 378.72 161.6 384.56 160.7"/><polygon class="cls-11" points="369.13 175.07 370.18 179.72 364.64 181.06 363.44 176.27 369.13 175.07"/><polygon class="cls-11" points="349.67 170.58 381.11 163.24 381.41 164.44 349.97 171.93 349.67 170.58"/><polygon class="cls-11" points="367.79 177.77 365.99 167.44 367.34 167.14 368.99 177.62 367.79 177.77"/><polygon class="cls-17" points="517.09 199.49 529.52 230.04 616.97 243.37 657.55 328.43 767.77 319.9 786.79 295.63 787.99 218.81 771.81 215.66 770.17 289.19 757.29 305.97 667.89 313.76 632.54 234.53 539.85 217.61 529.52 202.63 517.09 199.49"/><polygon class="cls-11" points="521.13 199.04 534.76 224.65 622.51 238.72 662.64 320.8 762.98 312.41 777.8 293.09 781.1 221.05 777.2 221.05 775.26 289.94 761.48 309.26 664.59 316.9 625.96 236.33 537.3 221.05 525.18 199.64 521.13 199.04"/><polygon class="cls-15" points="527.57 231.99 511.85 202.03 517.09 199.49 531.02 228.54 617.72 240.97 658.9 325.89 767.62 318.25 784.99 295.04 785.89 218.51 790.68 216.56 788.74 296.98 768.82 322.74 656.96 330.38 613.98 244.26 527.57 231.99"/><polygon class="cls-8" points="432.48 0 397.74 10.78 712.21 26.21 731.68 29.35 741.86 14.53 432.48 0"/><polygon class="cls-1" points="792.03 108.43 741.86 14.53 712.21 26.21 755.94 114.87 786.49 114.27 792.03 108.43"/><polygon class="cls-8" points="900 128.2 792.03 108.43 755.94 114.87 867.21 139.43 883.53 144.37 900 128.2"/><polygon class="cls-1" points="900 266.58 876.94 271.82 867.21 139.43 900 128.2 900 266.58"/><polygon class="cls-7" points="738.57 150.96 717.9 163.39 820.93 178.67 836.95 169.68 839.65 156.8 738.57 150.96"/><polygon class="cls-9" points="840.7 221.95 839.35 156.35 825.43 170.28 820.78 178.22 825.27 227.79 840.7 221.95"/><polygon class="cls-11" points="679.27 100.49 683.31 192.75 723.14 194.99 727.94 186.01 695.44 177.92 686.76 89.41 679.27 100.49"/><polygon class="cls-12" points="695.44 100.79 686.76 89.41 690.95 183.16 727.94 186.01 722.85 177.02 698.74 175.37 695.44 100.79"/><polygon class="cls-10" points="670.43 94.35 679.57 107.38 687.5 107.08 695.14 93.75 681.36 93.75 670.43 94.35"/><polygon class="cls-19" points="700.08 90.46 695.44 101.54 687.5 107.08 690.35 96.9 696.19 89.11 700.08 90.46"/><polygon class="cls-8" points="717.9 163.39 825.43 170.28 825.27 227.79 723.14 219.1 717.9 163.39"/><polygon class="cls-17" points="731.38 207.87 749.5 174.18 793.08 175.37 816.44 215.96 731.38 207.87"/><polygon class="cls-1" points="737.97 204.28 751.9 177.92 790.38 179.87 809.1 211.32 737.97 204.28"/><polygon class="cls-17" points="749.2 195.74 754.14 198.44 753.54 202.03 747.55 201.43 749.2 195.74"/><polygon class="cls-17" points="773.01 183.61 772.41 189.45 776.9 190.05 778.85 184.96 773.01 183.61"/><polygon class="cls-17" points="785.89 187.5 783.2 192.6 785.89 195.14 790.38 191.4 785.89 187.5"/><polygon class="cls-17" points="794.88 198.89 789.48 200.83 789.63 204.43 795.63 204.73 794.88 198.89"/><polygon class="cls-17" points="761.18 202.63 766.57 195.59 776.01 195.89 782 203.98 761.18 202.63"/><polygon class="cls-7" points="755.94 187.8 770.02 203.23 774.66 203.53 759.23 184.66 755.94 187.8"/><polygon class="cls-20" points="391.45 203.08 391.3 207.72 403.28 203.68 402.98 199.49 391.45 203.08"/><polygon class="cls-12" points="488.19 163.69 491.03 158.45 507.65 177.92 502.41 182.71 488.19 163.69"/><polygon class="cls-11" points="491.03 158.45 501.51 175.67 517.24 170.28 511.1 153.06 491.03 158.45"/><polygon class="cls-16" points="517.39 170.73 498.07 177.02 501.21 196.79 511.85 202.03 519.63 187.96 517.39 170.73"/><polygon class="cls-16" points="494.48 199.49 484.59 173.88 457.94 178.82 451.8 183.91 449.55 193.34 494.48 199.49"/><polygon class="cls-16" points="434.57 185.56 413.16 181.37 415.41 170.58 434.73 165.49 441.16 177.02 434.57 185.56"/><polygon class="cls-21" points="457.94 178.82 449.55 193.34 434.73 193.05 434.57 186.01 434.73 165.49 457.94 178.82"/><polygon class="cls-16" points="428.58 202.48 434.73 185.56 449.55 193.34 433.08 203.68 428.58 202.48"/><polygon class="cls-15" points="674.77 81.92 687.8 81.47 693.94 87.01 690.35 96.9 670.43 94.35 674.77 81.92"/><polygon class="cls-10" points="695.14 78.63 687.8 81.47 690.35 96.9 700.08 90.46 695.14 78.63"/><polygon class="cls-17" points="682.71 77.58 674.77 81.92 688.25 84.32 695.14 78.63 682.71 77.58"/><polygon class="cls-15" points="759.23 140.63 752.05 141.98 753.99 157.4 796.22 159.8 800.42 145.87 799.97 141.98 759.23 140.63"/><polygon class="cls-10" points="806.85 147.07 806.11 139.43 798.47 140.03 797.12 143.18 796.22 159.8 801.61 157.4 802.21 148.12 806.85 147.07"/><polygon class="cls-17" points="758.49 138.08 752.05 141.98 797.12 143.18 806.11 139.43 758.49 138.08"/><path class="cls-5" d="M783.79,138.83l-5.84,3.6,1.95,16.47,7,.3-1.2-16.77,6.74-3.45Zm-15.57-.45-5.84,3.6,1.5,16,7.93.45L770.17,142l5.84-3.45Z"/><polygon class="cls-21" points="531.61 180.62 517.39 170.73 511.85 202.03 534.01 202.78 531.61 180.62"/><polygon class="cls-9" points="372.58 114.87 457.19 119.81 457.49 134.19 371.98 129.1 372.58 114.87"/><path class="cls-9" d="M436.22,139.43l21.27.6v4.79l-21.27-.75Zm21.27,9v5.09l-21.57-1.65.15-4.34Z"/><polygon class="cls-8" points="433.23 57.36 432.48 47.18 437.27 47.18 436.52 57.51 433.23 57.36"/><polygon class="cls-8" points="444.91 58.11 444.16 47.77 448.95 47.77 448.2 58.26 444.91 58.11"/><polygon class="cls-10" points="435.02 28.01 430.38 30.7 448.8 35.79 454.19 29.35 435.02 28.01"/><polygon class="cls-18" points="453.44 46.58 454.19 29.35 448.8 32.65 444.31 40.59 448.8 49.27 453.44 46.58"/><polygon class="cls-20" points="429.04 47.33 430.38 30.7 448.8 32.65 448.8 49.27 429.04 47.33"/><polygon class="cls-17" points="438.47 31.45 439.67 7.49 486.39 0 494.63 0 488.04 2.55 445.21 10.33 444.61 28.61 443.26 32.05 438.47 31.45"/><polygon class="cls-15" points="446.56 13.18 446.56 28.75 443.26 32.05 444.01 8.84 494.63 0 494.48 3 446.56 13.18"/><polygon class="cls-1" points="485.94 347.75 492.53 350 495.82 343.86 494.93 333.08 490.13 328.13 485.34 327.08 480.7 336.37 485.94 347.75"/><polygon class="cls-2" points="492.53 350 502.11 345.81 503.91 337.87 499.27 337.27 494.93 340.56 492.53 350"/><polygon class="cls-6" points="485.34 327.08 490.73 329.78 496.12 329.48 500.17 327.83 495.68 325.44 485.34 327.08"/><polygon class="cls-3" points="490.73 329.78 494.93 340.56 503.91 337.87 500.17 327.83 490.73 329.78"/><polygon class="cls-4" points="487.74 342.81 490.73 340.56 489.08 335.02 486.09 337.27 487.74 342.81"/><polygon class="cls-1" points="643.63 222.25 645.57 224.8 643.18 226.74 638.39 227.19 635.69 226.89 634.49 223.6 638.53 221.65 643.63 222.25"/><polygon class="cls-2" points="645.57 224.8 644.98 229.29 641.68 230.64 640.78 228.69 641.68 226.59 645.57 224.8"/><polygon class="cls-2" points="634.49 223.6 636.44 226.14 636.89 227.94 636.59 230.19 634.64 228.39 634.49 223.6"/><polygon class="cls-3" points="636.29 225.99 641.68 226.59 641.68 230.64 636.59 230.19 636.29 225.99"/><polygon class="cls-4" points="641.68 223.3 641.08 224.8 638.39 224.5 638.99 223 641.68 223.3"/><polygon class="cls-1" points="331.25 313.46 327.8 318.4 332.15 321.84 340.98 322.59 345.77 321.99 348.02 316 340.53 312.56 331.25 313.46"/><polygon class="cls-2" points="327.8 318.4 329 326.34 334.99 328.88 336.64 325.44 334.99 321.54 327.8 318.4"/><polygon class="cls-2" points="348.02 316 344.58 320.64 343.53 324.09 344.13 328.13 347.87 324.84 348.02 316"/><polygon class="cls-3" points="344.88 320.5 334.99 321.54 334.99 328.88 344.13 328.13 344.88 320.5"/><polygon class="cls-4" points="334.84 315.7 335.89 318.25 340.83 317.8 339.78 315.1 334.84 315.7"/><polygon class="cls-1" points="363.59 337.42 368.39 339.07 370.63 334.57 370.03 326.94 366.59 323.34 363.3 322.29 360.75 329.48 363.59 337.42"/><polygon class="cls-2" points="368.39 339.07 375.27 336.07 376.47 330.38 373.18 329.78 370.03 332.18 368.39 339.07"/><polygon class="cls-6" points="363.3 322.29 367.04 324.39 370.93 324.39 373.78 323.04 369.73 321.24 363.3 322.29"/><polygon class="cls-3" points="367.04 324.39 370.03 332.18 376.47 330.38 373.78 323.04 367.04 324.39"/><polygon class="cls-4" points="364.94 333.82 367.04 332.33 365.84 328.28 363.59 329.78 364.94 333.82"/><polygon class="cls-1" points="402.08 216.11 399.98 219.25 402.68 221.5 408.37 221.95 411.51 221.65 413.01 217.76 408.07 215.51 402.08 216.11"/><polygon class="cls-2" points="399.98 219.25 400.73 224.5 404.48 226.14 405.67 223.9 404.48 221.35 399.98 219.25"/><polygon class="cls-2" points="413.01 217.76 410.62 220.75 410.02 223 410.47 225.54 412.86 223.45 413.01 217.76"/><polygon class="cls-3" points="410.92 220.6 404.48 221.35 404.48 226.14 410.47 225.54 410.92 220.6"/><polygon class="cls-4" points="404.48 217.46 405.07 219.25 408.37 218.96 407.62 217.16 404.48 217.46"/><polygon class="cls-3" points="820.33 270.62 817.64 278.41 818.54 282.75 824.82 286.5 830.67 280.51 829.92 274.22 820.33 270.62"/><polygon class="cls-4" points="852.53 273.32 843.99 274.82 828.87 281.11 824.82 286.5 849.98 276.91 852.53 273.32"/><polygon class="cls-2" points="851.78 267.93 852.53 273.32 828.87 281.11 826.77 274.37 840.55 269.58 851.78 267.93"/><polygon class="cls-1" points="820.33 270.62 826.77 274.37 851.78 267.93 846.09 265.08 820.33 270.62"/><polygon class="cls-1" points="789.93 287.25 792.18 292.34 799.97 291.14 799.97 287.1 796.52 282.9 789.93 287.25"/><polygon class="cls-3" points="803.71 283.2 796.52 282.9 799.97 291.14 804.91 287.55 805.66 284.85 803.71 283.2"/><polygon class="cls-2" points="813.3 281.41 805.06 285.15 804.91 287.55 824.23 280.81 824.38 278.41 813.3 281.41"/><polygon class="cls-1" points="824.38 278.41 805.06 285.15 803.71 283.2 822.88 276.76 824.38 278.41"/><polygon class="cls-2" points="704.73 275.72 694.24 276.76 692.89 270.32 700.23 268.08 700.23 262.24 708.17 266.58 706.82 270.18 731.08 281.26 746.21 283.2 752.05 289.79 749.5 294.89 742.61 289.49 734.83 289.19 743.81 292.49 742.91 298.63 725.99 297.13 725.24 291.29 727.64 288.45 704.73 275.72"/><polygon class="cls-1" points="749.8 279.46 752.05 289.79 743.66 285 734.38 286.05 743.81 292.49 725.24 291.29 726.29 282.31 703.98 271.37 692.89 270.32 693.49 262.99 700.23 265.83 704.27 265.68 700.23 262.24 710.87 263.58 711.61 268.38 737.37 278.71 749.8 279.46"/><polygon class="cls-1" points="50.47 301.92 55.26 303.57 57.5 299.08 56.91 291.44 53.46 287.85 50.17 286.8 47.62 293.99 50.47 301.92"/><polygon class="cls-2" points="55.26 303.57 62.15 300.58 63.34 294.89 60.05 294.29 56.91 296.68 55.26 303.57"/><polygon class="cls-6" points="50.17 286.8 53.91 288.89 57.8 288.89 60.65 287.55 56.6 285.75 50.17 286.8"/><polygon class="cls-3" points="53.91 288.89 56.91 296.68 63.34 294.89 60.65 287.55 53.91 288.89"/><polygon class="cls-4" points="51.81 298.33 53.91 296.83 52.71 292.79 50.47 294.29 51.81 298.33"/><polygon class="cls-16" points="495.98 92.7 503.16 121.31 514.24 147.37 538.35 146.32 552.58 154.11 569.05 148.87 583.43 118.31 586.12 103.04 588.07 85.67 583.13 60.8 563.21 76.68 530.42 84.77 519.48 76.53 513.35 87.61 495.98 92.7"/><polygon class="cls-21" points="556.17 79.38 562.16 108.43 569.65 110.68 575.04 105.58 573.99 93.45 568.15 94.95 563.66 77.73 556.17 79.38"/><polygon class="cls-21" points="536.11 114.12 541.05 95.55 556.17 79.38 527.42 83.42 536.11 114.12"/><polygon class="cls-21" points="520.23 113.37 512.45 102.59 498.07 92.25 516.34 84.77 520.23 113.37"/><polygon class="cls-22" points="503.16 121.31 586.12 103.04 571.6 148.12 562.61 153.06 537.45 147.52 511.25 152.91 503.16 121.31"/><polygon class="cls-23" points="562.16 108.43 568.75 140.78 556.62 162.34 582.23 137.33 584.92 114.27 583.88 109.48 586.12 103.04 575.04 105.58 562.16 108.43"/><polygon class="cls-24" points="537.45 147.52 568.75 140.78 556.62 162.34 537.45 147.52"/><polygon class="cls-24" points="575.04 105.58 584.92 114.27 586.12 103.04 575.04 105.58"/><rect class="cls-24" x="525.74" y="126.54" width="33.85" height="2.67" transform="translate(-0.29 254.54) rotate(-26.39)"/><polygon class="cls-24" points="536.11 114.12 529.67 121.16 521.13 117.42 528.47 115.02 536.11 114.12"/><polygon class="cls-25" points="556.17 79.38 531.61 92.85 529.97 85.52 540 82.22 556.17 79.38"/><polygon class="cls-25" points="516.19 96.9 514.24 88.51 506.76 89.11 498.07 92.25 516.19 96.9"/><polygon class="cls-25" points="563.66 77.73 568.15 94.95 573.99 93.45 573.39 84.62 588.07 85.67 591.22 59.16 574.14 65.75 563.66 77.73"/><polygon class="cls-24" points="584.33 89.56 578.64 89.26 578.64 99.89 584.33 89.56"/><polygon class="cls-18" points="555.72 46.73 566.8 43.28 577.29 42.23 584.48 49.42 591.22 59.16 568.9 52.57 555.72 46.73"/><polygon class="cls-26" points="577.29 42.23 544.19 36.69 515.74 34.9 490.28 62.3 526.52 55.41 555.72 46.73 565.31 44.78 577.29 42.23"/><polygon class="cls-19" points="515.74 34.9 561.26 23.21 577.29 42.23 515.74 34.9"/><polygon class="cls-18" points="577.29 42.23 586.57 24.86 608.59 34.45 594.36 39.39 577.29 42.23"/><polygon class="cls-19" points="608.59 34.45 641.53 48.97 599.15 45.38 577.29 42.23 608.59 34.45"/><polygon class="cls-27" points="641.53 48.97 591.22 59.16 577.29 42.23 641.53 48.97"/><polygon class="cls-15" points="555.72 46.73 474.86 65.9 481.9 96 514.24 88.51 519.48 76.53 529.97 85.52 563.66 77.73 560.22 59.46 555.72 46.73"/><polygon class="cls-25" points="548.83 55.86 519.18 62.9 533.11 76.08 552.73 71.29 548.83 55.86"/><polygon class="cls-25" points="483.69 71.29 513.35 64.25 506.76 82.22 487.14 86.86 483.69 71.29"/><polygon class="cls-10" points="563.66 77.73 591.22 59.16 555.72 46.73 563.66 77.73"/><path class="cls-28" d="M510.17,102.72a3.74,3.74,0,1,0,4.75,2.32A3.74,3.74,0,0,0,510.17,102.72Z"/><polygon class="cls-29" points="519.48 76.53 514.24 88.51 521.13 117.42 536.11 114.12 529.82 85.52 519.48 76.53"/><path class="cls-28" d="M540.42,96.32a3.74,3.74,0,1,0,4.74,2.32A3.74,3.74,0,0,0,540.42,96.32Z"/></g></svg>