<svg xmlns="http://www.w3.org/2000/svg" viewBox="0 0 900 350"><defs><style>.cls-1{fill:#dddddc;}.cls-1,.cls-10,.cls-12,.cls-13,.cls-14,.cls-15,.cls-16,.cls-17,.cls-18,.cls-19,.cls-2,.cls-20,.cls-21,.cls-22,.cls-23,.cls-24,.cls-25,.cls-26,.cls-28,.cls-29,.cls-3,.cls-30,.cls-31,.cls-32,.cls-4,.cls-41,.cls-42,.cls-43,.cls-44,.cls-45,.cls-46,.cls-47,.cls-48,.cls-49,.cls-5,.cls-50,.cls-54,.cls-55,.cls-56,.cls-57,.cls-58,.cls-59,.cls-6,.cls-60,.cls-61,.cls-62,.cls-7,.cls-8,.cls-9{fill-rule:evenodd;}.cls-2{fill:#ececeb;}.cls-3{fill:#a3a2a2;}.cls-4{fill:#cfcecd;}.cls-5{fill:#c4c4c3;}.cls-6{fill:#9ca0a1;}.cls-26,.cls-27,.cls-7{fill:#2b2b2b;}.cls-7{opacity:0.1;}.cls-8{fill:#f1bc68;}.cls-38,.cls-9{fill:#bb8e2d;}.cls-10{fill:#e1a842;}.cls-11,.cls-12{fill:#454545;}.cls-13{fill:#737474;}.cls-14{fill:#6f7173;}.cls-15{fill:#4f5253;}.cls-16{fill:#f4c9b2;}.cls-17{fill:#c1907d;}.cls-18{fill:#fce3d4;}.cls-19,.cls-52{fill:#e4c728;}.cls-20{fill:#484748;}.cls-21{fill:#ffefe7;}.cls-22,.cls-34{fill:#cbac14;}.cls-23,.cls-35{fill:#846400;}.cls-24,.cls-40{fill:#755800;}.cls-25,.cls-51{fill:#fff;}.cls-28{fill:#755445;}.cls-29{fill:#916d5a;}.cls-30{fill:#51362a;}.cls-31{fill:#98796a;}.cls-32{fill:#2e2e2e;}.cls-33{fill:#9d7700;}.cls-36,.cls-41{fill:#c2977b;}.cls-37,.cls-43{fill:#debca4;}.cls-39,.cls-54{fill:#f3d65d;}.cls-42{fill:#484848;}.cls-44{fill:#8a6651;}.cls-45{fill:#333;}.cls-46{fill:#505353;}.cls-47{fill:#e7c9b5;}.cls-48{fill:#474747;}.cls-49{fill:#8e8e8d;}.cls-50{fill:#707274;}.cls-53{fill:#ab913c;}.cls-55{fill:#5e5e5e;}.cls-56{fill:#906a59;}.cls-57{fill:#b08c79;}.cls-58{fill:#be8e00;}.cls-59{fill:#b0b0b0;}.cls-60{fill:#b99d8d;}.cls-61{fill:#66483a;}.cls-62{fill:#8f8f8f;}</style></defs><title>explorers_Entrepreneur_ESTP_career_path</title><g id="ILLUSTRATION_copy" data-name="ILLUSTRATION copy"><g id="clouds_copy" data-name="clouds copy"><polygon class="cls-1" points="783.24 26.58 751.19 31.27 687.6 28.15 760.05 50.3 795.23 50.3 874.2 35.18 783.24 26.58"/><polygon class="cls-2" points="874.2 35.18 784.55 19.29 739.2 26.32 687.6 28.15 763.96 38.57 804.87 33.62 874.2 35.18"/><polygon class="cls-1" points="278.69 54.73 253.7 54.79 210.06 52.64 259.78 67.85 283.93 67.85 338.12 57.47 278.69 54.73"/><polygon class="cls-2" points="338.12 57.47 283.38 52.38 263.96 46.78 210.06 52.64 262.46 59.8 285.72 60.07 338.12 57.47"/></g><g id="buildings_copy" data-name="buildings copy"><polygon class="cls-3" points="139.69 154.72 132.39 127.27 102.34 126.92 101.47 224.39 111.72 226.3 147.86 223.52 139.69 154.72"/><polygon class="cls-2" points="161.76 143.6 180.17 127.96 151.33 125.88 102.34 126.92 125.27 129.18 161.76 143.6"/><polygon class="cls-4" points="191.99 212.75 181.56 187.73 180.17 127.96 125.27 129.18 126.49 218.66 191.99 212.75"/><polygon class="cls-3" points="177.57 203.02 174.7 135.26 134.13 137.08 134.83 209.01 177.57 203.02"/><path class="cls-4" d="M177,142.37l.71,4.25-46,2.08-.09,6.42,45.81-1.61,2.34,7.51-1.31,4.17-46.5,1.07.3,8,44.06-2.67,3.69-8.65a.36.36,0,0,0,0-.1l-1.12-20.48Z"/><polygon class="cls-4" points="166.1 134.3 172.09 205.37 162.32 208.1 159.85 134.74 150.38 133 151.9 208.75 145.12 210.45 141.34 132.39 160.28 130.39 166.1 134.3"/><path class="cls-4" d="M131.44,186.6c.39,0,45.35-2.74,45.35-2.74l.39,10.95-45.48.91Z"/><polygon class="cls-3" points="235.3 160.89 226.88 133.44 192.21 133.09 191.21 230.56 203.03 232.47 244.72 229.69 235.3 160.89"/><polygon class="cls-2" points="260.75 149.77 282 134.13 248.73 132.04 192.21 133.09 218.66 135.35 260.75 149.77"/><polygon class="cls-5" points="295.63 218.92 283.6 193.9 282 134.13 218.66 135.35 220.07 224.82 295.63 218.92"/><polygon class="cls-3" points="279.43 209.19 276.64 141.43 237.16 143.25 237.83 215.18 279.43 209.19"/><path class="cls-5" d="M278.83,153.92l.68,4.25-44.75,2.08-.09,6.42,44.58-1.6,2.29,7.5-1.28,4.18L235,177.82l.71,20.51,42.45-15.2,3.59-8.66a.16.16,0,0,0,0-.1l-1.08-20.48Z"/><polygon class="cls-5" points="268.27 140.47 274.1 211.53 264.59 214.27 262.18 140.91 252.97 139.17 254.45 214.92 247.85 216.62 244.17 138.56 262.6 136.56 268.27 140.47"/><path class="cls-4" d="M225.78,192.77c.45,0,52.31-2.74,52.31-2.74l.45,10.95-52.46.91Z"/><polygon class="cls-3" points="812.95 188.16 815.95 160.54 841.97 160.28 846.49 246.46 799.23 253.41 812.95 188.16"/><polygon class="cls-3" points="715.83 151.59 723.48 139.78 759.61 140.47 765.87 222.13 713.75 229.78 715.83 151.59"/><polygon class="cls-3" points="642.16 183.21 651.54 154.02 681.78 152.98 690.12 234.29 650.15 236.73 642.16 183.21"/><polygon class="cls-3" points="582.57 159.24 589.87 131.78 619.92 131.44 618.53 182.69 610.54 230.82 574.4 228.04 582.57 159.24"/><polygon class="cls-2" points="690.46 150.9 677.52 140.47 709.58 137.34 761 138.39 739.81 140.12 732.42 141.69 690.46 150.9"/><polygon class="cls-2" points="771.43 172.79 758.49 162.36 790.54 159.24 841.97 160.28 822.51 163.93 813.08 166.01 771.43 172.79"/><polygon class="cls-2" points="619.92 168.97 605.33 156.11 632.15 152.1 663.79 152.85 660.23 157.32 619.92 168.97"/><polygon class="cls-2" points="560.5 148.12 542.09 132.48 570.93 130.39 619.92 131.44 596.99 133.7 560.5 148.12"/><polygon class="cls-1" points="593.51 240.9 608.11 217.62 605.33 156.11 660.23 157.32 658.15 234.64 593.51 240.9"/><polygon class="cls-1" points="530.27 217.27 540.7 192.25 542.09 132.48 596.99 133.7 594.9 211.01 530.27 217.27"/><polygon class="cls-1" points="755.79 247.5 766.22 222.48 767.61 162.71 822.51 163.93 820.42 241.24 755.79 247.5"/><polygon class="cls-1" points="664.14 239.85 669.61 225.95 677.52 140.47 732.42 141.69 728.77 233.6 664.14 239.85"/><polygon class="cls-3" points="685.77 149.68 680.56 215.18 722.26 217.09 723.43 151.03 685.77 149.68"/><polygon class="cls-1" points="694.89 148.42 688.64 216.7 697.24 216.96 700.5 149.59 709.1 148.29 704.8 218.14 711.7 217.62 714.83 146.07 694.89 148.42"/><polygon class="cls-1" points="680.56 159.76 726.43 159.76 726.08 168.79 682.12 166.88 681.08 177.48 723.82 178.52 724 188.95 680.73 186.17 680.21 196.42 724.52 196.94 724 207.19 677.09 205.97 680.56 159.76"/><polygon class="cls-3" points="614.19 212.58 611.93 163.93 651.89 164.28 651.2 213.1 614.19 212.58"/><polygon class="cls-1" points="620.75 161.71 621.27 214.23 627.39 214.14 627.57 162.19 636.95 162.36 635.56 213.97 642.51 213.97 642.68 160.1 620.75 161.71"/><polygon class="cls-1" points="610.54 175.92 653.8 175.92 653.28 182 609.85 182.17 610.71 193.12 653.98 193.46 654.15 200.07 608.98 198.68 607.07 177.31 610.54 175.92"/><polygon class="cls-3" points="776.86 168.1 815.82 169.66 814.52 220.61 776.08 218.14 776.86 168.1"/><polygon class="cls-1" points="774.77 176.05 818.3 177.48 818.17 183.6 775.55 181.52 775.55 189.73 816.6 192.2 816.47 198.85 775.68 196.37 775.95 203.67 815.69 206.15 815.95 213.18 771.78 209.8 774.77 176.05"/><polygon class="cls-1" points="806.44 167.97 806.05 222.04 799.01 221.52 801.36 168.36 792.24 167.97 791.32 219.96 784.81 219.31 785.2 165.75 806.44 167.97"/><polygon class="cls-3" points="546.6 172.53 548.95 140.21 588.13 141.6 587.52 202.24 546.6 172.53"/><polygon class="cls-1" points="546.43 148.2 545.82 153.68 589.6 155.5 589.78 163.75 546.17 162.54 546.17 173.74 550.08 176.78 589.6 178.09 589.43 188.34 547.47 185.73 543.82 174.61 544.6 148.2 546.43 148.2"/><polygon class="cls-1" points="556.16 138.82 553.47 190.94 562.15 191.73 562.41 139.25 571.88 137.52 571.45 196.24 577.18 198.33 580.92 136.91 561.98 134.91 556.16 138.82"/><polygon class="cls-3" points="75.06 179.22 67.76 151.76 37.7 151.42 36.83 248.89 47.09 250.8 83.22 248.02 75.06 179.22"/><polygon class="cls-2" points="97.12 168.1 115.54 152.46 86.7 150.38 37.7 151.42 60.64 153.68 97.12 168.1"/><polygon class="cls-4" points="127.36 237.25 116.93 212.23 115.54 152.46 60.64 153.68 61.85 243.16 127.36 237.25"/><polygon class="cls-3" points="112.93 227.52 110.07 159.76 69.5 161.58 70.19 233.51 112.93 227.52"/><path class="cls-4" d="M112.32,166.87l.7,4.24-46,2.08L67,179.62,112.76,178l2.34,7.5-1.31,4.18-46.5,1.07.3,8,44.06-2.66,3.68-8.65a.18.18,0,0,0,0-.1l-1.11-20.48Z"/><polygon class="cls-4" points="101.47 158.8 107.46 229.86 97.69 232.6 95.21 159.24 85.74 157.5 87.26 233.25 80.49 234.94 76.71 156.89 95.65 154.89 101.47 158.8"/><path class="cls-4" d="M66.81,211.1c.39,0,45.34-2.74,45.34-2.74l.39,10.95-45.47.91Z"/></g><g id="ground_copy" data-name="ground copy"><polygon class="cls-5" points="857.26 330.55 885.75 333.33 899.92 297.34 783.24 311.96 857.26 330.55"/><polygon class="cls-1" points="778.38 326.73 766.56 350.36 885.75 333.33 816.99 316.91 778.38 326.73"/><polygon class="cls-4" points="742.59 332.29 816.99 316.91 899.92 297.34 731.12 274.95 576.31 282.25 632.09 334.37 742.59 332.29"/><polygon class="cls-5" points="676.39 327.6 766.56 350.36 816.99 316.91 651.2 307.96 676.39 327.6"/><polygon class="cls-5" points="179.65 301.36 145.95 349.31 348.88 349.83 308.22 309.7 179.65 301.36"/><polygon class="cls-5" points="128.57 254.1 62.2 240.9 0 250.63 22.24 302.06 174.79 309.7 209.19 269.04 128.57 254.1"/><polygon class="cls-1" points="270 293.37 265.66 319.26 145.95 349.31 22.24 302.06 148.39 281.24 218.57 264.53 270 293.37"/><polygon class="cls-1" points="236.64 281.9 190.7 279.4 62.2 240.9 152.9 227 287.72 236.03 309.96 274.25 236.64 281.9"/><polygon class="cls-5" points="299.8 322.38 265.66 319.26 190.77 279.47 286.51 263.48 385.02 269.74 399.96 331.59 299.8 322.38"/><polygon class="cls-4" points="265.66 319.26 348.88 349.83 441.31 345.14 425.33 304.14 378.76 299.97 265.66 319.26"/><polygon class="cls-1" points="473.11 318.73 379.55 299.97 286.51 263.48 395.44 235.34 554.42 309.87 473.11 318.73"/><polygon class="cls-5" points="559.11 291.98 575.1 338.19 441.31 345.14 380.85 302.58 513.76 306.23 559.11 291.98"/><polygon class="cls-4" points="548.69 288.15 511.16 306.23 407.26 273.21 389.88 255.49 492.05 233.25 548.69 288.15"/><polygon class="cls-1" points="576.49 321.86 660.49 311.18 617.49 295.11 578.92 269.04 509.42 246.11 506.29 253.75 511.16 306.23 576.49 321.86"/><polygon class="cls-4" points="651.2 307.96 511.16 306.23 575.1 338.19 766.56 350.36 651.2 307.96"/></g><g id="skateboard_arena_copy" data-name="skateboard arena copy"><polygon class="cls-4" points="348.19 149.51 292.24 145.68 177.22 233.95 287.03 263.48 369.73 194.33 384.67 150.55 348.19 149.51"/><polygon class="cls-6" points="479.88 154.54 541.39 161.84 608.11 217.62 582.57 236.9 506.64 254.8 287.03 263.48 348.23 199.94 372.51 167.58 403.78 150.9 479.88 154.54"/><polygon class="cls-4" points="506.64 254.8 608.11 217.62 683.17 220.74 691.51 254.1 617.14 295.8 506.64 254.8"/><polygon class="cls-6" points="806.7 233.77 861.95 242.11 899.92 297.34 617.14 295.8 673.78 240.55 806.7 233.77"/><polygon class="cls-2" points="608.11 217.62 794.97 222.27 861.95 242.11 673.78 240.55 608.11 217.62"/><polygon class="cls-2" points="476.76 150.72 541.39 161.84 374.6 167.58 291.2 145.68 476.76 150.72"/></g><g id="skateboarder_copy" data-name="skateboarder copy"><path class="cls-7" d="M703.15,230.24s52.82,8.34,54.21,7.65,49.69-6.95,49.69-6.95l-59.42-7.65Z"/><polygon class="cls-8" points="579.46 162.45 571.79 154.51 584.55 155.41 628.31 160.54 620.25 173.65 598.62 175.74 579.46 162.45"/><polygon class="cls-9" points="677.42 131.61 686.31 132.01 689.16 134.48 685.93 146.08 617.88 178.39 596.97 177.49 602.48 172.35 615.82 173.13 677.42 131.61"/><polygon class="cls-8" points="643.19 143.78 651.5 134.64 655.74 125.71 686.31 132.01 683.27 141.51 643.19 143.78"/><polygon class="cls-10" points="584.55 155.41 651.5 134.64 683.27 141.51 615.82 173.13 584.55 155.41"/><circle class="cls-11" cx="724.79" cy="223.75" r="5.21" transform="translate(238.78 806.14) rotate(-67.31)"/><circle class="cls-11" cx="769.23" cy="224.69" r="5.21" transform="translate(359.28 913.27) rotate(-75.52)"/><polygon class="cls-9" points="718.87 217.22 709.36 217.09 713.1 221.81 723.54 224.88 785.98 225.99 794.97 222.27 794.45 219.27 718.87 217.22"/><polygon class="cls-10" points="712.79 216.75 706.85 213.63 705.42 216.5 713.1 221.81 713.98 219.06 712.79 216.75"/><polygon class="cls-9" points="720.48 217.25 713.42 215.56 706.85 213.63 713.98 219.06 722.79 221.88 720.48 217.25"/><polygon class="cls-8" points="774.77 216.83 778.83 215.93 784.63 214.92 794.45 219.27 785.68 222.22 774.77 216.83"/><polygon class="cls-10" points="727.38 215.09 778.83 215.93 785.68 222.22 722.79 221.88 713.42 215.56 727.38 215.09"/><polygon class="cls-12" points="741.3 209.39 727.38 215.09 727.31 219.68 749.11 219.68 749.39 214.6 741.3 209.39"/><polygon class="cls-13" points="738.97 199.52 735.2 205.28 727.38 215.09 749.39 214.6 749.62 206.58 738.97 199.52"/><polygon class="cls-12" points="763.3 214.47 759.22 215.86 759.4 220.22 779.07 220.29 778.83 215.93 763.3 214.47"/><polygon class="cls-14" points="764.93 204.73 761.56 205.76 759.22 215.86 778.83 215.93 776.53 205.46 764.93 204.73"/><polygon class="cls-12" points="750.85 155 736.7 191.22 735.2 205.28 749.62 206.58 753.23 194.8 750.85 155"/><polygon class="cls-15" points="750.85 155 741.65 160.19 738.23 181.38 742.09 190.26 754.88 189.64 762.37 169.08 750.85 155"/><polygon class="cls-12" points="758.71 159.62 757.32 194.03 761.56 205.76 776.53 205.46 774.92 192.38 758.71 159.62"/><polygon class="cls-14" points="758.71 159.62 755.82 172.49 756.44 188.36 761.81 193.44 774.9 187 777.08 160.85 758.71 159.62"/><polygon class="cls-16" points="789.01 167.3 782.43 161.95 777.08 169.26 779 170.73 784.49 167.44 781.72 172.31 780.37 178.95 789.29 179.84 793.13 172.92 789.01 167.3"/><polygon class="cls-16" points="707.2 86.01 703.85 84.51 700.66 73.96 709.27 69.65 716.08 78.8 715.38 85.26 707.2 86.01"/><polygon class="cls-17" points="714.35 98.7 710.42 94.55 703.85 84.51 716.07 78.31 718.73 91.26 714.35 98.7"/><polygon class="cls-18" points="718.15 96.56 719.31 89.18 719.71 82.9 717.28 75.97 714.27 76.58 715.27 81.92 713.65 86.53 717 95.7 718.15 96.56"/><polygon class="cls-14" points="741.16 122.65 727.72 103.4 721.69 101.03 721.05 119.9 742.26 134.71 741.16 122.65"/><polygon class="cls-14" points="775.89 124.84 789.89 119.74 796.14 144.68 785.45 148.24 772.97 131.97 775.89 124.84"/><polygon class="cls-19" points="737.12 107.11 727.72 103.4 740.15 140.31 743.14 119.13 737.12 107.11"/><polygon class="cls-18" points="739.63 69.07 733.66 100.71 759.82 106.87 766.38 86.02 768.09 73.22 746.84 68.28 739.63 69.07"/><polygon class="cls-15" points="750.18 72.84 739.63 69.07 758.37 65.97 759.72 68.23 750.18 72.84"/><polygon class="cls-14" points="768.09 73.22 750.18 72.84 753.71 67.45 751.31 66.62 768.09 73.22"/><polygon class="cls-20" points="747.87 77.57 741.04 75.01 741.35 73.2 747.98 74.44 747.87 77.57"/><polygon class="cls-20" points="753.99 78.21 763.9 80.04 763.86 77.71 755.83 75.71 753.99 78.21"/><polygon class="cls-16" points="748.45 79.66 747.87 77.57 741.04 75.01 744.92 80.41 745.54 88.77 748.45 79.66"/><polygon class="cls-16" points="753.99 78.21 752.17 80.21 751 89.75 758.3 82.4 763.9 80.04 753.99 78.21"/><polygon class="cls-21" points="753.99 78.21 747.87 77.57 745.54 88.77 751 89.75 753.99 78.21"/><polygon class="cls-17" points="748.09 91.68 745.54 88.77 751 89.75 748.09 91.68"/><polygon class="cls-22" points="768.09 73.22 787.74 90.4 791.21 76.81 786.96 67.34 781.12 69.46 782.24 71.61 776.76 70.23 768.09 73.22"/><polygon class="cls-19" points="754.6 52.95 775.85 57.75 786.96 67.34 781.12 69.46 779.33 66.03 778 65.64 774.32 67.11 776.76 70.23 768.09 73.22 752.4 69.48 739.63 69.07 737.78 68.68 740.34 60.16 754.6 52.95"/><polygon class="cls-23" points="774.32 67.11 776.76 70.23 782.24 71.61 779.33 66.03 778 65.63 774.32 67.11"/><polygon class="cls-24" points="774.32 67.11 776.76 70.23 780.47 71.17 776.28 66.32 774.32 67.11"/><polygon class="cls-15" points="768.45 83.57 770.16 75.03 779.09 82.83 778.58 87.19 763.68 107.49 760.02 107.62 759.82 106.87 761.62 99.57 764.87 90.94 768.45 83.57"/><polygon class="cls-16" points="768.09 73.22 761.62 99.57 769.82 84.81 770.16 75.03 768.09 73.22"/><polygon class="cls-20" points="775.47 86.61 777.89 92.36 781.53 90.08 783.89 89.27 783.06 86.31 779.09 82.83 775.47 86.61"/><polygon class="cls-18" points="771.36 93.87 774.23 97.89 778.22 97.64 781.53 90.08 775.47 86.61 771.36 93.87"/><polygon class="cls-17" points="774.42 92.56 777.2 89.3 779.05 91.28 774.42 92.56"/><polygon class="cls-17" points="771.36 93.87 774.83 102.4 778.22 97.64 771.36 93.87"/><polygon class="cls-16" points="748.22 112.54 748.94 125.75 762.06 133.25 770.92 111.7 774.83 102.4 771.36 93.87 763.67 107.49 759.82 106.87 748.22 112.54"/><polygon class="cls-17" points="745.27 103.48 748.22 112.54 763.67 107.49 759.82 106.87 745.27 103.48"/><polygon class="cls-23" points="781.07 91.12 787.74 90.4 783.06 86.31 781.07 91.12"/><polygon class="cls-10" points="737.12 107.11 747.19 109.58 755.51 126.48 771.05 111.49 779.69 115.78 781.33 126.58 776.44 144.66 776.4 150.91 756.82 140.33 739.51 147.14 738.87 130.05 737.12 107.11"/><polygon class="cls-10" points="738.29 159.46 739.51 147.14 756.92 155.71 776.4 150.91 780.51 163.54 755.01 164.3 738.29 159.46"/><polygon class="cls-9" points="756.82 140.33 776.4 150.91 756.92 155.71 739.51 147.14 756.82 140.33"/><polygon class="cls-19" points="779.69 115.79 789.89 119.74 778.91 140.86 776.44 144.66 779.69 115.79"/><polygon class="cls-12" points="741.65 160.19 755.82 172.49 775.65 163.68 753.39 162.53 741.65 160.19"/><polygon class="cls-17" points="741.9 92.17 755.05 94.82 749.82 100.94 743.13 99.21 741.9 92.17"/><polygon class="cls-25" points="743.56 93.55 752.43 95.55 750.56 97.65 743.78 96.05 743.56 93.55"/><polygon class="cls-9" points="719.36 88.46 727.72 103.4 721.05 119.9 709.63 93.23 719.36 88.46"/><polygon class="cls-18" points="785.72 156.33 782.43 161.95 781.72 172.31 793.13 172.92 792.44 161.95 785.72 156.33"/><polygon class="cls-9" points="782.43 161.95 784.08 146.59 796.14 144.68 792.44 161.95 782.43 161.95"/><path class="cls-26" d="M745.22,80.27a1.76,1.76,0,1,1-1.75-1.75A1.75,1.75,0,0,1,745.22,80.27Z"/><circle class="cls-27" cx="756.92" cy="83.08" r="1.76"/><polygon class="cls-10" points="756.44 188.36 764.88 185.4 774.9 187 774.92 192.38 768.05 196.2 757.32 194.03 756.44 188.36"/><polygon class="cls-10" points="738.23 181.38 754.88 189.64 753.23 194.8 736.7 191.22 735.13 185.54 738.23 181.38"/><path class="cls-14" d="M725.43,228a5.22,5.22,0,1,0,5.21-5.22A5.21,5.21,0,0,0,725.43,228Z"/><circle class="cls-11" cx="731.48" cy="228.44" r="5.21" transform="translate(321.73 876.01) rotate(-75.02)"/><path class="cls-3" d="M728.91,228.44a2.57,2.57,0,1,0,2.57-2.57A2.57,2.57,0,0,0,728.91,228.44Z"/><path class="cls-14" d="M771.86,227.9a5.22,5.22,0,1,0,5.22-5.22A5.22,5.22,0,0,0,771.86,227.9Z"/><path class="cls-12" d="M772.7,228.39a5.21,5.21,0,1,0,5.21-5.22A5.21,5.21,0,0,0,772.7,228.39Z"/><path class="cls-3" d="M775.34,228.39a2.57,2.57,0,1,0,2.57-2.57A2.57,2.57,0,0,0,775.34,228.39Z"/><polygon class="cls-15" points="654.6 139.8 666.42 137.83 667.53 142.06 643 151.19 641.49 146.86 654.6 139.8"/><polygon class="cls-13" points="644.5 127.78 651.5 134.64 666.42 137.83 641.49 146.86 638.34 138.57 644.5 127.78"/><polygon class="cls-15" points="602.49 149.46 594.78 154.07 595.09 158.61 618.77 158.02 618.99 153.62 602.49 149.46"/><polygon class="cls-13" points="603.85 128.59 596.9 144.93 594.78 154.07 618.99 153.62 613.99 145.53 603.85 128.59"/><polygon class="cls-15" points="626.24 111.8 642.58 107.11 651.5 134.64 638.34 138.57 626.39 124.05 626.24 111.8"/><polygon class="cls-9" points="578.18 108.09 573.3 111.12 584.05 116.8 578.18 108.09"/><polygon class="cls-28" points="541.61 88.37 549.69 88.88 547.19 97.92 544.09 97.69 543.76 92.31 540.32 92.51 539.82 96.47 532.4 101.98 525.5 96.34 529.52 85.45 541.61 88.37"/><polygon class="cls-29" points="549.2 78.58 541.35 80.37 529.52 85.45 539.82 96.47 549.69 88.88 549.2 78.58"/><polygon class="cls-28" points="669.23 64.59 676.17 62.15 684.94 53.11 678.53 45.28 668.48 50.05 666.68 57.96 669.23 64.59"/><polygon class="cls-30" points="660.63 66.44 665.27 67.33 676.17 62.15 667.32 51.3 657.74 62.43 660.63 66.44"/><polygon class="cls-29" points="657.56 64.12 660.21 58.12 663.13 50.56 671.61 45.67 673.18 49.06 669.13 52.43 667.43 58.49 657.56 64.12"/><polygon class="cls-14" points="580.3 65.87 570.97 62.41 560.01 65.89 562.35 80 571.04 81.37 583.73 81.31 580.3 65.87"/><polygon class="cls-14" points="618.33 69.9 639.63 64.37 649.01 66.35 644.7 83.6 615.2 85.4 618.33 69.9"/><polygon class="cls-19" points="629.43 62.32 639.63 64.37 623.12 90.82 622.33 67.24 629.43 62.32"/><polygon class="cls-29" points="642.05 25.4 638.64 32.05 629.91 58.94 604.55 52.96 609.17 29.45 614.1 16.1 635.9 21.24 642.05 25.4"/><polygon class="cls-15" points="633.52 26.03 642.05 25.4 626.6 13.56 624.24 15.14 633.52 26.03"/><polygon class="cls-14" points="614.1 16.1 633.52 26.03 635.9 21.24 632.68 17.52 614.1 16.1"/><polygon class="cls-20" points="632.87 30.64 641.35 31.97 640.34 28.72 632.87 30.64"/><polygon class="cls-20" points="626.98 27.66 617.06 25.53 625.61 23.98 626.98 27.66"/><polygon class="cls-28" points="631.28 32.41 632.87 30.64 638.88 31.58 634.11 34.8 629.3 42.7 631.28 32.41"/><polygon class="cls-28" points="626.98 27.66 627.62 31.2 623.75 40.93 620.95 30.47 617.06 25.53 626.98 27.66"/><polygon class="cls-31" points="627.62 31.2 631.28 32.41 629.3 42.7 623.75 40.93 627.62 31.2"/><polygon class="cls-30" points="625.26 45.16 629.3 42.7 623.75 40.93 625.26 45.16"/><polygon class="cls-30" points="630.55 48.79 615.96 44.03 620.32 53.28 630.55 48.79"/><polygon class="cls-22" points="614.1 16.1 587.56 23.71 588.74 11.24 599.09 2.29 604.18 6.3 602.07 7.88 607.75 9.1 614.1 16.1"/><polygon class="cls-19" points="631.22 2.63 611.21 0 599.09 2.3 604.18 6.3 607.55 3.78 608.96 4.02 611.55 7.19 607.75 9.1 614.1 16.1 635.9 21.24 642.05 25.4 643.92 25.89 645.91 16.34 631.22 2.63"/><polygon class="cls-23" points="611.55 7.19 607.75 9.1 602.07 7.88 607.55 3.77 608.96 4.02 611.55 7.19"/><polygon class="cls-24" points="611.55 7.19 607.75 9.1 603.9 8.28 610.16 5.5 611.55 7.19"/><polygon class="cls-15" points="608.53 26.08 611.31 16.9 599.25 20.36 597.5 24.86 600.74 51.75 603.99 53.6 604.55 52.96 606.62 44.96 608.04 34.98 608.53 26.08"/><polygon class="cls-28" points="614.1 16.1 606.62 44.96 606.66 26.65 611.31 16.9 614.1 16.1"/><polygon class="cls-20" points="600.62 25.75 595.5 30.26 593.35 26.31 591.62 24.41 593.88 21.89 599.25 20.36 600.62 25.75"/><polygon class="cls-29" points="600.66 34.8 596.03 37.4 592.53 35.27 593.35 26.31 600.62 25.75 600.66 34.8"/><polygon class="cls-30" points="598.55 32.08 597.68 27.58 594.99 28.66 598.55 32.08"/><polygon class="cls-30" points="600.66 34.8 593.19 41.53 592.53 35.27 600.66 34.8"/><polygon class="cls-28" points="612.53 64.25 606.25 71.52 601.59 74.75 593.41 55.89 593.19 41.53 600.66 34.8 600.74 51.76 604.55 52.96 612.53 64.25"/><polygon class="cls-30" points="619.48 56.48 612.6 64.29 600.74 51.76 604.55 52.96 619.48 56.48"/><polygon class="cls-23" points="593.24 27.54 587.56 23.71 593.88 21.89 593.24 27.54"/><polygon class="cls-10" points="629.43 62.32 616.84 59.41 606.25 71.52 601.59 74.75 593.41 55.89 582.63 59.27 578.78 69.89 582.8 91.33 579.75 100.15 604.84 88.88 621.37 98.48 625.73 79.71 629.43 62.32"/><polygon class="cls-10" points="628.79 103.51 621.37 98.48 602.91 105.73 579.75 100.15 573.3 111.12 578.97 110.87 605.61 114.6 628.79 103.51"/><polygon class="cls-9" points="604.84 88.88 579.75 100.15 602.91 105.73 621.37 98.48 604.84 88.88"/><polygon class="cls-19" points="582.63 59.27 570.97 62.41 580.54 86.86 582.8 91.32 582.63 59.27"/><path class="cls-32" d="M632.23,35.18a1.65,1.65,0,1,0,2.06-1.08A1.64,1.64,0,0,0,632.23,35.18Z"/><path class="cls-32" d="M618.42,31.37a1.65,1.65,0,1,0,2.06-1.09A1.66,1.66,0,0,0,618.42,31.37Z"/><polygon class="cls-25" points="627.19 48.95 618.68 46.18 620.92 51.5 627.19 48.95"/><polygon class="cls-12" points="628.79 103.51 642.58 107.11 626.39 124.05 608.7 127.38 579.2 110.89 605.99 113.64 628.79 103.51"/><polygon class="cls-9" points="660.48 57.41 645.23 65.6 644.7 83.6 665.27 67.33 660.48 57.41"/><polygon class="cls-9" points="571.04 81.37 560.01 65.89 541.35 80.37 549.69 88.88 571.04 81.37"/><polygon class="cls-12" points="601.59 114.82 596.9 109.98 579.2 110.89 584.49 129.8 604.46 127.98 601.59 114.82"/><polygon class="cls-15" points="596.9 109.98 596.9 144.93 613.99 145.53 620.8 115.73 596.9 109.98"/><polygon class="cls-10" points="567.22 158.93 571.79 154.51 602.48 172.35 596.97 177.49 567.22 158.93"/><path class="cls-14" d="M630.7,180.18l-7,6.42-4.07-2.81a5.38,5.38,0,0,1-1.47-2.39c-.23-1.75-.25-4.41,1.18-6.32,3.24-4.32,6.43-3.14,8.19-3.05s5.2,2.51,5.2,2.51Z"/><path class="cls-12" d="M635,176.48c2,3.05.71,7.42-2.87,9.77S624,188,622,185s-.71-7.42,2.87-9.77S633,173.43,635,176.48Z"/><path class="cls-3" d="M631.33,179.11a3.35,3.35,0,1,1-4.3-.53A3.08,3.08,0,0,1,631.33,179.11Z"/><path class="cls-14" d="M678,155.83l-7,6.43-4.08-2.81a5.37,5.37,0,0,1-1.46-2.39,9.38,9.38,0,0,1,1.85-6.29c2.1-2.77,4.94-2.64,6.71-2.54s6,2,6,2Z"/><path class="cls-12" d="M682.23,152.14c2,3,.71,7.42-2.88,9.77s-8.11,1.78-10.1-1.26-.71-7.42,2.87-9.77S680.23,149.09,682.23,152.14Z"/><path class="cls-3" d="M678.61,154.77a3.35,3.35,0,1,1-4.31-.54A3.08,3.08,0,0,1,678.61,154.77Z"/><polygon class="cls-7" points="583.78 249.58 619.23 221.78 674.48 223.17 692.9 230.47 658.49 234.99 616.1 260.01 583.78 249.58"/></g><g id="main_character_copy" data-name="main character copy"><polygon class="cls-7" points="307.03 312.28 379.55 299.97 459.73 318.73 381.55 336.46 307.03 312.28"/><polygon class="cls-33" points="391.06 300.52 381.03 300 379.75 299.92 359.96 311.69 377.33 313.14 390.85 311.04 391.06 300.52"/><polygon class="cls-34" points="359.96 311.69 359.69 315.9 390.94 315.62 390.85 311.04 359.96 311.69"/><path class="cls-35" d="M373.73,303.5l4,3.75,1.11-1.2-3.65-3.42Zm-3.29,2,3.53,3.46,1.16-1.15-3.25-3.17Z"/><polygon class="cls-34" points="391.85 311.68 404.56 315.95 404.56 320.63 383.15 320.54 382.98 315.86 391.85 311.68"/><polygon class="cls-33" points="399.54 294.62 400.54 302.65 404.56 315.95 382.98 315.86 387.33 303.65 399.54 294.62"/><polygon class="cls-36" points="381.98 225.79 370.19 229.3 377.63 291.94 379.59 299.8 387.33 303.65 402.55 264.68 381.98 225.79"/><polygon class="cls-35" points="381.98 225.79 370.19 229.3 372.86 273.71 377.63 291.94 387.41 292.27 402.55 264.68 381.98 225.79"/><polygon class="cls-33" points="381.98 225.79 370.19 229.3 366.42 247.62 372.86 273.71 387.16 273.88 402.55 264.68 381.98 225.79"/><polygon class="cls-37" points="391.34 244.6 405.69 227.54 402.97 292.61 400.54 302.65 387.33 303.65 387.41 292.27 391.34 244.6"/><polygon class="cls-33" points="391.34 244.6 405.69 227.54 406.19 273.71 402.97 292.61 387.41 292.27 387.16 273.88 391.34 244.6"/><polygon class="cls-34" points="391.34 244.6 405.69 227.54 407.57 273.71 402.97 292.61 399.79 292.65 404.46 273.74 391.34 244.6"/><polygon class="cls-38" points="386.24 238.83 405.69 227.54 412.84 247.36 407.57 273.71 387.16 273.88 386.24 246.74 386.24 238.83"/><polygon class="cls-39" points="396.4 231.56 405.69 227.54 413.92 247.28 407.57 273.71 404.46 273.74 411.26 247.63 403.61 229.54 396.4 231.56"/><polygon class="cls-40" points="405.69 227.54 386.24 246.74 370.19 229.3 405.69 227.54"/><polygon class="cls-41" points="349.44 155.2 354.32 158.8 352.04 167.41 347.52 167.66 349.44 155.2"/><polygon class="cls-35" points="435.25 156.9 422.72 162.99 406.81 163.14 378.62 175.66 375.52 157.64 435.25 156.9"/><polygon class="cls-42" points="362.88 117.88 351.51 75.62 362.52 72.42 371.04 86.56 362.88 117.88"/><polygon class="cls-43" points="370.62 75.62 361.1 91.24 353.14 149.85 402.16 155.39 412.53 81.94 370.62 75.62"/><path class="cls-44" d="M363.45,74.12l-2.28,17.12L396,103s5.4-16.62,4.9-17.26c-.64-.85-.78-2.84-1.92-5.75l-35.51-5.54Z"/><polygon class="cls-45" points="445.27 90.46 447.9 95.36 454.08 133.79 452.18 150.4 428.15 109.29 445.27 90.46"/><polygon class="cls-46" points="445.27 90.46 462.44 104.44 452.18 150.4 445.27 90.46"/><polygon class="cls-41" points="404.43 174 428.15 110.21 412.53 81.94 400.24 156.17 383.41 164.48 384.52 171.33 377.79 182.52 374.6 190.97 401.52 188.56 404.43 174"/><polygon class="cls-44" points="414.27 147.62 417.46 138.87 411.77 138.19 414.27 147.62"/><polygon class="cls-44" points="416.44 141.92 419.02 134.8 410.75 131.41 416.44 141.92"/><polygon class="cls-44" points="378.5 152.62 400.45 155.17 404 155.74 377.79 182.52 381.39 171.54 378.5 152.62"/><polygon class="cls-24" points="439.66 98.92 446.41 98.92 447.33 107.58 434.9 107.08 439.66 98.92"/><polygon class="cls-46" points="428.51 81.94 435.19 84.28 439.66 98.92 427.8 119.73 414.73 121.43 409.97 119.73 415.58 87.55 428.51 81.94"/><polygon class="cls-41" points="378.97 124.03 393.77 109.29 406.99 102.96 384.68 101.47 375.38 100.91 370.26 98.13 360.46 99.55 366.57 106.52 373.64 123.1 376.95 125.91 378.97 124.03"/><polygon class="cls-47" points="375.38 100.91 373.64 123.1 378.97 124.03 384.68 101.47 375.38 100.91"/><polygon class="cls-44" points="375.77 126.8 373.64 123.1 378.97 124.03 375.77 126.8"/><polygon class="cls-24" points="362.73 134.57 376.23 130.88 393.28 132.37 379.85 147.36 362.73 134.57"/><polygon class="cls-48" points="386.32 137.7 382.76 141.47 375.38 142.18 371.61 138.91 372.89 138.27 385.25 137.42 386.32 137.7"/><polygon class="cls-25" points="367.56 135.35 390.01 133.79 386.32 137.7 371.61 138.91 367.56 135.35"/><polygon class="cls-45" points="360.46 99.55 370.12 95.72 375.38 100.91 360.46 99.55"/><polygon class="cls-45" points="384.68 101.61 394.34 97.78 399.6 102.96 384.68 101.61"/><polygon class="cls-43" points="416.29 114.97 427.8 119.73 418.5 136.21 409.97 132.16 416.29 114.97"/><polygon class="cls-44" points="415.37 125.27 416.72 119.59 423.04 121.43 415.37 125.27"/><path class="cls-24" d="M419.43,129.17l6.71,8.48-7.59,10-6.92-9.43,7.66-9Zm-.54,4.55-4.07,4.74,3.93,4.28,4.07-4.07-3.93-4.95Z"/><polygon class="cls-49" points="351.51 75.62 363.23 54.59 372.75 56.44 423.68 77.46 428.51 81.94 420.34 86.34 358.97 80.31 351.51 75.62"/><polygon class="cls-46" points="363.23 54.59 420.34 58.14 428.51 81.94 363.23 54.59"/><polygon class="cls-50" points="395.35 102.58 351.51 75.62 428.51 81.94 434.9 107.08 395.35 102.58"/><path class="cls-26" d="M370.83,108.93a3.17,3.17,0,0,1-3.19,3.13,3.11,3.11,0,0,1-3.13-3.13,3.16,3.16,0,1,1,6.32,0Z"/><path class="cls-26" d="M392.5,112a3.23,3.23,0,0,1-3.2,3.2,3.17,3.17,0,0,1-3.12-3.2,3.1,3.1,0,0,1,3.12-3.12A3.17,3.17,0,0,1,392.5,112Z"/><polygon class="cls-38" points="374.69 166.33 378.42 171.15 387.9 174.44 392.52 185.44 381.27 199.98 357.89 196.69 356.07 184.41 367.71 170.8 374.69 166.33"/><polygon class="cls-51" points="378.42 171.15 396.59 171.74 385 180.09 378.42 171.15"/><polygon class="cls-35" points="387.16 229.54 396.45 208.13 380.58 195.26 357.89 196.69 370.56 225.81 387.16 229.54"/><polygon class="cls-38" points="405.56 221.27 389.87 228.51 385.2 222.62 380.58 195.26 396.47 189.22 412.36 193.49 405.56 221.27"/><polygon class="cls-39" points="405.69 227.54 405.56 221.27 385.2 222.62 380.66 229.11 385.49 232.62 405.69 227.54"/><polygon class="cls-52" points="370.19 229.3 385.49 232.62 385.2 222.62 369.48 223.4 370.19 229.3"/><polygon class="cls-52" points="367.71 170.8 341.46 187.53 338.57 191.92 348.23 199.94 357.89 196.69 367.71 170.8"/><polygon class="cls-38" points="435.25 156.9 409.22 161.37 406.42 169.72 427.34 171.54 434.12 163.48 435.25 156.9"/><polygon class="cls-39" points="375.52 157.64 385 180.09 374.69 166.33 375.23 162.4 375.52 157.64"/><polygon class="cls-52" points="400.03 169.99 385 180.09 380.58 195.26 412.36 193.49 419.48 183.52 411.28 166.92 400.03 169.99"/><polygon class="cls-34" points="431.32 183.67 434.12 163.48 411.28 166.92 417.32 180.63 431.32 183.67"/><polygon class="cls-36" points="453.81 175.93 452.38 178.73 446.18 180.09 445.21 174.12 450.42 167.68 454.86 169.25 453.81 175.93"/><polygon class="cls-36" points="464.91 155.06 458.97 165.96 467.37 164.34 472.61 151.53 464.91 155.06"/><polygon class="cls-36" points="455.66 154.93 451.5 164.34 450.42 169.25 458.08 165.77 459.3 155.47 455.66 154.93"/><polygon class="cls-37" points="451.5 164.34 450.23 167.93 453.46 176.52 472.13 164.34 475.71 152.71 472.61 151.53 467.81 161.44 451.7 164.29 451.5 164.34"/><polygon class="cls-38" points="440.26 200.41 424.91 197.17 412.51 193.15 411.28 166.92 437.9 189.17 440.26 200.41"/><polygon class="cls-52" points="441.24 203.11 424.91 197.17 441.68 178.44 446.69 179.32 450.02 183.6 441.24 203.11"/><polygon class="cls-39" points="445.21 174.12 452.38 178.73 450.02 183.6 441.68 178.44 445.21 174.12"/><polygon class="cls-53" points="409.22 161.37 385 180.09 411.28 166.92 409.22 161.37"/><polygon class="cls-9" points="336.06 195.93 348.23 199.94 348.3 179.1 346.1 178.03 345.26 178.79 340.91 178.95 338.49 179.96 336.06 195.93"/><polygon class="cls-54" points="348.3 179.1 348.67 170.98 345.74 172.33 344.69 178.83 348.3 179.1"/><polygon class="cls-46" points="338.35 173.26 338.49 179.96 341 179.94 345.21 180.11 346.14 173.34 338.35 173.26"/><polygon class="cls-19" points="353.7 146.35 330.25 147.16 330.5 158.97 354.32 158.8 353.7 146.35"/><polygon class="cls-9" points="350.81 143.11 350.54 137.8 344.29 134.11 335.05 136.63 334.87 143.74 337.13 146.92 346.91 146.58 350.81 143.11"/><polygon class="cls-23" points="334.87 143.74 337.13 146.92 346.91 146.58 350.81 143.11 334.87 143.74"/><polygon class="cls-43" points="335.12 158.82 334.62 173.22 350.04 173.37 350.18 158.76 335.12 158.82"/><polygon class="cls-9" points="332.87 149.5 341.41 148.73 341.41 150.74 338.11 151.25 339.1 156.84 336.39 157.06 335.83 151.66 332.61 152.06 332.87 149.5"/><polygon class="cls-9" points="341.3 152.42 343.91 151.95 345.96 154.72 348.27 147.85 351.08 148.43 347.3 157.16 345 157.28 341.3 152.42"/><polygon class="cls-35" points="389.31 307.39 398.98 307.64 398.98 309.27 389.13 309.02 389.31 307.39"/><polygon class="cls-35" points="388.53 310.78 399.54 311.03 399.54 312.66 388.31 312.41 388.53 310.78"/><polygon class="cls-7" points="93.47 312.48 166.45 300.67 243.94 318.73 165.75 336.46 93.47 312.48"/></g><g id="man_with_camera_copy" data-name="man with camera copy"><polygon class="cls-15" points="190.96 309.75 205.09 312.18 205.09 316.78 178.33 316.78 167.87 309.67 190.96 309.75"/><polygon class="cls-55" points="180.33 295.2 187.36 296.62 205.09 312.18 165.53 312.26 162.1 300.81 180.33 295.2"/><polygon class="cls-15" points="167.2 308.83 178.33 316.78 178.07 322.22 150.9 322.38 150.73 316.86 167.2 308.83"/><polygon class="cls-14" points="162.94 289.93 170.3 301.98 178.33 316.78 150.73 316.86 151.9 303.65 162.94 289.93"/><polygon class="cls-23" points="180 242.43 190.7 279.4 187.36 296.62 170.3 301.98 155.91 262.84 180 242.43"/><polygon class="cls-9" points="180 242.43 199.4 235.07 190.7 279.4 173.64 280.57 155.91 262.84 180 242.43"/><polygon class="cls-22" points="156.58 218.01 142.45 240.84 151.9 303.65 170.3 301.98 176.07 261.16 156.58 218.01"/><polygon class="cls-9" points="156.58 218.01 148.39 281.24 151.9 303.65 170.3 301.98 173.64 280.57 156.58 218.01"/><polygon class="cls-22" points="156.58 218.01 142.45 240.84 148.39 281.24 173.64 280.57 176.07 261.16 156.58 218.01"/><polygon class="cls-23" points="184.6 228.55 199.4 235.07 176.07 261.16 142.45 240.84 184.6 228.55"/><polygon class="cls-9" points="199.4 235.07 202.16 192.17 190.37 183.8 135.42 207.72 144.46 237.83 199.4 235.07"/><polygon class="cls-56" points="155.37 234.82 162.65 227.42 173.31 236.2 169.29 246.11 157 244.98 155.37 234.82"/><polygon class="cls-57" points="135.8 228.92 146.88 225.7 162.65 227.42 157 244.98 142.45 240.84 135.8 228.92"/><polygon class="cls-23" points="146.55 179.87 125.1 171.99 103.73 208.64 126.81 221.02 147.88 195.26 146.55 179.87"/><polygon class="cls-23" points="229.18 178.03 207.6 194.09 190.87 188.91 203.14 151.54 229.18 178.03"/><polygon class="cls-58" points="224.73 157.27 207.6 194.09 235.03 194.43 240.67 161.5 233.27 150.77 224.73 157.27"/><polygon class="cls-56" points="246.78 138.47 240.67 161.5 234.77 159.94 235.06 153.74 226.77 148.26 238.25 130.13 246.78 138.47"/><polygon class="cls-15" points="231.34 150.24 225.91 150.55 181.1 152.49 169.46 144.91 166.41 137.09 191.97 122.73 195.62 119.46 193.29 104.99 235.16 105.61 238.79 123.92 231.34 150.24"/><polygon class="cls-13" points="267.77 114.36 266.86 119.29 261.62 134.54 264.55 136.69 263.25 145.1 281.03 154.09 288.59 139.43 291.82 110.04 285.08 104.58 267.77 114.36"/><polygon class="cls-3" points="244.22 121.53 236.98 126.32 266.19 125 266.86 119.29 244.22 121.53"/><polygon class="cls-15" points="232.52 137.05 239.81 126.08 266.19 125 264.55 136.69 254.51 137.29 245.57 142.91 232.52 137.05"/><polygon class="cls-13" points="231.34 150.24 255 145.87 254.81 142.34 254.52 137.3 239.97 138.16 239.81 126.08 244.22 121.53 253.7 120.6 253.16 110.08 235.16 105.61 231.34 150.24"/><polygon class="cls-59" points="284.21 115.76 282.46 138.06 298.23 137.17 301.15 132.53 300.98 116.82 291.07 110.76 284.21 115.76"/><polygon class="cls-15" points="313.38 106.06 285.08 104.58 284.21 115.76 300.98 116.82 313.38 106.06"/><polygon class="cls-13" points="296.61 135.8 297.17 149.17 311.83 151.08 313.38 106.06 300.98 116.82 296.61 135.8"/><polygon class="cls-3" points="281.1 153.89 311.83 151.08 296.61 135.8 290.94 136.65 282.46 138.06 281.1 153.89"/><polygon class="cls-57" points="224.73 157.27 220.31 150.78 223.76 138.98 228.53 139.73 228.53 148.13 235.06 153.74 234.77 159.94 224.73 157.27"/><polygon class="cls-57" points="174.9 80.29 138.68 82 158.94 143.71 198.62 134.5 195.15 114 195.3 100.59 191.35 91.49 188.26 73.22 174.9 80.29"/><polygon class="cls-32" points="148.66 95.14 165.67 88.53 160.3 86.18 148.66 95.14"/><polygon class="cls-32" points="177.74 85.66 186.77 85.22 181.65 82.03 177.74 85.66"/><polygon class="cls-56" points="165.67 88.53 171.55 97.28 174.35 114.69 164.86 101.19 148.66 95.14 165.67 88.53"/><polygon class="cls-56" points="177.74 85.66 177.37 95.56 181.13 114.61 182.86 97.92 186.77 85.22 177.74 85.66"/><polygon class="cls-60" points="171.55 97.28 177.37 95.56 181.13 114.61 174.35 114.69 171.55 97.28"/><polygon class="cls-61" points="178.76 118.24 174.35 114.69 181.13 114.61 178.76 118.24"/><polygon class="cls-61" points="188.53 119.57 166.78 122.25 181.75 134.21 188.53 119.57"/><polygon class="cls-62" points="174.9 80.29 182.68 65.97 179.86 53.28 155.92 62.71 139.32 74.71 138.68 82 174.9 80.29"/><polygon class="cls-6" points="195.17 63.36 179.86 53.28 174.9 80.29 188.26 73.22 195.17 63.36"/><polygon class="cls-13" points="191.35 91.49 195.17 63.36 188.26 73.22 191.35 91.49"/><polygon class="cls-9" points="199.88 109.78 196.86 91.06 191.35 91.49 195.15 114 199.88 109.78"/><polygon class="cls-19" points="191.94 87.14 196.86 91.06 191.35 91.49 191.94 87.14"/><polygon class="cls-19" points="155.92 62.71 144.77 64.96 131.53 70.95 117.32 80.58 128.84 82.18 139.32 74.71 155.92 62.71"/><polygon class="cls-9" points="115.92 106.78 117.32 80.58 128.84 82.18 129.81 102.19 124.64 101.22 115.92 106.78"/><polygon class="cls-19" points="113.66 114.81 113.56 108.39 115.92 106.78 124.64 101.22 126.36 108.5 113.66 114.81"/><polygon class="cls-22" points="129.81 102.19 126.36 108.5 124.64 101.22 129.81 102.19"/><polygon class="cls-19" points="140.9 118.87 129.81 102.19 126.36 108.5 139.93 124.65 140.9 118.87"/><polygon class="cls-9" points="113.66 114.81 125.4 129.35 129.16 129.78 134.67 130.78 139.93 124.65 126.36 108.5 113.66 114.81"/><polygon class="cls-15" points="138.68 82 129.07 86.92 128.84 82.18 139.32 74.71 138.68 82"/><polygon class="cls-15" points="145.2 111.49 129.07 86.92 129.81 102.19 140.13 117.73 145.2 111.49"/><polygon class="cls-15" points="144.77 64.96 115.28 73.3 105.06 88.17 115.92 106.78 117.32 80.58 131.53 70.95 144.77 64.96"/><polygon class="cls-56" points="138.68 82 129.07 86.92 145.2 111.49 140.13 117.73 140.9 118.87 139.93 124.65 134.4 133.12 135.87 142.33 146.44 162.14 170.8 174.56 178.78 169.64 180.24 158.76 176.19 151.15 158.94 143.71 138.68 82"/><polygon class="cls-61" points="139.93 124.65 129.16 129.78 135.93 142.45 135.93 142.46 139.93 124.65"/><polygon class="cls-61" points="149.83 146.37 180.24 158.76 181.1 152.49 183.04 138.12 158.94 143.71 149.83 146.37"/><polygon class="cls-22" points="202.16 192.17 202.72 182.28 203.14 151.54 181.1 152.49 178.78 169.64 146.44 162.14 125.1 171.99 136.13 209.63 202.16 192.17"/><path class="cls-32" d="M167.54,101.53a4,4,0,1,1-3.95-4A4,4,0,0,1,167.54,101.53Z"/><path class="cls-32" d="M188.74,96.39a4,4,0,1,1-4-4A4,4,0,0,1,188.74,96.39Z"/><polygon class="cls-25" points="172.89 123.42 184.85 122 181.34 129.78 172.89 123.42"/><polygon class="cls-13" points="203.06 113.95 203.22 130.03 222.67 130.51 223.47 114.91 203.06 113.95"/><polygon class="cls-4" points="205.55 116.77 205.67 127.69 219.72 128.5 220.16 117.52 205.55 116.77"/><polygon class="cls-4" points="207.18 133.27 207.12 136.97 210.57 137.22 210.5 133.39 207.18 133.27"/><polygon class="cls-4" points="212.64 133.65 212.57 137.34 216.02 137.6 215.96 133.77 212.64 133.65"/><polygon class="cls-4" points="212.57 139.35 212.51 143.05 215.96 143.3 215.9 139.48 212.57 139.35"/><polygon class="cls-58" points="103.73 208.64 146.88 225.7 142.45 240.84 105.4 234.74 103.73 208.64"/><polygon class="cls-1" points="290.85 119.97 297.02 120.32 294.76 128.22 290.85 119.97"/></g></g></svg>