<svg id="Layer_1" data-name="Layer 1" xmlns="http://www.w3.org/2000/svg" viewBox="0 0 900 350"><defs><style>.cls-1{fill:#8f8f8f;}.cls-2{fill:#cececd;}.cls-26,.cls-3{fill:#2b2b2b;}.cls-3{fill-opacity:0.1;}.cls-4{fill:#27788c;}.cls-5{fill:#3aa0ba;}.cls-6{fill:#ececeb;}.cls-7{fill:#a3a3a3;}.cls-8{fill:#5ec0d9;}.cls-9{fill:#50a9aa;}.cls-10{fill:#72cbcc;}.cls-11{fill:#8ce0dc;}.cls-12{fill:#369496;}.cls-13{fill:#1c7678;}.cls-14{fill:#73cfe5;}.cls-15{fill:#dfbda5;}.cls-16{fill:#c3987b;}.cls-17,.cls-32{fill:#a77e62;}.cls-18{fill:#c09c84;}.cls-19{fill:#835940;}.cls-20{fill:#165e60;}.cls-21{fill:#8b6651;}.cls-22{fill:#858686;}.cls-23{fill:#6f7173;}.cls-24{fill:#4f5253;}.cls-25{fill:#474747;}.cls-27{fill:#030303;}.cls-28{fill:#e8cab6;}.cls-29{fill:#fff;}.cls-30{fill:#318fa6;}.cls-31{fill:#c9ad9b;}.cls-32{stroke:#a77e62;stroke-width:3.2px;}</style></defs><title>sentinels_Executive_ESTJ_romantic_relationships</title><g id="Layer_1-2" data-name="Layer_1"><polygon class="cls-1" points="808.51 48.85 809.17 57.25 744.99 61.49 755.48 180.61 743.76 176.65 735.92 54.33 808.51 48.85"/><path class="cls-1" d="M135,63.29l5.2,8.77,38.94,4.71,4.54,99.5,11.72-8.39-6.05-98Zm-77-7.83L59.55,63l49.15,4.91-2.27-8.68Z"/><path class="cls-1" d="M376,70.26s3,128,2.84,130.25-9.55-4.71-11.44-4.71.28-122.52.28-122.52Z"/><polygon class="cls-2" points="414.18 189.1 378.64 188.25 370.04 191.65 374.29 195.61 412.38 197.97 414.18 189.1"/><path class="cls-3" d="M63.14,318.59l13.42-16.31,237.24,1.6L348.87,313l-79.78,37L107,337.17Zm506.24,8.49L413.52,328.5l-47.83-24.24,7.09-11,173.44-5.94,19.57,2,42.43,14.53ZM7.28,286.15l30.81,8.2,25.24-12-12.1-2.74-31.66,2.92Z"/><polygon class="cls-4" points="552.65 279.26 556.05 290.58 565.78 289.26 565.69 279.74 556.52 277.19 552.65 279.26"/><polygon class="cls-5" points="546.03 274.93 546.22 287.28 556.05 290.58 556.52 277.19 546.03 274.93"/><polygon class="cls-4" points="381.85 273.7 379.87 290.3 382.51 296.52 392.34 295.2 392.25 280.3 381.85 273.7"/><polygon class="cls-6" points="17.58 0 12.1 81.11 58.13 81.11 59.45 52.72 129.11 61.49 130.25 128.74 56.05 126.66 58.13 81.11 12.1 81.11 6.05 172.12 53.21 172.12 55.39 132.7 128.92 131.38 130.62 197.59 51.42 203.91 53.21 172.12 6.05 172.12 0 261.81 313.89 246.06 329.58 215.79 324.86 59.32 311.81 40.18 167.96 20.56 167.96 65.55 189.04 66.49 194.8 128.27 167.96 128.36 167.96 133.64 193.76 133.64 196.31 187.69 136.39 197.12 138.38 133.64 165.6 133.64 165.6 128.36 135.54 128.36 136.58 64.13 167.96 65.55 167.96 20.56 17.58 0"/><polygon class="cls-7" points="47.83 41.88 45.84 81.11 61.63 81.11 62.95 58.29 125.52 65.36 124.58 120.91 59.45 118.27 61.63 81.11 45.84 81.11 41.3 172.12 57.18 172.12 57.28 156.09 63.04 137.51 124.39 136.85 123.44 192.02 56.9 198.06 57.18 172.12 41.3 172.12 39.13 216.83 205.48 201.17 198.11 60.17 167.96 56.49 167.96 70.17 184.5 72.06 186.86 121.95 167.96 121.57 165.6 136.38 187.62 136.19 189.98 185.99 141.49 190.42 140.93 136.66 165.6 136.38 167.96 121.57 140.74 121.19 140.17 67.06 167.96 70.17 167.96 56.49 47.83 41.88"/><path class="cls-2" d="M880.72,0,900,309.92,409.74,258.23l-95.85-12.16-1-109.31-1-96.58,79.78-5.66V68.19L362,70.92l1.71,130.25,146.12,12.08-2.27-76.4-8.88-78.38L391.59,68.19V34.52l306.52-21.6V51.87l-36.2,2.27,4.35,143,166,24.71-7.09-97.24L812,45l-47.25,2.92V8.21ZM698.11,12.92l66.64-4.71v39.7l-66.64,4Z"/><polygon class="cls-4" points="584.31 276.06 584.31 300.58 592.82 304.35 595.75 298.5 594.42 278.04 584.31 276.06"/><polygon class="cls-5" points="372.31 261.44 372.78 293.22 382.51 296.52 382.99 277.75 405.48 285.68 405.48 305.86 417.11 310.67 421.55 294.17 421.27 274.08 414.84 266.25 387.24 262.76 372.31 261.44"/><polygon class="cls-8" points="431.95 256.91 372.31 261.44 416.92 270.68 435.07 273.61 598.11 269.93 608.13 264.83 568.34 256.91 431.95 256.91"/><polygon class="cls-9" points="431.19 263.23 431.48 260.68 459.74 260.4 459.45 263.42 446.31 266.15 431.19 263.23"/><polygon class="cls-10" points="447.92 257.48 459.74 260.4 445.65 263.51 431.48 260.68 441.59 257.38 447.92 257.48"/><polygon class="cls-9" points="398.77 263.89 398.39 261.53 427.41 261.35 427.03 264.08 413.89 266.81 398.77 263.89"/><polygon class="cls-10" points="395.75 216.64 427.6 216.54 426.09 235.13 414.27 241.16 415.5 258.14 427.41 261.35 413.23 264.17 398.39 261.53 409.74 258.23 410.02 241.25 398.02 235.78 395.75 216.64"/><polygon class="cls-11" points="411.91 213.72 395.75 216.64 412.19 219.09 427.6 216.54 411.91 213.72"/><polygon class="cls-12" points="399.81 223.9 400.76 233.05 412 237.39 423.35 232.39 423.63 223.71 399.81 223.9"/><polygon class="cls-9" points="412 221.64 399.81 223.9 412 225.69 423.63 223.71 412 221.64"/><polygon class="cls-1" points="723.35 54.23 724.29 62.81 679.3 65.45 681.76 184.57 670.32 179.86 670.7 57.25 723.35 54.23"/><path class="cls-7" d="M821,34.9l12.57,79.79,6.9,113.64L656.52,202.4l.1-155,41.49-3.12V59.42l-25.8,1.7L672.4,116l50.85,1.6-2.46-59.7-22.68,1.51V44.23l66.64-5.09V55l-28,1.88,4.16,61.21L814.18,120l-9-67.72L764.75,55V39.14ZM809.64,139.59,817,160.43l2.84,46.4-73.63-10.19-4.06-60.92Zm-83.36,54.32-53.6-7.36-.18-54.89,51.41,3Z"/><path class="cls-7" d="M504.82,52.16l12.29,83.37,5,83.75-166.73-13,.09-141,36.11-3.11V76.21l-21.84,1.41.1,49.89,21.74-1.13v14.81l-21.65.56V154.3l-1.6,15.09,1.7,12.54v9.72l48,2.64-1.6-53.76-24.86.66V126.38l24.19-1.32L415.6,74.6l-24,1.61V62.15ZM490.55,68.09l7.94,58.1L432,125.34,428.36,73Zm3.78,76L501,162.88l2.46,40.18-66.83-8.4L433,141.28Z"/><polygon class="cls-9" points="58.32 259.84 56.24 254.74 46.13 256.16 55.1 271.06 58.32 259.84"/><polygon class="cls-10" points="56.24 254.74 54.35 268.98 64.65 263.14 63.99 255.87 56.24 254.74"/><polygon class="cls-10" points="20.23 267.85 24.29 272.19 39.13 278.23 44.99 270.02 49.53 258.8 46.13 256.16 42.63 253.23 37.43 254.74 26.94 257.76 23.44 258.99 20.23 267.85"/><polygon class="cls-11" points="36.77 270.87 39.89 274.55 42.16 276.34 50.19 277.94 54.35 268.89 52.55 260.5 44.71 260.97 36.77 270.87"/><polygon class="cls-9" points="62.29 271.91 54.25 268.89 46.88 275.59 45.18 279.26 49.53 282.28 61.91 280.3 62.29 271.91"/><polygon class="cls-9" points="32.99 275.77 24.29 272.19 36.77 270.87 46.88 275.59 32.99 275.77"/><polygon class="cls-10" points="24.29 272.19 19.57 282.56 36.39 285.02 49.53 282.28 46.88 275.59 24.29 272.19"/><polygon class="cls-13" points="31.66 264.46 35.35 260.78 36.39 261.81 33.08 265.49 31.66 264.46"/><polygon class="cls-13" points="45.18 263.99 44.71 260.97 49.53 258.8 52.55 260.5 51.13 264.55 45.18 263.99"/><polygon class="cls-9" points="20.23 267.85 19.57 254.74 26.94 257.76 20.23 267.85"/><polygon class="cls-9" points="37.43 254.74 43.1 247.39 46.13 256.16 37.43 254.74"/><polygon class="cls-13" points="41.97 257.76 42.44 258.8 45.18 258.32 44.99 256.91 41.97 257.76"/><polygon class="cls-9" points="19.57 282.56 49.53 282.28 31.95 286.34 19.57 282.56"/><polygon class="cls-12" points="62.76 276.62 49.53 282.28 63.33 282.38 62.76 276.62"/><polygon class="cls-6" points="431.29 256.91 565.88 266.15 616.26 209.75 633.84 214.47 648.39 325.48 740.74 350 842.53 324.35 850.85 217.77 833.55 114.69 753.97 84.79 655.1 113.65 640.17 172.5 620.04 184.57 632.8 128.17 596.22 20.09 500.85 0 423.44 32.26 419.56 53.29 334.59 91.58 413.8 83.66 399.34 163.07 431.29 256.91"/><polygon class="cls-2" points="439.98 247.67 434.12 231.26 451.89 229.56 514.93 239.09 582.42 224.37 587.24 224.94 558.7 254.65 439.98 247.67"/><polygon class="cls-8" points="72.59 188.44 56.9 198.06 75.61 256.16 207.75 266.06 206.05 203.06 197.83 174.76 72.59 188.44"/><polygon class="cls-5" points="335.92 162.03 314.94 155.81 206.24 174.67 196.31 185.42 201.89 258.8 209.92 268.7 313.89 246.06 335.92 162.03"/><polygon class="cls-14" points="70.42 172.97 56.9 198.06 196.31 185.42 199.15 171.65 188.85 162.79 70.42 172.97"/><polygon class="cls-8" points="188.85 162.79 196.31 185.42 335.92 162.03 312.85 136.76 188.85 162.79"/><polygon class="cls-10" points="322.12 214.85 322.21 200.04 330.25 183.53 352.65 173.16 358.13 174.1 359.93 187.59 322.12 214.85"/><polygon class="cls-6" points="359.55 187.78 352.65 173.16 359.17 170.14 365.31 174.1 367.68 182.4 359.55 187.78"/><polygon class="cls-15" points="363.04 175.61 367.68 182.4 382.61 182.03 382.32 169.77 378.17 165.71 369.94 167.69 363.04 175.61"/><polygon class="cls-16" points="393.67 169.95 382.61 182.03 378.17 165.71 391.59 158.07 393.67 169.95"/><polygon class="cls-11" points="500.76 11.41 436.01 38.76 410.49 158.07 425.9 205.79 436.86 212.11 515.22 230.88 584.69 213.9 604.73 206.17 621.36 128.65 584.5 25.84 500.76 11.41"/><polygon class="cls-9" points="614.93 158.82 605.29 159.39 599.24 169.86 602.65 182.59 590.45 186.93 585.16 204.57 578.45 202.87 578.45 190.42 569.38 183.72 575.24 175.9 571.36 162.6 561.53 161.94 557.94 167.31 555.2 185.71 557.47 198.91 584.88 207.21 604.73 206.17 614.93 158.82"/><polygon class="cls-9" points="410.49 158.07 420.13 158.73 426.18 169.11 422.78 181.84 434.88 186.27 435.82 203.81 441.59 205.04 442.44 185.04 452.08 180.9 446.98 170.8 451.7 159.39 461.53 160.05 466.82 170.24 462.95 180.04 464.75 204 425.9 205.79 410.49 158.07"/><polygon class="cls-1" points="434.12 231.26 514.18 242.39 464.65 226.35 431.29 222.58 434.12 231.26"/><polygon class="cls-7" points="431.29 222.58 514.18 242.39 516.82 231.45 516.64 220.13 452.93 208.72 425.9 205.7 431.29 222.58"/><polygon class="cls-1" points="587.24 224.94 514.18 242.39 516.64 220.13 604.73 206.17 587.24 224.94"/><polygon class="cls-14" points="752.93 95.45 665.41 122.14 666.45 133.17 658.51 147.88 644.33 204.38 661.91 227.01 748.11 228.81 838.94 217.3 827.79 142.23 822.4 131.85 825.14 124.59 752.93 95.45"/><polygon class="cls-7" points="646.13 218.71 668.34 222.02 690.08 214.94 730.15 222.3 752.74 224.75 743.95 231.73 750.57 243.05 726.47 263.89 699.15 296.71 658.32 317.56 646.13 218.71"/><polygon class="cls-2" points="646.13 218.71 675.42 223.81 692.06 216.26 729.39 224.28 752.74 224.75 687.05 213.15 670.04 216.83 644.33 204.38 646.13 218.71"/><polygon class="cls-12" points="655.67 234.28 665.6 233.99 662.86 296.52 659.74 295.39 651.32 237.29 655.67 234.28"/><polygon class="cls-12" points="672.21 231.26 676.75 228.71 683.46 228.33 679.21 258.61 672.21 231.26"/><polygon class="cls-9" points="655.95 237.58 665.6 233.99 669.19 290.3 662.86 296.52 655.95 237.58"/><polygon class="cls-9" points="683.46 228.33 676.84 230.79 679.87 245.03 683.18 240.22 683.46 228.33"/><polygon class="cls-10" points="649.9 249.37 683.37 233.33 683.18 238.99 680.06 242.86 651.04 258.61 649.9 249.37"/><polygon class="cls-10" points="654.63 287.94 653.4 277.94 679.21 258.61 680.81 261.72 678.92 265.21 654.63 287.94"/><polygon class="cls-7" points="838.38 226.07 826.18 217.68 810.87 212.4 752.74 224.75 744.9 232.3 755.1 242.01 750.95 263.04 782.99 285.87 832.14 313.6 838.38 226.07"/><path class="cls-3" d="M659.74,295.39l3.12,1.13,6.33-6.22L665.31,305Zm159-16.22,9.26,5.47-6.24,8.58Z"/><polygon class="cls-2" points="771.36 219 752.74 224.75 810.02 214.19 838.38 226.07 838.94 217.3 813.33 210.98 771.36 219"/><polygon class="cls-13" points="827.98 221.83 821.83 222.39 827.32 229.28 824.48 284.92 827.98 284.64 836.11 224.84 827.98 221.83"/><polygon class="cls-12" points="831.38 225.98 821.83 222.39 821.08 238.24 816.35 247.2 819.85 263.8 818.72 279.17 824.48 284.92 831.38 225.98"/><polygon class="cls-9" points="837.52 237.77 804.07 222.2 804.16 227.39 808.23 230.03 836.77 248.24 837.52 237.77"/><polygon class="cls-9" points="834.78 277.19 835.54 266.34 808.13 247.01 806.62 250.12 808.51 253.71 834.78 277.19"/><polygon class="cls-2" points="658.32 317.56 690.64 292.56 721.17 253.23 742.06 242.48 746.41 238.62 740.74 232.01 752.74 224.75 747.45 231.64 762.57 238.24 756.62 254.65 768.9 264.36 796.98 282 832.14 313.6 744.61 339.34 658.32 317.56"/><polygon class="cls-3" points="763.42 315.29 768.62 321.8 792.44 325.29 825.99 315.76 793.48 307.65 766.73 306.24 763.42 315.29"/><g id="_375458296" data-name=" 375458296"><polygon class="cls-3" points="686.11 317.74 693.95 324.25 713.23 327.27 727.22 323.21 742.25 317.46 716.54 310.95 704.73 311.24 686.11 317.74"/><polygon class="cls-4" points="721.46 320.76 732.23 316.42 731.95 313.97 722.02 315.58 714.84 316.8 714.84 319.44 721.46 320.76"/><polygon class="cls-17" points="727.88 314.25 726.94 316.05 721.83 318.03 714.84 316.8 716.54 310.95 720.04 308.78 724.39 311.43 727.88 314.25"/><polygon class="cls-18" points="724.57 303.5 724.39 311.43 716.54 310.95 715.78 306.99 718.62 301.71 724.57 303.5"/><polygon class="cls-12" points="778.26 318.12 785.63 307.65 790.45 314.35 786.86 316.99 778.26 318.12"/><polygon class="cls-9" points="785.16 308.41 787.43 313.41 791.02 314.54 794.71 313.41 793.48 307.65 788.66 305.11 785.16 308.41"/><polygon class="cls-4" points="695.37 319.91 695.37 317.56 699.43 315.86 706.71 317.08 706.81 319.73 695.37 319.91"/><polygon class="cls-17" points="695.37 317.56 706.71 317.08 704.73 311.24 701.13 309.07 696.88 311.71 695.37 317.56"/><polygon class="cls-18" points="696.6 303.6 696.88 311.71 704.73 311.24 705.39 306.14 702.17 302.09 696.6 303.6"/><polygon class="cls-19" points="705.39 306.14 696.6 303.6 703.5 301.15 705.77 303.31 705.39 306.14"/><polygon class="cls-19" points="717.96 301.15 715.12 303.03 715.78 306.99 724.48 304.26 724.57 302.65 717.96 301.15"/><polygon class="cls-12" points="798.58 317.74 801.13 309.82 804.63 308.03 808.79 310.01 810.21 317.08 804.35 318.69 798.58 317.74"/><polygon class="cls-5" points="724.39 311.43 726.94 316.05 731.95 313.97 724.39 311.43"/><polygon class="cls-13" points="778.73 320.48 778.26 318.12 787.43 313.41 794.71 313.41 795.46 315.95 778.73 320.48"/><polygon class="cls-13" points="798.39 320.29 798.58 317.74 810.21 317.08 810.21 319.82 798.39 320.29"/><polygon class="cls-20" points="788.66 315.67 795.46 315.95 786.58 319.54 778.73 320.48 788.66 315.67"/></g><polygon class="cls-16" points="772.68 179.48 772.12 189.38 770.42 190.61 766.54 189.29 772.68 179.48"/><polygon class="cls-15" points="774.39 170.9 769.66 194.29 770.51 195.14 769.38 195.7 767.49 195.99 768.34 203.44 778.64 206.74 793.95 207.4 800.19 205.13 801.42 191.18 784.69 170.71 774.39 170.9"/><polygon class="cls-16" points="794.71 188.53 790.93 190.7 778.64 206.74 785.26 210.79 794.71 209.47 800.19 205.13 799.43 191.84 794.71 188.53"/><path class="cls-21" d="M795.65,194.66l-4.72-4,4.72.1,1.89,1.6Z"/><polygon class="cls-7" points="781.85 153.07 770.32 161.65 773.73 174.2 780.81 161.84 781.85 153.07"/><polygon class="cls-22" points="791.97 156.84 781.85 153.07 773.73 174.2 788.75 163.35 791.97 156.84"/><polygon class="cls-23" points="814.75 165.24 791.97 156.84 773.73 174.2 785.26 171.65 804.44 171.18 814.75 165.24"/><polygon class="cls-24" points="790.93 190.7 785.26 171.65 801.42 168.07 796.41 182.88 790.93 190.7"/><polygon class="cls-25" points="818.53 185.89 814.75 165.24 801.42 168.07 794.52 182.78 797.54 192.4 806.14 193.06 818.53 185.89"/><polygon class="cls-26" points="800.19 205.04 818.53 185.89 797.54 192.4 800.19 205.04"/><polygon class="cls-4" points="767.77 180.8 770.61 190.51 772.21 189.95 771.74 188.34 793.67 184.76 794.71 183.91 794.52 182.78 771.27 186.55 769.47 180.33 767.77 180.8"/><polygon class="cls-15" points="797.54 192.4 790.93 190.7 794.52 182.78 802.08 184.95 797.54 192.4"/><polygon class="cls-21" points="794.71 188.53 796.13 185.71 798.96 186.46 794.71 188.53"/><polygon class="cls-1" points="772.68 179.48 775.05 177.5 779.11 178.82 772.68 179.48"/><path class="cls-25" d="M774.86,182.59a1.43,1.43,0,0,1,1.23,1.42,1.28,1.28,0,0,1-1.42,1.13,1.35,1.35,0,0,1-1.23-1.42A1.28,1.28,0,0,1,774.86,182.59Z"/><polygon class="cls-21" points="769.66 194.29 776.28 193.53 776.47 194.95 769.38 195.7 769.66 194.29"/><polygon class="cls-17" points="682.7 281.53 678.26 280.87 676.94 274.08 680.91 274.36 684.12 275.21 682.7 281.53"/><polygon class="cls-4" points="762.85 262.19 767.01 310.58 771.55 310.01 768.9 264.36 771.64 263.32 774.01 262.29 774.48 263.99 775.71 267.38 780.53 265.49 779.3 259.84 776.56 258.61 765.78 258.8 762.85 262.19"/><polygon class="cls-15" points="773.16 258.7 762.85 260.02 770.32 255.5 776.84 251.82 777.79 257.76 773.16 258.7"/><polygon class="cls-16" points="776.84 251.82 771.64 263.32 774.48 263.99 779.3 259.84 776.84 251.82"/><polygon class="cls-21" points="747.73 267.38 743.95 265.49 743.38 271.06 749.34 273.61 747.73 267.38"/><polygon class="cls-16" points="750.28 262.38 743.95 265.49 749.34 273.61 755.2 267.94 753.4 264.55 750.28 262.38"/><polygon class="cls-17" points="730.53 192.12 733.08 191.46 728.83 180.42 728.07 187.4 730.53 192.12"/><polygon class="cls-2" points="425.9 205.7 515.6 225.88 604.73 206.17 518.9 187.69 425.9 205.7"/><polygon class="cls-3" points="531.1 199 569 206.93 548.77 215.04 497.07 216.64 460.3 208.44 462.38 204.19 531.1 199"/><polygon class="cls-23" points="540.45 167.78 533.18 181.56 527.22 175.99 524.1 164.48 524.86 156.84 532.89 156.66 540.74 160.71 540.45 167.78"/><polygon class="cls-25" points="524.86 156.84 540.45 167.78 551.23 165.9 563.14 156.84 524.86 156.84"/><polygon class="cls-8" points="538.28 115.82 537.71 132.04 543.38 130.63 549.72 116.76 543.95 114.21 538.28 115.82"/><polygon class="cls-24" points="522.02 151.66 516.26 141.09 517.2 133.64 521.64 130.25 524.95 133.93 526.56 140.43 526.47 148.83 526.84 152.41 524.86 156.84 522.02 151.66"/><polygon class="cls-23" points="529.59 134.49 529.11 114.88 522.4 128.83 516.73 132.98 516.26 141.09 526.47 140.43 529.59 134.49"/><polygon class="cls-17" points="523.16 136.85 521.36 140.72 525.99 145.24 526.94 136.66 523.16 136.85"/><polygon class="cls-4" points="54.25 268.89 77.32 263.99 310.87 275.11 328.92 278.61 308.6 312.75 225.52 311.14 80.34 307.94 54.25 268.89"/><polygon class="cls-5" points="54.25 268.89 63.99 255.87 97.64 256.63 152.36 257.86 310.49 260.97 322.02 261.25 328.92 278.61 175.52 273.13 54.25 268.89"/><path class="cls-3" d="M124.1,308.88l15.5-37L108.7,300.2l4.72,8.58ZM72.78,220.13l5-24L103.31,229l-5.67,27.63-11-.28Zm201.79,92L265,276.34l15.69-12L263.89,260l-38.37,2.08,3.12,50.27,30.06-.57Z"/><polygon class="cls-18" points="147.83 166.09 126.65 163.07 145.56 196.36 142.91 209.09 148.96 210.13 155.01 202.78 147.83 166.09"/><polygon class="cls-17" points="155.01 202.78 142.91 209.09 146.31 220.41 159.07 211.64 155.01 202.78"/><polygon class="cls-27" points="95.75 306.33 101.61 299.92 106.14 306.99 98.68 315.29 95.75 306.33"/><polygon class="cls-19" points="101.61 299.92 107 300.3 111.15 302.56 113.61 310.29 112.29 313.69 104.25 318.4 101.61 299.92"/><polygon class="cls-10" points="112.38 319.91 106.43 316.23 113.14 308.69 120.42 316.05 112.38 319.91"/><polygon class="cls-17" points="143.76 267.48 111.15 302.56 101.61 299.92 113.99 270.59 130.25 252.86 140.64 258.42 143.76 267.48"/><polygon class="cls-9" points="208.6 202.4 209.83 216.17 220.42 225.5 232.61 213.72 240.17 190.14 234.12 162.22 208.6 202.4"/><polygon class="cls-10" points="178.17 210.41 208.6 202.4 220.42 225.5 184.69 224.47 177.51 216.45 178.17 210.41"/><polygon class="cls-6" points="170.51 212.4 178.17 210.41 184.69 224.47 172.97 224.19 169.19 219.38 170.51 212.4"/><polygon class="cls-21" points="161.44 225.79 172.97 224.19 170.51 212.4 158.88 210.41 158.22 217.11 161.44 225.79"/><polygon class="cls-17" points="173.35 206.93 170.51 212.4 159.83 216.17 155.01 202.78 165.03 203.06 173.35 206.93"/><polygon class="cls-18" points="160.49 198.25 155.01 202.78 173.35 206.93 170.7 203.06 160.49 198.25"/><polygon class="cls-9" points="322.12 214.85 307.09 203.53 304.35 199.76 295.27 155.81 296.98 150.62 330.25 183.53 322.12 214.85"/><polygon class="cls-16" points="278.36 151.47 281 143.45 297.64 93.65 277.13 51.59 274.76 66.59 273.44 134.3 270.13 149.68 269.85 158.35 278.36 151.47"/><polygon class="cls-21" points="257.66 154.49 247.83 150.43 237.43 136 239.6 134.21 273.25 131.38 275.71 132.7 269.85 158.35 257.66 154.49"/><polygon class="cls-24" points="215.41 103.93 198.11 60.17 201.23 59.23 210.59 60.74 212.19 63.57 215.41 103.93"/><polygon class="cls-15" points="210.59 60.74 217.11 137.7 275.8 132.61 277.22 51.5 210.59 60.74"/><polygon class="cls-21" points="290.93 113.74 294.33 103.65 281.85 103.75 290.93 113.74"/><polygon class="cls-25" points="240.26 74.6 198.11 60.17 217.2 32.73 220.13 31.5 240.26 70.26 261.15 30.27 264.75 28.86 288.56 44.52 287.62 46.12 272.4 56.21 270.32 55.93 240.26 74.6"/><polygon class="cls-23" points="237.71 11.41 264.75 28.86 240.26 74.6 217.2 32.73 237.71 11.41"/><path class="cls-25" d="M307.66,74.79l-19.1-30.18-2.83,4.53s-4,31.69-4.07,32.06a34.59,34.59,0,0,0,.57,3.68l12.1,18.77Z"/><polygon class="cls-24" points="282.23 84.88 270.32 55.93 288.56 44.52 282.23 84.88"/><polygon class="cls-15" points="281.85 103.75 294.33 103.65 297.45 83.94 282.23 84.88 281.85 103.75"/><polygon class="cls-21" points="285.63 97.24 285.92 88.09 293.48 87.81 285.63 97.24"/><polygon class="cls-16" points="235.54 104.69 223.44 89.41 213.8 83.09 234.97 82.05 238.75 86.02 244.42 80.73 252.17 78.28 270.8 76.68 256.62 83.94 245.94 102.71 235.54 104.69"/><polygon class="cls-21" points="240.64 109.12 235.54 104.69 245.94 102.71 240.64 109.12"/><polygon class="cls-28" points="234.97 82.05 235.54 104.69 245.94 102.71 244.42 80.73 234.97 82.05"/><polygon class="cls-25" points="230.81 82.24 217.96 76.11 213.8 83.09 230.81 82.24"/><polygon class="cls-25" points="251.89 78.38 265.79 69.6 270.8 76.68 251.89 78.38"/><path class="cls-27" d="M252.77,90.13a3.09,3.09,0,1,1,3.36,2.93A3.14,3.14,0,0,1,252.77,90.13Z"/><path class="cls-27" d="M221.4,93.64a3.09,3.09,0,1,1,3.36,2.93A3.15,3.15,0,0,1,221.4,93.64Z"/><polygon class="cls-21" points="229.96 116.19 262 111.48 255.48 124.21 236.67 126.66 229.96 116.19"/><polygon class="cls-29" points="234.88 118.08 257.37 114.5 253.88 121.48 237.9 123.46 234.88 118.08"/><polygon class="cls-12" points="234.12 162.22 245.56 156.94 247.45 159.77 250.38 177.03 269 188.34 271.08 191.36 260.49 234.09 249.62 239.18 228.45 237.2 234.12 162.22"/><polygon class="cls-10" points="285.26 151.28 296.98 150.62 307.09 203.53 313.89 246.06 277.79 241.16 260.49 234.09 268.9 189.66 268.9 187.31 285.44 174.2 284.03 155.52 285.26 151.28"/><polygon class="cls-10" points="257.09 166.37 245.56 156.94 248.02 178.16 268.9 189.66 257.09 166.37"/><polygon class="cls-12" points="277.41 164.48 285.26 151.28 287.52 174.95 268.9 189.66 277.41 164.48"/><polygon class="cls-6" points="265.12 152.79 257.09 166.37 245.56 156.94 247.83 150.43 265.12 152.79"/><polygon class="cls-6" points="285.26 151.28 281 143.45 265.12 152.79 277.41 164.48 285.26 151.28"/><polygon class="cls-2" points="273.44 176.27 263.04 178.06 257.09 166.37 265.12 152.79 277.41 164.48 273.44 176.27"/><polygon class="cls-25" points="265.31 169.48 259.55 162.13 265.12 152.79 273.82 160.99 269.56 168.92 267.58 170.05 265.31 169.48"/><polygon class="cls-24" points="268.9 189.66 262.76 177.59 265.31 169.48 269.56 168.92 273.44 176.27 268.9 189.66"/><polygon class="cls-30" points="198.02 310.58 216.16 296.71 222.87 295.3 230.62 298.88 230.53 310.86 224.01 312.65 203.5 313.03 198.02 310.58"/><polygon class="cls-4" points="198.02 310.58 230.53 310.86 230.72 314.07 224.57 315.76 198.02 315.39 198.02 310.58"/><polygon class="cls-30" points="224.39 315.67 230.44 318.03 255.29 318.69 258.7 316.42 258.51 302.28 252.46 296.81 244.14 300.3 224.39 315.67"/><polygon class="cls-24" points="303.5 248.24 289.79 240.69 260.49 234.09 228.45 237.29 260.02 266.72 310.49 260.97 303.5 248.24"/><polygon class="cls-24" points="205.39 251.44 231.95 266.72 235.63 266.25 243.76 246.73 228.45 237.29 194.99 240.69 205.39 251.44"/><polygon class="cls-25" points="194.99 240.69 216.16 296.71 230.62 298.88 235.63 266.25 194.99 240.69"/><polygon class="cls-25" points="267.58 265.87 228.45 237.29 244.14 300.3 258.51 302.28 267.58 265.87"/><polygon class="cls-25" points="266.82 200.98 261.63 204.38 265.03 210.13 270.89 206.26 266.82 200.98"/><polygon class="cls-25" points="263.99 215.88 258.79 219.28 262.19 225.03 268.05 221.17 263.99 215.88"/><polygon class="cls-12" points="101.61 299.92 95.56 307.27 101.51 319.06 107.47 321.23 120.7 320.1 120.42 316.05 106.43 316.23 101.61 299.92"/><polygon class="cls-17" points="100.19 319.06 100.85 312.37 99.62 303.13 93.86 298.98 89.04 300.01 92.44 321.05 100.19 319.06"/><polygon class="cls-18" points="95.75 267.38 89.04 300.01 99.62 303.13 130.25 252.86 108.22 256.16 95.75 267.38"/><polygon class="cls-13" points="164.75 244.18 143.76 267.48 127.98 256.54 147.64 238.9 164.75 244.18"/><polygon class="cls-13" points="84.5 238.52 90.64 231.54 105.67 226.07 101.89 246.54 97.83 256.82 84.5 238.52"/><polygon class="cls-12" points="164.75 244.18 153.03 237.48 129.11 228.24 103.31 229 95.75 267.38 164.75 244.18"/><polygon class="cls-9" points="103.31 229 136.39 227.01 156.24 233.24 164.75 244.18 103.31 229"/><polygon class="cls-12" points="87.71 227.39 84.5 238.52 103.31 229 94.52 224.47 87.71 227.39"/><polygon class="cls-18" points="135.82 222.3 134.22 225.13 136.86 231.73 156.24 233.24 146.31 220.41 135.82 222.3"/><polygon class="cls-12" points="94.05 212.68 89.7 207.4 118.81 198.63 150 195.99 135.82 222.3 94.05 212.68"/><polygon class="cls-9" points="87.71 186.74 105.01 180.04 122.78 182.97 131.95 180.04 139.41 180.99 150 195.99 89.7 207.4 87.71 186.74"/><polygon class="cls-10" points="94.8 164.2 87.71 186.74 122.78 183.06 114.27 173.63 94.8 164.2"/><polygon class="cls-17" points="89.98 207.3 135.82 222.3 136.86 231.73 103.31 229 87.71 227.39 87.15 215.51 89.98 207.3"/><polygon class="cls-18" points="70.42 172.97 87.71 227.39 94.61 165.43 70.42 172.97"/><polygon class="cls-10" points="126.65 163.07 123.91 172.41 122.78 182.97 139.41 180.99 126.65 163.07"/><polygon class="cls-20" points="57.28 156.09 94.61 165.43 91.31 147.41 78.45 134.3 67.2 142.32 57.28 156.09"/><polygon class="cls-13" points="70.04 83.19 57.28 156.09 76.56 137.51 77.6 110.82 70.04 83.19"/><polygon class="cls-12" points="76.56 137.51 85.16 127.61 89.7 114.78 77.79 86.67 70.04 83.19 76.56 137.51"/><polygon class="cls-20" points="159.74 141.47 145.75 101.67 138.38 133.64 141.12 159.01 159.74 141.47"/><polygon class="cls-19" points="99.62 161.84 97.17 163.82 98.77 167.97 122.78 182.97 127.13 160.52 99.62 161.84"/><polygon class="cls-18" points="108.6 100.44 89.7 114.78 90.17 140.91 101.89 163.26 141.12 159.01 145.75 101.67 135.92 91.86 108.6 100.44"/><polygon class="cls-17" points="89.7 114.78 80.81 130.25 79.87 131.76 85.73 147.51 94.61 165.43 98.77 167.97 101.89 163.26 89.7 114.78"/><polygon class="cls-19" points="85.73 147.51 87.71 135.25 83.46 139.49 83.18 142.79 85.73 147.51"/><polygon class="cls-18" points="87.71 135.25 83.18 142.79 76.56 137.51 82.04 128.08 87.71 135.25"/><polygon class="cls-17" points="107.56 114.97 98.02 116.38 110.49 122.8 117.2 137.51 118.81 118.65 117.11 116.95 107.56 114.97"/><polygon class="cls-17" points="125.9 118.93 127.13 116.48 134.88 113.55 143.1 112.99 134.22 120.25 126.18 137.23 125.9 118.93"/><path class="cls-27" d="M109.26,127.7a3.35,3.35,0,1,0-3.4-3.39A3.36,3.36,0,0,0,109.26,127.7Z"/><path class="cls-27" d="M136.11,125.72a3.08,3.08,0,0,0,3.12-3.11,3,3,0,0,0-3.12-3,3.07,3.07,0,0,0-3.12,3A3.14,3.14,0,0,0,136.11,125.72Z"/><polygon class="cls-9" points="117.58 152.22 108.88 145.53 119.19 148.73 123.63 148.73 131.66 145.15 125.24 151.85 117.58 152.22"/><polygon class="cls-29" points="118.15 149.96 108.88 145.53 123.91 144.87 131.66 145.15 124.58 149.68 118.15 149.96"/><polygon class="cls-20" points="108.88 145.53 124.29 143.55 131.66 145.15 123.35 146.47 108.88 145.53"/><polygon class="cls-13" points="113.7 57.91 70.04 83.19 77.13 95.64 93.19 95.64 100 91.48 113.42 78.38 113.7 57.91"/><polygon class="cls-12" points="157.28 81.2 113.7 57.91 77.13 95.64 125.24 90.45 157.28 81.2"/><polygon class="cls-13" points="145.75 101.67 132.7 93.47 137.71 88.56 157.28 81.2 145.75 101.67"/><polygon class="cls-20" points="89.7 114.78 77.13 95.64 157.28 81.2 89.7 114.78"/><polygon class="cls-19" points="79.68 136.76 84.03 136.09 79.58 132.23 79.68 136.76"/><polygon class="cls-31" points="126.18 137.23 127.13 116.48 117.11 116.95 117.2 137.51 122.4 138.45 126.18 137.23"/><polygon class="cls-19" points="122.02 140.34 117.2 137.51 126.18 137.23 122.02 140.34"/><polygon class="cls-20" points="98.02 116.38 109.55 112.89 117.11 116.95 98.02 116.38"/><polygon class="cls-20" points="127.13 116.48 134.22 110.91 143.1 112.99 127.13 116.48"/><polygon class="cls-16" points="556.9 114.21 557.75 111.57 565.31 89.13 556.33 70.83 555.29 77.34 554.73 106.76 553.78 111.48 553.88 113.74 556.9 114.21"/><polygon class="cls-21" points="546.5 114.12 540.83 113.08 539.13 107.52 540.08 106.67 554.63 105.44 555.77 106.01 553.88 113.74 546.5 114.12"/><polygon class="cls-24" points="529.59 93.56 522.02 74.51 523.35 74.13 527.5 74.79 528.17 76.02 529.59 93.56"/><polygon class="cls-15" points="527.5 74.79 530.34 108.27 555.77 106.01 556.43 70.73 527.5 74.79"/><polygon class="cls-21" points="562.38 97.8 563.8 93.47 558.41 93.47 562.38 97.8"/><polygon class="cls-25" points="540.36 80.83 522.02 74.51 530.34 62.62 531.57 62.06 540.36 78.94 549.43 61.59 550.95 60.93 561.34 67.72 560.87 68.47 554.35 72.81 553.4 72.72 540.36 80.83"/><polygon class="cls-23" points="539.23 53.38 550.95 60.93 540.36 80.83 530.34 62.62 539.23 53.38"/><path class="cls-25" d="M569.66,80.92l-8.32-13.2-1.23,2s-1.7,13.77-1.79,14,.28,1.6.28,1.6l5.2,8.2Z"/><polygon class="cls-24" points="558.6 85.26 553.4 72.72 561.34 67.72 558.6 85.26"/><polygon class="cls-15" points="558.41 93.47 563.8 93.47 565.22 84.88 558.6 85.26 558.41 93.47"/><polygon class="cls-16" points="560.02 90.64 560.21 86.67 563.52 86.49 560.02 90.64"/><polygon class="cls-16" points="538.28 93.84 533.08 87.24 528.83 84.5 538.09 84.03 539.7 85.73 542.15 83.47 545.56 82.43 553.59 81.68 547.45 84.88 542.82 92.99 538.28 93.84"/><polygon class="cls-16" points="540.45 95.82 538.28 93.84 542.82 92.99 540.45 95.82"/><polygon class="cls-28" points="538.09 84.03 538.28 93.84 542.82 92.99 542.15 83.47 538.09 84.03"/><polygon class="cls-25" points="536.29 84.13 530.63 81.49 528.83 84.5 536.29 84.13"/><polygon class="cls-25" points="545.37 82.43 551.42 78.66 553.59 81.68 545.37 82.43"/><polygon class="cls-16" points="535.92 98.84 549.81 96.86 546.98 102.33 538.75 103.46 535.92 98.84"/><polygon class="cls-29" points="538 99.69 547.73 98.18 546.22 101.2 539.32 102.05 538 99.69"/><polygon class="cls-20" points="479.49 110.91 495.75 114.4 494.23 107.23 488.66 101.48 483.74 104.97 479.49 110.91"/><polygon class="cls-13" points="485.07 79.32 479.49 110.91 487.81 102.9 489.32 91.11 485.07 79.32"/><polygon class="cls-12" points="487.81 102.9 491.59 98.56 493.57 92.99 488.37 80.83 485.07 79.32 487.81 102.9"/><polygon class="cls-20" points="524.01 104.59 517.86 87.33 514.75 101.2 515.88 112.23 524.01 104.59"/><polygon class="cls-8" points="491.78 115.63 488.66 125.53 490.64 130.15 507.37 134.96 522.4 128.83 509.26 115.35 495.75 114.4 491.78 115.63"/><polygon class="cls-23" points="515.88 126.47 520.32 123.83 516.54 121.29 512.76 123.83 513.71 125.44 515.88 126.47"/><polygon class="cls-5" points="490.64 130.15 522.4 128.83 514.18 145.34 512.48 147.51 506.14 146.38 496.22 145.06 490.64 130.15"/><polygon class="cls-19" points="509.93 112.89 509.26 115.63 502.18 117.7 499.72 117.33 497.64 115.72 496.22 113.74 502.27 112.42 509.93 112.89"/><polygon class="cls-18" points="501.8 86.77 493.57 92.99 494.9 105.16 498.87 114.12 515.88 112.23 517.86 87.33 513.61 83 501.8 86.77"/><polygon class="cls-17" points="493.57 92.99 489.7 99.69 489.79 102.8 491.87 107.33 495.75 114.4 497.64 115.72 498.87 114.12 493.57 92.99"/><polygon class="cls-19" points="491.68 102.52 492.72 101.95 491.87 107.33 490.74 105.16 491.68 102.52"/><polygon class="cls-18" points="492.72 101.95 490.74 105.16 487.81 102.9 490.27 98.75 492.72 101.95"/><polygon class="cls-17" points="501.32 93.09 497.17 93.75 502.55 96.48 505.48 102.9 506.24 94.69 505.48 93.94 501.32 93.09"/><polygon class="cls-17" points="509.26 94.78 509.83 93.75 513.14 92.43 516.73 92.24 512.85 95.35 509.45 102.71 509.26 94.78"/><path class="cls-26" d="M502.17,98.75a1.51,1.51,0,0,0,0-3,1.51,1.51,0,1,0,0,3Z"/><path class="cls-26" d="M513.52,98.37a1.29,1.29,0,0,0,1.32-1.32,1.32,1.32,0,0,0-1.32-1.42,1.39,1.39,0,0,0-1.42,1.42A1.37,1.37,0,0,0,513.52,98.37Z"/><polygon class="cls-9" points="501.7 105.82 507.75 108.46 511.63 105.63 507.56 106.58 501.7 105.82"/><polygon class="cls-13" points="503.97 68.28 485.07 79.32 488.09 84.69 495.09 84.69 498.02 82.9 503.88 77.15 503.97 68.28"/><polygon class="cls-12" points="522.97 78.38 503.97 68.28 488.09 84.69 508.98 82.43 522.97 78.38"/><polygon class="cls-13" points="517.86 87.33 512.19 83.75 514.46 81.58 522.97 78.38 517.86 87.33"/><polygon class="cls-20" points="493.57 92.99 488.09 84.69 522.97 78.38 493.57 92.99"/><polygon class="cls-19" points="490.74 102.33 489.41 102.33 489.41 100.16 490.74 102.33"/><polygon class="cls-31" points="509.45 102.71 509.83 93.75 505.48 93.94 505.48 102.9 507.75 103.27 509.45 102.71"/><polygon class="cls-19" points="507.56 104.12 505.48 102.9 509.45 102.71 507.56 104.12"/><polygon class="cls-20" points="497.17 93.75 502.18 92.14 505.48 93.94 497.17 93.75"/><polygon class="cls-20" points="509.83 93.75 512.85 91.39 516.73 92.24 509.83 93.75"/><polygon class="cls-14" points="462.38 204.19 497.45 213.06 504.06 177.69 506.43 157.88 500.66 151.47 494.61 152.22 476.65 168.92 462.38 204.19"/><polygon class="cls-14" points="442.44 185.04 454.25 191.74 468.43 182.5 491.12 150.9 489.6 148.64 482.8 153.26 442.44 185.04"/><polygon class="cls-8" points="454.25 191.74 462.38 204.19 494.61 152.22 493.95 148.83 489.13 149.39 454.25 191.74"/><path class="cls-5" d="M537.34,189.48l-21-39.43-1.7-.28-.09,1.23L519,173.82,531.1,199Z"/><polygon class="cls-8" points="514.56 151 507.09 151.94 506.43 157.88 497.45 213.06 533.37 205.51 514.56 151"/><polygon class="cls-30" points="506.43 157.88 489.13 149.39 495.27 144.87 514.18 145.34 516.35 150.05 506.43 157.88"/><polygon class="cls-5" points="469.28 134.68 474.48 145.81 467.11 158.54 482.8 153.26 484.4 139.87 469.28 134.68"/><polygon class="cls-18" points="479.58 119.4 481.85 142.98 485.63 144.11 489.89 140.15 491.78 115.63 479.58 119.4"/><polygon class="cls-17" points="503.78 134.96 481.85 142.98 482.8 153.26 502.65 141.09 505.01 137.79 503.78 134.96"/><polygon class="cls-2" points="500.19 144.96 503.59 146.28 504.25 140.62 502.65 141.09 500.19 144.96"/><polygon class="cls-2" points="508.32 146.28 511.06 145.24 508.6 141.85 508.32 146.28"/><polygon class="cls-6" points="502.18 147.88 509.45 147.41 508.6 141.85 505.95 140.15 504.25 140.62 502.18 147.88"/><polygon class="cls-9" points="515.12 114.4 519.66 116.29 517.49 118.46 521.27 119.02 518.62 123.27 516.54 121.29 516.35 124.87 510.87 122.42 509.55 119.4 511.34 115.16 514.46 117.52 515.12 114.4"/><polygon class="cls-12" points="502.65 113.65 507.66 113.84 507.09 116.1 511.34 115.16 510.3 120.72 502.84 121 503.59 116.57 502.65 113.65"/><polygon class="cls-10" points="507.09 116.1 505.01 116.57 503.88 118.93 504.25 119.87 506.14 119.97 506.62 119.12 507.09 116.1"/><polygon class="cls-9" points="498.3 121.95 497.73 119.21 500.76 119.87 499.72 117.33 505.01 116.57 504.25 119.87 506.62 119.21 509.36 122.33 505.77 125.16 501.89 124.59 498.3 121.95"/><polygon class="cls-2" points="496.69 121.29 503.78 134.96 505.77 136 507.37 135.91 507.56 126 496.69 121.29"/><polygon class="cls-10" points="506.62 119.12 512.38 119.59 510.87 122.42 514.08 121.95 513.71 125.44 509.26 126.19 505.77 125.16 504.54 121.95 507.56 122.42 506.62 119.12"/><polygon class="cls-6" points="510.21 135.91 505.01 137.79 505.77 125.16 514.93 125.53 510.21 135.91"/><polygon class="cls-2" points="520.32 123.83 513.71 125.44 510.21 135.91 512.76 134.96 520.32 123.83"/><polygon class="cls-18" points="512.76 134.96 503.78 134.96 502.65 141.09 508.6 141.85 511.81 137.98 512.76 134.96"/><polygon class="cls-32" points="512.76 139.21 512.76 134.96 508.6 141.85 512.76 139.21"/><polygon class="cls-10" points="514.46 117.52 517.49 118.46 516.54 121.29 512.38 119.59 514.46 117.52"/><polygon class="cls-12" points="507.56 122.42 510.87 122.42 510.77 125.34 507.56 125.25 507.56 122.42"/><polygon class="cls-10" points="500.76 119.87 504.25 119.87 504.54 121.95 501.04 123.08 500.76 119.87"/><polygon class="cls-23" points="544.24 181.93 540.45 167.78 563.14 156.84 559.92 180.71 551.89 185.71 544.24 181.93"/><polygon class="cls-22" points="529.11 114.88 524.86 156.84 538.09 161.09 542.06 141.56 540.45 130.25 536.39 120.82 529.11 114.88"/><polygon class="cls-23" points="563.89 115.16 549.91 121 540.45 130.25 538.09 161.09 563.14 156.84 563.89 115.16"/><polygon class="cls-25" points="536.67 138.45 539.98 136.09 542.53 138.92 539.6 141.09 536.67 138.45"/><polygon class="cls-23" points="529.11 114.88 540.45 130.25 538.66 112.61 529.11 114.88"/><polygon class="cls-22" points="563.89 115.16 540.45 130.25 548.11 116.19 553.88 113.74 557.37 112.89 563.89 115.16"/><polygon class="cls-22" points="572.59 146.75 563.89 115.16 557.56 140.06 563.33 145.24 572.59 146.75"/><polygon class="cls-24" points="546.69 152.13 572.59 146.75 557.85 138.83 545.65 144.87 544.14 149.02 546.69 152.13"/><polygon class="cls-8" points="541.59 146.28 545.65 144.87 546.69 152.13 542.53 153.07 541.12 150.24 541.59 146.28"/><polygon class="cls-15" points="534.03 143.92 541.59 146.28 542.53 153.07 533.74 153.26 532.61 148.54 534.03 143.92"/><polygon class="cls-16" points="531.19 145.53 534.03 143.92 533.74 153.26 531.95 151.56 531.19 145.53"/><polygon class="cls-5" points="535.54 107.8 543.1 111.57 542.91 115.25 534.31 117.52 535.54 107.8"/><polygon class="cls-5" points="553.21 108.08 545.46 111.39 544.9 115.16 554.44 118.46 553.21 108.08"/><polygon class="cls-30" points="541.97 111.01 546.41 110.91 546.6 115.72 541.97 115.53 541.97 111.01"/><polygon class="cls-4" points="546.98 210.23 547.16 207.59 554.07 206.08 560.77 207.4 560.4 210.32 546.98 210.23"/><polygon class="cls-30" points="547.16 207.59 548.87 199.19 554.25 195.32 557.47 198.91 560.77 207.4 547.16 207.59"/><polygon class="cls-6" points="454.35 108.84 450.28 105.82 457.18 102.99 457.66 107.71 461.91 103.84 464.08 110.54 458.6 111.1 461.44 114.97 455.96 117.42 455.58 112.33 452.08 115.82 448.87 110.16 454.35 108.84"/><polygon class="cls-8" points="454.35 108.84 457.66 107.71 458.6 111.1 455.58 112.33 454.35 108.84"/><polygon class="cls-6" points="472.4 53 468.52 48.57 477.13 47.25 476.37 52.63 482.23 49.42 482.89 57.63 476.56 56.78 478.73 61.96 471.83 63.19 472.78 57.34 467.96 60.36 465.79 53 472.4 53"/><polygon class="cls-8" points="472.4 53 476.37 52.63 476.56 56.78 472.78 57.34 472.4 53"/><polygon class="cls-6" points="525.14 43.67 529.77 38.29 519.38 36.69 520.32 43.2 513.14 39.33 512.29 49.23 520.04 48.29 517.39 54.51 525.71 56.02 524.67 48.95 530.53 52.53 533.08 43.67 525.14 43.67"/><polygon class="cls-8" points="525.14 43.67 520.32 43.2 520.04 48.29 524.67 48.95 525.14 43.67"/><polygon class="cls-6" points="581.48 59.8 584.22 56.59 578.07 55.65 578.64 59.51 574.48 57.25 574.01 63.1 578.54 62.53 576.94 66.11 581.85 67.06 581.19 62.91 584.69 64.98 586.2 59.8 581.48 59.8"/><polygon class="cls-8" points="581.48 59.8 578.64 59.51 578.54 62.53 581.19 62.91 581.48 59.8"/><polygon class="cls-6" points="581.19 101.95 577.6 97.71 585.82 96.39 585.07 101.58 590.64 98.46 591.3 106.29 585.26 105.54 587.33 110.44 580.81 111.67 581.66 106.1 577.03 108.93 574.95 101.95 581.19 101.95"/><polygon class="cls-8" points="581.19 101.95 585.07 101.58 585.26 105.54 581.66 106.1 581.19 101.95"/><polygon class="cls-12" points="724.95 258.99 707.56 255.78 692.44 258.42 686.86 295.49 696.6 303.6 699.15 296.71 703.12 269.83 724.95 258.99"/><polygon class="cls-9" points="733.55 302.37 696.6 303.6 701.61 265.31 724.95 258.99 725.52 258.8 733.55 302.37"/><polygon class="cls-18" points="732.61 249.74 731.66 252.76 743.95 265.49 749.06 263.04 741.49 247.29 732.61 249.74"/><polygon class="cls-5" points="737.52 246.63 726.94 249.84 725.71 219.09 728.07 220.22 729.39 224.28 742.06 242.48 737.52 246.63"/><path class="cls-30" d="M726.37,248.05c.47,0,15.69-5.57,15.69-5.57l-.57,4.81-11.43,6.32Z"/><polygon class="cls-18" points="678.92 265.21 676.94 274.08 684.12 275.21 684.59 269.36 682.04 265.97 678.92 265.21"/><polygon class="cls-18" points="679.11 262.38 679.87 245.03 690.46 253.23 685.16 266.15 681.57 265.59 679.11 262.38"/><polygon class="cls-5" points="690.26 248.05 682.89 247.39 677.79 244.09 683.37 233.24 692.06 216.26 690.26 248.05"/><polygon class="cls-30" points="689.98 246.06 677.79 244.09 679.77 248.42 687.24 251.73 689.98 246.06"/><polygon class="cls-8" points="727.03 256.06 695.94 255.97 687.24 251.73 692.06 216.26 725.71 219.09 730.06 253.61 727.03 256.06"/><polygon class="cls-5" points="710.21 235.97 707 236.63 703.12 245.69 713.42 248.24 713.89 242.29 710.21 235.97"/><polygon class="cls-5" points="710.21 217.21 698.77 220.51 704.16 234.28 713.23 235.97 716.26 229.66 715.69 219.56 710.21 217.21"/><polygon class="cls-30" points="716.26 229.66 704.16 234.28 713.89 242.29 716.26 229.66"/><polygon class="cls-18" points="720.51 204.19 718.43 206.93 718.81 191.93 721.17 182.59 725.52 173.82 727.98 174.76 731.1 196.27 730.72 196.93 731.38 197.97 732.14 203.34 720.51 204.19"/><polygon class="cls-19" points="732.14 203.34 719 202.4 717.3 204.66 718.24 207.68 722.31 207.96 723.82 204.76 732.14 203.34"/><polygon class="cls-17" points="721.17 182.59 720.23 192.12 718.43 206.93 707.94 206.45 710.4 197.59 721.17 182.59"/><path class="cls-19" d="M711.91,195.42l1.23,1.88,4.16-1.13-2.18-2.54S712,195.61,711.91,195.42Z"/><polygon class="cls-12" points="721.17 182.59 718.34 187.78 717.11 191.65 715.12 193.63 711.63 199.95 706.43 194 705.67 188.82 711.91 183.53 721.17 182.59"/><polygon class="cls-13" points="688 178.82 695.56 186.46 705.67 188.82 721.17 182.59 725.05 168.07 723.06 159.49 705.67 166.37 688 178.82"/><polygon class="cls-12" points="696.41 163.35 688 178.82 723.06 159.49 696.41 163.35"/><polygon class="cls-12" points="731.66 170.43 723.06 159.49 720.79 183.25 731.66 170.43"/><polygon class="cls-19" points="725.62 195.23 731.1 196.27 731.38 197.97 725.33 196.74 725.62 195.23"/><polygon class="cls-12" points="728.83 180.42 726.94 178.54 722.4 181.37 728.83 180.42"/><path class="cls-25" d="M726.84,186.46a1.39,1.39,0,0,0,1.23-1.51,1.24,1.24,0,1,0-2.45,0A1.39,1.39,0,0,0,726.84,186.46Z"/><polygon class="cls-19" points="751.32 269.83 749.34 273.61 754.16 271.34 755.2 267.94 751.32 269.83"/><polygon class="cls-16" points="750.66 266.63 746.88 269.74 749.34 273.61 755.2 267.94 750.66 266.63"/><polygon class="cls-9" points="750.28 262.38 753.88 258.32 758.41 260.02 759.17 265.02 755.2 267.94 755.2 267.94 750.28 262.38"/><polygon class="cls-10" points="753.88 258.32 759.17 265.02 776.84 251.82 772.02 239.75 766.92 240.69 753.88 258.32"/><polygon class="cls-24" points="819.85 263.8 812.95 292.66 805.29 296.52 798.49 292.37 796.5 279.45 803.31 268.98 813.71 262.95 819.85 263.8"/><polygon class="cls-23" points="791.12 289.83 785.73 294.26 775.14 291.9 780.53 265.49 792.82 265.97 798.87 269.74 801.51 275.87 791.12 289.83"/><polygon class="cls-25" points="801.51 275.87 819.85 263.8 801.61 258.61 780.53 265.49 801.51 275.87"/><polygon class="cls-10" points="777.03 242.39 776.84 251.82 780.53 265.49 819.47 263.7 821.08 238.24 812.95 215.41 786.48 221.45 777.03 242.39"/><polygon class="cls-9" points="772.31 214.75 766.92 240.69 776.84 251.82 788.47 222.39 781.57 215.7 772.31 214.75"/><polygon class="cls-30" points="792.72 207.3 778.64 206.74 780.34 214.56 788.47 222.39 802.55 220.32 812.95 215.41 813.33 210.98 802.74 208.25 792.72 207.3"/><polygon class="cls-4" points="812.95 215.41 805.29 224.66 788.47 222.39 812.95 215.41"/><polygon class="cls-4" points="772.31 214.75 788.47 222.39 778.64 206.74 771.08 210.04 772.31 214.75"/><polygon class="cls-18" points="715.12 193.63 717.3 196.17 720.23 192.12 718.34 187.78 715.12 193.63"/><polygon class="cls-29" points="733.93 142.6 762.48 145.53 792.53 140.34 812 141.38 826.09 130.63 825.14 124.59 805.77 116.76 782.8 131.94 765.88 131.19 733.93 142.6"/><polygon class="cls-29" points="661.25 137.42 678.36 138.26 698.2 142.04 717.67 137.98 704.16 130.81 686.2 133.83 665.41 122.14 661.25 137.42"/><polygon class="cls-5" points="698.02 211.45 695.84 215.98 698.77 220.51 715.5 216.45 722.31 207.96 705.67 203.53 698.02 211.45"/><polygon class="cls-30" points="725.71 219.09 698.77 220.51 722.31 207.96 726.94 213.81 725.71 219.09"/><polygon class="cls-5" points="732.89 214.56 729.3 218.34 725.71 219.09 722.31 207.96 732.89 214.56"/><polygon class="cls-30" points="729.39 224.28 732.89 214.56 725.71 219.09 729.39 224.28"/><polygon class="cls-30" points="695.37 207.77 698.02 211.45 698.77 220.51 686.67 212.87 690.26 207.49 695.37 207.77"/><polygon class="cls-20" points="682.51 203.53 694.05 200.51 710.02 198.91 711.63 199.95 715.12 206.08 698.02 211.45 682.51 203.53"/><polygon class="cls-12" points="693.48 189.01 682.51 203.53 701.13 196.17 705.67 188.82 693.48 189.01"/><polygon class="cls-13" points="711.63 199.95 705.67 188.82 682.51 203.53 711.63 199.95"/><polygon class="cls-5" points="778.64 206.74 813.33 210.98 800.19 205.04 778.64 206.74"/><polygon class="cls-2" points="661.25 137.42 679.58 136.09 699.43 139.87 717.67 137.98 700.38 143.64 686.48 141.09 658.51 147.88 661.25 137.42"/><polygon class="cls-2" points="733.93 142.6 762.48 145.53 787.43 135.44 826.09 130.63 827.79 142.23 810.49 148.92 792.06 144.02 761.72 150.43 733.93 142.6"/><polygon class="cls-3" points="701.61 265.31 725.52 258.8 692.44 258.42 701.61 265.31"/><polygon class="cls-12" points="679.11 262.38 685.16 266.15 684.59 269.36 678.92 265.21 679.11 262.38"/><polygon class="cls-17" points="686.58 277.28 681.19 272.85 681.76 267.29 684.59 269.36 688.09 275.87 686.58 277.28"/><polygon class="cls-25" points="289.79 240.69 310.49 260.97 313.89 246.06 289.79 240.69"/><polygon class="cls-12" points="662.86 246.54 661.44 249.18 663.61 249.93 665.12 247.67 662.86 246.54"/><polygon class="cls-12" points="665.03 272.19 663.61 274.83 665.78 275.59 667.2 273.32 665.03 272.19"/><polygon class="cls-13" points="825.99 234.84 827.41 237.48 825.24 238.24 823.73 235.97 825.99 234.84"/><polygon class="cls-5" points="725.52 258.99 730.06 253.61 687.24 251.73 692.44 258.42 725.52 258.99"/><polygon class="cls-3" points="776.84 251.82 821.08 238.24 819.85 263.8 780.53 265.49 776.84 251.82"/><polygon class="cls-24" points="775.14 291.9 791.12 289.83 793.48 307.65 785.16 308.41 775.14 291.9"/><polygon class="cls-25" points="798.49 292.37 812.95 292.66 808.79 310.01 801.13 309.82 798.49 292.37"/><polygon class="cls-10" points="98.86 322.46 95.18 319.06 100.85 312.37 107.47 321.23 98.86 322.46"/><polygon class="cls-12" points="89.04 300.01 80.34 307.94 82.99 320.76 87.43 321.89 88.75 315.01 92.06 323.12 106.62 325.67 107.47 321.23 95.18 319.06 89.04 300.01"/><polygon class="cls-4" points="224.39 315.67 258.7 316.42 258.7 321.05 224.39 320.57 224.39 315.67"/><polygon class="cls-15" points="155.01 202.78 164.27 214.66 161.44 225.79 151.23 217.02 155.01 202.78"/><polygon class="cls-24" points="544.24 181.93 559.92 180.71 557.47 198.91 548.87 199.19 544.24 181.93"/><path class="cls-26" d="M532.8,90.54a1.51,1.51,0,0,0,0-3,1.51,1.51,0,0,0,0,3Z"/><path class="cls-26" d="M547.54,88.84a1.42,1.42,0,0,0,0-2.83,1.42,1.42,0,0,0,0,2.83Z"/><polygon class="cls-20" points="688 178.82 705.67 188.82 693.2 189.38 688 178.82"/><polygon class="cls-17" points="723.35 189.95 723.82 187.78 726.09 187.4 723.35 189.95"/><polygon class="cls-16" points="777.5 183.25 779.87 181.84 782.23 183.06 777.5 183.25"/><polygon class="cls-30" points="416.92 270.68 417.11 310.67 433.84 309.63 434.4 286.81 592.82 280.96 592.82 304.35 608.22 303.79 608.13 264.83 416.92 270.68"/><polygon class="cls-10" points="411.53 215.41 404.92 216.64 411.91 217.3 417.96 216.45 411.53 215.41"/><polygon class="cls-16" points="365.69 153.54 359.17 170.14 363.04 175.61 369.94 173.44 369.94 154.3 365.69 153.54"/></g></svg>