<svg id="ILLUSTRATION" xmlns="http://www.w3.org/2000/svg" viewBox="0 0 900 350"><defs><style>.cls-1{fill:#c2977a;}.cls-1,.cls-10,.cls-11,.cls-12,.cls-13,.cls-14,.cls-15,.cls-16,.cls-17,.cls-18,.cls-19,.cls-2,.cls-28,.cls-29,.cls-3,.cls-31,.cls-32,.cls-33,.cls-34,.cls-35,.cls-36,.cls-37,.cls-39,.cls-4,.cls-40,.cls-41,.cls-42,.cls-43,.cls-44,.cls-45,.cls-5,.cls-6,.cls-7,.cls-8,.cls-9{fill-rule:evenodd;}.cls-2{fill:#318ea5;}.cls-3{fill:#74cee4;}.cls-4{fill:#5ebfd8;}.cls-5{fill:#3a9fb9;}.cls-6{fill:#debca4;}.cls-7{fill:#ebebea;}.cls-8{fill:#cecdcc;}.cls-9{fill:#dcdcdb;}.cls-10{fill:#c3c3c3;}.cls-11{fill:#a2a1a1;}.cls-12,.cls-27,.cls-43{fill:#2b2b2b;}.cls-12{opacity:0.1;}.cls-13,.cls-14,.cls-30{fill:#fff;}.cls-13{opacity:0.54;}.cls-15{fill:#72cbcb;}.cls-16{fill:#50a8a9;}.cls-17{fill:#369395;}.cls-18{fill:#8e8e8e;}.cls-19,.cls-24{fill:#6f7273;}.cls-20,.cls-35{fill:#474748;}.cls-21,.cls-34{fill:#51362a;}.cls-22,.cls-31{fill:#755446;}.cls-23,.cls-42{fill:#4f5353;}.cls-25,.cls-32{fill:#916d5a;}.cls-26{fill:#98796a;}.cls-28{fill:#1d7678;}.cls-29{fill:#92d5d5;}.cls-33{fill:#848585;}.cls-36{fill:#e8c9b6;}.cls-37,.cls-38{fill:#8a6651;}.cls-39{fill:#fbe3d4;}.cls-40{fill:#f4cab2;}.cls-41{fill:#c18f7c;}.cls-44{fill:#fff0e8;}.cls-45{fill:#28788b;}</style></defs><title>sentinels_Defender_ISFJ_strengths</title><polygon class="cls-1" points="249.83 193.75 219.5 182.08 190.71 199.58 244.67 204.67 252 199.17 249.83 193.75"/><polygon class="cls-2" points="273.92 202.63 274.54 207.25 282.67 210 282.17 202.13 273.92 202.63"/><polygon class="cls-3" points="267.42 189.13 259.42 182.13 263.92 178 269.04 177 267.42 189.13"/><polygon class="cls-4" points="268.42 192.5 265.04 181.38 269.04 177 282.17 202.13 278.96 205.38 268.42 192.5"/><polygon class="cls-5" points="274.54 207.25 259.42 182.13 265.04 181.38 279.04 205.38 274.54 207.25"/><polygon class="cls-1" points="262.83 199.33 269.42 188.95 282.17 202.17 275.67 208.83 266 208.83 262.83 199.33"/><polygon class="cls-6" points="249.83 193.75 269.42 188.95 266 208.83 244.67 204.67 249.83 193.75"/><g id="thinking_box" data-name="thinking box"><polygon class="cls-7" points="899.5 88.5 737.5 31.5 571.83 57.5 378.5 25.5 260.5 64.5 256.5 180.5 324.5 221.5 528.5 219.5 574.5 210.5 738.19 223.5 850.5 181.5 899.5 88.5"/></g><g id="house"><polygon class="cls-8" points="393.5 126.5 376 162 281.5 150 278 86 297.5 52 377 25.5 393.5 126.5"/><polygon class="cls-8" points="785.17 114.17 736.5 157.5 607.83 150.17 575.17 151.5 571.83 57.5 737.17 30.83 785.17 114.17"/><polygon class="cls-9" points="861.83 135.83 736.5 157.5 737.17 30.83 862.5 75.5 861.83 135.83"/><polygon class="cls-7" points="759.5 57 758 116.5 820 112.5 820.5 62.5 759.5 57"/><polygon class="cls-10" points="766 64.5 765.17 109.5 814.5 107.33 814.67 68.67 766 64.5"/><polygon class="cls-7" points="762.92 88.21 817 89 816.75 94.25 761.63 94.5 762.92 88.21"/><polygon class="cls-9" points="544 142 543 52.5 377 25.5 376 162 544 142"/><polygon class="cls-11" points="807.94 68 802.38 75 801.94 79.81 798.75 85.06 804.06 88.75 814.69 88.94 814.67 68.67 807.94 68"/><polygon class="cls-11" points="799.17 94.25 792 100.63 789.58 105.96 787.42 108.54 814.5 107.33 814.67 94.21 799.17 94.25"/><polygon class="cls-7" points="524.5 64.63 523.75 118.5 490 122 489.63 60.5 524.5 64.63"/><polygon class="cls-10" points="494.75 67 494.63 116.25 518.88 113.88 519.75 69.13 494.75 67"/><polygon class="cls-11" points="519.58 78.67 512 87 511.17 90.17 507.83 94 508.08 99.75 504 108.67 494.63 116.25 518.88 113.88 519.58 78.67"/><polygon class="cls-7" points="505.13 65.38 505.25 117.5 509.75 116.88 510.38 66.25 505.13 65.38"/><polygon class="cls-7" points="492.38 91.13 521.63 90.63 521.75 94.88 492.38 95.25 492.38 91.13"/></g><g id="rock"><polygon class="cls-12" points="785.67 179.83 815.33 168.67 836.33 171.17 820.83 181.67 785.67 179.83"/><polygon class="cls-12" points="626.06 203.25 657.67 193.67 678.67 196.17 659 208.75 626.06 203.25"/><polygon class="cls-10" points="817 166.63 827.75 161.63 827.5 172.63 821.13 178.63 814.75 172.25 817 166.63"/><polygon class="cls-11" points="803.25 168.5 793.75 169.75 797.83 177.33 821.13 178.63 819.75 172 803.25 168.5"/><polygon class="cls-9" points="827.75 161.63 793.75 169.75 819.75 172 827.75 161.63"/><polygon class="cls-10" points="659.58 192.45 671.2 190.08 668.4 200.72 660.8 205.08 656.09 197.39 659.58 192.45"/><polygon class="cls-11" points="645.77 191.07 636.24 190.08 638.66 201.46 660.8 205.08 661.01 198.31 645.77 191.07"/><polygon class="cls-9" points="671.2 190.08 657 186 636.24 190.08 661.01 198.31 671.2 190.08"/></g><polygon class="cls-12" points="617.83 300.83 571.83 313.17 675.83 350.5 740.83 325.83 831.83 312.17 765.5 293.83 617.83 300.83"/><polygon class="cls-12" points="31.83 264.17 0 270.5 100.5 334.83 192.5 319.5 286.5 350.17 570.5 301.5 334.5 246.17 31.83 264.17"/><g id="box"><polygon class="cls-5" points="68.9 201.97 24.77 200.14 28.23 246 64.58 258.5 77.56 244.9 68.9 201.97"/><polygon class="cls-4" points="61.63 206.02 65.27 215.57 64.58 258.5 146.62 252.25 152.5 207.12 61.63 206.02"/><polygon class="cls-3" points="24.77 200.14 109.65 196.73 152.5 207.12 65.27 215.57 24.77 200.14"/><polygon class="cls-13" points="65.62 205.36 38.11 205.5 36.33 217.5 49.51 222.19 50.69 210.23 73.29 208.84 65.62 205.36"/><polygon class="cls-13" points="104.02 200.16 120.53 199.33 132.98 202.39 111.49 203.41 104.02 200.16"/><polygon class="cls-5" points="70.65 155.47 26.52 153.64 29.98 199.5 66.33 212 79.31 198.4 70.65 155.47"/><polygon class="cls-4" points="63.38 159.52 67.02 169.07 66.33 212 148.37 205.75 154.25 160.62 63.38 159.52"/><polygon class="cls-3" points="26.52 153.64 111.4 150.23 154.25 160.62 67.02 169.07 26.52 153.64"/><polygon class="cls-13" points="67.37 158.86 39.86 159 40 170.75 51.26 175.69 52.44 163.73 75.04 162.34 67.37 158.86"/><polygon class="cls-13" points="105.77 153.66 122.28 152.83 134.73 155.89 113.24 156.91 105.77 153.66"/><polygon class="cls-5" points="70.4 108.85 26.27 107.02 29.73 152.88 66.08 165.37 79.06 151.78 70.4 108.85"/><polygon class="cls-4" points="63.13 112.89 66.77 122.45 66.08 165.37 148.12 159.13 154 114 63.13 112.89"/><polygon class="cls-3" points="26.27 107.02 111.15 103.61 154 114 66.77 122.45 26.27 107.02"/><polygon class="cls-13" points="67.12 112.24 39.61 112.38 40 135.38 49.75 137.5 52.19 117.11 74.79 115.71 67.12 112.24"/><polygon class="cls-13" points="105.52 107.04 122.03 106.21 134.48 109.27 112.99 110.29 105.52 107.04"/><polygon class="cls-3" points="792 298 809.5 268 778 256.5 728 262.5 745.5 286.5 792 298"/><polygon class="cls-5" points="793.5 289.5 755.83 314.83 725.5 301.17 730 263 753.83 274.17 793.5 289.5"/><polygon class="cls-4" points="753.83 274.17 755.83 314.83 808.5 309.75 809.5 268 753.83 274.17"/><polygon class="cls-13" points="745.67 266 737.42 266.42 737.42 275.5 744.42 278.83 745.17 270.25 752.33 269.25 745.67 266"/><polygon class="cls-14" points="778.92 260.67 786.67 259.67 794.79 262.63 785.33 263.5 778.92 260.67"/><polygon class="cls-15" points="607.36 286.32 597.83 258.81 660.65 242.89 731.83 253.5 697.9 297.9 607.36 286.32"/><polygon class="cls-16" points="636.82 300.8 676.67 274.74 731.83 253.5 732 315 676.67 339.17 636.82 300.8"/><polygon class="cls-17" points="597.83 258.81 676.67 274.74 676.67 339.17 600.5 314.17 597.83 258.81"/><polygon class="cls-13" points="695.75 259.5 710.5 261.63 710.63 274.5 700.38 279.25 698.38 266.63 682.88 264.38 695.75 259.5"/><polygon class="cls-13" points="648.67 250.17 639.5 253.83 626.5 251.5 641.17 247.83 648.67 250.17"/><polygon class="cls-17" points="69.83 234.17 13.17 230.83 19.17 274.17 65.83 296.83 82.5 272.17 69.83 234.17"/><polygon class="cls-16" points="60.5 241.5 65.17 258.83 65.83 296.83 171.17 285.5 177.17 243.5 60.5 241.5"/><polygon class="cls-15" points="13.17 230.83 93.17 225.5 177.17 243.5 65.17 258.83 13.17 230.83"/><polygon class="cls-13" points="123.42 246.67 130.63 250 130.17 258 111.67 259.67 111.25 252.88 102.75 248.83 123.42 246.67"/><polygon class="cls-13" points="81 229.67 63.25 230.75 57.5 227.75 73.88 226.75 81 229.67"/><polygon class="cls-5" points="107.33 268.21 79.27 266.56 81.47 307.77 104.59 319 112.84 306.78 107.33 268.21"/><polygon class="cls-4" points="102.71 271.84 105.02 280.43 104.59 319 156.76 313.38 160.5 272.83 102.71 271.84"/><polygon class="cls-3" points="79.27 266.56 133.25 263.5 160.5 272.83 105.02 280.43 79.27 266.56"/><polygon class="cls-13" points="105.25 271.25 87.75 271.38 89.25 282.63 95 286.38 95.75 275.63 110.13 274.38 105.25 271.25"/><polygon class="cls-13" points="129.67 266.58 140.17 265.83 148.08 268.58 134.42 269.5 129.67 266.58"/><polygon class="cls-12" points="106.17 137.54 102.75 182.5 136.75 179 134.38 139.38 106.17 137.54"/><polygon class="cls-7" points="106.17 137.54 105.92 178.79 139.92 175.29 137.54 135.67 106.17 137.54"/><polygon class="cls-9" points="120.21 141.63 119.08 133.04 125.08 132.83 124.38 140.75 120.21 141.63"/><polygon class="cls-9" points="129.25 148.69 116.13 149.06 109.31 155.63 113 161.19 116.13 158.19 116 168.5 131.38 167.81 130.25 157.31 133.69 159.63 136.44 154.56 129.25 148.69"/></g><polygon class="cls-17" points="435.75 149.25 449 133.5 454.25 127.25 476.08 143.33 471 150.5 450.25 155 435.75 149.25"/><polygon class="cls-18" points="523.5 210.17 474.25 214.17 473.5 241.42 511.25 252.42 513.25 221.17 523.5 210.17"/><polygon class="cls-11" points="488 175.5 511.83 222.5 545.5 215.83 545.75 177 488 175.5"/><polygon class="cls-18" points="523.5 180 474.25 184 473.5 204.75 511.25 215.75 513.25 191 523.5 180"/><polygon class="cls-10" points="495 179.5 474.25 184 513.25 191 551 183 532.75 170 495 179.5"/><polygon class="cls-11" points="519.25 150.17 546.75 150.42 546.38 155.67 544.5 181.5 513.67 187.83 499 150.67 519.25 150.17"/><polygon class="cls-18" points="512.75 148.17 515.25 155.17 513.67 187.83 474.17 181 473.25 152.67 490.5 146.17 512.75 148.17"/><polygon class="cls-10" points="483.5 144.92 481.5 153.17 515.25 155.17 546.75 150.42 503.25 142.92 483.5 144.92"/><polygon class="cls-19" points="452 176.5 458.83 180.5 464 204.17 434.33 203.5 433.83 183.33 452 176.5"/><polygon class="cls-15" points="417.83 148.5 408.17 160 407.17 180.17 452.83 182.17 458.83 180.5 457.17 147.83 452.17 129.17 417.83 148.5"/><polygon class="cls-15" points="424.19 126.75 419.17 126.63 409.5 134.63 434.56 154 442.06 138.75 424.19 126.75"/><polygon class="cls-20" points="671.57 80.14 661.5 78.25 673.67 107.96 671.57 80.14"/><polygon class="cls-21" points="686.88 130.58 690.67 138.51 700.6 147.11 717.33 132.33 711.07 125.82 708.97 124.91 698.82 128.08 692.92 128.08 686.88 130.58"/><polygon class="cls-22" points="717.39 137.74 706.13 147.94 700.62 146.53 715.23 131.36 711.03 130.31 698.82 128.08 710.12 128.22 710.16 86.09 715.91 88.19 720.5 107.3 723.37 117.66 717.39 137.74"/><polygon class="cls-21" points="723.37 117.66 720.17 110.75 720.27 108.21 724.95 111.1 723.37 117.66"/><polygon class="cls-20" points="712.5 87.95 719.28 106.21 720.74 102.3 724.27 102.3 727.39 100.61 729.94 89.1 725.22 86.13 715.55 86.13 712.5 87.95"/><polygon class="cls-22" points="720.11 100.59 718.12 110.41 724.95 111.1 727.39 100.61 720.11 100.59"/><polygon class="cls-21" points="722.02 102.59 721.43 107.11 725.08 102.59 722.02 102.59"/><polygon class="cls-23" points="678.88 62.88 661.5 78.25 669.61 87.52 672.42 87.28 678.69 78.44 684.5 70.38 678.88 62.88"/><polygon class="cls-24" points="696.88 77.69 679.04 80.66 675.95 77.92 678.88 62.88 708.13 61.25 703.78 66.59 696.88 77.69"/><polygon class="cls-20" points="696.01 78.64 696.01 74.75 708.13 61.25 727.26 71.09 717.93 76.82 704.25 83.83 699.77 80.9 696.01 78.64"/><polygon class="cls-23" points="702.83 83.63 706.84 80.02 727.26 71.09 729.94 89.1 712.5 87.95 708.85 88.31 702.83 83.63"/><polygon class="cls-25" points="672.27 131.1 711.03 130.31 712.5 87.95 696.01 74.75 675.95 77.92 669.61 87.52 672.27 131.1"/><polygon class="cls-22" points="688.31 97.89 685.09 96.5 684.91 93.39 678.08 92.92 675.54 94.58 684.8 108.98 688.31 97.89"/><polygon class="cls-22" points="692.31 96.32 692.22 109.09 702.79 93.42 699.08 91.67 692.53 92.96 692.31 96.32"/><polygon class="cls-21" points="688.13 112.22 684.8 108.98 688.45 108.06 692.22 109.09 688.13 112.22"/><polygon class="cls-26" points="685.09 96.5 692.31 96.32 692.22 109.09 684.8 108.98 685.09 96.5"/><path class="cls-27" d="M682.8,100.62a2.18,2.18,0,1,1-2.18-2.18A2.2,2.2,0,0,1,682.8,100.62Z"/><path class="cls-27" d="M700,99.91a2.18,2.18,0,1,1-4.36,0,2.18,2.18,0,1,1,4.36,0Z"/><polygon class="cls-17" points="664.83 166.33 682.74 142.38 685.06 163.1 681.38 172.97 664.83 166.33"/><polygon class="cls-15" points="690.67 138.51 682.74 142.38 680.75 172.5 688.38 179.5 699.25 173.5 700.38 158.13 700.62 146.53 698.4 147.26 690.67 138.51"/><polygon class="cls-16" points="699 178 700.62 146.53 710.68 145.89 717.39 137.74 728.64 140.96 723.75 174 699 178"/><polygon class="cls-28" points="681 191.5 691.64 211.49 701.86 210.99 716.23 211.49 723 192.75 698.23 188.07 681 191.5"/><polygon class="cls-17" points="681 191.5 701.86 210.99 700 220.67 681.67 218.83 681 191.5"/><polygon class="cls-17" points="701.86 210.99 723 192.75 722.63 204 723.5 222.17 704.67 220.83 701.86 210.99"/><polygon class="cls-29" points="690.67 138.51 700.62 146.53 693.56 152.19 690.67 138.51"/><polygon class="cls-15" points="709.97 153.86 700.62 146.53 717.35 137.72 709.97 153.86"/><polygon class="cls-17" points="724.63 174.25 723 192.75 699.25 191.63 695.5 179.38 699.25 173.5 724.63 174.25"/><polygon class="cls-16" points="681 191.5 680.75 172.5 699.25 173.5 699.25 191.63 681 191.5"/><polygon class="cls-20" points="692.42 89.38 703.17 91.58 702.92 93.38 692.53 92.96 692.42 89.38"/><polygon class="cls-20" points="684.87 89.59 684.91 93.39 675.54 94.58 675.21 93.21 684.87 89.59"/><polygon class="cls-21" points="700.59 115.85 695.75 124.81 685.19 125.5 679.32 116.4 700.59 115.85"/><polygon class="cls-30" points="696.38 117.54 683.21 118.02 684.63 120.69 695.31 120.25 696.38 117.54"/><polygon class="cls-31" points="692.38 158.75 664.83 166.33 674.67 181 694.63 166 696.25 161.13 692.38 158.75"/><polygon class="cls-31" points="698.81 157.28 700.31 152.31 710.53 152.56 710.88 160.69 704.17 163.96 698.81 157.28"/><polygon class="cls-32" points="692.38 158.75 700.31 152.31 704.17 163.96 694.63 166 692.38 158.75"/><polygon class="cls-11" points="721.75 206.08 737.38 205.58 737 199.33 721.25 200.96 721.75 206.08"/><polygon class="cls-10" points="722.13 198.83 738.63 197.33 738.88 202.21 721.88 202.58 722.13 198.83"/><polygon class="cls-10" points="741.5 212.88 738.38 223.63 734.63 223.13 732.88 163.13 743 160.63 741.5 212.88"/><polygon class="cls-8" points="744.63 161 742.63 221.88 738.38 223.63 739.63 161.63 744.63 161"/><polygon class="cls-8" points="714.5 168.63 718.63 221.84 723.49 222.16 725.13 167.63 714.5 168.63"/><polygon class="cls-10" points="717.5 167.75 718.63 221.84 714.15 221.51 712.13 171.88 717.5 167.75"/><polygon class="cls-33" points="719.5 159.88 710 163.25 714.58 172 747.5 162.13 747.5 155.75 719.5 159.88"/><polygon class="cls-19" points="714 162.13 703.38 162 706.94 170.81 714.58 172 713.5 164.5 714 162.13"/><polygon class="cls-18" points="703.38 162 738.75 154.5 747.5 155.75 713.5 164.5 703.38 162"/><polygon class="cls-31" points="735.88 162.5 741.5 170.75 738.63 192.88 734.38 196 729.75 193.63 727.5 169.63 735.88 162.5"/><polygon class="cls-34" points="735.88 162.5 742.63 163.38 741.5 170.75 727.88 174.13 727.5 169.63 735.88 162.5"/><polygon class="cls-17" points="720 158.88 728.64 140.96 742.63 163.38 727.88 174.13 720 158.88"/><polygon class="cls-31" points="737.63 198.75 740.5 201.75 734.19 209.31 726 206 729.5 202.38 737.63 198.75"/><polygon class="cls-31" points="731.42 195.58 729.75 193.63 726.17 198.42 730.83 198.5 731.42 195.58"/><polygon class="cls-32" points="729.75 193.63 738.63 192.88 740.5 201.75 729.5 202.38 729.75 193.63"/><polygon class="cls-2" points="562.52 159.78 559.25 147.75 546.38 150.5 539.38 197.5 560.33 186.83 560.06 176.29 562.52 159.78"/><polygon class="cls-2" points="601.44 154.22 602.25 148.5 608.63 149.75 621.93 177.31 598.78 180.71 601.44 154.22"/><polygon class="cls-2" points="597.76 164.58 604.64 178.75 608 213 579.25 214 555 214.25 556.38 182.38 597.76 164.58"/><polygon class="cls-4" points="572.33 142.5 566.33 145.67 559.25 147.75 556.38 182.38 582.38 197.75 604.64 178.75 606.38 160.38 602.25 148.5 592.13 146.63 572.33 142.5"/><polygon class="cls-6" points="592.74 75.65 605 80.23 610.91 82.89 619 130.08 603.7 135.93 583.9 137.93 575.2 103.99 573.34 88.31 586.62 86.7 592.74 75.65"/><polygon class="cls-1" points="596.06 139.43 598.71 138.53 584.52 138.25 573.34 88.31 565.47 97.92 567.7 105.39 568.83 109.79 568.48 112.77 569.32 117.85 566.41 115.76 564.07 110.68 561.47 114.68 561.51 117.61 563 120.31 565.12 125.01 564 124.92 564.05 131.7 566.33 145.67 586.27 153.28 596.06 139.43"/><polygon class="cls-35" points="613.02 97.62 616.35 81.33 609.46 80.84 613.02 97.62"/><polygon class="cls-1" points="581.55 100.37 592.28 105.94 597.31 114 597.76 106.7 594.3 101.53 592.57 98.86 588.59 98.14 581.55 100.37"/><polygon class="cls-1" points="601.79 97.67 601.73 100.7 600.88 104.53 602.9 109.42 610.33 96.54 606.28 95.05 601.79 97.67"/><polygon class="cls-36" points="601.73 100.7 605.44 112.69 602.5 114.81 597.31 114 594.3 101.53 601.73 100.7"/><polygon class="cls-1" points="567.8 116.22 568.97 119.1 562.37 123.75 557.45 114.46 564.28 108.62 567.8 116.22"/><polygon class="cls-18" points="601.47 86 616.35 81.33 594.47 66.15 582.4 82.36 601.47 86"/><polygon class="cls-19" points="601.47 86 594.47 66.15 581.25 67.17 567.53 80.24 592.99 86.67 601.47 86"/><polygon class="cls-18" points="592.99 86.67 581.25 67.17 559.92 69.67 549.42 87.38 562.69 89.21 573.34 88.31 592.99 86.67"/><polygon class="cls-19" points="549.42 87.38 551.35 107.09 559.07 106.09 565.47 97.92 573.34 88.31 549.42 87.38"/><polygon class="cls-35" points="569.1 93.54 573.01 116.36 568.97 119.1 564.28 109.86 557.45 114.46 551.35 107.09 569.1 93.54"/><polygon class="cls-37" points="560.6 114.81 563.13 113.34 564.78 117.89 560.6 114.81"/><polygon class="cls-37" points="562.37 123.75 566.33 121.17 564.05 131.7 562.37 123.75"/><polygon class="cls-37" points="605.5 112.88 601.5 117.38 597.31 114 605.5 112.88"/><path class="cls-27" d="M609.66,102.38a2.12,2.12,0,1,1-2.12-2.12A2.12,2.12,0,0,1,609.66,102.38Z"/><path class="cls-27" d="M592.68,105a2.12,2.12,0,1,1-2.12-2.12A2.12,2.12,0,0,1,592.68,105Z"/><polygon class="cls-37" points="575.8 139.72 584.25 137.08 619 130.08 598.99 139 586.27 153.28 575.8 139.72"/><polygon class="cls-35" points="592.57 98.86 592.66 95.9 581.33 98.42 581.55 100.37 592.57 98.86"/><polygon class="cls-35" points="601.79 97.67 600.6 95.05 610.25 94.67 610.33 96.54 601.79 97.67"/><polygon class="cls-38" points="590.71 119.81 610.42 117.04 603.03 127.45 590.71 119.81"/><polygon class="cls-30" points="595.85 120.9 606.91 119.28 602.57 124.79 595.85 120.9"/><polygon class="cls-19" points="559.92 69.67 569.75 68.5 584 87.42 573.34 88.31 559.92 69.67"/><polygon class="cls-11" points="607.99 166.05 631.33 169 630 192.5 596.81 197.75 584.62 181.7 590.71 168.69 607.99 166.05"/><polygon class="cls-18" points="599.86 168.89 565.5 164.67 564.38 189.88 596.81 197.75 597.42 174.18 599.86 168.89"/><polygon class="cls-10" points="565.5 164.67 597.42 174.18 631.33 169 605.83 160.5 565.5 164.67"/><polygon class="cls-1" points="574.08 194.17 577.5 192.92 587.5 189.75 588.58 192.83 585 194.92 596.81 197.75 575.75 205.58 574.08 194.17"/><polygon class="cls-5" points="575.75 205.58 539.38 197.5 556.38 182.38 577.5 192.92 575.75 205.58"/><polygon class="cls-6" points="630.31 173.84 631.33 169 633.75 179.88 630.25 188.63 630.31 173.84"/><polygon class="cls-1" points="621.08 176.67 631.33 169 630.25 188.63 623.33 184.75 621.08 176.67"/><polygon class="cls-39" points="470.55 80.23 472.11 95.3 476.7 124.26 456.95 129.93 442.53 135.58 436.54 132.43 434.18 127.9 423.8 105.58 424.15 100.08 423.84 85.73 456.32 83.61 470.55 80.23"/><polygon class="cls-40" points="426.97 87.67 443.05 131.96 460.19 129.18 451.76 132.31 447.93 136.84 439.9 143.75 435.7 140.84 419.17 126.63 421.19 121.91 418.46 121.64 416.93 111.28 424.05 104.08 426.97 87.67"/><polygon class="cls-41" points="418.46 121.64 425.57 117.72 419.17 126.63 418.46 121.64"/><polygon class="cls-41" points="424.51 115.38 422.18 111.09 419.35 112.54 424.51 115.38"/><polyline class="cls-42" points="408.09 91.94 415.75 76.63 433.55 68.92 445.34 79.15 446.67 85.7 426.97 87.67 423.21 91.21 413.13 88.87"/><polygon class="cls-42" points="418.75 99.17 417.92 103.96 416.93 111.28 424.77 107.35 426.98 115.14 432.38 112.25 426.51 100.73 418.75 99.17"/><polygon class="cls-42" points="426.83 92.14 421.8 91.16 410.63 97.75 412.88 102.69 425.1 98.82 426.83 92.14"/><polygon class="cls-42" points="426.83 92.14 412.63 102.25 416.93 111.28 426.51 100.73 426.83 92.14"/><polygon class="cls-35" points="466.07 79.58 469.32 81.01 472.11 95.3 475.86 80.06 466.69 76.99 462.54 77.71 466.07 79.58"/><polygon class="cls-42" points="444.5 71.13 449.36 81.22 455.53 86.39 475.86 80.06 458.88 67.25 444.5 71.13"/><polygon class="cls-19" points="447.5 70.38 455.53 86.39 446.67 85.7 433.55 68.92 447.5 70.38"/><polyline class="cls-42" points="408.09 91.94 410.63 97.75 426.83 92.14 426.97 87.67 413.13 88.87"/><polygon class="cls-41" points="466.54 112.73 450.33 116.74 457.95 121.39 463.81 119.92 466.54 112.73"/><polygon class="cls-14" points="464.11 114.75 454.16 117.16 458.26 119.57 462.56 118.52 464.11 114.75"/><polygon class="cls-40" points="461.25 93.19 467.81 93.25 459.21 107.3 456 109.67 440.69 99.69 446.94 96.06 451.39 96.37 452.56 99.55 456.5 103.09 458.11 98.36 457.61 94.83 461.25 93.19"/><path class="cls-43" d="M461.28,100.42A2.18,2.18,0,1,0,463.15,98,2.18,2.18,0,0,0,461.28,100.42Z"/><path class="cls-43" d="M447.32,103.58a2.17,2.17,0,1,0,1.4-2.74A2.17,2.17,0,0,0,447.32,103.58Z"/><polygon class="cls-41" points="460.22 106.85 462.25 108.54 459.56 111.34 456 109.67 460.22 106.85"/><polygon class="cls-44" points="458.11 98.36 462.25 108.54 456 109.67 452.56 99.55 458.11 98.36"/><polygon class="cls-42" points="457.5 91 457.61 94.83 467.81 93.25 457.5 91"/><polygon class="cls-42" points="451.39 96.37 450 93.13 440.69 99.69 451.39 96.37"/><polygon class="cls-41" points="443.05 131.96 475.41 124.67 454.38 132.21 440.64 145.24 435.7 140.84 434.23 134.96 443.05 131.96"/><polygon class="cls-17" points="451.5 146.88 409.5 134.63 408.17 160 450.25 168 458 161.5 451.5 146.88"/><polygon class="cls-40" points="476.08 143.33 451.5 146.88 450.25 168 481.5 153.17 483.5 139.75 476.08 143.33"/><polygon class="cls-40" points="500.58 134.08 485.58 133.46 488.46 143.71 494.46 147.71 503.08 143.08 500.58 134.08"/><polygon class="cls-39" points="485.58 133.46 476.08 143.33 481.33 153.33 494.46 147.71 485.58 133.46"/><polygon class="cls-18" points="237.75 137.75 192.75 113.75 173.25 125.75 187.5 210.75 184.25 254.25 207.5 264 253.25 175 237.75 137.75"/><polygon class="cls-10" points="192.75 113.75 262.75 109 267.25 220 207 207.5 192.75 113.75"/><polygon class="cls-12" points="356 199 388.5 194.75 447 203.25 469 209.5 411 220.25 356 199"/><polygon class="cls-12" points="352.33 224.83 293.29 200.79 263.54 206.11 265.75 201.63 235.63 197.75 190.71 199.58 249.5 209.67 302 235.67 352.33 224.83"/><polygon class="cls-7" points="296.83 198.33 251 205.88 304.17 230.5 351.17 220.83 296.83 198.33"/><polygon class="cls-9" points="332.33 219.33 306.33 225.42 303.42 224.5 330 218.25 332.33 219.33"/><polygon class="cls-9" points="323.25 214.42 295.58 220.58 293.08 219.58 320.92 213.33 323.25 214.42"/><polygon class="cls-9" points="316.42 210.33 287.5 217 284.5 216.08 314.08 209.25 316.42 210.33"/><polygon class="cls-9" points="307.08 206 284.17 210.83 282.42 209.92 304.75 204.92 307.08 206"/><polygon class="cls-7" points="399.71 195.5 410.83 214.88 452.96 208.25 452.58 200.84 399.71 195.5"/><polygon class="cls-9" points="390.33 195.13 369.91 191.08 370.08 198.88 410.83 214.88 411.76 207 390.33 195.13"/><polygon class="cls-4" points="411.76 207 452.58 200.84 402.52 188 369.91 191.08 411.76 207"/><polygon class="cls-7" points="399.71 186.38 410.83 205.75 452.96 199.13 452.58 191.71 399.71 186.38"/><polygon class="cls-9" points="390.33 186 369.91 181.96 370.08 189.75 410.83 205.75 411.76 197.88 390.33 186"/><polygon class="cls-4" points="411.76 197.88 452.58 191.71 402.52 178.88 369.91 181.96 411.76 197.88"/><polygon class="cls-7" points="399.71 176.88 410.83 196.25 452.96 189.63 452.58 182.21 399.71 176.88"/><polygon class="cls-9" points="390.33 176.5 369.91 172.46 370.08 180.25 410.83 196.25 411.76 188.38 390.33 176.5"/><polygon class="cls-4" points="411.76 188.38 452.58 182.21 402.52 169.38 369.91 172.46 411.76 188.38"/><polygon class="cls-9" points="434.92 180.33 413.25 183.58 401.75 179.83 421.33 177.25 434.92 180.33"/><polygon class="cls-6" points="222.02 173.3 202.33 145.17 190.71 199.58 212.68 191.37 221.67 188.67 222.02 173.3"/><polygon class="cls-16" points="223.27 154.58 220.78 167.33 219.42 181.89 190.32 167.99 202.62 136.74 223.27 154.58"/><polygon class="cls-16" points="283.81 129.84 283.65 146.23 282.18 155.04 283.27 174 304.83 161.17 283.81 129.84"/><polygon class="cls-17" points="283.65 146.23 276.76 141.31 269.38 143.25 262.49 153.01 257.43 163.02 256.48 173.9 254.33 200.08 266.73 196.04 283 190.68 283.32 170.34 283.65 146.23"/><polygon class="cls-28" points="257.43 163.02 248.76 154.8 238.21 148.12 226.94 150.7 220.28 157.07 219.42 181.89 219.42 200 242.83 200.67 258 197 257.43 163.02"/><polygon class="cls-15" points="269.38 143.25 257.43 163.02 238.21 148.12 255.7 140.6 269.38 143.25"/><polygon class="cls-15" points="228.83 132.89 202.62 136.74 220.28 157.07 238.21 148.12 243.5 139.48 228.83 132.89"/><polygon class="cls-15" points="261.38 128.63 269.38 143.25 283.65 146.23 283.81 129.84 261.38 128.63"/><polygon class="cls-6" points="313.33 79.05 299.75 134.73 271.34 130.07 263.26 132.81 264.86 133.37 269.38 143.25 238.21 148.12 228.83 132.89 242.91 99.22 237.28 86.26 251.05 78.87 259.32 96.04 263.14 95.86 254.27 72.27 260.96 69.12 313.33 79.05"/><polygon class="cls-1" points="278.35 83.86 285.25 89.18 286.62 109.39 291.3 94.69 290.76 85.16 278.35 83.86"/><polygon class="cls-1" points="297.56 87.02 307.17 89.51 292.56 100.35 297.56 87.02"/><polygon class="cls-37" points="270.89 107.76 275.28 119.82 294.88 123.19 298.71 117.14 285.5 115.82 270.89 107.76"/><polygon class="cls-1" points="271.72 76.4 262.02 130.02 263.68 131.95 261.36 136.02 248.02 144.66 228.83 132.89 236.33 109.94 237.93 102.17 239.94 96.67 238.18 84.43 252.16 81.44 258.48 97.47 263.14 95.86 260.17 83.95 260.2 71.28 271.72 76.4"/><polygon class="cls-37" points="254.76 127.23 261.36 136.02 271.34 130.07 254.76 127.23"/><polygon class="cls-37" points="242.34 98.94 248.92 97.88 236.33 109.94 237.93 102.17 242.34 98.94"/><polygon class="cls-37" points="313.33 79.05 271.34 78.54 261.01 77.25 261.32 71.78 314.69 72.25 314.43 74.55 313.33 79.05"/><polygon class="cls-37" points="254.76 127.23 258.56 131.85 238.42 131.36 244.41 115.01 254.76 127.23"/><polygon class="cls-42" points="257.86 73.02 260.17 83.95 265.71 97.33 258.48 97.47 251.59 83.9 239.86 86.34 235.82 89.24 230.56 82.04 228.87 73.03 246.31 64.53 257.86 73.02"/><polygon class="cls-35" points="307.17 89.51 302.77 83.5 297.56 87.02 307.17 89.51"/><polygon class="cls-35" points="290.76 85.16 284.58 79.38 278.35 83.86 290.76 85.16"/><polygon class="cls-35" points="251.59 83.9 249.06 75.43 228.87 73.03 227.38 65.13 243.64 64.61 258.83 70.12 251.59 83.9"/><polygon class="cls-35" points="239.86 86.34 230.56 82.04 236.33 109.94 242.34 98.94 239.86 86.34"/><polygon class="cls-35" points="292.09 110.23 286.62 109.39 279.19 111.45 270.89 107.76 276.28 117.01 294.83 120.39 302.59 113.9 295.15 114.48 292.09 110.23"/><polygon class="cls-35" points="285.87 125.19 274.33 135.38 289.54 138.38 285.87 125.19"/><polygon class="cls-37" points="249.04 87.51 243.41 88.3 249.26 94.34 249.04 87.51"/><polygon class="cls-36" points="297.56 87.02 292.09 110.23 286.62 109.39 290.76 85.16 297.56 87.02"/><polygon class="cls-17" points="261.44 73.76 254.76 127.23 241.63 127.05 254.55 71.7 258.83 70.12 261.44 73.76"/><polygon class="cls-16" points="213.16 61.35 271.72 76.4 277.95 55.82 249.2 49.6 213.16 61.35"/><polygon class="cls-15" points="273.87 60.74 281.94 54 304.09 57.89 337.94 73.53 271.72 76.4 273.87 60.74"/><polygon class="cls-16" points="304.09 57.89 277.18 35.18 268.16 51.04 273.87 60.74 304.09 57.89"/><polygon class="cls-17" points="277.18 35.18 249.2 49.6 273.87 60.74 277.18 35.18"/><polygon class="cls-28" points="252.86 120.98 250.1 117.24 245.7 120.6 249.13 124.48 252.86 120.98"/><polygon class="cls-43" points="292.09 110.23 288.73 113.64 286.62 109.39 292.09 110.23"/><path class="cls-43" d="M304.31,95.36a2.3,2.3,0,1,1-1.06-3.08A2.31,2.31,0,0,1,304.31,95.36Z"/><path class="cls-43" d="M285.31,91.77a2.3,2.3,0,1,1-1.05-3.08A2.31,2.31,0,0,1,285.31,91.77Z"/><polygon class="cls-1" points="317.38 142.38 283.27 174 305.5 180.5 326.83 158.83 317.38 142.38"/><polygon class="cls-7" points="289.17 154.83 328 164.42 351.25 113.92 310.75 104.92 289.17 154.83"/><polygon class="cls-1" points="342.33 137 345.06 127.06 334.83 122.67 331.5 137.17 335 148.94 342.33 137"/><polygon class="cls-6" points="345.13 127.25 345 137.83 334.88 149.25 345.13 127.25"/><polygon class="cls-2" points="498 270 489.52 302.62 460.5 294.25 444.25 269.75 498 270"/><polygon class="cls-45" points="192.67 264.83 197.47 296.22 217.5 295.33 225.5 274.25 192.67 264.83"/><polygon class="cls-5" points="267.83 258 286.5 336.17 315.91 331.31 322.33 297.5 482.5 278.5 489.52 302.62 516.5 298.17 520.17 227.17 247.83 250.17 267.83 258"/><polygon class="cls-2" points="176.83 225.5 182.5 289.5 197.47 296.22 203 272.33 257.5 291.5 264.61 326.34 286.5 336.17 287.17 274.17 176.83 225.5"/><polygon class="cls-10" points="389.5 214.83 530 218.5 518.85 252.73 287.17 274.17 269.17 233.5 389.5 214.83"/><polygon class="cls-11" points="248.5 223.17 167 202 178.38 243.42 287.17 274.17 290.5 247.75 248.5 223.17"/><polygon class="cls-8" points="167 202 381.5 181 530 218.5 290.5 247.75 167 202"/></svg>