<svg id="ILLUSTRATION" xmlns="http://www.w3.org/2000/svg" viewBox="0 0 900 350"><defs><style>.cls-1,.cls-26{fill:#369395;}.cls-1,.cls-10,.cls-11,.cls-12,.cls-13,.cls-14,.cls-15,.cls-17,.cls-18,.cls-19,.cls-2,.cls-20,.cls-3,.cls-38,.cls-39,.cls-4,.cls-40,.cls-41,.cls-42,.cls-43,.cls-44,.cls-45,.cls-46,.cls-47,.cls-48,.cls-5,.cls-51,.cls-52,.cls-53,.cls-6,.cls-7,.cls-8,.cls-9{fill-rule:evenodd;}.cls-2,.cls-27{fill:#72cbcb;}.cls-3{fill:#50a8a9;}.cls-4{fill:#8f8f8f;}.cls-5{fill:#9b9fa0;}.cls-6{fill:#858686;}.cls-7{fill:#a3a1a1;}.cls-49,.cls-8{fill:#cecdcc;}.cls-25,.cls-9{fill:#dcdcdb;}.cls-10,.cls-31{fill:#c3c3c3;}.cls-11{fill:#5ec0d9;}.cls-12{fill:#3aa0ba;}.cls-13{fill:#5ebfd8;}.cls-14{fill:#3a9fb9;}.cls-15,.cls-34,.cls-35,.cls-47{fill:#2b2b2b;}.cls-15,.cls-34{opacity:0.1;}.cls-16,.cls-18{fill:#1d7678;}.cls-17{fill:#74cee4;}.cls-19,.cls-50{fill:#ebebea;}.cls-20,.cls-32{fill:#a2a1a1;}.cls-21,.cls-40{fill:#28788b;}.cls-22,.cls-39{fill:#4f5353;}.cls-23{fill:#debca4;}.cls-24{fill:#c2977a;}.cls-28{fill:#8a6651;}.cls-29{fill:#e8c9b6;}.cls-30,.cls-43{fill:#318ea5;}.cls-33,.cls-45{fill:#737474;}.cls-36,.cls-46{fill:#fff;}.cls-37{fill:#6f7273;}.cls-38{fill:#474748;}.cls-41{fill:#d0ae95;}.cls-42{fill:#eed2c1;}.cls-44{fill:#a8836c;}.cls-48{fill:#f6e5db;}.cls-51{fill:#92d5d5;}.cls-52{fill:#848585;}.cls-53{fill:#8e8e8e;}</style></defs><title>sentinels_Logistician_ISTJ_friendships</title><g id="trees_-_behind" data-name="trees - behind"><polygon class="cls-1" points="547.51 144.6 547.97 150.84 548.57 151.06 549.04 146.33 547.51 144.6"/><polygon class="cls-2" points="550.38 138.5 554.7 144.1 549.04 146.33 546.96 143.45 548.13 139.51 550.38 138.5"/><polygon class="cls-3" points="547.3 139.05 542.9 143.81 549.04 146.33 549.6 141.74 547.3 139.05"/><polygon class="cls-3" points="550.29 133.86 553.75 139.16 549.6 141.74 547.24 137.83 548.36 133.65 550.29 133.86"/><polygon class="cls-1" points="547.08 133.68 543.92 139.42 549.6 141.74 548.96 135.59 547.08 133.68"/><polygon class="cls-3" points="550.23 132.93 547.91 123.87 544.24 134.01 548.96 135.59 550.23 132.93"/><polygon class="cls-2" points="547.91 123.87 553.43 133.68 548.96 135.59 547.91 123.87"/><polygon class="cls-1" points="494.25 126.2 495.51 136.87 496.56 137.2 497 129.05 494.25 126.2"/><polygon class="cls-2" points="498.73 115.52 506.56 124.8 497 129.05 493.22 124.26 494.93 117.42 498.73 115.52"/><polygon class="cls-3" points="493.49 116.69 486.29 125.18 497 129.05 497.63 121.13 493.49 116.69"/><polygon class="cls-3" points="498.23 107.55 504.57 116.39 497.63 121.13 493.29 114.6 494.88 107.33 498.23 107.55"/><polygon class="cls-1" points="492.69 107.49 487.7 117.57 497.63 121.13 496.07 110.61 492.69 107.49"/><polygon class="cls-3" points="498.04 105.96 493.38 90.58 487.85 108.26 496.07 110.61 498.04 105.96"/><polygon class="cls-2" points="493.38 90.58 503.6 107.01 496.07 110.61 493.38 90.58"/><polygon class="cls-1" points="804.58 229.45 802 237.72 802.67 238.31 805.67 232.45 804.58 229.45"/><polygon class="cls-2" points="811.39 223.04 814.12 232.46 805.67 232.45 804.46 227.68 807.97 223.2 811.39 223.04"/><polygon class="cls-3" points="807.14 222.18 799.05 226.08 805.67 232.45 808.74 226.82 807.14 222.18"/><polygon class="cls-3" points="813.64 217 815.41 225.6 808.74 226.82 807.68 220.58 811.24 215.75 813.64 217"/><polygon class="cls-1" points="809.57 215.14 802.59 220.93 808.74 226.82 811.04 218.56 809.57 215.14"/><polygon class="cls-3" points="814.02 215.77 818.79 203.68 805.75 214.12 811.04 218.56 814.02 215.77"/><polygon class="cls-2" points="818.79 203.68 817.77 218.37 811.04 218.56 818.79 203.68"/><polygon class="cls-1" points="95.86 219.56 98.25 227.89 99.12 228.02 98.42 221.47 95.86 219.56"/><polygon class="cls-2" points="98.04 210.47 105.48 216.85 98.42 221.47 94.79 218.15 95.26 212.48 98.04 210.47"/><polygon class="cls-3" points="94.02 212.08 89.38 219.78 98.42 221.47 97.89 215.08 94.02 212.08"/><polygon class="cls-3" points="96.61 204.18 102.8 210.41 97.89 215.08 93.59 210.44 93.91 204.45 96.61 204.18"/><polygon class="cls-1" points="92.19 204.86 89.53 213.53 97.89 215.08 95.29 206.91 92.19 204.86"/><polygon class="cls-3" points="96.25 202.94 90.54 191.3 88.43 206.1 95.29 206.91 96.25 202.94"/><polygon class="cls-2" points="90.54 191.3 100.81 203.06 95.29 206.91 90.54 191.3"/><polygon class="cls-1" points="336.32 180.76 336.32 187.45 336.94 187.73 337.81 182.72 336.32 180.76"/><polygon class="cls-2" points="339.87 174.47 344.04 180.79 337.81 182.72 335.82 179.48 337.38 175.37 339.87 174.47"/><polygon class="cls-3" points="336.54 174.81 331.47 179.54 337.81 182.72 338.78 177.86 336.54 174.81"/><polygon class="cls-3" points="340.14 169.5 343.42 175.43 338.78 177.86 336.57 173.5 338.08 169.13 340.14 169.5"/><polygon class="cls-1" points="336.71 169.06 332.9 174.94 338.78 177.86 338.58 171.24 336.71 169.06"/><polygon class="cls-3" points="340.14 168.5 339.96 158.94 333.67 169.19 338.58 171.24 340.14 168.5"/><polygon class="cls-2" points="339.96 158.94 343.5 169.56 338.58 171.24 339.96 158.94"/><polygon class="cls-1" points="321.73 187.46 323.98 192.27 324.52 192.27 323.47 188.37 321.73 187.46"/><polygon class="cls-2" points="322.17 181.75 329.37 186.13 324.39 191.5 320.94 186.71 320.68 183.24 322.17 181.75"/><polygon class="cls-3" points="319.89 183.12 317.84 191.93 325.76 192.25 322.53 184.56 319.89 183.12"/><polygon class="cls-3" points="320.69 178.09 325.04 181.25 322.53 184.56 319.47 182.17 319.09 178.51 320.69 178.09"/><polygon class="cls-1" points="318.08 178.93 317.31 184.43 322.53 184.56 320.16 179.86 318.08 178.93"/><polygon class="cls-3" points="320.36 177.37 317.01 170.55 315.93 180.04 320.16 179.86 320.36 177.37"/><polygon class="cls-2" points="317.01 170.55 324.22 177.84 320.16 179.86 317.01 170.55"/><polygon class="cls-1" points="642.63 170.33 641.84 181.41 642.84 181.95 645.51 170.77 642.63 170.33"/><polygon class="cls-2" points="649.18 158.4 655.41 171.3 642.41 172.9 641.96 168.16 644.95 159.6 649.18 158.4"/><polygon class="cls-3" points="643.63 158.57 634.74 167.75 642.41 172.9 647.04 165.83 643.63 158.57"/><polygon class="cls-3" points="650.22 150.21 654.94 160.42 647.04 165.83 643.84 156.41 646.86 149.35 650.22 150.21"/><polygon class="cls-1" points="644.6 149.08 637.59 158.35 647.04 165.83 647.44 152.91 644.6 149.08"/><polygon class="cls-3" points="650.34 148.56 652.74 133.01 639.54 148.93 647.44 152.91 650.34 148.56"/><polygon class="cls-2" points="652.74 133.01 655.78 150.71 647.44 152.91 652.74 133.01"/></g><g id="hill_dark" data-name="hill dark"><polygon class="cls-4" points="350.17 182.17 347.83 177.5 417.33 169.17 392.63 204.13 350.17 182.17"/><polygon class="cls-5" points="374.13 192.13 347.83 177.5 282.83 207.83 323.83 209.83 381.5 207.5 374.13 192.13"/><polygon class="cls-6" points="427.46 163.38 374.13 192.13 374 202 423.5 225 427.46 163.38"/><polygon class="cls-7" points="553.17 183.5 456.75 153.63 437.42 157 432.5 224 579.17 220.17 553.17 183.5"/><polygon class="cls-4" points="545.83 151.17 509 140 474.75 208.75 594.5 212.17 592.5 189.83 545.83 151.17"/><polygon class="cls-5" points="604.5 187.5 569 151.5 513 138 509 140 575.75 188.83 604.5 187.5"/><polygon class="cls-6" points="665.5 198 635 176.5 569 151.5 575.83 189 659.5 252 665.5 198"/><polygon class="cls-5" points="782 228 732.5 200 635 176.5 640.88 219 782 228"/></g><g id="hill_-_light" data-name="hill - light"><polygon class="cls-8" points="349.81 182.17 347.47 177.5 416.97 169.17 392.26 204.13 349.81 182.17"/><polygon class="cls-9" points="373.76 192.13 347.47 177.5 282.47 207.83 323.47 209.83 381.14 207.5 373.76 192.13"/><polygon class="cls-10" points="427.1 163.38 373.76 192.13 373.64 202 423.14 225 427.1 163.38"/><polygon class="cls-10" points="552.8 183.5 456.39 153.63 437.06 157 432.14 224 578.8 220.17 552.8 183.5"/><polygon class="cls-8" points="545.47 151.17 508.64 140 474.39 208.75 594.14 212.17 592.14 189.83 545.47 151.17"/><polygon class="cls-9" points="604.14 187.5 568.64 151.5 512.64 138 508.64 140 575.39 188.83 604.14 187.5"/><polygon class="cls-10" points="665.14 198 634.64 176.5 568.64 151.5 575.47 189 659.14 252 665.14 198"/><polygon class="cls-9" points="781.64 228 732.14 200 634.64 176.5 640.51 219 781.64 228"/></g><g id="land_-_dark" data-name="land - dark"><polygon class="cls-11" points="791.83 233.5 863.25 246.5 900 246.75 880.5 272 879.5 315 851 338 643.5 350 627.17 253.5 791.83 233.5"/><polygon class="cls-12" points="801.83 232.83 863.25 246.5 791.17 278.17 741.83 326.17 643.5 350 444 337.5 667.83 238.17 801.83 232.83"/><polygon class="cls-4" points="501.25 209.5 467.17 210.83 256.25 231.5 191.25 192.5 177.92 203 159.9 208.73 79.5 317.25 200.25 349.5 445.5 299 501.25 209.5"/><polygon class="cls-6" points="161.75 266 143.5 288.5 79.5 317.25 0.36 296.08 80.25 269.5 94.75 227.5 163.75 244.5 161.75 266"/><polygon class="cls-5" points="125.92 231.83 86.25 219 35.36 253.58 86.58 252.83 125.92 231.83"/><polygon class="cls-4" points="252 229 109.58 230.83 35.36 253.58 80.25 269.5 149 254 252 229"/><polygon class="cls-6" points="402 292 200.25 349.5 445.92 337.5 541.25 324.5 545 315 551.75 274.5 478.25 272.5 402 292"/><polygon class="cls-4" points="559.92 312.83 545 315 445.92 337.5 554.25 332 559.92 312.83"/><polygon class="cls-4" points="600.25 250 563.5 249.75 488.25 274 545 315 650.58 291.5 645.25 250 600.25 250"/><polygon class="cls-5" points="605.25 239.5 501.25 194.5 467.75 196 513.13 267.75 563.5 249.75 605.25 239.5"/><polygon class="cls-6" points="621.92 247.5 575.83 189 503.33 190.92 561.25 250.75 586.25 248 605.25 239.5 621.92 247.5"/><polygon class="cls-4" points="654.58 226.17 670.5 210.5 635 176.5 575.83 189 601.58 235.83 654.58 226.17"/><polygon class="cls-6" points="731.75 227.5 732.5 200 669.5 210.83 601.58 235.83 723.58 261.83 731.75 227.5"/><polygon class="cls-5" points="732.5 200 863.25 246.5 699.25 250.5 732.5 200"/><polygon class="cls-5" points="661.75 289.5 619.25 267.5 561.25 250.75 601.58 235.83 706.25 239.5 689.25 287.5 661.75 289.5"/><polygon class="cls-4" points="706.25 239.5 863.25 246.5 757.92 260.17 705.25 283.5 667.25 262.17 706.25 239.5"/><polygon class="cls-6" points="662.58 278.17 619.25 267.5 545 315 554.25 332 621.92 298.83 662.58 278.17"/><polygon class="cls-4" points="730.58 267.5 667.25 262.17 619.25 267.5 621.92 298.83 731.92 290.17 730.58 267.5"/><polygon class="cls-6" points="667.25 262.17 757.92 260.17 731.92 290.17 667.25 262.17"/><polygon class="cls-6" points="202.58 230.83 183.5 240.5 110.58 230.5 86.25 219 159.25 208.17 187.58 204.5 202.58 230.83"/></g><g id="land_-_light" data-name="land - light"><polygon class="cls-13" points="791.47 233.5 862.89 246.5 899.64 246.75 880.14 272 879.14 315 850.64 338 643.14 350 626.8 253.5 791.47 233.5"/><polygon class="cls-14" points="801.47 232.83 862.89 246.5 790.8 278.17 741.47 326.17 643.14 350 443.64 337.5 667.47 238.17 801.47 232.83"/><polygon class="cls-8" points="500.89 209.5 466.81 210.83 255.89 231.5 190.89 192.5 177.56 203 159.53 208.73 79.14 317.25 199.89 349.5 445.14 299 500.89 209.5"/><polygon class="cls-10" points="161.39 266 143.14 288.5 79.14 317.25 0 296.08 79.89 269.5 94.39 227.5 163.39 244.5 161.39 266"/><polygon class="cls-9" points="125.56 231.83 90.14 218.33 35 253.58 86.22 252.83 125.56 231.83"/><polygon class="cls-8" points="251.64 229 109.22 230.83 35 253.58 79.89 269.5 148.64 254 251.64 229"/><polygon class="cls-10" points="401.64 292 199.89 349.5 445.56 337.5 540.89 324.5 544.64 315 551.39 274.5 477.89 272.5 401.64 292"/><polygon class="cls-8" points="559.55 312.83 544.64 315 445.56 337.5 553.89 332 559.55 312.83"/><polygon class="cls-8" points="599.89 250 563.14 249.75 487.89 274 544.64 315 650.22 291.5 644.89 250 599.89 250"/><polygon class="cls-9" points="604.89 239.5 500.89 194.5 467.39 196 512.76 267.75 563.14 249.75 604.89 239.5"/><polygon class="cls-10" points="621.55 247.5 575.47 189 502.97 190.92 560.89 250.75 585.89 248 604.89 239.5 621.55 247.5"/><polygon class="cls-8" points="654.22 226.17 670.14 210.5 634.64 176.5 575.47 189 601.22 235.83 654.22 226.17"/><polygon class="cls-10" points="731.39 227.5 732.14 200 669.14 210.83 601.22 235.83 723.22 261.83 731.39 227.5"/><polygon class="cls-9" points="732.14 200 862.89 246.5 698.89 250.5 732.14 200"/><polygon class="cls-9" points="661.39 289.5 618.89 267.5 560.89 250.75 601.22 235.83 705.89 239.5 688.89 287.5 661.39 289.5"/><polygon class="cls-8" points="705.89 239.5 862.89 246.5 757.55 260.17 704.89 283.5 666.89 262.17 705.89 239.5"/><polygon class="cls-10" points="662.22 278.17 618.89 267.5 544.64 315 553.89 332 621.55 298.83 662.22 278.17"/><polygon class="cls-8" points="730.22 267.5 666.89 262.17 618.89 267.5 621.55 298.83 731.55 290.17 730.22 267.5"/><polygon class="cls-10" points="666.89 262.17 757.55 260.17 731.55 290.17 666.89 262.17"/><polygon class="cls-10" points="202.22 230.83 183.14 240.5 110.22 230.5 90.14 218.33 158.89 208.17 187.22 204.5 202.22 230.83"/></g><polygon class="cls-15" points="79.14 290.5 257.64 333.5 544.14 315 618.89 267.5 560.89 250.75 414.64 233 250.64 237.5 181.64 272 152.14 265.5 79.14 290.5"/><g id="trees_-_front" data-name="trees - front"><polygon class="cls-15" points="745.97 229.5 774.8 225.83 803.3 234.17 772.97 237.5 745.97 229.5"/><polygon class="cls-15" points="379.93 176.32 392.81 173.09 406.2 175.33 392.62 178.49 379.93 176.32"/><polygon class="cls-15" points="680.58 197.6 692.27 196 705.03 200 692.32 201.33 680.58 197.6"/><polygon class="cls-1" points="771.9 202.5 771.9 231.33 774.58 232.53 781.51 207.72 771.9 202.5"/><polygon class="cls-2" points="787.19 175.41 805.16 202.63 779.93 212.73 769.76 197 776.46 179.3 787.19 175.41"/><polygon class="cls-3" points="772.84 176.88 750.98 197.27 779.93 212.73 782.5 190.02 772.84 176.88"/><polygon class="cls-3" points="788.35 154 802.48 179.56 782.5 190.02 772.98 171.25 779.5 152.39 788.35 154"/><polygon class="cls-1" points="773.6 152.12 757.15 177.42 782.5 190.02 781.65 161.51 773.6 152.12"/><polygon class="cls-3" points="788.35 149.71 780.75 107.24 760.46 152.66 781.65 161.51 788.35 149.71"/><polygon class="cls-2" points="780.75 107.24 802.83 154.26 781.65 161.51 780.75 107.24"/><polygon class="cls-15" points="557.25 155.94 569.14 154.98 581.79 159.73 568.89 160.36 557.25 155.94"/><polygon class="cls-1" points="568.99 145.87 568.54 157.59 569.61 158.12 572.82 148.14 568.99 145.87"/><polygon class="cls-2" points="575.63 135.1 583.03 148.94 572.03 150.6 568.21 143.6 571.21 136.51 575.63 135.1"/><polygon class="cls-3" points="569.77 135.47 559.94 144.93 572.03 150.6 573.49 140.97 569.77 135.47"/><polygon class="cls-3" points="576.43 126.41 582.4 138.43 573.49 140.97 569.91 133.19 572.86 125.62 576.43 126.41"/><polygon class="cls-1" points="570.47 125.42 563.39 135.45 573.49 140.97 573.59 129.36 570.47 125.42"/><polygon class="cls-3" points="576.5 124.67 569.8 102.5 565.12 125.43 573.59 129.36 576.5 124.67"/><polygon class="cls-2" points="569.8 102.5 582.32 126.75 573.59 129.36 569.8 102.5"/><polygon class="cls-1" points="692.6 191.33 692.05 199.04 692.74 199.42 694.6 191.64 692.6 191.33"/><polygon class="cls-2" points="697.16 183.03 701.49 192.01 694.18 193.35 692.13 189.82 694.22 183.87 697.16 183.03"/><polygon class="cls-3" points="693.3 183.15 687.11 189.53 694.18 193.35 695.67 188.2 693.3 183.15"/><polygon class="cls-3" points="698.13 173 702.47 183.25 695.67 188.2 693.69 177.31 695.8 172.4 698.13 173"/><polygon class="cls-1" points="694.22 172.21 687.14 182 695.67 188.2 696.2 174.88 694.22 172.21"/><polygon class="cls-3" points="698.22 171.85 696.3 156.25 690.7 172.1 696.2 174.88 698.22 171.85"/><polygon class="cls-2" points="696.3 156.25 702 173.34 696.2 174.88 696.3 156.25"/><polygon class="cls-15" points="103.47 223.5 120.64 216.33 144.47 221.33 120.47 226.17 103.47 223.5"/><polygon class="cls-1" points="118.05 207.36 121.06 221.21 122.47 221.51 123.22 208.87 118.05 207.36"/><polygon class="cls-2" points="122.57 192.75 134.04 203.96 122.98 211.44 116.45 204.94 117.82 195.74 122.57 192.75"/><polygon class="cls-3" points="115.83 194.96 107.45 207.03 122.98 211.44 121.84 200.26 115.83 194.96"/><polygon class="cls-3" points="120.9 182.34 130.35 193.15 121.84 200.26 115.31 192.24 116.47 182.49 120.9 182.34"/><polygon class="cls-1" points="113.61 182.98 108.35 196.85 121.84 200.26 118.46 186.65 113.61 182.98"/><polygon class="cls-3" points="120.45 180.28 108.64 155 107.35 184.61 118.46 186.65 120.45 180.28"/><polygon class="cls-2" points="108.64 155 127.88 180.96 118.46 186.65 108.64 155"/><polygon class="cls-1" points="389.62 163.72 391.78 176.4 393.05 176.73 394.24 165.3 389.62 163.72"/><polygon class="cls-2" points="394.33 150.66 404.01 165.5 393.92 167.62 388.27 161.46 389.9 153.17 394.33 150.66"/><polygon class="cls-3" points="388.13 152.38 381.39 166.75 393.92 167.62 393.35 157.44 388.13 152.38"/><polygon class="cls-3" points="393.24 141.15 401.64 153.88 393.35 157.44 387.76 149.89 389.23 141.1 393.24 141.15"/><polygon class="cls-1" points="386.61 141.43 381.64 156.5 393.35 157.44 390.85 144.96 386.61 141.43"/><polygon class="cls-3" points="392.92 139.26 388.39 119.75 380.87 142.65 390.85 144.96 392.92 139.26"/><polygon class="cls-2" points="388.39 119.75 399.63 140.19 390.85 144.96 388.39 119.75"/></g><g id="fish"><polygon class="cls-15" points="670.51 322.63 647.51 328.63 622.64 336.88 660.51 345.81 706.83 334.31 670.51 322.63"/><polygon class="cls-3" points="667.76 312 681.64 308.75 690.89 331.13 668.45 335.63 645.14 333.63 667.76 312"/><polygon class="cls-1" points="658.14 314 630.8 320.83 650.39 327.5 658.14 314"/><polygon class="cls-2" points="681.64 308.75 644.89 302.75 651.51 321.88 630.8 320.83 645.14 333.63 681.64 308.75"/><circle class="cls-16" cx="659.76" cy="312.19" r="2.81"/><polygon class="cls-17" points="639.76 334.13 648.39 336.88 666.76 337.38 672.01 338.38 694.64 332.38 690.14 329.25 687.3 331.5 677.51 331.63 667.01 334.38 660.39 333.63 645.14 333.63 643.92 331.81 639.76 334.13"/><polygon class="cls-17" points="637.8 335.67 648.3 338.96 664.72 339.5 647.89 341.38 637.8 335.67"/><polygon class="cls-15" points="822.67 309.09 806.08 313.42 788.14 319.37 815.46 325.81 848.87 317.52 822.67 309.09"/><polygon class="cls-3" points="820.69 301.42 834.89 304 837.37 315.22 821.18 318.46 804.37 317.02 820.69 301.42"/><polygon class="cls-1" points="813.75 302.87 798.97 297.58 808.16 312.6 813.75 302.87"/><polygon class="cls-2" points="834.89 304 806.51 292.38 808.97 308.55 798.8 297.5 804.37 317.02 834.89 304"/><path class="cls-18" d="M817,301.56a2,2,0,1,1-2-2A2,2,0,0,1,817,301.56Z"/><polygon class="cls-17" points="836.64 312.29 841.51 315.88 833.1 319.33 821.89 319.17 812.8 321.67 801.35 317.54 803.76 314.92 807.89 317.04 823.14 315.58 833.35 316.21 836.64 312.29"/><polygon class="cls-17" points="829.73 320.59 822.08 320.09 813.64 322.59 822.89 321.16 829.73 320.59"/><polygon class="cls-17" points="796.3 259.83 764.47 264.33 747.97 283 759.8 275.67 764.3 270 771.14 267.67 796.3 259.83"/><polygon class="cls-17" points="766.3 273.17 760.97 279.33 746.14 291.83 761.8 285.33 763.8 278.67 769.8 271.83 766.3 273.17"/><polygon class="cls-17" points="633.14 307.17 607.47 314.83 583.47 330.17 612.47 317.83 633.14 307.17"/><polygon class="cls-17" points="611.47 322.17 589.47 330.83 568.47 333.5 558.14 339.17 574.14 336.17 586.8 337.83 611.47 322.17"/></g><polygon class="cls-9" points="317.31 11 289.97 11.5 222.14 5.75 272.14 30.17 332.81 27.17 386.64 15.5 317.31 11"/><path class="cls-9" d="M50.81,103.5c-1,0-46.67,6.67-46.67,6.67l45,20.33,46.33-3.33,29.67,2.66,37.33-18.66-49,4.66Z"/><polygon class="cls-9" points="734.64 59.5 693.14 62.5 585.64 56 694.14 97.5 804.14 73 861.64 63 734.64 59.5"/><polygon class="cls-19" points="861.64 63 739.64 38 683.14 51.5 585.64 56 696.14 74 771.14 64 861.64 63"/><polygon class="cls-19" points="4.14 110.17 56.8 96.17 116.47 107.83 162.47 111.17 98.47 118.17 4.14 110.17"/><polygon class="cls-19" points="386.64 15.5 335.31 0 293.47 6.33 222.14 5.75 298.97 20 335.81 13.17 386.64 15.5"/><polygon class="cls-16" points="285.72 290.92 292.47 293.92 292.22 298.92 257.72 297.92 257.47 293.42 285.72 290.92"/><polygon class="cls-20" points="560.8 272.17 500.97 292.75 435.97 288.33 449.47 257.5 522.8 253.5 560.8 272.17"/><polygon class="cls-8" points="544.14 250.17 560.89 250.75 571.64 279 527.22 291.5 519.47 262.17 544.14 250.17"/><polygon class="cls-8" points="198.47 279.17 236.22 300.17 270.47 285.67 270.64 244.67 209.47 255.17 198.47 279.17"/><polygon class="cls-20" points="170.97 258.17 146.97 254.92 142.47 288.17 230.97 298.42 228.97 262.67 170.97 258.17"/><polygon class="cls-19" points="201.47 233.92 146.97 254.92 215.31 265.67 256.72 241.42 201.47 233.92"/><polygon class="cls-19" points="486.47 235.5 454.14 258.5 496.26 264 529.64 259.5 560.89 250.75 523.8 242.5 486.47 235.5"/><polygon class="cls-21" points="264.14 273.17 273.47 277.42 292.47 293.92 257.47 293.42 256.72 282.17 264.14 273.17"/><polygon class="cls-22" points="259.22 235.42 270.22 235.17 273.47 277.42 256.72 282.17 244.85 253.54 259.22 235.42"/><polygon class="cls-22" points="239.64 224.42 270.22 235.17 246.97 251.42 221.64 246.17 220.39 237.33 239.64 224.42"/><polygon class="cls-22" points="211.56 257.75 226.47 290.75 238.31 300.08 247.64 290.25 246.97 251.42 211.56 257.75"/><polygon class="cls-16" points="234.45 302.76 227.13 304.7 227.06 309 260.22 308.42 260.06 304.12 234.45 302.76"/><polygon class="cls-21" points="247.64 290.25 260.06 304.12 227.13 304.7 226.47 290.75 247.64 290.25"/><polygon class="cls-23" points="303.55 148.98 304.24 140.37 316.8 133.25 325.74 143.25 313.75 156.3 303.55 148.98"/><polygon class="cls-24" points="292.57 145.83 295.39 145.57 304.24 140.37 313.75 156.3 300.61 163.19 289.48 157.65 292.57 145.83"/><polygon class="cls-23" points="289.62 156.54 289.35 149.19 292.93 140.08 304.21 135.79 305.77 139.08 299.2 144.66 299.62 151.8 289.62 156.54"/><polygon class="cls-25" points="277.69 168.07 282.36 154.12 289.35 149.19 300.61 163.19 294.45 167.71 277.69 168.07"/><polygon class="cls-26" points="222.53 183.32 239.08 149.91 278.23 174.62 262.55 191.06 222.53 183.32"/><polygon class="cls-27" points="180.76 155.18 181.15 199.72 162.97 217.92 163.6 165.12 180.76 155.18"/><polygon class="cls-22" points="240.06 222.24 245.83 229.8 220.22 248.67 181.03 225.2 240.06 222.24"/><polygon class="cls-23" points="260.68 61.51 238.9 60.13 225.55 62.06 216.26 55.83 201.53 51.83 203.17 60.41 208.64 65.3 202.37 73.59 200.82 83.27 201.19 95.74 205.22 106.72 202.25 106.28 199.32 107.95 199 102.3 196.79 92.99 188.61 92.57 182.82 94.35 186.89 109.32 190.56 117.42 189.45 122.27 191.44 129.36 192.99 132.77 191.84 135.65 199.71 144.07 212.88 153.99 218.09 150.93 221.38 146.41 223.91 137.1 253.2 138.72 257.31 105.21 260.25 99.31 260.93 87.7 259.19 83.88 260.68 61.51"/><polygon class="cls-24" points="213.54 56.94 214.06 80.63 212.86 102.1 211.89 136.2 223.91 137.1 221.64 141.28 221.38 146.41 212.88 153.99 191.65 139.46 189.26 121.66 188.38 109.72 199.32 107.95 198.31 102.04 198.96 97.05 202.56 99.61 200.82 83.27 203.27 74.45 208.64 65.3 204.32 59.59 201.53 51.83 209.38 54.42 213.54 56.94"/><polygon class="cls-28" points="188.38 109.72 199.32 107.95 189.26 121.66 187.37 114.39 188.38 109.72"/><polygon class="cls-28" points="223.91 137.1 206.84 135.81 212.88 153.99 218.51 150.88 221.38 146.41 223.91 137.1"/><polygon class="cls-24" points="218.05 97.43 221.38 88.59 230.73 88.87 232.46 99.39 212.86 102.1 231.65 105.2 234.31 109.27 236.28 82.29 218.93 86.23 215.72 91.39 218.05 97.43"/><polygon class="cls-24" points="248.24 98.94 250.57 91.12 259.24 90.69 261.17 92.5 258 102.67 242.25 104.11 241.99 107.18 257.31 105.21 262.13 97.14 261.98 86.13 246.32 86.31 244.36 98.24 248.24 98.94"/><polygon class="cls-28" points="234.31 109.27 237.65 113.47 241.79 109.96 234.31 109.27"/><polygon class="cls-29" points="236.07 87.59 243.45 87.95 241.79 109.96 234.31 109.27 236.07 87.59"/><polygon class="cls-21" points="236.07 87.59 235.16 84.72 236.28 82.29 243.77 82.78 245.22 85.59 243.45 87.95 236.07 87.59"/><path class="cls-30" d="M236.28,82.29l-22.22-1.66-1.27,7.9.59,5.21-.52,8.36,21.92,1.27,1.29-15.78Zm-17.35,3.94h0l11.92.87L230,98.22l-12-.79Z"/><path class="cls-30" d="M243.77,82.78l21.78,1.59-1.65,21.24-21.65-1.5L243.45,88ZM249,88.53h0l-.77,10.41,10.32.89.77-10.61Z"/><polygon class="cls-28" points="226.31 117.61 246.04 119.51 242.69 128.37 228.91 127.11 226.31 117.61"/><polygon class="cls-28" points="194.86 104.82 192.83 95.63 187.97 96.42 194.86 104.82"/><polygon class="cls-25" points="260.68 61.51 222.81 46.17 223.12 55.42 225.55 62.06 260.68 61.51"/><polygon class="cls-31" points="201.53 51.83 191.93 53.6 185.31 69.83 195.75 69.68 208.64 65.3 201.53 51.83"/><polygon class="cls-25" points="185.31 69.83 173.68 97.43 188.61 92.57 201.12 85.98 208.64 65.3 185.31 69.83"/><polygon class="cls-32" points="201.45 87.41 204.11 101.06 198.31 102.04 196.68 92.45 184.27 95.26 188.24 109.27 189.26 121.66 174.16 97.2 181.05 94.23 201.45 87.41"/><polygon class="cls-31" points="225.55 62.06 222.81 46.17 201.53 51.83 225.55 62.06"/><polygon class="cls-21" points="214.06 80.63 181.05 94.23 182.06 102.44 184.27 95.26 213.58 89.98 214.06 80.63"/><polygon class="cls-28" points="202.43 91.95 213.58 89.98 213.53 91.1 213.38 93.74 202.82 94.42 202.43 91.95"/><polygon class="cls-33" points="196.79 92.99 202.43 91.95 202.82 94.42 197.09 94.93 196.79 92.99"/><polygon class="cls-25" points="191.45 139.17 189.11 148.86 210.54 160.7 219.34 163.53 225.86 156.22 229.44 146.93 222.77 141.8 216.56 151.35 191.45 139.17"/><polygon class="cls-31" points="229.44 146.93 239.08 149.91 231.47 165.02 222.48 177.21 199.85 166.91 180.76 155.18 189.11 148.86 219.34 163.53 229.44 146.93"/><polygon class="cls-21" points="180.76 155.18 213.63 172.53 217.65 173.72 222.48 177.21 226.57 210.42 181.03 194.79 180.76 155.18"/><polygon class="cls-21" points="222.48 177.21 224.27 172.28 228.24 167.71 239.08 149.91 242.39 187.13 231.47 212.5 222.37 208.23 219.83 191.07 222.48 177.21"/><polygon class="cls-22" points="216.56 151.35 211.29 159.6 219.34 163.53 224.41 155.33 216.56 151.35"/><polygon class="cls-33" points="219.34 163.53 213.63 172.53 222.48 177.21 228.24 167.71 219.34 163.53"/><polygon class="cls-26" points="242.39 187.13 221.64 204.83 181.03 194.79 181.03 225.2 223.04 232.09 245.98 229.8 242.39 187.13"/><polygon class="cls-34" points="230.64 214.5 217.14 214.17 181.03 194.79 181.03 225.2 223.04 232.09 245.98 229.8 230.64 214.5"/><path class="cls-35" d="M228.53,91.67a2.22,2.22,0,0,1-4.28-1.16,2.22,2.22,0,0,1,4.28,1.16Z"/><path class="cls-35" d="M256.16,94a2.13,2.13,0,0,1-2.68,1.53,2.16,2.16,0,1,1,1.13-4.17A2.14,2.14,0,0,1,256.16,94Z"/><polygon class="cls-36" points="228.7 119.67 243.74 121.04 242.67 124.04 229.31 122.7 228.7 119.67"/><polygon class="cls-27" points="282.36 154.12 263.88 165.23 262.55 191.06 294.45 167.71 282.36 154.12"/><polygon class="cls-37" points="246.97 251.42 215.47 265.67 185.97 253.67 181.03 225.2 246.97 251.42"/><g id="_2ng_character" data-name="2ng character"><polygon class="cls-38" points="423.39 284.58 401.89 291.92 402.06 296.92 444.39 297.08 444.89 291.92 423.39 284.58"/><polygon class="cls-39" points="436.56 265.58 423.22 273.58 401.89 291.92 444.89 291.92 445.89 275.92 436.56 265.58"/><polygon class="cls-40" points="454.89 231.58 430.64 238.25 423.22 273.58 445.89 275.92 457.89 250.25 454.89 231.58"/><polygon class="cls-1" points="494.47 252.5 454.14 258.5 430.64 238.25 461.81 223.5 515.14 239.33 494.47 252.5"/><polygon class="cls-41" points="537.35 227.63 541.72 242.88 556.47 236.25 537.35 227.63"/><polygon class="cls-42" points="550.72 208.75 534.1 212.13 523.22 235 541.72 242.88 551.39 222.83 550.72 208.75"/><polygon class="cls-38" points="526.51 304.58 532.51 306.83 532.14 312.33 498.47 312 498.47 306.5 526.51 304.58"/><polygon class="cls-39" points="517.22 278 527.22 291.5 532.51 306.83 498.47 306.5 500.97 292.75 517.22 278"/><polygon class="cls-40" points="512.64 250.17 529.64 259.5 527.22 291.5 500.97 292.75 496.26 264 512.64 250.17"/><polygon class="cls-3" points="502.22 203 529.22 222 529.64 259.5 496.26 264 494.47 252.5 502.22 203"/><polygon class="cls-40" points="512.22 211.5 529.22 222 494.47 252.5 461.81 223.5 512.22 211.5"/><polygon class="cls-43" points="509.72 180.75 535.72 149.5 557.22 171.25 550.47 198 509.72 180.75"/><polygon class="cls-14" points="477.97 145.25 471.68 144.04 460.64 191.5 461.81 223.5 529.22 222 532.39 190.83 512.68 139.81 477.97 145.25"/><polygon class="cls-13" points="477.97 145.25 471.68 144.04 456.47 153.25 453.47 191 461.14 191.83 532.39 190.83 535.72 149.5 512.68 139.81 477.97 145.25"/><polygon class="cls-19" points="477.97 145.25 469.85 139.38 467.1 146.63 469.47 173.13 488.86 164.21 512.97 171.38 519.22 142.25 511.97 134.88 477.97 145.25"/><polygon class="cls-42" points="424.99 79.81 431.16 102.71 439.93 140.92 463.85 137.54 488.98 138.46 497.56 135.67 495.61 124.52 497.34 91.09 494.1 84.33 487.19 66.07 445.13 79.93 424.99 79.81"/><polygon class="cls-41" points="484.22 70.12 494.36 135.21 471.32 140.43 475.68 139.04 482.82 142.81 488.86 164.21 512.97 135.75 511.31 116.88 508.52 111.73 510.93 110.02 510.48 95.3 496.27 89.33 484.22 70.12"/><polygon class="cls-44" points="510.93 110.02 501.81 109.8 511.31 116.88 510.93 110.02"/><polygon class="cls-44" points="502 104.99 502.76 98.4 507.07 98.78 502 104.99"/><polygon class="cls-39" points="459.64 78.15 484.22 70.12 490.77 72.66 502.3 64.58 472.86 46.36 456.71 68.71 459.64 78.15"/><polygon class="cls-39" points="498.06 75.37 509.8 80.47 510.48 95.3 498.16 93.86 498.2 104.77 493.49 103.62 491.45 86.35 498.06 75.37"/><polygon class="cls-38" points="430.79 79.81 427.13 79.73 431.16 102.71 417.6 80.82 428.69 76.85 434.29 75.65 430.79 79.81"/><polygon class="cls-39" points="436.52 55.65 452.69 73.36 447.55 83.04 417.6 80.82 436.52 55.65"/><polygon class="cls-45" points="436.52 55.65 447.55 83.04 459.64 78.15 472.86 46.36 436.52 55.65"/><polygon class="cls-39" points="502.3 64.58 509.8 80.47 491.45 86.35 484.22 70.12 502.3 64.58"/><polygon class="cls-44" points="447.07 121.87 469.56 118.68 464.78 128.13 454.17 129.54 447.07 121.87"/><polygon class="cls-46" points="451.17 123.18 465.78 121.06 463.22 126 455.03 127.14 451.17 123.18"/><polygon class="cls-41" points="442.02 93.69 435.32 95.97 453.55 111.28 460.56 113.63 473.09 90.33 464.83 90.08 457.86 93.51 457.99 98.12 454.83 104.6 450.38 99.44 449.22 94.73 442.02 93.69"/><path class="cls-47" d="M447.44,103.67a3,3,0,1,1-3.6-2.15A3,3,0,0,1,447.44,103.67Z"/><path class="cls-47" d="M466.66,100.54a3,3,0,1,1-3.17-2.74A3,3,0,0,1,466.66,100.54Z"/><polygon class="cls-44" points="453.87 111.66 451.93 114.83 456.98 116.98 460.56 113.63 453.87 111.66"/><polygon class="cls-48" points="450.38 99.44 451.93 114.83 460.56 113.63 457.99 98.12 450.38 99.44"/><polygon class="cls-39" points="446.97 90 449.22 94.73 435.32 95.97 446.97 90"/><polygon class="cls-39" points="457.86 93.51 459.31 87.92 473.09 90.33 457.86 93.51"/><polygon class="cls-44" points="494.01 133.15 463.81 137.46 488.86 164.21 502.47 133.94 494.01 133.15"/><polygon class="cls-14" points="557.39 171.5 534.1 212.13 551.39 222.83 575.47 189 557.39 171.5"/></g><polygon class="cls-30" points="298.47 256.08 350.97 297.33 373.47 285.67 379.14 213.67 305.97 214.83 298.47 256.08"/><polygon class="cls-49" points="426.89 208.5 460.76 200.13 461.81 223.5 430.39 239.5 386.64 217.33 426.89 208.5"/><polygon class="cls-21" points="293.31 216.83 297.81 296 350.97 297.33 348.47 223.5 293.31 216.83"/><polygon class="cls-32" points="258.81 206.83 198.14 210.25 206.89 248.25 430.39 239.5 429.64 212 343.64 206.75 258.81 206.83"/><polygon class="cls-50" points="260.39 200.25 203.97 213 429.64 212 460.76 200.13 260.39 200.25"/><g id="chess_board" data-name="chess board"><polygon class="cls-15" points="281.14 202.17 255.81 209.17 376.47 212.33 414.47 200.17 405.14 200.38 281.14 202.17"/><polygon class="cls-1" points="388.1 192.06 397.39 187.13 405.14 200.38 376.51 209.63 372.58 200.06 382.95 196.94 388.1 192.06"/><polygon class="cls-2" points="293.64 203.88 274.51 195.13 298.26 189.38 397.39 187.13 376.51 203.25 293.64 203.88"/><polygon class="cls-18" points="274.51 195.13 270.76 207.63 376.51 209.63 376.51 203.25 274.51 195.13"/><polygon class="cls-1" points="298.64 191.17 307.39 190.97 309.7 191.38 318.57 190.71 328.83 190.48 333.2 193.25 341.99 190.18 353.6 189.91 354.76 191.38 365.01 189.65 377.4 189.37 385.83 189.88 385.6 192.62 380.09 197.07 370.58 197.94 362.42 199.76 350.58 198.95 345.14 196.13 336.89 198.02 326.42 197.3 324.89 196.19 315.21 196.53 303.93 195.76 299.83 194.13 294.33 195.11 285.47 194.5 291.26 193.05 295.01 192.72 295.3 191.98 298.64 191.17"/><polygon class="cls-51" points="364.84 189.66 353.6 189.91 336.89 198.02 350.58 198.95 364.84 189.66"/><polygon class="cls-51" points="303.93 195.76 318.57 190.71 307.54 190.96 294.66 195.13 303.93 195.76"/><polygon class="cls-51" points="341.99 190.18 329.07 190.47 315.21 196.53 326.42 197.3 341.99 190.18"/><polygon class="cls-51" points="377.4 189.37 362.42 199.76 375.64 200.67 389.97 189.08 377.4 189.37"/><polygon class="cls-51" points="372.75 192.6 303.64 192.22 295.25 192.03 291.26 193.05 299.25 193.64 367.08 196.53 376.56 194.67 372.75 192.6"/><polygon class="cls-1" points="314.02 192.28 303.64 192.22 299.25 193.64 308.88 194.05 314.02 192.28"/><polygon class="cls-1" points="337.12 192.41 324.8 192.34 319.81 194.52 331.42 195.01 337.12 192.41"/><polygon class="cls-1" points="372.75 192.6 367.08 196.53 380.1 197.08 385.64 192.67 372.75 192.6"/><polygon class="cls-1" points="360.43 192.53 348.33 192.47 342.14 195.47 355.08 196.02 360.43 192.53"/></g><g id="chess_piece" data-name="chess piece"><polygon class="cls-52" points="362.67 190.39 364.01 188.96 360.81 188.37 356.97 189.04 361.74 191.41 362.67 190.39"/><polygon class="cls-38" points="361.77 193.48 360.43 198.53 358.18 197.95 358.75 193.3 361.77 193.48"/><polygon class="cls-39" points="362.44 193.72 362.98 197.8 360.43 198.53 360.56 195.12 362.44 193.72"/><polygon class="cls-39" points="361.77 193.48 360.7 189.52 356.97 189.04 357.08 193.97 360.56 195.12 361.77 193.48"/><polygon class="cls-45" points="360.7 189.52 364.01 188.96 363.91 194.21 360.56 195.12 360.7 189.52"/><polygon class="cls-20" points="375.02 185.03 375.69 183.34 379.29 186.13 375.1 187.88 375.02 185.03"/><polygon class="cls-45" points="377.82 187.49 375.85 186.61 375.69 183.34 372.11 186.13 376.89 188.51 377.82 187.49"/><polygon class="cls-38" points="376.92 190.57 375.57 195.62 373.47 195.28 373.9 190.39 376.92 190.57"/><polygon class="cls-39" points="377.59 190.82 378.13 195.03 375.57 195.62 375.71 192.22 377.59 190.82"/><polygon class="cls-39" points="376.92 190.57 375.85 186.61 372.11 186.13 372.22 191.06 375.71 192.22 376.92 190.57"/><polygon class="cls-45" points="375.85 186.61 379.29 186.13 379.06 191.3 375.71 192.22 375.85 186.61"/><polygon class="cls-8" points="303.31 187.21 304.64 185.78 301.45 185.19 297.6 185.86 302.38 188.23 303.31 187.21"/><polygon class="cls-45" points="302.41 190.3 301.07 195.35 298.77 194.85 299.39 190.12 302.41 190.3"/><polygon class="cls-53" points="303.08 190.54 303.88 194.53 301.07 195.35 301.2 191.94 303.08 190.54"/><polygon class="cls-53" points="302.41 190.3 301.34 186.34 297.6 185.86 297.71 190.79 301.2 191.94 302.41 190.3"/><polygon class="cls-20" points="301.34 186.34 304.64 185.78 304.55 191.03 301.2 191.94 301.34 186.34"/><polygon class="cls-8" points="328.92 187.2 329.7 183.8 333.04 186.16 329.27 187.66 328.92 187.2"/><polygon class="cls-20" points="331.7 187.38 329.74 186.64 329.7 183.8 326 186.23 330.77 188.24 331.7 187.38"/><polygon class="cls-45" points="330.8 189.99 329.46 194.28 326.93 193.7 327.79 189.84 330.8 189.99"/><polygon class="cls-53" points="331.47 190.2 332.28 193.58 329.46 194.28 329.6 191.39 331.47 190.2"/><polygon class="cls-53" points="330.8 189.99 329.74 186.64 326 186.23 326.11 190.41 329.6 191.39 330.8 189.99"/><polygon class="cls-20" points="329.74 186.64 333.04 186.16 332.95 190.61 329.6 191.39 329.74 186.64"/></g><polygon class="cls-24" points="234.68 204.59 243.76 195.79 257.89 203 252.33 212.79 239.55 214.42 234.68 204.59"/><polygon class="cls-23" points="219.14 204.59 222.76 197.6 243.76 195.79 239.55 214.42 220.2 213.35 219.14 204.59"/><polygon class="cls-26" points="222.76 197.6 181.03 194.79 162.97 217.92 220.2 213.35 222.76 197.6"/><polygon class="cls-43" points="434.97 177.75 441.22 178.88 456.47 153.25 460.64 191.5 444.89 204.88 434.97 177.75"/><polygon class="cls-14" points="436.35 160.88 427.1 163.38 422.39 200.25 444.89 204.88 444.47 165.5 436.35 160.88"/><polygon class="cls-42" points="436.89 144.75 428.85 146.25 427.1 163.38 444.47 165.5 451.64 150 436.89 144.75"/><polygon class="cls-41" points="438.6 135.42 456.6 138.63 451.64 150 428.85 146.25 438.6 135.42"/></svg>