<svg id="Layer_1" data-name="Layer 1" xmlns="http://www.w3.org/2000/svg" viewBox="0 0 900 350"><defs><style>.cls-1{fill:#ececeb;}.cls-2{fill:#a3a3a3;}.cls-3{fill:#8f8f8f;}.cls-4{fill:#cececd;}.cls-5{fill:#fff;}.cls-25,.cls-34,.cls-6{fill:#2b2b2b;}.cls-6{fill-opacity:0.1;}.cls-7{fill:#318fa6;}.cls-8{fill:#73cfe5;}.cls-9{fill:#5ec0d9;}.cls-10{fill:#6f7173;}.cls-11{fill:#4f5253;}.cls-12{fill:#27788c;}.cls-13{fill:#3aa0ba;}.cls-14{fill:#dddddc;}.cls-15{fill:#858686;}.cls-16{fill:#50a9aa;}.cls-17{fill:#165e60;}.cls-18{fill:#369496;}.cls-19{fill:#1c7678;}.cls-20{fill:#474747;}.cls-21{fill:#c3987b;}.cls-22{fill:#dfbda5;}.cls-23{fill:#8b6651;}.cls-24{fill:#e8cab6;}.cls-26{fill:#f5cab3;}.cls-27{fill:#fde4d5;}.cls-28{fill:#c2917d;}.cls-29{fill:#fff0e8;}.cls-30{fill:#b48c71;}.cls-31{fill:#d0ab92;}.cls-32{fill:#83624d;}.cls-33{fill:#d8bca9;}.cls-34{fill-opacity:0.2;}.cls-35{fill:#9da1a2;}.cls-36{fill:#72cbcc;}.cls-37{fill:#755445;}.cls-38{fill:#000002;}.cls-39{fill:#926d5a;}.cls-40{fill:#c4c4c4;}.cls-41{fill:#99796a;}.cls-42{fill:#0087a2;}</style></defs><title>sentinels_Executive_ESTJ_career_path</title><g id="Layer_1-2" data-name="Layer_1"><polygon class="cls-1" points="0 350 354.07 299.59 360.55 287.44 355.23 90.43 346.62 81.11 26.8 0 0 350"/><polygon class="cls-2" points="79.78 84.39 84.92 83.15 86.79 89.9 85.19 167.54 81.73 173.58 80.4 175.53 77.2 175.53 79.78 84.39"/><polygon class="cls-3" points="182.36 178.73 77.2 175.53 81.73 173.58 88.47 171.36 185.47 175.44 188.75 176.77 182.36 178.73"/><polygon class="cls-4" points="84.92 83.15 81.73 173.58 188.75 176.77 185.29 98.24 84.92 83.15"/><polygon class="cls-5" points="94.77 95.4 92.73 162.84 177.13 165.95 178.37 163.29 176.77 106.31 98.5 94.78 94.77 95.4"/><polygon class="cls-2" points="110.22 145.36 111.55 139.86 116.96 142.43 121.75 139.86 124.06 144.38 129.03 144.47 127.25 149.8 130.27 154.41 125.83 156.19 124.95 160.36 119.98 158.94 115.81 161.78 113.14 157.87 107.64 157.7 109.33 151.75 106.05 146.6 110.22 145.36"/><polygon class="cls-4" points="114.39 144.03 111.55 147.58 111.81 153.97 117.58 157.16 124.5 154.15 124.86 148.64 121.48 144.65 114.39 144.03"/><polygon class="cls-2" points="117.76 146.34 115.36 149.18 117.58 149.62 116.96 154.32 120.06 154.23 120.51 146.34 117.76 146.34"/><path class="cls-2" d="M153.25,144.38l11.19,1v3.55l-11.19-.71Zm-44-30.79,55.2,7v3.28l-55.2-6.47Zm14.82-9.5,26.18,3.47-.18,3.28-26.18-3.11ZM109.24,121.4l55.2,6.48v3.28l-55.2-5.86Zm0,7.9,32,3.73v3.1l-31.95-3Z"/><polygon class="cls-6" points="176.95 338.38 122.28 342.28 99.21 335.89 91.14 290.19 104.09 235.52 176.95 338.38"/><polygon class="cls-7" points="107.02 197.98 104.09 235.52 111.55 241.29 126.1 239.87 127.52 219.19 124.5 200.38 107.02 197.98"/><polygon class="cls-8" points="140.83 198.43 107.02 197.98 118.11 203.57 141.63 206.68 151.39 202.51 140.83 198.43"/><polygon class="cls-9" points="156.63 235.17 145.18 239.07 118.73 237.83 118.11 203.57 151.39 202.51 156.63 235.17"/><polygon class="cls-7" points="110.57 295.33 111.55 279.72 117.76 276.7 148.46 276.61 153.52 280.34 157.25 296.75 153.52 299.42 120.69 298.53 110.57 295.33"/><polygon class="cls-10" points="141.01 334.82 133.82 335.54 132.84 326.84 152.63 322.93 156.18 325.86 154.05 328.7 142.07 330.21 141.01 334.82"/><polygon class="cls-3" points="128.5 325.6 126.45 334.47 133.82 335.54 135.51 327.1 153.34 324.26 151.03 322.49 128.5 325.6"/><polygon class="cls-11" points="163.37 334.82 170.56 335.54 171.45 326.84 154.41 324.35 151.03 324.62 151.39 329.06 162.31 330.21 163.37 334.82"/><polygon class="cls-10" points="170.2 324.26 171.62 334.47 165.15 335.54 163.64 327.1 151.12 325.15 151.3 322.67 154.85 322.67 170.2 324.26"/><polygon class="cls-11" points="154.67 303.41 150.59 301.81 148.73 314.06 151.03 324.62 154.85 322.67 154.67 303.41"/><polygon class="cls-10" points="145.71 303.5 145.8 323.2 151.03 324.62 150.59 301.81 145.71 303.5"/><polygon class="cls-12" points="121.93 303.68 110.57 295.33 154.67 294.63 156.27 298.18 156.27 304.92 121.93 303.68"/><polygon class="cls-13" points="127.88 279.98 111.55 279.72 104.09 235.52 118.73 237.83 124.5 243.6 134.09 272.53 127.88 279.98"/><polygon class="cls-8" points="156.63 235.17 118.73 237.83 127.88 279.98 153.52 280.34 166.65 258.51 156.63 235.17"/><polygon class="cls-2" points="94.77 95.4 175.71 107.11 177.13 165.95 179.61 166.04 177.83 105.34 94.86 93.36 94.77 95.4"/><path class="cls-2" d="M593.4,231.35l11-.53L588,256.2l-16.68.26s0-20.58-.36-20.58h10.12c-.18-7.1-.44-13.58-.53-13.58h12.51Z"/><path class="cls-2" d="M431.36,228.78h10.39l.53,15.44-10.83-.71S431.63,228.78,431.36,228.78Zm85-1.69L511,251.94l-14.19.27s0-20.59-.27-20.59l7.54.09c-.26-7.1-.44-13.58-.62-13.58h12.51Z"/><polygon class="cls-2" points="489.49 199.58 473.96 195.32 469.97 202.07 469.88 272.35 475.02 279.45 489.75 274.92 489.49 199.58"/><polygon class="cls-4" points="445.03 198.78 445.74 278.65 475.02 279.45 473.96 195.32 445.03 198.78"/><path class="cls-2" d="M467.92,219.37l-16.59.71v4.62l16.59-.8Zm-.26-12.87-16.59.62v4.8l16.5-.8Zm.89,49.7-16.51.53v4.62l16.6-.36ZM468.28,244l-16.5.53v4.62l16.5-.44ZM468,232l-16.5.27.09,4.61,16.24-.35Z"/><polygon class="cls-2" points="695.28 209.43 678.95 202.69 674.69 212.01 675.67 286.11 681.17 293.56 696.61 288.77 695.28 209.43"/><polygon class="cls-4" points="648.42 205.97 650.38 292.76 681.17 293.56 678.95 202.69 648.42 205.97"/><path class="cls-2" d="M672.74,227.36l-17.4.62.09,4.61,17.49-.8Zm-.36-12.69-17.57.62L655,220l17.39-.71Zm1.69,49-17.48.54.17,4.52,17.49-.35Zm-.45-12.07-17.48.54.18,4.52,17.3-.35Zm-.53-12.15-17.3.62.09,5.23,17-1Z"/><polygon class="cls-2" points="807.27 169.94 781.62 162.84 775.5 175.53 776.83 280.78 782.15 291.25 789.43 290.27 807.98 287.26 807.27 169.94"/><polygon class="cls-4" points="746.48 166.3 732.9 216.8 740.89 290.19 756.6 291.16 762.28 287.52 773.19 291.07 785.79 290.81 781.62 162.84 746.48 166.3"/><path class="cls-2" d="M761.21,183.52l-5,.27.09,7.09,5-.35Zm-10.56.62-5.15.09.18,7.19,5.06-.27Zm23.61,61.68-5-.09.17,7.54,5.15.09ZM774,230.46l-5.24.09.18,7.46h5.41Zm-.53-16-5.15.27.09,7.19h5.23ZM762.9,245.73l-5,.18.17,7h5.06Zm-.45-15.18-5,.18.09,7,5.33-.09ZM762,214.93l-5.06.27.18,6.92,5.15-.26Zm-9.58,31.15-5,.09.08,7h5.15Zm-.54-15.17H747l.09,7L752,238Zm-.44-15.44-5,.17.18,6.93h5ZM773,199.32l-5.23.17.18,7.63,5.14.09Zm-11.62.35-4.88.27.18,7.1h4.7Zm-10.47.53-4.88.18.17,7h4.53Zm22.18-17-5.41.18.18,7,5.41-.26Z"/><polygon class="cls-1" points="697.23 121.75 730.06 107.91 745.77 112.88 770.17 106.76 799.64 110.75 765.29 120.69 740.53 121.04 697.23 121.75"/><polygon class="cls-14" points="730.51 127.79 697.23 121.75 736.27 117.94 760.23 118.56 799.64 110.75 769.37 129.48 752.16 123.89 730.51 127.79"/><polygon class="cls-1" points="371.73 157.43 425.77 140.39 461.63 151.13 484.88 146.6 509.1 152.46 471.21 159.82 448.76 157.25 426.66 162.66 371.73 157.43"/><polygon class="cls-14" points="371.73 157.43 427.64 157.7 448.49 153.61 473.96 155.92 509.1 152.46 467.75 163.55 453.11 162.93 426.22 168.7 371.73 157.43"/><polygon class="cls-4" points="864.68 0 609.29 40.02 611.24 87.41 807.8 63.27 821.29 259.93 413.97 244.04 408.03 112.35 611.24 87.41 609.29 40.02 346.62 81.11 354.07 299.59 900 350 864.68 0"/><path class="cls-6" d="M352.56,321.16l-42.24,10.2L354.25,341l46.94-6.39-14.2-9ZM215.9,336.24l.89,10.3,34.43,2.57,42.15-12.33L251,331.19Zm470.33,2.49L696,349.56h36.82l12.61-13.85-8.35-55.91-31.5,52.27Zm-29.38,7.36,17.66-16.94-.35-38.25-10.65-29.55L632.63,289l1.06,36.47-45.7,7,4.79,8Zm-152.28-18,49.17-10L550,281.49l28.13-22.81,9.41,19.08,4.61,43.84L584.62,332l-23.52,4.08-45-1.78Z"/><polygon class="cls-1" points="402.7 104.98 610.8 78 611.68 98.77 423.29 119.71 423.11 235.17 427.28 240.31 806.47 246.44 798.13 81.29 790.41 78.98 611.68 98.77 610.8 78 818.18 51.12 828.39 266.4 406.16 253.45 402.7 104.98"/><polygon class="cls-15" points="603.34 276.52 606.89 303.5 618.16 309.62 628.99 303.94 632.63 288.94 627.13 277.23 611.51 274.39 603.34 276.52"/><polygon class="cls-11" points="603.34 276.52 626.33 274.57 663.86 278.47 648.6 288.41 632.63 288.94 603.34 276.52"/><polygon class="cls-15" points="663.86 278.47 662.71 304.56 652.5 309 638.31 304.12 632.63 288.94 663.86 278.47"/><polygon class="cls-16" points="523.3 269.78 526.58 296.05 536.88 302.17 546.73 296.49 550.01 281.49 545.04 269.78 530.75 266.94 523.3 269.78"/><polygon class="cls-17" points="523.3 269.78 544.33 267.11 578.5 272.08 564.56 280.96 550.01 281.49 523.3 269.78"/><polygon class="cls-16" points="578.5 272.08 577.43 297.02 568.11 301.46 555.25 296.67 550.01 281.49 578.5 272.08"/><polygon class="cls-12" points="701.93 218.84 688.89 245.19 701.75 228.69 702.64 222.12 701.93 218.84"/><polygon class="cls-18" points="685.43 151.93 676.82 156.45 687.38 171.63 691.2 159.56 685.43 151.93"/><polygon class="cls-17" points="687.11 206.06 701.67 219.64 717.2 217.42 708.06 204.28 697.32 198.52 688.98 198.43 687.11 206.06"/><polygon class="cls-19" points="691.82 183.7 687.11 206.06 697.32 198.52 698.03 192.13 691.82 183.7"/><polygon class="cls-17" points="756.68 207.03 736.1 216.8 732.9 216.8 730.86 214.22 733.26 199.4 739.74 190.8 750.12 197.72 756.68 207.03"/><polygon class="cls-2" points="541.23 204.02 537.59 208.9 537.76 219.64 540.69 225.85 544.24 226.12 552.67 209.08 544.86 202.69 541.23 204.02"/><polygon class="cls-20" points="542.38 210.32 540.16 205.53 544.86 202.69 549.39 206.41 545.39 210.67 548.06 218.4 543.44 225.41 540.69 224.78 539.01 217.51 542.38 210.32"/><polygon class="cls-7" points="533.86 201.53 537.05 204.19 538.65 209.08 542.91 224.96 536.17 222.3 527.2 211.47 533.86 201.53"/><polygon class="cls-7" points="577.61 232.77 578.5 272.08 543.98 270.84 539.18 258.69 539.63 238.54 542.91 224.96 556.93 212.18 563.94 202.16 576.99 208.28 571.22 223.19 577.61 232.77"/><polygon class="cls-19" points="523.3 269.78 543.98 270.84 542.91 224.96 524.19 221.86 522.86 249.37 523.3 269.78"/><polygon class="cls-7" points="511.14 241.11 521.52 213.07 528.27 220.52 511.14 241.11"/><polygon class="cls-21" points="525.78 205.79 533.86 201.53 530.58 211.38 534.04 215.47 527.29 215.11 522.95 216.97 525.78 205.79"/><polygon class="cls-1" points="521.97 225.67 524.19 221.86 528.18 222.21 531.2 225.05 529.96 228.69 525.87 228.42 521.97 225.67"/><polygon class="cls-7" points="511.14 241.11 521.97 225.67 529.96 228.69 522.95 251.85 511.14 241.11"/><polygon class="cls-19" points="567.76 242.36 577.61 235.26 576.99 208.28 552.32 233.04 557.2 241.29 567.76 242.36"/><polygon class="cls-13" points="536.17 230.11 552.14 253.45 567.76 242.36 542.91 224.96 538.56 226.65 536.17 230.11"/><polygon class="cls-1" points="533.59 226.12 536.17 230.11 542.91 224.96 539.18 221.23 535.28 222.65 533.59 226.12"/><polygon class="cls-22" points="536.61 208.81 534.04 215.47 535.99 219.9 539.18 221.23 538.65 209.08 536.61 208.81"/><polygon class="cls-21" points="530.58 211.38 539.18 221.23 533.59 226.12 524.19 221.86 525.16 214.93 530.58 211.38"/><polygon class="cls-22" points="524.1 203.84 521.52 213.07 524.19 221.86 530.58 211.38 524.1 203.84"/><polygon class="cls-19" points="563.94 202.16 560.39 215.02 542.91 224.96 550.28 210.59 555.87 204.91 563.94 202.16"/><polygon class="cls-1" points="544.95 202.78 550.28 210.59 563.94 202.16 561.01 198.61 552.14 198.78 544.95 202.78"/><polygon class="cls-1" points="538.65 209.08 544.95 202.78 539.45 198.43 535.99 198.61 533.86 201.53 537.5 207.39 538.65 209.08"/><polygon class="cls-20" points="541.05 261.17 543.71 257.89 546.9 261.08 543.8 264.1 541.05 261.17"/><polygon class="cls-20" points="540.78 249.1 543.44 245.91 546.64 249.01 543.53 252.03 540.78 249.1"/><polygon class="cls-23" points="534.66 188.58 535.99 198.61 544.95 202.78 555.07 200.11 558.44 197.98 554.89 191.33 534.66 188.58"/><polygon class="cls-21" points="552.23 193.28 555.07 200.11 561.01 198.61 571.75 181.21 569.62 167.54 570.69 145.36 567.23 141.54 564.21 144.29 560.75 146.96 551.34 186.54 552.23 193.28"/><polygon class="cls-23" points="571.75 181.21 567.23 173.31 574.15 173.4 575.57 175.18 571.75 181.21"/><polygon class="cls-22" points="516.2 183.7 552.23 193.28 564.21 144.29 553.56 139.15 522.95 142.17 516.2 183.7"/><polygon class="cls-17" points="591.98 152.01 575.57 175.18 574.41 171.18 563.59 168.34 564.21 144.29 580.63 146.16 591.98 152.01"/><polygon class="cls-19" points="564.21 144.29 591.98 152.01 580.36 128.5 567.93 135.6 564.21 144.29"/><polygon class="cls-17" points="517.89 127.08 522.95 142.17 564.21 144.29 537.14 132.85 517.89 127.08"/><polygon class="cls-18" points="580.36 128.5 564.21 144.29 544.68 129.12 536.34 116.87 580.36 128.5"/><polygon class="cls-19" points="536.34 116.87 564.21 144.29 517.89 127.08 536.34 116.87"/><polygon class="cls-22" points="570.51 161.24 567.23 173.31 575.57 175.18 579.12 163.73 570.51 161.24"/><polygon class="cls-23" points="572.55 165.06 575.65 165.86 571.04 170.3 572.55 165.06"/><polygon class="cls-21" points="523.83 150.06 530.13 150.95 533.33 152.46 534.22 157.52 530.22 166.93 528 155.03 523.83 150.06"/><polygon class="cls-21" points="538.03 168.79 539.01 158.23 541.85 154.06 546.99 153.97 553.91 156.01 545.22 159.65 538.03 168.79"/><polygon class="cls-24" points="530.22 166.93 533.42 168.61 538.03 168.79 541.85 154.06 533.33 152.46 530.22 166.93"/><polygon class="cls-23" points="533.33 170.12 530.22 166.93 538.03 168.79 533.33 170.12"/><polygon class="cls-25" points="523.83 150.06 529.78 149.18 533.33 152.46 523.83 150.06"/><polygon class="cls-25" points="541.85 154.06 547.35 152.37 553.91 156.01 541.85 154.06"/><polygon class="cls-23" points="527.38 173.31 529.6 179.88 539.1 182.19 545.66 176.42 527.38 173.31"/><polygon class="cls-5" points="529.51 175.09 542.02 177.31 538.92 180.59 530.75 178.55 529.51 175.09"/><polygon class="cls-2" points="624.02 207.92 620.11 212.98 620.29 224.07 623.49 230.46 627.3 230.82 636.27 213.16 627.83 206.41 624.02 207.92"/><polygon class="cls-20" points="625.17 214.4 622.87 209.43 627.83 206.41 632.72 210.32 628.46 214.76 631.29 222.83 626.41 230.02 623.49 229.4 620.74 224.61 621.53 221.06 625.17 214.4"/><polygon class="cls-19" points="616.12 205.26 619.58 208.01 621.27 213.16 625.79 229.93 618.61 226.82 608.76 216.97 616.12 205.26"/><polygon class="cls-13" points="662.98 237.65 663.86 278.47 626.86 277.23 603.34 276.52 605.74 226.38 625.79 229.58 640.88 216.26 648.42 205.97 662.44 211.56 656.14 227.8 662.98 237.65"/><polygon class="cls-17" points="604.05 261.79 636.44 260.46 663.51 261.35 662.98 237.65 604.85 244.22 604.05 261.79"/><polygon class="cls-19" points="591.01 245.91 601.92 218.93 610.09 224.96 591.01 245.91"/><polygon class="cls-26" points="608.05 210.94 616.12 205.26 612.57 215.56 609.02 219.37 608.05 210.94"/><polygon class="cls-1" points="603.34 230.29 605.74 226.38 610 226.74 613.28 229.66 611.86 233.93 607.6 233.22 603.34 230.29"/><polygon class="cls-7" points="591.01 245.91 603.34 230.29 611.86 233.93 604.23 257.98 591.01 245.91"/><polygon class="cls-19" points="649.4 249.28 662.98 237.65 662.44 211.56 635.64 235.79 641.06 246.62 649.4 249.28"/><polygon class="cls-7" points="618.61 234.9 636.44 260.46 652.68 246.53 625.79 229.58 621.09 231.35 618.61 234.9"/><polygon class="cls-1" points="615.85 230.82 618.61 234.9 625.79 229.58 621.8 225.76 617.63 227.18 615.85 230.82"/><polygon class="cls-27" points="619.05 212.81 616.3 219.73 618.43 224.34 621.8 225.76 621.27 213.16 619.05 212.81"/><polygon class="cls-26" points="612.57 215.56 621.8 225.76 615.85 230.82 605.74 226.38 606.8 219.19 612.57 215.56"/><polygon class="cls-27" points="605.38 208.1 601.83 218.75 605.74 226.38 612.57 215.56 605.38 208.1"/><polygon class="cls-19" points="648.42 205.97 644.52 219.28 625.79 229.58 633.69 214.67 639.64 208.81 648.42 205.97"/><polygon class="cls-1" points="628.01 206.59 633.69 214.67 648.42 205.97 645.23 202.24 635.73 202.42 628.01 206.59"/><polygon class="cls-1" points="621.27 213.16 628.01 206.59 623.4 202.07 619.32 202.16 616.12 205.26 620.02 211.38 621.27 213.16"/><polygon class="cls-28" points="617.99 192.66 619.32 202.16 628.01 206.59 639.11 203.84 642.12 199.67 640.08 194.97 617.99 192.66"/><polygon class="cls-26" points="636 198.25 639.11 203.84 645.23 202.24 657.12 183.07 654.1 170.03 655.25 147.05 644.43 150.69 635.2 189.73 636 198.25"/><polygon class="cls-28" points="651.62 175.98 657.12 183.07 660.31 177.93 651.62 175.98"/><polygon class="cls-27" points="597.84 190.35 636 198.25 647.36 150.69 633.34 144.38 612.57 140.3 602.46 143.59 597.84 190.35"/><polygon class="cls-25" points="669.45 153.79 664.84 165.86 659.07 173.85 647.8 170.83 653.57 147.05 665.55 147.84 669.45 153.79"/><polygon class="cls-27" points="655.08 163.55 651.62 175.98 660.31 177.93 664.84 165.86 655.08 163.55"/><polygon class="cls-28" points="657.12 167.46 660.4 168.34 655.61 172.87 657.12 167.46"/><polygon class="cls-26" points="606.8 156.54 613.28 157.43 616.56 158.94 617.54 164.26 613.37 174.02 611.06 161.69 606.8 156.54"/><polygon class="cls-26" points="621.53 175.89 622.51 164.88 625.44 160.62 630.76 160.53 637.95 162.66 628.99 166.39 621.53 175.89"/><polygon class="cls-29" points="613.37 174.02 616.74 175.8 621.53 175.89 625.44 160.62 616.56 158.94 613.37 174.02"/><polygon class="cls-25" points="606.8 156.54 607.25 153.79 617.01 156.1 616.56 158.94 606.8 156.54"/><polygon class="cls-25" points="625.44 160.62 626.15 158.23 638.22 160.53 637.95 162.66 625.44 160.62"/><polygon class="cls-28" points="608.85 179.79 611.86 186.18 619.67 187.96 627.83 182.99 608.85 179.79"/><polygon class="cls-5" points="610.62 178.82 625.79 182.1 619.32 185.91 613.01 184.32 610.62 178.82"/><polygon class="cls-20" points="605.47 179.26 613.37 174.02 616.56 176.42 621.53 175.89 630.85 184.76 605.47 179.26"/><polygon class="cls-20" points="669.45 153.79 651.97 153.44 637.68 147.67 629.43 133.2 650.11 129.21 659.07 128.32 669.45 153.79"/><polygon class="cls-11" points="599.35 134.27 601.66 151.04 613.1 142.7 606.63 131.34 599.35 134.27"/><polygon class="cls-20" points="614.26 120.95 599.35 134.27 613.1 142.7 618.34 132.58 614.26 120.95"/><polygon class="cls-11" points="613.1 142.7 614.26 120.95 627.48 127.79 632.63 135.69 652.86 153.44 613.1 142.7"/><polygon class="cls-10" points="614.26 120.95 632.63 135.69 659.07 128.32 614.26 120.95"/><polygon class="cls-7" points="737.78 216 730.86 214.22 721.37 221.41 715.33 229.49 707.43 222.83 697.85 251.76 698.29 255.58 710.45 256.02 730.51 245.37 734.77 237.12 737.78 216"/><polygon class="cls-12" points="698.29 255.58 728.64 247.86 728.02 258.06 711.25 265.78 699.09 262.41 698.29 255.58"/><polygon class="cls-20" points="720.21 213.78 712.94 216.8 716.75 229.93 730.86 214.22 720.21 213.78"/><polygon class="cls-13" points="728.02 258.06 708.59 280.16 700.96 283 699.09 262.41 728.02 258.06"/><polygon class="cls-30" points="705.39 331.81 710.54 329.94 714.27 332.69 713.38 336.24 709.3 341.84 704.59 340.68 703 337.58 705.39 331.81"/><polygon class="cls-12" points="705.75 304.92 703.62 312.37 705.39 331.81 720.75 333.05 728.47 320.81 730.06 302.79 737.07 279.81 731.22 279.89 705.75 304.92"/><polygon class="cls-30" points="720.75 333.05 727.49 330.48 729.17 341.57 729.44 343.61 721.37 342.1 719.41 339.26 720.75 333.05"/><polygon class="cls-7" points="730.06 302.79 735.39 330.56 720.75 333.05 730.06 302.79"/><polygon class="cls-7" points="703.62 312.37 737.07 279.81 728.02 258.06 700.96 283 703.62 312.37"/><polygon class="cls-12" points="745.59 232.95 737.78 216 726.34 237.39 726.78 242.89 736.81 245.46 745.59 232.95"/><polygon class="cls-20" points="711.78 233.48 728.02 258.06 736.81 245.46 716.75 229.93 713.29 230.91 711.78 233.48"/><polygon class="cls-31" points="716.31 218.84 717.82 219.19 716.75 229.93 713.38 224.16 716.31 218.84"/><polygon class="cls-30" points="707.35 226.38 711.78 233.48 716.75 229.93 712.94 216.8 708.14 220.35 707.35 226.38"/><polygon class="cls-30" points="706.46 216.53 704.51 214.22 708.32 211.92 708.77 215.47 706.46 216.53"/><polygon class="cls-30" points="705.13 233.39 702.11 231.26 700.69 228.6 701.93 218.84 705.22 220.61 707.35 226.38 705.13 233.39"/><polygon class="cls-31" points="701.93 218.84 707.35 226.38 712.94 216.8 704.51 214.22 701.93 218.84"/><polygon class="cls-20" points="688.89 245.19 698.29 255.58 705.13 233.39 700.69 228.6 688.89 245.19"/><polygon class="cls-32" points="708.14 207.03 712.94 216.8 727.67 214.67 732.19 203.75 708.14 207.03"/><polygon class="cls-30" points="729.26 206.77 712.94 216.8 730.86 214.22 737.7 196.39 733.7 182.45 730.51 170.92 725.63 161.16 718.26 179.26 722.43 206.86 729.26 206.77"/><polygon class="cls-31" points="695.99 207.3 722.43 206.86 725.63 161.16 698.74 153.7 685.16 160.09 687.38 186.71 695.99 207.3"/><polygon class="cls-30" points="699.54 175.27 698.21 172.78 696.16 170.92 692.7 169.76 688.53 171.09 693.06 175.53 698.12 186.89 699.54 175.27"/><polygon class="cls-30" points="701.58 175.53 703.17 186.89 708.14 175.98 713.74 170.74 709.12 169.59 704.68 170.74 702.82 172.96 701.58 175.53"/><polygon class="cls-19" points="746.48 166.3 756.68 207.03 739.74 190.8 737.61 185.03 731.93 187.25 728.64 173.76 737.25 167.46 746.48 166.3"/><polygon class="cls-18" points="741.78 147.4 746.48 166.3 728.64 173.76 725.63 161.16 729.89 150.06 741.78 147.4"/><polygon class="cls-32" points="737.7 196.39 733.79 191.51 736.45 189.91 739.74 190.8 737.7 196.39"/><polygon class="cls-31" points="732.81 178.99 731.93 187.25 733.79 191.51 739.74 190.8 740.98 179.44 732.81 178.99"/><polygon class="cls-32" points="735.12 181.57 735.21 186.09 737.96 181.92 735.12 181.57"/><polygon class="cls-19" points="741.78 147.4 725.63 161.16 720.39 156.19 719.41 138.44 741.78 147.4"/><polygon class="cls-18" points="693.86 140.3 719.41 138.44 725.63 161.16 691.37 147.22 693.86 140.3"/><polygon class="cls-19" points="676.82 156.45 693.86 140.3 725.63 161.16 685.16 160.09 676.82 156.45"/><polygon class="cls-25" points="688.53 171.09 691.82 168.52 696.16 170.92 691.64 170.3 688.53 171.09"/><polygon class="cls-25" points="713.74 170.74 709.12 167.99 704.68 170.74 710.01 170.12 713.74 170.74"/><polygon class="cls-33" points="698.21 172.78 702.82 172.96 703.17 186.89 700.42 187.34 698.12 186.89 698.21 172.78"/><polygon class="cls-32" points="700.96 188.93 698.12 186.89 703.17 186.89 700.96 188.93"/><polygon class="cls-16" points="701.31 194.26 699.71 195.23 702.73 199.85 709.74 199.85 714.18 192.93 708.23 194.79 701.31 194.26"/><polygon class="cls-5" points="703.35 198.07 699.71 195.23 702.02 194.52 708.23 194.79 714.18 192.93 708.94 197.98 703.35 198.07"/><polygon class="cls-19" points="698.29 195.23 700.87 193.1 708.68 193.72 714.18 192.93 708.5 195.41 698.29 195.23"/><path class="cls-34" d="M711.78,233.48l-4.43-7.1-9.06,29.2ZM523,251.85l13.22-21.74-2.58-4-2.39-1.07Zm48.54-4-19.35,5.59,25.47-18.19ZM663,237.65l-26.54,22.81,22-9.67Zm-44.37-2.75L604.23,258l9-28.3,2.57,1.15Z"/><polygon class="cls-11" points="577.25 327.37 576.54 319.12 569.27 314.68 562.7 318.41 557.91 327.37 567.58 328.26 577.25 327.37"/><polygon class="cls-11" points="542.64 323.82 542.47 315.57 535.1 312.19 528.98 315.04 517.71 323.82 530.22 325.24 542.64 323.82"/><polygon class="cls-20" points="542.68 323.82 517.67 323.82 517.73 326.61 542.74 326.61 542.68 323.82"/><polygon class="cls-20" points="577.25 327.35 557.94 327.35 558 330.52 577.31 330.52 577.25 327.35"/><polygon class="cls-18" points="576.54 319.12 562.7 318.41 555.25 296.67 577.43 297.02 576.54 319.12"/><polygon class="cls-18" points="542.47 315.57 528.98 315.04 526.58 296.05 546.73 296.49 542.47 315.57"/><polygon class="cls-11" points="662.44 334.82 661.64 326.57 653.75 322.13 646.47 325.86 641.23 334.82 651.79 335.8 662.44 334.82"/><polygon class="cls-11" points="624.46 331.27 624.29 323.02 616.12 319.65 609.47 322.58 596.95 331.27 610.71 332.69 624.46 331.27"/><polygon class="cls-20" points="624.46 331.3 596.98 331.3 597.06 335.22 624.54 335.22 624.46 331.3"/><polygon class="cls-20" points="662.44 334.83 641.22 334.83 641.3 338.86 662.52 338.86 662.44 334.83"/><polygon class="cls-10" points="661.64 326.57 646.47 325.86 638.31 304.12 662.71 304.56 661.64 326.57"/><polygon class="cls-10" points="624.29 323.02 609.47 322.58 606.89 303.5 628.99 303.94 624.29 323.02"/><polygon class="cls-20" points="727.76 331.99 732.02 341.13 729.44 346.54 717.02 346.72 716.75 344.32 721.37 342.1 729.26 343.61 727.76 331.99"/><polygon class="cls-10" points="729.44 343.61 719.41 339.26 716.75 344.32 729.44 343.61"/><polygon class="cls-10" points="709.39 342.37 703 337.58 697.94 342.99 704.06 343.61 709.39 342.37"/><polygon class="cls-20" points="712.49 341.39 707.7 345.39 698.12 345.47 697.94 342.99 706.19 342.55 714.27 332.78 716.66 338.02 715.24 344.32 713.47 344.5 712.49 341.39"/><path class="cls-25" d="M527.34,154.94a2.13,2.13,0,0,1,2.12,2.08,2,2,0,0,1-2,2.07A2.14,2.14,0,0,1,525.3,157,2,2,0,0,1,527.34,154.94Z"/><path class="cls-25" d="M545.05,159a2.13,2.13,0,0,1,2.12,2.08,2,2,0,0,1-2,2.08A2.13,2.13,0,0,1,543,161,2,2,0,0,1,545.05,159Z"/><path class="cls-25" d="M610.37,161.63a2.14,2.14,0,0,1,2.12,2.08,2,2,0,0,1-2,2.08,2.13,2.13,0,0,1-2.12-2.08A2,2,0,0,1,610.37,161.63Z"/><path class="cls-25" d="M628.79,165.81a2.13,2.13,0,0,1,2.12,2.08,2,2,0,0,1-2,2.07,2.14,2.14,0,0,1-2.12-2.07A2,2,0,0,1,628.79,165.81Z"/><path class="cls-25" d="M692.46,176.17a2.13,2.13,0,0,1,2.12,2.08,2,2,0,0,1-2,2.08,2.12,2.12,0,0,1-2.11-2.08A2,2,0,0,1,692.46,176.17Z"/><path class="cls-25" d="M708.21,176.17a2.13,2.13,0,0,1,2.12,2.08,2,2,0,0,1-2,2.08,2.13,2.13,0,0,1-2.12-2.08A2,2,0,0,1,708.21,176.17Z"/><polygon class="cls-16" points="735.83 186.98 734.06 188.93 735.83 190.62 737.7 188.84 735.83 186.98"/><polygon class="cls-4" points="419.12 116.87 797.77 74.1 798.13 81.29 425.51 122.46 427.28 240.31 419.83 240.31 419.12 116.87"/><polygon class="cls-1" points="366.76 26.09 327.63 35.14 334.37 44.37 357.18 44.19 367.21 37.98 371.29 27.86 366.76 26.09"/><polygon class="cls-4" points="402.7 34.61 366.76 26.09 367.21 37.98 373.68 41.89 393.65 44.46 402.7 34.61"/><polygon class="cls-1" points="365.25 49.96 334.37 44.37 367.21 37.98 393.65 44.46 365.25 49.96"/><polygon class="cls-5" points="365.43 46.68 356.82 43.48 366.5 41.35 376.7 43.4 365.43 46.68"/><polygon class="cls-4" points="365.08 47.48 351.06 44.73 356.82 43.48 365.61 45.17 376.7 43.4 381.76 44.46 365.08 47.48"/><polygon class="cls-1" points="484.25 3.11 445.12 12.07 451.86 21.39 474.67 21.12 484.61 15 488.78 4.88 484.25 3.11"/><polygon class="cls-4" points="520.19 11.63 484.25 3.11 484.61 15 491.18 18.9 511.05 21.48 520.19 11.63"/><polygon class="cls-1" points="482.66 26.89 451.86 21.39 484.61 15 511.05 21.48 482.66 26.89"/><polygon class="cls-5" points="482.92 23.69 474.31 20.41 483.99 18.28 494.19 20.41 482.92 23.69"/><polygon class="cls-4" points="482.57 24.4 468.55 21.74 474.31 20.41 483.01 22.1 494.19 20.41 499.25 21.39 482.57 24.4"/><polygon class="cls-3" points="147.13 270.4 161.69 336.6 198.07 338.82 202.5 330.48 198.87 275.19 194.96 268.89 156.8 265.87 147.13 270.4"/><polygon class="cls-35" points="316.98 259.31 194.96 268.89 198.07 338.82 310.59 322.49 316.98 259.31"/><polygon class="cls-35" points="135.06 257.98 136.39 272.44 195.23 275.01 200.64 268.45 193.81 258.6 179.79 256.82 135.06 257.98"/><polygon class="cls-2" points="326.3 250.96 193.81 258.6 195.14 275.01 222.29 272.79 325.68 264.1 326.3 250.96"/><path class="cls-6" d="M147.66,273l4.26,19.53L195.14,275ZM24.05,35.76l323.1,63L867.08,23.25,864.68,0,346.62,81.11,26.8,0ZM221.32,257l-3.55,16.15-4.35.35-5.86,32.75,8.34,30L251,331.19,255.22,285Z"/><polygon class="cls-4" points="258.5 249.01 135.06 257.98 193.81 258.6 326.3 250.96 258.5 249.01"/><polygon class="cls-16" points="190.7 248.21 191.15 253.89 221.23 254.51 224.78 246.7 190.7 248.21"/><polygon class="cls-36" points="190.7 248.21 220.87 248.57 224.96 245.91 190.7 248.21"/><polygon class="cls-13" points="280.24 227.18 278.82 219.9 280.95 202.6 286.63 223.72 280.24 227.18"/><polygon class="cls-20" points="297.63 131.52 289.82 141.01 278.11 123.35 276.51 113.68 280.24 109.51 297.63 131.52"/><polygon class="cls-7" points="279.8 239.07 284.41 234.19 294 232.95 284.14 249.72 279.8 239.07"/><polygon class="cls-4" points="256.46 200.47 266.66 208.01 265.87 231.88 249.54 211.74 256.46 200.47"/><polygon class="cls-20" points="251.13 205.17 253.44 207.12 257.26 210.76 254.68 218.04 263.11 231.79 266.66 218.75 260.81 210.05 262.4 203.49 256.46 200.47 251.13 205.17"/><polygon class="cls-37" points="298.25 194.08 299.85 203.04 304.47 200.38 307.04 194.52 303.49 185.38 298.25 194.08"/><polygon class="cls-15" points="359.84 200.29 340.58 225.49 346.62 230.29 354.69 230.2 356.11 217.24 359.84 200.29"/><polygon class="cls-22" points="339.52 124.77 364.1 128.06 386.37 133.56 385.75 143.59 381.31 155.74 383.8 155.3 385.84 158.05 388.06 152.64 390.1 150.06 393.83 151.48 398.18 155.39 397.29 158.05 394.54 162.13 392.14 166.57 383.53 193.01 363.92 199.05 362.77 187.42 360.11 179.88 351.14 177.66 337.92 175.35 336.68 151.4 339.52 124.77"/><polygon class="cls-21" points="368.54 152.28 364.1 144.38 354.6 145.18 349.37 154.15 352.65 140.3 362.41 139.77 368.71 143.59 371.64 147.58 368.54 152.28"/><polygon class="cls-21" points="337.92 140.12 344.67 143.94 346 152.37 350.35 138.62 337.92 140.12"/><polygon class="cls-21" points="371.2 155.92 351.23 157.43 351.14 154.59 371.2 155.92"/><polygon class="cls-21" points="336.77 152.28 345.46 156.81 345.82 153.79 336.77 152.28"/><polygon class="cls-21" points="379.81 132.31 372.09 140.75 371.2 155.92 371.91 178.46 363.92 199.05 373.06 197.19 383.53 193.01 392.14 166.57 385.49 163.55 385.84 158.05 381.31 155.74 386.37 133.56 379.81 132.31"/><polygon class="cls-23" points="392.14 166.57 385.49 163.55 388.86 176.69 392.14 166.57"/><polygon class="cls-23" points="337.92 175.35 377.76 178.73 369.51 197.27 367.38 199.05 363.92 199.05 360.11 179.88 337.92 175.35"/><polygon class="cls-38" points="369.78 137.64 363.21 134.09 354.43 136.66 369.78 137.64"/><polygon class="cls-38" points="348.04 135.42 342.36 131.34 338.63 132.85 348.04 135.42"/><polygon class="cls-23" points="350.61 159.74 347.95 162.93 345.11 159.56 350.61 159.74"/><polygon class="cls-7" points="363.48 166.3 357.09 173.58 348.3 172.87 347.59 166.75 363.48 166.3"/><polygon class="cls-5" points="356.64 167.19 363.48 166.3 356.2 171.81 349.9 171.27 349.73 166.66 356.64 167.19"/><polygon class="cls-23" points="394.36 157.25 391.25 154.77 388.86 159.47 394.36 157.25"/><polygon class="cls-20" points="339.52 124.77 360.28 107.29 360.73 118.65 358.6 128.32 339.52 124.77"/><polygon class="cls-10" points="360.28 107.29 397.82 115.81 401.19 121.75 401.64 127.08 394.89 134.44 386.37 133.56 379.81 132.31 358.6 128.32 360.28 107.29"/><polygon class="cls-20" points="401.64 127.08 403.59 130.81 403.5 133.82 408.2 150.42 395.34 149.8 383.36 146.6 386.37 133.56 401.64 127.08"/><polygon class="cls-25" points="408.2 150.42 383.36 146.6 381.31 155.74 385.84 158.05 390.1 150.06 398.18 155.39 394.54 162.13 408.2 150.42"/><polygon class="cls-25" points="403.5 133.82 415.3 131.52 410.69 121.04 397.82 115.81 403.5 133.82"/><polygon class="cls-10" points="397.82 115.81 411.93 106.4 425.77 140.39 415.3 131.52 397.82 115.81"/><polygon class="cls-25" points="383.53 193.01 359.84 200.29 360.99 210.59 362.95 210.85 380.96 202.42 386.64 196.56 383.53 193.01"/><polygon class="cls-36" points="386.64 196.56 389.66 206.68 399.68 211.38 393.65 227.89 370.58 228.07 352.83 223.99 359.84 200.29 364.1 208.81 386.64 196.56"/><polygon class="cls-17" points="393.65 227.89 352.83 223.99 360.11 253.71 372.44 254.25 386.73 246.35 393.65 227.89"/><polygon class="cls-15" points="399.68 211.38 386.64 196.56 361.88 219.73 368.89 226.91 375.55 226.47 399.68 211.38"/><polygon class="cls-19" points="363.48 166.3 357.44 166.48 351.5 164.71 345.2 166.48 357.44 167.9 363.48 166.3"/><polygon class="cls-25" points="339.7 239.69 354.69 230.2 323.72 217.6 320.8 221.86 320.26 226.38 339.7 239.69"/><polygon class="cls-21" points="322.04 210.94 332.77 219.46 334.19 214.49 331.8 208.81 322.04 210.94"/><polygon class="cls-21" points="339.87 205.08 336.15 206.68 340.32 213.25 344.58 211.12 339.87 205.08"/><polygon class="cls-22" points="344.58 211.12 339.61 210.94 331.8 208.81 332.77 219.46 343.95 221.06 344.67 214.31 344.58 211.12"/><polygon class="cls-25" points="344.58 211.12 343.95 221.06 361.26 235.79 375.55 226.47 344.58 211.12"/><polygon class="cls-3" points="306.77 204.28 339.87 205.08 339.61 210.94 305.8 210.94 306.77 204.28"/><polygon class="cls-2" points="300.3 166.48 304.02 161.78 307.31 183.78 306.77 204.28 305.8 210.94 300.3 166.48"/><polygon class="cls-4" points="304.82 173.94 335.35 174.47 337.04 204.99 306.77 204.28 304.82 173.94"/><polygon class="cls-13" points="305.53 192.57 314.67 183.78 319.64 178.46 327.81 183.07 336.5 195.77 331.09 194.79 327.63 204.82 322.04 183.43 316 197.9 312.45 190.97 305.53 192.57"/><polygon class="cls-8" points="312.99 152.46 304.02 161.78 304.82 173.94 314.67 183.78 327.81 183.07 335.35 174.47 334.55 160.18 326.12 152.1 312.99 152.46"/><polygon class="cls-1" points="314.76 156.19 308.46 161.87 309.44 173.4 316 179.97 326.03 179.44 332.15 172.43 331.09 162.04 324.7 155.92 314.76 156.19"/><polygon class="cls-18" points="313.07 164.79 316.54 164.88 316.71 166.84 312.63 170.74 313.78 174.38 319.82 174.38 320 171.36 316.36 171.54 320 167.19 319.29 161.69 312.99 161.69 313.07 164.79"/><path class="cls-18" d="M322.39,161.78,320.88,166,322,174.2l6.21-.44.8-6.92-1.95-5.15Zm2.49,2.22,1.24,2.84-.27,4.34h-1.42l-1.06-4.88Z"/><polygon class="cls-39" points="299.85 203.04 300.92 207.83 305.8 210.94 308.9 197.36 305.89 195.85 299.85 203.04"/><polygon class="cls-1" points="295.24 208.54 295.5 215.38 301.71 219.11 305.8 210.94 299.85 203.04 295.24 208.54"/><polygon class="cls-7" points="282.37 223.54 295.24 208.54 301.71 219.11 282.64 227 282.37 223.54"/><polygon class="cls-39" points="299.85 230.29 298.61 223.45 301.71 219.11 314.76 216.18 314.76 227.98 310.14 232.42 305 229.93 299.85 230.29"/><polygon class="cls-23" points="320.26 226.38 315.12 233.57 310.14 232.42 313.25 227.09 315.65 219.28 320.26 226.38"/><polygon class="cls-21" points="314.76 216.18 310.32 225.41 313.25 227.09 315.74 222.65 320.26 226.38 323.72 217.6 314.76 216.18"/><polygon class="cls-37" points="300.74 224.7 299.85 230.29 310.14 232.42 300.74 224.7"/><polygon class="cls-1" points="294 232.95 299.85 230.29 301.71 219.11 292.84 221.15 290.18 226.82 294 232.95"/><polygon class="cls-18" points="285.65 271.55 282.46 301.73 270.75 308.73 259.39 302.17 255.22 284.95 260.72 271.55 276.96 268.27 285.65 271.55"/><polygon class="cls-17" points="285.65 271.55 261.43 268.53 222.29 272.79 238.44 284.33 255.22 284.95 285.65 271.55"/><polygon class="cls-18" points="222.29 272.79 224.07 302.88 234.9 307.94 249.63 302.35 255.22 284.95 222.29 272.79"/><polygon class="cls-13" points="222.29 272.79 259.3 272.17 267.73 259.48 264.62 244.13 231.34 239.34 220.25 238.36 222.29 272.79"/><polygon class="cls-12" points="283.35 237.83 285.65 271.55 259.3 272.17 258.94 249.01 271.63 239.07 283.35 237.83"/><polygon class="cls-20" points="255.66 257.53 259.03 254.07 262.31 257.62 259.12 260.81 255.66 257.53"/><polygon class="cls-12" points="271.99 197.45 280.95 202.6 282.64 227 273.23 229.13 262.76 227.98 269.42 210.05 271.99 197.45"/><polygon class="cls-13" points="264.53 208.72 266.13 201.89 271.99 197.45 274.03 213.78 262.76 227.98 264.53 208.72"/><polygon class="cls-13" points="232.14 198.16 218.21 205.35 242.08 226.74 247.67 215.65 241.28 205.44 232.14 198.16"/><polygon class="cls-12" points="251.84 210.5 245.54 204.02 232.14 198.16 247.23 223.36 262.76 227.98 251.84 210.5"/><polygon class="cls-1" points="234.98 194.61 232.14 198.16 251.84 210.5 256.46 200.47 244.39 195.06 234.98 194.61"/><polygon class="cls-1" points="271.99 197.45 268.26 194.17 261.96 196.03 256.46 200.47 264.53 208.72 271.99 197.45"/><polygon class="cls-23" points="240.31 196.12 256.46 200.47 268.26 194.17 270.39 189.47 236.4 187.34 240.31 196.12"/><polygon class="cls-37" points="240.31 196.12 234.98 194.61 223.45 176.77 227 163.46 227.44 137.37 235.87 128.94 245.99 146.96 247.85 182.9 245.99 191.06 240.31 196.12"/><polygon class="cls-23" points="224.87 168.79 220.43 172.07 223.45 176.77 228.15 169.05 224.87 168.79"/><polygon class="cls-39" points="286.36 188.75 245.99 191.06 243.41 148.2 235.87 128.94 244.12 122.38 273.41 124.24 280.24 126.55 288.67 134.09 291.25 149.62 286.36 188.75"/><polygon class="cls-23" points="256.55 173.94 260.81 181.92 273.41 182.19 277.13 175.8 256.55 173.94"/><polygon class="cls-5" points="259.39 174.2 262.14 179.61 271.54 179.88 274.03 176.33 259.39 174.2"/><polygon class="cls-20" points="271.1 171.98 272.17 167.9 276.6 166.66 285.12 174.47 274.03 176.33 271.1 171.98"/><polygon class="cls-11" points="273.85 176.6 272.17 167.9 266.75 166.66 252.11 174.91 273.85 176.6"/><polygon class="cls-37" points="245.01 154.06 255.84 154.06 257.7 160.09 244.3 162.84 266.75 166.66 276.6 166.66 289.74 161.69 278.64 159.65 281.57 153.7 288.05 153.61 290 159.47 291.07 151.4 276.6 150.06 246.16 149.89 245.01 154.06"/><polygon class="cls-20" points="231.43 162.04 227 163.46 220.43 172.07 208.89 159.65 217.59 151.22 230.99 148.2 231.43 162.04"/><polygon class="cls-10" points="200.55 150.42 208.89 159.65 230.99 148.2 230.72 137.11 212 138.35 200.55 150.42"/><polygon class="cls-11" points="213.42 119.54 200.55 150.42 230.72 137.11 244.83 125.22 230.01 120.25 213.42 119.54"/><polygon class="cls-10" points="232.85 110.22 213.42 119.54 244.83 125.22 241.99 115.81 232.85 110.22"/><polygon class="cls-20" points="267.11 126.1 244.83 125.22 232.85 110.22 245.99 104.09 260.81 114.83 267.11 126.1"/><polygon class="cls-10" points="245.99 104.09 280.24 109.51 280.24 126.55 267.11 126.1 245.99 104.09"/><polygon class="cls-39" points="228.15 169.05 220.43 172.07 216.17 160.09 225.58 156.63 228.15 169.05"/><polygon class="cls-23" points="219.72 162.04 223.45 160.62 225.13 166.04 219.72 162.04"/><path class="cls-40" d="M295,149.62l-18.37-.53-9.76-.27-23.43-.62.89,14.64,22.54-.62,9.76-.27,17.22-.44L295,149.62Zm-16.5,1.6,14.46.26-.71,8-13.58.18ZM265.15,151l-.62,8.87-18.19.36-.44-9.5Z"/><polygon class="cls-25" points="284.59 144.12 276.6 147.22 287.87 147.4 284.59 144.12"/><polygon class="cls-25" points="248.74 146.96 266.93 146.96 256.19 143.05 248.74 146.96"/><polygon class="cls-41" points="275.89 151.22 267.82 151.13 266.75 166.66 272.17 167.9 276.6 166.66 275.89 151.22"/><polygon class="cls-25" points="272.52 169.76 266.75 166.66 276.6 166.66 272.52 169.76"/><polygon class="cls-13" points="258.94 249.01 254.86 236.68 262.76 227.98 292.84 221.15 294 232.95 258.94 249.01"/><polygon class="cls-7" points="218.21 205.35 262.76 227.98 258.94 249.01 220.25 238.36 218.21 205.35"/><polygon class="cls-11" points="225.04 337.67 225.67 328.17 233.83 323.11 241.46 327.37 247.23 337.67 236.14 338.73 225.04 337.67"/><polygon class="cls-11" points="264.62 333.58 264.62 324.09 273.05 320.27 280.15 323.56 293.37 333.58 279 335.18 264.62 333.58"/><rect class="cls-20" x="264.62" y="333.58" width="28.72" height="3.21"/><rect class="cls-20" x="225.04" y="337.67" width="22.17" height="3.64"/><polygon class="cls-19" points="225.67 328.17 241.46 327.37 249.63 302.35 224.07 302.88 225.67 328.17"/><polygon class="cls-19" points="264.62 324.09 280.15 323.56 282.46 301.73 259.39 302.17 264.62 324.09"/><polygon class="cls-20" points="395.51 317.08 399.86 325.6 397.56 332.52 381.49 333.4 381.31 330.48 387.17 327.55 397.02 329.5 395.51 317.08"/><polygon class="cls-21" points="385.49 321.34 386.64 316.28 395.51 317.08 396.93 327.01 397.29 329.5 387.17 327.55 384.78 324 385.49 321.34"/><polygon class="cls-10" points="397.29 329.5 384.78 324 381.31 330.48 397.29 329.5"/><polygon class="cls-19" points="390.72 281.4 395.96 317.79 386.11 318.58 382.02 279.72 390.72 281.4"/><polygon class="cls-21" points="352.03 315.21 358.51 312.82 363.21 316.28 361.97 320.81 356.73 327.9 350.88 326.39 348.93 322.49 352.03 315.21"/><polygon class="cls-10" points="356.73 328.44 348.93 322.49 342.36 329.32 350.08 330.12 356.73 328.44"/><polygon class="cls-20" points="360.73 327.28 355.05 331.72 342.54 332.43 342.36 329.32 352.74 328.7 363.21 316.45 365.43 321.25 364.1 330.92 361.88 331.19 360.73 327.28"/><polygon class="cls-36" points="386.73 246.35 375.55 267.11 367.56 272.17 361.35 266.76 360.11 253.71 386.73 246.35"/><polygon class="cls-18" points="386.73 246.35 367.56 272.17 367.56 297.11 386.11 318.58 397.47 267.2 386.73 246.35"/><polygon class="cls-16" points="360.19 253.8 355.49 288.94 360.99 283.8 367.56 272.17 360.19 253.8"/><polygon class="cls-19" points="367.56 272.17 355.49 288.94 352.03 315.39 386.11 318.58 367.56 272.17"/><polygon class="cls-12" points="220.25 238.36 236.05 249.1 258.94 249.01 220.25 238.36"/><path class="cls-25" d="M260.1,152.73a2.22,2.22,0,1,1-2.22,2.21A2.22,2.22,0,0,1,260.1,152.73Z"/><path class="cls-25" d="M286.54,153.26a2.22,2.22,0,1,1-2.22,2.22A2.21,2.21,0,0,1,286.54,153.26Z"/><path class="cls-25" d="M341,143.32a2,2,0,1,1-2,2A2,2,0,0,1,341,143.32Z"/><path class="cls-25" d="M358.42,145.63a2,2,0,1,1-2,2A2,2,0,0,1,358.42,145.63Z"/><polygon class="cls-24" points="352.48 141.72 350.61 159.74 345.11 159.56 347.59 141.28 352.48 141.72"/><polygon class="cls-25" points="616.56 177.31 613.37 174.02 621.53 175.89 616.56 177.31"/><path class="cls-42" d="M352.83,138.79l-23-3.1-1.25,15.17,17.22,2.93,1.77-12.51,4.89.44-1.34,12.87,20.06,1.33.89-15.17Zm-9.14,11.72-11.54-2.31.57-9.45L345.11,141Zm24.85,1.77-14.11-.88.8-9.32,13.48,1.51Z"/></g></svg>