<svg xmlns="http://www.w3.org/2000/svg" viewBox="0 0 900 350"><defs><style>.cls-1{fill:#73cfe5;}.cls-2{fill:#a3a3a3;}.cls-3{fill:#cececd;}.cls-27,.cls-4{fill:#2b2b2b;}.cls-4{fill-opacity:0.1;}.cls-5{fill:#3aa0ba;}.cls-6{fill:#318fa6;}.cls-7{fill:#5ec0d9;}.cls-8{fill:#ececeb;}.cls-9{fill:#858686;}.cls-10{fill:#8f8f8f;}.cls-11{fill:#474747;}.cls-12{fill:#000001;fill-opacity:0.15;}.cls-13{fill:#fff;}.cls-14{fill:#6f7173;}.cls-15{fill:#27788c;}.cls-16{fill:#369496;}.cls-17{fill:#8ce0dc;}.cls-18{fill:#c2917d;}.cls-19{fill:#50a9aa;}.cls-20{fill:#165e60;}.cls-21{fill:#4f5253;}.cls-22{fill:#1c7678;}.cls-23{fill:#737373;}.cls-24{fill:#c4c4c4;}.cls-25{fill:#dddddc;}.cls-26{fill:#72cbcc;}.cls-28{fill:#f5cab3;}.cls-29{fill:#fde4d5;}.cls-30{fill:#fff0e8;}.cls-31{fill:#c3987b;}.cls-32{fill:#8b6651;}.cls-33{fill:#dfbda5;}.cls-34{fill:#e8cab6;}.cls-35{fill:#9da1a2;}</style></defs><title>sentinels_Executive_ESTJ_workplace_habits</title><g id="Layer_1" data-name="Layer 1"><g id="Layer_1-2" data-name="Layer_1"><polygon class="cls-1" points="348.99 167.79 359.23 168.76 381 162.99 359.23 161.07 344.18 164.91 348.99 167.79"/><polygon class="cls-1" points="267.34 141.54 303.52 156.91 343.86 143.46 301.92 138.66 267.34 141.54"/><polygon class="cls-1" points="113.02 135.77 142.48 137.69 187.62 127.77 146 121.36 108.54 127.77 113.02 135.77"/><polygon class="cls-2" points="433.83 62.12 542.05 58.28 540.13 208.78 532.76 217.11 429.67 214.87 423.91 194.05 425.19 80.38 433.83 62.12"/><polygon class="cls-3" points="531.8 16.33 533.73 248.49 564.46 246.25 841.41 248.49 874.07 248.81 900 0 531.8 16.33"/><path class="cls-4" d="M791.46,194.37l4.16-9.92,33.62,33,12.17,31.06L820,276l17.61,18.89,31.69,8.33,18.25,43.87-24.65,1.6-37.14-44.19-36.82-7-51.55,37.15-50.9,11.85-25-36.51-67.55,9-16.65,7.68-59.55,18.26-90.61-29.46,46.74-12.49,43.87-5.13,22.09,3.53,123.9-31.06,127.75-75.9ZM268.3,350l-90.92-9.29,77.48-27.86,84.84,9.93ZM783.46,126.49l-10.57,58.92,15.37-1.6Z"/><polygon class="cls-5" points="711.42 249.13 714.3 253.94 713.34 264.18 699.25 263.22 711.42 249.13"/><polygon class="cls-6" points="724.87 247.53 711.42 249.13 713.34 264.18 726.79 257.78 724.87 247.53"/><polygon class="cls-5" points="372.68 187.01 386.77 187.33 386.77 178.04 395.09 178.36 399.25 215.19 376.2 213.59 372.68 187.01"/><polygon class="cls-5" points="182.82 208.46 198.83 207.18 199.47 224.47 213.87 223.19 212.59 260.98 185.06 268.35 182.82 208.46"/><polygon class="cls-5" points="135.75 131.29 92.21 125.53 116.54 293 149.52 299.73 154.96 279.23 135.75 131.29"/><polygon class="cls-5" points="284.95 144.42 305.12 147.62 310.25 153.38 317.61 243.69 287.19 232.16 284.95 144.42"/><polygon class="cls-5" points="336.5 163.95 359.23 166.19 363.07 168.12 362.75 227.68 341.3 227.36 336.5 163.95"/><polygon class="cls-7" points="305.12 147.62 343.86 143.46 345.78 244.65 307.37 233.76 305.12 147.62"/><polygon class="cls-7" points="381 162.99 359.23 166.19 359.87 229.28 380.68 216.15 381 162.99"/><polygon class="cls-7" points="135.75 131.29 187.62 127.77 189.22 270.91 137.67 297.48 135.75 131.29"/><polygon class="cls-8" points="326.25 108.88 347.38 101.51 367.88 107.92 396.05 99.91 400.21 110.16 383.88 116.56 356.67 112.72 339.06 111.12 326.25 108.88"/><polygon class="cls-3" points="352.51 117.84 326.25 108.88 353.47 108.56 374.92 113.04 400.21 110.16 395.73 123.92 370.12 116.88 352.51 117.84"/><polygon class="cls-8" points="193.38 101.83 166.17 89.98 139.91 95.43 103.73 81.98 98.29 94.47 119.42 104.71 154.32 103.43 177.06 103.43 193.38 101.83"/><polygon class="cls-3" points="159.45 110.16 193.38 101.83 158.49 98.31 130.95 101.51 98.29 94.47 104.06 112.72 137.03 106.95 159.45 110.16"/><polygon class="cls-2" points="565.74 151.78 587.51 166.51 590.72 158.19 581.43 147.62 565.74 151.78"/><polygon class="cls-2" points="569.9 39.39 553.58 61.8 561.58 64.04 574.07 57.64 573.75 48.03 569.9 39.39"/><polygon class="cls-2" points="765.21 41.95 770.01 49.95 780.26 54.12 788.26 49.31 768.09 33.62 765.21 41.95"/><polygon class="cls-9" points="491.78 300.69 490.82 290.76 503.31 293.32 510.67 295.56 491.78 300.69"/><polygon class="cls-10" points="540.77 291.72 528.6 293 520.28 295.56 539.49 304.85 540.77 291.72"/><polygon class="cls-3" points="490.82 290.76 499.47 290.12 513.55 293.96 510.67 295.56 490.82 290.76"/><polygon class="cls-3" points="516.43 293.64 520.28 295.56 540.77 291.72 532.44 290.12 516.43 293.64"/><polygon class="cls-10" points="509.07 274.75 510.67 295.56 515.15 299.73 520.28 295.56 516.43 272.83 509.07 274.75"/><polygon class="cls-2" points="515.15 272.19 514.84 297.16 520.28 295.56 520.6 274.75 515.15 272.19"/><polygon class="cls-3" points="473.85 302.93 510.67 295.56 514.84 297.16 512.27 300.05 482.82 311.25 473.85 302.93"/><polygon class="cls-3" points="518.36 300.69 514.84 297.16 520.28 295.56 552.29 305.17 548.45 315.74 518.36 300.69"/><polygon class="cls-10" points="515.48 302.29 516.43 300.05 514.84 297.16 482.5 308.05 479.3 315.42 480.9 325.34 489.22 322.78 489.54 313.18 515.48 302.29"/><polygon class="cls-9" points="514.84 297.16 515.48 302.29 537.57 314.77 536.61 323.42 544.93 326.3 548.45 315.74 544.93 310.29 514.84 297.16"/><polygon class="cls-2" points="473.85 302.93 482.5 308.05 480.9 325.34 470.01 322.46 473.85 302.93"/><polygon class="cls-2" points="544.93 326.3 544.93 310.29 552.29 305.17 554.86 322.14 544.93 326.3"/><polygon class="cls-3" points="494.35 168.12 498.19 163.63 504.27 163.95 508.75 168.44 512.27 176.76 511.95 186.69 498.51 180.93 494.02 174.52 494.35 168.12"/><polygon class="cls-11" points="493.7 169.4 500.75 172.28 500.75 181.24 510.99 185.41 511.31 174.84 504.27 170.68 504.27 163.95 498.19 163.63 493.7 169.4"/><polygon class="cls-3" points="0 0 157.84 22.73 157.84 63.73 89.97 57 121.98 286.28 129.99 288.84 399.25 207.82 402.77 87.42 157.84 63.73 157.84 22.73 433.83 62.12 449.52 227.36 115.58 330.15 36.18 240.16 0 0"/><polygon class="cls-6" points="433.19 135.77 411.74 140.9 432.87 146.02 433.19 135.77"/><polygon class="cls-2" points="431.27 179.64 450.8 183.49 456.56 191.49 459.13 213.27 450.48 220.95 439.92 217.11 431.27 179.64"/><polygon class="cls-7" points="461.05 176.76 448.56 191.17 405.66 162.35 411.74 140.9 432.23 142.5 439.27 159.79 458.81 160.11 461.05 176.76"/><polygon class="cls-12" points="820.28 101.51 825.08 109.84 855.18 110.8 869.58 87.74 862.86 53.48 856.78 80.38 841.73 94.47 820.28 101.51"/><polygon class="cls-13" points="574.07 47.39 765.21 41.95 780.26 54.12 776.41 102.79 722.95 126.81 681.32 142.18 669.8 157.87 590.72 158.19 567.34 141.22 562.22 63.4 574.07 47.39"/><polygon class="cls-14" points="570.54 172.28 551.01 194.69 535.01 204.3 531.8 217.43 558.7 212.31 568.62 206.86 570.54 172.28"/><polygon class="cls-2" points="810.99 219.67 812.27 248.81 827.64 251.05 828.92 247.21 828.6 219.99 816.43 217.75 810.99 219.67"/><polygon class="cls-6" points="818.68 238.56 814.19 243.05 818.04 244.65 819 241.77 818.68 238.56"/><polygon class="cls-5" points="823.48 243.05 818.68 238.56 818.04 244.65 820.6 244.65 823.48 243.05"/><polygon class="cls-6" points="819 247.53 823.48 243.05 818.04 244.65 819 247.53"/><path class="cls-15" d="M814.19,243.05s4.81,4.16,4.81,4.48l-.32-3.52Z"/><path class="cls-3" d="M813.23,216.79,811,219.67l14.41,1,2.24-.32.64-2.88S812.91,217.11,813.23,216.79Z"/><polygon class="cls-9" points="827.64 251.05 826.36 220.63 829.24 217.43 831.8 248.49 827.64 251.05"/><polygon class="cls-16" points="803.95 82.94 820.28 101.51 848.45 101.19 861.9 80.38 841.73 94.47 820.28 94.78 803.95 82.94"/><polygon class="cls-1" points="589.76 68.21 623.37 66.29 626.57 105.67 591.68 107.92 589.76 68.21"/><polygon class="cls-17" points="638.74 65.33 673.32 63.4 676.2 103.75 640.98 105.35 638.74 65.33"/><polygon class="cls-17" points="688.37 64.04 723.59 62.12 725.83 101.83 690.61 104.07 688.37 64.04"/><polygon class="cls-18" points="604.16 143.78 609.6 143.14 605.76 132.25 598.4 137.69 604.16 143.78"/><polygon class="cls-19" points="778.34 108.56 787.94 108.88 784.42 120.08 778.01 123.92 778.34 108.56"/><polygon class="cls-17" points="778.01 123.92 781.22 106.31 775.77 106.31 772.89 118.48 773.53 123.61 778.01 123.92"/><polygon class="cls-19" points="733.19 107.59 733.51 98.31 776.41 102.79 774.49 122.64 769.05 127.13 760.4 110.16 733.19 107.59"/><polygon class="cls-17" points="725.83 116.24 725.83 101.83 772.25 107.27 769.05 124.25 763.61 130.65 757.84 114.96 725.83 116.24"/><polygon class="cls-19" points="720.38 126.49 719.42 112.4 766.49 111.76 764.25 181.89 748.88 179.64 736.71 123.61 720.38 126.49"/><polygon class="cls-15" points="593.92 318.94 577.27 326.62 574.07 309.97 575.99 251.69 590.08 254.25 593.92 318.94"/><polygon class="cls-6" points="772.25 211.02 769.69 262.9 789.86 263.86 792.74 244.33 789.86 203.66 772.25 211.02"/><polygon class="cls-3" points="483.78 221.59 478.02 222.23 471.29 226.72 478.34 250.73 485.38 254.9 490.5 258.1 493.7 252.97 483.78 221.59"/><polygon class="cls-2" points="491.78 219.03 479.94 224.47 487.3 246.57 494.98 250.73 504.59 249.13 491.78 219.03"/><polygon class="cls-14" points="489.54 274.43 530.2 275.07 537.57 265.78 529.88 258.1 485.7 258.1 489.54 274.43"/><polygon class="cls-14" points="564.46 258.74 545.25 272.51 540.45 267.38 544.93 258.1 550.05 249.77 562.22 246.25 566.06 254.9 564.46 258.74"/><polygon class="cls-9" points="485.38 254.9 499.15 244.65 562.22 246.25 544.93 258.1 535.97 260.34 486.34 260.02 485.38 254.9"/><polygon class="cls-20" points="511.63 258.1 553.25 246.25 563.5 231.84 536.93 240.49 511.63 258.1"/><polygon class="cls-14" points="484.74 223.19 463.61 228.64 455.6 222.87 454 218.07 448.56 191.17 475.45 203.98 484.74 223.19"/><polygon class="cls-15" points="795.62 184.45 776.41 191.17 680.04 247.53 681.96 334.63 686.45 346.48 704.38 334.31 699.25 263.22 787.94 209.1 789.86 263.86 802.35 256.18 795.62 184.45"/><polygon class="cls-21" points="514.84 232.48 531.8 217.43 566.7 195.97 569.9 211.67 574.39 231.84 562.22 246.57 511.63 258.1 514.84 232.48"/><polygon class="cls-11" points="621.45 199.82 613.13 194.05 566.7 195.97 570.23 221.91 577.59 225.44 615.37 207.82 621.45 199.82"/><polygon class="cls-16" points="564.78 234.72 556.46 222.55 563.5 215.51 574.07 217.11 577.59 225.44 564.78 234.72"/><polygon class="cls-20" points="562.22 246.57 552.29 239.84 552.29 226.4 566.7 230.56 562.22 246.57"/><polygon class="cls-22" points="556.46 222.55 552.29 226.4 563.5 231.84 571.18 230.24 556.46 222.55"/><polygon class="cls-7" points="563.5 231.84 574.07 236.32 676.52 249.77 685.81 248.49 795.62 184.45 685.49 175.8 563.5 231.84"/><polygon class="cls-22" points="634.58 168.12 629.14 168.12 626.57 178.36 627.21 204.62 629.77 207.82 635.54 207.82 634.58 168.12"/><path class="cls-4" d="M631.38,234.08,655.07,229l17,1.28,15.37-7.05,32.65,5.13,75.56-43.87-17.93-1.28L730,185.73,724.55,187,664,221l-22.74,1.6-9.92,11.53Zm-16-26.26h14.41l3.2,5.77-12.81,2.88-42.58,9Z"/><polygon class="cls-10" points="622.73 211.02 620.17 216.47 641.3 222.55 661.79 225.12 661.79 219.67 660.19 212.95 641.62 211.02 622.73 211.02"/><polygon class="cls-23" points="716.22 202.38 705.34 207.82 695.73 209.1 661.47 225.12 658.59 214.23 663.71 209.74 707.58 191.17 716.54 195.01 716.22 202.38"/><polygon class="cls-2" points="670.76 190.21 622.73 211.02 658.59 214.23 682.92 204.62 676.84 203.98 670.76 190.21"/><path class="cls-14" d="M634.58,208.14l5.44,1,5.44-2.56-5.76-.64-5.12,2.24Zm13.77-2.88,5.76-2.56-5.76-.32-5.45,2.24,5.45.64Zm8.64-3.52,14.09-6.41v-2.56l-19.85,8.33,5.76.64Zm14.41-.32v1.92l-3.2-.32,3.2-1.6ZM666,204l-5.77,2.88,4.48.32,6.41-2.56L666,204Zm-8.65,4.16-5.44,2.57,4.48.63,5.76-2.56-4.8-.64Zm-14.73,1.28,5.45-2.56,6.4,1L649,210.38l-6.41-1Zm8.65-3.84L657,203l6.08.64-5.76,2.88-6.08-1Zm8.32-3.52,5.77-2.56,5.76.64-5.76,2.56-5.77-.64Zm8.65-3.84,2.88-1.28v1.6Z"/><polygon class="cls-10" points="693.49 215.83 695.73 209.1 708.22 209.1 719.42 210.71 720.38 215.51 718.14 219.67 693.49 215.83"/><polygon class="cls-9" points="748.88 202.38 718.14 219.67 718.46 211.99 728.71 205.26 745.04 198.54 748.88 202.38"/><polygon class="cls-2" points="723.27 196.29 745.04 198.54 718.46 211.99 695.73 209.1 709.18 203.02 723.27 196.29"/><polygon class="cls-10" points="713.66 205.26 721.02 205.9 722.31 199.18 717.5 189.57 713.98 196.29 713.66 205.26"/><polygon class="cls-9" points="729.03 201.74 721.02 205.9 718.78 187.97 726.47 186.69 729.03 201.74"/><polygon class="cls-15" points="769.05 124.25 764.57 136.09 765.21 179.32 768.09 187.97 777.69 183.16 784.42 120.08 769.05 124.25"/><path class="cls-6" d="M730,185.73l38.1,2.24,1-63.72-20.81,9.6L747,147h-.64l-1,3.84,1,.32-3.84,24ZM748.56,147l13.13-.64v-4.8l-10.89-.32-2.24,3.52Zm13.13,4.48c-3.21,0-9-.32-12.49-.32l.32,5.13,11.85,1ZM747.6,171l14.09,1v5.76l-11.85-1Zm-.32-9.93,14.09,1v6.09l-11.85-1Z"/><polygon class="cls-24" points="681.32 142.18 679.72 173.24 682.92 204.62 752.4 177.08 750.16 123.28 709.5 131.29 681.32 142.18"/><polygon class="cls-6" points="689.97 145.7 694.13 139.62 696.37 140.58 697.01 149.86 695.41 151.46 689.97 145.7"/><polygon class="cls-5" points="697.01 149.86 693.17 145.38 697.01 139.62 702.13 143.78 697.01 149.86"/><polygon class="cls-10" points="669.16 140.58 671.4 203.34 682.92 204.62 683.24 142.18 669.16 140.58"/><polygon class="cls-25" points="750.16 123.28 683.24 142.18 669.16 140.58 737.03 122 750.16 123.28"/><polygon class="cls-26" points="815.48 40.99 803.31 54.44 803.95 82.94 820.92 97.99 847.17 97.99 861.9 80.38 862.86 53.48 844.61 39.39 815.48 40.99"/><polygon class="cls-8" points="813.55 61.16 822.52 49.95 842.37 50.27 853.89 59.88 853.57 77.17 842.05 88.06 826.04 89.02 815.15 78.45 813.55 61.16"/><polygon class="cls-16" points="813.55 61.16 822.84 51.56 841.73 51.88 853.89 59.88 853.89 57.32 843.01 48.99 822.52 48.67 813.23 57.64 813.55 61.16"/><polygon class="cls-16" points="817.08 67.57 821.56 67.57 821.56 69.81 817.08 70.13 817.08 67.57"/><polygon class="cls-16" points="833.4 85.5 833.4 80.06 835.33 80.06 835.64 85.5 833.4 85.5"/><polygon class="cls-16" points="851.65 67.57 847.17 67.57 847.17 69.81 851.65 70.13 851.65 67.57"/><polygon class="cls-16" points="833.4 53.8 833.4 57.64 835.33 57.64 835.64 53.8 833.4 53.8"/><polygon class="cls-26" points="827.64 78.45 825.4 76.53 831.16 67.89 834.04 68.21 834.68 71.73 827.64 78.45"/><polygon class="cls-26" points="822.52 56.36 831.16 67.89 833.73 66.61 834.68 63.73 823.8 55.08 822.52 56.36"/><polygon class="cls-16" points="831.16 67.89 834.68 63.73 838.85 67.25 834.68 71.73 831.16 67.89"/><polygon class="cls-2" points="81 46.11 104.06 237.6 102.14 244.97 109.5 299.09 112.38 304.85 404.7 219.67 406.94 81.98 157.84 54.44 157.84 72.37 395.73 90.94 394.77 210.71 129.67 283.71 124.87 279.87 102.78 72.69 105.02 68.21 157.84 72.37 157.84 54.44 81 46.11"/><polygon class="cls-10" points="124.87 279.87 393.49 208.78 394.13 92.86 102.78 72.69 102.14 65 399.57 89.34 397.01 211.99 125.51 287.24 124.87 279.87"/><polygon class="cls-11" points="540.13 201.42 551.01 194.69 549.09 206.54 511.63 258.1 516.43 231.2 540.13 201.42"/><polygon class="cls-6" points="458.81 160.11 448.56 191.17 511.63 258.1 531.8 217.43 519 193.73 510.35 184.45 487.3 177.72 481.22 158.19 458.81 160.11"/><polygon class="cls-6" points="517.72 159.79 514.52 151.46 556.78 140.26 562.54 149.22 561.58 163.95 534.68 179.96 527.64 174.84 517.72 159.79"/><polygon class="cls-15" points="514.52 151.46 551.01 194.69 531.8 217.43 510.35 184.45 514.52 166.19 506.83 152.1 514.52 151.46"/><polygon class="cls-27" points="517.4 195.34 515.8 200.78 521.88 202.38 523.16 196.29 517.4 195.34"/><polygon class="cls-27" points="524.76 206.54 523.16 211.99 529.24 213.59 530.52 207.82 524.76 206.54"/><polygon class="cls-7" points="475.45 163.31 479.62 181.24 510.35 184.45 494.02 174.52 487.3 167.16 475.45 163.31"/><polygon class="cls-5" points="506.83 152.1 505.55 160.43 508.75 168.44 510.35 184.45 517.72 165.23 506.83 152.1"/><polygon class="cls-8" points="473.85 162.35 498.19 163.63 494.02 174.52 473.85 162.35"/><polygon class="cls-8" points="506.83 152.1 501.39 154.67 498.19 163.63 508.75 168.44 506.83 152.1"/><polygon class="cls-28" points="478.98 101.51 479.3 133.85 486.02 162.99 498.19 163.63 506.83 152.1 509.07 136.09 497.23 110.8 490.18 93.82 478.98 101.51"/><polygon class="cls-29" points="424.87 106.63 448.24 102.15 478.98 101.51 486.02 162.99 436.71 164.59 424.87 106.63"/><polygon class="cls-28" points="442.16 114.96 429.67 118.16 446.64 135.45 446.64 119.12 442.16 114.96"/><polygon class="cls-28" points="453.36 118.16 459.44 136.09 472.57 114.64 457.2 113.04 453.36 118.16"/><polygon class="cls-11" points="521.24 80.06 510.67 125.85 498.83 122.64 491.78 124.56 488.9 100.23 508.43 82.94 521.24 80.06"/><polygon class="cls-18" points="509.07 136.09 498.19 128.41 504.91 124.25 510.67 125.85 509.07 136.09"/><polygon class="cls-29" points="498.19 128.41 497.23 110.8 510.35 108.88 510.67 125.85 498.19 128.41"/><polygon class="cls-18" points="507.15 113.36 502.35 114.32 502.99 121.36 507.15 113.36"/><polygon class="cls-21" points="521.24 80.06 477.06 60.52 476.41 81.34 488.9 100.23 521.24 80.06"/><polygon class="cls-14" points="434.15 70.13 477.06 60.52 488.9 100.23 446.96 92.54 434.15 70.13"/><polygon class="cls-11" points="424.87 106.63 406.62 94.78 427.43 90.94 455.28 95.11 488.9 100.23 424.87 106.63"/><polygon class="cls-21" points="488.9 100.23 434.15 70.13 406.62 94.78 488.9 100.23"/><polygon class="cls-11" points="429.67 118.16 441.84 112.4 447.28 116.88 429.67 118.16"/><polygon class="cls-11" points="451.12 116.88 452.4 111.44 472.57 114.64 451.12 116.88"/><polygon class="cls-30" points="447.6 138.66 441.84 112.4 452.4 111.44 459.44 136.41 455.28 138.34 447.6 138.66"/><polygon class="cls-18" points="456.56 140.26 447.6 138.66 459.44 136.09 456.56 140.26"/><polygon class="cls-18" points="453.36 146.02 454 152.75 472.57 149.86 467.77 143.14 453.36 146.02"/><polygon class="cls-13" points="455.6 147.62 455.6 150.82 469.05 148.26 466.49 145.38 455.6 147.62"/><polygon class="cls-5" points="556.78 140.26 561.58 163.95 581.75 151.78 584.63 140.26 580.79 133.85 556.78 140.26"/><polygon class="cls-1" points="580.79 133.85 581.75 151.78 589.76 146.98 592.32 139.62 588.15 131.61 580.79 133.85"/><polygon class="cls-29" points="616.33 124.89 588.15 131.61 593.28 137.05 600 138.01 617.29 129.37 616.33 124.89"/><polygon class="cls-28" points="607.04 149.54 589.76 146.98 588.15 131.61 609.6 143.14 607.04 149.54"/><polygon class="cls-9" points="601.28 230.24 608 222.23 618.57 221.27 629.46 223.51 631.38 234.08 601.28 230.24"/><polygon class="cls-10" points="638.1 230.24 631.38 234.08 627.53 225.12 620.49 223.83 622.73 221.27 626.89 220.63 635.54 220.95 638.1 230.24"/><polygon class="cls-2" points="643.54 227.03 638.1 230.24 633.94 222.23 626.89 220.63 629.46 219.03 633.62 218.39 640.02 219.67 643.54 227.03"/><polygon class="cls-3" points="620.17 216.47 608 222.23 620.49 223.83 633.62 218.39 620.17 216.47"/><polygon class="cls-26" points="757.84 206.54 766.49 266.42 776.09 268.35 785.7 272.19 811.31 263.22 812.27 255.53 815.15 249.45 819.64 244.33 818.04 243.05 812.27 247.85 811.31 255.53 808.75 260.66 785.7 268.35 777.05 267.38 769.69 262.9 760.09 203.66 756.88 204.94 757.84 206.54"/><polygon class="cls-15" points="202.99 339.75 203.31 333.67 219.64 331.43 234.69 333.03 234.69 339.43 202.99 339.75"/><polygon class="cls-15" points="281.11 330.79 280.79 325.66 287.19 324.06 312.17 323.42 319.53 325.34 319.53 330.15 281.11 330.79"/><polygon class="cls-6" points="319.53 325.34 300 310.93 290.39 305.49 280.15 312.21 280.79 325.66 319.53 325.34"/><polygon class="cls-6" points="234.69 333.03 230.52 316.7 222.84 312.21 211.31 318.3 203.31 333.67 234.69 333.03"/><polygon class="cls-21" points="295.84 234.72 298.08 274.43 282.71 283.71 266.06 279.23 254.54 257.46 272.14 234.72 295.84 234.72"/><polygon class="cls-11" points="295.84 234.72 253.25 227.36 209.71 245.93 224.44 257.46 254.54 257.46 295.84 234.72"/><polygon class="cls-21" points="210.67 284.36 209.71 245.93 254.54 257.46 244.61 282.43 227.64 288.52 210.67 284.36"/><polygon class="cls-31" points="235.97 141.54 233.08 135.77 210.67 87.1 226.36 43.55 230.2 57.96 238.85 124.25 243.65 138.98 244.93 147.3 235.97 141.54"/><polygon class="cls-32" points="259.98 142.82 263.82 136.09 274.39 122 272.14 120.4 238.53 121.36 236.29 122.97 244.93 147.3 259.98 142.82"/><polygon class="cls-21" points="292.64 88.38 305.12 43.55 301.92 42.91 292.64 45.47 291.36 48.35 292.64 88.38"/><polygon class="cls-33" points="292.64 45.47 294.56 121.68 236.29 122.64 226.04 43.55 292.64 45.47"/><polygon class="cls-32" points="219.32 105.99 214.84 96.39 227.32 95.11 219.32 105.99"/><polygon class="cls-11" points="265.1 62.12 305.12 43.55 283.35 18.57 280.15 17.93 264.46 57.96 239.81 21.14 235.97 19.85 214.19 37.79 215.47 39.39 231.48 47.71 233.41 47.07 265.1 62.12"/><polygon class="cls-14" points="260.94 0 235.97 19.85 265.1 62.12 283.35 18.57 260.94 0"/><path class="cls-11" d="M199.79,67.57l14.4-29.78L217.4,42s7.36,30.74,7.68,31.06c0,.32-.32,3.84-.32,3.84l-9.92,19.54Z"/><polygon class="cls-21" points="224.76 76.85 233.41 47.07 214.19 37.79 224.76 76.85"/><polygon class="cls-33" points="227.32 95.11 214.84 96.39 209.71 77.49 224.76 76.85 227.32 95.11"/><polygon class="cls-32" points="222.84 89.34 221.56 80.06 213.87 80.69 222.84 89.34"/><polygon class="cls-31" points="273.11 91.26 286.87 65.97 279.51 67.25 271.19 72.37 266.38 75.25 262.54 72.69 252.94 65.97 243.33 67.25 262.86 91.9 273.11 91.26"/><polygon class="cls-32" points="268.3 96.07 273.11 91.26 268.3 89.02 262.86 91.9 268.3 96.07"/><polygon class="cls-34" points="271.19 72.37 273.11 91.26 262.86 91.9 262.54 72.69 271.19 72.37"/><polygon class="cls-11" points="271.19 72.37 280.47 61.48 286.87 65.97 271.19 72.37"/><polygon class="cls-11" points="262.54 72.69 249.09 60.84 243.33 67.25 262.54 72.69"/><polygon class="cls-32" points="274.39 101.51 262.54 101.19 253.9 113.36 276.31 112.72 274.39 101.51"/><polygon class="cls-13" points="272.47 104.07 264.14 104.07 258.38 111.12 273.75 110.8 272.47 104.07"/><polygon class="cls-16" points="284.95 144.42 267.34 141.54 262.54 159.79 248.45 180.93 249.41 229.28 254.86 240.16 295.84 234.72 284.95 144.42"/><polygon class="cls-26" points="228.92 142.18 206.19 149.22 209.71 245.93 254.86 240.16 251.01 200.14 250.37 181.24 249.09 175.48 231.16 157.55 230.52 146.02 228.92 142.18"/><polygon class="cls-26" points="254.54 148.58 267.34 141.54 270.86 156.91 250.37 181.24 254.54 148.58"/><polygon class="cls-16" points="242.69 150.82 228.92 142.18 226.36 159.47 250.37 181.24 242.69 150.82"/><polygon class="cls-8" points="249.09 141.54 252.94 150.5 258.38 154.03 267.34 141.54 263.82 136.09 249.09 141.54"/><polygon class="cls-8" points="228.92 142.18 233.08 135.77 249.09 141.54 245.25 150.82 238.21 154.03 228.92 142.18"/><polygon class="cls-3" points="255.18 165.23 258.38 154.03 249.09 141.54 238.21 154.03 243.33 165.23 255.18 165.23"/><polygon class="cls-11" points="251.97 157.23 255.5 149.86 249.09 141.54 241.41 150.5 246.21 157.87 249.73 159.79 251.97 157.23"/><polygon class="cls-21" points="250.37 181.24 255.18 165.23 251.97 157.23 246.21 157.87 243.33 165.23 250.37 181.24"/><polygon class="cls-20" points="254.54 195.97 250.37 192.13 246.21 196.94 251.01 200.14 254.54 195.97"/><polygon class="cls-20" points="258.38 220.31 252.62 215.19 247.49 221.59 253.58 226.07 258.38 220.31"/><polygon class="cls-8" points="271.82 202.38 260.3 193.09 255.82 191.81 256.78 201.1 262.86 205.9 271.82 202.38"/><polygon class="cls-19" points="250.37 181.24 282.71 182.21 293.92 196.61 293.28 211.99 254.54 194.37 247.49 187.65 250.37 181.24"/><polygon class="cls-19" points="231.16 219.99 262.86 205.9 258.7 196.29 245.57 189.25 229.56 188.29 215.16 195.97 231.16 219.99"/><polygon class="cls-16" points="206.19 149.22 229.56 188.29 231.16 219.99 197.87 195.34 206.19 149.22"/><polygon class="cls-26" points="284.95 144.42 279.51 182.21 293.28 211.99 302.24 187.97 284.95 144.42"/><polygon class="cls-11" points="298.08 274.43 266.06 279.23 280.15 312.21 300 310.93 298.08 274.43"/><polygon class="cls-11" points="211.31 318.3 230.52 316.7 244.61 282.43 210.67 284.36 211.31 318.3"/><path class="cls-27" d="M252.3,78.13a3.53,3.53,0,1,1-3.53,3.53A3.53,3.53,0,0,1,252.3,78.13Z"/><path class="cls-27" d="M281.11,78.13a3.53,3.53,0,1,1-3.52,3.53A3.52,3.52,0,0,1,281.11,78.13Z"/><polygon class="cls-6" points="577.27 326.62 554.86 322.46 563.5 231.84 685.81 248.49 686.45 346.48 659.55 341.36 663.71 270.27 579.19 256.5 577.27 326.62"/><path class="cls-27" d="M437,119.76a3.21,3.21,0,1,1-3.2,3.2A3.2,3.2,0,0,1,437,119.76Z"/><path class="cls-27" d="M463.93,117.2a3.2,3.2,0,1,1-3.2,3.2A3.2,3.2,0,0,1,463.93,117.2Z"/><polygon class="cls-16" points="613.13 194.05 615.37 207.82 629.77 207.82 629.14 168.12 613.13 194.05"/><polygon class="cls-9" points="570.54 172.28 563.5 215.51 577.59 225.44 598.4 194.69 570.54 172.28"/><polygon class="cls-10" points="439.92 217.11 454 218.07 463.61 228.64 449.52 227.36 439.92 217.11"/><polygon class="cls-10" points="489.54 274.43 490.18 260.02 485.38 254.9 484.1 268.66 489.54 274.43"/><polygon class="cls-10" points="530.2 275.07 528.28 260.34 544.93 258.1 545.25 272.51 530.2 275.07"/><polygon class="cls-10" points="605.12 69.81 604.8 67.25 601.92 68.85 601.28 71.09 603.84 71.41 605.76 72.05 605.12 69.81"/><polygon class="cls-2" points="602.24 65 598.72 67.57 601.28 71.09 604.8 67.25 602.24 65"/><polygon class="cls-10" points="656.99 66.93 656.67 64.36 653.79 65.97 653.15 68.21 655.71 68.53 657.95 68.85 656.99 66.93"/><polygon class="cls-2" points="654.11 62.12 650.59 64.69 653.15 68.21 656.67 64.36 654.11 62.12"/><polygon class="cls-10" points="707.26 65.65 706.94 63.08 704.05 64.69 703.41 66.93 705.98 67.25 707.9 67.89 707.26 65.65"/><polygon class="cls-2" points="704.38 60.84 700.85 63.4 703.41 66.93 706.94 63.08 704.38 60.84"/><polygon class="cls-5" points="595.52 80.06 595.52 83.26 599.36 83.58 599.36 79.73 595.52 80.06"/><polygon class="cls-5" points="603.2 80.06 603.52 82.94 619.85 81.98 619.53 77.81 603.2 80.06"/><polygon class="cls-5" points="595.84 88.06 595.84 91.26 599.68 91.58 599.68 87.74 595.84 88.06"/><polygon class="cls-5" points="603.52 88.06 603.84 90.94 620.17 89.98 619.85 85.82 603.52 88.06"/><polygon class="cls-5" points="596.8 96.07 596.8 99.27 600.64 99.59 600.64 95.75 596.8 96.07"/><polygon class="cls-5" points="604.48 96.07 604.8 98.95 621.13 97.99 620.81 93.82 604.48 96.07"/><polygon class="cls-19" points="645.14 78.13 645.14 81.34 648.99 81.66 648.99 77.81 645.14 78.13"/><polygon class="cls-19" points="652.83 78.13 653.15 81.02 669.48 80.06 669.16 75.89 652.83 78.13"/><polygon class="cls-19" points="645.78 85.82 645.78 89.02 649.63 89.34 649.63 85.5 645.78 85.82"/><polygon class="cls-19" points="653.47 85.82 653.79 88.7 670.12 87.74 669.8 83.58 653.47 85.82"/><polygon class="cls-19" points="645.78 93.82 645.78 97.35 649.63 97.67 649.63 93.5 645.78 93.82"/><polygon class="cls-19" points="653.47 93.82 653.79 97.03 670.44 96.07 670.12 91.58 653.47 93.82"/><polygon class="cls-19" points="694.77 76.53 694.77 79.73 698.61 80.06 698.61 76.21 694.77 76.53"/><polygon class="cls-19" points="702.77 76.53 703.1 79.41 719.42 78.45 719.1 74.29 702.77 76.53"/><polygon class="cls-19" points="695.09 84.54 695.09 87.74 698.93 88.06 698.93 84.22 695.09 84.54"/><polygon class="cls-19" points="702.77 84.54 703.1 87.42 719.42 86.46 719.1 81.98 702.77 84.54"/><polygon class="cls-8" points="360.51 28.18 423.27 40.35 494.02 40.35 491.14 35.87 454.64 24.66 372.04 24.34 360.51 28.18"/><polygon class="cls-3" points="352.51 16.33 360.51 28.18 454.64 29.14 457.85 23.7 454.64 16.33 352.51 16.33"/><polygon class="cls-2" points="494.02 40.35 454.64 29.14 454.64 16.33 500.75 33.62 494.02 40.35"/><polygon class="cls-13" points="403.74 31.06 452.08 31.7 466.49 35.23 429.67 36.83 403.74 31.06"/><polygon class="cls-3" points="403.74 31.06 429.99 35.87 466.49 35.23 474.17 37.47 426.47 37.79 393.17 31.06 403.74 31.06"/><polygon class="cls-5" points="695.73 135.77 690.61 132.25 691.57 129.69 698.93 132.25 698.29 135.45 695.73 135.77"/><polygon class="cls-7" points="696.37 140.58 696.05 138.66 695.73 135.77 698.93 132.25 702.13 143.78 696.37 140.58"/><polygon class="cls-5" points="684.52 121.36 679.72 124.56 683.56 130.65 690.61 132.25 690.29 124.56 684.52 121.36"/><polygon class="cls-1" points="683.56 117.84 679.72 124.56 690.29 124.56 689.65 115.92 683.56 117.84"/><polygon class="cls-7" points="690.61 132.25 687.09 124.56 689.65 115.92 696.37 119.44 696.37 128.41 690.61 132.25"/><polygon class="cls-5" points="694.45 124.25 696.37 119.44 698.93 123.61 696.37 128.41 694.45 124.25"/><polygon class="cls-17" points="742.8 205.9 743.12 202.38 760.09 203.66 757.84 206.54 742.8 205.9"/><polygon class="cls-17" points="766.49 266.42 769.69 262.9 785.7 268.35 785.7 272.19 766.49 266.42"/><polygon class="cls-17" points="808.75 260.66 811.31 263.22 815.15 249.45 812.27 247.85 808.75 260.66"/><path class="cls-5" d="M148.24,236l9.6-1.6-.64,10.89-8.32,1.28Zm.32-20.49,9.28-1.92-.64,11.2-8,1.28Zm0-20.18,9.28-1.6-.64,10.89-8,1.6Zm.32-20.49,9.29-1.28-.65,11.21-8.32.64Zm0-20.17,9.29-1.29-.65,11.21-9,.64Zm19.53,78.13,8.65-1.92-.33,10.57-8,1.28Zm0-20.49,9-1.93L176.73,221l-8,1.28Zm0-19.86,9-1.6-.65,10.57-7.68,1Zm0-20.17,9-1.28-.65,10.56-7.36,1Zm0-20.18,9-1-.65,10.57-7.36,1Z"/><path class="cls-5" d="M365.32,195.65l10.88-1.92v3.53l-10.88,1.92Zm10.88-8-10.88,1.92v-3.84l10.88-1.92ZM365.32,175.8l10.88-1.92v3.84l-10.88,1.92Z"/><polygon class="cls-5" points="36.18 240.16 32.02 343.92 83.89 350 88.37 341.03 77.48 240.16 36.18 240.16"/><polygon class="cls-7" points="104.06 237.6 82.61 238.24 70.76 244.33 83.89 350 116.86 340.71 104.06 237.6"/><polygon class="cls-1" points="68.84 234.08 104.06 237.6 70.76 244.33 36.18 240.16 68.84 234.08"/><polygon class="cls-5" points="98.61 265.46 97.33 247.85 92.53 248.81 83.89 266.1 84.21 269.3 98.61 265.46"/><polygon class="cls-14" points="818.68 224.15 815.48 227.03 817.08 229.92 820.6 231.52 823.48 228.64 818.68 224.15"/><polygon class="cls-9" points="815.48 227.03 820.6 231.52 818.68 233.44 814.19 228.32 815.48 227.03"/><polygon class="cls-6" points="83.89 266.1 93.49 262.9 92.53 248.81 81 251.05 83.89 266.1"/><polygon class="cls-19" points="819.96 276.03 795.62 276.99 788.9 297.48 798.83 305.81 829.56 282.75 819.96 276.03"/><polygon class="cls-16" points="829.56 282.75 805.23 284.03 798.83 305.81 810.67 316.38 825.4 314.14 834.04 307.09 837.57 294.92 829.56 282.75"/><polygon class="cls-26" points="817.72 298.13 820.92 305.17 828.92 312.86 834.04 307.09 826.04 298.13 817.72 298.13"/><polygon class="cls-17" points="817.72 298.13 827.64 307.41 828.92 312.86 825.4 314.14 816.43 305.17 817.72 298.13"/><polygon class="cls-19" points="854.86 306.13 827.64 307.41 820.28 330.15 831.16 339.43 865.42 313.81 854.86 306.13"/><polygon class="cls-16" points="865.42 313.81 838.21 315.1 831.16 339.43 843.01 350 862.86 348.72 874.71 327.9 865.42 313.81"/><polygon class="cls-17" points="847.81 334.63 850.69 326.3 860.62 327.58 857.42 336.87 847.81 334.63"/><polygon class="cls-10" points="707.9 163.31 707.58 194.69 713.98 196.29 717.5 182.84 715.9 163.95 707.9 163.31"/><polygon class="cls-25" points="731.59 154.67 707.9 163.31 713.98 165.87 731.59 162.03 734.47 158.51 731.59 154.67"/><polygon class="cls-35" points="737.03 186.37 713.98 196.29 713.98 165.87 734.47 158.51 737.03 186.37"/><polygon class="cls-31" points="230.2 188.29 242.69 180.93 246.53 187.65 246.53 192.45 230.2 188.29"/><polygon class="cls-8" points="258.7 196.29 250.37 181.24 242.69 180.93 246.53 192.45 258.7 196.29"/><path class="cls-5" d="M316.65,205.26l6.4-1.28v7.69l-5.76,1Zm-.32-14.41,6.72-1-.32,7.69-5.76,1Zm0-14.41,6.4-1-.32,8-5.76.32ZM316,162l6.4-.64-.32,7.69-6.08.64Zm14.73,41,6.08-1.28v7.36l-5.76,1Zm-.32-14.09,6.4-1-.32,7.36-5.44.64Zm-.32-14.09,6.4-1-.32,7.36-5.44.65Zm-.32-14.41,6.4-.64-.32,7.37-5.12.63Z"/></g></g></svg>