<svg id="Layer_1" data-name="Layer 1" xmlns="http://www.w3.org/2000/svg" viewBox="0 0 900 350"><defs><style>.cls-1{fill:#c4c4c4;}.cls-2{fill:#dddddc;}.cls-3{fill:#318fa6;}.cls-4{fill:#27788c;}.cls-5{fill:#ececeb;}.cls-6{fill:#8ce0dc;}.cls-7{fill:#cececd;}.cls-30,.cls-8{fill:#4f5253;}.cls-9{fill:#a3a3a3;}.cls-10{fill:#737373;}.cls-11{fill:#c3987b;}.cls-12{fill:#474747;}.cls-13{fill:#6f7173;}.cls-14{fill:#8b6651;}.cls-15{fill:#dfbda5;}.cls-16{fill:#e8cab6;}.cls-17,.cls-29{fill:#2b2b2b;}.cls-17,.cls-32{fill-opacity:0.1;}.cls-18{fill:#72cbcc;}.cls-19{fill:#50a9aa;}.cls-20{fill:#369496;}.cls-21{fill:#165e60;}.cls-22{fill:#8f8f8f;}.cls-23{fill:#858686;}.cls-24{fill:#fff;}.cls-25{fill:#9da1a2;}.cls-26{fill:#3aa0ba;}.cls-27{fill:#5ec0d9;}.cls-28{fill:#73cfe5;}.cls-30{fill-opacity:0.2;}.cls-31{fill:#000001;fill-opacity:0.15;}.cls-32{fill:#000002;}.cls-33{fill:#1c7678;}</style></defs><title>sentinels_Executive_ESTJ_conclusion</title><g id="Layer_1-2" data-name="Layer_1"><polygon class="cls-1" points="629.77 332.02 640.38 349.93 305.69 349.93 458.54 229.52 499.86 243.67 629.77 332.02"/><polygon class="cls-2" points="640.38 349.93 458.54 229.52 900 296.95 640.38 349.93"/><polygon class="cls-2" points="458.54 229.52 0 275.45 192.89 322.45 458.54 229.52"/><polygon class="cls-3" points="671.66 294.22 689.1 281.83 689.03 269.32 681.81 263.62 678.21 263.06 673.1 273.35 671.66 294.22"/><polygon class="cls-4" points="673.49 262.35 666.74 293.06 671.66 294.22 678.21 263.06 673.49 262.35"/><path class="cls-5" d="M458.54,229.52l-28.2,79.36L305.9,350l-113-27.55-47.83-86.78L52.64,212.85,0,107,66.68,20.18,231.32,0l69,52.91L420.09.05,568.5,18.42l53,79.25-36,65-10,16.88L548.85,191.4ZM685.05,80.81l8.14,1.65,1.5-5.69-5.82-3.15Zm-21.62-2.45,12.07,1.51,1.58-8.49-8.88-3.93Zm-36-9.5,8.37,19.88,15.81-4.83-.49-17.68ZM313.65,78.8l-8.19,52,29.53-2Z"/><polygon class="cls-6" points="13.27 106.24 35.91 114.82 44.81 171.15 55.7 193.53 89.5 195.31 122.19 145.52 101.71 77.23 123.55 53.47 132.2 24.32 72.81 30.56 40.25 73.51 40.04 84.84 24.44 92.05 13.27 106.24"/><polygon class="cls-5" points="32.83 69.95 51.21 78.78 65.15 76.1 85.11 83.03 58.4 85.34 41.48 83.45 25.55 83.8 32.83 69.95"/><polygon class="cls-5" points="32.83 69.95 40.25 73.51 31.58 83.66 25.55 83.8 32.83 69.95"/><polygon class="cls-2" points="32.69 82.36 41.25 80.67 60.46 82.41 85.11 83.03 55.84 88.19 44.76 87.73 24.44 92.05 32.69 82.36"/><polygon class="cls-2" points="13.27 106.24 43.58 106.52 44.81 171.15 55.7 193.53 49.71 136.25 56.83 128.97 84.2 127.74 80.78 192.63 89.04 192.4 82.93 150.95 93.43 144.04 108.3 143.41 133.1 192.03 126.24 202.71 59.9 202.17 13.27 106.24"/><polygon class="cls-1" points="55.7 193.53 121.22 189.9 130.58 195.93 126.75 197.5 59.9 202.17 55.7 193.53"/><path class="cls-1" d="M23,126.31l-4.46-9.16c.23.23,5.82,0,5.82,0l.19,9.18Zm8.14,7.16.32,7.95h4.95l.21-7.95Zm-.33-16.34.37,8.76h5.41l.26-8.76Z"/><path class="cls-1" d="M63.9,137l.42,6.42h3.79L68,137A31.16,31.16,0,0,1,63.9,137Zm2.66,33.54.3,4.69h2.78l-.09-4.69A21.31,21.31,0,0,1,66.56,170.53Zm6.27,0L73,175h2.78l.14-4.48Zm0-11,.23,5h3.1l.16-5Zm-7,0,.35,5.27h3.1l-.1-5.27A23.41,23.41,0,0,1,65.73,159.5Zm-.83-11,.39,5.85h3.45l-.12-5.85A27.17,27.17,0,0,1,64.9,148.47Zm7.86,0L73,154h3.45l.16-5.57ZM72.53,137l.25,6.14H76.6l.16-6.14Z"/><path class="cls-1" d="M101,152.4l.41,6.43h3.82l-.14-6.43A29.38,29.38,0,0,1,101,152.4Zm1,11.49.37,5.83h3.47l-.12-5.83A28.86,28.86,0,0,1,102.05,163.89Z"/><polygon class="cls-7" points="725.05 193.25 746.62 173.46 738.02 156.45 720.77 163.57 725.05 193.25"/><polygon class="cls-8" points="725.05 193.25 734.94 184.19 733.65 173.49 732.36 171.34 729.51 171.84 722.92 178.41 725.05 193.25"/><polygon class="cls-9" points="585.7 169.3 585.5 162.65 593.17 164.79 638.02 228.69 628.36 231.25 621.1 228.62 585.7 169.3"/><polygon class="cls-10" points="598.63 256.73 583.25 256.31 584.29 249.12 603.9 231 621.1 228.62 626.33 228.92 638.02 228.69 598.63 256.73"/><polygon class="cls-11" points="628.64 196.21 631.74 185.14 627 186.99 623.6 191.56 625.91 195.77 628.64 196.21"/><polygon class="cls-8" points="735.62 248.61 740.24 252.43 729.16 284.19 711.22 270.76 711.22 249.4 735.62 248.61"/><polygon class="cls-12" points="716.08 267.31 729.16 284.19 716.54 283.45 712.24 275.87 716.08 267.31"/><polygon class="cls-13" points="674.21 224.69 667.92 228.83 689.1 281.83 707.71 286.82 716.54 283.45 715.71 254.11 712.91 243.37 674.21 224.69"/><polygon class="cls-12" points="689.1 281.83 716.54 283.45 716.98 299.65 710.72 306.31 698.95 306.4 689.1 281.83"/><polygon class="cls-12" points="714.51 236.82 667.92 228.83 715.71 254.11 740.24 252.43 714.51 236.82"/><polygon class="cls-11" points="724.84 152.68 724.54 146.67 721.88 95.1 751.38 62.04 749.76 76.35 734.07 136.99 743.43 159.64 730.83 161.16 724.84 152.68"/><polygon class="cls-14" points="748.84 162.85 766.18 149.15 764.65 146.97 734.62 135.72 732.01 136.27 738.02 156.45 748.84 162.85"/><polygon class="cls-12" points="733.65 173.49 743.31 166.92 738.02 156.45 726.55 160.31 729.51 171.84 733.65 173.49"/><polygon class="cls-8" points="794.52 125.61 821.46 90.31 818.92 88.63 809.88 87.59 807.7 89.76 794.52 125.61"/><polygon class="cls-15" points="809.88 87.59 784.31 155.99 731.99 136.2 751.34 62.02 809.88 87.59"/><polygon class="cls-14" points="722.9 115.12 722.39 105.06 733.74 108.34 722.9 115.12"/><polygon class="cls-12" points="779.22 92.51 821.46 90.31 811.01 60.38 808.7 58.48 780.31 88.6 771.38 46.83 768.52 44.64 742.69 52.75 743.2 54.41 754.5 67.52 756.47 67.75 779.22 92.51"/><polygon class="cls-13" points="797.72 35.69 768.52 44.64 779.22 92.51 811.01 60.38 797.72 35.69"/><path class="cls-12" d="M717.49,75.36l25.2-22.61,1.48,4.88s-4.46,29.86-4.46,30.21a29.88,29.88,0,0,1-1.48,3.28l-15.84,13.94Z"/><polygon class="cls-8" points="738.23 91.12 756.47 67.75 742.69 52.75 738.23 91.12"/><polygon class="cls-15" points="733.74 108.34 722.39 105.06 724.49 86.31 738.23 91.12 733.74 108.34"/><polygon class="cls-11" points="731.96 101.5 734.07 93.02 727.18 90.82 731.96 101.5"/><polygon class="cls-11" points="776.86 118.12 797.49 103.7 790.2 102.1 781.25 103.72 776.72 105.55 772.93 100.58 767.11 91.45 758.11 89.34 766.48 118.42 776.86 118.12"/><polygon class="cls-14" points="770.13 123.9 775.94 121.17 772.93 116.97 766.48 118.42 770.13 123.9"/><polygon class="cls-16" points="781.25 103.72 775.94 121.17 766.48 118.42 772.93 100.58 781.25 103.72"/><polygon class="cls-12" points="781.25 103.72 793.12 97.34 797.49 103.7 781.25 103.72"/><polygon class="cls-12" points="772.93 100.58 765.56 85.83 758.11 89.34 772.93 100.58"/><polygon class="cls-14" points="778.53 131.76 754.55 126.91 754.16 129.01 778.13 133.84 778.53 131.76"/><polygon class="cls-17" points="647.76 314.38 699.94 337.77 788.68 319.67 742.5 307.44 698.95 306.4 647.76 314.38"/><polygon class="cls-18" points="782.02 205.09 781.86 217.31 777.3 229.84 753.74 213.75 754.99 199.93 767.22 175.1 782.02 205.09"/><polygon class="cls-19" points="804.74 204.6 782.02 205.09 777.3 229.84 801.78 220.55 806.99 210.63 804.74 204.6"/><polygon class="cls-5" points="812.93 204.46 804.74 204.6 801.78 220.55 811.75 216.76 816.24 211.37 812.93 204.46"/><polygon class="cls-18" points="663.23 149.79 673.38 158.65 664.73 176.61 638.88 183.29 633.05 176.03 633.75 168.22 663.23 149.79"/><polygon class="cls-19" points="664.73 176.61 690.16 185.09 699.59 164.22 701.4 149.72 663.23 149.79 664.73 176.61"/><polygon class="cls-20" points="767.22 175.1 756.56 165.53 750.11 172.22 746.6 182.15 725.05 193.25 720.84 194.71 712.91 243.37 740.24 252.43 767.22 175.1"/><polygon class="cls-18" points="722.14 149.93 701.4 149.72 667.92 228.83 712.91 243.37 725.05 193.25 713.33 172.4 721.67 154.58 722.14 149.93"/><polygon class="cls-18" points="742.85 172.28 749.26 165.35 756.56 165.53 750.46 182.96 725.05 193.25 742.85 172.28"/><polygon class="cls-20" points="722.58 165.33 722.62 156.5 717.81 149.88 708.59 169.88 725.05 193.25 722.58 165.33"/><polygon class="cls-5" points="738.02 156.45 742.85 172.28 756.56 165.53 754.69 158.23 738.02 156.45"/><polygon class="cls-5" points="717.81 149.88 724.42 144.66 738.02 156.45 722.58 165.33 717.81 149.88"/><polygon class="cls-5" points="633.75 168.22 638.88 183.29 631.48 185.25 626.84 181.25 625.59 173.32 633.75 168.22"/><polygon class="cls-21" points="718.23 221.5 721.84 226.95 716.1 230.28 712.38 224.85 718.23 221.5"/><polygon class="cls-3" points="735.75 301.8 716.98 299.65 698.95 306.4 701.84 318.98 717.47 313.01 735.75 301.8"/><polygon class="cls-21" points="722.44 204.12 726.11 210.19 720.26 213.04 716.59 207.93 722.44 204.12"/><polygon class="cls-14" points="831.66 213.31 812.19 216.76 810.83 211.05 817.37 199.65 831.66 213.31"/><polygon class="cls-11" points="818.34 209.41 831.66 213.31 831.45 193.3 816.63 192.79 818.34 209.41"/><polygon class="cls-15" points="809.25 204.53 810.83 211.05 818.34 209.41 817.6 202.22 825.37 205.22 827.06 200.86 816.63 192.79 809.25 204.53"/><polygon class="cls-22" points="600.27 180.33 612.06 176.26 620.27 181.28 628.64 196.21 618.53 207.86 615.3 202.91 621.96 195.72 614.03 181.51 603.02 185.09 600.27 180.33"/><polygon class="cls-15" points="631.74 185.14 625.65 173.28 612.06 176.26 616.32 189.25 621.96 195.72 631.74 185.14"/><polygon class="cls-23" points="574.07 172.79 603.9 231 602 238.74 583.25 256.31 548.85 191.4 567.79 170.02 574.07 172.79"/><polygon class="cls-7" points="191.64 198.89 125.7 197.13 59.9 202.17 151.55 224.94 191.64 198.89"/><path class="cls-17" d="M157.4,208.71l-32.48,7.61-4.63.86-20.46-5.09ZM82.93,151l6,40.73,8.3-.44L93.43,144Zm-26.1-22,5.55,64.2-6.68.37-6-57.28Z"/><polygon class="cls-2" points="183.25 18.95 155.78 35.37 139.92 60.73 166 173.25 183.41 204.25 202.93 171.61 273.74 148.77 293.07 117.11 299.82 70.53 258.07 37.89 238.46 31.02 227.85 14.26 183.25 18.95"/><polygon class="cls-24" points="227.85 14.26 232.24 56.2 257.63 55.25 258.07 37.89 253.51 34.33 242.55 31.83 233.72 18.84 227.85 14.26"/><polygon class="cls-5" points="132.2 24.32 183.25 18.95 139.92 60.73 109.7 78.5 87.28 78.5 132.2 24.32"/><polygon class="cls-1" points="186.74 202.08 139.92 60.73 87.28 78.5 125.7 197.13 169.66 213.18 186.74 202.08"/><polygon class="cls-5" points="142.6 127.65 116.22 127.65 134.88 183.61 164.52 190.13 142.6 127.65"/><path class="cls-23" d="M139.92,133l-7.3-.12,6.22,20.6,8.23.46L139.92,133Zm-11.19-.19,6.18,20.44-6-.35-6.76-20.2,6.59.11Zm1.41,23.86,7.7,23.09,5.41,1.25L136,157l-5.9-.34Zm17.27,25.26L140,157.21l8.39.49,9,26.51Z"/><polygon class="cls-24" points="257.63 119.49 201.82 122.05 210 156.66 235.32 160.56 258.14 150.69 257.63 119.49"/><path class="cls-1" d="M234,126.68l3.4,23.92,15.47-.85-1.41-24.11-17.46,1ZM231.11,151l-3.54-23.9-17.29,1,4.37,23.78h0Z"/><polygon class="cls-1" points="253.51 34.33 253 51.2 237.14 51.59 233.72 18.84 253.51 34.33"/><polygon class="cls-4" points="125.17 104.95 124.87 103.51 117.22 104.88 117.4 108.04 125.17 104.95"/><path class="cls-22" d="M122.75,215.19l-2.46,2-4.46-1.11,2.68-22-9.13-2.36-2.19,22.17-7.36-1.83L119.39,53.31l4.16.16-1.36,13.24,12.44-5.22,2-16.48,2.59-1.44.71,1.76ZM119.39,187l1.92-15.84-9.76-.69-1.64,16.18,9.48.35ZM122,165.88l1.87-15.44-10.24.23-1.69,16.46L122,165.88Zm2.38-19.83,2.1-17.27-10.72,1.09-1.78,17.4,10.4-1.22ZM127,124.23l1.87-15.4-11.19,2-1.52,13.52Zm2.52-20.69,2-16.35-9.85,3.38-2.13,2.1L118,107.28l11.49-3.74Zm2.4-20.9L133.77,67l-12,4.39L120.09,86.8Z"/><polygon class="cls-12" points="117.03 91.49 121.66 90.57 120.18 102.52 118.31 104.69 117.03 91.49"/><polygon class="cls-3" points="124.87 103.51 120.36 101.02 118.54 101.59 117.47 103.91 116.99 105.85 124.87 103.51"/><polygon class="cls-24" points="273.58 118.26 293.07 117.11 292.17 123.32 279.38 150.39 273.77 152.47 273.58 118.26"/><polygon class="cls-2" points="292.17 123.32 288.75 146.9 279.38 150.39 279.25 124.11 292.17 123.32"/><polygon class="cls-6" points="430.82 263.13 451.42 196.25 413.34 165.44 353.07 138.95 210 156.66 182.37 188.93 220.84 208.83 238.3 175.73 332.81 168.22 417.64 241.24 398.69 271.29 430.82 263.13"/><polygon class="cls-5" points="387.75 190.29 406.64 183.17 415.65 186.48 429.71 183.61 446.64 186.66 426.89 191.45 412.65 191.03 387.75 190.29"/><polygon class="cls-2" points="406.89 194.64 387.75 190.29 410.18 189.11 424 190.11 446.64 186.66 429.25 196.63 419.35 192.95 406.89 194.64"/><polygon class="cls-1" points="424.79 236.27 429.34 230.47 443.01 223.53 430.82 263.13 420.39 263.64 424.79 236.27"/><polygon class="cls-22" points="424.26 239.65 430.27 232.62 430.82 263.13 425.81 266.3 420.39 263.64 424.26 239.65"/><polygon class="cls-9" points="418.98 228.53 443.01 223.53 430.27 232.62 424.79 236.27 418.98 228.53"/><polygon class="cls-9" points="430.82 263.13 420.39 263.64 401.34 261.54 381.97 265.53 376.74 270.76 379.03 278.87 398.27 279.06 427.05 275.36 430.82 263.13"/><path class="cls-2" d="M201.4,313.5l103.35,20.3,115.67-36.9-122.75,5.23S200.71,312.25,201.4,313.5Z"/><polygon class="cls-1" points="201.4 313.5 420.42 296.9 427.05 275.24 379.5 277.39 357.37 274.67 316.1 280.24 189.96 293.16 201.4 313.5"/><path class="cls-17" d="M201.4,313.5l84-6.36,33.34-9.47-62.5-5L192.68,298l8.72,15.49Zm122.7-12.85,18.54,2.15,15.79-5.43-18.17-1.85Z"/><polygon class="cls-7" points="393.88 220.76 385.53 233.43 381.97 265.53 405.97 264.36 411.56 261.81 415.79 263.87 420.39 263.64 430.27 232.62 409.64 211.7 393.88 220.76"/><polygon class="cls-1" points="385.67 212.32 409.64 211.7 381.85 231.88 385.67 212.32"/><polygon class="cls-5" points="393.34 239.9 393.34 254.05 403.24 253.28 404.58 240.06 393.34 239.9"/><polygon class="cls-5" points="408.12 239.69 405.97 264.36 407.73 264.26 411.19 261.51 414.34 263.94 415.79 263.87 420.42 239.09 408.12 239.69"/><path class="cls-25" d="M395.19,241.75h3l-.07,4.09-2.92.07v-4.16Zm2.89,5.34-.09,4.53-2.8.28v-4.74l2.89-.07Zm1.34-5.34h2.85l-.39,4-2.55,0,.09-4Zm2.34,5.22-.42,4.32-2.1.21.07-4.46Z"/><polygon class="cls-1" points="410.27 241.54 407.73 264.26 414.34 263.94 417.64 241.24 410.27 241.54"/><polygon class="cls-5" points="397.64 212.02 379.5 277.39 367.19 277.95 357.05 275.7 330.53 279.59 316.1 280.24 288.91 230.49 286.92 206.8 302.6 182.18 345.05 156.66 397.64 212.02"/><polygon class="cls-7" points="205.31 190.04 250.07 208.88 289.77 208.81 345.05 156.66 232.77 167.73 205.31 190.04"/><polygon class="cls-5" points="406.59 221.87 406.06 230.68 411.35 230.26 412.81 221.94 406.59 221.87"/><polygon class="cls-25" points="407.75 223.39 407.38 229.17 410.45 229.17 411.17 223.39 407.75 223.39"/><polygon class="cls-24" points="316.08 222.52 316.12 256.43 328.75 255.99 338.55 253.33 343.98 221.8 316.08 222.52"/><polygon class="cls-24" points="349.53 222.79 344.98 278.94 349.3 278.76 356.75 277.83 364 278.09 367.19 277.95 377.6 220.67 361.18 221.08 349.53 222.79"/><path class="cls-1" d="M320.35,227.25l8.14.1,1,5.43-2.24,4.9-7.12.16.2-10.59Zm6.48,14.13-1.09,9.89-5.76.26.33-10.13,6.52,0Zm8.37-2.31.25,3.37-1.2,6.36-5.41,2,.76-9.09Z"/><polygon class="cls-2" points="354.43 226.63 353.46 235.81 348.51 278.78 364 278.09 371.08 226.28 354.43 226.63"/><polygon class="cls-24" points="340.33 181.37 339.06 201.85 351.36 202.01 354.73 181.55 340.33 181.37"/><polygon class="cls-1" points="342.99 184.91 341.51 199.56 349.21 199.56 350.96 184.91 342.99 184.91"/><path class="cls-13" d="M258.18,297.85l16.42,2.84-12.42-41.93-11.37,24.32S250.81,292.93,258.18,297.85Z"/><polygon class="cls-4" points="291.92 282.71 302 284.28 303.27 280.4 296.75 254.76 283.85 251.39 291.92 282.71"/><polygon class="cls-26" points="182.37 188.93 245.7 191.98 277.05 230.14 305.19 230.95 311.43 232.02 312.58 266.32 316.75 271.38 306.6 274.13 300.45 273.53 295.38 256.1 263.69 253.19 253.07 282.13 184.34 283.19 151.55 224.94 182.37 188.93"/><polygon class="cls-26" points="293.14 245.12 298.3 245.24 305.93 271.5 316.75 271.38 315.92 282.62 302 284.28 295.38 256.1 292.15 250.46 293.14 245.12"/><path class="cls-23" d="M208,297.67l10.15.57-4.67-10.31c-5.55.44-10.68.86-14.24,1.16A15.36,15.36,0,0,0,208,297.67Z"/><path class="cls-13" d="M233.58,286.52c-1.87,6.25-6.35,10.89-12.11,11.68-6.15.88-10.57-3.4-13.13-9.85C216.4,287.7,226.32,286.94,233.58,286.52Z"/><polygon class="cls-26" points="189.96 293.16 251.69 288.49 257.1 279.47 259.55 271.96 259.52 260.91 256.47 246.72 240.38 275.89 220.54 276.1 184.34 283.19 189.96 293.16"/><polygon class="cls-27" points="218.32 279.84 227.85 259.69 224.77 239.09 220.94 237.38 169.24 239.55 162.19 243.83 184.34 283.19 218.32 279.84"/><polygon class="cls-26" points="206.83 245.42 208.08 250.93 218.74 250.28 223.13 247.57 222.46 244.31 206.83 245.42"/><polygon class="cls-26" points="243.25 277.42 218.32 279.84 223.83 242.84 224.03 240.25 226.46 236.78 256.45 237.24 256.47 248.82 243.25 277.42"/><path class="cls-17" d="M163.62,246.37l-1.43-2.54,92.2-5.32,1.8,1-1.84,1.52-90.73,5.32Zm141,20.76,7.94-.81,4.16,5.06-10.82.12ZM185.47,285.21l60.44-4.63,10.15-23.11-.3-6.52-12.51,26.47-58.91,5.78,1.13,2Zm20.9-32.07,13.8.26-3.9-3-8.19.48-1.25-5.5Z"/><path class="cls-23" d="M278.53,253.88c10.4,0,18.84,10.59,18.84,23.65s-8.44,23.67-18.84,23.67-18.82-10.58-18.82-23.67c0-5.55,1.59-12.9,4.14-16.92C267.29,255.13,272.54,253.88,278.53,253.88Z"/><path class="cls-7" d="M278.53,289.25c5.13,0,9.32-5.27,9.32-11.72s-4.19-11.7-9.32-11.7-9.3,5.28-9.3,11.7S273.42,289.25,278.53,289.25Z"/><polygon class="cls-27" points="214.62 204.02 216.15 198.8 243.82 199.1 259.32 216.78 244.47 239.07 224.03 240.25 214.62 204.02"/><polygon class="cls-23" points="222.44 204 229.86 234.31 242.62 234.4 249.7 229.24 254.65 220.92 240.4 204.3 222.44 204"/><polygon class="cls-28" points="162.19 243.83 224.03 240.25 216.15 198.8 174.53 198.11 162.19 243.83"/><polygon class="cls-23" points="179.25 203.1 170.63 236.31 217.08 234.47 210.62 203.7 179.25 203.1"/><polygon class="cls-9" points="272.45 204.95 284.15 204.95 289.77 208.81 292.65 220.88 273.17 216.67 272.45 204.95"/><polygon class="cls-29" points="356.03 263.31 357.76 268.36 357.69 273.63 357.05 275.7 351.15 276.12 350.48 270.83 352.98 263.78 356.03 263.31"/><polygon class="cls-13" points="360.56 272.49 357.05 275.7 357.42 268.77 357.44 266.67 359.38 266.11 360.56 272.49"/><polygon class="cls-11" points="314 256.33 311.66 257.84 312.42 261.49 323.5 261.28 324.4 258.07 322.27 254.09 314 256.33"/><polygon class="cls-7" points="271.73 233.45 263.62 223.56 268.31 215.65 276.33 221.27 271.73 233.45"/><polygon class="cls-8" points="271.73 233.45 267.62 229.4 269.14 223.79 270.18 222.56 271.15 223.3 274.62 228.13 271.73 233.45"/><polygon class="cls-8" points="262.83 254.81 256.03 257.47 257.1 279.47 266.71 280.12 272.22 275.84 274.6 273.39 273.17 264.17 277.49 256.68 262.83 254.81"/><polygon class="cls-12" points="272.68 286.62 257.1 279.47 271.31 275.84 272.68 286.62"/><polygon class="cls-13" points="286.04 252.13 295.38 256.1 283.89 282.59 277.44 282.27 271.31 275.84 273.35 256.68 286.04 252.13"/><polygon class="cls-12" points="273.14 254.07 256.01 257.19 272.59 263.92 295.38 256.1 273.14 254.07"/><polygon class="cls-11" points="260.03 214.52 259.13 211.58 251.46 186.48 261.93 166.53 262.9 173.76 263.34 205.71 270.74 216.16 264.03 217.96 260.03 214.52"/><polygon class="cls-14" points="273.12 218.47 275.45 214.12 279.99 207.65 278.97 206.77 262.76 204.92 261.54 205.53 268.31 215.65 273.12 218.47"/><polygon class="cls-12" points="269.14 223.79 266.02 220.44 265.37 218.03 268.31 215.65 273.17 216.67 272.89 219.28 271.15 223.3 269.14 223.79"/><polygon class="cls-8" points="291.06 192.56 299.98 171.8 298.53 171.29 293.95 171.91 293.14 173.23 291.06 192.56"/><polygon class="cls-15" points="293.95 171.91 289.77 208.81 261.51 205.5 261.9 166.5 293.95 171.91"/><polygon class="cls-14" points="254.44 196.21 252.94 191.31 258.95 191.54 254.44 196.21"/><polygon class="cls-12" points="279.43 178.11 299.98 171.8 291.15 158.34 289.77 157.7 279.48 176.05 269.93 156.54 268.22 155.82 256.5 162.99 256.96 163.75 264.15 168.84 265.14 168.7 279.43 178.11"/><polygon class="cls-13" points="281.54 147.8 268.22 155.82 279.43 178.11 291.15 158.34 281.54 147.8"/><path class="cls-12" d="M246.85,177.28,256.5,163l1.31,2.22s1.51,15.3,1.55,15.46a17.9,17.9,0,0,1-.32,1.81l-6.11,8.83Z"/><polygon class="cls-8" points="259.04 182.48 265.14 168.7 256.5 162.99 259.04 182.48"/><polygon class="cls-15" points="258.95 191.54 252.94 191.31 251.66 181.81 259.04 182.48 258.95 191.54"/><polygon class="cls-14" points="257.21 188.37 257.21 183.94 253.54 183.7 257.21 188.37"/><polygon class="cls-11" points="281.42 190.92 285.28 186.59 289.9 182.71 286.02 181.48 281.81 183.4 280.03 183.63 277.23 182.27 272.56 180.68 267.89 180.7 272.91 185.14 276.33 191.54 281.42 190.92"/><polygon class="cls-14" points="278.81 194.73 281.35 192.16 279.57 190.64 276.33 191.54 278.81 194.73"/><polygon class="cls-16" points="281.81 183.4 281.35 192.16 276.33 191.54 277.23 182.27 281.81 183.4"/><polygon class="cls-12" points="281.81 183.4 285.12 180.38 289.9 182.71 281.81 183.4"/><polygon class="cls-12" points="277.23 182.27 273.33 179.08 267.89 180.7 277.23 182.27"/><polygon class="cls-14" points="284.06 197.85 271.48 196.42 274.04 200.97 280.75 201.99 284.06 197.85"/><polygon class="cls-19" points="242.14 234.95 241.84 239.53 247.43 244.08 255.41 240.92 259.18 229.7 254.65 220.92 242.14 234.95"/><polygon class="cls-18" points="231.76 238.63 242.62 234.4 247.43 244.08 234.79 246.21 231.22 242.3 231.76 238.63"/><polygon class="cls-5" points="227.87 240.04 231.73 238.56 234.79 246.21 230.44 246.93 227.55 245.03 227.87 240.04"/><polygon class="cls-18" points="305.19 230.95 298.94 231 297.95 240.45 302.97 249.12 307.89 249.33 310.06 246.88 305.19 230.95"/><polygon class="cls-27" points="297.95 240.45 291.75 238.26 285.14 228.06 287.31 216.6 305.19 230.95 297.95 240.45"/><polygon class="cls-20" points="254.65 220.92 259.32 216.78 260.01 219.79 262.21 228.09 271.73 233.45 272.84 234.19 274.32 255.27 273.33 256.82 256.03 257.47 254.65 220.92"/><polygon class="cls-18" points="278.04 214.03 287.31 216.6 295.38 256.1 273.33 256.82 271.73 233.45 279.08 225.17 277.65 216.16 278.04 214.03"/><polygon class="cls-18" points="265 222.61 262.76 218.7 259.32 216.78 260.47 227.14 271.73 233.45 265 222.61"/><polygon class="cls-20" points="274.76 220.71 273.17 216.67 278.02 213.94 280.12 225.47 271.73 233.45 274.76 220.71"/><polygon class="cls-5" points="268.31 215.65 265 222.61 259.32 216.78 260.03 214.52 268.31 215.65"/><polygon class="cls-5" points="278.04 214.03 276.56 212.55 268.31 215.65 274.76 220.71 278.04 214.03"/><polygon class="cls-5" points="310.06 246.88 302.97 249.12 304.98 253.19 308.49 253.05 311.34 250.62 310.06 246.88"/><polygon class="cls-21" points="272.63 246.67 270.37 249.07 272.93 251.02 275.06 248.8 272.63 246.67"/><polygon class="cls-11" points="226.32 252.4 232.2 246.56 230.19 243.5 223.87 242.09 221.54 246.74 221.17 248.84 226.32 252.4"/><polygon class="cls-15" points="220.17 253.4 226.42 252.5 221.54 246.74 215.55 250.49 220.17 253.4"/><polygon class="cls-15" points="227.87 240.04 230.19 243.5 227.36 245.4 217.56 243.2 217.63 240.62 227.87 240.04"/><polygon class="cls-15" points="304.98 253.19 311.31 250.6 314.74 256.22 309.69 259.94 306.76 260.19 304.98 253.19"/><polygon class="cls-14" points="312.42 261.49 314.74 256.22 306.76 260.19 307.36 263.29 312.42 261.49"/><polygon class="cls-24" points="273.47 197.55 274.83 200.05 280.26 200.9 282.09 198.61 273.47 197.55"/><polygon class="cls-19" points="331.38 248.84 322.27 254.09 323.5 261.28 330.16 261.33 332.93 251.92 331.38 248.84"/><polygon class="cls-12" points="330.76 230.12 323.98 217.29 330.78 218.7 330.76 230.12"/><polygon class="cls-14" points="337.37 247 334.25 239.6 348.19 240.59 344.38 248.61 337.49 252.03 337.37 247"/><polygon class="cls-11" points="344.61 243.57 344.58 233.22 349 224.97 353.6 235.58 346.36 248.45 338.36 249.4 344.61 243.57"/><polygon class="cls-14" points="352.84 233.82 349.69 233.75 352.21 238.03 353.6 235.58 352.84 233.82"/><polygon class="cls-15" points="349 224.97 344.61 243.57 326.83 241.38 329.39 219.69 346.78 222.22 349 224.97"/><polygon class="cls-11" points="342.23 226.26 345.37 226.84 341.46 228.71 337.79 232.76 334.55 231.58 332.65 227.95 329.16 224.83 331.84 224.97 334.55 225.73 335.17 226.49 336.75 227.62 338.02 226.68 339.08 226.17 342.23 226.26"/><polygon class="cls-13" points="336.84 223 346.8 217.94 349.65 212.25 338.89 205.06 331.47 210.52 330.78 215.26 336.84 223"/><polygon class="cls-8" points="323.98 217.29 331.47 210.52 336.84 223 323.98 217.29"/><polygon class="cls-8" points="361.18 221.08 349.65 212.25 336.84 223 345.25 222.33 352.21 223.53 361.18 221.08"/><polygon class="cls-12" points="356.63 230.03 361.18 221.08 345.25 222.33 349.69 233.75 356.63 230.03"/><path class="cls-15" d="M356.63,230,352,228l-2.31,5.8,3.91,1.83S356.51,230,356.63,230Z"/><polygon class="cls-18" points="353.14 270.48 349.05 259.85 348.4 244.82 338.36 249.4 337.37 247 332.47 252.4 330.16 261.33 329.19 271.13 339.22 272.28 353.14 270.48"/><polygon class="cls-12" points="345.37 226.84 342.02 224.99 339.08 226.17 345.37 226.84"/><polygon class="cls-12" points="334.55 225.73 332.05 223.95 329.16 224.83 334.55 225.73"/><polygon class="cls-16" points="338.02 226.65 335.17 226.49 333.97 232.46 335.84 233.43 337.79 232.76 338.02 226.65"/><polygon class="cls-14" points="336.01 234.49 337.79 232.76 333.97 232.46 336.01 234.49"/><polygon class="cls-14" points="340.49 236.41 332.58 235.32 333.97 239.48 337.53 239.83 340.49 236.41"/><polygon class="cls-24" points="338.48 236.94 333.81 236.27 334.57 238.47 337.28 238.77 338.48 236.94"/><polygon class="cls-14" points="353.02 230.03 354.55 230.81 351.8 232.62 353.02 230.03"/><polygon class="cls-21" points="272.06 238.21 269.77 240.62 272.36 242.56 274.48 240.34 272.06 238.21"/><polygon class="cls-11" points="338.3 288.35 330.76 283.91 339.38 278.83 338.3 288.35"/><polygon class="cls-15" points="330.76 283.91 337.09 281.11 330.76 278.27 330.76 283.91"/><polygon class="cls-20" points="345 296.58 344.79 292.97 341.99 289.46 344.33 286.59 346.57 286.38 348 292.97 345 296.58"/><polygon class="cls-29" points="329.19 271.13 328.35 279.68 337.09 281.11 340.19 270.83 329.19 271.13"/><polygon class="cls-15" points="336.51 287.4 337.09 281.11 342.16 278.64 345.86 282.59 344.33 286.59 339.52 289.46 336.51 287.4"/><polygon class="cls-11" points="336.54 287.31 344.33 286.59 340.88 294.11 336.93 295.26 335.96 293.67 336.54 287.31"/><polygon class="cls-20" points="328.17 299.35 335.96 293.67 340.88 294.11 340.98 298.75 334.6 299.95 328.17 299.35"/><polygon class="cls-13" points="337.79 270.9 353.14 270.48 348.72 283.06 337.09 281.11 337.79 270.9"/><polygon class="cls-11" points="304.98 253.19 309.25 258.94 307.36 263.29 305.09 258.46 304.98 253.19"/><polygon class="cls-15" points="302.83 257.31 305.74 263.89 307.36 263.29 304.98 253.19 302.83 257.31"/><polygon class="cls-13" points="331.38 248.84 330.16 261.33 337.37 247 331.38 248.84"/><polygon class="cls-13" points="348.4 244.82 347.84 257.35 350.09 258 354.15 258.39 354.92 247.41 348.4 244.82"/><polygon class="cls-19" points="352.1 256.43 354.92 247.41 361.99 262.62 358.62 262.69 352.1 256.43"/><polygon class="cls-13" points="353.14 270.48 347.66 260.91 350.87 260.31 352.98 263.78 357.42 268.77 353.14 270.48"/><polygon class="cls-15" points="344.21 254.09 348.07 251.8 348.54 256.59 347.66 260.91 345.53 259.34 344.21 254.09"/><polygon class="cls-11" points="352.1 256.43 348.12 252.17 347.66 260.91 350.52 261.37 351.63 260.13 352.1 256.43"/><polygon class="cls-15" points="361.99 262.62 352.1 256.43 350.52 261.37 357.42 268.77 361.99 262.62"/><path class="cls-9" d="M449.29,134.26l16.42,2-1,.56-16.46-2,1.08-.55Zm-17,8.11,17.78,2.13-1,.55-17.87-2.15,1.13-.53Zm5.67-2.7,17.31,2.08-1,.55-17.38-2.1,1.11-.53Zm5.66-2.71,16.88,2-1,.53-16.93-2Z"/><polygon class="cls-9" points="406.66 22.01 424.3 14.22 430.22 45.59 434.4 114.45 428.16 123.19 345.58 119.67 337.67 99.26 406.66 22.01"/><polygon class="cls-1" points="468.07 20.09 424.3 14.22 428.16 123.19 434.73 129.26 541.59 142.14 547.3 179.54 559.3 174.64 603.07 99.65 559.3 32.06 468.07 20.09"/><polygon class="cls-2" points="427.91 112.2 404.46 121.06 550.08 178.41 559.3 174.64 587.28 126.72 427.91 112.2"/><polygon class="cls-4" points="550.08 178.41 547.3 160.96 473.99 209.41 550.08 178.41"/><polygon class="cls-23" points="532.02 127.19 534.75 128.97 534.77 135.16 528.09 136.36 528.43 128.13 532.02 127.19"/><polygon class="cls-13" points="525.75 124.41 529.22 128.73 542.63 129.29 543.39 120.11 533.87 120.11 525.75 124.41"/><polygon class="cls-23" points="547.93 125.96 542.63 129.29 541.61 120.11 548.25 120.04 547.93 125.96"/><polygon class="cls-6" points="406.66 22.01 412.63 74.27 337.67 99.26 321.74 58.14 406.66 22.01"/><polygon class="cls-5" points="344.31 57.03 363.63 51.64 363.96 73.76 342.71 79.73 344.31 57.03"/><polygon class="cls-24" points="351.08 49.56 351.08 58.58 355.59 57.23 355.98 47.99 351.08 49.56"/><polygon class="cls-5" points="369.37 49.63 388.74 43.37 390.22 65.51 369.9 71.2 369.37 49.63"/><polygon class="cls-24" points="376.93 42.33 377.07 51.27 381.11 49.86 381.64 41.22 376.93 42.33"/><polygon class="cls-27" points="559.62 137.96 530.75 134.72 505.92 127.95 485.82 129.66 401.88 120.25 353.07 138.95 405.25 169.35 475.98 187.68 528.39 166.92 559.62 137.96"/><polygon class="cls-7" points="448.39 156.45 475.03 135.99 446.29 149.84 423.82 147.48 415.26 151.99 448.39 156.45"/><polygon class="cls-24" points="447.12 151.8 413.97 147.11 446.52 131.55 448.53 131.09 479.84 133.26 447.12 151.8"/><polygon class="cls-11" points="447.31 118.72 439.61 124.6 447.14 129.77 447.31 118.72"/><polygon class="cls-11" points="450.64 121.87 455.77 127.48 449.09 131.11 446.22 126.65 448.42 119.83 450.64 121.87"/><polygon class="cls-7" points="502.17 110.5 490.43 101.2 497.15 90.04 507.03 95.89 502.17 110.5"/><polygon class="cls-8" points="502.17 110.5 497.52 105.39 498.61 99.42 499.6 97.99 500.92 98.75 504.6 103.79 502.17 110.5"/><polygon class="cls-19" points="519.37 99.65 519.53 91.05 528.32 93.34 529.68 103.84 524.9 112.88 519.37 99.65"/><polygon class="cls-11" points="505.31 89.76 505.73 86.31 509.2 56.94 493.57 36.92 493.96 45.15 500.51 79.7 494.75 91.19 501.57 94.38 505.31 89.76"/><polygon class="cls-14" points="492.37 92.35 486.45 89.74 481.8 86.15 482.75 84.97 500.37 79.68 501.85 80.1 497.15 90.04 492.37 92.35"/><polygon class="cls-8" points="466.47 71.64 452.39 50.42 453.92 49.56 459.14 49.31 460.3 50.62 466.47 71.64"/><polygon class="cls-15" points="459.14 49.31 471.17 89.39 501.87 80.05 493.59 36.89 459.14 49.31"/><polygon class="cls-14" points="507.83 68.33 508.53 62.6 501.89 64.06 507.83 68.33"/><polygon class="cls-12" points="476.48 53.28 452.39 50.42 459.51 33.7 460.92 32.71 476.02 51.02 482.7 27.44 484.44 26.31 498.89 31.92 498.54 32.85 491.56 39.92 490.45 39.97 476.48 53.28"/><polygon class="cls-13" points="468.07 20.09 484.44 26.31 476.48 53.28 459.51 33.7 468.07 20.09"/><path class="cls-12" d="M512.46,45.82l-13.57-13.9-1,2.73s1.43,17.27,1.41,17.45A19.62,19.62,0,0,0,500,54l8.56,8.56Z"/><polygon class="cls-8" points="499.98 54.05 490.45 39.97 498.89 31.92 499.98 54.05"/><polygon class="cls-15" points="501.89 64.06 508.53 62.6 508.02 51.8 499.98 54.05 501.89 64.06"/><polygon class="cls-14" points="503.17 60.22 502.29 55.27 506.31 54.28 503.17 60.22"/><polygon class="cls-11" points="476.88 68.03 465.62 58.99 469.85 58.34 474.91 59.62 476.92 59.52 479.98 58.25 483.47 53.14 488.69 52.27 482.61 67.55 476.88 68.03"/><polygon class="cls-14" points="480.51 71.59 477.29 69.79 479.9 67.98 482.82 68.12 480.51 71.59"/><polygon class="cls-16" points="474.91 59.62 477.29 69.79 482.82 68.12 479.98 58.25 474.91 59.62"/><polygon class="cls-12" points="474.91 59.62 468.35 55.52 465.62 58.99 474.91 59.62"/><polygon class="cls-12" points="479.98 58.25 484.55 49.98 488.69 52.27 479.98 58.25"/><polygon class="cls-14" points="480.55 74.25 494.06 70.53 494.38 71.71 480.85 75.4 480.55 74.25"/><polygon class="cls-19" points="470.91 116.18 469.48 116.76 477.5 128.66 488.97 118.12 488.97 107.7 479.81 98.68 470.91 116.18"/><polygon class="cls-18" points="457.96 117.75 470.91 116.18 477.5 128.66 461.64 127.81 456.79 123.3 457.96 117.75"/><polygon class="cls-5" points="453.55 118.28 457.96 117.75 461.64 127.81 455.77 127.48 451.38 123.12 453.55 118.28"/><polygon class="cls-20" points="479.81 98.68 486.52 93.04 487.79 95.31 490.8 104.81 502.17 110.5 503.14 112.48 505.11 131.83 485.82 129.66 479.81 98.68"/><polygon class="cls-18" points="508.37 87.59 519.53 91.05 530.75 134.72 505.11 131.83 502.17 110.5 510.22 100.46 508.02 90.08 508.37 87.59"/><polygon class="cls-18" points="493.73 98.29 491.79 94.01 486.52 93.04 489.57 105.62 502.17 110.5 493.73 98.29"/><polygon class="cls-20" points="504.99 95.63 505.31 89.76 508.37 87.59 511.44 100.76 502.17 110.5 504.99 95.63"/><polygon class="cls-5" points="497.15 90.04 493.73 98.29 486.52 93.04 486.45 89.74 497.15 90.04"/><polygon class="cls-5" points="508.37 87.59 505.94 84.51 497.15 90.04 504.99 95.63 508.37 87.59"/><polygon class="cls-12" points="498.61 99.42 494.8 95.72 497.15 90.04 502.7 93.99 500.92 98.75 498.61 99.42"/><polygon class="cls-21" points="504.41 126.81 501.96 129.8 505.11 131.83 507.39 129.1 504.41 126.81"/><polygon class="cls-18" points="442.75 110.24 442.68 113.55 444.65 114.17 445.76 112.99 444.53 109.94 442.75 110.24"/><polygon class="cls-20" points="445.76 113.02 449.09 131.11 448.02 132.15 446.52 131.55 442.68 113.55 445.76 113.02"/><polygon class="cls-21" points="502.93 116.06 500.48 119.05 503.63 121.08 505.92 118.36 502.93 116.06"/><polygon class="cls-5" points="529.48 81.62 522.47 125.03 532.94 89.37 553.68 86.94 556.04 78.25 529.48 81.62"/><polygon class="cls-24" points="531.86 86.59 558.33 84.07 548.25 120.04 522.47 125.03 531.86 86.59"/><polygon class="cls-15" points="543.95 107 553.75 100.42 553.75 106.45 549.71 114.89 544.23 113.73 543.95 107"/><polygon class="cls-11" points="556.55 107.14 553.75 100.42 549.71 114.89 556.55 107.14"/><polygon class="cls-15" points="453.55 118.28 455.77 127.48 449.62 123.05 448.25 126.61 445.46 126.63 446.52 117.15 453.55 118.28"/><polygon class="cls-5" points="353.07 138.95 345.58 119.67 350.73 89.76 371.31 92.26 383.12 98.34 380.63 117.66 376.79 148.38 353.07 138.95"/><polygon class="cls-1" points="373.55 124.76 383.12 98.34 397.92 87.19 420.35 82.36 405.76 108.99 403.17 133.13 376.79 148.38 373.55 124.76"/><polygon class="cls-24" points="383.12 98.34 350.73 89.76 386.01 76.31 420.35 82.36 383.12 98.34"/><path class="cls-17" d="M349.05,99.58l30.54,8.49,36.46-17.85,2.82-5.15-37.55,18.26-31.53-8-.74,4.27Zm18.26-23,2.06-27,.53,21.57,16.72-4.67-.3,3.65Zm-27.72,8.23L360,78.27l1-3.67-18.24,5.29L344.31,57ZM447,178.32l-3.08-10.2,33.92,6.54,34.77-19L515,163l-38.71,21.68Zm30.49-49.66-21.73-1.17L449.06,131Zm-74.33,4.46-26.38,15.26L353.07,139l52.18,30.4-2.08-36.23ZM351.91,136l-.92-2.38L375.77,141l28-13.62-.37,3.33-27.21,13.52L351.91,136Zm-2.24-5.76-1.2-3.09,26.4,7.28L404.58,120l-.35,3.31-28.92,14.35-25.64-7.42Zm-2.68-7,27.44,8L405,116.07l.34-3.29L374,128l-28.41-8.35,1.41,3.58Zm-.23-10.35,28.09,8.3,33-16.07-2.1,3.86-32.21,15.77-27.44-8.09.65-3.77Zm.6-3.54.81-4.64L378,112.48l35.24-17.13-2.66,4.83L376.4,116.92Z"/><polygon class="cls-26" points="473.99 209.41 481.71 193.3 476.25 184.63 405.25 169.35 473.99 209.41"/><polygon class="cls-3" points="563.25 155.27 559.62 137.96 476.25 184.63 473.99 209.41 563.25 155.27"/><polygon class="cls-7" points="443.93 168.12 444.69 162.27 461.43 163.71 477.87 169.02 479.47 172.7 477.85 174.66 443.93 168.12"/><polygon class="cls-9" points="505.55 152.1 481.08 165.3 477.87 169.02 477.85 174.66 512.62 155.64 510.8 150.67 505.55 152.1"/><polygon class="cls-24" points="477.87 169.02 444.69 162.27 479.9 146.49 510.8 150.67 477.87 169.02"/><polygon class="cls-11" points="608.36 186.46 612.06 176.26 621.96 195.72 617.93 200.07 608.36 186.46"/><polygon class="cls-11" points="101.71 77.23 92.53 67.5 92.78 56.03 94.89 59.13 105.89 72.81 108.78 77.19 105.38 79.03 101.71 77.23"/><polygon class="cls-14" points="108.2 76.31 110.33 70.71 109.66 70.55 103.23 72.22 101.43 73.92 108.2 76.31"/><polygon class="cls-8" points="111.97 61.33 111.35 49.86 110.56 49.95 108.62 51.27 108.55 52.06 111.97 61.33"/><polygon class="cls-15" points="108.62 51.27 115.05 69.02 101.41 73.9 92.78 56.03 108.62 51.27"/><polygon class="cls-14" points="96.09 71.27 94.31 69.37 97.08 68.12 96.09 71.27"/><polygon class="cls-12" points="103.39 57.37 111.35 49.86 104.27 45.7 103.49 45.72 102.95 56.43 94.19 49.68 93.24 49.75 89.52 55.66 89.89 55.92 94.33 56.59 94.75 56.31 103.39 57.37"/><polygon class="cls-13" points="97.5 43.06 93.24 49.75 103.39 57.37 104.27 45.7 97.5 43.06"/><path class="cls-12" d="M88.34,64.36l1.18-8.7,1.11.72,4.19,6.7a6.34,6.34,0,0,1,.27.91l-.78,5.38Z"/><polygon class="cls-8" points="95.09 63.98 94.75 56.31 89.52 55.66 95.09 63.98"/><polygon class="cls-15" points="97.08 68.12 94.31 69.37 91.56 65.33 95.09 63.98 97.08 68.12"/><polygon class="cls-14" points="95.58 67.08 94.58 65.05 92.85 65.77 95.58 67.08"/><polygon class="cls-11" points="107.56 63.57 108.87 56.52 107.16 57.42 105.68 59.25 104.92 59.76 103.35 59.76 100.83 59.2 98.7 60.29 105.01 64.19 107.56 63.57"/><polygon class="cls-14" points="106.86 65.09 107.56 63.57 105.01 64.19 106.86 65.09"/><polygon class="cls-16" points="105.68 59.25 107.56 63.57 105.01 64.19 103.35 59.76 105.68 59.25"/><polygon class="cls-12" points="105.68 59.25 106.95 55.99 108.87 56.52 105.68 59.25"/><polygon class="cls-12" points="103.35 59.76 99.58 58.34 98.7 60.29 103.35 59.76"/><polygon class="cls-14" points="109.13 65.07 103.46 67.87 103.72 68.38 109.38 65.56 109.13 65.07"/><polygon class="cls-18" points="118.88 73.42 121.2 69.16 122.88 68.65 124.87 71.91 123.53 79.33 120.2 77.78 118.88 73.42"/><polygon class="cls-8" points="117.68 110.82 119.09 96.93 107.48 99.63 109.96 111.26 114.05 113.15 117.68 110.82"/><polygon class="cls-12" points="106.98 96.88 119.09 96.93 108.69 105.27 99.9 101.16 106.98 96.88"/><polygon class="cls-19" points="118.88 73.42 123.53 79.33 114.49 84.77 112.41 80.74 113.47 74.97 118.88 73.42"/><path class="cls-18" d="M106.84,99.54,119,96.72,113.47,75l-5.27,1.34-4.83,1.31-2.15,1.44,2.2,16.13Z"/><polygon class="cls-5" points="122.21 66.53 124.29 66.67 125.24 70.09 124.87 71.91 121.2 69.16 122.21 66.53"/><polygon class="cls-15" points="122.19 66.71 122.63 62.44 124.64 62.16 126.26 66.37 125.24 70.09 122.19 66.71"/><polygon class="cls-11" points="125.47 61.63 122.63 62.44 126.26 66.37 129.36 63.71 125.47 61.63"/><polygon class="cls-19" points="100.73 92.77 95.63 89.71 97.98 79.33 100.73 92.77"/><polygon class="cls-20" points="99.9 101.16 106.77 99.61 103.37 77.62 97.98 79.33 99.9 101.16"/><polygon class="cls-5" points="100.83 76.17 108.2 76.31 100.64 78.5 100.83 76.17"/><polygon class="cls-30" points="398.69 271.29 420.39 263.64 382.8 265.49 398.69 271.29"/><polygon class="cls-31" points="201.82 122.05 207 160.17 210 156.66 201.82 122.05"/><polygon class="cls-31" points="227.78 60.75 227.85 14.26 232.24 56.2 257.63 55.25 255.32 58.65 227.78 60.75"/><polygon class="cls-32" points="226.42 252.5 243.59 255.85 249.21 270.57 252.15 273.35 251.69 288.49 257.1 279.47 255.27 240.29 247.43 244.08 232.2 246.56 226.42 252.5"/><path class="cls-32" d="M178.7,205.25l30.17.81,5.41,28.52,2.8-.11-6.46-30.77-31.37-.6-.55,2.15ZM222.44,204l18,.3,14.25,16.62-1.55,1.73-13.78-16.27L223,206.26Z"/><polygon class="cls-5" points="55.35 106.03 68.18 101.2 74.33 103.44 83.88 101.48 95.39 103.56 81.96 106.82 72.27 106.54 55.35 106.03"/><polygon class="cls-2" points="68.37 108.99 55.35 106.03 70.61 105.25 80 105.89 95.39 103.56 83.56 110.36 76.83 107.84 68.37 108.99"/><polygon class="cls-21" points="721.16 321.64 702.72 323.83 733.16 304.97 742.5 307.44 721.16 321.64"/><polygon class="cls-4" points="702.72 323.83 701.84 318.98 733.86 301.6 741.79 302.77 742.5 307.44 733.74 306.73 702.72 323.83"/><polygon class="cls-1" points="584.85 200.88 579.3 205.87 583.09 214.03 589.52 208.78 584.85 200.88"/><polygon class="cls-22" points="567.79 170.02 585.5 162.65 626.33 228.92 602 238.74 567.79 170.02"/><path class="cls-29" d="M761.56,99.05a3.66,3.66,0,1,1-3.66,3.66A3.66,3.66,0,0,1,761.56,99.05Z"/><path class="cls-29" d="M788.77,108.88a3.65,3.65,0,1,1-3.65,3.65A3.64,3.64,0,0,1,788.77,108.88Z"/><polygon class="cls-12" points="109.96 111.26 117.68 110.82 116.87 118.65 114.54 120 111.42 118.05 109.96 111.26"/><polygon class="cls-4" points="121.68 124.27 121.8 122.65 115.37 121.94 110.91 122.28 110.63 124.39 121.68 124.27"/><polygon class="cls-3" points="121.8 122.65 116.87 118.65 111.42 118.05 110.91 122.28 121.8 122.65"/><polygon class="cls-9" points="139.34 43.71 120.29 217.18 124.92 216.32 141.68 44.59 139.34 43.71"/><path class="cls-29" d="M102.17,61a.83.83,0,1,1-.83.83A.83.83,0,0,1,102.17,61Z"/><path class="cls-29" d="M108.39,59.06a.83.83,0,0,1,.83.83.84.84,0,0,1-.83.84.85.85,0,0,1-.84-.84A.84.84,0,0,1,108.39,59.06Z"/><path class="cls-29" d="M471.7,63.31a1.9,1.9,0,1,1-1.9,1.9A1.89,1.89,0,0,1,471.7,63.31Z"/><path class="cls-29" d="M485.11,59.36a1.9,1.9,0,1,1-1.9,1.9A1.9,1.9,0,0,1,485.11,59.36Z"/><circle class="cls-29" cx="273.7" cy="186.48" r="1.64"/><path class="cls-29" d="M286.11,186.18a1.64,1.64,0,1,1-1.64,1.64A1.63,1.63,0,0,1,286.11,186.18Z"/><path class="cls-29" d="M331.47,226.4a1.23,1.23,0,1,1-1.22,1.22A1.23,1.23,0,0,1,331.47,226.4Z"/><path class="cls-29" d="M340.84,227.85a1.23,1.23,0,1,1-1.23,1.23A1.23,1.23,0,0,1,340.84,227.85Z"/><polygon class="cls-33" points="328.17 299.35 340.98 298.75 341.05 300.28 328.31 301.13 328.17 299.35"/><polygon class="cls-33" points="346.11 297.23 345 296.58 347.43 292.67 346.57 286.38 348.33 286.22 349.32 293.41 346.11 297.23"/><polygon class="cls-3" points="281.33 298.24 282.64 294.43 279.62 289.16 279.64 285.92 283.55 282.46 288.79 285.09 288.24 297.83 281.33 298.24"/><polygon class="cls-4" points="291.13 286.11 289.23 298.52 282.09 300.79 281.33 298.24 287.06 296.14 288.77 285.3 291.13 286.11"/><polygon class="cls-8" points="271.31 275.84 283.89 282.59 278.5 295.03 273.37 296.56 269.63 291.82 271.31 275.84"/><polygon class="cls-3" points="259.82 295.17 269.63 291.82 278.5 295.03 278.16 301.23 270.3 299.65 259.82 295.17"/><polygon class="cls-21" points="268.77 303.84 278.14 303.58 259.99 296.79 256.38 298.91 268.77 303.84"/><polygon class="cls-4" points="278.14 303.58 278.16 301.23 259.82 295.17 256.24 296.28 256.61 298.96 259.82 297.64 278.14 303.58"/><polygon class="cls-2" points="365.99 88.17 370.66 86.69 388.81 90.2 382.75 92.21 365.99 88.17"/><polygon class="cls-2" points="375.36 84.65 387.33 80.84 406.64 84.07 392.9 88.44 375.36 84.65"/><polygon class="cls-2" points="428.69 144.66 433.02 142.65 451.49 143.94 445.9 146.67 428.69 144.66"/><polygon class="cls-2" points="437.25 140.04 448.35 134.81 467.93 135.72 455.19 141.72 437.25 140.04"/><polygon class="cls-2" points="458.54 160.89 463.03 159.13 481.32 161.53 475.51 163.92 458.54 160.89"/><polygon class="cls-2" points="467.49 156.8 479.9 151.46 498.4 154.25 485.2 159.5 467.49 156.8"/><path class="cls-1" d="M347.33,63.87l13.3-4.79.16,2.85-13.32,3.93Zm0,5.25L360.84,65l0,2.68L347.33,71.1Z"/><path class="cls-1" d="M373,56.2l12.79-4.61.23,2.73-12.81,3.79Zm.16,5,13-4,0,2.56-13,3.29Z"/><polygon class="cls-18" points="446.52 131.55 449.09 131.11 448.35 134.81 446.52 131.55"/></g></svg>