<svg id="Layer_1" data-name="Layer 1" xmlns="http://www.w3.org/2000/svg" viewBox="0 0 900 350"><defs><style>.cls-1{fill:#a3a3a3;}.cls-2{fill:#cececd;}.cls-3,.cls-34{fill:#33231b;}.cls-3,.cls-6{fill-opacity:0.1;}.cls-4{fill:#ececeb;}.cls-5{fill:#8f8f8f;}.cls-14,.cls-6{fill:#2b2b2b;}.cls-7{fill:#5ec0d9;}.cls-8{fill:#73cfe5;}.cls-9{fill:#318fa6;}.cls-10{fill:#858686;}.cls-11{fill:#dfbda5;}.cls-12{fill:#c3987b;}.cls-13{fill:#8b6651;}.cls-15{fill:#3aa0ba;}.cls-16{fill:#fff;}.cls-17{fill:#27788c;}.cls-18{fill:#474747;}.cls-19{fill:#6f7173;}.cls-20{fill:#72cbcc;}.cls-21{fill:#1c7678;}.cls-22{fill:#50a9aa;}.cls-23{fill:#369496;}.cls-24{fill:#4f5253;}.cls-25{fill:#8ce0dc;}.cls-26{fill:#412b23;}.cls-27{fill:#674736;}.cls-28{fill:#84614f;}.cls-29{fill:#8c6d5d;}.cls-30{fill:#66483a;}.cls-31{fill:#b18d79;}.cls-32{fill:#916a59;}.cls-33{fill:#ba9e8e;}.cls-35{fill:#e8cab6;}</style></defs><title>sentinels_Executive_ESTJ_strengths</title><g id="Layer_1-2" data-name="Layer_1"><polygon class="cls-1" points="472.67 7.12 484.52 17.33 592.16 33.38 614.59 32.66 620.71 22.53 487.08 0 472.67 7.12"/><polygon class="cls-2" points="487.08 0 481.61 11.49 470.02 19.25 397.87 28.28 369.23 28.19 363.49 19.89 487.08 0"/><polygon class="cls-3" points="449.68 318.35 590.24 350 685.1 335.95 825.39 324.73 845.27 311.42 814.99 304.12 783.15 298.46 761.54 291.8 747.04 293.35 722.96 282.5 709.09 281.4 638.67 288.06 539.62 287.7 439.74 311.78 449.68 318.35"/><polygon class="cls-2" points="887.6 260.88 900 0 702.43 34.3 702.43 62.3 853.3 41.59 852.39 209.89 531.59 211.17 522.56 86.93 702.43 62.3 702.43 34.3 499.76 69.42 489.27 157.07 495.47 245.56 887.6 260.88"/><polygon class="cls-1" points="520.19 83.19 525.75 217.83 639.5 221.57 856.67 218.1 858.68 37.13 702.43 58.38 702.43 76.08 837.79 60.39 842.08 65.31 841.72 76.81 836.33 90.31 841.17 99.97 839.52 165.1 826.03 178.06 630.19 191.92 540.89 164.28 535.88 95.41 702.43 76.08 702.43 58.38 520.19 83.19"/><path class="cls-4" d="M537.79,192h0l3.92,12L587,200.77l29,4.38,6.75-.28L646,197.39l-11.31-18.33-.45-23.26-11.59-3.19-.55-11.41-15.23.46,1,20.43-8.21.19-.09-7.48-12.22.36Zm187.54,9.49,31.46-1,42.15-12.87-11.5-25.26-19-20.34-.09-13.51-15.69,1,.91,24.81-2.82,11.4-6.85,4.47L739,159.36l-.09-11.22-12.22.54.45,17.88-11.13.55V154.8l-5.93.45-9.76,5-6.11,16Z"/><polygon class="cls-5" points="615.96 205.15 615.51 168.57 607.94 166.01 604.74 170.49 607.11 205.42 615.96 205.15"/><polygon class="cls-2" points="607.94 166.01 588.6 167.02 589.88 205.97 609.39 205.33 607.94 166.01"/><path class="cls-5" d="M657.56,178.79l-.64-24.18-9.58-3.28-4.1,5.65,3.19,47.16L650,204c1.18-2.64,3.19-6.75,5.38-11.31Z"/><polygon class="cls-2" points="647.34 151.33 622.62 152.61 622.71 204.87 649.35 204.05 647.34 151.33"/><polygon class="cls-5" points="733.35 201.32 733.81 185.81 733.9 173.04 725.14 170.12 721.68 174.77 723.41 199.95 725.33 201.5 733.35 201.32"/><polygon class="cls-2" points="725.14 170.12 704.71 171.21 705.44 191.46 712.83 191.28 725.33 201.5 726.24 201.5 725.14 170.12"/><polygon class="cls-5" points="839.52 165.1 831.68 162.46 828.22 167.11 827.49 192.74 830.31 198.12 838.7 197.85 839.52 165.1"/><polygon class="cls-2" points="831.68 162.46 811.25 163.46 812.43 198.67 830.31 198.12 831.68 162.46"/><polygon class="cls-5" points="539.43 97.69 842.08 65.31 842.26 56.19 533.05 91.86 536.42 198.85 541.81 207.52 539.43 97.69"/><polygon class="cls-4" points="0 0 38.95 349.54 495.47 245.56 506.42 212.9 506.32 68.23 0 0"/><polygon class="cls-6" points="84.92 339.06 173.67 349.54 227.76 332.03 231.59 321.45 186.71 315.88 164.27 293.08 108.18 275.75 91.85 287.06 84.92 339.06"/><polygon class="cls-7" points="365.4 66.86 372.24 267.27 394.31 266.17 438.1 255.77 437.19 136.83 433.99 72.7 395.59 65.4 365.4 66.86"/><polygon class="cls-8" points="484.62 79.81 481.15 77.99 436 71.88 433.9 72.61 436.18 259.06 487.53 250.85 484.62 79.81"/><polygon class="cls-4" points="412.46 130.26 425.14 135.64 428.34 137.74 427.97 202.05 424.6 204.33 413.65 208.25 413.1 200.22 419.03 198.12 419.31 143.12 412.46 139.56 412.46 130.26"/><polygon class="cls-4" points="441.11 132.99 452.6 136.83 455.79 138.74 455.43 199.95 452.05 202.05 442.29 205.78 442.02 198.31 447.13 196.21 447.4 142.12 441.38 139.65 441.11 132.99"/><polygon class="cls-1" points="372.24 267.27 435 252.94 437.92 258.97 434.36 259.42 372.51 273.56 372.24 267.27"/><polygon class="cls-9" points="44.7 54.82 50.62 62.66 56.83 227.95 54.36 234.25 40.23 225.4 25.08 62.21 44.7 54.82"/><polygon class="cls-8" points="345.33 82.28 55.64 51.72 44.7 54.82 56.55 228.68 58.83 232.6 347.8 205.06 345.33 82.28"/><polygon class="cls-7" points="37.31 46.7 44.7 54.82 283.67 78.81 266.43 70.06 37.31 46.7"/><polygon class="cls-9" points="53.36 240.54 56.83 227.95 347.8 205.06 337.94 214.54 53.36 240.54"/><polygon class="cls-10" points="215.26 140.75 217.45 140.11 218.18 141.57 217.45 142.21 215.26 140.75"/><polygon class="cls-2" points="217.45 140.11 217.45 142.21 220.19 143.67 221.56 142.03 220.65 139.11 217.45 140.11"/><polygon class="cls-5" points="220.65 139.11 229.04 140.66 240.8 140.47 241.9 143.94 233.5 146.86 220.19 143.67 220.65 139.11"/><polygon class="cls-10" points="329.74 159.45 353.09 190.37 335.48 192.83 333.84 178.15 329.74 159.45"/><path class="cls-6" d="M354.73,301.38,309,311.69l-46.52-13.05,19.16-29.46-11.13-37.76,5.2-8.67L223,234.34,46.25,254.4,26.82,241,9.12,81.55l16-19.34L40.23,225.4l13.13,15.14,224-20.52,6.11-9.86-5.38-18.06-33.29-17.88-2.28-16.42-10.13-4.65-12.22-9.48,13.32,3.19.54,2.19,12.23-2.19,21.07,19,14.13-5.47-6.84-16.6,16.88-26.46,10.21,7.94,1.92,26.09L298.36,156l-4.84,24.36,2.19,9.85,4.38,20-3.92,8.21-6.84,14.32,7.57,26.46L305.56,289ZM452.6,136.83l-.55,65.22,3.38-2.1.36-61.21Zm-27.45-1.19-.55,68.69,3.37-2.28.37-64.31Zm17.14,70.15,6.11,7.66.83-10.31-6.94,2.65Zm-.91-66.14,6,8.49v-6Zm-28.91-.09,6.84,10.13v-6.57Zm1.18,68.69,7.75,9.39-.09-12.13Z"/><polygon class="cls-11" points="352.17 76.17 325.08 79.91 300.46 85.93 301.19 96.96 306.11 110.28 303.38 109.83 301.09 112.83 298.72 106.91 296.44 104.08 292.34 105.63 287.5 109.92 288.51 112.93 291.52 117.31 294.16 122.23 297.45 124.69 297.81 133.45 303.65 151.33 325.27 157.99 326.54 145.31 329.46 137.01 339.31 134.45 353.82 131.99 355.27 105.54 352.17 76.17"/><polygon class="cls-12" points="320.25 106.54 325.08 97.78 335.48 98.7 339.04 106.54 337.67 93.31 326.91 92.68 319.88 96.96 316.69 101.34 320.25 106.54"/><polygon class="cls-12" points="353.91 93.13 346.43 97.33 344.97 106.54 340.23 91.49 353.91 93.13"/><polygon class="cls-12" points="317.24 110.46 339.22 112.2 339.31 109.09 317.24 110.46"/><polygon class="cls-12" points="355.18 106.54 345.61 111.56 345.15 108.18 355.18 106.54"/><polygon class="cls-12" points="307.75 84.56 316.33 93.77 317.24 110.46 316.51 135.37 325.27 157.99 315.14 155.98 303.65 151.33 297.81 133.45 297.45 124.69 301.46 118.95 301.09 112.83 306.11 110.28 300.46 85.93 307.75 84.56"/><polygon class="cls-13" points="294.16 122.23 301.46 118.95 297.81 133.45 294.16 122.23"/><polygon class="cls-13" points="353.82 131.99 309.94 135.73 319.06 156.07 321.53 158.08 325.27 157.99 329.46 137.01 353.82 131.99"/><polygon class="cls-14" points="318.79 90.4 326 86.47 335.75 89.3 318.79 90.4"/><polygon class="cls-14" points="342.78 88.02 349.07 83.37 353.09 85.11 342.78 88.02"/><polygon class="cls-13" points="339.95 114.75 342.78 118.31 346.06 114.48 339.95 114.75"/><polygon class="cls-15" points="326 121.14 331.74 128.89 340.95 127.61 343.42 123.05 326 121.14"/><polygon class="cls-16" points="333.48 122.78 326 121.14 332.93 126.88 339.95 125.88 341.05 122.78 333.48 122.78"/><polygon class="cls-13" points="291.7 112.02 295.17 109.28 297.81 114.39 291.7 112.02"/><path class="cls-17" d="M362.75,88.21l-25.26,3.37-21.16,2.19.91,16.69,22.07-1.37,5.84-.91L364.21,105Zm-16.32,5.93,13.13-1.83.73,9.49-12.49,2.55ZM335,95.23l.63,10.31-15.41,1L319.88,97Z"/><polygon class="cls-18" points="352.17 76.17 329.28 56.92 328.82 69.51 331.1 80.18 352.17 76.17"/><polygon class="cls-19" points="329.28 56.92 287.87 66.31 284.22 72.88 283.67 78.81 291.79 83.19 300.46 85.93 307.75 84.56 331.1 80.18 329.28 56.92"/><polygon class="cls-18" points="283.67 78.81 281.58 82.83 281.67 86.2 276.47 104.44 290.6 103.81 303.83 100.34 300.46 85.93 283.67 78.81"/><polygon class="cls-14" points="276.47 104.44 303.83 100.34 306.11 110.28 301.09 112.83 296.44 104.08 287.5 109.92 291.52 117.31 276.47 104.44"/><polygon class="cls-14" points="281.67 86.2 268.62 83.65 276.19 75.62 287.87 66.31 283.67 78.81 281.67 86.2"/><polygon class="cls-19" points="287.87 66.31 272.36 55.92 256.4 94.05 268.62 83.65 287.87 66.31"/><polygon class="cls-18" points="303.65 151.33 329.74 159.45 326.36 165.65 319.7 172.58 305.93 163.83 297.9 154.06 303.65 151.33"/><polygon class="cls-20" points="297.9 154.06 288.6 157.62 286.5 170.57 294.16 183.16 317.97 190 337.21 185.9 329.74 159.45 319.7 172.58 297.9 154.06"/><polygon class="cls-21" points="294.16 183.16 337.21 185.9 329.83 215.27 316.14 214.45 299.82 208.89 294.16 183.16"/><polygon class="cls-10" points="288.6 157.62 267.35 165.83 259.14 165.1 254.58 170.76 294.16 183.16 288.6 157.62"/><polygon class="cls-17" points="326 121.14 332.65 121.86 339.31 120.5 346.06 122.96 332.56 123.42 326 121.14"/><polygon class="cls-18" points="347.8 205.06 335.48 192.83 369.78 180.34 369.5 184.17 366.13 190.19 347.8 205.06"/><polygon class="cls-12" points="379.54 181.89 383.1 183.89 378.54 191.01 366.13 190.19 369.78 180.34 379.54 181.89"/><polygon class="cls-18" points="249.29 137.46 271.36 164.28 254.58 170.76 246.28 146.86 246.09 142.48 249.29 137.46"/><polygon class="cls-11" points="236.24 136.92 236.06 139.11 239.89 142.66 246.28 146.86 249.29 137.46 236.24 136.92"/><polygon class="cls-12" points="232.59 146.68 234.05 149.05 246.28 146.86 249.29 137.46 232.59 146.68"/><polygon class="cls-12" points="229.04 140.66 236.24 136.92 239.89 142.66 229.04 140.66"/><polygon class="cls-1" points="483.06 82.92 487.9 83.28 490.36 78.08 434.08 69.78 365.22 59.66 365.4 66.86 483.06 82.92"/><polygon class="cls-1" points="481.06 220.56 488.45 218.47 490.36 78.08 483.06 82.92 481.06 220.56"/><polygon class="cls-21" points="116.84 289.89 116.66 335.04 122.59 333.58 132.35 292.17 119.58 285.78 116.84 289.89"/><polygon class="cls-22" points="108.18 333.76 108.18 275.75 149.22 270.28 182.24 275.38 183.52 302.75 179.33 339.33 170.29 337.69 164.27 293.08 120.22 291.8 116.66 335.04 108.18 333.76"/><polygon class="cls-20" points="230.68 266.35 205.59 275.75 177.04 276.84 108.18 275.75 170.75 263.07 185.25 263.89 198.3 261.61 212.71 265.35 230.68 266.35"/><polygon class="cls-21" points="209.43 282.95 219.09 323 226.12 323.73 227.4 313.42 226.12 278.76 209.43 282.95"/><polygon class="cls-23" points="179.33 339.33 177.04 276.84 230.68 266.35 231.59 321.45 226.12 323.73 222.65 282.77 187.9 290.53 185.71 336.77 179.33 339.33"/><polygon class="cls-18" points="294.89 287.97 290.6 297.73 293.71 305.3 311.49 305.12 311.49 301.84 304.83 299.01 293.98 301.84 294.89 287.97"/><polygon class="cls-12" points="306.29 291.99 304.65 286.42 294.89 287.97 293.98 299.01 293.8 301.84 304.83 299.01 307.3 294.9 306.29 291.99"/><polygon class="cls-19" points="293.8 301.84 307.3 294.9 311.49 301.84 293.8 301.84"/><polygon class="cls-21" points="297.81 248.11 294.53 288.79 305.47 289.07 307.3 245.56 297.81 248.11"/><polygon class="cls-12" points="343.05 282.95 335.66 280.77 330.74 284.87 332.38 289.89 338.67 297.28 345.15 295.27 346.97 290.71 343.05 282.95"/><polygon class="cls-19" points="338.67 298.01 346.97 290.71 354.73 298.01 346.25 299.37 338.67 298.01"/><polygon class="cls-18" points="334.2 296.91 340.77 301.38 354.73 301.38 354.73 298.01 343.14 298.01 330.74 285.05 328.55 290.53 330.65 301.2 333.2 301.29 334.2 296.91"/><polygon class="cls-20" points="299.82 208.89 313.68 231.15 322.8 236.25 329.37 229.78 329.83 215.27 299.82 208.89"/><polygon class="cls-23" points="299.82 208.89 322.8 236.25 324.63 263.89 305.47 289.07 289.33 232.69 299.82 208.89"/><polygon class="cls-22" points="329.74 215.36 337.4 253.95 331.01 248.66 322.8 236.25 329.74 215.36"/><polygon class="cls-21" points="322.8 236.25 337.4 253.95 343.05 283.14 305.47 289.07 322.8 236.25"/><path class="cls-14" d="M331.38,99a2.37,2.37,0,1,1-2.37,2.37A2.37,2.37,0,0,1,331.38,99Z"/><path class="cls-14" d="M351.17,96.51a2.37,2.37,0,1,1-2.37,2.37A2.37,2.37,0,0,1,351.17,96.51Z"/><polygon class="cls-11" points="379.36 174.59 377.53 173.59 369.78 180.34 367.95 185.26 374.16 184.44 379.36 174.59"/><polygon class="cls-11" points="379.54 181.89 378.54 191.01 386.56 186.45 389.12 178.15 379.54 181.89"/><polygon class="cls-18" points="635.76 288.52 651.35 291.26 665.95 288.7 665.95 279.22 657.1 277.3 651.17 278.12 635.76 288.52"/><polygon class="cls-24" points="647.16 265.81 651.17 278.12 665.95 279.22 667.32 269.36 647.16 265.81"/><polygon class="cls-24" points="635.94 292.63 635.76 288.52 665.95 288.7 665.95 292.9 635.94 292.63"/><polygon class="cls-24" points="751.41 274.65 747.04 293.35 741.65 296.27 736.09 292.99 732.62 271.37 747.31 271.74 751.41 274.65"/><polygon class="cls-18" points="725.69 302.29 739.1 304.94 747.04 302.38 747.04 293.35 730.16 291.8 725.69 302.29"/><polygon class="cls-24" points="725.87 305.85 725.69 302.48 747.04 302.38 747.04 306.49 725.87 305.85"/><polygon class="cls-10" points="762.36 300.38 761.54 291.8 772.48 293.81 778.96 295.82 762.36 300.38"/><polygon class="cls-5" points="805.23 292.72 794.65 293.63 787.17 296 804.04 303.94 805.23 292.72"/><polygon class="cls-2" points="761.54 291.8 769.11 291.07 781.42 294.45 778.96 295.82 761.54 291.8"/><polygon class="cls-2" points="783.98 294.08 787.17 296 805.23 292.72 797.84 291.26 783.98 294.08"/><polygon class="cls-5" points="777.68 278.94 778.96 295.82 782.79 299.46 787.17 296 784.07 276.11 777.68 278.94"/><polygon class="cls-1" points="782.7 275.48 782.52 297.19 787.17 296 787.08 277.66 782.7 275.48"/><polygon class="cls-2" points="747.04 302.38 778.96 295.82 782.52 297.19 780.33 299.74 754.51 309.5 747.04 302.38"/><polygon class="cls-2" points="785.44 300.38 782.52 297.19 787.17 296 814.99 304.12 811.8 313.33 785.44 300.38"/><polygon class="cls-5" points="782.97 301.75 783.89 299.74 782.52 297.19 754.42 306.67 751.69 313.24 754.88 321.08 760.08 319.53 760.44 311.14 782.97 301.75"/><polygon class="cls-10" points="782.52 297.19 782.97 301.75 802.22 312.51 801.49 320.17 808.6 322.54 811.8 313.33 808.6 308.77 782.52 297.19"/><polygon class="cls-1" points="747.04 302.38 754.42 306.67 754.88 321.08 745.67 318.99 747.04 302.38"/><polygon class="cls-1" points="808.6 322.54 808.6 308.77 814.99 304.12 817.27 318.99 808.6 322.54"/><polygon class="cls-10" points="544.09 318.35 543.72 310.6 554.21 311.78 560.69 313.69 544.09 318.35"/><polygon class="cls-5" points="586.96 310.6 576.38 311.51 568.9 313.88 585.77 321.81 586.96 310.6"/><polygon class="cls-2" points="543.72 310.6 550.84 308.95 563.15 312.42 560.69 313.69 543.72 310.6"/><polygon class="cls-2" points="565.7 312.05 568.9 313.88 586.96 310.6 578.75 308.68 565.7 312.05"/><polygon class="cls-1" points="560.69 296.55 560.69 313.69 564.7 319.63 568.9 313.88 566.16 296.91 560.69 296.55"/><polygon class="cls-5" points="564.43 293.44 564.25 315.06 568.9 313.88 568.44 298.1 564.43 293.44"/><polygon class="cls-19" points="715.57 207.97 723.05 188.09 731.53 194.29 732.35 216.37 725.87 221.66 719.22 219.74 715.57 207.97"/><polygon class="cls-10" points="738.83 193.38 732.35 191.46 728.7 197.57 729.34 216.37 734.08 221.38 738.55 212.9 738.83 193.38"/><polygon class="cls-1" points="705.08 181.7 733.81 185.81 730.98 189.18 724.23 190.19 712.28 189.82 705.08 181.7"/><polygon class="cls-4" points="668.68 178.42 677.8 206.24 699.88 180.98 698.87 175.59 668.68 178.42"/><polygon class="cls-24" points="675.34 195.84 679.9 187.27 675.62 182.34 683.1 184.81 685.65 189.09 684.74 195.75 678.81 206.61 675.98 206.06 675.34 195.84"/><polygon class="cls-9" points="461.54 257.6 463.45 301.65 449.86 311.96 447.04 280.4 448.95 259.6 461.54 257.6"/><polygon class="cls-9" points="520.01 261.43 518.73 283.87 529.04 287.43 535.42 279.03 532.59 264.17 520.01 261.43"/><polygon class="cls-17" points="518.73 283.87 520.46 292.44 526.21 293.44 530.59 288.06 528.76 284.32 518.73 283.87"/><polygon class="cls-15" points="436 243.37 429.7 304.3 437 309.41 450.05 305.67 451.32 261.98 665.49 270.55 665.4 319.63 686.84 327.29 686.56 285.78 682.18 251.12 549.28 241.45 436 243.37"/><polygon class="cls-24" points="712.47 259.79 709.09 281.4 704.62 283.69 692.4 285.87 689.21 266.9 697.51 261.15 712.47 259.79"/><polygon class="cls-18" points="713.74 293.08 708.27 295.36 693.22 293.72 694.5 283.41 709.09 281.4 713.74 293.08"/><polygon class="cls-24" points="693.4 292.63 713.74 293.08 713.74 297.46 692.58 297.28 693.4 292.63"/><polygon class="cls-9" points="699.7 316.71 686.01 326.83 679.45 252.22 706.35 235.43 738.83 226.31 742.84 248.02 737 254.4 712.47 259.79 694.95 266.54 699.7 316.71"/><polygon class="cls-7" points="436 243.37 488.26 228.32 555.67 215.36 633.02 217.37 635.48 218.37 639.77 217.55 650.08 217.83 667.04 218.28 677.44 215.36 686.65 218.83 743.66 220.38 738.83 226.31 679.45 252.22 436 243.37"/><polygon class="cls-23" points="659.29 201.23 665.03 212.17 667.04 218.28 677.26 218.65 679.45 212.63 677.8 206.24 675.25 198.58 664.4 184.44 659.29 201.23"/><polygon class="cls-21" points="677.8 206.24 698.69 183.16 705.08 181.7 691.76 219.01 677.26 218.65 677.8 206.24"/><polygon class="cls-21" points="724.23 190.19 719.22 219.92 707.08 221.38 712.1 205.97 724.23 190.19"/><polygon class="cls-23" points="724.23 190.19 707.08 221.38 697.96 204.97 694.04 193.75 705.08 181.7 724.23 190.19"/><polygon class="cls-20" points="677.8 206.24 684.74 195.75 692.95 184.17 698.87 175.59 705.08 181.7 697.51 196.12 677.8 206.24"/><polygon class="cls-20" points="758.07 177.97 768.47 191.92 766.92 196.85 758.89 204.97 748.86 183.44 753.6 178.24 758.07 177.97"/><polygon class="cls-22" points="769.02 200.59 785.8 187.54 768.47 191.92 758.89 204.97 769.02 200.59"/><polygon class="cls-12" points="532.87 165.38 530.04 175.14 532.77 176.14 533.87 167.38 532.87 165.38"/><polygon class="cls-11" points="532.96 149.41 532.87 157.44 533.6 158.44 532.87 159.45 532.77 178.88 533.23 179.42 532.77 180.34 532.77 188.18 544.73 190.28 548.56 188 549.28 178.42 542.26 162.28 532.96 149.41"/><polygon class="cls-13" points="532.77 188.18 546.09 187.63 548.56 188 547.1 192.29 532.77 188.18"/><polygon class="cls-25" points="604.93 246.1 634.84 246.29 662.85 231.15 627.55 229.69 604.93 246.1"/><polygon class="cls-19" points="640.96 206.33 638.58 210.07 640.23 211.72 642.78 211.35 643.6 207.34 640.96 206.33"/><polygon class="cls-18" points="638.58 210.07 637.85 212.54 632.38 220.93 636.39 221.75 639.77 217.55 642.96 214.91 642.78 211.35 638.58 210.07"/><polygon class="cls-23" points="469.84 239.17 469.38 234.15 484.62 233.15 508.88 236.98 507.97 242.18 469.84 239.17"/><polygon class="cls-22" points="468.93 229.23 469.38 234.15 508.88 236.98 508.79 230.78 484.98 228.04 468.93 229.23"/><polygon class="cls-20" points="468.47 224.03 468.93 229.23 508.79 230.78 509.06 222.94 468.47 224.03"/><polygon class="cls-25" points="506.42 212.9 468.47 224.03 508.06 224.49 523.02 221.57 540.8 215 532.05 214.54 506.42 212.9"/><polygon class="cls-22" points="519.46 221.2 508.06 224.49 508.06 230.78 513.89 229.78 518.64 227.4 519.46 221.2"/><polygon class="cls-23" points="519 232.42 513.89 235.43 507.97 236.98 508.24 230.78 518.64 227.4 519 232.42"/><polygon class="cls-21" points="519 232.42 507.97 236.89 508.06 242.18 519.09 237.53 519 232.42"/><polygon class="cls-19" points="522.74 145.22 534.42 135.46 541.53 146.59 543.54 163.37 522.74 145.22"/><polygon class="cls-19" points="539.98 123.69 534.42 135.46 562.05 130.81 574.19 120.68 539.98 123.69"/><polygon class="cls-24" points="593.98 139.84 574.19 120.68 534.42 135.46 562.33 142.57 593.98 139.84"/><polygon class="cls-19" points="558.86 179.24 545.91 160 534.42 135.46 593.98 139.84 588.6 167.02 574.46 176.41 558.86 179.24"/><polygon class="cls-18" points="608.85 189.46 588.6 167.02 558.59 175.96 584.22 184.81 608.85 189.46"/><polygon class="cls-12" points="531.41 216.64 536.42 198.85 543.81 217.55 531.41 216.64"/><polygon class="cls-22" points="541.17 218.1 536.42 198.85 547.92 195.84 588.42 208.34 589.78 219.1 577.84 256.23 562.88 255.59 571.45 223.39 541.17 218.1"/><polygon class="cls-23" points="592.98 222.02 577.84 256.23 578.38 246.38 576.47 236.44 579.57 224.3 580.02 216 592.98 222.02"/><polygon class="cls-11" points="609.58 229.59 598.36 199.03 582.3 213.9 594.62 231.42 606.11 235.16 609.58 229.59"/><polygon class="cls-24" points="579.57 224.3 608.85 189.46 558.59 175.96 563.42 193.84 579.57 224.3"/><polygon class="cls-24" points="547.92 195.84 534.42 135.46 558.59 175.96 556.95 190.83 547.92 195.84"/><polygon class="cls-18" points="547.92 195.84 558.59 175.96 579.57 224.3 571.45 223.39 571 216.64 547.92 195.84"/><polygon class="cls-13" points="532.77 178.88 537.52 177.51 537.79 178.88 532.77 180.25 532.77 178.88"/><polygon class="cls-18" points="532.87 157.44 536.15 158.63 532.87 159.45 532.87 157.44"/><polygon class="cls-12" points="627 223.39 594.62 231.42 604.93 246.1 627.64 231.42 629.64 226.4 627 223.39"/><polygon class="cls-12" points="633.75 222.75 627 223.39 637.85 212.54 635.57 220.38 633.75 222.75"/><polygon class="cls-11" points="639.77 217.55 627 223.39 625.63 232.69 635.94 234.15 639.13 225.49 639.77 217.55"/><polygon class="cls-12" points="643.33 225.22 639.77 217.55 635.94 234.15 643.33 225.22"/><polygon class="cls-20" points="528.76 272.74 554.67 267.72 577.84 256.23 562.88 255.59 550.47 250.85 536.61 254.5 528.76 272.74"/><polygon class="cls-19" points="528.49 284.23 534.14 282.41 538.07 284.14 540.8 297.19 530.68 296.73 528.49 284.23"/><polygon class="cls-5" points="527.67 280.86 528.31 284.23 531.04 283.96 538.07 284.14 536.7 277.21 527.67 280.86"/><polygon class="cls-22" points="538.07 284.14 528.76 272.74 577.84 256.23 576.83 271.01 570.72 288.34 558.04 286.79 538.07 284.14"/><polygon class="cls-23" points="596.35 283.41 569.44 285.14 577.84 256.23 603.74 264.35 603.1 272.74 596.35 283.41"/><polygon class="cls-12" points="586.96 288.79 591.61 310.96 595.99 312.6 599.09 308.95 600.36 286.42 586.96 288.79"/><polygon class="cls-11" points="596.72 310.23 597.81 289.71 596.35 283.41 603.74 264.35 617.42 268.63 605.75 309.95 601.1 313.33 596.72 310.23"/><polygon class="cls-14" points="593.71 325.37 590.33 320.17 591.61 310.96 596.72 310.23 598.36 314.33 596.72 322.09 593.71 325.37"/><polygon class="cls-2" points="519.46 221.2 532.05 214.54 571 216.64 572.82 223.03 566.71 224.76 538.52 226.4 519.46 221.2"/><polygon class="cls-5" points="568.8 252.03 564.06 236.16 566.71 224.76 579.57 224.3 578.38 246.38 568.8 252.03"/><polygon class="cls-1" points="553.21 251.94 552.39 284.78 560.69 297.82 551.75 302.93 547.19 301.02 545.36 294.08 546.18 260.61 547.64 255.04 553.21 251.94"/><polygon class="cls-2" points="536.42 251.21 538.8 299.19 547.19 301.02 547.64 255.04 536.42 251.21"/><polygon class="cls-10" points="525.39 254.04 562.88 255.59 568.8 252.03 566.71 224.76 519.46 221.2 513.44 229.05 516.63 246.1 525.39 254.04"/><polygon class="cls-19" points="568.44 298.1 552.39 297.55 552.39 284.78 569.44 285.14 572.09 291.8 568.44 298.1"/><polygon class="cls-19" points="598.36 278.03 576.92 284.14 575.83 291.99 577.65 297.46 597.81 289.71 598.36 278.03"/><polygon class="cls-2" points="528.76 320.36 560.69 313.69 564.25 315.06 562.05 317.71 536.24 327.47 528.76 320.36"/><polygon class="cls-2" points="567.16 318.35 564.25 315.06 568.9 313.88 596.72 322.09 593.52 331.3 567.16 318.35"/><polygon class="cls-24" points="772.39 116.94 792.18 122.78 820.46 124.06 829.58 119.4 834.24 112.11 805.96 108.64 772.39 116.94"/><polygon class="cls-19" points="806.05 100.89 781.97 103.81 772.39 116.94 834.24 112.11 806.05 100.89"/><polygon class="cls-18" points="831.04 146.4 819.55 151.88 815.81 123.42 832.78 121.41 838.16 132.36 831.04 146.4"/><polygon class="cls-19" points="834.24 112.11 838.16 132.36 815.81 123.42 834.24 112.11"/><polygon class="cls-26" points="765 164.83 787.44 162.37 809.33 170.39 806.05 183.07 795.74 183.26 787.81 181.52 783.43 173.95 765 164.83"/><polygon class="cls-25" points="783.98 181.52 795.29 181.43 785.8 187.54 783.98 181.52"/><polygon class="cls-27" points="803.77 171.76 808.69 142.57 815.81 123.42 820.1 150.42 822.38 163.46 813.8 180.25 805.23 183.62 803.77 171.76"/><polygon class="cls-26" points="822.38 163.46 817.82 155.98 822.74 156.16 824.93 158.35 822.38 163.46"/><polygon class="cls-28" points="772.39 116.94 765 164.83 803.77 171.76 815.81 123.42 772.39 116.94"/><path class="cls-27" d="M787.81,139.11l1.91,9.3,6.39-10.4,8.85-4.1L799,131.72l-8.67,3.55Zm-13.87-11,4.29,4.83,2.37,13.41,4.29-8.21-.91-3.92-4.56-6.38Z"/><polygon class="cls-28" points="823.02 143.57 831.04 146.4 824.93 158.35 817.82 155.98 823.02 143.57"/><polygon class="cls-26" points="824.57 147.22 828.03 148.41 822.74 152.15 824.57 147.22"/><polygon class="cls-18" points="773.94 128.16 779.42 126.88 784.34 130.44 783.98 134.27 778.78 128.8 773.94 128.16"/><polygon class="cls-18" points="790.36 135.27 792 132.08 800.03 130.44 804.96 133.91 799.57 132.99 790.36 135.27"/><polygon class="cls-29" points="783.98 134.27 780.6 146.4 784.34 148.68 789.72 148.41 790.36 135.27 783.98 134.27"/><polygon class="cls-26" points="783.98 150.42 783.52 149.78 780.6 146.4 789.72 148.41 783.98 150.42"/><polygon class="cls-26" points="775.4 151.6 795.65 154.98 787.53 162.28 777.87 160.27 775.4 151.6"/><polygon class="cls-16" points="778.23 154.34 778.96 157.99 786.71 159.63 791.09 155.98 778.23 154.34"/><polygon class="cls-22" points="730.34 221.93 738.55 212.9 758.89 204.97 765.64 211.35 769.29 222.66 738.83 226.31 730.34 221.93"/><polygon class="cls-25" points="729.34 216.55 724.78 223.48 729.89 227.4 738.83 226.31 738.55 212.9 729.34 216.55"/><polygon class="cls-25" points="748.86 183.44 758.07 177.97 755.15 174.04 751.14 174.41 746.21 177.69 748.86 183.44"/><polygon class="cls-27" points="750.5 154.25 753.6 154.34 755.15 174.04 746.21 177.69 738.46 176.05 745.39 168.66 748.86 163.1 750.5 154.25"/><polygon class="cls-27" points="739.01 159.36 743.11 166.75 738.46 176.05 734.45 166.11 739.01 159.36"/><polygon class="cls-28" points="748.86 163.1 739.01 159.36 738.46 176.05 747.04 173.59 748.86 163.1"/><polygon class="cls-21" points="659.02 222.57 667.04 218.28 663.67 190.55 657.74 210.44 659.02 222.57"/><polygon class="cls-22" points="654.91 185.44 639.77 217.55 659.02 222.57 663.67 190.55 660.66 187.18 654.91 185.44"/><polygon class="cls-25" points="657.56 178.78 654.91 185.44 663.67 190.55 666.86 184.35 663.3 180.15 657.56 178.78"/><polygon class="cls-20" points="664.67 185.44 663.67 190.55 677.8 206.24 672.15 181.61 668.41 180.79 664.67 185.44"/><polygon class="cls-30" points="651.99 168.11 669.41 166.01 696.32 168.39 689.57 176.5 668.04 174.41 651.99 168.11"/><polygon class="cls-31" points="677.71 178.69 683.1 184.81 688.57 182.8 689.57 176.78 678.53 172.95 677.71 178.69"/><polygon class="cls-31" points="667.59 169.03 657.56 178.78 664.67 185.44 672.15 181.61 674.89 177.78 667.59 169.03"/><polygon class="cls-32" points="683.1 184.81 672.15 181.61 667.59 169.03 678.53 172.95 683.1 184.81"/><polygon class="cls-25" points="683.1 184.81 689.57 176.78 692.95 184.17 690.21 190.55 683.92 190.28 683.1 184.81"/><polygon class="cls-22" points="687.29 223.94 683.92 190.28 692.95 184.17 707.08 221.38 687.29 223.94"/><polygon class="cls-32" points="698.69 129.44 690.57 145.58 687.56 169.03 689.57 176.78 698.87 175.59 707.45 160.09 698.69 129.44"/><polygon class="cls-30" points="707.45 160.09 703.35 153.97 708 152.79 710.1 155.25 707.45 160.09"/><polygon class="cls-31" points="657.83 128.07 651.99 168.11 687.56 169.03 698.69 129.44 693.95 122.05 684.55 119.04 671.05 121.41 657.83 128.07"/><path class="cls-32" d="M662.66,133.36l-2.37.82,4.65,4.83,2.65,12.23,4-9.85-1.09-4.11-.92-1.82-6.93-2.1Zm12.23,4.1,2.55-2.09,7.75-2,6,1.37-7.84,6.2-8.76,10.58-1.73-10Z"/><polygon class="cls-18" points="664.4 132.08 660.29 134.18 669.6 135.37 664.4 132.08"/><polygon class="cls-18" points="677.44 135.37 684.83 132.26 691.21 134.73 677.44 135.37"/><path class="cls-33" d="M670.51,137.28l4.38.18-.28,14-3.83,1.19-3.19-1.46S670.33,137.28,670.51,137.28Z"/><polygon class="cls-30" points="671.05 154.52 674.61 151.51 667.59 151.24 671.05 154.52"/><polygon class="cls-30" points="664.94 158.81 680.36 156.53 680.45 158.35 665.31 160.27 664.94 158.81"/><polygon class="cls-28" points="729.89 227.4 715.2 227.13 709.46 221.93 720.31 213.17 729.34 216.37 729.89 227.4"/><polygon class="cls-27" points="706.08 229.41 715.2 227.13 720.31 213.17 707.08 221.38 706.08 229.41"/><polygon class="cls-24" points="739.01 303.57 731.62 305.49 722.77 302.38 712.37 259.79 727.88 257.96 740.38 262.34 743.02 269 739.92 276.94 739.01 303.57"/><polygon class="cls-19" points="799.48 262.7 765.73 271.46 740.1 270.28 712.37 259.79 763.27 240.17 782.79 251.21 799.48 262.7"/><polygon class="cls-24" points="811.52 255.96 800.94 262.89 794.47 262.25 763.27 240.17 802.95 249.57 811.52 255.96"/><polygon class="cls-23" points="772.3 213.63 763.27 240.17 811.52 255.96 814.26 238.81 802.58 211.62 772.3 213.63"/><polygon class="cls-5" points="795.47 241.72 797.29 219.92 806.14 218.47 815.44 229.05 805.59 244.19 795.47 241.72"/><polygon class="cls-10" points="782.7 278.85 786.17 271.83 781.7 264.8 749.5 269.09 746.67 274.65 750.23 279.76 782.7 278.85"/><polygon class="cls-1" points="823.65 236.44 823.38 270.73 817.18 275.57 816.08 246.56 817.73 237.44 823.65 236.44"/><polygon class="cls-19" points="811.34 271.37 795.65 275.29 795.65 275.29 791.82 268.91 794.38 262.25 811.52 255.96 811.34 271.37"/><polygon class="cls-5" points="795.65 275.29 810.61 280.13 817.18 275.57 818.27 239.72 812.71 238.44 810.34 268.36 795.65 275.29"/><polygon class="cls-10" points="834.6 225.85 830.22 232.33 809.61 245.1 805.59 244.19 808.42 225.22 808.69 219.38 813.44 215.36 825.48 205.97 835.69 203.41 838.89 207.7 834.6 225.85"/><polygon class="cls-20" points="758.89 204.97 769.29 222.66 802.58 211.62 802.58 193.84 795.29 181.43 758.89 204.97"/><polygon class="cls-22" points="820.46 205.97 813.8 180.25 795.29 181.43 802.58 211.62 820.46 205.97"/><polygon class="cls-24" points="716.48 114.02 704.07 119.77 698.69 129.44 703.35 153.97 712.1 137.46 716.48 114.02"/><polygon class="cls-18" points="724.87 138.83 710.1 155.25 707.72 140.75 716.48 114.02 724.87 138.83"/><polygon class="cls-19" points="676.44 118.77 698.51 129.71 716.48 114.02 692.58 115.02 676.44 118.77"/><polygon class="cls-24" points="649.35 116.3 657.92 128.16 716.48 114.02 680.18 111.38 649.35 116.3"/><polygon class="cls-19" points="684.1 100.25 649.35 116.3 716.48 114.02 684.1 100.25"/><polygon class="cls-31" points="707.72 140.75 715.48 142.85 710.1 155.25 703.35 153.97 707.72 140.75"/><polygon class="cls-30" points="709.64 143.76 707.72 149.14 712.28 144.49 709.64 143.76"/><polygon class="cls-2" points="824.2 201.77 835.69 203.41 813.44 215.36 802.58 211.62 824.2 201.77"/><path class="cls-3" d="M625.63,232.69l-9.49,17.15-34.84-1.27,4.84-11,12.67-.09,6.12,8.66ZM667,218.28l19.61.55.64,5.11,19.79-2.56-1,8,9.12-2.28,14.69.27,8.94-1.09-13.41,5.84L659,222.57Z"/><path class="cls-34" d="M777,132.63a2.37,2.37,0,1,1-2.37,2.37A2.38,2.38,0,0,1,777,132.63Z"/><path class="cls-34" d="M797.84,137.65a2.37,2.37,0,1,1-2.37,2.37A2.37,2.37,0,0,1,797.84,137.65Z"/><path class="cls-14" d="M664.53,137.77a1.91,1.91,0,1,1-2.08,1.74A1.91,1.91,0,0,1,664.53,137.77Z"/><path class="cls-14" d="M684.1,139.6a1.91,1.91,0,1,1-2.08,1.74A1.91,1.91,0,0,1,684.1,139.6Z"/><polygon class="cls-5" points="564.7 319.63 565.61 317.71 564.25 315.06 536.15 324.55 533.41 331.12 536.61 337.96 544.09 336.59 543.08 328.65 564.7 319.63"/><polygon class="cls-10" points="564.25 315.06 564.7 319.63 583.95 330.39 583.22 338.14 590.33 340.42 593.52 331.3 590.33 326.65 564.25 315.06"/><polygon class="cls-1" points="558.5 224.4 567.35 232.51 579.57 224.3 571 216.64 558.5 224.4"/><polygon class="cls-10" points="577.65 297.46 568.44 298.1 569.44 285.14 576.92 284.14 577.65 297.46"/><polygon class="cls-10" points="526.21 293.44 530.68 296.73 531.04 283.96 527.67 280.86 526.21 293.44"/><polygon class="cls-10" points="542.63 302.38 538.8 299.19 547.19 299.92 551.75 302.93 542.63 302.38"/><polygon class="cls-18" points="608.94 329.2 603.1 325.19 602.19 331.03 597.08 331.76 596.72 322.09 596.72 310.23 620.8 321.54 621.16 326.37 608.94 329.2"/><polygon class="cls-12" points="605.93 309.5 596.72 310.23 611.13 322.82 615.14 319.53 605.93 309.5"/><polygon class="cls-19" points="611.77 315.79 611.13 322.82 620.8 321.54 611.77 315.79"/><polygon class="cls-18" points="705.9 313.88 722.96 316.98 739.1 314.06 739.1 303.66 722.77 302.38 705.9 313.88"/><polygon class="cls-24" points="706.08 317.71 705.9 313.88 739.1 314.06 739.1 318.71 706.08 317.71"/><polygon class="cls-1" points="528.76 320.36 536.15 324.55 536.61 337.96 527.49 335.86 528.76 320.36"/><polygon class="cls-1" points="590.33 340.42 590.33 326.65 596.72 322.09 599 336.96 590.33 340.42"/><polygon class="cls-5" points="781.7 264.8 782.79 278.85 795.65 275.29 794.47 262.25 781.7 264.8"/><polygon class="cls-1" points="797.29 219.92 802.58 211.62 815.08 214.45 808.42 225.22 797.29 219.92"/><polygon class="cls-5" points="749.5 269.09 750.23 279.76 739.92 276.94 740.1 270.28 749.5 269.09"/><polygon class="cls-5" points="728.7 197.57 724.23 190.19 733.81 185.81 738.83 193.38 728.7 197.57"/><polygon class="cls-9" points="429.7 304.3 433.26 316.43 449.68 318.35 452.42 310.41 450.05 305.67 429.7 304.3"/><polygon class="cls-17" points="463.45 301.65 450.05 305.67 449.68 318.35 460.9 313.79 463.45 301.65"/><polygon class="cls-9" points="665.4 319.63 670.05 334.13 685.1 335.95 688.29 326.65 685.56 320.99 665.4 319.63"/><polygon class="cls-17" points="699.7 316.71 685.56 320.99 685.1 335.95 697.41 330.85 699.7 316.71"/><path class="cls-23" d="M72.33,170.49l5.2-.1.46,4.38-5.2.18ZM87,170.12l116.48-2.83.63,3.56L87.47,174.5ZM70.6,154h5l.54,4.38-5.1.09Zm14.68-.09L202.4,153l.64,3.56-117.3,1.73ZM68.87,137.46h4.92l.46,4.47H69.32Zm14.68.19,118,1.09.64,3.47L84,141.93Z"/><polygon class="cls-15" points="37.31 46.7 25.08 62.21 45.61 68.87 52.81 55.64 37.31 46.7"/><polygon class="cls-15" points="40.23 225.4 53.36 240.54 66.22 227.4 55.46 212.99 40.23 225.4"/><polygon class="cls-4" points="369.23 28.19 481.61 11.49 614.59 32.66 508.97 46.89 369.23 28.19"/><path class="cls-16" d="M415.29,26.45l36,6.84,22.08-4.92-32.57-5.11Zm79.09.64,25.17-4.56-38-4.47-15.78,2Z"/><path class="cls-16" d="M478.32,35l32.38,6.56,18.88-4.28-32.65-5.2Zm71.24,1.09,25.72-5.84-35.66-4.74-21.8,3.38Z"/><polygon class="cls-2" points="415.29 26.45 451.5 31.2 473.4 28.37 482.7 29.92 450.96 34.21 402.89 28.09 415.29 26.45"/><polygon class="cls-2" points="465.73 20.07 494.83 25.45 519.55 22.53 527.49 23.72 494.38 28.28 453.33 21.62 465.73 20.07"/><polygon class="cls-2" points="478.32 35.03 510.52 39.86 529.58 37.31 538.16 38.68 509.97 42.51 467.74 36.94 478.32 35.03"/><polygon class="cls-2" points="517.82 28.92 550.02 34.12 575.28 30.28 588.05 31.93 549.28 37.22 507.78 30.47 517.82 28.92"/><polygon class="cls-15" points="183.7 247.38 185.71 268.54 197.66 270.28 202.04 257.69 200.12 247.38 194.65 247.11 183.7 247.38"/><polygon class="cls-15" points="213.44 248.2 204.77 248.48 205.05 252.03 210.52 251.67 211.43 261.88 205.41 261.98 205.69 265.17 212.71 265.35 215.26 263.53 213.44 248.2"/><polygon class="cls-9" points="206.96 246.1 200.12 247.38 198.84 248.66 197.66 270.28 207.78 268.18 206.96 246.1"/><polygon class="cls-8" points="195.01 244.55 183.7 247.38 198.94 250.03 206.96 246.1 195.01 244.55"/><polygon class="cls-9" points="195.2 245.74 189.18 247.2 198.84 248.66 202.58 246.47 195.2 245.74"/><polygon class="cls-4" points="772.94 88.66 797.93 80.64 819 83.37 841.72 76.81 841.35 91.31 819.46 90.58 790.91 91.58 772.94 88.66"/><polygon class="cls-2" points="772.94 88.66 793.74 90.31 826.57 88.3 841.35 91.31 841.17 99.97 832.96 102.8 804.04 92.86 789.27 95.41 772.94 88.66"/><polygon class="cls-4" points="566.71 111.1 598.18 101.8 615.23 106.63 626.45 103.08 635.76 107 616.51 114.02 605.93 112.75 586.04 115.94 566.71 111.1"/><polygon class="cls-2" points="566.71 111.1 585.68 113.38 605.93 110.19 615.23 112.11 635.76 107 616.24 117.21 598.18 115.66 587.6 118.49 566.71 111.1"/><polygon class="cls-35" points="337.85 94.78 339.95 114.75 346.06 114.48 343.33 94.23 337.85 94.78"/><polygon class="cls-23" points="76.98 78.99 66.86 89.39 68.87 112.02 78.44 123.33 105.53 123.51 111.74 114.39 110.19 89.76 101.7 80.55 76.98 78.99"/><polygon class="cls-8" points="78.9 83.92 72.52 90.67 73.97 111.65 81.55 118.86 102.89 118.77 106.44 112.47 105.63 93.41 98.87 85.2 78.9 83.92"/><polygon class="cls-23" points="83.1 96.51 79.45 100.98 89.75 110.92 101.61 94.96 98.69 91.31 89.57 103.08 83.1 96.51"/><polygon class="cls-23" points="151.23 83.28 136 115.39 140.83 122.78 172.94 124.06 177.5 118.31 159.62 83.56 151.23 83.28"/><polygon class="cls-8" points="157.16 87.75 154.61 87.48 142.02 114.11 143.11 117.67 169.56 119.22 172.03 116.67 157.16 87.75"/><path class="cls-23" d="M154.33,107.64,153,98.42l6.57.46-.91,9.3S154.33,107.54,154.33,107.64Z"/><polygon class="cls-23" points="153.51 114.2 154.24 110.46 158.71 110.65 159.53 114.84 153.51 114.2"/><polygon class="cls-23" points="202.49 97.6 203.22 106.91 206.87 111.19 201.03 117.85 201.67 124.33 218.64 124.69 217.91 118.22 211.07 111.65 213.99 108.18 213.35 97.33 202.49 97.6"/><polygon class="cls-23" points="217.18 90.67 217.72 98.52 220.83 102.07 215.99 107.64 216.72 114.11 230.68 114.57 230.04 107.91 224.29 102.44 226.75 99.52 226.67 91.31 217.18 90.67"/><polygon class="cls-23" points="231.86 105.17 232.32 112.02 235.06 115.21 230.77 120.13 231.23 124.88 243.72 125.15 243.18 120.31 238.16 115.48 240.35 112.93 240.44 105.9 231.86 105.17"/><path class="cls-23" d="M74.07,186.9l5.19-.18.55,4.38-5.29.27Zm14.68-.64,64.31-2.46.63,3.47-64.48,3.37Z"/><path class="cls-1" d="M627.46,160.27l15.68-.64-.09,5.11-15.69.64Zm0,31.56,15.68-.73-.09,5.2-15.69.64Zm0-10.58,15.68-.64-.09,5.11-15.69.64Zm0-10.49,15.68-.64-.09,5.11-15.69.64Z"/></g></svg>