<svg id="ILLUSTRATION" xmlns="http://www.w3.org/2000/svg" viewBox="0 0 900 350"><defs><style>.cls-1,.cls-36{fill:#cecdcc;}.cls-2,.cls-35{fill:#ebebea;}.cls-12,.cls-22,.cls-3,.cls-32{fill:#2b2b2b;}.cls-12,.cls-3{opacity:0.1;}.cls-4{fill:#74cee4;}.cls-34,.cls-5{fill:#5ebfd8;}.cls-33,.cls-6{fill:#3a9fb9;}.cls-7{fill:#92d5d5;}.cls-30,.cls-8{fill:#50a8a9;}.cls-29,.cls-9{fill:#72cbcb;}.cls-10{fill:#8e8e8e;}.cls-10,.cls-11,.cls-12,.cls-24,.cls-25,.cls-26,.cls-27,.cls-28,.cls-29,.cls-30,.cls-31,.cls-32,.cls-33,.cls-34,.cls-35,.cls-36,.cls-37,.cls-40,.cls-41{fill-rule:evenodd;}.cls-11,.cls-38{fill:#a2a1a1;}.cls-13,.cls-37{fill:#dcdcdb;}.cls-14,.cls-27{fill:#369395;}.cls-15{fill:#6f7273;}.cls-16{fill:#4f5353;}.cls-17{fill:#848585;}.cls-18,.cls-28{fill:#8a6651;}.cls-19{fill:#a67e62;}.cls-20{fill:#be9b82;}.cls-21{fill:#c8ac9a;}.cls-23{fill:#318ea5;}.cls-24{fill:#debca4;}.cls-25{fill:#c2977a;}.cls-26{fill:#28788b;}.cls-31{fill:#e8c9b6;}.cls-39,.cls-41{fill:#c3c3c3;}.cls-40{fill:#1d7678;}</style></defs><title>sentinels_Logistician_ISTJ_weaknesses</title><polygon class="cls-1" points="77.25 87.5 265.19 31.16 899.63 0.13 889.58 332.17 300.25 257.5 77.25 87.5"/><polygon class="cls-2" points="0 0 265.19 31.16 262.25 270.83 11.25 300.5 0 0"/><g id="bin"><polygon class="cls-3" points="11.25 300.5 21.58 258.5 31.61 247.46 82 250.25 66.15 311.25 46 312.5 11.25 300.5"/><polygon class="cls-4" points="46.58 236.92 47.92 231.25 78.25 228.58 94.92 232.25 58.58 257.58 46.58 236.92"/><polygon class="cls-5" points="61.58 238.92 69.92 233.25 94.92 232.25 110.7 248.82 60.25 275.58 61.58 238.92"/><polygon class="cls-6" points="44.58 275.92 31.61 247.46 47.92 231.25 69.92 233.25 65.73 252.22 44.58 275.92"/><polygon class="cls-6" points="83.66 274.13 65.73 252.22 31.61 247.46 37.88 305.63 66.15 311.25 83.66 274.13"/><polygon class="cls-6" points="65.73 252.22 110.7 248.82 102.88 308.25 66.15 311.25 65.73 252.22"/><polygon class="cls-6" points="75.58 240.17 74.08 248.08 99.08 246.17 94.42 239.33 75.58 240.17"/></g><polygon class="cls-3" points="84.58 109.17 60.75 85.5 56.58 194.17 148.58 191.83 143.25 124.83 84.58 109.17"/><polygon class="cls-7" points="61.08 94.83 63.08 190.33 152.92 187.17 151.08 99.33 96.43 89.35 61.08 94.83"/><polygon class="cls-8" points="60.75 85.5 61.08 94.83 151.08 99.33 150.92 92.17 60.75 85.5"/><polygon class="cls-9" points="84.89 105.59 131.15 108.22 130.78 113.4 85.18 110.92 84.89 105.59"/><polygon class="cls-9" points="73.75 121.33 138.08 122.67 138.08 164.67 74.42 164.83 73.75 121.33"/><polygon class="cls-9" points="84.75 173 130.92 172.67 130.58 174.83 85.25 175.33 84.75 173"/><polygon class="cls-9" points="91.92 177.88 122.04 177.67 121.92 180.17 92.08 180.33 91.92 177.88"/><polygon class="cls-7" points="86.75 118.67 87.25 169.33 92.08 169 91.08 118.33 103.58 118.67 103.75 167.83 107.92 168.17 108.58 118.83 120.42 119.33 120.08 166.17 125.08 166.5 125.25 118 89.58 113.83 86.75 118.67"/><polygon class="cls-7" points="70.25 132.67 142.42 134.5 142.25 138 71.25 136.33 71.58 149.17 142.42 148.5 141.92 152.5 68.08 154 70.25 132.67"/><polygon class="cls-10" points="224.64 174.51 194.65 156.83 182.03 164.09 197.81 245.53 226.85 250.9 224.64 174.51"/><polygon class="cls-11" points="194.65 156.83 211.07 245.85 281.15 238.91 263.78 160.62 203.18 155.25 194.65 156.83"/><path class="cls-12" d="M221,159.28l-17.8-4,11.53,44.27-.59,25.81,49.71,5s7-31.49-2.84-35.63S221,159.28,221,159.28Z"/><polygon class="cls-3" points="357.06 226.67 393.68 226.8 356.8 239.57 351.64 236.73 345.07 237.5 316.96 226.16 346.74 226.16 357.06 226.67"/><polygon class="cls-3" points="277.08 218.82 289.92 217.67 275.92 231.83 279.69 236.46 214.25 222.33 236.42 221.33 277.08 218.82"/><polygon class="cls-1" points="352.03 220.74 393.68 226.8 360.8 236.09 330.5 229.12 352.03 220.74"/><polygon class="cls-13" points="382.33 227.83 351 234.79 316.96 226.16 352.03 220.74 382.33 227.83"/><polygon class="cls-2" points="317.35 221.13 347.78 232.73 377.82 224.22 347.39 217.26 317.35 221.13"/><polygon class="cls-1" points="350.55 228.38 362.09 225.51 359.74 224.87 349.13 227.74 350.55 228.38"/><polygon class="cls-1" points="342.2 227.16 360.54 221.93 359.35 221.64 340.33 226.57 342.2 227.16"/><polygon class="cls-1" points="337.81 225.41 355.47 220.76 353.17 220.14 335.94 224.83 337.81 225.41"/><polygon class="cls-1" points="333.14 224.06 350.91 219.47 348.76 218.89 331.27 223.48 333.14 224.06"/><g id="_2nd_character" data-name="2nd character"><path class="cls-9" d="M500.7,166.58l10.83,6.19-27.75,31.36-21.24-21.81s18.31-25,20.37-23.73S500.7,166.58,500.7,166.58Z"/><polygon class="cls-14" points="484.45 148.53 488.36 124.48 511.53 172.77 487.28 169.42 484.45 148.53"/><polygon class="cls-9" points="409.67 159.1 402.45 166.84 419.47 199.28 425.14 162.46 409.67 159.1"/><polygon class="cls-14" points="421.79 144.41 414.36 126.36 402.45 166.84 412.42 164.95 421.79 144.41"/><polygon class="cls-15" points="448.53 209.51 484.05 213.01 479.48 287.27 449.07 277.86 415.17 262.26 419.47 199.28 448.53 209.51"/><polygon class="cls-16" points="427.01 183.14 419.47 199.28 441.54 226.19 484.05 213.01 483.78 204.13 427.01 183.14"/><polygon class="cls-8" points="426.74 153.27 412.48 164.57 419.47 199.28 483.78 204.13 487.28 169.42 426.74 153.27"/><polygon class="cls-9" points="436.69 118.29 414.36 126.36 412.48 164.57 487.28 169.42 488.36 124.48 476.79 120.89 436.69 118.29"/><polygon class="cls-2" points="447.01 133.81 425.48 144.57 430.86 116.59 461.9 113.18 471.5 110.5 476.79 120.89 469.79 148.88 447.01 133.81"/><polygon class="cls-15" points="452.39 30.12 461.81 28.24 472.84 60.62 452.39 87.53 438.4 51.83 452.39 30.12"/><polygon class="cls-16" points="419.56 38.1 428.71 22.86 461.81 28.24 447.36 54.76 431.94 50.84 419.56 38.1"/><polygon class="cls-15" points="404.94 45.64 401.44 25.82 428.71 22.86 435.23 47.69 435.17 58.2 404.04 54.43 404.94 45.64"/><polygon class="cls-17" points="379.92 47.52 380.45 38.64 401.44 25.82 417.14 52.63 392.02 54.61 379.92 47.52"/><polygon class="cls-15" points="398.48 63.13 376.01 50.62 380.45 38.64 403.6 50.21 398.48 63.13"/><polygon class="cls-16" points="397.14 54.25 386.11 50.3 376.01 50.62 384.4 69.05 397.14 54.25"/><path class="cls-18" d="M413,106.37l34,27.44,23.08-21.94s-7.71-11.32-8.24-11.26Z"/><polygon class="cls-18" points="471.2 73.23 472.55 77.73 472.14 86 456.62 78.94 471.2 73.23"/><polygon class="cls-19" points="458.32 76.21 459.83 72.95 458.56 62.19 472.84 60.62 472.55 77.73 463.46 78.54 458.32 76.21"/><polygon class="cls-19" points="439.17 96.13 445.01 113.84 460.5 113.41 447.01 133.81 471.5 110.5 472.14 86 463.46 78.54 459.38 67.43 450.7 68.96 447.36 54.76 435.23 47.69 439.17 96.13"/><polygon class="cls-20" points="386.11 50.3 384.4 69.05 395.31 120.11 445.01 113.84 435.23 47.69 386.11 50.3"/><polygon class="cls-19" points="414.3 66.7 425.38 69.19 415.01 89.84 410.56 87.26 406.52 91.19 390.12 73.29 399.42 69.73 402.46 71.3 408.4 72.54 412.24 70.52 414.3 66.7"/><polygon class="cls-18" points="409.68 85.81 404.26 91.19 410.95 94.24 415.01 89.84 409.68 85.81"/><polygon class="cls-21" points="402.46 71.3 404.26 91.19 415.01 89.84 412.24 70.52 402.46 71.3"/><path class="cls-22" d="M400.22,79.58a3.27,3.27,0,1,1-3.93-2.45A3.28,3.28,0,0,1,400.22,79.58Z"/><path class="cls-22" d="M422.2,77a3.27,3.27,0,1,1-3.93-2.45A3.28,3.28,0,0,1,422.2,77Z"/><polygon class="cls-16" points="413.79 64.22 412.24 70.52 425.38 69.19 413.79 64.22"/><polygon class="cls-16" points="397.42 65.96 402.46 71.3 389.03 73.36 397.42 65.96"/><polygon class="cls-18" points="404.59 101.71 422.82 99.22 424.25 102.03 404.27 104.65 404.59 101.71"/><polygon class="cls-18" points="468.34 65 463.6 66.26 465.56 74.72 468.34 65"/><polygon class="cls-23" points="419.04 291.83 411.26 298.02 411.35 303.26 443.71 303.31 443.8 298.02 419.04 291.83"/><polygon class="cls-6" points="422.13 277.05 411.26 298.02 443.8 298.02 443.45 276.36 422.13 277.05"/></g><polygon class="cls-24" points="271.99 175.61 277.24 156.77 317.21 152.65 321 168.27 299.69 182.73 271.99 175.61"/><polygon class="cls-25" points="300.4 154.54 317.21 152.65 321 168.27 311.29 174.43 300.4 154.54"/><polygon class="cls-26" points="206.52 90.8 210.31 129.3 256.17 174.65 247.07 143.04 237.29 88.56 206.52 90.8"/><path class="cls-27" d="M206.26,90.81l-8.33,1.06,12.37,37.35L215.12,110s0-19.85,0-18.59C215.25,92.1,210.93,91.53,206.26,90.81Z"/><polygon class="cls-27" points="210.31 129.3 203.5 155.25 225.26 177.9 229.89 180.83 255.58 174.83 234.56 142.61 210.31 129.3"/><polygon class="cls-26" points="203.5 155.25 229.71 200.62 235.64 190.81 248.87 176.45 250.41 173.87 203.5 155.25"/><polygon class="cls-26" points="296.67 75.53 293.03 84.73 267.92 71.13 282.34 60.36 296.67 75.53"/><polygon class="cls-24" points="293.03 84.73 303.95 136.72 277.34 144.28 270.33 150.88 263.95 168.45 250.31 173.45 243.22 121.78 235.23 97.06 253.95 74 275.77 70.92 293.03 84.73"/><polygon class="cls-28" points="241.79 92.84 275.76 70.92 282.42 76.25 241.79 92.84"/><polygon class="cls-25" points="270.33 150.88 265.93 164.26 255.24 178.06 250.41 173.87 230.01 133.35 233.93 118.47 239.03 116.56 235.23 97.07 241.79 92.84 256.72 150.4 270.33 150.88"/><polygon class="cls-28" points="265.93 164.26 249.34 152.61 277.34 144.28 265.93 164.26"/><polygon class="cls-24" points="238.18 129.34 230.01 133.35 221.34 118.38 232.5 112.26 238.18 129.34"/><polygon class="cls-29" points="215.13 110.09 291.05 61.06 265.19 31.16 215.51 86.01 215.13 110.09"/><polygon class="cls-30" points="265.19 31.16 197.93 91.87 215.13 110.09 265.19 31.16"/><polygon class="cls-25" points="258.72 96.44 248.32 98.27 261.57 103.22 274.45 117.83 270.86 103.06 266.65 96.92 258.72 96.44"/><polygon class="cls-25" points="282.64 90.96 276.8 94.21 275.4 108.94 279.07 116.87 284.16 97.9 289.99 87.7 282.64 90.96"/><polygon class="cls-31" points="266.65 96.92 274.45 117.84 279.07 116.87 276.8 94.21 266.65 96.92"/><polygon class="cls-27" points="248.32 98.27 262.05 93.3 266.65 96.92 248.32 98.27"/><polygon class="cls-27" points="276.8 94.21 278.62 88.88 289.99 87.7 276.8 94.21"/><polygon class="cls-28" points="277.12 119.62 279.07 116.87 274.45 117.84 277.12 119.62"/><path class="cls-28" d="M226.6,119.42c.34,0,4.18-2,4.18-2l2.42,8.72Z"/><polygon class="cls-28" points="238.18 129.34 234.56 142.61 230.01 133.35 238.18 129.34"/><path class="cls-32" d="M265.56,104.28a3.24,3.24,0,0,1-3.21,3.37,3.28,3.28,0,0,1-3.37-3.2,3.29,3.29,0,0,1,6.58-.17Z"/><path class="cls-32" d="M287,98.84a3.25,3.25,0,0,1-3.21,3.38A3.16,3.16,0,0,1,280.55,99a3.21,3.21,0,0,1,3-3.37A3.24,3.24,0,0,1,287,98.84Z"/><polygon class="cls-29" points="289.03 127.83 280.16 131.81 266.75 132.74 279.12 127.86 289.03 127.83"/><polygon class="cls-26" points="289.03 127.83 278.21 124.3 266.75 132.74 279.12 127.86 289.03 127.83"/><polygon class="cls-33" points="248.09 218.98 265.5 250.41 286.69 227.98 299.69 182.73 273.23 164.41 240.69 202.28 248.09 218.98"/><polygon class="cls-24" points="277.24 156.77 238.4 169.66 231.04 184.04 240.69 202.28 268.17 172.22 277.24 156.77"/><polygon class="cls-34" points="299.69 182.73 277.24 156.77 269.59 159.31 240.69 202.28 299.69 182.73"/><polygon class="cls-27" points="266.93 282.91 281.16 273.05 272.28 235.63 233.93 236.18 247.4 282.82 266.93 282.91"/><polygon class="cls-34" points="287.88 253.02 286.69 227.98 248.09 218.98 233.93 236.18 274.13 266.24 287.88 253.02"/><polygon class="cls-33" points="298.12 282.91 273.92 275.58 274.13 266.24 286.69 227.98 298.12 282.91"/><polygon class="cls-26" points="298.12 282.91 266.93 282.91 274.13 266.24 298.12 282.91"/><polygon class="cls-25" points="212.57 213.14 234.59 213.02 238.85 205.44 240.69 202.28 238.4 169.66 212.57 213.14"/><polygon class="cls-35" points="306.06 119.15 313.12 182.73 357.35 177.85 352.7 114.09 306.06 119.15"/><polygon class="cls-24" points="330.04 123.22 317.07 117.76 326.99 112.95 340.48 115.22 330.04 123.22"/><polygon class="cls-25" points="317.05 117.76 323.81 127.35 338.08 126.7 340.48 115.22 317.05 117.76"/><path class="cls-36" d="M320.13,137.76l-2.38-1.22,2-1.6L318,132l-3.51.41,1,7.66,1.56-.23-.26-2.08,2.33,1.53Zm-3.53-2.42-.28-1.78.74-.13.92,1.17Z"/><polygon class="cls-36" points="322.1 131.97 321.99 138.61 326.52 138.87 327.3 132.06 325.55 132.04 325.28 137.32 323.75 137.4 323.8 132.22 322.1 131.97"/><polygon class="cls-36" points="329.34 131.7 330.8 138.19 335.49 137.08 334.88 135.08 331.83 135.94 330.89 131.32 329.34 131.7"/><polygon class="cls-36" points="338.58 130.25 337.63 136.42 341.68 137.56 341.98 136.17 339.71 135.59 340.02 134.5 341.49 134.84 342.03 133.64 340.37 133 340.57 132.04 342.5 132.52 342.78 131.23 338.58 130.25"/><polygon class="cls-36" points="348.86 130.21 344.78 130.8 343.83 133.63 347.35 134.08 347.42 134.97 344.37 135.29 344.27 137 349.01 136.59 348.98 133.21 346.02 132.65 346.36 131.74 349.25 131.67 348.86 130.21"/><polygon class="cls-37" points="313.78 145.37 314.07 147.56 351.19 144.18 351.07 141.7 313.78 145.37"/><polygon class="cls-37" points="314.17 150.65 314.47 152.84 351.58 149.47 351.46 146.98 314.17 150.65"/><polygon class="cls-37" points="314.57 155.94 314.86 158.13 351.98 154.76 351.86 152.27 314.57 155.94"/><polygon class="cls-37" points="314.96 161.23 315.26 163.42 352.37 160.04 352.25 157.56 314.96 161.23"/><polygon class="cls-37" points="315.36 166.52 315.65 168.71 352.76 165.33 352.65 162.85 315.36 166.52"/><polygon class="cls-37" points="315.75 171.8 316.05 173.99 353.16 170.62 353.04 168.13 315.75 171.8"/><polygon class="cls-35" points="318.16 142.78 321.79 175.77 319.74 176.01 316.34 142.54 318.16 142.78"/><polygon class="cls-13" points="536.25 70.83 832.58 64.83 829.58 226.83 535.58 204.83 536.25 70.83"/><polygon class="cls-38" points="583 151.75 593.25 137.5 633.75 147.5 629 207.25 585.5 199.5 583 151.75"/><polygon class="cls-38" points="715.75 140 746.25 121 773 134 771.5 177.75 730.25 177.25 715.75 140"/><polygon class="cls-38" points="743.25 172.25 761.08 157.67 784.25 170.25 786.75 226.75 750 222.25 743.25 172.25"/><polygon class="cls-38" points="631.58 130.83 670.25 101.17 701 112 700.92 120.5 710 196.75 664.5 215.5 631.58 130.83"/><polygon class="cls-39" points="779.25 220.83 781.92 110.5 837.25 111.5 834.58 224.5 779.25 220.83"/><polygon class="cls-39" points="683.92 211.5 685.25 153.83 699.92 154.5 700.92 120.5 746.25 121 745 156.75 761.08 157.67 759.58 222.83 683.92 211.5"/><polygon class="cls-39" points="608.25 210.5 609.92 101.83 670.25 101.17 666.92 214.17 608.25 210.5"/><polygon class="cls-39" points="542.92 202.17 542.38 136.5 593.25 137.5 592.58 206.17 542.92 202.17"/><polygon class="cls-38" points="618.58 113.25 616.5 193 657.5 196.25 659.83 113.08 618.58 113.25"/><polygon class="cls-39" points="625.88 109 623.38 196.88 626.75 196.88 629.13 109.88 636.75 111 633.88 197.13 638 197.38 640.88 107.5 625.88 109"/><path class="cls-39" d="M647.75,111.12l-2.5,86.38,3.37.12,3-85.5c0-.73-1.36-1.48-2.09-1.45Z"/><polygon class="cls-39" points="616.38 120.63 661.13 120.25 660.88 126.75 616.88 126.38 617.25 133.38 660.5 134 660.58 142.67 616.92 140.33 616 148.38 660.88 150.88 660.63 159.25 616 156.5 615.75 164.13 659.38 166.75 659.13 174.25 615.63 170.75 615.38 178.13 658.75 181.88 658.75 188.63 615.13 185.25 613.13 132 616.38 120.63"/><polygon class="cls-38" points="540.63 146.38 585.38 147.63 584.5 199.38 539.5 197.75 540.63 146.38"/><polygon class="cls-39" points="536.63 154.75 588.38 156.6 587.5 163.5 541.13 160.63 541.38 169.11 586.75 171.53 586.38 179.5 541 177.36 541 185.61 587.5 188.88 586.75 198.13 537.88 193.15 536.63 154.75"/><polygon class="cls-39" points="543.13 143.13 542.25 194 549.13 194.5 549.75 142.63 563.38 143.88 563 189.13 567.88 189.63 568.63 141.13 544.38 139.88 543.13 143.13"/><polygon class="cls-39" points="574.88 143.88 574.13 191.25 577.38 191.25 578.13 144.38 574.88 143.88"/><polygon class="cls-39" points="554.75 143.5 554 190.88 557.25 190.88 558 144 554.75 143.5"/><polygon class="cls-38" points="691.75 162.33 752.75 165 752.42 171.5 691.42 167.67 691.75 162.33"/><polygon class="cls-38" points="706.42 148.5 738.58 150 738.25 156.33 706.08 154.5 706.42 148.5"/><polygon class="cls-38" points="706.69 137.81 738.75 138.67 738.42 145 706.69 143.63 706.69 137.81"/><polygon class="cls-38" points="707.25 126.69 739.25 127.67 738.92 134 706.81 132.94 707.25 126.69"/><polygon class="cls-38" points="691.42 175.83 752.42 178.5 752.08 185 691.08 181.17 691.42 175.83"/><polygon class="cls-38" points="690.75 188.83 751.75 191.5 751.42 198 690.42 194.17 690.75 188.83"/><polygon class="cls-39" points="718.88 124.63 717.38 158.13 724.25 158.13 725.25 124.75 718.88 124.63"/><polygon class="cls-39" points="703.48 159.38 702.13 197.75 708.35 197.75 709.26 159.52 703.48 159.38"/><polygon class="cls-39" points="720.47 161 719.11 199.38 725.33 199.38 726.24 161.14 720.47 161"/><polygon class="cls-39" points="735.98 162.13 734.62 200.5 740.84 200.5 741.75 162.27 735.98 162.13"/><polygon class="cls-38" points="794.42 122.33 791.58 204.67 815.58 206.83 818.42 123.17 794.42 122.33"/><polygon class="cls-39" points="803.92 120.33 800.58 208.17 805.25 208.33 808.58 119.5 803.92 120.33"/><polygon class="cls-39" points="790.75 130.67 820.58 131.35 820.42 136.75 792.08 135.77 791.42 145 818.58 145.29 818.58 151.38 791.42 150 790.75 158.84 817.42 158.94 817.42 164.33 786.42 162.86 790.75 130.67"/><polygon class="cls-39" points="790 170.42 819.83 171.1 819.67 176.5 791.33 175.52 790.67 184.75 818.25 186.75 817.83 191.13 790.67 189.75 790 198.59 816.75 200.5 817 209.5 785 206.25 790 170.42"/><polygon class="cls-39" points="572.67 94.08 612.92 92.58 579.67 107.08 551.67 102.83 538.42 105.33 537.42 92.08 572.67 94.08"/><polygon class="cls-1" points="539.42 88.08 565.92 85.33 595.67 91.08 612.92 92.58 574.67 99.33 537.17 94.08 539.42 88.08"/><path class="cls-5" d="M527,59.25l-.75,152.25,323.5,29,3.5-191ZM823.75,214.5l-278.17-23V78.17l281.34-5.34Z"/><polygon class="cls-39" points="755.5 90.25 740.25 88.75 700.25 88.75 732.75 94 761.75 104 813.25 89.25 766 93.75 755.5 90.25"/><polygon class="cls-1" points="700.25 88.75 744 86.25 768.75 89 813.25 89.25 765.25 97.25 732.75 91 700.25 88.75"/><polygon class="cls-3" points="744.92 305.83 612.25 300.17 794.75 339.5 830.25 341.5 870.58 329.5 843.58 259.5 744.92 305.83"/><polygon class="cls-14" points="815.25 260.5 843.58 259.5 844.58 330.5 794.75 339.5 766.92 261.17 815.25 260.5"/><polygon class="cls-8" points="681.58 246.17 594.92 248.83 593.58 311.5 794.75 339.5 794.92 271.5 681.58 246.17"/><polygon class="cls-7" points="672.92 240.17 596.92 248.83 794.92 271.5 843.58 259.5 672.92 240.17"/><polygon class="cls-7" points="610.58 265.17 609.25 300.5 772.58 324.17 774.25 285.83 610.58 265.17"/><polygon class="cls-8" points="679.58 270.17 678.92 317.17 691.58 318.17 692.58 270.83 679.58 270.17"/><ellipse class="cls-8" cx="665.63" cy="291.5" rx="4" ry="5.5"/><ellipse class="cls-8" cx="706.88" cy="296.63" rx="4" ry="5.5"/><polygon class="cls-3" points="712.38 253.75 734.08 262.07 738.38 262.58 760.75 260.25 768.58 265.83 789.75 265.5 815.42 256.5 802.08 236.33 758.75 241.25 712.38 253.75"/><polygon class="cls-8" points="705.5 256.5 704.13 252.16 739.75 246.51 767.25 248.75 737.88 259.41 705.5 256.5"/><polygon class="cls-1" points="741.92 256.23 734.08 262.07 703.88 258.81 704.13 252.16 734.92 255.34 741.92 256.23"/><polygon class="cls-13" points="734.08 262.07 767.58 255.04 767.25 248.75 734.92 255.34 734.08 262.07"/><polygon class="cls-8" points="705.5 248.64 704.13 244.31 739.75 238.66 767.25 240.9 737.88 251.56 705.5 248.64"/><polygon class="cls-1" points="741.92 248.38 734.75 254.13 703.88 250.96 704.13 244.31 734.92 247.48 741.92 248.38"/><polygon class="cls-13" points="734.94 254.06 767.58 247.19 767.25 240.9 734.92 247.48 734.94 254.06"/><polygon class="cls-8" points="740 260.26 738.63 255.92 774.25 250.28 801.75 252.52 772.38 263.18 740 260.26"/><polygon class="cls-1" points="776.42 260 768.58 265.83 738.38 262.58 738.63 255.92 769.42 259.1 776.42 260"/><polygon class="cls-13" points="768.58 265.83 802.08 258.8 801.75 252.52 769.42 259.1 768.58 265.83"/><polygon class="cls-8" points="740 252.41 738.63 248.07 774.25 242.43 801.75 244.67 772.38 255.33 740 252.41"/><polygon class="cls-1" points="776.42 252.15 768.58 257.98 738.38 254.73 738.63 248.07 769.42 251.25 776.42 252.15"/><polygon class="cls-13" points="768.58 257.98 802.08 250.95 801.75 244.67 769.42 251.25 768.58 257.98"/><polygon class="cls-8" points="740.67 243.73 739.29 239.4 774.92 233.75 802.42 235.99 773.04 246.65 740.67 243.73"/><polygon class="cls-1" points="777.08 243.47 769.25 249.31 739 246.69 739.29 239.4 770.08 242.57 777.08 243.47"/><polygon class="cls-13" points="769.25 249.31 802.75 242.28 802.42 235.99 770.08 242.57 769.25 249.31"/><polygon class="cls-3" points="128.58 310.5 280.25 350.17 546.92 312.83 347.92 278.17 196.92 281.17 184.92 301.83 128.58 310.5"/><polygon class="cls-27" points="474.97 292.57 463.28 316.47 447.98 313.72 430.93 276.47 472.76 274.58 474.97 292.57"/><polygon class="cls-40" points="164.19 299.36 178.6 316.41 192.96 315.38 202.62 274.89 173.26 274.58 164.19 299.36"/><polygon class="cls-30" points="270.26 280.73 281.15 335.5 301.2 333.59 304.98 301.88 456.03 287.52 463.28 316.47 485.55 314.35 484.6 244.75 212.01 260.69 270.26 280.73"/><polygon class="cls-27" points="158.51 237.96 159.45 312.3 178.6 316.41 183.68 285.31 257.63 298.09 260.66 331.59 281.15 335.5 280.36 269.68 158.51 237.96"/><polygon class="cls-11" points="250.68 231.8 280.36 269.68 504.17 251.53 503.7 231.33 253.21 231.17 250.68 231.8"/><polygon class="cls-10" points="282.25 237.48 144.62 226.75 145.25 246.95 280.36 269.68 279.73 248.22 282.25 237.48"/><polygon class="cls-41" points="144.62 226.75 352.17 214.28 503.7 231.33 279.73 248.22 144.62 226.75"/><polygon class="cls-24" points="271.4 224.98 277.08 218.82 285.84 230.07 279.69 236.46 271.52 232.91 271.4 224.98"/><polygon class="cls-25" points="259.09 220.24 260.75 216.57 277.08 218.82 271.87 233.14 257.9 228.41 259.09 220.24"/><polygon class="cls-24" points="260.75 216.57 238.53 205.76 212.57 213.14 257.9 228.41 260.75 216.57"/></svg>