<svg id="Layer_1" data-name="Layer 1" xmlns="http://www.w3.org/2000/svg" viewBox="0 0 900 350"><defs><style>.cls-1,.cls-24{fill:#2b2b2b;}.cls-1,.cls-21{fill-opacity:0.1;}.cls-2{fill:#8ce0dc;}.cls-3{fill:#72cbcc;}.cls-4{fill:#50a9aa;}.cls-5{fill:#cececd;}.cls-6{fill:#ececeb;}.cls-7{fill:#a3a3a3;}.cls-8{fill:#27788c;}.cls-9{fill:#318fa6;}.cls-10{fill:#c4c4c4;}.cls-11{fill:#73cfe5;}.cls-12{fill:#5ec0d9;}.cls-13{fill:#3aa0ba;}.cls-14{fill:#165e60;}.cls-15{fill:#c3987b;}.cls-16{fill:#8f8f8f;}.cls-17{fill:#369496;}.cls-18{fill:#1c7678;}.cls-19{fill:#4f5253;}.cls-20{fill:#dfbda5;}.cls-21{fill:#000002;}.cls-22{fill:#8b6651;}.cls-23{fill:#474747;}.cls-25{fill:#fff;}.cls-26{fill:#6f7173;}.cls-27{fill:#858686;}.cls-28{fill:#e8cab6;}.cls-29{fill:#9da1a2;}.cls-30{fill:#737373;}</style></defs><title>sentinels_Executive_ESTJ_parenthood</title><g id="Layer_1-2" data-name="Layer_1"><path class="cls-1" d="M780.77,283.73l12.55-2.9,51.42.3L857.29,284l-13.92,8.57,24.49,19.28,5,4.59-97.2,24.34L654.49,309.75l38.11-11.32,45,3.36ZM259.44,332.4l13.93-3.06,33.52,5.51,4.59,8.57-29.39,2.75-31.53-4.43ZM306,295.82l12.24-8.57,62.61,2.3-2.45,6.12L362,301.79l-40.26-2.29Zm-49.74-11.47-.62,13.16,4.75,1.68L279,290.31l-5.2-2.6ZM109.29,315.11,64.75,299.34,129,292.15l46.68,4.75-6.12,13.77Zm509.54-1.69,23.72-2.75,6.43-7.81-36.43-7.19-14.69,4.59L593,310.52ZM513.21,350H455.66l-37.34-8.88-24.8-.15-41.94,1.68-24-7,17.6-7.95,52.5-4.44,70.26-9,76.22-.92,57.25,4.9-1.84,13.62Z"/><polygon class="cls-2" points="312.4 298.73 298.32 304.24 299.54 311.44 313.32 311.89 317.14 304.85 312.4 298.73"/><polygon class="cls-3" points="319.29 301.18 312.4 298.73 310.1 304.7 313.32 311.89 318.37 309.29 319.29 301.18"/><polygon class="cls-3" points="280.56 284.8 276.43 300.26 285.46 309.75 289.29 305.01 289.29 301.49 285.46 293.99 285.92 284.04 280.56 284.8"/><polygon class="cls-4" points="289.29 300.41 289.29 305.01 283.16 307.45 276.73 303.78 276.43 300.26 282.86 294.9 289.29 300.41"/><polygon class="cls-5" points="0 0 32.45 303.02 53.73 300.57 59.23 297.81 35.66 41.78 166.84 59.23 168.21 72.69 267.86 55.86 256.99 257.41 259.13 277.15 306.74 271.95 308.73 126.56 297.4 47.59 0 0"/><polygon class="cls-6" points="489.03 0 297.4 47.59 301.99 158.55 300.92 185.79 306.74 272.1 462.7 292.46 501.27 293.53 506.17 69.02 489.03 0"/><polygon class="cls-1" points="301.07 180.89 310.41 175.69 313.01 182.42 319.29 177.98 325.1 179.82 330.92 177.68 328.62 187.93 316.99 187.01 313.16 201.7 316.38 203.69 320.36 203.39 325.41 206.91 324.34 212.72 317.3 219.61 312.4 219.76 301.38 201.4 301.07 180.89"/><polygon class="cls-5" points="641.63 63.05 489.03 0 496.99 286.49 501.27 293.53 595.71 269.96 652.96 254.66 654.95 151.35 641.63 63.05"/><polygon class="cls-7" points="542.75 286.64 538.78 182.57 543.22 172.32 582.55 175.53 601.23 183.34 605.51 196.96 594.49 205.68 595.87 283.12 585 286.64 578.11 288.17 542.75 286.64"/><path class="cls-5" d="M575.36,255.12l11.48-1.84-.16,3.37-10.86,2.14Zm-1.07-33.37,11.17-.61v3.52l-11.17.76Zm-2-31.68,12.55.16.15,3.21-12.55.31Zm-19.44-5.51.46,26.48,43-2.14-1.23-20.51-10.87-2.6Zm.61,34.28.46,28L589,242.26l1.38,6.89-36.43,5.51.46,28.46,44.54-11.63-9.49-54.79Z"/><path class="cls-6" d="M641.63,63.05l2.91,88.15.92,105.45,230-2.3,7-15.76L900,37.34Zm49,35.2,158.88-9-1.68,106.21L693.67,199Z"/><polygon class="cls-6" points="698.42 110.03 723.52 117.53 745.72 110.03 771.74 113.25 805.1 108.96 781.53 101.77 707.14 95.5 698.42 110.03"/><polygon class="cls-5" points="724.59 119.98 705.31 112.02 746.02 105.75 771.12 111.57 805.1 108.96 781.07 116.16 749.54 112.18 724.59 119.98"/><polygon class="cls-8" points="393.52 314.65 397.04 298.27 389.08 299.95 393.52 314.65"/><polygon class="cls-9" points="351.58 342.65 342.7 336.23 380.97 341.58 378.83 345.1 351.58 342.65"/><polygon class="cls-5" points="844.59 168.04 772.04 166.35 741.12 176.61 720.92 173.7 714.95 177.98 712.04 193.75 724.59 196.96 842.14 194.21 844.59 184.41 844.59 168.04"/><polygon class="cls-10" points="813.06 196.19 840.61 187.78 772.04 166.35 773.42 192.37 813.06 196.19"/><polygon class="cls-10" points="733.32 198.03 712.96 191.3 741.12 176.61 758.27 192.68 733.32 198.03"/><polygon class="cls-11" points="799.59 147.84 799.9 171.71 815.05 176.3 820.41 175.23 824.69 179.06 829.44 180.59 834.03 162.53 832.19 146.31 815.97 143.09 799.59 147.84"/><polygon class="cls-12" points="791.02 144.32 799.59 147.84 830.51 148.14 834.03 144.32 831.12 141.41 810.61 139.11 791.02 144.32"/><polygon class="cls-13" points="845.51 151.05 830.51 148.14 831.12 141.41 844.59 141.41 845.51 151.05"/><polygon class="cls-12" points="844.59 168.04 840.92 178.6 829.44 180.59 830.51 148.14 842.14 149.06 845.51 151.05 844.59 168.04"/><polygon class="cls-11" points="791.02 144.32 831.12 141.41 836.17 135.29 836.17 128.25 791.02 144.32"/><polygon class="cls-12" points="846.58 136.51 836.17 128.25 831.12 141.41 845.66 144.16 846.58 136.51"/><polygon class="cls-13" points="803.27 152.58 806.33 152.58 806.02 157.78 803.27 157.63 803.27 152.58"/><polygon class="cls-6" points="815.05 152.58 825.61 152.58 824.69 179.06 823.01 178.44 819.34 173.7 816.43 176.61 815.05 176.3 815.05 152.58"/><polygon class="cls-13" points="808.01 152.58 811.53 152.58 811.23 158.09 808.32 157.78 808.01 152.58"/><polygon class="cls-13" points="803.27 159.16 806.33 159.47 806.02 164.52 803.27 164.21 803.27 159.16"/><polygon class="cls-13" points="808.01 159.62 811.53 159.93 811.23 164.98 808.32 164.82 808.01 159.62"/><polygon class="cls-14" points="144.8 302.25 136.38 304.7 143.72 295.06 151.07 287.56 159.03 286.95 156.89 292.3 144.8 302.25"/><polygon class="cls-15" points="67.81 239.81 69.8 236.44 73.93 244.25 70.26 244.56 67.81 239.81"/><polygon class="cls-7" points="67.81 255.42 58.01 252.51 58.93 248.69 65.82 249.15 97.81 255.12 91.22 258.48 67.81 255.42"/><polygon class="cls-16" points="68.11 242.87 73.93 244.25 77.76 251.44 73.62 254.04 71.48 250.22 69.8 249.15 68.11 242.87"/><polygon class="cls-17" points="96.12 299.04 94.59 289.86 95.66 278.99 101.94 277 108.06 281.44 107.6 287.71 102.86 295.06 106.38 299.5 96.12 299.04"/><polygon class="cls-18" points="94.13 300.57 92.6 286.64 92.14 279.76 95.66 278.99 96.73 297.2 106.22 299.19 105 302.4 94.13 300.57"/><polygon class="cls-19" points="89.85 256.8 97.81 255.12 92.6 286.64 83.88 289.24 84.18 272.26 89.85 256.8"/><polygon class="cls-20" points="59.08 233.84 65.66 231.85 69.8 236.44 70.41 248.08 62.14 248.08 57.4 244.56 59.08 233.84"/><polygon class="cls-15" points="57.4 244.56 70.41 248.08 71.48 250.22 68.42 251.44 60.31 248.84 57.4 244.56"/><polygon class="cls-16" points="63.37 283.89 83.88 289.24 89.85 256.8 60.61 251.9 58.01 268.58 63.37 283.89"/><polygon class="cls-18" points="431.63 324.6 431.33 326.89 419.39 333.01 419.69 321.69 431.63 324.6"/><polygon class="cls-4" points="41.02 56.93 163.62 73 165.15 67.18 42.55 47.59 41.02 56.93"/><polygon class="cls-3" points="25.71 33.52 173.27 55.86 172.96 77.74 163.62 71.93 113.11 59.99 43.16 50.66 64.75 299.34 53.73 300.57 25.71 33.52"/><polygon class="cls-4" points="275.66 53.41 266.02 48.67 257.6 71.01 246.89 289.86 251.63 301.18 260.36 299.19 275.66 53.41"/><polygon class="cls-2" points="163.62 67.49 266.02 48.67 251.63 301.18 166.53 287.87 163.62 67.49"/><path class="cls-1" d="M228.67,207.06l4,8,6.43-4.44,2-9.49Zm-63.21-5.81,1.07,86.62L191,213.64l21.89-17.44-21.12-2.61Z"/><polygon class="cls-13" points="389.54 292.92 382.19 298.58 389.69 301.79 391.53 300.87 397.04 298.27 389.54 292.92"/><polygon class="cls-12" points="394.13 201.86 401.02 200.63 403.32 204.92 397.35 207.06 391.99 206.45 394.13 201.86"/><polygon class="cls-13" points="395.82 212.11 391.99 206.45 403.32 204.92 400.71 210.43 395.82 212.11"/><path class="cls-21" d="M436.22,102.23,460,97.49l.76-29.23,4,33.51-15.46,3.83Zm-102.09,54L350.36,154l-.46-24.8,3.67,27.7-10.25,2.3Zm19.44-39.79-11.48,3.68L330,116.77l20.36-3.83-.61-27.24ZM417.4,75.91l6.27,28.77L426.58,148l-32.75,8.41-19.75-4.13,46.38-8.41Z"/><polygon class="cls-21" points="554.85 78.97 552.25 106.36 558.52 116.92 573.21 119.52 587.14 114.17 566.02 110.19 558.06 99.63 554.85 78.97"/><polygon class="cls-4" points="708.22 191.45 844.9 187.63 842.6 192.22 709.13 195.58 708.22 191.45"/><polygon class="cls-4" points="698.42 105.75 848.11 98.41 849.49 92.59 703.62 99.63 698.42 105.75"/><path class="cls-3" d="M861,80.5l-152.45,9L684,102.08l12.25,89.06,12.09,14.08,145-1.83ZM698.26,103l146-7.81-3.83,95.65L701,194.05Z"/><polygon class="cls-22" points="740.36 128.4 739.9 132.99 736.23 136.66 738.06 138.35 742.96 135.13 743.26 133.6 746.94 131.92 740.36 128.4"/><polygon class="cls-8" points="795.46 259.86 793.32 280.82 788.88 284.8 786.28 265.52 792.24 259.4 795.46 259.86"/><polygon class="cls-8" points="842.6 259.86 844.74 281.13 848.88 284.8 847.96 265.37 845.82 259.4 842.6 259.86"/><polygon class="cls-9" points="780.31 246.24 780.77 283.73 788.88 284.8 792.24 259.4 780.31 246.24"/><polygon class="cls-9" points="857.75 254.5 857.29 284.04 848.88 284.8 845.82 259.4 857.75 254.5"/><polygon class="cls-18" points="456.58 309.6 455.2 325.05 457.35 331.33 467.6 329.03 467.76 311.89 456.58 309.6"/><polygon class="cls-9" points="768.83 258.79 765.46 264.45 766.23 319.09 771.58 316.02 774.49 262 768.83 258.79"/><polygon class="cls-9" points="869.39 257.41 860.05 261.39 867.86 311.89 872.91 316.48 872.14 261.54 869.39 257.41"/><polygon class="cls-16" points="223.93 207.06 228.67 207.06 228.67 207.06 236.63 200.79 230.66 193.44 225.46 193.75 221.17 197.42 221.63 203.23 223.93 207.06"/><polygon class="cls-7" points="230.66 193.44 234.03 200.48 235.71 202.78 241.07 201.09 238.78 194.66 230.66 193.44"/><polygon class="cls-3" points="140.2 187.17 146.33 164.21 171.89 182.12 172.35 190.53 165.46 201.25 145.25 195.74 140.2 187.17"/><polygon class="cls-4" points="171.89 182.12 195.92 184.11 198.67 190.84 196.07 197.42 165.46 201.25 171.89 182.12"/><polygon class="cls-6" points="202.81 184.72 195.92 184.11 196.07 197.42 203.26 196.5 205.25 188.54 202.81 184.72"/><polygon class="cls-23" points="118.16 279.76 107.6 287.71 101.94 277 106.68 266.9 116.02 267.05 118.16 279.76"/><polygon class="cls-19" points="130.87 230.94 144.03 235.83 133.93 267.82 123.83 254.81 122.14 235.83 120.15 235.37 130.87 230.94"/><polygon class="cls-18" points="442.65 276.08 446.94 266.13 456.12 282.51 449.85 287.41 447.4 285.57 442.65 276.08"/><polygon class="cls-23" points="387.86 189.92 370.41 220.07 401.02 200.63 387.86 189.92"/><polygon class="cls-20" points="632.14 231.4 650.36 218.39 645.61 217.01 634.44 219.3 631.53 222.21 632.14 231.4"/><polygon class="cls-20" points="635.36 60.45 663.98 57.08 686.94 57.54 691.68 85.55 694.44 84.32 697.5 87.08 698.42 79.89 699.95 76.37 704.54 76.83 710.66 80.34 710.51 83.87 708.52 89.53 707.14 95.5 687.55 118.15 664.13 120.29 648.52 121.36 639.95 92.74 635.36 60.45"/><polygon class="cls-15" points="676.23 84.94 668.88 76.67 658.32 80.19 657.7 94.27 654.79 74.83 665.66 71.47 673.93 74.38 678.37 78.36 676.23 84.94"/><polygon class="cls-15" points="637.96 78.81 646.84 81.57 650.97 88.46 651.58 73.61 637.96 78.81"/><polygon class="cls-15" points="680.36 88.61 657.4 96.42 657.25 92.59 680.36 88.61"/><polygon class="cls-15" points="640.25 93.81 651.43 96.87 650.97 93.05 640.25 93.81"/><polygon class="cls-15" points="683.11 57.7 676.84 69.94 680.36 88.61 687.86 115.54 684.95 142.63 694.75 137.73 702.09 140.34 706.38 102.84 705.31 97.79 698.88 93.81 697.5 87.08 691.68 85.55 690.92 57.39 683.11 57.7"/><polygon class="cls-22" points="707.14 95.5 698.88 93.81 706.38 102.84 707.14 95.5"/><polygon class="cls-22" points="648.52 121.36 694.59 114.32 694.75 137.73 688.78 141.71 684.95 142.63 675 120.59 648.52 121.36"/><polygon class="cls-24" points="673.32 67.03 664.9 64.43 655.56 70.09 673.32 67.03"/><polygon class="cls-24" points="648.06 70.4 640.41 67.03 636.73 69.94 648.06 70.4"/><polygon class="cls-22" points="658.16 98.86 656.17 103.45 651.89 100.24 658.16 98.86"/><polygon class="cls-13" points="674.24 102.38 670.41 112.33 660.61 113.25 656.94 108.96 674.24 102.38"/><polygon class="cls-25" points="667.04 106.06 674.24 102.38 668.73 110.49 661.23 111.11 659.23 108.05 667.04 106.06"/><polygon class="cls-22" points="706.99 83.71 702.7 81.57 701.33 87.84 706.99 83.71"/><path class="cls-8" d="M627.55,75.75,654.49,73l22.35-3.06,3.52,18.67-23.11,4-6.28.46-20.36,1.38Zm30.46.62,2,11.47,16.22-2.9-2.29-10.56Zm-11.48,1.68L632,79.27l1.84,10.56,13.92-.3Z"/><polygon class="cls-23" points="635.36 60.45 653.57 33.06 657.4 46.68 657.86 58.92 635.36 60.45"/><polygon class="cls-26" points="653.57 33.06 698.57 32.75 704.08 39.03 706.23 45.3 699.03 52.19 690.92 57.39 683.11 57.7 657.86 58.92 653.57 33.06"/><polygon class="cls-23" points="706.23 45.3 709.44 49.28 710.36 52.95 720.61 71.62 705.92 74.38 691.38 73.92 690.92 57.39 706.23 45.3"/><polygon class="cls-24" points="720.61 71.62 691.38 73.92 691.68 85.55 697.5 87.08 699.95 76.37 710.66 80.34 708.52 89.53 720.61 71.62"/><polygon class="cls-24" points="710.36 52.95 719.69 44.53 711.89 35.66 698.57 32.75 706.23 45.3 710.36 52.95"/><polygon class="cls-26" points="698.57 32.75 711.74 17.45 735.61 53.72 698.57 32.75"/><polygon class="cls-23" points="680.66 133.3 706.99 135.9 704.69 149.37 697.65 157.17 683.11 147.22 674.69 136.2 680.66 133.3"/><polygon class="cls-27" points="706.99 135.9 728.27 160.54 717.25 162.99 707.14 144.47 706.99 135.9"/><polygon class="cls-22" points="716.48 137.12 724.44 139.57 735 137.12 742.81 143.4 743.11 149.67 725.66 152.12 719.39 149.98 713.42 145.39 716.33 141.1 716.48 137.12"/><polygon class="cls-15" points="712.5 142.17 716.48 137.12 717.7 141.71 713.42 145.39 712.5 142.17"/><polygon class="cls-15" points="723.83 135.13 731.94 137.58 742.96 135.13 751.07 141.56 751.38 147.99 733.16 150.44 726.74 148.29 720.61 143.55 723.67 139.11 723.83 135.13"/><polygon class="cls-22" points="726.74 148.29 737.91 150.44 751.99 150.28 755.05 143.55 747.25 138.65 742.96 135.13 743.26 142.48 726.74 148.29"/><polygon class="cls-15" points="750.46 128.71 752.14 133.6 743.26 142.48 743.11 147.84 755.05 143.55 756.43 134.06 759.49 131.77 750.46 128.71"/><polygon class="cls-23" points="736.99 160.38 716.79 168.04 716.79 179.67 742.5 164.06 736.99 160.38"/><polygon class="cls-3" points="674.69 136.2 664.59 141.41 680.05 164.06 695.82 176.76 717.25 162.68 706.99 135.9 700.72 150.28 674.69 136.2"/><polygon class="cls-18" points="669.18 170.79 689.08 175.23 717.25 162.99 719.69 170.49 708.37 205.22 693.98 204.31 673.16 197.42 669.18 170.79"/><polygon class="cls-8" points="674.24 102.38 667.65 104.83 660.46 104.98 654.18 109.42 668.11 106.52 674.24 102.38"/><polygon class="cls-27" points="664.59 141.41 692.14 170.64 689.24 185.33 669.18 170.79 664.59 141.41"/><polygon class="cls-23" points="689.24 185.33 689.24 167.58 712.65 161.76 715.1 166.35 711.12 172.32 689.24 185.33"/><polygon class="cls-13" points="712.2 149.37 717.25 162.99 730.87 164.36 731.33 156.41 726.74 148.29 712.2 149.37"/><polygon class="cls-12" points="747.25 147.68 726.74 148.29 730.87 164.36 742.5 164.06 746.63 155.34 747.25 147.68"/><polygon class="cls-13" points="760.87 148.45 747.25 147.68 742.5 164.06 747.55 164.06 753.37 161.61 760.87 148.45"/><polygon class="cls-20" points="757.04 155.03 758.88 160.08 751.99 164.52 746.63 162.99 748.32 157.78 757.04 155.03"/><polygon class="cls-15" points="742.5 164.06 758.88 160.08 751.99 168.04 742.5 164.06"/><polygon class="cls-15" points="719.39 154.26 717.25 153.81 712.65 161.76 714.49 164.98 718.62 162.68 719.39 154.26"/><polygon class="cls-20" points="731.17 164.36 719.08 172.47 710.36 172.32 712.65 161.76 731.17 164.36"/><polygon class="cls-17" points="614.85 307.3 614.08 300.41 615.92 297.2 621.28 296.74 630.15 297.66 622.5 303.63 614.85 307.3"/><polygon class="cls-17" points="608.11 287.41 611.78 291.08 612.25 295.06 609.03 300.57 609.95 304.39 603.83 304.24 601.99 291.08 608.11 287.41"/><polygon class="cls-15" points="611.78 279.45 620.05 287.1 627.7 279.14 620.97 277.31 611.78 279.45"/><polygon class="cls-20" points="621.28 296.74 614.08 300.41 602.75 280.52 612.86 276.69 619.75 280.52 621.28 296.74"/><polygon class="cls-19" points="636.43 249.3 632.91 278.53 628.32 279.14 618.52 280.37 615 259.55 628.77 249.91 636.43 249.3"/><polygon class="cls-26" points="587.75 252.97 606.58 254.2 617.76 260.63 619.75 280.21 595.87 283.12 587.75 252.97"/><polygon class="cls-23" points="617.76 260.63 587.75 252.97 593.26 250.22 632.45 246.7 636.43 249.3 617.76 260.63"/><polygon class="cls-18" points="633.98 235.07 636.43 249.3 587.75 252.97 587.75 238.13 617.76 233.23 633.98 235.07"/><polygon class="cls-3" points="626.79 197.27 621.58 196.04 613.47 199.1 600.61 195.74 587.45 203.69 590.36 211.81 603.52 220.22 616.38 219 622.65 215.94 628.93 208.13 626.79 197.27"/><polygon class="cls-15" points="625.72 196.96 626.33 200.63 624.64 206.45 632.76 205.68 633.37 197.42 625.72 196.96"/><polygon class="cls-15" points="640.87 196.66 633.67 194.21 628.77 205.84 639.8 207.06 640.87 196.66"/><polygon class="cls-15" points="633.67 194.21 635.51 206.6 644.24 205.38 647.45 203.54 644.85 197.88 633.67 194.21"/><polygon class="cls-15" points="647.91 194.97 644.24 205.38 651.43 207.52 656.78 205.99 658.01 203.54 656.78 199.87 647.91 194.97"/><polygon class="cls-17" points="587.6 226.96 587.75 238.13 633.98 235.07 631.53 222.67 626.94 219.15 600.92 227.26 587.6 226.96"/><polygon class="cls-18" points="587.45 203.69 587.6 226.96 604.59 235.37 608.88 225.27 603.83 218.54 587.45 203.69"/><polygon class="cls-20" points="622.65 215.94 603.83 218.54 604.59 235.37 626.33 223.13 627.25 217.93 622.65 215.94"/><polygon class="cls-12" points="626.02 209.2 630.15 217.16 634.44 219.3 641.33 218.69 645.92 218.54 649.28 213.03 648.83 205.38 628.47 205.84 626.02 209.2"/><polygon class="cls-13" points="650.36 218.39 645.92 218.54 648.83 205.38 661.07 206.3 650.36 218.39"/><polygon class="cls-13" points="615.92 207.98 628.47 205.84 630.15 217.16 622.65 215.94 615.92 207.98"/><polygon class="cls-22" points="600.61 195.74 598.47 189.77 609.8 186.71 620.97 188.39 617.6 198.8 613.93 201.86 600.61 195.74"/><polygon class="cls-15" points="621.58 196.04 617.6 198.8 619.13 189.16 616.38 189 612.4 163.6 613.16 148.45 621.74 152.88 628.47 181.66 621.58 196.04"/><polygon class="cls-22" points="628.77 175.23 624.18 176.91 628.47 181.66 630.92 176.61 628.77 175.23"/><polygon class="cls-20" points="578.57 151.05 584.85 190.23 616.38 189 613.16 148.45 594.18 147.84 578.57 151.05"/><polygon class="cls-15" points="594.64 165.59 590.97 172.32 586.23 162.07 581.02 157.02 585.92 157.17 589.74 158.7 592.04 162.53 594.64 165.59"/><polygon class="cls-15" points="595.1 164.98 596.02 162.37 597.55 158.09 603.67 156.1 609.8 156.56 602.75 161.46 598.32 172.47 595.1 164.98"/><polygon class="cls-24" points="613.16 148.45 617.3 157.17 631.53 158.7 644.54 151.2 629.69 131.15 618.22 138.5 613.16 148.45"/><polygon class="cls-23" points="630.92 176.61 644.54 151.2 617.3 157.17 624.49 172.47 630.92 176.61"/><polygon class="cls-20" points="624.8 165.13 624.18 176.91 630.92 176.61 632.6 165.28 624.8 165.13"/><polygon class="cls-23" points="568.93 143.24 590.66 148.45 613.16 148.45 629.69 131.15 599.24 134.52 568.93 143.24"/><polygon class="cls-24" points="578.57 151.05 613.16 148.45 568.93 143.24 578.57 151.05"/><polygon class="cls-19" points="597.4 125.64 568.93 143.24 629.69 131.15 597.4 125.64"/><polygon class="cls-24" points="581.17 157.32 586.23 155.79 589.9 159.01 581.17 157.32"/><polygon class="cls-24" points="597.55 158.55 604.13 154.42 609.8 156.56 597.55 158.55"/><polygon class="cls-28" points="592.04 162.53 596.02 162.37 598.32 172.47 594.95 173.24 590.97 172.32 592.04 162.53"/><polygon class="cls-22" points="595.1 174.92 590.97 172.32 598.32 172.47 595.1 174.92"/><polygon class="cls-22" points="592.19 178.29 608.57 177.06 604.75 184.87 595.87 184.87 592.19 178.29"/><polygon class="cls-25" points="594.49 179.51 605.66 178.75 603.52 183.19 596.94 183.34 594.49 179.51"/><polygon class="cls-22" points="627.09 167.73 630.46 167.73 627.25 172.32 627.09 167.73"/><polygon class="cls-20" points="628.93 218.54 622.65 215.94 631.84 211.35 633.21 212.88 628.93 218.54"/><polygon class="cls-15" points="641.33 218.69 622.65 215.94 626.33 223.13 631.84 223.9 641.33 218.69"/><polygon class="cls-13" points="554.85 78.97 563.42 70.7 571.23 69.48 564.64 76.83 558.37 81.26 554.85 78.97"/><polygon class="cls-18" points="565.41 100.09 571.84 113.71 564.49 113.4 555.92 102.69 559.9 99.78 565.41 100.09"/><polygon class="cls-18" points="560.97 77.59 554.85 78.97 555.92 102.69 562.81 101.77 563.11 90.91 560.97 77.59"/><polygon class="cls-12" points="596.94 84.94 596.33 105.44 587.14 114.17 571.84 113.71 562.81 101.77 560.97 77.59 571.23 69.48 588.22 73.15 596.94 84.94"/><path class="cls-6" d="M584.39,77.44l6.89,7.8v8.57c.15,2.76.15,5.67.15,8.57-2.76,2.3-5.66,4.44-8.73,6.74-2.75-.31-5.51-.77-8.26-1.23-2.14-2.91-4.29-6-6.43-9-.31-2.9-.46-6-.76-8.87s-.46-6-.62-8.88c2.15-2,4.29-4,6.28-6,2,.46,4,.77,5.81,1.23C580.71,76.67,582.55,77.13,584.39,77.44Z"/><polygon class="cls-12" points="585.46 99.63 580.41 94.42 579.95 92.13 582.09 91.52 586.53 98.1 585.46 99.63"/><polygon class="cls-12" points="585.46 81.11 579.8 88.46 580.56 91.21 582.09 91.52 586.53 82.49 585.46 81.11"/><path class="cls-18" d="M584.39,77.44c2.14,2.91,4.28,5.66,6.27,8.57,0,2.6,0,5.2-.15,7.8v8.11c-2.6,2.3-5.2,4.75-7.81,7.2a10.6,10.6,0,0,0,2.15.3c2.45-2.14,4.89-4.28,7.34-6.27,0-2.91.16-5.66.16-8.42s.15-5.51.3-8.26c-2-2.76-4-5.67-5.81-8.57C585.92,77.74,585.15,77.59,584.39,77.44Z"/><path class="cls-18" d="M580.1,78.66c-.15,1.23-.15,2.3-.3,3.52a4.56,4.56,0,0,1-1.38-.3V78.36Z"/><path class="cls-18" d="M571.68,89.53c-1.22-.31-2.29-.61-3.52-.92,0,.77.16,1.38.16,2,1.07.31,2.29.46,3.36.76Z"/><path class="cls-18" d="M579.64,101.62a7.31,7.31,0,0,0-1.83-.31v4h1.68A30,30,0,0,1,579.64,101.62Z"/><path class="cls-18" d="M589.29,93.2c-.77-.15-1.54-.46-2.45-.61,0,.46.15,1.07.15,1.53a13.28,13.28,0,0,1,2.3.61Z"/><polygon class="cls-18" points="580.41 94.42 577.65 91.36 579.8 88.46 582.09 91.52 580.41 94.42"/><polygon class="cls-17" points="428.88 286.18 431.94 306.54 440.97 310.52 449.24 308.99 452.3 303.17 449.39 285.72 446.94 266.13 439.59 262.77 430.87 269.04 428.88 286.18"/><polygon class="cls-18" points="450.76 306.08 431.94 306.23 446.33 320.62 450.76 306.08"/><polygon class="cls-20" points="445.87 328.57 433.47 328.27 432.7 316.79 436.38 308.53 450.61 319.09 445.87 328.57"/><polygon class="cls-15" points="418.62 325.67 433.47 328.27 436.38 308.53 431.94 306.54 418.62 325.67"/><polygon class="cls-18" points="404.85 267.2 415.25 262.77 427.35 265.52 431.48 272.1 431.94 306.54 415.71 320.46 397.65 323.22 401.94 288.78 409.29 278.07 404.85 267.2"/><polygon class="cls-17" points="421.53 297.81 401.94 288.78 404.85 267.2 428.57 283.43 429.95 293.22 421.53 297.81"/><polygon class="cls-20" points="449.39 285.72 428.57 283.43 421.53 297.81 447.55 295.21 450.92 290.47 449.39 285.72"/><polygon class="cls-22" points="415.25 262.77 431.48 272.1 433.62 266.29 428.57 257.11 415.25 262.77"/><polygon class="cls-15" points="426.43 217.16 421.84 234.76 428.27 262.46 431.48 272.1 439.59 262.77 441.58 257.56 450.15 248.38 438.37 234.76 426.43 217.16"/><polygon class="cls-22" points="443.26 241.5 438.98 244.86 445.1 248.69 448.47 246.54 448.77 240.12 443.26 241.5"/><polygon class="cls-20" points="389.85 218.08 409.59 214.71 426.43 217.16 428.27 262.46 393.98 263.23 389.85 218.08"/><polygon class="cls-15" points="397.5 229.87 393.37 230.78 398.26 234.61 403.77 245.17 407.3 240.88 405.61 235.99 402.86 232.31 397.5 229.87"/><polygon class="cls-15" points="408.21 235.99 410.05 231.7 414.95 228.34 420.77 229.71 413.88 234.15 410.97 244.56 407.3 240.88 408.21 235.99"/><polygon class="cls-23" points="403.32 204.92 389.85 218.08 426.43 217.16 415.1 206.75 403.32 204.92"/><polygon class="cls-19" points="440.51 202.16 403.32 204.92 426.43 217.16 437.45 213.8 444.34 206.91 440.51 202.16"/><polygon class="cls-23" points="455.66 219.15 444.34 206.91 426.43 217.16 431.33 226.19 447.4 226.34 455.66 219.15"/><polygon class="cls-13" points="438.21 210.43 448.62 211.5 448.32 203.54 447.55 199.87 444.34 201.55 438.21 210.43"/><polygon class="cls-12" points="436.53 197.42 438.21 210.43 448.32 203.54 443.57 197.88 436.53 197.42"/><polygon class="cls-24" points="447.55 242.26 441.58 257.87 455.51 256.19 455.66 219.15 431.33 226.19 438.83 240.12 447.55 242.26"/><polygon class="cls-20" points="438.52 232.16 438.98 244.86 447.55 242.26 447.55 230.78 438.52 232.16"/><polygon class="cls-22" points="441.89 240.27 445.25 234.15 441.58 234.76 441.89 240.27"/><polygon class="cls-24" points="393.37 230.78 397.5 228.64 402.86 232.31 397.19 230.48 393.37 230.78"/><polygon class="cls-24" points="410.05 231.7 415.41 229.1 421.07 229.87 415.1 227.26 410.05 231.7"/><polygon class="cls-28" points="405.61 235.99 403.77 245.17 407.3 245.78 410.97 244.56 408.21 235.99 405.61 235.99"/><polygon class="cls-22" points="407.45 247.46 403.77 245.17 410.97 244.56 407.45 247.46"/><polygon class="cls-22" points="401.79 251.29 418.93 249.3 416.02 256.65 405.61 257.26 401.79 251.29"/><polygon class="cls-25" points="404.08 252.36 416.63 251.14 414.64 255.12 406.38 255.73 404.08 252.36"/><polygon class="cls-9" points="458.57 312.5 457.35 331.33 445.87 328.57 447.55 295.21 485.82 298.58 514.44 305.16 515.21 323.22 513.52 340.97 498.98 338.06 498.21 319.24 458.57 312.5"/><polygon class="cls-18" points="590.05 299.5 580.72 305.31 581.94 320.31 592.19 320.92 593.11 307.15 590.05 299.5"/><polygon class="cls-13" points="598.16 288.17 547.96 295.82 512.14 305.93 513.52 340.97 524.85 337.14 524.24 317.56 590.82 303.17 592.19 320.92 601.38 318.17 598.16 288.17"/><polygon class="cls-29" points="507.09 176.91 511.07 284.04 534.95 285.11 546.58 282.2 543.22 172.32 507.09 176.91"/><polygon class="cls-12" points="512.14 305.93 447.55 295.21 455.66 292.15 462.7 292.46 531.28 280.37 598.16 288.17 512.14 305.93"/><polygon class="cls-25" points="497.91 299.19 453.67 292.92 496.99 286.49 533.27 290.16 523.01 295.21 497.91 299.19"/><polygon class="cls-20" points="470.82 282.2 460.56 286.95 462.7 292.46 472.04 290.16 473.27 286.03 470.82 282.2"/><polygon class="cls-22" points="459.95 288.48 458.26 281.44 463.16 285.72 462.7 292.46 459.95 288.48"/><polygon class="cls-15" points="458.26 281.44 449.39 285.72 447.55 295.21 462.7 292.46 458.26 281.44"/><polygon class="cls-13" points="450.46 266.44 456.12 282.51 458.26 281.44 453.37 265.68 450.46 266.44"/><polygon class="cls-4" points="77.6 209.66 82.35 205.53 90.46 187.17 86.17 164.67 61.23 193.29 67.35 211.35 77.6 209.66"/><polygon class="cls-17" points="157.81 284.04 140.36 284.96 131.17 286.33 129.03 292.15 134.69 301.79 143.42 295.37 150.31 288.32 157.81 284.04"/><polygon class="cls-26" points="125.51 245.17 133.93 267.82 123.06 273.17 106.68 266.9 79.59 235.99 91.38 232.16 117.7 239.05 125.51 245.17"/><polygon class="cls-23" points="125.51 245.17 79.59 235.99 90.61 232.16 138.37 232.93 144.03 235.83 125.51 245.17"/><polygon class="cls-15" points="106.84 159.16 101.48 154.57 91.53 131.92 98.11 79.58 101.33 91.82 107.6 147.53 108.83 156.41 106.84 159.16"/><polygon class="cls-22" points="118.16 161.3 129.03 154.57 134.08 146.15 107.45 145.08 105.46 146.46 109.59 158.7 118.16 161.3"/><polygon class="cls-24" points="153.67 97.18 145.1 81.72 153.52 69.79 167.6 66.73 153.67 97.18"/><polygon class="cls-20" points="153.52 80.81 154.13 146.15 105.46 146.31 98.11 79.58 146.17 77.44 153.52 80.81"/><polygon class="cls-22" points="91.53 131.92 88.01 123.81 91.68 121.67 98.27 123.04 91.53 131.92"/><polygon class="cls-24" points="69.49 98.56 86.17 65.96 93.98 80.34 96.58 107.59 88.01 123.81 69.49 98.56"/><polygon class="cls-23" points="96.58 107.59 102.86 86.47 115.41 72.54 113.11 59.99 86.17 65.96 96.58 107.59"/><polygon class="cls-20" points="98.27 123.04 88.01 123.81 83.88 107.89 96.58 107.59 98.27 123.04"/><polygon class="cls-22" points="94.75 117.99 93.67 110.34 87.4 110.8 94.75 117.99"/><polygon class="cls-15" points="136.53 120.29 144.64 107.59 152.75 100.7 135.15 101.62 132.4 105.14 127.35 101.16 120.77 99.78 105.31 99.94 120 108.35 127.81 119.37 136.53 120.29"/><polygon class="cls-22" points="132.55 124.27 136.53 120.29 127.81 119.37 132.55 124.27"/><polygon class="cls-28" points="135.15 101.62 136.53 120.29 127.81 119.37 127.35 101.16 135.15 101.62"/><polygon class="cls-24" points="138.52 101.47 148.62 95.34 152.75 100.7 138.52 101.47"/><polygon class="cls-24" points="120.92 99.78 108.98 93.66 105.31 99.94 120.92 99.78"/><polygon class="cls-22" points="142.65 129.78 116.48 126.56 120.46 136.51 137.45 138.35 142.65 129.78"/><polygon class="cls-25" points="139.59 131.15 119.39 128.86 121.68 134.37 136.84 135.75 139.59 131.15"/><polygon class="cls-17" points="146.33 164.21 131.48 158.09 130.1 160.69 128.57 175.23 113.88 187.47 112.35 190.23 112.65 231.24 122.14 235.99 144.03 235.83 146.33 164.21"/><polygon class="cls-3" points="98.57 160.08 86.17 164.67 79.59 235.99 122.14 235.99 118.16 188.54 116.79 180.13 100.87 165.44 98.57 160.08"/><polygon class="cls-3" points="120.31 166.2 131.63 158.09 133.16 175.69 118.16 188.54 120.31 166.2"/><polygon class="cls-17" points="107.91 168.34 98.57 160.08 100.72 179.67 118.16 188.54 107.91 168.34"/><polygon class="cls-6" points="115.1 157.94 118.32 166.2 123.83 167.58 131.63 158.09 129.03 154.57 115.1 157.94"/><polygon class="cls-6" points="98.57 160.08 101.48 154.57 115.1 158.09 110.66 167.73 107.14 169.57 98.57 160.08"/><polygon class="cls-5" points="118.16 188.54 123.83 167.73 115.1 158.09 107.14 169.57 118.16 188.54"/><polygon class="cls-24" points="117.7 171.56 121.07 164.67 115.1 158.09 109.44 166.2 114.18 171.86 116.02 172.47 117.7 171.56"/><polygon class="cls-24" points="118.16 188.54 121.07 177.68 117.7 171.56 114.18 171.86 112.35 178.44 118.16 188.54"/><polygon class="cls-14" points="122.75 203.85 119.23 200.79 115.71 204.31 119.69 206.91 122.75 203.85"/><polygon class="cls-14" points="124.44 220.53 120.61 217.16 117.09 220.99 121.22 224.2 124.44 220.53"/><polygon class="cls-19" points="113.11 59.99 102.86 86.47 153.52 80.81 167.6 66.73 113.11 59.99"/><polygon class="cls-23" points="167.6 66.73 153.52 80.81 102.86 86.47 167.6 66.73"/><polygon class="cls-17" points="71.48 230.48 77.6 209.66 61.23 193.29 59.39 227.42 65.66 231.85 71.48 230.48"/><polygon class="cls-6" points="59.08 233.84 69.8 236.44 71.48 230.48 59.39 227.42 59.08 233.84"/><polygon class="cls-15" points="204.95 174.31 202.81 184.72 203.26 196.5 212.6 190.07 214.29 185.03 211.68 173.09 204.95 174.31"/><polygon class="cls-13" points="754.75 241.95 756.58 318.47 766.23 319.09 768.83 262 865.87 261.39 872.91 316.48 881.94 315.26 882.55 238.59 817.65 236.9 754.75 241.95"/><polygon class="cls-12" points="780.15 223.9 754.75 241.95 882.55 238.59 853.77 221.6 780.15 223.9"/><polygon class="cls-1" points="811.84 234.76 815.66 238.28 834.49 239.96 858.22 239.35 862.96 237.67 858.22 229.25 839.85 231.4 824.85 232.16 811.84 234.76"/><polygon class="cls-13" points="412.35 76.83 413.27 72.23 417.4 75.91 422.45 144.78 419.39 145.54 418.47 142.78 416.48 140.8 412.35 76.83"/><polygon class="cls-9" points="374.08 152.27 369.8 150.59 387.7 146.15 406.84 143.24 418.47 142.78 422.45 144.78 374.08 152.27"/><polygon class="cls-9" points="340.87 152.58 331.99 155.49 334.13 156.25 351.43 154.72 350.82 153.5 349.13 153.34 340.87 152.58"/><path class="cls-13" d="M347.91,128.09S347,139,347.75,139s1.38,14.39,1.38,14.39l2.3,1.37-1.53-25.56Z"/><polygon class="cls-13" points="345.46 95.95 346.53 84.32 349.75 85.7 351.89 113.71 349.44 113.71 348.98 112.33 345.46 95.95"/><polygon class="cls-9" points="330 116.77 326.63 115.39 336.12 112.79 348.98 112.33 351.89 113.71 330 116.77"/><polygon class="cls-13" points="454.75 77.44 457.19 64.28 460.56 66.27 462.4 98.56 457.04 96.87 454.75 77.44"/><polygon class="cls-9" points="436.22 102.23 431.79 100.55 442.35 96.72 458.57 96.72 462.4 98.56 436.22 102.23"/><path class="cls-12" d="M322.81,88.61l23.72-4.29,2.45,28-22.35,3.06-3.82-26.78Zm38.57-6.89,51.89-9.48,5.2,70.55-48.67,7.8-8.42-68.87Zm66.73-12.24,29.08-5.2,1.38,32.44-26.78,3.83Z"/><polygon class="cls-12" points="327.86 130.85 331.99 155.49 349.13 153.34 347.91 128.09 327.86 130.85"/><polygon class="cls-25" points="330.15 93.51 341.48 93.05 343.16 108.05 333.52 109.88 330.15 93.51"/><polygon class="cls-25" points="334.59 136.36 343.62 135.75 344.23 148.75 337.35 149.67 334.59 136.36"/><polygon class="cls-25" points="371.48 88 376.38 121.97 387.55 113.71 410.51 121.05 408.06 84.17 371.48 88"/><polygon class="cls-3" points="376.38 121.97 381.89 116.16 387.55 106.36 391.23 112.79 397.96 113.71 404.54 116.31 404.69 120.14 410.51 121.05 411.58 137.43 398.88 139.42 392.45 136.2 379.13 142.33 378.21 135.13 379.44 129.01 376.38 121.97"/><polygon class="cls-20" points="720.46 138.35 723.83 135.13 725.05 139.72 720.61 143.55 720.46 138.35"/><polygon class="cls-4" points="846.74 218.08 851.63 218.84 854.24 220.07 855 223.44 854.08 232.93 850.56 232.01 846.74 218.08"/><polygon class="cls-17" points="861.27 217.77 856.68 218.23 854.24 220.07 854.08 232.93 857.6 231.85 861.27 217.77"/><polygon class="cls-3" points="853.62 216.24 846.74 218.08 849.8 218.84 853.93 218.23 858.22 218.84 861.27 217.77 853.62 216.24"/><polygon class="cls-25" points="853.77 217.77 849.8 218.84 854.24 220.07 858.22 218.84 853.77 217.77"/><polygon class="cls-4" points="821.63 220.84 827.14 221.75 829.75 222.98 831.12 231.7 829.75 236.44 825.92 235.37 821.63 220.84"/><polygon class="cls-17" points="837.24 220.53 832.35 221.14 829.75 222.98 829.75 236.44 833.42 235.22 837.24 220.53"/><polygon class="cls-3" points="829.13 218.84 821.63 220.84 825 221.75 829.44 221.14 834.03 221.6 837.24 220.53 829.13 218.84"/><polygon class="cls-25" points="829.44 220.53 825 221.75 829.75 222.98 834.03 221.6 829.44 220.53"/><polygon class="cls-4" points="836.94 221.45 842.75 222.06 845.66 223.59 847.2 232.77 845.51 237.98 841.38 236.75 836.94 221.45"/><polygon class="cls-17" points="854.08 220.84 848.73 221.45 845.66 223.59 845.51 237.98 849.64 236.6 854.08 220.84"/><polygon class="cls-3" points="845.05 219 836.94 221.45 840.46 222.21 845.36 221.45 850.41 222.06 854.08 220.84 845.05 219"/><polygon class="cls-25" points="845.36 220.84 840.46 222.21 845.66 223.59 850.41 222.06 845.36 220.84"/><polygon class="cls-4" points="854.08 220.84 860.05 221.91 863.11 223.28 864.49 232.47 862.96 237.67 858.67 236.44 854.08 220.84"/><polygon class="cls-17" points="871.53 220.68 866.02 221.14 863.11 223.28 862.96 237.67 867.7 236.14 871.53 220.68"/><polygon class="cls-3" points="862.35 218.69 854.08 220.84 857.91 221.91 862.65 221.14 867.86 221.75 871.53 220.68 862.35 218.69"/><polygon class="cls-25" points="862.65 220.53 857.91 221.91 863.11 223.28 867.86 221.75 862.65 220.53"/><polygon class="cls-22" points="649.75 201.55 647.91 194.97 642.24 200.63 644.24 205.38 649.75 201.55"/><polygon class="cls-22" points="633.67 194.21 642.24 200.63 635.2 205.68 633.21 200.79 633.67 194.21"/><polygon class="cls-22" points="628.77 205.84 635.66 205.68 636.12 198.65 633.67 194.21 627.86 200.18 628.77 205.84"/><polygon class="cls-22" points="625.72 196.96 627.86 200.18 624.64 206.3 623.57 200.18 625.72 196.96"/><polygon class="cls-22" points="625.72 196.96 624.64 206.45 621.43 207.06 618.37 202.32 625.72 196.96"/><polygon class="cls-26" points="241.07 201.09 234.03 200.48 228.67 207.06 236.63 206.75 241.07 201.09"/><polygon class="cls-23" points="478.01 218.84 436.53 197.42 453.52 185.94 478.01 218.84"/><polygon class="cls-14" points="622.81 308.53 615.15 309.6 617.76 306.69 630.15 299.19 635.36 300.26 622.81 308.53"/><polygon class="cls-18" points="614.85 307.3 615.15 309.6 630.46 300.11 635.36 300.26 635.05 298.27 630.15 297.66 614.85 307.3"/><polygon class="cls-18" points="603.52 290.16 600.77 291.84 602.6 305.62 609.34 306.69 609.95 304.39 604.9 303.17 603.52 290.16"/><polygon class="cls-15" points="651.43 210.58 650.36 218.39 657.4 215.33 658.16 209.66 651.43 210.58"/><polygon class="cls-2" points="398.73 98.41 397.04 102.54 399.95 106.21 403.16 106.21 405.46 102.23 403.93 98.71 398.73 98.41"/><polygon class="cls-17" points="419.39 333.01 397.65 323.22 431.94 306.54 419.39 333.01"/><polygon class="cls-2" points="378.21 135.13 376.38 121.97 391.84 125.03 387.4 131.61 378.21 135.13"/><polygon class="cls-2" points="387.55 106.36 387.7 119.06 391.84 125.03 397.96 113.71 387.55 106.36"/><polygon class="cls-2" points="410.51 121.05 404.54 116.31 391.84 125.03 410.51 121.05"/><polygon class="cls-2" points="410.51 121.05 401.02 130.69 390.61 132.99 379.13 142.33 398.88 139.42 406.07 131.92 410.51 121.05"/><path class="cls-24" d="M397.65,233.08a2.3,2.3,0,1,1-2.29,2.29A2.3,2.3,0,0,1,397.65,233.08Z"/><circle class="cls-24" cx="414.03" cy="235.07" r="2.3"/><polygon class="cls-20" points="204.95 174.31 213.98 165.89 220.1 168.8 214.29 185.03 204.95 174.31"/><polygon class="cls-20" points="203.26 196.5 212.91 196.19 222.86 181.96 219.34 179.82 203.26 196.5"/><polygon class="cls-19" points="106.68 266.9 133.93 267.82 140.36 284.96 129.03 292.15 106.68 266.9"/><polygon class="cls-18" points="149.69 285.72 134.69 301.79 136.38 304.7 151.22 289.09 159.03 286.95 157.81 284.04 149.69 285.72"/><polygon class="cls-15" points="471.43 292.76 470.82 282.2 480.46 289.4 478.16 292.92 471.43 292.76"/><polygon class="cls-13" points="816.58 154.26 823.62 154.57 823.01 178.44 816.43 176.61 816.58 154.26"/><polygon class="cls-5" points="530.2 285.42 536.79 290.47 523.01 295.21 530.2 285.42"/><polygon class="cls-11" points="375.46 224.2 370.41 225.12 371.63 235.07 382.5 239.2 391.23 233.84 377.45 229.71 375.46 224.2"/><polygon class="cls-13" points="387.7 245.01 383.57 247 386.48 235.83 391.23 233.84 389.85 242.87 387.7 245.01"/><polygon class="cls-16" points="329.39 267.2 317.3 269.35 314.85 275.47 320.66 286.8 358.47 292.15 370.56 280.37 361.99 279.3 335.97 275.93 329.39 267.2"/><polygon class="cls-13" points="361.38 275.78 363.67 281.74 370.25 280.37 370.56 270.88 368.11 265.22 361.38 275.78"/><polygon class="cls-12" points="372.55 266.75 374.08 273.63 370.25 280.37 367.96 267.66 369.64 265.52 372.55 266.75"/><polygon class="cls-5" points="385.71 270.42 371.02 274.55 370.25 280.37 377.6 280.52 386.17 282.51 393.37 275.93 385.71 270.42"/><polygon class="cls-13" points="378.98 244.71 378.67 259.1 372.55 266.75 367.5 268.12 371.94 246.7 378.98 244.71"/><polygon class="cls-16" points="380.82 289.55 358.93 298.12 364.44 288.17 377.6 280.52 393.37 275.93 380.82 289.55"/><polygon class="cls-12" points="342.7 336.23 348.52 315.87 361.07 315.56 377.45 323.68 382.81 333.63 373.78 342.35 342.7 336.23"/><polygon class="cls-12" points="361.99 301.79 358.77 310.52 368.42 315.26 385.1 316.64 388.62 309.9 385.41 303.78 374.85 297.96 361.99 301.79"/><polygon class="cls-11" points="358.77 310.52 348.52 315.87 377.45 323.68 386.02 321.38 385.1 316.64 358.77 310.52"/><polygon class="cls-13" points="385.1 316.64 377.45 323.68 373.78 342.35 378.83 345.1 393.52 340.97 397.65 323.22 391.53 300.87 386.79 300.26 385.41 303.78 385.1 316.64"/><polygon class="cls-11" points="370.1 297.05 361.99 301.79 373.93 299.95 385.41 303.78 391.53 300.87 378.37 295.67 370.1 297.05"/><path class="cls-24" d="M117.25,105.75a2.76,2.76,0,1,1-2.76,2.75A2.75,2.75,0,0,1,117.25,105.75Z"/><path class="cls-24" d="M144.49,105.75a2.76,2.76,0,1,1-2.76,2.75A2.76,2.76,0,0,1,144.49,105.75Z"/><path class="cls-24" d="M641.48,81.57A2.45,2.45,0,1,1,639,84,2.45,2.45,0,0,1,641.48,81.57Z"/><path class="cls-24" d="M663.52,79a2.45,2.45,0,1,1-2.45,2.45A2.45,2.45,0,0,1,663.52,79Z"/><path class="cls-24" d="M602.75,161.46a2.45,2.45,0,1,1-2.44,2.44A2.45,2.45,0,0,1,602.75,161.46Z"/><path class="cls-24" d="M585.15,162.22a2.45,2.45,0,1,1-2.45,2.45A2.45,2.45,0,0,1,585.15,162.22Z"/><polygon class="cls-23" points="667.5 290.16 662.45 301.49 665.97 310.36 686.94 310.21 686.94 306.38 679.13 303.17 666.43 306.38 667.5 290.16"/><polygon class="cls-15" points="680.82 294.75 678.83 288.32 667.5 290.16 666.43 303.17 666.12 306.38 679.13 303.17 682.04 298.27 680.82 294.75"/><polygon class="cls-26" points="666.12 306.38 682.04 298.27 686.94 306.38 666.12 306.38"/><polygon class="cls-18" points="670.87 243.33 667.04 291.08 679.9 291.39 682.04 240.43 670.87 243.33"/><polygon class="cls-15" points="723.98 284.35 715.26 281.59 709.44 286.49 711.43 292.3 718.77 301.03 726.43 298.73 728.57 293.38 723.98 284.35"/><polygon class="cls-26" points="718.77 301.79 728.57 293.38 737.6 301.79 727.65 303.48 718.77 301.79"/><polygon class="cls-23" points="713.57 300.72 721.38 305.93 737.6 305.93 737.6 301.79 724.13 301.79 709.44 286.64 706.84 293.07 709.44 305.62 712.35 305.77 713.57 300.72"/><polygon class="cls-3" points="673.16 197.42 689.54 223.59 700.25 229.56 707.91 221.91 708.52 204.92 673.16 197.42"/><polygon class="cls-17" points="673.16 197.42 700.25 229.56 702.25 261.85 679.9 291.39 661.07 225.89 673.16 197.42"/><polygon class="cls-4" points="708.37 204.92 717.4 250.22 709.75 244.1 700.25 229.56 708.37 204.92"/><polygon class="cls-18" points="700.25 229.56 717.4 250.22 723.83 284.5 679.9 291.39 700.25 229.56"/><polygon class="cls-6" points="779.23 0 739.9 8.11 746.33 17.6 769.13 17.75 779.39 11.94 783.67 1.84 779.23 0"/><polygon class="cls-5" points="814.9 9.18 779.23 0 779.39 11.94 785.82 15.92 805.56 18.82 814.9 9.18"/><polygon class="cls-6" points="777.09 23.72 746.33 17.6 779.39 11.94 805.56 18.82 777.09 23.72"/><polygon class="cls-25" points="777.4 20.51 768.83 17.14 778.62 15.15 788.73 17.45 777.4 20.51"/><polygon class="cls-5" points="777.09 21.27 763.16 18.21 768.83 17.14 777.55 18.98 788.73 17.45 793.77 18.67 777.09 21.27"/><polygon class="cls-6" points="291.27 0 252.25 9.03 258.98 18.21 281.79 18.06 291.74 11.94 295.87 1.69 291.27 0"/><polygon class="cls-5" points="327.25 8.57 291.27 0 291.74 11.94 298.16 15.76 318.21 18.36 327.25 8.57"/><polygon class="cls-6" points="289.75 23.88 258.98 18.21 291.74 11.94 318.21 18.36 289.75 23.88"/><polygon class="cls-25" points="290.05 20.51 281.48 17.29 291.12 15.15 301.23 17.29 290.05 20.51"/><polygon class="cls-5" points="289.59 21.27 275.66 18.67 281.48 17.29 290.2 18.98 301.23 17.29 306.27 18.36 289.59 21.27"/><path class="cls-1" d="M1.84,16.84,240.31,53.41,266,48.67l9.64,4.74-.46,5.36L298,62.29,489.34,14.54l148,60.14-2-14.23L489,0,297.4,47.6,0,0ZM718.78,68.41,898.62,53.56,900,37.34,712,56Z"/><polygon class="cls-25" points="435.92 74.53 450.76 73.15 451.69 91.52 439.13 93.81 435.92 74.53"/><polygon class="cls-28" points="654.95 76.83 658.16 98.86 651.89 100.24 649.28 77.44 654.95 76.83"/><polygon class="cls-7" points="281.48 225.43 295.87 273.33 304.59 275.01 306.74 272.1 307.35 228.03 304.75 224.36 292.96 222.21 281.48 225.43"/><polygon class="cls-27" points="321.43 225.27 313.16 221.91 304.75 224.36 304.59 275.01 312.25 271.95 321.43 225.27"/><polygon class="cls-16" points="292.35 261.85 289.44 273.79 305.51 276.54 306.89 268.74 304.75 262.31 292.35 261.85"/><polygon class="cls-30" points="314.39 261.39 304.75 262.31 305.51 276.54 318.67 273.33 314.39 261.39"/><polygon class="cls-16" points="288.21 216.86 281.48 225.43 304.75 224.36 305.81 219.76 303.37 216.09 295.87 214.56 288.21 216.86"/><polygon class="cls-30" points="309.64 214.25 303.37 216.09 304.75 224.36 321.43 225.27 314.85 216.24 309.64 214.25"/><polygon class="cls-7" points="286.53 210.73 287.75 217.47 303.37 216.09 305.2 211.96 303.21 209.51 294.95 207.21 286.53 210.73"/><path class="cls-16" d="M310.1,206.6c.46,0-6.89,2.91-6.89,2.91l.16,6.58,11.48.15,1.53-5.81Z"/><polygon class="cls-16" points="282.7 207.21 286.53 210.73 303.21 209.51 304.59 205.53 303.83 203.08 293.88 203.23 282.7 207.21"/><polygon class="cls-30" points="303.83 203.08 303.21 209.51 316.38 210.43 320.66 206.91 312.09 202.47 303.83 203.08"/><polygon class="cls-13" points="324.49 271.95 324.95 265.98 339.18 266.29 329.23 280.06 324.49 271.95"/><polygon class="cls-8" points="341.63 267.97 335.97 275.93 329.23 279.91 336.74 264.91 341.63 267.97"/><polygon class="cls-12" points="324.8 267.97 326.17 251.29 335.97 243.79 340.87 248.53 357.86 247.77 361.84 232.62 370.41 225.12 373.16 232.77 386.48 235.83 386.79 242.26 383.57 247 374.54 248.23 374.54 259.55 361.38 275.78 334.9 268.74 324.8 267.97"/><polygon class="cls-11" points="343.16 242.41 335.97 243.79 341.48 254.96 347.75 247.16 343.16 242.41"/><polygon class="cls-13" points="345.76 252.51 340.87 248.53 347.75 247.16 357.86 247.77 357.4 249.91 345.76 252.51"/><polygon class="cls-13" points="353.42 323.06 351.43 331.94 366.89 336.53 369.03 327.2 353.42 323.06"/><polygon class="cls-9" points="340.87 248.53 357.4 249.91 353.73 256.19 341.48 254.96 340.87 248.53"/><polygon class="cls-7" points="317.3 269.35 311.48 275.01 321.12 292.61 358.93 298.12 377.6 280.52 371.02 274.55 356.17 288.94 325.87 285.42 317.3 269.35"/><polygon class="cls-13" points="280.87 162.99 293.42 194.82 296.48 190.99 285.92 158.09 280.87 162.99"/><polygon class="cls-12" points="289.75 204.61 292.04 191.45 296.48 190.99 297.09 200.94 289.75 204.61"/><polygon class="cls-12" points="275.05 170.94 278.27 159.01 285.92 158.09 282.7 172.63 276.43 173.85 275.05 170.94"/><polygon class="cls-11" points="270.31 174.92 275.05 170.94 282.7 172.63 277.19 176.61 273.37 177.53 270.31 174.92"/><polygon class="cls-13" points="309.34 170.03 304.75 194.82 306.74 196.66 309.18 195.58 315.15 174.77 313.16 171.25 309.34 170.03"/><polygon class="cls-12" points="313.32 203.23 309.18 195.13 304.75 194.82 305.81 200.63 313.32 203.23"/><polygon class="cls-12" points="330.92 177.68 325.41 182.88 322.96 178.14 330.92 177.68"/><polygon class="cls-13" points="325.41 182.88 324.49 173.24 318.37 170.94 319.29 177.98 325.41 182.88"/><polygon class="cls-12" points="317.14 166.2 309.34 170.03 315.15 174.77 324.49 173.24 317.14 166.2"/><polygon class="cls-12" points="308.73 160.38 308.27 168.34 303.52 164.82 308.73 160.38"/><polygon class="cls-13" points="308.27 168.34 301.99 158.55 299.69 165.74 302.6 171.25 308.27 168.34"/><polygon class="cls-12" points="294.64 163.6 301.99 158.55 304.75 194.82 301.68 197.42 299.69 194.36 294.64 163.6"/><polygon class="cls-13" points="298.93 203.08 297.09 200.94 299.69 194.36 304.75 194.82 303.67 199.72 298.93 203.08"/><polygon class="cls-7" points="283.01 203.54 282.7 207.21 303.67 205.07 320.66 206.91 320.36 203.39 303.67 199.72 283.01 203.54"/><polygon class="cls-12" points="274.13 184.72 270.31 174.92 277.19 176.61 274.13 184.72"/><polygon class="cls-3" points="298.16 279.91 297.09 282.66 297.09 287.71 300.61 288.94 305.51 287.25 304.44 280.52 298.16 279.91"/><polygon class="cls-4" points="299.54 287.1 302.6 285.57 300.15 282.36 298.62 285.42 298.62 287.1 299.54 287.1"/><polygon class="cls-2" points="295.71 308.07 298.32 304.24 302.6 292.76 297.09 282.66 285.92 284.04 282.86 294.9 289.29 305.01 295.71 308.07"/><polygon class="cls-3" points="294.49 293.22 298.77 293.99 302.6 292.76 305.97 295.82 298.32 304.24 290.05 297.51 294.49 293.22"/><polygon class="cls-4" points="299.08 295.98 294.49 293.22 302.6 292.76 299.08 295.98"/><polygon class="cls-4" points="310.87 326.43 321.58 325.82 322.04 336.84 311.48 343.42 304.9 338.98 303.52 333.01 310.87 326.43"/><polygon class="cls-3" points="327.55 335.61 321.58 325.82 313.01 334.24 311.48 343.42 320.36 343.88 327.55 335.61"/><polygon class="cls-4" points="279.49 312.35 275.05 324.75 278.72 329.49 289.29 328.27 293.88 315.26 292.65 310.21 279.49 312.35"/><polygon class="cls-2" points="281.33 279.14 285.92 284.04 279.03 290.31 273.83 287.71 274.44 281.59 281.33 279.14"/><polygon class="cls-4" points="281.02 288.48 277.04 285.88 280.41 282.36 283.47 286.33 281.02 288.48"/><path class="cls-18" d="M291.85,288.9a1.42,1.42,0,0,0-2-.31,1.5,1.5,0,0,0-.42,2,1.42,1.42,0,0,0,2,.31A1.49,1.49,0,0,0,291.85,288.9Z"/><path class="cls-18" d="M299.18,288.38a1.42,1.42,0,0,0-2-.31,1.49,1.49,0,0,0-.43,2,1.44,1.44,0,0,0,2,.31A1.5,1.5,0,0,0,299.18,288.38Z"/><polygon class="cls-2" points="305.36 311.44 310.87 326.43 304.9 338.98 291.89 340.36 286.38 335.31 289.29 328.27 290.97 314.65 297.09 307.91 305.36 311.44"/><polygon class="cls-17" points="275.05 324.75 270 338.83 282.09 346.17 289.29 328.27 275.05 324.75"/><polygon class="cls-3" points="282.09 346.17 275.05 338.21 280.25 329.49 289.29 328.27 291.89 340.36 282.09 346.17"/><polygon class="cls-3" points="290.97 314.65 279.49 312.35 279.03 307.15 283.78 305.31 298.32 304.24 305.36 311.44 298.01 309.75 290.97 314.65"/><polygon class="cls-2" points="283.78 305.31 276.43 300.26 266.48 311.89 279.49 312.35 283.78 305.31"/><polygon class="cls-3" points="268.01 297.66 261.89 304.85 266.48 311.89 273.52 308.37 276.43 300.26 268.01 297.66"/><path class="cls-1" d="M507.09,176.91,494.85,211.5l2.14,75L511.07,284ZM321.43,225.27l4.74,26-8.87,18.06-2.91-8Z"/><polygon class="cls-13" points="372.55 88.76 379.13 142.33 376.99 142.63 370.1 86.93 407.91 81.72 408.06 84.17 372.55 88.76"/><polygon class="cls-13" points="331.22 94.58 333.52 109.88 331.84 110.19 329.23 93.05 341.33 91.21 341.48 93.05 331.22 94.58"/><polygon class="cls-13" points="335.66 136.97 337.35 149.67 335.97 149.82 333.98 135.59 343.47 134.22 343.62 135.75 335.66 136.97"/><polygon class="cls-13" points="437.14 75.6 439.13 93.81 437.3 94.12 435 74.07 450.61 71.32 450.76 73.15 437.14 75.6"/></g></svg>