<svg id="ILLUSTRATION" xmlns="http://www.w3.org/2000/svg" viewBox="0 0 900 350"><defs><style>.cls-1{fill:#a2a1a1;}.cls-1,.cls-10,.cls-11,.cls-12,.cls-13,.cls-14,.cls-15,.cls-16,.cls-17,.cls-18,.cls-19,.cls-2,.cls-20,.cls-21,.cls-22,.cls-23,.cls-26,.cls-3,.cls-4,.cls-45,.cls-46,.cls-47,.cls-48,.cls-5,.cls-6,.cls-7,.cls-8,.cls-9{fill-rule:evenodd;}.cls-2,.cls-32{fill:#5ebfd8;}.cls-3{fill:#cecdcc;}.cls-33,.cls-4{fill:#74cee4;}.cls-28,.cls-5{fill:#debca4;}.cls-29,.cls-6{fill:#c2977a;}.cls-7{fill:#28788b;}.cls-30,.cls-8{fill:#369395;}.cls-39,.cls-9{fill:#8a6651;}.cls-10,.cls-42{fill:#72cbcb;}.cls-11,.cls-43{fill:#50a8a9;}.cls-12,.cls-41{fill:#e8c9b6;}.cls-13,.cls-16,.cls-20,.cls-24,.cls-25,.cls-40{fill:#2b2b2b;}.cls-14,.cls-44{fill:#fff;}.cls-15,.cls-27{fill:#3a9fb9;}.cls-16,.cls-24{opacity:0.1;}.cls-17{fill:#ebebea;}.cls-18{fill:#c3c3c3;}.cls-19{fill:#dcdcdb;}.cls-20,.cls-25{opacity:0.1;}.cls-21{fill:#1d7678;}.cls-22,.cls-34{fill:#8e8e8e;}.cls-23{fill:#737474;}.cls-26,.cls-31{fill:#318ea5;}.cls-35,.cls-48{fill:#848585;}.cls-36,.cls-47{fill:#6f7273;}.cls-37,.cls-46{fill:#4f5353;}.cls-38{fill:#474748;}.cls-45{fill:#92d5d5;}</style></defs><title>sentinels_Logistician_ISTJ_parenthood</title><polygon class="cls-1" points="226.04 184.92 310.77 26.67 899.69 32.21 894.44 316.83 310.44 270.58 226.04 184.92"/><polygon class="cls-2" points="226.04 184.92 310.77 26.67 899.94 0 899.69 32.21 304.44 53.33 226.04 184.92"/><polygon class="cls-3" points="310.44 270.58 9.44 320.83 1.06 35.71 310.77 26.67 310.44 270.58"/><polygon class="cls-4" points="310.44 52.67 1.06 35.71 0 0.02 310.77 26.67 310.44 52.67"/><polygon class="cls-5" points="139.15 177.96 129.52 182.71 112.52 172.58 118.6 160.17 131.81 164.13 139.15 177.96"/><polygon class="cls-6" points="142.77 167.17 138.85 165.67 131.81 164.13 129.52 182.71 147.6 185.83 153.77 179 142.77 167.17"/><polygon class="cls-5" points="156.02 182.83 152.27 173.33 145.02 161.58 133.23 158.88 132.06 162.33 140.77 167.08 143.52 175.58 156.02 182.83"/><polygon class="cls-5" points="245.1 169.33 261.8 185.19 269.1 205.17 240.1 216 245.1 169.33"/><polygon class="cls-6" points="236.1 192.33 269.1 205.17 242.27 229 234.44 218.83 236.1 192.33"/><polygon class="cls-7" points="202.96 59.4 190.65 99.03 217.06 162.97 221.25 127.94 234.3 70.03 202.96 59.4"/><path class="cls-8" d="M202.7,59.31,194,56.88,190.68,99l12.77-17s8.27-19.62,7.78-18.35C211.05,64.32,207,62,202.7,59.31Z"/><polygon class="cls-8" points="190.65 99.03 173.1 121.84 185.16 153.29 188.51 158.12 216.4 162.91 209.06 122.3 190.65 99.03"/><polygon class="cls-7" points="173.1 121.84 180.08 177.6 190.03 170.38 209.09 161.7 202.22 154.06 173.1 121.84"/><polygon class="cls-7" points="298.42 81.91 290.99 89.49 271.84 65.57 290.58 60.94 298.42 81.91"/><polygon class="cls-5" points="290.99 89.49 280.09 145.42 250.64 141.79 240.97 145.39 227.33 160.09 211.77 159.34 226.31 105.32 228.72 77.57 256.84 62.58 279.69 68.64 290.99 89.49"/><polygon class="cls-9" points="236.97 76.13 279.68 68.64 284.04 76.67 236.97 76.13"/><polygon class="cls-6" points="240.97 145.39 231.04 156.78 214.72 165.95 211.69 159.8 208.43 111.25 218.51 98.18 224.34 98.42 228.72 77.57 236.97 76.13 227.72 139.23 240.97 145.39"/><polygon class="cls-9" points="231.04 156.78 219.5 138.35 250.64 141.79 231.04 156.78"/><polygon class="cls-5" points="218.18 110.69 208.43 111.25 206.11 92.83 219.69 91.44 218.18 110.69"/><polygon class="cls-10" points="203.42 82.06 298.9 65.27 285.81 24.93 213.85 58.42 203.42 82.06"/><polygon class="cls-11" points="285.81 24.93 194.03 56.88 203.42 82.06 285.81 24.93"/><polygon class="cls-6" points="252.19 86.75 241.02 85.42 252.19 94.64 258.82 114.45 261.43 98.36 259.83 90.53 252.19 86.75"/><polygon class="cls-6" points="278.12 91.31 270.99 92.08 263.47 106.06 263.79 115.42 276.72 98.8 285.6 91.67 278.12 91.31"/><polygon class="cls-12" points="259.83 90.53 258.82 114.45 263.79 115.43 270.99 92.08 259.83 90.53"/><polygon class="cls-8" points="241.02 85.42 257.6 85 259.83 90.53 241.02 85.42"/><polygon class="cls-8" points="270.99 92.08 273.6 87.17 285.6 91.67 270.99 92.08"/><polygon class="cls-9" points="260.71 117.33 263.79 115.43 258.82 114.45 260.71 117.33"/><path class="cls-9" d="M210.87,96.06c.34.13,4.95-.2,4.95-.2l-1.25,9.63Z"/><polygon class="cls-9" points="218.18 110.69 209.06 122.3 208.43 111.25 218.18 110.69"/><path class="cls-13" d="M255.69,97.34a3.48,3.48,0,0,1-4.58,2,3.53,3.53,0,0,1-2-4.57,3.53,3.53,0,0,1,6.58,2.57Z"/><path class="cls-13" d="M279.11,100.9a3.48,3.48,0,0,1-4.58,2,3.38,3.38,0,0,1-1.83-4.51,3.44,3.44,0,0,1,4.41-2.06A3.48,3.48,0,0,1,279.11,100.9Z"/><polygon class="cls-14" points="259.81 124.92 269.23 128.71 258.1 131.33 247.27 125.21 259.81 124.92"/><polygon class="cls-10" points="270.33 128.96 258.02 133.74 245.15 124.96 248.37 125.02 248.65 125.55 258.52 129.58 267.77 128.52 267.83 128.05 270.33 128.96"/><polygon class="cls-7" points="270.33 128.96 259.82 122.63 245.15 124.96 248.65 125.55 259.21 126.21 267.77 128.52 270.33 128.96"/><polygon class="cls-6" points="251.63 291.33 249.81 282.72 234.83 275.92 236.83 289 240 293.7 246.09 295.49 251.63 291.33"/><polygon class="cls-6" points="194.96 281.14 200.5 300.34 206.29 301.8 209.43 297.05 213.23 289 203.57 274.02 194.96 281.14"/><polygon class="cls-9" points="195.41 282.63 213.23 289 216.94 281.14 207.17 267.37 195.41 282.63"/><path class="cls-9" d="M249.81,282.72c.69-.11-13,6.28-13,6.28l-4.51-6.28,5-8.7Z"/><polygon class="cls-7" points="243.55 316.17 240.1 316.07 237.93 302.76 240 293.7 247.99 299.02 246.21 304.24 243.55 316.17"/><polygon class="cls-7" points="200.46 299.81 195.14 311.24 201.18 321.29 200.46 299.81"/><polygon class="cls-5" points="209.43 297.05 214.75 305.33 209.82 311.63 199.18 313.7 200.46 299.81 209.43 297.05"/><polygon class="cls-15" points="199.18 313.7 214.75 305.33 216.92 308.48 213.57 313.7 198.98 317.25 199.18 313.7"/><polygon class="cls-5" points="198.98 317.25 216.92 308.48 222.44 317.25 213.76 318.93 198.98 317.25"/><polygon class="cls-5" points="251.63 291.33 260.7 301.19 255.97 306.31 248.97 308.87 240 293.7 251.63 291.33"/><polygon class="cls-15" points="248.97 308.87 260.7 301.19 263.65 303.85 259.32 308.68 250.75 311.24 248.97 308.87"/><polygon class="cls-5" points="250.75 312.03 263.65 303.85 272.13 312.03 260.8 313.8 250.75 312.03"/><polygon class="cls-7" points="198.98 317.25 201.18 321.29 224.64 321.29 224.64 317.25 198.98 317.25"/><polygon class="cls-7" points="246.21 304.24 244.44 305.92 245.13 307.69 253.6 316.36 272.13 316.36 272.13 312.03 256.86 312.03 246.21 304.24"/><polygon class="cls-6" points="198.98 317.25 219.68 312.82 224.64 317.25 198.98 317.25"/><polygon class="cls-6" points="256.86 312.03 273.11 306.31 272.13 312.03 256.86 312.03"/><polygon class="cls-15" points="196.15 214.15 206.99 245.3 237.56 223.8 261.8 185.19 239.72 158.66 195.21 188.42 196.15 214.15"/><polygon class="cls-5" points="234.77 153.92 202.22 154.06 190.48 166.81 195.21 188.42 232.25 165.27 234.77 153.92"/><polygon class="cls-2" points="261.8 185.19 247.35 155.08 234.77 153.92 195.21 188.42 261.8 185.19"/><polygon class="cls-8" points="216.35 282.72 231.62 272.14 222.1 232.01 180.95 232.6 195.41 282.63 216.35 282.72"/><polygon class="cls-2" points="238.83 250.65 237.56 223.8 196.15 214.15 180.95 232.6 224.08 264.84 238.83 250.65"/><polygon class="cls-15" points="249.81 282.72 223.85 274.85 224.08 264.84 237.56 223.8 249.81 282.72"/><polygon class="cls-7" points="249.81 282.72 216.35 282.72 224.08 264.84 249.81 282.72"/><polygon class="cls-6" points="165.52 189.33 178.65 196.83 195.21 188.42 202.22 154.06 175.27 174.08 165.52 189.33"/><polygon class="cls-5" points="242.4 230.96 249.1 235.75 247.27 224.33 240.6 218.83 242.4 230.96"/><polygon class="cls-6" points="232.27 226 240.6 218.83 249.1 235.75 240.52 237.46 232.27 226"/><polygon class="cls-5" points="152.27 173.33 175.27 174.08 178.65 196.83 147.6 185.83 152.27 173.33"/><g id="rules"><polygon class="cls-16" points="48.94 100 30.77 76 26.1 184.67 98.44 180.67 98.6 115.33 48.94 100"/><polygon class="cls-17" points="30.77 76 31.44 179 106.44 175.33 106.44 78.67 30.77 76"/><polygon class="cls-4" points="42.27 73 42.27 80.67 47.77 80.67 47.77 73.33 42.27 73"/><polygon class="cls-4" points="87.94 74.17 87.94 81.83 93.44 81.83 93.44 74.5 87.94 74.17"/><path class="cls-3" d="M49.26,97.48l2.53-2.73-1.72-5-8.3,1.52L41.67,104h3.84l.1-4,4.56,3.44,2.12-2.83ZM45.6,95.8l0-2.13,1.93-.56.31.83Z"/><polygon class="cls-3" points="55.19 91.71 55.19 103.58 63.31 104.08 66.69 93.83 63.56 92.58 61.19 99.46 58.44 99.08 58.31 92.33 55.19 91.71"/><polygon class="cls-3" points="67.69 91.33 68.31 103.96 75.94 103.58 75.56 99.33 72.19 99.71 71.06 91.33 67.69 91.33"/><polygon class="cls-3" points="79.52 90.92 78.31 102.83 85.69 103.96 86 101.3 81.53 100.55 81.81 98.5 84 98.85 84.21 96.31 82.14 95.94 82.33 94.04 86.46 94.73 86.75 92.21 79.52 90.92"/><polygon class="cls-3" points="94.11 90.4 88.44 94.34 89.34 98.15 94.53 98.42 94.67 99.94 90.24 100.57 90.65 103.06 98.13 102.09 97.64 95.93 93.21 95.79 93.14 94.62 96.05 92.19 94.11 90.4"/><polygon class="cls-3" points="41.85 118.58 97.77 117.5 97.52 120.67 41.94 121.58 41.85 118.58"/><polygon class="cls-3" points="41.85 132.25 97.77 131.17 97.52 134.33 41.94 135.25 41.85 132.25"/><polygon class="cls-3" points="41.85 145.92 97.77 144.83 97.52 148 41.94 148.92 41.85 145.92"/><polygon class="cls-3" points="41.85 159.58 97.77 158.5 97.52 161.67 41.94 162.58 41.85 159.58"/></g><polygon class="cls-18" points="814.44 63.67 572.44 67.33 568.77 215.33 819.44 225 814.44 63.67"/><polygon class="cls-3" points="766.1 124.67 715.44 127.33 756.31 137.96 774.44 138.58 802.1 128.33 766.1 124.67"/><polygon class="cls-19" points="715.44 127.33 767.44 119.67 802.1 128.33 774.94 132.58 759.94 128.58 715.44 127.33"/><polygon class="cls-20" points="696.7 156.66 702.18 152.39 709.29 153.54 703.46 156.42 696.7 156.66"/><polygon class="cls-21" points="699.18 144.75 702.54 154.88 703.21 154.84 701.91 146.2 699.18 144.75"/><polygon class="cls-11" points="700.42 136.02 696.69 141.09 701.91 146.2 707.65 141 700.42 136.02"/><polygon class="cls-10" points="695.6 137.24 691.65 147.13 701.91 146.2 697.44 140.96 695.6 137.24"/><polygon class="cls-8" points="698.5 128.71 695.22 134.63 697.44 140.96 706.38 134.53 698.5 128.71"/><polygon class="cls-11" points="694.92 129.68 690.82 137.4 697.44 140.96 698.9 132.2 694.92 129.68"/><polygon class="cls-11" points="695.47 127.19 696.48 115.92 703.94 129.96 698.9 132.2 695.47 127.19"/><polygon class="cls-10" points="696.48 115.92 691.35 131.13 698.9 132.2 696.48 115.92"/><polygon class="cls-20" points="725.6 149.03 728.97 148.54 731.71 150.74 728.54 150.56 725.6 149.03"/><polygon class="cls-21" points="729.53 144.57 728.51 149.68 728.81 149.83 730.34 145.84 729.53 144.57"/><polygon class="cls-11" points="732.16 141.16 729.35 142.41 730.34 145.84 733.77 145.96 732.16 141.16"/><polygon class="cls-10" points="729.82 140.51 726.75 144.38 730.34 145.84 730.81 142.33 729.82 140.51"/><polygon class="cls-8" points="733.11 137.59 730.29 139.31 730.81 142.33 734.9 142.79 733.11 137.59"/><polygon class="cls-11" points="731.36 137.14 727.71 140.81 730.81 142.33 732.44 139.17 731.36 137.14"/><polygon class="cls-11" points="732.19 136.21 732.29 132.02 734.85 138.11 732.44 139.17 732.19 136.21"/><polygon class="cls-10" points="732.29 132.02 729.88 137.25 732.44 139.17 732.29 132.02"/><polygon class="cls-20" points="769.57 160.25 772.99 158.98 776.35 160.68 772.99 161.2 769.57 160.25"/><polygon class="cls-21" points="772.7 154.7 772.77 160.28 773.11 160.37 773.83 155.85 772.7 154.7"/><polygon class="cls-11" points="774.7 150.54 772.03 152.48 773.83 155.85 777.52 154.16 774.7 150.54"/><polygon class="cls-10" points="773.63 150.46 769.41 153.34 773.83 155.85 773.54 152.07 773.63 150.46"/><polygon class="cls-8" points="774.9 146.58 772.32 149.02 773.54 152.07 777.91 150.73 774.9 146.58"/><polygon class="cls-11" points="774.38 146.96 769.69 149.7 773.54 152.07 774.54 148.39 774.38 146.96"/><polygon class="cls-11" points="773.63 145.34 777.13 141.96 777.25 147.96 774.54 148.39 773.63 145.34"/><polygon class="cls-10" points="777.13 141.96 770.81 146.21 774.54 148.39 777.13 141.96"/><polygon class="cls-3" points="631.29 94.77 594.6 96.14 634.44 108.44 660.65 112 699.6 97.21 662.26 102.09 631.29 94.77"/><polygon class="cls-1" points="700.77 172.33 709.1 143.67 761.1 153.67 794.06 168.83 734.77 194.67 700.77 172.33"/><polygon class="cls-22" points="741.1 159.33 709.1 143.67 691.44 153 697.77 185.67 771.1 195.67 741.1 159.33"/><polygon class="cls-23" points="635.44 182.33 659.44 161.67 691.44 153 742.1 181 667.77 204.67 635.44 182.33"/><polygon class="cls-23" points="795.44 206 742.1 181 741.1 159.33 794.06 168.83 812.77 191.33 795.44 206"/><polygon class="cls-22" points="746.77 205 742.1 181 812.77 191.33 823.44 198.33 815.44 228 753.44 226 746.77 205"/><polygon class="cls-23" points="719.1 195.67 742.1 181 799.44 219.67 714.44 222.67 719.1 195.67"/><polygon class="cls-22" points="679.77 214.67 676.44 185.67 742.1 181 723.44 224.33 679.77 214.67"/><polygon class="cls-23" points="663.1 181 676.44 185.67 710.77 216.33 618.1 218.33 613.77 198.33 663.1 181"/><polygon class="cls-22" points="595.77 201.33 604.69 190.83 659.44 161.67 676.44 185.67 625.77 208.67 595.77 201.33"/><polygon class="cls-23" points="569.44 195.83 604.69 190.83 639.44 219.83 572.19 221.08 569.44 195.83"/><polygon class="cls-19" points="594.6 96.14 632.61 91.42 664.9 97.67 699.6 97.21 656.55 106.36 629.97 98.28 594.6 96.14"/><polygon class="cls-24" points="295.44 248.33 257.94 279.33 238.69 281.33 382.94 300.33 457.44 280.83 430.94 135.83 295.44 248.33"/><path class="cls-19" d="M558.44,58.67l-4,163.16L834.1,239.67l.34-188.34ZM811.69,217.58,578.77,207l-.83-131.17,234-2.66Z"/><polygon class="cls-20" points="625.66 188.06 633.51 184.51 641.73 187.98 633.88 189.75 625.66 188.06"/><polygon class="cls-21" points="632.12 174.45 633.21 187.62 634.03 187.77 634.99 176.98 632.12 174.45"/><polygon class="cls-11" points="636.17 164.29 630.19 169.31 634.99 176.98 643.42 172.39 636.17 164.29"/><polygon class="cls-10" points="630.01 164.36 625.27 175.42 634.99 176.98 633.7 168.1 630.01 164.36"/><polygon class="cls-8" points="635.99 154.93 630.31 161.09 633.7 168.1 643.6 166.58 635.99 154.93"/><polygon class="cls-11" points="631.4 155.05 624.85 166.33 633.7 168.1 635.45 159.25 631.4 155.05"/><polygon class="cls-11" points="631.44 150.58 633.4 141.09 640.58 154.99 635.45 159.25 631.44 150.58"/><polygon class="cls-10" points="633.44 141.08 629.16 154.15 635.45 159.25 633.44 141.08"/><polygon class="cls-20" points="680.58 158.53 684.79 156.72 689.14 158.63 684.94 159.51 680.58 158.53"/><polygon class="cls-21" points="684.14 151.34 684.61 158.37 685.04 158.45 685.64 152.72 684.14 151.34"/><polygon class="cls-11" points="686.38 145.97 683.15 148.59 685.64 152.72 690.17 150.35 686.38 145.97"/><polygon class="cls-10" points="683.1 145.96 679.91 149.86 685.64 152.72 685.03 147.98 683.1 145.96"/><polygon class="cls-8" points="686.36 140.99 683.29 144.22 685.03 147.98 690.43 146.01 686.36 140.99"/><polygon class="cls-11" points="683.92 141.01 680.02 145.26 685.03 147.98 686.04 143.28 683.92 141.01"/><polygon class="cls-11" points="684.68 139.51 685.87 135.61 688.81 141.06 686.04 143.28 684.68 139.51"/><polygon class="cls-10" points="685.87 135.61 682.74 140.51 686.04 143.28 685.87 135.61"/><polygon class="cls-20" points="589.11 199.99 594.37 196.55 600.68 198.12 595.22 200.28 589.11 199.99"/><polygon class="cls-21" points="592.23 189.46 594.5 198.82 595.11 198.84 594.58 190.96 592.23 189.46"/><polygon class="cls-11" points="594 181.69 590.25 185.98 594.58 190.96 600.13 186.7 594 181.69"/><polygon class="cls-10" points="589.56 182.43 586.18 188.45 594.58 190.96 592.64 184.71 589.56 182.43"/><polygon class="cls-8" points="592.8 174.97 589.41 180.05 592.64 184.71 599.47 180.79 592.8 174.97"/><polygon class="cls-11" points="589.51 175.58 585.25 182.22 592.64 184.71 592.9 178.14 589.51 175.58"/><polygon class="cls-11" points="590.19 173.37 593.94 161.75 597.44 175.33 592.9 178.14 590.19 173.37"/><polygon class="cls-10" points="593.94 161.75 587.8 175.18 592.9 178.14 593.94 161.75"/><polygon class="cls-20" points="775.44 201.18 785.04 196.85 795.09 201.08 785.49 203.25 775.44 201.18"/><polygon class="cls-21" points="783.35 184.54 784.67 200.64 785.67 200.83 786.85 187.64 783.35 184.54"/><polygon class="cls-11" points="787.06 172.83 780.98 178.26 783.88 190.71 799 185.9 787.06 172.83"/><polygon class="cls-10" points="784.88 172.02 770.56 184.9 783.88 190.71 785.27 176.78 784.88 172.02"/><polygon class="cls-8" points="788.07 160.68 781 170.96 785.14 179.53 798.13 173.65 788.07 160.68"/><polygon class="cls-11" points="785.06 161.71 773.67 170.72 785.06 179.33 787.41 165.96 785.06 161.71"/><polygon class="cls-11" points="784.16 157.35 787.13 142.08 795 161.77 787.41 165.96 784.16 157.35"/><polygon class="cls-10" points="787.13 142.08 778.44 161.65 787.41 165.96 787.13 142.08"/><g id="cupboard-2" data-name="cupboard"><polygon class="cls-8" points="395.44 234.33 428.19 233.08 428.69 280.08 386.44 295.08 364.69 234.33 395.44 234.33"/><polygon class="cls-11" points="301.19 230.58 262.77 233.33 257.77 280 386.44 295.08 384.44 242.83 301.19 230.58"/><polygon class="cls-10" points="310.44 225.33 262.77 233.33 384.44 242.83 428.19 233.08 310.44 225.33"/><polygon class="cls-8" points="307.19 164.33 312.19 227.08 398.1 234.33 406.19 195.33 397.69 163.58 307.19 164.33"/><polygon class="cls-8" points="289.1 221.83 297.44 229.83 312.19 227.08 313.69 168.58 290.27 177.5 289.1 221.83"/><polygon class="cls-11" points="417.1 229.33 401.94 239.33 385.19 236.96 389.56 179.08 418.77 180 417.1 229.33"/><polygon class="cls-11" points="301.1 164.33 287.6 132.83 282.44 229.83 297.44 229.83 298.44 176.33 301.1 164.33"/><polygon class="cls-8" points="395.44 136.33 430.69 134.83 428.69 280.08 401.94 239.33 405.6 139.17 380.77 143.67 395.44 136.33"/><polygon class="cls-11" points="324.1 131.33 287.6 132.83 290.44 186.83 403.77 188.5 405.6 138.67 324.1 131.33"/><polygon class="cls-10" points="310.31 129.96 287.6 132.83 405.6 138.67 430.69 134.83 310.31 129.96"/><polygon class="cls-10" points="299.19 143.83 298.19 176.71 389.69 177.83 391.19 147.83 299.19 143.83"/><polygon class="cls-11" points="338.27 141.17 337.1 177.67 346.6 178.5 347.77 140.5 338.27 141.17"/><path class="cls-11" d="M332.44,159.92c0,2.16-1.16,3.91-2.59,3.91s-2.58-1.75-2.58-3.91,1.16-3.92,2.58-3.92S332.44,157.75,332.44,159.92Z"/><path class="cls-11" d="M356.52,160.92c0,2.16-1.16,3.91-2.58,3.91s-2.59-1.75-2.59-3.91,1.16-3.92,2.59-3.92S356.52,158.75,356.52,160.92Z"/><polygon class="cls-10" points="271.44 244.08 268.19 271.83 374.69 282.83 372.69 252.58 271.44 244.08"/><polygon class="cls-11" points="314.19 245.08 311.19 279.33 321.44 280.08 322.94 244.83 314.19 245.08"/><path class="cls-11" d="M306.94,261.62c0,2-1.12,3.55-2.5,3.55s-2.5-1.59-2.5-3.55,1.12-3.54,2.5-3.54S306.94,259.67,306.94,261.62Z"/><path class="cls-11" d="M332.35,264.29c0,2-1.12,3.54-2.5,3.54s-2.5-1.58-2.5-3.54,1.12-3.54,2.5-3.54S332.35,262.34,332.35,264.29Z"/></g><polygon class="cls-25" points="620.19 325.33 562.94 313.83 520.48 319.33 528.01 317.67 471.97 304.87 403.77 315.67 469.91 330.46 497.94 326.33 558.94 345.08 620.19 325.33"/><polygon class="cls-16" points="301.88 317.25 216.92 308.48 181.54 313.45 128.94 300.08 51.94 256.83 27.19 240.83 12.94 276.83 19.69 319.33 90.94 335.83 172.63 319.12 220 330.19 301.88 317.25"/><polygon class="cls-25" points="580.1 313.67 785.77 336.33 865.69 314.33 831.69 261.08 580.1 313.67"/><polygon class="cls-26" points="771.77 266.67 831.77 261.33 839.44 312.33 781.94 328 764.44 282.67 771.77 266.67"/><polygon class="cls-15" points="643.1 254.67 584.44 260.67 581.94 310.96 781.94 328 786.44 274 643.1 254.67"/><polygon class="cls-4" points="650.94 249.33 831.77 261.33 786.44 274 584.44 260.67 650.94 249.33"/><polygon class="cls-4" points="598.81 271.58 771.69 283.83 767.77 317.17 596.44 302.58 598.81 271.58"/><polygon class="cls-15" points="673.56 273.46 670.19 312.33 679.6 313.67 684.19 273.83 673.56 273.46"/><ellipse class="cls-27" cx="660.56" cy="293.02" rx="3.63" ry="4.69"/><ellipse class="cls-27" cx="691.31" cy="295.52" rx="3.63" ry="4.69"/><g id="flowers"><polygon class="cls-16" points="73.35 241.17 95.52 246.25 118.44 242.17 95.27 239.17 73.35 241.17"/><polygon class="cls-7" points="86.27 231.17 80.27 222.5 95.27 219.17 112.44 222.17 93.1 237.5 86.27 231.17"/><polygon class="cls-8" points="105.27 208 103.77 213.58 98.52 228.58 95.44 224.67 104.52 208.42 105.27 208"/><polygon class="cls-8" points="101.02 205.58 101.44 197.08 113.94 204.58 111.52 210.33 103.77 213.58 101.02 205.58"/><polygon class="cls-8" points="89.27 207.92 88.77 211.42 93.27 230.25 95.44 224.67 89.27 207.92"/><polygon class="cls-8" points="88.69 202.08 86.69 195.83 77.85 197.92 79.69 205.25 88.77 211.42 88.69 202.08"/><polygon class="cls-15" points="91.44 233.67 96.1 243 105.94 241.42 112.44 222.17 95.44 224.67 91.44 233.67"/><polygon class="cls-26" points="80.27 222.5 87.19 241.08 96.1 243 95.44 224.67 80.27 222.5"/><polygon class="cls-10" points="88.77 211.42 77.35 207.58 77.85 197.92 88.77 211.42"/><polygon class="cls-11" points="88.77 211.42 86.69 195.83 93.02 200.67 88.77 211.42"/><polygon class="cls-11" points="101.44 197.08 96.69 203.58 103.77 213.58 101.44 197.08"/><polygon class="cls-10" points="113.94 204.58 103.77 213.58 114.02 212.58 113.94 204.58"/></g><g id="child"><polygon class="cls-28" points="416.1 206.33 405.85 208.83 397.81 201.21 403.56 194.83 412.13 199.33 416.1 206.33"/><polygon class="cls-29" points="419.77 201.75 417.94 200.08 412.13 199.33 405.85 208.83 415.5 211.83 426.69 211.17 419.77 201.75"/><polygon class="cls-28" points="425.6 208.5 424.97 204.68 421.27 197.42 413.96 194.19 412.6 196.94 417.75 200.62 417.85 204.25 423.27 211.17 425.6 208.5"/><polygon class="cls-30" points="458.27 212.67 450.39 201.04 432.77 219.83 452.1 236.33 458.27 212.67"/><polygon class="cls-28" points="526.69 213.71 529.31 206.29 537.5 202.27 542.88 207.9 536.4 216.71 526.69 213.71"/><polygon class="cls-29" points="522.52 209.96 525.27 207.96 529.31 206.29 536.4 216.71 526.98 221.88 519.56 217.13 522.52 209.96"/><polygon class="cls-27" points="528.93 196.32 528.37 193.7 530.15 193.54 534.93 199.51 532.58 200.54 528.93 196.32"/><polygon class="cls-31" points="533.62 200.76 528.37 193.7 527.68 195.07 532.65 201.57 533.62 200.76"/><polygon class="cls-27" points="538.1 212.08 548.35 213.33 546.02 217.5 531.77 221.67 531.77 213.92 538.1 212.08"/><polygon class="cls-31" points="529.52 202.42 521.35 200.75 518.6 204.08 531.77 221.67 534.02 218.17 529.52 202.42"/><polygon class="cls-32" points="521.35 200.75 534.02 218.17 548.35 213.33 535.94 198.25 521.35 200.75"/><polygon class="cls-33" points="535.44 202.29 527.65 203.75 531.19 208.42 538.69 206.17 535.44 202.29"/><polygon class="cls-27" points="533.16 210.16 535.14 209.43 536.14 210.94 535.78 212.19 534.36 211.86 533.16 210.16"/><polygon class="cls-27" points="535.91 212.5 535.48 213.69 536.27 215.29 538.14 214.41 537.3 212.83 535.91 212.5"/><polygon class="cls-27" points="535.41 212.41 534.09 212.1 532.58 212.61 533.61 214.15 535.09 213.65 535.41 212.41"/><polygon class="cls-27" points="536.2 212.07 536.55 210.9 537.8 210.43 538.83 212.08 537.33 212.57 536.2 212.07"/><polygon class="cls-27" points="539.02 208.81 539.85 210.06 541.63 209.5 540.69 208.29 539.02 208.81"/><polygon class="cls-27" points="540.16 210.56 541.87 209.95 543.1 211.44 541.31 212.1 540.16 210.56"/><polygon class="cls-28" points="519.85 219.08 519.31 214.21 520.69 206.67 528.02 201.67 529.81 203.58 525.27 207.96 525.98 214.13 519.85 219.08"/><polygon class="cls-30" points="477.67 217.63 494.27 201 513.19 227.96 494.44 235.33 477.67 217.63"/><polygon class="cls-34" points="449.05 141.79 464.34 111.22 480.63 117.77 488.98 148.99 449.05 141.79"/><polygon class="cls-35" points="467.44 141.71 480.63 117.77 500.04 123.13 488.98 148.99 467.44 141.71"/><polygon class="cls-36" points="443.22 140.22 429.42 126.08 443.1 114.92 464.34 111.22 461.83 138.02 443.22 140.22"/><polygon class="cls-31" points="490.14 313.75 474.11 318.56 474.46 321.98 495.19 322.1 495.07 318.71 490.14 313.75"/><polygon class="cls-31" points="437.82 311.01 428.32 314 428.38 316.83 454.66 317.12 454.78 313.89 437.82 311.01"/><polygon class="cls-27" points="428.32 314 441.81 305.05 443.28 303.62 454.08 301.31 454.97 305.12 454.78 313.89 428.32 314"/><polygon class="cls-27" points="474.11 318.56 479.69 308.13 482.49 299.9 489.85 302.42 492.12 307.71 495.07 318.71 474.11 318.56"/><polygon class="cls-37" points="440.71 254.46 441.06 286.21 444.48 290.5 459.56 289.21 465.63 272.42 474.05 257.46 442.01 250.74 440.71 254.46"/><polygon class="cls-38" points="441.06 286.21 441.81 305.05 454.97 305.12 459.56 289.21 441.06 286.21"/><polygon class="cls-37" points="493.06 290.46 494.86 260.7 489.86 257.48 474.7 258.23 473.47 259.81 471.05 260.58 464.32 270 465.63 272.42 473.56 291.83 487.39 295.46 493.06 290.46"/><polygon class="cls-38" points="492.12 307.71 493.06 290.46 473.56 291.83 479.81 307.71 492.12 307.71"/><polygon class="cls-38" points="449.28 244.81 440.71 254.46 465.63 272.42 494.86 260.7 449.28 244.81"/><polygon class="cls-29" points="488.44 198.08 495.67 178.12 487.31 137.46 479.58 190.4 475.86 200.48 474.89 210.77 488.44 198.08"/><polygon class="cls-39" points="467.78 209.59 452.54 186.27 454.31 185.09 479.74 185.73 481.51 189.46 485.46 190.47 479.44 203.38 467.78 209.59"/><polygon class="cls-37" points="438.73 165.68 429.42 126.08 439.45 132.35 440.29 134.15 439.68 138.42 438.73 165.68"/><polygon class="cls-28" points="439.45 132.35 437.17 188.54 481.51 189.46 487.31 137.46 461.83 138.02 439.45 132.35"/><polygon class="cls-39" points="495.67 178.12 498.14 171.52 489.74 170.76 495.67 178.12"/><path class="cls-38" d="M509.24,144.87,500,123.13l-12.73,14.33,1.75,24.25,2.84.41,2.35-2.29,8.06.63Z"/><polygon class="cls-29" points="489.74 170.76 498.14 171.52 502.31 160.46 493.15 158.21 489.74 170.76"/><polygon class="cls-39" points="494.38 167.15 494.81 162.08 499.25 162.96 494.38 167.15"/><polygon class="cls-29" points="453.67 167.72 448.66 157.25 442.19 150.71 453.69 150.21 455.15 152.48 457.67 155.4 463.48 152.94 464.88 150.58 478.69 152.02 469.52 158.55 461.2 168.3 453.67 167.72"/><path class="cls-40" d="M472.26,155.85a3.1,3.1,0,0,1-2.72,3.34,3.06,3.06,0,0,1-3.3-2.78,3,3,0,1,1,6-.56Z"/><polygon class="cls-39" points="457.11 171.09 453.67 167.72 461.2 168.3 457.11 171.09"/><polygon class="cls-41" points="454.88 152.1 453.67 167.72 461.2 168.3 463.48 152.94 454.88 152.1"/><polygon class="cls-38" points="453.69 150.21 452.44 146.15 442.19 150.71 453.69 150.21"/><polygon class="cls-38" points="464.88 150.58 467.88 146.96 478.69 152.02 464.88 150.58"/><polygon class="cls-39" points="450.53 174.26 464.94 174.3 465.85 181.78 449.25 181.73 450.53 174.26"/><polygon class="cls-42" points="450.39 201.04 456.25 200.15 467.78 209.59 490.56 200.33 494.27 201 494.69 234.58 466.61 256.87 445.1 230.33 450.39 201.04"/><polygon class="cls-43" points="462.94 236.58 494.44 235.33 494.86 260.7 440.71 254.46 445.1 230.33 462.94 236.58"/><path class="cls-40" d="M450.42,154.93a3.05,3.05,0,0,1-2.73,3.29,3,3,0,0,1-.57-6A3,3,0,0,1,450.42,154.93Z"/><polygon class="cls-44" points="463.42 175.47 451.84 175.43 451.45 177.49 463.77 177.75 463.42 175.47"/><polygon class="cls-30" points="467.5 217.15 456.25 200.15 460.73 198.79 467.73 208.93 488.88 196.71 490.56 200.33 467.5 217.15"/><polygon class="cls-29" points="514.69 218.29 494.44 235.33 506.81 244.71 523.06 226.38 522.12 218.33 514.69 218.29"/><polygon class="cls-43" points="514.69 218.29 523.06 226.38 526.98 221.88 519.31 214.21 514.69 218.29"/><polygon class="cls-29" points="429.27 210.33 445.1 230.33 433.02 240.08 419.77 218.5 422.75 211.15 429.27 210.33"/><polygon class="cls-33" points="424.97 204.68 429.27 210.33 419.77 218.5 415.5 211.83 424.97 204.68"/></g><g id="RC"><polygon class="cls-11" points="528.77 313.5 509.27 313.17 511.1 323.17 546.27 333.5 550.1 321.17 528.77 313.5"/><polygon class="cls-8" points="547.6 316.83 548.19 323.21 546.27 333.5 596.6 320.83 596.56 301.21 564.94 298.5 547.6 316.83"/><polygon class="cls-45" points="550.94 308.83 523.6 309.17 509.27 313.17 548.19 323.21 561.27 319.5 550.94 308.83"/><polygon class="cls-11" points="574.6 296.83 536.27 295.5 523.6 309.17 561.27 319.5 573.6 303.83 574.6 296.83"/><polygon class="cls-45" points="561.27 292.17 536.27 295.5 573.6 303.83 596.56 301.21 561.27 292.17"/><polygon class="cls-8" points="564.5 305.71 558.31 314.21 531.5 307.65 538.13 299.65 564.5 305.71"/><polygon class="cls-8" points="537 325.52 541.75 327.08 541.88 329.4 537.13 327.9 537 325.52"/><polygon class="cls-8" points="513.88 319.21 518.56 320.58 518.56 322.96 514.31 321.4 513.88 319.21"/><polygon class="cls-21" points="574.75 308.21 568.25 316.9 592.31 312.52 592.69 305.77 574.75 308.21"/><path class="cls-46" d="M588,326.55l-2.18,3.66L582,329a2.87,2.87,0,0,1-.82-.55c-1.38-1.58-.74-4.49.46-7.24,1.67-3.86,6.78-4.11,6.78-4.11Z"/><path class="cls-47" d="M592.1,324.93c-1,3.6-3.71,6-6.08,5.34s-3.47-4.09-2.48-7.7,3.7-6,6.07-5.34S593.09,321.32,592.1,324.93Z"/><path class="cls-22" d="M590.8,324.44c-.63,2.28-2.35,3.8-3.84,3.39s-2.21-2.6-1.58-4.88,2.35-3.8,3.84-3.38S591.42,322.16,590.8,324.44Z"/><path class="cls-46" d="M589.22,319.57a1.89,1.89,0,0,0-.82,0c1.11.74,1.58,2.64,1,4.63s-1.76,3.2-3,3.4a2.24,2.24,0,0,0,.54.26c1.5.41,3.22-1.11,3.85-3.39S590.72,320,589.22,319.57Z"/><path class="cls-46" d="M563.75,332.58l-2.5,4.19-4.37-1.35a3.41,3.41,0,0,1-.94-.63c-1.59-1.81-.85-5.14.52-8.29,1.91-4.42,7.77-4.71,7.77-4.71Z"/><path class="cls-47" d="M568.49,330.72c-1.14,4.13-4.25,6.87-7,6.13s-4-4.69-2.85-8.82,4.25-6.87,7-6.13S569.62,326.59,568.49,330.72Z"/><path class="cls-22" d="M567,330.16c-.72,2.62-2.69,4.35-4.4,3.88s-2.52-3-1.81-5.58,2.69-4.35,4.4-3.88S567.72,327.55,567,330.16Z"/><path class="cls-46" d="M565.19,324.58a2.28,2.28,0,0,0-.94,0c1.28.84,1.81,3,1.19,5.29s-2,3.67-3.47,3.9a2.12,2.12,0,0,0,.63.29c1.71.47,3.68-1.26,4.4-3.88S566.91,325.05,565.19,324.58Z"/></g><polygon class="cls-20" points="786.6 260.5 799.19 261.65 805.1 261.83 772.77 272 727.44 268.33 756.44 263 786.6 260.5"/><polygon class="cls-20" points="698.6 259.33 671.94 262.92 704.6 266.33 733.52 260.58 718.52 257.17 698.6 259.33"/><polygon class="cls-11" points="747.31 264.71 746.96 264.48 737.56 258.46 771.73 251.67 799.81 253.71 772.44 266.08 747.31 264.71"/><polygon class="cls-3" points="774.56 262.71 770.19 269.58 737.31 267.33 737.56 258.46 770.81 260.58 774.56 262.71"/><polygon class="cls-19" points="770.19 269.58 799.19 261.65 799.81 253.71 770.81 260.58 770.19 269.58"/><polygon class="cls-11" points="747.31 254.96 746.96 254.73 737.56 248.71 771.73 241.92 799.81 243.96 772.44 256.33 747.31 254.96"/><polygon class="cls-3" points="774.56 252.96 770.19 259.83 737.31 257.58 737.56 248.71 770.81 250.83 774.56 252.96"/><polygon class="cls-19" points="770.19 259.83 799.38 252.27 799.81 243.96 770.81 250.83 770.19 259.83"/><polygon class="cls-19" points="732.44 259 704.94 266.17 673.69 261.33 707.85 253.67 732.44 259"/><polygon class="cls-46" points="127.04 293.66 124.15 305.02 117.63 302.73 109.13 277.23 124.36 282.08 127.04 293.66"/><polygon class="cls-46" points="123.12 282.5 130.97 282.5 132.42 302.54 124.15 305.02 120.13 283.56 123.12 282.5"/><polygon class="cls-46" points="165.44 299.83 158.44 317.08 150.44 314.33 143.44 284.17 157.27 282.17 165.44 299.83"/><polygon class="cls-46" points="36.27 307.83 43.44 319.01 52.6 316.83 61.77 289.5 41.6 287.17 36.27 307.83"/><polygon class="cls-48" points="81.1 296.5 90.69 328.83 102.44 326.33 107.94 298.33 155.44 298 158.44 317.08 169.94 314.83 167.94 251.33 56.94 266.33 81.1 296.5"/><polygon class="cls-47" points="32.44 268.83 32.94 316.83 43.44 319.01 47.1 298.5 73.1 298 77.61 326.12 90.69 328.83 90.44 286.83 32.44 268.83"/><polygon class="cls-11" points="77.44 238.33 65.44 255.33 90.44 286.83 183.1 280 168.44 238.83 77.44 238.33"/><polygon class="cls-8" points="74.94 241.33 27.44 240.83 20.44 274.33 90.44 286.83 91.69 249.83 74.94 241.33"/><polygon class="cls-45" points="27.44 240.83 112.94 230.33 168.44 238.83 91.69 249.83 27.44 240.83"/></svg>