<svg id="ILLUSTRATION" xmlns="http://www.w3.org/2000/svg" viewBox="0 0 900 350"><defs><style>.cls-1,.cls-4{fill:#dcdcdb;}.cls-16,.cls-2{fill:#ebebea;}.cls-3,.cls-6{fill:#cecdcc;}.cls-10,.cls-11,.cls-12,.cls-13,.cls-14,.cls-15,.cls-16,.cls-26,.cls-27,.cls-28,.cls-29,.cls-3,.cls-30,.cls-31,.cls-32,.cls-33,.cls-4,.cls-44,.cls-7,.cls-8,.cls-9{fill-rule:evenodd;}.cls-5{fill:#a2a1a1;}.cls-17,.cls-33,.cls-41,.cls-7{fill:#2b2b2b;}.cls-17,.cls-7{opacity:0.1;}.cls-19,.cls-8{fill:#369395;}.cls-20,.cls-9{fill:#72cbcb;}.cls-10,.cls-45{fill:#50a8a9;}.cls-11{fill:#8e8e8e;}.cls-12,.cls-35{fill:#6f7273;}.cls-13{fill:#9b9fa0;}.cls-14{fill:#848585;}.cls-15{fill:#c3c3c3;}.cls-18,.cls-29{fill:#1d7678;}.cls-21,.cls-44{fill:#28788b;}.cls-22,.cls-30{fill:#474748;}.cls-23{fill:#3a9fb9;}.cls-24{fill:#5ebfd8;}.cls-25{fill:#318ea5;}.cls-26,.cls-37{fill:#8a6651;}.cls-27,.cls-38{fill:#c2977a;}.cls-28,.cls-40{fill:#debca4;}.cls-31,.cls-39{fill:#4f5353;}.cls-32,.cls-42{fill:#e8c9b6;}.cls-34{fill:#185e60;}.cls-36{fill:#74cee4;}.cls-43{fill:#fff;}</style></defs><title>sentinels_Defender_ISFJ_parenthood</title><g id="clouds"><polygon class="cls-1" points="425.75 80.75 407.75 79.5 377.25 81.25 401 85.5 429 96.25 479.25 82 437 84.75 425.75 80.75"/><polygon class="cls-1" points="837.9 51.36 800.79 46.23 748.67 50.57 801.97 66.37 852.51 71.5 899.5 50.57 837.9 51.36"/><polygon class="cls-1" points="129.17 10.17 25.83 26.83 107.83 34.83 190.75 51 323.83 12.17 206.5 24.17 129.17 10.17"/><polygon class="cls-2" points="25.83 26.83 129 0 240.5 13.5 322.5 12.25 194.25 34 123.17 23.5 25.83 26.83"/><polygon class="cls-2" points="748.67 50.57 803.55 42.28 852.12 47.02 899.5 50.57 834.74 62.81 790.92 51.76 748.67 50.57"/><polygon class="cls-2" points="377.25 81.25 417.75 73.5 441.25 78.75 479.25 82 434 89.25 404.75 82.25 377.25 81.25"/></g><g id="hill"><polygon class="cls-1" points="475.17 132.83 417 138.75 355.58 166.83 337.17 168.17 315.17 205.5 470.5 204.83 475.17 132.83"/><polygon class="cls-2" points="536.5 89.17 503.83 87.5 417 138.75 454.5 159.17 484.17 184.17 552.83 129.83 548.5 90.5 536.5 89.17"/><polygon class="cls-3" points="562.5 100.5 567.75 153 665.25 151.25 682.5 152.25 683.25 122 603.75 74.5 562.5 100.5"/><polygon class="cls-4" points="587 66.5 559.17 79.5 503.83 87.5 531.22 99.47 541 107.5 569.5 112.75 604 98.5 587 66.5"/><polygon class="cls-5" points="733.5 97 757.83 86.17 839.19 166.54 822.5 183 728 155 733.5 97"/><polygon class="cls-1" points="717.17 96.83 743.25 107.63 771.3 156.09 676.17 163.17 669.17 148.83 656.75 140.38 717.17 96.83"/><polygon class="cls-6" points="646.83 71.5 660.5 120.83 680.5 130 743.25 107.63 757.83 86.17 687.17 68.83 646.83 71.5"/><polygon class="cls-1" points="598.83 55.83 601 96.33 649.34 128.51 659.5 128.17 676.17 92.17 687.17 68.83 626.5 25.5 598.83 55.83"/><polygon class="cls-2" points="603.17 99 626.5 25.5 559.17 79.5 603.17 99"/><polygon class="cls-1" points="334.5 173 241.75 159.25 120 207 145 263 357.5 212 334.5 173"/></g><g id="behind_trees" data-name="behind trees"><polygon class="cls-7" points="411.12 180.08 422.65 174.23 435.13 173.39 424.63 180.54 411.12 180.08"/><polygon class="cls-8" points="417.99 166.22 421.72 176.92 424.23 177.84 425.26 175.71 422.05 165.23 417.99 166.22"/><polygon class="cls-9" points="416.42 148.02 436.5 156 419.2 169.68 409.5 158.5 416.42 148.02"/><polygon class="cls-10" points="411.15 151.72 401.25 167.52 419.2 169.68 416.86 155.79 411.15 151.72"/><polygon class="cls-10" points="414.04 132.65 413.27 136.06 427.36 144.3 416.86 155.79 407.71 137.07 414.04 132.65"/><polygon class="cls-8" points="407.3 139.26 399.05 153.32 416.86 155.79 411 143.18 407.3 139.26"/><polygon class="cls-9" points="405.71 138.19 403.7 117.47 421.88 134.78 411 143.18 405.71 138.19"/><polygon class="cls-10" points="403.7 117.47 398.57 141.74 411 143.18 403.7 117.47"/><polygon class="cls-7" points="367.38 192.14 374.2 190.89 380.76 192.36 374.26 194.44 367.38 192.14"/><polygon class="cls-8" points="373.03 186.05 373.32 192.13 374.46 192.99 375.32 192.05 375.27 186.16 373.03 186.05"/><polygon class="cls-9" points="375 176.44 382.4 184.22 373.13 188.02 369.83 180.78 375 176.44"/><polygon class="cls-10" points="371.72 177.55 363.67 186 373.13 188.02 374.04 180.51 371.72 177.55"/><polygon class="cls-10" points="376.12 168.16 375.2 169.8 381.19 176.19 374.04 180.51 372.18 169.48 376.12 168.16"/><polygon class="cls-8" points="371.64 170.54 365.25 176.52 374.04 180.51 372.95 173.12 371.64 170.54"/><polygon class="cls-9" points="370.98 169.75 375.17 159 379.83 170.46 372.95 173.12 370.98 169.75"/><polygon class="cls-10" points="375.17 159 366.76 170.49 372.95 173.12 375.17 159"/><polygon class="cls-7" points="835.44 183.88 845.85 181.96 855.85 184.21 845.94 187.38 835.44 183.88"/><polygon class="cls-8" points="844.06 174.58 844.5 183.85 846.25 185.17 847.56 183.73 847.48 174.75 844.06 174.58"/><polygon class="cls-9" points="847.06 159.92 858.35 171.79 844.21 177.58 839.19 166.54 847.06 159.92"/><polygon class="cls-10" points="842.06 161.6 830.6 171.71 844.21 177.58 845.6 166.13 842.06 161.6"/><polygon class="cls-10" points="848.77 147.29 847.38 149.79 857 163.25 845.33 168.25 842.77 149.29 848.77 147.29"/><polygon class="cls-8" points="841.94 150.92 832.17 162.92 845.33 168.25 847.04 153.79 841.94 150.92"/><polygon class="cls-9" points="840.94 149.71 844.19 132.96 854.44 150.79 847.04 153.79 840.94 149.71"/><polygon class="cls-10" points="844.19 132.96 834.5 150.83 847.04 153.79 844.19 132.96"/><polygon class="cls-7" points="601.32 145.87 611.4 142.44 621.63 143.78 612.23 148.56 601.32 145.87"/><polygon class="cls-8" points="608.61 134.32 610.32 144.75 612.23 146.02 613.34 144.24 612.02 134.1 608.61 134.32"/><polygon class="cls-9" points="609.57 117.39 622.41 129.44 609.16 137.7 602.66 125.82 609.57 117.39"/><polygon class="cls-10" points="604.84 119.89 594.85 132.7 609.16 137.7 608.98 124.58 604.84 119.89"/><polygon class="cls-10" points="609.53 102.91 608.49 105.9 620.5 119.88 608.98 124.58 603.85 105.89 609.53 102.91"/><polygon class="cls-8" points="603.25 107.83 594.88 123.38 608.98 124.58 605.77 112.04 603.25 107.83"/><polygon class="cls-9" points="602.09 106.59 601.5 85.67 615.64 106.18 605.77 112.04 602.09 106.59"/><polygon class="cls-10" points="601.5 85.67 595.85 108.63 605.77 112.04 601.5 85.67"/></g><g id="land"><polygon class="cls-11" points="198.5 202.17 175.08 214.79 50.5 257.5 0.13 290.88 205.17 298.83 259.83 234.17 198.5 202.17"/><polygon class="cls-12" points="235.17 240.17 225.83 223.5 200.83 228.17 187.17 238.17 0.13 290.88 50.5 319.5 263.5 301.83 235.17 240.17"/><polygon class="cls-13" points="238.83 261.83 207.83 277.83 50.5 319.5 219.83 331.5 294.17 278.83 238.83 261.83"/><polygon class="cls-11" points="337.5 195.67 290.67 198.67 289 226.83 329.33 225.83 337.5 195.67"/><polygon class="cls-13" points="330.83 214.83 324.75 211 289.83 219.83 297.67 251 337.83 228.17 330.83 214.83"/><polygon class="cls-11" points="372.47 244.47 387.17 254.83 373.5 284.17 355.83 319.83 220.38 331.38 253.83 295.17 274.5 270.17 372.47 244.47"/><polygon class="cls-13" points="423.67 183.83 405.17 180.5 385.5 182.74 326 189.5 324.75 211 392.33 209.83 423.67 183.83"/><polygon class="cls-12" points="396.83 244 381.13 257 367.17 288.5 352.33 302.33 352.17 312.5 503.83 309 507.67 236.17 396.83 244"/><polygon class="cls-13" points="464 216.5 508.17 245.17 570 244.5 563 191.5 546 173.5 474.5 191.5 464 216.5"/><polygon class="cls-11" points="378.17 241.83 381.13 257 508.17 245.17 483.83 188.5 380.5 215.17 378.17 241.83"/><polygon class="cls-13" points="374.5 220.17 392.5 227.5 381.13 257 282.17 278.17 308.83 234.17 374.5 220.17"/><polygon class="cls-11" points="405 216.5 392.5 227.5 310.75 246.5 310.5 230 320.5 224.17 341.25 213.75 411.75 200 405 216.5"/><polygon class="cls-12" points="410.17 190.17 399.17 208.17 392.5 227.5 481.5 199.5 485.17 179.5 471.17 162.5 410.17 190.17"/><polygon class="cls-11" points="476.83 160.83 467.17 172.5 486.5 195.17 524.17 190.5 522.5 156.5 476.83 160.83"/><polygon class="cls-12" points="417.5 183.17 405.17 180.5 324.75 211 310.5 230 399.17 208.17 417.5 183.17"/><polygon class="cls-11" points="474.83 161.83 455.5 158.83 405.17 180.5 399.17 208.17 467.17 172.5 474.83 161.83"/><polygon class="cls-13" points="662.5 234.83 592.17 236.83 599.17 268.17 665.83 263.5 662.5 234.83"/><polygon class="cls-11" points="662.83 239.5 651.5 247.5 610.83 242.5 559.5 204.17 649.17 207.83 662.83 239.5"/><polygon class="cls-12" points="580.83 215.83 600.17 212.17 659.83 229.17 629.5 183.17 573.17 193.5 580.83 215.83"/><polygon class="cls-13" points="655.17 199.83 622.5 198.5 583.17 194.17 564.17 175.83 587.17 159.5 705.83 172.17 655.17 199.83"/><polygon class="cls-12" points="637.17 163.5 599.5 169.83 580.83 175.17 555.5 161.5 578.83 149.5 647.83 152.83 637.17 163.5"/><polygon class="cls-11" points="671.17 157.5 624.5 155 599.5 169.83 701.5 183.5 735.5 162.5 671.17 157.5"/><polygon class="cls-11" points="657.5 149.5 657 140.5 580.5 141 569.5 156 624.5 155 657.5 149.5"/><polygon class="cls-13" points="737.83 166.83 742.5 155.5 657 140.5 624.5 155 737.83 166.83"/><polygon class="cls-11" points="834.5 176.5 834 169 791.5 156.5 736 174.5 738.5 191.5 835 199 834.5 176.5"/><polygon class="cls-12" points="831.5 200.5 811 187 834 169 899.92 188.92 880.5 203 831.5 200.5"/><polygon class="cls-14" points="787 194 811 187 880.5 203 860.5 219 767.5 217 787 194"/><polygon class="cls-11" points="745.5 174 811 187 791.5 208.17 783.5 223.5 684 217 692 185 745.5 174"/><polygon class="cls-11" points="788.5 226 791.5 208.17 860.5 219 859 256.5 794 255.5 788.5 226"/><polygon class="cls-13" points="703.17 239.5 700.5 208.5 791.5 208.17 806.5 242.83 712.5 257.5 703.17 239.5"/><polygon class="cls-11" points="839.83 262.83 806.5 242.83 697.83 223.5 733.17 289.5 835.83 292.83 839.83 262.83"/><polygon class="cls-14" points="831.17 298.83 825.83 280.17 736.5 268.17 729.17 294.83 798.5 339.5 831.17 298.83"/><polygon class="cls-14" points="835.83 302.17 825.83 280.17 806.5 242.83 859 256.5 898 297 835.83 302.17"/><polygon class="cls-15" points="676.5 279.5 454.5 286 219.83 331.5 525.5 349.5 798.5 339.5 676.5 279.5"/><polygon class="cls-3" points="689 227.5 651.5 247.5 454.5 286 798.5 339.5 746.13 269.63 689 227.5"/><polygon class="cls-4" points="727.17 177.5 622.5 198.5 651.5 247.5 746.13 269.63 700.5 208.5 727.17 177.5"/><polygon class="cls-16" points="742.5 155.5 622.5 198.5 700.5 208.5 791.5 156.5 742.5 155.5"/><polygon class="cls-12" points="825.83 280.17 798.5 339.5 898 297 825.83 280.17"/><polygon class="cls-13" points="536.83 149.83 511.5 145 455.5 158.83 467.17 172.5 525.5 163.5 536.83 149.83"/></g><g id="flowers"><polygon class="cls-17" points="825.11 273.64 840.72 272.24 853.03 275.33 837.05 277.12 825.11 273.64"/><polygon class="cls-18" points="839.16 263.15 840.4 266.06 839.87 273.6 838.73 271.44 838.14 263.27 839.16 263.15"/><polygon class="cls-19" points="836.59 260.39 833.21 261.01 840.4 266.06 842.61 261.9 836.59 260.39"/><polygon class="cls-20" points="841.26 271.6 845.64 266.68 842.5 274.83 838.58 275.37 841.26 271.6"/><polygon class="cls-19" points="845.64 266.68 838.73 271.44 836.07 271.82 838.58 275.37 841.67 272.71 845.64 266.68"/><polygon class="cls-19" points="837.08 271.82 832.58 266.42 834.88 274.45 838.58 275.37 837.08 271.82"/><polygon class="cls-20" points="838.58 275.37 832.58 266.42 838.73 271.44 838.58 275.37"/><polygon class="cls-20" points="837.35 252.06 833.21 261.01 842.61 261.9 837.35 252.06"/><polygon class="cls-17" points="781.88 290.39 799.45 288.81 813.32 292.29 795.32 294.3 781.88 290.39"/><polygon class="cls-18" points="797.71 278.57 799.1 281.85 798.5 290.33 797.22 287.9 796.55 278.7 797.71 278.57"/><polygon class="cls-19" points="794.81 275.47 790.88 275.46 799.1 281.85 801.42 276.96 794.81 275.47"/><polygon class="cls-20" points="800.07 288.08 805 282.54 802.75 290.83 800.63 291.9 800.07 288.08"/><polygon class="cls-19" points="805 282.54 797.22 287.9 794.22 288.33 797.05 292.33 800.63 291.9 805 282.54"/><polygon class="cls-19" points="795.36 288.34 790.29 282.25 792.88 291.3 797.05 292.33 795.36 288.34"/><polygon class="cls-20" points="797.05 292.33 790.29 282.25 797.22 287.9 797.05 292.33"/><polygon class="cls-20" points="795.67 266.08 790.88 275.46 801.42 276.96 795.67 266.08"/><polygon class="cls-17" points="759.51 257.44 770.82 256.42 779.75 258.66 768.16 259.96 759.51 257.44"/><polygon class="cls-18" points="769.7 249.83 770.59 251.94 770.21 257.41 769.38 255.84 768.95 249.91 769.7 249.83"/><polygon class="cls-19" points="767.83 247.83 765.38 248.28 770.59 251.94 772.19 248.93 767.83 247.83"/><polygon class="cls-20" points="771.22 255.96 774.39 252.39 772.95 257.73 771.58 258.41 771.22 255.96"/><polygon class="cls-19" points="774.39 252.39 769.38 255.84 767.45 256.12 769.28 258.69 771.58 258.41 774.39 252.39"/><polygon class="cls-19" points="768.19 256.12 764.92 252.2 766.59 258.03 769.28 258.69 768.19 256.12"/><polygon class="cls-20" points="769.28 258.69 764.92 252.2 769.38 255.84 769.28 258.69"/><polygon class="cls-20" points="768.61 238.22 765.38 248.28 772.19 248.93 768.61 238.22"/><polygon class="cls-17" points="809.04 237.37 818.04 236.56 825.15 238.34 815.93 239.38 809.04 237.37"/><polygon class="cls-18" points="817.15 231.31 817.86 232.99 817.55 237.34 816.9 236.09 816.56 231.38 817.15 231.31"/><polygon class="cls-19" points="815.66 229.72 813.71 230.08 817.86 232.99 819.13 230.59 815.66 229.72"/><polygon class="cls-20" points="818.36 236.19 820.89 233.35 819.73 237.6 818.64 238.14 818.36 236.19"/><polygon class="cls-19" points="820.89 233.35 816.9 236.09 815.36 236.32 816.81 238.37 818.64 238.14 820.89 233.35"/><polygon class="cls-19" points="815.95 236.32 814.39 234.44 814.67 237.84 816.81 238.37 815.95 236.32"/><polygon class="cls-20" points="816.81 238.37 814.39 234.44 816.9 236.09 816.81 238.37"/><polygon class="cls-20" points="817.27 224.94 813.71 230.08 819.13 230.59 817.27 224.94"/><polygon class="cls-17" points="817.1 308.85 838.65 306.92 855.66 311.18 833.59 313.65 817.1 308.85"/><polygon class="cls-18" points="836.51 294.36 837.38 296.42 837.48 308.79 835.91 305.8 835.09 294.52 836.51 294.36"/><polygon class="cls-19" points="832.96 290.56 828.28 291.41 835.54 300.35 841.26 292.64 832.96 290.56"/><polygon class="cls-20" points="839.41 306.03 842.95 302.14 841.36 310.32 835.77 311.24 839.41 306.03"/><polygon class="cls-19" points="842.95 302.14 835.91 305.8 832.23 306.33 835.71 311.24 842.95 302.14"/><polygon class="cls-19" points="833.63 306.34 827.41 298.87 830.59 309.97 835.71 311.24 833.63 306.34"/><polygon class="cls-20" points="835.71 311.24 827.41 298.87 835.91 305.8 835.71 311.24"/><polygon class="cls-20" points="834.03 282.34 828.28 291.41 841.26 292.64 834.03 282.34"/></g><g id="front_trees" data-name="front trees"><polygon class="cls-7" points="777.64 173.89 799.32 169.9 820.14 174.58 799.5 181.17 777.64 173.89"/><polygon class="cls-8" points="795.59 154.55 796.5 173.84 800.15 176.58 802.88 173.58 802.71 154.9 795.59 154.55"/><polygon class="cls-9" points="801.84 124.02 825.33 152.83 795.9 160.79 785.45 137.81 801.84 124.02"/><polygon class="cls-10" points="791.43 127.53 771.3 156.09 795.9 160.79 798.83 142.08 791.43 127.53"/><polygon class="cls-10" points="805.39 97.75 799.83 111.83 820.83 130.17 798.83 142.08 792.91 101.91 805.39 97.75"/><polygon class="cls-8" points="792.33 108.5 772.5 131.5 798.75 142.06 795.33 113.49 792.33 108.5"/><polygon class="cls-9" points="789.09 102.78 791.5 81.67 818.17 111.83 796.17 120.17 789.09 102.78"/><polygon class="cls-10" points="791.33 81.17 777 111.5 796.17 120.17 791.33 81.17"/><polygon class="cls-7" points="654.75 146.37 669.78 144.88 683.72 149.26 669.25 152.59 654.75 146.37"/><polygon class="cls-8" points="668.1 134.19 667.63 147.42 669.96 149.49 671.99 147.6 672.94 134.84 668.1 134.19"/><polygon class="cls-9" points="674.1 113.71 688.74 131.92 672.29 142.13 662.13 122.19 674.1 113.71"/><polygon class="cls-10" points="666.8 115.52 649.32 128.51 672.38 142.04 671.3 122.36 666.8 115.52"/><polygon class="cls-10" points="678.02 95.97 675.75 99.36 687.83 118.5 671.3 122.36 669.26 98.11 678.02 95.97"/><polygon class="cls-8" points="667.89 100.32 653 115.5 671.3 122.36 670.26 106.15 667.89 100.32"/><polygon class="cls-9" points="666.61 98.48 675.5 71.67 685.66 101.62 670.26 106.15 666.61 98.48"/><polygon class="cls-10" points="675.5 71.67 657.33 99.32 670.26 106.15 675.5 71.67"/></g><g id="dad_s_bicycle" data-name="dad&apos;s bicycle"><polygon class="cls-21" points="128.84 184.03 113.8 203.47 104.9 193.68 110.27 176.45 118.96 167.95 128.84 184.03"/><ellipse class="cls-22" cx="107.79" cy="231.35" rx="48.61" ry="47.15" transform="translate(-141.43 286.4) rotate(-77.47)"/><ellipse class="cls-23" cx="108.38" cy="231.73" rx="37.95" ry="35.99" transform="translate(-141.34 287.26) rotate(-77.47)"/><ellipse class="cls-21" cx="108.96" cy="231.74" rx="32.07" ry="30.41" transform="translate(-140.89 287.84) rotate(-77.47)"/><polygon class="cls-21" points="149.9 166.26 130.95 161.05 130.75 168.74 148 179.4 175.08 214.79 181.13 201.49 180.56 177.46 149.9 166.26"/><polygon class="cls-24" points="135.81 125.4 173.56 151.76 189.78 176.36 181.13 201.49 152.1 176.33 129.38 163.78 135.81 125.4"/><polygon class="cls-24" points="115.23 105.88 123.43 96.7 146.35 92.96 148.58 101.29 135.74 116.26 123.27 109.31 115.23 105.88"/><polygon class="cls-21" points="114.79 107.97 106.85 114.79 113.32 118.25 129.53 114.03 123.88 109.3 114.79 107.97"/><polygon class="cls-21" points="171.04 104.07 169.65 111.38 146.13 110.77 141.79 108.54 142.13 104.48 149.39 99.54 162.23 98.55 171.04 104.07"/><polygon class="cls-25" points="162.72 96.14 169.46 93.61 176.77 101.15 169.65 111.38 165.23 103.47 162.72 96.14"/><polygon class="cls-25" points="110.25 231.88 114.13 239.88 119.88 239.38 135.11 183.62 133.39 170.63 146.13 110.77 142.13 104.48 122.07 149.25 123.19 163.94 125.42 193.25 110.25 231.88"/><path class="cls-24" d="M142.13,104.48l-14.06,65.71.77,13.84-14.72,55.85-7.24-4.38,11.45-46.26.69-12.76-5.08-.73-2.32,7.19s-2.75-.15-3.64-.13c-1.12,0-4.42.28-4.42.28l2.89-7.18,6.37-7.34,11.06-59.27Z"/><polygon class="cls-23" points="169.46 93.61 146.35 92.96 142.13 104.48 165.23 103.47 169.46 93.61"/><polygon class="cls-23" points="123.43 96.7 123.88 109.3 106.85 114.79 108.52 105.12 123.43 96.7"/></g><polygon class="cls-26" points="185.08 200.13 179.08 225.46 197.08 232.13 210.08 213.46 185.08 200.13"/><polygon class="cls-27" points="338.21 159.71 339.33 156.71 352.08 144.46 360.96 152.83 355.58 166.83 338.21 159.71"/><polygon class="cls-26" points="329.46 161.83 339.33 156.71 355.58 166.83 342.08 175.46 332.08 175.83 329.46 161.83"/><polygon class="cls-28" points="332.08 181.79 327.42 170.79 323.75 154.79 333.75 146.46 335.75 150.79 331.42 156.13 336.42 163.79 332.08 181.79"/><polygon class="cls-10" points="217.6 194.67 216.1 211.15 216.25 229.8 175.08 214.79 189.1 174.72 217.6 194.67"/><polygon class="cls-10" points="291.16 155.47 293.09 176.26 292.35 187.63 295.78 206.88 319.42 189.13 291.16 155.47"/><polygon class="cls-8" points="293.09 176.26 283.7 170.93 274.6 174.34 267.13 187.61 262 200.95 262.2 214.87 266.71 239.43 278.07 241.61 298.01 232.72 295.78 206.88 293.09 176.26"/><polygon class="cls-29" points="262 200.95 249.95 191.66 235.7 184.54 221.75 189.27 214.14 198.22 216.25 229.8 217.01 237.5 247.97 244.63 266.71 239.43 262 200.95"/><polygon class="cls-30" points="274.25 260.5 297.12 258.33 301.95 275.44 295.73 273.13 291.83 276.72 269.98 285.84 206.96 277.71 216.55 232.6 266.71 239.43 274.25 260.5"/><polygon class="cls-31" points="266.71 239.43 269.98 285.84 301.95 275.44 298.01 232.72 266.71 239.43"/><polygon class="cls-9" points="274.6 174.34 262 200.95 235.7 184.54 248.71 170.46 274.6 174.34"/><polygon class="cls-9" points="221.84 166.44 189.1 174.72 214.14 198.22 235.7 184.54 238.33 175.58 221.84 166.44"/><polygon class="cls-9" points="260.21 154.71 274.6 174.34 293.09 176.26 291.16 155.47 260.21 154.71"/><polygon class="cls-28" points="318.09 89.7 314.25 162.64 277.56 163.52 268.09 168.87 271 169.5 274.6 174.34 233.55 186.17 221.79 166.48 234.65 131.6 224.54 116.7 240.04 104.19 254.46 123.74 259.21 122.61 242.52 95.17 250.15 89.63 318.09 89.7"/><polygon class="cls-27" points="275.42 103.99 285.31 109.03 291.81 134.01 294.19 114.5 291.26 102.68 275.42 103.99"/><polygon class="cls-27" points="300.23 103.4 312.86 104.25 297.12 121.28 300.23 103.4"/><polygon class="cls-26" points="271.72 135.69 280.07 149.75 305.41 149.34 308.79 140.86 291.92 142.33 271.72 135.69"/><polygon class="cls-27" points="265.35 96.21 265.88 165.66 272.98 164.06 270.9 169.43 255.69 180.25 221.79 166.48 228.95 146.58 229.11 136.47 230.34 129.11 225.23 114.19 242.04 107.15 253.74 125.73 259.21 122.61 252.67 108.4 249.72 92.52 265.35 96.21"/><polygon class="cls-26" points="256.12 163.89 270.88 169.41 277.56 163.52 256.12 163.89"/><polygon class="cls-26" points="233.87 131.38 241.87 128.5 228.95 146.58 229.11 136.47 233.87 131.38"/><polygon class="cls-26" points="318.09 89.7 265.38 98.98 252.13 99.81 251.23 92.88 318.19 80.86 318.4 83.79 318.09 89.7"/><polygon class="cls-26" points="256.12 163.89 268.5 167.5 238.17 171.67 240.26 151.02 256.12 163.89"/><polygon class="cls-31" points="247.19 95.25 252.67 108.4 262.77 123.85 253.74 125.73 241.91 110.36 227.8 116.2 223.42 120.77 215.14 113 210.88 102.12 230.72 87.34 247.19 95.25"/><polygon class="cls-30" points="312.86 104.25 305.92 97.77 300.23 103.4 312.86 104.25"/><polygon class="cls-30" points="291.26 102.68 282.17 96.91 275.42 103.99 291.26 102.68"/><polygon class="cls-30" points="241.91 110.36 236.74 100.35 210.88 102.12 207.15 92.57 227.4 88.08 247.73 91.39 241.91 110.36"/><polygon class="cls-30" points="227.8 116.2 215.14 113 228.95 146.58 233.87 131.38 227.8 116.2"/><polygon class="cls-30" points="298.85 133.77 291.81 134.01 282.99 138.34 271.72 135.69 280.66 145.99 304.69 145.84 312.88 135.88 303.69 138.37 298.85 133.77"/><polygon class="cls-30" points="294.61 153.97 284.42 168.83 303.6 168.87 294.61 153.97"/><polygon class="cls-26" points="239.57 115.49 232.71 117.8 241.47 123.98 239.57 115.49"/><polygon class="cls-32" points="300.23 103.4 298.85 133.77 291.81 134.01 291.26 102.68 300.23 103.4"/><polygon class="cls-8" points="251.85 95.33 256.12 163.89 239.63 166.77 242.74 94.39 247.73 91.39 251.85 95.33"/><polygon class="cls-10" points="188.44 91.2 265.35 96.21 268.29 68.97 230.81 67.96 188.44 91.2"/><polygon class="cls-9" points="264.34 76.09 272.85 65.74 301.52 65.38 347.62 76.96 265.35 96.21 264.34 76.09"/><polygon class="cls-10" points="301.52 65.38 262.45 43.3 254.9 65.28 264.34 76.09 301.52 65.38"/><polygon class="cls-8" points="262.45 43.3 230.81 67.96 264.34 76.09 262.45 43.3"/><polygon class="cls-29" points="252.26 156.5 247.92 152.47 243.21 157.72 248.42 161.77 252.26 156.5"/><polygon class="cls-33" points="298.85 133.77 295.46 138.83 291.81 134.01 298.85 133.77"/><path class="cls-33" d="M310.65,112.26a2.94,2.94,0,1,1-2.06-3.61A2.94,2.94,0,0,1,310.65,112.26Z"/><path class="cls-33" d="M286,112.25a2.94,2.94,0,1,1-2.05-3.61A2.94,2.94,0,0,1,286,112.25Z"/><polygon class="cls-34" points="310.43 229.83 282.96 244.55 254.1 269.34 275.92 292.73 288 291.51 300.87 275.45 324.46 264.32 310.43 229.83"/><polygon class="cls-18" points="267.36 277.41 269.63 274.89 267.55 276.15 267.74 274.89 264.57 267.65 263.14 258.5 261.13 259.76 259.25 255.47 238.95 255.64 231.53 252.22 214.08 278.46 218.11 298.39 253.44 295.63 258.54 287.21 266.34 284.16 267.36 277.41"/><polygon class="cls-35" points="266.71 239.44 231.53 252.22 253.44 295.63 266.48 302.15 275.92 292.73 266.71 239.44"/><polygon class="cls-35" points="310.43 229.83 300.87 275.45 312.93 290.99 328.15 293.4 333.88 282.64 310.43 229.83"/><polygon class="cls-9" points="275.92 292.73 253.46 295.61 250.65 312.8 270.02 307.81 280.41 302.45 275.92 292.73"/><polygon class="cls-29" points="287.54 312.8 285.75 295.5 250.65 312.8 287.54 312.8"/><polygon class="cls-10" points="333.88 282.64 341.45 292.79 342.23 302.58 329.86 306.4 313.72 306.4 312.93 290.99 333.88 282.64"/><polygon class="cls-9" points="367.19 288.85 341.45 292.79 329.86 306.4 350.54 302.58 367.19 288.85"/><polygon class="cls-29" points="329.86 306.4 367.19 288.85 356.88 304.88 329.86 306.4"/><polygon class="cls-27" points="327.42 170.79 295.78 206.88 324.75 211.13 342.08 175.46 327.42 170.79"/><polygon class="cls-14" points="252 175.79 256.13 170.63 257.54 176.42 249.92 199.13 237.4 235.4 232.88 238.38 233.08 230.21 239.83 223.21 253 179.79 252 175.79"/><polygon class="cls-14" points="243 229 242.4 239.58 247.9 236.77 251.25 231 249.25 223.38 261.5 189.5 266.88 187 267.13 179 265.56 175.31 251 193.88 243 229"/><polygon class="cls-15" points="261.38 171.75 258.88 181.25 253.13 180.25 256.13 170.63 251.75 171.5 246.25 178.56 249.25 185.38 236.63 220.88 229.75 224.63 230.38 236.25 232.88 238.38 235.88 228.13 240.5 229.88 238.13 239.63 242.4 239.58 248 230.75 245.88 224.5 259 187.13 264.88 184.81 265.56 175.31 261.38 171.75"/><polygon class="cls-27" points="242.08 208.79 246.08 195.79 263.96 196.71 265.92 212.13 255.08 215.79 242.08 208.79"/><polygon class="cls-28" points="215.08 225.46 231.42 207.46 246.08 195.79 255.08 215.79 235.08 222.46 215.08 225.46"/><polygon class="cls-27" points="231.42 207.46 179.08 225.46 195.42 251.79 235.08 222.46 231.42 207.46"/><g id="son"><polygon class="cls-17" points="372.5 308.83 477.5 330.83 648.17 316.5 542 299.67 372.5 308.83"/><polygon class="cls-17" points="142.22 298.41 247.22 320.41 417.88 306.07 311.72 289.24 142.22 298.41"/><polygon class="cls-26" points="520.73 213.86 510.89 214.66 502.87 211.18 511.27 197.87 520.73 213.86"/><polygon class="cls-14" points="514.52 187.1 518.47 184.96 517.82 188.96 507.03 201.13 489.58 220.47 485.97 221.13 488.26 216.09 494.34 213.5 514.09 189.86 514.52 187.1"/><polygon class="cls-14" points="494.78 217.96 491.6 224.42 495.78 224.12 499.41 221.4 500.18 216.1 516.82 198.18 520.85 198.05 523.12 193.11 523.13 190.39 509.1 198.13 494.78 217.96"/><polygon class="cls-15" points="521.45 187.06 517.37 192.33 514.04 190.18 518.47 184.96 515.5 184.35 510.19 187.3 510.26 192.35 492.95 211.19 487.66 211.71 484.97 219.14 485.97 221.13 490.56 215.53 492.99 217.84 488.92 223.31 491.6 224.42 497.44 220.38 497.77 215.91 515.89 196.03 520.18 196.15 523.13 190.39 521.45 187.06"/><polygon class="cls-27" points="508.42 194.33 497.1 206.77 503.27 209.92 511.25 201.08 508.42 194.33"/><polygon class="cls-28" points="520.59 210.04 519.92 206.52 517.37 199.76 509.53 197 507.29 200.63 512.66 203.19 511.75 209.06 517.67 213.43 520.59 210.04"/><polygon class="cls-25" points="554.3 219.24 540.46 197.02 528.74 222.03 546.39 223.92 554.3 219.24"/><polygon class="cls-21" points="605.75 306.76 592.21 312.7 592.51 317.26 617.01 317.57 617.62 313.15 605.75 306.76"/><polygon class="cls-25" points="601.64 291.09 598.25 299.15 592.21 312.7 617.62 313.15 613.51 297.28 601.64 291.09"/><polygon class="cls-21" points="556.75 303.41 555.96 303.55 536.21 307.07 536.06 312.77 567.82 312.62 568.09 307.64 556.75 303.41"/><polygon class="cls-25" points="561.62 286.52 553.71 295.04 536.21 307.07 568.09 307.64 568.17 296.87 561.62 286.52"/><polygon class="cls-18" points="560.86 265.83 553.71 273.44 553.71 295.04 568.17 296.87 577.91 278.61 560.86 265.83"/><polygon class="cls-19" points="564.67 245.59 553.6 247.89 553.71 273.44 577.91 278.61 585.67 264 564.67 245.59"/><polygon class="cls-19" points="595.2 266.38 587.09 278.96 598.25 299.15 613.82 298.39 611.84 272.67 595.2 266.38"/><polygon class="cls-20" points="581.81 244.88 577.96 262.94 587.09 278.96 611.84 272.67 610.62 242.64 581.81 244.88"/><polygon class="cls-18" points="573.49 227.43 553.61 244.67 553.6 247.89 577.96 262.94 610.62 242.64 573.49 227.43"/><polygon class="cls-25" points="568.33 210.26 546.39 223.92 553.6 247.89 610.62 242.64 599.83 210 568.33 210.26"/><polygon class="cls-24" points="547.34 195.7 540.46 197.02 546.39 223.92 599.83 210 592.63 178.16 578.56 182.97 558.17 201.1 547.34 195.7"/><polygon class="cls-36" points="549.02 187.63 540.46 197.02 559.34 208.64 592.63 178.16 580.35 175.33 556.68 179.71 549.02 187.63"/><polygon class="cls-37" points="569.77 170.34 571.7 183.02 556.51 197.43 533.29 181.37 569.77 170.34"/><polygon class="cls-38" points="556.83 169.82 563.93 181.27 568.7 180.29 571.7 183.02 580.35 175.33 580.93 162.67 575.68 134.05 545.78 117.35 556.83 169.82"/><polygon class="cls-37" points="577.46 150.05 581.13 155.59 580.93 162.67 572.33 155.49 577.46 150.05"/><polygon class="cls-39" points="557.93 127.79 564.72 151.56 573.1 150.43 580.99 141.23 570.44 131.7 557.93 127.79"/><polygon class="cls-40" points="531.83 116.86 511.56 145.24 523.66 190.85 563.93 181.27 555.27 124.51 531.83 116.86"/><polygon class="cls-37" points="511.56 145.24 514.23 123.88 535.99 121.7 511.56 145.24"/><polygon class="cls-38" points="519.19 147.08 514.48 148.41 532.16 162.13 539.61 162.34 549.72 140.23 543.22 141.56 536.49 144.42 535.97 147.04 533.04 155.35 527.75 148.9 526.64 146.87 519.19 147.08"/><polygon class="cls-37" points="533.27 159.37 531.34 164.41 537.03 166.4 539.61 162.34 533.27 159.37"/><path class="cls-41" d="M525.46,154.71a2.89,2.89,0,1,1-3.48-2.15A2.89,2.89,0,0,1,525.46,154.71Z"/><path class="cls-41" d="M546,149.74a2.89,2.89,0,1,1-3.49-2.14A2.89,2.89,0,0,1,546,149.74Z"/><polygon class="cls-42" points="527.75 148.9 531.34 164.41 539.61 162.34 535.97 147.04 527.75 148.9"/><polygon class="cls-39" points="525.97 143.58 526.64 146.87 514.48 148.41 525.97 143.58"/><polygon class="cls-39" points="535.55 140.89 536.49 144.42 549.72 140.23 535.55 140.89"/><polygon class="cls-37" points="526.21 172.21 550.59 166.4 540.3 179.7 526.21 172.21"/><polygon class="cls-43" points="531.64 172.69 545.66 169.35 543.49 172.21 535 174.35 531.64 172.69"/><polygon class="cls-38" points="568.71 156.67 567.41 141.33 580.99 141.23 581.13 155.59 568.71 156.67"/><polygon class="cls-37" points="577.27 144.21 571.67 144.43 572.39 150.68 577.27 144.21"/><polygon class="cls-39" points="528.45 120.11 557.93 127.79 572.51 127.44 584.48 123.22 567.75 98.08 528.45 120.11"/><polygon class="cls-35" points="567.75 98.08 531.22 99.47 528.92 108.43 535.22 121.92 567.75 98.08"/><polygon class="cls-22" points="525.11 115.01 508.34 111.02 500.74 137.91 511.56 145.24 521.16 129.81 528.25 119.64 525.11 115.01"/><polygon class="cls-35" points="584.48 123.22 580.99 141.23 557.93 127.79 584.48 123.22"/><polygon class="cls-39" points="531.22 99.47 508.34 111.02 521.16 129.81 535.22 121.92 531.22 99.47"/><polygon class="cls-38" points="510.89 214.66 533.43 238.08 546.39 223.92 519.92 206.52 510.89 214.66"/><polygon class="cls-27" points="579.67 209.67 571.5 216.17 550.75 239 551.75 245 560.5 247.25 585.83 229.17 579.67 209.67"/><polygon class="cls-44" points="570.17 217.83 585.83 229.17 606.67 204.67 592.63 178.16 570.17 217.83"/></g><g id="son_s_bicycle" data-name="son&apos;s bicycle"><polygon class="cls-19" points="496.39 237.47 509.21 246.51 513.84 239.4 507.83 230.15 500.81 226.53 496.39 237.47"/><polygon class="cls-19" points="458.47 251.06 469.64 255.85 457.47 274.14 436.67 287.74 438.41 266.8 458.47 251.06"/><ellipse class="cls-22" cx="428.42" cy="285.83" rx="28.08" ry="31.67" transform="translate(-18.76 30.34) rotate(-3.97)"/><ellipse class="cls-22" cx="520.76" cy="269.94" rx="33.25" ry="35.95" transform="translate(-46.16 119.39) rotate(-12.53)"/><ellipse class="cls-45" cx="520.34" cy="270.22" rx="25.38" ry="28.06" transform="translate(-46.23 119.31) rotate(-12.53)"/><ellipse class="cls-19" cx="519.93" cy="270.22" rx="21.44" ry="23.71" transform="translate(-46.24 119.22) rotate(-12.53)"/><ellipse class="cls-45" cx="427.29" cy="286.41" rx="21.4" ry="24.46" transform="translate(-18.8 30.27) rotate(-3.97)"/><ellipse class="cls-19" cx="426.71" cy="286.45" rx="18.12" ry="20.71" transform="translate(-18.8 30.22) rotate(-3.97)"/><polygon class="cls-19" points="425.45 278.19 420.67 292.65 427.35 290.39 449.34 266.32 469.64 255.85 448.5 255.09 425.45 278.19"/><polygon class="cls-19" points="434.78 239.33 432.29 243.26 441.87 249.5 455.7 245.64 454.35 242.44 446.87 237.29 434.78 239.33"/><polygon class="cls-19" points="442.66 239.03 453.92 233.5 452.13 240.81 431.03 246.09 442.66 239.03"/><polygon class="cls-19" points="479.77 230.33 491.79 224.34 492.99 228.82 482.86 237.73 469.64 255.85 463.64 255.8 460.69 241.65 479.77 230.33"/><polygon class="cls-20" points="446.67 252.06 434.09 252.17 414.88 286.21 420.67 292.65 446.82 265.66 446.67 252.06"/><polygon class="cls-20" points="461.92 235.56 454.35 242.44 434.09 252.17 446.82 265.66 463.64 255.8 461.92 235.56"/><polygon class="cls-20" points="483.58 204.23 461.84 225.52 454.35 242.44 463.64 255.8 479.68 236.57 493.22 225.7 483.58 204.23"/><polygon class="cls-20" points="494.71 189.61 487.92 185.51 471.99 186.88 471.64 192.1 482.36 198.87 489.78 192.87 494.71 189.61"/><polygon class="cls-19" points="495.29 190.77 501.58 193.53 497.71 196.56 486.22 196.6 489.37 192.96 495.29 190.77"/><polygon class="cls-19" points="456.92 197.22 458.87 201.28 474.61 197.27 477.21 195.29 476.43 192.97 470.86 191.21 462.08 192.61 456.92 197.22"/><polygon class="cls-19" points="461.42 191.28 456.54 190.85 452.66 196.39 458.87 201.28 460.75 195.96 461.42 191.28"/><polygon class="cls-19" points="520.42 273.78 519.34 276.74 516.06 278.11 492.12 238.2 491.48 230.33 474.61 197.27 476.43 192.97 496.13 216.06 497.41 224.83 499.98 242.33 520.42 273.78"/><path class="cls-20" d="M476.42,193,495,229.24l1.39,8.23,23,39.27,4.46-2.31-19.61-35.55L502,231.52l3.32-1.21,3.85,5.64s1.72-.54,2.5-.73l2.08-.52-3.37-5.46-5.3-3.31-15.66-33Z"/><polygon class="cls-20" points="456.54 190.85 471.99 186.88 476.43 192.97 460.75 195.96 456.54 190.85"/><polygon class="cls-20" points="487.92 185.51 489.37 192.96 501.58 193.53 499.12 188.13 487.92 185.51"/><polygon class="cls-20" points="421.3 242.35 449.58 231.92 453.92 233.5 431.03 246.09 421.83 245.65 421.3 242.35"/><polygon class="cls-38" points="544.33 244.17 538.25 242.67 534.33 251.33 540.16 260.06 548.42 254.42 544.33 244.17"/><polygon class="cls-40" points="538.25 242.67 550.75 239 560.5 247.25 548.42 254.42 538.25 242.67"/></g></svg>