<svg id="ILLUSTRATION" xmlns="http://www.w3.org/2000/svg" viewBox="0 0 900 350"><defs><style>.cls-1{fill:#c2977a;}.cls-1,.cls-10,.cls-11,.cls-12,.cls-13,.cls-14,.cls-15,.cls-16,.cls-17,.cls-18,.cls-19,.cls-2,.cls-20,.cls-21,.cls-22,.cls-23,.cls-24,.cls-25,.cls-26,.cls-27,.cls-28,.cls-3,.cls-30,.cls-31,.cls-32,.cls-33,.cls-34,.cls-35,.cls-36,.cls-4,.cls-5,.cls-6,.cls-7,.cls-8,.cls-9{fill-rule:evenodd;}.cls-2{fill:#debca4;}.cls-24,.cls-29,.cls-3{fill:#2b2b2b;}.cls-20,.cls-3{opacity:0.1;}.cls-4{fill:#cecdcc;}.cls-5{fill:#5ebfd8;}.cls-6{fill:#dcdcdb;}.cls-7{fill:#74cee4;}.cls-8{fill:#ebebea;}.cls-9{fill:#6f7273;}.cls-10{fill:#8e8e8e;}.cls-11{fill:#a2a1a1;}.cls-12{fill:#d0ae95;}.cls-13{fill:#1d7678;}.cls-14{fill:#369395;}.cls-15{fill:#a8836c;}.cls-16{fill:#474748;}.cls-17{fill:#4f5353;}.cls-18{fill:#3a9fb9;}.cls-19{fill:#eed2c1;}.cls-20{fill:#090a0a;}.cls-21{fill:#f6e5db;}.cls-22{fill:#fff;}.cls-23{fill:#72cbcb;}.cls-25{fill:#8a6651;}.cls-26{fill:#318ea5;}.cls-27{fill:#50a8a9;}.cls-28{fill:#e8c9b6;}.cls-30{fill:#a67e62;}.cls-31{fill:#be9b82;}.cls-32{fill:#825941;}.cls-33{fill:#c8ac9a;}.cls-34{fill:#c3c3c3;}.cls-35{fill:#28788b;}.cls-36{fill:#92d5d5;}</style></defs><title>sentinels_Defender_ISFJ_workplace_habits</title><polygon class="cls-1" points="198.12 197.78 219.18 210.42 220.52 214.41 219.34 218.97 171.67 216.01 198.12 197.78"/><polygon class="cls-2" points="219.18 210.42 232 202.21 235.61 207.06 234.09 218.19 219.34 218.97 219.18 210.42"/><polygon class="cls-1" points="232 202.21 244.88 207.26 242.74 216.17 234.09 218.19 232 202.21"/><polygon class="cls-3" points="887 331 792.71 311.76 755.16 316.93 681.21 303.26 572.21 318.26 682.71 337.76 717.56 332.73 794.21 346.26 887 331"/><polygon class="cls-3" points="370.71 263.76 519.71 301.76 226.96 350.26 76.21 294.76 144 283.83 128.71 188.26 159.21 174.76 166.71 145.76 184.71 132.26 223.21 158.26 246.21 263.76 370.71 263.76"/><polygon class="cls-4" points="373.09 60.6 455.59 29.1 899.17 33.5 888 320 467.05 248.76 452.5 227 373.09 60.6"/><polygon class="cls-5" points="373.09 60.6 455.59 29.1 900 0 899.17 33.5 436.5 46.83 373.09 60.6"/><polygon class="cls-6" points="7 292.5 456 227 455.62 46.28 443.83 29.04 1.17 26.83 7 292.5"/><polygon class="cls-7" points="1.17 26.83 455.62 46.28 455.59 29.1 0 -0.17 1.17 26.83"/><g id="paper_on_the_wall" data-name="paper on the wall"><polygon class="cls-3" points="56.17 105.83 25 75 25.83 210.83 113.17 197.5 109.17 120.83 56.17 105.83"/><polygon class="cls-8" points="96 132.19 118.5 157.93 123.83 186.83 33.5 204.83 30 165.37 96 132.19"/><polygon class="cls-8" points="25 75 114.5 75.57 118.5 157.93 30 165.37 25 75"/><polygon class="cls-6" points="47.5 95.5 96.25 93.5 96.25 99 47.5 102.25 47.5 95.5"/><polygon class="cls-6" points="34.25 120.75 73.25 117.5 73.5 123.25 34.75 126.25 34.25 120.75"/><polygon class="cls-6" points="35.5 140.25 74.5 137 74.75 142.75 36 145.75 35.5 140.25"/><polygon class="cls-6" points="36.5 157 75.5 153.75 75.75 159.5 37 162.5 36.5 157"/><polygon class="cls-6" points="38.25 176 77.25 172.75 77.67 177.67 38.75 181.5 38.25 176"/><polygon class="cls-6" points="88.67 117 95 125.5 105.67 110.33 95.08 119.42 88.67 117"/><polygon class="cls-6" points="98.58 140.39 101.96 137.6 97.14 133.13 92.92 135.32 94.69 137.35 96.55 135.83 97.82 137.69 95.96 139.13 96.3 142.42 99.17 142.17 98.58 140.39"/><polygon class="cls-6" points="96.47 143.52 96.64 145.13 99.95 144.62 99.3 143.08 96.47 143.52"/><polygon class="cls-6" points="100.95 154.89 104.33 152.1 99.52 147.63 95.29 149.82 97.07 151.85 98.92 150.33 100.19 152.19 98.33 153.63 98.67 156.92 101.55 156.67 100.95 154.89"/><polygon class="cls-6" points="98.84 158.02 99.01 159.63 102.33 159.12 101.67 157.58 98.84 158.02"/><polygon class="cls-6" points="102.08 172.77 105.46 169.98 100.64 165.5 96.42 167.7 98.19 169.72 100.05 168.2 101.32 170.06 99.46 171.5 99.8 174.8 102.67 174.54 102.08 172.77"/><polygon class="cls-6" points="99.97 175.89 100.14 177.5 103.45 176.99 102.8 175.45 99.97 175.89"/></g><polygon class="cls-9" points="265.8 270.68 258.91 277.91 249.34 274.63 248.58 253.97 262.61 255.31 265.8 270.68"/><polygon class="cls-10" points="205.8 266.5 217.65 288.93 232.01 284.9 233.52 264.49 259.35 259.57 258.91 277.91 270.82 275.58 262.93 249.12 229.99 241.3 208.32 257.68 205.8 266.5"/><polygon class="cls-10" points="157.92 254.66 170.01 270.28 184.38 267.51 184.63 249.62 158.17 248.36 157.92 254.66"/><polygon class="cls-9" points="172.03 166.2 148.59 168.22 154.64 263.48 170.01 270.28 169.26 254.66 199.5 266 199.25 281.88 217.65 288.93 219.91 251.89 172.03 166.2"/><polygon class="cls-11" points="199.5 211.82 170.14 238.91 199.15 249.12 245.12 239.79 199.5 211.82"/><polygon class="cls-10" points="183.12 165.44 164.72 172.5 170.14 238.91 242.01 224.42 215.88 166.45 183.12 165.44"/><polygon class="cls-11" points="164.72 172.5 200.51 168.47 221.17 164.69 219.71 164.09 215.05 157.92 148.59 168.22 164.72 172.5"/><polygon class="cls-12" points="794 159.75 789.02 157.74 758 171.25 766.5 188.5 805.5 188.75 794 159.75"/><polygon class="cls-13" points="815.97 324.83 805.86 328.29 805.67 332.75 830.91 333 831.2 328.17 815.97 324.83"/><polygon class="cls-14" points="822.04 308.4 815.58 315.56 805.86 328.29 831.2 328.17 828.91 315.53 822.04 308.4"/><polygon class="cls-13" points="764.87 319.57 745.83 323.78 745.83 328.59 778.7 328.49 778.6 323.58 764.87 319.57"/><polygon class="cls-14" points="775.89 302.74 765.97 310.24 745.83 323.78 778.6 323.58 779 312.46 775.89 302.74"/><polygon class="cls-12" points="813.52 273.75 815.58 315.56 828.91 315.53 839.3 276.16 833.06 272.4 821.34 266.54 813.52 273.75"/><polygon class="cls-12" points="774.5 276.06 765.97 310.24 779 312.46 801.55 276.08 793.73 269.47 786.92 268.47 774.5 276.06"/><polygon class="cls-15" points="797.51 282.7 774.5 276.06 782.34 272.17 798.28 268.8 801.55 276.08 797.51 282.7"/><polygon class="cls-15" points="814.12 285.48 813.6 276.01 818.24 273.2 834.8 271.97 839.3 276.16 814.12 285.48"/><polygon class="cls-16" points="794.34 135.23 777.5 128.83 771.92 138.08 789.02 157.74 787.35 166.98 799.13 163.95 826.2 159.84 794.34 135.23"/><polygon class="cls-17" points="754.42 84.42 772.09 138.2 780.39 138.08 769.39 77.5 754.42 84.42"/><polygon class="cls-17" points="805.63 42.5 763.63 54 773.89 64.85 796.08 78.75 808.75 48.63 805.63 42.5"/><polygon class="cls-9" points="791.75 80.5 791.75 69.67 805.63 42.5 843.67 50.83 823.75 79.88 791.75 80.5"/><polygon class="cls-9" points="856.17 137.5 835.62 138.4 826.8 80.68 864.83 97.5 856.17 137.5"/><polygon class="cls-16" points="811.17 164.46 849.04 158.24 856.17 137.5 833.21 122.57 811.17 164.46"/><polygon class="cls-9" points="847.94 232.65 839.3 276.16 774.5 276.06 787.66 222.68 794.03 221.47 825.55 225.88 847.94 232.65"/><polygon class="cls-10" points="835.62 213.1 821.93 201.15 790.39 217.83 787.66 222.68 847.94 232.65 835.62 213.1"/><polygon class="cls-18" points="779.05 179.25 787.66 222.68 838.42 217.75 839.42 187.38 834.67 183.56 787.05 178.4 779.05 179.25"/><polygon class="cls-19" points="792.2 156.68 779.05 179.25 788 179.11 831.17 174.72 834.21 155.51 834.83 150.96 827.69 147.47 807.85 151.67 800.9 153.88 799.02 156.18 792.2 156.68"/><polygon class="cls-5" points="838.22 194.52 776.5 192.83 804.25 157.42 822.58 158.5 832.57 172.01 835.88 177.8 838.22 194.52"/><polygon class="cls-18" points="834.83 150.96 822.51 167.82 838.22 194.52 849.85 180.69 849.04 158.24 834.83 150.96"/><polygon class="cls-18" points="789.02 157.74 779.83 192.17 799.09 165.16 800.9 153.88 789.02 157.74"/><polygon class="cls-19" points="838.22 194.52 849.04 158.24 856.92 200.75 846.92 208 849.75 204.17 837.17 203.17 838.22 194.52"/><polygon class="cls-20" points="838.42 217.75 774.5 276.06 839.3 276.16 847.94 232.65 838.42 217.75"/><polygon class="cls-15" points="811.17 159.84 825.8 150.23 833.21 136.9 794.5 135.77 811.17 159.84"/><polygon class="cls-12" points="822.2 139.42 829 140.06 811.17 159.84 832.31 149.77 833.21 136.9 833.21 89.52 824.22 64.95 810.51 125.76 822.2 139.42"/><polygon class="cls-19" points="793.25 66 813.5 69.17 821.32 65.19 827.75 78.88 822.19 139.5 772.09 138.2 768.68 81.69 772.33 64.84 793.25 66"/><polygon class="cls-12" points="773.77 87.21 782.76 86.34 790.71 89.32 792.08 92.25 792.9 100.42 789.66 108.81 784.33 96.83 773.77 87.21"/><polygon class="cls-12" points="796.5 101.35 797.79 92.33 800.65 88.94 811.89 85.56 820.13 88.09 805.79 97.04 799.14 108.8 796.5 101.35"/><polygon class="cls-17" points="783.67 84.88 773.77 87.21 790.71 89.32 783.67 84.88"/><polygon class="cls-17" points="800.65 88.94 820.13 88.09 810.56 84.63 800.65 88.94"/><polygon class="cls-15" points="794.63 113 789.66 108.81 799.14 108.8 794.63 113"/><polygon class="cls-21" points="789.66 108.81 792.08 92.25 797.68 92.26 799.14 108.8 789.66 108.81"/><polygon class="cls-9" points="763.63 54 793.25 66 768.68 81.69 754.25 84.5 763.63 54"/><polygon class="cls-17" points="834.11 89.72 864.83 97.5 843.67 50.83 813.5 69.17 834.11 89.72"/><polygon class="cls-22" points="792.29 118.63 802.58 119 805.75 119.88 798.38 126.63 790.5 125.88 784.75 119 792.29 118.63"/><polygon class="cls-23" points="789.63 127.33 783 119.04 785.71 118.92 790.79 124.5 798.17 124.83 805.04 119.58 807.97 120.01 799.38 127.63 789.63 127.33"/><polygon class="cls-14" points="783 119.04 794.47 119.39 807.97 120.01 794.09 116.32 783 119.04"/><polygon class="cls-8" points="796.08 155.42 795.25 170.38 811.08 160.67 825.08 172.17 837.92 152.33 832.17 149.5 811.08 159.58 805.83 152.08 796.08 155.42"/><polygon class="cls-8" points="746.5 149.5 745 203.5 785.13 210.25 789.75 149 746.5 149.5"/><polygon class="cls-12" points="804.06 198.56 799.13 193.44 782 192.75 781.5 196 791.81 200.38 792.13 208.25 798.81 211.81 804.06 198.56"/><polygon class="cls-19" points="817.31 205.31 812.44 199.5 799.13 193.44 798.81 211.81 812.5 211.5 817.31 205.31"/><polygon class="cls-12" points="812.44 199.5 856.92 200.75 845 219.25 812.5 211.5 812.44 199.5"/><path class="cls-24" d="M787.35,96.79a3.48,3.48,0,1,1-3.47-3.48A3.47,3.47,0,0,1,787.35,96.79Z"/><path class="cls-24" d="M811,97a3.48,3.48,0,1,1-3.48-3.48A3.48,3.48,0,0,1,811,97Z"/><polygon class="cls-6" points="753.69 160.81 782 160.63 781.81 163.25 753.56 163 753.69 160.81"/><polygon class="cls-6" points="753.25 174.56 781.81 175.06 781.5 177.88 753.13 176.75 753.25 174.56"/><polygon class="cls-6" points="752.88 167.69 781.44 168.19 781.13 171 752.75 169.88 752.88 167.69"/><polygon class="cls-6" points="751.5 190.81 780 192.31 779.69 195.13 751.38 193.25 751.5 190.81"/><polygon class="cls-6" points="751.75 182.94 780.25 184.44 779.94 187.25 751.63 185.38 751.75 182.94"/><polygon class="cls-19" points="749.89 179.33 745.55 185.54 740.33 170.17 746.13 159.81 749.89 179.33"/><polygon class="cls-12" points="756.75 182.63 745.55 185.54 746.22 159.81 759.75 171.38 756.75 182.63"/><polygon class="cls-25" points="585.63 134.36 580.36 130.59 565.53 141.41 576.75 153.64 584.15 158.01 585.63 134.36"/><polygon class="cls-6" points="601.74 118.91 605.87 123.19 555.17 152.86 550.59 152.04 597.8 111.76 601.74 118.91"/><polygon class="cls-8" points="571.02 98.78 579.48 88.41 584.34 90.29 605.87 123.19 601.04 122.47 571.02 98.78"/><polygon class="cls-18" points="550.59 152.04 601.04 122.47 579.48 88.41 530.75 118.11 550.59 152.04"/><polygon class="cls-2" points="586.26 153.54 586.93 142.89 589.43 132.74 583.4 119.69 578.24 120.82 580.36 130.59 577.58 139.91 586.26 153.54"/><polygon class="cls-14" points="586.93 142.89 609.72 164.74 611.73 177.95 593.24 190.26 576.75 153.64 586.93 142.89"/><polygon class="cls-26" points="661.16 311.66 663.86 316.29 663.86 321 628.41 321.19 628.25 316.29 661.16 311.66"/><polygon class="cls-26" points="691.21 316.98 700.11 323.91 700.11 328.63 670.38 327.62 669.84 323.35 691.21 316.98"/><polygon class="cls-17" points="638.12 270.58 644.71 216.99 654.77 232.21 669.4 272.84 664.05 304.09 654.51 310.91 647.44 303.07 638.12 270.58"/><polygon class="cls-9" points="625.33 226.01 644.71 216.99 675.01 222.97 669.4 272.84 668.81 278.63 638.36 271.42 625.33 226.01"/><polygon class="cls-18" points="645.49 296.29 628.25 316.29 663.86 316.29 664.05 304.09 645.49 296.29"/><polygon class="cls-23" points="701.65 150.81 725.7 194.28 696.52 203.68 701.65 150.81"/><polygon class="cls-13" points="725.7 194.28 698.35 221.33 698.04 187.99 725.7 194.28"/><polygon class="cls-23" points="629.73 149.57 609.72 164.74 593.24 190.26 638.36 185.59 629.73 149.57"/><polygon class="cls-9" points="698.02 278.63 697.63 305.07 690.55 318.19 677.5 309.94 668.81 278.63 675.01 222.97 698.02 278.63"/><polygon class="cls-10" points="698.72 231.9 698.01 279.3 668.81 278.63 662.02 254.15 675.01 222.97 698.72 231.9"/><polygon class="cls-17" points="698.72 231.9 662.02 254.15 625.33 226.01 675.01 222.97 698.72 231.9"/><polygon class="cls-14" points="647.91 144.14 629.73 149.57 625.46 226.15 698.72 231.9 701.65 150.81 685.5 143.97 647.91 144.14"/><polygon class="cls-27" points="627.59 186.83 700.13 188.48 701.65 150.81 685.5 143.97 665.3 145.2 647.91 144.14 629.73 149.57 627.59 186.83"/><polygon class="cls-18" points="676.94 307.28 669.84 323.35 700.11 323.91 697.64 305.07 676.94 307.28"/><polygon class="cls-2" points="633.8 70.28 625.27 63.47 616.7 63.17 614.71 131.43 637.44 133.66 665.1 133.8 669.52 84.43 668.81 62.77 650.45 63.33 633.8 70.28"/><polygon class="cls-1" points="648.53 136.84 614.71 131.43 663.95 132.85 666.29 82.81 668.81 62.77 681.47 74.19 679.99 84.77 674.47 98.31 677.94 98.7 681.06 97.37 683.88 98.59 686 91.22 690.37 96.1 695.02 97.85 689.46 104.06 687.54 110.88 686.31 115.17 688.99 124.38 685.02 143.78 658.98 159.08 648.53 136.84"/><polygon class="cls-16" points="616.12 83.02 608.85 56.27 621.61 60.51 616.12 83.02"/><polygon class="cls-1" points="660.11 79.17 660.62 83.49 662.9 85.24 649.75 91.69 643.6 98.97 665.44 100.97 640.31 103.56 639.46 92.76 641.59 85 641.95 82.86 641.81 82.01 642.55 79.34 660.11 79.17"/><polygon class="cls-1" points="632.39 79.39 633.28 82.04 630.68 83.28 633.26 85.11 634.77 90.47 632.26 103.26 615.62 100.47 630.56 98.51 625.96 90.8 616.38 85.38 619.16 78.53 625.73 78.18 632.39 79.39"/><polygon class="cls-16" points="643.32 74.14 660.05 75.67 660.11 79.17 642.55 79.34 643.32 74.14"/><polygon class="cls-16" points="631.27 75.16 619.79 75.89 619.16 78.53 632.39 79.39 631.27 75.16"/><polygon class="cls-28" points="633.26 85.11 632.26 103.26 636.21 107.57 640.31 103.56 641.59 85 633.26 85.11"/><polygon class="cls-1" points="681.67 102.64 680.18 106.49 691.82 111.87 695.89 98.49 686 91.22 681.67 102.64"/><polygon class="cls-9" points="633.8 70.28 608.85 56.27 653.59 37.67 653.62 55.89 633.8 70.28"/><polygon class="cls-9" points="649.45 67.06 659.27 46.88 674.88 46.38 696.13 55.7 683.45 61.78 668.81 62.77 649.45 67.06"/><polygon class="cls-10" points="696.13 55.7 698.9 87.5 691.85 83.94 681.47 74.19 668.81 62.77 696.13 55.7"/><polygon class="cls-16" points="681.47 74.19 674.46 98.31 682.02 101.84 686 91.22 695.89 98.49 698.9 87.5 681.47 74.19"/><polygon class="cls-25" points="692.18 101.19 687.75 97.93 685.1 104.41 692.18 101.19"/><polygon class="cls-25" points="691.82 111.87 683.92 108.25 688.99 124.38 691.82 111.87"/><polygon class="cls-25" points="632.26 103.26 636.03 108.33 640.31 103.56 632.26 103.26"/><path class="cls-29" d="M644.93,92.36a3.35,3.35,0,1,0,2.81-3.82A3.34,3.34,0,0,0,644.93,92.36Z"/><path class="cls-29" d="M621.38,92.07a3.35,3.35,0,1,0,2.81-3.82A3.35,3.35,0,0,0,621.38,92.07Z"/><polygon class="cls-25" points="673.47 132.39 614.71 131.43 643.55 139.17 659.05 159.29 673.47 132.39"/><polygon class="cls-14" points="612.99 81.87 633.28 82.04 633.26 85.11 616.41 85.13 615.78 97.33 632.49 97.55 632.43 100.64 612.34 100.21 612.99 81.87"/><polygon class="cls-14" points="641.81 82.01 666.29 82.81 665.44 100.97 640.5 100.35 640.78 97.39 662.28 97.81 662.9 85.24 641.59 85 641.81 82.01"/><polygon class="cls-10" points="653.59 37.67 674.88 46.38 649.45 67.06 633.8 70.28 653.59 37.67"/><polygon class="cls-25" points="627.04 113.06 631.05 121.39 643.13 121.39 647.39 112.74 627.04 113.06"/><polygon class="cls-22" points="628.38 111.02 630.86 116.24 642.94 116.87 645.58 111.44 628.38 111.02"/><polygon class="cls-9" points="620.56 113.63 633.78 105.36 636.21 107.57 638.81 105.24 652.29 114.58 620.56 113.63"/><g id="character_1" data-name="character 1"><polygon class="cls-17" points="371.76 172.47 361.08 184.81 355.55 246.42 392.44 227.13 403.16 190.43 371.76 172.47"/><polygon class="cls-9" points="389.02 170.29 381.67 209.64 382.22 236.95 428.88 251.76 424.6 184.65 389.02 170.29"/><polygon class="cls-16" points="368.37 176.86 361.08 184.81 381.67 209.64 424.6 184.65 368.37 176.86"/><polygon class="cls-30" points="473.91 121.76 477.37 110.82 486.07 105.52 497.36 122.68 485.19 132.74 469.64 129.66 473.91 121.76"/><polygon class="cls-8" points="463.31 86.86 494.15 137.64 535.66 114.89 505.27 64.65 463.31 86.86"/><polygon class="cls-6" points="501.42 77.4 476.82 89.42 478.56 92.21 503.2 79.69 501.42 77.4"/><polygon class="cls-6" points="507.12 87.61 482.52 99.64 484.25 102.42 508.9 89.91 507.12 87.61"/><polygon class="cls-6" points="514.47 97.8 489.87 109.83 491.61 112.62 516.25 100.1 514.47 97.8"/><polygon class="cls-6" points="521.82 108 497.22 120.02 498.95 122.81 523.6 110.29 521.82 108"/><polygon class="cls-31" points="474.97 134.66 469.93 123.51 471.42 107.33 477.77 98.66 481.6 103.94 477.37 110.82 480.12 120.94 474.97 134.66"/><polygon class="cls-26" points="417.22 121.02 431.31 109.51 464.62 140.11 440.33 157.01 428.57 154.88 417.22 121.02"/><polygon class="cls-26" points="368.01 146.69 339.2 151.41 359.26 176.05 359.55 184.26 385.71 191.76 424.6 184.65 428.57 154.88 368.01 146.69"/><polygon class="cls-18" points="354.03 157 387.41 172.99 428.57 154.88 431.31 109.51 416.99 102.93 391.95 120.72 355.6 111.27 350.36 116.07 354.03 157"/><polygon class="cls-5" points="378.79 120.57 383.57 132.73 361.4 136.56 355.6 111.27 360.69 107.25 378.79 120.57"/><polygon class="cls-31" points="331.91 38.17 338.17 108.38 360.69 107.25 376.51 118.07 403.15 105.67 412.83 62.8 401.11 36.06 331.91 38.17"/><polygon class="cls-32" points="354.97 74.54 353.79 77.07 353.45 80.11 358.09 84.94 361.66 79.83 355.17 69.89 359.17 66.33 352.98 63.26 354.97 74.54"/><polygon class="cls-30" points="340.43 62.3 353.79 77.07 353.45 80.11 357.84 75.18 361.66 79.83 374.56 60.34 365.27 59.09 361.83 60.99 360.96 63.04 357 70.43 352.98 63.26 351.01 61.59 345.64 60.82 340.43 62.3"/><polygon class="cls-17" points="361.83 60.99 367.45 54.61 374.56 60.34 361.83 60.99"/><polygon class="cls-17" points="344.55 57.61 351.01 61.59 340.43 62.3 344.55 57.61"/><polygon class="cls-33" points="352.98 63.26 353.45 80.11 361.66 79.83 360.96 63.04 352.98 63.26"/><polygon class="cls-32" points="347.12 88.65 371.51 88.19 363.49 97.7 354.9 97.67 347.12 88.65"/><polygon class="cls-30" points="398.81 30.46 382.41 33.02 385.08 105.98 373.07 112.01 383.57 132.73 411.35 102.49 412.83 62.8 398.81 30.46"/><polygon class="cls-32" points="385.08 105.98 395.97 105.84 383.57 132.73 360.69 107.25 385.08 105.98"/><polygon class="cls-9" points="331.91 38.17 357.12 47.79 392.49 35.32 400.85 38.3 409.49 29.27 355.36 21.01 331.91 38.17"/><polygon class="cls-17" points="392.49 35.32 392.16 76.71 398.67 77.83 398.15 61.39 412.83 62.8 409.49 29.27 392.49 35.32"/><polygon class="cls-32" points="403.5 78.79 411.83 89.34 412.26 77.78 403.5 78.79"/><polygon class="cls-32" points="403.12 73.75 404.32 65.28 409.93 65.63 403.12 73.75"/><path class="cls-29" d="M350,69.23a3.24,3.24,0,1,1-4.24-1.72A3.23,3.23,0,0,1,350,69.23"/><path class="cls-29" d="M371.75,68.26a3.24,3.24,0,1,1-4.24-1.71,3.24,3.24,0,0,1,4.24,1.71"/><polygon class="cls-22" points="351.07 90.73 366.62 90.38 362.86 95.38 355.98 95.55 351.07 90.73"/><polygon class="cls-5" points="383.57 132.73 406.7 141.11 416.99 102.93 411.62 97.29 383.57 132.73"/><polygon class="cls-8" points="299.35 116.8 350.36 116.07 359.26 176.05 309.54 173.79 299.35 116.8"/><polygon class="cls-31" points="315.05 138.13 305.38 126.61 296.06 138.88 306.05 154.55 315.05 138.13"/><polygon class="cls-30" points="320.94 137.78 305.38 126.61 306.05 154.55 315.57 154 320.94 137.78"/><polygon class="cls-18" points="469.93 123.51 440.33 157.01 467.99 162.87 485.19 132.74 469.93 123.51"/></g><polygon class="cls-3" points="241.38 239.92 291.55 233.59 231.21 216.42 190.21 224.59 241.38 239.92"/><polygon class="cls-8" points="245.88 237.59 296.05 231.26 235.71 214.09 189.88 220.76 245.88 237.59"/><polygon class="cls-34" points="275.42 229.57 243.99 233.32 240.61 232.32 271.42 228.51 275.42 229.57"/><polygon class="cls-34" points="267.36 226.51 235.92 230.26 232.55 229.26 263.36 225.44 267.36 226.51"/><polygon class="cls-34" points="258.05 223.63 226.61 227.38 223.24 226.38 254.05 222.57 258.05 223.63"/><polygon class="cls-34" points="249.42 221.07 217.99 224.82 214.61 223.82 245.42 220.01 249.42 221.07"/><polygon class="cls-3" points="265.96 252.01 267.8 253.26 272.88 254.92 224.3 263.59 164.88 242.92 174.38 241.51 265.96 252.01"/><polygon class="cls-4" points="199.3 233.01 173.8 233.26 174.05 241.51 224.3 260.01 243.3 250.01 199.3 233.01"/><polygon class="cls-27" points="261.8 251.01 267.3 244.05 213.55 227.8 173.8 233.26 224.55 250.51 256.8 250.94 261.8 251.01"/><polygon class="cls-6" points="224.3 260.01 267.8 253.26 267.3 244.05 224.55 250.51 224.3 260.01"/><polygon class="cls-6" points="247.05 242.01 223.55 245.01 212.46 241.51 235.46 239.01 247.05 242.01"/><polygon class="cls-3" points="395.71 224.17 397.55 225.42 402.63 227.09 354.05 235.76 294.63 215.09 304.13 213.67 395.71 224.17"/><polygon class="cls-4" points="329.05 205.17 303.55 205.42 303.8 213.67 354.05 232.17 373.05 222.17 329.05 205.17"/><polygon class="cls-27" points="391.55 223.17 397.05 216.22 343.3 199.97 303.55 205.42 354.3 222.67 386.55 223.11 391.55 223.17"/><polygon class="cls-6" points="354.05 232.17 397.55 225.42 397.05 216.22 354.3 222.67 354.05 232.17"/><polygon class="cls-6" points="376.8 214.17 353.3 217.17 342.21 213.67 365.21 211.17 376.8 214.17"/><polygon class="cls-4" points="329.05 195.01 303.55 195.26 303.8 203.51 354.28 220.99 373.05 212.01 329.05 195.01"/><polygon class="cls-27" points="391.55 213.01 397.05 206.05 343.3 189.8 303.55 195.26 354.3 212.51 386.55 212.94 391.55 213.01"/><polygon class="cls-6" points="354.24 221.03 397.55 215.26 397.05 206.05 354.3 212.51 354.24 221.03"/><polygon class="cls-6" points="376.8 204.01 353.3 207.01 342.21 203.51 365.21 201.01 376.8 204.01"/><polygon class="cls-4" points="329.71 184.67 304.21 184.92 304.46 193.17 354.49 211.11 373.71 201.67 329.71 184.67"/><polygon class="cls-27" points="392.21 202.67 397.8 193.88 343.96 179.47 304.21 184.92 354.96 202.17 387.21 202.61 392.21 202.67"/><polygon class="cls-6" points="354.49 211.11 397.3 204.01 397.8 193.88 354.96 202.17 354.49 211.11"/><polygon class="cls-6" points="377.46 193.67 353.96 196.67 342.88 193.17 365.88 190.67 377.46 193.67"/><polygon class="cls-1" points="232.91 266.91 231.77 278.72 224.28 281.19 222.61 277.82 217.03 260.5 231.32 258.44 232.91 266.91"/><polygon class="cls-35" points="231.77 278.72 239.43 293.18 229.56 294.66 219.79 293.18 222.61 277.82 231.77 278.72"/><polygon class="cls-25" points="217.03 260.5 232.91 266.91 233.63 258.62 224.56 255 217.03 260.5"/><polygon class="cls-18" points="233.29 287.44 226.02 287.44 219.79 293.18 219.79 295.52 239.43 295.52 239.43 293.18 233.29 287.44"/><polygon class="cls-1" points="255.37 261.56 261.39 272.08 267.31 273.23 270.07 270.62 268.62 254.52 255.95 254.81 255.37 261.56"/><polygon class="cls-35" points="270.07 270.62 278.27 278.18 270.38 286.94 260.78 285.61 261.39 272.08 270.07 270.62"/><polygon class="cls-25" points="268.62 254.52 255.37 261.56 249.65 252.32 260.24 252.25 268.62 254.52"/><polygon class="cls-18" points="278.27 278.18 267.7 285.61 260.78 285.61 260.78 287.86 288.84 287.86 288.84 282.77 278.27 278.18"/><polygon class="cls-14" points="238.38 243.05 268.11 244.06 268.62 254.52 217.03 260.5 238.38 243.05"/><polygon class="cls-14" points="217.71 244.06 185.96 231.29 191.16 250.62 217.03 260.5 217.71 244.06"/><polygon class="cls-27" points="192.53 169.68 171.67 216.01 189.67 205.28 201.38 199.26 192.53 169.68"/><polygon class="cls-27" points="230.4 163.12 237.73 166.24 262.74 191.31 247.78 199.71 236.53 196.35 230.82 184.98 230.4 163.12"/><polygon class="cls-23" points="230.4 163.12 222.67 184.04 211.33 189.15 222.84 180.15 207.27 161.85 192.53 169.68 198.12 197.78 192.08 217.1 185.96 231.29 206.18 236.47 238.35 223.9 244.77 193.55 230.4 163.12"/><polygon class="cls-14" points="198.12 197.78 192.08 217.1 240.33 214.26 244.77 193.55 198.12 197.78"/><polygon class="cls-27" points="238.38 223.9 268.11 244.06 217.03 260.5 185.96 231.29 238.38 223.9"/><polygon class="cls-3" points="190.06 221.7 192.08 217.1 241.15 211.8 238.35 223.9 190.06 221.7"/><polygon class="cls-22" points="230.4 163.12 204.77 163 205.34 192.63 222.67 184.04 242.13 187.96 230.4 163.12"/><polygon class="cls-17" points="255.29 86.43 271.12 96.11 259.13 113.03 255.54 99.76 255.29 86.43"/><polygon class="cls-23" points="184.37 87.8 178.09 83.17 170.37 70.12 222.38 45.75 227.24 59.6 228.16 70.43 205.16 83.36 184.37 87.8"/><polygon class="cls-36" points="222.38 45.75 259.05 60.21 255.29 86.43 239.61 80.16 228.16 70.43 222.38 45.75"/><polygon class="cls-14" points="170.37 70.12 174.18 101.33 181.3 94.97 184.37 87.8 170.37 70.12"/><polygon class="cls-35" points="223.56 50.75 221.48 51.65 222.72 57.63 217.73 59.74 218.56 63.7 223.75 61.62 225.05 67.09 227.19 66.31 227.24 59.6 223.56 50.75"/><polygon class="cls-26" points="223.56 50.75 226.05 51.92 227.35 57.02 232.51 59.38 232.51 62.95 228.28 61.16 229.56 67.02 227.19 66.31 223.56 50.75"/><polygon class="cls-2" points="255.29 86.43 264.26 148.55 233.59 154.09 222.67 184.04 197.35 149.89 179.77 133.61 191.47 126.87 194.58 130.24 205.35 101.95 215.38 95.65 227.82 89.83 255.29 86.43"/><polygon class="cls-1" points="205.35 101.95 214.05 158.09 233.59 154.09 227.54 160.07 229.28 165.9 222.67 184.04 191.66 147.47 189.38 142.69 186.19 141.02 176.45 129.55 188.09 119.3 193.77 131.49 197.58 119.83 205.35 101.95"/><polygon class="cls-1" points="250.44 102.79 239.39 118.67 234.05 126.07 217.35 108.77 250.44 102.79"/><polygon class="cls-28" points="230.79 106.29 234.05 126.07 240.47 125.06 237.09 105.13 230.79 106.29"/><polygon class="cls-25" points="240.47 125.06 237.76 129.41 234.05 126.07 240.47 125.06"/><polygon class="cls-25" points="233.59 154.09 229.28 165.9 208.19 158.26 233.59 154.09"/><polygon class="cls-25" points="193.69 136.11 191.66 147.47 186.19 141.02 193.69 136.11"/><polygon class="cls-25" points="191.17 134.25 186.87 127.11 181.35 130.49 191.17 134.25"/><polygon class="cls-17" points="226.3 95.44 229.7 82.89 228.16 70.43 184.37 87.8 163.94 114.72 185.02 109.39 205.35 101.95 214.44 99.12 226.3 95.44"/><polygon class="cls-24" points="205.35 101.95 194.51 132.89 188.16 122.81 176.45 129.55 163.94 114.72 205.35 101.95"/><polygon class="cls-9" points="228.16 70.43 255.29 86.43 226.3 95.44 228.16 70.43"/><polygon class="cls-17" points="230.79 106.29 230.04 101.92 217.35 108.77 230.79 106.29"/><polygon class="cls-17" points="237.09 105.13 250.44 102.79 236.52 100.9 237.09 105.13"/><polygon class="cls-13" points="232.06 137.87 238.55 133.65 245.78 135.41 239.43 139.37 232.06 137.87"/><polygon class="cls-27" points="226.52 137.28 240.23 142.79 250.3 133.11 239.41 138.66 226.52 137.28"/><path class="cls-24" d="M228.76,116.2a3,3,0,1,1-3.09-3A3,3,0,0,1,228.76,116.2Z"/><path class="cls-24" d="M247.6,112.8a3,3,0,1,1-3.09-3A3,3,0,0,1,247.6,112.8Z"/><polygon class="cls-2" points="262.57 155.52 256.52 163.16 261.06 173.5 265.76 179.38 271.31 172.82 272.15 155.79 262.57 155.52"/><polygon class="cls-1" points="256.52 163.16 272.15 155.79 263.91 146.45 249.97 151.15 256.52 163.16"/><polygon class="cls-1" points="271.31 172.82 269.96 200.21 247.78 199.71 261.06 173.5 271.31 172.82"/><polygon class="cls-26" points="430.55 292.76 420.95 307.16 389.21 299.76 375.55 273.42 432.88 282.76 430.55 292.76"/><polygon class="cls-35" points="121.71 275.42 126.5 301 152.05 298.76 165.83 274.17 121.71 275.42"/><polygon class="cls-18" points="183.05 294.59 226.05 338.84 259.27 333.44 262.55 315.09 412.88 290.09 420.95 307.16 449.05 302.59 451.05 239.09 200.05 244.59 183.05 294.59"/><polygon class="cls-26" points="103.75 240.25 109 293.25 126.5 301 133.25 288.5 198.55 310.42 201.21 329.42 226.05 338.84 226.3 288.09 103.75 240.25"/><polygon class="cls-10" points="246.05 271.26 226.3 288.09 93 246.75 90.75 227 242.05 229.76 246.05 271.26"/><polygon class="cls-11" points="373.05 224.76 467.05 228.26 467.05 248.76 226.3 288.09 224.88 266.42 373.05 224.76"/><polygon class="cls-34" points="303.83 200.5 90.75 227 224.88 266.42 467.05 228.26 303.83 200.5"/></svg>