<svg id="ILLUSTRATION" xmlns="http://www.w3.org/2000/svg" viewBox="0 0 900 350"><defs><style>.cls-1,.cls-49{fill:#dcdcdb;}.cls-2,.cls-50{fill:#cecdcc;}.cls-27,.cls-3,.cls-32,.cls-46{fill:#2b2b2b;}.cls-10,.cls-11,.cls-3,.cls-33,.cls-34,.cls-35,.cls-36,.cls-37,.cls-38,.cls-39,.cls-4,.cls-40,.cls-41,.cls-42,.cls-43,.cls-44,.cls-45,.cls-46,.cls-48,.cls-49,.cls-5,.cls-50,.cls-6,.cls-7,.cls-8,.cls-9{fill-rule:evenodd;}.cls-3,.cls-32,.cls-40{opacity:0.1;}.cls-4,.cls-47{fill:#3a9fb9;}.cls-23,.cls-5{fill:#28788b;}.cls-24,.cls-6{fill:#318ea5;}.cls-29,.cls-7{fill:#50a8a9;}.cls-17,.cls-8{fill:#369395;}.cls-18,.cls-9{fill:#72cbcb;}.cls-10{fill:#1d7678;}.cls-11,.cls-56{fill:#5ebfd8;}.cls-12{fill:#9b9fa0;}.cls-13{fill:#c3c3c3;}.cls-14,.cls-39{fill:#8e8e8e;}.cls-15{fill:#debca4;}.cls-16{fill:#c2977a;}.cls-19,.cls-36{fill:#4f5353;}.cls-20,.cls-38{fill:#6f7273;}.cls-21,.cls-37{fill:#8a6651;}.cls-22{fill:#e8c9b6;}.cls-25{fill:#a2a1a1;}.cls-26{fill:#737474;}.cls-28,.cls-43{fill:#fff;}.cls-30{fill:#848585;}.cls-31,.cls-45{fill:#ebebea;}.cls-33{fill:#a17e6e;}.cls-34{fill:#7f5b4c;}.cls-35,.cls-54{fill:#474748;}.cls-40{fill:#090a0a;}.cls-41{fill:#593e35;}.cls-42{fill:#a98c80;}.cls-44{fill:#185e60;}.cls-48{fill:#74cee4;}.cls-51{fill:#be9b82;}.cls-52{fill:#a67e62;}.cls-53{fill:#825941;}.cls-55{fill:#c8ac9a;}</style></defs><title>sentinels_Logistician_ISTJ_romantic_relationships</title><polygon class="cls-1" points="443 38 430 23 0 0 9 295 447 247 443 38"/><polygon class="cls-2" points="429 53 424.75 211.75 447 247 885 302 898.5 0 430 23 429 53"/><g id="left_flower" data-name="left flower"><polygon class="cls-3" points="29.33 312.67 111.85 335.05 200 319.67 117.3 300.9 29.33 312.67"/><polygon class="cls-4" points="129.78 308.78 126.39 313.24 120.63 310.79 118.69 281.77 131.12 280.07 129.78 308.78"/><polygon class="cls-5" points="126 279.25 126.39 313.24 134.49 312.43 136.53 276.24 126 279.25"/><polygon class="cls-6" points="70.92 266.27 73.18 316.47 81.52 315.24 85.78 268.17 70.92 266.27"/><polygon class="cls-5" points="162.06 269.42 157.5 320.25 148.44 317.01 142.51 267.77 162.06 269.42"/><polygon class="cls-4" points="114.4 275.44 108.95 325.54 101.52 323.21 99.7 286.03 74.22 280.85 73.18 316.47 67.45 314.49 66.81 254.26 130.63 263.44 121.74 270 114.4 275.44"/><polygon class="cls-6" points="170.22 257.42 167.77 319.15 157.5 320.25 155.03 282.55 122.4 286.57 120.25 324.75 108.95 325.54 109.58 279.95 170.22 257.42"/><polygon class="cls-7" points="86.95 246.75 62.7 246.35 56.38 267.06 109.58 279.95 117.76 251.88 86.95 246.75"/><polygon class="cls-8" points="130.46 250.72 175.08 248.66 182.26 273.32 109.58 279.95 111.87 256.63 130.46 250.72"/><polygon class="cls-9" points="175.08 248.66 111.87 256.63 62.23 246.35 139.97 240.33 175.08 248.66"/><polygon class="cls-10" points="107.7 187.79 108.11 186.03 112.97 208.26 115.46 224.9 115.74 227.81 105.39 190.95 107.7 187.79"/><polygon class="cls-10" points="109.99 181.81 108.6 176.07 97.53 180.02 105.78 191.56 109.99 181.81"/><polygon class="cls-8" points="107.41 186.93 97.53 180.02 94.93 190.59 106.28 194.1 107.41 186.93"/><polygon class="cls-7" points="106.28 194.1 112.94 189.09 108.6 176.07 106.28 194.1"/><polygon class="cls-10" points="122.82 195.08 123.87 193.61 119.62 210.52 119.83 218.82 116.47 220.85 119.34 194.85 122.82 195.08"/><polygon class="cls-10" points="126.03 195.39 128.16 184.6 116.42 183.98 119.34 195.16 126.03 195.39"/><polygon class="cls-8" points="126.07 196.05 116.42 183.98 115.73 196.05 122.63 200.11 126.07 196.05"/><polygon class="cls-8" points="107.01 212.73 112.97 208.26 116.89 222.63 115.23 225.4 112.23 222.38 105.77 215.34 107.01 212.73"/><polygon class="cls-8" points="126.69 209.46 119.62 210.52 115.89 222.57 118.87 224.43 120.3 222.32 129.42 211.95 126.69 209.46"/><polygon class="cls-6" points="117.45 223.87 115.89 222.57 112.23 222.38 111.92 225.24 118.13 228.72 117.45 223.87"/><polygon class="cls-4" points="118.81 228.53 120.61 225.36 120.3 222.32 115.89 222.57 115.77 225.49 118.81 228.53"/><polygon class="cls-3" points="134.77 245.36 116.76 242.38 99.62 246.6 118.63 249.95 134.77 245.36"/><polygon class="cls-4" points="117.76 229.46 115.77 225.49 111.92 225.24 103.91 233.35 117.01 241.26 117.76 229.46"/><polygon class="cls-11" points="121.73 239.52 129.18 233.19 120.61 225.36 115.77 225.49 115.27 234.3 121.73 239.52"/><polygon class="cls-6" points="120.12 238.65 116.76 247.84 107.32 245.48 103.91 233.35 115.27 234.3 120.12 238.65"/><polygon class="cls-4" points="129.18 233.19 125.7 246.48 116.76 247.84 115.27 234.3 129.18 233.19"/><polygon class="cls-7" points="144.07 223.12 127.31 204.37 119.62 210.52 144.07 223.12"/><polygon class="cls-7" points="98.62 230.2 99.74 210.58 112.97 208.26 98.62 230.2"/><polygon class="cls-7" points="122.63 200.11 131.63 196.43 128.16 184.6 122.63 200.11"/></g><g id="right_flower" data-name="right flower"><polygon class="cls-3" points="665.75 319.75 755.5 341.5 818.5 319.5 741.75 302.75 665.75 319.75"/><polygon class="cls-4" points="735 313 738.3 317.32 743.93 314.95 746.07 285.42 733.93 283.77 735 313"/><polygon class="cls-5" points="738.92 282.98 738.3 317.32 730.4 316.54 728.64 280.07 738.92 282.98"/><polygon class="cls-6" points="780.7 269.31 778.5 321.21 771.06 320.45 769.01 271.88 780.7 269.31"/><polygon class="cls-5" points="703.71 273.46 707.99 324.31 716.83 321.17 722.8 271.86 703.71 273.46"/><polygon class="cls-4" points="750.25 279.29 754.67 330.87 761.75 327.4 764.6 289.56 777.87 281.77 778.5 321.21 784.5 317.88 786.63 258.44 734.4 267.65 743.08 274.01 750.25 279.29"/><polygon class="cls-6" points="695.74 261.82 697.96 323.24 707.99 324.31 710.57 286.18 742.44 290.08 744.15 329.75 754.67 330.87 758.47 272.03 695.74 261.82"/><polygon class="cls-7" points="777.05 251.47 791.15 250.4 795.38 271.13 757.88 284.25 746.97 256.45 777.05 251.47"/><polygon class="cls-8" points="734.57 255.33 691 253.33 681.13 276.5 757.88 284.25 758.92 261.01 734.57 255.33"/><polygon class="cls-9" points="691 253.33 758.92 261.01 791.15 250.4 732.58 246.31 691 253.33"/><polygon class="cls-10" points="754.34 203.65 753.93 201.87 750.21 219.17 748.5 232.38 748.21 235.3 756.67 206.83 754.34 203.65"/><polygon class="cls-10" points="752.05 197.63 753.45 191.85 764.59 195.83 756.28 207.44 752.05 197.63"/><polygon class="cls-8" points="754.64 202.78 764.59 195.83 764.42 202.87 755.78 210 754.64 202.78"/><polygon class="cls-7" points="755.78 210 749.09 199.51 753.45 191.85 755.78 210"/><polygon class="cls-10" points="740.94 196.73 739.88 195.25 744.31 217.9 744.1 226.26 747.48 228.3 744.44 196.5 740.94 196.73"/><polygon class="cls-10" points="737.71 197.04 735.56 186.19 747.38 185.56 744.44 196.81 737.71 197.04"/><polygon class="cls-8" points="737.67 197.71 747.38 185.56 749.94 192.13 741.13 201.79 737.67 197.71"/><polygon class="cls-8" points="757 220.13 751 215.63 747.06 230.09 748.73 232.88 751.75 229.84 758.25 222.75 757 220.13"/><polygon class="cls-8" points="740.81 219.84 744.31 217.9 748.06 230.03 745.06 231.9 743.62 229.78 737.37 221.9 740.81 219.84"/><polygon class="cls-4" points="746.5 231.34 748.06 230.03 751.75 229.84 752.06 232.71 745.81 236.21 746.5 231.34"/><polygon class="cls-6" points="745.12 236.03 743.31 232.84 743.62 229.78 748.06 230.03 748.18 232.96 745.12 236.03"/><polygon class="cls-3" points="729.06 252.96 747.18 249.96 764.43 254.21 745.31 257.59 729.06 252.96"/><polygon class="cls-11" points="746.18 236.96 748.18 232.96 752.06 232.71 760.13 240.88 746.93 248.84 746.18 236.96"/><polygon class="cls-4" points="742.18 247.09 734.68 240.71 743.31 232.84 748.18 232.96 748.68 241.84 742.18 247.09"/><polygon class="cls-4" points="743.81 246.21 747.18 255.46 756.68 253.09 760.13 240.88 748.68 241.84 743.81 246.21"/><polygon class="cls-6" points="734.68 240.71 738.18 254.09 747.18 255.46 748.68 241.84 734.68 240.71"/><polygon class="cls-7" points="730.12 227.15 733.25 215.88 744.31 217.9 730.12 227.15"/><polygon class="cls-7" points="761.29 231.17 761.75 217.38 751 215.63 761.29 231.17"/><polygon class="cls-7" points="741.13 201.79 734.5 194.94 735.56 186.19 741.13 201.79"/></g><polygon class="cls-12" points="266.19 149.52 259.19 143.19 246.5 155 254.5 203 277.83 213.08 266.19 149.52"/><polygon class="cls-13" points="289.5 147.08 288.26 141.22 259.19 143.19 269.17 202.75 294.5 202.75 289.5 147.08"/><polygon class="cls-14" points="562.67 163.92 576.42 150.17 584.42 160.17 574 219 545 218 562.67 163.92"/><polygon class="cls-12" points="542.42 148.17 546.67 146.67 576.42 150.17 564.5 208.5 531 205.75 542.42 148.17"/><polygon class="cls-15" points="414.96 131 415.67 121.99 427.47 114.13 437.59 124.34 427.65 136.95 414.96 131"/><polygon class="cls-16" points="404.13 128.6 407.06 127.98 415.67 121.99 427.65 136.95 414.33 145.2 402.35 141.39 404.13 128.6"/><polygon class="cls-15" points="401.91 142.27 399.42 134.91 400.31 124.61 410.44 116.86 413 119.72 408.03 127.36 410.61 134.46 401.91 142.27"/><polygon class="cls-1" points="393.29 157.54 393.83 142.01 399.42 134.91 414.33 145.2 410.16 152.13 393.29 157.54"/><polygon class="cls-17" points="332.39 170.95 349.88 135.65 391.25 161.76 364.98 176.01 332.39 170.95"/><polygon class="cls-18" points="288.26 141.22 288.84 191.34 268.49 208.4 270.13 151.72 288.26 141.22"/><polygon class="cls-19" points="332.81 223.97 338.43 221.81 357.19 223.13 342 261.37 325.82 275.09 314.26 272.98 315 242.93 332.81 223.97"/><polygon class="cls-20" points="326.24 244.51 322.67 265.89 307.12 278.97 296.53 265.5 288.72 218.27 308.17 228.01 326.24 244.51"/><polygon class="cls-19" points="351.09 215.14 357.19 223.13 326.24 244.51 288.72 218.27 351.09 215.14"/><polygon class="cls-15" points="372.71 42.24 349.69 40.78 335.58 42.82 325.77 36.24 310.21 32.01 311.94 41.08 317.72 46.25 311.09 55.01 309.46 65.23 309.85 78.41 314.1 90.02 310.96 89.54 307.87 91.32 307.53 85.34 305.19 75.51 296.55 75.06 290.43 76.94 294.74 92.76 298.62 101.32 297.44 106.45 299.54 113.93 301.18 117.54 299.97 120.58 308.28 129.48 322.2 139.96 327.71 136.72 331.18 131.95 333.85 122.11 364.8 123.83 369.14 88.42 372.25 82.19 372.97 69.92 371.13 65.88 372.71 42.24"/><polygon class="cls-16" points="322.89 37.42 323.44 62.45 322.18 85.13 321.15 121.17 333.85 122.11 331.46 126.53 331.18 131.95 322.2 139.96 299.77 124.61 297.24 105.8 296.31 93.18 307.87 91.32 306.8 85.06 307.49 79.79 311.3 82.5 309.46 65.23 312.04 55.92 317.72 46.25 313.15 40.21 310.21 32.01 318.5 34.75 322.89 37.42"/><polygon class="cls-21" points="296.31 93.18 307.87 91.32 297.24 105.8 295.24 98.12 296.31 93.18"/><polygon class="cls-21" points="333.85 122.11 315.82 120.75 322.2 139.96 328.15 136.68 331.18 131.95 333.85 122.11"/><polygon class="cls-16" points="327.66 80.2 331.18 70.86 341.06 71.15 342.88 82.27 322.18 85.13 342.03 88.4 344.84 92.71 346.92 64.2 328.59 68.36 325.2 73.81 327.66 80.2"/><polygon class="cls-16" points="359.56 81.79 362.03 73.53 371.19 73.08 373.23 74.99 369.87 85.73 353.23 87.25 352.95 90.5 369.14 88.42 374.23 79.9 374.08 68.26 357.53 68.44 355.46 81.06 359.56 81.79"/><polygon class="cls-21" points="344.84 92.71 348.37 97.15 352.75 93.44 344.84 92.71"/><polygon class="cls-22" points="346.71 69.8 354.5 70.18 352.75 93.44 344.84 92.71 346.71 69.8"/><polygon class="cls-23" points="346.71 69.8 345.74 66.76 346.92 64.2 354.84 64.72 356.37 67.69 354.5 70.18 346.71 69.8"/><path class="cls-24" d="M346.92,64.2l-23.48-1.75-1.34,8.34.63,5.51-.55,8.83,23.15,1.34,1.38-16.67Zm-18.33,4.16h0l12.6.92L340.33,81l-12.67-.83Z"/><path class="cls-24" d="M354.84,64.72l23,1.68L376.1,88.84l-22.87-1.58,1.27-17.08Zm5.53,6.07h0l-.81,11,10.91.95.81-11.21Z"/><polygon class="cls-21" points="336.39 101.53 357.23 103.53 353.7 112.89 339.14 111.56 336.39 101.53"/><polygon class="cls-21" points="303.15 88 301.01 78.29 295.88 79.13 303.15 88"/><polygon class="cls-2" points="372.71 42.24 332.69 26.03 333.02 35.81 335.58 42.82 372.71 42.24"/><polygon class="cls-13" points="310.21 32.01 300.06 33.88 293.06 51.03 304.1 50.88 317.72 46.25 310.21 32.01"/><polygon class="cls-2" points="293.06 51.03 280.78 80.2 296.55 75.06 309.77 68.09 317.72 46.25 293.06 51.03"/><polygon class="cls-25" points="310.12 69.61 312.93 84.04 306.8 85.06 305.08 74.93 291.97 77.9 296.17 92.71 297.24 105.8 281.28 79.95 288.56 76.81 310.12 69.61"/><polygon class="cls-13" points="335.58 42.82 332.69 26.03 310.21 32.01 335.58 42.82"/><polygon class="cls-23" points="323.44 62.45 288.56 76.81 289.63 85.49 291.97 77.9 322.94 72.33 323.44 62.45"/><polygon class="cls-21" points="311.16 74.41 322.94 72.33 322.89 73.51 322.73 76.3 311.57 77.02 311.16 74.41"/><polygon class="cls-26" points="305.19 75.51 311.16 74.41 311.57 77.02 305.51 77.55 305.19 75.51"/><polygon class="cls-1" points="299.55 124.3 297.08 134.54 319.73 147.05 329.03 150.04 335.91 142.32 339.69 132.5 332.65 127.08 326.08 137.17 299.55 124.3"/><polygon class="cls-13" points="339.69 132.5 349.88 135.65 341.85 151.62 332.34 164.49 308.43 153.62 288.26 141.22 297.08 134.54 329.03 150.04 339.69 132.5"/><polygon class="cls-23" points="288.26 141.22 322.99 159.55 327.24 160.81 332.34 164.49 336.83 202.64 288.72 186.13 288.26 141.22"/><polygon class="cls-23" points="332.34 164.49 334.23 159.29 338.43 154.46 349.88 135.65 353.67 179.41 343.11 192.37 332.39 200.33 329.71 182.2 332.34 164.49"/><polygon class="cls-19" points="326.08 137.17 320.52 145.89 329.03 150.04 334.39 141.38 326.08 137.17"/><polygon class="cls-26" points="329.03 150.04 322.99 159.55 332.34 164.49 338.43 154.46 329.03 150.04"/><polygon class="cls-17" points="353.67 179.41 332.39 199.27 288.72 186.13 288.72 218.27 333.1 225.55 357.35 223.13 353.67 179.41"/><path class="cls-27" d="M338.73,74.11a2.34,2.34,0,0,1-4.51-1.22,2.3,2.3,0,0,1,2.88-1.61A2.33,2.33,0,0,1,338.73,74.11Z"/><path class="cls-27" d="M367.93,76.55a2.26,2.26,0,0,1-2.84,1.62,2.29,2.29,0,1,1,1.2-4.41A2.26,2.26,0,0,1,367.93,76.55Z"/><polygon class="cls-28" points="338.92 103.7 354.81 105.14 353.68 108.32 339.56 106.9 338.92 103.7"/><polygon class="cls-18" points="393.83 142.01 364.98 176.01 392.67 180.27 410.16 152.13 393.83 142.01"/><polygon class="cls-13" points="817.67 56.67 816 215 512.33 184 540 65.33 817.67 56.67"/><polygon class="cls-2" points="606 106.33 565 104.33 601.33 124.33 668 111 624 112.67 606 106.33"/><polygon class="cls-2" points="726.5 90 706 92 672 88.25 721.5 110.25 803 88.25 751.5 87 726.5 90"/><polygon class="cls-17" points="772.49 177.71 770.06 178.7 768.76 186.96 769.72 187.17 772.49 177.71"/><polygon class="cls-29" points="774.52 170.2 779.17 177 769.8 180.53 770.83 170.11 774.52 170.2"/><polygon class="cls-18" points="770.67 169.41 764 174.78 769.8 180.53 772.13 175.31 770.67 169.41"/><polygon class="cls-17" points="775.03 165.25 779.67 172.5 772.13 175.31 771.38 168.11 775.03 165.25"/><polygon class="cls-29" points="771.79 164.76 766.75 169 772.13 175.31 772.92 167.7 771.79 164.76"/><polygon class="cls-29" points="772.71 164.93 773.5 154.83 778.27 166.3 772.94 167.75 772.71 164.93"/><polygon class="cls-18" points="773.5 154.83 769.23 163.63 772.92 167.7 773.5 154.83"/><polygon class="cls-17" points="677.85 175.05 676.06 177.07 678.6 185.28 679.58 185.04 677.85 175.05"/><polygon class="cls-29" points="676.33 167.2 683.33 172.41 676.65 178.87 672.87 168.79 676.33 167.2"/><polygon class="cls-18" points="672.41 168.22 668.68 176.2 676.65 178.87 676.43 173 672.41 168.22"/><polygon class="cls-17" points="674.55 162.4 681.14 167.92 676.43 173 672.47 166.7 674.55 162.4"/><polygon class="cls-29" points="671.33 163.42 668.6 169.61 676.43 173 673.72 165.62 671.33 163.42"/><polygon class="cls-29" points="672.26 163.15 672.21 155.65 678.01 161.9 673.75 165.65 672.26 163.15"/><polygon class="cls-18" points="672.21 155.65 668.46 163.54 673.72 165.62 672.21 155.65"/><polygon class="cls-25" points="642.5 196.5 638 179 566.5 166 527 197.5 632 212 642.5 196.5"/><polygon class="cls-14" points="668.5 188 638 179 576 204 576.5 212 739 226.5 722.5 203 668.5 188"/><polygon class="cls-30" points="739 191 688 206.5 719.5 228 817.5 237 816.5 204.5 739 191"/><polygon class="cls-25" points="744.5 190.5 726 167 638 179 688 206.5 744.5 190.5"/><polygon class="cls-14" points="819.5 201.5 726 167 688 206.5 815 213 819.5 201.5"/><polygon class="cls-31" points="559 53 530.33 107.67 530.63 108.74 558 70.67 813 65.67 806.67 227.67 593 207 560.75 217.3 562.33 223 829.67 250.33 835 43 559 53"/><polygon class="cls-1" points="803 88.25 747.75 82.75 712.5 87.5 672 88.25 722.75 100.75 764 88.75 803 88.25"/><polygon class="cls-1" points="565 104.33 608 101 630.33 108 668 111 625.33 115.67 601.33 110.33 565 104.33"/><polygon class="cls-31" points="771.31 136.48 772.25 139.82 775.86 139.78 773.05 141.57 774.12 145.12 771.5 142.5 768.5 145.12 769.76 141.5 766.77 139.78 770.57 139.82 771.31 136.48"/><polygon class="cls-31" points="645.88 143.03 649.08 144.4 651.3 141.55 650.95 144.85 654.39 146.24 650.7 146.65 650.88 150.63 648.84 147.39 645.62 148.64 648.03 145.71 645.88 143.03"/><polygon class="cls-31" points="725.95 125.63 725.48 128.5 728.24 129.73 725.49 130.11 725.05 133.18 723.98 130.27 720.79 131.22 723 128.91 721.34 126.55 724.21 127.91 725.95 125.63"/><polygon class="cls-31" points="635.7 83.01 633.22 84.53 634.09 87.42 632.01 85.58 629.39 87.25 630.9 84.54 628.11 82.73 631.3 82.91 632.01 80.11 632.84 83.18 635.7 83.01"/><polygon class="cls-31" points="571.01 126.74 569.17 128.99 570.94 131.44 568.37 130.38 566.45 132.82 566.98 129.77 563.75 128.98 566.82 128.1 566.56 125.22 568.36 127.84 571.01 126.74"/><polygon class="cls-32" points="594.31 176 606.56 175.13 617.44 178.44 604.31 180.69 594.31 176"/><polygon class="cls-32" points="687.68 178.9 699.78 176.82 710.93 179.05 698.09 182.58 687.68 178.9"/><polygon class="cls-17" points="611.43 162.69 607.49 164.3 605.37 177.7 606.93 178.04 611.43 162.69"/><polygon class="cls-29" points="614.73 150.5 621.03 162.75 609.67 168.42 608.74 150.35 614.73 150.5"/><polygon class="cls-18" points="608.47 149.22 597.64 157.94 609.67 168.42 610.85 158.79 608.47 149.22"/><polygon class="cls-17" points="615.55 142.46 621.05 154.88 610.85 158.79 609.63 147.11 615.55 142.46"/><polygon class="cls-29" points="610.29 141.67 602.11 148.55 610.85 158.79 612.14 146.44 610.29 141.67"/><polygon class="cls-29" points="611.79 141.94 620.75 129 620.81 144.18 612.16 146.53 611.79 141.94"/><polygon class="cls-18" points="620.75 129 606.14 139.85 612.14 146.44 620.75 129"/><polygon class="cls-17" points="699.67 160.64 695.48 164.02 697.77 181.07 699.79 180.91 699.67 160.64"/><polygon class="cls-29" points="699.27 144.64 712.25 160.42 696.05 167.78 691.93 146.63 699.27 144.64"/><polygon class="cls-18" points="690.04 148.86 680.04 163.37 696.05 167.78 697.56 156.11 690.04 148.86"/><polygon class="cls-17" points="697.35 134.57 708.53 147.66 697.56 156.11 691.84 142.38 697.35 134.57"/><polygon class="cls-29" points="690.67 135.53 683.23 146.84 697.56 156.11 694.64 140.65 690.67 135.53"/><polygon class="cls-29" points="692.59 135.31 695.25 115.58 704.35 134.75 694.7 140.74 692.59 135.31"/><polygon class="cls-18" points="695.25 115.58 684.97 134.81 694.64 140.65 695.25 115.58"/><g id="woman_character" data-name="woman character"><polygon class="cls-33" points="504.61 155.73 496.9 147.11 474.65 173.97 480.58 193.48 500.75 180.9 504.61 155.73"/><polygon class="cls-34" points="478.51 145.34 471.32 151.33 459.07 190.82 480.44 195.01 486.1 154.53 478.51 145.34"/><polygon class="cls-33" points="483.84 131.49 469.32 135.62 471.32 151.33 486.1 154.53 489.7 140.61 483.84 131.49"/><polygon class="cls-35" points="496.62 123.77 496.9 147.11 518.86 149.07 521.13 122.44 496.62 123.77"/><polygon class="cls-35" points="549.49 115.25 551.22 129.49 553.78 147.61 525.92 144.81 530.18 105.53 549.49 115.25"/><polygon class="cls-36" points="556.41 87.95 564.14 98.82 551.22 129.49 535.37 121.77 540.7 95.54 556.41 87.95"/><polygon class="cls-35" points="538.04 46.98 558.94 52.79 564.14 98.82 545.18 107.52 531.64 113.38 519.22 50.88 538.04 46.98"/><polygon class="cls-36" points="517.09 39.34 533.6 35.08 558.94 52.79 533.6 67.53 491.69 65.62 517.09 39.34"/><polygon class="cls-35" points="476.78 49.82 499.51 31.53 533.6 35.08 489.03 67.22 476.78 49.82"/><polygon class="cls-36" points="485.13 80.89 472.52 67.39 476.78 42.18 499.51 31.53 484.42 57.1 485.13 80.89"/><polygon class="cls-35" points="490.81 65.27 484.42 57.1 472.52 67.39 484.06 94.74 490.81 65.27"/><polygon class="cls-37" points="504.94 273.2 483.14 266.5 490.57 262.57 505.67 259.17 508.77 266.53 504.94 273.2"/><polygon class="cls-37" points="520.69 276.01 520.19 266.45 524.59 263.61 540.28 262.38 544.55 266.6 520.69 276.01"/><polygon class="cls-38" points="552.74 222.69 544.55 266.6 483.14 266.5 495.61 212.64 501.64 211.41 531.51 215.87 552.74 222.69"/><polygon class="cls-39" points="541.06 202.97 528.09 190.91 498.19 207.74 495.61 212.64 552.74 222.69 541.06 202.97"/><polygon class="cls-4" points="490.24 182.44 495.61 212.64 543.71 207.66 544.66 177.02 540.16 173.16 495.03 167.96 490.24 182.44"/><polygon class="cls-11" points="542.6 190.22 490.24 182.44 502.26 149.47 528.7 147.87 538.17 161.51 541.3 167.35 542.6 190.22"/><polygon class="cls-11" points="540.31 140.26 528.63 157.28 542.5 190.22 554.54 170.26 553.78 147.61 540.31 140.26"/><polygon class="cls-11" points="496.9 147.11 490.24 182.44 506.44 154.59 508.15 143.22 496.9 147.11"/><polygon class="cls-33" points="542.5 190.22 553.78 147.61 560.67 186.18 529.5 205.68 542.52 192.95 542.5 190.22"/><polygon class="cls-40" points="543.71 207.66 483.14 266.5 544.55 266.6 552.74 222.69 543.71 207.66"/><polygon class="cls-41" points="517.88 149.23 531.75 139.52 538.78 126.08 502.09 124.94 517.88 149.23"/><polygon class="cls-34" points="528.34 128.62 534.79 129.26 517.88 149.23 537.92 139.07 545.18 107.52 545.05 103.53 547.05 100.6 550.29 87.68 542.77 85.15 539.1 95.54 535.24 95 537.77 75.83 533.6 67.53 517.26 114.84 528.34 128.62"/><polygon class="cls-33" points="533.6 67.53 528.33 128.71 480.85 127.39 477.62 70.36 484.42 57.1 533.6 67.53"/><polygon class="cls-34" points="482.44 75.93 490.96 75.06 498.5 78.07 499.79 81.02 500.57 89.27 497.5 97.73 492.45 85.65 482.44 75.93"/><polygon class="cls-34" points="503.98 90.2 505.21 81.11 507.92 77.68 518.57 74.27 526.38 76.82 512.79 85.86 506.49 97.72 503.98 90.2"/><polygon class="cls-35" points="494.71 73.52 482.44 75.93 498.5 78.07 494.71 73.52"/><polygon class="cls-35" points="507.92 77.68 526.38 76.82 512.47 73.17 507.92 77.68"/><polygon class="cls-41" points="502.21 101.96 497.5 97.73 506.49 97.72 502.21 101.96"/><polygon class="cls-42" points="497.5 97.73 499.79 81.02 505.1 81.03 506.49 97.72 497.5 97.73"/><polygon class="cls-43" points="500 107.64 509.75 108.02 512.75 108.9 505.76 115.71 498.3 114.95 492.85 108.02 500 107.64"/><polygon class="cls-10" points="497.47 116.42 491.19 108.06 493.76 107.93 498.57 113.56 505.56 113.9 512.08 108.6 514.86 109.03 506.71 116.72 497.47 116.42"/><polygon class="cls-44" points="491.19 108.06 502.06 108.41 514.86 109.03 501.7 105.31 491.19 108.06"/><polygon class="cls-45" points="503.59 144.76 502.8 159.86 517.8 150.06 531.07 161.66 543.24 141.65 537.79 138.79 517.8 148.97 512.83 141.4 503.59 144.76"/><path class="cls-46" d="M515.74,85.49A2.74,2.74,0,1,1,513,82.75,2.74,2.74,0,0,1,515.74,85.49Z"/><circle class="cls-27" cx="489.7" cy="84.96" r="2.74"/><polygon class="cls-41" points="547.27 91.27 544.24 89.94 541.58 96.2 547.27 91.27"/><polygon class="cls-41" points="541.85 99.4 547.05 100.6 545.18 107.52 541.85 99.4"/><polygon class="cls-34" points="480.64 121.24 469.32 135.62 489.7 140.61 493.03 127.9 480.64 121.24"/></g><polygon class="cls-32" points="188 309 428.5 349.5 649 305.5 552.58 295.21 421 237.5 279 295 188 309"/><polygon class="cls-23" points="259.99 284.63 270.64 312.07 288.22 309.4 305.8 279.57 265.05 275.04 259.99 284.63"/><polygon class="cls-24" points="578.78 274.24 566.49 309.71 543.63 307.54 527.12 264.39 578.78 274.24"/><polygon class="cls-47" points="406.2 273.18 425.11 335.5 446.7 331.56 452.28 302.48 560.41 283.57 566.49 309.71 588.64 305.67 590.24 226.84 319.65 243.88 406.2 273.18"/><polygon class="cls-24" points="253.06 232.16 253.06 309.4 270.64 312.07 281.56 285.43 390.49 301.41 397.63 331.33 425.11 335.5 427.78 281.17 253.06 232.16"/><polygon class="cls-1" points="450.5 208.02 592.9 207.13 618.82 250.63 427.78 281.17 412.86 214.41 450.5 208.02"/><polygon class="cls-13" points="363.86 205.18 248.8 201.27 227.5 252.58 427.78 281.17 437.36 229.5 363.86 205.18"/><polygon class="cls-31" points="248.8 201.27 413.93 185.29 592.9 207.13 437.36 229.5 248.8 201.27"/><polygon class="cls-3" points="459.14 190.88 498.8 200.56 496.46 210.77 531.47 212.63 564.27 203.58 506.61 200.21 501.28 195.59 459.14 190.88"/><polygon class="cls-3" points="332.72 203.03 349.44 205.8 309.28 207.22 284.58 203.83 268.49 199.4 312.21 195.64 332.72 203.03"/><polygon class="cls-34" points="512.64 200.48 506.62 193.41 493.7 199.34 496.46 210.77 508.59 210.56 512.64 200.48"/><polygon class="cls-33" points="524.72 197.78 519.76 195.78 506.62 193.41 508.59 210.56 522.3 209.21 524.72 197.78"/><polygon class="cls-16" points="336.83 193.64 340.3 183.17 355.56 191.16 349.44 205.8 337.37 204.47 336.83 193.64"/><polygon class="cls-15" points="310.56 193.91 322.81 187.52 340.3 183.17 337.45 204.65 315.7 200.83 310.56 193.91"/><polygon class="cls-17" points="322.81 187.52 288.72 177.13 268.49 199.4 315.7 200.83 322.81 187.52"/><polygon class="cls-34" points="519.76 195.78 560.67 186.18 564.27 203.58 522.3 209.21 519.76 195.78"/><g id="something_on_the_tabble" data-name="something on the tabble"><polygon class="cls-3" points="505.21 215.29 493.78 212.52 481.74 212.49 473.33 211.98 465.69 212.89 483.07 218.22 505.21 215.29"/><polygon class="cls-3" points="393.29 204.07 424.74 200.21 454.68 206.2 424.58 211.92 393.29 204.07"/><polygon class="cls-3" points="383.5 213.41 377.03 211 364.86 210.08 356.44 209.57 348.81 210.48 366.19 215.81 383.5 213.41"/><polygon class="cls-5" points="363.29 209.14 356.45 209.57 355.64 211.43 366.38 214.04 377.62 212.47 377.04 211 363.29 209.14"/><polygon class="cls-4" points="366.19 208.18 356.45 209.57 366.26 212.25 377.04 211 366.19 208.18"/><polygon class="cls-48" points="368.12 198.83 369.37 201.21 368.68 210.25 366.39 211.03 365.65 200.11 368.12 198.83"/><polygon class="cls-11" points="365.52 199.06 364.22 200.57 363.93 209.93 366.39 211.03 366.59 201.35 365.52 199.06"/><polygon class="cls-11" points="363.52 194.54 366.59 201.35 369.37 201.21 373.88 197.71 363.52 194.54"/><polygon class="cls-4" points="362.36 190.37 360.2 196.75 364.22 200.57 366.59 201.35 366.72 198.07 362.36 190.37"/><polygon class="cls-4" points="360.1 185.42 355.24 179.34 368.25 178.29 379.96 180.99 363.63 189.19 360.1 185.42"/><polygon class="cls-48" points="363.29 187.83 367.6 183.5 379.96 180.99 373.88 197.71 366.72 198.07 363.29 187.83"/><polygon class="cls-11" points="355.24 179.34 367.6 183.5 366.72 198.07 360.2 196.75 355.24 179.34"/><polygon class="cls-45" points="425.37 166.41 424.6 164.98 426.3 164.52 428.83 165.18 425.37 166.41"/><polygon class="cls-7" points="426.69 159.24 427.14 160.39 426.79 164.92 426.25 164.92 426.13 161.65 426.69 159.24"/><polygon class="cls-7" points="426.58 153.6 426.58 139.62 429.51 152.07 433.04 152.73 425.85 157.39 426.58 153.6"/><polygon class="cls-9" points="424.85 157.46 424.31 154.46 426.58 139.62 428.77 154.2 433.04 152.73 426.13 161.65 424.85 157.46"/><polygon class="cls-4" points="421.64 182.09 420.44 180.4 426.3 179.6 433.15 181.34 422.34 182.63 421.64 182.09"/><polygon class="cls-49" points="425.27 167.51 426.5 165.35 428.83 165.18 427.93 182.33 424.57 182.49 425.27 167.51"/><polygon class="cls-50" points="423.84 183.13 424.6 164.98 426.5 165.35 425.93 181.13 423.84 183.13"/><polygon class="cls-48" points="424.05 184.05 425.93 181.13 433.15 181.34 437.94 186.44 422.27 190.53 424.05 184.05"/><polygon class="cls-5" points="421.76 201.99 406.22 202.43 405.4 204.29 424.89 208.28 443.71 205.4 443.13 203.93 421.76 201.99"/><polygon class="cls-4" points="424.74 200.21 406.22 202.43 424.77 206.49 443.13 203.93 424.74 200.21"/><polygon class="cls-48" points="426.59 191.69 427.85 194.06 427.15 203.1 424.86 203.88 424.12 192.96 426.59 191.69"/><polygon class="cls-11" points="423.99 191.92 422.69 193.42 422.4 202.78 424.86 203.88 425.06 194.21 423.99 191.92"/><polygon class="cls-4" points="421.99 187.4 425.04 195.06 427.76 194.88 432.44 192.79 421.99 187.4"/><polygon class="cls-5" points="420.83 189.82 418.67 192.37 422.64 194.73 425.04 195.06 425.19 192.9 420.83 189.82"/><polygon class="cls-11" points="418.57 187.84 413.71 185.41 420.44 180.4 425.93 181.13 426.07 187.07 418.57 187.84"/><polygon class="cls-11" points="421.75 188.8 426.07 187.07 437.94 186.44 432.35 192.75 425.19 192.9 421.75 188.8"/><polygon class="cls-4" points="413.71 185.41 426.07 187.07 425.19 192.9 418.67 192.37 413.71 185.41"/><polygon class="cls-7" points="426.58 139.62 421.45 157.53 426.13 161.65 425.25 154.26 426.58 139.62"/><polygon class="cls-10" points="480.04 211.58 473.2 212.01 472.39 213.87 483.13 216.48 494.36 213.99 493.78 212.52 480.04 211.58"/><polygon class="cls-8" points="482.94 210.62 473.2 212.01 483.02 214.69 493.78 212.52 482.94 210.62"/><polygon class="cls-9" points="484.87 201.27 486.13 203.65 485.43 212.69 483.14 213.47 482.4 202.55 484.87 201.27"/><polygon class="cls-7" points="482.27 201.5 480.97 203.01 480.68 212.37 483.14 213.47 483.35 203.79 482.27 201.5"/><polygon class="cls-7" points="480.27 196.98 483.35 203.79 486.13 203.65 490.63 200.15 480.27 196.98"/><polygon class="cls-8" points="479.12 192.81 476.95 199.19 480.97 203.01 483.35 203.79 483.48 200.51 479.12 192.81"/><polygon class="cls-8" points="476.86 187.87 471.99 181.78 482.55 180.59 496.71 183.43 480.39 191.63 476.86 187.87"/><polygon class="cls-9" points="480.04 190.27 484.35 185.95 496.71 183.43 490.63 200.15 483.48 200.51 480.04 190.27"/><polygon class="cls-7" points="471.99 181.78 484.35 185.95 483.48 200.51 476.95 199.19 471.99 181.78"/></g><g id="chat_bubble" data-name="chat bubble"><polygon class="cls-31" points="133 7.5 28.67 53.33 36 142.33 116 168.33 223.67 149.67 260 84.5 229 31 133 7.5"/><polygon class="cls-31" points="228.67 104.33 284.5 114.5 225 126 228.67 104.33"/></g><g id="scene_in_the_chat_bubble" data-name="scene in the chat bubble"><polygon class="cls-34" points="152.33 137.67 157.33 135 172.33 125.5 176.67 135.5 157.5 144 152.33 137.67"/><polygon class="cls-33" points="191.33 118.67 184.84 107.74 172.33 125.5 176.67 135.5 193.83 127 191.33 118.67"/><polygon class="cls-34" points="204.42 133.17 207.75 122.33 223.5 133.33 213.01 149.88 204.08 141.5 204.42 133.17"/><polygon class="cls-33" points="210.97 132.44 217.44 108.03 223.5 133.33 212.95 131.82 210.99 134 210.97 132.44"/><polygon class="cls-35" points="184.69 94.36 184.84 107.74 197.43 108.86 198.73 93.6 184.69 94.36"/><polygon class="cls-35" points="214.98 89.48 215.97 97.64 217.44 108.03 201.47 106.42 203.91 83.91 214.98 89.48"/><polygon class="cls-36" points="218.95 73.84 223.37 80.07 215.97 97.64 206.89 93.22 209.94 78.19 218.95 73.84"/><polygon class="cls-35" points="208.42 50.36 220.4 53.69 223.37 80.07 212.51 85.05 204.75 88.41 197.63 52.6 208.42 50.36"/><polygon class="cls-36" points="196.41 45.99 205.87 43.55 220.4 53.69 205.87 62.14 181.86 61.04 196.41 45.99"/><polygon class="cls-35" points="173.32 51.99 186.34 41.51 205.87 43.55 180.34 61.96 173.32 51.99"/><polygon class="cls-36" points="178.1 69.79 170.88 62.06 173.32 47.62 186.34 41.51 177.69 56.16 178.1 69.79"/><polygon class="cls-35" points="181.35 60.84 177.69 56.16 170.88 62.06 177.49 77.73 181.35 60.84"/><polygon class="cls-38" points="216.84 151.04 181.44 157.06 184.11 145.28 187.56 144.58 204.68 147.13 216.84 151.04"/><polygon class="cls-39" points="210.15 139.75 202.72 132.83 185.59 142.48 184.11 145.28 216.84 151.04 210.15 139.75"/><polygon class="cls-4" points="181.03 127.98 184.11 145.28 211.67 142.43 214.67 132.25 209.63 122.66 183.78 119.68 181.03 127.98"/><polygon class="cls-11" points="214.67 132.25 181.03 127.98 187.92 109.09 203.07 108.17 208.49 115.99 210.29 119.33 214.67 132.25"/><polygon class="cls-11" points="209.72 103.81 203.03 113.56 214.67 132.25 217.44 108.03 209.72 103.81"/><polygon class="cls-11" points="184.84 107.74 181.03 127.98 190.31 112.02 191.29 105.5 184.84 107.74"/><polygon class="cls-41" points="196.87 108.95 204.81 103.39 208.84 95.69 187.82 95.03 196.87 108.95"/><polygon class="cls-34" points="202.86 97.14 206.56 97.51 196.87 108.95 208.35 103.13 212.51 85.05 212.44 82.77 213.58 81.09 215.44 73.69 211.13 72.23 209.03 78.19 206.81 77.88 208.26 66.89 205.87 62.14 196.51 89.25 202.86 97.14"/><polygon class="cls-33" points="205.87 62.14 202.85 97.19 175.65 96.44 173.8 63.76 177.69 56.16 205.87 62.14"/><polygon class="cls-34" points="176.56 66.95 181.44 66.45 185.76 68.18 186.5 69.87 186.95 74.6 185.19 79.44 182.3 72.52 176.56 66.95"/><polygon class="cls-34" points="188.9 75.13 189.61 69.92 191.16 67.95 197.26 66 201.74 67.46 193.95 72.64 190.34 79.44 188.9 75.13"/><polygon class="cls-35" points="183.59 65.57 176.56 66.95 185.76 68.18 183.59 65.57"/><polygon class="cls-35" points="191.16 67.95 201.74 67.46 193.77 65.37 191.16 67.95"/><polygon class="cls-41" points="187.89 81.87 185.19 79.44 190.34 79.44 187.89 81.87"/><polygon class="cls-42" points="185.19 79.44 186.5 69.87 189.54 69.88 190.34 79.44 185.19 79.44"/><polygon class="cls-43" points="186.62 85.12 192.21 85.34 193.93 85.84 189.92 89.75 185.65 89.31 182.52 85.34 186.62 85.12"/><polygon class="cls-10" points="185.17 90.15 181.58 85.36 183.04 85.29 185.81 88.52 189.81 88.71 193.54 85.67 195.13 85.92 190.47 90.32 185.17 90.15"/><polygon class="cls-44" points="181.58 85.36 187.8 85.56 195.13 85.92 187.6 83.79 181.58 85.36"/><polygon class="cls-45" points="188.68 106.39 188.23 115.04 196.82 109.43 204.43 116.08 211.4 104.61 208.27 102.97 196.82 108.8 193.97 104.47 188.68 106.39"/><path class="cls-46" d="M195.64,72.43a1.57,1.57,0,1,1-1.57-1.57A1.57,1.57,0,0,1,195.64,72.43Z"/><path class="cls-46" d="M182.29,72.12a1.57,1.57,0,1,1-1.57-1.56A1.57,1.57,0,0,1,182.29,72.12Z"/><polygon class="cls-41" points="213.71 75.74 211.97 74.98 210.45 78.57 213.71 75.74"/><polygon class="cls-41" points="210.6 80.4 213.58 81.09 212.51 85.05 210.6 80.4"/><polygon class="cls-23" points="66.25 120.63 61.28 123.06 46.5 125.88 57.13 149.2 66.25 120.63"/><polygon class="cls-18" points="64.7 97.43 69.88 126.38 66.38 133.13 46.5 125.88 57 100.25 64.7 97.43"/><polygon class="cls-51" points="137.73 101.98 138.87 96.9 146.24 93.39 151.17 100.04 144.47 106.41 137.73 101.98"/><polygon class="cls-52" points="131.75 99.73 133.47 99.61 138.87 96.9 144.47 106.41 136.21 110.02 129.69 106.87 131.75 99.73"/><polygon class="cls-51" points="129.37 107.33 128.56 102.93 129.9 97.14 136.31 93.55 137.54 95.39 134.08 99.34 134.97 103.59 129.37 107.33"/><polygon class="cls-1" points="123.21 115.33 125.63 105.56 128.56 102.93 136.21 110.02 133.27 113.63 123.21 115.33"/><polygon class="cls-17" points="87.41 117.99 100.27 99.3 121.7 117.57 105.56 123.54 87.41 117.99"/><polygon class="cls-19" points="83.31 148.23 86.69 147.46 97.27 149.75 96.06 161.88 78.75 156.42 71.75 150.25 83.31 148.23"/><polygon class="cls-20" points="78.75 156.42 57.13 149.2 58.65 141.38 68.94 148.52 78.75 156.42"/><polygon class="cls-19" points="94.45 144.7 97.27 149.75 78.75 156.42 58.65 141.38 94.45 144.7"/><polygon class="cls-15" points="120.92 47.95 107.92 45.23 99.71 45.24 94.66 40.69 86.14 37 86.38 42.31 89.25 45.73 84.76 50.18 82.99 55.87 82.14 63.41 83.61 70.37 81.86 69.85 79.95 70.6 80.25 67.17 79.72 61.38 74.83 60.42 71.19 60.99 72.35 70.35 73.86 75.55 72.77 78.37 73.36 82.81 74 85 73.06 86.63 77.06 92.39 84.14 99.5 87.54 98.1 89.91 95.67 92.24 90.28 109.73 93.79 115.11 73.97 117.39 70.67 118.8 63.74 118.08 61.28 120.92 47.95"/><polygon class="cls-16" points="92.93 41.12 91.19 55.43 88.61 68.25 85.08 88.7 92.24 90.28 90.51 92.6 89.91 95.67 84.14 99.5 72.61 88.91 72.71 77.98 73.22 70.72 79.95 70.6 79.86 66.95 80.68 64 82.63 65.86 82.99 55.87 85.23 50.77 89.25 45.73 87.15 41.92 86.14 37 90.64 39.24 92.93 41.12"/><polygon class="cls-21" points="73.22 70.72 79.95 70.6 72.71 77.98 72.2 73.45 73.22 70.72"/><polygon class="cls-21" points="92.24 90.28 82.08 88.03 84.14 99.5 87.8 98.11 89.91 95.67 92.24 90.28"/><polygon class="cls-16" points="92.14 65.89 94.91 60.86 100.52 61.83 100.65 68.31 88.61 68.25 99.66 71.74 100.91 74.42 104.43 58.35 93.64 59.22 91.26 62.05 92.14 65.89"/><polygon class="cls-16" points="110.19 69.41 112.27 64.9 117.53 65.39 118.53 66.65 115.74 72.5 106.14 72 105.71 73.83 115.11 73.97 118.7 69.53 119.57 62.88 110.12 61.63 107.91 68.65 110.19 69.41"/><polygon class="cls-21" points="100.91 74.42 102.55 77.24 105.36 75.49 100.91 74.42"/><polygon class="cls-22" points="103.84 61.52 108.25 62.37 105.36 75.49 100.91 74.42 103.84 61.52"/><polygon class="cls-23" points="103.84 61.52 103.54 59.71 104.43 58.35 108.9 59.29 109.53 61.11 108.25 62.37 103.84 61.52"/><path class="cls-24" d="M104.43,58.35,91.19,55.43l-1.45,4.64-.09,3.19-1,5,13.09,2.66,2.15-9.39Zm-10.79.87h0l7.1,1.55L99.3,67.4l-7.16-1.51Z"/><path class="cls-24" d="M108.9,59.29l13,2.84L119,74.78,106.14,72l2.12-9.63Zm2.65,3.92h0l-1.36,6.2,6.14,1.43,1.38-6.32Z"/><polygon class="cls-21" points="95.37 78.75 107.08 81.6 104.31 86.65 96.12 84.7 95.37 78.75"/><polygon class="cls-21" points="77.54 68.33 77.11 62.62 74.12 62.68 77.54 68.33"/><polygon class="cls-1" points="120.92 47.95 99.44 35.43 98.83 41.03 99.71 45.24 120.92 47.95"/><polygon class="cls-13" points="86.14 37 80.21 37.24 74.81 46.44 81.12 47.25 89.25 45.73 86.14 37"/><polygon class="cls-1" points="74.81 46.44 65.43 62.05 74.83 60.42 82.94 57.53 89.25 45.73 74.81 46.44"/><polygon class="cls-25" points="83.01 58.42 83.44 66.87 79.86 66.95 79.71 61.04 71.99 61.66 73.17 70.44 72.71 77.98 65.74 61.95 70.14 60.76 83.01 58.42"/><polygon class="cls-13" points="99.71 45.24 99.44 35.43 86.14 37 99.71 45.24"/><polygon class="cls-23" points="91.19 55.43 70.14 60.76 70.04 65.79 71.99 61.66 90.09 61.02 91.19 55.43"/><polygon class="cls-21" points="83.21 61.24 90.09 61.02 89.97 61.69 89.65 63.26 83.23 62.76 83.21 61.24"/><polygon class="cls-26" points="79.72 61.38 83.21 61.24 83.23 62.76 79.74 62.57 79.72 61.38"/><polygon class="cls-1" points="72.52 88.72 70.27 94.35 82.15 103.33 87.21 105.8 91.76 101.96 94.72 96.67 91.15 93.01 86.58 98.22 72.52 88.72"/><polygon class="cls-13" points="94.72 96.67 100.27 99.3 94.38 107.75 87.91 114.3 75.18 106.15 64.7 97.43 70.27 94.35 87.21 105.8 94.72 96.67"/><polygon class="cls-23" points="64.7 97.43 82.98 110.72 85.31 111.79 87.91 114.3 87.35 136.41 61.28 123.06 64.7 97.43"/><polygon class="cls-23" points="87.91 114.3 89.41 111.49 92.2 109.08 100.27 99.3 98.84 124.55 91.77 131.07 85.01 134.73 84.96 124.18 87.91 114.3"/><polygon class="cls-19" points="86.58 98.22 82.69 102.74 87.21 105.8 90.97 101.3 86.58 98.22"/><polygon class="cls-26" points="87.21 105.8 82.98 110.72 87.91 114.3 92.2 109.08 87.21 105.8"/><polygon class="cls-17" points="98.84 124.55 85.1 134.12 61.28 123.06 58.65 141.38 83.35 149.16 97.36 149.76 98.84 124.55"/><path class="cls-27" d="M99.36,65a1.34,1.34,0,1,1-.69-1.75A1.35,1.35,0,0,1,99.36,65Z"/><path class="cls-27" d="M115.8,68.77a1.3,1.3,0,0,1-1.75.69,1.31,1.31,0,1,1,1-2.41A1.29,1.29,0,0,1,115.8,68.77Z"/><polygon class="cls-28" points="96.63 80.2 105.57 82.32 104.67 84.04 96.74 82.08 96.63 80.2"/><polygon class="cls-18" points="125.63 105.56 105.56 123.54 121 128.23 133.27 113.63 125.63 105.56"/><polygon class="cls-52" points="125.4 146.02 120.77 150.65 125.86 166.66 137.02 153.15 125.4 146.02"/><polygon class="cls-52" points="162.3 149.01 168.44 152.19 163.93 160.02 157.77 161.21 145.14 152.89 162.3 149.01"/><polygon class="cls-24" points="147.82 144.29 157.42 135.01 168.44 152.19 155.22 154.83 147.82 144.29"/><polygon class="cls-24" points="141.83 138.71 130.73 135.15 120.77 150.65 130.29 153.76 141.83 138.71"/><polygon class="cls-30" points="131.57 102.01 146.4 79.7 167.68 89.74 158.84 104.7 131.57 102.01"/><polygon class="cls-20" points="131.07 95.81 123.3 88.09 146.4 79.7 141.76 102.84 131.07 95.81"/><polygon class="cls-52" points="152.32 135.57 160.03 122.78 159 99.6 157.43 102.07 149.86 129.3 146.77 135.17 144.62 139.68 152.32 135.57"/><polygon class="cls-53" points="141.05 140.19 133.16 126.26 134.35 125.75 150.11 128.07 151.1 128.87 152.86 129.48 145.03 138.73 141.05 140.19"/><polygon class="cls-19" points="126.34 111.03 123.3 88.09 129.32 90.7 129.71 91.87 129 94.43 126.34 111.03"/><polygon class="cls-51" points="129.32 90.7 123.73 124.97 151.12 128.87 159 99.6 129.32 90.7"/><polygon class="cls-53" points="160.03 122.78 162.31 119.02 158.46 117.83 160.03 122.78"/><path class="cls-54" d="M172.16,101.63l-4.48-11.89s-8.62,9.74-8.68,9.86-.05,10.66-.05,10.66l4.29,2.56,2.83-1.38Z"/><polygon class="cls-52" points="157.01 117.2 162.31 119.02 166.07 111.44 158.95 110.26 157.01 117.2"/><polygon class="cls-53" points="159.26 115.61 160.33 111.91 163.87 112.56 159.26 115.61"/><polygon class="cls-52" points="135.47 113.42 131.5 106 129.32 101.68 137.55 104.22 138.9 106.2 142.02 104.63 144.6 104.68 153.36 105.77 146.47 109.1 140.11 114.36 135.47 113.42"/><polygon class="cls-53" points="137.36 115.75 135.47 113.42 140.11 114.36 137.36 115.75"/><polygon class="cls-55" points="137.55 104.22 135.47 113.42 140.11 114.36 142.02 104.63 137.55 104.22"/><polygon class="cls-54" points="136.63 103.94 134.19 100.84 129.32 101.68 136.63 103.94"/><polygon class="cls-54" points="144.6 104.68 147.71 102.69 153.36 105.77 144.6 104.68"/><polygon class="cls-53" points="131.71 117.05 143.58 119.15 140.08 124.05 132.65 122.68 131.71 117.05"/><polygon class="cls-56" points="130.73 135.15 137.49 133.9 141.62 139.86 142.84 146.13 143.54 147.27 142.85 162.94 141.15 164.15 125.86 166.66 130.73 135.15"/><polygon class="cls-47" points="153.27 134.06 157.42 135.01 157.2 152.86 157.77 161.21 141.15 164.15 141.62 139.86 153.27 134.06"/><polygon class="cls-28" points="133.08 118.27 141.68 119.8 140.55 121.3 133.37 120.08 133.08 118.27"/><circle class="cls-27" cx="132.44" cy="105.23" r="1.5"/><circle class="cls-27" cx="145.56" cy="107.81" r="1.5"/></g></svg>