<svg id="ILLUSTRATION" xmlns="http://www.w3.org/2000/svg" viewBox="0 0 900 350"><defs><style>.cls-1{fill:#dcdcdb;}.cls-1,.cls-10,.cls-11,.cls-12,.cls-13,.cls-14,.cls-15,.cls-17,.cls-18,.cls-19,.cls-2,.cls-20,.cls-21,.cls-22,.cls-23,.cls-24,.cls-26,.cls-27,.cls-3,.cls-39,.cls-4,.cls-43,.cls-44,.cls-45,.cls-46,.cls-5,.cls-59,.cls-6,.cls-60,.cls-61,.cls-62,.cls-63,.cls-64,.cls-65,.cls-7,.cls-8,.cls-9{fill-rule:evenodd;}.cls-2,.cls-32{fill:#5ebfd8;}.cls-3,.cls-65{fill:#ebebea;}.cls-4{fill:#74cee4;}.cls-16,.cls-31,.cls-5,.cls-63{fill:#2b2b2b;}.cls-5{opacity:0.1;}.cls-29,.cls-6{fill:#28788b;}.cls-30,.cls-7{fill:#318ea5;}.cls-28,.cls-8{fill:#4f5353;}.cls-42,.cls-9{fill:#6f7273;}.cls-10,.cls-25{fill:#3a9fb9;}.cls-11,.cls-49{fill:#8e8e8e;}.cls-12,.cls-52{fill:#b08c79;}.cls-13{fill:#66493b;}.cls-14,.cls-53{fill:#906a59;}.cls-15{fill:#b89d8d;}.cls-17,.cls-47{fill:#737474;}.cls-18,.cls-33{fill:#474748;}.cls-19{fill:#fbe3d4;}.cls-20{fill:#f4cab2;}.cls-21{fill:#fff0e8;}.cls-22{fill:#c18f7c;}.cls-23,.cls-40{fill:#369395;}.cls-24,.cls-54{fill:#50a8a9;}.cls-26,.cls-37{fill:#755041;}.cls-27,.cls-35{fill:#573a2f;}.cls-31{opacity:0.1;}.cls-34{fill:#fff;}.cls-36{fill:#33231b;}.cls-38{fill:#7f5b4c;}.cls-39,.cls-57{fill:#c2977a;}.cls-41,.cls-43{fill:#1d7678;}.cls-44,.cls-50{fill:#c3c3c3;}.cls-45{fill:#9b9fa0;}.cls-46{fill:#cecdcc;}.cls-48{fill:#a2a1a1;}.cls-51,.cls-64{fill:#848585;}.cls-55,.cls-61{fill:#72cbcb;}.cls-56,.cls-60{fill:#8a6651;}.cls-58,.cls-59{fill:#debca4;}.cls-62{fill:#e8c9b6;}.cls-65{opacity:0.26;}</style></defs><title>sentinels_Logistician_ISTJ_strengths</title><polygon class="cls-1" points="477.33 102 500.33 14 896.08 48.75 888.33 308 453.33 254 477.33 102"/><polygon class="cls-2" points="477.33 102 500.33 14 897.83 0 896.08 48.75 499.21 53.38 477.33 102"/><polygon class="cls-3" points="1.33 41.88 98.13 10.49 499.21 53.38 493.33 251 8.33 279 1.33 41.88"/><polygon class="cls-4" points="0 0 500.33 14 499.21 53.38 1.33 41.88 0 0"/><g id="schedule"><polygon class="cls-5" points="838.17 114.67 844.83 96.17 854 196.33 772.17 186.5 769.5 157.83 838.17 114.67"/><polygon class="cls-3" points="761.67 95.67 761.67 179.67 843 188.33 844.33 96.67 761.67 95.67"/><polygon class="cls-1" points="772.5 107.33 802.58 107.75 802.58 112.75 772.17 110.83 772.5 107.33"/><polygon class="cls-1" points="772.5 121.83 802.58 122.25 802.58 127.25 772.17 125.33 772.5 121.83"/><polygon class="cls-1" points="772.5 136.33 802.58 136.75 802.58 141.75 772.17 139.83 772.5 136.33"/><polygon class="cls-1" points="772.5 150.83 802.58 151.25 802.58 156.25 772.17 154.33 772.5 150.83"/><polygon class="cls-1" points="772.5 165.33 802.58 165.75 802.58 170.75 772.17 168.83 772.5 165.33"/><polygon class="cls-1" points="816.71 108.75 819.83 116 831.21 106.88 821.33 111 816.71 108.75"/><polygon class="cls-1" points="816.33 122.13 820.58 129.33 828.08 120 820.96 124.38 816.33 122.13"/><polygon class="cls-1" points="815.96 135.5 819.08 142.75 828.67 135.17 820.58 137.75 815.96 135.5"/><polygon class="cls-1" points="815.58 148.88 819.92 156 830.08 147 820.21 151.13 815.58 148.88"/><polygon class="cls-1" points="815.21 162.25 818.33 169.5 829.71 160.38 819.83 164.5 815.21 162.25"/></g><g id="character_3" data-name="character 3"><polygon class="cls-6" points="136.16 284.89 120.22 293.56 130.95 298.19 154.5 297.82 154.5 293.56 136.16 284.89"/><polygon class="cls-7" points="107.63 288.36 98.33 298.19 98.33 302.35 130.74 302.35 130.95 298.19 107.63 288.36"/><polygon class="cls-2" points="166.89 121.85 192.29 170.07 157.89 174.44 166.89 121.85"/><polygon class="cls-7" points="192.29 170.07 180.21 209.13 159.19 169.47 192.29 170.07"/><polygon class="cls-8" points="167.87 216.82 130.06 221.92 128.87 232.34 117.25 258.19 121.08 276.31 120.87 282.13 138.98 274.37 167.87 216.82"/><polygon class="cls-9" points="167.87 216.82 130.06 221.92 115.98 232.28 124.42 257.45 150.3 251.82 167.87 216.82"/><polygon class="cls-7" points="138.98 274.37 154.5 293.56 120.22 293.56 121.08 276.31 138.98 274.37"/><polygon class="cls-2" points="84.82 127.04 56.83 185.5 87.33 186.83 88.7 169.47 84.82 127.04"/><polygon class="cls-10" points="146.59 116.82 166.95 137.27 167.87 216.82 127.51 223.68 84.82 217.25 85.18 153.11 85.23 142.76 107.04 114.68 146.59 116.82"/><polygon class="cls-7" points="125.6 217.01 124.16 119.91 128.08 117.23 133.68 118.75 135.29 217.01 125.6 217.01"/><polygon class="cls-7" points="130.67 156.83 131.17 117.5 146.59 116.82 166.89 121.85 166.67 143 130.67 156.83"/><polygon class="cls-7" points="84.82 127.04 107.04 114.68 128.5 117.33 128.33 156.5 85.23 142.76 84.82 127.04"/><polygon class="cls-8" points="167.87 216.82 137.26 229 123.09 234.64 103.81 232.3 84.82 217.25 167.87 216.82"/><polygon class="cls-9" points="128.87 232.34 121.08 276.31 113.91 285.12 98.33 283.96 84.82 217.25 128.87 232.34"/><polygon class="cls-11" points="128.87 232.34 124.42 257.45 92.65 255.91 84.82 217.25 128.87 232.34"/><polygon class="cls-10" points="98.33 283.96 98.33 298.19 130.95 298.19 121.08 276.31 98.33 283.96"/><polygon class="cls-12" points="191.75 48.5 176.59 114.69 154.46 109.75 124.9 120.33 116.44 90.93 106.84 58.65 122.74 33.88 176.67 38.33 191.75 48.5"/><polygon class="cls-13" points="164.27 76.17 165.22 79.23 165.12 82.74 159.08 87.48 155.83 81.11 164.79 70.86 160.81 66.18 168.33 63.68 164.27 76.17"/><polygon class="cls-14" points="183.08 61.75 165.22 79.23 165.12 82.74 160.91 76.44 155.83 81.11 144.95 59.39 152.92 56.92 159.3 62.16 162.62 71.18 168.33 63.68 183.08 61.75"/><polygon class="cls-8" points="159.3 62.16 159.67 57.08 151.08 52.92 144.95 59.39 152.75 58.33 159.3 62.16"/><polygon class="cls-8" points="183.08 58.67 169.08 59.08 168.33 63.68 183.08 61.75 183.08 58.67"/><polygon class="cls-15" points="168.33 63.68 165.12 82.74 155.83 81.11 159.3 62.16 168.33 63.68"/><polygon class="cls-13" points="172.21 92.75 143.49 91.25 143.29 93.87 171.21 94.88 172.21 92.75"/><polygon class="cls-14" points="119.36 32.43 142.07 32.64 129.16 105.63 154.46 109.75 124.33 127 107.08 114.38 106.03 86.65 108.45 79.53 106.36 75.83 106.84 58.65 119.36 32.43"/><polygon class="cls-13" points="129.16 105.63 117.88 104.9 124.33 127 133.92 133.5 154.46 109.75 129.16 105.63"/><polygon class="cls-8" points="191.75 48.5 179.56 43.73 159.5 38.05 149.36 40.41 140.71 39.66 130.2 40.85 122.54 35.4 116.4 29.93 128.75 20.23 144.5 24.07 145.79 21.86 171.34 24.27 191.75 48.5"/><polygon class="cls-8" points="131.18 43.93 126.88 70.92 121.34 70.18 122 59.3 106.84 58.65 114 31.65 131.18 43.93"/><polygon class="cls-13" points="115.07 78.02 106.03 86.65 106.33 76.21 115.07 78.02"/><polygon class="cls-13" points="117.13 72.47 117.12 63.67 111.35 63.23 117.13 72.47"/><path class="cls-16" d="M147.48,66.75a3,3,0,1,0,4.08-1,3,3,0,0,0-4.08,1"/><path class="cls-16" d="M170.16,70.5a3,3,0,1,0,4.09-1,3,3,0,0,0-4.09,1"/><polygon class="cls-17" points="140.71 39.66 116.4 29.93 114 31.65 131.18 43.93 140.71 39.66"/><polygon class="cls-17" points="179.56 43.73 145.79 21.86 128.75 20.23 149.36 40.41 179.56 43.73"/></g><g id="character_2" data-name="character 2"><polygon class="cls-7" points="269 273.99 278.46 277.9 278.59 282.19 250.58 281.94 250.48 277.71 269 273.99"/><polygon class="cls-10" points="267.4 259.52 271.65 265.16 278.46 277.9 250.48 277.71 251.08 265.41 267.4 259.52"/><polygon class="cls-7" points="299.02 266.42 290.78 271.8 290.87 276.26 323.08 276.17 322.7 272.01 299.02 266.42"/><polygon class="cls-10" points="303.31 255.82 307.73 257.59 322.7 272.01 290.78 271.8 290.44 263.39 303.31 255.82"/><polygon class="cls-2" points="250.07 139.5 236.79 124.79 214.83 176.38 252.58 182.83 246.79 161.46 250.07 139.5"/><polygon class="cls-18" points="294 227.67 306.72 232.23 307.73 257.59 290.44 263.39 279.6 239.17 294 227.67"/><polygon class="cls-8" points="273.82 209 302.83 200.17 306.72 232.23 279.6 239.17 263.73 217.83 273.82 209"/><polygon class="cls-8" points="257.48 221.84 248.94 239.1 251.08 265.41 271.65 265.16 277.07 239.42 257.48 221.84"/><polygon class="cls-9" points="277.85 208.66 281.56 227.16 277.07 239.42 248.94 239.1 243.92 198.86 277.85 208.66"/><polygon class="cls-18" points="263.87 176.76 243.92 198.86 281.56 227.16 302.83 200.17 263.87 176.76"/><polygon class="cls-2" points="301.82 132.11 309.56 126.38 329.05 162.8 298.27 167.32 301.82 132.11"/><polygon class="cls-7" points="296.92 145.88 306.07 164.72 302.83 200.17 282.73 204.79 243.92 198.86 240.82 159.1 296.92 145.88"/><polygon class="cls-10" points="269 114.64 253.92 119.03 236.79 124.79 241.52 168.08 287.25 168.42 306.07 164.72 309.56 126.38 298.08 123.28 269 114.64"/><polygon class="cls-19" points="321.34 40.23 334.08 45.58 340.83 53.33 334.14 88.87 308.41 113.66 283.03 114.57 286.94 68.16 291.44 47.66 309.39 42.83 321.34 40.23"/><polygon class="cls-20" points="293.46 118.58 284.69 122.37 283.67 115.25 291.44 47.66 277.37 56.29 276.91 66.64 276.4 72.66 274.65 76.25 273.49 82.99 270.76 79.1 270.04 71.7 265.02 75.59 263.8 79.28 264.48 83.33 265.1 90.16 263.73 89.56 259.04 97.79 257.94 107.34 258.96 108.97 257.31 111.89 256.39 118.24 279.3 134.88 293.46 118.58"/><polygon class="cls-20" points="296.6 66.03 307.18 77.22 309.69 91.53 313.45 80.42 311.45 72.76 310.49 68.82 306 66.29 296.6 66.03"/><polygon class="cls-20" points="322.08 71.25 320.74 74.87 318.12 79.13 318.5 85.85 332.82 73.46 326.2 70.39 322.08 71.25"/><polygon class="cls-21" points="320.74 74.87 319.95 93.67 313.91 94.48 309.69 91.53 311.45 72.76 320.74 74.87"/><polygon class="cls-20" points="272.3 80.28 272.31 87.74 259.34 88.36 260.08 73.56 271.21 69.2 272.3 80.28"/><polygon class="cls-11" points="320.96 45.9 340.83 53.33 327.67 29.06 316.92 36.27 320.96 45.9"/><polygon class="cls-17" points="327.67 29.06 286.91 19.15 287.68 34.99 320.96 45.9 327.67 29.06"/><polygon class="cls-11" points="320.96 45.9 286.91 19.15 261.82 36.04 277.68 44.13 291.44 47.66 320.96 45.9"/><polygon class="cls-17" points="261.82 36.04 255.63 61.63 265.76 63.75 277.37 56.29 291.44 47.66 261.82 36.04"/><polygon class="cls-18" points="283.84 52.38 278.78 82.74 272.52 84.41 271.32 70.2 260.08 73.56 255.63 61.63 283.84 52.38"/><polygon class="cls-22" points="263.87 75.37 267.7 74.63 267.78 81.06 263.87 75.37"/><polygon class="cls-22" points="259.34 88.36 268 87.79 259.04 97.79 259.34 88.36"/><polygon class="cls-22" points="319.95 93.67 314.03 95.81 309.7 91.53 319.95 93.67"/><path class="cls-16" d="M329.58,80.21a2.7,2.7,0,1,1-1.66-3.44A2.7,2.7,0,0,1,329.58,80.21Z"/><path class="cls-16" d="M308.07,76.2a2.7,2.7,0,1,1-1.66-3.44A2.71,2.71,0,0,1,308.07,76.2Z"/><polygon class="cls-22" points="271.6 112.41 283.84 113.67 319.97 113.06 306.01 115.76 279.3 134.88 271.6 112.41"/><polygon class="cls-18" points="310.49 68.82 311.84 65.3 296.6 66.03 310.49 68.82"/><polygon class="cls-18" points="322.08 71.25 323.55 67.63 332.82 73.46 322.08 71.25"/><polygon class="cls-23" points="290.52 88.68 287.69 78.95 271.32 70.2 271.77 77.71 290.52 88.68"/><polygon class="cls-23" points="290.42 99.88 285.46 108.65 257.94 107.34 257.31 111.89 283.84 113.67 293.23 105.95 290.42 99.88"/><polygon class="cls-23" points="287.69 78.95 334.14 88.87 328.12 122.11 283.84 113.67 287.69 78.95"/><polygon class="cls-24" points="330.52 91.98 311.28 87.88 292.79 83.94 290.1 109.71 325.97 116.94 330.52 91.98"/></g><g id="character_1" data-name="character 1"><polygon class="cls-25" points="423 188.33 393.67 177.67 410.2 136.53 423 188.33"/><polygon class="cls-26" points="502.83 146.5 503.71 137.81 511.83 127.5 522.33 134.38 515.08 147.5 502.83 146.5"/><polygon class="cls-27" points="497.08 143.5 500.58 141.75 503.71 137.81 515.08 147.5 506.33 158 496.83 158 497.08 143.5"/><polygon class="cls-26" points="496.08 163.25 495.33 152.75 493.08 140.5 502.08 131 504.58 134.25 500.58 141.75 502.58 149.5 496.08 163.25"/><polygon class="cls-28" points="412.48 107.12 410.67 113.66 410.2 136.53 435.49 141.64 428.5 107.79 412.48 107.12"/><polygon class="cls-29" points="454.92 264.02 467.22 240.27 448 235.11 446.45 243.34 444.25 261.25 452.06 275.51 454.92 264.02"/><polygon class="cls-30" points="467.22 240.27 462.9 213.01 445.66 194.47 436.38 224.24 446.45 243.34 467.22 240.27"/><polygon class="cls-14" points="460 275.89 456.52 278.59 450.87 276.28 444.29 261.4 454.86 264.21 460 275.89"/><polygon class="cls-6" points="439.98 279.51 442.76 280.21 447.2 273.34 443.63 266.54 441 268.52 440.29 269.82 439.98 279.51"/><polygon class="cls-10" points="460 275.89 464.19 284.77 450.98 282.9 441 268.52 444.25 261.25 453.23 274.88 460 275.89"/><polygon class="cls-31" points="437.72 278.53 392.03 285.29 438.45 294.5 492.41 285.06 437.72 278.53"/><polygon class="cls-30" points="423.47 246.5 430.71 268.16 438.48 282.27 441.02 268.53 443.06 248.42 434.18 232.44 423.47 246.5"/><polygon class="cls-32" points="432.24 209.07 408.92 217.26 423.47 246.5 443.06 248.42 441.28 224.49 432.24 209.07"/><polygon class="cls-29" points="456.21 193.2 461.87 206.07 462.9 213.01 441.28 224.49 408.92 217.26 417.45 198.92 456.21 193.2"/><polygon class="cls-25" points="487.5 172.55 460.25 136.99 451.58 174.5 471.58 182.25 487.5 172.55"/><polygon class="cls-28" points="485.28 49.13 478.74 47.25 455.12 55.9 478.81 63.57 485.28 49.13"/><polygon class="cls-33" points="424.72 132.1 423.33 105.77 418.12 92.22 396.91 84.85 410.67 113.66 420.62 124.05 424.72 132.1"/><polygon class="cls-30" points="470.66 169.64 452.33 152.68 444.4 132.09 423.6 133.12 433.5 151.25 414 173.33 417.45 198.92 461.87 206.07 470.66 169.64"/><polygon class="cls-32" points="470.66 169.64 460.25 136.99 449.96 133.73 422.03 133.4 410.2 136.53 414 173.33 470.66 169.64"/><polygon class="cls-34" points="451.13 135.14 439 132.03 421.98 133.2 423.62 154.51 442.11 141.16 457.6 150.9 451.13 135.14"/><polygon class="cls-35" points="444.44 122.3 439.55 65.77 428.23 52.94 413.33 64.25 416.04 79.65 415.01 100.5 421.98 133.2 442.11 141.16 444.82 130.59 444.44 122.3"/><polygon class="cls-36" points="461.65 118.51 445.34 114.78 426.02 121.24 423.29 121.75 442.11 141.16 461.65 118.51"/><polygon class="cls-36" points="412.7 92.87 415.01 100.5 419.93 91.67 412.7 92.87"/><polygon class="cls-37" points="473.86 122.36 475.61 102.22 478.81 63.57 432.78 46.06 426.63 59.38 426.02 121.24 473.86 122.36"/><polygon class="cls-33" points="412.7 92.87 418.57 84.31 421.09 83.41 426.76 63.02 396.91 84.85 412.7 92.87"/><polygon class="cls-35" points="411.02 79.04 420.21 77.63 421.91 91.15 412.7 92.87 411.02 79.04"/><polygon class="cls-35" points="458.14 73.94 457.23 79.63 454.84 83.02 450.57 79.09 449.13 73.42 439.83 71.21 433.6 70.94 444.39 81.63 449.41 93.67 455.6 94.62 462.38 83.71 465.81 80.66 472.11 75.56 465.7 74.25 458.14 73.94"/><polygon class="cls-36" points="418.96 86.34 418.03 80.14 413.55 80.97 418.96 86.34"/><polygon class="cls-16" points="459.76 70.47 458.14 73.94 472.11 75.56 459.76 70.47"/><polygon class="cls-16" points="447.75 69.15 449.13 73.42 433.6 70.94 447.75 69.15"/><polygon class="cls-38" points="457.02 96.03 457.23 79.63 450.57 79.09 448.03 95.41 457.02 96.03"/><polygon class="cls-36" points="452.11 98.99 457.02 96.03 448.03 95.41 452.11 98.99"/><path class="cls-16" d="M465.05,80.69a2.88,2.88,0,1,0,2.39,3.3A2.91,2.91,0,0,0,465.05,80.69Z"/><path class="cls-16" d="M444.73,78.76a2.88,2.88,0,1,0,2.39,3.3A2.9,2.9,0,0,0,444.73,78.76Z"/><polygon class="cls-6" points="430.71 268.16 426.84 275.81 430.08 289.63 431.75 290.3 433.43 280.52 430.71 268.16"/><polygon class="cls-39" points="430.71 268.16 441.02 268.53 440.6 281.49 432.11 281.21 430.71 268.16"/><polygon class="cls-10" points="430.71 268.16 435.6 279.05 440.48 278.88 441.02 268.53 441.01 268.53 441.02 268.53 447.2 290.19 431.75 290.3 430.71 268.16"/><polygon class="cls-34" points="452.08 103.64 460.38 106.12 451.09 111.06 440.57 104 452.08 103.64"/><polygon class="cls-40" points="451.17 109.7 459.78 106.24 460.01 105.78 461.8 105.99 450.64 114.13 439.28 103.8 441 104.11 441.51 104.35 451.17 109.7"/><polygon class="cls-41" points="461.8 105.99 457.31 104.71 452.41 101.92 445.66 103.25 439.28 103.8 441.63 104.36 451.88 105.79 459.78 106.24 461.8 105.99"/><polygon class="cls-28" points="471.37 29.72 419.7 33.78 401.42 56.95 440.23 49.13 471.37 29.72"/><polygon class="cls-42" points="438.58 63.79 485.28 49.13 471.37 29.72 401.42 56.95 410.45 65.6 438.58 63.79"/><polygon class="cls-28" points="396.91 84.85 401.42 56.95 438.58 63.79 396.91 84.85"/><path class="cls-2" d="M495.33,152.75s-24.5,29.25-23.75,29.5S492.33,191,492.33,191l14-33Z"/></g><g id="tablr"><polygon class="cls-5" points="24.08 299.5 190.58 340 316.83 331.5 374.58 346.75 420.83 342 462.83 349.25 549.58 342.75 504.08 329.25 594.08 316.25 659.08 324 708.58 313.5 634.33 299 607.33 277 534.33 254 214.33 261.25 74.83 256.75 62.33 297 24.08 299.5"/><polygon class="cls-23" points="618.33 288.63 608.08 303.88 588.46 301.63 573.21 265.88 609.96 266.88 618.33 288.63"/><polygon class="cls-43" points="69.83 273 77.67 303.67 96.33 301.83 113 251 73.83 247 69.83 273"/><polygon class="cls-24" points="161.33 269 191.33 326.33 225.33 324.5 238.33 289.5 596.33 276 608.08 303.88 632.83 302.5 648 250.33 639.33 230.33 170.67 239.67 161.33 269"/><polygon class="cls-23" points="74 220.33 46 229 53.33 299 77.32 303.75 84 265 151.33 279 158.25 319.78 191.33 326.33 194 258.33 74 220.33"/><polygon class="cls-44" points="152 204.33 194 258.33 649.33 245 650 221 476.67 211 152 204.33"/><polygon class="cls-45" points="256 216.33 30.33 197.5 46 229 194 258.33 208 228.33 256 216.33"/><polygon class="cls-46" points="208 228.33 670.33 221 505.33 194 30.33 197.5 208 228.33"/></g><polygon class="cls-31" points="366.75 195 297.33 204 235.21 200.5 238 196.67 245.67 195.67 366.75 195"/><polygon class="cls-31" points="187.5 196.5 196.17 211.83 192.33 217.17 156 218.83 84.67 197 187.5 196.5"/><polygon class="cls-31" points="486.67 199.67 510 202 510.67 208 541 218.67 460 221 428 207 399.5 200.17 441.33 192 486.67 199.67"/><polygon class="cls-47" points="192.17 176.83 180 172.33 161 182 194.33 196 192.17 176.83"/><polygon class="cls-48" points="178 171.83 180.58 176.5 199.33 195.5 207.16 185.64 193 162.83 187.52 164.16 178 171.83"/><polygon class="cls-49" points="159.67 173.5 159.12 161.33 187.52 164.16 180.58 176.5 157.17 176.08 159.67 173.5"/><polygon class="cls-48" points="145.72 177.65 124.83 165.88 116.83 182.71 135.73 212.67 170.63 205.03 145.72 177.65"/><polygon class="cls-50" points="157.69 170.92 142.99 167.21 124.83 165.88 145.48 196.13 174.76 197.92 157.69 170.92"/><polygon class="cls-49" points="179.33 182.59 207.16 185.64 210.6 196.6 207.28 208.28 135.73 212.67 145.48 196.13 169.54 194.87 170.57 178.58 179.33 182.59"/><polygon class="cls-48" points="159.12 161.33 142.99 167.21 169.54 194.87 179.33 182.59 159.12 161.33"/><polygon class="cls-48" points="204.04 185.31 207.16 185.64 209.17 164.17 187.67 146.17 204.04 185.31"/><polygon class="cls-47" points="181.49 185.92 173.22 195.57 206.99 196.5 204.8 188.26 181.49 185.92"/><path class="cls-28" d="M154.72,216.75l-3,.25-3.12-2.84a3.45,3.45,0,0,1-.27-4c1.77-2.82,5.83-7.38,10.13-8.25,5.68-1.16,7.19.93,7.19.93Z"/><ellipse class="cls-42" cx="159.06" cy="210.2" rx="10" ry="6.62" transform="translate(-101.98 173.57) rotate(-44.9)"/><path class="cls-48" d="M162.26,213.47c-2.33,2.32-5.47,3-7,1.41s-.89-4.68,1.44-7,5.47-3,7-1.41S164.59,211.14,162.26,213.47Z"/><path class="cls-51" d="M163.7,206.47a2.9,2.9,0,0,0-1.79-.82c1.42,1.58.77,4.62-1.51,6.89a6.82,6.82,0,0,1-5.23,2.23,1,1,0,0,0,.08.11c1.54,1.55,4.68.91,7-1.41S165.24,208,163.7,206.47Z"/><path class="cls-28" d="M192.19,215.27l-2.7.27L186.71,213a3.21,3.21,0,0,1-.19-3.7c1.64-2.63,5.36-6.88,9.26-7.74,5.16-1.14,6.51.77,6.51.77Z"/><path class="cls-42" d="M200.37,213.44c-3.59,3.65-8.37,4.69-10.67,2.33s-1.27-7.22,2.33-10.87,8.36-4.69,10.67-2.33S204,209.79,200.37,213.44Z"/><path class="cls-48" d="M199.06,212.15c-2.14,2.18-5,2.8-6.36,1.39s-.76-4.3,1.38-6.48,5-2.8,6.37-1.39S201.2,210,199.06,212.15Z"/><path class="cls-51" d="M200.45,205.67a2.54,2.54,0,0,0-1.61-.73c1.26,1.44.64,4.25-1.46,6.38a6.27,6.27,0,0,1-4.76,2.12l.08.1c1.37,1.41,4.22.79,6.36-1.39S201.82,207.08,200.45,205.67Z"/><polygon class="cls-47" points="157.95 165.28 149.12 168.71 168.86 189.51 174.29 182.75 157.95 165.28"/><polygon class="cls-49" points="187.48 164.21 184.21 146.5 199.83 158.75 203.83 165.63 204.04 185.31 187.48 164.21"/><polygon class="cls-50" points="184.21 146.5 187.67 146.17 209.17 164.17 203.83 165.63 184.21 146.5"/><polygon class="cls-14" points="123.5 193.25 138.25 184 147.5 193 145.15 205.63 127.25 203 123.5 193.25"/><polygon class="cls-12" points="102.25 187.25 116.83 182.83 138.25 184 127.25 203 110 199.67 102.25 187.25"/><polygon class="cls-7" points="116.83 182.83 85 167.33 56.83 186 110 199.67 116.83 182.83"/><polygon class="cls-52" points="197.71 155.88 209 163.92 201.46 147.25 187.67 146.17 197.71 155.88"/><polygon class="cls-53" points="187.67 146.17 188.04 158.17 199.42 167.92 209 163.92 187.67 146.17"/><polygon class="cls-54" points="333.74 157.43 309.39 151.1 302.31 166.84 332.1 193.81 364.3 178.32 333.74 157.43"/><polygon class="cls-55" points="343.83 148.12 328.68 147.9 309.39 151.1 337.77 175.47 366.68 170.45 343.83 148.12"/><polygon class="cls-49" points="368.98 141.85 395.37 151.02 401.25 160.89 400.71 173.03 332.1 193.81 337.77 175.47 360.89 168.69 358.13 152.6 368.98 141.85"/><polygon class="cls-48" points="375.45 140.74 343.01 138.46 328.68 147.9 360.89 168.69 367.58 154.48 375.45 140.74"/><polygon class="cls-50" points="371.43 135.38 395.37 151.02 367.58 154.48 343.01 138.46 371.43 135.38"/><polygon class="cls-47" points="370.46 157.22 364.63 168.52 397.71 161.63 393.68 154.12 370.46 157.22"/><path class="cls-28" d="M351.53,193.39l-2.84.94L345,192.28a3.42,3.42,0,0,1-1.18-3.83c1.07-3.16,4-8.53,7.94-10.37,5.26-2.44,7.22-.76,7.22-.76Z"/><ellipse class="cls-42" cx="354.23" cy="186.02" rx="10" ry="6.62" transform="translate(9.63 389.33) rotate(-58.25)"/><path class="cls-48" d="M358.11,188.46c-1.74,2.8-4.64,4.14-6.5,3s-1.95-4.35-.22-7.15,4.64-4.14,6.5-3S359.84,185.66,358.11,188.46Z"/><path class="cls-51" d="M357.89,181.32a2.91,2.91,0,0,0-1.93-.38c1.74,1.2,1.81,4.31.12,7.05a6.81,6.81,0,0,1-4.57,3.38s.06.06.1.09c1.86,1.14,4.76-.2,6.5-3S359.74,182.46,357.89,181.32Z"/><path class="cls-28" d="M387.64,183.31l-2.56.89-3.31-1.88a3.22,3.22,0,0,1-1-3.55c1-2.93,3.64-7.93,7.23-9.67,4.76-2.3,6.51-.75,6.51-.75Z"/><ellipse class="cls-42" cx="390.13" cy="176.45" rx="9.27" ry="5.97" transform="translate(40.34 423.4) rotate(-59.56)"/><path class="cls-48" d="M393.61,178.69c-1.59,2.61-4.21,3.87-5.88,2.82s-1.72-4-.14-6.63,4.21-3.87,5.87-2.82S395.19,176.08,393.61,178.69Z"/><path class="cls-51" d="M393.46,172.06a2.57,2.57,0,0,0-1.73-.34c1.56,1.11,1.6,4,0,6.55a6.27,6.27,0,0,1-4.14,3.16s.06.06.09.08c1.67,1.05,4.29-.21,5.88-2.82S395.12,173.11,393.46,172.06Z"/><polygon class="cls-47" points="342.79 142.57 334.98 147.95 358.99 163.63 362.71 155.8 342.79 142.57"/><polygon class="cls-44" points="312.83 161.38 314.42 165.5 312.92 167 309.33 166.38 312.83 161.38"/><polyline class="cls-11" points="290.19 142.67 290.08 141.94 312.83 161.38 312.17 165.17 309.33 166.38 284.52 147.81 290.08 141.94"/><polyline class="cls-9" points="289.96 145.83 312.17 165.17 309.33 166.38 284.52 147.81 290.08 141.94"/><polygon class="cls-44" points="289.96 145.83 290.08 141.94 285.46 143.08 284.13 145.42 284.52 147.81 289.96 145.83"/><polygon class="cls-20" points="285.83 160.5 289.5 151.5 306.71 161 305.67 172.83 294.17 175.17 285.83 160.5"/><polygon class="cls-19" points="263.67 173 272.17 165.33 289.5 151.5 294.17 175.17 274.33 182.17 263.67 173"/><polygon class="cls-20" points="272.17 165.33 214.5 176.33 235.21 200.5 274.33 182.17 272.17 165.33"/><polygon class="cls-28" points="442.83 185 437.5 176.5 498.67 176.67 514.17 182.33 498.67 197.83 442.83 185"/><polygon class="cls-49" points="458.83 198.33 464.5 183.67 514.17 182.33 514.5 214.67 463.33 215 458.83 198.33"/><polygon class="cls-42" points="437.5 176.5 437.33 205.83 463.33 215 464.5 183.67 437.5 176.5"/><polygon class="cls-35" points="442.42 193.58 437.33 189.33 449.58 182.92 451.67 185.92 442.42 193.58"/><polygon class="cls-35" points="449.83 199.17 452.33 187.33 464.67 194 463.33 203 451.33 205 449.83 199.17"/><polygon class="cls-37" points="431.67 193.67 437.33 189.33 452.33 187.33 451.33 205 435 200.33 431.67 193.67"/><polygon class="cls-32" points="437.33 189.33 395.75 178.5 399.5 200.17 435 200.33 437.33 189.33"/><path class="cls-50" d="M501.83,199.67l-2.16-4.34L487,195.17l-3.33,3-6.59,1.5-.16,4.25h4.4c0,.1,0,.2,0,.3a2.15,2.15,0,1,0,4.29,0,1.27,1.27,0,0,0,0-.28l9.36,0a1.86,1.86,0,0,0,0,.33,2.15,2.15,0,0,0,4.3,0,1.75,1.75,0,0,0,0-.32h2.37Z"/><g id="Layer_2-2" data-name="Layer 2"><polygon class="cls-56" points="599.15 109.92 595.59 112 588.71 103.23 599.65 97.67 602.84 106.17 599.15 109.92"/><polygon class="cls-57" points="595.59 112 599.93 109.05 601.21 104.04 605.46 106.5 619.42 137.25 616.67 147.5 603.34 145 595.59 112"/><polygon class="cls-58" points="603.34 145 638.46 175.75 644.5 180.33 650.21 152.32 619.42 137.25 603.34 145"/><polygon class="cls-6" points="721.05 86.24 717.25 124.81 671.31 170.23 680.43 138.57 690.23 84 721.05 86.24"/><path class="cls-23" d="M721.3,86.25l8.35,1.06-12.39,37.41-4.83-19.24s0-19.89,0-18.62C712.3,87.54,716.63,87,721.3,86.25Z"/><polygon class="cls-23" points="717.25 124.81 724.07 150.8 702.27 173.48 697.64 176.41 671.9 170.41 692.96 138.14 717.25 124.81"/><polygon class="cls-6" points="724.07 150.8 697.82 196.24 691.87 186.42 678.63 172.03 677.08 169.45 724.07 150.8"/><polygon class="cls-6" points="630.75 70.94 634.39 80.16 659.55 66.53 645.1 55.75 630.75 70.94"/><polygon class="cls-59" points="634.39 80.16 623.46 132.24 650.11 139.81 657.13 146.43 663.52 164.02 677.18 169.03 684.28 117.27 692.29 92.51 673.53 69.41 651.68 66.33 634.39 80.16"/><polygon class="cls-60" points="685.71 88.28 651.68 66.33 645.02 71.66 685.71 88.28"/><polygon class="cls-39" points="657.13 146.43 661.54 159.82 672.24 173.64 677.08 169.45 697.52 128.86 693.59 113.95 688.48 112.04 692.29 92.52 685.71 88.28 670.76 145.93 657.13 146.43"/><polygon class="cls-60" points="661.54 159.82 678.15 148.16 650.11 139.81 661.54 159.82"/><polygon class="cls-59" points="689.33 124.84 697.52 128.86 706.2 113.86 695.02 107.73 689.33 124.84"/><polygon class="cls-61" points="712.42 105.56 636.37 56.45 662.28 26.5 712.04 81.44 712.42 105.56"/><polygon class="cls-24" points="662.28 26.5 729.65 87.31 712.42 105.56 662.28 26.5"/><polygon class="cls-39" points="668.76 91.89 679.14 97.08 665.9 98.68 653 113.32 656.6 98.52 660.82 92.37 668.76 91.89"/><polygon class="cls-39" points="644.8 86.4 650.65 89.65 652.04 104.41 648.37 112.35 643.28 93.35 637.04 85.92 644.8 86.4"/><polygon class="cls-62" points="660.82 92.37 653 113.32 648.37 112.35 650.65 89.66 660.82 92.37"/><polygon class="cls-23" points="679.14 97.08 666.07 88.64 660.82 92.37 679.14 97.08"/><polygon class="cls-23" points="650.65 89.65 648.37 84.22 637.04 85.92 650.65 89.65"/><polygon class="cls-60" points="650.33 115.11 648.37 112.35 653 113.32 650.33 115.11"/><path class="cls-60" d="M700.93,114.91c-.34,0-4.18-2-4.18-2l-2.43,8.73Z"/><polygon class="cls-60" points="689.33 124.84 692.96 138.14 697.52 128.86 689.33 124.84"/><path class="cls-63" d="M640.46,94.3a3.25,3.25,0,0,0,3.21,3.38,3.17,3.17,0,0,0,3.22-3.22,3.2,3.2,0,0,0-3-3.37A3.25,3.25,0,0,0,640.46,94.3Z"/><polygon class="cls-39" points="627.59 286.71 629.29 278.67 643.28 272.32 641.41 284.53 638.45 288.92 632.76 290.59 627.59 286.71"/><polygon class="cls-39" points="680.52 277.2 675.35 295.12 669.94 296.49 667 292.05 663.45 284.53 672.47 270.54 680.52 277.2"/><polygon class="cls-60" points="680.1 278.58 663.45 284.53 659.99 277.2 669.11 264.33 680.1 278.58"/><path class="cls-60" d="M629.29,278.67c-.65-.1,12.12,5.86,12.12,5.86l4.22-5.86L641,270.54Z"/><polygon class="cls-6" points="635.14 309.91 638.36 309.81 640.38 297.39 638.45 288.92 631 293.89 632.65 298.77 635.14 309.91"/><polygon class="cls-6" points="675.38 294.63 680.35 305.3 674.7 314.69 675.38 294.63"/><polygon class="cls-59" points="667 292.05 662.03 299.78 666.63 305.67 676.57 307.6 675.38 294.63 667 292.05"/><polygon class="cls-10" points="676.57 307.6 662.03 299.78 660.01 302.73 663.14 307.6 676.76 310.92 676.57 307.6"/><polygon class="cls-59" points="676.76 310.92 660.01 302.73 654.85 310.92 662.95 312.48 676.76 310.92"/><polygon class="cls-59" points="627.59 286.71 619.13 295.92 623.54 300.7 630.07 303.09 638.45 288.92 627.59 286.71"/><polygon class="cls-10" points="630.07 303.09 619.13 295.92 616.37 298.4 620.41 302.91 628.42 305.3 630.07 303.09"/><polygon class="cls-59" points="628.42 306.04 616.37 298.4 608.45 306.04 619.03 307.7 628.42 306.04"/><polygon class="cls-6" points="676.76 310.92 674.7 314.69 652.8 314.69 652.8 310.92 676.76 310.92"/><polygon class="cls-6" points="632.65 298.77 634.31 300.34 633.67 301.99 625.75 310.09 608.45 310.09 608.45 306.04 622.71 306.04 632.65 298.77"/><polygon class="cls-39" points="676.76 310.92 657.43 306.78 652.8 310.92 676.76 310.92"/><polygon class="cls-39" points="622.71 306.04 607.53 300.7 608.45 306.04 622.71 306.04"/><polygon class="cls-10" points="679.4 214.64 661.97 246.12 640.74 223.65 627.72 178.32 654.23 159.97 686.82 197.9 679.4 214.64"/><polygon class="cls-59" points="650.21 152.32 689.11 165.23 696.49 179.64 686.82 197.9 659.29 167.79 650.21 152.32"/><polygon class="cls-2" points="627.72 178.32 650.21 152.32 657.87 154.86 686.82 197.9 627.72 178.32"/><polygon class="cls-23" points="660.54 278.67 646.28 268.79 655.17 231.32 693.6 231.86 680.1 278.58 660.54 278.67"/><polygon class="cls-2" points="639.55 248.73 640.25 221.67 679.4 214.64 693.6 231.86 653.33 261.97 639.55 248.73"/><polygon class="cls-10" points="629.29 278.67 653.54 271.32 653.33 261.97 640.25 221.67 629.29 278.67"/><polygon class="cls-6" points="629.29 278.67 660.54 278.67 653.33 261.97 629.29 278.67"/><polygon class="cls-39" points="710.09 201 698.78 199.83 686.82 197.9 689.11 165.23 710.09 201"/><polygon class="cls-61" points="641.29 122.74 649.46 129.23 658.8 130.4 653.56 123.25 641.29 122.74"/><polygon class="cls-6" points="637.63 122.42 648.79 119.4 651.47 122.17 656.58 121.72 658.8 130.4 650.06 123.5 637.63 122.42"/><polygon class="cls-63" points="661.84 99.19 665.9 98.68 670.84 101.75 669.77 103 665.09 100.58 661.77 100.56 661.84 99.19"/><polygon class="cls-3" points="683.59 173.5 673.46 215.88 709.34 224.75 718.34 181.25 683.59 173.5"/><polygon class="cls-59" points="709.71 202.94 715.65 194.38 717.15 203.94 711.4 214.75 709.71 202.94"/><polygon class="cls-39" points="704.96 199.56 715.65 194.38 711.4 214.75 706.4 209.69 704.96 199.56"/></g><g id="Layer_3-2" data-name="Layer 3"><polygon class="cls-25" points="558 89 532.84 88.83 529.84 105.83 565.34 124.67 592.75 101.75 558 89"/><polygon class="cls-32" points="565.5 77.5 550.75 81 532.84 88.83 566.34 105.5 593.13 93.54 565.5 77.5"/><polygon class="cls-30" points="588.34 65.25 616.17 67.67 624.3 75.79 626.75 87.69 565.34 124.67 566.34 105.5 587.09 93.25 580.46 78.33 588.34 65.25"/><polygon class="cls-25" points="594.34 62.58 562.34 68.33 550.75 81 587.09 93.25 590.09 77.83 594.34 62.58"/><polygon class="cls-32" points="589.13 58.38 616.17 67.67 590.09 77.83 562.34 68.33 589.13 58.38"/><polygon class="cls-32" points="535.5 95.94 534.38 102 538.57 104.19 540.13 98 535.5 95.94"/><polygon class="cls-32" points="554.75 104.88 553.63 110.94 559 114 559.57 107.19 554.75 104.88"/><polygon class="cls-29" points="593.55 79.79 590.67 92.17 621.05 77.38 615.3 71.08 593.55 79.79"/><path class="cls-28" d="M584.07,119.5l-2.52,1.6L577.47,120a3.43,3.43,0,0,1-2.09-3.43c.26-3.32,1.75-9.23,5.16-12,4.5-3.65,6.81-2.5,6.81-2.5Z"/><path class="cls-42" d="M591.19,113.68c-1.67,5.27-5.84,8.64-9.33,7.54s-5-6.26-3.29-11.53,5.84-8.64,9.33-7.54S592.86,108.42,591.19,113.68Z"/><path class="cls-48" d="M589.24,113.11c-1,3.14-3.49,5.15-5.57,4.49s-2.95-3.73-2-6.87,3.48-5.16,5.56-4.5S590.23,110,589.24,113.11Z"/><path class="cls-51" d="M587.27,106.23a3,3,0,0,0-2,.1c2,.75,2.81,3.75,1.84,6.82a6.78,6.78,0,0,1-3.6,4.39l.12.06c2.08.66,4.57-1.35,5.57-4.49S589.35,106.89,587.27,106.23Z"/><path class="cls-28" d="M616.61,100.86l-2.27,1.49-3.67-1a3.23,3.23,0,0,1-1.88-3.19c.24-3.09,1.58-8.58,4.64-11.15,4.05-3.4,6.12-2.32,6.12-2.32Z"/><path class="cls-42" d="M623,95.46c-1.5,4.89-5.25,8-8.39,7s-4.46-5.82-3-10.71,5.25-8,8.39-7S624.51,90.56,623,95.46Z"/><path class="cls-48" d="M621.25,94.92c-.89,2.92-3.13,4.79-5,4.18s-2.66-3.47-1.76-6.39,3.13-4.79,5-4.18S622.14,92,621.25,94.92Z"/><path class="cls-51" d="M619.49,88.53a2.58,2.58,0,0,0-1.77.1c1.79.69,2.53,3.47,1.66,6.33A6.24,6.24,0,0,1,616.14,99l.11.06c1.87.61,4.11-1.26,5-4.18S621.35,89.14,619.49,88.53Z"/><polygon class="cls-29" points="563.13 72.38 556.88 79.5 584 88.81 585.69 80.31 563.13 72.38"/></g><polygon class="cls-58" points="599.93 109.05 605.46 106.5 607.02 99.38 599.84 91.54 597.77 94.75 600.9 100.06 598.75 104.48 599.93 109.05"/><g id="box"><polygon class="cls-5" points="694 329.33 834.67 349.67 898.67 326.33 772.33 308.33 694 329.33"/><polygon class="cls-64" points="409.06 295.83 440.27 299.13 433.54 332.83 377.67 337.08 366.72 306.95 384.59 292.79 409.06 295.83"/><polygon class="cls-11" points="360.28 309.58 335.04 293.83 401.04 290.08 440.71 300.06 379.28 303.11 360.28 309.58"/><polygon class="cls-17" points="333 326 335.04 293.83 379.28 303.11 377.67 337.08 333 326"/><path class="cls-50" d="M420.84,317.35l-2.73-4.6-14,.81-3.44,3.57-7.13,2.17.16,4.7,4.85-.34a1.82,1.82,0,0,0,0,.33,2.37,2.37,0,1,0,4.72-.34,1.81,1.81,0,0,0-.05-.31l10.3-.7a2.29,2.29,0,0,0,0,.37,2.37,2.37,0,0,0,4.73-.34c0-.12,0-.23-.06-.35l2.6-.18Z"/><polygon class="cls-65" points="365.71 295.88 350.83 297.25 351.08 306.75 360.28 309.58 362.71 299.75 376.71 299.13 365.71 295.88"/><polygon class="cls-64" points="409.06 258.45 435.33 263.19 433.54 295.46 377.67 299.71 366.72 269.57 384.59 255.42 409.06 258.45"/><polygon class="cls-11" points="360.28 272.2 335.04 256.46 398.83 254.5 436.08 263 379.28 265.73 360.28 272.2"/><polygon class="cls-17" points="335.79 288.96 335.04 256.46 379.28 265.73 377.67 299.71 335.79 288.96"/><path class="cls-50" d="M420.84,280l-2.73-4.6-14,.82-3.44,3.56-7.13,2.18.16,4.69,4.85-.33a1.82,1.82,0,0,0,0,.33,2.37,2.37,0,0,0,4.72-.34,1.54,1.54,0,0,0-.05-.31l10.3-.7a2.26,2.26,0,0,0,0,.37,2.37,2.37,0,0,0,4.73-.34c0-.12,0-.24-.06-.35l2.6-.18Z"/><polygon class="cls-65" points="367 259.5 353 260.17 352.92 265.92 363.42 270.75 364 262.83 373.17 262.5 367 259.5"/><polygon class="cls-65" points="398.83 256.5 406.58 256.25 415.67 258.33 406.58 258.75 398.83 256.5"/><polygon class="cls-11" points="496.85 302.99 523.08 306.03 521.33 340 465.46 344.25 454.51 314.12 472.38 299.96 496.85 302.99"/><polygon class="cls-45" points="448.07 316.75 422.83 301 488.83 297.25 523.08 306.03 467.07 310.27 448.07 316.75"/><polygon class="cls-17" points="423.58 333.5 422.83 301 467.07 310.27 465.46 344.25 423.58 333.5"/><path class="cls-50" d="M508.63,324.51l-2.73-4.6-14,.82-3.43,3.57-7.14,2.17.16,4.69,4.85-.33a1.82,1.82,0,0,0,0,.33,2.37,2.37,0,0,0,4.73-.34,2.84,2.84,0,0,0-.06-.31l10.3-.7a2.26,2.26,0,0,0,0,.37,2.37,2.37,0,0,0,4.73-.34c0-.12,0-.24-.06-.35l2.6-.18Z"/><polygon class="cls-65" points="458.46 302.38 437.33 304.06 436.96 316.25 445.96 316 446.9 306.19 463.71 304.19 458.46 302.38"/><polygon class="cls-11" points="496.85 265.62 523.08 268.65 521.33 302.63 465.46 306.88 454.51 276.74 472.38 262.58 496.85 265.62"/><polygon class="cls-45" points="448.07 279.37 422.83 263.63 488.83 259.88 523.08 268.65 467.07 272.9 448.07 279.37"/><polygon class="cls-17" points="423.58 296.13 422.83 263.63 467.07 272.9 465.46 306.88 423.58 296.13"/><path class="cls-50" d="M508.63,287.14l-2.73-4.6-14,.81-3.43,3.57-7.14,2.17.16,4.7,4.85-.33a1.76,1.76,0,0,0,0,.33,2.37,2.37,0,0,0,4.73-.34,2.84,2.84,0,0,0-.06-.31l10.3-.71a2.29,2.29,0,0,0,0,.37,2.37,2.37,0,1,0,4.73-.34c0-.12,0-.23-.06-.35l2.6-.17Z"/><polygon class="cls-65" points="451.58 266.25 437.67 266.75 438.17 273.25 447.42 275.33 447.67 269 457.17 267.92 451.58 266.25"/><polygon class="cls-65" points="487.67 263.58 498.75 262.33 506.33 264.33 495.75 265.33 487.67 263.58"/><polygon class="cls-45" points="755.36 313.97 732.9 292.4 774.31 283.39 813.33 289.39 771.31 321.1 755.36 313.97"/><polygon class="cls-11" points="768.68 313.6 778.95 329.67 814.08 318.85 813.33 289.39 779.57 296.15 768.68 313.6"/><polygon class="cls-17" points="732.9 324.34 732.9 292.4 779.57 296.15 778.95 329.67 732.9 324.34"/><path class="cls-44" d="M807.14,309.84l-.75-4.59L803,303.18l-9,1.88-1.69,4.5-3.09.94-.29,3.85,3-.75c.11.89.67,1.56,1.35,1.56s1.38-.84,1.38-1.88a1.87,1.87,0,0,0,0-.34l8.64-2.14a1.49,1.49,0,0,0,1.3,1.29c.76,0,1.37-.84,1.37-1.87v-.08Z"/><polygon class="cls-65" points="760.46 291.81 750.52 293.81 750.46 301.44 760.9 302.5 761.96 294.75 771.65 292.38 760.46 291.81"/><polygon class="cls-45" points="755.36 278.14 732.9 256.56 774.31 247.56 813.33 253.56 771.31 285.27 755.36 278.14"/><polygon class="cls-11" points="768.68 277.76 778.95 293.83 813.52 285.64 813.33 253.56 779.57 260.32 768.68 277.76"/><polygon class="cls-17" points="732.9 288.51 732.9 256.56 779.57 260.32 778.95 293.83 732.9 288.51"/><path class="cls-44" d="M807.14,274l-.75-4.6L803,267.35l-9,1.88-1.69,4.5-3.09.94-.29,3.84,3-.74c.11.88.67,1.56,1.35,1.56s1.38-.84,1.38-1.88a2.07,2.07,0,0,0,0-.35l8.64-2.13a1.49,1.49,0,0,0,1.3,1.29c.76,0,1.37-.84,1.37-1.87v-.08Z"/><polygon class="cls-65" points="759.15 256.31 749.02 257.75 749.15 264.94 760.4 265.75 761.02 258.81 770.02 257.38 759.15 256.31"/><polygon class="cls-45" points="755.36 242.12 732.9 220.54 768.58 213.5 813.33 217.54 771.31 249.25 755.36 242.12"/><polygon class="cls-11" points="768.68 241.74 778.95 257.81 813.52 249.62 813.33 217.54 779.57 224.3 768.68 241.74"/><polygon class="cls-17" points="732.9 252.49 732.9 220.54 779.57 224.3 778.95 257.81 732.9 252.49"/><path class="cls-44" d="M807.14,238l-.75-4.6L803,231.33l-9,1.88-1.69,4.5-3.09.94-.29,3.84,3-.74c.11.88.67,1.56,1.35,1.56s1.38-.84,1.38-1.88a2.07,2.07,0,0,0,0-.35l8.64-2.13a1.49,1.49,0,0,0,1.3,1.29c.76,0,1.37-.84,1.37-1.87v-.08Z"/><polygon class="cls-65" points="758.15 220.25 748.52 221.81 748.52 226.5 759.15 227.38 759.58 222.75 769.46 220.94 758.15 220.25"/><polygon class="cls-65" points="775.83 215.67 782.42 214.71 789.21 215.38 784.83 216.33 775.83 215.67"/><polygon class="cls-45" points="809.36 326.48 786.9 304.9 828.31 295.9 867.33 301.9 825.31 333.61 809.36 326.48"/><polygon class="cls-11" points="822.68 326.1 832.95 342.17 868.08 331.36 867.33 301.9 833.57 308.66 822.68 326.1"/><polygon class="cls-17" points="786.9 336.85 786.9 304.9 833.57 308.66 832.95 342.17 786.9 336.85"/><path class="cls-44" d="M861.14,322.35l-.75-4.6L857,315.69l-9,1.88-1.69,4.5-3.09.94-.29,3.84,3-.74c.11.88.67,1.56,1.35,1.56s1.38-.84,1.38-1.88a2.07,2.07,0,0,0,0-.35l8.64-2.13a1.49,1.49,0,0,0,1.3,1.29c.76,0,1.37-.84,1.37-1.87v-.08Z"/><polygon class="cls-65" points="814.46 304.32 804.52 306.32 804.46 313.94 814.9 315.01 815.96 307.26 825.65 304.88 814.46 304.32"/><polygon class="cls-45" points="809.36 290.64 786.9 269.07 828.31 260.06 867.33 266.07 825.31 297.77 809.36 290.64"/><polygon class="cls-11" points="822.68 290.27 832.95 306.34 867.52 298.15 867.33 266.07 833.57 272.83 822.68 290.27"/><polygon class="cls-17" points="786.9 301.02 786.9 269.07 833.57 272.83 832.95 306.34 786.9 301.02"/><path class="cls-44" d="M861.14,286.52l-.75-4.6L857,279.86l-9,1.87-1.69,4.51-3.09.93-.29,3.85,3-.74c.11.88.67,1.55,1.35,1.55s1.38-.84,1.38-1.87a2,2,0,0,0,0-.35l8.64-2.14a1.5,1.5,0,0,0,1.3,1.3c.76,0,1.37-.84,1.37-1.88v-.08Z"/><polygon class="cls-65" points="813.15 268.82 803.02 270.26 803.15 277.44 814.4 278.26 815.02 271.32 824.02 269.88 813.15 268.82"/><polygon class="cls-45" points="809.36 254.63 786.9 233.05 822.58 226.01 867.33 230.05 825.31 261.75 809.36 254.63"/><polygon class="cls-11" points="822.68 254.25 832.95 270.32 867.52 262.13 867.33 230.05 833.57 236.81 822.68 254.25"/><polygon class="cls-17" points="786.9 265 786.9 233.05 833.57 236.81 832.95 270.32 786.9 265"/><path class="cls-44" d="M861.14,250.5l-.75-4.6L857,243.84l-9,1.87-1.69,4.51-3.09.93-.29,3.85,3-.74c.11.88.67,1.55,1.35,1.55s1.38-.84,1.38-1.87a2,2,0,0,0,0-.35l8.64-2.14a1.5,1.5,0,0,0,1.3,1.3c.76,0,1.37-.84,1.37-1.88v-.08Z"/><polygon class="cls-65" points="812.15 232.76 802.52 234.32 802.52 239.01 813.15 239.88 813.58 235.26 823.46 233.44 812.15 232.76"/><polygon class="cls-65" points="829.83 228.17 836.42 227.22 843.21 227.88 838.83 228.84 829.83 228.17"/></g></svg>