<svg id="ILLUSTRATION" xmlns="http://www.w3.org/2000/svg" viewBox="0 0 900 350"><defs><style>.cls-1,.cls-7{fill:#a2a1a1;}.cls-2,.cls-33{fill:#5ebfd8;}.cls-3{fill:#cecdcc;}.cls-4{fill:#74cee4;}.cls-21,.cls-25,.cls-26,.cls-36,.cls-5{fill:#2b2b2b;}.cls-36,.cls-5{opacity:0.1;}.cls-40,.cls-6{fill:#8e8e8e;}.cls-10,.cls-11,.cls-12,.cls-13,.cls-14,.cls-15,.cls-16,.cls-17,.cls-18,.cls-19,.cls-20,.cls-21,.cls-22,.cls-23,.cls-24,.cls-26,.cls-27,.cls-28,.cls-29,.cls-30,.cls-31,.cls-32,.cls-33,.cls-34,.cls-35,.cls-36,.cls-6,.cls-7,.cls-8,.cls-9{fill-rule:evenodd;}.cls-41,.cls-8{fill:#28788b;}.cls-42,.cls-9{fill:#318ea5;}.cls-10,.cls-43{fill:#1d7678;}.cls-11,.cls-45{fill:#4f5353;}.cls-12,.cls-39{fill:#6f7273;}.cls-13,.cls-44{fill:#369395;}.cls-14,.cls-50{fill:#ebebea;}.cls-15{fill:#3a9fb9;}.cls-16{fill:#737474;}.cls-17,.cls-46{fill:#848585;}.cls-18{fill:#b08c79;}.cls-19{fill:#906a59;}.cls-20{fill:#66493b;}.cls-22,.cls-47{fill:#474748;}.cls-23{fill:#b89d8d;}.cls-24{fill:#9b9fa0;}.cls-26{opacity:0.1;}.cls-27,.cls-38{fill:#debca4;}.cls-28,.cls-48{fill:#8a6651;}.cls-29,.cls-37{fill:#c2977a;}.cls-30,.cls-55{fill:#72cbcb;}.cls-31,.cls-53{fill:#50a8a9;}.cls-32,.cls-49{fill:#e8c9b6;}.cls-34,.cls-52{fill:#c3c3c3;}.cls-35,.cls-54{fill:#dcdcdb;}.cls-51{fill:#fff;}</style></defs><title>sentinels_Logistician_ISTJ_career_path</title><polygon class="cls-1" points="469 74 508.25 45.08 536.36 22.1 898.33 40.67 893 268.33 546 233.33 480.33 175.33 469 74"/><polygon class="cls-2" points="469 74 508.33 20.67 899.67 0.67 898.33 40.67 508.25 45.08 469 74"/><polygon class="cls-3" points="3 35.58 207.03 18.31 508.25 45.08 511 198.33 360.33 231.33 13.67 260.67 3 35.58"/><polygon class="cls-4" points="1 0 508.33 20.67 508.25 45.08 3 35.58 1 0"/><polygon class="cls-5" points="850.33 314 714.33 297.33 655.37 308.89 714.33 292 472.33 258.67 548 221.83 512.33 192 1 318.33 158 349.33 317.5 319.33 509 349.83 592.02 327.05 739 349.33 850.33 314"/><polygon class="cls-6" points="118.83 144.25 75.33 117.08 61 126.75 81.5 247.25 170.83 246.75 118.83 144.25"/><polygon class="cls-7" points="151.33 129.75 132.33 112.25 75.33 117.08 93.83 224.75 185.33 223.25 151.33 129.75"/><polygon class="cls-6" points="254.54 135.29 211.04 108.13 199.38 117.63 220.38 237.63 306.54 237.79 254.54 135.29"/><polygon class="cls-7" points="287.04 120.79 268.04 103.29 211.04 108.13 233.04 214.46 321.04 214.29 287.04 120.79"/><polygon class="cls-6" points="361.25 124.96 317.5 100.58 306.75 107.58 331.17 227.67 413.25 227.46 361.25 124.96"/><polygon class="cls-7" points="393.75 110.46 375.75 95.83 317.5 100.58 339.75 204.13 427.75 203.96 393.75 110.46"/><g id="left_character" data-name="left character"><polygon class="cls-8" points="157.45 299.19 141.51 307.86 152.25 312.49 175.79 312.12 175.79 307.86 157.45 299.19"/><polygon class="cls-9" points="128.92 302.67 119.62 312.49 119.62 316.66 152.03 316.66 152.25 312.49 128.92 302.67"/><polygon class="cls-10" points="188.94 136.48 214.75 189.83 179.25 196.33 188.94 136.48"/><polygon class="cls-11" points="189.16 231.12 151.36 236.22 150.16 246.64 138.54 272.49 142.38 290.62 142.16 296.44 160.27 288.67 189.16 231.12"/><polygon class="cls-12" points="189.16 231.12 151.36 236.22 137.28 246.59 145.71 271.75 171.59 266.13 189.16 231.12"/><polygon class="cls-9" points="160.27 288.67 175.79 307.86 141.51 307.86 142.38 290.62 160.27 288.67"/><polygon class="cls-10" points="106.12 141.35 84.77 174.65 108.63 201.14 109.99 183.77 106.12 141.35"/><polygon class="cls-13" points="167.88 131.12 188.94 136.48 189.16 231.12 148.8 237.98 106.12 231.55 106.47 167.42 106.12 141.35 137.6 141.81 167.88 131.12"/><polygon class="cls-14" points="106.12 141.35 128.34 128.98 164.94 125.15 188.94 136.48 159.1 168.81 106.12 141.35"/><polygon class="cls-11" points="189.16 231.12 158.55 243.3 144.38 248.94 125.11 246.6 106.12 231.55 189.16 231.12"/><polygon class="cls-12" points="150.16 246.64 142.38 290.62 135.2 299.42 119.62 298.26 106.12 231.55 150.16 246.64"/><polygon class="cls-6" points="150.16 246.64 145.71 271.75 113.94 270.21 106.12 231.55 150.16 246.64"/><polygon class="cls-15" points="119.62 298.26 119.62 312.49 152.25 312.49 142.38 290.62 119.62 298.26"/><polygon class="cls-16" points="167.1 40.31 163.94 26.98 197.27 35.31 208.77 55.31 179.94 70.15 167.1 40.31"/><polygon class="cls-17" points="140.27 43.65 138.27 35.81 163.94 26.98 197.27 62.48 173.1 63.48 140.27 43.65"/><polygon class="cls-18" points="208.77 55.31 198.02 122.98 173.77 123.15 146.96 133.93 136.38 105.22 124.45 73.73 157.71 45.23 186.27 59.65 208.77 55.31"/><polygon class="cls-19" points="135.03 46.66 157.71 45.23 150.13 118.95 175.67 121.23 146.88 140.62 128.34 128.98 125.69 101.71 127.58 94.43 125.23 90.89 124.45 73.73 135.03 46.66"/><polygon class="cls-20" points="150.13 118.95 138.83 119.05 146.88 140.62 156.91 146.41 171.77 125.56 198.02 122.98 150.13 118.95"/><polygon class="cls-11" points="147.66 57.28 145.34 84.51 139.76 84.17 139.62 73.28 124.45 73.73 129.64 46.28 147.66 57.28"/><polygon class="cls-20" points="134.07 92.44 125.69 101.71 125.23 91.27 134.07 92.44"/><polygon class="cls-20" points="135.72 86.76 135.07 77.99 129.28 77.97 135.72 86.76"/><polygon class="cls-16" points="157.71 45.23 138.27 35.81 129.64 46.28 147.66 57.28 157.71 45.23"/><polygon class="cls-19" points="170.6 74.9 161.92 75 174.5 98.63 179.35 93.31 183.44 98.06 199.35 79.5 194.69 77.48 187.73 78.44 186.54 82.13 181.69 87.48 176.42 80.38 175.79 76.75 170.6 74.9"/><polygon class="cls-11" points="162.6 72.13 176.48 73.13 175.79 76.75 161.92 75 162.6 72.13"/><polygon class="cls-11" points="187.73 78.44 188.1 74.81 199.79 76.81 199.35 79.5 187.73 78.44"/><path class="cls-21" d="M174.81,84.51a3,3,0,1,1-3-3A3,3,0,0,1,174.81,84.51Z"/><path class="cls-21" d="M195.69,86.45a3,3,0,1,1-3-3A3,3,0,0,1,195.69,86.45Z"/><polygon class="cls-19" points="177.29 105.75 191.56 112.56 176.29 112.88 160.31 108.65 177.29 105.75"/><polygon class="cls-11" points="177.73 100.35 174.5 98.63 160.31 108.65 191.56 112.56 184.44 99.75 177.73 100.35"/><polygon class="cls-22" points="182 95.75 184.44 99.75 178.13 102.31 174.5 98.63 182 95.75"/><polygon class="cls-23" points="186.54 82.13 184.44 99.75 174.5 98.63 176.42 80.38 186.54 82.13"/></g><g id="right_character" data-name="right character"><polygon class="cls-16" points="436.29 61.54 444.96 64.75 433.21 83.75 424.79 86.17 436.29 61.54"/><polygon class="cls-17" points="423.92 50.04 426.17 39.79 444.96 64.75 436.67 67.81 425.17 66.67 423.92 50.04"/><polygon class="cls-16" points="394.29 50.67 395.79 34.54 426.17 39.79 430.51 60.75 421.79 70.67 394.29 50.67"/><polygon class="cls-24" points="367.67 59.54 364.67 45.79 395.79 34.54 420.54 66.42 378.42 67.04 367.67 59.54"/><polygon class="cls-9" points="371.18 268.98 379.8 272.54 379.92 276.45 354.38 276.22 354.3 272.37 371.18 268.98"/><polygon class="cls-15" points="369.72 255.79 373.59 260.93 379.8 272.54 354.3 272.37 354.85 261.15 369.72 255.79"/><polygon class="cls-9" points="398.55 262.07 391.04 266.98 391.11 271.05 420.48 270.97 420.13 267.17 398.55 262.07"/><polygon class="cls-15" points="402.46 252.41 406.49 254.03 420.13 267.17 391.04 266.98 390.73 259.31 402.46 252.41"/><polygon class="cls-10" points="353.93 146.37 341.29 130.67 328.71 166.83 356.21 185.88 350.94 166.38 353.93 146.37"/><polygon class="cls-22" points="393.97 226.75 405.57 230.91 406.49 254.03 390.73 259.31 380.84 237.23 393.97 226.75"/><polygon class="cls-11" points="375.57 209.73 402.02 201.68 405.57 230.91 380.84 237.23 366.37 217.78 375.57 209.73"/><polygon class="cls-11" points="360.67 221.44 352.89 237.18 354.85 261.15 373.59 260.93 378.54 237.46 360.67 221.44"/><polygon class="cls-12" points="379.25 209.42 382.63 226.29 378.54 237.46 352.89 237.18 348.31 200.49 379.25 209.42"/><polygon class="cls-22" points="366.5 180.34 348.31 200.49 382.63 226.29 402.02 201.68 366.5 180.34"/><polygon class="cls-10" points="401.1 139.63 408.13 131.17 427.13 162.17 397.87 171.73 401.1 139.63"/><polygon class="cls-9" points="396.64 152.19 404.98 169.36 402.02 201.68 383.7 205.89 348.31 200.49 345.49 164.24 396.64 152.19"/><polygon class="cls-13" points="371.18 123.7 366.54 139.42 341.29 130.67 346.13 172.43 387.81 172.73 404.98 169.36 408.13 131.17 392.54 138.17 371.18 123.7"/><polygon class="cls-14" points="371.18 123.7 360.04 126.79 341.29 130.67 385.29 161.5 408.13 131.17 395.13 127.5 371.18 123.7"/><polygon class="cls-18" points="420.54 66.42 430.51 60.75 436.67 67.81 427.79 126.04 401.42 126.17 383.97 123.64 387.53 81.33 389.54 57.67 397.29 57.42 420.54 66.42"/><polygon class="cls-19" points="393.48 127.3 385.49 130.75 384.56 124.26 391.54 59.42 378.81 70.51 378.39 79.94 377.93 85.43 376.33 88.71 375.27 94.85 372.79 91.3 372.13 84.56 367.55 88.1 366.44 91.47 367.06 95.16 367.62 101.39 366.37 100.84 362.1 108.34 359.69 126.99 380.57 142.16 393.48 127.3"/><polygon class="cls-19" points="391.67 82.67 391.29 84.17 405.67 88.35 407.22 98.13 387.6 97.29 407.95 102.71 411.76 92.46 409.72 85.54 408.26 82.6 404.57 79.79 391.67 82.67"/><polygon class="cls-19" points="419.7 85.1 418.24 87.19 415.98 91.15 416.88 104.54 431.1 103.73 419.19 100.58 424.04 92.29 433.85 89.73 428.39 86.73 423.09 82.95 419.7 85.1"/><polygon class="cls-23" points="418.24 87.19 416.88 104.54 412.58 105.26 407.95 102.71 409.72 85.54 418.24 87.19"/><polygon class="cls-19" points="374.19 92.39 374.2 99.18 362.37 99.74 363.04 86.25 373.19 82.28 374.19 92.39"/><polygon class="cls-16" points="364.67 45.79 354.71 72.58 368.23 77.31 378.81 70.51 397.29 57.42 364.67 45.79"/><polygon class="cls-17" points="391.04 61.67 380.1 94.62 374.39 96.15 373.29 83.19 363.04 86.25 362.37 99.74 354.71 72.58 391.04 61.67"/><polygon class="cls-20" points="366.5 87.9 369.99 87.23 370.07 93.09 366.5 87.9"/><polygon class="cls-20" points="362.37 99.74 370.27 99.23 362.1 108.34 362.37 99.74"/><polygon class="cls-20" points="416.88 104.54 411.52 106.54 407.95 102.71 416.88 104.54"/><path class="cls-25" d="M426.32,93.31a2.46,2.46,0,1,1-1.61-3.09A2.46,2.46,0,0,1,426.32,93.31Z"/><path class="cls-25" d="M406.61,90.26A2.46,2.46,0,1,1,405,87.18,2.45,2.45,0,0,1,406.61,90.26Z"/><polygon class="cls-20" points="373.55 121.67 384.71 122.82 427.79 126.04 400.67 127.42 380.57 142.16 373.55 121.67"/><polygon class="cls-22" points="408.67 82.13 404.6 77.53 394.95 81.29 408.67 82.13"/><polygon class="cls-22" points="419.17 84.26 424.4 81.78 429.02 85.97 419.17 84.26"/><polygon class="cls-20" points="400.88 112 419.79 110.08 419.54 111.58 401.46 113.67 400.88 112"/><polygon class="cls-15" points="389.7 79.26 410.01 82.23 409.72 85.54 392.2 83.07 391.01 94.14 408.48 97.17 408.14 100.57 387.6 97.29 389.7 79.26"/><polygon class="cls-15" points="418.7 84.07 436.45 87.29 433.48 104.04 417.08 101.79 417.35 98.31 431.1 100.67 432.98 89.23 418.24 87.19 418.7 84.07"/></g><polygon class="cls-26" points="263.08 269.35 217.57 275.74 265.58 286.96 332 276.46 263.08 269.35"/><polygon class="cls-8" points="232.98 71.05 226.16 104.01 252.52 153.55 253.14 124.94 259.12 77.15 232.98 71.05"/><path class="cls-13" d="M232.76,71l-7.19-1.28.61,34.23,9-14.71s5.13-16.5,4.82-15.44C239.9,74.38,236.45,72.79,232.76,71Z"/><polygon class="cls-13" points="226.16 104.01 213.79 123.8 226 148.24 229.09 151.88 251.98 153.55 242.86 121.34 226.16 104.01"/><polygon class="cls-8" points="213.79 123.8 232.97 175.96 245.17 170.72 245.98 153.15 242.08 147.14 213.79 123.8"/><polygon class="cls-8" points="311.81 81.7 306.42 88.4 289.07 70.6 303.84 65.39 311.81 81.7"/><polygon class="cls-27" points="306.42 88.4 302.02 134.41 277.96 133.81 270.43 137.47 260.58 150.41 247.96 151.04 255.45 106.28 255.21 83.68 276.73 69.36 295.65 72.46 306.42 88.4"/><polygon class="cls-28" points="261.75 81.87 295.65 72.46 299.8 78.6 261.75 81.87"/><polygon class="cls-29" points="270.43 137.47 263.31 147.45 250.87 156.14 247.93 151.41 241.48 112.47 248.58 101.12 253.31 100.86 255.21 83.68 261.75 81.87 259.25 133.54 270.43 137.47"/><polygon class="cls-28" points="263.31 147.45 252.55 133.48 277.96 133.81 263.31 147.45"/><polygon class="cls-27" points="249.3 111.25 241.48 112.47 238.15 97.79 249 95.59 249.3 111.25"/><polygon class="cls-30" points="235.14 89.3 310.89 68.23 297.15 36.69 241.69 69.39 235.14 89.3"/><polygon class="cls-31" points="297.15 36.69 225.57 69.71 235.14 89.3 297.15 36.69"/><polygon class="cls-29" points="274.88 89.25 264.93 90.86 275.5 95.61 282.41 111.09 283.25 97.89 281.34 91.7 274.88 89.25"/><polygon class="cls-29" points="296.17 90.89 290.47 92.07 285.5 103.95 286.5 111.48 295.63 97.04 302.73 92.49 296.17 90.89"/><polygon class="cls-32" points="281.34 91.7 282.41 111.09 286.5 111.48 290.47 92.07 281.34 91.7"/><polygon class="cls-13" points="264.93 90.86 277.95 87.24 281.34 91.7 264.93 90.86"/><polygon class="cls-13" points="290.47 92.07 293.77 88.16 302.73 92.49 290.47 92.07"/><polygon class="cls-28" points="284.16 113.27 286.5 111.48 282.41 111.09 284.16 113.27"/><path class="cls-28" d="M242.25,100c.29.08,4-.56,4-.56l-.25,7.88Z"/><polygon class="cls-28" points="249.3 111.25 242.86 121.34 241.48 112.47 249.3 111.25"/><path class="cls-21" d="M278.53,97.52a2.82,2.82,0,0,1-3.53,2A2.87,2.87,0,0,1,273,96a2.86,2.86,0,0,1,5.51,1.56Z"/><path class="cls-21" d="M297.72,98.55a2.82,2.82,0,0,1-3.53,2,2.75,2.75,0,0,1-1.84-3.5,2.79,2.79,0,1,1,5.37,1.52Z"/><polygon class="cls-30" points="292.75 120.14 283.44 124.73 272.35 118.29 292.75 120.14"/><polygon class="cls-8" points="292.75 120.14 283.86 117.61 272.35 118.29 283.68 121.86 292.75 120.14"/><polygon class="cls-29" points="291.24 255.44 289.76 248.46 277.61 242.94 279.23 253.54 281.8 257.36 286.74 258.81 291.24 255.44"/><polygon class="cls-29" points="245.26 247.17 249.76 262.74 254.45 263.93 257 260.08 260.09 253.54 252.25 241.39 245.26 247.17"/><polygon class="cls-28" points="245.63 248.38 260.09 253.54 263.1 247.17 255.17 236 245.63 248.38"/><path class="cls-28" d="M289.76,248.45c.56-.09-10.53,5.09-10.53,5.09l-3.66-5.09,4-7.06Z"/><polygon class="cls-8" points="284.68 275.58 281.88 275.5 280.12 264.71 281.8 257.36 288.28 261.68 286.84 265.91 284.68 275.58"/><polygon class="cls-8" points="249.73 262.31 245.41 271.58 250.31 279.74 249.73 262.31"/><polygon class="cls-27" points="257 260.08 261.32 266.79 257.32 271.9 248.69 273.58 249.73 262.31 257 260.08"/><polygon class="cls-15" points="248.69 273.58 261.32 266.79 263.08 269.35 260.36 273.58 248.53 276.46 248.69 273.58"/><polygon class="cls-27" points="248.53 276.46 263.08 269.35 267.56 276.46 260.52 277.82 248.53 276.46"/><polygon class="cls-27" points="291.24 255.44 298.59 263.43 294.75 267.59 289.08 269.67 281.8 257.36 291.24 255.44"/><polygon class="cls-15" points="289.08 269.67 298.59 263.43 300.99 265.59 297.47 269.51 290.52 271.59 289.08 269.67"/><polygon class="cls-27" points="290.52 272.23 300.99 265.59 307.86 272.23 298.67 273.67 290.52 272.23"/><polygon class="cls-8" points="248.53 276.46 250.31 279.74 269.34 279.74 269.34 276.46 248.53 276.46"/><polygon class="cls-8" points="286.84 265.91 285.4 267.27 285.96 268.71 292.83 275.74 307.86 275.74 307.86 272.23 295.47 272.23 286.84 265.91"/><polygon class="cls-29" points="248.53 276.46 265.32 272.87 269.34 276.46 248.53 276.46"/><polygon class="cls-29" points="295.47 272.23 308.66 267.59 307.86 272.23 295.47 272.23"/><polygon class="cls-15" points="245.22 190.77 256.92 219.75 277.6 202.63 293.62 164.93 272.71 146.31 240.6 175.55 245.22 190.77"/><polygon class="cls-27" points="276.99 140.13 242.08 147.14 236.16 163.2 240.6 175.55 267.52 152.51 276.99 140.13"/><polygon class="cls-33" points="293.62 164.93 276.99 140.13 270.11 141.51 240.6 175.55 293.62 164.93"/><polygon class="cls-13" points="262.62 248.45 275 239.87 267.28 207.32 233.9 207.8 245.63 248.38 262.62 248.45"/><polygon class="cls-33" points="280.85 222.44 278.59 200.36 246.23 192.83 233.9 207.8 268.88 233.95 280.85 222.44"/><polygon class="cls-15" points="289.76 248.46 268.7 242.07 268.88 233.95 278.59 200.36 289.76 248.46"/><polygon class="cls-8" points="289.76 248.46 262.62 248.45 268.88 233.95 289.76 248.46"/><polygon class="cls-29" points="224.54 186.98 242.17 195.64 240.6 175.55 242.08 147.14 224.54 186.98"/><g id="table_-_big" data-name="table - big"><polygon class="cls-15" points="109.17 267.67 151.67 336.67 552 261.33 558 202.58 109.17 267.67"/><polygon class="cls-9" points="39.83 244.33 50.33 318.67 151.67 336.67 157 292.33 39.83 244.33"/><polygon class="cls-34" points="111.83 199 157 292.33 584 223.33 558.5 172.83 419.5 174.83 111.83 199"/><polygon class="cls-7" points="188 210.83 30.5 205.33 0 271.83 157 292.33 174.5 220.33 188 210.83"/><polygon class="cls-35" points="30.5 205.33 430.5 166.33 558.5 172.83 174.5 220.33 30.5 205.33"/></g><polygon class="cls-36" points="245.83 200.22 257.14 202.7 219.64 212.72 183.82 201.61 196.52 199.52 245.83 200.22"/><polygon class="cls-36" points="434.13 158.5 447.04 169.42 397.67 179.29 345.46 189.5 335.04 187.42 321.13 176.83 407.75 167.83 434.13 158.5"/><polygon class="cls-17" points="225.49 202.17 218.99 208.8 195.66 203.03 196.52 199.52 225.49 202.17"/><polygon class="cls-6" points="234.68 199.52 247.12 199.13 247.78 202.17 218.99 208.8 218.94 204.62 234.68 199.52"/><polygon class="cls-7" points="218.94 204.62 247.12 199.13 224.23 194.56 196.52 199.52 218.94 204.62"/><polygon class="cls-36" points="164.27 190.48 176.6 213.98 137.42 216.42 81.44 200.31 163.94 197.48 164.27 190.48"/><polygon class="cls-20" points="139.77 198.98 134.94 190.48 146.44 186.31 146.27 197.98 139.77 198.98"/><polygon class="cls-36" points="311.53 177.85 294.71 182.96 252.54 193.46 253.29 183.54 292.73 179.63 311.53 177.85"/><polygon class="cls-36" points="302.11 191.64 318.88 192.81 293.4 205.19 274.71 202.29 250.21 199.21 224.79 186.29 254.61 185.68 265.01 189.01 302.11 191.64"/><polygon class="cls-27" points="292.23 165.48 277.11 140.33 299.91 163.28 292.88 179.71 288.13 177.54 292.23 165.48"/><polygon class="cls-29" points="306.36 145.88 309.67 147.7 311.53 177.85 292.88 179.71 300.21 149.18 306.36 145.88"/><polygon class="cls-29" points="302.94 124.8 293.37 129.81 296.9 138.13 304.08 142.69 310.92 133.57 302.94 124.8"/><polygon class="cls-27" points="309.67 147.7 310.92 133.57 296.9 138.13 300.21 149.18 309.67 147.7"/><polygon class="cls-19" points="374.67 171.92 385.54 162.92 400.67 168.04 397.67 179.29 386.79 180.04 374.67 171.92"/><polygon class="cls-18" points="360.92 175.42 371.54 167.92 385.54 162.92 386.79 180.04 371.04 181.67 360.92 175.42"/><polygon class="cls-30" points="371.54 167.92 328.71 166.83 335.04 187.42 371.04 181.67 371.54 167.92"/><polygon class="cls-14" points="422.79 120.42 407.04 172.42 447.04 169.42 462.04 120.92 422.79 120.42"/><polygon class="cls-18" points="448.42 143.67 458.17 133.92 458.04 145.79 451.54 155.17 448.42 143.67"/><polygon class="cls-19" points="445.04 139.29 458.17 133.92 451.54 155.17 444.67 148.42 445.04 139.29"/><polygon class="cls-14" points="262.96 190.53 271.31 186.83 281.89 182.64 318.88 192.81 293.11 203.15 275.57 197.32 262.96 190.53"/><polygon class="cls-14" points="145.94 169.81 139.44 213.81 176.6 213.98 183.27 171.81 145.94 169.81"/><polygon class="cls-18" points="143.1 195.65 152.94 191.15 167.44 194.81 165.1 210.31 149.44 210.65 143.1 195.65"/><polygon class="cls-19" points="127.6 193.48 134.94 190.48 152.94 191.15 149.44 210.65 132.1 207.81 127.6 193.48"/><polygon class="cls-30" points="84.77 174.65 134.94 190.48 132.1 207.81 81.44 200.31 84.77 174.65"/><polygon class="cls-33" points="231.74 194.53 233.87 192.85 230.24 192.26 225.07 193.12 224.5 196.13 231.74 194.53"/><polygon class="cls-9" points="217 194.95 222.83 198.03 233.77 195.36 233.87 192.85 222.93 194.94 217 194.95"/><path class="cls-15" d="M226.23,199.47c0,1.32-2.91,2.39-6.49,2.39s-6.5-1.07-6.5-2.39,2.91-2.38,6.5-2.38S226.23,198.16,226.23,199.47Z"/><polygon class="cls-15" points="216.74 190.43 216.61 190.43 213.24 190.5 213.24 199.47 226.23 199.47 226.23 190.5 216.74 190.43"/><path class="cls-33" d="M226.23,190.49c0,1.32-2.91,2.39-6.49,2.39s-6.5-1.07-6.5-2.39,2.91-2.38,6.5-2.38S226.23,189.18,226.23,190.49Z"/><polygon class="cls-34" points="307.13 192.98 292.64 199.12 290.6 198.59 305.67 192.4 307.13 192.98"/><polygon class="cls-34" points="300.71 190.88 286.22 197.01 284.17 196.49 299.25 190.29 300.71 190.88"/><polygon class="cls-34" points="294.28 188.78 279.79 194.91 277.75 194.38 292.82 188.19 294.28 188.78"/><polygon class="cls-34" points="287.85 186.67 273.36 192.81 271.32 192.28 286.39 186.09 287.85 186.67"/><polygon class="cls-29" points="266.93 191.31 273.77 185.69 283.8 193.36 279.85 200.65 271.19 198.91 266.93 191.31"/><polygon class="cls-27" points="252.35 190.63 258.88 186.83 273.77 185.69 271.19 198.91 258.12 196.1 252.35 190.63"/><polygon class="cls-27" points="258.88 186.83 240.6 175.55 224.79 186.29 258.12 196.1 258.88 186.83"/><g id="defendant"><polygon class="cls-37" points="695 213.58 695.75 209.58 693.38 186.58 690.63 191.46 687.13 208.46 684.38 192.71 674.13 180.58 661.5 188.83 665.25 204.33 686.88 214.21 695 213.58"/><polygon class="cls-38" points="692.38 222.96 678.63 216.46 665.25 204.33 684.13 192.33 695.75 209.58 692.38 222.96"/><polygon class="cls-39" points="677.33 315.33 682.5 335.58 692.67 332 706.33 301.67 686.33 297.67 677.33 315.33"/><polygon class="cls-40" points="796.67 310 786.33 325 778.33 323 770.33 298 786.67 293.33 796.67 310"/><polygon class="cls-41" points="664 309.83 646 313.17 646 318.83 673.33 320.83 678 308.17 664 309.83"/><polygon class="cls-42" points="681 296.83 666.33 293.5 646 313.17 683.67 315.83 681 296.83"/><polygon class="cls-43" points="696.08 276 674.92 261.75 666.33 293.5 684 303.5 696.08 276"/><polygon class="cls-44" points="724.08 260.42 716.33 261 674.92 261.75 677.17 281.42 739.33 306.75 747.58 262.67 724.08 260.42"/><polygon class="cls-43" points="728.58 252.17 716.33 261 733.67 291.83 749.33 269.25 743.08 259.17 728.58 252.17"/><polygon class="cls-41" points="756.33 209.67 783.33 236.17 786 266.33 716.33 261 718.67 242.33 756.33 209.67"/><g id="_2178676328496" data-name=" 2178676328496"><polygon class="cls-45" points="702.83 89.67 679.25 102.17 691.28 116.67 714.96 116.67 702.83 89.67"/><polygon class="cls-46" points="726.83 88.67 714.17 76.25 679.25 102.17 698.08 100.92 720.08 115.67 726.83 88.67"/><polygon class="cls-39" points="750.83 96.17 744.67 84.83 714.17 76.25 698.08 100.92 709.83 123.92 750.83 96.17"/><polygon class="cls-39" points="727.33 101.92 744.67 84.83 759.08 86.17 776.24 109.59 740.08 117.42 727.33 101.92"/><polygon class="cls-46" points="716.83 123.42 711.58 109.92 744.67 84.83 746.83 103.17 728.33 119.92 716.83 123.42"/><polygon class="cls-37" points="737.15 173.27 734.9 150.78 746.83 103.17 769.8 134.1 761.03 174.51 728.46 196.3 728.31 193.51 726.6 188.32 727.69 181.96 737.15 173.27"/><polygon class="cls-38" points="698.08 100.92 711.58 109.92 746.83 103.17 737.3 171.87 693.72 171.18 691.28 116.67 698.08 100.92"/><polygon class="cls-37" points="715.66 125.65 731.8 126.42 722.64 131.93 714.04 146.67 715.66 125.65"/><polygon class="cls-37" points="709.07 125.34 694.96 126.04 701.7 131.23 707.68 146.59 709.07 125.34"/><polygon class="cls-47" points="731.8 126.42 715.66 125.65 715.98 121.07 731.8 126.42"/><polygon class="cls-47" points="708.76 121.15 709.07 125.34 694.96 126.04 708.76 121.15"/><polygon class="cls-48" points="714.04 146.67 707.68 146.59 711.48 149.62 714.04 146.67"/><polygon class="cls-48" points="725.98 154.35 702.79 153.26 705.33 162.35 723.77 163.1 725.98 154.35"/><polygon class="cls-37" points="760.71 126.17 770.58 131.92 766.93 147.21 757.16 143.25 760.71 126.17"/><polygon class="cls-48" points="766.23 135.11 763.21 132.71 761.66 138.14 766.23 135.11"/><polygon class="cls-48" points="759.25 143.96 765.69 153.03 766.93 147.21 759.25 143.96"/><polygon class="cls-49" points="715.66 125.65 709.07 125.34 707.68 146.59 714.04 146.67 715.66 125.65"/><polygon class="cls-45" points="759.08 135.54 752.97 132.16 754.99 121.85 746.83 103.17 763.6 107.04 776.24 109.59 770.58 131.92 761.73 127.43 759.08 135.54"/><polygon class="cls-50" points="732.33 185.42 728.31 193.51 727.69 181.96 732.33 185.42"/><circle class="cls-25" cx="722.88" cy="133.41" r="2.71"/><path class="cls-25" d="M700.93,130.61a2.8,2.8,0,1,0,2.79,2.8A2.79,2.79,0,0,0,700.93,130.61Z"/><polygon class="cls-51" points="723.26 155.59 705.27 154.66 706.15 157.73 722.21 158.6 723.26 155.59"/><polygon class="cls-48" points="746.42 171.97 728.46 196.3 717.88 171.5 746.42 171.97"/></g><polygon class="cls-42" points="719 189.67 761.03 174.51 783.33 236.17 718.67 242.33 719 189.67"/><polygon class="cls-2" points="736.33 191.33 754.33 216.33 718.67 242.33 698.25 223.08 736.33 191.33"/><polygon class="cls-37" points="678.63 216.46 701.08 256.17 718.67 242.33 695.75 209.58 678.63 216.46"/><polygon class="cls-40" points="774.67 206.67 745.5 204.58 733.67 291.83 677.17 281.42 669 333.33 682.5 335.58 693.33 306.5 726.67 313.5 731.33 341.33 743.67 342.33 783.33 252.67 774.67 206.67"/><polygon class="cls-52" points="805.5 262 828.83 197 789.67 193.17 745.5 204.58 773.33 218.17 805.5 262"/><polygon class="cls-1" points="828.83 197 763.25 213.33 743.67 342.33 756 338.67 761.67 310.17 786 304 786.33 325 796.33 322 828.83 197"/></g><g id="table_-_small" data-name="table - small"><polygon class="cls-44" points="632.25 286.33 635.33 301.17 619.17 300.17 609.17 275.33 628 275.08 632.25 286.33"/><polygon class="cls-43" points="369.67 309.67 382 319.67 393.33 318 410.33 292.17 369.5 293.08 369.67 309.67"/><polygon class="cls-53" points="533.67 312.67 631 293.17 635.33 301.17 642.67 299 647.17 264.17 504 297 513.33 336 525.89 331.61 533.67 312.67"/><polygon class="cls-44" points="450.33 276.33 360.33 284.75 369.33 317.67 382 319.67 382.17 300.92 493.33 313.67 499.39 333.96 513.33 336 514 302.33 450.33 276.33"/><polygon class="cls-3" points="557.75 255.67 661.08 255.75 662.75 276.83 514 302.33 491.75 277 557.75 255.67"/><polygon class="cls-54" points="376 283.08 352.42 269.42 520.33 243.33 661.08 255.75 515.75 287.67 376 283.08"/><polygon class="cls-52" points="352.42 269.42 515.75 287.67 514 302.33 353.67 291 352.42 269.42"/></g><g id="exhibite"><polygon class="cls-5" points="594.19 256.67 585.06 261.23 613.69 264.17 626.69 257.67 622.33 257.33 594.19 256.67"/><polygon class="cls-5" points="424.96 268.79 454.71 261.17 469.58 268.17 445.21 278.17 424.96 268.79"/><polygon class="cls-5" points="496.63 249.56 478.81 254.38 516.88 269.5 530 266.31 530.25 263.31 536.56 260.25 524.69 256.63 496.63 249.56"/><polygon class="cls-54" points="488 240.33 484.17 237.75 503.58 231.83 510.92 233 497.17 243.92 488 240.33"/><polygon class="cls-52" points="498.08 241.92 489.92 238.67 484.17 237.75 485.75 253.83 495.08 256.67 498.08 241.92"/><polygon class="cls-3" points="489.92 238.67 510.92 233 512.08 251.33 495.08 256.67 489.92 238.67"/><polygon class="cls-1" points="498.35 243.19 500.58 240.19 505.59 241.45 505.83 245.36 503.85 247.86 506.34 247.21 506.74 249.25 500.47 250.78 500.09 248.74 503.71 245.01 503.74 243.16 501.49 242.17 500.31 243.78 498.35 243.19"/><polyline class="cls-5" points="501.5 268.66 513.39 271.38 494.43 282.15 465.71 279.7 481.82 268.97 501.28 268.75"/><polygon class="cls-50" points="494.45 282.22 465.95 277.59 483.05 264.41 512.08 269.57 494.45 282.22"/><polygon class="cls-4" points="483.94 267.37 473.32 276.52 483.64 278.25 496.45 277.23 491.42 268.97 483.94 267.37"/><polygon class="cls-2" points="483.64 278.25 486.24 275.05 489.12 275.88 489.72 274.78 484.11 273.41 486.88 270.07 490.12 270.77 491.42 268.97 503.57 271.58 493.22 279.79 483.64 278.25"/><polygon class="cls-4" points="487.61 270.96 487.06 271.73 488.45 272.01 488.98 271.23 487.61 270.96"/><polygon class="cls-4" points="490.1 273.35 489.55 274.11 490.94 274.4 491.47 273.61 490.1 273.35"/><polygon class="cls-4" points="494.73 272.76 494.18 273.53 495.56 273.81 496.1 273.03 494.73 272.76"/><polygon class="cls-4" points="486.76 276.02 486.21 276.79 487.41 277.2 488.05 276.37 486.76 276.02"/><polygon class="cls-53" points="515.23 251.13 531.23 253.79 530.56 259.46 513.9 265.79 509.9 257.46 515.23 251.13"/><polygon class="cls-44" points="513.4 255.46 499.9 255.13 499.9 260.63 513.9 265.79 514.73 259.13 513.4 255.46"/><polygon class="cls-55" points="499.9 255.13 514.73 259.13 531.23 253.79 514.9 249.13 499.9 255.13"/><path class="cls-50" d="M518.4,261.12s6.58,3.25,9.91,2.42-2.16-4.58-2.16-4.58l2-1.75,1.66,1.16s2.84,2.5,2.84,5.34-6.21,3.54-10,2.41a38.5,38.5,0,0,1-5.63-2.41l-.41-2.17Z"/><polygon class="cls-5" points="548.99 252.96 535.9 256.66 573.4 263.71 590.67 255.44 578.3 255.33 548.99 252.96"/><polygon class="cls-50" points="563.98 253.68 580.67 253.03 590.24 253.46 573.91 261.59 563.84 260.72 563.98 253.68"/><polygon class="cls-50" points="535.86 254.68 555.64 249 580.67 253.03 563.84 260.72 535.86 254.68"/><polygon class="cls-54" points="547.12 254.9 558.52 250.91 559.74 251.09 549.06 255.29 547.12 254.9"/><polygon class="cls-54" points="562.69 251.7 552.92 256.26 554.56 256.59 564.05 251.91 562.69 251.7"/><polygon class="cls-54" points="567.15 252.7 557.89 257.7 559.52 258.03 568.62 252.94 567.15 252.7"/><polygon class="cls-54" points="581.98 254.16 572.72 259.16 574.36 259.48 583.46 254.39 581.98 254.16"/><polygon class="cls-54" points="572.54 253.78 563.28 258.78 564.92 259.11 574.02 254.02 572.54 253.78"/><polygon class="cls-54" points="437.5 257.83 433.67 255.25 453.08 249.33 460.42 250.5 446.67 261.42 437.5 257.83"/><polygon class="cls-52" points="447.58 259.42 439.42 256.17 433.67 255.25 429.83 271.17 440.5 274.17 447.58 259.42"/><polygon class="cls-3" points="439.42 256.17 460.42 250.5 462.5 268.83 440.5 274.17 439.42 256.17"/><polygon class="cls-1" points="453.75 256.72 450.61 257.04 449.39 259.03 449.76 260.83 451.32 260.62 451.55 265.77 450.13 265.92 450.4 268.37 456.2 267.78 455.9 265.32 454.49 265.42 453.75 256.72"/><polygon class="cls-52" points="608 241.83 619.31 242.17 622.33 257.33 613.25 261.38 608 241.83"/><polygon class="cls-54" points="598.83 252.67 591.33 242.5 596.13 240.46 619.31 242.17 613.81 245.08 598.83 252.67"/><polygon class="cls-3" points="590.92 259.42 591.33 242.5 615.19 244.54 613.25 261.38 590.92 259.42"/><polygon class="cls-1" points="598.46 247.96 601.92 246.33 605.63 248.71 603.88 251.96 606.04 253.54 606.04 256.96 601.83 258.29 596.83 256.25 598.92 254.42 601.38 255.79 603 254.54 600.13 252.29 602.33 249.75 601 248.75 599.79 249.75 598.46 247.96"/></g></svg>