<svg id="ILLUSTRATION" xmlns="http://www.w3.org/2000/svg" viewBox="0 0 900 350"><defs><style>.cls-1,.cls-37{fill:#dcdcdb;}.cls-1,.cls-10,.cls-11,.cls-12,.cls-13,.cls-14,.cls-15,.cls-16,.cls-17,.cls-18,.cls-19,.cls-2,.cls-20,.cls-21,.cls-22,.cls-3,.cls-4,.cls-5,.cls-6,.cls-7,.cls-8,.cls-9{fill-rule:evenodd;}.cls-2{fill:#ebebea;}.cls-26,.cls-3{fill:#369395;}.cls-4{fill:#72cbcb;}.cls-30,.cls-5{fill:#50a8a9;}.cls-6{fill:#92d5d5;}.cls-7{fill:#cecdcc;}.cls-8{fill:#c3c3c3;}.cls-19,.cls-31,.cls-36,.cls-9{fill:#2b2b2b;}.cls-31,.cls-9{opacity:0.1;}.cls-10,.cls-48{fill:#1d7678;}.cls-11,.cls-34{fill:#474748;}.cls-12,.cls-49{fill:#6f7273;}.cls-13,.cls-28{fill:#4f5353;}.cls-14,.cls-40{fill:#8a6651;}.cls-15,.cls-41{fill:#debca4;}.cls-16,.cls-42{fill:#28788b;}.cls-17,.cls-39{fill:#c2977a;}.cls-18,.cls-43{fill:#e8c9b6;}.cls-20,.cls-38{fill:#fff;}.cls-21,.cls-33{fill:#3a9fb9;}.cls-22,.cls-44{fill:#5ebfd8;}.cls-23{fill:#f4cab2;}.cls-24{fill:#fbe3d4;}.cls-25{fill:#c18f7c;}.cls-27{fill:#737474;}.cls-29{fill:#848585;}.cls-32{fill:#318ea5;}.cls-35{fill:#fff0e8;}.cls-45{fill:#906a59;}.cls-46{fill:#66493b;}.cls-47{fill:#b08c79;}.cls-50{fill:#b89d8d;}</style></defs><title>sentinels_Logistician_ISTJ_conclusion</title><polygon class="cls-1" points="612.5 7.33 546.5 12 603.17 24 657.83 50.67 764 22.5 661.5 24.33 612.5 7.33"/><polygon class="cls-1" points="146.5 73.5 217.5 67 148.5 90.5 117 90 39.5 68.5 102 62 146.5 73.5"/><polygon class="cls-2" points="39.5 68.5 98 57 139 63.5 217.5 67 139.5 80.5 100.5 66.5 39.5 68.5"/><polygon class="cls-2" points="546.5 12 625 0 688 17.5 764 22.5 661 32.5 595 16 546.5 12"/><g id="trees"><polygon class="cls-3" points="49.83 205 56.18 220.15 58.17 219.49 54.74 204.94 49.83 205"/><polygon class="cls-4" points="52.16 189.4 50.91 192.02 63.17 200.67 55.62 208.72 45.74 199.53 47.94 191.91 52.16 189.4"/><polygon class="cls-5" points="44.95 194.36 39.32 207.3 55.62 208.72 51.83 200.5 44.95 194.36"/><polygon class="cls-5" points="46.85 183.33 61.56 190.94 51.83 200.5 43.35 184.69 46.85 183.33"/><polygon class="cls-3" points="42.31 183 37.17 200 51.83 200.5 48.05 186.06 42.31 183"/><polygon class="cls-4" points="47.81 181.35 36.75 165.25 37.44 185.5 48.05 186.06 47.81 181.35"/><polygon class="cls-6" points="36.75 165.25 55.69 180.25 48.05 186.06 36.75 165.25"/><polygon class="cls-3" points="162.02 168.81 165.67 196.4 169.21 196.21 170.06 170.9 162.02 168.81"/><polygon class="cls-4" points="172.75 144.33 169.54 148.07 185.69 159.18 169.83 177.48 157.75 158.05 164.75 146.57 172.75 144.33"/><polygon class="cls-5" points="158.75 149.25 143.8 167.9 169.83 177.48 165.29 155.05 158.75 149.25"/><polygon class="cls-5" points="171 130.25 188.67 147.27 166.5 161.17 160.45 132.72 171 130.25"/><polygon class="cls-3" points="159.5 129.49 141.18 150.79 166.5 161.17 167.51 137.05 159.5 129.49"/><polygon class="cls-4" points="169.22 129.24 171 95.5 146.5 129.83 167.51 137.05 169.22 129.24"/><polygon class="cls-6" points="171 95.5 182 128.17 167.51 137.05 171 95.5"/><polygon class="cls-3" points="692.5 198.26 698.42 216.56 700.8 215.99 698.22 198.68 692.5 198.26"/><polygon class="cls-4" points="696.74 180.28 695.02 183.22 707.55 194.3 698.89 203.18 688.25 191.48 691.57 182.8 696.74 180.28"/><polygon class="cls-5" points="687.83 185.37 680 199.92 698.89 203.18 693 188.5 687.83 185.37"/><polygon class="cls-5" points="691.05 168.8 707.93 180.3 694.47 192.05 686.93 173.92 691.05 168.8"/><polygon class="cls-3" points="687.22 173.13 676.08 188.62 694.47 192.05 692.27 175.99 687.22 173.13"/><polygon class="cls-4" points="692.45 170.47 688.3 148.55 679.94 174.29 692.27 175.99 692.45 170.47"/><polygon class="cls-6" points="688.3 148.55 699.67 170.16 692.27 175.99 688.3 148.55"/><polygon class="cls-3" points="74.04 203.49 75.2 214.84 76.66 214.8 77.31 204.44 74.04 203.49"/><polygon class="cls-4" points="78.74 193.59 77.38 195.08 84.25 203.56 77.14 207.14 72.43 199.03 75.43 194.41 78.74 193.59"/><polygon class="cls-5" points="72.94 195.44 66.59 202.89 77.14 207.14 75.55 197.89 72.94 195.44"/><polygon class="cls-5" points="76.44 188.49 85.22 194.99 75.55 197.89 73.84 188.69 76.44 188.49"/><polygon class="cls-3" points="73.49 187.35 65.72 195.85 75.55 197.89 76.68 190.55 73.49 187.35"/><polygon class="cls-4" points="77.47 187.37 77.69 171.88 69.75 188.03 76.68 190.55 77.47 187.37"/><polygon class="cls-6" points="77.69 171.88 81.7 188.09 76.68 190.55 77.69 171.88"/><polygon class="cls-3" points="526.11 204.37 527.27 215.71 528.73 215.68 529.38 205.32 526.11 204.37"/><polygon class="cls-4" points="530.81 194.47 529.45 195.96 537.67 204.67 529.21 208.01 524.5 199.91 527.5 195.29 530.81 194.47"/><polygon class="cls-5" points="525.01 196.31 518.66 203.77 529.21 208.01 527.62 198.77 525.01 196.31"/><polygon class="cls-5" points="529.58 187.75 537.29 195.87 527.62 198.77 525.91 189.56 529.58 187.75"/><polygon class="cls-3" points="525.56 188.23 517.8 196.73 527.62 198.77 528.75 191.42 525.56 188.23"/><polygon class="cls-4" points="529.55 188.25 527.52 176.12 521.82 188.91 528.75 191.42 529.55 188.25"/><polygon class="cls-6" points="527.52 176.12 533.77 188.97 528.75 191.42 527.52 176.12"/><polygon class="cls-3" points="720.69 196.44 721.85 207.79 723.31 207.76 723.96 197.4 720.69 196.44"/><polygon class="cls-4" points="725.39 186.55 724.03 188.04 730.51 192.79 723.79 200.09 719.08 191.98 722.08 187.36 725.39 186.55"/><polygon class="cls-5" points="719.6 188.39 713.24 195.85 723.79 200.09 722.2 190.84 719.6 188.39"/><polygon class="cls-5" points="723.09 181.44 729 190 722.2 190.84 720.49 181.64 723.09 181.44"/><polygon class="cls-3" points="720.14 180.3 712.38 188.81 722.2 190.84 723.33 183.5 720.14 180.3"/><polygon class="cls-4" points="724.13 180.32 715.75 162.75 716.4 180.99 723.33 183.5 724.13 180.32"/><polygon class="cls-6" points="715.75 162.75 728.35 181.04 723.33 183.5 715.75 162.75"/><polygon class="cls-3" points="846.64 206.8 843.52 217.77 844.88 218.28 849.33 208.9 846.64 206.8"/><polygon class="cls-4" points="854.66 199.34 852.85 200.22 857.17 209.17 848.17 211.33 846.79 202.06 851.29 198.88 854.66 199.34"/><polygon class="cls-5" points="848.6 198.91 839.94 203.49 848.17 211.33 849.33 204.75 848.6 198.91"/><polygon class="cls-5" points="854.41 193.75 860.17 203.04 849.33 204.75 851.93 192.97 854.41 193.75"/><polygon class="cls-3" points="852.09 191.6 841.73 196.63 849.33 204.75 852.17 197.83 852.09 191.6"/><polygon class="cls-4" points="855.79 193.09 856.67 177.83 846.75 191.67 852.17 197.83 855.79 193.09"/><polygon class="cls-6" points="856.67 177.83 859.45 195.32 852.17 197.83 856.67 177.83"/></g><g id="land"><polygon class="cls-7" points="314.5 232.67 167.83 200.33 60.83 230.33 28.5 256.67 77 297.5 351.5 308 317.83 252.33 314.5 232.67"/><polygon class="cls-1" points="314.5 232.67 169.5 183.5 0 230.88 28.5 256.67 142.58 231 207.5 205.67 350 242.5 314.5 232.67"/><polygon class="cls-8" points="335.83 292 314.5 286.33 28.5 256.67 16.5 313.67 220.5 348.33 335.83 292"/><polygon class="cls-1" points="347.5 255.5 317.5 251.67 169.5 183.5 353.58 219.57 389.5 244 347.5 255.5"/><polygon class="cls-2" points="411 210.5 317.5 251.67 314.5 286.33 531.5 294 572.5 257.5 518.75 203.83 411 210.5"/><polygon class="cls-8" points="411 210.5 353.58 219.57 317.5 251.67 496.75 243.25 572.5 257.5 518.75 203.83 411 210.5"/><polygon class="cls-1" points="544 309.5 514.83 268.58 314.5 286.33 220.5 348.33 442.5 331 544 309.5"/><polygon class="cls-1" points="726 306 604.5 310.5 514.83 268.58 496.75 243.25 518.75 203.83 565.5 206.5 614.63 212.88 648.17 216.67 733.83 293 726 306"/><polygon class="cls-7" points="726 306 688.5 255.25 496.75 243.25 518.75 203.83 565.5 206.5 614.63 212.88 648.17 216.67 733.83 293 726 306"/><polygon class="cls-7" points="730.5 308 702.33 283.25 688.5 255.25 772.5 198.5 805.25 262.5 730.5 308"/><polygon class="cls-8" points="770 225.5 688.5 255.25 648.17 216.67 772.5 198.5 805.25 262.5 770 225.5"/><polygon class="cls-8" points="796 259 794 200.5 884.5 239 857.17 257 810.5 285.67 796 259"/><polygon class="cls-7" points="799.17 228.67 794 200.5 884.5 239 799.17 228.67"/><polygon class="cls-7" points="708.5 311 702.33 283.25 514.83 268.58 442.5 331 652.5 349.67 708.5 311"/><polygon class="cls-8" points="862.83 283.33 817.25 310.13 652.5 349.67 702.42 283.42 751.5 274.83 800.33 267.83 830.75 253.5 862.83 283.33"/><polygon class="cls-7" points="803.17 267.83 857.17 257 900 290.75 817.25 310.13 803.17 267.83"/></g><g id="plant_2" data-name="plant 2"><polygon class="cls-9" points="709.62 237.62 719.1 235.53 730.12 238.64 719.44 240.71 709.62 237.62"/><path class="cls-3" d="M718.58,237.25l.7-7.84s2.4,8.61,2.24,8.62-2.25.69-2.25.69Z"/><polygon class="cls-10" points="717.34 237.61 719.28 229.41 719.27 238.72 717.34 237.61"/><polygon class="cls-3" points="717.17 225.29 719.28 229.41 713.63 228.22 711.25 222.63 717.17 225.29"/><polygon class="cls-5" points="718.63 225.11 711.25 222.63 719.28 229.41 718.63 225.11"/><polygon class="cls-3" points="721.58 226.29 719.28 229.41 724.57 229.07 729.25 218.88 721.58 226.29"/><polygon class="cls-5" points="719.88 224 729.25 218.88 719.28 229.41 719.88 224"/><polygon class="cls-9" points="641.86 262.63 650.93 260.5 661.49 263.74 651.27 265.85 641.86 262.63"/><path class="cls-3" d="M650.44,262.34l.84-6.76s2.12,7.5,2,7.5-2.16.66-2.16.66Z"/><polygon class="cls-10" points="649.25 262.69 651.28 255.58 651.1 263.74 649.25 262.69"/><polygon class="cls-3" points="649.32 250.95 651.28 255.58 647.56 255.25 645.81 246.5 649.32 250.95"/><polygon class="cls-5" points="650.66 251.47 645.81 246.5 651.28 255.58 650.66 251.47"/><polygon class="cls-3" points="653.48 252.59 651.28 255.58 656.35 255.26 658.44 250.13 653.48 252.59"/><polygon class="cls-5" points="652.56 251.83 658.44 250.13 651.28 255.58 652.56 251.83"/><polygon class="cls-9" points="708.07 306.58 718.24 304.38 730.05 307.63 718.6 309.81 708.07 306.58"/><path class="cls-3" d="M717.68,306.16l.72-8.3S721,307,720.84,307s-2.42.74-2.42.74Z"/><polygon class="cls-10" points="716.35 306.55 718.4 297.86 718.42 307.74 716.35 306.55"/><polygon class="cls-3" points="716.2 292.68 718.4 297.86 712.34 296.58 709.13 288.6 716.2 292.68"/><polygon class="cls-5" points="717.7 293.25 709.13 288.6 718.4 297.86 717.7 293.25"/><polygon class="cls-3" points="720.86 294.52 718.4 297.86 724.07 297.5 728.09 289.44 720.86 294.52"/><polygon class="cls-5" points="719.83 293.66 728.09 289.44 718.4 297.86 719.83 293.66"/></g><g id="plant_1" data-name="plant 1"><polygon class="cls-9" points="41.17 279.58 65.83 276.92 87.17 282.58 63.17 288.08 41.17 279.58"/><polygon class="cls-9" points="75.75 306.06 98.92 301.5 126.08 309.34 99.82 315.36 75.75 306.06"/><polygon class="cls-9" points="113 282.33 137.67 279.67 159 285.33 135 290.83 113 282.33"/><polygon class="cls-9" points="150.67 293.83 176.76 291.01 199.33 297 173.94 302.82 150.67 293.83"/><polygon class="cls-11" points="130.57 270.54 124.38 264.61 138.01 263.07 149.14 266.16 133.39 272.46 130.57 270.54"/><polygon class="cls-5" points="125.64 266.51 137.33 265.21 148 268.17 130.44 273.71 125.64 266.51"/><path class="cls-3" d="M135.86,269.87l.61-15.27s2.44,15.32,2.27,15.33Z"/><polygon class="cls-10" points="134.79 267.33 136.47 254.6 136.71 268.86 134.94 269.02 134.79 267.33"/><polygon class="cls-3" points="134.19 249.23 136.47 254.6 130.19 253.27 125.83 244.83 134.19 249.23"/><polygon class="cls-12" points="131.31 279.8 136.71 268.86 149.14 266.16 145.3 284.72 136.13 286.66 131.31 279.8"/><polygon class="cls-5" points="135.48 248.06 125.83 244.83 136.47 254.6 135.48 248.06"/><polygon class="cls-3" points="139.02 251.14 136.47 254.6 142.34 254.22 145.08 247.25 139.02 251.14"/><polygon class="cls-5" points="137.94 250.25 145.08 247.25 136.47 254.6 137.94 250.25"/><polygon class="cls-13" points="124.38 264.61 126.7 284.55 136.13 286.66 136.71 268.86 124.38 264.61"/><polygon class="cls-11" points="94.66 291.43 87.09 284.18 103.77 282.29 117.39 286.07 98.11 293.78 94.66 291.43"/><polygon class="cls-5" points="88.63 286.5 102.94 284.91 116 288.54 94.5 295.32 88.63 286.5"/><path class="cls-3" d="M101.14,290.61l.74-18.69s3,18.75,2.78,18.76S101.14,290.61,101.14,290.61Z"/><polygon class="cls-10" points="99.83 287.51 101.88 271.92 102.18 289.38 100.02 289.57 99.83 287.51"/><polygon class="cls-3" points="99.09 265.35 101.88 271.92 94.2 270.3 92.25 258.08 99.09 265.35"/><polygon class="cls-12" points="95.57 302.77 102.18 289.38 117.39 286.07 112.69 308.79 101.47 311.16 95.57 302.77"/><polygon class="cls-5" points="101.83 266.92 92.25 258.08 101.88 271.92 101.83 266.92"/><polygon class="cls-3" points="105 267.69 101.88 271.92 109.08 271.47 113.08 264.33 105 267.69"/><polygon class="cls-5" points="103.69 266.6 113.08 264.33 101.88 271.92 103.69 266.6"/><polygon class="cls-13" points="87.09 284.18 89.93 308.57 101.47 311.16 102.18 289.38 87.09 284.18"/><polygon class="cls-11" points="167.83 279.92 160.26 272.67 176.93 270.78 190.56 274.56 171.28 282.27 167.83 279.92"/><polygon class="cls-5" points="161.79 274.99 176.1 273.4 189.17 277.03 167.67 283.81 161.79 274.99"/><path class="cls-3" d="M174.31,279.1l.74-18.69s3,18.75,2.78,18.76S174.31,279.1,174.31,279.1Z"/><polygon class="cls-10" points="173 276 175.05 260.41 175.35 277.87 173.18 278.06 173 276"/><polygon class="cls-3" points="172.26 253.84 175.05 260.41 167.37 258.79 163.3 248.68 172.26 253.84"/><polygon class="cls-12" points="168.73 291.26 175.35 277.87 190.56 274.56 185.85 297.28 174.64 299.65 168.73 291.26"/><polygon class="cls-5" points="174.17 254.57 163.3 248.68 175.05 260.41 174.17 254.57"/><polygon class="cls-3" points="178.17 256.18 175.05 260.41 182.24 259.96 187.34 249.74 178.17 256.18"/><polygon class="cls-5" points="176.86 255.09 187.34 249.74 175.05 260.41 176.86 255.09"/><polygon class="cls-13" points="160.26 272.67 163.1 297.06 174.64 299.65 175.35 277.87 160.26 272.67"/><polygon class="cls-11" points="59.68 268.09 53.55 262.21 67.06 260.68 78.1 263.74 62.48 269.99 59.68 268.09"/><polygon class="cls-5" points="54.79 264.09 66.39 262.8 76.97 265.74 59.55 271.24 54.79 264.09"/><path class="cls-3" d="M64.93,267.42l.6-15.14s2.42,15.19,2.25,15.2S64.93,267.42,64.93,267.42Z"/><polygon class="cls-10" points="63.87 264.91 65.53 252.28 65.77 266.43 64.02 266.58 63.87 264.91"/><polygon class="cls-3" points="63.27 246.95 65.53 252.28 59.31 250.97 53.42 242.25 63.27 246.95"/><polygon class="cls-12" points="60.41 277.28 65.77 266.43 78.1 263.74 74.29 282.16 65.2 284.07 60.41 277.28"/><polygon class="cls-5" points="64.55 245.79 53.42 242.25 65.53 252.28 64.55 245.79"/><polygon class="cls-3" points="68.06 248.85 65.53 252.28 71.33 253 78.33 242.08 68.06 248.85"/><polygon class="cls-5" points="67 247.97 78.33 242.08 65.53 252.28 67 247.97"/><polygon class="cls-13" points="53.55 262.21 55.85 281.98 65.2 284.07 65.77 266.43 53.55 262.21"/></g><polygon class="cls-9" points="333.83 302 411.5 317.67 475.83 302.67 400.83 290 333.83 302"/><polygon class="cls-14" points="471.24 175.97 474.74 178.47 479.74 179.31 487.9 163.64 466.74 166.14 471.24 175.97"/><polygon class="cls-11" points="486.26 158.81 477.44 149.68 497.69 148.18 513.99 153.39 490.32 161.81 486.26 158.81"/><polygon class="cls-5" points="479.19 152.56 496.57 151.31 512.19 156.31 485.88 163.49 479.19 152.56"/><path class="cls-3" d="M494.13,158.12l1.77-22.56s2.73,22.81,2.48,22.81S494.13,158.12,494.13,158.12Z"/><polygon class="cls-10" points="492.69 154.31 495.9 135.56 495.44 156.68 492.82 156.81 492.69 154.31"/><polygon class="cls-3" points="492.84 127.48 495.9 135.56 486.7 133.24 481.46 122.9 492.84 127.48"/><polygon class="cls-12" points="486.82 172.56 495.44 156.68 513.99 153.39 507.24 180.64 493.57 182.97 486.82 172.56"/><polygon class="cls-5" points="494.82 125.83 481.46 122.9 495.9 135.56 494.82 125.83"/><polygon class="cls-3" points="499.88 130.58 495.9 135.56 504.62 135.34 509.08 127.24 499.88 130.58"/><polygon class="cls-5" points="498.34 129.21 509.08 127.24 495.9 135.56 498.34 129.21"/><polygon class="cls-13" points="477.44 149.68 479.74 179.31 493.57 182.97 495.44 156.68 477.44 149.68"/><polygon class="cls-15" points="466.9 173.64 473.82 163.31 481.4 155.81 493.01 152.43 495.44 156.68 487.74 161.64 485.74 167.31 466.9 173.64"/><polygon class="cls-15" points="415.57 164.31 419.99 142.06 450.57 167.81 436.49 184.81 415.07 178.81 415.57 164.31"/><polygon class="cls-16" points="375.59 46.38 363.28 86.01 389.69 149.95 393.88 114.92 406.93 57 375.59 46.38"/><path class="cls-3" d="M375.34,46.28l-8.68-2.43-3.35,42.07,12.78-17s8.27-19.61,7.77-18.35C383.68,51.3,379.64,48.94,375.34,46.28Z"/><polygon class="cls-3" points="363.28 86.01 345.73 108.81 357.8 140.26 361.15 145.09 389.03 149.88 381.69 109.27 363.28 86.01"/><polygon class="cls-16" points="345.73 108.81 352.71 164.58 362.67 157.36 381.72 148.68 372.9 139.31 345.73 108.81"/><polygon class="cls-16" points="471.05 68.88 463.62 76.46 444.47 52.54 463.21 47.92 471.05 68.88"/><polygon class="cls-15" points="463.62 76.46 452.72 132.39 423.27 128.76 413.6 132.37 399.96 147.06 384.4 146.32 398.94 92.29 401.35 64.54 429.48 49.55 452.32 55.61 463.62 76.46"/><polygon class="cls-14" points="409.6 63.1 452.31 55.61 456.67 63.65 409.6 63.1"/><polygon class="cls-17" points="413.6 132.37 403.67 143.75 387.36 152.92 384.32 146.77 381.06 98.22 391.14 85.15 396.98 85.39 401.35 64.54 409.6 63.1 400.35 126.2 413.6 132.37"/><polygon class="cls-14" points="403.67 143.75 392.14 125.32 423.27 128.76 403.67 143.75"/><polygon class="cls-15" points="390.81 97.67 381.06 98.22 378.74 79.81 392.32 78.41 390.81 97.67"/><polygon class="cls-4" points="376.06 69.03 471.53 52.24 458.44 11.91 386.48 45.39 376.06 69.03"/><polygon class="cls-5" points="458.44 11.91 366.66 43.85 376.06 69.03 458.44 11.91"/><polygon class="cls-17" points="424.82 73.72 414.13 73.49 424.82 81.61 431.45 101.42 434.06 85.33 432.46 77.5 424.82 73.72"/><polygon class="cls-17" points="450.75 78.28 443.62 79.05 436.1 93.03 436.42 102.4 449.35 85.77 457.63 80.12 450.75 78.28"/><polygon class="cls-18" points="432.46 77.5 431.45 101.43 436.42 102.4 443.62 79.05 432.46 77.5"/><polygon class="cls-3" points="414.13 73.49 430.24 71.97 432.46 77.5 414.13 73.49"/><polygon class="cls-3" points="443.62 79.05 446.24 74.14 457.63 80.12 443.62 79.05"/><polygon class="cls-14" points="433.34 104.3 436.42 102.4 431.45 101.43 433.34 104.3"/><path class="cls-14" d="M383.5,83c.34.13,4.95-.21,4.95-.21l-1.24,9.63Z"/><polygon class="cls-14" points="390.81 97.67 381.69 109.27 381.06 98.22 390.81 97.67"/><path class="cls-19" d="M428.32,84.32a3.48,3.48,0,0,1-4.58,2,3.54,3.54,0,0,1-2-4.58,3.54,3.54,0,0,1,6.58,2.58Z"/><path class="cls-19" d="M451.74,87.87a3.49,3.49,0,0,1-4.58,2,3.39,3.39,0,0,1-1.83-4.52,3.44,3.44,0,1,1,6.41,2.51Z"/><polygon class="cls-20" points="432.44 110.93 442.09 113.8 430.32 118.47 418.86 109.56 432.44 110.93"/><polygon class="cls-4" points="443.74 113.72 429.82 123.16 417.78 108.68 420.11 109.31 420.95 110.11 430.44 118.04 440.78 113.89 441.22 113.42 443.74 113.72"/><polygon class="cls-16" points="443.74 113.72 432.45 108.65 417.78 108.68 420.95 110.11 431.84 112.22 440.78 113.89 443.74 113.72"/><polygon class="cls-17" points="424.26 278.31 422.44 269.7 407.47 262.89 409.46 275.97 412.63 280.67 418.72 282.46 424.26 278.31"/><polygon class="cls-17" points="367.59 268.12 373.13 287.31 378.92 288.77 382.06 284.02 385.87 275.97 376.21 260.99 367.59 268.12"/><polygon class="cls-14" points="368.04 269.6 385.87 275.97 389.57 268.12 379.8 254.34 368.04 269.6"/><path class="cls-14" d="M422.44,269.7c.7-.12-13,6.27-13,6.27L405,269.7l5-8.71Z"/><polygon class="cls-16" points="416.18 303.14 412.74 303.04 410.56 289.74 412.63 280.67 420.62 286 418.85 291.22 416.18 303.14"/><polygon class="cls-16" points="373.1 286.78 367.77 298.21 373.81 308.26 373.1 286.78"/><polygon class="cls-15" points="382.06 284.02 387.38 292.3 382.46 298.6 371.81 300.68 373.1 286.78 382.06 284.02"/><polygon class="cls-21" points="371.81 300.68 387.38 292.3 389.55 295.45 386.2 300.68 371.61 304.22 371.81 300.68"/><polygon class="cls-15" points="371.61 304.22 389.55 295.45 395.07 304.22 386.4 305.9 371.61 304.22"/><polygon class="cls-15" points="424.26 278.31 433.33 288.16 428.6 293.29 421.61 295.85 412.63 280.67 424.26 278.31"/><polygon class="cls-21" points="421.61 295.85 433.33 288.16 436.28 290.82 431.95 295.65 423.38 298.21 421.61 295.85"/><polygon class="cls-15" points="423.38 299 436.28 290.82 444.76 299 433.43 300.78 423.38 299"/><polygon class="cls-16" points="371.61 304.22 373.81 308.26 397.27 308.26 397.27 304.22 371.61 304.22"/><polygon class="cls-16" points="418.85 291.22 417.07 292.89 417.76 294.67 426.23 303.34 444.76 303.34 444.76 299 429.49 299 418.85 291.22"/><polygon class="cls-17" points="371.61 304.22 392.31 299.79 397.27 304.22 371.61 304.22"/><polygon class="cls-17" points="429.49 299 445.75 293.29 444.76 299 429.49 299"/><polygon class="cls-21" points="368.78 201.13 379.63 232.27 410.19 210.78 434.43 172.16 412.35 145.63 367.82 178.06 368.78 201.13"/><polygon class="cls-15" points="407.4 140.89 372.9 139.31 363.11 153.78 367.82 178.06 404.88 152.24 407.4 140.89"/><polygon class="cls-22" points="434.43 172.16 419.99 142.06 407.4 140.89 367.82 178.06 434.43 172.16"/><polygon class="cls-3" points="388.99 269.69 404.25 259.12 394.73 218.99 353.58 219.57 368.04 269.6 388.99 269.69"/><polygon class="cls-22" points="411.46 237.63 410.19 210.78 368.78 201.13 353.58 219.57 396.71 251.81 411.46 237.63"/><polygon class="cls-21" points="422.44 269.7 396.48 261.83 396.71 251.81 410.19 210.78 422.44 269.7"/><polygon class="cls-16" points="422.44 269.7 388.99 269.69 396.71 251.81 422.44 269.7"/><polygon class="cls-17" points="356.07 185.93 367.82 178.06 372.9 139.31 341.24 170.89 356.07 185.93"/><polygon class="cls-17" points="387.74 197.64 393.99 191.14 403.74 197.89 401.49 208.64 388.49 209.14 387.74 197.64"/><polygon class="cls-15" points="366.74 189.89 378.99 189.39 393.99 191.14 388.49 209.14 374.94 202.68 366.74 189.89"/><polygon class="cls-15" points="378.99 189.39 341.24 170.89 336.9 192.97 374.94 202.68 378.99 189.39"/><polygon class="cls-17" points="473.82 163.31 446.65 164.64 436.24 184.72 474.74 178.47 473.82 163.31"/><g id="child_3" data-name="child 3"><polygon class="cls-23" points="835.42 216.85 840.83 220.18 840.24 229.58 832.81 231.99 830.39 225.05 829.77 219.39 826.38 224.38 823.83 223.48 825.72 214.88 835.42 216.85"/><polygon class="cls-24" points="826.35 210.5 834.27 211.1 840.83 220.18 830.39 225.05 825.72 214.88 826.35 210.5"/><polygon class="cls-23" points="820.29 184.85 828.18 191.24 834.27 211.1 825.68 214.91 813.08 199.27 820.29 184.85"/><polygon class="cls-23" points="728.38 136.34 723.62 137.16 718.65 128.25 725.66 122.19 733.69 129.13 728.38 136.34"/><polygon class="cls-25" points="731.85 129.06 723.62 137.16 731.49 145.25 739.2 139.81 734.16 135.59 734.1 129.4 731.85 129.06"/><polygon class="cls-24" points="737.23 137.5 737.34 136.36 736.95 130.76 731.1 125.05 729.67 127.56 732.33 131.99 732.6 137.5 736.34 142.33 737.23 137.5"/><polygon class="cls-23" points="759.2 158.31 752.85 151.19 742.39 141.17 737.88 139.9 737.5 141.43 735.18 150.63 749.76 172.83 759.2 158.31"/><polygon class="cls-26" points="773.89 181.35 769.13 158.81 752.85 151.19 749.76 172.83 770.26 189.88 773.89 181.35"/><polygon class="cls-27" points="829.22 122.39 819.43 164.12 806.55 138.36 829.22 122.39"/><polygon class="cls-28" points="817.84 90.97 816.41 145.05 819.43 164.12 804.23 161.44 794.94 137.27 757.75 113.82 746.68 104.62 817.84 90.97"/><polyline class="cls-27" points="773.08 107.61 757.84 103.71 746.68 104.62 769.17 71.06"/><polygon class="cls-29" points="786.23 106.97 757.84 103.71 769.17 71.06 803.1 80.49 786.23 106.97"/><polygon class="cls-27" points="790.4 105.89 781.69 93.01 803.1 80.49 820.15 82.12 807.25 103.58 790.4 105.89"/><polygon class="cls-25" points="797.88 259.56 792.76 257.36 789.99 248.95 802.1 249.22 807.45 253.74 797.88 259.56"/><polygon class="cls-25" points="775.55 258.05 777.29 257.09 779.52 246.66 762.83 250.29 775.55 258.05"/><polygon class="cls-30" points="794.57 186.07 809.74 165.06 828.18 191.24 813.08 199.27 794.57 186.07"/><polygon class="cls-31" points="785.4 294.59 841.7 282.2 787.39 269.79 723.83 279.67 785.4 294.59"/><polygon class="cls-32" points="803.44 274.52 790.29 279 790.42 281.79 808.32 282.12 808.21 279.33 803.44 274.52"/><polygon class="cls-32" points="760.44 271.86 751.24 274.77 751.28 277.6 764.91 277.76 770.26 275.78 770.54 277.83 774.86 277.88 774.98 274.75 760.44 271.86"/><polygon class="cls-33" points="751.24 274.77 765.4 265.3 765.73 264.71 772.74 262.33 775.16 266.25 775.01 274.75 751.24 274.77"/><polygon class="cls-33" points="790.29 279 795.47 268.08 796.02 261.11 803.15 263.55 805.35 268.67 808.21 279.33 790.29 279"/><polygon class="cls-23" points="762.83 250.29 764.53 265.87 775.16 266.25 777.29 257.09 762.83 250.29"/><polygon class="cls-23" points="805.35 268.67 807.45 253.74 792.76 257.36 795.59 267.67 805.35 268.67"/><polygon class="cls-34" points="767.38 207.72 759.07 217.07 762.83 250.29 807.45 253.74 811.54 223.11 767.38 207.72"/><polygon class="cls-23" points="803.08 164.9 811.12 142.85 807.08 123.52 807.25 103.58 803.18 111.04 796.74 155 793.13 164.76 792.19 174.74 803.08 164.9"/><polygon class="cls-25" points="785.3 173.58 770.53 150.99 772.25 149.85 796.89 150.47 798.61 154.08 802.43 155.06 796.6 167.57 785.3 173.58"/><polygon class="cls-24" points="757.84 103.71 757.43 150.42 798.61 154.08 807.25 103.58 781.69 93.01 757.84 103.71"/><polygon class="cls-25" points="811.12 142.85 813.51 136.46 808.32 136 811.12 142.85"/><polygon class="cls-23" points="805.37 135.72 813.51 136.46 818.24 123.98 807.08 123.52 805.37 135.72"/><polygon class="cls-25" points="808.58 131.82 809.51 125.83 815.08 126.16 808.58 131.82"/><polygon class="cls-23" points="774.77 130.34 760.2 127.75 772.9 126.43 770.2 120.79 759.65 116.05 766.27 115.21 764.18 112.24 775.59 112.78 777.2 114.41 777.18 117 778.42 119.1 781.74 117.29 781.82 114.78 784.59 113.58 798.85 113.77 795.69 116.46 807 117.32 789.23 121.97 784.98 126.95 805.28 129.47 781.64 130.87 774.77 130.34"/><polygon class="cls-25" points="777.91 133.42 774.77 130.34 781.64 130.87 777.91 133.42"/><polygon class="cls-35" points="777.18 117 774.77 130.34 781.64 130.87 781.74 117.29 777.18 117"/><polygon class="cls-34" points="775.59 112.78 770.83 109.17 764.18 112.24 775.59 112.78"/><polygon class="cls-34" points="784.59 113.58 788.2 109.2 798.85 113.77 784.59 113.58"/><polygon class="cls-30" points="769.13 158.81 778.74 163.66 785.3 173.58 787.18 184.61 788.27 186.6 786.82 217.28 784.17 219.4 771.17 225.16 759.07 217.07 769.13 158.81"/><polygon class="cls-26" points="803.08 163.74 809.74 165.06 809.41 196.44 811.54 223.11 796.21 229.61 784.17 219.4 785.3 173.58 803.08 163.74"/><path class="cls-36" d="M771.09,119.62a2.06,2.06,0,0,1-1.84,2.23,2,2,0,1,1-.39-4.07A2.06,2.06,0,0,1,771.09,119.62Z"/><path class="cls-36" d="M791.73,120.62a2.08,2.08,0,0,1-1.85,2.23,2,2,0,0,1-.38-4.08A2.08,2.08,0,0,1,791.73,120.62Z"/><polygon class="cls-37" points="796.5 183.57 785.3 173.58 773.39 180.48 775.21 161.85 777.34 161.44 785.25 172.95 804.23 161.44 805.52 164.22 796.5 183.57"/><polygon class="cls-26" points="767.84 137.43 772.16 137.02 777.35 135.91 783.5 137.75 788.56 138.34 781.51 146.34 773.35 145.93 767.84 137.43"/><polygon class="cls-38" points="770.62 138.54 777.28 137.96 785.07 139.23 783.64 140.28 772.12 139.99 770.62 138.54"/><polygon class="cls-29" points="807.25 103.58 816.41 145.05 838.47 119.13 820.15 82.12 807.25 103.58"/><polygon class="cls-33" points="757.75 113.82 777.2 114.41 777.18 117 760.49 116.07 760.49 124.84 775.59 125.39 775.12 128.11 757.57 127.66 757.75 113.82"/><polygon class="cls-33" points="781.82 114.78 805.14 115.68 802.74 129.61 781.61 128.08 781.72 125.59 800.51 126.93 802.19 117.45 781.74 117.29 781.82 114.78"/><polygon class="cls-26" points="742.39 141.17 735.18 150.63 731.49 145.25 737.34 136.36 742.39 141.17"/></g><g id="child_2" data-name="child 2"><polygon class="cls-32" points="611.28 302.63 595.01 307.51 595.36 310.98 616.39 310.59 616.27 307.67 611.28 302.63"/><polygon class="cls-32" points="558.2 299.85 548.57 302.89 548.61 305.86 575.28 306.05 575.4 302.78 558.2 299.85"/><polygon class="cls-39" points="641.7 154.51 646.47 147.29 654.46 139.3 662.84 145.62 656.91 159.28 641.7 154.51"/><polygon class="cls-40" points="642.21 158.25 644.92 151.29 656.91 159.28 649.69 172.04 641.05 171.4 642.21 158.25"/><polygon class="cls-41" points="638.35 171.46 639.98 164.82 638.47 155.67 642.6 145.75 646.47 147.29 644.66 156.12 647.63 163.4 640.09 173.52 638.35 171.46"/><polygon class="cls-39" points="625.2 196.36 627.33 180.16 639.98 164.82 649.69 172.04 636.93 198.78 625.2 196.36"/><polygon class="cls-26" points="603.07 207.38 614.09 185.38 627.39 179.97 636.93 198.78 614.75 213 603.07 207.38"/><polygon class="cls-39" points="531.77 155.77 523.32 155.47 516.63 141.47 527.16 135.43 533.63 142.94 539.01 148.53 531.77 155.77"/><polygon class="cls-40" points="540.51 176.68 534.08 167.13 523.32 155.47 538.3 147.53 543.63 169.84 540.51 176.68"/><polygon class="cls-41" points="541.62 171.05 542.02 158.89 542.52 148.13 533.63 142.94 531.82 145.83 537.04 151.18 536.09 160.8 541.62 171.05"/><path class="cls-39" d="M560.81,192.73c.26-.39-6.81-21.14-6.81-21.14l-11.91-14.15-9,8.5L548.3,192Z"/><polygon class="cls-26" points="573.15 192.3 570.85 180.94 554 171.59 548.3 192.04 570.82 211.59 573.15 192.3"/><polygon class="cls-42" points="631.07 150.63 633.34 168.2 606.98 172.35 613.7 145.2 631.07 150.63"/><polygon class="cls-31" points="590.75 319.59 658.01 305.55 592.84 293.62 522.76 305.15 590.75 319.59"/><polygon class="cls-33" points="548.57 302.89 563.39 292.99 563.74 292.36 574.7 290.02 575.6 293.88 575.44 302.78 548.57 302.89"/><polygon class="cls-33" points="595.01 307.51 600.67 296.94 603.51 288.59 610.98 291.15 613.28 296.51 616.27 307.67 595.01 307.51"/><polygon class="cls-28" points="560.75 238.78 555.95 272.6 561.38 273.49 569.89 278.89 581.07 276.6 586.4 260.72 594.56 241.82 562.07 235 560.75 238.78"/><polygon class="cls-39" points="561.38 273.49 562.34 293.7 575.6 293.88 579.15 282.89 577.37 278.15 561.38 273.49"/><polygon class="cls-40" points="561.38 273.49 579.15 282.89 581.07 276.6 561.38 273.49"/><polygon class="cls-28" points="618.24 277.04 615.67 245.1 610.6 241.84 595.22 242.6 593.98 244.2 591.52 244.98 585.08 258.26 586.4 260.72 594.25 279.7 608.48 284.08 613.97 277.51 618.24 277.04"/><polygon class="cls-39" points="613.28 296.51 613.97 277.51 611.71 277.76 598.51 281.11 596.47 285.26 600.79 296.51 613.28 296.51"/><polygon class="cls-40" points="613.97 277.51 594.25 279.7 596.47 285.26 613.97 277.51"/><polygon class="cls-34" points="569.83 232.71 560.75 238.78 586.4 260.72 615.67 245.1 569.83 232.71"/><polygon class="cls-39" points="607.48 186.37 622.4 146.18 609.33 118.78 605.13 120.15 600.56 175.09 596.78 186.51 591.29 200.78 607.48 186.37"/><polygon class="cls-40" points="590.47 200.15 576.33 175.61 557.82 171.76 574.93 172.13 600.72 172.78 602.47 174.02 606.69 175.41 590.47 200.15"/><polygon class="cls-28" points="564.49 137.4 554.12 119.04 559.86 109.26 560.71 111.3 560.09 116.14 564.49 137.4"/><polygon class="cls-41" points="559.86 109.26 557.38 171.61 602.52 174.02 607.28 117.56 559.86 109.26"/><polygon class="cls-40" points="616.5 162.24 619.68 153.58 613.6 152.61 616.5 162.24"/><path class="cls-34" d="M631.42,135,621.31,98.8s-11.91,19.74-12,20,1.5,23.21,1.5,23.21l3.4,4.77,10.33-5Z"/><polygon class="cls-39" points="610.83 152.06 619.03 153.5 624.56 141.75 614.98 138.29 610.83 152.06"/><polygon class="cls-40" points="615.13 148.36 616.71 142.83 620.95 145.2 615.13 148.36"/><polygon class="cls-39" points="574.28 149.36 568.04 136.81 561.77 128.42 574.21 129.31 575.78 132.08 578.34 135.39 583.49 133.06 587.39 130.14 601.79 132.3 591.1 138.97 581.91 150.02 574.28 149.36"/><path class="cls-36" d="M594.09,139.18a3.07,3.07,0,1,1-6.11.58,3.07,3.07,0,1,1,6.11-.58Z"/><polygon class="cls-40" points="577.77 153.19 574.28 149.36 581.91 150.02 577.77 153.19"/><polygon class="cls-43" points="575.78 132.08 574.28 149.36 581.91 150.02 583.49 133.06 575.78 132.08"/><polygon class="cls-34" points="574.21 129.31 569.97 124.67 561.77 128.42 574.21 129.31"/><polygon class="cls-34" points="587.39 130.14 592.27 126.05 601.79 132.3 587.39 130.14"/><polygon class="cls-40" points="568.25 156.55 588.15 157.99 584.4 168.25 570.09 166.88 568.25 156.55"/><polygon class="cls-30" points="570.85 180.94 576.97 183.7 587.93 196.19 614.09 185.38 614.75 213 589.79 239 586.03 231.43 566.18 207.57 570.85 180.94"/><polygon class="cls-26" points="566.18 207.57 614.75 213 615.67 245.1 587.02 241.22 560.75 238.78 566.18 207.57"/><path class="cls-36" d="M571.26,138.19a3.07,3.07,0,1,1-3.34-2.77A3.08,3.08,0,0,1,571.26,138.19Z"/><polygon class="cls-38" points="570.71 158.73 585.59 159.54 584.7 162.95 571.15 161.76 570.71 158.73"/><polygon class="cls-32" points="584.33 112.67 574.41 107.89 572.04 80.44 628.9 95.2 634.53 128.96 584.33 112.67"/><polygon class="cls-33" points="584.33 112.67 552.2 111.49 572.04 80.44 608.47 93.72 600.27 115.98 584.33 112.67"/><polygon class="cls-44" points="608.47 93.72 572.04 80.44 613.4 86.37 628.68 95.2 608.47 93.72"/><polygon class="cls-32" points="618.53 121.91 616.5 162.24 633.34 168.2 631.42 135.03 618.53 121.91"/><polygon class="cls-33" points="599.28 119.34 631.42 135.03 634.53 128.96 601.26 113.02 570.88 107.8 599.28 119.34"/><polygon class="cls-44" points="554.12 119.04 599.28 119.34 601.26 113.02 552.2 111.49 554.12 119.04"/><polygon class="cls-37" points="578.33 205.67 587.93 196.19 599.28 207.15 614.09 185.38 609.13 181.9 588.03 195.82 580.63 183.09 576.97 183.7 578.33 205.67"/></g><g id="child_1" data-name="child 1"><polygon class="cls-9" points="168.5 309 233.17 294.67 308.83 309.33 230.5 324.67 168.5 309"/><polygon class="cls-45" points="153.66 221.29 151.48 216.19 146.68 218.96 139.11 223.18 142.46 230.89 155.07 230.22 153.66 221.29"/><polygon class="cls-46" points="149.59 216.92 155.07 230.22 167.24 225.81 172.72 218.81 156.14 215.18 149.59 216.92"/><polygon class="cls-47" points="170.69 217.65 163.99 215.03 154.68 212.56 144.79 216.19 146.68 218.96 154.39 217.36 160.65 222.31 170.69 217.65"/><polygon class="cls-45" points="194.65 203.39 184.03 206.15 164.24 215.03 167.24 225.81 193.07 220.72 194.65 203.39"/><polygon class="cls-47" points="193.4 204.47 183.74 205.97 193.07 220.72 201.82 217.14 193.4 204.47"/><polygon class="cls-48" points="212.9 191.47 206.18 180.42 183.74 205.97 201.82 217.14 211.24 213.81 212.9 191.47"/><polygon class="cls-45" points="305.01 197.43 309.15 198.72 314.26 187.93 308.38 183.93 305.01 197.43"/><polygon class="cls-46" points="287.57 204.81 297.07 202.47 309.15 198.72 307.88 195.99 305.49 193.47 288.57 193.64 287.57 204.81"/><polygon class="cls-11" points="297.03 179.43 291.79 172.48 305.71 173.16 316.37 178.07 299.54 181.82 297.03 179.43"/><polygon class="cls-5" points="292.74 174.58 304.68 175.19 314.91 179.91 296.38 182.59 292.74 174.58"/><path class="cls-3" d="M302.45,179.63l3.1-15.22s-.05,15.76-.22,15.74S302.45,179.63,302.45,179.63Z"/><polygon class="cls-10" points="301.79 176.91 305.55 164.41 303.47 178.76 301.67 178.62 301.79 176.91"/><polygon class="cls-3" points="304.15 158.65 305.55 164.41 299.48 162.05 296.83 150 304.15 158.65"/><polygon class="cls-12" points="296.26 188.85 303.47 178.76 316.37 178.07 307.88 195.99 299.98 196.51 296.26 188.85"/><polygon class="cls-5" points="305.63 157.69 296.83 150 305.55 164.41 305.63 157.69"/><polygon class="cls-3" points="308.68 161.35 305.55 164.41 311.51 164.99 319.33 158.67 308.68 161.35"/><polygon class="cls-5" points="307.75 160.29 319.33 158.67 305.55 164.41 307.75 160.29"/><polygon class="cls-13" points="291.79 172.48 292.15 195.06 299.98 196.51 303.47 178.76 291.79 172.48"/><polygon class="cls-47" points="289.74 199.39 288.57 193.64 291.94 183.62 298.76 182.06 299.69 184.81 294.82 189.74 296.9 194.97 289.74 199.39"/><polygon class="cls-49" points="266.4 112.64 275.07 104.81 275.9 126.47 262.57 142.97 266.4 112.64"/><polygon class="cls-28" points="235.07 98.14 240.9 92.31 275.07 104.81 271.32 119.31 250.9 129.64 235.07 98.14"/><polygon class="cls-49" points="222.24 115.14 210.9 102.31 240.9 92.31 256.9 125.47 242.9 131.64 222.24 115.14"/><polygon class="cls-28" points="207.4 132.81 201.57 127.81 210.9 102.31 249.32 123.31 207.4 132.81"/><polygon class="cls-48" points="251.7 209.2 259.14 185.24 276.09 205.58 259.74 218.97 251.7 209.2"/><polygon class="cls-42" points="209.66 304.47 222.65 310.16 222.36 314.54 198.87 314.83 198.29 310.6 209.66 304.47"/><polygon class="cls-32" points="213.6 289.44 216.86 297.18 222.65 310.16 198.29 310.6 202.23 295.38 213.6 289.44"/><polygon class="cls-42" points="256.64 301.26 257.39 301.39 276.33 304.76 276.48 310.23 246.02 310.09 245.77 305.31 256.64 301.26"/><polygon class="cls-32" points="251.97 285.07 259.55 293.24 276.33 304.76 245.77 305.31 245.7 294.99 251.97 285.07"/><polygon class="cls-45" points="252.7 265.23 259.44 272.1 259.55 293.24 245.7 294.99 239.65 283.89 252.7 265.23"/><polygon class="cls-46" points="252.7 265.23 259.44 272.1 239.65 283.89 236.36 277.48 252.7 265.23"/><polygon class="cls-28" points="249.05 245.83 259.66 248.03 261.57 271.56 236.36 277.48 228.92 263.48 249.05 245.83"/><polygon class="cls-45" points="219.78 265.76 223.69 284.74 216.86 297.18 201.93 296.45 203.83 271.79 219.78 265.76"/><polygon class="cls-46" points="219.78 265.76 227.56 277.82 223.69 284.74 203.83 271.79 219.78 265.76"/><polygon class="cls-49" points="232.62 245.15 236.31 262.46 227.56 277.82 201.07 271.14 205 243.01 232.62 245.15"/><polygon class="cls-34" points="240.59 228.42 259.07 239.56 259.66 248.03 236.31 262.46 205 243.01 240.59 228.42"/><polygon class="cls-26" points="236.52 204.28 260.17 211.63 259.07 239.56 205 243.01 207.24 211.7 236.52 204.28"/><polygon class="cls-30" points="254.88 183.62 259.14 185.24 260.17 211.63 207.24 211.7 206.18 180.42 213.57 178.81 243.63 184.93 254.88 183.62"/><polygon class="cls-37" points="248.92 178.61 254.88 183.62 254.32 196.81 244.32 189.37 228.76 199.62 213.57 178.81 216.88 174.81 239.9 173.13 248.92 178.61"/><polygon class="cls-46" points="225.47 167.61 226.77 179.84 244.35 189.51 261.98 168.98 225.47 167.61"/><polygon class="cls-45" points="237.36 163.99 233.55 176.33 228.89 176.58 226.77 179.84 216.88 174.81 213.26 163.22 211.18 135.4 225.69 118.56 237.36 163.99"/><polygon class="cls-46" points="213.42 150.67 211.37 156.7 213.26 163.22 219.5 154.47 213.42 150.67"/><polygon class="cls-28" points="225.69 118.56 225.6 148.98 217.56 149.96 208 143.35 215.47 131.95 225.69 118.56"/><polygon class="cls-47" points="254.82 120.68 271.32 119.31 273.24 172.47 233.55 176.33 225.69 118.56 254.82 120.68"/><polygon class="cls-45" points="264.25 132.14 268.95 132.04 256.56 149.63 249.76 151.91 234.25 134.43 240.6 133.82 247.59 134.56 248.81 136.82 253.83 143.64 256.88 136.22 257.33 134.04 264.25 132.14"/><polygon class="cls-46" points="254.75 147.4 257.94 151.5 253.27 154.92 249.76 151.91 254.75 147.4"/><path class="cls-36" d="M262.29,140.08a2.78,2.78,0,1,0,2.6-3A2.78,2.78,0,0,0,262.29,140.08Z"/><path class="cls-36" d="M242,141.29a2.78,2.78,0,1,0,2.6-2.95A2.78,2.78,0,0,0,242,141.29Z"/><polygon class="cls-50" points="256.88 136.22 257.94 151.5 249.76 151.91 248.81 136.82 256.88 136.22"/><polygon class="cls-28" points="257.03 130.83 257.33 134.04 268.95 132.04 257.03 130.83"/><polygon class="cls-28" points="247.47 131.04 247.59 134.56 234.25 134.43 247.47 131.04"/><polygon class="cls-46" points="263.01 157.49 243.38 158.62 248.69 167.93 260.19 166.68 263.01 157.49"/><polygon class="cls-38" points="260.57 159.31 246.82 160.12 250.01 165.87 259.13 164.81 260.57 159.31"/><polygon class="cls-45" points="223.14 154.68 220.62 140.15 208 143.35 211.37 156.7 223.14 154.68"/><polygon class="cls-46" points="212.18 145.21 217.42 144.05 218.28 150.02 212.18 145.21"/><polygon class="cls-49" points="201.57 127.81 208 143.35 225.69 118.56 201.57 127.81"/><polygon class="cls-45" points="288.57 193.64 259.74 218.97 277.57 222.81 297.07 202.47 288.57 193.64"/></g><g id="rock"><polygon class="cls-2" points="844.92 276.17 842.5 268.5 860 267.17 870.17 269.42 854.5 276.33 844.92 276.17"/><polygon class="cls-8" points="850.92 277.42 857.33 270 870.17 269.42 878.67 295.83 860.25 302.08 850.92 277.42"/><polygon class="cls-1" points="840.67 287 839.75 281.75 842.5 268.5 857.33 270 860.83 287.33 840.67 287"/><polygon class="cls-2" points="817.67 306.17 811.33 288.9 839.75 281.75 860.83 287.33 817.67 306.17"/><polygon class="cls-8" points="822.25 302.25 829.25 293.75 860.83 287.33 864.5 305 830.5 320 822.25 302.25"/><polygon class="cls-1" points="811.33 288.9 807.75 312.75 830.5 320 829.25 293.75 811.33 288.9"/><polygon class="cls-8" points="876.5 294.5 884.67 294.42 887.58 311.92 865 317.33 856.83 303.58 862.92 295.58 876.5 294.5"/><polygon class="cls-1" points="862.42 296.5 847.08 296.58 846.42 312.92 865 317.33 863.33 299.5 862.42 296.5"/><polygon class="cls-2" points="847.08 296.58 869.33 291.5 884.67 294.42 863.33 299.5 847.08 296.58"/><polygon class="cls-8" points="155.96 303.75 171.21 304.13 177.5 325 145.5 328.83 144.33 314.5 151.46 303 155.96 303.75"/><polygon class="cls-1" points="151.46 303.63 139.33 300.75 135.33 314.5 130.71 319.5 144.96 323.38 148.83 320.25 150.46 305.75 151.46 303.63"/><polygon class="cls-8" points="115.58 327.5 126.08 342 154.08 338.25 148.83 320.25 126.83 317 115.58 327.5"/><polygon class="cls-1" points="125.08 317.5 111.83 315.25 103.33 328.33 126.08 342 124.33 323 125.08 317.5"/><polygon class="cls-2" points="111.83 315.25 135.33 314.5 148.83 320.25 124.33 323 111.83 315.25"/><polygon class="cls-2" points="139.33 300.75 155.46 300 171.21 304.13 150.46 305.75 139.33 300.75"/><polygon class="cls-8" points="144 334 154.83 345.5 198.5 344.5 193.33 325.33 155.17 325.83 144 334"/><polygon class="cls-1" points="157 326 134.67 325.83 131.83 341 154.83 345.5 154.33 328.83 157 326"/><polygon class="cls-2" points="134.67 325.83 172.17 321.83 193.33 325.33 154.33 328.83 134.67 325.83"/></g></svg>