<svg id="ILLUSTRATION" xmlns="http://www.w3.org/2000/svg" viewBox="0 0 900 350"><defs><style>.cls-1,.cls-17{fill:#cecdcc;}.cls-1,.cls-13,.cls-14,.cls-15,.cls-16,.cls-2,.cls-24,.cls-25,.cls-26,.cls-27,.cls-28,.cls-29,.cls-3,.cls-30,.cls-31,.cls-32,.cls-33,.cls-34,.cls-35,.cls-36,.cls-4,.cls-48,.cls-5,.cls-53,.cls-54,.cls-55,.cls-6{fill-rule:evenodd;}.cls-2,.cls-22{fill:#dcdcdb;}.cls-3,.cls-33,.cls-47,.cls-7{fill:#2b2b2b;}.cls-3,.cls-7{opacity:0.1;}.cls-4,.cls-45{fill:#6f7273;}.cls-19,.cls-5{fill:#8e8e8e;}.cls-20,.cls-6{fill:#a2a1a1;}.cls-26,.cls-8{fill:#3a9fb9;}.cls-53,.cls-9{fill:#5ebfd8;}.cls-10,.cls-13{fill:#318ea5;}.cls-11,.cls-35{fill:#74cee4;}.cls-12,.cls-14{fill:#28788b;}.cls-15,.cls-52{fill:#369395;}.cls-16,.cls-51{fill:#72cbcb;}.cls-18,.cls-55{fill:#c3c3c3;}.cls-21{fill:#848585;}.cls-23,.cls-48{fill:#ebebea;}.cls-24{fill:#c2977a;}.cls-25{fill:#8a6651;}.cls-27,.cls-38{fill:#50a8a9;}.cls-28,.cls-49{fill:#fff;}.cls-29,.cls-44{fill:#4f5353;}.cls-30,.cls-50{fill:#92d5d5;}.cls-31{fill:#debca4;}.cls-32{fill:#e8c9b6;}.cls-34,.cls-37{fill:#1d7678;}.cls-36{fill:#9b9fa0;}.cls-39{fill:#474748;}.cls-40{fill:#66493b;}.cls-41{fill:#906a59;}.cls-42{fill:#a98c80;}.cls-43{fill:#b08c79;}.cls-46{fill:#b89d8d;}.cls-54,.cls-56{fill:#185e60;}</style></defs><title>sentinels_Defender_ISFJ_conclusion</title><polygon class="cls-1" points="427.5 139.5 441.5 31.5 899.75 0.5 885 319.5 440.59 249.59 427.5 139.5"/><polygon class="cls-2" points="441.5 31.5 440.59 249.59 16.17 315.5 0.5 0.5 441.5 31.5"/><polygon class="cls-3" points="219.5 292.5 351 270.5 499.83 316.17 364.5 350 219.5 292.5"/><polygon class="cls-4" points="398.77 299.26 390.95 307.47 380.07 303.75 379.21 280.27 395.15 281.79 398.77 299.26"/><polygon class="cls-5" points="330.6 294.51 344.06 320 360.38 315.41 362.1 292.22 391.45 286.64 390.95 307.47 404.48 304.82 395.5 274.76 358.09 265.88 333.47 284.49 330.6 294.51"/><polygon class="cls-5" points="276.2 281.06 289.94 298.81 306.27 295.66 306.55 275.33 276.49 273.9 276.2 281.06"/><polygon class="cls-4" points="292.24 180.56 265.61 182.84 272.48 291.08 289.94 298.81 289.09 281.06 323.44 293.94 323.16 311.98 344.06 320 346.64 277.9 292.24 180.56"/><polygon class="cls-6" points="323.44 232.38 290.09 263.16 323.05 274.76 375.27 264.16 323.44 232.38"/><polygon class="cls-5" points="304.83 179.7 283.93 187.71 290.09 263.16 371.74 246.7 342.06 180.84 304.83 179.7"/><polygon class="cls-6" points="283.93 187.71 324.59 183.13 348.07 178.84 338.62 175.54 328.46 172.82 265.61 182.84 283.93 187.71"/><polygon class="cls-7" points="407 266.25 545 302.5 627.13 279 587.17 272.67 454.38 257.75 439.38 260.25 407 266.25"/><polygon class="cls-8" points="557.96 261.17 591.75 259 588.75 283.25 550.88 292.83 536.96 269.17 557.96 261.17"/><polygon class="cls-9" points="544.63 251.25 565.75 253.5 591.75 259 551.79 267.67 497.38 264.5 544.63 251.25"/><polygon class="cls-8" points="512.88 230 567.25 231 565.75 253.5 523.85 263.24 512.88 230"/><polygon class="cls-10" points="481.88 225.5 440.63 226 439.5 267.44 550.88 292.83 551.79 267.67 523.85 263.24 525.38 236.25 481.88 225.5"/><polygon class="cls-11" points="474.25 221.88 567.25 231 525.13 237 440.63 226 474.25 221.88"/><polygon class="cls-12" points="515.13 259.42 516.38 242.25 464.71 235 452.63 245.88 515.13 259.42"/><polygon class="cls-10" points="447.63 253.13 447.06 263.69 543 283.63 544 272 447.63 253.13"/><polygon class="cls-13" points="458 242.5 464.25 243.88 515.63 251.5 515.13 259.42 447.88 248.13 458 242.5"/><polygon class="cls-14" points="472.63 245.25 447.88 248.13 448.63 232.75 473.13 236.38 472.63 245.25"/><polygon class="cls-14" points="447.06 263.69 447.63 253.13 471.25 257.5 447.06 263.69"/><polygon class="cls-3" points="174.25 279.13 208.63 272.63 172.5 263.5 145 267.5 174.25 279.13"/><polygon class="cls-3" points="102.75 277.38 133.75 286.75 163.63 280.75 134.38 271.75 102.75 277.38"/><polygon class="cls-2" points="127.4 273.75 121.65 278.44 132.83 284.38 153.33 281 154.33 276.63 127.4 273.75"/><polygon class="cls-15" points="125.33 272.13 111.46 273.25 112.21 278.44 132.83 284.38 132.08 280.63 125.33 272.13"/><polygon class="cls-16" points="111.46 273.25 132.08 280.63 154.33 276.63 132.33 267.25 111.46 273.25"/><polygon class="cls-15" points="145.4 275.31 131.77 277.94 126.27 276.38 140.71 273.44 145.4 275.31"/><polygon class="cls-17" points="813.83 64.83 549.83 69.83 543.5 219.83 809.5 241.83 813.83 64.83"/><polygon class="cls-18" points="775.25 89.75 760.25 96.25 718.5 95.5 758 110.75 789.75 109.75 815.5 118.5 815.5 95.5 775.25 89.75"/><polygon class="cls-18" points="568.5 184.83 541.83 168.83 605.83 159.5 607.17 188.17 568.5 184.83"/><polygon class="cls-19" points="609.17 172.83 541.83 168.83 539.17 216.17 622.5 225.5 609.17 172.83"/><polygon class="cls-18" points="623.83 146.17 594.13 132.13 680.17 122.17 794.5 124.83 707.83 164.17 623.83 146.17"/><polygon class="cls-19" points="659.83 170.17 706.5 136.17 794.5 124.83 790.5 237.25 699.17 234.83 659.83 170.17"/><polygon class="cls-20" points="593.17 219.5 594.25 132.5 706.5 136.17 703.83 236.17 593.17 219.5"/><polygon class="cls-18" points="753.67 186.17 730.96 155.83 800.16 147.5 823.94 145.5 823.94 198.17 753.67 186.17"/><polygon class="cls-20" points="730.69 231.17 730.96 155.83 809.67 159.5 808.88 243.83 730.69 231.17"/><polygon class="cls-17" points="654.38 190.31 690.53 193.34 691 155.25 654.27 152.62 654.38 190.31"/><polygon class="cls-17" points="640.02 189.11 640.68 151.65 607.25 149.25 606.53 186.31 640.02 189.11"/><polygon class="cls-17" points="654.41 201.52 654.49 232.07 690 236.5 690.39 204.91 654.41 201.52"/><polygon class="cls-17" points="639.82 200.14 606.32 196.99 605.75 226 639.29 230.18 639.82 200.14"/><polygon class="cls-19" points="612.33 155.33 611.42 181.83 634.75 183.5 635.42 157.08 612.33 155.33"/><polygon class="cls-17" points="609.5 173.25 609.5 170.33 637.42 172.58 637.25 175.5 609.5 173.25"/><polygon class="cls-19" points="658.67 158.75 659.25 186.33 686 187.75 686.33 160.58 658.67 158.75"/><polygon class="cls-17" points="657.5 174.5 688.17 176.58 688.25 179.5 657.17 177.17 657.5 174.5"/><polygon class="cls-19" points="609.58 221.92 610.25 202.58 635 204.42 635.08 222.83 657.58 224.83 659.42 224.83 658.58 207.42 685.58 209.75 685.08 238.42 610.42 228.17 609.58 221.92"/><polygon class="cls-17" points="771.92 198.13 772.41 178.61 743.33 176.83 742.83 196.18 771.92 198.13"/><polygon class="cls-17" points="779.61 198.65 806.11 200.43 806.17 180.67 779.65 179.05 779.61 198.65"/><polygon class="cls-17" points="771.58 211.79 742.5 208.98 741.83 234.33 770.98 235.77 771.58 211.79"/><polygon class="cls-17" points="779.57 212.56 779.51 236.19 806 237.5 806.07 215.12 779.57 212.56"/><polygon class="cls-17" points="584 187.67 583.5 203.83 560.83 202.17 561.33 186.17 584 187.67"/><polygon class="cls-19" points="579.67 190.5 579.33 199.5 564.5 198.33 564.67 190 579.67 190.5"/><polygon class="cls-21" points="746.75 180.5 746.5 193 768.25 194.67 768.75 182.5 746.75 180.5"/><polygon class="cls-21" points="783.58 182.67 783 195.75 807.17 197.08 805.25 184.33 783.58 182.67"/><polygon class="cls-21" points="745.67 230.08 746.17 214.58 767.58 216 767.75 232.58 783.83 233.67 783.75 217.5 804.58 219 805.58 244.17 750.83 241.17 745.67 230.08"/><polygon class="cls-22" points="815.75 90 783.25 83.5 755.25 91.5 718.5 95.5 766.25 101 791.75 97.25 813.5 104 815.75 90"/><path class="cls-22" d="M534.5,61.75l-6,162.08,297.33,34.34L832.5,48.5ZM801.17,232.17l-252-23.34L552.5,81.5l253.33-4.67Z"/><polygon class="cls-23" points="678.32 96.35 673.39 102.51 675.95 103.24 678.32 96.35"/><polygon class="cls-23" points="707.55 109.58 701.12 117.63 704.46 118.58 707.55 109.58"/><polygon class="cls-23" points="717.38 81.67 711.75 88.71 714.67 89.54 717.38 81.67"/><polygon class="cls-23" points="743.63 110.04 738 117.08 740.92 117.92 743.63 110.04"/><polygon class="cls-23" points="787.63 113.95 783.52 119.1 785.65 119.71 787.63 113.95"/><polygon class="cls-23" points="657.32 103.31 650.55 111.79 654.06 112.79 657.32 103.31"/><polygon class="cls-23" points="639.25 85.42 633.63 92.46 636.54 93.29 639.25 85.42"/><polygon class="cls-23" points="616.81 105.96 609.72 114.83 613.4 115.88 616.81 105.96"/><polygon class="cls-23" points="579.41 126.84 575.06 132.28 577.31 132.93 579.41 126.84"/><polygon class="cls-23" points="586.98 144.98 580.4 153.21 583.81 154.19 586.98 144.98"/><polygon class="cls-23" points="564.5 149.29 558.88 156.33 561.79 157.17 564.5 149.29"/><polygon class="cls-24" points="370.49 293.27 369.2 306.68 360.69 309.49 358.79 305.66 352.45 285.99 368.69 283.64 370.49 293.27"/><polygon class="cls-14" points="369.2 306.68 377.89 323.11 366.69 324.79 355.58 323.11 358.79 305.66 369.2 306.68"/><polygon class="cls-25" points="352.45 285.99 370.49 293.27 371.31 283.85 361 279.74 352.45 285.99"/><polygon class="cls-26" points="370.93 316.6 362.66 316.6 355.58 323.11 355.58 325.77 377.89 325.77 377.89 323.11 370.93 316.6"/><polygon class="cls-24" points="396 287.19 402.85 299.14 409.58 300.44 412.71 297.48 411.06 279.19 396.67 279.52 396 287.19"/><polygon class="cls-14" points="412.71 297.48 422.02 306.07 413.07 316.02 402.16 314.51 402.85 299.14 412.71 297.48"/><polygon class="cls-25" points="411.06 279.19 396 287.19 389.51 276.69 401.54 276.62 411.06 279.19"/><polygon class="cls-26" points="422.02 306.07 410.02 314.51 402.16 314.51 402.16 317.07 434.04 317.07 434.04 311.29 422.02 306.07"/><polygon class="cls-15" points="376.7 266.17 410.49 267.31 411.06 279.19 352.45 285.99 376.7 266.17"/><polygon class="cls-15" points="353.22 267.31 317.15 252.8 323.06 274.76 352.45 285.99 353.22 267.31"/><polygon class="cls-27" points="324.61 182.8 301.18 235.1 321.37 223.25 334.67 216.41 324.61 182.8"/><polygon class="cls-27" points="367.64 175.34 375.97 178.89 404.38 207.37 387.39 216.92 374.6 213.1 368.12 200.19 367.64 175.34"/><polygon class="cls-16" points="367.64 175.34 358.86 199.12 345.97 204.93 359.05 194.7 341.36 173.91 324.61 182.8 330.97 214.73 324.1 236.68 317.15 252.8 340.13 258.68 376.67 244.41 383.97 209.93 367.64 175.34"/><polygon class="cls-15" points="330.97 214.73 324.1 236.68 378.92 233.45 383.97 209.93 330.97 214.73"/><polygon class="cls-27" points="376.7 244.41 410.49 267.31 352.45 285.99 317.15 252.8 376.7 244.41"/><polygon class="cls-3" points="321.81 241.9 324.1 236.68 379.85 230.66 376.67 244.41 321.81 241.9"/><polygon class="cls-24" points="330.97 214.73 354.89 229.09 356.42 233.62 355.07 238.8 301.18 235.1 330.97 214.73"/><polygon class="cls-28" points="367.64 175.34 338.52 175.22 339.17 208.88 358.86 199.12 380.97 203.57 367.64 175.34"/><polygon class="cls-29" points="395.92 88.23 413.91 99.22 400.28 118.44 396.21 103.37 395.92 88.23"/><polygon class="cls-16" points="315.35 89.78 308.21 84.52 299.44 69.69 358.54 42 364.05 57.74 365.09 70.04 338.96 84.73 315.35 89.78"/><polygon class="cls-30" points="358.54 42 400.19 58.43 395.92 88.23 378.11 81.09 365.09 70.04 358.54 42"/><polygon class="cls-15" points="299.44 69.69 303.76 105.15 311.85 97.93 315.35 89.78 299.44 69.69"/><polygon class="cls-14" points="359.87 47.69 357.5 48.7 358.92 55.49 353.25 57.9 354.19 62.4 360.09 60.03 361.56 66.25 364 65.37 364.05 57.74 359.87 47.69"/><polygon class="cls-13" points="359.87 47.69 362.7 49.02 364.17 54.8 370.04 57.48 370.04 61.55 365.24 59.51 366.68 66.17 364 65.37 359.87 47.69"/><polygon class="cls-31" points="395.92 88.23 406.11 158.8 371.27 165.09 358.86 199.12 330.09 160.32 310.11 141.82 323.41 134.17 326.94 137.99 339.18 105.85 350.58 98.7 364.71 92.08 395.92 88.23"/><polygon class="cls-24" points="339.18 105.85 349.07 169.63 371.27 165.09 364.39 171.88 366.37 178.51 358.86 199.12 323.62 157.57 321.04 152.14 317.41 150.24 306.35 137.21 319.57 125.57 326.03 139.41 330.35 126.17 339.18 105.85"/><polygon class="cls-24" points="390.41 106.81 377.85 124.84 371.79 133.26 352.81 113.6 390.41 106.81"/><polygon class="cls-32" points="368.08 110.79 371.79 133.26 379.09 132.11 375.24 109.47 368.08 110.79"/><polygon class="cls-25" points="379.09 132.11 376 137.05 371.79 133.26 379.09 132.11"/><polygon class="cls-25" points="371.27 165.09 366.37 178.51 342.41 169.83 371.27 165.09"/><polygon class="cls-25" points="325.93 144.66 323.63 157.57 317.41 150.25 325.93 144.66"/><polygon class="cls-25" points="323.07 142.55 318.18 134.44 311.91 138.28 323.07 142.55"/><polygon class="cls-29" points="362.98 98.46 366.85 84.19 365.09 70.04 315.35 89.78 292.13 120.36 316.08 114.3 339.18 105.85 349.51 102.64 362.98 98.46"/><polygon class="cls-33" points="339.18 105.85 326.86 141.01 319.65 129.56 306.35 137.21 292.13 120.36 339.18 105.85"/><polygon class="cls-4" points="365.09 70.04 395.92 88.23 362.98 98.46 365.09 70.04"/><polygon class="cls-29" points="368.08 110.79 367.24 105.81 352.81 113.6 368.08 110.79"/><polygon class="cls-29" points="375.24 109.47 390.41 106.81 374.59 104.67 375.24 109.47"/><polygon class="cls-34" points="369.53 146.66 376.9 141.87 385.12 143.87 377.9 148.36 369.53 146.66"/><polygon class="cls-27" points="363.23 145.99 378.81 152.26 390.25 141.25 377.88 147.56 363.23 145.99"/><path class="cls-33" d="M365.78,122a3.45,3.45,0,1,1-3.51-3.38A3.46,3.46,0,0,1,365.78,122Z"/><path class="cls-33" d="M387.18,118.18a3.45,3.45,0,1,1-3.51-3.38A3.44,3.44,0,0,1,387.18,118.18Z"/><polygon class="cls-31" points="404.19 166.72 397.32 175.4 402.47 187.14 407.82 193.82 414.12 186.38 415.07 167.03 404.19 166.72"/><polygon class="cls-24" points="397.32 175.4 415.07 167.03 405.72 156.41 389.87 161.75 397.32 175.4"/><polygon class="cls-29" points="367.11 227.11 359.45 215.8 371.91 211.69 384.58 216.08 374.48 227.46 367.11 227.11"/><polygon class="cls-35" points="367.11 231.4 360.6 220.14 371.91 215.99 383 220.21 374.48 231.76 367.11 231.4"/><polygon class="cls-26" points="366.89 233.05 362.6 222.14 371.69 217.63 382.21 222.22 374.27 233.41 366.89 233.05"/><polygon class="cls-36" points="366.68 226.6 371.19 220.31 384.58 216.08 382.24 240.49 371.83 243 366.68 226.6"/><polygon class="cls-5" points="359.45 215.8 360.86 240.59 371.98 243.19 371.19 220.31 359.45 215.8"/><polygon class="cls-24" points="414.12 186.38 412.59 217.49 387.39 216.92 402.47 187.14 414.12 186.38"/><polygon class="cls-31" points="354.89 229.09 369.46 219.76 373.56 225.27 371.83 237.91 355.07 238.8 354.89 229.09"/><polygon class="cls-24" points="369.46 219.76 380.81 224.36 381.67 235.63 371.83 237.91 369.46 219.76"/><polygon class="cls-3" points="67 317 199 297 261 324.5 123.25 348 67 317"/><polygon class="cls-13" points="215.75 298.75 225 308.75 217.5 322.25 204.5 318.5 196 305.25 215.75 298.75"/><polygon class="cls-26" points="95 305.5 99.97 326.13 110.5 324.75 113 314.5 95 305.5"/><polygon class="cls-26" points="106 289.88 126.88 335 142.02 332.88 143.5 324.75 216.5 313.38 217.5 322.25 233 320.17 232 279.83 106 289.88"/><polygon class="cls-13" points="88.75 288.38 93.13 323.88 99.97 326.13 102 319.83 116.17 324 116.72 331.65 126.88 335 131.5 303.5 88.75 288.38"/><polygon class="cls-5" points="166.5 257 239 272.5 238.5 291 131.5 303.5 121 278.5 166.5 257"/><polygon class="cls-4" points="148.5 269 84.5 275 86.5 293 131.5 303.5 133.5 288.5 148.5 269"/><g id="thought_bubble" data-name="thought bubble"><polygon class="cls-23" points="79.68 47.6 49.55 116.48 100.67 179.98 199.68 185.36 245.96 124.55 222.82 56.75 155.55 25.54 79.68 47.6"/><polygon class="cls-23" points="511.5 0.17 418.5 30.83 413.17 92.5 441.13 144 531.5 157.83 598.5 105.83 579.83 22.5 511.5 0.17"/><polygon class="cls-23" points="252.25 147.5 243.25 155.25 246.75 165.5 257 166.75 263.75 160 261.5 152 252.25 147.5"/><polygon class="cls-23" points="282.25 149.25 277.5 153 279.5 158.5 285.75 158.75 289.25 155.25 288.25 150.25 282.25 149.25"/><polygon class="cls-23" points="423.02 148.94 425.51 144.06 430.5 143.02 435.48 145.72 436 150.29 430.92 154.17 425.41 152.36 423.02 148.94"/><polygon class="cls-23" points="412.62 144.39 407.94 147.04 408.75 151.12 413.61 153.26 417.75 149.69 416.85 145.71 412.62 144.39"/></g><g id="something_in_bubble" data-name="something in bubble"><polygon class="cls-12" points="505 110.88 499.88 118.88 494.63 116.25 494.5 107.13 505 110.88"/><polygon class="cls-10" points="443.25 102.75 445.88 113.38 452.63 112.38 452.63 104.13 443.25 102.75"/><polygon class="cls-10" points="454.13 99.75 463.38 121 470.94 120.88 471.13 113.5 500 112 499.88 118.88 508.5 118.25 509.5 99.38 454.13 99.75"/><polygon class="cls-12" points="441.75 96.13 441.38 110.75 445.88 113.38 446.75 105.5 456.88 111.38 456.38 118.13 463.38 121 464.13 108 441.75 96.13"/><polygon class="cls-8" points="459.13 96.13 464.13 108 511.88 105.75 513.25 97.25 459.13 96.13"/><polygon class="cls-10" points="462.88 93.88 439.5 88.75 439.88 97 464.13 108 464.25 103.5 462.88 93.88"/><polygon class="cls-9" points="526.67 70 518 72.83 534.83 113.83 568.5 102 550.17 71.33 526.67 70"/><polygon class="cls-12" points="476.75 42.75 468 35.88 492.19 33.81 514.63 41.63 482.88 43.88 476.75 42.75"/><polygon class="cls-10" points="490.25 43.25 484.5 48.75 469.75 45.75 468 35.88 483.88 41.13 490.25 43.25"/><polygon class="cls-8" points="483.88 41.13 508.13 37.25 503.5 45.13 500.5 46.75 484.5 48.75 483.88 41.13"/><polygon class="cls-37" points="502.75 29.25 498.5 22.25 514 18.75 529.75 24.25 509 35.25 502.75 29.25"/><polygon class="cls-38" points="507.75 35 511.92 27.17 529.75 24.25 526.54 48.08 512.25 50.5 507.75 35"/><polygon class="cls-39" points="157.53 130.2 160.96 132.96 156.49 144 157.53 130.2"/><polygon class="cls-40" points="149.94 155.22 148.06 159.16 143.13 163.43 134.83 156.09 137.94 152.86 138.98 152.41 144.01 153.99 146.94 153.99 149.94 155.22"/><polygon class="cls-41" points="134.8 158.78 140.39 163.84 143.12 163.14 135.87 155.61 137.96 155.09 144.01 153.99 138.41 154.06 138.39 133.15 135.54 134.19 133.26 143.67 131.84 148.81 134.8 158.78"/><polygon class="cls-42" points="131.84 148.81 134.44 145.22 133.37 144.13 131.05 145.56 131.84 148.81"/><polygon class="cls-39" points="137.23 134.08 133.86 143.13 133.14 141.19 131.39 141.19 129.84 140.36 126.69 136.45 130.92 133.17 135.72 133.17 137.23 134.08"/><polygon class="cls-43" points="133.45 140.35 134.44 145.22 131.05 145.56 129.84 140.36 133.45 140.35"/><polygon class="cls-42" points="132.5 141.34 132.8 143.58 130.99 141.34 132.5 141.34"/><polygon class="cls-44" points="159.05 124.55 160.96 132.96 158.51 133.86 157.11 133.74 154 129.36 155.24 125.39 159.05 124.55"/><polygon class="cls-45" points="144.85 129.37 153.83 130.46 154.89 129.07 159.05 124.55 141.79 121.67 141.56 123.48 144.85 129.37"/><polygon class="cls-39" points="145.38 130.49 144.82 129.29 141.79 121.67 131.32 126.34 134.53 128.55 141.32 132.03 143.54 130.58 145.38 130.49"/><polygon class="cls-44" points="142.03 131.93 141.32 130.81 131.32 126.34 126.69 136.45 137.23 134.08 139.04 134.25 142.03 131.93"/><polygon class="cls-43" points="157.19 155.48 137.96 155.09 137.23 134.08 144.85 129.37 154.96 129.01 158.51 133.86 157.19 155.48"/><polygon class="cls-41" points="149.23 139 150.83 138.32 150.91 136.78 154.7 136.29 155.56 136.73 150.29 145.47 149.23 139"/><polygon class="cls-41" points="147.25 138.23 147.13 145.12 141.93 135.94 143.47 135.19 147.14 136.56 147.25 138.23"/><polygon class="cls-40" points="149.16 146.67 150.81 145.07 148.99 144.61 147.13 145.12 149.16 146.67"/><polygon class="cls-46" points="150.83 138.32 147.25 138.23 147.13 145.12 150.81 145.07 150.83 138.32"/><path class="cls-47" d="M152,140.36a1.09,1.09,0,1,0,1.08-1.08A1.09,1.09,0,0,0,152,140.36Z"/><path class="cls-47" d="M143.41,140a1.08,1.08,0,1,0,2.16,0,1.08,1.08,0,1,0-2.16,0Z"/><polygon class="cls-15" points="157.81 172.17 151.99 161.08 150.84 171.36 153.14 172.29 157.81 172.17"/><polygon class="cls-16" points="151.99 161.08 148.06 159.16 143.12 163.14 140.09 169.34 143.46 172.47 153.14 172.29 151.99 161.08"/><polygon class="cls-27" points="130.77 160.31 129.33 166.75 132.21 172.22 143.46 172.47 143.12 163.14 134.8 158.78 130.77 160.31"/><polygon class="cls-15" points="132.21 172.22 130.77 160.31 123.03 172.17 132.21 172.22"/><polygon class="cls-39" points="147.21 135.14 142.21 134.63 141.93 135.94 147.14 136.56 147.21 135.14"/><polygon class="cls-39" points="151.04 135.61 150.91 136.78 155.56 136.73 155.25 135.52 151.04 135.61"/><polygon class="cls-1" points="148.06 159.16 143.12 163.14 146.62 165.94 148.06 159.16"/><polygon class="cls-48" points="138.49 166.78 143.12 163.14 134.82 158.77 138.49 166.78"/><polygon class="cls-40" points="153.5 148.76 142.63 148.2 147.92 153.28 153.5 148.76"/><polygon class="cls-49" points="144.85 149.17 151.46 149.5 150.25 150.56 145.97 150.32 144.85 149.17"/><polygon class="cls-27" points="193.82 164.12 202.92 175.83 190.77 175.09 193.82 164.12"/><polygon class="cls-27" points="179.81 161.97 177.13 163.17 169.31 172.85 174.72 173.29 179.81 170.03 179.81 161.97"/><polygon class="cls-16" points="179.81 161.97 182.81 169.63 187.03 171.43 182.72 168.2 188.33 161.33 193.82 164.12 192.53 175.24 174.72 173.29 179.81 161.97"/><polygon class="cls-28" points="179.81 161.97 189.26 161.74 189.26 172.67 182.81 169.63 175.66 171.21 179.81 161.97"/><polygon class="cls-29" points="170.09 133.86 164.31 137.54 168.86 143.7 170.09 138.78 170.09 133.86"/><polygon class="cls-16" points="196.25 133.86 198.53 132.11 201.29 127.25 181.93 118.62 180.24 123.77 179.98 127.77 188.55 132.37 196.25 133.86"/><polygon class="cls-30" points="181.93 118.62 168.51 124.22 170.09 133.86 175.82 131.44 179.98 127.77 181.93 118.62"/><polygon class="cls-15" points="201.29 127.25 200.1 138.78 197.43 136.49 196.25 133.86 201.29 127.25"/><polygon class="cls-14" points="181.53 120.48 182.31 120.79 181.89 123.01 183.75 123.75 183.47 125.22 181.54 124.49 181.1 126.51 180.3 126.24 180.24 123.77 181.53 120.48"/><polygon class="cls-13" points="181.53 120.48 180.62 120.93 180.18 122.81 178.29 123.72 178.32 125.04 179.87 124.35 179.44 126.52 180.3 126.24 181.53 120.48"/><polygon class="cls-31" points="170.09 133.86 167.22 156.83 178.57 158.66 182.81 169.63 191.9 156.85 198.27 150.72 193.91 148.32 192.78 149.59 188.61 139.23 184.87 136.98 180.24 134.92 170.09 133.86"/><polygon class="cls-24" points="188.61 139.23 185.8 160 178.57 158.66 180.84 160.82 180.24 162.98 182.81 169.63 193.99 155.92 194.79 154.14 195.96 153.5 199.47 149.2 195.1 145.51 193.09 150.04 191.6 145.77 188.61 139.23"/><polygon class="cls-24" points="171.99 139.86 176.18 145.64 178.2 148.33 184.24 141.83 171.99 139.86"/><polygon class="cls-32" points="179.26 141.01 178.2 148.33 175.82 148 176.93 140.63 179.26 141.01"/><polygon class="cls-25" points="175.82 148 176.86 149.59 178.2 148.33 175.82 148"/><polygon class="cls-25" points="178.57 158.66 180.24 162.99 187.96 160.02 178.57 158.66"/><polygon class="cls-25" points="193.16 151.75 193.98 155.92 195.96 153.5 193.16 151.75"/><polygon class="cls-25" points="194.07 151.04 195.61 148.38 197.67 149.59 194.07 151.04"/><polygon class="cls-29" points="180.84 136.98 179.5 132.37 179.98 127.77 196.25 133.86 203.98 143.64 196.16 141.83 188.61 139.23 185.24 138.25 180.84 136.98"/><polygon class="cls-33" points="188.61 139.23 192.83 150.57 195.1 146.8 199.47 149.2 203.98 143.64 188.61 139.23"/><polygon class="cls-4" points="179.98 127.77 170.09 133.86 180.84 136.98 179.98 127.77"/><polygon class="cls-29" points="179.26 141.01 179.5 139.39 184.24 141.83 179.26 141.01"/><polygon class="cls-29" points="176.93 140.63 171.99 139.86 177.11 139.06 176.93 140.63"/><polygon class="cls-34" points="179.02 152.67 176.59 151.16 173.94 151.86 176.31 153.27 179.02 152.67"/><polygon class="cls-27" points="181.06 152.41 176.04 154.54 172.25 151.04 176.31 153.01 181.06 152.41"/><path class="cls-33" d="M180.08,144.65a1.12,1.12,0,1,0,1.12-1.12A1.12,1.12,0,0,0,180.08,144.65Z"/><path class="cls-33" d="M173.11,143.53a1.12,1.12,0,1,0,1.12-1.12A1.12,1.12,0,0,0,173.11,143.53Z"/><polygon class="cls-50" points="141.1 126.44 135.25 109.44 159.05 124.55 149.75 135.03 141.1 126.44"/><polygon class="cls-51" points="135.25 109.44 126.69 136.45 149.75 135.03 135.25 109.44"/><polygon class="cls-10" points="142.46 124.05 140.92 119.56 143.87 121.45 146.5 120.33 145.28 123.1 148.23 125.05 144.29 125.4 142.46 124.05"/><polygon class="cls-12" points="141.14 122.88 140.92 119.56 144.29 125.4 142.03 129.16 141.63 125.24 138.57 124.91 141.14 122.88"/><polygon class="cls-8" points="83.5 103.38 93.88 130.63 122.13 122.88 122.63 102.75 83.5 103.38"/><polygon class="cls-10" points="71 101.5 70.25 120.88 93.88 130.63 94.88 111.75 71 101.5"/><polygon class="cls-9" points="87.25 96.5 94.88 111.75 125.25 104.88 125.75 95.25 87.25 96.5"/><polygon class="cls-8" points="92.13 93.75 69 93.25 68.38 103.25 94.88 111.75 95.75 101.75 92.13 93.75"/><polygon class="cls-11" points="69 93.25 95.75 101.75 125.75 95.25 99.5 88 69 93.25"/><path class="cls-38" d="M88.08,95.17,82.75,95l-5.67.83,4.09,4.59,6.91-1,4.75-2.25Z"/><polygon class="cls-52" points="101.33 90.83 98.08 92.42 94.33 92.83 96 95.5 97.58 94.58 100.67 93.92 101.33 90.83"/><polygon class="cls-52" points="102.5 89.92 114.67 87.83 114.42 92.17 100.67 93.92 102.5 89.92"/><polygon class="cls-52" points="90.42 92.92 82.25 91.08 82.75 95 94.67 99 96.42 97.42 90.42 92.92"/><polygon class="cls-38" points="94.33 92.83 82.25 91.08 96.42 97.42 97.58 94.58 94.33 92.83"/><polygon class="cls-38" points="98.08 92.42 102.75 84.25 114.67 87.83 100.67 93.92 98.08 92.42"/><polygon class="cls-7" points="84.33 104.5 88.08 99.42 87 109.17 87.66 109.44 83.38 126.34 84.33 104.5"/><polygon class="cls-52" points="77.08 95.83 75.42 123 83.38 126.34 88.08 99.42 77.08 95.83"/><polygon class="cls-52" points="162.13 77 162.17 100.67 197 93.13 177.38 64.75 162.13 77"/><polygon class="cls-50" points="173 47 139.5 59.67 162.17 100.67 196.17 86.83 173 47"/><polygon class="cls-52" points="145.13 62.92 151.04 59.67 152.08 61.75 149.88 62.83 152.42 66.38 150.04 66.92 148.38 63.54 145.96 64.58 145.13 62.92"/><path class="cls-52" d="M158.25,59l-4-.79L153,59.62l2.46,4.3,2.21.46,2-1.46Zm-2,3.92-.83-2.34,1.46,0L158,62.46Z"/><polygon class="cls-52" points="158.75 57.25 160.92 61.79 162.21 62.33 165.71 61.38 163.08 55.33 161.54 56 163.54 60.29 162.29 60.63 160.25 56.46 158.75 57.25"/><path class="cls-52" d="M171.42,57.08l-1.54-.2.7-1.59-.91-1.54-2.09-.46-2.91,1.5,2.91,6.13,1.92-.8-1.17-1.87,2.92.54Zm-3.71-.5-.63-1.08,1.67-.25Z"/><polygon class="cls-8" points="139.45 71.67 169.67 88.23 167.09 91.25 138.33 75.14 139.45 71.67"/><polygon class="cls-8" points="157.81 71.33 144.26 93.16 146.95 94.83 161.94 72.56 157.81 71.33"/><polygon class="cls-8" points="119.49 149.52 149.71 166.09 147.13 169.11 118.38 152.99 119.49 149.52"/><polygon class="cls-8" points="137.85 149.19 121.56 172.5 125.38 173.63 141.99 150.42 137.85 149.19"/><polygon class="cls-8" points="61.81 103.82 90.42 119.5 87.98 122.36 60.75 107.1 61.81 103.82"/><polygon class="cls-8" points="79.19 103.5 66.36 124.16 68.91 125.75 83.11 104.67 79.19 103.5"/><polygon class="cls-52" points="498.5 22.25 500.5 46.75 512.25 50.5 511.92 27.17 498.5 22.25"/><polygon class="cls-9" points="519.06 33.13 521.5 32.69 523.31 30.69 526.69 29.63 529.75 24.25 511.92 27.17 510.13 28.31 512.06 29.38 517.81 30.69 519.06 33.13"/><polygon class="cls-8" points="512.06 29.38 509.13 29 507.81 29.75 504.56 28.56 503.13 25.5 500.81 23.06 511.92 27.17 512.06 29.38"/><polygon class="cls-52" points="485.31 40.91 489.13 42.88 492.28 42.88 493.69 41.22 495.56 40.84 496.28 39.13 485.31 40.91"/><polygon class="cls-38" points="496.04 48.46 493.25 49.83 495.63 51.96 499 51.25 502.79 52 507.58 51.08 505.17 48.67 500.5 49.38 498.38 48.58 496.04 48.46"/><polygon class="cls-38" points="500.96 52.63 498.29 52.67 497.58 54.46 500.08 55.46 501.88 54.46 501.75 53.17 500.96 52.63"/><polygon class="cls-11" points="521.25 67.5 537.5 110.25 571 99 555.75 56.5 521.25 67.5"/><polygon class="cls-8" points="528.67 76.75 542.58 72.42 543 74.17 529.19 78.31 528.67 76.75"/><polygon class="cls-8" points="532.54 66.88 546.46 62.54 546.88 64.29 533.06 68.44 532.54 66.88"/><polygon class="cls-8" points="529.79 80.25 543.71 75.92 544.13 77.67 530.31 81.81 529.79 80.25"/><polygon class="cls-8" points="533.04 87.38 546.96 83.04 547.38 84.79 533.56 88.94 533.04 87.38"/><polygon class="cls-8" points="534.17 90.88 548.08 86.54 548.5 88.29 534.69 92.44 534.17 90.88"/><polygon class="cls-8" points="537.42 98 551.33 93.67 551.75 95.42 537.94 99.56 537.42 98"/><polygon class="cls-8" points="538.54 101.5 552.46 97.17 552.88 98.92 539.06 103.06 538.54 101.5"/><polygon class="cls-8" points="548.81 72 552.56 74.38 554.19 67.94 551.63 72.38 548.81 72"/><polygon class="cls-8" points="553.38 81.38 554.88 80.06 557 80.94 556.06 83.25 556.31 84.19 555.19 84.56 554.81 83.38 555.5 81.69 555.13 81.31 554.13 82.31 553.38 81.38"/><polygon class="cls-8" points="556.63 84.81 555.5 85.19 555.81 86.44 557.06 85.88 556.63 84.81"/><polygon class="cls-8" points="556.13 91.88 557.63 90.56 559.75 91.44 558.81 93.75 559.06 94.69 557.94 95.06 557.56 93.88 558.25 92.19 557.88 91.81 556.88 92.81 556.13 91.88"/><polygon class="cls-8" points="559.38 95.31 558.25 95.69 558.56 96.94 559.81 96.38 559.38 95.31"/><polygon class="cls-9" points="476 83.75 439.5 88.75 464.25 103.5 513.25 97.25 476 83.75"/><polygon class="cls-52" points="481.39 85.36 462.84 87.62 468.69 91.83 478.12 91.44 481.39 85.36"/><polygon class="cls-52" points="471.1 89.57 470.87 93 471.73 94.17 485.38 92.09 485.36 90.42 471.1 89.57"/><polygon class="cls-37" points="472.12 89.49 469.62 90.81 462.84 87.62 462.69 90.03 471.73 94.17 471.96 92.14 472.12 89.49"/><polygon class="cls-38" points="484.43 85.2 481.93 78.74 475.08 78.74 469.62 90.81 471.96 92.14 484.43 85.2"/><polygon class="cls-51" points="482.24 85.67 476.87 80.61 475.08 78.74 489.41 77.33 491.75 79.13 482.24 85.67"/><polygon class="cls-52" points="491.75 79.13 485.36 90.42 471.96 92.14 476.87 80.61 491.75 79.13"/><polygon class="cls-7" points="477.91 104.16 475.19 106.34 473.59 106.53 473.16 102.34 477.91 104.16"/><polygon class="cls-22" points="482.28 100.38 485.47 100.78 486.59 105.5 475.16 106.88 473.16 102.34 482.28 100.38"/><polygon class="cls-23" points="466.81 98.78 476.72 96.19 485.47 100.78 473.16 102.34 466.81 98.78"/><polygon class="cls-22" points="490.75 98.63 489.54 100.17 489.25 106.83 499.96 106.25 499.96 98.92 490.75 98.63"/><polygon class="cls-23" points="488.17 97.63 498.29 97 499.96 98.92 489.54 100.17 488.17 97.63"/><polygon class="cls-22" points="468.38 126.5 477.88 124.88 488.88 131.5 475.94 137.13 468.38 126.5"/><polygon class="cls-23" points="469.5 126.19 476.44 135.25 489.13 131.5 477.88 124.88 469.5 126.19"/><polygon class="cls-22" points="485 131.06 477.53 133.19 477 132.59 484.56 130.69 485 131.06"/><polygon class="cls-22" points="483.22 129.47 475.75 131.59 475.22 131 482.78 129.09 483.22 129.47"/><polygon class="cls-22" points="481.66 128.09 474.19 130.22 473.66 129.63 481.22 127.72 481.66 128.09"/><polygon class="cls-22" points="480 126.75 472.53 128.88 472 128.28 479.56 126.38 480 126.75"/><polygon class="cls-17" points="477.54 104.83 483.38 104.42 482.96 103.58 477.25 104.17 477.54 104.83"/><polygon class="cls-22" points="481.67 100.17 473.75 101.54 472.88 101.04 480.79 99.75 481.67 100.17"/><polygon class="cls-22" points="478.83 98.79 472.33 100.42 471.5 100.08 477.92 98.38 478.83 98.79"/><polygon class="cls-17" points="491.79 103.96 498 104 498 103.33 491.63 103.38 491.79 103.96"/><polygon class="cls-17" points="491.54 102.13 498.21 102.17 498.21 101.33 491.29 101.29 491.54 102.13"/></g><g id="cat"><polygon class="cls-3" points="810 327.21 741.55 305.97 723.38 310.57 678.83 315.67 646.33 306 605.5 322 654.5 333.83 677.86 323.76 738.7 342.75 810 327.21"/><polygon class="cls-53" points="652.25 303.33 671.17 304.25 675.08 316.67 652.5 328 644.17 309.25 652.25 303.33"/><polygon class="cls-26" points="641.75 307 623.75 307.58 621 320.5 652.5 328 649.17 311.92 641.75 307"/><polygon class="cls-34" points="699.8 277.33 698.63 272.75 681.34 265.25 683.68 281.38 701.52 290.3 699.8 277.33"/><polygon class="cls-54" points="699.8 285.05 697.98 277.17 685.58 271.38 691.11 288 699.8 285.05"/><polygon class="cls-34" points="719.84 318.23 715.89 323.44 702.35 323.69 706.06 313.82 719.84 318.23"/><polygon class="cls-27" points="704.07 311.87 715.89 323.44 729.88 324.9 737.77 312.93 710.42 307.1 704.07 311.87"/><polygon class="cls-15" points="713 311.9 713.42 313.81 734.96 313.24 754.07 291.3 720.82 295.05 713 311.9"/><polygon class="cls-16" points="740.31 328.34 729.88 324.9 720.6 335.46 739.04 333 740.31 328.34"/><polygon class="cls-34" points="748.61 323.54 729.88 324.9 739.04 333 767.04 336 767.91 326.45 748.61 323.54"/><polygon class="cls-16" points="778.11 320.99 763.61 328.75 729.88 324.9 733.48 316.42 744.6 292.61 764.89 287.93 783.75 313.7 778.11 320.99"/><polygon class="cls-15" points="780.52 308.02 763.61 328.75 767.04 336 789.42 323.66 780.52 308.02"/><polygon class="cls-27" points="769.08 282.97 785.1 285.26 789.42 323.66 761.58 298.61 769.08 282.97"/><polygon class="cls-30" points="736.78 283.99 744.6 292.61 761.58 298.61 785.1 285.26 754.58 269.02 736.78 283.99"/><polygon class="cls-16" points="723.17 280.33 726.32 275.34 754.58 269.02 744.6 292.61 722.56 306.48 716.14 292.38 723.17 280.33"/><polygon class="cls-55" points="694.24 309.91 697.48 313.93 715.02 314.3 717.65 310.32 704.75 300.21 694.24 309.91"/><polygon class="cls-30" points="721.5 288.13 723.87 280.78 732.97 281.76 722.56 306.48 715.27 306.75 708.46 298.14 721.5 288.13"/><polygon class="cls-30" points="697.62 293.42 695.96 284.72 683.62 281.11 689.23 305.64 692.42 304.96 704.22 299.21 697.62 293.42"/><polygon class="cls-48" points="700.48 303.78 705.9 308 715.02 314.3 722.56 306.55 712.29 299.21 700.48 303.78"/><polygon class="cls-2" points="705.63 301.21 700.65 298.57 689.23 305.64 697.48 313.93 705.9 308 706.25 304.39 705.63 301.21"/><polygon class="cls-54" points="705.72 296.53 700.65 298.57 706.25 304.39 712.29 299.21 705.72 296.53"/><polygon class="cls-34" points="715.94 277.26 718.28 273.4 736.51 266.42 731.96 284.06 715.94 277.26"/><polygon class="cls-54" points="718.76 277.19 731.26 272.4 725.33 285.73 718.76 277.19"/><polygon class="cls-16" points="698.63 272.75 683.62 281.11 700.65 298.57 712.29 299.21 731.96 284.06 718.28 273.4 708.46 279.37 698.63 272.75"/><rect class="cls-56" x="713.32" y="290.2" width="6.04" height="1.22"/><rect class="cls-56" x="695.62" y="289.71" width="6.04" height="1.22"/><polygon class="cls-27" points="698.63 272.75 707.97 285.98 718.28 273.4 698.63 272.75"/><polygon class="cls-35" points="623.75 307.58 649.17 311.92 671.17 304.25 644.38 299.71 623.75 307.58"/><polygon class="cls-13" points="645.38 302.21 632.88 306.88 648.25 309.75 662.04 304.88 645.38 302.21"/><polygon class="cls-27" points="646.06 306.75 644.44 307.06 644.03 308.94 646.69 309.5 646.56 308.66 646.06 306.75"/><polygon class="cls-30" points="645.94 305.75 644.44 307.06 646.56 308.66 648.28 307.22 645.94 305.75"/><polygon class="cls-16" points="648.28 307.22 648.25 309.75 646.69 309.5 646.56 308.66 648.28 307.22"/><polygon class="cls-30" points="650.42 304.79 648.5 306.33 651.54 306.75 654.04 305.21 650.42 304.79"/><polygon class="cls-27" points="648.5 306.33 648.28 307.22 648.25 309.75 651.96 308.42 651.54 306.75 648.5 306.33"/><polygon class="cls-16" points="655.21 307.38 654.04 305.21 651.54 306.75 651.96 308.42 655.21 307.38"/></g><polygon class="cls-6" points="176.5 253 239 272.5 133.5 288.5 84.5 275 176.5 253"/><polygon class="cls-35" points="194.58 270.5 199.42 266.33 170.92 258.58 177.25 270.5 194.58 270.5"/><polygon class="cls-26" points="167.75 265.5 176.33 276.42 199 271.25 199.42 266.33 182.33 270.08 167.75 265.5"/><polygon class="cls-13" points="158.75 261.25 153.75 264.5 153.83 268.92 176.33 276.42 175.75 272 158.75 261.25"/><polygon class="cls-53" points="165.75 241 180 243 182.33 270.08 175.75 272 165.75 241"/><polygon class="cls-35" points="154.5 249.25 144.75 237.5 151.5 233.75 180 243 173.75 246.5 154.5 249.25"/><polygon class="cls-26" points="144.75 237.5 153.75 264.5 175.75 272 173.75 246.5 144.75 237.5"/><polygon class="cls-2" points="127.81 268.17 122.06 272.85 133.25 278.79 153.33 276.17 154.75 271.04 127.81 268.17"/><polygon class="cls-15" points="125.75 266.54 111.88 267.67 112.63 272.85 133.25 278.79 132.5 275.04 125.75 266.54"/><polygon class="cls-16" points="111.88 267.67 132.5 275.04 154.75 271.04 132.75 261.67 111.88 267.67"/><polygon class="cls-15" points="145.81 269.73 132.19 272.35 126.69 270.79 141.13 267.85 145.81 269.73"/></svg>