<svg id="ILLUSTRATION" xmlns="http://www.w3.org/2000/svg" viewBox="0 0 900 350"><defs><style>.cls-1,.cls-28{fill:#c3c3c3;}.cls-1,.cls-10,.cls-11,.cls-12,.cls-13,.cls-14,.cls-15,.cls-16,.cls-17,.cls-18,.cls-19,.cls-2,.cls-20,.cls-21,.cls-22,.cls-23,.cls-24,.cls-25,.cls-26,.cls-27,.cls-3,.cls-30,.cls-31,.cls-39,.cls-4,.cls-5,.cls-6,.cls-7,.cls-8,.cls-9{fill-rule:evenodd;}.cls-2{fill:#dcdcdb;}.cls-3{fill:#cecdcc;}.cls-4{fill:#ebebea;}.cls-5{fill:#9b9fa0;}.cls-6{fill:#3a9fb9;}.cls-7{fill:#5ebfd8;}.cls-8{fill:#318ea5;}.cls-9{fill:#74cee4;}.cls-10{fill:#010101;opacity:0.1;}.cls-11{fill:#c2977a;}.cls-12{fill:#28788b;}.cls-13{fill:#8a6651;}.cls-14{fill:#50a8a9;}.cls-15,.cls-40{fill:#72cbcb;}.cls-16{fill:#369395;}.cls-17,.cls-41{fill:#fff;}.cls-18,.cls-36{fill:#4f5353;}.cls-19{fill:#92d5d5;}.cls-20{fill:#debca4;}.cls-21{fill:#e8c9b6;}.cls-22,.cls-29{fill:#2b2b2b;}.cls-23,.cls-37{fill:#6f7273;}.cls-24{fill:#1d7678;}.cls-25{fill:#848585;}.cls-26{fill:#8e8e8e;}.cls-27{fill:#a2a1a1;}.cls-30,.cls-35{fill:#be9b82;}.cls-31,.cls-34{fill:#a67e62;}.cls-32{fill:#474748;}.cls-33{fill:#825941;}.cls-38{fill:#c8ac9a;}.cls-39{fill:#185e60;}</style></defs><title>sentinels_Defender_ISFJ_romantic_relationships</title><polygon class="cls-1" points="424.5 39.5 364.5 14.5 2.5 0.5 15.5 313.5 358.5 272 424.5 39.5"/><polygon class="cls-1" points="701.83 18.17 899.58 11.75 888.5 348.83 700.83 298.17 560.59 228.59 701.83 18.17"/><polygon class="cls-2" points="363.5 51.17 363.25 14.5 701.83 18.17 700.83 298.17 364 272.5 369.17 71.5 363.5 51.17"/><polygon class="cls-3" points="624.17 278.17 700.92 272.24 700.83 298.17 617.83 316.17 600.5 279.17 624.17 278.17"/><polygon class="cls-1" points="532.83 272.17 439.33 278.21 442.5 305.5 617.83 316.17 618.67 287.75 532.83 272.17"/><polygon class="cls-4" points="538.83 266.17 439.33 278.21 618.67 287.75 700.92 272.24 538.83 266.17"/><polygon class="cls-4" points="129.5 11.5 28.5 57 14.5 134 99 196 237 179 285 110 250.5 33 129.5 11.5"/><polygon class="cls-4" points="277 137.25 271.75 148.25 277 154.25 286.75 154 291.25 144.25 287 137 277 137.25"/><polygon class="cls-4" points="303.75 143.75 300.75 149.75 304.25 153.75 308.75 152 311.75 147.25 309.5 141.5 303.75 143.75"/><polygon class="cls-4" points="322.75 137 320.25 140.25 324.25 143.5 328 140.75 328 137.75 326.5 136.75 322.75 137"/><polygon class="cls-1" points="767.17 70.5 856.5 73.17 853.83 240.83 739.17 216.5 741.83 76.17 767.17 70.5"/><polygon class="cls-3" points="761.5 96.67 791.33 92 768.17 110 743 113.67 744 92.83 761.5 96.67"/><polygon class="cls-2" points="738.83 88.83 763.17 93.5 791.33 92 763.83 101.33 742.5 99.83 738.83 88.83"/><polygon class="cls-3" points="829 106 796.33 109.17 821 113.5 849.17 131.33 851.83 103.17 829 106"/><polygon class="cls-2" points="855.33 107 835 101.67 816.5 102.17 796.33 109.17 828.5 111.33 849 119.67 855.33 107"/><polygon class="cls-2" points="776.5 140.92 797.92 123.08 742 120.42 749 152.42 776.5 140.92"/><polygon class="cls-3" points="766.25 137.92 769.5 123.5 797.92 123.08 795.25 194.67 764.25 208.42 766.25 137.92"/><polygon class="cls-2" points="755.75 204.17 767.5 196.17 797.75 194.17 794.75 208.67 755.75 204.17"/><polygon class="cls-2" points="783 172.67 776.17 163.17 814.25 162.17 810.25 179.17 783 172.67"/><polygon class="cls-2" points="815.5 162.67 803.83 145.17 833 143.42 848.25 144.92 815.5 162.67"/><polygon class="cls-3" points="814.75 167.42 827.5 146.5 853.25 146.17 848 195.42 817 195.92 814.75 167.42"/><polygon class="cls-2" points="818.25 185.67 827.5 183.5 854.75 182.17 854.25 205.92 818.25 185.67"/><polygon class="cls-5" points="740.5 122.17 769.5 123.5 767.5 196.17 775.83 197.5 776.17 163.17 803.17 165.5 803.83 145.17 827.5 146.5 827.5 183.5 846.83 186.5 847.5 237.5 737.5 217.83 740.5 122.17"/><path class="cls-6" d="M731.83,62.17,730,226l131.83,26.5,1.67-194ZM841.5,224.5l-94.33-14.33L748.5,81.5l94.67-.67Z"/><polygon class="cls-3" points="807.01 150.21 806.92 155.03 812.48 155.72 812.71 150.67 807.01 150.21"/><polygon class="cls-3" points="817.05 151.08 816.96 155.91 822.52 156.6 822.75 151.54 817.05 151.08"/><polygon class="cls-3" points="749.18 132.55 749.14 137.37 754.71 138 754.88 132.94 749.18 132.55"/><polygon class="cls-3" points="759.23 133.47 759.2 138.3 764.76 138.93 764.94 133.87 759.23 133.47"/><polygon class="cls-3" points="806.18 166.55 806.14 171.37 811.71 172 811.88 166.94 806.18 166.55"/><polygon class="cls-3" points="816.23 167.47 816.2 172.3 821.76 172.93 821.94 167.87 816.23 167.47"/><polygon class="cls-3" points="748.43 150.97 748.39 155.79 753.96 156.41 754.13 151.36 748.43 150.97"/><polygon class="cls-3" points="758.48 151.89 758.45 156.71 764.01 157.34 764.19 152.28 758.48 151.89"/><polygon class="cls-3" points="747.76 168.22 747.73 173.04 753.29 173.66 753.47 168.61 747.76 168.22"/><polygon class="cls-3" points="757.81 169.14 757.78 173.96 763.35 174.59 763.52 169.53 757.81 169.14"/><polygon class="cls-3" points="747.76 187.05 747.73 191.87 753.25 192.79 753.44 187.79 747.76 187.05"/><polygon class="cls-3" points="757.81 188.72 757.75 193.42 763.35 194.18 763.5 189.42 757.81 188.72"/><polygon class="cls-3" points="805.83 182.29 805.63 187.13 811.27 188.12 811.5 183.06 805.83 182.29"/><polygon class="cls-3" points="780.17 170.13 779.96 174.96 785.5 175.75 785.83 170.9 780.17 170.13"/><polygon class="cls-3" points="791.67 180.13 791.46 184.96 797 185.75 797.33 180.9 791.67 180.13"/><polygon class="cls-3" points="780.5 192.13 780.29 196.96 785.83 197.75 786.17 192.9 780.5 192.13"/><polygon class="cls-3" points="815.92 183.71 815.67 188.54 821.39 189.58 821.63 184.52 815.92 183.71"/><polygon class="cls-3" points="805.29 197.71 805.08 202.54 810.73 203.53 810.96 198.48 805.29 197.71"/><polygon class="cls-3" points="815.46 199.21 815.25 203.92 820.85 204.99 821.08 199.94 815.46 199.21"/><g id="flag"><polygon class="cls-7" points="700.85 25.56 701.75 26.63 681.74 54.25 663.02 24.13 689.23 21.63 700.85 25.56"/><polygon class="cls-6" points="663.92 24.94 664.83 26 644.82 53.63 626.1 23.5 652.3 21 663.92 24.94"/><polygon class="cls-7" points="627 25.06 627.9 26.13 607.89 53.75 589.17 23.63 615.38 21.13 627 25.06"/><polygon class="cls-6" points="590.08 24.44 590.98 25.5 570.97 53.13 552.25 23 578.46 20.5 590.08 24.44"/><polygon class="cls-7" points="553.03 24.02 553.93 25.08 533.92 52.71 515.2 22.58 541.41 20.08 553.03 24.02"/><polygon class="cls-6" points="516.1 23.4 517.01 24.46 497 52.08 478.28 21.96 504.49 19.46 516.1 23.4"/><polygon class="cls-7" points="479.18 23.52 480.08 24.58 460.07 52.21 441.36 22.08 467.56 19.58 479.18 23.52"/><polygon class="cls-6" points="442.26 22.9 443.16 23.96 423.15 51.58 404.43 21.46 430.64 18.96 442.26 22.9"/><polygon class="cls-7" points="405.34 23.27 406.24 24.33 382.36 52 363.33 25.54 363.17 23.67 393.72 19.33 405.34 23.27"/><polygon class="cls-8" points="722.7 17.58 739.17 21.92 720 54.25 701.75 26.63 722.7 17.58"/><polygon class="cls-6" points="758.13 13.88 778.25 18.17 757.49 55.67 737.18 22.92 758.13 13.88"/><polygon class="cls-8" points="797.2 11.75 817.32 16.04 798 53.92 776.25 20.79 797.2 11.75"/><polygon class="cls-6" points="836.13 10.13 857.83 14.92 837 51.92 814.67 17.42 836.13 10.13"/><polygon class="cls-8" points="877.88 8.83 899.58 11.75 877.24 50.63 853.63 13.25 877.88 8.83"/><polygon class="cls-7" points="900 0.08 701.67 18.25 701.63 26.58 899.58 11.75 900 0.08"/><polygon class="cls-9" points="701.75 26.63 363.17 23.67 363.25 14.42 701.67 18.25 701.75 26.63"/></g><polygon class="cls-10" points="294.64 314.85 364.77 303.59 423.44 314.15 369.48 320.51 294.64 314.85"/><polygon class="cls-11" points="364.75 277.18 376 295.73 382.15 296.92 385.02 294.2 383.63 279.16 364.75 277.18"/><polygon class="cls-11" points="353.73 276.09 351.79 296.93 344 299.5 342.26 295.99 335.28 274.19 353.73 276.09"/><polygon class="cls-12" points="385.02 294.2 393.55 302.07 385.35 311.18 375.37 309.8 376 295.73 385.02 294.2"/><polygon class="cls-12" points="351.79 296.93 357.62 312.37 347.36 313.91 337.2 312.37 342.26 295.99 351.79 296.93"/><polygon class="cls-13" points="383.63 279.16 368.39 283.18 364.75 277.18 374.19 276.28 383.63 279.16"/><polygon class="cls-13" points="335.28 274.19 353.23 281.44 353.73 276.09 344.9 274.19 335.28 274.19"/><polygon class="cls-14" points="369.3 147.69 376.86 151.09 394.88 177.75 395.37 189.61 379.67 192.5 369.3 170.44 369.3 147.69"/><polygon class="cls-15" points="369.3 147.69 360.84 169.29 348.94 174.38 361.1 165.26 345.27 145.91 329.79 153.76 335.04 183.09 328.38 203.05 318.95 223.47 342.65 223.47 369.3 218.71 373.75 212 372.88 207.31 383.63 179.63 369.3 147.69"/><polygon class="cls-16" points="325.83 182.5 328.38 203.05 373.75 212 383.63 179.63 325.83 182.5"/><polygon class="cls-16" points="369.3 218.71 355.5 243.61 332.38 265.33 318.95 223.47 369.3 218.71"/><polygon class="cls-14" points="369.3 218.71 375.25 228.7 381.77 260.32 381.77 276.28 335.28 274.19 332.38 265.33 369.3 218.71"/><polygon class="cls-16" points="335.28 274.19 381.77 260.32 383.63 279.16 335.28 274.19"/><polygon class="cls-16" points="369.3 218.71 381.77 260.32 373.75 212 369.3 218.71"/><polygon class="cls-17" points="369.3 147.69 342.65 147.06 342.65 177.88 360.84 169.29 381 173.76 369.3 147.69"/><polygon class="cls-18" points="396.7 68.47 412.98 78.84 400.17 96.19 396.7 82.33 396.7 68.47"/><polygon class="cls-15" points="322.95 68.47 316.51 63.53 308.74 49.81 363.31 25.5 368.08 40.01 368.82 51.28 344.65 64.27 322.95 68.47"/><polygon class="cls-19" points="363.31 25.5 401.14 41.27 396.7 68.47 380.53 61.62 368.82 51.28 363.31 25.5"/><polygon class="cls-16" points="308.74 49.81 312.08 82.33 319.61 75.86 322.95 68.47 308.74 49.81"/><polygon class="cls-12" points="364.43 30.73 362.25 31.62 363.42 37.86 358.19 39.96 358.98 44.09 364.41 42.03 365.65 47.75 367.9 46.98 368.08 40.01 364.43 30.73"/><polygon class="cls-8" points="364.43 30.73 367 32 368.24 37.32 373.57 39.88 373.5 43.59 369.13 41.65 370.34 47.77 367.9 46.98 364.43 30.73"/><polygon class="cls-20" points="396.7 68.47 404.79 133.23 372.8 138.37 360.84 169.29 335.2 133.28 317.24 116 329.55 109.23 332.71 112.79 344.47 83.6 355.03 77.25 368.08 71.45 396.7 68.47"/><polygon class="cls-11" points="344.47 83.6 352.4 142.14 372.8 138.37 366.38 144.47 368.08 150.57 360.84 169.29 329.33 130.66 327.06 125.63 323.77 123.84 313.88 111.71 326.19 101.3 331.85 114.08 336.04 102.03 344.47 83.6"/><polygon class="cls-11" points="391.34 85.38 379.53 101.66 373.84 109.25 356.81 90.92 391.34 85.38"/><polygon class="cls-21" points="370.84 88.62 373.84 109.25 380.53 108.33 377.41 87.54 370.84 88.62"/><polygon class="cls-13" points="380.53 108.33 377.62 112.79 373.84 109.25 380.53 108.33"/><polygon class="cls-13" points="372.8 138.37 368.08 150.57 346.3 142.2 372.8 138.37"/><polygon class="cls-13" points="331.67 118.88 329.33 130.66 323.77 123.84 331.67 118.88"/><polygon class="cls-13" points="329.09 116.89 324.75 109.39 318.95 112.79 329.09 116.89"/><polygon class="cls-18" points="366.38 77.25 370.18 64.27 368.82 51.28 322.95 68.47 301.16 96.04 323.19 90.92 344.47 83.6 353.99 80.84 366.38 77.25"/><polygon class="cls-22" points="344.47 83.6 332.58 115.56 326.19 104.94 313.88 111.71 301.16 96.04 344.47 83.6"/><polygon class="cls-23" points="368.82 51.28 396.7 68.47 366.38 77.25 368.82 51.28"/><polygon class="cls-18" points="370.84 88.62 370.15 84.06 356.81 90.92 370.84 88.62"/><polygon class="cls-18" points="377.41 87.54 391.34 85.38 376.9 83.13 377.41 87.54"/><polygon class="cls-24" points="371.53 121.48 378.36 117.22 385.84 119.2 379.16 123.18 371.53 121.48"/><polygon class="cls-6" points="351.24 306.41 343.68 306.41 337.2 312.37 337.2 314.8 357.62 314.8 357.62 312.37 351.24 306.41"/><polygon class="cls-6" points="393.55 302.07 382.56 309.8 375.37 309.8 375.37 312.14 404.55 312.14 404.55 306.84 393.55 302.07"/><polygon class="cls-14" points="365.77 120.75 379.92 126.76 390.59 116.89 379.16 122.44 365.77 120.75"/><path class="cls-22" d="M370.28,98.88a3.16,3.16,0,1,1-3.15-3.15A3.15,3.15,0,0,1,370.28,98.88Z"/><path class="cls-22" d="M389.93,95.73a3.16,3.16,0,1,1-3.15-3.16A3.15,3.15,0,0,1,389.93,95.73Z"/><polygon class="cls-14" points="329.79 153.76 325.83 182.5 363.25 192.88 366.75 187.38 366.17 169.83 329.79 153.76"/><polygon class="cls-11" points="395.13 159.75 366.17 169.83 363.25 192.88 396.75 171 403 163.33 395.13 159.75"/><polygon class="cls-11" points="413.67 179.33 394.88 177.75 379.67 192.5 412.67 188.83 413.67 179.33"/><polygon class="cls-9" points="418 178.38 419.63 180.5 434.75 180.38 431 185.88 409.5 187.38 412.13 176.75 418 178.38"/><polygon class="cls-7" points="421.5 170.38 419.75 172.25 419.63 180.5 414.83 184.38 413.63 168.63 421.5 170.38"/><polygon class="cls-9" points="418.38 160.88 419.75 163.13 431 162.88 426.63 168 412.13 167.88 418.38 160.88"/><polygon class="cls-7" points="420.38 154.63 419.75 163.13 415.67 164.96 414.13 158.63 420.38 154.63"/><polygon class="cls-7" points="443.75 175.75 448 177.75 441.25 188.5 432.25 190.88 435.75 175 443.75 175.75"/><polygon class="cls-9" points="438 166.38 439.38 167.88 448 177.75 442.5 178.38 428 168.25 434.88 164.88 438 166.38"/><polygon class="cls-7" points="441.5 155.38 448.5 157.88 439.38 167.88 432.75 167.88 435.13 155.88 441.5 155.38"/><polygon class="cls-9" points="424.75 151.5 427.75 146.38 438.63 147 448.5 157.88 441.5 159.13 424.75 151.5"/><path class="cls-6" d="M432.75,167.88l8.75-8.76-13.75-12.74-20.5,5.33L406.5,191l25.75-.08,10.25-12.5Zm-16.58-9.26,10.08-2.74,2.42,2.33-4.59,7-8.41-.25Zm10.66,25.76h-12l.84-11.26,9.66-.5,5.92,5.34Z"/><polygon class="cls-11" points="401.67 162.67 407.33 151.67 419.83 152.42 418.83 163.33 411.58 167.25 401.67 162.67"/><polygon class="cls-20" points="407.33 151.67 395.13 159.75 396.75 171 411.58 167.25 407.33 151.67"/><g id="text"><polygon class="cls-7" points="426.55 102.29 433.38 110.97 438.29 109.02 439.15 93.14 428.97 92.62 426.55 102.29"/><polygon class="cls-7" points="456.59 78.46 462.19 73.81 466.77 75.7 464.53 109.19 458.92 111.09 456.59 78.46"/><polygon class="cls-9" points="436.22 80.53 438.81 85.02 454.34 85.54 453.48 84.85 452.96 93.14 428.62 91.76 429.66 83.99 436.22 80.53"/><polygon class="cls-7" points="427.76 78.81 433.75 73.16 438.98 74.84 438.81 85.02 433.75 86.57 427.76 78.81"/><polygon class="cls-6" points="420.34 73.49 423.61 111.09 433.38 110.97 433.75 96.05 447.15 96.38 446.82 111.09 458.92 111.09 462.19 73.81 449.07 73.08 447.97 88.16 433.75 86.57 433.75 73.16 420.34 73.49"/><polygon class="cls-9" points="551.89 97.37 549.56 102.72 550.51 111.44 541.69 113.51 538.42 98.32 551.89 97.37"/><polygon class="cls-7" points="540.28 76.84 566.74 90.63 549.56 102.72 542.61 101.12 540.28 76.84"/><polygon class="cls-9" points="544.64 76.65 550.25 71.99 559.23 74.49 566.74 90.63 560.96 89.87 544.64 76.65"/><path class="cls-6" d="M550.25,72l-23.14,3.88,2.76,37.46,11.82.18.92-12.39L561,89.87ZM542.78,88.6l.54-7.1L547,84.78Z"/><polygon class="cls-9" points="592.27 98.66 592.46 101.64 593.5 113.62 585.47 115.23 582.17 98.92 592.27 98.66"/><polygon class="cls-7" points="602.3 86.36 606.32 89.34 592.46 101.64 584.45 101.32 579.38 79.3 602.3 86.36"/><polygon class="cls-9" points="587.61 78.92 590.54 73.12 599.39 75.09 606.32 89.34 601.83 88.62 587.61 78.92"/><path class="cls-6" d="M590.54,73.12l-20.38.74,2.58,40.66,12.73.72-1-13.92,17.38-12.7Zm-6.94,15.7,0-7.11,3.89,3Z"/><polygon class="cls-7" points="647.82 79.37 651.31 82.09 634.67 96.94 625.35 99.18 632.99 86.36 647.82 79.37"/><polygon class="cls-9" points="613.44 81.7 614.47 73.28 624.18 76.52 632.08 84.16 639.16 73.28 645.81 74.25 651.31 82.09 646.24 81.74 626.84 92.45 630.53 95.21 634.67 96.94 636.94 114.78 631.74 115.93 617.78 85.71 613.44 81.7"/><polygon class="cls-6" points="605.67 78.81 619.83 94.52 619.22 116.01 631.74 115.93 630.53 95.21 646.24 81.74 639.16 73.28 625.35 86.4 614.47 73.28 605.67 78.81"/><path class="cls-7" d="M480.33,106.17l3.62,6.09,4.28-.91L497.68,87s-4.79-7.64-5.18-7.38S480.33,106.17,480.33,106.17Z"/><path class="cls-9" d="M498.16,93.19l-7.6.87,8.25,3.08A45.9,45.9,0,0,0,502.47,94C502.21,94,498.16,93.19,498.16,93.19Z"/><polygon class="cls-7" points="497.33 81.22 502.34 72.59 509.07 75.87 521.12 112.26 517.01 112.82 497.33 81.22"/><path class="cls-6" d="M502.34,72.59l-18.13,3-14,36.78,13.72-.13,4.28-10.94,11,.71,4.28,11,13.51-.21ZM490.56,94.06l2.91-8.22,4,8.55Z"/></g><polygon class="cls-10" points="740.83 300.17 767.5 339.75 858.5 340.83 852.83 286.83 844.5 265.5 740.83 300.17"/><polygon class="cls-25" points="729.83 298.83 767.5 339.75 844.5 336.5 844.5 265.5 724.5 261.5 729.83 298.83"/><polygon class="cls-26" points="741.17 253.5 677.83 246.83 674.5 313.5 767.5 339.75 769.33 269.83 741.17 253.5"/><polygon class="cls-27" points="677.83 246.83 750.5 243 844.5 265.5 769.25 270.83 677.83 246.83"/><polygon class="cls-2" points="687.25 261 685.25 308.25 754.25 327.5 757 277.75 687.25 261"/><polygon class="cls-26" points="716.75 264 713.75 320.25 719.25 322 722.5 264.25 716.75 264"/><ellipse class="cls-28" cx="709.44" cy="291.81" rx="2.81" ry="3.56"/><ellipse class="cls-28" cx="725.94" cy="295.31" rx="2.81" ry="3.56"/><polygon class="cls-10" points="152.5 290.17 263.83 280.83 295.17 303.5 309.83 305.5 139.83 344.83 15.5 313.5 18.5 250.83 26.75 235.08 152.5 290.17"/><polyline class="cls-6" points="283.25 285.38 276.83 306.5 263.25 304.88 250.17 277.17 279.5 276.75 283 284.88"/><polygon class="cls-8" points="45.13 309.25 49.45 317.04 64.25 316.25 74.25 293.5 44.63 297.88 45.13 309.25"/><polygon class="cls-7" points="103.5 296.33 127.5 330.5 141.75 329 153 303.5 274 286.75 276.83 306.5 295.17 303.5 300 247 83.5 264.5 103.5 296.33"/><polygon class="cls-6" points="35.25 257.75 40.75 315.75 49.45 317.04 54 307.75 107.75 316.75 111 327.75 127.5 330.5 131.83 279.5 35.25 257.75"/><polygon class="cls-27" points="140.5 262.83 131.83 279.5 26.75 266.42 26.75 235.08 137.17 235.5 140.5 262.83"/><polygon class="cls-1" points="135.83 238.17 133.17 252.83 131.83 279.5 308.17 259.83 307.5 235.5 135.83 238.17"/><polygon class="cls-4" points="26.75 235.08 196 219 307.5 235.5 133.17 250.83 26.75 235.08"/><g id="toolbox"><polygon class="cls-10" points="570 248 594 279.88 631.13 276.25 649.5 270 650 221 584 218 570 248"/><polygon class="cls-16" points="559.75 242 527.67 208.83 579.5 202.5 635.5 207.75 559.75 242"/><polygon class="cls-6" points="605.25 194.88 614.63 191.25 616.38 200 597.5 232.63 584.13 227.25 605.25 194.88"/><polygon class="cls-7" points="603.25 186.63 572.75 240.25 587.63 245.63 597.33 221.17 614.63 191.25 603.25 186.63"/><polygon class="cls-6" points="558 217.5 578.75 209.75 583 226 558 217.5"/><polygon class="cls-15" points="574.5 222.5 597.33 221.17 635.5 207.75 627.83 273.83 594 279.88 574.5 222.5"/><polygon class="cls-14" points="540.25 274.5 527.67 208.83 597.33 221.17 594 279.88 540.25 274.5"/><polygon class="cls-9" points="539.25 229.25 559.5 206 578.75 209.75 553.75 238.75 553.75 223.75 539.25 229.25"/></g><g id="scene_in_chat_bubble" data-name="scene in chat bubble"><polygon class="cls-14" points="204.55 139.3 199.19 141.71 181.27 168.16 194.38 161.95 204.55 155.43 204.55 139.3"/><polygon class="cls-15" points="196.92 158.06 210.55 154.62 218.99 158.23 210.37 151.76 221.59 138.03 232.58 143.6 228.85 164.41 231.71 177.59 214.75 172.87 205.38 176.49 194.12 164.56 196.92 158.06"/><polygon class="cls-16" points="233.34 165.69 233.63 179.44 199.5 183.75 194.12 164.56 233.34 165.69"/><polygon class="cls-17" points="204.55 139.3 223.45 138.85 223.45 160.72 210.55 154.62 196.92 158.06 204.55 139.3"/><polygon class="cls-18" points="185.1 83.09 173.56 90.45 182.65 102.76 185.1 92.92 185.1 83.09"/><polygon class="cls-15" points="237.43 83.09 242 79.59 247.51 69.86 208.8 52.61 205.41 62.9 204.89 70.9 222.03 80.11 237.43 83.09"/><polygon class="cls-19" points="208.8 52.61 181.96 63.8 185.1 83.09 196.58 78.24 204.89 70.9 208.8 52.61"/><polygon class="cls-16" points="247.51 69.86 245.14 92.92 239.8 88.34 237.43 83.09 247.51 69.86"/><polygon class="cls-12" points="208 56.32 209.55 56.95 208.72 61.38 212.43 62.87 211.87 65.8 208.01 64.34 207.13 68.39 205.54 67.85 205.41 62.9 208 56.32"/><polygon class="cls-8" points="208 56.32 206.18 57.22 205.3 60.99 201.52 62.81 201.57 65.44 204.66 64.06 203.81 68.41 205.54 67.85 208 56.32"/><polygon class="cls-20" points="185.1 83.09 179.37 129.03 202.07 132.68 210.55 154.62 228.74 129.07 241.48 116.81 232.75 112.01 230.5 114.54 222.16 93.83 214.67 89.32 205.41 85.2 185.1 83.09"/><polygon class="cls-11" points="222.16 93.83 216.53 135.36 202.07 132.68 206.61 137.01 205.41 141.34 210.55 154.62 232.91 127.21 234.51 123.65 236.85 122.37 243.86 113.77 235.13 106.38 231.12 115.45 228.14 106.9 222.16 93.83"/><polygon class="cls-11" points="188.91 95.09 197.29 106.64 201.33 112.03 213.41 99.02 188.91 95.09"/><polygon class="cls-21" points="203.46 97.39 201.33 112.03 196.58 111.37 198.79 96.62 203.46 97.39"/><polygon class="cls-13" points="196.58 111.37 198.65 114.54 201.33 112.03 196.58 111.37"/><polygon class="cls-13" points="202.07 132.68 205.41 141.34 220.86 135.4 202.07 132.68"/><polygon class="cls-13" points="231.24 118.86 232.9 127.21 236.85 122.38 231.24 118.86"/><polygon class="cls-13" points="233.07 117.45 236.15 112.12 240.27 114.54 233.07 117.45"/><polygon class="cls-18" points="206.61 89.32 203.92 80.11 204.89 70.9 237.43 83.09 252.89 102.66 237.26 99.02 222.16 93.83 215.41 91.87 206.61 89.32"/><polygon class="cls-22" points="222.16 93.83 230.59 116.5 235.13 108.97 243.86 113.77 252.89 102.66 222.16 93.83"/><polygon class="cls-2" points="153.51 166.05 137.09 162.59 172.37 158.43 199.95 163.69 176.84 168.43 153.51 166.05"/><polygon class="cls-3" points="159.03 166.31 174.29 167.02 199.95 163.69 200.08 168.31 173.94 170.44 159.03 166.31"/><polygon class="cls-1" points="138.33 166.01 137.09 162.59 174.29 167.02 173.94 170.44 138.33 166.01"/><polygon class="cls-7" points="155.3 159.87 140.83 152 171.92 148.34 196.22 152.97 177.46 162.24 155.3 159.87"/><polygon class="cls-6" points="160.16 160.1 173.61 155.91 196.22 152.97 195.94 162.99 173.3 165.59 160.16 160.1"/><polygon class="cls-8" points="142.5 161.97 140.83 152 173.61 155.91 173.3 165.59 142.5 161.97"/><polygon class="cls-7" points="163.55 150.71 153.32 145.4 174.46 143.19 185.65 146.47 166.44 150.32 163.55 150.71"/><polygon class="cls-6" points="167.11 150.94 170.96 147.89 185.65 146.47 186.39 153.09 170.96 154.67 167.11 150.94"/><polygon class="cls-8" points="153.66 152.07 153.32 145.4 170.96 147.89 170.96 154.67 153.66 152.07"/><polygon class="cls-2" points="168.36 138.28 166.94 133.83 171.13 133.3 173.56 134.33 168.36 138.28"/><polygon class="cls-1" points="166.94 133.83 166.27 145.23 169.95 145.82 171.65 138.91 170.38 134.42 166.94 133.83"/><polygon class="cls-3" points="173.56 134.33 173.9 145.36 169.95 145.82 170.38 134.42 173.56 134.33"/><polygon class="cls-7" points="170.25 133.83 168.05 128.78 170.8 123.4 171.61 127.55 173.13 127.21 172.46 130.65 170.25 133.83"/><polygon class="cls-23" points="204.89 70.9 185.1 83.09 206.61 89.32 204.89 70.9"/><polygon class="cls-18" points="203.46 97.39 203.94 94.15 213.41 99.02 203.46 97.39"/><polygon class="cls-18" points="198.79 96.62 188.91 95.09 199.16 93.5 198.79 96.62"/><circle class="cls-29" cx="207.33" cy="104.67" r="2.24"/><circle class="cls-29" cx="193.39" cy="102.43" r="2.24"/><polygon class="cls-14" points="232.58 143.6 238.62 167.81 218.38 176.72 211.73 171.36 212.94 165.09 232.58 143.6"/><polygon class="cls-11" points="191.18 168.03 212.94 165.09 218.38 176.72 189.87 174.55 189.19 171.6 191.18 168.03"/><polygon class="cls-20" points="191.18 168.03 184.21 164.57 183.35 167.69 185.56 169.5 173.3 170.46 189.87 174.55 191.18 168.03"/><polygon class="cls-17" points="200.16 119.1 191.51 117.91 191.85 119.24 197.04 124.31 205.57 120.26 200.16 119.1"/><polygon class="cls-24" points="207.05 120.18 198.12 117.68 190.27 117.56 191.33 118.58 191.87 118.41 197.41 120.11 204.38 120.49 205.04 120.51 207.05 120.18"/><polygon class="cls-14" points="207.05 120.18 196.88 126.7 190.27 117.56 191.87 118.41 197.26 123.04 204.38 120.49 207.05 120.18"/><polygon class="cls-30" points="162.41 108.64 165.32 109.05 173.33 99.8 166.03 90.54 155.08 98.1 162.41 108.64"/><polygon class="cls-31" points="151.6 102.49 155.08 98.1 165.32 109.05 158.27 116.47 148.37 116.16 151.6 102.49"/><polygon class="cls-30" points="146.38 115.75 148.25 109.92 148.03 102.78 153.04 95.51 155.08 98.1 153.18 102.93 154.76 109.11 150.73 116.65 146.38 115.75"/><polygon class="cls-30" points="30.97 104.3 28.05 104.72 22.17 92.5 31.67 85.17 38.25 93.73 30.97 104.3"/><polygon class="cls-31" points="41.75 98.1 38.25 93.73 28.05 104.72 35.63 113.78 45.04 111.76 41.75 98.1"/><polygon class="cls-30" points="47.03 111.34 45.13 105.52 45.32 98.39 40.28 91.13 38.25 93.73 40.18 98.55 38.61 104.74 42.67 112.26 47.03 111.34"/><polygon class="cls-32" points="130.31 62.91 137.19 68.43 128.75 82.92 130.31 62.91"/><polygon class="cls-33" points="115.1 113.02 111.34 120.9 101.47 129.45 84.86 114.76 91.07 108.3 93.16 107.39 103.24 110.54 109.11 110.54 115.1 113.02"/><polygon class="cls-34" points="84.8 120.14 95.98 130.28 101.46 128.87 86.94 113.8 91.11 112.76 103.24 110.54 92.02 110.68 91.98 68.82 86.27 70.91 81.7 89.89 78.86 100.19 84.8 120.14"/><polygon class="cls-33" points="78.86 100.19 84.07 92.99 81.94 90.8 77.28 93.67 78.86 100.19"/><polygon class="cls-32" points="90.17 70.21 82.91 88.81 81.46 84.93 77.96 84.93 74.86 83.25 72.33 71.82 77.01 68.86 86.62 68.86 90.17 70.21"/><polygon class="cls-35" points="82.09 83.23 84.07 92.99 77.28 93.67 74.86 83.25 82.09 83.23"/><polygon class="cls-33" points="80.19 85.22 80.78 89.71 77.16 85.22 80.19 85.22"/><polygon class="cls-36" points="127.11 48.51 137.19 68.43 132.26 70.24 129.47 70 123.25 61.22 125.73 53.27 127.11 48.51"/><polygon class="cls-37" points="105.17 60.48 114.83 73.67 125.96 60.71 127.11 48.51 98.79 45.83 98.32 49.45 105.17 60.48"/><polygon class="cls-32" points="109.33 74.67 115 64.67 98.79 45.83 77.81 55.18 82.79 63.17 92.88 70.25 101.67 65.46 109.33 74.67"/><polygon class="cls-36" points="99.26 66.38 89.58 64.67 77.81 55.18 72.33 71.82 89.66 70.67 93.28 71.03 99.26 66.38"/><polygon class="cls-35" points="129.62 113.54 91.11 112.76 89.67 64.58 115 64.67 125.96 60.71 132.26 70.24 129.62 113.54"/><polygon class="cls-34" points="113.69 80.54 116.89 79.16 117.06 76.08 124.64 75.11 127.21 75.29 125.83 77.5 131.19 79.31 122.67 82.42 118.87 88.56 131.04 91.21 119.21 91.25 116.75 92.67 113.69 80.54"/><polygon class="cls-34" points="109.71 78.99 109.47 92.79 107.08 91.58 90.38 90.58 107.47 88.56 104.71 82.75 93.29 78.29 98.72 76.52 97 73.92 102.15 72.9 109.5 75.64 109.71 78.99"/><polygon class="cls-33" points="113.54 95.9 116.84 92.68 113.22 91.76 109.47 92.79 113.54 95.9"/><polygon class="cls-38" points="116.89 79.16 109.71 78.99 109.47 92.79 116.84 92.68 116.89 79.16"/><path class="cls-29" d="M119.41,84.09a2.17,2.17,0,1,0,2.17-2.16A2.19,2.19,0,0,0,119.41,84.09Z"/><path class="cls-29" d="M102.28,83.57a2.17,2.17,0,1,0,2.17-2.17A2.19,2.19,0,0,0,102.28,83.57Z"/><polygon class="cls-24" points="137.25 123.96 119.22 124.75 116.91 145.33 121.92 147.33 144.58 136.65 145.26 121.39 137.25 123.96"/><polygon class="cls-4" points="111.34 120.9 103.06 160.14 98.45 128.6 101.46 128.87 103.66 129.59 111.34 120.9"/><polygon class="cls-17" points="103.06 160.14 101.46 128.87 91.46 128.23 84.8 120.14 103.06 160.14"/><polygon class="cls-39" points="117.49 179.75 110.37 193.41 98.67 195.92 87.92 187.75 80.56 176.49 103.83 170.14 117.49 179.75"/><polygon class="cls-24" points="121.74 181.43 117.49 172.75 113.05 184.09 98.67 195.92 113 194.42 122.67 193.17 121.74 181.43"/><polygon class="cls-3" points="111.34 120.9 101.46 128.87 108.47 134.49 111.34 120.9"/><polygon class="cls-4" points="92.17 136.16 101.46 128.87 84.84 120.12 92.17 136.16"/><polygon class="cls-15" points="119.22 124.75 111.34 120.9 103.06 160.14 113.97 154.48 121.92 147.33 119.22 124.75"/><polygon class="cls-15" points="75.25 121.88 68.5 137.67 72.75 145.38 88.77 157.7 103.06 160.14 84.8 120.14 75.25 121.88"/><polygon class="cls-24" points="87.92 187.75 104.22 174.37 106.91 168.02 103.06 160.14 87.49 158.98 73.67 166.33 73 176.92 87.92 187.75"/><polygon class="cls-24" points="72.75 145.38 73.67 166.33 103.31 165.2 103.06 160.14 72.75 145.38"/><polygon class="cls-24" points="48.83 135.17 72.75 145.38 75.25 121.88 57 120.5 48.88 128.93 48.83 135.17"/><polygon class="cls-16" points="121.16 170.65 121.92 147.33 103.06 160.14 103.31 165.2 121.16 170.65"/><polygon class="cls-16" points="121.74 181.43 121.32 166.17 103.31 165.2 104.22 174.37 113.05 184.09 121.74 181.43"/><polygon class="cls-40" points="148.22 109.97 137.71 123.86 144.58 136.65 158.27 116.47 148.22 109.97"/><polygon class="cls-32" points="109.89 71.99 96.71 71.83 97 73.92 109.5 75.64 109.89 71.99"/><polygon class="cls-32" points="117.1 72.3 117.06 76.08 127.21 75.29 127.13 73.38 117.1 72.3"/><polygon class="cls-33" points="101.49 98.39 106.83 107.63 118.5 107.25 122.62 98.94 101.49 98.39"/><polygon class="cls-41" points="105.67 100.07 119.13 100.54 118.17 102.71 106.79 102.5 105.67 100.07"/><polygon class="cls-15" points="45.13 105.52 57 120.5 48.83 135.17 35.63 113.78 45.13 105.52"/><polygon class="cls-16" points="89.83 75.38 109.5 76.08 109.71 78.99 93.5 78.5 93.83 87.46 109.5 87.75 109.46 90.58 90.29 90.54 89.83 75.38"/><polygon class="cls-16" points="117.06 76.08 134.19 77.13 133.31 91.38 116.81 90.25 116.81 87.88 130.81 88.38 131.19 79.31 116.89 79.16 117.06 76.08"/></g><polygon class="cls-10" points="710.92 249.17 732.42 256.58 757.83 252.92 735.17 246.5 710.92 249.17"/><polygon class="cls-24" points="726.75 194.13 727.44 198.38 730.19 208.59 729.69 213.88 731.69 221.63 736.88 220.31 735.5 218.75 727.88 192 726.75 194.13"/><polygon class="cls-14" points="724.19 186.25 715.25 194.63 727.44 198.38 730.17 188.21 724.19 186.25"/><polygon class="cls-15" points="717.5 177 715.29 194.5 730.17 188.21 717.5 177"/><polygon class="cls-12" points="742.41 194.58 739.71 198.17 732.38 217.88 733.25 220.98 738.42 222.38 739.44 206.88 740.92 198.86 742.41 194.58"/><polygon class="cls-14" points="741.61 192.19 732.55 194.41 738.32 201.1 744.59 196.7 741.61 192.19"/><polygon class="cls-15" points="740.62 183.55 732.63 194.35 744.59 196.7 740.62 183.55"/><polygon class="cls-16" points="751.94 212.06 739.44 206.88 735.17 219.5 741.38 222.38 745.44 219.25 751.94 212.06"/><polygon class="cls-16" points="721.19 212.31 730.19 208.59 733.63 222.25 725.5 218 719 212.63 721.19 212.31"/><polygon class="cls-1" points="728.67 223.67 735.17 219.5 745.44 219.25 749.5 227.17 731.5 237.17 728.67 223.67"/><polygon class="cls-2" points="728.17 232.5 727.67 231.99 720.67 224.83 725.5 218 735.17 219.5 733.83 227.67 728.17 232.5"/><polygon class="cls-16" points="731.5 237.17 733.83 252.83 741.33 252 749.5 227.17 733.83 227.67 731.5 237.17"/><polygon class="cls-14" points="727 251.33 720.67 224.83 733.83 227.67 733.83 252.83 727 251.33"/><polygon class="cls-14" points="716.94 205.03 713.88 223.94 730.19 208.59 716.94 205.03"/><polygon class="cls-14" points="754.75 202.38 755.69 220.75 739.44 206.88 754.75 202.38"/><g id="cake"><polygon class="cls-7" points="137.33 231.83 116 220.24 161.83 214.83 197.67 221.67 170 235.33 137.33 231.83"/><polygon class="cls-6" points="144.5 232.17 164.33 225.99 197.67 221.67 197.83 237.5 163.87 240.26 144.5 232.17"/><polygon class="cls-8" points="117.61 234.51 116 220.24 164.33 225.99 163.87 240.26 117.61 234.51"/><polygon class="cls-7" points="149.5 218.33 134.42 210.5 165.58 207.25 182.08 212.08 153.75 217.75 149.5 218.33"/><polygon class="cls-6" points="154.75 218.67 160.42 214.17 182.08 212.08 183.17 221.83 160.42 224.17 154.75 218.67"/><polygon class="cls-8" points="134.92 220.33 134.42 210.5 160.42 214.17 160.42 224.17 134.92 220.33"/><polygon class="cls-4" points="156.58 200 154.5 193.44 160.67 192.67 164.25 194.19 156.58 200"/><polygon class="cls-3" points="154.5 193.44 153.5 210.25 158.94 211.13 161.44 200.94 159.56 194.31 154.5 193.44"/><polygon class="cls-2" points="164.25 194.19 164.75 210.44 158.94 211.13 159.56 194.31 164.25 194.19"/><polygon class="cls-7" points="159.38 193.44 156.13 186 160.19 178.06 161.38 184.19 163.63 183.69 162.63 188.75 159.38 193.44"/></g></svg>