<svg id="Layer_1" data-name="Layer 1" xmlns="http://www.w3.org/2000/svg" viewBox="0 0 900 350"><defs><style>.cls-1{fill:#cececd;}.cls-2{fill:#27788c;}.cls-3{fill:#3aa0ba;}.cls-22,.cls-4{fill:#2b2b2b;}.cls-4{fill-opacity:0.1;}.cls-5{fill:#474747;}.cls-6{fill:#858686;}.cls-7{fill:#8f8f8f;}.cls-8{fill:#a3a3a3;}.cls-9{fill:#ececeb;}.cls-10{fill:#5ec0d9;}.cls-11{fill:#318fa6;}.cls-12{fill:#a77e62;}.cls-13{fill:#c09c84;}.cls-14{fill:#7f5d4e;}.cls-15{fill:#369496;}.cls-16{fill:#6f7173;}.cls-17{fill:#72cbcc;}.cls-18{fill:#8ce0dc;}.cls-19{fill:#dfbda5;}.cls-20{fill:#c3987b;}.cls-21{fill:#8b6651;}.cls-23{fill:#1c7678;}.cls-24{fill:#fff;}.cls-25{fill:#73cfe5;}.cls-26{fill:#593e35;}.cls-27{fill:#99796a;}.cls-28{fill:#aa8d80;}.cls-29{fill:#33231b;}.cls-30{fill:#50a9aa;}.cls-31{fill:#835940;}.cls-32{fill:#c9ad9b;}.cls-33{fill:#4f5253;}.cls-34{fill:#d0af96;}.cls-35{fill:#efd3c2;}.cls-36{fill:#a9846c;}.cls-37{fill:#f7e6dc;}.cls-38{fill:#e8cab6;}</style></defs><title>sentinels_Executive_ESTJ_weaknesses</title><g id="Layer_1-2" data-name="Layer_1"><polygon class="cls-1" points="0 0 536.73 37.78 543.04 140.66 531.41 255.99 45.52 331.4 0 0"/><polygon class="cls-2" points="429.61 62.24 432.48 46.93 439.52 61.81 429.61 62.24"/><polygon class="cls-3" points="432.48 46.93 434.49 62.1 445.26 62.82 452.73 62.24 446.12 47.79 432.48 46.93"/><polygon class="cls-2" points="89.89 45.07 93.33 26.47 101.66 44.36 89.89 45.07"/><path class="cls-4" d="M142.58,341.13l8.47-26,35.61-5.59,66.2,14.74L208.77,343l-44.22-6.15Zm139-21.18,3.16-26.9,17.52-1.43,49,20L327.52,323.1ZM394,304.5l-40.92-15-2.87-5.29L342.45,265l2.16-24.75,9.33-4,37.62,41.5,31-4.86,57.14,19.6-38.48,15.16Zm131.53,3.14L514.9,319.81l130.23,27.76L696.68,350l115.44-30.33-62.6-12.17-52.84-13.59-43.22,3.43-30.58-5.15-12.64,1.43Z"/><polygon class="cls-2" points="328.96 308.79 311.44 296.34 311.87 304.64 317.04 311.51 328.67 311.08 328.96 308.79"/><polygon class="cls-5" points="687.92 303.06 692.23 312.65 689.07 320.24 671.27 320.09 670.12 317.52 670.84 315.94 678.02 314.08 688.78 316.8 687.92 303.06"/><polygon class="cls-6" points="683.9 291.33 680.46 283.61 682.61 282.03 694.1 284.89 700.56 286.75 683.9 291.33"/><polygon class="cls-7" points="726.69 283.75 716.21 284.61 708.74 287.04 725.69 294.91 726.69 283.75"/><polygon class="cls-1" points="682.61 282.03 689.07 279.45 703 285.47 700.56 286.75 682.61 282.03"/><polygon class="cls-1" points="705.58 285.18 708.74 287.04 726.69 283.75 719.37 282.18 705.58 285.18"/><polygon class="cls-7" points="699.27 270.01 700.56 286.75 704.29 290.47 708.74 287.04 705.58 267.29 699.27 270.01"/><polygon class="cls-8" points="704.29 266.58 704.15 288.19 708.74 287.04 708.6 268.73 704.29 266.58"/><polygon class="cls-1" points="668.68 293.33 700.56 286.75 704.15 288.19 701.85 290.76 676.15 300.49 668.68 293.33"/><polygon class="cls-1" points="707.02 291.33 704.15 288.19 708.74 287.04 736.6 295.05 733.3 304.21 707.02 291.33"/><polygon class="cls-7" points="704.58 292.76 705.44 290.76 704.15 288.19 676 297.63 678.02 302.92 682.03 302.06 704.58 292.76"/><polygon class="cls-6" points="704.15 288.19 704.58 292.76 723.68 303.35 723.1 311.08 732 313.65 733.3 304.21 730.14 299.63 704.15 288.19"/><polygon class="cls-8" points="732 313.65 730.14 299.63 736.6 295.05 738.75 309.93 732 313.65"/><polygon class="cls-4" points="63.9 269.87 151.2 259.71 151.05 279.03 123.92 272.16 99.5 290.05 101.23 322.81 151.05 315.09 186.66 309.5 174.31 257.28 276.12 247.26 270.66 264.86 280.14 266.15 284.59 294.34 302.25 291.62 309 276.59 290.19 245.83 386.82 235.53 396.44 245.83 391.56 277.74 422.57 272.88 423.29 232.09 480.01 225.51 80.84 251.27 41.21 52.37 32.45 61.1 43.94 240.82 63.9 269.87"/><polygon class="cls-2" points="301.25 276.59 297.65 279.31 312.44 283.32 323.79 278.45 320.77 276.45 301.25 276.59"/><path class="cls-9" d="M408.93,231.66l-1.86.86-2,2.29-2.87-.43-1.15,5.3,2.73,1.14.57-2.15-1.29-.28.43-1.57s2,.28,3.16.42l-.72,1.43-.29,2.44,2.73-.57-.72-5.44,1.73-2Zm-1.43,3.58.14-.14-.14.14Z"/><polygon class="cls-3" points="93.33 26.47 95.77 44.65 108.69 45.65 117.6 44.93 109.7 27.62 93.33 26.47"/><polygon class="cls-10" points="486.47 61.39 480.01 225.51 82.28 259.42 59.88 126.06 55.14 40.21 486.47 61.39"/><polygon class="cls-11" points="41.21 52.37 55.14 40.21 82.28 259.42 73.08 257.71 41.21 52.37"/><polygon class="cls-9" points="76.67 76.12 94.77 237.39 470.82 215.49 472.83 70.69 74.52 57.95 76.67 76.12"/><path class="cls-8" d="M113.72,82.85l1.44,11.59,4.45-.43-2.44-13.45L114.44,78l-4.17,2.87,1,3.14Zm21.54,2.29.57,7.3,77.11,1.43-.58-7ZM220.84,94l30.58.57L251,87.71,220.12,87Zm38.48.72L332.55,96l-.43-6.44-73.38-1.71Zm81.12,1.43,45.09.86-.29-6.16-45.37-1ZM138,110.9l.57,7.44,39.92.28,58,2.86,16.08-3.57,16.22.43-.43-6.44Zm138.7,7.44H386.53l-.28-5.58-110.13-.86ZM140.86,137.08l.72,7.44L255.15,144l-.28-5.87H239.79Zm122.19,6.73,38.34-.15-1.15-5.43-37.76-.15Zm-131.38-3.58L130.38,143l1.86,1.57,2-2.14Zm-15.94-8.16,6.75-2.43,3.59,5.44-2.44,3.15,3.3,2.28-1,5.3-9-.14.29-3.58,5-.43-3-2.86,3-3.87-1-1.14-4,1.72Zm12.49-16.45-1.29,2.72,1.87,1.57,2-2.15ZM112,107.32l4.45-3.29,6,3.43-.58,5.87-3.3,3.43,5,.29-.15,3.29-8.9-.86-.57-3.43,4.45-5.15-1-2.87L115,110.47Zm12.2-18L123.05,92l1.87,1.57,1.87-2.29Z"/><path class="cls-4" d="M78.69,95.3,92.9,75.7l50.26-16.6L74.52,58Zm302.53,34.48,19,3.15,21.53,32.77-1,15.88-17.66,25.76-2.59,12.16-12.2.72-7-15.31L396,168.56l-14.79-38.78Zm-107.83.72,17.23-1.15s-4.88,42.07-5.46,40.78,8,16.6,8,16.6l-6.89,39.5-24.7,1.43L273.53,200l-21.11-24.75,21-44.79Zm-120.47-5.15L136.26,162l28.29,39.21L145,234.38l14.94-.86,31-35.05-18.67-75.7Z"/><polygon class="cls-5" points="297.08 176.86 297.08 184.87 289.33 188.74 276.4 172 287.32 167.7 292.49 171.56 297.08 176.86"/><polygon class="cls-9" points="900 0 536.73 37.78 531.41 255.99 886.36 297.77 900 0"/><polygon class="cls-4" points="869.42 295.77 891.67 182.15 867.26 152.11 846.3 152.25 841.27 175.14 869.42 295.77"/><polygon class="cls-10" points="789.01 134.22 779.24 138.8 784.99 148.96 794.61 149.67 794.89 146.1 787.28 145.52 784.41 140.09 790.44 138.08 789.01 134.22"/><path class="cls-4" d="M837,100.74,805.23,104l14.22,6.44,25.41-2.58,13.93-21.46-7.61-29.34-2.44,29.34ZM557.83,168.85v8l58.3,3,12.35-10.74L618.14,59.38l-3.73,107.18Z"/><polygon class="cls-12" points="327.81 214.92 328.1 228.37 336.42 210.63 331.83 205.34 327.81 214.92"/><polygon class="cls-13" points="327.09 201.19 326.37 187.45 336.42 210.63 332.12 206.91 327.09 201.19"/><polygon class="cls-12" points="293.35 233.95 278.99 217.93 283.15 213.78 294.06 208.2 293.63 225.37 293.35 233.95"/><polygon class="cls-13" points="289.33 188.74 293.63 203.33 291.48 212.06 278.99 217.93 289.33 188.74"/><polygon class="cls-14" points="410.23 227.23 407.07 232.52 394.43 208.05 407.79 214.49 410.23 227.23"/><polygon class="cls-14" points="455.46 212.49 453.3 221.79 457.32 231.09 466.8 206.91 455.46 212.49"/><polygon class="cls-15" points="412.95 199.75 409.22 180.29 394.43 208.05 407.79 217.36 412.95 199.75"/><polygon class="cls-15" points="453.01 177.86 449.43 195.89 456.03 214.21 466.8 206.91 453.01 177.86"/><polygon class="cls-7" points="719.37 229.8 718.51 244.26 734.01 246.26 738.9 224.08 730.71 218.21 719.37 229.8"/><polygon class="cls-16" points="714.77 221.94 725.69 214.78 731.43 219.36 728.41 223.79 725.69 243.83 715.92 244.54 706.16 241.54 714.77 221.94"/><polygon class="cls-10" points="501.98 240.82 599.04 229.09 652.46 235.38 678.45 240.82 708.46 241.82 757.27 247.4 717.93 261.14 650.02 265 564.87 258.71 501.98 240.82"/><polygon class="cls-1" points="592.29 255.56 608.23 254.13 621.44 236.24 563.43 242.68 592.29 255.56"/><polygon class="cls-9" points="573.48 245.69 624.31 234.67 643.84 242.4 645.42 245.26 641.98 248.98 613.26 256.56 573.48 245.69"/><polygon class="cls-2" points="511.17 258.71 522.65 318.66 536.58 315.94 531.13 266.86 511.17 258.71"/><polygon class="cls-10" points="584.54 272.59 581.52 298.06 596.31 302.06 600.05 287.9 597.18 278.31 584.54 272.59"/><polygon class="cls-2" points="595.6 278.02 596.31 302.06 609.52 299.2 606.22 274.59 595.6 278.02"/><polygon class="cls-3" points="496.95 312.08 501.98 240.82 650.02 265 660.93 307.07 653.03 346.28 621.15 339.55 626.61 283.46 517.34 264.43 522.65 318.66 496.95 312.08"/><polygon class="cls-3" points="734.16 271.59 731.86 317.95 747.37 324.39 752.82 274.02 747.37 264.86 734.16 271.59"/><polygon class="cls-15" points="681.17 277.31 687.92 303.06 669.4 302.92 664.66 283.46 681.17 277.31"/><polygon class="cls-17" points="764.6 195.75 757.27 247.4 757.27 298.77 827.35 308.22 833.81 277.88 837.83 196.03 816.86 189.31 782.55 185.02 764.6 195.75"/><polygon class="cls-18" points="779.1 203.33 816.86 205.91 813.99 287.18 808.97 288.61 763.59 282.03 776.66 205.62 779.1 203.33"/><polygon class="cls-2" points="757.27 247.4 650.02 265 653.03 346.28 673.42 340.27 667.53 285.04 746.08 269.3 747.37 324.39 765.03 319.23 757.27 247.4"/><polygon class="cls-7" points="672.56 187.59 651.45 222.94 666.67 224.94 669.83 223.37 667.97 208.63 672.56 187.59"/><polygon class="cls-19" points="647.43 94.44 677.73 98.59 705.3 105.31 704.43 117.62 698.98 132.65 701.99 132.07 704.58 135.51 707.31 128.78 709.89 125.78 714.49 127.35 719.8 132.22 718.79 135.51 715.35 140.51 712.33 145.95 701.71 178.58 677.44 186.02 676.15 171.85 672.85 162.55 661.79 159.69 645.42 156.83 643.84 127.21 647.43 94.44"/><polygon class="cls-20" points="683.18 128.5 677.73 118.62 666.1 119.62 661.79 131.21 663.66 113.61 675.72 112.9 683.47 117.76 687.06 122.63 683.18 128.5"/><polygon class="cls-20" points="645.42 113.33 653.75 118.05 655.47 128.5 660.78 111.61 645.42 113.33"/><polygon class="cls-20" points="686.49 132.79 661.79 134.79 661.79 131.21 686.49 132.79"/><polygon class="cls-20" points="643.99 128.35 654.75 133.93 655.18 130.21 643.99 128.35"/><polygon class="cls-20" points="697.11 103.74 687.64 114.19 686.49 132.79 687.35 160.69 677.44 186.02 688.78 183.73 701.71 178.58 708.31 158.54 707.74 148.38 704.15 142.23 704.58 135.51 698.98 132.65 705.3 105.31 697.11 103.74"/><polygon class="cls-21" points="712.33 145.95 704.15 142.23 708.31 158.54 712.33 145.95"/><polygon class="cls-21" points="645.42 156.83 694.67 161.12 684.48 183.87 681.75 186.16 677.44 186.02 672.85 162.55 645.42 156.83"/><polygon class="cls-5" points="682.03 108.89 676.72 105.89 663.8 111.75 682.03 108.89"/><polygon class="cls-5" points="657.77 111.47 650.88 102.45 646.28 104.46 657.77 111.47"/><polygon class="cls-21" points="661.07 137.65 657.91 141.52 654.32 137.37 661.07 137.65"/><polygon class="cls-3" points="673.42 149.1 668.25 153.25 659.06 152.68 655.62 148.67 660.07 145.24 666.1 145.67 673.42 149.1"/><polygon class="cls-21" points="715.06 134.51 711.33 131.5 708.31 137.22 715.06 134.51"/><path class="cls-11" d="M687.64,114.19l-1.15,18.6-24.7-1.58-27.86-4.58,1.58-18.74,22.26,3.58Zm-22.26,13.16,17.8,1.15.29-10.74-16.8-2Zm-11.49-12.73-14.79-2.15-.72,10.59,14.37,3Z"/><polygon class="cls-5" points="647.43 94.44 672.99 72.83 673.56 86.86 670.98 98.88 647.43 94.44"/><polygon class="cls-16" points="672.99 72.83 719.37 83.28 723.53 90.72 724.11 97.3 715.06 102.31 705.3 105.31 697.11 103.74 670.98 98.88 672.99 72.83"/><polygon class="cls-5" points="724.11 97.3 726.55 101.88 726.4 105.6 732.15 126.06 716.35 125.35 701.56 121.48 705.3 105.31 724.11 97.3"/><polygon class="cls-22" points="732.15 126.06 701.56 121.48 698.98 132.65 704.58 135.51 709.89 125.78 719.8 132.22 715.35 140.51 732.15 126.06"/><polygon class="cls-22" points="726.4 105.6 741.05 102.74 732.58 93.87 719.37 83.28 724.11 97.3 726.4 105.6"/><polygon class="cls-16" points="719.37 83.28 736.89 71.69 754.69 114.47 741.05 102.74 719.37 83.28"/><polygon class="cls-5" points="701.71 178.58 672.56 187.59 676.29 194.6 683.76 202.33 699.12 192.6 708.17 181.58 701.71 178.58"/><polygon class="cls-17" points="708.17 181.58 718.65 185.59 716.21 200.04 712.76 208.48 709.32 221.94 685.77 221.94 664.09 217.21 672.56 187.59 683.76 202.33 708.17 181.58"/><polygon class="cls-23" points="709.32 221.94 664.09 217.21 670.84 237.82 686.2 243.68 706.16 241.54 709.32 221.94"/><polygon class="cls-24" points="655.62 148.67 660.07 150.67 667.25 150.82 673.42 149.1 666.1 145.67 657.77 145.09 655.62 148.67"/><polygon class="cls-23" points="673.42 149.1 665.38 143.95 657.34 143.95 655.62 148.67 658.2 146.1 664.23 145.95 673.42 149.1"/><polygon class="cls-5" points="652.46 235.38 666.67 224.94 627.62 211.06 627.9 215.35 631.64 221.94 652.46 235.38"/><polygon class="cls-20" points="619.14 204.33 620.87 203.76 627.62 211.06 625.75 214.21 622.02 213.35 619.14 204.33"/><polygon class="cls-19" points="616.27 215.64 620.73 224.8 631.64 221.94 627.62 211.06 616.27 215.64"/><polygon class="cls-7" points="725.69 214.78 718.65 185.59 699.41 226.66 701.71 239.96 708.46 241.82 725.69 214.78"/><polygon class="cls-5" points="666.67 236.96 699.41 226.66 708.46 241.82 664.23 246.83 662.94 242.82 666.67 236.96"/><polygon class="cls-20" points="652.46 235.38 666.67 236.96 664.23 246.83 652.89 246.26 647.43 242.11 652.46 235.38"/><polygon class="cls-19" points="641.98 248.98 643.84 242.4 652.46 235.38 652.89 246.26 641.98 248.98"/><polygon class="cls-3" points="851.18 57.09 837.54 41.35 828.64 40.06 834.52 51.94 843.57 57.52 847.59 60.53 851.18 57.09"/><polygon class="cls-2" points="833.38 91.44 826.05 104.17 837.83 101.59 850.75 87.86 846.59 84.85 842.28 88.57 833.38 91.44"/><polygon class="cls-11" points="843.57 57.52 851.18 57.09 850.75 87.86 842.28 88.57 838.55 71.55 843.57 57.52"/><polygon class="cls-10" points="785.85 59.67 787.14 89.29 805.23 104.03 826.05 104.17 842.28 88.57 843.57 57.52 828.64 40.06 798.63 42.07 785.85 59.67"/><polygon class="cls-24" points="808.11 48.22 796.62 58.38 796.62 84.71 811.98 95.44 822.03 95.01 834.24 84.71 834.96 57.81 826.05 47.94 808.11 48.22"/><polygon class="cls-2" points="808.11 48.22 797.62 59.67 798.34 83.99 811.98 95.44 807.53 95.58 795.33 85.71 794.32 60.1 804.23 48.22 808.11 48.22"/><polygon class="cls-25" points="804.08 62.1 802.79 64.39 811.69 71.26 814.42 70.69 815.28 67.97 804.08 62.1"/><polygon class="cls-25" points="827.49 53.95 815.28 67.97 816.43 70.11 818.73 70.26 829.64 55.23 827.49 53.95"/><polygon class="cls-11" points="815 67.82 811.69 71.26 815.72 74.41 818.73 70.26 815 67.82"/><polygon class="cls-11" points="815.14 51.23 815.43 56.52 817.73 56.52 817.73 51.23 815.14 51.23"/><polygon class="cls-11" points="827.63 68.54 832.51 67.97 832.23 70.69 827.63 71.26 827.63 68.54"/><polygon class="cls-11" points="815.72 84.71 818.44 84.42 818.44 90 816 90 815.72 84.71"/><polygon class="cls-11" points="800.06 71.12 804.23 70.54 803.94 72.83 800.06 73.26 800.06 71.12"/><polygon class="cls-6" points="435.64 262.14 431.62 249.41 438.94 239.53 448.28 233.52 457.32 231.09 454.88 255.85 445.69 264.15 435.64 262.14"/><polygon class="cls-16" points="457.32 231.09 431.62 249.41 419.85 244.4 407.07 232.52 431.91 227.66 457.32 231.09"/><polygon class="cls-6" points="414.96 266 426.31 263.29 431.62 249.41 407.07 232.52 407.07 258.85 414.96 266"/><polygon class="cls-9" points="428.61 230.52 423.29 232.09 423.87 234.1 426.88 234.53 427.46 239.82 429.61 239.96 429.47 234.53 432.34 233.95 432.34 231.81 428.61 230.52"/><polygon class="cls-17" points="452.44 231.23 423.29 232.09 407.07 232.52 409.22 180.29 419.56 175.14 435.35 183.44 447.85 175.29 453.01 177.86 457.32 231.09 452.44 231.23"/><polygon class="cls-26" points="426.45 182.01 422.29 169.13 447.99 175 435.79 191.17 426.45 182.01"/><polygon class="cls-14" points="426.74 182.15 430.19 176.29 428.03 153.54 424.58 135.22 412.95 158.83 419.56 175.14 426.74 182.15"/><polygon class="cls-26" points="412.95 158.83 420.13 154.54 413.1 152.53 410.8 153.82 412.95 158.83"/><polygon class="cls-27" points="464.79 174.43 430.19 176.29 423.58 139.51 423.01 129.35 430.19 120.77 464.64 125.63 464.79 174.43"/><polygon class="cls-14" points="442.39 138.8 431.62 140.37 446.27 155.54 448.71 150.67 448.13 145.38 447.42 140.09 442.39 138.8"/><polygon class="cls-14" points="454.6 140.37 452.3 145.24 452.01 148.96 453.16 155.54 463.07 141.09 457.04 139.23 454.6 140.37"/><polygon class="cls-22" points="431.62 140.37 443.39 136.37 447.42 140.09 431.62 140.37"/><polygon class="cls-22" points="458.04 137.65 454.6 140.37 463.07 141.09 458.04 137.65"/><polygon class="cls-28" points="448.13 145.38 446.27 155.54 449.86 156.68 453.16 155.54 452.3 145.24 448.13 145.38"/><polygon class="cls-26" points="449.57 158.54 446.27 155.54 453.16 155.54 449.57 158.54"/><polygon class="cls-26" points="438.37 164.13 453.44 163.98 453.3 165.99 438.37 166.41 438.37 164.13"/><path class="cls-29" d="M440,146.1a2.72,2.72,0,1,1-2.73,2.71A2.72,2.72,0,0,1,440,146.1Z"/><path class="cls-29" d="M458.18,146a2.72,2.72,0,1,1-2.72,2.72A2.72,2.72,0,0,1,458.18,146Z"/><polygon class="cls-23" points="427.02 124.49 420.13 154.54 412.95 141.37 404.05 139.8 400.18 132.93 400.46 121.48 404.77 118.62 417.69 117.91 427.02 124.49"/><polygon class="cls-27" points="404.05 139.8 410.8 153.82 420.13 154.54 415.83 139.23 404.05 139.8"/><polygon class="cls-15" points="386.96 120.48 400.18 132.93 402.62 125.49 398.6 121.63 386.96 120.48"/><polygon class="cls-30" points="427.02 124.49 464.64 125.63 454.88 111.9 446.98 109.03 434.2 111.9 427.02 124.49"/><polygon class="cls-17" points="468.81 97.3 446.98 109.03 453.88 118.48 461.34 111.47 468.81 97.3"/><polygon class="cls-26" points="409.08 143.23 414.82 147.96 412.95 142.95 409.08 143.23"/><polygon class="cls-12" points="296.07 260.28 302.25 279.74 308.28 281.89 312.44 280.6 315.32 267.58 313.88 258.56 296.07 260.28"/><polygon class="cls-13" points="319.91 279.17 325.51 260.28 313.02 258.56 312.44 280.6 315.46 281.32 319.91 279.17"/><polygon class="cls-3" points="314.45 310.94 306.56 311.94 301.39 310.51 304.4 297.63 297.65 279.31 312.44 280.6 313.88 293.05 312.16 299.06 314.45 310.94"/><polygon class="cls-11" points="312.44 280.6 312.16 299.06 318.62 308.93 328.96 308.79 319.19 298.35 323.79 278.45 312.44 280.6"/><polygon class="cls-15" points="284.44 261 303.97 263.43 312.44 245.69 308.85 230.66 293.35 233.95 284.44 261"/><polygon class="cls-15" points="327.23 233.67 336.14 257.71 324.79 262.57 315.03 244.97 318.04 230.95 327.23 233.67"/><polygon class="cls-30" points="318.04 235.96 313.45 234.53 308.57 235.96 303.97 263.43 324.79 262.57 318.04 235.96"/><polygon class="cls-23" points="292.92 228.66 293.35 233.95 327.23 233.67 328.1 228.37 310.43 225.08 292.92 228.66"/><polygon class="cls-30" points="291.48 212.06 292.92 228.66 328.1 228.37 332.12 206.91 315.32 207.34 291.48 212.06"/><polygon class="cls-17" points="297.08 182.87 307.56 193.46 316.03 208.91 291.48 212.06 289.33 188.74 297.08 182.87"/><polygon class="cls-17" points="332.12 206.91 316.03 208.91 315.32 207.34 317.33 199.04 326.66 187.59 332.12 206.91"/><polygon class="cls-31" points="324.65 191.45 315.32 193.31 301.96 190.17 298.8 180.01 303.11 176.43 327.38 186.02 324.65 191.45"/><polygon class="cls-12" points="294.78 178.29 296.51 183.3 301.96 190.17 301.68 180.72 309.72 187.02 313.31 166.99 313.59 141.66 300.96 152.39 294.78 178.29"/><polygon class="cls-13" points="352.07 154.68 343.03 188.02 309.72 187.02 311.01 146.52 324.07 136.65 332.55 134.79 344.03 141.37 352.07 154.68"/><polygon class="cls-12" points="326.08 151.53 314.88 152.39 328.67 169.13 331.69 164.27 331.54 158.97 331.25 153.39 326.08 151.53"/><polygon class="cls-12" points="338.43 154.11 335.7 158.97 335.13 162.84 335.85 169.71 347.19 155.54 341.16 153.11 338.43 154.11"/><polygon class="cls-5" points="314.88 152.39 324.79 149.81 331.25 153.39 314.88 152.39"/><polygon class="cls-5" points="343.6 152.68 338.43 154.11 347.19 155.54 343.6 152.68"/><polygon class="cls-32" points="331.54 158.97 328.67 169.13 332.4 170.56 335.85 169.71 335.7 158.97 331.54 158.97"/><polygon class="cls-31" points="331.83 172.57 328.67 169.13 335.85 169.71 331.83 172.57"/><path class="cls-22" d="M323,158.91a2.83,2.83,0,1,1-3.05,2.62A2.84,2.84,0,0,1,323,158.91Z"/><path class="cls-22" d="M341.79,160.19a2.84,2.84,0,1,1-3.05,2.62A2.84,2.84,0,0,1,341.79,160.19Z"/><polygon class="cls-33" points="292.49 123.77 276.4 172 292.49 171.56 296.79 146.52 292.49 123.77"/><polygon class="cls-16" points="315.17 122.92 303.4 121.34 292.49 123.77 292.49 171.56 295.5 170.28 300.67 157.4 304.83 150.25 312.3 137.94 315.17 122.92"/><polygon class="cls-31" points="295.07 168.85 295.93 165.84 298.37 163.12 301.25 165.27 297.22 168.99 295.07 168.85"/><polygon class="cls-13" points="301.25 165.27 300.67 157.4 295.93 165.84 301.25 165.27"/><polygon class="cls-5" points="331.11 137.8 329.96 129.35 313.59 123.77 304.69 150.53 331.11 137.8"/><polygon class="cls-16" points="359.83 126.21 343.75 121.63 313.59 123.77 346.47 145.38 365.14 149.81 359.83 126.21"/><polygon class="cls-33" points="343.03 108.75 359.83 126.21 313.59 123.77 321.2 114.33 343.03 108.75"/><polygon class="cls-16" points="310 107.03 308.71 114.33 313.59 123.77 343.03 108.75 310 107.03"/><polygon class="cls-33" points="292.49 123.77 310 107.03 313.59 123.77 292.49 123.77"/><polygon class="cls-10" points="298.52 172.28 295.93 165.84 292.49 171.56 294.78 174.28 298.52 172.28"/><polygon class="cls-31" points="324.36 178.15 330.82 175.43 334.41 178.15 333.41 179.72 330.68 177.86 324.94 179.87 324.36 178.15"/><polygon class="cls-34" points="176.32 253.7 172.88 259.71 159.81 233.52 176.32 236.81 176.32 253.7"/><polygon class="cls-34" points="221.27 230.23 224.57 247.83 229.02 258.14 239.65 228.94 221.27 230.23"/><polygon class="cls-35" points="177.9 223.51 175.32 201.47 159.81 233.52 174.75 237.96 177.9 223.51"/><polygon class="cls-35" points="224.28 198.75 223.42 222.79 225.29 236.53 239.65 228.94 224.28 198.75"/><polygon class="cls-3" points="191.11 329.39 180.06 331.4 168.86 329.39 173.45 314.08 178.34 312.37 184.94 314.51 191.11 329.39"/><polygon class="cls-3" points="210.64 310.65 210.35 320.81 215.09 322.53 229.88 322.81 238.07 320.67 223.71 310.08 218.68 308.93 210.64 310.65"/><polygon class="cls-6" points="205.19 291.48 201.16 276.88 219.69 254.13 229.02 258.14 226.15 286.9 215.81 293.48 205.19 291.48"/><polygon class="cls-16" points="206.48 255.42 229.02 258.14 201.16 276.88 185.94 272.3 172.88 259.71 206.48 255.42"/><polygon class="cls-6" points="172.59 282.75 181.06 289.04 196.43 286.9 201.16 276.88 172.88 259.71 172.59 282.75"/><polygon class="cls-9" points="219.11 258.42 193.7 259.14 184.51 230.23 186.81 195.75 199.59 215.06 212.65 213.92 218.25 196.03 221.55 225.65 219.11 258.42"/><polygon class="cls-34" points="181.49 291.9 173.74 294.05 173.45 314.08 184.94 314.51 190.97 296.63 181.49 291.9"/><path class="cls-16" d="M172.59,282.75l23.84,4.15,1,5.58-6,1.86-15.22-2.86-6.6-1.86S173,282.89,172.59,282.75Z"/><polygon class="cls-15" points="186.81 195.75 185.8 210.63 193.7 259.14 172.88 259.71 175.32 201.47 186.81 195.75"/><polygon class="cls-15" points="218.11 196.18 224.28 198.75 229.02 258.14 219.11 258.42 220.84 209.34 218.11 196.18"/><polygon class="cls-36" points="192.12 206.91 187.24 181.58 220.55 187.88 218.11 196.32 203.46 208.34 192.12 206.91"/><polygon class="cls-34" points="186.81 195.75 192.55 207.77 195.71 189.74 194.99 171.71 189.68 157.4 177.9 176 186.81 195.75"/><polygon class="cls-36" points="177.9 176 186.81 169.13 178.91 166.99 175.32 170.28 177.9 176"/><polygon class="cls-5" points="159.81 140.51 167.42 154.82 174.46 154.97 181.21 151.39 179.34 139.8 179.48 129.5 167.28 133.79 159.81 140.51"/><polygon class="cls-35" points="240.36 138.08 238.21 186.59 195.71 189.74 189.68 157.4 189.96 134.79 196.86 122.77 221.27 124.92 240.36 138.08"/><polygon class="cls-33" points="174.75 133.93 180.78 151.53 181.92 159.55 186.81 169.13 199.44 122.92 184.37 125.2 174.75 133.93"/><polygon class="cls-33" points="252.57 117.91 240.36 138.08 199.44 122.92 221.7 114.9 240.94 118.91 252.57 117.91"/><polygon class="cls-16" points="219.26 104.03 240.94 118.91 199.44 122.92 206.76 110.75 219.26 104.03"/><polygon class="cls-33" points="175.61 111.32 182.64 119.62 199.44 122.92 219.26 104.03 175.61 111.32"/><polygon class="cls-16" points="159.81 140.51 175.89 111.18 199.44 122.92 159.81 140.51"/><polygon class="cls-35" points="186.81 169.13 175.32 170.28 167.42 154.82 180.78 151.53 186.81 169.13"/><polygon class="cls-36" points="173.02 157.4 177.9 156.4 180.06 162.84 173.02 157.4"/><polygon class="cls-34" points="210.93 145.38 198.15 147.24 215.52 165.41 218.54 159.55 217.82 153.39 217.1 146.95 210.93 145.38"/><polygon class="cls-34" points="225.43 147.24 222.7 153.11 222.42 157.54 223.85 165.41 235.63 148.1 228.44 145.81 225.43 147.24"/><polygon class="cls-5" points="198.15 147.24 212.22 142.52 217.1 146.95 198.15 147.24"/><polygon class="cls-5" points="229.59 144.09 225.43 147.24 235.63 148.1 229.59 144.09"/><polygon class="cls-37" points="217.82 153.39 215.52 165.41 219.97 166.7 223.85 165.41 222.7 153.11 217.82 153.39"/><polygon class="cls-36" points="219.54 169.13 215.52 165.41 223.85 165.41 219.54 169.13"/><polygon class="cls-36" points="206.05 177 223.85 174.14 224.14 176.57 206.33 179.72 206.05 177"/><polygon class="cls-30" points="174.6 217.64 193.7 259.14 186.81 195.75 174.6 217.64"/><polygon class="cls-30" points="218.25 196.18 225.86 218.07 219.11 258.42 218.25 196.18"/><polygon class="cls-15" points="427.02 124.49 446.98 109.03 434.78 105.46 423.72 106.6 411.52 109.03 404.77 118.62 427.02 124.49"/><polygon class="cls-18" points="552.23 63.1 549.94 168.7 618 170.13 618.14 59.38 552.23 63.1"/><polygon class="cls-30" points="558.7 70.11 610.67 67.54 610.24 89.72 558.98 91.44 558.7 70.11"/><path class="cls-30" d="M556.83,154h3.73l-.14,3.72h-3.73a31.91,31.91,0,0,0,.14-3.72Zm8.9.14h43.51c0,1.29-.15,2.57-.15,3.72H582.67c-5.74,0-11.34-.14-17.08-.14Zm24-56.38c3.45,0,6.75,0,10.19-.14s6.75-.14,10.2-.14v3.71c-3.45,0-6.89.15-10.34.15-3.3.14-6.75.14-10,.14V97.73Zm-31.3,8.59h3.44l-.14,3.57-3.45.15c0-1.29.15-2.58.15-3.72Zm8.47-.15,17.09-.28c8.61-.15,17.23-.29,26-.29v3.72c-8.76.14-17.52.14-26.14.29l-16.94.28Zm-8.76,8.16,3.45-.14v3.72H558a30.7,30.7,0,0,0,.14-3.58Zm8.62-.14,17.08-.29c8.62,0,17.23-.14,26-.29v3.72c-8.76.15-17.52.29-26.13.29l-17.09.29Zm-8.91,8h3.59l-.14,3.72h-3.45V122.2Zm8.62,0,17.09-.14c8.75-.15,17.37-.29,26.13-.29v3.72c-8.76,0-17.52.14-26.13.14l-17.09.15Zm-8.76,8h3.45v3.58h-3.59a30.7,30.7,0,0,1,.14-3.58Zm8.61-.14h17.09c8.62-.14,17.38-.14,26.28-.29a33.39,33.39,0,0,0-.15,3.87c-8.75,0-17.51,0-26.27.14H566.16Zm-8.9,8H561l-.14,3.72h-3.59a33,33,0,0,1,.14-3.72Zm8.76,0h17c8.75,0,17.51-.14,26.41-.14a33,33,0,0,0-.14,3.72c-8.76,0-17.52.14-26.27.14H566Zm-9,8h3.73l-.14,3.72H557C557,148.53,557.12,147.24,557.12,146.1Zm8.75,0h43.51c0,1.14-.14,2.43-.14,3.72H565.87Z"/><polygon class="cls-30" points="399.89 91.72 404.77 118.62 413.53 113.04 411.81 102.31 399.89 91.72"/><polygon class="cls-30" points="438.08 81.99 423.72 106.6 434.06 108.89 436.36 97.87 438.08 81.99"/><path class="cls-34" d="M218.25,196.18l-26.13,10.73,4.74,11.16,17.23-.86S218.25,196,218.25,196.18Z"/><polygon class="cls-23" points="301.96 190.17 324.65 191.45 316.03 208.91 301.96 190.17"/><polygon class="cls-15" points="613.4 241.68 628.34 238.39 636.38 240.82 632.07 241.97 628.05 240.39 625.46 241.25 629.05 242.82 625.46 243.97 622.16 242.25 617.13 243.83 613.4 241.68"/><path class="cls-8" d="M597.61,244.11l22.4,5.58-1.73.43-22.54-5.58,1.87-.43Zm-5.89,1.29-1.87.43L613,251.55l1.58-.43h0l-22.83-5.72Zm11.77-2.57-1.86.42,22.11,5.44,1.72-.43Z"/><polygon class="cls-2" points="191.11 329.39 168.86 329.39 168.86 333.54 191.11 333.54 191.11 329.39"/><polygon class="cls-2" points="238.07 320.67 210.35 320.81 210.35 324.53 238.07 324.53 238.07 320.67"/><polygon class="cls-15" points="424.3 294.77 413.82 296.77 403.19 294.77 407.35 281.32 414.1 277.17 419.13 282.03 424.3 294.77"/><polygon class="cls-15" points="440.52 277.88 440.24 286.47 444.83 288.04 458.9 288.33 466.8 286.18 452.73 276.17 445.83 274.31 440.52 277.88"/><polygon class="cls-23" points="424.3 294.77 403.19 294.77 403.19 298.77 424.3 298.77 424.3 294.77"/><polygon class="cls-23" points="466.8 286.18 440.24 286.47 440.24 290.05 466.8 290.05 466.8 286.18"/><polygon class="cls-9" points="404.48 244.83 403.77 240.82 403.05 239.39 404.34 238.68 405.92 238.96 406.78 243.83 409.65 242.82 412.38 246.83 410.08 249.55 408.65 247.69 409.94 246.69 408.79 245.54 404.34 247.69 405.2 249.26 407.5 248.84 408.5 250.84 404.2 251.84 402.04 246.26 404.48 244.83"/><path class="cls-9" d="M412.38,250l-3.73-2.29L406.78,249l1.15,2,3.3,1.43.58,3,4.45.28,2-3.43h-1.73l-1.43,1.29-1.44-.15.72-4.15,2,.15.14,1.29,2.16-.15-.72-2.86-4.16-.29A15.31,15.31,0,0,0,412.38,250Z"/><polygon class="cls-9" points="420.56 249.69 416.54 250.69 415.11 253.56 421.14 252.41 423.44 255.13 427.74 253.13 427.6 248.69 425.73 249.26 425.45 251.55 423.72 251.84 422.14 247.98 424.44 246.83 425.16 247.83 427.31 246.4 424.73 244.69 420.42 246.26 420.56 249.69"/><polygon class="cls-9" points="426.88 244.11 425.16 247.83 425.73 249.26 427.6 249.26 429.9 244.83 433.34 244.26 433.2 238.25 429.18 237.24 428.89 239.96 431.48 240.11 431.48 241.97 428.61 242.54 426.02 241.54 426.02 239.96 427.74 239.82 427.31 237.39 424.01 238.39 424.01 242.82 426.88 244.11"/><polygon class="cls-15" points="420.28 202.9 425.02 194.6 436.22 196.18 446.12 194.32 449.71 204.19 446.12 210.63 440.09 209.34 441.82 213.63 442.25 220.36 438.8 220.5 438.37 214.06 436.5 214.06 436.5 220.65 432.63 220.79 433.06 214.49 431.19 214.49 430.33 220.79 426.88 220.22 427.17 214.64 429.18 209.34 423.15 210.63 420.28 202.9"/><polygon class="cls-17" points="426.74 200.18 427.46 205.91 432.34 205.48 426.74 200.18"/><polygon class="cls-17" points="443.39 200.33 442.82 205.62 438.23 205.19 443.39 200.33"/><polygon class="cls-33" points="173.74 294.05 169.57 289.62 197.43 292.48 190.97 296.63 173.74 294.05"/><polygon class="cls-16" points="205.19 291.48 226.15 286.9 223.71 310.08 210.64 310.65 205.19 291.48"/><polygon class="cls-16" points="407.07 258.85 426.31 263.29 419.13 282.03 407.35 281.32 407.07 258.85"/><polygon class="cls-16" points="435.64 262.14 454.88 255.85 452.73 276.17 440.52 277.88 435.64 262.14"/><polygon class="cls-17" points="308.57 226.51 308.57 235.96 318.04 235.96 317.76 233.67 311.3 233.81 311.3 228.37 317.9 228.37 317.9 226.37 308.57 226.51"/><polygon class="cls-8" points="735.31 215.49 725.69 214.78 728.41 223.79 738.9 224.08 735.31 215.49"/><polygon class="cls-20" points="676.29 302.92 687.92 303.06 688.78 314.08 688.93 316.8 678.02 314.08 675.43 309.93 676.29 302.92"/><polygon class="cls-16" points="688.93 316.8 675.43 309.93 670.84 315.94 688.93 316.8"/><polygon class="cls-18" points="468.81 97.3 453.88 118.48 464.64 125.63 468.81 97.3"/><polygon class="cls-17" points="438.08 81.99 434.06 108.89 446.98 109.03 438.08 81.99"/><polygon class="cls-17" points="399.89 91.72 413.53 113.04 423.72 106.6 399.89 91.72"/><polygon class="cls-30" points="386.96 120.48 402.62 125.49 404.77 118.62 386.96 120.48"/><path class="cls-22" d="M208.06,154.11a3.29,3.29,0,1,1-3.31,3.29A3.29,3.29,0,0,1,208.06,154.11Z"/><path class="cls-22" d="M229.88,154a3.29,3.29,0,1,1-3.3,3.29A3.29,3.29,0,0,1,229.88,154Z"/><polygon class="cls-3" points="298.52 172.28 292.49 171.56 294.78 178.29 298.52 172.28"/><path class="cls-22" d="M649,117.33a2.44,2.44,0,1,1-2.44,2.44A2.44,2.44,0,0,1,649,117.33Z"/><path class="cls-22" d="M670.84,120.2a2.43,2.43,0,1,1-2.44,2.43A2.44,2.44,0,0,1,670.84,120.2Z"/><polygon class="cls-33" points="365.14 149.81 313.59 123.77 352.07 154.68 365.14 149.81"/><polygon class="cls-17" points="115.01 316.23 101.23 322.81 107.26 335.4 142.58 341.13 152.78 328.68 138.42 320.67 115.01 316.23"/><polygon class="cls-18" points="109.84 310.79 101.23 322.81 152.78 328.68 144.45 309.93 129.08 306.07 109.84 310.79"/><polygon class="cls-17" points="113.72 285.9 109.84 310.79 112.14 310.79 122.19 314.8 138.27 310.08 144.45 309.93 150.19 296.77 142.58 281.17 127.79 278.88 113.72 285.9"/><polygon class="cls-18" points="123.92 272.16 113.72 285.9 142.58 281.17 145.74 279.88 145.74 274.73 123.92 272.16"/><polygon class="cls-15" points="166.27 312.65 150.91 278.6 150.19 296.77 152.78 309.5 161.1 313.51 166.27 312.65"/><polygon class="cls-23" points="156.08 326.53 156.37 314.23 155.36 307.22 166.27 312.65 158.95 330.25 156.08 326.53"/><polygon class="cls-30" points="150.91 278.6 145.74 274.73 142.58 281.17 144.45 309.93 144.88 327.96 142.58 341.13 158.95 330.25 150.91 278.6"/><polygon class="cls-30" points="112.14 310.79 115.01 318.23 132.67 319.67 138.27 310.08 112.14 310.79"/><polygon class="cls-16" points="355.81 233.09 350.78 231.81 352.07 242.97 355.81 242.11 355.81 233.09"/><polygon class="cls-16" points="362.41 278.17 357.96 277.88 359.25 289.19 362.99 288.33 364.57 285.32 362.41 278.17"/><polygon class="cls-15" points="381.08 286.04 370.6 281.03 363.13 235.53 371.6 221.22 367.44 218.79 363.56 216.93 353.94 236.24 361.12 282.46 375.05 294.19 378.64 292.05 381.08 286.04"/><polygon class="cls-17" points="377.35 213.63 363.56 216.93 368.87 221.36 388.26 220.22 386.25 215.78 377.35 213.63"/><polygon class="cls-17" points="378.64 288.47 375.05 294.19 391.27 295.63 397.88 289.62 397.59 284.32 378.64 288.47"/><polygon class="cls-30" points="386.68 233.52 388.26 220.22 379.5 219.07 368.87 221.36 360.98 235.67 368.01 281.32 378.64 288.47 389.41 289.47 397.59 284.32 391.56 277.74 386.68 233.52"/><polygon class="cls-7" points="346.62 232.09 343.31 237.24 345.9 243.4 352.07 242.97 353.94 236.24 350.78 231.81 346.62 232.09"/><path class="cls-33" d="M347.34,236.1l-.15,3.43s3,.29,3,.58a29.19,29.19,0,0,0,.72-3.72A31,31,0,0,1,347.34,236.1Z"/><polygon class="cls-7" points="353.8 278.31 350.21 284.18 353.08 289.47 359.25 289.19 361.12 282.46 357.96 277.88 353.8 278.31"/><path class="cls-33" d="M354.37,282l-.14,3.44s3,.28,3,.57c0,.14.72-3.72.72-3.72A31,31,0,0,1,354.37,282Z"/><polygon class="cls-30" points="861.52 181.44 832.37 199.32 827.35 308.22 869.42 295.77 861.52 181.44"/><polygon class="cls-30" points="748.66 184.73 748.66 194.89 832.37 199.32 836.97 184.59 830.79 182.15 774.22 182.44 748.66 184.73"/><polygon class="cls-17" points="803.51 174.71 748.66 184.73 830.79 186.31 871.14 175.43 803.51 174.71"/><polygon class="cls-11" points="802.79 180.58 803.8 172.85 819.02 171.85 819.88 178 817.87 181.44 802.79 180.58"/><polygon class="cls-2" points="827.2 169.85 819.88 170.28 818.15 173.43 817.87 181.44 829.79 177.29 827.2 169.85"/><polygon class="cls-3" points="812.7 169.56 803.8 172.85 818.15 173.43 827.2 169.85 820.74 169.28 812.7 169.56"/><polygon class="cls-11" points="794.03 152.11 809.83 157.26 815.72 158.83 839.12 148.81 824.9 139.66 802.5 143.38 794.03 152.11"/><polygon class="cls-25" points="783.26 129.93 794.03 152.11 816.86 152.68 820.17 142.09 814.28 132.22 802.79 128.35 783.26 129.93"/><polygon class="cls-3" points="843.43 133.07 853.34 136.22 848.74 147.24 839.12 148.81 837.25 146.81 840.27 144.95 846.01 143.95 848.16 138.23 842.71 136.51 841.42 135.22 843.43 133.07"/><polygon class="cls-10" points="845.15 128.07 828.49 127.49 814.28 132.22 816.86 152.68 839.12 148.81 845.15 128.07"/><polygon class="cls-25" points="812.7 169.56 815.72 158.83 817.58 167.99 816.58 170.99 812.7 169.56"/><polygon class="cls-10" points="820.74 169.28 815.72 158.83 816.58 170.99 820.74 169.28"/><polygon class="cls-3" points="814.57 162.55 809.83 157.26 821.17 156.4 817.44 162.55 814.57 162.55"/><polygon class="cls-3" points="816.43 124.2 783.26 129.93 814.28 132.22 845.15 128.07 816.43 124.2"/><polygon class="cls-15" points="830.79 186.31 832.37 199.32 871.57 188.02 871.14 175.43 830.79 186.31"/><polygon class="cls-9" points="528.4 0 472.54 9.02 487.33 19.75 521.08 20.46 533.85 14.74 536.73 4.87 528.4 0"/><polygon class="cls-1" points="586.12 7.01 528.4 0 533.85 14.74 544.77 18.89 574.63 17.89 586.12 7.01"/><polygon class="cls-9" points="534.86 26.47 487.33 19.75 533.85 14.74 574.63 17.89 534.86 26.47"/><polygon class="cls-24" points="534.57 23.47 521.08 19.32 534.72 17.46 547.06 18.89 534.57 23.47"/><polygon class="cls-1" points="534.57 23.47 512.89 20.32 521.08 19.32 534.57 21.32 547.06 18.89 554.53 19.75 534.57 23.47"/><polygon class="cls-11" points="301.96 313.8 301.39 310.51 314.45 310.94 314.17 313.8 301.96 313.8"/><polygon class="cls-20" points="609.38 209.63 618.71 214.64 620.73 224.8 610.82 218.36 609.38 209.63"/><polygon class="cls-38" points="663.37 115.47 661.07 137.65 654.32 137.37 657.2 114.76 663.37 115.47"/><polygon class="cls-30" points="774.94 203.04 779.1 203.33 766.89 280.17 813.99 287.18 813.85 291.33 761.15 283.32 774.94 203.04"/></g></svg>