<svg xmlns="http://www.w3.org/2000/svg" id="a" viewBox="0 0 900 350"><defs><style>.j{fill:#735283}.aa,.ab,.ac,.ad,.ae,.ag,.ai,.aj,.al,.am,.an,.ao,.ap,.aq,.ar,.as,.au,.av,.aw,.ax,.az,.bb,.bc,.bd,.be,.bg,.bh,.bi,.bj,.bk,.bl,.bm,.bn,.j,.k,.m,.n,.o,.q,.s,.t,.u,.w{stroke-width:0}.ab,.ac,.ai,.aj,.am,.an,.aq,.ar,.au,.av,.aw,.bc,.bh,.k,.u{fill-rule:evenodd}.az,.k{fill:#5e436b}.m{fill:#89909b}.n{fill:#1d2432;opacity:.1}.bh,.o{fill:#7a578a}.s{fill:#9f80ae}.q{fill:#545c6d}.bm{fill:#f3eff5}.an,.t{fill:#9471a4}.u{fill:#c3987b}.ad{fill:#734d61}.w{fill:#4a3554}.aa,.au{fill:#583f64}.ab{fill:#734c5f}.ac,.bd{fill:#787f8d}.ae,.av{fill:#b3889d}.be{fill:#5f6878}.ag{fill:#abafb8}.ai{fill:#8e699f}.aj,.bg{fill:#96637c}.bn{fill:#ab90b8}.al{fill:#6c4d7b}.am,.bj{fill:#cfbfd6}.ao{fill:#404857}.ap{fill:#c3b0cc}.aq{fill:#543042}.ar{fill:#dfbda5}.as{fill:#654873}.aw{fill:#5e3a4c}.ax{fill:#d1a1b8}.bb{fill:#dbcfe0}.bc{fill:#8b6651}.bi{fill:#b7a0c2}.bk{fill:#232a38}.bl{fill:#88619a}</style></defs><g id="b"><path d="m323.82 325.88-4.07-4.88 59.63-11.27 107.56-8.15 62.57 2.89 21.5 1.98 56.82 11.64-55.18 15.36-131.14 4.8-9.37-5.31-2.88 3.83-105.44-10.89zM651.85 310.29v-15.31l127.46-9.06 69.68 6.77 41.29 10.93-49.5 15.76-90.1 3.8-8.13-6.11-6.55 3.88-84.15-10.66zM8.78 296.27l31.14-4.55 41.65-2.84 97.21 5.54 32.97-8.9 17.19 12.59-18.67 2.4-10.08 8.58-78.6 10.83-9-5.81-3.89 8.07-73.93-3.27-25.99-22.64z" class="n"/></g><g id="c"><path d="m832.3 312.19-12.33-1.76-9.29-19.22 25.66 3.93-4.04 17.05z" class="be"/><path d="m848.41 297.17-1.82 13.26-14.29 1.76-5.15-21.65 21.26 6.63zM750.68 323.18l13.89-2.73 8.45-21.95-21.45 12.26-3.32 3.57 2.43 8.85z" class="ao"/><path d="m751.57 310.76-.89 12.42-14.68-2.23-5.36-20.28 20.93 10.09z" class="be"/><path d="m651.85 310.29 11.1-1.53 8.51-18.56-17.16.29-5.75 5.36 3.3 14.44z" class="ao"/><path d="m638.21 295.17.67 12.88 12.97 2.24 3.69-20.09-17.33 4.97z" class="be"/><path d="m633.23 227.19 4.98 67.98 113.36 15.59 19.79-73.04-19.79-6.67-118.34-3.86z" class="t"/><path d="m751.57 310.76 96.84-13.59 9.95-77.66-68.85 2.91-33.93 19.82-4.01 68.52z" class="j"/><path d="m614.27 197.44 2.57 12.76 4.33 3.52-3.11 2.48 2.53 12.58 134.99 13.46 20.89-33.31-162.2-11.49z" class="ae"/><path d="m755.58 242.24 120.19-16.05 2.26-10.99-3.88-1.42 5.12-4.58 1.95-9.5-92.88 1.94-31.45 15.71-1.31 24.89z" class="bg"/><path d="m881.22 199.7-57.28-5.28-94.64-11.39-115.03 14.41 142.62 19.91 124.33-17.65z" class="ax"/><path d="m616.84 210.2 139.53 16.99 5.35 2.99-5.63 2.38-138.03-16.36-1.22-6z" class="bi"/><path d="m756.37 227.19 122.9-17.99-1.24 6-121.94 17.36.28-5.37z" class="s"/><path d="m648.72 241.5 90.34 10.34-3.29 43.85-85.05-11.87-1.14-25.95 2.8-1.93-3.06-3.05-.6-11.39z" class="bi"/><path d="m649.58 257.87 10.08 1.12.25-4.73-10.59-1.37.26 4.98z" class="bl"/><path d="m773.11 253.24 64.27-11.34-5.36 41.39-62.15 8.51 3.24-38.56z" class="t"/><path d="m848.66 196.7-15.62 7.98-63.78.31h-30.83l11.76-8.29 34.19-5.86 39.56 3.58 24.72 2.28z" class="n"/></g><g id="d"><path d="m670.03 104.09.3 5.09 1.28 1.2-1.2.21.23 4.02.65.82-.55.77.23 4.03.66.63-.59.58.25 4.23.89.86-.79.91.26 4.5 18.7 5.57 6.91-7.82-4.18-27.46-8-1.09-15.05 2.95z" class="as"/><path d="m692.05 118.47.12-1.27-21.53-2.59.1 1.59 21.31 2.27zM691.44 111.62l-21.11-2.44.08 1.41 20.91 2.37.12-1.34zM691.5 122.35l-20.53-2.12.07 1.21 20.22 2.13.24-1.22zM691.32 128.3l-20.03-2.63.1 1.77 19.75 1.77.18-.91zM687.47 77.19l8.04-5.34 11.64.25-8.98 9.45-10.7-4.36z" class="t"/><path d="m687.47 77.19 17.01-4.37-5.09-30.31-13.45 2.94 1.53 31.74z" class="as"/><path d="m715.13 65.06-15.74-22.55-1.94 35.89-9.98-1.21-1.53-31.74-18.6 16.95 2.69 41.69 17.59 1.77 1.28 27.83-17.25-1.75 3.74 57.84 37.82 5.02 6.79-90.69-4.87-39.05z" class="j"/><path d="m715.13 65.06 17.7-3.63 4.39 129.98-24.01 3.39 1.92-129.74z" class="as"/><path d="m699.39 42.51 19.4-4.12 14.04 23.04-17.7 3.63-15.74-22.55z" class="t"/><path d="m708.24 45.54 8.73-2.42 8.12 14.31-8 1.33-8.85-13.22z" class="al"/><path d="m708.81 48.85 11.55-2.09.73 1-11.55 2.36-.73-1.27zM712.54 53.49l10.91-1.91.55 1-10.82 2.18-.64-1.27z" class="t"/><path d="m711.72 44.03 9.46 15.18 1-.18-9.73-15.46-.73.46zM680.05 89.22l.38 2.94 22.96 1.88.19-2.63-23.53-2.19zM703.66 90.22l.21-2.85-24.16-2.63.26 3.05 23.69 2.43zM720.78 70.13l6.53-1.19.39 3.17-6.82 1.09-.1-3.07zM721.38 77.84l6.13-.89.19 2.67-6.22.89-.1-2.67zM721.67 85.36l6.12-.99.21 2.67-6.33 1.18v-2.86zM680.3 144.48l2.58.31.33 4.54-2.68-.12-.23-4.73zM681.27 154.85l2.44.12.3 4.3-2.58-.24-.16-4.18zM682.09 164.97l2.33.25.33 4.06-2.34-.37-.32-3.94zM682.93 175.04l2.42.13.24 4.54-2.36-.26-.3-4.41z" class="t"/><path d="m759.65 72.76 12.36 2.19 5.64 24.19-2 78.23-8.18 16.87-16.27-2.77 8.45-118.71z" class="ax"/><path d="m772.01 74.95 12.37-2.19 3.46 118.14-20.37 3.34 4.54-119.29z" class="ae"/><path d="m764.1 78.77 2.91.54-.45 6.09-2.82-.54.36-6.09zM763.65 88.68l2.36.45-.27 5.19-2.64-.64.55-5zM776.74 79.04l2.46-.73.36 6.28-2.91.54.09-6.09zM776.74 89.13l2.73-.63.18 5.45-2.63.46-.28-5.28z" class="bm"/><path d="m759.65 72.76 3.73-8.85 1.81-1.24-.63-1.55 5.61-13.31 3.66 14.41-1.82 12.73-12.36-2.19z" class="o"/><path d="m770.17 47.81 7.48 13.13-.91 2.06 2.48.71 5.16 9.05-12.37 2.19-1.84-27.14z" class="al"/><path d="m764.56 61.12 6.6 1.2 1.94 1.62-1.76 1.12-7.96-1.15 1.18-2.79z" class="al"/><path d="m771.16 62.32 6.49-1.38 1.57 2.77-7.88 1.35-.18-2.74z" class="az"/><path d="m776.33 120.74-7.07 74.06 31.27 3.97-3.9-78.66-20.3.63z" class="bg"/><path d="m792.5 125.44 4.13-5.33 40.76-1.13-1.57 8.77-4.72 4.12 3.7 1.63-.6 3.34-2.32 2.31 1.62 1.63-.84 4.72-1.56 2.36.8 1.87-.8 4.53-3.06 2.35 2.31 1.82-.81 4.54-2.64 2.31 1.9 1.85-.76 4.27-2.57 3.6 1.51 2.33-3.04 17.09-23.41 4.35-1.9-17.33 1.9-3.01-2.38-1.41-.52-4.72 1.57-2.23-1.95-1.22-.54-5.01 1.44-1.87-1.81-1.49-.54-4.91 1.45-2.24-1.86-1.55-.57-5.22 1.52-1.96-1.92-1.68-.47-4.29 1.44-1.94-1.89-2.14-1-9.11z" class="ad"/><path d="m776.33 120.74 36.78-5.83 24.28 4.07-44.89 6.46-16.17-4.7z" class="ax"/><path d="m798.93 118.28 12.38-1.25 3.22 1.65-13.17 1.64-2.43-2.04z" class="n"/><path d="m796.51 120.32 1.53-28.16 2.37.47.95 27.69h-4.85z" class="j"/><path d="m782.02 128.05 6.91 1.91.27 2.91-7.73-2 .55-2.82zM781.47 134.24l7.64 2.27.18 2.64-8.46-2 .64-2.91z" class="ax"/><path d="m826.98 177.33 1.06-5.93-29.89 5.62.48 4.42 28.35-4.11zM832.66 145.5l-37.27 6.28.41 3.79 36.1-5.84.76-4.23zM835.82 127.75l-42.32 6.8.45 4.08 40.85-5.13 1.02-5.75zM833.5 140.78l.7-3.94-39.78 6.08.4 3.64 38.68-5.78zM828.8 167.13l.74-4.16-32.29 5.88.38 3.45 31.17-5.17zM830.35 158.43l.75-4.17-34.76 6.22.37 3.36 33.64-5.41z" class="ae"/><path d="m697.93 172.98 2.43 27.03 7.75 1.02 2.34-2.86 2.17 3.45 4.02.52 1.18-1.71 2.98 2.25 4.82.63 1.93-1.69 1.81 2.18 9.07 1.19 13.09-28.5-23.76-.24-29.83-3.27z" class="o"/><path d="m738.43 204.99 35.4-6.67 3.64-30.07-34.8 11.52-2.06 2.3-2.18 22.92zM711.09 184.8l-4.37-.67 1.39 16.9 4.51.59-1.53-16.82zM725.62 203.31l3.74.49 1.55-16.46-4.36-.6-.93 16.57zM720.97 186.07l-4.85-.61.52 16.68 4.16.54.17-16.61z" class="as"/><path d="m692.96 148.48-1.7 25.22 49.35 8.37 1.82-15.76 4.3-14.79-53.77-3.04z" class="bl"/><path d="m738.06 156.49 15.52-7.16 31.77-3.63-.85 26.91-43.89 9.46-2.55-25.58z" class="aa"/><path d="m699.63 156.61 30.67 4.73.37 3.39-31.16-4.73.12-3.39zM699.99 164.85l30.56 5.09.36 3.64-31.28-4.97.36-3.76z" class="bj"/><path d="m746.79 161.7 6.43-1.46.36 3.16-6.66 1.45-.13-3.15zM747.28 169.1l6.18-1.34.12 3.64-6.06 1.21-.24-3.51z" class="ap"/><path d="m692.96 148.48 37.55-12.32 54.84 9.54-47.29 10.79-45.1-8.01z" class="bn"/><path d="m738.43 151.39-7.92-15.23 54.84 9.54-22.5 5.13-24.42.56z" class="n"/><path d="m707.51 136.24 1.45 10.22 29.47 4.93 8.85-14.06-30.31-.24-9.46-.85z" class="o"/><path d="m738.43 151.39 26.67-5.21 1.09-9.34-26.06 4.01-.97 2.25-.73 8.29z" class="as"/><path d="m697.26 103.62 45.29 1.62-3.39 37.86-41.35-6.41-.55-33.07z" class="bl"/><path d="m737.22 111.27 9.45-7.65 35.11-.95-2.72 34.84-39.9 5.59-1.94-31.83z" class="aa"/><path d="m697.26 103.62 36.67-9.58 47.85 8.63-44.56 8.6-39.96-7.65z" class="bn"/><path d="m703.02 110.78 27.65 5.21.12 3.39-27.4-4.97-.37-3.63zM703.51 119.51l27.16 4.6.24 3.64-27.28-4.61-.12-3.63zM704.11 127.75l26.92 4.61.37 3.64-27.16-4.61-.13-3.64z" class="bj"/><path d="m708.84 109.81 1.22 23.76 1.81.97-1.81-23.76-1.22-.97zM715.27 111.75l1.58 23.28 1.33.12-1.09-22.56-1.82-.84zM722.79 113.2l1.33 23.28 1.21-.36-.72-23.4-1.82.48z" class="bl"/><path d="m744.37 116.11 29.95-5.82-.49 3.88-29.22 5.7-.24-3.76zM744.73 124.23l29.1-4.72-.48 3.51-28.37 4.85-.25-3.64zM745.22 132.72l28.01-4-.25 3.15-27.64 4.13-.12-3.28z" class="ap"/><path d="m750.92 113.14.85 23.58.97-.24-.55-24.19-1.27.85zM758.55 112.35l.43 22.61.97-.18.42-23.1-1.82.67zM766.74 110.11l-1.4 24.13 1.28-.06.97-24.01-.85-.06z" class="aa"/><path d="m754.92 178.99 5.45-1.18 2.19-20.75 15.09 12.22-8.39 35.71-16.52-2.7 1.01-10.84 2.08-1.2-1.77-2.12.25-2.67 2.97-.17-2.74-2.33.38-3.97z" class="bl"/><path d="m769.26 204.99 17.42-2.31 1.48-12.48-2.2-.86 2.5-1.73.28-2.32-2.78-1.16 3.23-2.69 1.62-13.68-12.25-.63-6.55 4.27-2.75 33.59z" class="aa"/><path d="m790.81 167.76-13.34-13.86-14.91 3.16 9.45 14.34 18.8-3.64z" class="t"/><path d="m754.54 182.96 16.36 2 2.08 1.66-2.3.99-16.37-2.15.23-2.5zM754.06 188.13l16.37 2.5 2.55 1.93-2.83 1.51-16.4-2.62.31-3.32z" class="ap"/><path d="m770.9 184.96 18.29-3.52-.45 3.85-18.06 2.32.22-2.65zM770.43 190.63l18.03-3.02-.3 2.59-18.01 3.87.28-3.44z" class="t"/><path d="m760.37 177.81-5.83 5.15.38-3.97 5.45-1.18z" class="n"/></g><g id="e"><path d="m396.14 141.79-10.03 126.07-8.78 2.91-2.2-21.03 3.96-93.42 5.62-13.02 11.43-1.51z" class="ax"/><path d="m383.71 143.3-6.38 127.47-6.81-2.76 1.83-131.22 11.36 6.51z" class="ae"/><path d="m455.06 111.73-100.67 7.48v23.2l5.63 10.22 92.15-11.59 2.89-29.31z" class="o"/><path d="m362.76 127.25-11.87-7.27-43.77-3.53 4.72 26.9 48.18 9.28 2.74-25.38z" class="al"/><path d="m455.06 111.73-61.27-9.13-86.67 13.85 55.64 10.8 92.3-15.52z" class="s"/><path d="m419.37 106.41-25.58-3.81-44.14 7.05 4.11 4.52 40.37.56 25.24-8.32z" class="n"/><path d="m387.32 83.87.71 27.86h-5.44l-5.56-30.56 10.29 2.7z" class="ad"/><path d="m435.27 108.78-41.48-6.18 5.36-86.12 49.09 10.03-12.97 82.27z" style="fill:#9f80ae;opacity:.2;stroke-width:0"/><path d="m349.65 96.12 2.42 6.48 5.46-9.04 2.2 7.75 5.9-10.39-3.09-1.75-12.89 6.95z" class="bb"/><path d="m330.11 89.17 1.16 9.16 5.24-6.88 1.06 9.06 4.92-6.94 2.03 9.03 5.13-6.48-7.15-6.95h-12.39z" class="bb"/><path d="m347.22 73.36 2.43 22.76 15.98-5.2 21.69-7.05 8.09-.36 6.23 4.02 15.59 3.99 14.25-26.07-20.43-12.26-63.83 20.17z" class="bi"/><path d="M335.65 73.06v6.17l-3.38 3.67-2.16 6.27 19.54 6.95 1.7-9.23-1.7-3.99 3.44-5.44-3.44-4.87-14 .47z" class="s"/><path d="m411.05 53.19-28.46-5.03-46.94 24.9 17.44 4.4 57.96-24.27z" class="bb"/><path d="m353.09 77.46-8.04 5.17 6.3 4.26 1.74-9.43zM335.65 73.06l3.46 8.11-6.84 1.73 3.38-9.84zM409.58 59.7l5.94 9.77-10.34 4.4-3.16-7.34 7.56-6.83z" class="al"/><path d="m415.52 69.47-13.5-2.94-4.88 4.41 7.59 6.52 10.79-7.99z" class="bl"/><path d="m387.32 83.87 8.67-7.59 5.65 11.25-14.32-3.66z" class="s"/><path d="m370.97 34.15 77.27-7.64-12.97 82.27-73.24 12.32 8.94-86.95z" style="fill:#f3eff5;opacity:.2;stroke-width:0"/><path d="m311.92 27.51 59.05 6.64-8.94 86.95-36.42-7.61-13.69-85.98z" style="fill:#cfbfd6;opacity:.2;stroke-width:0"/><path d="m311.92 27.51 87.23-11.03 49.09 10.03-77.27 7.64-59.05-6.64z" style="fill:#f7f5f6;opacity:.3;stroke-width:0"/></g><g id="f"><path d="m213.59 171.64 15.35 126.47 82.17-7.81-14.79-119.04-82.73.38z" class="m"/><path d="m228.94 298.11-11.88-1.93-58.75-10.09L173 172.79l50.55 1.15 8.43 8.04-3.04 116.13z" style="fill:#68707f;stroke-width:0"/><path d="m173 172.79 58.98 9.19 64.34-10.72-68.11-10.28L173 172.79z" class="ag"/><path d="m188.08 169.56 21.47 5.07 25.87-1.84-7.21-11.81-40.13 8.58z" class="n"/><path d="m245.64 191.92 37.53-5.62 3.83 37.53-42.58 8.51 1.22-40.42z" class="o"/><path d="m183.85 183.51 33.45 4.85-1.98 14.49-32.95-5.15 1.48-14.19z" class="as"/><path d="M190.74 190.41 209 192.7l-.51 2.05-18.13-2.43.38-1.91zM254.38 198.26l21.07-3.35.09 1.91-21.35 3.26.19-1.82zM259.36 203.04l11.59-1.81.28 1.91-11.68 2.01-.19-2.11z" class="s"/><path d="m260.32 214.73 11.58-1.63.39 6.7-11.3 2.2-.67-7.27z" class="ae"/><path d="m258.85 55.7 4.29 15.12L255 77.8l-3.44-21.24 7.29-.86z" class="q"/><path d="m240.22 144.66 8.95-7.19-6.52-2.1-7.45 6.81 2.15 4.66 2.87-2.18z" class="ag"/><path d="m216.93 82.64 17.2-18.27 29.01 6.45-26.86 18.48-19.35-6.66z" class="bn"/><path d="m238.96 74.04-1.61-3.22 8.58-3.82 7.59 1.68-14.56 5.36z" class="n"/><path d="m263.14 70.82 6.06 10.02.39 10.51 10.96 8.27-19.99 12.25-28.58-8.81 3.87-19.34 27.29-12.9z" class="t"/><path d="m235.85 83.72 1.5 10.53-14.61 20.63-28.81-6.23 6.88-4.94-.75-10.8 6.34-16.29h22.25l7.2 7.1z" class="o"/><path d="m237.35 94.25 21.5 10.74-4.95 20.85-25.79 3.23-9.03-21.07 18.27-13.75z" class="bl"/><path d="m280.55 99.62-4.4 5.37 1.15 5.54-2.96 9.94-4.53 3.22 1.72 6.24-18.92-1.94-2.79-8.16 9.03-14.84 21.7-5.37z" class="o"/><path d="m193.93 108.65 6.24 3.98.8 6.3 6.94 10.14 3.43-.22-1.07 3.66 14.83.43 6.88-9.25-12.9-15.69-25.15.65z" class="al"/><path d="m271.53 129.93-10.86-1.11-.61 4.97-10.89 3.68-10.21 1.95-3.76 2.76-8.38-8.17 5.16-10.32 17.84-3.86 21.71 10.1z" class="al"/><path d="m210.27 132.51 21.71-8.82 3.22 18.49-2.84-2.76-6.6-.9-4.81-1.87-3.23-4.14h-7.45z" class="az"/><path d="m255.26 85.79-9.02 2.3-4.88 8.16 1.15 3.37 5.8.11 5 3.98 6.29 5.69 20.95-9.78-11.35-18.78-6.06 2.95-2.86 11.96-8.6-2.84 3.73-3.61-.15-3.51z" class="o"/><path d="m241.36 96.25-1.14 5.74 3.58 3 4.51-5.26-6.95-3.48zM232.77 111.87l3.58-5.59 2.61.86-1.61 7.63-4.58-2.9z" class="as"/><path d="m248.31 99.73 3.92 7.15-6.93 2.56-1.03 11.59 6.18 1.38 8.4-7.53v-9.89l-10.54-5.26z" class="as"/><path d="m258.85 104.99 21.7-5.37-3.25 10.91-8.35-.91-2.58 4.4 7.97 6.45-2.81 9.46-10.57-2.37-11.14-7.73 9.03-14.84z" class="az"/><path d="m249.82 119.83 1.74 7.09 8.5 6.87 11.47-3.86-21.71-10.1zM249.17 137.47l-14.93-.82-1.16 2.52 2.12 3.01 13.97-4.71z" class="aa"/><path d="m234.24 136.65-8.48 1.87 9.44 3.66-.96-5.53z" class="w"/><path d="m228.65 91.35 3.33-3.87 3.22 3.87-4.62 2.9-1.93-2.9zM218.11 94.25l8.71 3.87-1.54 5.22-6.2 4.66-8.81 3.59-16.34-2.94 6.13-15.74 6.34 7.71 7.63-1 4.08-5.37z" class="az"/><path d="m219.08 108-7.63 10 5.37 4.94 8.35 3.52-4.91 4.54-9.99 1.51-2.36-3.44 2.79-3.87-3.44-6.88-6.29.61-7.04-10.28 25.15-.65z" class="aa"/><path d="m225.17 126.46-4.22 10.19-10.68-4.14 14.9-6.05z" class="w"/><path d="m235.85 83.72-1.72-19.35-27.73 12.25 29.45 7.1z" class="t"/><path d="m275.54 168.12-4.31-9.88-44.21 3.39 2.56 6.18 5.84 4.98 40.12-4.67z" class="ae"/><path d="m235.42 172.79-36.76-5.49 3.64-7.72h22.02l9.21 5.74 1.89 7.47z" class="bg"/><path d="m271.23 158.24-37.05-5.53-31.88 6.87 31.23 5.74 37.7-7.08z" class="ax"/><path d="m217.04 156.4 12.54 6.05 28.54-4.21-5.24-2.74-18.7-2.79-17.14 3.69z" class="n"/><path d="m232.77 158.69 2.43-16.51 5.02 2.48 1.14 14.03h-8.59zM230.48 60.14l4.51 13.9h3.97l1.26-11.32-.18-2.58h-9.56z" class="m"/><path d="m230.48 60.14 15.9-6.44 12.47 2-18.63 7.02-9.74-2.58z" class="ag"/></g><g id="g"><path d="m200.19 309.09-12.02-1.85-9.39-17.13 22.41 1.61.64 8.79-1.64 8.58z" class="q"/><path d="m54.38 313.22 11.13-1.28 6.66-14.68-17.79 2.75-1.53 5.23 1.53 7.98z" class="bd"/><path d="m39.19 300.58 4.72 11.11 10.47 1.53 4.3-14.43-19.49 1.79zM108.7 322.18l-12.64-2.17-6.32-12.92 17.42 1.43 5.43 5.59-3.89 8.07z" class="q"/><path d="m125.49 309.01-3.9 10.91-12.89 2.26-1.85-8.07 9.32-7.02 9.32 1.92zM217.06 296.18l-3.23 10.84-13.64 2.07-2.76-10.81 9.81-5.36 9.82 3.26z" class="bd"/><path d="m213.83 244.92-60.51-17.13-27.83 5.64 68.93 22.44 19.41-10.95z" class="t"/><path d="m137.74 233.43 54.9 15.58 8.55 19.02-3.76 30.25-67.09-14.3 7.4-50.55z" class="aa"/><path d="m127.25 143.62 23.51 114.83-25.02 14.81-51.06-.55-13.53-46.17-1.28-67.69 67.38-15.23z" class="ae"/><path d="m59.87 158.85-12.75 1.14L53 270.92l21.68 1.79-14.81-113.86zM73.74 152.23l19.85 122.2 4.09.51-21.13-125.01-2.81 2.3zM91.1 147.65l22.09 121.78 2.55-2.04-21.58-121.53-3.06 1.79zM108.7 144.57l23.68 121.29 2.81-1.28L112 142.54l-3.3 2.03z" class="bg"/><path d="m59.87 158.85 67.38-15.23 6.15-13.31-74.3 10.94.77 17.6z" class="al"/><path d="M64.47 145.33v-7.15l-14.03-8.38-9.97 13.81 6.65 16.38 12.75-1.14 4.6-13.52z" class="aa"/><path d="m133.4 130.31-13.74-9.43-69.22 8.92 14.03 15.53 68.93-15.02zM47.87 145.39l2.85-5.1 6.34 8.11-5.11 5.61-4.08-8.62z" class="t"/><path d="m150.76 258.45 44.35 15.99-76.64 22.57-43.79-24.3 76.08-14.26z" class="ax"/><path d="m125.49 309.01 71.94-10.73 5.29-15.19-7.61-8.65-79.33 10.82 9.71 23.75z" class="ae"/><path d="m43.78 244.92-1.11 13.53 8.58 17.81-11.33 15.46-.73 8.86 67.66 13.53 3.06-55.4-36.76-9.7-29.37-4.09z" class="aa"/><path d="m99.7 260.24 1.02-3.32h18.64l6.13 52.09-18.64 5.1-7.15-53.87z" class="al"/><path d="m43.78 244.92 15.07-3.57 60.51 15.57-19.66 3.32-55.92-15.32z" class="t"/><path d="m192.64 249.01 21.19-4.09 3.23 51.26-19.63 2.1-4.79-49.27z" class="al"/><path d="m42.67 258.45 43.04 12.19 5.39 29.87-51.18-8.79.66-7.98 7.29-6.24-5.99-9.49.79-9.56z" class="j"/><path d="m40.58 283.74 33.97 4.24 1.98-8.5-34.65-11.47-1.3 15.73z" class="aa"/><path d="m107.61 267.77 6.77-2.04 4.34 38.68-6.51 2.04-4.6-38.68zM200.42 254.75l6.9-1.66 3.06 38.17-6.38.89-3.58-37.4z" class="bg"/></g><g id="h"><path d="m492.61 164.18-14.21 37.26.54 16.11 12.49 1.61 11.38-12.42-1.29-39.08-8.91-3.48z" class="ab"/><path d="m467.67 220.84 10.73-19.4 19.65 12.54-6.62 5.18-14.82 11.28-10.39-3.53 1.45-6.07z" class="aq"/><path d="m490.61 233.24 2.12 39.44 12.98 18.31 14.87-5.24 9.6-21.7-6.66-11.93-32.91-18.88zM580.64 208.17l-20.4-16.56 14.6-32.13 17.74 29.75-11.94 18.94z" class="ab"/><path d="m532.1 178.52-9.91-17.34-24.87 2.31-1.71 7.7-4.18 47.97 45.32 18.31 35.12-9.86-.85-57.89-12.31-4.81-10.34-15.16-16.27 28.77z" class="aj"/><path d="m524.01 167.84-28.4 3.35-3-7.01 28.36-10.55 3.04 14.21z" class="au"/><path d="m541.15 286.42-10.97-22.37 14.41-16.12 26.95-10.38-.35 45.01-13.88 9.43-16.16-5.57z" class="aj"/><path d="m490.61 233.24 39.57 30.81 41.36-26.5-42.32-7.87-38.61 3.56z" class="aw"/><path d="m571.19 282.56-30.04 3.86 8.36 18.05 10.8 2.8 10.7-.82.18-23.89z" style="fill:#734d61;fill-rule:evenodd;stroke-width:0"/><path d="m515.04 310.81-15.12 1.36-22.13-1.36 16.3-16.44 9.86-.55L515 299.6l.04 11.21z" style="fill:#815c92;fill-rule:evenodd;stroke-width:0"/><path d="M515.04 316.01h-37.25v-5.19h37.25z" class="aa"/><path d="m549.51 304.47-6.32 14.19 14.94 1.43 15.34-1.43-2.46-12.21-21.5-1.98z" class="an"/><path d="M573.47 323.33h-30.28v-4.68h30.28z" class="aa"/><path d="m514.95 210.99-3.08 22.2 13.63 2.14 29-1.87-1.43-16.54-7.81-24.37-11.41-18.69-13.47 17.1-5.43 20.03z" class="ab"/><path d="m539.26 162.02 31.76 7.7 3.82-10.24-26.47-9.73-9.11 12.27z" class="au"/><path d="m548.37 149.75 4.7 67.17-19.22-43.06 3.01-14.38 11.51-9.73zM533.85 173.86l-18.9 37.13 7.02-52.36 9.5 4.31 2.38 10.92zM531.1 196.86l-4 2.99 3.82 5.09 4.5-4.04-4.32-4.04zM530.92 212.48l4.22 4.86-4.73 3.4-3.95-4.45 4.46-3.81z" class="av"/><path d="m571.87 227.61-29.89-3.1-10.88.22-11.43-2.58-28.24-2.99-.82 14.08 28.63 1.38 10.41-.47 12.18 1.69 29.71 1.71.33-9.94z" class="au"/><path d="m519.24 234.62 22.59 1.22.15-11.33-22.31-2.36-.44 12.47Zm5.25-8.12 13.32 1.25.03 5.11-13.6-.81.25-5.55Z" class="av"/><path d="m560.12 118.42-7.12-2.44-12.35 8.11 6.98 7.53 19.01 3.18-6.52-16.38z" class="k"/><path d="m470.78 85.25 2.45 17.49 12.87 53.91 26.73-2.9 15.5 13.91 15.29-22.3-5.01-29.06-4.54-2.28-1.76-13.71L534.68 80 512.6 66.89l-22.49 11.04-3.71-11.97-15.62 19.29z" class="ar"/><path d="m533.83 80.28-14.88 24.23-.38 50.73 15.28 18.62 14.52-24.11-.74-18.13-1.5-3.99.28-3.87 7.65-.5 1.09-17.75-11.47-.82-4.96 9.95-3.7.11-2.05-14.23.86-20.24zM479.83 108.84l20.05-3.56 19.07-.77-10.91 9.92-6.52 17.46-21.69-23.05z" class="u"/><path d="m551.79 109.06-5.8-.23-2.18 11.33 7.98-11.1zM512.83 153.75l18.82-2.07 2.2 22.18-21.02-20.11zM546.41 123.76l-5.03.38 6.25 7.48-1.22-7.86z" class="bc"/><path d="m472.11 85.17-4.02-7.66-9.15-6.98 14.29 32.21-1.12-17.57z" style="fill:#9f80ae;fill-rule:evenodd;stroke-width:0"/><path d="m533.83 80.28 13.92-6.94 22.27-5.22-6.3 32-18.77 1.43-15.3-1.26 4.18-20.01z" class="an"/><path d="m472.11 85.17 13.92-14.91 8.19-6.72 8.69-11.38-43.97 18.37 13.17 14.64zM533.83 80.28l-22.79-10.01 14.23-10.49 17.99-5.64 26.76 13.98-36.19 12.16z" class="bh"/><path d="m502.91 52.16 26.44-11.04 13.91 13.02-32.22 16.13-22.83 11.19-2.18-11.2 16.88-18.1z" class="an"/><path d="m529.65 100.29 34.07-.17-3.6 18.3-6.06 4.84.29-17.05-10.77-.02-3.54 11.2-6.43-1.41-3.96-15.69z" class="bh"/><circle cx="486.25" cy="117.82" r="3.03" class="bk"/><circle cx="507.87" cy="115.17" r="3.03" class="bk"/><path d="m520.58 285.75-27.85-13.07 1.36 21.69L515 299.6l5.58-13.85z" class="aw"/><path d="m518.67 141.34-19.4 5.08-12.33-2.48 12.05-5.69 19.68 3.09z" class="u"/><path d="m518.67 141.34-17.15-9.45-3.56 1.65-4.39-.7-6.63 11.1 31.73-2.6z" class="bh"/><path d="m497.51 106.89 4.01 25-3.56 1.65-4.39-.7-2.74-26.43 6.68.48z" style="fill:#e8cab6;fill-rule:evenodd;stroke-width:0"/><path d="m518.95 104.51-39.12 4.33-.89-5.08 37.6-1.97 2.41 2.72z" class="bh"/><path d="m493.57 132.8 4.49 2.69 3.46-3.6-7.95.91z" class="k"/><path d="m592.58 189.23-20.95 22.27 3.21 10.65 7.93-1 22.01-11.58-12.2-20.34z" class="aq"/><path d="m571.54 237.55 11.37-5.71-6.8-7-4.57 12.71z" class="u"/><path d="m571.63 211.5-8.88 9.34 8.79 16.71 11.23-16.4-11.14-9.65z" class="ar"/></g><g id="i"><path d="m393.71 320.5 11.3-1.46 9-26.7-17.62 2.2-7.18 12.74 4.5 13.22z" class="aj"/><path d="m378.43 304.72 2.66 14.13 12.62 1.65 6.28-26.68-21.56 10.9z" class="av"/><path d="m323.82 325.88 13.43-2.49 13.79-28.97-25.02 4.32-4.21 11.41 2.01 15.73z" class="aj"/><path d="m306.98 304.4 3.15 20.59 13.69.89 8.71-27.14-25.55 5.66zM441.51 338.25l-12.25-1.48-10.72-30.64 25.99 5.23v13.15l-3.02 13.74z" class="av"/><path d="m438.43 314.08 3.08 24.17 13.47-2.25 8.24-33-24.79 11.08z" class="aj"/><path d="m508.88 327.83-11.32-1.53-6.95-26.7 17.16-7.61 4.1 12.48-2.99 23.36z" class="av"/><path d="m528.11 296.6-5.91 28.68-13.32 2.55-3.57-34.85 22.8 3.62z" class="aj"/><path d="m301.65 272.07 5.33 32.33 131.45 9.68 6.1-27.94-21.14-3.58-83.49-13.63-38.25 3.14z" style="fill:#5f6878;fill-rule:evenodd;stroke-width:0"/><path d="m444.58 280.8 76-20.1 2.76 10.05-6.63 20.24L449.05 303l-4.47-22.2z" style="fill:#3d4554;fill-rule:evenodd;stroke-width:0"/><path d="m459.77 277.91 2.68 20.81 2.3-.63-1.79-20.18h-3.19zM472.79 276.38l-.89 20.17 2.43-.12 1.4-19.92-2.94-.13zM484.79 274.21l-2.17 20.43 2.17-.38 2.56-20.56-2.56.51zM495.64 271.53l-2.55 21.07 1.66-.26 4.09-21.57-3.2.76zM503.18 291.06l4.21-23.36 1.79-.13-3.83 22.6-2.17.89z" class="ac"/><path d="m514.08 263.7 4.49 5.71-6.7 17.98-57.27 10.36-2.65-11.06 2.65-5.89-19.21 10.19 3.04 23.09 89.68-17.48 7.31-35.9-21.34 3z" style="fill:#4b5464;fill-rule:evenodd;stroke-width:0"/><path d="m281.91 246.87 4.77 23.26 28.54 4 16.21-1.83 73.4 10.36 15.57 6.22 14.99 2.11 9.19-20.61-94.72-23.51h-67.95z" style="fill:#ab90b8;fill-rule:evenodd;stroke-width:0"/><path d="m435.39 290.99 16.56-4.3 12.8-7.37 51.96-14.55 8.93 2.8 21.05-5.45 5.1-25.71-91.78 15.33-26.15 23.75 1.53 15.5z" class="an"/><path d="m281.91 246.87 107.78-24.72 162.1 14.26-63 20.88-22.54 5.11-12.59 6.53-19.8 6.56-151.95-28.62z" class="am"/><path d="m315.22 274.13 5.34-10.43 95.94 15.43 3.9 9.75-105.18-14.75z" class="an"/><path d="m343.37 291.38-.92-6.68-17.61-2.04.92 7.01 17.61 1.71zM326.14 292.51l.74 5.6 17.62 1.4-.81-5.82-17.55-1.18z" class="am"/><path d="m451.95 286.69 4.57-9.9 65.06-18.09 4.06 8.87-73.69 19.12z" class="bh"/><path d="m331.65 244.87 61.1-16.87 112.56 13.67-79.13 21.03-94.53-17.83z" style="fill:#fbfafb;fill-rule:evenodd;stroke-width:0"/><path d="m345.64 248.87 75.26-18.96 2.87.58-75.25 18.96-2.88-.58zM377.24 254.04l68.36-21.25 3.07.57-68.37 22.02-3.06-1.34zM398.11 258.83l75.26-22.98 2.3.96-73.92 22.98-3.64-.96z" class="am"/><path d="M450.01 257.68 343.58 240l-2.69.96 107.78 18.06 1.34-1.34zM468.43 251.7l-108.87-16.91-1.54.96 109.45 17.29.96-1.34zM377.43 229.72l114.56 16.62-1.73.77-115.13-16.05 2.3-1.34z" class="am"/><path d="m432.14 246.06 8.71-.28 3.68 3.64-11.53.65-.86-4.01zM386.29 248.57l13.26-1.46 1.55 3.94-11.48 1.33-3.33-3.81zM381.32 238.17l9.51-.68 1.5 3.68-11.7.19.69-3.19z" class="aj"/><path d="m519.97 239.55 4.61-1.4 6.81.5-5.91 1.8-5.51-.9zM509.96 243.16l6.31-2.11 5.1.9-6.21 1.71-5.2-.5zM500.24 246.66l5.71-1.9 4.91.9-5.91 1.7-4.71-.7z" class="ai"/><path d="m453.66 268.93-12.94-2.73 7.13-2.2 2.16.05-.18-.66 5.32-1.65 2.04.17.06-.82 5.12-1.58 1.97.18v-.79l4.5-1.39 2.36.01v-.74l4.53-1.4 13.06 1.91-5.6 1.85-1.43-.12-.21.67-4.79 1.58-2.53.21.61.43-5.55 1.84-2.27-.05.33.69-6.05 2.01-1.94-.1.34.63-6.04 2z" class="aj"/><path d="m457.25 261.09-2.1.65 12.2 2.65 1.94-.64-12.04-2.66zM459.7 266.93l1.6-.53-11.47-3.01-1.98.61 11.85 2.93zM464.34 258.9l-1.97.61 12.47 2.4 1.92-.64-12.42-2.37zM471.2 256.78l-2.36.73 12.71 2.18 1.64-.55-11.99-2.36z" class="ae"/><path d="m490.74 231.04-17.95 6.66h-14.04l8.97-5.68 9.64-2.15 13.38 1.17z" style="fill:#1d2432;opacity:.1;fill-rule:evenodd;stroke-width:0"/><path d="m477.36 229.87-4.57 7.83-13.37 2.41-3.45-.69 8.13-6.57 13.26-2.98z" class="u"/><path d="m477.36 229.87-21.39 9.55 8.13-6.57 13.26-2.98z" class="bc"/><path d="m467.67 220.84-13.09 2.18.37 8.77 9.15 1.79 13.26-3.71-9.69-9.03z" class="ar"/><path d="m454.58 223.02-9.04 14.63 10.43 1.77 8.13-5.84-9.52-10.56z" class="u"/></g></svg>