<svg xmlns="http://www.w3.org/2000/svg" id="a" viewBox="0 0 900 350"><defs><style>.aa,.ab,.ac,.ad,.ae,.af,.ag,.ah,.ai,.aj,.ak,.al,.an,.ao,.aq,.ar,.as,.at,.au,.av,.aw,.az,.ba,.bb,.bc,.bd,.be,.bf,.bg,.bh,.k,.l,.m,.o,.q,.s,.u,.v,.x,.y,.z{stroke-width:0}.au,.k{fill:#735283}.l{fill:#eeeff1}.aa,.ab,.ac,.ad,.ae,.af,.ag,.ah,.ai,.aj,.ak,.al,.ao,.aq,.ar,.as,.at,.au,.av,.aw,.az,.ba,.bb,.bc,.bd,.be,.bg,.bh,.l,.m,.o,.q,.s,.u,.y,.z{fill-rule:evenodd}.m{fill:#5e436b}.ak{fill:#89909b}.o{fill:#dddfe2}.ah{fill:#9471a4}.q,.x{fill:#c3987b}.ba{fill:#8b6651}.s{fill:#734d61}.u{fill:#815c92}.at,.v{fill:#583f64}.y{fill:#5f6878}.z{fill:#bbbfc6}.aa{fill:#d1a1b8}.ab{fill:#8e699f}.ac{fill:#96637c}.ad,.an{fill:#734d60}.ae{fill:#ab90b8}.af{fill:#513a5c}.ag{fill:#cfbfd6}.ai{fill:#abafb8}.aj{fill:#e7dfea}.al{fill:#b7a0c2}.ao{fill:#c3b0cc}.aq{fill:#543042}.ar{fill:#dfbda5}.as{fill:#9f80ae}.av{fill:#b3889d}.aw{fill:#654873}.az{fill:#dbcfe0}.bb{fill:#1d2432;opacity:.1}.bc{fill:#88619a}.bd{fill:#7a578a}.be{fill:#cccfd4}.bf{fill:#232a38}.bg{fill:#6c4d7b}.bh{fill:#9a9fa9}</style></defs><g id="b"><path d="m226.56 324.21-16.7-14.39 55.3-2 31.23-5.34 20.48.26 11.96-3.45 15.81-2.48 65.87-11.68 88.85-1.34 54.38 8.42-1.5 17.28-31.05 2.89 11.87 8.68 35.91-.6 31.12-6.86 17.96 6.63-45.83 4.04-21.4 15.56-74.44-11.04-16.16-11.25-8.54-6.56-10.53 8.58-58.44-.5-5.01 1.56-1.44 4.83-33.19 5.23-12.09-5.91-8.23 5.91-96.19-6.47z" class="bb"/><path d="m552.62 282.51 33.36-5.04 57.88-3.65 60.11-2.27 31.5 14.83-8.17 9.96-59.78 5.44-11.04-5.44-2.27 6.8-86.24-4.35-15.35-16.28zM740.71 294.98l37.83-1.62 35.69 1.34 30.83 3.26-21.03 14.36-53.29 1.41-30.03-18.75z" class="bb"/></g><g id="c"><path d="m751.32 141.13-10.92-7.95-1.24 11.01 5.74 3.64 6.42-6.7z" class="ah"/><path d="m752.47 159.99-10.34 10.24-1.06-10.34 6.42-2.39 4.98 2.49z" class="aw"/><path d="m741.07 143.23 10.25-2.1 1.15 18.86-11.49 1.72.09-18.48z" class="au"/><path d="m741.62 127.99 3.67 97.76-26.75 2.12-1.93-66.81 5.35-35.07 19.66 2z" class="z"/><path d="m723.32 130.91-9.02-8.29-17.75 3.37-8.11 97.53 30.1 4.35 4.78-96.96z" class="bh"/><path d="m741.62 127.99-4.81-6.16-3.01-.65.72-2.29-3.57-4.57-4.81-1.05-4.18 2.75 1.36 14.89 18.3-2.92z" class="ac"/><path d="m721.96 116.02-4.92-3.23-6.56.64-4.6 4.15v2.29l-2.98.39-6.35 5.73 26.77 4.92-1.36-14.89z" class="s"/><path d="m734.52 118.89-12.05 2.71-1.69 1.02 1.98 2.16 14.05-2.95-2.29-2.94z" class="av"/><path d="m722.47 121.6-16.59-4.02-2.98 2.68 19.86 4.52-.29-3.18z" class="ac"/><path d="m711.2 134.04 6.9 1.15-.58 5.36-7.18-1.15.86-5.36zM700.48 132.32l7.27 1.34-.67 4.98-6.89-1.15.29-5.17z" class="ab"/><path d="m728.63 136.34 9.09-1.44 1.25 26.43-11.3 1.24.96-26.23z" class="ak"/><path d="m731.34 139.6 3.7-.58.9 19.28-4.92.57.32-19.27z" class="z"/><path d="m730.32 143.04 5.62-.95.06 1.02-5.55.95-.13-1.02zM730.06 146.87l6.51-1.21-.19 1.21-6.19.9-.13-.9zM730.13 150.77l6.19-.83.19 1.15-6.38.7v-1.02zM730.06 154.85l6.9-.76-.13 1.02-7.02.83.25-1.09z" class="ak"/><path d="m721.96 116.02-2.91-7.35 12.74-1.24-.84 6.89-8.99 1.7z" class="au"/><path d="m721.06 109.63-2.1-2.49-8.72.48.24 5.81 11.48 2.59-.9-6.39z" class="aw"/><path d="m710.24 107.62 9.96-2.97 11.59 2.78-10.73 2.2-10.82-2.01z" class="ah"/><path d="m712.83 106.85 7.37-2.2 4.04.97h-2.28l-.94 1.52-4.41.76-3.78-1.05z" class="bb"/><path d="m721.02 107.14 3.22-1.52 2.94-35.31-8.56.59 2.4 36.24z" class="al"/><path d="m721.02 107.14-4.06-1.52-1.74-34.72 5.98.05-.05 1.77-.13 34.42z" class="as"/><path d="m715.22 70.9 4.83-1.73 7.13 1.14-6.03 2.41-5.93-1.82z" class="ao"/></g><g id="d"><path d="m439.81 45.96-12.22-10.91 1.75-2.44h6.73l3.74 13.35z" class="aw"/><path d="m415.94 22.6 18.32-9.64-4.92 16.66-8.81-1.02-4.59-6z" class="av"/><path d="m408.15 36.64 7.79-14.04 9.65 4.53 2.6 2.49-20.04 7.02z" class="aa"/><path d="m420.63 24.8 10.02-3.51 1.21 5.84H421.3l-.67-2.33z" class="bc"/><path d="m420.63 24.8-.97 7.81 8.53-1.52-2.6-3.96-4.96-2.33zM439.81 45.96l-10.47-19.15 3.19-1.66 15.96 25.79-8.68-4.98z" class="au"/><path d="m699.19 18.32-18.29-1.39 10.53 11.21 5.55-3.87 2.21-5.95z" class="aa"/><path d="m707.61 26.94-8.42-8.62-6.9 6.34 1.96 2.28h13.36z" class="av"/><path d="m697.65 26.94-1.78-5.57-5.54 1.16 1.96 2.13-.86 1.21 6.22 1.07z" class="bc"/><path d="m695.87 21.37-9.09-.46 2.06 4.8 3.45-1.05 3.58-3.29zM680.45 36.64l6.28-8.27h2.11l-5.17 11.29-3.22-3.02z" class="au"/><path d="m680.9 43.78 61.07 8.48-3.75-3.97-5.65.25-32.59-6.1-22.85-2.78-.7 1.86 4.47 2.26z" class="m"/><path d="m680.45 36.64 52.12 11.9-52.89-7.82-1.68-2.04 2.45-2.04z" class="bg"/><path d="m628.13 8.83-21.85 7 18.8 7.01 10.41-1.47-7.36-12.54z" class="aa"/><path d="m657.23 13.53-29.1-4.7 2.78 10.45 5.49 3.56 20.83-9.31z" class="av"/><path d="m628.95 11.92 12.17 5.13-9.61 4.88-3.3-2.65.74-7.36z" class="bc"/><path d="m628.95 11.92-8.43 5.9 10.99 4.11-2.56-10.01z" class="au"/><path d="m626.08 25.57 3.26-.91 21.36 18.71-6.68 2.59-9.55-9.43-8.39-10.96z" class="ah"/><path d="m637.89 42.77-12.76-13.66.95-3.54 19.77 18.98-7.96-1.78z" class="aw"/><path d="m643.39 43.37-5.5-.6-24.85 27.06 2.82 7.39 12.25-9.43 15.28-24.42z" class="aw"/><path d="m619.53 70.72 23.86-27.35 1.42 5.84-6.92 11.43-10.64 14.81-7.72-4.73z" class="bd"/><path d="m625.08 73.77 19.73-24.56h7.33l-1.44 3.05-16.34 28.69-9.28-7.18zM725.32 180.1l2.23 7.2.64 4.38 6.8-1.58 4.55-7.23-7.42-3.4-6.8.63z" class="aw"/><path d="m601.57 297.16 10.71-1.61 5.77-19.85-19.82 1.1 3.34 20.36z" class="ak"/><path d="m585.98 277.47 2.61 18.16 12.98 1.53 3.45-21.46-19.04 1.77zM654.21 303.14l-13.11-1.43-4.73-20.8 20.11 3.34-2.27 18.89z" class="y"/><path d="m653.64 286.47.57 16.67 13.31-1.36 5.62-23.64-19.5 8.33z" class="ak"/><path d="m727.3 296.34-10.98-1.02-4.98-20.15 17.87 1.63-1.91 19.54z" class="y"/><path d="m743.51 278.23-2.8 16.75-13.41 1.36-3.83-23.85 20.04 5.74z" class="ak"/><path d="m753.72 219.68-10.21 58.55-89.87 8.24-11.75-51.51 46.47-8.05 65.36-7.23z" class="bc"/><path d="m753.72 219.68-6 34.41-52.46 10.52-17.14-19.47-26.25 2.26-.27-6 36.76-14.49 65.36-7.23z" class="bb"/><path d="m577.3 222.26 8.68 55.21 67.66 9-2.04-45.07-14.05-11.13-60.25-8.01z" class="aw"/><path d="m577.3 222.26 1.99 12.7 72.58 12.44-.27-6-14.05-11.13-60.25-8.01z" class="bb"/><path d="m707.75 252.6-16.31-3.6-12.47-16.75 17.82.98 10.96 19.37z" class="ae"/><path d="m767.72 203.55-1.47 9.11-2.82 2.51 2.19 1.37-4.86 29.93-53.01 6.13-14.6-16.56-41.55 5.36-9.71-29.68 125.83-8.17z" class="al"/><path d="m650.45 219.68-18.51-9.78-65.03-3.3 1.03 8.19 2.08 2.17-1.64 1.27 1 8.01 82.22 15.16-1.15-21.72z" class="ae"/><path d="m566.91 206.6 107.66-20.59 93.15 17.54-117.27 16.13-83.54-13.08z" class="aj"/><path d="M766.25 212.66 650.93 228.8l-3.42 1.05 3.6 2.4 114.51-15.71.63-3.88z" class="ah"/><path d="m650.93 228.8-82.99-14.01.44 3.44 82.73 14.02-.18-3.45z" class="u"/><path d="m593.65 237.42 19.68 3.37 2.23 2.31 2.53-1.49 21.06 3.61 1.21 12.97-44.68-6-2.03-14.77zM640.36 264.96l-20.42-2.74-2.88.6-1.59-1.2-18.9-2.53 1.66 11.82 42.87 5.89-.74-11.84z" class="ac"/><path d="m613.33 240.79.83 5.91 4.68.7-.75-5.79-4.76-.82zM615.47 261.62l.61 4.91 4.56.6-.7-4.91-4.47-.6z" class="ae"/><path d="m586.54 202.84 38.14 8.88 34.86 1.02 28.44-6.31 5.17-3.97 8.6 1.6 28.93 2.37 16.09-6.82-32.6-6.14-117.6 7.46-10.03 1.91z" class="bb"/><path d="m430.65 55.91-13.06 13.91-4.3 5.01 31.52-20.05-14.16 1.13z" class="af"/><path d="m516.6 98.81-26.24-36.99-12.55 1.28 2.02 3.73 22.97 32.89 11.53 3.67 2.27-4.58z" class="m"/><path d="m490.36 61.82-10.53 5.01-49.18-10.92 3.61-3.92 2.58-1.05-.02-1.73 2.99-3.25 50.55 15.86z" class="aw"/><path d="M512.39 100.76 485.4 64.18l-2.57-.28.8 1.12 26.49 37.41 2.27-1.67z" class="bg"/><path d="m563.66 163.72-14.69 7.85-13.8-2.41 29.49-16.54-1 11.1z" class="af"/><path d="m564.28 156.83-26.91 14.55.48 1.82 26.43-14.65v-1.72z" class="m"/><path d="m559.93 146.08 3.73 17.64 2.94-1.43.31-1.39.96.77 2.87-1.39-2.8-16.85-3.85-4.03-4.16 6.68z" class="aw"/><path d="m566.6 162.29 1.27-.62-4.07-21.69-.14.11-1.38 2.2 4.32 20z" class="au"/><path d="m474.15 94.78-3.8 21.11 15.32 2.26.96-5.73-9.52-1.16 2.02-8.83.03-4.48-5.01-3.17z" class="bg"/><path d="m577.11 109.24 8.76-17.62 15.17-14.4 1.48 12.47-24 26.2-1.41-6.65z" class="aw"/><path d="m579.98 96.32-2.87 12.92 21.72-28.93h-10.86l-6.65 6.86-1.34 9.15z" class="at"/><path d="m581.32 81.19-14.41 24.25 13.07-9.12 10.15-16.01-8.81.88z" class="aw"/><path d="m645.85 82.72-49.02-26.81-3.62 5.91 31.77 23.58 20.87 6.22v-8.9zM585.87 73.77l-4.55 7.42 60.9 24.43v-6.81l-27.58-18.5-28.77-6.54z" class="au"/><path d="m593.21 61.82 52.64 29.8-3.63 7.19-56.35-25.04 7.34-11.95z" class="aw"/><path d="m657.6 139.15 12.38-42.64-8.55-4.89-12.32 18.29 3.03 31.92 5.46-2.68z" class="bg"/><path d="m661.43 91.62-11.01 32.08-10.44-14.46 13.65-22.07 7.8 4.45z" class="as"/><path d="m601.04 153 52.56-8.04 11.02 22.78-45.78 3.83-17.8-18.57z" class="s"/><path d="m712.68 153-59.08-8.04 1.25 17.81 21.52 7.27L712.68 153z" class="aq"/><path d="m636.47 115.28-3.64 8.42 8.02 21.26 14 17.81 16.61 5.61-11.82-27.25-23.17-25.85z" class="bc"/><path d="m678 162.07-35.78-56.45-5.75 9.66 34.99 53.1 6.54-6.31z" class="ah"/><path d="m632.83 123.7-5.99 9 7.93 24.8 14.34 19.44 8.49-13.09-12.79-18.89-11.98-21.26z" class="aw"/><path d="m625.08 149.32 11.39 29.54 12.64-1.92-22.27-44.24-1.76 16.62z" style="fill:#4a3554;fill-rule:evenodd;stroke-width:0"/><path d="m644.81 144.96 17.64 19.91-7.6 2.04v-4.14l-10.04-17.81z" class="ah"/><path d="m706.88 192.1-4.73 8.2-35.39 6.05-2.33-1.64-1.86 2.35-8.97 1.54-7.75-14.24 27.58-7.08 33.45 4.82z" class="bd"/><path d="m592.23 190 4.34 10.93 9.05 1.21 1.77-1.46 4.34 2.28 7.69 1.04 1.45-2.55 3.81 3.26 8.71 1.17 2.12-1.17 3.21 1.89 14.88 2-2-11.94-20.69-9.38-38.68 2.72z" class="m"/><path d="m711.48 161.06-4.6 31.04-55.28 4.56-7.09-24.51 10.34-9.38 56.63-1.71z" class="ac"/><path d="m654.85 162.77-56.02-.48-6.6 27.71 59.37 6.66 3.25-33.89z" class="s"/><path d="m712.68 153-1.2 8.06-57.47 10.51-6.5-4.12 7.34-4.68 57.83-9.77z" class="aw"/><path d="M654.85 162.77 601.04 153l-2.21 9.29 55.18 9.28.84-8.8z" class="af"/><path d="m661.43 199.98 6.63-1.02-1.3 7.39-4.19.71-1.14-7.08z" class="ah"/><path d="m603.05 194.84 6.2.77 2.48 7.35-6.11-.82-2.57-7.3zM617.06 196.66l5.86.67 1.76 7.38-5.26-.71-2.36-7.34zM630.82 198.32l5.84.64 2.06 7.64-5.33-.72-2.57-7.56zM653.63 87.17l-7.78-4.45-25.33 54.76 4.56 11.84 28.55-62.15z" class="bd"/><path d="m661.43 91.62 6.55-11.85 23.45-4.32-13.43 9-16.57 7.17z" class="aa"/><path d="m661.43 91.62 16.66 1 13.34-17.17-30 16.17z" class="av"/><path d="M596.83 55.91 594.91 45l-17.8-9L584 48.64l12.83 7.27z" class="aa"/><path d="M596.83 55.91 577.11 36l6.12 16.85 13.6 3.06z" class="av"/><path d="m620.52 137.48-8.75-6.57-14.3 1.79 11.52 3.83 11.53.95z" class="aa"/><path d="m620.52 137.48-23.05-4.78 11.52 7.53 11.53-2.75z" class="av"/><path d="m579.98 96.32-30 2.49 11.04 8.04 9.19 1.7h5.44l4.33-12.23z" class="ac"/><path d="m579.98 96.32 4.4 26.6-17.47 11.07 3.3-25.44 9.77-12.23z" class="s"/><path d="M570.21 108.55 543.5 91.62l6.48 15.23 14.57 8.3h3.39l2.27-6.6z" class="bd"/><path d="m570.21 108.55 7.09 31.31-9.36 3.57-6.73-10.73 3.34-17.55 5.66-6.6zM543.5 91.62l-18.26 4.7L536 108.55l23.11 11.28 3.06 1.93 2.38-6.61-21.05-23.53z" class="aw"/><path d="m559.11 119.83-14.22 16.83-3.4 15.53 9.46-3.14 5.91-5.62 3.07 2.65 8.01-2.65-3.39-28.28-5.44 4.68z" class="af"/><path d="m525.24 96.32-22.44 3.4-10.91 1.58-8.66 10.7-6.12 15.48 38.91 11.33 33.96-16.71 9.13-2.27-33.87-23.51z" class="aa"/><path d="m477.11 127.48 9.52 16.86 54.86 7.85 17.62-32.36-33.87 5.65-7.4 7.62-40.73-5.62z" class="av"/><path d="m477.11 127.48 6.72-6.72 1.69 7.88 3.59 9.83 4.91-8.66 4.4-7.11 3.59 8.21 3.27 9.9 4.84-8.78 4.6-8.05 3.12 9.12 4.69 7.71 2.71-15.33 2.04-10.59 5.17 9.39 4.25 9.42 2.97-10.63 1.82-9.13 3.4 8.26 3.05 8.18 3.61-9.29-26.31 4.39-7.4 7.62-40.73-5.62z" class="ac"/><path d="m550.95 149.05 7.2-15.38 1.78 12.41-8.98 2.97z" class="aw"/><path d="m614.83 171.02 19.53 2.94-2.17 13.02-20.68-2.68 3.32-13.28z" class="ac"/><path d="m618.28 175.6 11.2 1.43-1.15 5.46-11.59-1.63 1.54-5.26z" class="bg"/><path d="m548.97 171.57-37.58-19.38 1.18 8.18 28.15 15.61 3.29-1.76-.51-1.02h2.42l3.05-1.63z" class="aw"/><path d="m545.92 173.2-35.8-18.38v1.01l33.89 18.39 1.91-1.02z" class="bd"/><path d="m512.57 160.37 1.76-12.07-15.16-10.82 5.27 13.66 8.13 9.23z" class="bd"/><path d="m512.57 160.37-11.29-5.55-2.11-17.34 13.4 22.89z" class="m"/><path d="m485.4 64.18-48.58-14.97-2.56 2.78 49.37 13.03 1.77-.84z" class="bd"/><path d="m417.59 69.82 1.46 14.84-14.8 14.97 4.51-17.01 8.83-12.8z" class="bg"/><path d="m417.59 69.82-14.61 10.39 1.27 19.42 13.34-29.81z" class="m"/><path d="m490.36 61.82 7.25-3.43-1.63-12.69-4.09 4.92-1.53 11.2z" class="aa"/><path d="m495.98 45.7-8.17 7.54 2.55 8.58 5.62-16.12zM493.17 105.44l5.36 14.39 5.91 3.53 16.3.34-17.94-6.83 1.64-.98 13.9-6.65-10.49-5.85-15.96-2.09-5.44 2.54-3.22 8.16 9.94-6.56z" class="av"/><path d="m474.15 94.78 4.98 7.66 7.32 1.41 5.59-1.41 9.17 4.26-2.68 13.14 22.21 3.87 4.5-20.11-22.45-3.87-8.17.33-5.53-2.7-14.94-2.58Zm42.06 23.37-11.78-2.26 2.11-9.2 11.8 2.55-2.13 8.91Z" class="bg"/><path d="m486.45 103.84 2.64-6.49 13.71 2.37-1.59 6.97-14.76-2.85z" class="s"/><path d="m728.83 173.68-3.51 6.42 15.89 7.75 4.5-6.32-6.92-4.02-9.96-3.83z" class="au"/><path d="m748.74 179.47-13.65-7.9-6.26 2.11 17.74 10.92 2.17-5.13z" class="u"/><path d="m719.77 176.94-7.28 25.27-24.51 4.22-1.72-29.49h33.51z" class="as"/><path d="m715.52 191.68-3.03 10.53-10.74 1.85-3.62-14.06 17.39 1.68z" class="bb"/><path d="m676.49 175.4.48 9.2 2.58 6.17-2.07 3.75.52 9.91 9.98 2 1.72-27.39v-3.92l-13.21.28z" class="ab"/><path d="m676.49 175.4 13.21 3.64 30.07-2.1-20.49-5.75-22.79 4.21z" class="ao"/><path d="m676.97 184.6 5.17 1.41-.77 9.6-3.89-1.09-.51-9.92z" class="bg"/><path d="m698.13 190 6.68-5.4 22.74 2.7 9.55 6.17-12.74 3.19-26.23-6.66z" class="u"/><path d="m698.13 190 5.57 7.6 24.59 5.24 7.18-6.18-2.3-3.19-35.04-3.47zM727.55 187.3l21.19-7.83 8.94 5.13-13.5 7.08-11.01 1.79-5.62-6.17z" class="bd"/><path d="m757.68 184.6-10.91 15.01-18.48 3.23 4.88-9.37 24.51-8.87z" class="bg"/><path d="m637.89 42.77 42.56-6.13-.77 4.08-19.02 7.54-15.85.95-6.92-6.44z" class="au"/><path d="m644.81 49.21 34.87-8.49 1.22 3.06-30.2 8.48-5.89-3.05z" class="at"/><path d="m625.13 29.11-18.85-13.28 9.58 1.34 3.06 1.34 1.6-.69 10.39 1.46 10.21-2.23 2.27 1.33 3.45-2.58 10.39-2.27-19.34 18.62-6.38-4.45-6.38 1.41z" class="s"/><path d="m630.91 19.28 6.98 12.87-12.76-3.04 5.78-9.83zM641.12 17.05l-2.51 9.89 8.23-11.14-5.72 1.25zM615.86 17.17l6.12 7.49-1.46-6.84-4.66-.65zM732.57 48.54l15.53-7.72 2.17.29 3.3-3 10.13 5.2.01 1.4 6.26 1.83 11.01 17.38-29.71-14.62-18.7-.76z" class="ac"/><path d="m732.57 48.54 21.83-.96 26.58 16.34-17.06-3.66-4.26-2.68-1.26 1.5-8.24-1.76-1.86-1.95-2.25 1.07-13.48-7.9zM754.4 47.58l9.3-4.27 6.27 3.23-15.57 1.04z" class="s"/><path d="m753.57 38.11-6.59 9.8 1.12-7.09 5.47-2.71z" class="s"/><path d="m754.4 47.58 4 11.5 5.52 1.18-9.52-12.68zM746.98 47.91l3.18 9.41-4.11-.88.93-8.53z" class="ac"/><path d="m687.36 31.61-1.13-2.57-.62-4.06h-1.17l-3.54-8.05 11.39 7.73 15.32 2.28-14.31 3.3-2-.75-3.94 2.12z" class="s"/><path d="m687.36 31.61 4.93-6.95 1.01 5.58-5.94 1.37zM686.23 29.04l.55-8.13-2.34 4.07 1.79 4.06z" class="ac"/><path d="m438.13 34.19-9.56-1.38-.98 2.24-19.44 1.59 17.44-9.51 8.67-14.17 3.87 21.23z" class="s"/><path d="m425.59 27.13 12.54 7.06-10.54.86-2-7.92z" class="ac"/><path d="m709.04 234.13 42.32-5.56-1.91 11.49-32.36 3.83-8.05-9.76z" class="az"/></g><g id="e"><path d="m188.18 304.24-22.78-6.7-45.19-2.03-28.1 3.79-16.59 3.84 55.35 13.48 57.31-12.38z" class="ao"/><path d="m40.78 295.9 66.32-5.22 53.23.83 5.07 6.03 13.26 8.76-47.79 10.32-69.78-6.25-20.31-14.47z" class="bb"/><path d="m212.99 142.46-37.98-4.63 4.37 14.82 14.62.18 18.99-10.37z" class="be"/><path d="m194.7 141.05 2.92-.47-7.93-.96-14.68-1.79 5.74 7.5 13.25-2.87.7-1.41z" class="bb"/><path d="m184.36 164.05 20.39-5.64 2.97-5.76-1.56-1.23 3.47-2.47 3.36-6.49-30.73 7.57 2.1 14.02z" class="ai"/><path d="m209.63 148.95-26.58 5.88.45 2.72 24.22-4.9 1.91-3.7z" class="ak"/><path d="m128.96 310.66-34.52-5.1-1.52-4.08 1.52-.57-2.33-1.61-1.34-3.61 2.63-1.07-3.66-1.7-4.24-11.41 50.1 5.09-6.64 24.06z" class="aq"/><path d="m171.23 279.11-4.09 12.91-1.74 1.72.94.83-.94 2.97-1.97 1.31 1.31.75-1.58 5-34.2 6.06.66-17.74-10.84-5 52.45-8.81z" class="s"/><path d="m167.14 292.02-37.67 5.01-1.47 1.23 1.37 1.34 36.97-5.03.8-2.55zM165.4 297.54l-36.15 5.25-2.14 1.07 2.05 1.38 35.58-5.64.66-2.06z" class="ac"/><path d="m129.47 297.03-39.73-4.11 1.03 2.77 38.6 3.91.1-2.57zM129.25 302.79l-37.14-3.49.81 2.18 36.24 3.76.09-2.45z" class="s"/><path d="m63.79 243.4 14.32-4.6 2.45 11.05-9.85 2.18-6.92-8.63z" class="be"/><path d="m187.52 235.33-47.87 9.03 1.34 35.3s41.74-5.33 41.74-5.09 4.79-39.24 4.79-39.24Z" class="au"/><path d="m187.52 235.33-37.24 5 13.16 27.98s17 3.67 17 3.91 7.09-36.89 7.09-36.89Z" class="m"/><path d="m119.09 229.76 10.53 63.16 59.6-5.47 13.8-61.88-83.94 4.19Zm61.34 42.46-36.91 4.69-.29-8.07 3.59-17.01 22.33-9.3 15.93-3.73-4.65 33.42Z" class="ae"/><path d="m39.35 222.91 14.66 61.17 75.61 8.84 2.02-54.12-15.29-10.8-77-5.09z" class="ah"/><path d="m39.35 222.91 84.35-13.73 79.33 16.39-71.39 13.23-92.29-15.89z" class="ag"/><path d="m63.79 218.94 59.91-9.76 59.35 12.26-19.41 10.77-42 2.1-57.85-15.37z" class="bb"/><path d="m137.6 195.34 13.02 29.49 12.26-2.05-9.83-32.29-15.45 4.85z" class="af"/><path d="m144.34 205.58 10.53-2.58.86 1.63-10.72 2.39-.67-1.44zM146.83 211.04l9.95-2.68.77 1.53-9.96 2.39-.76-1.24zM148.17 216.31l10.62-2.59.48 1.44-10.53 2.77-.57-1.62z" class="au"/><path d="m145.39 231.72-17.14-2.98-16.18-9.68-6.33 5.77-12.66-2.2-6.31-45.15 50.39 8.48 7.66 27.57.57 18.19z" class="s"/><path d="m124.3 214.83-20.46-3.2 1.9 13.2 22.51 3.91-3.95-13.91zM159.94 194.76l-8.85 2.45 7.7 22.77-6.63 1.53-7.47-22.53-4.85 1.34-5.05 3.7 10.6 27.7 24.32-5.94-9.77-31.02z" class="ac"/><path d="m137.2 210.32-18.11-2.66-4.72-13.75-25.83-3.76-1.77-12.67 73.17 17.28 3.1 9.84-25.84 5.72z" class="bb"/><path d="m88.38 100.22-2.49 27.35 6.14.67 4.99-3.09 4.08-29.1-12.72 4.17z" class="bh"/><path d="m73.62 157.55-.64 8.35 2.15 1.74-2.33.66-.41 5.31 1.73 1.43-1.88.6-.44 5.78 39.38 5.88-3.44-23.75-34.12-6z" class="as"/><path d="m72.24 175.64 38.15 6.23-.31-2.19-37.69-6.07-.15 2.03zM109.2 173.64l-36.22-7.74-.18 2.4 36.72 7.5-.32-2.16z" class="k"/><path d="m132.44 145.99 46.96-13.33 5.68 53.47-43.95 9.32-8.69-49.46z" class="az"/><path d="m173.73 179.64-4.21-44.17 9.88-2.81 8.12 49.35-4.79 2.15h-5.94l-3.06-4.52z" class="m"/><path d="m182.73 184.16-9-4.52-37.34 9.51 6.13 6.89 40.21-11.88z" class="as"/><path d="m126.88 140.39-61.89-10.41-5.61 27.52 46.31 11.12 4.08 29.27 25.02 6.13v-35.4l-7.91-28.23z" class="m"/><path d="m182.79 125.08-72.54-8.99-45.26 13.89 61.89 10.41 34.02-4.92 21.89-10.39z" class="as"/><path d="m93.11 128.39 50.34 7.47 15.31-.08 8.14-6.35-52.33-8.67-21.46 7.63z" class="ac"/><path d="m182.79 125.08-55.91 15.32 7.91 63.62 56.17-14.87-8.17-64.07Zm-40.08 67.56-7.91-45.04 42.77-12.14 5.17 48.69-40.02 8.48Z" class="au"/><path d="m91.39 138.4 5.11 1.15-.51 5.11-5.49-1.41.89-4.85zM101.73 141.08l4.98 1.15-.51 5.49-5.24-1.66.77-4.98zM112.45 143.76l5.24 1.15.38 5.62-6-1.66.38-5.11z" class="ah"/><path d="m114.37 193.91 14.24 3.26-.58-3.83-14.29-3.19.63 3.76zM113.48 186.57l-.7-3.44 14.42 2.93.58 3.64-14.3-3.13z" class="as"/><path d="m138.11 131.38-51.85-7.93 11.5-3.53 49.18 9.32-8.83 2.14z" class="bb"/><path d="m138.11 131.38-2.72-26.41 1-1.91h7.11l3.44 26.18-8.83 2.14z" class="ai"/><path d="m88.38 100.22 47.01 4.75 8.11-1.91-42.4-7.01-12.72 4.17z" class="be"/><path d="m149.32 150.53 2.01 11.58-6.9 8.74 8.33 10.13 9.58-2.49 4.56-12.59-9.45-5.32-1.78-11.63-6.35 1.58z" style="fill:#f9fafa;fill-rule:evenodd;stroke-width:0"/><path d="m149.22 171.11 13.21-3.15-2.01 7.75-6.99 2.01-4.21-6.61z" class="ac"/><path d="m159.66 145.93 6.03-1.34.28 2.11-5.84 1.34-.47-2.11zM160.8 150.91l5.27-1.24.29 2.1-5.36 1.06-.2-1.92z" class="ae"/><path d="m139.64 151.1 4.79-1.05.96 4.69-4.98 1.44-.77-5.08zM140.99 158.76l4.69-1.15.38 1.92-4.69.77-.38-1.54z" class="av"/><path d="m156.62 265.17-5.74 5.87-7.65-2.2-.16-4.59 3.98-3.29 9.57 4.21z" class="at"/><path d="m159.66 250.38 32.84-3.49-3.54 16.64-25.53 4.78-3.77-17.93z" class="ac"/><path d="m172.29 257.23 7.38 6.03-.44 2.09-5.96 1.12-.98-9.24z" class="bb"/><path d="M142.52 248.76h16.75l5.53 4.66-1.37 14.89-20.36-4.06-.55-15.49z" class="s"/><path d="m192.5 246.89-23.35-4.36-26.63 6.23 22.28 4.66 27.7-6.53z" class="aa"/><path d="m175.98 243.8-6.83-1.27-26.63 6.23 9.09 1.9 24.37-6.86z" class="bb"/><path d="m149.89 254.32 1.72.48-.86 6.79-1.82-.48.96-6.79zM153.82 255.18l1.62.48-.86 6.99-1.91-.48 1.15-6.99zM157.74 256.14l1.34.19-.76 6.99-1.63-.39 1.05-6.79z" class="as"/><path d="m175.74 253.88-3.45 3.35 3.26 2.3 3.25.1 2.11-4.7-5.17-1.05z" class="au"/><path d="m172.29 257.23 2.59 4.79 4.79 1.24.57-3.54-2.39-1.15-5.56-1.34z" class="at"/><path d="m180.91 254.93 3.45 2.88-4.69 5.45-1.82-4.69 3.06-3.64z" class="ag"/><path d="m116.35 243.78-1.28 25.86-21.57-4.79-6.59-28.62 29.44 7.55z" class="au"/><path d="m122.22 245.41 2.87.67-.38 11.2-3.07-.67.58-11.2zM121.45 259.58l2.68.77-.57 11.2-2.97-.67.86-11.3z" class="az"/><path d="m197.62 140.58 1.77-48.62-6.13 2.9-1.34 31.48 2.08 16.12 3.62-1.88z" class="au"/><path d="m194 142.46-4.31-2.84-1.34-46.87 4.91 2.11.74 47.6z" class="m"/><path d="m193.32 97.05 9.64-1.88 6.13-14.61-21.57 2.62 5.8 13.87z" class="s"/><path d="m193.32 97.05-10.27-2.32-5.62-12.57h9.45l3.7 3.44 2.74 11.45z" class="aq"/><path d="m209.09 80.56-6.13-12-11.04.96-3.57 9.38 2.23 6.7 18.51-5.04z" class="ac"/><path d="m177.43 82.16 7.02-12.64h7.47l2.08 1.91-3.42 14.17-13.15-3.44z" class="s"/><path d="m184.45 69.52 8.81-3.07 9.7 2.11-8.96 2.87-9.55-1.91z" class="av"/><path d="m210.31 67.43 18.01-13.79 3.53 4.83-21.54 8.96zM173.25 74.26l-21.21.15 1.92 3.93 19.29-4.08zM178 61.88l-19.21-9.36 3.16-4.02L178 61.88zM191.43 57.13l-9.27-24.82 5.98-1.73 3.29 26.55zM202.64 59.34l4.78-23.45 5.46 3.16-10.24 20.29z" class="ag"/><path d="m106.33 261.59-6.8 17.56-47.83-4.68-1.85-7.75 40.52-6.99 15.96 1.86z" class="bb"/><path d="m110.03 253.42-17.62 6.9-21.7.12-1.34-7.51 6.19-4.17 26.07-4.27 8.4 8.93z" class="be"/><path d="m110.03 253.42-3.7 8.17-25.77 8.05-9.85-5.11v-4.09l39.32-7.02zM75.56 248.76l-31.38-5.71-12.38 10.83 11.88 7.08 27.03-.52 4.85-11.68z" class="bh"/><path d="m31.8 253.88 9.96 12.07 38.8 3.69-9.85-9.2-38.91-6.56z" style="fill:#787f8d;fill-rule:evenodd;stroke-width:0"/></g><g id="f"><path d="m876.75 283.51-4.92 6.36-3.69 1.28 1.53 1.51-3.45 4.47-2.77 1.55.96.78-5.51 7.12-34.87 5.74-7.3-15.62 5.3-12.4 54.72-.79z" class="ac"/><path d="m772.75 283.65 3.63 6.09 3.77 2.18-1.61 1.44 2.32 3.88 2.74 2.02-.71 1.38 3.2 5.36 37.94 6.32 2.46-21.17-11.39-14.83-42.35 7.33z" class="s"/><path d="m789.24 207.41-12.5 8.73 57.75 19.59v-29.3l-22.42 2.42-22.83-1.44z" class="ai"/><path d="m831.95 227.91 15.1 6.94 27.7-16.54-16.98-12.79-19.15-.82-10.79 7.48 4.12 15.73z" class="be"/><path d="m794.08 213.65 4.64-5.07 14.24-2.52 4.71 4.86-1.49 6.42-22.1-3.69z" class="as"/><path d="m835.43 210.49 3.12 6.91 18.61-4.14-5.57-6.37-8.89-.83-7.27 4.43z" class="al"/><path d="m791.93 186.55-2.69 20.86 9.48 1.17 1.09-.86 2.09 1.26 4.57.56 2.13-.86.87 1.23 4.84.6 2.34-.84 1.02 1.25 10.16 1.26 4.93-16v-7.28l-40.83-2.35z" class="s"/><path d="m827.83 212.18 7.6-1.69.26-1.64 2.93.93 4.18-.93.42-1.5 1.54 1.06 4.8-1.06.42-1.29 1.61.83 6.18-1.37-5.52-21.2-16.82 2.17-6.26 5.73-1.34 19.96zM798.72 208.58l3.58-21.03 2.45-.27-2.85 21.7-3.18-.4zM806.47 209.54l3.02-21.27 2.32.23-2.34 21.41-3-.37zM814.31 210.51l2.96-21.03 2.33.52-1.93 20.92-3.36-.41z" class="ac"/><path d="m835.43 210.49-2.67-21.59h1.34l4.52 20.88-3.19.71zM842.8 208.85l-4.18-20.94 2.09-.9 4.05 21.4-1.96.44zM849.56 207.35l-5.2-21.16 2.6-1.19 4.63 21.89-2.03.46z" class="s"/><path d="m791.93 186.55 32.13-6.56 28.19 4.33-23.08 7.9-37.24-5.67z" class="av"/><path d="m776.74 216.14-3.99 67.51 53.74 7.5 9.2-40.4-3.74-22.84-55.21-11.77z" class="ak"/><path d="m831.95 227.91-5.46 63.24 50.26-7.64-2-65.2-42.8 9.6z" class="ai"/><path d="m837.02 234.28 14.65-3.93.7 50.29-18.96 2.87 3.61-49.23z" class="as"/><path d="m839.64 254.04 8.42-1.27v24.25l-9.78 1.67 1.36-24.65zM840.09 237.13l3-.93.25 3.64-3.48.77.23-3.48zM844.3 235.99l3.44-.79.23 3.79-3.54.67-.13-3.67zM839.96 243.6l7.86-1.77.08 1.32-8.03 1.84.09-1.39zM839.85 246.49l8.08-1.73.03 1.28-8.21 1.68.1-1.23zM839.63 249.19l8.29-1.66.05 1.34-8.42 1.69.08-1.37z" class="bd"/><path d="m856.74 238.58 4.78-1.24.14 4.83-4.82 1.3-.1-4.89zM864.24 236.62l4.67-1.09.27 4.96-4.68.97-.26-4.84zM856.59 229.53l4.66-1.19.12 5.07-4.53 1.06-.25-4.94zM863.91 227.76l4.6-1.1.47 5.03-4.93 1.15-.14-5.08z" class="ac"/><path d="m857.23 246.44 12.06-2.58.38 34.46-12.16 2.01-.28-33.89z" class="av"/><path d="m785.88 252.6 15.57-14.68L815.13 258l-16.11 11.84-13.14-17.24z" class="ag"/><path d="m781.42 251.63 22.49-19.29v5.58l-3.12 4.44-10.51 10.91-2.13.82-6.73-2.46z" class="ah"/><path d="m803.91 232.34 16.25 25.23-9.68.9-2.3-2.38-7.39-13.73 3.12-10.02z" class="u"/><path d="m820.16 257.57-20.36 17.97-2.7-5.66 1.39-3.94 9.69-9.85 11.98 1.48z" class="bg"/><path d="m781.42 251.63 8.86 1.64 8.21 12.67 1.31 9.6-18.38-23.91z" class="u"/><path d="m871.83 289.87-45.88 5.95-2.52.84 2.19 2.02 44.05-6.02 2.16-2.79zM866.22 297.13l-41.1 5.82-1.69 1.46 1.32 1.76 39.66-6.71 1.81-2.33z" class="av"/><path d="m825.95 295.82-49.57-6.08 2.16 3.62 47.08 5.32.33-2.86zM825.12 302.95l-44.26-5.71 2.03 3.4 41.86 5.53.37-3.22z" class="ac"/></g><g id="g"><path d="m511.6 305.55 13.13-12.03-6.11-7.05-13.45 6.19 6.43 12.89z" class="s"/><path d="m510.4 291.92 3.4 6.45-.01 3.94 3.8 3.24 3.6 6.83-8.62 9.13-34.39-22.22 32.22-7.37z" class="ac"/><path d="m478.18 299.29 33.42 18.46 3.35 6.06-2.38 1.87-7.82-2.53-3.54-2.72-4.64.08-13.48-4.35-4.91-16.87z" class="s"/><path d="m521.19 312.38 6.3 1.15 3.3 1.69 4.38-.29 19.28 3.52-1.83 11.58-24.85-5.46-16.17-6.82 9.59-5.37z" class="ae"/><path d="m511.6 317.75 38.38 7.93 4.47 5-3.63 9.15-21.84-7.84-2.62-3.32-6.03-.01-7.76-2.98-.97-7.93z" class="ah"/><path d="m517.59 305.55-3.93.71-5.49-4.86 5.63-3.03 3.79 7.18zM489.52 305.55l4.86-1.57 2.73 5.77-5.6-.75-1.99-3.45z" class="av"/><path d="m489.52 305.55 1.67 5.17 5.92-.97-7.59-4.2z" class="ac"/><path d="m520.33 328.66 4.4-3.32 3.8 2.87.45 3.78-8.65-3.33z" class="ae"/><path d="m496.57 320.51 4.26-3.6 3.92 6.24-8.18-2.64z" class="ac"/><path d="m527.49 313.53 2.22 3.38 5.46-1.98-7.68-1.4zM534.01 322.38l3.22-1.92 2.34.96.64 2.24-2.84 1.11-3.36-2.39z" class="ao"/><path d="m534.01 322.38 1.16 2.56 3.16 1.21 1.88-2.49-6.2-1.28z" class="ae"/><path d="m549.98 325.68 4.47-7.23 20.87-6.58 3.77-.36 3.77-2.02 13.45-4.24 4.34 6.5-3.82 3.95-33.06 9.75-13.79.23z" class="av"/><path d="m550.82 339.83 45.75-21.11 2.08-.96-3.91-4.39-44.76 12.31.84 14.15z" class="ac"/><path d="m596.31 305.25 21.74 14.98-18.06-3.43-5.25-3.43 1.57-8.12z" class="al"/><path d="m594.74 313.37 1.83 5.35 21.48 1.51-23.31-6.86z" class="ah"/><path d="m582.86 309.49-1.92 4.04-5.62-1.66 7.54-2.38zM568.97 320.46l2.68-3.55 5.65 1.26-4.17 3.04-4.16-.75z" class="aa"/><path d="m568.97 320.46 3.25 3.81 3.74-1.66 1.34-4.44-8.33 2.29z" class="av"/></g><g id="h"><path d="m589.55 239.33-25.85-3.43-53.3-6.81 27.45 24.63 51.7-14.39z" class="aj"/><path d="m516.98 199.05 21.83-.73 11.17 21.19 12.51 5.23 2.06 11.27-21.05 3.08-19.55-5.85-7.55 9.24-3.83-22.08 4.41-21.35z" class="aw"/><path d="m481.43 196.66 25.09.38 13.2 4.85-1.4 20.78-1.92 19.81-39.29-5.29 4.32-40.53z" class="at"/><path d="m481.43 196.66 22.72-4.47 34.66 6.13-19.09 3.57-38.29-5.23z" class="au"/><path d="m523.81 205.91 2.04-.31.83 6.89-2.55.25-.32-6.83zM528.72 204.89l2.56-.57.83 6.83-2.11.57-1.28-6.83zM534.47 204l2.04-.45 1.02 6.71-2.23.38-.83-6.64z" class="ae"/><path d="m517.84 227.2 23.75-2.97 1.91 14.86-21.48 3.15-4.18-15.04z" class="ac"/><path d="m523.81 232.28 13.72-2.01.56 2.97-13.88 1.72-.4-2.68z" class="m"/><path d="m506.52 206.17-5.24 4.47v3l3.06-.9 5.17-3.57-2.99-3zM496.23 204.32l2.94 2.25-4.53 4.45-2.36.7-.9-1.82 4.85-5.58z" class="u"/><path d="m504.34 212.74-2.11 9.52-3.81-.9 2.86-10.72 3.06 2.1zM494.64 211.02l-2.3 8.55-3.25-.76 2.29-8.91 3.26 1.12z" class="au"/><path d="m485.13 201.96 3.76.38-.63 4.66-3.9-.51.77-4.53z" class="ae"/><path d="m355.81 311.58 16.69-2.7 4.5-22.04-27.19 2.5 6 22.24z" class="ah"/><path d="m330.98 289.16 3.36 19.98 21.47 2.44 3.46-23.86-28.29 1.44zM441.15 319.56l-14.22-1.41-5.89-21.85 19.73 3-.39 4.68 3.07 4.13-2.3 11.45z" class="bd"/><path d="m440.38 303.98.77 15.58 19.07-2.02 6.97-20.92-26.81 7.36z" class="ah"/><path d="m552.24 309.49-15.4-2.63-7.13-20.39 21.03-.77 1.5 23.79z" class="bd"/><path d="m570.91 287.79-1.77 19.81-16.9 1.89-5.91-22.04 24.58.34z" class="ah"/><path d="m401.86 249.89 29.4 3.07 2.61 43.94-36.09-3.54 4.08-43.47z" class="aq"/><path d="m400.27 259.33 30.92 2.73.1 3.63-30.55-3.35-.47-3.01zM398.93 267.56l33.7 2.78.09 3.11-34.18-2.88.39-3.01zM398.31 275.22l34.7 3.07.38 2.62-34.27-2.96-.81-2.73zM398.45 282.88l34.75 2.87.29 2.73-33.7-2.59-1.34-3.01z" class="s"/><path d="m433.04 241.4-108.83-12.32 6.83 63.01 70.56 7.82 38.79 4.07 7.83-61.28-15.18-1.3Zm-30.19 50.19 2.11-37 23.74 2.59 2.68 37-28.53-2.59Z" class="ac"/><path d="m574.65 250.84-3.74 36.95-130.53 16.19-2-54.09L450 241.4l63.43-11.93 22.63 23.1 38.59-1.73z" class="av"/><path d="m518.32 222.67 19.66 23.13 51.57-6.47-2.24 6.87-2.32 3.06.66 2-2.56 7.83-50.98 3.21-18.39-26.16-75.34 13.75-7.12-20.29 37.27-4.45 49.79-2.48z" class="ae"/><path d="m438.38 249.89-123.32-8.66-1.22-8.83 2.78-1.02-3.24-2.29-1.32-9.58 88.73 3.16 36.53 11.09 1.06 16.13z" class="as"/><path d="m437.32 233.76-125.26-14.25L443 207l75.32 15.67-81 11.09z" class="aj"/><path d="m587.31 246.2-51.25 6.37-19.91-23.48-78.4 11.14-2.54.86 2.7 1.62 77.73-10.94 19.66 23.62 50.35-4.13 1.66-5.06z" class="as"/><path d="m437.75 240.23-124.37-11.14.46 3.31 124.07 10.31-.16-2.48zM450 257.55l57.98-7.66.49 7.16-1.95 3.28 2.36 2.68 1.52 22.12-59.4 6.79-1-34.37z" class="ab"/><path d="m508.47 257.05-10.83 1.56 1.15 5.36 10.09-.96-.41-5.96z" class="au"/><path d="m518.62 271.01 45.15-4.48-1.26 13.13-42.62 4.59-1.27-13.24z" class="ac"/><path d="m538.81 272.49 6.96-.7-.39 2.49-6.25.57-.32-2.36z" class="aa"/><path d="m407.22 221.07 12.99-3.09 11.17 2.71 5.24.96-17.05 3.5-12.35-4.08z" class="bb"/><path d="m447.18 217.02-10.56 4.63 11.6 3.5 31.13-2.48-5.94-2.27-26.23-3.38z" class="bb"/><path d="m424.68 177.63-11.62 3.26 7.09 4.02 8.17-.89-.83-2.62-2.81-3.77z" class="ah"/><path d="m426.09 183-1.41-5.37 11.94 3.58-6.32 2.68-4.21-.89z" class="bd"/><path d="m418.17 220.6-1.44-33.1 8.65-.35 1.6 10.51-1.92 24.47-6.89-1.53z" class="ah"/><path d="m424.2 188.93 3.99-2.17 4.19.83-1 33.1-6.32 1.44-.86-33.2z" class="ae"/><path d="m424.2 188.93-1.37-2.49 3.26-3.44 10.53-1.79-4.24 6.38-8.18 1.34z" class="ah"/><path d="m426.09 183-13.03-2.11 3.67 6.61 7.47 1.43 1.89-5.93z" class="bd"/><path d="m424.36 194.04 5.36 1.02-5.52 4.13-.86-3.3 1.02-1.85z" class="aa"/><path d="m424.36 194.04-5.42 1.25 3.01 3.9 2.49-1.66-.08-3.49zM429.72 195.06l-1.4 23.37-3.35.74-2.14-4.45 1.61-17.19 5.28-2.47z" class="av"/><path d="m418.94 195.29 1.27 22.69 4.76 1.19-.53-21.64-5.5-2.24z" class="ac"/><path d="m459.44 177.63 10.62 3.26-6.03 6.89h-7.94l3.35-10.15z" class="ak"/><path d="m447.18 181.27 12.26-3.64-.29 7.28-4.02 1.28-7.95-4.92z" class="ai"/><path d="m440.24 212.62 21.78.12-.57 6.77-3.45 3.16-14.07-1.5-3.69-8.55z" class="ak"/><path d="m459.82 216.45 5.66-4.73 10.9 2.26-2.97 6.42-15.41 2.27 1.82-6.22z" class="ai"/><path d="m440.24 212.62 8.86-19.28 10.72-1.02 2.2 15.13-2.2 9-19.58-3.83z" class="ai"/><path d="m458 195.95 4.21-4.05 3.55 2.14 10.62 19.94-16.56 2.47-1.82-20.5z" class="be"/><path d="m449.1 193.34-1.92-12.07 11.97 3.64 2.01 5.73-3.16 5.31-8.9-2.61z" class="ak"/><path d="m458 195.95 1.15-11.04 10.91-4.02-4.3 13.15-7.76 1.91z" class="ai"/><path d="m446.32 213.81 1.9 4.39 10.44 2.2 2.79-.89-1.63-3.06-2.87-2.64h-10.63z" class="aw"/><path d="m458.66 220.4 12.55-2.76 1.82-3.16-4.59-.84-8.62 2.81-1.16 3.95zM459.82 216.45l1.34-1.71-1.93-3.02-2.53-1.82h-8.48l-1.9 3.91 13.5 2.64z" class="u"/><path d="m459.82 216.45 13.21-1.97-2.97-5.31h-8.04l-2.79 2.55.59 4.73z" class="as"/><path d="m448.22 209.9 10.36-3.33 1.72 1.45-1.07 3.7-11.01-1.82z" class="as"/><path d="m459.23 211.72 10.83-2.55-11.48-2.6.65 5.15z" class="al"/></g><g id="i"><path d="m231.93 297.9-1.06 8.92 9.77-9.2-8.71.28zM263.58 289.68l-13.17 14.45-2.77.42 2.14 3.14 9.69-6.71 4.78-4.8-.67-6.5z" class="ac"/><path d="m265.16 307.82-6.76 10.79h6.47l4.16-9.37-2.14-5.26-1.73 3.84zM281.89 310.3l-3.48 10.32h6.47l.92-9.84-2.94-3.13-.97 2.65z" class="as"/><path d="m261.64 295.02-2.17 5.96 6.84 6.09 5.41-2.01 1.32-1.55-2.21-7.22-9.19-1.27zM261.25 274.47l-6.64 4.04-.63 3.3 2.93 2.03 5.49-2.03-1.15-7.34z" class="ag"/><path d="m272.04 271.4 2.71 4.71 1.15 4.36 3.31 3.37 2.48 5.93-2.6 7.41-6.05 6.33-11.4-8.49-2.17-24.62 7.53-2.9 5.04 3.9z" class="al"/><path d="m256.91 262.69-9.22-6.59 4.61-12.21 3.38 5.17 1.23 5.79v7.84zM267.89 255.51l-2.87-7.37 7.08-7.57.49 4.4-.76 6.9-3.94 3.64z" class="s"/><path d="m256.91 262.69-4.24-8.09 3.01-5.54 3.79 5.79-2.56 7.84zM272.59 244.97l-3.56 3.65 1.78 5.61 2.23-5.17-.45-4.09z" class="aq"/><path d="m282.19 258.59-10.15 12.81-12.57-1 3.95-10.09 11.82-5.36 4.52-.35 2.43 3.99z" class="as"/><path d="m256.91 262.69 16.13-13.63 4.94 2.52 5.1-1.17-.89 8.18-3.96-1.97-12.38 6.07-6.38 7.71-2.56-7.71z" class="ao"/><path d="m278.23 256.62-1.62-4.75 2.48.86-.86 3.89z" class="ab"/><path d="m278.75 254.68-5.71-5.62 10.04 1.35-4.33 4.27z" class="av"/><path d="m274.75 276.11-2.16 7.73v2.5l3.63 1.17 2.99-3.67-4.46-7.73z" class="ag"/><path d="m272.59 283.84-5.37 1.61v2.06l1.81 1.41 7.19-1.41-3.63-3.67z" class="as"/><path d="m267.22 285.45-3.64 5.72 3.64 2.73 1.81-4.98-1.81-3.47z" class="ag"/><path d="m254.61 278.51-6.57.64-.35 2.08 1.18 1.53 8.04 1.08-2.3-5.33z" class="as"/><path d="m246.64 291.72 6.37-2.67-6.37-15.14-5.84-3.51-2.21 5.71 2.61 5.06 3.23 2.15-.54 3.06 2.75 5.34z" class="s"/><path d="m241.2 281.17 5.48-1.49 2.1 3.56-4.19 4.5-3.39-6.57z" class="as"/><path d="m246.64 273.91-16.54-37.58-3.95 18.79 10.24 23.39 10.25-4.6z" class="ao"/><path d="m237.64 271.4.95-2.68 3 1.34-1.34 2.81-2.61-1.47z" class="as"/><path d="m281.69 289.77-8.65 13.74 8.38-.82 4.62-2.54-4.35-10.38z" class="ag"/><path d="m286.04 300.15-13 3.36 5.39 2.56 5.4-.61 2.21-5.31z" class="ah"/><path d="m273.04 303.51 8.85 6.79 3.91.48-1.97-5.32-10.79-1.95z" class="ae"/><path d="m250.41 304.13-13.31-10.81-5.17 4.58 17.85 9.79.63-3.56z" class="av"/><path d="m259.47 300.98 12.25 4.08-2.69 4.18-3.87-1.42-5.69-6.84z" class="al"/></g><g id="j"><path d="m374.27 114.4-4.54 4.41 1.98 8.87 6.76-9.19-4.2-4.09z" class="ar"/><path d="m401.4 122.95-7.83-10.26-6.37 1.71.79 7.69 13.41.86z" class="x"/><path d="m353.89 168.19 18.13-3.91 13.82 2.78 3.68 9.81-24.86 14.8-10.76-10.3-.01-13.18zM288.09 217.36l16.09 9.16 1.84 4.83-4.66 7.18-20.54-6.11 7.27-15.06z" class="z"/><path d="m295.41 184.99-20.11 30.65 5.52 16.78 26.78-16.9v-16.84l-12.19-13.69z" class="bh"/><path d="m350.15 182.07-10.23-8.82-28.11 18.74 22.53 15.11 8.88 2.72 6.93-8.04v-19.71z" class="bd"/><path d="m337.46 171.4 9.44 13.59-14.06-1.31-13.04 9.06-7.99-15.87 25.65-5.47z" class="ah"/><path d="m325.27 330.68 3.66-5.94-3.93-9.96-4.51 5.09 2.26 10.81h2.52zM370.75 325.45l2.05-7.87-2.77-5.15-3.29-2.96-1.82 6.11 2.88 9.87h2.95z" class="aw"/><path d="m357.46 244.42 38.16 37.32-29.35-56.06-6.49 6.06-2.32 12.68z" class="l"/><path d="m359.78 241.98 35.84 39.76-21.44 21.4-11.09-30.58-3.31-30.58z" class="z"/><path d="m296.39 302.48 77.79.66-6.76-17.2-54.91-3.75-16.12 20.29z" class="ak"/><path d="m334.23 313.73.11-4.59-8-4.2-2.17 7.34.83 2.5 6.39 5.73 2.84-6.78zM375.17 307.49l-4.28-18.16-11.54-10.11-2.56 15.38 9.95 14.87 6.43 7.79 2-9.77z" class="q"/><path d="m370.89 289.33-13.43-3.57-4.19 3.57 3.52 5.27 14.1-5.27zM334.34 309.14l-12.51-3.88 2.34 7.02 10.17-3.14z" class="ba"/><path d="m366.74 309.47 8.43-1.98 18.44 17.96h-17.35l-9.52-15.98zM325 314.78l9.23-1.05 8.84 16.95h-17.8l-.27-15.9zM316.5 236.98l28.42-2.01 13.42 11.96 12.55 42.4-36.55 1.55-17.84-53.9z" class="bd"/><path d="m337.46 171.4 12.69 30.38 11.01-1.07 3.5-9.04-10.77-23.48-16.43 3.21z" class="o"/><path d="m337.46 171.4 12.69 30.38 5.66-20.75-18.35-9.63z" class="l"/><path d="m336.89 239.34 34 49.82-11.11-47.18-11.03-3.6-11.86.96z" class="ah"/><path d="m356.63 212.96-6.47-11.16-15.82 5.3-4.77 14.79 7.33 17.27.17.2 22.71 2.62-3.15-29.02z" class="at"/><path d="m311.81 176.87 9.8 19.58 12.73 10.65-3.36 16.12 5.91 16.12-2.55 69.8-37.95-6.66 24.51-67.51-13.3-19.45-12.19-30.53 16.4-8.12z" class="be"/><path d="m336.89 239.34-40.5 63.14 20.11-65.5 10.9-2.01 9.49 4.37z" class="z"/><path d="m311.81 176.87-2.94 19.1 25.47 11.13-22.53-30.23z" class="l"/><path d="m278.58 100.32-10.61 23.2-21.17 25.17 8.95-43.77 22.83-4.6z" class="av"/><path d="m266.9 198.68-20.07-15.66 19.79-4.79 7.17 3.06-6.89 17.39z" class="s"/><path d="m278.58 100.32-31.78 48.37 28.2-7.02 3.58-41.35z" class="ac"/><path d="m301.55 165.03-34.65 33.65-.39-48.17 35.04 14.52z" class="aq"/><path d="m246.8 148.69 20.3-9.07 14.61 6.09 13.33 8.91 6.51 10.41-54.75-16.34z" class="ad"/><path d="m267.1 139.62 25.91 15.56-10.41-18.29-15.5 2.73z" class="aq"/><path d="m343.98 89.76 4.11 4.07 16.57 55.37-21.94 8.21-19.42 17.31-10.48-3.43-24.51-32.9-5.18-44.12 44.84-17.46 16.01 12.95z" class="ar"/><path d="m332.84 183.68 2.61-6.96-9.71-10.27-18.81-55.88-7.6-7.23-18.6 16.31L293 155.18l3.52 2.18 5.03 7.67 10.26 11.84 21.03 6.81z" class="q"/><path d="m317.04 167.07 18.41 9.65 7.27-19.31-25.68 9.66z" class="ba"/><path d="m299.33 103.34 24.27-7.21 8-7.96-2.82-13.46-48.05 18.22 7.6 12.84 11-2.43z" class="av"/><path d="m293.01 155.18.71-5.19h3.45l4.38 15.04-8.54-9.85z" class="ba"/><path d="m313.27 112.44 2.51.76 3.86-3.15 5.71.31-7.05-2.78-5.03 4.86zM338.02 105.04l2.12 1.31 2.77-3.78 5.66.61-6.08-2.67-4.47 4.53z" class="an"/><path d="m329.57 144.6 7.25 2.59 9.56-3.52-8.36-.43-8.45 1.36z" style="fill:#9471a4;stroke-width:0"/><path d="m352.91 122.67-8.01 5.01-1.99-3.77 10-1.24zM317.94 133.26l19.59-2.09.19-5.43-19.78 7.52zM314.09 120.55l16.34.75-1.09-7.62-15.25 6.87zM349.81 109.73l-4.89 6.94-3.71-5.77 8.6-1.17z" class="x"/><path d="m328.78 74.71-5.18 21.42 20.38-6.37-15.2-15.05z" class="s"/><path d="m286.16 129.75 11.39 14.3 5.5-7.24-11.99-16.89 8.27-16.58-18.6-10.41-13.63 46.69 9.29.87 4.22.39 5.55-11.13z" class="ad"/><path d="m286.16 129.75-2.64 7.14-2.2-9.19 28.25-9.46 3.26 2.72-.66 4.85-26.01 3.94z" style="fill:#4a3554;stroke-width:0"/><path d="m346.38 132.04-3.16 2.34h-4.6l-2.28-6.73-5.91-13.97 10.78-2.78 2.9 14.44 2.27 6.7z" style="fill:#e8cab6;stroke-width:0"/><circle cx="326.5" cy="122.66" r="2.15" class="bf"/><circle cx="350.56" cy="115.21" r="2.15" class="bf"/><path d="m293.01 155.18 6.73-8.38-13.58-17.05-5.55 11.13 12.4 14.3z" class="ar"/><path d="m287.41 135.87 5.3 7.23-9.24-2.27 3.94-4.96z" class="ba"/><path d="m303.11 150.58-3 2.7-5.72-6.39 3.16-2.84 5.56 6.53z" style="fill:#fff;fill-rule:evenodd;stroke-width:0"/><path d="m346.38 132.04-2.46 4.22-5.3-1.88 7.76-2.34z" style="fill:#8b6651;stroke-width:0"/><path d="m344.17 125.32 19.49-5.92-5.33-15.92-48.76 14.76 5.47 15.91 21.24-6.48-4.21-12.57 7.77-2.39 4.33 12.61Zm-26.91 4.47-3.18-9.24 14.61-4.43 3.1 9.25-14.53 4.43Zm41.92-12.71-12.78 3.87-3.18-9.24 12.86-3.88 3.1 9.25ZM329.57 144.6l16.81-.93-6.03-2.24-1.84.55-2.22-1.08-6.72 3.7z" class="v"/><path d="m350.15 201.78 9.63 40.2 6.49-16.3-1.61-34.01-14.51 10.11z" style="fill:#89909b;stroke-width:0"/><path d="m307.6 215.52 8.9 21.46 20.39 2.36-2.55-32.24-26.74 8.42z" class="ak"/><path d="m304.18 226.52 6.34-3.95 1.29 9.85-2.94 5.56-7.51.55 2.82-12.01z" class="q"/><path d="m310.52 222.57 13.89 9.15-10.46 13.57-5.08-7.31 1.65-15.41z" class="ar"/><path d="m372.02 164.28 6.07-20.77 10-3.59 4.11 5.3-2.68 31.65-17.5-12.59z" class="bh"/><path d="m368.1 133.26 9.99 10.25 14.11 1.71-5-15.72-19.1 3.76z" class="z"/><path d="m401.4 122.95 1.09 10.31-10.29 11.96-6.64-13.18 6.85-6.3 8.99-2.79z" class="o"/><path d="m374.51 98.57 6.01.44-3.13 7.34-3.12-3.96.24-3.82z" class="z"/><path d="m370.42 102.77 4.09-4.2 1.71 4.2-1.95 3-3.85-3zM375.35 118.01l-7.25 15.25 17.46-1.22-1.24-15.37h-5.99l-2.98 1.34z" class="o"/><path d="m387.2 114.4 14.2 8.55-15.84 9.09-3.54-13.55 1.32-3.38 3.86-.71z" class="l"/><path d="m370.42 102.77 4.93 15.24 6.67.48-.31-9.74-5.49-5.98h-5.8z" class="z"/><path d="m376.22 102.77 4.3-3.76 6.68 15.39-5.18 4.09-5.8-15.72z" class="o"/><path d="m382.96 122.09 14.02.55-6.91 4.21h-5.86l-3.69-1.09 2.44-3.67z" class="aa"/><path d="m382.96 122.09-8.69 2.72 6.25 3.81 3.69-1.77-1.25-4.76zM396.98 122.64l1.76 1.83-4.71 4.63-8.47 2.94-1.35-1.95v-3.24l12.77-4.21z" class="av"/><path d="m384.21 126.85 1.35 5.19-5.04 2.04-8.11-1.12 1.86-8.15 9.94 2.04zM398.74 124.47l1.02 6.88-9.37 10.27-3.19-2.15-1.64-7.43 13.18-7.57z" class="ac"/><path d="m372.41 132.96 13.15-.92 4.83 9.58-11.15-.72-6.83-7.94z" class="s"/><path d="m393.57 112.69-5.3-3.63-3.95 7.61 2.9 2.14 6.35-6.12z" class="ar"/><path d="m389.71 132.92 1.16-1.3 1.3 1.57-1.57 1.5-.89-1.77zM381.28 137.39l1.09-1.23 1.78 1.02-1.78 1.91-1.09-1.7zM379.64 135.27l1.16-.41-.61-1.16-1.16.69.61.88zM380.63 129.58l.82-.89.89 1.09-1.16.61-.55-.81z" class="ao"/></g></svg>