<svg xmlns="http://www.w3.org/2000/svg" id="a" viewBox="0 0 900 420"><defs><style>.aa,.ab,.ac,.ad,.ae,.af,.ag,.ah,.ai,.aj,.ak,.al,.an,.ao,.aq,.ar,.as,.at,.au,.av,.aw,.az,.ba,.bb,.bc,.bd,.be,.bf,.bg,.bh,.bi,.k,.l,.m,.o,.q,.s,.u,.v,.x,.y,.z{stroke-width:0}.au,.k{fill:#735283}.l{fill:#eeeff1}.aa,.ab,.ac,.ad,.ae,.af,.ag,.ah,.ai,.aj,.ak,.al,.ao,.aq,.ar,.as,.at,.au,.av,.aw,.az,.ba,.bb,.bd,.be,.bf,.bh,.bi,.l,.m,.o,.q,.s,.u,.y,.z{fill-rule:evenodd}.m{fill:#5e436b}.ak{fill:#89909b}.o{fill:#dddfe2}.ah{fill:#9471a4}.q,.x{fill:#c3987b}.ba{fill:#8b6651}.s{fill:#734d61}.u{fill:#815c92}.at,.v{fill:#583f64}.y{fill:#5f6878}.z{fill:#bbbfc6}.aa{fill:#d1a1b8}.ab{fill:#8e699f}.ac,.bc{fill:#96637c}.ad,.an{fill:#734d60}.ae{fill:#ab90b8}.af{fill:#513a5c}.ag{fill:#cfbfd6}.ai{fill:#abafb8}.aj{fill:#e7dfea}.al{fill:#b7a0c2}.ao{fill:#c3b0cc}.aq{fill:#543042}.ar{fill:#dfbda5}.as{fill:#9f80ae}.av{fill:#b3889d}.aw{fill:#654873}.az{fill:#dbcfe0}.bb{fill:#1d2432;opacity:.1}.bd{fill:#88619a}.be{fill:#7a578a}.bf{fill:#cccfd4}.bg{fill:#232a38}.bh{fill:#6c4d7b}.bi{fill:#9a9fa9}</style></defs><g id="b"><path d="m178.17 398.38-25.2-18.34 52.18-1.9 46.21-9.69 29.05-.16 12.04-2.58 75.21-13.34 101.45-1.53 62.09 9.62-1.72 19.74-35.45 3.29 13.56 9.92 40.99-.7 35.53-7.83 20.52 7.57-52.33 4.61-24.43 17.78-85-12.61-18.46-12.85-9.74-7.49-12.03 9.79-40.28 1.73H332.9l-28.24 5.97h-23.19l-28.27 4.96-75.03-5.96z" class="bb"/><path d="m529.91 349.39 38.09-5.76 66.09-4.17 68.64-2.58 35.96 16.92-9.33 11.38-68.25 6.21-12.61-6.21-2.59 7.76-98.47-4.96-17.53-18.59zM726.91 372.39l32.8-7.37 68.91-1.71 25.99 9.56-30.19 13.74-68.78-2.82-28.73-11.4z" class="bb"/></g><g id="c"><path d="m756.79 187.96-12.47-9.08-1.42 12.58 6.56 4.15 7.33-7.65z" class="ah"/><path d="m758.1 209.49-11.81 11.7-1.2-11.81 7.32-2.73 5.69 2.84z" class="aw"/><path d="m745.09 190.36 11.7-2.4 1.31 21.53-13.12 1.97.11-21.1z" class="au"/><path d="m745.71 172.95 4.19 111.63-30.54 2.42-2.2-76.28 6.1-40.05 22.45 2.28z" class="z"/><path d="m724.82 176.3-10.3-9.48-20.27 3.85-9.26 111.37 34.37 4.96 5.46-110.7z" class="bi"/><path d="m745.71 172.95-5.49-7.02-3.44-.75.82-2.61-4.07-5.22-5.49-1.2-4.78 3.14 1.56 17.01 20.89-3.35z" class="ac"/><path d="m723.26 159.29-5.61-3.69-7.49.73-5.25 4.74v2.62l-3.4.44-7.26 6.54 30.57 5.63-1.56-17.01z" class="s"/><path d="m737.6 162.57-13.76 3.09-1.93 1.16 2.26 2.47 16.05-3.36-2.62-3.36z" class="av"/><path d="m723.84 165.66-18.93-4.59-3.4 3.06 22.66 5.16-.33-3.63z" class="ac"/><path d="m710.98 179.87 7.87 1.31-.65 6.12-8.2-1.31.98-6.12zM698.74 177.9l8.31 1.53-.77 5.69-7.87-1.32.33-5.9z" class="ab"/><path d="m730.88 182.49 10.38-1.64 1.42 30.17-12.9 1.43 1.1-29.96z" class="ak"/><path d="m733.97 186.21 4.23-.66 1.02 22.01-5.61.66.36-22.01z" class="z"/><path d="m732.81 190.14 6.41-1.09.07 1.17-6.34 1.09-.14-1.17zM732.52 194.52l7.43-1.39-.22 1.39-7.07 1.02-.14-1.02zM732.59 198.96l7.07-.94.22 1.31-7.29.8v-1.17zM732.52 203.63l7.87-.88-.15 1.17-8.01.95.29-1.24z" class="ak"/><path d="m723.26 159.29-3.31-8.39 14.53-1.42-.95 7.87-10.27 1.94z" class="au"/><path d="m722.24 151.99-2.4-2.84-9.95.55.27 6.63 13.1 2.96-1.02-7.3z" class="aw"/><path d="m709.89 149.7 11.37-3.39 13.22 3.17-12.24 2.51-12.35-2.29z" class="ah"/><path d="m712.84 148.82 8.42-2.51 4.61 1.1h-2.61l-1.07 1.74-5.03.87-4.32-1.2z" class="bb"/><path d="m722.19 149.15 3.68-1.74 3.36-40.31-9.78.67 2.74 41.38z" class="al"/><path d="m722.19 149.15-4.64-1.74-1.98-39.64 6.83.06-.06 2.02-.15 39.3z" class="as"/><path d="m715.57 107.77 5.52-1.97 8.14 1.3-6.89 2.75-6.77-2.08z" class="ao"/></g><g id="d"><path d="m506.98 89.36-26.06-32.54-7.28-3.12.65 4.48 29.76 32.28 2.93-1.1zM511.58 54.81l-8.8 21.45 1.68 3.06 10.38-24.51h-3.26zM529.23 61.36l-22.34 31.2.46-9.56 19.14-24.97 2.74 3.33z" class="au"/><path d="m504.24 89.67-37.6-29.91-7.27-2.64-.54 4.24 43.29 33.28 1.77-1.64.35-3.33z" class="aw"/><path d="m500.14 65.55 4.27-9.36 4.54-4.96-.91 5.72-7.26 16.16-.64-7.56zM502.78 87.01l13.65-28.32 5.13-3.19 5.34.38-5.34 3.88-17.8 28.97-.98-1.72z" class="au"/><path d="m506.87 95.32-32.21 33.91-2.56-9.56 14.1-10.71 21.1-16.93-.43 3.29z" class="aw"/><path d="m475.76 121.27 33.19-30.06-2.51-3.36-36.95 30.67 6.27 2.75z" class="au"/><path d="m401.11 79.29-16.23-23.88 1.99-2.78h7.69l6.55 26.66z" class="aw"/><path d="m371.57 41.2 20.91-11.01-5.61 19.02-10.06-1.16-5.24-6.85z" class="av"/><path d="m362.68 57.23 8.89-16.03 11.02 5.17 2.97 2.84-22.88 8.02z" class="aa"/><path d="m376.92 43.71 11.45-4.01 1.38 6.67h-12.06l-.77-2.66z" class="bd"/><path d="m376.92 43.71-1.11 8.92 9.75-1.74-2.97-4.52-5.67-2.66zM401.11 79.29l-14.24-33.28 10.03 8.42 14.12 30.55-9.91-5.69z" class="au"/><path d="m697.27 47.74-20.88-1.59 12.01 12.8 6.34-4.42 2.53-6.79z" class="aa"/><path d="m706.88 57.58-9.61-9.84-7.88 7.24 2.24 2.6h15.25z" class="av"/><path d="m695.51 57.58-2.03-6.36-6.33 1.33 2.24 2.43-.99 1.38 7.11 1.22z" class="bd"/><path d="m693.48 51.22-10.39-.52 2.36 5.48 3.94-1.2 4.09-3.76zM675.87 68.65l7.17-9.43h2.41l-5.9 12.88-3.68-3.45z" class="au"/><path d="m676.39 76.81 69.72 9.69-4.28-4.54-6.45.28-37.21-6.96-26.09-3.18-.81 2.12 5.12 2.59z" class="m"/><path d="m675.87 68.65 59.51 13.59-60.39-8.92-1.92-2.33 2.8-2.34z" class="bh"/><path d="m616.13 28.2-24.95 7.99 21.47 8 11.89-1.68-8.41-14.31z" class="aa"/><path d="m649.36 33.57-33.23-5.37 3.18 11.92 6.27 4.07 23.78-10.62z" class="av"/><path d="m617.07 31.72 13.89 5.86-10.97 5.58-3.76-3.04.84-8.4z" class="bd"/><path d="m617.07 31.72-9.63 6.74 12.55 4.7-2.92-11.44z" class="au"/><path d="m613.79 47.31 3.73-1.04 24.38 30.07-7.63 2.95-9.76-13.04-10.72-18.94z" class="ah"/><path d="m627.28 75.65-14.58-24.3 1.09-4.04 22.58 30.38-9.09-2.04z" class="aw"/><path d="m633.55 76.34-6.27-.69-28.37 30.9 3.21 8.44 13.98-10.77 17.45-27.88z" class="aw"/><path d="m606.31 107.57 27.24-31.23 1.63 6.66-7.9 13.06-12.15 16.91-8.82-5.4z" class="be"/><path d="M612.65 111.05 635.18 83h8.37l-1.65 3.49-18.65 32.76-10.6-8.2zM727.1 232.45l2.55 8.23.73 5 7.76-1.8 5.19-8.26-8.47-3.88-7.76.71z" class="aw"/><path d="m585.8 366.11 12.23-1.83 6.6-22.67-22.63 1.26 3.8 23.24z" class="ak"/><path d="m568 343.63 2.98 20.73 14.82 1.75 3.94-24.5-21.74 2.02zM645.91 372.94l-14.97-1.64-5.4-23.74 22.96 3.82-2.59 21.56z" class="y"/><path d="m645.26 353.91.65 19.03 15.2-1.55 6.41-27-22.26 9.52z" class="ak"/><path d="m729.36 365.18-12.54-1.16-5.68-23.01 20.41 1.86-2.19 22.31z" class="y"/><path d="m747.87 344.5-3.19 19.12-15.32 1.56-4.37-27.24 22.88 6.56z" class="ak"/><path d="m759.53 277.64-11.66 66.86-102.61 9.41-13.41-58.82 53.05-9.18 74.63-8.27z" class="bd"/><path d="m759.53 277.64-6.85 39.3-59.91 12.01-19.56-22.23-29.98 2.58-.31-6.85 41.98-16.54 74.63-8.27z" class="bb"/><path d="m558.09 280.59 9.91 63.04 77.26 10.28-2.34-51.46-16.03-12.72-68.8-9.14z" class="aw"/><path d="m558.09 280.59 2.28 14.5 82.86 14.21-.31-6.85-16.03-12.72-68.8-9.14z" class="bb"/><path d="m707.05 315.24-18.63-4.11-14.24-19.12 20.34 1.11 12.53 22.12z" class="ae"/><path d="m775.52 259.23-1.69 10.4-3.22 2.87 2.5 1.56-5.54 34.18-60.52 7-16.68-18.91-47.45 6.12-11.07-33.89 143.67-9.33z" class="al"/><path d="m641.61 277.64-21.13-11.15-74.25-3.78 1.18 9.36 2.37 2.47-1.87 1.45 1.15 9.14 93.86 17.32-1.31-24.81z" class="ae"/><path d="m546.23 262.71 122.93-23.5 106.36 20.02-133.91 18.41-95.38-14.93z" class="aj"/><path d="m773.83 269.63-131.67 18.44-3.9 1.19 4.11 2.75 130.74-17.95.72-4.43z" class="ah"/><path d="m642.16 288.07-94.75-16 .5 3.92 94.46 16.02-.21-3.94z" class="u"/><path d="m576.76 297.9 22.47 3.86 2.55 2.62 2.89-1.69 24.04 4.12 1.39 14.81-51.02-6.85-2.32-16.87zM630.1 329.34l-23.32-3.12-3.28.68-1.83-1.37-21.57-2.89 1.9 13.5 48.94 6.73-.84-13.53z" class="ac"/><path d="m599.23 301.76.95 6.74 5.34.8-.85-6.61-5.44-.93zM601.67 325.53l.71 5.61 5.2.68-.8-5.6-5.11-.69z" class="ae"/><path d="m568.64 258.42 43.55 10.14 39.81 1.17 32.47-7.22 5.9-4.53 9.82 1.83 33.03 2.7 18.37-7.78-37.22-7.01-134.27 8.51-11.46 2.19z" class="bb"/><path d="m390.65 90.66-14.91 15.88-4.91 5.73 35.98-22.91-16.16 1.3z" class="af"/><path d="M488.78 139.64 458.83 97.4l-14.33 1.47 2.31 4.26 26.22 37.55 13.17 4.19 2.58-5.23z" class="m"/><path d="m458.83 97.4-12.02 5.73-56.16-12.47 4.12-4.47 2.95-1.21-.02-1.98 3.41-3.71 57.72 18.11z" class="aw"/><path d="m483.98 141.86-30.81-41.76-2.94-.32.91 1.28 30.25 42.72 2.59-1.92z" class="bh"/><path d="m542.52 213.76-16.78 8.96-15.75-2.75 33.67-18.89-1.14 12.68z" class="af"/><path d="m543.22 205.89-30.71 16.61.54 2.08 30.17-16.73v-1.96z" class="m"/><path d="m538.26 193.61 4.26 20.15 3.36-1.64.35-1.59 1.1.89 3.28-1.6-3.2-19.24-4.4-4.59-4.75 7.62z" class="aw"/><path d="m545.88 212.12 1.45-.7-4.65-24.77-.16.12-1.57 2.52 4.93 22.83z" class="au"/><path d="m440.32 135.03-4.34 24.11 17.49 2.58 1.1-6.54-10.87-1.33 2.3-10.07.04-5.12-5.72-3.63z" class="bh"/><path d="m557.87 151.55 10.01-20.12 17.32-16.44 1.69 14.24-27.4 29.91-1.62-7.59z" class="aw"/><path d="m561.15 136.8-3.28 14.75 24.81-33.03h-12.4l-7.6 7.83-1.53 10.45z" class="at"/><path d="m562.68 119.52-16.45 27.69 14.92-10.41 11.59-18.28-10.06 1z" class="aw"/><path d="m636.37 121.27-55.98-30.61-4.13 6.74 36.27 26.93 23.84 7.1v-10.16zM567.88 111.05l-5.2 8.47 69.54 27.89v-7.77l-31.49-21.12-32.85-7.47z" class="au"/><path d="m576.26 97.4 60.11 34.03-4.15 8.21-64.34-28.59 8.38-13.65z" class="aw"/><path d="m649.78 185.7 14.13-48.68-9.76-5.59-14.07 20.89 3.47 36.44 6.23-3.06z" class="bh"/><path d="m654.15 131.43-12.57 36.63-11.92-16.51 15.59-25.2 8.9 5.08z" class="as"/><path d="m585.2 201.51 60.01-9.18 12.58 26.02-52.27 4.37-20.32-21.21z" class="s"/><path d="m712.67 201.51-67.46-9.18 1.43 20.33 24.57 8.31 41.46-19.46z" class="aq"/><path d="m625.65 158.44-4.15 9.62 9.15 24.27 15.99 20.33 18.96 6.42-13.49-31.12-26.46-29.52z" class="bd"/><path d="m673.07 211.87-40.85-64.46-6.57 11.03 39.95 60.64 7.47-7.21z" class="ah"/><path d="m621.5 168.06-6.84 10.28 9.05 28.31 16.37 22.19 9.7-14.94-14.6-21.57-13.68-24.27z" class="aw"/><path d="m612.65 197.31 13 33.73 14.43-2.2-25.42-50.5-2.01 18.97z" style="fill:#4a3554;fill-rule:evenodd;stroke-width:0"/><path d="m635.18 192.33 20.13 22.74-8.67 2.33v-4.74l-11.46-20.33z" class="ah"/><path d="m706.05 246.15-5.4 9.37-40.41 6.91-2.67-1.88-2.12 2.69-10.24 1.75-8.84-16.25 31.48-8.09 38.2 5.5z" class="be"/><path d="m575.15 243.76 4.95 12.47 10.33 1.39 2.02-1.66 4.95 2.6 8.78 1.18 1.66-2.91 4.35 3.72 9.94 1.34 2.43-1.34 3.67 2.16 16.98 2.28-2.29-13.63-23.61-10.71-44.16 3.11z" class="m"/><path d="m711.3 210.72-5.25 35.43-63.13 5.21-8.09-27.98 11.81-10.72 64.66-1.94z" class="ac"/><path d="m646.64 212.66-63.96-.54-7.53 31.64 67.77 7.6 3.72-38.7z" class="s"/><path d="m712.67 201.51-1.37 9.21-65.62 12-7.42-4.71 8.38-5.35 66.03-11.15z" class="aw"/><path d="m646.64 212.66-61.44-11.15-2.52 10.61 63 10.6.96-10.06z" class="af"/><path d="m654.15 255.15 7.58-1.16-1.49 8.44-4.79.81-1.3-8.09z" class="ah"/><path d="m587.5 249.29 7.08.87 2.82 8.4-6.97-.94-2.93-8.33zM603.5 251.36l6.68.77 2.01 8.42-6.01-.81-2.68-8.38zM619.2 253.26l6.67.73 2.36 8.72-6.1-.82-2.93-8.63zM645.25 126.35l-8.88-5.08-28.93 62.53 5.21 13.51 32.6-70.96z" class="be"/><path d="m654.15 131.43 7.48-13.53 26.77-4.93-15.33 10.27-18.92 8.19z" class="aa"/><path d="m654.15 131.43 19.03 1.15 15.22-19.61-34.25 18.46z" class="av"/><path d="m580.39 90.66-2.18-12.46-20.34-10.27 7.87 14.43 14.65 8.3z" class="aa"/><path d="m580.39 90.66-22.52-22.73 7 19.24 15.52 3.49z" class="av"/><path d="m607.44 183.8-9.99-7.5-16.33 2.04 13.16 4.37 13.16 1.09z" class="aa"/><path d="m607.44 183.8-26.32-5.46 13.16 8.6 13.16-3.14z" class="av"/><path d="m561.15 136.8-34.25 2.84 12.61 9.18 10.49 1.94h6.21l4.94-13.96z" class="ac"/><path d="m561.15 136.8 5.03 30.37-19.95 12.64 3.77-29.05 11.15-13.96z" class="s"/><path d="m550 150.76-30.49-19.33 7.39 17.39 16.63 9.48h3.88l2.59-7.54z" class="be"/><path d="m550 150.76 8.09 35.75-10.68 4.07-7.68-12.24 3.8-20.04 6.47-7.54zM519.51 131.43l-20.85 5.37 12.28 13.96 26.38 12.88 3.5 2.2 2.71-7.54-24.02-26.87z" class="aw"/><path d="m537.32 163.64-16.22 19.22-3.89 17.72 10.8-3.57 6.74-6.43 3.51 3.03 9.15-3.03-3.88-32.28-6.21 5.34z" class="af"/><path d="m498.66 136.8-25.63 3.88-12.45 1.8-9.9 12.22-6.98 17.68 44.43 12.93 38.77-19.07 10.42-2.6-38.66-26.84z" class="aa"/><path d="m443.7 172.38 10.87 19.25 62.64 8.95 20.11-36.94-38.66 6.45-8.46 8.7-46.5-6.41z" class="av"/><path d="m443.7 172.38 7.67-7.68 1.94 9 4.09 11.22 5.61-9.88 5.02-8.12 4.1 9.38 3.73 11.3 5.53-10.03 5.26-9.19 3.55 10.41 5.36 8.81 3.1-17.51 2.32-12.09 5.9 10.72 4.86 10.76 3.39-12.14 2.08-10.43 3.89 9.44 3.47 9.34 4.13-10.61-30.04 5.01-8.46 8.7-46.5-6.41z" class="ac"/><path d="m528.01 197.01 8.22-17.57 2.03 14.17-10.25 3.4z" class="aw"/><path d="m600.95 222.09 22.3 3.35-2.48 14.87-23.61-3.06 3.79-15.16z" class="ac"/><path d="m604.88 227.31 12.79 1.64-1.31 6.23-13.23-1.85 1.75-6.02z" class="bh"/><path d="m525.74 222.72-42.9-22.14 1.35 9.35 32.14 17.82 3.76-2.01-.58-1.16h2.76l3.47-1.86z" class="aw"/><path d="m522.27 224.58-40.88-20.99v1.15l38.7 21 2.18-1.16z" class="be"/><path d="m484.19 209.93 2.01-13.78-17.31-12.35 6.01 15.59 9.29 10.54z" class="be"/><path d="m484.19 209.93-12.9-6.34-2.4-19.79 15.3 26.13z" class="m"/><path d="M453.17 100.1 397.7 83l-2.93 3.19 56.37 14.87 2.03-.96z" class="be"/><path d="m375.74 106.54 1.67 16.95-16.9 17.08 5.15-19.41 10.08-14.62z" class="bh"/><path d="m375.74 106.54-16.69 11.86 1.46 22.17 15.23-34.03z" class="m"/><path d="m458.83 97.4 8.28-3.9-1.87-14.49-4.66 5.6-1.75 12.79z" class="aa"/><path d="m465.24 79.01-9.32 8.59 2.91 9.8 6.41-18.39zM462.04 147.21l6.12 16.43 6.74 4.03 18.62.39-20.49-7.8 1.87-1.12 15.87-7.59-11.97-6.68-18.22-2.39-6.22 2.91-3.68 9.31 11.36-7.49z" class="av"/><path d="m440.32 135.03 5.68 8.74 8.36 1.61 6.39-1.61 10.47 4.86-3.06 15 25.36 4.42 5.14-22.96-25.63-4.42-9.33.38-6.32-3.08-17.06-2.94Zm48.03 26.69-13.45-2.58 2.41-10.5 13.47 2.91-2.43 10.17Z" class="bh"/><path d="m454.36 145.39 3.02-7.41 15.65 2.7-1.81 7.96-16.86-3.25z" class="s"/><path d="m731.11 225.13-4.01 7.32 18.15 8.86 5.14-7.22-7.91-4.59-11.37-4.37z" class="au"/><path d="m753.85 231.74-15.6-9.02-7.14 2.41 20.26 12.47 2.48-5.86z" class="u"/><path d="m720.76 228.84-8.31 28.86-27.98 4.81-1.97-33.67h38.26z" class="as"/><path d="m715.91 245.68-3.46 12.02-12.26 2.11-4.14-16.05 19.86 1.92z" class="bb"/><path d="m671.35 227.09.54 10.51 2.96 7.04-2.37 4.28.59 11.31 11.4 2.28 1.96-31.26v-4.48l-15.08.32z" class="ab"/><path d="m671.35 227.09 15.08 4.16 34.33-2.41-23.39-6.56-26.02 4.81z" class="ao"/><path d="m671.89 237.6 5.91 1.61-.88 10.95-4.44-1.24-.59-11.32z" class="bh"/><path d="m696.05 243.76 7.63-6.16 25.97 3.08 10.9 7.04-14.54 3.64-29.96-7.6z" class="u"/><path d="m696.05 243.76 6.37 8.68 28.07 5.98 8.2-7.06-2.63-3.64-40.01-3.96zM729.65 240.68l24.2-8.94 10.2 5.86-15.41 8.08-12.58 2.04-6.41-7.04z" class="be"/><path d="m764.05 237.6-12.46 17.13-21.1 3.69 5.57-10.7 27.99-10.12z" class="bh"/><path d="m627.28 75.65 48.59-7-.88 4.67-21.72 8.6L635.18 83l-7.9-7.35z" class="au"/><path d="m635.18 83 39.81-9.68 1.4 3.49-34.49 9.68-6.72-3.49z" class="at"/><path d="m612.7 51.35-21.52-15.16 10.94 1.53 3.5 1.53 1.82-.79 11.87 1.66 11.65-2.54 2.59 1.52 3.94-2.94 11.87-2.59-23.28 23.26-6.09-7.09-7.29 1.61z" class="s"/><path d="m619.31 40.12 6.77 16.71-13.38-5.48 6.61-11.23zM630.96 37.58l-2.86 11.29 9.39-12.71-6.53 1.42zM602.12 37.72l6.99 8.55-1.67-7.81-5.32-.74zM735.38 82.24l17.74-8.81 2.47.33 3.77-3.43 11.56 5.95.02 1.6 7.14 2.08 12.57 19.84-33.92-16.69-21.35-.87z" class="ac"/><path d="m735.38 82.24 24.92-1.09 30.35 18.65-19.48-4.17-4.86-3.07-1.44 1.72-9.41-2.02-2.12-2.21-2.57 1.21-15.39-9.02z" class="s"/><path d="m760.3 81.15 10.62-4.87 7.16 3.68-17.78 1.19zM759.36 70.33l-7.53 11.19 1.29-8.09 6.24-3.1z" class="s"/><path d="m760.3 81.15 4.57 13.13 6.3 1.35-10.87-14.48zM751.83 81.52l3.63 10.74-4.69-1 1.06-9.74z" class="ac"/><path d="m683.75 62.92-1.29-2.94-.7-4.64h-1.33l-4.04-9.19 13 8.83 17.49 2.6-16.34 3.77-2.28-.86-4.51 2.43z" class="s"/><path d="m683.75 62.92 5.64-7.94 1.15 6.37-6.79 1.57zM682.46 59.98l.63-9.28-2.66 4.64 2.03 4.64z" class="ac"/><path d="M396.9 54.43 386 52.86l-1.12 2.55-22.2 1.82 19.91-10.86 9.89-16.18 4.42 24.24z" class="s"/><path d="m382.59 46.37 14.31 8.06-12.02.98-2.29-9.04z" class="ac"/><path d="m506.87 95.32-18.63-40.01 2.65-5.48 1.79.32.65-1.67 4.1.64 12.56 42.91-3.12 3.29z" class="m"/><path d="m493.33 48.48 13.54 46.84-15.98-45.49 2.44-1.35z" class="au"/><path d="m458.83 61.36 35.43-7.29 34.97 7.29L550 53.03l-53.63-17.32-52.67 15.52 15.13 10.13z" class="s"/><path d="m458.83 61.36-5.66-11.73 13.47 10.13-7.81 1.6zM494.26 54.07l-8.01-10.04-3.26-1.76-5.77 3.29 11.02 9.75 6.02-1.24zM474.97 45.94l5.95 10.88-4.18.86-1.77-11.74zM469.88 46.8l6.02 11.05-1.61.33-9.84-10.46 3.78-2.16 1.65 1.24z" class="aq"/><path d="m494.26 54.07 2.44-11.8 3.27-2.16 4.2 3.66-9.91 10.3zM509.55 44.86l-5.14 11.33 3.63.76 11.13-10.15-6.45-3.03-3.17 1.09zM524.07 47.79l-7.64 10.9 12.23-9.97-3.14-2.38-1.45 1.45zM521.56 59.76l12.73-9.9 6.69 1.35-19.42 8.55z" class="aq"/><path d="m443.7 51.23 40.28-40.22 32.45 4.75 24.66 30.82 3.66 3.68-3.77.95-12.32-2.49-3.14-2.38-1.45 1.45-4.9-.99-6.55-4.1-3.07 2.16-5.38-1.09-4.2-2.92-3.27 1.42-10.45 1.76-3.26-1.76-5.77 3.29-7.34 1.24-.39-2.13-5.04 3.05-20.75 3.51z" class="ac"/><path d="m516.43 15.76 12.23 32.96-4.59-.93-7.64-32.03zM509.55 44.86l-6.77-31.1 16.39 33.04-9.62-1.94zM495.78 12.73l.92 29.54 7.47 1.5-8.39-31.04zM477.22 45.56l13.67-33.54-4.64 32.01-9.03 1.53zM464.45 47.72l19.53-36.71-14.1 35.79-5.43.92zM540.98 51.21l-24.55-35.45L550 53.03l-9.02-1.82z" class="av"/><path d="m708.52 294.14 48.32-6.34-2.19 13.12-36.95 4.37-9.18-11.15z" class="az"/></g><g id="e"><path d="m158.83 374.2-26.01-7.65-51.6-2.32-32.08 4.32-18.95 4.39 63.21 15.39 65.43-14.13z" class="ao"/><path d="m6.87 365.09 59.39-6.37 60.77.94 5.79 6.89 26.01 7.65-65.43 14.13-60.27-4.49-26.26-18.75z" class="bb"/><path d="m187.15 183.76-43.36-5.28 5 16.92 16.68.2 21.68-11.84z" class="bf"/><path d="m166.27 182.16 3.34-.54-9.05-1.1-16.77-2.04 6.56 8.56 15.12-3.28.8-1.6z" class="bb"/><path d="m154.47 208.42 23.28-6.44 3.4-6.58-1.79-1.4 3.97-2.82 3.82-7.42-35.08 8.65 2.4 16.01z" class="ai"/><path d="m183.33 191.18-30.36 6.72.51 3.1 27.67-5.6 2.18-4.22z" class="ak"/><path d="m91.21 381.53-39.41-5.82-1.73-4.66 1.73-.66-2.66-1.84-1.53-4.12 3-1.22-4.18-1.93-4.84-13.04 57.2 5.81-7.58 27.48z" class="aq"/><path d="m139.47 345.51-4.66 14.73-1.99 1.97 1.07.94-1.07 3.4-2.25 1.49 1.5.86-1.8 5.71-39.06 6.92.76-20.25-12.37-5.72 59.87-10.05z" class="s"/><path d="m134.81 360.24-43.02 5.73-1.67 1.4 1.56 1.53 42.21-5.75.92-2.91zM132.82 366.55l-41.27 6-2.45 1.22 2.34 1.56 40.63-6.43.75-2.35z" class="ac"/><path d="m91.79 365.97-45.36-4.69 1.18 3.15 44.07 4.47.11-2.93zM91.55 372.55l-42.41-4 .93 2.5 41.37 4.28.11-2.78z" class="s"/><path d="m158.07 295.52-54.66 10.31 1.53 40.3s47.66-6.08 47.66-5.81 5.47-44.8 5.47-44.8Z" class="au"/><path d="m158.07 295.52-42.53 5.71 15.03 31.94s19.41 4.19 19.41 4.47 8.09-42.12 8.09-42.12Z" class="m"/><path d="m79.95 289.16 12.02 72.12 67.68-4.56 16.14-72.34-95.84 4.78Zm70.04 48.48L107.85 343l-.33-9.21 4.1-19.43 25.49-10.62 18.19-4.26-5.31 38.16Z" class="ae"/><path d="m16.8 280.01 15.42 73.52 59.75 7.75 2.31-61.8-17.47-12.33-60.01-7.14z" class="ah"/><path d="m16.8 280.01 68.41-14.35 90.57 18.71-81.5 15.11-77.48-19.47z" class="ag"/><path d="m16.8 280.01 68.41-14.35 67.76 14-22.15 12.3-55.44 2.77-58.58-14.72z" class="bb"/><path d="m101.08 244.14 14.87 39.39 13.99-2.34-11.22-42.59-17.64 5.54z" class="af"/><path d="m108.77 255.84 12.03-2.95.98 1.86-12.24 2.73-.77-1.64zM111.61 262.07l11.37-3.06.88 1.75-11.37 2.73-.88-1.42zM113.14 268.08l12.14-2.95.55 1.64-12.03 3.17-.66-1.86z" class="au"/><path d="m109.97 291.4-19.57-3.41-18.47-16.76-7.23 12.3-14.45-2.52-7.2-57.26 57.52 9.68 8.75 31.48.65 26.49z" class="s"/><path d="m85.9 266.4-23.37-3.66 2.17 20.79 25.7 4.46-4.5-21.59zM126.59 243.49l-10.11 2.79 8.8 25.99-7.58 1.75-8.53-25.72-5.54 1.53-5.75 4.22 12.09 37.35 27.77-6.78-11.15-41.13z" class="ac"/><path d="m100.21 261.25-20.26-3.04-5.39-15.69-29.64-3.92-.97-7.66 20.06-10.12 62.58 22.67 3.29 12.13-29.67 5.63z" class="bb"/><path d="m44.88 122.98-2.84 43.78 7.01.77 5.7-3.53 4.66-45.79-14.53 4.77z" class="bi"/><path d="m33.03 202-.73 9.53 2.46 1.98-2.67.76-.46 6.07 1.98 1.63-2.15.68-.51 6.61 44.96 6.7-3.92-27.11L33.03 202z" class="as"/><path d="m31.46 222.65 43.56 7.12-.36-2.5-43.03-6.93-.17 2.31zM73.66 220.36l-41.36-8.83-.21 2.74 41.93 8.57-.36-2.48z" class="k"/><path d="m95.19 187.8 53.62-15.22 6.48 61.05-50.18 10.64-9.92-56.47z" class="az"/><path d="m142.33 226.21-4.8-50.43 11.28-3.2 9.26 56.35-5.46 2.45h-6.78l-3.5-5.17z" class="m"/><path d="m152.61 231.38-10.28-5.17-42.63 10.86 6.99 7.88 45.92-13.57z" class="as"/><path d="m92.41 176.23-69.14-8.27-4.6 34.64 45.97 11.03 4.67 33.43 28.57 6.99v-40.42l-5.47-37.4z" class="m"/><path d="m152.68 163.92-82.83-10.27-46.58 14.31 65.57 13.45 38.84-5.63 25-11.86z" class="as"/><path d="m50.28 167.7 57.48 8.53 17.48-.1 9.3-7.24-59.76-9.9-24.5 8.71z" class="ac"/><path d="m152.68 163.92-63.84 17.49 9.04 72.65 64.13-16.98-9.33-73.15Zm-45.77 77.14-9.04-51.42 48.83-13.86 5.9 55.6-45.7 9.69Z" class="au"/><path d="m48.32 179.13 5.83 1.32-.58 5.83-6.27-1.61 1.02-5.54zM60.12 182.19l5.69 1.32-.58 6.26-5.98-1.89.87-5.69zM72.37 185.26l5.97 1.31.44 6.41-6.85-1.89.44-5.83z" class="ah"/><path d="m74.56 242.52 16.25 3.71-.65-4.37-16.33-3.64.73 4.3zM73.54 234.14l-.8-3.94 16.47 3.35.66 4.16-16.33-3.57z" class="as"/><path d="m101.67 171.12-59.21-9.06 13.13-4.03 56.16 10.64-10.08 2.45z" class="bb"/><path d="m101.67 171.12-3.11-42.72 1.14-2.19h8.11l3.94 42.46-10.08 2.45z" class="ai"/><path d="m44.88 122.98 53.68 5.42 9.25-2.19-48.4-8-14.53 4.77z" class="bf"/><path d="m114.46 192.98 2.29 13.23-7.87 9.97 9.51 11.56 10.93-2.84 5.22-14.37-10.79-6.07-2.04-13.28-7.25 1.8z" style="fill:#f9fafa;fill-rule:evenodd;stroke-width:0"/><path d="m114.35 216.48 15.08-3.6-2.29 8.85-7.98 2.3-4.81-7.55z" class="ac"/><path d="m126.26 187.73 6.89-1.53.33 2.41-6.67 1.53-.55-2.41zM127.57 193.42l6.02-1.42.33 2.4-6.13 1.2-.22-2.18z" class="ae"/><path d="m103.41 193.64 5.47-1.21 1.09 5.36-5.68 1.64-.88-5.79zM104.95 202.38l5.35-1.31.44 2.19-5.36.87-.43-1.75z" class="av"/><path d="m122.8 329.59-6.56 6.7-8.73-2.51-.18-5.24 4.54-3.76 10.93 4.81z" class="at"/><path d="m126.26 312.7 37.5-3.98-4.03 19-29.15 5.45-4.32-20.47z" class="ac"/><path d="m140.69 320.52 8.42 6.89-.5 2.39-6.8 1.27-1.12-10.55z" class="bb"/><path d="M106.69 310.86h19.14l6.31 5.31-1.56 17-23.25-4.63-.64-17.68z" class="s"/><path d="m163.76 308.72-26.65-4.99-30.42 7.13 25.45 5.31 31.62-7.45z" class="aa"/><path d="m144.9 305.19-7.79-1.46-30.42 7.13 10.39 2.16 27.82-7.83z" class="bb"/><path d="m115.11 317.2 1.97.54-.98 7.76-2.08-.54 1.09-7.76zM119.59 318.18l1.86.55-.98 7.98-2.19-.55 1.31-7.98zM124.08 319.27l1.53.22-.88 7.98-1.86-.44 1.21-7.76z" class="as"/><path d="m144.63 316.7-3.94 3.82 3.72 2.63 3.72.11 2.4-5.36-5.9-1.2z" class="au"/><path d="m140.69 320.52 2.95 5.47 5.47 1.42.66-4.04-2.74-1.32-6.34-1.53z" class="at"/><path d="m150.53 317.9 3.94 3.28-5.36 6.23-2.08-5.36 3.5-4.15z" class="ag"/><path d="m76.81 305.17-1.45 29.52-24.64-5.47-7.51-32.68 33.6 8.63z" class="au"/><path d="m83.52 307.03 3.28.76-.44 12.79-3.5-.76.66-12.79zM82.64 323.21l3.07.87-.66 12.79-3.39-.76.98-12.9z" class="az"/><path d="m169.61 181.62 2.02-81.79-7 3.31-1.53 62.22 2.37 18.4 4.14-2.14z" class="au"/><path d="m165.47 183.76-4.91-3.24-1.54-79.79 5.61 2.41.84 80.62z" class="m"/><path d="m164.7 105.65 11.01-2.15 7-16.69-24.64 2.99 6.63 15.85z" class="s"/><path d="m164.7 105.65-11.73-2.66-6.41-14.35h10.79l4.22 3.93 3.13 13.08z" class="aq"/><path d="m182.71 86.81-7-13.7-12.61 1.1-4.08 10.71 2.55 7.65 21.14-5.76z" class="ac"/><path d="m146.56 88.64 8.02-14.43h8.52l2.37 2.18-3.9 16.18-15.01-3.93z" class="s"/><path d="m154.58 74.21 10.05-3.5 11.08 2.4-10.24 3.28-10.89-2.18z" class="av"/><path d="m184.1 71.82 20.56-15.74 4.04 5.51-24.6 10.23zM141.79 79.62l-24.22.17 2.19 4.49 22.03-4.66zM147.2 65.48 125.27 54.8l3.61-4.59 18.32 15.27zM162.55 60.07l-10.59-28.35 6.83-1.97 3.76 30.32zM175.35 62.58l5.45-26.77 6.23 3.61-11.68 23.16z" class="ag"/><path d="m65.37 325.5-7.76 20.05-27.63-2.71-2.07-9.87 19.24-9.6 18.22 2.13z" class="bb"/><path d="m69.6 316.18-20.12 7.87-14.77.14-1.53-8.58 7.07-4.75 19.76-4.89 9.59 10.21z" class="bf"/><path d="m69.6 316.18-4.23 9.32-19.41 9.19-11.25-5.83v-4.67l34.89-8.01zM40.25 310.86l-18.35-6.53-10.13 13.28 10.28 9.8 12.66-3.22 5.54-13.33z" class="bi"/><path d="m11.77 317.61 16.14 15.36 18.05 1.72-11.25-10.5-22.94-6.58z" style="fill:#787f8d;fill-rule:evenodd;stroke-width:0"/></g><g id="f"><path d="m874.98 346.53-5.61 7.26-4.21 1.46 1.75 1.72-3.95 5.1-3.16 1.77 1.09.9-6.28 8.13-39.82 6.55-8.34-17.84 6.06-14.15 62.47-.9z" class="ac"/><path d="m747.87 344.5 4.08 7.06 5.54 2.35-2.48 2.97 2.48 4.29 2.87 2.67-.65 1.18 3.34 5.79 51.74 8.61 2.81-24.17-13.01-16.93-56.72 6.18z" class="s"/><path d="m775.52 259.23-20.55 13.04 71.77 19.7v-33.46l-25.61 2.77-25.61-2.05z" class="ai"/><path d="m823.83 283.05 17.24 7.92 31.63-18.89-19.39-14.6-21.86-.94-12.32 8.54 4.7 17.97z" class="bf"/><path d="m780.59 266.76 5.36-6.13 16.2-2.53 5.39 5.43-1.71 7.44-25.24-4.21z" class="as"/><path d="m827.81 263.15 3.56 7.89 21.25-4.73-6.36-7.26-10.15-.95-8.3 5.05z" class="al"/><path d="m778.15 235.81-2.63 23.42 10.43 1.4 1.51-1.07 2.1 1.56 5.22.7 1.68-1.4 1.74 1.85 5.51.74 1.89-1.97 1.94 2.49 11.59 1.55 5.63-18.27v-8.31l-46.61-2.69z" class="s"/><path d="m819.13 265.08 8.68-1.93.3-1.87 3.34 1.06 4.77-1.06.48-1.72 1.76 1.22 5.48-1.22.48-1.46 1.84.95 7.05-1.57-6.3-24.21-19.2 2.47-7.15 6.55-1.53 22.79z" class="ac"/><path d="m803.71 263.01 3.83.52 2.19-23.77-2.66-.59-3.36 23.84zM794.78 261.82l3.42.45 2.64-24.22-2.65-.27-3.41 24.04zM789.98 236.96l-4.03 23.67 3.61.49 3.22-24.46-2.8.3z" class="bc"/><path d="m827.81 263.15-3.05-24.65h1.52l5.17 23.84-3.64.81zM836.22 261.28l-4.77-23.91 2.39-1.02 4.62 24.43-2.24.5zM843.94 259.56l-5.93-24.15 2.97-1.36 5.28 25-2.32.51z" class="s"/><path d="m778.15 235.81 29.32-8.61 39.54 6.07-26.35 9.02-42.51-6.48z" class="av"/><path d="m754.97 272.27-7.1 72.23 69.73 10.75 10.51-46.12-4.28-26.08-68.86-10.78z" class="ak"/><path d="m823.83 283.05-6.23 72.2 57.38-8.72-2.28-74.45-48.87 10.97z" class="ai"/><path d="m829.63 290.31 16.72-4.48.8 57.42-21.64 3.28 4.12-56.22z" class="as"/><path d="m832.61 312.88 9.62-1.46v27.7l-11.17 1.9 1.55-28.14zM833.12 293.57l3.43-1.06.29 4.15-3.97.88.25-3.97zM837.93 292.27l3.94-.91.25 4.34-4.04.76-.15-4.19zM832.98 300.96l8.98-2.03.08 1.51-9.16 2.11.1-1.59zM832.86 304.26l9.22-1.98.03 1.46-9.37 1.92.12-1.4zM832.61 307.34l9.46-1.89.05 1.53-9.61 1.92.1-1.56z" class="be"/><path d="m852.14 295.23 5.45-1.43.17 5.52-5.5 1.49-.12-5.58zM860.71 292.98l5.32-1.24.31 5.67-5.34 1.11-.29-5.54zM851.96 284.89l5.33-1.36.14 5.79-5.17 1.21-.3-5.64zM860.33 282.87l5.24-1.26.55 5.74-5.63 1.32-.16-5.8z" class="ac"/><path d="m852.69 304.2 13.78-2.95.44 39.34-13.89 2.3-.33-38.69z" class="av"/><path d="m771.24 311.24 17.77-16.76 15.62 22.92-18.39 13.52-15-19.68z" class="ag"/><path d="m766.14 310.12 25.68-22.02v6.38l-3.56 5.06-12 12.46-2.44.94-7.68-2.82z" class="ah"/><path d="m791.82 288.1 18.56 28.81-11.06 1.03-2.63-2.72-8.43-15.68 3.56-11.44z" class="u"/><path d="m810.38 316.91-23.25 20.52-3.09-6.47 1.59-4.5 11.06-11.24 13.69 1.69z" class="bh"/><path d="m766.14 310.12 10.12 1.88 9.37 14.46 1.5 10.97-20.99-27.31z" class="u"/><path d="m869.37 353.79-52.39 6.8-2.88.95 2.5 2.3 50.31-6.87 2.46-3.18zM862.96 362.07l-46.92 6.65-1.94 1.67 1.51 2 45.28-7.65 2.07-2.67z" class="av"/><path d="m816.98 360.59-65.03-9.03 3.06 5.32 61.59 6.96.38-3.25zM816.04 368.72l-58.55-7.55 2.22 3.85 55.9 7.37.43-3.67z" class="ac"/></g><g id="g"><path d="m484.02 377.58 14.05-15.62-6.98-8.05-15.35 7.06 8.28 16.61z" class="s"/><path d="m481.71 360.13 3.88 7.36-.01 4.5 4.34 3.71 4.11 7.79-9.84 10.43-39.27-25.37 36.79-8.42z" class="ac"/><path d="m444.92 368.55 38.16 21.07 3.82 6.92-2.71 2.13-8.93-2.88-4.04-3.11-5.31.1-15.39-4.97-5.6-19.26z" class="s"/><path d="m494.03 383.49 7.19 1.31 3.77 1.94 5.01-.33 22 4.01-2.09 13.23-28.37-6.24-18.46-7.79 10.95-6.13z" class="ae"/><path d="m483.08 389.62 43.82 9.05 5.1 5.72-4.13 10.45-24.94-8.96-3-3.79-6.89-.01-8.85-3.41-1.11-9.05z" class="ah"/><path d="m489.92 375.7-4.49.8-6.27-5.54 6.43-3.47 4.33 8.21zM457.86 375.7l5.56-1.8 3.12 6.58-6.4-.85-2.28-3.93z" class="av"/><path d="m457.86 375.7 1.92 5.9 6.76-1.12-8.68-4.78z" class="ac"/><path d="m493.04 402.08 5.03-3.79 4.34 3.28.52 4.31-9.89-3.8z" class="ae"/><path d="m465.91 392.78 4.87-4.11 4.48 7.12-9.35-3.01z" class="ac"/><path d="m501.22 384.8 2.54 3.87 6.24-2.26-8.78-1.61zM508.67 394.91l3.67-2.2 2.68 1.1.72 2.56-3.23 1.26-3.84-2.72z" class="ao"/><path d="m508.67 394.91 1.33 2.92 3.6 1.39 2.14-2.85-7.07-1.46z" class="ae"/><path d="m526.9 398.67 5.1-8.25 23.83-7.51 4.31-.41 4.3-2.3 15.36-4.84 4.96 7.41-4.37 4.51-37.75 11.13-15.74.26z" class="av"/><path d="m527.87 414.84 52.23-24.11 2.37-1.09-4.47-5.02-51.1 14.05.97 16.17z" class="ac"/><path d="m579.8 375.36 24.83 17.09-20.63-3.91-6-3.92 1.8-9.26z" class="al"/><path d="m578 384.62 2.1 6.11 24.53 1.72-26.63-7.83z" class="ah"/><path d="m564.44 380.2-2.19 4.6-6.42-1.89 8.61-2.71zM548.58 392.71l3.06-4.04 6.45 1.43-4.75 3.47-4.76-.86z" class="aa"/><path d="m548.58 392.71 3.72 4.35 4.26-1.89 1.53-5.07-9.51 2.61z" class="av"/></g><g id="h"><path d="m572.09 300.09-29.52-3.93-60.86-7.77 31.34 28.13 59.04-16.43z" class="aj"/><path d="m489.22 254.1 24.93-.84 12.75 24.19 14.28 5.98 2.35 12.86-24.02 3.52-22.33-6.68-8.61 10.55-4.38-25.21 5.03-24.37z" class="aw"/><path d="m448.63 251.36 28.64.44 15.08 5.54-1.6 23.72-2.18 22.62-44.87-6.04 4.93-46.28z" class="at"/><path d="m448.63 251.36 25.94-5.1 39.58 7-21.8 4.08-43.72-5.98z" class="au"/><path d="m497.02 261.93 2.33-.36.95 7.87-2.92.29-.36-7.8zM502.63 260.77l2.92-.66.94 7.8-2.4.65-1.46-7.79zM509.19 259.74l2.33-.51 1.17 7.66-2.55.43-.95-7.58z" class="ae"/><path d="m490.2 286.24 27.12-3.39 2.19 16.96-24.53 3.59-4.78-17.16z" class="ac"/><path d="m497.02 292.03 15.67-2.3.64 3.4-15.86 1.96-.45-3.06z" class="m"/><path d="m477.27 262.22-5.98 5.1v3.43l3.5-1.02 5.9-4.08-3.42-3.43zM465.54 260.11l3.35 2.57-5.18 5.08-2.69.8-1.02-2.07 5.54-6.38z" class="u"/><path d="m474.79 269.73-2.4 10.86-4.36-1.02 3.26-12.25 3.5 2.41zM463.71 267.76l-2.62 9.76-3.72-.87 2.63-10.16 3.71 1.27z" class="au"/><path d="m452.85 257.41 4.3.44-.72 5.32-4.45-.58.87-5.18z" class="ae"/><path d="m314.21 382.57 19.05-2.07 5.14-26.17-31.05 2.86 6.86 25.38z" class="ah"/><path d="m288.93 363.33 1.77 16.46 23.51 2.78 3.95-27.24-29.23 8zM402.64 391.68l-16.24-1.6-6.72-24.95 22.52 3.42-.43 5.35 3.49 4.71-2.62 13.07z" class="be"/><path d="m401.77 373.9.87 17.78 21.77-2.3 7.96-23.89-30.6 8.41z" class="ah"/><path d="m529.48 380.2-17.59-3.01-8.13-23.28 24.01-.88 1.71 27.17z" class="be"/><path d="m550.8 355.42-2.02 22.62-19.3 2.16-6.75-25.17 28.07.39z" class="ah"/><path d="m357.78 312.15 33.56 3.49 2.99 50.18-41.21-4.04 4.66-49.63z" class="aq"/><path d="m355.96 322.92 35.31 3.12.11 4.14-34.87-3.82-.55-3.44zM354.43 332.32l38.48 3.17.11 3.55-39.03-3.28.44-3.44zM353.72 341.07l39.63 3.49.44 3-39.14-3.38-.93-3.11zM353.88 349.81l39.69 3.28.32 3.11-38.48-2.95-1.53-3.44z" class="s"/><path d="m393.38 302.45-107.79-16.07-3.87 14.73 7.21 62.22 112.84 10.57 8.94-69.96-17.33-1.49Zm-34.47 57.3 2.41-42.25 27.11 2.95 3.06 42.25-32.58-2.95Z" class="ac"/><path d="m555.07 313.22-4.27 42.2-149.03 18.48-2.29-61.75 13.27-9.7 72.42-13.62 25.84 26.38 44.06-1.99z" class="av"/><path d="m490.75 281.06 22.45 26.41 58.89-7.38-6.77 26.46-54.13 5.59-25.69-35.7-86.02 15.71-8.14-23.18 42.57-5.07 56.84-2.84z" class="ae"/><path d="m399.48 312.15-128.07-10.26-.93-8.16 3.82-1.22-4.29-2.94-1.03-9.06 87.58.55 41.71 12.67 1.21 18.42z" class="as"/><path d="m398.27 293.73-129.29-13.22 135.77-17.34 86 17.89-92.48 12.67z" class="aj"/><path d="m569.37 310.7-56.36 7.51-24.74-29.82-89.52 12.72-2.89.98 3.08 1.85 88.75-12.49 24.45 29.97 55.61-4.37 1.62-6.35z" class="as"/><path d="m398.75 301.11-128.74-11.54.47 4.16 128.46 10.21-.19-2.83zM412.75 320.89l66.2-8.74.56 8.17-2.24 3.74 2.71 3.06 1.73 25.25-67.82 7.76-1.14-39.24z" class="ab"/><path d="m479.51 320.32-12.37 1.77 1.31 6.13 11.53-1.1-.47-6.8z" class="au"/><path d="m491.09 339.25 51.55-5.1-1.43 11.98-48.67 5.25-1.45-12.13z" class="ac"/><path d="m514.15 339.95 7.94-.81-.44 2.85-7.14.65-.36-2.69z" class="aa"/><path d="m363.9 279.24 14.84-3.53 12.75 3.09 5.98 1.1-19.46 4-14.11-4.66zM409.53 274.61l-12.06 5.29 13.24 4 35.55-2.84-6.78-2.59-29.95-3.86z" class="bb"/><path d="m383.84 229.64-13.27 3.72 8.09 4.59 9.33-1.02-.95-2.99-3.2-4.3z" class="ah"/><path d="m385.44 235.76-1.6-6.12 13.63 4.08-7.22 3.06-4.81-1.02z" class="be"/><path d="m376.4 278.69-1.64-37.79 9.88-.4 1.82 12-2.19 27.94-7.87-1.75z" class="ah"/><path d="m383.29 242.54 4.56-2.48 4.78.95-1.14 37.79-7.22 1.64-.98-37.9z" class="ae"/><path d="m383.29 242.54-1.57-2.84 3.72-3.94 12.03-2.04-4.84 7.29-9.34 1.53z" class="ah"/><path d="m385.44 235.76-14.87-2.4 4.19 7.54 8.53 1.64 2.15-6.78z" class="be"/><path d="m383.48 248.37 6.11 1.17-6.3 4.71-.98-3.76 1.17-2.12z" class="aa"/><path d="m383.48 248.37-6.2 1.42 3.44 4.46 2.85-1.89-.09-3.99z" class="av"/><path d="m389.59 249.54-1.6 26.68-3.82.85-2.45-5.08 1.85-19.63 6.02-2.82z" class="av"/><path d="m377.28 249.79 1.46 25.92 5.43 1.36-.6-24.71-6.29-2.57z" class="ac"/><path d="m423.52 229.64 12.13 3.72-6.88 7.87h-9.08l3.83-11.59z" class="ak"/><path d="m409.53 233.8 13.99-4.16-.33 8.31-4.59 1.46-9.07-5.61z" class="ai"/><path d="m401.61 269.59 24.86.14-.65 7.72-3.94 3.61-16.07-1.71-4.2-9.76z" class="ak"/><path d="m423.96 273.96 6.46-5.4 12.45 2.58-3.39 7.33-17.6 2.59 2.08-7.1z" class="ai"/><path d="m401.61 269.59 10.1-22.02 12.25-1.17 2.51 17.28-2.51 10.28-22.35-4.37z" class="ai"/><path d="m421.88 250.56 4.81-4.63 4.05 2.44 12.13 22.77-18.91 2.82-2.08-23.4z" class="bf"/><path d="m411.71 247.57-2.18-13.77 13.66 4.15 2.3 6.54-3.61 6.07-10.17-2.99z" class="ak"/><path d="m421.88 250.56 1.31-12.61 12.46-4.59-4.91 15.01-8.86 2.19z" class="ai"/><path d="m408.54 270.94 2.17 5.02 11.93 2.51 3.18-1.02-1.86-3.49-3.28-3.02h-12.14z" class="aw"/><path d="m422.64 278.47 14.33-3.15 2.08-3.61-5.25-.96-9.84 3.21-1.32 4.51zM423.96 273.96l1.53-1.96-2.21-3.44-2.88-2.07h-9.69l-2.17 4.45 15.42 3.02z" class="u"/><path d="m423.96 273.96 15.09-2.25-3.4-6.06h-9.18l-3.19 2.91.68 5.4zM410.71 266.49l11.83-3.81 1.96 1.66-1.22 4.22-12.57-2.07z" class="as"/><path d="m423.28 268.56 12.37-2.91-13.11-2.97.74 5.88z" class="al"/></g><g id="i"><path d="m184.76 366.96-1.2 10.18 11.15-10.5-9.95.32zM220.91 357.57l-15.04 16.5-3.17.49 2.45 3.58 11.06-7.66 5.46-5.48-.76-7.43z" class="ac"/><path d="m222.72 378.28-7.73 12.33h7.39l4.75-10.71-2.44-6-1.97 4.38zM241.81 381.11l-3.97 11.78h7.39l1.05-11.23-3.36-3.57-1.11 3.02z" class="as"/><path d="m218.69 363.67-2.48 6.81 7.81 6.94 6.18-2.28 1.5-1.78-2.52-8.24-10.49-1.45zM218.25 340.2l-7.58 4.62-.73 3.77 3.35 2.31 6.27-2.31-1.31-8.39z" class="ag"/><path d="m230.56 336.7 3.11 5.38 1.3 4.97 3.78 3.85 3.3 7.88-3.43 7.35-6.92 7.23-13.01-9.69-2.48-28.11 8.6-3.31 5.75 4.45z" class="al"/><path d="m213.29 326.76-10.53-7.53 5.27-13.94 3.86 5.91 1.4 6.61v8.95zM225.83 318.56l-3.28-8.42 8.09-8.64.55 5.02-.87 7.88-4.49 4.16z" class="s"/><path d="m213.29 326.76-4.84-9.24 3.44-6.32 4.32 6.61-2.92 8.95zM231.19 306.52l-4.06 4.17 2.03 6.41 2.54-5.9-.51-4.68z" class="aq"/><path d="m242.16 322.08-11.6 14.62-14.35-1.14 4.52-11.52 13.49-6.12 5.17-.4 2.77 4.56z" class="as"/><path d="m213.29 326.76 18.41-15.56 5.65 2.87 5.83-1.33-1.02 9.34-4.52-2.25-14.14 6.93-7.29 8.8-2.92-8.8z" class="ao"/><path d="m237.64 319.83-1.85-5.43 2.83.99-.98 4.44z" class="ab"/><path d="m238.23 317.61-6.53-6.41 11.48 1.54-4.95 4.87z" class="av"/><path d="m233.67 342.08-2.48 8.82v2.86l4.15 1.33 3.41-4.19-5.08-8.82z" class="ag"/><path d="m231.19 350.9-6.12 1.84v2.35l2.06 1.62 8.21-1.62-4.15-4.19z" class="as"/><path d="m225.07 352.74-4.16 6.53 4.16 3.12 2.06-5.68-2.06-3.97z" class="ag"/><path d="m210.67 344.82-7.51.73-.4 2.38 1.35 1.75 9.18 1.22-2.62-6.08z" class="as"/><path d="m202.51 361.73 6.79-3.77-7.74-18.39-6.67-4.01-2.51 6.52 2.98 5.78 3.69 2.45-.4 3.93 3.86 7.49z" class="s"/><path d="m195.36 347.86 6.26-1.7 2.39 4.06-5.36 4.02-3.29-6.38z" class="as"/><path d="m201.56 339.57-17-38.65-6.39 17.19 11.69 26.71 11.7-5.25z" class="ao"/><path d="m191.29 336.7 1.09-3.06 3.42 1.53-1.53 3.21-2.98-1.68z" class="as"/><path d="m242.05 358.78-10.35 14.58 9.58-.93 5.27-2.9-4.5-10.75z" class="ag"/><path d="m246.55 369.53-14.85 3.83 6.17 2.92 6.16-.69 2.52-6.06z" class="ah"/><path d="m231.7 373.36 10.11 7.75 4.47.55-2.25-6.07-12.33-2.23z" class="ae"/><path d="m205.87 374.07-15.2-12.34-5.91 5.23 20.39 11.18.72-4.07z" class="av"/><path d="m216.21 370.48 13.99 4.66-3.07 4.76-4.41-1.62-6.51-7.8z" class="al"/></g><g id="j"><path d="m340.29 152.44-5.18 5.04 2.26 10.12 7.71-10.49-4.79-4.67z" class="ar"/><path d="m371.26 162.2-8.94-11.71-7.27 1.95.9 8.78 15.31.98z" class="x"/><path d="m317.02 213.86 20.7-4.47 15.78 3.18 4.2 11.2-28.38 16.9-12.29-11.77-.01-15.04zM241.89 270l18.37 10.45 2.1 5.52-5.32 8.19-23.45-6.96 8.3-17.2z" class="z"/><path d="m250.25 233.03-22.97 35 6.31 19.17 30.57-19.31v-19.22l-13.91-15.64z" class="bi"/><path d="m312.75 229.7-11.69-10.07-32.08 21.39 25.72 17.26 10.14 3.11 7.91-9.18V229.7z" class="be"/><path d="m298.25 217.51 10.79 15.52-16.06-1.49-14.88 10.35-9.12-18.12 29.27-6.26z" class="ah"/><path d="m284.34 399.38 4.17-6.78-4.47-11.38-5.15 5.82 2.58 12.34h2.87zM336.27 393.41l2.34-8.98-3.16-5.89-3.76-3.38-2.43 5.77 3.64 12.48h3.37z" class="aw"/><path d="m321.1 300.9 45.06 44.27-35-65.68-7.42 6.93-2.64 14.48z" class="l"/><path d="m323.74 298.11 42.42 47.06-25.97 22.96-12.67-35.1-3.78-34.92z" class="z"/><path d="m253.2 367.2 86.99.93-7.72-19.83-62.7-4.28-16.57 23.18z" class="ak"/><path d="m294.56 380.25.14-5.46-9.14-4.8-2.48 8.38.96 2.85 7.29 6.55 3.23-7.52zM341.31 372.9l-4.89-20.73-13.17-11.55-2.92 17.56 11.36 16.98 7.34 8.9 2.28-11.16z" class="q"/><path d="m336.42 352.17-15.32-4.07-4.79 4.07 4.02 6.01 16.09-6.01zM294.7 374.79l-14.29-4.43 2.67 8.01 11.62-3.58z" class="ba"/><path d="m331.69 375.16 9.62-2.26 21.05 20.51h-19.8l-10.87-18.25zM284.04 381.22l10.52-.97 10.1 19.13h-20.32l-.3-18.16zM274.33 292.4l32.45-2.3 15.32 13.66 14.32 48.41-41.72 1.78-20.37-61.55z" class="be"/><path d="m298.25 217.51 14.5 34.7 12.57-1.22 4-10.32-12.3-26.81-18.77 3.65z" class="o"/><path d="m298.25 217.51 14.5 34.7 6.47-23.7-20.97-11z" class="l"/><path d="m297.61 295.09 38.81 56.89-12.68-53.87-12.59-4.12-13.54 1.1z" class="ah"/><path d="m320.15 264.97-7.4-12.74-18.05 6.05-5.45 16.89 8.37 19.71.19.23 25.93 3-3.59-33.14z" class="at"/><path d="m268.98 223.77 11.18 22.36 14.54 12.15-3.84 18.4 6.75 18.41-2.91 79.7-43.34-6.34 27.99-78.35-15.19-22.21-13.91-34.86 18.73-9.26z" class="bf"/><path d="m297.61 295.09-46.25 73.36 22.97-76.05 12.44-2.3 10.84 4.99z" class="z"/><path d="m268.98 223.77-3.36 21.81 29.08 12.7-25.72-34.51z" class="l"/><path d="m231.03 136.36-12.11 26.49-24.17 28.74 10.22-49.97 26.06-5.26z" class="av"/><path d="m217.7 248.67-22.93-17.88 22.6-5.48 8.19 3.51-7.86 19.85z" class="s"/><path d="m231.03 136.36-36.28 55.23 32.19-8.01 4.09-47.22z" class="ac"/><path d="m257.25 210.25-39.55 38.42-.45-55.01 40 16.59z" class="aq"/><path d="m194.75 191.59 23.17-10.35 16.69 6.94 15.22 10.18 7.42 11.89-62.5-18.66z" class="ad"/><path d="M217.92 181.24 247.5 199l-11.88-20.88-17.7 3.12z" class="aq"/><path d="m305.7 124.31 4.69 4.64 18.93 63.22-25.06 9.38-22.17 19.76-11.97-3.92-27.98-37.56-5.91-50.37 51.19-19.94 18.28 14.79z" class="ar"/><path d="m292.98 231.54 2.99-7.95-11.1-11.72-21.47-63.81-8.68-8.25-21.23 18.62L247.5 199l4.01 2.49 5.74 8.76 11.73 13.52 24 7.77z" class="q"/><path d="m274.95 212.58 21.02 11.01 8.29-22.04-29.31 11.03z" class="ba"/><path d="m254.72 139.81 27.71-8.23 9.14-9.09-3.23-15.37-54.85 20.8 8.67 14.67 12.56-2.78z" class="av"/><path d="m247.5 199 .82-5.92h3.94l4.99 17.17L247.5 199z" class="ba"/><path d="m270.64 150.2 2.86.87 4.41-3.6 6.52.35-8.05-3.17-5.74 5.55zM298.89 141.75l2.43 1.49 3.16-4.31 6.47.7-6.95-3.05-5.11 5.17z" class="an"/><path d="m289.25 186.92 8.28 2.96 10.91-4.02-9.55-.49-9.64 1.55z" style="fill:#9471a4;stroke-width:0"/><path d="m315.89 161.88-9.14 5.72-2.27-4.3 11.41-1.42zM275.97 173.98l22.36-2.4.23-6.19-22.59 8.59zM271.57 159.46l18.66.85-1.24-8.69-17.42 7.84zM312.36 147.11l-5.58 7.92-4.24-6.58 9.82-1.34z" class="x"/><path d="m288.34 107.12-5.91 24.46 23.27-7.27-17.36-17.19z" class="s"/><path d="m239.69 169.96 13 16.33 6.27-8.27-13.68-19.27 9.44-18.94-21.23-11.89-15.57 53.32 10.61.99 4.82.45 6.34-12.72z" class="ad"/><path d="m239.69 169.96-3.02 8.16-2.51-10.5 32.25-10.8 3.73 3.11-.75 5.54-29.7 4.49z" style="fill:#4a3554;stroke-width:0"/><path d="m308.44 172.58-3.6 2.67h-5.26l-2.6-7.68-6.75-15.95 12.31-3.17 3.31 16.48 2.59 7.65z" style="fill:#e8cab6;stroke-width:0"/><circle cx="285.75" cy="161.87" r="2.45" class="bg"/><circle cx="313.21" cy="153.36" r="2.45" class="bg"/><path d="m247.5 199 7.69-9.57-15.5-19.47-6.34 12.72L247.5 199z" class="ar"/><path d="m241.11 176.95 6.05 8.26-10.55-2.6 4.5-5.66z" class="ba"/><path d="m259.04 193.74-3.42 3.09-6.53-7.29 3.6-3.25 6.35 7.45z" style="fill:#fff;fill-rule:evenodd;stroke-width:0"/><path d="m308.44 172.58-2.81 4.82-6.05-2.15 8.86-2.67z" style="fill:#8b6651;stroke-width:0"/><path d="m305.92 164.9 22.25-6.76-6.09-18.18-55.68 16.86 6.25 18.17 24.25-7.39-4.81-14.35 8.87-2.73 4.95 14.4Zm-30.72 5.11-3.63-10.55 16.68-5.06 3.54 10.56-16.59 5.06Zm47.85-14.51-14.59 4.42-3.63-10.55 14.68-4.43 3.54 10.56ZM289.25 186.92l19.19-1.06-6.88-2.56-2.11.63-2.53-1.23-7.67 4.22z" class="v"/><path d="m312.75 252.21 10.99 45.9 7.42-18.62-1.84-38.82-16.57 11.54z" style="fill:#89909b;stroke-width:0"/><path d="m264.16 267.89 10.17 24.51 23.28 2.69-2.91-36.81-30.54 9.61z" class="ak"/><path d="m260.26 280.45 7.24-4.51 1.48 11.26-3.36 6.34-8.58.62 3.22-13.71z" class="q"/><path d="m267.5 275.94 15.86 10.45-11.95 15.5-5.79-8.35 1.88-17.6z" class="ar"/><path d="m337.72 209.39 6.92-23.72 11.43-4.1 4.69 6.06-3.06 36.14-19.98-14.38z" class="bi"/><path d="m333.24 173.98 11.4 11.69 16.12 1.96-5.71-17.95-21.81 4.3z" class="z"/><path d="m371.26 162.2 1.24 11.78-11.74 13.65-7.58-15.05 7.82-7.19 10.26-3.19z" class="o"/><path d="m340.56 134.36 6.86.51-3.57 8.37-3.56-4.51.27-4.37z" class="z"/><path d="m335.89 139.15 4.67-4.79 1.95 4.79-2.22 3.44-4.4-3.44zM341.52 156.57l-8.28 17.41 19.94-1.4-1.41-17.55h-6.84l-3.41 1.54z" class="o"/><path d="m355.05 152.44 16.21 9.76-18.08 10.38-4.05-15.47 1.51-3.86 4.41-.81z" class="l"/><path d="m335.89 139.15 5.63 17.42 7.61.54-.35-11.12-6.27-6.84h-6.62z" class="z"/><path d="m342.51 139.15 4.91-4.28 7.63 17.57-5.92 4.67-6.62-17.96z" class="o"/><path d="m350.21 161.22 16.01.63-7.89 4.81h-6.7l-4.21-1.25 2.79-4.19z" class="aa"/><path d="m350.21 161.22-9.92 3.1 7.13 4.36 4.21-2.02-1.42-5.44zM366.22 161.85l2.01 2.09-5.39 5.28-9.66 3.36-1.55-2.22v-3.7l14.59-4.81z" class="av"/><path d="m351.63 166.66 1.55 5.92-5.76 2.33-9.26-1.28 2.13-9.31 11.34 2.34zM368.23 163.94l1.16 7.86-10.7 11.72-3.64-2.45-1.87-8.49 15.05-8.64z" class="ac"/><path d="m338.16 173.63 15.02-1.05 5.51 10.94-12.73-.82-7.8-9.07z" class="s"/><path d="m362.32 150.49-6.05-4.15-4.5 8.69 3.3 2.45 7.25-6.99z" class="ar"/><path d="m357.92 173.58 1.32-1.48 1.48 1.79-1.79 1.72-1.01-2.03zM348.29 178.69l1.25-1.41 2.03 1.17-2.03 2.18-1.25-1.94zM346.42 176.27l1.33-.47-.7-1.32-1.33.78.7 1.01zM347.55 169.77l.94-1.02 1.01 1.25-1.32.7-.63-.93z" class="ao"/></g></svg>