<svg xmlns="http://www.w3.org/2000/svg" id="a" viewBox="0 0 900 420"><defs><style>.aa,.ab,.ac,.ad,.ae,.af,.ag,.ah,.ai,.aj,.ak,.al,.am,.ar,.as,.at,.au,.av,.ax,.ay,.az,.ba,.bb,.bc,.bd,.bf,.bi,.bk,.bn,.bo,.bp,.bq,.br,.bs,.bt,.bw,.bz,.ca,.cc,.cd,.ce,.cf,.cg,.ch,.ci,.cj,.l,.m,.n,.p,.q,.r,.s,.t,.u,.w,.y,.z{stroke-width:0}.aa,.ad,.ah,.al,.at,.au,.ax,.bi,.bn,.bo,.bq,.bw,.l,.r{fill-rule:evenodd}.bf,.l{fill:#404857}.m{fill:#576071}.n{fill:#735283}.ba{fill:#51596a}.p{fill:#e7dfea}.bn,.q{fill:#543042}.r{fill:#e8cab6}.s{fill:#89909b}.t{fill:#1d2432;opacity:.1}.u{fill:#7a578a}.w{fill:#d0af96}.y{fill:#9f80ae}.z{fill:#9471a4}.aa,.am{fill:#c3987b}.ab{fill:#513a5c}.ac,.bw{fill:#8b6651}.ad,.aj{fill:#734d61}.ae{fill:#4a3554}.af,.bo{fill:#dfbda5}.ag{fill:#583f64}.ah{fill:#68707f}.ai{fill:#9a9fa9}.ak,.bq{fill:#b3889d}.al{fill:#785d88}.ar,.ax{fill:#454d5d}.as{fill:#f7e6dc}.at,.ca{fill:#96637c}.au{fill:#734d60}.av{fill:#29303e}.cj{fill:#ab90b8}.ay{fill:#cccfd4}.az{fill:#6c4d7b}.bb{fill:#bbbfc6}.bc{fill:#2e3544}.bd,.bi{fill:#343c4b}.bk{fill:#4b5464}.bp{fill:#654873}.br{fill:#a9846c}.bs{fill:#d1a1b8}.bt{fill:#5e436b}.bz{fill:#787f8d}.cc{fill:#3d4554}.cd{fill:#b7a0c2}.ce{fill:#cfbfd6}.cf{fill:#232a38}.cg{fill:#efd3c2}.ch{fill:#88619a}.ci{fill:#43304c}</style></defs><g id="b"><path d="m82.11 357.11-42.13 5.43-32.25 9.28 37.88 9.41 75.39 5.44 13.06-7.24 19.73-9.87-71.68-12.45zM163.16 356.8l35.38 6.44 75.8 1.55 16.28-6.32 17.6-1.06 44.76-5.7-23.56-10.03-50.21-3.85-63.79 5.85-52.26 13.12zM198.54 377.63l93.93-4.98 36.95 12.7-57.32 9.77-51.34-4.27-22.22-13.22zM345.22 384.05l26.88-4.75 41.48 7.21-21.75 7.71-29.71.31-16.9-10.48zM421 395.76l20.71-3.44 36.59-1.18 12.02 3.7-20.65 9.7-32.67-1.08-16-7.7zM533.16 371.41l77.04 9.56-27.75 8.4-17.62-3.38-17.61 3.38-44.67-7.64 12.04-6.76 18.57-3.56zM725.73 369.9l30.41-5.27-4.01-7.7-94.92-7.71-44.69 6.17-7.7 11.71-22.9 3.64 46.48 9.07 16.48-8.09 17.05 7.77 63.8-9.59zM717.78 317.65l16.72 2.09-7.48 8.7-47.09 2.15 10.72-12.86 27.13-.08zM762.34 391.99l-2.2-4.24-2.62 4.24h-6.22l-8.72-5.78 10.47-14.18 49.42-5.06 54.98 1.54 35.74 10.97-34.66 11.63-96.19.88z" class="t"/></g><g id="c"><path d="m207.39 328.16 50.12-5.66 37.24 5.11-16.33 14.5-29.9 1-41.13-14.95z" class="ay"/><path d="m274.34 364.79-71.92-7 4.97-29.63 51.36 5.37 5.67-117.61 23.12 3.06 9.24 121.48-22.44 24.33z" class="bz"/><path d="m302.54 224.87 5.68 132.54-33.88 7.38 5.95-133.46 22.25-6.46z" style="fill:#abafb8;stroke-width:0"/><path d="m403.34 26.39-14.06-5.55-233.31 9.79 11.13 11.94 216.64-8.32 19.6-7.86z" class="bz"/><path d="m168.51 37.43-12.54-6.8 7.7 205.28 9.67 5.59 3.68-25.58-3.51-167.03-5-11.46z" class="bf"/><path d="m177.02 44.7 219.71-10.45 6.61 188.74-222.16 10.05-4.16-188.34z" style="fill:#f7f5f6;stroke-width:0"/><path d="m392.86 212.73-9.12-178.48h10.37l9.23 188.74-6.61-1.2-3.87-9.06z" class="bf"/><path d="m181.18 222.99 211.68-10.26 7.01 4.68-12.02 6.93-206.67 8.7v-10.05z" class="ai"/><path d="M403.34 26.39 168.52 37.43l4.83 204.07 238.2-10.71-8.21-204.39ZM187.33 227.74 182.39 51.3l209.44-12.66 8.04 178.76-212.54 10.33Z" style="fill:#545c6d;stroke-width:0"/><path d="m194.39 60.55 20.11-1.85.92 6.47-20.8.69-.23-5.31zM309.73 188.66l32.59-2.08.69 17.57-32.13 2.08-1.15-17.57z" class="bb"/><path d="m301.17 189.12 1.16 17.8-38.83 2.31-1.39-18.26 39.06-1.85z" class="ay"/><path d="m343.86 70.19 30.28-1.87v4.39l-30.05 1.39-.23-3.91zM344.47 80.67l29.9-1.49.46 4.16-30.05.69-.31-3.36zM343.78 60.26l29.35-1.78.54 3.7-29.74 1.7-.15-3.62zM342.7 51.09l29.43-2.24.39 4.09-29.59 1.61-.23-3.46zM345.09 90.46l30.2-1.57.23 3.7-29.97 1.49-.46-3.62zM347.86 119.43l30.2-1.57.24 3.7-29.97 1.49-.47-3.62zM345.94 99.94l29.35-1.39.23 3.7-29.12 1.39-.46-3.7zM347.14 109.6l29.36-1.39.23 3.7-29.12 1.39-.47-3.7z" class="bb"/><path d="M332.74 51.25 301.3 53.1l8.19 124.47 31.9-1.85-8.65-124.47z" style="fill:#dddfe2;stroke-width:0"/></g><g id="d"><path d="m659.87 320.38-1.89 8.57 27.96 3.61 26.9-4.95-.83-8.32-26.73 3.69-25.41-2.6z" class="aj"/><path d="m683.71 314.84-23.84 5.54 25.21 6.16 26.93-7.25-28.3-4.45z" class="ca"/><path d="m685.28 322.98 4.78-2.1 6.52-107.98-9.9 13.09-4.07 22.22 1.49 69.96 1.18 4.81z" class="bp"/><path d="m686.68 225.99-1.4 96.99-5.52-2.64-1.21-100.72 8.13 6.37z" class="n"/><path d="m702.19 31.44 33.05 12.66-16.52 73.11-35.01-45.56 7.12-27.55 11.36-12.66z" class="bs"/><path d="m652.2 41.68 49.99-10.24-3.07 31.86-23.46-2.05-23.46-19.57z" class="ak"/><path d="m677.2 48.82 24-7.14 3.93 10.79-5.68 7.4-12.29-1.55-9.96-9.5z" style="fill:#fbfafb;stroke-width:0"/><path d="m701.2 41.68 18.26 9.09-20.01 9.1 1.75-18.19z" style="fill:#dbcfe0;stroke-width:0"/><path d="m652.2 41.68 40.95 11.69 9.04 76.96-15.51 106.53-23.82-3.22-7.51-140.98 5.4-5.72-6.31-10.03-.57-9.71 4.75-3.9-5.65-9.93-.77-11.69z" class="bs"/><path d="m693.15 53.37 42.09-9.27-1.52 12.26-5.66 6.94 4.31 3.9-1.43 13.01-7.71 8.29 6.08 6.44-13.85 137.45-28.78 4.47 6.47-183.49z" class="ak"/><path d="m652.97 53.37 39.77 9.93 4.07 3.9-4.59 8.5-38.35-8.5-.9-13.83z" class="cj"/><path d="m692.74 63.3 40.98-6.94-1.35 10.84-40.15 8.5.52-12.4z" class="z"/><path d="m654.44 76.91 37.46 9.57 5.99 6.78-6.5 6.83-36.04-7.43-.91-15.75z" class="cj"/><path d="m691.9 86.48 39.04-6.27-1.63 14.73-37.92 5.15.51-13.61z" class="z"/></g><g id="e"><path d="m712.71 362.96-12.93-2.41-5.28-34.95 13.87-1.55 6.93 13-2.59 25.91z" class="ai"/><path d="m621.08 364.79 9-1.01 4.15-37.72-13.15-.46-9.84 19.6 9.84 19.59zM716.97 218.98l15.9-4.66-13.41 105.78 3.7 39.22-10.45 3.64-7.81-31.07-32.53 5.01-3.29 34.93-9.26 2.03-5.02-17.35 8.31-32.46 28.62-29.66 25.24-75.41z" class="bz"/><path d="m609.67 324.05 46.43 15.07 2.52-13.06-34.68-13.97-14.27 11.96zM719.46 219.92l-10.63-4-48.08-3.12-12.79 81.59 30.67 16.55h25.98l14.85-91.02z" class="ai"/><path d="m719.46 219.92 13.41-5.6-53.02-6.65-19.1 5.13 58.71 7.12zM704.61 310.94l-17.93 2.9-38.72 10.21-19.09-5.15-21.64-5.06 40.73-14.62 56.65 11.72z" class="ay"/><path d="m686.68 313.84 7.15-5.13 11.07-40.01-8.09-22.99 5.38-17.68-1.21-10.35 10.04-6.1-31.17-3.91-13.03 27.87v51.08l19.86 27.22zM628.87 318.9l3.22 12.43-12.8-4.16 9.58-8.27z" class="t"/><path d="M621.08 352.88v11.91l-18.98 2.97-20.18-2.97 19.82-19.95 10.71-4.09 8.63 12.13zM637.42 356.9l-9.02 16.96 15.71 2.98 15.71-2.98-1.2-11.29-7.97-6.06-13.23.39z" class="bp"/><path d="M628.4 373.86h31.43v5.95H628.4zM581.92 364.79h39.16v5.95h-39.16z" class="ab"/><path d="m628.4 291.52-23.89 11.32 8.98 15.42 15.38.64 8.19-3.02 23.69-10.07-2.02-12.61-30.33-1.68z" class="cc"/><path d="m647.96 302.84-10.9 13.04 13.59 10.18 14.64-1.21 21.39-11.01 2.48-20.64-31.04-2.22-10.16 11.86z" class="ar"/><path d="m637.06 315.88.36 41.02 21.2 5.67 6.67-37.72-28.23-8.97z" class="bd"/><path d="m638.02 225.18-18.73 33.93 12.77 7.12 11.26-7.12-5.3-33.93zM647.96 224.34l15.41-1.72 20.5.37 9.28 2.73-9.28 20.03-38.34-2.41 2.43-19z" class="ca"/><path d="m638.02 225.18-9.62 66.34 19.56 11.32 41.2-9.64 13.03-65.17-9.04-2.31-35.63 14.95-9.56-16.33-9.94.84z" class="aj"/><path d="m666.07 248.8 17.8 6.23-1.22 7.84-12.53.72-8.13-4.05 4.08-10.74zM617.65 143.33l-6.59 69.47 41.14 3.12 9.32 12.11 20.19-7.24 14.41-41.45-16.18-37.76-44.61-2.89-17.68 4.64z" class="cg"/><path d="m666.76 217.09 13.18-75.51 19.18 36.68-5.97 17.5-3.58 2.53.49 6.55-6.19 18.15-23.12 10.05 6.01-15.95z" class="w"/><path d="m615.71 163.83 15.07 13.35-16.52 1.91 18.76 6.8 5.08-2.31 4.86 3.7 29.41-2.33-24.41-6.07 22.16-9.65-3.3-5.82-8.49-3.1-7.68.55-1.39 4.11-8.27-.49-6.31-.46-.62-4.6-7.6-1.71-7.17 2.22-3.58 3.9z" class="w"/><path d="m690.06 204.84-6.19-10.75 9.28 1.67-3.09 9.08zM652.2 215.92l14.56 1.17 11.79-2.77-17.8 18.72-8.55-17.12zM687.16 188.67l1.35-8.65 5.99 2.03-7.34 6.62z" class="br"/><path d="m633.02 185.89 4.24 1.42 5.7-.03.58-5.6 3.11-16.9-12.94-.46.05 16.65-.74 4.92z" class="as"/><path d="m633.02 185.89 4.24 5.01 5.7-3.62-9.94-1.39z" class="br"/><circle cx="623.94" cy="171.12" r="2.51" class="cf"/><circle cx="656.1" cy="174.29" r="2.51" class="cf"/><path d="m626.93 195.75 10.33 2.85 11.94-1.15-1.24 3.39-10.78 1.3-9.71-3.08-.54-3.31z" class="br"/><path d="m620.82 156.08 10.34-.58 2.9 3.92-14.77.51 1.53-3.85zM652.77 157.21l11.79 1.73 2.26 4.47-16.17-2.55 2.12-3.65zM626.93 214l9.79-5.18 8.47 6.57-9.71 4.53-8.55-5.92zM611.46 133.36l10.21 8.92 27.53 3.3 29.43 3.52 8.53 3.04 11.96-15.49-11.96-.84-2.16-4.36-8.22-3.02-9.96.33-1.44-4.53-10.09-3.72-15.45 6.98-3.78-1.34-24.6 7.21z" class="bp"/><path d="m678.63 149.1 20.49-12.45 5.78 24.12-5.78 5.39v12.1l-11.96-2.45-4.83 10.08-2.62-25.96 4.16-2.22-5.24-8.61z" class="ag"/><path d="m611.46 133.36 31.5 5.83 33.82 1.09 1.85 8.82-17.88.54-8.55-3.7-8.24 4.2-26.31-6.81-6.19-9.97z" class="ag"/><path d="m643.96 150.14-1-10.95 12.33-1.62 8.08 2.27-2.62 9.8-16.79.5z" class="ae"/><path d="m642.96 139.19 22.42-14.96 11.4 4.2-13.41 11.41-20.41-.65z" class="ag"/><path d="m678.63 149.1 26.27 11.67-5.78 17.49-19.41-18.33-1.08-10.83z" class="ae"/><path d="m676.78 140.28 8.22-8.83 14.12 5.2-22.34 3.63zM655.29 120.51 631.15 137l4.91-10.85 19.23-5.64z" class="ag"/><path d="m675.66 166.09 25.32 6.54-1.86 5.63-24.89-3.97-1.86-3.92 3.29-4.28z" class="ar"/><path d="m609 160.31-1.77 18.11 26.53 2.56 2-13.16 3.73-.57 5.16 1.39-1.11 13.05 28.83 3.27 3.29-18.86-30.55-2.65-5.97 1.45-2.57-2.2-27.57-2.39Zm21.78 16.87-19.54-2 1.07-11.62 19.78 1.6-1.31 12.02Zm37.6 4.16-20.42-2.47 1.08-11.63 21.08 1.99-1.74 12.11Z" class="m"/><path d="m635.76 167.81.81-5.11 8.54.77-.46 5.16-8.89-.82z" class="ar"/><path d="m702.19 228.03 2.71 40.67-21.03 2.05-5.32-7.88 23.64-34.84z" class="ca"/><path d="m704.9 268.7-50.1-13.14 5.07 17.18 30.61 13.88 14.42-17.92z" class="w"/><path d="m666.82 258.71-6.95 14.03-10.45-4.74 5.87-7.31 11.53-1.98z" class="br"/><path d="m659.87 255.56-16.55-12.22-7.26 6.05 1.93 13.1 14.21 1.1 7.67-8.03z" class="am"/><path d="m643.32 243.34-3.11 11.16-8.12 4.21-3.69-10.54 14.92-4.83z" class="cg"/><path d="m619.29 259.11 20.92-4.61 13.63 2.16-4.42 11.34-19.09 10.19-11.04-19.08z" class="w"/><path d="m666.07 248.8-25.86 5.7 9.21 13.5 17.4-9.29-.75-9.91z" class="u"/><path d="m604.51 302.84-2.77 42 19.34 8.04 7.79-33.98-24.36-16.06z" class="bc"/></g><g id="f"><path d="m812.15 356.03 1.62 18.17-16.03 2.08v-23.4l14.41 3.15z" class="s"/><path d="m851.67 381.2-12.79-2.16-6.71-32.9 16.04-.94 5.31 16.85-1.85 19.15z" class="ai"/><path d="m882.64 241.82-20.05 98.93 3.79 38.2-14.71 2.25-4.86-28.89-42.87 4.86-4.22 28.16-12.65 1.75-.69-37.31 11.36-18.44 49.07-48.94 15.78-36.64 3.64-3.93h16.41z" class="bz"/><path d="m791.36 351.24-4.29 35.84-11.65-2.77 3.1-36.86 12.84 3.79zM746.51 340.75l-3.92 34.32 9.85 1.21 7.1-38.96-13.03 3.43zM851.67 334.76 821.28 333l-19.53-8.95 13.23-89.87 42.47 4.68 5.14 6.89-10.92 89.01z" class="ai"/><path d="m862.59 245.75 20.05-3.93-62.52-13.79 16.3 11.56 16.79 4.24 9.38 1.92zM851.67 334.76l-25.6-5.69-36.29-6.58-2.44 21.02 39.77-4.39 24.56-4.36z" class="ay"/><path d="m827.11 339.12 7.4-8.18 4.19-20-4.19-19.42 7.32-29.65 11.38-18.04 12.96-5.64-30.21-6.66-17.8 26.87-14.22 60.5-1.47 20.22 1.47 18.05 17.34-1.97 5.83-16.08z" class="t"/><path d="m762.16 367.76 4.22 8.23-4.04 16h-4.82l-2.15-19 6.79-5.23z" class="cc"/><path d="m752.44 337.13-1.14 25.27 10.86 5.36 5.61-10.86-1.39-19.39-13.94-.38z" class="am"/><path d="m742.51 351.1-2.71 11.86-12.83 10.03-3.35-2.77 8.44-16.41 10.45-2.71z" class="cc"/><path d="m743.5 325.6-8.26 17.91 7.27 7.59 19.83-11.87-18.84-13.63z" class="af"/><path d="m785.31 283.89-14.89 8.41 2.2 12.69 13.76.22 3.4-11.12-4.47-10.2z" class="az"/><path d="m783.73 308.52-30.37-5.68-.92 22.27 18.22 25.96 29.85 11.5 26.6-23.45-1.04-10.05-20.13-20.55h-22.21z" class="ca"/><path d="m803.94 251.99-9.82 9.16 7.63 14.16 22.49 2.88 5.94-22.63-26.24-3.57z" class="af"/><path d="m830.18 255.56 11.65 6.31-11.65 29.11h-24.24l-24.24-18.24 12.42-11.59 26 9.94 10.06-15.53z" class="az"/><path d="m853.21 243.83-20.26 3.08v-22.57l15.95-19.5 5.7 9.48-1.39 29.51z" class="bc"/><path d="m864.62 210.19-11.41 33.64-2.92-29.51 2.92-6.65 11.41 2.52z" class="bf"/><path d="m767.77 161.27-10.17 74.27 38.37 6.28 16.06 12.37 16.3-3.35 17.56-37.05-24.5-45.16-53.62-7.36z" class="af"/><path d="m803.94 251.99 6.82-7.74 10.52-58.36 12.13-10.87 16.88 39.3-5.85 11.99-5.74 4.21-.38 8.34-8.14 16.7-19.42 5.13-6.82-8.7z" class="am"/><path d="m795.97 241.82 24.15 3.82-16.18 6.35-7.97-10.17zM844.44 226.31l-11.49-4.13 5.37 16.68 6.12-12.55zM837.77 219.92l2.46-8.94 5.66 2.81-8.12 6.13z" class="ac"/><path d="m767.43 183.46 18.95 25.89 20.87-20.23-5.5-3.23-9.43-1.41-3.37 4.53-3.5 2.08-2.1-3.11-1.65-5.15-5.26-1.91-9.01 2.54z" class="am"/><path d="m783.35 187.98-4.83 20.1 3.64 1.9 4.22-.63 2.57-20.34-5.6-1.03z" style="fill:#e8cab6;stroke-width:0"/><path d="m778.52 208.08 3.23 4.22 4.63-2.95-7.86-1.27z" class="ac"/><circle cx="774.78" cy="193.75" r="2.77" class="cf"/><circle cx="797.74" cy="197.6" r="2.77" class="cf"/><path d="m770.66 217.32 5.51 7.09 10.32 1.85 7.63-4.55-12.56-2.23-10.9-2.16z" class="u"/><path d="m770.66 217.32 10.9-.15 12.56 4.54-13.23.08-10.23-4.47z" class="ag"/><path d="m767.43 183.46 14.27-.63-5.84-4.57-8.43 5.2zM792.32 184.48l9.43-1.02 5.5 5.66-14.93-4.64zM767.77 161.27l53.51 24.62 20.55-7.63 8.74-21.32-32.13-12-26.12-1.12v8.32h-11.71l-12.84 9.13z" class="bf"/><path d="m821.28 185.89 7.74 22.42 7.4-.64 13.87 6.65 14.33-4.13-10.02-16.1 4.93-3.19-8.96-33.96-29.29 28.95z" class="bd"/><path d="m792.32 143.82 45.45 25.77 2.58 7.22-11.35 1.45-48.39-26.12 11.71-8.32z" class="m"/><path d="m837.77 169.59 21.76 21.31 5.09 19.29L829 178.26l8.77-8.67z" class="bf"/><path d="m821.28 185.89 15.14 21.78-7.24 11.81-7.9-33.59z" class="bc"/><path d="m781.7 272.74 2.03 35.78 42.34 20.55-1.21-17.44 5.32-20.65-48.48-18.24z" class="ag"/><path d="m827.11 339.12-34.79 4.39-38.96-40.67-9.86 22.76 24.27 27.28 34.7 14.09 24.64-27.85z" class="aj"/><path d="m743.5 325.6 58.97 41.37-34.7-10.07-24.27-31.3z" class="q"/><path d="m841.83 261.87-3.13 49.07-15.92-5.73-2.66-11.12 21.71-32.22z" class="ab"/><path d="m820.12 294.09-24.15 9.66-4.7 3.33 6.47 8.8 40.96-4.94-18.58-16.85z" class="az"/><path d="m770.42 292.3 7.13 6.92-6.89 4.24-.24-11.16zM795.97 303.75l-18.42-4.53-1.15 7.93 8.05 9.59 13.29-.86-1.77-12.13z" class="am"/><path d="m777.55 299.22-11.17 2.7 2.88 6.06 7.14 5.37 8.05 3.39-6.9-17.52z" class="af"/><path d="m771.53 300.67 4.87 12.68-5.74-2.41.87-10.27z" class="am"/><path d="m770.42 292.3 2.6 19.63-21.02-5.94-.41-5.08 18.83-8.61z" class="af"/><path d="m735.24 343.51-35.94 8.8L715.79 366l26.72-14.9-7.27-7.59zM751.3 362.4l-23.44 29.59h23.44l10.86-24.23-10.86-5.36z" class="ba"/></g><g id="g"><path d="m96.23 368.4 11.44-1.48 1.49-16.77-15.37-3.18-4.17 8.03 6.61 13.4z" class="ai"/><path d="m82.67 352.84-1.85 14.08 15.41 1.48 2.53-19.25-16.09 3.69z" class="s"/><path d="m54.31 373.8 13.72-2.45 4.3-24.37H55.71l-8.15 12.22 6.75 14.6z" class="ai"/><path d="m25.54 244.33 16.53 87.68-2.73 39.91 14.97 1.88 4.21-20.2 48.25 7.18 3.06 19.03 11.17 1.87 5.12-18.44-19.35-27.74-47.33-51.82-14.21-41-19.69 1.65z" class="bz"/><path d="m42.07 246.05 5.49-5.86 33.98-6.98 16.28 90.11-20.32 6.12H54.31l-12.24-83.39z" class="ai"/><path d="m42.07 246.05-16.53-1.72 31.43-10-7.16 9.27-7.74 2.45zM54.31 329.44l43.51-6.12 32.5 6.12-39.25 6.06h-16.1l-20.66-6.06z" class="ay"/><path d="m56.97 254.8-9.41-10.47-10.95-3.52 20.36-6.48 20.53-.29 9.67 26.39 5.52 59.65-17.72 15.42-10.42-7.5-7.49-30.14-.09-43.06z" class="t"/><path d="m149.98 354 11.09 6.67 5.67 5.25 7.86 11.88-27.89 2.01L134 368.42v-10.91l15.98-3.51z" class="aj"/><path d="m148.79 369.91-6.06-14.74-5.85 4.13 5.96 10.61h5.95z" class="q"/><path d="m161.07 360.67-2.9 2.57-9.38-7.37 7.93.77 4.35 4.03z" class="y"/><path d="m166.74 365.92-6.93 12.02 10.37 1.13 8.06-2.5-11.5-10.65z" class="bt"/><path d="M140.08 376.57h38.16v4.99h-38.16z" class="q"/><path d="M125.08 362.45 121 376.57v5.11l17.28 2.46 16.61-.16-6.1-14.07-4.14-4.71-8.59-6.63-10.98 3.88z" class="aj"/><path d="m126.12 363.24 3.04 9.23-8.16 4.1v-9.17l1.85-4.16h3.27zM148.79 369.91l-9.21 14.07h10.52l9.06-2.3-10.37-11.77z" class="bt"/><path d="m134.89 359.96 6.9 7.44 2.86-2.2-6.78-7.69-2.98 2.45z" class="y"/><path d="m141.04 253.83-3.17-10.79 4.39-11.51 5.29 8.48-6.51 13.82z" class="br"/><path d="m121.33 247.33 20.93 28.31-19.41 8.04-1.52-36.35z" class="aj"/><path d="m129.29 276.15 8.58-16.3 6.86-4.1 4.27 4.1-4.58 23.83-23.42 8.33 8.29-15.86zM144.42 173.27l4.72 41.41-1.81 8.81-8.31 4.25-27.31 3.79-12.07 10.27-5.28 7.17L79 243.06l-6.99-11.53-7.62-12.15 4.45-51.1 42.23-21.89 18.1 6.58 15.25 20.3z" class="cg"/><path d="m101.07 237.34-10.64-2.85-8.89-45.41-11.91-6.19-5.24 36.49 4.13 19.23 10.02 10.95 17.61 3.3 8.89-7.6-3.97-7.92z" class="w"/><path d="M111.71 231.53 79 235.44l26.04 9.82 6.67-13.73z" class="br"/><path d="m138.46 178.52-21.51 23.58-21.6-17.31 6.51-7.68 9.85 3.31 2.46 1.51 3.97 2.38 2.86-3.41 1.58-2.14 6.99-4.37 8.89 4.13z" class="w"/><path d="m116.95 202.1-2.78-20.17 6.83-1.03 4.04 20.09-4.48 1.81-3.61-.7z" class="as"/><path d="m116.95 202.1 4.51 3.38 3.58-4.49-8.09 1.11zM79 219.38l-10.84 10.66v-9.64l4.05-3.46 6.79 2.44z" class="br"/><circle cx="106.63" cy="191.85" r="3.2" class="av"/><circle cx="131.04" cy="188.65" r="3.2" class="av"/><path d="m105.2 213.37 12.98 5 8.81-.95 7.62-7.62-14.05 3.33-15.36.24z" class="ca"/><path d="m121.27 208.73-4.4 2.62-11.67 2.02 16.55 1.31 12.86-4.88-8.81.35-4.53-1.42z" class="aj"/><path d="m144.42 173.27-5-12.9-3.58-3.4 1.56-1.84-3.15-8.13-34.61-10 3.18 12.86 13.65 8.26 27.95 15.15z" class="bk"/><path d="m99.64 137-33.02 13.5-.96 23.02 15.88 15.56 34.93-30.96L99.64 137z" class="bf"/><path d="m95.35 184.79-.99-2.62 7.74-6.07 10.24 2.5-.63 1.82-9.25-.87-7.11 5.24zM122.58 178.76l-.95-1.95 7.86-3.69 9.53 3.57-.56 1.83-8.85-1.59-7.03 1.83z" class="bk"/><path d="m66.62 150.5-13.5 17.62-1.55 14.77 3.3 5.35-5.06 11.39-2.25 21.36 19.06-12.86 14.92-19.05-14.92-38.58z" class="bd"/><path d="m137.4 155.13-33.69-13.03-1.75 4.29 8.35 4 29.11 9.98-2.02-5.24z" class="m"/><path d="m103.71 142.1-32.6 20.01v7.92l5.35 5.91 33.85-25.55-6.6-8.29z" class="bk"/><path d="m71.11 162.11-19.54 20.78-1.76 16.74 26.65-23.69-5.35-13.83z" class="bf"/><path d="M73.58 203.23 79 219.38l-10.84 4.11-2.5-10.35 7.92-9.91z" class="z"/><path d="M77.5 194.24 36.61 222.1l5.46 11.08 19.78 1.15 10.02-12.24 5.63-27.85z" class="bf"/><path d="m71.87 222.09-29.8 11.09 5.49 11.15 20.96-5.72 3.35-16.52z" class="bd"/><path d="m88.38 262.57 15.05-1.35 6.4-5.67-7.87-7.82-7.77-.71-7.02 3.94 1.21 11.61z" class="u"/><path d="m78.54 249.56 26.5-4.3 4.79 13.96-15.64-12.2-5.81 15.55-9.84-13.01z" class="y"/><path d="m105.04 245.26 6.67.79 9.29 12.86-3.07 8.42-34.97 10.41-12.75-20.12 2.12-6.43 6.21-1.63 19.96 7.36 6.54-11.66z" class="ca"/><path d="m72.33 251.19-7.78 2.15 5.66 24.4 8.79 8.27h26.04l24.25-9.86-7.96-28.82-9.62-1.28 2.74 15.45-24.84 6.52-17.28-16.83z" class="bp"/><path d="m129.29 276.15-9.72 27.01-17.15 7.72-27.45-2.18L79 286.01l50.29-9.86z" class="ag"/><path d="m73.58 317.58 7.96 15.13 20.18 10.06 9.99 6.38-1.88-22.99-36.25-8.58z" class="ab"/><path d="m73.58 317.58 28.14 25.19 8.11-16.61 13.02 16.33L121 367.4l-19.28-24.63-26.75-7.27-1.39-17.92z" class="ae"/><path d="m119.57 303.16 40.68 12.66-25.64 11.75-24.78-1.41-36.25-8.58 1.39-8.88 44.6-5.54z" class="bp"/><path d="m160.25 315.82-9.8 29.26L121 367.4l-11.17-41.24 50.42-10.34z" class="ag"/><path d="M160.25 315.82 121 367.4l35.72-10.76 3.53-40.82z" class="ab"/><path d="M64.55 253.34 79 286.01l-1.32 16.75-7.47.4-13.15-5.3 7.49-44.52z" class="aj"/><path d="m57.06 297.86 38.29 6.03 4.16 4.49-6.86 7.44-19.07 1.76-16.52-19.72z" class="cg"/><path d="m141.04 253.83 3.69 1.92 5.72-3.42 7.72-16.62-10.68-1.38-4.3 7.44-2.15 12.06z" class="w"/><path d="m141.04 253.83 9.41-1.5-1.45 7.52h-11.13l3.17-6.02z" class="cd"/><path d="m139.02 227.74 10.12-13.06 1.31 11.47-11.43 1.59z" class="w"/><path d="m158.17 235.71-8.45-15.91-10.7 7.94 4.17 14.03 14.98-6.06z" class="cg"/><path d="m103.43 305.16 16.14-2-3.69 9.74-6.05 4.68-10.19-2.41-1.82-4.62 5.61-5.39z" class="w"/><path d="m119.57 303.16 12.22 13.33-10.46 5.46-11.5-4.37 9.74-14.42z" class="cg"/><path d="m103.43 305.16-3.79 10.01-6.99.65 2.7-11.93 8.08 1.27z" class="cd"/><path d="M121 381.68h38.16v4.99H121z" class="q"/></g><g id="h"><path d="m510.48 201.78-20.1 22.78 15.08 19.63 8.48-8.65-3.46-33.76z" class="l"/><path d="m483.87 241.82 21.59 2.37 3.92-6.84-14.43-34.13-8.02-2.18-6.58 6.63 3.52 34.15zM600.39 266.23l-17.94 16.16-3.81-7.98.49-8.18 14.15-22.89 7.11 22.89z" class="bi"/><path d="M514.59 358.13v16.84l-21.65 3.37-21.65-3.37 13.79-14.51 13.18-10.92 7.2-2.75 9.13 11.34z" class="ax"/><path d="M471.29 374.97h43.3v6.75h-43.3z" class="bd"/><path d="m500.27 350.46-8.72 12.11-6.47-2.11 8.78-9.24 6.41-.76z" class="bi"/><path d="m500.43 283.31-2.95 36.79 14.85 23.53 18.25-7.61 12.12-16.76-14.62-19.54-27.65-16.41z" class="ad"/><path d="m500.43 283.31 27.65 34.95h16.25l27.57-37.07h-49.48l-21.99 2.12z" class="bn"/><path d="m554.15 359.32-6.93 23.29 17.61 3.38 17.62-3.38-3.32-16.63-10.67-9.08-14.31 2.42z" class="ax"/><path d="M547.22 382.61h35.24v6.75h-35.24z" class="bd"/><path d="m563.26 358.94-2.04 13.12 5.67 1.49 1.56-14.61h-5.19z" class="bi"/><path d="m579.13 204.84 36.97 47.96-15.71 13.43-26.26-14.5-5.67-27.17 10.67-19.72z" class="l"/><path d="m509.38 211.08-3.92 33.11 26.92 16.5 41.75-8.96 5-46.89-19.55-6.24-50.2 12.48z" style="fill:#51596a;fill-rule:evenodd;stroke-width:0"/><path d="m518.77 217.85 14.02 12.68 13.19-10.21-1.41-9.72-16.49-9.29-3.77 3.53-5.54 13.01z" style="fill:#7a578a;fill-rule:evenodd;stroke-width:0"/><path d="m523.03 197.33-12.55 4.45 8.29 16.07 9.25-13.01 17.96 15.48 13.6-21.72-36.55-1.27z" style="fill:#ab90b8;fill-rule:evenodd;stroke-width:0"/><path d="m487.98 104.9-11.69 68.07 35.24 7.05 18.25 18.9 26.11-5.45 15.38-47.57-9.45-43.24-35.56-10.42-26.27 2.89-12.01 9.77z" class="bo"/><path d="m523.03 197.33 6.59-13.47 20.19-77.68 12.01-3.52 16.82 41.64-5.1 14.53-3.55 4.58-.67 7.42-9.74 27.77-31.56 6.24-4.99-7.51zM493.75 121.88l18.42 24.5 20.98-16.02-6.39-4.44-7.87.76-5.12 2.56-2.08 2.57-2.17-3.53-2.04-4.28-6.21-3.67-7.52 1.55z" class="aa"/><path d="m509.52 128.28-6 16.34 3.76 1.76h4.89l1.6-17.14-4.25-.96z" class="r"/><path d="m503.52 144.62 3.6 4.56 5.05-2.8-8.65-1.76zM573.54 158.83l-11.56-2.84 7.34 14.84 4.22-12zM511.53 180.02l30.11 5.92-18.61 11.39-11.5-17.31zM565.5 153.43l2.24-8.65 6.73 1.92-8.97 6.73z" class="bw"/><circle cx="498.39" cy="133.89" r="2.88" class="cf"/><circle cx="522.74" cy="138.69" r="2.88" class="cf"/><path d="m497.87 156.55 19.22.96-1.2 3.97-16.94-.48-1.08-4.45z" class="bw"/><path d="m493.75 121.88 13.73 2.12-1.56-4.37-9.29-.16-2.88 2.41zM518.89 126.68l2.73-3.68 10.73 4 .8 3.36-14.26-3.68zM499.99 95.13l8.65 5.51 8.45.57 2.76 6.57 29.96-1.6 12.17-.32 11.56-10.73-34.31-12.82-10.09 3-3.12-2.33-11.3.58-14.73 11.57z" class="ax"/><path d="m549.81 106.18 1.02 5.94 4.58 8.39-2.25 5.05 1.77 10.25-2.24 10.09 12.81-5.93 13.14 4.33 4.64-13.29-7.53-11.54 3.26-4.18-5.47-20.16-23.73 11.05z" class="bi"/><path d="m550.83 112.12 28.18 3.17 4.27 15.72-30.12-5.45-2.33-13.44zM554.93 135.81l10.57 4.16-10.57 16.02-7.69-5.44 7.69-14.74z" class="ax"/><path d="m508.64 100.64 17.38-17.66 13.21-.67-19.38 25.47-11.21-7.14z" style="fill:#5f6878;fill-rule:evenodd;stroke-width:0"/><path d="m534.92 106.98 12.32-21.67 12.17 4.54-24.49 17.13z" class="bi"/><path d="m505.46 244.19-5.03 39.12 31.95 9.89 39.52-12.01 2.23-29.46-68.67-7.54z" class="l"/><path d="m571.9 281.19-4.69-.3-1.73 5.73-37.4 31.64 12.61 19.87 25.72 8.66 9.09-23.44-3.6-42.16z" class="at"/><path d="m540.69 338.13 34.81-14.78 3.63 42.63-24.98-6.66-13.46-21.19z" class="ad"/><path d="m530.58 336.02-33.1-15.92-3.62 31.12 20.73 6.91 15.99-22.11z" class="bn"/><path d="m579.13 266.23-5.56-7.12-4.05 10.91 2.38 11.17 10.55 1.2-3.32-16.16z" class="bo"/><path d="m573.57 259.11-18.42 14.92 10.33 12.59 6.42-5.43 1.67-22.08z" class="aa"/><path d="m510.48 201.78 21.9 24.56 27.2-27.74 9.94 3.17-37.14 37.59-23-28.28 1.1-9.3z" class="at"/><path d="m476.29 172.97 11.1-3.11 5.32 6.39-6.55 3.77-9.87-7.05z" class="aa"/><path d="m476.29 172.97-2.64 16.91 10.31 1.25 10.3-4.32-1.55-10.56-16.42-3.28z" class="bo"/><path d="m473.65 189.88 6.7 17.79 14.6-4.45-1.24-2.18.17-2.12.38-12.11-20.61 3.07z" class="aa"/><path d="m493.88 198.92-5.61.72-.11-5.55-4.2 3.24 10.99 5.89-1.07-4.3z" class="bw"/></g><g id="i"><path d="m263.3 334.04 11.51 15.56 16.04-4.02 11.69-9.48-12.77-48.89-28.05 26.57 1.58 20.26z" class="al"/><path d="m274.81 349.6 14.11 20.08 17.46-4.16 2.83-4.42-6.67-25-27.73 13.5z" style="fill:#594165;fill-rule:evenodd;stroke-width:0"/><path d="m227.76 287.91 62.01-.7-22.21 33.88-19.2-8.91-20.6-24.27z" style="fill:#9075a0;fill-rule:evenodd;stroke-width:0"/><path d="m267.56 321.09-5.84 24.49-16.14 6.67-16.14-5.88-6.69-32.59-1.31-13.24 6.32-12.63 39.8 33.18z" style="fill:#a688ba;fill-rule:evenodd;stroke-width:0"/><path d="m261.72 345.58-5.19 22.05-9.69 5.01-12.68-.86-4.72-25.41 32.28-.79z" class="al"/><path d="m256.53 367.63 7.08 16.54-14.67 1.59-15.17-1.59.39-12.39 22.37-4.15zM309.21 361.1l20.21 19.04-23.46 1.59-16.66-1.59-.38-10.46 20.29-8.58z" class="at"/><path d="M233.77 384.17h29.84v5.2h-29.84zM289.3 380.14h40.12v5.2H289.3z" class="q"/><path d="m222.41 200.98 36.35 37.6 10.13-39.27-24.03-3.79-22.45 5.46z" style="fill:#fefefe;fill-rule:evenodd;stroke-width:0"/><path d="m268.05 108.56 8.57-9.26 9.75-1.84 14.15 77.71-25.6 6.51-32.84 3.9-12.41-54.62-2.97-24.89 21.1-2.56 20.25 5.05z" class="bo"/><path d="m262.78 187.24 37.74-12.07-56.06 10.19-11.38-56.81-6.38-22.48-12.48 15.26 3.53 11.85-17.27-1.86 2.36 19.43 7.45 6.13 3.37 7.46 2.16 4.7 1.11 9.42 5.48 22.52 46.48-1.67-6.11-12.07z" class="aa"/><path d="m290.48 120.05 3.66-27.03-13.85 2.25 10.19 24.78z" class="l"/><path d="m293.66 207.4 8.11 24.26-2.38 22.5-14.97 10.44-.81-36.45 10.05-20.75z" class="bq"/><path d="m296.32 249.92 3.07 4.24 17.16 2.04-3.32 17.5-26.41 1.35-1.73-19.51 11.23-5.62z" class="at"/><path d="m295.62 252.42-.97 9.12 12.13 11.48 9.77-16.82-9.05-1.35-11.88-2.43z" class="au"/><path d="m304.92 244.68-4.45-4.8 16.3-21.14 4.05 3.79-6.62 11.35-2.68 8.23-6.6 2.57z" class="aa"/><path d="m303.64 239.36 12.91 16.84-7.87 7.83-7.28-6.48 2.24-18.19z" class="aa"/><path d="m301.77 231.66-4.38.15-1.77 20.61 5.78 5.13 3.52-12.87-3.15-13.02z" class="bo"/><path d="m304.92 244.68 9.28-10.8 9.43 15.57-7.08 6.75-11.63-11.52z" class="r"/><path d="m239.75 125.22 17.04 8.84 9.88 17.24-1.18-16.04-2.71-8.66-23.03-1.38zM273.33 119.39l-2.5 6.1-.38 6.34 3.2 7.75 14.11-22.97-6.66-7.49-7.77 10.27z" class="aa"/><path d="m262.78 126.6-21.64-6.66-1.39 5.28 19.14 6.1 3.89-4.72zM270.83 116.06l10.27-6.94 6.66 7.49-3.89 3.06-4.58-5.28-5.96 5-2.5-3.33z" class="l"/><path d="m270.83 125.49 4.72 23.59-3.77 2.55-5.11-.33-3.89-24.7 8.05-1.11z" class="r"/><path d="m279.68 168.32 2.62-8.01-26.51 1.85 5.71 8.17 18.18-2.01z" class="bw"/><path d="m220.32 152.97 1.94 4.44-8.6 6.93-10.82-13.59 9.16-9.16 8.32 11.38z" class="bo"/><path d="m268.05 108.56 26.09-15.54-27.75-17.48-2.15 18.11 3.81 14.91z" class="ah"/><path d="m268.05 108.56-1.66-33.02-72.15 27.2 15.56 4.75 16.9-1.42 41.35 2.49z" style="fill:#89909b;fill-rule:evenodd;stroke-width:0"/><path d="m194.24 102.74-2.78 42.18 12.59-10.63 10.17-12.96 12.48-15.26-32.46-3.33z" class="ah"/><path d="m214.22 121.33 12.21 26.36-6.11 5.28-8.32-11.38-9.16 9.16-11.38-5.83 22.76-23.59z" class="l"/><path d="m207.83 151.3 3.33-3.33 4.17 6.94-7.5-3.61zM213.66 164.34l6.11-4.99-2.74 19.54-3.37-14.55zM275.55 149.08l-3.89 6.38-4.99-4.16 8.88-2.22z" class="bw"/><path d="m222.41 200.98 34.26 25.51-19.71 15.67-24.27 14.95-8.24-18.82-5.61-24.43 23.57-12.88z" class="at"/><path d="m268.89 199.31 24.77 8.09-7.55 25.12-13.93 2.98-15.51-9.01 12.22-27.18z" class="at"/><path d="m212.69 257.11 6.75 23.66 8.32 7.14 35.69 3.66.16-35.37-6.94-29.71-43.98 30.62z" class="au"/><path d="m256.67 226.49 29.44 6.03 3.66 54.69-26.32 4.36-6.78-65.08z" class="bn"/><path d="M283.66 127.95c0 1.86-1.51 3.37-3.37 3.37s-3.37-1.51-3.37-3.37 1.51-3.37 3.37-3.37 3.37 1.51 3.37 3.37ZM256.79 134.06c0 1.86-1.51 3.37-3.37 3.37s-3.37-1.51-3.37-3.37 1.51-3.37 3.37-3.37 3.37 1.51 3.37 3.37Z" class="cf"/><path d="m234.85 185.01 65.67-9.84-31.63 13.87v10.27l-34.04-14.3z" class="bw"/><path d="m207.33 260.43 20.43 27.48-7.41 13.24-5.23 1.89-20.99-18.13 13.2-24.48z" class="at"/><path d="m222.75 313.78-7.63-10.74 12.64-15.13-5.01 25.87z" class="bo"/><path d="m198.84 213.86-18.27 59.44 13.56 11.61 18.56-27.8-13.85-43.25z" class="bq"/><path d="m259.95 164.01 19.11-1.39-.54 1.39-17.72 1.54-.85-1.54z" style="fill:#fff;fill-rule:evenodd;stroke-width:0"/></g><g id="j"><path d="m425.32 207.67-37.29 3.18-3.88 132.78 7.68 50.59 23.91-4.85.49-9.23-3.11-5.17 3.66-5.29 8.54-162.01z" class="bb"/><path d="m394.81 215.92-4.19-6.84-26.94-2.67 7.94 163.27 4.83 5.74-4.35 3.88.49 10.07 19.24 4.85 2.98-178.3z" class="ai"/><path d="m425.32 207.67-33.09-5.76-28.55 4.5 31.13 9.51 30.51-8.25z" class="ak"/><path d="m416.78 369.68-24.61 4.03-4.94 6.43 4.74 5.85 24.26-5.85.55-10.46z" class="bs"/><path d="m392.17 373.71-20.55-4.03.48 9.62 19.87 6.69.2-12.28z" class="ak"/><path d="m510.48 310.94-7.93 70.79-5.07 4.26 3.86 6.53-.91 8.09-30.76 3.93-6.47-61.03 5.32-29.67 41.96-2.9z" class="bb"/><path d="m474.99 318.26-6.47-4.42-31.67-2.9 4.29 71.8 4.26 6.63-3.69 2.95.46 7.6 27.5 4.62 5.32-86.28z" class="ai"/><path d="m510.48 310.94-35.49-5.73-38.14 5.73 38.14 7.32 35.49-7.32z" class="ak"/><path d="m502.55 381.73-31.74 4.26-5.3 6.3 4.56 5.79 31.27-5.56 1.21-10.79z" class="bs"/><path d="m470.81 385.99-29.67-3.25.57 9.58 28.36 5.76.74-12.09z" class="ak"/></g><g id="k"><path d="m387.94 116.48 4.84.92 3.54 2.54 4.36-1.18 14.91 2.57 2.31 12.56-8.32 4.37-13.26 7.32-9.86-4.06-2.31-12.49 3.79-12.55z" class="n"/><path d="m415.59 121.33 13.96 16.36-.02 2.97 5.93 3.96-12.94 2.28-12.94-8.64 6.01-16.93zM387.94 116.48l-1.48 25.04-10.71 4.06-12.09-8.56 24.28-20.54zM409.58 138.26l12.94 24.36-26.12 19.43-24.27-17.89 14.33-22.64 23.12-3.26z" class="bp"/><path d="m409.58 138.26 25.88 6.36-4.16 7.37 1.45 7.02-2.14 11.36-10.17-.51-4.39-8.38-6.47-23.22z" class="ag"/><path d="m380.92 164.08-5.17 7.04-14.48-.29 3.72-12.06-1.33-21.75 22.8 4.5-5.54 22.56zM416.05 161.48l14.56 8.89-11.61 3.58-4.9 8.1-9.36 6.62-8.34-6.62v-6.88l19.65-13.69z" class="ab"/><path d="m361.27 170.83 19.65-6.75 15.48 11.09-4.41 6.88-12.74 3.53-6.42-9.38-7.84-2.32-3.72-3.05z" class="ae"/><path d="m379.25 185.58 4.24.51 11.22-.23 10.03 2.81-8.34-13.5-17.15 10.41z" style="fill:#3d2b45;stroke-width:0"/><path d="m401.02 133.89 11.36-3.53 2.44 3.76-5.24 4.14-4.84 3.26-7.41-1.53 3.69-6.1z" class="z"/><path d="m412.38 130.36 5.52 3.53-4.39 5.33-1.13.91-2.8-1.87 2.8-7.9z" class="cj"/><path d="m397.33 139.99 12.25-1.73 1.96 1.87-.71 2.62-9.81 2.83-3.69-5.59z" class="ch"/><path d="m409.58 138.26 3.93.96 3.02 5.01 4.4-3.18 7.51-1.28 7.02 4.85-2.71 14.39-8.61-1.67-8.09 4.14-6.47-8.53 2.04-7.37-2.04-7.32z" class="z"/><path d="m411.62 145.58-8.28 5.41 3.93 11.32 8.78-.83-4.43-15.9zM392.78 155.22l4.78-5.39 2.31 1.7-2.77 6.01-4.32-2.32z" class="ch"/><path d="m414.1 182.05-6.72-5.87 6.13-9.36 12.26.59 4.84 2.96-16.51 11.68z" class="n"/><path d="m420.93 141.05 14.53 3.57-5.91-6.93-8.62 3.36z" class="cj"/><path d="m387.34 126.73 5.44 3.63-2.23 3.76-3.62-.47-1.16-3.29 1.57-3.63z" class="z"/><path d="m387.34 126.73-3.85 4.33.39 3.06 3.05-.47.41-6.92z" class="ch"/><path d="m363.66 137.02 3.31 7.03 6.09-2.89 6.72 2.89-4.03 8.17 4.47 5.32-7.27 9.28-.82 1.89-3.22-.5-7.64 2.62 2.39-33.81z" class="n"/><path d="m368.91 168.21 4.04-1.39.91 2.73 4.97-.45 3.7 4.62-4.31 5.93 1.03 5.93-14.26-11.7 4.52-3.51-.6-2.16z" class="bp"/><path d="m383.49 186.09 11.37-3.04 9.88 5.62-21.25-2.58z" class="z"/><path d="m408.42 123-4.85 1.64-1.62-1.85 1.73-1.5 4.74 1.71zM399.18 124.87l1.5-1.62-2.08-1.04-2.2 1.27 2.78 1.39zM392.78 117.4l2.35 3.89 5.55-2.53-7.9-1.36z" class="cj"/><path d="m473.6 290.98-35.05-6.4-6.47-15.6 45.3 8.27 4.31 9.37-8.09 4.36z" class="z"/><path d="m520.98 264.03-13.5 21.46-33.88 5.49 1.39-8.59 45.99-18.36z" class="y"/><path d="m497.29 278.8 2.35 14.4 11.49-6.58-9.09-15.87-4.75 8.05zM450.56 274.76l-6.13 19.17 11.49 3.42 3.97-24.33-9.33 1.74z" class="bp"/><path d="m508.79 255.56 12.19 8.47-15.52 4.95-8.17 9.82-10.45-3.75-11.85 7.34-11.48-7.34-12.95-.29-8.16-5.78h-10.32l7.27-10.58 69.44-2.84z" class="ab"/><path d="M528.08 241.05 524.73 256l-26.86 6.72-6.47-11.69 36.68-9.98z" class="ca"/><path d="m498.49 254.15-24.84-5.85-41.57 3.58 13.55 12.15 52.24-1.31.62-8.57z" class="aj"/><path d="m445.63 264.03-30.81-7.83-4.16-12.86 21.42 4.96 10.32 7.7 3.23 8.03z" class="q"/><path d="m410.66 243.34 13.02-4.52 8.86-.08 6.01-5.07 17.37-6.02 33.54 1.99 17.12 5.06 3.9 4.36 8.61-.66 8.99 2.65-19.29 8.54-16.08 2.29-14.26 2.93L442.4 256l-31.74-12.66z" class="y"/><path d="m506.58 234.7-8.09 3.73 8.09 6.45 12.51-6.48-12.51-3.7zM478.45 254.81l4.01-6.51 12.41-4.96 3.62 4.96 10.3 1.29-10.3 4.56-20.04.66zM461.81 251.88l4.93-4.82-18.64-6.01-9.55 5.42 3.49 4.56 10.6-2.73 9.17 3.58zM438.55 233.67l5.54 3.84-11.09 7.37-9.32-6.06 14.87-5.15zM468.75 249.1l1.38-3.12 3.47.81v3.7l-4.85-1.39z" class="u"/><path d="m467.94 244.88 11.75-.75-3.4-7.28-18.29-6.32-12.37 4.17 2.47 6.35 19.84 3.83z" class="t"/><path d="m494.33 236.43-5.4-9.55-8.63.15-4.31 4.01-2.16 6.78 5.86 6.31 14.64-7.7z" class="ce"/><path d="m479.69 244.13-15.1-4.62-1.08-5.7 5.7-5.24h4.47l2.31 2.47 3.7 13.09z" class="cd"/><path d="m464.59 239.51-14.03-1.85 5.71-12.79 8.78.16 4.16 3.54-4.62 10.94z" style="fill:#c3b0cc;stroke-width:0"/><path d="m488.93 226.88-11.55-5.09-2.93 5.24 1.54 4.01 12.94-4.16z" class="p"/><path d="m477.38 221.79-8.48 2.78.31 4 6.78 2.47 1.39-9.25z" class="ce"/><path d="m477.38 221.79-9.09-2.31-12.02 5.39 12.94 3.7 8.17-6.78z" class="cd"/><path d="m477.38 221.79-6.01-10.63-2.47 7.43.31 4.03 8.17-.83z" class="p"/><path d="m471.37 211.16-9.02 10.98 6.86.48 2.16-11.46z" class="ce"/><path d="m497.29 278.8.58-16.08 23.11 1.31-23.69 14.77zM474.99 282.39l8.97-19.32 13.33 15.73-22.3 3.59zM432.08 268.98l13.55-4.95 4.93 10.73 14.72-11.23 9.71 18.86-42.91-13.41z" class="ci"/><path d="m450.56 274.76-12.01 9.82-13.23-1.04v-1.15l-3.98.84-10.68-.84 4.93-16.16 16.49 2.75 8.93.43 9.55 5.35z" class="az"/><circle cx="422.67" cy="273.1" r="2.16" class="ci"/><path d="m421.34 283.23 9.27-5.04.69 2.52-5.98 2.83-3.98-.31z" class="ci"/></g></svg>