<svg xmlns="http://www.w3.org/2000/svg" id="a" viewBox="0 0 900 420"><defs><style>.i{fill:#735283}.aa,.ab,.ac,.ad,.ae,.ag,.ai,.aj,.ak,.al,.am,.an,.ao,.ap,.aq,.ar,.as,.at,.au,.av,.ax,.az,.ba,.bb,.bd,.be,.bf,.bg,.bh,.bi,.bj,.bk,.i,.j,.l,.m,.n,.r,.s,.t,.u,.w,.z{stroke-width:0}.aa,.ab,.ag,.ai,.ak,.al,.ao,.ap,.ar,.as,.at,.au,.ba,.be,.j,.u{fill-rule:evenodd}.ax,.j{fill:#5e436b}.l{fill:#89909b}.m{fill:#1d2432;opacity:.1}.be,.n{fill:#7a578a}.ar,.r{fill:#9f80ae}.bj{fill:#f3eff5}.ag,.s{fill:#8e699f}.al,.t{fill:#9471a4}.u{fill:#c3987b}.ac{fill:#734d61}.w{fill:#4a3554}.as,.z{fill:#583f64}.aa{fill:#734c5f}.ab{fill:#787f8d}.ad,.at{fill:#b3889d}.ae{fill:#abafb8}.ai,.bd{fill:#96637c}.aj{fill:#6c4d7b}.ak,.bg{fill:#cfbfd6}.am{fill:#404857}.an{fill:#c3b0cc}.ao{fill:#543042}.ap{fill:#dfbda5}.aq{fill:#654873}.au{fill:#5e3a4c}.av{fill:#d1a1b8}.az{fill:#dbcfe0}.ba{fill:#8b6651}.bb{fill:#5f6878}.bf{fill:#b7a0c2}.bh{fill:#232a38}.bi{fill:#88619a}.bk{fill:#ab90b8}</style></defs><g id="b"><path d="m225.84 386.77-4.77-5.73 69.94-13.21 126.17-9.56 73.39 3.38 25.22 2.33 66.65 13.65-64.73 18.02-153.82 5.63-10.99-6.23-3.38 4.49-123.68-12.77zM610.61 368.49v-17.96l149.5-10.63 81.74 7.94 48.43 12.82-58.06 18.49-105.69 4.46-9.53-7.18-7.69 4.56-98.7-12.5zM35.38 365.6 10.88 353l48.06-14.79 56.61 31-80.17-3.61z" class="m"/></g><g id="c"><path d="m822.27 370.71-14.46-2.06-10.9-22.54 30.1 4.6-4.74 20z" class="bb"/><path d="m841.16 353.1-2.13 15.55-16.76 2.06-6.04-25.39 24.93 7.78zM726.53 383.61l16.3-3.21 9.91-25.74-25.16 14.37-3.89 4.2 2.84 10.38z" class="am"/><path d="m727.58 369.03-1.05 14.58-17.22-2.62-6.28-23.79 24.55 11.83z" class="bb"/><path d="m610.61 368.49 13.02-1.8 9.98-21.76-20.13.33-6.74 6.29 3.87 16.94z" class="am"/><path d="m594.61 350.75.79 15.1 15.21 2.64 4.33-23.56-20.33 5.82z" class="bb"/><path d="m588.77 271.02 5.84 79.73 132.97 18.28 23.21-85.67-23.21-7.82-138.81-4.52z" class="t"/><path d="m727.58 369.03 113.58-15.93 11.68-91.1-80.76 3.41-39.8 23.26-4.7 80.36z" class="i"/><path d="m566.53 236.11 3.02 14.98 5.07 4.13-3.65 2.9 2.98 14.75 158.33 15.8 24.5-39.07-190.25-13.49z" class="ad"/><path d="m732.28 288.67 140.98-18.83 2.65-12.89-4.55-1.67 6-5.37 2.29-11.14-108.94 2.27-36.89 18.43-1.54 29.2z" class="bd"/><path d="m879.65 238.77-67.19-6.2-111-13.35-134.93 16.89 167.29 23.36 145.83-20.7z" class="av"/><path d="m569.55 251.09 163.66 19.93 6.28 3.5-6.61 2.79-161.91-19.19-1.42-7.03z" class="bf"/><path d="m733.21 271.02 144.15-21.11-1.45 7.04-143.03 20.36.33-6.29z" class="r"/><path d="m606.94 287.79 105.97 12.14-3.87 51.43-99.75-13.93-1.35-30.44 3.29-2.25-3.59-3.58-.7-13.37z" class="bf"/><path d="m607.94 306.99 11.83 1.32.3-5.54-12.43-1.61.3 5.83z" class="bi"/><path d="m752.84 301.57 75.4-13.3-6.29 48.54-72.91 9.99 3.8-45.23z" class="t"/><path d="m841.47 235.25-18.33 9.37-74.82.35h-36.16l13.8-9.72 40.1-6.87 46.4 4.19 29.01 2.68z" class="m"/></g><g id="d"><path d="m631.94 126.62.34 5.97 1.5 1.41-1.4.24.28 4.72.75.96-.65.91.28 4.72.77.74-.69.68.29 4.96 1.05 1.02-.93 1.06.31 5.28 21.93 6.53 8.11-9.17-4.91-32.21-9.38-1.28-17.65 3.46z" class="aq"/><path d="m657.76 143.49.15-1.49-25.25-3.04.1 1.87 25 2.66zM657.05 135.46l-24.77-2.87.1 1.65 24.53 2.78.14-1.56zM657.12 148.04l-24.08-2.49.08 1.42 23.72 2.5.28-1.43zM656.91 155.01l-23.5-3.08.12 2.08 23.17 2.07.21-1.07zM652.39 95.07l9.43-6.26 13.65.28-10.52 11.1-12.56-5.12z" class="t"/><path d="m652.39 95.07 19.95-5.12-5.97-35.56-15.78 3.44 1.8 37.24z" class="aq"/><path d="m684.83 80.85-18.46-26.46-2.28 42.1-11.7-1.42-1.8-37.24-21.81 19.89 3.16 48.9 20.63 2.08 1.5 32.64-20.23-2.05 4.38 67.84 44.36 5.89 7.97-106.38-5.72-45.79z" class="i"/><path d="m684.83 80.85 20.77-4.27 5.14 152.46-28.16 3.98 2.25-152.17z" class="aq"/><path d="m666.37 54.39 22.75-4.83 16.48 27.02-20.77 4.27-18.46-26.46z" class="t"/><path d="m676.75 57.95 10.24-2.85 9.53 16.79-9.39 1.56-10.38-15.5z" class="aj"/><path d="m677.43 61.82 13.54-2.45.86 1.17-13.55 2.78-.85-1.5zM681.8 67.26l12.8-2.24.64 1.18-12.69 2.56-.75-1.5z" class="t"/><path d="m680.84 56.17 11.09 17.81 1.18-.21-11.42-18.13-.85.53zM643.69 109.18l.44 3.45 26.93 2.21.23-3.09-27.6-2.57zM671.39 110.35l.24-3.34-28.34-3.09.31 3.58 27.79 2.85zM691.47 86.79l7.65-1.39.46 3.71-8 1.27-.11-3.59zM692.16 95.83l7.19-1.04.23 3.13-7.3 1.04-.12-3.13zM692.51 104.65l7.17-1.16.25 3.13-7.42 1.39v-3.36zM643.99 174l3.02.36.38 5.33-3.14-.14-.26-5.55zM645.12 186.16l2.86.14.35 5.05-3.02-.28-.19-4.91zM646.09 198.04l2.73.28.39 4.76-2.75-.42-.37-4.62zM647.07 209.84l2.83.15.29 5.32-2.77-.3-.35-5.17z" class="t"/><path d="m737.05 89.88 14.51 2.56 6.61 28.37-2.35 91.77-9.6 19.78-19.08-3.25 9.91-139.23z" class="av"/><path d="m751.56 92.44 14.5-2.56 4.06 138.57-23.9 3.91 5.34-139.92z" class="ad"/><path d="m742.28 96.92 3.41.64-.53 7.14-3.31-.64.43-7.14zM741.75 108.54l2.77.54-.32 6.08-3.09-.75.64-5.87zM757.1 97.24l2.88-.86.43 7.36-3.41.64.1-7.14zM757.1 109.08l3.2-.75.22 6.4-3.1.53-.32-6.18z" class="bj"/><path d="m737.05 89.88 4.38-10.39 2.13-1.45-.75-1.82 6.59-15.62 4.29 16.9-2.13 14.94-14.51-2.56z" class="n"/><path d="m749.4 60.6 8.77 15.41-1.07 2.42 2.92.82 6.04 10.63-14.5 2.56-2.16-31.84z" class="aj"/><path d="m742.81 76.22 7.74 1.41 2.29 1.9-2.07 1.32-9.34-1.36 1.38-3.27z" class="aj"/><path d="m750.55 77.63 7.62-1.62 1.85 3.24-9.25 1.6-.22-3.22z" class="ax"/><path d="m756.62 146.15-8.3 86.87 36.68 4.65-4.57-92.26-23.81.74z" class="bd"/><path d="m775.59 151.66 4.84-6.25 57.81-1.32-1.83 10.28-5.54 4.84 4.34 1.91-.7 3.92-2.72 2.7 1.9 1.91-.99 5.54-1.83 2.77.94 2.2-.94 5.31-3.59 2.75 2.71 2.14-.94 5.32-3.1 2.71 2.23 2.17-.9 5.01-3.02 4.23 1.78 2.73-3.73 20.95-37.31 4.19-2.22-20.33 2.22-3.52-2.79-1.65-.6-5.54 1.84-2.62-2.29-1.43-.64-5.88 1.69-2.18-2.12-1.75-.63-5.77 1.7-2.62-2.19-1.82-.67-6.12 1.79-2.3-2.25-1.97-.55-5.03 1.68-2.28-2.21-2.51-1.17-10.69z" class="ac"/><path d="m756.62 146.15 43.14-6.84 38.48 4.78-62.65 7.57-18.97-5.51z" class="av"/><path d="m783.13 143.26 14.52-1.46 3.78 1.93-15.45 1.93-2.85-2.4z" class="m"/><path d="m780.29 145.66 1.8-33.04 2.77.56 1.12 32.48h-5.69z" class="i"/><path d="m763.29 154.73 8.11 2.24.32 3.41-9.07-2.34.64-3.31zM762.65 161.98l8.96 2.67.21 3.09-9.92-2.34.75-3.42z" class="av"/><path d="m826.04 212.53 1.24-6.96-45.07 6.6.57 5.17 43.26-4.81zM832.7 175.19l-53.73 7.37.49 4.44 52.35-6.84.89-4.97zM836.41 154.37l-59.65 7.98.53 4.79 57.92-6.02 1.2-6.75zM833.69 169.65l.82-4.61-56.67 7.13.46 4.27 55.39-6.79zM828.18 200.56l.87-4.88-47.89 6.9.45 4.05 46.57-6.07zM829.99 190.36l.88-4.89-50.78 7.3.43 3.93 49.47-6.34z" class="ad"/><path d="m664.66 207.42 2.85 31.72 9.09 1.18 2.75-3.35 2.54 4.05 4.72.61 1.38-2 3.49 2.64 5.66.74 2.26-1.99 2.12 2.56 10.64 1.39 15.36-33.42-27.87-.29-34.99-3.84z" class="n"/><path d="m712.16 244.97 41.53-7.82 4.27-35.27-40.82 13.51-2.42 2.7-2.56 26.88zM680.09 221.29l-5.12-.78 1.63 19.81 5.29.7-1.8-19.73zM697.14 243.01l4.38.57 1.83-19.31-5.12-.71-1.09 19.45zM691.68 222.78l-5.69-.71.62 19.56 4.87.64.2-19.49z" class="aq"/><path d="m658.83 178.69-1.99 29.59 57.88 9.81 2.14-18.49 5.05-17.35-63.08-3.56z" class="bi"/><path d="m711.74 188.08 18.2-8.39 37.26-4.27-.99 31.58-51.49 11.09-2.98-30.01z" class="z"/><path d="m666.65 188.22 35.98 5.55.43 3.98-36.55-5.55.14-3.98zM667.08 197.89l35.84 5.98.43 4.26-36.7-5.83.43-4.41z" class="bg"/><path d="m721.98 194.2 7.53-1.71.43 3.7-7.82 1.7-.14-3.69zM722.55 202.87l7.25-1.56.14 4.26-7.11 1.43-.28-4.13z" class="an"/><path d="m658.83 178.69 44.04-14.46 64.33 11.19-55.46 12.66-52.91-9.39z" class="bk"/><path d="m712.16 182.11-9.29-17.88 64.33 11.19-26.39 6.02-28.65.67z" class="m"/><path d="m675.9 164.33 1.7 11.99 34.56 5.79 10.39-16.5-35.56-.29-11.09-.99z" class="n"/><path d="m712.16 182.11 31.29-6.12 1.28-10.95-30.58 4.69-1.13 2.65-.86 9.73z" class="aq"/><path d="m663.88 126.07 53.12 1.9-3.98 44.41-48.5-7.52-.64-38.79z" class="bi"/><path d="m710.74 135.04 11.09-8.97 41.19-1.11-3.2 40.86-46.8 6.56-2.28-37.34z" class="z"/><path d="m663.88 126.07 43.01-11.23 56.13 10.12-52.28 10.08-46.86-8.97z" class="bk"/><path d="m670.63 134.46 32.43 6.12.14 3.98-32.14-5.83-.43-4.27zM671.2 144.7l31.86 5.41.29 4.26-32-5.4-.15-4.27zM671.91 154.37l31.58 5.41.42 4.26-31.85-5.4-.15-4.27z" class="bg"/><path d="m677.46 133.32 1.42 27.88 2.14 1.14-2.14-27.88-1.42-1.14zM685 135.6l1.85 27.31 1.56.14-1.28-26.45-2.13-1zM693.82 137.31l1.56 27.3 1.42-.42-.85-27.45-2.13.57z" class="bi"/><path d="m719.13 140.72 35.13-6.83-.57 4.55-34.27 6.69-.29-4.41zM719.56 150.25l34.13-5.55-.57 4.13-33.28 5.69-.28-4.27zM720.13 160.2l32.85-4.69-.28 3.7-32.43 4.83-.14-3.84z" class="an"/><path d="m726.81 137.24 1 27.66 1.14-.29-.64-28.37-1.5 1zM735.77 136.31l.5 26.53 1.14-.22.5-27.09-2.14.78zM745.37 133.68l-1.63 28.3 1.49-.07 1.14-28.16-1-.07z" class="z"/><path d="m731.5 214.47 6.41-1.38 2.56-24.33 17.7 14.32-9.85 41.89-19.37-3.16 1.19-12.72 2.43-1.4-2.07-2.49.29-3.13 3.49-.21-3.21-2.73.43-4.66z" class="bi"/><path d="m748.32 244.97 20.45-2.7 1.73-14.64-2.59-1.01 2.94-2.03.33-2.73-3.27-1.35 3.8-3.17 1.89-16.03-14.36-.75-7.68 5.01-3.24 39.4z" class="z"/><path d="m773.6 201.31-15.64-16.26-17.49 3.71 11.09 16.81 22.04-4.26z" class="t"/><path d="m731.07 219.13 19.18 2.35 2.45 1.94-2.7 1.17-19.21-2.52.28-2.94zM730.5 225.2l19.21 2.93 2.99 2.26-3.33 1.78-19.23-3.08.36-3.89z" class="an"/><path d="m750.25 221.48 21.46-4.14-.53 4.52-21.18 2.73.25-3.11zM749.71 228.13l21.14-3.54-.35 3.04-21.13 4.54.34-4.04z" class="t"/><path d="m737.91 213.09-6.84 6.04.43-4.66 6.41-1.38z" class="m"/></g><g id="e"><path d="M310.67 170.85 298.9 318.71l-10.3 3.42-2.57-24.66 4.65-109.58 6.58-15.28 13.41-1.76z" class="av"/><path d="m296.09 172.61-7.49 149.52-7.98-3.24 2.15-153.92 13.32 7.64z" class="ad"/><path d="m379.78 135.58-118.08 8.78v27.21l6.61 11.98 108.08-13.59 3.39-34.38z" class="n"/><path d="m271.52 153.79-13.92-8.53-51.34-4.15 5.53 31.56 56.52 10.88 3.21-29.76z" class="aj"/><path d="m379.78 135.58-71.86-10.71-101.66 16.24 65.26 12.68 108.26-18.21z" class="r"/><path d="m337.92 129.34-30-4.47-51.78 8.27 4.82 5.3 47.36.66 29.6-9.76z" class="m"/><path d="m300.33 102.9.83 32.68h-6.38l-6.53-35.84 12.08 3.16z" class="ac"/><path d="m356.57 132.12-48.65-7.25 6.28-101.02 57.59 11.77-15.22 96.5z" style="fill:#9f80ae;opacity:.2;stroke-width:0"/><path d="m256.14 117.27 2.84 7.6 6.4-10.61 2.59 9.11 6.91-12.19-3.62-2.06-15.12 8.15z" class="az"/><path d="m233.23 109.12 1.35 10.74 6.15-8.07 1.25 10.63 5.77-8.13 2.37 10.58 6.02-7.6-8.39-8.15h-14.52z" class="az"/><path d="m253.29 90.58 2.85 26.69 18.74-6.09 25.45-8.28 9.49-.42 7.3 4.72 18.29 4.68 16.71-30.59-23.96-14.37-74.87 23.66z" class="bf"/><path d="M239.72 90.22v7.24l-3.97 4.3-2.52 7.36 22.91 8.15 2-10.83-2-4.68 4.04-6.37-4.04-5.71-16.42.54z" class="r"/><path d="m328.16 66.92-33.38-5.9-55.06 29.2 20.46 5.17 67.98-28.47z" class="az"/><path d="m260.18 95.39-9.43 6.06 7.39 4.99 2.04-11.05zM239.72 90.22l4.06 9.52-8.03 2.02 3.97-11.54zM326.44 74.55l6.96 11.46-12.13 5.16-3.7-8.61 8.87-8.01z" class="aj"/><path d="m333.4 86.01-15.83-3.45-5.73 5.17 8.9 7.66 12.66-9.38z" class="bi"/><path d="m300.33 102.9 10.16-8.9 6.63 13.2-16.79-4.3z" class="r"/><path d="m281.14 44.59 90.65-8.97-15.22 96.5-85.91 14.46 10.48-101.99z" style="fill:#f3eff5;opacity:.2;stroke-width:0"/><path d="m211.88 36.79 69.26 7.8-10.48 101.99-42.72-8.93-16.06-100.86z" style="fill:#cfbfd6;opacity:.2;stroke-width:0"/><path d="M211.88 36.79 314.2 23.85l57.59 11.77-90.65 8.97-69.26-7.8z" style="fill:#f7f5f6;opacity:.3;stroke-width:0"/></g><g id="f"><path d="m96.55 205.85 19 163.36 95.38-10.16-17.34-153.64-97.04.44z" class="n"/><path d="m115.55 369.21-83.89-15.69L48.94 207.2l59.29 1.35 9.89 9.43-2.57 151.23z" class="aj"/><path d="m48.94 207.2 69.18 10.78 75.47-12.57-79.89-12.06-64.76 13.85z" class="ae"/><path d="m66.62 203.42 25.19 5.94 30.35-2.16-8.46-13.85-47.08 10.07z" class="m"/><path d="m134.14 229.64 44.02-6.59 4.49 44.02-49.93 9.99 1.42-47.42z" class="bk"/><path d="m61.66 219.78 44.24 7.69-1.32 17-44.65-8.05 1.73-16.64z" class="ax"/><path d="m69.46 228.56 26.63 4.26-.42 2.86-26.66-4.87.45-2.25z" class="r"/><path d="m144.4 237.08 24.7-3.94.12 2.25-25.05 3.82.23-2.13zM150.24 242.69l13.58-2.13.34 2.24-13.7 2.36-.22-2.47z" class="s"/><path d="m151.36 256.39 13.59-1.91.45 7.86-13.26 2.59-.78-8.54z" class="bd"/><path d="m149.63 69.86 5.04 17.74-9.55 8.18-4.04-24.91 8.55-1.01z" style="fill:#545c6d;stroke-width:0"/><path d="m127.78 174.21 10.51-8.44-7.65-2.46-8.74 7.99 2.52 5.46 3.36-2.55z" class="ae"/><path d="m100.47 101.46 20.17-21.43 34.03 7.57-31.51 21.68-22.69-7.82z" class="bk"/><path d="m126.31 91.38-1.89-3.78 10.07-4.49 8.89 1.98-17.07 6.29z" class="m"/><path d="m154.67 87.6 7.1 11.74.47 12.33 12.85 9.71-23.44 14.37-33.53-10.34 4.53-22.69 32.02-15.12z" class="t"/><path d="m122.65 102.72 1.77 12.36-17.14 24.2-33.79-7.31 8.07-5.8-.88-12.66 7.43-19.11h26.1l8.44 8.32z" class="n"/><path d="m124.42 115.08 25.21 12.6-5.8 24.46-30.25 3.78-10.59-24.71 21.43-16.13z" class="bi"/><path d="m175.09 121.38-5.16 6.3 1.35 6.49-3.47 11.66-5.32 3.79 2.02 7.31-22.19-2.27-3.28-9.58 10.59-17.4 25.46-6.3z" class="n"/><path d="m73.49 131.97 7.31 4.66.95 7.4 8.14 11.89 4.02-.25-1.26 4.28 17.4.51 8.07-10.84-15.13-18.41-29.5.76z" class="aj"/><path d="m164.51 156.93-12.74-1.3-.71 5.83-12.77 4.31-11.98 2.29-4.41 3.24-9.83-9.58 6.05-12.1 20.92-4.54 25.47 11.85z" class="aj"/><path d="m92.65 159.95 25.47-10.33 3.78 21.68-3.33-3.24-7.74-1.06-5.65-2.19-3.79-4.86h-8.74z" class="ax"/><path d="m145.43 105.16-10.59 2.69-5.71 9.58 1.34 3.95 6.81.13 5.86 4.66 7.37 6.68 24.58-11.47-13.32-22.04-7.1 3.47-3.36 14.03-10.08-3.33 4.37-4.23-.17-4.12z" class="n"/><path d="m129.13 117.43-1.35 6.72 4.2 3.53 5.3-6.17-8.15-4.08zM119.04 135.75l4.2-6.55 3.07 1-1.89 8.95-5.38-3.4zM137.28 121.51l4.59 8.38-8.12 3-1.22 13.6 7.25 1.62 9.85-8.83v-11.6l-12.35-6.17z" class="aq"/><path d="m149.63 127.68 25.46-6.3-3.81 12.79-9.8-1.07-3.03 5.17 9.36 7.56-3.3 11.1-12.4-2.78-13.07-9.07 10.59-17.4z" class="ax"/><path d="m139.04 145.08 2.04 8.32 9.98 8.06 13.45-4.53-25.47-11.85zM138.29 165.77l-17.52-.96-1.36 2.96 2.49 3.53 16.39-5.53z" class="z"/><path d="m120.77 164.81-9.94 2.19 11.07 4.3-1.13-6.49z" class="w"/><path d="m114.21 111.67 3.91-4.53 3.78 4.53-5.42 3.41-2.27-3.41zM101.85 115.08l10.22 4.53-1.81 6.13-7.27 5.47-10.34 4.21-19.16-3.45 7.19-18.46 7.43 9.05 8.95-1.18 4.79-6.3z" class="ax"/><path d="m102.99 131.21-8.95 11.73 6.3 5.79 9.8 4.13-5.76 5.33-11.73 1.76-2.76-4.03 3.27-4.54-4.04-8.07-7.37.72-8.26-12.06 29.5-.76z" class="z"/><path d="m110.14 152.86-4.96 11.95-12.53-4.86 17.49-7.09z" class="w"/><path d="m122.65 102.72-2.01-22.69L88.11 94.4l34.54 8.32z" class="t"/><path d="m169.22 201.73-5.06-11.6-51.86 3.98 3.01 7.25 6.85 5.84 47.06-5.47z" class="ad"/><path d="m122.16 207.2-43.13-6.44 4.27-9.06h25.83l10.81 6.74 2.22 8.76z" class="bd"/><path d="m164.16 190.13-43.46-6.47-37.4 8.04 36.64 6.74 44.22-8.31z" class="av"/><path d="m100.6 187.98 14.71 7.09 33.47-4.94-6.14-3.2-21.94-3.27-20.1 4.32z" class="m"/><path d="m119.04 190.67 2.86-19.37 5.88 2.91 1.35 16.46h-10.09zM116.36 75.07l5.29 16.31h4.66l1.47-13.28-.21-3.03h-11.21z" class="l"/><path d="m116.36 75.07 18.65-7.56 14.62 2.35-21.85 8.24-11.42-3.03z" class="ae"/><path d="m132.32 290.83 52.34-10.74L195 343.38l-64.47 7.78 1.79-60.33z" class="ad"/><path d="m58.74 257.82 44.25 7.28-7.19 84.06-46.86-7.53 9.8-83.81z" class="bd"/></g><g id="g"><path d="m423.83 197.11-16.67 43.7.63 18.89 14.65 1.9 13.35-14.57-1.51-45.85-10.45-4.07z" class="aa"/><path d="m394.57 263.56 12.59-22.75 23.05 14.71-7.77 6.08-17.38 13.22-12.19-4.13 1.7-7.13z" class="ao"/><path d="m421.48 278.11 2.48 46.26 15.23 21.47 17.44-6.13 11.27-25.46-7.81-13.99-38.61-22.15zM527.09 248.7l-23.93-19.43 17.12-37.68 20.81 34.9-14 22.21z" class="aa"/><path d="m470.15 213.93-11.63-20.34-29.17 2.7-2 9.03-4.91 56.28 53.16 21.47 41.19-11.57-.99-67.9-14.44-5.64-12.12-17.78-19.09 33.75z" class="ai"/><path d="m460.66 201.4-33.31 3.92-3.52-8.21 33.26-12.38 3.57 16.67z" class="as"/><path d="m478.55 335.71-10.65-21.46 16.9-18.91 31.61-12.18-.43 54.69-16.26 9.17-21.17-11.31z" class="ai"/><path d="m421.48 278.11 46.42 36.14 48.51-31.09-49.64-9.22-45.29 4.17z" class="au"/><path d="m515.98 337.85-37.43-2.14 12.02 25.94 12.67 3.3 12.55-.97.19-26.13z" style="fill:#734d61;fill-rule:evenodd;stroke-width:0"/><path d="m450.14 369.1-17.74 1.59-25.95-1.59 19.12-19.29 11.56-.65 12.96 6.79.05 13.15z" style="fill:#815c92;fill-rule:evenodd;stroke-width:0"/><path d="M450.13 375.19h-43.69v-6.09h43.69z" class="z"/><path d="m490.57 361.65-7.41 16.65 17.52 1.68 18-1.68-2.89-14.32-25.22-2.33z" class="al"/><path d="M518.68 383.79h-35.52v-5.49h35.52z" class="z"/><path d="m450.03 252.01-3.61 26.04 15.98 2.52 34.02-2.21-1.67-19.39-9.17-28.59-13.38-21.92-15.8 20.05-6.37 23.5z" class="aa"/><path d="m478.54 194.57 37.26 9.03 4.48-12.01-31.04-11.41-10.7 14.39z" class="as"/><path d="m489.24 180.18 5.51 78.79-22.55-50.51 3.53-16.87 13.51-11.41zM472.2 208.46l-22.17 43.55 8.23-61.42 11.15 5.06 2.79 12.81zM468.98 235.44l-4.69 3.5 4.47 5.98 5.28-4.74-5.06-4.74zM468.76 253.75l4.96 5.71-5.55 3.99-4.63-5.22 5.22-4.48z" class="at"/><path d="m516.79 271.5-35.05-3.63-12.76.25-13.41-3.02-33.13-3.5-.96 16.51 33.58 1.62 12.21-.55 14.29 1.98 34.85 2 .38-11.66z" class="as"/><path d="m455.06 279.73 26.5 1.43.18-13.29-26.17-2.77-.51 14.63Zm6.17-9.52 15.63 1.47.04 6-15.96-.95.29-6.51Z" class="at"/><path d="m503.01 143.43-8.35-2.87-14.49 9.51 8.19 8.84 22.3 3.74-7.65-19.22z" class="j"/><path d="m398.22 104.52 2.87 20.52 15.1 63.23 31.35-3.4 18.19 16.31 17.93-26.15-5.88-34.09-5.32-2.68-2.06-16.08 2.78-23.81-25.9-15.39-26.38 12.96-4.36-14.05-18.32 22.63z" class="ap"/><path d="m472.18 98.69-17.46 28.43-.44 59.5 17.92 21.84 17.04-28.28-.88-21.27-1.75-4.68.33-4.54 8.96-.58 1.29-20.82-13.46-.97-5.82 11.67-4.33.13-2.42-16.69 1.02-23.74zM408.84 132.2l23.52-4.18 22.36-.9-12.79 11.63-7.65 20.48-25.44-27.03z" class="u"/><path d="m493.24 132.44-6.79-.26-2.57 13.29 9.36-13.03zM447.54 184.87l22.08-2.42 2.58 26.01-24.66-23.59zM486.94 149.69l-5.91.44 7.33 8.78-1.42-9.22z" class="ba"/><path d="m399.79 104.43-4.73-8.99-10.72-8.18 16.75 37.78-1.3-20.61z" class="ar"/><path d="m472.18 98.69 16.32-8.14 26.12-6.12-7.38 37.54-22.02 1.67-17.94-1.47 4.9-23.48z" class="al"/><path d="m399.79 104.43 16.32-17.49 9.61-7.88 10.19-13.35-51.57 21.55 15.45 17.17zM472.18 98.69l-26.73-11.73 16.69-12.31 21.1-6.62 31.38 16.4-42.44 14.26z" class="be"/><path d="m435.91 65.71 31.01-12.95 16.32 15.27-37.79 18.93-26.78 13.12-2.56-13.14 19.8-21.23z" class="al"/><path d="m467.28 122.17 39.96-.2-4.23 21.46-7.11 5.68.35-20-12.64-.03-4.15 13.14-7.54-1.65-4.64-18.4z" class="be"/><circle cx="416.37" cy="142.72" r="3.56" class="bh"/><circle cx="441.73" cy="139.62" r="3.56" class="bh"/><path d="m456.63 339.71-32.67-15.34 1.61 25.44 24.52 6.14 6.54-16.24z" class="au"/><path d="m454.4 170.32-22.75 5.95-14.47-2.91 14.14-6.67 23.08 3.63z" class="u"/><path d="m454.4 170.32-20.12-11.09-4.17 1.93-5.15-.81-7.78 13.01 37.22-3.04z" class="be"/><path d="m429.57 129.9 4.71 29.33-4.17 1.93-5.15-.81-3.22-31.01 7.83.56z" style="fill:#e8cab6;fill-rule:evenodd;stroke-width:0"/><path d="m454.72 127.12-45.88 5.08-1.05-5.97 44.11-2.31 2.82 3.2z" class="be"/><path d="m424.95 160.3 5.27 3.16 4.06-4.23-9.33 1.07z" class="j"/><path d="m541.09 226.49-24.57 26.12 3.76 12.49 9.3-1.17 25.82-13.59-14.31-23.85z" class="ao"/><path d="m516.41 283.16 13.33-6.69-7.97-8.21-5.36 14.9z" class="u"/><path d="m516.52 252.61-10.42 10.95 10.31 19.6 13.17-19.23-13.06-11.32z" class="ap"/></g><g id="h"><path d="m307.82 380.47 13.25-1.72 10.56-31.32-20.67 2.58-8.42 14.94 5.28 15.52z" class="ai"/><path d="m289.9 361.96 3.12 16.57 14.8 1.94 7.36-31.31-25.28 12.8z" class="at"/><path d="m225.84 386.77 15.76-2.91 16.17-33.99-29.34 5.07-4.95 13.38 2.36 18.45z" class="ai"/><path d="m205.76 359.6 4.02 26.13 16.06 1.04 10.22-31.83-30.3 4.66zM363.89 401.28l-14.37-1.74-12.58-35.94 30.49 6.14v15.43l-3.54 16.11z" class="at"/><path d="m360.28 372.94 3.61 28.34 15.81-2.64 9.65-38.71-29.07 13.01z" class="ai"/><path d="m442.91 389.06-13.28-1.8-8.15-31.31 20.13-8.93 4.81 14.63-3.51 27.41z" class="at"/><path d="m465.46 352.43-6.93 33.63-15.62 3-4.19-40.88 26.74 4.25z" class="ai"/><path d="m199.84 323.65 5.92 35.95 154.52 13.34 7.15-32.78-24.8-4.2-97.93-15.99-44.86 3.68z" style="fill:#576071;fill-rule:evenodd;stroke-width:0"/><path d="m367.49 333.89 89.14-23.57 3.24 11.78-7.78 23.74-79.36 14.09-5.24-26.04z" style="fill:#3d4554;fill-rule:evenodd;stroke-width:0"/><path d="m385.31 330.51 3.14 24.41 2.7-.75-2.1-23.66h-3.74zM400.58 328.71l-1.04 23.66 2.84-.15 1.65-23.36-3.45-.15zM414.66 326.17l-2.55 23.96 2.55-.45 2.99-24.11-2.99.6zM427.39 323.02l-3 24.71 1.95-.3 4.79-25.3-3.74.89zM436.22 345.93l4.94-27.4 2.1-.15-4.49 26.51-2.55 1.04z" class="ab"/><path d="m449.01 313.84 5.27 6.69-7.86 21.1-67.17 12.14-3.12-12.96 3.12-6.92-22.54 11.95 3.57 27.1 105.18-20.51 8.58-42.11-25.03 3.52z" style="fill:#4b5464;fill-rule:evenodd;stroke-width:0"/><path d="m169.69 294.09 5.93 27.33 39.1 5.28 16.75-3.9 88.94 13.28 18.76 7.4 17.54 2.36 10.78-24.16-111.11-27.59h-86.69z" class="ar"/><path d="m356.71 345.84 19.42-5.03 15.02-8.65 60.94-17.07 10.49 3.29 24.68-6.4 5.98-30.15-107.66 17.98-30.67 27.86 1.8 18.17z" class="al"/><path d="M169.69 294.09 303.1 265.1l190.14 16.73-73.89 24.49-26.44 6-14.77 7.65-23.23 7.7-185.22-33.58z" class="ak"/><path d="m214.72 326.7 7.3-12.86 112.53 18.09 4.62 11.55-124.45-16.78z" class="ag"/><path d="m248.78 346.3-1.08-7.83-20.66-2.39 1.08 8.23 20.66 1.99zM228.56 347.63l.87 6.56 20.67 1.65-.95-6.82-20.59-1.39z" class="ak"/><path d="m376.13 340.81 5.36-11.62 76.31-21.22 4.78 10.41-86.45 22.43z" class="be"/><path d="m235.02 291.75 71.68-19.79L438.72 288l-92.82 24.66-110.88-20.91z" style="fill:#fbfafb;fill-rule:evenodd;stroke-width:0"/><path d="m251.44 296.45 88.27-22.24 3.37.67-88.27 22.24-3.37-.67zM288.5 302.51l80.19-24.93 3.59.67-80.18 25.83-3.6-1.57zM312.99 308.12l88.27-26.95 2.69 1.12-86.7 26.96-4.26-1.13z" class="ak"/><path d="m373.86 306.78-124.84-20.74-3.15 1.12 126.41 21.19 1.58-1.57zM395.47 299.76l-127.71-19.83-1.8 1.12 128.39 20.29 1.12-1.58zM288.73 273.98l134.37 19.49-2.03.9-135.04-18.81 2.7-1.58z" class="ak"/><path d="m352.9 293.15 10.21-.33 4.32 4.26-13.52.77-1.01-4.7zM299.12 296.09l15.55-1.72 1.82 4.63-13.46 1.56-3.91-4.47zM293.29 283.89l11.16-.8 1.76 4.32-13.73.22.81-3.74z" class="ai"/><path d="m455.92 285.51 5.41-1.64 7.98.58-6.93 2.12-6.46-1.06zM444.17 289.74l7.4-2.47 6 1.06-7.29 2-6.11-.59zM432.78 293.85l6.69-2.23 5.76 1.06-6.93 2-5.52-.83z" class="ag"/><path d="m378.14 319.97-15.18-3.2 8.37-2.58 2.53.06-.21-.78 6.23-1.93 2.4.2.07-.96 6.01-1.86 2.3.21v-.92l5.29-1.63 2.76.01.01-.87 5.31-1.64 15.32 2.24-6.57 2.17-1.68-.14-.24.78-5.62 1.86-2.97.24.72.51-6.52 2.16-2.66-.06.39.81-7.09 2.35-2.29-.12.4.74-7.08 2.35z" class="ai"/><path d="m382.35 310.78-2.47.76 14.32 3.11 2.27-.75-14.12-3.12zM385.22 317.62l1.89-.62-13.46-3.53-2.32.72 13.89 3.43zM390.66 308.21l-2.3.71 14.63 2.82 2.25-.75-14.58-2.78zM398.72 305.72l-2.77.86 14.91 2.55 1.92-.64-14.06-2.77z" class="ad"/><path d="m421.63 275.53-21.05 7.81h-16.46l10.51-6.66 11.31-2.53 15.69 1.38z" style="fill:#1d2432;opacity:.1;fill-rule:evenodd;stroke-width:0"/><path d="m405.94 274.15-5.36 9.19-15.68 2.83-4.05-.81 9.54-7.71 15.55-3.5z" class="u"/><path d="m405.94 274.15-25.09 11.21 9.54-7.71 15.55-3.5z" class="ba"/><path d="m394.57 263.56-15.35 2.56.43 10.28 10.74 2.1 15.55-4.35-11.37-10.59z" class="ap"/><path d="m379.22 266.12-10.61 17.16 12.24 2.08 9.54-6.86-11.17-12.38z" class="u"/></g></svg>