<svg xmlns="http://www.w3.org/2000/svg" id="a" viewBox="0 0 900 420"><defs><style>.aa,.ab,.ac,.ad,.ae,.af,.ag,.ah,.aj,.ak,.am,.an,.ap,.ar,.as,.at,.au,.av,.aw,.ax,.ay,.az,.bb,.bc,.bd,.be,.bf,.bh,.bi,.bl,.m,.n,.o,.p,.q,.r,.s,.t,.u,.v,.w,.y,.z{stroke-width:0}.m{fill:#735283}.n{fill:#543042}.o{fill:#89909b}.p{opacity:.1}.bb,.p{fill:#1d2432}.q{fill:#7a578a}.r{fill:#d0af96}.s{fill:#9f80ae}.t{fill:#8e699f}.u{fill:#9471a4}.v{fill:#513a5c}.w{fill:#8b6651}.y{fill:#68707f}.z{fill:#dfbda5}.aa{fill:#583f64}.ab{fill:#9a9fa9}.ac{fill:#734d61}.ad{fill:#b3889d}.ae{fill:#c3987b}.af{fill:#eeeff1}.ag{fill:#abafb8}.ah{fill:#454d5d}.aj{fill:#cccfd4}.ak{fill:#6c4d7b}.am{fill:#51596a}.an{fill:#bbbfc6}.ap{fill:#343c4b}.ar{fill:#404857}.as{fill:#c3b0cc}.at{fill:#734d60}.au{fill:#4b5464}.av{fill:#e8cab6}.aw{fill:#654873}.ax{fill:#a9846c}.ay{fill:#d1a1b8}.az{fill:#5e436b}.bb{opacity:.15}.bc{fill:#787f8d}.bd{fill:#5f6878}.be{fill:#96637c}.bf{fill:#3d4554}.bh{fill:#232a38}.bi{fill:#efd3c2}.bl{fill:#ab90b8}</style></defs><g id="b"><path d="m6.36 330.57 79.07-15.2 22.95-1.77 5.05 10.38-17.5 3.16-8.47-3.16-7.39 5.69-20.48 3-8.59-3-7.75 5.82-22.42 2.15-14.47-7.07zM7.81 286.37l63.47 9.96 53.83-13.34-58.01-8.13-59.29 11.51zM149.96 381.23l62.35-14.46 36.83-24.75 37.05.8 29.95 6.51-13.42 32.59 18.73 4.4-5.08 18.63-69.16-7.37-45.32 5.92-51.93-22.27zM383.5 408.01l-14.31-7.76 6.78-12.03 30.62-1.9 5.5 13.89-28.59 7.8zM505.03 371.37l-58.64 4.15-11.59-5.15-11.59 5.15-44.07-15.37 48.14-10.9 36.95 2.63 25.59 3.94 25.31 8.45-10.1 7.1zM553.35 313.14l57.51-10.33-65.23-13.54-40.99 17.83 48.71 6.04zM562.26 374.59l25.92-10.07 44.17 3.22 19.75 6.15 38.18 6.36-51.95 11.13-58.81-2.76-17.26-14.03zM672.64 369.56l-4.51-5.6-12.26 4.84-35.36-6.31 14.39-7.72 73.33 7.72 24.76-2.53 13.5-3.24 19.78 1.79 48.92 12.69 33.05-2.92 36.37 9.67-36.37 13.43-45.21-16.1-34.58.98-4.87-6.7-13.3 5.03-77.64-5.03zM64.79 378.01l26.11 5.44 27.06-6.42-28.53-5.76-24.64 6.74zM159.39 252.7l62.84 11.01-68.72 12.31-62.73-11.03 68.61-12.29z" class="p"/></g><g id="c"><path d="m162.36 224.98-1 43.15h-8.26l-1.93-37.94 4.8-14.73 6.39 9.52z" class="ak"/><path d="M137.91 106.11 79.18 207.37l71.99 22.82 18.79-85.23-9.57-34.71-22.48-4.14z" class="m"/><path d="m169.96 110.25 61.52 107.81-80.31 12.13 6.4-108.16 12.39-11.78z" class="q"/><path d="m173.94 117.23-17.72 27.73-23.13-30.53 40.85 2.8z" class="bb"/><path d="m153.68 52.36-37.42 56.85 41.31 12.82 1.99-63.68-5.88-5.99z" class="m"/><path d="m162 54 30.07 57.92-34.5 10.11-1.6-62.48L162 54z" class="q"/><path d="m163.85 57.56-7.48 17.73L150.62 57l13.23.56z" class="bb"/><path d="m161.54 14.35 13.4 40.41-18.97 4.79-3.77-11.82 9.34-33.38z" class="q"/><path d="M161.54 14.35 138.7 51.33l17.27 8.22 5.57-45.2zM690.4 101.31l35.55 56.77-63 34.86-19.74-62.16 15.36-26.31 31.83-3.16z" class="m"/><path d="m649.27 98.84-43.09 79.47 56.77 14.63-7.08-73.82-6.6-20.28z" class="q"/><path d="m641.88 112.47 16.56 33.42 37.54-35.67-54.1 2.25z" class="bb"/><path d="m675.4 46.2 36.03 60.58-55.56 12.34V82.66l12.26-36.46h7.27z" class="m"/><path d="m662.34 46.2-35.8 58.98 29.33 13.94 12.46-67.81-5.99-5.11z" class="q"/><path d="m660.66 48.97 4.9 17.42 11.08-17.42h-15.98z" class="bb"/><path d="m669.81 12.8-20.54 32.71 19.06 5.8 7.07-14.2-5.59-24.31z" class="q"/><path d="m669.81 12.8 17.25 33.1-18.73 5.41 1.48-38.51z" class="m"/><path d="m839.27 360.35 1.65 25.91h6.13l3.64-38.55-11.42 12.64z" class="be"/><path d="m834.47 323.53-38.3 26 43.1 10.82 14.79-27.29-19.59-9.53z" class="u"/><path d="m839.27 360.35 45.34-8.12-31.47-27.12-8.03 7.95-5.84 27.29z" class="m"/><path d="m828.31 327.71 14.33 16.92 14.45-16.11-28.78-.81z" class="bb"/><path d="m837.23 295.28-22.04 28.25 29.92 9.53 3.13-34.24-11.01-3.54z" class="u"/><path d="m848.29 295.29 21.99 28.24-25.17 9.53-2.99-29.89 6.17-7.88z" class="m"/><path d="m833.13 300.54 10.09 13.64 8.92-13.94-19.01.3z" class="bb"/><path d="m823.76 297.79 14.01-39.75 12.92 28.84-8.57 16.29-18.36-5.38z" class="u"/><path d="m837.77 258.04 22.72 39.75-18.37 5.38-4.35-45.13z" class="m"/><path d="m61.4 247.52 5.7 44.27h9.18l2.9-39.09-11.16-9-6.62 3.82z" class="ac"/><path d="m54.53 175.95-43.81 69.98 68.88 14.58-.42-90.26-24.65 5.7z" class="m"/><path d="m90.81 166.26 7.37 11.52 40.94 64.01-59.52 18.72-5.48-77.12 16.69-17.13z" class="q"/><path d="m54.53 175.95 21.1 28.16 23.05-26.65-44.15-1.51z" class="bb"/><path d="m74.12 183.39 47.06-11.36-35.98-48.55-7.46 2.06-4.9 7.81 1.28 50.04z" class="q"/><path d="m74.12 123.48-36.63 46.01 36.63 13.9 3.62-52.61-3.62-7.3z" class="m"/><path d="m70.65 127.84 6.11 17.12 10.7-18.42-16.81 1.3z" class="bb"/><path d="m72 75.29-15.4 46.72 21.14 8.77 9.09-15.03L72 75.29z" class="m"/><path d="m72 75.29 27.53 46.29-21.79 9.2L72 75.29z" class="q"/><path d="m538.86 252.5 2.19 56.14h7l3.02-49.97-12.21-6.17z" class="ad"/><path d="m536.19 164.74-2.2 4.13-34.18 73.82 51.26 15.98v-60.43l-9.12-26.48-5.76-7.02z" class="bl"/><path d="m551.07 258.67 39.99-6.54-39.08-83.51-.91-8.34-9.12 11.48 9.12 86.91z" class="u"/><path d="m551.98 168.62-8.34 20.52-9.65-20.27 17.99-.25z" class="bb"/><path d="m541.62 115.84-.94 7.04-26.1 38.93 27.37 9.95 9.12-49.17-9.45-6.75z" class="bl"/><path d="m549.69 115.84 2.29 6.88 18.71 40.05-28.74 8.99 5.45-46.36 2.29-9.56z" class="u"/><path d="m540.68 122.88 5.43 13.49 5.87-13.65-11.3.16z" class="bb"/><path d="m543.48 35.99-15.53 82.11 19.45 7.3 3.15-21.93-7.07-67.48z" class="bl"/><path d="m543.48 35.99 20.24 79.87-16.32 9.54-3.92-89.41z" class="u"/></g><g id="d"><path d="m102.18 230.19 4.97-13.71 6.97 1.58v11.58l-5.97 4.76-5.97-4.21z" class="u"/><path d="m102.18 230.19 6.2.88 4.82 33.08 4.99 43.84-4.76 15.99-8.27-2.13-2.98-91.66z" class="t"/><path d="m76.84 220.65 8.36 1.71-2.07 15.85-8.57 1.86-4.28-5.12 6.56-14.3z" class="u"/><path d="m80.07 329.67-8.26-1.03-1.53-93.69 8.72 2.38 6.43 33.69-5.36 58.65z" class="t"/><path d="m35.85 240.07 7.4-16.51 11.72 2.08L51 240.6l-7.75 4.65-7.4-5.18z" class="u"/><path d="M43.25 335.49 32.63 334l3.22-93.93 9.94 1.8L51 274.86l-1.07 40.17-6.68 20.46z" class="t"/><path d="m45.79 241.87 9.18-16.23 8.54 13.27-3.92 93.76-16.34 2.82L44.81 278l4.1-6.06-3.6-14.09.48-15.98zM80.07 329.67 79 237.33l6.2-14.97 10.09 12.95.64 91.83-15.86 2.53zM128 321.85l-4.24-90.78-9.64-13.01-5.74 13.01 5.05 92.91 14.57-2.13z" class="s"/><path d="m54.97 260.25-9.66-2.4-.5 20.15 5.18 1.38 4.98-19.13z" class="u"/><path d="m51 262.44 19.63-5.78 49.91-9.32h9.88l1.18 17.52-81.61 14.52L51 262.44z" class="bl"/><path d="m45.31 257.85 79.15-11.67 5.96 1.16L51 262.44l-5.69-4.59z" class="as"/><path d="m55.45 269.31 2.75-2.44 2.45 3.21-3.06 2.75-2.14-3.52zM87.87 262.24l3.37-3.52 1.99 2.75-2.45 3.52-2.91-2.75zM119.85 256.73l3.37-3.06 2.3 3.52-3.37 3.06-2.3-3.52z" class="be"/></g><g id="e"><path d="m93.52 360.18-2.4 17.47h-3.17l-1.67-22.48 7.24 5.01z" class="be"/><path d="m97.7 336.39 19.78 19.27-23.96 4.52-5.92-10.37 4.62-10 5.48-3.42z" class="u"/><path d="m93.52 360.18-26.46-5.78 20.54-19.87 4.62 5.28 1.3 20.37z" class="m"/><path d="m98.69 337.34-5.94 10.69-7.95-10.69h13.89z" class="bb"/><path d="m95.81 308.96 11.28 25.18-14.87 5.67-1.69-9.06 5.28-21.79z" class="u"/><path d="m95.81 308.96-16.45 26.58 12.86 4.27 3.59-30.85z" class="m"/></g><g id="f"><path d="m486.75 286.86 5.51 3.97.34 9.73-4.55.68-1.3-14.38z" class="bl"/><path d="m486.75 286.86 5.32-1.63.19 5.6-8.55 3.01-16.55 4.3-1.73-6.93 21.32-4.35z" class="ak"/><path d="m501.68 301.24-27.96-3.55-8.29-8.42-11.1 15.1 6.17 5.71 41.18-8.84z" class="aw"/><path d="m501.68 301.24-6.4 40.83-15.77 3.55-10.17-15.11-2.18-23.41 34.52-5.86z" class="q"/><path d="m483.07 281.67 3.68 5.19-8.34 4.71h-5.43l-5.82-4.71 3.85-5.11 12.06-.08z" class="z"/><path d="m476.95 254.65 6.12 27.02-11.28 2.34-6.36-18.34 11.52-11.02z" class="n"/><path d="m486.75 286.86-3.04 6.98-14.37 5.53 3.64-7.8 13.77-4.71z" class="ae"/><path d="m440.2 355.58 6.19 14.92-11.59 2.01-11.59-2.01.49-4.14 1.79-3.57-.93-3.56 5.88-6.34 9.76 2.69z" class="bd"/><path d="m423.21 370.5 12.85-6.23 10.33 6.23-8.03 2.51-15.15-2.51zM424.56 359.23l2.72 4.33-3.58 2.8.86-7.13zM431.41 355.47l1.5 6.37 3.15-.54-1.26-6.27-3.39.44z" class="o"/><path d="M423.21 370.5h23.18v5.02h-23.18z" class="au"/><path d="M464.23 351.88v12.39l21.03 3.73 8.54-2.42-3.98-9.76-4.56-4.51-12.28-9.24-5.27 5.91-3.48 3.9z" class="bd"/><path d="m482.89 364.27 6.93-8.45 8.56 8.45-8.49 2.52-7-2.52zM467.03 355.4l3.27 5.9 5.81-3.96-5.07-6.03-4.01 4.09zM473.68 345.97l8.52 6.92 3.06-1.58-5.75-5.69-5.83.35z" class="o"/><path d="M464.23 364.27h34.15v5.02h-34.15z" class="au"/><path d="m472.98 291.57 6.53 54.05-15.28 6.26-24.38-48.67 12.85-15.33 20.28 3.69z" class="aa"/><path d="m450.68 318.29 22.3-26.72-23.95-1.13-5.44 11.73 7.09 16.12z" style="fill:#4a3554;stroke-width:0"/><path d="m456.53 297.46-16.33 58.12-15.64 3.65-8.96-69.88 22.38-5.9 18.55 14.01z" class="az"/><path d="m419.48 276.26-3.88 13.09 40.93 8.11 1.92-5.17 4.12 3 10.41-3.72-1.97-12.55-21.52 3.37-30.01-6.13z" class="m"/><path d="m469 227.8 9.41 20.87-21.88 11.53-35.97 2.33 1.92-23.62 7.96-11.11 28.14-7 10.42 7z" class="be"/><path d="m415.9 208.43-7.72 22.69 9.41 2.53 15.36-7.23-2.74-10.49-14.31-7.5z" class="aw"/><path d="m471.01 220.08-5.58 4.9-15.43 4.73 3.39-14.25 17.62 4.62z" class="m"/><path d="M471.01 220.08 469 227.8l-19 1.91 21.01-9.63z" class="aw"/><path d="m500.34 193.14 10.87-11.63-12.24-14.59-2.3 4.33 8.88 9.17-5.36 3.91.15 8.81z" class="ac"/><path d="m498.66 147.62 4.22 61.21-35.72 3.07-10.63 5.05-6.53 12.76-16.12-16.26-5.89-54.91 37.34-27.26 17.1 2.64 16.23 13.7z" class="z"/><path d="m467.16 211.9-21.27 1.43 4.11 16.38 17.16-17.81z" class="w"/><path d="m492.98 160.89-21.91 21.23-22.04-17.67 8.49-6.62 11.48 4.63 4.02 3.8 3.84-4.45 7.12-3.98 9 3.06z" class="ae"/><path d="m469 162.46 2.07 19.66 3.67.98 3.67-1.48-1.55-19.81-7.86.65z" class="av"/><path d="m471.07 182.12 3.67 3.41 3.67-3.91-7.34.5z" class="w"/><circle cx="485.07" cy="170.76" r="2.64" class="bh"/><circle cx="461.43" cy="173.28" r="2.64" class="bh"/><path d="m485.78 129.06 17.42 11.4-4.54 7.16-15.66-9.53-9.18-7.73 11.96-1.3z" class="an"/><path d="m483 138.09 2.78-9.03-8.52-5.58 5.74 14.61z" class="ab"/><path d="m460.62 194.34 15.04 6.51 12.85-7.9-13.94 2.6-13.95-1.21z" class="t"/><path d="m460.62 194.34 9.53-1.39 4.59-3.41 4.77 2.4 9 1.01-13.94 3.39-13.95-2z" class="aw"/><path d="m476.86 161.81 6.14-5.74 9.98 4.82-16.12.92zM469 162.46l-10.94-6.39-9.03 8.38 19.97-1.99zM476.42 113.33l1.99 7.48-6.96 3.81 8.06.33 3.49 13.14-30.3-2.59-19.59-10.7 43.31-11.47z" class="af"/><path d="m483 138.09-40.63 45.75-16.37 1.07L409.4 159l23.71-34.2L483 138.09z" class="an"/><path d="m409.4 159 6.5 49.43 17.21 11.65 14.29-.75-5.03-35.49L409.4 159z" class="ab"/><path d="m479.51 124.95-16.29 7.87-10.52 2.68-9.57-8.03 35.28-6.66 1.1 4.14z" class="an"/><path d="m447.4 219.33 2.6 10.38h-10.84l-23.26-21.28 31.5 10.9z" class="bc"/><path d="m463.22 132.82-31.36 43.1-5.4 1.83-2.49-7.78 19.16-42.5 20.09 5.35z" class="ab"/><path d="m423.97 169.97-8.07 38.46 11.08 7.5 4.86-1.99.02-38.02-7.89-5.95z" class="bc"/><path d="m431.84 213.94 7.32 15.77-9.79-4.73-13.47-16.55 15.94 5.51z" class="y"/><path d="m478.41 248.67-3.38 13.86-2.84 5.06-1.18 11.43-16.68 7.5-16.35-3.07-2.03-4.43-3.63 3.37-9.84-1.84-1.92-18.02 57.85-13.86z" class="ac"/><path d="m450 229.71 5.42 24.47 3.82 2.08 3.33-3.8-7.71-24.24-4.86 1.49z" class="ay"/><path d="m455.42 254.18-1.09 32.34h4.8l2.07-3.09 1.37-30.97-7.15 1.72z" class="ad"/><path d="m454.33 286.52 2.2 10.94 6.04-2.17-1.37-11.86-6.87 3.09z" class="u"/><path d="m427.89 230.43-7.33 32.1-1.08 8.95-18.08 7.38 1.96-24.21 4.82-23.53 9.41-.69h10.3z" class="ac"/><path d="m450 229.71-8.77 3.94-23.64-3.22 11.78-5.45 20.63 4.73z" class="m"/><path d="m420.56 262.53 16.99 9.82-5.23 10.04-30.92-3.53 19.16-16.33z" class="n"/><path d="m432.32 282.39 4.43-16.72 6.89 1.92-5.66 15.86-5.66-1.06zM469.34 265.67l5.69-3.14-4.02 16.49-1.67-13.35z" class="s"/></g><g id="g"><path d="M316.14 349.33v15.53l15.28 2.76 19.02-2.76L328.87 346l-7.42-1.64-5.31 4.97z" class="ah"/><path d="M316.14 364.86h34.3v5.51h-34.3z" class="ap"/><path d="m302.98 351.85 11.58 18.82-16.94 3.52-12.63-3.52 2.69-15.14 6.57-3.68h8.73z" class="ah"/><path d="m339.55 285.06-8.13 47.25-9.01 8.91-10.93-2.25-13.09-28.12 8.87-22.65 32.29-3.14z" class="aw"/><path d="m280.33 292.87 5.86 49.95 9.78 5.27 9.79-8.76 6.4-28.79-31.83-17.67z" class="m"/><path d="m339.55 285.06-27.39 25.48-31.83-17.67 31.9-8.5 27.32.69z" class="aa"/><path d="m319.78 184.55 17.66 6.36 3.87 84.03-30.96 7.45H279.2l-10.06-49.83-12.22-12.1 3.44-31.34 9.7-3.91 49.72-.66z" class="as"/><path d="m317.15 199.45-25.06 4.32-10.43-14.97 15.5-2.32 19.99 12.97z" class="s"/><path d="m319.78 184.55-12.38-14.3-27.97 3.42-9.37 11.54 40.91 1.27 8.81-1.93zM302.67 46.53l-17.04-10.25-8.05 19.43 25.09-9.18z" class="ac"/><path d="m354.01 76.19-29.15-27.98-6.28 4.59-8.23-5.69-7.68-.58-17.14 47.95 19.59-2.23 48.89-16.06z" class="ak"/><path d="m324.86 48.21 15.54 34.54-12.41 2.14-17.64-37.78 14.51 1.1zM302.67 46.53l-2.69 44.58-20.78-.06 23.47-44.52z" class="az"/><path d="m367.24 118.35 10.25 33.33-6.81 2.38-13.02-6.92-7.72-36.89 17.3 8.1z" class="ar"/><path d="m370.68 154.06-19.04-35.71 8.26 39.48 10.78-3.77z" class="ap"/><path d="m359.9 94.48 5.81 71.78-47.13 3.99-13.16 11.9-9.21-1.36-16.78-28.71 20.55-57.6h59.92z" class="z"/><path d="m310.35 182.15-3.39-9.75-6.98-77.92-20.55 57.6 12.46 36.63 12.39 2.2 6.07-8.76z" class="ae"/><path d="m318.58 170.25-22.37 1.66 14.14 10.24 8.23-11.9zM354.01 146.13l-15.61 4.44-18.71-2.22 1.04 3.36 18.13 2.98 14.46-4.28.69-4.28z" class="w"/><path d="m361.95 119.76-28.37 19.9-30.91-15.13 21.84-12.87 37.44 8.1z" class="ae"/><path d="m333.58 139.66 3.86.72 3.87-1.22-4.46-27.5-5.26.65 1.99 27.35z" class="av"/><path d="m341.31 139.16-3.37 4.29-4.36-3.79 7.73-.5z" class="w"/><path d="m299.98 94.48 7.42 13.16-4.73 16.89-15.04 51.67-8.2-2.53-2.31-8.04-8.75 4.62-4.51-1.39-.51-3.07-5.88 1.1-4.07-1.26 26.03-57.33 20.55-13.82z" class="ar"/><path d="m300.22 104.27-20.79 69.4-11.06-3.42 31.85-65.98zM291.19 106.11l-27.33 62.75-6.39-1.97 33.72-60.78z" class="ap"/><path d="m299.98 94.48 2.69 30.05 7 .71 5.09-3.91 3.44 4.77 7.21.74 4.19-2.14 3.1 2.87 11.87-3.17 1.71-3.45 5.97 1.4 3.75-1 2.06-3.61 3.89 2.02 5.29-1.41-7.34-23.87h-59.92z" class="am"/><path d="m344.57 124.4-5.37-25.71 13.05 23.66-7.68 2.05zM332.7 127.57l-1.11-21.46-6.18 20.73 7.29.73zM318.2 126.1l3.22-25.69-11.75 24.83 8.53.86z" class="ar"/><path d="m319.78 184.55-32.15-8.35-17.57 9.01 44.01 11.26 3.86-1.41 1-5.7-4.4-1.53 5.25-3.28z" class="be"/><path d="m319.78 184.55-49.72.66 47.09 14.24.78-4.39-21.72-7.13 22.72 1.43.85-4.81z" class="ac"/><path d="m303.28 216.23 3.22-4.13 3.36 3.52-2.75 3.21-3.83-2.6zM304.51 227.98l2.9-3.67 3.83 2.3-3.06 3.82-3.67-2.45z" class="t"/><path d="m338.41 271.48-34.13 6.17-25.08 4.74 1.13 10.48 59.22-7.81-1.14-13.58z" class="ac"/><path d="m286.19 342.82 19.57-3.49-2.78 12.52-15.3 3.68-1.49-12.71z" class="aw"/><path d="m311.48 338.97 19.94-6.66-2.55 13.69-12.73 3.33-4.66-10.36z" class="aa"/><path d="M284.99 370.67h29.57v5.51h-29.57zM306.57 240.46l23.57-7.53 33.57-12.47 3.38 28.68-8.49 8.88-52.03-17.56z" class="ap"/><path d="m363.71 220.46 53.88 9.97-50.5 18.71-4.44-6.85 1.06-21.83z" class="ap"/><path d="m366.86 199.45 13.2 14-19.97 5.38-1.49-16.05 8.26-3.33z" class="s"/><path d="m352.86 197.05-6.58 15.05 13.81 6.73 1.89-13.18-9.12-8.6z" class="u"/><path d="m369.79 202.56-5.51 12.9-4.19 3.37-6.08-15.62 5.98-5.18 9.8 4.53z" class="bb"/><path d="m354.01 175.25.12 17.77 7.85 12.63 10.57-4.18-18.54-26.22z" class="s"/><path d="m354.01 175.25-7.73 25.42 7.73 2.54 7.97 2.44-7.97-30.4z" class="u"/><path d="m364.28 222.33 2.81 26.81-2.81 2.85-4.65-27.01 4.65-2.65zM380.06 226.42l2.52 22.72 3.68-2.47-1.15-27.13-5.05 6.88z" class="be"/><path d="m383.56 190.91 17.84 29.55-21.34 5.96-4.02-30.08 7.52-5.43z" class="ak"/><path d="m374.55 193.83-.65.99-16.85 25.64 17.5 4.53 5.51 1.43-4.02-30.08-1.49-2.51z" class="aa"/><path d="m385.63 194.34-8.12 13.03-3.61-12.55 11.73-.48z" class="bb"/><path d="m382.58 166.26 8.51 26.94-15.05 3.14v-14.19l6.54-15.89z" class="ak"/><path d="m376.04 196.34-7.61-5.39 14.15-24.69-6.54 30.08z" class="aa"/><path d="m354.01 238.91 4.82 13.79 3.52-.78-5.3-23.7-3.04 10.69z" class="be"/><path d="m349.61 207.37 24.94 17.61-20.54 13.93-14.46-26.81 5.05-6.45 5.01 1.72z" class="ak"/><path d="m344.6 212.1 9.41 26.81-23.87-5.98 6.31-27.28 8.15 6.45z" class="aa"/><path d="m349.61 207.37-2.4 12.17-11.74-9.65 7.23-1.82 6.91-.7z" class="bb"/><path d="m331.42 180.37 22.59 22.84-9.41 8.89-9.37-11.43-3.81-20.3z" class="ak"/><path d="m331.42 180.37-2.59 27.92 15.77 3.81-13.18-31.73z" class="aa"/><path d="m306.57 240.46 1.95 10 3.67 4.19-1.95 4.58 5.64 28.95 45.28 6.45 13.39-28.44-7.46-17.05-60.52-8.68z" class="au"/><path d="m361.16 294.63 40.24-15.77 7.59-22.7-2.42-4.17 6.58-8.29 4.44-13.27-50.5 18.71-5.93 45.49z" style="stroke-width:0;fill:#576071"/><path d="m365.87 258.51 4.81 4.02-5.86 4.02-29.58-3.79-25-3.53-1.72-8.77 14.35 2.42 43 5.63z" class="be"/><path d="m321.19 257.44 14.05 5.32-7.5 10.29-14.24 2.93 1.26-14.58 6.43-3.96z" class="z"/><path d="m269.04 232.58 22.15 12.28 3.73 8.27-7.1 6.38-27.8-4.86 2.56-14.65 6.46-7.42z" class="be"/><path d="m260.36 189.12-12.85 42.46 12.51 23.07 9.02-22.07-8.68-43.46z" class="be"/><path d="m301.51 250.58 6.38-3.37 14.98 5.67-1.68 4.56-13.79-1.83-5.89-5.03z" class="z"/><path d="m301.51 250.58 19.68 6.86-7.69 18.54-14.86-14.58-2.43-6.75 5.3-4.07z" class="ae"/><path d="m301.51 250.58-2.87 10.82-10.82-1.89 3.37-14.65 10.32 5.72z" class="be"/><path d="m365.87 258.51 47.28-14.81-4.16 12.46-44.17 10.39 1.05-8.04z" class="ad"/><path d="M361.95 119.76 351.64 95.9l4.36 25.45 5.95-1.59z" class="ar"/><path d="m288.75 101.67 71.15-7.19-5.89-18.29-74.81 14.86 9.55 10.62z" style="fill:#b7a0c2;stroke-width:0"/><path d="m279.43 108.3 80.47-13.82-80.7-3.43.23 17.25z" class="s"/></g><g id="h"><path d="m194.66 167.8-13.69 7.45L192 193.78l6.4-17.24.61-7.66-4.35-1.08z" class="n"/><path d="m194.66 167.8-16.46-1.54-3.73 18.42 20.19-16.88z" class="ac"/><path d="m286.3 254.3 17.98 23.35-5.43 10.98-19.42 2.42-3.95-14.24-1.45-24.89 12.27 2.38zM198.4 266.55l-6.4 19.82 6.4 6.05 16.87 3.14 6.96-14.51-3.76-14.5H198.4z" class="s"/><path d="m269.04 232.58 17.26 21.72-9.38 3.55-6.35 1.57-1.53-26.84z" class="s"/><path d="M272.02 373.22v8.7l19.74 3.95 24.61-3.95-13.83-13.21-13.92-7.25-16.6 11.76z" class="aw"/><path d="M272.02 381.92h44.35v7.09h-44.35z" class="v"/><path d="m302.54 368.71-3.69 2.66-10.72-8.22 7.66-.89 6.75 6.45z" class="s"/><path d="m212.31 366.77-4.52 18.22 16.76 3.54 18.7-3.54-1.45-9.27-11.86-8.59-17.63-.36z" class="aw"/><path d="M207.79 384.99h35.46v7.09h-35.46z" class="v"/><path d="m224.26 367.74-1.61 9.91 6.03 1.21 1.54-9.51-5.96-1.61z" class="s"/><path d="m290.39 309.1.55 4.5 3.45 33.49-9.88 14.37-21.43-3.17-13.12-21.55 10.21-12.49 30.22-15.15z" class="bf"/><path d="m214.36 316.59-.38 7.66 5.26 11.44-6.26 8.7-.31 10.32 12.05 9.35 22.75-1.43 12.7-29.36-16.2-12.81-29.61-3.87z" class="ah"/><path d="m206.5 240.92-8.1 25.63 17.77 8.22 6.29-16.92-15.96-16.93z" class="s"/><path d="m222.46 233.43-3.34 6.36-4.64 12.25 15.84 20.31 41.7-12.09-7.25-18.49-7.64-5.91-4.88-4.24-29.79 1.81z" class="q"/><path d="m286.52 150.03 8.54 61.6-38.03 6.81-11.48 14.14-18.81-3.74-18.54-37.96 3.86-34.33 34.57-23.2 39.89 16.68z" class="bi"/><path d="m252.25 231.62-14.98-7.61-12.64-70.12-12.57 2.66-8.46 32.16 5.18 12.28 5.1 1.98-1.01 7.72 9.59 22.74 26.83 5.48 2.96-7.29z" class="r"/><path d="m257.63 218.33-27.31 4.83 21.93 8.46 5.38-13.29zM208.78 200.99l9.45-3.46-5.36 13.16-4.09-9.7zM206.5 190.04l5.24-2 2.62 5.74-7.86-3.74z" class="ax"/><path d="m279.57 166.26-22.44 18.42-16.42-12.65 4.35-5.2 9.91.48 6.77 3.39 3.15-5.08 6.28-3.26 8.4 3.9z" class="r"/><path d="m247.8 194.82 1.26 5.01 14.86.84 12.57-4.59-1.09-5.32-27.6 4.06z" class="ax"/><circle cx="249.29" cy="176.54" r="2.5" class="bh"/><circle cx="272.02" cy="172.75" r="2.5" class="bh"/><path d="m240.71 172.03 14.26-4.72-3.14-3.75-11.48 3.99.36 4.48zM264.89 165.62l1.33-4.35 11.84 1.09 1.51 3.9-14.68-.64z" class="au"/><path d="m269.04 193.7 15.63 8.22 1.91-3.24-10.82-6.16-3.74-1.76-2.98 2.94z" class="o"/><path d="m254.97 167.31 9.92-1.69 2.53 17.35-4.41 2.11-5.88-.4-2.16-17.37z" style="fill:#f7e6dc;stroke-width:0"/><path d="m257.13 184.68-10.86 5.48-2.9 6.04 20.55.85 17.41-6.65-4.36-5.08-9.55-2.35-4.41 2.11-5.88-.4z" class="au"/><path d="m257.13 184.68 5.56 4.3 4.73-6.01-10.29 1.71z" class="ap"/><path d="m225.96 161.27-7.73 10.76 7.73 17.98-7.73 3.77-4.72-10.81-9.91 5.74-1.13-10.35-4.07-1.82-3.74-8.74 15.77-23.82 15.53 17.29z" class="ar"/><path d="m218.23 172.03-14.63 16.68-5.2-12.17 19.83-4.51z" class="ap"/><path d="m286.52 150.03-91.86 17.77 1.37-5.44 7.57-8.07-4.59-3.72 7.49-8.8-3.81-5.81 2.18-8.61 42.79-11.6 23.02 11.82.53 5.78 6.37 4.01 8.94 12.67z" class="ac"/><path d="m196.03 162.36 81.55-25-6.9-9.79-71.67 23-2.98 11.79zM199.01 150.57l59.55-29.22-55.87 14.61-3.68 14.61z" class="n"/><path d="m206.5 240.92 9.67 33.85 10.57 9.35 50.18-26.27-7.88-25.27-16.79-.96 10.1 17.52-19.1 12.9-17.29-4.19-3.5-24.42-15.96 7.49z" class="au"/><path d="m216.17 274.77 9.79-16.92 36.39-8.71 14.57 8.71 11.78 37.71-58.38 16.52-15.47-6.84 1.32-30.47z" class="bf"/><path d="m235.03 268.81 25.11-5.1 4.75 20.41-26.31 5.8-3.55-21.11z" class="au"/><path d="m215.69 259.9 1.69-4.35 3.87 2.42-2.18 3.5-3.38-1.57zM265.37 247.33l1.57-3.63 3.63 2.78-1.82 3.15-3.38-2.3z" class="o"/><path d="m279.43 298.27 10.96 10.83-30.22 24.17-45.81-16.68 50.41-14.02 14.66-4.3z" style="fill:#2e3544;stroke-width:0"/><path d="m213.98 324.25 17.5 4.83-4.74 17.41-13.76-2.1.2-4.11 2.51-4.91-2.21-1.13.5-9.99z" class="m"/><path d="m231.48 329.08-18 5.16-.3 6.04 18.3-11.2z" class="az"/><path d="m247.47 362.63-34.8-7.92-.36 12.06 29.49 8.95 5.67-13.09zM263.08 358.29l31.31-11.2 1.4 15.17-23.77 10.96-8.94-14.93z" class="ap"/><path d="M215.27 295.56 192 286.37l-10.32 4.6-2.25 11.2 15.23 1.34 20.61-7.95zM304.28 277.65l-17.98 10.23 2.4 9.86 11.28 5.47 8.52-7.65-4.22-17.91z" class="r"/><path d="m286.3 287.88-6.59 2.04-2.79 9.09h7.06l2.32-11.13z" class="r"/><path d="m214.85 305.24 10.67-1.4 2.98 2.24 1.82-2.87 13.35-1.75 9.65.71 13-3.68 22.38-2.93 1.69 13.54-22.42 2.21-12.66.21-10.6 2.08-13.23 1.3-2.98-2.31-1.76 2.78-12.38 1.22.49-11.35z" class="be"/><path d="m225.52 303.84 1.22 11.53 4.74-.47-1.16-11.69-4.8.63z" class="ac"/><path d="m266.32 298.49-22.65 2.97 1.04 12.14 23.25-2.29-1.65-12.82Zm-18.52 11.9-.25-6.22 14.56-2 .97 6.93-15.28 1.29Z" class="ay"/><path d="m286.3 287.88-6.87 22.3 11.51 3.42 9.04-10.39-13.68-15.33z" class="bi"/><path d="m192 286.37 2.66 17.14-7.18 2.77-8.05-4.11 2.66-19.18 9.91 3.38z" class="ac"/><path d="m183.21 282.99 3.38-.48 2.99 7.41-7.49 3.52 1.12-10.45z" class="r"/><path d="m193.13 385.87-15.12-76.39 1.42-12.44-6.35-12.44-3.12-15.8 3.12-13.25 7.12 11 3.01 16.44-1.12 14.05 5.39 9.24 14.41 78.71-8.76.88z" class="ak"/><path d="m173.08 284.6-7.03 2.42 2.18 20.55 9.78 1.91v-12.44l-4.93-12.44z" class="r"/><path d="m173.08 284.6 10.13-1.61 4.27 23.29-9.47 3.2-4.93-24.88z" class="bi"/><path d="m169.96 268.8 10.24-2.25-3.4-18.53-5.83-7.1-4.35 11 3.34 16.88z" class="bl"/><path d="m148 254.86 46.66-8.86-7.18-47.62-5.39-1.33-2.66 2.55 6.28 38.67-12.3 2.65-6.79-39-6.05-4.39-2.9 5.68 8.38 38.92-11.76 1.57-8.34-37.47-6.41-4.31-2.42 6.37L148 254.86z" style="fill:#dddfe2;stroke-width:0"/><path d="m187.48 198.38-13.01-13.7 4.96 14.92 8.05-1.22zM166.62 201.92l-12.45-13.45 3.5 14.74 8.95-1.29zM145.95 206.23l-13.66-15.32 4.83 17.38 8.83-2.06z" class="ag"/></g><g id="i"><path d="m720.29 268.23 12.7 91.73 23.53 2.53-18.11-91.43-18.12-2.83z" style="fill:#88619a;stroke-width:0"/><path d="m768.45 376.26 8.27-1.67-19.28-112.68-13.47 1.98 2.56 51.22 7.49 39.66 14.43 21.49z" class="u"/><path d="m732.06 279.12 18.22 95.47 18.17 1.67-21.92-108.03-14.47 10.89z" class="bl"/><path d="m672.64 369.56 8.96-1.45 39.94-114.73-18.7 8.53-24.96 72.12-5.24 35.53z" class="u"/><path d="m687.06 274.94-31.19 93.86 16.77.76 30.2-92.67-15.78-1.95z" class="bl"/><path d="m723.68 332.2-7.63 11.08-11.04 1.84 7.59-14.84h5.05l6.03 1.92z" class="v"/><path d="m746.65 59.53-14.82 2.15-8.15 78.05-12.25 169.59 3.36 24.71 8.89-1.83 22.97-272.67z" class="az"/><path d="m735.94 63.38-5.56-2.99-12.91 1.29-18.63 270.52 6.17 12.92 9.78-11.09 21.15-270.65z" class="m"/><path d="m802.13 159.73 35.5-22.01-168.94-10.8-17.33 4.36 83.12 26.55 67.65 1.9z" style="fill:#f3eff5;stroke-width:0"/><path d="m837.63 137.72-17.59 147.11-10.63 3.77-10.03-100.03 18.66-42.95 19.59-7.9z" class="bl"/><path d="M822.05 144.62 690.4 135.5l-39.04-4.22-24.82 147.84 99.75 5.26 2.75 3.85 8.35-3.27 72.02 3.64 12.64-143.98z" style="fill:#dbcfe0;stroke-width:0"/><path d="m717.47 61.68 10.21-4.29 18.97 2.14-10.71 3.85-18.47-1.7z" class="s"/><path d="m737.39 284.96-2.55 8.73-17.08 2.77-2.57-6.23v-6.47l13.96-4.64-.36 5.39 8.6.45z" class="ac"/><path d="m749.82 179.72-3.78 3.43-1.68 7.77-20.68 48.67-8.89-4.87-10.53 1.91-7.58 5.14 2.36 6.9-13.65-1.56v-10.53l-7.51-11.6 21.16-3.85 30.34-17.95 5.41-26.45-31.95 16.01-28.22-25.43-35.25 19.97-3.2 45.11-9.63 46.73 48.86 2.57 6.2-1.8 15.03-.77 11.6-20.2 11.75-1.32-3.93-5.84 13.33-2.58.13-5.12 22.72-54.71 1.79-7.97-4.2-1.66z" class="p"/><path d="m717.76 296.46-43.14-3.83.78-10.94 26.8-.53 16.44 4.13-.88 11.17z" class="be"/><path d="m675.4 281.69 13.41-7.2 40.34 4.63-10.51 6.17-43.24-3.6z" class="ad"/><path d="m771.91 184.53-.74 7.83 2.01.38.8-8.21h-2.07z" class="be"/><path d="m764.19 185.51 9.43-7.6 7.42 9.37-16.85-1.77z" class="t"/><path d="m767.23 177.26 12.78 1.3-5.71-7.16-7.07 5.86zM770.44 171.06l8.04.69-3.37-7.8-4.67 7.11z" class="t"/><path d="m764.5 249.18-.92 10.25 2.3.46 1.32-10.71h-2.7z" class="be"/><path d="m756.4 250.65 18.97 1.77-9.1-10.62-9.87 8.85zM759.76 241.23l13.02 1.14-5.15-8.72-7.87 7.58z" class="t"/><path d="m762.99 233.27 8.42.69-3.07-8.19-5.35 7.5z" class="t"/><path d="m741.1 221.6-.63 8.26 2.39.29.75-9.48-2.51.93z" class="be"/><path d="m733.49 222.34 17.02 1.29-7.65-9.44-9.37 8.15z" class="t"/><path d="m736.99 213.58 11.74 1.23-5.12-7.61-6.62 6.38zM740.01 206.85l7.2.69-3.01-8.72-4.19 8.03z" class="t"/><path d="m720.79 244.51 25.7 1.61-.45 4.25-25.48-1.96.23-3.9zM720.56 254.04l15.84 1.03-.58 4.02-15.84-1.49.58-3.56zM719.53 263.22l18.01 1.72-.46 3.79-18.01-1.72.46-3.79z" class="bl"/><path d="m721.17 178.87-1.07 6.96 2.14.31 1.07-7.96-2.14.69z" class="be"/><path d="m720.9 163.82 5.05-5.74 2.64 6.88-7.69-1.14z" class="t"/><path d="m717.46 170.07 7.29-5.68 4.76 7.63-12.05-1.95zM723.61 171.07l-9.59 8.41 15.03 1.61-5.44-10.02z" class="t"/></g><g id="j"><path d="m568.73 232.27-7-8.96-10.61-.19-5.57 6.02 3.53 10.55 11.7 1.97 7.95-9.39z" class="ae"/><path d="m568.73 232.27-5.01-10.35-11.35-1.84-1.25 3.04 8.8 5.71 3.8 9.36 5.01-5.92zM551.12 223.12l-14.86-2.66-1 10.6 13.82 8.63 2.04-16.57z" class="z"/><path d="m582.66 217.83-5.54 22.76 1.75 11.17 14.61 5.47 8.3-21.88-4.63-23.02-14.49 5.5z" class="at"/><path d="m593.48 257.23-16.36-16.64h-8.2l-5.2 8.08 9.48 13.24 20.28-4.68z" class="n"/><path d="m577.12 240.59-8.39-8.32-16.53 14.15 11.52 2.25 13.4-8.08z" class="at"/><path d="m714.79 234.72-3.71 9.34-11.11 1.53 2.46-6.78 12.32-11.42.04 7.33z" class="z"/><path d="m714.79 234.72-3.36-3.25 4.25-4.08 3.27.86-4.16 6.47zM698.01 227.76l12.61 2.9-13.94 13.78-7.48 1.15-2.14-6.76 10.95-11.07z" class="ae"/><path d="m699.97 245.59 50.72-62.46-.87-3.41h-3.29l-49.85 62.05v2.67l3.29 1.15z" class="ab"/><path d="m750.69 183.13 3.33-1.75-6.04-5.17-1.45 3.51 4.16 3.41zM699.04 248.67l.93-3.08-3.29-3.82-5.73 2.4 8.09 4.5z" class="ah"/><path d="m685.39 236.58 8.08-9.93 14.76.74-.85 4.65-10.43 1.32-6 10.7-5.56-7.48z" class="z"/><path d="m668.13 221.92 7.27 23.72-3.28 10.71-12.08 1.53-13.17-17.29 6.07-26 15.19 7.33z" class="at"/><path d="m630.88 339.82 5.42 20.14 7.11 6.99 3.5-4.46 2.08-29.22-2.42-18.16-15.69 24.71z" class="ae"/><path d="m644.93 328.25-15.68 5.25 1.63 6.32 18.11-6.55-4.06-5.02z" class="w"/><path d="m597.04 302.81-.96 31.03 1.13 21.09 2.76 7.56 8.8-5.41 4.8-17.26-16.53-37.01z" class="ae"/><path d="m608.21 324.59-12.13 9.25 17.49 5.98 1.75-6.21-7.11-9.02z" class="w"/><path d="m664.82 322.1-38.29-2.36-46.1 2.98 11.25-38.36 23.58-27.13 37.57 34.69 3.1 2.94 8.89 27.24z" class="n"/><path d="m629.25 333.5 23.13-41.92-5.08-12.46-32.38-27.36-21.38 26.74 2.54 55.34 33.17-.34z" class="be"/><path d="m648.99 333.27 3.39-41.69-5.08-12.46-32.38-27.36-6.88 22.51 21.21 59.23 19.74-.23z" class="at"/><path d="m656.83 217.86-12.83-7-11.65 6.66-16.47 7.89-5.53 9.99 4.85 26.12 11.34 13.42 20.76 4.18-.28-17.21 9.81-44.05z" class="be"/><path d="m626.54 274.94 38.28 47.16 3.48-40.78-21.28-19.41-20.48 13.03zM593.82 263.1l-1.24 13.79 15.46-2.62 6.94-4.94.22-7.81.68-36.11-7.05-8.46-3.44-8.12-14.33 6.6 2.76 47.67z" class="ad"/><path d="m593.82 263.1-17.89 32.57 4.5 27.05 27.61-48.45-14.22-11.17z" class="ay"/><path d="m647.75 208.72 17.88 4.68 2.5 8.46v.06l-31.27-9.42 10.89-3.78z" class="ad"/><path d="m605.39 208.83-15.76 1.92-6.97 7.08 19.57-2.51 4.88-.73-1.72-5.76zM608.04 274.27l18.5.67-11.34-13.42-7.16 12.75zM619.55 240.48l-3.95-3.9-3.27 4.01 3.21 4 4.01-4.11zM619.26 254.92l-3.89-3.73-3.38 3.95 3.21 3.78 4.06-4z" class="ay"/><path d="m646.91 362.49 5.19 11.4-3.84 9.93-5.13-12.62 3.78-8.71z" class="at"/><path d="m636.3 359.96-3.95 7.78 5.19 6.49 10.49 2.03-1.12-13.77-10.61-2.53z" class="z"/><path d="m648.03 376.26-15.68-8.52-7.44 12.07 8.74 1.64 14.61-1.64-.23-3.55z" class="be"/><path d="m597.21 354.77-9.03 9.75 2.88 8.64 8.91-1.02 8.8-15.06-11.56-2.31z" class="z"/><path d="m599.97 372.14-11.79-7.62-11.28 10.84 11.22 1.69 7.27.82 4.58-5.73z" class="be"/><path d="M648.26 379.81v4.01h-23.35v-4.01h23.35zM609.9 199.24l-7.67 16.08 5.75 8.63 7.9 1.46-5.98-26.17z" class="at"/><path d="m734.79 176.73-29.78 31.99-12.92-20.14 3.56-8.01 39.14-3.84z" class="bf"/><path d="m600.87 152.47 77.01 64.48 27.13-8.23-30.29-91.05-73.85 34.8z" class="ah"/><path d="m600.87 152.47 8.75 29.17 68.26 35.31-24.32-44.84-52.69-19.64z" class="ap"/><path d="m591.34 92.48-19.97 29.02 16.42 40.96 16.19-69.16-12.64-.82z" class="bf"/><path d="m636.86 212.5 5.87-14.2 6.94-16.77 2.31-65.78-20.93 24.93-10.54 44.63-4.63 40.1 20.98-12.91z" class="ae"/><path d="m642.73 198.3 10.83-26.19-3.01-5.25-6.07 7.67 5.19 7-6.94 16.77z" class="w"/><path d="m594.67 101.31-12.02 89.24 26.22 4.68 21.9 7.62 22.12-86.82-58.22-14.72z" class="z"/><path d="m612.72 182.37 7.79-2.82-8.24-2.48-6.09 1.24-6.66-.9-2.37.34 10.94 4.96 4.63-.34z" style="fill:#fff;stroke-width:0"/><path d="m608.87 195.23 7.01 30.18 10.66-6.68 9.63-18.29-27.3-5.21z" class="w"/><path d="m657.91 125.57-13.6 24.2 3.84 3.38 5.41 18.96 28.04-33.91-23.69-12.63z" class="bf"/><path d="m648.15 153.15 11.62 3.44-6.21 15.52-10.26-4.23 4.85-14.73z" class="z"/><path d="m650.23 157.38 5.64 1.64-6.76 4.17 1.12-5.81z" class="w"/><path d="m647.36 165.79-2.88 8.74 4.63 1.41 2.25-8.86-4-1.29z" class="at"/><path d="m634.48 143.19-2.9-1.62-12.32-.42-4.28-.58-3.9 9.2.34 15.28 23.06-21.86zM605.32 161.71l-13.25-26.21 2.49-1.96 13.87 6.19-3.11 21.98z" class="ae"/><path d="m633.54 137.47-14.28 3.68 18.71 2.49-4.43-6.17z" class="bf"/><path d="m597.15 177.75 11-3.61 12.36 5.41-23.36-1.8z" class="at"/><path d="m608.77 185.31-11.62-7.56 10.89 2.93 12.47-1.13-11.74 5.76z" class="ad"/><path d="m592.07 135.5 16.36 4.23-13.03-9.88-3.33 5.65z" class="bf"/><path d="m583.33 100.24 60.98 49.53 46.09-14.27-15.68-17.83-76.67-40.79-14.72 23.36z" class="ah"/><path d="m690.4 135.5-11.68-21.16-80.67-37.46 92.35 58.62z" class="bf"/><path d="m570.69 100.46 73.62 49.31-46.26-72.89-27.36 23.58z" class="bd"/><path d="m647.75 208.72-4.79-10.33-27.08 27.02 20.25-.05 11.62-16.64z" class="at"/><path d="M598.17 140.48c2.03 0 3.61 1.58 3.61 3.61s-1.58 3.61-3.61 3.61-3.61-1.64-3.61-3.61 1.64-3.61 3.61-3.61ZM625.41 145.17c1.97 0 3.67 1.58 3.67 3.61s-1.69 3.61-3.67 3.61-3.61-1.64-3.61-3.61 1.58-3.61 3.61-3.61Z" class="bh"/><path d="m660.04 257.88 15.03-12.63 11.89-2.39 2.24 8.9-11.44 12.13-17.72-6.01z" class="n"/><path d="m608.43 139.73-5.64 24.03 8.63 1.29 3.56-24.48-6.55-.84z" class="av"/><path d="m607.59 169-4.8-5.24 8.63 1.29-3.83 3.95z" class="w"/><path d="m605.33 379.47 3.33-.05 2.2-13.32-2.09-9.02-6.2 10.6 2.76 11.79z" class="at"/><path d="m602.57 367.68 1.74 1.64-.73 1.69-8.29 8.63H576.9v-4.28h15.29l10.38-7.68zM685.39 236.58l13.65 12.09-9.84 3.09-14.13-6.51 10.32-8.67z" class="at"/><path d="m710.62 224.41 7.44-1.1.89 4.94-7.52 3.22-.81-7.06z" class="z"/></g><g id="k"><path d="m254.01 379.72-6.8 17.86 26.03-7.49-19.23-10.37z" class="ad"/><path d="m294.51 400.25 20.05-3.87-6.06-20.2-10.11 2.68-3.88 21.39z" class="be"/><path d="m297.22 370.11-12.9 17.05 1.98 8.59 8.21 4.5 8.21-18.33 1.56-5.74-7.06-6.07z" class="ad"/><path d="m354.7 373.66-16.53 15.35 8.26 5.69 53.83 2.91 4.01-7.27v-9.87l-28.3-22.88-21.27 16.07z" class="bc"/><path d="m374.55 312.08-.76-13.81 13.8-11.75 1.78 14.22-3.11 6.43-11.71 4.91z" class="ac"/><path d="m374.55 312.08-.76 17 27.61 12.99 10.69-9.42-3.15-20.57h-34.39z" class="ab"/><path d="m453.59 307.91-1.58-3.54-8.42-3.63-8.79 2.47v6.87l8.79 3.52 10-5.69zM415.6 312.08l19.2-8.87-18.16-5.75-27.27 2.22 26.23 12.4z" class="af"/><path d="m389.37 299.68-14.82 12.4 17.64 6.85 23.41-6.85-26.23-12.4z" class="ag"/><path d="m434.8 303.21 10.15 8.46 8.64-3.76 5.85 1.19 2.11 9.19-10.9 6.47-4.26 1.47 1.72 1.19-20.83 21.83-22.09-1.16-3.79-6.02 7.82-16.52.26-8.28 6.12-5.19 19.2-8.87z" class="aj"/><path d="m443.59 300.74 18.98 3.3-3.59 6.12-5.39-2.25-10-7.17z" class="ad"/><path d="m462.57 304.04-8.98 3.87 7.96 10.38 1.02-14.25z" class="be"/><path d="m392.19 318.93-2.82-19.25 14.9-11.02 7.82 21.5-2.87 15.39-17.03-6.62z" class="ac"/><path d="m404.27 288.66 4.95 36.89 6.38-13.47-11.33-23.42z" class="be"/><path d="m450.65 324.76-13.1-.66-1.97-2.57-4.23 9.72 5.09-3.14 11.67-.69 2.54-2.66z" class="ad"/><path d="m369.19 335.28-11.05 12.81-3.9 16.62 21.73 4.59 35.04-17.99-9.61-9.24-32.21-6.79z" class="ag"/><path d="m420.56 348.9 4 10.33-6.06 12.14-14.23 9.1-28.3-11.17 29.22-21.21 15.37.81z" class="aj"/><path d="m373.79 329.08 53.49 20.17-2.72 9.98-55.37-23.95 4.6-6.2z" class="s"/><path d="m358.14 348.09-43.97-3.14 5.18 13.48 5.1 7.93 30.25 7.3 21.27-4.36-17.83-21.21z" class="aj"/><path d="m412.09 400.21-11.83-2.6 4.01-17.14 7.82 9.87v9.87z" class="o"/><path d="m428.95 398.98 16.55-1.06 6.76-4.28-10.35-6.58-22.03-2.04 9.07 13.96z" class="aj"/><path d="m441.91 387.06 3.59 10.86 12.25-.79-6.88-9.24-8.96-.83z" class="am"/><path d="m424.56 359.23 4.39 39.75-16.86 1.23-7.82-19.74 20.29-21.24zM314.17 344.95l-16.95 25.16 5.5 11.81 16.25-8.26 7.42-12.36-12.22-16.35z" class="ag"/><path d="m302.72 381.92 23.67-20.62 28.31 12.36-16.53 15.35-23.61 7.37-11.84-14.46z" class="o"/><path d="m354.7 373.66 3.68 21.68-11.95-.64-3.52-4.36 11.79-16.68z" class="y"/><path d="m354.7 373.66-7.4 18.83-4.39 6.49-28.35-2.6 40.14-22.72z" class="bc"/><path d="m314.56 396.38 1.81 8.57 50.41 3.06 7.01-5.2.07-7.06-26.56-3.26-32.74 3.89z" class="ag"/><path d="m373.86 395.75 6.2.76 3.44 11.5h-16.72l7.08-12.26z" class="am"/><path d="m294.51 400.25-27.29-35.04-13.21 14.51 18.01 19.26 22.49 1.27z" class="be"/></g></svg>