<svg xmlns="http://www.w3.org/2000/svg" id="a" viewBox="0 0 900 350"><defs><style>.n{fill:#b18d79}.aa,.ab,.ac,.ad,.ae,.af,.ah,.ai,.aj,.al,.an,.ao,.ap,.aq,.ar,.as,.at,.av,.aw,.ax,.ay,.az,.ba,.bc,.bd,.be,.bg,.bh,.bi,.bj,.bk,.bl,.bm,.bn,.bo,.bp,.bq,.br,.n,.o,.q,.r,.s,.t,.u,.w,.x,.y,.z{stroke-width:0}.o{fill:#576071}.q{fill:#1c5a3f}.r{fill:#5a753d}.s{fill:#89909b}.t{opacity:.1}.bi,.t{fill:#1d2432}.u{fill:#e6e97c}.w{fill:#709d52}.x{fill:#916a59}.y{fill:#8b6651}.z{fill:#68707f}.aa{fill:#dfbda5}.ab{fill:#216a4b}.ac{fill:#9a9fa9}.ad{fill:#309b6e}.ae{fill:#84c8ab}.af{fill:#c3987b}.ah{fill:#abafb8}.ai{fill:#454d5d}.aj{fill:#267a56}.al{fill:#cccfd4}.an{fill:#51596a}.ao{fill:#66483a}.ap{fill:#5bb68f}.aq{fill:#bbbfc6}.ar{fill:#2e3544}.as{fill:#70bf9d}.at{fill:#343c4b}.av{fill:#404857}.aw{fill:#a0cf7e}.ax{fill:#28835c}.ay{fill:#1e6245}.az{fill:#4b5464}.ba{fill:#e8cab6}.bc{fill:#648e43}.bd{fill:#b8c744}.be{fill:#237250}.bg{fill:#47ad82}.bh{fill:#d9e256}.bi{opacity:.15}.bj{fill:#787f8d}.bk{fill:#8e7e73}.bl{fill:#86b264}.bm{fill:#3d4554}.bn{fill:#2d9368}.bo{fill:#232a38}.bp{fill:#74665b}.bq{fill:#3da87b}.br{fill:#2b8b62}</style></defs><g id="b"><path d="m177.41 227.38-78.56-12.62 4.22-6.83 4.77 5.69 69.57 10.7 104.81-19.68-63.19-8.79 2.45-3.13 4.21 2.62 74.68 9.38-122.96 22.66z" class="as"/><path d="m219.03 195.85-111.19 17.77 4.36 1.83 117.45-18.64-10.62-.96zM47.26 260.76l330.51-54.94 335.61 29.96-16.44 2.09-321.93-27.27-291.9 48.81 205.33 30.53-54.71-1.37-186.47-27.81z" class="as"/></g><g id="c"><path d="m180.75 194.34 38.28 1.51-6.15-5.25-30.36-8.19L65.55 202.3l42.29 11.32 8-10 64.91-9.28zM111.71 179.17l33.56-8.05 33.52 2.51-37.36 9.89-29.72-4.35zM246.4 169.53l-21.16-3.8-19.19 2.32 18.03 6.95 22.32-5.47zM415.98 204.47l48.15-7.49 54.5 8.52-59.11 5.43-43.54-6.46zM553.82 189.41l44.16 11.02-46.77 4.29-39.27-7.74 41.88-7.57zM774.65 193.9l-38.5-6.72-45.92 7.05 42.96 4.47 41.46-4.8zM127.47 305.7l4.94-4.55 36.34-13.77 106.01 6.71 12.81 9.09-17.99 6.57-41.64 3.16-3.59-3.16-4.81 2.4-92.07-6.45zM349.09 307.95l-36.24 5.96 9.73 8.4 90.36-7.59 3.69-3.07-31.72-8.08-35.82 4.38zM408.7 337.02l7.93-1.65 33.35-5.36 18.71 3.83-28.17 8.1h-23.11l-8.71-4.92zM661.73 276.76l-174.14-15.69-19.32 11.38-36.94 7.5 3.99 3.56 125.36 12.18-11.63 4.17-39.28-6.42h-12.91l-12.91 4.82 32.31 6.72 9.28-2.41 9.28 2.41 9.29-1.56 10.72 1.56 32.87 5.83 11.25-3.8 7.93 3.8 19.82-3.93-20.87-4.31-6.91-3.95 4.71-3.18 3.33 4.49 27.54-.37 35.59-5.81 21.34-8.78-29.7-8.21zM635.13 310.2l5.47-4.13 17.21-2.91 23.89 5.23 17.85-2.06 13.83.26 22.77 5.58-20.13 4.83-9.91-2.42-9.92 2.42-46.78-4.83-14.28-1.97zM751.31 299.93l-3.43-3.96 44.98-14.89 86.55 4.66-28.02 15.65-48.79 3.26-2.73-4.72-4.7 3.89-43.86-3.89z" class="t"/></g><g id="d"><path d="m739.93 177.07 23.75-34.67-3.83-3.25L737.32 175l2.61 2.07zM737.32 167.49l16.28-27.45-4.98-.89-12.47 25.02 1.17 3.32zM736.15 187.18l-1.77 4.31h-5.69l4.5-24.84 2.96 20.53z" class="ap"/><path d="m731.62 191.49 3.08-20.17 1.45 6.76-4.53 13.41z" class="bg"/><path d="m736.15 187.18 1.64-4.39-.12-2.3.91.19 1.35-3.61-4.22-23.69-6.22-34.4-8.2 7.15 14.86 61.05z" class="ae"/><path d="m738.58 180.68-12.94-58.35-1.48 1.29 13.63 59.17.79-2.11z" class="bg"/><path d="m661.73 79.79 24.7-3.66 6.77-8.22 9.52-8.61 3.17-14.36 15.01 7.66h23.38l-1.29 15.31 10.22 8.22 6.19 7 21.64.92 15.83 38.5-33.19 19.85-17.59-7.53-38.16 12.99-44.75-16.91-17.48-22.2 16.03-12.35V79.79z" class="br"/><path d="m781.04 84.05-29.1 22.55-40.8-16.47-14.99 10.62-14.98-6.81-35.47 14.81 17.48 22.2 44.75 16.91 38.16-19.48 17.59 14.02 33.19-19.85-15.83-38.5zM753.21 76.13l-26.56-2.6 17.63-20.93 8.93 23.53zM705.89 44.94l7.49 24.79-20.18-1.82 12.69-22.97zM711.14 90.13l15.51-16.6-13.27-3.8-2.24 20.4z" class="aj"/><path d="M711.14 90.13 693.2 67.91l-31.47 11.88 49.41 10.34zM744.28 52.6l-30.9 17.13-7.49-24.79 38.39 7.66zM711.14 90.13l42.07-14 27.83 7.92-69.9 6.08z" class="bn"/><path d="m681.17 93.94 26.76 53.92 3.21-57.73-29.97 3.81zM751.94 106.6l-44.01 41.26 55.75-5.46-11.74-35.8z" class="ab"/><path d="m681.17 93.94-19.44-14.15-16.03 28.96 35.47-14.81z" class="bn"/><path d="m553.82 180.26 19.39-57.71-5.81.64-13.58 48.45v8.62z" class="ap"/><path d="m525.74 12.79-1.77 19.64-19.49 7.53-11.18 28.47 11.18 24.43 28.81 24.76 21.54 1.36 40.47-9.56 39.7-34.2-25.67-35.26-41.93-2.17-8.23-11.24 1.4-18.38-34.83 4.62z" class="br"/><path d="m560.57 8.17-13.91 36.77 25.01-6.93v-5.58l-11.1-24.26zM635 75.22l-42.18 9.12-14.83-.29-10.59-23-56.54 8.68-6.38 23.13 30.73 35.2 15.66 7.39 53.38-15.19L635 75.22z" class="aj"/><path d="m546.66 44.94-36.89 16.11 3.95 19.3 53.68-19.3-3.25-8.45-17.49-7.66zM609.33 39.96l-62.67 4.98 25.01-12.51 37.66 7.53z" class="bn"/><path d="M609.33 39.96 567.4 61.05l-20.74-16.11 62.67-4.98z" class="aj"/><path d="m525.74 12.79 20.92 32.15-42.18-4.98 21.26-27.17z" class="bn"/><path d="m567.4 61.05 25.42 23.29-11.69 42.49-13.73-65.78z" class="ab"/><path d="m557.75 200.43-6.88-64.98-10.51-3.63 8.3 67.71 3.73.37.65-1.52.78 1.66 3.93.39z" class="ae"/><path d="m553.82 200.04-7.31-69.73-1.56 3.09 7.44 66.5 1.43.14z" class="bg"/><path d="m472.49 153.2-3.8-15.71 1.46-1.36 4.89 14.48-2.55 2.59z" class="ae"/><path d="m465.3 163.37 22.67-23.91-4.04-3.33-3.41 5.12-16.39 17.05 1.17 5.07zM438.66 164.66l-4.02-8.28 2.9-.61 7.34 13.19-6.22-4.3z" class="ap"/><path d="m457.02 170.26-18.36-5.6 1.91 4.3 18.51 7.35-2.06-6.05z" class="ae"/><path d="M456.09 207.13h-3.83l5.82-45.1 7.22 16.37-9.21 28.73z" class="ap"/><path d="m456.09 207.13 5.16-26.87.77 18.51.06 8.36h-5.99z" class="bg"/><path d="m453.35 143.51 8.73 63.62 3.45-15.7-.32-4.6 1.21.55 2.27-10.31-5.52-42.58-9.82 9.02z" class="ae"/><path d="m465.53 191.43-9.44-56.11 3.92 1.05 6.41 51.01-.89 4.05z" class="bg"/><path d="m382.56 69.73 21.68 1.58 15.43-18.71 27.42-14.81 57.39 2.17-7.86 13.91 13.15 7.18 47.98 18.74-32.28 35.61-45.93 14.91-29.65-2.4-34.72-8.93-32.61-49.25z" class="br"/><path d="m419.67 52.6-16.5 44.42-20.61-27.29 37.11-17.13z" class="bn"/><path d="m382.56 69.73 47.9 39.69 27.62-9.76 16.07 11.59 26.84-7.06 36.48-4.48-2.26 28.35-54.69 13.19-27.17 2.26-28.99-19.8-24.05.12-17.75-54.1zM504.48 39.96l-38.31 29.77 17.76 2.63 25.84-11.31-5.29-21.09z" class="aj"/><path d="m419.67 52.6 46.5 17.13-8.09 29.93-38.41-47.06z" class="aj"/><path d="m430.46 109.42-30.15 14.41 53.04 19.68-22.89-34.09zM458.08 99.66l22.44 41.59 20.47-37.06-42.91-4.53zM535.21 128.06l-34.22-23.87 56.76-24.4-22.54 48.27z" class="ab"/><path d="m509.77 61.05-51.69 38.61 8.09-29.93 43.6-8.68zM504.48 39.96 419.67 52.6l27.41-30.14 57.4 17.5z" class="bn"/><path d="m422.86 154 3.97-6.68 16.09-3.81 9.34 9.49-14.7 4.72-14.7-3.72z" class="br"/><path d="m422.86 154 29.4-1-15.43 7.89-13.97-6.89z" class="aj"/><path d="m142.74 165.96-1.31 13.4 6.75-.04-1-21.15-4.44 7.79z" class="be"/><path d="m86.78 152.25 17.77 4.35 4.02-2.43 2.38 4 7.92 1.94 3.61-1.26 2.37 2.72 17.89 4.39 13.15-61.66-19.59-7.41-49.52 55.36z" class="br"/><path d="m142.74 165.96 21.44-5.17 2.22-5.58 5.79 3.64 15.96-3.85-26.75-56.18-11.65 6.43-7.01 60.71z" class="aj"/><path d="m132.53 101.1 15.64 17.84 14.99-16.41-30.63-1.43z" class="bi"/><path d="m116.84 94.94 9.87 3.88 3.68-3.29 2.14 5.57 16.86 6.62.76-42.61-8.25-.54-25.06 30.37z" class="br"/><path d="m149.39 107.72 13.77-5.19 1.03-4.74 3.82 2.91 10.78-4.06-26.08-32.07-5.53 3.58 2.21 39.57z" class="aj"/><path d="m140.38 66.42 7.32 11.02 6.41-11.14-8.94-1.73-4.79 1.85z" class="bi"/><path d="m133.11 64.57 14.07 3.58 5.27-13-3.27-24.19-16.07 33.61z" class="br"/><path d="m147.18 68.15 13.39-3.58-11.39-33.61-2 37.19zM126.71 98.82l10.44-17.5-4.62 19.78-5.82-2.28zM124.85 161.57l7.08-32.89-13.06 31.43 5.98 1.46zM110.95 158.17l7.92-20.04-14.32 18.47 6.4 1.57z" class="aj"/><path d="m172.19 158.85-12.39-30.17 4.38 32.11 8.01-1.94zM163.16 102.53l-5.48-13.68 10.33 11.85-4.85 1.83zM226.04 157.5l1 13.01h-3.59l-.2-9.72 1.68-7.59 1.11 4.3z" class="be"/><path d="m202.51 156.43 18.74-29.94 6.39-.58 3.25 14.97-7.64 19.91-6.5-1.37-1.81-3.69-4.46 2.38-7.97-1.68z" class="br"/><path d="m227.04 129.18 4.96-3.74 19.37 30.73-8.92 1.46-2.75-1.25-.51 1.79-3.2.53-2.15-2.03-2.12 2.73-8.47 1.39 3.79-31.61z" class="aj"/><path d="M231.72 159.4v-19.39l4.27 18.69-4.27.7zM239.19 158.17l-3.2-13.99 6.46 13.45-3.26.54z" class="be"/><path d="m216.75 159.42 3.37-19.06-9.64 17.75 6.27 1.31z" class="aj"/><path d="m233.68 128.12-7.26 6.25-6.54-5.69 8.16-3.58 5.64 3.02z" class="bi"/><path d="m227.04 129.18-7.15-.57-.72-1.71-1.82 1.5-6.17-.5 15.27-21.61 1.59 2.66 3.68 9.83-4.68 10.4z" class="br"/><path d="m227.04 129.18 6.64-1.06.48-2.68 2.54 2.2 4.58-.74-11.17-20.46-2.07 2.51-1 20.23z" class="aj"/><path d="m233.68 128.12-2.7-11.42 5.72 10.94-3.02.48z" class="be"/><path d="m219.88 128.68 1.2-7.17-3.73 6.89 2.53.28z" class="aj"/><path d="m231.11 108.27-3.31 5.42-2.56-5.68 3.42-1.1 2.45 1.36z" class="bi"/><path d="m228.04 108.95-2.8-.94-.5-2.55-1.49 1.88-3.13-1.05 6.92-23.69 1 26.35z" class="br"/><path d="m228.04 108.95 3.07-.68.61-1.42.84 1.11 2.35-.52-7.87-24.84 1 26.35z" class="aj"/><path d="m231.11 108.27-1.24-8.18 2.69 7.87-1.45.31z" class="be"/><path d="m225.24 108.01.99-9.71-2.98 9.04 1.99.67z" class="aj"/></g><g id="e"><path d="M200.02 103.48 81.58 122.74l-2.92 1.98 124.48-20.92-3.12-.32z" class="ap"/><path d="m196.17 98.28-20.82 15.92-1.35.52 20.92-16.86 1.25.42zM178.89 101.4l-16.44 14.99-1.88.31 16.45-15.51 1.87.21zM166.19 103.59l-18.63 15.82-1.77.1 20.61-17.69-.21 1.77zM151.52 104.94l-14.78 16.03-1.46.21 14.47-15.93 1.77-.31zM138.3 106.92l-14.15 16.13-1.67.21 14.47-16.45 1.35.11zM126.54 109.62l-14.16 14.78-.83-.52 13.32-14.57 1.67.31zM183.78 173.32 65.76 192.68l2.08-2.08 116.77-19.36-.83 2.08zM183.57 164.58 65.34 184.77l1.67-1.46 117.6-20.81-1.04 2.08zM184.61 155.42 63.88 177.07l3.13-2.08 120.31-21.65-2.71 2.08zM65.55 167.28l120.73-21.85 1.25-1.25-120.11 21.44-1.87 1.66zM186.49 138.03 67.63 157.5l-1.66-1.25 121.97-19.84-1.45 1.62zM187.53 127.32 68.88 148.34l-1.67-.78 121.15-21.65-.83 1.41z" class="ap"/><path d="m178.79 117.12-4.17 64.94-1.25 1.46 3.54-65.99 1.88-.41zM170.04 118.99l-3.12 64.53-1.46 1.87 3.75-68.48.83 2.08zM161.72 120.66l-2.92 64.52-1.66 1.05 3.12-67.45 1.46 1.88zM153.18 122.53l-3.12 63.28-1.25 1.87 3.54-67.02.83 1.87zM145.27 123.15l-3.33 64.74-1.04 1.67 3.54-68.7.83 2.29zM137.15 123.78l-3.12 66.19-1.45.83 2.91-67.65 1.66.63zM127.79 126.49l-2.92 64.73-1.45 1.67 3.33-68.07 1.04 1.67zM118.84 127.73l-2.71 65.16-1.46 1.04 2.92-68.49 1.25 2.29z" class="ap"/><path d="m207.72 100.47 3.95 90.13-1.45-.84-4.17-90.33 1.67 1.04zM201.89 105.46l1.67 82.22-1.46 1.46-1.67-81.6 1.46-2.08zM197.1 109.83l-1.66 76.19h-1.88l2.29-74.52 1.25-1.67z" class="ae"/><path d="m191.55 116.92 25.95.61-.62 1.67-27.06-.83 1.73-1.45zM188.36 124.82l29.97 2.91-1.66 1.25-27.06-2.29-1.25-1.87zM187.94 133.15l30.19 3.12-1.04 1.87-27.27-2.91-1.88-2.08zM217.71 146.68l-28.72-3.75-1.46 1.25 30.8 4.16-.62-1.66zM218.33 157.92l-31.01-4.58.83 1.66 31.02 5-.84-2.08zM186.7 163.54l31.43 4.78.83 1.67-31.85-4.79-.41-1.66zM185.86 172.7l33.93 6.45 1.46 1.66-33.93-6.24-1.46-1.87zM216.67 109.42l-16.24-1.88 1.46-2.08 16.03 2.08-1.25 1.88z" class="ae"/><path d="m66.66 204.96 114.09-19.56 3.59-6.04L63.05 200.2l3.61 4.76z" class="al"/><path d="m191.55 116.92-3.88 69.88-6.92-1.4 4.86-69.11 5.94.63z" class="ah"/><path d="M187.67 110.47 73.04 129.18l-3.33 8.41 121.84-20.67v-3.8l-3.88-2.65z" class="al"/><path d="m212.88 97.55-21.33 19.37-3.88-6.45 21.11-14.94 4.1 2.02zM219.03 195.85l-38.28-10.45 7.16-2.99 34.38 8.04-3.26 5.4z" class="ac"/><path d="m212.88 97.55 6.15 98.3 6.66-.51-5.57-104.9-7.24 2.39v4.72z" class="ah"/><path d="m99.06 114.62-6.03 94.29-1.88 1.46 5.62-95.54 2.29-.21zM89.9 119.41l-6.66 87.42-1.66 1.46 6.66-89.09 1.66.21zM81.58 122.74l-7.29 83.47-1.87.83 7.49-84.09 1.67-.21z" class="ae"/><path d="m69.71 137.59 36.43 3.67-.42 1.67-35.59-3.12-.42-2.22zM73.04 129.18l33.31 1.26-1.46 1.67-33.51-1.05 1.66-1.88zM68.88 148.34l35.8 3.12-.62 1.88-34.76-2.71-.42-2.29zM67.63 157.5l36.64 4.58-1.25 1.46L68.46 160l-.83-2.5zM65.55 167.28l38.72 5-2.09 1.46-34.97-4.79-1.66-1.67zM65.55 176.44l37.26 4.79-.83 1.66-35.18-4.16-1.25-2.29zM63.68 188.1l39.55 4.79-1.88 1.45-35.59-3.95-2.08-2.29z" class="ae"/><path d="m66.66 124.41-9.99 82.63 9.99-2.08 6.38-75.78v-4.77h-6.38z" class="ah"/><path d="m104.96 104.66-38.3 19.75 6.38 4.77 35.53-16.06-3.61-8.46zM56.67 207.04l42.18 7.72 4.22-6.83-35.95-8.43-10.45 7.54z" class="ac"/><path d="m104.96 104.66-6.11 110.1 8.99-1.14 3.8-100.5 3.03-6.34-9.71-2.12z" class="ah"/><path d="m104.96 104.66 115.16-14.22-7.24 7.11-101.24 15.57-6.68-8.46z" class="al"/></g><g id="f"><path d="m647.22 287.25-6.5-1.58-2.34-24.61 13.26-2.06v13.75l-4.42 14.5z" class="bk"/><path d="m656.81 258.25-2.87 27.42-3.92.92-2.67-26.92 4.29-.67 5.17-.75zM606.96 299.93l5.76-2.25 4.46-27.95-7.22 6.13-7.26 9.64 4.26 14.43z" class="bp"/><path d="m609.96 275.86-3 24.07-9.07-.62-2.44-28.62 14.51 5.17z" class="bk"/><path d="m476.24 273.56 5.45-1.69 3.12-19.94-10.34 4.77-.89 11.39 2.66 5.47z" class="bp"/><path d="m466.17 250.91 2.1 21.54 7.97 1.11 2.44-23.73-12.51 1.08z" class="bk"/><path d="m435.32 283.51 6.15-2.08 4.06-26.39-11.08.08-2.52 11.57 3.39 16.82z" class="bp"/><path d="m424.49 255.95 4.09 26.66 6.74.9 1.17-27.56h-12z" class="bk"/><path d="m412.63 247.85 2.13 11.55 195.2 16.46 6.22-15.34-159.58-15.41-43.97 2.74z" class="bl"/><path d="m609.96 275.86 14.96-5.13 1.08-3.16 1.81 2.16 15.49-5.31 1.37-3.12 3.03 1.6 18.07-6.2 2.33-13.22-61.14 21.8 3 10.58z" class="w"/><path d="m412.63 247.85 17.23-5.4 6.41-.94-.95-.77 14.68-4.59 4.94-.3-.11-1.21 13.86-4.34 199.41 13.18-61.14 21.8-194.33-17.43z" class="aw"/><path d="m435.32 240.74 190.75 17.72-1.03 3.82-3.05-2.36-192.13-17.47 5.46-1.71zM450 236.15 641.39 253l2.93 2.12 2.57-4.08-192.06-16.4-4.83 1.51z" class="bl"/><path d="m621.99 259.92 2.91 10.77 2.91-.96-1.74-11.27-4.08 1.46zM641.39 253l1.91 11.42 4.4-1.52-.81-11.86-5.5 1.96z" class="bc"/></g><g id="g"><path d="m787.25 275.48 2.01 10.48 8.28.91 1.19-16.27-7.58-1.71-3.9 6.59z" class="o"/><path d="m751.31 299.93 6.29-1.39 6.93-33.69-11.16 7.5-4.09 8.45 2.03 19.13zM802.6 304.65l6.77-2.24 7.74-37.25-10.72 12.09-4.76 7.65.97 19.75z" class="an"/><path d="m741.15 266.6 1.59 32.83 8.57.5 2.06-27.58-.38-5.78-11.84.03zM794.45 274.14l.72 29.68 7.43.83 3.79-27.4-4.91-5.91-7.03 2.8zM842.49 289.68l-5.86-1.06-6.13-29.56 15-3.71v17l-3.01 17.33z" class="z"/><path d="m852.27 253.07-3.55 34.92-6.23 1.69-1.99-36.61h11.77z" class="an"/><path d="m733.29 253.07 1.13 17.53 14.86 1.37 2.55-2.82 1.54 3.2 16.21 1.5 2.84-2.51.32 2.8 14.51 1.34 2.8-3.13.97 3.48 15.37 1.42 15.63-20.56-88.73-3.62z" class="bl"/><path d="m859.85 235.25-1.69 20.1-51.77 21.9 1.21-12.4 8.71-16.03 43.54-13.57z" class="w"/><path d="m733.29 253.07 59.31-22.91 11.73.89.36.88 2.8-.65 12.46.95.59 1.15 3.49-.84 11.13.84.62 1.01 2.9-.74 21.17 1.6-52.25 29.6-74.31-11.78z" class="aw"/><path d="m838.68 233.65-45.82 28.87-2.32 2.33-1.28-2.9 45.9-28.57 3.52.27zM824.03 232.54l-48.78 27.18-2.49 2.65-1.71-3.31 48.9-26.83 4.08.31zM807.49 231.28l-50.8 25.5-2.68 2.08-.64-2.61 50.96-25.2 3.16.23z" class="bl"/><path d="m792.86 262.52-1.84 13.31-3.77-.35 2.01-13.53 3.6.57zM775.25 259.72l-2.51 14.42-3.16-.29 1.47-14.79 4.2.66zM756.69 256.78l-3.32 15.57-4.09-.38 4.09-15.72 3.32.53z" class="w"/></g><g id="h"><path d="m510.51 273.56-.25 3.56-4.33 2.14-6.44-4.86-3.58-12.12 17.14 3.92-2.54 7.36zM533.29 270.69l-.89 9.13-3.75 2.79-6.98-3.84-3.18-13.68 14.8 5.6z" class="n"/><path d="m500.61 245.81-4.67-13.71 14.57-1.8 24.7 6.38-6.17 11.91-17.36 6.53-11.07-9.31z" class="q"/><path d="m495.94 232.1-5.52 25.65 23.43 10.85 2.2-12.26-4.37-1.22-15.74-23.02z" class="ab"/><path d="m488.65 265.63 22.21 2.46 3.34-3.71-23.78-6.63-1.77 7.88z" class="bg"/><path d="m491.7 198.77-6.89 9.83 11.54 4.46 4.64-5.1-.38-7.41-8.91-1.78z" class="x"/><path d="m500.61 185.23-8.91 13.54 10.15 6.12 2.3-8.93-3.54-10.73z" class="bl"/><path d="m512.51 183.19-7.02 10.83 9.77 3.92 13.78-1.92 1.53-12.45-18.06-.38z" class="n"/><path d="m475.17 121.53 8.04 25.18 2.56-23.9-6.77-5.87-3.83 4.59z" class="at"/><path d="m481.04 121.28-1.27 48.76 27.32 3.58 9.6 10.62 10.82-7.17 16.6-29.75-15.83-27.06-28.34-6.13-18.9 7.15z" class="n"/><path d="m512.51 183.19 6.86-7.85 8.91-55.08 15.83 27.06-4.86 13-3.12 3.26.29 4.32-5.85 15.67-14.8 5.37-3.26-5.75z" class="x"/><path d="m507.09 173.62 20.42 2.68-15 6.89-5.42-9.57zM539.25 160.32l-8.87-1.06 6.04 8.64 2.83-7.58zM534.82 155.43l1.13-5.69 3.3.99-4.43 4.7z" class="ao"/><path d="m484.81 138.77 15.8 12.16 11.9-9.1-5.01-2.2-6.51.76-3.06 2.11-2.02-2.87-5.07-2.59-6.03 1.73z" class="x"/><path d="m495.91 139.63 5.08.76-.38 10.54-4.98 1.05-3.93-2.3 4.21-10.05z" style="fill:#ba9e8e;stroke-width:0"/><path d="m491.7 149.68 4.31 4.6 4.6-3.35-8.91-1.25zM487.59 156.38l8.32 2.49 11.97-.76-1.15 3.16-11.01.76-7.37-2.58-.76-3.07z" class="ao"/><path d="m500.99 140.39 2.78-2.77 8.13 2.2.61 2.01-11.52-1.44zM495.91 139.63l-1.62-3.26-7.76.48-1.72 1.92 11.1.86z" class="ai"/><circle cx="507.5" cy="146.71" r="2.01" class="bo"/><circle cx="488.93" cy="144.41" r="2.01" class="bo"/><path d="m475.17 121.53 24.51 11.87 13.79-6.57 12.84 5.59 6.43 9.98 11.37 4.92 6.76-11.87-13.27-17.49-14.05-16.21-7.93-3.85-31.77 4.99-1.15 8.11-10.21 1.85 2.68 8.68z" class="ai"/><path d="m526.31 132.42 2.73-7.19-4.72-4.97-25.66 2.29 1.02 10.85 26.63-.98z" class="at"/><path d="m472.49 112.85 26.17 9.7 6.83-12.89-21.64-6.77-11.36 9.96z" class="o"/><path d="m505.49 109.66 18.06-7.91 18.9 9.19-5.41 11.04-12.72-1.72-18.83-10.6z" class="at"/><path d="m524.32 120.26 18.13-9.32 8.42 24.51-24.56-3.03-1.99-12.16zM544.11 147.32l-17.8-14.9 4.07 22.18 3.64-8.8 10.09 1.52z" class="ar"/><path d="m507.5 184.05-6.89 1.18-4.26 27.83 17.5 8.68 22.75-5.48 4.31-28.35-6.38-2.68-7.02 10.2-18.89-2.6-1.12-8.78z" class="bh"/><path d="m512.51 183.19-5.01.86-2.01 9.97 23.55 3.92 5.49-12.71-3.96-1.66-5.26 10.24-14.8-2.45 2-8.17z" class="bl"/><path d="m496.35 213.06-.41 19.04 39.27 4.58 1.39-20.42-40.25-3.2z" class="bd"/><path d="m542.94 211.15-6.99 14.67-8.44-7.37.8-7.3 3.92-7.02 7.02 1.78 3.69 5.24z" class="x"/><path d="m540.91 187.91 5.1 15.78-3.07 7.46-10.71-7.02 8.68-16.22z" class="bl"/><path d="m528.31 211.15-18.8-3.19 4.58 8.93 21.86 8.93-7.64-14.67z" class="n"/><path d="m518.63 209.51-4.54 7.38-7.34-3 4.93-4.38h6.95z" class="x"/><path d="m484.81 208.6 11.35 13.14 22.47-12.23 5.86.26 1.18-1.37-7.64-7.97-2.63 2.77-1.93-1.65-28.66 7.05z" class="n"/><path d="m518.63 209.51-.6-9.08-4.56 1.12 5.16 7.96z" class="ax"/><path d="m518.63 209.51 7.04-1.11 2.64 2.75-9.68-1.64z" class="x"/><path d="m534.21 243.45-.89 26.94-22.46-2.3.82-12.97 17.36-13.61 5.17 1.94z" class="aj"/><path d="m510.51 273.56 22.78-2.87 1.53-5.6-23.96 3-.35 5.47z" class="bg"/><path d="m529.04 241.51 4.25 29.18 6.13-.78-4.21-33.23-6.17 4.83z" class="bh"/><path d="m523.47 286.47-3.68 6.97 6.95 9.13 8.08-2.42-3.24-11.89-4.11-4.41-4 2.62z" class="o"/><path d="m519.79 293.44 15.03 6.71-11.35 1.66-7.21-1.66 3.53-6.71z" class="bl"/><path d="M516.26 300.15h18.56v4.83h-18.56z" class="bm"/><path d="m526.46 287.13-.56 4.25 1.67.71 1.47-5.62-2.58.66z" class="bl"/><path d="m523.47 286.47 8.11 1.79.82-8.44-10.73-1.05 1.8 7.7z" class="bh"/><path d="M509.77 284.13v9.31l-14.87 3.19-3.35-8.37 4.36-2.98 8.57-4.33 5.29 3.18z" class="o"/><path d="m505.23 281.85-6.35 4.62-2.97-1.19 5.65-3.85 3.67.42zM491.55 288.26l5.31 5.18-5.31 2.64-7.6-2.64 7.6-5.18z" class="bl"/><path d="M483.95 293.44h25.83v4.83h-25.83z" class="bm"/><path d="m509.77 284.13-8.21-2.7-2.07-7.03 10.77 2.72-.49 7.01z" class="bh"/></g><g id="i"><path d="m604.77 277.66-.51 8.01-4.37 4.09-6.25-6.25-3.32-13.12 14.45 7.27zM584.45 273.56l-2.23 8.38-5.38 3.03-5.38-5.71-2.83-17.94 15.82 12.24z" class="aa"/><path d="m617.64 225.82-11.98 8.82-4.64-6.13 14.45-17.36 2.17 14.67z" class="af"/><path d="m621.47 204.97 5.23 14.35-9.06 6.5-8.68-17.42-3.3-5.49 15.81 2.06z" class="aa"/><path d="m557.75 210.77 17.51 18.63 6.25-9.31-9.84-15.12-13.92 5.8z" class="af"/><path d="m564.63 200.55-6.88 10.22 13.29-2.37-2.77-5.93-.93-2.94-2.71 1.02z" class="aa"/><path d="m568.27 202.47-3.64-1.92 11.47-17.36-1.96 12.24-5.87 7.04zM615.47 187.91l6 17.06-12.51 3.43-3.3-10.24 9.81-10.25z" class="bl"/><path d="m566.45 230.3 16.59 27.45 11.31-8.69 11.31-14.42-15.6-5.24-23.61.9z" class="q"/><path d="m566.45 230.3-4.09 24.2 22.09 19.06 3.25-11.28-4.66-9.89-16.59-22.09z" class="ab"/><path d="m583.99 266.69-21.63-12.19-1.79 10.59 23.88 8.47.91-3.17-1.37-3.7z" class="bn"/><path d="m588.07 180.26-8 10.3 9.48 4.5 11.47-3.35 2.13-10.62-9-2.21-6.08 1.38z" class="aa"/><path d="m562.94 106.6-11.73 53.66 25.9 6.39 16.15 12.46 6.31-2.49 4.54-12.58 9.57-26.42-16.85-31.02h-33.89z" class="aa"/><path d="m588.07 180.26 1.87-10.47 14.31-49.53 9.43 17.36-5.55 33.89-4.98 9.58-11.87 3.15-3.21-3.98zM563.32 125.36l12.78 16.9 14.51-8.86-4.55-4.06-4.49-.4-2.74.63-2.39 1.63-1.49-2.82-1.74-2.25-3.19-1.44-6.7.67z" class="af"/><path d="m578.83 129.57-2.73 12.69h-2.9l-2.89-1.77 4.64-12.11 3.88 1.19z" class="ba"/><path d="m570.31 140.49 2.25 3.54 3.54-1.77-5.79-1.77zM577.11 166.65l20.87 5.05-9.91 8.56-10.96-13.61z" class="y"/><circle cx="583.23" cy="137.49" r="1.72" class="bo"/><circle cx="567.4" cy="133.15" r="1.72" class="bo"/><path d="m581.57 128.94 1.47-1.73 7.09 3.83.48 2.36-9.04-4.46zM573.21 126.13l-.44-2.3-8.11.06-1.34 1.47 9.89.77z" class="bp"/><path d="m563.27 147.86 7.47 6.61 9.33-2.11-8.52-1.87-8.28-2.63z" class="ad"/><path d="m563.27 147.86 5.36.48 2.97-.57 2.83 2.05 5.64 2.54-9.47-1.05-7.33-3.45z" class="ay"/><path d="m562.94 106.6 38.08 24.83 13.43-5.94 3.19-24.74-31.55-3.06-1.13 3.06-9.7-4.11-12.32 9.96z" class="bp"/><path d="m601.02 131.43 7.11 40.08 8.44-1.57 2.22-6.03 8.68 3.99 4.81-9.62.55-12.48-15.19-45.05-16.62 30.68z" style="fill:#5f5044;stroke-width:0"/><path d="m575.26 96.64 30.4 26.22 4.32-.31.41-8.42-24.3-16.44-10.83-1.05z" class="bk"/><path d="m605.66 122.86 10.91 47.08 10.9-2.04-17.08-53.77-4.73 8.73zM617.64 100.75l14.68 57.55 5.06-10.24-19.74-47.31z" class="bp"/><path d="m584.7 181.09-8.6 2.1-7.83 19.28 14.77 7.3 25.92-1.37 6.51-20.49-9.81-5.43-8.26 9.09-12.41-2.74-.29-7.74z" class="u"/><path d="m603.15 181.09 2.51 1.39-7.33 12.01-15.29-3.3 1.66-10.1 3.37-.83-1.39 7.86 10.39 2.3 6.08-9.33z" class="bl"/><path d="m568.27 202.47-1.82 27.83 39.21 4.34 3.3-26.24-40.69-5.93z" class="bd"/><path d="m595.3 201.1-12.07-2.4-1.72 5.7 1.53 2.73 3.05-2.07 7.58 1.11 1.63-5.07z" class="bl"/><path d="m581.51 204.4-1.13 9.69 6.49.88-.35 3.33-6.45-1.15-.54 4.72 10.79 1.54 1.55-11.46-6.59-1.25.81-5.64-4.58-.66z" class="w"/><path d="m604.77 242.71.89 31.69-21.67-7.71-.95-14.3 16.27-12.77 5.46 3.09z" class="aj"/><path d="m584.45 273.56 20.32 4.1.89-6.89-21.67-4.08.46 6.87z" class="bg"/><path d="m599.31 239.62 5.46 38.04 5.46 1.11-4.57-44.13-6.35 4.98z" class="bh"/><path d="M579.53 292.09v8.06l-16.64 3.07.74-8.58 2.82-1.77 10.39-4.61 2.69 3.83z" class="o"/><path d="m575.25 289.94-5.62 4.7-3.18-1.77 6.52-4.08 2.28-.53v1.68zM563.63 294.64l2.82 5.51-6.77 2.42-4.85-2.42 8.8-5.51z" class="bl"/><path d="M554.83 300.15h24.7v4.83h-24.7z" class="bm"/><path d="m572.97 288.79 6.56 3.3 2.69-10.15-10.76-2.68 1.51 9.53z" class="bh"/><path d="m596.16 293.45-4.54 6.7 4.64 8.18 10.62-2.35-3.25-10.54-3.01-5.68-4.46 3.69z" class="o"/><path d="m587.68 305.98 3.94-5.83 15.26 5.83-12.05 2.35-7.15-2.35zM598.37 294.04l-1.28 4.72 2.93.89.6-5.01-1.31-2.01-.94 1.41z" class="bl"/><path d="M587.7 305.98h19.18v4.83H587.7z" class="bm"/><path d="m596.16 293.45 7.47 1.99.63-9.77-10.62-2.16 2.52 9.94z" class="bh"/></g><g id="j"><path d="m661.73 281.59-1.47 13.11-18-3.06v-13.22l19.47 3.17z" style="fill:#c0db8e;stroke-width:0"/><path d="m661.73 283.93 2.81 1.75 1.37 1.98 2.19 6.69-5.62 1.69-5.15-4.4 2.61-5.96 1.79-1.75zM646.6 289.08l1.25 13.9-9.24.15-4.11-3.57-3.07-6.42.38-4.71 1.09-3.18 4.26-3.66 5.1-3.17 4.34 10.66z" class="aw"/><path d="M657.33 291.64v13l-13.02-5.36 2.29-10.2 10.73 2.56z" class="bl"/><path d="m638.61 303.13 1.36-1.89 4.34-1.96 10.55 1.96 1.19 5.09-5.04 4.43-5.67-1.41-4.74-3.28-1.99-2.94z" class="bc"/><path d="m651.01 310.76-.19-1.41 4.04-8.11 5.4.74 2.22 3.35-4.03 2.87-4.11 1.8-3.33.76z" class="r"/><path d="m668.1 294.7-.66 3.56-2.24 3.8-2.29 2.92h-2.29l-5.76-3.74 2.47-9.6 7.45 1.23 3.32 1.83z" class="w"/><path d="m665.91 287.66-1.13 5.21 1.64 1.32 3.67-.44-4.18-6.09z" class="ad"/><path d="m644.67 284.33 4.09.92 1.26 4.65-2.67.8-.75-1.62-1.93-1.42v-3.33z" class="bq"/><path d="m644.67 284.33-3.17 4.49 4.39 3.43 1.46-.61-.75-2.56-1.93-4.75z" class="ad"/><path d="m650.02 289.9-3.42-.82-.71 3.17 4.13-2.35z" class="ax"/><path d="m632.9 285.25 2.09 4.38-3.56 3.51-2.24-4.69 3.71-3.2zM664.54 285.68h-4.6l-.51-2.09 2.3-2 2.81 4.09z" class="ad"/><path d="m659.94 285.68-2.61-4.09 2.61-2.27 1.79 2.27-1.79 4.09z" class="bq"/><path d="m664.78 292.87 2.66 5.39 2.65-4.51-5.31-.88z" class="be"/><path d="m651.48 300.61 4.33-3.05-.19 3.05-.76.63-3.34.93-.04-1.56z" class="ax"/><path d="m655.81 297.56-.95 3.68 1.19 1.74 1.76.18-2-5.6z" class="be"/><path d="m651.48 300.61.66 6.09 2.25-1.37.47-4.09-3.38-.63z" class="be"/><path d="m652.14 306.7 5.67-3.54-2.95-1.92-2.72 5.46z" class="ay"/><path d="m640.6 306.07-.63-4.83h-2.81l-1.02 1.74 4.46 3.09z" class="be"/><path d="m639.97 301.24-5.47-1.68 1.64 3.42 3.83-1.74zM645.34 294.7l-4.43 1.34.59 4.51 1.8.11 1.01-1.38.72-1.72.31-2.86z" class="ad"/><path d="m645.34 294.7 2.51 5.23-2.82.3-.72-.95 1.03-4.58z" class="ax"/><path d="m647.85 299.93-3.54 2.24-2.81-1.62 2.81-1.27 3.54.65z" class="be"/><path d="m654.34 290.93 4.41-2.53v1.75l-1.42 1.49-1.89.28-1.1-.99z" class="bq"/><path d="m658.75 288.4 2.22 3.84-2.22.2-1.42-.8 1.42-3.24z" class="ad"/><path d="m654.34 290.93 2.2 3.77.83-.91-.04-2.15-2.99-.71z" class="ax"/><path d="m660.97 292.24-4.43 2.46.79-3.06 3.64.6zM665.2 302.06l-4.58 2.92v1.09l2.07.26 2.51-4.27z" class="be"/><path d="m660.62 304.98-2.17 3.22 4.24-1.87-2.07-1.35z" class="ay"/><path d="M645.34 309.35h5.48l.54 1.11-1.95 1.71-4.07-2.82z" class="be"/><path d="m650.82 309.35 3.52.65-4.93 2.17 1.41-2.82z" class="ay"/><path d="m654.42 248.35.44 7.81 5.4 7.52 5.39-1.68 4.44-7.26-8.13-7.9-7.54 1.51z" class="aa"/><path d="m661.73 268.39-3.28-4.71-10.2 5.08-2.49 1.8.59 8.76 15.38-2.56v-8.37z" class="o"/><path d="m658.45 263.68-7.76 7.01-2.44-1.93 7.03-5.08h3.17zM645.76 270.56l3.68 7.86-12.28-1.66 8.6-6.2z" class="bl"/><path d="M637.16 276.76h24.57v4.83h-24.57z" class="bm"/><path d="m654.86 256.16 10.79 5.84-3.92 6.39-6.45-4.71-.42-7.52z" class="bh"/><path d="m716.69 279.32-1.87 10.44-5.01 4.59-6.66-6.13-2.62-13.24 16.16 4.34z" class="aa"/><path d="m704.89 297.04-5.34 9.29 6.56 8.25 9.91-2.41-2.91-12.89-4.5-4.58-3.72 2.34z" class="o"/><path d="m707.59 297.04-1.57 8.29 3.49.48 1.4-8.77h-3.32zM699.55 306.33l16.47 5.84-9.91 2.41-9.92-2.41 3.36-5.84z" class="bl"/><path d="M696.19 312.17h19.83V317h-19.83z" class="bm"/><path d="m703.15 288.22 11.67 1.54-1.71 9.52-8.22-2.24-1.74-8.82z" class="bh"/><path d="m677.79 210.13-6.29 13.97 10.98 4.6 4.78-19.79-9.47 1.22z" class="af"/><path d="m677.79 210.13 3.91 2.46 5.34-7.19-.86-13.91-8.39 18.64z" class="bl"/><path d="m671.5 224.1-4.65 7.54-1.65 6.48 8.65-.7 9.52-9.5-11.87-3.82z" class="aa"/><path d="m732.39 220.67-2.9 4.51-2.84 9.39 6.54-.59 15.54-11.16-11.04-3.95-5.3 1.8z" class="af"/><path d="m724.16 214.37 8.23 6.3 16.34 2.15-10.02-15.2-15.64-4.96 1.09 11.71z" class="aa"/><path d="m728.69 192.43 10.02 15.19-14.55 6.75-3.9-7.6 8.43-14.34z" class="bl"/><path d="m719.5 242.1-1.78 34.16-21.53-.5-3.88-14.46-17.11 3.2-6.18-.82-3.82-23.11 11.7-1.49 22.65-2.46 19.95 5.48z" class="aj"/><path d="m696.19 275.76 24.07-4.36-3.57 7.92-18.83 2.65-1.67-6.21zM667.05 265.98l8.15-1.48-10-23.93-6.75.86 8.6 24.55z" class="bg"/><path d="m723.07 278.42-6.38.9-5.55-32.87 8.36-4.35 3.57 36.32z" class="bh"/><path d="m719.5 242.1-27.19 19.2-15.41-22.22 24.26-3.09 18.34 6.11z" class="q"/><path d="m698.05 188.36-7.82 5.87 1.44 7.73 23.1 4.81 1.92-16.95-18.64-1.46z" class="aa"/><path d="m675.98 127.87-6.96 45.27 23.67 4.94 9.68 11.97 14.51-8.81 18.83-27.86-10.34-28-32.81-6.4-16.58 8.89z" class="aa"/><path d="m698.05 188.36 10.69-6.38 11.52-52.57 5.11-4.03 10.34 28-5.33 10.21-3.21 1.86-.83 5.87-9.65 18.5-15.58 4.41-3.06-5.87z" class="af"/><path d="m692.69 178.08 22.93 4.51-17.57 5.77-5.36-10.28zM730.38 163.59l-6.41-1.88 2.37 9.61 4.04-7.73zM726.65 159.8l2.01-6.13 3.73 1.63-5.74 4.5z" class="y"/><path d="m679.37 141.25 12.3 12.77 13.57-8.3-2.4-5.04-5.81.83-3.83 2.04-1.72 1.28-1.22-2.04-2.17-3.07-3.83-1.53-4.89 3.06z" class="af"/><path d="m693.2 143.55-1.53 12.47-2.32.32-2.09-1.28 3-12.27 2.94.76z" class="ba"/><path d="m687.26 155.06 1.76 2.76 2.65-1.8-4.41-.96zM681.17 160.08l6.84 3.79 8.72-.82-1.11 2.01-7.99 1.01-6.32-3.74-.14-2.25z" class="y"/><circle cx="699.71" cy="150.64" r="1.85" class="bo"/><circle cx="683.37" cy="147.19" r="1.85" class="bo"/><path d="m679.37 141.25 5.28-2.42 3.44.89.64-1.21-5.36-1.85-3.7 2.49-.3 2.1zM697.03 141.51v-1.34l6-.19 3.25 3.89-1.04 1.85-3.81-3.7-4.4-.51zM675.98 127.87l-5.38-12.15 45.02-1.99 16.39 4.93 1.4 10.15 9.58 10.15-4.65 9.2-11.69-2.06-5.75-9.44-.64-7.25-17.89-.6-9.17 5.68-17.22-6.62z" class="az"/><path d="m720.26 129.41-30.03-7.72 2.97 12.8 27.06-5.08zM720.26 129.41l11.75-10.75 10.98 20.3-22.73-9.55zM720.9 136.66l17.44 11.5-2.63 5.22-8.43-3.45-4.46 8.43-1.92-21.7z" class="at"/><path d="m670.6 115.72 19.63 5.97 25.39-7.96-8.25-2.48-36.77 4.47z" class="z"/><path d="m694.07 189.41.09 8.16 18.12 1.83 8.62-8.66 7.79 1.69-4.53 21.94-27.26 5.65-15.2-7.43 4.48-21.1 7.89-2.08z" class="bh"/><path d="m698.05 188.36-2.43 6.67 16.07 2.54 5-7.75 4.21.92-7.02 10.77-22.45-3.94 2.64-8.16 3.98-1.05z" class="bl"/><path d="m681.7 212.59-4.8 26.49 42.6 3.02 4.66-27.73-42.46-1.78z" class="bd"/><path d="m694.16 211.08 7-6.36 6.77 1.5-2.04 7.38-2.43 1.95-1.85-2.13 1.45-4.95-5.92 4.76-2.98-2.15z" style="fill:#33a474;stroke-width:0"/><path d="m705.89 213.6-2.03 14.32-4.31-.86 2.06-13.64 4.28.18z" class="br"/><path d="m726.65 229.59-9.77-2.25-.19 8.09 4.21 2.69 9.48-2.13-.89-4.35-2.84-2.05z" class="aa"/><path d="m720.9 238.12-1.4 3.98-8.36-3.8 5.74-10.96 4.02 10.78z" class="af"/><path d="m726.65 229.59 3.73 6.4 2.81-2.01-3.7-8.8-2.84 4.41z" class="aj"/><path d="m671.5 239.77-3.69 7.05-6.47 2.88.39-7.6 9.77-2.33z" class="af"/><path d="m661.34 249.7 6.08-9.72-6.08-.21-2.4 3.07 2.4 6.86z" class="y"/><path d="m671.5 239.77-2.48-4.04-4.33-.59-11.34 1.82 3.21 5.88 6.13.64 8.81-3.71z" class="aa"/><path d="m653.35 236.96 1.07 11.39 6.92 1.35 1.35-6.22-9.34-6.52z" class="af"/><path d="m664.69 235.14 6.81 4.63 3.74-3.74-8.39-4.39-2.16 3.5z" class="aj"/></g><g id="k"><path d="m158.59 297.46 6.03-1.82 5.94-27.34-10.53 2.87-5.08 16.77 3.64 9.52zM127.47 305.7l7.23-1.98 6.18-25.4-15.45 2.1v10.51l2.04 14.77z" class="an"/><path d="m257.44 302.18-7.1-.5-3.43-21.99 8.36 2.83 3.76 4.86-1.59 14.8z" class="z"/><path d="m265.09 276.26-1.27 23.56-6.38 2.36-2.17-19.66 3.28-7.81 6.54 1.55zM227.94 312.91l7.27-2.8 4.91-21.41-13.65 2.63-2.96 11.37 4.43 10.21z" class="an"/><path d="m230.05 292.81-2.11 20.1-8.4-.76-2.58-24.77 13.09 5.43zM116.07 282.52l2.19 22.31 9.21.87 2.88-28.63-14.28 5.45zM149.88 282.72l1.15 13.97 7.56.77 1.44-17.04-10.15 2.3z" class="z"/><path d="m103.26 262.4 2.38 22.97 124.41 7.44 13.33-23.68-84.53-9.43-55.59 2.7z" class="bl"/><path d="m230.05 292.81 10.07-4.11 2.07-2.01 1.96.37 11.12-4.54 1.44-.59 1.21-.49 15.41-6.29 1.88-17.66-38.11 10.94-4.95 9.89-2.1 14.49z" class="w"/><path d="m103.26 262.4 128.89 15.92 43.06-20.83-123.44-5.47-13.24 2.83-1.32.84-3.26.14-11.17 2.39-1.25.92-3.9.19-14.37 3.07z" class="aw"/><path d="m117.63 259.33 126.43 13.23 1.21 1.04 1.64-2.43-124.13-12.95-5.15 1.11zM133.95 255.83l122.43 10.77.97 1.7 2.09-3.18-120.91-10.27-4.58.98z" class="bl"/><path d="m244.06 272.56-3.94 16.14 4.03-1.64 2.76-15.89-2.85 1.39zM256.38 266.6l-1.11 15.92 2.65-1.08 1.52-16.32-3.06 1.48z" class="bc"/></g><g id="l"><path d="m358.81 268.21.55 3.96-8.34 6.7-10.46-.34-8.3-13.44 26.55 3.12zM294.6 274.6l.8 9.5 8.42 5.84 11.69-7.01 5.06-15.8-25.97 7.47z" class="aa"/><path d="m352.68 222.58-20.42 33.76-38.88-25.97 7.05-11.54 37.45-5.89 14.8 9.64z" class="q"/><path d="m352.68 222.58 5.12 38.12-35.87 13.9 10.33-28.03 20.42-23.99z" class="ab"/><path d="m357.8 260.7-34.77 5.98 4.9 6.88 30.88-5.35-1.01-7.51z" class="ap"/><path d="m332.26 246.57-31.21-18.66-12.1 14.11 5.65 32.58 33.33-1.04 4.33-26.99z" class="aj"/><path d="m327.01 279.32.92-5.76-38.12-8.54 4.79 9.58 32.41 4.72z" class="ap"/><path d="m301.05 227.91-2.81 15.28-3.64 31.41-9.66-1.41 4.01-31.17 12.1-14.11z" class="bd"/><path d="m355.93 153.34 14.9 16.19-3.4 12.22-4.47 5.77h-8.63l-5.1-12.52 6.7-21.66z" class="r"/><path d="m354.33 187.52 16.5-17.99 6.94 7.54-13.03 14.36-10.41-3.91z" class="bh"/><path d="m364.74 191.43 10.27-17.35 7.07-.31 4.05 5.4-3.53 14.85-17.86-2.59z" class="aa"/><path d="m378.04 168.96 6.13-13.92 5.39-2.04 5.72 2.91 2.72 10.74-10.53 6.88-6.23 2.78-3.2-7.35z" class="af"/><path d="m378.04 168.96 1.15-10.87 9.45-11.98 2.81 1.79-6.71 18.19-4.14 5.55-2.56-2.68z" class="aa"/><path d="m389.56 153 11.94-7.73 3.92 9.73-7.42 11.65-8.44-13.65z" class="aa"/><path d="m378.04 168.96 9.43 4.57-1.34 5.64-11.12-5.09 3.03-5.12z" class="ax"/><path d="M351.8 70.19 331.31 56.7l-33.63 4.35-3.62 17.4-20.52 5 3.41 41.06 39.81 28.69 29.68-12.32 20.15-12.18-9.13-33.9-5.66-24.61z" class="ai"/><path d="m356.36 69.73-4.99 14.61-13.06 3.69-13.04-.2 6.04-31.13 25.05 13.03z" class="z"/><path d="m325.27 87.83-27.59-26.78-24.14 22.4 25.2.89 10 8.52 16.53-5.03z" class="at"/><path d="m291.33 114.78-14.38 9.73-6.55 10.99 11.24 19.45 32.97 1.43 28.27-1.36 13.05-1.68 10.66-24.64-18.86-11.71-56.4-2.21z" style="fill:#29303e;stroke-width:0"/><path d="m356.36 69.73 1.1 25.07-13.65 12.92-5.27-16.65 10.22-14.12 7.6-7.22z" class="at"/><path d="m281.64 154.95 13.83-5.03 32.7-3.11 6.18 1.45 1.19 4.94 4.81-3.52 15.58 3.66-1.6 34.18-25.37 18.3-39.42-15.21-7.9-35.66z" class="bc"/><path d="m308.74 161.74-10.5-12.08 29.93-2.85 6.18 1.45 2.95 4.17-5.87 17.1-22.69-7.79z" class="bh"/><path d="m289.54 190.61 64.79-3.09-1.65 35.06-54.81 5.65-8.33-37.62z" class="r"/><path d="m348.76 76.95 7.17 61.32-18.05 2.61-10.29 8.23-5.87 4.98-16.03-1.03-11.09-38.28 4.14-30.44 26.53 3.49 23.49-10.88z" class="aa"/><path d="m298.74 84.34 12.12 61.6 27.02-5.06-6.73 14.07-3.77 8.14-23.21-7.86-12.84-40.45 7.41-30.44z" class="af"/><path d="m353.32 116.23-58.98 8.02 9.83 30.98 25.23 5.88-4.26-12.77 12.74-7.46 18.05-2.61-2.61-22.04z" style="opacity:.3;fill:#c3987b;stroke-width:0"/><path d="m337.88 140.88-34.8 5.44 28.07 8.63 6.73-14.07z" class="y"/><path d="m346.44 97.05-7.69 7.29-4.08 8.85-7.66 1.12-8-8.52-10.27-3.21 4.48-4.33 13.68 1.95 2.28.44 1.47-.93L341 94.8l5.44 2.25z" class="af"/><path d="m326.9 100.2.11 14.11 4.67 1.67 2.99-2.79-4.02-13.48-3.75.49z" class="ba"/><circle cx="340.17" cy="104.19" r="2.25" class="bo"/><circle cx="319.57" cy="107.37" r="2.25" class="bo"/><path d="m308.74 102.58 2.93-5.85 15.23 3.47-14.33-.24-3.83 2.62zM330.65 99.71l10.54-6.85 5.25 4.19-4.79-.92-11 3.58z" class="bm"/><path d="m334.67 113.19-3.08 4.43-4.58-3.31 4.17.77 3.49-1.89zM320.78 125.6l20.83-2.89-2.14 8.88-12.45 1.81-6.24-7.8z" class="y"/><path d="m324.82 126.73 14.3-2.07-.64 1.91-12.19 1.76-1.47-1.6z" style="fill:#fff;stroke-width:0"/><path d="m301.76 147.64 25.83 34.79 6.76-34.17 6 1.42-7.39 29.49-3.83 8.35-6.23-2.23-27.43-35.37 6.29-2.28z" class="bg"/><path d="m325.97 180.25 6.99-1.08 4.92 9.13-10.48 5.94-1.43-13.99z" class="u"/><path d="m337.88 188.3-1.54 8.93-8.94 2.94-.76-5.93 1.91-3.64 9.33-2.3z" class="aw"/><path d="m325.97 180.25-3.07 5.04 1.54 3.65-2.51 7.27 5.47 3.96 1.15-9.57-2.58-10.35z" class="bl"/><path d="m295.24 192.81 4.59 1.19 7.37 6.23 2.01 7.65-3.57 5.06-5.81-2.81-5.49-7.83.9-9.49z" class="aq"/><path d="m292.38 202.3 1.96 19.83-11.5 11.61-15.71-15.71 2.91-15.73h22.34z" class="al"/><path d="m284.94 206.21-5.89 14.99-3.02 8.41 6.81 4.13 20.76-1.07v-13.99l-3.77-8.55-7.89-6.51-7 2.59z" class="aq"/><path d="m295.47 190.32-1.13 13.94-9.4 1.95-14.9-3.91 9.4-8.51 16.03-3.47z" style="fill:#f9fafa;stroke-width:0"/><path d="m295.47 190.32-10.53 15.89 14.89 3.92-4.36-19.81z" style="fill:#dddfe2;stroke-width:0"/><path d="m310.74 208.85 2.88 5.55.99 12.11-11.01 6.16-2.55-4.76-1.22-17.78 4.97-1.96 5.94.68z" class="ac"/><path d="m314.61 226.51-12.14 12.37-8.88 2.19-7.99-2.22-2.76-5.11 18.21-5.83 13.56-1.4z" class="s"/><path d="m291.88 241.07-2.93.95-16.98-2.15 5.07-5.02 5.8-1.11 8.49 5.22.55 2.11zM278.82 204.61l9.15-2.98-2.16 8.16-6.99-5.18z" class="ac"/><path d="m287.97 201.63 3.3 6.25-4.27 1.82-2.06-3.49 3.03-4.58zM278.82 204.61l6.12 1.6 1.25 4.39-4.55 4.38-2.82-10.37z" class="bj"/><path d="m291.27 207.88-2.29 6.06-7.34 1.04 3.3-8.77 6.33 1.67zM307.2 200.23l-2.4 7.94 4.6.68 3.45-3.85-5.65-4.77z" class="z"/><path d="m304.8 208.17 4.03 5.37 4.79.86-.77-9.4-8.05 3.17z" class="o"/><path d="m300.43 218.83-4.96 2.66-2.09 8.88 7.05-.4 2.04-4.5-2.04-6.64z" class="z"/><path d="m300.43 218.83 4.37 1.61 2.42 6.83-5.07 2.7-1.1-2.06-.62-9.08z" class="o"/><path d="m307.22 227.27-6.17 5.4-7.67-2.3 7.67-2.46 6.17-.64zM302.47 238.88l-7-1.78-4.14 1.86.55 2.11 6.36 2.12 4.23-4.31z" class="az"/><path d="m291.33 238.96-2.38 3.06 9.29 1.17-6.91-4.23z" class="o"/><path d="m280.34 225.47 9.2 6.13-7.05 3.99-1.75-5.62-.4-4.5z" class="z"/><path d="m289.54 231.6-1.57 5.29-4.57-1.3-.56-1.85 6.7-2.14z" class="az"/><path d="m287.97 236.89-11.68.55-1.45-3.7h8l5.13 3.15z" class="o"/><path d="m288.95 193.4 2.68 2.71 2.71-1.36 1.13-4.43-6.52 3.08z" class="ac"/><path d="m291.63 196.11 5.31.87v-3.19l-1.47-3.47-3.84 5.79z" class="bj"/><path d="m296.94 196.98 2.89-2.98-4.36-3.68 1.47 6.66z" class="z"/><path d="m277.8 198.64-2.96 4.92-3.67 1.44-1.13-2.7 3.88-4.03 3.88.37z" class="ac"/><path d="m274.84 203.56-4.19 6.57-2.28-5.13 1.67-2.7 4.8 1.26z" class="bj"/><path d="m271.17 216.89 7.88 4.31 2.36 7.79-7.43-1.09-2.81-11.01zM253.43 210.13l3.63 4.85 9.05 1.23 4.54-6.08-1.27-16.34-15.95 16.34z" class="af"/><path d="m278.45 167.58-16.98 10.52-17.11 19.64 9.07 12.39 24.37-11.49 8.01-10.34-7.36-20.72z" class="aa"/><path d="m295.47 190.32-13.83-35.37-11.01 12.63-1.12 14.59 19.44 11.23 6.52-3.08z" class="r"/><path d="m277.8 198.64 11.15-5.24-18.32-25.82-9.16 10.52 16.33 20.54z" class="bh"/><path d="m276.03 225.47 5.38 3.52 1.43 4.75-5.83-3.25-.98-5.02z" class="y"/><path d="m271.17 216.89 4.86 8.58-4.73 5.69-10.34.77-.26-12.1 4.39-3.76 6.08.82z" class="aa"/><path d="m276.03 225.47 6.81 8.27-10.87 6.13-11.01-7.94 15.07-6.46z" class="af"/><path d="m260.7 219.83 10.47-2.94-.52-6.76-13.59 4.85 3.64 4.85z" class="ax"/><path d="m310.6 298.21 11.98 16.73-14.99 4.78-12.99-4.02.99-5.95 2.73-3.92-1.42-3.92 7.33-5.74 6.37 2.04z" class="av"/><path d="M294.6 315.7v6.61h27.98v-7.37l-13.71-3.83-14.27 4.59z" class="bj"/><path d="m302.93 297.73 1.75 9.29 3.3-.96-2.53-9.21-2.52.88zM296.9 301.91l4.15 4.54-5.46 3.3 1.31-7.84z" class="ac"/><path d="m314.32 286.64-9.26-1.19-9.25 3.55 1.09 12.91 13.7-3.7 3.72-11.57z" class="bl"/><path d="m295.81 289 18.51-2.36 1.19-3.71-20.11 1.17.41 4.9z" class="bh"/><path d="m349.09 292.33 3.59 5.13-3.59 4.45v6.04l29.93 4.49-.68-13-9.16-5.76-5.51-1.35-5.87-5.54-8.71 5.54z" class="av"/><path d="m378.34 299.44-7.22 8.51h-22.03v6.6h35.82v-10.98l-6.57-4.13z" class="bj"/><path d="m349.09 292.33 8.71 4.52-2.06 5.74-6.65-.68v-9.58zM355.97 288.39l11.03 7.78 2.18-2.49-7.46-4.68-5.75-.61z" class="ac"/><path d="m349.09 292.33-5.8-9.38 8.31-6.18 8.48.52 1.64 11.71-12.63 3.33z" class="bl"/><path d="m343.29 282.95 16.79-5.66-.72-5.12-18.8 6.36 2.73 4.42z" class="bh"/></g><g id="m"><path d="m407.12 301.35 7.64-5.85 8.81-3.56 7.77-.77-5.28 23.55-18.94-13.37z" class="al"/><path d="m431.34 291.17 6.03-.32 5.61 1.35 4.1 2.41-4.17 20.11-19.34-8.62 4.05-10.02 3.72-4.91zM423.57 306.1v19.41l-21.26-3.09 1.43-1.1-.92-3.88.92-9.06 3.84-4.96-2.95-3.83 9 3.1 9.94 3.41z" class="ah"/><path d="m440.42 307.44-3.64 22.57-16.27-9.93 3.06-13.98 16.85 1.34z" class="s"/><path d="m448.08 295.5 2.1 2.08 4.99 9.86.71 6.35-8.8 2.4-6.66-8.75 5.74-10.49 1.92-1.45z" class="s"/><path d="m456.6 313.98-.57 3.46-.71 1.48-4.64 4.99-.7 6.1-1.07 2.2-3.68 2.98-9.41-4.19-1.34-6.51 5.94-17.05 12.93 4.21 3.25 2.33zM420.51 320.08l6.7 9.13-5.53 10.72-2.01-3.91-3.04-.65-9.51-8.6-2.4-3.34 1.69-1.53 14.1-1.82z" class="z"/><path d="m421.68 339.93 14.97-7.72-2.17-7.72-13.97-4.41 1.17 19.85z" class="o"/><path d="m434.48 324.49-7.75 9.35-.66 3.83 3.84 1 11.09-1.71 4.23-1.77-.98-1.76-9.77-8.94z" class="an"/><path d="m423.57 291.94 4.05 4.14 4.31-3.63-1.51-3.28-6.85 2.77z" class="s"/><path d="m427.62 296.08 9.75-5.23-6.95-1.68-2.8 6.91zM433.33 306.88l10.07-4.89v4.11l-2.98 1.34-3.05 2.11-4.04-2.67z" class="z"/><path d="m433.33 306.88 4.56 7.84 3.11-2.87-.58-4.41-7.09-.56z" class="o"/><path d="m443.4 301.99 4.68 7.94-4.68 1.42-2.98-3.91 2.98-5.45z" class="o"/><path d="m448.08 309.93-7.66-2.49-2.53 7.28 10.19-4.79zM455.32 318.92l-9.04 2.81 3.7 8.28 5.34-11.09z" class="ai"/><path d="m414.76 295.5-1.13 7.19-6.05.73-2.95-3.83 10.13-4.09z" class="s"/><path d="m413.63 302.69-9.89 5.69.89-8.79 9 3.1zM422.16 312.55l-11.61 8.81 6.98 1.59 2.98-2.87 2.2-2.33-.55-5.2z" class="z"/><path d="m422.16 312.55 3.57 9.18-3.57.6-1.65-2.25 1.65-7.53z" class="o"/><path d="m410.55 321.36 10.41 6.38.72-4.79-1.17-2.87-9.96 1.28z" class="ai"/><path d="m420.51 320.08 5.22 1.65-4.77 6.01-.45-7.66zM428.58 322.63l1.33 7.38 3.42-1.02 1.15-4.5-1.99-2.16-3.91.3z" class="bm"/><path d="M429.91 330.01h10.61l-2.63-4.5-3.41-1.02-4.57 5.52z" class="ar"/><path d="m440.52 330.01-4.1-11.09-2.04 2.81.1 2.76 6.04 5.52z" class="ai"/><path d="m436.42 318.92-7.84 3.71 5.9 1.86 1.94-5.57z" class="o"/><path d="m417.41 303.99 8.57-3.84.75 3.27-3.16 2.68-3.64.57-2.52-2.68z" class="s"/><path d="m417.41 303.99 5.3 6.04 1.72-1.72-.86-2.21-6.16-2.11z" class="z"/><path d="m425.98 300.15 2.6 6.35-2.85 1.16-2.16-1.56 2.41-5.95z" class="z"/><path d="m428.58 306.5-5.01-.4-.86 3.93 5.87-3.53z" class="o"/><path d="m416.63 335.37 4.59-3.16 1.49 2.33-1.03 5.39-5.05-4.56z" class="ai"/><path d="m421.22 332.21 5.51 1.63-.66 3.19-4.39 2.9-.46-7.72z" class="bm"/><path d="m426.73 333.84 3.18 4.83-8.23 1.26 5.05-6.09z" class="ar"/><path d="m402.82 317.44 3.59 4.46-.43 1.05-3.67-.53.51-4.98z" class="z"/><path d="m406.41 321.9.71 4.87-4.81-4.35 4.1-.52zM448.91 332.21l-4.66 1.22-.85 1.95 3.68.64 1.83-3.81z" class="ai"/><path d="m444.25 333.43-3.25 3.53 6.08-.94-2.83-2.59z" class="ar"/><path d="m455.17 307.44-1.82 4.21 1.82 2.33 2.91-.79-2.91-5.75z" class="o"/><path d="m453.35 311.65 2.68 5.79 2.05-4.25-4.73-1.54z" class="ai"/><path d="m442.98 292.2 3.18 4.75 1.92-.87v-2.64l-5.1-1.24z" class="z"/><path d="m446.16 296.95 4.02.63-2.1-4.14-1.92 3.51z" class="o"/></g></svg>