<svg xmlns="http://www.w3.org/2000/svg" id="a" viewBox="0 0 900 350"><defs><style>.j{fill:#28835c}.aa,.ab,.ac,.ae,.af,.ag,.ah,.aj,.ak,.al,.am,.an,.ao,.ap,.aq,.ar,.as,.at,.av,.aw,.ax,.ay,.az,.ba,.bc,.bd,.j,.k,.n,.o,.p,.q,.r,.s,.u,.v,.w,.x,.z{stroke-width:0}.aa,.ab,.ac,.ae,.af,.ag,.ah,.aj,.ak,.al,.am,.an,.ao,.ap,.aq,.ar,.as,.at,.av,.aw,.ax,.az,.ba,.bc,.bd,.j,.k,.n,.o,.p,.q,.r,.s,.u,.v,.w,.x,.z{fill-rule:evenodd}.k{fill:#2d9368}.n{fill:#e8cab6}.o{fill:#709d52}.p{fill:#b8c744}.q{fill:#c3987b}.r{fill:#3d4554}.s{fill:#74665b}.u{fill:#68707f}.v{opacity:.15}.am,.aw,.v{fill:#1d2432}.w{fill:#787f8d}.x{fill:#5f6878}.z{fill:#576071}.aa{fill:#454d5d}.ab{fill:#f4faf7}.ac{fill:#e6e97c}.ae{fill:#99c26d}.af{fill:#5a753d}.ag{fill:#237250}.ah{fill:#89909b}.aj{fill:#fff}.ak{fill:#a0cf7e}.al{fill:#dfbda5}.am{opacity:.2}.an{fill:#70bf9d}.ao{fill:#267a56}.ap{fill:#86b264}.aq{fill:#648e43}.ar{fill:#5bb68f}.as{fill:#309b6e}.at{fill:#8b6651}.av,.ay{fill:#232a38}.aw{opacity:.1}.ax{fill:#216a4b}.az{fill:#47ad82}.ba{fill:#3da87b}.bc{fill:#2b8b62}.bd{fill:#4b5464}</style></defs><g id="b"><path d="m453.35 18.13-57.48 66.99-1.01 10.18-9.97 2.61-143.42 43.29-84.43 51.17-61.72 58.99 25.31 23.31 189.08-10.94 151.59 2.58 188.65-23.25 97.89 2.71 51.87-30.37-45.73-36.19-57-27.36-125.19-37.51-92.02-59.44-26.42-36.77z" class="ar"/><path d="m453.35 18.13 16.71 49.61-30.11 11.29 131.84 35.31-118.44-96.21zM384.89 97.91l27.52 8.43-16.54-21.22-10.98 12.79zM383.36 129.87l34.93-12.7 39.72-20.96-45.6 10.13-29.05 23.53zM233 197.85l41.65-21.42 35.14-14.79-37.84 49.85-8.44-16.16-30.51 2.52zM503.72 148.15l24.72 4.77-44.01 31.99L450 195.4l-46.6 19.31 100.32-66.56zM467.52 220.63l46.94-34.16 34.69 43.18-100.1 27.58-29.07-26.88 61.62-31.59-14.08 21.87zM385.68 138.37l46.85-7.78 13.01.7-22.22 13.19-37.64-6.11z" class="as"/><path d="m430.12 140.01 18.93 16.33-38.18-14.45 19.25-1.88z" class="as"/></g><g id="c"><path d="m651.98 152.6-41.25 74.46 50.25 9.24 15.89-40.85-8.42-32.94-3.11-16.64-13.36 6.73z" class="an"/><path d="m668.45 162.51 12.76-14.36 31.64 68.78-51.87 19.37 7.47-73.79zM654.43 182.81l-5.64 28.34-4.99 21.99-11.34-2.08 21.97-48.25z" class="az"/><path d="m679.98 169.44 17.32 46.36 2.69 5.93-10.36 3.87-9.65-56.16zM678.21 193.03l5.53 34.77-4.95 1.85-.58-36.62z" class="as"/><path d="m648.97 158.03 18.44 14.76 17.57-16.45-17.19-1.12-18.82 2.81z" class="v"/><path d="m635.74 154.99 8.56 1.97 3.72-1.25.95 2.32 5.46 1.26 2.6-1.26 2.59 2.45 8.83 2.03v-56.26h-11.49l-21.22 48.74z" class="an"/><path d="m668.45 162.51 16.53-6.17.93-3.73 4.07 1.86 7-2.62-24.89-47.47-8.24 7.45 4.6 50.68zM648.97 158.03l5.46-22.17-10.13 21.1 4.67 1.07zM654.43 159.29l2.53-13.93 2.66 15.12-5.19-1.19z" class="az"/><path d="m684.98 156.34-8.11-22.9 13.11 21.03-5 1.87z" class="as"/><path d="m655.77 108.98 9.04 13.45 9.32-14.15-8.36-2.03-10 2.73z" class="v"/><path d="m663.85 111.83-15.83-5.58 18.95-54.68 2.63 42.8-5.75 17.46z" class="an"/><path d="m663.85 111.83 17.75-6.13-14.63-54.13-3.12 60.26z" class="az"/><path d="m739.53 182.68-13.91 53.5-6.54-3.04-1.65-4.76-4.58 1.86-21.17-9.84 35.79-48.6 12.06 10.88z" class="an"/><path d="m731.51 184.6 9.87-10.81 37.85 51.81-20.51 4.05-6.31-2.7-3.02 4.54-2.76.54-2.64-1.16-1.41 1.96-16.96 3.35 5.89-51.58z" class="az"/><path d="m720.83 180.82 9.43 14.78 16.37-14.63-12.9-6.36-12.9 6.21z" class="v"/><path d="m731.51 184.6-6.7-2.37-1.49-2.6-2.49 1.19-3.4-1.19v-1.99l-2.53 1.09-7.64-2.7 22.25-40.17h8.03l-6.03 48.74z" class="an"/><path d="m732.68 142.63 4.86-6.77 29.72 40.17-13.28 3.18-5.3-2.24-2.05 4-15.12 3.63 1.17-41.97z" class="az"/><path d="m726.75 140.83 5.7 9.97 8.36-10.52-8.13-4.42-5.93 4.97z" class="v"/><path d="m732.68 142.63-5.93-1.8-1.13-2.35-1.54 1.54-4.11-1.25 9.71-47.12 7.86 30.78-4.86 20.2z" class="an"/><path d="m732.68 142.63 8.13-2.35.5-2.66 2.99 1.66 5.09-1.47-19.71-46.16 3 50.98zM720.83 180.82l6.5-15.89-2.52 17.3-3.98-1.41zM714.9 178.73l5.07-9.29-2.54 10.19-2.53-.9zM726.75 140.83l1.44-18.4-4.11 17.59 2.67.81zM722.4 197.71l-3.32 35.43-6.23-2.9 9.55-32.53z" class="az"/><path d="m746.63 180.97-4.94-24.01 12.29 22.25-7.35 1.76zM746.63 198.41l12.09 31.24-9.33 1.84-2.76-33.08zM738.53 196.6l8.1 35.43-4.05.8-4.05-36.23zM740.81 140.28l-3.27-13.1 6.76 12.1-3.49 1z" class="as"/><path d="m76.32 242.84 2.72 28.22 5.17-.46 1.26-43.54-9.15 15.78z" class="bc"/><path d="m30.02 230.15 47.22-54.82 12.59 1.1-13.51 66.41-10.74-2.94-4.03-4.98-5.16 2.46-26.37-7.23z" class="an"/><path d="m85.21 184 10.3-8.16 27.13 58.52-13.46 2.46-2.88-3.01-2.21 3.94-5.58 1.03-6.24-1.03-2.44 2.62-13.51 2.47L85.21 184zM65.58 239.9l4.85-31.7-14.04 29.18 9.19 2.52z" class="az"/><path d="m104.09 237.75-7.66-38.91 12.75 37.98-5.09.93zM98.51 238.78l-6.24-19.72-2.44 21.31 8.68-1.59z" class="as"/><path d="m73.43 179.75 10.31 14.01 13.66-13.84-12.55-2.72-11.42 2.55z" class="v"/><path d="m60.28 175 9.54 3.44 1.6-1.42 2.01 2.73 2.61.94 1.54-1.45 1.03 2.38 6.6 2.38 1.49-43.22-7.83 1.23L60.28 175z" class="an"/><path d="m85.21 184 7.12-2.38.95-1.7 1.02 1.04 3.1-1.04 1.49-3.2 2.47 1.87 9.14-3.06-22.23-33.66-5.01 5.61L85.21 184zM73.43 179.75l2.61-16.74-6.22 15.43 3.61 1.31zM76.04 180.69l3.08-8.86-.51 9.79-2.57-.93z" class="az"/><path d="m97.4 179.92-3.1-13.01 7.06 11.68-3.96 1.33zM94.3 180.96l-4.47-17.24 2.5 17.9 1.97-.66z" class="as"/><path d="m77.1 145.15 6.48 8.26 6.95-8.13-5.06-3.41-8.37 3.28z" class="v"/><path d="m67.42 141.49 6.87 2.6 2.84-.69-.03 1.75 6.16 2.33 7.63-20.52-.08-30.88-23.39 45.41z" class="an"/><path d="m83.26 147.48 7.27-2.2 1.53-2.46 1.53 1.54 4.92-1.49-7.7-46.79-7.55 51.4zM77.1 145.15l3.99-18.19-6.8 17.13 2.81 1.06z" class="az"/><path d="m90.53 145.28-.7-13.28 3.76 12.36-3.06.92z" class="as"/></g><g id="d"><path d="m157.04 192.37-5.16 41.12 18.72 1.43 1.69-31.6 3.14-8.8-18.39-2.15z" class="aa"/><path d="m157.04 192.37 14.32 6.47 24.3-5.08-9.84-20.11-28.78 18.72z" class="x"/><path d="m147.21 181.91 9.83 10.46 18.39-13.35-8.94-12.54-10.81-.81-8.47 16.24z" class="bc"/><path d="m157.04 192.37 25.16-9.6-.5-6.34-13.42 2.24-11.24 13.7zM159.47 169.73l-6.77 10.4 4.34 4.54 5.49-5.65-4.91 2.07-1.98-2.07 6.89-8.47-3.06-.82z" class="ag"/><path d="m224.03 202.6 4.37 31.76-16.08 3.02.64-19.41 9.9-15.12" class="aq"/><path d="m171.36 198.84-4.87 20.92-2.32 11.18 10.03-.62 2.83-4.37-.71-20.29-4.96-6.82z" class="o"/><path d="m208.28 197.29 8.63 3.01 3.21 6.76-.78 12-20.43 3.58-22.72-5.62.13-15.57 3.19-5.24 8.02-2.45 20.75 3.53z" class="o"/><path d="m242.16 123.58-2.27 57.51-24.9 1.68-9.76 12.96-15.79-4.97-4.79-9-4.36-41.75 38.24-21.54 23.63 5.11z" class="al"/><path d="m208.28 197.29-7.26-13.72-5.9-33.38-14.83-10.18 1.91 42.76 5.33 10.99 18.18 9.09 2.57-5.56zM236.64 142.79l-18.67 16.55-15.03-14.25 6.51-3.64 6.6 1.43 5.08 2.99 3.06-3.66 5.55-2.38 6.9 2.96z" class="q"/><path d="m216.05 142.88 1.92 16.46 3.3.97 2.78-1.29.14-16.81-8.14.67z" class="n"/><path d="m217.97 159.34 3.21 2.84 2.87-3.16-6.08.32zM214.99 182.77l-22.46 1.32 15.75 13.2 6.71-14.52z" class="at"/><circle cx="209.26" cy="151.12" r="2.3" class="ay"/><circle cx="230.7" cy="149.78" r="2.3" class="ay"/><path d="m216.05 142.88-1.91-3.54-11.01 2.87-.19 2.88 13.11-2.21zM224.19 142.21l1.25-3.44 10.43 1.53.77 2.49-12.45-.58z" class="r"/><path d="m242.16 123.58-47.04 26.61-13.42-12.86-1.55-22.05 42.76-6.9 3.39 7.41 8.3 1.82 7.56 5.97z" class="bd"/><path d="m195.12 150.19-14.97-34.91-18.77 46.9 33.74-11.99z" class="r"/><path d="m222.91 108.38-35.93 22.82-3.38 5.52 7.48 4.06 43.52-23.17-11.69-9.23z" class="x"/><path d="m186.98 131.2-37.15 28.18 9.64 10.35 21.58-12.87 10.03-16.08-4.1-9.58z" class="bd"/><path d="m191.08 140.78-31.61 28.95 8.81 8.94 13.38-8.12 13.46-20.36-4.04-9.41z" class="r"/><path d="m195.12 150.19-12.92 32.58-13.92-4.1 26.84-28.48z" class="bd"/><path d="m211.36 169.66 6.48 3.99 8.04-.42 4.18-4.27-18.7.7z" class="as"/><path d="m221.32 166.47-6 1.53-6.54.32 2.58 1.34 10.34 1.15 8.36-1.85 1.54-1.53-6.07.12-4.21-1.08z" class="ax"/><path d="m219.34 219.06-7.53 34.6-33.07-1.66.46-3.05-3.01-31.93 43.15 2.04z" class="af"/><path d="m205.71 202.85 1.25 15.63-2.2 2.61-2.88-2.85-1.5-18.06 5.33 2.67z" class="ap"/><path d="m201.88 218.24-4.27 34.8h2.82l6.53-34.56-5.08-.24z" class="o"/><path d="m216.91 200.3 7.12 2.3-4.69 16.46-2.43-18.76zM179.51 196.21l-8.15 2.63 5.67 27.11 2.48-29.74z" class="p"/><path d="m177.03 225.95 15.5 20.01-8.62 9.27-19.74-24.29 12.86-4.99z" class="aq"/><path d="m211.55 190.21 1.15 2.16-.76 2.63 3.05 1.67 1.92 3.63-11.02 4.85-2.95-1.83-1.09-2.7-3.96-.44-10.36-6.42 4.22-.62 3.91.62 1.94-1.49 13.95-2.06z" class="j"/><path d="m212.7 192.37-14.81 7.81 5.05 3.14 12.05-6.65-2.29-4.3z" class="ag"/><path d="m201.48 198.29-9.73-5.15 5.86-.77 3.87 5.92z" class="ag"/></g><g id="e"><path d="m275.97 159.34 35.36-6.74 19.06 7.51-35.28 10.44-19.14-11.21z" class="u"/><path d="M275.97 159.34 290.7 165l12.92 4.73 1.19 53.54-7.58 7.05-26.06-8.7.78-10.13 4.14-17.68-1.44-17.38 1.32-17.09z" class="bd"/><path d="m384.75 183.49-15.36 8.13.35-5.94 15.94-9.25-.93 7.06z" class="aq"/><path d="m384.75 160.04 3.74 21.63-3.74 1.82-4.07-17.49-.74-4.26 4.81-1.7z" class="ap"/><path d="m358.12 178.93 4.65-13.93 11.93 12.83-3.96 8.85-7.97-.58-4.65-7.17z" class="q"/><path d="m376.64 181.67-5.9 5.01-2.09-6.74 3.89-1.51 4.1 3.24z" class="at"/><path d="m345.45 167.06 9.34 32.34-12.77 1.54-3.57-4.22 7-29.66z" class="ax"/><path d="m330.39 160.11 8.06 3.72 5.52 17.84-3.23 3.63 2.67 1.94-1.39 13.7-1.02 18.44-38.11 4.22-3.25-24.45-2.04-29.55 5.4-5.36 6.79-2.6 12.83 2.98 7.77-4.51z" class="ao"/><path d="m329 175.66 2.23 35.87-4.78 1.15-1.34-42.13 3.89 5.11z" class="ax"/><path d="m366.85 90.84 4.82 54.05-32.58 3.89-13.03 8.08-12.73-5.93-19.05-25.34 13.68-28.05 31.51-15.38 17.68 3.95 9.7 4.73z" class="al"/><path d="m331.43 153.57-6.42-3.12-4.99-58.8-15.59 5.89-10.15 28.05 4.68 10.89 3.36.85.68 8.54 6.79 15.77 16.85 3.36 3.75-4.89 1.04-6.54zM364.94 103.42l-21.9 20.16-15.4-15.96 5.33-4.98h5.48l5.61 4.34 3.32 2.93 1.79-3.57 4.09-4.85 5.23-1.4 6.45 3.33z" class="q"/><path d="m344.06 106.98-1.02 16.6 5.56 1.33 5.1-2.17-4.53-16.4-5.11.64z" class="n"/><path d="m343.04 123.58 5.33 3.63 5.33-4.47-10.66.84zM336.2 132.49l24.33-2.29-3.86 8.43-13.95 1.38-6.52-7.52z" class="at"/><path d="m341.5 134.35 14.9-1.45-1.15 3.34-11.31 1.09-2.44-2.98z" class="aj"/><path d="m339.09 148.78-24 2.75 15.3 8.58 8.7-11.33zM298.96 136.48l8.08-2.69-4.04 12.08-4.04-9.39zM297.6 127.21l4.4-2.23 1.62 6.22-6.02-3.99z" class="at"/><path d="m327.64 107.62-.55-2.17 5.61-4.98 5.62-.38.13 2.55-5.75 1.53-5.06 3.45zM353.26 101.49l.12-2.94 5.75-.64 6.64 3.71-.83 1.8-6.45-2.31-5.23.38zM320.56 97.91l-7.71 9.71 2.24 6.25 2.73 14.45-5.8 2.88-6.25-10.69-12.7-.75-2.37-11.38 16.34-16.73 13.52 6.26z" class="s"/><path d="m320.56 97.91-27.49 21.85 1.21 5.83 11.49-5.08 9.32-6.64 5.47-15.96z" style="fill:#5f5044;fill-rule:evenodd;stroke-width:0"/><circle cx="336.4" cy="113.11" r="2.68" class="ay"/><circle cx="357.47" cy="111.06" r="2.68" class="ay"/><path d="m357.15 87.85 3.19-16.3-36.38-10.72-1.98 6.15-9.13-4.56-7.66 1.09 1.15 20.11 13.68 8.03 37.13-3.8z" class="j"/><path d="m305.19 63.51-4.58 5.39-1.35 8.46-4.98-1.02-3.58 32.04 29.32-16.73-14.83-28.14zM323.96 60.83l24.99 30.32v2.95l-9.86 1.2-2.64-4.15-23.6-28.73 11.11-1.59z" class="ag"/><path d="m294.28 76.34 6.25 26.43 9.18-5.23-9.1-28.64-6.33 7.44z" style="fill:#1e6245;fill-rule:evenodd;stroke-width:0"/><path d="m312.85 78.04-22.15 30.34 29.86-10.47V87.73l-7.71-9.69z" class="aa"/><path d="m315.87 85.84-9.06 8.12 1.15 3.58 10.41-5.27v-3.1l-2.5-3.33z" style="fill:#343c4b;fill-rule:evenodd;stroke-width:0"/><path d="m360.34 71.55-47.49 6.49 7.71 19.87 18.53-2.61 3.36-6.45 6.5 5.25 17.9-3.26-6.51-19.29z" style="fill:#51596a;fill-rule:evenodd;stroke-width:0"/><path d="m320.32 81.8 19.15-2.11-3.02 11.46-12.78 1.95-3.35-11.3zM342.63 79.21l14.46-2.3 4.02 10.92-11.68 1.44-6.8-10.06z" class="w"/><path d="m309.79 161.64 20.6-1.53-1.39 15.55-19.21-14.02z" style="fill:#bbbfc6;fill-rule:evenodd;stroke-width:0"/><path d="m342.97 181.67-9.37 1.14 1.02 4.85 8.79-.42-.44-5.57z" class="p"/><path d="m338.45 163.83 4.96 23.41 2.04-20.18-7-3.23zM293.51 167.87l9.49-3.63-4.43 33.7-5.06-30.07z" class="aq"/><path d="m354.79 183.49-12.77 17.45 17.11 6.66 11.61-20.92-15.95-3.19z" class="ao"/><path d="m354.79 183.49 11.42 11.36 4.53-8.17-7.13-4.38-2.25-3.87-3.24.5-3.33 4.56z" class="ax"/><path d="m371.7 178.43-2.23 37.37h-4.64l1.91-29.12.53-8.25h4.43z" class="s"/><path d="m358.12 158.37 16.33-3.93 1.25 5.67-1.76 4.13h-13.41l-2.41-5.87z" class="ac"/><path d="m374.45 154.44 10.3 5.6-4.07 5.96-5.98-1-2.11-2.49 1.86-8.07z" class="p"/><path d="m364.83 163.62 7.76-1.11 1.35 6.03-2.36 11.98-4.52 1.15-2.18-5.83-.05-12.22z" class="al"/><path d="m372.59 162.51 8.09 3.49-4.04 15.67-5.06-1.15 1.01-18.01zM364.88 175.84l-1-2.42-.03-2.87-3.32-6.31 4.3-.62 2.4 6.93-2.35 5.29z" class="q"/><path d="m358.12 178.93-2.75-6.84 5.16-7.85 6.7 6.31-3.35 2.87-2.85-1.03 2.58 9.91-5.49-3.37z" class="al"/><path d="m284.67 205.15 15.86 4.24.08-17.02-9.91-4.08-6.03 16.86z" class="ag"/><path d="m290.7 167.88-6.03 16.79 4.24 4.79 5.66-17.69-3.87-3.89zM312.85 175.53l1.84 16.09-5.07 3.78-1.66-16.97 4.89-2.9z" class="o"/><path d="m283 189.32 20 13.53 12.09-7.81-.4-3.42-9.53 5.35-20.49-12.3-1.67 4.65z" class="ap"/><path d="m304.49 189.96 2.32 24.13-6.28-4.7-3.3-19.43h7.26z" class="s"/><path d="m290.7 165-1.08 5.88 9.51 2.39 1.48-2.22v-2.03l-1.35-6.51-8.56 2.49z" class="ac"/><path d="m299.26 162.51 10.53 4.55-2.98 7.07-7.68-.86.13-10.76z" class="p"/><path d="m298.09 194.99-8.94-2.37-1.2-17.09 11.31-4.98-1.17 24.44z" class="q"/><path d="m299.26 170.55 13.59 4.98-3.49 17.23-11.27 2.23 1.17-24.44z" class="al"/><path d="m274.65 176.43 8.35 2-4.04 34.18-7.01-1.12 1.31-16.97 1.68-4.56-1.2-1.67.91-11.86z" class="u"/><path d="m283 178.43-9.26 9.86-.48 6.23 9.74-16.09z" class="aa"/></g><g id="f"><path d="m385.68 195.4-2.94 10.94-11.07 36.72 53.17 11.48 3.29-60.73-42.45 1.59z" class="w"/><path d="m422.38 200.94 2.46-5.34 25.16-.2 12.17 53.6-44.44 8.85 4.65-56.91zM398.72 197.37l5.09-1.97 3.7 3.29-9.25 52.46-13.37-3.78 2.65-22.8 11.18-27.2zM417.73 197.17l-5.78 22.13 2.89-23.7 2.89 1.57z" class="z"/><path d="m428.13 198.16 9.04 47.61 8.51-3.95-9.89-46.78-7.66 3.12z" class="bd"/><path d="m385.68 195.4 35.61-8.72L450 195.4l-27.62 5.54-36.7-5.54z" class="ak"/><path d="M192.55 235.78h70.96l-5.64 40.96-75.67-8.91 10.35-32.05z" class="u"/><path d="m254.49 243.06 16.68-10.72 36.79.14 9.98 35.82-60.07 8.44-3.38-33.68zM205.33 237.28l-9.97 32.1 14.31 1.68 3.29-32.88 2.71-3.16-10.34 2.26zM224.1 239.49l-1.37 12.9-1.02 20.09-8.75-1.03 9.77-35.15 1.37 3.19zM232.36 240.46l-3.6 32.85 7.67.9 5.73-36.83-9.8 3.08z" class="z"/><path d="m266.88 240.61 5.68 34.06 10.44-1.46-11.83-37.43-4.29 4.83zM281.93 237.63l8.89 34.48 16.4-2.3-11.6-34.89-13.69 2.71z" class="bd"/><path d="m192.55 235.78 78.62-14.16 36.79 10.86-53.47 10.58-61.94-7.28z" class="ak"/><path d="m286.8 250.99-102.89 25.24 48.76 12.31 77.31 10.97 29.83-5.73 113.54 4.88 23.5 8.74 69.39-19.05 56.35-17.57-21.46-23.41-68.54-17.05-73.06 16.05-96.23 20.33-56.5-15.71z" style="fill:#9a9fa9;fill-rule:evenodd;stroke-width:0"/><path d="m232.67 288.54-9.94-9.37 97.81-18.8 10.12-1.18 4.54 5.26-102.53 24.09zM307.22 257.23l-105.47 17.44 10.53 3.53 94.94-20.97zM271.17 291.94l13.77 3.68 54.87-15.14-2.77-4.25-8.42 1.12-57.45 14.59zM537.89 233.69l19.68 6.57-91.72 17.59-3.68-8.85 75.72-15.31zM569.53 244.49l-99.47 24.89 6.79 5.53 92.68-30.42zM453.35 298.66l41.92-9.33-28.74 14.23-13.18-4.9zM581.13 247.37l7.82 3.08-56.87 24.46 8.87-8.81 40.18-18.73z" class="ah"/><path d="m286.8 250.99 13.73-41.6h54.22l-3.15 22.95 5.55 40.14-30.16-9.22-4.76-6.03-7.41 2.32-7.6-2.32-1.73-4.84-6.23 2.4-12.46-3.8z" class="u"/><path d="m348.38 215.8 6.37-7.97 27.99-1.49 14.05 53.36-39.64 12.78-8.77-56.68zM299.26 254.79l16.89-43.3-8.93 45.74-7.96-2.44zM327.76 213.04l-12.94 46.51 12.17 3.71 8.21-49.22-1.86-2.55-5.58 1.55z" class="z"/><path d="m359.13 212.85 8.97 50.88 14.26-2.55-18.25-53.35-4.98 5.02zM371.67 209.39l14.01 49.8-9.8-50.96-3.29-.4-.92 1.56z" class="bd"/><path d="m300.53 209.39 41.49-8.45 40.72 5.4-34.36 9.46-47.85-6.41z" class="ap"/><path d="m532.08 211.15 68.53 2.04-19.48 34.18-11.6-2.88-5.03-7.53-3.99 5.29-5.26-1.31-3.74-5.92-8.41 2.89-30.51-7.59 19.49-19.17z" class="w"/><path d="m585.79 221.02 21.16-10.04 41.84.17 8.17 28.26-75.83 7.96 4.66-26.35zM552.3 214.86l-9.2 23.05 12.15 3.03 9.25-23.83-1.76-3.92-10.44 1.67zM568.7 217.88l-8.19 24.37 9.02 2.24 3.73-28.69-4.56 2.08z" class="z"/><path d="m604.3 218.12 6.76 23.67 17.98-4.47-5.68-24.13-19.06 4.93zM629.04 214.24l7.62 27.55 5.78-.85-13.4-26.7z" class="bd"/><path d="m532.08 211.15 62.71-8.63 54 8.63-63 9.87-53.71-9.87z" class="ap"/></g><g id="g"><path d="m824.89 234.21-84.51 2.09-10.68 33.87 53.05 9.67 7.68-4.2 2.52 6.06 13.89 2.54 18.05-50.03z" class="w"/><path d="m814.49 243.49 6.7-9.18 29.81-.1 9.7 41.23-11.28 1.84-7.68-4.75.04 6-8.01 1.31-4.47-4.2-3.83 5.55-18.63 3.05 7.65-40.75zM792.95 281.7l9.54-39.38-2.3-5.36-5.39 4.62-12.05 38.26 10.2 1.86zM785.39 240.67l-12.33 37.41 6.64-37.97 3.64-2.28 2.05 2.84z" class="z"/><path d="m821.19 241.79 4.28 39.4 8.3-1.35-7.54-42.01-5.04 3.96zM832.08 239.02l9.7 39.51 7.64-1.25-15.65-40.98-1.69 2.72z" class="bd"/><path d="m851 234.21-51.29-18.81-30.41 5.62-49.83 9.3 20.91 5.98 74.11 7.19 36.51-9.28z" class="ap"/><path d="m795.79 290.03-22.62 4.51-37.4-4.83 26.42-8.52 12.3-19.02 35.14 7.21 4.86-25.89 36.51-9.28 7.13 30.32 24.4 10.14-21.83 11.04-64.91 4.32zM795.79 307.4l-15.13 5.81-60.92 5.68 53.59-19.04 22.46 7.55zM656.96 314.54l-29.92-3.99 39.63-13.52 26.19 3.34-9.12 9.3-26.78 4.87zM675.21 334.55l-84.7 8.15 58.28-20.31 9.14-2.48 23.28 4.83-6 9.81zM479.77 332.94 456.28 327l-30.07 17.81 45.64-2.76 7.92-9.11zM560.27 322.07l-59.04 2.19 43.22-11.05 31.51.62 16.32 1.74-32.01 6.5zM339.81 313.18l-44.19 1.18 32.55-11.83 17.28 5.33-5.64 5.32zM233 291.94l-30.71 1.2 28.4-11.68 19.86 2.88-3.76 6.21-13.79 1.39zM275.97 322.71l-21.48 8.32-42.04 1.91 31.66-16.41 31.86 6.18zM171.36 301.71l-33.98 5.69-31.53-2.33 29.3-13.13 21.89 1.93 14.32 7.84zM477.43 267.44l-19.42 2.54-43.17 11.25 21.6 11.14-37.14 12.7 67.23-1.51 14.4-7.11 7.54-.66L504.95 274l-27.52-6.56z" class="aw"/><path d="m570.63 267.64 10.5-20.27 143.09-7.11-22.58 59.98-15.02-3.74-1.81-5.41-3.6 4.07-3.49-.87-5.7-8.58-6.68 5.5-94.71-23.57z" class="w"/><path d="m706.23 258.11 9.54-23.68 53.53-13.41 8.17 64.69-21.27 4.08-4.81-4.08-4.71 5.9-5.14.99-8.5-4.25-4.06 6.65-27.34 5.24 4.59-42.13zM641.15 247.37l-6.62 35.78-13.84-3.05 13.84-36.61 6.62 3.88zM673.09 249.95l-7.75 41.26 12.38 3.08 6.81-47.92-11.44 3.58zM688.22 256.25l-7.01 38.91 5.41 1.34 1.6-40.25z" class="z"/><path d="m728.98 295-9.51-48.63 4.75-6.11 17.32 52.34-12.56 2.4zM746.68 291.61l-11-53.49 7.58-7.8 12.94 59.47-9.52 1.82zM751.39 230.13l12.31 58.22-7.5-60.67-4.81-1.45v3.9z" class="bd"/><path d="m769.3 221.02-72-5.22-116.17 31.57 125.1 10.74 63.07-37.09z" class="ak"/><path d="m103.11 269.38 13.46-49.62 30.64-1.79-17.74 59.38-26.36-7.97z" class="w"/><path d="m138.15 223.34 3.38-5.04 24.96 1.46 20.21 46.4-57.23 11.19 8.68-54.01zM112.5 272.22l12.13-51.13-4 53.58-8.13-2.45z" class="z"/><path d="m145.67 222.39 4.97 50.82 7.44-1.46-8.93-49.8-3.48-2.19v2.63zM154.14 221.32l9.84 49.28 10.22-2-20.06-47.28z" class="bd"/><path d="m116.57 219.76 25.66-7.15 24.26 7.15-28.34 3.58-21.58-3.58z" class="ak"/><path d="m147.21 262.17 58.12.91-1.69 30.06-16.94-1.51-2.79-1.84-3.62 1.28-14.45-1.28-4.71-4.22-5.64 3.3-18.11-1.6 9.83-25.1z" class="w"/><path d="m197.61 267.83 2.33-8.81 22.79-6.63 9.94 36.15-9.5 1.51-6.22-2.53-1.87 3.8-11.44 1.82-6.03-25.31zM162.33 263.87l-6.84 25 10.35.92 3.05-25.19v-2.43l-6.56 1.7zM174.2 265.2l-1.57 25.19 7.66-24.51-2.57-2.8-3.52 2.12zM187.53 266.7l-7.24 24.37 6.41.56.83-24.93z" class="z"/><path d="m208.62 261.06 6.46 30.26 8.09-1.27-11.42-30.91-3.13-2.16v4.08zM201.75 265.29l7.92 26.65-4.34-28.86-1.69-.91-1.89 3.12z" class="bd"/><path d="m147.21 262.17 31.99-13.22 43.53 3.44-25.12 15.44-50.4-5.66z" class="ap"/><path d="m555.23 267.64-8.48 29.72 45.53 18.21 12.02 4.34 4.98-26.13v-19.44l-54.05-6.7z" class="w"/><path d="m576.3 269.38-6.77 37.1 13.62 5.44 2.64-19.32 4.34-20.07-13.83-3.15zM572.89 270.38l-8.39 28.28 2.27-31.02 6.12 2.74zM600.61 281.23l12.01-10.85 46.06-8.21 9.77 42.59-14.02 3.31-5.71-3.31-4.78 5.79-11.48 2.71-3.46-4.83-1.96 6.11-22.74 5.37-3.69-38.68z" class="z"/><path d="m654.43 308.07-12.22-43.54-5.55 3.11 7.28 42.91 10.49-2.48zM625.17 267.64l7.29 45.62-5.42 1.28-11.3-42.01 9.43-4.89z" class="bd"/><path d="m555.23 267.64 26.84-9.06 13.62-4.94 27.66 5.22 35.33 3.31-58.07 19.06-45.38-13.59z" class="ak"/><path d="m488.47 276.23-11.62 31.17 8.73 6.04 5.52-3.29.77 7.64 9.36 6.47 18.25-23.57-13.55-14.48-17.46-9.98z" class="w"/><path d="m498.17 282.96-12.59 30.48 6.29 4.35 9.36-28-3.06-6.83zM585.79 292.6l6.49 22.97-12.81 1.23-9.94-3.97-8.2 5.7-25.21 2.4-7.15-5.61-8.21 7.07-19.53 1.87 7.2-22.22 24.22-9.44h53.14z" class="z"/><path d="m526.03 292.6-5.27 29.79 15.36-1.46-3.47-25.33-6.62-3zM541.13 292.6l5.62 27.31 2.4-27.57-8.02.26zM557.57 292.34l3.76 26.19 18.14-1.73-13.09-25.8-8.81 1.34z" class="bd"/><path d="m488.47 276.23 50.55-6.85 46.77 23.22-77.36 9.44-19.96-25.81z" class="ak"/><path d="m557.3 332.32 13.33 4.17 2.26-2.3 1.18 3.37 16.44 5.14 16.44-20.31-42.45-14.9-7.2 24.83z" class="w"/><path d="m594.79 327 17.83-13.79 44.34 1.33 4.02 15.72-15.44 2.72-5.05-4.36-3.83 5.93-18.28 3.23-5.76-3.23-3.34 4.84-18.77 3.31 4.28-15.7zM575.14 311.92l-4.51 24.57 3.44 1.07 9.08-21.12-8.01-4.52z" class="z"/><path d="m606.95 322.39 2.33 17 9.1-1.61-5.71-15.39h-5.72zM615.74 321.26l8.36 15.51-3.41-16.86-4.95 1.35zM630.34 318.53l6.32 16.02 8.88-1.57-3.9-17.28-11.3 2.83z" class="bd"/><path d="m564.5 307.49 65.14-11.87 27.32 18.92L594.79 327l-30.29-19.51z" class="ap"/><path d="m394.81 321.06-6.51 16.5 6.56 1.26 8.54-3.78v5.41l22.81 4.36 9.39-10.53.92-9.18-41.71-4.04z" class="w"/><path d="m430.81 327 3.25-6.13 22.22-2.34 11.68 19.03-9.95 1.73-3.81-2.69-.47 3.43-3.73.65-5.92-1.5-1.99 2.87-15.88 2.76 4.6-17.81zM394.86 338.82l8.01-16.43 5.34-1.33 3.74 2.83-8.55 16.56-8.54-1.63zM417.12 324.74l-3.59 17.64 11.53-16.33-1.72-1.79-6.22.48z" class="z"/><path d="m442.09 342.05-5.57-16.95v-2.71l2.79 1.78L450 340.68l-7.91 1.37zM453.73 340.03l-6.64-18.45 10.92 17.71-4.28.74z" class="bd"/><path d="m394.81 321.06 26.62-9.14 34.85 6.61-25.47 8.47-36-5.94z" class="ar"/><path d="m259.04 307.28 7.84-18.98 37.93 1.49-9.19 24.57-12.59-2.44-2.53-2.49-2.12 1.59-4.51-.87-2.32-3.45-2.4 2.53-10.11-1.95z" class="w"/><path d="m295.62 314.36 12.77-2.09 4.2-5.19 7.04 3.34 11.03-1.8-6.31-23.88-21.65 1.28-4.98 9.77-2.1 18.57zM269.15 309.23l4.97-19.17 8.67-1.76v3.86l-8.92 17.99-4.72-.92zM278.38 311.02l8.42-17.88-3.77 18.78-4.65-.9z" class="z"/><path d="m308.39 312.27-2.16-20.12 1.08-2.36h4.46l7.86 20.63-11.24 1.85z" class="bd"/><path d="m266.88 288.3 28.74-9.56 28.73 6-26.63 11.05-30.84-7.49z" class="ak"/><path d="m171.09 321.06 6.63-18.53 48.99 5.9-14.26 24.51-21.78-6.25-1.9-5.63-6.57 3.2-11.11-3.2z" class="w"/><path d="m216.53 314.36 2.44-6.87 29.22-4.96 9.68 23.2-9.98 1.58-5.73-4.84-2.89 6.21-26.82 4.26 4.08-18.58zM182.2 324.26l8.12-17.89h5.02v1.53l-4.67 18.79-8.47-2.43zM202.71 310.15l-5.1 18.53 12.06-16.41-2.33-2.12h-4.63z" class="z"/><path d="m222.73 309.3 6.17 21.02 1.79-21.25-7.96.23zM236.43 306.93l2.84 21.75 8.62-1.37-5.73-22.53-5.73-2.25v4.4z" class="bd"/><path d="m177.72 302.53 34.73-6.74 35.74 6.74-31.66 11.83-38.81-11.83z" class="ak"/><path d="m41.51 293.14 8.3-35.29 78.16 8.85-22.12 38.37-14.18-2.63-2.86-5.59-8.3 3.52-5.34-.99-2.64-3.59-5.11 2.15-5.91-1.09-1.81-3.17-3.9 2.11-14.29-2.65z" class="w"/><path d="m116.57 269.38 4.98-7.09 25.66-.12 11.49 37.05-13.03 1.45-8.8-5.07-8.03 6.93-22.99 2.54 10.72-35.69zM55.8 295.79l11.45-34.93 6.81-3.01 4.98 5.23-17.53 33.77-5.71-1.06zM80.51 300.37l14.35-34.74 6.01-2.55 2.24 3.97-11.46 35.48-11.14-2.16zM67.42 297.94l17.79-33.98-10.04 35.42-7.75-1.44z" class="z"/><path d="m124.63 267.48 4.21 35.05 16.83-1.86-8.48-36.14-8.74-1.45-3.82 4.4z" class="bd"/><path d="m49.81 257.85 45.51-6.49 51.89 10.81-30.64 7.21-66.76-11.53z" class="ak"/><path d="m328.62 277.35 22.34-44.87 80.3 2.54-31.96 62.11-22.32-6.25.95-4.82-7.45 3-10.84-3.03-2.17-3.65-2.72 2.28-3.72-1.04-5.05-7.64-6.17 4.5-11.19-3.13z" class="w"/><path d="m399.3 297.13 32.76-5.77 4.46-5.65 6.74 3.68 3.83-.68 5.46-3 3.73 1.38 5.89-1.03 1.77-4.83 6.12 3.44 9.71-1.71-7.92-52.64-40.59 2.02-11.97 14.03-19.99 50.76zM364.53 235.02l-9.78 49.64 4.89 1.37 18.29-48.23v-5.46l-13.4 2.68zM386.16 239.5l-15.68 49.56 6.5 1.82 22.32-49.09-4.44-8.1-8.7 5.81zM351.03 283.62l5.93-34.62-17.15 31.48 11.22 3.14z" class="z"/><path d="m436.52 241.11 6.74 48.28-11.2 1.97-5.85-51.87 10.31 1.62zM452.55 236.3l9.62 49.76 7.89-1.39-17.51-48.37zM444.91 238.55l11.37 48.54-9.19 1.62-5.26-49.22v-4.47l3.08 3.53z" class="bd"/><path d="m350.96 232.48 60.99-13.18 59.9 11.02-52.56 16.05-68.33-13.89z" class="ak"/><path d="m339.81 293.78 8.57-21.25 63.57 3.45-12.65 29.09-21.37-4.05-2.96-5.23-4.96 3.72-7.55-1.43-2.44-5.48-5.27 4.01-14.94-2.83z" class="w"/><path d="m403.4 281.23 21.44-11.85 24.21 3.15 4.3 26.13-13.34 1.58-6.9-3.11-2.27 4.2-6 .71-4.05-4.59-3.06 5.44-18.43 2.18 4.1-23.84zM354.75 296.61l10.74-26.01 4.68 5.38-7.71 22.1-7.71-1.47zM370.01 299.51l9.93-21.86-2.01 23.37-7.92-1.51z" class="z"/><path d="m424.84 302.04-5.55-23.84-1.56 24.69 7.11-.85zM430.84 301.33l-4.63-24.59 2.32-4.26 11.48 27.76-9.17 1.09z" class="bd"/><path d="m348.38 272.53 30.11-8.8 31.35 6.65 19.22-5.65 19.99 7.8-45.65 8.7-55.02-8.7z" class="ar"/><path d="m686.78 292.53-3.04 17.14 11.04 2.83 3.32-2.83 1.89 4.16 5.21 1.34 3.05-1.86.78 2.84 10.71 2.74 9.77-15.51-42.73-10.85z" class="w"/><path d="m722.04 309.29 17.15-12.26 33.98-2.49 4.1 15.13-7.5 1.2-5.22-1.78-3.18 3.13-6.26 1-4.35-1.64-1.51 2.58-5.17.83-4.23-2.77-2.99 3.93-17.12 2.74 2.3-9.6zM694.78 312.5l3.5-14.56 5.95-2.07.97 5.37-5.21 12.59-5.21-1.33zM705.2 315.17l4.01-12.01 3.64-1.92-3.82 14.91-3.83-.98z" class="z"/><path d="m736.86 316.15-2.57-14.91 5.56-1.39 4.23 15.14-7.22 1.16zM749.25 314.16l-5.17-17.13 11.03 16.19-5.86.94zM755.11 299.75l6.26 12.47 8.4-1.35-8.67-16.33-5.99 5.21z" class="bd"/><path d="m686.78 292.53 55.62-21.75 30.77 23.76-51.13 14.75-35.26-16.76z" class="ba"/></g><g id="h"><path d="m555.23 267.64 38.34-.98 29.73-7.82-17.23-5.76-24.04 5.48-26.8 9.08zM504.91 273.98l9.57 2.22 26.61 5.01 11.69-5-13.8-6.85-34.07 4.62z" class="aw"/><path d="m484.43 184.91 28.16 16.6 10.43-5.91-1.43-12.79-14.38-2.51-22.78 4.61z" class="r"/><path d="m491.1 127.66 19.84-7.85 24.09-6.02 9.42 6.99-25.75 15.08-19.59-2.46-8.01-5.74z" class="z"/><path d="m507.82 131.07-16.72-3.41-1.44 12.35 3.96 15.21-8.04 19.78-1.15 9.91 32.69 4.37.91-43.92-10.21-14.29z" class="bd"/><path d="m485.58 175 17.03 1.03.34-9.55 2-24.99-15.29-1.48-4.08 34.99z" class="r"/><path d="m484.43 134.96-7.58-15.73-9.33 4.39-3.58 9.45 14.36 9.56 6.13-7.67z" class="q"/><path d="m476.85 119.23-12.91-11.91-5.75 10.01 5.75 15.74 12.91-13.84zM481.17 139.34l-4.32-7.28v-18.27l3.36-1.96 4.22 11.79 1.91 9.78-5.17 5.94z" class="al"/><path d="m507.82 131.07-16.72 25.44 11.85 9.97 12.07-4.84 5.74-9.09-7.31-14.74-5.63-6.74z" class="ae"/><path d="m620.93 144.64 2.02 10.58-4.1 7-3.11-11.42 4.68-9.31.51 3.15z" class="ap"/><path d="m618.98 168.06 3.97-3.06-.21-6.06-5.55-1.98-12.89 1.42-2.02 11.79 12.3 5.86 4.4-7.97z" class="q"/><path d="m615.94 258.58 7.41.28-5.17-113.5h-7.12l2.75 110.57 2.13 2.65z" class="s"/><path d="m626.28 155.39.76 14.35-11.3 4.89-1.4-5.19.81-8.64 7.8-5.58 3.33.17z" class="al"/><path d="m622.95 155.22-5.22 10.27-3.39 3.95-.53-2.33 4.56-12.12 4.58.23z" class="q"/><path d="m615.74 146.23-3.12 8.99-1.02 19.39-5.49-2.61 3.13-19.45 1.82-7.19 4.68.87z" class="ak"/><path d="m611.46 161.52 2.35 5.59 3.92-1.62.64-10.5-9.13-2.44-4.94 5.83-1.91 5.31 9.07-2.17z" class="al"/><path d="m602.3 137.81 15.37-1.95 3.02 6.68-2.31 5.61-13.75-2.79-2.33-7.55z" class="ac"/><path d="m617.67 135.86 11.37 3.21-1 6.29-9.66 2.79-.71-12.29z" class="p"/><path d="m591.72 159.58 12.58-1.2-2.02 18.95-26.32 2.97 5.77-18.27 9.99-2.45z" class="af"/><path d="m585.79 130.14 5.93 29.44-15.76 20.72-6.43-6.68 2.02-26.05 14.24-17.43z" class="ae"/><path d="m576.3 189.28 18.49 13.24-14.43 20.88-27.66-2.77 11.36-28.43 12.24-2.92z" class="az"/><path d="m594.79 202.52 2.84 23.08-15.16 10.7-9.58-2.77-4.22-7.3 26.12-23.71z" class="ba"/><path d="m572.18 193.03 16.77 14.79-3.16 6.97-4.06-.42-20.4-13.08 10.85-8.26zM563.84 209.39l12.46 9.91-2.55 4.81-5.08 2.12-15.97-5.6 1.2-18.11 9.94 6.87z" class="k"/><path d="m534.2 266.62-15.97 5.91-3.27-6.06 1.52-10.6 4.87-2.23 7.62 1.82 5.23 11.16z" class="aa"/><path d="m516.48 255.87 6.42-2.34 6.07 1.93-13.39 6.71.9-6.3z" class="am"/><path d="m541.13 276.23-.18-10.13-14.96-1.57-6.46 6.59-4.57-4.65-.44 9.75 26.61.01z" class="x"/><path d="m550.83 188.28 1.87 32.35-14.81 25.74-9.09 6.73-17.34-6.73 1.13-44.86 6.6-23 31.64 9.77z" class="az"/><path d="m544.85 215.27-12.53 32.72-6.29-.19 9.89-43.33 8.93 10.8zM530.2 191.08 521.32 249l-5.59-1.92 3.55-60.4 10.92 4.4z" class="k"/><path d="M537.89 246.37h-26.43l-.24 9.56 21.92-.53 4.75-9.03zM562.49 212.48l-9.79 8.15-7.85-5.36 8.74-17.11 8.9 14.32z" class="ag"/><path d="m564.35 131.47 10.78 26.91 1.17 30.9-13.81 23.2-8.59-9.96-9.05 12.75-32.26-13.76 2.74-45 2.7-22.01 10.22-10.88 36.1 7.85z" class="aq"/><path d="m552.58 159.06-8.7 30.27 9.53 6.27 9.14-7.32-9.97-29.22z" class="bd"/><path d="m562.55 188.28-18.67 1.05 10.02 13.19 8.65-14.24zM562.55 146.33l-9.97 12.73-9.84-13.6 10.53-2.92 9.28 3.79z" class="r"/><path d="m573.19 124.6 12.6 5.54-10.66 28.24-5.6-19.97 3.66-13.81z" class="j"/><path d="m553.27 142.54-11.22-12.76-13.8-6.16.08 35.96 24.94-17.04z" class="ae"/><path d="m573.19 124.6-17.71 9.43-2.21 8.51 21.86 15.84-1.94-33.78z" class="ae"/><path d="m528.25 123.62-20.43 7.45 7.2 30.57 13.23-38.02z" class="j"/><path d="m536.12 117.33 7.62 8.94 9.53 16.27-25.02-18.92 7.87-6.29zM570.62 105.7l2.57 18.9-12.51 11.26 1.9-15.05 8.04-15.11z" class="af"/><path d="m593.16 111.83-22.54-6.13-.77-6.68 4.49-7 8.72 6.46 10.1 13.35z" class="ag"/><path d="m499.11 60.84 8.1 20.91 1.22 25.57-5.99-5-5.65-1.79-5.69-3.32 3.2-31.83.97-3.98 3.84-.56z" class="bc"/><path d="m503.91 80.88-7.12 19.65 11.64 6.79-.45-7.93-4.73-2.44 1.97-5.66-1.31-10.41z" class="ap"/><path d="m499.11 60.84 11.83 58.97 25.18-2.48L555 130.55l19.34-38.53-28.1-29.58-30.52-17.29-16.61 15.69z" class="al"/><path d="m521.59 48.48-22.63 12.5 8.48-11.25 8.46-7.06 5.11 1.86.58 3.95z" class="at"/><path d="m524.41 88.98 5.29-17.71 5.33-8.7-12.01-1.16-.71 5.4 2.1 22.17zM517.12 67.38l-2.66-4.78-10.6 4.38 14.84 15.18-1.58-14.78z" class="q"/><path d="m519.48 89.55 2.95 3.15 1.98-3.72-4.93.57z" class="at"/><path d="m546.24 62.44 7.31 52.51-9.97 7.21-7.46-4.83 17.15 25.21 7.41-6.68 9.94-30.16-.77-6.68 4.49-7-28.1-29.58z" class="q"/><path d="m517.12 67.38 2.36 22.17 4.93-.57-2.1-22.17-5.19.57z" class="n"/><path d="m546.24 62.44 9.7 18.86 10.4 7.76-11.71 3.66 15.99 12.98 3.72-13.68-10.1-12.74-18-16.84z" class="at"/><path d="m514.46 62.6-6.83-1.7-3.77 6.08 10.6-4.38zM523.02 61.41l5.35-2.94 6.66 4.1-12.01-1.16z" class="k"/><path d="m510.27 100.7 14.44 10.4 15.18-13.44-29.62 3.04z" class="aq"/><path d="m514.02 101.23 9.43 1.01 12.67-3.43-8.63 6.89-5.83.55-7.64-5.02z" class="aj"/><path d="m510.27 100.7 12.68-3.16 16.94.12-16.47 5.04-13.15-2z" style="fill:#446125;fill-rule:evenodd;stroke-width:0"/><path d="m556.83 73.59-2.2 19.13 24.11 3.93-5.51-7.08-13.12-1.6 1.63-10.49-4.91-3.89z" class="ae"/><path d="m536.12 117.33 25.91-3.54-16.56 17.28-9.35-13.74z" class="at"/><path d="m546.24 62.44 33.92 14.53 22.43 17.4-9.43 17.46-46.92-49.39zM548.79 56.23l23.71-24.52 34.13 36.03-57.84-11.51zM606.63 67.74l14.3 15.55-18.34 11.08-.31-15.8 4.35-10.83z" class="k"/><path d="m515.72 45.15.38-5.28 7.78-11.37 48.62 3.21-17.56 23.19-39.22-9.75z" style="fill:#84c8ab;fill-rule:evenodd;stroke-width:0"/><path d="M515.72 45.15 494.3 65.38l-12.88-12.02 42.46-24.86-8.16 16.65zM515.72 45.15l86.87 49.22 4.04-26.63-90.91-22.59z" class="az"/><path d="M507.21 75.69c-.12 1.72 1.17 3.21 2.89 3.34s3.21-1.17 3.34-2.89-1.17-3.21-2.89-3.34-3.21 1.17-3.34 2.89ZM527.7 72.63c-.12 1.72 1.17 3.21 2.89 3.34s3.21-1.17 3.34-2.89-1.17-3.21-2.89-3.34-3.21 1.17-3.34 2.89Z" class="av"/><path d="m588.95 207.82 2.77 23.38-4.77 3.01-5.22-19.84 7.22-6.55zM576.3 219.3l3.17 15.72-6.58-1.49-4.22-7.3 7.63-6.93z" class="bc"/><path d="m599.71 242.32-5.58 14.53-12.75-6.79-.98-10.23 11.88-2.51 7.43 5z" class="aa"/><path d="m593.61 238.31-12.48 9.06-.6-6.23 3.3-2.64 9.78-.19z" class="am"/><path d="m592.88 254.44-11.5-4.38.69 8.52h33.87l1.73-9.41-17.96-6.85-6.83 12.12z" class="x"/><path d="m597.63 225.6-24.74 7.93 4.77 8.26 21.4-4.67-1.43-11.52z" class="ag"/><path d="m502.95 166.48-16.61-33.08-16.28 13.22 15.89 25.18 17-5.32z" class="af"/></g><g id="i"><path d="m344.34 334.34 10.1-2.12 13.3 2.89-14.93 1.21-8.47-1.98zM321.34 340.45l7.54-.42 10.93 2.02-11.96 2.76-6.51-4.36zM280.7 287.27l6.92-1.35 11.64 1.35-12.27 3.28-6.29-3.28zM401.1 235.02l10.31 2.36 9.88-2.36-10.7-2.68-9.49 2.68zM612.67 311.92l10.55-3.05 11.31 3.35-12.4 3.48-9.46-3.78zM677.43 238.59l13.98-4.12 14.53 4.12-13.53 3.55-14.98-3.55z" class="aw"/><path d="m335.45 308.85 16.05-4.99 16.24 4.1-16.15 10.5-16.14-9.61z" class="o"/><path d="m346.02 312.14 5.57-4.28 7.05 5.34-6.31 2.3-6.31-3.36z" class="ab"/><path d="m355.73 328.96-2.92 7.36-2.63-14.72 5.55 7.36z" class="k"/><path d="m335.45 308.85 20.28 20.11 1.43-12.1-4.56-4.04-17.15-3.97z" class="ac"/><path d="m352.6 312.82 15.14-4.86-12.01 21-3.13-16.14z" class="p"/><path d="m316.14 322.61 13.85-6.12 14.35 8.52-14.1 6.02-14.1-8.42z" class="o"/><path d="m322.63 326.75 7.61-5.09 6.58 6.56-7.09 4.74-7.1-6.21z" class="ab"/><path d="m332.62 330-4.6 12.34-1.67-10.34 6.27-2z" class="k"/><path d="m329.99 337.05-13.85-14.44 15.48 6.32 1 2.1-2.63 6.02z" class="ac"/><path d="m329.99 337.05 14.35-12.04-12.72 3.92-1.63 8.12z" class="p"/><path d="m271.95 260.31 14.85-6.65 15.22 5.53-16.81 10.19-13.26-9.07z" class="o"/><path d="m282.59 276.21 5.4 12.09-1.19-17.24-4.21 5.15z" class="k"/><path d="m280.7 263.09 4.59-4.88 9.24 5.52-8.72 4.1-5.11-4.74z" class="ab"/><path d="m282.59 276.21-10.64-15.9 15.43 3.42-4.79 12.48z" class="ac"/><path d="m287.38 263.73 14.64-4.54-19.43 17.02 4.79-12.48z" class="p"/><path d="m405.98 224.17 4.89 12.13-1-14.45-3.89 2.32z" class="k"/><path d="m394.11 214.09 12.05-7.75 13.82 4.81-12.47 8.41-13.4-5.47z" class="o"/><path d="m399.9 217.84 7.14-6.07 5.29 6.07-5.29 4.01-7.14-4.01z" class="ab"/><path d="m407.51 227.96-13.4-13.87 14.31 3.75 2.45 2.56-3.36 7.56z" class="ac"/><path d="m407.51 227.96 12.47-16.81-11.56 6.69-.91 10.12z" class="p"/><path d="m620.69 299.37 1.42 12.85 3.63-10.98-5.05-1.87z" class="k"/><path d="m609.28 284.24 17.68-5.41 12.61 5.97-13.83 9.84-16.46-10.4z" class="o"/><path d="m619.04 289.61 7.92-5.9 3.96 5.9-5.18 6.1-6.7-6.1z" class="ab"/><path d="m609.28 284.24 15.2 20.81 4.56-10.41-2.08-3.99-17.68-6.41z" class="ac"/><path d="m626.96 290.65 12.61-5.85-15.09 20.25 2.48-14.4z" class="p"/><path d="m684.71 223.4 6.97 17.54 1-19.54-7.97 2z" class="k"/><path d="m668.45 210.98 16.81-10.81 22.95 7.8-21.2 7.83-18.56-4.82z" class="o"/><path d="m676.87 212.49 9.64-6.13 9.6 6.83-9.33 6.89-9.91-7.59z" class="ab"/><path d="m687.01 229.18-18.56-18.2 20.53 2.26 2.7 4.09-4.67 11.85z" class="ac"/><path d="m687.01 229.18 21.2-21.21-19.23 5.27-1.97 15.94z" class="p"/></g></svg>