<svg xmlns="http://www.w3.org/2000/svg" id="a" viewBox="0 0 900 420"><defs><style>.j{fill:#576071}.aa,.ab,.ac,.ad,.ae,.af,.ag,.ah,.ai,.ak,.al,.am,.an,.ao,.ap,.aq,.ar,.as,.at,.au,.av,.aw,.ax,.ay,.j,.l,.m,.n,.o,.p,.q,.r,.s,.u,.w,.x,.y,.z{stroke-width:0}.l{fill:#5a753d}.m{fill:#89909b}.n{opacity:.1}.aq,.n{fill:#1d2432}.o{fill:#e6e97c}.p{fill:#709d52}.q{fill:#8b6651}.r{fill:#dfbda5}.s{fill:#446125}.u{fill:#309b6e}.w{fill:#c3987b}.x{fill:#eeeff1}.y{fill:#267a56}.z{fill:#99c26d}.aa{fill:#44622d}.ab{fill:#5bb68f}.ac{fill:#bbbfc6}.ad{fill:#70bf9d}.ae{fill:#dddfe2}.af{fill:#a0cf7e}.ag{fill:#28835c}.ah{fill:#1e6245}.ai{fill:#4b5464}.ak{fill:#c0db8e}.al{fill:#648e43}.am{fill:#b8c744}.an{fill:#237250}.ao{fill:#47ad82}.ap{fill:#d9e256}.aq{opacity:.15}.ar{fill:#787f8d}.as{fill:#54b08b}.at{fill:#8e7e73}.au{fill:#86b264}.av{fill:#2d9368}.aw{fill:#232a38}.ax{fill:#33a474}.ay{fill:#738d57}</style></defs><g id="b"><path d="m222.59 401.76 12.54-2.16 6.13 2.16-8.59 2.2-10.08-2.2zM20.97 353.25l9.71-3.21 8.01 3.62-9.66 2.79-8.06-3.2zM75.55 398.11l13.35-2.05 9.47 3.04-8.75 1.64-14.07-2.63zM138.68 378.13l22.17-4.23 35.1 4.84-5.58 10.01-39.43-3.04-12.26-7.58zM50.88 331.74l60.51-7.14 63.41 7.14-11.38 15.19-71.59 2.11-40.95-17.3zM155.65 369.99l-39.58 6.53-59.69-10.48 46.46-6 21.21 2.1 31.6 7.85zM26.49 390.15l21.65-3.61 12.46 4.89-17.04 2.3-17.07-3.58zM227.45 378.72l29.42-15.74 25.11-12.51 54.68 13.69 75.48 10.91-56.94 9.84-12.17-2.78-27.22 2.78-33.83 2.95-8.51-2.65-19.92 2.65-26.1-9.14zM355.62 393.22l27.41-6.11 17.69 5.73-25.64 5.54-19.46-5.16zM401.93 358.87l16.89-3.55 21.17 4.72-21.17 3.69-16.89-4.86zM483.59 324.84l11.74-5.46 25.22 4.47-23.4 3.24-13.56-2.25zM606.88 286.71l-62.74-5.04-63.82 12.18-33.28 13.09 55.51 2.82 83.8-8.68 20.53-14.37zM590.21 392.47l-31.08-4.26-61.17 10.04-15.2 9.63 64.23 2.11 35.97-8.71 7.25-8.81zM590.2 401.28l12.97-4.38 20.69 4.38-18.6 3.03-15.06-3.03zM554.23 371.85l-1.59-5.64-8.5 3.18-17.47-9.27-38.13-9.37 10.7-8.19 44.9-2.74 53.45-7.2 36.2-4.77 63.22 7.28 73.34 10.12-23.77 11.17-64.6 10.92-37.41-.9-13.82-3.37-76.52 8.78zM654.77 386.82l16.94-3.65 24.28 1.47-19.36 7.39-21.86-5.21zM699.57 398.63l12.51-4.26 20.63 4.73-21.09 3.49-12.05-3.96zM725.6 382.59l12.23-4.01 23.7 3.79-18.94 4.45-16.99-4.23zM883.2 321.29l-63.81-7.24-16.4 9.91-8.77 12.79 59.73-3.13 29.25-12.33zM867.21 282.55l-64.22-8.52-28.79 9.93 62.18 6.71 15.6-.57 15.23-7.55zM765.72 397.08l6.26-1.48 15.51 1.64-14.03 3.24-7.74-3.4zM793.38 385.3l11.04-3.15 21.53 4.22-19.17 3.05-13.4-4.12zM851.74 361.55l6.99-2.28 14.33 3.58-13.32 2.78-8-4.08zM15.7 299.39l98.48-13.6 47.6 7.1-76.29 14.37-69.79-7.87z" class="n"/></g><g id="c"><path d="m102.66 264.42 4.84 39.79h8.17l.4-65.35-13.41 25.56z" class="y"/><path d="m129.79 172.87 54.28 75.5-21.07 4.15-13.57-4.8-4.17 8.3-42.6 8.4-3.16-79.63 30.29-11.92z" class="ad"/><path d="m102.66 264.42-68.13-20.54 54.43-83.63 18.78 36.32-5.08 67.85z" class="ao"/><path d="m163 252.52-24.66-36.4 6.92 39.9 17.74-3.5z" class="ab"/><path d="m141.78 189.02-35.44 26.18-29.07-36.99 64.51 10.81z" class="n"/><path d="m128.32 108.92 38.08 74.63-6.37 1.42-4-1.84-.08 2.74-6.52 1.45-4.71-2.06-2.94 3.76-34.04 7.55 7.1-90.05 13.48 2.4z" class="ad"/><path d="m112.68 103.86-54.93 62.25 49.99 30.46 12.43-83.48-7.49-9.23z" class="ao"/><path d="m149.43 187.32-15.07-31.76 7.42 33.46 7.65-1.7zM155.95 185.87l-3.92-13.58 8 12.68-4.08.9z" class="ab"/><path d="M129.73 111.68 116.76 136l-7.65-28.05 20.62 3.73z" class="n"/><path d="m132.64 66.16 15.91 42.76-10.21 1.5-5.01-2.47-3.6 3.73-9.56 1.41 4.24-49.84 8.23 2.91z" class="ad"/><path d="m120.17 113.09-11.06-5.14-2.48-7.38-7.13 2.91-9.02-4.19 33.44-40.02 2.48 8.44-6.23 45.38z" class="ao"/><path d="m129.73 111.68-1.41-22.23 10.02 20.97-8.61 1.26z" class="ab"/><path d="m109.11 107.95 8.42-29.66-18.03 25.19 9.61 4.47z" class="u"/><path d="m133.54 68.58-8.99 12.62-4.62-17.16 13.61 4.54z" class="n"/><path d="m138.34 22.6 6.92 47.39-5.94-.71-2.25-4.44-3.53 3.74-7.14-.87.99-17.3 10.95-27.81z" class="ad"/><path d="m138.34 22.6-27.17 36.97 15.23 8.14 11.94-45.11z" class="ao"/><path d="m133.54 68.58 3.53-18.7 2.25 19.4-5.78-.7z" class="ab"/><path d="m768.93 247.09-1.75 35.87h-4.08l-10.42-45.27 16.25 9.4z" class="y"/><path d="m743.57 156.64-3.41 5.07-64.95 68.12 93.72 17.26-5.38-84.14-19.98-6.31z" class="ad"/><path d="m773.05 154.33 65.32 76.09-69.44 16.67-12.16-80.21 16.28-12.55z" class="ao"/><path d="m740.16 161.71 18.87 20.11 19.6-20.99-38.47.88z" class="n"/><path d="m754.19 71.62-41.91 81.42 18.07 5.62 6.7-2.02 3.11 5.07 16.61 5.17 4.87-92.05-7.45-3.21z" class="ad"/><path d="m760.81 66.15 41.29 88.18-12.45 3.44-6.91-4.73-4.11 7.79-21.86 6.05 2.84-85.16 1.2-15.57z" class="ao"/><path d="m740.16 161.71 3.41-24.85-13.25 21.9 9.84 2.95z" class="ab"/><path d="m750.55 78.7 8.38 23.3 7.7-23.41-16.08.11z" class="n"/><path d="m754.19 19.12-17.75 54.86 23.17 7.74 3.36-20.99-8.78-41.61z" class="ad"/><path d="m754.19 19.12 25.98 53.43-20.56 9.17-5.42-62.6z" class="ao"/><path d="m778.63 160.83-8.34-41.52 19.36 38.46-11.02 3.06z" class="u"/><path d="m821.41 259.54.5 31.75h5.64l4.49-40.51-10.63 8.76z" class="y"/><path d="m764.19 245.84 62.42-52.39 5.43 37.4-10.63 28.69-57.22-13.7z" class="ad"/><path d="m821.41 259.54 28.27-5.48 3.5-10.18 10.12 7.53 18.25-3.53-54.94-54.43-5.2 66.09z" class="ao"/><path d="m809.17 208.09 15.23 19.42 17.51-18.89-32.74-.53z" class="n"/><path d="m825.05 213.21-15.88-5.12-1.17-6.22-6.89 3.62-12.37-3.99 47.64-57.77-1.47 48.18-9.86 21.3z" class="ad"/><path d="m825.05 213.21 32.93-8.97-19.97-59.72-2.04 5.97-10.92 62.72z" class="ao"/><path d="m832.42 148.53 1.67 12.73 5.62-11.66-7.29-1.07z" class="n"/><path d="m824.9 144.37 11.07 6.12 6.21-12.89-.38-29.08-16.9 35.85z" class="ad"/><path d="m835.97 150.49 13.16-3.12-7.33-38.85-5.83 41.97z" class="ao"/><path d="m809.17 208.09 5.73-25.71-13.8 23.13 8.07 2.58z" class="ab"/><path d="m863.3 251.41-20.24-30.4 6.62 33.05 13.62-2.65z" class="u"/></g><g id="d"><path d="m679.94 292.63 36.11 17.13 17.8-53.77-2.23-18.83-38.2-4.02-13.48 59.49zM750.45 235.71h-21.69l-4.63-8.2 13.55-26.43 22.7.42 9.57 5.31-19.5 28.9z" class="ar"/><path d="m726.89 241.26 4.73-4.1 18.83-1.45 12.44-28.9-.02-3.92 34.7-3.36 8.42 67.49 2.5 24.38-16.27 1.92-6.7-6.61-5.33 8.02-13.7 1.62-3.62-3.82-4.39 4.76-9.9 1.17-4.07-3.34-6.93 12.64-21.53 2 10.84-68.5z" class="j"/><path d="m769.95 202.43 7.18 59.46 3.06 32.84 12.03-1.41-18.51-90.89h-3.76zM741.01 235.71l7.57 62.75-9.38 1.1-2.61-62.4 4.42-1.45zM750.45 235.71l16.04 60.64-8.02.81-8.02-61.45z" class="ai"/><path d="m704.78 298.96 10.92-63.25h-4.65l-15.11 61 8.84 2.25zM706.9 234.56l-10.96 41.51 5.48-42.09 5.48.58z" class="j"/><path d="m772.61 270.79-4.8-37.65-1.32 40.49 7.71 21.81-1.59-24.65z" class="ai"/><path d="m693.42 233.14 30.71-5.63 26.32 8.2-23.56 5.55-33.47-8.12zM737.68 201.08l23.53-4.88 36.36 3.33-34.68 7.28-25.21-5.73z" class="au"/><path d="m163.42 346.93-5.6-30.67 5.18-22.98 63.51-3.85 15.05 45.21-17.11 2.69-10.95-5.59-4.64 8.05-7.69 1.21-4.14-4.33-5.06 5.77-4.26.67-4.36-2.37-4.37 3.75-15.56 2.44z" class="ar"/><path d="m169.26 299.98-17.92-7.12-51.84-1.8-22.2 46.27 58.14 6.48 4.59-1.83 7.39 3.17 16 1.78 5.84-46.95zM224.45 337.33l-15.57-44.65-9.19-3.25 9.17 50.36 15.59-2.46zM201.17 341l-10.5-44.97 1.3 46.41 9.2-1.44zM187.71 343.11 182.9 319l-3.92 25.49 8.73-1.38z" class="j"/><path d="m147.42 345.15 8.23-46.91-4.06-3.87-16.15 49.44 11.98 1.34z" class="ai"/><path d="m226.51 289.43-57.25 10.55-69.76-8.92 63.5-10.17 63.51 8.54z" class="au"/><path d="m362.97 295.58 19.78 2.68 5.63-5.17 6.01 6.74 7.54 1.02 21.64-5.28 6.65 9.1 16.82 2.27 15.17-38.95v-25.87H380.2l-17.23 53.46z" class="ar"/><path d="m447.04 306.94 36.89-3.46 14.34-7.98 16.35 5.1 13.43-1.26 4.52-6.25 6.38 5.23 23.15-2.18-12.92-57.08-80.26 2.62-16.03 11.17-5.85 54.09zM401.93 300.85l22.64-51.64 15.42-2.58-9.77 58.04-28.29-3.82zM382.75 298.26l19.92-52.82-8.28 54.39-11.64-1.57z" class="j"/><path d="m472.86 249.99 11.07 53.49 30.69-2.88-17.44-57.86-24.32 7.25zM528.05 299.34l-11.03-55.67 2.92-4.61 19.01 59.26-10.9 1.02z" class="ai"/><path d="m380.2 242.12 61.87-12.95 107.11 9.89-96.29 13.79-72.69-10.73z" class="au"/><path d="m425.94 239.06 7.79-21.67 34.54 2.15-.03 13.68-10.42 8.41-10.7-.87-3.13-3.92-6.05 3.18-12-.96z" class="ar"/><path d="m457.82 241.63 12.99-1.22 2.05-2.72 3.01 2.25 3.56-.33 1.71-2.52 4.16 1.97 3.57-.34 3.58-2.42 5.82 1.54 18.75-1.75-13.61-18.7-27.54 1.01-11.18 5.26-6.87 17.97zM437.94 240.02l16.01-22.63 2.34 2.15-9.17 21.22-9.18-.74z" class="j"/><path d="m479.43 239.61-3.56-17.76 2.98-2.97 6.45 20.18-5.87.55zM488.87 238.72l-4.94-19.84 14.34 18.96-9.4.88zM475.87 239.94l-3.5-10.43-1.56 10.9 5.06-.47z" class="ai"/><path d="m433.73 217.39 30.96-4.25 38.72 4.25-38.72 6.27-30.96-6.27z" class="au"/><path d="m802.58 293.3-39.69-4.01-12.44 38.06 12.44 2.67 5.25-2.17 2.72 3.88 23.36 5.02 9.35-25.76-.99-17.69z" class="ar"/><path d="m797.01 298.96 11.32-8.43 28.05.14 8.86 35.54-24.3 5.02-4.74-3.38-5.11 5.42-16.87 3.48 2.79-37.79zM762.89 330.02l14.12-36.72-6.15 38.43-7.97-1.71z" class="j"/><path d="m811.09 333.27-5.88-38.44 5.88.25 9.85 36.15-9.85 2.04zM816.2 293.3l10.5 29.42-2.32-31.37-8.18 1.95z" class="ai"/><path d="m762.89 289.29 33.79-13.22 39.7 14.6-39.37 8.29-34.12-9.67z" class="au"/><path d="m726.25 328.13 5.37 1.43 5.72-1.73 6.85 5.08 12.49 3.34L787 269.5l-32.53-3.59-28.22 62.22z" class="ar"/><path d="m756.68 336.25 20.33-3.2 5.07-38.32 8.83-2.1 4.08-2.57 4.64.49 3.94-.94.34-1.67 2.39 1.02 4.2-1-4.51-20.94-22.4 1-6.58 3.96-20.33 64.27zM744.19 332.91l17.34-64.89-29.91 61.54 12.57 3.35zM767.68 269.08l-7.3 27.89 12.23-28.95-4.93 1.06z" class="j"/><path d="m790.91 292.63-5.02-23.55 2.51-1.06 11.23 22.53-8.72 2.08zM803.57 289.61l-8.57-21.6 11.3 20.95-2.73.65z" class="ai"/><path d="m805.99 267.02-28.98 4.96-22.54-6.07 22.66-4.02 28.86 5.13z" class="au"/></g><g id="e"><path d="m531.34 153.51-61.25-35.29 14.42-3.34 51.13 32.02-4.3 6.61z" class="l"/><path d="m562.9 163.42-31.56-9.91v-4.04l4.3-2.57 20.88 2.57 6.38 13.95z" class="aa"/><path d="m535.64 146.9-20.67-37.76-2.58 9.08 18.95 35.29 4.3-6.61z" class="al"/><path d="m514.11 110.53 39.27 23.7-11.81-35.76-29.18 4.43 1.72 7.63z" class="aa"/><path d="m550.29 140.8-6.15-42.82 25.59-4.92 26.31 13.46 5.43 10.41-10.99 11.56-40.19 12.31z" class="al"/><path d="m598.31 124.8-2.27-18.28-15.73-8.05 5.57 29.28 12.43-2.95zM582.96 129.92l-13.23-36.86-7.55 1.45 15.87 37.79 4.91-2.38zM544.14 97.98l19.13 36.98-5.35 8.79-7.63-2.95-18.95-40.36 12.8-2.46z" class="l"/><path d="m550.51 96.76 18.7 35.54-7.03-37.79-11.67 2.25z" class="aa"/><path d="m563.27 134.96-50.88-32.06-4.38 6.24 11.44 10.33 24.69 14.76 14.35 6.07 4.78-5.34z" class="al"/><path d="m550.29 140.8-49.54-28.79 7.26-2.87 50.48 31.16-8.2.5zM630.31 153.51l4.95-32.15 5.59 2.7-6.16 31.4-4.38-1.95z" class="l"/><path d="m623.86 168.69 27.31-17.64-3.31-12.72-24 20.76v9.6z" class="aa"/><path d="m552.64 222.49-7.27 7.87-2.71-1.6 4.66-9.22h6.06l-.74 2.95z" class="l"/><path d="m514.11 181.49-13.81-10.63-1.89 2.58 13.66 13.22-16.41-7.9-1.27 3.25 15.73 9.59-16.39-1.55-.24 3.07 14.52 3.8 6.1-7.49v-7.94z" class="y"/><path d="m559.58 210.19-36.03-14.17-5.58 3.51 19.55 14.56h15.86l6.2-3.9z" class="p"/><path d="m521.94 199.53 28.57 14.56h-12.99l-17.67-10.01-1.88-4.55h3.97z" class="aa"/><path d="m588.27 199.53-50.75 14.56 9.8 5.45h36.56l4.39-20.01z" class="l"/><path d="m547.32 219.54 40.95-10.38-4.39 10.38-31.24 2.95-5.32-2.95z" class="aa"/><path d="m704.98 193.45 20.63-2.46.98 4.66-21 4.59 24.08 3.06-.86 4.29h-22.56l16.28 7.84-1.72 4.11-13.86-4.11-5.21-10.99 3.24-10.99z" class="y"/><path d="m657.74 220.27 30.73-9.1 3.21-6.73-14.26 3.15-18.69 5.55-.99 7.13z" class="l"/><path d="m638.62 201.08 24.05 7.16 2.91.92-4.19 4.93-31.25-.95 8.48-12.06z" class="l"/><path d="m661.39 214.09-25.47-9.15-5.78 8.2 27.6 7.13 3.65-6.18z" class="aa"/><path d="m712.69 156.64 9.41-23.45-9.41 1.04-7.71 28.72 7.71-6.31z" class="l"/><path d="m685.38 171.88 23.54-6.58 3.77-8.66-26.44 6.31-.87 8.93z" class="aa"/><path d="m664.3 175.4 11.48-37.07 12.69 1.97-3.09 31.58-14.68 7.3-6.4-3.78z" class="al"/><path d="m699.57 142.03-14.19 29.85-12.22 5.99 15.31-37.57 11.1 1.73zM681.93 139.29l-11.23 38.58 5.08-39.54 6.15.96zM653.67 183.09l-2.5-32.04 13.13-7.3-6.56 36.5-4.07 2.84z" class="l"/><path d="m628 181.45 57.38-9.57-4.61 8.37-8.43 5.94-44.99 20.91-3.49-7.57 4.14-18.08z" class="p"/><path d="m629.27 199.53 51.5-19.28-3.27 5.94-47.36 26.95-3.57-2.95 2.7-10.66z" class="al"/><path d="m628.5 188.44 32.89-6.99-32.46 13.22-3.47 2.03 3.04-8.26z" class="l"/><path d="m523.87 320.67-1.14 26.55h-7.55l-1.64-9.68 5.25-27.62 5.08 2.24v8.51z" class="aa"/><path d="m513.87 309.92-6.73 37.3h8.04l3.61-31.94 1.15-5.36h-6.07z" class="al"/><path d="m518.79 315.28 5.08 5.39 26.64-14.36-3.52-11.19-17.66 7.86-10.54 12.3z" class="l"/><path d="m544.8 290.67-30.93 19.25 4.92 5.36 26.01-16.02v-8.59z" class="p"/><path d="m615.25 331.37 15.5 6.17v-7.4l-17.97-8.85 2.47 10.08z" class="aa"/><path d="m635.26 334.37 2.95 12.85h-6.72l-5.82-19.37 9.59 6.52z" class="p"/><path d="m614.4 318.06 19.39 9.79 1.47 6.52-22.72-9.15 1.86-7.16z" class="l"/><path d="M606.39 112.01H615l6.4 55.14-4.43 13.1-8.86-34.12-1.72-34.12z" class="au"/><path d="m537.52 361.08 5.22-40.66 10.64-34.22 9.7-.56 4.27 20.67.41 27.15-7.63 21.74-8.2 7.87-14.41-1.99z" class="af"/><path d="m553.38 286.2.85-8.43-6.24.66-21.32 81.69 10.85.96 15.86-74.88zM567.35 306.31l20.12-15.64 19.41-3.96 9.6 56.23-5.59 7.53-25.01.96-7.85 9.14-10.27 3.16-3.82-11.32.62-27.19 2.79-18.91z" class="au"/><path d="m598.9 290.67 4.17-5.03 3.81 1.07 14.52 60.53-10.51 3.23-6.96-11.29-5.03-48.51z" class="al"/><path d="m567.35 306.31 10.68 54.26 9.44-2.9 5.63-11.41-2.33-7.38-4.89-41.76-6.68-2-11.85 11.19z" class="p"/><path d="m598.9 290.67 11.99 59.8-9.13 2.81-7.97-63.99 5.11 1.38z" class="l"/><path d="m560.13 355.2-13.14-39.92 4.94 47.79 7.2-1.99 1-5.88z" class="au"/><path d="m589.3 347.22 1.47-8.34 20.12 11.59v4.73l-8.68 5.88-12.91-13.86z" class="af"/><path d="m589.3 347.22 21.59 7.98v5.37l-8.68.51-14.74-3.41 1.83-10.45z" class="au"/><path d="m610.89 350.47 19.86 12.6-28.54-1.99 8.68-10.61zM567.35 306.31 580 290.67l43.86-91.14 4.14-18.08-4.39-65.26-8.61-4.18 1.97 68.24-11.07 16.07-41.59 77.1-4.73 21.7 7.77 11.19z" class="l"/><path d="m559.58 295.12-6.2-8.92 4.54-15.98 38.12-79.23 12.07-10.74 4.43 2.99-3.75 13.38-49.21 98.5z" class="au"/><path d="m547.99 278.43 47.31-92.66 6.5-.36 6.31-5.16-54.73 105.95-5.39-7.77z" class="af"/><path d="m605.94 185.33-12.37-63.97 2.47-14.84 10.35 5.49 10.58 68.24-11.03 5.08z" class="al"/><path d="m616.97 180.25-8.18 16.37-13.49-10.85 3.62-5.3 9.19 1.85 8.86-2.07z" class="aa"/><path d="m608.11 182.32-35.68 9.59-22.14-51.11 43.28-19.44 14.54 60.96z" class="af"/><path d="m569.73 144.24 6.76 3.2 3.82-7.38 4.92-1.73 5.25 1.97-6.6 20.3-21.66-11.13 2.95-4.37 4.56-.86z" class="au"/><path d="m576.49 147.44-.37 16.03 4.13-.57 3.63-2.3-7.39-13.16z" class="ak"/><path d="m576.12 163.47 5.29 1.83 2.47-4.7-7.76 2.87zM595.3 162.95l-11.42 8.28-12.51.57 1.15 2.62h12.55l10.56-8.21-.33-3.26z" class="l"/><circle cx="587.2" cy="148.26" r="2.79" class="ah"/><circle cx="568.66" cy="154.33" r="2.79" class="ah"/><path d="m590.48 140.3-.9-2.46-8.37-.98-.9 3.2 10.17.24zM569.73 144.24l-2.38-2.21-5.17 4.34.04 3.1 7.51-5.23z" class="av"/><path d="m585.88 297.12 14.21-19.35 16.88-45.93 12.3-32.31-1.27-18.08-60.65 124.86 18.53-9.19z" class="al"/><path d="m629.27 199.53.87 13.61-11.13 35.19-12.37 34.57-7.74 7.77-13.02 6.45 43.39-97.59z" class="aa"/><path d="m598.9 290.67 20.11-42.34-12.13 38.38-7.98 3.96z" class="l"/><path d="m567.76 363.73-3.2-38.51-4.43 29.98.98 5.88 6.65 2.65z" class="al"/><path d="m567.76 363.73-7.63-8.53-8.2 7.87-1.42 4.39 3.72 4.39 13.53-8.12z" class="p"/><path d="m551.93 363.07-7.79 6.32 10.09 2.46-2.3-8.78z" class="au"/><path d="m619.01 248.33 21.58-1.97-2.38-4.43-25.67-4.77 6.47 11.17z" class="l"/><path d="m662.67 208.24 24.76-7.16 3.61 2.05-2.98 4.08-26.67 6.88 1.28-5.85z" class="p"/><path d="m689.26 200.28-1.2 6.93.41 3.96 18.48 4.26-1.97-21.98-15.72 6.83z" class="ah"/><path d="m687.43 201.08 3.61-7.63 17.38-9.35 2.63 4.34-6.07 5.01-16.92 13.76-.63-6.13z" class="y"/><path d="m521.25 192.96-1.4-7.63-5.74-3.84-6.1 15.43 11.84 7.16 2.09-4.55-.69-6.57z" class="ah"/><path d="m523.55 196.02-1.15-10.69-7.13-10.91-2.88 1.32 5.58 18.7 3.97 5.09 1.61-3.51z" class="y"/><path d="m414.2 101.06 37.99-16.31 27.48-16.05 8.61-29.77 41.34 2.29 34.32-13.45 15.26-5.08 3.76-12.64 33.29 10.49 4.99 3.95 11.73 1.31 48.96 15.42-3.94 24.03L697.5 81.5l12.15 5.24 6.95 5.22 7.74 1.1 25.1 10.8-4.12 27.71-83.93 1.62-33.1-27.34-74.91-12.79-92.66 27.8-46.52-19.8z" class="ag"/><path d="m414.2 101.06 30.03-5.29 30.93 8.09 37.23-.96 40.25-24.61 61.26 11 81.73 31.57 53.81-17 5.52 27.46-36.53 11.01-26.75-4-40.51 12.72-27.56-34.86-25.3-9.67-50.29-1.03-35.63 1.18-55.28 20.78-42.91-26.39zM681.93 41.22l-41.34 33.74 10.58 6.54h46.33l-5.33-13.79-5.12-6.02-.11-7.51-5.01-12.96z" class="an"/><path d="m552.64 78.29 49.7-39.36 38.25 36.03-87.95 3.33zM488.28 38.93l26.69 2.29 9.05 19.56 28.62 17.51-100.45 6.46 17.9-22.72 7.25-3.99 3.72-9.95 7.22-9.16zM563.94 27.77l38.4 11.16-19.38-28.88-19.02 17.72z" class="an"/><path d="m475.16 103.86-18.05 23.59 90.91-21.96 4.62-27.2-77.48 25.57zM695.63 120.86l-44.46 30.19 67.26-8.72-22.8-21.47z" class="ah"/><path d="m623.61 116.19-9.71-26.9-65.88 16.2 75.59 10.7z" class="ah"/><path d="m613.9 89.29 26.69-14.33 56.91 6.54-83.6 7.79zM563.94 27.77l-39.92 33.01-35.74-21.85 75.66-11.16zM475.16 103.86l-22.97-19.11-37.99 16.31 60.96 2.8z" class="av"/><path d="m545.86 59.72 6.03-5.54 10.09 3.69-8.62 9.84-7.5-7.99zM479.88 82.97l8.4-9.96 10.95 8.72-10.95 7.56-8.4-6.32zM481.06 48.09l3.53 10.52-14.5 3.42 3.59-4.57 3.12-2.32.54-2.32 3.72-4.73zM558.49 38.93l-2.05 7.5 10.83 2.71 3.32-12.55-12.1 2.34zM518.79 44.28l7.32-7.69 8.31 3.84-4.8 8.71-10.83-4.86zM528.63 94.51l7.01-5.83 6.28 4.38-6.28 8.24-7.01-6.79zM581.94 97.15l9.32 5.75 4.22-9.08-10.09-3.71-3.45 7.04zM601.47 61.84l6.64-7.04 7.38 7.04-7.38 7.35-6.64-7.35zM632.97 41.22l10.21-2.29 3.56 9.1-10.33 3.81-3.44-10.62zM616.25 20.54l5.15 9.77 11.57-4.51-6.47-2.03h-3.38l-1.88-1.66-4.99-1.57zM686.94 54.18l-5.01 9.47 10.24 4.06-1.52-3.93-2.4-2.42.4-2.75-1.71-4.43zM709.65 86.74l2.67 9.76 12.02-3.44-5.51-2.37-3.02-.26-1.43-1.66-4.73-2.03zM676.31 91.62l6.85-4.88 6.52 6.32-7.75 5.41-5.62-6.85zM695.1 100.93l8.61-2.46 2.71 8.05-8.92 2.9-2.4-8.49zM729.91 123.32l3.08-8.65 8.74 3.36-3.33 8.49-8.49-3.2zM648.71 102.74l11.32-4.27 3.23 9.89-10.12 3.65-4.43-9.27zM635.26 121.36l4.6-7.96 7.75 3.98-4.8 8.16-7.55-4.18z" class="am"/><path d="m637.07 44.42 3.2-1.56 1.23 2.63-3.12 1.64-1.31-2.71zM606.31 61.56l1.72-1.97 1.97 1.65-2.54 2.54-1.15-2.22zM680.87 92.16l2.05-1.73 1.55 2.14-2.21 1.56-1.39-1.97zM698.66 102.98l2.71-.98.49 2.21-2.29.82-.91-2.05zM734.92 118.98l2.29 1.15-1.06 2.29-2.38-1.06 1.15-2.38zM653.55 104.62l3.04-1.31 1.56 3.2-3.53.74-1.07-2.63zM639.36 119.55l1.32-2.13 2.13 1.15-1.48 2.7-1.97-1.72zM586.46 96.09l1.31-2.46 2.63 1.23-1.23 3.28-2.71-2.05zM532.9 94.13l2.21-1.81 2.14 1.4-2.05 2.46-2.3-2.05zM486.56 82.07l1.88-2.79 3.12 2.3-3.61 2.62-1.39-2.13zM550.62 59.76l2.13-2.3 2.21 1.81-1.88 3.11-2.46-2.62zM560.87 43.76l.9-2.54 2.87.41-.98 3.36-2.79-1.23zM524.94 42.86l2.05-2.29 2.05 1.47-1.64 2.3-2.46-1.48zM621.24 22.11l1.47 3.32 3.79-1.66-5.26-1.66zM688.65 58.61l-1.6 3.08 3.6 2.09-2-5.17zM714.38 88.77l1.1 3.83 3.35-1.91-4.45-1.92zM477.34 52.82l1.18 3.41-4.84 1.23 3.66-4.64z" class="al"/></g><g id="f"><path d="m661.85 312.34-4.64-11.66 3.61-1.72 7.72 16.75-6.69-3.37z" class="al"/><path d="m691.9 318.82-30.05-6.48 1.57 3.87 32.63 10-4.15-7.39zM719.25 310.99l4.02-15.91-6.15 4.18-5.5 21.41 7.63-9.68z" class="l"/><path d="m706.1 320.67 13.15-9.68-1.95 7.53-10.52 9.41-1.78 1.48 1.1-8.74z" class="al"/><path d="m705.67 323.64 11.63-5.12-9.04 10.89H705l.67-5.77z" class="l"/><path d="m685.87 306.64 12.79 32.73 8.62-13.53-5.42-23.87-15.99 4.67z" class="au"/><path d="m688.03 300.98 13.59 33.71 2.46-3.2-8.37-33.52-7.68 3.01z" class="al"/><path d="m689.23 347.49 16.87-26.82 2.16 8.74-2.3 8.13-7.21 9.95h-9.52z" class="p"/><path d="m698.75 347.49 5.33-1.29 5.94-10.36-1.76-6.43-9.51 18.08z" class="l"/><path d="m637.52 285.64 20.22 8.45 46.64 10.95 34.54-12.16-16.09-25.95-5.38-2.04v-12.87l-26.6 2.29-14.22-7.22-1.92 11.82-7.13 7.87-30.06 18.86z" class="ag"/><path d="m738.92 292.88-21.47 1.98-9.19-1.01-40.35-11.65-30.39 3.44 19.69 15.04 13.77-3.88 17.05 15.36 26.57-3.09 2.7-11.95 21.62-4.24zM722.83 266.93l-12.19 10.84h-11.07l17.88-25.75 5.38 14.91zM667.58 266.78l6.72 2.72 10.17-4.61-7.84-17.8-9.05 19.69z" class="an"/><path d="m699.57 277.77-31.66 4.43 6.56-10.99 10-6.32 15.1 12.88z" class="an"/><path d="m714.6 309.07-6.34-15.22 30.66-.97-24.32 16.19zM667.91 282.2l20.12 29.96-30.82-11.48 10.7-18.48z" class="ah"/><path d="m699.57 277.77 8.69 16.08 14.57-26.92-23.26 10.84zM667.58 266.78l.33 15.42 16.56-17.31-16.89 1.89zM717.45 252.02l-32.98 12.87-7.84-17.8 40.82 4.93z" class="av"/><path d="m104.5 246.48-4.43 2.85-15.58-28.87 10.91 9.35 5.66 3.66 3.44 13.01z" class="aa"/><path d="m120.09 240.29-1.56-15.07-5.85-11.65-4.45 2.91 9.3 26.41 2.56-2.6zM66.24 317.2l-8.49-25.17 5.53-2.64 8.3 23.86.81 3.65-6.15.3z" class="l"/><path d="m97.94 331.03-31.7-13.83 5.34-3.95 25.54 4.89.82 12.89zM127.45 329.43l-9.14-19.15 5.69-5.91 5.79 20.67-2.34 4.39z" class="al"/><path d="m120.74 344.65 32.97-48.89-10.33-2.87-28.22 51.76h5.58z" class="l"/><path d="m79.4 292.89 6.89-.86 13.78 11.41 11.32 16.27-5.95 14.76-5.94-6.27-18.74-25.11-1.36-10.2z" class="aa"/><path d="M97.94 331.03 70.3 295.35l9.1-2.46 26.04 40.6-7.5-2.46z" class="l"/><path d="m109.05 349.19-9.55 19.48 11.89 2.22v-8.86l-2.34-12.84z" class="p"/><path d="m126.4 371.68 12.54-.92-18.2-26.11-2.21 5.53 7.87 21.5z" class="l"/><path d="m118.53 372.12-7.14-1.23-13.45-39.86 10.66-4.76 7.38 17.22 2.55 28.63z" class="al"/><path d="m126.4 371.68-11.56-55.23-8.37-23.56-6.4 10.55 18.46 68.68 7.87-.44z" class="p"/><path d="m104.5 246.48-9.1-16.67 9.82-12.35 4.69 27.63-5.41 1.39z" class="l"/><path d="m122.38 235.35-2.29-18.87-7.41-2.91 7.41 26.72 2.29-4.94z" class="aa"/><path d="m78.64 246.48-6.25-23.16 3.24-6.84 10.83 41.68-7.82-11.68z" class="l"/><path d="m39.05 273.2 10.83 21.16 34.24 1.35 20.38.42 10.34 20.32 46.94-23.56 18.43-17.93-18.43-9.49-10.69-8.52 1.15-13.41-29.86-8.19-16.94 12.34-26.8-1.21-2.19 11.68-6.15 1.89-31.25 13.15z" class="ag"/><path d="m39.05 273.2 58.89 8.33 16.9 3.07 7.54 10.75 16.56 1.72 29.37-11.48-6.53 9.24-46.94 21.62-14.77-13.01-15.95-10.55-34.24 1.47-10.83-21.16zM152.24 243.54l-23.51 26.82 33.05-4.89-9.54-21.93zM78.64 246.48l19.3 35.05-27.64-21.48 8.34-13.57z" class="an"/><path d="m122.38 295.35-7.54 21.1 54.42-16.47 10.95-25.02-57.83 20.39zM97.94 281.53l2.13 21.91-50.19-9.08 48.06-12.83z" class="ah"/><path d="m78.64 246.48 50.09 23.88-6.35-35.01-43.74 11.13z" class="av"/><path d="m97.94 281.53 30.79-11.17-6.35 24.99-24.44-13.82z" class="av"/><path d="m93.67 223.25 20.49-12.22 8.22-9.6 12.06-4.92V182.4l-16.91-2.76-7.62-3.73-3.28-8.19-13.32 7.34-19.16.85.82 9.96-4.67 5.06-18.13 13.67 5.58 12.91 17.88-1.03 18.04 6.77z" class="ag"/><path d="m52.17 204.6 22.8 4.38 28.71-6.56 7.71-10.32 23.05-9.7 5.81 20.05-10.46-2.49-1.99 5.21-7.71 11.31-11.86 2.81-12.83 10.52-23.01-6.49-5.95-2.86-18.21 1.81 3.94-17.67zM74.15 175.91l16.38 17.47-12.11 2.8-8.12-5.25 3.85-15.02zM106.63 167.72l-3.97 14.68 7.43 1.15 7.44-3.91-10.9-11.92z" class="an"/><path d="m111.39 192.1-1.76-7.46-6.97-2.24-12.13 10.98 20.86-1.28z" class="an"/><path d="m90.53 193.38-15.56 15.6-4.67-18.05 20.23 2.45zM117.53 179.64l-6.14 12.46-8.73-9.7 14.87-2.76z" class="av"/><path d="m74.15 175.91 28.51 6.49 3.97-14.68-32.48 8.19z" class="av"/><path d="m74.97 208.98-2.58 14.34-24.16-1.05 26.74-13.29zM95.4 229.81l8.28-27.39 16.41 14.06-24.69 13.33zM127.8 205.17l-16.41-13.07 28.86 10.35-12.45 2.72z" class="ah"/><path d="m416.53 359.77-2.79-22.62h7.55l-.9 22.62h-3.86z" class="at"/><path d="m396.08 346.22 24.73 2.99 3.76-19.88-7.05-14.57-21.44 31.46z" class="ab"/><path d="m420.81 349.21 22.92-9.07-17.01-18.82-9.2-6.56 3.29 34.45zM410.33 347.94l2.48-14.32-7.32 13.74 4.84.58z" class="av"/><path d="m437.04 342.79-10.92-14.94 7.3 16.37 3.62-1.43zM430.62 345.33l-6.71-10.77 2.67 12.37 4.04-1.6z" class="y"/><path d="m411.91 322.99 7.5 11.57 7.31-13.24-14.81 1.67z" class="aq"/><path d="m420.96 290.67-20.75 28.34 7.38 2.51 3.11-1.37 1.21 2.84 6.72 2.28 5.94-18.6-3.61-16z" class="ab"/><path d="m418.63 325.27 13.9-6.78-11.57-27.82-2.33 34.6zM411.91 322.99l1.9-13-6.22 11.53 4.32 1.47z" class="av"/><path d="m494.84 311.98 7.71-2.22-.9-3.09-8.28 2.01 1.47 3.3z" class="at"/><path d="m493.37 325.47-5.23-37.99 7.19 11.48 1.97 26.51h-3.93z" class="at"/><path d="m495.33 298.96-25.24-8.77 24.34-33.59 7.14 10.21 1.84 15.13-8.08 17.02z" class="ao"/><path d="m495.33 298.96 29.37-9.39-16.73-32.97-6.4 10.21-6.24 32.15zM489.31 296.87l4.74-25.45L483.93 295l5.38 1.87z" class="av"/><path d="m506.17 295.5-.5-18.85 6.84 16.82-6.34 2.03z" class="y"/><path d="m490.41 262.14 9.79 11.7 11.12-10.64-20.91-1.06z" class="aq"/><path d="m498.27 224.52-14.34 34.91 17.64 7.38 1.53-20.67-4.83-21.62z" class="ao"/><path d="m501.57 266.81 16.4-6.07-19.7-36.22 3.3 42.29zM490.41 262.14l4.92-15.51-1.28 17.03-3.64-1.52z" class="av"/><path d="m47.68 391.54.74-10.02 4.92-2.56-3.69 12.58h-1.97z" class="at"/><path d="m64.17 377.46-15.86 5.55-1.37-11.67 3.29-11.4 3.11 3.78 10.83 13.74z" class="ab"/><path d="m48.31 383.01-11.7-5.55 13.6-17.93.3 5.51-2.2 17.97z" class="av"/><path d="m53.34 363.72-3.91 10.16-2.32-10.26 6.23.1z" class="aq"/><path d="m50.51 365.04 7.5-3.49-8.73-19.27-1.6 12.28 2.83 10.48z" class="ab"/><path d="m50.51 365.04-8.37-3.49 7.14-19.27 1.23 22.76z" class="av"/><path d="m669.51 389.07-3.01-24.14 5.77 8.35.81 15.79h-3.57z" class="at"/><path d="m644.57 366.44 6.71 1.65 2.94-2.41 1.28 3.46 2.77.68 2.55-.68 2.55 1.94 8.9 2.2.81-16.11-9.25-20.42-19.26 29.69z" class="ao"/><path d="m672.27 373.28 5.84-3.57.81-3.48 3.06 1.11 8.87-5.43-27.02-25.16 8.44 36.53zM651.28 368.09l6.99-11.76-2.77 12.81-4.22-1.05zM658.27 369.82l4.3-14.71.8 15.97-5.1-1.26z" class="av"/><path d="m678.11 369.71-5.03-16.66 8.9 14.29-3.87 2.37z" class="y"/><path d="m657.78 346.07 10.39 9.48 4.16-10.89-14.55 1.41z" class="aq"/><path d="m666.7 349.16-8.92-3.09-1.23-2-1.34 1.11-3.3-1.14 9.94-24.23 5.61 11.79-.76 17.56z" class="ao"/><path d="m666.7 349.16 5.63-4.5-.07-3.47 3.41.8 4.27-3.41-18.09-18.77 4.85 29.35zM657.78 346.07l2.04-12.99-4.61 12.1 2.57.89z" class="av"/><path d="m672.33 344.66-2.54-8.61 5.88 5.94-3.34 2.67z" class="y"/><path d="m709.52 399.73.68-10.49 4.43-4.02-3.19 14.51h-1.92z" class="at"/><path d="m695.99 384.64 5.75 1.86 2.2-.91 1.54 2.12 4.72 1.53 2.22-9.44-1.23-11.4-15.2 16.24z" class="ao"/><path d="m710.2 389.24 7.06-2.42.65-1.6 2.17.63 4.23-1.45-13.12-16-.99 20.84z" class="av"/><path d="m707.4 372.45 3.21 8.18 4.39-7.58-7.6-.6z" class="aq"/><path d="m704.87 371.05 6.04 3.34 2.49-8.12-1.32-12.55-7.21 17.33z" class="ao"/><path d="m710.91 374.39 7-2.3-5.83-18.37-1.17 20.67zM701.74 386.5l4.4-7.19-.66 8.4-3.74-1.21z" class="av"/><path d="m717.26 386.82-2.63-8.9 5.45 7.93-2.82.97z" class="y"/><path d="m737.08 383.17 1.91-11.61-5.45-8.88 1.21 20.49h2.33z" class="at"/><path d="m720.32 366.71 3.9 1.01 2.1-.96.73 1.7 2.14.56 1.73-1.5 1.07 2.22 7 1.82 1.42-7.17-6.87-16.15-13.22 18.47z" class="ao"/><path d="m738.99 371.56 16.76-7.77-16.76-17.41-2.4 9.03 2.4 16.15z" class="av"/><path d="m730.37 352.67 7.3 10.01 6.96-10.44-14.26.43z" class="aq"/><path d="m736.59 355.41-6.22-2.74-.82-1.3-.79.59-2.89-1.28 13.19-29.09.49 21.07-2.96 12.75z" class="ao"/><path d="m736.59 355.41 5.28-2.08.72-1.66 2.04.57 3.95-1.56-9.52-29.09-2.47 33.82zM730.37 352.67l1.25-7.11-2.86 6.4 1.61.71zM731.99 369.74l1.6-11.81-4.4 11.09 2.8.72zM727.05 368.46l2.5-7.55-5.33 6.81 2.83.74z" class="av"/><path d="m744.63 352.24-3.62-9 .86 10.09 2.76-1.09z" class="y"/></g><g id="g"><path d="m221.96 283.34-6.08-32.07 17.14-8.17v18.95l-11.06 21.29z" style="fill:#1c5a3f;stroke-width:0"/><path d="m220.84 254.5 16.62 4.95-4.44-16.35-7.34.08-4.84 11.32zM396.98 210.58l8.81-1.67 10.04-5.52 11.16-19.6-18.61 4.89-11.48 11.52.08 10.38z" class="q"/><path d="m468.24 160.27-3.01-.76-15.93 10.38-6.1 2.71-4.81 10.01-10.56.61-1.09 4.4-11.11 8.06-6.03.25-10.37 7.19 8.35 4.3 21.72-18.12 12.09-1.97 6.76-12.07 20.09-14.99z" class="y"/><path d="m415.26 198.54 11.48-10.92 1.09-4.4-18.23 12.71 5.66 2.61z" class="ao"/><path d="m465.66 160.53 2.58-.26-3.14-1.55-21.9 13.88 5.59.04 16.87-12.11z" class="as"/><path d="m395.94 191.38 13.09-9.9 17.72-.7 1.08 2.44-5.84 4-8.05 1.49-4.34 7.22-5.16 3.58-7.54.69-.96-8.82z" class="r"/><path d="m435.14 188.35-13.92 21.2-15.43-.64 22.04-25.69 7.31 5.13z" class="w"/><path d="M315.81 363.23V374l13.29-4.11 7.56-5.73 2.46-9.7-23.31 8.77zM258.7 353.55l-3.99 20.5 11.51-.05 11.53-4.94 1.83-7.13-20.88-8.38z" class="an"/><path d="M336.66 364.16 315.81 374v5.59l17.68 1.48 21.71-1.48-18.54-15.43z" class="ao"/><path d="M315.81 379.59h39.4v5.32h-39.4z" class="y"/><path d="m277.75 369.06 4.23 13.48-13.64 2.66-15.56-2.66 1.93-8.49 23.04-4.99z" class="ao"/><path d="M252.78 382.54h29.2v5.32h-29.2z" class="y"/><path d="m278.9 214.59-7.83-1.18-20.65-2.16 27.57 22.24 1.94 6.54 12.58 25.6 16.93-16.51-30.54-34.53z" class="ay"/><path d="m268.34 243.97 9.11 15.99 9.54 4.28 6.88-9.79-13.94-24.26-11.59 13.78z" class="s"/><path d="m355.3 235.19-40.65 59.78-20.78-40.52-16.42 5.51-32.89 92.21 44.18 17.16 69.56-24.6-3-109.54z" class="ay"/><path d="m326.86 263.74-17.42-14.62-15.57 5.33-4.78 111.78 42.09-88.92-4.32-13.57zM250.42 211.25l-17.4 31.85 25.58 13.03 13.47-33.62-21.65-11.26z" class="z"/><path d="m233.02 243.1 11.56 18.95 8.09-4.36 18.12-33.37-37.77 18.78z" class="ay"/><path d="m270.79 224.32-22.3 21.97-8.6-1.77-7.51 8.33-.57 26.25 10.08-13.74 15.42 3.26 22.62-38.43-4.13-4.77-5.01-1.1z" class="l"/><path d="m364.25 151.77-21.9 4.23 1.46 10.95 2.24 13.28 11.07-7.71 7.13-20.75z" class="m"/><path d="m339.76 141.67 6.06 16.46 18.43-6.36-24.49-10.1z" class="ae"/><path d="m348.39 194.13 4.26 3.47 8.99 1.84 7.85-16.75-12.51 4.19-8.59 7.25z" class="m"/><path d="M357.12 172.52h-14.77l6.04 21.61 21.1-11.44-12.37-10.17zM266.19 186.88l-18.08 4.95-5.27 13.8 10.88 2 13.89-11.77-1.42-8.98z" class="ac"/><path d="m263.85 174.26-25.13 6.6 9.39 10.97 17.1 3.23 4.98-8.18-6.34-12.62z" class="m"/><path d="m263.92 156.17-4.97 1.08-3.79-4.84-16.44 28.45 25.69-3.55-.49-21.14z" class="ae"/><path d="m278.13 198.8-35.29 6.83 7.58 5.62 30.29-4.96-2.58-7.49zM342.9 141.45l.05.22-.02-.22h-.03z" class="m"/><path d="m400.26 221.82-9.93-27.56-14.77 7.57-11.75 14.86-2.44 14.7 38.89-9.57z" class="ay"/><path d="m348.39 194.13-1.81 17.4 19.15 15.76 9.83-25.46-27.17-7.7z" class="z"/><path d="m351.3 234.81 27.1 4.14 17.43-14.44 1.03-5.73-31.13 8.51L351.3 212l-23.11-23.88 23.11 46.69z" class="l"/><path d="m395.94 191.38-5.61 2.88 6.53 24.52-18.46 20.17 5.82.86 19.84-19.48-8.12-28.95z" class="y"/><path d="m341.16 238.27 10.14-3.46-5.05-10.3-5.09 13.76z" class="ay"/><path d="m309.44 249.12 1.33.84-1.33-.84z" class="as"/><path d="m342.62 224.7-5.12 13.83-.48 1.16 4.14-1.42 5.09-13.76-1.94-3.95-1.69 4.14zM326.86 185.03l-.04-.09-.17.11.21-.02z" class="y"/><path d="m349.95 182.19-13.09-76.45-21.77-16.77-13.81 11.68-28.68-1.89-4.99 4.55 10.38 20.26 16.91 73.56 27.15-7.34 27.9-7.6z" class="r"/><path d="m315.09 93.33 21.77 12.41-12.98-17.32-10.67-3.13-2.25 3.68 4.13 4.36z" class="x"/><path d="m313.21 85.29-21.95-6.44.52 16.36 11.84 10.53 11.47-12.41-1.88-8.04z" class="ae"/><path d="m270.36 95.21.23 2.57 1.77 1.46 31.22 6.54.04-.04-12.36-26.89-20.9 16.36z" class="ac"/><path d="m289.97 129.27 28.23 28.86-1.43-24.58-10.4-10.04 8.81-1.55 4.54 12.65 4.2 6.99 5.89-20.92-6.54-2.81-5.25.97-2.84 3.12-8.81 1.55-5.09-2.48-6.38 2.54-4.93 5.7zM280.41 112.09l-7.81-13.33-17.44 21.77 11.03 7.61-8.66 19.53-7.11 2.63 5.85 17.05 6.01-1.51 3.91.79-1.78 10.68 1.78 9.57 23.78 17.07 6.55-6.82-16.11-85.04z" class="w"/><path d="m262.28 165.84 2.13 11.47 5.69-13.57-7.82 2.1zM308.78 193.46l-17 3.36 15.29 11.96 1.71-15.32zM255.16 152.41l10.05 6.72-2.65-9.12-7.4 2.4z" class="q"/><path d="m289.09 366.23-44.53-14.06-2.1 6.62 46.07 13.41 70.06-21.2-.29-6.27-69.21 21.5z" class="y"/><circle cx="301.16" cy="138.75" r="3.34" class="aw"/><circle cx="327.15" cy="132.85" r="3.34" class="aw"/><path d="m315.18 121.96 6.41 9.12 5.57 25.09-3.89 1.96h-5.07l-4.85-24.77-6.98-9.85 8.81-1.55z" style="fill:#e8cab6;stroke-width:0"/><path d="m246.86 113.84 10.67 33.83 3.41-1.22 7.27 4.2 2.09-26.64-8.37-4.91 10.67-20.34-2.24-3.55-23.5 18.63z" class="m"/><path d="m303.34 201.31-6.82 7.33-19.39 13.87 35.97 27.51 23.92-10.33-33.68-38.38z" class="ao"/><path d="m267.61 219.7 9.52 2.81 28-10.51-19.21-13.22-20.71-3.72-11.49 12.57 13.89 12.07z" style="fill:#84c8ab;stroke-width:0"/><path d="m310.77 243.87-57.05-36.24-3.3 3.62 59.02 37.87 21.74 28.19 11.85-37.62-32.26 4.18zM303.34 201.31l-37.15-14.43-.98 8.18L305.13 212l-1.79-10.69z" class="y"/><path d="m318.2 158.13-19.19 17.27 11.76 68.47 21.54 19.83 1.65 2.92-.75 2.91-2.03 7.78 11.79 8.2-7.86-83.68-11.2-42.46-5.71-1.24z" class="ac"/><path d="m345.24 261.72 10.06-26.53-11.49-68.24-16.65-10.78-3.25 3.2 19.06 126.14 6.48-12.57-3.32-5.39-1.82-2.66.93-3.17z" class="x"/><path d="m332.312 263.712 12.929-1.981.892 5.822-12.93 1.98z" class="s"/><path d="m332.9 167.12-7.31 3.37-11.54-.16-1.81-3.7 12.79.19 8.54-3.58-.67 3.88z" class="q"/><path d="m327.16 156.17-8.96 1.96 6.08 3.7 2.88-5.66zM300.23 117.87l1.05 3.16-11.31 8.24-1.46-3.69 11.72-7.71zM316.77 115.07l1.25 3.77 11.79 1.84.79-2.55-13.83-3.06z" class="m"/><path d="m248.49 246.29 8.82 22.33-25.5 10.48 16.68-32.81z" class="s"/><path d="m233.02 243.1 6.87 1.42-8.08 34.58-9.85 4.24 11.06-40.24z" style="fill:#216a4b;stroke-width:0"/><path d="m220.76 231.39-8.18 2.3-5.22 12.03 13.48 8.78 6.95-6.5-2.11-10.8-4.92-5.81z" class="w"/><path d="m233.02 243.1-2.02-8.46-9.51-11.38-3.16 2.41 9.46 22.33 5.23-4.9z" class="r"/><path d="m220.76 231.39-13.4-13.48-5.82 9.38 5.82 18.43 13.4-14.33z" class="r"/><path d="m202.77 153.22 1.63-12.33 6.28 9.54 11.17-2.79-10.7 8.84-1.86 12.1-4.19-9.31-12.34-.46 10.01-5.59zM222.32 164.05l5.12-5.82-1.16 8.84 6.28 5.35-7.68-2.09-4.65 6.05 1.62-7.68-5.81-5.35 6.28.7zM188.45 179.99l11.41-1.16-8.62 6.75 1.87 11.63-6.52-8.14-9.31 4.42 7.45-10.47-4.19-12.34 7.91 9.31zM215.86 107.9l-.87 7.51 6.81 2.79-7.86.88-3.32 6.28.88-7.5-6.11-5.07 6.98 2.1 3.49-6.99z" class="o"/><path d="m472.86 153.82 4.76-4.27 4.26 6.07-6.72 3.78-2.3-5.58zM470.24 164.65l2.62-.99 1.31 2.79-3.93.99v-2.79zM485.66 159.56l2.95-3.94 3.61 2.3-2.14 4.59-4.42-2.95zM493.86 166.45l3.61-.66 1.64 2.79-4.1 2.3-1.15-4.43zM463.67 152.67l.82-3.28 3.45.49-.17 4.92-4.1-2.13z" class="ap"/></g><g id="h"><path d="m412.14 375.07-6.65 15.74 24.73 5.46 4.18-3.07 4.74 5.05 4.44.98 6.04-.98 3.27 3.03 5.91 1.31 3.41-1.31 2.97 2.72 17.58 3.88 11.97-9-1.97-12-80.62-11.81z" class="ar"/><path d="m482.76 407.88 34.61-3.57 4.88-3.78 6.05 2.66 5.77-.6 3.07-3.41 4.42 2.64 28.55-2.94-10.02-22.7-54.7 6.93-17.55 8.36-5.08 16.41zM430.22 396.27l7.45-15.67 4.4-2.42-2.93 20.07-8.92-1.98zM443.58 399.23l7.43-20.1 11.2 4.55-9.32 17.6-9.31-2.05zM458.8 402.59l9.49-15.35-3.11 16.76-6.38-1.41z" class="j"/><path d="m517.37 404.31-4.58-18.12 3.34-4.11 12.17 21.11-10.93 1.12zM534.07 402.59l-6.71-19.48 14.2 18.71-7.49.77z" class="ai"/><path d="m412.14 375.07 69.22-12.55 78.73 13.66-72.25 15.29-75.7-16.4z" class="au"/><path d="m438.22 370.34 5.51-10.86 53.42 3.47-1.76 11.13-5.24 8-13.06-2.95-3.01-4.06-7.28 1.73-4.59-1.04-2.22-2.91-5.51 1.16-16.26-3.67z" class="ar"/><path d="m490.15 382.08 15.07-2.95 2.72-4.53 4.85 3.04 3.31-.65.03-1.92 2.46 1.43 9.71-1.9v-2.61l5.44 1.55 5.21-1.02-10.9-17.68-27.09 3.49-9.55 10.28-1.26 13.47zM454.48 374.01l9.07-11.06-1.34 12.81-7.73-1.75zM466.8 376.8l4.58-12.47 9.98-1.81-4.27 16.61-10.29-2.33z" class="j"/><path d="m505.22 379.13-2.12-19.65h3.42l6.27 18.16-7.57 1.49zM516.1 376.99l-5.46-18.66 5.07 1.15 2.88 17.02-2.49.49zM528.3 374.6l-7.76-16.79 13.2 15.73-5.44 1.06z" class="ai"/><path d="m443.73 359.48 44.81-8.73 39.51 4.09-36.64 13.77-47.68-9.13z" class="au"/><path d="m151.82 380.71 9.42 1.96 3.56-1.96 1.6 3.04 3.87.81 4.78-1.24 2.72 2.8 12.6 2.63 5.58-8.04-3.28-13.21-36.75 1.19-4.1 12.02z" class="j"/><path d="m190.37 388.75 11.24-3.04 2.56-3.73 2.55 2.35 3.72-1.01 2.57-4.6 5.37 2.45 9.07-2.45-4.27-13.61-27.23 2.39-6.86 6.12 1.28 15.13z" class="ar"/><path d="m210.44 383.32-5.83-16.58h5.83l7.94 14.43-7.94 2.15zM206.72 384.33l-3.8-9.3-1.31 10.68 5.11-1.38z" class="j"/><path d="m161.24 382.67 7.11-12.13-1.95 13.21-5.16-1.08zM170.27 384.56l5.96-16.22 3.6 3.9-2.06 13.88-7.5-1.56z" class="ai"/><path d="m155.92 368.69 33.17 4.93 34.09-8.51-38.22-3.25-29.04 6.83z" class="au"/><path d="m463.55 358.33 13.28 2.24 17.9-3.8-19.33-1.93-11.85 3.49z" class="n"/></g><g id="i"><path d="m477.97 320.15-10.92-2.77-6.89 6 13.12 8.19 4.69-11.42z" class="au"/><path d="m465.08 326.45 3.72-4.93 7.3 3.95-5.51 4.42-5.51-3.44z" class="ak"/><path d="m473.94 358.87-2.91-16.33 9.29-1.27-6.38 17.6z" class="ax"/><path d="m477.97 347.75 8.65-13.07-19.57 1.98 10.92 11.09z" class="am"/><path d="m472.79 339.48-5.74-5.3-9.54 4.21 20.46 9.36-5.18-8.27zM486.62 334.68l-8.65-14.53-6.94 6.3-2.55 5.78 4.31 7.25 13.83-4.8z" class="ap"/><path d="m471.03 326.45-10.87-3.07-2.65 15.01 15.28 1.09-1.76-13.03z" class="o"/><path d="m373.25 339.19 10.94-4.24 8.09 5.49-9.51 12.02-5.91-5.98-3.61-7.29z" class="au"/><path d="m378.12 342.12 4.65-2.93 5.17 4.35-4.54 4.92-5.28-6.34z" class="ak"/><path d="m384.19 394.21-6.07-19.3 5.63-6.42.44 25.72z" class="ax"/><path d="m378.12 374.91-14.81-15.58 22.41-.49-7.6 16.07z" class="am"/><path d="m378.12 374.91 17.44-13.1-7.62-5.59-7.63 7.83-2.19 10.86zM363.31 359.33l9.94-20.14 10.94 5.26 2.65 10.3-6.53 9.3-17-4.72z" class="ap"/><path d="m395.56 361.81-3.28-21.37-8.09 4.01-3.88 19.6 15.25-2.24z" class="o"/><path d="m605.26 370.74-8.82-2.96-6.53 3.83 5.11 5.84 7.33-1.61 2.91-5.1z" class="au"/><path d="m601.34 372.79-3.75-2.05-4.17 3.05 1.09.86 6.83-1.86z" class="ak"/><path d="m603.53 402.82-4.77-9.67 3.93-7.22.84 16.89z" class="ax"/><path d="m598.76 393.15 14.52-10.9-20.65-.34 6.13 11.24z" class="am"/><path d="m598.76 393.15-15.35-7.87 7.44-5.2 6.15 5.47 1.76 7.6z" class="ap"/><path d="m613.28 382.25-8.02-11.51-8.82 3.68-4.71 4.63 5.27 6.5 16.28-3.3z" class="ap"/><path d="m583.41 385.28 6.5-13.67 6.53 2.81.56 11.13-13.59-.27z" class="o"/><path d="m805.56 345.2-6.53-1.53-5.65 3.75 4.42 7.43 6.35-2.05 1.41-7.6z" class="au"/><path d="m803.27 348.92-3.24-2.6-4.73 2.75 4.22 7.55 3.75-7.7z" class="ak"/><path d="m804.06 387.1-3.01-12.3 6.74-12.52-3.73 24.82z" class="ax"/><path d="m801.05 374.8 12.57-12.74-17.88-4.89 5.31 17.63z" class="am"/><path d="m801.05 374.8-13.3-8.89 6.44-7.72 5.33 8.07 1.53 8.54zM813.62 362.06l-8.06-16.86-6.53 5.8-4.08 5.88 4.57 9.38 14.1-4.2z" class="ap"/><path d="m787.75 365.91 5.63-18.49 5.65 3.58.49 15.26-11.77-.35z" class="o"/><path d="m771.98 398.84-2.78-8.68 4.26-2.15-1.48 10.83z" class="ax"/><path d="m762.88 389.51 9.98 2.93 7.7-6.37-11.36-2.7-6.32 6.14z" class="ap"/><path d="m768.33 388.01 2.87-1.96 2.26.98-2.56 2.28-2.57-1.3z" class="au"/><path d="m855.69 349.74 1.47 14.06 4.61-13.29-6.08-.77z" class="ax"/><path d="m860.38 354.51-11.41-7.98 12.8-2.67 8.12 5.88-9.51 4.77z" class="ap"/><path d="m857.16 348.1 3.62-1.35 2.83 2.44-3.22 1.14-3.23-2.23z" class="au"/><path d="M89.62 400.74 83.51 386l4.83-3.32 1.28 18.06z" class="ax"/><path d="m84.79 389.1-10.56-5.13 14.28-6.88 9.35 4.07-13.07 7.94z" class="ap"/><path d="m83.51 383.09 3.68-2.2 2.43 1.06-3.58 2.3-2.53-1.16z" class="au"/><path d="m232.67 403.96 1.49-11.55 4.54.86-6.03 10.69z" class="ax"/><path d="m237.46 395.46-9.1-5.51 10.34-2.96 8.36 5.42-9.6 3.05z" class="ap"/><path d="m235.13 390.44 2.71-.98 2.46 1.59-2.95 1.23-2.22-1.84z" class="au"/><path d="m29.03 353.45.88-7.87.35-3.05 4.66.93-5.89 9.99z" class="ab"/><path d="m41.03 342.3-11.12 3.28-5.91-5.67 9.64-2.59 7.39 4.98z" class="ap"/><path d="m29.99 340.93 2.26-1.2 2.27 1.2-2.93 1.6-1.6-1.6z" class="au"/></g></svg>