<svg xmlns="http://www.w3.org/2000/svg" id="a" viewBox="0 0 900 350"><defs><style>.j{fill:#576071}.ab,.ac,.ad,.af,.ag,.ah,.ai,.aj,.al,.am,.an,.ao,.ap,.as,.at,.au,.av,.aw,.ax,.az,.ba,.bb,.bc,.bd,.be,.bg,.bh,.j,.l,.m,.n,.o,.p,.q,.r,.s,.t,.u,.v,.w,.x,.y,.z{stroke-width:0}.l{fill:#46382d}.m{opacity:.1}.aw,.m{fill:#1d2432}.n{fill:#545c6d}.o{fill:#d0ab92}.p{fill:#709d52}.q{fill:#8b6651}.r{fill:#68707f}.s{fill:#dfbda5}.t{fill:#216a4b}.u{fill:#d7e056}.v{fill:#35775e}.w{fill:#9a9fa9}.x{fill:#84c8ab}.y{fill:#98c06c}.z{fill:#c3987b}.ab{fill:#f4d75c}.ac{fill:#267a56}.ad{fill:#b7c543}.af{fill:#54ae88}.ag{fill:#c29431}.ah{fill:#e5e87a}.ai{fill:#5bb68f}.aj{fill:#fff7ae}.al{fill:#70bf9d}.am{fill:#a0cf7e}.an{fill:#28835c}.ao{fill:#59763e}.ap{fill:#4b5464}.as{fill:#d8bca9}.at{fill:#5f5044}.au{fill:#47ad82}.av{fill:#d9e256}.aw{opacity:.15}.ax{fill:#787f8d}.az{fill:#8e7e73}.ba{fill:#86b264}.bb{fill:#2d9368}.bc{fill:#99d1b9}.bd{fill:#232a38}.be{fill:#74665b}.bg{fill:#2b8b62}.bh{fill:#33a474}</style></defs><g id="b"><path d="m172.62 242.04 39.55-6.42 33.66 5.72-39.56 6.58-33.65-5.88zM91.6 231.46l29.43-4.44 23.12 4.49-27.13 4.11-25.42-4.16zM7.19 243.57l24.97 9.9 46.5-2-16.31-13.76-29.84 2.2-25.32 3.66zM55.05 284.1l40.96-8.39L159 285.6l-2.98 14.95-82.05-4.31-18.92-12.14zM216.1 279.5l49.62-8.35 27.04 9.16-10.34 15.16-59.74-7.34-6.58-8.63zM298.72 292.24l10.17-8.93 32.16-3 44.54-3.53 21.38.89 13.46 13.29-10.07 9.59-20.38-2.21-19.65 7.82-11.61 7.48L340.83 303l-42.11-10.76zM634.34 261.54l-46.18-6.08-47.27 11.13-36.37 16.5 69.46 2.83 48.68-11.35 11.68-13.03zM725.25 321.15l-26.27-4.12-27.76 15.8 46.06-1.43 7.97-10.25zM815.28 293.04l-55.3-3.01 15.32-13.48 32.28-3.68 29.76 8.07-22.06 12.1zM895.74 241.21l-30.7-5.64-30.79 15.64 40.25 2.86 21.24-12.86zM662.24 214.9l41.94-3.76 23.28 2.76-30.55 5.35-34.67-4.35zM469.01 232.85l18.54-5.04 30.05 6.89-35.41 9.52-25.15-6 11.97-5.37zM217.49 330.75l52.36 4.53 7.64-5.64-43.15-12.41-22.06 4.22 5.21 9.3zM182.64 332.12l14.24-3.16 11.74 3.87-15.6 4.02-10.38-4.73zM130.2 323.08l13.28-3.93 15.52 1.96-4.48 1.97-5.29-.96-1.44.96-3.19-.68-1.89.68-4.18-.96-1.93.96h-6.4zM318.24 332.83l11.65-2.08 14.32 8.85-18.34.8-11.89-4.82 4.26-2.75zM401.03 333.48l8.52-2.73 19.15-2.79 10.29 2.79 12.02 2.73h-7.44l-4.58-1.08-3.38 1.08-4.9-1.84-4.51 1.84-5.16-1.84-3.98 1.84-5.45-1.36-2.42 1.36h-8.16zM444.21 327.2l22.22-3.35 24.19 4.11-18.81 3.44-7.72.87-19.88-5.07zM473.78 340.69l12.18 2.4 10.17-2.88-12.79-1.91-9.56 2.39zM602.29 318.85h-8.06v-1.82l-5.94 1.82-3.33-1.82-4.89 1.82-5.66-3.1-3.42 3.1-4.06-1.82-1.29 1.82-4.04-1.55 16.08-2.88h10.72l13.89 4.43zM494.51 295.47l51.96 15.16 94.41-4.41 38.85-10.75-67.31-9.66-41.44 3.11-54.27 2.28-22.2 4.27zM751.07 309.19h-7.19l-2.04-2.68-4.72 2.68-4.05-2.68-1.88 2.68-4.24-1.34-2.28 1.34-4.43-1.34 12.22-2.96 11.34.83 7.27 3.47zM780.56 325.4h-9.62l-1.58-1.56-5.42 1.56-3.96-3.39-5.75 3.39-4.78-2.33 13.59-3.26 8.14 1.05 9.38 4.54z" class="m"/></g><circle id="c" cx="277.49" cy="62.39" r="21.21" class="x"/><g id="d"><path d="m493.04 204.48-.49 5.39-1.93.77 1.58 3.1-1.58 17.34h-4.8l-4.2-37.14 11.42 10.54zM216.1 194.87l-.81 8.45-1.69 2.88 1.13 2.87-1.58 16.37-2.82 2.59 2.33 2.58-1.04 10.73h-7.31l-.52-11.65 1.79-1.66-1.88-.38-.15-3.48 2.03-2.58-2.26-2.58-.92-20.61 11.21-18.59 2.49 15.06z" class="x"/><path d="m202.4 198.4 13.7-3.53 4.11-7.57 7.44 4.59 26.89-6.94-31.7-61.64-16.2 17.53-7.34 16.91 3.1 40.65z" class="bg"/><path d="m209.25 145.1-9.95-16.28-48.25 44.45 23.91 11.7 7.41-3.27.73 7.26 19.3 9.44 6.85-53.3zM216.1 194.87l2.04-27.28 9.51 24.3-11.55 2.98z" class="ac"/><path d="m174.96 184.97 22.35-32.36-14.21 36.35-8.14-3.99z" class="t"/><path d="m230.26 137.74-22.63 20.01-18.37-19.68 17.91-3.99 23.09 3.66z" class="aw"/><path d="m209.25 145.1 21.01-7.36 2.03-3.66 4.18 1.48 8.17-2.86-32.3-47.23-4.69 8.57-6.2 23.23 7.8 27.83z" class="bg"/><path d="m209.25 145.1-34.29-12.06 30.78-49.68 1.91 10.68 1.6 51.06zM230.26 137.74l-7.9-26.21 14.11 24.03-6.21 2.18z" class="ac"/><path d="m215.56 90.18-7.58 14.54-6.95-13.76 14.53-.78z" class="aw"/><path d="m207.65 94.04 15.39-7.51-11.26-54.04-6.12 42.85 1.99 18.7z" class="bg"/><path d="m207.65 94.04-13.83-6.43 17.96-55.12-4.13 61.55z" class="ac"/><path d="m215.29 203.32-7.42 3.22 6.86 2.53.56-5.75zM203.32 219.01l10.28 1.79-10.05 3.37-.23-5.16zM213.15 225.44l-9.45 2.21.09 2.04 8.87.92.49-5.17z" class="ai"/><path d="m115.36 208.56 1.36 10.19 1.87 2.19-1.28 2.19 1.18 8.84h5.47l-.88-14.94-2.18-2.49 1.92-1.96-.92-15.47-6.54 11.45z" class="x"/><path d="m120.9 166.98 4.97-3.83 23.36 37.69-10.58 2.41-4.66-1.77-1.04 3.07-3.61.83-3-2.13-1.29 3.1-9.69 2.21-3.12-21.3 8.66-20.28z" class="bg"/><path d="m120.9 166.98-8.66-5.87-28.08 36.99 12.67 4.25 4.62-2.5.87 4.34 13.04 4.37 5.54-41.58z" class="ac"/><path d="m122.82 212.58-6.6 2.42 6.86 2.03-.26-4.45zM116.72 218.75l6.53 1.27-5.94 3.11-.59-4.38z" class="ai"/><path d="m138.65 203.25-9.31-18.79 3.61 20.09 5.7-1.3zM129.34 205.38l-3.45-10.88-.84 11.85 4.29-.97z" class="ac"/><path d="m96.83 202.35 13.62-26.56-8.13 28.4-5.49-1.84z" class="t"/><path d="m127.25 165.38-7.6 10.41-9.4-12.07 8.5-.57 8.5 2.23z" class="aw"/><path d="m136.11 163.15-5.38 1.35-2.38-1.61-1.1 2.49-6.35 1.6-6.39-14.74 2.21-10.8 3.88-3.93 15.51 25.64z" class="bg"/><path d="m116.72 141.44-3.72-3.93-10.47 23.85 3.88 1.19 2.92-1.44.92 2.61 3.1.95 1.16-1.24 1.17 1.95 5.22 1.6-4.18-25.54z" class="ac"/><path d="m110.25 163.72 1.99-10.31-5.83 9.14 3.84 1.17zM113.35 164.67l2.01-8.1.32 8.81-2.33-.71z" class="t"/><path d="m127.25 165.38-3.29-13.94 6.77 13.06-3.48.88z" class="ac"/><path d="m122 139.82-4.46 6.6-5.51-6.7 9.97.1z" class="aw"/><path d="m116.72 141.44 9.81-3.01-7.78-24.94-3.23 19.82 1.2 8.13z" class="bg"/><path d="m116.72 141.44-8.19-3.01 10.22-24.94-2.03 27.95z" class="ac"/><path d="m707.15 189.96-1.43 10.19-1.99 1.12 1.65 1.32-.43 3.04-1.62 1.23 1.17 2.02-.97 6.87h-5.69l-1.2-12.18 1.07-2.3-1.53-2.3-.5-5.03 1.08-.69-1.31-1.69-1.14-11.52 12.84 9.92z" class="x"/><path d="m691.39 114.04-39.03 62.48 16.74 4.11 5.3-3.14 1.4 4.78 7.08 1.74 6.06-3.72 6.06 6.69 12.15 2.98 4.23-36.29-9.42-34.2-10.57-5.43z" class="bg"/><path d="m701.96 119.47 10.4-5.76 41.51 61.89-16.35 5.03-9.73-.59-4.31 4.9-16.33 5.02-5.19-70.49zM669.1 180.63l10.63-20.21-3.93 21.85-6.7-1.64zM682.88 184.01l9.79-36.41 2.33 39.38-12.12-2.97z" class="ac"/><path d="m737.52 180.63-19.47-30.81 5.43 35.12 14.04-4.31z" class="t"/><path d="m689.84 116.51 13.18 17.44 11.19-17.49-15.39-5.83-8.98 5.88z" class="aw"/><path d="m701.96 119.47-12.12-2.96-2.69-4.85-3.15 3.42-9.84-2.4 16.66-31.81 4.18 3.82 6.96 11.51v23.27z" class="bg"/><path d="m701.96 119.47 8.28-2.03.1-3.4 3.87 2.42 11.21-2.75-24.14-31.81-6.28 2.79 6.96 34.78zM689.84 116.51l1.13-16.26-6.97 14.83 5.84 1.43z" class="ac"/><path d="m714.21 116.46-7.74-12.64 3.77 13.62 3.97-.98z" class="t"/><path d="m689.65 83.11 6.89 9.31 6.13-8.7-7.67-2.85-5.35 2.24z" class="aw"/><path d="M683.91 81.42 695 84.69l4.87-15.04V40.09l-15.96 41.33z" class="bg"/><path d="m695 84.69 14.02-1.77-9.15-42.83-4.87 44.6z" class="ac"/><path d="m705.72 200.15-9.54-1.18.46 4.6 8.74-.98.34-2.44zM704.95 205.63l-8.19-.79 7.74 4.04.45-3.25zM695.45 191.56l10.96 4.75-10.73-2.37-.23-2.38z" class="ai"/><path d="m557.33 116.27-46.54 60.62 41.23 7.79 18.96-34.13v-27.37l-13.65-6.91z" class="bb"/><path d="m573.13 116.51 33.5 62.82-54.61 5.35 13.79-58.81 7.32-9.36z" class="an"/><path d="m553.15 121.71 9.87 16.04 13.15-15.54-11.51-5.94-11.51 5.44z" class="aw"/><path d="m556.85 66.38-20.38 49.84 9.81 3.23 5.36-2.77 1.51 5.03 12.66 4.16 3.06-36-7.85-16.98-4.17-6.51z" class="bb"/><path d="m565.81 125.87 10.36-3.66.24-5.02 5.4 3.02 12.29-4.34-31.54-52.48-1.54 9.5 4.79 52.98zM553.15 121.71l2.7-24.69-9.57 22.43 6.87 2.26z" class="an"/><path d="m576.17 122.21-5.19-23.85 10.83 21.85-5.64 2z" class="ac"/><path d="m554.84 71.31 7.01 10.78 4.95-11.64-5.08-1.9-6.88 2.76z" class="aw"/><path d="m548.36 24.55-4.08 44.04 5.59 1.44 2.15-2.24 2.82 3.52 6.18 1.58V52.21l-12.66-27.66z" class="bb"/><path d="m548.36 24.55 28.05 41.84-6.68 2.82-2.93-.66v1.9l-5.78 2.44-12.66-48.34zM554.84 71.31l-3.78-12.46-1.19 11.18 4.97 1.28z" class="an"/><path d="m566.8 70.45-7.5-20.25 10.43 19.01-2.93 1.24z" class="ac"/><path d="m432.08 193.09 46.6-59.68 9.31 4.34 13.57 32.14-8.52 34.59-10.44-1.95-7.38-7.21-8.4 4.26-4.54-.85-3.71-6.24-6.51 4.33-19.98-3.73z" class="bb"/><path d="m493.04 204.48 9.61-1.58 3.49-5.54 4.65 4.2 35.68-5.87-45.91-62.48-12.57 4.54 5.05 66.73z" class="an"/><path d="m492.55 209.87-9.21-.78 8.86 4.65.35-3.87z" class="ai"/><path d="m452.06 196.82 14.33-23.84-4.11 25.75-10.22-1.91zM466.82 199.57l10.78-35.92 5 38.88-15.78-2.96z" class="an"/><path d="m502.65 202.9-1.16-20.63 9.3 19.29-8.14 1.34z" class="ac"/><path d="m472.23 141.67 17.69 21.59 16.41-22.2-19.51-4.87-14.59 5.48z" class="aw"/><path d="m452.8 136.21 35.84 10.06 9-26.06-10.09-50.8-6.94-5.78-27.81 72.58z" class="bb"/><path d="m488.64 146.27 28.13-8.29 1.42-5.21 4.56 3.44 6.8-2-35.38-70.58-6.62 5.78 1.09 76.86z" class="an"/><path d="m522.75 136.21-11.96-19.01 5.98 20.78 5.98-1.77z" class="ac"/><path d="m479.44 66.68 8.31 16.81 8.64-15.42-8.47-2.99-8.48 1.6z" class="aw"/><path d="m487.55 69.41-8.11-2.73-.76-3.05-3.99 1.45-5.95-2L496.87 12l-2.36 35.74-6.96 21.67z" class="bb"/><path d="m487.55 69.41 8.84-1.34 2.59-2.99 2.58 2.2 5.96-.9L496.87 12l-9.32 57.41zM479.44 66.68l4-17.96-8.75 16.36 4.75 1.6z" class="an"/><path d="m496.39 68.07 1.25-10.37 3.92 9.58-5.17.79z" class="ac"/></g><g id="e"><path d="m676.11 252.13 38.39 10.49-14.27 23.19-6.51-1.65-1.15-3.5-2.73 2.51-3.97-1.01-3.25-4.37-6.51 1.88-10.73-2.73 10.73-24.81z" class="w"/><path d="m706.36 266.59 55.53-3.53-1.91 26.97-14.73-1.04-3.64-2.59-3.65 2.08-5.72-.41-1.18-2.53-2.57 2.27-5.15-.37-4.1-1.94-4.1 1.37-14.91-1.06 6.13-19.22z" class="r"/><path d="m754.62 268.97 13.69-9.09 31.5-7.75 11.49 30.68-5.57.78-2.47-2.64-1.52 3.21-20.39 2.86-3.98-2.15-2.72 3.1-14.67 2.06-5.36-21.06z" class="j"/><path d="m676.11 279.67 14.55-25.33 3.06 4.51-7.85 23.31-9.76-2.49z" class="ax"/><path d="m715.14 286.87 6.42-19.53 1.78 20.1-8.2-.57zM730.11 267.76l-1.62 20.05 3.75.26 4.19-22.73-6.32 2.42zM740.04 268.25l-2.08 20.23 7.29.51-3.64-22.4-1.57 1.66z" class="j"/><path d="m698.98 263.06-9.14 20.11 3.88.99 5.26-21.1z" class="ax"/><path d="m763.04 263.06 11.61 24.91 6.7-.95-10.55-29.24-7.76 5.28zM777.37 260.49l14.81 25.01-10.83-29.45-3.98 4.44zM790.13 255.74l11.61 28.42 3.99-.57-14.44-29.25-1.16 1.4z" class="ap"/><path d="m676.11 252.13 48.25-12.41 75.45 12.41-45.19 16.84-48.26-2.38-30.25-14.46z" class="am"/><path d="m700.23 252.13 9.2-27.83 16.85 1.57 13.78 6.01 5.19 11.27-12.79 14.63-17.96-3.15-.48-3.84-4.08 3.04-9.71-1.7z" class="w"/><path d="m732.46 257.78 20.86-3.71 3.58-4.43 6.14 2.7 4.38-.77.98-4.42 3.8 3.57 9.15-1.63-6.05-28.56-24.9 2.49-10.34 8.86-7.6 25.9z" class="r"/><path d="m709.94 253.83 9.3-28.62 4.1.66-8.84 28.76-4.56-.8zM726.09 228.33l-6.85 27.13 13.22-26.9-6.37-.23z" class="ax"/><path d="m753.32 254.07-5.21-28.2 5.21 1.74 9.72 24.73-9.72 1.73zM767.42 251.57l-6.66-26.36 2.28-2.19 9.16 27.7-4.78.85z" class="j"/><path d="m709.43 224.3 38.68-9.32 27.19 5.55-35.24 11.35-30.63-7.58z" class="am"/><path d="m797.81 244.36 11.85-30.9h35.15l-1.43 23.16-9.13 14.59-15.16-2.85-3.81-5.42-8.7 3.07-8.77-1.65z" class="w"/><path d="m840.13 218.34 4.68-4.88 28.95.44 7.41 30.09-9.68 1.49-2.43-1.2-1.32 1.78-10.03 1.54-4.68-3.71-2.9 4.88-15.88 2.44 5.88-32.87z" class="r"/><path d="m806.58 246.01 17.4-30.26-4.89 32.61-12.51-2.35z" class="ax"/><path d="m848.34 217.26 1.79 31.51 7.58-1.17-9.37-30.34zM853.03 216.64l6.91 20.65-2.23-23.95-4.68 3.3zM867.74 246.06l-7.8-30.31 1.72-1.85 9.83 31.58-3.75.58z" class="j"/><path d="m830.26 213.9-2.49 19.11 6.48-17.26-3.99-1.85z" class="ax"/><path d="m809.66 213.46 29.4-5.18 34.7 5.62-33.63 4.44-30.47-4.88z" class="am"/><path d="m639.62 311.19-8.04 12.83 11.07 2.46 7.31-3.26 1.44 5.2 19.82 4.41 4.21-18.96-35.81-2.68z" class="w"/><path d="m667.67 319.81 10.44-8.62 23.04-2.3 9.14 16.28-18.86 3.69-7.33-2.54-.91 4.16-11.97 2.35-3.55-13.02z" class="r"/><path d="m648.35 313.87-5.7 12.61 8.75 1.94 2.2-14.55h-5.25zM658.63 317.03l-2.82 12.37 7.29-12.37h-4.47z" class="ax"/><path d="m683.19 330.48-6.42-16.61h4.21l10.45 14.99-8.24 1.62zM687.93 311.19l9.25 16.55-5.75-17.85-3.5 1.3z" class="j"/><path d="m639.62 311.19 26.62-7.11 34.91 4.81-33.48 10.92-28.05-8.62z" class="am"/><path d="m440.53 239.99 83.73 6.25-19.74 36.85-12.51-2.36-2.29-5.05-5.41 3.6-6.75-1.26-3.09-2.95-4.43 1.53-8.16-1.53-4.84-4.37-5.56 2.41-12.53-2.36 1.58-30.76z" class="w"/><path d="m510.89 252.35 25.76-13.36 56.25.98 6.58 31.18-28.5 3.59-4.02-4.42-1.73 5.14-25.76 3.23-1.24-3.23-4.4 3.94-29.31 3.69 6.37-30.74z" class="r"/><path d="m478.68 243.72 2.83 35.04 6.48-36.21-9.31 1.17zM492.66 246.24l-8.35 33.04 7.7 1.45 4.86-34.49h-4.21zM477.56 278.02l-4.95-17.4-2.57 15.98 7.52 1.42z" class="ax"/><path d="m533.83 279.4 2.87-24.77 2.77 24.06-5.64.71zM565.23 275.46l-9.09-32.91h9.09l5.75 32.19-5.75.72zM568.87 241.9l11.08 31.71-5.54-34.46-5.54 2.75z" class="j"/><path d="m461.88 275.07 5.31-31.75h-4.34l-11.37 29.79 10.4 1.96z" class="ax"/><path d="m592.9 239.97-19.77-3.95-34.9-6.97-59.55 6.85-38.15 4.09 70.36 12.36 82.01-12.38z" class="am"/><path d="m457.04 238.22 8.43.65 2.74-1.23 1.15 1.53 3.25.25 1.17-1.33.7 1.47 8.96.69 6.28-1.59 3.27 2.33 1.97.15 2.87-1.15.96 1.45 9.38.72 8.26-9.76 1.9-11.37-50.59-2.35-10.7 19.54z" class="w"/><path d="m514.17 225.32 6.17-5.49 40.87 2.81 11.92 13.38-13.07 1.23-5.21-2.21-2.83 2.97-22.97 2.18-7.67-2.18-3.05 3.19-10.16.96 6-16.84z" class="r"/><path d="M483.44 240.25 496 221.03l-3.01 19.96-9.55-.74zM494.96 241.14l6.89-21.31 6.32 4.07-9.38 17.54-3.83-.3zM486.14 219.99l-2.22 10.65 5.8-10.65h-3.58z" class="ax"/><path d="m516.43 225.19 1.9 16.01 10.72-1.01-4.79-15.45-2.88-2.39-4.95 2.84zM560.06 237.25l-12.3-13.85 4.26 14.61 8.04-.76z" class="j"/><path d="m465.47 238.87 11.49-19.55 3.14 1.13-5.62 19.11-1.87-.14.77-7.08-4.02 6.83-3.89-.3z" class="ax"/><path d="m467.74 218.68 58.02-6.13 35.45 10.09-47.04 2.68-46.43-6.64z" class="am"/><path d="m211.14 288-11.46-26.91-62.81 5.5 10.73 17.45 8.42 16.51 12.23-2.79 2.52-2.93 5.73 1.06 5.82-1.33 2.66-2.45 4.75.77 3.35-.77 2.1-2.5 4.27 1.05 11.69-2.66z" class="w"/><path d="m147.6 271.12-10.73-7.69H91.23L80.4 284.74l17.32 3.62 1.62-1.32.75 1.81 20.11 4.21 5.2-1.69 1.45 3.08 6.59 1.38 3.43-.94 3.21 2.32 15.94 3.34-8.42-29.43z" class="r"/><path d="m199.44 290.62-11.89-27.19-7.02-.62 12.55 29.3 6.36-1.49zM189.73 292.88l-18.6-26.29 11.19 27.97 7.41-1.68zM176.5 295.89l-10.83-28.25 2.58 30.12 8.25-1.87z" class="ax"/><path d="m136.24 269.57 3.84 27.64-6.64-1.38 1.71-16.33-8.3 14.95-6.65-1.39 8.63-27.91 7.41 4.42zM116.22 266.84l-8.44 23.62 2.26-24.47 4.49-1.73 1.69 2.58zM106.74 265.54l-6.65 23.31-2.37-.49 4.6-24.93 4.42 2.11z" class="j"/><path d="m199.68 261.09-50.36-11.69-58.09 14.03 56.37 7.69 52.08-10.03z" class="am"/><path d="m179.46 256.4-19.39 2.85-3.16-1.34-.89 1.94-8.42 1.24-9.07-8.2 3.83-9.32 30.26-1.53 6.84 14.36z" class="w"/><path d="m147.6 261.09-13.28-1.57-2.41-2.67-3.06 2.03-12.63-1.49 5.97-16.4 20.17 2.58 5.24 17.52z" class="r"/><path d="m161.51 240.99 7.65 16.92-14.93-18.1 7.28 1.18zM153.2 243.03l6.87 16.22-4.05.6-5.49-18.86 2.67 2.04z" class="ax"/><path d="m136.87 242.87-2.55 16.65-5.47-.64 6.87-17.89 1.15 1.88zM131.91 242.24l-6.51 16.23 3.45-17.48 3.06 1.25z" class="j"/><path d="m122.19 240.99 26.55-4.74 23.88 5.79-30.26 1.53-20.17-2.58z" class="am"/><path d="m319.56 324.89-7.79-23.05-41.92 8.81v24.63l11.71-2.45 3.08-3.19 3.07 1.9 12.94-2.7 2.51-2.53 5.73.81 10.67-2.23z" class="w"/><path d="m274.87 314.96-12.77-9.1-25.53-.48-14.86 19.75 13.95 2.94 5.97-.78 1.48 2.35 9.85 2.08 3.63-2.08 1.65 3.19 11.61 2.45 5.02-20.32z" class="r"/><path d="m308.89 327.12-12.06-22.84h-2.13l5.95 24.56 8.24-1.72zM296.83 329.64l-5.89-20.39h-7.35l13.24 20.39zM287.71 331.54l-4.67-9.79-1.48 11.08 6.15-1.29z" class="ax"/><path d="m265.72 310.65-7.48 22.18-5.28-1.11 4.1-22.47 8.66 1.4zM251.96 309.25l-8.85 20.39-7.45-1.57 16.3-18.82z" class="j"/><path d="m311.77 301.84-46.05-4.48-29.15 8.02 38.3 9.58 36.9-13.12z" class="am"/><path d="m355.34 324.65 3.96 10.69-4.86 1.37-3.66-1.75-.04 2.79-6.53 1.85-5.28-12.24 16.41-2.71z" class="w"/><path d="m342.27 328.96-2.82-2.89-11.75-1.42-4.61 10.69 12.1 2.44 1.32-.63.91 1.08 6.79 1.37-1.94-10.64z" class="r"/><path d="m349.52 326.57 4.92 10.14-3.7 1.04-1.22-11.18z" class="ax"/><path d="m339.84 328.24-2.42 9.99-2.23-.45 2.23-11.21 2.42 1.67zM335.19 326.87l-4.64 9.98 2.77-12.2 1.87 2.22z" class="j"/><path d="m355.34 324.65-15.96-3.29-11.68 3.29 14.57 4.31 13.07-4.31z" class="am"/><path d="m97.89 217.03 4.43 28.31-6.31 1.64-2.16-1.49-1.47 2.43-4.43 1.14-2.52-1.59-.76 2.44-6.01 1.56-11.75-16.77-4.72-16.63 35.7-1.04z" class="w"/><path d="m78.66 251.47-10.15-1.21-3.92-2.79-2.01 2.08-4.47-.53-4.34-2.76-1.79 2.02-6.79-.81-2.91-2.87-3.11 2.16-11.83-1.42 11.75-28.31h23.1l4.72 2.99 11.75 31.45z" class="r"/><path d="m96.01 246.98-8.82-28.91 5.19 29.85 3.63-.94zM84.67 249.91l-9.7-30.67 3.69-2.21 9.29 32.03-3.28.85z" class="ax"/><path d="m46.46 217.82-7.29 28.94 6.02.71 6.79-30.44-5.52.79zM55.05 218.75l-3.07 29.53 6.13.74-3.06-30.27zM62.58 249.55l-1.92-15.3 7.85 16.01-5.93-.71z" class="j"/><path d="m97.89 217.03-30.98 2.99-27.82-2.99 26.68-3.46 32.12 3.46z" class="am"/></g><g id="f"><path d="m501.85 331.4 13-3.44 10.91 3.44-10.91 3.93-13-3.93zM530.57 337.02l8.07 2.43 9.68-3.07-10.47-2.42-7.28 3.06zM820.31 304.61l10.01-3.3 18.02 4.49-19.3 4.32-8.73-5.51zM727.74 222l9.78 2.3 7.73-2.68-7.73-1.66-9.78 2.04zM750.4 221.62l6.5 1.66 7.29-2.75-8.62-1.53-5.17 2.62z" class="m"/><path d="m731.46 208.49 6.5 14.94-1.44-17.57-5.06 2.63z" class="an"/><path d="m736.95 211.14-12.1-3.86 8.45-10.31 12.95 5.6-9.3 8.57z" class="av"/><path d="m731.46 204.84 3.25-3.39 3.25 2.12-3.36 3.29-3.14-2.02z" class="aj"/><path d="m755.57 209.49-.95 12.13 6.14-12.74-5.19.61z" class="an"/><path d="m752.06 207.9 6.56 5.41 9.66-3.82-9.58-5.31-6.64 3.72z" class="av"/><path d="m756.9 208.28 2.22-1.42 2.39 2.02-2.3 1.12-2.31-1.72z" class="aj"/><path d="m827.77 307.7 1.14-26.05 8.43 2.11-9.57 23.94z" class="bh"/><path d="m834.82 290.07-17.59-9.63 20.11-8.64 15.69 10.74-18.21 7.53z" class="av"/><path d="m831.01 280.94 5.18-2.86 5.52 2.86-6.58 3.26-4.12-3.26z" class="aj"/><path d="m538.23 338.3-4.4-12.83 6.51-.96-2.11 13.79z" class="bh"/><path d="m539.59 329.4-13.36-3.74 11.62-8.63 12.26 5.14-10.52 7.23z" class="av"/><path d="m535.04 323.74 3.32-2.55 3.58 1.66-4.47 2.81-2.43-1.92z" class="aj"/><path d="m89 320.71 8.02-2.56L108 321.6l-12.64 2.55-6.36-3.44z" class="m"/><path d="m95.47 309.26.4 12.98 4.06-11.45-4.46-1.53z" class="bh"/><path d="m98.7 314.25-8.83-6.31 10.06-3.7 10.43 4.21-11.66 5.8z" class="av"/><path d="m96.64 308.58 2.8-1.66 3.07 1.66-3.45 1.91-2.42-1.91z" class="aj"/><path d="m518.7 314.28-3.16 19.13-4.54-17.66 7.7-1.47z" class="bh"/><path d="m527.41 311.87-15.39 7.85-14.38-6.03 14.55-7.47 15.22 5.65z" class="av"/><path d="m508.55 312.97 3.98-2.34 4.45 1.17-5.98 3.95-2.45-2.78z" class="aj"/><path d="m140.04 239.81 9.32-2.1 9.64 2.2-9.77 2.07-9.19-2.17z" class="m"/><path d="m147.6 240.91 2.07-19.97 7.7 2.19-9.77 17.78z" class="an"/><path d="m154.23 228.83-11.74-11.8 16.51-3.12 13.62 9.22-18.39 5.7z" class="av"/><path d="m153.34 220.02 4.03-1.95 4.33 2.87-6.4 2.19-1.96-3.11z" class="aj"/><path d="m459.18 306.71 3.71 22.69h3.45l2.67-14.98-9.83-7.71z" class="au"/><path d="m460.22 307.25-6.81 7.79 14.72 4.31 3.18-7-6.03-3.2-5.06-1.9z" class="bc"/><path d="m468.13 319.35 12.89-3.92-7.26-10.08-4.75 9.07-.88 4.93z" class="ai"/><path d="m441.47 307.25 27.54 7.17 3.85-13.15-6.43-21.6-24.96 27.58z" class="ba"/><path d="m466.43 279.67 26.61 27.04-24.03 7.71-2.58-34.75z" class="p"/><path d="m479.33 331.4 2.53 10.33h2.13l1.12-12.07-5.78 1.74z" class="au"/><path d="m484.65 334.63-12.84-3.23 11.84-11.64 2.97 7.44-1.97 7.43z" class="ba"/><path d="m483.65 319.76 12.48 9.9-11.48 4.97-1-14.87z" class="p"/><path d="m197 332.75 3.32-16.19-6.87-.6 1 16.79H197z" class="au"/><path d="m203.51 314.96 5.11 6.08-9.89 2.32-1.6-7.15 6.38-1.25z" class="bc"/><path d="m198.73 323.36-14.24-2 4.78-7.45 10.17 6.42-.71 3.03z" class="ai"/><path d="m199.44 320.33 19.65-5.37-21.88-18.46-3.76 13.65 5.99 10.18z" class="ba"/><path d="m197.21 296.5-21.23 17.65 23.46 6.18-2.23-23.83z" class="p"/><path d="m409.19 333.48-8.99-17.98 16.86 17.98-5.01-24.64 14.15 24.64 6.18-24.27 3.23 24.27 12.65-14.7-4.69 14.7h-34.38zM560.97 318.85h33.26l7.4-9.98-13.34 9.98 2.87-16.58-11.09 16.58-7.16-21.94-1.92 21.94-6.58-16.07 1.23 16.07-9.71-9.57 5.04 9.57zM719.95 309.19h23.93l4.59-12.98-11.35 12.98-8.56-16.51 2.63 16.51-9.14-9.88 2.62 9.88-10.22-7.11 5.5 7.11zM748.14 325.4h22.8l4.85-13.44-11.85 13.44-1.13-20.51-8.58 20.51-12.39-12.37 6.3 12.37zM136.6 323.08h24.49l5.66-14.5-12.23 14.5-4.28-16.24-2.45 16.24-6.04-10.74.96 10.74-11-8.09 4.89 8.09z" class="al"/></g><g id="g"><path d="m253.59 233.08-12.84-1.57-1.54 4.43 15.9 5.05-1.52-7.91z" class="be"/><path d="m282.42 295.47 11.05-2.19 1.9-4.36 3.35 3.32 6.44-1.28 2.04-4.19 6.78 2.44 22.86-4.53-15.04-45.69-14.45-1.28-28.06 14.3-1.74 19.14 4.87 24.32z" class="az"/><path d="m288.3 251.45-5.88 44.02-12.78-2.13-2.24-2.38-2.08 1.66-3.39-.56-1.48-1.33-2.06.74-4.46-.74-1.4-3.56-5.39 2.42-4.89-.81 10.28-42.57 17.87-6.4 17.9 11.64z" class="be"/><path d="m240.34 205.02 12.19 41.19 35.77 5.24-3.88-46.79-44.08.36z" class="at"/><path d="m280.87 213.91 7.43 37.54 17.82-6.28 15.68-6.18-3.56-36.39-37.37 11.31z" class="be"/><path d="m261.94 209.76 11.88 39.57 1.31 2.12 2.36-1.58-6.85-38.2-3.38-3.82-5.32 1.91zM261.36 247.5l-4.14-28.69 8.22 29.29-2.57.96-1.51-1.56z" class="l"/><path d="m265.44 248.1-11.51 42.63-6.79-1.14 14.22-42.09 4.08.6zM277.49 249.87l-7.84 43.41-4.33-.66 8.5-43.29 3.67.54zM265.44 267.64l-7.05 23.83 3.54.59 3.51-24.42zM288.3 212.95l8.39 35.54 3.08 1.96 2.68-3.99-3.73-34.86-2.88-2.22-7.54 3.57z" class="at"/><path d="m296.69 248.49 8.47 42.47 8.82-1.75-11.53-42.75-5.76 2.03zM293.47 293.28l-2.33-42.83 7.58 41.79-5.25 1.04z" class="be"/><path d="m240.34 205.02 40.53 8.89 31.09-4.02 6.28-7.29-35.82-13.19-29.38 4.51-12.7 11.1z" class="az"/><path d="m251.59 200.41 29.28 8.97 30.39-5.94-10.98-5.57-26.94-3.95-21.75 6.49z" class="be"/><path d="m264.83 200.36 14.72-3.54 14.6 4.83-14.86 4.37-14.46-5.66z" class="az"/><path d="m274.74 200.33 5.56-1.24 3.92 2.33-6.73 1.69-2.75-2.78z" class="be"/><path d="m280.3 199.09 21.04-7.01 23.41 11.36-5.03 36.37 9.92 23 7.2 21.87-38.12 7.56 7.33-32.45-9.36-11.3 2.03-36.89-19.43-5.58 1.01-6.93z" class="m"/></g><g id="h"><path d="m642.7 285.6-5.15 13.85h10.58l2.21-9.26-5.11-4.59h-2.53zM613.3 282.81l-2.94 10.02h-11.21l7.48-14.87 3.99-1.58 2.68 6.43zM546.91 285.68l-6.25 14.68H552l2.85-7.12-3.85-7.56h-4.09zM525.76 285.81l-3.23 9.66h-11.64l7.47-14.38h5.02l2.38 4.72z" class="n"/><path d="m648.87 182.49 5.88 13.6-13.54 4.05.94-8.83 6.72-8.82z" class="o"/><path d="m476.38 111.38-9.83-3.85 2.36 10.81 9.73 8.53 7.13-1.11-.77-9.49-8.62-4.89z" class="be"/><path d="m494.51 120.21 2.36-9.59-17.66-18.24-.53 19.19 8.32 14.19 7.51-5.55z" class="be"/><path d="m479.21 92.38 8.78 30.95-2.99 1.43-8.62-13.38 2.83-19z" class="at"/><path d="m534.11 242.55-8.35 43.26-7.4-4.72 5.02-45.47 5.92-3.74 4.81 10.67z" class="be"/><path d="m525.6 202.53-2.22 33.09 10.73 6.93 5.73-3.38-.37-16.82-13.87-19.82z" class="l"/><path d="m620.36 235.7-7.06 47.11-6.67-4.85 1.39-38.97 2.47-7.11 9.87 3.82z" class="be"/><path d="m592.9 224.3 15.12 14.69 12.34-3.29-3.23-9.83-8.23-8.19-16 6.62z" class="at"/><path d="m617.13 225.87 23.78 19.14 7.96 2.49 6.04-12.46-16.78-21.32h-11.3l-9.7 12.15z" class="az"/><path d="m539.84 239.17 7.07 46.51 7.94 7.56-1.85-51.08-5.34-11.08-7.82 8.09z" class="be"/><path d="m525.6 202.53 14.24 36.64 13.16 2.99 8.21-19.52-13.53-13.58-22.08-6.53z" class="at"/><path d="m596.45 201.19 23.91 11.74-27.46 11.37-31.69-1.66L551 209.36l5.11-13.27 19.91-4.6 20.43 9.7z" class="at"/><path d="m620.47 160.83 4.7 3.59 3.13 6.9 7.72 1.37 12.85 9.8-26.89 18.96-25.53-.26v-15.06l24.02-25.3z" class="az"/><path d="m578.57 166.47 6.15-.83 6.94.13 7.82-2.12 20.99-2.82-24.02 40.36-40.34-5.1-.26-11.49 22.72-18.13z" class="be"/><path d="m533.83 157.53 9.57 1.91 6.96 4.04 6.97-1.26 21.24 4.25-22.46 29.62-10.73 8.93-19.78-2.49-.13-26.36 8.36-18.64z" class="az"/><path d="m494.51 120.21 19.66 18.66 2.04 6.79 7.17 1.96 10.45 9.91-8.23 45-24.9-42.89-6.19-39.43z" class="be"/><path d="m494.51 120.21 31.09 82.32-28.73-32.15-13.43-21.21 11.07-28.96z" class="at"/><path d="m490.1 139.93 6.77 30.45L486 158.21l-1-13.12 5.1-5.16z" class="l"/><path d="m494.51 120.21-39.1 8.78-17.13 23.6 2.42 8.41 6 2.48 24.64-14.31 23.17-28.96z" class="az"/><path d="m438.28 152.59 8.42 10.89-7.71 2.57-2.37-6.73 1.66-6.73z" class="o"/><path d="m446.7 163.48 39.3-5.27 8.51-38-47.81 43.27z" class="be"/><path d="m438.28 152.59-7.14 6.62 7.85 6.84-.71-13.46z" style="fill:#454d5d;stroke-width:0"/><circle cx="460.23" cy="139.53" r="3.32" style="fill:#2e3544;stroke-width:0"/><path d="m525.6 202.53 35.61 20.11-5.1-26.55-30.51 6.44z" class="be"/><path d="m617.13 225.87-24.23-1.57 17.59-14.81 6.64 16.38z" class="l"/><path d="m596.45 201.19 20.68 24.68 21-12.15 10.74-31.23-52.42 18.7zM654.91 235.04l-4.57 55.15-7.64-4.59-1.79-40.59 14-9.97z" class="be"/><path d="m514.17 138.87-2.36 6.36 4.59 5.79 6.98-3.4-9.21-8.75zM516.43 157.53l5.34-2.3 2.49 5.17-5.37 2.11-2.46-4.98zM518.51 169.21l2.87 3.07-3.25 1.91-1.92-3.25 2.3-1.73zM591.66 176.49l4.21 4.4 5.36-4.59-5.55-4.6-4.02 4.79zM578.26 177.26l7.08 2.1-1.91 6.32-6.32-2.49 1.15-5.93zM627.09 200.43l3.25-6.13 5.75 4.59-3.26 7.09-5.74-5.55z" class="o"/><path d="m538.23 174.19 4.03-2.68 4.02 3.26-4.22 3.63-3.83-4.21zM551.26 171.7l7.08-1.34 2.68 5.36-7.28 2.11-2.48-6.13zM615.6 179.94l5.55-2.88 4.02 3.64-4.6 4.41-4.97-5.17zM543.4 159.44l3.76 8.05 7.69-1.44 2.48-3.83-13.93-2.78zM625.17 164.42l-2.51 5.96 5.96 4.62 7.4-2.31-10.85-8.27z" class="as"/><path d="m584.72 165.64 3.44 4.07 8.77-2.22 2.55-3.84-14.76 1.99z" class="o"/></g><g id="i"><path d="m377.53 216.77-7.15 3.56-9.85 4.99 3.74 7.85 11.39 1.53 7.03-11.68-1.67-4.79-3.49-1.46z" class="ba"/><path d="m382.69 206.66 10.91 2.4 1.59 11.27-12.5 2.69-2.22-2.69-.98-4.39 3.2-9.28z" class="z"/><path d="m392.8 200.14-1.76 2.46-.51 1.27-7.84 19.15 3.98 1.82 1.53-4.61 6.36-16.79.63-1.67-2.39-1.63z" class="ac"/><path d="m396.72 206.31 1.41 3.07-1.15 1.35.49 1.29 1.74 7.4-4.02 3.6-6.99-2.79-.2-8.06.94-1.87 4.04-2.69 3.74-1.3z" class="s"/><path d="m388 212.17-.04-2.02 1.55-2.54h3.47l-4.98 4.56z" class="z"/><path d="m377.53 216.77 2.17-11.24 6.36-2.93 6.92 5.01-5.02 2.54-3.37-2.09.55 8.99-4.67 3.28-2.94-3.56zM410.36 284.13v16.77h16.14l11.81-4.73-17.9-14.62-7.69-4.61-2.36 7.19z" class="s"/><path d="m426.5 300.9 20.72-10.87-5.74 10.87H426.5z" class="z"/><path d="M358.72 298.34v15.3h12.61l9.69-1.05.92-4.27-10.68-16.6-8.69-4.27-3.85 10.89z" class="s"/><path d="M371.33 313.64 386.62 303l2.02 10.64h-17.31z" class="z"/><path d="m362.95 198.33 7.43 22-31.56 9.01-20.32 3.23-.57-19.66 4.22-27.36 32.72 9.37 8.08 3.41z" class="ba"/><path d="m370.38 220.33-7.94 18.66-16.21 5.12-13.35 4.95-5.72-1.62-8.92-19.89 52.14-7.22z" class="p"/><path d="m357.23 206.66-15.96-.62-5.31-10.49 1.27-4.03 17.64 3.4 2.36 11.74z" class="s"/><path d="m328.06 241.9-2.91 10.45-19.03-7.18 6.38-38.51 7.43 7.25 8.13 27.99z" style="fill:#648e43;stroke-width:0"/><path d="m362.58 183.64 29.3-5.12-6.29-55.2-10.81-11.76-9.84-2.73-12.06 4.82-10.71 6.9 8.98 67.85 11.43-4.76z" class="s"/><path d="m370.66 134.26.15 5.96 2.15 8.21 11.44-14.88-5.66-2.11-7.08.72-1 2.1zM367.29 134.21l-1.25-1.87-6.15.91-6.07 2.94 9.15 7.45 7.65 12.46-.98-15-2.35-6.89zM349.63 123.27l3.08 64.1 2.16 7.55-2.63 3.81-16.28-3.18L324.75 177l8.45-24.65 16.43-29.08z" class="z"/><path d="m366.04 132.34-6.79-.66-5.43 4.51 12.22-3.85zM371.66 132.16l6.26-2.1 6.48 3.49-12.74-1.39z" class="av"/><path d="m344.09 186.92 10.78 8 7.71-11.28-18.49 3.28z" class="q"/><path d="m384.25 163.48-11.45 3.57-12.66-.77 9.96 5.51 7.03-1.11 7.12-7.2z" class="y"/><path d="M380.39 139.77c-1.51-.29-2.95.64-3.24 2.15s.69 2.96 2.2 3.25 3.01-.68 3.3-2.19-.75-2.92-2.25-3.21ZM361.22 142.48c-1.51-.29-3.02.73-3.31 2.23s.74 2.97 2.24 3.26 2.96-.69 3.25-2.2c.29-1.51-.68-3.01-2.19-3.3Z" class="bd"/><path d="m384.25 163.48-5.26.52-6.13-.74-6.39 2.16-6.33.86 13.07 1.56 11.04-4.36z" class="ao"/><path d="m367.29 134.21 3.33 21.89 2.05.5 1.5-.88-3.51-21.46-3.37-.05z" style="fill:#e8cab6;stroke-width:0"/><path d="m374.17 155.72-1.52 3.39-2.03-3.01 3.55-.38z" class="q"/><path d="m385.02 119.1-.88-6-21.15-16.36-3.72 11.14 5.67.95 9.09 5.69 2.42 2.85 3.29 1.54 5.28.19z" class="ah"/><path d="m362.99 96.74-33.66 4.37-15.53 22.07-1.3 6.76 14.91 5.86 22.22-12.53 5.77-4.79 9.54-9.65-1.95-12.09z" class="u"/><path d="m349.06 123.29-9.38 1.33-9.98 1.5-10.27 1.48-9.92 1.45-12.82 50.84 48.85-50.9 3.52-5.7z" class="ad"/><path d="m344.22 142.94-19.68 38.71-25.82 20.76-16.3-13 15.73-15.31 47.39-45.11-1.32 13.95z" class="u"/><path d="m340.83 144.47-42.11 57.94 21.21 11.5 10.16-13.12 4.49-27.21 6.25-29.11z" class="ad"/><path d="m345.54 128.99-4.71 15.48-4.83 27.44-9.46 20-6.61 22 11.07 6.01 6.42-31.56.43-15.63 8.31-30.61 3.47-18.85-4.51 1.81.42 3.91z" class="ah"/><path d="m346.23 142.14-5.4 2.33-3.33 11.16 3.14.57 3.63-3.44 1.96-10.62z" class="ao"/><path d="m344.27 152.76-6.77 2.87-2.42 8.11 2.99 1.64 4.6-4.1 1.6-8.52z" class="y"/><path d="m342.67 161.28-7.59 2.46-2.76 9 3.36 1.28 5.37-4.13 1.62-8.61z" class="ao"/><path d="m341.05 169.89-8.73 2.85-2.99 9.97 2.84.76 7.05-4.14 1.83-9.44z" class="y"/><path d="m339.22 179.33-9.89 3.38-2.79 9.2 10.88-3.55 1.8-9.03z" class="ao"/><path d="m389.96 117.46-5.82-4.36-4.4 5.81 5.9 4.42 4.32-5.87z" class="v"/><path d="m379.74 118.91-5.71-4.39-4.36 5.82 5.91 4.42 4.16-5.85z" class="af"/><path d="m369.67 120.34-5.64-4.47-4.32 5.87 5.82 4.36 4.14-5.76z" class="v"/><path d="m359.71 121.74-5.67-4.33-4.41 5.86 5.86 4.36 4.22-5.89z" class="af"/><path d="m349.63 123.27-5.63-4.52-4.32 5.87 5.86 4.37 4.09-5.72z" class="v"/><path d="m339.68 124.62-5.56-4.41-4.42 5.91 5.92 4.32 4.06-5.82z" class="af"/><path d="m329.7 126.12-5.93-4.32-4.34 5.8 5.82 4.45 4.45-5.93z" class="v"/><path d="m319.43 127.6-5.63-4.42-4.29 5.87 5.67 4.36 4.25-5.81z" class="af"/><path d="m327.16 247.44-8.92 23.71 17.71-2.58 26.49-29.58-35.28 8.45z" class="am"/><path d="m306.12 245.17 29.84-7.46 1.53 7.59-5.17 5.15-10.29 10.64-15.91-15.92z" class="ba"/><path d="m322.03 261.09 19.05-13.88 5.15-8.36-10.27-1.14-13.93 23.38z" class="p"/><path d="m335.96 237.71 7.62-13.67 7.09 7.04 3.32 8.64-12.91 7.49-5.12-9.5z" class="z"/><path d="m343.58 224.04 15.14 4.38 1.81 8.29-6.54 3.01-6.78-10.22-3.63-5.46z" class="s"/><path d="m332.88 260.5 14.33-31 4.85 5.2 1.27 7.17-14.11 21.56-6.34-2.93z" style="fill:#e1ce7f;stroke-width:0"/><path d="m347.21 229.5 35.48-6.48 26.92-13.64 10.82 6.56-19.26 16.63-42.45 5.29-6.66-3.16-4.85-5.2z" class="aj"/><path d="m395.19 225.32 25.24-9.38-8.82 15.14-10.44 19.37-19.23 6.65-7.77-8.04 21.02-23.74z" class="ag"/><path d="m395.19 225.32-13.25 31.78-7.77 2.69v-10.73l14.32-21.25 6.7-2.49z" style="fill:#af7546;stroke-width:0"/><path d="m352.06 234.7 29.88-5.65 2.31 3.52-11.86 23.39-6.35 4.67-26.82 2.8 12.84-28.73z" style="fill:#9f7928;stroke-width:0"/><path d="m381.94 229.05-15.9 31.58 8.13-.84 14.32-31.98-6.55 1.24z" style="fill:#9b6533;stroke-width:0"/><path d="m382.69 223.02 5.8 4.79-.29-7.58-5.51 2.79z" class="ab"/><path d="m318.24 271.15 44.2-32.16 2.69 35.47-6.41 23.88-27.28-2.33-13.2-24.86z" class="t"/><path d="m362.44 238.99 2.69 42.19 7.94 13.36 27.54-16.84 11-46.62-49.17 7.91z" class="bg"/><path d="m362.44 238.99 10.63 55.55-14.35 3.8 3.72-59.35zM373.07 294.54l38.54-63.46 8.8 50.47-47.34 12.99z" class="ac"/><path d="m398.13 209.38-10.06 5.61 9.4-2.97.66-2.64z" class="z"/><path d="m381.51 189.28 9.53-2.55 2.57.64 1.58-1.75 7.52 2.33.72 1.66 3.54-.33 5.02 5.64-.27 1.39 3.67 2.42-10.18 4.51-2.14-.61-1.9 2.39-6.61-1.58-.95-1.64-2.57.8-5.78-8.09v-2.02l-3.75-3.21z" class="ab"/><path d="m401.17 205.02-2.72-9.33 6.76 7.55-4.04 1.78zM415.39 198.73l-16.94-3.04 13.54-.77 3.4 3.81z" class="ag"/><path d="m406.97 189.28-8.52 6.41 4.26-7.74 4.26 1.33zM395.19 185.62l3.26 10.07-7.41-8.96 4.15-1.11zM381.51 189.28l16.94 6.41-13.19-1.18-3.75-5.23zM391.04 202.6l7.41-6.91-3.89 7.75-3.52-.84z" class="ag"/><path d="m393.61 193.86 6.83-1.78 2.79 4.47-3.79 2.54-3.71-.86-2.12-4.37z" class="aj"/></g></svg>