<svg xmlns="http://www.w3.org/2000/svg" id="a" viewBox="0 0 900 420"><defs><style>.m{fill:#b18d79}.aa,.ab,.ac,.ad,.ae,.ag,.ah,.ai,.ak,.am,.an,.ao,.ap,.aq,.ar,.as,.au,.av,.aw,.ax,.ay,.az,.bb,.bc,.bd,.bf,.bg,.bh,.bi,.bk,.bl,.bm,.bn,.bo,.bp,.bq,.m,.n,.p,.q,.r,.s,.t,.v,.w,.x,.y,.z{stroke-width:0}.n{fill:#576071}.p{fill:#1c5a3f}.q{fill:#5a753d}.r{fill:#89909b}.s{opacity:.1}.bh,.s{fill:#1d2432}.t{fill:#e6e97c}.v{fill:#709d52}.w{fill:#916a59}.x{fill:#8b6651}.y{fill:#68707f}.z{fill:#dfbda5}.aa{fill:#216a4b}.ab{fill:#9a9fa9}.ac{fill:#309b6e}.ad{fill:#84c8ab}.ae{fill:#c3987b}.ag{fill:#abafb8}.ah{fill:#454d5d}.ai{fill:#267a56}.ak{fill:#cccfd4}.am{fill:#51596a}.an{fill:#66483a}.ao{fill:#5bb68f}.ap{fill:#bbbfc6}.aq{fill:#2e3544}.ar{fill:#70bf9d}.as{fill:#343c4b}.au{fill:#404857}.av{fill:#a0cf7e}.aw{fill:#28835c}.ax{fill:#1e6245}.ay{fill:#4b5464}.az{fill:#e8cab6}.bb{fill:#648e43}.bc{fill:#b8c744}.bd{fill:#237250}.bf{fill:#47ad82}.bg{fill:#d9e256}.bh{opacity:.15}.bi{fill:#787f8d}.bk{fill:#86b264}.bl{fill:#3d4554}.bm{fill:#2d9368}.bn{fill:#232a38}.bo{fill:#74665b}.bp{fill:#3da87b}.bq{fill:#2b8b62}</style></defs><g id="b"><path d="m166.68 293.92-90.74-14.58 5.24-8.5 5.93 7.08 80.53 11.63 136.31-22.8-78.58-10.93 3.05-3.88 5.24 3.24 92.86 11.68-159.84 27.06z" class="ar"/><path d="m225.37 255.82-138.26 22.1 5.43 2.27 146.04-23.17-13.21-1.2zM67.51 326.05l325.3-60.23 357.98 35.19-26.27 3.18-334.93-32.78-280.17 53.05 196.05 33.31-17.03 2.17-220.93-33.89z" class="ar"/></g><g id="c"><path d="m177.81 253.23 47.56 2.59-16.48-7.82-30.89-8.28-141.66 25.96 50.77 12.24 8.01-10.71 82.69-13.98zM93.82 220.67l41.24-7.41 39.17 2.94-34.66 14.56-45.75-10.09zM348.42 243.23l56.28-8.74 63.71 9.96-69.1 6.34-50.89-7.56zM508.57 228.79l52.59 9.72-57.22 5.25-43.36-9.27 47.99-5.7zM774.67 224.88l-46-4.85-42.64 5.38 41.18 6.08 47.46-6.61zM65.22 362.57l-5.59-6.14 44.68-24.74 91.92 14.1 26.23 12.5-32.01 10.23-36.81 2.48-2.79-4.45-7.03 3.55-78.6-7.53zM282.24 364.14l-35.96 7.05 21.98 16.79 73.51-5.98 12.41-9.06-30.06-6.86-41.88-1.94zM366.24 394.43l11.96-1.8 38.97-6.27 26.2 6.36-26.44 4.24-32.83 1-17.86-3.53zM432.87 358.88l15.09-5.65h15.1l52.66 7.85 18.29-3.44 24.72 3.44 16.61 2.82 24.39 5.04-23.16 4.6-9.27-4.44-13.15 4.44-38.43-6.82-12.53-1.81-10.86 1.81-10.85-2.82-10.85 2.82-37.76-7.84zM609.59 372.82l6.39-4.82 20.11-3.41 27.93 6.13 20.87-2.42 16.16.31 26.62 6.52-23.53 5.64-11.59-2.82-11.59 2.82-54.68-5.64-16.69-2.31zM745.39 355.82l-4.02-4.63 55.58-20.41 98.17 8.46-32.75 18.28-57.03 3.81-3.19-5.51-5.49 4.54-51.27-4.54z" class="s"/></g><g id="d"><path d="m733.09 208.21 31.81-41.33-8.53-3-26.34 43.91 3.06.42zM730.03 199.01l19.03-32.08-5.82-1.05-14.57 29.25 1.36 3.88zM728.67 220.03l-2.07 5.03h-6.65l5.26-29.03 3.46 24z" class="ao"/><path d="m723.38 225.06 3.6-23.57 1.69 7.9-5.29 15.67z" class="bf"/><path d="m728.67 220.03 1.92-5.13-.15-2.7 1.07.23 1.58-4.22-4.94-27.69-7.27-40.22-9.59 8.36 17.38 71.37z" class="ad"/><path d="m731.51 212.43-15.13-68.2-1.72 1.5 15.93 69.17.92-2.47z" class="bf"/><path d="m641.68 94.5 28.87-4.28 7.91-9.6 11.13-10.07 3.71-16.79 17.54 8.95h27.33l-1.51 17.91 11.95 9.6 7.24 8.18 25.29 1.08 18.51 45-38.8 23.21-20.56-8.81-44.6 15.19-52.31-19.77-20.44-25.95 18.74-14.44V94.5z" class="bq"/><path d="m781.14 99.48-34.02 26.35-47.69-19.25-14.17 10.27-20.86-5.81-41.46 17.31 20.44 25.95 62.74 24.26 38.28-17.03 20.5 5.35 34.75-22.4-18.51-45zM748.61 90.22l-31.05-3.04 20.61-24.47 10.44 27.51zM693.3 53.76l8.75 28.98-23.59-2.12 14.84-26.86zM699.43 106.58l18.13-19.4-15.51-4.44-2.62 23.84z" class="ai"/><path d="m699.43 106.58-20.97-25.96-36.78 13.88 57.75 12.08zM738.17 62.71l-36.12 20.03-8.75-28.98 44.87 8.95z" class="bm"/><path d="m699.43 106.58 49.18-16.36 32.53 9.26-81.71 7.1z" class="bm"/><path d="m664.4 111.04 41.72 67.52-6.69-71.98-35.03 4.46zM747.12 125.83l-41 52.73 29.52-5.87 29.26-5.81-17.78-41.05z" class="aa"/><path d="M664.4 111.04 641.68 94.5l-18.74 33.85 41.46-17.31z" class="bm"/><path d="m509.54 214.94 22.67-67.45-6.79.74-15.88 56.63v10.08z" class="ao"/><path d="m476.72 19.18-2.07 22.96-22.78 8.8-13.07 33.28 13.07 28.56 33.67 28.94 25.18 1.59 47.3-11.18 46.41-39.97-30-41.22-49.01-2.54-9.63-13.13 1.65-21.49-40.72 5.4z" class="bq"/><path d="m517.44 13.78-16.27 42.98 29.24-8.1v-6.52l-12.97-28.36zM604.43 92.16l-49.3 10.65-17.33-.33-12.38-26.89-66.1 10.15-7.45 27.04 35.92 41.14 18.31 8.64 76.24-18.39 22.09-52.01z" class="ai"/><path d="m501.17 56.76-43.11 18.83 4.61 22.57 62.75-22.57-3.81-9.88-20.44-8.95zM574.43 50.94l-73.26 5.82 29.24-14.62 44.02 8.8z" class="bm"/><path d="m574.43 50.94-49.01 24.65-24.25-18.83 73.26-5.82z" class="ai"/><path d="m476.72 19.18 24.45 37.58-49.3-5.82 24.85-31.76z" class="bm"/><path d="m525.42 75.59 29.71 27.22-13.39 51.15-16.32-78.37z" class="aa"/><path d="m514.13 238.51-8.03-75.95-12.29-4.24 9.7 79.15 4.36.42.76-1.77.91 1.94 4.59.45z" class="ad"/><path d="M509.54 238.06 501 156.55l-1.83 3.62 8.7 77.72 1.67.17z" class="bf"/><path d="m414.47 186.3-4.44-18.35 1.71-1.59 5.72 16.93-2.99 3.01z" class="ad"/><path d="m406.75 201.52 22.2-29.38-1.11-8.78-3.98 5.98-18.48 26.25 1.37 5.93z" class="ao"/><path d="m373.93 180.69-12.83-28.28 3.4-.71 16.7 34.02-7.27-5.03z" class="ad"/><path d="m395.39 187.23-21.46-6.54 2.24 5.03 21.63 8.6-2.41-7.09z" class="ao"/><path d="M395.3 246.34h-4.48l6.81-52.71 8.44 19.14-10.77 33.57z" class="ao"/><path d="m395.3 246.34 6.04-31.4.9 21.63.06 9.77h-7z" class="bf"/><path d="m392.1 171.98 10.2 74.36 4.04-18.35-.37-5.37 1.41.64 2.65-12.05-6.45-49.77-11.48 10.54z" class="ad"/><path d="m406.34 227.99-11.04-65.58 4.59 1.23 7.49 59.62-1.04 4.73z" class="bf"/><path d="m316.17 82.59 18.53 4.99 18.03-21.87 32.05-17.31 67.09 2.54-9.19 16.27 15.38 8.38 56.07 21.91-37.73 41.63-53.69 17.42-34.65-2.8-40.59-10.44-31.3-60.72z" class="bq"/><path d="m352.73 65.71-19.28 51.93-17.28-35.05 36.56-16.88z" class="bm"/><path d="m316.17 82.59 49.18 49.54 32.28-11.4 18.78 13.55 31.38-6.13 42.64-7.37-2.64 33.14-58.84 18.22-36.85-.16-33.88-23.14-20.78 2.86-21.27-69.11zM451.87 50.94l-44.78 34.8 20.75 3.08 30.22-13.23-6.19-24.65z" class="ai"/><path d="m352.73 65.71 54.36 20.03-9.46 34.99-44.9-55.02z" class="ai"/><path d="m365.35 132.13-27.91 19.57 54.66 20.28-26.75-39.85zM397.63 120.73l31.32 51.41 18.84-43.99-50.16-7.42zM487.79 153.92l-40-25.77 66.34-30.65-26.34 56.42z" class="aa"/><path d="m458.06 75.59-60.43 45.14 9.46-34.99 50.97-10.15zM451.87 50.94l-99.14 14.77 32.04-35.22 67.1 20.45z" class="bm"/><path d="m132.1 206.48-1.54 16.41 7.89-.04-1.17-25.91-5.18 9.54z" class="bd"/><path d="m71.25 190.86 16.21 4.16 4.69-2.98 2.79 4.9 9.25 2.37 4.22-1.53 2.78 3.33 20.91 5.37 15.37-75.52-27.31-3.91-48.91 63.81z" class="bq"/><path d="m132.1 206.48 25.05-6.34 2.6-6.82 6.77 4.46 18.66-4.72-31.28-68.81-13.61 7.88-8.19 74.35z" class="ai"/><path d="m120.16 127.05 18.28 21.85 17.53-20.11-35.81-1.74z" class="bh"/><path d="m101.82 119.5 11.54 4.75 4.3-4.03 2.5 6.83 19.71 8.1.89-52.19-9.64-.65-29.3 37.19z" class="bq"/><path d="m139.87 135.15 16.1-6.36 1.2-5.8 4.47 3.56 12.59-4.97-30.48-39.27-6.47 4.38 2.59 48.46z" class="ai"/><path d="m129.33 84.57 8.56 13.49 7.5-13.64-10.45-2.11-5.61 2.26z" class="bh"/><path d="m120.84 82.31 16.44 4.38 6.16-15.93-3.82-29.62-18.78 41.17z" class="bq"/><path d="m137.28 86.69 15.66-4.38-13.32-41.17-2.34 45.55zM113.36 124.25l12.21-21.43-5.41 24.23-6.8-2.8zM111.19 201.11l8.27-40.29-15.27 38.49 7 1.8zM94.94 196.94l9.25-24.55-16.73 22.63 7.48 1.92z" class="ai"/><path d="m166.52 197.78-14.48-36.96 5.11 39.32 9.37-2.36zM155.97 128.79l-6.41-16.75 12.08 14.51-5.67 2.24z" class="bd"/></g><g id="e"><path d="M201.73 140.97 54.46 164.91l-3.63 2.46 154.79-26.01-3.89-.39z" class="ao"/><path d="m196.95 134.5-25.89 19.8-1.68.65 26.01-20.97 1.56.52zM175.46 138.38l-20.45 18.64-2.33.39 20.45-19.29 2.33.26zM159.67 141.1l-23.16 19.67-2.2.13 25.62-22-.26 2.2zM141.43 142.78l-18.38 19.93-1.81.26 17.99-19.8 2.2-.39zM124.99 145.24l-17.6 20.06-2.07.26 17.99-20.45 1.68.13zM110.37 148.61l-17.61 18.37-1.03-.64 16.56-18.12 2.08.39zM181.54 227.81 34.79 251.88l2.58-2.59 145.21-24.07-1.04 2.59zM181.29 216.94l-147.02 25.1 2.07-1.81 146.24-25.88-1.29 2.59zM182.58 205.55 32.46 232.47l3.88-2.59 149.61-26.92-3.37 2.59zM34.53 220.3l150.12-27.18 1.55-1.55-149.34 26.66-2.33 2.07zM184.91 183.92l-147.8 24.22-2.07-1.56 151.68-24.67-1.81 2.01zM186.2 170.61 38.67 196.75l-2.07-.98 150.64-26.92-1.04 1.76z" class="ao"/><path d="m175.33 157.92-5.17 80.76-1.56 1.81 4.4-82.05 2.33-.52zM164.46 160.25l-3.88 80.24-1.81 2.33 4.66-85.16 1.03 2.59zM154.11 162.32l-3.63 80.24-2.07 1.3 3.89-83.87 1.81 2.33zM143.5 164.65l-3.89 78.69-1.55 2.33 4.4-83.35 1.04 2.33zM133.66 165.43l-4.14 80.5-1.3 2.07 4.41-85.42 1.03 2.85zM123.57 166.21l-3.89 82.31-1.81 1.03 3.63-84.12 2.07.78zM111.92 169.57l-3.63 80.5-1.81 2.07 4.14-84.64 1.3 2.07zM100.79 171.12l-3.37 81.02-1.81 1.29 3.63-85.15 1.55 2.84z" class="ao"/><path d="m211.31 137.22 4.92 112.07-1.81-1.03-5.18-112.34 2.07 1.3zM204.06 143.43l2.07 102.24-1.81 1.81-2.07-101.46 1.81-2.59zM198.11 148.86l-2.07 94.74h-2.33l2.85-92.67 1.55-2.07z" class="ad"/><path d="m191.21 157.68 32.27.76-.78 2.07-33.65-1.03 2.16-1.8zM187.24 167.5l37.27 3.62-2.07 1.56-33.65-2.85-1.55-2.33zM186.72 177.85l37.53 3.89-1.29 2.33-33.91-3.63-2.33-2.59zM223.74 194.68l-35.72-4.66-1.82 1.55 38.31 5.18-.77-2.07zM224.51 208.66l-38.56-5.7 1.03 2.07 38.57 6.21-1.04-2.58zM185.17 215.64l39.08 5.96 1.04 2.07-39.6-5.96-.52-2.07zM184.13 227.03l42.19 8.03 1.82 2.07-42.19-7.77-1.82-2.33zM222.44 148.35l-20.19-2.33 1.81-2.59 19.93 2.59-1.55 2.33z" class="ad"/><path d="m35.91 267.15 141.87-24.32 4.46-7.51-150.82 25.91 4.49 5.92z" class="ak"/><path d="m191.21 157.68-4.83 86.89-8.6-1.74 6.04-85.94 7.39.79z" class="ag"/><path d="M186.38 149.66 43.84 172.93l-4.14 10.45 151.51-25.7v-4.73l-4.83-3.29z" class="ak"/><path d="m217.73 133.59-26.52 24.09-4.83-8.02 26.25-18.59 5.1 2.52zM225.37 255.82l-47.59-12.99 8.9-3.71 42.75 9.99-4.06 6.71z" class="ab"/><path d="m217.73 133.59 7.64 122.23 8.29-.64-6.93-130.44-9 2.99v5.86z" class="ag"/><path d="m76.2 154.82-7.51 117.25-2.33 1.81 6.99-118.8 2.85-.26zM64.81 160.77l-8.28 108.71-2.07 1.81 8.28-110.78 2.07.26zM54.46 164.91 45.4 268.7l-2.33 1.04 9.32-104.57 2.07-.26z" class="ad"/><path d="m39.7 183.38 45.3 4.57-.52 2.07-44.26-3.88-.52-2.76zM43.84 172.93l41.42 1.56-1.81 2.07-41.68-1.29 2.07-2.34zM38.67 196.75l44.52 3.88-.78 2.33-43.22-3.36-.52-2.85zM37.11 208.14l45.56 5.69-1.55 1.81-42.97-4.4-1.04-3.1zM34.53 220.3l48.14 6.21-2.59 1.82-43.48-5.96-2.07-2.07zM34.53 231.69l46.33 5.95-1.04 2.08-43.74-5.18-1.55-2.85zM32.2 246.19l49.18 5.95-2.33 1.81-44.26-4.92-2.59-2.84z" class="ad"/><path d="M35.91 166.99 23.48 269.74l12.43-2.59 7.93-94.22v-5.94h-7.93z" class="ag"/><path d="m83.53 142.44-47.62 24.55 7.93 5.94 44.18-19.98-4.49-10.51zM23.48 269.74l52.46 9.6 5.24-8.5-44.7-10.48-13 9.38z" class="ab"/><path d="m83.53 142.44-7.59 136.9 11.17-1.42 4.73-124.97 3.77-7.88-12.08-2.63z" class="ag"/><path d="m83.53 142.44 143.2-17.7-9 8.85-125.89 19.36-8.31-10.51z" class="ak"/></g><g id="f"><path d="m787.4 327.25 2.35 12.24 9.68 1.06 1.38-19.01-8.86-2-4.55 7.71z" class="n"/><path d="m745.39 355.82 7.35-1.62 8.1-39.38-13.05 8.76-4.78 9.88 2.38 22.36zM805.34 361.33l7.91-2.61 9.05-43.54-12.53 14.13-5.56 8.95 1.13 23.07z" class="am"/><path d="m733.51 316.86 1.86 38.38 10.02.58 2.4-32.24-.44-6.76-13.84.04zM795.82 325.68l.84 34.68 8.68.97 4.43-32.02-5.74-6.91-8.21 3.28zM851.97 343.84l-6.85-1.24-7.17-34.55 17.53-4.34v19.87l-3.51 20.26z" class="y"/><path d="m863.4 301.05-4.15 40.82-7.28 1.97-2.33-42.79h13.76z" class="am"/><path d="m724.52 304.19 1.12 17.35 17.37 1.6 2.99-3.3 1.79 3.74 18.96 1.76 3.31-2.94.38 3.28 16.96 1.57 3.27-3.67 1.14 4.07 17.96 1.66 18.27-24.04-103.52-1.08z" class="bk"/><path d="m872.26 280.22-1.98 23.49-60.51 25.6 1.41-14.49 10.18-18.74 50.9-15.86z" class="v"/><path d="m724.52 304.19 64.15-30.3 18.69 1.41.43 1.04 3.26-.76 14.57 1.1.69 1.35 4.08-.98 13.01.98.73 1.18 3.38-.87 24.75 1.88-61.08 34.6-86.66-10.63z" class="av"/><path d="m847.51 278.34-53.64 34.36-2.63 2.12-1.61-2.64 53.77-34.15 4.11.31zM830.39 277.05l-57.25 33.1-3.4 3.12-1.42-3.71 57.3-32.88 4.77.37zM811.05 275.58l-60.26 31.83-3.5 2.29-1.65-2.92 61.72-31.48 3.69.28z" class="bk"/><path d="m793.87 312.7-2.06 14.95-4.41-.4 2.23-15.07 4.24.52zM773.14 310.15l-2.7 15.53-3.69-.34 1.57-15.78 4.82.59zM750.79 307.41l-3 16.17-4.78-.44 2.63-16.36 5.15.63z" class="v"/></g><g id="g"><path d="m463.92 330-.29 4.16-5.06 2.51-7.53-5.69-4.18-14.17 20.03 4.59-2.97 8.6zM490.55 326.64l-1.05 10.68-4.37 3.26-8.2-4.67-3.69-15.81 17.31 6.54z" class="m"/><path d="m452.34 297.56-5.48-14.7 17.06-3.43 28.87 7.46-7.21 13.92-20.29 7.64-12.95-10.89z" class="p"/><path d="m446.86 282.86-6.43 28.65 27.39 12.69 2.57-14.33-5.1-1.42-18.43-25.59z" class="aa"/><path d="m438.36 320.73 25.97 2.88 3.9-4.34-27.8-7.76-2.07 9.22z" class="bf"/><path d="m441.93 242.57-8.05 11.49 13.48 5.23 5.43-5.97-.45-8.66-10.41-2.09z" class="w"/><path d="m452.34 226.76-10.41 15.81 11.87 7.17 2.68-10.45-4.14-12.53z" class="bk"/><path d="m466.25 224.36-8.2 12.67 11.42 4.57 16.11-2.23 1.79-14.55-21.12-.46z" class="m"/><path d="m422.61 152.3 9.4 29.43 2.99-27.94-7.91-6.87-4.48 5.38z" class="as"/><path d="m429.47 152-1.49 57 31.94 4.18 11.22 12.42 12.65-8.38 19.4-34.78-18.5-31.64-33.13-7.16-22.09 8.36z" class="m"/><path d="m466.25 224.36 8.03-9.17 10.41-64.39 18.5 31.64-5.67 15.2-3.66 3.8.35 5.06-6.84 18.32-17.31 6.26-3.81-6.72z" class="w"/><path d="m459.92 213.18 23.87 3.13-17.54 8.05-6.33-11.18zM497.52 197.64l-10.37-1.25 7.06 10.11 3.31-8.86zM492.33 191.91l1.32-6.64 3.87 1.15-5.19 5.49z" class="an"/><path d="m433.88 172.44 18.46 14.21 13.91-10.63-5.85-2.57-7.61.89-3.58 2.47-2.35-3.36-5.93-3.02-7.05 2.01z" class="w"/><path d="m446.86 173.45 5.93.89-.45 12.31-5.82 1.23-4.59-2.68 4.93-11.75z" style="fill:#ba9e8e;stroke-width:0"/><path d="m441.93 185.2 5.04 5.37 5.37-3.92-10.41-1.45zM437.12 193.03l9.74 2.91 13.99-.89-1.34 3.69-12.87.9-8.62-3.03-.9-3.58z" class="an"/><path d="m452.79 174.34 3.25-3.24 9.51 2.57.7 2.35-13.46-1.68zM446.86 173.45l-1.9-3.81-9.07.56-2.01 2.24 12.98 1.01z" class="ah"/><circle cx="460.4" cy="181.73" r="2.35" class="bn"/><circle cx="438.69" cy="179.04" r="2.35" class="bn"/><path d="m422.61 152.3 28.65 13.87 16.12-7.68 15.01 6.53 7.52 11.67 13.28 5.75 7.91-13.88-15.52-20.44-16.42-18.94-9.27-4.51-37.13 5.84-1.35 9.48-11.93 2.16 3.13 10.15z" class="ah"/><path d="m482.39 165.02 3.19-8.4-5.52-5.82-29.99 2.69 1.19 12.68 31.13-1.15z" class="as"/><path d="m419.48 142.15 30.59 11.34 7.98-15.07-25.29-7.91-13.28 11.64z" class="n"/><path d="m458.05 138.42 21.11-9.24 22.09 10.73-6.32 12.91-14.87-2.02-22.01-12.38z" class="as"/><path d="m480.06 150.8 21.19-10.89 9.85 28.65-28.71-3.54-2.33-14.22z" class="aq"/><path d="m503.19 182.44-20.8-17.42 4.76 25.92 4.25-10.27 11.79 1.77z" class="aq"/><path d="m460.4 225.37-8.06 1.39-4.98 32.53 20.46 10.14 26.59-6.41 5.05-33.13-7.47-3.13-8.2 11.91-22.08-3.04-1.31-10.26z" class="bg"/><path d="m466.25 224.36-5.85 1.01-2.35 11.66 27.53 4.57 6.41-14.84-4.62-1.94-6.15 11.96-17.3-2.86 2.33-9.56z" class="bk"/><path d="m447.36 259.29-.5 23.57 45.93 4.03 1.62-23.87-47.05-3.73z" class="bc"/><path d="m501.82 257.05-8.27 18.68-9.76-10.15.93-8.53 4.59-8.21 8.21 2.09 4.3 6.12z" class="w"/><path d="m499.46 229.89 5.95 18.44-3.59 8.72-12.51-8.21 10.15-18.95z" class="bk"/><path d="m484.72 257.05-21.97-3.73 5.36 10.44 25.44 11.97-8.83-18.68z" class="m"/><path d="m473.41 255.13-5.3 8.63-5.66-2.66 2.84-5.97h8.12z" class="w"/><path d="m433.88 254.06 13.23 17.1 26.3-16.03 6.86.31 1.37-1.61-8.93-9.32-3.08 3.25-2.25-1.94-33.5 8.24z" class="m"/><path d="m473.41 255.13-.7-10.62-5.33 1.31 6.03 9.31z" class="aw"/><path d="m473.41 255.13 8.23-1.3 3.08 3.22-11.31-1.92z" class="w"/><path d="m491.62 294.8-1.04 31.5-26.25-2.69.96-15.16 20.29-15.91 6.04 2.26z" class="ai"/><path d="m463.92 330 26.63-3.36 1.78-6.54-28 3.51-.41 6.39z" class="bf"/><path d="m485.58 292.54 4.97 34.1 7.16-.9-4.92-38.85-7.21 5.65z" class="bg"/><path d="m479.07 345.09-4.3 8.14 8.13 10.67 9.43-2.82-3.79-13.9-4.79-5.15-4.68 3.06z" class="n"/><path d="m474.77 353.23 17.56 7.85-13.26 1.94-8.44-1.94 4.14-7.85z" class="bk"/><path d="M470.63 361.08h21.7v5.64h-21.7z" class="bl"/><path d="m482.56 345.86-.65 4.97 1.96.82 1.71-6.56-3.02.77z" class="bk"/><path d="m479.07 345.09 9.47 2.09.96-9.86-12.57-1.41 2.14 9.18z" class="bg"/><path d="M463.06 342.36v10.87l-17.39 3.73-4-9.87 4.98-3.48 10.23-4.98 6.18 3.73z" class="n"/><path d="m457.75 339.68-7.42 5.41-3.68-1.48 6.73-4.7 4.37.77zM441.67 347.09l6.29 6.14-6.21 3.09-8.88-3.09 8.8-6.14z" class="bk"/><path d="M432.87 353.23h30.19v5.64h-30.19z" class="bl"/><path d="m463.06 342.36-9.68-3.45-2.34-7.93 12.59 3.18-.57 8.2z" class="bg"/></g><g id="h"><path d="m574.1 334.8-.6 9.36-5.1 4.77-7.31-7.3-3.88-15.33 16.89 8.5zM550.34 330l-2.59 9.79-6.29 3.54-6.29-6.66-3.32-20.98L550.34 330z" class="z"/><path d="m589.1 273.91-13.86 9.85-5.52-6.42 16.88-20.29 2.5 16.86z" class="ae"/><path d="m593.62 249.82 6.11 16.78-10.63 7.31-10.11-20.08-3.85-6.41 18.48 2.4z" class="z"/><path d="m519.13 256.61 20.47 21.78 7.31-10.89-11.5-17.68-16.28 6.79z" class="ae"/><path d="m527.18 244.66-8.05 11.95 15.54-2.78-3.24-6.93-1.08-3.43-3.17 1.19z" class="z"/><path d="m531.43 246.9-4.25-2.24 13.41-20.3-2.3 14.31-6.86 8.23zM586.6 229.89l7.02 19.93-14.63 4.01-3.85-11.97 11.46-11.97z" class="bk"/><path d="m529.32 279.24 19.38 32.27 13.22-10.14 13.32-17.61-18.33-5.37-27.59.85z" class="p"/><path d="m529.32 279.24-4.9 29.11L550.34 330l3.81-13.19-5.45-11.56-19.38-26.01z" class="aa"/><path d="m549.81 321.96-25.39-13.61-1.98 11.75 27.9 9.9 1.07-3.7-1.6-4.34z" class="bm"/><path d="m554.58 220.94-9.35 12.04 11.08 5.27 13.41-3.92 2.48-12.42-10.52-2.58-7.1 1.61z" class="z"/><path d="m525.2 134.84-13.7 62.72 30.26 7.48 18.88 14.55 7.39-2.91 5.29-14.69 11.19-30.89-19.69-36.26H525.2z" class="z"/><path d="m554.58 220.94 2.18-12.24 16.73-57.9 11.02 20.3-6.49 39.62-5.82 11.19-13.87 3.69-3.75-4.66zM525.65 156.77l14.94 19.76 16.95-10.36-5.31-4.75-5.24-.47-3.21.75-2.8 1.9-1.74-3.3-2.03-2.63-3.73-1.68-7.83.78z" class="ae"/><path d="m543.78 161.7-3.19 14.83h-3.39l-3.38-2.08 5.42-14.15 4.54 1.4z" class="az"/><path d="m533.82 174.45 2.63 4.15 4.14-2.07-6.77-2.08zM541.76 205.04l24.4 5.9-11.58 10-12.82-15.9z" class="x"/><circle cx="548.93" cy="170.95" r="2.01" class="bn"/><circle cx="530.42" cy="165.87" r="2.01" class="bn"/><path d="m546.99 160.95 1.71-2.01 8.28 4.47.56 2.76-10.55-5.22zM537.21 157.67l-.52-2.69-9.48.08-1.56 1.71 11.56.9z" class="bo"/><path d="m525.59 183.07 8.73 7.72 10.91-2.46-9.96-2.18-9.68-3.08z" class="ac"/><path d="m525.59 183.07 6.27.56 3.47-.67 3.3 2.41 6.6 2.96-11.08-1.23-8.56-4.03z" class="ax"/><path d="m525.2 134.84 44.52 29.02 15.69-6.94 3.73-28.91-36.88-3.58-1.32 3.58-11.34-4.81-14.4 11.64z" class="bo"/><path d="m569.72 163.86 8.3 46.86 9.87-1.85 2.59-7.03 10.15 4.66 5.62-11.25.65-14.58-17.76-52.66-19.42 35.85z" style="fill:#5f5044;stroke-width:0"/><path d="m539.6 123.2 35.54 30.65 5.05-.36.48-9.85-28.41-19.21-12.66-1.23z" style="fill:#8e7e73;stroke-width:0"/><path d="m575.14 153.85 12.75 55.02 12.74-2.37-19.96-62.86-5.53 10.21zM589.14 128.01l17.16 67.26 5.92-11.96-23.08-55.3z" class="bo"/><path d="m550.64 221.91-10.05 2.45-9.16 22.54 17.27 8.54 30.29-1.61 7.61-23.94-11.46-6.35-9.65 10.62-14.51-3.2-.34-9.05z" class="t"/><path d="m572.2 221.91 2.94 1.63-8.57 14.03-17.87-3.86 1.94-11.8 3.94-.97-1.63 9.19 12.15 2.69 7.1-10.91z" class="bk"/><path d="m531.43 246.9-2.11 32.34 45.92 4.52 3.75-29.93-47.56-6.93z" class="bc"/><path d="m563.03 245.3-14.1-2.8-2.02 6.66 1.79 3.19 3.56-2.41 8.86 1.29 1.91-5.93z" class="bk"/><path d="m546.91 249.16-1.32 11.33 7.59 1.03-.41 3.88-7.54-1.34-.63 5.52 12.61 1.8 1.81-13.4-7.71-1.45.95-6.59-5.35-.78z" class="v"/><path d="m574.1 293.94 1.04 37.04-25.33-9.02-1.11-16.71 19.02-14.92 6.38 3.61z" class="ai"/><path d="m550.34 330 23.76 4.8 1.04-8.06-25.33-4.78.53 8.04z" class="bf"/><path d="m567.72 290.33 6.38 44.47 6.39 1.28-5.25-52.32-7.52 6.57z" class="bg"/><path d="M544.6 351.65v9.43l-19.46 3.59.87-10.03 3.29-2.07 12.16-5.39 3.14 4.47z" class="n"/><path d="m539.6 349.14-6.58 5.5-3.72-2.07 7.62-4.77 2.68-.62v1.96zM526.01 354.64l3.29 6.44-7.91 2.82-5.67-2.82 10.29-6.44z" class="bk"/><path d="M515.72 361.08h28.87v5.64h-28.87z" class="bl"/><path d="m536.92 347.8 7.68 3.85 3.15-11.86-12.58-3.12 1.75 11.13z" class="bg"/><path d="m564.03 353.25-5.3 7.83 5.42 9.56 12.42-2.75-3.81-12.32-3.51-6.64-5.22 4.32z" class="n"/><path d="m554.12 367.89 4.61-6.81 17.84 6.81-14.09 2.75-8.36-2.75zM566.62 353.93l-1.5 5.52 3.43 1.04.7-5.85-1.53-2.35-1.1 1.64z" class="bk"/><path d="M554.15 367.89h22.42v5.64h-22.42z" class="bl"/><path d="m564.03 353.25 8.73 2.32.74-11.41-12.41-2.53 2.94 11.62z" class="bg"/></g><g id="i"><path d="m640.68 339.39-1.73 15.32-21.03-3.58v-15.45l22.76 3.71z" style="fill:#c0db8e;stroke-width:0"/><path d="m640.68 342.12 3.28 2.04 1.6 2.32 2.56 7.82-6.57 1.98-6.02-5.15 3.06-6.97 2.09-2.04zM623 348.14l1.45 16.25-10.8.17-4.8-4.16-3.59-7.52.45-5.5 1.27-3.71 4.97-4.28 5.97-3.71 5.08 12.46z" class="av"/><path d="M635.53 351.13v15.2l-15.22-6.27 2.69-11.92 12.53 2.99z" class="bk"/><path d="m613.65 364.56 1.6-2.21 5.06-2.29 12.34 2.29 1.39 5.95-5.89 5.18-6.63-1.65-5.54-3.83-2.33-3.44z" class="bb"/><path d="m628.15 373.48-.23-1.64 4.73-9.49 6.3.87 2.6 3.91-4.71 3.35-4.8 2.12-3.89.88z" class="q"/><path d="m648.12 354.71-.77 4.16-2.61 4.44-2.68 3.42h-2.68l-6.73-4.38 2.88-11.22 8.72 1.44 3.87 2.14z" class="v"/><path d="m645.56 346.48-1.31 6.09 1.91 1.54 4.29-.51-4.89-7.12z" class="ac"/><path d="m620.74 342.59 4.78 1.08 1.47 5.43-3.12.94-.87-1.9-2.26-1.66v-3.89z" class="bp"/><path d="m620.74 342.59-3.71 5.24 5.13 4.02 1.71-.72-.87-2.99-2.26-5.55z" class="ac"/><path d="m626.99 349.1-3.99-.96-.84 3.71 4.83-2.75z" class="aw"/><path d="m606.98 343.67 2.44 5.11-4.16 4.1-2.62-5.48 4.34-3.73zM643.96 344.16h-5.37l-.6-2.43 2.69-2.34 3.28 4.77z" class="ac"/><path d="m638.59 344.16-3.06-4.77 3.06-2.66 2.09 2.66-2.09 4.77z" class="bp"/><path d="m644.25 352.57 3.1 6.3 3.1-5.27-6.2-1.03z" class="bd"/><path d="m628.7 361.62 5.05-3.57-.22 3.57-.88.73-3.91 1.09-.04-1.82z" class="aw"/><path d="m633.75 358.05-1.1 4.3 1.39 2.04 2.05.2-2.34-6.54zM628.7 361.62l.76 7.12 2.64-1.61.55-4.78-3.95-.73z" class="bd"/><path d="m629.46 368.74 6.63-4.15-3.44-2.24-3.19 6.39z" class="ax"/><path d="m615.98 368-.73-5.65h-3.3l-1.19 2.04 5.22 3.61z" class="bd"/><path d="m615.25 362.35-6.4-1.95 1.91 3.99 4.49-2.04zM621.52 354.71l-5.18 1.57.69 5.27 2.11.13 1.17-1.62.85-2.01.36-3.34z" class="ac"/><path d="m621.52 354.71 2.93 6.12-3.29.35-.85-1.12 1.21-5.35z" class="aw"/><path d="m624.45 360.83-4.14 2.61-3.28-1.89 3.28-1.49 4.14.77z" class="bd"/><path d="m632.04 350.3 5.15-2.96v2.05l-1.66 1.74-2.2.33-1.29-1.16z" class="bp"/><path d="m637.19 347.34 2.59 4.49-2.59.23-1.66-.93 1.66-3.79z" class="ac"/><path d="m632.04 350.3 2.57 4.41.98-1.06-.06-2.52-3.49-.83z" class="aw"/><path d="m639.78 351.83-5.17 2.88.92-3.58 4.25.7zM644.74 363.31l-5.36 3.42V368l2.42.3 2.94-4.99z" class="bd"/><path d="m639.38 366.73-2.54 3.75 4.96-2.18-2.42-1.57z" class="ax"/><path d="m621.52 371.83 6.4.01.64 1.29-2.28 2-4.76-3.3z" class="bd"/><path d="m627.92 371.84 4.12.76-5.76 2.53 1.64-3.29z" class="ax"/><path d="m632.13 300.54.52 9.13 6.3 8.79 6.31-1.98 5.19-8.47-9.5-9.25-8.82 1.78z" class="z"/><path d="m640.68 323.96-3.84-5.5-11.92 5.93-2.91 2.1.69 10.24 17.98-2.98v-9.79z" class="n"/><path d="m636.84 318.46-9.07 8.18-2.85-2.25 8.22-5.93h3.7zM622.01 326.49l4.31 9.19-14.37-1.93 10.06-7.26z" class="bk"/><path d="M611.95 333.75h28.72v5.64h-28.72z" class="bl"/><path d="m632.65 309.67 12.61 6.81-4.58 7.48-7.54-5.5-.49-8.79z" class="bg"/><path d="m704.92 336.73-2.19 12.2-7.26 5.78-6.38-7.58-3.06-15.47 18.89 5.07z" class="z"/><path d="m691.13 357.45-6.24 10.85 7.66 9.65 11.59-2.82-3.4-15.07-5.27-5.35-4.34 2.74z" class="n"/><path d="m694.29 357.45-1.84 9.68 4.08.57 1.64-10.25h-3.88zM684.89 368.3l19.25 6.83-11.59 2.82-11.59-2.82 3.93-6.83z" class="bk"/><path d="M680.96 375.13h23.17v5.64h-23.17z" class="bl"/><path d="m689.09 347.13 13.64 1.8-1.99 11.13-9.61-2.61-2.04-10.32z" class="bg"/><path d="m659.45 255.86-7.35 16.33 12.83 5.37 5.59-23.13-11.07 1.43z" class="ae"/><path d="m659.45 255.86 4.57 2.87 6.25-8.41-1.01-16.25-9.81 21.79z" class="bk"/><path d="m652.1 272.19-5.44 8.81-1.92 7.58 10.1-.82 11.13-11.11-13.87-4.46z" class="z"/><path d="m723.27 268.18-3.39 5.27-3.32 10.98 7.64-.7 18.17-13.04-12.9-4.62-6.2 2.11z" class="ae"/><path d="m713.65 260.81 9.62 7.37 19.1 2.51-11.71-17.76-18.28-5.81 1.27 13.69z" class="z"/><path d="m718.95 235.16 11.71 17.77-17.01 7.88-4.55-8.88 9.85-16.77z" class="bk"/><path d="m708.2 293.23-.99 38.43-26.25.92-4.54-16.92-20 3.75-7.22-.95-4.46-27.02 13.67-1.74 26.48-2.88 23.31 6.41z" class="ai"/><path d="m680.96 332.58 28.14-5.11-4.18 9.26-22.01 3.1-1.95-7.25zM646.89 321.14l9.53-1.73-11.68-27.97-7.9 1.01 10.05 28.69z" class="bf"/><path d="m712.38 335.68-7.46 1.05-6.49-38.42 9.77-5.08 4.18 42.45z" class="bg"/><path d="m708.2 293.23-31.78 22.43-18.01-25.96 28.36-3.62 21.43 7.15z" class="p"/><path d="m683.14 230.42-9.15 6.85 1.68 9.04 27.01 5.62 2.24-19.81-21.78-1.7z" class="z"/><path d="m657.34 159.7-8.14 52.92 27.67 5.78 11.31 13.99 16.96-10.3 22.01-32.57-12.08-32.73-38.35-7.48-19.38 10.39z" class="z"/><path d="m683.14 230.42 12.49-7.47 13.47-61.44 5.97-4.72 12.08 32.73-6.22 11.93-3.75 2.18-.97 6.87-11.29 21.62-18.21 5.15-3.57-6.85z" class="ae"/><path d="m676.87 218.4 26.8 5.26-20.53 6.76-6.27-12.02zM720.93 201.45l-7.51-2.19 2.79 11.24 4.72-9.05zM716.56 197.03l2.35-7.17 4.36 1.9-6.71 5.27z" class="x"/><path d="m661.3 175.35 14.37 14.92 15.87-9.7-2.81-5.89-6.79.97-4.48 2.38-2.01 1.5-1.42-2.39-2.54-3.58-4.47-1.79-5.72 3.58z" class="ae"/><path d="m677.46 178.03-1.79 14.58-2.7.37-2.45-1.49 3.51-14.35 3.43.89z" class="az"/><path d="m670.52 191.49 2.06 3.23 3.09-2.11-5.15-1.12zM663.4 197.36l8 4.42 10.18-.95-1.28 2.35-9.35 1.17-7.38-4.36-.17-2.63z" class="x"/><circle cx="685.07" cy="186.32" r="2.16" class="bn"/><circle cx="665.97" cy="182.29" r="2.16" class="bn"/><path d="m661.3 175.35 6.16-2.84 4.03 1.05.75-1.42-6.27-2.16-4.32 2.91-.35 2.46zM681.94 175.65v-1.57l7.01-.22 3.81 4.55-1.22 2.16-4.45-4.33-5.15-.59zM657.34 159.7l-6.29-14.2 51.76-2.58 20.02 6.02 1.64 11.86 11.17 11.89-5.41 10.73-13.67-2.4-6.72-11.04-.74-8.47-20.92-.71-10.72 6.64-20.12-7.74z" class="ay"/><path d="m709.1 161.51-35.11-9.03 3.47 14.96 31.64-5.93zM709.1 161.51l13.73-12.57 12.81 23.75-26.54-11.18zM709.84 169.98l20.39 13.44-3.08 6.1-9.85-4.02-5.22 9.84-2.24-25.36z" class="as"/><path d="m651.05 145.5 22.94 6.98 28.82-9.56-8.78-2.64-42.98 5.22z" class="y"/><path d="m678.48 231.64.11 9.53 21.18 2.15 10.07-10.13 9.11 1.97-5.3 25.65-31.86 6.61-17.77-8.69 5.24-24.66 9.22-2.43z" class="bg"/><path d="m683.14 230.42-2.84 7.79 18.78 2.96 5.84-9.05 4.92 1.07-8.2 12.59-26.25-4.61 3.09-9.53 4.66-1.22z" class="bk"/><path d="m664.02 258.73-5.61 30.97 49.79 3.53 5.45-32.42-49.63-2.08z" class="bc"/><path d="m678.59 256.97 8.18-7.44 7.92 1.76-2.39 8.63-2.84 2.27-2.17-2.48 1.69-5.79-6.92 5.57-3.47-2.52z" style="fill:#33a474;stroke-width:0"/><path d="m692.3 259.92-2.38 16.73-5.03-1.01 2.4-15.93 5.01.21z" class="bq"/><path d="m716.56 278.61-11.42-2.63-.22 9.46 4.92 3.14 11.09-2.5-1.05-5.08-3.32-2.39z" class="z"/><path d="m709.84 288.58-1.64 4.65-9.77-4.45 6.71-12.8 4.7 12.6z" class="ae"/><path d="m716.56 278.61 4.37 7.47 3.27-2.35-4.32-10.28-3.32 5.16z" class="ai"/><path d="m652.1 290.5-4.31 8.24-7.56 3.37.45-8.88 11.42-2.73z" class="ae"/><path d="m640.23 302.11 7.1-11.36-7.1-.25-2.81 3.6 2.81 8.01z" class="x"/><path d="m652.1 290.5-2.9-4.72-5.06-.69-14.88.99 5.38 8.02 7.16.74 10.3-4.34z" class="z"/><path d="m629.26 286.08 2.87 14.46 8.1 1.57 1.57-7.27-12.54-8.76z" class="ae"/><path d="m644.14 285.09 7.96 5.41 4.37-4.36-9.81-5.14-2.52 4.09z" class="ai"/></g><g id="j"><path d="m101.59 350.93 7.05-2.13 6.94-31.96-12.31 3.36-5.93 19.61 4.25 11.12zM65.22 362.57l8.45-2.32 7.22-29.69-18.06 2.46v12.28l2.39 17.27z" class="am"/><path d="m188.02 359.35-8.3-2.13-3.91-25.06 9.77 3.31 4.39 5.68-1.95 18.2z" class="y"/><path d="m197.06 328.15-1.59 29.46-7.45 1.74-2.44-23.88 3.83-9.13 7.65 1.81zM153.64 371l8.5-3.29 5.73-25.01-15.95 3.07-3.47 13.29 5.19 11.94z" class="am"/><path d="m156.1 347.5-2.46 23.5-9.82-.9-3.01-28.95 15.29 6.35zM51.89 331.47l2.56 30.08 10.77 1.02 3.36-33.47-16.69 2.37zM91.41 333.71l1.34 16.32 8.84.9 1.68-19.91-11.86 2.69z" class="y"/><path d="m36.92 311.95 2.78 20.84 116.4 14.71 15.59-27.68-69.8-11.02-64.97 3.15z" class="bk"/><path d="m156.1 347.5 11.77-4.8 2.43-2.35 2.29.42 12.99-5.3 1.69-.69 1.41-.57 18.01-7.35 2.2-20.65L164.35 319l-5.79 11.56-2.46 16.94z" class="v"/><path d="m36.92 311.95 121.64 18.61 50.33-24.35-115.27-6.39-15.47 3.31-1.55.98-3.81.17-13.05 2.79-1.47 1.07-4.56.22-16.79 3.59z" class="av"/><path d="m53.71 308.36 118.77 15.47 1.42 1.21 1.91-2.84-116.07-15.13-6.03 1.29zM72.79 304.28l114.09 12.58 1.14 1.99 2.43-3.72-112.3-12-5.36 1.15z" class="bk"/><path d="m172.48 323.83-4.61 18.87 4.72-1.93 3.22-18.57-3.33 1.63zM186.88 316.86l-1.3 18.61 3.1-1.26 1.77-19.08-3.57 1.73z" class="bb"/></g><g id="k"><path d="m301.61 315.97-2.03 14.59-11.59 13.22-11.59-7.27-1.88-5.51-1.35-10.3 28.44-4.73zM235.56 332.21l.9 10.75 9.87 7.18 13.67-8.19 5.92-18.46-30.36 8.72z" class="z"/><path d="m303.45 271.41-23.87 39.46-45.45-30.36 8.24-13.48 43.78-6.89 17.3 11.27z" class="p"/><path d="m303.45 271.41 5.98 44.56-41.92 16.24 12.07-32.75 23.87-28.05z" class="aa"/><path d="m309.43 315.97-40.64 6.99 5.73 8.04 36.09-6.25-1.18-8.78z" class="ao"/><path d="m279.58 299.46-36.48-21.82-14.15 16.49 6.61 38.08 38.96-1.21 5.06-31.54z" class="ai"/><path d="m273.44 337.73 1.08-6.73-44.56-9.98 5.6 11.19 37.88 5.52z" class="ao"/><path d="m243.1 277.64-3.29 17.86-4.25 36.71-11.3-1.64 4.69-36.44 14.15-16.49z" class="bc"/><path d="m307.25 190.48 17.41 18.92-3.97 14.29-5.23 6.74h-10.09l-5.95-14.64 7.83-25.31z" class="q"/><path d="m305.37 230.43 19.29-21.03 8.11 8.82-15.22 16.77-12.18-4.56z" class="bg"/><path d="m317.55 234.99 12-20.27 8.26-.36 4.73 6.31-4.12 17.36-20.87-3.04z" class="z"/><path d="m333.09 208.73 7.17-16.26 6.3-2.39 6.68 3.4 3.18 12.56-12.31 8.04-7.28 3.25-3.74-8.6z" class="ae"/><path d="m333.09 208.73 1.35-12.7 11.04-14.01 3.28 2.09-7.83 21.27-4.85 6.49-2.99-3.14z" class="z"/><path d="m346.56 190.08 13.95-9.04 4.59 11.38-8.68 13.62-9.86-15.96z" class="z"/><path d="m333.09 208.73 11.02 5.35-1.57 6.59-12.99-5.95 3.54-5.99z" class="aw"/><path d="m302.42 93.28-23.95-15.76-39.31 5.07-4.24 20.35-23.97 5.84 3.98 48 46.53 33.53 34.69-14.4 23.56-14.23-10.68-39.62-6.61-28.78z" class="ah"/><path d="m307.75 92.74-5.84 17.08-15.26 4.31-15.25-.23 7.07-36.38 29.28 15.22z" class="y"/><path d="m271.4 113.9-32.24-31.31-28.21 26.19 29.45 1.04 11.68 9.97 19.32-5.89z" class="as"/><path d="m231.74 145.4-16.81 11.38-7.66 12.84 13.14 22.73 38.54 1.68 33.05-1.59 15.25-1.96 12.46-28.8-22.05-13.69-65.92-2.59z" style="fill:#29303e;stroke-width:0"/><path d="m307.75 92.74 1.28 29.32-15.95 15.09-6.16-19.46 11.94-16.5 8.89-8.45z" class="as"/><path d="m220.41 192.35 16.17-5.87 38.22-3.64 7.22 1.7 1.4 5.77 5.62-4.12 18.21 4.29-1.88 39.95-29.65 21.39-46.08-17.78-9.23-41.69z" class="bb"/><path d="m252.08 200.3-12.27-14.13 34.99-3.33 7.22 1.7 3.45 4.87-6.87 19.99-26.52-9.1z" class="bg"/><path d="m229.64 234.04 75.73-3.61-1.92 40.98-64.07 6.61-9.74-43.98z" class="q"/><path d="m298.86 101.19 8.39 71.67-21.1 3.05-12.03 9.62-6.86 5.82-18.74-1.2-12.96-44.75 4.84-35.58 31 4.08 27.46-12.71z" class="z"/><path d="m240.4 109.82 14.16 72 31.59-5.91-7.86 16.44-4.41 9.52-27.14-9.18-15-47.29 8.66-35.58z" class="ae"/><path d="m304.19 147.1-68.94 9.38 11.49 36.21 29.49 6.86-4.98-14.92 14.9-8.72 21.1-3.05-3.06-25.76z" style="opacity:.3;fill:#c3987b;stroke-width:0"/><path d="m286.15 175.91-40.68 6.36 32.82 10.08 7.86-16.44z" class="x"/><path d="m296.15 124.68-8.98 8.53-4.78 10.33-8.95 1.31-9.35-9.96-12.01-3.74 5.24-5.07 15.99 2.28 2.67.52 1.72-1.09 12.1-5.73 6.35 2.62z" class="ae"/><path d="m273.31 128.36.13 16.49 5.46 1.96 3.49-3.27-4.69-15.75-4.39.57z" class="az"/><circle cx="288.82" cy="133.03" r="2.63" class="bn"/><circle cx="264.75" cy="136.75" r="2.63" class="bn"/><path d="m252.08 131.15 3.43-6.84 17.8 4.05-16.75-.27-4.48 3.06zM277.7 127.79l12.32-8 6.13 4.89-5.6-1.07-12.85 4.18z" class="bl"/><path d="m282.39 143.54-3.6 5.18-5.35-3.87 4.88.9 4.07-2.21zM266.16 158.05l24.34-3.37-2.5 10.37-14.54 2.12-7.3-9.12z" class="x"/><path d="m270.88 159.38 16.71-2.43-.74 2.24-14.25 2.05-1.72-1.86z" style="fill:#fff;stroke-width:0"/><path d="m243.93 183.81 30.19 40.66 7.9-39.93 7.02 1.65-8.65 34.48-4.47 9.76-7.28-2.61-32.06-41.34 7.35-2.67z" class="bf"/><path d="m272.22 221.93 8.17-1.26 5.76 10.68-12.25 6.93-1.68-16.35z" class="t"/><path d="m286.15 231.35-1.8 10.43-10.45 3.44-.89-6.94 2.24-4.26 10.9-2.67z" class="av"/><path d="m272.22 221.93-3.58 5.89 1.79 4.27-2.92 8.5 6.39 4.63 1.35-11.2-3.03-12.09z" class="bk"/><path d="m236.3 236.61 5.37 1.4 8.62 7.27 2.35 8.95-4.18 5.91-6.79-3.29-6.42-9.14 1.05-11.1z" class="ap"/><path d="m232.97 247.71 2.28 23.17-13.44 13.58-18.36-18.37 3.4-18.38h26.12z" class="ak"/><path d="m224.26 252.28-6.87 17.52-3.53 9.82 7.95 4.84 24.26-1.26v-16.35l-4.4-10-9.22-7.61-8.19 3.04z" class="ap"/><path d="m236.58 233.71-1.33 16.28-10.99 2.29-17.41-4.57 10.98-9.96 18.75-4.04z" style="fill:#f9fafa;stroke-width:0"/><path d="m236.58 233.71-12.32 18.57 17.41 4.57-5.09-23.14z" style="fill:#dddfe2;stroke-width:0"/><path d="m254.43 255.36 3.36 6.49 1.16 14.15-12.88 7.2-2.97-5.56-1.43-20.79 5.82-2.29 6.94.8z" class="ab"/><path d="m258.95 276-14.19 14.46-10.38 2.57-9.35-2.6-3.22-5.97 21.29-6.82 15.85-1.64z" class="r"/><path d="m232.38 293.03-3.43 1.1-19.85-2.51 5.94-5.87 6.77-1.29 9.93 6.09.64 2.48zM217.11 250.4l10.7-3.48-2.52 9.54-8.18-6.06z" class="ab"/><path d="m227.81 246.92 3.85 7.31-4.98 2.13-2.42-4.08 3.55-5.36zM217.11 250.4l7.15 1.88 1.47 5.12-5.32 5.13-3.3-12.13z" class="bi"/><path d="m231.66 254.23-2.68 7.08-8.57 1.22 3.85-10.25 7.4 1.95zM250.29 245.28l-2.8 9.28 5.37.8 4.03-4.5-6.6-5.58z" class="y"/><path d="m247.49 254.56 4.7 6.29 5.6 1-.9-10.99-9.4 3.7z" class="n"/><path d="m242.37 267.03-5.79 3.11-2.45 10.37 8.24-.46 2.39-5.26-2.39-7.76z" class="y"/><path d="m242.37 267.03 5.12 1.87 2.82 7.99-5.92 3.16-1.29-2.41-.73-10.61z" class="n"/><path d="m250.31 276.89-7.21 6.31-8.97-2.69 8.97-2.87 7.21-.75zM244.76 290.46l-8.18-2.08-4.84 2.17.64 2.48 7.43 2.47 4.95-5.04z" class="ay"/><path d="m231.74 290.55-2.79 3.58 10.86 1.37-8.07-4.95z" class="n"/><path d="m218.89 274.79 10.75 7.16-8.24 4.67-2.05-6.57-.46-5.26z" class="y"/><path d="m229.64 281.95-1.83 6.19-5.35-1.52-.65-2.16 7.83-2.51z" class="ay"/><path d="m227.81 288.14-13.66.64-1.69-4.32h9.35l6 3.68z" class="n"/><path d="m228.95 237.3 3.14 3.17 3.16-1.59 1.33-5.17-7.63 3.59z" class="ab"/><path d="m232.09 240.47 6.2 1.02v-3.74l-1.71-4.04-4.49 6.76z" class="bi"/><path d="m238.29 241.49 3.38-3.48-5.09-4.3 1.71 7.78z" class="y"/><path d="m215.93 243.43-3.47 5.75-4.29 1.68-1.32-3.15 4.54-4.72 4.54.44z" class="ab"/><path d="m212.46 249.18-4.9 7.67-2.66-5.99 1.95-3.15 5.61 1.47z" class="bi"/><path d="m208.17 264.76 9.22 5.04 2.75 9.11-8.69-1.28-3.28-12.87zM187.43 256.85l4.25 5.68 10.58 1.43 5.3-7.11-1.48-19.1-18.65 19.1z" class="ae"/><path d="m216.68 207.12-19.85 12.3-19.99 22.96 10.59 14.47 28.5-13.42 9.36-12.08-8.61-24.23z" class="z"/><path d="m236.58 233.71-16.17-41.36-12.86 14.77-1.32 17.06 22.72 13.12 7.63-3.59z" class="q"/><path d="m215.93 243.43 13.02-6.13-21.4-30.18-10.72 12.3 19.1 24.01z" class="bg"/><path d="m213.86 274.79 6.28 4.12 1.67 5.55-6.82-3.8-1.13-5.87z" class="x"/><path d="m208.17 264.76 5.69 10.03-5.54 6.65-12.09.89-.29-14.13 5.12-4.4 7.11.96z" class="z"/><path d="m213.86 274.79 7.95 9.67-12.71 7.16-12.87-9.29 17.63-7.54z" class="ae"/><path d="m195.94 268.2 12.23-3.44-.61-7.91-15.88 5.68 4.26 5.67z" class="aw"/><path d="m254.26 359.82 14 19.54-17.52 5.6-15.18-4.7 1.16-6.96 3.19-4.58-1.66-4.58 8.57-6.71 7.44 2.39z" class="au"/><path d="M235.56 380.26v7.72h32.7v-8.62l-16.02-4.47-16.68 5.37z" class="bi"/><path d="m245.29 359.25 2.05 10.86 3.86-1.12-2.96-10.77-2.95 1.03zM238.25 364.14l4.85 5.3-6.38 3.86 1.53-9.16z" class="ab"/><path d="m258.47 346.7-10.68-1.81-10.79 4.47 1.25 14.78 16.01-4.32 4.21-13.12z" class="bk"/><path d="m237 349.36 21.47-2.66 1.53-4.75-23.54 1.01.54 6.4z" class="bg"/><path d="m282.24 353.63 4.2 5.3-4.2 5.21v7.05l34.99 5.26-.8-15.2-6.46-4.06-10.69-4.25-6.86-6.48-10.18 7.17z" class="au"/><path d="m316.43 361.25-8.44 9.94h-25.75v7.73h41.88v-12.84l-7.69-4.83z" class="bi"/><path d="m282.24 353.63 10.18 4.59-2.4 6.71-7.78-.79v-10.51zM290.29 348.34l14.57 10.65 5.11-1.8-12.96-8.15-6.72-.7z" class="ab"/><path d="m282.24 353.63-3.99-11.68 11.45-6.48 9.01 1.34-1.7 12.23-14.77 4.59z" class="bk"/><path d="m278.25 341.95 20.46-5.14.87-6.25-23.18 5.95 1.85 5.44z" class="bg"/></g><g id="l"><path d="m367.08 352.86 8.99-7.18 10.14-3.93 9.18-.79-6.17 27.53-22.14-15.63z" class="ak"/><path d="m395.39 340.96 7.04-.38 6.57 1.59 4.79 2.81-4.88 23.51-22.6-10.07 4.74-11.72 4.34-5.74zM386.31 358.42v22.68l-24.85-3.61 1.67-1.29-1.08-4.53 1.08-10.59 4.49-5.8-3.45-4.47 10.52 3.61 11.62 4z" class="ag"/><path d="m406 359.98-4.25 26.38-19.02-11.6 3.58-16.34 19.69 1.56z" class="r"/><path d="m414.96 346.02 2.45 2.44 5.83 11.52.83 7.42-10.28 2.81-7.79-10.23 6.71-12.26 2.25-1.7z" class="r"/><path d="m424.92 367.63-.67 4.04-.83 1.72-5.42 5.84-.83 7.13-1.24 2.57-4.31 3.49-10.99-4.9-1.56-7.62 6.93-19.92 15.12 4.92 3.8 2.73zM382.73 374.76l7.83 10.67-6.46 12.53-2.35-4.57-3.55-.76-11.12-10.06-2.81-3.9 1.98-1.79 16.48-2.12z" class="y"/><path d="m384.1 397.96 17.5-9.03-2.53-9.03-16.34-5.14 1.37 23.2z" class="n"/><path d="M399.07 379.9 390 390.84l-.76 4.47 4.48 1.17 12.96-2 4.94-2.06-1.14-2.06-11.41-10.46z" class="am"/><path d="m386.21 341.75 4.84 4.95 5.03-4.24-1.76-3.84-8.11 3.13z" class="r"/><path d="m391.05 346.7 11.38-6.12-8.11-1.96-3.27 8.08zM397.71 359.32l11.78-5.71v4.81l-3.49 1.56-3.57 2.47-4.72-3.13z" class="y"/><path d="m397.71 359.32 5.33 9.17 3.64-3.36-.68-5.15-8.29-.66zM409.49 353.61l5.47 9.28-5.47 1.66-3.49-4.57 3.49-6.37z" class="n"/><path d="m414.96 362.89-8.96-2.91-2.96 8.51 11.92-5.6zM423.42 373.39l-10.56 3.29 4.31 9.68 6.25-12.97z" class="ah"/><path d="m376.07 345.68-1.38 8.74-7.07.86-3.39-5.02 11.84-4.58z" class="r"/><path d="m374.69 354.42-11.56 6.66 1.1-10.82 10.46 4.16zM384.66 365.95l-13.57 10.3 8.15 1.86 3.49-3.35 2.57-2.73-.64-6.08z" class="y"/><path d="m384.66 365.95 4.17 10.73-4.17.7-1.93-2.62 1.93-8.81z" class="n"/><path d="m371.09 376.25 12.17 7.46.84-5.6-1.37-3.35-11.64 1.49z" class="ah"/><path d="m382.73 374.76 6.1 1.92-5.57 7.03-.53-8.95zM392.16 377.73l1.56 8.63 3.99-1.2 1.36-5.26-2.33-2.52-4.58.35z" class="bl"/><path d="M393.72 386.36h12.4l-3.08-5.26-3.97-1.2-5.35 6.46z" class="aq"/><path d="m406.12 386.36-4.79-12.97-2.39 3.29.13 3.22 7.05 6.46z" class="ah"/><path d="m401.33 373.39-9.17 4.34 6.91 2.17 2.26-6.51z" class="n"/><path d="m379.11 355.94 10.01-4.48.88 3.82-3.69 3.14-4.26.66-2.94-3.14z" class="r"/><path d="m379.11 355.94 6.19 7.07 2.01-2.02-1-2.57-7.2-2.48zM389.12 351.46l3.04 7.42-3.33 1.36-2.52-1.82 2.81-6.96z" class="y"/><path d="m392.16 358.88-5.85-.46-1.01 4.59 6.86-4.13z" class="n"/><path d="m378.2 392.63 5.36-3.7 1.74 2.73-1.2 6.3-5.9-5.33z" class="ah"/><path d="m383.56 388.93 6.44 1.91-.76 3.73-5.14 3.39-.54-9.03z" class="bl"/><path d="m390 390.84 3.72 5.64-9.62 1.48 5.9-7.12z" class="aq"/><path d="m362.05 371.67 4.2 5.21-.51 1.23-4.28-.62.59-5.82z" class="y"/><path d="m366.25 376.88.83 5.69-5.62-5.08 4.79-.61zM415.93 388.93l-5.45 1.43-.99 2.27 4.3.76 2.14-4.46z" class="ah"/><path d="m410.48 390.36-3.8 4.12 7.11-1.09-3.31-3.03z" class="aq"/><path d="m423.24 359.98-2.12 4.92 2.12 2.73 3.41-.93-3.41-6.72z" class="n"/><path d="m421.12 364.9 3.13 6.77 2.4-4.97-5.53-1.8z" class="ah"/><path d="m409 342.17 3.71 5.55 2.25-1.02.08-2.92-6.04-1.61z" class="y"/><path d="m412.71 347.72 4.7.74-2.37-4.68-2.33 3.94z" class="n"/></g></svg>