<svg xmlns="http://www.w3.org/2000/svg" id="a" viewBox="0 0 900 420"><defs><style>.j{fill:#576071}.ab,.ac,.ad,.af,.ag,.ah,.ai,.aj,.al,.am,.an,.ao,.ap,.as,.at,.au,.av,.aw,.ax,.az,.ba,.bb,.bc,.bd,.be,.bg,.bh,.j,.l,.m,.n,.o,.p,.q,.r,.s,.t,.u,.v,.w,.x,.y,.z{stroke-width:0}.l{fill:#46382d}.m{opacity:.1}.aw,.m{fill:#1d2432}.n{fill:#545c6d}.o{fill:#d0ab92}.p{fill:#709d52}.q{fill:#8b6651}.r{fill:#68707f}.s{fill:#dfbda5}.t{fill:#216a4b}.u{fill:#d7e056}.v{fill:#35775e}.w{fill:#9a9fa9}.x{fill:#84c8ab}.y{fill:#98c06c}.z{fill:#c3987b}.ab{fill:#f4d75c}.ac{fill:#267a56}.ad{fill:#b7c543}.af{fill:#54ae88}.ag{fill:#c29431}.ah{fill:#e5e87a}.ai{fill:#5bb68f}.aj{fill:#fff7ae}.al{fill:#70bf9d}.am{fill:#a0cf7e}.an{fill:#28835c}.ao{fill:#59763e}.ap{fill:#4b5464}.as{fill:#d8bca9}.at{fill:#5f5044}.au{fill:#47ad82}.av{fill:#d9e256}.aw{opacity:.15}.ax{fill:#787f8d}.az{fill:#8e7e73}.ba{fill:#86b264}.bb{fill:#2d9368}.bc{fill:#99d1b9}.bd{fill:#232a38}.be{fill:#74665b}.bg{fill:#2b8b62}.bh{fill:#33a474}</style></defs><g id="b"><path d="m117.14 289.79 46.06-4.64 40.04 6.81-47.07 7.82-39.03-9.99zM28.76 279.2l35.01-5.28 21.51 5.33-26.28 4.9-30.24-4.95zM5.65 352.87l20.92-11.33 73.37 3.06.46 23.79-76.38-4.79-18.37-10.73zM167.87 337.35l59.03-9.93 32.18 10.89-8.85 17.35-74.53-8.04-7.83-10.27zM266.17 352.5l12.1-10.62 38.25-3.57 52.99-4.2 25.43 1.06 16.02 15.81-12.98 14.84-23.25-6.06-23.38 9.31-13.81 8.9-32.45-20.98-38.92-4.49zM666.59 311.74l-57.33-6.69-55 16.94-43.27 19.63 82.64 3.37 57.91-13.51 15.05-19.74zM773.59 386.89 742.34 382l-33.03 18.79 54.8-1.69 9.48-12.21zM867.69 352.46l-52.78-2.58 18.22-16.04 38.4-4.37 21.4 9.59-25.24 13.4zM691.63 254.49l49.89-4.47 27.69 3.28-36.34 6.37-41.24-5.18zM468.75 281.85l22.05-6 35.75 8.2-42.12 11.33-29.92-7.14 14.24-6.39zM169.53 401.32l62.28 5.39 9.09-6.71-51.33-14.76-26.24 5.01 6.2 11.07zM128.06 402.96l16.95-3.77 13.96 4.61-18.55 4.78-12.36-5.62zM42.67 391.2l15.79-4.68 18.46 2.34-5.32 2.34-6.29-1.15-1.71 1.15-3.8-.81-2.25.81-4.97-1.15-2.3 1.15h-7.61zM289.39 400.8l13.86-2.48 17.03 10.53-21.81.96-14.15-5.75 5.07-3.26zM387.88 401.57l10.14-3.25L420.8 395l12.24 3.32 14.3 3.25h-8.86l-5.44-1.29-4.02 1.29-5.83-2.19-5.37 2.19-6.13-2.19-4.74 2.19-6.48-1.61-2.88 1.61h-9.71zM439.25 394.09l26.43-3.98 28.78 4.89-22.38 4.1-9.18 1.02-23.65-6.03zM474.43 410.15l14.48 2.85 12.1-3.42-15.22-2.28-11.36 2.85zM627.31 384.16h-9.59V382l-7.06 2.16-3.97-2.16-5.81 2.16-6.73-3.68-4.07 3.68-4.84-2.16-1.53 2.16-4.81-1.84 19.13-3.42h12.76l16.52 5.26zM499.09 356.35l61.82 18.03 112.31-5.24 46.21-12.79-80.07-11.49-49.3 3.7-64.56 2.7-26.41 5.09zM804.31 372.67h-8.55l-2.44-3.19-5.61 3.19-4.81-3.19-2.24 3.19-5.05-1.59-2.71 1.59-5.26-1.59 14.53-3.53 13.49.99 8.65 4.13zM839.4 391.96h-11.45l-1.88-1.86-6.45 1.86-4.71-4.04-6.84 4.04-5.69-2.77 16.17-3.89 9.68 1.25 11.17 5.41z" class="m"/></g><circle id="c" cx="257.51" cy="67.24" r="35.25" class="x"/><g id="d"><path d="m497.34 248.11-.58 6.41-2.3.91 1.88 3.69-1.88 20.62h-5.71l-4.99-44.18 13.58 12.55zM167.87 236.66l-.97 10.07-2 3.42 1.34 3.42-1.87 19.47-3.36 3.08 2.77 3.07-1.23 12.77h-8.7l-.62-13.87 2.13-1.97-2.24-.45-.18-4.14 2.42-3.07-2.7-3.07-1.08-24.52 13.33-22.12 2.96 17.91z" class="x"/><path d="m151.58 240.87 16.29-4.21 4.89-9 8.85 5.46 31.99-8.25-37.71-73.34-19.27 20.86-8.73 20.12 3.69 48.36z" class="bg"/><path d="m159.72 177.46-11.83-19.37-57.41 52.88 28.45 13.92 8.81-3.89.88 8.63 22.96 11.24 8.14-63.41zM167.87 236.66l2.43-32.44 11.31 28.9-13.74 3.54z" class="ac"/><path d="m118.93 224.89 26.59-38.5-16.9 43.24-9.69-4.74z" class="t"/><path d="m184.72 168.7-26.93 23.81-21.85-23.42 21.31-4.74 27.47 4.35z" class="aw"/><path d="m159.72 177.46 25-8.76 2.42-4.35 4.97 1.76 9.72-3.41-38.43-56.18-5.58 10.19-7.38 27.64 9.28 33.11z" class="bg"/><path d="m159.72 177.46-40.79-14.35 36.62-59.1 2.27 12.7 1.9 60.75zM184.72 168.7l-9.4-31.18 16.79 28.59-7.39 2.59z" class="ac"/><path d="m167.23 112.12-9.01 17.3-8.27-16.37 17.28-.93z" class="aw"/><path d="m157.82 116.71 18.31-8.93-13.39-74.3-7.29 60.99 2.37 22.24z" class="bg"/><path d="m157.82 116.71-16.45-7.65 21.37-75.58-4.92 83.23z" class="ac"/><path d="m166.9 246.73-8.82 3.82 8.16 3.02.66-6.84zM152.66 265.39l12.24 2.12-11.96 4.02-.28-6.14zM164.37 273.04l-11.25 2.63.11 2.42 10.55 1.1.59-6.15z" class="ai"/><path d="m57.03 251.96 1.62 12.11 2.22 2.61-1.52 2.61 1.4 10.52h6.51l-1.05-17.77-2.59-2.97 2.28-2.33-1.08-18.41-7.79 13.63z" class="x"/><path d="m63.62 202.48 5.91-4.55 27.8 44.84-12.6 2.87-5.53-2.11-1.24 3.66-4.3.98-3.57-2.53-1.53 3.69-11.53 2.63-3.71-25.34 10.3-24.14z" class="bg"/><path d="m63.62 202.48-10.3-6.98-33.4 44.01 15.06 5.05 5.5-2.97 1.03 5.16 15.52 5.21 6.59-49.48z" class="ac"/><path d="m65.9 256.74-7.84 2.88 8.15 2.42-.31-5.3zM58.65 264.07l7.77 1.52-7.07 3.7-.7-5.22z" class="ai"/><path d="m84.73 245.64-11.07-22.36 4.3 23.91 6.77-1.55zM73.66 248.17l-4.1-12.94-1 14.1 5.1-1.16z" class="ac"/><path d="m34.98 244.56 16.21-31.59-9.68 33.78-6.53-2.19z" class="t"/><path d="m71.18 200.58-9.05 12.39-11.18-14.36 10.12-.68 10.11 2.65z" class="aw"/><path d="m81.71 197.93-6.39 1.61-2.83-1.91-1.31 2.95-7.56 1.9-7.6-17.53 2.63-12.85 4.62-4.68 18.44 30.51z" class="bg"/><path d="m58.65 172.1-4.43-4.68-12.45 28.38 4.62 1.42 3.46-1.72 1.1 3.11 3.69 1.13 1.38-1.47 1.39 2.31 6.21 1.9-4.97-30.38z" class="ac"/><path d="m50.95 198.61 2.37-12.26-6.93 10.87 4.56 1.39zM54.64 199.74l2.39-9.63.38 10.47-2.77-.84z" class="t"/><path d="M71.18 200.58 67.26 184l8.06 15.54-4.14 1.04z" class="ac"/><path d="m64.93 170.18-5.31 7.85-6.55-7.98 11.86.13z" class="aw"/><path d="m58.65 172.1 11.67-3.57-9.25-49.69-3.85 43.59 1.43 9.67z" class="bg"/><path d="m58.65 172.1-9.74-3.57 12.16-49.69-2.42 53.26z" class="ac"/><path d="m745.05 224.83-1.7 12.12-2.37 1.33 1.97 1.57-.51 3.62-1.93 1.46 1.39 2.4-1.15 8.18h-6.77l-1.43-14.49 1.27-2.74-1.81-2.73-.6-5.99 1.29-.83-1.57-2-1.35-13.71 15.27 11.81z" class="x"/><path d="m726.3 134.51-46.43 74.32 19.92 4.89 6.3-3.74 1.66 5.69 8.44 2.07 7.2-4.42 7.2 7.96 14.46 3.55 5.03-43.18-11.2-40.69-12.58-6.45z" class="bg"/><path d="m738.88 140.96 12.37-6.85 49.39 73.63-19.45 5.98-11.59-.7-5.12 5.83-19.43 5.98-6.17-83.87zM699.79 213.72l12.64-24.04-4.68 25.99-7.96-1.95zM716.19 217.74l11.64-43.31 2.76 46.85-14.4-3.54z" class="ac"/><path d="m781.19 213.72-23.17-36.65 6.46 41.78 16.71-5.13z" class="t"/><path d="m724.47 137.45 15.68 20.74 13.3-20.8-18.3-6.95-10.68 7.01z" class="aw"/><path d="m738.88 140.96-14.41-3.51-3.21-5.77-3.75 4.07-11.7-2.86 19.82-37.85 4.96 4.54 8.29 13.7v27.68z" class="bg"/><path d="m738.88 140.96 9.85-2.42.12-4.03 4.6 2.88 13.34-3.28-28.71-37.85-7.49 3.32 8.29 41.38zM724.47 137.45l1.34-19.35-8.3 17.65 6.96 1.7z" class="ac"/><path d="m753.45 137.39-9.2-15.05 4.48 16.2 4.72-1.15z" class="t"/><path d="m724.23 97.71 8.21 11.07 7.28-10.35-9.13-3.39-6.36 2.67z" class="aw"/><path d="m717.41 95.69 13.18 3.89 5.8-17.89V36.52l-18.98 59.17z" class="bg"/><path d="m730.59 99.58 16.69-2.1-10.89-60.96-5.8 63.06z" class="ac"/><path d="m743.35 236.95-11.34-1.4.54 5.47 10.4-1.17.4-2.9zM742.44 243.47l-9.74-.94 9.2 4.8.54-3.86zM731.13 226.73l13.04 5.65-12.76-2.82-.28-2.83z" class="ai"/><path d="m573.82 143.16-55.36 72.12 49.05 9.26 22.55-40.59v-32.57l-16.24-8.22z" class="bb"/><path d="m592.62 143.45 39.85 74.73-64.96 6.36 16.4-69.96 8.71-11.13z" class="an"/><path d="m568.85 149.63 11.75 19.09 15.63-18.49-13.69-7.07-13.69 6.47z" class="aw"/><path d="M573.25 83.81 549 143.1l11.67 3.84 6.38-3.29 1.8 5.98 15.06 4.95 3.64-42.82-9.34-20.2-4.96-7.75z" class="bb"/><path d="m583.91 154.58 12.32-4.35.3-5.97 6.42 3.59 14.62-5.17-37.53-62.43-1.83 11.31 5.7 63.02zM568.85 149.63l3.21-29.37-11.39 26.68 8.18 2.69z" class="an"/><path d="m596.23 150.23-6.17-28.37 12.89 25.99-6.72 2.38z" class="ac"/><path d="m570.86 89.67 8.34 12.82 5.89-13.84-6.04-2.26-8.19 3.28z" class="aw"/><path d="m563.16 24.04-4.87 62.4 6.65 1.71 2.57-2.67 3.35 4.19 7.35 1.89V66.95l-15.05-42.91z" class="bb"/><path d="m563.16 24.04 33.37 59.78-7.95 3.36-3.49-.79v2.26l-6.88 2.91-15.05-67.52zM570.86 89.67l-4.49-14.82-1.43 13.3 5.92 1.52z" class="an"/><path d="m585.09 88.65-8.93-24.09 12.42 22.62-3.49 1.47z" class="ac"/><path d="m424.82 234.55 55.44-71 11.07 5.17 16.15 38.23-10.14 41.16-12.43-2.33-8.77-8.58-9.99 5.08-5.41-1.01-4.4-7.44-7.75 5.16-23.77-4.44z" class="bb"/><path d="m497.34 248.11 11.43-1.88 4.15-6.6 5.54 5 42.45-6.98-54.62-74.34-14.96 5.41 6.01 79.39z" class="an"/><path d="m496.76 254.52-10.97-.94 10.55 5.54.42-4.6z" class="ai"/><path d="m448.59 238.99 17.05-28.36-4.9 30.64-12.15-2.28zM466.15 242.26l12.82-42.73 5.94 46.25-18.76-3.52z" class="an"/><path d="m508.77 246.23-1.38-24.55 11.07 22.95-9.69 1.6z" class="ac"/><path d="m472.59 173.38 21.04 25.69 19.52-26.42-23.21-5.79-17.35 6.52z" class="aw"/><path d="m449.47 166.89 42.63 11.97 10.71-31.01-12.01-60.44-8.25-6.87-33.08 86.35z" class="bb"/><path d="m492.1 178.86 33.47-9.88 1.69-6.19 5.42 4.1 8.09-2.39-42.09-83.96-7.88 6.87 1.3 91.45z" class="an"/><path d="m532.68 166.89-14.22-22.62 7.11 24.71 7.11-2.09z" class="ac"/><path d="m481.16 84.17 9.88 19.99 10.29-18.34-10.08-3.56-10.09 1.91z" class="aw"/><path d="m490.8 87.41-9.64-3.24-.9-3.63-4.75 1.72-7.08-2.38L501.9 9.11l-2.81 52.53-8.29 25.77z" class="bb"/><path d="m490.8 87.41 10.53-1.59 3.07-3.56 3.08 2.62 7.08-1.07-12.66-74.7-11.1 78.3zM481.16 84.17l4.76-21.37-10.41 19.46 5.65 1.91z" class="an"/><path d="m501.33 85.82 1.48-12.34 4.67 11.4-6.15.94z" class="ac"/></g><g id="e"><path d="m714.78 305.6 46.02 11.67-16.97 27.59-7.74-1.97-1.37-4.16-3.25 2.98-4.72-1.2-3.88-5.19-7.74 2.23-12.76-3.24 12.41-28.71z" class="w"/><path d="m751.12 321.99 66.07-4.2-2.28 32.09-17.52-1.24-4.34-3.08-4.34 2.47-6.81-.48-1.39-3.01-3.06 2.69-6.13-.43-4.87-2.31-4.88 1.62-17.74-1.25 7.29-22.87z" class="r"/><path d="m808.53 324.82 16.29-10.81 37.47-9.22 13.67 36.5-6.63.93-2.94-3.15-1.8 3.82-24.26 3.41-4.73-2.56-3.24 3.68-17.45 2.46-6.38-25.06z" class="j"/><path d="m715.13 337.55 17.31-30.13 3.65 5.36-9.34 27.73-11.62-2.96z" class="ax"/><path d="m761.57 346.11 7.64-23.23 2.11 23.92-9.75-.69zM779.37 323.38l-1.92 23.85 4.45.32 4.99-27.04-7.52 2.87zM791.18 323.97l-2.47 24.06 8.68.61-4.34-26.65-1.87 1.98z" class="j"/><path d="m742.34 317.79-10.87 23.92 4.62 1.18 6.25-25.1z" class="ax"/><path d="m818.55 317.79 13.81 29.63 7.97-1.12-12.55-34.79-9.23 6.28zM835.6 314.74l17.62 29.75-12.89-35.03-4.73 5.28zM850.77 309.08l13.82 33.81 4.74-.67-17.18-34.8-1.38 1.66z" class="ap"/><path d="m714.78 305.6 57.76-15.58 89.75 14.77-53.76 20.03-57.41-2.83-36.34-16.39z" class="am"/><path d="m743.83 304.79 10.94-33.11 20.04 1.87 16.41 7.15 6.17 13.41-15.22 17.4-21.37-3.75-.57-4.57-4.86 3.62-11.54-2.02z" class="w"/><path d="m782.17 311.51 24.81-4.41 4.27-5.28 7.3 3.22 5.2-.92 1.18-5.26 4.51 4.25 10.89-1.94-7.2-33.97-29.61 2.96-12.3 10.54-9.05 30.81z" class="r"/><path d="m755.37 306.81 11.08-34.04 4.87.78-10.52 34.21-5.43-.95zM774.59 276.48l-8.14 32.27 15.72-32-7.58-.27z" class="ax"/><path d="m806.98 307.1-6.2-33.55 6.2 2.07 11.57 29.42-11.57 2.06zM823.75 304.12l-7.92-31.35 2.72-2.61 10.89 32.95-5.69 1.01z" class="j"/><path d="m754.77 271.68 48.19-10.64 30.17 6.16-41.91 13.5-36.45-9.02z" class="am"/><path d="m671.72 375.05-9.56 15.26 13.17 2.93 8.7-3.88 1.7 6.19 23.58 5.24 5.01-22.55-42.6-3.19z" class="w"/><path d="m705.09 385.3 12.42-10.25 27.41-2.73 10.88 19.36-22.44 4.4-8.72-3.03-1.09 4.95-14.24 2.79-4.22-15.49z" class="r"/><path d="m682.1 378.24-6.77 15 10.4 2.31 2.62-17.31h-6.25zM694.33 382l-3.35 14.72 8.67-14.72h-5.32z" class="ax"/><path d="m723.55 398-7.63-19.76h5.01l12.43 17.84-9.81 1.92zM729.19 375.05l11.01 19.69-6.84-21.23-4.17 1.54z" class="j"/><path d="m671.72 375.05 31.67-8.45 41.53 5.72-39.83 12.98-33.37-10.25z" class="am"/><path d="m434.87 290.35 99.61 7.43-23.49 43.84-14.87-2.8-2.73-6.01-6.44 4.28-7.79-1.46-3.92-3.56-5.27 1.83-9.7-1.83-5.76-5.19-6.61 2.87-14.9-2.81 1.87-36.59z" class="w"/><path d="m518.58 305.05 30.64-15.89 66.92 1.16 7.83 37.1-33.91 4.26-4.78-5.25-2.06 6.11-30.65 3.85-1.46-3.85-5.24 4.7-34.88 4.38 7.59-36.57z" class="r"/><path d="m480.26 294.79 3.37 41.68 7.7-43.08-11.07 1.4zM496.89 297.78l-9.94 39.31 9.17 1.73 5.78-41.04h-5.01zM479.16 335.63l-6.13-20.74-3.06 19.01 9.19 1.73z" class="ax"/><path d="m545.87 337.24 3.41-29.48 3.29 28.63-6.7.85zM583.22 332.54l-10.81-39.15h10.81l6.84 38.29-6.84.86zM587.55 292.62l13.19 37.72-6.59-40.99-6.6 3.27z" class="j"/><path d="m460.27 332.07 6.32-37.76h-5.17l-13.52 35.44 12.37 2.32z" class="ax"/><path d="m616.14 290.32-23.52-4.7-41.51-8.29-70.85 8.15-45.39 4.87 83.71 14.7 97.56-14.73z" class="am"/><path d="m454.51 288.24 10.03.77 3.26-1.46 1.37 1.82 3.86.3 1.4-1.59.83 1.76 10.66.82 7.47-1.9 3.88 2.78 2.35.18 3.42-1.37 1.15 1.72 11.15.86 9.83-11.61 2.26-13.52-60.19-2.81-12.73 23.25z" class="w"/><path d="m522.48 272.89 7.34-6.53 48.62 3.34 14.18 15.92-15.55 1.47-6.2-2.63-3.36 3.54-27.33 2.58-9.12-2.58-3.63 3.79-12.09 1.14 7.14-20.04z" class="r"/><path d="m485.92 290.66 14.94-22.86-3.59 23.74-11.35-.88zM499.62 291.72l8.2-25.36 7.52 4.85-11.15 20.86-4.57-.35zM489.13 266.55l-2.64 12.68 6.9-12.68h-4.26z" class="ax"/><path d="m525.17 272.74 2.26 19.05 12.75-1.21-5.7-18.37-3.42-2.85-5.89 3.38zM577.07 287.09l-14.64-16.47 5.08 17.38 9.56-.91z" class="j"/><path d="m464.54 289.01 13.67-23.25 3.73 1.33-6.68 22.75-2.23-.17.92-8.42-4.78 8.12-4.63-.36z" class="ax"/><path d="m467.24 264.99 69.03-7.28 42.17 11.99-55.96 3.19-55.24-7.9z" class="am"/><path d="m164.7 356.84-12.36-35.39-74.72 6.54 12.76 20.77 10.02 19.63 14.61-2.62 3.37-3.38 7.3 1.46 6.09-1.09-.07-4.3 9.62 2.58 3.23-.58 3.5-2.09 5.03.56 11.62-2.09z" class="w"/><path d="m90.38 333.38-12.76-9.15-47.82-1.56-16.12 30.4 15.61 2.76 3.27-2.44 1.3 3.24 23.52 4.16 4.28-2.38 3.95 3.83 7.89 1.4 3.29-3.5 5.57 5.07 18.04 3.18-10.02-35.01z" class="r"/><path d="m153.08 358.93-15.17-34.7-8.35-.74 14.99 36.97 8.53-1.53zM141.32 361.04l-22.94-33.05 13.39 34.77 9.55-1.72zM125.68 363.85l-13.8-34.61 3.13 36.53 10.67-1.92z" class="ax"/><path d="m76.38 327.99 5.98 37.22-8.86-1.57 1.2-23.7-9.09 22.3-8.23-1.45 10.67-34.51 8.33 1.71zM55.55 325.22l-12.54 31.17 5.43-32.9 2.6 1.73h4.51zM42.82 323.09l-8.96 33.54-4.57-.8 8.65-33.19 4.88.45z" class="j"/><path d="m152.34 321.45-59.91-13.91-62.63 15.13 60.58 10.71 61.96-11.93z" class="am"/><path d="m128.28 315.87-23.07 3.4-3.75-1.6-1.06 2.31-10.02 1.47-10.79-9.75 4.56-11.09 35.99-1.82 8.14 17.08z" class="w"/><path d="m90.38 321.45-15.8-1.86-2.86-3.18-3.65 2.41-15.02-1.77 7.11-19.51 23.99 3.07 6.23 20.84z" class="r"/><path d="m106.93 297.54 9.1 20.13-17.75-21.53 8.65 1.4zM97.05 299.96l8.16 19.31-4.81.71-6.53-22.44 3.18 2.42z" class="ax"/><path d="m77.62 299.78-3.04 19.81-6.51-.77 8.18-21.28 1.37 2.24zM71.72 299.02l-7.74 19.32 4.09-20.8 3.65 1.48z" class="j"/><path d="m60.16 297.54 31.58-5.64 28.4 6.89-35.99 1.82-23.99-3.07z" class="am"/><path d="m290.96 394.35-9.27-23.41-49.88 6.48v29.29l13.93-2.91 3.67-3.8 3.66 2.27 15.38-3.22 2.99-3.01 6.83.96 12.69-2.65z" class="w"/><path d="m237.79 382.54-15.19-10.83-30.37-.56-17.69 23.49 16.6 3.5 7.11-.94L200 400l11.72 2.47 4.32-2.47 1.97 3.8 13.8 2.91 5.98-24.17z" class="r"/><path d="m278.27 397-14.36-27.16h-2.52l7.06 29.21 9.82-2.05zM263.91 400l-7.01-24.26h-8.74L263.91 400zM253.07 402.27l-5.56-11.66-1.77 13.19 7.33-1.53z" class="ax"/><path d="m226.9 377.42-8.89 26.38-6.29-1.33 4.89-26.73 10.29 1.68zM210.54 375.74 200 400l-8.86-1.86 19.4-22.4z" class="j"/><path d="m281.69 370.94-53.79-7.34-35.67 7.55 45.56 11.39 43.9-11.6z" class="am"/><path d="m333.52 391.07 4.71 12.71-5.78 1.63-4.35-2.08-.05 3.32-7.77 2.2-6.27-14.56 19.51-3.22z" class="w"/><path d="m317.97 396.19-3.36-3.44-13.97-1.68-5.48 12.71 14.39 2.9 1.57-.74 1.08 1.28 8.08 1.63-2.31-12.66z" class="r"/><path d="m326.6 393.35 5.85 12.06-4.4 1.24-1.45-13.3z" class="ax"/><path d="m315.08 395.34-2.88 11.88-2.65-.54 2.65-13.33 2.88 1.99zM309.55 393.7l-5.52 11.87 3.29-14.5 2.23 2.63z" class="j"/><path d="m333.52 391.07-18.98-3.92-13.9 3.92 17.33 5.12 15.55-5.12z" class="am"/></g><g id="f"><path d="m507.82 399.1 15.47-4.1 12.98 4.1-12.98 4.67-15.47-4.67zM541.99 405.78l9.6 2.89 11.51-3.65-12.45-2.88-8.66 3.64zM776.55 268.94l11.64 2.74 9.2-3.19-9.2-1.98-11.64 2.43zM803.52 268.49l7.73 1.97 8.67-3.26-10.25-1.82-6.15 3.11z" class="m"/><path d="m780.98 252.87 7.73 17.77-1.71-20.9-6.02 3.13z" class="an"/><path d="m787.52 256.03-14.4-4.6 10.05-12.26 15.41 6.66-11.06 10.2z" class="av"/><path d="m780.98 248.53 3.86-4.04 3.87 2.53-4 3.91-3.73-2.4z" class="aj"/><path d="m809.67 254.06-1.14 14.43 7.3-15.16-6.16.73z" class="an"/><path d="m805.49 252.16 7.8 6.44 11.49-4.54-11.39-6.32-7.9 4.42z" class="av"/><path d="m811.25 252.62 2.63-1.69 2.85 2.4-2.74 1.34-2.74-2.05z" class="aj"/><path d="m551.11 407.3-5.24-15.26 7.74-1.14-2.5 16.4z" class="bh"/><path d="m552.72 396.72-15.89-4.46L550.65 382l14.58 6.12-12.51 8.6z" class="av"/><path d="m547.31 389.99 3.95-3.04 4.25 1.97-5.32 3.34-2.88-2.27z" class="aj"/><path d="m527.87 378.73-3.76 22.76-5.41-21.01 9.17-1.75z" class="bh"/><path d="m538.23 375.86-18.31 9.34-17.11-7.17 17.31-8.89 18.11 6.72z" class="av"/><path d="m515.79 377.17 4.73-2.79 5.3 1.4-7.12 4.7-2.91-3.31z" class="aj"/><path d="m81.39 296.14 11.08-2.51 11.47 2.63-11.62 2.45-10.93-2.57z" class="m"/><path d="m90.38 297.45 2.46-23.77 9.16 2.61-11.62 21.16z" class="an"/><path d="M98.28 283.07 84.3 269.04l19.64-3.71 16.2 10.96-21.86 6.78z" class="av"/><path d="m97.21 272.59 4.79-2.32 5.15 3.41-7.61 2.61-2.33-3.7z" class="aj"/><path d="m457.05 369.72 4.42 27h4.11l3.17-17.82-11.7-9.18z" class="au"/><path d="m458.29 370.37-8.1 9.26 17.51 5.13 3.78-8.33-7.17-3.81-6.02-2.25z" class="bc"/><path d="m467.7 384.76 15.34-4.66-8.64-12-5.65 10.8-1.05 5.86z" class="ai"/><path d="m435.99 370.37 32.76 8.53 4.59-15.65-6.66-19.69-30.69 26.81z" class="ba"/><path d="m466.68 343.56 30.66 26.16-28.59 9.18-2.07-35.34z" class="p"/><path d="m481.03 399.1 3.01 12.28h2.53l1.34-14.35-6.88 2.07z" class="au"/><path d="m487.36 402.94-15.28-3.84 14.09-13.86 3.53 8.85-2.34 8.85z" class="ba"/><path d="m486.17 385.24 14.84 11.79-13.65 5.91-1.19-17.7z" class="p"/><path d="m145.15 403.7 3.95-19.26-8.18-.71 1.19 19.97h3.04z" class="au"/><path d="m152.9 382.54 6.07 7.23-11.76 2.75-1.91-8.49 7.6-1.49z" class="bc"/><path d="m147.21 392.52-16.94-2.36 5.69-8.87 12.09 7.64-.84 3.59z" class="ai"/><path d="m148.05 388.93 23.37-6.39-26.02-18.97-4.48 13.24 7.13 12.12z" class="ba"/><path d="m145.4 363.57-25.26 18 27.91 7.36-2.65-25.36z" class="p"/><path d="m397.59 401.57-10.7-21.4 20.06 21.4-5.96-29.32 16.83 29.32 7.35-28.87 3.85 28.87 15.04-17.49-5.58 17.49h-40.89zM578.16 384.16h39.56l8.81-11.87-15.87 11.87 3.41-19.72-13.19 19.72-8.52-26.1-2.28 26.1-7.84-19.11 1.47 19.11-11.55-11.38 6 11.38zM767.28 372.67h28.48l5.45-15.44-13.5 15.44-10.18-19.64 3.13 19.64-10.87-11.75 3.11 11.75-12.16-8.46 6.54 8.46zM800.82 391.96h27.13l5.77-16-14.1 16-1.34-24.41-10.21 24.41-14.75-14.73 7.5 14.73zM50.28 391.2h29.14l6.73-17.26L71.6 391.2l-5.09-19.32-2.91 19.32-7.2-12.78 1.15 12.78-13.08-9.63 5.81 9.63z" class="al"/></g><g id="g"><path d="m212.48 282.12-15.29-1.87-1.82 5.28 18.91 6.01-1.8-9.42z" class="be"/><path d="m250.23 355.66 9.69-1.92 2.26-5.18 3.99 3.94 7.65-1.52 2.43-4.98 8.07 2.9 27.19-5.39-17.89-54.35-17.19-1.53-33.38 17.01-2.07 22.78 9.25 28.24z" class="az"/><path d="m253.76 303.98-3.53 51.68-17.47-3.16-2.19-4.97-4.59 3.75-3.35-.61-1.31-1.68-3.13.88-4.85-.88-4.02-3.56-4.52 2.01-5.81-1.05 12.22-48.65 21.27-7.61 21.28 13.85z" class="be"/><path d="m196.71 248.75 14.5 48.99 42.55 6.24-4.61-55.67-52.44.44z" class="at"/><path d="m244.93 259.32 8.83 44.66 21.2-7.47 18.66-7.35-4.23-43.3-44.46 13.46z" class="be"/><path d="m222.4 254.38 14.14 47.08 1.56 2.52 2.8-1.88-8.14-45.45-4.02-4.55-6.34 2.28zM221.72 299.28l-4.92-34.13 9.77 34.84-3.05 1.15-1.8-1.86z" class="l"/><path d="m226.57 299.99-13.23 49-8.54-1.55 16.92-48.16 4.85.71zM240.9 302.1l-8.14 50.4-6.78-1.22 10.56-49.82 4.36.64zM226.57 323.24l-8.38 26.63 4.44.8 3.94-27.43zM253.76 258.18l9.99 42.28 3.66 2.33 3.19-4.74-4.43-41.47-3.44-2.65-8.97 4.25z" class="at"/><path d="m263.75 300.46 10.07 50.52 10.5-2.08-13.72-50.85-6.85 2.41zM259.92 353.74l-2.78-50.95 9.03 49.71-6.25 1.24z" class="be"/><path d="m196.71 248.75 48.22 10.57 36.99-4.78 7.47-8.68-42.62-15.68-34.95 5.35-15.11 13.22z" class="az"/><path d="m210.1 243.26 34.83 10.67 36.15-7.07-13.07-6.62-32.04-4.71-25.87 7.73z" class="be"/><path d="m225.84 243.2 17.52-4.21 17.37 5.74-17.68 5.21-17.21-6.74z" class="az"/><path d="m237.64 243.16 6.61-1.47 4.67 2.78-8.02 2-3.26-3.31z" class="be"/><path d="m244.25 241.69 25.03-8.34 27.85 13.51-5.98 43.27 11.8 27.36 8.56 26.02-45.34 8.99 8.71-38.6-11.13-13.44 2.42-43.88-23.12-6.64 1.2-8.25z" class="m"/></g><g id="h"><path d="m675.39 344.61-6.13 16.47h12.58l2.63-11.01-6.07-5.46h-3.01zM640.41 341.29l-3.5 11.92h-13.34l8.9-17.69 4.75-1.88 3.19 7.65zM561.43 344.7l-7.44 17.47h13.49l3.39-8.48-4.58-8.99h-4.86zM536.27 344.86l-3.85 11.49h-13.84l8.88-17.11h5.98l2.83 5.62z" class="n"/><path d="m682.72 221.94 7 16.17-16.1 4.83 1.11-10.5 7.99-10.5z" class="o"/><path d="m477.52 137.35-11.69-4.58 2.81 12.85 11.57 10.15 8.49-1.31-.93-11.3-10.25-5.81z" class="be"/><path d="m499.09 147.85 2.81-11.41-21.01-21.7-.63 22.83 9.9 16.89 8.93-6.61z" class="be"/><path d="m480.89 114.74 10.44 36.82-3.56 1.71-10.25-15.92 3.37-22.61z" class="at"/><path d="m546.2 293.39-9.93 51.47-8.81-5.62 5.98-54.09 7.03-4.45 5.73 12.69z" class="be"/><path d="m536.07 245.78-2.63 39.37 12.76 8.24 6.82-4.02-.45-20.01-16.5-23.58z" class="l"/><path d="m648.8 285.24-8.39 56.05-7.94-5.77 1.65-46.36 2.94-8.46 11.74 4.54z" class="be"/><path d="m616.14 271.68 17.98 17.48 14.68-3.92-3.84-11.69-9.79-9.75-19.03 7.88z" class="at"/><path d="m644.96 273.55 28.3 22.77 9.46 2.96 7.2-14.82-19.98-25.36H656.5l-11.54 14.45z" class="az"/><path d="m553.02 289.37 8.41 55.33 9.44 8.99-2.2-60.76-6.35-13.19-9.3 9.63z" class="be"/><path d="m536.07 245.78 16.95 43.59 15.65 3.56 9.77-23.23-16.1-16.15-26.27-7.77zM620.36 244.19l28.44 13.97-32.66 13.52-37.7-1.98-12.15-15.79 6.08-15.8 23.69-5.46 24.3 11.54z" class="at"/><path d="m648.94 196.17 5.59 4.27 3.72 8.21 9.19 1.63 15.28 11.66-31.99 22.55-30.37-.3v-17.92l28.58-30.1z" class="az"/><path d="m599.1 202.88 7.31-.98 8.25.14 9.31-2.51 24.97-3.36-28.58 48.02-47.99-6.08-.31-13.66 27.04-21.57z" class="be"/><path d="m545.87 192.25 11.39 2.27 8.28 4.81 8.28-1.5 25.28 5.05-26.73 35.23-12.76 10.64-23.54-2.97-.15-31.36 9.95-22.17z" class="az"/><path d="m499.09 147.85 23.39 22.2 2.43 8.07 8.53 2.33 12.43 11.8-9.8 53.53-29.62-51.03-7.36-46.9z" class="be"/><path d="m499.09 147.85 36.98 97.93-34.17-38.25-15.98-25.23 13.17-34.45z" class="at"/><path d="m493.84 171.31 8.06 36.22-12.94-14.47-1.19-15.62 6.07-6.13z" class="l"/><path d="m499.09 147.85-46.52 10.44-20.38 28.08 2.88 10.01 7.14 2.95 29.31-17.03 27.57-34.45z" class="az"/><path d="m432.19 186.37 10.02 12.96-9.17 3.06-2.83-8.01 1.98-8.01z" class="o"/><path d="m442.21 199.33 46.75-6.27 10.13-45.21-56.88 51.48z" class="be"/><path d="m432.19 186.37-8.49 7.87 9.34 8.15-.85-16.02z" style="fill:#454d5d;stroke-width:0"/><circle cx="458.31" cy="170.83" r="3.95" style="fill:#2e3544;stroke-width:0"/><path d="m536.07 245.78 42.37 23.92-6.07-31.59-36.3 7.67z" class="be"/><path d="m644.96 273.55-28.82-1.87 20.92-17.62 7.9 19.49z" class="l"/><path d="m620.36 244.19 24.6 29.36 24.98-14.45 12.78-37.16-62.36 22.25zM689.92 284.46l-5.45 65.61-9.08-5.46-2.13-48.29 16.66-11.86z" class="be"/><path d="m522.48 170.05-2.81 7.56 5.46 6.89 8.31-4.05-10.96-10.4zM525.17 192.25l6.34-2.73 2.97 6.15-6.38 2.5-2.93-5.92zM527.64 206.15l3.42 3.64-3.87 2.28-2.28-3.87 2.73-2.05zM614.66 214.8l5.02 5.24 6.37-5.47-6.6-5.46-4.79 5.69zM598.72 215.71l8.43 2.51-2.28 7.52-7.52-2.96 1.37-7.07zM656.81 243.28l3.87-7.29 6.84 5.47-3.88 8.42-6.83-6.6z" class="o"/><path d="m551.11 212.07 4.78-3.19 4.78 3.87-5.01 4.33-4.55-5.01zM566.6 209.11l8.42-1.6 3.19 6.38-8.65 2.51-2.96-7.29zM643.14 218.9l6.61-3.41 4.78 4.32-5.47 5.24-5.92-6.15zM557.26 194.52l4.46 9.57 9.15-1.7 2.95-4.56-16.56-3.31zM654.53 200.44l-2.99 7.09 7.09 5.5 8.81-2.75-12.91-9.84z" class="as"/><path d="m606.41 201.9 4.09 4.83 10.43-2.64 3.04-4.56-17.56 2.37z" class="o"/></g><g id="i"><path d="m359.92 262.72-8.51 4.23-11.71 5.94 4.44 9.34 13.56 1.82 8.36-13.89-1.99-5.7-4.15-1.74z" class="ba"/><path d="m366.06 250.7 12.97 2.85 1.91 13.4-14.88 3.21-2.64-3.21-1.17-5.22 3.81-11.03z" class="z"/><path d="m378.08 242.94-2.08 2.92-.61 1.52-9.33 22.78 4.73 2.16 1.82-5.48 7.57-19.98.76-1.99-2.86-1.93z" class="ac"/><path d="m382.75 250.28 1.68 3.65-1.37 1.61.58 1.53 2.08 8.8-4.78 4.29-8.33-3.32-.23-9.59 1.12-2.22 4.8-3.2 4.45-1.55z" class="s"/><path d="m372.38 257.25-.05-2.41 1.84-3.01h4.13l-5.92 5.42z" class="z"/><path d="m359.92 262.72 2.58-13.37 7.56-3.49 8.24 5.97-5.97 3.01-4.01-2.48.65 10.7-5.55 3.89-3.5-4.23zM397.98 345.86v19.96h19.2l14.05-5.63-19.53-15.96-10.91-6.92-2.81 8.55z" class="s"/><path d="m417.18 365.82 24.64-12.94-6.82 12.94h-17.82z" class="z"/><path d="M337.54 359.76v18.21h15l11.53-1.26 1.1-5.07-12.71-19.75-10.33-5.08-4.59 12.95z" class="s"/><path d="m352.54 377.97 18.19-12.66 2.41 12.66h-20.6z" class="z"/><path d="m342.57 240.78 8.84 26.17-37.54 10.72-24.17 3.85-.68-23.39 5.02-32.55 38.92 11.14 9.61 4.06z" class="ba"/><path d="m351.41 266.95-9.44 22.21-19.29 6.09-15.88 5.89-6.8-1.93-10.61-23.67 62.02-8.59z" class="p"/><path d="m335.77 250.7-18.99-.74-6.32-12.48 1.51-4.79 20.99 4.03 2.81 13.98z" class="s"/><path d="m301.06 292.62-3.45 12.43-22.65-8.54 7.59-45.81 8.85 8.62 9.66 33.3z" style="fill:#648e43;stroke-width:0"/><path d="m342.13 223.31 34.86-6.09-7.48-65.67-12.86-13.99-11.71-3.25-14.35 5.74-12.74 8.2 10.69 80.73 13.59-5.67z" class="s"/><path d="m351.75 164.56.18 7.09 2.55 9.77 13.62-17.7-6.74-2.51-8.43.86-1.18 2.49zM347.74 164.5l-1.49-2.22-7.31 1.09-7.23 3.49 10.89 8.87 9.09 14.81-1.15-17.84-2.8-8.2zM326.73 151.49l3.66 76.25 2.57 8.98-3.13 4.55-19.37-3.79-13.33-22.08 10.06-29.32 19.54-34.59z" class="z"/><path d="m346.25 162.28-8.07-.79-6.47 5.37 14.54-4.58zM352.93 162.07l7.46-2.5 7.71 4.15-15.17-1.65z" class="av"/><path d="m320.14 227.21 12.82 9.51 9.17-13.41-21.99 3.9z" class="q"/><path d="m367.91 199.33-13.62 4.25-15.05-.92 11.85 6.55 8.36-1.32 8.46-8.56z" class="y"/><path d="M363.32 171.12c-1.79-.35-3.51.76-3.86 2.55s.82 3.52 2.61 3.87 3.58-.81 3.93-2.6-.89-3.47-2.68-3.82ZM340.52 174.34c-1.79-.35-3.59.86-3.94 2.66-.35 1.79.88 3.53 2.67 3.88s3.52-.82 3.87-2.61c.35-1.79-.81-3.58-2.6-3.93Z" class="bd"/><path d="m367.91 199.33-6.25.61-7.29-.87-7.6 2.57-7.53 1.02 15.54 1.86 13.13-5.19z" class="ao"/><path d="m347.74 164.5 3.95 26.04 2.45.6 1.78-1.04-4.17-25.54-4.01-.06z" style="fill:#e8cab6;stroke-width:0"/><path d="m355.92 190.1-1.8 4.03-2.43-3.59 4.23-.44z" class="q"/><path d="m368.83 146.52-1.04-7.13-25.16-19.46-4.43 13.25 6.74 1.13 10.81 6.77 2.89 3.38 3.91 1.84 6.28.22z" class="ah"/><path d="m342.63 119.93-40.05 5.2-18.48 26.25-1.55 8.05 17.74 6.96 26.44-14.9 6.86-5.7 11.35-11.48-2.31-14.38z" class="u"/><path d="m326.05 151.51-11.16 1.59-11.87 1.78-12.22 1.75-11.8 1.74-15.25 60.48 58.12-60.56 4.18-6.78z" class="ad"/><path d="m320.29 174.89-23.41 46.05-30.71 24.7-19.4-15.46 18.72-18.23 56.38-53.66-1.58 16.6z" class="u"/><path d="m316.26 176.71-50.09 68.93 25.23 13.68 12.09-15.61 5.34-32.36 7.43-34.64z" class="ad"/><path d="m321.87 158.29-5.61 18.42-5.75 32.65-11.25 23.78-7.86 26.18 13.17 7.15 7.63-37.54.52-18.6 9.89-36.41 4.12-22.43-5.37 2.16.51 4.64z" class="ah"/><path d="m322.68 173.93-6.42 2.78-3.96 13.28 3.73.67 4.32-4.09 2.33-12.64z" class="ao"/><path d="m320.35 186.57-8.05 3.42-2.88 9.65 3.56 1.94 5.47-4.88 1.9-10.13z" class="y"/><path d="m318.45 196.7-9.03 2.94-3.28 10.71 3.99 1.51 6.39-4.91 1.93-10.25z" class="ao"/><path d="m316.52 206.95-10.38 3.4-3.56 11.85 3.38.9 8.39-4.92 2.17-11.23z" class="y"/><path d="m314.35 218.18-11.77 4.02-3.32 10.94 12.94-4.21 2.15-10.75z" class="ao"/><path d="m374.71 144.58-6.92-5.19-5.24 6.91 7.02 5.26 5.14-6.98z" class="v"/><path d="m362.55 146.3-6.8-5.22-5.18 6.92 7.03 5.27 4.95-6.97z" class="af"/><path d="m350.57 148-6.71-5.32-5.13 6.99 6.91 5.18 4.93-6.85z" class="v"/><path d="m338.73 149.67-6.75-5.15-5.25 6.97 6.97 5.19 5.03-7.01z" class="af"/><path d="m326.73 151.49-6.7-5.38-5.14 6.99 6.98 5.19 4.86-6.8z" class="v"/><path d="m314.89 153.1-6.61-5.25-5.26 7.03 7.05 5.14 4.82-6.92z" class="af"/><path d="m303.02 154.88-7.05-5.14-5.17 6.89 6.93 5.3 5.29-7.05z" class="v"/><path d="m290.8 156.63-6.7-5.25-5.1 6.99 6.74 5.18 5.06-6.92z" class="af"/><path d="m300 299.21-10.61 28.21 21.07-3.07 31.51-35.19L300 299.21z" class="am"/><path d="m274.96 296.51 35.5-8.88 1.83 9.03-6.15 6.13-12.25 12.66-18.93-18.94z" class="ba"/><path d="m293.89 315.45 22.67-16.51 6.12-9.95-12.22-1.36-16.57 27.82z" class="p"/><path d="m310.46 287.63 9.07-16.26 8.44 8.37 3.95 10.28-15.36 8.92-6.1-11.31z" class="z"/><path d="m319.53 271.37 18.01 5.21 2.16 9.87-7.78 3.57-8.07-12.15-4.32-6.5z" class="s"/><path d="m306.8 314.75 17.05-36.88 5.77 6.18 1.52 8.53-16.79 25.65-7.55-3.48z" style="fill:#e1ce7f;stroke-width:0"/><path d="m323.85 277.87 42.21-7.71 32.03-16.23 12.87 7.8-22.91 19.79-50.51 6.29-7.92-3.76-5.77-6.18z" class="aj"/><path d="m380.94 272.89 30.02-11.16-10.49 18.01-12.42 23.05-22.88 7.91-9.25-9.56 25.02-28.25z" class="ag"/><path d="m380.94 272.89-15.77 37.81-9.25 3.2v-12.76l17.04-25.29 7.98-2.96z" style="fill:#af7546;stroke-width:0"/><path d="m329.62 284.05 35.55-6.72 2.74 4.19-14.1 27.82-7.56 5.57-31.9 3.32 15.27-34.18z" style="fill:#9f7928;stroke-width:0"/><path d="m365.17 277.33-18.92 37.58 9.67-1.01 17.04-38.05-7.79 1.48z" style="fill:#9b6533;stroke-width:0"/><path d="m366.06 270.16 6.9 5.69-.35-9.01-6.55 3.32z" class="ab"/><path d="m289.39 327.42 52.58-38.26 3.2 42.2-7.63 28.4-32.45-2.77-15.7-29.57z" class="t"/><path d="m341.97 289.16 3.2 50.19 9.45 15.89 32.76-20.04 13.09-55.46-58.5 9.42z" class="bg"/><path d="m341.97 289.16 12.65 66.08-17.08 4.52 4.43-70.6zM354.62 355.24l45.85-75.5 11.23 64.49-57.08 11.01z" class="ac"/><path d="m384.43 253.93-11.97 6.68 11.18-3.54.79-3.14z" class="z"/><path d="m364.65 230.02 11.35-3.04 3.05.77 1.89-2.09 8.94 2.78.85 1.97 4.21-.39 5.98 6.7-.32 1.66 4.37 2.89-12.12 5.35-2.54-.72-2.26 2.85-7.87-1.89-1.13-1.95-3.05.95-6.89-9.62v-2.41l-4.46-3.81z" class="ab"/><path d="m388.05 248.75-3.24-11.1 8.04 8.97-4.8 2.13zM404.97 241.27l-20.16-3.62 16.11-.93 4.05 4.55zM394.94 230.02l-10.13 7.63 5.07-9.21 5.06 1.58zM380.94 225.66l3.87 11.99-8.81-10.67 4.94-1.32zM364.65 230.02l20.16 7.63-15.7-1.41-4.46-6.22zM376 245.86l8.81-8.21-4.63 9.21-4.18-1z" class="ag"/><path d="m379.05 235.47 8.12-2.12 3.32 5.32-4.5 3.02-4.42-1.02-2.52-5.2z" class="aj"/></g></svg>