<svg xmlns="http://www.w3.org/2000/svg" id="a" viewBox="0 0 900 420"><defs><style>.j{fill:#28835c}.aa,.ab,.ac,.ae,.af,.ag,.ah,.aj,.ak,.al,.am,.an,.ao,.ap,.aq,.ar,.as,.at,.av,.aw,.ax,.ay,.az,.ba,.bc,.bd,.j,.k,.n,.o,.p,.q,.r,.s,.u,.v,.w,.x,.z{stroke-width:0}.aa,.ab,.ac,.ae,.af,.ag,.ah,.aj,.ak,.al,.am,.an,.ao,.ap,.aq,.ar,.as,.at,.av,.aw,.ax,.az,.ba,.bc,.bd,.j,.k,.n,.o,.p,.q,.r,.s,.u,.v,.w,.x,.z{fill-rule:evenodd}.k{fill:#2d9368}.n{fill:#e8cab6}.o{fill:#709d52}.p{fill:#b8c744}.q{fill:#c3987b}.r{fill:#3d4554}.s{fill:#74665b}.u{fill:#68707f}.v{opacity:.15}.am,.aw,.v{fill:#1d2432}.w{fill:#787f8d}.x{fill:#5f6878}.z{fill:#576071}.aa{fill:#454d5d}.ab{fill:#f4faf7}.ac{fill:#e6e97c}.ae{fill:#99c26d}.af{fill:#5a753d}.ag{fill:#237250}.ah{fill:#89909b}.aj{fill:#fff}.ak{fill:#a0cf7e}.al{fill:#dfbda5}.am{opacity:.2}.an{fill:#70bf9d}.ao{fill:#267a56}.ap{fill:#86b264}.aq{fill:#648e43}.ar{fill:#5bb68f}.as{fill:#309b6e}.at{fill:#8b6651}.av,.ay{fill:#232a38}.aw{opacity:.1}.ax{fill:#216a4b}.az{fill:#47ad82}.ba{fill:#3da87b}.bc{fill:#2b8b62}.bd{fill:#4b5464}</style></defs><g id="b"><path d="m412.12 10.24-68.45 96.01-.31 9.87-11.42 6.58-167.97 50.69-67.64 55-35.29 28.63-11.89 71.15 194.75-11.28 177.54 3.02 220.94-27.22 114.63 3.17 60.76-35.57-53.56-42.38-66.76-32.04-146.61-43.93-107.78-69.62-30.94-62.08z" class="ar"/><path d="m412.12 10.24 19.58 71.12-39.27 15.22 158.41 45.36-138.72-131.7zM331.94 122.7l32.24 9.86-20.51-26.31-11.73 16.45zM330.16 160.12l40.9-14.87 46.52-24.55-53.4 11.86-34.02 27.56zM163.56 235.29l39.28-20.64 41.15-17.32-44.31 58.38-9.89-18.93-26.23-1.49zM471.12 181.53l28.95 5.59-51.55 37.47-40.32 12.28-54.57 22.62 117.49-77.96zM428.72 266.41l54.97-40 40.63 50.57-117.23 32.3-34.05-31.48 72.16-37-16.48 25.61zM332.87 170.07l54.87-9.11 15.24.82-26.02 15.45-44.09-7.16z" class="as"/><path d="m384.92 172 22.17 19.12-44.72-16.92 22.55-2.2z" class="as"/></g><g id="c"><path d="m644.75 186.74-48.31 87.21 58.85 10.82 18.61-47.85-9.86-38.57-3.64-19.49-15.65 7.88z" class="an"/><path d="m664.04 198.35 14.94-16.82 37.06 80.55-60.75 22.69 8.75-86.42zM647.62 222.12l-6.61 33.19-5.84 25.76-13.28-2.44 25.73-56.51z" class="az"/><path d="m677.54 206.47 20.29 54.29 3.15 6.94-12.14 4.54-11.3-65.77zM675.47 234.1l6.48 40.71-5.8 2.17-.68-42.88z" class="as"/><path d="m641.23 193.1 21.59 17.28 20.58-19.26-20.14-1.31-22.03 3.29z" class="v"/><path d="m625.73 189.54 10.03 2.31 4.35-1.46 1.12 2.71 6.39 1.47 3.04-1.47 3.04 2.87 10.34 2.38v-65.89h-13.46l-24.85 57.08z" class="an"/><path d="m664.04 198.35 19.36-7.23 1.09-4.36 4.77 2.17 8.19-3.06-29.15-55.6-9.65 8.72 5.39 59.36zM641.23 193.1l6.39-25.96-11.86 24.71 5.47 1.25zM647.62 194.57l2.96-16.3 3.12 17.7-6.08-1.4z" class="az"/><path d="m683.4 191.12-9.5-26.81 15.36 24.62-5.86 2.19z" class="as"/><path d="m649.19 135.66 10.59 15.75 10.91-16.58-9.79-2.37-11.71 3.2z" class="v"/><path d="m658.65 138.99-18.54-6.53 22.2-64.03 3.07 50.11-6.73 20.45z" class="an"/><path d="m658.65 138.99 20.79-7.18-17.13-63.38-3.66 70.56z" class="az"/><path d="m747.29 221.97-16.3 62.66-7.65-3.56-1.93-5.57-5.37 2.18-24.79-11.53 41.92-56.92 14.12 12.74z" class="an"/><path d="m737.9 224.21 11.56-12.66 44.32 60.69-24.02 4.74-7.38-3.17-3.55 5.32-3.23.64-3.09-1.36-1.65 2.3-19.87 3.92 6.91-60.42z" class="az"/><path d="m725.38 219.8 11.05 17.3 19.17-17.13-15.11-7.45-15.11 7.28z" class="v"/><path d="m737.9 224.21-7.85-2.77-1.75-3.05-2.92 1.41-3.97-1.41v-2.32l-2.97 1.28-8.95-3.17 26.06-47.04h9.4l-7.05 57.07z" class="an"/><path d="m739.26 175.07 5.69-7.93 34.81 47.04-15.55 3.73-6.21-2.63-2.4 4.69-17.7 4.24 1.36-49.14z" class="az"/><path d="m732.32 172.96 6.68 11.67 9.78-12.31-9.52-5.18-6.94 5.82z" class="v"/><path d="m739.26 175.07-6.94-2.11-1.33-2.75-1.8 1.8-4.82-1.47 11.38-55.18 9.2 36.05-5.69 23.66z" class="an"/><path d="m739.26 175.07 9.52-2.75.59-3.13 3.5 1.95 5.96-1.72-23.08-54.06 3.51 59.71zM725.38 219.8l7.62-18.62-2.95 20.26-4.67-1.64zM718.44 217.35l5.93-10.88-2.96 11.92-2.97-1.04zM732.32 172.96l1.69-21.55-4.82 20.6 3.13.95zM727.23 239.57l-3.89 41.5-7.3-3.4 11.19-38.1z" class="az"/><path d="m755.6 219.97-5.78-28.12 14.39 26.06-8.61 2.06zM755.6 240.4l14.16 36.58-10.93 2.15-3.23-38.73zM746.12 238.27l9.48 41.5-4.74.94-4.74-42.44zM748.78 172.32l-3.83-15.35 7.92 14.17-4.09 1.18z" class="as"/><path d="m70.28 274.48 3.29 37.42 6.24-.61 1.52-57.72-11.05 20.91z" class="bc"/><path d="m14.36 257.65 57.03-72.68 19.34 1.85-20.45 87.66-12.97-3.9-4.86-6.6-6.25 3.26-31.84-9.59z" class="an"/><path d="m85.11 196.47 8.34-10.82 32.77 77.58-16.26 3.27-3.48-3.99-2.66 5.23-6.74 1.35-7.54-1.35-2.94 3.46-16.32 3.28 14.83-78.01zM57.31 270.58l5.85-42.03-16.96 38.69 11.11 3.34z" class="az"/><path d="m103.82 267.74-9.25-51.59 15.39 50.35-6.14 1.24zM97.08 269.09l-7.54-26.13-2.94 28.24 10.48-2.11z" class="as"/><path d="M66.79 190.83 82.54 210l13.52-18.18-15.48-4.37-13.79 3.38z" class="v"/><path d="m50.9 184.54 11.53 4.56 1.93-1.89 2.43 3.62 3.15 1.25 1.86-1.92 1.25 3.15 12.06 3.16-2.29-57.31-9.46 1.64-22.46 43.74z" class="an"/><path d="m85.11 196.47 10.95-4.65 1.02-4.37 4.57 2 9.91-4.21-26.85-44.63-6.04 7.44 6.44 48.42zM66.79 190.83l3.15-22.2-7.51 20.47 4.36 1.73zM69.94 192.08l3.72-11.75-.61 12.98-3.11-1.23z" class="az"/><path d="m96.06 191.82-4.07-18 9.66 15.63-5.59 2.37z" class="as"/><path d="m71.22 144.96 7.83 10.96 8.39-10.78-6.11-4.53-10.11 4.35z" class="v"/><path d="m59.53 140.11 8.3 3.44 3.42-.91-.03 2.32 7.45 3.09 9.2-27.21-.09-40.94-28.25 60.21z" class="an"/><path d="m78.67 148.05 8.77-2.91 1.85-3.27 1.84 2.04 5.95-1.97-9.3-62.04-9.11 68.15zM71.22 144.96l4.81-24.12-8.2 22.71 3.39 1.41z" class="az"/><path d="m87.44 145.14-.84-17.62 4.53 16.39-3.69 1.23z" class="as"/></g><g id="d"><path d="m85.11 223.32-6.05 48.15 21.93 1.68 1.98-37.01 3.68-10.31-21.54-2.51z" class="aa"/><path d="m85.11 223.32 16.77 7.57 28.46-5.95-11.52-23.55-33.71 21.93z" class="x"/><path d="m73.6 211.07 11.51 12.25 21.54-15.64-10.47-14.69-12.66-.95-9.92 19.03z" class="bc"/><path d="m85.11 223.32 29.47-11.25-.59-7.43-15.72 2.63-13.16 16.05zM87.95 196.8l-7.92 12.18 5.08 5.31 6.43-6.61-5.75 2.42-2.32-2.42 8.07-9.92-3.59-.96z" class="ag"/><path d="m159.19 236.59-8.59 16.71-.87 26.48 18.96-4.29-5.13-40.2-4.37 1.3z" class="aq"/><path d="m101.88 230.89-9.65 36.07 12.98.8 3.31-5.12-.83-23.76-5.81-7.99z" class="o"/><path d="m145.12 229.07 10.11 3.53 3.76 7.92-.92 14.06-23.92 4.18-26.61-6.58.15-18.24 3.74-6.13 9.39-2.87 24.3 4.13z" class="o"/><path d="m184.8 142.75-2.66 67.35-29.16 1.97-11.43 15.18-18.5-5.83-5.61-10.54-5.1-48.89 44.78-25.23 27.68 5.99z" class="al"/><path d="m145.12 229.07-8.5-16.06-6.91-39.1-17.37-11.92 2.24 50.08 6.24 12.87 21.29 10.65 3.01-6.52zM178.33 165.24l-21.86 19.39-17.61-16.7 7.63-4.26 7.73 1.69 5.95 3.5 3.58-4.29 6.51-2.79 8.07 3.46z" class="q"/><path d="m154.22 165.36 2.25 19.27 3.86 1.13 3.26-1.51.16-19.68-9.53.79z" class="n"/><path d="m156.47 184.63 3.75 3.32 3.37-3.7-7.12.38zM152.98 212.07l-26.3 1.54 18.44 15.46 7.86-17z" class="at"/><circle cx="146.26" cy="175" r="2.69" class="ay"/><circle cx="171.38" cy="173.43" r="2.69" class="ay"/><path d="m154.22 165.36-2.24-4.15-12.89 3.36-.23 3.36 15.36-2.57zM163.75 164.57l1.46-4.04 12.22 1.8.9 2.91-14.58-.67z" class="r"/><path d="m184.8 142.75-55.09 31.16-15.72-15.06-1.82-25.83 50.09-8.07 3.96 8.67 9.73 2.14 8.85 6.99z" class="bd"/><path d="m129.71 173.91-17.54-40.89-21.97 54.93 39.51-14.04z" class="r"/><path d="m162.26 124.95-42.09 26.73-3.96 6.46 8.77 4.75 50.97-27.13-13.69-10.81z" class="x"/><path d="m120.17 151.68-43.5 33 11.28 12.12 25.28-15.07 11.75-18.84-4.81-11.21z" class="bd"/><path d="M124.98 162.89 87.95 196.8l10.32 10.47 15.67-9.51 15.77-23.85-4.73-11.02z" class="r"/><path d="m129.71 173.91-15.13 38.16-16.31-4.8 31.44-33.36z" class="bd"/><path d="m148.73 196.72 7.59 4.67 9.42-.49 4.89-5.01-21.9.83z" class="as"/><path d="m160.39 192.98-7.03 1.79-7.66.38 3.03 1.57 12.11 1.34 9.79-2.17 1.8-1.79-7.11.15-4.93-1.27z" class="ax"/><path d="m158.07 254.58-8.82 40.51-38.72-1.94.53-3.58-3.52-37.39 50.53 2.4z" class="af"/><path d="m142.11 235.59 1.46 18.3-2.58 3.06-3.37-3.34-1.76-21.15 6.25 3.13z" class="ap"/><path d="m137.62 253.61-4.99 40.76h3.3l7.64-40.48-5.95-.28z" class="o"/><path d="m155.23 232.6 8.33 2.69-5.49 19.29-2.84-21.98zM111.43 227.81l-9.55 3.08 6.64 31.75 2.91-34.83z" class="p"/><path d="m108.52 262.64 18.16 23.44-10.1 10.85-24.35-29.97 16.29-4.32z" class="aq"/><path d="m148.95 220.78 1.35 2.54-.9 3.07 3.58 1.96 2.25 4.25-12.91 5.68-3.46-2.14-1.27-3.17-4.64-.51-12.13-7.52 4.93-.73 4.59.73 2.27-1.74 16.34-2.42z" class="j"/><path d="m150.3 223.32-17.35 9.14 5.91 3.68 14.12-7.79-2.68-5.03zM137.16 230.24l-11.41-6.03 6.88-.89 4.53 6.92z" class="ag"/></g><g id="e"><path d="m204.38 194.64 41.41-7.9 22.33 8.79-41.31 12.24-22.43-13.13z" class="u"/><path d="m204.38 194.64 17.26 6.62 15.12 5.54 1.4 62.71-8.88 8.26-30.52-10.2.92-11.86 4.84-20.71-1.68-20.35 1.54-20.01z" class="bd"/><path d="m331.78 222.92-17.99 9.52.42-6.96 18.66-10.83-1.09 8.27z" class="aq"/><path d="m331.78 195.46 4.38 25.33-4.38 2.13-4.77-20.48-.87-4.99 5.64-1.99z" class="ap"/><path d="m300.6 217.58 5.43-16.32 13.98 15.03-4.63 10.36-9.35-.67-5.43-8.4z" class="q"/><path d="m322.29 220.79-6.91 5.86-2.45-7.89 4.55-1.77 4.81 3.8z" class="at"/><path d="m285.75 203.68 10.94 37.88-14.95 1.79-4.19-4.93 8.2-34.74z" class="ax"/><path d="m268.12 195.53 9.43 4.36 6.47 20.9-3.77 4.25 3.11 2.27-1.62 16.04-1.2 21.61-44.62 4.93-3.82-28.63-2.39-34.61 6.33-6.28 7.95-3.04 15.02 3.49 9.11-5.29z" class="ao"/><path d="m266.49 213.75 2.62 42.01-5.61 1.35-1.57-49.34 4.56 5.98z" class="ax"/><path d="m310.82 114.41 5.64 63.31-38.16 4.55-15.25 9.46-14.91-6.95-22.32-29.68 16.03-32.85 36.9-18 20.71 4.62 11.36 5.54z" class="al"/><path d="m269.33 187.88-7.51-3.66-5.84-68.86-18.27 6.89-11.89 32.85 5.49 12.77 3.93.98.8 10.01 7.95 18.47 19.73 3.93 4.4-5.73 1.21-7.65zM308.58 129.15l-25.64 23.61-18.05-18.7 6.25-5.83h6.41l6.58 5.08 3.89 3.44 2.09-4.19 4.79-5.68 6.13-1.64 7.55 3.91z" class="q"/><path d="m284.13 133.31-1.19 19.45 6.5 1.56 5.98-2.54-5.31-19.22-5.98.75z" class="n"/><path d="m282.94 152.76 6.24 4.25 6.24-5.23-12.48.98zM274.92 163.19l28.5-2.68-4.53 9.87-16.33 1.62-7.64-8.81z" class="at"/><path d="m281.13 165.37 17.45-1.7-1.35 3.91-13.25 1.27-2.85-3.48z" class="aj"/><path d="m278.3 182.27-28.11 3.22 17.93 10.04 10.18-13.26zM231.31 167.87l9.46-3.16-4.73 14.15-4.73-10.99zM229.71 157.01l5.16-2.62 1.89 7.29-7.05-4.67z" class="at"/><path d="m264.89 134.06-.64-2.54 6.58-5.83 6.57-.45.15 2.99-6.72 1.79-5.94 4.04zM294.9 126.88l.15-3.44 6.72-.74 7.78 4.33-.97 2.12-7.55-2.72-6.13.45zM256.6 122.7l-9.02 11.36 2.61 7.33 3.21 16.92-6.79 3.37-7.33-12.52-14.87-.88-2.77-13.32 19.13-19.6 15.83 7.34z" class="s"/><path d="m256.6 122.7-32.19 25.58 1.41 6.82 13.46-5.94 10.91-7.77 6.41-18.69z" style="fill:#5f5044;fill-rule:evenodd;stroke-width:0"/><circle cx="275.16" cy="140.49" r="3.14" class="ay"/><circle cx="299.83" cy="138.1" r="3.14" class="ay"/><path d="m299.46 110.91 3.73-19.09-42.61-12.56-2.32 7.21-10.68-5.35-8.97 1.28 1.34 23.55 16.03 9.41 43.48-4.45z" class="j"/><path d="m238.61 82.4-5.37 6.32-1.58 9.91-5.84-1.2-4.18 37.53 34.34-19.6-17.37-32.96zM260.58 79.26l29.27 35.51v3.46l-11.55 1.4-3.08-4.86-27.64-33.65 13-1.86z" class="ag"/><path d="m225.82 97.43 7.33 30.96 10.75-6.14-10.66-33.53-7.42 8.71z" style="fill:#1e6245;fill-rule:evenodd;stroke-width:0"/><path d="m247.58 99.42-25.94 35.54 34.96-12.26v-11.93l-9.02-11.35z" class="aa"/><path d="m251.12 108.55-10.62 9.51 1.35 4.19 12.19-6.16v-3.63l-2.92-3.91z" style="fill:#343c4b;fill-rule:evenodd;stroke-width:0"/><path d="m303.19 91.82-55.61 7.6 9.02 23.28 21.7-3.07 3.94-7.55 7.61 6.15 20.97-3.82-7.63-22.59z" style="fill:#51596a;fill-rule:evenodd;stroke-width:0"/><path d="m256.32 103.82 22.43-2.47-3.53 13.42-14.97 2.28-3.93-13.23zM282.45 100.79l16.93-2.69 4.71 12.79-13.68 1.68-7.96-11.78z" class="w"/><path d="m243.99 197.33 24.13-1.8-1.63 18.22-22.5-16.42z" style="fill:#bbbfc6;fill-rule:evenodd;stroke-width:0"/><path d="m282.85 220.79-10.98 1.33 1.2 5.68 10.29-.49-.51-6.52z" class="p"/><path d="m277.55 199.89 5.81 27.42 2.39-23.63-8.2-3.79zM224.93 204.63l11.11-4.26-5.18 39.47-5.93-35.21z" class="aq"/><path d="m296.69 222.92-14.95 20.43 20.03 7.8 13.61-24.5-18.69-3.73z" class="ao"/><path d="m296.69 222.92 13.37 13.3 5.32-9.57-8.36-5.12-2.63-4.54-3.79.59-3.91 5.34z" class="ax"/><path d="m316.5 216.99-2.61 43.77h-5.43l2.23-34.11.62-9.66h5.19z" class="s"/><path d="m300.6 193.49 19.12-4.59 1.47 6.63-2.07 4.84h-15.7l-2.82-6.88z" class="ac"/><path d="m319.72 188.9 12.06 6.56-4.77 6.98-7-1.18-2.47-2.91 2.18-9.45z" class="p"/><path d="m308.46 199.65 9.08-1.3 1.58 7.06-2.77 14.04-5.29 1.34-2.55-6.83-.05-14.31z" class="al"/><path d="m317.54 198.35 9.47 4.09-4.72 18.35-5.94-1.34 1.19-21.1zM308.51 213.96l-1.17-2.84-.03-3.35-3.89-7.4 5.04-.72 2.81 8.12-2.76 6.19z" class="q"/><path d="m300.6 217.58-3.22-8.01 6.04-9.2 7.85 7.4-3.93 3.35-3.34-1.2 3.02 11.61-6.42-3.95z" class="al"/><path d="m214.58 248.29 18.57 4.97.09-19.94-11.6-4.78-7.06 19.75z" class="ag"/><path d="m221.64 204.64-7.06 19.66 4.96 5.61 6.63-20.72-4.53-4.55zM247.58 213.6l2.16 18.84-5.95 4.43-1.94-19.88 5.73-3.39z" class="o"/><path d="m212.62 229.75 23.42 15.84 14.15-9.15-.45-4-11.16 6.27-24-14.41-1.96 5.45z" class="ap"/><path d="m237.78 230.49 2.72 28.26-7.35-5.49-3.87-22.77h8.5z" class="s"/><path d="m221.64 201.26-1.27 6.9 11.14 2.79 1.73-2.6v-2.38l-1.58-7.62-10.02 2.91z" class="ac"/><path d="m231.66 198.35 12.33 5.33-3.49 8.27-8.99-1 .15-12.6z" class="p"/><path d="m230.28 236.39-10.46-2.78-1.4-20.01 13.24-5.83-1.38 28.62z" class="q"/><path d="m231.66 207.77 15.92 5.83-4.09 20.18-13.21 2.61 1.38-28.62z" class="al"/><path d="m202.84 214.65 9.78 2.34-4.73 40.04-8.21-1.32 1.53-19.87 1.97-5.35-1.41-1.95 1.07-13.89z" class="u"/><path d="m212.62 216.99-10.85 11.55-.56 7.3 11.41-18.85z" class="aa"/></g><g id="f"><path d="m332.87 236.87-3.44 12.82-12.97 43 62.28 13.44 3.84-71.13-49.71 1.87z" class="w"/><path d="m375.86 243.35 2.88-6.25 29.46-.23 14.26 62.77L370.41 310l5.45-66.65zM348.14 239.17l5.96-2.3 4.33 3.85-10.83 61.44-15.66-4.42 3.11-26.71 13.09-31.86zM370.41 238.94l-6.78 25.92 3.39-27.76 3.39 1.84z" class="z"/><path d="m382.58 240.1 10.6 55.76 9.96-4.63-11.58-54.79-8.98 3.66z" class="bd"/><path d="m332.87 236.87 41.71-10.22 33.62 10.22-32.34 6.48-42.99-6.48z" class="ak"/><path d="m106.33 284.11 83.46.05-6.6 47.97-88.62-10.44 11.76-37.58z" class="u"/><path d="m179.22 292.69 19.54-12.56 43.09.16 11.69 41.96-70.35 9.88-3.97-39.44zM121.65 285.92l-2.98 26.53 8.06 13.03 3.86-38.51 3.17-3.7-12.11 2.65zM143.64 288.5l-1.61 15.11-1.19 23.53-10.25-1.21 11.44-41.16 1.61 3.73zM153.31 289.64l-4.22 38.47 8.98 1.06 6.72-43.14-11.48 3.61z" class="z"/><path d="m193.74 289.81 6.65 39.9 12.23-1.72-13.86-43.83-5.02 5.65zM211.36 286.33l10.42 40.38 19.21-2.7-13.59-40.86-16.04 3.18z" class="bd"/><path d="m106.33 284.11 92.43-16.54 43.09 12.72-62.63 12.4-72.89-8.58z" class="ak"/><path d="m217.07 301.97-120.5 29.56 54.41 26.91 37.03 3.11 37.03 3.72 40.48-2.69 10.59-2.95 136.01-1.83 27.53 10.24 81.27-22.31 65.99-20.58-25.14-27.41-80.27-19.97-85.56 18.79-112.7 23.81-66.17-18.4z" style="fill:#9a9fa9;fill-rule:evenodd;stroke-width:0"/><path d="m147.97 345.48-9.95-7.51L249.89 312l18.54-.43 4.49 7.46-124.95 26.45zM193.74 317.09l-76.28 12.62 12.33 4.13 63.95-16.75zM198.76 349.93l16.13 4.31 64.26-17.73-3.24-4.98-9.87 1.31-67.28 17.09zM511.14 281.72l23.05 7.68L426.76 310l-4.3-10.36 88.68-17.92zM548.19 294.36 431.7 323.51l7.95 6.48 108.54-35.63zM412.12 357.8l49.1-10.92-33.67 16.66-15.43-5.74zM561.77 297.74l9.16 3.6-66.6 28.65 10.38-10.32 47.06-21.93z" class="ah"/><path d="m217.07 301.97 16.08-48.71h63.5l-3.7 26.87 6.51 47.01-35.33-10.79-5.56-7.06-8.68 2.71-8.9-2.72-2.03-5.67-7.3 2.82-14.59-4.46z" class="u"/><path d="m289.19 260.76 7.46-9.34 32.78-1.73 16.45 62.49-46.42 14.96-10.27-66.38zM231.66 306.43l19.78-50.72-10.45 53.57-9.33-2.85zM265.04 257.53 249.89 312l14.24 4.35 9.63-57.65-2.19-2.99-6.53 1.82z" class="z"/><path d="m301.77 257.3 10.51 59.59 16.71-2.99-21.38-62.48-5.84 5.88zM316.46 253.26l16.41 58.31-11.48-59.67-3.85-.48-1.08 1.84z" class="bd"/><path d="m233.15 253.26 48.59-9.91 47.69 6.34-40.24 11.07-56.04-7.5z" class="ap"/><path d="m504.33 255.31 80.26 2.39-22.82 40.04-13.58-3.38-5.89-8.82-4.67 6.19-6.16-1.53-4.38-6.93-9.86 3.39-35.73-8.89 22.83-22.46z" class="w"/><path d="m567.23 266.87 24.79-11.76 48.99.2 9.57 33.1-88.81 9.33 5.46-30.87zM528.01 259.66l-10.78 27 14.24 3.54 10.83-27.91-2.06-4.59-12.23 1.96zM547.21 263.19l-9.58 28.54 10.56 2.63 4.36-33.6-5.34 2.43z" class="z"/><path d="m588.91 263.47 7.92 27.72 21.06-5.23-6.66-28.26-22.32 5.77zM617.89 258.93l8.92 32.26 6.76-.99-15.68-31.27z" class="bd"/><path d="m504.33 255.31 73.44-10.11 63.24 10.11-73.78 11.56-62.9-11.56z" class="ap"/></g><g id="g"><path d="m847.26 282.32-98.98 2.45-12.5 39.67 62.12 11.32 8.99-4.91 2.96 7.09 16.27 2.97 21.14-58.59z" class="w"/><path d="m835.08 293.19 7.84-10.76 19.69-5.69 13.38 52.97-8.88 1.99-4.5-1.99-2.78 3.63-6.08 1.36-4.08-3-5.56 5.17-17.99 4.04 8.96-47.72zM809.85 337.94l11.17-46.12-2.69-6.28-6.31 5.41-14.12 44.81 11.95 2.18zM801 289.88l-10.32 44.57 3.65-45.22 4.27-2.67 2.4 3.32z" class="z"/><path d="m839.92 286.19 4.19 50.68 9.64-2.17-8.92-50.14-4.91 1.63zM849.67 282.95l10.16 50.39 7.28-1.64-15.46-51.94-1.98 3.19z" class="bd"/><path d="m862.61 276.74-44.84-16.45-35.62 6.58-58.36 10.9 24.49 7 86.8 8.42 27.53-16.45z" class="ak"/><path d="m813.17 347.7-26.49 5.28-43.8-5.66 30.94-9.97 10.41-26.29 45.15 12.45 5.7-30.32 27.53-16.45 11.29 44.72 15.97 6.25-21.67 19.06-55.03.93zM813.17 368.04l-17.71 8.81-71.35 4.64 62.76-22.29 26.3 8.84zM650.58 376.4l-35.04-4.67 46.42-15.84 30.67 3.92-10.68 10.89-31.37 5.7zM671.96 399.84l-99.2 9.54 68.25-23.78 10.71-2.91 27.26 5.66-7.02 11.49zM443.06 397.94l-27.51-6.95-35.21 20.86 53.45-3.23 9.27-10.68zM537.35 385.22l-69.15 2.56 50.61-12.93 36.91.72 19.11 2.04-37.48 7.61zM275.04 374.73l-47.65 1.46 38.13-13.86 23.67 8.86-14.15 3.54zM165.79 381.68l-42.11 6.67 14.8-30.72 15.64.83 24.44 10.43-12.77 12.79zM440.33 321.23l-22.75 2.99-50.56 13.17 25.3 13.04-44.5 19.89 79.73-6.78 16.88-8.33 8.82-.77 19.31-25.52-32.23-7.69z" class="aw"/><path d="m549.48 321.47 12.29-23.73 167.59-8.34-26.45 70.26-17.59-4.38-2.12-6.34-4.22 4.76-4.08-1.01-6.68-10.05-7.82 6.44-110.92-27.61z" class="w"/><path d="m708.29 310.31 11.16-27.73 62.7-15.71 9.57 75.77-24.92 4.77-5.62-4.77-5.52 6.91-6.02 1.15-9.95-4.97-4.76 7.79-32.02 6.14 5.38-49.35zM632.07 297.74l-7.76 41.9-16.21-3.58 16.21-42.87 7.76 4.55zM669.47 300.75l-9.07 48.33 14.5 3.61 7.97-56.13-13.4 4.19zM687.19 308.13l-8.21 45.57 6.34 1.58 1.87-47.15z" class="z"/><path d="m734.93 353.52-11.14-56.96 5.57-7.16 20.28 61.3-14.71 2.82zM755.66 349.55l-12.88-62.65 8.87-9.13 15.15 69.64-11.14 2.14zM761.18 277.54l14.41 68.19-8.79-71.05-5.62-1.7v4.56z" class="bd"/><path d="m782.15 266.87-84.32-6.11-136.06 36.98 146.52 12.57 73.86-43.44z" class="ak"/><path d="m18.15 353.18 21.6-87.89 35.85-1.99-20.82 94.72-15.09-2-.91-6.2-10.39 4.71-10.24-1.35z" class="ah"/><path d="m64.99 269.58 3.96-5.89 29.23 1.71 23.66 54.34-64.25 6.33 7.4-56.49z" class="z"/><path d="m28.41 354.42 20.74-87.46-9.43 88.84-11.31-1.38z" class="x"/><path d="m73.79 268.47 5.82 59.52 8.72-1.7-10.46-58.33-4.08-2.56v3.07zM83.72 267.22l11.52 57.72 11.97-2.34-23.49-55.38z" class="bd"/><path d="m39.75 265.29 19.5-8.67 38.93 8.78-33.19 4.18-25.24-4.29z" class="ak"/><path d="m57.59 326.07 68.07 1.07-1.98 61.21-19.85-1.75-3.26-2.17-4.24 1.5-8-.71-8.88-1.13-2.58-9.13-10.26 7.49-19.92-2.54 10.9-53.84z" class="w"/><path d="m116.62 332.7 2.72-10.32 26.69-7.76 11.64 62.35-8.58 2.87-5.45-1.8-4.02 4.98-15.94 5.33-7.06-55.65zM75.3 328.06l-8.69 54.39 12.84 1.64 3.53-55.17v-2.85l-7.68 1.99zM89.2 329.62l-.87 55.6 8-54.8-3.01-3.28-4.12 2.48zM104.81 331.37l-8.48 54.56 7.5.67.98-55.23z" class="z"/><path d="m129.5 324.78 10.12 58.24 9.47-3.18-15.91-57.32-3.68-2.53v4.79zM121.46 329.72l12.3 55.26-8.1-57.84-1.98-1.07-2.22 3.65z" class="bd"/><path d="m57.59 326.07 37.46-15.49 50.98 4.04-29.41 18.08-59.03-6.63z" class="ap"/><path d="m531.44 321.47-9.93 34.81 53.32 21.33 14.08 5.08 5.83-30.61v-22.76l-63.3-7.85z" class="w"/><path d="m556.12 323.51-7.93 43.44 15.95 6.39 3.09-22.64 5.09-23.5-16.2-3.69zM552.12 324.68l-9.82 33.12 2.65-36.33 7.17 3.21zM584.59 337.39l14.06-12.71 53.95-9.62 11.44 49.89-16.42 3.88-6.68-3.88-5.6 6.78-13.45 3.17-4.05-5.66-2.3 7.16-26.63 6.29-4.32-45.3z" class="z"/><path d="m647.62 368.83-14.31-51-6.5 3.64 8.53 50.26 12.28-2.9zM613.35 321.47l8.54 53.43-6.35 1.5-13.23-49.2 11.04-5.73z" class="bd"/><path d="m531.44 321.47 31.44-10.6 15.95-5.79 32.39 6.11 41.38 3.87-68.01 22.33-53.15-15.92z" class="ak"/><path d="m453.25 331.53-13.6 36.51 10.22 7.07 6.46-3.85.91 8.94 10.96 7.58 21.38-27.6-15.88-16.96-20.45-11.69z" class="w"/><path d="m464.61 339.41-14.74 35.7 7.37 5.09 10.96-32.79-3.59-8zM567.23 350.7l7.6 26.91-15 1.43-11.64-4.64-9.61 6.67-29.52 2.81-8.37-6.57-9.61 8.29-22.88 2.18 8.43-26.02 28.36-11.06h62.24z" class="z"/><path d="m497.25 350.7-6.17 34.9 17.98-1.72-4.07-29.67-7.74-3.51zM514.93 350.7l6.58 31.99 2.81-32.29-9.39.3zM534.19 350.4l4.39 30.67 21.25-2.03-15.33-30.21-10.31 1.57z" class="bd"/><path d="m453.25 331.53 59.21-8.02 54.77 27.19-90.6 11.06-23.38-30.23z" class="ak"/><path d="m533.86 397.22 15.62 4.88 2.64-2.69 1.38 3.95 19.26 6.02 19.26-23.78-49.72-17.45-8.44 29.07z" class="w"/><path d="m577.77 390.99 20.88-16.14 51.93 1.55 4.71 18.4-18.08 3.2-5.92-5.11-4.48 6.95-21.41 3.78-6.75-3.78-3.91 5.66-21.98 3.88 5.01-18.39zM554.76 373.34l-5.28 28.76 4.02 1.26 10.64-24.73-9.38-5.29z" class="z"/><path d="m592.02 385.6 2.72 19.9 10.66-1.88-6.69-18.02h-6.69zM602.31 384.26l9.79 18.17-4-19.74-5.79 1.57zM619.41 381.07l7.4 18.77 10.4-1.84-4.57-20.24-13.23 3.31z" class="bd"/><path d="m542.3 368.15 76.29-13.91 31.99 22.16-72.81 14.59-35.47-22.84z" class="ap"/><path d="m343.56 384.04-7.62 19.32 7.68 1.47 10.01-4.42v6.33l26.71 5.11 10.99-12.34 1.09-10.75-48.86-4.72z" class="w"/><path d="m385.72 390.99 3.82-7.17 26.01-2.75 13.68 22.29-11.65 2.03-4.46-3.15-.55 4.01-4.37.76-6.93-1.75-2.33 3.36-18.6 3.23 5.38-20.86zM343.62 404.83 353 385.6l6.26-1.56 4.37 3.31-10 19.39-10.01-1.91zM369.69 388.35l-4.21 20.66 13.51-19.13-2.01-2.1-7.29.57z" class="z"/><path d="m398.94 408.62-6.52-19.86v-3.16l3.26 2.08 12.52 19.33-9.26 1.61zM412.57 406.25l-7.78-21.6 12.79 20.74-5.01.86z" class="bd"/><path d="m343.56 384.04 31.18-10.7 40.81 7.73-29.83 9.92-42.16-6.95z" class="ar"/><path d="m184.56 367.89 9.18-22.22 44.42 1.74-10.77 28.78-14.74-2.85-2.96-2.92-2.48 1.86-5.29-1.02-2.72-4.05-2.81 2.98-11.83-2.3z" class="w"/><path d="m227.39 376.19 14.96-2.45 4.92-6.07 8.25 3.91 12.91-2.12-7.38-27.96-25.36 1.5-5.83 11.44-2.47 21.75zM196.39 370.19l5.82-22.47 10.16-2.05v4.52l-10.45 21.07-5.53-1.07zM207.21 372.28l9.86-20.95-4.42 22.01-5.44-1.06z" class="z"/><path d="m242.35 373.74-2.52-23.56 1.26-2.77h5.22l9.21 24.17-13.17 2.16z" class="bd"/><path d="m193.74 345.67 33.65-11.19 33.66 7.02-31.19 12.94-36.12-8.77z" class="ak"/><path d="m266.04 332.84 26.17-52.55 94.04 2.98-37.43 72.74-26.14-7.32 1.11-5.65-8.72 3.52-12.69-3.55-2.55-4.27-3.18 2.67-4.36-1.22-5.91-8.95-7.23 5.27-13.11-3.67z" class="w"/><path d="m348.82 356.01 38.37-6.76 5.23-6.61 7.89 4.3 4.48-.79 6.39-3.51 4.37 1.62 6.91-1.22 2.06-5.65 7.18 4.02 11.36-2-9.27-61.64-47.54 2.36-14.01 16.43-23.42 59.45zM308.11 283.27l-11.46 58.14 5.73 1.6 21.41-56.49v-6.39l-15.68 3.14zM333.43 288.52l-18.36 58.04 7.61 2.13 26.14-57.5-5.2-9.47-10.19 6.8zM292.29 340.19l6.94-40.55-20.08 36.87 13.14 3.68z" class="z"/><path d="m392.42 290.4 7.89 56.54-13.12 2.31-6.85-60.75 12.08 1.9zM411.18 284.77l11.28 58.27 9.24-1.63-20.52-56.64zM402.24 287.4l13.31 56.86-10.76 1.89-6.16-57.65v-5.23l3.61 4.13z" class="bd"/><path d="m292.21 280.29 71.42-15.43 70.16 12.91-61.55 18.79-80.03-16.27z" class="ak"/><path d="m276.11 359.63 13.08-32.43 74.44 4.04-15.81 39.08-26.03-3.88-3.32-5.06-6.32 3.62-8.36-1.25-4.32-4.44-7.4 2.7-15.96-2.38z" class="w"/><path d="m353.63 337.39 25.11-13.88 28.35 3.69 5.03 30.6-15.17 2.95-6.62-2.95-4.2 5.06-6.83 1.33-6.26-4.98-2.83 6.75-22.39 4.36 5.81-32.93zM292.07 362.01l17.16-37.07 5.48 6.3-10.92 32.51-11.72-1.74zM312.15 365l13.99-31.8-4.35 33.24-9.64-1.44z" class="z"/><path d="m379.3 364.19-7.06-30.35-2.03 32.12 9.09-1.77zM386.13 362.86l-5.79-30.73 2.71-4.99 13.9 33.61-10.82 2.11z" class="bd"/><path d="m289.19 327.2 35.27-10.31 36.7 7.79 22.52-6.61 23.41 9.13-53.46 10.19-64.44-10.19z" class="ar"/><path d="m685.5 350.62-3.55 20.08 12.93 3.31 3.89-3.31 2.21 4.87 6.11 1.56 3.56-2.17.91 3.32 12.55 3.21 11.44-18.16-50.05-12.71z" class="w"/><path d="m726.8 370.25 20.08-14.36 39.8-2.91 4.81 17.72-8.79 1.41-6.11-2.09-3.72 3.66-7.33 1.18-5.1-1.92-1.77 3.02-6.06.97-4.95-3.25-3.5 4.6-20.05 3.21 2.69-11.24zM694.88 374.01l4.1-17.05 6.97-2.42 1.14 6.29-6.11 14.74-6.1-1.56zM707.09 377.13l4.69-14.06 4.26-2.24-4.48 17.45-4.47-1.15z" class="z"/><path d="m744.16 378.28-3.01-17.45 6.51-1.63 4.95 17.73-8.45 1.35zM758.67 375.96l-6.06-20.07 12.93 18.97-6.87 1.1zM765.54 359.08l7.33 14.6 9.83-1.57-10.15-19.13-7.01 6.1z" class="bd"/><path d="m685.5 350.62 65.14-25.47 36.04 27.83-59.88 17.27-41.3-19.63z" class="ba"/></g><g id="h"><path d="m531.44 321.47 44.91-1.14 34.82-9.17-20.19-6.74-28.15 6.42-31.39 10.63zM472.51 328.89l11.21 2.61 31.16 5.87 13.7-5.86-16.17-8.03-39.9 5.41z" class="aw"/><path d="m448.52 224.59 32.98 19.43 12.21-6.92-1.67-14.98-16.84-2.93-26.68 5.4z" class="r"/><path d="m456.33 157.53 23.24-9.19 28.21-7.05 11.03 8.19-30.16 17.66-22.93-2.88-9.39-6.73z" class="z"/><path d="m475.91 161.53-19.58-4-1.68 14.47 4.63 17.81-9.41 23.17-1.35 11.61 38.29 5.12 1.07-51.44-11.97-16.74z" class="bd"/><path d="m449.87 212.98 19.95 1.2.4-11.18 2.34-29.27-17.91-1.73-4.78 40.98z" class="r"/><path d="m448.52 166.08-8.87-18.41-10.93 5.14-4.2 11.06 16.82 11.2 7.18-8.99z" class="q"/><path d="m439.65 147.67-15.13-13.96-6.73 11.73 6.73 18.43 15.13-16.2zM444.71 171.21l-5.06-8.52v-21.4l3.93-2.3 4.94 13.82 2.24 11.45-6.05 6.95z" class="al"/><path d="m475.91 161.53-19.58 29.79L470.22 203l14.12-5.67 6.74-10.65-8.58-17.26-6.59-7.89z" class="ae"/><path d="m608.39 177.42 2.37 12.39-4.81 8.19-3.64-13.37 5.48-10.9.6 3.69z" class="ap"/><path d="m606.1 204.85 4.66-3.59-.25-7.1-6.5-2.31-15.1 1.66-2.37 13.81 14.4 6.86 5.16-9.33z" class="q"/><path d="m602.54 310.87 8.68.32-6.06-132.92h-8.33l3.22 129.49 2.49 3.11z" class="s"/><path d="m614.65 190.01.89 16.81-13.23 5.72-1.64-6.07.95-10.13 9.14-6.53 3.89.2z" class="al"/><path d="m610.76 189.81-6.12 12.03-3.97 4.63-.62-2.74 5.34-14.19 5.37.27z" class="q"/><path d="m602.31 179.29-3.66 10.52-1.19 22.71-6.43-3.06 3.66-22.78 2.14-8.41 5.48 1.02z" class="ak"/><path d="m597.3 197.19 2.75 6.54 4.59-1.89.75-12.3-10.7-2.86-5.78 6.83-2.24 6.22 10.63-2.54z" class="al"/><path d="m586.56 169.42 18.01-2.28 3.53 7.82-2.7 6.57-16.11-3.26-2.73-8.85z" class="ac"/><path d="m604.57 167.14 13.32 3.75-1.18 7.38-11.31 3.26-.83-14.39z" class="p"/><path d="m574.18 194.91 14.73-1.4-2.37 22.2-30.82 3.48 6.75-21.41 11.71-2.87z" class="af"/><path d="m567.23 160.44 6.95 34.47-18.46 24.28-7.53-7.83 2.37-30.5 16.67-20.42z" class="ae"/><path d="m556.12 229.71 21.65 15.49-16.9 24.47-32.39-3.26 13.31-33.29 14.33-3.41z" class="az"/><path d="m577.77 245.2 3.33 27.04-17.76 12.53-11.22-3.24-4.94-8.55 30.59-27.78z" class="ba"/><path d="m551.29 234.1 19.64 17.31-3.7 8.16-4.76-.48-23.89-15.32 12.71-9.67zM541.53 253.26l14.59 11.6-2.99 5.63-5.95 2.49-18.7-6.57 1.41-21.21 11.64 8.06z" class="k"/><path d="m506.81 320.28-18.7 6.92-3.83-7.09 1.78-12.42 5.7-2.61 8.93 2.12 6.12 13.08z" class="aa"/><path d="m486.06 307.69 7.51-2.74 7.12 2.25-15.69 7.86 1.06-7.37z" class="am"/><path d="m514.93 331.53-.22-11.86-17.52-1.84-7.56 7.71-5.35-5.43-.51 11.42h31.16z" class="x"/><path d="m526.29 228.53 2.19 37.88-17.34 30.15-10.65 7.89-20.31-7.89 1.32-52.54 7.73-26.94 37.06 11.45z" class="az"/><path d="m519.28 260.13-14.68 38.33-7.35-.22 11.58-50.75 10.45 12.64zM502.12 231.81l-10.39 67.83-6.55-2.25 4.16-70.74 12.78 5.16z" class="k"/><path d="M511.14 296.56h-30.96l-.28 11.2 25.67-.62 5.57-10.58zM539.94 256.87l-11.46 9.54-9.2-6.28 10.24-20.03 10.42 16.77z" class="ag"/><path d="m542.12 161.99 12.63 31.52 1.37 36.2-16.18 27.16-10.05-11.67-10.61 14.93-37.78-16.11 3.21-52.7 3.17-25.78 11.97-12.73 42.27 9.18z" class="aq"/><path d="m528.34 194.31-10.19 35.45 11.15 7.34 10.72-8.57-11.68-34.22z" class="bd"/><path d="m540.02 228.53-21.87 1.23 11.74 15.44 10.13-16.67zM540.02 179.4l-11.68 14.91-11.53-15.93 12.34-3.42 10.87 4.44z" class="r"/><path d="m552.48 153.95 14.75 6.49-12.48 33.07-6.56-23.39 4.29-16.17z" class="j"/><path d="m529.15 174.96-13.14-14.94-16.16-7.21.09 42.1 29.21-19.95zM552.48 153.95l-20.74 11.04-2.59 9.97 25.6 18.55-2.27-39.56z" class="ae"/><path d="m499.85 152.81-23.94 8.72 8.43 35.8 15.51-44.52z" class="j"/><path d="m509.06 145.44 8.92 10.46 11.17 19.06-29.3-22.15 9.21-7.37zM549.46 131.81l3.02 22.14-14.66 13.19 2.23-17.63 9.41-17.7z" class="af"/><path d="m575.87 138.99-26.41-7.18-.89-7.82 5.25-8.2 10.21 7.57 11.84 15.63z" class="ag"/><path d="m465.72 79.28 9.48 24.48 1.43 29.95-7.01-5.85-6.62-2.1-6.67-3.89 3.75-37.28 1.14-4.66 4.5-.65z" class="bc"/><path d="M471.34 102.75 463 125.76l13.63 7.95-.53-9.29-5.54-2.85 2.31-6.63-1.53-12.19z" class="ap"/><path d="m465.72 79.28 13.85 69.06 29.49-2.9 22.11 15.47 22.65-45.12-32.9-34.63-35.75-20.25-19.45 18.37z" class="al"/><path d="m492.04 64.8-26.5 14.64 9.93-13.17 9.91-8.28 5.99 2.19.67 4.62z" class="at"/><path d="m495.34 112.23 6.2-20.74 6.24-10.18-14.07-1.37-.82 6.32 2.45 25.97zM486.81 86.93l-3.12-5.59-12.41 5.13 17.37 17.78-1.84-17.32z" class="q"/><path d="m489.58 112.9 3.45 3.69 2.31-4.36-5.76.67z" class="at"/><path d="m520.92 81.16 8.55 61.49-11.67 8.44-8.74-5.65 20.09 29.52 8.67-7.82 11.64-35.33-.89-7.82 5.25-8.2-32.9-34.63z" class="q"/><path d="m486.81 86.93 2.77 25.97 5.76-.67-2.45-25.97-6.08.67z" class="n"/><path d="m520.92 81.16 11.35 22.08 12.18 9.09-13.72 4.28 18.73 15.2 4.36-16.02-11.83-14.91-21.07-19.72z" class="at"/><path d="m483.69 81.34-8-1.99-4.41 7.12 12.41-5.13zM493.71 79.94l6.27-3.44 7.8 4.81-14.07-1.37z" class="k"/><path d="m478.79 125.96 16.91 12.18 17.78-15.74-34.69 3.56z" class="aq"/><path d="m483.18 126.58 11.04 1.19 14.84-4.02-10.1 8.06-6.84.65-8.94-5.88z" class="aj"/><path d="m478.79 125.96 14.85-3.71 19.84.15-19.3 5.9-15.39-2.34z" style="fill:#446125;fill-rule:evenodd;stroke-width:0"/><path d="m533.31 94.21-2.58 22.4 28.25 4.61-6.46-8.29-15.36-1.88 1.91-12.28-5.76-4.56z" class="ae"/><path d="m509.06 145.44 30.34-4.15-19.39 20.24-10.95-16.09z" class="at"/><path d="m520.92 81.16 39.72 17.01 26.27 20.37-11.04 20.45-54.95-57.83zM523.9 73.88l27.76-28.72 39.98 42.2-67.74-13.48z" class="k"/><path d="m591.64 87.36 16.75 18.21-21.48 12.97-.37-18.5 5.1-12.68z" class="k"/><path d="m485.17 60.91.45-6.19 9.1-13.31 56.94 3.75-20.55 27.16-45.94-11.41z" style="fill:#84c8ab;fill-rule:evenodd;stroke-width:0"/><path d="m485.17 60.91-25.09 23.68L445 70.52l49.72-29.11-9.55 19.5z" class="az"/><path d="m485.17 60.91 101.74 57.63 4.73-31.18-106.47-26.45z" class="az"/><path d="M475.21 96.67c-.15 2.01 1.37 3.76 3.38 3.91s3.76-1.37 3.91-3.38-1.37-3.76-3.38-3.91-3.76 1.37-3.91 3.38ZM499.19 93.08c-.15 2.01 1.37 3.76 3.38 3.91s3.76-1.37 3.91-3.38-1.37-3.76-3.38-3.91-3.76 1.37-3.91 3.38Z" class="av"/><path d="m570.93 251.41 3.25 27.38-5.59 3.53-6.12-23.23 8.46-7.68zM556.12 264.86l3.71 18.41-7.71-1.74-4.94-8.55 8.94-8.12z" class="bc"/><path d="M583.54 291.82 577 308.84l-14.93-7.96-1.15-11.97 13.91-2.95 8.71 5.86z" class="aa"/><path d="m576.39 287.12-14.62 10.62-.7-7.31 3.87-3.09 11.45-.22z" class="am"/><path d="m575.54 306.02-13.47-5.14.81 9.99h39.66l2.03-11.02-21.03-8.03-8 14.2z" class="x"/><path d="m581.1 272.24-28.98 9.29 5.59 9.66 25.06-5.46-1.67-13.49z" class="ag"/><path d="m470.22 203-19.46-38.74-19.06 15.47 18.61 29.5 19.91-6.23z" class="af"/></g><g id="i"><path d="m285.46 404.59 11.82-3.48 15.58 4.38-17.48 1.42-9.92-2.32zM251.52 408.74l8.82-1.49 12.81 3.37-14.01 3.23-7.62-5.11zM209.93 344.46l7.09-3.58 16.64 3.58-16.38 3.84-7.35-3.84zM350.93 283.27l12.07 2.76 11.58-2.76-12.53-3.14-11.12 3.14zM598.71 373.34l12.35-3.58 13.25 3.92-14.51 4.08-11.09-4.42zM674.55 287.45l16.38-4.82 17.01 4.82-15.84 4.16-17.55-4.16z" class="aw"/><path d="m275.04 374.73 18.8-5.84 19.02 4.8-18.91 12.3-18.91-11.26z" class="o"/><path d="m287.42 378.6 6.53-5.03 8.26 6.26-7.4 2.69-7.39-3.92z" class="ab"/><path d="m298.79 398.29-3.41 8.62-3.09-17.24 6.5 8.62z" class="k"/><path d="m275.04 374.73 23.75 23.56 1.68-14.17-5.34-4.73-20.09-4.66z" class="ac"/><path d="m295.13 379.39 17.73-5.7-14.07 24.6-3.66-18.9z" class="p"/><path d="m245.43 387.86 16.21-7.18 16.81 9.98-16.51 7.05-16.51-9.85z" class="o"/><path d="m253.03 392.71 8.91-5.97 7.71 7.68-8.31 5.55-8.31-7.26z" class="ab"/><path d="m264.73 396.5-5.4 14.46-1.94-12.11 7.34-2.35z" class="k"/><path d="m261.64 404.77-16.21-16.91 18.12 7.4 1.18 2.45-3.09 7.06z" class="ac"/><path d="m261.64 404.77 16.81-14.11-14.9 4.6-1.91 9.51z" class="p"/><path d="m199.68 312.88 17.39-7.78 17.82 10.38-19.68 8.03-15.53-10.63z" class="o"/><path d="m212.14 331.5 6.32 14.17-1.39-20.19-4.93 6.02z" class="k"/><path d="m207.93 317.14 8.37-5.71 10.82 6.46-11.21 3.8-7.98-4.55z" class="ab"/><path d="m212.14 331.5-12.46-18.62 17.39 5.78 1.39 4.83-6.32 8.01z" class="ac"/><path d="m217.07 318.66 17.82-3.18-22.75 16.02 4.93-12.84z" class="p"/><path d="m356.64 270.57 5.73 14.2-1.17-16.93-4.56 2.73z" class="k"/><path d="m342.74 258.75 14.11-9.06 16.19 5.62-14.61 9.85-15.69-6.41z" class="o"/><path d="m349.52 263.15 8.37-7.11 6.19 7.11-6.19 4.69-8.37-4.69z" class="ab"/><path d="m358.43 275-15.69-16.25 16.77 4.4 2.86 3-3.94 8.85z" class="ac"/><path d="m358.43 275 14.61-19.69-13.53 7.84-1.08 11.85z" class="p"/><path d="m608.1 358.64 1.66 15.04 4.26-12.85-5.92-2.19z" class="k"/><path d="m594.74 340.91 20.71-6.34 14.77 6.99-16.2 11.54-19.28-12.19z" class="o"/><path d="m606.18 347.2 9.27-6.91 4.63 6.91-6.06 7.15-7.84-7.15z" class="ab"/><path d="m594.74 340.91 17.81 24.37 5.34-12.18-2.44-4.68-20.71-7.51z" class="ac"/><path d="m615.45 348.42 14.77-6.86-17.67 23.72 2.9-16.86z" class="p"/><path d="m683.09 269.67 8.16 20.53 1.17-22.88-9.33 2.35z" class="k"/><path d="m664.04 255.11 19.68-12.66 26.88 9.14-24.83 9.17-21.73-5.65z" class="o"/><path d="m673.9 256.88 11.29-7.17 11.24 7.99-10.93 8.07-11.6-8.89z" class="ab"/><path d="m685.77 276.42-21.73-21.31 24.05 2.65 3.16 4.79-5.48 13.87z" class="ac"/><path d="m685.77 276.42 24.83-24.83-22.51 6.17-2.32 18.66z" class="p"/></g></svg>