<svg xmlns="http://www.w3.org/2000/svg" id="a" viewBox="0 0 900 350"><defs><style>.m{fill:#404857}.aa,.ab,.ac,.ae,.af,.ag,.ak,.al,.am,.an,.ao,.aq,.ar,.as,.at,.av,.aw,.ax,.ba,.bb,.bc,.bd,.be,.bg,.bh,.bi,.bj,.bk,.bl,.bn,.bo,.bp,.bq,.br,.bt,.bv,.bw,.bx,.by,.m,.n,.o,.p,.q,.r,.s,.u,.v,.w,.x,.z{stroke-width:0}.ab,.ac,.ae,.af,.ag,.ak,.al,.an,.ao,.aq,.ar,.as,.at,.av,.aw,.ax,.ba,.bb,.bc,.bd,.be,.bi,.bj,.bk,.bn,.bo,.bp,.bq,.br,.bv,.bw,.bx,.by,.m,.n,.o,.p,.q,.u,.v,.w,.x,.z{fill-rule:evenodd}.n{fill:#ccae2d}.o{fill:#eeeff1}.p{fill:#5f5044}.q{fill:#e8cab6}.ag,.bn,.r{fill:#1d2432}.bn,.r{opacity:.1}.ak,.s{fill:#664e1a}.u{fill:#46382d}.bl,.v{fill:#71561c}.w{fill:#c3987b}.x{fill:#ac923b}.z{fill:#7d5f1f}.aa,.bb{fill:#f1d69c}.ab{fill:#74665b}.ac{fill:#e4ae3a}.ae{fill:#5b4517}.af{fill:#9b6533}.ag{opacity:.15}.bh{fill:#ecc675}.al{fill:#576071}.am{fill:#29303e}.an{fill:#454d5d}.ao{fill:#f4d75c}.aq{fill:#886822}.ar{fill:#7c4f24}.as{fill:#af7546}.at{fill:#ccad14}.av{fill:#9f7928}.aw{fill:#89909b}.ax{fill:#343c4b}.ba{fill:#dfbda5}.bc{fill:#aa822b}.bd{fill:#e5b244}.be{fill:#f9eed7}.bg,.bv{fill:#e5c828}.bi{fill:#cc9c34}.bj{fill:#8b6651}.bk{fill:#e4c824}.bt{fill:#232a38}.bo{fill:#c29431}.bp{fill:#947125}.bq{fill:#755800}.br{fill:#83624d}.bw{fill:#b68b2e}.bx{fill:#4b5464}.by{fill:#b48c71}</style></defs><circle id="b" cx="367.04" cy="40.49" r="20.15" class="aa"/><g id="c"><path d="m565.38 8.94-39.27 33.7-2.38 13.97-6.15 6.24-53.42 35.45-64.9 74.83-112.71 12.25-92.85 45.44 228 18.61 204.35-9.56 137.26-17.3-76.62-61.92-52.5-70.86-36.9-5.84-31.91-75.01z" class="aa"/><path d="m565.38 8.94 16.36 60.16-16.26 19.07 56.01 20.61 12.7-18.99-31.41-16.5-37.4-64.35zM686.69 160.65l-36.21-8.41-96.71 18.75 51.27 46.11 45.76-.79 52.48-5.87 86.39 8.81-102.98-58.6zM399.26 173.13l24.96 16.23-40.63 15.39-43.44 9.67 59.11-41.29zM565.2 128.95l39.64 9.77-57.86 18.53-25.37-12.59 43.59-15.71zM526.11 42.64l25.67 26.46-34.2-6.25 8.53-20.21z" class="bh"/></g><g id="d"><path d="m75.85 232.91-11.87-1.1-1.02 2.61 14.17 4.3-1.28-5.81z" class="bw"/><path d="m800.42 128.44-49.25 60.2 48.26 12.15 12.04-77.67-11.05 5.32z" class="bi"/><path d="m810.45 128.44 35.19 63.69-46.21 8.66 7.52-67.92 3.5-4.43z" class="bc"/><path d="m800.42 128.44 4.79 20.19 6.9-17.19-11.69-3z" class="ag"/><path d="m807.3 91.79-24.64 24.59 24.29 16.49 7.5-43.08-7.15 2z" class="bi"/><path d="m806.95 132.87 25.83-7.14-16.41-35.99-4.9 4.07-4.52 39.06z" class="bc"/><path d="m807.3 91.79 2.79 13.98 7.78-12.74-10.57-1.24z" class="ag"/><path d="M817.33 63.29 799.6 88.06l11.87 5.75 6.13-8.28-.27-22.24z" class="bi"/><path d="m817.33 63.29 7.24 28.93-13.1 1.59 5.86-30.52zM187.11 143.29l34.04 54.03-43.21 7.74-3.18-25.38 2.67-34.38 9.68-2.01z" class="bc"/><path d="m172.54 143.29-29.75 53.27 35.15 8.5 3.34-55.09-8.74-6.68z" class="bi"/><path d="m169.83 148.15 10.67 14.63 9.04-15.64-19.71 1.01z" class="bn"/><path d="m172.54 113.6-16.55 32.36 25.29 4.01-.93-38.71-6.39-1.69-1.42 4.03z" class="bi"/><path d="m180.12 109.57 24.2 32.52-23.04 7.88-4.07-32.94 2.91-7.46z" class="bc"/><path d="m171.73 115.2 6.47 9.86 5.12-11.19-11.59 1.33z" class="bn"/><path d="m174.48 72.51-10.67 40.04 13.4 4.48 4.07-13.1-6.8-31.42z" class="bi"/><path d="m174.48 72.51 17.48 36.88-14.75 7.64-2.73-44.52z" class="bc"/><path d="m250.75 153.3 41.9 56-42.56 11.21-17.1-45.04 3.38-20.16 14.38-2.01z" class="av"/><path d="m232.99 151.54-42.93 56.72 60.03 12.25-10.21-58.74-6.89-10.23z" class="bw"/><path d="m227.86 158.31 14.95 20.33 10.58-21.8-25.53 1.47z" class="ag"/><path d="m250.75 103.4 25.74 45.01-36.61 13.36 3.41-46.77 7.46-11.6z" class="av"/><path d="m238.51 107.7-34.19 43.84 35.56 10.23 8.08-50.75-6.74-9.15-2.71 5.83z" class="bw"/><path d="m238.51 107.7 7.93 12.82 6.66-13.01-14.59.19z" class="ag"/><path d="m243.29 53.77-26.36 46.32 31.03 10.93 2.79-17.76-7.46-39.49z" class="bw"/><path d="m243.29 53.77 28.42 41-23.75 16.25-4.67-57.25z" class="av"/><path d="m240.13 59.33 4.74 13.86 2.3-13.83-7.04-.03z" class="ag"/><path d="M246.02 15.12 225.9 53.53l17.97 7.32 4.09-16.01-1.94-29.72z" class="bw"/><path d="m243.87 60.85 13.08-5.89-10.93-39.84-2.15 45.73z" class="av"/><path d="m74.42 221.17 1.18 40.24 10.29-6.05-5.86-62.04-5.61 27.85z" class="bp"/><path d="m26.06 207.31 48.36 13.86 9.27-63.91-2.51-21.52-8.54-1.22-46.58 72.79z" class="bw"/><path d="m80.3 144.34 7.27-10.19 36.28 70.91-49.43 16.11 5.88-76.83z" class="av"/><path d="m68.1 141.62 10.79 21.13 11.99-22.13-22.78 1z" class="ag"/><path d="m54.36 138.56 25.94 5.78L83.69 124l-7.38-19.6-2.12-7.28-19.83 41.44z" class="bw"/><path d="m80.3 144.34 23.87-8.41-24.29-37.91-3.57 6.38 3.99 39.94z" class="av"/><path d="m71.44 102.87 6.02 12.98 5.06-13.72-11.08.74z" class="ag"/><path d="M78.1 54.18 60.23 99.33l16.08 5.07 5.24-11.84-3.45-38.38z" class="bw"/><path d="m76.31 104.4 16.89-6.18-15.1-44.04-1.79 50.22zM755.42 223.59l52.05-18.6-44.16-75.21-5.85 11.47-9.19 37.01 7.15 45.33z" class="av"/><path d="m747 133.76-45.93 69.33 54.35 20.5 2.04-82.34-10.46-7.49z" class="bw"/><path d="m740.17 144.07 16.66 29.46 14.27-30.49-30.93 1.03z" class="ag"/><path d="m752.61 89.06-37.68 48.39 42.37 11.18 2.21-54.15-6.9-5.42z" class="bw"/><path d="m757.3 148.63 34.11-13.82-32.28-45.75-3.71 6.48 1.88 53.09z" class="av"/><path d="m749.91 92.53 6 15.96 5.96-15.55-11.96-.41z" class="ag"/><path d="M759.13 45.27 734.32 84l21.1 11.54 3.71-14.3V45.27z" class="bw"/><path d="m759.13 44.27 16.39 43.14-20.1 8.13 3.71-51.27z" class="av"/><path d="m753.95 53.35 3.89 8.72 4.49-9.04-8.38.32z" class="ag"/><path d="M759.51 26.34 743.3 49.98l15.07 4.77 3.96-10.84-2.82-17.57z" class="bw"/><path d="m758.37 54.75 10.91-4.73-9.77-23.68-1.14 28.41z" class="av"/></g><g id="e"><path d="m120.85 285.75-52.66 3.86-50.47-6.44 34.71-25.42 21.74 3.6 11.72-5.99 18.76-13.1 38.14 24.17-21.94 19.32z" class="be"/><path d="m104.65 242.26 16.2 43.49 25.01-8.94 9.7-17.82-50.91-16.73zM85.89 255.36l-17.7 34.25-15.76-31.86 33.46-2.39zM881.59 273.68l-30.7-22.07-3.64 20.81 11.49 7.2 22.85-5.94z" class="bb"/></g><g id="f"><path d="m148.92 193.66 8.94-7.1 13.21.44 232.3 29.97 162.74 1.58 243.71-27.92 9.47-1.01 7.19 8.04-62.11 19.31-339.53 27.78-208.13-23.1-67.79-27.99z" style="fill:#8e7e73;fill-rule:evenodd;stroke-width:0"/><path d="m826.48 197.66-319.59 33.16-25.2 30.88 31.11 34.7 329-15.81 5.45-54.72-20.77-28.21z" class="ab"/><path d="m512.8 296.4-108.31-2.09-17.83-34.51 11.71-35.4 108.52 6.42 5.91 65.58z" class="p"/><path d="m396.97 224.26-249.45-30.74-11.75 30.68 1.87 62.52 62.57 3.75 202.88 5.7-6.12-71.91z" class="ab"/><path d="m830.11 217.28-251.26 25.2-70.13 8.69-1.71 1.9 1.99 1.15 326.76-31.79-5.65-5.15zM835.3 245.4l-324.68 26.83-3.61 3.05 4.13 2.72 330.75-26.85-6.59-5.75zM146.09 217.28l254.26 29.75 4.14 1.31-3.74 3.23-259.9-28.44 5.24-5.85zM402.32 269.45l-259.41-25.61-5.73 3.96 265.67 27.72 2.95-3.02-3.48-3.05z" class="p"/><path d="m400.35 247.03 108.37 4.14.28 3.05-108.25-2.65-.4-4.54zM402.32 269.45l108.3 2.78.52 5.77-108.29-2.48-.53-6.07z" class="u"/><path d="m404.49 224.76 3.07 69.55-23.97-1.72 5.54-69.33 3.87-3.66 11.49 5.16z" class="av"/><path d="m394.66 232.39-2.29 52.72 6.89 1.02-.77-53.62-3.83-.12z" class="ac"/><path d="m148.92 193.66-5.87-6.85-8.68 4.6-13.52 94.34 16.79.97 11.28-93.06z" class="av"/><path d="m138.96 200.98-8.61 61.28 5.17.38 6.89-61.47-3.45-.19z" class="ac"/><path d="m826.48 197.66 9.66-8.3 15.64 5.49 6.96 84.77-16.94.97-15.32-82.93z" class="av"/><path d="m826.48 197.66-4.89-11.1 4.89-13.64 32.26 4.75-6.96 17.18-25.3 2.81z" class="ar"/><path d="m830.78 180.65-10.21-7.12-16.36 1.47 5.61 15.63 16.66 7.03 4.3-17.01zM858.74 177.67l-31.87-19.5-6.3 15.36 10.21 7.12 27.96-2.98z" class="af"/><path d="m804.21 175 22.66-16.83 3.91 22.48-26.57-5.65z" class="as"/><path d="m836.33 207.68 8.81-1.34 5.75 63.39-4.02.38-10.54-62.43z" class="ac"/><path d="m148.92 193.66 30.02-.14 9.27-4.31-17.14-2.21-9.38-1.62-12.77 8.28z" class="bn"/><path d="m134.37 191.41-6.9-17.11 30.64-3.57-.51 14.29-8.68 8.64-14.55-2.25z" class="af"/><path d="m148.92 193.66 22.15-6.66 6.45-15-18.9-1.02-3.06 5.62-6.64 17.06z" class="ar"/><path d="m177.52 172-27.24-13.27-4.42 12 9.7 5.87 21.96-4.6z" class="af"/><path d="m127.47 174.3 22.81-15.57 5.28 17.87-28.09-2.3z" class="as"/><path d="m404.49 224.76 17.78-1.5 9.6-6.01-16.78-.16-5.39-.1-5.21 7.77z" class="bn"/><path d="m404.49 224.76-2.17-18.97 19.38-3.12-6.61 14.42-10.6 7.67z" class="ar"/><path d="m404.49 224.76-15.36-1.5-5.54-18.51 14.48-.96 8.43 5.32-2.01 15.65z" class="af"/><path d="m421.7 202.67-20.62-10.99-.73 10.19 6.15 7.24 15.2-6.44z" class="af"/><path d="m406.5 209.11-5.42-17.43-17.49 13.07 22.91 4.36z" class="as"/></g><g id="g"><path d="m576.74 312.47-4.18 7.54-50.09 16.96-21.58-8.06-17.58 4.1-40.6-4.1-8.67-7.18-39.78 2.28 16.76-15.05 28.97-15.51 72.82-7.97 40.96 5.83 22.97 21.16zM733.22 314.36l32.24-9.46 4.09 7.88 15.32 1.58 24.76 4.56-16.85 8.42-39.83-2.29-19.73-10.69z" class="be"/><path d="m765.46 304.9-12.51 20.15 31.92-10.69-19.41-9.46z" class="bb"/><path d="m792.99 280.34-39.57-33.31-58.69 24.16-16.75 11.29-42.75-7.62-28.59 10.53-11.44 1.33-9.64-10.54-25.82-1.58-27.61 12.5-4.06 7.32 19.44 8.05 29.23 10 20.93-11.02 20.18.06 62.97 12.14 11.12-14.02 17.31 4.22 59.49-8.13 24.25-15.38z" class="be"/><path d="m753.42 247.03 15.32 48.69 36.73-13.38-52.05-35.31zM694.73 271.19l14.52 32.66-28.43 9.8-45.59-38.79 59.5-3.67zM606.64 285.39l11.21 16.12-41.11 10.96 8.82-36.29 21.08 9.21z" class="bb"/><path d="m794.53 299.58 35.64-7.73 6.66 8.81-19.53 5.93-22.77-7.01z" class="be"/><path d="m817.3 306.59 12.87-14.74 28.57 10.03-41.44 4.71z" class="bb"/><path d="m385.1 273.67-53.53 14.39-16.61 12 96.06 8.9 13.82-7.7 16.32.18 41.67-3.21 28.6 4.3 20.7-15.43-63.97-21.47-43.32 23.43-20.35-1.07-19.39-14.32z" class="be"/><path d="m547.51 302.47-15.38-15.37-14.17 10.56 29.55 4.81zM468.16 265.63l43.27 36.9-20.57 4.27-49.7-5.36 27-35.81z" class="bb"/><path d="m385.1 273.67 39.74 15.39-3.14 8.84-10.68 11.06-25.92-35.29z" style="fill:#ecc675;fill-rule:evenodd;stroke-width:0"/><path d="m424.84 289.06-13.82 19.9 30.14-7.52-16.32-12.38z" class="bb"/><path d="m261.1 292.98-17.17 8.46-20.05-2.28-23.67-8.69 47.75-9.59 13.14 12.1z" class="be"/><path d="m278.25 292.66-34.32 8.78-1.18-10.97 5.21-9.59 30.29 11.78z" class="bb"/><path d="m250.66 324.82 19.04-7.93 8.55 9.6-5.7 4.65-21.89-6.32z" class="be"/><path d="m269.7 316.89 2.85 14.25 21.78-4.65-24.63-9.6z" class="bb"/><path d="m60.19 312.15 27.04-5.6 20.78-11.3 19.98 13.2-15.01 13.2-16.81-3.02-8.19-4.74-8.2 1.79-19.59-3.53z" class="be"/><path d="m108.01 295.25 4.97 26.4 31.17-10.23-36.14-16.17zM87.23 306.55l8.94 12.08-16.39-2.95 7.45-9.13zM547.51 302.47l29.23 10 9.64 10.28-63.91 14.22 31.95-22.64-6.91-11.86zM394.26 324.01l47.62-13.9 12.2-4.07 15.11 2.68-11.47 6.03-15.01 14.16-48.45-4.9zM522.47 336.97l-16.44-18.09-22.72 14.13 39.16 3.96z" class="bb"/></g><g id="h"><path d="m397.37 315.27-32.84 11.04-68.22-6.3 22.22-10.38 40.22-5.51 38.62 11.15zM216.87 320.01l7.72-3 5.49 3 49.63-7.12-35.78-11.45-20.05-2.28-33.06-5.32-7.64 3.87-12.55 7.38-2.02 6.13 9.79 4.48 38.47 4.31zM569.52 321.04l-15.1-6.71-24.37 4.55-12.01-4.17-12.01 4.17-15.88-4.13-10-5.79 10.71-2.16 20.57-4.27 17 3.14 19.08-3.2 29.23 10-7.22 8.57zM706.19 313.95l-25.37 4.65-15.96-6.13-3.84-10.96 16.96-4.51 31.27 6.85-3.06 10.1z" class="r"/></g><g id="i"><path d="m325.47 260.48 15.81-7.7 4.49-10.97-9.49-12.8-10.81 5.74v25.73z" style="fill:#29303e;fill-rule:evenodd;stroke-width:0"/><path d="m353.08 241.5-1.72 24.16-9.86 12.13-13.71-2.76-6.21-18.31 8.82-3.94 11.1-6.79 4.27-4.18 7.31-.31z" class="ax"/><path d="m330.4 252.78-7.93 22.44-12.51 4.14-10.35-9.94 1.68-28.74 13.39 1.79 15.72 10.31z" class="an"/><path d="m378.78 127.03 5.82-8.69-8.65-10.58-7.44 1.86-4.62 7.35 14.89 10.06z" class="x"/><path d="m336.28 84.36-16.58-7.57h-11.08l-7.39 11.72-4.46 12.99 31.68.43 7.83-17.57z" class="av"/><path d="m358.12 94.34-21.84-9.98-39.51 17.14-5.78 16.84 67.13-24z" class="aq"/><path d="m286.55 185.38 17.5 7.24-.79-16.53-13.71-9.52-3 3.05v15.76z" class="ar"/><path d="m290.99 171.25 10.24 8.91 14.3-4.46v-12.16l-8.48-5.2-16.06 12.91z" class="af"/><path d="m374.19 168.79 5.22-33.08-15.32-2.9-4.14 6.4v27.75l14.24 1.83z" class="ax"/><path d="m353.03 186.83 21.16-18.04-9.69-4.68-8.17-4.09-13.34 14.19 5.65 9.91 4.39 2.71z" class="m"/><path d="m350.94 236.93-7.25 6.91-9.34-20.58h9.34l2.68 3.92 4.57 9.75z" class="al"/><path d="m339.18 226.77-11.36 21.57-24.08-12.61 5.27-10.68 14.5-3.88 15.67 5.6zM311.3 172.7l-10.07 7.46 6.08 7.44-4.63 10.87 37.55 8.84 17.89-5.44-5.09-15.04-14.89-9.18-26.84-4.95z" class="al"/><path d="m302.68 198.47 6.33 26.58 37.36 2.13 11.75-25.31-55.44-3.4z" class="an"/><path d="m339.18 180.17 3.86 20.77 2.26 4.12 3.34-3.78-4.73-21.11h-4.73z" class="ao"/><path d="m343.04 200.94-8.69 25.55 1.93 2.52 2.9-2.24 9.46-25.49-5.6-.34z" class="x"/><path d="m347.94 172.7-18.26-9.16-8.91 7.71 17.37 4.45 9.8-3z" class="v"/><path d="m363.68 100.91.82 63.2-26.36.33-7.11 6.81-11.33-2.06-8.01-11.81-16.91-33.68 22.24-16.32 46.66-6.47z" class="ba"/><path d="m331.58 167.62-7.68-1.57-4.2-45.45.15-15.31-25.07 18.41 14.62 38.37 5.49 8.38 15.41 5.64 1.28-8.47z" class="w"/><path d="m338.14 164.44-18.44.26 10.6 11.39 7.84-11.65z" class="bj"/><path d="m359.95 120.27-17.6 18.35-12.82-18.27 6.75-.83 5.68 4.21 3.04 2.84 2.84-3.03 1.35-2.75 4.33-3.82 6.43 3.3z" class="w"/><path d="m341.96 123.73.39 14.89 2.95.59 3.34-.84-.8-14.83-5.88.19z" class="q"/><path d="m342.35 138.62 3.46 2.52 2.83-2.77-6.29.25z" class="bj"/><path d="m331.51 126.46 7.67 2.82-6.77 3.53 2.69-3.17-3.59-3.18z" style="fill:#232a38;fill-rule:evenodd;stroke-width:0"/><path d="m341.96 123.73 1.08-2.64-11.46-4.12-2.05 3.38 12.43 3.38z" class="af"/><path d="m331.85 147.11 13.64 6.19 10.84-5.96-10.84 1.1-13.64-1.33z" class="bc"/><path d="m345.72 144.96-5.91 1.97-7.96.18 13.64 2.61 10.84-2.38-5.86-.47-4.75-1.91z" class="z"/><path d="m349.19 120.79-1.25-2.02 5.02-4.18 5.82 2.38 1.17 3.3-6.46-2.16-4.3 2.68zM319.7 120.6l-7.94 18.02-14.37 20.77-6.27-7.84-8.36-7.44 9.66-14.47 14.63-10.48 12.65 1.44z" class="af"/><path d="m319.7 120.6-36.94 23.51 1.83 13.06 11.75-3.87 19.19-15.92 4.17-16.78z" class="ar"/><path d="M315.53 137.38 276.49 162l6.27 9.25h8.23l17.39-11.86 4.09-9.67 3.06-12.34z" class="as"/><path d="m276.49 162 14.5 9.25-4.44 14.13L276.49 162z" class="af"/><path d="m309.96 173.69 19.72 7.62 23.35 5.52-5.09-14.13-33.05-2.25-4.93 3.24z" class="bp"/><path d="m309.96 173.69 37.98-.99-34.76-4.87-3.22 5.86z" class="bd"/><path d="m334.35 226.49 7.15 19.5 11.58-4.49-2.14-4.57-7.25 1.48-4.51-11.64-2.09 1.19-2.74-1.47z" class="n"/><path d="m339.18 226.77-8.78 26.01-29.11-12.1 2.45-4.95 23.04 7.12 7.57-16.36 4.83.28z" class="ao"/><path d="m301.23 180.16 29.08-6.47 7.83 2.01 3.14 15.75-38.6 7.02-1.45-18.31z" class="m"/><path d="m330.31 173.69 10.49-18.45 17.32 7.2-16.84 29.01-10.97-17.76z" class="ax"/><path d="m290.99 171.25 21.48-21.53-3.07 12.35-18.41 9.18z" class="ar"/><path d="m377.91 120.35 3.33 25.62-23.44 8.06-4.59-27.57 24.7-6.11z" class="bp"/><path d="m347.84 123.54-1.03 24.64 11.78 4.06-2.26-23.9-1.15-4.09-7.34-.71z" class="z"/><path d="m363.89 116.97 14.02 3.38-21.58 7.99-8.49-4.8 16.05-6.57z" class="bd"/><path d="m292.42 129.64 76.09-26.44-7.42-10.84-78.33 22.98 9.66 14.3z" class="x"/><path d="m364.5 88.51-81.74 26.83 85.75-12.14-4.01-14.69z" class="ao"/><path d="m302.68 84.36-7.9-1.38 6.45-16.89 20.02 3.4-5.72 7.3-12.85 7.57z" class="al"/><path d="m301.23 88.51 18.47-11.72 1.55-7.3-26.47 13.49 6.45 5.53z" class="m"/><path d="m344.09 149.45 3.42-18 7.35-1.81 12.52 4.02-13.25 28.17-10.04-12.38z" class="n"/><path d="m347.51 131.45 5.98-13.34 4.19 1.4.91 7.99 8.79 6.16-19.87-2.21z" class="ao"/><path d="m367.38 133.66 4.75-5.86 6.65-.77 5.82 6.37-8.16 1.11-9.06-.85z" class="al"/><path d="m367.38 133.66 5.14 8.5 8.06-1.3 6.08-8.04-2.97-1.45-16.31 2.29z" class="an"/><path d="m388.59 125.89 4.41 7.77-5.58 6.09-6.18-8.38 7.35-5.48z" style="fill:#cccfd4;fill-rule:evenodd;stroke-width:0"/><path d="m388.59 125.89-4.9 5.48-3.1 2.29-4.64-1.2 2.83-5.43 9.81-1.14z" class="as"/><path d="m375.95 132.46 4.63 8.4 6.84-1.11-3.73-8.38-7.74 1.09z" class="af"/><path d="m344.09 149.45 20.41 14.66-7.06 10.1-16.64-18.97 3.29-5.79z" class="bo"/><path d="m375.95 107.76-4.26 14.89-4.31-1.86 1.13-11.17 7.44-1.86z" class="ao"/><path d="m298.96 281.81 9.6 4.8 10.42-.2 3.49-11.19-22.86-5.8-.65 12.39z" class="al"/><path d="m327.79 275.03 23.57-9.37-.84 13.32-9.72 6.2-10.01.21-3-10.36z" class="an"/><path d="m298.96 281.81-1.31 21.97 9.14 1.31 8.17-5.03 4.02-13.65-7.66-1.76-2.86 2.74-1.43-3.72-8.07-1.86z" class="aq"/><path d="m330.79 285.39 4.26 14.67 8.64-.13 5.81-4.8-4.81-14.25-13.9 4.51z" class="z"/><path d="m314.96 300.06 5.84 15.64-12.24 2.16-12.25-2.16 1.34-11.92 17.31-3.72z" class="av"/><path d="M296.31 315.7h24.49v4.31h-24.49z" class="bl"/><path d="M335.05 300.06v12.11l17.98 2.16 14.01-2.16-8.29-8.05-11.15-8.34-12.55 4.28z" class="bp"/><path d="M335.05 312.17h31.98v4.31h-31.98z" class="bl"/><path d="m311.32 284.65-2.76 16.79-1.28 2.02-2.32-1.25 2.07-18.54 4.29.98z" class="x"/><path d="m308.56 301.44 2.15 6.82-4.41 1.37-1.34-7.42 3.6-.77z" class="bk"/><path d="m344.69 280.88 1.71 15.31 2.81.8.29-1.86 1.02-16.15-5.83 1.9z" class="x"/><path d="m346.4 296.19 7.13 9.85 5.22-1.92-9.25-8.99-3.1 1.06z" class="bk"/></g><g id="j"><path d="m686.69 184.96 14.38 18.13-14.64 9.63-3.63-14.49 3.89-13.27z" class="bk"/><path d="m639.97 300.43-11.45 8.27 31.2 1.43 4.67-9.52-6.28-5.8-7.65.63-10.49 4.99z" class="z"/><path d="M628.52 308.7h33.77v4.95h-33.77z" class="s"/><path d="m639.97 300.43 3.79 2.5 7.69-6.51-5.03-.65-6.45 4.66z" class="bk"/><path d="m661.02 301.51-10.97 12.14 15.38 2.47 15.39-2.47-1.89-9.2-12.67-4.33-5.24 1.39z" class="bp"/><path d="M650.05 313.65h30.77v4.95h-30.77z" class="s"/><path d="m665.24 300.12-3.32 8 5.07.84 2.71-9.33-4.46.49z" class="bk"/><path d="m635.23 274.86 8.06 15.07 17.73 11.58 1.92-13.1-12.14-18.96-15.57 5.41z" class="ax"/><path d="m639.46 249.4-4.23 25.46L650.8 278l6.97-3.52 7.09-27.61-14.64-1.47-10.76 4zM658.11 294.81l-14.82-4.88 3.13 5.84 14.6 5.74.72-3.88-3.63-2.82z" class="an"/><path d="m639.46 249.4 19.8 19.3 10.67-20.21-10.02-6.29-20.45 7.2z" class="ax"/><path d="m701.07 245.4-24.61 39.53-10.2 3.48L650.8 278l6.97-30.84 43.3-1.76z" class="bx"/><path d="m616.02 194.02-13.28-5.38-6.13 11.18 10.03 3.55 5.76-3.22 3.62-6.13z" class="ar"/><path d="m567.08 181.75 32.13-7.02 5.83 42.37-26.89 3.49-11.07-38.84z" class="o"/><path d="m593.12 209.85 5.99 6.98-4.31 1.96-1.68-3.61v-5.33z" class="ac"/><path d="m585.11 209.85 1.76-1.39 2.64 1.16 3.61.23 2.65 8.2-7.67 1.55-3.45-4.87.46-4.88z" class="bo"/><path d="m589.51 209.62 4.39-3.94-5.34-1.11.95 5.05z" class="z"/><path d="m591.58 201.93-2.07 7.69-3.55-3.09-5.28-6.13 2.28-4.4 8.62 5.93z" class="w"/><path d="m592.01 190.63 3.19 10.48-7.1 1.61-4.29-9.42 8.2-2.67z" class="ba"/><path d="m582.79 206.27 5.31-1.12 1.41 4.47-4.4.23-2.32-3.58z" class="av"/><path d="m585.11 209.85-3.42 10.11h6.72l-3.3-10.11z" class="ac"/><path d="m580.68 200.4-1.04-8.48 13.48-5.59-1.11 4.3-8.2 2.67 2.88 6.33-1.58 1.16-2.32-1.98-2.11 1.59z" class="av"/><path d="m603.07 171.77-40.45 7.2 13.45 49.3 32.59-7.1-5.6-49.4Zm-23.19 48.4-10.36-36.38 28.01-6.12 5.26 38.22-22.9 4.28Z" class="an"/><path d="m616.02 194.02-7.94-9.06-9.45.75-4.97 8.31 2.95 2.36 5.21-4.9 11.37 7.33 2.83-4.79z" class="af"/><path d="m647.54 180.03-24.23 22.69 11.4 10 19.6-12.04-6.77-20.65z" class="ak"/><path d="m639.28 199.82-4.03 5.72-.54 7.18 6.73-5.09.57-5.28-2.73-2.53z" class="ar"/><path d="m698.34 98.63 2.73 14.44-19.5-7.3-2.64-13.55 19.41 6.41z" class="v"/><path d="m629.44 96.58 4.75-6.79 42.27 8.84 15.86 17.4 6.02 13.4-35.95-8.03-32.95-24.82z" class="bp"/><path d="m621.49 108.78-9.09 59.58 25.76 4.56 11.99 5.53 13.54 3.87 9.9-8.25 18.73-25.76-12.97-25.19-37.52-15.47-20.34 1.13z" style="fill:#d0ab92;fill-rule:evenodd;stroke-width:0"/><path d="m649.04 177.02 7.23-1.17 11.46-54.45 18.23 15.62 6.36 11.29-5.63 12.34-3.66 3.46-.77 6.24-3.22 7.06-14.57 9.42-16.93-6.8 1.5-3.01zM622.39 126.12l14.86 20.94 17.06-14.25-3.38-5.02-8.41 1.96-3.18 2.3-2.54 2.64-1.32-3.49-1.92-3.7-4.27-4.38-6.9 3z" class="by"/><path d="m635.48 131.2-4.35 14.69 2.51 1.17h3.61l2.09-15.01-3.86-.85z" style="fill:#d8bca9;fill-rule:evenodd;stroke-width:0"/><path d="m631.13 145.89 2.57 3.13 3.55-1.96-6.12-1.17zM622.39 150.77l27.04 4.69-9.25 7.56-13.74-2.41-4.05-9.84z" class="br"/><path d="m626.05 153.77 17.32 3.06-1.69 1.5-14.72-2.61-.91-1.95z" style="fill:#f9fafa;fill-rule:evenodd;stroke-width:0"/><circle cx="646.76" cy="139.25" r="2.41" class="bt"/><circle cx="626.77" cy="135.6" r="2.41" class="bt"/><path d="m638.16 172.92 28.66 4.62-10.16 4.88-9.12-2.39-9.38-7.11zM686.69 160.65l-10.23-2.78 5.8 12.48 4.43-9.7zM680.23 155.33l2.54-8.27 4.82 1.96-7.36 6.31z" class="br"/><path d="m622.39 126.12-.3-1.61 7.09-2.34 5.56 3.95-1.18 1.38-5.14-2.67-6.03 1.29zM642.52 129.75l-.69-1.82 8.59-1.17 4.79 4.44-.9 1.61-4.88-3.66-6.91.6zM668.54 133.19l-1.63 4.94 1.73 17.2 4.95.72 5.34-13.26 13.39 5.52 2.41-5.52-15.7-14.35-6.72 1.22-3.77 3.53z" class="an"/><path d="m678.93 142.79-12.02-4.66-.88-8.67 6.3.33 5.82 5.3.78 7.7z" style="fill:#545c6d;fill-rule:evenodd;stroke-width:0"/><path d="m621.49 108.78 6.72 3.12 4.94-1.3 2.14 4.59 4.17 1.93 4.63-.76 2.37 4.02 4.02 1.86 3.83-.07 2.16 2.85 3.74 1.74h3.94l1.88 2.7 4.34 2.02 4.49-.28 3.29 3.89 4.28 1.99 4.26-.24 2.07 3.18 5.97 2.77 3.61-13.36-68.9-32.85-7.95 12.2z" class="ao"/><path d="m628.21 111.9 9.88-11.19-2.8 14.48-7.08-3.29zM639.46 117.12l9.26-11.35-2.26 14.61-7-3.26zM650.48 122.24l8.36-11.64-2.36 14.4-6-2.76zM666.03 129.46l3.27-13.88-9.09 11.18 5.82 2.7zM670.37 131.48l8.98-11.1-1.2 14.71-7.78-3.61zM682.43 137.08l8.11-11.37-1.78 14.31-6.33-2.94z" class="x"/><path d="m634.19 89.79 58.13 26.24-12.09-26.95-46.04.71z" class="z"/><path d="m634.19 89.79 42.27-7.43 21.88 16.27-64.15-8.84z" class="av"/><path d="m701.07 113.07 8.21 2.12-4.11 4.5h-7.9l3.8-6.62z" class="af"/><path d="m709.28 115.19-3.78 9.64-8.23-5.14 12.01-4.5z" class="ar"/><path d="m652.49 180.65-8.4 55.58 2.67 15.38 22.54 6.81 31.77-13.02-7.15-30.06-7.23-14.94v-15.44l-34.2-4.31z" class="v"/><path d="m654.31 185.53-.67 5.92-1.9 1.2 1.53 1.98-3.05 26.74-2.28.97 2.02 1.28-.91 7.96-1.51.83 1.22 1.7-.82 7.19-1.91.9 1.63 1.51-.9 7.9-7.3-2.21.84-7.2 1.67-.9-1.29-2.4.76-6.55 1.18-1.31-.83-1.66.83-7.11 1.47-1.05-1.07-2.4 3.01-25.86 1.91-1.32-1.4-3 1-8.61 5.97 2.39.8 3.11z" class="bi"/><path d="m686.69 184.96-21.94 9.06-2.92-2.38-1.92-4.12-5.6-1.99-6.77-5.5 32.33-4.45 6.82 9.38z" class="ao"/><path d="m682.68 179.45-28.37 6.08 7.52 6.11 20.85-12.19z" class="n"/><path d="m686.43 196.75-7.5 2.05-12.67 22.59 14.56 4.7 13.1-10.75-7.49-18.59z" class="ak"/><path d="m686.69 184.96-7.76 13.84 14.99 16.54-7.23-30.38z" class="af"/><path d="m680.82 226.09-16.07-15.04-7.83 3.51-1.71 8.05 9.54 13.62 16.07-10.14z" class="ae"/><path d="m647.66 243.71-7.36-1.51.38-3.3 7.26 2.4-.28 2.41zM641.44 232.35l7.32 1.76.29-2.53-7.26-2.2-.35 2.97zM642.62 222.27l7.34 1.35.26-2.25-7.2-2.55-.4 3.45zM653.64 191.45l-7.1-2.81-.51 4.32 7.24 1.67.37-3.18z" class="av"/><path d="m662.94 183.8-25.52 33.48-3.46-.31.75-4.25 23.23-32.07 5 3.15z" class="bx"/><path d="m659.91 206.52-6.88-9.77-6.61 8.3v7.53l4.38 3.73 6.12-1.75 2.99-8.04z" class="ar"/><path d="m653.03 196.75-13.75 3.07.18 14.78 6.96-2.02 6.61-15.83z" class="af"/><path d="m634.71 212.72-3.29 8.5 6-3.94-2.71-4.56z" style="fill:#9a9fa9;fill-rule:evenodd;stroke-width:0"/><path d="m634.71 212.72-14.03-14.04-7.02 1.14.2 13.26 4.54 6.17 16.31-6.53z" class="ae"/><path d="m659.91 206.52 4.84 4.53-9.54 11.56-4.41-6.3 9.11-9.79zM616.02 194.02l4.66 4.66-6.82 14.4-7.22-9.71 9.38-9.35z" class="av"/><path d="m650.8 278 7.31 16.81 8.15 5.31 11.72-3.12-1.52-12.07L650.8 278z" class="m"/><path d="m678.93 304.45-.95-7.45-19.87-2.19 2.91 6.7 17.91 2.94z" class="al"/></g><g id="k"><path d="m426.75 205.79 10.8-6.44-2.29 10.61-8.51-4.17z" class="ak"/><path d="m477.95 175.64-11.24 29.51 2 15.28 10.89 4.89 6.04-11-3.95-21.6-3.74-17.08z" class="z"/><path d="m466.71 205.15-14.7-1.36-1.23 15.96 28.82 5.57-12.89-20.17z" class="bp"/><path d="m468.01 40.6-5.49-2.88-14.9 7.9.77 10.34L459.5 55l8.51-14.4zM430.01 57.87l10.34-16.27 7.27 4.02-10.91 18.95-4.02-2.1-2.68-4.6z" class="ao"/><path d="m424.84 104.58 5.17-46.71 5.74 2.55v39.74l-4.53 11.72-6.38-7.3z" class="bi"/><path d="m431.22 106.94-6.38-2.36 17.04 205.53 7.42 1.84 3.24-28.56-15.26-175.11-6.06-1.34z" class="bw"/><path d="m464.16 98.3 9.7-41.19-5.85-16.51-19.62 15.36-3.25 48.62 7.4 1.65 11.62-7.93z" class="ak"/><path d="m465.45 152.3 3.74 156.42-7.47 1.89-6.94-46.55-12.07-144.01 6.64-18.68 16.1 50.93z" class="v"/><path d="m449.35 101.37 14.81-3.07 1.29 54-12.91 3.01-9.83-19.89 6.64-34.05z" class="af"/><path d="m449.3 311.95-7.96-90.3-4.04-7.09 2.75-7.54-3.99-45.25 1.61-35.92-6.45-18.91 9.06-13.55 9.07 7.98-2.88 23.94 6.07 30 9.18 155.3-12.42 1.34z" class="aq"/><path d="m431.22 106.94 4.53-46.52 11.87-14.8 7.16 14.8-5.43 40.95-12.07 6.91-6.06-1.34z" class="z"/><path d="m431.22 106.94 18.13-5.57 3.19 53.94-16.48 6.46-4.84-54.83z" class="as"/><path d="m440.67 63.36 5.8-8.17 3.77 6.23-9.57 1.94z" class="ac"/><path d="m457.82 55.96 7.63-6 2.56 7.15-10.19-1.15z" class="bi"/><path d="m578.85 242.48-6.05-11.66-7.42 1.7 7.51 13.2 5.96-3.24z" class="an"/><path d="m552.4 192.13-20.27 34.88 15.62 5.31 15.15-19.67-10.5-20.52zM480.15 251.78l-3.3 25.58 8.2 13.25 14.85-2.48 14.48-23.75-34.23-12.6z" class="aq"/><path d="m499.9 288.13-23.05-10.77-1.2 9.36 9.11 9.37 10.39-.18 4.75-7.78z" class="bq"/><path d="m473.94 298.49-4.93 2.79-11.29 9.75 18.62 1.44 13.82-1.38.7-8.15-12.91-7.59-4.01 3.14z" class="bi"/><path d="m478.57 298.23-6.25 5.62-3.31-2.57 5.36-4.67 2.48-1.26 1.72 2.88z" class="bv"/><path d="m501.88 269.43 4.15 14.38 13.05 6.8 13.05-3.51 7.45-34.32-27.53 8.06-10.17 8.59z" class="av"/><path d="m532.13 287.1-26.1-3.29 3.03 10.5 11.04 3.92 10.57-3.83 1.46-7.3z" class="aq"/><path d="m511.43 302.53-5.4 12.62 13.27 1.86 10.75-1.86-1.62-9.48-5.72-3.67-2.84-.74h-2.79l-5.65 1.27z" class="bi"/><path d="M530.04 318.88h-24.02v-3.73h24.02zM490.15 314.75h-32.44v-3.73h32.44z" class="bg"/><path d="m480.15 251.78 21.73 17.65 37.7-16.65-26.15-3.63-12.45-7.69-7.64 5.74-13.19 4.58z" class="bp"/><path d="m484.07 179.59 9.27-4.12 6.36 8.73 5.11 12.24 16.88-5.74 16.7-3.67 7.8 8.66-5.17 31.32-2.63 8.05 1.19 17.72-31.66 5.4-6.94-15.83-8.5 14.03-12.33-4.6-.74-35.88 4.66-36.31z" class="bv"/><path d="m543.41 173.13-6.3-6.59-.96 6.03-3.82 6.37 11.08-5.81zM500.04 159.19l-12.5 6.57 5.8 9.71 11.47 20.97-.61-21.32-4.16-15.93z" class="bq"/><path d="m541.02 227.01-2.63-39.98 14.01 5.1-11.38 34.88zM477.95 175.64l1.46 40.26 13.93-40.43-15.39.17z" class="av"/><path d="m486.31 204.75 14.58 1.91-.52 3.3-14.59-1.9.53-3.31z" class="bc"/><path d="m543.41 102.27-31.9-4.69-16.02.26-3.05 14.09 2.04 8.54-5.31 6.52-5.86 27.06 16.73 5.14 2.29 7.26 2.34 4.76 15.33 8.38 12.62-7.96 16.9-27.04 12.11-19.14-18.22-23.18z" class="ba"/><path d="m538.75 106.65-17.16 58.83-19.57 1.25-.18 7.43 2.97 22.28 19.34-11.14 11.7-10.7 11.13-17.34.39-4.92-.15-10.64 12.26-3.94 1.01-16.06-9.6-13.77-12.14-1.28zM504.23 135.19l10.51-14.98 13.33-4.32-9.56-4.69h-5.7l-3.92 4.75-5.56 10.01.9 9.23zM503.18 114.58l-.62-4.85-4.52-2.37-4.52-.42 7.09 22.31 2.57-14.67z" class="w"/><path d="m542.31 142.63 9.48 7.12-4.81 7.5-4.67-14.62zM506.89 124.19l17.37 14.53 7.15-6.9 3.05-.11 5.58-3.88-11.97-1.93-21.18-1.71zM501.12 123.1l-11.95 3.89.51-2.35 2.33-4.17 9.11 2.63z" class="bj"/><path d="m546.76 113.4-6.87 10.23.15 4.2-5.58 3.88-5.34 7.96 9.21 8.62 11.04-15.7.43-4.47 9.68 9.64 5.72-8.81-9.19-11.13-9.25-4.42z" class="z"/><path d="m501.12 115.89 10.29 3.45-4.52 4.85-2.66 11-2.86.65-2.85-2.04 2.6-10.7v-7.21z" class="q"/><path d="m528.07 115.89-10.57-7.19-4.69 2.5 15.26 4.69zM502.56 109.73l-4.52-4.73-4.52 1.94 9.04 2.79z" class="aq"/><path d="m489.47 136.88 32.14 7.78-12.18 6.16-13.94-3.23-6.02-10.71z" class="bj"/><path d="m493.17 139.87 22.58 5.44-6.76 3.76-12.07-2.83-3.75-6.37z" style="fill:#fff;fill-rule:evenodd;stroke-width:0"/><path d="m498.52 133.8 2.46 4.07 3.25-2.68-5.71-1.39z" class="bj"/><path d="m534.46 131.71 14.91.88 1.01-1.43-7.96-2.21-6.59.73-1.37 2.03z" class="bq"/><path d="m500.04 159.19 28.18 8.22-26.38 6.75-1.8-14.97z" class="bj"/><path d="m507.71 80.96 51.77 13.21 9.64 16.14-33.27-12.47-28.14-16.88z" class="av"/><path d="m538.75 106.65 26.45 22.3 3.92-18.64-23.68-11.59-7.02 1.66.33 6.27z" class="aq"/><path d="m538.75 106.65 6.69-7.93-37.73-17.76-4.07 10.72 3 11.59 32.11 3.38z" class="z"/><path d="m507.71 80.96-26.46-6.12 14.24 23 11.15 5.43 1.07-22.31z" class="av"/><path d="m530.13 121.03 28.62 6.9.73 9.83-9.1-6.6-22.31-2.35.26-4.34 1.8-3.44zM503.18 114.58l5.71 1.37.3 2.43-1.51 2.55-5.69-1.43-.62-2.08 1.81-2.84z" class="ax"/><path d="m485.36 110.31 17.82 4.26-2.06 8.52-19.42 2.63 3.67-15.41Zm23.53 5.64 21.24 5.08-4.11 15.56-19.12-12.4 2-8.24Z" class="an"/><path d="m519.3 180.02 24.11-6.89-5.02 13.9-33.58 9.41 14.49-16.42z" class="av"/><path d="m538.39 235.06-33.72-14.88h-3.69l-21.26 10.92 21.26 11.25 37.41-7.29z" class="at"/><path d="m504.81 196.44-.14 23.74-3.69 22.17v-22.17l3.83-23.74zM562.9 212.65l-30.28 19.87 1.5 8.94 5.09 5.75 33.59-16.39-9.9-18.17z" class="bc"/><path d="m532.62 232.52-7.52 4.82 14.11 9.87-6.59-14.69z" class="v"/><path d="m530.67 294.4-21.61-.09 2.37 8.22 17 3.14 2.24-11.27zM495.15 295.91l-19.5-9.19-.5 3.89 3.42 7.62 12.29 4.71 4.29-7.03z" class="bp"/><path d="m478.57 298.23 1.15-6.23-4.57-1.39-.78 6 4.2 1.62z" class="at"/><path d="m581.85 247.2-44.47 17.28-8.26 7.21 3.01 15.41 53.43-10.92 7.49-20.74-11.2-8.24z" class="an"/><path d="m537.38 264.48 55.67-9.04-14.2-12.96-57.96 7.19 4.54 10.39 11.95 4.42z" style="fill:#787f8d;fill-rule:evenodd;stroke-width:0"/><path d="m522.32 251.88 4.47 3.08 10.59 9.52-5.25 22.62-17.29-15.41 4.23-15.41 3.25-4.4z" class="al"/><path d="m538.39 187.03-19.31 69.25 7.71-1.32 16.99-65.97-5.39-1.96z" class="an"/><path d="m553.2 267.48-5.49 2.04-.69 2.76 2.65 1.02-3.52 2.28-.1 1.79 4.72-2.09 1.58-3.4-3.35-1.03 4.37-1.71-.17-1.66zM559.55 267.45l-4.4.57-2.39 7.67 2.39-.07.12-3.28 3.49-.65.8-4.24Zm-2.71 3.47-1.4-.13.41-1.62 1.37.37-.38 1.38ZM565.74 266.87l-4.71.91-1.29 6.81 5.02-1.28.97-6.45Zm-2.6 5.26-1.76.1.62-2.71 2.09-.09-.96 2.7ZM572.09 272.48l-.94-2.47 1.41-4.38-4.24.55-2.2 7.51 2.31-.06.07-3.21 2 2.76 1.6-.69Zm-3.08-5.17 1.33.37-.35 1.35-1.36-.13.38-1.59ZM573.95 265.8l6.15-1.61-.39 1.71-2.72.7-.86 5.24-2.23.31 1.7-5.03-2.22.38.57-1.7z" class="o"/><path d="m550.38 131.16 9.1 6.6-7.69 11.99-9.48-7.12 8.07-11.47z" class="ba"/><path d="m547.22 141.7 3.7-6.39 5.47 3.78-9.17 2.61z" class="bj"/><path d="m522.71 304.54-.85 5.99h-6.9l2.27-6.96 2.64-.63 2.84 1.6z" class="bv"/><path d="M522.69 304.61v-6.12l-5.82-.59.35 5.7 5.47 1.01z" class="at"/><path d="m426.75 205.79 13.3 1.23 1.29 14.63-6.64 1.93-7.95-17.79z" class="v"/></g><g id="l"><path d="m242.75 213.87 5.21-8.01 10.78-.8-2.81 15.07-13.18-6.26z" class="ar"/><path d="m247.96 205.86 18.05-6.61 2.02 19.22-7.88 5.4-12.19-18.01zM166.36 219.65l16.82-4-18.4 21.2 1.58-17.2z" class="af"/><path d="m152.08 244.75 14.28-25.1 2.25 26.52-16.53-1.42z" class="ar"/><path d="m180.87 243.98-28.79.77 9.91 13.63 12.37-6.81 6.51-7.59z" class="af"/><path d="m187.84 276.74 3.41 17.69-3.41 3.28h-4.66l-11.15-16.96 15.81-4.01z" class="bi"/><path d="m191.25 294.43 7.34 10.02H185.5l-2.32-6.74 8.07-3.28z" class="bx"/><path d="m204.42 249.62-23.55-5.64-9.71 5.64 25.01 11.79 3.59-4.03 4.66-7.76zM227.18 240.43l-22.76 9.19 21.48 5.36 2.97-7.15-1.69-7.4z" class="ao"/><path d="m247.96 280.88-4.03 20.56-2.04 3.65-5.52-1.63-4.57-13.85 16.16-8.73z" class="aq"/><path d="m268.03 265.25 5.53-7.07-3.55-15.84-29.78-7.59-3.86 5.93 15.83 16.27 15.83 8.3z" class="ae"/><path d="m236.37 249.62 9.7 16.04 1.89 15.22 20.07-15.63-26.3-24.06-5.36-.51v8.94z" class="bo"/><path d="m257.31 247.83 10.72 17.42 6.41 3.14 5.66-11.01-2.62-10.31-11.26-3.09-8.91 3.85z" class="as"/><path d="m264.36 245.99 9.2 13.27-2.18-15.28-7.02 2.01zM268.03 265.25l12.07-7.87 3.64 14.32-13.73 6.09-1.98-12.54z" class="af"/><path d="m268.03 218.47 8.11 12.57-19.73 7.09-10.34-11.74 4.02-5.88 17.94-2.04z" class="bc"/><path d="m225.9 220.51 1.28 19.92 9.19 9.19 5.36-8.43 15.58 6.64 12.7-5.49-1.47-11.1-11.74 3.57-10.73-8.42-5.93-6.83-14.24.95z" class="ac"/><path d="m257.31 247.83 20.17-.76 3.52-4.66 3.53.29 5.28-3.27-5.18-13.56-8.49 5.17-7.6.2-11.23 16.59z" class="bo"/><path d="m242.75 213.87 25.28 4.6-21.96 7.92-20.17-5.88 16.85-6.64z" class="ao"/><path d="m277.48 247.07 2.5-10.22 4.55 5.85-7.05 4.37z" class="av"/><path d="m268.54 231.24 16.09-5.37-4.65 10.98-11.44-5.61z" style="fill:#3d4554;fill-rule:evenodd;stroke-width:0"/><circle cx="258.04" cy="229.13" r="2.11" class="am"/><circle cx="267.33" cy="225.78" r="2.11" class="am"/><path d="m247.96 280.88-27.07 20.56-2.87-14.83 12.06-26.59h12.58l5.3 20.86z" class="bi"/><path d="m220.89 301.44-53.08-12.55 5.21-11.1h17.04l27.96 7.6 2.87 16.05z" class="aq"/><path d="m236.37 303.46 2.58 8.71h13.25l-8.27-10.73-7.56 2.02z" class="bx"/><path d="m204.85 281.81-14.79-4.02-18.9-12.13v-16.04l23.11 7.33 10.58 8.77v16.09z" class="bo"/><path d="m230.08 260.02-2.11-9.4-6.26 1-17.29-2-10.15 7.33 10.58 24.86 9.72 1.86 12.83-8.15 2.68-15.5z" class="ac"/><path d="m227.4 275.52-4.98 33.44-1.53 5.37-6.7-2.16-9.34-30.36 22.55-6.29z" class="av"/><path d="m214.19 312.17 2.68 7.84h13.21l-7.66-11.05-8.23 3.21z" class="bx"/><path d="m171.16 249.62-19.91 10.4 3.96 21.79 9.7 1.86 25.15-5.88-18.9-28.17z" class="ac"/><path d="m190.06 277.79-22.25 11.1-7.07 5.42-8.66-.47 3.13-12.03 34.85-4.02z" class="av"/><path d="m167.81 288.89 2.82 16.2-2.98 3.87h-4.66l-10.91-15.12 15.73-4.95z" class="bi"/><path d="m170.63 305.09 7.77 10.61h-13.09l-2.32-6.74 7.64-3.87zM227.18 240.43l9.19 9.19.46 11.03-6.88.15-8.24-9.18 5.47-11.19z" class="bx"/><path d="m236.37 249.62 22.37 22.86-10.78 8.4-18.01-20.08 6.42-11.18z" class="m"/><path d="m227.27 249.56 3.77-.13.06 3.76-3.32.2-.51-3.83z" style="fill:#bbbfc6;fill-rule:evenodd;stroke-width:0"/><path d="m235.33 257.22 3.96.19-.13 3.63-3.77.26-.06-4.08zM241.28 263.93l4.09-.13-.2 3.83-3.95-.13.06-3.57zM247.96 270.12l4.34.26-.64 3.64-3.64.06-.06-3.96z" class="aw"/><path d="m211.87 217.71 20.09-8.6 5.35 25.9-10.13 5.42-15.31-22.72z" class="af"/></g></svg>