<svg xmlns="http://www.w3.org/2000/svg" id="a" viewBox="0 0 900 350"><defs><style>.j{fill:#404857}.aa,.ab,.ae,.ah,.ai,.aj,.ak,.al,.am,.an,.ar,.as,.aw,.ay,.az,.ba,.bc,.bd,.be,.bf,.bg,.bh,.bi,.bk,.bl,.bm,.j,.k,.l,.m,.o,.p,.q,.r,.s,.t,.u,.v,.w,.x,.z{stroke-width:0}.aa,.ab,.ae,.ah,.ai,.aj,.ak,.al,.am,.an,.ar,.as,.aw,.ay,.az,.ba,.bc,.bd,.be,.bf,.bg,.bh,.bk,.bl,.bm,.j,.k,.l,.m,.o,.p,.q,.s,.t,.u,.v,.w,.x,.z{fill-rule:evenodd}.k{fill:#ccae2d}.l{fill:#9e7700}.m{fill:#eeeff1}.o{fill:#5f5044}.p{fill:#2e3544}.q{fill:#e8cab6}.r{fill:#664e1a}.s{fill:#46382d}.t{fill:#c3987b}.u{fill:#3d4554}.v{fill:#7d5f1f}.w{fill:#74665b}.x{fill:#856400}.z{fill:#68707f}.aa{fill:#9b6533}.ab{fill:#e9be61}.ba{fill:#f6e6c4}.ae{fill:#bbbfc6}.ai{fill:#454d5d}.ah{fill:#eece88}.aj{fill:#f4d75c}.ak{fill:#29303e}.al{fill:#886822}.am{fill:#7c4f24}.an{fill:#af7546}.ar{fill:#9f7928}.as{fill:#d8a537}.aw{fill:#fff}.ay{fill:#dfbda5}.az{fill:#aa822b}.bc{fill:#8b6651}.bd{fill:#e4c824}.be{fill:#1d2432;opacity:.1}.bf{fill:#c29431}.bg{fill:#947125}.bh{fill:#755800}.bi{fill:#232a38}.bk{fill:#b68b2e}.bl{fill:#fff7ae}.bm{fill:#4b5464}</style></defs><g id="b"><path d="M20.02 308.89 137.7 292.9l15.05-7.05 39.24 5.91 103.03 7.11-85.26 21.85-75.07 7.67-114.67-19.5zM561.3 311.39l-55.45-7.67-6.6-1.97-24.61 3.54-34.83 9.84 45.25 12.26 51.69-5.36 24.55-10.64zM612.91 299.21l112.65-15.27 101.53 5.9 66.36 13.88-66.26 18.42-95.46 5.05-91.39-14.3-27.43-13.68zM429.9 278.49l87.39-12.24 21.9-2.75 9.93-1.67 116.63 7.22-24.86 10.72-63.51 17.44-54.74.82-92.74-19.54zM218.34 323.73l27.77-3.59 94.51 7.04 22.21 17.47-126.09-5.58-18.4-15.34z" class="be"/></g><g id="c"><path d="M557.36 43.92 602.29 10l-10.96 42.53-33.97-8.61z" class="bl"/><path d="m602.29 10 51.18 17.51-22.45 33.54L588.94 38l13.35-28zM557.36 43.92l11.08 50.59 33.85-14.93L588.94 38l-31.58 5.92z" class="aj"/><path d="m627.88 46.69-7.82 50.91-33.35-18.02L588.94 38l38.94 8.69z" class="bd"/><path d="m653.47 27.51 7.59 47.16-23.47-6.31-9.71-21.67 25.59-19.18z" class="bd"/><path d="m614.13 84.1 13.75-37.41 33.18 27.98-26.47 15.04-20.46-5.61z" class="k"/><path d="m624.88 116.17-56.44-21.66 18.27-14.93 27.42 4.52 16.54 9.36-5.79 22.71z" class="k"/><path d="m614.13 84.1 10.75 32.07 36.18-41.5-46.93 9.43z" class="ar"/><path d="m100.68 57.1 24.62 13.03L94.1 93.6l6.58-36.5z" class="bl"/><path d="m100.68 57.1-24.25 4.82-1.6 38.39 26.61-18.82-.76-24.39z" class="aj"/><path d="m125.3 70.13 10.56 21.07-29.14 13.44-5.28-23.15 23.86-11.36z" class="aj"/><path d="m101.44 81.49-20.49 8.42 14.76 30.73 15.48-24.18-9.75-14.97z" class="bd"/><path d="m135.86 91.2-14.69 33.37-21.1-2.84-4.36-9.9 15.48-15.37 24.67-5.26z" class="k"/><path d="m80.95 89.91-4.52-27.99-17.64 15.33 9.67 11.52 12.49 1.14z" class="bd"/><path d="m58.79 77.25-2.83 27.39 16.27-1.07 8.72-13.66-22.16-12.66z" class="k"/><path d="m55.96 104.64 9.92 17.09 15.07 1.28 14.76-11.18-14.76-21.92-24.99 14.73z" class="az"/><path d="m95.71 111.83 25.46 12.74-28.91 11.57-4.12-13.13 7.57-11.18z" class="ar"/><path d="m92.26 136.14-26.38-14.41 29.83-9.9-3.45 24.31z" class="al"/><path d="m747 35.37-17.98 9.9 24.33 15.43L747 35.37z" class="bl"/><path d="m747 35.37 18.58 6.15-2.81 19.18L748.6 52 747 35.37zM729.02 45.27l-6.19 18.18 12.88 11.61L748.6 52l-19.58-6.73z" class="aj"/><path d="m759.78 54.01 1.13 25.34-27.82-11.3L748.6 52l11.18 2.01zM765.58 41.52l13.48 15.14-19.28-2.65 5.8-12.49z" class="bd"/><path d="m722.83 63.45 12.14 20.12 3.67-6.38-5.55-9.14-10.26-4.6z" class="bd"/><path d="m756.29 73.15-1.8 8.42-8.44 7.11-11.08-5.11-1.88-15.52 23.2 5.1zM779.06 56.66l-6.96 23.4-13.5.2-2.31-7.11 3.49-19.14 19.28 2.65z" class="k"/><path d="m772.1 80.06-26.05 8.62 10.24-15.53 15.81 6.91z" class="ar"/></g><g id="d"><path d="m691.75 82.94 1.67-11.6 4.94 10.23 9.69-2.37-8.17 6.18 5.9 9.03-9.06-5.12-5.93 7.76 1.58-9.26-9.56-2.43 8.94-2.42zM648.17 133.01l5.63-10.9-.65 12.81 8.91 3.75-9.45-.3.52 10.09-5.21-9.47-8.25 3.07 6.41-5.62-4.75-6.54 6.84 3.11zM525.48 30.18l-1.72-14.36 8.23 13.41 12.45-2.49-9.96 6.13 6.9 9.95-11.11-6.12-8.04 9.76 3.83-11.49-11.68-2.87 11.1-1.92zM416.78 135.3l1.4-10.72 4.19 9.17 8.7-2.33-6.83 5.43 6.06 6.37-8.55-3.26-4.35 6.84.78-7.77-9.01-1.09 7.61-2.64zM280.7 35.25l9.38-11.88-3.83 13.79 11.3 4.02-12.26.77 1.73 13.21-5.75-10.53-10.53 2.87 8.43-7.08-8.05-8.43 9.58 3.26zM241.71 84.07l.97-9.87 4.53 8.58 9.07-2.59-7.45 5.82 5.83 8.42-8.58-4.69-4.69 7.61.97-8.91-8.42-1.78 7.77-2.59zM154.05 46.13l4.98-6.13-.96 7.47 7.28 3.45-7.47-.2-.57 7.47-2.69-6.89-6.89 1.72 5.17-4.59-4.98-4.6 6.13 2.3zM58.16 174.31l-1.84-8.46 5.84 7.23 8.46-2.92-6.61 5.99 5.53 5.39-7.07-2.31-2.15 6.92-.93-7.84-7.68-.16 6.45-3.84zM562.94 149.48l.38-8.43 3.25 7.66 6.71-.96-5.56 3.64 3.07 6.13-5.17-4.41-3.64 5.75 1.34-6.7-6.7-2.3 6.32-.38zM386.06 43.66l-.76-9.19 4.85 8.42 8.68-2.04-7.4 4.85 5.36 6.64-7.15-4.08-4.09 6.63 1.28-7.91-8.17-3.07 7.4-.25zM428.96 25.94l6.89-16.34 1.02 18.13 12.51 2.55-12.76 2.55 2.29 15.83-7.65-13.78L419 41.26l7.4-9.19-9.95-9.96 12.51 3.83z" class="aj"/></g><g id="e"><path d="m549.09 282.33-7.66 11.03-10.34-1.26-22.49-2.89 2.75-10.84 37.74 3.96z" class="bg"/><path d="m581.12 279.65 1.79 10.7-41.48 3.01 1.77-7.96 8.82-4.22 29.1-1.53z" class="al"/><path d="m511.35 278.37 35.28-4.7 34.49 5.98-37.92 5.75-31.85-7.03z" class="bk"/><path d="m539.19 263.5 1.47 16.88h4.98l5.17-27.55-11.62 10.67z" class="o"/><path d="m432.04 210.78-15.22 41.5 10.08 1.05 4.34-1.83.8 2.37 4.03.41 10.06-4.78 5.46 3.5 10.24 4.04 10.34-5.56 8.61 6.32 29.5 3.58 7.32-4.37 4.4 3.83 17.19 2.66 8.49-26.94 5.62-26.57-121.26.79z" class="ah"/><path d="m539.19 263.5 15.79-2.66 2.45-2.62 4.13 1.51 8.94-1.51 7.18-1.21 3.44-5.51 10.62 4.07 36.03-3.69 2.95-2.38 7.48 1.31 16.66-1.71-13.41-42.05-70.02 1.94-29.23 10.81-3.01 43.7zM460.46 213.11 451.59 253l-15.52 1.28 24.39-41.17zM461.83 257.04l23.14-37.24 4.77-5.42-8.96 43.42-18.95-.76z" class="ab"/><path d="m577.68 257.01-7.18-40.85 3.59-1.78 17.65 41.19-14.06 1.44zM570.5 258.22l-8.65-42.87-7.65 2.9 16.3 39.97zM599.24 254.8l-11.22-44.02 13.64 1.38-2.42 42.64zM561.56 259.73l-8.26-20.13 1.68 21.24 6.58-1.11zM618.82 209.95l8.95 41.93 10.43-1.07-19.38-40.86z" class="as"/><path d="m426.9 253.33 15.64-32.62-10.5 33.16-5.14-.54zM531.6 218.93l-2.19 9.07-7.41 32.84-11.72.54 12.67-44.5 8.65 2.05z" class="ab"/><path d="m432.04 210.78 110.16 9.02 99.25-12.75-88.6-8.86-120.81 12.59z" style="fill:#f6e6c4;stroke-width:0"/><path d="m588.91 204.42 12.75 1.02-9.92 4.55-20.31-1 8.29-3.03 9.19-1.54z" class="be"/><path d="m560.76 202.93 8.88-27.41 10.08 21.45-10.28 8.47-5.8-1.02-2.88-1.49z" class="ae"/><path d="m566.93 203.7 8.26-25.51 14.61 23.69-16.95 5.93-5.92-4.11z" class="m"/><path d="m560.76 202.93 11.94 1.49 1.41 2.35-2.68 2.22-11.67-.81 1-5.25z" class="an"/><path d="m572.7 204.42 17.1-2.54 1.16 5.17-19.53 1.94 1.27-4.57z" class="aa"/></g><g id="f"><path d="M724.19 274.94h13.48l2.71 33.13-14.46-1-3.38-27.68 1.65-4.45z" class="o"/><path d="m715.75 279.39 3.57 28.35 10.24-1.4-2.58-30.48-11.23 3.53z" class="w"/><path d="m691.11 313.44 7.07-.96 3.67-39.56-14.55 2.05v17.71l3.81 20.76zM648.3 306.74l6.97-1.63 5.59-39.08-12.56 3.32-3.64 22.16 3.64 15.23z" class="o"/><path d="m640.89 172.53-10.27 6.04 11.27 81.97-2.87 44.57 9.28 1.63 3.01-31.04 5.61-3.29 22.98 4.21 2.02 35.86 9.19.96-1-29.54v-17.87l-34.84-33.4-6.97-33.62-7.41-26.48z" class="w"/><path d="m640.89 172.53 60.84-4.46 11.2 79.58-61.89 8.36-10.15-83.48z" class="o"/><path d="m654.92 189.71 36.62-3.96 6.64 49.58-36.92.3-6.34-45.92z" class="w"/><path d="M757.5 289.73v4.42l-3.08 3.16 3.08 2.29v5.76h-25.01l1.45-3.43 15.53-13.82 8.03 1.62z" class="ay"/><path d="m732.3 300.29 4.48-3.18 4.37 5.93-4.78 1.32-4.07-4.07z" class="aa"/><path d="m729.49 305.36-3.57-8.15 11.75 4.84 8.16 2.31-16.34 1z" class="t"/><path d="m757.5 294.15-11.14 7.53 2.01 2.68 9.13-4.76v-5.45z" class="aa"/><path d="m707.81 310.07-2.68 6.94 32.54 5.7 10.47-12.64h-40.33z" class="bg"/><path d="m737.67 322.71 27.25-2.82 9.12-2.39-1.1-7.43h-22.15l-12.21 4.94-.91 7.7z" class="al"/><path d="m707.81 310.07 35.47-9.13 29.66 9.13-34.36 2.94-30.77-2.94z" class="bk"/><path d="m733.94 281.35 4.64 25.72h6.71l3.08-15.51-6.34-10.21h-8.09z" class="u"/><path d="m826.68 310.07-8.42-1-3.65-27.43v-6.7h12.71v12.04l-.64 23.09z" class="bg"/><path d="m829.77 170.08 15.06 5.49-15.06 86.37 3.26 19.42 4.27 27.38-10.62 1.33-5.5-37.66-24.7 9.51-3.26 32.52-7.62 1.45-4.25-21.68 4.76-38.2 32.15-37.67 11.51-48.26z" class="v"/><path d="m829.77 170.08-22.6-2.36-36.23-4.18-5.04 29.07-8.15 43.22 63.65 5.77 8.37-71.52z" class="bg"/><path d="m814.49 189-18.91-2.41-12.98 13.44 28.85 12.82 3.04-23.85z" class="v"/><path d="m783.77 301.6 1.21 9.43-12.56 3.98-1.12-10.28 6.38-11.17 6.09 8.04z" class="ay"/><path d="m785.6 315.89-.62-4.86-13.68-6.3-2.38 4.1 5.12 4.52 11.56 2.54z" class="aa"/><path d="m785.6 315.89-16.68-7.06-4 7.06 9.76 2 10.92-2z" class="t"/><path d="m748.37 291.56 35.4 10.04 12.71-19.68-10.37-11.04-37.74 20.68z" class="ai"/><path d="M764.92 315.89h20.68v4h-20.68z" style="fill:#454d5d;stroke-width:0"/><path d="m768.94 201.06-17.86 19.11 9.01 4.35 6.27-7.91 2.58-15.55z" class="ay"/><path d="m768.94 201.06 6.51-11.94 8.9 4.15 1.76 8.73 13.88-1.12 11.46 11.97-16.22 7.32-18.19-3.37-8.1-15.74z" class="ay"/><path d="m791.01 203.62 17.52-3.43 2.92 12.66-16.22 7.32-8.34-1.54 4.12-15.01z" class="t"/><path d="m837.06 147.49 12.46-10.33-14.14 2.02 1.68 8.31z" class="aa"/><path d="m839.5 124.66-2.44 22.83-8.87-14.28-1.51-5.1 12.82-3.45z" class="am"/><path d="m815.16 127.46 8.95-10.2 15.39 7.4-11.31 8.55-5.67-.19-7.36-5.56z" class="aa"/><path d="m821.18 138.58 7.01-5.37-13.03-5.75-.55 5.56 6.57 5.56z" class="aj"/><path d="m735.83 118.72-4.87 62.16 36.13 4.84 17.26 7.55 30.26-37.66-16.87-34.37-24.4-9.47-37.51 6.95z" class="ay"/><path d="m778.59 195.77-.25-6.75 7-44.9 10.19-11.96 19.08 23.45-7.44 12.11-7.79 3.33.74 8.15-4.54 7.39-9.71 13.21-4.38-1.63-2.9-2.4z" class="t"/><path d="m767.09 185.72 18.12 2.47-6.62 7.58-11.5-10.05zM807.17 167.72l-6.22-2.74-3.86 1-.61 7.55 3.64 5.67 7.05-11.48zM803.17 162.55l2.34-7.25 5.17 2.14-7.51 5.11z" class="bc"/><path d="m739.94 138.53 17.81 17.26 16.22-12.46-6.13-3.06-6.82.59-5.34 2.47-3.66-4.15-6.13-1.98-5.95 1.33z" class="t"/><path d="m752.02 139.18 9 1.68-3.27 14.93h-3.53l-3.14-1.13.94-15.48z" class="q"/><path d="m751.08 154.66 3.05 3.77 3.62-2.64-6.67-1.13z" class="bc"/><circle cx="766.34" cy="150.42" r="2.32" class="bi"/><circle cx="746.1" cy="147.06" r="2.32" class="bi"/><path d="m735.83 118.72 52.79 23.23 14.55-9.65 3.49-20.53-41.93-12.66-3.71 9.71-11.11.35-14.08 9.55z" class="an"/><path d="m785.34 144.12 9.4 10.54 8.43-4.24h8.9l6.19-4.27 2.92-7.57-14.52-26.81-21.32 32.35z" class="aa"/><path d="m749.91 109.17 43.31 22.99h6.16l-.5-8.59-34.15-24.46-14.82 10.06z" class="aa"/><path d="m793.22 132.16 9.95 18.26 11.44 5.19 3.65-9.46-19.38-22.58-5.66 8.59z" class="am"/><path d="m735.83 118.72 54.1 18.44 2.14 3.7-6.73 3.26-49.51-25.4z" class="aa"/><path d="m785.34 144.12 4.59-6.96 13.24 13.26-6.69 12.13-11.14-18.43z" class="am"/><path d="m752.02 139.18-1.88-3.56-8.31.79-1.89 2.12 12.08.65zM761.02 140.86l2.96-3.06 9 2.86.99 2.67-12.95-2.47z" class="aa"/><path d="m743.28 163.54 2.97 5.21 13.71 2.3 4.16-3.95-10.16-1.32-10.68-2.24z" class="az"/><path d="m742.03 161.3 6.79 2.37 5.01-1.05 3.96 2.24 8.57.13-2.24 2.11-11.34.46-9.5-4.02-1.25-2.24z" class="v"/><path d="m768.94 201.06 12.1 7.58 11.62 6.19 18.79-1.98 3.95 16.81-29.07 1.58-24.72-5.47 7.33-24.71z" class="ai"/><path d="M795.58 186.59 780 199.4l6.11 2.6 9.47-15.41z" style="fill:#e4ae3a;fill-rule:evenodd;stroke-width:0"/><path d="m796.48 162.55 4.47 2.43-4.47 8.55-3.26-2.48 3.26-8.5z" class="bl"/><path d="m778.59 195.77 2.9 2.4 4.62 3.83-5.07 6.64-2.45-12.87z" class="bf"/><path d="m623 229.63-13.57 42.27 31.45 4.32 5.82-3.26 4.61 2.74 16.63 1.65 22.17 6.55 9.91-7.28 8.73 5.3 39.62 9.64 6.05-56.42L623 229.63z" class="ah"/><path d="m748.37 291.56 30.22-6.05 3.76-4.16 4.25 2.55 9.88-1.98 4.47-4.34 4.33 4.2 9.33-.14 3.65-4.63 14.83 4.34 8.05-2.12 2.58-5.4 6.9 1.11 25.64-2.98-13.88-42.8-76.05 2.08-41.03 10.36 3.07 49.96zM640.88 276.22l14.39-43.59-3.96 43.07-10.43.52zM667.94 277.35l-2.19-43.67h23.15l-20.96 43.67zM690.11 283.9l9.51-50.22 10.31 4.4-1.18 43.84-18.64 1.98zM716.88 283.9l5.14-47.87 6.18 3.87-11.32 44z" class="ab"/><path d="m771.25 286.98-7.3-50.95h11.82l-4.52 50.95zM796.48 281.92l-4.34-45.3 40.95 44.73-18.48.29-13.66-25.63 4.33 25.77-8.8.14zM841.14 279.23l-19.74-49.71 17.09.52 12.13 44.9-9.48 4.29zM778.59 285.51v-47.45l8.01 45.84-8.01 1.61z" class="as"/><path d="m623 229.63 118.36-13.24 121.02 12.77L745.3 241.6 623 229.63z" class="ba"/><path d="m740.91 227.49 7.64-7.57 19.43 1.01 21.09.72 18.1 2-23.4 3.84-9.73-3.28-8.91 1.6-24.22 1.68z" class="be"/><path d="m808.53 200.19-24.76 27.3-9.85-8.05 21.66-32.85 12.95 13.6z" class="ay"/><path d="m783.77 227.49-17.87-34.88-5.28 3.56-1.17 3.98 5.68 25.66 18.64 1.68zM761.39 184.24l-2.88-2.04-9.26 6.92-5.04 4.45 8.02 2.23 7.5-.03 4.54-6.92-2.88-4.61z" class="t"/><path d="m764.27 188.85-12.04 6.95 7.22 4.35 6.45-7.54-1.63-3.76z" class="aj"/><path d="m758.51 184.57 5.76 4.28-1.64-3.73-4.12-.55z" class="bc"/><path d="m738.95 181.95 4.33-6.38 9.63-1.19 7.1 3.79 2.62 6.95-23.68-3.17z" class="t"/><path d="m744.21 193.57-.93-18 16.73 2.6-1.5 6.4-14.3 9zM739.64 209.22l7.91-3.18 6.08 5.4-5.26 2.14-8.73-4.36z" class="ay"/><path d="m758.51 212.21-18.87-2.99-3.06 4.93 2.37 4.19 19.56-6.13z" class="w"/><path d="m720 212.27 19.64-3.05-1.42 5.74-2.98 4.12-15.24-6.81z" class="o"/><path d="m720 212.27 18.22 2.69 3.81 4.89-1.12 7.64-14.6-3.12-3.11-5.95.67-.4-1.85-1.87-2.02-3.88z" class="w"/><path d="m738.22 214.96 20.29-2.75-1.01 2.9-2.41 1.28 1.37 1.66-2.27 6.47-13.28 2.97-2.69-12.53z" class="o"/><path d="m723.2 218.42 16.3 2.51 1.61-1.27-2.33-2.09-16.76-1.42 1.18 2.27z" class="aj"/><path d="m738.78 217.57 18.72-2.46-1.04 2.94-16.96 2.88-.72-3.36z" class="as"/><path d="m730.18 226.88-17.25-1.91-9.18 6.27 18.42 1.22 8.01-5.58z" class="be"/><path d="m696.02 207.44 3.07-14.83 17.79 29.91-10.43 6.47-6.43-4.47-4-17.08z" class="ae"/><path d="m680.46 223.2 12.42-27.43 17.05 31.45-9.91 1.3-19.56-5.32z" class="m"/><path d="m678.66 228.49 1.8-5.29 22.39 2.15 2.62 2.53-1.72 3.36-25.09-2.75z" class="an"/><path d="m702.85 225.35 14.03-2.83 1.74 7-14.87 1.72-.9-5.89z" class="aa"/></g><g id="g"><path d="m180.28 284-2.91 26.1-9.64-1.67 2.81-26.57 9.74 2.14z" class="bg"/><path d="m250.17 307.89-10.57-.77-6.94-21.18 7.01-7.97 10.5 13.17v16.75z" class="v"/><path d="m247.79 176.6 11.5 4.83-12.63 83.25 7.24 18.25 4.07 23.17-7.8 1.79-9.22-25.49.48-7.16-23.36 6.75-2 30.65-12.69 1.93 1.45-33.71 18.87-50.26 24.09-54z" class="bg"/><path d="m247.79 176.6-55.43-2.71-16.89 82.32 59 3.27 13.32-82.88z" class="v"/><path d="M173.55 299v9.69h-36.4l20.44-17.17 12.19 2.69 3.77 4.79z" class="ai"/><path d="m161.47 293.34-10.66 6.77-.01-6.77 6.79-1.82 3.88 1.82z" class="z"/><path d="m175.47 291.52-1.92 7.48-15.96-7.48 10.14-7.41 7.74 7.41z" class="aa"/><path d="m140.39 311.56 10.41 10.47 35.94-7.31.47-6.29-46.82 3.13z" class="bg"/><path d="m149.96 314.72.84 7.31-39.46-4.66 3.08-9.23 27.88-1.02 7.66 7.6z" class="al"/><path d="m114.42 308.14 34.42-7.09 38.37 7.38-37.25 6.29-35.54-6.58z" class="bk"/><path d="m143.25 288.84 2.7 20.33h6.07l2.41-14.92-11.18-5.41z" class="o"/><path d="m195.05 301.05-16.23 15.28 17.82 2.2 13.12-2.2-1.14-9.21-4.92-6.07h-8.65z" class="ai"/><path d="M178.82 316.33h30.94v4.39h-30.94z" style="fill:#343c4b;stroke-width:0"/><path d="m198.74 301.05-4.45 9.02 5.32 1.08 2.56-9.21-3.43-.89z" class="z"/><path d="m212.93 286.66-4.31 20.46-13.57-6.07-6.68-19.19 24.56 4.8z" class="aa"/><path d="m31.04 231.98-15.13 51.14 18.61 1.66 8.01-4.57 10.18 9.48 16.56-1.83 6.54-3.91 2.77 4.74 11.67.02 10.09 5.54 10.09-8.63 10.09 5.9 6.89.55 6.43-6.45 3.86 7.28 16.09 5.32.64-61.07h-37.95l-85.44-5.17z" class="ab"/><path d="m150.8 244.14 2.99 54.08 25.64-6.66 4.79-7.09 7.74 7.7 20.51-3.33 10.73-4.73 10.72 5.68 19.98-6.86 5.39-7.15 7.89 5.57 23.8-2.83-15.16-47.92-93.49 5.94-31.53 7.6z" class="ah"/><path d="m233.92 289.79-13.36-53.46-8.09 52.51 21.45.95zM253.9 282.93l-10.38-50.72 6.33.84 17.33 48.3-13.28 1.58zM202.37 238.37l2.58 51.69-9.52-53.73 6.94 2.04zM179.55 240.92l12.41 51.25-12.53-.61.12-50.64z" class="ab"/><path d="m120.52 291.52-4.04-54.37-7.07 2.39-9.07 54.71 20.18-2.73zM69.27 287.86l13.09-51.32-3.78 52.15-9.31-.83zM90.25 288.71l10.09-50.17-9.68-3.17-.41 53.34zM52.71 289.69l23.1-55.34-13.61-.72-27.68 51.15 18.19 4.91zM127.41 292.07l8.85-53.66 1.44 54.49-10.29-.83z" class="as"/><path d="m31.04 231.98 119.76-10.02 125.02 8.64-125.02 13.54-119.76-12.16z" class="ba"/><path d="m145.95 222.4 4.85-.44h13.63l23.63 4.42-17.85 8.99-26.55-3.6-14.46.69-5.45-.69-2.32 2.5-17.86 1.1-21.21-2.91 14.08-3.79 32.05-.83 17.46-5.44z" class="be"/><path d="m166.42 189.93-15.62 32.03 24.2 11.67 3.07-11.97-11.65-31.73z" class="j"/><path d="m182.69 186.07-16.27 3.86 5.73 34.23 20.5 7.61 25.13-2.65 13.56-37.9-18.74-3.17-29.91-1.98z" style="fill:#51596a;fill-rule:evenodd;stroke-width:0"/><path d="m182.69 186.07 5.37 20 13.09 1.84 11.45-19.86-29.91-1.98z" style="fill:#fdfaf4;fill-rule:evenodd;stroke-width:0"/><path d="m225.41 110.11 7.25 39.47-.05 17.64-14.54 7.06-11.21 12.52-13.12 4.62-36.31-42.77 13.29-35.09 28.87-9.28 25.82 5.83z" class="ay"/><path d="m210.46 181.97-22.09-1.04-17.65-67.37L151 148.65l11.2 13.23 5.06 2.37 2.13 6.12 23.67 27.94 19.54-10.26-2.14-6.08z" class="t"/><path d="m218.07 174.28-35.03 7.77 29.56 6 5.47-13.77zM162.2 161.88l7.58-3.76-.39 12.25-7.19-8.49zM157.59 151.87l5.26-2.77 2.6 6.55-7.86-3.78z" class="bc"/><path d="m185 134.15 6.9-4.99 5.82 2.08 3.04 2.22 3.74 1.52 2.08-2.77 1.52-3.05 5.12-4.7 6.51 2.07-16.35 22.33L185 134.15z" class="t"/><path d="m200.76 133.46 2.62 15.4 4.38.72 3.77-2.7-4.95-14.67-5.82 1.25z" class="q"/><path d="m196.68 158.04 12.67.08 11.21-5.84-.31 4.1-10.49 4.52-11 .43-2.08-3.29z" class="bc"/><circle cx="216.41" cy="136.29" r="2.39" class="bi"/><circle cx="193.05" cy="141.9" r="2.39" class="bi"/><path d="m185 134.15-.78-2.32 6.02-4.47 7.89 1.67-.41 2.21-6.75-.76-5.97 3.67zM208.1 129.16l-1.76-2.31 7.78-4.78 6.13 2.39-.52 2.07-5.81-.72-5.82 3.35zM225.41 110.11l-8.37 2.12-10.39-2.1-3.27 5.55-7.95 2-7.47-.49-2.96 3.13-11.73 2.96-10.85-4.22-7.99-11.42 9.23-4.46 7.48.3 2.13-4.94 8.69-4.2 10.26 2.71 4.46-2.23 12.52.41 16.21 14.88z" class="w"/><path d="m154.43 107.64-1.97 23.57 4.97 4.67-5.87 6.02-.56 6.75 12.66-4.36 6.86 6.54 2.07-2.8-2.25-11.74-1.59-5.53 4.52-7.48-18.84-15.64z" class="o"/><path d="m173.27 123.28-20.81 7.93-.9 10.69 18.78-5.61 2.93-13.01z" class="s"/><path d="M163.66 103.18 185 120.32l10.43-2.64-22.16-19.14-9.61 4.64zM181.96 94.34l21.42 21.34 13.66-3.45-20.36-17.41-14.72-.48zM177.37 151.45l5.67 9.14 5.33 9.78v10.56l-5.33 1.12-13.26-27.27 3.49-5.2 4.1 1.87z" class="o"/><path d="m163.66 144.29 6.68-8 7.03 15.16-7.59 3.33-6.12-10.49z" class="s"/><path d="m232.66 149.58-3.93 5.19-3.32-5.19-13.88-2.7-3.77 2.7-4.38-.73-10.33 7.08-1.87 7.11-8.13-2.45 5.33 20.34 48.11-10.56-3.82-20.79Zm-21.54 20.79-14.17-2.1-.28-10.23 11.94-4.37 11.94-1.38 3.76 10.54-13.2 7.55Z" class="w"/><path d="m203.38 148.86 4.79 2.59 3.36-4.57-8.15 1.98z" class="o"/><path d="m231.34 191.22 3.13 41.24-16.27-4.51-5.27-8.81 18.41-27.92z" class="j"/><path d="m212.93 219.14-22.42 3.27-2.45 3.97 5.02 7.25 41.39-1.17-21.54-13.32z" style="fill:#343c4b;fill-rule:evenodd;stroke-width:0"/><path d="m170.54 214.56 6.86 4.58-1.17 6.53h-5.69v-11.11z" class="bc"/><path d="m150.8 221.96 2.67 5.99 9.45 2.65 10.63-5.66-3.01-10.38-19.74 7.4zM190.51 222.41l-13.11-3.27-2.6 6 7.53 11.4 10.75-2.91-2.57-11.22z" class="ay"/><path d="m177.4 219.14-14.48 11.46 7.29 4.77 12.12 1.17-4.93-17.4z" class="t"/><path d="m144.31 183.32-15.29 2.62 10.04 7.67 8.23-2.19-2.98-8.1z" class="bf"/><path d="m157.73 185.94-13.42-2.62-1.06 5.79 4.04 2.31 10.44-5.48z" class="ar"/><path d="m145.95 225.28.58-17.53-4.33 1.6 1.43 4.04-.21 13.72 2.53-1.83z" class="al"/><path d="m145.95 225.28 7.56 4.46-9.85 2.03-.41-1.17 2.7-5.32z" style="fill:#cc9c34;fill-rule:evenodd;stroke-width:0"/><path d="m145.95 225.28-11.13 3.77 8.84 2.72 2.29-6.49z" class="az"/><path d="m142.43 210.3 11.97-8.37 3.33-15.99-14.48 3.17-1.05 16 .23 5.19z" class="bf"/><path d="m141.1 207.66-9.44-5.86-2.64-15.86 14.23 3.17 1.11 14.88-3.26 3.67zM154.4 201.93l-10.04 2.06-2.06 4.93 1.33 4.47 10.77-11.46z" class="ar"/><path d="m144.36 203.99-12.7-2.19 11.97 11.59.73-9.4z" class="al"/><path d="m111.34 212.98 4.44-10.09 12.71 24.95-3.63 3.93-6.66-3.93-6.86-14.86z" class="ae"/><path d="m95.3 227.04 16.18-26.01 10.96 28.6-12.82 2.14-14.32-4.73z" class="m"/><path d="m128.49 227.84-6.05 1.79-4.14 2.14 3.13 2.5 7.77-1.81-.71-4.62z" class="an"/><path d="m122.44 229.63-27.14-2.59-.91 4.73 27.04 2.5 1.01-4.64z" class="aa"/></g><g id="h"><path d="m484.97 219.8 15.86 26.7 15.53-13.35 2-13.35-14.08-6.69-19.31 6.69z" class="p"/><path d="m475.32 162.39-16.42 22.36 14.17 8.42 7.17-4.47 3.85-7.19-8.77-19.12zM537.83 159.01l17.15 25.74-9.07 10.62-14.31-9.31-2.19-10.27 8.42-16.78z" class="al"/><path d="M499.25 301.75v11.69l-17.46 2.49-17.47-2.49 10.32-8.15 13.33-7.89 2.15-1.1 9.13 5.45z" class="an"/><path d="m474.64 305.29 3.51 2.45 11.59-9.83h-5.77l-9.33 7.38z" class="aj"/><path d="M464.32 313.44h34.93v4.98h-34.93z" class="r"/><path d="m479.92 265.53 4.05 32.38 15.28 3.84 4.24-33.7-13.53-5.11-10.04 2.59z" class="p"/><path d="m484.97 219.8-5.05 45.73 20.13 2.52 4.87-26.02-19.95-22.23z" class="u"/><path d="M505.85 281.07v22.65l12.13-5.81 10.25-9.88-5.36-7.12-10.57-4.94-6.45 5.1z" class="an"/><path d="m505.85 303.736 22.377-15.692 2.86 4.077-22.377 15.692z" class="r"/><path d="m514.6 278.39 1.4 8.55-2.93 1.28-2.36-10.59 3.89.76z" class="aj"/><path d="M515.3 221.71 488.81 253l13.25 6.42 12.23-2.17 18.31-14.6-3.19-14.65-14.11-6.29z" style="fill:#545c6d;fill-rule:evenodd;stroke-width:0"/><path d="m484.97 219.8 44.44 8.2-3.25-15.35-13.78-5.88-27.41 13.03zM514.48 154.72l23.35 4.29-6.23 27.05-31.3 18.36-20.06-15.72-4.92-26.31 16.32-4.52 22.84-3.15z" class="az"/><path d="m438.96 96.07 10.15 61.5 37.84-4.14 9.48 8.97 14.86-12.51 7.07-44.07-17.75-27.12-30.39 2.37-31.26 15z" class="ay"/><path d="m492.4 155.73 6.38-3.67-7.96-72.6 24.28 8.55 9.79 17.89-3.29 15.43-2.29 3.67.28 5.76-5.11 23.96-18.15 12.26-3.93-11.25zM447.1 108.42l21.35 12.29 11.97-16.61-5.58-3.99-8.57 5.03-3.26 2.37-4.11-.99-6.36-2.42-5.44 4.32z" class="t"/><path d="m458.9 106.52 1.12 15.21h4.21l4.22-1.02-2.18-15.57-7.37 1.38z" class="q"/><path d="m460.02 121.73 4.62 2.72 3.81-3.74-8.43 1.02zM452.5 131.53l30.47-3.68-5.57 10.2-16.67 1.77-8.23-8.29z" class="bc"/><path d="m457.06 133.23 21.96-2.86-1.56 2.04-19.04 2.52-1.36-1.7z" class="aw"/><path d="m486.95 153.43 18.97-2.39-9.59 15.94-9.38-13.55zM521.6 121.33l-9.22-.62 7.21 10.05 2.01-9.43zM515.3 116.57l.95-8.44 5.35 1.23-6.3 7.21z" class="bc"/><circle cx="453.2" cy="113.15" r="2.24" class="bi"/><circle cx="475.03" cy="110.09" r="2.24" class="bi"/><path d="m447.1 108.42-1.36-1.65 5.51-4.62 7.54 1.84.11 2.53-6.7-1.31-5.1 3.21zM466.27 105.14l-.88-2.38 7.96-4.42 7.54 3.27-.47 2.49-7.14-2.29-7.01 3.33zM443.15 91.14l-19.44-15.58 44.26-15.09 9.3 8.45 13.55-3.42 31.82 7-10.88 10.2-20.2 3.48-48.41 4.96z" class="bm"/><path d="m438.96 96.07 18.1-3.4 2.96-3.26 5.37 1.69 26.17-4.92-67.85-10.62 15.25 20.51z" class="u"/><path d="m445.84 79.02 11.22 13.65 8.33-1.57-1.16-9.2-5.33-3.63-13.06.75z" class="p"/><path d="m445.84 79.02 22.13-18.55 22.85 5.03-26.59 16.4-18.39-2.88zM491.56 86.18l31.08-13.68 9.32 24.75-24.1 2.86-16.3-13.93z" class="u"/><path d="m491.56 86.18 40.4 11.07-7.07 8.65-11.56-2.12-5.47 19.52-7.69-1.57.74-18.12-9.35-17.43z" class="p"/><path d="m480.24 188.7 51.36-2.64-5.44 26.59-41.19 7.15-4.73-31.1z" class="bg"/><path d="m488.81 253 17.04 28.07 17.02-.16-8.58-23.66-25.48-4.25z" class="ai"/><path d="m554.98 184.75-30.09 8.62-2.25 7.53 5.2 3.52 24.42-2.5 2.72-17.17zM524.89 193.37l-6.53-5.12-8.04 3.59 5.75 2.75 8.82-1.22z" class="ay"/><path d="m524.89 193.37-14.57-1.53 1.53 8.74 4.51 7.6 11.48-3.76-2.95-11.05z" class="t"/><path d="m516.36 208.18-6.17-2.11-5.27-9.9 5.4-4.33 6.04 16.34zM473.07 193.17l-15.02 9.76-14.11-19.27 3.56-8.66 4.82-.97 20.75 19.14z" class="ay"/><path d="m449.11 171.07-8.17-9.61-7.66 2.68-2.04 8.68 8.7 5.37 9.17-7.12z" class="t"/><path d="m437.55 155.52-2.54-1.7-8.11 10.19 4.34 8.81 9.95-8.73-3.64-8.57z" class="ay"/><path d="m434.66 169.82-1.38-5.68 4.27-8.62 2.39 1.59 2.6 7.54-3.07 2.87-4.81 2.3z" class="t"/><path d="m449.11 171.07-.89-8.67-8.28-5.29-6.66 7.03 2.43 2.84 5.48-2.89 4.47 12.56 3.45-5.58z" class="ay"/><path d="m439.94 178.19 9.17-7.12 3.21 2.96-8.38 9.63-4-5.47z" style="fill:#5f6878;fill-rule:evenodd;stroke-width:0"/></g><g id="i"><path d="m443.81 320.14 2.68 13.53-83.66 10.98-22.04-17.88 103.02-6.63z" class="bk"/><path d="m362.83 344.65-119.57-12.26 2.85-12.25h68.47l46.08 15.7 2.17 8.81z" class="bg"/><path d="m246.11 320.14 114.55 15.7 83.15-15.7-22.29-17.98-104.05-6.98-71.36 24.96z" class="bl"/><path d="m278.43 314.82 77.02 12.21 62.64-12.21-4.58-6.27-83.45-7.79-51.63 14.06z" class="aj"/><path d="m297.12 309.73 19.11-5.13 13.83-3.84 68.12 6.36-65.82 13.02-35.24-10.41z" class="be"/><path d="m310.31 146 24.05 1.2v-20.52L310.31 146z" class="ak"/><path d="m303.34 91.43-15.85 24.04 23.47-5.81-7.62-18.23z" class="z"/><path d="m324.98 99.83-37.49 15.64L310.31 146l22.14-14.86.51-17.67-7.98-13.64z" class="u"/><path d="m329.56 308.75 13.58-2.11-3.36 5.18-10.22-3.07z" class="t"/><path d="m362.64 158.71 26.79 30.24-3.75 5.42-13.2-5.07-9.4-8.02 1.05-13.69-1.49-8.88z" class="ay"/><path d="m372.48 189.3 22.57-8.79 3.13 3.51-.63 5.84-12.7 9.86-12.37-10.42zM402.4 174.96l8.08-4.89 3.62 2.89-.63 9.7-8.39 1.36-4.16-.24 1.48-8.82z" class="t"/><path d="m325.09 165.02-18.72 26.15 6.58 4.3 12.76-4.3 1.42-19.05-2.04-7.1z" class="ay"/><path d="m325.71 191.17-21.58-15.21-4.9 3.57v7.29l10.69 14.63 15.79-10.28z" class="t"/><path d="m338.83 269.11 31.21-12.88-1.22-10.03-3.91-9.64h-22.58l-3.5 32.55z" class="bg"/><path d="m382.93 259.53 8.85 7.54.02 2.04 2.5.11 5.25 4.47-8.85 3.21-9.13-3.65-4.5-4.13-.56-4.77-.63-7.93 7.05 3.11z" class="ay"/><path d="m375.7 233.21 7.23 26.32-6.42 4.82-12-14.35-3.41-17.35 14.6.56z" class="t"/><path d="m327.13 286.6-1.08 9.16 6.66 7.79.25 2.43 2.13.36 4.69 5.48-9.6-1.27-7.56-2.34-4.24-5.16-1.17-5.9 9.92-10.55z" class="ay"/><path d="m332.96 281.35-6.91 14.41-8.84 1.39 2.69-20.41 3.43-6.01 9.63 10.62z" class="t"/><path d="m320.04 276.68 12.92 4.67 5.87-12.24-11.26-3.34-7.53 10.91zM358.83 243.19l5.68 6.81 11.19-16.79-16.02 1.45-.85 8.53z" class="bc"/><path d="m324.98 164.67 37.66-5.96-11.76 19.03-25.9-13.07z" class="ay"/><path d="m324.98 164.67.73 26.5 18.08-8.76 6.93-7.45-25.74-10.29zM350.72 174.96l11.92-16.25 9.84 30.59-15.82-4.7-5.94-9.64z" class="l"/><path d="m325.71 191.17.54 17.05 24.54 23.65 21.69-42.57-21.76-14.34-25.01 16.21z" class="bh"/><path d="m328 216.88 47.7 16.33-37.85 36.29-7.91-1.33L310.58 227 328 216.88z" style="fill:#e5c828;fill-rule:evenodd;stroke-width:0"/><path d="m310.58 227 28.25 42.11-18.93 7.63-9.32-49.74z" style="fill:#ccad14;fill-rule:evenodd;stroke-width:0"/><path d="m410.61 112.13-.62 11.47-16.05-.72 3.55-18.45 13.12 7.7z" class="ak"/><path d="m405.46 87.52 12.06 20.16-13.33 3.81-5.35-3.65-2.14-15.59 8.76-4.73z" class="ai"/><path d="m417.52 107.68-18.68.16-9.47 5.62 4.57 9.42 23.58-15.2z" class="u"/><path d="m394.02 112.07 5.07 18.19-12.36 4.17 2.11-6.45 3.27-1.15-1.31-4.88-.91-3.77 4.13-6.11z" class="x"/><path d="m330.64 115.84 3.74 21.54 6.92 19.85 12.54.82 7.36-8.77 21.91 6.84 22.35-68.6-52.99 12.8-21.83 15.52z" class="ay"/><path d="m353.5 115.56-7.02 30.26 14.72 3.46-8.64 10.22-.83 7.43-15.72-4.01-3.56-31.78 1.28-5.34-3.09-9.96 17.38-14.32 5.48 14.04zM387.91 103.57l-2.23 1.72-5.62 9.74 1.04 4.37 10.2-8.87 3.97-3.36-7.36-3.6zM381.02 103.74l-3.38-3.76-10.94-.29 6.66 12.44.85 10.44 5.31-9.89 1.5-8.94z" class="t"/><path d="m343.23 125.48-10.78 5.66-1.81-15.3 10.2-10.39 9.44 8.33-7.05 11.7z" class="bc"/><path d="m381.02 103.74 4.66 1.55-6.16 19h-3.48l-1.83-1.72 6.81-18.83z" class="q"/><path d="m374.21 122.57 1.71 4.11 3.6-2.39-5.31-1.72zM404.02 91.94l-51.03 26.18-9.1-.57 3.37-8.13 30.38-9.44 27.82-12.46-1.44 4.42z" class="bc"/><path d="m321.1 88.91-2.93-7.05-28-7.04 21.73 49.16 14.07-12.49 1.82-10.11-6.69-12.47z" class="ai"/><path d="m311.9 92.62-21.73-17.8 40.47-4.14-4.9 14.22-13.84 7.72z" class="z"/><path d="m379.97 65.17-34-12.44-34.07 39.89 41.42-11.63 26.65-15.82z" class="ai"/><path d="m390.3 98.61 4.97 8.56-7.36-3.6 2.39-4.96z" class="ak"/><path d="m356.66 125.05 18.78 2.97 10.54 7.56-17 11.21-12.32-21.74z" class="x"/><path d="m364.79 133.78 6.69-2.2 5.83 6.7-4.44 2.99-4.74-1.67-3.34-5.82z" style="fill:#664e1a;fill-rule:evenodd;stroke-width:0"/><path d="m364.79 133.78 12.52 4.5 4.43-3-20.29-7.32 3.34 5.82z" class="aw"/><path d="m347.7 112.36-4.47 13.12-18.09-5.72 1.02-3.06 4.48-.86 9.34 2.8 1.66-5.05 6.06-1.23z" class="ar"/><path d="m361.2 149.28-19.51-6.34 10.04 23.99 9.47-17.65z" class="bc"/><path d="m327.79 101.38-15.89 22.6 35.8-11.62-19.91-10.98z" class="ak"/><path d="M392.28 113.46c0 1.61-1.3 2.91-2.91 2.91s-2.91-1.3-2.91-2.91 1.3-2.91 2.91-2.91 2.91 1.3 2.91 2.91ZM374.99 107.68c0 1.61-1.3 2.91-2.91 2.91s-2.91-1.3-2.91-2.91 1.3-2.91 2.91-2.91 2.91 1.3 2.91 2.91Z" class="bi"/><path d="m414.09 82.86-60.59 32.7-41.6-22.94 48.35-6.45 53.84-3.31z" class="u"/><path d="m414.09 82.86-19-23.79-83.19 33.55 102.19-9.76z" style="fill:#89909b;fill-rule:evenodd;stroke-width:0"/><path d="m317.21 297.15 6.6 9.76-2.63 1.3-4.95-3.61.98-7.45z" class="t"/><path d="m332.71 303.55-3.33 6.18h3.58l2.13-3.39-2.38-2.79z" class="l"/><path d="m376.51 264.35 5.57 9.8 8.83 1.95 12.47-3.85-4.19 6.37-17.63-3.02-6.55-4.35 1.5-6.9z" class="t"/><path d="m391.78 267.07-4.68 8.85 3.81.18 3.39-6.88-2.52-2.15z" class="l"/><path d="M375.7 233.21 310.58 227l15.67-18.78 49.45 24.99z" style="fill:#f4d75d;fill-rule:evenodd;stroke-width:0"/><path d="m400.03 178.57 1.16-7.06 9.93-6.2 1.97 2.49-2.61 2.27-4.43 3.87-4.34 8.81-1.68-4.18z" class="ay"/><path d="m423.15 166.93-12.67 3.14 2.99 12.59 7.35-5.39 2.33-10.34z" class="ay"/><path d="m297.51 169.45-4.92-8.06-4.54.9-3.91 8.9 8.45 6.55 3.7.37 1.22-8.66z" class="t"/><path d="m298.6 172.06 1.58-5.12-5.96-10.07-2.9 1.31 1.27 3.21 2.16 5.47 1 12.67 2.85-7.47z" class="ay"/><path d="m282.79 152.77 9.8 8.62-8.45 9.8-4.04-8.16 2.69-10.26z" class="ay"/><path d="m399.19 278.62-23.07.14-1.11-7.51 24.18 7.37zM339.78 311.82l-22.58-.48-.97-6.74 23.55 7.22z" class="bh"/><path d="m397.55 179.53-2.5.98 2.5 9.35 3.76-2.92-.39-4.28-3.37-3.13z" class="al"/><path d="m405.08 184.02-5.05-5.45-2.48.96 3.76 7.41 3.77-2.92z" class="l"/><path d="m301.4 174.03 2.73 1.93-4.9 10.86-3.48-4.76 1.24-5.37 4.41-2.66z" class="al"/><path d="m292.59 177.74 6.01-5.68 2.8 1.97-5.65 8.03-3.16-4.32z" class="l"/></g></svg>