<svg xmlns="http://www.w3.org/2000/svg" id="a" viewBox="0 0 900 420"><defs><style>.aa,.ab,.ac,.ae,.ag,.ah,.ai,.ak,.al,.am,.ao,.ap,.aq,.ar,.as,.au,.av,.aw,.ay,.az,.ba,.bb,.bc,.be,.bf,.bg,.bh,.bj,.bl,.bn,.bp,.bt,.bu,.bw,.bx,.by,.bz,.ca,.cb,.cc,.cd,.ce,.cf,.cg,.ch,.ci,.cj,.ck,.cl,.l,.n,.q,.u,.v,.w,.x{stroke-width:0}.aa,.ab,.ae,.ah,.ai,.ak,.am,.ao,.ar,.au,.aw,.ay,.az,.ba,.bb,.bf,.bg,.bh,.bj,.bl,.bn,.bp,.bt,.bw,.bx,.by,.cb,.cc,.cd,.cf,.ch,.ci,.cj,.cl,.l,.n,.v,.w,.x{fill-rule:evenodd}.l{fill:#404857}.ar{fill:#576071}.bc,.n{fill:#51596a}.bj,.q{fill:#89909b}.cb{fill:#1d2432;opacity:.1}.bn{fill:#545c6d}.u{fill:#ccae2d}.v{fill:#71561c}.w{fill:#dddfe2}.x{fill:#c3987b}.bx{fill:#8b6651}.aa,.ce{fill:#3d4554}.ab,.ag{fill:#7d5f1f}.ac,.ah{fill:#68707f}.ae,.bu{fill:#e4ae3a}.ai,.ca{fill:#9b6533}.ak,.bz{fill:#787f8d}.al,.cj{fill:#b68b2e}.am{fill:#5f6878}.bf{fill:#abafb8}.ao,.be{fill:#bbbfc6}.ap,.cd{fill:#947125}.aq,.au{fill:#454d5d}.as,.aw{fill:#f4d75c}.av,.bg{fill:#9f7928}.ay{fill:#886822}.az{fill:#7c4f24}.ba,.ck{fill:#af7546}.bb{fill:#ccad14}.bh{fill:#d8a537}.bl{fill:#343c4b}.bp{fill:#dfbda5}.by{fill:#e4c824}.bt{fill:#aa822b}.bw{fill:#cc9c34}.cc{fill:#c29431}.cf{fill:#cccfd4}.cg{fill:#232a38}.ch{fill:#9a9fa9}.ci{fill:#e5c828}.cl{fill:#4b5464}</style></defs><g id="b"><path d="m252.45 359.04 36.08-13.3 42.27-12.29 39.91 8.42 121.96 24.77 6 8.85-17.37 7.87-39.85-.28-20.49-4.85-13.76 13.44-19.89-.16-37.57-8.71-22.41-6.99-15.86 6.99-45.65-6.22-13.37-17.54zM343.74 395.41l5.97-2.24 13.71 3.31-2.69 6.89-12.61-1.91-4.38-6.05zM416.53 397.62l14.5-3.15 5.46 8.54-13.2.36-6.76-5.75zM519.55 376.78l18.64-4.38 28.31 4.38 48.5 14.53 13.74.36 9.07 6.09-8.12 2-7.68.68-7.56 9.13-18.31-7.6-56.68-11.64-13.87.64-6.04-14.19zM691.6 361.8l-42.41-7.25 14.23-2.88-5.57-5-102.32-10.35-10.88-1.73-78 5.71-18.29 6.39 85.48 18.9 53.9 1.98 3.42-7.15 5.48 4.74 23.79 22.15 79.55.28-8.38-25.79z" class="cb"/><path d="m861.8 353.63 4.12-9.48-28.4-6.25-98.34-9.5-50.53 5.48-40.77 6.23 32.88 17.05 58.42 7.69 61.08-1.16 10.08-8.87 5.26 5.9 46.2-7.09zM237.4 351.3l-16.54-12.7-16.12-5.15-109.26-.05-21.9 11.04-44.28 8.95-15.59 15.8 76.06 16.42 60.01-2.25 22.13-24.4 24.88 1.12 40.61-8.78z" class="cb"/></g><g id="c"><path d="m237.4 351.3-19.56-3.57-.88-11.21 20.68-1.45 2.81 13.55-3.05 2.68z" class="am"/><path d="m252.28 336.52.63 11.01-15.51 3.77-.91-11.53 6.9-3.25h8.89z" class="ak"/><path d="m161.83 48.08 74.91-1.17 15.54 289.61-71.23 15.09-30.72-207.97 11.5-95.56z" class="bt"/><path d="m170.01 54.62-8.18-6.54-41.75 1.83-13.26 293.51 74.23 8.19-11.04-296.99z" class="cd"/><path d="m120.08 49.91 61.43-10.55 55.23 7.55-66.73 7.71-49.93-4.71zM183.71 68.66l12.06-1.51 8.97 2.09 9.4-4.38 10.58-1.32 1.6 24.02-41.64 4.17-.97-23.07zM186.28 107.11l10.69-.86 10.48 2.74 8.87-4.29 10-.8 1.6 25.95-40.04 4.17-1.6-26.91zM187.56 150.96l11.26-1.57 10.52 1.76 8.04-4.35 11.51-1.61 2.24 27.87-41.97 4.81-1.6-26.91z" class="bh"/><path d="m195.77 67.15 4.2 6.48 10.82-1.68 3.35-7.09-18.37 2.29zM196.97 106.25l4.68 7.02 11.54-1.2 3.13-7.37-19.35 1.55z" class="cd"/><path d="m190.81 193.26 10.7-.86 10.48 2.74 8.87-4.28 10-.8 1.6 25.95-40.05 4.16-1.6-26.91z" class="bh"/><path d="m201.51 192.4 4.68 7.03 11.53-1.2 3.14-7.37-19.35 1.54zM198.82 149.39l5.48 6.61 11.05-1.92 2.03-7.28-18.56 2.59z" class="cd"/></g><g id="d"><path d="m559.61 37.91-4.08 304.41-8.42 1.45-3.37-8.66 2.17-267.62 2.52-29.58h11.18z" class="bf"/><path d="m551.44 40.27-3.01-2.36h-6.37l-1.68 304.17 6.73 1.69 4.33-303.5z" class="bj"/><path d="m559.61 37.91-9.29-2.4-8.26 2.4 9.38 2.36 8.17-2.36z" class="cf"/><path d="m657.95 43.52-8.83.37-4.64 83.5 1.56 213.01 5.41 13.23 9.38-2.41-2.88-307.7z" class="bf"/><path d="m648.81 46.25-2.77-2.36-5.41 1.44.49 306.13 10.33 2.17-.6-70.69-1.95-3.46 1.88-4.62-.5-57.39-2.76-2.85 2.7-4.06-.49-57.09-2.98-3.25 2.91-4.78-.59-68.81-2.47-3.45 2.39-6.45-.18-20.48z" class="bj"/><path d="m657.95 43.52-9.86-2-7.46 3.81 8.18.92 9.14-2.73z" class="cf"/><path d="m499.64 49.54-9.71-.33-4.17 6.11-7.06 293.15 3.23 5.16 7.77-2.48 9.94-301.61z" class="bf"/><path d="m490.96 51.35-2.89-1.81h-4.84L472.7 352.3l9.23 1.33 2.08-69.72 6.21-4.85-5.88-6.14 1.71-57.14 4.24-4.73-3.86-8.06 1.47-49.42 3.7-4.05-3.4-5.98 2.05-68.6 3.73-3.99-3.4-7.05.38-12.55z" class="bj"/><path d="m483.23 49.54 6.9-2.48 9.51 2.48-8.68 1.81-7.73-1.81z" class="cf"/><path d="m649.66 145.44.07 8.03-51.83 11.9-7.74-12.68 59.5-7.25z" class="bw"/><path d="m597.9 165.37-110-11.8.3-10.03 79.59-.25 30.58 12.72-.47 9.36z" class="bt"/><path d="m650.22 210.56.06 6.91-55.64 12.73-10.26-19.15 65.84-.49z" class="bw"/><path d="m594.64 230.2-108.59-14.42.38-12.79 74.87 4.89L595.15 220l-.51 10.2z" class="bt"/><path d="m650.78 274.86.07 8.08-59.37 10.1-15.04-18.18h74.34z" class="bw"/><path d="m591.48 293.04-107.47-9.13.33-10.99 77.92.05 29.82 8.16-.6 11.91z" class="bt"/><path d="m650.78 274.86-58.7 6.27-107.74-8.21 63.89-7.58 102.55 9.52z" class="aw"/><path d="m561.8 266.6 30.6 8.26-47.75-2.04 11.9-6.7 5.25.48z" class="cb"/><path d="M650.22 210.56 595.15 220l-108.72-17.01 63.48-7.23 100.31 14.8z" class="aw"/><path d="m578.85 198.47-2.25 12.58-48.24-4.33-22.25-5.97 14.29-1.63 58.45-.65z" class="cb"/><path d="m649.66 145.44-51.29 10.57-67.97-7.97-11.5-3.98-6.89 1.82-23.81-2.34 61.89-9.05 99.57 10.95z" class="aw"/><path d="m602.89 146.69-30.17 1.35-21.04-6.84 6.62-5.8 8.09.89 36.5 10.4zM538.62 144.3l-8.22 3.74-11.5-3.98-6.89 1.82-23.81-2.34 23.39-3.42 27.03 4.18z" class="cb"/><path d="M623.34 272.32 621 244.47l-33.02.8 4.42 29.59 30.94-2.54z" class="am"/><path d="m593.71 248.67-8.44-4.2-20.37-1.08-3.69 27.65 31.19 3.82 1.31-26.19z" class="cl"/><path d="m621 244.47-27.29-4.31-28.81 3.23 28.81 5.28 27.29-4.2z" class="ak"/><path d="m607.46 254.57 8.77-1.56.36 4.33-8.77 1.32-.36-4.09z" class="ao"/><path d="m617.16 141.87-2.73-42.6h-16.06l-1.85 2.91-1.37 15.99 7.74 28.52 14.27-4.82z" class="ai"/><path d="m602.89 146.69-37.98-4.59 5.82-22.89 4.27-2.96-2.21-5.13 3.01-11.85 10.36-1.13 10.36 4.04 2.28 15.11 4.09 29.4z" class="az"/><path d="m614.43 99.27-13.55-6.42-5.73-2.09-3.32 4.25-2.41 2.97 7.1 4.2 17.91-2.91z" class="ba"/><path d="m591.83 95.01 4.69 7.17-20.72-2.91 7.05-5.78 5.45-2.73 3.53 4.25z" class="ai"/><path d="m572.79 111.12 13.37 3.1-1.78 7.16-13.65-2.17 2.06-8.09z" class="by"/><path d="m600.88 92.85-3.22-12.83-8.24.77 2.41 14.22 9.05-2.16z" class="am"/><path d="m591.42 81.35-.31-1.33h-4.4l-3.86 13.47 8.98 1.52-.41-13.66z" class="cl"/><path d="m586.71 80.02 5.12-1.44 5.83 1.44-6.24 1.33-4.71-1.33z" class="bj"/><path d="m530.4 148.04-5.17-9.83v-8.66l23.2-2.76-.46 5.08-2.06 1.77 1.79 1.2-.94 10.34-16.36 2.86z" class="bg"/><path d="m529.2 132.56-5.53-4.79-12.98-.02.35 4.81 2.25 2.84-1.93 1.54.65 8.94 18.39 2.16-1.2-15.48z" class="ab"/><path d="m548.43 126.79-16.23-3.81-21.51 4.77 18.51 4.81 19.23-5.77z" class="aw"/><path d="m547.97 131.87-18.51 4.08-1.1 1.94 1.42 2.15 17.92-5.2.27-2.97z" class="by"/><path d="m529.46 135.95-18.42-3.39.32 4.38 18.42 3.1-.32-4.09z" style="fill:#ac923b;fill-rule:evenodd;stroke-width:0"/><path d="m619.69 178.13-43.09-6.02-26.99-3.91-5.87 25.97 51.41-1.7 24.54-14.34z" class="ab"/><path d="m524.47 190.35-6.53-15.84 31.67-6.31 4.55 21.38-1.6 8.25-28.09-7.48z" class="cd"/><path d="m576.6 172.11.88 3.2-3.72 2.97-4.23 1.68-1.56-4.65 2.46-2.2 6.17-1z" class="ak"/><path d="m563.22 171.26 6.6-4.9 6.78 5.75-7.07 3.61h-3.75l-2.56-4.46z" class="ao"/><path d="m565.5 172.88 3.57-2.54 1.36 1.69-3.73 2.48-1.2-1.63z" class="ak"/><path d="m541.33 169.85 8.86 1.11 3.89 3.79 1.26 6.31-3.9 4.43-6.55 2.56-4.93-2.84 4.39-4.15 1.2-5.75-4.22-5.46z" class="ch"/><path d="m541.33 169.85 7.88 6.61-2.7 7.79-6.55.96-4.57-7.57 5.94-7.79z" class="ao"/><path d="m539.72 178.42 2.43-3.67 2.44 2.49-2.44 3.52-2.43-2.34z" class="ak"/><path d="m569.53 175.72.9 5.76-5.52 4.73-8.26 1.84-5.21-2.56-1.25-4.73 6.46 2.81 6.25-1.68 6.63-6.17z" class="ch"/><path d="m554.08 174.75 9.14-3.49 6.31 4.46-6.79 7.32-6.61 1.21-5.94-3.49 3.89-6.01z" class="w"/><path d="m556.65 177.76 4-2.45 2.25 1.22-4.09 3.43-2.16-2.2z" class="bj"/><path d="m584.38 182.6 1.44 4.89-3.45 5.29-9.61 2.98-5.85-4.1-2-5.45 7.2 2.97 7.3-2.09 4.97-4.49z" class="ch"/><path d="m569.98 178.62 7.5-3.31 6.9 7.29-2.89 6.16-9.3 2.9-7.28-5.45 5.07-7.59z" class="w"/><path d="m572.11 184.25 1.85-3.73 4.33 2.97-3.65 2.64-2.53-1.88z" class="bj"/><path d="m619.69 178.13-47.58 6.12-3.35 11.51 7.84 15.29 37.59-5.81 5.5-27.11z" class="cd"/><path d="m572.11 184.25-54.17-9.74 2.46 24.61 56.2 11.93-4.49-26.8z" class="ab"/><path d="m534.97 186.77 22.96 3.97.96 6.37-23.56-4.57-.36-5.77z" class="by"/><path d="m648.99 66.73.08 9.9-51.17 9.35-7.74-12.68 58.83-6.57z" class="bw"/><path d="M597.9 85.98 490.25 74.94l.33-11.04h77.21l30.58 12.73-.47 9.35z" class="bt"/><path d="m648.99 66.73-50.62 9.9L490.58 63.9l60.86-8.3 97.55 11.13z" class="aw"/><path d="m557.21 59.43-8.78 7.3-33.48-1.64-6.01-3.69 42.5-5.8 5.77 3.83z" class="cb"/><path d="M608.66 52.99H600l-3.48 8.86-12.14 284.32 3.36 21.4 8.9-2.41 12.02-312.17z" class="bf"/><path d="m600 57.16-1.63-3.04-6.54 1.03-12.98 310.01 8.89 2.41L600 57.16z" class="bj"/><path d="m608.66 52.99-9.86-1.92-6.97 4.08 8.17 2.01 8.66-4.17z" class="cf"/><path d="m521.94 32.01-8.99 1.5 2.19 17.84 13.83 5.81.92-5.81-11.18-2.78-.92-11.21 7.03-.86-2.88-4.49z" class="bg"/><path d="m575.8 32.01-.79 7.25-4.28 4.26 3.43 3.54-1.76 16.11-23.97 3.56-9.81-33.34 37.18-1.38z" class="cd"/><path d="m545.91 37.36-5.53-6.94-18.44 1.59 6.42 31.85 20.07 2.87-2.52-29.37z" class="ab"/><path d="m575.8 32.01-14.95-8.53-14.41-.69-6.06 7.63 5.53 6.94 29.89-5.35z" class="aw"/><path d="m547.97 24.87-4.23-4.49-8.55 3.1-13.25 8.53 23.97 5.35 2.06-12.49z" class="bw"/><path d="m575.01 39.26-16.92 2.26 1.38 7.05 14.69-1.51.85-7.8z" class="by"/><path d="m560.85 23.48-3.64-7.45-13.47 1.07 4.23 7.77 12.88-1.39z" class="ai"/><path d="m547.97 24.87-12.78-1.39 3.43-7.45 7.53-.14.62 1.83 1.2 7.15z" class="az"/><path d="m538.62 16.03 9.35-1.69 9.24 1.69-10.44 1.69-8.15-1.69z" class="ba"/></g><g id="e"><path d="m705.09 350.33 15.84-2.14 9.4-19.79-26.39 2.88 1.15 19.05z" style="fill:#545c6d;stroke-width:0"/><path d="m688.96 333.88-1.18 13.82 17.31 2.63 7.1-17.97-23.23 1.52z" style="fill:#404857;stroke-width:0"/><path d="m800.26 363.69-13.7-2.47-4.61-21.11 20.12 10.22 3.47 5.78-5.28 7.58zM862.11 353.63l-13.36-1.73-6.93-14.03 17.98-3.2 3.3 9.48-.99 9.48z" class="bc"/><path d="m802.07 350.33-1.81 13.36 15.34-2.97 5.44-17.15-18.97 6.76zM874.81 337.87l1.32 13.78-14.02 1.98-5.78-15.76h18.48z" class="ac"/><path d="M803.02 206.35h62.39l1.1 15.5-11.33 56.49 18.54 44.38 1.09 15.15-72.74 12.46-8.9-83.35 9.85-60.63z" class="ap"/><path d="m822.11 215.26-49.07-15.84-75.37.5-8.71 133.96 113.11 16.45 20.04-135.07z" class="ag"/><path d="m805.54 229.25-91.98-14.93-3.22 40.52 86.54 15.04 4.42-20.76-3.02-4.62 4.74-3.43 2.52-11.82zM710.34 269.88l84.56 12.42-2.08 16.47-5.59 3.48 4.57 4.6-3.09 24.43-82.13-10.63 3.76-50.77z" class="ck"/><path d="m803.02 241.07-14.55-1.2-1.24 6.06 14.07 3.19 1.72-8.05zM792.82 298.77l-11.28-1.13-1.24 6.18 11.5 3.03 1.02-8.08z" class="bu"/><path d="m697.67 199.92 60.27-16.33 107.47 22.76-43.3 8.91-124.44-15.34z" style="fill:#d8a537;stroke-width:0"/><path d="m740.3 202.83-18.48-9.45 36.12-9.79 54.85 11.62-29.37 10.57-43.12-2.95z" style="opacity:.1;fill:#1d2432;stroke-width:0"/><path d="m866.51 221.85-27.82 7.32-10.56 99.23 45.59-5.68-7.21-100.87z" style="fill:#886822;stroke-width:0"/><path d="m729.17 136.11 47.67-4.21 8.31 18.26-11.53 27.29-33.32-14.43-11.13-26.91z" class="be"/><path d="m826.84 137.94-22.69-2.85-27.31-3.19-4.95 41.6 31.03.49 23.92-36.05z" class="q"/><path d="m782.94 136.55 16.33 12.37-10.56 10.23-16.82-8.58 11.05-14.02z" class="ca"/><path d="m724.89 90.77-9.6 6.77-.82 4.28 14.7-6.1-4.28-4.95z" class="al"/><path d="m746 155.68-9.24-57.81 11.05-4.62 7.09 62.76-8.9-.33z" style="fill:#576071;stroke-width:0"/><path d="m724.89 90.77 24.57-7.09 4.45 6.27-1.32 8.74-24.57 3.63-3.13-11.55z" style="fill:#7c4f24;stroke-width:0"/><path d="M749.46 83.68 761 85.33l1.65 9.9-10.06 3.46-3.13-15.01z" class="ca"/><path d="m753.91 89.95 6.63-9.21 4.09 6.24-1.98 8.25-8.74-5.28z" class="al"/><path d="m760.54 80.74 8.05 1.13 1.82 10.55-7.76 2.81-2.11-14.49zM803.02 98.04l2.85 8-41.4 73.06-6.53.09 22.86-51.71 12.53-24.9 9.69-4.54z" class="as"/><path d="m786.56 90.37 16.46 7.67-45.08 81.15-17.64-5.69 9.01-16.18 18.04-16.93 7.95-29.78 11.26-20.24z" class="av"/><path d="m775.3 110.61 7.81 3.68-25.17 47.33-8.63-4.3 25.99-46.71z" style="fill:#abafb8;stroke-width:0"/><path d="m767.35 128.96 3.06-1.4 1.15 3.3-3.3 1.24-.91-3.14z" style="fill:#f6f6f7;stroke-width:0"/><path d="m857.65 142.82-.82 3.96-1.36.25.98 1.57-.98 4.69-1.36.21.96 1.66-.96 4.62-1.1.52.71 1.33-.98 4.7-1.6.32 1.21 1.55-1.21 5.79-11.05-3.13 6.18-33.73 11.38 5.69z" class="ap"/><path d="m825.34 118.78 5.18 1.78.29 1.02 1.08-.55 4.64 1.59.18 1.36 1.12-.91 4.53 1.56-.05 1.04 1.36-.6 4.3 1.48.57 1.01.85-.52 4.09 1.4.24 1.54 1.23-1.03 5.25 1.75-2.55 12.12-44.86-15.18 12.55-8.86z" class="ag"/><path d="m831.89 121.03-1.37-.47-1.44 4.96 1.31.53 1.5-5.02zM843.67 125.07l-1.31-.44-1.4 4.82 1.39.53 1.32-4.91zM849.39 127.04l-1.42-.49-1.25 4.74 1.49.61 1.18-4.86zM853.48 128.44l-.99 4.77 1.31.78 1.15-5.04-1.47-.51zM837.83 123.07l-1.3-.45-1.69 5 1.49.52 1.5-5.07z" class="av"/><path d="m852.74 166.33-4.24-1.27-.49 1.5 4.34 1.64.39-1.87zM849.57 158.4l-.25 1.97 4.4 1.26.39-1.85-4.54-1.38zM850.89 151.83l-.33 1.69 4.51 1.64.4-1.87-4.58-1.46zM852.05 145.46l-.42 1.4 4.82 1.74.38-1.82-4.78-1.32z" class="ag"/><path d="m825.34 118.78-18.13 44.24-15.26-7.01 2.05-3.52 1.1-.23-.32-1.1 2.15-3.7 1.35-.39-.29-1.42 2.26-3.88 1.49-.35-.69-1.03 2.36-4.05 1.01-.23-.27-1.02 2.22-3.82h1.31l-.6-1.22 2.12-3.64 1.12-.36-.21-1.2 2.47-4.23 1.33-.11-.44-1.42 2.13-3.65 9.74 3.34z" class="ap"/><path d="m803.23 148.67-5.24-3.02-1.06 1.81 5.47 2.7.83-1.49zM813.86 128.8l.91-1.65-4.66-2.3-.91 1.56 4.66 2.39zM794 152.49l5.02 2.7.83-1.32-5.07-2.71-.78 1.33zM810.98 133.75l.91-1.4-4.81-2.3-.71 1.22 4.61 2.48zM805.29 144.22l.82-1.4-5.06-2.43-.8 1.38 5.04 2.45zM818.15 121.46l-4.68-2.37-.89 1.53 4.83 2.24.74-1.4zM808.34 138.94l.74-1.32-4.93-2.53-.74 1.25 4.93 2.6z" class="ag"/><path d="m826.84 137.94-40.9 10.66-10.59 20.94 8.07 36.24 47.06-6.82-3.64-61.02z" class="be"/><path d="m785.94 148.6-56.77-12.49 3.43 54.35 50.82 15.32 2.52-57.18z" class="q"/><path d="m749.46 148.6 16.01 3.23-.84 6.57-14.04-3.4-1.13-6.4z" style="fill:#e4c824;stroke-width:0"/></g><g id="f"><path d="M710.43 341.85h-73.44v16.92l1.26 1.86-1.26 1.8v10.97c0 7.86 30.22 14.23 67.49 14.23s67.49-6.37 67.49-14.23v-10.04l-1.26-2.25 1.26-2.17v-17.09h-61.54Z" class="n"/><ellipse cx="704.48" cy="341.85" class="bz" rx="67.49" ry="14.23"/><ellipse cx="704.48" cy="340.9" class="ce" rx="28.17" ry="3.83"/><path d="m771.97 358.94-10.38 6.84-9.5-4.03-11.43 11.59-16.58-9.66-16.91 10.31-13.04-9.5-18.97 8.53-12.08-11.11-14.35 3.38-11.75-6.52v3.65l12.07 6.58 13.39-4.03 12.07 11.92 18.65-8.38 14.01 9.5 16.26-9.98 17.71 8.53 11.59-11.11 9.5 3.71 9.74-5.8v-4.42z" class="ak"/><path d="M694.02 301.47h-73.44v14.14l2.28 3.18-2.28.47v13.75c0 7.86 30.22 14.23 67.49 14.23s67.49-6.37 67.49-14.23v-14.48l-2.38-1.19 2.38-2.09v-13.79h-61.54Z" class="n"/><ellipse cx="688.07" cy="301.47" class="bz" rx="67.49" ry="14.23"/><ellipse cx="688.07" cy="300.52" class="bc" rx="28.17" ry="3.83"/><path d="m755.56 315.26-14.57 4.34-7.24 10.92-17.84-7.73-22.38 10.63-11.79-9.66-17.67 8.37-16.66-11.43-9.93 6.6-10.1-9.85-6.8-1.84v3.65l6.3 1.73 9.76 10.15 9.76-6.42 17.84 10.79 16.66-7.57 13.47 9.66 21.2-11.11 18.1 7.27 9.09-11.75 12.8-3.47v-3.28z" class="ak"/></g><g id="g"><path d="m129.54 234.62 81.1-3.5 4.99 68.39 4.11 54.81-77.3 13.25-15.25-88.12 2.35-44.83z" class="cd"/><path d="m138.61 245.08-13.38-11.81-41.03-.97-4.68 120.05 62.92 15.22-3.83-122.49z" class="ab"/><path d="m84.2 232.3 62.12-12.43 64.32 11.25-72.03 13.96L84.2 232.3z" class="ae"/><path d="m100.1 229.12 46.22-9.25 8.3 5.48-14.73 6.95-23.59 1.29-16.2-4.47z" class="cb"/><path d="m149.78 255.04 19.13-4.02 2.81 3.19 1.74-4.15 7.66-1.61 2.6 2.73 2.37-3.78 16.67-3.51 1.98 24.13-52.53 7.91-2.43-20.89z" class="cj"/><path d="m168.91 251.02 2.44 10.55 15.95-2.82-1.21-11.35-4.97 1.05 1.6 6.81-7.79 1.52-1.47-6.72-4.55.96z" class="az"/><path d="m158.11 192.86 1.56 9.47-4.4 5.12 5.71 2.85 2.74 16.63-23.83 5.37-5.78-22 4.48-13.84 9.76-4.26 9.76.66z" class="ar"/><path d="m138.59 196.46-3.36-3.6h-10l-6.16 32.46 20.82 6.98-1.3-35.84z" class="au"/><path d="m159.67 202.33-12.25 2.24 1.5 8.01 12.06-2.28-1.31-7.97z" class="bf"/><path d="m158.11 192.86-7.55-7.03-4.45-2.53-6.22 4.39-1.3 8.77 19.52-3.6z" class="ak"/><path d="m142.44 187.69-9.55-3.21-7.66 8.38 13.36 3.6 3.85-8.77z" class="ar"/><path d="m147.62 171.37 13.36-3.27.84 3.27-14.4 4.47.2-4.47z" class="ae"/><path d="m132.89 184.48 3.12-13.11h7.38l1.73 8.16-2.68 8.16-9.55-3.21z" class="az"/><path d="m142.1 172.78.44-2.07 5.08.66 2.94 14.46-8.12 1.86-.34-14.91z" class="ai"/><path d="m136.01 171.37 6.09-1.68 5.52 1.68-5.52 1.41h-4.52l-1.57-1.41z" class="ba"/><path d="m136.01 171.37-16.94 9.58 3.84 2.24 19.19-10.41-6.09-1.41z" class="ae"/></g><g id="h"><path d="m149.78 303.47-48.82-6.87-6.18 29.32 55-22.45z" class="ak"/><path d="m31.69 309.22 69.27-12.62 1.16 24.22-32.57 3.35-37.86-14.95z" class="ch"/><path d="m90.9 250.52-1.56 3.3.7 1.1-1.29.14-1.04 2.2.38 1.17-.96.05-.92 1.96.63 1.13-1.24.16-.89 1.87.6.98-1.11.09-1.03 2.19.47 1.25-1.01-.11-1.08 2.28.35 1.22-.99.13-.97 2.05.2 1.12-.78.1-.97 2.05.04 1.15-.6.04-.89 1.87.24 1.13-.94.36-1.04 2.2.45 1.09-1 .06-1.07 2.26-16.65 33.71 8.74 4.15 6.76-.8 29.69-62.7-4.11-7.26-7.11-3.69z" class="aw"/><path d="m98.01 254.21-32.34 70.76 6.92 3.3 33.65-69.77-8.23-4.29z" class="by"/><path d="m86.12 270.08.96-1.4-3.91-1.82-.54 1.14 3.49 2.08zM87.42 262.71l.67-1.17-1.88-1.1-.61 1.29 1.82.98zM93.21 255.66l-3.87-1.84-.59 1.24 3.71 1.86.75-1.26zM89.01 259.6l.76-1.42-2.06-.92-.58 1.22 1.88 1.12zM85.65 265.57l.76-1.1-1.7-.87-.51 1.07 1.45.9zM82.91 272.72l.73-1.28-2.09-1.16-.64 1.35 2 1.09zM79.86 283.28l.76-1.43-3.68-1.84-.7 1.49 3.62 1.78zM76.59 285.88l.59-1.34-1.98-.84-.55 1.15 1.94 1.03zM79.86 279.25l.67-1.43-2.14-.87-.56 1.19 2.03 1.11zM81.35 275.93l.55-1.1-1.96-1.15-.58 1.22 1.99 1.03z" class="u"/><path d="m61.21 284.19-9.08-20.99-1.98-3.59-4.33-1.61-6.31-12.24 9.03-5.08 6.56 13.12-1.24 4.33 1.11 3.46 10.7 20.33-1.82 3.43-2.64-1.16z" class="ao"/><path d="m45.82 258 9.28-4.2-.13 7.79-2.84 1.61-6.31-5.2z" class="bj"/><path d="m75.23 316.1-8.32-10.92-4.54-14.35 11.21-3.72 14.85 31.23-13.2-2.24z" class="cd"/><path d="m65.67 293.13-2.15-4.25-5.27 1.95 9.56 31.47 7.42-6.2-9.56-22.97z" class="ab"/><path d="m58.25 290.83 2.96-6.64 4.46-2.27 7.91 5.19-7.91 6.02-7.42-2.3z" class="by"/><path d="m97.65 312.3-2.17-19.17 6.64-7.01 2.14 26.79-6.61-.61zM129.54 308.45l-1.74-21.48-6.88-2.78 2.14 26.2 6.48-1.94z" class="ai"/><path d="m94.78 286.97 32.41-7.52.61 7.52-32.32 6.16-.7-6.16z" class="bh"/><path d="m78.95 342.62 14.34 14.62 44.1-6.48-3.77-22.49-31.5 1.41-23.17 12.94z" class="am"/><path d="m103.93 347.96-9.15 7.44 37.35 4.68 12.13-21.48-40.33 9.36z" class="ch"/><path d="m103.93 347.96-43.79-9.36 3.47 30.71 42.63 2.88-2.31-24.23z" class="ak"/><path d="m78.95 342.62-17.68 5.99-1.13-10.01 18.81 4.02z" class="cb"/><path d="m78.95 342.62 75.12-9.4-4.29-29.75-74.55 12.63-4.7 9.82 8.42 16.7z" class="ao"/><path d="m78.95 342.62-42.06-6.1-5.2-27.3 43.54 6.88 3.72 26.52zM149.78 383.36l-43.54-11.17-5.28-13.54 2.97-10.69 50.14 6.44 4.04 17.79-8.33 11.17z" class="ak"/><path d="m154.07 354.4-4.29 28.96 70.97-14.05 4.02-31.35-70.7 16.44z" class="ch"/><path d="m125.74 350.76 27.13 11.74 1.2-8.1-28.33-3.64zM103.93 347.96l2.31 24.23-8.23-.55 5.92-23.68z" class="cb"/><path d="M52.97 328.27 74.9 362.5l5.78-3.85-23.26-34.48-4.45 4.1z" class="bh"/><path d="m151.6 316.1-5.28-27.22 7.75-1.91 4.04 30.08-6.51-.95zM176.95 309.77l-3.75-27.85 7.92 4.37 3.63 24.97-7.8-1.49z" class="ai"/><path d="m146.32 288.88 33.74-9.74 1.06 7.15-33.6 8.79-1.2-6.2z" class="bh"/><path d="m189.75 306.63 45.23 9.47-19.72 17.85-30.68 4.01-3.46-17.14 8.63-14.19z" class="ak"/><path d="m123.06 322.99 66.69-16.36-2.47 35.08h-29.17l-35.05-18.72z" class="ch"/><path d="m177.57 318.34 14.8 9.93-2.62 6.8-20.33-14.25 8.15-2.48z" style="fill:#e6b64e;fill-rule:evenodd;stroke-width:0"/><path d="m171.35 314.17-16.08 20.53 6.55 5.07 15.75-21.43-6.22-4.17z" style="fill:#eece88;fill-rule:evenodd;stroke-width:0"/><path d="m181.98 335.07 7.77-28.44 8.67 1.82-8.67 30.15-7.77-3.53z" style="fill:#74665b;fill-rule:evenodd;stroke-width:0"/><path d="m180.9 308.81 27.15 7.29v-15.04l-25.33-3.77-1.82 11.52z" class="bh"/><path d="m204.74 303.47 1.74-3.28 9.15-.68 4.11 13.4-11.69 3.19-3.31-12.63z" class="by"/><path d="m215.63 299.51-22.39-6.38-10.52 4.16 22.02 6.18 10.89-3.96z" class="aw"/><path d="m170.89 331.06-47.83-8.07 2.68 27.77 43.17 7.77 12.21-13.19-10.23-14.28z" class="ak"/><path d="m234.98 316.1-64.09 14.96-1.98 27.47 67.58-18.76-1.51-23.67z" class="ao"/><path d="m122.28 363.56 23.54-24.96 5.25 4.15-25.33 25.43-3.46-4.62z" class="bh"/></g><g id="i"><path d="M393.94 295.79c-2.59-23.74-17.31-41.6-32.87-39.9h-.01l-23.07 2.53 2.42 17.11c-2.76 7.57-3.88 16.73-2.83 26.41 1.16 10.67 4.79 20.15 9.83 27.21l1.95 17.05 22.8-4.62c14.62-2.98 24.28-22.93 21.79-45.79Z" class="ar"/><ellipse cx="342.8" cy="302.44" class="aq" rx="29.04" ry="44.28" transform="rotate(-6.23 342.654 302.282)"/><ellipse cx="342.8" cy="302.44" class="q" rx="10.57" ry="16.12" transform="rotate(-6.23 342.654 302.282)"/><path d="m343.67 306.15 25.27 8.66-4.58-7.06-8.79-4.53-14.41-4.22 2.51 7.15z" class="cj"/><path d="m356.3 255.77-17.21 48.82 4.58 1.56 16.59-36.5 5.5-13.16-9.46-.72z" class="ao"/><path d="m416.27 239.08-72.21-11.49-24.39 3.33 42.02 28.51 12.25-1.65 31.71-6.66 10.62-12.04z" class="ae"/><path d="m416.27 239.08-11.57 2.29-4.8 2.85-1.18-1.66-5.87 1.16-3.87 2.05-1.22-1.04-5.27 1.04-4.44 2.25-.65-1.24-15.71 6.13v6.52h47.9l6.68-20.35z" class="cj"/><path d="m394.04 259.43 10.66-18.06-5.98 1.19-7.27 16.62 2.59.25zM383.19 259.29l9.66-15.57-5.09 1.01-7.49 15.13 1.57 1.3 1.35-1.87zM372.28 262.09l10.21-16.32-5.09 1.01-7.25 14.77.75 2.39 1.38-1.85z" class="cd"/><path d="m428.22 255.57-31.82 6.04 19.87-22.53h29.79l-17.84 16.49z" class="ai"/><path d="m436.83 344.15 31.15-7.04-3.48-13.99-34.76-8.31-7.98 8.31 15.07 21.03z" class="bl"/><path d="m428.22 325.06 36.28-1.94 11.86-43.9-32.13 7.9-12.77 16.04-3.24 21.9z" style="fill:#29303e;fill-rule:evenodd;stroke-width:0"/><path d="m428.22 255.57 16.01 15.4v16.15l-58.28-9.09-24.26-18.6 66.53-3.86z" class="bw"/><path d="m444.23 287.12-16.01 37.94-30.2-1.94-42.45-19.9 6.12-43.79 82.54 27.69z" class="ai"/><path d="m428.22 325.06 8.61 19.09-10.15-1.83-18.78-6.62-15.67.41-8.41-1.51-28.25-31.38 72.65 21.84zM425.75 292.41l4.62.83-8.74 20.78-2.64-.83 6.76-20.78zM416.35 289.28l3.63 1.65-7.26 20.12-3.13-1.15 6.76-20.62zM407.28 286.31l3.14 1.15-6.77 20.29-3.62-1.15 7.25-20.29z" class="az"/><path d="m426.68 342.32-10.41-10.82-1.48 1.09-1.76-1.85-4.34-1.02-1.4 1.02-2.82-2.01-3.9-.92-1.02.92-1.53-1.52-5.79 8.9 7.45 1.35 1.05-1.22 1.83 1.73 4.81.87 1.08-.87 1.66 1.36 4.39.79 1.44-.79 1.59 1.34 9.15 1.65z" style="fill:#2e3544;fill-rule:evenodd;stroke-width:0"/><path d="m414.5 340.12 3.03.55-1.26-9.17-3.24-.76 1.47 9.38zM408.69 329.72l-4.22-.99 2.9 10.11 2.74.49-1.42-9.61zM402.56 337.97l-1.99-10.16-2.55-.6 1.66 10.25 2.88.51z" class="ce"/><path d="m452.29 223.44-34.45 3.83 9.05 10.01 13.12-2.56 10.15-4.06 2.13-7.22zM504.01 216.45l18.24-1.89 9.14 2.78-15.25 6.1-12.13-.19v-6.8z" class="bn"/><path d="m430.37 233.2-7.05 4.08 3.57 6.94 26.24-5.14-2.97-8.42-19.79 2.54zM531.39 217.34l-2.22 10.98-25.16 3.89v-8.96l27.38-5.91z" class="l"/><path d="m417.84 227.27-1.57 11.81 10.62 5.14 3.48-11.02-12.53-5.93z" class="bl"/><path d="M531.04 322.26c-2.83-25.94-18.92-45.47-35.93-43.62h-.01l-25.22 2.77 2.64 18.7c-3.01 8.28-4.24 18.29-3.09 28.87 1.27 11.67 5.23 22.03 10.74 29.74l2.13 18.64 24.92-5.05c15.98-3.25 26.54-25.07 23.81-50.05Z" class="ar"/><ellipse cx="475.14" cy="329.54" class="aq" rx="31.74" ry="48.4" transform="rotate(-6.23 474.888 329.383)"/><ellipse cx="475.14" cy="329.54" class="q" rx="11.56" ry="17.62" transform="rotate(-6.23 474.888 329.383)"/><path d="m368 252.5-48.33-21.58-4.26 13.59 46.28 14.92 6.31-6.93z" class="bg"/><path d="m444.23 287.12 29.57 49.5 4.43-7.17-16.36-46.67-17.64 4.34z" class="ao"/><path d="m444.23 287.12-16.01-31.55 21.86 3.55 26.51 17.49-12.09 9.7-20.27.81z" class="bg"/><path d="m444.23 287.12 56.57 16.1-5.45-18.93-18.76-7.68-32.36 10.51z" class="az"/><path d="m500.8 303.22 34.39-7.44-29.69-30.42-28.91 11.25 24.21 26.61z" class="ai"/><path d="m428.22 255.57 24.07-32.13 16.89 10.99 11.33 24.69-3.92 17.49-48.37-21.04z" class="cc"/><path d="m452.29 223.44 21.57-9.57 30.15 2.58 16.58 29.36-23.37 9.76-23.36-1.29-21.57-30.84z" class="aw"/><path d="m473.86 254.28 2.73 22.33 42.48-7.81 1.52-22.99-46.73 8.47z" style="fill:#f6f6f7;fill-rule:evenodd;stroke-width:0"/><path d="m467.98 221.32 16.74 19.46 16.08-3.5-7.45-19.39-14.32-1.44-11.05 4.87z" class="cc"/><path d="m478.78 219.86-26.49-12.58 9.15-16.83 33.29 8.02 9.28 17.98-25.23 3.41z" class="ah"/><path d="m461.44 190.45 17.34 29.41-26.49 3.58-15.46-19.63 24.61-13.36z" class="ar"/></g><g id="j"><path d="m367.61 349.85 19.16 22.34-23 2.66-25.48-2.66v-11.36l5.96-6.43 23.36-4.55z" class="v"/><path d="M338.25 372.19h48.53v5.3h-48.53z" class="al"/><path d="m344.25 358.65 5.49 18.84-16.02 3.88-22.25-3.88.53-11.61 18.73-8.64 13.52 1.41z" class="ay"/><path d="M311.47 377.49h38.27v5.3h-38.27z" style="fill:#ccad14;stroke-width:0"/><path d="m269.84 156.16 8.81-4.27 11.62 23.95-8.58 4.33-11.85-24.01z" class="au"/><path d="m294.96 148.51-37.87 18.37 1.57 20.81 44.2-20.61-7.9-18.57z" class="bj"/><path d="m258.66 187.69 11.18 1.64 40.58-17.96-4.96-5.52-4.54.13-42.26 21.71z" class="ar"/><path d="m307.66 211.71-17.39-35.87-8.58 4.33 17.16 35.81 8.81-4.27z" class="au"/><path d="m294.96 148.51 4.5-.15h6.43l4.53 23.01-9.5-5.39-5.96-17.47z" class="ah"/><path d="m392.23 286.48-8.82 22.68-8.63 10.56-1.61 15.82-2.46 6.33-14.18 8.28-9.87-1.54 2.93-34.12 42.64-28.01z" class="ay"/><path d="m346.66 348.61 24.05-6.74-3.1 7.98-23.36 8.8-2.59-4.25 5-5.79zM377.11 315.3l-10.96-1.3-5.8 22.52 12.82-.98 3.84-9.9.1-10.34z" class="cd"/><path d="m366.15 314 10.8 11.62 6.46-16.46-17.26 4.84z" class="bt"/><path d="m353.93 318.34-7.27 30.27-12.94 10.04-22.72-5.1-4.04-50.08 34.89 4.62 12.08 10.25z" class="cd"/><path d="m392.23 286.48-38.3 31.86-46.97-14.87 30.8-18.25 54.47 1.26z" class="cj"/><path d="m317.31 185.83 39.89 9.35 12.7 65.1-28.24 7.74-28.44-4.6-3.41-13.08 7.5-64.51z" class="ci"/><path d="m300.54 196.46 16.77-10.63 11.03 48.25-9.63.68-16.02-18.71-2.15-19.59zM305.29 268.86l46.94-32.19 31.59 27.31 3.75 10.04-59.23 12.46-22.21-5.32-.84-12.3z" class="bt"/><path d="m348.92 258.63 15.35 9.39 21.68 1.66-2.06-5.53-28.88-20.26-27.71 6.45-22.01 18.52 43.63-10.23z" style="opacity:.2;fill:#1d2432;fill-rule:evenodd;stroke-width:0"/><path d="m383.46 216.05 7.13 3.45 1.64 11.92-14.83 15.36-3.46-19.85 4.26-8.8 5.26-2.08z" class="by"/><path d="m349.46 229.45 14.81 38.57 19.62-3.87L368 222.14l-18.54 7.31z" class="au"/><path d="m387.57 274.02-19.57.92-5.47 5.22-6.3-4.67-25.5 1.19-5.21 12.2 6.89 9.34 25.92-5.09 4.2-4.39 7.37 2.12 22.33-4.38-4.66-12.46z" class="ay"/><path d="m356.23 275.49 2.1 17.64 11.57-2.27-1.9-15.92-11.77.55z" class="bb"/><path d="m386.86 106.67 2.55 31.39-2.21 30.04-25.41 3.27-30.23 13.11-14.65-21.85-17.45-14.27-8.02-16.84-3.49-26.82 25.47 4.87 32.84-3.96 10.88-11.54 10.86 8.74 18.86 3.86z" class="bp"/><path d="m353.63 142.15-11.37-17.03-20.76-11.04 30.31-5.86 1.82 33.93zM369.51 135.86l5.01-16.52 9.94-12.43-21.03-1.21 6.08 30.16z" class="x"/><path d="m389.41 138.06-63.95 7.32-3.96-31.3-8.23-5.99-12.73 15.89 4.08 35.22 12.69 26.63 21.8 16.5 12.7-10.62 4.42-7.23 7.76-8.15 28.24-3.63-2.82-34.64z" class="x"/><path d="m325.46 145.38 4.5 34.92 8.72 2.78 3.17 9.17-2.74 10.08-21.8-16.5-12.69-26.63-.61-5.16 7.46-7.06 13.99-1.6z" style="opacity:.15;fill:#1d2432;fill-rule:evenodd;stroke-width:0"/><path d="m363.99 176.33-38.47 4.52 13.59 21.48 16.78-3.53 8.1-22.47zM311.47 146.98l-6.85 12.22-5.16-10.84 6.43-5.77 5.58 4.39z" class="bx"/><path d="M350.4 140.27h2.82v36.12h-2.82z" style="fill:#8b6651;stroke-width:0" transform="rotate(-82.55 351.793 158.336)"/><path d="m321.5 114.08 29.42 5.07 2.71-10.93h-13.77l-18.36 5.86zM367.8 117.86l-4.37-12.16 11.14 1.04 9.89.17-16.66 10.95z" class="aa"/><path d="m331.54 126.896.322-2.932 13.479 1.48-.322 2.933z" class="cg"/><path d="m313.42 114.9 1.37 18.94-6.43.56-6.15-2.52-10.77-.36-12.27-25.75 19.45.75 14.8 8.38z" class="aa"/><path d="m310.6 80.93-4.91-2.53-18.32 5.48-10.88 12.33 2.68 9.56 21.37-10.05 10.06-14.79z" class="cd"/><path d="m287.37 83.88 26.05-18.51 33.44-10.22 35.13 18.82-36.63 6.96H310.6l-10.33 1.31-12.9 1.64z" class="ay"/><path d="m346.86 55.15-49.96 4.02-9.53 24.71 59.49-28.73z" class="bt"/><path d="m287.37 83.88-15.31-14.23-19.07 17.32 12.45 3.36 21.93-6.45z" class="cd"/><path d="m252.99 86.97-22.75 21.12 36.69-8.32 20.44-15.89-34.38 3.09z" class="bg"/><path d="m230.24 108.09 48.93-2.32 8.2-21.89-57.13 24.21z" class="v"/><path d="M378.52 123.83c0 2.21-1.79 4-4 4s-4-1.79-4-4 1.79-4 4-4 4 1.79 4 4Z" class="cg"/><path d="m356.23 90.33 10.64 18.4 3.07 31.55-7.93 3.36-8.38-1.49-3.42-31.01 6.02-20.81z" style="fill:#e8cab6;fill-rule:evenodd;stroke-width:0"/><path d="m291.03 238.67-14.54-29.91 24.05-12.3 18.17 38.3-9.72 8.52-17.96-4.61z" class="by"/><path d="m329.05 257.12-23.76 11.74-14.26-30.19 27.68-3.91 9.5 10.32.84 12.04z" class="aw"/><path d="m349.46 229.45-30.75 5.31 10.34 22.36 25.96-13.23 1.22-7.22-6.77-7.22z" class="bp"/><path d="m355.01 243.89 22.39 2.89-.29-19.85-9.11-4.79-7.78.46-10.76 6.85 5.55 14.44z" class="x"/><path d="m377.4 246.78 6.42-13.28-.36-17.45-7.8.9-7.66 5.19 9.4 24.64z" class="bx"/><path d="M346.66 348.61 311 353.55l1 12.33 32.25-7.23 2.41-10.04z" class="bg"/><path d="m330.73 276.68-9.23.29-4.76 48.29 11.47 29.14 9.65-4.57-7.13-73.15zM292.7 308.09l12.59 12.73 16.21-43.85-24.48 6.89-4.32 24.23z" class="bb"/><path d="m291.99 256.23 5.47 2.68-3.15 10.77-6.36 4.34v-9l4.04-8.79zM265.82 260.28l6.54.28 9.33 13.46-9.19.92-6.68-14.66z" class="au"/><path d="m294.31 269.68 20.48 32.73-1.57 5.68-16.6-19.21-7.78-17.46 5.47-1.74z" style="fill:#858686;fill-rule:evenodd;stroke-width:0"/><path d="m274.2 273.04 5.49-3.6 5.49-3.6-8.38-12.76 15.19 3.15-3.15 15.19 24.38 36.67-5.48 3.6-5.49 3.61-18.44-27.74-5.94-8.93-15.2-3.15 3.15-15.2 8.38 12.76z" class="ah"/><path d="m328.21 354.4-39.68-8.66-4.77-58.15 20.41 20.97 17.33-31.59 6.71 77.43z" class="ci"/><path d="m410.68 222.45 11.18-8.66v-12.86l-9.5 9.37-1.68 12.15z" class="x"/><path d="m339.11 202.33 72.13-28.52 8.91 10.67 1.71 16.45-72.4 28.52-10.35-27.12z" class="ah"/><path d="m411.24 173.81 11.74 6.15 2.8 4.99 1.11 4.8-5.03 11.18-5.59-5.02-.32-10.08-4.71-12.02z" class="au"/><path d="m422.98 179.96 10.3-4.12.18 5.8-2 6.27-4.57 1.84-3.91-9.79z" class="aa"/><path d="m433.28 175.84 8.51-3.4.41 5.2-2.23 6.84-8.51 3.43 1.82-12.07z" class="ah"/><path d="m441.79 172.44 8.38-3.35 1.97 5.52-3.78 6.5-8.39 3.37 1.82-12.04z" class="aa"/><path d="m450.17 169.09 8.09-3.24 3.18 4.37-4.99 7.63-8.09 3.26 1.81-12.02z" class="ah"/><path d="m458.26 165.85 8.05-3.22 1.67 5.47-3.48 6.51-7.93 3.2 1.69-11.96z" class="aa"/><path d="m466.31 162.63 7.55-3.07-1.96 12.02-7.4 3.03 1.81-11.98z" class="ah"/><path d="m377.4 246.78 16.93-35.01 13.77-1.75 2.58 12.43-6.63 26.03-26.65-1.7z" class="x"/><path d="m394.33 211.77 13.77-10.84h13.76l-11.18 21.52-16.35-10.68z" class="bx"/><path d="m394.33 211.77 4.04-17.22 17.58-8.72 5.91 15.1-27.53 10.84z" class="bp"/><path d="m349.18 207.178 17.485-6.66.993 2.608-17.485 6.659zM350.975 211.873l17.485-6.66.993 2.608-17.485 6.659zM352.758 216.568l17.484-6.659.993 2.607-17.484 6.66z" class="aq"/><path d="m310.6 80.93 88.23-8.6 3.22 32.77-35.18 3.63-9.41-10.21-7.36 12.64-36.68 3.74-3-19.46.18-14.51z" class="ci"/><path d="m320.67 87.91 32.36-3.22-9.53 17.99-21.35 2.02-1.48-16.79zM391.85 80.88l-32.38 3.07 12.82 15.82 21.34-2.13-1.78-16.76z" class="aa"/><path d="m313.42 114.9-34.25-9.13 31.43-24.84 2.82 33.97z" class="bb"/><path d="m353.63 142.15 9.07 4.85 7.24-6.72-16.31 1.87z" class="bx"/><path d="m291.44 131.52 14.52-6.21 5.51 21.67-12.01 1.38-8.02-16.84z" class="bp"/><path d="m296.62 134.12 5.59-2.24 3.68 10.71-9.27-8.47z" class="bx"/></g><g id="k"><path d="m639.98 391.42-2.17 6.34-4.07-.99-21.94-3.11 1.33-6.3 7.3-3.17 19.55 7.23z" class="ay"/><path d="m618.73 386.96.39 8.97-8.24-3.36 2.25-5.21 5.6-.4z" class="cd"/><path d="m533.84 365.59.99 9.17 12.89 2.22 7.75-5.75-2.84-3.8-18.79-1.84z" class="ay"/><path d="m610.28 398.62 4.17 10.95 16.28-4.92 3.01-7.88-23.46 1.85zM559.64 375.61l-4.69 12.24-15.49 2.48-4.42-11.1 24.6-3.62z" class="cd"/><path d="m554.95 387.85 46.96 11.91 5.03-12.44-52.23-8.32.24 8.85z" class="ay"/><path d="m614.45 409.57-12.54-9.81.43-8.45 10.49 4 1.1 6.66.52 7.6zM539.46 390.33l-13.87-9.8 2.08-10.6 10.84 7.48.4 4.82.55 8.1z" class="ab"/><path d="m533.84 365.59 19.36-3.91 7.51 7.92 52.78 12.56 12.43-4.27 14.06 13.53-21.25-4.46-4.97 4.51 19.98 5.3-19.81 5.2-11.59-10.66L554.71 379l-15.8 3.23-11.24-12.3 17.42 4.09 7.25-3.58-18.5-4.85z" class="ae"/><path d="m575.66 376.78 12.44 3.12-3.23 2.55-12.09-3.09 2.88-2.58z" class="ba"/><path d="m420.96 378.23 1.26 8.7-15.02 4.74-3.43-8.7 17.19-4.74z" class="ch"/><path d="m394.72 378.86-2.38 8.54 14.86 4.27-.63-6.8-2.21-3.79-9.64-2.22z" class="ah"/><path d="m394.72 378.86 13.75-4.42 12.49 3.79-14.39 6.64-11.85-6.01z" class="w"/><path d="m403.88 378.79 3.8-1.43 3.24 1.35-4.43 2.13-2.61-2.05zM451.19 391.51l-1.78 7.11-12.92 4.39-2.38-8.18 17.08-3.32z" class="ch"/><path d="m437.67 396.37-2.84-3.79-10.44-.36 1.19 7.59 10.91 3.2 1.18-6.64z" class="ah"/><path d="m451.19 391.51-14.7-4.5-12.1 5.21 13.28 4.15 13.52-4.86z" class="w"/><path d="m432.69 391.75 4.74-1.78 4.86 1.78-5.8 1.54-3.8-1.54zM371.64 393.17l.47 6.05-11.38 4.15-1.9-8.3 12.81-1.9z" class="ch"/><path d="m361.2 397.2-2.48-3.79-9.01-.24-1.19 4.74 12.21 5.46.47-6.17z" class="ah"/><path d="m371.64 393.17-11.38-3.68-10.55 3.68 11.49 4.03 10.44-4.03z" class="w"/><path d="m357.06 393.05 3.08-1.3 3.91 1.3-3.56 1.42-3.43-1.42z" class="ch"/></g></svg>