<svg xmlns="http://www.w3.org/2000/svg" id="a" viewBox="0 0 900 350"><defs><style>.aa,.ab,.ac,.ad,.ae,.af,.ag,.ah,.aj,.ak,.al,.am,.an,.ap,.aq,.ar,.at,.au,.av,.aw,.ax,.ay,.az,.ba,.bb,.bd,.be,.bf,.bg,.bh,.bi,.bj,.bk,.bl,.bm,.bn,.bp,.bq,.br,.bs,.bu,.bv,.bw,.bx,.k,.l,.m,.p,.r,.s,.t,.u,.v,.w,.x,.y,.z{stroke-width:0}.aa,.ab,.ac,.ae,.af,.ag,.ah,.aj,.ak,.am,.an,.ap,.aq,.ar,.at,.au,.av,.aw,.ax,.ay,.az,.ba,.bb,.bd,.be,.bg,.bh,.bi,.bj,.bk,.bl,.bm,.bp,.bq,.br,.bs,.bu,.bv,.bw,.bx,.k,.l,.m,.p,.s,.t,.u,.v,.x,.y{fill-rule:evenodd}.k,.r{fill:#ccae2d}.l{fill:#51596a}.m{fill:#5f5044}.bb{fill:#545c6d}.p{fill:#f4deb0}.s{fill:#9d8d56}.t{fill:#71561c}.u{fill:#c3987b}.v,.w{fill:#ac923b}.x{fill:#3d4554}.ad,.y{fill:#7d5f1f}.ae,.z{fill:#68707f}.aa{fill:#74665b}.ab{fill:#e4ae3a}.ac{fill:#8e7e73}.af{fill:#9b6533}.ag{fill:#787f8d}.ah{fill:#e9be61}.bw{fill:#b68b2e}.aj{fill:#5f6878}.ak{fill:#bbbfc6}.al,.bs{fill:#947125}.am{fill:#ecc675}.an,.bn{fill:#8d7c2f}.bj{fill:#fefcf8}.ap{fill:#576071}.aq{fill:#cc9262}.ar{fill:#eece88}.az{fill:#9f7928}.at{fill:#f4d75c}.au{fill:#886822}.av{fill:#7c4f24}.aw{fill:#af7546}.ax{fill:#ccad14}.ay{fill:#abafb8}.ba{fill:#d8a537}.bd{fill:#dfbda5}.be{fill:#f1d69c}.bf,.bm{fill:#e4c824}.bg{fill:#aa822b}.bh{fill:#f6e6c4}.bi{fill:#f9eed7}.bk{fill:#cc9c34}.bl{fill:#8b6651}.bp{fill:#1d2432;opacity:.1}.bq{fill:#fcf7eb}.br{fill:#c29431}.bu{fill:#9a9fa9}.bv{fill:#e5c828}.bx{fill:#fff7ae}</style></defs><g id="b"><path d="m9.15 296.74 35.12-8 40.71-3.13 47.12 9.99 9.2 9.37-7.66-2.86-4.47 4.26-23.77 2.81-5.99-3.23-6.11 5.02-50.03.77-34.12-15zM139.48 307.74l78.17-5.69 69.73 10.69-5.17 5.86-46.92 6.6-2.6-6.86-10.93 9.41-43.57 2.9-30.7-7.76-8.01-15.15zM292.93 316.82l18.37-3.2 33.3-.77 13.69 3.5 17.48 5.19 36.37 4.28-83.83 12.95-57.08-5.79 21.7-16.16zM483.27 313.62l-52.82-3.15-12.61 4.28 10.09 1.79 10.06-2 8.83 6.6 44.23 7.87 9.91-4.85 11.73 8.17 43.41 2.4 18.5-13.69-23.38-4.5-21.16-5.23-46.79 2.31zM586.6 320.04l-2.79-6.04 7.79-6.58 86.64-7.81 47.27-3.24 34.21 7.71 4 4.03 33.22 1.25 22.06 8.32-63.29 18.4-39.77-15.68-90.58 4.6-3.16-6.48-8.71 4.57-26.89-3.05zM844.94 290.53l45.57 4.76-17.81 12.13-36.01.94-3.75-11.32 12-6.51z" class="bp"/></g><g id="c"><path d="m816.38 101.45-28.02-31.02 6.83 1.25 26.72 28.14-1.2 3.38-4.33-1.75z" class="bg"/><path d="m849.83 96.96 22.87 23.9 16.01-8.5-42.4-20.06 3.52 4.66z" class="k"/><path d="m824.16 128.69-7.78-27.24 5.53-1.63 7.61 33.87-5.36-5z" class="bg"/><path d="m874.2 221.35-30.97-8.9-6.45 16.35 25.68 3.82 11.74-11.27z" class="bk"/><path d="m807.58 221.35 36.24-7.03-4.01 16.87-21.98.18-10.25-10.02z" class="bw"/><path d="m814.45 173.53 15.36 59.58 10-1.92-19.7-57.66h-5.66z" class="az"/><path d="m839.33 146.72-2.64 63.57-5.83-3.26-6.7-67.07 15.17 6.76z" class="bg"/><path d="m833.82 147.27-1 50-3.3-54.31 4.3 4.31z" class="bk"/><path d="m851.92 228.9 10.54-44.27-7.94.82-14.21 47.17 11.61-3.72z" class="az"/><path d="m807.58 221.35 33.43 4.24 7.4 36.88-11.72 45.89-24.25-18.57-2.04-30.87 4.65-8.73-5.89-7.82-1.58-21.02z" class="ba"/><path d="m841.01 225.59 33.19-4.24-3.19 21.72-5.97 7.57 3.73 7.62-3.92 29.58-28.16 20.52 4.02-76.99.3-5.78z" class="bw"/><path d="M809.66 248.98h12.01l17.77 6.69 2.91 3.25-3.31 4.32-28.64-4.32-.74-9.94z" class="bg"/><path d="m839.44 255.67 16.89-6.34 13.81-.35-1.37 9.28-29.73 4.98.4-7.57z" class="au"/><path d="m809.16 242.37 30.7 5.15 3.96 2.26-4.38 5.89-29.78-6.69-.5-6.61z" class="af"/><path d="m839.86 247.52 31.15-4.45-.87 5.91-30.7 6.69.42-8.15z" class="av"/><path d="m806.61 163.67 4.66 2.21-.04 3.11 3.78-1.34 12.51 5.93-24.29 15.41-30.57 6.2 3.63-22.44 30.32-9.08zM800.42 128.35l8.85 15.38 37.04 18.24 26.39-23.15-12.15-21.53-21.59 8.33-2.1 2.71-3.04-2.34-33.4 2.36zM837.73 186.54l15.91-8.62 3.55.55.98-3 11.97-6.48 16.63 9.77 3.07 29.45-52.11-21.67z" class="bm"/><path d="m825 187.84 12.73-1.3 2.34 2.06 2.25-2.53 9.12-.94 8.38 10.59-19.11 35.65-19.03-29.81 3.32-13.72z" class="at"/><path d="m815.01 167.65-42.35 27.54 38.61-29.31 3.74 1.77zM853.64 177.92l36.2 30.29-31.67-32.74-4.53 2.45zM838.96 125.62l7.35 36.35-12.49-35.98 5.14-.37zM837.73 186.54l2.98 44.83 1.61-45.3-4.59.47z" class="k"/><path d="m821.91 99.82 14.65-15.34L875.97 93l12.74 19.36-38.88-15.4-27.92 2.86zM786.83 65.62l-20.13-9.45-17.83 18.09 9.62 24.94 26.07-19.7 28.59-9.11-26.32-4.77z" class="bm"/><path d="m786.83 65.62-15.38 7.78-12.96 25.8 10.66-29.11 17.68-4.47z" class="k"/><path d="m812.44 289.79 25.02 3.7 4.86 6.12-5.63 8.75-23.26-3.58-.99-14.99z" class="ag"/><path d="m837.46 293.49 27.39-5.65-2.16 16.34-26 4.18.77-14.87z" class="aj"/></g><g id="d"><path d="m670.17 318.9-16.87-3.63-1.7-6.8 10.43 1.24 9.17 6.09-1.03 3.1z" class="ag"/><path d="m669.47 315.8.7 3.1 12.7-2.52v-4l-10.11 1.09-3.29 2.33z" class="bu"/><path d="m653.89 309.27 15.58 6.53 13.4-3.42-13.4-4.96-15.58 1.85z" class="ak"/><path d="m716.13 312.1-10.37-1.71-5.44-9.87 11.21-.91 8.83 2.32-4.23 10.17z" class="ag"/><path d="m729.19 299.61-.49 10.57-12.57 1.92-4.6-12.49h17.66zM625.36 325l11.67-2.44 3.75-15.45-14.32 6.89-4.26 6.4 3.16 4.6z" class="ap"/><path d="m626.46 314-1.1 11-11.87-1.91-2.26-15.67 8.45-.31 6.78 6.89z" class="ag"/><path d="m586.6 320.04 9.09-1.52 2.86-12.58-4.21-1.86-7.85 5.63.11 10.33z" class="ap"/><path d="m578.12 305.85-.98 12.37 9.46 1.82 5.51-15.68-13.99 1.49z" class="ag"/><path d="m731.49 226.98-2.3 72.63L626.46 314l-9.9-76.44 73.59-8.87 41.34-1.71z" class="bs"/><path d="m589.55 144.67 30.13.72v64.67l37.28 9.25 1.66 16.3-8.3 13.25-17.62-5.43-6.24 70.57-48.34-8.15 10.07-143.29 1.36-17.89z" class="bg"/><path d="m610.23 149.03 38.56-8.02 50.55-1.14 7.66 58.52-38.55 10.01-48.77 1.66-9.45-61.03z" class="bs"/><path d="M589.55 144.67 661.3 133l38.04 6.87-89.11 9.16-20.68-4.36z" class="br"/><path d="m620.77 144.67-14.22-2.77 14.22-2.31L661.3 133l38.04 6.87-40.69 1.01-37.88 3.79z" class="bp"/><path d="m644.45 261.2 76.08-17.77-3.06 46.86-77.62 11.64 4.6-40.73zM629.77 191.56l2.32 16.84 29.34-1.1 30.97-6.96-2.63-18.34-60 9.56z" class="bg"/><path d="M619.68 210.06 707 198.39l39.06 11.67-63.19 16.03-34.08-.77-29.11-15.26z" class="br"/><path d="m650.32 248.86 98.52-17.6-2.78-21.2-97.27 15.26 1.53 23.54z" class="af"/><path d="m620.77 157.64 10.34-1.53 3.63 24.51-10.14 1.53-3.83-24.51zM638.57 155.34l32.17-4.02 3.26 24.13-32.36 4.02-3.07-24.13z" class="p"/><path d="m677.32 150.77 5.4-.5.5 3.18-5.27.7-.63-3.38zM678.25 157.6l5.34-.63.4 2.89-5.34.66-.4-2.92zM679.24 164.43l5.17-.83.5 2.78-5.27.9-.4-2.85zM680.3 171.18l5.14-.59.5 2.98-5.24.73-.4-3.12z" class="at"/><path d="m686.26 149.86 5.55-.64.51 2.93-5.75.58-.31-2.87zM687.09 156.81l5.48-.83.45 2.56-5.55.7-.38-2.43zM687.98 163.26l5.42-.7.51 2.55-5.48.64-.45-2.49zM689 170.09l5.36-.77.51 3.13-5.49.7-.38-3.06z" class="aq"/><path d="m640.49 213.43 19.04 10.2 43.77-2.67 28.84-8.72-25.14-7.87-7.58 1.03-.22.35-1.42-.13-6.02.82-.72.89-4.73-.15-4.98.68-.39 1.34-4.26-.7-3.97.54-.77 1.34-3.88-.71-5.67.77-.21.4-1.38-.18-5.94.81-.73.98-3.78-.36-9.86 1.34z" class="bq"/><path d="m659.53 223.63 72.61-11.39.65 5.08-10.57 1.69-.6-.83-.75 1.04-10.84 1.73-.83-.85-.71 1.09-8.8 1.4-.86-1.36-.55 1.59-7.96 1.27-.84-1.12-.29 1.3-9.02 1.43-.97-.81-.21 1-8.45 1.35-.47-.82-.52.98-9.47 1.5-.55-5.27z" class="p"/><path d="m653.11 212.35 15.29 9.89 1.2.78.47-1.04-16.34-10.35-.62.72zM660.8 210.66l17.44 10.04.92.53.53-.76-17.3-10.03-1.59.22zM670.54 209.71l17.68 9.42 1.41.58.17-.82-18.28-9.69-.98.51zM678.99 208.88l18.42 8.81 1.72.49.27-.8-19.5-9.32-.91.82zM689.36 207.28l18.36 8.79 1.66.41.21-.7-19.34-9.13-.89.63zM697.78 205.62l22.12 8.54 1.5.58.41-.88-22.39-8.46-1.64.22z" class="be"/><path d="m650.35 212.09 8.27 5.23 5.18-.88-8.94-4.97-4.51.62zM668.06 209.67l8.62 4.73 5.32-.77-9.29-4.59-4.65.63zM676.68 208.5l9.05 4.39 5.31-.86-9.71-4.17-4.65.64zM686.31 207.18l8.85 4.13 6.02-1.03-9.42-3.84-5.45.74z" class="ap"/><path d="m670.07 221.98.47 5.26-.99.16-1.15-5.16 1.67-.26zM678.24 220.7l.75 5.19 1.18-.19-.48-5.23-1.45.23zM688.22 219.13l.97 5.14 1.13-.18-.52-5.2-1.58.24zM697.41 217.69l.87 5.13 1.41-.23-.29-5.21-1.99.31zM707.72 216.07l.78 5.16 1.53-.28-.44-5.17-1.87.29zM719.9 214.16l.97 5.06 1.35-.21-.41-5.15-1.91.3z" class="ah"/><path d="m597.72 235.4 21.19 5.11-7.14 60-19.66-2.3 5.61-62.81z" class="ba"/></g><g id="e"><path d="m599.2 65.62 2.7 13.54 4.4.78-4.4-19.77-2.7 5.45zM652.26 52.22 640.2 28.51l-1.73 2.56 10.52 22.34 3.27-1.19zM629.57 72.26l-12.02-17.55-2.44 2.27 12.26 18.52 2.2-3.24zM624.4 75.5l-11.68-13.54-2.49 2.57 7.09 14.03 7.08-3.06zM679.84 61.96l10.28-22.6-4.8-2.49-8.07 25.09h2.59zM672.63 59.51l10.21-26.27h-4.37l-10.34 23.92 4.5 2.35z" class="al"/><path d="m685.01 124.95-30.08-3.26-3.67 8.78 10.09 2.62 23.66-8.14z" class="z"/><path d="m625.14 124.95 28.27-3.26 1.85 8.78-16.5 1.22-13.62-6.74z" style="fill:#545c6d;stroke-width:0"/><path d="m648.62 126.9-13.89-15.65-.08-4.56 14.93 15.03-.96 5.18z" class="ad"/><path d="m649.4 98.42-3.65 35.92 12.64 1.47 5.73-37.39H649.4z" class="al"/><path d="m670.61 94.63-7.79 24.23-3.03 17.11-4.86-.56 6.78-36.99 8.9-3.79zM656.22 108.23l-3.49 26.92h-2.13l5.62-26.92zM654.93 98.42l-5.35 35.92 2.68-35.92h2.67z" class="ad"/><path d="m658.65 115.13 13.6-17.62 5 5.17-14.43 16.18-4.17-3.73z" class="al"/><path d="m687.11 87.77-9.86 12.33-42.63 7.57-21.93-12.43-20.17-2.04 9.38-14.04 18.06.13 9.61-7.03 6.35-5.48 1.38-12.15 21.35-2.41 13.98 7.29 11.34 8.41 11.34-5.21 22.7 21.09-13.92 5.06-16.98-1.09z" class="r"/><path d="m604.39 92.2 9.19-5.32 28.72 8.36 18.38-7.47 11.95 3.37 8.92-11.86 36.46 4.52-10.79 12.64-16.97-2.24-6.28 1.04-2.6 9.45-25.15 3.54-13.1-3.84-8.39 6.86-23.47-13.74-6.87-5.31z" class="w"/><path d="m637.3 54.63 12.28 19.81-20.01-2.18 7.73-17.63zM672.63 59.51h-16.41l-1.29-6.1 5.75-6.1 11.95 12.2zM649.58 74.44l6.64-14.93 25.33 19.77-31.97-4.84z" class="bn"/><path d="m695.31 62.71-13.76 16.57-8.92-19.77 22.68 3.2zM649.58 74.44l-13.66 7.53 24.76 5.8-11.1-13.33zM629.57 72.26l-27.67 6.9 11.68 7.72 22.34-4.91-6.35-9.71zM660.68 47.31l-23.38 7.32 18.92 4.88 4.46-12.2z" class="bf"/><path d="m681.55 79.28 8.7 14.92-8.88 10.49-20.69-16.92 20.87-8.49zM642.3 95.24l13.92 12.99-21.49 3.02 7.57-16.01zM613.58 86.88l-2.32 10.63-18.74-4.31 21.06-6.32z" class="bn"/><path d="m625.14 124.95 31.08 3.44 7.56 4.7-5.13 7.79-29.34-2.68-4.17-13.25z" class="z"/><path d="m656.22 128.39 28.79-3.44-9.54 12.68-16.82 3.25-2.43-12.49z" style="fill:#4b5464;stroke-width:0"/><path d="m625.96 35.6 35.24 5.04h17.49l9.44 1.4 18.9-5.8-28.56-12.32-8.64-4.69 1.47-4.69-12.91 4.18-16.27.99-16.16 15.89zM632.93 51.4l-15.38 10.56-16.99.92-8.94-10.66-17.36-2.8 18.26-14.08 8.04 5.3 14.55-2.42 17.82 13.18z" class="r"/><path d="m624.4 56-13.88 1.87-11.32-4.46-2.85-7.04-22.09 3.05 14.56 3.99 7.81 3.48 2.57 8.73 20.51-1.69L624.4 56zM697.17 37.52l-15.62-4.28-19.52 4.3-7.64-1.53-3.79-6.41-24.64 6 20.8 5.81 7.63-1.16 6.29 7.06 18.29-4.12 11.15-.28 7.05-5.39z" class="w"/><path d="m671.3 14.54-7.52 4.18-2.58 4.18 17.27 1.02-7.17-9.38z" class="bn"/><path d="m661.2 22.9-10.6 6.7 30.95 3.64L661.2 22.9z" class="bf"/><path d="m642.12 19.71 19.08 3.19 10.1-8.36-29.18 5.17zM615.11 38.22l-18.76 8.15-3.83-11.03 22.59 2.88z" class="bf"/><path d="m650.6 29.6-3.84 11.81 13.92 5.9 1.35-9.77-11.43-7.94zM681.55 33.24l25.48 3-14.01 12.52-14.05-5.57 2.58-9.95zM632.93 51.4l-22.41 6.47 9.19 6.06 13.22-12.53z" class="bn"/><path d="m596.35 46.37-7.53 7.04 10.38 12.21 11.32-7.75-14.17-11.5z" class="bn"/></g><g id="f"><path d="m755.71 294.85 1.37 15.79 2.05 1.47 2.42-3.03 2.17-19.48-8.01 5.25z" class="ap"/><path d="m719.51 270.05 18.32 20.55 17.88 4.25 6.86-21.7-20.49-.57-22.57-2.53z" class="br"/><path d="m755.71 294.85 22.18-5.25 12.34-22.77-35.89 13.03 1.37 14.99z" class="bg"/><path d="m705.46 256.97 57.11 2.01-4.59 10.44-3.64 10.44-52.09-8.81 3.21-14.08z" class="ae"/><path d="m752.81 266.83 11.3-7.85 36.31-3.2 2.68 16.42-48.76 7.66-1.53-13.03z" class="l"/><path d="m705.46 256.97 44.94-9.52 50.02 8.33-47.61 11.05-47.35-9.86z" class="ay"/><path d="m757.08 310.64-17.87 6.73 18.48 7.32 2.03-8.33-2.64-5.72z" class="aw"/><path d="m761.55 309.08 14.04 9.93-13.02 4.32-6.86-1.26 1.37-11.43 4.47-1.56z" class="af"/><path d="m739.21 317.37-1.53 5.5 16.66 4.79 3.35-2.97-1.98-2.62-16.5-4.7z" class="af"/><path d="m754.34 327.66 22.79-3.55-1.54-5.1-19.88 3.06-1.37 5.59z" class="av"/></g><g id="g"><path d="m94.87 161.09 8.32-16.51h-2.2l-7.37 14.98 1.25 1.53zM95.62 163.58l16.29-18.68 6.1-.32-20.86 21.41-1.53-2.41z" class="ag"/><path d="m64.57 146.58 16.85 19.4-.91-4-10.07-15.4h-5.87z" class="ae"/><path d="m129.17 306.37-7.02-1.02-2.94-17.92 10.85 1.79 2.04 6.38-2.93 10.77zM93.3 310.97l-9.45-1.79-3.32-18.17 15.32 2.3.89 6.89-3.44 10.77z" class="bb"/><path d="m53.21 303.56 10.6-1.14 5.74-14.22-12.13-4.21-5.1 6 .89 13.57zM142.06 291.65l-.76 13.32-12.13 1.4-.77-16.51 13.66 1.79zM93.17 298.11l.13 12.86 12.1-1.79 1.79-16-14.02 4.93z" class="ag"/><path d="m44.27 288.74.26 13.42 8.68 1.4 4.09-16.64-13.03 1.82z" class="bb"/><path d="m93.17 298.11-48.9-9.37-1.53-74.25 55.41 9.25v27.85l-4.98 46.52z" class="bs"/><path d="m147.62 217.18-5.56 74.47-48.89 6.46-1.68-68.67 15.59-8.47 40.54-3.79z" class="bg"/><path d="m156.64 199.7-2.33 21.39-62.82 8.35-6.51-9.28 1.15-14.1 70.51-6.36z" class="bk"/><path d="m94.17 212.49-17.11-7.42-52.78-2.09 4.46 15.6 62.75 10.86 2.68-16.95z" class="bw"/><path d="m156.64 199.7-71.66-6.22-60.7 9.5 69.89 9.51 62.47-12.79z" class="at"/><path d="m94.17 202.98-9.19-9.5-25.14 3.93-16.62 2.61 25.22 4.04 25.73-1.08z" class="bp"/><path d="m54.23 233.98 14.04 8.07 14.05-3.15-4.79 17.4 5.79 28.33-30.09-5.47 4.38-22.86-3.38-22.32z" class="y"/><path d="m82.32 238.9-9.77 6.69-4.28 12.28-2.04-14.48-12-9.41-1 45.18 15.04-21.29 15.05 26.76-1-45.73z" class="bg"/><path d="m54.23 233.98 14.04 23.89 14.05-18.97-28.09-4.92zM100.51 237.25l35.23-4-1.53 21.82-32.65 3.55-1.05-21.37zM102.52 268.71l31.12-3.02-1.34 16.18-29.11 2.76-.67-15.92z" class="ba"/><path d="m114.68 244.73 3.25-3.64 3.55 3.55-3.45 3.35-3.35-3.26zM115.25 274.7l3.26-3.06 3.06 2.96-3.25 3.07-3.07-2.97z" class="af"/><path d="m125.03 196.95-3.22-10.92-36.83 6.15 2.51 6.06 6.68 4.74 30.86-6.03z" class="bu"/><path d="m91.49 193.59-6.51-3.58-22.84-1.25-2.3 8.65 34.33 5.57-2.68-9.39z" class="ae"/><path d="m62.14 188.76 18.83-4.02 13.2-2.82 27.64 4.11-30.32 7.56-29.35-4.83z" class="ak"/><path d="m105.95 183.67-14.46-37.09-13.21 4.34 4.04 30.05 8.29 6.78 7.54-2 .89-2.19 2.86 1.19 4.05-1.08z" class="bu"/><path d="m78.28 150.92 12.33 36.83-9.64-3.01-2.69-33.82z" class="ae"/><path d="m83.32 152.32 10.85 34.49-7.69-38.59-3.16 4.1zM101.9 184.75l-11.19-33.63 7.44 34.63 3.75-1z" class="ag"/><path d="m83.32 152.32 48.75-6.64 6.07-16.08-59.86 6.89v10.09l5.04 5.74z" class="v"/><path d="m82.32 140.96-4.04-6.25-27.05-1.92-3.77 12.79 35.86 6.74-1-11.36z" class="an"/><path d="m51.23 132.79 33.75-9.19 24.21 2.42 28.95 3.58-55.82 11.36-31.09-8.17z" class="at"/><path d="m51.23 132.79 33.75-9.19 24.21 2.42 18.4 2.27-40.63 8.94-35.73-4.44z" class="bp"/><path d="m91.43 133.28-1.37-7.59 8.34-3.01 6.42 2.1-5.63 7.2-7.76 1.3z" class="bu"/><path d="m91.43 133.28-10.01-1.3-3.14-10.19 10.46 1.81 3.37 5.34-.68 4.34z" class="ae"/><path d="m92.11 128.94 72.28-8.59-1.76-14.26H83.32l-1.9 13.07 10.69 9.78z" class="v"/><path d="m92.11 128.94-47.84-6.15-3.14-12.78h41.62l5.99 3.04 3.37 15.89z" class="an"/><path d="m162.63 106.09-71.14-6.42-50.36 10.34 47.61 3.04 73.89-6.96z" class="at"/><path d="m131.79 103.3-40.3-3.63-30.11 6.18 25.58 5.44 44.83-7.99z" class="bp"/><path d="m106 105.09 6.74-15.05-17.12-2.27-7.51 8.55 2.03 10.93 6.56-.89 3.73-3.21 1.47 2.5 4.1-.56z" class="bu"/><path d="m101.9 105.65 4.05-16.51-2.87-.38-6.38 17.6 5.2-.71zM90.14 107.25l-12.79-1.16L73 85.85l22.62 1.92-5.48 19.48z" class="ag"/><path d="m93.82 95.16 53.14-3.56 3.83-13.79-60.65 1.56 3.68 15.79z" class="v"/><path d="m95.62 83.04-10.28-3.67-28.89.74 3.32 9.83 34.05 5.22 1.8-12.12z" class="an"/><path d="m56.45 80.11 39.17-6.9 55.17 4.6-55.17 5.23-39.17-2.93z" class="at"/><path d="m120.27 75.27-26.95 3.98-6.36-11.49 28.45-2.81 4.86 10.32z" class="v"/><path d="m93.32 79.25-16.19-2.78 3.32-9.73 9.7-.51 1.28 3.7 1.89 9.32z" class="an"/><path d="m115.41 64.95-16.66-1.44-7.32-.99-4.47 1.72-6.51 2.5 10.98 3.19 23.98-4.98z" class="at"/><path d="m105.07 64.06-9.45-15.45-5.48 12 3.18 5.62 11.75-2.17z" class="br"/><path d="m95.62 48.61-8.66 15.63 6.36 1.99 2.3-17.62z" class="az"/></g><g id="h"><path d="m187.88 279.15 40.85-6.48 49.83 6.81-11.33 3.18-39.53-3.51-38.87 6.47-.95-6.47z" class="y"/><path d="m175.29 318.82 8.94-2.3 5.87-60.15-12-3.94-4.81 30.45 2 35.94z" class="ac"/><path d="m169.42 252.43-4.85 64.09 10.72 2.3 5.37-64.09-11.24-2.3zM282.21 318.6l-9.68-2.08-9.41-60.15h13.28l4.1 43.81 1.71 18.42z" class="aa"/><path d="m287.61 257.56 5.32 59.26-10.72 1.78-10.15-61.73 15.55.69z" class="ac"/><path d="m177.98 286.72 9.9-7.57 31.78 7.97-2.95 5.56-38.73-5.96zM235.87 293.2l41.4-4.64-10.04-5.9-36.12 5.08 4.76 5.46z" class="bs"/><path d="m221.76 327.75-8.93-2.3 4.46-64.99 17.49 6.27-6.05 39.83-6.97 21.19z" class="aa"/><path d="m227.62 269.16-5.86 58.59 13.53-2.55 3.01-60.51-10.68 4.47z" class="ac"/><path d="m221.76 250.65 5.86 18.51 67.42-10.6 1.46-13.97-74.74 6.06z" class="ae"/><path d="m227.62 269.16-67.39-12.29-3.6-13.28 48.03 2.73 24.07 12.24-1.11 10.6z" class="l"/><path d="M156.63 243.59 227.62 231l68.88 13.59-67.77 13.97-72.1-14.97z" class="ay"/><path d="m156.63 243.59 15.98-2.84 52.97-.14 18.08-1.18 10.27 8.16-27.37-3-29.32 1.42-26.08.59-14.53-3.01z" class="bp"/><path d="m230.03 223.9-12.43-2.53-16.66 5.55 8.23 4.85 12.59-2.61 8.27-5.26z" class="av"/><path d="m180.65 215.74 1.61 5.94 14.55 4.76-5.09-13.52-4.82.11-6.25 2.71z" class="ar"/><path d="m188.97 219.72-6.71 1.96 2.37 8.76 13.37-4-2.34-6.72h-6.69z" class="aw"/><path d="m180.65 215.74 2.8-3.88 2.42-2.55 2.86 1.02 2.99 2.59-11.07 2.82z" class="bj"/><path d="m183.45 211.86-.45-5.75 3.19-1.05 2.54 5.27-5.28 1.53z" class="aw"/><path d="m186.19 226.44-3.97-4.73-3.88-.92-.7-4.54-3.13-3.73-4.36 1.72-5.91 7.64 3.25 4.56 5.68 3.48 13.02.87v-4.35z" class="ar"/><path d="m182.26 221.68-9.09 8.24-5.68-3.48 10.15-10.19 4.62 5.43z" class="au"/><path d="m174.51 212.52-10.27 9.36.55-6.63 1.04-2.73 2.66-.6 6.02.6z" class="bj"/><path d="m164.79 215.25-2.66-4.13 2.11-2.17 4.25 2.97-3.7 3.33z" class="au"/><path d="m200.94 230.44 1.61-6.04-1.16-4.31 3.25-3.5 2.05-7.64-4.89-3.89h-6.89l-3.19 7.86-.03 4.11-2.72 2.69-4.34 10.72 8.05 1.81 8.26-1.81z" class="p"/><path d="m204.64 216.59-12.92-3.67-2.75 6.8 13.58 4.68 2.09-7.81z" class="aa"/><path d="m194.91 205.06 5.03-2.2 3.11-.9 1.59 2.11 2.05 4.88-11.78-3.89z" class="bj"/><path d="m199.94 202.86 2.81-5.53 3.36 1.19-1.47 5.55-4.7-1.21z" class="aa"/><path d="m204.64 216.59-6.9 6.15-4.2 6.93 13.59 3.83 7.3-6.09 3.17-6.04-6.48-4.78h-6.48z" class="ar"/><path d="m204.64 216.59 6.48-3.67h3.74l1.53 1.84 1.21 6.61-12.96-4.78z" class="bj"/><path d="m197.74 222.74 16.69 4.67-5.51 10.49-19.95-7.34 8.77-7.82zM211.12 212.92l3.97-5.43 3.37 1.07-2.07 6.2-5.27-1.84z" class="au"/><path d="m230.03 223.9-1.92 7.2-1.55 1.31.98.83-1.96 7.37-28.34 5.4-4.56-9.79 8.26-5.78 29.09-6.54z" class="aw"/><path d="m200.94 230.44-33.45-4 2.34 6.54 1.49 1.15-.67 1.13 1.96 5.49 24.63 5.26 3.7-15.57z" class="af"/><path d="m228.11 231.1-28.69 5.72-1.99 1.46 1.37 1.14 28.74-6.18.57-2.14z" class="bm"/><path d="m199.42 236.82-29.59-3.84.82 2.28 28.15 4.16.62-2.6z" class="k"/><path d="m233.52 212.92 19.26-3.61 5.31 10.66-10.34 8.68-14.23-15.73z" class="bh"/><path d="m270.6 211.49-17.82-2.18-3.58 13.43 9.98 2.31 11.42-13.56z" class="am"/><path d="m252.14 227.82-13.57-39.69 2.17-3.7h4.62l8.57 39.88-1.79 3.51z" class="ap"/><path d="m238.57 188.13 6.79-3.7-4.84-5.03-1.95-.65-1.43 2.83 1.43 6.55z" class="bs"/><path d="m240.52 179.4-1.08-10.93h-4.6l-4.37 4.08 6.67 9.03 3.38-2.18z" class="bm"/><path d="m239.44 168.47-9.83-8.62.86 12.7 8.97-4.08z" class="bx"/><path d="m251.15 216.59-1.95-32.16 2.94-1.85 4.21 1.08-1.53 48.11-3.67-15.18z" class="ae"/><path d="m249.2 184.43 7.15-.77-2.57-6.66-2.44-2.63-1.05 3.45-1.09 6.61z" class="bs"/><path d="m253.78 177 1.87-10-5.07-1.43-4.79 3.35 4.5 8.9 3.49-.82z" class="at"/><path d="m255.65 167-4.93-4.59-2.25-7.13-2.68 13.64 9.86-1.92z" class="bx"/><path d="m251.15 216.59 19.45-5.1-1.24 7.49-4.24 4.11 3.01 3.35-3.01 18.15-11.19 3-6.18-18.05 3.4-12.95z" class="bh"/><path d="m251.15 216.59-17.63-3.67 1.48 7.05 3.57 4.29-2.05 2.94 3.73 17.81 13.68 2.58-2.78-31z" class="am"/><path d="m269.36 218.98-17.55 4.92-2.61 2.54 3.11 3.1 15.82-3.1 1.23-7.46z" class="bm"/><path d="M251.81 223.9 235 219.97l1.52 7.23 15.79 2.34-.5-5.64z" class="k"/></g><g id="i"><path d="m543.59 318.84 7.63-2.3-21.42-70.98-4.59 2.81-.26 15.83 7.4 25.28 11.24 29.36z" class="t"/><path d="m528.78 262.78 14.81 56.06-13.28-1.79-24.51-67.15 11.24-1.78 11.74 14.66z" class="bs"/><path d="m512.69 332.33 8.94-2.26-9.45-87.83-12.51 4.6 1.02 49.53 12 35.96zM446.82 321.14l9.45-2.56 28.6-92.42-10.98-4.34-16.6 45.95-10.47 53.37z" class="t"/><path d="m452.29 242.35-24.36 74.19 18.89 4.6 26.81-85.02-21.34 6.23z" class="bs"/><path d="m452.29 242.35-3.49 10.62 15.48 12.8 9.35-29.65-21.34 6.23z" class="bp"/><path d="m486.4 253.62 4.65 75.39 21.64 3.32-8.21-85.49-18.08 6.78z" class="bs"/><path d="m486.4 253.62.84 13.71 19.39 1.83-2.15-22.32-18.08 6.78z" class="bp"/><path d="m510.82 29.69 7.35-2.49 4.97 15.71-11.34 40.97-.98-54.19z" class="ac"/><path d="m516.19 45.01 6.95-2.1-38.27 239.29-9.39 5.09-10.74 3.91 10.74-15.38 33.69-228.89 7.02-1.92z" class="m"/><path d="m464.74 291.2 12.21-1.62 7.92-7.38-6.64 1.4-6.58 1.15-6.91 6.45z" style="fill:#46382d;fill-rule:evenodd;stroke-width:0"/><path d="m501.12 43.48 9.7-13.79 5.37 15.32-37.96 238.59-13.49 7.6-4.51-12.57 40.89-235.15z" class="aa"/><path d="m437.99 112.44 39.98-39.26 84.68 13.06-22.89 154.42-10.98 22.12-92.94-36.32-12.89-27.4 3.11-17.91 9.4-15.38-3.39-19.24 5.92-34.09z" class="p"/><path d="m422.95 199.06 15.04-11.57 15.22 9.8-5.88 4.95 1.54 2.64 28.85 13.05 27.83-4.85 15.06 10.49 5.43-1.25 2.74-5.92 10.98 3.42-8.14 25.61-18.41 3.21-55.15-12.94-28.15.99-9.36-23.82 2.4-13.81z" class="bj"/><path d="m453.21 197.29-15.22 5.59 10.88 2 4.34-7.59zM420.55 212.87l20.4 10.7 4.65 6.13-15.69 6.99h-13.5l4.14-23.82zM528.78 216.4l5.05 15.5-13.22-8.33 8.17-7.17zM533.83 231.9l-15.38 11.12 3.05 2.89 9.85 1.14 2.48-5.96v-9.19z" class="bi"/><circle cx="531.94" cy="157.99" r="7.79" style="fill:#fefcf8;stroke-width:0"/><path d="m497.93 224.15-6.75-41.69-4.78-3.75-7.15 5.01-7.6 2.62v35.98l26.28 1.83z" class="ah"/><path d="M486.4 178.71v4.26l2 34.96-5.07 5.83-1.58-24.2 1.07-16.21 3.58-4.64z" class="ab"/><path d="m486.4 221.82-6.25 1.75 1.6-24.01 4.65 22.26z" class="br"/><path d="m474.17 187.28 3.8 35.5-6.32-.46-1.37-32.31 3.89-2.73zM518.45 165.77l-1.32-12.38-4.4 3.07 2.86 12.54 2.86-3.23z" class="ab"/><path d="m491.18 182.46 27.75-12.81-.48-3.88-27.14 9.2-.13 7.49z" class="ah"/><path d="m480.15 177.06-20.82-42.05 3.22-2.04 20.27 37.95-2.67 6.14z" class="ab"/><path d="m455.25 165.77 6.94-7.78.23 3.89-4.86 7.12-2.31-3.23z" class="ah"/><path d="m479.25 183.72-.99-3.09-2.78.28-20.23-15.14-7.28-1.12-2.37 2.82 22.92 18.87 5.65.94 5.08-3.56z" class="ab"/><path d="m470.28 190.01 3.89-2.73-26.2-22.63-7.02-1.09 1.15 3.11 28.18 23.34z" class="br"/><path d="m494.57 222.32-3.37-22.76.11 22.76h3.26zM505.8 188.75l3.7-6.76 1.15.47-2.17 8.4-2.68-2.11z" class="ab"/><path d="m487.16 196.36 13.8-5.63 7.52.13-17.28 8.7-4.04-3.2z" class="ab"/><path d="m505.8 188.75 15.7 6.86h-6.89l-13.65-4.88 4.84-1.98z" class="ah"/><path d="m484.79 162.47 2.68-22.87 6.2 3.79-1.44 10-7.44 9.08z" class="ab"/><path d="m491.18 182.46-4.78.51-.9-2-2.68 2.38-3.57.37v-6.21l14.62-28.94 5.59-2.04 3.92 12.99-12.2 22.94z" class="ab"/><path d="m479.25 183.72-3.77-2.81 18.19-37.52 5.79 3.14-20.21 37.19zM500.98 151.59l-18.16 31.76 3.58-.38 15.24-29.22-.66-2.16z" class="br"/><path d="m443.9 111.54 13.66 8.15-4.39 14.36 23.08.19 28.72 20.01 21.83.76 5.75-16.46 16.38 1.05 6.98-18.67 3.38-13.9 2.17-21.83-72.23-10.28-44.28-1.52-4 22.01 2.95 16.13z" class="aw"/><path d="m440.95 95.41 15.1 6.89 3.28 6.88 14.8 11.08 3.46 7.76 16.98-2.66 18.16 17.71 10.05-3.16 3.36-8.57 27.92-4.37-5.13 12.63-12.36 3.47-4.63 14.92-28.56 1.53-29.25-19.61-6.79-5.57-20.15 1.56 6.02-14.09-3.1-6.32-12.12-3.05 2.96-17.03z" class="af"/><path d="m499.46 95.99-17.94 4.03 13.05 25.34 13.66-9.22 10.22-3.45 15.38 5.37 20.23-9.81-37.87-16.02-16.73 3.76z" class="af"/><path d="m508.23 116.14-26.71-16.12 5.95-5.51 11.99 1.48 34.37 22.07-12.8 2.2-12.8-4.12zM526.14 131.34l10.43 11.73-33.19 16.45 9.35-16.45 13.41-11.73zM494.57 125.36l-20.44 14.55-26.94-4.01 26.94-15.64 20.44 5.1zM453.21 121.81l6.12-12.63-21.34 3.26 15.22 9.37z" class="av"/><path d="m526.14 131.34-17.91-15.2 25.6 1.92-7.69 13.28zM459.33 109.18l22.19-9.16-1.37-7.17-12.21-3.65-12.32-1.92-14.67 8.13 18.38 13.77z" class="aq"/><path d="m469.2 145.43 12.32 11.31-13.58 3.55-8.61-7.62-9.03-6.14 12.12.83 6.78-1.93z" class="aw"/><path d="m450.3 146.53 13.98 3.8 4.12 6.7 13.12-.29-8.05 6.82-5.53-2.36-5.52.68-4.86-6.87-1.04-1.62-4.3-.57-1.92-6.29z" class="af"/><path d="m468.4 157.03-5.98 4.85 11.05 1.68-5.07-6.53zM464.28 150.33l-6.72 4.68-5.34-2.19 12.06-2.49z" class="av"/><path d="m464.28 150.33 4.92-4.9-18.9 1.1 13.98 3.8z" class="aq"/><path d="m432.07 146.53 7.73 9.42 4.13-3.47 6.37 7.81-6.41 7.18-5.9 4.3-5.31 1.73-3.38-11.03 2.77-15.94z" class="aw"/><path d="m450.3 160.29-14.84 5.48-6.16-3.3-1.43 8.25 1.75 6.79h6.22l2.15-5.74 1.09-2.2 7.05.43 4.17-9.71z" class="af"/><path d="m437.99 171.77-2.53-6 10.67 4.23-8.14 1.77zM435.84 177.51l-7.97-6.79-1.81 10.43 9.78-3.64z" class="av"/><path d="m443.93 152.48-2.98 11.08-8.88-17.03 11.86 5.95z" class="aq"/><path d="m514.61 195.61 11.53-13.15 7.69.89 8.7-4.64 1.7 10.04-4.74 8.54-8.67 2.27-9.79 4.24-6.42-8.19z" class="aw"/><path d="m514.61 195.61 9.83-.46 7.5-5.14 7.55 7.28 1.4 6.51-10.07-4.24-10.21 6.84-6-10.79z" class="af"/><path d="m526.14 182.46 5.8 7.55 10.59-11.3-16.39 3.75z" class="aq"/><path d="m530.82 199.56-16.21-3.95 17.33-5.6-1.12 9.55z" class="av"/><path d="m516.19 92.23-21.62-13.07h25.4l19.79 4.98-23.57 8.09zM467.94 89.2l2.34-10.04-9.05-7.73-16.28 1.97-4 22.01 26.99-6.21zM467.94 89.2l8.69-5.06 9.77 3.14 13.06 8.71-17.94 4.03-13.58-10.82z" class="af"/><path d="m467.94 89.2-6.71-17.77 33.34 7.73-8.17 8.12-18.46 1.92zM539.76 84.14l14.3 24.11 7.4-23.05-21.7-1.06z" class="aq"/><path d="m466.48 279.39 1.34 4.02 3.93-2.58-2.2-4.12-3.07 2.68zM505.97 43.96l3.16-3.35 2.3 3.83-4.5 3.25-.96-3.73z" class="m"/><path d="m451.67 221.26 36.73-3.33 2.78 8.53-3.16 4.44-38.64-4.44 2.29-5.2z" class="bu"/><path d="m488.4 217.93 16.95 6.85 2.11 11.91-19.44-5.79.38-12.97zM440.95 223.57l41.04.85 4.41 8.91-48.41-5.35 2.96-4.41z" class="ag"/><path d="m481.99 224.42 35.24 8.91 1.53 12.1-38.61-12.1 1.84-8.91z" class="aj"/><path d="m437.99 227.98-21.58 8.71 61.56 7.94-4.21-15.6-35.77-1.05z" class="ae"/><path d="m473.76 229.03 57.59 18.02.59 9.36-3.16 6.37-28.34-6.58-12.26-.07v-2.77l-71.77-16.67 53.87-1.7 3.48-5.96z" style="fill:#4b5464;fill-rule:evenodd;stroke-width:0"/><path d="m470.28 234.99 59.78 17.98-68.9-14.31 9.12-3.67z" class="ae"/><path d="m569.8 82.66-27.23 174.89-13.79 5.23 29.28-176.54 1.58-2.36 10.16-1.22z" class="am"/><path d="m444.95 73.4 22.98-7.27L569.8 82.66l-11.74 3.58L444.95 73.4z" class="bj"/><path d="m534.78 251.82 2.68-2.81 2.17 1.66-3.06 3.19-1.79-2.04zM538.04 230.05l2.3-2.43 2.3 2.43s-2.81 1.79-3.19 2.17-1.4-2.17-1.4-2.17ZM541.99 208.48l2.3-2.68 2.04 1.91-2.42 3.19-1.92-2.42zM545.44 185.24l2.55-2.68 1.79 2.04-2.55 2.69-1.79-2.05zM549.33 162.39l2.3-2.93 1.53 2.29-1.78 3.07-2.05-2.43zM553.04 138.71l2.42-1.91 1.41 1.78-1.92 2.43-1.91-2.3zM557.12 114.2l2.17-2.17 2.17 1.79-2.55 2.81-1.79-2.43z" class="s"/><path d="m500.44 256.2-18.14 4.55-8.67-16.12 14.08-.46 1.52 9.43 11.21 2.6z" class="an"/><path d="m482.3 260.75-33.5-7.78-5.81-17.12 23.49 4.34 12.77 6.86 3.05 13.7z" class="v"/><path d="m487.71 244.17-38.33-10.84-6.39 2.52 36.26 11.2 8.46-2.88z" class="at"/></g><g id="j"><path d="m345.36 319.69 6.27 4.15 6.29-1.09 3.12-3.07 1.46-8.34-7.2-6.1-7.74-4.1-3.9 10.87v2.42l1.7 5.26zM318.8 312.01l5.1 6.46 1.72 10.23-3.19 2.14-11.13-1.18-4.14-5.1.94-5.41 3.2-5.53 7.5-1.61z" class="bd"/><path d="m352.28 302.68-4.72-1.54-3.9 2.57v8.3l11.64-6.77-3.02-2.56zM322.48 310.06l-3.31-3.05-4.78 1.24-3.09 5.37 12.6 4.85-1.42-8.41z" class="bl"/><path d="m343.66 314.43 9.71 7.31-5.28 1.01-4.43-1.21v-7.11z" class="u"/><path d="m362.5 311.34-13.02 10.2 1 1.21h4.21l11.67-8.14-3.86-3.27z" class="bs"/><path d="m353.95 321.54 17.36-9.76 4.46 9.76-18.31 2.14-3.51-2.14z" class="u"/><path d="M343.66 321.54h32.11v4.28h-32.11z" class="ad"/><path d="m308.1 319.15 17.52 9.55-5.96 1.85-11.98-9.01.42-2.39z" class="bs"/><path d="m308.1 319.15-8.98 9.55 16.69 2.14 3.85-2.14-11.56-9.55z" class="u"/><path d="M299.12 328.7h26.51v4.28h-26.51z" class="ad"/><path d="m386.98 195.92-9.67-11.86-29.54 11.88 19.75 16.59 16-10.63 3.46-5.98z" class="bd"/><path d="m377.31 184.06-11.81-14.48-14.21 33.1L366.8 201l10.51-16.94z" class="x"/><path d="m369.68 247.18-17.4 3.44-12.87 14.31-7.18 16.01 3.88 23.67 25.04-10.11 9.21-15-.68-32.32z" class="bs"/><path d="m335.92 285.52.19 19.09 34.71-4.13-3.85-12.17 3.39-8.81-34.44 6.02z" class="k"/><path d="m339.41 264.93-2.34 28.15-18.48 3.41-18.59-8.03 2.38-35.42 22.07-3.81 14.96 15.7z" class="az"/><path d="m300 288.46 4.51 9.23-5.61 7.1 36.52 8.16 1.65-19.87-37.07-4.62z" class="bv"/><path d="m300 288.46-1.1 16.33 37.21-.18L300 288.46z" class="ax"/><path d="m347.77 165.19 7.77 1.92 4.18 9.69-1.64 28.61-49.54 6.01-2.52-37.98 2.62-3.18 8.45-4.46 17.01 6.71 13.67-7.32z" class="x"/><path d="m369.68 247.18-30.27 17.75-37.03-11.89-.18-45.08 5.06-6.79 5.35-3.63 43.59-5.92 5.4 2.32 5.2 7.06 2.88 46.18z" class="au"/><path d="m365.5 169.58 1.3 31.42-10.6-9.38-.66-24.51 9.96 2.47zM308.64 170.26l3.97 27.28-8.87 8.87-1.54 1.55-3.84-33.34 10.28-4.36z" class="bw"/><path d="M321.46 204.05h29.65v30.22h-29.65z" style="fill:#9f7928;stroke-width:0" transform="rotate(-4.6 336.216 219.118)"/><path d="m277.56 107.96 15.85 5.38-1.07-7.86-.02-6.63-9.54 3.67-5.22 5.44z" class="t"/><path d="m276.6 92.38-5.44 17.92 18-6.36-1.87-17.4-4.69-.52-6 6.36z" class="au"/><path d="m368.27 57.12-17.13-14.2-7.35 8.91 1.3 5.55 3.9 9.8 7.87.42 11.41-10.48z" class="bg"/><path d="m370.11 76.06 6.57.73 6.6 8.37-10 12.51-7.08-8.48 3.91-13.13zM323.09 69.28l-4.89 15.54 11.2-.25 6.08-2.67-12.39-12.62z" class="t"/><path d="m370.11 76.06-2.6-6.78 5.11-8.86 11.76 15.64-1.1 9.1-13.17-9.1z" class="ax"/><path d="m372.62 60.42 20.96 16.48-10.3 8.26-10.66-24.74z" class="bg"/><path d="m370.11 76.06 2.51-15.64 1.43-8.61-17.19 15.79-4.1 4.24.53 10.01 16.82-5.79z" class="au"/><path d="m356.86 67.6-11.77-10.22-7.85 8.51-1.76 16.01 11.23 1.24 8.3-4.53 1.85-11.01z" class="ax"/><path d="m351.14 42.92-27.31 10.85 11.62 6.85 9.64-3.24 6.05-14.46z" class="bm"/><path d="m345.09 57.38-21.26-3.61.78 11.95 10.87 16.18 9.61-24.52z" class="bg"/><path d="m335.48 81.9-11.5-8.08-8.11-2.11-3.39-5.97-1.13-7.77 7.62-5.12 2.48-4.92 2.38 5.84 11.65 28.13z" class="ax"/><path d="m312.48 65.74-6.8-3.02-6.42-6.32-.69-7.48 20.4 3.93-6.49 12.89z" class="bg"/><path d="m312.48 65.74-13.22-9.34-8.12 8.66.73 12.04 9.65 10.53 10.59-11.52.37-10.37z" class="au"/><path d="m291.14 65.06-10.37 5.31.31 6.48 5.06 5.94 15.38 4.84-10.38-22.57z" class="bg"/><path d="m291.14 65.06-23.34 5.07 13.28 6.72 10.06-11.79z" class="bm"/><path d="m281.08 76.85-14.44 16.88 16.65-3.02 9.92 1.14 8.31-4.22-20.44-10.78z" class="ax"/><path d="m372.43 91.13 7.59 58.32-26.16 6.2-3.99 5.61-19.15 2.02-18.44-31.41-3.96-39.21 64.11-1.53z" class="bd"/><path d="m322.14 98.86 15.52 60.5 9 .95 1.11 4.88-8.73 13.69-21.95-13.08-3.24-7.18-1-5.1-2.32-2.25-5.76-22.05 2.74-15.16 6.93-14.01 7.7-1.19zM334.34 108.8l7.71.8 7.49 12.93-.13-14.28-4.1-7.69-8.32 4.33-2.65 3.91zM355.74 98.74l1.45 19.04 5.1-12.64 6.79-3.19-5.46-2.57-7.88-.64z" class="u"/><path d="m345.31 100.56-12.54 3.19 1.57 5.05 10.97-8.24zM355.74 98.74l12.78-2.05.56 5.26-13.34-3.21z" class="au"/><path d="m345.75 135.53 10.49-5.54 10.38 1.86-9.06 5.34-11.81-1.66z" class="t"/><path d="m369.7 130.32-12.41 6.15-15.51-1.26 16.07 5.91 11.85-10.8z" class="bw"/><path d="m314.44 100.05 7.5 17.21-8.5 3.8-3.87-2.93-12.95 2.34-7.46-16.53 14.01-6.4 11.27 2.51z" class="au"/><path d="m353.86 155.65-22.06 5.06 15.97 4.48 6.09-9.54zM317.1 133.85l-4.64 12.37-6.65-9.17 9.79-4.48 1.5 1.28zM326 144.25l-12.15 14.37-3.28-7.37 5.4-4.64 10.03-2.36z" class="bl"/><path d="m355.74 98.74-10.43 1.82 4.23 21.97 4.96.54 5.28-2.44-4.04-21.89z" style="fill:#e8cab6;fill-rule:evenodd;stroke-width:0"/><path d="m359.78 120.63-4.17 6.07-6.07-4.17 10.24-1.9z" class="bl"/><circle cx="341.98" cy="115.59" r="3.12" style="fill:#232a38;stroke-width:0"/><path d="M366.76 111.31c-.19 1.71-1.73 2.95-3.44 2.76s-2.95-1.73-2.76-3.44 1.73-2.95 3.44-2.76 2.95 1.73 2.76 3.44Z" style="fill:#232a38;fill-rule:evenodd;stroke-width:0"/><path d="m289.16 103.94 83.27-12.81-2.32-15.07-43.15 11.82-37.8 16.06z" class="ax"/><path d="m370.11 76.06-86.82 14.65 5.87 13.23 80.95-27.88z" class="bv"/><path d="m312.48 65.74-10.96 21.89 8.24 13.14 8.44-15.95 5.78-11-11.5-8.08z" class="bg"/><path d="m296.62 120.47 14.51-6.31 6.54 15.27-14.1 6.4-6.95-15.36z" class="bd"/><path d="m310.07 127.79.2-2.65-2.11-4.66-7.36 2.84 5.73 3.52 3.54.95z" class="bl"/><path d="m318.99 128.82 7 15.42-15.42 7-7-15.42 15.42-7Zm-10.39 8.9 3.86 8.5 8.5-3.86-3.86-8.5-8.5 3.86Z" class="t"/><path d="M309.03 125.41h4.12v12.98h-4.12z" style="fill:#b68b2e;stroke-width:0" transform="rotate(-24.43 311.112 131.908)"/><path d="m337.07 293.08 33.29-13.58.46 20.98-33.75-7.4z" class="bm"/><path d="m415.81 193.76 7.14 5.3-3.23 7.3h-7.58l.79-10.42.62-2.7 2.26.52z" class="at"/><path d="m367.48 212.01 18.03-33.29 12.47-2.52-3.68 12.63-4.77 19.71-14.94 5.26-7.11-1.79z" class="u"/><path d="m392.56 173.47-1.84 11.24 3.58 4.12 6.87-3.88-2.03-14.26-6.58 2.78z" class="bl"/><path d="m410.72 169.45 5.28 13.2-2.33 2.06-10.09-7.21-6.22-12.11 13.36 4.06z" class="u"/><path d="m374.54 138.37-2.53 2.33 20.39 30.62 11.19 8.31-6.3-8.16.07-6.08-22.82-27.02z" class="bb"/><path d="m412.93 195.94-8.18-4.74 1.35-5.86 7.57-.63 2.14 9.05-2.88 2.18z" class="au"/><path d="m395.81 176.43 8.94 14.77 8.92-6.49-7.14-8.46-10.72.18z" class="ag"/><path d="m390.72 184.71 5.09-8.28 8.05 2.42 2.67-2.6-9.17-10.86-11.85 13.33 5.21 5.99z" class="bd"/><path d="m422.95 199.06-3.53 5.07-7.28 2.23 16.71 5.24-4.41-6.72-1.49-5.82z" class="af"/><path d="m303.73 206.4-5.43 10.96-13.01 5.58 3.19-27.47 8.96-6.62 5.38 12.15.91 5.4z" class="bd"/><path d="m298.36 174.62-9.88 20.85 14.34 5.53-4.46-26.38z" class="x"/><path d="m303.73 206.4 17.17 6.35-2.62 8.71-5.17 2.65-27.82-1.17 18.44-16.54z" class="u"/><path d="m313.11 224.11-1.05 6.79 7.84 16.09 11.85-6.12-18.64-16.76z" class="v"/><path d="m322.94 240.87 61.66-2-7.47 14.75-57.23-6.63 3.04-6.12z" class="k"/><path d="m377.13 253.62 31.33-22.05-1.56-7.46-22.3 5.33-7.63 16.7.16 7.48z" class="v"/><path d="m313.11 224.11 7.79-11.36 20.72 3.33 47.91-7.54 17.37 15.57-29.93 22.03-54.03-5.27-9.83-16.76z" class="at"/><path d="m327.59 222.56 7.25-5.19 6.08 1.6 1.4 6.58-14.73-2.99z" class="bl"/><path d="m334.84 217.37 5.32-4.58 6.55 9.1-4.39 3.66-7.48-8.18z" class="u"/><path d="m327.59 230.74 5.99-1.8 5.98 4.79-9.18 1.82-2.79-4.81z" class="aw"/><path d="m346.31 235.44 5.54-3.23 6.34 2.69-3.52 3.99-8.36-3.45z" class="k"/><path d="m368.7 234.72 5.63-4.14 4.92 4.94-6.48 3.34-4.07-4.14z" class="ac"/><path d="m384.23 219.44 7.04 1.32-1.8 5.69-8.91-2.34 3.67-4.67z" class="ba"/><path d="m363 218.95 4.82-2.25 5.28 2.25-5.92 5.19-4.18-5.19z" class="bq"/><path d="m350.6 224.67 3.99-2.78 6.08 2.78-5.04 4.27-5.03-4.27z" class="ap"/></g></svg>