<svg xmlns="http://www.w3.org/2000/svg" id="a" viewBox="0 0 900 350"><defs><style>.m{fill:#404857}.aa,.ab,.ac,.ae,.ag,.ah,.ai,.ak,.al,.am,.ao,.ap,.aq,.ar,.as,.av,.aw,.ax,.az,.ba,.bb,.bc,.be,.bg,.bh,.bi,.bj,.bk,.bm,.bn,.bp,.bt,.bu,.bw,.bx,.by,.bz,.ca,.cb,.cc,.cd,.ce,.cf,.cg,.ch,.ci,.cj,.ck,.cl,.m,.o,.r,.u,.v,.w,.x{stroke-width:0}.aa,.ab,.ae,.ah,.ai,.ak,.am,.ao,.ar,.av,.ax,.az,.ba,.bb,.bc,.bh,.bi,.bj,.bk,.bm,.bn,.bp,.bt,.bw,.bx,.by,.cb,.cc,.cd,.cf,.ch,.ci,.cj,.cl,.m,.o,.v,.w,.x{fill-rule:evenodd}.ar{fill:#576071}.be,.o{fill:#51596a}.bk,.r{fill:#89909b}.cb{fill:#1d2432;opacity:.1}.u{fill:#ccae2d}.v{fill:#71561c}.w{fill:#dddfe2}.x{fill:#c3987b}.bx{fill:#8b6651}.aa,.ce{fill:#3d4554}.ab,.ag{fill:#7d5f1f}.ac,.ah{fill:#68707f}.ae,.bu{fill:#e4ae3a}.ai,.ca{fill:#9b6533}.ak,.bz{fill:#787f8d}.al,.cj{fill:#b68b2e}.am{fill:#5f6878}.bh{fill:#abafb8}.ao,.bg{fill:#bbbfc6}.ap,.cd{fill:#947125}.aq,.av{fill:#454d5d}.as,.ax{fill:#f4d75c}.aw,.bi{fill:#9f7928}.az{fill:#886822}.ba{fill:#7c4f24}.bb,.ck{fill:#af7546}.bc{fill:#ccad14}.cc{fill:#c29431}.bj{fill:#d8a537}.bm{fill:#343c4b}.bn{fill:#545c6d}.bp{fill:#dfbda5}.by{fill:#e4c824}.bt{fill:#aa822b}.bw{fill:#cc9c34}.cf{fill:#cccfd4}.cg{fill:#232a38}.ch{fill:#9a9fa9}.ci{fill:#e5c828}.cl{fill:#4b5464}</style></defs><g id="b"><path d="m7.51 288.56 23.73-5.05L59 280.39l72.26 3.57 7.96 11.62-43.19 4.83-3.58-4.7-3.18 6.07-47.12 3.12-23.49-5.62-11.15-10.72zM156.28 295.2l47.49-5.36 64.08 6.89-19.19 21.16-48.47 1.82L143 309.24l13.28-14.04zM305.98 306.54l22.63-13.61 34.73-15.35 37.53 9.19 93.19 17.62 4.85 7.15-14.03 6.35-32.18-.22-17.36-3.92-11.11 10.85-15.25-.13-31.15-7.03-17.3-5.65-13.61 5.65-27.49-3.86-13.45-7.04zM372.98 333.63l4.82-1.81 11.07 2.67-2.17 5.56-10.18-1.54-3.54-4.88zM431.77 329.4l11.71-2.53 4.4 6.89-10.66.29-5.45-4.65zM521.97 313.58l15.05-3.54 22.87 3.54 39.17 11.73 11.09.29 7.33 4.92-6.56 1.62-6.2.54-6.11 7.38-14.79-6.14-45.77-9.4-11.2.52-4.88-11.46zM708.66 317.13l-6.26-19.88-47.6-2.31 36.31-7.64-4.5-4.03-82.37-9.04-82.6 2.83-19.8 14.74 81.99 9.74 37.35-1.83 20.38 20.12 67.08-2.7ZM860.87 293.88l3.33-7.66-22.94-5.04-79.42-7.68-40.81 4.43-32.92 5.03 26.55 13.77 47.18 6.21 49.08-.93 8.39-7.17 4 4.77 37.56-5.73zM153.29 258.01l-47.25 2.38 39.59 24.87 12.16.31 45.18-3.83-14.52-18.17-35.16-5.56z" class="cb"/></g><g id="c"><path d="m208.54 31.85 59.69-.93 12.53 230.11-56.91 8.74-24.48-161.76 9.17-76.16z" class="cj"/><path d="m215.06 37.06-6.52-5.21-33.27 1.46-10.57 229.93 59.15 6.53-8.79-232.71z" class="bi"/><path d="m175.27 33.31 48.95-8.4 44.01 6.01-53.17 6.14-39.79-3.75z" class="bw"/><path d="m225.98 48.26 9.61-1.21 7.14 1.67 7.5-3.5 8.43-1.05 1.28 19.15-33.2 3.32-.76-18.38zM228.02 78.89l8.53-.68 8.35 2.18 7.06-3.41 7.98-.64 1.27 20.68-31.91 3.32-1.28-21.45zM229.04 114.64l8.97-1.25 8.39 1.4 6.41-3.47 9.17-1.28 1.79 22.22-33.45 3.83-1.28-21.45z" class="bj"/><path d="m235.59 47.05 3.35 5.16 8.61-1.34 2.68-5.65-14.64 1.83zM236.55 78.21l3.73 5.6 9.19-.96 2.49-5.87-15.41 1.23zM238.01 113.39l4.37 5.27 8.81-1.53 1.62-5.81-14.8 2.07z" class="cd"/></g><g id="d"><path d="m139.22 295.58-6.31-.92-5.93-12.4 9.1 1.15 5.98 6.28-2.84 5.89z" class="o"/><path d="m89.27 301.78 6.76-1.37 2.21-12.26-10.45 1.54-.87 3.95 2.35 8.14zM37.39 294.66l6.63-.75 5.2-12.95h-8.03l-3.8 6.34v7.36zM145.74 286.37l.77 8.29-7.29.92-3.14-12.17 9.66 2.96z" class="ah"/><path d="m88.85 294.56.42 7.22-8.06-.98-1.56-10.64 9.2 4.4zM31.32 282.4l-.76 11.18 6.83 1.08 3.8-13.7-9.87 1.44z" class="o"/><path d="m91.35 179.51 33.55-4.68 13.26 103.63-39.01 5.2-7.8-104.15z" class="bw"/><path d="m104.74 195.63 2.6-4.42 7.02-1.17 3.64 3.9-13.26 1.69zM106.04 215.92l2.6-4.16 7.41-1.43 2.86 4.42-12.87 1.17zM108.25 237.11l2.6-4.55 7.67-1.3 3.25 4.29-13.52 1.56zM109.94 259.61l3.25-4.81 7.8-1.04 2.86 4.29-13.91 1.56z" class="ba"/><path d="m90.63 197.26 38.82-6.24 1.17 4.29-39.79 5.46-.2-3.51zM91.61 217.69l41.35-6.24.19 4.88L92 221.4l-.39-3.71zM93.56 238.37l40.96-5.66.19 4.68-40.18 4.68-.97-3.7zM93.36 260.45l39.55-4.47 5.51-.6v4.29l-44.86 4.88-.2-4.1z" class="ai"/><path d="m134.12 163.45-56.56.7-8.58 45.6 19.87 84.81 56.88-8.19-11.61-122.92Zm-42.77 16.06 33.55-4.68 13.26 103.63-39.01 5.2-7.8-104.15Z" class="bi"/><path d="m82.44 170.16-2.79-4.61-39.53-.69-8.88 118.65 57.61 11.05-6.41-124.4z" class="az"/><path d="m134.12 163.45-45.27-5.58-48.73 6.99 42.32 5.3 51.68-6.71z" class="cc"/><path d="m122.24 161.99-33.39-4.12-48.73 6.99 22.3 2.79 24.7-.49 35.12-5.17z" class="cb"/><path d="m112.38 160.77-.74-4.98-29.13.22-1.53 5.46 4.79 3.44 26.61-4.14z" class="ch"/><path d="m85.77 164.91-22-3.44 2.09-5.68 16.65.22 2.78 2.72.48 6.18z" class="ah"/><path d="m65.86 155.79 19.91-2.51 25.87 2.51-26.35 2.94-19.43-2.94z" class="cf"/><path d="m83.25 156.26-.84-17.01 8.48-2.61-1.73 19.62h-5.91z" class="ch"/><path d="m67.3 93.54 13.04-6.19 32.12-2.13 11.72 16.75-11.72 8.44-24.95-3.96L67.3 93.54z" class="bb"/><path d="M112.46 85.22 83.27 78.5l-7.11 1.85-2.55 2.94-7.09-.43-13.55 3.53 10.98 14.46 12.21-7.7 36.3-7.93z" style="fill:#cc9262;fill-rule:evenodd;stroke-width:0"/><path d="m133.09 126.18-1.26 20.9-15.32-2.15-19.83 5.29-15.47-22.19 51.88-1.85z" class="ai"/><path d="m114.23 134.38 17.6 12.7-35.15 3.14 17.55-15.84zM96.68 150.22l-42.58-6.3 3.06-5.65-6.17-2.77-4.02-10.89 1.87-2.73-4.26-3.71-3.42-9.26 11.81-13.52 23.19-2.24 11.35 13.3 3.51 26.17 5.66 17.6z" class="ba"/><path d="m64.83 104.08-10.4 8.6-10.74-8.6 9.28-17.69 23.19 6.76-11.33 10.93z" class="ai"/><path d="m41.16 108.91 2.53-4.83 10.93 4.18 10.21-4.18 6.5 7.34-17.34 4.7-12.83-7.21zM44.58 118.17l11.41 3.51 15.34-5.56-2.79 5.99-12.76 5.52-8.81-3.02-2.39-6.44z" class="cc"/><path d="m76.16 80.35 23.71 7.62v3.39l-8.85-1.46-24.5-7.04 9.64-2.51z" class="ax"/><path d="m99.87 87.97 12.1 15.49-1.21 2.61-3.84-1.99-15.9-14.18 8.85-1.93z" class="ae"/><path d="m106.92 104.08-7.05 15.15 14.36 15.15 3.55-4.18 1.45 2 13.86-6.02-8.91-24.21-2.93 2.11-2.04-1.5-7.24.88-2.52 2.61-2.53-1.99z" class="ah"/><path d="m106.92 104.08 7.31 30.3-10.78-.82-1.95-3.26-3.78 2.83-6.7-.51-9.81-17.53 6.3-8.64 10.17-1.24 1.48 1.98 2.99-2.53 4.77-.58z" class="bn"/><path d="m87.51 106.45-22.68-2.37 3.71 18.03 22.48 10.51-3.51-26.17z" class="av"/><path d="m91.02 132.62-36.92 11.3-3.11-8.42 40.03-2.88z" class="ai"/><path d="m124.18 101.97-4.95 30.23-5 2.18 4.98-31.8 4.97-.61zM111.97 103.46l-1.39 15.77-2.6-6.55-1.06-8.6 5.05-.62z" class="bk"/><path d="m106.92 104.08-9.2 29.05 5.73.43 7.13-14.33-3.66-15.15zM102.15 104.66l-8.94 28.13 4.47-27.58 4.47-.55z" class="ah"/></g><g id="e"><path d="m619.8 26.92-3.4 252.98-6.99 1.2-2.8-7.19 1.8-222.4 2.1-24.59h9.29z" class="bh"/><path d="m613.01 28.89-2.5-1.97h-5.3l-1.39 252.78 5.59 1.4 3.6-252.21z" class="bk"/><path d="m619.8 26.92-7.73-1.99-6.86 1.99 7.8 1.97 6.79-1.97z" class="cf"/><path d="m701.52 31.59-7.33.3-3.86 69.39 1.3 177.02 4.49 10.99 7.79-2-2.39-255.7z" class="bh"/><path d="m693.92 33.85-2.29-1.96-4.5 1.2.4 254.4 8.59 1.8-.5-58.74-1.62-2.87 1.56-3.84-.41-47.7-2.3-2.37 2.25-3.37-.41-47.44-2.48-2.71 2.42-3.97-.49-57.18-2.05-2.87 1.98-5.36-.15-17.02z" class="bk"/><path d="m701.52 31.59-8.2-1.66-6.19 3.16 6.79.76 7.6-2.26z" class="cf"/><path d="m569.96 36.59-8.07-.28-3.46 5.08-5.87 243.62 2.68 4.28 6.46-2.05 8.26-250.65z" class="bh"/><path d="m562.74 38.09-2.4-1.5h-4.02l-8.75 251.6 7.67 1.1 1.73-57.94 5.16-4.02-4.88-5.11 1.41-47.48 3.53-3.93-3.21-6.7 1.23-41.07 3.07-3.36-2.82-4.97 1.7-57.01 3.1-3.32-2.83-5.86.31-10.43z" class="bk"/><path d="m556.32 36.59 5.74-2.06 7.9 2.06-7.22 1.5-6.42-1.5z" class="cf"/><path d="m694.63 116.28.06 6.68-43.08 9.89-6.42-10.54 49.44-6.03z" class="bw"/><path d="m651.61 132.85-91.4-9.81.25-8.33 66.13-.21L652 125.07l-.39 7.78z" class="bt"/><path d="m695.1 170.4.05 5.74-46.24 10.59-8.53-15.92 54.72-.41z" class="bw"/><path d="m648.91 186.73-90.25-11.99.32-10.63 62.22 4.06 28.13 10.07-.42 8.49z" class="bt"/><path d="m695.56 223.84.06 6.71-49.33 8.4-12.51-15.11h61.78z" class="bw"/><path d="m646.29 238.95-89.32-7.6.28-9.13 64.75.05 24.78 6.78-.49 9.9z" class="bt"/><path d="m695.56 223.84-48.78 5.21-89.53-6.83 53.09-6.29 85.22 7.91z" class="ax"/><path d="m621.62 216.97 25.42 6.87-39.67-1.7 9.88-5.57 4.37.4z" class="cb"/><path d="m695.1 170.4-45.77 7.84-90.35-14.13 52.76-6.01 83.36 12.3z" class="ax"/><path d="m635.78 160.36-1.86 10.45-40.09-3.6-18.5-4.96 11.88-1.36 48.57-.53z" class="cb"/><path d="M694.63 116.28 652 125.07l-56.47-6.62-9.56-3.32-5.73 1.52-19.78-1.94 51.43-7.52 82.74 9.09z" class="ax"/><path d="m655.76 117.33-25.06 1.12-17.49-5.69 5.5-4.82 6.72.74 30.33 8.65zM602.35 115.33l-6.82 3.12-9.56-3.32-5.73 1.52-19.78-1.94 19.43-2.84 22.46 3.46z" class="cb"/><path d="m672.76 221.72-1.95-23.14-27.43.67 3.66 24.59 25.72-2.12z" class="am"/><path d="m648.14 202.07-7.02-3.49-16.93-.9-3.07 22.98 25.92 3.18 1.1-21.77z" class="cl"/><path d="M670.81 198.58 648.14 195l-23.95 2.68 23.95 4.39 22.67-3.49z" class="ak"/><path d="m659.56 206.98 7.29-1.3.3 3.59-7.29 1.1-.3-3.39z" class="ao"/><path d="m667.62 113.31-2.26-35.4H652l-1.53 2.43-1.14 13.28 6.43 23.71 11.86-4.02z" class="ai"/><path d="m655.76 117.33-31.56-3.82 4.84-19.02 3.55-2.47-1.84-4.26 2.5-9.85 8.61-.94 8.61 3.37 1.9 12.55 3.39 24.44z" class="ba"/><path d="m665.36 77.91-11.27-5.33-4.76-1.73-2.76 3.53-2 2.46 5.9 3.5 14.89-2.43z" class="bb"/><path d="m646.57 74.38 3.9 5.96-17.22-2.43 5.86-4.8 4.53-2.26 2.93 3.53z" class="ai"/><path d="m630.75 87.76 11.11 2.58-1.48 5.95-11.34-1.8 1.71-6.73z" class="by"/><path d="m654.09 72.58-2.67-10.66-6.85.63 2 11.83 7.52-1.8z" class="am"/><path d="m646.23 63.02-.26-1.1h-3.65l-3.21 11.19 7.46 1.27-.34-11.36z" class="cl"/><path d="m642.32 61.92 4.25-1.2 4.85 1.2-5.19 1.1-3.91-1.1z" class="bk"/><path d="m595.53 118.45-4.3-8.18v-7.19l19.28-2.3-.38 4.22-1.72 1.48 1.49 1-.78 8.59-13.59 2.38z" class="bi"/><path d="m594.52 105.58-4.59-3.98-10.79-.02.29 4 1.87 2.36-1.6 1.28.54 7.43 15.29 1.8-1.01-12.87z" class="ab"/><path d="m610.51 100.78-13.49-3.16-17.88 3.96 15.38 4 15.99-4.8z" class="ax"/><path d="m610.13 105-15.39 3.4-.91 1.61 1.18 1.79 14.89-4.32.23-2.48z" class="by"/><path d="m594.74 108.4-15.31-2.82.27 3.64 15.31 2.58-.27-3.4z" style="fill:#ac923b;fill-rule:evenodd;stroke-width:0"/><path d="m669.72 143.45-35.8-5.01-22.43-3.24-4.88 21.58 42.72-1.42 20.39-11.91z" class="ab"/><path d="m590.59 153.61-5.42-13.17 26.32-5.24 3.78 17.76-1.33 6.86-23.35-6.21z" class="cd"/><path d="m633.92 138.44.73 2.67-3.1 2.46-3.51 1.4-1.3-3.86 2.05-1.83 5.13-.84z" class="ak"/><path d="m622.8 137.75 5.48-4.08 5.64 4.77-5.88 3.01h-3.11l-2.13-3.7z" class="ao"/><path d="m624.69 139.09 2.97-2.11 1.13 1.4-3.1 2.06-1-1.35z" class="ak"/><path d="m604.61 136.57 7.36.92 3.23 3.15 1.05 5.25-3.24 3.68-5.45 2.13-4.09-2.37 3.64-3.44 1-4.78-3.5-4.54z" class="ch"/><path d="m604.61 136.57 6.55 5.5-2.25 6.46-5.44.8-3.8-6.29 4.94-6.47z" class="ao"/><path d="m603.27 143.69 2.02-3.05 2.02 2.07-2.02 2.93-2.02-1.95z" class="ak"/><path d="m628.04 141.45.75 4.79-4.59 3.93-6.87 1.53-4.32-2.13-1.04-3.94 5.36 2.34 5.2-1.4 5.51-5.12z" class="ch"/><path d="m615.2 140.64 7.6-2.89 5.24 3.7-5.64 6.08-5.5 1-4.93-2.9 3.23-4.99z" class="w"/><path d="m617.33 143.14 3.33-2.03 1.87 1.01-3.4 2.85-1.8-1.83z" class="bk"/><path d="m640.38 147.17 1.2 4.06-2.87 4.4-7.99 2.47-4.86-3.41-1.66-4.52 5.99 2.47 6.06-1.74 4.13-3.73z" class="ch"/><path d="m628.42 143.86 6.23-2.75 5.73 6.06-2.4 5.12-7.72 2.4-6.06-4.52 4.22-6.31z" class="w"/><path d="m630.19 148.53 1.53-3.09 3.6 2.46-3.03 2.2-2.1-1.57z" class="bk"/><path d="m669.72 143.45-39.53 5.08-2.79 9.57 6.52 12.71 31.24-4.83 4.56-22.53z" class="cd"/><path d="m630.19 148.53-45.02-8.09 2.04 20.45 46.71 9.92-3.73-22.28z" class="ab"/><path d="m599.32 150.63 19.08 3.3.8 5.29-19.58-3.79-.3-4.8z" class="by"/><path d="m694.07 50.87.07 8.23-42.53 7.77-6.42-10.53 48.88-5.47z" class="bw"/><path d="m651.61 66.87-89.45-9.17.27-9.18h64.16L652 59.1l-.39 7.77z" class="bt"/><path d="M694.07 50.87 652 59.1l-89.57-10.58 50.58-6.9 81.06 9.25z" class="ax"/><path d="m617.8 44.81-7.29 6.06-27.83-1.36-4.99-3.07 35.32-4.82 4.79 3.19z" class="cb"/><path d="M660.56 39.46h-7.19l-2.9 7.36-10.09 236.28 2.8 17.78 7.39-2 9.99-259.42z" class="bh"/><path d="M653.37 42.92 652 40.39l-5.43.86-10.79 257.63 7.4 2 10.19-257.96z" class="bk"/><path d="m660.56 39.46-8.19-1.6-5.8 3.39 6.8 1.67 7.19-3.46z" class="cf"/><path d="m588.49 22.02-7.47 1.24 1.82 14.83 11.49 4.83.77-4.83-9.29-2.3-.77-9.32 5.84-.72-2.39-3.73z" class="bi"/><path d="m633.25 22.02-.66 6.03-3.55 3.54 2.85 2.94-1.46 13.38-19.92 2.96-8.16-27.7 30.9-1.15z" class="cd"/><path d="m608.41 26.47-4.59-5.77-15.33 1.32 5.34 26.47 16.68 2.38-2.1-24.4z" class="ab"/><path d="m633.25 22.02-12.42-7.09-11.98-.57-5.03 6.34 4.59 5.77 24.84-4.45z" class="ax"/><path d="m610.13 16.08-3.52-3.73-7.11 2.58-11.01 7.09 19.92 4.45 1.72-10.39z" class="bw"/><path d="m632.59 28.05-14.06 1.88 1.15 5.86 12.21-1.26.7-6.48z" class="by"/><path d="m620.83 14.93-3.03-6.19-11.19.89 3.52 6.45 10.7-1.15z" class="ai"/><path d="m610.13 16.08-10.63-1.15 2.85-6.19 6.26-.11.51 1.52 1.01 5.93z" class="ba"/><path d="m602.35 8.74 7.78-1.4 7.67 1.4-8.68 1.41-6.77-1.41z" class="bb"/></g><g id="f"><path d="m734.06 291.22 12.79-1.73 7.59-15.99-21.31 2.33.93 15.39z" class="ac"/><path d="m721.03 277.93-.95 11.16 13.98 2.13 5.73-14.52-18.76 1.23zM810.92 302.01l-11.06-2-3.73-17.05 16.25 8.26 2.8 4.66-4.26 6.13zM860.87 293.88l-10.79-1.4-5.59-11.33 14.51-2.59 2.67 7.66-.8 7.66z" class="be"/><path d="m812.38 291.22-1.46 10.79 12.39-2.4 4.39-13.85-15.32 5.46zM871.13 281.15l1.06 11.13-11.32 1.6-4.66-12.73h14.92z" class="ac"/><path d="M813.15 174.94h50.38l.9 12.51-9.15 45.63 14.97 35.83.88 12.24-58.75 10.07-7.19-67.32 7.96-48.96z" class="ap"/><path d="m828.57 182.13-39.63-12.79-60.87.4-7.04 108.19 91.35 13.29 16.19-109.09z" class="ag"/><path d="m815.18 193.43-74.28-12.06-2.6 32.73 69.89 12.14 3.57-16.77-2.44-3.73 3.83-2.76 2.03-9.55zM738.3 226.24l68.29 10.03-1.68 13.31-4.51 2.8 3.69 3.72-2.49 19.73-66.34-8.59 3.04-41z" class="ck"/><path d="m813.15 202.98-11.75-.97-1 4.89 11.36 2.57 1.39-6.49zM804.91 249.58l-9.11-.92-1 5 9.29 2.44.82-6.52z" class="bu"/><path d="m728.07 169.74 48.67-13.19 86.79 18.39-34.96 7.19-100.5-12.39z" style="fill:#c29431;stroke-width:0"/><path d="m762.5 172.09-14.93-7.63 29.17-7.91 44.3 9.39-23.72 8.53-34.82-2.38z" style="opacity:.1;fill:#1d2432;stroke-width:0"/><path d="m864.43 187.45-22.47 5.92-8.53 80.13 36.82-4.59-5.82-81.46z" style="fill:#886822;stroke-width:0"/><path d="m753.51 118.21 38.5-3.4 6.71 14.74-9.31 22.05-26.91-11.66-8.99-21.73z" class="bg"/><path d="m832.39 119.68-18.33-2.3-22.05-2.57-4 33.59 25.06.4 19.32-29.12z" class="r"/><path d="m796.93 118.56 13.19 9.99-8.52 8.26-13.59-6.92 8.92-11.33z" class="ca"/><path d="m750.05 81.59-7.75 5.46-.67 3.47 11.88-4.93-3.46-4z" class="al"/><path d="m767.1 134.02-7.46-46.7 8.92-3.73 5.73 50.69-7.19-.26z" style="fill:#576071;stroke-width:0"/><path d="m750.05 81.59 19.84-5.72 3.6 5.06-1.06 7.06-19.85 2.93-2.53-9.33z" style="fill:#7c4f24;stroke-width:0"/><path d="m769.89 75.87 9.33 1.33 1.33 7.99-8.12 2.8-2.54-12.12z" class="ca"/><path d="m773.49 80.93 5.35-7.44 3.31 5.04-1.6 6.66-7.06-4.26z" class="al"/><path d="m778.84 73.49 6.51.91 1.46 8.53-6.26 2.26-1.71-11.7zM813.15 87.46l1.3 5.46-32.43 60.01-5.28.07 18.46-41.76 10.13-20.11 7.82-3.67z" class="as"/><path d="m799.86 81.27 13.29 6.19L776.74 153l-14.24-4.6 7.27-13.06 16.27-15.66 4.72-22.07 9.1-16.34z" class="aw"/><path d="m790.76 97.61 6.31 2.97-20.33 38.23-6.97-3.47 20.99-37.73z" style="fill:#abafb8;stroke-width:0"/><path d="m784.35 112.44 2.46-1.13.93 2.66-2.66 1-.73-2.53z" style="fill:#f6f6f7;stroke-width:0"/><path d="m857.27 123.63-.67 3.2-1.09.19.79 1.27-.79 3.79-1.1.17.78 1.34-.78 3.73-.88.43.57 1.07-.8 3.8-1.29.25.98 1.26-.98 4.67-8.92-2.53 4.99-27.24 9.19 4.6z" class="ap"/><path d="m823.31 101.51 12.05 4.14.23.83.88-.45 3.74 1.29.15 1.09.9-.73 3.67 1.25-.05.84 1.1-.48 3.47 1.2.46.82.69-.43 3.3 1.13.19 1.24 1-.83 4.24 1.42-2.06 9.79-36.23-12.26 2.27-9.86z" class="ag"/><path d="m836.47 106.03-1.11-.38-1.17 4.01 1.06.42 1.22-4.05zM845.98 109.29l-1.05-.36-1.14 3.9 1.13.42 1.06-3.96zM850.6 110.88l-1.15-.39-1.01 3.82 1.2.5.96-3.93zM853.9 112.01l-.8 3.85 1.06.64.93-4.08-1.19-.41zM841.26 107.68l-1.05-.36-1.36 4.03 1.2.42 1.21-4.09z" class="aw"/><path d="m853.3 142.62-3.42-1.04-.4 1.22 3.51 1.33.31-1.51zM850.75 136.21l-.2 1.59 3.55 1.02.31-1.5-3.66-1.11zM851.81 130.91l-.26 1.36 3.64 1.32.32-1.51-3.7-1.17zM852.74 125.76l-.33 1.13 3.89 1.4.3-1.46-3.86-1.07z" class="ag"/><path d="m831.18 104.22-18.73 35.72-8.24-5.66 1.66-2.85.89-.18-.27-.89 1.75-2.99 1.08-.31-.23-1.15 1.82-3.13 1.21-.29-.56-.82 1.91-3.28.81-.18-.22-.83 1.79-3.08h1.06l-.48-.99 1.72-2.94.89-.29-.16-.97 1.99-3.41 1.07-.09-.35-1.15 1.72-2.95 7.87 2.71z" class="ap"/><path d="m813.32 128.35-4.23-2.44-.85 1.46 4.41 2.18.67-1.2zM821.91 112.3l.73-1.33-3.76-1.86-.73 1.26 3.76 1.93zM805.87 131.43l4.05 2.19.67-1.07-4.1-2.19-.62 1.07zM819.58 116.3l.73-1.13-3.88-1.86-.58.99 3.73 2zM814.98 124.76l.67-1.13-4.09-1.96-.65 1.11 4.07 1.98zM825.37 106.38l-3.78-1.92-.72 1.24 3.9 1.81.6-1.13zM817.45 120.5l.6-1.07-3.99-2.05-.59 1.01 3.98 2.11z" class="ag"/><path d="m832.39 119.68-33.04 8.61-8.54 16.91 6.51 29.27 38.01-5.51-2.94-49.28z" class="bg"/><path d="m799.35 128.29-45.84-10.08 2.77 43.89 41.04 12.37 2.03-46.18z" class="r"/><path d="m769.89 128.29 12.94 2.62-.68 5.3-11.34-2.74-.92-5.18z" style="fill:#e4c824;stroke-width:0"/></g><g id="g"><path d="M711.94 277.22h-64.06v14.76l1.1 1.62-1.1 1.57v9.57c0 6.85 26.36 12.41 58.87 12.41s58.87-5.55 58.87-12.41v-8.76l-1.1-1.96 1.1-1.89v-14.91h-53.68Z" class="o"/><ellipse cx="706.75" cy="277.22" class="bz" rx="58.87" ry="12.41"/><ellipse cx="706.75" cy="276.39" class="ce" rx="24.57" ry="3.34"/><path d="m765.62 292.13-9.06 5.96-8.28-3.51-9.97 10.11-14.47-8.43-14.74 8.99-11.38-8.28-16.54 7.44-10.53-9.69-12.53 2.95-10.24-5.69v3.18l10.53 5.74 11.67-3.51 10.54 10.39 16.26-7.3 12.22 8.28 14.18-8.7 15.45 7.44 10.11-9.69 8.28 3.23 8.5-5.06v-3.85z" class="ak"/><path d="M697.63 242h-64.06v12.34l1.99 2.77-1.99.41v11.99c0 6.85 26.36 12.41 58.87 12.41s58.87-5.55 58.87-12.41v-12.63l-2.07-1.04 2.07-1.82v-12.03h-53.68Z" class="o"/><ellipse cx="692.44" cy="242" class="bz" rx="58.87" ry="12.41"/><ellipse cx="692.44" cy="241.17" class="be" rx="24.57" ry="3.34"/><path d="m751.31 254.02-12.71 3.79-6.32 9.53-15.56-6.74-19.52 9.26-10.28-8.42-15.41 7.3-14.54-9.97-8.66 5.76-8.81-8.59-5.93-1.61v3.19l5.49 1.51 8.52 8.85 8.51-5.6 15.56 9.41 14.54-6.6 11.74 8.43 18.5-9.69 15.78 6.34 7.93-10.25 11.17-3.03v-2.87z" class="ak"/></g><g id="h"><path d="m232.31 197.76 65.5-2.82 4.03 55.24 3.32 44.26-62.43 10.7-12.32-71.17 1.9-36.21z" class="cd"/><path d="m239.64 206.22-10.81-9.54-33.13-.79-3.78 96.95 50.81 12.3-3.09-98.92z" class="ab"/><path d="m195.7 195.89 50.16-10.04 51.95 9.09-58.17 11.28-43.94-10.33z" class="cc"/><path d="m208.54 193.32 37.32-7.47 6.71 4.43-11.9 5.61-19.05 1.05-13.08-3.62z" class="cb"/><path d="m248.66 214.26 15.45-3.25 2.27 2.58 1.41-3.35 6.18-1.31 2.1 2.21 1.92-3.05 13.46-2.84 1.6 19.49-42.42 6.39-1.97-16.87z" class="cj"/><path d="m264.11 211.01 1.97 8.52 12.88-2.28-.97-9.16-4.02.84 1.29 5.51-6.29 1.23-1.18-5.43-3.68.77z" class="ba"/><path d="m255.39 164.04 1.26 7.65-3.56 4.14 4.61 2.29 2.22 13.43-19.25 4.34-4.66-17.77 3.61-11.17 7.89-3.44 7.88.53z" class="ar"/><path d="m239.62 166.95-2.71-2.91h-8.08l-4.98 26.22 16.82 5.63-1.05-28.94z" class="av"/><path d="m256.65 171.69-9.9 1.81 1.21 6.47 9.74-1.85-1.05-6.43z" class="bh"/><path d="m255.39 164.04-6.1-5.67-3.59-2.05-5.03 3.55-1.05 7.08 15.77-2.91z" class="ak"/><path d="m242.73 159.87-7.71-2.59-6.19 6.76 10.79 2.91 3.11-7.08z" class="ar"/><path d="m246.92 146.68 10.78-.63.68 2.63-11.63 1.62.17-3.62z" class="ae"/><path d="m235.02 157.28 2.52-10.6h5.96l1.4 6.6-2.17 6.59-7.71-2.59z" class="ba"/><path d="m242.46 147.82.35-1.66 4.11.52 2.37 11.69-6.56 1.5-.27-12.05z" class="ai"/><path d="m237.54 146.68 4.92-1.35 4.46 1.35-4.46 1.14h-3.66l-1.26-1.14z" class="bb"/><path d="m237.54 146.68-13.69 7.74 3.11 1.81 15.5-8.41-4.92-1.14z" class="ae"/></g><g id="i"><path d="m248.66 253.37-39.43-5.55-4.99 23.68 44.42-18.13z" class="ak"/><path d="m153.29 258.01 55.94-10.19.94 19.56-26.31 2.71-30.57-12.08z" class="ch"/><path d="m201.11 210.6-1.26 2.67.56.89-1.04.12-.84 1.77.31.95-.77.03-.75 1.59.51.91-1.01.13-.71 1.51.48.79-.89.08-.84 1.76.38 1.01-.81-.09-.88 1.85.29.98-.8.1-.78 1.66.16.91-.63.08-.79 1.65.03.93-.48.03-.72 1.52.19.91-.75.29-.84 1.77.36.88-.81.05-.86 1.82-13.45 27.23 7.06 3.36 5.46-.65 23.98-50.64-3.32-5.86-5.74-2.99z" class="ax"/><path d="m206.85 213.59-26.12 57.15 5.59 2.66 27.18-56.35-6.65-3.46z" class="by"/><path d="m197.25 226.4.77-1.13-3.16-1.47-.43.92 2.82 1.68zM198.3 220.45l.54-.95-1.52-.88-.5 1.04 1.48.79zM202.97 214.76l-3.12-1.49-.48 1.01 2.99 1.49.61-1.01zM199.58 217.94l.61-1.15-1.66-.74-.46.98 1.51.91zM196.87 222.76l.61-.88-1.37-.71-.41.87 1.17.72zM194.65 228.54l.59-1.04-1.69-.93-.51 1.08 1.61.89zM192.19 237.06l.61-1.15-2.97-1.48-.56 1.2 2.92 1.43zM189.55 239.17l.47-1.09-1.59-.68-.45.93 1.57.84zM192.19 233.81l.55-1.15-1.74-.71-.45.96 1.64.9zM193.4 231.13l.44-.89-1.58-.93-.47.99 1.61.83z" class="u"/><path d="m177.13 237.8-7.34-16.95-1.59-2.9-3.5-1.3-5.1-9.89 7.3-4.1 5.29 10.59-1 3.5.9 2.8 8.64 16.42-1.47 2.76-2.13-.93z" class="ao"/><path d="m164.7 216.65 7.49-3.4-.1 6.3-2.3 1.3-5.09-4.2z" class="bk"/><path d="m188.45 263.57-6.72-8.82-3.66-11.59 9.05-3.01 11.99 25.23-10.66-1.81z" class="cd"/><path d="m180.73 245.02-1.73-3.43-4.26 1.57 7.72 25.42 5.99-5.01-7.72-18.55z" class="ab"/><path d="m174.74 243.16 2.39-5.36 3.6-1.83 6.39 4.18-6.39 4.87-5.99-1.86z" class="ae"/><path d="m206.56 260.5-1.76-15.48 5.37-5.66 1.73 21.63-5.34-.49zM232.31 257.39l-1.41-17.35-5.55-2.24 1.73 21.16 5.23-1.57z" class="ai"/><path d="m204.24 240.04 26.17-6.07.49 6.07-26.1 4.98-.56-4.98z" class="bj"/><path d="m186.53 286.6 16.51 10.2 35.61-5.23-3.04-18.17-25.44 1.14-23.64 12.06z" class="am"/><path d="m211.94 290.3-7.7 5.01 30.17 3.78 9.79-17.35-32.26 8.56z" class="ch"/><path d="m211.94 290.3-19.99-1.8-15.25-2.93 2.36 20.97 34.44 2.33-1.56-18.57z" class="ak"/><path d="m191.95 288.5-14.44 4.3-1.24-11.06 15.68 6.76z" class="cb"/><path d="m191.78 287.3 60.34-9.91-3.46-24.02-60.21 10.2-3.79 7.93 7.12 15.8z" class="ao"/><path d="m191.95 288.5-33.98-1.83-4.68-28.66 35.16 5.56 3.5 24.93zM248.66 317.89l-35.16-9.02-4.27-10.93 2.71-7.64 40.18 4.21 3.27 14.36-6.73 9.02z" class="ak"/><path d="m252.12 294.51-3.46 23.38 57.32-11.35 3.24-25.31-57.1 13.28z" class="ch"/><path d="m229.29 292.12 21.87 8.92.96-6.53-22.83-2.39zM211.94 290.3l1.56 18.57-6.65-.45 5.09-18.12z" class="cb"/><path d="m170.47 273.4 17.72 27.64 4.66-3.1-18.78-27.85-3.6 3.31z" class="bj"/><path d="m250.13 263.57-4.27-21.98 6.26-1.55 3.27 24.3-5.26-.77zM270.6 258.46l-3.02-22.49 6.39 3.52 2.93 20.17-6.3-1.2z" class="ai"/><path d="m245.86 241.59 27.25-7.87.86 5.77-27.14 7.1-.97-5z" class="bj"/><path d="m280.94 255.93 36.53 7.64-15.93 14.41-24.77 3.25-2.8-13.85 6.97-11.45z" class="ak"/><path d="m227.08 269.14 53.86-13.21-2 28.32h-23.55l-28.31-15.11z" class="ch"/><path d="m271.11 265.38 11.95 8.02-2.12 5.49-16.42-11.51 6.59-2z" style="fill:#e6b64e;fill-rule:evenodd;stroke-width:0"/><path d="m266.08 262.01-12.99 16.58 5.29 4.1 12.73-17.31-5.03-3.37z" style="fill:#eece88;fill-rule:evenodd;stroke-width:0"/><path d="m274.67 278.89 6.27-22.96 7 1.46-7 24.35-6.27-2.85z" style="fill:#74665b;fill-rule:evenodd;stroke-width:0"/><path d="m273.79 257.68 21.93 5.89v-12.15l-20.46-3.04-1.47 9.3z" class="bj"/><path d="m293.05 253.37 1.4-2.65 7.39-.54 3.32 10.81-9.44 2.58-2.67-10.2z" class="by"/><path d="m301.84 250.18-18.08-5.16-8.5 3.36 17.79 4.99 8.79-3.19z" class="ax"/><path d="m265.71 275.65-38.63-6.51 2.21 22.98 34.82 5.72 9.86-10.66-8.26-11.53z" class="ak"/><path d="m317.47 263.57-51.76 12.08-1.6 22.19 54.79-11.79-1.43-22.48z" class="ao"/><path d="m226.45 301.9 19.01-20.16 4.24 3.36-20.46 20.53-2.79-3.73z" class="bj"/></g><g id="j"><path d="M413.52 252.02c-2.09-19.17-13.98-33.6-26.55-32.23h-.01l-18.63 2.05 1.95 13.82c-2.23 6.11-3.14 13.51-2.28 21.33.94 8.62 3.87 16.27 7.94 21.97l1.57 13.77 18.41-3.73c11.8-2.4 19.61-18.52 17.59-36.98Z" class="ar"/><ellipse cx="372.22" cy="257.39" class="aq" rx="23.45" ry="35.76" transform="rotate(-6.23 372.012 257.252)"/><ellipse cx="372.22" cy="257.39" class="r" rx="8.54" ry="13.02" transform="rotate(-6.23 372.012 257.252)"/><path d="m372.92 260.39 20.41 6.99-3.7-5.7-7.09-3.67-11.64-3.4 2.02 5.78z" class="cj"/><path d="m383.12 219.7-13.89 39.43 3.69 1.26 13.4-29.49 4.44-10.62-7.64-.58z" class="ao"/><path d="m431.56 206.22-58.32-9.28-19.7 2.69 33.94 23.03 9.89-1.34 25.61-5.38 8.58-9.72z" class="ae"/><path d="m431.56 206.22-9.87 2.74-3.25 2.47-1.62-1.12-5.31 1.48-3.03 2.47-1-1.35-4.86 1.35-2.6 1.55-.89-.58-6.55 1.82-5.1.34v5.27h38.68l5.4-16.44z" class="cj"/><path d="m413.6 222.66 8.09-13.7-4.87 1.35-5.31 12.14 2.09.21zM404.84 222.54l6.67-10.75-4.03 1.12-5 10.09 1.27 1.05 1.09-1.51zM396.03 224.8l6.59-10.54-3.49.97-4.82 9.13.6 1.94 1.12-1.5z" class="cd"/><path d="m441.21 219.53-25.7 4.88 16.05-18.19h24.05l-14.4 13.31z" class="ai"/><path d="m448.16 291.07 25.16-5.68-2.81-11.31-28.08-6.7-6.44 6.7 12.17 16.99z" class="bm"/><path d="m441.21 275.65 29.3-1.57 9.58-35.45-25.96 6.39-10.3 12.95-2.62 17.68z" style="fill:#29303e;fill-rule:evenodd;stroke-width:0"/><path d="m441.21 219.53 12.92 12.44v13.05l-47.06-7.35-19.59-15.01 53.73-3.13z" class="bw"/><path d="m454.13 245.02-12.92 30.63-24.39-1.57-34.28-16.07 4.94-35.35 66.65 22.36z" class="ai"/><path d="m441.21 275.65 6.95 15.42-9.81-1.77-13.55-5.05-12.66.33-6.79-1.22-22.81-25.35 58.67 17.64zM439.22 249.29l3.73.66-7.06 16.79-2.13-.67 5.46-16.78zM431.62 246.76l2.93 1.33-5.86 16.25-2.53-.93 5.46-16.65zM424.3 244.36l2.53.93-5.46 16.39-2.93-.94 5.86-16.38z" class="ba"/><path d="m438.35 289.3-6.79-8.44-1.2.88-1.42-1.5-3.5-.82-1.14.82-2.28-1.62-3.15-.74-.82.74-1.23-1.23-4.68 7.19 6.02 1.09.84-.98 1.48 1.4 3.89.7.87-.7 1.34 1.09 3.55.64 1.16-.64 1.29 1.08 5.77 1.04z" style="fill:#2e3544;fill-rule:evenodd;stroke-width:0"/><path d="m430.13 287.82 2.45.44-1.02-7.4-2.62-.62 1.19 7.58zM425.44 279.42l-3.42-.8 2.35 8.17 2.21.39-1.14-7.76zM420.48 286.09l-1.61-8.21-2.05-.49 1.34 8.28 2.32.42z" class="ce"/><path d="m460.65 193.59-27.83 3.09 7.32 8.08 10.59-2.07 8.2-3.27 1.72-5.83zM502.42 187.94l13.39-1.39 8.52 2.67-12.12 4.37-9.79-.16v-5.49z" class="bn"/><path d="m442.95 201.47-5.7 3.29 2.89 5.61 21.19-4.15-2.4-6.8-15.98 2.05zM524.33 189.22l-1.6 8.31-20.31 3.14v-7.24l21.91-4.21z" class="m"/><path d="m432.82 196.68-1.26 9.54 8.58 4.15 2.81-8.9-10.13-4.79z" class="bm"/><path d="M524.24 273.4c-2.29-20.95-15.28-36.72-29.02-35.22h-.01l-20.37 2.24 2.13 15.1c-2.43 6.68-3.43 14.77-2.49 23.31 1.03 9.42 4.23 17.79 8.68 24.02l1.72 15.05 20.13-4.08c12.9-2.63 21.43-20.24 19.23-40.42Z" class="ar"/><ellipse cx="479.1" cy="279.27" class="aq" rx="25.64" ry="39.09" transform="rotate(-6.23 478.909 279.196)"/><ellipse cx="479.1" cy="279.27" class="r" rx="9.33" ry="14.23" transform="rotate(-6.23 478.909 279.196)"/><path d="m392.58 217.05-39.04-17.42-3.44 10.97 37.38 12.06 5.1-5.61z" class="bi"/><path d="m454.13 245.02 23.89 39.97 3.58-5.79-13.21-37.69-14.26 3.51z" class="ao"/><path d="m454.13 245.02-12.92-25.49 17.65 2.87 21.23 12.64-9.58 9.32-16.38.66z" class="bi"/><path d="m454.13 245.02 45.69 12.99-4.39-15.28-15.34-7.69-25.96 9.98z" class="ba"/><path d="m499.82 258.01 28.12-10.72-24.32-19.85-23.53 7.6 19.73 22.97z" class="ai"/><path d="m441.21 219.53 19.44-25.94 13.64 8.87 9.15 19.94-3.35 12.64-38.88-15.51z" class="cc"/><path d="m460.65 193.59 17.42-7.74 24.35 2.09 13.39 23.71-18.87 7.88-18.87-1.04-17.42-24.9z" class="ax"/><path d="m478.07 218.49 2.02 16.55 34.67-7.6 1.05-15.79-37.74 6.84z" style="fill:#f6f6f7;fill-rule:evenodd;stroke-width:0"/><path d="m473.32 191.87 13.52 15.72 12.98-2.83-6.02-15.65-11.56-1.17-8.92 3.93z" class="cc"/><path d="m482.04 190.7-21.39-10.16 7.39-13.59 24.68 4.74 9.7 16.25-20.38 2.76z" class="ah"/><path d="m468.04 166.95 14 23.75-21.39 2.89-12.49-15.86 19.88-10.78z" class="ar"/></g><g id="k"><path d="m392.16 291.07 15.58 17.8-18.58 2.14-20.58-2.14v-9.17l4.81-5.19 18.77-3.44z" class="v"/><path d="M368.55 308.87h39.19v4.28h-39.19z" class="al"/><path d="m373.39 297.94 4.44 15.21-12.94 3.14-17.97-3.14.42-9.38 15.13-6.97 10.92 1.14z" class="az"/><path d="M346.92 313.15h30.91v4.28h-30.91z" style="fill:#ccad14;stroke-width:0"/><path d="m313.3 134.4 7.11-3.45 9.38 19.35-6.92 3.5-9.57-19.4z" class="av"/><path d="M333.59 128.23 303 143.06l1.27 16.81 35.7-16.65-6.38-14.99z" class="bk"/><path d="m304.27 159.87 9.03 1.32 32.77-14.51-4-4.45-3.67.1-34.13 17.54z" class="ar"/><path d="m343.84 179.26-14.05-28.96-6.92 3.5 13.86 28.91 7.11-3.45z" class="av"/><path d="m333.59 128.23 3.63-.13h5.19l3.66 18.58-7.67-4.35-4.81-14.1z" class="ah"/><path d="m412.14 239.65-7.12 18.32-6.97 8.53-1.3 12.77-1.43 3.66-12.01 8.14-7.97-1.25 2.37-27.55 34.43-22.62z" class="az"/><path d="m375.34 289.82 19.98-6.89-3.16 8.14-18.77 6.87-2.09-3.43 4.04-4.69zM399.93 262.92l-8.85-1.04-4.68 18.18 10.35-.79 3.1-7.99.08-8.36z" class="cd"/><path d="m391.08 261.88 8.72 9.38 5.22-13.29-13.94 3.91z" class="bt"/><path d="m381.21 265.38-5.87 24.44-10.45 8.12-18.35-4.12-3.26-40.45 28.18 3.73 9.75 8.28z" class="cd"/><path d="m412.14 239.65-30.93 25.73-37.93-12.01 24.87-14.74 43.99 1.02z" class="cj"/><path d="m351.63 158.37 32.22 7.54 10.26 52.58-22.81 6.25-22.97-3.71-2.75-10.57 6.05-52.09z" class="ci"/><path d="m338.09 166.95 13.54-8.58 8.91 38.96-7.78.55-12.93-15.11-1.74-15.82zM341.93 225.42l37.91-26 25.51 22.06 3.03 8.11-47.84 10.06-17.94-4.3-.67-9.93z" class="bt"/><path d="m377.16 217.15 12.4 7.59 17.51 1.34-1.67-4.47-23.32-16.36-22.38 5.21-17.77 14.96 35.23-8.27z" style="opacity:.2;fill:#1d2432;fill-rule:evenodd;stroke-width:0"/><path d="m405.06 182.77 5.76 2.79 1.32 9.62-11.98 12.41-2.79-16.04 3.44-7.1 4.25-1.68z" class="by"/><path d="m377.6 193.59 11.96 31.15 15.84-3.13-12.82-33.92-14.98 5.9z" class="av"/><path d="m408.38 229.59-15.8.74-4.42 4.22-5.09-3.78-20.6.97-4.2 9.85 5.56 7.54 20.94-4.11 3.39-3.54 5.95 1.7 18.03-3.53-3.76-10.06z" class="az"/><path d="m383.07 230.77 1.7 14.25 9.34-1.84-1.53-12.85-9.51.44z" class="bc"/><path d="m407.8 94.43 2.06 25.35-1.78 24.27-20.52 2.63-24.42 10.6-11.83-17.65-14.09-11.53-6.48-13.6-2.82-21.66 20.57 3.94 26.52-3.2 8.8-9.33 8.77 7.06 15.22 3.12z" class="bp"/><path d="m380.97 123.09-9.19-13.76-16.76-8.91 24.48-4.74 1.47 27.41zM393.79 118l4.05-13.34 8.02-10.03-16.98-.98 4.91 24.35z" class="x"/><path d="m409.86 119.78-51.64 5.91-3.2-25.27-6.65-4.84-10.28 12.83 3.3 28.44 10.24 21.52 17.61 13.32 10.26-8.58 3.57-5.83 6.27-6.59 22.8-2.93-2.28-27.98z" class="x"/><path d="m358.22 125.69 3.63 28.21 7.04 2.24 2.57 7.41-2.22 8.14-17.61-13.32-10.24-21.52-.49-4.17 6.02-5.69 11.3-1.3z" style="opacity:.15;fill:#1d2432;fill-rule:evenodd;stroke-width:0"/><path d="m389.34 150.69-31.07 3.65 10.97 17.35 13.55-2.85 6.55-18.15zM346.92 126.99l-5.53 9.86-4.17-8.75 5.19-4.66 4.51 3.55z" class="bx"/><path d="M378.36 121.57h2.28v29.17h-2.28z" style="fill:#8b6651;stroke-width:0" transform="rotate(-82.55 379.476 136.162)"/><path d="m355.02 100.42 23.76 4.09 2.19-8.83h-11.13l-14.82 4.74zM392.41 103.47l-3.53-9.82 9 .84 7.98.14-13.45 8.84z" class="aa"/><path d="m363.133 110.765.261-2.375 10.884 1.196-.26 2.375z" class="cg"/><path d="m348.49 101.08 1.11 15.29-5.19.45-4.97-2.03-8.7-.29-9.9-20.79 15.7.6 11.95 6.77z" class="aa"/><path d="m346.21 73.64-3.96-2.04-14.8 4.43-8.78 9.96 2.17 7.72 17.25-8.12 8.12-11.95z" class="cd"/><path d="m327.45 76.03 21.04-14.95 27.01-8.26 28.37 15.21-29.58 5.61h-28.08l-8.33 1.06-10.43 1.33z" class="az"/><path d="m375.5 52.82-40.35 3.25-7.7 19.96 48.05-23.21z" class="bt"/><path d="m327.45 76.03-12.36-11.5-15.4 13.99 10.06 2.72 17.7-5.21z" class="cd"/><path d="m299.69 78.52-22.67 21.04 33.93-10.7 16.5-12.83-27.76 2.49z" class="bt"/><path d="m277.02 99.56 43.82-5.85 6.61-17.68-50.43 23.53z" class="v"/><path d="M401.07 108.29c0 1.78-1.45 3.23-3.23 3.23s-3.23-1.45-3.23-3.23 1.45-3.23 3.23-3.23 3.23 1.45 3.23 3.23Z" class="cg"/><path d="m383.07 81.24 8.59 14.85 2.48 25.49-6.41 2.71-6.76-1.2-2.76-25.04 4.86-16.81z" style="fill:#e8cab6;fill-rule:evenodd;stroke-width:0"/><path d="m330.41 201.04-11.74-24.16 19.42-9.93 14.67 30.93-7.84 6.88-14.51-3.72z" class="by"/><path d="m361.12 215.94-19.19 9.48-11.52-24.38 22.35-3.16 7.68 8.34.68 9.72z" class="ax"/><path d="m377.6 193.59-24.84 4.29 8.36 18.06 20.96-10.69.99-5.83-5.47-5.83z" class="bp"/><path d="m382.08 205.25 18.08 2.34-.23-16.04-7.35-3.86-6.29.37-8.69 5.53 4.48 11.66z" class="x"/><path d="m400.16 207.59 5.19-10.73-.29-14.09-6.3.73-6.18 4.19 7.58 19.9z" class="bx"/><path d="m375.34 289.82-28.8 4 .8 9.95 26.05-5.83 1.95-8.12z" class="bi"/><path d="m362.47 231.74-7.45.23-3.85 39 9.27 23.54 7.8-3.7-5.77-59.07zM331.76 257.1l10.17 10.28 13.09-35.41-19.78 5.57-3.48 19.56z" class="bc"/><path d="m331.19 215.22 4.41 2.17-2.54 8.69-5.14 3.51v-7.27l3.27-7.1zM310.05 218.49l5.28.22 7.54 10.88-7.43.74-5.39-11.84z" class="av"/><path d="m333.06 226.08 16.54 26.43-1.27 4.59-13.4-15.51-6.28-14.1 4.41-1.41z" style="fill:#858686;fill-rule:evenodd;stroke-width:0"/><path d="m316.82 228.8 4.43-2.91 4.43-2.91-6.76-10.31 12.27 2.55-2.54 12.27 19.68 29.61-4.43 2.91-4.43 2.91-14.89-22.4-4.8-7.21-12.27-2.55 2.54-12.27 6.77 10.31z" class="ah"/><path d="m360.44 294.51-31.83-1.58-4.07-52.38 16.48 16.93 14-25.51 5.42 62.54z" class="ci"/><path d="m427.04 187.94 9.03-7v-10.38l-7.67 7.56-1.36 9.82z" class="x"/><path d="m369.24 171.69 58.25-23.03 7.2 8.62 1.38 13.28-58.47 23.03-8.36-21.9z" class="ah"/><path d="m427.49 148.66 9.49 4.97 2.26 4.03.9 3.87-4.07 9.03-4.51-4.06-.26-8.13-3.81-9.71z" class="av"/><path d="m436.98 153.63 8.32-3.33.14 4.68-1.61 5.06-3.69 1.49-3.16-7.9z" class="aa"/><path d="m445.3 150.3 6.86-2.75.34 4.2-1.8 5.53-6.87 2.76 1.47-9.74z" class="ah"/><path d="m452.16 147.55 6.78-2.71 1.59 4.46-3.06 5.25-6.77 2.73 1.46-9.73z" class="aa"/><path d="m458.94 144.84 6.53-2.61 2.57 3.53-4.03 6.16-6.54 2.63 1.47-9.71z" class="ah"/><path d="m465.47 142.23 6.5-2.6 1.35 4.42-2.81 5.25-6.41 2.59 1.37-9.66z" class="aa"/><path d="m471.97 139.63 6.1-2.49-1.58 9.71-5.98 2.45 1.46-9.67z" class="ah"/><path d="m400.16 207.59 13.68-28.28 11.12-1.41 2.08 10.04-5.35 21.02-21.53-1.37z" class="x"/><path d="m413.84 179.31 11.12-8.75h11.11l-9.03 17.38-13.2-8.63z" class="bx"/><path d="m413.84 179.31 3.26-13.91 14.2-7.03 4.77 12.19-22.23 8.75z" class="bp"/><path d="m377.38 175.608 14.12-5.378.802 2.102-14.12 5.378zM378.825 179.397l14.12-5.378.801 2.103-14.12 5.378zM380.273 183.202l14.12-5.378.8 2.103-14.12 5.378z" class="aq"/><path d="m346.21 73.64 71.26-6.94 2.6 26.47-28.41 2.92-7.6-8.24-5.94 10.21-29.63 3.02-2.42-15.72.14-11.72z" class="ci"/><path d="m354.35 79.28 26.14-2.6-7.7 14.53-17.25 1.63-1.19-13.56zM411.84 73.61l-26.15 2.47 10.35 12.78 17.23-1.72-1.43-13.53z" class="aa"/><path d="m348.49 101.08-27.65-7.37 25.37-20.07 2.28 27.44z" class="bc"/><path d="m380.97 123.09 7.32 3.91 5.85-5.42-13.17 1.51z" class="bx"/><path d="m330.74 114.5 11.73-5.02 4.45 17.51-9.7 1.11-6.48-13.6z" class="bp"/><path d="m334.93 116.6 4.51-1.81 2.97 8.65-7.48-6.84z" class="bx"/></g><g id="l"><path d="m619.23 325.4-1.75 5.12-3.29-.8-17.72-2.51 1.08-5.09 5.9-2.56 15.78 5.84z" class="az"/><path d="m602.07 321.8.32 7.24-6.66-2.71 1.82-4.21 4.52-.32z" class="cd"/><path d="m533.51 304.54.8 7.41 10.41 1.79 6.26-4.65-2.29-3.07-15.18-1.48z" class="az"/><path d="m595.25 331.22 3.36 8.84 13.15-3.97 2.43-6.37-18.94 1.5zM554.35 312.63l-3.79 9.89-12.51 2-3.57-8.96 19.87-2.93z" class="cd"/><path d="m550.56 322.52 37.93 9.62 4.06-10.05-42.18-6.72.19 7.15z" class="az"/><path d="m598.61 340.06-10.12-7.92.35-6.83 8.47 3.23.88 5.38.42 6.14zM538.05 324.52l-11.2-7.92 1.68-8.55 8.75 6.04.33 3.89.44 6.54z" class="ab"/><path d="m533.51 304.54 15.63-3.16 6.07 6.4 42.62 10.14 10.05-3.44 11.35 10.92-17.16-3.6-4.01 3.64 16.13 4.28-16 4.2-9.35-8.61-38.47-9.94-12.76 2.61-9.08-9.93 14.07 3.3 5.85-2.89-14.94-3.92z" class="ae"/><path d="m567.28 313.58 10.05 2.52-2.61 2.05-9.76-2.49 2.32-2.08z" class="bb"/><path d="m435.34 313.75 1.02 7.02-12.13 3.83-2.77-7.02 13.88-3.83z" class="ch"/><path d="m414.15 314.26-1.92 6.89 12 3.45-.51-5.49-1.78-3.06-7.79-1.79z" class="ah"/><path d="m414.15 314.26 11.11-3.57 10.08 3.06-11.62 5.36-9.57-4.85z" class="w"/><path d="m421.55 314.2 3.07-1.15 2.61 1.08-3.57 1.73-2.11-1.66zM459.76 324.47l-1.44 5.75-10.44 3.54-1.91-6.61 13.79-2.68z" class="ch"/><path d="m448.84 328.4-2.3-3.07-8.42-.28.95 6.13 8.81 2.58.96-5.36z" class="ah"/><path d="m459.76 324.47-11.88-3.64-9.76 4.22 10.72 3.35 10.92-3.93z" class="w"/><path d="m444.82 324.66 3.83-1.43 3.92 1.43-4.69 1.25-3.06-1.25zM395.51 331.82l.38 4.88-9.19 3.35-1.53-6.7 10.34-1.53z" class="ch"/><path d="m387.09 335.07-2.02-3.06-7.27-.19-.96 3.83 9.86 4.4.39-4.98z" class="ah"/><path d="m395.51 331.82-9.19-2.97-8.52 2.97 9.29 3.25 8.42-3.25z" class="w"/><path d="m383.73 331.72 2.49-1.05 3.16 1.05-2.87 1.15-2.78-1.15z" class="ch"/></g></svg>