<svg xmlns="http://www.w3.org/2000/svg" id="a" viewBox="0 0 900 420"><defs><style>.aa,.ab,.ac,.ad,.ae,.af,.ag,.ai,.ak,.al,.ao,.ap,.aq,.as,.at,.au,.av,.aw,.ax,.ay,.az,.bc,.bd,.be,.bf,.bg,.bh,.bi,.bj,.bk,.bl,.bm,.bo,.bp,.bq,.br,.bt,.bu,.bv,.bw,.j,.k,.l,.o,.q,.r,.s,.t,.u,.v,.w,.y,.z{stroke-width:0}.aa,.ab,.ad,.ae,.af,.ag,.ai,.al,.ao,.ap,.aq,.as,.at,.au,.av,.aw,.ax,.ay,.az,.bc,.bd,.bf,.bg,.bh,.bi,.bj,.bk,.bl,.bo,.bp,.bq,.br,.bt,.bu,.bv,.bw,.j,.k,.l,.o,.r,.s,.t,.u,.w,.z{fill-rule:evenodd}.j,.q{fill:#ccae2d}.k{fill:#51596a}.l{fill:#5f5044}.o{fill:#f4deb0}.r{fill:#9d8d56}.s{fill:#71561c}.t{fill:#c3987b}.u,.v{fill:#ac923b}.w{fill:#3d4554}.ac{fill:#7d5f1f}.ad,.y{fill:#68707f}.z{fill:#74665b}.aa{fill:#e4ae3a}.ab{fill:#8e7e73}.ae{fill:#9b6533}.af{fill:#787f8d}.ag{fill:#e9be61}.bv{fill:#b68b2e}.ai{fill:#5f6878}.ak,.br{fill:#947125}.al{fill:#ecc675}.bm{fill:#8d7c2f}.bi{fill:#fefcf8}.ao{fill:#576071}.ap{fill:#cc9262}.aq{fill:#eece88}.ay{fill:#9f7928}.as{fill:#f4d75c}.at{fill:#886822}.au{fill:#7c4f24}.av{fill:#af7546}.aw{fill:#ccad14}.ax{fill:#abafb8}.az{fill:#d8a537}.bc{fill:#dfbda5}.bd{fill:#f1d69c}.be,.bl{fill:#e4c824}.bf{fill:#aa822b}.bg{fill:#f6e6c4}.bh{fill:#f9eed7}.bj{fill:#cc9c34}.bk{fill:#8b6651}.bo{fill:#1d2432;opacity:.1}.bp{fill:#fcf7eb}.bq{fill:#c29431}.bt{fill:#9a9fa9}.bu{fill:#e5c828}.bw{fill:#fff7ae}</style></defs><g id="b"><path d="m19.86 353.22 98.32-8.31 73.73 15.66-7.23 10.98-53.21 7.48-2.94-7.78-12.4 10.68-49.41 3.28-34.82-8.8-12.04-23.19zM212.85 369.53l20.82-3.63 37.77-.87 15.52 3.97 19.83 5.89 41.24 4.85-95.06 14.69-64.74-6.57 24.62-18.33zM428.7 365.91l-59.91-3.58-14.29 4.85 11.44 2.04 11.41-2.27 10.01 7.48 50.16 8.93 11.23-5.51 13.31 9.27 49.22 2.72 20.98-15.53-26.52-5.09-23.99-5.94-53.05 2.63zM545.87 373.18l-3.16-6.84 8.83-7.47 98.25-8.86 53.61-3.67 38.79 8.74 4.54 4.57 37.67 1.43 25.01 9.43-71.76 20.86-45.11-17.78-102.71 5.22-3.59-7.35-9.88 5.18-30.49-3.46zM838.83 339.71l51.68 5.4-20.19 13.76-40.84 1.07-4.26-12.84 13.61-7.39z" class="bo"/></g><g id="c"><path d="m844.37 120.2 25.95 27.11 18.15-9.64-48.08-22.75 3.98 5.28z" class="j"/><path d="m816.01 122.75-33.6-31.21-7.74-1.41 35.77 36.17 5.83 29.89 7.08 5.67-7.34-39.11z" class="bf"/><path d="m872.01 261.27-35.12-10.1-7.31 18.55 29.12 4.33 13.31-12.78z" class="bj"/><path d="m794.47 261.27 43.09-7.97-4.55 19.13-24.92.2-13.62-11.36z" class="bv"/><path d="m804.26 207.04 17.41 67.56 11.34-2.17-22.33-65.39h-6.42z" class="ay"/><path d="m832.47 176.64-2.99 72.08-6.62-3.69-7.6-76.06 17.21 7.67z" class="bf"/><path d="m826.22 177.26-1.13 56.7-3.75-61.59 4.88 4.89z" class="bj"/><path d="m846.75 269.83 11.95-50.21-9 .94-16.11 53.49 13.16-4.22z" class="ay"/><path d="m794.47 261.27 39.9 4.8 8.4 41.83-13.29 52.04-27.94-21.13-3.2-35.14 2.81-8.86-4.62-10.93-2.06-22.61z" class="az"/><path d="m834.37 266.07 37.64-4.8-3.62 24.62-6.76 8.59 4.23 8.65-4.44 33.54-31.94 23.27 4.55-87.31.34-6.56z" class="bv"/><path d="m797.55 295.05 14.89-2.45 20.15 7.59 3.3 3.68-3.74 4.91-33.81-5.11-.79-8.62z" class="bf"/><path d="m832.59 300.19 19.16-7.19 15.66-.4-1.55 10.53-33.71 5.65.44-8.59z" class="at"/><path d="m796.53 283.88 36.55 7.07 4.48 2.56-4.97 6.68-35.04-5.14-1.02-11.17z" class="ae"/><path d="m833.08 290.95 35.31-5.06-.98 6.71-34.82 7.59.49-9.24z" class="au"/><path d="m795.36 195.86 5.29 2.5-.04 3.53 4.28-1.51 14.18 6.72-27.54 17.47-34.66 7.03 4.11-25.44 34.38-10.3zM788.35 155.8l10.03 17.44 42.01 20.69 29.93-26.26-13.79-24.41-24.48 9.45-2.38 3.07-3.45-2.66-37.87 2.68zM830.66 221.79l18.04-9.77 4.02.62 1.12-3.4 13.57-7.35 18.86 11.08 3.48 33.4-59.09-24.58z" class="bl"/><path d="m816.22 223.27 14.44-1.48 2.65 2.34 2.55-2.87 10.35-1.06 9.49 12.01-21.67 40.42-21.58-33.8 3.77-15.56z" class="as"/><path d="m804.89 200.38-48.02 31.22 43.78-33.24 4.24 2.02zM848.7 212.02l41.05 34.35-35.91-37.13-5.14 2.78zM832.05 152.71l8.34 41.22-14.17-40.81 5.83-.41zM830.66 221.79l3.37 50.84 1.83-51.37-5.2.53z" class="j"/><path d="m816.01 122.75 13.32-16.7 44.69 9.67 14.45 21.95-44.1-17.47-28.36 2.55zM772.94 84.67l-22.83-10.72-20.22 20.51 10.91 28.29 29.56-22.34 32.42-10.33-29.84-5.41z" class="bl"/><path d="m772.94 84.67-17.45 8.82-14.69 29.26 12.09-33.02 20.05-5.06z" class="j"/><path d="m801.54 338.81 28.82 4.26 5.5 6.94-6.38 9.93-26.38-4.06-1.56-17.07z" class="af"/><path d="m830.36 343.07 31.06-6.4-2.46 18.53-29.48 4.74.88-16.87z" class="ai"/></g><g id="d"><path d="m640.64 371.9-19.13-4.13-1.93-7.7 11.83 1.4 10.4 6.9-1.17 3.53z" class="af"/><path d="m639.85 368.37.79 3.53 14.41-2.86v-4.54l-11.48 1.24-3.72 2.63z" class="bt"/><path d="m622.18 360.97 17.67 7.4 15.2-3.87-15.2-5.63-17.67 2.1z" style="fill:#bbbfc6;fill-rule:evenodd;stroke-width:0"/><path d="m692.76 364.18-11.75-1.94-6.18-11.19 12.72-1.04 10.01 2.63-4.8 11.54z" class="af"/><path d="m707.57 350.01-.55 11.99-14.26 2.18-5.21-14.17h20.02zM589.83 378.81l13.23-2.77 4.25-17.52-16.23 7.82-4.84 7.25 3.59 5.22z" class="ao"/><path d="m591.08 366.34-1.25 12.47-13.47-2.17-2.55-17.77 9.57-.35 7.7 7.82z" class="af"/><path d="m545.87 373.18 10.31-1.72 3.25-14.27-4.78-2.11-8.9 6.39.12 11.71z" class="ao"/><path d="m536.25 357.09-1.1 14.03 10.72 2.06 6.25-17.78-15.87 1.69z" class="af"/><path d="m710.18 267.65-2.61 82.36-116.49 16.33-11.23-86.69 83.45-10.06 46.88-1.94z" class="br"/><path d="m549.22 174.31 34.16.81v73.34l42.28 10.49 1.88 18.48-9.41 15.03-19.98-6.15-7.07 80.03-54.83-9.25 11.43-162.49 1.54-20.29z" class="bf"/><path d="m572.67 179.25 43.72-9.08 57.33-1.3 8.69 66.36-43.72 11.35-55.31 1.88-10.71-69.21z" class="br"/><path d="m549.22 174.31 81.36-13.23 43.14 7.79-101.05 10.38-23.45-4.94z" class="bq"/><path d="m584.62 174.31-16.13-3.14 16.13-2.62 45.96-7.47 43.14 7.79-46.15 1.14-42.95 4.3z" class="bo"/><path d="m611.47 306.46 86.28-20.15-3.47 53.13-88.02 13.2 5.21-46.18zM594.82 227.48l2.64 19.1 33.26-1.24 35.12-7.89-2.98-20.8-68.04 10.83z" class="bf"/><path d="m583.38 248.46 99.03-13.23 44.3 13.23-71.66 18.18-38.66-.87-33.01-17.31z" class="bq"/><path d="m618.13 292.46 111.73-19.96-3.15-24.04-110.32 17.31 1.74 26.69z" class="ae"/><path d="m584.62 189.02 11.72-1.74 4.13 27.8-11.51 1.74-4.34-27.8zM604.81 186.42l36.48-4.56 3.69 27.36-36.69 4.56-3.48-27.36z" class="o"/><path d="m648.75 181.23 6.12-.57.57 3.61-5.98.79-.71-3.83zM649.81 188.98l6.05-.72.45 3.27-6.05.76-.45-3.31zM650.93 196.72l5.86-.94.56 3.16-5.97 1.01-.45-3.23zM652.13 204.38l5.83-.68.56 3.38-5.94.83-.45-3.53z" class="as"/><path d="m658.88 180.19 6.3-.72.58 3.33-6.52.65-.36-3.26zM659.82 188.08l6.23-.94.5 2.9-6.29.79-.44-2.75zM660.84 195.39l6.15-.79.58 2.89-6.23.72-.5-2.82zM661.99 203.14l6.08-.87.58 3.54-6.22.8-.44-3.47z" class="ap"/><path d="m606.98 252.29 21.59 11.57 49.64-3.03 32.71-9.89-28.51-8.93-8.6 1.17-.25.4-1.61-.15-6.83.93-.81 1.01-5.36-.17-5.65.77-.44 1.52-4.83-.8-4.51.62-.87 1.51-4.41-.79-6.42.87-.25.45-1.55-.2-6.74.91-.83 1.11-4.29-.41-11.18 1.53z" class="bp"/><path d="m628.57 263.86 82.35-12.92.73 5.76-11.98 1.91-.69-.93-.85 1.17-12.28 1.96-.95-.96-.8 1.24-9.98 1.59-.98-1.54-.62 1.79-9.03 1.44-.95-1.26-.33 1.47-10.23 1.62-1.09-.92-.25 1.14-9.57 1.52-.55-.92-.58 1.1-10.74 1.71-.63-5.97z" class="o"/><path d="m621.29 251.06 17.34 11.22 1.36.88.53-1.18-18.53-11.74-.7.82zM630.02 249.15l19.77 11.38 1.05.6.6-.86-19.62-11.37-1.8.25zM641.07 248.06l20.04 10.69 1.6.66.19-.94-20.73-10.98-1.1.57zM650.64 247.12l20.89 10 1.96.56.3-.92-22.12-10.57-1.03.93zM662.41 245.31l20.81 9.97 1.88.46.24-.79-21.93-10.35-1 .71zM671.95 243.43l25.08 9.69 1.7.65.47-.99-25.39-9.6-1.86.25z" class="bd"/><path d="m618.16 250.76 9.38 5.94 5.88-1-10.14-5.64-5.12.7zM638.24 248.03l9.78 5.35 6.04-.87-10.54-5.2-5.28.72zM648.03 246.69l10.25 4.98 6.03-.98-11.01-4.72-5.27.72zM658.95 245.2l10.03 4.69 6.82-1.18-10.68-4.35-6.17.84z" class="ao"/><path d="m640.52 261.98.55 5.96-1.13.18-1.31-5.84 1.89-.3zM649.79 260.53l.85 5.89 1.34-.22-.54-5.93-1.65.26zM661.11 258.75l1.1 5.83 1.28-.21-.59-5.9-1.79.28zM671.53 257.12l.99 5.81 1.6-.25-.33-5.92-2.26.36zM683.22 255.28l.89 5.85 1.74-.32-.51-5.86-2.12.33zM697.03 253.12l1.1 5.73 1.54-.24-.47-5.83-2.17.34z" class="ag"/><path d="m558.48 277.2 24.04 5.8-8.11 68.04-22.29-2.61 6.36-71.23z" class="az"/></g><g id="e"><path d="m560.16 84.67 3.06 15.35 5 .89-5-22.42-3.06 6.18zM620.33 69.47l-13.68-26.88-1.95 2.89 11.92 25.34 3.71-1.35zM594.6 92.2l-13.63-19.91-2.77 2.58 13.9 21 2.5-3.67zM588.74 95.87l-13.25-15.35-2.82 2.92 8.03 15.9 8.04-3.47zM651.6 80.52l11.67-25.63-5.44-2.82-9.16 28.45h2.93zM643.42 77.73l11.59-29.79h-4.96l-11.72 27.14 5.09 2.65z" class="ak"/><path d="m657.47 151.95-34.11-3.7-4.17 9.96 11.45 2.97 26.83-9.23z" class="y"/><path d="m589.57 151.95 32.07-3.7 2.09 9.96-18.71 1.38-15.45-7.64z" style="fill:#545c6d;stroke-width:0"/><path d="m616.21 154.16-15.76-17.74-.08-5.18 16.92 17.05-1.08 5.87z" class="ac"/><path d="m617.09 121.86-4.14 40.74 14.33 1.66 6.5-42.4h-16.69z" class="ak"/><path d="m641.14 117.56-8.84 27.48-3.43 19.4-5.51-.63 7.69-41.95 10.09-4.3zM624.82 132.99l-3.95 30.53h-2.42l6.37-30.53zM623.36 121.86l-6.07 40.74 3.04-40.74h3.03z" class="ac"/><path d="m627.57 140.81 15.42-19.98 5.68 5.86-16.37 18.35-4.73-4.23z" class="ak"/><path d="m659.85 109.78-11.18 13.98-48.34 8.59-24.88-14.1-22.87-2.3 10.64-15.93 20.49.15 10.89-7.97 7.2-6.22 1.57-13.77 24.2-2.74 15.85 8.26 12.87 9.55 12.86-5.91 25.74 23.91-15.78 5.74-19.26-1.24z" class="q"/><path d="m566.04 114.81 10.43-6.03 32.57 9.47 20.84-8.47 13.54 3.83 10.13-13.45 41.34 5.12-12.23 14.34-19.25-2.54-7.12 1.17-2.95 10.72-28.52 4.02-14.85-4.35-9.52 7.78-26.61-15.59-7.8-6.02z" class="v"/><path d="m603.37 72.21 13.92 22.45-22.69-2.46 8.77-19.99zM643.42 77.73h-18.6l-1.46-6.91 6.52-6.91 13.54 13.82z" class="bm"/><path d="m617.29 94.66 7.53-16.93 28.73 22.43-36.26-5.5z" class="bm"/><path d="m669.15 81.37-15.6 18.79-10.13-22.43 25.73 3.64zM617.29 94.66l-15.49 8.55 28.08 6.57-12.59-15.12z" class="be"/><path d="m594.6 92.2-31.38 7.82 13.25 8.76 25.33-5.57-7.2-11.01zM629.88 63.91l-26.51 8.3 21.45 5.52 5.06-13.82z" class="be"/><path d="m653.55 100.16 9.86 16.92-10.07 11.89-23.46-19.19 23.67-9.62zM609.04 118.25l15.78 14.74-24.37 3.43 8.59-18.17zM576.47 108.78l-2.63 12.05-21.26-4.88 23.89-7.17z" class="bm"/><path d="m589.57 151.95 35.25 3.9 8.57 5.33-5.82 8.83-33.26-3.03-4.74-15.03z" class="y"/><path d="m624.82 155.85 32.65-3.9-10.82 14.37-19.08 3.69-2.75-14.16z" style="fill:#4b5464;stroke-width:0"/><path d="m590.5 50.63 39.97 5.71h19.83l10.71 1.59 21.43-6.58-32.39-13.97-9.79-5.32 1.66-15.33-14.64 4.74-18.45 1.13-18.33 28.03zM598.41 68.54l-17.44 11.98-19.27 1.04-10.13-12.09-19.69-3.18 20.7-15.96 9.12 6.01 16.5-2.75 20.21 14.95z" class="q"/><path d="m588.74 73.75-15.75 2.13-12.83-5.06-3.24-7.98-25.04 3.45 16.5 4.53 8.87 3.94 2.91 9.91 23.26-1.92 5.32-9zM671.25 52.8l-17.7-4.86-22.14 4.89-8.66-1.74-4.3-7.27-27.95 6.81 23.59 6.58 8.66-1.31 7.13 8.01 20.74-4.68 12.65-.32 7.98-6.11z" class="v"/><path d="m641.92 16.73-15.03 7.25 3.58 2.23-1.45 9.27 21.03 1.9-8.13-20.65z" class="bm"/><path d="m629.02 35.48-10.57 8.34 35.1 4.12-24.53-12.46zM608.83 22.6l21.64 3.61 11.45-9.48-33.09 5.87zM578.2 53.59l-21.28 9.25-4.34-12.51 25.62 3.26z" class="be"/><path d="m618.45 43.82-4.36 13.39 15.79 6.7 1.53-11.08-12.96-9.01zM653.55 47.94l28.89 3.41-15.89 14.2-15.93-6.32 2.93-11.29zM598.41 68.54l-25.42 7.34 10.43 6.87 14.99-14.21zM556.92 62.84l-8.54 7.98 11.78 13.85 12.83-8.79-16.07-13.04z" class="bm"/></g><g id="f"><path d="m737.65 344.61 1.55 17.91 2.32 1.68 2.75-3.44 2.46-22.09-9.08 5.94z" class="ao"/><path d="m696.59 316.49 20.78 23.31 20.28 4.81 7.78-24.6-23.24-.65-25.6-2.87z" class="bq"/><path d="m737.65 344.61 25.15-5.94 14-25.82-40.71 14.76 1.56 17z" class="bf"/><path d="m680.66 301.66 64.77 2.28-5.21 11.84-4.13 11.83-59.07-9.99 3.64-15.96z" class="ad"/><path d="m734.35 312.85 12.81-8.91 40.33-7.61 3.9 22.6-55.3 8.68-1.74-14.76z" class="k"/><path d="m680.66 301.66 50.97-10.79 55.86 5.46-53.14 16.52-53.69-11.19z" class="ax"/><path d="m739.2 362.52-20.27 7.63 20.96 8.3 2.3-9.44-2.99-6.49z" class="av"/><path d="m744.27 360.76 15.92 11.25-14.76 4.91-7.78-1.43 1.55-12.97 5.07-1.76zM718.93 370.15l-1.73 6.24 18.89 5.43 3.8-3.37-2.24-2.96-18.72-5.34z" class="ae"/><path d="m736.09 381.82 25.84-4.02-1.74-5.79-22.54 3.48-1.56 6.33z" class="au"/></g><g id="g"><path d="m77.7 326.81 46.34-7.35 56.5 7.73-12.84 3.61-44.84-3.99-44.08 7.35-1.08-7.35z" style="fill:#7d5f1f;fill-rule:evenodd;stroke-width:0"/><path d="m63.43 371.8 10.14-2.61 6.66-68.21-13.61-4.46-5.46 34.53 2.27 40.75z" class="ab"/><path d="m56.77 296.52-5.5 72.67 12.16 2.61 6.08-72.68-12.74-2.6zM184.68 371.55l-10.98-2.36-10.67-68.21h15.06l4.64 49.68 1.95 20.89z" class="z"/><path d="m190.81 302.33 6.03 67.2-12.16 2.02-11.51-70 17.64.78z" class="ab"/><path d="m66.48 335.4 11.22-8.59 36.04 9.04-3.34 6.3-43.92-6.75zM132.13 342.75l46.95-5.27-11.38-6.68-40.97 5.75 5.4 6.2z" class="br"/><path d="m116.13 381.93-10.14-2.61 5.07-73.7 19.83 7.11-6.85 45.17-7.91 24.03z" class="z"/><path d="m122.77 315.48-6.64 66.45 15.34-2.9 3.41-68.62-12.11 5.07z" class="ab"/><path d="m116.13 294.49 6.64 20.99 76.46-12.02 1.65-15.84-84.75 6.87z" class="ad"/><path d="m122.77 315.48-76.42-13.93-4.08-15.07 54.46 3.1 27.31 13.88-1.27 12.02z" class="k"/><path d="m42.27 286.48 80.5-14.26 78.11 15.4-76.84 15.84-81.77-16.98z" class="ax"/><path d="m42.27 286.48 18.12-3.21 60.07-.16 20.5-1.34 11.64 9.25-31.02-3.4-33.26 1.61-29.57.67-16.48-3.42z" class="bo"/><path d="m125.5 264.16-14.09-2.87-18.89 6.3 9.33 5.5 14.28-2.97 9.37-5.96z" class="au"/><path d="m69.51 254.9 1.82 6.74 16.5 5.4-5.76-15.33-5.48.12-7.08 3.07z" class="aq"/><path d="m78.94 259.42-7.61 2.22 2.69 9.94 15.17-4.54-2.67-7.62h-7.58z" class="av"/><path d="m69.51 254.9 3.17-4.4 2.74-2.89 3.25 1.16 3.4 2.94-12.56 3.19z" class="bi"/><path d="m72.68 250.5-.5-6.51 3.61-1.2 2.88 5.98-5.99 1.73z" class="av"/><path d="m75.79 267.04-4.5-5.36-4.4-1.04-.79-5.15-3.55-4.24-4.95 1.95-6.7 8.67 3.69 5.17 6.44 3.95 14.76.98v-4.93z" class="aq"/><path d="m71.33 261.64-10.3 9.35-6.44-3.95 11.51-11.55 5.23 6.15z" class="at"/><path d="M62.55 251.25 50.9 261.87l.62-7.52 1.19-3.1 3.01-.68 6.83.68z" class="bi"/><path d="m51.52 254.35-3.01-4.68 2.39-2.47 4.82 3.37-4.2 3.78z" class="at"/><path d="m92.52 271.58 1.83-6.85-1.33-4.89 3.69-3.97 2.32-8.67-5.54-4.41h-7.81l-3.61 8.92-.05 4.66-3.08 3.05-4.92 12.16 9.13 2.05 9.37-2.05z" class="o"/><path d="m96.71 255.87-14.64-4.16-3.13 7.71 15.41 5.31 2.36-8.86z" class="z"/><path d="m85.68 242.79 5.7-2.49 3.53-1.02 1.8 2.39 2.32 5.53-13.35-4.41z" class="bi"/><path d="m91.38 240.3 3.19-6.28 3.81 1.36-1.67 6.29-5.33-1.37z" class="z"/><path d="m96.71 255.87-7.82 6.98-4.77 7.85 15.42 4.34 8.27-6.91 3.6-6.84-7.35-5.42h-7.35z" class="aq"/><path d="m96.71 255.87 7.35-4.16h4.24l1.73 2.08 1.38 7.5-14.7-5.42z" class="bi"/><path d="m88.89 262.85 18.92 5.28-6.25 11.91-22.62-8.33 9.95-8.86zM104.06 251.71l4.51-6.16 3.82 1.21-2.36 7.03-5.97-2.08z" class="at"/><path d="m125.5 264.16-2.17 8.17-1.75 1.48 1.1.94-2.22 8.36-32.14 6.12-5.17-11.09 9.37-6.56 32.98-7.42z" class="av"/><path d="m92.52 271.58-37.93-4.54 2.65 7.41 1.69 1.32-.76 1.27 2.22 6.23 27.93 5.96 4.2-17.65z" class="ae"/><path d="m123.33 272.33-32.53 6.48-2.26 1.66 1.55 1.29 32.59-7.01.65-2.42z" class="bl"/><path d="m90.8 278.81-33.56-4.36.93 2.59 31.92 4.72.71-2.95z" class="j"/><path d="m129.46 251.71 21.84-4.1 6.03 12.09-11.73 9.84-16.14-17.83z" class="bg"/><path d="m171.51 250.09-20.21-2.48-4.05 15.24 11.31 2.61 12.95-15.37z" class="al"/><path d="m150.58 268.61-17.39-53.02 2.46-4.2h5.23l11.72 53.24-2.02 3.98z" class="ao"/><path d="m133.19 215.59 7.69-4.2-5.48-5.7-2.21-.74-1.62 3.21 1.62 7.43z" class="br"/><path d="m135.4 205.69-1.23-12.4h-5.21l-4.96 4.64 7.57 10.23 3.83-2.47z" class="bl"/><path d="m134.17 193.29-11.15-9.77.98 14.41 10.17-4.64z" class="bw"/><path d="m149.46 255.87-4.21-44.48 3.33-2.1 4.77 1.23.27 62.57-4.16-17.22z" class="ad"/><path d="m145.25 211.39 8.1-.87-2.92-7.55-2.76-2.98-1.19 3.91-1.23 7.49z" class="br"/><path d="m150.43 202.97 2.13-11.34-5.76-1.63-5.43 3.8 5.11 10.1 3.95-.93z" class="as"/><path d="m152.56 191.63-5.59-5.21-2.56-8.09-3.04 15.47 11.19-2.17z" class="bw"/><path d="m149.46 255.87 22.05-5.78-1.4 8.48-4.81 4.67 3.41 3.8-3.41 20.58-12.7 3.4-7-20.47 3.86-14.68z" class="bg"/><path d="m149.46 255.87-20-4.16 1.68 7.99 4.05 4.86-2.33 3.35 4.23 20.18 15.51 2.93-3.14-35.15z" class="al"/><path d="m170.11 258.57-19.91 5.59-2.95 2.88 3.52 3.51 17.94-3.51 1.4-8.47z" class="bl"/><path d="m150.2 264.16-19.06-4.46 1.72 8.21 17.91 2.64-.57-6.39z" class="j"/></g><g id="h"><path d="m497.1 371.82 8.64-2.6-24.28-80.5-5.21 3.19-.29 17.95 8.4 28.66 12.74 33.3z" class="s"/><path d="m480.3 308.25 16.8 63.57-15.06-2.03-27.8-76.14 12.74-2.03 13.32 16.63z" class="br"/><path d="m462.06 387.12 10.13-2.56-10.71-99.6-14.19 5.21 1.16 56.17 13.61 40.78zM387.36 374.43l10.71-2.9 32.43-104.81-12.45-4.92-18.82 52.11-11.87 60.52z" class="s"/><path d="m393.56 285.08-27.62 84.14 21.42 5.21 30.4-96.42-24.2 7.07z" class="br"/><path d="m393.56 285.08-3.96 12.04 17.56 14.52 10.6-33.63-24.2 7.07z" class="bo"/><path d="m432.24 297.86 5.28 85.5 24.54 3.76-9.31-96.95-20.51 7.69z" class="br"/><path d="m432.24 297.86.96 15.55 21.98 2.07-2.43-25.31-20.51 7.69z" class="bo"/><path d="m460.94 26.91 8.33-2.82 5.64 17.81-13.86 53.47-.11-68.46z" class="ab"/><path d="m467.02 44.29 7.89-2.39-44.41 288.37-10.64 5.77-11.61 2.61 11.61-15.62 39.2-276.57 7.96-2.17z" class="l"/><path d="m408.25 338.65 14.13-1.59 8.12-6.79-7.53 1.6-7.45 1.3-7.27 5.48z" style="fill:#46382d;fill-rule:evenodd;stroke-width:0"/><path d="m449.94 42.55 11-15.64 6.08 17.38-44.05 287.58-14.72 6.78-5.69-12.43 47.38-283.67z" class="z"/><path d="m377.35 137.76 45.33-44.52 96.03 14.81-25.96 175.11-12.45 25.09-105.39-41.19-14.63-31.07 3.53-20.31 10.67-17.44-3.85-21.82 6.72-38.66z" class="o"/><path d="m360.28 235.99 17.07-13.12 17.25 11.11-6.66 5.62 1.74 2.99 32.71 14.8 31.56-5.5 17.09 11.9 6.15-1.42 3.11-6.71 12.45 3.87-9.23 29.04-20.88 3.64-62.54-14.67-31.92 1.12-10.62-27.01 2.72-15.66z" class="bi"/><path d="m394.6 233.98-17.25 6.34 12.33 2.27 4.92-8.61zM357.56 251.65l23.14 12.14 5.27 6.95-17.79 7.92h-15.31l4.69-27.01zM480.3 255.66l5.73 17.57-14.99-9.44 9.26-8.13zM486.03 273.23l-17.44 12.61 3.46 3.27 11.17 1.31 2.81-6.76v-10.43z" class="bh"/><circle cx="483.89" cy="189.41" r="8.83" style="fill:#fefcf8;stroke-width:0"/><path d="m445.32 264.45-7.65-47.28-5.43-4.25-8.11 5.68-8.61 2.96v40.81l29.8 2.08z" class="ag"/><path d="M432.24 212.92v4.82l2.27 39.65-5.75 6.62-1.8-27.45 1.22-18.39 4.06-5.25z" class="aa"/><path d="m432.24 261.8-7.08 1.99 1.8-27.23 5.28 25.24z" class="bq"/><path d="m418.38 222.63 4.3 40.26-7.16-.52-1.56-36.64 4.42-3.1zM468.59 198.24l-1.5-14.04-4.99 3.48 3.24 14.22 3.25-3.66z" class="aa"/><path d="m437.67 217.17 31.46-14.53-.54-4.4-30.78 10.43-.14 8.5z" class="ag"/><path d="m425.16 211.05-23.61-47.69 3.64-2.32 22.99 43.04-3.02 6.97z" class="aa"/><path d="m396.92 198.24 7.87-8.83.26 4.42-5.51 8.07-2.62-3.66z" class="ag"/><path d="m424.13 218.6-1.12-3.51-3.15.32-22.94-17.17-8.26-1.28-2.69 3.21 26 21.39 6.41 1.07 5.75-4.03z" class="aa"/><path d="m413.96 225.73 4.42-3.1-29.72-25.67-7.96-1.23 1.3 3.53 31.96 26.47z" class="bq"/><path d="m441.5 262.37-3.82-25.81.13 25.81h3.69zM454.24 224.3l4.2-7.67 1.3.54-2.46 9.52-3.04-2.39zM433.11 232.93l15.64-6.38 8.53.14-19.6 9.87-4.57-3.63z" class="aa"/><path d="m454.24 224.3 17.81 7.78h-7.82l-15.48-5.53 5.49-2.25z" class="ag"/><path d="m430.42 194.49 3.03-25.92 7.04 4.29-1.64 11.34-8.43 10.29z" class="aa"/><path d="m437.67 217.17-5.43.57-1.01-2.27-3.05 2.7-4.05.43v-7.05l16.58-32.82 6.34-2.31 4.44 14.73-13.82 26.02z" class="aa"/><path d="m424.13 218.6-4.27-3.19 20.63-42.55 6.56 3.56-22.92 42.18zM448.78 182.16l-20.6 36.01 4.06-.43 17.28-33.13-.74-2.45z" class="bq"/><path d="m384.05 136.74 15.49 9.24-4.98 16.29 26.17.22 32.57 22.69 24.76.86 6.52-18.67 18.57 1.2 7.92-21.18 3.83-15.77 2.46-24.75-81.91-11.66-50.21-1.72-4.54 24.96 3.35 18.29z" class="av"/><path d="m380.7 118.45 17.12 7.81 3.73 7.81 16.77 12.56 3.93 8.8 19.25-3.02 20.6 20.09 11.4-3.59 3.81-9.71 31.66-4.96-5.82 14.33-14.02 3.93-5.24 16.91-32.4 1.74-33.17-22.24-7.69-6.32-22.85 1.78 6.82-15.99-3.51-7.15-13.74-3.47 3.35-19.31z" class="ae"/><path d="m447.05 119.11-20.34 4.57 14.79 28.73 15.49-10.45 11.6-3.92 17.44 6.1 22.94-11.13-42.95-18.16-18.97 4.26z" class="ae"/><path d="m456.99 141.96-30.28-18.28 6.74-6.25 13.6 1.68 38.98 25.03-14.52 2.49-14.52-4.67zM477.31 159.2l11.82 13.3-37.64 18.65 10.61-18.65 15.21-13.3zM441.5 152.41l-23.18 16.5-30.54-4.54 30.54-17.74 23.18 5.78zM394.6 148.38l6.95-14.31-24.2 3.69 17.25 10.62z" class="au"/><path d="m477.31 159.2-20.32-17.24 29.04 2.18-8.72 15.06zM401.55 134.07l25.16-10.39-1.55-8.14-13.85-4.14-13.98-2.17-16.63 9.22 20.85 15.62z" class="ap"/><path d="M412.74 175.17 426.71 188l-15.4 4.03-9.76-8.65-10.24-6.96 13.74.94 7.69-2.19z" class="av"/><path d="m391.31 176.42 15.85 4.31 4.67 7.6 14.88-.33-9.14 7.73-6.26-2.68-6.26.78-5.51-7.79-1.18-1.84-4.88-.65-2.17-7.13z" class="ae"/><path d="m411.83 188.33-6.78 5.5 12.52 1.9-5.74-7.4zM407.16 180.73l-7.62 5.31-6.06-2.49 13.68-2.82z" class="au"/><path d="m407.16 180.73 5.58-5.56-21.43 1.25 15.85 4.31z" class="ap"/><path d="m370.63 176.42 8.77 10.68 4.68-3.94 7.23 8.87-7.28 8.14-6.68 4.88-6.02 1.95-3.84-12.51 3.14-18.07z" class="av"/><path d="m391.31 192.03-16.83 6.21-6.99-3.75-1.62 9.37 1.98 7.69h7.06l2.44-6.5 1.24-2.5 7.98.49 4.74-11.01z" class="ae"/><path d="m377.35 205.05-2.87-6.81 12.09 4.8-9.22 2.01zM374.91 211.55l-9.04-7.69-2.06 11.82 11.1-4.13z" class="au"/><path d="m384.08 183.16-3.38 12.57-10.07-19.31 13.45 6.74z" class="ap"/><path d="m464.23 232.08 13.08-14.91 8.72 1 9.87-5.25 1.92 11.38-5.37 9.68-9.83 2.58-11.11 4.81-7.28-9.29z" class="av"/><path d="m464.23 232.08 11.15-.53 8.51-5.82 8.56 8.25 1.58 7.39-11.41-4.81-11.58 7.75-6.81-12.23z" class="ae"/><path d="m477.31 217.17 6.58 8.56 12.01-12.81-18.59 4.25z" class="ap"/><path d="m482.62 236.56-18.39-4.48 19.66-6.35-1.27 10.83z" class="au"/><path d="m466.02 114.85-24.52-14.83h28.81l22.44 5.65-26.73 9.18zM411.31 111.4l2.65-11.38-10.26-8.76-18.46 2.23-4.54 24.96 30.61-7.05z" class="ae"/><path d="m411.31 111.4 9.85-5.73 11.08 3.56 14.81 9.88-20.34 4.57-15.4-12.28z" class="ae"/><path d="m411.31 111.4-7.61-20.14 37.8 8.76-9.26 9.21-20.93 2.17zM492.75 105.67l16.22 27.34 8.39-26.14-24.61-1.2z" class="ap"/><path d="m409.66 327.09 1.52 4.56 4.45-2.93-2.5-4.67-3.47 3.04zM455.44 43.09l3.58-3.8 2.61 4.34-5.11 3.7-1.08-4.24z" class="l"/><path d="m392.86 261.16 41.65-3.77 3.16 9.67-3.59 5.04-43.82-5.04 2.6-5.9z" class="bt"/><path d="m434.51 257.39 19.23 7.77 2.39 13.5-22.05-6.56.43-14.71zM380.7 263.79l46.54.96 5 10.1-54.89-6.07 3.35-4.99z" class="af"/><path d="m427.24 264.75 39.96 10.1 1.74 13.72-43.78-13.72 2.08-10.1z" class="ai"/><path d="m377.35 268.78-24.48 9.88 69.81 9.01-4.77-17.69-40.56-1.2z" class="ad"/><path d="m417.91 269.98 65.31 20.44.67 10.61-3.59 7.22-32.14-7.46-13.89-.09v-3.14l-81.4-18.9 61.09-1.93 3.95-6.75z" style="fill:#4b5464;fill-rule:evenodd;stroke-width:0"/><path d="m413.96 276.73 67.79 20.39-78.13-16.23 10.34-4.16z" class="ad"/><path d="m526.82 103.98-30.88 198.33-15.64 5.94 33.2-200.2 1.79-2.67 11.53-1.4z" class="al"/><path d="m385.24 93.49 26.06-8.25 115.52 18.74-13.32 4.07-128.26-14.56z" class="bi"/><path d="m487.11 295.82 3.04-3.19 2.46 1.88-3.48 3.62-2.02-2.31zM490.8 271.13l2.61-2.75 2.61 2.75s-3.18 2.03-3.62 2.46-1.59-2.46-1.59-2.46ZM495.29 246.67l2.6-3.04 2.32 2.17-2.75 3.62-2.17-2.75zM499.19 220.32l2.9-3.04 2.03 2.32-2.9 3.04-2.03-2.32zM503.61 194.41l2.61-3.33 1.73 2.6-2.02 3.48-2.32-2.75zM507.81 167.55l2.75-2.17 1.59 2.03-2.17 2.75-2.17-2.61zM512.44 139.76l2.46-2.46 2.46 2.02-2.89 3.19-2.03-2.75z" class="r"/><path d="m448.16 300.79-20.57 5.16-9.83-18.28 15.96-.52 1.73 10.69 12.71 2.95z" style="fill:#8d7c2f;fill-rule:evenodd;stroke-width:0"/><path d="m427.59 305.95-37.99-8.83-6.58-19.41 26.64 4.92 14.47 7.79 3.46 15.53z" class="u"/><path d="m433.72 287.15-43.46-12.3-7.24 2.86 41.11 12.71 9.59-3.27z" class="as"/></g><g id="i"><path d="m272.3 372.79 7.11 4.7 7.13-1.24 3.54-3.47 1.66-9.46-8.17-6.92-8.78-4.65-4.42 12.33v2.74l1.93 5.97zM242.19 364.08l5.77 7.32 1.96 11.61-3.62 2.43-12.63-1.35-4.69-5.78 1.07-6.13 3.62-6.28 8.52-1.82z" class="bc"/><path d="m280.15 353.5-5.36-1.75-4.42 2.91v9.42l13.2-7.68-3.42-2.9zM246.35 361.86l-3.75-3.45-5.42 1.4-3.51 6.09 14.29 5.5-1.61-9.54z" class="bk"/><path d="m270.37 366.82 11.02 8.29-5.99 1.14-5.03-1.36v-8.07z" class="t"/><path d="m291.74 363.32-14.77 11.57 1.14 1.36h4.78l13.23-9.22-4.38-3.71z" class="br"/><path d="m282.04 374.89 19.69-11.08 5.06 11.08-20.77 2.43-3.98-2.43z" class="t"/><path d="M270.37 374.89h36.42v4.86h-36.42z" class="ac"/><path d="m230.05 372.18 19.87 10.83-6.77 2.09-13.58-10.21.48-2.71z" class="br"/><path d="m230.05 372.18-10.19 10.83 18.92 2.43 4.37-2.43-13.1-10.83z" class="t"/><path d="M219.86 383.01h30.06v4.86h-30.06z" class="ac"/><path d="m319.49 232.42-10.96-13.44-33.5 13.48 22.39 18.8 18.15-12.05 3.92-6.79z" class="bc"/><path d="m308.53 218.98-13.39-16.42-16.11 37.54 17.58-1.91 11.92-19.21z" class="w"/><path d="m299.88 290.56-19.73 3.9-14.59 16.23-8.14 18.15 4.4 26.84 28.39-11.46 10.44-17.01-.77-36.65z" class="br"/><path d="m261.6 334.04.22 21.64 39.36-4.68-4.37-13.79 3.84-10-39.05 6.83z" class="j"/><path d="m265.56 310.69-2.66 31.92-20.95 3.87-21.09-9.11 2.7-40.17 25.03-4.32 16.97 17.81z" class="ay"/><path d="m220.86 337.37 5.12 10.46-6.36 10.39 41.41 6.92 1.87-22.53-42.04-5.24z" class="bu"/><path d="m220.86 337.37-1.24 20.85 42.2-2.54-40.96-18.31z" class="aw"/><path d="m275.03 197.58 8.82 2.18 4.73 10.99-1.86 32.44-56.17 6.82-2.87-43.07 2.98-3.61 9.58-5.06 19.3 7.61 15.49-8.3z" class="w"/><path d="m299.88 290.56-34.32 20.13-42-13.49-.21-51.12 5.75-7.7 6.06-4.11 49.44-6.72 6.12 2.63 5.89 8.01 3.27 52.37z" class="at"/><path d="m295.14 202.56 1.47 35.63-12.01-10.64-.76-27.79 11.3 2.8zM230.66 203.33l4.5 30.94-10.06 10.05-1.75 1.76-4.35-37.8 11.66-4.95z" class="bv"/><path d="M245.2 241.65h33.63v34.27H245.2z" style="fill:#9f7928;stroke-width:0" transform="rotate(-4.6 261.934 258.653)"/><path d="m195.42 132.68 17.97 6.1-1.21-8.91-.03-7.52-10.82 4.17-5.91 6.16z" class="s"/><path d="m194.32 115.01-6.17 20.33 20.42-7.22-2.12-19.74-5.32-.58-6.81 7.21z" class="at"/><path d="m298.28 75.03-19.42-16.1-8.34 10.09 1.48 6.31 4.41 11.1 8.94.48 12.93-11.88z" class="bf"/><path d="m300.36 96.51 7.45.82 7.49 9.49-11.34 14.2-8.03-9.62 4.43-14.89zM247.05 88.82l-5.54 17.62 12.69-.28 6.9-3.03-14.05-14.31z" class="s"/><path d="m300.36 96.51-2.94-7.69 5.8-10.06 13.33 17.75-1.25 10.31-14.94-10.31z" class="aw"/><path d="m303.22 78.76 23.77 18.69-11.69 9.37-12.08-28.06z" class="bf"/><path d="m300.36 96.51 2.86-17.75 1.62-9.75-19.49 17.9-4.65 4.81.59 11.36 19.07-6.57z" class="at"/><path d="M285.35 86.91 272 75.33l-8.9 9.64-2 18.16 12.73 1.41 9.41-5.14 2.11-12.49z" class="aw"/><path d="m278.86 58.93-30.97 12.3L261.07 79 272 75.33l6.86-16.4z" class="bl"/><path d="m272 75.33-24.11-4.1.87 13.55 12.34 18.35 10.9-27.8z" class="bf"/><path d="m261.1 103.13-13.04-9.16-9.2-2.4-3.85-6.77-1.28-8.81 8.65-5.81 2.8-5.57 2.71 6.62 13.21 31.9z" class="aw"/><path d="m235.01 84.8-7.71-3.42-7.28-7.17-.78-8.48 23.14 4.45-7.37 14.62z" class="bf"/><path d="m235.01 84.8-14.99-10.59-9.21 9.82.83 13.66 10.94 11.94 12.02-13.07.41-11.76z" class="at"/><path d="m210.81 84.03-11.76 6.02.35 7.35 5.75 6.73 17.43 5.5-11.77-25.6z" class="bf"/><path d="m210.81 84.03-26.46 5.75 15.05 7.62 11.41-13.37z" class="bl"/><path d="m199.4 97.4-16.37 19.15 18.89-3.43 11.24 1.29 9.42-4.78L199.4 97.4z" class="aw"/><path d="m303 113.59 8.6 66.14-29.66 7.03-4.53 6.36-21.71 2.3-20.91-35.62-4.49-44.47 72.7-1.74z" class="bc"/><path d="m245.97 122.37 17.6 68.6 10.2 1.08 1.26 5.53-9.9 15.52-24.89-14.83-3.67-8.14-1.14-5.79-2.62-2.54-6.54-25.01 3.11-17.19 7.86-15.89 8.73-1.34zM259.81 133.64l8.73.9 8.5 14.66-.15-16.19-4.65-8.72-9.43 4.91-3 4.44zM284.07 122.22l1.64 21.6 5.78-14.34 7.71-3.61-6.2-2.91-8.93-.74z" class="t"/><path d="m272.24 124.29-14.22 3.62 1.79 5.73 12.43-9.35zM284.07 122.22l14.5-2.32.63 5.97-15.13-3.65z" class="at"/><path d="m272.74 163.95 11.89-6.28 11.78 2.1-10.27 6.06-13.4-1.88z" class="s"/><path d="m299.91 158.04-14.08 6.97-17.59-1.43 18.22 6.7 13.45-12.24z" class="bv"/><path d="m237.24 123.71 8.5 19.52-9.64 4.31-4.38-3.33-14.69 2.65-8.46-18.74 15.89-7.25 12.78 2.84z" class="at"/><path d="m281.94 186.76-25.01 5.73 18.1 5.09 6.91-10.82zM240.26 162.05l-5.27 14.02-7.54-10.41 11.11-5.07 1.7 1.46zM250.34 173.83l-13.77 16.3-3.72-8.36 6.12-5.26 11.37-2.68z" class="bk"/><path d="m284.07 122.22-11.83 2.07 4.8 24.91 5.62.62 6-2.77-4.59-24.83z" style="fill:#e8cab6;fill-rule:evenodd;stroke-width:0"/><path d="m288.66 147.05-4.73 6.88-6.89-4.73 11.62-2.15z" class="bk"/><circle cx="268.47" cy="141.33" r="3.53" style="fill:#232a38;stroke-width:0"/><path d="M296.57 136.48c-.21 1.94-1.96 3.34-3.9 3.13s-3.34-1.96-3.13-3.9 1.96-3.34 3.9-3.13 3.34 1.96 3.13 3.9Z" style="fill:#232a38;fill-rule:evenodd;stroke-width:0"/><path d="M208.57 128.12 303 113.59l-2.64-17.08-48.92 13.4-42.87 18.21z" class="aw"/><path d="m300.36 96.51-98.44 16.61 6.65 15 91.79-31.61z" class="bu"/><path d="m235.01 84.8-12.43 24.83 9.35 14.89 9.58-18.08 6.55-12.47-13.05-9.17z" class="bf"/><path d="m217.03 146.86 16.45-7.15 7.42 17.31-15.99 7.27-7.88-17.43z" class="bc"/><path d="m232.29 155.17.22-3.01-2.4-5.28-8.35 3.22 6.5 3.99 4.03 1.08z" class="bk"/><path d="m242.4 156.34 7.94 17.49-17.49 7.94-7.94-17.49 17.49-7.94Zm-11.79 10.09 4.38 9.64 9.64-4.38-4.38-9.64-9.64 4.38Z" class="s"/><path d="M231.1 152.46h4.67v14.72h-4.67z" style="fill:#b68b2e;stroke-width:0" transform="rotate(-24.43 233.472 159.832)"/><path d="m262.9 342.61 37.75-15.4.53 23.79-38.28-8.39z" class="bl"/><path d="m352.19 229.98 8.09 6.01-3.65 8.28h-8.6l.89-11.81.71-3.07 2.56.59z" class="as"/><path d="m297.39 250.68 20.45-37.76 14.14-2.85-4.18 14.32-5.41 22.35-16.95 5.97-8.05-2.03z" class="t"/><path d="m325.82 206.97-2.08 12.74 4.06 4.68 7.79-4.4-2.3-16.18-7.47 3.16z" class="bk"/><path d="m346.42 202.41 5.99 14.98-2.65 2.32-11.44-8.17-7.05-13.73 15.15 4.6z" class="t"/><path d="m305.39 167.16-2.87 2.65 23.13 34.72 12.69 9.42-7.15-9.25.08-6.89-25.88-30.65z" style="fill:#545c6d;fill-rule:evenodd;stroke-width:0"/><path d="m348.92 232.46-9.27-5.38 1.53-6.65 8.58-.72 2.43 10.27-3.27 2.48z" class="at"/><path d="m329.51 210.32 10.14 16.76 10.11-7.37-8.09-9.59-12.16.2z" class="af"/><path d="m323.74 219.71 5.77-9.39 9.13 2.75 3.03-2.95-10.4-12.31-13.43 15.11 5.9 6.79z" class="bc"/><path d="m360.28 235.99-3.99 5.75-8.26 2.53 18.94 5.94-4.99-7.62-1.7-6.6z" class="ae"/><path d="m225.1 244.31-6.17 12.43-14.75 6.33 3.62-31.15 10.15-7.51 6.11 13.78 1.04 6.12z" class="bc"/><path d="m219 208.28-11.2 23.64 16.26 6.27-5.06-29.91z" class="w"/><path d="m225.1 244.31 19.46 7.21-2.96 9.87-5.87 3.01-31.55-1.33 20.92-18.76z" class="t"/><path d="m235.73 264.4-1.19 7.7 8.89 18.24 13.43-6.93-21.13-19.01z" class="u"/><path d="m246.87 283.41 69.93-2.28-8.47 16.73-64.9-7.52 3.44-6.93z" class="j"/><path d="m308.33 297.86 35.53-25.01-1.77-8.45-25.29 6.04-8.65 18.93.18 8.49z" class="u"/><path d="m235.73 264.4 8.83-12.88 23.5 3.77 54.33-8.55 19.7 17.66-33.94 24.97-61.28-5.96-11.14-19.01z" class="as"/><path d="m252.15 262.64 8.22-5.88 6.9 1.81 1.58 7.46-16.7-3.39z" class="bk"/><path d="m260.37 256.76 6.03-5.2 7.43 10.33-4.98 4.14-8.48-9.27z" class="t"/><path d="m252.15 271.91 6.79-2.03 6.78 5.42-10.4 2.07-3.17-5.46z" class="av"/><path d="m273.38 277.25 6.28-3.67 7.19 3.06-3.99 4.52-9.48-3.91z" class="j"/><path d="m298.76 276.43 6.39-4.69 5.58 5.59-7.35 3.79-4.62-4.69z" class="ab"/><path d="m316.38 259.1 7.98 1.5-2.03 6.45-10.12-2.65 4.17-5.3z" class="az"/><path d="m292.31 258.55 5.47-2.55 5.98 2.55-6.71 5.88-4.74-5.88z" class="bp"/><path d="m278.24 265.04 4.52-3.15 6.9 3.15-5.71 4.84-5.71-4.84z" class="ao"/></g></svg>