<svg xmlns="http://www.w3.org/2000/svg" id="a" viewBox="0 0 900 420"><defs><style>.j{fill:#404857}.aa,.ab,.ae,.af,.aj,.ak,.al,.am,.an,.ao,.ar,.at,.au,.ay,.ba,.bb,.bc,.be,.bf,.bg,.bh,.bi,.bj,.bk,.bm,.bn,.bo,.j,.k,.l,.m,.o,.p,.q,.r,.s,.t,.u,.v,.w,.x,.z{stroke-width:0}.aa,.ab,.ae,.af,.aj,.ak,.al,.am,.an,.ao,.ar,.at,.au,.ay,.ba,.bb,.bc,.be,.bf,.bg,.bh,.bi,.bj,.bm,.bn,.bo,.j,.k,.l,.m,.o,.p,.q,.s,.t,.u,.v,.w,.x,.z{fill-rule:evenodd}.k{fill:#ccae2d}.l{fill:#9e7700}.m{fill:#eeeff1}.o{fill:#5f5044}.p{fill:#2e3544}.q{fill:#e8cab6}.r{fill:#664e1a}.s{fill:#46382d}.t{fill:#c3987b}.u{fill:#3d4554}.v{fill:#7d5f1f}.w{fill:#74665b}.x{fill:#856400}.z{fill:#68707f}.aa{fill:#9b6533}.ab{fill:#e9be61}.bc{fill:#f6e6c4}.ae{fill:#bbbfc6}.af{fill:#ecc675}.aj{fill:#454d5d}.ak{fill:#f4d75c}.al{fill:#29303e}.am{fill:#886822}.an{fill:#7c4f24}.ao{fill:#af7546}.ar{fill:#e6b64e}.at{fill:#9f7928}.au{fill:#d8a537}.ay{fill:#fff}.ba{fill:#dfbda5}.bb{fill:#aa822b}.be{fill:#8b6651}.bf{fill:#e4c824}.bg{fill:#1d2432;opacity:.1}.bh{fill:#c29431}.bi{fill:#947125}.bj{fill:#755800}.bk{fill:#232a38}.bm{fill:#b68b2e}.bn{fill:#fff7ae}.bo{fill:#4b5464}</style></defs><g id="b"><path d="m27.85 330.71 127.69-17.39 136.87 12.29-68.57 16.02-77.27 9.53-118.72-20.45zM581.32 365.88l-52.99-9.27-7.97-2.38-29.73 4.27-42.09 11.9 53.67 14.81 57.45-6.48 21.66-12.85zM566.64 351.16l136.1-18.45 122.66 7.13 67.18 16.77-69.09 17.79-131.52 6.85-93.24-14.35-32.09-15.74zM372.06 309.05l75.42-8.59 57.1-.62 110.1 12.01-127.53 12.53-115.09-15.33zM188.42 380.79l49.51-5.55 89.76 9.71 23.01 15.06-146.09-6.73-16.19-12.49z" class="bg"/></g><g id="c"><path d="m588.04 58.1 48.25-36.43-11.77 45.67-36.48-9.24z" class="bn"/><path d="m636.29 21.67 54.96 18.81-24.11 36.01-45.19-24.75 14.34-30.07zM588.04 58.1l11.9 54.32 36.35-16.03-14.34-44.65-33.91 6.36z" class="ak"/><path d="m663.77 61.08-8.4 54.66-35.81-19.35 2.39-44.65 41.82 9.34zM691.25 40.48l8.15 50.64-25.2-6.78-10.43-23.26 27.48-20.6z" class="bf"/><path d="m649 101.25 14.77-40.17 35.63 30.04-28.42 16.15-21.98-6.02z" class="k"/><path d="m660.55 135.68-60.61-23.26 19.62-16.03 29.44 4.86 17.77 10.05-6.22 24.38z" class="k"/><path d="m649 101.25 11.55 34.43 38.85-44.56-50.4 10.13z" class="at"/><path d="m103.14 78.06 25.58 13.54-32.42 24.38 6.84-37.92z" class="bn"/><path d="m103.14 78.06-25.19 5-1.67 39.89 27.65-19.55-.79-25.34zM128.72 91.6l10.96 21.88-30.27 13.97-5.48-24.05 24.79-11.8z" class="ak"/><path d="m103.93 103.4-21.29 8.74 15.33 31.93 16.09-25.12-10.13-15.55z" class="bf"/><path d="m139.68 113.48-15.25 34.67-21.93-2.95-4.53-10.29 16.09-15.96 25.62-5.47z" class="k"/><path d="m82.64 112.14-4.69-29.08-18.33 15.93 10.04 11.97 12.98 1.18z" class="bf"/><path d="m59.62 98.99-2.93 28.46 16.89-1.12 9.06-14.19-23.02-13.15z" class="k"/><path d="m56.69 127.45 10.3 17.75 15.65 1.33 15.33-11.62-15.33-22.77-25.95 15.31z" class="bb"/><path d="m97.97 134.91 26.46 13.24-30.03 12.02-4.29-13.64 7.86-11.62z" class="at"/><path d="M94.4 160.17 66.99 145.2l30.98-10.29-3.57 25.26z" class="am"/></g><g id="d"><path d="m749.67 34.74 8.17-11.56-.31 13.72 11.72 2.78-12.18 2.16 1.39 12.96-6.94-10.49-10.65 5.09 6.79-9.1-8.94-7.87 10.95 2.31zM601.04 161.89l6.81-13.17-.78 15.48 10.76 4.53-11.42-.37.63 12.2-6.29-11.45-9.97 3.72 7.74-6.8-5.73-7.89 8.25 3.75zM421.39 29.94l-2.09-17.35 9.95 16.2 15.04-3.01-12.03 7.4 8.33 12.03-13.42-7.4-9.72 11.8 4.63-13.88-14.11-3.47 13.42-2.32zM556.17 52.56l1.72-13.22 5.18 11.31 10.73-2.88-8.43 6.71 7.47 7.86-10.54-4.03-5.37 8.44.96-9.59-11.11-1.34 9.39-3.26zM184.95 63.21l11.34-14.34-4.63 16.65 13.65 4.86-14.81.93 2.08 15.96-6.94-12.72-12.72 3.47 10.18-8.56-9.72-10.18 11.57 3.93zM50.23 193.08l1.17-11.93 5.48 10.37 10.95-3.13-8.99 7.04 7.04 10.17-10.37-5.67-5.67 9.19 1.17-10.75-10.17-2.16 9.39-3.13zM236.18 43.08l6.02-7.4-1.16 9.02 8.79 4.17-9.02-.23-.69 9.02-3.24-8.33-8.33 2.08 6.25-5.55-6.02-5.55 7.4 2.77zM784.45 79.76l6.94-5.32-3.47 8.33 6.48 4.39-6.94-1.16-1.16 7.87-2.08-7.4-6.94.46 5.78-3.01-6.24-7.63 7.63 3.47zM424.8 154.17l.47-10.18 3.93 9.25 8.1-1.16-6.71 4.4 3.7 7.4-6.25-5.32-4.39 6.94 1.62-8.1-8.1-2.77 7.63-.46z" class="ak"/></g><g id="e"><path d="m490.54 305.29-8.07 8.46-20.59-2.86-13.88-2.12 2.75-6.6 39.79 3.12z" class="bi"/><path d="m524.33 302.46 1.89 8.12-43.75 3.17 1.86-5.23 9.31-4.44 30.69-1.62z" class="am"/><path d="m450.75 302.17 37.2-6.01 36.38 6.3-40 6.06-33.58-6.35z" class="bm"/><path d="m480.11 290.71 1.55 12.52h5.25l3.63-19.36-10.43 6.84z" class="o"/><path d="m367.12 238.28-16.06 40.59 10.63 1.11 4.58-1.92 1.99 2.61 3.1.32 10.61-5.05 5.09 6.68 9.56 2.99 12.81-7.58 10.14 4.77 34.28 4.48 3.64-3.41 4.39 4.46 18.23 2.38 8.95-25.25 5.93-28.01-127.87.83z" style="fill:#eece88;fill-rule:evenodd;stroke-width:0"/><path d="m480.11 290.71 13.27-2.24 2.47-4.6 3.7 3.56 13.58-2.29 7.57-1.27 3.63-5.81 11.2 4.29 38-3.9 3.11-2.51 7.88 1.38 17.57-1.8-14.14-41.18-73.85 2.05-30.82 11.39-3.17 42.93zM397.08 240.73l-10.02 41.89-15.7-1.63 25.72-40.26zM396.62 285.61l26.31-37.83 5.03-5.7-8.39 40.72-22.95 2.81z" class="ab"/><path d="m520.7 283.87-7.57-39.92 3.79-1.87 18.61 40.27-14.83 1.52zM543.43 281.53l-11.83-43.25 14.39 1.45-2.56 41.8zM499.55 287.43l-8.23-19.52 2.06 20.56 6.17-1.04zM570.97 236.52l2.56 41.93 10.99-1.13-13.55-40.8z" class="au"/><path d="m361.69 279.98 16.49-31.23-9.92 31.92-6.57-.69zM472.1 246.87l-2.31 9.56-7.91 31.9-8.03-1.05 9.13-42.57 9.12 2.16z" class="ab"/><path d="m367.12 238.28 116.16 9.5 104.67-13.44-89.51-9.75-131.32 13.69z" style="fill:#f6e6c4;stroke-width:0"/></g><g id="f"><path d="M693.83 319.42h16.29l3.26 40.03-17.47-1.21-4.07-33.44 1.99-5.38z" class="o"/><path d="m683.63 324.8 4.31 33.04 12.37-.48-3.11-36.83-13.57 4.27z" class="w"/><path d="m653.86 365.94 8.54-1.16 4.44-47.8-17.58 2.47v21.41l4.6 25.08zM602.14 357.84l8.41-1.96 6.77-47.22-15.18 4-4.4 26.78 4.4 18.4z" class="o"/><path d="m593.19 195.68-13.37 7.86 14.58 98.48-3.47 53.86 11.21 1.96 3.22-33.04 7.19-8.43 27.76 5.09 2.45 43.32 11.1 1.16-1.21-35.69v-21.59l-42.1-40.36-8.41-40.62-8.95-32z" class="w"/><path d="m593.19 195.68 73.5-5.38 13.53 96.14-74.77 10.11-12.26-100.87z" class="o"/><path d="m610.13 216.45 44.24-4.79 8.03 59.9-44.61.37-7.66-55.48z" class="w"/><path d="M734.07 337.29v4.72l-3.72 4.43 3.72 2.78v5.75h-30.21l1.75-2.94 18.76-16.69 9.7 1.95z" class="ba"/><path d="m703.62 350.04 5.42-3.84 5.28 7.17-5.77 1.6-4.93-4.93z" class="aa"/><path d="m700.23 354.97-3.11-9.85 13 7.06 9.86 2.79h-19.75z" class="t"/><path d="m734.07 342.01-13.46 9.72 2.43 3.24 11.03-5.75v-7.21z" class="aa"/><path d="m674.04 359.45-3.24 8.38 39.32 6.89 12.64-15.27h-48.72z" class="bi"/><path d="m710.12 374.72 32.91-3.41 11.03-2.89-1.33-8.97h-26.77l-14.75 5.96-1.09 9.31z" class="am"/><path d="m674.04 359.45 42.86-8.61 35.83 8.61-41.52 5.96-37.17-5.96z" class="bm"/><path d="m705.61 327.16 5.6 31.08h8.1l3.73-18.74-7.66-12.34h-9.77z" class="u"/><path d="m817.65 359.45-10.17-1.21-4.4-30.73v-8.09h15.34v14.54l-.77 25.49z" class="bi"/><path d="m821.39 192.73 18.2 6.63-18.2 104.36 9.1 54.12-12.84 1.61-6.63-43.08-29.86 11.49-3.92 36.87-9.22 1.75-3.92-23.78 4.54-46.15 38.84-45.51 13.91-58.31z" class="v"/><path d="m821.39 192.73-27.3-2.85-41.36-5.06-8.51 35.12-9.84 52.23 76.9 6.97 10.11-86.41z" class="bi"/><path d="m802.93 215.58-22.85-2.91-15.69 16.24 34.86 15.49 3.68-28.82z" class="v"/><path d="m765.81 349.22 1.46 11.39-15.17 4.8-1.35-12.42 7.71-13.49 7.35 9.72z" class="ba"/><path d="m768.02 366.48-.75-5.87-16.52-7.62-3.05 5.25 6.36 5.17 13.96 3.07z" class="aa"/><path d="m768.02 366.48-20.32-8.24-4.67 8.24 11.8 2.42 13.19-2.42z" class="t"/><path d="m723.04 339.5 42.77 9.72 15.35-21.36-12.52-13.34-45.6 24.98z" class="aj"/><path d="M743.03 366.48h24.99v4.83h-24.99z" style="fill:#454d5d;stroke-width:0"/><path d="m747.89 230.15-21.58 23.09 10.89 5.26 7.57-9.56 3.12-18.79zM747.89 230.15l7.88-14.42 10.75 5.02 2.12 10.54 27.08-2.18 3.53 15.29-19.59 8.84-21.98-4.06-9.79-19.03z" class="ba"/><path d="m774.56 233.25 21.16-4.14 3.53 15.29-19.59 8.84-10.07-1.86 4.97-18.13z" class="t"/><path d="m830.2 165.43 15.05-12.48-17.08 2.44 2.03 10.04z" class="aa"/><path d="m833.15 137.85-2.95 27.58-12.36-15.99-.19-7.43 15.5-4.16z" class="an"/><path d="m803.74 141.23 12.94-14.75 16.47 11.37-15.31 11.59-5.21-1.49-8.89-6.72z" class="aa"/><path d="m811.02 154.66 6.82-5.22-14.1-8.21-.66 6.72 7.94 6.71z" class="ak"/><path d="M707.89 130.68 702 205.77l42.75 5.73 21.77 9.25 36.56-45.51-20.39-41.52-29.47-11.44-45.33 8.4z" class="ba"/><path d="m759.56 223.77-.31-8.16 8.46-54.24 12.31-14.46 23.06 28.33-8.99 14.64-9.41 4.02.89 9.84-5.49 8.93-11.73 15.96-5.29-1.96-3.5-2.9z" class="t"/><path d="m744.75 211.5 22.8 3.11-7.99 9.16-14.81-12.27zM794.09 189.88l-7.52-3.32-4.67 1.21-.74 9.12 4.41 6.85 8.52-13.86zM789.25 183.63l2.82-8.76 6.25 2.59-9.07 6.17z" class="be"/><path d="m712.85 154.61 21.53 20.86 19.59-15.06-7.4-3.7-8.25.71-6.45 2.99-4.42-5.02-7.41-2.39-7.19 1.61z" class="t"/><path d="m727.45 155.39 10.87 2.03-3.94 18.05h-4.27l-3.8-1.38 1.14-18.7z" class="q"/><path d="m726.31 174.09 3.69 4.57 4.38-3.19-8.07-1.38z" class="be"/><circle cx="744.75" cy="168.97" r="2.8" class="bk"/><circle cx="720.3" cy="164.91" r="2.8" class="bk"/><path d="m707.89 130.68 63.78 28.06 17.58-11.66 4.22-24.81-50.66-15.29-4.49 11.74-13.42.41-17.01 11.55z" class="ao"/><path d="m767.71 161.37 11.35 12.72 10.19-5.12H800l7.48-5.15 3.54-9.16-17.55-32.39-25.76 39.1z" class="aa"/><path d="m724.9 119.13 52.34 27.78h7.44l-.61-10.37-41.26-29.56-17.91 12.15z" class="aa"/><path d="m777.24 146.91 12.01 22.06 13.83 6.27 4.4-11.42-23.41-27.28-6.83 10.37z" class="an"/><path d="m707.89 130.68 65.37 22.27 2.58 4.47-8.13 3.95-59.82-30.69z" class="aa"/><path d="m767.71 161.37 5.55-8.42 15.99 16.02-8.09 14.66-13.45-22.26z" class="an"/><path d="m727.45 155.39-2.27-4.3-10.04.96-2.29 2.56 14.6.78zM738.32 157.42l3.59-3.7 10.87 3.47 1.19 3.22-15.65-2.99z" class="aa"/><path d="m716.9 184.82 3.58 6.3 16.57 2.78 5.02-4.78-12.27-1.59-12.9-2.71z" class="bb"/><path d="m715.38 182.12 8.21 2.86 6.05-1.27 4.78 2.71 10.35.16-2.7 2.54-13.7.56-11.47-4.86-1.52-2.7z" class="v"/><path d="m747.89 230.15 14.62 9.17 14.04 7.47 22.7-2.39 4.78 20.31-35.12 1.91-29.87-6.61 8.85-29.86z" class="aj"/><path d="m780.08 212.67-18.82 15.48 7.38 3.14 11.44-18.62z" style="fill:#e4ae3a;fill-rule:evenodd;stroke-width:0"/><path d="m781.16 183.63 5.41 2.93-5.41 10.33-3.92-2.99 3.92-10.27z" class="bn"/><path d="m759.56 223.77 3.5 2.9 5.58 4.62-6.13 8.03-2.95-15.55z" class="bh"/><path d="m572.8 264.54-17.63 53.63 38.56 5.29 6.48-4.01 5.15 5.35 47.29 5.45 11.97-8.79 10.55 6.4 47.87 11.64 7.31-68.17-157.55-6.79z" class="af"/><path d="m723.04 339.5 36.52-7.31 4.54-5.03 5.13 3.09 11.93-2.39 5.41-5.25 5.23 5.08 11.28-.18 4.4-5.59 17.92 5.24 5.55-1.1 2.2-4.37 3.56 3.23 39.65-6.68-22.89-54.91-84.56 3.29-49.58 12.52 3.71 60.36zM593.73 323.46l16.82-55.16-5.19 56.5-11.63-1.34zM625.87 327.16l-2.65-57.6h27.96l-25.31 57.6zM652.65 330.25l11.49-60.69 12.45 5.32-1.42 52.98-22.52 2.39zM685 330.25l6.21-57.84 7.47 4.67L685 330.25z" class="ar"/><path d="m750.68 333.96-8.81-61.55h14.28l-5.47 61.55zM781.16 327.86l-5.32-55.69 49.56 54.99-22.32.35-16.51-30.96 5.23 31.14-10.64.17zM830.95 326.06l-19.67-61.52 12.48 1.71 12.95 58.67-5.76 1.14zM759.56 332.19v-58.01l9.67 56.07-9.67 1.94z" class="au"/><path d="m572.8 264.54 141.78-15.87 138.89 14.66-134.14 15.81-146.53-14.6z" class="bc"/><path d="m714.03 262.09 9.22-9.14 23.49 1.21 25.47.87 21.88 2.42-28.28 4.64-11.75-3.97-10.77 1.94-29.26 2.03z" class="bg"/><path d="m795.72 229.11-29.91 32.98-11.9-9.73 26.17-39.69 15.64 16.44z" class="ba"/><path d="m765.81 262.09-21.59-42.15-6.38 4.31-1.41 4.8 6.86 31.01 22.52 2.03zM738.77 209.83l-3.47-2.47-11.2 8.37-6.09 5.37 9.69 2.7 9.07-.03 5.48-8.37-3.48-5.57z" class="t"/><path d="m742.25 215.4-14.55 8.4 8.73 5.25 7.79-9.11-1.97-4.54z" class="ak"/><path d="m735.3 210.23 6.95 5.17-1.98-4.5-4.97-.67z" class="be"/><path d="m711.66 207.06 5.24-7.7 11.63-1.43 8.57 4.57 3.17 8.4-28.61-3.84z" class="t"/><path d="m718.01 221.1-1.11-21.74 20.2 3.14-1.8 7.73-17.29 10.87zM712.49 240.02l9.56-3.85 7.35 6.52-6.36 2.6-10.55-5.27z" class="ba"/><path d="m735.3 243.63-22.81-3.61-3.7 5.95 2.87 5.07 23.64-7.41z" class="w"/><path d="m688.77 243.7 23.72-3.68-1.71 6.93-3.61 4.98-18.4-8.23z" class="o"/><path d="m688.77 243.7 22.01 3.25 4.6 5.91-1.35 9.23-17.65-3.76-3.74-7.2.81-.49-2.24-2.25-2.44-4.69z" class="w"/><path d="m710.78 246.95 24.52-3.32-1.23 3.5-2.91 1.54 1.66 2.02-2.74 7.81-16.05 3.59-3.25-15.14z" class="o"/><path d="m692.64 251.13 19.69 3.03 1.94-1.53-2.81-2.52-20.25-1.72 1.43 2.74z" class="ak"/><path d="m711.46 250.11 22.61-2.98-1.25 3.56-20.49 3.47-.87-4.05z" class="au"/><path d="m701.06 261.35-20.84-2.3-11.09 7.57 22.26 1.47 9.67-6.74z" class="bg"/><path d="m659.8 237.87 3.7-17.93 21.5 36.14-12.6 7.83-7.78-5.41-4.82-20.63z" class="ae"/><path d="M640.99 256.91 656 223.77l20.59 38-11.97 1.56-23.63-6.42z" class="m"/><path d="m638.82 263.3 2.17-6.39 27.06 2.59 3.16 3.06-2.08 4.06-30.31-3.32z" class="ao"/><path d="m668.05 259.5 16.95-3.42 2.1 8.46-17.97 2.08-1.08-7.12z" class="aa"/></g><g id="g"><path d="m193.28 303.57-3.01 27.05-9.99-1.72 2.91-27.54 10.09 2.21z" class="bi"/><path d="m265.71 328.33-10.95-.8-7.19-21.94 7.26-8.27 10.88 13.65v17.36z" class="v"/><path d="m263.25 192.27 13.19 5.5-14.36 85.79 7.5 18.9 4.22 24.02-8.09 1.85-9.55-26.41.5-7.42-24.21 6.99-2.08 31.77-13.15 2 1.51-34.93 19.56-52.09 24.96-55.97z" class="bi"/><path d="m263.25 192.27-57.45-2.81-17.5 85.31 61.15 3.39 13.8-85.89z" class="v"/><path d="M186.31 319.12v10.05h-37.92l21.38-17.8 12.63 2.79 3.91 4.96z" class="aj"/><path d="m173.79 313.25-11.05 7.02-.01-7.02 7.04-1.88 4.02 1.88z" class="z"/><path d="m188.3 311.37-1.99 7.75-16.54-7.75 10.51-7.68 8.02 7.68z" class="aa"/><path d="m151.94 332.14 10.79 10.85 37.25-7.57.49-6.52-48.53 3.24z" class="bi"/><path d="m161.86 335.42.87 7.57-40.9-4.83 3.19-9.56 28.9-1.07 7.94 7.89z" class="am"/><path d="m125.02 328.6 35.68-7.35 39.77 7.65-38.61 6.52-36.84-6.82z" class="bm"/><path d="m154.91 308.59 2.8 21.07h6.28l2.5-15.46-11.58-5.61z" class="o"/><path d="m208.59 321.25-16.82 15.83 18.47 2.28 13.6-2.28-1.19-9.55-5.1-6.28h-8.96z" class="aj"/><path d="M191.77 337.08h32.07v4.55h-32.07z" style="fill:#343c4b;stroke-width:0"/><path d="m212.41 321.25-4.6 9.34 5.5 1.12 2.65-9.55-3.55-.91z" class="z"/><path d="m227.12 306.33-4.47 21.2-14.06-6.28-6.92-19.89 25.45 4.97z" class="aa"/><path d="M38.61 249.66 23.7 300.1l19.66 2.17 9.41-5.22 10.51 8.55 14.95 1.98 6.79-4.06 2.86 4.92 12.1.01 10.46 5.75 10.45-8.95 10.46 6.12 7.14.57 6.66-6.69 4 7.55 16.58 6.15.76-63.93h-39.32l-88.56-5.36z" class="ar"/><path d="m162.73 262.27 3 56.68 22.57-7.58 9.07-7.31 11.62 4.62 18.13-2.35 12.93-5.72 7.52 4.98 22.01-3.13 3.98-5.98 6.03 4.34 28.42-2.92-11.7-49.66-100.9 6.15-32.68 7.88z" class="af"/><path d="m247.57 305.59-12.54-51.42-7.91 52.16 20.45-.74zM269.58 302.46l-10.76-52.56 6.56.87 14.21 50.05-10.01 1.64zM216.17 256.28l4.12 50.94-11.3-53.05 7.18 2.11zM192.52 258.93l16.47 49.75-20.69 2.69 4.22-52.44z" class="ar"/><path d="m131.35 311.37-4.18-56.35-7.34 2.48-9.39 56.7 20.91-2.83zM78.23 307.58l13.57-53.19-3.92 54.05-9.65-.86zM99.98 308.45l10.46-51.99-10.04-3.28-.42 55.27zM63.28 305.6l21.74-53.48-14.11-.75-27.55 50.9 19.92 3.33zM138.49 311.94l9.17-55.62 1.49 56.48-10.66-.86z" class="au"/><path d="m38.61 249.66 124.12-10.38 133.58 8.96-133.58 14.03-124.12-12.61z" class="bc"/><path d="m157.71 239.74 5.02-.46h14.13l24.48 4.58-18.5 9.32-27.51-3.74-14.99.72-5.64-.72-2.41 2.6-18.51 1.14-21.98-3.02 14.59-3.93 33.22-.86 18.1-5.63z" class="bg"/><path d="m178.91 206.09-16.18 33.19 25.09 12.09 3.17-12.4-12.08-32.88z" class="j"/><path d="m195.78 202.08-16.87 4.01 5.94 35.46 21.25 7.89 26.05-2.74 14.05-39.28-19.42-3.29-31-2.05z" style="fill:#51596a;fill-rule:evenodd;stroke-width:0"/><path d="m195.78 202.08 5.56 20.73 13.57 1.9 11.87-20.58-31-2.05z" style="fill:#fdfaf4;fill-rule:evenodd;stroke-width:0"/><path d="m240.05 123.36 7.52 40.91-.06 18.28-15.06 7.31-11.62 12.98-13.6 4.78-37.63-44.32 13.78-36.37 29.91-9.61 26.76 6.04z" class="ba"/><path d="m224.56 197.83-22.89-1.07-18.29-69.83-20.45 36.37 11.62 13.71 5.24 2.46 2.21 6.34 24.52 28.96 20.26-10.64-2.22-6.3z" class="t"/><path d="m232.45 189.86-36.3 8.06 30.63 6.21 5.67-14.27zM174.55 177.01l7.85-3.89-.4 12.69-7.45-8.8zM169.77 166.64l5.45-2.87 2.69 6.79-8.14-3.92z" class="be"/><path d="m198.18 148.27 7.15-5.16 6.03 2.15 3.15 2.3 3.88 1.57 2.15-2.87 1.58-3.15 5.31-4.88 6.74 2.15-16.95 23.14-19.04-15.25z" class="t"/><path d="m214.51 147.56 2.71 15.96 4.54.75 3.91-2.8-5.13-15.21-6.03 1.3z" class="q"/><path d="m210.28 173.04 13.13.08 11.62-6.05-.32 4.24-10.87 4.69-11.41.44-2.15-3.4z" class="be"/><circle cx="230.72" cy="150.5" r="2.47" class="bk"/><circle cx="206.51" cy="156.31" r="2.47" class="bk"/><path d="m198.18 148.27-.81-2.4 6.24-4.63 8.18 1.72-.43 2.3-7-.79-6.18 3.8zM222.12 143.11l-1.83-2.4 8.07-4.95 6.35 2.47-.54 2.15-6.03-.75-6.02 3.48zM240.05 123.36l-8.67 2.19-10.77-2.17-3.39 5.75-8.23 2.08-7.75-.51-3.06 3.24-12.16 3.07-11.25-4.38-8.28-11.83 9.57-4.62 7.75.31 2.21-5.12 9-4.35 10.63 2.8 4.63-2.3 12.97.42 16.8 15.42z" class="w"/><path d="m166.49 120.8-2.04 24.42 5.15 4.85-6.08 6.24-.59 6.99 13.13-4.52 7.1 6.78 2.16-2.9-2.34-12.16-1.65-5.74 4.69-7.75-19.53-16.21z" class="o"/><path d="m186.02 137.01-21.57 8.21-.93 11.09 19.46-5.81 3.04-13.49z" class="s"/><path d="m176.06 116.18 22.12 17.76 10.81-2.73-22.97-19.84-9.96 4.81zM195.02 107.02l22.2 22.11 14.16-3.58-21.1-18.03-15.26-.5zM190.27 166.21l5.88 9.46 5.52 10.14v10.95l-5.52 1.16-13.75-28.27 3.62-5.38 4.25 1.94z" class="o"/><path d="m176.06 158.78 6.92-8.28 7.29 15.71-7.87 3.44-6.34-10.87z" class="s"/><path d="m247.57 164.27-4.08 5.38-3.44-5.38-14.38-2.8-3.91 2.8-4.54-.75-10.71 7.33-1.94 7.36-8.43-2.54 5.52 21.08 49.86-10.94-3.96-21.54Zm-22.32 21.54-14.68-2.17-.29-10.6 12.37-4.53 12.37-1.43 3.9 10.92-13.68 7.82Z" class="w"/><path d="m217.22 163.52 4.97 2.69 3.48-4.74-8.45 2.05z" class="o"/><path d="m246.2 207.42 3.25 42.74-16.87-4.67-5.46-9.14 19.08-28.93z" class="j"/><path d="m227.12 236.35-23.23 3.39-2.55 4.12 5.21 7.51 42.9-1.21-22.33-13.81z" style="fill:#343c4b;fill-rule:evenodd;stroke-width:0"/><path d="m183.19 231.61 7.11 4.74-1.21 6.78h-5.9v-11.52z" class="be"/><path d="m162.73 239.28 2.77 6.21 9.79 2.75 11.02-5.88-3.12-10.75-20.46 7.67zM203.89 239.74l-13.59-3.39-2.7 6.23 7.81 11.81 11.14-3.02-2.66-11.63z" class="ba"/><path d="m190.3 236.35-15.01 11.89 7.55 4.94 12.57 1.21-5.11-18.04z" class="t"/><path d="m156 199.23-15.84 2.72 10.41 7.95 8.53-2.28-3.1-8.39z" class="bh"/><path d="M169.91 201.95 156 199.23l-1.09 6 4.19 2.39 10.81-5.67z" class="at"/><path d="m157.71 242.72.6-18.17-4.5 1.67 1.49 4.17-.22 14.22 2.63-1.89z" class="am"/><path d="m157.71 242.72 7.83 4.62-10.21 2.1-.42-1.2 2.8-5.52z" style="fill:#cc9c34;fill-rule:evenodd;stroke-width:0"/><path d="m157.71 242.72-11.54 3.9 9.16 2.82 2.38-6.72z" class="bb"/><path d="m154.06 227.2 12.4-8.68 3.45-16.57-15 3.28-1.1 16.59.25 5.38z" class="bh"/><path d="m152.68 224.46-9.79-6.07-2.73-16.44 14.75 3.28 1.15 15.43-3.38 3.8z" class="at"/><path d="m166.46 218.52-10.4 2.14-2.14 5.1 1.38 4.63 11.16-11.87z" class="at"/><path d="m156.06 220.66-13.17-2.27 12.41 12 .76-9.73z" class="am"/><path d="m121.83 229.97 4.6-10.45 13.18 25.85-3.76 4.07-6.91-4.07-7.11-15.4z" class="ae"/><path d="m105.21 244.54 16.78-26.95 11.35 29.64-13.28 2.21-14.85-4.9z" class="m"/><path d="m139.61 245.37-6.27 1.86-4.29 2.21 3.24 2.6 8.05-1.88-.73-4.79z" class="ao"/><path d="m133.34 247.23-28.13-2.69-.94 4.9 28.02 2.6 1.05-4.81z" class="aa"/></g><g id="h"><path d="m503.1 255.21 19.17 32.26 18.76-16.13 2.42-16.13-17.02-8.08-23.33 8.08z" class="p"/><path d="m491.44 185.86-19.84 27.01 15.22 12.93 10.57-8.16 4.65-8.69-10.6-23.09zM566.98 181.77l20.72 35.11-10.97 12.82-17.29-15.24-2.64-12.41 10.18-20.28z" class="am"/><path d="M520.36 354.23v14.13l-21.1 3.01-21.1-3.01 12.47-9.86 16.09-9.53 2.61-1.33 11.03 6.59z" class="ao"/><path d="m490.63 358.5 4.24 2.96 13.99-11.87h-6.97l-11.26 8.91z" class="ak"/><path d="M478.16 368.36h42.2v6.02h-42.2z" class="r"/><path d="m497.44 306.54 4.45 43.05 18.47 4.64 5.12-40.72-16.35-6.16-11.69-.81z" class="p"/><path d="m503.1 255.21-5.66 51.33 23.88 6.97 5.89-31.44-24.11-26.86z" class="u"/><path d="m528.34 329.24-.01 27.37 14.66-7.02 12.38-11.94-7.64-10.14-11.6-4.43-7.79 6.16z" class="ao"/><path d="m528.343 356.635 27.035-18.959 3.457 4.93-27.035 18.958z" class="r"/><path d="m538.9 326.01 1.7 10.33-3.55 1.54-2.85-12.8 4.7.93z" class="ak"/><path d="m539.75 257.53-32 37.8 16 7.75 14.78-2.62L560 279.84l-3.2-14.72-17.05-7.59z" style="fill:#545c6d;fill-rule:evenodd;stroke-width:0"/><path d="m503.1 255.21 53.7 9.91-3.93-18.55-16.65-7.09-33.12 15.73zM538.77 176.58l28.21 5.19-7.54 32.69-37.81 22.17-24.24-18.99-5.95-31.78 19.72-5.47 27.61-3.81z" class="bb"/><path d="m447.51 105.73 12.27 74.3 45.71-5 11.46 10.83 17.95-15.11 8.55-53.24-21.44-32.77-36.73 2.86-37.77 18.13z" class="ba"/><path d="m512.08 177.81 7.71-4.44-9.61-87.71 29.32 10.32 11.84 21.62-3.98 18.64-2.76 4.44.33 6.96-6.16 28.94-21.94 14.81-4.75-13.58zM457.35 120.65l25.79 14.85 14.46-20.07-6.73-4.82-10.35 6.08-3.95 2.86-4.97-1.2-7.68-2.92-6.57 5.22z" class="t"/><path d="m471.6 118.35 1.36 18.38h5.09l5.09-1.23-2.62-18.81-8.92 1.66z" class="q"/><path d="m472.96 136.73 5.58 3.29 4.6-4.52-10.18 1.23zM463.88 148.56l36.8-4.43-6.72 12.32-20.14 2.14-9.94-10.03z" class="be"/><path d="m469.38 150.62 26.54-3.45-1.89 2.46-23 3.04-1.65-2.05z" class="ay"/><path d="m505.49 175.03 22.92-2.89-11.58 19.25-11.34-16.36zM547.36 136.24l-11.14-.74 8.71 12.14 2.43-11.4zM539.75 130.49l1.15-10.19 6.46 1.48-7.61 8.71z" class="be"/><circle cx="464.72" cy="126.37" r="2.71" class="bk"/><circle cx="491.1" cy="122.67" r="2.71" class="bk"/><path d="m457.35 120.65-1.65-1.99 6.66-5.59 9.12 2.22.12 3.06-8.09-1.58-6.16 3.88zM480.52 116.69l-1.07-2.88 9.61-5.34 9.12 3.94-.58 3.02-8.62-2.77-8.46 4.03zM452.58 99.76l-23.5-18.81 53.49-18.24 11.24 10.21 16.37-4.14 38.44 8.47-13.15 12.32-24.4 4.2-58.49 5.99z" class="bo"/><path d="m447.51 105.73 21.87-4.12 3.58-3.93 6.49 2.04 31.62-5.95-81.99-12.82 18.43 24.78z" class="u"/><path d="m455.83 85.13 13.55 16.48 10.07-1.89-1.4-11.11-6.45-4.39-15.77.91z" class="p"/><path d="m455.83 85.13 26.74-22.42 27.61 6.07-32.13 19.83-22.22-3.48zM511.07 93.77l37.55-16.52 11.26 29.9-29.12 3.46-19.69-16.84z" class="u"/><path d="m511.07 93.77 48.81 13.38-8.54 10.45-13.97-2.56-6.61 23.58-9.29-1.89.89-21.89-11.29-21.07z" class="p"/><path d="m497.39 217.64 62.05-3.18-6.57 32.11-49.77 8.64-5.71-37.57z" class="bi"/><path d="m507.75 295.33 20.59 33.91 19.39-1.73-9.2-27.05-30.78-5.13z" class="aj"/><path d="m587.7 216.88-36.36 8.41-2.72 7.09 5.87 6.26 30.35-1.19 2.86-20.57zM551.34 225.29l-7.89-6.19-9.72 4.33 6.95 3.32 10.66-1.46z" class="ba"/><path d="m551.34 225.29-17.61-1.86 1.86 10.57 5.44 9.18 13.46-4.54-3.15-13.35z" class="t"/><path d="m541.03 243.18-7.45-2.55-6.37-11.96 6.52-5.24 7.3 19.75zM486.82 225.8l-18.27 10.16-15.36-24.01 4.64-10.86 5.53-.84 23.46 25.55z" class="ba"/><path d="m459.78 196.34-9.87-11.62-9.26 3.24-2.47 10.49 10.52 6.49 6.04.46 5.04-9.06z" class="t"/><path d="m445.82 177.56-3.08-2.06-9.8 12.31 5.24 10.64 12.03-10.54-4.39-10.35z" class="ba"/><path d="m442.31 194.83-1.66-6.87 5.17-10.4 2.88 1.92 3.13 9.1-3.7 3.47-5.82 2.78z" class="t"/><path d="m459.78 196.34-1.08-10.48-10-6.38-8.05 8.48 2.93 3.43 6.63-3.48 5.4 15.17 4.17-6.74z" class="ba"/><path d="m448.7 204.94 11.08-8.6 3.58 3.91-10.17 11.7-4.49-7.01z" style="fill:#5f6878;fill-rule:evenodd;stroke-width:0"/></g><g id="i"><path d="m448.54 370.4 3.24 16.35-101.08 13.26-26.63-21.59 124.47-8.02z" class="bm"/><path d="m350.7 400.01-144.47-14.8 3.44-14.81h82.74l55.66 18.97 2.63 10.64z" class="bi"/><path d="m209.67 370.4 138.4 18.97 100.47-18.97-33.05-26.66-126.23-6.61-79.59 33.27z" class="bn"/><path d="m248.72 363.98 93.06 14.75 75.69-14.75-5.54-7.58-100.83-9.41-62.38 16.99z" class="ak"/><path d="m279.84 360.18 19.39-2.5 19.91-1.28 65.72 2.53 13.38 3.11-79.67 13.01-31.26-4.65-7.47-10.22z" class="bg"/><path d="m292.08 166.05 29.05 1.45v-24.79l-29.05 23.34z" class="al"/><path d="m283.65 100.12-19.14 29.05 28.35-7.02-9.21-22.03z" class="z"/><path d="m309.81 110.27-45.3 18.9 27.57 36.88 26.75-17.95.62-21.35-9.64-16.48z" class="u"/><path d="m315.33 362.69 16.41-2.55-4.06 6.26-12.35-3.71z" class="t"/><path d="m355.3 181.4 32.37 36.55-4.53 6.54-15.95-6.12-11.35-9.7 1.27-16.54-1.81-10.73z" class="ba"/><path d="m367.19 218.37 27.27-10.63 3.78 4.24-.76 7.07-15.34 11.91-14.95-12.59zM403.34 201.04l9.77-5.9 4.37 3.49-.76 11.71-10.14 1.64-5.03-.29 1.79-10.65z" class="t"/><path d="m309.94 189.03-22.63 31.6 7.95 5.19 15.43-5.19 1.71-23.02-2.46-8.58z" class="ba"/><path d="m310.69 220.63-26.07-18.38-5.93 4.32v8.8l12.92 17.67 19.08-12.41z" class="t"/><path d="m326.54 314.79 37.71-15.56-1.48-12.11-4.73-11.66h-27.27l-4.23 39.33z" class="bi"/><path d="m379.82 303.23 10.69 9.1.02 2.46 3.02.14 6.34 5.4-9.36 2.69-12.78-3.97-5.02-4.25-.67-5.75-.76-9.59 8.52 3.77z" class="ba"/><path d="m371.08 271.42 8.74 31.81-7.76 5.82-14.49-17.35-4.13-20.96 17.64.68z" class="t"/><path d="m312.4 335.92-1.3 11.07 8.04 9.41.31 2.94 2.57.43 5.66 6.63-11.6-1.53-9.12-2.83-5.13-6.24-1.41-7.12 11.98-12.76z" class="ba"/><path d="m319.45 329.58-8.35 17.41-10.68 1.69 3.24-24.67 4.15-7.26 11.64 12.83z" class="t"/><path d="m303.84 323.94 15.61 5.64 7.09-14.79-13.61-4.03-9.09 13.18zM350.7 283.48l6.87 8.22 13.51-20.28-19.36 1.75-1.02 10.31z" class="be"/><path d="m309.81 188.6 45.49-7.2-14.21 23-31.28-15.8z" class="ba"/><path d="m309.81 188.6.88 32.03 21.83-10.59 8.38-9-31.09-12.44z" class="l"/><path d="m340.9 201.04 14.4-19.64 11.89 36.97-19.12-5.69-7.17-11.64z" class="l"/><path d="m310.69 220.63.65 20.59 29.65 28.58 26.2-51.43-26.29-17.33-30.21 19.59z" class="bj"/><path d="m313.46 251.69 57.62 19.73-45.73 43.85-9.55-1.61-23.39-49.75 21.05-12.22z" style="fill:#e5c828;fill-rule:evenodd;stroke-width:0"/><path d="m292.41 263.91 34.13 50.88-22.88 9.22-11.25-60.1z" style="fill:#ccad14;fill-rule:evenodd;stroke-width:0"/><path d="m413.26 125.13-.75 13.86-19.38-.88 4.28-22.29 15.85 9.31z" class="al"/><path d="m407.04 95.39 14.57 24.36-16.1 4.6-6.46-4.41-2.6-18.83 10.59-5.72z" class="aj"/><path d="m421.61 119.75-22.56.19-11.45 6.8 5.53 11.37 28.48-18.36z" class="u"/><path d="m393.22 125.05 6.12 21.99-14.93 5.03 2.55-7.8 3.94-1.37-1.57-5.91-1.1-4.55 4.99-7.39z" class="x"/><path d="m316.64 129.61 4.52 26.03 8.36 23.97 15.15 1 8.9-10.6 26.47 8.27 27-82.89-64.02 15.47-26.38 18.75z" class="ba"/><path d="m344.26 129.27-8.48 36.56 17.79 4.18-10.45 12.35-.99 8.97-19.01-4.83-4.29-38.4 1.55-6.45-3.74-12.04 21-17.3 6.62 16.96zM385.83 114.79l-2.69 2.07-6.78 11.77 1.25 5.28 12.32-10.71 4.79-4.07-8.89-4.34zM377.5 115l-4.08-4.55-13.21-.35 8.04 15.03 1.03 12.62 6.42-11.96 1.8-10.79z" class="t"/><path d="m331.85 141.26-13.02 6.84-2.19-18.49 12.32-12.55 11.41 10.06-8.52 14.14z" class="be"/><path d="m377.5 115 5.64 1.86-7.44 22.96h-4.2l-2.22-2.07L377.5 115z" class="q"/><path d="m369.28 137.75 2.07 4.96 4.35-2.89-6.42-2.07zM405.3 100.74l-61.66 31.63-10.99-.69 4.08-9.82 36.69-11.41 33.62-15.06-1.74 5.35z" class="be"/><path d="m305.12 97.07-3.55-8.51-33.83-8.51L294 139.44l16.99-15.09 2.21-12.21-8.08-15.07z" class="aj"/><path d="m294 101.55-26.26-21.5 48.9-5-5.92 17.17-16.72 9.33z" class="z"/><path d="m376.24 68.39-41.08-15.02L294 101.55l50.05-14.05 32.19-19.11z" class="aj"/><path d="m388.72 108.79 6 10.34-8.89-4.34 2.89-6z" class="al"/><path d="m348.07 140.74 22.7 3.58 12.74 9.14L362.97 167l-14.9-26.26z" class="x"/><path d="m357.9 151.29 8.08-2.67 7.04 8.1-5.35 3.62-5.74-2.02-4.03-7.03z" style="fill:#664e1a;fill-rule:evenodd;stroke-width:0"/><path d="m357.9 151.29 15.12 5.43 5.36-3.62-24.51-8.85 4.03 7.04z" class="ay"/><path d="m337.25 125.4-5.4 15.86-21.85-6.92 1.23-3.69 5.41-1.04 11.28 3.38 2.01-6.09 7.32-1.5z" class="at"/><path d="m353.57 170.01-23.58-7.65 12.14 28.97 11.44-21.32z" class="be"/><path d="m313.2 112.14-19.2 27.3 43.25-14.04-24.05-13.26z" class="al"/><path d="M391.12 126.74c0 1.94-1.58 3.52-3.52 3.52s-3.52-1.58-3.52-3.52 1.58-3.52 3.52-3.52 3.52 1.58 3.52 3.52ZM370.22 119.75c0 1.94-1.58 3.52-3.52 3.52s-3.52-1.58-3.52-3.52 1.58-3.52 3.52-3.52 3.52 1.58 3.52 3.52Z" class="bk"/><path d="m417.47 89.77-73.21 39.5L294 101.55l58.42-7.79 65.05-3.99z" class="u"/><path d="m417.47 89.77-22.95-28.75L294 101.55l123.47-11.78z" style="fill:#89909b;fill-rule:evenodd;stroke-width:0"/><path d="m300.42 348.68 7.97 11.79-3.18 1.57-5.98-4.36 1.19-9z" class="t"/><path d="m319.14 356.4-4.03 7.47h4.34l2.57-4.1-2.88-3.37z" class="l"/><path d="m372.06 309.05 6.74 11.83 11.37.92 14.35-4.42-5.05 6.49-21.3-1.23-7.92-5.26 1.81-8.33z" class="t"/><path d="m390.51 312.33-5.65 10.69 5.31-1.22 3.38-6.87-3.04-2.6z" class="l"/><path d="m371.08 271.42-78.67-7.51 18.93-22.69 59.74 30.2z" style="fill:#f4d75d;fill-rule:evenodd;stroke-width:0"/><path d="m400.48 205.4 1.4-8.53 11.99-7.49 2.39 3.01-3.15 2.75-5.35 4.66-5.26 10.66-2.02-5.06z" class="ba"/><path d="m428.41 191.33-15.3 3.81 3.61 15.2 8.88-6.51 2.81-12.5z" class="ba"/><path d="m276.62 194.39-5.96-9.74-5.48 1.09-2.84 12.2 8.32 6.46 4.48.45 1.48-10.46z" class="t"/><path d="m277.93 197.54 1.91-6.19-7.2-12.17-3.51 1.58 1.53 3.89 2.61 6.61 1.21 15.31 3.45-9.03z" class="ba"/><path d="m258.83 174.23 11.83 10.42-8.32 13.29-6.77-11.31 3.26-12.4z" class="ba"/><path d="m399.47 323.87-28 1.74-1.22-8.23 29.22 6.49zM327.68 366.4l-27.28-.58-1.17-8.14 28.45 8.72z" class="bj"/><path d="m397.48 206.57-3.02 1.17 3.02 11.31 4.55-3.53-.48-5.18-4.07-3.77z" class="am"/><path d="m406.58 211.98-6.1-6.58-3 1.17 4.55 8.95 4.55-3.54z" class="bb"/><path d="m281.31 199.92 3.31 2.33-5.93 13.12-4.23-5.78 1.53-6.46 5.32-3.21z" class="am"/><path d="m270.66 204.4 7.27-6.86 3.38 2.38-6.85 9.67-3.8-5.19z" class="bb"/></g></svg>