<svg xmlns="http://www.w3.org/2000/svg" id="a" viewBox="0 0 900 420"><defs><style>.l{fill:#404857}.aa,.ac,.ad,.ae,.ah,.ai,.aj,.ak,.am,.an,.ao,.ap,.ar,.as,.av,.aw,.ax,.ay,.az,.bb,.bc,.bd,.be,.bf,.bg,.bi,.bj,.bk,.bl,.bm,.bo,.bq,.bs,.bt,.l,.m,.n,.o,.p,.q,.r,.t,.u,.v,.w,.x,.y,.z{stroke-width:0}.aa,.ac,.ad,.ae,.ah,.ai,.aj,.ak,.am,.an,.ao,.ap,.ar,.as,.av,.aw,.ax,.ay,.az,.bd,.be,.bf,.bi,.bj,.bk,.bl,.bm,.bq,.bs,.bt,.l,.m,.n,.o,.p,.t,.u,.v,.w,.x,.z{fill-rule:evenodd}.m{fill:#ccae2d}.n{fill:#eeeff1}.o{fill:#5f5044}.p{fill:#e8cab6}.ae,.bi,.q{fill:#1d2432}.bi,.q{opacity:.1}.ah,.r{fill:#664e1a}.t{fill:#46382d}.bg,.u{fill:#71561c}.v{fill:#c3987b}.w{fill:#ac923b}.x{fill:#7d5f1f}.aw,.y{fill:#f1d69c}.z{fill:#74665b}.aa{fill:#e4ae3a}.ac{fill:#5b4517}.ad{fill:#9b6533}.ae{opacity:.15}.bc{fill:#ecc675}.ai{fill:#576071}.aj{fill:#454d5d}.ak{fill:#f4d75c}.am{fill:#886822}.an{fill:#7c4f24}.ao{fill:#af7546}.ap{fill:#ccad14}.ar{fill:#9f7928}.as{fill:#343c4b}.av{fill:#dfbda5}.ax{fill:#aa822b}.ay{fill:#e5b244}.az{fill:#f9eed7}.bb,.bq{fill:#e5c828}.bd{fill:#cc9c34}.be{fill:#8b6651}.bf{fill:#e4c824}.bo{fill:#232a38}.bj{fill:#c29431}.bk{fill:#947125}.bl{fill:#755800}.bm{fill:#83624d}.bs{fill:#4b5464}.bt{fill:#b48c71}</style></defs><circle id="b" cx="313.43" cy="57.89" r="24.2" class="y"/><g id="c"><path d="m551.6 20.01-47.16 40.47-2.86 16.77-7.38 7.5-64.15 42.57-77.93 89.85-135.35 14.71-111.49 54.56 273.78 22.35 245.39-11.48 164.83-20.77-92.01-74.36-63.04-85.09-44.31-7-38.32-90.08z" class="y"/><path d="m551.6 20.01 19.65 72.23-19.53 22.91 67.26 24.74 15.25-22.8-37.72-19.81-44.91-77.27zM697.27 202.18l-43.49-10.1-116.12 22.52 61.56 55.37 54.94-.95 63.02-7.04 103.75 10.57-123.66-70.37zM352.12 217.17l29.97 19.5-48.79 18.47-52.16 11.62 70.98-49.59zM551.39 164.13l47.59 11.72-69.48 22.26-30.46-15.13 52.35-18.85zM504.44 60.48l30.83 31.76-41.07-7.49 10.24-24.27z" class="bc"/></g><g id="d"><path d="m97.37 181.34 46.86 62.39-57.88 11.78-3.81-30.48 3.2-41.28 11.63-2.41z" class="ax"/><path d="m79.87 181.34-41.23 52.47 43.08 11.62 8.64-56.07-10.49-8.02z" class="bd"/><path d="m75.43 186.99 12.48 18.27 12.82-19.45-25.3 1.18z" class="bi"/><path d="M79.87 145.69 60 184.54l30.36 4.82-1.11-46.48-7.67-2.03-1.71 4.84z" class="bd"/><path d="m88.98 140.85 29.05 39.05-27.67 9.46-4.89-39.55 3.51-8.96z" class="ax"/><path d="m78.89 147.61 7.77 11.84 6.15-13.44-13.92 1.6z" class="bi"/><path d="m82.2 96.35-12.81 48.08 16.08 5.38 4.89-15.73-8.16-37.73z" class="bd"/><path d="m82.2 96.35 20.99 44.29-17.72 9.17-3.27-53.46z" class="ax"/><path d="m173.78 193.36 50.32 67.25-51.1 13.46-20.55-54.09 4.07-24.21 17.26-2.41z" class="ar"/><path d="m152.45 191.25-51.54 68.11L173 274.07l-12.27-70.54-8.28-12.28z" class="ax"/><path d="m146.3 199.38 17.95 24.41 12.71-26.19-30.66 1.78z" class="ae"/><path d="m173.78 133.44 30.91 54.05-43.96 16.04 4.1-56.17 8.95-13.92z" class="ar"/><path d="m159.09 138.6-41.06 52.65 42.7 12.28 9.7-60.94-8.09-10.99-3.25 7z" class="ax"/><path d="m159.09 138.6 9.52 15.4 7.99-15.63-17.51.23z" class="ae"/><path d="m164.83 73.85-31.65 55.62 37.25 13.12 3.35-21.32-8.95-47.42z" class="ax"/><path d="m164.83 73.85 34.12 49.23-28.52 19.51-5.6-68.74z" class="ar"/><path d="m161.03 80.52 5.7 16.64 2.75-16.6-8.45-.04z" class="ae"/><path d="m168.1 27.43-24.15 46.13 21.57 8.78 4.91-19.22-2.33-35.69z" class="ax"/><path d="m165.52 82.34 15.7-7.07-13.12-47.84-2.58 54.91zM779.8 277.76l62.5-22.33-53.02-90.32-7.03 13.78-11.03 44.44 8.58 54.43z" class="ar"/><path d="m769.68 169.9-55.14 83.25 65.26 24.61 2.45-98.87-12.57-8.99z" class="ax"/><path d="m761.48 182.28 20.02 35.38 17.79-35.5-37.81.12z" class="ae"/><path d="m776.43 116.22-45.25 58.1 50.87 13.43 2.66-65.03-8.28-6.5z" class="ax"/><path d="m782.05 187.75 42.87-13.9-40.67-57.63-4.45 7.79 2.25 63.74z" class="ar"/><path d="m773.18 120.39 7.2 19.16 7.16-18.68-14.36-.48z" class="ae"/><path d="m784.25 63.63-29.79 46.51 25.34 13.87 4.45-17.18v-43.2z" class="ax"/><path d="m784.25 62.43 19.68 51.81-24.13 9.77 4.45-61.58z" class="ar"/><path d="m778.04 73.34 4.67 10.47 5.39-10.85-10.06.38z" class="ae"/><path d="m784.71 40.9-19.47 28.39 18.1 5.73 4.76-13.01-3.39-21.11z" class="ax"/><path d="m783.34 75.02 13.1-5.68-11.73-28.44-1.37 34.12z" class="ar"/></g><g id="e"><path d="m68.29 338.15-52.53-7.03 31.51-20.14 22.66 11.32 12.22-7.19 17.16 17.39-31.02 5.65z" class="az"/><path d="m82.15 315.11-13.86 23.04-21.02-27.17 34.88 4.13zM883.54 340.12l-46.07-25.58 4.83 24.07 10.59 9.08 30.65-7.57z" class="aw"/></g><g id="f"><path d="m91.74 249.73 2.75-11.36 23.39.73 239.17 30.72 195.43 1.89 241.61-31.52 41.59-2.08 1.79 13.79-46.93 17.92-407.71 33.35-249.92-27.73-41.17-25.71z" style="fill:#8e7e73;fill-rule:evenodd;stroke-width:0"/><path d="m814.1 248.63-332.74 37.82-30.26 37.07 37.36 41.68 344.12-16.54 2.09-65.74-20.57-34.29z" class="z"/><path d="m488.46 365.2-130.06-2.52-21.41-41.44 14.06-42.51 130.31 7.72 7.1 78.75z" class="o"/><path d="M339.96 277.37 98.07 247.6l-15.68 36.97 6.06 55.05 268.27 22.89-16.76-85.14z" class="z"/><path d="m828.24 274.32-260.47 26.13-84.21 10.44-2.06 2.27 2.39 1.38 345.46-33.61-1.11-6.61zM833.49 307.44l-347.65 28.74-4.34 3.65 4.97 3.27 348.6-28.3-1.58-7.36zM89.46 275.02l263.97 30.89 4.97 1.57-4.49 3.88-265.46-29.05 1.01-7.29zM355.79 332.83 85.96 306.19l-.57 5.65 271.04 28.29 3.55-3.63-4.19-3.67z" class="o"/><path d="m353.43 305.91 130.13 4.98.33 3.65-129.98-3.18-.48-5.45zM355.79 332.83l130.05 3.35.63 6.92-130.04-2.97-.64-7.3z" class="t"/><path d="m358.4 279.17 3.68 83.51-28.78-2.06 6.66-83.25 4.64-4.39 13.8 6.19z" class="ar"/><path d="m346.6 288.33-2.76 63.31 8.28 1.22-.92-64.38-4.6-.15z" class="aa"/><path d="m99.31 247.75-6.8-10.31-10.79 7.99-13.43 92.72 20.16 1.47 10.86-91.87z" class="ar"/><path d="m87.6 254.45-10.35 73.58 6.21.46 8.28-73.81-4.14-.23z" class="aa"/><path d="m814.1 248.63 11.6-9.96 18.78 6.59 8.41 102.43-20.31.97-18.48-100.03z" class="ar"/><path d="m814.1 248.63-5.87-13.34 5.87-16.37 38.73 5.71-8.35 20.63-30.38 3.37z" class="an"/><path d="M819.26 228.21 807 219.66l-21.15 1.44 8.24 19.09 20.01 8.44 5.16-20.42z" class="ad"/><path d="m852.83 224.63-42.12-23.01-3.71 18.04 12.26 8.55 33.57-3.58z" class="ad"/><path d="m785.85 221.1 24.86-19.48 8.55 26.59-33.41-7.11z" class="ao"/><path d="m825.93 260.66 10.58-1.61 6.9 76.12-4.83.46-12.65-74.97z" class="aa"/><path d="m99.31 247.75 25.41-.76 18.54-4.67-25.38-3.22-7.49-1.66-11.08 10.31z" class="bi"/><path d="m81.72 245.43-16.19-21.58 36.79-4.29-.62 17.17-2.39 11.02-17.59-2.32z" class="ad"/><path d="m99.31 247.75 18.57-8.65 10.62-16.2-25.57-3.04-3.68 6.75.06 21.14z" class="an"/><path d="m128.5 222.9-32.73-19-8.17 15.66 11.65 7.05 29.25-3.71z" class="ad"/><path d="m65.53 223.85 30.24-19.95 3.48 22.71-33.72-2.76z" class="ao"/><path d="m358.4 279.17 21.35-1.8 11.53-7.22-20.15-.2-6.48-.12-6.25 9.34z" class="bi"/><path d="m358.4 279.17-2.61-22.78 23.27-3.75-7.93 17.31-12.73 9.22z" class="an"/><path d="m358.4 279.17-18.44-1.8-6.66-22.23 17.39-1.15 10.13 6.39-2.42 18.79zM379.06 252.64l-24.76-13.19-.87 12.24 7.39 8.69 18.24-7.74z" class="ad"/><path d="m360.82 260.38-6.52-20.93-21 15.69 27.52 5.24z" class="ao"/></g><g id="g"><path d="m194.58 349.87 4.44 14.92-72.76-21.94 52.53-7.52 15.79 14.54z" class="az"/><path d="m230.1 352.86-31.08 11.93-20.23-29.46 51.31 17.53z" class="aw"/><path d="m565.24 384.49-5.02 9.06-60.15 20.36-25.91-9.68-21.12 4.93-48.75-4.93-10.4-8.62-47.78 2.74 20.13-18.08 34.79-18.62 87.44-9.57 49.19 7.01 27.58 25.4zM757.14 382.76l44.02-11.36 5.58 9.46 20.92 1.9 33.81 5.47-23.01 10.12-54.38-2.76-26.94-12.83z" class="az"/><path d="m801.16 371.4-17.08 24.19 43.58-12.83-26.5-11.36z" class="aw"/><path d="m824.92 345.91-47.52-40-70.48 29.02-20.11 13.55-51.33-9.16-34.33 12.65-13.74 1.6-11.57-12.66-31.02-1.9-33.15 15.01-4.87 8.79 23.34 9.68 35.1 12 25.14-13.23 24.22.07 75.62 14.58 13.35-16.83 20.79 5.06 71.43-9.76 29.13-18.47z" class="az"/><path d="m777.4 305.91 18.39 58.47 36.79-15.72-55.18-42.75zM706.92 334.93l17.44 39.21-34.14 11.77-54.74-46.59 71.44-4.39zM601.15 351.97l13.45 19.36-49.36 13.16 10.6-43.58 25.31 11.06z" class="aw"/><path d="m335.12 337.9-103.45 9.78-32.65 17.11 167.22 15.48 16.59-9.24 19.6.21 50.04-3.85 34.34 5.17 24.86-18.54-76.81-25.78-52.03 28.14-24.43-1.29-23.28-17.19z" class="az"/><path d="m530.14 372.49-18.47-18.47-17.01 12.69 35.48 5.78zM434.86 328.24l51.95 44.32-24.7 5.13-59.68-6.45 32.43-43z" class="aw"/><path d="m335.12 337.9 47.71 18.48-3.77 10.62-12.82 13.27-31.12-42.37z" style="fill:#ecc675;fill-rule:evenodd;stroke-width:0"/><path d="m382.83 356.38-16.59 23.89 36.19-9.03-19.6-14.86z" class="aw"/><path d="m173.67 399.32 22.88-9.52 10.25 11.53-6.84 5.58-26.29-7.59z" class="az"/><path d="m196.55 389.8 3.41 17.11 26.16-5.58-29.57-11.53z" class="aw"/><path d="m51.85 386.65 37.71-7.82 28.97-15.75 50.4 22.55-43.47 14.27-23.44-4.22-11.42-6.61-11.43 2.5-27.32-4.92z" class="az"/><path d="m118.53 363.08 6.93 36.82 43.47-14.27-50.4-22.55zM89.56 378.83l12.46 16.85-22.85-4.11 10.39-12.74zM530.14 372.49l35.1 12 11.57 12.35-76.74 17.07 38.37-27.19-8.3-14.23zM346.11 398.35l57.19-16.69 14.65-4.88 18.14 3.2-13.78 7.25-18.02 17-58.18-5.88zM500.07 413.91l-19.75-21.72-27.28 16.97 47.03 4.75z" class="aw"/></g><g id="h"><path d="m349.85 387.86-39.44 13.25-81.91-7.56 26.68-12.47 48.29-6.62 46.38 13.4zM556.56 394.79l-18.12-8.07-29.27 5.47-14.42-5.01-14.43 5.01-19.05-4.96-12.02-6.95 12.86-2.59 24.7-5.13 20.42 3.77 22.91-3.84 35.1 12-8.68 10.3zM720.68 386.27l-30.46 5.58-19.16-7.36-4.62-13.16 20.37-5.42 37.55 8.23-3.68 12.13z" class="q"/></g><g id="i"><path d="m263.51 322.07 18.98-9.26 5.4-13.17-11.39-15.37-12.99 6.9v30.9z" style="fill:#29303e;fill-rule:evenodd;stroke-width:0"/><path d="m296.66 299.27-1.97 27.53-11.94 16.05-16.46-3.31-7.45-22 10.59-4.73 13.32-8.15 5.14-5.02 8.77-.37z" class="as"/><path d="m269.43 312.81-9.53 26.95-15.02 4.97-12.13-17.51 1.73-28.93 16.07 2.14 18.88 12.38z" class="aj"/><path d="m327.53 161.81 6.98-10.43-10.38-12.7-8.94 2.23-5.55 8.83 17.89 12.07z" class="w"/><path d="m276.5 110.58-19.92-9.1h-13.3l-8.88 14.08-5.36 15.6 38.05.52 9.41-21.1z" class="ar"/><path d="m302.72 122.56-26.22-11.98-47.46 20.58-6.94 20.22 80.62-28.82z" class="am"/><path d="m216.77 231.88 21.02 8.69-.95-19.85-16.46-11.42-3.61 3.65v18.93z" class="an"/><path d="m222.1 214.91 12.3 10.7 17.18-5.35v-14.61l-10.18-6.23-19.3 15.49z" class="ad"/><path d="m322.01 211.96 6.28-39.73-18.4-3.48-4.97 7.69v33.33l17.09 2.19z" class="as"/><path d="m296.6 233.62 25.41-21.66-11.63-5.62-9.82-4.91-16.01 17.04 6.78 11.9 5.27 3.25z" class="l"/><path d="m294.09 293.78-8.7 8.3-11.21-24.71h11.21l3.22 4.7 5.48 11.71z" class="ai"/><path d="m279.98 281.58-13.65 25.9-28.91-15.14 6.33-12.83 17.41-4.65 18.82 6.72zM246.49 216.65l-12.09 8.96 7.31 8.94-5.57 13.05 45.09 10.62 21.49-6.54-6.12-18.06-17.88-11.02-32.23-5.95z" class="ai"/><path d="m236.14 247.6 7.61 31.91 44.86 2.56 14.11-30.39-66.58-4.08z" class="aj"/><path d="m279.98 225.63 4.63 24.94 2.71 4.94 4.01-4.53-5.67-25.35h-5.68z" class="ak"/><path d="m284.61 250.57-10.43 30.68 2.32 3.02 3.48-2.69 11.35-30.6-6.72-.41z" class="w"/><path d="m290.49 216.65-21.93-11-10.7 9.26 20.86 5.35 11.77-3.61z" class="u"/><path d="m309.39 130.45.99 75.89-31.66.4-8.53 8.17-13.61-2.48-9.62-14.17-20.31-40.45 26.71-19.6 56.03-7.76z" class="av"/><path d="m270.84 210.55-9.21-1.88-5.05-54.58.19-18.38-30.12 22.1 17.57 46.08 6.59 10.06 18.5 6.77 1.53-10.17z" class="v"/><path d="m278.72 206.74-22.14.31 12.73 13.67 9.41-13.98z" class="be"/><path d="m304.92 153.7-21.14 22.03-15.4-21.94 8.12-1 6.81 5.06 3.65 3.41 3.41-3.64 1.62-3.3 5.2-4.58 7.73 3.96z" class="v"/><path d="m283.31 157.85.47 17.88 3.54.71 4.01-1.01-.96-17.81-7.06.23z" class="p"/><path d="m283.78 175.73 4.16 3.02 3.39-3.32-7.55.3z" class="be"/><path d="m270.76 161.14 9.22 3.38-8.13 4.23 3.22-3.81-4.31-3.8z" style="fill:#232a38;fill-rule:evenodd;stroke-width:0"/><path d="m283.31 157.85 1.3-3.17-13.77-4.94-2.46 4.05 14.93 4.06z" class="ad"/><path d="m271.17 185.93 16.38 7.43 13.01-7.16-13.01 1.32-16.38-1.59z" class="ax"/><path d="m287.82 183.35-7.09 2.36-9.56.22 16.38 3.13 13.01-2.86-7.02-.57-5.72-2.28z" class="x"/><path d="m291.99 154.32-1.5-2.43 6.04-5.02 6.98 2.87 1.41 3.96-7.77-2.59-5.16 3.21zM256.58 154.09l-9.54 21.64-17.25 24.94-7.53-9.41-10.04-8.94 11.61-17.38 17.57-12.58 15.18 1.73z" class="ad"/><path d="m256.58 154.09-44.36 28.23 2.2 15.68 14.11-4.64 23.05-19.12 5-20.15z" class="an"/><path d="m251.58 174.24-46.89 29.57 7.53 11.1h9.88l20.89-14.24 4.91-11.61 3.68-14.82z" class="ao"/><path d="m204.69 203.81 17.41 11.1-5.33 16.97-12.08-28.07z" class="ad"/><path d="m244.88 217.85 23.68 9.15 28.04 6.62-6.11-16.97-39.68-2.7-5.93 3.9z" class="bk"/><path d="m244.88 217.85 45.61-1.2-41.74-5.84-3.87 7.04z" class="ay"/><path d="m274.18 281.25 8.57 23.41 13.91-5.39-2.57-5.49-8.7 1.78-5.41-13.98-2.51 1.43-3.29-1.76z" class="m"/><path d="m279.98 281.58-10.55 31.23-34.95-14.52 2.94-5.95 27.66 8.55 9.1-19.64 5.8.33z" class="ak"/><path d="m234.4 225.61 34.92-7.76 9.4 2.41 3.77 18.91-46.35 8.43-1.74-21.99z" class="l"/><path d="m269.32 217.85 12.6-22.17 20.8 8.66-20.23 34.83-13.17-21.32z" class="as"/><path d="m222.1 214.91 25.8-25.85-3.68 14.83-22.12 11.02z" class="an"/><path d="m326.48 153.79 4 30.77-28.14 9.67-5.51-33.09 29.65-7.35z" class="bk"/><path d="m290.37 157.62-1.23 29.59 14.14 4.87-2.72-28.7-1.37-4.91-8.82-.85z" class="x"/><path d="m309.64 149.74 16.84 4.05-25.92 9.59-10.19-5.76 19.27-7.88z" class="ay"/><path d="m223.83 164.94 91.36-31.75-8.91-13.01-94.06 27.59 11.61 17.17z" class="w"/><path d="m310.38 115.56-98.16 32.21 102.97-14.58-4.81-17.63z" class="ak"/><path d="m236.14 110.58-9.49-1.66 7.75-20.28 24.05 4.08-6.87 8.76-15.44 9.1z" class="ai"/><path d="m234.4 115.56 22.18-14.08 1.87-8.76-31.8 16.2 7.75 6.64z" class="l"/><path d="m285.87 188.74 4.1-21.61 8.83-2.19 15.03 4.83-15.9 33.84-12.06-14.87z" class="m"/><path d="m289.97 167.13 7.18-16.02 5.03 1.68 1.1 9.59 10.55 7.39-23.86-2.64z" class="ak"/><path d="m313.83 169.77 5.71-7.04 7.99-.92 6.98 7.66-9.79 1.32-10.89-1.02z" class="ai"/><path d="m313.83 169.77 6.18 10.21 9.67-1.56 7.31-9.65-3.57-1.74-19.59 2.74z" class="aj"/><path d="m339.31 160.44 5.29 9.33-6.69 7.32-7.43-10.06 8.83-6.59z" style="fill:#cccfd4;fill-rule:evenodd;stroke-width:0"/><path d="m339.31 160.44-5.89 6.59-3.72 2.74-5.57-1.44 3.4-6.52 11.78-1.37z" class="ao"/><path d="m324.13 168.33 5.55 10.09 8.23-1.33-4.49-10.06-9.29 1.3z" class="ad"/><path d="m285.87 188.74 24.51 17.6-8.48 12.13-19.98-22.79 3.95-6.94z" class="bj"/><path d="m324.13 138.68-5.12 17.88-5.18-2.24 1.36-13.41 8.94-2.23z" class="ak"/><path d="m231.67 347.68 11.53 5.75 12.32.45 4.38-14.12-27.15-12.54-1.08 20.46z" class="ai"/><path d="m266.29 339.54 28.4-12.74-1.1 17.48-11.67 7.44-12.08.02-3.55-12.2z" class="aj"/><path d="m231.67 347.68-1.57 26.38 10.98 1.57 9.8-6.04 4.64-15.71-23.85-6.2z" class="am"/><path d="m269.84 351.74 5.18 17.85 10.37-.16 6.98-5.76-5.97-18.81-16.56 6.88z" class="x"/><path d="m250.88 369.59 7.02 18.78-14.7 2.59-14.7-2.59 1.6-14.31 20.78-4.47z" class="ar"/><path d="M228.5 388.37h29.41v5.18H228.5z" class="bg"/><path d="M275.02 369.59v14.55l21.58 2.58 16.83-2.58-9.96-9.68-13.38-10.01-15.07 5.14z" class="bk"/><path d="M275.02 384.14h38.41v5.18h-38.41z" class="bg"/><path d="m246.45 351.52-3.25 19.72-1.53 2.43-2.79-1.5 2.46-21.98 5.11 1.33z" class="w"/><path d="m243.2 371.24 2.59 8.19-5.3 1.65-1.61-8.91 4.32-.93z" class="bf"/><path d="m286.4 344.86 2.24 20.08 3.38.96.35-2.23 1.38-21.86-7.35 3.05z" class="w"/><path d="m288.64 364.94 8.56 11.84 6.27-2.32-11.1-10.79-3.73 1.27z" class="bf"/></g><g id="j"><path d="m697.27 231.38 19.14 18.94-10.46 17.54-13.35-20.55 4.67-15.93z" class="m"/><path d="m641.16 370.03-13.74 9.93 37.46 1.72 5.61-11.42-7.54-6.97-9.18.75-12.61 5.99z" class="x"/><path d="M627.42 379.96h40.56v5.94h-40.56z" class="r"/><path d="m641.16 370.03 4.56 3.01 9.23-7.82-6.04-.78-7.75 5.59z" class="bf"/><path d="m666.44 371.33-13.17 14.58 18.47 2.97 18.48-2.97-2.27-11.04-15.21-5.21-6.3 1.67z" class="bk"/><path d="M653.27 385.91h36.95v5.94h-36.95z" class="r"/><path d="m671.51 369.66-3.99 9.61 6.09 1.01 3.26-11.2-5.36.58z" class="bf"/><path d="m635.48 339.32 9.67 18.1 21.29 13.91 2.3-15.72-14.58-22.78-18.68 6.49z" class="as"/><path d="m640.55 308.76-5.07 30.56 18.68 3.78 8.39-4.22 8.51-33.16-17.59-1.77-12.92 4.81zM662.95 363.29l-17.8-5.87 3.76 7.02 17.53 6.89.86-4.66-4.35-3.38z" class="aj"/><path d="m640.55 308.76 23.78 23.17 12.81-24.27-12.03-7.54-24.56 8.64z" class="as"/><path d="m714.54 303.95-29.56 47.48-12.24 4.18-18.58-12.51 8.39-37.04 51.99-2.11z" class="bs"/><path d="m612.41 242.25-15.96-6.45-7.35 13.42 12.05 4.26 6.9-3.86 4.36-7.37z" class="an"/><path d="m553.64 227.52 38.58-8.43 7 50.88-32.29 4.19-13.29-46.64z" class="n"/><path d="m584.91 261.26 7.19 8.38-5.17 2.36-2.02-4.33v-6.41z" class="aa"/><path d="m575.29 261.26 2.11-1.66 3.17 1.38 4.34.28 3.18 9.85-9.21 1.87-4.14-5.86.55-5.86z" class="bj"/><path d="m580.57 260.98 5.28-4.73-6.42-1.33 1.14 6.06z" class="x"/><path d="m583.06 251.76-2.49 9.22-4.26-3.7-6.34-7.37 2.74-5.27 10.35 7.12z" class="v"/><path d="m583.58 238.18 3.83 12.6-8.53 1.92-5.15-11.31 9.85-3.21z" class="av"/><path d="m572.5 256.97 6.38-1.35 1.69 5.36-5.28.28-2.79-4.29z" class="ar"/><path d="m575.29 261.26-4.11 12.15h8.07l-3.96-12.15z" class="aa"/><path d="m569.97 249.91-1.25-10.17 16.19-6.72-1.33 5.16-9.85 3.21 3.46 7.6-1.9 1.39-2.79-2.37-2.53 1.9z" class="ar"/><path d="m596.85 215.54-48.57 8.65 16.15 59.19 38.88-10.83-6.46-57.02Zm-27.84 58.11-12.45-43.68 33.64-7.35 6.22 45.26-27.42 5.77Z" class="aj"/><path d="m612.41 242.25-9.54-10.87-11.34.9-5.98 9.97 3.55 2.84 6.26-5.89 13.64 8.81 3.41-5.76z" class="ad"/><path d="m650.26 225.45-29.09 27.25 13.68 12.02 23.54-14.46-8.13-24.81z" class="ah"/><path d="m640.33 249.22-4.83 6.87-.65 8.63 8.09-6.12.67-6.34-3.28-3.04z" class="an"/><path d="m711.25 127.7 3.29 17.36-23.42-8.77-3.17-16.27 23.3 7.68z" class="u"/><path d="m628.52 125.25 5.71-8.16 50.75 10.61 19.05 20.9 7.22 16.09-43.16-9.63-39.57-29.81z" class="bk"/><path d="m618.98 139.89-10.93 71.55 30.95 5.48 14.38 6.64 16.27 4.65 11.89-9.91 22.49-30.93-15.58-30.25-45.06-18.58-24.41 1.35z" style="fill:#d0ab92;fill-rule:evenodd;stroke-width:0"/><path d="m652.06 221.84 8.68-1.41 13.76-65.37 21.9 18.75 7.63 13.56-6.76 14.81-4.39 4.16-.93 7.49-3.87 8.48-17.49 11.31-20.33-8.17 1.8-3.61zM620.06 160.72l17.84 25.15 20.49-17.11-4.07-6.04-10.09 2.36-3.83 2.77-3.05 3.16-1.58-4.18-2.3-4.45-5.13-5.26-8.28 3.6z" class="bt"/><path d="m635.77 166.83-5.22 17.63 3.01 1.41h4.34l2.5-18.02-4.63-1.02z" style="fill:#d8bca9;fill-rule:evenodd;stroke-width:0"/><path d="m630.55 184.46 3.09 3.75 4.26-2.34-7.35-1.41zM620.06 190.33l32.46 5.63-11.1 9.07-16.5-2.9-4.86-11.8z" class="bm"/><path d="m624.45 193.92 20.8 3.68-2.03 1.8-17.68-3.13-1.09-2.35z" style="fill:#f9fafa;fill-rule:evenodd;stroke-width:0"/><circle cx="649.32" cy="176.48" r="2.89" class="bo"/><circle cx="625.31" cy="172.11" r="2.89" class="bo"/><path d="m639 216.92 34.4 5.55-12.2 5.86-10.94-2.88-11.26-8.53zM697.27 202.18l-12.29-3.33 6.97 14.98 5.32-11.65zM689.51 195.8l3.05-9.93 5.79 2.34-8.84 7.59z" class="bm"/><path d="m620.06 160.72-.36-1.93 8.5-2.81 6.69 4.74-1.42 1.66-6.18-3.2-7.23 1.54zM644.23 165.08l-.84-2.18 10.33-1.41 5.74 5.34-1.07 1.93-5.87-4.4-8.29.72zM675.48 169.21l-1.97 5.94 2.08 20.65 5.95.86 6.41-15.92 16.08 6.63 2.89-6.63-18.85-17.24-8.07 1.47-4.52 4.24z" class="aj"/><path d="m687.95 180.74-14.44-5.59-1.05-10.41 7.57.38 6.98 6.37.94 9.25z" style="fill:#545c6d;fill-rule:evenodd;stroke-width:0"/><path d="m618.98 139.89 8.06 3.75 5.93-1.56 2.58 5.51 5 2.32 5.56-.91 2.85 4.82 4.82 2.24 4.61-.08 2.59 3.42 4.49 2.09h4.73l2.26 3.25 5.21 2.42 5.39-.33 3.95 4.66 5.14 2.39 5.12-.29 2.49 3.82 7.16 3.33 4.33-16.05-82.73-39.44-9.54 14.64z" class="ak"/><path d="m627.04 143.64 11.86-13.44-3.35 17.39-8.51-3.95zM640.55 149.91l11.12-13.62-2.71 17.53-8.41-3.91zM653.78 156.06l10.05-13.98-2.84 17.3-7.21-3.32zM672.46 164.74l3.92-16.67-10.91 13.42 6.99 3.25zM677.67 167.16l10.78-13.34-1.44 17.67-9.34-4.33zM692.15 173.88l9.75-13.65-2.14 17.18-7.61-3.53z" class="w"/><path d="m634.23 117.09 69.8 31.51-14.52-32.36-55.28.85z" class="x"/><path d="m634.23 117.09 50.75-8.91 26.27 19.52-77.02-10.61z" class="ar"/><path d="m714.54 145.06 9.85 2.53-4.93 5.41h-9.48l4.56-7.94z" class="ad"/><path d="m724.39 147.59-4.53 11.59-9.88-6.18 14.41-5.41z" class="an"/><path d="m656.2 226.2-10.09 66.74 3.21 18.47 27.06 8.18 38.16-15.64-8.59-36.09-8.68-17.94v-18.54l-41.07-5.18z" class="u"/><path d="m658.39 232.06-.81 7.11-2.28 1.44 1.84 2.38-3.67 32.11-2.74 1.17 2.43 1.53-1.09 9.56-1.81.99 1.46 2.05-.99 8.64-2.28 1.08 1.95 1.81-1.08 9.48-8.77-2.65 1.01-8.64 2.01-1.08-1.55-2.89.92-7.86 1.41-1.58-1-1.99 1-8.53 1.76-1.27-1.28-2.88 3.62-31.06 2.28-1.59-1.68-3.59 1.21-10.35 7.16 2.88.97 3.73z" class="bd"/><path d="m697.27 231.38-26.34 10.87-3.52-2.86-2.3-4.94-6.72-2.39-8.13-6.61 38.82-5.33 8.19 11.26z" class="ak"/><path d="m692.46 224.76-34.07 7.3 9.02 7.33 25.05-14.63z" class="m"/><path d="m696.95 245.54-9 2.46-15.21 27.12 17.48 5.65 15.73-12.91-9-22.32z" class="ah"/><path d="M697.27 231.38 687.95 248l18 19.86-8.68-36.48z" class="ad"/><path d="m690.22 280.77-19.29-18.06-9.41 4.21-2.06 9.66 11.47 16.36 19.29-12.17z" class="ac"/><path d="m650.4 301.93-8.84-1.81.46-3.97 8.71 2.89-.33 2.89zM642.94 288.29l8.78 2.11.35-3.04-8.72-2.64-.41 3.57zM644.35 276.19l8.81 1.61.31-2.7-8.64-3.06-.48 4.15zM657.58 239.17l-8.53-3.37-.6 5.18 8.69 2.01.44-3.82z" class="ar"/><path d="m668.74 229.98-29.34 38.51-5.45 1.33.9-5.1 27.9-38.52 5.99 3.78z" class="bs"/><path d="m665.11 257.27-8.26-11.73-7.94 9.97v9.03l5.25 4.48 7.36-2.1 3.59-9.65z" class="an"/><path d="m656.85 245.54-16.52 3.68.22 17.75 8.36-2.43 7.94-19z" class="ad"/><path d="m634.85 264.72-3.95 10.2 8.5-6.43-4.55-3.77z" style="fill:#9a9fa9;fill-rule:evenodd;stroke-width:0"/><path d="M634.85 264.72 618 247.85l-8.43 1.37-.38 15.09 5.18 7.02 20.48-6.61z" class="ac"/><path d="m665.11 257.27 5.82 5.44-11.47 13.87-5.3-7.56 10.95-11.75zM612.41 242.25l5.59 5.6-8.81 16.46-8.04-10.83 11.26-11.23z" class="ar"/><path d="m654.16 343.1 8.79 20.19 9.79 6.37 14.07-3.75-1.83-14.48-30.82-8.33z" class="l"/><path d="m687.95 374.87-1.14-8.96-23.86-2.62 3.49 8.04 21.51 3.54z" class="ai"/></g><g id="k"><path d="m385.13 256.39 12.96-7.74-2.74 12.75-10.22-5.01z" class="be"/><path d="m446.6 220.18-13.48 35.45 2.39 18.34 13.08 5.88 7.26-13.22-4.75-25.93-4.5-20.52z" class="x"/><path d="m433.12 255.63-17.66-1.64-1.48 19.16 34.61 6.7-15.47-24.22z" class="bk"/><path d="m434.67 58.02-6.59-3.45-17.89 9.48.92 12.42 13.34-1.15 10.22-17.3zM389.04 78.77l12.42-19.55 8.73 4.83-13.1 22.77-4.83-2.53-3.22-5.52z" class="ak"/><path d="m382.83 134.85 6.21-56.08 6.9 3.05v47.73l-5.44 14.07-7.67-8.77z" class="bd"/><path d="m390.5 137.69-7.67-2.84 20.47 246.81 8.91 2.21 3.88-34.3-18.31-210.27-7.28-1.61z" style="fill:#b68b2e;fill-rule:evenodd;stroke-width:0"/><path d="m430.05 127.32 11.65-49.47-7.03-19.83-23.56 18.45-3.9 58.38 8.88 1.99 13.96-9.52z" class="ah"/><path d="m431.6 192.16 4.49 187.82-8.97 2.28-8.33-55.9-14.5-172.93 7.97-22.43 19.34 61.16z" class="u"/><path d="m412.26 131 17.79-3.68 1.55 64.84-15.51 3.61-11.8-23.88 7.97-40.89z" class="ad"/><path d="m412.21 383.87-9.56-108.43-4.85-8.52 3.3-9.06-4.8-54.33 1.94-43.14-7.74-22.7 10.88-16.28 10.88 9.59-3.45 28.74 7.28 36.03 11.03 186.49-14.91 1.61z" class="am"/><path d="m390.5 137.69 5.44-55.87 14.25-17.77 8.6 17.77-6.53 49.18-14.48 8.3-7.28-1.61z" class="x"/><path d="m390.5 137.69 21.76-6.69 3.83 64.77-19.79 7.76-5.8-65.84z" class="ao"/><path d="m401.84 85.36 6.97-9.81 4.53 7.47-11.5 2.34z" class="aa"/><path d="m422.43 76.47 9.17-7.21 3.07 8.59-12.24-1.38z" class="bd"/><path d="m567.77 300.45-7.26-14.01-8.91 2.05 9.01 15.85 7.16-3.89z" class="aj"/><path d="m536.01 239.98-24.34 41.89 18.75 6.37 18.2-23.61-12.61-24.65zM449.25 311.61l-3.96 30.72 9.84 15.91 17.84-2.98 17.39-28.51-41.11-15.14z" class="am"/><path d="m472.97 355.26-27.68-12.93-1.45 11.24 10.95 11.25 12.47-.21 5.71-9.35z" class="bl"/><path d="m441.79 367.7-5.91 3.35-13.57 11.71 22.36 1.73 16.6-1.66.84-9.78-15.51-9.11-4.81 3.76z" class="bd"/><path d="m447.35 367.39-7.5 6.75-3.97-3.09 6.43-5.6 2.98-1.51 2.06 3.45z" class="bq"/><path d="m475.34 332.81 4.98 17.26 15.68 8.17 15.67-4.22 8.94-41.21-33.05 9.69-12.22 10.31z" class="ar"/><path d="m511.67 354.02-31.35-3.95 3.64 12.61 13.27 4.71 12.69-4.59 1.75-8.78z" class="am"/><path d="m486.81 372.56-6.49 15.15 15.94 2.24 12.91-2.24-1.94-11.38-6.88-4.42-3.41-.88h-3.34l-6.79 1.53z" class="bd"/><path d="M509.17 392.19h-28.84v-4.48h28.84zM461.27 387.23h-38.95v-4.48h38.95z" class="bb"/><path d="m449.25 311.61 26.09 21.2 45.27-20-31.39-4.35-14.96-9.24-9.17 6.9-15.84 5.49z" class="bk"/><path d="m453.96 224.93 11.13-4.95 7.64 10.48 6.14 14.7 20.26-6.89 20.06-4.41 9.36 10.4-6.21 37.61-3.15 9.67 1.42 21.27-38.01 6.5-8.34-19.02-10.2 16.85-14.81-5.53-.89-43.08 5.6-43.6z" class="bq"/><path d="m525.22 217.17-7.57-7.91-1.16 7.23-4.58 7.66 13.31-6.98zM473.13 200.43l-15 7.89 6.96 11.66 13.78 25.18-.74-25.6-5-19.13z" class="bl"/><path d="m522.34 281.87-3.15-48.01 16.82 6.12-13.67 41.89zM446.6 220.18l1.76 48.35 16.73-48.55-18.49.2z" class="ar"/><path d="m456.65 255.14 17.51 2.29-.63 3.97-17.52-2.29.64-3.97z" class="ax"/><path d="m525.22 132.08-38.32-5.63-19.23.31-3.67 16.92 2.46 10.25-6.37 7.83-7.05 32.5 20.09 6.17 2.75 8.72 2.82 5.72 18.4 10.06 15.16-9.56 20.29-32.47 14.55-22.98-21.88-27.84z" class="av"/><path d="m519.62 137.34-20.61 70.64-23.5 1.5-.22 8.93 3.58 26.75 23.22-13.38 14.05-12.84 13.36-20.83.47-5.91-.18-12.77 14.72-4.73 1.22-19.28-11.53-16.54-14.58-1.54zM478.17 171.61l12.61-17.98 16.02-5.19-11.49-5.64h-6.84l-4.71 5.7-6.67 12.02 1.08 11.09zM476.9 146.86l-.73-5.82-5.44-2.84-5.43-.51 8.52 26.79 3.08-17.62z" class="v"/><path d="m523.89 180.55 11.39 8.54-5.78 9.02-5.61-17.56zM481.36 158.4l20.85 17.45 8.59-8.28 3.67-.13 6.69-4.66-14.36-2.32-25.44-2.06zM474.43 157.09l-14.34 4.67.6-2.81 2.8-5.02 10.94 3.16z" class="be"/><path d="m529.24 145.45-8.25 12.28.17 5.05-6.69 4.66-6.42 9.55 11.06 10.35 13.26-18.85.52-5.37 11.62 11.58 6.88-10.57-11.04-13.38-11.11-5.3z" class="x"/><path d="m474.43 148.44 12.36 4.14-5.43 5.82-3.19 13.21-3.44.78-3.42-2.44 3.12-12.86v-8.65z" class="p"/><path d="m506.8 148.44-12.69-8.64-5.64 3 18.33 5.64zM476.17 141.04l-5.44-5.69-5.43 2.34 10.87 3.35z" class="am"/><path d="m460.44 173.64 38.6 9.34-14.63 7.41-16.74-3.88-7.23-12.87z" class="be"/><path d="m464.88 177.23 27.12 6.53-8.11 4.52-14.5-3.4-4.51-7.65z" style="fill:#fff;fill-rule:evenodd;stroke-width:0"/><path d="m471.31 169.95 2.95 4.88 3.91-3.22-6.86-1.66z" class="be"/><path d="m514.47 167.44 17.9 1.05 1.22-1.72-9.56-2.64-7.92.87-1.64 2.44z" class="bl"/><path d="m473.13 200.43 33.84 9.87-31.68 8.11-2.16-17.98z" class="be"/><path d="m482.34 106.49 62.17 15.87 11.58 19.38-39.95-14.98-33.8-20.27z" class="ar"/><path d="m519.62 137.34 31.77 26.79 4.7-22.39-28.44-13.92-8.42 1.99.39 7.53z" class="am"/><path d="m519.62 137.34 8.03-9.52-45.31-21.33-4.89 12.88 3.62 13.91 38.55 4.06z" class="x"/><path d="m482.34 106.49-31.77-7.34 17.1 27.61 13.4 6.52 1.27-26.79z" class="ar"/><path d="m509.26 154.61 34.37 8.28.88 11.81-10.92-7.93-26.79-2.82.31-5.21 2.15-4.13zM476.9 146.86l6.86 1.64.36 2.92-1.81 3.07-6.84-1.72-.74-2.49 2.17-3.42z" class="as"/><path d="m455.51 141.74 21.39 5.12-2.48 10.23-23.32 3.16 4.41-18.51Zm28.25 6.76 25.5 6.1-4.93 18.68-22.97-14.89 2.4-9.9Z" class="aj"/><path d="m496.26 225.45 28.96-8.28-6.03 16.69-40.32 11.3 17.39-19.71z" class="ar"/><path d="m519.19 291.54-40.49-17.87h-4.44l-25.52 13.12 25.52 13.5 44.93-8.75z" class="ap"/><path d="m478.87 245.16-.17 28.51-4.44 26.62v-26.62l4.61-28.51zM548.62 264.63l-36.36 23.86 1.8 10.73 6.11 6.91 40.34-19.69-11.89-21.81z" class="ax"/><path d="m512.26 288.49-9.03 5.78 16.94 11.86-7.91-17.64z" class="v"/><path d="m509.92 362.8-25.96-.12 2.85 9.88 20.42 3.77 2.69-13.53zM467.26 364.61l-23.42-11.04-.6 4.67 4.11 9.15 14.76 5.66 5.15-8.44z" class="bk"/><path d="m447.35 367.39 1.39-7.48-5.5-1.67-.93 7.21 5.04 1.94z" class="ap"/><path d="m571.38 306.12-53.4 20.74-9.93 8.66 3.62 18.5 64.17-13.11 8.98-24.9-13.44-9.89z" class="aj"/><path d="m517.98 326.86 66.84-10.85-17.05-15.56-69.6 8.63 5.45 12.47 14.36 5.31z" style="fill:#787f8d;fill-rule:evenodd;stroke-width:0"/><path d="m499.89 311.74 5.36 3.7 12.73 11.42-6.31 27.16-20.77-18.5 5.09-18.5 3.9-5.28z" class="ai"/><path d="M519.19 233.86 496 317.02l9.25-1.58 20.4-79.23-6.46-2.35z" class="aj"/><path d="m536.97 330.47-6.59 2.44-.83 3.32 3.19 1.23-4.24 2.74-.11 2.14 5.66-2.51 1.9-4.08-4.03-1.24 5.25-2.04-.2-2zM544.59 330.43l-5.28.68-2.87 9.21 2.87-.09.14-3.93 4.19-.78.95-5.1Zm-3.25 4.17-1.68-.16.5-1.94 1.65.45-.46 1.66ZM552.03 329.74l-5.66 1.09-1.55 8.18 6.03-1.53 1.17-7.74Zm-3.12 6.31-2.11.13.75-3.25 2.52-.11-1.16 3.24ZM559.66 336.47l-1.13-2.97 1.7-5.26-5.09.66-2.65 9.01 2.77-.08.09-3.85 2.4 3.32 1.92-.83Zm-3.7-6.21 1.6.44-.42 1.62-1.63-.16.45-1.9ZM561.89 328.45l7.38-1.93-.46 2.05-3.27.84-1.04 6.3-2.67.36 2.04-6.03-2.67.45.69-2.04z" class="n"/><path d="m533.59 166.77 10.92 7.93-9.23 14.39-11.39-8.54 9.7-13.78z" class="av"/><path d="m529.79 179.43 4.44-7.68 6.57 4.54-11.01 3.14z" class="be"/><path d="m500.35 374.97-1.01 7.19h-8.29l2.73-8.36 3.16-.75 3.41 1.92z" class="bq"/><path d="M500.34 375.06v-7.36l-6.99-.7.42 6.85 6.57 1.21z" class="ap"/><path d="m385.13 256.39 15.97 1.47 1.55 17.58-7.97 2.31-9.55-21.36z" class="av"/></g></svg>