<svg xmlns="http://www.w3.org/2000/svg" id="a" viewBox="0 0 900 420"><defs><style>.j{fill:#576071}.aa,.ab,.ac,.ad,.ae,.af,.ag,.ah,.aj,.ak,.al,.am,.an,.ap,.aq,.at,.au,.av,.ax,.ay,.az,.ba,.bc,.be,.bf,.bg,.bh,.bi,.bj,.bk,.bm,.bo,.bp,.bq,.br,.bs,.bu,.bv,.bw,.bx,.by,.bz,.cb,.cc,.ce,.cf,.cg,.ch,.ci,.cj,.j,.l,.p,.q,.r,.s,.t,.u,.v,.w,.x,.z{stroke-width:0}.ab,.al,.aq,.az,.be,.bj,.bs,.bv,.ch,.ci,.cj,.w{fill-rule:evenodd}.bf{fill:#67acc3}.l{fill:#4b9db7}.bh{fill:#e8cab6}.p{fill:#1d2432;opacity:.1}.q{fill:#545c6d}.ab,.r{fill:#72cbcc}.s{fill:#d0af96}.t{fill:#4298b4}.u{fill:#359496}.v{fill:#317186}.af,.w{fill:#c3987b}.bs,.x{fill:#8b6651}.bj,.z{fill:#dfbda5}.aa{fill:#8dc1d2}.ac{fill:#7bb7ca}.ad{fill:#9a9fa9}.ae{fill:#4fa9aa}.ag{fill:#2e6a7d}.ah{fill:#eeeff1}.bw{fill:#5f6878}.aj{fill:#185e60}.ak{fill:#abafb8}.al,.cf{fill:#d9eaf0}.am{fill:#347990}.an{fill:#454d5d}.ap{fill:#cccfd4}.aq{fill:#369496}.at{fill:#b3d5e1}.au{fill:#ecf4f7}.av{fill:#bbbfc6}.ax{fill:#2e3544}.ay{fill:#a0cbd9}.az{fill:#50a9aa}.ba{fill:#dddfe2}.bc{fill:#3e90aa}.be{fill:#fff}.bg,.cj{fill:#4b5464}.bi{fill:#2a6275}.bk{fill:#245362}.bm{fill:#3b88a1}.by{fill:#1e7678}.bo{fill:#c6e0e8}.bp{fill:#a9846c}.bq{fill:#388199}.br{fill:#5f5044}.bu{fill:#787f8d}.bv,.cb{fill:#232a38}.bx{fill:#8e7e73}.bz{fill:#3d4554}.ce{fill:#efd3c2}.cc{fill:#74665b}.cg{fill:#55a2bb}.ch{fill:#3aa0ba}.ci{fill:#27788c}</style></defs><g id="b"><path d="m53.44 326.87 40.91-16.86 37.55 2.93 214.18 10.96 1.77 19.61-104.6 15.3-13.62-9.31-8.47 11.85-49.89 9.23-26.56-9.23-18.78 9.23-37.17 6.54-18.78-9.8-15.35 9.8-38.4-24.32 37.21-25.93zM217.9 381.12l124.35-9.63 39.42 6.62 42.03-11.52 103.55 12.21-29.34 8.79-49.85 10.37-62.29-10.14-113.3 8.96-54.57-15.66zM505.97 367.33l24.39-8.23 49.82-10.56 82 17.48-24.28 14.21-64.32 3.36-67.61-16.26zM690.57 394.59l29.86-5.43 22.26 2.9 30.4 6.31-51.39 9.64-45.56-5.98 14.43-7.44zM747.42 356.52l56.63-12.47 40.69 7.1 41.6 8.63-25.96 13.32-74.44 4.87-38.52-21.45z" class="p"/></g><g id="c"><path d="m347.85 343.51-17.42-1.19-5.2-29.33 26.62 1.52-4 29z" class="q"/><path d="m70.43 347.76 16.1-3.13 12.12-41.01-28.81 2.46-11.04 11.23 11.63 30.45z" class="bw"/><path d="m221.16 361.35-18.51-3.56-3.2-28.77-127.48-13.24-1.54 31.98-20.33-3.55-5.16-57.77L168.62 296l70.67 5.76-18.13 59.59z" class="q"/><path d="m371.97 288.02-5.88 52.24-18.24 3.25-2.86-24.35-96.91 13.32-4.83 26.33-22.09 2.54 7.1-52.89L256.52 296l101.74-14.39 13.71 6.41z" class="bw"/><path d="m391.56 270.94-2.27 20.44-161.03 17.08-15.87-34.65 179.17-2.87z" class="ac"/><path d="M228.26 308.46 28.28 294.8l-2.94-21.05 120.68-7.43 53.43 11.14 31.05 13.76-2.24 17.24z" class="bf"/><path d="m25.34 273.75 196.18-23.89 102.9 13.18 67.14 7.9-161.06 20.28-205.16-17.47z" class="at"/><path d="m216.02 274.72 34.45-1.52-2.79-12.44-48.23-13.3-34.96 20.1 51.53 7.16z" class="p"/><path d="m157.2 185.82 26.78-3.3 24.8-3.05 3.88 28.72h-45.94l-9.52-22.37z" class="q"/><path d="m275.55 186.43-60.93-6.2-7.63 26.28 41.85-1.99 26.71-18.09z" class="q"/><path d="m190.1 180.61 14.1 3.96 6.42 11.3-20.52 5.98v-21.24z" class="au"/><path d="m193.5 185.82-3.85-4.31-5.67 1.01-10.43 13.35 16.55 5.98 3.4-16.03z" class="ay"/><path d="m204.2 184.57-3.84-11.1-7.99.79 1.13 11.56 10.7-1.25z" class="v"/><path d="m183.98 182.52 2.5-9.45 6.94.45 1.27 2.21-1.19 10.09-9.52-3.3z" class="bi"/><path d="m186.48 173.07 7.4-2.17 6.48 2.57-5.67 2.26-8.21-2.66z" class="bq"/><path d="m253.63 181.63 6.57 13.03-16.66 3.06-1.36-16.32 11.45.23z" class="au"/><path d="m244.9 184.57-3.29-3.96-7.13 1.64-5.33 14.11 14.39 1.36 1.36-13.15z" class="ay"/><path d="m253.63 181.63-2.04-9.18-9.86.9 3.17 11.22 8.73-2.94z" class="v"/><path d="m243.54 174.26-.57-1.47h-6.85l-1.64 9.46 10.42 2.32-1.36-10.31z" class="bi"/><path d="m236.12 172.79 7.08-1.48 8.39 1.14-8.05 1.81-7.42-1.47z" class="bq"/><path d="m229.83 172.18 11.16 24.18-23.57 5.49-4.76-18.18 4.3-13.15 12.87 1.66z" class="au"/><path d="m219.63 175.13-3.69-4.84-6 2.27-12.02 25.16 19.5 4.13 2.21-26.72z" class="ay"/><path d="m229.83 172.18-2.1-11.86-10.43 1.25 2.33 13.56 10.2-2.95z" class="by"/><path d="m219.17 162.47-.51-1.36-7.07-1.07-1.65 12.52 9.69 2.57-.46-12.66z" class="aj"/><path d="m211.59 160.04 8.77-1.08 7.37 1.36-8.56 2.15-7.58-2.43z" class="ae"/><path d="m217.99 194.98 27.08 3.19 30.48-11.74-3.27 55.2-50.76 12.8-12.74-41.42 9.21-18.03z" style="fill:#89909b;stroke-width:0"/><path d="m217.99 194.98-44.44 2.33-16.35-11.49 7.29 60.12 57.03 8.49-3.53-59.45z" style="fill:#68707f;stroke-width:0"/><path d="m217.99 194.98-15.96 13.21-30.18-3.89-14.65-18.48 60.79 9.16z" class="ad"/><path d="m275.55 186.43-12.8 15.42-33.6 7.23-11.16-14.1 57.56-8.55z" class="ak"/><path d="m235.97 226.07 66.01-5.56-4.84 46.02-46.67 6.67-11.18-26.26-3.32-20.87z" class="v"/><path d="m247.25 231.35-7.96-8.02-55.01-.88 3.33 43.12 30.56 3.71 2.99-2.87 2.19 3.5 27.12 3.29-3.22-41.85z" class="bi"/><path d="m184.28 222.45 58.03-10.71 21.76 3.2-.52 1.6 6.56-.71 31.87 4.68-54.73 10.84-62.97-8.9z" class="bq"/><path d="m264.07 214.94-48.98 11.86 2.29 3.64 4.78-2.64 47.95-11.97-6.04-.89z" class="ag"/><path d="m215.09 226.8 3.08 42.48 5.18.63-1.19-42.11-7.07-1z" class="bk"/><path d="m233.87 236.92 3.23.45.85 11.17-3.74-.46-.34-11.16z" class="r"/><path d="m230.19 240.72 10.65 1.36.28 2.55-10.42-1.08-.51-2.83z" class="r"/></g><g id="d"><path d="m677.3 85.95 9.52 28.85 13.61-5.81-3.29-12.81-19.84-10.23z" class="bq"/><path d="m708.85 94.49-15.43-7.18-16.12-1.36 19.84 24.31 11.71-15.77z" class="bf"/><path d="m751.57 335.42 20.57 6.84-7.6-21.33-12.97 14.49z" class="an"/><path d="m840.93 259.94 23.58 11.63-7.53 10.06-21.15-2.39 5.1-19.3z" class="bw"/><path d="m795.77 314.63-5.73 30.42 5.42 13.36 12.3-7.01 7.48-24.64 2.8-8.61-22.27-3.52z" class="bm"/><path d="m801.24 324.19 16.8-6.04-8.91-11.64-13.36-1.44 5.47 19.12z" class="aa"/><path d="m775.59 269.26-5.16 25.07 9.48 23.69 21.33 6.17 9.32-20.87-8.62-19.9-26.35-14.16z" class="l"/><path d="m856.4 324.27-7.38 35.21-8.57 5.07-9.72-12.4 3.86-21.27-1.93-7.61 23.74 1z" class="bm"/><path d="m834.59 330.88 21.81-6.61-25.67-8.62 3.86 15.23z" class="aa"/><path d="m775.59 269.26 27.94 34.06 21.42-12.07 15.98-31.31-37.63-5.7-27.71 15.02z" class="cc"/><path d="m744.27 178.67-18.78 52.46 16.38 12.19 18.37-24.31-15.97-40.34z" class="ag"/><path d="m739.15 217.56 36.44 51.7 14.45-9.32 18.05 4.68 32.84-4.68-10.2-60.8-91.58 18.42z" class="bm"/><path d="m744.81 174.57-5.66 42.99 26.5 7.72 1.7-6.27 7.85 9.05 47.15-11.93 8.38-16.99-12.69-28.18-31.28-4.77-13.15 1.43-28.8 6.95z" class="bf"/><path d="m757.52 176.09 19.66-2.75 9.58-7.15v-19.03l-15.34-13.22-11.41 17.32-2.49 24.83z" class="am"/><path d="m777.18 173.34-17.48-19.02-2.18 21.77 9.52 4.84 10.14-7.59z" class="ag"/><path d="m699.48 169.04-5.44 11.89-5.66-16.13 5.55-.95 5.55 5.19z" class="bo"/><path d="m686.82 114.8 22.03-20.31 55.31 14.5-18.66 24.95-21.23 4.97-37.45-24.11z" class="ay"/><path d="m724.27 138.91 6.67 15.41 19.32-1.42 21.16-18.96-7.26-24.95-39.89 29.92z" class="ac"/><path d="m730.94 154.32-6.67 13.33 10.35 5.69 22.9 2.75 13.9-42.15-40.48 20.38z" class="bm"/><path d="m729.1 166.71-29.62 2.33 6.81 17.01 51.23-9.96-28.42-9.38z" class="am"/><path d="m688.73 125.5 3.5 21.66 17.57 7.66 21.14-.5 10.93-22.67-11.33-9.44-9.07 4.09-7.13 3.93-3.29-6.84-18.89-6.69-3.43 8.8z" class="bf"/><path d="m708.68 123.39-.88 13.41 3.25 4.23 6.27-2.12 5.76-13.87-14.4-1.65z" class="ay"/><path d="m686.82 114.8 23.43-2.02 5 11.37-26.52 1.35-1.91-10.7zM726.35 114.82l-11.1 9.33 26.62 7.5 2.94-8.15-18.46-8.68z" class="j"/><circle cx="728.65" cy="135.9" r="3.29" class="ax"/><circle cx="700.43" cy="131.93" r="3.29" class="ax"/><path d="m723.08 167.88-1.08 5.46-5.44 2.75-3.08-6.35 3.08-3.55 6.52 1.69z" class="bo"/><path d="m692.23 147.16 25.5 4.04 13.21 3.12-1.84 12.39-23.49 4.55-1.89-2.55-4.21.26-11.13-4.17 3.85-17.64z" class="ac"/><path d="m707.8 136.8-15.57 10.36 10.54 4.94 14.96-.9-.41-12.29-9.52-2.11z" class="bo"/><path d="m705.61 171.26-.46-8.39-5.67 6.17 6.13 2.22z" class="bc"/><path d="m692.23 147.16 12.92 15.71 12.58-11.67-25.5-4.04z" class="j"/><path d="m767.04 180.93 8.16 47.13-9.55-2.78 1.39-44.35z" class="t"/><path d="m775.2 228.06.39 41.2 32.5-4.64-32.89-36.56z" class="ag"/><path d="m741.87 243.32-10.55-28.47-7.05-1.43-4.81 4.14-2.36 20.51 24.77 5.25z" class="bq"/><path d="m803.53 303.32 11.71 23.44 19.35 4.12 11.78-52.89-5.44-18.05-37.4 43.38z" class="bf"/><path d="m703.72 200.95 2.57-14.9 7.19-3.68 4.04 1.5 6.75-2.94 4.23.8-1.36 21.27-11.03 1.49-12.39-3.54z" class="ay"/><path d="m717.52 183.87-1.41 20.62-3.83-1.09 5.24-19.53z" class="t"/><path d="M731.32 214.85 727.14 203l-23.42-2.05 15.74 16.61 11.86-2.71z" class="bf"/><path d="m706.29 186.05 5.99-9.67 5.24 7.49-11.23 2.18zM728.5 181.73l-4.23-6.54-6.75 8.68 10.98-2.14z" class="an"/><path d="m786.76 166.19 18.39-2.34.87-9.72-12.95-25.49-6.31-5.25-15.34 10.55 15.34 32.25z" class="v"/><path d="m806.02 154.13 32.42 8.74-7.71 23.18-12.69-7.38-31.28-12.48 19.26-12.06z" class="bm"/><path d="m818.04 178.67 4.31 37.46 5.1 15.41h26.18l-15.19-68.67-20.4 15.8z" class="ag"/><path d="m822.35 216.13-21.09 27.19 2.04 10.92 9.8 5.38 40.53-28.08-31.28-15.41z" class="am"/><path d="m856.98 281.63-61.21-30.7-23.63 13.43 68.59 38.96 16.25-21.69z" class="an"/><path d="m795.77 250.93-34.7-2.27-30.65 27.31 25.89 15.89h21.28l18.18-40.93z" class="j"/><path d="m777.59 291.86 2.32 26.16h-9.48l-8.26-6.4-31.75-35.65 47.17 15.89z" class="an"/><path d="m779.91 318.02-28.34 17.4 10.6-23.8 17.74 6.4z" class="j"/><path d="m749.51 266.31 16.22 12 6.41-4.56-17.95-10.26-4.68 2.82z" class="ay"/><path d="m748.62 274.9 15.7-12.6 6.11 3.11-16.19 13.77-5.62-4.28z" class="bo"/><path d="m801.26 243.32-17.07 14.88 7.45 11.06 15.09 1 6.37-10.64-11.84-16.3z" class="bf"/><path d="m784.19 258.2.75 17.11 6.7 2.48 1.88-1.92 1.87 3.31 8.14 3.01 3.2-11.93-22.54-12.06z" class="ay"/><path d="m795.3 264.15-3.66 13.64 3.75 1.39-.09-15.03z" class="t"/><path d="m790.04 345.05-8.77 10.8-3.58 7.63 5.67 1.82h3.74l4.87-3.18 3.42 3.18h8.14l4.23-13.9-17.72-6.35zM830.73 352.15l-7.02 9.97-2.1 7.71 4.93 2.27h4.19l4.2-1.36 4.01 1.36h7.43l2.65-12.62-18.29-7.33z" class="bf"/><path d="m783.36 365.3-2.09-9.45-7.66 9.45h9.75zM795.39 365.3l-1.87-9.45-6.42 9.45h8.29zM816.68 372.1l7.03-9.98 2.83 9.98h-9.86zM830.73 372.1l6.35-8.62 1.86 8.62h-8.21zM717.69 111.35l-8.84-16.86 16.51-14.36 35.46 2.27v7.75l11.32.31 1.02 7.24 6.62 6.96-15.62 4.33-32.22 1.64-3.52-3.6-10.73 4.32z" class="j"/><path d="m764.16 108.99 7.98-18.53 23.25 16.57-31.23 1.96z" class="an"/><path d="m760.82 82.4-21.67 27.86 32.99-19.8-11.32-8.06zM717.69 111.35l21.46-30.34-7.21 29.62-14.25.72z" class="an"/><path d="m764.16 108.99 28.19-24.04 6.29 24.04-27.22 24.95-7.26-24.95z" class="bf"/><path d="m792.35 84.95-20.93 48.99 21.65-5.3 13.97-31.65-14.69-12.04z" class="bq"/></g><g id="e"><path d="m542.87 258.57 9.95 48.2 13.91 23.33 23.93-8.68 7.14-18.1-13.7-26.97-41.23-17.78z" class="by"/><path d="m542.87 258.57 39.44 40.22 21.6-3.9 25.75-28.99-19.59-15.67-67.2 8.34z" class="aj"/><path d="m582.31 298.79 8.35 22.63 22.38 13.67 15.31-19.65 5.27-46.18-9.38-2.7-15.23 11.71-26.7 20.52z" class="ae"/><path d="m590.66 321.42 37.69-5.98-2.66 23.24-9.69 7.64-21.28-12.96-4.06-11.94z" class="u"/><path d="m549.24 164.13-23.18 48.67 25.74 18.68 4.28-27.2-6.84-40.15z" class="bi"/><path d="m570.07 159.62-20.83 46.47 37.56 12.92 38.5-6.94 4.04-33.61-2.91-12.27-8.95-1.54-47.41-5.03z" class="q"/><path d="m549.24 206.09-3.55 52.5 83.97 7.31-4.36-53.83-76.06-5.98z" class="an"/><path d="m653.08 170.53-26.65-4.34-2.83 19.86-12.7 24.89 12.7 8.57 15.1-3.87 14.38-45.11z" class="bq"/><path d="m610.9 210.94-1.12 53.23 23.84 5.09 5.08-53.62-27.8-4.7z" class="v"/><path d="m570.07 159.62-.74 5.28-7.7 24.42 1.74 17.88-8.87 8.93-8.81-10.04 3.55-41.96 20.83-4.51z" class="bq"/><path d="m563.37 207.2-2.24 52.74-18.26-1.37 2.82-52.48 17.68 1.11z" class="v"/><path d="m518.79 40.91 10.09 45.95 8.9 17.23-2.31 12.77 3.8 5.35-1.73 4.09 2.47 11.25 3.07 2.26-3.31 2.57-1.07 21.34 44.01 1.7 11.76 7.92 19.43-14.06 2.81-40.39 8.44-2.56 1.28-9.97-11.51-5.63L596.51 45l-77.72-4.09z" class="z"/><path d="m589.24 169.04 7.27-3.11L597.79 45l23.78 56.24 10.99-.76-2.3 21.99-9.2-.77-2.23 3.37 1.21 8.87-2.56 30.71-24.8 13.81-3.44-9.42zM531.84 100.36l12-2.7 7.16 2.7 6.14 6.37 7.16-6 9.97-2.3 16.36 4.35-17.13 14.32-6.64-4.09-4.61 9.2-12.27-12.27-14.51 6.92-3.63-16.5zM586.8 116.07l-10.74 8.7 7.41 1.53 3.33-10.23zM535.47 116.86l7.61 6.41-5.54 3.03-2.07-9.44z" class="af"/><path d="m551 100.36 13.3.37-2.05 21.48-6.38 2.3-6.4-2.81 1.53-21.34zM551.8 94.31l-22.92-7.45-2.82 9.1 9.41 3.25 16.33-4.9zM563.37 94.49l19.34-6.03 8.59 9.28L577.47 99l-14.1-4.51z" class="bh"/><path d="m549.47 121.7 6.39 6.74 6.39-6.23-12.78-.51zM540.01 137.55l15.85-3.61 18.09 5.74-1.34 4.2-16.75-5.91-16.09 4.41.24-4.83zM582.71 165.42l13.8.51 13.27-6.31-17.1 18.84-9.97-13.04zM621.06 121.7l-9.32-.73 8.3 12.97 1.02-12.24zM618.1 116.45l.73-9.3 8.56-.12-9.29 9.42z" class="x"/><circle cx="572.52" cy="107.11" r="2.45" class="cb"/><circle cx="543.25" cy="106.54" r="2.45" class="cb"/><path d="m522.74 58.92-3.95-18.01 44.76-14.36 64.83 2.77-9.3 60.83-5.38-3.29-16-33.51-43.44 11.85-31.52-6.28z" class="by"/><path d="m597.7 53.35 7.27-22.22 23.41-1.81-6.81 71.92-11.79 1.79V78.66l-6.43-2.08-5.65-23.23z" class="aj"/><path d="m526.97 101.86 24.03-1.5.8-6.05-25.74 1.65.91 5.9zM564.3 100.73l26.33 2.05.67-5.04-27.93-3.25.93 6.24z" class="by"/><path d="m590.63 33.89-7.92 23.55-10.19-21.35 18.11-2.2zM554.26 65.2l4.4-22.64L568 61.45l-13.74 3.75zM543.25 63.01l-3.48-21-7.93 18.72 11.41 2.28z" class="aj"/><path d="m518.79 40.91 39.87 1.65 69.72-13.24-66.13-9.62-43.46 21.21z" class="ae"/><path d="m616.4 31.6-13.05 44.98 6.43 26.45 6.62-71.43z" class="by"/><path d="m597.54 68.95-71.82 3.52 32.61 4.11 39.21-7.63z" class="af"/><path d="m537.98 69.9 1.3 7.5 3.59.49-.6-9.2-4.29 1.21zM558.33 76.58l-1.47-7.79-3.03.32.91 8.48 3.59-1.01zM572.97 67.71l.88 8.88 3.43-.16.16-8.32-4.47-.4zM619.21 143.86l10.74-.79-2.61 8.19-14.3-1.96 6.17-5.44z" class="cf"/><path d="m613.04 149.3 5.36 4.31 10.58.71.36-4.89-3.64-1.23-12.66 1.1z" class="ay"/><path d="m629.95 143.07 3.67 5.13-4.64 6.12-3.28-6.12 4.25-5.13z" class="bf"/><path d="m569.33 164.9-16.21 22.97 10.25 19.33 5.96-42.3zM626.43 166.19l5.56 26.66-21.09 18.09 15.53-44.75z" class="aa"/><path d="m635.04 254.24-11.51 12.87-1.27 5.91 8.62 7.19 4.42-15.9-.26-10.07z" class="af"/><path d="m607.04 219.01 1.97 59.26 6.89-2.09 1.82-4.61.1-56.72-10.78 4.16zM673.14 224.18l-8.51 64.13-9.59-8.31 3.09-3.74 5.24-56.24 9.77 4.16z" class="aa"/><path d="m607.04 203 64.38 4.2 5.88 8.44-70.26-.28V203z" class="bx"/><path d="m610.9 210.94 66.4 4.7-4.16 8.54-66.1-5.17-.41-5.77 4.27-2.3z" class="cc"/><path d="m607.04 203-5.81 7.18 5.81 8.83 3.86-8.07-3.86-7.94z" class="br"/><path d="m609.01 278.27 17.16 53.88 3.49 2.61 2.33-4.24-14.17-58.64-8.81 6.39zM664.63 288.31l-23.78 45.47h-4.57v-4.89l18.88-49.65 9.47 9.07z" class="aa"/><path d="m617.72 271.57 40.41 4.69 6.5 12.05-55.62-10.04 8.71-6.7z" class="at"/><path d="m629.66 341.29 2.9-6.53 8.29-.98-2.29 36.21-4.18 5.05-4.17-3.28-.55-30.47z" class="aa"/><path d="m626.17 332.15 10.11-3.26 4.57 4.89-11.19 7.51-3.49-9.14z" class="at"/><path d="m630.21 371.76 8.35-1.77-.66 10.24-7.48-.09-.21-8.38z" class="bx"/><path d="m653.08 170.53 13.26 63.76-12.83 5.17-10.08-7.92-10.87-26.87 20.52-34.14z" class="bi"/><path d="m640.5 239.46-5.46 14.78 16.73 5.7 6.28-11.05-6.28-12.9-11.27 3.47z" class="af"/><path d="m643.43 231.54-2.93 7.92 17.55 9.43 8.29-14.6-22.91-2.75z" class="bq"/><path d="m635.04 254.24-8.77 18.33 12.43 6.05 13.28-3.07-.21-15.61-16.73-5.7z" class="z"/><path d="m626.27 272.57.8 12.03 16.31-.12 8.6-8.93-25.71-2.98zM526.06 212.8l36.66 9.54 4.01 13.19-4.9 7.79-18.07-1.22-17.7-29.3zM562.72 222.34l12.08-3.33 9.3 9.59-5.14 2.53-5.06-1.25-11.18-7.54z" class="af"/><path d="m562.72 222.34 21.38 6.26-12.4 22.83-9.87-8.11.89-20.98z" class="z"/><path d="m584.1 228.6 11.47 9.87-10.11 12.09-13.76.87 12.4-22.83z" class="af"/><path d="m552.82 306.77 37.84 14.65-4.39 8.77-12.2 4.9-17.33-9.36-3.92-18.96z" class="aj"/><path d="m598.29 343.81-9.46 24.46 18.67 4.37 18.67-4.37-1.93-16.87-13.85-8.99-12.1 1.4z" class="bw"/><path d="M588.83 368.27h37.34v8.72h-37.34zM594.72 333.36l12.02 2.06 3.29 3.26 3.46-2.1 12.2 2.1-1.45 12.72-25.95-7.59-3.57-10.45z" class="bg"/><path d="m606.74 335.42 6.75 1.16-1.13 11.34-1.97 2.42-2.89-3.84-.76-11.08z" class="ak"/><path d="m607.5 346.5-2.49 10.77 5.91 1.14 1.44-10.49-4.86-1.42z" class="ba"/><path d="M580.18 342.26v16.84l-20.54 2.81-29.28-2.81 16.99-14.41 14.24-9.52 12.97 3.38 5.62 3.71z" class="bw"/><path d="M580.18 367.83H568.2l-2.45-4.37-11.74 4.37h-23.65v-8.73h49.82v8.73z" class="bg"/><path d="m580.18 342.26-15.82-5.27-4.97-9.24 3.58-1.08 23.3 3.52-6.09 12.07z" style="fill:#404857;stroke-width:0"/><path d="m556.74 325.73 6.23.94 1.39 10.32-3.94 1.44-1.75-3.34-1.93-9.36z" class="ak"/><path d="m564.36 336.99-11 10.33-6.01-2.63 11.32-9.6 5.69 1.9z" class="ba"/></g><g id="f"><path d="m415.66 256.23-5.8 88.23 57.21 14.38 53.27-6-15.66-72.66-89.02-23.95z" class="bz"/><path d="m423.99 221.18-26.01 16.22-3.2 8.98 5.28 11.68 15.6-1.83 12.16-11.34-3.83-23.71z" class="ag"/><path d="m423.7 366.59-16.4 11.44 17.31 1.81 16.74-1.81-8.04-12.68-9.61 1.24z" class="j"/><path d="M407.3 378.03h34.63v3.63H407.3z" class="bz"/><path d="m415.66 256.23 12.16 31.73 16.15 9.59 43.89-19.53-4.66-14.25-29.87-7.54h-37.67z" class="ag"/><path d="m423.99 221.18-8.33 35.05 67.54 7.54 12.41-32.06-26.05-5.38-27.64-4.91-17.93-.24z" class="bq"/><path d="m453.33 244.89-3.74 15.13-2.72 3.75-2.9-4.38 3.6-19.16h5.76v4.66z" class="ae"/><path d="m449.59 260.02 3.74 11.47-6.46 1.74-2.9-13.84 5.62.63z" class="u"/><path d="m433.31 302.29-9.61 64.3 18.22 15.07 17.53 2.3 30.91 3.63 7.09-1.24-6.33-98.39-35.49 3.89-22.32 10.44z" class="bq"/><path d="m433.31 302.29 8.61 79.37 13.71-89.81-22.32 10.44zM469.85 372.6l11.49-83.57-25.71 2.82 14.22 80.75z" class="ag"/><path d="m433.31 302.29 57.81-14.33-3.26-9.94-60.04 9.94 1.92 5.02 3.57 2.36-1.49 3.06 1.49 3.89z" class="bg"/><path d="m489.16 281.96-59.42 11.02 2.08 5.42 57.34-16.44z" class="bz"/><path d="m469.85 372.6-10.4 11.36 10.9 2.76 20.01-2.76-20.51-11.36z" class="j"/><path d="M459.45 383.96h30.91l2.53 1.82-2.53 1.81h-30.91v-3.63z" class="bz"/><path d="m486.94 231.71-3.74 32.06 10.65 4.8h9.59l-7.83-36.86h-8.67z" class="ag"/><path d="m423.99 221.18 23.58 19.05H455l7.42 1.82 33.19-10.34-8.67-5.38h-5.6v-3.47l-7.28-4.52-32.14-3.6-4.94 1.78-2.37 2.79-4-.5-6.62 2.37z" class="bg"/><path d="m460.3 235.29 21.04-12.43 5.6 3.47-26.64 8.96zM436.98 216.52l15.1 18.31-21.47-16.02 6.37-2.29z" class="bz"/><path d="m447.57 240.23 10.38-12.41 4.47 14.23-9.09 2.84-5.76-4.66z" class="r"/><path d="m464.58 23.47 29.27 28.9-34.95-6.16 5.68-22.74z" class="bk"/><path d="m389.79 166.92 12.6 13.27 10.9-12.08-6.61-10.61-16.89 9.42z" class="av"/><path d="m389.79 166.92 15.09-24.69 2.48 21.02-17.57 3.67z" class="ah"/><path d="m397.98 237.4-11.03-3.2-2.02 1.56-2.03-2.74-4.52-1.31-5.33 11.37 16.74 11.15 3.71-1 3.71 3.77 2.85 1.06-2.08-20.66z" class="at"/><path d="m378.38 231.71-.9 8.44-.92 9.13-4.33-19.35 6.15 1.78zM382.9 233.02v18.84l4.05-17.66-4.05-1.18zM392.35 235.76l4.86 21.24-7.42-2.77 2.56-18.47z" class="ac"/><path d="m409.64 127.3-8.38 20.86-4.05 56.2 39.89 6.45 20.14 12.62 14.98-9.24 3.14-20.73 15.76-39.69-23.46-29.96-37.43-6.58-20.59 10.07z" class="ce"/><path d="m453.33 217.98 1.89-4.38 11.85-66.7 9.13-12.18 14.92 19.05-10.9 44.93-6.16 19.64-16.11 9.48-4.62-9.84z" class="s"/><path d="m437.1 210.81 18.12 2.79 14.34-2.79-11.61 17.01-20.85-17.01z" class="bp"/><path d="m449.59 157.5-24.81 19.85-17.89-26.06 6.16-3.32 8.29 2.25 3.56 5.81 1.06 4.14 3.32-3.67 4.98-4.38 7.82-.12 7.51 5.5z" class="s"/><path d="m429.28 156.5-3.08 6.48-1.42 14.37-3.08.47-3-1.42 2.13-14.29 4.07-6.08 4.38.47z" style="fill:#f7e6dc;stroke-width:0"/><path d="m418.7 176.4 2.88 3.79 3.2-2.84-6.08-.95z" class="bp"/><path d="m407.36 163.25-4.97 1.9 1.54 2.96 3.43-4.86zM443.97 168.11l5.81 2.01-2.02 3.2-3.79-5.21z" class="s"/><path d="m409.97 186.83 10.78 8.53 16.35-5.22-16.7-.94-10.43-2.37z" class="bf"/><path d="m409.97 186.83 7.46-.12 4.03-.83 3.91 2.25 11.73 2.01-16.23.95-10.9-4.26z" class="bq"/><path d="m406.89 151.29 14.45-1.07-3.67-3.79-10.31 1.54-.47 3.32zM434.26 152.12l3.79-3.26 10.66 4.91.88 3.73-15.33-5.38z" class="ah"/><circle cx="436.98" cy="166.57" r="2.37" class="cb"/><circle cx="413.29" cy="162.78" r="2.37" class="cb"/><path d="m446.87 134.41 20.2 12.49 19.07-2.97 14.51-15.4-28.43-8.99-25.35 14.87z" class="ah"/><path d="m500.65 128.53-2.13 26.48-11.43 2.49-20.02-10.6 33.58-18.37z" class="av"/><path d="m467.07 146.9 28.54 27.76-16.56 27.76-11.98-55.52z" class="av"/><path d="m508.65 183.51-9.95 12.92-19.65 5.99 10.65-24.12 5.91-7.58 13.04 12.79z" class="ad"/><path d="m467.07 146.9 15.5 4 13.04 8.5 13.04 24.11-18.95-5.21-22.63-31.4z" class="ah"/><path d="m461.25 125.98 18.9 13.77 3.71 3.27 5.49-8.3-17.13-15.18-10.97 6.44z" class="av"/><path d="m480.15 139.75 2.42 11.15 11.28 6.6 4.67-2.49-9.17-20.29-9.2 5.03z" class="ad"/><path d="m482.57 150.9 26.08 32.61-10.13-28.5-15.95-4.11z" class="ap"/><path d="m401.26 148.16 20.08-19.63-18.83 2.25-1.25 17.38z" class="ah"/><path d="m437.1 140.17-73.14-17.7 49.33-10.1 40.04 4.86-6.46 17.18-9.77 5.76z" class="bq"/><path d="m437.1 140.17 94.46-17.01-43.7-14.32h-24.25l-19.64 17.43-6.87 13.9zM421.14 88.22l18.21-57.41 19.55 64.82-14.93 30.64-22.83-38.05z" class="v"/><path d="m439.35 30.81 25.23-7.34 16.99 63.05-37.6 39.75 5.62-30.64-10.24-64.82z" class="bi"/><path d="m421.14 88.22 28.45 7.41 3.74 19.56-9.36 11.08-30.68-13.9 7.85-24.15z" class="bg"/><path d="m449.59 95.63 31.98-9.11 6.29 22.32-43.89 17.43 5.62-30.64z" class="bz"/><path d="m518.68 269.91 4.45 6.98-6.5 8.18-6.95-8.82 9-6.34z" class="br"/><path d="m513.76 276.89 2.87 8.18-33.43-4.98-4.15-8.6h18.79l15.92 5.4z" class="cc"/><path d="m518.68 269.91-35.48-6.14-4.15 7.72 34.71 5.4 4.92-6.98zM497.84 282.27l.07 105.32h-7.55l-2.5-109.57 9.98 4.25z" class="bx"/><path d="m503.15 267.22-19.71-5.52-6.77 9.79 10.03 5.4 12.72-2.23 3.73-7.44z" class="ce"/><path d="m476.67 271.49 2.38 13.37 18.79-2.59 1.58-7.61-22.75-3.17z" class="s"/></g><g id="g"><path d="m148.42 285.72 13.83 6.58 10.02-17.96-10.42-.46-13.43 11.84z" class="af"/><path d="m126.39 216 33.96 37.19-30.27 15.72-3.69-52.91z" class="bk"/><path d="m82.31 354.78 6.45 15.83-13.91 2.94-20.22-2.94 1.18-11.64 10.2-7.2 16.3 3.01z" class="u"/><path d="M54.63 370.61h34.13v6.51H54.63z" class="by"/><path d="m71.69 352.48 2.26 9.22-5.9 1.71-2.04-11.64 5.68.71z" class="r"/><path d="M125.93 351.7v12.36l7.11 3.26h28.26l9.97-3.26-14.39-14.09-16.29-11.69-10.58 4.54-4.08 8.88z" class="u"/><path d="M125.93 364.06h45.34v6.51h-45.34z" class="by"/><path d="m141.95 343.12 9.52 8.58 5.41-1.73-7.48-7.34-7.45.49z" class="r"/><path d="m149.4 342.63-23.47 9.07-14.98-26.83 38.45 17.76z" class="bz"/><path d="m61.56 284.93-3.1 39.96 13.71 17.04 19.98-9.31 11.42-27.14-42.01-20.55z" class="an"/><path d="m58.46 324.89 33.62 7.7-9.77 22.19-26.5 4.19 2.65-34.08z" class="bz"/><path d="m74.55 218.73 4.38 36.29 47.21-12.32-14.71-22.76-11.09-5.81-25.79 4.6z" class="an"/><path d="m74.55 218.73-17.07 7.8 8.53 26.35 15.19 6.33L85.74 243l-11.19-24.27zM110.95 214.13l15.44 1.87 8.19 25.2-11.22 5.48-4.63-9.81-7.3-16.93-.48-5.81z" class="am"/><path d="m142.25 132.9 6.35 65.28-29.01 5.14-13.15 12.24-29.77-1.96-19.04-38.09-12.39-38.98 20.55-18.44 58.93-6.05 17.53 20.86z" class="z"/><path d="M112.63 209.06H88.76l-12.7-58.33-22.97-26.29-7.85 12.09 7.25 48.05 7.71 2.72.46 9.94 13.89 21.49 36.88 1.21 1.2-10.88z" class="af"/><path d="m119.59 203.32-41.11 6.95 32.95 9.67 8.16-16.62zM52.49 184.58l5.14-9.07 4.83 6.35-1.8 15.38-8.17-12.66z" class="x"/><path d="m85.74 154.51 7.48-7.78 12.24 1.58 7.02 5.22 3.63-8.16 9.29-4.76 10.76 4.08-27.53 27.88-22.89-18.06z" class="af"/><path d="m105.46 148.31 10.65-2.94 7.25 24.93-6.65 3.4-8.08-1.13-3.17-24.26z" class="bh"/><path d="m123.36 170.3-6.12 7.18-8.61-4.91 14.73-2.27zM98.66 182.31l19.94 2.2 15.98-7.52-.52 4.3-15.15 7.3-18.44-2.19-1.81-4.09z" class="x"/><circle cx="130.01" cy="156.62" r="3.63" class="cb"/><circle cx="95.71" cy="162.52" r="3.63" class="cb"/><path d="m85.74 154.51-1.97-4.53 16.02-6.5 5.67 4.83-19.72 6.2zM116.11 145.37l2.42-5.52 16.47.45 1.16 4.39-20.05.68zM105.46 134.03l7.17-8.19 1.78-6.96h4.32l5.99-6.84-28.33-11.78-12.69 3.48-5.22 9.31-16.02-3.49-19.79 5.43 4.53 16.24h11.83l24.67 1.49 4.98-5.04 16.78 6.35z" class="cc"/><path d="M42.67 114.99 28.61 153l25.62 5.89 8.23-2.3-7.55-17.85 4.12-7.51-16.36-16.24zM105.46 134.03 83.7 103.74l-21.24 5.82 21.24 23.16 21.76 1.31zM96.39 100.26l22.34 18.62-6.1 6.96-16.24-25.58z" class="br"/><path d="M62.46 156.59 71 177.48l-8.54 4.38-9.97-17.53L28.61 153l33.85 3.59z" style="fill:#46382d;stroke-width:0"/><path d="m62.46 181.86-17.22 6.69L28.61 153l23.88 9.52 9.97 19.34z" class="af"/><path d="m41 166.14 8.81 2.57 1.77 11.19L41 166.14z" class="x"/><path d="m66.01 252.88 5.6 28.67 34.07 12.14 35.06-17.23-6.16-35.26-15.85-4.33L85.74 243l-19.73 9.88z" class="bi"/><path d="m80.75 241.86 2.42 6.95-2.27 1.21-2.72-6.35 2.57-1.81zM71.38 246.69l3.17-1.66 3.02 7.1-3.02 1.06-3.17-6.5z" class="t"/><path d="m71.61 281.55 4.58 65.96 73.21-4.88-8.66-66.17-69.13 5.09z" class="am"/><path d="m57.48 226.53 13.9 34.24-6.89 14.8-10.67-1.89-8.92-20.37 12.58-26.78z" class="bk"/><path d="m73.95 267.09 10.37 13.52-2.26 10.85-9.52 3.54-11.41-4.62 3.36-14.81 9.46-8.48z" class="z"/><path d="m71.38 260.77-17.56 12.91 7.31 16.7 12.82-23.29-2.57-6.32z" class="am"/><path d="m115.98 313.51 50 .65 12.64 12.69-69.65-5.91 7.01-7.43z" class="aa"/><path d="m114.85 307.02 45.81 31.01 14.79-2.58-62.96-37.16 2.36 8.73z" class="bo"/><path d="m104.27 307.46 11.71 6.05-6.64 11.36-12.28-1.11-7.09-13.6 14.3-2.7zM114.41 290.38l-13.86-.93-6.2 11.21 4.68 2.6 15.82 3.76-.44-16.64z" class="ae"/><path d="m90.9 289.19 9.65.26 8.42 6.66-3.06 4.65-11.56-2.47-3.45-9.1zM104.27 307.46l2.47 8.92-5.21 2.72-7.18-9.09 9.92-2.55z" class="af"/><path d="m90.9 289.19 13.37 18.27-19.72 7.89-3.9-17.06 1.64-7.91 8.61-1.19z" class="z"/><path d="m90.9 289.19-10.25 9.1-8.11-3.29 11.78-14.39 6.58 8.58zM133.41 316.36l2.35-1.44 2.34 2.19-2.95 1.74-1.74-2.49z" class="t"/><path d="m104.95 244.42 57.58-12.7 46.92 14.74-14.73 17.23-56.9 7.25-32.87-26.52z" class="bg"/><path d="m122.86 254.62-1.63-13.79 6.79-6.93 15.58 12.12-14.53 14.73-6.21-6.13z" class="l"/><path d="m122.86 254.62 2.34-11.33 6.05 4.72-2.18 4.8-.85-4.26-2.19-.54-1.28 8.42-1.89-1.81z" class="bq"/><path d="m128.02 233.9 34.23-6.44 15.19 8.95-21.12 11.51h-19.41l-8.89-14.02z" class="at"/><path d="m129.07 260.75 9.51 2.03 35.69-14.23 3.17-12.14-40.53 11.51-7.84 12.83z" class="ac"/><path d="m132.42 262.78 10.36-8.16 9.17 6.13-3.41 6.56-11.63 6.26-4.49-10.79z" class="l"/><path d="m142.78 254.62 41.96-11.33 5.67 13.14-41.87 10.88-5.76-12.69z" class="at"/><path d="m104.95 244.42-1.54 34.78 39.31 12.34 7.34-12.75-3.57-16.01-41.54-18.36z" class="bw"/><path d="m142.72 291.54 58.57-16.03 8.16-29.05-62.96 16.32-3.77 28.76z" class="bu"/><path d="m122.75 261.08-1.02 5.78-6.01-2.61-.79 5.56 5.89 2.26-.68 5.67 4.53 1.47 1.02-5.32 6.12 2.38 1.02-5.56-6.46-2.49.8-5.67-4.42-1.47z" style="fill:#f5f9fb;stroke-width:0"/><path d="m162.25 292.3 19.86-11.54-1.68-14.2-15.18 4.05-3 21.69z" class="z"/></g><g id="h"><path d="m335.88 233.88-9.13-1.47.6 23.82 33.45-1.62 7.8-5.28-3.87-9.18-18.16-2.15-10.69-4.12z" class="bj"/><path d="m316.17 196.43 12.21 2.53L346.57 238l-19.22 18.23-11.18-32.7v-27.1z" class="az"/><path d="m314.29 335.05-1.09 13.46 8.13 15.42 7.34 1.42 3.42-3.23-1.66-19.8-16.14-7.27zM284.46 330.81l5.79 18.44-1.78 21.12-9.28 3.06-2.07-4.18-6.78-26.68 4.42-29.6 9.7 17.84z" class="w"/><path d="m332.09 362.12 10.16 9.37-9.77 10.86-11.9-1.65.75-16.77 10.76-1.81zM288.47 370.37l6.95 18.4-12.22 1.83-12.11-1.83 6.03-19.52 11.35 1.12z" class="ci"/><path d="m330.43 342.32-17.23 6.19-4.33-7.15 11.25-1.07 10.31 2.03zM270.34 342.57l19.91 6.68 1.17-13.91-7.67-.29-13.41 7.52z" class="bs"/><path d="m330.1 227.49-23.81-19.18-14.79-14.58-21.18 8.69 1 39.72 4.76 9.99-8.68 7.79-4.6 10.97-6.62 15.93 28.23-.09h34.41l5.6-19.69-2.85-16.28 11.67-16.28-3.14-6.99z" class="ab"/><path d="m271.32 242.14-3.92 17.78 57.02 7.12 8.82-32.56-61.92 7.66zM309.98 281.64l-10.26 29.09-32.71 18.71-10.83-42.62 19.55-1.94 34.25-3.24z" class="aq"/><path d="m309.98 281.64 13.28 11.32 5.89 31.13-6.5 13.28-52.31 5.2-3.33-13.13 42.97-47.8z" class="az"/><path d="m270.34 342.57 58.81-18.48 1.28 18.23-60.09.25z" class="aq"/><path d="m309.98 281.64.83 8.49 5.59 5.73 12.75 28.23-4.73-57.05-14.44 14.6z" class="aq"/><path d="m316.17 196.43-24.67-2.7-7.09 38.68 21.67-10.24 24.02 5.32-13.93-31.06z" class="be"/><path d="m372.21 112.37 16.43 16.09-19.18 17.1-.65-17.02 3.4-16.17z" class="cj"/><path d="m286.19 94.32-6.3-7.33-5.7-17.91 72.37-15.14-.77 18.23-1.9 13.33-31.36 9.23-26.34-.41z" class="ab"/><path d="m346.56 53.94 37.47 27.81-11.82 30.62-17.19-11.94-11.13-14.93 2.67-31.56z" style="fill:#94d5d5;fill-rule:evenodd;stroke-width:0"/><path d="m274.19 69.08-4.08 38.74 10.37-5.69 5.71-7.81-12-25.24z" style="fill:#1e7678;fill-rule:evenodd;stroke-width:0"/><path d="m345.99 60.69-3.33.51-.88 7.17-6.46 1.05-.09 5.02 5.79-.8.04 6.97 3.25-.09 1.48-8.35.2-11.48z" class="ci"/><path d="m345.99 60.69 2.79 2.36-.33 6.41 4.25 4.01-.04 4.51-4.23-3.26-.57 7.84-3.55-2.04 1.68-19.83z" style="fill:#318fa6;fill-rule:evenodd;stroke-width:0"/><path d="m372.21 112.37-6.43 77.51-38.57-1.84-20.02 10.66-22.58-25.79-16.71-24.55 16-4.88 2.82 4.92 20.86-31.17 13.88-4.81 16.63-3.58 34.12 3.53z" class="bj"/><path d="m307.58 117.23-5.08 70.22 24.71.59-8.97 5.55.21 7.94-12.75 19.65-27.3-52.77-1.41-6.41-3.4-2.91-8.57-16.55 16.91-9.14 3.47 16.29 7.84-13.02 14.34-19.44zM361.81 130.78l-17.76 16.1-8.5 7.46-15.36-25.54 9.21-3.92 7.31 2.73.39 1.99 5.09 3.82 2.84-3.44.39-1.92 7.25-1.36 9.14 4.08z" class="w"/><path d="m343.59 154.9-4.49 4.5-3.55-5.06 4.84-2.98 3.2 3.54zM327.21 188.04l-8.76 13.49-23.08-15.5 31.84 2.01zM284.02 155.25l-5.61 13.16-4.82-9.31 10.43-3.85zM281.49 152.3l-3.21-9.82-7.61 2.55 10.82 7.27z" class="bs"/><path d="m334.7 115.19 7.6-14.21 1.59-15.48-57.7 8.82-32.16 26.83 26.94-.58 26.61-3.34 11.78-.88 15.34-1.16z" class="cj"/><path d="m307.58 117.23-21.68 34.36-4.87-13.94-16.01 4.89-10.99-21.39 53.55-3.92z" class="bv"/><path d="m343.89 85.5 28.32 26.87-37.51 2.82 9.19-29.69z" style="fill:#5f6878;fill-rule:evenodd;stroke-width:0"/><path d="m336.71 127.61-.57-4.3-8.1-.15-7.85 5.64 8.57-2.16 7.95.97zM345.42 128.06l7.16.24 9.23 2.48-7.11-5.73-8.53-1.24-.75 4.25z" class="cj"/><path d="M287.82 381.66h-9.01l-7.72 7.11v2.9h24.33v-2.9l-7.6-7.11zM342.25 371.49l-13.1 9.21h-8.57v2.79h34.78v-6.31l-13.11-5.69z" class="ch"/><path d="M331.9 140.95a3.77 3.77 0 0 1-4.45 2.91c-2.03-.43-3.33-2.42-2.91-4.45s2.42-3.33 4.45-2.91 3.33 2.42 2.91 4.45ZM355.59 142.08c-.43 2.03-2.42 3.33-4.45 2.91s-3.33-2.42-2.91-4.45 2.42-3.33 4.45-2.91 3.33 2.42 2.91 4.45Z" class="bv"/><path d="m337.1 129.55-1.55 24.79 8.04.56 1.45-25-7.94-.35z" style="fill:#e8cab6;fill-rule:evenodd;stroke-width:0"/><path d="m352.29 168.42-14.92-1.17-14.9-1.31 10.36 6.45 7.75.7 11.71-4.67z" class="be"/><path d="m322.47 165.94 15.79-1.47 14.03 3.95-15.25.19-14.57-2.67z" style="fill:#1c7678;fill-rule:evenodd;stroke-width:0"/><path d="m322.47 165.94 14.25 10.82 15.57-8.34-12.07 3.27-5.96-.64-11.79-5.11z" class="az"/><path d="m372.23 229.93-18.61 14.39 4.74 11.91h8.61l10.19-11.91.32-4.17-5.25-10.22z" style="fill:#efd3c2;fill-rule:evenodd;stroke-width:0"/><path d="m353.62 244.32-1.71 15.72 11.74 4.81 3.32-8.62-13.35-11.91z" style="fill:#d0af96;fill-rule:evenodd;stroke-width:0"/><path d="m372.22 248.19 5.26-8.04 16.1 1.65-3.79 12.43-13.9-1.06-3.67-4.98z" class="bj"/><path d="m366.97 256.23 5.25-8.04 17.57 6.04-22.82 2z" class="w"/><path d="m270.32 202.42-11.16 16.14-1.29 33.95 22.17 3.93-9.72-54.02z" class="az"/><path d="m305.13 272.28 4.85 9.36-6.27 6.24-10.11 1.54-7.19-12.56 11.79-13.09 6.93 8.51z" style="fill:#67acc3;fill-rule:evenodd;stroke-width:0"/><path d="m309.98 281.64 6.42 14.22-8.85 2.18H294.7l-1.1-8.62 16.38-7.78z" style="fill:#a0cbd9;fill-rule:evenodd;stroke-width:0"/><path d="m257.87 252.51 31.14-2.99 4.59 7.12-6.31 5.77-24.73 9.06-4.69-18.96z" class="bj"/><path d="m289.01 249.52 6.36-5.2 10.71 3.56-7.92 6.35-9.15-4.71z" class="bj"/><path d="m289.01 249.52 5.69 1.24 11.38-2.88 3.9 12.33-4.85 12.07-17.84-9.87 1.72-12.89z" class="w"/><path d="m306.08 247.88 11.53 5.13-1.44 13-11.04 6.27.95-24.4z" class="bj"/><path d="m306.08 247.88-8.42 28.98-6.24 4.78-15.69 3.24 13.28-35.36 17.07-1.64z" class="al"/><path d="m297.66 276.86 9.89 21.18-9.39 7.81-9.15-.5-13.28-20.47 21.93-8.02z" style="fill:#b3d5e1;fill-rule:evenodd;stroke-width:0"/><path d="m307.55 298.04-3.52 26.05-19.62-2.45 4.6-16.29 18.54-7.31z" class="al"/></g><g id="i"><path d="m769.09 387.11 11.68-1.85-15.36-3.12 3.68 4.97z" class="ae"/><path d="m764.22 371.58 4.87 15.53-5.78.82-8.84-17.82 9.75 1.47z" class="u"/><path d="m742.69 371.77 19.6-6.35 1.93 6.16-25.84 6.58 4.31-6.39z" class="ae"/><path d="m678.58 381.65-3.48 10.41 6.01 2.15 1.09-8.2-1.09-3.36-2.53-1z" class="bu"/><path d="m699.58 380.33-7.71 2.52-5.82-2.69 1.67-3.31 5.33-2.8 6.53 6.28z" class="ac"/><path d="m725.23 390.47-2.66 7.9h-7.14l5-9.21 1.14-2.05 3.66 3.36zM742.69 392.06l-2.84 9.97h-7.53l5.53-12.05 4.84 2.08z" class="bu"/><path d="m684.16 370.11 16.07 13.53 20.2 5.52 4.8-1.98 3.17-12.58-44.24-4.49z" class="cg"/><path d="m681.11 364.55-17.12-5.63-.15-4.3 3.8-1.54 6.63-.98 6.84 3.95v8.5z" class="bq"/><path d="M674.27 352.1v-7.67l6.34-1.95 13.45 5.26-8.91 5.53-10.88-1.17z" class="ay"/><path d="m694.06 347.74 1.97 13.6-1.97 4.76-9.9 4.01-9.89-18.01 19.79-4.36z" class="cg"/><path d="m662.18 353.89 1.81 5.03 3.65-5.84-5.46.81z" class="bw"/><path d="m674.27 352.1-6.63-12.2 8.29-7.57 4.68 10.15-6.34 9.62zM694.06 347.74l6.17-7.9-4.98-8.82-8.57 9.19 7.38 7.53z" class="ae"/><path d="m696.03 361.34 25.46-4.02 10.6 7.23 2.93 10.5-13.87 5.94-36.99-10.88 11.87-8.77z" class="ay"/><path d="m732.09 364.55-10.94 16.44 7.25 5.54 8.96.43 5.33-15.19-10.6-7.22z" class="ac"/><path d="m721.15 380.99-.72 8.17 4.8 1.31v-3.29l-4.08-6.19z" class="ag"/><path d="m721.15 380.99 4.08 9.48 17.46 1.59-5.33-5.1-16.21-5.97z" class="bc"/><path d="m700.23 383.64 6.91-6.77 2.45 19.83-2.51 1.76-2.17-2.89-4.68-11.93z" class="ac"/><path d="m704.91 395.57-5.86 8.21h6.75l3.79-7.08-4.68-1.13z" class="bu"/><path d="m678.58 381.65 1.24-.66h1.95l.43-1.25 5.52-2.89 4.15 6-1.3.43-2.34-.43-.33 1.3-5.7 1.86-3.62-4.36z" class="ap"/><path d="m685.22 378.16 5.35 5.12-2.67.87-2.68-5.99zM682.2 379.74l3.85 5.01-6.23-3.76 2.38-1.25z" class="ak"/></g></svg>