<svg xmlns="http://www.w3.org/2000/svg" id="a" viewBox="0 0 900 350"><defs><style>.j{fill:#576071}.aa,.ab,.ac,.ad,.ae,.af,.ag,.ah,.aj,.ak,.al,.am,.an,.ap,.aq,.at,.au,.av,.ax,.ay,.az,.ba,.bb,.bc,.be,.bf,.bg,.bh,.bi,.bj,.bk,.bm,.bo,.bp,.bq,.br,.bs,.bu,.bv,.bw,.bx,.by,.bz,.cb,.cc,.ce,.cf,.cg,.ch,.ci,.cj,.j,.l,.p,.q,.r,.s,.t,.u,.v,.w,.x,.z{stroke-width:0}.ab,.al,.aq,.az,.be,.bj,.bs,.bv,.ch,.ci,.cj,.w{fill-rule:evenodd}.bf{fill:#67acc3}.l{fill:#4b9db7}.bh{fill:#e8cab6}.p{fill:#1d2432;opacity:.1}.q{fill:#545c6d}.ab,.r{fill:#72cbcc}.s{fill:#d0af96}.t{fill:#4298b4}.u{fill:#359496}.v{fill:#317186}.af,.w{fill:#c3987b}.bs,.x{fill:#8b6651}.bj,.z{fill:#dfbda5}.aa{fill:#8dc1d2}.ac{fill:#7bb7ca}.ad{fill:#9a9fa9}.ae{fill:#4fa9aa}.ag{fill:#2e6a7d}.ah{fill:#eeeff1}.bw{fill:#5f6878}.aj{fill:#185e60}.ak{fill:#abafb8}.al,.cf{fill:#d9eaf0}.am{fill:#347990}.an{fill:#454d5d}.ap{fill:#cccfd4}.aq{fill:#369496}.at{fill:#b3d5e1}.au{fill:#ecf4f7}.av{fill:#bbbfc6}.ax{fill:#2e3544}.ay{fill:#a0cbd9}.az{fill:#50a9aa}.ba{fill:#dddfe2}.bb{fill:#404857}.bc{fill:#3e90aa}.be{fill:#fff}.bg,.cj{fill:#4b5464}.bi{fill:#2a6275}.bk{fill:#245362}.bm{fill:#3b88a1}.by{fill:#1e7678}.bo{fill:#c6e0e8}.bp{fill:#a9846c}.bq{fill:#388199}.br{fill:#5f5044}.bu{fill:#787f8d}.bv,.cb{fill:#232a38}.bx{fill:#8e7e73}.bz{fill:#3d4554}.ce{fill:#efd3c2}.cc{fill:#74665b}.cg{fill:#55a2bb}.ch{fill:#3aa0ba}.ci{fill:#27788c}</style></defs><g id="b"><path d="m31.07 282.39 41.05-9.63 123.11-10.9 181.38 14.2 3.69 13.28-92.75 11.49-9.76-8.09-7.05 10.82-51.44 2.29-22.81-2.29-15.49 7.79-31.4 5.53-21.02-6.5-7.81 6.5-51.02-6.5 11.89-12.32-50.57-15.67zM288.27 316.88l105.05-8.13 33.3 5.58 35.5-9.72 87.48 10.31-24.78 7.42-42.12 8.77-52.62-8.57-95.71 7.57-46.1-13.23zM531.62 308.61l20.61-6.95 42.09-8.92 76.82 12.62-28.07 14.15-54.33 2.83-57.12-13.73zM685.03 322.34l25.22-4.59 18.8 2.45 25.69 5.34-43.41 8.14-38.49-5.05 12.19-6.29zM749.96 300.33l47.84-10.54 34.37 6 43.6 7.29-30.39 9.56-62.89 5.81-32.53-18.12z" class="p"/></g><g id="c"><path d="m380.3 289.34-10.53-1.18-11.96-26.3 22.49 1.28v26.2z" class="q"/><path d="m74.45 287.16 14.1-2.22 10.24-34.65-24.34 2.08-9.32 9.49 9.32 25.3z" class="bw"/><path d="m270.74 303.56-13.36-2.01-5.83-26.15-175.8-15.26-1.3 27.02-17.18-3-4.35-48.81 172.59 12.16 59.7 4.86-14.47 51.19z" class="q"/><path d="m400.68 240.77-4.97 46.67-15.41 1.9-5.8-22.26-81.86 11.24-5.09 22.51-16.81 2.73 5.15-45.52 23.88-10.53 85.94-12.16 14.97 5.42z" class="bw"/><path d="m413.84 226.34-1.91 17.26-136.04 14.44-13.4-29.27 151.35-2.43z" class="ac"/><path d="M275.89 258.04 38.51 241.05l-2.56-19 73.31-2.1 142.29 11.89 26.24 11.63-1.9 14.57z" class="bf"/><path d="m35.95 222.05 197.41-25.15 144.9 23.61 35.58 5.83-136.05 17.13-241.84-21.42z" class="at"/><path d="m265.55 229.53 29.11-1.28-2.36-10.51-40.75-11.24-29.53 16.98 43.53 6.05zM67.31 220.68l21.49.5-5.65-3.91-13.4.47-11.13 1.42 8.69 1.52z" class="p"/><path d="m203.14 154.95 56.3-5.88 3.27 24.26H223.9l-20.76-18.38z" class="q"/><path d="m315.84 154.95-51.47-5.24-6.44 22.21 35.35-1.69 22.56-15.28z" class="q"/><path d="m243.66 150.03 11.91 3.35 5.42 9.54-17.33 5.06v-17.95z" class="au"/><path d="m246.53 154.43-3.25-3.63-4.69.45-8.91 11.67 13.98 5.06 2.87-13.55z" class="ay"/><path d="m255.57 153.38-3.25-9.38-6.75.67.96 9.76 9.04-1.05z" class="v"/><path d="m238.59 151.25 2.01-7.58 5.86.38 1.07 1.86-1 8.52-7.94-3.18z" class="bi"/><path d="m240.6 143.67 6.25-1.84 5.47 2.17-4.79 1.91-6.93-2.24z" class="bq"/><path d="m297.32 150.89 5.56 11.01-14.08 2.59-1.15-13.79 9.67.19z" class="au"/><path d="m289.95 153.38-2.77-3.35-6.03 1.39-4.51 11.92 12.16 1.15 1.15-11.11z" class="ay"/><path d="m297.32 150.89-1.72-7.75-8.33.76 2.68 9.48 7.37-2.49z" class="v"/><path d="m288.8 144.67-.48-1.25h-5.78l-1.39 8 8.8 1.96-1.15-8.71z" class="bi"/><path d="m282.54 143.42 5.98-1.24 7.08.96-6.8 1.53-6.26-1.25z" class="bq"/><path d="m277.22 142.91 9.43 20.43-19.92 4.64-4.02-15.36 3.64-11.11 10.87 1.4z" class="au"/><path d="m268.61 145.4-3.12-4.08-5.07 1.91-10.15 21.26 16.46 3.49 1.88-22.58z" class="ay"/><path d="m277.22 142.91-1.77-10.02-8.81 1.06 1.97 11.45 8.61-2.49z" class="by"/><path d="m268.21 134.71-.42-1.15-5.98-.9-1.39 10.57 8.19 2.17-.4-10.69z" class="aj"/><path d="m261.81 132.66 7.41-.92 6.23 1.15-7.24 1.82-6.4-2.05z" class="ae"/><path d="m267.22 162.17 22.88 2.7 25.74-9.92-2.76 46.63-42.88 10.82-10.76-35 7.78-15.23z" style="fill:#89909b;stroke-width:0"/><path d="m267.22 162.17-37.54 1.97-26.54-9.19 4.36 47.35 62.7 10.1-2.98-50.23z" style="fill:#68707f;stroke-width:0"/><path d="m267.22 162.17-13.49 11.16-39.85-5.35-10.74-13.03 64.08 7.22z" class="ad"/><path d="m315.84 154.95-10.81 13.03-28.39 6.1-9.42-11.91 48.62-7.22z" class="ak"/><path d="m282.4 188.44 55.77-4.7-4.09 38.87-39.42 5.64-9.45-22.19-2.81-17.62z" class="v"/><path d="m291.94 192.89-6.73-6.77-46.47-.75 2.81 36.43 25.82 3.14 2.52-2.43 1.85 2.96 22.92 2.78-2.72-35.36z" class="bi"/><path d="m238.74 185.37 49.03-9.04 18.37 2.7-.44 1.35 5.55-.6 26.92 3.96-46.23 9.15-53.2-7.52z" class="bq"/><path d="m306.14 179.03-41.37 10.02 1.93 3.08 4.04-2.23 40.51-10.12-5.11-.75z" class="ag"/><path d="m264.77 189.05 2.6 35.89 4.37.53-1-35.57-5.97-.85z" class="bk"/><path d="m280.63 197.6 2.73.38.72 9.43-3.16-.38-.29-9.43z" class="r"/><path d="m277.52 200.81 9 1.15.24 2.15-8.81-.91-.43-2.39z" class="r"/><path d="m101.39 179.77 3.29 38.5-15.88 2.91-3.06-41.99 15.65.58z" class="ac"/><path d="m74.26 181.03-1.36 11.04 2.22 4.2-3 2.13-2.37 19.34 19.05 3.44.66-20.7-2.85-3.58 3.06-2.84.38-11.94-5.45-2.93-10.34 1.84z" class="cg"/><path d="m89.67 194.06-16.77-1.99-.78 6.33 17.34 2.08.21-6.42z" class="am"/><path d="m101.39 179.77-6.45-9.71-7.33-.46-1 8.52 3.44 4 11.34-2.35z" class="ay"/><path d="m88.79 171.92-2.8-1.86h-4.35l-7.38 10.97 15.79 1.09-1.26-10.2z" class="ac"/><path d="m94.94 170.06-1.88-9.25-7.07.98 2.8 10.13 6.15-1.86z" class="by"/><path d="M87.61 162.13v-1.02l-4.46.09-1.51 8.86 7.15 1.86-1.18-9.79z" class="aj"/><path d="m83.15 161.2 5.13-1.11 4.78.72-5.45 1.32-4.46-.93z" class="ae"/></g><g id="d"><path d="m702.56 70.92 8.04 24.37 11.5-4.92-2.78-10.81-16.76-8.64z" class="bq"/><path d="m729.21 78.13-13.04-6.06-13.61-1.15 16.76 20.53 9.89-13.32z" class="bf"/><path d="m765.3 281.66 17.37 5.78-6.41-18.03-10.96 12.25z" class="an"/><path d="m840.79 217.89 19.91 9.83-6.36 8.49-17.86-2.02 4.31-16.3z" class="bw"/><path d="m802.64 264.1-4.84 25.69 6.08 9.13 8.88-3.77 6.33-20.81 2.36-7.28-18.81-2.96z" class="bm"/><path d="m807.26 272.17 14.19-5.11-7.52-9.83-11.29-1.21 4.62 16.15z" class="aa"/><path d="m785.59 225.77-4.36 21.18 8 20.01 18.03 5.21 7.87-17.63-7.28-16.81-22.26-11.96z" class="l"/><path d="m853.85 272.23-6.23 29.75-7.94 3.38-7.51-9.57 3.26-17.97-1.63-6.43 20.05.84z" class="bm"/><path d="m835.43 277.82 18.42-5.59-21.68-7.27 3.26 12.86z" class="aa"/><path d="m785.59 225.77 23.6 28.77 18.1-10.2 13.5-26.45-31.79-4.81-23.41 12.69z" class="cc"/><path d="m759.13 149.24-15.86 44.31 13.84 10.3 15.51-20.53-13.49-34.08z" class="ag"/><path d="m754.81 182.09 30.78 43.68 12.21-7.88 15.25 3.96 27.74-3.96-8.62-51.36-77.36 15.56z" class="bm"/><path d="m759.59 145.78-4.78 36.31 22.39 6.52 1.43-5.29 6.63 7.64 39.83-10.08 7.08-14.35-10.72-23.8-26.43-4.04-11.11 1.22-24.32 5.87z" class="bf"/><path d="m770.32 147.06 16.61-2.32 8.09-6.05v-16.07l-12.96-11.17-9.63 14.63-2.11 20.98z" class="am"/><path d="m786.93 144.74-14.76-16.07-1.85 18.39 8.04 4.09 8.57-6.41z" class="ag"/><path d="m721.3 141.1-4.6 10.05-4.79-13.63 4.7-.8 4.69 4.38z" class="bo"/><path d="m710.6 95.29 18.61-17.16 46.73 12.24-15.77 21.08-17.94 4.2-31.63-20.36z" class="ay"/><path d="m742.23 115.65 5.64 13.02 16.32-1.2 17.87-16.02-6.12-21.08-33.71 25.28z" class="ac"/><path d="m747.87 128.67-5.64 11.26 8.75 4.81 19.34 2.32 11.74-35.61-34.19 17.22z" class="bm"/><path d="m746.32 139.14-25.02 1.96 5.74 14.37 43.28-8.41-24-7.92z" class="am"/><path d="m712.22 104.32 2.95 18.3 14.84 6.48 17.86-.43 9.24-19.15-9.58-7.98-7.66 3.46-6.02 3.32-2.79-5.77-15.95-5.66-2.89 7.43z" class="bf"/><path d="m729.06 102.55-.74 11.32 2.74 3.58 5.3-1.8 4.87-11.72-12.17-1.38z" class="ay"/><path d="m710.6 95.29 19.79-1.72 4.23 9.61-22.4 1.14-1.62-9.03zM743.99 95.3l-9.37 7.88 22.49 6.34 2.48-6.89-15.6-7.33z" class="j"/><circle cx="745.94" cy="113.11" r="2.78" class="ax"/><circle cx="722.1" cy="109.76" r="2.78" class="ax"/><path d="m741.23 140.12-.91 4.62-4.6 2.32-2.6-5.37 2.6-3 5.51 1.43z" class="bo"/><path d="m715.17 122.62 21.54 3.41 11.16 2.64-1.55 10.47-19.85 3.84-1.6-2.16-3.55.23-9.41-3.53 3.26-14.9z" class="ac"/><path d="m728.32 113.87-13.15 8.75 8.9 4.18 12.64-.77-.35-10.38-8.04-1.78z" class="bo"/><path d="m726.47 142.98-.38-7.09-4.79 5.21 5.17 1.88z" class="bc"/><path d="m715.17 122.62 10.92 13.27 10.62-9.86-21.54-3.41z" class="j"/><path d="m778.36 151.15 6.9 39.81-8.06-2.35 1.16-37.46z" class="t"/><path d="m785.26 190.96.33 34.81 27.46-3.92-27.79-30.89z" class="ag"/><path d="m757.11 203.85-8.92-24.05-5.96-1.2-4.06 3.49-1.99 17.33 20.93 4.43z" class="bq"/><path d="m809.19 254.54 9.9 19.8 16.34 3.48 9.95-44.68-4.59-15.25-31.6 36.65z" class="bf"/><path d="m724.87 168.06 2.17-12.59 6.08-3.11 3.41 1.27 5.7-2.48 3.58.68-1.15 17.97-9.32 1.26-10.47-3z" class="ay"/><path d="m736.53 153.63-1.19 17.43-3.23-.93 4.42-16.5z" class="t"/><path d="m748.19 179.8-3.53-10-19.79-1.74 13.3 14.03 10.02-2.29z" class="bf"/><path d="m727.04 155.47 5.07-8.16 4.42 6.32-9.49 1.84z" class="an"/><path d="m745.81 151.83-3.58-5.53-5.7 7.33 9.28-1.8z" class="an"/><path d="m795.02 138.69 15.54-1.97.74-8.21-10.94-21.53-5.34-4.43-12.96 8.9 12.96 27.24z" class="v"/><path d="m811.3 128.51 27.38 7.38-6.51 19.58-10.72-6.23-26.43-10.55 16.28-10.18z" class="bm"/><path d="m821.45 149.24 3.64 31.64 4.3 13.02h22.12l-12.83-58.01-17.23 13.35z" class="ag"/><path d="m825.09 180.88-17.81 22.97 1.72 9.23 8.28 4.54 34.23-23.72-26.42-13.02z" class="am"/><path d="m854.34 236.21-51.7-25.93-19.97 11.35 57.94 32.91 13.73-18.33z" class="an"/><path d="m802.64 210.28-29.32-1.92-25.89 23.08 21.87 13.42h17.98l15.36-34.58z" class="j"/><path d="m787.28 244.86 1.95 22.1h-8l-6.98-5.41-26.82-30.11 39.85 13.42z" class="an"/><path d="m789.23 266.96-23.93 14.7 8.95-20.11 14.98 5.41z" class="j"/><path d="m763.56 223.27 13.7 10.14 5.41-3.85-15.16-8.67-3.95 2.38z" class="ay"/><path d="m762.81 230.53 13.25-10.64 5.17 2.62-13.68 11.63-4.74-3.61z" class="bo"/><path d="m807.28 203.85-14.43 12.57 6.3 9.35 12.74.84 5.39-8.99-10-13.77z" class="bf"/><path d="m792.85 216.42.64 14.45 5.66 2.1 1.58-1.62 1.58 2.79 6.88 2.55 2.7-10.08-19.04-10.19z" class="ay"/><path d="m802.24 221.45-3.09 11.52 3.16 1.17-.07-12.69z" class="t"/><path d="m797.8 289.79-7.41 9.13-3.03 6.44 4.79 1.53h3.16l4.12-2.68 2.88 2.68h6.88l3.57-11.74-14.96-5.36zM832.17 295.79l-5.94 8.42-1.77 6.51 4.17 1.92h3.54l3.54-1.15 3.4 1.15h6.27l2.24-10.66-15.45-6.19z" class="bf"/><path d="m792.15 306.89-1.76-7.97-6.48 7.97h8.24zM802.31 306.89l-1.58-7.97-5.42 7.97h7zM820.3 312.64l5.93-8.43 2.4 8.43h-8.33zM832.17 312.64l5.36-7.28 1.58 7.28h-6.94zM736.68 92.37l-7.47-14.24L743.16 66l29.95 1.91v6.55l9.56.26.86 6.12 5.59 5.88-13.18 3.65-27.23 1.39-2.97-3.04-9.06 3.65z" class="j"/><path d="m775.94 90.37 6.73-15.65 19.64 14-26.37 1.65zM773.11 67.91l-18.3 23.54 27.86-16.73-9.56-6.81zM736.68 92.37l18.13-25.63-6.1 25.02-12.03.61z" class="an"/><path d="m775.94 90.37 25.5-19.45 3.62 19.45-23 21.08-6.12-21.08z" class="bf"/><path d="m801.44 70.92-19.38 40.53 18.3-4.47 13.49-25.89-12.41-10.17z" class="bq"/></g><g id="e"><path d="m562.79 216.74 8.41 40.71 11.75 19.71 20.21-9.29 6.03-13.33-11.57-22.79-34.83-15.01z" class="by"/><path d="m562.79 216.74 34.74 32.88 16.83-2.2 21.75-24.49-16.54-13.24-56.78 7.05z" class="aj"/><path d="m597.53 249.62 5.63 18.25 18.91 13.5L635 264.78l4.46-39.01-7.93-2.29-12.87 9.9-21.13 16.24z" class="ae"/><path d="m603.16 267.87 31.84-3.09-2.24 19.63-8.19 6.45-17.67-10.89-3.74-12.1z" class="u"/><path d="m568.18 136.96-19.58 41.11 21.73 15.78 3.62-22.97-5.77-33.92z" class="bi"/><path d="m585.77 133.15-17.59 39.25 31.72 10.92 32.53-5.87 3.41-28.39-2.46-10.37-7.56-1.29-40.05-4.25z" class="q"/><path d="m568.18 172.4-3 44.35 70.93 6.18-3.68-45.48-64.25-5.05z" class="an"/><path d="m655.89 142.37-22.51-3.68-2.39 16.78-10.73 21.03 10.73 7.24 12.76-3.27 12.14-38.1z" class="bq"/><path d="m620.26 176.5-.94 44.97 20.14 4.3 4.29-45.3-23.49-3.97z" class="v"/><path d="m585.77 133.15-.62 4.46-6.51 20.62 1.47 15.11-7.49 7.54-7.44-8.48 3-35.44 17.59-3.81z" class="bq"/><path d="m580.11 173.34-1.89 44.55-15.43-1.15 2.39-44.34 14.93.94z" class="v"/><path d="m542.45 32.86 8.53 38.83 7.52 14.55-1.96 10.79 3.21 4.51-1.46 3.46 2.09 9.5 2.59 1.91-2.8 2.18-.9 18.02 37.18 1.44 9.93 6.69 16.42-11.88 2.37-34.12 7.13-2.16 1.08-8.43-9.72-4.75-15.55-47.08-65.66-3.46z" class="z"/><path d="m601.96 141.1 6.15-2.62 1.08-102.16 20.09 47.51 9.28-.64-1.94 18.57-7.78-.65-1.88 2.85 1.02 7.49-2.16 25.95-20.95 11.66-2.91-7.96zM553.48 83.09l10.14-2.28 6.04 2.28 5.19 5.38 6.05-5.07 8.42-1.94 13.82 3.67-14.47 12.09-5.61-3.45-3.89 7.77-10.37-10.36-12.26 5.85-3.06-13.94zM599.9 96.36l-9.07 7.34 6.26 1.3 2.81-8.64zM556.54 97.03l6.43 5.41-4.68 2.56-1.75-7.97z" class="af"/><path d="m569.66 83.09 11.24.31-1.73 18.14-5.39 1.95-5.41-2.38 1.29-18.02zM570.33 77.97l-19.35-6.28-2.38 7.68 7.94 2.74 13.79-4.14zM580.11 78.13l16.34-5.1 7.25 7.85-11.68 1.06-11.91-3.81z" class="bh"/><path d="m568.37 101.11 5.4 5.69 5.4-5.26-10.8-.43zM560.38 114.5l13.39-3.05 15.28 4.86-1.14 3.54-14.14-4.99-13.6 3.73.21-4.09zM596.45 138.05l11.66.43 11.21-5.33-14.45 15.91-8.42-11.01zM628.84 101.11l-7.87-.61 7.01 10.95.86-10.34zM626.34 96.68l.62-7.86 7.24-.1-7.86 7.96z" class="x"/><circle cx="587.84" cy="88.79" r="2.07" class="cb"/><circle cx="563.11" cy="88.31" r="2.07" class="cb"/><path d="m545.79 48.08-3.34-15.22 37.81-12.12 54.76 2.34-7.85 51.38-4.55-2.77-13.51-28.31-36.7 10.01-26.62-5.31z" class="by"/><path d="m609.11 43.38 6.15-18.77 19.76-1.53-5.74 60.75-9.96 1.51V64.76L613.89 63l-4.78-19.62z" class="aj"/><path d="m549.36 84.36 20.3-1.27.67-5.12-21.73 1.4.76 4.99zM580.9 83.4l22.24 1.73.56-4.25-23.59-2.75.79 5.27z" class="by"/><path d="m603.14 26.94-6.69 19.89-8.61-18.03 15.3-1.86zM572.41 53.39l3.72-19.13 7.89 15.96-11.61 3.17zM563.11 51.53l-2.94-17.74-6.69 15.82 9.63 1.92z" class="aj"/><path d="m542.45 32.86 33.68 1.4 58.89-11.18-55.85-8.13-36.72 17.91z" class="ae"/><path d="m624.91 25-11.02 38 5.43 22.34L624.91 25z" class="by"/><path d="m608.98 56.55-60.68 2.97L575.86 63l33.12-6.45z" class="af"/><path d="m558.66 57.36 1.1 6.33 3.03.42-.5-7.78-3.63 1.03zM575.86 63l-1.24-6.58-2.57.27.77 7.16 3.04-.85zM588.22 55.5l.74 7.51 2.9-.14.14-7.03-3.78-.34zM627.28 119.84l9.08-.68-2.21 6.92-12.08-1.65 5.21-4.59z" class="cf"/><path d="m622.07 124.43 4.53 3.64 8.94.6.3-4.13-3.08-1.04-10.69.93z" class="ay"/><path d="m636.36 119.16 3.1 4.34-3.92 5.17-2.78-5.17 3.6-4.34z" class="bf"/><path d="m585.15 137.61-13.7 19.4 8.66 16.33 5.04-35.73zM633.38 138.69l4.7 22.53-17.82 15.28 13.12-37.81z" class="aa"/><path d="m640.66 213.08-9.73 10.87-1.07 4.99 7.28 6.08 3.74-13.43-.22-8.51z" class="af"/><path d="m617 183.32 1.66 50.06 5.82-1.77 1.54-3.89.09-47.92-9.11 3.52zM672.84 187.69l-7.19 54.17-8.1-7.02 2.61-3.16 4.43-47.51 8.25 3.52z" class="aa"/><path d="m617 169.8 54.39 3.54 4.96 7.13-59.35-.23V169.8z" class="bx"/><path d="m620.26 176.5 56.09 3.97-3.51 7.22-55.84-4.37-.35-4.87 3.61-1.95z" class="cc"/><path d="m617 169.8-4.91 6.05 4.91 7.47 3.26-6.82-3.26-6.7z" class="br"/><path d="m618.66 233.38 14.5 45.52 2.95 2.2 1.97-3.58-11.97-49.54-7.45 5.4zM665.65 241.86l-20.09 38.41h-3.86v-4.13l15.95-41.95 8 7.67z" class="aa"/><path d="m626.02 227.72 34.14 3.96 5.49 10.18-46.99-8.48 7.36-5.66z" class="at"/><path d="m636.11 286.61 2.45-5.51 7-.83-1.93 30.59-3.53 4.27-3.52-2.77-.47-25.75z" class="aa"/><path d="m633.16 278.9 8.54-2.76 3.86 4.13-9.45 6.34-2.95-7.71z" class="at"/><path d="m636.58 312.36 7.05-1.5-.56 8.65-6.32-.08-.17-7.07z" class="bx"/><path d="m655.89 142.37 11.21 53.85-10.84 4.37-8.52-6.69-9.18-22.7 17.33-28.83z" class="bi"/><path d="m645.27 200.59-4.61 12.49 14.13 4.81 5.3-9.33-5.3-10.9-9.52 2.93z" class="af"/><path d="m647.74 193.9-2.47 6.69 14.82 7.97 7.01-12.34-19.36-2.32z" class="bq"/><path d="m640.66 213.08-7.42 15.48 10.51 5.12 11.21-2.6-.17-13.19-14.13-4.81z" class="z"/><path d="m633.24 228.56.68 10.17 13.78-.11 7.26-7.54-21.72-2.52zM548.6 178.07l30.97 8.06 3.38 11.14-4.14 6.58-15.27-1.03-14.94-24.75zM579.57 186.13l10.2-2.81 7.85 8.1-4.34 2.13-4.27-1.05-9.44-6.37z" class="af"/><path d="m579.57 186.13 18.05 5.29-10.47 19.28-8.34-6.85.76-17.72z" class="z"/><path d="m597.62 191.42 9.69 8.33-8.54 10.22-11.62.73 10.47-19.28z" class="af"/><path d="m571.2 257.45 31.96 10.42-4.2 9.29-9.81 4.21-14.85-8.93-3.1-14.99z" class="aj"/><path d="m609.61 288.74-7.99 20.67 15.77 3.68 15.77-3.68-1.63-14.26-11.7-7.59-10.22 1.18z" class="bw"/><path d="M601.62 309.41h31.55v7.37h-31.55zM606.9 279.97l9.85 1.69 2.77 2.75 2.93-1.77 10.31 1.77-1.23 10.74-21.92-6.41-2.71-8.77z" class="bg"/><path d="m616.75 281.66 5.7.98-.96 9.58-1.66 2.04-2.44-3.24-.64-9.36z" class="ak"/><path d="m617.39 291.02-2.1 9.09 4.99.96 1.21-8.85-4.1-1.2z" class="ba"/><path d="M594.32 287.44v14.22l-17.36 2.38-24.73-2.38 14.35-12.17 12.03-8.05 10.95 2.86 4.76 3.14z" class="bw"/><path d="M594.32 309.03h-10.13l-2.07-3.69-9.92 3.69h-19.97v-7.37h42.09v7.37z" class="bg"/><path d="m594.32 287.44-13.37-4.46-4.2-7.8 2.92-1.71 19.29 3.69-4.64 10.28z" class="bb"/><path d="m574.3 272.44 5.37 1.03 1.28 9.51-3.33 1.22-1.48-2.83-1.84-8.93z" class="ak"/><path d="m580.95 282.98-9.3 8.73-5.07-2.22 9.56-8.12 4.81 1.61z" class="ba"/></g><g id="f"><path d="m455.33 211.38-4.8 76.47 48.23 10.21 45-5.07-13.23-61.38-75.2-20.23z" class="bz"/><path d="m462.37 181.77-21.97 13.7-2.71 7.59 4.46 9.87 13.18-1.55 10.27-9.58-3.23-20.03z" class="ag"/><path d="m462.12 304.61-13.85 9.66 14.62 1.53 14.14-1.53-6.79-10.71-8.12 1.05z" class="j"/><path d="M448.27 314.27h29.25v3.06h-29.25z" class="bz"/><path d="m455.33 211.38 10.27 26.81 13.65 8.09 37.08-16.5-3.95-12.04-25.23-6.36h-31.82z" class="ag"/><path d="m462.37 181.77-7.04 29.61 57.05 6.36 10.49-27.07-22.01-4.55-23.34-4.15-15.15-.2z" class="bq"/><path d="M487.15 201.8 484 214.58l-2.3 3.16-2.45-3.69 3.04-16.19h4.86v3.94z" class="ae"/><path d="m484 214.58 3.15 9.69-5.45 1.47-2.45-11.69 4.75.53z" class="u"/><path d="m470.24 250.29-8.12 54.32 15.4 12.72 14.8 1.95 26.11 3.06 5.99-1.04-5.34-83.11-29.98 3.28-18.86 8.82z" class="bq"/><path d="m470.24 250.29 7.28 67.04 11.58-75.86-18.86 8.82zM501.11 309.68l9.71-70.59-21.72 2.38 12.01 68.21z" class="ag"/><path d="m470.24 250.29 48.84-12.1-2.75-8.41-50.73 8.41 1.63 4.23 3.01 2-1.26 2.58 1.26 3.29z" class="bg"/><path d="m517.42 233.12-50.19 9.3 1.75 4.58 48.44-13.88z" class="bz"/><path d="m501.11 309.68-8.79 9.6 9.21 2.33 16.9-2.33-17.32-9.6z" class="j"/><path d="M492.32 319.28h26.11l2.14 1.53-2.14 1.53h-26.11v-3.06z" class="bz"/><path d="m515.54 190.67-3.16 27.07 9.01 4.06h8.1l-6.62-31.13h-7.33z" class="ag"/><path d="m462.37 181.77 19.92 16.09h6.27l6.28 1.54 28.03-8.73-7.33-4.55h-4.72v-2.93l-6.15-3.82-27.15-3.04-4.18 1.5-2 2.36-3.37-.43-5.6 2.01z" class="bg"/><path d="m493.04 193.69 17.78-10.5 4.72 2.93-22.5 7.57zM473.34 177.83l12.76 15.47-18.13-13.54 5.37-1.93z" class="bz"/><path d="m482.29 197.86 8.77-10.49 3.78 12.03-7.69 2.4-4.86-3.94z" class="r"/><path d="m496.66 14.75 24.73 24.42-29.53-5.21 4.8-19.21z" class="bk"/><path d="m433.48 135.94 10.64 11.2 9.21-10.2-5.58-8.96-14.27 7.96z" class="av"/><path d="m433.48 135.94 12.74-20.87 2.1 17.76-14.84 3.11z" class="ah"/><path d="m440.4 195.47-9.32-2.7-1.71 1.32-1.71-2.32-3.82-1.1-4.5 9.6 14.14 9.42 3.13-.85 3.13 3.19 2.41.9-1.75-17.46z" class="at"/><path d="m423.84 190.67-.76 7.13-.77 7.7-3.66-16.34 5.19 1.51zM427.66 191.77v15.92l3.42-14.92-3.42-1zM435.64 194.09l4.1 17.94-6.26-2.34 2.16-15.6z" class="ac"/><path d="m450.25 102.46-7.09 17.62-3.42 47.48 33.7 5.45 17.02 10.66 12.66-7.8 2.65-17.52 13.31-33.53-19.82-25.3-31.62-5.56-17.39 8.5z" class="ce"/><path d="m487.15 179.07 1.61-3.7 10-56.35 7.72-10.29 12.6 16.09-9.21 37.95-5.2 16.6-13.61 8-3.91-8.3z" class="s"/><path d="m473.44 173.01 15.32 2.36 12.1-2.36-9.8 14.36-17.62-14.36z" class="bp"/><path d="m484 127.98-20.96 16.76-15.12-22.01 5.21-2.81 7 1.91 3.01 4.9.9 3.5 2.8-3.1 4.2-3.7 6.61-.1 6.35 4.65z" class="s"/><path d="m466.84 127.13-2.6 5.47-1.2 12.14-2.61.4-2.53-1.2 1.8-12.07 3.44-5.14 3.7.4z" style="fill:#f7e6dc;stroke-width:0"/><path d="m457.9 143.94 2.43 3.2 2.71-2.4-5.14-.8z" class="bp"/><path d="m448.32 132.83-4.2 1.61 1.3 2.5 2.9-4.11zM479.25 136.94l4.9 1.7-1.7 2.7-3.2-4.4z" class="s"/><path d="m450.53 152.75 9.1 7.2 13.81-4.4-14.11-.8-8.8-2z" class="bf"/><path d="m450.53 152.75 6.3-.1 3.4-.7 3.31 1.9 9.9 1.7-13.71.8-9.2-3.6z" class="bq"/><path d="m447.92 122.73 12.21-.9-3.1-3.21-8.71 1.3-.4 2.81zM471.04 123.43l3.2-2.75 9.01 4.14.75 3.16-12.96-4.55z" class="ah"/><circle cx="473.34" cy="135.64" r="2" class="cb"/><circle cx="453.33" cy="132.43" r="2" class="cb"/><path d="m481.7 108.47 17.06 10.55 16.11-2.51 12.26-13-24.01-7.6-21.42 12.56z" class="ah"/><path d="m527.13 103.51-1.8 22.36-9.65 2.11-16.92-8.96 28.37-15.51zM498.76 119.02l24.11 23.45-13.99 23.45-10.12-46.9z" class="av"/><path d="m533.89 149.95-8.41 10.91-16.6 5.06 9-20.38 4.99-6.4 11.02 10.81z" class="ad"/><path d="m498.76 119.02 13.09 3.38 11.02 7.18 11.02 20.37-16.01-4.41-19.12-26.52z" class="ah"/><path d="m493.84 101.35 15.97 11.63 3.14 2.76 4.63-7.01-14.46-12.82-9.28 5.44z" class="av"/><path d="m509.81 112.98 2.04 9.42 9.54 5.58 3.94-2.11-7.75-17.14-7.77 4.25z" class="ad"/><path d="m511.85 122.4 22.04 27.55-8.56-24.08-13.48-3.47z" class="ap"/><path d="m443.16 120.08 16.97-16.57-15.91 1.89-1.06 14.68z" class="ah"/><path d="m473.44 113.34-61.78-14.96 41.67-8.53 33.82 4.11-5.45 14.51-8.26 4.87z" class="bq"/><path d="m473.44 113.34 79.8-14.38-36.91-12.09h-20.49l-16.59 14.73-5.81 11.74zM459.96 69.45l15.39-48.5 16.51 54.76-12.61 25.89-19.29-32.15z" class="v"/><path d="m475.35 20.95 21.31-6.2 14.35 53.27-31.76 33.58L484 75.71l-8.65-54.76z" class="bi"/><path d="M459.96 69.45 484 75.71l3.15 16.53-7.9 9.36-25.92-11.75 6.63-20.4z" class="bg"/><path d="m484 75.71 27.01-7.69 5.32 18.85-37.08 14.73L484 75.71z" class="bz"/><path d="m542.36 222.93 3.76 5.9-5.49 6.91-5.88-7.45 7.61-5.36z" class="br"/><path d="m538.2 228.83 2.43 6.91-28.25-4.2-3.5-7.27h15.88l13.44 4.56z" class="cc"/><path d="m542.36 222.93-29.98-5.19-3.5 6.53 29.32 4.56 4.16-5.9zM524.76 233.38l.06 88.96h-6.39l-2.1-92.56 8.43 3.6z" class="bx"/><path d="M529.24 220.66 512.59 216l-5.72 8.27 8.47 4.56 10.75-1.89 3.15-6.28z" class="ce"/><path d="m506.87 224.27 2.01 11.29 15.88-2.18 1.33-6.44-19.22-2.67z" class="s"/></g><g id="g"><path d="m200 239.67 11.68 5.56 8.47-15.18-8.81-.38-11.34 10z" class="af"/><path d="m181.38 180.77 22.6 32.97-19.48 11.73-3.12-44.7z" class="bk"/><path d="m144.49 297.23 5.11 14.15-11.75 2.49-17.08-2.49 1-9.83 8.61-6.08 14.11 1.76z" class="u"/><path d="M120.77 311.38h28.83v5.5h-28.83z" class="by"/><path d="m135.18 296.07 1.91 7.78-4.98 1.45-1.73-9.83 4.8.6z" class="r"/><path d="M181 295.4v10.45l6 2.75h23.87l8.43-2.75-12.15-11.91-13.77-9.87-8.93 3.83-3.45 7.5z" class="u"/><path d="M181 305.85h38.3v5.5H181z" class="by"/><path d="m194.53 288.16 8.04 7.24 4.58-1.46-6.33-6.19-6.29.41z" class="r"/><path d="M200.82 287.75 181 295.4l-12.66-22.66 32.48 15.01z" class="an"/><path d="M126.62 239 124 272.76l11.58 14.4 16.88-7.87 9.65-22.93L126.62 239z" class="bg"/><path d="m124 272.76 28.4 6.5-7.91 17.97-22.72 4.32 2.23-28.79z" class="bb"/><path d="m137.6 183.08 3.7 30.66 39.87-10.41-12.43-19.22-9.36-4.92-21.78 3.89z" class="an"/><path d="m137.6 183.08-14.43 6.59 7.21 22.26 12.83 5.34 3.83-13.69-9.44-20.5zM168.34 179.19l13.04 1.58 6.93 21.29-9.48 4.63-3.92-8.29-6.17-14.29-.4-4.92z" class="am"/><path d="m194.79 110.57 5.36 55.15-24.51 4.34-11.11 10.34-25.15-1.66-16.08-32.17-10.47-32.93 17.36-15.58 49.79-5.1 14.81 17.61z" class="z"/><path d="M169.77 174.91H149.6l-10.73-49.27-19.4-22.22-6.64 10.22 6.13 40.59 6.51 2.3.39 8.39 11.74 18.16 31.14 1.03 1.03-9.2z" class="af"/><path d="m175.64 170.06-34.72 5.88 27.82 8.17 6.9-14.05zM118.96 154.23l4.34-7.66 4.08 5.37-1.52 12.98-6.9-10.69z" class="x"/><path d="m147.04 128.83 6.32-6.58 10.34 1.35 5.94 4.4 3.06-6.89 7.85-4.03 9.09 3.45-23.26 23.55-19.34-15.25z" class="af"/><path d="m163.7 123.6 9-2.49 6.13 21.06-5.62 2.87-6.83-.96-2.68-20.48z" class="bh"/><path d="m178.83 142.17-5.17 6.06-7.28-4.15 12.45-1.91zM157.96 152.32l16.85 1.85 13.5-6.35-.45 3.64-12.8 6.16-15.57-1.85-1.53-3.45z" class="x"/><circle cx="184.45" cy="130.62" r="3.06" class="cb"/><circle cx="155.47" cy="135.6" r="3.06" class="cb"/><path d="m147.04 128.83-1.66-3.83 13.54-5.49 4.78 4.09-16.66 5.23zM172.7 121.11l2.04-4.66 13.92.38.98 3.7-16.94.58zM163.7 111.53l6.07-6.92 1.5-5.87h3.64l5.07-5.78L156.04 83l-10.72 2.94-4.4 7.87-13.54-2.95-16.72 4.59 3.83 13.71h9.99l20.84 1.26 4.21-4.25 14.17 5.36z" class="cc"/><path d="m110.66 95.45-11.87 32.1 21.64 4.98 6.95-1.95-6.38-15.07 3.48-6.35-13.82-13.71zM163.7 111.53l-18.38-25.59-17.94 4.92 17.94 19.56 18.38 1.11zM156.04 83l18.87 15.74-5.14 5.87L156.04 83z" class="br"/><path d="m127.38 130.58 7.22 17.65-7.22 3.71-8.42-14.82-20.17-9.57 28.59 3.03z" style="fill:#46382d;stroke-width:0"/><path d="m127.38 151.94-14.55 5.64-14.04-30.03 20.17 8.05 8.42 16.34z" class="af"/><path d="m109.26 138.66 7.43 2.17 1.5 9.45-8.93-11.62z" class="x"/><path d="m130.38 211.93 4.73 24.21 28.78 10.26 29.62-14.56-5.2-29.78-13.4-3.66-27.87 5.18-16.66 8.35z" class="bi"/><path d="m142.83 202.62 2.04 5.87-1.91 1.02-2.3-5.36 2.17-1.53zM134.92 206.7l2.68-1.4 2.55 6-2.55.89-2.68-5.49z" class="t"/><path d="m135.11 236.14 3.87 55.73 61.84-4.12-7.31-55.91-58.4 4.3z" class="am"/><path d="m123.17 189.67 11.75 28.92-5.82 12.51-9.02-1.6-7.53-17.21 10.62-22.62z" class="bk"/><path d="m137.09 223.94 8.75 11.41-1.9 9.17-8.04 2.99-9.64-3.91 2.84-12.5 7.99-7.16z" class="z"/><path d="m134.92 218.59-14.84 10.91 6.18 14.1 10.83-19.66-2.17-5.35z" class="am"/><path d="m172.6 263.14 42.23.56 10.68 9.44-58.03-4.57 5.12-5.43z" class="aa"/><path d="m171.64 257.66 38.7 26.2 12.49-2.18-53.19-31.39 2 7.37z" class="bo"/><path d="m162.7 258.04 9.9 5.1-4.62 7.9-11.37.77-5.99-11.49 12.08-2.28zM171.27 243.6l-11.72-.78-5.23 9.47 3.96 2.2 13.36 3.17-.37-14.06z" class="ae"/><path d="m151.4 242.6 8.15.22 7.12 5.63-2.58 3.92-9.77-2.08-2.92-7.69zM162.7 258.04l2.09 7.53-4.41 2.3-6.06-7.68 8.38-2.15z" class="af"/><path d="m151.4 242.6 11.3 15.44-16.66 6.66-3.3-14.41 1.39-6.69 7.27-1z" class="z"/><path d="m151.4 242.6-8.66 7.69-6.84-2.78 9.94-12.16 5.56 7.25zM187.32 265.55l1.98-1.21 1.98 1.85-2.49 1.47-1.47-2.11z" class="t"/><path d="m163.28 204.78 48.63-10.72 39.64 12.44-12.44 14.56-48.07 6.13-27.76-22.41z" class="bg"/><path d="m178.4 213.4-1.37-11.65 5.73-5.85 13.17 10.23-12.28 12.44-5.25-5.17z" class="l"/><path d="m178.4 213.4 1.98-9.58 5.11 4-1.84 4.05-.72-3.6-1.85-.45-1.08 7.11-1.6-1.53z" class="bq"/><path d="m182.76 195.9 33.56-4.59 8.19 6.7-17.84 9.73h-16.39l-7.52-11.84z" class="at"/><path d="m183.65 218.57 8.03 1.72 30.15-12.02 2.68-10.26-34.23 9.73-6.63 10.83z" class="ac"/><path d="m186.48 220.29 8.75-6.89 7.75 5.17-2.88 5.55-9.82 5.29-3.8-9.12z" class="l"/><path d="m195.23 213.4 35.45-9.58 4.79 11.11-35.37 9.19-4.87-10.72z" class="at"/><path d="m163.28 204.78-1.31 29.39 33.21 10.42 6.2-10.77-3.02-13.53-35.08-15.51z" class="bw"/><path d="m195.18 244.59 49.48-13.55 6.89-24.54-53.19 13.79-3.18 24.3z" class="bu"/><path d="m178.31 218.86-.86 4.88-5.08-2.2-.67 4.69 4.98 1.91-.57 4.79 3.83 1.24.86-4.5 5.17 2.02.86-4.7-5.46-2.1.67-4.79-3.73-1.24z" style="fill:#f5f9fb;stroke-width:0"/><path d="m211.68 245.23 16.78-9.75-1.42-12-12.83 3.42-2.53 18.33z" class="z"/></g><g id="h"><path d="m387.94 192.5-7.71-1.25.5 20.13 28.26-1.37 6.59-4.46-3.27-7.75-15.34-1.82-9.03-3.48z" class="bj"/><path d="M371.28 160.86 381.6 163l15.37 32.98-16.24 15.4-9.45-27.62v-22.9z" class="az"/><path d="m369.7 277.96-.92 11.37 6.87 13.03 6.2 1.2 2.88-2.73-1.4-16.73-13.63-6.14zM344.5 274.38l4.89 15.58-1.5 17.83-7.84 2.59-1.75-3.53-5.73-22.54 3.74-25 8.19 15.07z" class="w"/><path d="m384.73 300.83 8.59 7.92-8.25 9.17-10.05-1.4.63-14.16 9.08-1.53zM347.89 307.79l5.87 15.55-10.33 1.55-10.23-1.55 5.1-16.49 9.59.94z" class="ci"/><path d="m383.33 284.1-14.55 5.24-3.66-6.05 9.5-.9 8.71 1.71zM332.57 284.31l16.82 5.65.99-11.75-6.48-.25-11.33 6.35z" class="bs"/><path d="m383.06 187.1-20.11-16.21-12.5-12.31-17.89 7.34.84 33.55 4.02 8.45-7.33 6.58-3.89 9.26-5.38 14.29 23.64-.9h29.07l4.73-16.64-2.41-13.75 9.86-13.75-2.65-5.91z" class="ab"/><path d="m333.4 199.47-3.31 15.03 48.17 6.01 7.45-27.5-52.31 6.46zM366.06 232.84l-8.67 24.58-27.63 15.8-8.94-35.17 16.31-2.47 28.93-2.74z" class="aq"/><path d="m366.06 232.84 11.22 9.57 4.98 26.29-5.5 11.22-44.19 4.39-2.81-11.09 36.3-40.38z" class="az"/><path d="m332.57 284.31 49.69-15.61 1.07 15.4-50.76.21zM366.06 232.84l.7 7.17 4.73 4.84 10.77 23.85-4-48.19-12.2 12.33z" class="aq"/><path d="m371.28 160.86-20.83-2.28-5.99 32.67 18.31-8.64 20.29 4.49-11.78-26.24z" class="be"/><path d="m418.62 89.85 13.89 13.59-16.21 14.44-.54-14.37 2.86-13.66z" class="cj"/><path d="m345.96 74.6-5.32-6.19-4.82-15.13 61.14-12.79-.65 15.41-1.61 11.26-26.49 7.79-22.25-.35z" class="ab"/><path d="m396.96 40.49 31.66 23.49-10 25.87-14.51-10.08-9.41-12.61 2.26-26.67z" style="fill:#94d5d5;fill-rule:evenodd;stroke-width:0"/><path d="m335.82 53.28-3.44 32.73 8.76-4.81 4.82-6.6-10.14-21.32z" style="fill:#1e7678;fill-rule:evenodd;stroke-width:0"/><path d="m396.48 46.2-2.81.42-.75 6.07-5.45.88-.08 4.24 4.89-.67.04 5.88 2.74-.07 1.25-7.05.17-9.7z" class="ci"/><path d="m396.48 46.2 2.35 1.99-.28 5.42 3.6 3.38-.04 3.81-3.57-2.75-.49 6.62-2.99-1.72 1.42-16.75z" style="fill:#318fa6;fill-rule:evenodd;stroke-width:0"/><path d="m418.62 89.85-5.42 65.48-32.59-1.55-16.9 8.99-19.08-21.78-14.12-20.74 13.52-4.12 2.38 4.16 17.62-26.33 11.72-4.07 14.06-3.02 28.81 2.98z" class="bj"/><path d="m364.03 93.96-4.29 59.32 20.87.5-7.57 4.68.18 6.71-10.78 16.6-23.06-44.58-1.19-5.42-2.87-2.45-7.24-13.99 14.28-7.72 2.93 13.77 6.62-11 12.12-16.42zM409.85 105.4 394.84 119l-7.18 6.31-12.98-21.58 7.78-3.31 6.18 2.3.33 1.69 4.3 3.22 2.4-2.9.33-1.62 6.12-1.15 7.73 3.44z" class="w"/><path d="m394.45 125.78-3.8 3.8-2.99-4.27 4.08-2.52 2.71 2.99zM380.61 153.78l-7.39 11.39-19.5-13.1 26.89 1.71zM344.13 126.07l-4.74 11.12-4.07-7.86 8.81-3.26zM341.99 123.58l-2.71-8.29-6.43 2.15 9.14 6.14z" class="bs"/><path d="m386.94 92.24 6.42-12.01 1.34-13.07-48.74 7.44-27.17 22.66 22.76-.48 22.48-2.82 9.95-.75 12.96-.97z" class="cj"/><path d="m364.03 93.96-18.31 29.03-4.11-11.78-13.53 4.12-9.29-18.07 45.24-3.3z" class="bv"/><path d="m394.7 67.16 23.92 22.69-31.68 2.39 7.76-25.08z" style="fill:#5f6878;fill-rule:evenodd;stroke-width:0"/><path d="m388.64 102.72-.48-3.63-6.85-.13-6.63 4.77 7.24-1.83 6.72.82zM396 103.11l6.05.2 7.8 2.09-6.01-4.84-7.21-1.04-.63 3.59z" class="cj"/><path d="M347.34 317.33h-7.61l-6.53 6.01v2.45h20.56v-2.45l-6.42-6.01zM393.32 308.75l-11.06 7.77h-7.24v2.36h29.37v-5.33l-11.07-4.8z" class="ch"/><path d="M384.58 113.99c-.36 1.72-2.04 2.81-3.76 2.45s-2.81-2.04-2.45-3.76 2.04-2.81 3.76-2.45 2.81 2.04 2.45 3.76ZM404.59 114.95c-.36 1.72-2.04 2.81-3.76 2.45s-2.81-2.04-2.45-3.76 2.04-2.81 3.76-2.45 2.81 2.04 2.45 3.76Z" class="bv"/><path d="m388.97 104.36-1.31 20.95 6.79.47 1.22-21.12-6.7-.3z" style="fill:#e8cab6;fill-rule:evenodd;stroke-width:0"/><path d="m401.8 137.2-12.61-.99-12.58-1.1 8.75 5.45 6.55.58 9.89-3.94z" class="be"/><path d="m376.61 135.11 13.34-1.25 11.85 3.34-12.88.16-12.31-2.25z" style="fill:#1c7678;fill-rule:evenodd;stroke-width:0"/><path d="m376.61 135.11 12.04 9.13 13.15-7.04-10.19 2.76-5.04-.54-9.96-4.31z" class="az"/><path d="m418.65 189.16-15.73 12.15 4.01 10.07h7.27l8.61-10.07.27-3.51-4.43-8.64z" style="fill:#efd3c2;fill-rule:evenodd;stroke-width:0"/><path d="m402.92 201.31-1.44 13.29 9.92 4.06 2.8-7.28-11.28-10.07z" style="fill:#d0af96;fill-rule:evenodd;stroke-width:0"/><path d="m418.64 204.59 4.44-6.79 13.6 1.38-3.2 10.51-11.74-.9-3.1-4.2z" class="bj"/><path d="m414.2 211.38 4.44-6.79 14.84 5.1-19.28 1.69z" class="w"/><path d="m332.56 165.92-9.47 14.76-1.05 27.56 18.73 3.32-8.21-45.64z" class="az"/><path d="m361.96 224.94 4.1 7.9-5.3 5.27-8.54 1.3-6.07-10.6 9.95-11.07 5.86 7.2z" style="fill:#67acc3;fill-rule:evenodd;stroke-width:0"/><path d="m366.06 232.84 5.43 12.01-7.48 1.85h-10.86l-.93-7.29 13.84-6.57z" style="fill:#a0cbd9;fill-rule:evenodd;stroke-width:0"/><path d="m322.04 208.24 26.31-2.53 3.87 6.02-5.33 4.87-20.69 7.16-4.16-15.52z" class="bj"/><path d="m348.35 205.71 5.37-4.4 9.04 3.02-6.69 5.36-7.72-3.98z" class="bj"/><path d="m348.35 205.71 4.8 1.05 9.61-2.43 3.3 10.41-4.1 10.2-15.07-8.34 1.46-10.89z" class="w"/><path d="m362.76 204.33 9.74 4.33-1.22 10.98-9.32 5.3.8-20.61z" class="bj"/><path d="m362.76 204.33-7.1 24.48-5.28 4.03-13.25 2.74 11.22-29.87 14.41-1.38z" class="al"/><path d="m355.66 228.81 8.35 17.89-7.94 6.59-7.72-.42-11.22-17.29 18.53-6.77z" style="fill:#b3d5e1;fill-rule:evenodd;stroke-width:0"/><path d="m364.01 246.7-2.97 22-16.58-2.07 3.89-13.76 15.66-6.17z" class="al"/></g><g id="i"><path d="m751.36 316.02 9.86-1.56-12.97-2.64 3.11 4.2z" class="ae"/><path d="m747.24 302.91 4.12 13.11-4.88.7-7.47-15.06 8.23 1.25z" class="u"/><path d="m729.05 303.06 16.57-5.36 1.62 5.21-21.83 5.55 3.64-5.4z" class="ae"/><path d="m674.9 311.41-2.94 8.79 5.07 1.82.93-6.93-.93-2.83-2.13-.85z" class="bu"/><path d="m692.64 310.3-6.51 2.13-4.92-2.28 1.41-2.8 4.5-2.36 5.52 5.31z" class="ac"/><path d="m714.31 318.86-2.25 6.68h-6.03l4.22-7.79.96-1.73 3.1 2.84zM729.05 320.2l-2.39 8.43h-6.36l4.67-10.18 4.08 1.75z" class="bu"/><path d="m679.62 301.66 13.57 11.43 17.06 4.66 4.06-1.66 2.68-10.63-37.37-3.8z" class="cg"/><path d="m677.03 296.96-14.46-4.75-.12-3.64 3.2-1.3 5.61-.82 5.77 3.34v7.17z" class="bq"/><path d="M671.26 286.45v-6.48l5.36-1.65 11.36 4.45-7.53 4.67-9.19-.99z" class="ay"/><path d="m687.98 282.77 1.66 11.49-1.66 4.02-8.36 3.38-8.36-15.21 16.72-3.68z" class="cg"/><path d="m661.04 287.96 1.53 4.25 3.08-4.94-4.61.69z" class="bw"/><path d="m671.26 286.45-5.61-10.31 7.01-6.4 3.96 8.58-5.36 8.13zM687.98 282.77l5.21-6.68-4.21-7.45-7.24 7.76 6.24 6.37z" class="ae"/><path d="m689.64 294.26 21.51-3.4 8.95 6.1 2.48 8.88-11.72 5.02-31.24-9.2 10.02-7.4z" class="ay"/><path d="m720.1 296.96-9.24 13.9 6.13 4.67 7.56.36 4.5-12.83-8.95-6.1z" class="ac"/><path d="m710.86 310.86-.61 6.89 4.06 1.11v-2.77l-3.45-5.23z" class="ag"/><path d="m710.86 310.86 3.45 8 14.74 1.34-4.5-4.31-13.69-5.03z" class="bc"/><path d="m693.19 313.09 5.84-5.72 2.07 16.76-2.13 1.48-1.82-2.44-3.96-10.08z" class="ac"/><path d="m697.15 323.17-4.96 6.94h5.7l3.21-5.98-3.95-.96z" class="bu"/><path d="m674.9 311.41 1.05-.55h1.64l.37-1.06 4.66-2.45 3.51 5.08-1.1.36-1.98-.36-.28 1.09-4.81 1.57-3.06-3.68z" class="ap"/><path d="m680.51 308.46 4.52 4.33-2.26.73-2.26-5.06zM677.96 309.8l3.25 4.23-5.26-3.17 2.01-1.06z" class="ak"/></g></svg>