<svg xmlns="http://www.w3.org/2000/svg" id="a" viewBox="0 0 900 350"><defs><style>.aa,.ab,.ad,.ae,.af,.ag,.ah,.ai,.aj,.al,.am,.an,.ao,.ar,.at,.au,.av,.aw,.ax,.bd,.bg,.bh,.bi,.bj,.bk,.bl,.bm,.bn,.bp,.bq,.br,.bt,.bv,.bw,.bx,.bz,.ca,.cb,.cc,.cd,.cf,.cg,.ch,.ci,.ck,.cl,.cm,.j,.k,.l,.n,.o,.q,.r,.s,.t,.u,.v,.w,.x,.y,.z{stroke-width:0}.au,.j{fill:#576071}.aa,.af,.ag,.ah,.ao,.ar,.au,.av,.aw,.ax,.bg,.bk,.bl,.bn,.bq,.bx,.ca,.cb,.cc,.cd,.cf,.ch,.ck,.cm,.k,.l,.n,.o,.r,.s,.u,.z{fill-rule:evenodd}.bp,.k{fill:#67acc3}.l{fill:#51596a}.n,.w{fill:#4298b4}.al,.o{fill:#4fa9aa}.bl{fill:#89909b}.cf,.q{fill:#1d2432;opacity:.1}.bv,.r{fill:#245362}.bw,.s{fill:#3b88a1}.t{fill:#545c6d}.u{fill:#347990}.af,.v{fill:#72cbcc}.ca,.x{fill:#359496}.bg,.y{fill:#317186}.bi,.z{fill:#dddfe2}.aa,.am{fill:#c3987b}.ab,.cb{fill:#8b6651}.ad{fill:#dfbda5}.ae,.cc{fill:#8dc1d2}.ag{fill:#68707f}.ah{fill:#787f8d}.ai{fill:#7bb7ca}.aj{fill:#9a9fa9}.bq{fill:#275b6c}.an,.av{fill:#2e6a7d}.ao{fill:#5f6878}.ar{fill:#d9eaf0}.at,.ax{fill:#454d5d}.aw,.bz{fill:#388199}.cl{fill:#55a2bb}.bd{fill:#bbbfc6}.bh,.bn{fill:#343c4b}.bj{fill:#404857}.bk,.bt{fill:#2a6275}.bm,.ck{fill:#3e90aa}.br,.cm{fill:#4b5464}.bx,.cg{fill:#1e7678}.cd{fill:#94d5d5}.ch{fill:#cccfd4}.ci{fill:#232a38}</style></defs><g id="b"><path d="m96.69 303.36 9.42-3.47 5.52 5.38 41.43 3.43 131.2-18.08-38.73-11.76-48.4-4.55-138.64 9.88-13.92 12.24 52.12 6.93zM424.11 281.32l-92.99 3.18 35.28-15.56 92.33-10.48 40.06 3.85-18.51 10.9-56.17 8.11zM389.8 285.45 287.77 297.7l-3.51 6.62 58.05 4.96 15.05 18.55 33.68-13.02-15-4.47-10.29-3.01 5.01-1.2 5.28 4.21 115.28-10.46 3-5.45 5.85 3.91 52.62-5.16-162.99-7.73zM243.34 334.47 269 314.81h21.53l7.46 8.93-7.73 2.94-46.92 7.79z" class="q"/><path d="m305.72 328.63 21.4-13.82 12.11 6.91-2.95 4.98-30.56 1.93zM667.03 304.01l-58.63-10.39-43.74 1.05-67.81 9.34-37.61 4.69 14.5 17 32.28 11.09 22.38.04 108.24-9.73 30.39-23.09zM884.32 292.78l-94.63 11.23-8.81-7.07-10.34 4.96-92.49-10.91-14.17-9.44 69.42-13.05 106.43 3.43 31.18 5.46 13.41 15.39z" class="q"/></g><g id="c"><path d="m390.18 30.77 14.01 212.59-66.13 1.82-12.68-197.15 64.8-17.26z" class="bt"/><path d="m378.91 46.47 16.47 217.15 52.85-3.83-5.74-220.22-63.58 6.9z" class="bv"/><path d="M435.86 102.14 382.19 89.6l-56.81 6.27 2.98 22.22 101.62-10.6 5.88-5.35zM439.69 169.14l-52.38-10.84-56.91 4.79 1.03 24.1 104.43-12.14 3.83-5.91zM444.08 246.19l-51.05-13.64-56.35 4.64 1.38 26.43 94.98-7.96 11.04-9.47z" class="cl"/><path d="m411.47 130.98-26.78-8.32-14.95 1.94-1.32 3.35-13.21-1.47-19.26 2.49-2.1 2.01-8.47-.64 6.05 11.69 38.04-.3 30-4.88 12-5.87z" class="ar"/><path d="m397.78 132.45-28.04-7.85-14.53 1.88 24.9 8.84 10.93 1.53 6.74-4.4zM363.21 137.97l-27.26-9-10.57 1.37 22.26 9.57 8.39 1.93 7.18-3.87z" class="cc"/><path d="m331.43 142.03 16.21-2.12 7.02 12.77-4.19 17.46-17.23 1.02-1.81-29.13z" class="s"/><path d="m347.64 139.91 15.57-1.94 4.6 15.48-3.03 14.29-14.31 2.4-2.83-30.23z" class="ca"/><path d="m363.21 137.97 16.9-2.65 6.08 12.38-3.96 17.87-17.45 2.17-1.01-19.3 1.24-2.45-1.49-2.19-.31-5.83z" class="ao"/><path d="m363.52 143.8 17.04-2.07 2.47 1.1-2.15 3.5-17.11 2.11-.25-4.64zM353.93 144.41l3.54-.67.67 7.79-3.48.8-.73-7.92z" class="af"/><path d="m336.69 146.43 5.08 3.44-5.08 4.19v-7.63z" style="fill:#7bb7ca;fill-rule:evenodd;stroke-width:0"/><path d="m380.11 135.32 17.67-2.87 6.03 11.04-3.58 20.11-18 1.97-.93-13.24 1.73-2.09-1.96-1.23-.19-2.68 2.82-2.52-3.14-2.08-.45-6.41z" class="u"/><path d="m380.56 141.73 17.78-2.19 1.89 1.46-1.56 2.74-17.79 2.59-.32-4.6zM381.07 149.01l17.84-2.2 2.09 1.63-1.82 1.8-17.88 2.09-.23-3.32z" class="n"/><path d="m397.78 132.45 13.69-1.47-.77 32.16-10.47.46-2.45-31.15z" class="ca"/><path d="m403.36 137.17 3.38-.32-.06 12.26-3 .38-.32-12.32z" class="af"/><path d="m406.74 63.57-18.25-8.76-16.5-2.72L353.48 54l9.73 6.38 17.51 9.83 26.02-6.64zM358.81 65.62l-6.1-7.73-11.45-1.53-9.83 3.9 3.19 3.73 11.07 8.14 13.12-6.51z" class="cc"/><path d="m414.02 60.38-30.64-9.57-11.39 1.28 26.58 9.82 6.28 2.33 9.17-3.86zM380.22 63.7 353.48 54l-12.22 2.36 17.55 9.26 9.51 4.02 11.9-5.94zM342.91 67.15l-11.48-6.89-10.22-.45 5.46 8.36 7.95 5.23 8.29-6.25z" class="ar"/><path d="m326.67 68.17 16.24-1.02 8.56 15.32-5.49 21.6-16.88 1.88-2.43-37.78z" class="o"/><path d="m342.91 67.15 15.9-1.53 7.59 15.92-4.02 20.6-16.4 1.93-3.07-36.92z" class="ca"/><path d="m327.36 78.9 16.38-1.77 3.9 1.77-3.53 2.64-16.36 3.31-.39-5.95z" class="aw"/><path d="m343.74 77.13 16.04-1.56 3.43 1.87-2.9 3.55-16.2.55-.37-4.41z" class="o"/><path d="m358.81 65.62 21.41-1.92 4.95 16.34-2.94 19.02-19.85 3.08-3.57-36.52z" class="bg"/><path d="m367.55 73.66 2.68-3.45 3.45 3.07-2.94 3.32-3.19-2.94zM368.32 82.09l2.81-3.2 3.44 2.94-3.31 3.83-2.94-3.57z" class="o"/><path d="m398.57 61.91 15.45-1.53-.7 6.77-2.33 1.66 2.02 1.4-.33 3.19-2.36 2.17 1.97 1.56-1.97 19.05-10.09 1.1-6.74-16.23 5.08-19.14z" class="bg"/><path d="m413.32 67.15-14.42 1.66-2.53 1.4 2.68 1.92 13.96-1.92.31-3.06zM412.68 73.4l-13.5 1.32-2.81 2.41 3 1.7 12.92-1.7.39-3.73z" class="k"/><path d="m380.22 63.7 18.35-1.79 1.66 35.37-18 1.78-2.01-35.36z" class="ca"/><path d="m386.96 69.45 5.61-.64.39 4.59-5.62.51-.38-4.46z" class="cd"/><path d="m315.38 44.94-54.7-8.28-15.89 233.77 86.33 14.07 5.16-21.52-11.73-179.75-9.17-38.29z" style="fill:#347990;stroke-width:0"/><path d="m276.17 58.81 22 3.68 13.72 205.9-44.02-5.02 8.3-204.56z" style="fill:#4b9db7;stroke-width:0"/><path d="m260.68 36.66 101.38-15.47 87.69 9.58-13.84 5.89-104.87 13.13-15.66-4.85-54.7-8.28z" class="ai"/><path d="M449.75 30.77 315.39 44.94l15.73 239.57 128.13-13.11-9.49-240.62ZM344.3 255.66 331.43 60.25 432.83 49l11.25 197.19-99.78 9.47Z" class="y"/><path d="M440.45 111.32 330.66 124.6l-.26-12 105.46-10.46 4.59 9.18zM439.69 169.14l-103.41 11.14v11.09l107.8-13.39-4.39-8.84z" class="y"/></g><g id="d"><path d="m646.94 98.62-1.55 19.61 1.4 4.69 2.11-3.92 1.45-21.02-3.41.64z" style="fill:#c6e0e8;stroke-width:0"/><path d="m644.72 126.79 3.6.63.58-8.42-3.51-.77-.67 8.56z" class="bp"/><path d="m632.26 257.38-2.62 8.66 29.87 5.81 7.52-9.1-12.63-4.29-22.14-1.08z" class="x"/><path d="m659.51 271.85 38-7.23-2-9.56-21.96.75-13.04 7.68-1 8.36z" class="cg"/><path d="m632.26 257.38 28.25 6.11 35-8.43-35-4.59-28.25 6.91z" class="al"/><path d="m673.55 97.7-8.17 160.76-4.87-.05V108.48l13.04-10.78z" class="y"/><path d="m631.64 33.77 37.06 9.12 6.64 22.47-14.83 43.12-46.45-8.82 4.97-18.61 5.37-6.64-.54-11.48 4.32-16.19 3.46-1.8-2.43-2.05 2.43-9.12z" class="ae"/><path d="m668.7 42.89 34.2-9.21 2.4 11.26-2.4 1.78 3.04 1.25 3.19 14.96-2.45 10.9 6.15 6.48 4.13 19.35-56.45 8.82 8.19-65.59z" class="cl"/><path d="m631.64 33.77 37.57-6.45 33.69 6.36-34.2 9.21-37.06-9.12z" style="fill:#a0cbd9;stroke-width:0"/><path d="m652.11 34.72 17.36-3.57 14.3 2.81-17.62 4.08-14.04-3.32z" class="cl"/><path d="m623.86 62.93 9.44 1.86.93 3.38 2.26-2.76 5.83 1.15 1.11 2.76 1.89-2.17 6.79 1.33.19 2.64 2.55-2.1 10.34 2.03 6.1 6.08-8.65 14.28-11.54-2.75-.97-3.02-2.79 2.13-5.63-1.33-1.09-3.35-2.51 2.49-6.47-1.54-.28-3.38-2.43 2.74-9.9-2.35 4.83-18.12z" class="al"/><path d="m628.93 83.4 4.37-18.61 3.19.62-4.85 18.63-2.71-.64zM638.11 85.58l4.21-19.02 3 .59-3.61 19.29-3.6-.86zM647.34 87.77l4.77-19.29 2.74.54-3.75 19.64-3.76-.89zM665.19 71.05l8.36-1.54 1.79 1.21 1.62-1.84 9.36-1.73 1.42 1.73 1.83-2.33 7.5-1.39 2.27.9.92-1.49 8.87-1.64 3.7 17.38-9.93 2.2-1.33-2.15-1.31 2.73-8.55 1.89-1.62-.94-1.36 1.6-9.65 2.13-1.82-1.33-1.92 2.16-12.7 2.81 2.55-20.36z" class="x"/><path d="m673.55 69.51 1.79 19.09 3.74-.83-2.12-18.89-3.41.63zM686.32 67.15l2.41 18.49 2.98-.66-2.14-18.43-3.25.6zM697.07 65.16l3.19 17.93 2.64-.58-2.64-17.94-3.19.59z" class="cg"/><path d="m629.21 42.89 38.44 8.43 4.12 2.68-4.74 2.26-38.85-9.52 1.03-3.85z" class="cl"/><path d="m667.65 51.32 37.65-6.38.64 3.03-38.91 8.29.62-4.94z" class="bw"/></g><g id="e"><path d="m230 290.62-14.17-2.5-5.7-13.67 17.51-1.02 3.32 13.18-.96 4.01z" class="j"/><path d="m245.53 278.86.97 10.03-16.5 1.73-6.32-17.96 21.85 6.2zM111.63 305.27l14.01-2.14 8.17-21.81-22.84 13.11-4.86 6.53 5.52 4.31zM44.57 296.43l12.4-1.35 7.65-18.73-22.22 2.17 2.17 17.91z" class="at"/><path d="m110.97 294.43.66 10.84-14.94-1.91-4.5-15.75 18.78 6.82zM30.96 283.5l-.53 10.92 14.14 2.01 5.37-17.91-18.98 4.98z" class="j"/><path d="m237.3 197.02 8.23 81.84-134.56 15.57-28.74-85.55 103.79-3.34 51.28-8.52z" class="bt"/><path d="M110.97 294.43 30.96 283.5l2.29-77.7 75.26 14.27 2.46 74.36z" class="y"/><path d="m123.21 231.81 99.26-13.66 5.48 45.17-101.04 13.13-3.7-44.64z" class="w"/><path d="m49.04 224.92 24.77 11.21 19.89-1.54-5.53 19.29 6.32 21.55-22.21-9.77-25.79 4.45 2.55-45.19z" class="al"/><path d="m93.7 234.59-17.4 6.52-4.02 9.06L74 264.14l20.49 11.29-.79-40.84z" class="x"/><path d="m72.28 250.17 22.21 25.26-48-5.32 25.79-19.94z" class="cg"/><path d="m72.28 250.17-23.24-25.25 44.66 9.67-21.42 15.58z" class="v"/><path d="m13.44 189.7 109.77 2.81-14.7 27.56-93.26-12.49-.72-7.16 2.21-1.65-2.56-1.75-.74-7.32z" class="al"/><path d="m107.51 201.52 27.57-11.56 63.58-5.87 68.67-4.32-1.45 7.6-2.64 2.86 1.8 1.54-1.54 8.09-154.99 20.21-1-18.55z" class="x"/><path d="M13.44 189.7 167 172.85l100.33 6.92-159.82 21.75-94.07-11.82z" class="v"/><path d="m107.93 209.37-93.75-12.35.35 3.4 93.57 12 1.96-1.65-2.13-1.4z" class="x"/><path d="m107.93 209.37 157.95-22-.84 4.4-156.94 20.65-.17-3.05z" class="bx"/><path d="m141.47 239.53 4.59-.95.77 8.61-4.98.96-.38-8.62zM204.51 231.13l4.4-.6.6 8.4-4.2.6-.8-8.4z" class="an"/><path d="m115.81 186.15-23.58-3.01-15.17 9.12 25.19.89 13.56-7z" class="cf"/><path d="m97.42 152.55-22.08-4.21-14.94 4.21 19.66 7.79 17.36-7.79z" class="r"/><path d="m60.4 152.55-3.19-7.02L60.4 144l6 14.17-6-5.62zM67.94 131.74l4.35 26.43 8.92.8L85.42 114l-3.38-2.04-1.98 23.5h-7.77l-1.8-10.48-2.55 6.76zM98.52 128.04l-12.07 32.3-3.07-1.37 11.11-32.71 4.03 1.78z" class="u"/><path d="m72.29 135.46 3.05 23.51-1.52-25.31-1.53 1.8zM80.06 135.46l-2 20.54-1-18.64 3-1.9z" class="bk"/><path d="m61.2 174.04 5.14-11.72 12.87-.38 4.17 10.24-1.15 13.59-21.03-11.73z" class="aw"/><path d="m77.06 165.38 6.32-3.44h8.43l6.71 12.1-7.29 11.1-10.91-2.71-3.26-17.05z" class="bg"/><path d="m59.02 179.02 4.45 11.68 13.59 1.56 6.32-5.07-3.06-4.76-21.3-3.41z" class="av"/><path d="m77.06 192.26 19.3-2.89 5.61-9.09-21.65 2.15-3.26 9.83z" class="bq"/><path d="m59.02 179.02 21.3 3.41 1.72-2.15-2.83-3.64-18.01-2.6-2.18 4.98z" class="af"/><path d="m79.21 176.64 19.31-2.6 3.45 6.24-21.65 2.15-1.11-5.79z" class="o"/><path d="m66.34 162.32-5.94-9.77L78.06 156l3.15 4.34-4.15 5.04-10.72-3.06z" class="av"/><path d="m78.06 156 19.36-3.45-5.61 9.39-14.75 3.44 1-9.38z" class="bq"/><path d="m49.04 145.73 8.17-7.86 10.73 3.93-8.92 7.71-9.98-3.78zM55.02 125.36l10.38-12.72 13.51 8.89-10.97 10.21-12.92-6.38zM68.74 136.61l11.85-7.43 10.36 7.5L77.42 144l-8.68-7.39zM89.95 125.11l6.47 8.55 12.09-5.75-8.99-8.14-9.57 5.34zM72.29 109.02 85.42 114l10.96-6.51-14.17-8.15-9.92 9.68z" class="z"/><path d="m62.7 123.54 3.74-3.35 3.63 1.63-4.3 3.92-3.07-2.2zM80.22 107.07l3.07-2.87 4.3 2.49-3.35 2.11-4.02-1.73zM95.64 126.03l3.44-1.72 2.01 2.1-3.63 2.3-1.82-2.68zM75.82 136.66l3.35-2.59 3.06 1.92-3.83 2.78-2.58-2.11zM55.14 144.22l2.39-2.2 3.16.86-2.87 2.49-2.68-1.15z" class="o"/><path d="m222.83 176.7-12.23 6.91-65.18 3.58-2.29-3.58-7.92 2.73-9.83-2.73 17.75-10.76H167l55.83 3.85z" class="cf"/><path d="m135.47 160.12-3.32 2.97-6.77 16.93v3.59l15.96-2.08-5.87-21.41z" class="l"/><path d="m125.38 183.61-3.57-1.18 12.64-31.34 1.02 9.03-10.09 23.49z" class="bl"/><path d="m143.13 122.19 46.08-4.1 7.92 60.15-47.24 4.19-6.76-60.24z" class="cd"/><path d="m153.06 142.5 1.02 9.43 2.69-1.1-1.86-8.71-1.85.38z" class="ah"/><path d="m160.4 168.45-3.63 13.57 3.63.41 4.12-2.15.75-4.84-4.87-6.99z" class="bk"/><path d="m174.48 164.14 7.18 2.2 5.27 11.9-22.41 2.04-4.12-11.83 4.87-3.31 9.21-1z" class="bg"/><path d="m174.48 164.14 3.64 5.07-7.11-3.72-3.04 5.83-2.7-6.18 4.01-2.05 5.2 1.05z" class="ch"/><path d="m181.56 140.78 3.93-3.16-17.52-7.15-14.91 12.03 6.67 1.72 11.4-1.72 10.43-1.72z" class="r"/><path d="m162.75 155.43.93 3.54 1.57.19-.79 2.78.81 3.2 5.74.35 4.43-5.95-1.82-9.76-3.16-3.16-5.36-.1-2.35 8.91z" class="aa"/><path d="m181.66 147 .38 11.3-6.6 2.04-2.59-1.18-2.39-12.54 4.5-4.5 6.7 4.88z" style="fill:#dfbda5;fill-rule:evenodd;stroke-width:0"/><path d="m171.01 165.49 3.47-1.35 7.56-5.84-9.19.86-1.84 6.33zM163.68 158.97l3.14-.67-2.36 3.64-.78-2.97z" class="cb"/><path d="m173.62 149.78 5.93-.67-1.82 1.43-.48 4.89-1.14-4.6-2.49-1.05z" class="aa"/><path d="m170.46 146.62-1.63 5.74v4.88l-2.59-3.54-3.49 1.73-1.2-4.6 2.13-3.83 6.78-.38z" class="ah"/><path d="m181.66 147-.1-6.22-12.44-2.78-1.15 4.88 2.49 3.74 11.2.38z" class="bg"/><path d="m169.12 138-9.39 6.22 1.82 6.61 8.91-4.21-1.34-8.62z" class="bk"/><path d="m136.88 118.09-7.92 4.88 6.25 63.37 10.21.85 1.54-15.87-6.64-50.13-3.44-3.1z" class="ag"/><path d="m193.42 112.64-50.3 4.85-1.78 2.28-4.46-1.68 8.54 69.1 4.85-2.05 1.29 1.35 50.67-5.73-2.3-3.7 1.68-1.07-7.64-59.08-1.7-1.13 1.15-3.15Zm-47.61 12.07 40.72-3.52 7.02 53.85-40.64 4.98-7.11-55.31Z" class="l"/><path d="m186.53 121.19 6.89-8.55.56 4.27-7.45 4.28zM145.81 124.71l-8.93-6.62 6.25-.61 2.68 7.23zM152.91 180.02l-7.49 7.17 6.14-.7 1.35-6.47zM193.55 175.05l8.68 5.72-.61-4.78-8.07-.94z" class="ax"/></g><g id="f"><path d="m377 293.87 11.62-1.53 10.21-59.47-20.52 4.79-1.31 56.21z" class="bv"/><path d="m284.26 304.32 9.83-2.08-1.15-68.68h-14.9l-2.72 33.88 8.94 36.88z" class="bt"/><path d="m279.97 254.61 78.66 10.67v-27.69l-74.37-4.03h-10.22l5.93 21.05z" style="fill:#abafb8;stroke-width:0"/><path d="m493.81 231.45-2.49 68.43-10.53-1.92-6.83-70.53 19.85 4.02z" class="y"/><path d="m379.68 263.49 116.99-10.98v-25.08l-114.44 13.92-2.55 22.14z" class="aj"/><path d="m491.32 299.88 8.85-1.54 6.63-65.54-7.74-8.06-12.53 7.07 4.79 68.07z" class="bt"/><path d="m263 237.81 7.96 64.43 13.3 2.08-6.22-70.76-15.04 4.25z" class="bz"/><path d="m366.09 312.19 9.95-1.85 12.58-73.9-20.19 12-6.37 19 4.03 44.75z" class="bt"/><path d="m368.43 248.44-2.34 63.75-12.49-1.95-4.77-70.92 19.6 9.12z" class="bz"/><path d="m260.49 217.15 1.05 8.62 2.26 3.03-1.7 1.59.9 7.42 105.43 10.63 20.19-25.52-128.13-5.77z" class="al"/><path d="M368.43 248.44 506.8 232.8l.6-5.99-2.81-1.9 3.27-2.65.79-7.81-66.98 2.7-63.52 5.77-9.39 9.95-.33 15.57z" class="x"/><path d="m260.49 217.15 105.66-15.63 103.44 9.83 39.06 3.1-76.72 9.91-63.17 8.51-108.27-15.72z" class="v"/><path d="m261.54 225.77 107.1 13.04 3 1.25-3.06 1.29-106.48-10.96-.56-4.62z" class="x"/><path d="m368.64 238.81 139.22-16.55-.46 4.55-138.82 14.54.06-2.54z" class="cg"/><path d="m269 243.32 3.7.51.64 6-3.7-.26-.64-6.25zM355.94 252.26l4.72.89-.26 7.4-4.08-.64-.38-7.65z" class="cl"/><path d="m374.32 252.51 4.47-.64-1.02 7.53-3.96.64.51-7.53zM494.32 239.62l4.47-.51-.39 7.91-3.57.13-.51-7.53z" class="bm"/><path d="m446.06 215.33-15.38 4.74-35.77 2.62 35.55-9.47 15.6 2.11z" class="q"/><path d="m394.91 222.69 36-5.23-.45-4.24-1.4-.76 1.16-1.52-.35-3.36-39.38 2.47 4.42 12.64z" style="fill:#ecf4f7;stroke-width:0"/><path d="m430.46 213.22-19.23 1.91 18.99-4.19.24 2.28z" style="fill:#b3d5e1;stroke-width:0"/><path d="m394.64 212.22-10.79-4.53-26.04.78-.45 9.83 10.2 1.19 3.2-1.84 2.23 2.48 21.92 2.56-.27-10.47z" class="t"/><path d="m367.56 219.49.85-9.94 3.57-.58 1.97 1.14-.96 10.02-5.43-.64z" style="fill:#89909b;stroke-width:0"/><path d="m357.81 208.47 40.34-7.61 31.72 6.72-35.23 4.64-36.83-3.75z" style="fill:#787f8d;stroke-width:0"/></g><g id="g"><path d="m836.41 294.67-14.93-1.19-4.79-16.66 20.3 1.34-.58 16.51z" class="j"/><path d="m789.69 304.01 12.64-2.87 4.02-17.81-16.13 9.85-4.36 3.94 3.83 6.89zM678.05 290.99l10.72-2.11 6.13-12.44-14.55.76-6.13 6.51 3.83 7.28zM849.82 281.87l.38 9.93-13.79 2.87-6.13-16.89 19.54 4.09z" class="at"/><path d="m657.94 279.82.96 8.87 19.15 2.3 2.3-13.79-22.41 2.62zM790.22 293.18l-.53 10.83-19.15-2.11-3.45-15.51 23.13 6.79z" class="j"/><path d="m651.82 210.43 6.12 69.39 132.28 13.36 18.24-39.34-14.18-19.75-71.23-20.29-71.23-3.37z" class="aw"/><path d="m794.28 234.09 53.24-10.75 2.3 58.53-59.6 11.31 4.06-59.09z" class="bg"/><path d="M801.93 244.74h18.9l16.6-6.92 2.3 34.11h-20.05l-16.95 7.46 4.58-19.7-5.38-14.95z" style="fill:#abafb8;fill-rule:evenodd;stroke-width:0"/><path d="m801.93 244.74 15.14 2.97 4.95 9.9-3.42 10.89-15.87 10.89-.8-34.65z" style="fill:#9a9fa9;fill-rule:evenodd;stroke-width:0"/><path d="m822.02 257.61 17.71 14.32-37 7.46 19.29-21.78z" class="ah"/><path d="m801.93 244.74 20.09 12.87 15.41-19.79-35.5 6.92z" class="ch"/><path d="M794.28 234.09 638.8 216.66l.91-7.79 3.68-1.37-3.21-2.58.82-6.93 43.94-1.21 123.52 12.09-14.18 25.22z" class="o"/><path d="m795.29 216.66 13.17-13.18 54.25-3.45.4 8.84-2.76 3.23 3 2.23.36 8.01-69.43 11.75 1.01-17.43z" class="ca"/><path d="m640.18 204.92 154.72 18.42h4.56l-4.81 4.45-154.94-18.92.47-3.95z" class="ca"/><path d="m794.9 223.34 68.21-14.47.24 5.46-68.7 13.46.25-4.45z" class="bx"/><path d="m641 197.99 76.04-16.34 145.67 18.38-67.42 16.63L641 197.99z" class="af"/><path d="m667.33 229.71 53.61 6.13-4.02 39.26-49.02-5.56-.57-39.83zM728.8 237.37l52.08 6.13-2.49 38.3-52.66-5.56 3.07-38.87z" class="k"/><path d="m706.77 248.48 4.98.57-.95 9.39-5.17-.58 1.14-9.38zM736.26 251.73l4.79.77-.96 8.62-5.17-.58 1.34-8.81z" class="aw"/><path d="m862.71 200.03-16.7 4.12-48.28.48-4.21-8.14-18.96 5.17-27-3.64 5.75-6.36 31.03-1.73 48.66 6.35 29.71 3.75z" class="cf"/><path d="m678.94 127.49 34.54-5.3 22.59 3.45 23.75 7.08-14.56 15.51-52.46-12.44-13.86-8.3z" class="ar"/><path d="m697.07 129.79 39-4.15 15.7 1.53-33.51 7.25-11.29.79-9.9-5.42z" class="cc"/><path d="m771.31 118.17-35.24 7.47 22.21 8.04L793.52 122l-22.21-3.83z" class="ar"/><path d="m676.96 190.1 1.14-36.12 2.34-1.5-2.22-2.09.12-3.82 1.72-2.36-1.59-1.92.47-14.8 18.13 2.3 5.11 25.19-10.47 36.68-14.75-1.56z" class="o"/><path d="m678.47 142.29 17.27 2.89 4.52 3.05-5.01 2.61-16.91-4.27.13-4.28zM678.22 150.39l16.78 3.36 2.07 1.38-2.4 2.44-16.57-3.59.12-3.59z" class="cc"/><path d="m697.07 129.79 21.19 4.63 1.92 12.09-1.92 33.7-6.12 13.55-20.43-2.1 5.36-61.87z" class="s"/><path d="m701.89 148.52 3.83-3.06 2.97 4.98-4.41 2.58-2.39-4.5zM700.74 160.11l3.64-2.78 2.68 4.31-3.92 2.77-2.4-4.3z" class="cc"/><path d="m718.26 134.42 20.11 4.62-6.89 56.68-19.34-1.96 6.12-59.34z" class="l"/><path d="m724.65 146.26 4.08.89-.89 8.04-4.21-.89 1.02-8.04zM723.11 159.53l3.83.9-.63 6.76-3.83-.89.63-6.77zM721.84 171.66l3.83 1.02-.77 7.4-4.21-.76 1.15-7.66z" class="bl"/><path d="m731.48 195.72 4.59-70.08 17.43 3.06 2.38 9.77-3.45 45.65-4.87 13.9-16.08-2.3z" class="bg"/><path d="m756.41 131.45 4.33-3.96 32.78-5.49 4.21 69.13-39.02 5.36-7.33-4.83 5.03-60.21z" class="bk"/><path d="m741.43 135.02 5.37.96-1.54 12.25-4.98-1.15 1.15-12.06z" style="fill:#55a2bb;fill-rule:evenodd;stroke-width:0"/><path d="m753.5 128.7 7.24-1.21-.3 10.31-1.52 1.5 1.43 1.37-.22 7.56-1.46 2.16 1.35 1.53-.28 9.43-1.58 1.76 1.5 1.02-.26 8.76-1.56 2.41 1.46.99-.23 7.99-2.66 1.98 2.57 1.04-.27 9.19-11.15 1.53.77-8.95 2.74-2.4-2.46-.91.69-8.04 2.47-1.85-2.2-1.32.69-8.03 2.13-2.11-1.81-1.65.8-9.36 1.67-2.56-1.31-1.6.65-7.61 1.76-1.92-1.53-.76.88-10.25z" class="ca"/><path d="m752.62 138.95 7.82-1.15-.09 2.87-7.96.96.23-2.68zM751.74 149.24l8.39-1.01-.11 3.69-8.64 1.48.36-4.16zM750.58 162.76l9.16-1.41-.08 2.78-9.4 2.39.32-3.76zM749.57 174.55l9.83-1.66-.1 3.4-10 1.43.27-3.17zM748.61 185.76l10.46-1.48-.09 3.02-10.65 1.77.28-3.31z" class="bx"/><path d="m777.82 139.71 32.83-6.39 25.19 3.81-35.24 15.64-22.78-13.06z" style="fill:#a0cbd9;fill-rule:evenodd;stroke-width:0"/><path d="m777.82 139.71 22.21 4.07 5.17 7.2v36.64l-7.47 17.01-23.17-2.97 1.45-27.7 3.66-3.96-3.26-3.48.29-5.65 5.14-3.3-4.77-3.59.75-14.27z" class="s"/><path d="m777.07 153.98 22.45 3.35 3.51 2.24-3.78 4.84-22.55-3.54.37-6.89zM776.41 166.52l22.63 3.34 3.99 1.8-4.25 5.24-22.77-2.94.4-7.44z" class="k"/><path d="m797.73 204.63 35.27-8.35 2.84-59.15-35.81 6.65-2.3 60.85z" class="bg"/><path d="m810.69 151.87 13.91-3.06-.25 3.83-13.79 2.93.13-3.7z" class="k"/></g><g id="h"><path d="m587.41 324.7-15.22-2.5-5.1-13.39 20.32-1.7 1.06 10.25-1.06 7.34z" class="j"/><path d="m606.66 307.66-1.57 13.68-17.68 3.36-4.91-17.73 24.16.69zM528.4 336.83l16.73-3.64 3.83-15.83-16.85 7.02-2.05 3.45-4.15 3.06 2.49 5.94z" class="bj"/><path d="m530.06 327.83-1.66 9-17.49-5.43-.25-10.21 11.87.45 7.53 6.19z" class="j"/><path d="m629.64 136.85-31.78-10.31-26.75-8.62-16.02 18.42 58.21 20.43 16.34-19.92z" class="ai"/><path d="M608.45 149.87 551 132.77l-21.21-4.82-16.77 92.6 82.15 26.85 18.89-57.44-5.61-40.09z" class="cl"/><path d="m590.04 157.3-22.95 75.04-33.96-12.51 27.32-71.74 29.59 9.21z" class="bw"/><path d="m579.87 154.13-4.37 23.85-19.37 3.59-5.13-30.93 16.62-25.27 30.24 1.17-17.99 27.59z" class="q"/><path d="m438.15 296.94 3.22 10.62 6.48 1.77 7.36 2.08 1.39-10.09-6.2-7.7-12.25 3.32z" class="j"/><path d="m456.6 301.32 71.29-21.04-10.72-66.83-65.68 17.42-4.4 15.32 9.51 55.13z" class="an"/><path d="m473.74 308.7 36.92 12.49 13.02-41.62-58.72-13.53 8.78 42.66z" class="x"/><path d="m473.74 308.7 7.79 2.63 3.38-31.4 18.96 38.96 6.79 2.3 13.02-41.62-58.72-13.53 8.78 42.66z" class="q"/><path d="m431.93 224.36 6.22 72.58 18.45 4.38-2.81-66.45-5.49-10.69-16.37.18z" class="cl"/><path d="m431.93 224.36 21.86 10.51 58.2-17.72-25.84-9.13-54.22 16.34z" class="ai"/><path d="m472.79 224.88-3.54 5.28-15.46 4.71-4.04-1.94 11.88-9.05 11.16 1z" class="ad"/><path d="m465.31 222.92-1.05 3.89-4.7 4.03-9.81 2.09 11.88-9.05 3.68-.96z" class="am"/><path d="m465.3 213.33-12.83 2 2.02 6.76 9.77 4.72 8.53-1.93-1.13-7.73-6.36-3.82z" class="am"/><path d="m511.99 170.16-25.36 29.95 7.69 8.29 6.28 2.4 14.25-16.31-2.86-24.33z" class="cg"/><path d="m486.63 200.11-15.85 7.31 1.88 10.24 8.87 4.27 21.21-6.6-2.14-4.53-13.97-10.69z" class="x"/><path d="m473.78 209.42 7.75 12.51-8.74 2.95-7.49-11.55 8.48-3.91z" class="bi"/><path d="m464.26 226.81-14.51 6.12-8.08-3.88 10.8-13.72 11.79 11.48z" class="ad"/><path d="m493.04 237.81 12.21 30.58 45.75-7.2-21.31-16.08-36.65-7.3z" class="bh"/><path d="m500.6 210.8-7.56 27.01L551 261.19l7.79-27.45-31.26-11.87-26.93-11.07z" class="cg"/><path d="m522.28 169.14-10.29 1.02 5.75 21.17 14.66 18.63 24.49-13.65 18.61-18.33-7.64-4.82-31.74 5.09-13.84-9.11z" class="bd"/><path d="m516.5 58.49 24.01 5.92 13.78 6.64 12.15-3.57 17.29.69-4.69 8.72-7.58 3.42 3.95 11.1-1.62 10.99-4.65 13.35-8.09 10.5 3.36.53 2.59 2.81 1.15-7.86 6.68-7.45 8.99 2.33 5.65 3.9-9.5 14.79-6.73 7.51-.45 5.62-4.56 6.98-2.84 3.16.26 3.51-11.37 6.42-17.62 6.23-4.59-5.09 2.14-7.56-3.72-9.36-32.21-8.23 6.98-37.61-1.17-7.38 3.21-12.79 3.19-3.54 6.01-24.68z" class="ad"/><path d="m569.01 69.61-8.63 25.43-3.74 8.14-2.28 15.47-10.57 37.19-13.3-3.12 1.03 5.28-1.46 5.64 4.86 15.4 30.73-16.96 7.56-14.25 5.02-12.6-11.23-5.64 3.11-6.05 1-5.62-4.77 1.55 7.45-17.07.35-10.36-2.68-11.73 6.61-4.7 5.66-7.44-10.52-1.02-4.2 2.46z" class="am"/><path d="M578.23 135.23 567 129.59l6.21 18.24 4.52-7.21.5-5.39zM530.49 152.72l18.89 4.42-12.72 17.59-5.03-5.27-1.57-5.82.43-10.92z" class="ab"/><path d="m550.34 111.84-.58-10.69-10.21-2.88-5.45 10.77 20.26 9.61-21.37-3.05-4.25 3.49-.45-8.86 9.75-17.43 16.25 2.24.63 11.06-4.58 5.74zM517.19 103.18l.15-9.24-9.23-3.42-2.7 1.31-.03 12.06 16.53 6.92.04 3.78-16.69-7.71-2.46-10.37 3.91-11.85 3.78-1.49 2.49-1.16 7.09-3.11 6.82 6.08.64 2.26-3.95 2.94-1.96 13.57-4.43-.57z" class="am"/><path d="m536.18 94.44-11.61-3.93-2.64 20.31-1.52 6.47 3.47 2.61 4.86-.81 1.49-6.54 5.95-18.11z" style="fill:#e8cab6;stroke-width:0"/><path d="m536.18 129.03-13.56.1-10.52-5.01-.08 3.23 9.75 4.58 13.02.37 1.39-3.27zM572.89 127.72l5.33-9.24 4.97 2.51-10.3 6.73z" class="ab"/><path d="m516.5 58.49 46.16-3.68-3.49 9.9-4.88 6.34-37.79-12.56z" class="bi"/><path d="m583.73 68.17 9.77 5.18 1.63 19.81-11.24-3.72-12.43-9.13 12.27-12.14z" class="bd"/><path d="m595.13 93.16 3.17 33.79-14.48-10.34-11.27-11.39-1.09-24.91 23.67 12.85z" class="bi"/><path d="m573.78 108.17-5.95 5.61-3.66 6.73 5.94 3.03 5.03-9.81 12.45 7.27-9.36 14.23-5.02 12.6 24.65-21.29-6.43-5.56-17.65-12.81z" class="aj"/><path d="m554.29 71.05 8.37-16.24 21.07 13.36-29.44 2.88z" class="bd"/><path d="m569.09 111.23-12.45-8.05-.51 3.48.51 2.78 11.19 4.34 1.26-2.55z" class="ab"/><path d="m574.83 114.28-4.87-4.81-2.13 4.31 6.02 2.49.98-1.99z" style="fill:#737373;stroke-width:0"/><path d="m565.65 162.08 2.21 11.08-25.6 11.16-8.05.16-6.62-5.6-5.31-9.74 7.78-5.5 6.6 11.09 28.99-12.65z" class="bi"/><path d="m536.66 174.73 5.6 9.59-9.3 4.08-5.37-9.52 9.07-4.15zM532.96 188.4l6.96 9.74-11.68 11.57-4.27-18.38 8.99-2.93z" class="br"/><path d="M540.98 102.04c-.06 1.41 1.08 2.52 2.38 2.58 1.41.06 2.58-.97 2.63-2.38s-1.03-2.52-2.43-2.58c-1.3-.05-2.52.97-2.58 2.38ZM510.32 95.12c-.06 1.41.97 2.52 2.38 2.58 1.3.05 2.52-.97 2.58-2.38s-1.08-2.47-2.38-2.52c-1.41-.06-2.52.97-2.57 2.32Z" class="ci"/><path d="m575.5 177.98-44.78 25.38-6.75-12.03-11.98-21.17-11.39 40.64 36.26 23.87 21.93-.93 13.25-40.96 3.46-14.8z" style="fill:#185e60;stroke-width:0"/><path d="m528.74 119.09-5.05 3.41-3.28-5.21 8.33 1.8z" class="ab"/><path d="m537.74 89.72 11.64-1.95 6.75 6.27-10.14 1-8.25-5.32zM512.3 79.46l8.38-2.33 7.16 4.87-.95 2.98-6.94-4.32-6.97 1.35-.68-2.55z" class="bi"/><path d="m535.75 95.45.43-3.18-.38-3.01-8.27-2.02-2.53 2.55-.04 3.14 10.79 2.52zM560.38 95.04l31.05 25.94-3.9 8.53.06-8.51-29.88-15.69-1.58-4.34 4.25-5.93z" class="y"/><path d="m530.24 112.56 24.12 6.1 6.02-23.61-24.58-5.78-5.56 23.29Zm20.1-.72-13.24-3.24 2.92-12.29 13.18 3.12-2.86 12.41ZM521.91 110.81 498 105.06l5.45-23.52 24.08 5.7-5.62 23.57Zm-13.4-21.91-2.78 11.73 11.46 2.54 2.72-11.51-11.39-2.77Z" class="bz"/><path d="M473.74 308.7v11.72l-17.57 2.64-20.26-2.64 11.94-11.09 11.26-8.01 14.63 7.38z" class="w"/><path d="M473.74 325.69h-37.83v-5.28h37.83z" class="y"/><path d="m462.57 301.32-9.74 11.29-4.98-3.28 8.75-8.01h5.97z" class="bp"/><path d="m503.87 318.89 2.15 12.62-19.56 2.64-12.26-2.64 12.02-18.59 9.12-2.68 8.53 8.65z" class="w"/><path d="M506.02 336.79h-31.83v-5.28h31.83z" class="y"/><path d="m496.85 312.41-2.74 13.29-5.97-.28 4.74-14.01 3.97 1z" class="bp"/><path d="m493.04 237.81-32.79 18 23.65 15.04 10.44 1 14.17-9.96-15.47-24.08z" class="bj"/><path d="m460.25 255.81-3.65 45.51 17.14 7.38 15.47-39.85-28.96-13.04z" class="bh"/><path d="m551 261.19-44.17-1.91-22.45 7.39 16.36 14.88 13.19-2.45 33.59-4.63 3.48-13.28z" class="j"/><path d="m484.38 266.67 1.84 46.25 17.65 5.97 10.06-39.79-29.55-12.43z" class="bj"/><path d="m439.94 235.91 7.4 3.07 3.06 54.64-6.63-1.79-3.83-55.92z" class="cg"/><path d="m552.28 247.4-22.22 80.43-19.4-6.64-1.26-76.78 22.54-2.82 20.34 5.81z" class="cl"/><path d="m509.4 244.41 27.46-9.74 25.31-7.79 26.3 8.76-27.26 20.19-18.95-4.6-32.86-6.82z" class="ai"/><path d="m567.04 238.81 11.52-6.47 9.15-47.04-18.35 16.22-9.48 16.57 7.16 20.72z" class="q"/><path d="m575.5 177.98 12.21 7.32-20.67 53.51-9.36-6.79-10.16-12.06 27.98-41.98z" class="cg"/><path d="m509.4 191.37 8.06.82-2.24 13.61-13.57 1.25-.39-2.63 3.41-1.76 8.14-.22.97-6.88-7.78-.91 3.4-3.28z" class="bw"/><path d="m509.4 191.37-23.39-3.54-3.02 12.93 10.8 2.81 15.61-12.2z" class="al"/><path d="m462.88 191.37 23.13-3.54 2.13 9.19-7.81 6.55-17.45-12.2z" class="cg"/><path d="m474.75 194.03 12.27-1.84 12.39 1.84 2.19 3.44-16.45 5.7-10.4-9.14z" class="t"/><path d="m465.42 198.92 4.17 12.43 15.56 3.22 7.14-8.35-4.15-9.2-22.72 1.9z" class="ae"/><path d="m488.14 197.02 19.51-.32-7.05 14.1-15.45 3.77 2.99-17.55z" class="cl"/><path d="m462.88 191.37 25.26 5.65 2.82 3.55-3.94 3-21.6-4.65-2.54-7.55z" class="x"/><path d="m488.14 197.02 21.26-5.65.94 3.25-2.69 2.08-20.63 6.87 1.12-6.55z" class="cg"/><path d="m539.92 198.14-15.95-6.81-4.5 6.81 1.4 13.57 10.38-1.75 7.25-4.02 1.42-7.8z" class="am"/><path d="m567.04 238.81-21.18-31.76-10.09.21-2.68 10.83 3.77 16.58 30.18 4.14z" class="x"/><path d="m545.86 207.05-12.77 11.04-1.84-8.13 8.67-11.82 5.94 8.91z" class="bi"/><path d="m523.97 191.33-14.57.04-1.75 5.33 2.22 1.18-.22 1.18.71 7.19 10.51 5.46 3.1-20.38z" class="ad"/><path d="m507.65 196.7 5.37.98-3.37 1.38-2-2.36z" class="am"/><path d="m518.83 255.06 13.28 3.58-8.17 57.19-5.88-1.79.77-58.98z" class="cg"/><path d="m530.06 327.83 76.6-20.17 1.74-14.04-8.7-18.51 14.3-26.67 7.72-62.31 2.59-8.15 4.67 1.06 14.96-14.61-14.3-27.58-21.19 13.02-19.98 85.77-46.21 15.59-12.2 76.6z" class="an"/><path d="m621.72 186.13 3.55-30.7 6.99 8.3-8.58 5.41 5.3 9.9-7.26 7.09z" style="fill:#275b6c;stroke-width:0"/><path d="m614 248.44-59.08 19.95-3.92 38.58 57.4-13.35 1.5-12.07-4.64-7.4 6.97-11.4 1.77-14.31z" class="x"/><path d="m612.23 262.75-45.19 13.7-2.38 16.33 45.24-11.23 2.33-18.8z" class="an"/></g><g id="i"><path d="m343.87 303.91 22.22 8.28-24.13 13.51-10.92-9.19 12.83-12.6z" class="n"/><path d="m294.09 295.02-10.88-5.08-15.23 6.33 14.55 22.62 9.35.93 20.01-1.85 5.46-7.86-11.87-10.22-11.39-4.87z" class="cm"/><path d="m294.09 295.02 9.62 23.7 8.18-.75 5.46-7.86-11.87-10.22-11.39-4.87z" style="fill:#3d4554;fill-rule:evenodd;stroke-width:0"/><path d="m216.58 301.32-2.47 13.23 7.15 4.34 8.68-5.49-3.64-11.45-9.72-.63z" class="ah"/><path d="m229.94 323.74-17.37-1.04 1.54-8.15 19.78-2.36-3.95 11.55z" class="ck"/><path d="m256.99 268.39 36.33-11.97 18.57 11.97-4.59 19.48-13.21 7.15-17.81 2.81-23.49-4.09-5.64-12.7 4.87-12.65h4.97z" class="ag"/><path d="m276.28 297.83 6.25 21.06-29.74-2.51 7.78-27.44 15.71 8.89z" class="ao"/><path d="m282.53 318.89-39.19 15.58v-11.68l7.19-2.11 7.03-8.49 24.97 6.7z" class="ah"/><path d="m243.34 334.47-15.7-2.49 2.3-8.24 9.32-.95 7.89 3.89-3.81 7.79z" class="ck"/><path d="m219.85 292.47-11.37-2.53 10.58-12.24 2.2 5.32-1.41 9.45zM254.06 285.09l8.94-9.34-10.98-7.36-1.49 13.74 3.53 2.96z" class="l"/><path d="m216.58 301.32 2.48-23.62 4.62-1.3 10.54.62 10.57-6.59 7.23-2.04 8.55 20.55-20.04 12.38h-23.95z" class="ah"/><path d="m216.58 301.32 13.36 22.42 18.09-9.19 11.65 4.47.89-30.08-18.63 10.17-25.36 2.21z" class="au"/><path d="m216.58 301.32 17.31 10.87 11.64 1.21 7.26-7.06 7.78-17.4-43.99 12.38z" class="ag"/><path d="m233.89 312.19-3.95 11.55 17.21 2.94.88-2.94 2.5.87 9.15-5.59-6.89-12.68-9.96 5.85h-8.94z" class="k"/><path d="m247.15 326.68-1.62-7.79 5 5.72-3.38 2.07z" class="ck"/><path d="m233.89 312.19 18.9-5.85-7.26 12.55-11.64-6.7zM229.33 304.52h3.73l3.4-1.78.86 1.44-3.78 2.44-4.5-.28.29-1.82zM245.08 300.03l4.16-.05 2.92-2.15 1.11 1.44-3.74 2.68-4.69-.19.24-1.73z" class="bn"/><path d="m223.68 276.4 14.44 10.58 6.67-16.55-21.11 5.97zM219.06 277.7l-8.91 20.13-12.26-3.57 3.07-20.94 18.1 4.38zM252.02 268.39l13.8-8.83 10.46 18.02-9.96 7.99-14.3-17.18z" class="k"/><path d="m336.68 283.79 7.19 20.12-12.83 18.29-9.7-18.29 15.34-20.12z" class="cm"/><path d="m311.89 268.39 24.79 15.4-12.39 21.09-8.91 5.23-21.29-15.09 17.8-26.63z" class="au"/><path d="m294.09 295.02 16.08 18.38 5.21 5.49 15.66 3.31-6.75-17.32-30.2-9.86z" class="l"/><path d="m310.17 313.4-11.54 4.05-3.97 5.34 11.06 5.84 25.32-6.43-20.87-8.8z" class="ag"/><path d="m305.72 328.63-7.09-11.18-6.75 2.37-1.62 6.86 15.46 1.95z" class="ck"/><path d="m350.38 320.11-24.64-11.5 5.3 13.59 8.05 3.5 11.29-5.59z" class="k"/><path d="m366.09 312.19-8.73 15.64-22.97 3.09-3.35-8.72 35.05-10.01z" class="s"/></g></svg>