<svg xmlns="http://www.w3.org/2000/svg" id="a" viewBox="0 0 900 420"><defs><style>.aa,.ab,.ac,.ad,.ae,.ag,.ah,.ai,.aj,.am,.ao,.ap,.aq,.aw,.az,.ba,.bb,.bc,.be,.bf,.bg,.bi,.bj,.bl,.bm,.bn,.bo,.bq,.br,.bs,.bw,.bz,.cb,.cc,.cd,.i,.j,.k,.l,.m,.o,.p,.q,.s,.t,.u,.v,.w,.y,.z{stroke-width:0}.ap,.i{fill:#576071}.aa,.ab,.ac,.aj,.am,.ap,.aq,.az,.be,.bg,.bo,.br,.bs,.cb,.cd,.j,.k,.l,.m,.p{fill-rule:evenodd}.bi,.j{fill:#67acc3}.k{fill:#51596a}.l,.t{fill:#4298b4}.ag,.m{fill:#4fa9aa}.be{fill:#89909b}.o{fill:#1d2432;opacity:.1}.bn,.p{fill:#3b88a1}.q{fill:#545c6d}.aa,.s{fill:#72cbcc}.br,.u{fill:#359496}.az,.v{fill:#317186}.w{fill:#8b6651}.y{fill:#dfbda5}.bs,.z{fill:#8dc1d2}.ab{fill:#68707f}.ac{fill:#787f8d}.ad{fill:#7bb7ca}.ae{fill:#9a9fa9}.ah{fill:#c3987b}.ai{fill:#2e6a7d}.aj{fill:#5f6878}.am{fill:#d9eaf0}.ao{fill:#454d5d}.aq,.bq{fill:#388199}.cc{fill:#55a2bb}.aw{fill:#bbbfc6}.ba,.bg{fill:#343c4b}.bb{fill:#dddfe2}.bc{fill:#404857}.bl{fill:#2a6275}.bf,.cb{fill:#3e90aa}.bj,.cd{fill:#4b5464}.bm{fill:#245362}.bo,.bw{fill:#1e7678}.bz{fill:#232a38}</style></defs><g id="b"><path d="m346.4 328.99-108.69 3.72 41.24-18.19 107.92-12.25 46.82 4.5-21.63 12.74-65.66 9.48zM306.3 333.81l-119.26 14.33-4.11 7.74 67.86 5.79 1.14 18.68 55.81-12.22-17.52-5.22 134.74-12.23 3.51-6.37 6.84 4.58 61.5-6.04-190.51-9.04zM118.66 388.11l39.43-27.12 32.18 7.14 3.03 5.7-19.81 5.18-54.83 9.1z" class="o"/><path d="M191.57 381.28 224 364.44l14.15 8.07-3.45 5.83-43.13 2.94zM630.34 361.51l-68.53-18.15-51.13 1.23-79.25 10.92-43.96 5.48 16.94 19.87 37.74 12.96 26.16.05 125.51-7.37 36.52-24.99zM888.33 363.4l-106.08 8.63-10.83-9.78-12.64 7.2-113.34-13.38-10.77-11.81 81.13-15.25 121.41 7.01 34.44 8.39 16.68 18.99z" class="o"/></g><g id="c"><path d="m242.26 38.13 16.38 248.49-77.3 2.13-14.82-230.44 75.74-20.18z" class="bl"/><path d="m229.09 56.48 19.25 253.82 61.78-4.48-6.72-257.4-74.31 8.06z" class="bm"/><path d="m295.66 121.56-62.74-14.66-66.4 7.33 3.48 25.96 118.78-12.38 6.88-6.25zM300.13 199.87l-61.22-12.68-66.52 5.6 1.2 28.17 122.07-14.19 4.47-6.9zM305.27 289.93l-59.68-15.94-65.86 5.42 1.61 30.89 111.02-9.3 12.91-11.07z" class="cc"/><path d="m267.14 155.26-31.29-9.72-17.48 2.26-1.54 3.92-15.44-1.72-22.51 2.92-2.46 2.34-9.9-.74 7.07 13.66 44.46-.35 35.07-5.7 14.02-6.87z" class="am"/><path d="m251.14 156.98-32.77-9.18-16.98 2.2 29.1 10.34 12.77 1.79 7.88-5.15zM210.74 163.44l-31.86-10.52-12.36 1.6 26.02 11.19 9.81 2.24 8.39-4.51z" class="bs"/><path d="m173.59 168.18 18.95-2.47 8.2 14.92-4.9 20.41-20.14 1.18-2.11-34.04z" class="p"/><path d="m192.54 165.71 18.2-2.27 5.37 18.08-3.53 16.72-16.74 2.8-3.3-35.33z" class="br"/><path d="m210.74 163.44 19.75-3.1 7.11 14.47-4.63 20.89-20.39 2.54-1.19-22.57 1.45-2.86-1.74-2.56-.36-6.81z" class="aj"/><path d="m211.1 170.25 19.92-2.42 2.89 1.29-2.51 4.08-20.01 2.47-.29-5.42zM199.89 170.97l4.14-.79.78 9.11-4.07.93-.85-9.25z" class="aa"/><path d="m179.74 173.32 5.93 4.03-5.93 4.89v-8.92z" style="fill:#7bb7ca;fill-rule:evenodd;stroke-width:0"/><path d="m230.49 160.34 20.65-3.36 7.05 12.91-4.18 23.5-21.04 2.31-1.08-15.48 2.02-2.44-2.29-1.44-.22-3.14 3.29-2.94-3.67-2.43-.53-7.49z" style="fill:#347990;fill-rule:evenodd;stroke-width:0"/><path d="m231.02 167.83 20.77-2.57 2.22 1.72-1.83 3.2-20.78 3.02-.38-5.37zM231.62 176.34l20.85-2.57 2.44 1.9-2.13 2.11-20.89 2.44-.27-3.88z" class="l"/><path d="m251.14 156.98 16-1.72-.9 37.59-12.23.54-2.87-36.41z" class="br"/><path d="m257.67 162.5 3.95-.37-.07 14.32-3.51.45-.37-14.4z" class="aa"/><path d="m261.62 76.48-21.33-10.25L221 63.05l-21.64 2.24 11.38 7.46 20.46 11.49 30.42-7.76zM205.59 78.86l-7.12-9.02-13.39-1.79-11.49 4.55 3.73 4.36 12.94 9.51 15.33-7.61z" class="bs"/><path d="m270.13 72.75-35.81-11.19L221 63.05l31.07 11.49 7.33 2.72 10.73-4.51zM230.62 76.62l-31.26-11.33-14.28 2.76 20.51 10.81 11.12 4.7 13.91-6.94zM187.02 80.65l-13.43-8.05-11.94-.53 6.38 9.78 9.29 6.12 9.7-7.32z" class="am"/><path d="m168.03 81.85 18.99-1.2 9.99 17.91-6.41 25.25-19.73 2.19-2.84-44.15z" class="m"/><path d="m187.02 80.65 18.57-1.79 8.88 18.62-4.7 24.08-19.17 2.25-3.58-43.16z" class="br"/><path d="m168.84 94.39 19.14-2.07 4.56 2.07-4.13 3.09-19.12 3.86-.45-6.95z" class="aq"/><path d="m187.98 92.32 18.75-1.82 4.01 2.18-3.39 4.15-18.94.65-.43-5.16z" class="m"/><path d="m205.59 78.86 25.03-2.24 5.79 19.11-3.44 22.23-23.2 3.6-4.18-42.7z" class="az"/><path d="m215.81 88.26 3.14-4.02 4.03 3.58-3.44 3.88-3.73-3.44zM216.71 98.11l3.28-3.73 4.03 3.43-3.88 4.48-3.43-4.18z" class="m"/><path d="m252.07 74.54 18.06-1.79-.82 7.9-2.73 1.94 2.36 1.65-.38 3.73-2.76 2.53 2.31 1.82-2.3 22.26-11.8 1.29-7.87-18.97 5.93-22.36z" class="az"/><path d="m269.31 80.65-16.86 1.94-2.95 1.65 3.13 2.23 16.31-2.23.37-3.59zM268.56 87.97l-15.78 1.54-3.28 2.81 3.5 1.99 15.11-1.99.45-4.35z" class="j"/><path d="m230.62 76.62 21.45-2.08 1.94 41.33-21.04 2.09-2.35-41.34z" class="br"/><path d="m238.49 83.34 6.57-.75.45 5.38-6.57.59-.45-5.22z" style="fill:#94d5d5;fill-rule:evenodd;stroke-width:0"/><path d="M154.84 54.69 90.9 45.02 72.32 323.27l100.9 11.44 6.04-25.16-13.71-210.09-10.71-44.77z" style="fill:#347990;stroke-width:0"/><path d="m109 70.91 25.71 4.3 11.04 237.66-50.45-7.86L109 70.91z" class="t"/><path d="m90.9 45.02 118.5-18.08 102.49 11.19-16.18 6.89-122.57 15.34-18.3-5.67-63.94-9.67z" class="ad"/><path d="M311.89 38.13 154.84 54.69l18.39 280.02 151.76-12.33-13.1-284.26ZM188.63 301 173.58 72.6l118.53-13.16 13.16 230.49L188.64 301Z" class="v"/><path d="M301.02 132.28 172.69 147.8l-.3-14.02 123.27-12.22 5.36 10.72zM300.13 199.87l-120.87 13.02v12.97l126.01-15.66-5.14-10.33z" class="v"/></g><g id="d"><path d="m606.85 115.43-1.8 22.93 1.63 5.49 2.47-4.59 1.69-24.57-3.99.74z" style="fill:#c6e0e8;stroke-width:0"/><path d="m604.26 148.36 4.21.75.68-9.85-4.1-.9-.79 10z" class="bi"/><path d="M589.69 310.02 586.07 322l35.48 4.93 8.79-10.64-14.76-5.02-25.89-1.25z" class="bw"/><path d="m621.55 326.93 44.42-8.46-2.34-11.17-25.67.87-15.24 8.98-1.17 9.78z" class="bw"/><path d="m589.69 310.02 33.03 7.13 40.91-9.85-39.91-4.37-34.03 7.09z" class="s"/><path d="m637.96 114.36-9.55 193.91-8.69.94 3-182.25 15.24-12.6z" class="v"/><path d="m588.97 39.64 43.32 10.66 7.76 26.26-17.33 50.4-54.29-10.3 5.8-21.76 6.29-7.75-.64-13.43 5.05-18.92 4.04-2.11-2.84-2.39 2.84-10.66z" class="z"/><path d="m632.29 50.3 39.98-10.76 2.8 13.15-2.8 2.09 3.55 1.45 3.73 17.49-2.86 12.74 7.19 7.58 4.82 22.62-65.98 10.3 9.57-76.66z" class="cc"/><path d="m588.97 39.64 43.92-7.54 39.38 7.44-39.98 10.76-43.32-10.66z" style="fill:#a0cbd9;stroke-width:0"/><path d="m612.9 40.75 20.29-4.18 16.71 3.29-20.59 4.77-16.41-3.88z" class="cc"/><path d="m579.88 73.72 11.04 2.17 1.09 3.96 2.64-3.23 6.8 1.34 1.3 3.23 2.21-2.54 7.94 1.56.22 3.09 2.98-2.46 12.08 2.38 7.14 7.09-10.11 16.7-13.5-3.21-1.13-3.54-3.25 2.5-6.58-1.56-1.28-3.91-2.93 2.91-7.57-1.8-.32-3.95-2.84 3.2-11.58-2.75 5.65-21.18z" class="ag"/><path d="m585.81 97.65 5.11-21.76 3.73.73-5.68 21.78-3.16-.75zM596.54 100.2l4.91-22.24 3.51.69-4.21 22.55-4.21-1zM607.33 102.76l5.57-22.55 3.2.63-4.39 22.96-4.38-1.04zM628.18 83.22l9.78-1.81 2.09 1.42 1.89-2.16 10.94-2.02 1.67 2.02 2.13-2.72 8.77-1.62 2.66 1.06 1.07-1.75 10.37-1.92 4.33 20.32-11.61 2.56-1.55-2.5-1.54 3.19-9.99 2.21-1.9-1.1-1.58 1.86-11.29 2.5-2.13-1.56-2.24 2.53-14.84 3.28 2.97-23.79z" class="u"/><path d="m637.96 81.41 2.09 22.32 4.37-.97-2.48-22.09-3.98.74zM652.88 78.65l2.83 21.61 3.48-.76-2.51-21.55-3.8.7zM665.45 76.33l3.73 20.96 3.09-.69-3.09-20.96-3.73.69z" class="bw"/><path d="m586.13 50.3 44.93 9.85 4.82 3.13-5.54 2.65-45.41-11.13 1.2-4.5z" class="cc"/><path d="m631.06 60.15 44.01-7.46.75 3.54-45.48 9.7.72-5.78z" class="bn"/></g><g id="e"><path d="m291.34 343.66 13.58-1.79 11.93-69.51-23.99 5.6-1.52 65.7z" class="bm"/><path d="m182.93 355.88 11.49-2.44-1.34-80.27h-17.41l-3.18 39.6 10.44 43.11z" class="bl"/><path d="m177.93 297.77 91.93 12.47v-32.36l-86.93-4.71h-11.94l6.94 24.6z" style="fill:#abafb8;stroke-width:0"/><path d="m427.87 270.69-2.91 79.99-12.31-2.24-7.99-82.45 23.21 4.7z" class="v"/><path d="m294.47 308.15 136.74-12.84v-29.32l-133.75 16.28-2.99 25.88z" class="ae"/><path d="m424.96 350.68 10.35-1.79 7.74-76.62-9.04-9.41-14.65 8.26 5.6 79.56z" class="bl"/><path d="m158.09 278.13 9.3 75.31 15.54 2.44-7.26-82.71-17.58 4.96z" class="bq"/><path d="m278.58 367.07 11.64-3.16 14.7-87.38-23.6 14.03-7.44 22.21 4.7 54.3z" class="bl"/><path d="m281.32 290.56-2.74 76.51-14.6-2.27-5.57-84.9 22.91 10.66z" class="bq"/><path d="m155.15 253.98 1.23 10.08 2.64 3.54-1.99 1.85 1.06 8.68 123.23 12.43 23.6-29.84-149.77-6.74z" class="ag"/><path d="m281.32 290.56 161.73-18.29.71-7-3.28-2.22 3.82-3.09.92-9.14-78.3 3.16-74.24 6.74-10.97 11.64-.39 18.2z" class="u"/><path d="m155.15 253.98 123.5-18.26 120.92 11.48 45.65 3.62-89.68 11.59-73.83 9.95-126.56-18.38z" class="s"/><path d="m156.38 264.06 125.18 15.24 3.51 1.47-3.57 1.5-124.47-12.82-.65-5.39z" class="u"/><path d="m281.56 279.3 162.74-19.34-.54 5.31-162.26 17 .06-2.97z" class="bw"/><path d="m165.1 284.57 4.33.6.74 7.01-4.32-.3-.75-7.31zM266.72 295.02l5.52 1.04-.3 8.65-4.78-.74-.44-8.95z" class="cc"/><path d="m288.2 295.31 5.23-.74-1.2 8.8-4.62.75.59-8.81zM428.47 280.24l5.22-.59-.45 9.25-4.18.15-.59-8.81z" class="bf"/><path d="m372.06 251.86-17.98 5.54-41.81 3.06 41.56-11.07 18.23 2.47z" class="o"/><path d="m312.27 260.46 42.08-6.12-.52-4.95-1.64-.89 1.36-1.78-.42-3.93-46.03 2.9 5.17 14.77z" style="fill:#ecf4f7;stroke-width:0"/><path d="m353.83 249.39-22.48 2.24 22.2-4.91.28 2.67z" style="fill:#b3d5e1;stroke-width:0"/><path d="m311.95 248.22-12.61-5.29-30.44.9-.52 11.5 11.92 1.39 3.74-2.15 2.61 2.89 25.62 3-.32-12.24z" class="q"/><path d="m280.3 256.72 1-11.62 4.16-.68 2.32 1.34-1.13 11.7-6.35-.74z" style="fill:#89909b;stroke-width:0"/><path d="m268.9 243.83 47.15-8.89 37.08 7.85-41.18 5.43-43.05-4.39z" style="fill:#787f8d;stroke-width:0"/></g><g id="f"><path d="m839.5 360.58-18.3-1.46-5.86-20.41 24.87 1.64-.71 20.23z" class="i"/><path d="m782.25 372.03 15.49-3.52 4.92-21.82-19.76 12.06-5.34 4.83 4.69 8.45zM645.44 356.07l13.14-2.58 7.51-15.25-17.83.94-7.51 7.98 4.69 8.91zM855.93 344.89l.47 12.18-16.9 3.51-7.5-20.7 23.93 5.01z" class="ao"/><path d="m620.8 342.38 1.18 10.88 23.46 2.81 2.82-16.89-27.46 3.2zM782.9 358.75l-.65 13.28-23.47-2.58-4.22-19.01 28.34 8.31z" class="i"/><path d="m613.29 257.36 7.51 85.02 162.1 16.37 22.34-48.2-17.36-24.21-87.29-24.86-87.3-4.12z" class="aq"/><path d="m787.88 286.34 65.24-13.16 2.81 71.71-73.03 13.86 4.98-72.41z" class="az"/><path d="M797.24 299.4h23.17l20.35-8.48 2.81 41.79H819l-20.77 9.15 5.61-24.14-6.6-18.32z" style="fill:#abafb8;fill-rule:evenodd;stroke-width:0"/><path d="m797.24 299.4 18.56 3.64 6.07 12.12-4.19 13.35-19.45 13.35-.99-42.46z" style="fill:#9a9fa9;fill-rule:evenodd;stroke-width:0"/><path d="m821.87 315.16 21.7 17.55-45.34 9.15 23.64-26.7z" class="ac"/><path d="m797.24 299.4 24.63 15.76 18.89-24.24-43.52 8.48z" style="fill:#cccfd4;fill-rule:evenodd;stroke-width:0"/><path d="m787.88 286.34-190.54-21.35 1.12-9.55 4.51-1.68-3.94-3.16 1.01-8.49 53.85-1.49 151.35 14.82-17.36 30.9z" class="m"/><path d="m789.11 264.99 16.13-16.16 66.49-4.22.49 10.83-3.38 3.95 3.68 2.74.44 9.82-85.08 14.39 1.23-21.35z" class="br"/><path d="m599.03 250.6 189.61 22.58h5.58l-5.9 5.44-189.86-23.18.57-4.84z" class="br"/><path d="m788.64 273.18 83.58-17.74.3 6.69-84.2 16.49.32-5.44z" class="bo"/><path d="m600.04 242.11 93.18-20.03 178.51 22.53-82.62 20.38-189.07-22.88z" class="aa"/><path d="m632.3 280.98 65.71 7.51-4.93 48.11-60.07-6.81-.71-48.81zM707.63 290.37l63.82 7.51-3.05 46.93-64.53-6.81 3.76-47.63z" class="j"/><path d="m680.64 303.98 6.1.7-1.17 11.5-6.34-.7 1.41-11.5zM716.78 307.97l5.87.94-1.18 10.56-6.33-.71 1.64-10.79z" class="aq"/><path d="m871.73 244.61-20.46 5.05-59.17.59-5.16-9.98-23.23 6.33-33.09-4.45 7.04-7.8 38.03-2.12 59.64 7.79 36.4 4.59z" style="fill:#1d2432;opacity:.1;fill-rule:evenodd;stroke-width:0"/><path d="m646.54 155.71 42.31-6.49 27.69 4.23 29.1 8.68-17.83 19-64.3-15.25-16.97-10.17z" class="am"/><path d="m668.75 158.53 47.79-5.08 19.25 1.87-41.07 8.89-13.84.97-12.13-6.65z" class="bs"/><path d="m759.72 144.29-43.18 9.16 27.22 9.85 43.18-14.31-27.22-4.7z" class="am"/><path d="m644.1 232.44 1.41-44.27 2.87-1.83-2.73-2.56.15-4.69 2.11-2.88-1.95-2.36.58-18.14 22.21 2.82 6.26 30.87-12.83 44.95-18.08-1.91z" class="m"/><path d="m645.96 173.85 21.16 3.54 5.54 3.74-6.14 3.2-20.72-5.24.16-5.24zM645.65 183.78l20.56 4.12 2.54 1.68-2.95 2.99-20.29-4.4.14-4.39z" class="bs"/><path d="m668.75 158.53 25.97 5.68 2.35 14.81-2.35 41.3-7.51 16.6-25.03-2.57 6.57-75.82z" class="p"/><path d="m674.66 181.49 4.69-3.76 3.64 6.1-5.4 3.17-2.93-5.51zM673.25 195.68l4.46-3.4 3.28 5.28-4.81 3.4-2.93-5.28z" class="bs"/><path d="m694.72 164.21 24.64 5.66-8.45 69.46-23.7-2.41 7.51-72.71z" class="k"/><path d="m702.54 178.71 5.01 1.09-1.1 9.86-5.16-1.09 1.25-9.86zM700.67 194.98l4.69 1.09-.78 8.3-4.7-1.1.79-8.29zM699.1 209.84l4.69 1.25-.93 9.08-5.17-.94 1.41-9.39z" class="be"/><path d="m710.91 239.33 5.63-85.88 21.36 3.75 2.91 11.97-4.22 55.94-5.97 17.04-19.71-2.82z" class="az"/><path d="m741.47 160.56 5.3-4.85 40.17-6.72 5.16 84.71-47.81 6.57-8.98-5.92 6.16-73.79z" style="fill:#2a6275;fill-rule:evenodd;stroke-width:0"/><path d="m723.11 164.94 6.57 1.18-1.87 15.01-6.1-1.4 1.4-14.79z" style="fill:#55a2bb;fill-rule:evenodd;stroke-width:0"/><path d="m737.9 157.2 8.87-1.49-.37 12.64-1.85 1.83 1.75 1.68-.28 9.27-1.79 2.65 1.66 1.87-.34 11.56-1.94 2.15 1.84 1.25-.31 10.74-1.92 2.96 1.79 1.21-.28 9.79-3.26 2.42 3.15 1.28-.33 11.26-13.67 1.88.94-10.97 3.37-2.94-3.02-1.12.84-9.85 3.04-2.27-2.7-1.61.84-9.84 2.61-2.59-2.22-2.03.99-11.47 2.04-3.13-1.61-1.96.8-9.33 2.16-2.35-1.88-.94 1.08-12.55z" class="br"/><path d="m736.82 169.75 9.58-1.4-.1 3.51-9.76 1.18.28-3.29zM735.74 182.37l10.28-1.24-.13 4.52-10.58 1.81.43-5.09zM734.32 198.93l11.23-1.72-.1 3.4-11.52 2.94.39-4.62zM733.09 213.39l12.05-2.04-.13 4.17-12.26 1.75.34-3.88zM731.91 227.12l12.82-1.81-.11 3.7-13.06 2.17.35-4.06z" class="bo"/><path d="m767.7 170.69 48.35-7.83 22.75 4.66-43.18 19.17-27.92-16z" style="fill:#a0cbd9;fill-rule:evenodd;stroke-width:0"/><path d="m767.7 170.69 27.22 4.98 6.34 8.83v44.9l-9.16 20.85-28.39-3.65 1.78-33.94 4.48-4.85-4-4.26.37-6.93 6.29-4.05-5.85-4.4.92-17.48z" class="p"/><path d="m766.78 188.17 27.51 4.11 4.31 2.75-4.64 5.93-27.62-4.34.44-8.45zM765.97 203.55l27.74 4.08 4.89 2.21-5.21 6.43-27.9-3.61.48-9.11z" class="j"/><path d="m792.1 250.25 43.23-10.23 3.47-72.5-43.88 8.15-2.82 74.58z" class="az"/><path d="m807.98 185.59 17.05-3.75-.31 4.69-16.89 3.6.15-4.54z" class="j"/></g><g id="g"><path d="m537.28 379.69-17.79-2.92-5.97-15.65 23.76-1.99 1.24 11.99-1.24 8.57z" class="i"/><path d="m559.78 359.78-1.84 15.98-20.66 3.93-5.74-20.73 28.24.82zM468.31 393.87l19.54-4.25 4.48-18.5-19.7 8.2-2.39 4.03-4.84 3.58 2.91 6.94z" class="bc"/><path d="m470.24 383.35-1.93 10.52-20.45-6.34-.29-11.94 13.87.52 8.8 7.24z" class="i"/><path d="m586.63 160.13-37.14-12.06L518.22 138l-18.73 21.53 68.04 23.87 19.1-23.27z" class="ad"/><path d="m561.86 175.35-67.14-20-24.8-5.63-19.59 108.23 96.02 31.4 22.08-67.15-6.57-46.85z" class="cc"/><path d="m540.35 184.02-26.83 87.72-39.69-14.62 31.93-83.86 34.59 10.76z" class="bn"/><path d="m528.46 180.32-5.11 27.88-22.64 4.19-5.99-36.15 19.42-29.53 35.35 1.36-21.03 32.25z" class="o"/><path d="m362.81 347.24 3.77 12.42 7.57 2.07 8.6 2.43 1.62-11.79-7.23-9.01-14.33 3.88z" class="i"/><path d="m384.37 352.37 83.34-24.6-12.53-78.12-76.78 20.37-5.14 17.91 11.11 64.44z" class="ai"/><path d="m404.41 360.99 43.16 14.6 15.22-48.64-68.64-15.82 10.26 49.86z" class="u"/><path d="m404.41 360.99 9.11 3.08 3.95-36.7 22.16 45.54 7.94 2.68 15.22-48.64-68.64-15.82 10.26 49.86z" class="o"/><path d="m355.54 262.41 7.27 84.83 21.56 5.13-3.28-77.67-6.42-12.5-19.13.21z" class="cc"/><path d="m355.54 262.41 25.55 12.29 68.04-20.72-30.22-10.67-63.37 19.1z" class="ad"/><path d="m403.3 263.01-4.13 6.18-18.08 5.51-4.72-2.27 13.89-10.59 13.04 1.17z" class="y"/><path d="m394.56 260.72-1.23 4.55-5.49 4.71-11.47 2.45 13.89-10.59 4.3-1.12z" class="ah"/><path d="m394.55 249.52-15 2.34 2.36 7.89 11.42 5.52 9.97-2.26-1.32-9.03-7.43-4.46z" class="ah"/><path d="m449.13 199.05-29.65 35.02 8.99 9.68 7.33 2.81 16.67-19.07-3.34-28.44z" class="bw"/><path d="m419.48 234.07-18.53 8.54 2.2 11.97 10.37 4.99 24.79-7.71-2.51-5.3-16.32-12.49z" class="u"/><path d="m404.46 244.95 9.06 14.62-10.22 3.44-8.75-13.49 9.91-4.57z" class="bb"/><path d="m393.33 265.27-16.96 7.16-9.45-4.54 12.63-16.03 13.78 13.41z" class="y"/><path d="m426.97 278.13 14.28 35.74 53.47-8.41-24.91-18.8-42.84-8.53z" class="ba"/><path d="m435.8 246.56-8.83 31.57 67.75 27.33 9.1-32.08-36.54-13.87-31.48-12.95z" class="bw"/><path d="m461.15 197.86-12.02 1.19 6.72 24.75 17.13 21.78 28.63-15.96 21.74-21.42-8.93-5.64-37.09 5.95-16.18-10.65z" class="aw"/><path d="m454.39 68.53 28.07 6.92 16.1 7.77 14.21-4.18 20.2.81-5.48 10.19-8.86 4 4.62 12.97-1.9 12.84-5.43 15.61-9.46 12.27 3.93.62 3.03 3.29 1.34-9.19 7.82-8.7 10.5 2.72 6.61 4.55-11.11 17.29-7.86 8.78-.53 6.57-5.34 8.16-3.31 3.69.3 4.1-13.29 7.51-20.59 7.28-5.36-5.95 2.49-8.84-4.34-10.94-37.65-9.61 8.15-43.97-1.37-8.62 3.76-14.95 3.73-4.14 7.02-28.85z" class="y"/><path d="m515.76 81.53-10.08 29.72-4.37 9.52-2.67 18.08-12.35 43.48-15.54-3.66 1.2 6.18-1.71 6.59 5.69 17.99 35.91-19.82 8.84-16.65 5.86-14.73-13.12-6.59 3.63-7.08 1.17-6.56-5.58 1.81 8.71-19.96.42-12.11-3.14-13.7 7.73-5.49 6.61-8.7-12.3-1.2-4.91 2.88z" class="ah"/><path d="m526.54 158.23-13.12-6.59 7.26 21.32 5.28-8.43.58-6.3zM470.75 178.67l22.07 5.17-14.86 20.56-5.88-6.16-1.84-6.8.51-12.77z" class="w"/><path d="m493.95 130.89-.69-12.49-11.92-3.38-6.37 12.6 23.67 11.23-24.97-3.57-4.97 4.09-.52-10.36 11.39-20.38 18.99 2.62.73 12.93-5.34 6.71zM455.2 120.77l.17-10.8-10.78-3.99-3.16 1.52-.04 14.1 19.32 8.09.05 4.42-19.51-9.02-2.88-12.11 4.58-13.86 4.42-1.74 2.91-1.36 8.28-3.63 7.98 7.1.74 2.65-4.62 3.44-2.28 15.86-5.18-.67z" class="ah"/><path d="m477.4 110.56-13.57-4.6-3.1 23.73-1.77 7.58 4.06 3.04 5.68-.94 1.74-7.65 6.96-21.16z" style="fill:#e8cab6;stroke-width:0"/><path d="m477.4 150.99-15.86.11-12.3-5.86-.09 3.78 11.4 5.36 15.22.43 1.63-3.82zM520.31 149.45l6.22-10.8 5.82 2.93-12.04 7.87z" class="w"/><path d="m454.39 68.53 53.96-4.3-4.09 11.57-5.7 7.42-44.17-14.69z" class="bb"/><path d="m532.97 79.85 11.43 6.06 1.9 23.14-13.14-4.35-14.53-10.66 14.34-14.19z" class="aw"/><path d="m546.3 109.05 3.7 39.5-16.92-12.08-13.18-13.31-1.27-29.12 27.67 15.01z" class="bb"/><path d="m521.34 126.6-6.95 6.55-4.28 7.88 6.94 3.53 5.88-11.46 14.56 8.49-10.95 16.64-5.86 14.73 28.81-24.89-7.52-6.5-20.63-14.97z" class="ae"/><path d="m498.56 83.22 9.79-18.99 24.62 15.62-34.41 3.37z" class="aw"/><path d="m515.86 130.18-14.55-9.41-.6 4.06.6 3.25 13.08 5.07 1.47-2.97z" class="w"/><path d="m522.58 133.75-5.7-5.63-2.49 5.03 7.04 2.92 1.15-2.32z" style="fill:#737373;stroke-width:0"/><path d="m511.84 189.61 2.58 12.95-29.92 13.05-9.41.18-7.74-6.54-6.2-11.39 9.09-6.42 7.72 12.96 33.88-14.79z" class="bb"/><path d="m477.96 204.4 6.54 11.21-10.87 4.77-6.28-11.13 10.61-4.85z" class="bj"/><path d="m473.63 220.38 8.14 11.39-13.65 13.52-5-21.49 10.51-3.42z" class="bj"/><path d="M483.01 119.44c-.07 1.64 1.27 2.95 2.78 3.01 1.64.07 3.01-1.13 3.08-2.78s-1.2-2.95-2.85-3.02c-1.51-.06-2.95 1.13-3.01 2.78ZM447.17 111.35c-.07 1.64 1.13 2.95 2.78 3.01 1.51.06 2.94-1.13 3.01-2.78s-1.27-2.89-2.78-2.95c-1.65-.07-2.95 1.13-3.01 2.71Z" class="bz"/><path d="m523.35 208.2-52.34 29.66-7.89-14.06-13.99-24.75-13.33 47.51 42.39 27.91 25.63-1.09 15.49-47.88 4.04-17.3z" style="fill:#185e60;stroke-width:0"/><path d="m468.7 139.37-5.9 3.98-3.84-6.08 9.74 2.1z" class="w"/><path d="m479.22 105.04 13.6-2.28 7.89 7.32-11.84 1.17-9.65-6.21zM449.48 93.04l9.79-2.73 8.37 5.7-1.1 3.48-8.12-5.04-8.14 1.57-.8-2.98z" class="bb"/><path d="m476.89 111.73.51-3.72-.45-3.51-9.67-2.36-2.95 2.98-.05 3.67 12.61 2.94zM505.68 111.25l36.29 30.32-4.55 9.97.07-9.95-34.93-18.33-1.85-5.07 4.97-6.94z" class="v"/><path d="m470.45 131.73 28.19 7.13 7.04-27.6-28.73-6.75-6.49 27.23Zm23.5-.84-15.47-3.78 3.41-14.36 15.41 3.65-3.35 14.5ZM460.71 129.69l-27.94-6.72 6.37-27.5 28.14 6.66-6.57 27.55Zm-15.65-25.61-3.25 13.71 13.39 2.97 3.17-13.45-13.32-3.24Z" class="bq"/><path d="M404.41 360.99v13.7l-20.53 3.08-23.69-3.08 13.96-12.96 13.16-9.36 17.1 8.62z" class="t"/><path d="M404.42 380.86H360.2v-6.17h44.22z" class="v"/><path d="m391.36 352.37-11.39 13.19-5.82-3.83 10.22-9.36h6.99z" class="bi"/><path d="m439.63 372.91 2.52 14.74-22.87 3.09-14.34-3.09L419 365.93l10.66-3.13 9.97 10.11z" class="t"/><path d="M442.15 393.82h-37.2v-6.17h37.2z" class="v"/><path d="m431.43 365.33-3.2 15.53-6.99-.32 5.54-16.38 4.65 1.17z" class="bi"/><path d="m426.97 278.13-38.32 21.04 27.64 17.58 12.2 1.17 16.56-11.64-18.08-28.15z" class="bc"/><path d="m388.65 299.17-4.28 53.2 20.04 8.62 18.09-46.58-33.85-15.24z" class="ba"/><path d="m494.72 305.46-51.63-2.23-26.24 8.64 19.12 17.39 15.42-2.87 39.26-5.41 4.07-15.52z" class="i"/><path d="m416.85 311.87 2.15 54.06 20.63 6.98 11.76-46.52-34.54-14.52z" class="bc"/><path d="m364.9 275.92 8.65 3.58 3.59 63.86-7.76-2.09-4.48-65.35z" class="bw"/><path d="m496.21 289.35-25.97 94-22.67-7.76-1.47-89.74 26.34-3.3 23.77 6.8z" class="cc"/><path d="m446.1 285.85 32.09-11.38 29.58-9.12 30.75 10.25-31.87 23.59-22.15-5.37-38.4-7.97z" class="ad"/><path d="m513.46 279.3 13.47-7.56 10.7-54.98-21.46 18.96-11.07 19.36 8.36 24.22z" class="o"/><path d="m523.35 208.2 14.28 8.56-24.17 62.54-10.93-7.93-11.88-14.11 32.7-49.06z" class="bw"/><path d="m446.1 223.86 9.42.95-2.62 15.9-15.87 1.47-.45-3.08 3.99-2.06 9.51-.25 1.13-8.04-9.09-1.07 3.98-3.82z" class="bn"/><path d="m446.1 223.86-27.34-4.15-3.54 15.11 12.62 3.29 18.26-14.25z" class="ag"/><path d="m391.72 223.86 27.04-4.15 2.48 10.75-9.13 7.65-20.39-14.25z" class="bw"/><path d="m405.59 226.96 14.35-2.15 14.48 2.15 2.55 4.02-19.23 6.66-12.15-10.68z" class="q"/><path d="m394.68 232.67 4.89 14.53 18.17 3.77 8.36-9.77-4.86-10.74-26.56 2.21z" class="z"/><path d="m421.24 230.46 22.81-.38-8.25 16.48-18.06 4.41 3.5-20.51z" class="cc"/><path d="m391.72 223.86 29.52 6.6 3.3 4.14-4.6 3.51-25.26-5.44-2.96-8.81z" class="u"/><path d="m421.24 230.46 24.86-6.6 1.09 3.79-3.14 2.43-24.11 8.03 1.3-7.65z" class="bw"/><path d="m481.77 231.77-18.65-7.97-5.26 7.97 1.64 15.86 12.13-2.05 8.48-4.7 1.66-9.11z" class="ah"/><path d="m513.46 279.3-24.75-37.12-11.79.25-3.13 12.65 4.4 19.39 35.27 4.83z" class="u"/><path d="m488.71 242.18-14.92 12.9-2.16-9.5 10.14-13.81 6.94 10.41z" class="bb"/><path d="m463.12 223.8-17.02.06-2.05 6.22 2.59 1.38-.26 1.37.84 8.41 12.28 6.39 3.62-23.83z" class="y"/><path d="m444.05 230.08 6.28 1.14-3.95 1.61-2.33-2.75z" class="ah"/><path d="m457.12 298.3 15.51 4.18-9.55 66.84-6.86-2.08.9-68.94z" class="bw"/><path d="m470.24 383.35 89.54-23.57 2.03-16.42-10.17-21.63 16.71-31.17 9.03-72.84 3.02-9.52 5.47 1.23 17.48-17.07-16.72-32.23-24.77 15.22-23.34 100.25-54.02 18.22-14.26 89.53z" class="ai"/><path d="m577.38 217.72 4.14-35.88 8.17 9.7-10.02 6.32 6.2 11.57-8.49 8.29z" style="fill:#275b6c;stroke-width:0"/><path d="m568.35 290.56-69.06 23.31-4.57 45.09 67.09-15.6 1.75-14.1-5.43-8.65 8.15-13.33 2.07-16.72z" class="u"/><path d="m566.28 307.28-52.82 16.01-2.78 19.1 52.88-13.13 2.72-21.98z" class="ai"/></g><g id="h"><path d="m236.16 352.4 22.42 6.79-24.65 18.67-12.76-10.74 14.99-14.72z" style="fill:#4b9db7;fill-rule:evenodd;stroke-width:0"/><path d="m177.97 342-12.71-5.94-17.81 7.4 17.02 26.44 10.93 1.09 23.39-2.17 6.37-9.19-13.87-11.94-13.32-5.69z" class="cd"/><path d="m177.97 342 11.25 27.71 9.57-.89 6.37-9.19-13.87-11.94-13.32-5.69z" style="fill:#3d4554;fill-rule:evenodd;stroke-width:0"/><path d="m87.37 349.37-2.88 15.46 8.35 5.07 10.15-6.41-4.25-13.39-11.37-.73z" class="ac"/><path d="m102.99 375.57-20.3-1.22 1.8-9.52 23.12-2.76-4.62 13.5z" class="cb"/><path d="m134.61 310.87 43.32-13.1 20.86 13.1-5.38 22.77-15.44 8.36-20.82 3.28-27.45-4.77-6.59-14.85 5.69-14.79h5.81z" class="ab"/><path d="m157.15 345.28 7.32 24.62-34.77-2.94 9.09-32.07 18.36 10.39z" class="aj"/><path d="m164.47 369.9-45.81 18.21v-13.65l8.4-2.47 8.22-9.92 29.19 7.83z" class="ac"/><path d="m118.66 388.11-18.36-2.91 2.69-9.63 10.89-1.11 9.23 4.55-4.45 9.1z" class="cb"/><path d="m91.2 341.02-13.29-4.96 12.37-14.3 2.56 6.21-1.64 13.05zM131.19 330.39l10.45-10.91-12.84-8.61-1.74 16.06 4.13 3.46z" class="k"/><path d="m87.37 349.37 2.91-27.61 5.4-1.52 12.31.72 12.36-7.7 9.23-2.91 9.21 24.54-23.42 14.48h-28z" class="ac"/><path d="m87.37 349.37 15.62 26.2 21.15-10.74 13.62 5.22 1.03-35.16-21.77 11.89-29.65 2.59z" class="ap"/><path d="m87.37 349.37 20.24 12.7 13.61 1.42 8.48-8.26 9.09-20.34-51.42 14.48z" class="ab"/><path d="m107.61 362.07-4.62 13.5 20.12 3.44 1.03-3.44 2.92 1.02 10.7-6.54-8.06-14.82-11.64 6.84h-10.45z" class="j"/><path d="m123.11 379.01-1.89-9.11 5.84 6.69-3.95 2.42z" class="cb"/><path d="m107.61 362.07 22.09-6.84-8.48 14.67-13.61-7.83zM102.28 353.1h4.36l3.98-2.07 1 1.68-4.42 2.85-5.26-.33.34-2.13zM120.69 347.86l4.87-.06 3.41-2.52 1.29 1.68-4.37 3.14-5.48-.23.28-2.01z" class="bg"/><path d="m95.68 320.24 16.88 12.36 7.79-19.34-24.67 6.98zM90.28 321.76l-10.42 23.52-18.33-4.17L72.7 317.5l17.58 4.26zM129.58 310.35l15.57-10.5 12 21.77-9.63 9.34-17.94-20.61z" class="j"/><path d="m227.76 328.87 8.4 23.53-14.99 21.36-11.35-21.36 17.94-23.53z" class="cd"/><path d="m198.79 310.87 28.97 18-14.49 24.65-10.4 6.11-24.9-17.63 20.82-31.13z" class="ap"/><path d="m177.97 342 18.8 21.49 6.1 6.41 18.3 3.86-7.9-20.24-35.3-11.52z" class="k"/><path d="m196.77 363.49-13.49 4.73-4.64 6.24 12.93 6.82 29.6-7.52-24.4-10.27z" class="ab"/><path d="m191.57 381.28-8.29-13.06-7.88 2.77-1.91 8.02 18.08 2.27z" class="cb"/><path d="m243.77 371.32-28.8-13.44 6.2 15.88 9.4 4.1 13.2-6.54z" class="j"/><path d="m258.58 359.19-6.65 21.16-26.85 3.61-3.91-10.2 37.41-14.57z" class="p"/></g></svg>