<svg xmlns="http://www.w3.org/2000/svg" id="a" viewBox="0 0 900 420"><defs><style>.n{fill:#576071}.aa,.ab,.ac,.af,.ag,.ah,.ai,.aj,.ak,.al,.am,.an,.ao,.aq,.ar,.as,.au,.av,.aw,.ax,.az,.bb,.bc,.bd,.bf,.bg,.bh,.bj,.bk,.bl,.bm,.bn,.bo,.bp,.bq,.n,.o,.q,.r,.t,.u,.v,.w,.x,.y,.z{stroke-width:0}.o{fill:#4b9db7}.q{fill:#89909b}.r{fill:#1d2432;opacity:.1}.t{fill:#72cbcc}.u{fill:#4298b4}.v{fill:#359496}.w{fill:#317186}.x{fill:#8b6651}.y{fill:#68707f}.z{fill:#dfbda5}.aa{fill:#8dc1d2}.ab{fill:#7bb7ca}.ac{fill:#9a9fa9}.af{fill:#4fa9aa}.ag{fill:#c3987b}.ah{fill:#2e6a7d}.ai{fill:#185e60}.aj{fill:#347990}.ak{fill:#454d5d}.al{fill:#94d5d5}.am{fill:#fff}.an{fill:#b3d5e1}.ao{fill:#51596a}.aq{fill:#2e3544}.ar{fill:#a0cbd9}.as{fill:#404857}.au{fill:#67acc3}.av{fill:#4b5464}.aw{fill:#e8cab6}.ax{fill:#2a6275}.az{fill:#3b88a1}.bb{fill:#c6e0e8}.bc{fill:#388199}.bd{fill:#5f5044}.bf{fill:#787f8d}.bg{fill:#5f6878}.bh{fill:#8e7e73}.bj{fill:#165e60}.bk{fill:#1e7678}.bl{fill:#3d4554}.bm{fill:#232a38}.bn{fill:#74665b}.bo{fill:#f5f9fb}.bp{fill:#d9eaf0}.bq{fill:#55a2bb}</style></defs><g id="b"><path d="m44.07 342.4 19.67-2.35 2.15-14.98-35.9 4.02-13.1 9.33 27.18 3.98zM142.29 403.8l10.55-2.22 10.2 3.64-11.31 3.14-9.44-4.56zM62.98 389.4l11.48-1.82 9.42 2.86-9.82 2.67-11.08-3.71zM74.36 365.96l32.27-8.01 12.39-2.25 39.04-6.84 96.03 4.78 22.72-4.26 79.35 18.25-67.09 21.67-91.12 9.24-103.99-13.13-19.6-19.45zM310.99 392.64l10.72-2.44 18.27 4.64-20.92 2.05-8.07-4.25zM400.67 337.38l70.51-13.33 109.61-9.6 144.99 24.84-58.05 22.64-58.37 8.7-64.53-12.42-19.74 2.49-4.75-4.42-11.2 4.42-108.47-23.32zM555.04 396.81l-41.53-9.34-27.1 7.37 4.09 15.28 54.33-4.64 10.21-8.67zM444.2 361.11l-54.7 3.94 15.65-11.76 31.16-3.09 16.71 3.09-8.82 7.82zM547.82 378.32l12.49-3.35 16.11 4.35-16.8 4.75-11.8-5.75zM581.12 388.98l12.52-2.04 15.72 3.45-15.45 3.24-12.79-4.65zM648.09 379.52l11.47-1.41 16.47 3.45-18.19 4.25-9.75-6.29zM791.37 391.36l-25.34-3.7-41.65 13.04 28.36 1.99 32.23-3.48 6.4-7.85zM860.04 375.56l-20.14.01-12.46 9.18 20.81.97 17.95-4.83-6.16-5.33zM736.5 358.94l-8.56-4.33 18.44-9.14 15.72-6.76 24.89-2.39 37.58 5.33-10.48 13.21-21.89 6.62-7.71-2.26-7.7 2.26-40.29-2.54zM882.34 327.82l-36.95-1.68-9.15 17.16 33.64-2.64 12.46-12.84z" class="r"/></g><g id="c"><path d="m470.24 146.18 42.44-18.52 1.02 6.74-53.92 20.85 10.46-9.07z" class="ah"/><path d="m419.77 155.99 15.7-43.19 5.16 3.84-15.58 40.71-5.28-1.36z" class="bc"/><path d="m436.91 181.66-29.43-61.43-1.12 15.34 25.98 57.57 4.57-11.48zM457.78 120.23l-14.53 151.35-7.55-36.62V197.7l15.42-75.09 6.66-2.38zM768.08 194.45l-38.41-39.2-6.1 6.22 47.8 43.16-3.29-10.18zM801.12 164.25l-9.04-25.5-3.61 1.65 9 27.71 3.65-3.86zM772.47 180.05l-24.59-39.6-3.61 2.99 28.2 46.25v-9.64z" class="ah"/><path d="m776.38 184.44 37-38.5 4.21.83-40.82 49.3-.39-11.63z" class="bc"/><path d="m773.35 139.47-5.49 4.81.3 68.09 4.31 86.82 7.61-4.49-3.02-104.66-3.71-50.57z" class="bc"/><path d="m777.5 139.47 3.57 153.5-8.6 1.44.6-76.93.28-78.01h4.15z" class="ah"/><path d="m700.47 140.95 24.05 9.9 56.93-4.91 42.93 4.12 35.97-14.69-23.55-37.73-31.67-.08-10.58-10.66-16.77-6.32 1.74-15.69-43.69 10.69-17.18 18.5-40.52 21.56 22.34 25.31z" class="bq"/><path d="m678.13 115.64 49.04 19.96 53.9-19.96 79.28 19.73-33.52 23.7-33.52-16.87-15.63 4.75-35.86 3.11-18.25 11.41-30.39-13.07-15.05-32.76zM779.52 64.89l-19.55 27.95 34.58-5.94-15.03-22.01z" class="bc"/><path d="m718.65 94.08 41.32-1.24-32.8 42.76-8.52-41.52zM836.8 97.64l-55.73 18 13.48-28.74 42.25 10.74z" class="ab"/><path d="m777.68 146.95-50.51-11.35-3.6 25.87 54.11-14.52zM781.07 115.64l45.76 43.43-49.15-12.12 3.39-31.31z" class="w"/><path d="m435.7 234.96 15.42-112.35-8.25-3.65-17.7 126.77 10.53-10.77zM445.53 163.34l37.59-44.38 6.27 2.88-36.18 45.97-7.68-4.47z" class="bc"/><path d="m334.08 98.19 77.67 26.41 48.03-5.64 68.7 6.11 41.95-24.87-39.23-54.58-60.21-20.65-22.69 13.1-31.76-2.46 3.23 15.87-9.53 4.73-6.98 10.37-42.9-4.15-26.28 35.76z" class="bq"/><path d="m334.08 98.19 78.64-6.47 22.98 14.88 24.08 1.27 51.45-25.04 36.35 22.9-19.45 34.95-70.78-15.99-25.79-3.4-25.2 14.28-72.28-37.38zM416.54 35.61l34.58 29.28-40.88-8.68 6.3-20.6zM531.2 45.62l-19.97 37.21-60.11-17.94 80.08-19.27z" class="bc"/><path d="m451.12 64.89-38.4 26.83-52.36-29.29 49.88-6.22 40.88 8.68zM470.99 24.97l-19.87 39.92-34.58-29.28 54.45-10.64z" class="ab"/><path d="m459.78 107.87-2.43 16.82-50.99 10.88 6.36-43.85 47.06 16.15zM511.23 82.83l16.9 57.85 42.3-40.48-59.2-17.37z" class="w"/></g><g id="d"><path d="m67.49 243.66-18.39-6.08 163.65-22.95 196.26 20.33 181.88-27.36 261.22 27.25-15.31 21.65-243.04-18.35-181.04 18.35-197.2-15.88-148.03 3.04z" class="au"/><path d="m835.02 243.64-244.13-26.57-28.11 41.98 33.99 50.32 239.47 33.93 10.24-58.66-11.46-41z" class="az"/><path d="m590.89 217.07-184.34 25.52-36.51 28.49 45.72 56.74 181.01-18.45-5.88-92.3z" class="aj"/><path d="m406.55 242.59-195.36-19.74-26.75 40.54 31.08 46.12 200.24 18.31-9.21-85.23z" class="az"/><path d="m211.19 222.85-143.7 20.81-8.22 28.78 4.47 67.61 151.78-30.54-4.33-86.66zM852.11 234.85l9.2 99.75-25.07 8.7-1.22-99.66 17.09-8.79z" class="aj"/><path d="m63.74 340.05-23.04-4.92 8.4-97.55 18.39 6.08-3.75 96.39zM83.88 260.64l30.03-3.82 77.66-9.98 2.83 48.02-112.44 18.37 1.92-52.59z" class="ah"/><path d="m96.83 254.77-3.78 59.9 5.85-.95 4.82-58.19-6.89-.76zM120.28 251.7l-2.6 60.14 6.14-2.13 3.77-59.66-7.31 1.65zM144.1 248.64l-1.18 57.3 5.42-1.41 5.19-58.25-9.43 2.36zM170.74 245.81l-.94 55.65 6.84-1.89-1.65-54.71-4.25.95z" class="aj"/><path d="m387.78 259.17-155.02-13.84 3.15 46.85 155.35 12.97-3.48-45.98z" class="ah"/><path d="m368.28 253.82 3.46 57.23-6.29-1.57-5.34-56.6 8.17.94zM342.18 250.99l5.66 58.17-9.12-2.83-2.82-55.96 6.28.62zM316.6 248.95l6.09 56.44-8.18-1.57-6.52-56.28 8.61 1.41zM293.76 247.22l5.35 56.28-5.03.63-5.98-57.85 5.66.94zM273.95 246.59l3.78 53.14h-6.92l-2.52-53.77 5.66.63zM252.26 243.76l4.09 53.77-6.61.31-1.88-54.71 4.4.63z" class="az"/><path d="m821.48 265.97-119.56-8.34-90.67-5.7 6.46 45.5 96.42 11.29 106.5 14.5.85-57.25z" class="ah"/><path d="m716.07 254.03 4.55 55.57 7.62 7.19-1.33-61.53-10.84-1.23z" class="az"/><path d="m824.57 341.65 8.71-43.89-11.8-31.79 9.15-22.81-6.43-10.32-7.6 8.79-23.49 29.96 1.75 31.37-.71 13.43-7.16 19.93 37.58 5.33z" class="r"/></g><g id="e"><path d="m480.61 347.55-9.43-1.65 2.12-26.64 12.38 4.79-1.65 9.34-3.42 14.16zM444.57 342.56l-8.77-1.37 2.56-23.22 13.58 3.89-2.23 12.14-5.14 8.56z" class="au"/><path d="M483.12 225.53 462.3 238.6l13.62 23.03 14.12-15.34 1.37-18.41-8.29-2.35z" class="ax"/><path d="m485.4 225.68-9.48 26.76 17.65 5.28 31.52-5.47-2.16-22.33-37.53-4.24z" class="w"/><path d="m495.65 232 7.83 10.59 11.32-6.56-6.76-6.73-12.39 2.7z" class="x"/><path d="m475.92 165.5-10.43 60.97 49.31 9.56 6.72-14.56-1.22-15.97-11.47-28.38-32.91-11.62z" class="z"/><path d="m514.8 200.54 2.53 21.49 4.19-5.5-1.22-11.03-2.97-9.45-2.53 4.49zM480.06 188.04l4.71-3.07 4.73 3.65 1.23 4.23 2.23 3.63 2.74-2.32 3.16-2.97 7.85-.41 4.52 6.54-18.27 9.81-12.9-19.09z" class="ag"/><path d="m490.73 192.85-3.61 13.01 2.92 1.7 2.92-.43 2.74-12.97-4.97-1.31z" class="aw"/><path d="m487.12 205.86 2.33 3.39 3.51-2.12-5.84-1.27zM477.94 211.03l23.81 4.87-6.41 6.13-14.19-3.1-3.21-7.9z" class="x"/><path d="m481.04 213.37 16.7 3.63-3.5 2.73-11.52-2.44-1.68-3.92z" class="am"/><circle cx="483.12" cy="195.42" r="2.28" class="bm"/><circle cx="501.75" cy="199.43" r="2.28" class="bm"/><path d="m480.06 188.04-.99-1.6 6.02-2.97 5.74 3.62-1.33 1.53-5.04-2.55-4.4 1.97zM498.86 191.19l-.42-1.95 9.6-.62 4.64 6.8-1.45 1.9-5.59-5.83-6.78-.3z" class="bd"/><path d="m475.92 165.5 9.48-3.09 12.34 1.21 4.21-6.6 16.05.58 22.15 6.61-14.26 14.39-5.59 26.9-44.38-40z" class="bn"/><path d="m533.81 170.61 21.66 6.69-16.61 6.96-12.97-5.66 7.92-7.99z" class="bd"/><path d="m525.89 178.6-5.59 26.9 5.59 29.58 13.12-1.38 8.75-5.04 3.06-6.63 9.76-.76-1.79-15.41-5.9-21.92-10.03-6.09-16.97.75z" style="fill:#46382d;stroke-width:0"/><path d="m501.95 157.02 23.94 21.58 2.24 10.02-5.2 4.23-37.53-30.44 16.55-5.39z" class="bh"/><path d="m525.89 178.6 34.69 42.67-12.82 7.39-24.83-35.81 2.96-14.25z" class="bd"/><path d="m518 157.6 15.81 13.01 6.34 1.39v-7.79l-8.96-6.13-13.19-.48z" class="bh"/><path d="m533.81 170.61 9.05 7.24 10.14 2.16 2.47-2.71-15.32-13.09-6.34 6.4z" class="bn"/><path d="m542.86 177.85 15.93 28.01-3.32-28.56-12.61.55z" class="bd"/><path d="m444.57 342.56 1.32-19.01 11.79 5.03-2.09 12.88-11.02 1.1zM480.61 347.55l1.48-18.37 10.43-1.78 2.56 4.57-2.33 13.93-12.14 1.65zM538.99 341.97l-12.4 1.41v-14.81l11.09-2.23 1.31 15.63z" class="u"/></g><g id="f"><path d="m678.46 344.53 6.72-1.48 1.89-41.31-15.21 4.2 3.42 17.69 3.18 20.9z" class="y"/><path d="m676.44 303.56 2.02 40.97-9.37-1.13-6.25-39.84h13.6z" class="n"/><path d="m587.03 337.38 6.72-1.49 1.89-41.31-15.21 4.2 3.41 17.69 3.19 20.91z" class="ak"/><path d="m585.01 296.4 2.02 40.98-9.37-1.14-6.25-39.84h13.6z" class="q"/><path d="m422.67 349.48 6.65-1.34 4.79-24.59 4.05-16.31-13.66-1.53-4.73 18.86 2.9 24.91z" class="ak"/><path d="m412.71 314.85.07 33.6 9.89 1.03 3.32-35.36-13.28.73z" class="n"/><path d="m524.94 329.13-7.31 32.99-8.49-1.42-3.77-34.49 19.57 2.92z" class="q"/><path d="m517.63 362.12 7.46-1.42 7.16-36.13-13.06 12.57-1.56 24.98z" class="y"/><path d="m701.92 257.63 12.21 51.09-27.37-1.38-10.32-1.16-11.14 13.06-66.27 1.53-10.65-3.04-9.12 8.44-16.5-7.21-7.91 7.25-35.66 10.93-15.71-67.04 198.44-12.47z" class="ab"/><path d="m519.19 337.14-24.51-3.49-5.18-7.44-7.41 2.97-12.32.79-5.9-6.11-18.56 8.11-11.2-8.42-3.45-8.65-17.94 4.85-14.19-2.52 9.93-56.98 100.68 6.09 15.95 13.61-5.9 57.19z" class="aa"/><path d="m408.46 260.25 175.69-22.1 9.92 4.44 10.15-1.12 97.7 16.16-176.83 22.32-116.63-19.7z" class="an"/><path d="m554.85 326.21-8.55-48.94 32.96 48.9-24.41.04z" class="aa"/><path d="m586.29 272.22 12.74 48.55-19.77 5.4 7.03-53.95z" class="au"/><path d="m686.76 307.34-13.56-46.09-7.9 57.99 21.46-11.9z" class="aa"/><path d="m482.09 329.18 14.81-54.03-2.22 58.5-12.59-4.47zM445.31 331.97l30.61-60.39-6.15 58.39-24.46 2zM434.11 323.55l10.09-57.38-31.48 53.58 21.39 3.8z" class="ab"/><path d="m558.52 241.38 5.96 6.97-21.86 10.61-8.81-3.88-10.88 6.55-28.25-1.35-1.18-5.2-12.46-1.73-23.69.75 101.17-12.72zM586.29 272.22l26.2-11.55 5.22 7.59-31.42 3.96z" class="r"/></g><g id="g"><path d="m542.62 258.96-3.61-25.26-18.71-4.4 5.59 17.35 16.73 12.31z" class="w"/><path d="m514.8 236.03 2.53 6.56h7.44l1.12-7.51-4.37-3.42-6.72 4.37zM520.3 205.5l8.78-1.55 5.65 15.78-10.73 4.5-6.67-2.2 2.97-16.53z" class="z"/><path d="m534.73 219.73-8.84 15.35-11.09.95 2.53-14 17.4-2.3z" class="ag"/><path d="m525.89 235.08 16.73 23.88-19.69 2.67-5.6-19.04 8.56-7.51z" class="u"/><path d="m462.3 238.6 19.79 7.69 1.03 3.78-7.2 5.01-18.57-.98 4.95-15.5z" style="fill:#3e90aa;stroke-width:0"/><path d="m482.09 246.29 14.81-2.71-1.2 7.57-10.75 5.35-9.03-1.42 6.17-8.79z" class="z"/><path d="m496.9 243.58 11.14 12.92-13.36 3.78-9.73-3.78 11.95-12.92z" class="ag"/></g><g id="h"><path d="m580.79 314.45-20.48 2.99 13.39 8.52 14.81 5.21 4.02-8.83-3.39-7.67-8.35-.22z" class="bk"/><path d="m596.08 280.32-14.96 31.58 13.57 7.74 17.74-22.26-16.35-17.06z" class="aq"/><path d="m560.31 317.44-1.79 3.65 28.38 13.75 1.61-3.67-28.2-13.73z" class="ai"/><path d="m617.71 268.26-15.05-9.47 2.7-8.72 21.81 7.56-9.46 10.63zM675.34 253.98l-8.04 18.24-9.46-4.09-1.12-14.15 8.12-4.87 10.5 4.87z" class="ag"/><path d="m667.3 243.05 8.04 10.93-17.5 2.52-2.39-21.54 11.85 8.09z" class="z"/><path d="m654.41 225.53 12.89 17.52-14.47 10.3 1.58-27.82z" class="w"/><path d="m670.65 356.29-9.04-.94-7.36-32.01 16.4-.53 2.31 11.43-2.31 22.05z" class="aj"/><path d="m595.38 359.28 9.09-1.26 4.89-35.72h-12.27l-2.4 11.94.69 25.04z" class="ax"/><path d="m640.37 318.96-6.4 45.19-8.92-1.26-1.46-28.18-25.06-3.61-3.15 28.18-10.95-1.57 2.49-47.92 36.52 4.4 16.93 4.77z" class="aj"/><path d="m633.97 364.15 7.86-1.1 4.34-27.39 20.66-4.56 3.82 25.19 8.81-1.89-2.58-42.47-38.55 7.03-2.4 5.09-1.96 40.1z" class="ax"/><path d="m582.47 301.55-1.68 12.9 55.14 9.6 10.24-21.72-63.7-.78z" class="v"/><path d="m635.93 324.05 57.46-10.78-3.48-18.57-39.12 6.45-15.88 8.64 1.02 14.26z" class="bk"/><path d="m605.36 297.03-22.89 4.52 52.44 8.24 55-15.09-46.98-3.91-37.57 6.24z" class="af"/><path d="m631 302.33-25.64-5.3-9.28-16.71 31.09-6.12 7.74.95-3.91 27.18z" class="as"/><path d="m602.53 145.03-11.64 62.57 30.82 7.24 12.73 10.84 16.19-5.03 19.5-34.43-22.64-44.02-44.96 2.83z" class="z"/><path d="m629.72 221.44 4.72-3.77 10.38-49.37 15.87.16 9.44 17.76-6.23 15.58-3.36 2.9.15 5.11-6.28 15.72-8.24 6.13-13.46-.79-2.99-9.43z" class="ag"/><path d="m621.71 214.84 21.22 4.87-10.22 11.16-11-16.03z" class="x"/><path d="m603.94 165.39 15.68 20.4L636.96 172l-3.54-6.96-8.37.59-3.07 3.42-2.36 1.65-1.65-2.48-1.18-4.01-6.01-2.71-6.84 3.89z" class="ag"/><path d="m621.98 169.05-4.01-.83-6.01 16.04 3.3 1.77 4.36-.24 2.36-16.74z" class="aw"/><path d="m611.96 184.26 3.22 4.36 4.44-2.83-7.66-1.53zM663.9 201.8l-8.67-2.21 5.46 10.22 3.21-8.01zM659.56 195.11l1.92-7.67 4.36 1.18-6.28 6.49zM604.22 190.55l22.95 4.56-6.72 7.31-13.32-2.83-2.91-9.04z" class="x"/><path d="m607.24 193.06 15.88 3.3-1.49 1.34-13.76-2.83-.63-1.81z" class="am"/><circle cx="629.53" cy="178.72" r="2.95" class="bm"/><circle cx="608.3" cy="174.35" r="2.95" class="bm"/><path d="m603.94 165.39 6.49-6.01 6.36 4.83-6.13-1.29-6.72 2.47zM625.05 165.63l8.37-2.01 3.54 8.38-5.31-4.96-6.6-1.41zM594.04 142.16l50.78 26.14 15.72-7.51 9.9-17.33-42.09-15.8-34.31 14.5z" class="av"/><path d="m644.82 168.3 25.62-24.84 11.68 28.77-5.56 6.49h-5.17l-1.26 7.5-10.54-3.38-6.12 11.61-2.18-15.56-6.47-10.59z" class="bl"/><path d="m614.26 133.62 46.18 19.54.1 7.63-9.62 1.6-36.66-28.77z" class="bg"/><path d="m660.44 153.16 16.12 25.56-6.43 7.5-19.21-23.83 9.52-9.23z" class="av"/><path d="m667.3 272.22-4.6 25.16-31.7 4.95-2.12-17.69 22.04-11.32 16.38-1.1z" class="ao"/><path d="m635.93 281.02 1.03 11.95 7.86-2.86-1.89-14.96-7 5.87zM654.12 273.1l-1.29 14.18 6.73 1.13 3.28-16.19-8.72.88z" class="as"/><path d="m632.71 230.87-7.66 30.38 3.83 23.39 38.42-12.42-12.89-46.69-21.7 5.34z" class="az"/><path d="m623.93 252.75 10.04-1.6 2.99 10.57-9.79 12.48-9.46-5.94 6.22-15.51z" class="z"/><path d="m632.71 230.87 13.46 19.11-9.21 11.73-13.03-8.96 8.78-21.88z" class="w"/><path d="m605.36 250.07-1.14-8.6-8.14-6.39-2.32 1.84 1.76 3.12 4.74 10.03h5.1z" class="ag"/><path d="m602.66 258.79-8.64-3.71-3.13-6.92 4.63-8.12 9.84 10.03-2.7 8.72z" class="z"/><path d="m595.52 240.04-11.37-1.89-1.69 8.49 11.56 8.44 1.5-15.04z" class="ag"/></g><g id="i"><path d="m809.81 200.68 14.46-11.61-9.12 29.18-5.34-17.57zM809.81 265l12.85-18.38-8.92-18.09-15.41 35.09 11.48 1.38z" class="ab"/><path d="m832.33 232.79-22.52-32.11-16.35 13.68 29.2 32.26 9.67-13.83z" class="ar"/><path d="m755.97 317.04-3.49 18.81 4.31 4.81 5.31-1.95 6.31-16.87-12.44-4.8zM785.8 310.59l13.11 9.68 8.38.68 7.86-7.86-8.65-9.12-6.03-2.62-14.67 9.24zM809.81 265l-14.7 35.13-9.31 10.46-5.39-16.4 1.59-25.07 11.22-5.5 16.59 1.38z" class="au"/><path d="m783.98 272.94 3.5 73.77-2.99 5.61h-6.44l-9.64-30.48-2.31-20.49 17.88-28.41zM725.36 281.13l-4.74 28.47 7.43 38.7 2.84 4.02 6.85-1.24 4.33-24.23-2.22-27.73-14.49-17.99z" class="ab"/><path d="M789.45 254.29 809.81 265l-25.83 7.94-3.57-6.89 9.04-11.76z" class="bp"/><path d="m698.96 239.5 32.71 8.37 8.65 12.6 22.64-9.32 8.17-11.65-27.51-4.7-22.95-2.04-21.71 6.74z" class="ax"/><path d="m736.15 212.63-8.49 13.05 19.81 3.77 9.01-18.05-20.33 1.23z" class="bp"/><path d="m756.48 211.4 32.97 12.08v30.81l-9.04 11.76 3.57 6.89-15.57 48.9-14.69-3.56-11.65 8.57-16.71-45.72 14.96-20.66 22.64-19.62-12.58 1.02-25.55-6.95-6.84-16.33 29.95 7.09 8.54-14.28z" class="ar"/><path d="m717.99 218.59 6.84 16.33-25.87 4.58 4.88-17.48 7.08 3.66 7.07-7.09z" class="bp"/><path d="m717.99 218.59-6.09 18.64-8.06-15.21 14.15-3.43z" class="as"/><circle cx="746.29" cy="220.02" r="2" class="as"/><circle cx="736.27" cy="220.26" r="2" class="as"/><path d="m789.45 254.29-49.13 6.18-8.18 10.33 51.84 2.14 5.47-18.65z" class="au"/><path d="m759.36 258.08-7.05 6.92 7.05 6.92 6.74-8.3-6.74-5.54z" class="bp"/><path d="m731.67 247.87-6.62 11.21-5.34 21.47 18.41 1.88 2.2-21.96 10.06-18.6-8.31 2.66-4.33 3.32-1.23-1.53-4.84 1.55z" style="fill:#96637c;stroke-width:0"/><path d="m742.07 244.53-8.67 15.94 3.11-14.15 5.56-1.79z" style="fill:#734d61;stroke-width:0"/><path d="m742.07 326.85 4.22-27.73 14.5-5.68 7.62 28.4-26.34 5.01z" class="bb"/><path d="m809.81 265 5.34 25.76-8.65 13.21-20.7 6.62L809.81 265zM815.15 313.09l-7.56 29.24h-5.49l-3.74-4.4.55-17.66 16.24-7.18z" class="ab"/><path d="m728.05 348.3-7.07 10.64h15.52l1.24-7.86-9.69-2.78zM778.05 352.32l-1.26 9.16h15.41l-4.72-14.77-9.43 5.61zM798.36 337.93l-5.06 11.63h13.44l.85-7.23-9.23-4.4zM752.48 335.85l-6.1 9.62h14.49l1.23-6.76-9.62-2.86z" class="w"/><path d="m773.07 217.48 16.38-3.12 8.93 25.29-8.93 14.64-15.17-13.68-1.21-23.13z" class="aj"/><path d="m854.14 366.4-18.59-6.75-5.46 5.01 4.74 10.19 11.18-3.26 8.13-5.19z" class="ac"/><path d="m804.1 365.17 21.33-4.14-5.83 15.76-8.34-3.73-7.16-7.89z" class="y"/><path d="m818.65 356.8-4.16 12.21 11.94-4.35 4.48-5.28-12.26-2.58z" class="aj"/><path d="m830.91 359.38 5.31 5.28-2 5.1-8.14 3.54-6.6 2.1-4.99-6.39 16.42-9.63z" class="o"/><path d="m836.22 364.66 7.36 6.93-9.72 3.26-7.78-1.55 10.14-8.64z" class="aj"/><path d="m818.65 356.8 9.79-4.06 7.11 6.91.67 5.01-17.57-7.86z" class="ab"/><path d="m804.1 365.17 3.47 13.5 19.87 6.08 3.47-7.1-4.83-4.35-21.98-8.13z" class="ac"/><path d="m827.44 384.75 18.45-4.03 8.25-14.32-28.06 6.9 1.36 11.45z" class="y"/><path d="m680.9 382.02 21.38-3.01 2.35 6.28-5.77 5.79-8.26-1.38-9.7-7.68z" class="bf"/><path d="m784.97 381.47-19.5-4.35-3.61 2.17 4.4 10.41 10.85-3.43 7.86-4.8z" class="ac"/><path d="m697.4 389.38 4.88-10.37 24.52-3.46 3.15.16v-4.43l13.18 1.74 9.61.96 12.73 3.14.79 12.58-41.88 7.54-26.98-7.86z" class="t"/><path d="m702.28 379.01 5.01 8.82 3.46 5.44-13.35-3.89 4.88-10.37z" class="af"/><path d="m714.38 377.3 7.3 3.99 6.06.18.97 3.67-11.18 10.11-6.78-1.98-3.46-5.44 7.09-10.53z" class="af"/><path d="m729.95 371.28-8.27 10.01 7.03 3.85h7.21l3.03-7.84-1.32-4.28-7.68-1.74z" class="v"/><path d="m728.71 385.14 10.24 8.13 7.59-4.31-1.66-9.95-5.93-1.71-10.24 7.84z" class="af"/><path d="M752.74 373.98h-7.86l-5.93 3.32 7.72 11.34 5.35-5.39.72-9.27z" class="v"/><path d="m752.74 373.98 8.18 14.98-14.25-.32 6.07-14.66z" class="af"/><path d="m765.47 377.12-4.55 11.84 10.21.42-5.66-12.26z" class="v"/><path d="m680.9 382.02 46.69 10.19 4.24 3.69-7.45 4.8-35-5.45-8.48-13.23z" class="ac"/><path d="m727.59 392.21 57.38-10.74-6.13 13.78-54.46 5.45 3.21-8.49z" class="bf"/><path d="m729.95 371.28 9 6.02 13.79-3.32-5.31-5.24-17.48 2.54z" class="al"/></g><g id="j"><path d="m106.63 357.95-1.81 11.4 3.43 2.2-4.34 3.47 13.33 2.45 13.34-2.45-4.53-7.57-2.96-.93.38-3.37-4.45-7.45-7.78-3.14-4.61 5.39z" class="az"/><path d="m106.31 345.26.32 12.69 12.39-2.25 9.28-25.29-21.99 14.85z" class="z"/><path d="m105.15 294.97.64 27.6 5.13 5.62-4.93 3.36.32 13.71 70.36 6.06-2.05-10.78-5.37-4.02 3.98-3.25-9.33-48.94-33.39-.55-25.36 11.19z" class="ai"/><path d="m116.77 273.02-11.62 21.95 58.75-10.64-33.32-16.67-13.81 5.36z" class="bk"/><path d="m115.33 210.59-11.42 7.21 10 39.02 24.65 1.41 34.9-21.86-1.25-40.1-22.93-2.34-33.95 16.66z" class="ah"/><path d="m115.33 210.59 10.02 11.89 31.09-15.35-7.16-13.2-33.95 16.66z" class="z"/><path d="m74.95 181.84 8.19 30.17 8.25-2.89 2.12-5.76 6.75 2.66 8.73-3.05 7.83-9.04-25.43-27.52-8.25 2.44-8.19 12.99z" class="bl"/><path d="m85.61 174.83 5.78 34.29 8.87-3.1-5.16-19.78-1-6.93-8.49-4.48z" class="av"/><path d="m158.95 116.12 20.1 66.72-29.77 11.09-16.03 13.2-12.15.36-35.49-32.66v-18.84l30.9-44.28 22.29-4.41 20.15 8.82z" class="z"/><path d="m134.9 203.67-5.94-1.25-18.82-42.77-17.81-2.63-6.72 17.81 9.49 11.41 5.25.73 2.71 8.86 12.27 14.76 20.75 1.42-1.18-8.34z" class="ag"/><path d="m149.28 193.93-26.41 9.82 13.21 8.26 13.2-18.08zM95.1 186.24l9.5-5.64.55 7.62-2.09 7.61-7.96-9.59zM91.39 176.95l5.07-3.42 2.95 5.78-8.02-2.36z" class="x"/><path d="m161.7 132.93-16.42 28.69-27.84-14.98 5.85-5.42 11.37-1.41 5.55 3.06 4.12 2.01 1.22-3.86.9-5.26 7.25-5.68 8 2.85z" class="ag"/><path d="m140.21 142.87 5.34-1.85 8.06 17.77-3.93 3.07-4.4-.24-5.07-18.75z" class="aw"/><path d="m145.28 161.62 8.33-2.83-2.75 4.79-5.58-1.96z" class="x"/><circle cx="132.62" cy="152.5" r="2.83" class="bm"/><circle cx="156.44" cy="143.62" r="2.83" class="bm"/><path d="m134.66 139.81-10.25-.63-7.63 5.81.66 1.65 8.85-4.71 8.37-2.12zM146.45 135.76l5.94-5.94 8.61 1.34.7 1.77-9.35-.32-5.9 3.15z" class="ao"/><path d="m136.92 175.54 13.45 2.19 8.02-2.63 8.42-9.71-13.81 6.74-16.08 3.41z" class="af"/><path d="m136.92 175.54 9.42-4.06 5.62-4.28 5.93.39 8.92-2.2-13.2 7.98-16.69 2.17z" class="bk"/><path d="m158.95 116.12-22.87-2.69-14.78-3.3-8.17-11.94 27.08 3.3 6.7 5.23v1.84l6.7 3.38 5.34 4.18z" class="av"/><path d="m136.08 113.43-25.94 46.22-21.9 5.74-18.5-2.77 7.97-34.84 18.61-18.18 16.81-11.41 22.95 15.24z" class="bl"/><path d="m119.34 102.31 27.57 4.41 6.7 5.22-27.02-4.81-5.49-1.16-1.76-3.66z" class="bg"/><path d="m98.64 166.9 5.63 10.83 5.87-18.08-9.88 2.97-1.62 4.28z" class="bl"/><path d="m110.14 159.65-35.19 22.19-1.71-6.3 1.05-3.98-2.61-1.77-1.94-7.17 40.4-2.97z" class="aq"/><path d="M126.59 107.13 95.1 160.76l-7.84 1.86-5.3-.9 37.38-59.41 7.25 4.82zM96.32 109.6l-26.58 53.02 5.21-38.5 21.37-14.52z" class="av"/><path d="m81.96 161.72-10.28 8.07 1.56 5.75 21.86-14.78-13.14.96z" class="bl"/><path d="m104.27 177.73 4.6 7.6-3.72 2.89-5.74-8.91 4.86-1.58z" class="bk"/><path d="m113.91 256.82 2.86 16.2 47.13 11.31 9.56-47.96-59.55 20.45z" style="fill:#275b6c;stroke-width:0"/><path d="m103.91 217.8 29.08 28.03-19.08 10.99-13.18-9.96 3.18-29.06z" style="fill:#245362;stroke-width:0"/><path d="m113.91 256.82 33.65-34.34 11.86 9.88-20.62 28.22-24.89-3.76z" style="fill:#204b59;stroke-width:0"/><path d="m105.79 322.57 67.44 10.7 1.39 7.27-68.63-8.99-.2-8.98z" class="ab"/><path d="M103.91 375.02h26.66v4.88h-26.66z" class="w"/><path d="M150.74 355.31v12.89l13.33 3.11 25.65-3.11-23.56-17.06-8.1-2.28-7.32 6.45z" class="az"/><path d="M150.74 368.2h38.99v4.88h-38.99z" class="w"/><path d="m103.91 375.02 22.14-7.57-2.58-4.3-18.65 6.2-.91 5.67z" class="bq"/></g><g id="k"><path d="m278.2 193.33 15.04 21.3-3.17 25.99-10.33 8.91-16.3-36.42 3.45-23.65 11.31 3.87z" class="v"/><path d="m312.03 227.34 13.7 3.09 4.03-8.21-10.14-7.09-26.38-.5 7.7 13.13 11.09-.42z" class="z"/><path d="m292.59 213.7 8.35 10.01 18.68-8.58-4.48-3.12h-16.03l-6.52 1.69zM325.73 230.43l-6.11-15.3 26.42-1.03-9.77 9.61-10.54 6.72z" class="ag"/><path d="m279.74 249.53 29.42 7.86 2.87-30.05-19.44-13.64-12.85 35.83z" class="bk"/><path d="M254.09 361.11v11.14l23.04 1.37 23.81-1.37-12.99-12.31-16.31-13.05-7.76 3.14-9.79 11.08z" class="bj"/><path d="M254.09 372.12h46.86v5.82h-46.86zM273.36 351.16l9.11 10.48 5.48-1.7-11.14-10.56-5.17-2.49 1.72 4.27z" class="bk"/><path d="m225.68 362.16 6.28 20.63-15.73 2.91-19.61-2.91 2.15-13.09 8.51-12.29 18.4 4.75z" class="bj"/><path d="M196.62 382.79h35.34v5.82h-35.34zM216.93 364.27l-1.85 7.73-3.89.26 1.07-9.8 4.67 1.81z" class="bk"/><path d="m237.5 312.8 5.63 14.41 23.77 1.97 12.95-13.79 4.5-44.31-42.34 19.93-4.51 21.79z" class="w"/><path d="m197.95 274.78.47 52.66 15.87 14.41 25.33-8.1 7.62-14.2 8.2-14.77-30.48-31.72-27.01 1.72z" class="az"/><path d="m239.62 333.75-41.2-6.31.35 42.26 26.91-7.54 13.94-28.41z" class="w"/><path d="m279.85 315.39-18.93 4.31-17.79 7.51 10.96 33.9 22.72-11.73 3.04-33.99zM284.35 271.08l-28.91 33.7-57.49-30 49.59-8.44 36.81 4.74z" class="ax"/><path d="m204.74 185.33-9.24 11.34-9.09 33.89 7.29 35.96 67.22 1.14 20.61-9.75-19.05-60.21-10.45-13.32-47.29.95z" style="fill:#50a9aa;stroke-width:0"/><path d="m204.74 185.33 9.26 83.56-20.3-2.37-7.29-37.95-1.78-36.44 20.11-6.8zM266.89 189.46l14.64 68.45-12.3 9.67-13.41-64.82-6.91-10.63 3.12-7.75 14.86 5.08z" class="w"/><path d="m236.03 195.83 19.79 6.93-3.79-18.38-12.95.95h-34.34l14.56 23.8 16.73-13.3z" class="al"/><path d="m216.46 83.55 30.43 3.09 21.44-13.45 13.59 101.64-30.31 7.31-29.03 2.3-7.36-13.82-18.62-17.91-10.19-15.68 13.18-12.34 11.2 17.4 7.09-5.83-26.32-37.79 24.9-14.92z" class="z"/><path d="m216.46 83.55 15.42 99.18 7.2 4.64-14.2 4.72-20.14-6.76-5.66-22.71 1.61-9.25 9.61-9.39 2.89-9.3-26.78-40.27 30.05-10.86z" class="ag"/><path d="m203.39 143.05-4.71-8.37-6.22 3.82 10.93 4.55zM196.6 152.71l13.7-8.73-11.22 18.64-2.48-9.91z" class="x"/><path d="m231.94 114.67 8.48 1.95 8.49 20.24-.47-16.92-4.04-11.38-5.21.72-7.25 5.39zM254.57 107.17l-2.07 10.8 5.1 8.67 4.11-15.35 6.21-3.99-6.48-2.54-6.87 2.41z" class="ag"/><path d="m231.88 182.73-7 9.36 11.15 3.74 16-11.45 29.89-9.55-50.04 7.9z" class="x"/><path d="m253.92 103.32 13.36-.36.64 4.34-13.35-.13-.65-3.85zM243.81 104.68l-13.2 5.86 1.33 4.13 12.46-6.11-.59-3.88z" class="as"/><path d="m232.48 149.31 40.44-5.99-15.73 14.43-24.71-8.44z" class="x"/><path d="m243.31 150.17 21.79-3.29-8.67 7.88-13.12-4.59z" class="am"/><path d="M222.74 60.79 195.5 77.45l11.3 6.51 9.66-.41 31.46 8.17-9.91-16.24-15.27-14.69z" class="as"/><path d="m195.5 77.45-22.04 14.38 13.09 5.89 8.49.47 21.42-14.64-20.96-6.1z" class="y"/><path d="m173.46 91.83 12.95 45.2 13.58-9.11 10.31 16.06 10.17-6.53-25.43-39.26-21.58-6.36z" class="as"/><path d="m247.92 91.72-25.18-30.93 45.59 12.4-20.41 18.53z" class="q"/><path d="M261.04 112.05c-1.63.79-2.27 2.63-1.48 4.27.79 1.63 2.66 2.32 4.29 1.53 1.64-.79 2.25-2.68 1.45-4.32-.79-1.64-2.63-2.27-4.27-1.48ZM237.64 116.44c-1.64.79-2.3 2.71-1.5 4.34.77 1.59 2.71 2.3 4.34 1.5 1.59-.77 2.22-2.73 1.45-4.32-.79-1.63-2.71-2.3-4.29-1.53Z" class="bm"/><path d="m244.4 108.56 10.17-1.39 4.38 28.18-4.75 1.95-5.29-.44-4.51-28.3z" class="aw"/><path d="m258.95 135.35-4.55 5.39-5.49-3.88 10.04-1.51z" class="x"/><path d="m284.35 271.08-2.82-13.17-27.19 2.67-5.46 1.58-11.38.07-43.8 4.29 4.25 8.26 41.07-1.76 10.25-1.94 6.17 1.24 28.91-1.24z" class="ak"/><path d="m254.34 260.58-16.85 1.65 1.53 10.79 16.42-.7-1.1-11.74Zm-12.03 9.52-1.17-5.43 9.66-1.27.83 5.99-9.31.71Z" class="an"/><path d="m136.08 234.28 15.11-3.79 10.71-8.62 13.31 2.59 49.67-12.45 7.1 26.88 1.99 43.9-66.13 13.01-25.35-.24-2.4-22.54 4.79-6.22-6.08-6.22-2.72-26.3z" class="az"/><path d="m224.88 212.01 19.66 5.79-.69 27.85-4.23 6.76 3.83 9.25-.56 22.35h-10.91l-1.7-2.83-5.4-69.17z" class="ab"/><path d="m242.89 284.01-34.35 7.04-17.07.1-10.66 5.59-16.55 3.39-21.81-4.33 87.83-14.62 12.61 2.83z" class="w"/><path d="m243.85 245.65-16.73-5.03-4.42 3.77 5.3 7.58 15.31 9.69.54-16.01z" class="u"/><path d="m227.12 240.62-88.32 19.96 1.29 12.44L228 251.97l-.88-11.35z" class="ah"/><path d="m278.34 210.43 57.93 13.28 3.56-3.53 7.23-9.27-67.47-7.08-1.25 6.6z" class="as"/><path d="m337.62 217.07 12.9-9.94 38.98 2-3.14 10.02-50.09 4.56 1.35-6.64z" style="fill:#545c6d;stroke-width:0"/><path d="m279.59 203.83 51.27-9.9 58.64 15.2-51.88 7.94-58.03-13.24z" class="y"/><path d="m279.59 203.83 51.27-9.9 4.95 16.66-32.3-1.3-23.92-5.46z" class="r"/><path d="m335.81 210.59-9.66-19.81 7.17-25.28 24.74 2.33 8.53 7 .68 6.37-2.68 3.24 3.22 1.83.82 7.66-2.04 5.79 3.11 4.27.34 3.14-34.23 3.46z" class="t"/><path d="m333.32 165.5-32 4.41-2.06 9.8 2.06 2.54-2.8.97-1.31 6.24 1.31 2.93-2.25 1.54-1.46 6.96 41 9.7-2.49-45.09z" class="af"/><path d="m366.59 174.83-9.79-3.38-22.61 9.75-3.33-6.37-3.61-12.21h38.04l1.3 12.21z" class="an"/><path d="m334.19 181.2-10.71-7.71-12.9 3.85-9.26-7.43 2.19-10.41 23.74 1.24 6.07 4.76.87 15.7z" class="aa"/><path d="m303.51 159.5 29.81-3.51 31.97 6.63-31.97 2.88-29.81-6z" class="bp"/><path d="m314.83 159.73 19.72-2.23 10.62 2.59-2.75.76-5.42.18-8.02 1.65-14.15-2.95z" class="r"/><path d="m369.7 203.99-34.17 1.52-1.34-3.92.94-3.28 33.5-4.38 1.07 10.06zM367.27 181.2l-32.78 5.54-1.66 2.72 1.92 1.88 33.06-5.07-.54-5.07z" class="az"/><path d="m334.49 186.74-35.23-7.03-.74 3.51 36.23 8.12-.26-4.6zM335.13 198.31l-37.92-8.85-.94 4.47 39.26 11.58-.4-7.2z" class="w"/><path d="m332.44 127.58-4.72-5.81 5.19-15.17 4.01 14.85-4.48 6.13z" class="bo"/><path d="m332.12 129.71-1.02-7.31 2.2-.56.08 8.1-1.26-.23z" class="ab"/><path d="m330.16 129.19 5.65-1.53-1.06 31.33-3.89.63-.7-30.43z" class="bc"/><path d="m350.2 138.59-3.3-5.9 4.64-13.2 4.48 13.52-5.82 5.58z" class="bo"/><path d="m348.94 140.87.79-7.23 2.28-.08-1.89 7.78-1.18-.47z" class="ab"/><path d="m342.42 160.85 4.5-21.69 5.46 1.41-6.78 20.17-3.18.11z" class="bc"/><path d="m316.56 114.38-5.5 14.3 6.91 6.13 3.78-7.93-5.19-12.5z" class="bo"/><path d="m317.74 137.41-1.89-7.08 2.12-1.1 1.1 7.86-1.33.32z" class="ab"/><path d="m324.27 160.27-3.47-24.7-5.49 1 5.28 23.52 3.68.18z" class="bc"/><path d="m204.68 291.84 13.49 25.01-10.28 1.23-4.38-18.77 1.17-7.47zM189.44 294.97 193.7 314l-7.11.46-3.19-15.83 6.04-3.66z" class="bk"/><path d="m167.36 308.69 31.63 3.59 61.93 7.42-44.98 27.19-67.13-10.55 18.55-27.65z" class="ai"/><path d="m252.89 298 5.08 3.84 1.28 4.93 3.64-1.23 4.79 3.62-6.76 10.54-26.95 25.56-7.28-5.28 12.33-29.56L252.89 298z" class="ar"/><path d="m257.97 301.84 4.92 3.7-11.26 19.77-10.48 19.23-2.96-7.4 9-14.93 10.78-20.37z" class="ab"/><path d="m252.89 298-12.5-4.22-4.86.16-1.1-2.17-11.11-3.75-22.97 44.3 26.34 7.66 26.2-41.98z" class="au"/><path d="m240.39 293.78-23.46 43.36-4.91-1.43 22.41-43.94 5.96 2.01z" class="u"/><path d="m163.9 284.33 19.47 6.32 8.1 36.79-12.76 2.97-13.58-21.4-1.23-24.68z" class="ar"/><path d="m163.9 284.33-14.32 7.51-2.18 6.16-4.91-2.44-11.91 6.25 11.87 31.88 36.26-3.28-14.81-46.08z" class="au"/><path d="m142.49 295.56 15.07 36.76 8.54-.77-16.52-39.71-7.09 3.72z" class="o"/><path d="m186.72 306.02-3.71 16.55-7.8-3.03 5.6-22.8 7.03 2.57-1.12 6.71zM202.33 306.77l1.12 17.68 9.82-.82-8.59-31.79-4.54 4.9 2.19 10.03zM184.63 192.13l-12.42 4.14-7.08 58.36 19.31 8.76 8.54-22.77-8.35-48.49z" class="v"/><path d="m170.39 217.07-12.73 6.64-6.47 6.78 16.15 5.88 9.46-12.31-6.41-6.99z" class="r"/><path d="m197.23 273.74 9.29 7.44-1.84 10.66-3.65-1.69-3.8-16.41z" class="ag"/><path d="m197.23 273.74 7.45 18.1-11.35 9.97-12.52-5.07-2.56-15.01 8.16-6.95 10.82-1.04z" class="z"/><path d="m204.68 291.84-2.35 14.93-15.61-.75-5.91-9.28 23.87-4.9z" class="ag"/><path d="m165.13 254.63 13.12 27.1 18.98-7.99-4.25-33.12-27.85 14.01z" class="bk"/><path d="m136.08 316.59-1.82 39.49 95.95 20.97 9.41-28.48-3.05-24.41-100.49-7.57z" class="af"/><path d="m230.21 377.05 12.82-2.88 1.7-1.08 4.51.26 10.09-1.23 1.59-52.42-24.35 4.46-6.36 52.89z" class="t"/><path d="m243.03 374.17 4.16-51.96 2.05 51.14-6.21.82z" class="af"/><path d="m169.01 338.99 14.04 16.51 17.09-12.97-9.43-7.66-6.25 4.24-4.83-5.54-10.62 5.42z" class="t"/><path d="m147.56 222.48 12.81-19.51 3.89 14.72-.95 9.76-12.12 3.04-3.63-8.01z" class="ag"/><path d="m160.37 202.97 21.94 3.19-5.51 17.9-13.49 3.39-2.94-24.48z" class="z"/></g><g id="l"><path d="m350.91 377.05 3.77 14.96 15.36 4.29 4.84-2.56 4.31 5.11 17.47 4.88 16.05-22.17-61.8-4.51z" class="au"/><path d="m396.66 403.73 36.7-3.25 5.56-6.74 7.97 5.69 24.29-1.47 7.25-23.73-49.47 2.82-30.43 12.24-1.87 14.44z" class="bq"/><path d="m350.91 377.05 45.75-5.08 6.91.55 2.92-1.64 29.21-3.25 14.49 2.24 1.65 1.63 8.5-.07 18.09 2.8-79.9 15.06-47.62-12.24z" class="aa"/><path d="m368.42 381.56 81.77-11.69 10.15 1.56-80.29 13.11-5.81 1.81-5.82-4.79z" class="an"/><path d="m368.42 381.56 1.62 14.74 9.15 2.55.86-14.31-11.63-2.98zM433.36 400.48l-2.42-17.3 1.01-3.09 12.25.59 2.69 18.72-13.53 1.08z" class="aa"/><path d="m430.94 383.18-34.28-11.21 9.83-1.09 37.71 9.8-13.26 2.5z" class="bp"/><path d="m435.7 367.63 6.04 32.11 16.14 3.44 7.79-3.75 3.04 6.05 21.79 4.64 14.61-33.02-69.41-9.47z" class="az"/><path d="m536.53 368.47-6.2 32.84-13.22 2.93-4.42-2.14-6 4.44-16.19 3.58 4.77-28.56 9.84-9.33 31.42-3.76z" class="aj"/><path d="m435.7 367.63 20.53-5.09 7.53.1 1.91-2.44 12.91-3.2 17.74 3.51 1.71 2.6 7.08-.86 31.42 6.22-41.26 13.09-59.57-13.93z" class="au"/><path d="m496.32 360.51-36.98 12.65 5.52 6.93 8.6-3.63 31.65-14.21-8.79-1.74z" class="al"/><path d="m459.34 373.16-1.46 30.02 10.83 2.3 4.75-29.02-14.12-3.3z" class="af"/><path d="m456.23 362.54 53.55 14.41 5.39 4.61 6.58-8.4-56.08-12.96-9.44 2.34z" class="t"/><path d="m509.78 376.95-3.09 29.59 10.42-2.3 4.64-31.08-11.97 3.79z" class="v"/><path d="m336.27 312.28 2.81 41.2 17.36 3.98 5.88-5.33 5.01 7.83 22.17 5.09 13.83-46.97-67.06-5.8z" class="bk"/><path d="m392.49 325.69 12.66-6.43 34.02-2.41-3.47 40.56-18.74 3.1-2.62-4.97-6.23 6.43-18.61 3.08 2.99-39.36z" class="ai"/><path d="m336.27 312.28 33.53-2.52 5.52.69 2.36-1.29 22.64-1.7 12.4 2.99 1.95 1.83 8.03.59 16.47 3.98-46.68 8.84-56.22-13.41z" class="af"/><path d="m408.11 361.97 2.07-39.63 4.65-3.08 6 1.06-3.87 40.19-8.85 1.46z" class="ab"/><path d="m420.83 320.32-43.15-11.16-7.88.6 40.38 12.58 10.65-2.02z" class="bb"/><path d="m356.44 357.46 3.67-39.49h9.69l5.52 3.62-7.98 38.35-10.9-2.48z" class="ar"/><path d="m360.11 317.97 52.61-7.52 9.98 2.42-47.38 8.72-15.21-3.62z" style="fill:#ecf4f7;stroke-width:0"/></g><g id="m"><path d="m74.85 391.75-4.29-17.61 6.99 4.61-2.7 13z" class="v"/><path d="m61.33 374.14 16.22 4.61 11.88-6.82-15.07-5.97-13.03 8.18z" class="al"/><path d="m70.56 372.93 3.82-2.88 4.44 2.31-3.19 1.78-5.07-1.21z" class="af"/><path d="m155.26 406.28-4.84-9.39 3.61-4.05 1.23 13.44z" class="v"/><path d="m151.27 398.54 9.36-4.71-12.72-6.13-9.47 7.26 12.83 3.58z" class="al"/><path d="m145.27 393.63 3.06-2 3.4.75-2.86 2.9-3.6-1.65z" class="af"/><path d="m319.06 395.46 1.38-20.1 5.42 6.65-6.8 13.45z" class="v"/><path d="m310.99 372.63 14.87 9.38 16.56-5.28-14.22-11.08-17.21 6.98z" class="al"/><path d="m322.06 373.83 4.64 2.33 4.93-1.78-4.78-3-4.79 2.45z" class="af"/><path d="m558.52 382.25-2.06-24.04 6.32 6.76-4.26 17.28z" class="v"/><path d="m562.78 364.97 13.64-6.76-16.8-8.01-14.79 8.01 17.95 6.76z" class="al"/><path d="m556.46 358.21 4.17-2.63 4.87 2-4.52 2.62-4.52-1.99z" class="af"/><path d="m593.91 393.63-.38-9.34-7.04-4.04 7.42 13.38z" class="v"/><path d="m593.53 384.29 8.49-7.25-12.88-4.33-12.72 6.61 17.11 4.97z" class="al"/><path d="m587.03 378.5 3.17-2.11 3.71 1.05-3.44 2.81-3.44-1.75z" class="af"/><path d="m656.24 384.07 2.65-19.45 5.26 5.62-7.91 13.83z" class="v"/><path d="m664.15 370.24-16.72-5.28 12.64-5.96 15.27 5.85-11.19 5.39z" class="al"/><path d="m658.89 364.62 2.82-2.2 4.32 2.2-3.57 1.93-3.57-1.93z" class="af"/></g></svg>