<svg xmlns="http://www.w3.org/2000/svg" id="a" viewBox="0 0 900 350"><defs><style>.aa,.ab,.ac,.ad,.ae,.af,.ag,.ah,.al,.am,.ao,.ap,.ar,.as,.at,.au,.av,.ax,.ay,.az,.bb,.bc,.bd,.be,.bg,.bh,.bi,.bj,.bk,.bl,.bm,.o,.p,.q,.r,.v,.w,.x,.y,.z{stroke-width:0}.o{fill:#4b9db7}.p{fill:#46382d}.q{fill:#89909b}.r{fill:#1d2432;opacity:.1}.v{fill:#4298b4}.w{fill:#359496}.x{fill:#317186}.y{fill:#8b6651}.z{fill:#68707f}.aa{fill:#dfbda5}.ab{fill:#8dc1d2}.ac{fill:#7bb7ca}.ad{fill:#9a9fa9}.ae{fill:#275b6c}.af{fill:#4fa9aa}.ag{fill:#c3987b}.ah{fill:#2e6a7d}.al{fill:#347990}.am{fill:#454d5d}.ao{fill:#217677}.ap{fill:#94d5d5}.ar{fill:#b3d5e1}.as{fill:#51596a}.at{fill:#a0cbd9}.au{fill:#343c4b}.av{fill:#404857}.ax{fill:#67acc3}.ay{fill:#4b5464}.az{fill:#e8cab6}.bb{fill:#245362}.bc{fill:#3b88a1}.bd{fill:#388199}.be{fill:#5f5044}.bg{fill:#787f8d}.bh{fill:#5f6878}.bi{fill:#1e7678}.bj{fill:#232a38}.bk{fill:#74665b}.bl{fill:#d9eaf0}.bm{fill:#55a2bb}</style></defs><g id="b"><path d="m73.24 272.68-3.09-10.79 38.9-7.08 89.36-8.17 68.17 4.34 35.23 17.11-39.83 6.38-80.51 6.05s-5.28-5.03-6.04-5.03-10.03 3.59-10.03 3.59l-92.15-6.4ZM272.07 301.94l-7.54-9.09 27.32-7.66 91.41-6.64 84.25-1.53 62.55 10.47 15.83 10.29 43.77 4.9 15.85 14.51-48.13 10.38-10.21-6.12-14.33 6.12-38.34-8.04-6.82-4.98-10.5 4.98-20.58-6-49.32.61-7.43-5.2-5.47 3.71-122.31-10.71zM163.68 318.77l-2.55-8.05 23.74-5.1 63.32-.51 47.53 3.69 33.41 5.75-15.58 7.15-89.74 3.77-6.32-6.32-6.13 4.98-47.68-5.36zM593.8 260.49l-1.18-12.32 23.49-3.57 44.42-8.94 42.64 12-48.98 17.55-60.39-4.72z" class="r"/><path d="m634.72 278.1 3.6-14.1 59.49-12 67.4-4.09 62.05 5.84 57.95 9.7-19.91 18.89-104.9 5.95-5.66-6.67-11.2 4.91-108.82-8.43zM658.36 314.04l-1.02-6 66.19-9.66 66.32 2.49 31.12 5.17-15.2 9.9-71.2 3.85-2.93-3.7-3.45 3.19-69.83-5.24z" class="r"/></g><g id="c"><path d="M293.88 21.61 280.9 247.97l61.98 6.21 17.73-135.92-4.82-96.65-24.42-2.05-37.49 2.05z" class="ab"/><path d="m349.26 25.19 8.15-5.5 20.84-2.3 15.65 231.62-51.02 5.17 6.38-228.99z" class="ax"/><path d="m293.88 21.61 33.56-7.42 50.81 3.2-28.99 7.8-55.38-3.58z" class="ar"/><path d="m305.12 35.56 33.34 2.16-1.18 20.58-33.92-1.76 1.76-20.98zM302.97 71.05l33.72 2.35-.91 20.13-34.12-2.55 1.31-19.93zM301.27 104.44l33.53 2.95-.98 20.98-34.12-2.95 1.57-20.98z" class="bm"/><path d="m310.03 41.15 3.33.39-.39 3.92-3.63-.2.69-4.11zM329.34 42.32l3.72.4-.39 4.21-3.72-.2.39-4.41zM306.99 76.05l2.84.29-.2 4.22-3.23-.2.59-4.31zM328.06 78.01l3.53.29-.29 4.02-3.63-.39.39-3.92zM305.42 109.18l3.33.3-.29 3.62-3.43-.29.39-3.63zM326.4 111.05l3.13.19-.29 3.73-3.53-.39.69-3.53z" class="bd"/></g><g id="d"><path d="m593.8 260.49 7.32-1.26 3.93-15.51-11.38.78-2.22 11.38 2.35 4.61z" class="z"/><path d="m582.38 252.47-.37 6.83 11.79 1.19 3.4-13.76-14.82 5.74z" class="q"/><path d="m651.58 91.57-61.04 3.41-8.16 157.49 62.46 3.68 11.64-90.3-4.9-74.28z" class="ab"/><path d="m645.39 98.51 6.9-7.82 32.41-2.44 10.87 159.09-50.73 8.81.55-157.64z" class="ax"/><path d="m590.54 94.98 33.16-10.47 61 3.74-39.31 10.26-54.85-3.53z" class="ar"/><path d="m601.19 111.77 32.94 2.67-1.18 20.03-32.74-2.22.98-20.48zM599.43 148.72l33.33 2.67-.79 19.59-33.33-2.23.79-20.03zM594.92 216.56l33.33 2.67-.79 19.59-33.33-2.23.79-20.03z" class="bm"/><path d="m600.74 221.63-.45 4.49 4.21.44.55-4.58-4.31-.35zM604.72 154.57l3.53.4-.39 4.11-3.73-.19.59-4.32zM623.54 155.95l3.92.39-.39 4.12-4.12-.4.59-4.11zM606.61 117.71l3.81.18-.36 4.72-4.36-.54.91-4.36zM623.74 119.48l4.12.19-.4 4.12-4.51-.39.79-3.92z" class="bd"/></g><g id="e"><path d="m815.66 134.03 16.09-1.03-10.37 98.83h-16.67l3.82-61.31 7.13-36.49z" class="bi"/><path d="m820.46 136.01-22.11-6.13-44.18-2.76-9.95 71.77 66.36 6.55 9.88-69.43z" class="af"/><path d="m831.75 133-62.33-9.25-15.25 3.37 66.29 8.89 11.29-3.01z" class="ap"/><path d="m800.87 133.39 7.66-3.83-39.11-5.81 5.22 25.92 25.95 33.66 4.51-22.65-4.23-27.29z" class="r"/><path d="m748.02 140.06-25.11 34.77 19.07 4.35 9.51-27.55-3.47-11.57z" class="ae"/><path d="m763.14 136.01-15.12 4.05-11.54 34.77 52.58 10.46 10.49-40.4-13.04-10.86-23.37 1.98z" class="x"/><path d="m768.23 143.86 12.7 9.3 5.58-19.13-23.37 1.98-5.4 13.66 10.49-5.81z" class="bl"/><path d="m725.1 69.86-.98 56.6 35.23 3.33 10.66 7.87 11.32-10.08 12.07-39.31-8.04-28.44-39.31-5.61-20.95 15.64z" class="aa"/><path d="m763.14 136.01 4.69-5.28 4.19-62.29 26.33 25.73-4.09 13.77-2.46 2.53-.19 6.4-5.1 17.16-18.28 9.83-5.09-7.85z" class="ag"/><path d="m759.35 129.79 15.29 1.41-11.5 4.81-3.79-6.22z" class="y"/><path d="m727.8 87.03 6.14-3.39 4.98 3.37 1.89 3.63 2.01 2.56 2.83-2.43 2.15-3.23 6.59-3.49 6.25 4.22-15.93 18.25-16.91-19.49z" class="ag"/><path d="m794.26 107.94-10.4-1.21 7.75 10.14 2.65-8.93zM787.69 103.55l1.32-7.27 5.34 1.21-6.66 6.06z" class="y"/><path d="m745.65 90.77-4.84-.13-1.55 15.54 2.72 1.07 2.73-.73.94-15.75z" class="az"/><path d="m727.8 87.03-.58-1.84 5.45-3.36 6.59 3.23-.34 1.95-5.68-1.75-5.44 1.77zM747.8 87.54l-.81-2.01 7.67-3.17 6.69 4.24-.71 1.67-6.47-2.27-6.37 1.54z" class="ay"/><circle cx="752.17" cy="96.79" r="2.12" class="bj"/><circle cx="734.31" cy="95.89" r="2.12" class="bj"/><path d="m733.81 111.85 8.98 2.78 9.72-2.04-.83 2.87-9.08 2.13-8.61-2.87-.18-2.87z" class="y"/><path d="m739.26 106.18-8.28 3.53-1.31 3.83 12.35-3.19 13.48 4.41-2.52-6.06-8.27-2.18-5.45-.34z" class="ay"/><path d="m739.26 106.18 2.76 4.17 2.69-3.83-5.45-.34z" class="au"/><path d="m728.43 67.77-5.52-5.92 29-14.4L767 49.83l5.02 4.39 10.28-1.98 12.55 1.98-10.99 13.28-11.84.94-27.31 2.29-16.28-2.96z" class="ay"/><path d="m772.02 68.44 5.25 6.73-2.73 3.19 7.26 28.52 3.3-15.16 13.25 2.45 1.77-5.9-2.4-7.32 6.05-4.84-8.92-21.89-22.83 14.22z" class="au"/><path d="m772.02 68.44-35.59-6.15-6.76 5.91 14.95 5.91 27.4-5.67z" class="au"/><path d="m751.91 47.45-15.48 14.84-6.76 2.38-12.95-5.78 35.19-11.44zM747.78 64.25 767 49.83l15.3 2.41-34.52 12.01z" class="z"/><path d="m736.43 62.29 8.19 11.82-19.52-4.25-8.38-10.97 19.71 3.4zM772.02 68.44l31.75 7.67-3.65 12.16-25.58-9.91-2.52-9.92z" class="ay"/><path d="m799.55 144.89 5.55 15.79-12.03 25.59-20.48-10.79 5.52-4.96 21.44-25.63z" class="ae"/></g><g id="f"><path d="m813.73 278.29-14.31-1.76-8.63-16.08 27.84-.78-4.9 18.62z" class="bh"/><path d="m760.4 288.29 13.53-2.94 6.86-19.8-24.31 5.29-.98 7.65 4.9 9.8zM634.72 278.1l11.76-2.75 10-17.25-21.96 4.31.2 15.69z" class="ay"/><path d="m617.55 264.52 1.09 11.81 16.08 1.77 5.88-18.04-23.05 4.46zM761.27 275.88l-.87 12.41-16.86-1.76-2.75-18.04 20.48 7.39z" class="bh"/><path d="m829.7 264.12-1.26 11.23-14.71 2.94-4.31-18.82 20.28 4.65z" class="ay"/><path d="m761.27 275.88 68.43-11.76 8.37-69.16-72.79 25.43-22.83 24.9 18.82 30.59z" class="x"/><path d="m612.32 200.37 5.23 64.15 143.72 11.36 4.01-55.49-29.63-14.36-123.33-5.66z" class="bd"/><path d="m783.71 188.95-18.43 31.44-168.06-12.81-2.05-19.06 97.96-7.72 90.58 8.15z" class="ac"/><path d="m765.28 220.39 86.64-13.97 4.15-25.17-69.61 5.44-18.83 10.12-2.35 23.58z" class="ax"/><path d="M767.63 196.81c-1.18-.32-172.46-8.29-172.46-8.29l96.09-20.98 164.81 13.71-88.43 15.57Z" class="ar"/><path d="m630.01 221.24 118.04 9.02-1.96 32.15L633.93 253l-3.92-31.76z" class="o"/><path d="m779.81 229.86 41.57-7.05-5.1 32.15-38.82 4.32 2.35-29.42z" class="bd"/><path d="m785.23 182.84-49.47 2.45 21.57-7.12 21.56-3.34 29.64 2.46-23.3 5.55z" class="r"/><path d="m765.95 159.67 5.65 11.93-8.72.43-1.3-2.56 4.37-9.8z" class="ag"/><path d="m778.11 170.52-42.87 10.28-38.17-7.14 13.99-10.4 67.05 7.26z" class="ad"/><path d="m735.76 185.29-52.61-4.25-2.94-10 39.6.79 15.43 5.49 5.75 3.33-5.23 4.64z" class="as"/><path d="m778.11 170.52 1.31 9.24-43.66 5.53-.52-7.97 42.87-6.8z" class="av"/><path d="m748.26 155.23 17.69 4.44-2.22 11.11-11.35-.21-1.2-1.29-1.78 1.24-3.97-.91 2.83-14.38z" class="aa"/><path d="m749.4 170.52 4.18-13.96-1.2 14.01-2.98-.05zM737.2 155.04l4.59 11.55-2.85 2.98-2.46-5 .72-9.53z" class="ag"/><path d="m719.23 160.36 17.97-5.32 1.74 14.53-16.86.7-2.85-9.91z" class="aa"/><path d="m728.53 179.47-60.71-6.82-17.49-54.59 14.8-1.72 50.74 5.35 12.66 57.78z" class="bh"/><path d="m728.53 179.47 6.71-2.15-15.21-57.45-8.87 1.32v2.56l17.37 55.72z" class="av"/><path d="m720.03 119.87-57.45-6.8-12.25 4.99 60.83 5.69 8.87-3.88z" class="ad"/><path d="m685.11 147.71 4.31-6.08 5.49 6.67-4.12 5.29-5.68-5.88z" class="ap"/></g><g id="g"><path d="m244.38 130.74 13.11-1.02-9.38 113.57-26.73-2.09 17.03-80.5 5.97-29.96z" class="bd"/><path d="m248.48 132.79-5.97-1.81-35.26-3.72-18.83.33-5.54 57.17 59.65 1.52 5.95-53.49z" class="ac"/><path d="m257.49 129.72-57.79-5.03-11.28 2.9 60.06 5.2 9.01-3.07z" class="at"/><path d="m234.52 178.73-15.2 6.03-23.99-12.37 6.53-39.95 16.55-6.13 24.12 2.1-6.83 3.27-1.18 47.05z" class="r"/><path d="m170.91 160.66 13-20.51v28.37l-5.38 7.64-13.99-2.67 6.37-12.83z" class="bb"/><path d="m196.18 136.16-12.27 3.99-7.28 19.34 21.46 6.81 24.68-1.36 4.92-22.26-13.5-3.62-18.01-2.9z" class="x"/><path d="m196.18 136.16-2.97 13.4 9.38-6.31 9.34 9.8 2.26-13.99-18.01-2.9z" class="bl"/><path d="m239.97 109.07 2.56 13.26-13.67-9.79 9.22-10.5 1.89 7.03z" class="au"/><path d="m160.75 69.29 4.99 59.25 22.68-.95 14.3 11.54 9.92-4.76 10.73-35.62-14.04-27.97-29.69-5.94-18.89 4.45z" class="aa"/><path d="m196.18 136.16 9.1-8.35 4.05-57.03 18.36 27.53-4.06 12.23-3.72 3.62.84 5.09-6.56 19.81-11.6 4.19-6.41-7.09z" class="ag"/><path d="m188.42 127.59 22.4-1.01-14.64 9.58-7.76-8.57zM223.63 110.54l-7.45-1.47 4.57 10.18 2.88-8.71zM219.32 105.83l.71-7.59 4.65.71-5.36 6.88z" class="y"/><path d="m195.33 85.59-12.45 18.62-16.6-16.9 5.47-2.53 5.46 1.82 3.65 2.43 2.83-2.94 5.57-1.41 6.07.91z" class="ag"/><path d="m177.21 86.6 1.32 17.81 2.06.58 2.29-.78.81-18.12-6.48.51z" class="az"/><path d="m178.53 104.41 2.33 2.64 2.02-2.84-4.35.2z" class="y"/><path d="m172.76 113.22 6.48 5.67 6.88-.21 7.09-6.14-12.15 2.57-8.3-1.89z" style="fill:#3e90aa;stroke-width:0"/><path d="m172.76 113.22 5.33.27 3.11-1.62 3.71 1.28 8.3-.61-11.81 3.72-8.64-3.04z" class="ae"/><circle cx="189.87" cy="96.32" r="2.33" class="bj"/><circle cx="172.26" cy="97.03" r="2.33" class="bj"/><path d="m166.28 87.31 10.93-.71-5.56-2.83-5.37 3.54zM183.69 86.09l11.64-.5-6.27-2.73-5.37 3.23zM160.75 69.29l13.54-14.06 14.13 3.94 1.45-6.16 12.78-1.82 28.19 18.06-7.47 11.26-15.13 5.58-47.49-16.8z" class="am"/><path d="m208.24 86.09 5.41 19.54 5.67-9.77 8.37 2.45-3.01-11.19 4.18.32 1.98-18.19-22.6 16.84z" class="au"/><path d="m174.29 55.23 40.34 26.1 4.69 1.53 2.56-6.94-32.01-22.91-15.58 2.22z" style="stroke-width:0;fill:#576071"/><path d="m214.63 81.33 13.06 16.98 1.17-10.87-6.98-11.52-7.25 5.41z" class="am"/><path d="m227.69 98.31 16.33-1.28-4.05 12.04-12.28-10.76z" class="am"/><path d="m176.63 159.49 8.24 22.09 34.45 3.18 3.45-19.82-46.14-5.45z" style="fill:#2a6275;stroke-width:0"/></g><g id="h"><path d="m240.59 270.8-13.55-1.42-7.08-17.2 20.63 1.83v16.79z" class="bh"/><path d="m255.44 257.06-.84 11.54-14.01 2.2-5.07-14.31 19.92.57zM181.47 280.52l12.19-2.42 8.43-21.61-23.24 5.29-3.03 11.47 5.65 7.27zM73.24 272.68l10.81-2.05 5.89-16.79-16.7 2.06-3.09 5.99 3.09 10.79z" class="ay"/><path d="m182.01 269.61-.54 10.91-16.08-1.44-3.07-15.92 19.69 6.45zM58.14 261.06l.52 10.46 14.58 1.16 3.62-15.93-18.72 4.31z" class="bh"/><path d="m182.01 269.61 73.43-12.55 4-64.1-74.79 22.94-16.45 10.92 13.81 42.79z" style="fill:#185e60;stroke-width:0"/><path d="m52.91 200.26 5.23 60.8 123.87 8.55 2.64-53.71-15.14-11.04-116.6-4.6z" class="bi"/><path d="m36.97 187.08 92.28-4.47 62.48 4.47 4.44 14.8-11.52 14.02-145.33-10.52-2.35-18.3z" class="ac"/><path d="m185.46 194.29 10.71-9.46 78.47-3.25-4.07 21.86-85.92 12.46.81-21.61z" class="ax"/><path d="m36.97 187.08 98.29-15.42 139.38 9.92-89.18 12.71-148.49-7.21z" class="ar"/><path d="m67.5 218.37 102.79 6.09-1.83 32.16-97.77-9.15-3.19-29.1z" class="w"/><path d="m198 223.16 46.02-6.28-3.14 32.16-44.97 6.53 2.09-32.41z" class="bi"/><path d="m247.68 179.66-19.99 4.48-35.51 2.14-9.3-1.52-15 .49-1.6-4.52 19.44-3.58 48.8 1.58 13.16.93z" class="r"/><path d="m113.04 182.11 54.84 3.14 5.09-4.64-4.05-4.77-55.88-2.35v8.62z" class="as"/><path d="m168.92 175.84 6.6-3.66 24.79-1.03 1.55 9.4-33.98 4.7 1.04-9.41z" class="av"/><path d="m200.31 171.15-59.3-2.63-27.97 4.97 55.88 2.35 31.39-4.69z" class="ad"/><path d="m176.63 159.49 7.06 10.93-5.31 1.97-3.8-3.74 2.05-9.16z" class="ag"/><path d="m176.63 159.49-14.92 3.06-1.03 7.58 11.4 1.45.89-.9 1.74 1.24 3.67.47-1.75-12.9z" class="aa"/><path d="m170.91 160.66 3.8 11.26-2.63-.34-1.17-10.92z" class="ag"/><path d="m97.16 124.1 59.34 2.2 4.9 53.2-55.18-3.29-9.06-52.11z" class="bh"/><path d="m161.4 179.5 7.52-3.66-8.5-51.15-10.98 1.61 4.12 2.24 7.84 50.96z" class="av"/><path d="m160.42 124.69-52.15-4.12-11.11 3.53 56.4 4.44 6.86-3.85z" class="ad"/><path d="m123.17 151.79 4.71-5.49 5.88 6.47-5.69 5.29-4.9-6.27z" class="ap"/><path d="m227.69 142.68 6.83 36.05-11.75-2.89-4.37-6.13 9.29-27.03z" class="bb"/><path d="m218.4 169.71-10.16 7.14.74 2.81 4.34 2.95 21.2-3.88-16.12-9.02z" class="bc"/><path d="m208.24 176.85-10.46-1.66v5.54l7.35 3.41 8.19-1.53-5.08-5.76z" class="aa"/><path d="m197.78 175.19-10.82 7.42 5.22 3.67 12.95-2.14-7.35-8.95z" class="ag"/></g><g id="i"><path d="m462.7 153.85 12.53-3.33-14.88 107.19-19.48 3.26 17.25-96.2 4.58-10.92z" class="bd"/><path d="m465.05 154.7-23.66-6.66-44.91-2.33-13.87 72.83 71.59 3.48 10.85-67.32z" class="ac"/><path d="m475.23 150.52-65.73-8.76-13.02 3.95 68.57 8.99 10.18-4.18z" class="at"/><path d="m446.73 152.3 8.98-4.38-25.94-3.45-7.59 8.32 2.61 24.4 9.25 32.25 12.69-6.35 3.38-20.49-3.38-30.3z" class="r"/><path d="m387.75 158.86-24.51 36.08 19.09 7.9 11.03-23.67-5.61-20.31z" class="ae"/><path d="m403.69 155.66-15.94 3.2-8.24 41.44 55.5 6.88 7-47.52-15.67-6.87-22.65 2.87z" class="x"/><path d="m403.69 155.66-5.49 13.98 8.39-9.98 13.64 11.77 6.11-18.64-22.65 2.87z" class="bl"/><path d="m355.79 82.48 10.31 65.25 30.38-2.02 12.03 9.95 17.09-7.12 10.01-42.06L424.99 74l-42.87-4.2-26.33 12.68z" class="aa"/><path d="m403.69 155.66 8.06-11.06-3-63.94L424.99 74l20.1 33.28-5.74 13.93-5.27 4.79.69 6.33-8.43 20.46-19.75 6.87-2.9-4z" class="ag"/><path d="m396.48 145.71 21.33-1.72-14.12 11.67-7.21-9.95zM439.35 121.21l-10.61-.98 6.03 12.1 4.58-11.12zM434.08 117.28l1.02-7.88 5.31.26-6.33 7.62z" class="y"/><path d="m395.8 100.85-4.13-3.23-7.84 2.54-2.61 3.73-1.9 2.39-2.26-2.25-2.79-3.25-6.16-1.73-4.87 3.85 21.44 19.02 11.12-21.07z" class="ag"/><path d="m377.06 104.03.36 18.35 3.63 1.08 3.63-1.54-3.46-18.03-4.16.14z" class="az"/><path d="m377.42 122.38 4.24 3.62 3.02-4.08-7.26.46zM375.04 130.18l7.42 1.91 11.01-3.81.63 2.85-11.33 4.03-8.36-2.12.63-2.86z" class="y"/><circle cx="391.03" cy="109" r="2.33" class="bj"/><circle cx="371.13" cy="110.8" r="2.33" class="bj"/><path d="m363.24 102.9.37-2.58 9.1-3.07 1.56 3.53-11.03 2.12zM383.83 100.16l1.59-3.86 9.21 1.48 1.17 3.07-11.97-.69zM355.79 82.48l5.37 1.23 9.97-2.18 3.28 5.23 7.92 1.82 7.49-4.91 2.67 1.86 16.26-4.87 17.5-3.32 6.08-13.05-13.52-3.45-6.83.77-2.08-3.04-14.08-3.59-26.3 12.1-13.73 15.4z" class="bk"/><path d="m408.75 80.66 3.23 4.87 6.83 2.85-2.06 4.35 4.01 6.05 14.85-1.68 8.09-8.72-11.37-24.09-23.58 16.37zM382.33 88.58l27.57-30.01 8.91 2.27-26.32 24.69-10.16 3.05zM395.82 54.98l-21.41 31.78-13.25-3.05 34.66-28.73z" class="be"/><path d="m420.76 98.78-.53 5.81 4.56 5.9 5.97-4.81 14.33 1.6-1.39-18.9-22.94 10.4zM416.75 92.73l22.19-14.44-26.96 7.24 4.77 7.2z" class="p"/><path d="m430.76 105.68-10.53-1.09-1.42 15.64h7.41l4.54-14.55z" class="be"/><path d="m442.01 159.66 8.1 22.94-7.35 20.24-20.58-3.08 19.83-40.1z" class="ae"/><path d="m399.53 186.04 8.95 5.9.76 11.95-13.54-7.36-4.43-4.28 8.26-6.21z" class="ag"/><path d="m442.76 202.84-2.15 5.95-35.74-7.4 3.61-9.45 34.28 10.9z" class="bc"/></g><g id="j"><path d="m468.42 300.72-13.59-2.07-5.39-16.31 23.8 1.66-1.99 10.11-2.83 6.61z" class="bh"/><path d="m484.53 287.47-1.02 11.18-15.09 2.07-4.01-19.85 20.12 6.6zM407.28 314.14l14.9-2.75 3.72-17.94-17.45 8.27-3.92 5.31 2.75 7.11zM272.07 301.94l13.81-2.27 4.43-20.72-14.51 3.97-6.28 11.56 2.55 7.46z" class="ay"/><path d="m255.46 288.01 1.71 12.69 14.9 1.24 3.73-19.02-20.34 5.09zM408.45 301.72l-1.17 12.42-12.9-1.49-5.49-24.92 19.56 13.99z" class="bh"/><path d="m408.45 301.72 76.08-14.25 6.64-67.09-79.19 7.92-.15 4.49-9.65 20.93 6.27 48z" class="x"/><path d="m245.99 216.63 9.47 71.38 152.99 13.71 3.38-68.93-22.98-11.56-114.23-8.93-28.63 4.33z" class="bd"/><path d="m234.52 200.86 2.93 25.17 174.38 6.76 10.35-23.32-108.35-7.21-79.31-1.4z" class="ac"/><path d="m411.83 232.79 96.57-8.81 2.05-16.01h-71.41l-25.85 7.64-1.36 17.18z" class="ax"/><path d="m234.52 200.86 82.88-7.67 193.05 14.78-97.26 7.64-178.67-14.75z" class="ar"/><path d="m369.7 206.86 35.71-6.93 27.25 2.08-20.39 4.02-42.57.83z" class="r"/><path d="m265.45 236.4 130.72 6.8-4.19 40.26-121.56-9.68-4.97-37.38z" class="o"/><path d="m424.92 244.5 53.07-7.58-4.44 40.79-50.46 5.75 1.83-38.96z" class="bd"/><path d="m404.1 192.65-59.44-1.85 8.37 11.46h25.36l25.71-9.61z" class="ad"/><path d="m312.77 194.7 1.06 8.59 55.87 4.59 4.77-4.81-4.45-3.92-57.25-4.45z" class="as"/><path d="m294.27 140.85 19.68-1.05 43.65 5.99 6.15 41.14-2.11 14.16-57.06-6.71-10.31-53.53z" class="bh"/><path d="m370.02 199.15 34.08-6.5 1.74 9.7-36.14 5.53.32-8.73zM354.34 147.32l-1.36-3.21 7.63-1.78 9.41 56.82-8.38 1.94-7.3-53.77z" class="av"/><path d="m322.44 170.39 5.89-5.49 5.09 6.27-5.23 6.02-5.75-6.8z" class="ap"/><path d="m354.34 147.32 6.27-4.99-53.46-5.55-12.88 4.07 60.07 6.47z" class="ad"/><path d="m383.76 178.96 4.01 1.02v2.34l1.39.33 10.37 3.39-6.18 8.66-16.95-1.51 7.36-14.23z" class="aa"/><path d="m387.77 179.98-7.55 13.55 8.94-10.88-1.39-2.67z" class="ag"/></g><g id="k"><path d="m283.36 319.34-11.42-1.47-7.03-12.64 20.94.9-2.49 13.21z" class="v"/><path d="m163.68 318.77 8.81-1.54 8.23-11.49-14.74-1.53-2.3 14.56zM223.81 325.47l10.91-1.53 5.75-14.17-20.87 2.49-2.11 6.89 6.32 6.32z" class="al"/><path d="m151.96 309.35.81 8.08 10.91 1.34 5.75-12.26-17.47 2.84zM223.37 317.26l.44 8.21-12.45-1.34-4.21-12.45 16.22 5.58z" class="v"/><path d="m295.72 308.8.21 8.82-12.57 1.72-10.15-14.55 22.51 4.01z" class="al"/><path d="m146.6 254.57 5.36 54.78 71.41 7.91 12.15-60.77-88.92-1.92z" style="fill:#abafb8;stroke-width:0"/><path d="m218.93 263.16 16.59-6.67 58.75-1.92 1.45 54.23-72.35 8.46-4.44-54.1z" class="bg"/><path d="m146.6 254.57 72.33-8.95 75.34 8.95-75.34 8.59-72.33-8.59z" style="fill:#cccfd4;stroke-width:0"/><path d="m159.66 267.06 48.25 6.71.98 12.93-2.84 1.76 3.11 1.89 1.05 14.05-48.25-5.93-1.05-14.26 2.2-.58-2.35-1.57-1.1-15z" class="o"/><path d="m160.91 284.21 48.25 6.14-.27-3.65-48.13-4.64.15 2.15z" class="bd"/><path d="m180.6 277.09 2.49-2.69 2.55 3.32-3 2.17-2.04-2.8zM180.85 292.79l3-2.88 2.24 3.26-2.24 2.04-3-2.42z" class="x"/><path d="m235.11 276.06 41.55-5.17 2.11 25.47-42.32 5.17-1.34-25.47z" class="af"/></g><g id="l"><path d="m712.11 306.89 6.32-.95-.39-30.83-7.47 6.89-2.29 12.26 3.83 12.63z" class="z"/><path d="m701.57 295.4 3.93 10.73 6.61.76-1.54-24.89-9 13.4zM785.51 309.57l-5.49-.38-7.66-18.76 7.92-.52 7.4 9.07-2.17 10.59z" class="q"/><path d="m734.57 319.79 5.62-.9 5.11-23.23-9.45 7.38-2.81 10.75 1.53 6zM658.36 314.04l5.24-.89 10.59-22.09-9.19 2.05-5.74 8.04-.9 12.89z" class="z"/><path d="m653.64 295.14-1.79 18.52 6.51.38 6.64-20.93-11.36 2.03zM735.85 303.04l-1.28 16.75-6.38-.51-2.55-21.19 10.21 4.95z" class="q"/><path d="m790.55 292.95 1.09 15.48-6.13 1.14-5.23-19.66 10.27 3.04z" class="z"/><path d="m659.26 246.13-5.62 49.01 82.21 7.9 11.49-53.59-88.08-3.32z" class="ar"/><path d="m738.91 254.81 7.41-6.9 41.95.2 2.28 44.84-54.7 10.09 3.06-48.23z" class="ac"/><path d="m659.26 246.13 52.85-7.15 76.16 9.13-49.36 6.7-79.65-8.68z" class="bl"/><path d="m750.91 264.77 26.55-5.49 1.54 25.91-29.62 5.87 1.53-26.29z" class="bm"/><path d="m669.98 259.15 55.66 5.11-2.3 27.31-56.43-5.36 1.32-11.63 3.15-2.65-2.5-3.05 1.1-9.73z" class="ac"/><path d="m668.88 268.88 10.89 1.25-.77 5.23-10.77-.78.65-5.7z" class="bm"/></g><g id="m"><path d="m468.84 196.3 2.57 22.43 5.75-3.43-5.24-22.84-3.08 3.84z" class="ay"/><path d="m477.16 215.3-21.45-4.57 2.79 7.07 13.69 4.86 4.97-7.36z" class="bh"/><path d="m457.01 191.22-5.61 24.08 7.1 2.5 1.52-26.77-3.01.19z" class="bg"/><path d="m467.88 169.28-4.54-3.69-8.19 13.74 9.38 4.27 3.35-14.32z" class="aa"/><path d="m480.34 197.56-11.5-1.26 9.39-19.33 9.09 12.59.51 4.23-7.49 3.77z" class="ag"/><path d="m455.15 179.33 12.73-10.05 10.35 7.69.96 10.91-10.35 8.42-11.83-5.08-1.86-11.89z" style="fill:#545c6d;stroke-width:0"/><path d="m459.51 180.83 8.27-6.34 5.74 3.91.98 7.71-6.38 4.99-7.44-2.83-1.17-7.44z" style="fill:#eeeff1;stroke-width:0"/><path d="m466.06 179.35 1.41.49-1.16 3.64 4.92-.71.18 1.29-6.51.55 1.16-5.26z" class="z"/><path d="m484.15 192.46-4.96-4.58-7.27-10.57 2.58-3.11 8.67 5.81 3.86 7.2.09 3.52-2.97 1.73z" class="aa"/><path d="m500.84 208.77-20.5-11.21 6.69-10.35 19.05 3.82-5.24 17.74z" class="av"/><path d="m581.06 74.76 13.85-6.53-3.94-10.52-15.58-13.37L575 65l6.06 9.76z" class="au"/><path d="m495.95 293.05-9.62 13.63-4.35 5.81 10.52 1.4 8.42-1.97 5.16-14.74-3.7-4.84-6.43.71z" class="aa"/><path d="m486.33 306.68 13.67 3.06-6.77 7.52-16.12-1.58 9.22-9z" class="z"/><path d="m492.53 314.93 7.47-5.19 6.08-12.56 4.8 6.75-2.32 15.6h-4.27l-.64-7.1-9.15 7.1h-17.32l-.07-3.85 15.42-.75zM556.02 306.92l5.05 10.95-3.69 9.7-7.03-3.09 5.67-17.56z" class="av"/><path d="m545.61 303.33 10.41 3.59-2.32 16.68-10.4-3.35-3.64-5.56 1.77-3.12 4.18-8.24z" class="aa"/><path d="m553.7 323.6-14.04-8.91-6.82 8.91 10.35 1.65 10.51-1.65z" class="z"/><path d="M557.38 323.6v3.97h-24.54v-3.97h24.54z" class="av"/><path d="m541.43 311.57 14.59-4.65-9.43-53.84-5.16 58.49z" class="ao"/><path d="m577.7 208.72-18.41 12.32-6.56-10.31 13.45-19.7 10.51 3.62 1.01 14.07z" class="av"/><path d="m562.26 162.62 29.77 37.18-14.33 8.92-24.74-16.33-9.55-18.34 18.85-11.43z" class="bg"/><path d="m492.87 52.23 33.82 8.4 30.42 11.12-2.5 13.96-8 16.35 3.52-.17 2.5 4.14 3.91-7.32 3.18-3.18 5.05 2.44 5.45 6.13-1.59 3.75-4.48 5.22-4.03 5.9-20.09 28.86-17.45 11.32-6.73-15.38.75-12.37-33.72-8.34 1.93-33.89 3.41-15.66 5.38-3.74-3.46-5.05 2.73-12.49z" class="aa"/><path d="m529.19 95.3-5-11.74-12.96-.08-6.28 16.42-1.98 3.12 5.9-27.01 1.6-2.33 5.53 1.08 10.18-2.38 4.71 10.84 3.41 5.95-5.11 6.13zM488.21 73.51l8.91 6.47.57 11.92 4.89-20.05.38-5.97-5.92-2.28-6.9 1.12-1.93 8.79z" class="ag"/><path d="m532.37 100.75-27.42-.85-.45-3.97 27.87 4.82zM484.75 90.42l11.46 7.72 1.03-4.2-12.49-3.52z" class="ag"/><path d="m548.09 69.03-12.15 10.55-3.57 10.11v11.06l-2.44 31.84-9.78 24.08 8.58 2.37 15.27-4.26 9.96-22.12 1.73-10.79 4.43-2.9-8.86-5.22 1.37-7.72-1.37-7.89 14.56-23.76-3.56-8.5-14.17 3.15z" class="ag"/><path d="m560.12 118.97-8.86-5.22 2.67 18.9 6.19-13.68zM482.88 123.06l55.27 10.84-14.35 24.74-3.41 2.16-5.69-11.18-1.46-16.8-30.36-9.76z" class="y"/><path d="m502.96 65.88-6.56-4.57-6.26 3.41 6.41-.5 6.41 1.66zM509.42 73.44l16.76-1.06-11.08 5.03-5.68-3.97z" class="au"/><path d="m511.96 76.27-7.46 19.66-1.53 7.09-3.75.71-3.91-1.84 1.94-7.95 1.97-21.05 12.74 3.38z" class="az"/><path d="m502.97 103.02-4.09 3.29-3.57-4.42 7.66 1.13z" class="y"/><path d="m515.66 110.39-13.61 7.59-10.44-6.9 11.12 1.35 12.93-2.04z" style="fill:#3c9fb9;stroke-width:0"/><path d="m564.6 106.26-3.91-3.98-4.15 6.19 8.06-2.21z" class="y"/><path d="m492.87 52.23 31.61-21.34-1.02 16.06-4.43 13.22-26.16-7.94z" class="av"/><path d="m524.48 30.89 50.91 13.45L579.41 65l-10.89 4.48-11.41 2.27-9.02-2.72-29.06-8.86 5.45-29.28z" class="z"/><path d="m579.41 65 1.59 9.65 4.03 24.06-17.82-2.84-16.29-6.18 6.19-17.94 22.3-6.75z" class="av"/><path d="m585.03 98.71-34.11-9.02-4.31 12.37 6.02 3.97 7.09-10.5 6.1 2.61 4.4 5.96-6.07 8.97 20.88-14.36z" class="au"/><path d="m575.39 44.34 23.84-8.51 6.81 46.02-30.65-37.51z" class="z"/><path d="m545.74 151.09-31.04-1.47-2.4 8.98 5.11 11.23 20.24-4.73 15.31-8.93-7.22-5.08z" class="av"/><path d="m552.96 156.17 9.3 6.45-9.3 29.77-17.85 2.26-23.14-3.01-14.6-11.5 17.33-30.52 2.71 20.21 35.55-13.66z" style="fill:#71cacc;stroke-width:0"/><path d="m552.96 192.39-55.59-12.25 3.47 28.63 2.87 13.22 42.5-6.69 6.75-22.91z" class="ao"/><path d="M488.83 80.58c0 1.59 1.31 2.89 2.95 2.89s2.89-1.31 2.89-2.89c0-1.59-1.31-2.89-2.89-2.89s-2.95 1.3-2.95 2.89ZM515.61 87.3c0 1.65 1.31 2.95 2.89 2.95s2.89-1.3 2.89-2.95c0-1.59-1.31-2.9-2.89-2.9s-2.89 1.31-2.89 2.9Z" class="bj"/><path d="m546.21 215.3-25.9 5.26-19.47-11.79-2.38 37.8 42.97 65 18.11-76.83-13.33-19.44z" class="w"/><path d="m546.21 215.3-2.8 9.57 2.8 6.96 13.33 2.91-13.33-19.44z" class="r"/><path d="m541.43 311.57-45.48-18.52 2.51-46.48 16.37-9.22 26.6 74.22z" class="ao"/><path d="m546.21 215.3-31.38 22.05-13.99-28.58 45.37 6.53z" style="fill:#72cbcc;stroke-width:0"/><path d="m515.66 110.39-9.78.44-4.89-1.31-4.79 1.01-4.59.55 9.79 3.07 14.26-3.76z" style="fill:#28778b;stroke-width:0"/><path d="m552.73 210.73-9.48.49v6.47l9.53 7.18 6.51-3.83-6.56-10.31z" class="aa"/><path d="m543.25 211.22-9.22 12.64 12.18 7.97 6.57-6.96-9.53-13.65z" class="ag"/><path d="m535.94 79.58 32.36 14.7 1.92 9.82-10.5-8.57-25.15-7.83-.27-3.29 1.64-4.83z" class="ah"/><path d="m473.57 87.3 23.67 6.64 4.26-17.38 3.65-.71 3.21 2.25-3.86 17.83 27.87 4.82 3.58-21.17-26.53-6.15-3.96.36-2.87-1.94-24.93-5.78-4.09 21.23Zm55.62 8-19.77-3.41 2.79-12.93 18.68 4.25-1.7 12.09Zm-49.47-11.33 1.46-12.22 16.93 4.33-3.46 12.68-14.93-4.79Z" class="bd"/><path d="m501.5 76.56 6.86 1.54 1.06-4.66-6.84-1.59-1.08 4.71z" class="ah"/></g></svg>