<svg xmlns="http://www.w3.org/2000/svg" id="a" viewBox="0 0 900 420"><defs><style>.aa,.ab,.ac,.ad,.ae,.af,.ag,.ah,.al,.am,.ao,.ap,.ar,.as,.au,.av,.ax,.ay,.az,.bb,.bc,.bd,.be,.bg,.bh,.bi,.bj,.bk,.bl,.bm,.o,.p,.q,.r,.v,.w,.x,.y,.z{stroke-width:0}.o{fill:#4b9db7}.p{fill:#46382d}.q{fill:#89909b}.r{fill:#1d2432;opacity:.1}.v{fill:#4298b4}.w{fill:#359496}.x{fill:#317186}.y{fill:#8b6651}.z{fill:#68707f}.aa{fill:#dfbda5}.ab{fill:#8dc1d2}.ac{fill:#7bb7ca}.ad{fill:#9a9fa9}.ae{fill:#275b6c}.af{fill:#4fa9aa}.ag{fill:#c3987b}.ah{fill:#2e6a7d}.al{fill:#347990}.am{fill:#454d5d}.ao{fill:#217677}.ap{fill:#94d5d5}.ar{fill:#b3d5e1}.as{fill:#51596a}.au{fill:#343c4b}.av{fill:#404857}.ax{fill:#67acc3}.ay{fill:#4b5464}.az{fill:#e8cab6}.bb{fill:#245362}.bc{fill:#3b88a1}.bd{fill:#388199}.be{fill:#5f5044}.bg{fill:#787f8d}.bh{fill:#5f6878}.bi{fill:#1e7678}.bj{fill:#232a38}.bk{fill:#74665b}.bl{fill:#d9eaf0}.bm{fill:#55a2bb}</style></defs><g id="b"><path d="m68.75 336.68-11.23-15.05 33.62-6.12 100.85-9.22 76.92 4.89 39.77 19.31-44.95 7.2-90.86 7.83-6.82-6.68-11.32 5.06-85.98-7.22zM239.1 372.69l-14.53-12.75 5.83-10.15 103.15-7.49 95.08-1.73 110.61 11.82L557.11 364l49.39 5.53 17.89 16.37-54.32 11.72-11.52-6.91-16.17 6.91-43.28-9.07-7.69-5.62-11.85 5.62-23.22-6.77-64.67.68.63-5.87-15.18 4.19-138.02-8.09zM85.76 390.68l-2.88-12.07 26.79-5.77 71.46-.57 51.64 4.16 35.69 6.5-20.51 12.19-94.34 4.13-7.13-11.14-6.91 9.62-53.81-7.05zM575.15 317.92l-5.34-14.77 26.51-4.03 50.13-10.09 48.12 13.55-59.63 21.37-59.79-6.03z" class="r"/><path d="m617.32 341.79 4.06-15.91 67.14-13.54 76.06-4.61 67.01 8.58 55.4 10.95-26.47 21.32-101.37 4.71-6.38-7.53-12.65 5.54-122.8-9.51zM644 386.35l-1.15-6.77 74.7-10.9 74.84 2.81 35.12 5.83-17.16 11.17-80.34 4.35-3.32-4.18-3.89 3.6-78.8-5.91z" class="r"/></g><g id="c"><path d="m223.82 23.11-20.79 281.67 74.95 7.01 20.01-153.38-4.32-135.3-27.55-2.31-42.3 2.31z" class="ab"/><path d="m282.37 28.16 6.32-6.69 27.8.9 16.06 283.59-54.57 5.83 4.39-283.63z" class="ax"/><path d="m223.82 23.11 45.04-6.34 47.63 5.6-34.12 5.79-58.55-5.05z" class="ar"/><path d="m235.37 69.09 37.62 2.43-1.33 23.23-38.28-1.99 1.99-23.67zM232.94 105.13l38.05 2.66-1.03 22.71-38.5-2.87 1.48-22.5zM231.02 142.82l37.84 3.32-1.11 24.68-38.5-4.32 1.77-23.68z" class="bm"/><path d="m240.9 75.39 3.76.45-.44 4.42-4.09-.22.77-4.65zM262.7 76.72l4.2.44-.44 4.76-4.21-.22.45-4.98zM237.47 110.78l3.21.33-.22 4.75-3.65-.22.66-4.86zM261.26 112.99l3.98.33-.33 4.54-4.09-.45.44-4.42zM235.7 148.17l3.76.33-.33 4.09-3.87-.33.44-4.09zM259.38 150.27l3.54.22-.33 4.21-3.99-.45.78-3.98z" class="bd"/><path d="m234.97 57.9 36.13 2.16 1.3-21.22-35.92-1.95-1.51 21.01z" class="bm"/><path d="m263.18 43.28 3.75.29-.15 4.03-3.89-.43.29-3.89zM242.15 42.27l3.31.29-.29 3.6-3.46-.43.44-3.46z" class="bd"/></g><g id="d"><path d="m575.15 317.92 8.26-1.43 4.43-17.5-12.84.89-2.5 12.83 2.65 5.21z" class="z"/><path d="m558.26 308.87-.42 7.7 17.31 1.35 3.84-15.54-20.73 6.49z" class="q"/><path d="m641.88 43.48-73.29.87-20.34 263.52 80.49 4.15 13.14-96.9V43.48z" class="ab"/><path d="m630.31 50.97 14.39-13.7 30.64 1.45L686 307.08l-57.26 9.94 1.57-266.05z" class="ax"/><path d="m568.59 44.35 38.43-9.81 68.32 4.18-45.03 12.25-61.72-6.62z" class="ar"/><path d="m579.48 155.6 37.18 3.01-1.33 22.61-36.95-2.51 1.1-23.11zM576.92 195.74l38.19 3.06-.89 22.11-39.23-2.62 1.93-22.55zM573.43 272.43l36.59 2.93-.89 22.1-36.62-4.6.92-20.43z" class="bm"/><path d="m578.98 278.07-.51 5.06 4.75.5.62-5.17-4.86-.39zM582.47 202.39l3.98.45-.44 4.64-4.21-.22.67-4.87zM604.71 203.94l4.42.44-.44 4.65-4.65-.44.67-4.65zM585.6 162.31l4.3.2-.41 5.33-4.92-.61 1.03-4.92zM604.93 164.3l4.65.22-.45 4.65-5.09-.44.89-4.43z" class="bd"/><path d="m616.49 113.14-.87 24.76-36.28-2.57.84-24.49 36.31 2.3zM617.3 68.39l-1.68 21.48-36.28-3.57.84-21.49 37.12 3.58z" class="bm"/><path d="m606.76 118.26 4.97.43-.65 4.54-4.53-.22.21-4.75zM586.66 117.18l4.54.43-.43 3.89-3.89-.22-.22-4.1z" class="bd"/></g><g id="e"><path d="m821.51 179.21 18.16-1.16-11.71 111.52h-18.81l4.32-69.18 8.04-41.18z" class="bi"/><path d="m826.93 181.45-24.96-6.92-49.85-3.11-11.23 80.98 74.89 7.4 11.15-78.35z" class="af"/><path d="m839.67 178.05-70.34-10.45-17.21 3.82 74.81 10.03 12.74-3.4z" class="ap"/><path d="m804.82 178.48 9.7-4.16-45.19-6.72 5.89 29.26 29.29 37.98 5.09-25.55-4.78-30.81z" class="r"/><path d="m745.18 186.02-28.34 39.23 21.53 4.92 10.72-31.1-3.91-13.05z" class="ae"/><path d="m762.25 181.45-17.07 4.57-13.03 39.23 59.35 11.81 11.83-45.6-14.72-12.25-26.36 2.24z" class="x"/><path d="m767.99 190.31 14.33 10.48 6.29-21.58-26.36 2.24-6.1 15.41 11.84-6.55z" class="bl"/><path d="m719.31 106.79-1.1 63.88 39.76 3.76 12.02 8.88 12.78-11.38 13.62-44.36-9.07-32.1-44.36-6.32-23.65 17.64z" class="aa"/><path d="m762.25 181.45 5.28-5.96 4.73-70.3 29.71 29.04-4.6 15.54-2.79 2.85-.21 7.22-5.76 19.37-20.62 11.1-5.74-8.86z" class="ag"/><path d="m757.97 174.43 17.25 1.59-12.97 5.43-4.28-7.02z" class="y"/><path d="m722.36 126.17 6.93-3.82 5.62 3.79 2.13 4.1 2.28 2.89 3.18-2.73 2.43-3.65 7.44-3.95 7.05 4.77-17.98 20.59-19.08-21.99z" class="ag"/><path d="m797.37 149.77-11.75-1.37 8.75 11.44 3-10.07zM789.95 144.81l1.48-8.2 6.04 1.37-7.52 6.83z" class="y"/><path d="m742.5 130.4-5.46-.16-1.75 17.54 3.08 1.21 3.07-.83 1.06-17.76z" class="az"/><path d="m722.36 126.17-.66-2.08 6.15-3.79 7.44 3.64-.38 2.2-6.41-1.97-6.14 2zM744.93 126.75l-.91-2.28 8.66-3.56 7.54 4.78-.8 1.88-7.3-2.56-7.19 1.74z" class="ay"/><circle cx="749.87" cy="137.19" r="2.39" class="bj"/><circle cx="729.71" cy="136.16" r="2.39" class="bj"/><path d="m729.14 154.18 10.14 3.14 10.97-2.3-.94 3.24-10.24 2.4-9.72-3.24-.21-3.24z" class="y"/><path d="m735.29 147.78-9.34 3.99-1.48 4.32 13.93-3.6 15.23 4.97-2.85-6.83-9.34-2.47-6.15-.38z" class="ay"/><path d="m735.29 147.78 3.11 4.71 3.04-4.33-6.15-.38z" class="au"/><path d="m723.07 104.43-6.23-6.68 32.73-16.24 17.02 2.68 5.67 4.96 11.6-2.24 14.16 2.24-12.4 14.98-13.36 1.06-30.82 2.58-18.37-3.34z" class="ay"/><path d="m772.26 105.19 5.92 7.59-3.07 3.6 8.19 32.19 3.72-17.1 14.95 2.76 2-6.66-2.71-8.26 6.83-5.46-10.07-24.7-25.76 16.04zM772.26 105.19l-40.16-6.94-7.63 6.67 16.87 6.67 30.92-6.4z" class="au"/><path d="M749.57 81.51 732.1 98.25l-7.63 2.69-14.61-6.53 39.71-12.9zM744.91 100.47l21.68-16.28 17.27 2.72-38.95 13.56z" class="z"/><path d="m732.1 98.25 9.24 13.34-22.03-4.8-9.45-12.38 22.24 3.84zM772.26 105.19l35.83 8.66-4.12 13.72-28.86-11.19-2.85-11.19z" class="ay"/><path d="m803.33 191.46 6.27 17.83-13.58 28.87-23.11-12.17 6.23-5.6 24.19-28.93z" class="ae"/></g><g id="f"><path d="m819.33 345.01-16.15-1.99-9.74-21.15 31.42-.88-5.53 24.02z" class="bh"/><path d="m759.15 353.29 15.27-3.32 7.74-22.34-27.44 5.97-1.1 8.63 5.53 11.06zM617.32 341.79l13.28-3.1 11.28-19.47-24.78 4.87.22 17.7z" class="ay"/><path d="m597.95 326.46 1.23 13.34 18.14 1.99 6.64-20.36-26.01 5.03zM760.14 339.28l-.99 14.01-19.03-1.99-3.1-20.35 23.12 8.33z" class="bh"/><path d="m837.36 326.02-1.43 15.67-16.6 3.32-4.87-24.24 22.9 5.25z" class="ay"/><path d="m760.14 339.28 77.22-13.26 9.44-78.05-82.14 28.7-25.77 28.09 21.25 34.52z" class="x"/><path d="m592.05 254.07 5.9 72.39 162.19 12.82 4.52-62.61-33.44-16.2-139.17-6.4z" class="bd"/><path d="m785.46 241.19-20.8 35.48L575 262.21l-2.31-21.51 110.54-8.71 102.23 9.2z" class="ac"/><path d="m764.66 276.67 97.77-15.77 4.68-28.41-78.55 6.14-21.25 11.43-2.65 26.61z" class="ax"/><path d="M767.31 250.06c-1.33-.36-194.62-9.36-194.62-9.36l108.43-23.68 185.99 15.47-99.8 17.57Z" class="ar"/><path d="m612.01 277.62 133.2 10.18-2.21 36.29-126.57-10.62-4.42-35.85z" class="o"/><path d="m781.05 287.36 46.91-7.97-5.75 36.29-43.81 4.87 2.65-33.19z" class="bd"/><path d="m787.17 234.3-55.83 2.76 24.34-8.04 24.34-3.77 33.45 2.78-26.3 6.27z" class="r"/><path d="m765.42 208.15 6.37 13.46-9.84.49-1.47-2.89 4.94-11.06z" class="ag"/><path d="m779.14 220.39-48.39 11.6-43.07-8.06 15.79-11.73 75.67 8.19z" class="ad"/><path d="m731.34 237.06-59.37-4.8-3.32-11.28 44.7.88 17.4 6.2 6.49 3.76-5.9 5.24z" class="as"/><path d="m779.14 220.39 1.47 10.42-49.27 6.25-.59-9 48.39-7.67z" class="av"/><path d="m745.45 203.13 19.97 5.02-2.51 12.53-12.81-.23-1.35-1.46-2.02 1.4-4.47-1.03 3.19-16.23z" class="aa"/><path d="m746.73 220.39 4.72-15.75-1.35 15.81-3.37-.06zM732.97 202.92l5.18 13.03-3.22 3.37-2.78-5.64.82-10.76z" class="ag"/><path d="m712.69 208.92 20.28-6 1.96 16.4-19.03.79-3.21-11.19z" class="aa"/><path d="m723.18 230.49-68.51-7.7-19.73-61.6 16.7-1.94 57.26 6.03 14.28 65.21z" class="bh"/><path d="m723.18 230.49 7.57-2.43-17.16-64.83-10.01 1.49v2.88l19.6 62.89z" class="av"/><path d="m713.59 163.23-64.83-7.68-13.82 5.64 68.64 6.41 10.01-4.37z" class="ad"/><path d="m674.18 194.65 4.87-6.86 6.2 7.52-4.65 5.98-6.42-6.64z" class="ap"/></g><g id="g"><path d="m243.87 176.5 14.8-1.16-10.59 128.17-30.16-2.36 19.22-90.84 6.73-33.81z" class="bd"/><path d="m248.5 178.81-6.74-2.04-39.79-4.2-21.26.37-6.24 64.51 67.31 1.72 6.72-60.36z" class="ac"/><path d="m258.67 175.34-65.22-5.67-12.74 3.27 67.79 5.87 10.17-3.47z" class="ar"/><path d="m232.75 230.65-17.16 6.8-27.07-13.95 7.37-45.08 18.67-6.92 27.22 2.37-7.71 3.69-1.32 53.09z" class="r"/><path d="m160.96 210.27 14.67-23.15v32.01l-6.07 8.62-15.79-3.01 7.19-14.47z" class="bb"/><path d="m189.47 182.62-13.84 4.5-8.21 21.82 24.21 7.68 27.85-1.52 5.55-25.13-15.23-4.08-20.33-3.27z" class="x"/><path d="m189.47 182.62-3.35 15.12 10.58-7.13 10.55 11.07 2.55-15.79-20.33-3.27z" class="bl"/><path d="m238.89 152.04 4.57 13.51-17.81-11.96 5.9-12.51 7.34 10.96z" class="au"/><path d="m149.49 107.16 5.64 66.85 25.58-1.07 16.15 13.03 11.19-5.37 12.11-40.21-15.84-31.56-33.51-6.7-21.32 5.03z" class="aa"/><path d="m189.47 182.62 10.27-9.43 4.58-64.36 20.71 31.07-4.57 13.8-4.21 4.08.96 5.75-7.41 22.36-13.1 4.72-7.23-7.99z" class="ag"/><path d="m180.71 172.94 25.28-1.14-16.52 10.82-8.76-9.68zM220.46 153.7l-8.41-1.66 5.16 11.49 3.25-9.83zM215.59 148.39l.8-8.57 5.25.8-6.05 7.77z" class="y"/><path d="m188.52 125.54-14.05 21.02-18.73-19.07 6.17-2.86 6.16 2.06 4.12 2.74 3.19-3.31 6.29-1.6 6.85 1.02z" class="ag"/><path d="m168.07 126.69 1.49 20.1 2.32.65 2.59-.88.91-20.44-7.31.57z" class="az"/><path d="m169.56 146.79 2.63 2.97 2.28-3.2-4.91.23z" class="y"/><path d="m163.05 156.73 7.31 6.39 7.76-.23 8-6.93-13.71 2.9-9.36-2.13z" style="fill:#3e90aa;stroke-width:0"/><path d="m163.05 156.73 6.01.3 3.51-1.83 4.18 1.45 9.37-.69-13.33 4.19-9.74-3.42z" class="ae"/><circle cx="182.35" cy="137.65" r="2.63" class="bj"/><circle cx="162.48" cy="138.45" r="2.63" class="bj"/><path d="m155.74 127.49 12.33-.8-6.28-3.2-6.05 4zM175.38 126.12l13.14-.58-7.08-3.08-6.06 3.66zM149.49 107.16l15.28-15.87 15.94 4.44 1.64-6.95 14.43-2.06 31.81 20.38-8.43 12.72-17.07 6.3-53.6-18.96z" class="am"/><path d="m203.09 126.12 6.1 22.04 6.4-11.02 9.44 2.76-3.39-12.63 4.72.36 2.23-20.53-25.5 19.02z" class="au"/><path d="m164.77 91.29 45.53 29.45 5.29 1.72 2.89-7.82-36.13-25.86-17.58 2.51z" style="stroke-width:0;fill:#576071"/><path d="m210.3 120.74 14.73 19.16 1.33-12.27-7.88-12.99-8.18 6.1zM225.03 139.9l19.43-2.45-5.57 14.59-13.86-12.14z" class="am"/><path d="m167.42 208.94 9.29 24.93 38.88 3.58 3.89-22.35-52.06-6.16z" style="fill:#2a6275;stroke-width:0"/></g><g id="h"><path d="m239.59 334.56-15.29-1.61-7.98-19.41 23.27 2.06v18.96z" class="bh"/><path d="m256.36 319.05-.95 13.02-15.82 2.49-5.72-16.16 22.49.65zM172.87 345.52l13.76-2.73 9.51-24.39-26.22 5.98-3.43 12.94 6.38 8.2zM68.75 336.68l12.2-2.32 5.64-18.94-18.84 2.32-3.49 6.76 4.49 12.18z" class="ay"/><path d="m173.49 333.21-.62 12.31-18.14-1.62-3.47-17.97 22.23 7.28zM50.2 324.96l1.1 10.41 17.45 1.31 4.08-17.98-22.63 6.26z" class="bh"/><path d="m173.49 333.21 82.87-14.16 4.5-72.33-84.4 25.88-18.56 12.32 15.59 48.29z" style="fill:#185e60;stroke-width:0"/><path d="m43.3 256.35 6.9 68.61 123.29 8.25 2.97-60.61-17.08-12.46-116.08-3.79z" class="bi"/><path d="m27.8 237.25 86.14-2.22 70.51 5.05 5.02 16.7-13.01 15.82-145.03-11.2-3.63-24.15z" class="ac"/><path d="m177.37 248.22 12.1-10.68 88.55-3.67-1.59 23.67-99.97 15.06.91-24.38z" class="ax"/><path d="m27.8 237.25 92.93-14.58 157.29 11.2-100.65 14.35L27.8 237.25z" class="ar"/><path d="m59.32 276.28 100.94 5.98-2.06 36.29-92.94-7.53-5.94-34.74z" class="w"/><path d="m191.53 282.79 51.93-7.08-3.54 34.29-50.75 7.37 2.36-34.58z" class="bi"/><path d="m247.59 231.71-22.56 5.05-40.07 2.41-10.49-1.72-16.93.56-1.8-5.1 21.93-4.04 55.08 1.78 14.84 1.06z" class="r"/><path d="m95.65 234.47 61.89 3.54 5.75-5.23-4.57-5.39-63.07-2.65v9.73z" class="as"/><path d="m158.72 227.39 7.44-4.13 27.98-1.15 1.75 10.59-38.35 5.31 1.18-10.62z" class="av"/><path d="m194.14 222.11-66.92-2.98-31.57 5.61 63.07 2.65 35.42-5.28z" class="ad"/><path d="m167.42 208.94 7.96 12.33-5.99 2.23-4.29-4.22 2.32-10.34z" class="ag"/><path d="m167.42 208.94-16.85 3.45-1.15 8.56 12.86 1.64 1.01-1.03 1.96 1.41 4.14.53-1.97-14.56z" class="aa"/><path d="m160.96 210.27 4.29 12.7-2.97-.38-1.32-12.32z" class="ag"/><path d="m77.73 169 66.97 2.49 5.53 60.03-62.27-3.71L77.73 169z" class="bh"/><path d="m150.23 231.52 8.49-4.13-9.59-57.72-12.4 1.82 4.65 2.53 8.85 57.5z" class="av"/><path d="m149.13 169.67-58.86-4.65L77.73 169l63.65 5.02 7.75-4.35z" class="ad"/><path d="m107.09 200.25 5.31-6.2 6.63 7.31-6.41 5.97-5.53-7.08z" class="ap"/><path d="m225.03 189.97 7.72 40.68-13.27-3.26-4.93-6.92 10.48-30.5z" class="bb"/><path d="m214.55 220.47-11.46 8.07.83 3.17 4.9 3.32 23.93-4.38-18.2-10.18z" class="bc"/><path d="m203.09 228.54-11.81-1.89v6.26l8.29 3.85 9.25-1.73-5.73-6.49z" class="aa"/><path d="m191.28 226.65-12.2 8.38 5.88 4.14 14.61-2.41-8.29-10.11z" class="ag"/></g><g id="i"><path d="m454.21 201.58 12.14-3.76-16.79 120.96-19.98 3.68 19.47-108.56 5.16-12.32z" class="bd"/><path d="m453.87 202.54-23.7-7.52-50.68-2.63-15.65 82.19 77.79 3.93 12.24-75.97z" class="ac"/><path d="m466.35 197.82-72.17-9.88-14.69 4.45 74.38 10.15 12.48-4.72z" style="fill:#a0cbd9;stroke-width:0"/><path d="m436.23 200.13 9.94-5.07-29.14-3.99-8.54 9.31 2.94 27.53 10.45 36.4 14.32-7.17 3.81-23.12-3.78-33.89z" class="r"/><path d="m369.64 207.23-27.66 40.71 21.54 8.92 12.45-26.71-6.33-22.92z" class="ae"/><path d="m387.63 203.62-17.99 3.61-9.3 46.76 62.63 7.77 7.9-53.62-17.68-7.76-25.56 3.24z" class="x"/><path d="m387.63 203.62-6.2 15.77 9.47-11.25 15.39 13.27 6.9-21.03-25.56 3.24z" class="bl"/><path d="m333.57 121.03 11.64 73.64 34.28-2.28 13.58 11.23 19.28-8.04 11.3-47.47-11.98-36.64-48.38-4.74-29.72 14.3z" class="aa"/><path d="m387.63 203.62 9.09-12.49-3.39-72.15 18.34-7.51 22.68 37.56-6.48 15.72-5.94 5.4.77 7.14-9.51 23.09-22.29 7.76-3.27-4.52z" class="ag"/><path d="m379.49 192.39 24.08-1.94-15.94 13.17-8.14-11.23zM427.87 164.75l-11.98-1.12 6.81 13.66 5.17-12.54zM421.93 160.31l1.14-8.9 5.99.29-7.13 8.61z" class="y"/><path d="m378.72 141.77-4.66-3.64-8.84 2.86-2.95 4.2-2.14 2.7-2.56-2.54-3.15-3.66-6.94-1.95-5.5 4.34 24.19 21.47 12.55-23.78z" class="ag"/><path d="m357.57 145.35.41 20.71 4.1 1.22 4.09-1.73-3.9-20.36-4.7.16z" class="az"/><path d="m357.98 166.06 4.79 4.09 3.4-4.6-8.19.51zM355.3 174.87l8.36 2.15 12.43-4.3.72 3.22-12.79 4.54-9.44-2.39.72-3.22z" class="y"/><circle cx="373.34" cy="150.97" r="2.63" class="bj"/><circle cx="350.88" cy="153" r="2.63" class="bj"/><path d="m341.98 144.08.41-2.91 10.28-3.47 1.75 3.99-12.44 2.39zM365.22 140.99l1.79-4.36 10.4 1.67 1.31 3.47-13.5-.78zM333.57 121.03l6.06 1.39 11.25-2.45 3.7 5.89 8.94 2.06 8.45-5.54 3.01 2.1 18.35-5.5 19.76-3.75 6.86-14.72-15.26-3.89-7.71.87-2.35-3.43-15.89-4.05-29.67 13.64-15.5 17.38z" class="bk"/><path d="m393.33 118.98 3.65 5.5 7.71 3.22-2.32 4.9 4.52 6.83 16.76-1.89 9.13-9.84-12.83-27.19-26.62 18.47zM363.52 127.92l31.11-33.86 10.06 2.56-29.71 27.86-11.46 3.44zM378.74 90.01l-24.16 35.85-14.95-3.44 39.11-32.41z" class="be"/><path d="m406.89 139.43-.6 6.56 5.14 6.66 6.75-5.43 16.17 1.81-1.57-21.33-25.89 11.73zM402.37 132.6l25.03-16.29-30.42 8.17 5.39 8.12z" class="p"/><path d="m418.18 147.22-11.89-1.23-1.6 17.64h8.37l5.12-16.41z" class="be"/><path d="m430.87 208.14 9.14 25.88-8.29 22.84-23.23-3.48 22.38-45.24z" class="ae"/><path d="m382.93 237.91 10.1 6.65.86 13.48-15.28-8.3-5-4.83 9.32-7z" class="ag"/><path d="m431.72 256.86-2.43 6.72-40.33-8.36 4.07-10.66 38.69 12.3z" class="bc"/></g><g id="j"><path d="m460.67 369.32-15.33-2.34-6.08-20.41 26.86 1.88-2.26 11.41-3.19 9.46z" class="bh"/><path d="m478.85 352.36-1.15 14.62-17.03 2.34-4.52-24.41 22.7 7.45zM391.67 382.46l16.82-3.1 4.2-20.25-19.69 9.34-4.42 5.99 3.09 8.02zM239.1 372.69l15.58-2.55 4.99-23.39-16.37 4.48-7.08 13.05 2.88 8.41z" class="ay"/><path d="m220.51 358.24 1.77 13.05 16.82 1.4 4.2-21.46-22.79 7.01zM393 368.45l-1.33 14.01-14.55-1.68-6.2-28.12L393 368.45z" class="bh"/><path d="m393 368.45 85.85-16.09 7.5-75.71-89.37 8.94-.17 5.06-10.89 23.62 7.08 54.18z" class="x"/><path d="m209.67 272.42 10.84 85.82L393 368.45l3.81-77.8-25.94-13.03-128.9-10.08-32.3 4.88z" class="bd"/><path d="m196.73 254.62 3.14 27.03 196.94 9 11.68-26.3-122.27-8.14-89.49-1.59z" class="ac"/><path d="m396.81 290.65 111.98-9.93-2.52-17.16-78.75-.91-29.17 8.62-1.54 19.38z" class="ax"/><path d="m196.73 254.62 93.52-8.65 216.02 17.59-107.92 7.71-201.62-16.65z" class="ar"/><path d="m349.27 261.4 40.29-7.83 30.76 2.36-23.01 4.54-48.04.93z" class="r"/><path d="m233.63 294.73 145.51 7.67-4.72 45.44-134.19-8.92-6.6-44.19z" class="o"/><path d="m411.59 303.88 59.89-8.56-5.02 46.03-56.94 6.49 2.07-43.96z" class="bd"/><path d="m388.09 245.37-67.07-2.1 9.44 12.94h28.61l29.02-10.84z" class="ad"/><path d="m285.02 247.68 1.2 9.69 63.05 5.18 5.38-5.43-5.02-4.43-64.61-5.01z" class="as"/><path d="m264.15 186.9 22.2-1.18 49.27 6.76 6.93 46.42-2.38 15.98-64.39-7.57-11.63-60.41z" class="bh"/><path d="m349.63 252.69 38.46-7.32 1.96 10.94-40.78 6.24.36-9.86z" class="av"/><path d="m331.93 194.21-1.53-3.62 8.61-2.02 10.62 64.12-9.46 2.19-8.24-60.67z" class="av"/><path d="m295.94 220.24 6.64-6.19 5.75 7.08-5.9 6.78-6.49-7.67z" class="ap"/><path d="m331.93 194.21 7.08-5.64-60.33-6.26-14.53 4.59 67.78 7.31z" class="ad"/><path d="m365.13 229.91 4.53 1.16v2.63l1.57.38 11.7 3.83-6.98 9.77-19.13-1.71 8.31-16.06z" class="aa"/><path d="m369.66 231.07-8.52 15.29 10.09-12.28-1.57-3.01z" class="ag"/></g><g id="k"><path d="m220.82 391.33-12.89-1.65-7.93-17.27 23.63 1.01-2.81 17.91z" class="v"/><path d="m85.76 390.68 9.94-1.73 9.29-15.96-16.64-1.73-2.59 19.42zM153.61 399.25l12.32-1.73 6.48-19.99-23.55 2.8-2.38 7.78 7.13 11.14z" class="al"/><path d="m72.53 377.06.91 12.11 12.32 1.51 6.48-16.83-19.71 3.21zM153.12 385.98l.49 13.27-14.04-1.52-4.76-18.04 18.31 6.29z" class="v"/><path d="m232.77 376.43.23 12.96-12.18 1.94-11.45-19.42 23.4 4.52z" class="al"/><path d="m65.26 311.02 7.27 66.04 80.59 8.92 13.71-68.58-101.57-6.38z" style="fill:#abafb8;stroke-width:0"/><path d="m148.11 324.93 18.72-7.53 64.3-2.16 1.64 61.19-79.65 9.55-5.01-61.05z" class="bg"/><path d="m65.26 311.02 82.85-5.89 83.02 10.11-83.02 9.69-82.85-13.91z" style="fill:#cccfd4;stroke-width:0"/><path d="m81.22 329.34 54.46 7.56 1.09 14.6-3.2 1.98 3.51 2.13 1.19 15.86-54.45-6.69-1.18-16.09 2.47-.66-2.65-1.77-1.24-16.92z" class="o"/><path d="m82.64 348.69 54.44 6.92-.31-4.11-54.31-5.24.18 2.43z" class="bd"/><path d="m104.85 340.65 2.81-3.03 2.88 3.75-3.39 2.44-2.3-3.16zM105.14 358.37l3.38-3.25 2.52 3.68-2.52 2.3-3.38-2.73z" class="x"/><path d="m166.36 339.49 46.9-5.83 2.37 28.74-47.75 5.83-1.52-28.74z" class="af"/></g><g id="l"><path d="m704.65 378.29 7.13-1.08-.43-34.8-8.43 7.78-2.59 13.83 4.32 14.27z" class="z"/><path d="m692.77 365.32 4.43 12.1 7.45.87-1.73-28.1-10.15 15.13zM787.49 381.31l-6.2-.43-8.64-21.18 8.93-.57 8.36 10.22-2.45 11.96z" class="q"/><path d="m730.01 392.84 6.34-1.01 5.76-26.22-10.66 8.32-3.17 12.14 1.73 6.77zM644 386.35l5.91-1 11.96-24.93-10.38 2.31-6.48 9.07-1.01 14.55z" class="z"/><path d="m638.67 365.02-2.02 20.9 7.35.43 7.49-23.62-12.82 2.29zM731.45 373.93l-1.44 18.91-7.21-.58-2.88-23.91 11.53 5.58z" class="q"/><path d="m793.18 362.56 1.22 17.46-6.91 1.29-5.91-22.18 11.6 3.43z" class="z"/><path d="m645.01 309.71-6.34 55.31 92.78 8.91 12.96-60.47-99.4-3.75z" class="ar"/><path d="m734.9 319.51 8.36-7.78 47.35.22 2.57 50.61-61.73 11.37 3.45-54.42z" class="ac"/><path d="m645.01 309.71 59.64-8.06 85.96 10.3-55.71 7.56-89.89-9.8z" class="bl"/><path d="m748.45 330.75 29.95-6.2 1.74 29.25-33.42 6.62 1.73-29.67z" class="bm"/><path d="m657.11 324.41 62.81 5.76-2.59 30.83-63.68-6.05 1.49-13.13 3.56-2.99-2.83-3.44 1.24-10.98z" class="ac"/><path d="m655.87 335.39 12.29 1.41-.87 5.9-12.15-.88.73-6.43z" class="bm"/></g><g id="m"><path d="m470.15 249.47 2.91 25.32 6.48-3.86-5.91-25.78-3.48 4.32z" class="ay"/><path d="m479.54 270.93-24.21-5.17 3.16 7.98 15.45 5.48 5.6-8.29z" class="bh"/><path d="m456.81 243.74-6.34 27.19 8.02 2.81 1.71-30.21-3.39.21z" class="bg"/><path d="m469.07 218.99-5.08-4.13-9.29 15.47 10.59 4.82 3.78-16.16z" class="aa"/><path d="m483.13 250.9-12.98-1.43 10.6-21.8 10.26 14.21.57 4.77-8.45 4.25z" class="ag"/><path d="m454.7 230.33 14.37-11.34 11.68 8.68 1.08 12.31-11.68 9.49-13.34-5.73-2.11-13.41z" style="fill:#545c6d;stroke-width:0"/><path d="m459.63 232.02 9.32-7.15 6.49 4.41 1.1 8.7-7.2 5.63-8.39-3.19-1.32-8.4z" style="fill:#eeeff1;stroke-width:0"/><path d="m467.02 230.35 1.58.56-1.31 4.1 5.56-.79.21 1.45-7.35.62 1.31-5.94z" class="z"/><path d="m487.43 245.15-5.6-5.17-8.2-11.93 2.91-3.51 9.79 6.56 4.35 8.12.1 3.98-3.35 1.95z" class="aa"/><path d="m506.27 263.56-23.14-12.66 7.55-11.68 21.5 4.31-5.91 20.03z" class="av"/><path d="m596.68 111.89 15.74-6.93-4.45-11.88L590.4 78l-.45 23.31 6.73 10.58z" class="au"/><path d="m500.74 358.66-10.86 15.39-4.9 6.55 11.88 1.58 9.49-2.22 5.83-16.64-4.18-5.46-7.26.8z" class="aa"/><path d="m489.88 374.05 15.44 3.45-7.64 8.48-18.2-1.78 10.4-10.15z" class="z"/><path d="m496.89 383.35 8.43-5.85 6.86-14.18 5.42 7.62-2.63 17.61h-4.82l-.71-8.02-10.34 8.02h-19.54l-.08-4.35 17.41-.85zM568.53 374.31l5.7 12.36-4.16 10.95-7.94-3.5 6.4-19.81z" class="av"/><path d="m556.78 370.26 11.75 4.05-2.62 18.83-11.73-3.78-4.11-6.28 2-3.52 4.71-9.3z" class="aa"/><path d="m565.91 393.14-15.84-10.06-7.69 10.06 11.67 1.86 11.86-1.86z" class="z"/><path d="M570.07 393.14v4.48h-27.69v-4.48h27.69z" class="av"/><path d="m552.07 379.56 16.46-5.25-10.64-60.75-5.82 66z" class="ao"/><path d="m592.83 263.57-19.6 13.16-6.34-2.03-2.07-8.94L580 243.53l11.86 4.09.97 15.95z" class="av"/><path d="m575.57 211.48 33.6 41.95-16.34 10.14-27.75-18.5-10.77-20.7 21.26-12.89z" class="bg"/><path d="m497.27 86.9 38.17 9.48 34.32 12.55-2.81 15.75-9.03 18.45 3.97-.19 2.82 4.67 4.41-8.26 3.59-3.59 5.7 2.76 6.15 6.91-1.79 4.23-5.06 5.89-4.55 6.66-22.67 32.57-19.69 12.78-7.6-17.36.84-13.95-38.05-9.43 2.18-38.23 3.86-17.67 6.07-4.23-3.91-5.7 3.08-14.09z" class="aa"/><path d="m538.25 135.51-5.63-13.26-14.63-.09-7.08 18.53-2.24 3.53 6.66-30.49 1.8-2.62 6.24 1.21 11.49-2.68 5.32 12.23 3.84 6.72-5.77 6.92zM492.01 110.91l10.06 7.31.64 13.44 5.52-22.62.43-6.74-6.69-2.58-7.78 1.27-2.18 9.92z" class="ag"/><path d="m541.84 141.66-30.93-.97-.52-4.48 31.45 5.45zM488.11 130l12.93 8.71 1.16-4.74-14.09-3.97z" class="ag"/><path d="m559.58 105.85-13.7 11.92-4.04 11.4v12.49l-2.75 35.93-11.03 27.17 9.68 2.67 17.23-4.8 11.24-24.97 1.95-12.18 5-3.27-9.99-5.89 1.54-8.71-1.54-8.9 16.42-26.81-4.02-9.6-15.99 3.55z" class="ag"/><path d="m573.16 162.21-9.99-5.89 3.01 21.33 6.98-15.44zM485.99 166.82l62.38 12.24-16.2 27.92-3.84 2.43-6.42-12.61-1.65-18.96-34.27-11.02z" class="y"/><path d="m508.66 102.3-7.41-5.15-7.06 3.84 7.24-.56 7.23 1.87zM515.94 110.83l18.92-1.19-12.5 5.68-6.42-4.49z" class="au"/><path d="m518.82 114.03-8.42 22.18-1.73 8.01-4.23.8-4.42-2.08 2.19-8.97 2.23-23.76 14.38 3.82z" class="az"/><path d="m508.67 144.22-4.62 3.71-4.03-4.99 8.65 1.28z" class="y"/><path d="m522.99 152.53-15.36 8.56-11.78-7.78 12.54 1.53 14.6-2.31z" style="fill:#3c9fb9;stroke-width:0"/><path d="m578.22 147.87-4.42-4.48-4.68 6.98 9.1-2.5z" class="y"/><path d="m497.27 86.9 35.67-24.08-1.15 18.12-5 14.92-29.52-8.96z" class="av"/><path d="M532.94 62.82 590.4 78l4.53 23.31-12.29 5.06-12.88 2.56-10.18-3.08-32.79-9.99 6.15-33.04z" class="z"/><path d="m594.93 101.31 1.8 10.89 4.13 24.65-19.7-.7-18.38-6.98 6.98-20.24 25.17-7.62z" class="av"/><path d="m600.86 136.85-38.08-7.68-4.86 13.96 6.79 4.48 8-11.85 6.88 2.95 4.97 6.72-6.85 10.12 23.15-18.7z" class="au"/><path d="m590.4 78 26.9-9.61 7.68 51.94L590.4 78z" class="z"/><path d="m556.93 198.46-35.02-1.66-2.71 10.13 5.76 12.68 22.84-5.34 17.28-10.08-8.15-5.73z" class="av"/><path d="m565.08 204.19 10.49 7.29-10.49 33.59-20.14 2.55-26.11-3.4-16.48-12.98 19.56-34.44 3.05 22.81 40.12-15.42z" style="fill:#71cacc;stroke-width:0"/><path d="m565.08 245.07-62.73-13.83 3.92 32.32 3.23 14.92 47.97-7.55 7.61-25.86z" class="ao"/><path d="M492.71 118.89c0 1.79 1.47 3.27 3.33 3.27s3.27-1.47 3.27-3.27c0-1.79-1.47-3.27-3.27-3.27s-3.33 1.47-3.33 3.27ZM522.93 126.48c0 1.86 1.47 3.33 3.27 3.33s3.27-1.47 3.27-3.33c0-1.79-1.47-3.27-3.27-3.27s-3.27 1.47-3.27 3.27Z" class="bj"/><path d="m557.47 270.93-29.23 5.93-21.97-13.3-2.69 42.65 48.49 73.35 20.44-86.7-15.04-21.93z" class="w"/><path d="m557.47 270.93-3.16 10.79 3.16 7.85 15.04 3.29-15.04-21.93z" class="r"/><path d="m552.07 379.56-51.33-20.9 2.84-52.45 18.47-10.41 30.02 83.76z" class="ao"/><path d="m557.47 270.93-35.42 24.87-15.78-32.24 51.2 7.37z" style="fill:#72cbcc;stroke-width:0"/><path d="m522.99 152.53-11.04.49-5.52-1.47-5.4 1.14-5.18.62 11.05 3.46 16.09-4.24z" style="fill:#28778b;stroke-width:0"/><path d="m564.82 265.76-10.7.56v7.3l10.75 8.1 8.36-4.99-8.41-10.97z" class="aa"/><path d="m554.12 266.32-10.41 14.26 13.76 8.99 7.4-7.85-10.75-15.4z" class="ag"/><path d="m545.88 117.77 36.51 16.58 2.17 11.08-11.85-9.67-28.38-8.83-.31-3.72 1.86-5.44z" class="ah"/><path d="m475.49 126.48 26.71 7.49 4.81-19.61 4.12-.8 3.62 2.54-4.36 20.12 31.45 5.44 4.04-23.89-29.93-6.94-4.47.4-3.24-2.19-28.13-6.52-4.61 23.95Zm62.76 9.03-22.31-3.84 3.15-14.59 21.08 4.79-1.92 13.64Zm-55.82-12.79 1.65-13.79 19.1 4.88-3.9 14.31-16.85-5.4Z" class="bd"/><path d="m507.01 114.36 7.74 1.73 1.19-5.26-7.71-1.79-1.22 5.32z" class="ah"/></g></svg>