<svg xmlns="http://www.w3.org/2000/svg" viewBox="0 0 900 349.66"><polygon points="558.13 56.03 574.89 40.41 660.38 52.17 667 83.99 561.49 82.32 558.13 56.03" style="fill:#a0cf7f"/><polygon points="545.83 89 552.79 48.72 574.89 40.41 573.16 68.78 545.83 89" style="fill:#99c26c"/><polygon points="560.41 104.35 573.29 63.42 680.24 80.02 688.67 132 558.13 156.9 560.41 104.35" style="fill:#6f9d52"/><polygon points="411.46 95.01 409.47 100.68 374.31 143.56 370.3 164.24 386.97 138.26 416.05 98.88 411.46 95.01" style="fill:#6f9d52"/><polygon points="420.63 95.01 422.62 100.68 463.13 148.58 455.58 155.16 445.35 138.26 416.05 98.88 420.63 95.01" style="fill:#6f9d52"/><polygon points="421.94 87.71 429.2 89.29 479.53 89.59 488.87 95.97 421.94 93.9 421.94 87.71" style="fill:#6f9d52"/><polygon points="410.63 88.39 402.89 89.29 352.56 89.59 340.95 97.49 409.85 94.66 410.63 88.39" style="fill:#6f9d52"/><polygon points="416.05 87.16 409.47 77.9 384.3 34.61 368.7 28.06 411.46 89.59 416.05 87.16" style="fill:#6f9d52"/><polygon points="416.05 87.16 422.62 77.9 447.22 34.61 463.4 28.06 420.63 89.59 416.05 87.16" style="fill:#6f9d52"/><path d="M461.49,10.92H370.6L325.16,89.63l45.44,78.71h90.89l45.44-78.71Zm-6.66,145.89H377.27L338.48,89.63l38.79-67.17h77.56l38.78,67.17Z" transform="translate(0 -0.34)" style="fill:#738d57"/><polygon points="409.47 100.68 402.89 89.29 409.47 77.9 422.62 77.9 429.2 89.29 422.62 100.68 409.47 100.68" style="fill:#738d57"/><polygon points="364.32 34.61 354.33 17.31 364.32 0 384.3 0 394.3 17.31 384.3 34.61 364.32 34.61" style="fill:#3f8f6f"/><polygon points="360 17.31 367.15 4.91 381.47 4.91 388.62 17.31 360 17.31" style="fill:#54b08b"/><polygon points="447.22 34.61 437.23 17.31 447.22 0 467.21 0 477.2 17.31 467.21 34.61 447.22 34.61" style="fill:#3f8f6f"/><polygon points="442.9 17.31 450.06 4.91 464.37 4.91 471.53 17.31 442.9 17.31" style="fill:#54b08b"/><polygon points="322.58 106.9 312.59 89.59 322.58 72.29 342.57 72.29 352.56 89.59 342.57 106.9 322.58 106.9" style="fill:#3f8f6f"/><polygon points="318.26 89.59 325.42 77.2 339.73 77.2 346.89 89.59 318.26 89.59" style="fill:#54b08b"/><polygon points="489.52 106.9 479.53 89.59 489.52 72.29 509.51 72.29 519.5 89.59 509.51 106.9 489.52 106.9" style="fill:#3f8f6f"/><polygon points="485.2 89.59 492.36 77.2 506.67 77.2 513.83 89.59 485.2 89.59" style="fill:#54b08b"/><polygon points="570.63 170.17 518.5 146.86 536.98 83.4 573.29 63.42 570.63 146.07 570.63 170.17" style="fill:#738d57"/><polygon points="590.64 136.23 593.39 82.32 612.57 84.1 610.86 136.13 627.11 132.83 628.59 86.45 652.46 89.59 651.26 145.57 590.64 136.23" style="fill:#738d57"/><polygon points="54.39 185.15 0 248.41 203.63 346.02 399.88 332.81 459.87 303.69 638.73 343.37 728.44 349.65 900 298.7 862.6 223.39 726.43 187.34 54.39 185.15" style="fill:#cfcfcd"/><polygon points="492.55 156.9 475.41 215.83 638.73 343.37 399.88 332.81 322.9 224.2 338.2 211.25 492.55 156.9" style="fill:#ececeb"/><polygon points="597.09 310.85 628.59 242.64 570.96 215.06 501.71 213.83 475.82 216.84 597.09 310.85" style="fill:#dddddc"/><polygon points="134.89 108.23 54.39 185.15 162.47 215.06 173.02 175.12 134.89 108.23" style="fill:#c4c4c4"/><polygon points="595.38 149.14 522.89 135.41 449.7 152.74 557.39 197.49 595.38 149.14" style="fill:#a3a3a3"/><polygon points="357.05 149.14 226.13 211.93 322.9 224.2 373.85 208.71 446.4 195.3 396.72 149.14 357.05 149.14" style="fill:#a3a3a3"/><polygon points="752.06 148.1 720.35 121.93 684.25 104.72 570.96 135.31 642.9 223.39 789.52 152.74 752.06 148.1" style="fill:#8f8f8f"/><polygon points="707.16 199.62 758.25 126.13 797.62 138.29 833.13 160.3 845.58 185.6 707.16 199.62" style="fill:#8f8f8f"/><polygon points="684.25 104.72 758.25 126.13 766.85 149.14 661.72 224.75 690.65 195.24 684.25 104.72" style="fill:#a3a3a3"/><polygon points="285.67 114.09 286.07 112.75 297.11 94.89 385.49 144.76 274.7 160.06 285.67 114.09" style="fill:#dddddc"/><polygon points="293.78 141.08 329.1 131.73 412.64 149.14 387.99 169.75 226.13 211.93 267.07 173.11 293.78 141.08" style="fill:#c4c4c4"/><polygon points="207.55 89.38 134.89 108.23 162.47 215.06 226.13 211.93 280.14 99.81 207.55 89.38" style="fill:#a3a3a3"/><polygon points="231.18 93.92 297.11 94.89 329.1 131.73 226.13 211.93 249.51 106.94 231.18 93.92" style="fill:#8f8f8f"/><polygon points="184.12 90.19 134.89 108.23 249.51 106.94 297.11 94.89 243.63 82.64 184.12 90.19" style="fill:#ececeb"/><polygon points="560.16 192.72 515.21 160.29 522.89 135.41 570.96 135.31 690.65 195.24 660.39 221.11 560.16 192.72" style="fill:#c4c4c4"/><polygon points="500.25 163.41 449.7 152.74 412.64 149.14 322.9 224.2 475.82 216.84 497.67 198.49 500.25 163.41" style="fill:#dddddc"/><polygon points="515.21 160.29 449.7 152.74 475.82 216.84 501.71 213.83 519.04 191.95 515.21 160.29" style="fill:#c4c4c4"/><polygon points="648.07 211.07 628.38 242.63 501.71 213.83 515.21 160.29 565.7 170.12 648.07 211.07" style="fill:#cfcfcd"/><polygon points="729.65 208.93 690.65 195.24 565.7 170.12 628.38 242.63 736.82 249.93 729.65 208.93" style="fill:#a3a3a3"/><polygon points="868.94 193.58 833.13 160.3 766.85 149.14 690.65 195.24 736.82 249.93 830.82 242.49 857.63 206.76 868.94 193.58" style="fill:#c4c4c4"/><polygon points="900 191.95 833.13 160.3 830.82 242.49 868.38 235.01 900 191.95" style="fill:#8f8f8f"/><path d="M75.07,206.62" transform="translate(0 -0.34)" style="fill:#795d88"/><polygon points="857.29 148.1 848.78 158.95 847.54 167.12 861.81 174.53 857.29 148.1" style="fill:#35785e"/><polygon points="836.66 126.87 821.17 142.6 848.78 158.95 879 150.5 886.87 132.44 836.66 126.87" style="fill:#35785e"/><polygon points="848.83 118.93 810.69 116.88 821.17 142.6 886.87 132.44 848.83 118.93" style="fill:#3f8f6f"/><polygon points="839.44 102.98 810.69 116.88 886.87 132.44 892.25 106.09 839.44 102.98" style="fill:#54b08b"/><polygon points="849.99 89.09 883.41 93.27 892.25 106.09 810.69 116.88 824.24 101.13 849.99 89.09" style="fill:#3f8f6f"/><polygon points="841.77 80.44 818.35 86.91 824.24 101.13 883.41 93.27 841.77 80.44" style="fill:#54b08b"/><polygon points="841.77 68.27 836.66 71.58 818.35 86.91 883.41 93.27 874 78.66 841.77 68.27" style="fill:#3f8f6f"/><polygon points="841.77 63.95 874 78.66 836.66 71.58 841.77 63.95" style="fill:#74c7a5"/><polygon points="808.38 202.62 809.41 213.63 819.36 260.49 822.21 242.94 818.35 216.02 808.38 202.62" style="fill:#5a753d"/><polygon points="814.06 168.39 801.38 163.16 792.06 172.71 788.42 179.97 804.28 194.65 811.58 184.49 814.06 168.39" style="fill:#99c26c"/><polygon points="808.29 172.34 801.38 163.16 821.17 165.51 825.5 171.45 810.98 186.72 808.29 172.34" style="fill:#6f9d52"/><polygon points="810.5 185.89 801.38 163.16 815.38 170.29 814.03 185.85 810.5 185.89" style="fill:#5a753d"/><polygon points="822.02 176.02 819.88 180.65 817.24 189.67 810.84 194.31 803.04 185.86 822.02 176.02" style="fill:#5a753d"/><polygon points="814.62 198.4 818.35 216.02 809.41 213.63 788.42 179.97 803.04 185.86 814.62 198.4" style="fill:#6f9d52"/><polygon points="818.35 216.02 817.24 189.67 803.04 185.86 818.35 216.02" style="fill:#99c26c"/><polygon points="825.5 171.45 803.04 185.86 825.84 181.76 825.5 171.45" style="fill:#c0db8f"/><polygon points="837.59 192.03 832.53 181.74 851.02 182.48 838.13 187.46 837.59 192.03" style="fill:#6f9d52"/><polygon points="836.95 187.28 838.28 185.62 832.53 181.74 832.69 189.5 836.95 187.28" style="fill:#5a753d"/><polygon points="829.88 189.08 822.31 195.93 832.13 199.27 829.88 189.08" style="fill:#44622d"/><polygon points="836.71 202.91 832.86 215.01 831.9 213.13 828.17 191.44 834.38 189.11 836.71 202.91" style="fill:#5a753d"/><polygon points="846.02 183.96 835.61 219.07 832.86 215.01 834.38 189.11 846.02 183.96" style="fill:#6f9d52"/><polygon points="851.02 182.48 844.78 188.13 822.31 195.93 828 188.15 851.02 182.48" style="fill:#a0cf7f"/><polygon points="823.25 263.23 822.21 242.94 831.9 213.13 835.61 219.07 830.93 238.67 833.25 257.02 825.84 273.38 823.25 263.23" style="fill:#44622d"/><polygon points="835.13 275.11 772.38 282.36 830.15 295.39 881.88 286.2 835.13 275.11" style="fill:#2b2b2b;opacity:0.1"/><polygon points="855.96 251.34 830.93 238.67 825.28 277.3 827.1 280.71 830.15 284.52 855.96 251.34" style="fill:#3f8f6f"/><polygon points="869.97 264.77 859.53 236.77 830.93 238.67 869.97 264.77" style="fill:#74c7a5"/><polygon points="802.65 252.09 820.71 284.52 830.15 284.52 822.21 242.94 802.65 252.09" style="fill:#35785e"/><polygon points="785.01 268.18 792.19 245.93 822.21 242.94 785.01 268.18" style="fill:#54b08b"/><polygon points="110.48 11.14 66.69 20.43 121.25 43.55 153.85 36.45 194.52 44.47 241 25.92 183.09 15.91 133.84 25.46 110.48 11.14" style="fill:#dddddc"/><polygon points="66.69 20.43 111.78 7.27 151.93 15.91 192.69 7.27 241 25.92 187.99 21.11 137.96 32.33 107.05 15.91 66.69 20.43" style="fill:#ececeb"/><polygon points="74.42 276.36 235.06 310.8 342.58 286.7 222.41 268.5 74.42 276.36" style="fill:#2b2b2b;opacity:0.1"/><polygon points="260.34 276.5 275.58 291.84 300.27 280.29 306.26 242.18 288.72 204 247.01 250.29 260.34 276.5" style="fill:#6f9d52"/><polyline points="270.78 253.72 244.39 273.29 247.41 290.48" style="fill:#734d61"/><polygon points="197.26 253.29 206.27 195.87 177.31 215.84 143.48 239.4 142.27 282.56 173.71 293.47 197.26 253.29" style="fill:#44622d"/><polygon points="197.26 253.29 206.27 195.87 162.93 201.35 143.48 239.4 173.05 245.35 197.26 253.29" style="fill:#a0cf7f"/><polygon points="222.73 204.43 215.41 197.19 206.27 195.87 173.05 245.35 173.71 293.47 219.64 289.77 222.73 204.43" style="fill:#6f9d52"/><polygon points="219.21 145.97 195.37 133.83 184.56 144.06 215.41 197.19 221.42 282.68 233.34 293.47 263.27 175.51 219.21 145.97" style="fill:#a0cf7f"/><polygon points="219.21 145.97 228.64 198.32 215.41 197.19 219.64 289.77 236.96 300.65 263.27 175.51 219.21 145.97" style="fill:#44622d"/><polygon points="252.3 135.48 285.3 150.7 288.72 204 247.01 268.55 243.26 239.08 228.64 198.32 195.37 133.83 221.78 128.18 252.3 135.48" style="fill:#6f9d52"/><polygon points="288.72 204 275.58 291.84 236.96 300.65 228.64 198.32 288.72 204" style="fill:#5a753d"/><polygon points="246.79 142.44 285.3 150.7 267 139.95 246.79 142.44" style="fill:#5a753d"/><polygon points="201.45 99.38 184.21 69.65 211.56 64.14 244.63 77.02 268.9 94.43 279.58 99.33 226.84 123.16 201.45 99.38" style="fill:#a0cf7f"/><polygon points="236.35 134.36 212.49 130.17 176.52 107.72 184.21 69.65 225.34 112.87 236.35 134.36" style="fill:#6f9d52"/><polygon points="257.63 119.13 251.26 156.99 212.49 130.17 228.9 126.85 257.63 119.13" style="fill:#5a753d"/><polygon points="267.16 106.55 285.15 104.51 292.93 110.27 251.26 156.99 228.9 126.85 267.16 106.55" style="fill:#44622d"/><polygon points="247.61 74.56 256 91.03 268.9 94.43 279.25 79.12 261.26 70.15 247.61 74.56" style="fill:#5a753d"/><polygon points="263.75 70.51 243.26 61.18 211.56 64.14 256 91.03 260.75 74.71 263.75 70.51" style="fill:#6f9d52"/><polygon points="243.26 61.18 260.75 74.71 279.25 79.12 265.67 67.12 243.26 61.18" style="fill:#a0cf7f"/><polygon points="279.58 99.33 225.34 112.87 228.9 126.85 285.15 104.51 279.58 99.33" style="fill:#5a753d"/><polygon points="21.19 243.37 67.64 255.29 112.81 245.1 63.64 239.08 21.19 243.37" style="fill:#2b2b2b;opacity:0.1"/><polygon points="69.83 83.63 50.57 71.58 28.24 103.23 64.71 112.49 69.83 83.63" style="fill:#74c7a5"/><polygon points="113.65 101.8 115.48 84.84 89.56 70.76 50.57 71.58 46.4 109.45 113.65 101.8" style="fill:#54b08b"/><path d="M87.25,155.48c0,.62-8.1,11.27-8.1,11.27l-19,6.15,4-4.51Z" transform="translate(0 -0.34)" style="fill:#5a753d"/><polygon points="88.68 136.49 79.16 166.4 88.68 164.15 97.9 141.41 88.68 136.49" style="fill:#6f9d52"/><polygon points="62.72 199.43 51.19 175.42 49.34 184.54 45.96 243.94 68.86 248.96 62.72 199.43" style="fill:#5a753d"/><polygon points="57.03 139.16 57.03 147.28 52.62 168.04 57.27 190.52 61.73 190.32 66.76 134.85 57.03 139.16" style="fill:#99c26c"/><polygon points="79.16 137.72 69.08 152.5 61.83 189.18 60.2 131.37 83.97 125.13 79.16 137.72" style="fill:#6f9d52"/><polygon points="120.64 115.59 126.17 123.99 96.05 145.97 69.08 152.5 76.56 121.83 120.64 115.59" style="fill:#44622d"/><polygon points="92.98 119.69 56.47 149.93 21.07 141.41 84.99 109.45 92.98 119.69" style="fill:#35785e"/><polygon points="125.36 98.38 152.94 101.42 126.17 123.99 65.53 125.63 125.36 98.38" style="fill:#3f8f6f"/><polygon points="52.21 106.17 115.48 84.84 152.94 101.42 65.53 125.63 31.25 134.85 0 134.62 52.21 106.17" style="fill:#35785e"/><polygon points="115.48 84.84 28.24 103.23 11.15 118.54 0 134.62 115.48 84.84" style="fill:#3f8f6f"/><polygon points="0 134.62 21.07 141.41 65.53 125.63 0 134.62" style="fill:#3f8f6f"/><polygon points="52.62 168.04 86.13 244.95 68.86 248.96 51.19 175.42 52.62 168.04" style="fill:#6f9d52"/><polygon points="121.53 232.12 120.57 236.89 119.56 243.41 121.3 251.02 122.92 233.6 121.53 232.12" style="fill:#5a753d"/><polygon points="124.34 228.22 129.47 231.7 120.53 237.18 118.08 229.72 124.34 228.22" style="fill:#6f9d52"/><polygon points="123.47 221.94 129.47 231.7 118.08 229.72 123.47 221.94" style="fill:#a0cf7f"/><polygon points="111.07 241.46 112.81 245.1 117.27 256.53 118.39 250.55 112.73 241.75 111.07 241.46" style="fill:#5a753d"/><polygon points="110.99 237.47 116.39 237.08 113.03 245.65 106.31 242.24 110.99 237.47" style="fill:#6f9d52"/><polygon points="104.93 233.88 116.39 237.08 106.31 242.24 104.93 233.88" style="fill:#a0cf7f"/><polygon points="105.55 266.06 118.28 269.85 132.42 266.58 118.98 263.9 105.55 266.06" style="fill:#2b2b2b;opacity:0.1"/><polygon points="127.89 245.7 119.56 243.41 116.39 262.83 118.39 266.87 120.88 266.96 129.71 249.05 127.89 245.7" style="fill:#35785e"/><polygon points="115.42 266.67 108.42 255.13 118.39 250.55 118.39 266.87 115.42 266.67" style="fill:#3f8f6f"/><polygon points="103.18 264.66 102.29 249.05 118.39 250.55 103.18 264.66" style="fill:#54b08b"/><polygon points="133.06 256.86 135.49 242.86 119.56 243.41 133.06 256.86" style="fill:#3f8f6f"/><polygon points="319.09 276.45 320.56 283.76 321.92 293.39 319.44 305.41 316.96 278.73 319.09 276.45" style="fill:#5a753d"/><polygon points="314.79 270.49 306.92 275.81 320.62 284.2 324.38 272.78 314.79 270.49" style="fill:#6f9d52"/><polygon points="313.51 260.87 306.92 275.81 324.38 272.78 313.51 260.87" style="fill:#a0cf7f"/><polygon points="335.48 287.58 332.8 293.17 325.98 310.68 323.42 302.57 332.93 288.03 335.48 287.58" style="fill:#5a753d"/><polygon points="335.6 281.47 327.72 281.08 332.63 293.49 340.83 287.78 335.6 281.47" style="fill:#6f9d52"/><polygon points="341.28 275.75 327.72 281.08 340.83 287.78 341.28 275.75" style="fill:#a0cf7f"/><polygon points="306.18 322.31 322.69 327.23 341.04 322.99 323.61 319.51 306.18 322.31" style="fill:#2b2b2b;opacity:0.1"/><polygon points="311.22 296.34 321.92 293.39 325.98 318.35 323.42 323.54 320.23 323.65 308.87 300.65 311.22 296.34" style="fill:#35785e"/><polygon points="327.23 323.29 336.23 308.45 323.42 302.57 323.42 323.54 327.23 323.29" style="fill:#3f8f6f"/><polygon points="342.96 320.7 344.11 300.65 323.42 302.57 342.96 320.7" style="fill:#54b08b"/><polygon points="304.57 310.68 301.45 292.69 321.92 293.39 304.57 310.68" style="fill:#3f8f6f"/><polygon points="413.01 269 467.42 258.37 412.46 245.52 354.97 253.98 413.01 269" style="fill:#2b2b2b;opacity:0.1"/><polygon points="388.41 233.42 388.97 238.74 392.5 250.13 384.21 250.13 375.42 237.64 388.41 233.42" style="fill:#6f9d52"/><polygon points="371.77 237.64 365.11 240.67 368.44 256.78 377.46 256.76 377.46 243.4 371.77 237.64" style="fill:#6f9d52"/><polygon points="376.25 225.81 370.07 232.07 365.11 240.67 377.46 243.4 383.91 237.64 376.25 225.81" style="fill:#5a753d"/><polygon points="398.66 229.16 388.97 238.74 383.91 237.64 383.16 220.83 398.66 229.16" style="fill:#5a753d"/><polygon points="378.34 225.81 409.91 238.74 407.87 203.88 377.46 208.69 378.34 225.81" style="fill:#44622d"/><polygon points="386.06 207.18 365.67 211.45 370.07 232.07 383.91 237.64 391.02 216.36 386.06 207.18" style="fill:#6f9d52"/><polygon points="370.07 192.1 371.04 186.44 371.77 174.3 364.65 182.7 370.07 192.1" style="fill:#44622d"/><polygon points="387.03 203.88 385.47 194.89 364.65 182.7 360.45 188 376.01 208.69 387.03 203.88" style="fill:#6f9d52"/><polygon points="398.14 210.41 402.15 198.51 385.47 194.89 365.67 211.45 391.02 216.36 398.14 210.41" style="fill:#99c26c"/><polygon points="413.01 202.91 402.15 198.51 391.02 216.36 400.85 214.03 413.01 202.91" style="fill:#6f9d52"/><polygon points="434.49 220.83 445.9 227.01 438.69 254.66 429.44 255.56 429.44 225.81 434.49 220.83" style="fill:#44622d"/><polygon points="419.22 225.81 409.91 238.74 416.55 260.3 430.35 260.09 423.75 236.16 419.22 225.81" style="fill:#6f9d52"/><polygon points="414.63 203.88 400.85 214.03 409.91 238.74 423.75 236.16 435 218.56 431.12 202.91 414.63 203.88" style="fill:#5a753d"/><polygon points="435 202.91 426.6 207.18 423.75 236.16 445.9 227.01 446.43 207.18 435 202.91" style="fill:#6f9d52"/><polygon points="428.41 197.09 415.86 193.72 402.15 198.51 400.85 214.03 426.6 207.18 428.41 197.09" style="fill:#99c26c"/><polygon points="423.75 191.91 426.6 207.18 446.43 207.18 447.42 189.84 423.75 191.91" style="fill:#5a753d"/><polygon points="430.69 189.84 437.66 195.68 449.32 199.42 453.49 189.84 430.69 189.84" style="fill:#44622d"/><polygon points="424.14 180.22 421.55 186.74 415.86 193.72 426.6 207.18 433.97 196.44 424.14 180.22" style="fill:#6f9d52"/><polygon points="438.11 188.68 436.94 191.32 436.94 194.89 441.6 195.92 446.9 199.42 448.46 195.92 452.34 191.91 453.12 194.89 451.26 198.25 445.87 201.49 433.97 196.44 429.44 188.68 438.11 188.68" style="fill:#6f9d52"/><polygon points="430.09 172.51 419.56 189.19 433.97 196.44 435 189.97 440.95 194.11 446.9 190.62 449.75 185.96 441.86 171.6 430.09 172.51" style="fill:#a0cf7f"/><polygon points="443.4 171.6 454.93 181.05 457.45 188.68 453.12 194.89 446.9 190.62 446.9 188.03 443.4 171.6" style="fill:#c0db8f"/><polygon points="449.75 171.34 450.4 170.83 454.93 167.13 465.15 176.13 462.95 186.74 454.93 181.05 449.75 171.34" style="fill:#44622d"/><polygon points="433.97 169.79 422.46 163.97 413.66 171.33 419.56 189.19 429.83 182.08 433.97 169.79" style="fill:#44622d"/><polyline points="438.92 182.54 429.83 182.08 422.46 163.97 442.09 165.38 454.93 167.13 454.93 181.05 450.4 183.12 438.92 182.54" style="fill:#6f9d52"/><polygon points="445.74 180.22 443.4 182.76 446.9 188.03 450.4 183.12 445.74 180.22" style="fill:#44622d"/><polygon points="444.32 175.35 443.4 182.76 450.4 183.12 444.32 175.35" style="fill:#c0db8f"/><path d="M436.94,179.58h0a2,2,0,0,1-1.94-1.94h0a2,2,0,0,1,1.94-1.94h0a2,2,0,0,1,1.95,1.94h0A2,2,0,0,1,436.94,179.58Z" transform="translate(0 -0.34)" style="fill:#2b2b2b"/><path d="M450.4,180.36h0a2,2,0,0,1-1.94-1.94h0a1.94,1.94,0,0,1,1.94-1.94h0a1.94,1.94,0,0,1,1.94,1.94h0A2,2,0,0,1,450.4,180.36Z" transform="translate(0 -0.34)" style="fill:#2b2b2b"/><polygon points="448.46 195.92 451.26 198.25 450.4 202.13 443.4 202.91 442.77 198.77 441.6 195.92 448.46 195.92" style="fill:#c0db8f"/><polygon points="691.17 229.28 682.5 233.66 678.63 224.28 691.17 229.28" style="fill:#8b6651"/><polygon points="695.59 208.09 682.5 233.66 696.5 238.28 704.88 217.03 695.59 208.09" style="fill:#c2987a"/><path d="M768.63,330.15c-.5-.38-76.42,10-76.42,10L635.71,329l57.2-11.17Z" transform="translate(0 -0.34)" style="fill:#2b2b2b;opacity:0.1"/><polygon points="684.93 314.19 684.86 325.84 653.29 325.89 673.11 309.49 679.18 305.02 684.93 314.19" style="fill:#dfbda5"/><polygon points="660.65 319.94 647.28 315.06 653.29 325.89 660.65 319.94" style="fill:#c2987a"/><polygon points="684.93 314.19 673.11 309.49 675.65 299.76 684.97 298.89 688.64 306.73 684.93 314.19" style="fill:#c2987a"/><polygon points="688.64 306.73 675.65 299.76 692.91 298.15 688.64 306.73" style="fill:#8b6651"/><polygon points="741.41 319.4 742.16 331.69 718.86 331.14 729.25 318.06 729.59 314.7 735.66 310.23 741.41 319.4" style="fill:#dfbda5"/><polygon points="742.16 331.69 723.74 322.5 718.86 331.14 742.16 331.69" style="fill:#c2987a"/><polygon points="741.41 319.4 729.25 318.06 726.52 299.37 733.46 304.1 742.16 313.53 741.41 319.4" style="fill:#c2987a"/><polygon points="742.16 313.53 727.6 306.73 741.41 303.36 742.64 308.75 742.16 313.53" style="fill:#8b6651"/><polygon points="748.13 240.78 755.52 244 749.04 247.6 748.13 240.78" style="fill:#8b6651"/><polyline points="747.39 220.37 750.78 226.37 749.04 247.6 732.55 226.91 739.61 222.07 747.49 219.88" style="fill:#c2987a"/><polygon points="708.18 151.04 674.17 186.98 697.62 194.17 692.28 183.23 708.18 151.04" style="fill:#6f9d52"/><polyline points="718.42 208.13 694.93 215.8 674.17 186.98 696.39 190 731.29 209.16" style="fill:#99c26c"/><polygon points="735.36 199.33 747.65 191.2 730.09 172.16 706.15 168.55 688.65 180.95 694.93 215.8 735.36 199.33" style="fill:#5a753d"/><polygon points="756.15 165.13 739.74 150.84 709.85 148.5 688.65 180.95 747.65 191.2 756.15 165.13" style="fill:#738d57"/><polygon points="694.93 215.8 747.65 191.2 742.26 211.28 723.62 222.07 694.93 215.8" style="fill:#5a753d"/><polygon points="694.93 215.8 742.26 211.28 739.37 222.07 720.72 240.14 695.59 221.53 694.93 215.8" style="fill:#99c26c"/><polygon points="695.59 221.53 739.37 222.07 749.04 247.6 711.52 244.01 695.59 221.53" style="fill:#54b08b"/><polygon points="683.04 270.13 735.45 261.72 749.04 247.6 695.59 221.53 683.04 270.13" style="fill:#3f8f6f"/><polygon points="683.04 270.13 675.65 299.76 742.64 308.75 749.04 247.6 683.04 270.13" style="fill:#35785e"/><path d="M764.58,190.16c1.23,1,8.66,16.64,8.66,16.64l-22.46,19.92-11.41-4.31,15.7-32.25Z" transform="translate(0 -0.34)" style="fill:#99c26c"/><polyline points="757.17 163.44 773.23 206.74 747.71 191.2 747.71 173.98 756.13 162.66" style="fill:#5a753d"/><polygon points="676.77 61.81 681.26 60.54 683.72 57.35 696.92 50.32 709.01 40.53 730.44 46.68 748.93 48.65 753.54 60.63 762.27 74.31 764.05 78.29 766.74 81.26 769.23 99.66 776.19 133.45 759.2 142.94 751.03 151.24 781.89 157.76 773.24 165.49 735.65 168.36 711.07 175.41 715.58 161.09 708.29 148.99 698.64 138.08 685.35 133.61 669.72 130.39 677.29 100.52 681.24 68.81 680.1 64.53 676.77 61.81" style="fill:#dfbda5"/><polygon points="698.64 138.08 669.72 130.39 681.24 68.81 688.06 64.25 695.06 59.78 705.82 54.07 715.85 65.78 717.47 64.68 721.79 71.42 713.61 141.44 698.64 138.08" style="fill:#dfbda5"/><polygon points="681.18 68.82 683.72 57.35 709.01 40.53 712.32 53.45 705.82 54.07 695.06 59.78 688.06 64.25 681.18 68.82" style="fill:#e6e97b"/><polygon points="709.01 40.53 748.93 48.65 762.27 74.31 766.74 81.26 755.5 78.81 744.35 76.53 733.16 74.02 721.75 71.53 715.85 65.78 705.82 54.07 709.01 40.53" style="fill:#d9e256"/><polygon points="721.75 71.53 732.88 73.99 744.35 76.53 755.5 78.81 766.74 81.26 776.19 133.45 726.16 78.49 721.75 71.53" style="fill:#b8c744"/><polygon points="697.27 82.42 693.51 98.28 681.22 81.4 697.27 82.42" style="fill:#c2987a"/><polygon points="701.1 82.64 715.64 90.92 704.47 93.73 695.55 107.17 701.1 82.64" style="fill:#c2987a"/><polygon points="721.75 71.53 713.61 141.44 716.26 143.67 722.56 143.76 726.27 137.82 728.41 129.68 727.79 109.01 721.75 71.53" style="fill:#c2987a"/><polygon points="691.55 106.45 692.99 110.42 695.55 107.17 691.55 106.45" style="fill:#8b6651"/><polygon points="701.1 82.64 714.28 86.66 715.64 90.92 701.1 82.64" style="fill:#738d57"/><polygon points="697.27 82.42 682.17 78.9 681.22 81.4 697.27 82.42" style="fill:#738d57"/><polygon points="722.56 143.76 715.58 161.09 698.64 138.08 713.61 141.44 722.56 143.76" style="fill:#8b6651"/><polygon points="701.1 82.64 695.55 107.17 691.55 106.45 697.27 82.42 701.1 82.64" style="fill:#e9cbb7"/><polygon points="726.16 78.49 752.42 177.81 735.24 182.7 729.97 166.42 728.41 129.68 721.79 71.42 726.16 78.49" style="fill:#e6e97b"/><polygon points="730.24 96.42 773.24 165.49 792.54 153.26 776.19 133.45 726.16 78.49 730.24 96.42" style="fill:#d9e256"/><polygon points="728.41 129.68 715.58 161.09 708.57 178.84 735.24 182.7 728.41 129.68" style="fill:#d9e256"/><polygon points="730.24 96.42 773.24 165.49 752.42 177.81 742.58 151.33 734.95 129.91 730.24 96.42" style="fill:#b8c744"/><polygon points="679.54 114.53 691.83 118.36 706.63 119.66 690.92 126.57 679.54 114.53" style="fill:#fff"/><polygon points="679.54 114.53 691.63 123.22 706.63 119.66 690.92 126.57 679.54 114.53" style="fill:#6f9d52"/><polygon points="679.54 114.53 684.46 115.44 690.93 115.94 695.24 116.84 700.63 118.61 706.63 119.66 691.96 119.94 679.54 114.53" style="fill:#44622d"/><polygon points="676.77 61.81 683.72 57.35 688.23 64.29 681.18 68.82 676.77 61.81" style="fill:#35785e"/><polygon points="688.06 64.25 695.06 59.78 699.52 66.73 692.47 71.26 688.06 64.25" style="fill:#54b08b"/><polygon points="699.23 66.65 706.28 62.12 710.69 69.12 703.75 73.59 699.23 66.65" style="fill:#35785e"/><polygon points="710.53 69.14 717.47 64.68 722 71.67 715 76.14 710.53 69.14" style="fill:#54b08b"/><polygon points="721.75 71.53 728.75 67.01 733.16 74.02 726.16 78.49 721.75 71.53" style="fill:#35785e"/><polygon points="732.88 73.99 739.81 69.47 744.35 76.53 737.28 80.94 732.88 73.99" style="fill:#54b08b"/><polygon points="744.04 76.34 751.1 71.86 755.5 78.81 748.51 83.33 744.04 76.34" style="fill:#35785e"/><polygon points="755.27 78.78 762.27 74.31 766.74 81.26 759.8 85.78 755.27 78.78" style="fill:#54b08b"/><polygon points="724.32 93.33 730.24 96.42 733.1 109.33 725.67 105.52 724.32 93.33" style="fill:#5a753d"/><polygon points="725.67 105.52 733.1 109.33 735.19 118.72 726.79 115.31 725.67 105.52" style="fill:#99c26c"/><polygon points="726.79 115.31 735.19 118.72 737.58 129.14 727.93 125.2 726.79 115.31" style="fill:#5a753d"/><polygon points="727.93 125.2 737.58 129.14 740.16 140.68 729.23 136.04 727.93 125.2" style="fill:#99c26c"/><polygon points="729.23 136.04 740.16 140.68 742.58 151.33 730.54 146.43 729.23 136.04" style="fill:#5a753d"/><path d="M685.8,88.22a3.1,3.1,0,0,1,3.5,2.7,3.14,3.14,0,0,1-2.75,3.5A3.18,3.18,0,0,1,683,91.68,3.14,3.14,0,0,1,685.8,88.22Z" transform="translate(0 -0.34)" style="fill:#2b2b2b"/><path d="M707.25,93.18a3.24,3.24,0,0,1,3.57,2.8A3.19,3.19,0,0,1,708,99.49a3.14,3.14,0,0,1-3.5-2.75A3.19,3.19,0,0,1,707.25,93.18Z" transform="translate(0 -0.34)" style="fill:#2b2b2b"/><polyline points="622.28 179.46 632.77 178.91 643.08 161.83 632.68 159.87 618.84 166.29 621.23 179.46" style="fill:#c2987a"/><polygon points="609.7 172.97 615.96 183.73 632.77 178.91 618.84 166.29 609.7 172.97" style="fill:#8b6651"/><polygon points="609.95 180.38 609.95 173.02 613.34 158.11 618.07 159.03 618.07 173.02 609.95 180.38" style="fill:#dfbda5"/><polygon points="466.58 205.14 493.4 239.07 503.15 240.98 506.08 232.42 498.9 217.29 485.5 211.09 466.58 205.14" style="fill:#dfbda5"/><polygon points="466.58 205.14 498.9 217.29 495.43 209.34 495.56 196.87 466.58 205.14" style="fill:#8b6651"/><polygon points="602.97 327.89 532.01 317.17 460.83 331.54 532.13 337.46 602.97 327.89" style="fill:#2b2b2b;opacity:0.1"/><polygon points="532.13 268.71 539.23 286.71 555.71 290.78 567.27 283.01 566.84 246.01 554.03 231.55 532.13 268.71" style="fill:#54b08b"/><polygon points="532.13 268.71 523.75 287.86 507.04 304.03 494.33 288 493.23 245.94 503.58 230.94 532.13 268.71" style="fill:#54b08b"/><polygon points="532.13 268.71 566.84 249.57 566.37 238.55 550.56 225.62 493.25 239.02 493.19 249.09 532.13 268.71" style="fill:#3f8f6f"/><polygon points="523.75 287.86 494.33 288 495.12 316.05 503.58 317.08 514.44 313.75 523.75 287.86" style="fill:#35785e"/><polygon points="567.27 283.01 539.23 286.71 547.97 316.67 557.91 315.69 567.48 308.72 567.27 283.01" style="fill:#35785e"/><polygon points="514.44 313.75 519.33 328.1 505.53 330.12 493.19 328.1 495.12 316.05 514.44 313.75" style="fill:#99c26c"/><rect x="493.19" y="328.45" width="26.14" height="4.04" transform="translate(1012.53 660.58) rotate(180)" style="fill:#738d57"/><polygon points="548.37 326.34 586.62 326.34 586.62 322.31 567.3 320.09 548.37 322.31 548.37 326.34" style="fill:#738d57"/><polygon points="567.48 308.72 586.62 322.31 562.4 322.31 548.37 322.31 547.97 316.67 567.48 308.72" style="fill:#99c26c"/><polygon points="556.97 38.2 565.46 25.78 547.88 25.73 556.97 38.2" style="fill:#35785e"/><polygon points="495.59 162.96 466.58 205.14 494.29 205.14 502.2 198.05 505.01 175.94 495.59 162.96" style="fill:#5a753d"/><polygon points="591.6 180.22 609.7 172.97 615.96 183.73 598.1 199.09 589.98 196.08 591.6 180.22" style="fill:#c2987a"/><polygon points="591.6 180.22 598.1 199.09 588.75 208.13 584.51 196.19 591.6 180.22" style="fill:#8b6651"/><polygon points="568.07 165.44 591.6 180.22 588.75 208.13 567.24 203.09 563.4 185.36 568.07 165.44" style="fill:#5a753d"/><polygon points="539.96 184.76 533.32 208.17 513.82 211.1 494.29 205.14 495.59 162.96 508.48 155.12 535.01 164.79 539.96 184.76" style="fill:#99c26c"/><polygon points="516.73 147.79 534.83 156.81 546.36 151.44 552.11 147.62 576.31 148.47 585.37 82.36 582.54 65.54 564.21 69.15 528.73 70.81 519.19 84.72 520.32 102.91 507.83 106.71 516.73 147.79" style="fill:#dfbda5"/><polygon points="534.13 146.6 536.63 83.69 534.85 71.76 522.02 81.53 515.64 97.72 502.2 102.97 507.12 118.16 509.88 120.7 510.04 127.16 516.6 147.42 523.2 157.5 535.01 164.79 532.59 150.5 534.13 146.6" style="fill:#c2987a"/><polygon points="507.16 118.15 515.4 115.51 510.04 127.16 507.16 118.15" style="fill:#8b6651"/><polygon points="565.46 25.78 548.31 41.3 546.44 55.53 565.88 76.48 572.64 50.92 565.46 25.78" style="fill:#54b08b"/><polygon points="506.61 105.59 511.92 103.71 514.23 112.41 506.61 105.59" style="fill:#8b6651"/><polygon points="564.9 118.23 557.78 117.76 558.98 95.11 566.11 95.58 564.9 118.23" style="fill:#e9cbb7"/><polygon points="564.9 118.23 560.71 121.19 557.78 117.76 564.9 118.23" style="fill:#8b6651"/><polygon points="551.95 134.11 545.73 123.84 573.61 126.08 565.79 134.6 551.95 134.11" style="fill:#fff"/><path d="M547.39,125.21l24.34,2L565.41,134l-12.95-.46-5.07-8.37m-3.32-2,1.8,3,5.07,8.37.49.83,1,0,13,.46.81,0,.56-.61,6.31-6.87,2.47-2.68-3.63-.29-24.34-2-3.46-.28Z" transform="translate(0 -0.34)" style="fill:#8b6651"/><polygon points="560.31 159.87 535.01 164.79 534.58 175.81 534.58 175.81 533.32 208.17 553.8 210.33 567.24 203.09 567.24 203.08 568.07 165.44 560.31 159.87" style="fill:#c0db8f"/><polygon points="540.92 88.89 542.83 90.12 553.21 85.8 557.5 88.37 558.45 87.26 555.44 80.91 540.92 88.89" style="fill:#35785e"/><polygon points="569.01 89.44 574.1 89.51 577.96 85.19 584.19 83.48 577.37 82.44 569.01 89.44" style="fill:#35785e"/><polygon points="527.21 171.04 534.58 175.81 541.42 170.99 535.01 164.79 527.21 171.04" style="fill:#474748"/><polygon points="522.85 205.14 494.29 205.14 493.25 239.02 532.28 250.64 541.31 217.09 522.85 205.14" style="fill:#5a753d"/><polygon points="567.24 203.09 567.24 203.09 533.32 208.17 532.75 217.8 532.28 250.64 566.37 238.55 567.24 203.09" style="fill:#6f9d52"/><polygon points="586.83 62.55 581.04 44 565.46 25.78 565.88 76.48 586.83 62.55" style="fill:#74c7a5"/><polygon points="496.32 87.57 502.2 102.97 515.07 101.1 518.48 111.98 528.35 109.22 524.43 86.14 512.82 81.06 496.32 87.57" style="fill:#3f8f6f"/><polygon points="536.39 89.58 500.56 98.36 502.2 102.97 536.06 98.05 536.39 89.58" style="fill:#44622d"/><polygon points="523.18 48.01 525.73 65.3 534.79 72.38 534.79 72.38 534.98 72.13 565.88 76.48 548.31 41.3 523.18 48.01" style="fill:#3f8f6f"/><polygon points="496.32 87.57 524.43 86.14 534.79 72.38 523.18 48.01 496.32 87.57" style="fill:#35785e"/><polygon points="539.38 103.8 542.76 96.44 555.3 96.9 556.84 94.4 539.31 92.07 539.38 103.8" style="fill:#c2987a"/><polygon points="576.99 96.47 571.64 98.34 569.29 106.14 568.27 93.96 576.99 96.47" style="fill:#c2987a"/><polygon points="565.88 76.48 583.34 70.29 582.53 65.49 565.88 76.48" style="fill:#8b6651"/><polygon points="569.01 89.44 566.62 91.98 580.29 93.2 584.19 83.48 577.96 85.19 574.1 89.51 569.01 89.44" style="fill:#c2987a"/><polygon points="557.5 88.37 558.33 91.52 542.73 90.16 553.21 85.8 557.5 88.37" style="fill:#c2987a"/><polygon points="538.95 106.94 558.11 111.51 558.29 108.2 538.95 106.94" style="fill:#c2987a"/><polygon points="565.23 112.19 581.5 109.09 565.37 109.48 565.23 112.19" style="fill:#c2987a"/><polygon points="552.11 147.62 529.72 146.35 535.01 164.79 544.32 162.01 551.55 151.38 552.11 147.62" style="fill:#8b6651"/><path d="M567.87,92.41v0l-.41,0-1.16-.11v0l-7.08-.39-22.83-2-.7,17.63,22.6,1L559,95.47l7.09.39-.74,14,22.56,1,1.24-16.47Zm-13.13,12.38-15.35-.64.41-10.35,15.65,1.44Zm29.9,2.34-15.35-.64.42-10.34,15.65,1.43Z" transform="translate(0 -0.34)" style="fill:#6f9d52"/><path d="M580.64,100.3a2.6,2.6,0,1,1-3.32-1.58A2.6,2.6,0,0,1,580.64,100.3Z" transform="translate(0 -0.34)" style="fill:#2b2b2b"/><path d="M554.17,98.36a2.59,2.59,0,1,1-3.31-1.58A2.59,2.59,0,0,1,554.17,98.36Z" transform="translate(0 -0.34)" style="fill:#2b2b2b"/><polygon points="522.85 205.14 522.85 205.14 533.05 212.79 544.62 206.47 534.58 175.81 522.85 205.14" style="fill:#6f7273"/><polygon points="544.62 206.47 522.85 205.14 532.75 217.8 544.62 206.47" style="fill:#474748"/><polygon points="516.6 147.42 508.48 155.12 524.77 176.23 535.01 164.79 516.6 147.42" style="fill:#44622d"/><polygon points="535.01 164.79 543.09 175.56 560.31 159.87 551.55 151.38 535.01 164.79" style="fill:#44622d"/></svg>