<svg xmlns="http://www.w3.org/2000/svg" viewBox="0 0 897.97 350"><polygon points="844.89 198.23 841.67 212.84 841.67 227.07 849.36 225.92 846.13 224.71 847.07 212.81 844.89 198.23" style="fill:#858686"/><polygon points="841.67 212.84 847.19 226.25 849.36 225.92 847.59 224.12 847.07 212.81 841.67 212.84" style="fill:#6f7273"/><polygon points="838.33 192.72 832.4 197.62 841.67 212.84 847.07 212.81 855.12 197.24 838.33 192.72" style="fill:#594265"/><polygon points="840.03 181.63 834.3 186.06 832.4 197.62 844.2 205.22 855.12 197.24 852.93 187.29 840.03 181.63" style="fill:#795d88"/><polygon points="844.87 169.31 849.36 174.31 852.93 187.29 842.84 195.07 834.3 186.06 836.32 174.74 844.87 169.31" style="fill:#9075a0"/><polygon points="842.89 156.93 849.36 174.31 842.84 185.27 836.32 174.74 842.89 156.93" style="fill:#a588b9"/><polygon points="697.07 159.05 694.99 168.87 694.99 178.43 699.97 177.66 697.87 176.84 698.49 168.85 697.07 159.05" style="fill:#858686"/><polygon points="694.99 168.87 697.22 178.09 699.97 177.66 698.09 176.57 698.49 168.85 694.99 168.87" style="fill:#6f7273"/><polygon points="692.82 155.35 688.98 158.64 694.99 168.87 698.49 168.85 703.7 158.38 692.82 155.35" style="fill:#594265"/><polygon points="693.92 147.9 690.21 150.87 688.98 158.64 697.22 162.42 703.7 158.38 702.28 151.7 693.92 147.9" style="fill:#795d88"/><polygon points="697.06 139.62 699.97 142.98 702.28 151.7 694.99 156.54 690.21 150.87 691.52 143.26 697.06 139.62" style="fill:#9075a0"/><polygon points="695.78 131.3 699.97 142.98 696.34 147.29 691.52 143.26 695.78 131.3" style="fill:#a588b9"/><polygon points="643.68 154.9 640.21 171.28 640.21 187.26 648.52 185.97 645.02 184.6 646.05 171.25 643.68 154.9" style="fill:#858686"/><polygon points="640.21 171.28 644.13 186.65 648.52 185.97 646.6 183.95 646.05 171.25 640.21 171.28" style="fill:#6f7273"/><polygon points="636.59 148.71 630.18 154.21 640.21 171.28 646.05 171.25 654.76 153.78 636.59 148.71" style="fill:#594265"/><polygon points="638.43 136.27 632.22 141.23 630.18 154.21 642.94 162.74 654.76 153.78 652.38 142.61 638.43 136.27" style="fill:#795d88"/><polygon points="643.67 122.44 648.52 128.05 652.38 142.61 644.27 151.34 632.22 141.23 634.41 128.53 643.67 122.44" style="fill:#9075a0"/><polygon points="641.52 108.54 648.52 128.05 639.89 137.71 634.41 128.53 641.52 108.54" style="fill:#a588b9"/><polygon points="408.55 167.95 403.77 190.45 403.77 212.39 415.19 210.61 410.39 208.74 411.79 190.41 408.55 167.95" style="fill:#858686"/><polygon points="403.77 190.45 409.01 211.57 415.19 210.61 412.56 207.84 411.79 190.41 403.77 190.45" style="fill:#6f7273"/><polygon points="398.81 159.46 390 167.01 403.77 190.45 411.79 190.41 423.75 166.42 398.81 159.46" style="fill:#594265"/><polygon points="401.33 142.38 392.81 149.19 390 167.01 408.7 183.51 423.75 166.42 420.49 151.09 401.33 142.38" style="fill:#795d88"/><polygon points="408.52 123.39 415.19 131.09 420.49 151.09 405.8 165.83 392.81 149.19 395.81 131.75 408.52 123.39" style="fill:#9075a0"/><polygon points="405.58 104.31 415.19 131.09 407.52 148.1 395.81 131.75 405.58 104.31" style="fill:#a588b9"/><polygon points="764.73 147.25 758.76 174.4 758.76 200.87 773.05 198.73 767.04 196.46 768.79 174.35 764.73 147.25" style="fill:#6f7273"/><polygon points="758.76 174.4 765.16 199.91 773.05 198.73 769.75 195.38 768.79 174.35 758.76 174.4" style="fill:#4f5353"/><polygon points="752.55 137 741.6 145.45 758.76 174.4 768.79 174.35 783.76 145.4 752.55 137" style="fill:#594265"/><polygon points="755.7 116.39 745.04 124.61 741.6 145.45 759.8 161.28 783.76 145.4 779.68 126.9 755.7 116.39" style="fill:#795d88"/><polygon points="764.7 93.47 773.05 102.77 779.68 126.9 758.76 141.37 745.04 124.61 748.79 103.56 764.7 93.47" style="fill:#9075a0"/><polygon points="761.02 70.45 773.05 102.77 764.93 119.5 748.79 103.56 761.02 70.45" style="fill:#a588b9"/><polygon points="709.38 37.55 646.38 37.55 738.55 73.88 800.88 42.83 735.16 50.88 709.38 37.55" style="fill:#dddddc"/><polygon points="646.38 37.55 709.38 26.88 756.38 40.9 800.88 42.83 740.3 57.43 646.38 37.55" style="fill:#ececeb"/><polygon points="213.85 22.96 269.35 26.18 197.85 51.45 123.25 27.46 182.81 27.61 213.85 22.96" style="fill:#dddddc"/><polygon points="269.35 26.18 226.35 12.21 187.85 24.21 123.25 27.46 198.34 38.29 269.35 26.18" style="fill:#ececeb"/><polygon points="522.13 277.33 542.97 304.67 637.63 306.67 525.97 231.67 522.13 277.33" style="fill:#cfcfcd"/><polygon points="568.47 266 701.97 216.33 764.47 238 641.63 292.5 568.47 266" style="fill:#b3889d"/><polygon points="599.97 266 704.97 226 755.97 238 786.63 214.17 698.97 192.5 566.47 242.51 599.97 266" style="fill:#96647c"/><polygon points="679.47 288.09 707.97 304.67 824.3 243.38 824.3 216.33 681.63 277.62 679.47 288.09" style="fill:#a3a3a3"/><polygon points="623.3 279 637.63 306.67 707.97 304.67 708.97 283.33 704.97 269.52 649.63 270.92 623.3 279" style="fill:#cfcfcd"/><polygon points="533.81 251.67 541.36 295.36 479.63 301.04 472.63 256.67 571.63 238 533.81 251.67" style="fill:#a3a3a3"/><polygon points="557.97 232 593.63 238 649.63 270.92 637.63 306.67 533.81 251.67 557.97 232" style="fill:#ececeb"/><polygon points="792.3 203.42 759.63 214.17 762.15 221.66 649.63 270.92 708.97 283.33 824.3 216.33 792.3 203.42" style="fill:#a588b9"/><polygon points="774.3 195.33 792.3 192.67 824.3 216.33 786.63 208.67 774.3 195.33" style="fill:#a588b9"/><polygon points="669.97 180 724.97 175 792.3 192.67 786.63 208.67 689.63 202 590.8 233.67 585.97 196 669.97 180" style="fill:#a588b9"/><polygon points="694.97 202 704.97 206 762.15 221.66 786.63 208.67 704.97 192.67 694.97 202" style="fill:#a3a3a3"/><polygon points="579.97 226.17 593.63 238 704.97 206 704.97 192.67 602.03 220.44 579.97 226.17" style="fill:#8f8f8f"/><polygon points="614.97 190 640.3 179.33 700.28 174.31 724.97 175 640.83 198 614.97 190" style="fill:#9075a0"/><polygon points="489.63 262 533.81 251.67 593.63 238 608.05 207.83 593.63 166.33 424.3 232 489.63 262" style="fill:#c4c4c4"/><polygon points="458 234.98 533.81 251.67 489.63 272.33 424.3 299.33 406.76 260.25 458 234.98" style="fill:#d1a1b9"/><polygon points="575.63 166.33 596.97 190 607.66 208.64 640.83 198 640.3 179.33 608.3 152.67 575.63 166.33" style="fill:#cfcfcd"/><polygon points="490.97 178.17 524.95 196.52 596.97 190 608.3 152.67 502.97 149.83 490.97 178.17" style="fill:#a3a3a3"/><polygon points="409.3 241.33 458 234.98 524.95 196.52 502.97 149.83 403.63 222 409.3 241.33" style="fill:#dddddc"/><polygon points="412.97 232 412.3 202 502.97 149.83 509.27 163.22 412.97 232" style="fill:#c4c4c4"/><polygon points="457.63 290 420.97 275.83 458 234.98 412.3 202 360.97 210 360.97 280 457.63 290" style="fill:#b3889d"/><polygon points="367.63 231.33 350.3 222.67 120.3 202 10.39 246.76 84.97 295.33 242.97 341.33 436.97 299.33 367.63 231.33" style="fill:#dddddc"/><polygon points="424.3 299.33 413.63 295.33 350.3 222.67 360.97 210 420.97 275.83 424.3 299.33" style="fill:#cfcfcd"/><polygon points="280.97 332.67 237.97 332.67 10.39 246.76 0 301.04 238.47 350 280.97 332.67" style="fill:#a3a3a3"/><polygon points="420.97 275.83 413.63 295.33 237.97 332.67 238.47 350 479.63 301.04 489.63 272.33 420.97 275.83" style="fill:#c4c4c4"/><polygon points="501.31 244.51 479.04 239.62 458 234.98 444 250.42 482.32 262.84 486.97 251.39 501.31 244.51" style="fill:#96647c"/><polygon points="44.47 242.75 196.3 311.33 348.63 301.67 408 288.87 385.74 263.33 257.22 231.51 44.47 242.75" style="fill:#2b2b2b;opacity:0.1"/><polygon points="163.47 186.75 184.44 193.22 177.72 257.75 112.72 258.79 109.3 187.83 163.47 186.75" style="fill:#795d88"/><polygon points="117.97 184 120.71 200.67 112.72 258.79 85.63 249.25 89.3 177 117.97 184" style="fill:#9075a0"/><polygon points="120.71 200.67 184.44 193.22 176.72 175 89.3 177 120.71 200.67" style="fill:#a588b9"/><polygon points="168.13 206.33 133.39 208.97 125.97 248.17 164.11 246.48 168.13 206.33" style="fill:#a588b9"/><polygon points="795.38 185.42 786.63 208.67 773.12 206.02 768.3 184.5 775.63 183.67 795.38 185.42" style="fill:#734d61"/><polygon points="735.46 169.5 744.66 200.53 752.13 201.91 759.8 177.33 751.54 169.17 735.46 169.5" style="fill:#96647c"/><polygon points="723.63 187.25 756.97 170.75 734.06 161.28 723.63 187.25" style="fill:#d1a1b9"/><polygon points="752.3 167.83 751.3 181.67 752.13 201.91 761.15 203.67 768.3 180.67 752.3 167.83" style="fill:#734d61"/><polygon points="751.3 181.67 741.6 145.45 760.54 161.28 764.93 171.17 768.3 182.67 751.3 181.67" style="fill:#b3889d"/><polygon points="771.8 174.16 764.93 171.17 761.15 203.67 773.12 206.02 775.63 183.67 771.8 174.16" style="fill:#96647c"/><polygon points="791.83 170.42 764.93 171.17 775.63 183.67 791.83 170.42" style="fill:#96647c"/><polygon points="795.74 206.02 775.63 183.67 803 183.67 795.74 206.02" style="fill:#d1a1b9"/><polygon points="856.22 254.42 886.8 230.83 824.3 216.33 803.97 258 856.22 254.42" style="fill:#a588b9"/><polygon points="640.3 204.67 617.8 186 640.3 179.33 656.3 186 640.3 204.67" style="fill:#dddddc"/><polygon points="620.97 200.33 635.3 191.33 656.3 186 659.04 254.84 609.3 244.58 620.97 200.33" style="fill:#a3a3a3"/><polygon points="609.97 227.33 606.63 211 617.8 186 635.3 191.33 627.97 213.33 609.97 227.33" style="fill:#c4c4c4"/><polygon points="651.97 248 674.97 248 688.3 293.33 653.97 305.67 629.84 319.67 592.3 251.67 651.97 248" style="fill:#a3a3a3"/><polygon points="625.3 269.42 636.97 264.33 674.97 248 617.8 231.33 592.3 264.33 625.3 269.42" style="fill:#dddddc"/><polyline points="598.63 259.33 610.97 259.33 636.97 264.33 629.84 319.67 605.97 309.41 596.97 259.33" style="fill:#c4c4c4"/><polygon points="593.63 213.67 627.97 213.33 636.97 248 610.97 259.33 605.97 309.41 554.97 311.67 539.63 220.35 593.63 213.67" style="fill:#8f8f8f"/><polygon points="558.63 216.33 558.3 229.33 556.63 272.83 506.74 267.79 510.54 214.17 558.63 216.33" style="fill:#c4c4c4"/><polygon points="502.97 248 486.97 251.39 478.23 272.92 479.63 301.04 502.97 303.67 521.3 265.67 502.97 248" style="fill:#8f8f8f"/><polygon points="515.97 250 507.63 259.33 502.97 303.67 539.63 298.33 536.3 269.42 537.63 248 515.97 250" style="fill:#a3a3a3"/><polygon points="566.63 269.42 536.3 269.42 521.01 301.04 545.9 333.44 575.63 296.33 566.63 269.42" style="fill:#c4c4c4"/><polygon points="565.97 274.33 556.63 283.33 545.9 333.44 611.3 328.73 599.97 283.33 565.97 274.33" style="fill:#a3a3a3"/><polygon points="766.97 227 752.88 225.72 752.3 243.67 760.3 288.33 778.3 294.67 778.3 232 766.97 227" style="fill:#c4c4c4"/><polygon points="778.97 223.83 778.3 243.1 778.3 294.67 897.97 264.33 886.8 230.83 832.16 241.09 824.3 216.33 778.97 223.83" style="fill:#a3a3a3"/><polygon points="728.43 255.5 768.3 254.84 770.28 291.85 727.8 304.67 728.43 255.5" style="fill:#9ca0a1"/><polygon points="738.63 254.33 735.63 262.33 735.63 288.83 710.63 276.67 722.63 250 738.63 254.33" style="fill:#c4c4c4"/><polygon points="743.97 300.67 760.3 288.33 697.97 264.33 656.3 283.33 722.63 313.33 743.97 300.67" style="fill:#dddddc"/><polygon points="678.97 300 695.97 324 766.97 308 760.3 288.33 722.63 298.33 678.97 300" style="fill:#a3a3a3"/><polygon points="656.3 283.33 653.97 305.67 695.97 324 722.63 298.33 656.3 283.33" style="fill:#c4c4c4"/><polygon points="735.63 262.33 722.63 250 752.3 243.67 768.3 254.84 735.63 262.33" style="fill:#dddddc"/><polygon points="752.88 225.72 778.3 243.1 824.3 216.33 786.63 208.67 752.88 225.72" style="fill:#dddddc"/><polygon points="627.97 213.33 558.3 229.33 510.54 214.17 561.94 198.07 627.97 213.33" style="fill:#dddddc"/><polygon points="536.3 269.42 577.09 266 599.97 283.33 556.63 283.33 536.3 269.42" style="fill:#dddddc"/><polygon points="537.63 248 507.63 259.33 486.97 251.39 501.31 244.51 537.63 248" style="fill:#dddddc"/><polygon points="148.84 258.67 138.22 270.25 149.79 277.33 179.97 272.58 184.97 262 148.84 258.67" style="fill:#734d61"/><polygon points="133.75 256.5 112.72 258.79 112.72 268.33 149.79 277.33 149.22 271.25 133.75 256.5" style="fill:#96647c"/><polygon points="112.72 258.79 149.22 271.25 184.97 262 145.22 249.25 112.72 258.79" style="fill:#b3889d"/><polygon points="138.22 184 161.57 195.89 155.47 258.67 149.97 262 138.22 211 138.22 184" style="fill:#543042"/><polygon points="171.87 80.54 171.24 57.06 145.18 52.81 133.47 78.19 171.87 80.54" style="fill:#96647c"/><polygon points="133.62 65.19 124.69 56.7 145.18 52.81 141.82 89.41 133.62 65.19" style="fill:#734d61"/><polygon points="120.86 70.54 119.32 116.66 148.99 145.87 163.56 129.75 156.97 74.59 147.58 65.37 120.86 70.54" style="fill:#96647c"/><polygon points="120.86 70.54 108.55 115.13 119.05 126.39 124.54 124.51 134.83 70.79 130.35 65.9 120.86 70.54" style="fill:#b3889d"/><polygon points="137.97 186.75 131.22 191.25 139.22 256.5 149.97 262 144.63 198.33 137.97 186.75" style="fill:#734d61"/><polygon points="140.59 171 144.63 198.33 161.57 195.89 155.47 124.17 147.79 138.68 140.59 171" style="fill:#734d61"/><polygon points="141.3 136.33 131.22 191.25 144.63 198.33 149.97 135.5 141.3 136.33" style="fill:#96647c"/><polygon points="176.79 71.11 191.38 112.44 170.5 129.68 153.22 66.81 176.79 71.11" style="fill:#543042"/><polygon points="176.19 125.19 160.29 65.29 154.84 67.04 147.79 77.74 148.75 132.08 176.19 125.19" style="fill:#734d61"/><polygon points="140.36 134.71 148.75 132.08 191.38 112.44 195.51 122.79 148.99 145.87 140.36 134.71" style="fill:#b3889d"/><polygon points="139.48 70.37 147.58 65.37 171.24 57.06 176.79 71.11 147.79 77.74 139.48 70.37" style="fill:#b3889d"/><polygon points="108.55 115.13 104.43 130.05 148.99 145.87 148.75 132.08 108.55 115.13" style="fill:#d1a1b9"/><polygon points="124.69 56.7 120.86 70.54 147.79 77.74 147.58 65.37 124.69 56.7" style="fill:#d1a1b9"/><polygon points="568.55 137.75 564.55 151.25 553.67 152.53 550.05 142.92 562.47 130.17 568.55 137.75" style="fill:#8b6651"/><polygon points="564.63 209.17 542.62 204.11 510.55 214.16 508.36 245.06 537.63 247.99 536.3 269.41 558.3 229.32 565.5 227.67 564.63 209.17" style="fill:#2b2b2b;opacity:0.1"/><polygon points="570.82 40.13 557.82 53.33 566.57 63.9 570.16 69.37 574.99 66.05 577.49 57.15 570.82 51.83 570.82 40.13" style="fill:#734d61"/><polygon points="570.82 45.02 557.82 41.67 557.82 53.33 577.49 57.15 577.32 54.33 570.82 45.02" style="fill:#96647c"/><polygon points="569.82 38 557.82 41.67 577.32 54.33 583.82 45.02 569.82 38" style="fill:#b3889d"/><polygon points="572.38 25.5 579.76 31 583.82 45.02 557.82 41.67 572.38 25.5" style="fill:#d1a1b9"/><polygon points="576.49 13.02 557.82 41.67 579.76 31 576.49 13.02" style="fill:#96647c"/><polygon points="565.95 73.28 556.61 208.32 564.63 209.17 574.39 74.32 570.01 67.81 565.95 73.28" style="fill:#795d88"/><polygon points="570.82 0 579.76 31 586.66 14.83 570.82 0" style="fill:#b3889d"/><polygon points="565.95 73.28 574.39 74.32 574.99 66.05 566.57 63.9 565.95 73.28" style="fill:#96647c"/><polygon points="546.8 147.76 548.05 148.84 559.3 141.51 560.22 135.01 565.97 129.01 565.22 125.42 556.05 129.76 552.22 137.11 547.47 147.92 546.8 147.76" style="fill:#dfbda5;fill-rule:evenodd"/><polygon points="449.62 162.47 456.11 117.58 441.64 109.15 425.59 151.84 449.62 162.47" style="fill:#734d61;fill-rule:evenodd"/><polygon points="522.38 116.67 537.52 142.21 526.58 157.7 505.89 147.62 510.13 108.15 522.38 116.67" style="fill:#734d61;fill-rule:evenodd"/><polygon points="552.22 137.11 533.73 135.81 526.58 157.7 553.67 152.53 552.22 137.11" style="fill:#96647c;fill-rule:evenodd"/><polygon points="486.74 123.08 498.96 105.44 513.15 109.97 516.93 167.3 481.94 171.28 449.39 167.72 453.37 118.51 460.87 112.56 464.49 102.53 486.74 123.08" style="fill:#96647c;fill-rule:evenodd"/><polygon points="500.26 114.62 523.63 118.77 520.62 110.61 500.02 105.78 500.26 114.62" style="fill:#594265;fill-rule:evenodd"/><polygon points="517.36 175.48 481.95 194.55 484.83 198.01 514.73 199.34 537.63 185.46 517.36 175.48" style="fill:#96647c;fill-rule:evenodd"/><polygon points="537.63 185.46 514.73 199.34 525.3 210.88 533.58 209.49 542.78 205.48 537.63 185.46" style="fill:#734d61;fill-rule:evenodd"/><polygon points="481.95 214.81 484.83 198.01 472.95 187.37 448.99 176.74 455.85 211.45 469.56 220.2 481.95 214.81" style="fill:#96647c;fill-rule:evenodd"/><polygon points="484.83 198.01 448.99 176.74 517.36 175.48 484.83 198.01" style="fill:#543042;fill-rule:evenodd"/><polygon points="455.85 211.45 481.95 214.81 479.43 229.56 469.56 232.13 459.78 231.37 455.85 211.45" style="fill:#734d61;fill-rule:evenodd"/><polygon points="525.47 215.93 538.47 217.05 556.37 215.93 542.62 205.46 525.3 210.88 525.47 215.93" style="fill:#795d88;fill-rule:evenodd"/><rect x="525.47" y="215.92" width="30.9" height="4.28" style="fill:#594265"/><polygon points="479.43 229.56 485.2 242.15 471.55 243.46 457.9 242.15 459.78 231.37 479.43 229.56" style="fill:#9075a0;fill-rule:evenodd"/><rect x="457.91" y="242.15" width="27.3" height="4.28" style="fill:#594265"/><polygon points="500.84 148.82 504.68 167.38 465.72 167.62 469.14 153.86 476.82 132.3 486.74 123.08 495.34 132.3 500.84 148.82" style="fill:#734d61;fill-rule:evenodd"/><polygon points="474.17 111.47 447.52 120.49 441.64 109.15 466.63 101.82 474.17 111.47" style="fill:#594265;fill-rule:evenodd"/><polygon points="466.63 101.82 469.14 153.86 486.74 123.08 466.63 101.82" style="fill:#b3889d;fill-rule:evenodd"/><polygon points="486.74 123.08 500.84 148.82 500.08 107.9 486.74 123.08" style="fill:#b3889d;fill-rule:evenodd"/><polygon points="488.24 138.32 490.76 142.94 486.14 146.09 482.78 141.26 488.24 138.32" style="fill:#b3889d;fill-rule:evenodd"/><polygon points="488.03 152.6 483.41 155.54 486.98 160.16 490.97 157.22 488.03 152.6" style="fill:#b3889d;fill-rule:evenodd"/><polygon points="449.39 167.72 477.67 167.55 487.19 169.93 496.84 167.43 516.93 167.3 517.36 175.48 496.27 177.85 489.02 177.92 477.74 178.32 448.99 176.74 449.39 167.72" style="fill:#594265;fill-rule:evenodd"/><path d="M498.88,167.43l-19.17.12.06,10.78,18.49.35.62-11.25Zm-4.83,8H483.77l.21-4.2,10.28-.41Z" transform="translate(-2.03)" style="fill:#b3889d;fill-rule:evenodd"/><polygon points="448.81 81.32 454.95 77.64 468.03 82.74 463.02 91.12 445.98 97.84 448.81 81.32" style="fill:#594265;fill-rule:evenodd"/><polygon points="525.33 32.84 526.5 49.59 525.18 102.25 499.75 104.83 482.78 113.95 469.47 103.11 468.39 75.1 472.15 72.08 471.09 58.99 464.88 40.58 482.82 24.03 505.91 29.86 507 17.99 525.33 32.84" style="fill:#dfbda5;fill-rule:evenodd"/><polygon points="465.72 40.67 484.35 60.26 494.71 107.35 486.74 123.08 466.63 101.82 463.02 91.12 463.63 87.12 462.6 83.58 455.4 84.62 450.88 68.34 461.38 65.3 467.96 73.58 471.42 72.95 470.52 59.31 465.72 40.67" style="fill:#c2987a;fill-rule:evenodd"/><polygon points="521.57 56.57 484.35 60.26 496.44 67.33 505.95 82.28 521.57 56.57" style="fill:#c2987a;fill-rule:evenodd"/><polygon points="491.87 94.45 510.9 95.34 522.99 90.46 509.56 87.69 491.87 94.45" style="fill:#8b6651;fill-rule:evenodd"/><polygon points="491.87 94.45 505.95 82.28 513.53 81.59 522.99 90.46 491.87 94.45" style="fill:#795d88;fill-rule:evenodd"/><polygon points="504.75 58.24 505.95 82.28 513.53 81.59 510.71 57.65 504.75 58.24" style="fill:#e9cbb7;fill-rule:evenodd"/><polygon points="484.35 60.26 521.57 56.57 521.39 51.66 486.05 57.26 484.35 60.26" style="fill:#795d88;fill-rule:evenodd"/><polygon points="513.52 81.56 509.88 84.94 505.95 82.28 513.52 81.56" style="fill:#594265;fill-rule:evenodd"/><polygon points="454.7 70.97 460.05 69.61 464.32 79.72 454.7 70.97" style="fill:#8b6651;fill-rule:evenodd"/><polygon points="503.41 104.46 481.84 106.63 486.74 123.08 503.41 104.46" style="fill:#8b6651;fill-rule:evenodd"/><polygon points="462.6 83.58 467.36 82.93 463.02 91.12 462.6 83.58" style="fill:#8b6651;fill-rule:evenodd"/><polygon points="524.08 33.04 526.3 25.12 533.43 16.82 526.5 49.59 524.08 33.04" style="fill:#9075a0;fill-rule:evenodd"/><polygon points="465.72 40.67 451.42 36.96 429.68 36.5 441.85 65.01 459.58 62.64 473.56 58.45 465.72 40.67" style="fill:#9075a0;fill-rule:evenodd"/><polygon points="524.08 33.04 508.19 21.91 499.25 17.28 488.93 8.42 533.43 16.82 524.08 33.04" style="fill:#795d88;fill-rule:evenodd"/><polygon points="465.72 40.67 484.94 26.87 469.64 19.92 451.8 18.22 429.68 36.5 465.72 40.67" style="fill:#795d88;fill-rule:evenodd"/><polygon points="488.93 8.42 462.16 3.37 451.8 18.22 484.94 26.87 508.38 32.76 508.19 21.91 488.93 8.42" style="fill:#9075a0;fill-rule:evenodd"/><polygon points="473.56 58.45 441.85 65.01 448.81 81.32 455.4 84.62 451.76 68.83 461.77 66.68 467.27 76.4 472.98 73.82 473.56 58.45" style="fill:#795d88;fill-rule:evenodd"/><path d="M522.18,65.39a2.89,2.89,0,1,1-3.56-2A2.87,2.87,0,0,1,522.18,65.39Z" transform="translate(-2.03)" style="fill:#2b2b2b;fill-rule:evenodd"/><path d="M501.56,67.2a2.88,2.88,0,1,1-3.57-2A2.89,2.89,0,0,1,501.56,67.2Z" transform="translate(-2.03)" style="fill:#2b2b2b;fill-rule:evenodd"/><polygon points="425.59 151.84 451.01 147.62 452.47 162.47 444.39 176.27 425.59 151.84" style="fill:#543042;fill-rule:evenodd"/><polygon points="459.38 171.28 465.72 167.62 470.97 177.95 462.72 186.01 450.17 182.7 459.38 171.28" style="fill:#c2987a;fill-rule:evenodd"/><polygon points="452.47 162.47 465.72 167.62 450.17 182.7 444.39 176.27 452.47 162.47" style="fill:#dfbda5;fill-rule:evenodd"/><polygon points="563.38 133.42 570.48 128.36 572.97 148.84 562.38 150.5 563.38 133.42" style="fill:#dfbda5"/><polygon points="384.34 226.46 378.35 219.68 372.05 228.7 374.22 231.51 384.34 226.46" style="fill:#c2987a;fill-rule:evenodd"/><polygon points="387.3 230.94 397.22 233.19 392.31 244.39 379.15 243.94 378.8 232.2 387.3 230.94" style="fill:#c2987a;fill-rule:evenodd"/><polygon points="375.91 202 363.8 189.17 364.75 161.92 379.58 153.27 397.56 191.15 375.91 202" style="fill:#734d61;fill-rule:evenodd"/><polygon points="293.86 156.58 279.8 167.51 289.63 201.78 302.38 212.9 312.4 180.61 309.35 152.24 293.86 156.58" style="fill:#734d61;fill-rule:evenodd"/><polygon points="333.34 167.55 320.8 149.47 306.25 154.11 302.38 212.9 338.25 216.99 371.64 213.34 367.56 162.87 359.87 156.77 356.16 146.48 333.34 167.55" style="fill:#96647c;fill-rule:evenodd"/><polygon points="319.42 160.94 294.39 162.27 293.86 156.58 319.65 151.99 319.42 160.94" style="fill:#594265;fill-rule:evenodd"/><polygon points="301.66 226.46 338.25 240.85 338.25 261.62 329.21 266.06 316.47 255.38 301.66 226.46" style="fill:#734d61;fill-rule:evenodd"/><polygon points="316.47 255.38 338.25 261.62 340.84 276.75 332.81 276.75 325.74 273.48 316.47 255.38" style="fill:#593e35;fill-rule:evenodd"/><polygon points="338.25 261.62 335.29 244.39 347.48 233.48 372.05 222.58 365.02 258.18 350.96 267.15 338.25 261.62" style="fill:#96647c;fill-rule:evenodd"/><polygon points="301.66 226.46 335.29 244.39 372.05 222.58 332.81 222.56 301.66 226.46" style="fill:#543042;fill-rule:evenodd"/><polygon points="365.02 258.18 338.25 261.62 340.84 276.75 350.96 279.38 360.98 278.6 365.02 258.18" style="fill:#734d61;fill-rule:evenodd"/><polygon points="341.43 285.27 328.65 286.42 310.3 285.27 325.74 273.48 340.84 276.75 341.43 285.27" style="fill:#795d88;fill-rule:evenodd"/><rect x="312.34" y="285.27" width="31.13" height="4.39" transform="translate(653.77 574.93) rotate(180)" style="fill:#594265"/><polygon points="340.84 276.75 334.91 289.66 348.91 291 362.91 289.66 360.98 278.6 340.84 276.75" style="fill:#9075a0;fill-rule:evenodd"/><rect x="336.95" y="289.66" width="27.99" height="4.39" transform="translate(699.85 583.71) rotate(180)" style="fill:#594265"/><polygon points="318.88 193.95 314.94 212.98 354.89 213.23 351.38 199.12 343.51 177.01 333.34 167.55 324.52 177.01 318.88 193.95" style="fill:#734d61;fill-rule:evenodd"/><polygon points="346.23 155.65 373.56 164.9 379.58 153.27 353.96 145.75 346.23 155.65" style="fill:#594265;fill-rule:evenodd"/><polygon points="353.96 145.75 351.38 199.12 333.34 167.55 353.96 145.75" style="fill:#b3889d;fill-rule:evenodd"/><polygon points="333.34 167.55 318.88 193.95 319.65 151.99 333.34 167.55" style="fill:#b3889d;fill-rule:evenodd"/><polygon points="331.8 183.19 329.21 187.92 333.95 191.15 337.39 186.2 331.8 183.19" style="fill:#b3889d;fill-rule:evenodd"/><polygon points="332.01 197.82 336.75 200.84 333.09 205.57 329 202.56 332.01 197.82" style="fill:#b3889d;fill-rule:evenodd"/><polygon points="371.64 213.34 342.63 213.15 332.87 215.6 322.98 213.03 302.38 212.9 301.66 226.46 323.65 225.25 331 223.79 342.56 224.21 372.05 222.58 371.64 213.34" style="fill:#594265;fill-rule:evenodd"/><path d="M325,213l.67,12.22,18.92-1,.07-11.06L325,213Zm4.73,3.53,10.55.43.21,4.3H330Z" transform="translate(-2.03)" style="fill:#b3889d;fill-rule:evenodd"/><polygon points="333.34 167.55 305.5 154.34 319.65 151.99 333.34 167.55" style="fill:#010101;fill-rule:evenodd;opacity:0.1"/><polygon points="363.31 114.51 356.22 112.6 344.75 121.3 352.04 128.16 370.74 130.01 363.31 114.51" style="fill:#594265;fill-rule:evenodd"/><polygon points="274.23 88.16 277.77 105.01 293.86 156.58 319.65 151.99 333.34 167.55 349.04 141.79 342.25 113.86 337.69 111.95 335.07 98.73 336.03 78.83 313.69 67.53 292.55 79.77 288.15 68.36 274.23 88.16" style="fill:#dfbda5;fill-rule:evenodd"/><polygon points="335.22 79.15 322.35 103.7 325.34 153.06 333.34 167.55 353.96 145.75 352.04 128.16 350.32 124.39 350.33 120.61 357.74 119.61 357.62 102.28 346.41 102.24 342.25 112.24 338.66 112.59 335.72 98.89 335.22 79.15" style="fill:#c2987a;fill-rule:evenodd"/><polygon points="284.6 110.5 322.35 103.7 312.4 114.07 307.22 131.48 284.6 110.5" style="fill:#c2987a;fill-rule:evenodd"/><polygon points="324.52 139.54 305.99 145.75 292.71 144.33 305.18 137.83 324.52 139.54" style="fill:#8b6651;fill-rule:evenodd"/><polygon points="324.52 139.54 307.22 131.48 299.55 132.93 292.71 144.33 324.52 139.54" style="fill:#795d88;fill-rule:evenodd"/><polygon points="301.66 107.43 307.22 131.48 299.55 132.93 295.61 108.52 301.66 107.43" style="fill:#e9cbb7;fill-rule:evenodd"/><polygon points="322.35 103.7 284.6 110.5 283.39 105.62 319.83 101.22 322.35 103.7" style="fill:#795d88;fill-rule:evenodd"/><polygon points="299.54 132.9 304.09 135.21 307.22 131.48 299.54 132.9" style="fill:#594265;fill-rule:evenodd"/><polygon points="354.59 105.95 348.94 106.11 347.56 117.28 354.59 105.95" style="fill:#8b6651;fill-rule:evenodd"/><polygon points="319.65 151.99 337.82 148.74 333.34 167.55 319.65 151.99" style="fill:#8b6651;fill-rule:evenodd"/><polygon points="350.33 120.61 345.46 121.3 352.04 128.16 350.33 120.61" style="fill:#8b6651;fill-rule:evenodd"/><polygon points="275.53 88 271.11 80.81 261.75 74.63 277.77 105.01 275.53 88" style="fill:#9075a0;fill-rule:evenodd"/><polygon points="335.22 79.15 348.3 71.48 369.61 64.94 365.6 96.47 347.44 99.11 332.48 98.89 335.22 79.15" style="fill:#9075a0;fill-rule:evenodd"/><polygon points="275.53 88 288.07 72.57 295.59 65.5 303.29 53.86 261.75 74.63 275.53 88" style="fill:#795d88;fill-rule:evenodd"/><polygon points="335.22 79.15 312.4 70.93 325.54 59.78 342.66 53.11 369.61 64.94 335.22 79.15" style="fill:#795d88;fill-rule:evenodd"/><polygon points="303.29 53.86 328.27 41.37 342.66 53.11 312.4 70.93 290.93 83.32 288.07 72.57 303.29 53.86" style="fill:#9075a0;fill-rule:evenodd"/><polygon points="332.48 98.89 365.6 96.47 363.31 114.51 357.74 119.61 356.89 103.02 346.41 103.7 343.72 114.83 337.37 113.89 332.48 98.89" style="fill:#795d88;fill-rule:evenodd"/><path d="M290.51,118.8a3,3,0,1,0,3-3A3,3,0,0,0,290.51,118.8Z" transform="translate(-2.03)" style="fill:#2b2b2b;fill-rule:evenodd"/><path d="M311.36,114.8a3,3,0,1,0,3-3A3,3,0,0,0,311.36,114.8Z" transform="translate(-2.03)" style="fill:#2b2b2b;fill-rule:evenodd"/><polygon points="387.3 212.9 393.21 219.68 397.22 233.19 378.8 232.2 378.35 219.68 387.3 212.9" style="fill:#dfbda5;fill-rule:evenodd"/><polygon points="397.56 191.15 373.19 199.12 378.35 219.68 393.21 219.68 397.56 191.15" style="fill:#543042;fill-rule:evenodd"/><polygon points="278.63 168 279.64 166.43 293.86 156.58 278.47 141.79 179.3 143.33 184.97 198.33 278.63 168" style="fill:#c4c4c4"/><polygon points="308.3 241.33 305.97 225 293.86 156.58 190.97 165.33 178.97 256.5 308.3 241.33" style="fill:#8f8f8f"/><polyline points="251.63 193.33 257.22 177 267.63 175 289.97 226.67 294.3 272.58 253.64 270.2 251.63 191.33" style="fill:#cfcfcd"/><polygon points="227.63 225 234.97 180 257.22 177 267.63 267 231.3 268.33 227.63 225" style="fill:#dddddc"/><polygon points="209.8 245 210.1 243.39 212.3 231.67 223.3 182 234.97 180 237.97 265.17 214.3 272.33 209.8 245" style="fill:#ececeb"/><polygon points="199.97 243 187.97 231.67 190.97 165.33 179.3 143.33 169.3 274 196.3 311.33 206.97 268 199.97 243" style="fill:#9ca0a1"/><polygon points="330.3 270.33 344.3 251 305.97 225 289.97 226.67 301.97 278.33 330.3 270.33" style="fill:#c4c4c4"/><polygon points="301.97 278.33 316.3 303.67 348.63 301.67 344.3 251 313.3 256.5 301.97 278.33" style="fill:#8f8f8f"/><polygon points="294.3 281.33 304.63 293.33 316.3 303.67 313.3 256.5 289.97 226.67 283.72 245 294.3 281.33" style="fill:#9ca0a1"/><polygon points="278.3 263.33 304.63 267.67 304.63 293.33 209.8 299.33 209.8 263.33 278.3 263.33" style="fill:#858686"/><polygon points="205.63 245 223.3 258.67 283.72 245 304.63 267.67 205.63 272.58 205.63 245" style="fill:#c4c4c4"/><polyline points="212.3 281.33 211.13 279.8 196.3 260.33 187.97 231.67 212.3 231.67 223.3 258.67" style="fill:#c4c4c4"/><polygon points="196.3 260.33 223.3 258.67 223.3 309.62 196.3 311.33 196.3 260.33" style="fill:#8f8f8f"/><polygon points="261.51 148.74 251.55 142.21 257.38 136.5 272.72 135.21 278.8 141.79 261.51 148.74" style="fill:#a77e62;fill-rule:evenodd"/><polygon points="251.55 142.21 257.91 151.99 271.26 152.08 278.47 141.79 251.55 142.21" style="fill:#c2987a;fill-rule:evenodd"/></svg>