<svg id="sentinels" xmlns="http://www.w3.org/2000/svg" xmlns:xlink="http://www.w3.org/1999/xlink" viewBox="0 0 600 450"><defs><style>.cls-1,.cls-36{fill:none;}.cls-10,.cls-11,.cls-12,.cls-13,.cls-14,.cls-15,.cls-2,.cls-25,.cls-26,.cls-27,.cls-28,.cls-29,.cls-3,.cls-30,.cls-31,.cls-32,.cls-34,.cls-37,.cls-4,.cls-42,.cls-43,.cls-45,.cls-47,.cls-5,.cls-6,.cls-8,.cls-9{fill-rule:evenodd;}.cls-2,.cls-7{opacity:0.1;}.cls-19,.cls-3{fill:#6f7173;}.cls-4{fill:#9da1a2;}.cls-21,.cls-5{fill:#4f5253;}.cls-20,.cls-6{fill:#c4c4c4;}.cls-8{fill:#50a9aa;}.cls-16,.cls-9{fill:#1c7678;}.cls-10{fill:#ececeb;}.cls-11,.cls-24{fill:#369496;}.cls-12{fill:#72cbcc;}.cls-13{fill:#cececd;}.cls-14{fill:#27788c;}.cls-15,.cls-44{fill:#73cfe5;}.cls-17,.cls-37{fill:#5ec0d9;}.cls-18{fill:#a3a3a3;}.cls-22,.cls-25{fill:#dfbda5;}.cls-23,.cls-26{fill:#c3987b;}.cls-27,.cls-35{fill:#8b6651;}.cls-28{fill:#165e60;}.cls-29{fill:#737373;}.cls-30{fill:#8ce0dc;}.cls-31{fill:#fff;}.cls-32{fill:#e8cab6;}.cls-33,.cls-42{fill:#2b2b2b;}.cls-34{fill:#474747;}.cls-36{stroke:#858686;stroke-miterlimit:10;stroke-width:1.07px;}.cls-38,.cls-45{fill:#3aa0ba;}.cls-39{clip-path:url(#clip-path);}.cls-40{opacity:0.2;}.cls-41{clip-path:url(#clip-path-2);}.cls-43{fill:#858686;}.cls-46{fill:#318fa6;}.cls-47{fill:#dddddc;}</style><clipPath id="clip-path"><rect class="cls-1" x="511.73" y="145.32" width="57.95" height="59.03"/></clipPath><clipPath id="clip-path-2"><rect class="cls-1" x="536.15" y="181.68" width="9.54" height="12.37"/></clipPath></defs><g id="BG"><polygon class="cls-2" points="593.47 401.31 477.11 375.5 426.02 381.24 143.04 349.34 0.26 397.28 141.72 437 356.96 409.66 481.12 425.13 593.47 401.31"/><polygon class="cls-3" points="265.78 314.73 262.34 379.89 246.32 386.62 243.35 315.12 265.78 314.73"/><polygon class="cls-3" points="179.25 332.77 181.65 416.46 200.85 407.2 194.34 332.77 179.25 332.77"/><polygon class="cls-4" points="181.65 335.97 181.65 416.46 160.36 414 168.3 334.55 175.1 332.77 181.65 335.97"/><polygon class="cls-3" points="34.69 400.59 41.31 395.44 53.32 321.89 33.09 312.83 34.69 400.59"/><polygon class="cls-4" points="11.3 317.77 19.1 398.03 34.69 400.59 37.88 320.24 27.58 310.96 11.3 317.77"/><polygon class="cls-5" points="119.89 323.23 119.89 375.1 137.04 376.84 139.37 321.25 119.89 323.23"/><polygon class="cls-3" points="137.04 376.84 149.86 370.69 147.16 326.43 137.04 322.94 137.04 376.84"/><polygon class="cls-4" points="181.65 315.12 184.35 325.24 181.65 335.97 11.3 317.77 8.3 284.21 181.65 315.12"/><polygon class="cls-3" points="265.78 285.94 265.78 314.73 181.65 335.97 181.65 315.12 265.78 285.94"/><polygon class="cls-2" points="231.38 282.05 190.05 288.31 223.76 300.52 265.78 285.94 231.38 282.05"/><polygon class="cls-6" points="265.78 285.94 181.65 321.25 8.3 284.21 89.28 265.95 265.78 285.94"/><polygon class="cls-7" points="83.03 294.74 134.23 306.54 164.09 292.85 83.03 294.74"/><polygon class="cls-8" points="465.11 17.52 436.95 414.73 457.59 417.18 476.46 199.88 486.71 18.75 465.11 17.52"/><polygon class="cls-9" points="486.71 18.75 497.77 23.66 470.74 412.27 457.59 417.18 486.71 18.75"/><polygon class="cls-8" points="441.42 92.24 368.76 399.89 387.76 404.75 430.95 236.94 462.66 96.27 441.42 92.24"/><polygon class="cls-9" points="461.51 96.27 471.9 101.7 401.34 402.76 387.76 404.75 461.51 96.27"/><polygon class="cls-8" points="502.31 132.51 558.9 402.39 538.56 406.23 504.15 258.94 480.92 135.61 502.31 132.51"/><polygon class="cls-9" points="480.92 135.61 470.28 140.13 525.12 404.22 538.56 406.23 480.92 135.61"/><polygon class="cls-6" points="587.99 72.92 597.39 74.15 583.2 298.47 574.71 301.3 578.03 177.52 587.99 72.92"/><polygon class="cls-9" points="589.1 57.56 598.5 61.25 597.39 74.15 587.99 72.92 586.05 65.86 589.1 57.56"/><polygon class="cls-10" points="339.37 60.02 464.23 60.7 587.93 73.71 574.71 301.3 328.03 282.38 339.37 60.02"/><polygon class="cls-11" points="339.37 60.02 339.9 46.39 589.1 57.56 587.99 72.92 339.37 60.02"/><polygon class="cls-12" points="499.32 61.74 498.3 80.17 446.09 77.51 446.91 59.49 499.32 61.74"/><polygon class="cls-13" points="163.25 226.69 173 221.97 173 237.87 163.08 246.69 163.25 226.69"/><polygon class="cls-14" points="49.75 266.66 143.32 270.29 140.39 294.02 49.75 284.08 49.75 266.66"/><polygon class="cls-13" points="140.39 273.83 154.61 266.53 173.53 262.33 173.53 280.1 140.39 294.02 140.39 273.83"/><polygon class="cls-15" points="49.75 266.66 86.3 255.28 173.53 262.33 140.39 273.83 49.75 266.66"/><polygon class="cls-16" points="119.39 269.45 120.86 260.26 119.39 251.74 38.5 249.05 38.5 263.63 119.39 269.45"/><polygon class="cls-13" points="119.39 251.74 152.53 244.92 152.53 259.08 119.39 269.45 119.39 251.74"/><polygon class="cls-12" points="152.53 244.92 78.94 240.78 38.5 249.05 119.39 254.1 152.53 244.92"/><polygon class="cls-14" points="165.2 226.69 74.56 229.56 74.56 246.1 163.08 246.69 165.2 226.69"/><polygon class="cls-15" points="173 221.97 88.69 220.93 74.56 229.56 163.25 229.05 173 221.97"/><polygon class="cls-16" points="152.53 210.08 64.81 207.72 66.76 226.05 152.53 226.05 152.53 210.08"/><polygon class="cls-13" points="66.76 207.72 57.68 200.43 57.68 215.03 66.76 226.05 66.76 207.72"/><polygon class="cls-12" points="57.68 200.43 138.89 200.43 152.53 210.08 66.76 210.08 57.68 200.43"/><polygon class="cls-10" points="135 251.82 130.78 221.33 118.82 221.71 117.28 251.15 95.28 288.18 103.06 297.81 127.54 297.05 152.02 296.28 159.09 286.18 135 251.82"/><polygon class="cls-17" points="154.76 286.18 141.74 267.6 110.82 269.01 99.59 287.9 104.83 294.39 150.01 292.97 154.76 286.18"/><polygon class="cls-18" points="92.31 122.05 83.34 118.34 48.75 170.08 69.44 160.47 92.31 122.05"/><polygon class="cls-18" points="73.57 98.15 90.98 94.38 92.05 116.55 83.34 118.34 73.57 98.15"/><polygon class="cls-18" points="87.55 146.03 96.49 161.62 103.04 159.75 98.3 141.21 87.55 146.03"/><polygon class="cls-19" points="74.23 111.89 85.67 150.94 105.42 146.21 96.68 107.37 74.23 111.89"/><polygon class="cls-18" points="91.89 172 98.32 199.58 107.16 199.16 98.18 167.81 91.89 172"/><polygon class="cls-20" points="86.09 175.72 83.11 171.73 117.99 162.65 118.27 168.4 86.09 175.72"/><polygon class="cls-20" points="48.75 170.08 69.44 160.47 100.1 200.32 91.46 204.88 48.75 170.08"/><polygon class="cls-21" points="48.67 206.96 55.28 195.45 120.34 195.77 128.46 205.37 48.67 206.96"/><polygon class="cls-18" points="115.88 189 120.34 195.77 55.28 195.45 57.96 189.87 115.88 189"/></g><g id="h"><polygon class="cls-22" points="354.24 160.23 357.43 156.04 374.19 138.78 349.6 126.07 344.23 153.62 345.61 149.24 354.24 160.23"/><polygon class="cls-23" points="344.92 147.73 339.56 124.82 343.74 122.28 355.11 140.74 347.65 152.64 344.92 147.73"/><polygon class="cls-23" points="374.19 138.78 375.43 121.15 357.98 115.01 349.6 126.07 374.19 138.78"/><path class="cls-23" d="M358.09,155.72l-5.55,44L324.76,214.9l-17.5-19.66,22.49-14.85L345,148.12Z"/><polygon class="cls-24" points="299.76 235.73 333.01 216.32 326.85 181.9 301.58 195.37 299.76 235.73"/></g><g id="f"><polygon class="cls-9" points="245.39 403.55 245.73 403.7 260.23 409.08 271.72 418.77 235.34 418.74 235.14 399.8 245.39 403.55"/><polygon class="cls-9" points="291.93 402.16 305.41 405.81 314.91 412.81 276.2 413.2 275.93 394.64 291.93 402.16"/><polygon class="cls-25" points="243.62 389 235.14 399.8 240.12 409.83 260.23 409.08 252.66 399.46 243.62 389"/><polygon class="cls-25" points="289.04 387.71 293.69 394.03 305.41 405.81 286.31 406.17 275.93 394.64 289.04 387.71"/><polygon class="cls-26" points="229.18 353.36 228.94 364.06 235.14 399.8 252.66 399.46 255.14 372.8 229.18 353.36"/><polygon class="cls-27" points="257.5 356.45 255.14 372.8 228.9 363.11 257.5 356.45"/><polygon class="cls-26" points="284.39 356.35 300.33 361.69 293.69 394.03 275.93 394.64 272.88 369.06 284.39 356.35"/><polygon class="cls-27" points="287.97 348.56 300.33 361.69 272.88 369.06 271.37 351.24 287.97 348.56"/><path class="cls-28" d="M303.35,283.74l7.48,13.81-10.5,64.14-71.41,1.37-10.71-55.53S252,268.85,252,270.5,303.35,283.74,303.35,283.74Z"/><polygon class="cls-11" points="292.14 258.58 300.63 268.74 310.83 297.55 226.39 274.55 292.14 258.58"/><polygon class="cls-9" points="245.32 265.64 226.39 274.55 218.21 307.53 300.63 268.74 245.32 265.64"/></g><g id="hs"><polygon class="cls-5" points="226.35 162.07 185.59 195.03 217.53 203.87 236.84 200.44 226.35 162.07"/><path class="cls-29" d="M195.16,123.29l-11.52,10.2,23.62,44.33s38.84,22.47,38,21.14-11.42-75.67-11.42-75.67Z"/></g><g id="B"><polygon class="cls-30" points="292.6 196.34 276.87 265.01 231.65 201.82 264.68 189.73 283.62 197.31 292.6 196.34"/><polygon class="cls-3" points="281.3 233.2 273.19 263.18 249.32 240.53 257.15 204.6 263.55 197.2 265.34 203.64 281.3 233.2"/><polygon class="cls-5" points="259.57 191 269.31 193.49 265.34 203.64 257.15 204.6 249.18 195.55 259.57 191"/><polygon class="cls-28" points="290.51 235.33 270.29 253.68 245.45 213.59 238.53 196.23 214.72 201.27 226.39 274.55 271.89 271.58 290.51 235.33"/><polygon class="cls-9" points="283.62 197.31 301.58 195.37 300.63 268.74 271.89 271.58 270.29 253.68 281.1 208.75 283.62 197.31"/><polygon class="cls-10" points="269.09 186.68 274.61 193.37 301.58 195.37 281.1 208.75 259.31 191.4 245.45 213.59 214.72 201.27 234.95 195.68 269.09 186.68"/></g><g id="H-2" data-name="H"><polygon class="cls-5" points="298.4 79.53 308.03 78.8 324.6 95.69 300.06 128.36 298.4 79.53"/><path class="cls-26" d="M205.13,128.22l.69,1,19.74,29.32,3.55,2.7-1.31,6.17L235,195.68l23.58-1.33,15.7-42.28L248.88,79.45S205.47,128.73,205.13,128.22Z"/><polygon class="cls-27" points="241.85 180.47 281.43 177.23 278.51 193.82 258.53 194.35 241.85 180.47"/><path class="cls-3" d="M237.3,95.65l0,17.61,2.16,32.31s-16.5,2.77-15.49,2-16.15-14.84-16.15-14.84l25.93-40.4Z"/><polygon class="cls-25" points="244.57 104.85 254.26 179.48 315.3 174.41 307.66 73.86 244.57 104.85"/><polygon class="cls-26" points="295.88 103.3 303.33 105.36 289.97 133.36 282.66 140.34 271.58 121.42 254.81 109.99 262.05 106.32 273.29 108.09 281.43 115.88 283.63 120.81 286.4 115.66 288.86 107.25 295.88 103.3"/><polygon class="cls-31" points="290.36 151.4 301.73 149.41 288.07 165.29 268.68 152.63 290.36 151.4"/><polygon class="cls-27" points="288.97 136.16 292.18 139.37 287.81 144 282.66 140.34 288.97 136.16"/><polygon class="cls-5" points="310.76 91.07 181.1 119.73 191.43 74.73 241.76 53.4 320.43 64.4 310.76 91.07"/><polygon class="cls-5" points="228.43 108.73 228.36 117.56 219.1 138.75 228.94 152.47 225.56 158.57 183.64 133.49 181.1 119.73 228.43 108.73"/><polygon class="cls-25" points="234.99 137.04 219.1 138.75 225.56 158.57 237.17 156.99 234.99 137.04"/><polygon class="cls-27" points="226.88 142.09 231.6 141.75 232.34 148.12 226.88 142.09"/><polygon class="cls-5" points="303.33 105.36 296.29 99.97 288.86 107.25 303.33 105.36"/><polygon class="cls-5" points="272.29 108.09 262.5 102.75 255.81 109.99 272.29 108.09"/><polygon class="cls-32" points="285.76 110.07 292.18 139.37 282.66 140.34 280.01 110.57 285.76 110.07"/><polygon class="cls-11" points="301.73 149.41 287.1 148.7 268.68 152.63 287.52 153.56 301.73 149.41"/><polygon class="cls-12" points="287.9 161.95 301.73 149.41 288.24 168.3 268.68 152.63 287.9 161.95"/><polygon class="cls-27" points="227.8 167.44 237.17 156.99 225.56 158.57 227.8 167.44"/><path class="cls-33" d="M296.85,117.33a3.92,3.92,0,1,0-.45,7.81,3.89,3.89,0,0,0,3.28-1.84A3.94,3.94,0,0,0,296.85,117.33Z"/><path class="cls-33" d="M268.69,120.39a3.92,3.92,0,0,0-2.3,7.49,3.88,3.88,0,0,0,5-2.66A3.94,3.94,0,0,0,268.69,120.39Z"/><polygon class="cls-34" points="191.43 74.73 312.66 71.86 188.01 101.57 191.43 74.73"/><polygon class="cls-5" points="181.1 119.73 184.76 92.57 320.43 64.4 319.43 90.57 181.1 119.73"/><polygon class="cls-3" points="181.1 119.73 320.43 64.4 319.43 90.57 181.1 119.73"/></g><g id="h-3" data-name="h"><polygon class="cls-24" points="214.72 201.27 171 251.04 176.97 252.2 186.53 259.26 211.19 259.12 215.25 250.57 222.43 246.4 214.72 201.27"/><polygon class="cls-23" points="185.49 263.99 207.55 293.49 218.47 288.94 221.53 284.24 211.19 259.12 186.89 259.24 185.49 263.99"/><polygon class="cls-22" points="221.53 284.24 237.84 290.53 231.77 300.73 217.84 307.76 207.55 293.49 221.53 284.24"/><polygon class="cls-35" points="176.97 252.2 185.49 263.99 210.92 259.06 176.97 252.2"/><polygon class="cls-23" points="237.84 290.53 244.2 309.43 226.58 317.4 217.84 307.76 237.84 290.53"/></g><g id="bg-2" data-name="bg"><line class="cls-36" x1="497.34" y1="92.61" x2="575.78" y2="98.39"/><line class="cls-36" x1="496.96" y1="98.88" x2="550.5" y2="102.82"/><line class="cls-36" x1="496.59" y1="105.14" x2="562.58" y2="110.01"/><line class="cls-36" x1="496.21" y1="111.41" x2="539.79" y2="114.63"/><line class="cls-36" x1="495.84" y1="117.68" x2="528.21" y2="120.07"/><line class="cls-36" x1="495.46" y1="123.95" x2="549" y2="127.9"/><line class="cls-36" x1="495.09" y1="130.22" x2="523.73" y2="132.33"/><line class="cls-36" x1="341.22" y1="266.29" x2="469.22" y2="277.46"/><line class="cls-36" x1="341.66" y1="260.03" x2="425.87" y2="267.37"/><line class="cls-36" x1="342.1" y1="253.76" x2="385.89" y2="257.58"/><line class="cls-36" x1="342.55" y1="247.5" x2="433.49" y2="255.43"/><line class="cls-36" x1="342.99" y1="241.23" x2="406.99" y2="246.82"/><line class="cls-36" x1="343.43" y1="234.97" x2="451.22" y2="244.38"/><line class="cls-36" x1="343.88" y1="228.71" x2="387.66" y2="232.53"/><line class="cls-36" x1="344.32" y1="222.44" x2="404.95" y2="227.73"/></g><g id="bg-3" data-name="bg"><polygon class="cls-37" points="531.73 283.1 515.13 281.64 519.31 223.18 535.9 224.64 531.73 283.1"/><polygon class="cls-12" points="506.84 280.91 490.25 279.45 495.08 211.69 511.68 213.15 506.84 280.91"/><polygon class="cls-14" points="556.62 285.3 540.03 283.84 542.87 243.97 559.46 245.44 556.62 285.3"/></g><g id="bg-4" data-name="bg"><polygon class="cls-14" points="518.67 154.21 519.59 159.63 524.17 164.88 525 160.09 518.67 154.21"/><polygon class="cls-14" points="525.2 170.05 513.38 172.96 516.71 177.38 527.04 175.92 527.23 174.18 525.2 170.05"/><polygon class="cls-14" points="533.48 171.95 533.67 162.84 530.55 155.8 528.46 167.97 530.92 170.36 533.48 171.95"/><polygon class="cls-15" points="551.46 192.11 529.32 167.29 527.23 168.5 525.48 170.88 546.01 198.13 551.46 192.11"/><polygon class="cls-8" points="546 203.17 527.04 175.92 525.48 170.88 546.11 197.35 546.83 199.98 546 203.17"/><polygon class="cls-14" points="551.46 192.11 551.83 197.33 546 203.17 546.11 197.35 551.46 192.11"/><polygon class="cls-38" points="524.13 160.77 518.4 165.82 511.73 160.12 513.38 172.96 525.48 170.88 529.32 167.29 530.55 155.8 518.67 154.21 524.13 160.77"/><polygon class="cls-12" points="520.19 167.82 525.73 162.93 527.45 164.92 521.88 169.8 520.19 167.82"/><polygon class="cls-9" points="521.92 166.29 521.1 167.01 521.88 169.8 522.67 169.11 521.92 166.29"/><polygon class="cls-9" points="523.58 168.31 524.65 167.37 523.69 164.73 522.93 165.4 523.58 168.31"/><polygon class="cls-9" points="525.47 166.66 526.46 165.79 525.73 162.93 524.84 163.72 525.47 166.66"/><g class="cls-39"><g class="cls-40"><g class="cls-41"><polygon class="cls-42" points="545.69 185.65 540.2 189.77 539.65 194.05 536.15 189.02 536.93 185.57 542.15 181.68 545.69 185.65"/></g></g></g><polygon class="cls-9" points="551.88 155.09 551.61 152.53 548.39 149.56 543.2 149.08 543.02 151.09 546.06 153.28 545.13 163.6 549.48 159.56 551.88 155.09"/><polygon class="cls-8" points="551.88 155.09 548.39 149.56 554.49 151.02 558.97 156.65 555.53 157.4 551.88 155.09"/><polygon class="cls-6" points="523.55 190.6 549.45 168.32 550.45 171.08 537.64 184.78 523.71 197.09 523.55 190.6"/><polygon class="cls-43" points="523.71 197.09 550.45 171.08 552.53 172.8 529.7 198.41 523.71 197.09"/><polygon class="cls-44" points="557.14 172.84 569.68 173.74 563.85 157.73 551.88 155.09 557.14 172.84"/><polygon class="cls-45" points="551.88 155.09 557.61 171.75 554.89 174.99 549.65 180.02 545.13 163.6 551.88 155.09"/><polygon class="cls-46" points="549.65 180.02 563.91 181.34 569.68 173.74 557.61 171.75 549.65 180.02"/><polygon class="cls-12" points="558.81 175.03 563.76 175.49 564.78 178 557.79 178.11 558.81 175.03"/><polygon class="cls-8" points="558.81 175.03 556.19 177.83 559.34 177.49 558.81 175.03"/><polygon class="cls-12" points="567.06 177.19 555.71 176.26 557.58 181.26 563.75 183.23 569.04 181.82 567.06 177.19"/><polygon class="cls-8" points="555.71 176.26 558.29 180.82 557.19 184.86 553.82 190.43 551.16 183.97 555.71 176.26"/><polygon class="cls-28" points="558.29 180.82 569.04 181.82 564.24 189.5 553.82 190.43 558.29 180.82"/><rect class="cls-1" x="511.73" y="145.32" width="57.95" height="59.03"/></g><g id="bg-5" data-name="bg"><polygon class="cls-11" points="409.85 157.59 433.58 143.51 457.31 137.97 464.63 172.72 440.04 169.5 409.85 157.59"/><polygon class="cls-45" points="457.31 137.97 437.24 116.44 419.44 136.56 409.85 157.59 457.31 137.97"/><polygon class="cls-14" points="437.24 116.44 401.63 114.74 401.63 140.32 409.85 157.59 437.24 116.44"/><polygon class="cls-15" points="401.63 114.74 368.44 151.63 389.14 157.59 409.85 157.59 401.63 114.74"/><polygon class="cls-28" points="368.44 151.63 375.34 179.22 393.89 171.55 409.85 157.59 368.44 151.63"/><polygon class="cls-12" points="375.34 179.22 390.65 199.2 401.63 182.55 409.85 157.59 375.34 179.22"/><polygon class="cls-11" points="409.85 157.59 390.65 199.2 429.47 206 422.68 181.79 409.85 157.59"/><polygon class="cls-30" points="429.47 206 464.63 172.72 409.85 157.59 429.47 206"/><path class="cls-47" d="M487,118.31a10.77,10.77,0,1,0-10.77,10.77A10.77,10.77,0,0,0,487,118.31Z"/><polygon class="cls-25" points="471.24 113.93 478.56 109.17 480.87 120.65 473.55 120.65 471.24 113.93"/><polygon class="cls-12" points="473.55 120.65 480.87 120.65 477.78 127.45 473.55 124.65 473.55 120.65"/><path class="cls-47" d="M455.12,99.11a10.77,10.77,0,1,0-10.77,10.77A10.77,10.77,0,0,0,455.12,99.11Z"/><polygon class="cls-25" points="439.32 94.73 446.64 89.97 448.95 101.44 441.63 101.44 439.32 94.73"/><polygon class="cls-15" points="441.63 101.44 448.95 101.44 445.86 108.25 441.63 105.45 441.63 101.44"/><path class="cls-47" d="M396.88,100.67a10.77,10.77,0,1,0-10.77,10.77A10.77,10.77,0,0,0,396.88,100.67Z"/><polygon class="cls-25" points="381.08 96.29 388.4 91.53 390.71 103.01 383.39 103.01 381.08 96.29"/><polygon class="cls-30" points="383.39 103.01 390.71 103.01 387.63 109.81 383.39 107.01 383.39 103.01"/><path class="cls-47" d="M473.59,210.68a10.77,10.77,0,1,0-10.77,10.77A10.77,10.77,0,0,0,473.59,210.68Z"/><polygon class="cls-25" points="457.8 206.3 465.12 201.54 467.43 213.02 460.11 213.02 457.8 206.3"/><polygon class="cls-30" points="460.11 213.02 467.43 213.02 464.34 219.82 460.11 217.02 460.11 213.02"/></g><g id="bg-6" data-name="bg"><polygon class="cls-30" points="113.8 287.81 110.95 291.16 107.34 288.5 110.2 285.15 113.8 287.81"/><polygon class="cls-30" points="111.92 281.24 110.69 282.68 109.14 281.54 110.37 280.1 111.92 281.24"/><polygon class="cls-30" points="118.03 287.7 116.8 289.14 115.25 288 116.48 286.55 118.03 287.7"/><polygon class="cls-30" points="119.39 282.44 118.16 283.88 116.6 282.74 117.83 281.29 119.39 282.44"/></g></svg>