<svg xmlns="http://www.w3.org/2000/svg" viewBox="0 0 58 59.2"><polygon points="33.05 0 34.73 1.5 33.29 7.38 29.64 5.6 33.05 0" style="fill:#5a753d"/><polygon points="27.76 6.77 25.17 1.81 33.05 0 31.23 4.89 29.04 7.38 27.76 6.77" style="fill:#709d52"/><polygon points="11.51 52.02 33.64 44.74 47.14 51.83 32.12 58.52 11.51 52.02" style="fill:#84c8ab"/><polygon points="11.51 52.02 32.12 56.05 34.28 57.63 32.74 59.2 9.73 56.41 11.51 52.02" style="fill:#309b6e"/><polygon points="32.12 56.05 47.14 51.83 49.15 56.41 32.74 59.2 32.12 56.05" style="fill:#28835c"/><polygon points="18.08 47.39 31.23 43.22 39.99 48.08 30.02 51.44 18.08 47.39" style="fill:#84c8ab"/><polygon points="15.95 50.56 29.64 53.9 31.23 51.61 30.15 50.56 18.08 47.39 15.95 50.56" style="fill:#309b6e"/><polygon points="30.15 50.56 39.99 48.08 41.16 51.44 29.64 53.9 30.15 50.56" style="fill:#28835c"/><polygon points="32.12 11.18 34.83 45.36 28.42 47.33 27.15 26.12 29.83 10.56 32.12 11.18" style="fill:#5a753d"/><polygon points="29.83 10.56 27.61 10.64 24.46 45.36 28.42 47.33 29.83 10.56" style="fill:#709d52"/><polygon points="8.81 8.59 29.64 6.74 49.86 12.27 49.86 13.26 9.64 9.96 8.81 8.59" style="fill:#28835c"/><polygon points="8.81 8.59 10.44 7.38 31.23 4.89 31.9 6.74 29.04 8.32 8.81 8.59" style="fill:#84c8ab"/><polygon points="31.23 4.89 49.15 10.56 49.86 12.27 29.04 8.32 31.23 4.89" style="fill:#309b6e"/><polygon points="10.44 7.38 4.64 5.6 4.01 8.59 5.35 11.92 9.64 9.96 10.44 7.38" style="fill:#709d52"/><polygon points="4.64 5.6 1.41 8.59 5.35 11.92 4.64 5.6" style="fill:#99c26c"/><polygon points="49.15 10.56 49.86 13.26 53.21 15.04 55.08 11.3 54.12 8.17 49.15 10.56" style="fill:#99c26c"/><polygon points="53.21 15.04 58 11.92 54.12 8.17 53.21 15.04" style="fill:#709d52"/><polygon points="6.14 16.96 17.5 17.83 20.36 19.99 8.81 23.02 0 22.31 6.14 16.96" style="fill:#c0db8e"/><polygon points="0 22.31 3.38 39.15 18.08 40.53 20.36 19.99 0 22.31" style="fill:#99c26c"/><polygon points="40.63 21.07 44.57 18.39 55.08 20.6 57.36 24.99 48.52 24.99 40.63 21.07" style="fill:#c0db8e"/><polygon points="40.63 21.07 37.55 41.26 56.72 40.54 57.36 24.99 40.63 21.07" style="fill:#99c26c"/><polygon points="50.32 10 49.86 21.07 48.99 21.07 48.35 10.31 50.32 10" style="fill:#70bf9d"/><polygon points="9.32 7.03 9.99 18.76 10.96 18.91 11.15 7.29 9.32 7.03" style="fill:#70bf9d"/><polygon points="5.76 27.76 14.93 27.13 15.73 31.24 5.26 30.73 5.76 27.76" style="fill:#216a4b"/><polygon points="42.1 29.75 54.65 30.7 53.95 33.73 42.6 34.2 42.1 29.75" style="fill:#216a4b"/><polygon points="45.81 26.53 47.12 38.03 49.84 37.59 50.49 26.2 45.81 26.53" style="fill:#216a4b"/></svg>