<svg xmlns="http://www.w3.org/2000/svg" xmlns:xlink="http://www.w3.org/1999/xlink" viewBox="0 0 129.98 164.21"><defs><clipPath id="a" transform="translate(-9.6)"><polygon points="143.98 139.98 123.17 150 90.12 144.01 34.6 149.42 9.6 139.98 4 139.98 4 0 143.98 0 143.98 139.98" style="fill:none"/></clipPath></defs><g style="clip-path:url(#a)"><polygon points="115.19 48.48 101.75 68.43 99.99 43.89 115.19 48.48" style="fill:#27788b;fill-rule:evenodd"/><polygon points="42.98 113.71 37.34 106.57 26.91 90.15 10.04 64.75 38.24 30.32 55.95 120.11 42.98 113.71" style="fill:#c2977b;fill-rule:evenodd"/><polygon points="98.93 14.19 69.39 22.32 38.24 30.32 45.45 102.98 104 96.47 98.93 14.19" style="fill:#debca4;fill-rule:evenodd"/><polygon points="52.85 50.22 62.31 55.9 71.74 68.78 75.42 65.95 81.74 68.02 85.04 54.18 94.05 45.99 77.69 48.94 71.99 49.24 52.85 50.22" style="fill:#c2977b;fill-rule:evenodd"/><polygon points="71.99 49.24 71.74 68.78 81.74 68.02 77.69 48.94 71.99 49.24" style="fill:#e7c9b5;fill-rule:evenodd"/><polygon points="98.93 14.19 57.6 0 38.24 30.32 71.19 27.48 98.93 14.19" style="fill:#318ea5;fill-rule:evenodd"/><polygon points="57.6 0 13.51 18.42 29.39 33.3 38.24 30.32 38.24 30.32 57.6 0" style="fill:#3a9fb9;fill-rule:evenodd"/><polygon points="38.24 30.32 13.51 18.42 3.73 50.79 10.04 64.75 22.27 56.22 29.85 61.55 38.24 30.32" style="fill:#27788b;fill-rule:evenodd"/><polygon points="20.02 80.05 29.27 76.48 26.91 90.15 20.02 80.05" style="fill:#8a6651;fill-rule:evenodd"/><polygon points="52.85 50.22 67.61 45.61 71.99 49.24 52.85 50.22" style="fill:#27788b;fill-rule:evenodd"/><polygon points="79.83 44.4 77.69 48.94 94.05 45.99 79.83 44.4" style="fill:#27788b;fill-rule:evenodd"/><polygon points="71.74 68.78 77.62 72.19 81.74 68.02 71.74 68.78" style="fill:#8a6651;fill-rule:evenodd"/><path d="M66.42,56.53a3.77,3.77,0,1,0,4.35-3.07A3.77,3.77,0,0,0,66.42,56.53Z" transform="translate(-9.6)" style="fill:#474747;fill-rule:evenodd"/><path d="M93.36,54.67A3.77,3.77,0,1,1,96.44,59,3.76,3.76,0,0,1,93.36,54.67Z" transform="translate(-9.6)" style="fill:#474747;fill-rule:evenodd"/><polygon points="15.11 66.09 23 63.1 25.61 73.25 15.11 66.09" style="fill:#8a6651;fill-rule:evenodd"/><polygon points="45.45 102.98 71.49 100.05 55.72 120.13 45.45 102.98" style="fill:#8a6651;fill-rule:evenodd"/><polygon points="47.66 29.38 115.19 48.48 98.93 14.19 47.66 29.38" style="fill:#3a9fb9;fill-rule:evenodd"/><polygon points="10.04 64.75 12.6 80.65 26.91 90.15 20.27 79.96 10.04 64.75" style="fill:#318ea5;fill-rule:evenodd"/><polygon points="63.18 110.67 80.97 117.44 80.38 152.3 21.07 143.77 13.52 117.92 37.34 106.57 50.26 126.39 63.18 110.67" style="fill:#369395"/><polygon points="50.26 126.39 68.62 135.54 63.18 110.67 50.26 126.39" style="fill:#ebebea"/><polygon points="0 139.98 25 149.42 33.31 145.72 29.31 140.04 13.52 117.92 0 139.98" style="fill:#165e60"/><polygon points="37.34 106.57 33.3 132.9 44.98 113.71 37.34 106.57" style="fill:#ebebea"/><polygon points="80.97 117.44 104.79 138.28 93.91 161.72 80.38 152.3 80.97 117.44" style="fill:#165e60;fill-rule:evenodd"/><polygon points="111.18 112.48 119.31 115.99 120.73 123.75 115.76 124.73 115.76 124.73 115.25 129.48 105.31 125.19 99.25 106.62 111.18 112.48" style="fill:#8a6651"/><polygon points="93.91 161.72 105.31 125.19 124.14 133.32 124.14 133.32 128.24 153.61 93.91 161.72" style="fill:#1c7678;fill-rule:evenodd"/><polyline points="105.31 125.19 124.14 133.32 127.41 149.89" style="fill:#2b2b2b;fill-rule:evenodd;opacity:0.2"/><circle cx="109.06" cy="71.62" r="18.04" style="fill:#ebebea;opacity:0.2"/><polygon points="124.14 133.32 115.54 137.55 112.61 121.33 107.37 92.25 106.79 88.17 115.1 87.08 121.21 117.99 122.41 121.86 122.37 124.13 124.14 133.32" style="fill:#4f5253"/><polygon points="122.37 124.13 125.86 115.61 112.84 112.51 112.61 121.33 121.21 117.99 122.37 124.13" style="fill:#c2977b"/><polygon points="112.61 121.33 99.25 106.62 107.35 92.26 113.87 106.21 114.47 114.19 112.61 121.33" style="fill:#debca4"/><polygon points="98.36 59.74 120.84 82.94 124.41 80.61 99.22 55.71 98.36 59.74" style="fill:#ebebea;opacity:0.6000000000000001"/><polygon points="96.81 61.85 119.54 84.71 117.8 85.95 95.93 63.85 96.81 61.85" style="fill:#ebebea;opacity:0.6000000000000001"/><polygon points="107.35 92.26 120.81 93.3 125.86 115.61 114.47 114.19 107.35 92.26" style="fill:#e7c9b5"/><path d="M120.11,51.75a19.79,19.79,0,1,0,19.47,20.1A19.79,19.79,0,0,0,120.11,51.75Zm-.57,35.62a15.83,15.83,0,1,1,16.08-15.58A15.84,15.84,0,0,1,119.54,87.37Z" transform="translate(-9.6)" style="fill:#474747"/><polygon points="50.79 164.21 56.33 123.25 51.98 115.17 44.98 113.71 20.65 153.69 50.79 164.21" style="fill:#1c7678;fill-rule:evenodd"/><polygon points="44.98 113.71 55.44 94.61 65.52 101.7 68.99 111.86 56.33 123.25 44.98 113.71" style="fill:#e7c9b5;fill-rule:evenodd"/><polygon points="55.44 94.61 71.11 93.23 77.36 100.37 67.6 101.83 55.44 94.61" style="fill:#c2977b;fill-rule:evenodd"/><polygon points="55.44 94.61 77.36 100.37 76.67 110.79 68.99 111.86 55.44 94.61" style="fill:#debca4;fill-rule:evenodd"/><polygon points="88.5 80.49 76.45 89.45 60.48 81.41 76.65 82.65 88.5 80.49" style="fill:#c2977b"/><polygon points="76.45 80.17 73.89 78.64 60.48 81.41 76.52 83.57 88.5 80.49 79.4 78.47 76.45 80.17" style="fill:#8a6651"/></g></svg>