<svg xmlns="http://www.w3.org/2000/svg" viewBox="0 0 40 40"><polygon points="26.42 35.21 17.79 33.07 16.59 30.88 21.11 19.91 38.8 21.84 40 24.03 37.36 37.82 31.21 36.16 30.42 40 26.42 35.21" style="fill:#709d53;fill-rule:evenodd"/><polygon points="25.21 33.02 16.59 30.88 19.91 17.72 38.8 21.84 36.16 35.63 30.01 33.97 29.22 37.81 25.21 33.02" style="fill:#a0cf7e;fill-rule:evenodd"/><polygon points="31.21 36.16 30.01 33.97 36.16 35.63 37.36 37.82 31.21 36.16" style="fill:#5a753d;fill-rule:evenodd"/><polygon points="30.42 40 29.22 37.81 25.21 33.02 26.42 35.21 30.42 40" style="fill:#5a753d;fill-rule:evenodd"/><polygon points="17.96 24.23 40 20.58 36.49 1.69 34.31 0 2.18 6.63 2.91 23.93 5.09 25.62 9.62 25.03 8.82 29.96 11 31.65 17.96 24.23" style="fill:#5a753d;fill-rule:evenodd"/><rect x="27.01" y="19.14" width="1.9" height="11.83" transform="translate(-3.2 45.99) rotate(-75.76)" style="fill:#ececeb"/><rect x="26.2" y="23.61" width="1.9" height="11.66" transform="translate(-8.2 48.27) rotate(-75.36)" style="fill:#ececeb"/><polygon points="15.78 22.54 37.82 18.89 34.31 0 0 4.93 2.91 23.93 7.44 23.34 8.82 29.96 15.78 22.54" style="fill:#709d53;fill-rule:evenodd"/><polygon points="40 20.58 37.82 18.89 15.78 22.54 17.96 24.23 40 20.58" style="fill:#446125;fill-rule:evenodd"/><rect x="8.93" y="9.73" width="1.9" height="7.67" transform="translate(-2.04 1.75) rotate(-9.18)" style="fill:#ececeb"/><rect x="6.21" y="12.61" width="7.36" height="1.9" transform="translate(-2.37 2.09) rotate(-10.81)" style="fill:#ececeb"/><rect x="16.51" y="8.08" width="13.23" height="1.9" transform="translate(-1.16 3.89) rotate(-9.38)" style="fill:#ececeb"/><rect x="17.75" y="12.69" width="12.85" height="1.9" transform="translate(-1.83 3.94) rotate(-8.99)" style="fill:#ececeb"/></svg>