<svg xmlns="http://www.w3.org/2000/svg" viewBox="0 0 148.8 148.8"><polygon points="52.24 19.81 108.46 32.25 92.92 121.99 50.92 121.99 52.24 19.81" style="fill:#dddddc;fill-rule:evenodd"/><polygon points="108.46 32.25 148 65.27 121.35 148.8 92.92 121.99 102.31 67.73 108.46 32.25" style="fill:#fff;fill-rule:evenodd"/><polygon points="95.23 108.65 51.09 108.65 50.92 121.99 92.92 121.99 99.35 120.37 95.23 108.65" style="fill:#a283b8;fill-rule:evenodd"/><polygon points="52.24 19.81 63.82 36.55 106.22 45.17 117 46 108.46 32.25 52.24 19.81" style="fill:#a283b8;fill-rule:evenodd"/><polygon points="108.46 32.25 148.8 64.98 121.35 148.8 92.92 121.99 95.23 108.65 116.39 128.99 135.07 70.81 106.22 45.17 108.46 32.25" style="fill:#a283b8;fill-rule:evenodd"/><path d="M73.23,80.36l8.55.66-.13,1.26-8.57-.66.15-1.26Zm1.5-13,13.56,1.19-.13,1.26L74.59,68.62l.14-1.27Zm-.4,3.53,13.62,1-.13,1.26-13.64-1,.15-1.26ZM74,74l8.52.65L82.34,76l-8.53-.66L74,74Zm-.36,3.13,8.53.65L82,79.09l-8.55-.66Z" transform="translate(-0.6 -0.6)" style="fill:#828383;fill-rule:evenodd"/><path d="M119.75,72.94l6.38,6-.34,1.39-6.4-6,.36-1.38Zm1.83-7.11-.36,1.38L130,75.67l.42-1.32-8.87-8.52Zm-.92,3.56-.35,1.38L129,79l.42-1.32Z" transform="translate(-0.6 -0.6)" style="fill:#828383;fill-rule:evenodd"/><polygon points="63.17 62.55 85.66 55.22 86.48 54.95 86.9 55.74 100.02 80.52 111.93 78.57 113.07 78.39 113.15 79.58 114.48 97.62 112.36 97.79 111.12 80.95 99.61 82.83 98.87 82.95 98.51 82.27 85.46 57.61 63.8 64.67 63.17 62.55" style="fill:#a283b8;fill-rule:evenodd"/><polygon points="79.28 55.59 86.72 49.63 92.92 58.17 83.74 62.84 79.28 55.59" style="fill:#935d78;fill-rule:evenodd"/><polygon points="72.24 95.19 50.92 121.99 28.93 71.49 72.24 95.19" style="fill:#745584;fill-rule:evenodd"/><path d="M119.17,95l-15,4.29,2.35,14.3,13.13-3.3L119.17,95Zm-9.79,12.75-1-5.5,5.63-1.78,1.36,5.5Z" transform="translate(-0.6 -0.6)" style="fill:#b2849a;fill-rule:evenodd"/><polygon points="106.89 76.56 115.32 72.16 117.55 82.52 108.37 86.4 106.89 76.56" style="fill:#935d78;fill-rule:evenodd"/><polygon points="79.11 94.17 92.01 94.69 90.77 101.94 77.87 101.68 79.11 94.17" style="fill:#a0a1a0;fill-rule:evenodd"/><polygon points="108.46 32.25 52.24 19.81 50.92 121.99 92.92 121.99 108.46 32.25" style="fill:#070908;fill-rule:evenodd;opacity:0.1216"/><polygon points="0 30.3 58.72 0 72.24 95.19 50.58 96.74 44.91 108.19 19.18 120.44 0 30.3" style="fill:#fff;fill-rule:evenodd"/><polygon points="72.24 95.19 70.43 82.48 27.11 103.73 11.9 38.08 60.71 14.01 60.26 10.86 58.72 0 0 30.3 19.18 120.44 72.24 95.19" style="fill:#a283b8;fill-rule:evenodd"/><path d="M34.44,51.94,51.55,64.33l-1.21,1.83L33.23,53.76l1.21-1.82ZM67,54.48,54.35,64.19l1.18,1.66,11.77-9Z" transform="translate(-0.6 -0.6)" style="fill:#a283b8;fill-rule:evenodd"/><polygon points="49.52 57.94 56.33 61.61 53.75 70.1 45.64 65.7 49.52 57.94" style="fill:#d09eb7;fill-rule:evenodd"/><path d="M27.14,39.87l-6.2,12.69,11.4,8.28,6.95-15-12.15-6Zm3.22,14.76L25.9,51.52l2.72-5.43,4.72,2.84Z" transform="translate(-0.6 -0.6)" style="fill:#935d78;fill-rule:evenodd"/><path d="M29.06,74.67l12-5.89.27,1.27-12,5.88-.29-1.26Zm1.6,6.81,8.45-4.24.27,1.27L31,82.73l-.29-1.25Zm-.78-3.31.3,1.26,11.87-6-.27-1.27Z" transform="translate(-0.6 -0.6)" style="fill:#828383;fill-rule:evenodd"/><polygon points="40.17 32.54 53.81 25.55 54.81 33.32 41.91 39.53 40.17 32.54" style="fill:#cdcccb;fill-rule:evenodd"/><polygon points="42.9 43.16 50.59 39.79 51.34 45.23 44.14 48.34 42.9 43.16" style="fill:#cdcccb;fill-rule:evenodd"/></svg>