<svg xmlns="http://www.w3.org/2000/svg" viewBox="0 0 40 40"><polygon points="4.79 3.79 5.42 7.8 8.59 11.69 9.16 8.14 4.79 3.79" style="fill:#594165;fill-rule:evenodd"/><polygon points="9.29 15.51 1.14 17.66 3.43 20.93 10.56 19.85 10.7 18.56 9.29 15.51" style="fill:#594165;fill-rule:evenodd"/><polygon points="15.01 16.92 15.14 10.18 12.99 4.97 11.54 13.97 13.25 15.74 15.01 16.92" style="fill:#594165;fill-rule:evenodd"/><polygon points="27.42 31.83 12.14 13.47 10.7 14.36 9.49 16.12 23.66 36.28 27.42 31.83" style="fill:#a688ba;fill-rule:evenodd"/><polygon points="23.65 40 10.56 19.85 9.49 16.12 23.73 35.7 24.23 37.64 23.65 40" style="fill:#9075a0;fill-rule:evenodd"/><polygon points="27.42 31.83 27.68 35.68 23.65 40 23.73 35.7 27.42 31.83" style="fill:#594165;fill-rule:evenodd"/><polygon points="8.56 8.64 4.6 12.38 0 8.17 1.14 17.66 9.49 16.12 12.14 13.47 12.99 4.97 4.79 3.79 8.56 8.64" style="fill:#9075a0"/><polygon points="5.84 13.86 9.66 10.25 10.85 11.72 7 15.33 5.84 13.86" style="fill:#b3889d;fill-rule:evenodd"/><polygon points="7.04 12.73 6.47 13.26 7 15.32 7.55 14.81 7.04 12.73" style="fill:#734d60;fill-rule:evenodd"/><polygon points="8.18 14.23 8.92 13.53 8.25 11.58 7.73 12.07 8.18 14.23" style="fill:#734d60;fill-rule:evenodd"/><polygon points="9.48 13 10.17 12.36 9.66 10.25 9.05 10.83 9.48 13" style="fill:#734d60;fill-rule:evenodd"/><polygon points="27.71 4.45 27.53 2.55 25.3 0.36 21.72 0 21.59 1.49 23.7 3.11 23.06 10.74 26.06 7.75 27.71 4.45" style="fill:#734d60;fill-rule:evenodd"/><polygon points="27.71 4.45 25.3 0.36 29.51 1.43 32.6 5.6 30.23 6.15 27.71 4.45" style="fill:#96637c;fill-rule:evenodd"/><polygon points="8.15 30.71 26.03 14.23 26.73 16.27 17.88 26.41 8.27 35.51 8.15 30.71" style="fill:#c4c4c4;fill-rule:evenodd"/><polygon points="8.27 35.51 26.73 16.27 28.16 17.54 12.4 36.48 8.27 35.51" style="fill:#858686;fill-rule:evenodd"/><polygon points="31.34 17.58 40 18.24 35.98 6.4 27.71 4.45 31.34 17.58" style="fill:#a688ba"/><polygon points="27.71 4.45 31.67 16.76 29.79 19.16 26.17 22.88 23.06 10.74 27.71 4.45" style="fill:#9075a0;fill-rule:evenodd"/><polygon points="26.17 22.88 36.02 23.86 40 18.24 31.67 16.76 26.17 22.88" style="fill:#785d88"/><polygon points="32.5 19.19 35.91 19.53 36.62 21.39 31.79 21.47 32.5 19.19" style="fill:#b3889d;fill-rule:evenodd"/><polygon points="32.5 19.19 30.69 21.27 32.86 21.01 32.5 19.19" style="fill:#96637c;fill-rule:evenodd"/><polygon points="38.19 20.79 30.36 20.11 31.65 23.8 35.9 25.26 39.56 24.22 38.19 20.79" style="fill:#b3889d;fill-rule:evenodd"/><polygon points="30.36 20.11 32.14 23.48 31.38 26.46 29.05 30.58 27.21 25.8 30.36 20.11" style="fill:#96637c;fill-rule:evenodd"/><polygon points="32.14 23.48 39.56 24.22 36.25 29.89 29.05 30.58 32.14 23.48" style="fill:#543042;fill-rule:evenodd"/></svg>