<svg xmlns="http://www.w3.org/2000/svg" viewBox="0 0 58 54.57"><polygon points="17.4 50.69 22.57 47.09 39.21 46.63 36.47 50.03 33.33 52.92 17.4 50.69" style="fill:#e9be61"/><polygon points="30.29 49.6 32.31 48.41 33.72 42.09 29.71 41.06 30.29 49.6" style="fill:#8d7c2f"/><polygon points="23.83 42.28 25.32 49.24 30.29 49.6 31.19 42.09 23.83 42.28" style="fill:#ccae2d"/><polygon points="4.5 8.08 48.45 5.39 47.59 41.06 7.01 39.42 4.5 8.08" style="fill:#f4d75c"/><polygon points="4.5 8.08 29.71 5.46 26.12 40.15 7.01 39.42 4.5 8.08" style="fill:#e9be61"/><polygon points="9.17 11.31 9.65 36.52 9.65 38.54 7.11 39.92 4.89 7.14 7.68 7.88 9.17 11.31" style="fill:#7d5f1f"/><polygon points="5.91 9.05 9.17 11.31 48.85 8.69 48.45 5.39 5.91 9.05" style="fill:#71561c"/><polygon points="8.26 38.38 9.65 36.52 48.02 38.42 46.24 41.01 9.17 39.73 8.26 38.38" style="fill:#cc9c34"/><path d="M53.65,2.71,1,7.73l3.83,39,46.72-.13,3.73-32.51ZM47.24,42.63l-38-1.54L6.91,11.76,48,9.25Z" transform="translate(-1 -2.71)" style="fill:#9f7928"/><polygon points="52.65 0 58 5.02 53.54 41.93 50.55 43.89 52.65 0" style="fill:#7d5f1f"/><polygon points="39.21 46.63 39.97 51.75 33.72 54.57 32.17 52.92 32.97 51.91 39.21 46.63" style="fill:#7d5f1f"/><polygon points="17.4 50.69 16.77 53.95 33.72 54.57 32.97 51.91 17.4 50.69" style="fill:#9f7928"/><polygon points="14.35 16 22.99 15.4 23.75 19.27 13.88 18.79 14.35 16" style="fill:#7d5f1f"/><polygon points="31.71 15.78 43.53 16.67 42.88 19.52 32.18 19.97 31.71 15.78" style="fill:#7d5f1f"/><polygon points="35.2 12.74 36.44 23.58 39 23.16 39.62 12.44 35.2 12.74" style="fill:#7d5f1f"/><polygon points="31.13 25.9 31.43 27.55 32.88 27.67 33.21 25.64 31.13 25.9" style="fill:#7d5f1f"/><polygon points="35.11 26.31 43.49 26.07 43.31 27.33 35.27 27.13 35.11 26.31" style="fill:#7d5f1f"/><polygon points="31.13 29.62 31.43 31.26 32.88 31.39 33.21 29.36 31.13 29.62" style="fill:#7d5f1f"/><polygon points="35.11 30.03 39.41 29.78 39.23 31.04 35.27 30.85 35.11 30.03" style="fill:#7d5f1f"/><polygon points="31.13 33.33 31.43 34.98 32.88 35.11 33.21 33.08 31.13 33.33" style="fill:#7d5f1f"/><polygon points="35.11 33.74 41.38 33.5 41.2 34.76 35.27 34.57 35.11 33.74" style="fill:#7d5f1f"/><polygon points="12.39 23.74 12.7 25.39 14.14 25.52 14.47 23.48 12.39 23.74" style="fill:#7d5f1f"/><polygon points="16.38 24.15 24.76 23.91 24.58 25.17 16.53 24.98 16.38 24.15" style="fill:#7d5f1f"/><polygon points="12.39 27.46 12.7 29.11 14.14 29.23 14.47 27.2 12.39 27.46" style="fill:#7d5f1f"/><polygon points="16.38 27.87 20.67 27.62 20.49 28.89 16.53 28.69 16.38 27.87" style="fill:#7d5f1f"/><polygon points="12.39 31.18 12.7 32.82 14.14 32.95 14.47 30.92 12.39 31.18" style="fill:#7d5f1f"/><polygon points="16.38 31.59 22.64 31.35 22.46 32.61 16.53 32.41 16.38 31.59" style="fill:#7d5f1f"/></svg>